<svg xmlns="http://www.w3.org/2000/svg" xmlns:xlink="http://www.w3.org/1999/xlink" fill="none" stroke="none" stroke-linecap="square" stroke-miterlimit="10" version="1.1" viewBox="0 0 490.013 311.577"><clipPath id="p.0"><path d="m0 0l490.01312 0l0 311.57742l-490.01312 0l0 -311.57742z" clip-rule="nonzero"/></clipPath><g clip-path="url(#p.0)"><path fill="#000" fill-opacity="0" fill-rule="evenodd" d="m0 0l490.01312 0l0 311.57742l-490.01312 0z"/><path fill="#000" fill-opacity="0" fill-rule="evenodd" d="m477.90686 305.11346l-465.8048 0l-0.89363766 0l-1.742343 -0.45196533l-1.5825872 -0.8367615l-1.3729072 -1.1604309l-1.21315 -1.4230652l-0.94855404 -1.7406921l-0.6889496 -1.9360962l-0.31452036 -2.064392l-0.05491638 -1.0993652l0 -258.24203l0.05491638 -1.099369l0.31452036 -2.1254501l0.6889496 -1.9361115l0.94855404 -1.6795921l1.21315 -1.4841499l1.3729072 -1.1604462l1.5825872 -0.84285164l1.742343 -0.38477898l0.89363766 -0.06718254l465.8048 0l0.8986206 0.06718254l1.7423401 0.38477898l1.5826111 0.84285164l1.3728943 1.1604462l1.2131348 1.4841499l0.9485779 1.6795921l0.68395996 1.9361115l0.36941528 2.1254501l0 1.099369l0 258.24203l0 1.0993652l-0.36941528 2.064392l-0.68395996 1.9360962l-0.9485779 1.7406921l-1.2131348 1.4230652l-1.3728943 1.1604309l-1.5826111 0.8367615l-1.7423401 0.45196533l-0.8986206 0z"/><path fill-rule="evenodd" stroke="#466bb0" stroke-dasharray="1.89 1.417" stroke-linecap="butt" stroke-linejoin="round" stroke-width=".472" d="m477.90686 305.11346l-465.8048 0l-0.89363766 0l-1.742343 -0.45196533l-1.5825872 -0.8367615l-1.3729072 -1.1604309l-1.21315 -1.4230652l-0.94855404 -1.7406921l-0.6889496 -1.9360962l-0.31452036 -2.064392l-0.05491638 -1.0993652l0 -258.24203l0.05491638 -1.099369l0.31452036 -2.1254501l0.6889496 -1.9361115l0.94855404 -1.6795921l1.21315 -1.4841499l1.3729072 -1.1604462l1.5825872 -0.84285164l1.742343 -0.38477898l0.89363766 -0.06718254l465.8048 0l0.8986206 0.06718254l1.7423401 0.38477898l1.5826111 0.84285164l1.3728943 1.1604462l1.2131348 1.4841499l0.9485779 1.6795921l0.68395996 1.9361115l0.36941528 2.1254501l0 1.099369l0 258.24203l0 1.0993652l-0.36941528 2.064392l-0.68395996 1.9360962l-0.9485779 1.7406921l-1.2131348 1.4230652l-1.3728943 1.1604309l-1.5826111 0.8367615l-1.7423401 0.45196533l-0.8986206 0z"/><path fill="#e6e6e6" fill-rule="evenodd" d="m89.321526 101.414696l-0.27559662 0.028877258l-0.50131226 0.1942215l-0.3858261 0.38845062l-0.22309875 0.49868774l0 0.2782135l0 30.509186l0 0.2782135l0.22309875 0.49868774l0.3858261 0.38845825l0.50131226 0.19422913l0.27559662 0.028869629l93.77952 0l0.27822876 -0.028869629l0.49868774 -0.19422913l0.35957336 -0.38845825l0.22309875 -0.49868774l0.028869629 -0.2782135l0 -30.509186l-0.028869629 -0.2782135l-0.22309875 -0.49868774l-0.35957336 -0.38845062l-0.49868774 -0.1942215l-0.27822876 -0.028877258z"/><path fill="#fff" fill-rule="evenodd" d="m95.22966 105.57481l-0.275589 0.028869629l-0.50131226 0.1942215l-0.38845062 0.38845062l-0.22047424 0.49868774l0 0.27822113l0 22.18898l0 0.2782135l0.22047424 0.49868774l0.38845062 0.388443l0.50131226 0.19422913l0.275589 0.026245117l22.191597 0l0.27559662 -0.026245117l0.49868774 -0.19422913l0.36219788 -0.388443l0.22047424 -0.49868774l0.028869629 -0.2782135l0 -22.18898l-0.028869629 -0.27822113l-0.22047424 -0.49868774l-0.36219788 -0.38845062l-0.49868774 -0.1942215l-0.27559662 -0.028869629z"/><path fill="#000" fill-opacity="0" fill-rule="evenodd" d="m112.45538 121.580055l0 -7.073494l-6.131233 -3.5223083l-6.1286087 3.5223083l0 7.073494l6.1286087 3.551178l6.131233 -3.551178z"/><path fill-rule="evenodd" stroke="#b14d9d" stroke-linecap="butt" stroke-linejoin="round" stroke-width="1.386" d="m112.45538 121.580055l0 -7.073494l-6.131233 -3.5223083l-6.1286087 3.5223083l0 7.073494l6.1286087 3.551178l6.131233 -3.551178z"/><path fill="#fff" fill-rule="evenodd" d="m125.437004 105.57481l-0.2782135 0.028869629l-0.49868774 0.1942215l-0.38845062 0.38845062l-0.22309875 0.49868774l0 0.27822113l0 22.18898l0 0.2782135l0.22309875 0.49868774l0.38845062 0.388443l0.49868774 0.19422913l0.2782135 0.026245117l51.31234 0l0.2782135 -0.026245117l0.49868774 -0.19422913l0.35958862 -0.388443l0.2230835 -0.49868774l0.026260376 -0.2782135l0 -22.18898l-0.026260376 -0.27822113l-0.2230835 -0.49868774l-0.35958862 -0.38845062l-0.49868774 -0.1942215l-0.2782135 -0.028869629z"/><path fill="#767576" fill-rule="evenodd" d="m134.17455 109.73753l-0.8609009 0.026245117l-1.6377869 0.33333588l-1.4698181 0.6377945l-1.3307037 0.88713837l-1.1364899 1.1364822l-0.88713837 1.3333359l-0.6377945 1.4698105l-0.33333588 1.6351776l-0.028869629 0.8608856l0.028869629 0.86089325l0.33333588 1.6063004l0.6377945 1.4986877l0.88713837 1.3307114l1.1364899 1.1391068l1.3307037 0.88713837l1.4698181 0.6377945l1.6377869 0.33333588l0.8609009 0.026245117l0.8582611 -0.026245117l1.6089325 -0.33333588l1.4986877 -0.6377945l1.3307037 -0.88713837l1.1364746 -1.1391068l0.887146 -1.3307114l0.6378021 -1.4986877l0.33332825 -1.6063004l0.028869629 -0.86089325l-0.028869629 -0.8608856l-0.33332825 -1.6351776l-0.6378021 -1.4698105l-0.887146 -1.3333359l-1.1364746 -1.1364822l-1.3307037 -0.88713837l-1.4986877 -0.6377945l-1.6089325 -0.33333588l-0.8582611 -0.026245117z"/><path fill="#000" fill-opacity="0" fill-rule="evenodd" d="m137.11417 120.94226l-5.908127 0l0 -5.908142l5.908127 0l0 5.908142z"/><path fill-rule="evenodd" stroke="#fff" stroke-linecap="butt" stroke-linejoin="round" stroke-width=".916" d="m137.11417 120.94226l-5.908127 0l0 -5.908142l5.908127 0l0 5.908142z"/><path fill="#000" fill-opacity="0" fill-rule="evenodd" d="m132.31364 115.03412l0 -1.4146957"/><path fill-rule="evenodd" stroke="#fff" stroke-linecap="round" stroke-miterlimit="105.678" stroke-width=".916" d="m132.31364 115.03412l0 -1.4146957"/><path fill="#000" fill-opacity="0" fill-rule="evenodd" d="m134.17455 115.03412l0 -1.4146957"/><path fill-rule="evenodd" stroke="#fff" stroke-linecap="round" stroke-miterlimit="105.678" stroke-width=".916" d="m134.17455 115.03412l0 -1.4146957"/><path fill="#000" fill-opacity="0" fill-rule="evenodd" d="m136.0328 115.03412l0 -1.4146957"/><path fill-rule="evenodd" stroke="#fff" stroke-linecap="round" stroke-miterlimit="105.678" stroke-width=".916" d="m136.0328 115.03412l0 -1.4146957"/><path fill="#000" fill-opacity="0" fill-rule="evenodd" d="m132.31364 122.49606l0 -1.443573"/><path fill-rule="evenodd" stroke="#fff" stroke-linecap="round" stroke-miterlimit="105.678" stroke-width=".916" d="m132.31364 122.49606l0 -1.443573"/><path fill="#000" fill-opacity="0" fill-rule="evenodd" d="m134.17455 122.49606l0 -1.443573"/><path fill-rule="evenodd" stroke="#fff" stroke-linecap="round" stroke-miterlimit="105.678" stroke-width=".916" d="m134.17455 122.49606l0 -1.443573"/><path fill="#000" fill-opacity="0" fill-rule="evenodd" d="m136.0328 122.49606l0 -1.443573"/><path fill-rule="evenodd" stroke="#fff" stroke-linecap="round" stroke-miterlimit="105.678" stroke-width=".916" d="m136.0328 122.49606l0 -1.443573"/><path fill="#000" fill-opacity="0" fill-rule="evenodd" d="m131.15092 119.91601l-1.4147034 0"/><path fill-rule="evenodd" stroke="#fff" stroke-linecap="round" stroke-miterlimit="105.678" stroke-width=".916" d="m131.15092 119.91601l-1.4147034 0"/><path fill="#000" fill-opacity="0" fill-rule="evenodd" d="m131.15092 118.05774l-1.4147034 0"/><path fill-rule="evenodd" stroke="#fff" stroke-linecap="round" stroke-miterlimit="105.678" stroke-width=".916" d="m131.15092 118.05774l-1.4147034 0"/><path fill="#000" fill-opacity="0" fill-rule="evenodd" d="m131.15092 116.19948l-1.4147034 0"/><path fill-rule="evenodd" stroke="#fff" stroke-linecap="round" stroke-miterlimit="105.678" stroke-width=".916" d="m131.15092 116.19948l-1.4147034 0"/><path fill="#000" fill-opacity="0" fill-rule="evenodd" d="m138.61023 119.91601l-1.4409332 0"/><path fill-rule="evenodd" stroke="#fff" stroke-linecap="round" stroke-miterlimit="105.678" stroke-width=".916" d="m138.61023 119.91601l-1.4409332 0"/><path fill="#000" fill-opacity="0" fill-rule="evenodd" d="m138.61023 118.05774l-1.4409332 0"/><path fill-rule="evenodd" stroke="#fff" stroke-linecap="round" stroke-miterlimit="105.678" stroke-width=".916" d="m138.61023 118.05774l-1.4409332 0"/><path fill="#000" fill-opacity="0" fill-rule="evenodd" d="m138.61023 116.19948l-1.4409332 0"/><path fill-rule="evenodd" stroke="#fff" stroke-linecap="round" stroke-miterlimit="105.678" stroke-width=".916" d="m138.61023 116.19948l-1.4409332 0"/><path fill="#fff" fill-rule="evenodd" d="m133.78609 116.67191l-0.19422913 0.026252747l-0.33332825 0.13910675l-0.24934387 0.24934387l-0.13911438 0.33332825l0 0.19422913l0 0.77690125l0 0.19422913l0.13911438 0.33332825l0.24934387 0.24934387l0.33332825 0.13648224l1.162735 0l0.33332825 -0.13648224l0.24934387 -0.24934387l0.13911438 -0.33332825l0 -0.19422913l0 -0.77690125l0 -0.19422913l-0.13911438 -0.33332825l-0.24934387 -0.24934387l-0.33332825 -0.13910675l-0.19422913 -0.026252747z"/><path fill="#000" fill-opacity="0" fill-rule="evenodd" d="m134.8937 105.57087l58.23622 0l0 24.976372l-58.23622 0z"/><path fill="#000" fill-rule="nonzero" d="m145.75308 120.56843q-0.359375 0 -0.703125 -0.140625q-0.328125 -0.15625 -0.59375 -0.4375q-0.25 -0.296875 -0.359375 -0.71875l0.53125 -0.21875q0.125 0.421875 0.421875 0.703125q0.3125 0.265625 0.71875 0.265625q0.421875 0 0.703125 -0.21875q0.28125 -0.21875 0.28125 -0.609375q0 -0.328125 -0.25 -0.546875q-0.234375 -0.21875 -0.78125 -0.40625l-0.296875 -0.109375q-0.515625 -0.171875 -0.84375 -0.46875q-0.3125 -0.296875 -0.3125 -0.8125q0 -0.34375 0.1875 -0.625q0.1875 -0.296875 0.515625 -0.46875q0.34375 -0.171875 0.75 -0.171875q0.421875 0 0.71875 0.15625q0.3125 0.15625 0.484375 0.375q0.1875 0.21875 0.265625 0.4375l-0.53125 0.21875q-0.0625 -0.25 -0.3125 -0.4375q-0.234375 -0.203125 -0.609375 -0.203125q-0.375 0 -0.640625 0.203125q-0.25 0.203125 -0.25 0.515625q0 0.28125 0.21875 0.46875q0.21875 0.171875 0.671875 0.3125l0.3125 0.109375q0.59375 0.21875 0.9375 0.546875q0.34375 0.328125 0.34375 0.90625q0 0.453125 -0.234375 0.765625q-0.234375 0.3125 -0.59375 0.46875q-0.359375 0.140625 -0.75 0.140625zm3.8188934 0q-0.5 0 -0.890625 -0.234375q-0.375 -0.234375 -0.59375 -0.640625q-0.21875 -0.40625 -0.21875 -0.921875q0 -0.484375 0.203125 -0.90625q0.203125 -0.421875 0.578125 -0.65625q0.375 -0.25 0.875 -0.25q0.5 0 0.859375 0.21875q0.359375 0.21875 0.546875 0.625q0.203125 0.390625 0.203125 0.890625q0 0.078125 0 0.171875l-2.6875 0q0.015625 0.390625 0.171875 0.65625q0.171875 0.265625 0.421875 0.40625q0.265625 0.125 0.546875 0.125q0.65625 0 1.0 -0.609375l0.484375 0.234375q-0.21875 0.40625 -0.59375 0.65625q-0.375 0.234375 -0.90625 0.234375zm0.96875 -2.171875q-0.015625 -0.203125 -0.125 -0.421875q-0.09375 -0.21875 -0.328125 -0.359375q-0.21875 -0.140625 -0.5625 -0.140625q-0.40625 0 -0.6875 0.265625q-0.28125 0.25 -0.359375 0.65625l2.0625 0zm1.2630463 -1.328125l0.53125 0l0 0.546875l0.03125 0q0.09375 -0.28125 0.375 -0.46875q0.296875 -0.1875 0.609375 -0.1875q0.234375 0 0.40625 0.078125l0 0.609375q-0.21875 -0.109375 -0.484375 -0.109375q-0.25 0 -0.453125 0.140625q-0.203125 0.140625 -0.328125 0.375q-0.125 0.234375 -0.125 0.515625l0 1.890625l-0.5625 0l0 -3.390625zm2.2343903 0l0.609375 0l1.046875 2.71875l0.015625 0l1.0625 -2.71875l0.59375 0l-1.390625 3.390625l-0.5625 0l-1.375 -3.390625zm4.1243896 -0.625q-0.171875 0 -0.296875 -0.125q-0.109375 -0.125 -0.109375 -0.28125q0 -0.171875 0.109375 -0.28125q0.125 -0.125 0.296875 -0.125q0.171875 0 0.28125 0.125q0.125 0.109375 0.125 0.28125q0 0.15625 -0.125 0.28125q-0.109375 0.125 -0.28125 0.125zm-0.28125 0.625l0.5625 0l0 3.390625l-0.5625 0l0 -3.390625zm2.9553223 3.5q-0.484375 0 -0.890625 -0.234375q-0.390625 -0.234375 -0.609375 -0.640625q-0.21875 -0.421875 -0.21875 -0.9375q0 -0.5 0.21875 -0.90625q0.21875 -0.421875 0.609375 -0.65625q0.40625 -0.234375 0.890625 -0.234375q0.5625 0 0.9375 0.265625q0.375 0.25 0.53125 0.671875l-0.515625 0.21875q-0.125 -0.3125 -0.375 -0.46875q-0.25 -0.171875 -0.59375 -0.171875q-0.3125 0 -0.578125 0.171875q-0.25 0.15625 -0.40625 0.453125q-0.15625 0.28125 -0.15625 0.65625q0 0.390625 0.15625 0.6875q0.15625 0.28125 0.40625 0.453125q0.265625 0.15625 0.578125 0.15625q0.359375 0 0.609375 -0.15625q0.265625 -0.171875 0.390625 -0.484375l0.5 0.21875q-0.171875 0.421875 -0.5625 0.6875q-0.375 0.25 -0.921875 0.25zm3.5852966 0q-0.5 0 -0.890625 -0.234375q-0.375 -0.234375 -0.59375 -0.640625q-0.21875 -0.40625 -0.21875 -0.921875q0 -0.484375 0.203125 -0.90625q0.203125 -0.421875 0.578125 -0.65625q0.375 -0.25 0.875 -0.25q0.5 0 0.859375 0.21875q0.359375 0.21875 0.546875 0.625q0.203125 0.390625 0.203125 0.890625q0 0.078125 0 0.171875l-2.6875 0q0.015625 0.390625 0.171875 0.65625q0.171875 0.265625 0.421875 0.40625q0.265625 0.125 0.546875 0.125q0.65625 0 1.0 -0.609375l0.484375 0.234375q-0.21875 0.40625 -0.59375 0.65625q-0.375 0.234375 -0.90625 0.234375zm0.96875 -2.171875q-0.015625 -0.203125 -0.125 -0.421875q-0.09375 -0.21875 -0.328125 -0.359375q-0.21875 -0.140625 -0.5625 -0.140625q-0.40625 0 -0.6875 0.265625q-0.28125 0.25 -0.359375 0.65625l2.0625 0zm0.84117126 2.0625l0 0zm3.2504883 -4.765625l0.640625 0l1.8125 4.765625l-0.625 0l-0.46875 -1.3125l-2.0625 0l-0.484375 1.3125l-0.625 0l1.8125 -4.765625zm1.15625 2.921875l-0.640625 -1.71875l-0.171875 -0.515625l-0.03125 0l-0.1875 0.515625l-0.640625 1.71875l1.671875 0z"/><path fill="#000" fill-opacity="0" fill-rule="evenodd" d="m3.288714 6.4566927l68.220474 0l0 14.803149l-68.220474 0z"/><path fill="#000" fill-rule="nonzero" d="m12.929338 14.205467l0.671875 0l0 5.734375l-0.671875 0l0 -5.734375zm3.2412262 5.859375q-0.65625 0 -1.09375 -0.296875q-0.4375 -0.3125 -0.625 -0.796875l0.609375 -0.265625q0.15625 0.359375 0.453125 0.5625q0.296875 0.203125 0.65625 0.203125q0.390625 0 0.65625 -0.15625q0.28125 -0.15625 0.28125 -0.453125q0 -0.25 -0.21875 -0.40625q-0.21875 -0.15625 -0.6875 -0.265625l-0.484375 -0.125q-0.5 -0.125 -0.8125 -0.40625q-0.296875 -0.296875 -0.296875 -0.75q0 -0.359375 0.203125 -0.625q0.21875 -0.265625 0.5625 -0.40625q0.359375 -0.140625 0.765625 -0.140625q0.53125 0 0.953125 0.234375q0.421875 0.21875 0.59375 0.640625l-0.59375 0.265625q-0.265625 -0.53125 -0.96875 -0.53125q-0.328125 0 -0.578125 0.15625q-0.25 0.15625 -0.25 0.390625q0 0.21875 0.171875 0.359375q0.171875 0.140625 0.53125 0.234375l0.59375 0.15625q0.59375 0.140625 0.890625 0.453125q0.3125 0.296875 0.3125 0.71875q0 0.375 -0.21875 0.671875q-0.21875 0.28125 -0.59375 0.4375q-0.359375 0.140625 -0.8125 0.140625zm3.9002075 -0.0625q-0.25 0 -0.46875 -0.078125q-0.203125 -0.078125 -0.359375 -0.21875q-0.3125 -0.296875 -0.3125 -0.84375l0 -2.390625l-0.71875 0l0 -0.609375l0.71875 0l0 -1.15625l0.671875 0l0 1.15625l1.0 0l0 0.609375l-1.0 0l0 2.234375q0 0.328125 0.140625 0.484375q0.140625 0.1875 0.4375 0.1875q0.25 0 0.4375 -0.140625l0 0.65625q-0.109375 0.0625 -0.234375 0.078125q-0.125 0.03125 -0.3125 0.03125zm1.7960815 -4.890625q-0.203125 0 -0.34375 -0.140625q-0.140625 -0.15625 -0.140625 -0.34375q0 -0.21875 0.140625 -0.359375q0.140625 -0.140625 0.34375 -0.140625q0.203125 0 0.34375 0.140625q0.140625 0.140625 0.140625 0.359375q0 0.1875 -0.140625 0.34375q-0.140625 0.140625 -0.34375 0.140625zm-0.34375 0.75l0.6875 0l0 4.078125l-0.6875 0l0 -4.078125zm3.596115 4.203125q-0.609375 0 -1.09375 -0.28125q-0.46875 -0.296875 -0.75 -0.78125q-0.265625 -0.5 -0.265625 -1.109375q0 -0.59375 0.265625 -1.078125q0.28125 -0.5 0.75 -0.78125q0.484375 -0.296875 1.09375 -0.296875q0.59375 0 1.0625 0.296875q0.484375 0.28125 0.75 0.78125q0.28125 0.484375 0.28125 1.078125q0 0.609375 -0.28125 1.109375q-0.265625 0.484375 -0.75 0.78125q-0.46875 0.28125 -1.0625 0.28125zm0 -0.609375q0.375 0 0.6875 -0.1875q0.328125 -0.1875 0.515625 -0.53125q0.203125 -0.359375 0.203125 -0.84375q0 -0.46875 -0.203125 -0.8125q-0.1875 -0.359375 -0.515625 -0.546875q-0.3125 -0.1875 -0.6875 -0.1875q-0.375 0 -0.703125 0.1875q-0.328125 0.1875 -0.53125 0.546875q-0.203125 0.34375 -0.203125 0.8125q0 0.484375 0.203125 0.84375q0.203125 0.34375 0.53125 0.53125q0.328125 0.1875 0.703125 0.1875zm2.3773193 0.484375l0 0zm2.4965973 -5.734375l0.984375 0l1.8281269 4.703125l0.03125 0l1.8125 -4.703125l0.984375 0l0 5.734375l-0.671875 0l0 -3.640625l0.03125 -1.09375l-0.03125 0l-1.859375 4.734375l-0.5625 0l-1.8750019 -4.734375l-0.03125 0l0.03125 1.09375l0 3.640625l-0.671875 0l0 -5.734375zm8.519793 5.859375q-0.578125 0 -1.046875 -0.28125q-0.453125 -0.28125 -0.71875 -0.765625q-0.265625 -0.5 -0.265625 -1.109375q0 -0.578125 0.25 -1.078125q0.25 -0.5 0.703125 -0.796875q0.453125 -0.296875 1.03125 -0.296875q0.59375 0 1.03125 0.265625q0.453125 0.265625 0.6875 0.734375q0.234375 0.46875 0.234375 1.078125q0 0.09375 -0.015625 0.21875l-3.234375 0q0.015625 0.453125 0.21875 0.78125q0.203125 0.3125 0.515625 0.484375q0.3125 0.15625 0.640625 0.15625q0.796875 0 1.203125 -0.734375l0.578125 0.28125q-0.25 0.484375 -0.71875 0.78125q-0.453125 0.28125 -1.09375 0.28125zm1.1875 -2.59375q-0.015625 -0.265625 -0.15625 -0.515625q-0.125 -0.25 -0.390625 -0.421875q-0.265625 -0.1875 -0.6875 -0.1875q-0.484375 0 -0.828125 0.3125q-0.328125 0.3125 -0.421875 0.8125l2.484375 0zm2.965805 2.59375q-0.65625 0 -1.09375 -0.296875q-0.4375 -0.3125 -0.625 -0.796875l0.609375 -0.265625q0.15625 0.359375 0.453125 0.5625q0.296875 0.203125 0.65625 0.203125q0.390625 0 0.65625 -0.15625q0.28125 -0.15625 0.28125 -0.453125q0 -0.25 -0.21875 -0.40625q-0.21875 -0.15625 -0.6875 -0.265625l-0.484375 -0.125q-0.5 -0.125 -0.8125 -0.40625q-0.296875 -0.296875 -0.296875 -0.75q0 -0.359375 0.203125 -0.625q0.21875 -0.265625 0.5625 -0.40625q0.359375 -0.140625 0.765625 -0.140625q0.53125 0 0.953125 0.234375q0.421875 0.21875 0.59375 0.640625l-0.59375 0.265625q-0.265625 -0.53125 -0.96875 -0.53125q-0.328125 0 -0.578125 0.15625q-0.25 0.15625 -0.25 0.390625q0 0.21875 0.171875 0.359375q0.171875 0.140625 0.53125 0.234375l0.59375 0.15625q0.59375 0.140625 0.890625 0.453125q0.3125 0.296875 0.3125 0.71875q0 0.375 -0.21875 0.671875q-0.21875 0.28125 -0.59375 0.4375q-0.359375 0.140625 -0.8125 0.140625zm2.3620758 -5.859375l0.6875 0l0 1.6875l-0.03125 0.5625l0.03125 0q0.171875 -0.3125 0.53125 -0.515625q0.359375 -0.203125 0.796875 -0.203125q0.734375 0 1.125 0.4375q0.40625 0.421875 0.40625 1.15625l0 2.609375l-0.6875 0l0 -2.515625q0 -0.546875 -0.28125 -0.8125q-0.28125 -0.265625 -0.71875 -0.265625q-0.328125 0 -0.59375 0.203125q-0.265625 0.1875 -0.421875 0.5q-0.15625 0.296875 -0.15625 0.625l0 2.265625l-0.6875 0l0 -5.734375z"/><path fill="#000" fill-opacity="0" fill-rule="evenodd" d="m469.6909 295.464l-449.17682 0l-0.8617363 0l-1.6801472 -0.4102173l-1.5260925 -0.75946045l-1.3238983 -1.0532837l-1.1698437 -1.2916565l-0.9146929 -1.5799255l-0.66435623 -1.7572937l-0.30329323 -1.8737488l-0.052955627 -0.99783325l0 -234.3932l0.052955627 -0.9978447l0.30329323 -1.9291611l0.66435623 -1.7573128l0.9146929 -1.5244789l1.1698437 -1.3470879l1.3238983 -1.0532799l1.5260925 -0.76501083l1.6801472 -0.34924698l0.8617363 -0.060977936l449.17682 0l0.86654663 0.060977936l1.6801453 0.34924698l1.5260925 0.76501083l1.323883 1.0532799l1.1698608 1.3470879l0.91470337 1.5244789l0.6595154 1.7573128l0.3562622 1.9291611l0 0.9978447l0 234.3932l0 0.99783325l-0.3562622 1.8737488l-0.6595154 1.7572937l-0.91470337 1.5799255l-1.1698608 1.2916565l-1.323883 1.0532837l-1.5260925 0.75946045l-1.6801453 0.4102173l-0.86654663 0z"/><path fill-rule="evenodd" stroke="#999" stroke-linecap="butt" stroke-linejoin="round" stroke-width=".472" d="m469.6909 295.464l-449.17682 0l-0.8617363 0l-1.6801472 -0.4102173l-1.5260925 -0.75946045l-1.3238983 -1.0532837l-1.1698437 -1.2916565l-0.9146929 -1.5799255l-0.66435623 -1.7572937l-0.30329323 -1.8737488l-0.052955627 -0.99783325l0 -234.3932l0.052955627 -0.9978447l0.30329323 -1.9291611l0.66435623 -1.7573128l0.9146929 -1.5244789l1.1698437 -1.3470879l1.3238983 -1.0532799l1.5260925 -0.76501083l1.6801472 -0.34924698l0.8617363 -0.060977936l449.17682 0l0.86654663 0.060977936l1.6801453 0.34924698l1.5260925 0.76501083l1.323883 1.0532799l1.1698608 1.3470879l0.91470337 1.5244789l0.6595154 1.7573128l0.3562622 1.9291611l0 0.9978447l0 234.3932l0 0.99783325l-0.3562622 1.8737488l-0.6595154 1.7572937l-0.91470337 1.5799255l-1.1698608 1.2916565l-1.323883 1.0532837l-1.5260925 0.75946045l-1.6801453 0.4102173l-0.86654663 0z"/><path fill="#000" fill-opacity="0" fill-rule="evenodd" d="m17.551182 21.259842l68.220474 0l0 14.80315l-68.220474 0z"/><path fill="#000" fill-rule="nonzero" d="m27.191807 29.008617l0.828125 0l2.875 4.5625l0.03125 0l-0.03125 -1.09375l0 -3.46875l0.6875 0l0 5.734375l-0.71875 0l-3.0 -4.78125l-0.03125 0l0.03125 1.109375l0 3.671875l-0.671875 0l0 -5.734375zm7.2557983 5.859375q-0.578125 0 -1.046875 -0.28125q-0.453125 -0.28125 -0.71875 -0.765625q-0.265625 -0.5 -0.265625 -1.109375q0 -0.578125 0.25 -1.078125q0.25 -0.5 0.703125 -0.796875q0.453125 -0.296875 1.03125 -0.296875q0.59375 0 1.03125 0.265625q0.453125 0.265625 0.6875 0.734375q0.234375 0.46875 0.234375 1.078125q0 0.09375 -0.015625 0.21875l-3.234375 0q0.015625 0.453125 0.21875 0.78125q0.203125 0.3125 0.515625 0.484375q0.3125 0.15625 0.640625 0.15625q0.796875 0 1.203125 -0.734375l0.578125 0.28125q-0.25 0.484375 -0.71875 0.78125q-0.453125 0.28125 -1.09375 0.28125zm1.1875 -2.59375q-0.015625 -0.265625 -0.15625 -0.515625q-0.125 -0.25 -0.390625 -0.421875q-0.265625 -0.1875 -0.6875 -0.1875q-0.484375 0 -0.828125 0.3125q-0.328125 0.3125 -0.421875 0.8125l2.484375 0zm2.9620667 2.53125q-0.25 0 -0.46875 -0.078125q-0.203125 -0.078125 -0.359375 -0.21875q-0.3125 -0.296875 -0.3125 -0.84375l0 -2.390625l-0.71875 0l0 -0.609375l0.71875 0l0 -1.15625l0.671875 0l0 1.15625l1.0 0l0 0.609375l-1.0 0l0 2.234375q0 0.328125 0.140625 0.484375q0.140625 0.1875 0.4375 0.1875q0.25 0 0.4375 -0.140625l0 0.65625q-0.109375 0.0625 -0.234375 0.078125q-0.125 0.03125 -0.3125 0.03125zm1.0323334 -4.140625l0.703125 0l0.96875 3.21875l0 0l1.03125 -3.21875l0.703125 0l1.03125 3.21875l0 0l0.96875 -3.21875l0.6875 0l-1.3125 4.078125l-0.6875 0l-1.0625 -3.25l-1.046875 3.25l-0.671875 0l-1.3125 -4.078125zm8.46405 4.203125q-0.609375 0 -1.09375 -0.28125q-0.46875 -0.296875 -0.75 -0.78125q-0.265625 -0.5 -0.265625 -1.109375q0 -0.59375 0.265625 -1.078125q0.28125 -0.5 0.75 -0.78125q0.484375 -0.296875 1.09375 -0.296875q0.59375 0 1.0625 0.296875q0.484375 0.28125 0.75 0.78125q0.28125 0.484375 0.28125 1.078125q0 0.609375 -0.28125 1.109375q-0.265625 0.484375 -0.75 0.78125q-0.46875 0.28125 -1.0625 0.28125zm0 -0.609375q0.375 0 0.6875 -0.1875q0.328125 -0.1875 0.515625 -0.53125q0.203125 -0.359375 0.203125 -0.84375q0 -0.46875 -0.203125 -0.8125q-0.1875 -0.359375 -0.515625 -0.546875q-0.3125 -0.1875 -0.6875 -0.1875q-0.375 0 -0.703125 0.1875q-0.328125 0.1875 -0.53125 0.546875q-0.203125 0.34375 -0.203125 0.8125q0 0.484375 0.203125 0.84375q0.203125 0.34375 0.53125 0.53125q0.328125 0.1875 0.703125 0.1875zm2.7973175 -3.59375l0.65625 0l0 0.65625l0.03125 0q0.109375 -0.34375 0.453125 -0.5625q0.34375 -0.21875 0.734375 -0.21875q0.265625 0 0.46875 0.078125l0 0.734375q-0.25 -0.125 -0.578125 -0.125q-0.296875 0 -0.546875 0.171875q-0.234375 0.171875 -0.390625 0.453125q-0.140625 0.28125 -0.140625 0.609375l0 2.28125l-0.6875 0l0 -4.078125zm3.0399475 -1.65625l0.6875 0l0 3.609375l1.921875 -1.953125l0.859375 0l0 0.03125l-1.59375 1.609375l1.640625 2.40625l0 0.03125l-0.8125 0l-1.3125 -1.953125l-0.703125 0.703125l0 1.25l-0.6875 0l0 -5.734375z"/><path fill="#000" fill-opacity="0" fill-rule="evenodd" d="m257.82712 282.57693l-225.54349 0l-0.4326992 0l-0.843647 -0.3635559l-0.76629066 -0.6730652l-0.6647644 -0.93344116l-0.58740807 -1.1446838l-0.45929146 -1.400177l-0.33359146 -1.557373l-0.15229034 -1.660553l-0.026590347 -0.88430786l0 -207.72559l0.026590347 -0.88430786l0.15229034 -1.7096786l0.33359146 -1.5573769l0.45929146 -1.3510361l0.58740807 -1.1938248l0.6647644 -0.933445l0.76629066 -0.6779747l0.843647 -0.30950928l0.4326992 -0.054042816l225.54349 0l0.43511963 0.054042816l0.8436279 0.30950928l0.7662964 0.6779747l0.6647644 0.933445l0.58740234 1.1938248l0.45928955 1.3510361l0.33117676 1.5573769l0.17889404 1.7096786l0 0.88430786l0 207.72559l0 0.88430786l-0.17889404 1.660553l-0.33117676 1.557373l-0.45928955 1.400177l-0.58740234 1.1446838l-0.6647644 0.93344116l-0.7662964 0.6730652l-0.8436279 0.3635559l-0.43511963 0z"/><path fill-rule="evenodd" stroke="#fbb03f" stroke-linecap="butt" stroke-linejoin="round" stroke-width="1" d="m257.82712 282.57693l-225.54349 0l-0.4326992 0l-0.843647 -0.3635559l-0.76629066 -0.6730652l-0.6647644 -0.93344116l-0.58740807 -1.1446838l-0.45929146 -1.400177l-0.33359146 -1.557373l-0.15229034 -1.660553l-0.026590347 -0.88430786l0 -207.72559l0.026590347 -0.88430786l0.15229034 -1.7096786l0.33359146 -1.5573769l0.45929146 -1.3510361l0.58740807 -1.1938248l0.6647644 -0.933445l0.76629066 -0.6779747l0.843647 -0.30950928l0.4326992 -0.054042816l225.54349 0l0.43511963 0.054042816l0.8436279 0.30950928l0.7662964 0.6779747l0.6647644 0.933445l0.58740234 1.1938248l0.45928955 1.3510361l0.33117676 1.5573769l0.17889404 1.7096786l0 0.88430786l0 207.72559l0 0.88430786l-0.17889404 1.660553l-0.33117676 1.557373l-0.45928955 1.400177l-0.58740234 1.1446838l-0.6647644 0.93344116l-0.7662964 0.6730652l-0.8436279 0.3635559l-0.43511963 0z"/><path fill="#000" fill-opacity="0" fill-rule="evenodd" d="m33.553097 37.261154l99.37007 0l0 14.80315l-99.37007 0z"/><path fill="#000" fill-rule="nonzero" d="m43.19372 45.00993l0.671875 0l0 3.015625l0.046875 0l2.5625 -3.015625l0.875 0l0 0.03125l-2.109375 2.453125l2.265625 3.21875l0 0.03125l-0.828125 0l-1.90625 -2.734375l-0.90625 1.046875l0 1.6875l-0.671875 0l0 -5.734375zm6.191681 5.859375q-0.734375 0 -1.125 -0.421875q-0.390625 -0.4375 -0.390625 -1.21875l0 -2.5625l0.6875 0l0 2.46875q0 0.578125 0.265625 0.859375q0.265625 0.265625 0.703125 0.265625q0.34375 0 0.609375 -0.1875q0.28125 -0.1875 0.421875 -0.484375q0.140625 -0.296875 0.140625 -0.625l0 -2.296875l0.6875 0l0 4.078125l-0.640625 0l0 -0.59375l-0.046875 0q-0.15625 0.3125 -0.53125 0.515625q-0.359375 0.203125 -0.78125 0.203125zm5.0816956 0q-0.46875 0 -0.84375 -0.203125q-0.359375 -0.21875 -0.546875 -0.515625l-0.03125 0l0 0.59375l-0.65625 0l0 -5.734375l0.6875 0l0 1.6875l-0.03125 0.578125l0.03125 0q0.1875 -0.3125 0.546875 -0.515625q0.375 -0.21875 0.84375 -0.21875q0.546875 0 0.984375 0.28125q0.453125 0.28125 0.703125 0.78125q0.265625 0.484375 0.265625 1.09375q0 0.625 -0.265625 1.125q-0.25 0.484375 -0.703125 0.765625q-0.4375 0.28125 -0.984375 0.28125zm-0.078125 -0.609375q0.359375 0 0.671875 -0.1875q0.3125 -0.203125 0.484375 -0.546875q0.1875 -0.359375 0.1875 -0.828125q0 -0.453125 -0.1875 -0.796875q-0.171875 -0.359375 -0.484375 -0.546875q-0.3125 -0.203125 -0.671875 -0.203125q-0.359375 0 -0.671875 0.203125q-0.296875 0.1875 -0.484375 0.546875q-0.1875 0.34375 -0.1875 0.796875q0 0.46875 0.1875 0.828125q0.1875 0.34375 0.484375 0.546875q0.3125 0.1875 0.671875 0.1875zm4.628433 0.609375q-0.578125 0 -1.046875 -0.28125q-0.453125 -0.28125 -0.71875 -0.765625q-0.265625 -0.5 -0.265625 -1.109375q0 -0.578125 0.25 -1.078125q0.25 -0.5 0.703125 -0.796875q0.453125 -0.296875 1.03125 -0.296875q0.59375 0 1.03125 0.265625q0.453125 0.265625 0.6875 0.734375q0.234375 0.46875 0.234375 1.078125q0 0.09375 -0.015625 0.21875l-3.234375 0q0.015625 0.453125 0.21875 0.78125q0.203125 0.3125 0.515625 0.484375q0.3125 0.15625 0.640625 0.15625q0.796875 0 1.203125 -0.734375l0.578125 0.28125q-0.25 0.484375 -0.71875 0.78125q-0.453125 0.28125 -1.09375 0.28125zm1.1875 -2.59375q-0.015625 -0.265625 -0.15625 -0.515625q-0.125 -0.25 -0.390625 -0.421875q-0.265625 -0.1875 -0.6875 -0.1875q-0.484375 0 -0.828125 0.3125q-0.328125 0.3125 -0.421875 0.8125l2.484375 0zm1.5039368 -1.609375l0.65625 0l0 0.65625l0.03125 0q0.109375 -0.34375 0.453125 -0.5625q0.34375 -0.21875 0.734375 -0.21875q0.265625 0 0.4687462 0.078125l0 0.734375q-0.24999619 -0.125 -0.5781212 -0.125q-0.296875 0 -0.546875 0.171875q-0.234375 0.171875 -0.390625 0.453125q-0.140625 0.28125 -0.140625 0.609375l0 2.28125l-0.6875 0l0 -4.078125zm2.9999504 0l0.65625 0l0 0.59375l0.03125 0q0.171875 -0.296875 0.53125 -0.5q0.375 -0.21875 0.78125 -0.21875q0.734375 0 1.125 0.421875q0.390625 0.421875 0.390625 1.171875l0 2.609375l-0.671875 0l0 -2.515625q0 -0.5625 -0.28125 -0.8125q-0.265625 -0.265625 -0.75 -0.265625q-0.328125 0 -0.59375 0.1875q-0.25 0.1875 -0.390625 0.484375q-0.140625 0.296875 -0.140625 0.625l0 2.296875l-0.6875 0l0 -4.078125zm6.3004456 4.203125q-0.578125 0 -1.046875 -0.28125q-0.453125 -0.28125 -0.71875 -0.765625q-0.265625 -0.5 -0.265625 -1.109375q0 -0.578125 0.25 -1.078125q0.25 -0.5 0.703125 -0.796875q0.453125 -0.296875 1.03125 -0.296875q0.59375 0 1.03125 0.265625q0.453125 0.265625 0.6875 0.734375q0.234375 0.46875 0.234375 1.078125q0 0.09375 -0.015625 0.21875l-3.234375 0q0.015625 0.453125 0.21875 0.78125q0.203125 0.3125 0.515625 0.484375q0.3125 0.15625 0.640625 0.15625q0.796875 0 1.203125 -0.734375l0.578125 0.28125q-0.25 0.484375 -0.71875 0.78125q-0.453125 0.28125 -1.09375 0.28125zm1.1875 -2.59375q-0.015625 -0.265625 -0.15625 -0.515625q-0.125 -0.25 -0.390625 -0.421875q-0.265625 -0.1875 -0.6875 -0.1875q-0.484375 0 -0.828125 0.3125q-0.328125 0.3125 -0.421875 0.8125l2.484375 0zm2.9620667 2.53125q-0.25 0 -0.46875 -0.078125q-0.203125 -0.078125 -0.359375 -0.21875q-0.3125 -0.296875 -0.3125 -0.84375l0 -2.390625l-0.71875 0l0 -0.609375l0.71875 0l0 -1.15625l0.671875 0l0 1.15625l1.0 0l0 0.609375l-1.0 0l0 2.234375q0 0.328125 0.140625 0.484375q0.140625 0.1875 0.4375 0.1875q0.25 0 0.4375 -0.140625l0 0.65625q-0.109375 0.0625 -0.234375 0.078125q-0.125 0.03125 -0.3125 0.03125zm2.9863434 0.0625q-0.578125 0 -1.046875 -0.28125q-0.453125 -0.28125 -0.71875 -0.765625q-0.265625 -0.5 -0.265625 -1.109375q0 -0.578125 0.25 -1.078125q0.25 -0.5 0.703125 -0.796875q0.453125 -0.296875 1.03125 -0.296875q0.59375 0 1.03125 0.265625q0.453125 0.265625 0.6875 0.734375q0.234375 0.46875 0.234375 1.078125q0 0.09375 -0.015625 0.21875l-3.234375 0q0.015625 0.453125 0.21875 0.78125q0.203125 0.3125 0.515625 0.484375q0.3125 0.15625 0.640625 0.15625q0.796875 0 1.203125 -0.734375l0.578125 0.28125q-0.25 0.484375 -0.71875 0.78125q-0.453125 0.28125 -1.09375 0.28125zm1.1875 -2.59375q-0.015625 -0.265625 -0.15625 -0.515625q-0.125 -0.25 -0.390625 -0.421875q-0.265625 -0.1875 -0.6875 -0.1875q-0.484375 0 -0.828125 0.3125q-0.328125 0.3125 -0.421875 0.8125l2.484375 0zm2.965805 2.59375q-0.65625 0 -1.09375 -0.296875q-0.4375 -0.3125 -0.625 -0.796875l0.609375 -0.265625q0.15625 0.359375 0.453125 0.5625q0.296875 0.203125 0.65625 0.203125q0.390625 0 0.65625 -0.15625q0.28125 -0.15625 0.28125 -0.453125q0 -0.25 -0.21875 -0.40625q-0.21875 -0.15625 -0.6875 -0.265625l-0.484375 -0.125q-0.5 -0.125 -0.8125 -0.40625q-0.296875 -0.296875 -0.296875 -0.75q0 -0.359375 0.203125 -0.625q0.21875 -0.265625 0.5625 -0.40625q0.359375 -0.140625 0.765625 -0.140625q0.53125 0 0.953125 0.234375q0.421875 0.21875 0.59375 0.640625l-0.59375 0.265625q-0.265625 -0.53125 -0.96875 -0.53125q-0.328125 0 -0.578125 0.15625q-0.25 0.15625 -0.25 0.390625q0 0.21875 0.171875 0.359375q0.171875 0.140625 0.53125 0.234375l0.59375 0.15625q0.59375 0.140625 0.890625 0.453125q0.3125 0.296875 0.3125 0.71875q0 0.375 -0.21875 0.671875q-0.21875 0.28125 -0.59375 0.4375q-0.359375 0.140625 -0.8125 0.140625zm1.8620758 -0.125l0 0zm5.0240936 0.125q-0.828125 0 -1.515625 -0.390625q-0.671875 -0.390625 -1.0625 -1.078125q-0.390625 -0.6875 -0.390625 -1.515625q0 -0.84375 0.390625 -1.53125q0.390625 -0.6875 1.0625 -1.078125q0.6875 -0.390625 1.515625 -0.390625q0.640625 0 1.171875 0.25q0.53125 0.234375 0.921875 0.6875l-0.484375 0.46875q-0.328125 -0.390625 -0.71875 -0.5625q-0.390625 -0.1875 -0.890625 -0.1875q-0.625 0 -1.15625 0.296875q-0.515625 0.28125 -0.828125 0.8125q-0.296875 0.53125 -0.296875 1.234375q0 0.6875 0.296875 1.21875q0.3125 0.53125 0.828125 0.828125q0.53125 0.296875 1.15625 0.296875q1.046875 0 1.765625 -0.859375l0.5 0.484375q-0.390625 0.46875 -0.984375 0.75q-0.578125 0.265625 -1.28125 0.265625zm3.0197906 -5.859375l0.6875 0l0 5.734375l-0.6875 0l0 -5.734375zm3.172348 5.859375q-0.734375 0 -1.125 -0.421875q-0.390625 -0.4375 -0.390625 -1.21875l0 -2.5625l0.6875 0l0 2.46875q0 0.578125 0.265625 0.859375q0.265625 0.265625 0.703125 0.265625q0.34375 0 0.609375 -0.1875q0.28125 -0.1875 0.421875 -0.484375q0.140625 -0.296875 0.140625 -0.625l0 -2.296875l0.6875 0l0 4.078125l-0.640625 0l0 -0.59375l-0.046875 0q-0.15625 0.3125 -0.53125 0.515625q-0.359375 0.203125 -0.78125 0.203125zm4.3854523 0q-0.65625 0 -1.09375 -0.296875q-0.4375 -0.3125 -0.625 -0.796875l0.609375 -0.265625q0.15625 0.359375 0.453125 0.5625q0.296875 0.203125 0.65625 0.203125q0.390625 0 0.65625 -0.15625q0.28125 -0.15625 0.28125 -0.453125q0 -0.25 -0.21875 -0.40625q-0.21875 -0.15625 -0.6875 -0.265625l-0.484375 -0.125q-0.5 -0.125 -0.8125 -0.40625q-0.296875 -0.296875 -0.296875 -0.75q0 -0.359375 0.203125 -0.625q0.21875 -0.265625 0.5625 -0.40625q0.359375 -0.140625 0.765625 -0.140625q0.53125 0 0.953125 0.234375q0.421875 0.21875 0.59375 0.640625l-0.59375 0.265625q-0.265625 -0.53125 -0.96875 -0.53125q-0.328125 0 -0.578125 0.15625q-0.25 0.15625 -0.25 0.390625q0 0.21875 0.171875 0.359375q0.171875 0.140625 0.53125 0.234375l0.59375 0.15625q0.59375 0.140625 0.890625 0.453125q0.3125 0.296875 0.3125 0.71875q0 0.375 -0.21875 0.671875q-0.21875 0.28125 -0.59375 0.4375q-0.359375 0.140625 -0.8125 0.140625zm3.9002075 -0.0625q-0.25 0 -0.46875 -0.078125q-0.203125 -0.078125 -0.359375 -0.21875q-0.3125 -0.296875 -0.3125 -0.84375l0 -2.390625l-0.71875 0l0 -0.609375l0.71875 0l0 -1.15625l0.671875 0l0 1.15625l1.0 0l0 0.609375l-1.0 0l0 2.234375q0 0.328125 0.140625 0.484375q0.140625 0.1875 0.4375 0.1875q0.25 0 0.4375 -0.140625l0 0.65625q-0.109375 0.0625 -0.234375 0.078125q-0.125 0.03125 -0.3125 0.03125zm2.9863434 0.0625q-0.578125 0 -1.046875 -0.28125q-0.453125 -0.28125 -0.71875 -0.765625q-0.265625 -0.5 -0.265625 -1.109375q0 -0.578125 0.25 -1.078125q0.25 -0.5 0.703125 -0.796875q0.453125 -0.296875 1.03125 -0.296875q0.59375 0 1.03125 0.265625q0.453125 0.265625 0.6875 0.734375q0.234375 0.46875 0.234375 1.078125q0 0.09375 -0.015625 0.21875l-3.234375 0q0.015625 0.453125 0.21875 0.78125q0.203125 0.3125 0.515625 0.484375q0.3125 0.15625 0.640625 0.15625q0.796875 0 1.203125 -0.734375l0.578125 0.28125q-0.25 0.484375 -0.71875 0.78125q-0.453125 0.28125 -1.09375 0.28125zm1.1875 -2.59375q-0.015625 -0.265625 -0.15625 -0.515625q-0.125 -0.25 -0.390625 -0.421875q-0.265625 -0.1875 -0.6875 -0.1875q-0.484375 0 -0.828125 0.3125q-0.328125 0.3125 -0.421875 0.8125l2.484375 0zm1.5039368 -1.609375l0.65625 0l0 0.65625l0.03125 0q0.109375 -0.34375 0.453125 -0.5625q0.34375 -0.21875 0.734375 -0.21875q0.265625 0 0.46875 0.078125l0 0.734375q-0.25 -0.125 -0.578125 -0.125q-0.296875 0 -0.546875 0.171875q-0.234375 0.171875 -0.390625 0.453125q-0.140625 0.28125 -0.140625 0.609375l0 2.28125l-0.6875 0l0 -4.078125z"/><path fill="#e6e6e6" fill-rule="evenodd" d="m236.8409 145.76509l-0.34683228 0.035980225l-0.6216583 0.2748413l-0.48425293 0.44825745l-0.2748413 0.62493896l0 0.34355164l0 45.15898l0 0.34681702l0.2748413 0.6216736l0.48425293 0.48423767l0.6216583 0.24212646l0.34683228 0.032714844l45.123 0l0.3795166 -0.032714844l0.6216736 -0.24212646l0.4515381 -0.48423767l0.2748413 -0.6216736l0 -0.34681702l0 -45.15898l0 -0.34355164l-0.2748413 -0.62493896l-0.4515381 -0.44825745l-0.6216736 -0.2748413l-0.3795166 -0.035980225z"/><path fill="#fff" fill-rule="evenodd" d="m240.88498 178.1636l-0.34355164 0.035980225l-0.6216583 0.2748413l-0.48425293 0.45152283l-0.2421112 0.6216736l-0.035995483 0.34355164l0 8.716385l0.035995483 0.34355164l0.2421112 0.6216583l0.48425293 0.48423767l0.6216583 0.24212646l0.34355164 0.035995483l37.03482 0l0.34353638 -0.035995483l0.6216736 -0.24212646l0.48425293 -0.48423767l0.2781067 -0.6216583l0 -0.34355164l0 -8.716385l0 -0.34355164l-0.2781067 -0.6216736l-0.48425293 -0.45152283l-0.6216736 -0.2748413l-0.34353638 -0.035980225z"/><path fill="#fff" fill-rule="evenodd" d="m248.63287 149.84517l-0.62493896 0.2748413l-0.48423767 0.45152283l-0.23884583 0.6216583l-0.035995483 0.37954712l0 20.815933l0.035995483 0.34681702l0.23884583 0.6216583l0.48423767 0.48425293l0.62493896 0.2781067l21.539032 0l0.62493896 -0.2781067l0.4842224 -0.48425293l0.24212646 -0.6216583l0.032714844 -0.34681702l0 -20.815933l-0.032714844 -0.37954712l-0.24212646 -0.6216583l-0.4842224 -0.45152283l-0.62493896 -0.2748413z"/><path fill="#000" fill-opacity="0" fill-rule="evenodd" d="m265.36545 165.40312l0 -6.880829l-5.9450684 -3.4224243l-5.981064 3.4224243l0 6.880829l5.981064 3.4584198l5.9450684 -3.4584198z"/><path fill-rule="evenodd" stroke="#b14d9d" stroke-linecap="butt" stroke-linejoin="round" stroke-width="1.386" d="m265.36545 165.40312l0 -6.880829l-5.9450684 -3.4224243l-5.981064 3.4224243l0 6.880829l5.981064 3.4584198l5.9450684 -3.4584198z"/><path fill="#000" fill-opacity="0" fill-rule="evenodd" d="m234.23491 170.09317l52.661423 0l0 14.803162l-52.661423 0z"/><path fill="#000" fill-rule="nonzero" d="m246.56303 183.70132q-0.8125 0 -1.5 -0.390625q-0.671875 -0.390625 -1.078125 -1.078125q-0.390625 -0.6875 -0.390625 -1.515625q0 -0.84375 0.390625 -1.53125q0.40625 -0.6875 1.078125 -1.078125q0.6875 -0.390625 1.5 -0.390625q0.625 0 1.1875 0.234375q0.5625 0.21875 0.921875 0.625l-0.484375 0.484375q-0.28125 -0.328125 -0.703125 -0.5q-0.421875 -0.1875 -0.90625 -0.1875q-0.609375 0 -1.140625 0.296875q-0.515625 0.28125 -0.84375 0.8125q-0.3125 0.53125 -0.3125 1.234375q0 0.6875 0.3125 1.21875q0.328125 0.53125 0.84375 0.828125q0.53125 0.296875 1.140625 0.296875q0.5625 0 0.953125 -0.171875q0.390625 -0.1875 0.671875 -0.484375q0.203125 -0.234375 0.328125 -0.546875q0.140625 -0.3125 0.171875 -0.703125l-2.125 0l0 -0.625l2.75 0q0.046875 0.21875 0.046875 0.421875q0 0.515625 -0.171875 1.015625q-0.171875 0.5 -0.53125 0.875q-0.796875 0.859375 -2.109375 0.859375zm4.8683014 0q-0.453125 0 -0.8125 -0.171875q-0.34375 -0.171875 -0.546875 -0.484375q-0.1875 -0.3125 -0.1875 -0.703125q0 -0.640625 0.484375 -1.0q0.5 -0.375 1.234375 -0.375q0.375 0 0.6875 0.078125q0.3125 0.078125 0.484375 0.1875l0 -0.25q0 -0.453125 -0.328125 -0.71875q-0.3125 -0.28125 -0.796875 -0.28125q-0.328125 0 -0.625 0.15625q-0.296875 0.140625 -0.46875 0.390625l-0.5 -0.375q0.234375 -0.375 0.65625 -0.578125q0.421875 -0.203125 0.9375 -0.203125q0.828125 0 1.296875 0.4375q0.484375 0.421875 0.484375 1.1875l0 2.578125l-0.65625 0l0 -0.578125l-0.03125 0q-0.171875 0.296875 -0.53125 0.5q-0.34375 0.203125 -0.78125 0.203125zm0.0625 -0.59375q0.34375 0 0.640625 -0.171875q0.296875 -0.1875 0.46875 -0.484375q0.171875 -0.296875 0.171875 -0.640625q-0.1875 -0.125 -0.46875 -0.203125q-0.28125 -0.09375 -0.59375 -0.09375q-0.5625 0 -0.84375 0.234375q-0.28125 0.234375 -0.28125 0.609375q0 0.328125 0.25 0.546875q0.265625 0.203125 0.65625 0.203125zm4.371063 0.53125q-0.25 0 -0.46875 -0.078125q-0.203125 -0.078125 -0.359375 -0.21875q-0.3125 -0.296875 -0.3125 -0.84375l0 -2.390625l-0.71875 0l0 -0.609375l0.71875 0l0 -1.15625l0.671875 0l0 1.15625l1.0 0l0 0.609375l-1.0 0l0 2.234375q0 0.328125 0.140625 0.484375q0.140625 0.1875 0.4375 0.1875q0.25 0 0.4375 -0.140625l0 0.65625q-0.109375 0.0625 -0.234375 0.078125q-0.125 0.03125 -0.3125 0.03125zm2.9863281 0.0625q-0.578125 0 -1.046875 -0.28125q-0.453125 -0.28125 -0.71875 -0.765625q-0.265625 -0.5 -0.265625 -1.109375q0 -0.578125 0.25 -1.078125q0.25 -0.5 0.703125 -0.796875q0.453125 -0.296875 1.03125 -0.296875q0.59375 0 1.03125 0.265625q0.453125 0.265625 0.6875 0.734375q0.234375 0.46875 0.234375 1.078125q0 0.09375 -0.015625 0.21875l-3.234375 0q0.015625 0.453125 0.21875 0.78125q0.203125 0.3125 0.515625 0.484375q0.3125 0.15625 0.640625 0.15625q0.796875 0 1.203125 -0.734375l0.578125 0.28125q-0.25 0.484375 -0.71875 0.78125q-0.453125 0.28125 -1.09375 0.28125zm1.1875 -2.59375q-0.015625 -0.265625 -0.15625 -0.515625q-0.125 -0.25 -0.390625 -0.421875q-0.265625 -0.1875 -0.6875 -0.1875q-0.484375 0 -0.828125 0.3125q-0.328125 0.3125 -0.421875 0.8125l2.484375 0zm0.9864502 -1.609375l0.703125 0l0.96875 3.21875l0 0l1.03125 -3.21875l0.703125 0l1.03125 3.21875l0 0l0.96875 -3.21875l0.6875 0l-1.3125 4.078125l-0.6875 0l-1.0625 -3.25l-1.046875 3.25l-0.671875 0l-1.3125 -4.078125zm7.8859253 4.203125q-0.453125 0 -0.8125 -0.171875q-0.34375 -0.171875 -0.546875 -0.484375q-0.1875 -0.3125 -0.1875 -0.703125q0 -0.640625 0.484375 -1.0q0.5 -0.375 1.234375 -0.375q0.375 0 0.6875 0.078125q0.3125 0.078125 0.484375 0.1875l0 -0.25q0 -0.453125 -0.328125 -0.71875q-0.3125 -0.28125 -0.796875 -0.28125q-0.328125 0 -0.625 0.15625q-0.296875 0.140625 -0.46875 0.390625l-0.5 -0.375q0.234375 -0.375 0.65625 -0.578125q0.421875 -0.203125 0.9375 -0.203125q0.828125 0 1.296875 0.4375q0.484375 0.421875 0.484375 1.1875l0 2.578125l-0.65625 0l0 -0.578125l-0.03125 0q-0.171875 0.296875 -0.53125 0.5q-0.34375 0.203125 -0.78125 0.203125zm0.0625 -0.59375q0.34375 0 0.640625 -0.171875q0.296875 -0.1875 0.46875 -0.484375q0.171875 -0.296875 0.171875 -0.640625q-0.1875 -0.125 -0.46875 -0.203125q-0.28125 -0.09375 -0.59375 -0.09375q-0.5625 0 -0.84375 0.234375q-0.28125 0.234375 -0.28125 0.609375q0 0.328125 0.25 0.546875q0.265625 0.203125 0.65625 0.203125zm4.042938 0.21875l-1.6875 -3.828125l0.734375 0l1.28125 3.03125l0.015625 0l1.234375 -3.03125l0.734375 0l-2.515625 5.8125l-0.703125 0l0.90625 -1.984375z"/><path fill="#e6e6e6" fill-rule="evenodd" d="m111.874016 226.02756l-0.275589 0.028869629l-0.50131226 0.19422913l-0.359581 0.38845825l-0.22309875 0.49868774l-0.026245117 0.2782135l0 30.509186l0.026245117 0.27819824l0.22309875 0.49868774l0.359581 0.38845825l0.50131226 0.19424438l0.275589 0.028869629l59.608925 0l0.275589 -0.028869629l0.49868774 -0.19424438l0.36219788 -0.38845825l0.22047424 -0.49868774l0.028869629 -0.27819824l0 -30.509186l-0.028869629 -0.2782135l-0.22047424 -0.49868774l-0.36219788 -0.38845825l-0.49868774 -0.19422913l-0.275589 -0.028869629z"/><path fill="#fff" fill-rule="evenodd" d="m116.03412 230.18767l-0.30445862 0.028869629l-0.49868774 0.19422913l-0.359581 0.388443l-0.22309875 0.49868774l0 0.2782135l0 22.18898l0 0.2782135l0.22309875 0.49868774l0.359581 0.38845825l0.49868774 0.19421387l0.30445862 0.026260376l51.314957 0l0.27822876 -0.026260376l0.49868774 -0.19421387l0.35957336 -0.38845825l0.22309875 -0.49868774l0.026245117 -0.2782135l0 -22.18898l-0.026245117 -0.2782135l-0.22309875 -0.49868774l-0.35957336 -0.388443l-0.49868774 -0.19422913l-0.27822876 -0.028869629z"/><path fill="#466bb0" fill-rule="evenodd" d="m121.0 249.82545l4.771652 2.3858337l7.9317627 -2.3858337z"/><path fill="#466bb0" fill-rule="evenodd" d="m125.77165 239.48163l-4.771652 9.54068l4.771652 -0.8057709l0 -8.734909z"/><path fill="#476baf" fill-rule="evenodd" d="m126.54855 233.12993l0 15.086609l7.1548615 0.8057709l-7.1548615 -15.89238z"/><path fill="#000" fill-opacity="0" fill-rule="evenodd" d="m129.807 235.75722l40.503937 0l0 13.826767l-40.503937 0z"/><path fill="#000" fill-rule="nonzero" d="m140.68771 239.61623l0.671875 0l0 5.734375l-0.671875 0l0 -5.734375zm3.2412262 5.859375q-0.65625 0 -1.09375 -0.296875q-0.4375 -0.3125 -0.625 -0.796875l0.609375 -0.265625q0.15625 0.359375 0.453125 0.5625q0.296875 0.203125 0.65625 0.203125q0.390625 0 0.65625 -0.15625q0.28125 -0.15625 0.28125 -0.453125q0 -0.25 -0.21875 -0.40625q-0.21875 -0.15625 -0.6875 -0.265625l-0.484375 -0.125q-0.5 -0.125 -0.8125 -0.40625q-0.296875 -0.296875 -0.296875 -0.75q0 -0.359375 0.203125 -0.625q0.21875 -0.265625 0.5625 -0.40625q0.359375 -0.140625 0.765625 -0.140625q0.53125 0 0.953125 0.234375q0.421875 0.21875 0.59375 0.640625l-0.59375 0.265625q-0.265625 -0.53125 -0.96875 -0.53125q-0.328125 0 -0.578125 0.15625q-0.25 0.15625 -0.25 0.390625q0 0.21875 0.171875 0.359375q0.171875 0.140625 0.53125 0.234375l0.59375 0.15625q0.59375 0.140625 0.890625 0.453125q0.3125 0.296875 0.3125 0.71875q0 0.375 -0.21875 0.671875q-0.21875 0.28125 -0.59375 0.4375q-0.359375 0.140625 -0.8125 0.140625zm3.9002075 -0.0625q-0.25 0 -0.46875 -0.078125q-0.203125 -0.078125 -0.359375 -0.21875q-0.3125 -0.296875 -0.3125 -0.84375l0 -2.390625l-0.71875 0l0 -0.609375l0.71875 0l0 -1.15625l0.671875 0l0 1.15625l1.0 0l0 0.609375l-1.0 0l0 2.234375q0 0.328125 0.140625 0.484375q0.140625 0.1875 0.4375 0.1875q0.25 0 0.4375 -0.140625l0 0.65625q-0.109375 0.0625 -0.234375 0.078125q-0.125 0.03125 -0.3125 0.03125zm1.7960815 -4.890625q-0.203125 0 -0.34375 -0.140625q-0.140625 -0.15625 -0.140625 -0.34375q0 -0.21875 0.140625 -0.359375q0.140625 -0.140625 0.34375 -0.140625q0.203125 0 0.34375 0.140625q0.140625 0.140625 0.140625 0.359375q0 0.1875 -0.140625 0.34375q-0.140625 0.140625 -0.34375 0.140625zm-0.34375 0.75l0.6875 0l0 4.078125l-0.6875 0l0 -4.078125zm3.596115 4.203125q-0.609375 0 -1.09375 -0.28125q-0.46875 -0.296875 -0.75 -0.78125q-0.265625 -0.5 -0.265625 -1.109375q0 -0.59375 0.265625 -1.078125q0.28125 -0.5 0.75 -0.78125q0.484375 -0.296875 1.09375 -0.296875q0.59375 0 1.0625 0.296875q0.484375 0.28125 0.75 0.78125q0.28125 0.484375 0.28125 1.078125q0 0.609375 -0.28125 1.109375q-0.265625 0.484375 -0.75 0.78125q-0.46875 0.28125 -1.0625 0.28125zm0 -0.609375q0.375 0 0.6875 -0.1875q0.328125 -0.1875 0.515625 -0.53125q0.203125 -0.359375 0.203125 -0.84375q0 -0.46875 -0.203125 -0.8125q-0.1875 -0.359375 -0.515625 -0.546875q-0.3125 -0.1875 -0.6875 -0.1875q-0.375 0 -0.703125 0.1875q-0.328125 0.1875 -0.53125 0.546875q-0.203125 0.34375 -0.203125 0.8125q0 0.484375 0.203125 0.84375q0.203125 0.34375 0.53125 0.53125q0.328125 0.1875 0.703125 0.1875zm4.6116943 0.609375q-0.546875 0 -1.0 -0.28125q-0.4375 -0.28125 -0.703125 -0.765625q-0.25 -0.5 -0.25 -1.125q0 -0.609375 0.25 -1.09375q0.265625 -0.5 0.703125 -0.78125q0.453125 -0.28125 1.0 -0.28125q0.46875 0 0.828125 0.21875q0.375 0.203125 0.5625 0.515625l0.03125 0l-0.03125 -0.578125l0 -1.6875l0.6875 0l0 5.734375l-0.65625 0l0 -0.59375l-0.03125 0q-0.1875 0.296875 -0.5625 0.515625q-0.359375 0.203125 -0.828125 0.203125zm0.078125 -0.609375q0.359375 0 0.65625 -0.1875q0.3125 -0.203125 0.5 -0.546875q0.1875 -0.359375 0.1875 -0.828125q0 -0.453125 -0.1875 -0.796875q-0.1875 -0.359375 -0.5 -0.546875q-0.296875 -0.203125 -0.65625 -0.203125q-0.359375 0 -0.671875 0.203125q-0.296875 0.1875 -0.5 0.546875q-0.1875 0.34375 -0.1875 0.796875q0 0.46875 0.1875 0.828125q0.203125 0.34375 0.5 0.546875q0.3125 0.1875 0.671875 0.1875z"/><path fill="#e6e6e6" fill-rule="evenodd" d="m335.43307 106.414696l-0.27560425 0.028877258l-0.50131226 0.1942215l-0.38580322 0.38845062l-0.22311401 0.49868774l0 0.2782135l0 30.509186l0 0.2782135l0.22311401 0.49868774l0.38580322 0.38845825l0.50131226 0.19422913l0.27560425 0.028869629l93.77951 0l0.27822876 -0.028869629l0.49868774 -0.19422913l0.35958862 -0.38845825l0.2230835 -0.49868774l0.028869629 -0.2782135l0 -30.509186l-0.028869629 -0.2782135l-0.2230835 -0.49868774l-0.35958862 -0.38845062l-0.49868774 -0.1942215l-0.27822876 -0.028877258z"/><path fill="#fff" fill-rule="evenodd" d="m341.34122 110.57481l-0.27560425 0.028869629l-0.50131226 0.1942215l-0.38845825 0.38845062l-0.22045898 0.49868774l0 0.27822113l0 22.18898l0 0.2782135l0.22045898 0.49868774l0.38845825 0.388443l0.50131226 0.19422913l0.27560425 0.026245117l22.19159 0l0.27560425 -0.026245117l0.49868774 -0.19422913l0.36218262 -0.388443l0.2204895 -0.49868774l0.028869629 -0.2782135l0 -22.18898l-0.028869629 -0.27822113l-0.2204895 -0.49868774l-0.36218262 -0.38845062l-0.49868774 -0.1942215l-0.27560425 -0.028869629z"/><path fill="#000" fill-opacity="0" fill-rule="evenodd" d="m358.56693 126.580055l0 -7.073494l-6.1312256 -3.5223083l-6.128601 3.5223083l0 7.073494l6.128601 3.5511856l6.1312256 -3.5511856z"/><path fill-rule="evenodd" stroke="#b14d9d" stroke-linecap="butt" stroke-linejoin="round" stroke-width="1.386" d="m358.56693 126.580055l0 -7.073494l-6.1312256 -3.5223083l-6.128601 3.5223083l0 7.073494l6.128601 3.5511856l6.1312256 -3.5511856z"/><path fill="#fff" fill-rule="evenodd" d="m371.54855 110.57481l-0.27819824 0.028869629l-0.49868774 0.1942215l-0.38845825 0.38845062l-0.22311401 0.49868774l0 0.27822113l0 22.18898l0 0.2782135l0.22311401 0.49868774l0.38845825 0.388443l0.49868774 0.19422913l0.27819824 0.026245117l51.312347 0l0.27819824 -0.026245117l0.49868774 -0.19422913l0.35958862 -0.388443l0.2230835 -0.49868774l0.026245117 -0.2782135l0 -22.18898l-0.026245117 -0.27822113l-0.2230835 -0.49868774l-0.35958862 -0.38845062l-0.49868774 -0.1942215l-0.27819824 -0.028869629z"/><path fill="#767576" fill-rule="evenodd" d="m380.2861 114.73753l-0.8609009 0.026245117l-1.6377869 0.33333588l-1.4698181 0.6377945l-1.330719 0.88713837l-1.1364746 1.1364822l-0.887146 1.3333359l-0.63778687 1.4698105l-0.3333435 1.6351776l-0.028869629 0.8608856l0.028869629 0.86089325l0.3333435 1.6063004l0.63778687 1.4986877l0.887146 1.3307037l1.1364746 1.1391144l1.330719 0.887146l1.4698181 0.63778687l1.6377869 0.33332825l0.8609009 0.026260376l0.85824585 -0.026260376l1.6089478 -0.33332825l1.4986877 -0.63778687l1.3306885 -0.887146l1.1364746 -1.1391144l0.887146 -1.3307037l0.63778687 -1.4986877l0.3333435 -1.6063004l0.028869629 -0.86089325l-0.028869629 -0.8608856l-0.3333435 -1.6351776l-0.63778687 -1.4698105l-0.887146 -1.3333359l-1.1364746 -1.1364822l-1.3306885 -0.88713837l-1.4986877 -0.6377945l-1.6089478 -0.33333588l-0.85824585 -0.026245117z"/><path fill="#000" fill-opacity="0" fill-rule="evenodd" d="m383.2257 125.94226l-5.9081116 0l0 -5.908142l5.9081116 0l0 5.908142z"/><path fill-rule="evenodd" stroke="#fff" stroke-linecap="butt" stroke-linejoin="round" stroke-width=".916" d="m383.2257 125.94226l-5.9081116 0l0 -5.908142l5.9081116 0l0 5.908142z"/><path fill="#000" fill-opacity="0" fill-rule="evenodd" d="m378.4252 120.03412l0 -1.4146957"/><path fill-rule="evenodd" stroke="#fff" stroke-linecap="round" stroke-miterlimit="105.678" stroke-width=".916" d="m378.4252 120.03412l0 -1.4146957"/><path fill="#000" fill-opacity="0" fill-rule="evenodd" d="m380.2861 120.03412l0 -1.4146957"/><path fill-rule="evenodd" stroke="#fff" stroke-linecap="round" stroke-miterlimit="105.678" stroke-width=".916" d="m380.2861 120.03412l0 -1.4146957"/><path fill="#000" fill-opacity="0" fill-rule="evenodd" d="m382.14435 120.03412l0 -1.4146957"/><path fill-rule="evenodd" stroke="#fff" stroke-linecap="round" stroke-miterlimit="105.678" stroke-width=".916" d="m382.14435 120.03412l0 -1.4146957"/><path fill="#000" fill-opacity="0" fill-rule="evenodd" d="m378.4252 127.49606l0 -1.443573"/><path fill-rule="evenodd" stroke="#fff" stroke-linecap="round" stroke-miterlimit="105.678" stroke-width=".916" d="m378.4252 127.49606l0 -1.443573"/><path fill="#000" fill-opacity="0" fill-rule="evenodd" d="m380.2861 127.49606l0 -1.443573"/><path fill-rule="evenodd" stroke="#fff" stroke-linecap="round" stroke-miterlimit="105.678" stroke-width=".916" d="m380.2861 127.49606l0 -1.443573"/><path fill="#000" fill-opacity="0" fill-rule="evenodd" d="m382.14435 127.49606l0 -1.443573"/><path fill-rule="evenodd" stroke="#fff" stroke-linecap="round" stroke-miterlimit="105.678" stroke-width=".916" d="m382.14435 127.49606l0 -1.443573"/><path fill="#000" fill-opacity="0" fill-rule="evenodd" d="m377.26248 124.91601l-1.4147034 0"/><path fill-rule="evenodd" stroke="#fff" stroke-linecap="round" stroke-miterlimit="105.678" stroke-width=".916" d="m377.26248 124.91601l-1.4147034 0"/><path fill="#000" fill-opacity="0" fill-rule="evenodd" d="m377.26248 123.05774l-1.4147034 0"/><path fill-rule="evenodd" stroke="#fff" stroke-linecap="round" stroke-miterlimit="105.678" stroke-width=".916" d="m377.26248 123.05774l-1.4147034 0"/><path fill="#000" fill-opacity="0" fill-rule="evenodd" d="m377.26248 121.19948l-1.4147034 0"/><path fill-rule="evenodd" stroke="#fff" stroke-linecap="round" stroke-miterlimit="105.678" stroke-width=".916" d="m377.26248 121.19948l-1.4147034 0"/><path fill="#000" fill-opacity="0" fill-rule="evenodd" d="m384.72177 124.91601l-1.440918 0"/><path fill-rule="evenodd" stroke="#fff" stroke-linecap="round" stroke-miterlimit="105.678" stroke-width=".916" d="m384.72177 124.91601l-1.440918 0"/><path fill="#000" fill-opacity="0" fill-rule="evenodd" d="m384.72177 123.05774l-1.440918 0"/><path fill-rule="evenodd" stroke="#fff" stroke-linecap="round" stroke-miterlimit="105.678" stroke-width=".916" d="m384.72177 123.05774l-1.440918 0"/><path fill="#000" fill-opacity="0" fill-rule="evenodd" d="m384.72177 121.19948l-1.440918 0"/><path fill-rule="evenodd" stroke="#fff" stroke-linecap="round" stroke-miterlimit="105.678" stroke-width=".916" d="m384.72177 121.19948l-1.440918 0"/><path fill="#fff" fill-rule="evenodd" d="m379.89764 121.67191l-0.19424438 0.026252747l-0.333313 0.13910675l-0.24935913 0.24934387l-0.13909912 0.33332825l0 0.19422913l0 0.77690125l0 0.19422913l0.13909912 0.33332825l0.24935913 0.24934387l0.333313 0.13648224l1.1627502 0l0.333313 -0.13648224l0.24935913 -0.24934387l0.13909912 -0.33332825l0 -0.19422913l0 -0.77690125l0 -0.19422913l-0.13909912 -0.33332825l-0.24935913 -0.24934387l-0.333313 -0.13910675l-0.19424438 -0.026252747z"/><path fill="#000" fill-opacity="0" fill-rule="evenodd" d="m381.00525 110.56956l49.5748 0l0 24.976372l-49.5748 0z"/><path fill="#000" fill-rule="nonzero" d="m391.86462 125.567116q-0.359375 0 -0.703125 -0.140625q-0.328125 -0.15625 -0.59375 -0.4375q-0.25 -0.296875 -0.359375 -0.71875l0.53125 -0.21875q0.125 0.421875 0.421875 0.703125q0.3125 0.265625 0.71875 0.265625q0.421875 0 0.703125 -0.21875q0.28125 -0.21875 0.28125 -0.609375q0 -0.328125 -0.25 -0.546875q-0.234375 -0.21875 -0.78125 -0.40625l-0.296875 -0.109375q-0.515625 -0.171875 -0.84375 -0.46875q-0.3125 -0.296875 -0.3125 -0.8125q0 -0.34375 0.1875 -0.625q0.1875 -0.296875 0.515625 -0.46875q0.34375 -0.171875 0.75 -0.171875q0.421875 0 0.71875 0.15625q0.3125 0.15625 0.484375 0.375q0.1875 0.21875 0.265625 0.4375l-0.53125 0.21875q-0.0625 -0.25 -0.3125 -0.4375q-0.234375 -0.203125 -0.609375 -0.203125q-0.375 0 -0.640625 0.203125q-0.25 0.203125 -0.25 0.515625q0 0.28125 0.21875 0.46875q0.21875 0.171875 0.671875 0.3125l0.3125 0.109375q0.59375 0.21875 0.9375 0.546875q0.34375 0.328125 0.34375 0.90625q0 0.453125 -0.234375 0.765625q-0.234375 0.3125 -0.59375 0.46875q-0.359375 0.140625 -0.75 0.140625zm3.8189087 0q-0.5 0 -0.890625 -0.234375q-0.375 -0.234375 -0.59375 -0.640625q-0.21875 -0.40625 -0.21875 -0.921875q0 -0.484375 0.203125 -0.90625q0.203125 -0.421875 0.578125 -0.65625q0.375 -0.25 0.875 -0.25q0.5 0 0.859375 0.21875q0.359375 0.21875 0.546875 0.625q0.203125 0.390625 0.203125 0.890625q0 0.078125 0 0.171875l-2.6875 0q0.015625 0.390625 0.171875 0.65625q0.171875 0.265625 0.421875 0.40625q0.265625 0.125 0.546875 0.125q0.65625 0 1.0 -0.609375l0.484375 0.234375q-0.21875 0.40625 -0.59375 0.65625q-0.375 0.234375 -0.90625 0.234375zm0.96875 -2.171875q-0.015625 -0.203125 -0.125 -0.421875q-0.09375 -0.21875 -0.328125 -0.359375q-0.21875 -0.140625 -0.5625 -0.140625q-0.40625 0 -0.6875 0.265625q-0.28125 0.25 -0.359375 0.65625l2.0625 0zm1.263031 -1.328125l0.53125 0l0 0.546875l0.03125 0q0.09375 -0.28125 0.375 -0.46875q0.296875 -0.1875 0.609375 -0.1875q0.234375 0 0.40625 0.078125l0 0.609375q-0.21875 -0.109375 -0.484375 -0.109375q-0.25 0 -0.453125 0.140625q-0.203125 0.140625 -0.328125 0.375q-0.125 0.234375 -0.125 0.515625l0 1.890625l-0.5625 0l0 -3.390625zm2.2344055 0l0.609375 0l1.046875 2.71875l0.015625 0l1.0625 -2.71875l0.59375 0l-1.390625 3.390625l-0.5625 0l-1.375 -3.390625zm4.1243896 -0.625q-0.171875 0 -0.296875 -0.125q-0.109375 -0.125 -0.109375 -0.28125q0 -0.171875 0.109375 -0.28125q0.125 -0.125 0.296875 -0.125q0.171875 0 0.28125 0.125q0.125 0.109375 0.125 0.28125q0 0.15625 -0.125 0.28125q-0.109375 0.125 -0.28125 0.125zm-0.28125 0.625l0.5625 0l0 3.390625l-0.5625 0l0 -3.390625zm2.9553223 3.5q-0.484375 0 -0.890625 -0.234375q-0.390625 -0.234375 -0.609375 -0.640625q-0.21875 -0.421875 -0.21875 -0.9375q0 -0.5 0.21875 -0.90625q0.21875 -0.421875 0.609375 -0.65625q0.40625 -0.234375 0.890625 -0.234375q0.5625 0 0.9375 0.265625q0.375 0.25 0.53125 0.671875l-0.515625 0.21875q-0.125 -0.3125 -0.375 -0.46875q-0.25 -0.171875 -0.59375 -0.171875q-0.3125 0 -0.578125 0.171875q-0.25 0.15625 -0.40625 0.453125q-0.15625 0.28125 -0.15625 0.65625q0 0.390625 0.15625 0.6875q0.15625 0.28125 0.40625 0.453125q0.265625 0.15625 0.578125 0.15625q0.359375 0 0.609375 -0.15625q0.265625 -0.171875 0.390625 -0.484375l0.5 0.21875q-0.171875 0.421875 -0.5625 0.6875q-0.375 0.25 -0.921875 0.25zm3.5852966 0q-0.5 0 -0.890625 -0.234375q-0.375 -0.234375 -0.59375 -0.640625q-0.21875 -0.40625 -0.21875 -0.921875q0 -0.484375 0.203125 -0.90625q0.203125 -0.421875 0.578125 -0.65625q0.375 -0.25 0.875 -0.25q0.5 0 0.859375 0.21875q0.359375 0.21875 0.546875 0.625q0.203125 0.390625 0.203125 0.890625q0 0.078125 0 0.171875l-2.6875 0q0.015625 0.390625 0.171875 0.65625q0.171875 0.265625 0.421875 0.40625q0.265625 0.125 0.546875 0.125q0.65625 0 1.0 -0.609375l0.484375 0.234375q-0.21875 0.40625 -0.59375 0.65625q-0.375 0.234375 -0.90625 0.234375zm0.96875 -2.171875q-0.015625 -0.203125 -0.125 -0.421875q-0.09375 -0.21875 -0.328125 -0.359375q-0.21875 -0.140625 -0.5625 -0.140625q-0.40625 0 -0.6875 0.265625q-0.28125 0.25 -0.359375 0.65625l2.0625 0zm0.841156 2.0625l0 0zm2.0755005 -4.765625l1.71875 0q0.359375 0 0.671875 0.171875q0.3125 0.15625 0.5 0.453125q0.1875 0.296875 0.1875 0.65625q0 0.34375 -0.1875 0.609375q-0.171875 0.265625 -0.46875 0.40625l0 0.015625q0.359375 0.125 0.578125 0.421875q0.234375 0.28125 0.234375 0.6875q0 0.375 -0.203125 0.6875q-0.1875 0.3125 -0.515625 0.484375q-0.328125 0.171875 -0.703125 0.171875l-1.8125 0l0 -4.765625zm1.71875 2.0625q0.234375 0 0.40625 -0.109375q0.1875 -0.109375 0.28125 -0.28125q0.109375 -0.1875 0.109375 -0.375q0 -0.171875 -0.09375 -0.34375q-0.09375 -0.1875 -0.28125 -0.296875q-0.171875 -0.125 -0.40625 -0.125l-1.171875 0l0 1.53125l1.15625 0zm0.125 2.15625q0.234375 0 0.421875 -0.109375q0.1875 -0.125 0.28125 -0.3125q0.109375 -0.1875 0.109375 -0.390625q0 -0.203125 -0.109375 -0.390625q-0.09375 -0.1875 -0.296875 -0.296875q-0.1875 -0.125 -0.4375 -0.125l-1.25 0l0 1.625l1.28125 0z"/><path fill="#e6e6e6" fill-rule="evenodd" d="m332.5315 204.4147l-0.27557373 0.028869629l-0.50131226 0.19422913l-0.38583374 0.388443l-0.22311401 0.49868774l0 0.2782135l0 30.509186l0 0.2782135l0.22311401 0.49868774l0.38583374 0.38845825l0.50131226 0.19422913l0.27557373 0.028869629l93.77954 0l0.27819824 -0.028869629l0.49868774 -0.19422913l0.35958862 -0.38845825l0.2230835 -0.49868774l0.028869629 -0.2782135l0 -30.509186l-0.028869629 -0.2782135l-0.2230835 -0.49868774l-0.35958862 -0.388443l-0.49868774 -0.19422913l-0.27819824 -0.028869629z"/><path fill="#fff" fill-rule="evenodd" d="m338.43964 208.5748l-0.27560425 0.028869629l-0.50131226 0.19422913l-0.38842773 0.38845825l-0.2204895 0.49868774l0 0.2782135l0 22.18898l0 0.2782135l0.2204895 0.49868774l0.38842773 0.388443l0.50131226 0.19422913l0.27560425 0.026245117l22.19159 0l0.27560425 -0.026245117l0.49868774 -0.19422913l0.36221313 -0.388443l0.22045898 -0.49868774l0.028869629 -0.2782135l0 -22.18898l-0.028869629 -0.2782135l-0.22045898 -0.49868774l-0.36221313 -0.38845825l-0.49868774 -0.19422913l-0.27560425 -0.028869629z"/><path fill="#000" fill-opacity="0" fill-rule="evenodd" d="m355.66534 224.58005l0 -7.0734863l-6.1312256 -3.5223083l-6.128601 3.5223083l0 7.0734863l6.128601 3.5511932l6.1312256 -3.5511932z"/><path fill-rule="evenodd" stroke="#b14d9d" stroke-linecap="butt" stroke-linejoin="round" stroke-width="1.386" d="m355.66534 224.58005l0 -7.0734863l-6.1312256 -3.5223083l-6.128601 3.5223083l0 7.0734863l6.128601 3.5511932l6.1312256 -3.5511932z"/><path fill="#fff" fill-rule="evenodd" d="m368.64697 208.5748l-0.27819824 0.028869629l-0.49868774 0.19422913l-0.38845825 0.38845825l-0.2230835 0.49868774l0 0.2782135l0 22.18898l0 0.2782135l0.2230835 0.49868774l0.38845825 0.388443l0.49868774 0.19422913l0.27819824 0.026245117l51.312347 0l0.27819824 -0.026245117l0.49868774 -0.19422913l0.35958862 -0.388443l0.22311401 -0.49868774l0.026245117 -0.2782135l0 -22.18898l-0.026245117 -0.2782135l-0.22311401 -0.49868774l-0.35958862 -0.38845825l-0.49868774 -0.19422913l-0.27819824 -0.028869629z"/><path fill="#767576" fill-rule="evenodd" d="m377.38452 212.73753l-0.8609009 0.026245117l-1.6377869 0.33332825l-1.4698181 0.6378021l-1.330719 0.88713074l-1.1364746 1.1364899l-0.887146 1.3333282l-0.63778687 1.4698181l-0.3333435 1.6351776l-0.028869629 0.8608856l0.028869629 0.8609009l0.3333435 1.6062927l0.63778687 1.4986877l0.887146 1.3307037l1.1364746 1.1391144l1.330719 0.887146l1.4698181 0.63778687l1.6377869 0.33332825l0.8609009 0.026260376l0.85824585 -0.026260376l1.6089478 -0.33332825l1.4986877 -0.63778687l1.3306885 -0.887146l1.1365051 -1.1391144l0.8871155 -1.3307037l0.6378174 -1.4986877l0.333313 -1.6062927l0.028869629 -0.8609009l-0.028869629 -0.8608856l-0.333313 -1.6351776l-0.6378174 -1.4698181l-0.8871155 -1.3333282l-1.1365051 -1.1364899l-1.3306885 -0.88713074l-1.4986877 -0.6378021l-1.6089478 -0.33332825l-0.85824585 -0.026245117z"/><path fill="#000" fill-opacity="0" fill-rule="evenodd" d="m380.32416 223.94226l-5.908142 0l0 -5.908142l5.908142 0l0 5.908142z"/><path fill-rule="evenodd" stroke="#fff" stroke-linecap="butt" stroke-linejoin="round" stroke-width=".916" d="m380.32416 223.94226l-5.908142 0l0 -5.908142l5.908142 0l0 5.908142z"/><path fill="#000" fill-opacity="0" fill-rule="evenodd" d="m375.52362 218.03412l0 -1.4147034"/><path fill-rule="evenodd" stroke="#fff" stroke-linecap="round" stroke-miterlimit="105.678" stroke-width=".916" d="m375.52362 218.03412l0 -1.4147034"/><path fill="#000" fill-opacity="0" fill-rule="evenodd" d="m377.38452 218.03412l0 -1.4147034"/><path fill-rule="evenodd" stroke="#fff" stroke-linecap="round" stroke-miterlimit="105.678" stroke-width=".916" d="m377.38452 218.03412l0 -1.4147034"/><path fill="#000" fill-opacity="0" fill-rule="evenodd" d="m379.24277 218.03412l0 -1.4147034"/><path fill-rule="evenodd" stroke="#fff" stroke-linecap="round" stroke-miterlimit="105.678" stroke-width=".916" d="m379.24277 218.03412l0 -1.4147034"/><path fill="#000" fill-opacity="0" fill-rule="evenodd" d="m375.52362 225.49606l0 -1.443573"/><path fill-rule="evenodd" stroke="#fff" stroke-linecap="round" stroke-miterlimit="105.678" stroke-width=".916" d="m375.52362 225.49606l0 -1.443573"/><path fill="#000" fill-opacity="0" fill-rule="evenodd" d="m377.38452 225.49606l0 -1.443573"/><path fill-rule="evenodd" stroke="#fff" stroke-linecap="round" stroke-miterlimit="105.678" stroke-width=".916" d="m377.38452 225.49606l0 -1.443573"/><path fill="#000" fill-opacity="0" fill-rule="evenodd" d="m379.24277 225.49606l0 -1.443573"/><path fill-rule="evenodd" stroke="#fff" stroke-linecap="round" stroke-miterlimit="105.678" stroke-width=".916" d="m379.24277 225.49606l0 -1.443573"/><path fill="#000" fill-opacity="0" fill-rule="evenodd" d="m374.3609 222.91602l-1.4147034 0"/><path fill-rule="evenodd" stroke="#fff" stroke-linecap="round" stroke-miterlimit="105.678" stroke-width=".916" d="m374.3609 222.91602l-1.4147034 0"/><path fill="#000" fill-opacity="0" fill-rule="evenodd" d="m374.3609 221.05774l-1.4147034 0"/><path fill-rule="evenodd" stroke="#fff" stroke-linecap="round" stroke-miterlimit="105.678" stroke-width=".916" d="m374.3609 221.05774l-1.4147034 0"/><path fill="#000" fill-opacity="0" fill-rule="evenodd" d="m374.3609 219.19948l-1.4147034 0"/><path fill-rule="evenodd" stroke="#fff" stroke-linecap="round" stroke-miterlimit="105.678" stroke-width=".916" d="m374.3609 219.19948l-1.4147034 0"/><path fill="#000" fill-opacity="0" fill-rule="evenodd" d="m381.82022 222.91602l-1.4409485 0"/><path fill-rule="evenodd" stroke="#fff" stroke-linecap="round" stroke-miterlimit="105.678" stroke-width=".916" d="m381.82022 222.91602l-1.4409485 0"/><path fill="#000" fill-opacity="0" fill-rule="evenodd" d="m381.82022 221.05774l-1.4409485 0"/><path fill-rule="evenodd" stroke="#fff" stroke-linecap="round" stroke-miterlimit="105.678" stroke-width=".916" d="m381.82022 221.05774l-1.4409485 0"/><path fill="#000" fill-opacity="0" fill-rule="evenodd" d="m381.82022 219.19948l-1.4409485 0"/><path fill-rule="evenodd" stroke="#fff" stroke-linecap="round" stroke-miterlimit="105.678" stroke-width=".916" d="m381.82022 219.19948l-1.4409485 0"/><path fill="#fff" fill-rule="evenodd" d="m376.99606 219.67192l-0.19421387 0.026245117l-0.3333435 0.13909912l-0.24935913 0.24934387l-0.13909912 0.3333435l0 0.19421387l0 0.7769165l0 0.19421387l0.13909912 0.3333435l0.24935913 0.24934387l0.3333435 0.13647461l1.1627197 0l0.3333435 -0.13647461l0.24932861 -0.24934387l0.13909912 -0.3333435l0 -0.19421387l0 -0.7769165l0 -0.19421387l-0.13909912 -0.3333435l-0.24932861 -0.24934387l-0.3333435 -0.13909912l-0.19421387 -0.026245117z"/><path fill="#000" fill-opacity="0" fill-rule="evenodd" d="m378.10367 208.56955l49.5748 0l0 24.97638l-49.5748 0z"/><path fill="#000" fill-rule="nonzero" d="m388.96304 223.56712q-0.359375 0 -0.703125 -0.140625q-0.328125 -0.15625 -0.59375 -0.4375q-0.25 -0.296875 -0.359375 -0.71875l0.53125 -0.21875q0.125 0.421875 0.421875 0.703125q0.3125 0.265625 0.71875 0.265625q0.421875 0 0.703125 -0.21875q0.28125 -0.21875 0.28125 -0.609375q0 -0.328125 -0.25 -0.546875q-0.234375 -0.21875 -0.78125 -0.40625l-0.296875 -0.109375q-0.515625 -0.171875 -0.84375 -0.46875q-0.3125 -0.296875 -0.3125 -0.8125q0 -0.34375 0.1875 -0.625q0.1875 -0.296875 0.515625 -0.46875q0.34375 -0.171875 0.75 -0.171875q0.421875 0 0.71875 0.15625q0.3125 0.15625 0.484375 0.375q0.1875 0.21875 0.265625 0.4375l-0.53125 0.21875q-0.0625 -0.25 -0.3125 -0.4375q-0.234375 -0.203125 -0.609375 -0.203125q-0.375 0 -0.640625 0.203125q-0.25 0.203125 -0.25 0.515625q0 0.28125 0.21875 0.46875q0.21875 0.171875 0.671875 0.3125l0.3125 0.109375q0.59375 0.21875 0.9375 0.546875q0.34375 0.328125 0.34375 0.90625q0 0.453125 -0.234375 0.765625q-0.234375 0.3125 -0.59375 0.46875q-0.359375 0.140625 -0.75 0.140625zm3.8189087 0q-0.5 0 -0.890625 -0.234375q-0.375 -0.234375 -0.59375 -0.640625q-0.21875 -0.40625 -0.21875 -0.921875q0 -0.484375 0.203125 -0.90625q0.203125 -0.421875 0.578125 -0.65625q0.375 -0.25 0.875 -0.25q0.5 0 0.859375 0.21875q0.359375 0.21875 0.546875 0.625q0.203125 0.390625 0.203125 0.890625q0 0.078125 0 0.171875l-2.6875 0q0.015625 0.390625 0.171875 0.65625q0.171875 0.265625 0.421875 0.40625q0.265625 0.125 0.546875 0.125q0.65625 0 1.0 -0.609375l0.484375 0.234375q-0.21875 0.40625 -0.59375 0.65625q-0.375 0.234375 -0.90625 0.234375zm0.96875 -2.171875q-0.015625 -0.203125 -0.125 -0.421875q-0.09375 -0.21875 -0.328125 -0.359375q-0.21875 -0.140625 -0.5625 -0.140625q-0.40625 0 -0.6875 0.265625q-0.28125 0.25 -0.359375 0.65625l2.0625 0zm1.263031 -1.328125l0.53125 0l0 0.546875l0.03125 0q0.09375 -0.28125 0.375 -0.46875q0.296875 -0.1875 0.609375 -0.1875q0.234375 0 0.40625 0.078125l0 0.609375q-0.21875 -0.109375 -0.484375 -0.109375q-0.25 0 -0.453125 0.140625q-0.203125 0.140625 -0.328125 0.375q-0.125 0.234375 -0.125 0.515625l0 1.890625l-0.5625 0l0 -3.390625zm2.2344055 0l0.609375 0l1.046875 2.71875l0.015625 0l1.0625 -2.71875l0.59375 0l-1.390625 3.390625l-0.5625 0l-1.375 -3.390625zm4.1243896 -0.625q-0.171875 0 -0.296875 -0.125q-0.109375 -0.125 -0.109375 -0.28125q0 -0.171875 0.109375 -0.28125q0.125 -0.125 0.296875 -0.125q0.171875 0 0.28125 0.125q0.125 0.109375 0.125 0.28125q0 0.15625 -0.125 0.28125q-0.109375 0.125 -0.28125 0.125zm-0.28125 0.625l0.5625 0l0 3.390625l-0.5625 0l0 -3.390625zm2.9553223 3.5q-0.484375 0 -0.890625 -0.234375q-0.390625 -0.234375 -0.609375 -0.640625q-0.21875 -0.421875 -0.21875 -0.9375q0 -0.5 0.21875 -0.90625q0.21875 -0.421875 0.609375 -0.65625q0.40625 -0.234375 0.890625 -0.234375q0.5625 0 0.9375 0.265625q0.375 0.25 0.53125 0.671875l-0.515625 0.21875q-0.125 -0.3125 -0.375 -0.46875q-0.25 -0.171875 -0.59375 -0.171875q-0.3125 0 -0.578125 0.171875q-0.25 0.15625 -0.40625 0.453125q-0.15625 0.28125 -0.15625 0.65625q0 0.390625 0.15625 0.6875q0.15625 0.28125 0.40625 0.453125q0.265625 0.15625 0.578125 0.15625q0.359375 0 0.609375 -0.15625q0.265625 -0.171875 0.390625 -0.484375l0.5 0.21875q-0.171875 0.421875 -0.5625 0.6875q-0.375 0.25 -0.921875 0.25zm3.5852966 0q-0.5 0 -0.890625 -0.234375q-0.375 -0.234375 -0.59375 -0.640625q-0.21875 -0.40625 -0.21875 -0.921875q0 -0.484375 0.203125 -0.90625q0.203125 -0.421875 0.578125 -0.65625q0.375 -0.25 0.875 -0.25q0.5 0 0.859375 0.21875q0.359375 0.21875 0.546875 0.625q0.203125 0.390625 0.203125 0.890625q0 0.078125 0 0.171875l-2.6875 0q0.015625 0.390625 0.171875 0.65625q0.171875 0.265625 0.421875 0.40625q0.265625 0.125 0.546875 0.125q0.65625 0 1.0 -0.609375l0.484375 0.234375q-0.21875 0.40625 -0.59375 0.65625q-0.375 0.234375 -0.90625 0.234375zm0.96875 -2.171875q-0.015625 -0.203125 -0.125 -0.421875q-0.09375 -0.21875 -0.328125 -0.359375q-0.21875 -0.140625 -0.5625 -0.140625q-0.40625 0 -0.6875 0.265625q-0.28125 0.25 -0.359375 0.65625l2.0625 0zm0.841156 2.0625l0 0zm4.176544 0.109375q-0.6875 0 -1.265625 -0.328125q-0.5625 -0.328125 -0.890625 -0.890625q-0.3125 -0.578125 -0.3125 -1.28125q0 -0.6875 0.3125 -1.25q0.328125 -0.578125 0.890625 -0.90625q0.578125 -0.328125 1.265625 -0.328125q0.53125 0 0.96875 0.203125q0.453125 0.203125 0.78125 0.578125l-0.40625 0.390625q-0.28125 -0.328125 -0.609375 -0.46875q-0.3125 -0.15625 -0.734375 -0.15625q-0.515625 0 -0.953125 0.25q-0.421875 0.234375 -0.6875 0.671875q-0.25 0.4375 -0.25 1.015625q0 0.59375 0.25 1.03125q0.265625 0.4375 0.6875 0.6875q0.4375 0.234375 0.953125 0.234375q0.875 0 1.46875 -0.703125l0.421875 0.390625q-0.328125 0.390625 -0.828125 0.625q-0.484375 0.234375 -1.0625 0.234375z"/><path fill="#000" fill-opacity="0" fill-rule="evenodd" d="m73.86483 81.59843l68.22047 0l0 14.803146l-68.22047 0z"/><path fill="#000" fill-rule="nonzero" d="m83.505455 89.3472l1.921875 0q0.484375 0 0.890625 0.21875q0.40625 0.21875 0.65625 0.609375q0.25 0.390625 0.25 0.875q0 0.484375 -0.25 0.875q-0.25 0.390625 -0.65625 0.609375q-0.40625 0.203125 -0.890625 0.203125l-1.25 0l0 2.34375l-0.671875 0l0 -5.734375zm1.9375 2.75q0.328125 0 0.5625 -0.140625q0.25 -0.15625 0.375 -0.390625q0.140625 -0.25 0.140625 -0.515625q0 -0.265625 -0.140625 -0.5q-0.125 -0.25 -0.375 -0.390625q-0.234375 -0.15625 -0.5625 -0.15625l-1.265625 0l0 2.09375l1.265625 0zm4.140442 3.109375q-0.609375 0 -1.09375 -0.28125q-0.46875 -0.296875 -0.75 -0.78125q-0.265625 -0.5 -0.265625 -1.109375q0 -0.59375 0.265625 -1.078125q0.28125 -0.5 0.75 -0.78125q0.484375 -0.296875 1.09375 -0.296875q0.59375 0 1.0625 0.296875q0.484375 0.28125 0.75 0.78125q0.28125 0.484375 0.28125 1.078125q0 0.609375 -0.28125 1.109375q-0.265625 0.484375 -0.75 0.78125q-0.46875 0.28125 -1.0625 0.28125zm0 -0.609375q0.375 0 0.6875 -0.1875q0.328125 -0.1875 0.515625 -0.53125q0.203125 -0.359375 0.203125 -0.84375q0 -0.46875 -0.203125 -0.8125q-0.1875 -0.359375 -0.515625 -0.546875q-0.3125 -0.1875 -0.6875 -0.1875q-0.375 0 -0.703125 0.1875q-0.328125 0.1875 -0.53125 0.546875q-0.203125 0.34375 -0.203125 0.8125q0 0.484375 0.203125 0.84375q0.203125 0.34375 0.53125 0.53125q0.328125 0.1875 0.703125 0.1875zm4.6116943 0.609375q-0.546875 0 -1.0 -0.28125q-0.4375 -0.28125 -0.703125 -0.765625q-0.25 -0.5 -0.25 -1.125q0 -0.609375 0.25 -1.09375q0.265625 -0.5 0.703125 -0.78125q0.453125 -0.28125 1.0 -0.28125q0.46875 0 0.828125 0.21875q0.375 0.203125 0.5625 0.515625l0.03125 0l-0.03125 -0.578125l0 -1.6875l0.6875 0l0 5.734375l-0.65625 0l0 -0.59375l-0.03125 0q-0.1875 0.296875 -0.5625 0.515625q-0.359375 0.203125 -0.828125 0.203125zm0.078125 -0.609375q0.359375 0 0.65625 -0.1875q0.3125 -0.203125 0.5 -0.546875q0.1875 -0.359375 0.1875 -0.828125q0 -0.453125 -0.1875 -0.796875q-0.1875 -0.359375 -0.5 -0.546875q-0.296875 -0.203125 -0.65625 -0.203125q-0.359375 0 -0.671875 0.203125q-0.296875 0.1875 -0.5 0.546875q-0.1875 0.34375 -0.1875 0.796875q0 0.46875 0.1875 0.828125q0.203125 0.34375 0.5 0.546875q0.3125 0.1875 0.671875 0.1875z"/><path fill="#000" fill-opacity="0" fill-rule="evenodd" d="m318.7391 86.61286l81.00787 0l0 14.803146l-81.00787 0z"/><path fill="#000" fill-rule="nonzero" d="m327.84848 94.36163l0.75 0l1.421875 4.15625l0.1875 0.5625l0.03125 0l0.203125 -0.5625l1.484375 -4.15625l0.75 0l-2.09375 5.734375l-0.703125 0l-2.03125 -5.734375zm5.684784 0.90625q-0.203125 0 -0.34375 -0.140625q-0.140625 -0.15625 -0.140625 -0.34375q0 -0.21875 0.140625 -0.359375q0.140625 -0.140625 0.34375 -0.140625q0.203125 0 0.34375 0.140625q0.140625 0.140625 0.140625 0.359375q0 0.1875 -0.140625 0.34375q-0.140625 0.140625 -0.34375 0.140625zm-0.34375 0.75l0.6875 0l0 4.078125l-0.6875 0l0 -4.078125zm6.3548584 4.140625q-0.25 0 -0.46875 -0.078125q-0.203125 -0.078125 -0.359375 -0.21875q-0.3125 -0.296875 -0.3125 -0.84375l0 -2.390625l-0.71875 0l0 -0.609375l0.71875 0l0 -1.15625l0.671875 0l0 1.15625l1.0 0l0 0.609375l-1.0 0l0 2.234375q0 0.328125 0.140625 0.484375q0.140625 0.1875 0.4375 0.1875q0.25 0 0.4375 -0.140625l0 0.65625q-0.109375 0.0625 -0.234375 0.078125q-0.125 0.03125 -0.3125 0.03125zm-4.609375 -4.140625l0.65625 0l0 0.640625l0.03125 0q0.140625 -0.359375 0.484375 -0.546875q0.34375 -0.203125 0.765625 -0.203125q0.15625 0 0.28125 0.015625l0 0.703125q-0.140625 -0.03125 -0.359375 -0.03125q-0.53125 0 -0.859375 0.34375q-0.3125 0.34375 -0.3125 0.890625l0 2.265625l-0.6875 0l0 -4.078125zm7.4443054 4.203125q-0.734375 0 -1.125 -0.421875q-0.390625 -0.4375 -0.390625 -1.21875l0 -2.5625l0.6875 0l0 2.46875q0 0.578125 0.265625 0.859375q0.265625 0.265625 0.703125 0.265625q0.34375 0 0.609375 -0.1875q0.28125 -0.1875 0.421875 -0.484375q0.140625 -0.296875 0.140625 -0.625l0 -2.296875l0.6875 0l0 4.078125l-0.640625 0l0 -0.59375l-0.046875 0q-0.15625 0.3125 -0.53125 0.515625q-0.359375 0.203125 -0.78125 0.203125zm4.2760925 0q-0.453125 0 -0.8125 -0.171875q-0.34375 -0.171875 -0.546875 -0.484375q-0.1875 -0.3125 -0.1875 -0.703125q0 -0.640625 0.484375 -1.0q0.5 -0.375 1.234375 -0.375q0.375 0 0.6875 0.078125q0.3125 0.078125 0.484375 0.1875l0 -0.25q0 -0.453125 -0.328125 -0.71875q-0.3125 -0.28125 -0.796875 -0.28125q-0.328125 0 -0.625 0.15625q-0.296875 0.140625 -0.46875 0.390625l-0.5 -0.375q0.234375 -0.375 0.65625 -0.578125q0.421875 -0.203125 0.9375 -0.203125q0.828125 0 1.296875 0.4375q0.484375 0.421875 0.484375 1.1875l0 2.578125l-0.65625 0l0 -0.578125l-0.03125 0q-0.171875 0.296875 -0.53125 0.5q-0.34375 0.203125 -0.78125 0.203125zm0.0625 -0.59375q0.34375 0 0.640625 -0.171875q0.296875 -0.1875 0.46875 -0.484375q0.171875 -0.296875 0.171875 -0.640625q-0.1875 -0.125 -0.46875 -0.203125q-0.28125 -0.09375 -0.59375 -0.09375q-0.5625 0 -0.84375 0.234375q-0.28125 0.234375 -0.28125 0.609375q0 0.328125 0.25 0.546875q0.265625 0.203125 0.65625 0.203125zm2.8729248 -5.265625l0.6875 0l0 5.734375l-0.6875 0l0 -5.734375zm1.1879883 5.734375l0 0zm2.496582 -5.734375l0.984375 0l1.828125 4.703125l0.03125 0l1.8125 -4.703125l0.984375 0l0 5.734375l-0.671875 0l0 -3.640625l0.03125 -1.09375l-0.03125 0l-1.859375 4.734375l-0.5625 0l-1.875 -4.734375l-0.03125 0l0.03125 1.09375l0 3.640625l-0.671875 0l0 -5.734375zm7.9797974 5.859375q-0.453125 0 -0.8125 -0.171875q-0.34375 -0.171875 -0.546875 -0.484375q-0.1875 -0.3125 -0.1875 -0.703125q0 -0.640625 0.484375 -1.0q0.5 -0.375 1.234375 -0.375q0.375 0 0.6875 0.078125q0.3125 0.078125 0.484375 0.1875l0 -0.25q0 -0.453125 -0.328125 -0.71875q-0.3125 -0.28125 -0.796875 -0.28125q-0.328125 0 -0.625 0.15625q-0.296875 0.140625 -0.46875 0.390625l-0.5 -0.375q0.234375 -0.375 0.65625 -0.578125q0.421875 -0.203125 0.9375 -0.203125q0.828125 0 1.296875 0.4375q0.484375 0.421875 0.484375 1.1875l0 2.578125l-0.65625 0l0 -0.578125l-0.03125 0q-0.171875 0.296875 -0.53125 0.5q-0.34375 0.203125 -0.78125 0.203125zm0.0625 -0.59375q0.34375 0 0.640625 -0.171875q0.296875 -0.1875 0.46875 -0.484375q0.171875 -0.296875 0.171875 -0.640625q-0.1875 -0.125 -0.46875 -0.203125q-0.28125 -0.09375 -0.59375 -0.09375q-0.5625 0 -0.84375 0.234375q-0.28125 0.234375 -0.28125 0.609375q0 0.328125 0.25 0.546875q0.265625 0.203125 0.65625 0.203125zm4.692322 0.59375q-0.59375 0 -1.078125 -0.28125q-0.46875 -0.28125 -0.734375 -0.765625q-0.265625 -0.5 -0.265625 -1.125q0 -0.609375 0.265625 -1.09375q0.265625 -0.5 0.734375 -0.78125q0.484375 -0.28125 1.078125 -0.28125q0.65625 0 1.109375 0.3125q0.453125 0.296875 0.640625 0.8125l-0.609375 0.25q-0.15625 -0.375 -0.453125 -0.5625q-0.296875 -0.203125 -0.734375 -0.203125q-0.359375 0 -0.671875 0.203125q-0.296875 0.1875 -0.5 0.546875q-0.1875 0.34375 -0.1875 0.796875q0 0.46875 0.1875 0.828125q0.203125 0.34375 0.5 0.546875q0.3125 0.1875 0.671875 0.1875q0.4375 0 0.75 -0.203125q0.3125 -0.203125 0.46875 -0.5625l0.609375 0.25q-0.21875 0.5 -0.671875 0.8125q-0.453125 0.3125 -1.109375 0.3125zm2.5085754 -5.859375l0.6875 0l0 1.6875l-0.03125 0.5625l0.03125 0q0.171875 -0.3125 0.53125 -0.515625q0.359375 -0.203125 0.796875 -0.203125q0.734375 0 1.125 0.4375q0.40625 0.421875 0.40625 1.15625l0 2.609375l-0.6875 0l0 -2.515625q0 -0.546875 -0.28125 -0.8125q-0.28125 -0.265625 -0.71875 -0.265625q-0.328125 0 -0.59375 0.203125q-0.265625 0.1875 -0.421875 0.5q-0.15625 0.296875 -0.15625 0.625l0 2.265625l-0.6875 0l0 -5.734375zm4.918213 0.90625q-0.203125 0 -0.34375 -0.140625q-0.140625 -0.15625 -0.140625 -0.34375q0 -0.21875 0.140625 -0.359375q0.140625 -0.140625 0.34375 -0.140625q0.203125 0 0.34375 0.140625q0.140625 0.140625 0.140625 0.359375q0 0.1875 -0.140625 0.34375q-0.140625 0.140625 -0.34375 0.140625zm-0.34375 0.75l0.6875 0l0 4.078125l-0.6875 0l0 -4.078125zm1.7454834 0l0.65625 0l0 0.59375l0.03125 0q0.171875 -0.296875 0.53125 -0.5q0.375 -0.21875 0.78125 -0.21875q0.734375 0 1.125 0.421875q0.390625 0.421875 0.390625 1.171875l0 2.609375l-0.671875 0l0 -2.515625q0 -0.5625 -0.28125 -0.8125q-0.265625 -0.265625 -0.75 -0.265625q-0.328125 0 -0.59375 0.1875q-0.25 0.1875 -0.390625 0.484375q-0.140625 0.296875 -0.140625 0.625l0 2.296875l-0.6875 0l0 -4.078125zm6.3004456 4.203125q-0.578125 0 -1.046875 -0.28125q-0.453125 -0.28125 -0.71875 -0.765625q-0.265625 -0.5 -0.265625 -1.109375q0 -0.578125 0.25 -1.078125q0.25 -0.5 0.703125 -0.796875q0.453125 -0.296875 1.03125 -0.296875q0.59375 0 1.03125 0.265625q0.453125 0.265625 0.6875 0.734375q0.234375 0.46875 0.234375 1.078125q0 0.09375 -0.015625 0.21875l-3.234375 0q0.015625 0.453125 0.21875 0.78125q0.203125 0.3125 0.515625 0.484375q0.3125 0.15625 0.640625 0.15625q0.796875 0 1.203125 -0.734375l0.578125 0.28125q-0.25 0.484375 -0.71875 0.78125q-0.453125 0.28125 -1.09375 0.28125zm1.1875 -2.59375q-0.015625 -0.265625 -0.15625 -0.515625q-0.125 -0.25 -0.390625 -0.421875q-0.265625 -0.1875 -0.6875 -0.1875q-0.484375 0 -0.828125 0.3125q-0.328125 0.3125 -0.421875 0.8125l2.484375 0z"/><path fill="#000" fill-opacity="0" fill-rule="evenodd" d="m318.7391 184.61285l81.00787 0l0 14.803162l-81.00787 0z"/><path fill="#000" fill-rule="nonzero" d="m327.84848 192.36163l0.75 0l1.421875 4.15625l0.1875 0.5625l0.03125 0l0.203125 -0.5625l1.484375 -4.15625l0.75 0l-2.09375 5.734375l-0.703125 0l-2.03125 -5.734375zm5.684784 0.90625q-0.203125 0 -0.34375 -0.140625q-0.140625 -0.15625 -0.140625 -0.34375q0 -0.21875 0.140625 -0.359375q0.140625 -0.140625 0.34375 -0.140625q0.203125 0 0.34375 0.140625q0.140625 0.140625 0.140625 0.359375q0 0.1875 -0.140625 0.34375q-0.140625 0.140625 -0.34375 0.140625zm-0.34375 0.75l0.6875 0l0 4.078125l-0.6875 0l0 -4.078125zm6.3548584 4.140625q-0.25 0 -0.46875 -0.078125q-0.203125 -0.078125 -0.359375 -0.21875q-0.3125 -0.296875 -0.3125 -0.84375l0 -2.390625l-0.71875 0l0 -0.609375l0.71875 0l0 -1.15625l0.671875 0l0 1.15625l1.0 0l0 0.609375l-1.0 0l0 2.234375q0 0.328125 0.140625 0.484375q0.140625 0.1875 0.4375 0.1875q0.25 0 0.4375 -0.140625l0 0.65625q-0.109375 0.0625 -0.234375 0.078125q-0.125 0.03125 -0.3125 0.03125zm-4.609375 -4.140625l0.65625 0l0 0.640625l0.03125 0q0.140625 -0.359375 0.484375 -0.546875q0.34375 -0.203125 0.765625 -0.203125q0.15625 0 0.28125 0.015625l0 0.703125q-0.140625 -0.03125 -0.359375 -0.03125q-0.53125 0 -0.859375 0.34375q-0.3125 0.34375 -0.3125 0.890625l0 2.265625l-0.6875 0l0 -4.078125zm7.4443054 4.203125q-0.734375 0 -1.125 -0.421875q-0.390625 -0.4375 -0.390625 -1.21875l0 -2.5625l0.6875 0l0 2.46875q0 0.578125 0.265625 0.859375q0.265625 0.265625 0.703125 0.265625q0.34375 0 0.609375 -0.1875q0.28125 -0.1875 0.421875 -0.484375q0.140625 -0.296875 0.140625 -0.625l0 -2.296875l0.6875 0l0 4.078125l-0.640625 0l0 -0.59375l-0.046875 0q-0.15625 0.3125 -0.53125 0.515625q-0.359375 0.203125 -0.78125 0.203125zm4.2760925 0q-0.453125 0 -0.8125 -0.171875q-0.34375 -0.171875 -0.546875 -0.484375q-0.1875 -0.3125 -0.1875 -0.703125q0 -0.640625 0.484375 -1.0q0.5 -0.375 1.234375 -0.375q0.375 0 0.6875 0.078125q0.3125 0.078125 0.484375 0.1875l0 -0.25q0 -0.453125 -0.328125 -0.71875q-0.3125 -0.28125 -0.796875 -0.28125q-0.328125 0 -0.625 0.15625q-0.296875 0.140625 -0.46875 0.390625l-0.5 -0.375q0.234375 -0.375 0.65625 -0.578125q0.421875 -0.203125 0.9375 -0.203125q0.828125 0 1.296875 0.4375q0.484375 0.421875 0.484375 1.1875l0 2.578125l-0.65625 0l0 -0.578125l-0.03125 0q-0.171875 0.296875 -0.53125 0.5q-0.34375 0.203125 -0.78125 0.203125zm0.0625 -0.59375q0.34375 0 0.640625 -0.171875q0.296875 -0.1875 0.46875 -0.484375q0.171875 -0.296875 0.171875 -0.640625q-0.1875 -0.125 -0.46875 -0.203125q-0.28125 -0.09375 -0.59375 -0.09375q-0.5625 0 -0.84375 0.234375q-0.28125 0.234375 -0.28125 0.609375q0 0.328125 0.25 0.546875q0.265625 0.203125 0.65625 0.203125zm2.8729248 -5.265625l0.6875 0l0 5.734375l-0.6875 0l0 -5.734375zm1.1879883 5.734375l0 0zm2.496582 -5.734375l0.984375 0l1.828125 4.703125l0.03125 0l1.8125 -4.703125l0.984375 0l0 5.734375l-0.671875 0l0 -3.640625l0.03125 -1.09375l-0.03125 0l-1.859375 4.734375l-0.5625 0l-1.875 -4.734375l-0.03125 0l0.03125 1.09375l0 3.640625l-0.671875 0l0 -5.734375zm7.9797974 5.859375q-0.453125 0 -0.8125 -0.171875q-0.34375 -0.171875 -0.546875 -0.484375q-0.1875 -0.3125 -0.1875 -0.703125q0 -0.640625 0.484375 -1.0q0.5 -0.375 1.234375 -0.375q0.375 0 0.6875 0.078125q0.3125 0.078125 0.484375 0.1875l0 -0.25q0 -0.453125 -0.328125 -0.71875q-0.3125 -0.28125 -0.796875 -0.28125q-0.328125 0 -0.625 0.15625q-0.296875 0.140625 -0.46875 0.390625l-0.5 -0.375q0.234375 -0.375 0.65625 -0.578125q0.421875 -0.203125 0.9375 -0.203125q0.828125 0 1.296875 0.4375q0.484375 0.421875 0.484375 1.1875l0 2.578125l-0.65625 0l0 -0.578125l-0.03125 0q-0.171875 0.296875 -0.53125 0.5q-0.34375 0.203125 -0.78125 0.203125zm0.0625 -0.59375q0.34375 0 0.640625 -0.171875q0.296875 -0.1875 0.46875 -0.484375q0.171875 -0.296875 0.171875 -0.640625q-0.1875 -0.125 -0.46875 -0.203125q-0.28125 -0.09375 -0.59375 -0.09375q-0.5625 0 -0.84375 0.234375q-0.28125 0.234375 -0.28125 0.609375q0 0.328125 0.25 0.546875q0.265625 0.203125 0.65625 0.203125zm4.692322 0.59375q-0.59375 0 -1.078125 -0.28125q-0.46875 -0.28125 -0.734375 -0.765625q-0.265625 -0.5 -0.265625 -1.125q0 -0.609375 0.265625 -1.09375q0.265625 -0.5 0.734375 -0.78125q0.484375 -0.28125 1.078125 -0.28125q0.65625 0 1.109375 0.3125q0.453125 0.296875 0.640625 0.8125l-0.609375 0.25q-0.15625 -0.375 -0.453125 -0.5625q-0.296875 -0.203125 -0.734375 -0.203125q-0.359375 0 -0.671875 0.203125q-0.296875 0.1875 -0.5 0.546875q-0.1875 0.34375 -0.1875 0.796875q0 0.46875 0.1875 0.828125q0.203125 0.34375 0.5 0.546875q0.3125 0.1875 0.671875 0.1875q0.4375 0 0.75 -0.203125q0.3125 -0.203125 0.46875 -0.5625l0.609375 0.25q-0.21875 0.5 -0.671875 0.8125q-0.453125 0.3125 -1.109375 0.3125zm2.5085754 -5.859375l0.6875 0l0 1.6875l-0.03125 0.5625l0.03125 0q0.171875 -0.3125 0.53125 -0.515625q0.359375 -0.203125 0.796875 -0.203125q0.734375 0 1.125 0.4375q0.40625 0.421875 0.40625 1.15625l0 2.609375l-0.6875 0l0 -2.515625q0 -0.546875 -0.28125 -0.8125q-0.28125 -0.265625 -0.71875 -0.265625q-0.328125 0 -0.59375 0.203125q-0.265625 0.1875 -0.421875 0.5q-0.15625 0.296875 -0.15625 0.625l0 2.265625l-0.6875 0l0 -5.734375zm4.918213 0.90625q-0.203125 0 -0.34375 -0.140625q-0.140625 -0.15625 -0.140625 -0.34375q0 -0.21875 0.140625 -0.359375q0.140625 -0.140625 0.34375 -0.140625q0.203125 0 0.34375 0.140625q0.140625 0.140625 0.140625 0.359375q0 0.1875 -0.140625 0.34375q-0.140625 0.140625 -0.34375 0.140625zm-0.34375 0.75l0.6875 0l0 4.078125l-0.6875 0l0 -4.078125zm1.7454834 0l0.65625 0l0 0.59375l0.03125 0q0.171875 -0.296875 0.53125 -0.5q0.375 -0.21875 0.78125 -0.21875q0.734375 0 1.125 0.421875q0.390625 0.421875 0.390625 1.171875l0 2.609375l-0.671875 0l0 -2.515625q0 -0.5625 -0.28125 -0.8125q-0.265625 -0.265625 -0.75 -0.265625q-0.328125 0 -0.59375 0.1875q-0.25 0.1875 -0.390625 0.484375q-0.140625 0.296875 -0.140625 0.625l0 2.296875l-0.6875 0l0 -4.078125zm6.3004456 4.203125q-0.578125 0 -1.046875 -0.28125q-0.453125 -0.28125 -0.71875 -0.765625q-0.265625 -0.5 -0.265625 -1.109375q0 -0.578125 0.25 -1.078125q0.25 -0.5 0.703125 -0.796875q0.453125 -0.296875 1.03125 -0.296875q0.59375 0 1.03125 0.265625q0.453125 0.265625 0.6875 0.734375q0.234375 0.46875 0.234375 1.078125q0 0.09375 -0.015625 0.21875l-3.234375 0q0.015625 0.453125 0.21875 0.78125q0.203125 0.3125 0.515625 0.484375q0.3125 0.15625 0.640625 0.15625q0.796875 0 1.203125 -0.734375l0.578125 0.28125q-0.25 0.484375 -0.71875 0.78125q-0.453125 0.28125 -1.09375 0.28125zm1.1875 -2.59375q-0.015625 -0.265625 -0.15625 -0.515625q-0.125 -0.25 -0.390625 -0.421875q-0.265625 -0.1875 -0.6875 -0.1875q-0.484375 0 -0.828125 0.3125q-0.328125 0.3125 -0.421875 0.8125l2.484375 0z"/><path fill="#000" fill-opacity="0" fill-rule="evenodd" d="m333.98294 123.80446l-24.75592 0l0 43.496063l-24.75589 0"/><path fill-rule="evenodd" stroke="#476bb0" stroke-dasharray="5.575 7.433" stroke-linecap="round" stroke-linejoin="round" stroke-width="1.858" d="m325.62073 123.80446l-16.393707 0l0 43.496063l-24.75589 0"/><path fill="#476bb0" fill-rule="evenodd" stroke="#476bb0" stroke-linecap="butt" stroke-width="1.858" d="m325.62073 125.85929l5.6455994 -2.0548325l-5.6455994 -2.0548248z"/><path fill="#000" fill-opacity="0" fill-rule="evenodd" d="m330.98294 221.80446l0 0.49856567l-21.51181 0l0 -54.986755"/><path fill-rule="evenodd" stroke="#476bb0" stroke-dasharray="5.575 7.433" stroke-linecap="round" stroke-linejoin="round" stroke-width="1.858" d="m322.6356 222.30302l-13.164459 0l0 -54.986755"/><path fill="#476bb0" fill-rule="evenodd" stroke="#476bb0" stroke-linecap="butt" stroke-width="1.858" d="m322.75812 224.3542l5.5130615 -2.3877716l-5.758087 -1.7145844z"/><path fill="#000" fill-opacity="0" fill-rule="evenodd" d="m234.23491 177.49475l-96.31357 0l0 48.818893l0.06159973 0"/><path fill-rule="evenodd" stroke="#476bb0" stroke-dasharray="5.575 7.433" stroke-linecap="round" stroke-linejoin="round" stroke-width="1.858" d="m234.23491 177.49475l-96.31357 0l0 48.818893l0.06159973 0"/><path fill="#000" fill-opacity="0" fill-rule="evenodd" d="m137.98294 135.30315l0 20.503937l0.06298828 0l0 20.503937"/><path fill-rule="evenodd" stroke="#476bb0" stroke-dasharray="5.575 7.433" stroke-linecap="round" stroke-linejoin="round" stroke-width="1.858" d="m137.98294 143.66536l0 12.141724l0.06298828 0l0 20.503937"/><path fill="#476bb0" fill-rule="evenodd" stroke="#476bb0" stroke-linecap="butt" stroke-width="1.858" d="m140.03777 143.66536l-2.0548248 -5.6455994l-2.0548248 5.6455994z"/><path fill="#000" fill-opacity="0" fill-rule="evenodd" d="m184.48163 109.80446l149.00787 0"/><path fill-rule="evenodd" stroke="#009444" stroke-linecap="butt" stroke-linejoin="round" stroke-width="2" d="m196.48163 109.80446l125.00787 0"/><path fill="#009444" fill-rule="evenodd" stroke="#009444" stroke-linecap="butt" stroke-width="2" d="m196.48163 106.501l-9.076202 3.3034592l9.076202 3.3034668z"/><path fill="#009444" fill-rule="evenodd" stroke="#009444" stroke-linecap="butt" stroke-width="2" d="m321.4895 113.107925l9.076202 -3.3034668l-9.076202 -3.3034592z"/><path fill="#000" fill-opacity="0" fill-rule="evenodd" d="m415.47375 203.80446l0 -63.02362"/><path fill-rule="evenodd" stroke="#009444" stroke-linecap="butt" stroke-linejoin="round" stroke-width="2" d="m415.47375 191.80446l0 -39.02362"/><path fill="#009444" fill-rule="evenodd" stroke="#009444" stroke-linecap="butt" stroke-width="2" d="m412.1703 191.80446l3.3034668 9.076202l3.3034668 -9.076202z"/><path fill="#009444" fill-rule="evenodd" stroke="#009444" stroke-linecap="butt" stroke-width="2" d="m418.77722 152.78084l-3.3034668 -9.076187l-3.3034668 9.076187z"/></g></svg>