<svg xmlns="http://www.w3.org/2000/svg" xmlns:svg="http://www.w3.org/2000/svg" id="svg2" width="647.795" height="94.818" version="1.1" xml:space="preserve"><metadata id="metadata8"/><defs id="defs6"><clipPath id="clipPath18"><path id="path20" d="m 0,0 5102,0 0,678.547 -5102,0 L 0,0 z"/></clipPath></defs><g id="g10" transform="matrix(1.25,0,0,-1.25,5,89.818375)"><g id="g12" transform="scale(0.1,0.1)"><g id="g14"><g id="g16" clip-path="url(#clipPath18)"><path id="path22" d="M 3208,31.1055 C 3208,31.1055 3320.15,0 3463.39,0 c 152.66,0 223.32,16.9648 223.32,16.9648 l 0,113.0942 c 0,0 -76.32,-15.086 -182.81,-15.086 -93.28,0 -150.78,12.261 -150.78,12.261 l 0,160.2 289.34,0 0,113.093 -289.34,0 0,152.664 c 0,0 56.54,10.375 141.37,10.375 95.19,0 180.93,-15.082 180.93,-15.082 l 0,114.036 c 0,0 -75.39,16.027 -197.91,16.027 -163.02,0 -269.51,-29.238 -269.51,-29.238 l 0,-618.2035 z M 1140.33,288.391 c -3.78,-9.438 -8.47,-27.344 -11.3,-37.715 -2.82,10.371 -7.54,28.277 -11.3,37.715 L 989.543,617.277 c -21.672,54.657 -55.582,61.27 -117.785,61.27 -21.684,0 -65.988,-2.832 -65.988,-2.832 L 739.809,9.42578 l 146.086,0 32.031,446.69522 138.534,-338.316 c 10.38,-26.387 31.1,-36.7581 72.57,-36.7581 41.45,0 62.2,10.3711 72.56,36.7581 l 138.53,338.316 32.05,-446.69522 146.06,0 -65.96,666.28922 c 0,0 -44.3,2.832 -65.96,2.832 -62.2,0 -96.12,-6.613 -117.81,-61.27 L 1140.33,288.391 z M 409.027,151.73 C 377.926,139.473 302.52,114.973 246.93,114.973 c -60.321,0 -105.551,20.73 -105.551,86.707 0,57.48 31.082,90.461 114.043,93.293 l 153.605,5.652 0,-148.895 z M 322.32,678.547 c -130.054,0 -231.8356,-32.051 -271.4216,-51.848 L 82.0039,517.383 c 0,0 99.9101,35.808 197.9021,35.808 83.879,0 127.223,-23.55 127.223,-106.48 l 0,-47.133 -127.223,0 C 64.0977,399.578 0,300.625 0,191.301 0,46.1836 113.102,0 215.824,0 335.508,0 405.258,49.9414 413.73,49.9414 c 6.606,0 31.106,-26.375 140.411,-26.375 l 0,461.7776 c 0,138.523 -85.746,193.203 -231.821,193.203 l 0,0 z M 2071.45,151.73 c -31.11,-12.257 -106.5,-36.757 -162.09,-36.757 -60.33,0 -105.57,20.73 -105.57,86.707 0,57.48 31.11,90.461 114.04,93.293 l 153.62,5.652 0,-148.895 z m -86.72,526.817 c -130.06,0 -231.83,-32.051 -271.41,-51.848 l 31.1,-109.316 c 0,0 99.91,35.808 197.9,35.808 83.88,0 127.23,-23.55 127.23,-106.48 l 0,-47.133 -127.23,0 c -215.8,0 -279.9,-98.953 -279.9,-208.277 C 1662.42,46.1836 1775.52,0 1878.25,0 c 119.68,0 189.42,49.9414 197.9,49.9414 6.6,0 31.1,-26.375 140.42,-26.375 l 0,461.7776 c 0,138.523 -85.76,193.203 -231.84,193.203 l 0,0 z M 4296.48,175.293 c -34.86,-16.953 -110.25,-45.234 -179.04,-45.234 -99.93,0 -116.88,45.234 -116.88,148.894 l 0,393.938 c 0,0 -9.43,0 -21.68,0 -32.97,0 -106.48,-5.653 -124.39,-9.434 l 0,-403.352 C 3854.49,83.8672 3897.85,0 4076.89,0 c 136.66,0 216.76,52.7656 222.4,52.7656 1.9,0 49.03,-29.1992 143.3,-29.1992 l 0,639.8906 c -10.37,1.887 -81.09,9.434 -116.91,9.434 -13.18,0 -29.2,0 -29.2,0 l 0,-497.598 z M 4615.13,23.5664 c 0,0 90.47,-23.5664 216.76,-23.5664 119.69,0 270.47,40.5195 270.47,202.605 0,105.571 -78.22,150.801 -205.45,196.973 -68.79,25.449 -127.23,48.07 -127.23,95.195 0,22.61 16.98,66.899 104.61,66.899 81.99,0 165.88,-37.688 165.88,-37.688 l 36.76,108.371 c -24.53,12.254 -104.63,46.192 -215.82,46.192 -120.63,0 -238.44,-64.094 -238.44,-193.203 0,-132.895 120.63,-173.41 214.86,-204.516 64.11,-21.668 117.82,-44.297 117.82,-86.695 0,-41.445 -22.62,-77.278 -131,-77.278 -88.59,0 -182.83,19.786 -182.83,19.786 L 4615.13,23.5664 z M 2574.68,552.258 c 23.56,4.707 69.75,11.308 115.92,11.308 105.55,0 188.5,-59.375 188.5,-219.601 0,-155.496 -40.55,-228.992 -201.68,-228.992 -51.84,0 -102.74,7.539 -102.74,7.539 l 0,429.746 z m 122.52,126.289 c -82.93,0 -197.91,-14.141 -268.59,-39.582 l 0,-619.1681 C 2487.05,7.52734 2596.38,0 2672.71,0 c 260.1,0 360.94,101.785 360.94,343.965 0,209.226 -128.19,334.582 -336.45,334.582 l 0,0" style="fill:#1b69bc;fill-opacity:1;fill-rule:nonzero;stroke:none"/></g></g></g></g></svg>