<svg xmlns="http://www.w3.org/2000/svg" width="2500" height="750" viewBox="9.672 72.534 180 54.015"><path d="M113.818 98.695c0-6.787-3.393-8.587-7.438-8.587-4.5 0-6.966 3.272-6.966 8.295 0 5.193 2.635 9.049 7.443 9.049 3.571-.001 6.961-2.047 6.961-8.757M105.1 83.804c6.904-.004 9.186 4.198 9.186 4.198h.125v-.766c0-1.331.934-2.739 3.273-2.739h6.918v6.308h-2.295c-.76 0-1.283.411-1.283 1.163v20.503c.004 10.228-7.957 14.078-15.748 14.078-3.754 0-7.732-1.049-10.602-2.574l2.28-5.834s3.69 1.98 8.258 1.98c4.517.01 8.437-1.928 8.437-7.305v-1.399c0-.7.045-1.569.045-1.569l-.111-.01c-1.755 2.516-4.333 3.861-8.301 3.861-8.56 0-13.419-6.897-13.419-15.064-.002-8.187 4.622-14.835 13.237-14.831M144.189 101.38c0 3.615-2.812 7.817-6.795 7.817-3.049 0-4.51-1.865-4.51-3.854 0-4.143 6.146-4.663 10.023-4.663h1.279v.7h.003zm43.956-22.427c.891 0 1.527.111 1.527.111v-6.305s-.99-.172-2.46-.18c-4.217 0-12.245 1.295-12.233 11.05v.87h-9.797v-.53c-.002-4.439 3.637-5.017 5.736-5.017.885 0 1.527.111 1.527.111l-.006-6.305s-.992-.18-2.517-.18c-4.159 0-12.188 1.295-12.188 11.034l.012 24.409v.015h-4.948c-.821 0-1.296-.466-1.296-1.285V95.658c0-6.666-2.924-11.858-12.87-11.858-3.114 0-10.952.587-10.958 6.137l.006 3.148h6.904v-1.573c0-1.644 2.639-1.985 3.979-1.985 3.819 0 5.508 1.577 5.508 5.842v.23h-.938c-4.859-.009-17.74.764-17.746 10.101 0 5.944 4.865 9.278 10.196 9.278 6.733 0 9.013-5.252 9.013-5.252h.119s-.059.528-.059 1.289c0 1.746 1.058 3.264 3.803 3.271l16.719-.01V90.398h9.799l-.012 23.881h7.441V90.398h6.443v-5.899h-6.433l-.013-.521c.005-4.449 3.644-5.025 5.742-5.025M24.666 107.402c-4.802 0-7.439-3.851-7.439-9.05 0-5.018 2.459-8.288 6.97-8.288 4.037 0 7.431 1.798 7.441 8.584 0 6.711-3.405 8.754-6.972 8.754m65.507-28.5c.889.007 1.526.12 1.526.12v-6.31s-.99-.178-2.46-.178c-4.216 0-12.232 1.287-12.232 11.048v.872h-9.795l-.006-.529c.006-4.437 3.635-5.022 5.748-5.022.878.007 1.521.12 1.521.12v-6.31s-.996-.178-2.527-.178c-4.153 0-12.171 1.287-12.171 11.042v24.401l-5.48.018c-.816 0-1.285-.471-1.285-1.295V88.417c0-2.735-1.162-3.963-3.918-3.963H35.508c-2.349 0-3.282 1.405-3.282 2.745-.012.403 0 .758 0 .758h-.125s-2.279-4.196-9.19-4.202c-8.609 0-13.232 6.65-13.239 14.834.007 8.177 4.859 15.067 13.406 15.067 3.987-.008 6.569-1.346 8.326-3.863h.111s-.056.878-.056 1.58v1.404c0 5.38-3.924 7.306-8.429 7.3-4.579 0-8.259-1.987-8.259-1.987l-2.28 5.839c2.858 1.52 6.848 2.576 10.6 2.576 7.788 0 15.753-3.853 15.75-14.073l.004-20.503c0-.757.516-1.167 1.28-1.167h4.228c.817 0 1.287.41 1.287 1.28v18.229c0 2.805 1.168 3.963 3.918 3.963h17.656V90.352h9.795v23.882h7.431V90.352h6.444v-5.898H84.44v-.519c-.002-4.454 3.63-5.033 5.733-5.033"/><path d="M45.548 79.99h7.465v-7.437l-7.471-.002z"/></svg>