<svg xmlns="http://www.w3.org/2000/svg" width="144" height="48" fill="none" viewBox="0 0 144 48"><path fill="#458500" fill-rule="evenodd" d="M120.956 40.1532C122.313 41.003 124.185 41.5078 125.993 41.5078C131.264 41.5078 134.411 37.922 134.411 31.9161C134.411 25.9149 131.291 22.1866 126.269 22.1866C124.202 22.1866 122.416 22.7768 120.956 23.941V40.1532ZM120.956 17.629C122.778 16.3456 125.143 15.6949 127.994 15.6949C136.8 15.6949 142.49 21.8727 142.49 31.4334C142.49 41.6519 136.169 48 125.993 48C122.222 48 118.346 47.0888 115.878 45.6233C113.084 43.9759 113.084 41.9155 113.084 39.9223V3.27388C113.084 1.79336 113.767 0.0275879 117.02 0.0275879C120.274 0.0275879 120.956 1.79336 120.956 3.27388V17.629ZM10.105 6.31052C10.105 8.91118 8.19016 10.7989 5.55252 10.7989C2.91449 10.7989 1 8.91118 1 6.31052C1 3.71026 2.91449 1.82213 5.55252 1.82213C8.19016 1.82213 10.105 3.71026 10.105 6.31052ZM1.61652 19.0793C1.61652 17.5984 2.29915 15.833 5.55252 15.833C8.80551 15.833 9.48852 17.5984 9.48852 19.0793V44.5472C9.48852 46.0273 8.80551 47.7927 5.55252 47.7927C2.29915 47.7927 1.61652 46.0273 1.61652 44.5472V19.0793ZM48.4818 1.82213C45.8245 1.82213 44.477 2.91433 44.477 5.06842V20.5264H24.4653V5.06842C24.4653 3.5879 23.7827 1.82213 20.5293 1.82213C17.872 1.82213 16.5245 2.91433 16.5245 5.06842V44.5472C16.5245 46.7002 17.872 47.7928 20.5293 47.7928C23.7827 47.7928 24.4653 46.0274 24.4653 44.5472V27.6394H44.477V44.5472C44.477 46.7002 45.8245 47.7928 48.4818 47.7928C51.7352 47.7928 52.4178 46.0274 52.4178 44.5472V5.06842C52.4178 3.5879 51.7352 1.82213 48.4818 1.82213ZM77.9503 28.5321C77.8771 24.338 75.594 21.842 71.8114 21.842C68.1603 21.842 65.885 24.1535 65.2197 28.5321H77.9503ZM78.8839 39.8106C79.936 39.2094 80.6887 38.8163 81.5432 38.8163C83.8291 38.8163 84.8576 40.876 84.8576 42.338C84.8576 43.5223 84.1258 44.5508 82.6193 45.4836C79.9765 47.153 76.6881 48.0001 72.8466 48.0001C63.208 48.0001 57.4535 41.9871 57.4535 31.9161C57.4535 21.9365 63.1435 15.4875 71.9495 15.4875C79.9966 15.4875 85.6169 21.1932 85.6169 29.3627C85.6169 34.0234 83.5218 34.4031 80.9908 34.4031H65.2928C66.0577 38.9351 68.7138 41.2317 73.1916 41.2317C75.3217 41.2317 77.2901 40.7403 78.8839 39.8106ZM106.529 15.6948C102.848 15.6948 99.8635 17.4448 98.0414 20.6451V19.087C98.0784 18.1204 97.8282 17.3508 97.2971 16.7988C96.6805 16.1583 95.6997 15.8329 94.3816 15.8329C91.8613 15.8329 90.5837 16.9255 90.5837 19.0792V44.5471C90.5837 46.0272 91.266 47.7926 94.5197 47.7926C97.7727 47.7926 98.4557 46.0272 98.4557 44.5471V26.9988C99.9276 24.2203 102.082 23.0829 106.12 22.9455C108.814 22.8747 109.913 21.8144 109.913 19.2861C109.913 16.7693 108.901 15.6948 106.529 15.6948ZM139.488 3.27219C139.488 3.5295 139.343 3.63927 139.004 3.63927H138.471V2.90511H138.994C139.345 2.90511 139.488 3.01094 139.488 3.27219ZM140.508 5.56879L139.674 4.3259C140.139 4.14453 140.395 3.77194 140.395 3.27227C140.395 2.54204 139.879 2.1061 139.014 2.1061H137.754C137.565 2.1061 137.526 2.21981 137.526 2.31502V5.65456C137.526 5.79345 137.602 5.86387 137.754 5.86387H138.242C138.394 5.86387 138.471 5.79345 138.471 5.65456V4.43843H138.73L139.566 5.71122C139.654 5.82413 139.729 5.86387 139.854 5.86387H140.313C140.414 5.86387 140.484 5.83436 140.52 5.77574C140.554 5.72027 140.55 5.6522 140.508 5.56879ZM135.941 3.98517C135.941 5.63684 137.289 6.98045 138.946 6.98045C140.597 6.98045 141.941 5.63684 141.941 3.98517C141.941 2.33389 140.597 0.990283 138.946 0.990283C137.289 0.990283 135.941 2.33389 135.941 3.98517ZM135.251 3.98518C135.251 1.94833 136.908 0.291152 138.946 0.291152C140.982 0.291152 142.639 1.94833 142.639 3.98518C142.639 6.02164 140.982 7.67882 138.946 7.67882C136.908 7.67882 135.251 6.02164 135.251 3.98518Z" clip-rule="evenodd"/></svg>