<svg id="Ebene_1" data-name="Ebene 1" xmlns="http://www.w3.org/2000/svg" viewBox="0 0 250 250"><defs><style>.cls-1{fill:#051c59;fill-rule:evenodd;}</style></defs><polygon class="cls-1" points="85.67 96.27 124.18 57.76 130.74 85.54 85.67 96.27 85.67 96.27"/><polygon class="cls-1" points="164.42 101.27 125.99 139.78 119.43 112.08 164.42 101.27 164.42 101.27"/><polygon class="cls-1" points="127.54 59.4 166.05 97.91 138.36 104.47 127.54 59.4 127.54 59.4"/><polygon class="cls-1" points="122.55 138.14 84.12 99.71 111.81 93.16 122.55 138.14 122.55 138.14"/><polygon class="cls-1" points="26.11 158.87 29.22 162.07 32.82 158.87 32.82 192.38 26.11 192.38 26.11 158.87 26.11 158.87"/><polygon class="cls-1" points="26.11 158.87 32.82 158.87 29.22 166.41 26.11 158.87 26.11 158.87"/><polygon class="cls-1" points="25.45 148.38 25.45 148.22 25.53 148.06 25.53 147.81 25.53 147.65 25.61 147.48 25.61 147.24 25.7 147.07 25.78 146.91 25.78 146.75 25.86 146.58 25.94 146.42 26.11 146.25 26.19 146.09 26.27 145.93 26.43 145.76 26.51 145.6 26.68 145.52 26.84 145.35 27.01 145.19 27.17 145.11 27.33 145.02 27.5 144.94 27.66 144.78 27.82 144.78 27.99 144.7 28.23 144.61 28.4 144.53 28.64 144.53 28.81 144.53 29.05 144.45 29.22 144.45 29.46 144.45 29.71 144.45 29.87 144.45 30.04 144.45 30.28 144.53 30.45 144.53 30.61 144.61 30.77 144.7 30.94 144.7 31.1 144.78 31.35 144.86 31.51 144.94 31.59 145.02 31.76 145.19 31.92 145.27 32.09 145.43 32.25 145.52 32.33 145.68 32.5 145.84 32.66 146.01 32.74 146.17 32.82 146.34 32.91 146.5 33.07 146.66 33.07 146.83 33.15 146.99 33.23 147.24 33.31 147.4 33.31 147.56 33.4 147.81 33.4 147.97 33.4 148.22 33.4 148.47 33.4 148.63 33.4 148.88 33.4 149.04 33.31 149.28 33.31 149.45 33.23 149.61 33.15 149.78 33.07 150.02 33.07 150.19 32.91 150.35 32.82 150.51 32.74 150.68 32.66 150.84 32.5 151.01 32.33 151.09 32.25 151.25 32.09 151.41 31.92 151.58 31.76 151.66 31.59 151.74 31.43 151.91 31.27 151.99 31.1 152.07 30.94 152.15 30.77 152.24 30.61 152.24 30.37 152.32 30.2 152.32 30.04 152.4 29.79 152.4 29.63 152.4 29.38 152.4 29.22 152.4 28.97 152.4 28.81 152.4 28.64 152.32 28.4 152.32 28.23 152.24 28.07 152.24 27.91 152.15 27.74 152.07 27.58 151.99 27.33 151.91 27.17 151.74 27.09 151.66 26.92 151.58 26.76 151.41 26.6 151.25 26.51 151.09 26.35 151.01 26.27 150.84 26.11 150.68 26.02 150.51 25.94 150.35 25.86 150.19 25.78 149.94 25.7 149.78 25.61 149.61 25.61 149.45 25.53 149.2 25.53 149.04 25.53 148.79 25.45 148.63 25.45 148.38 25.45 148.38"/><polygon class="cls-1" points="42.25 192.38 42.25 158.87 48.88 158.87 48.88 163.46 49.13 163.13 49.38 162.81 49.62 162.48 49.95 162.23 50.19 161.9 50.44 161.66 50.69 161.41 51.01 161.17 51.26 160.92 51.59 160.67 51.91 160.43 52.16 160.26 52.49 160.02 52.82 159.85 53.06 159.69 53.39 159.53 53.72 159.36 54.05 159.2 54.37 159.03 54.78 158.95 55.11 158.79 55.44 158.71 55.77 158.63 56.18 158.54 56.5 158.46 56.91 158.38 57.32 158.3 57.65 158.3 58.06 158.22 58.47 158.22 58.88 158.13 59.29 158.13 59.53 158.13 59.95 158.22 60.19 158.22 60.52 158.22 60.85 158.3 61.17 158.3 61.42 158.38 61.75 158.38 62.08 158.46 62.32 158.54 62.65 158.63 62.9 158.71 63.14 158.79 63.47 158.87 63.71 158.95 63.96 159.12 64.21 159.2 64.45 159.36 64.7 159.44 64.94 159.61 65.19 159.77 65.44 159.94 65.68 160.1 65.93 160.26 66.17 160.43 66.34 160.59 66.58 160.76 66.75 161 66.99 161.17 67.16 161.41 67.4 161.58 67.56 161.82 67.73 162.07 67.97 162.31 68.14 162.56 68.3 162.81 68.47 163.05 68.63 163.3 68.79 163.54 68.88 163.87 69.04 164.12 69.2 164.36 69.29 164.69 69.45 164.94 69.53 165.26 69.7 165.59 69.78 165.84 69.86 166.16 69.94 166.49 70.02 166.82 70.11 167.15 70.19 167.47 70.27 167.8 70.35 168.13 70.35 168.46 70.43 168.79 70.43 169.2 70.52 169.52 70.52 169.93 70.6 170.26 70.6 171 70.6 171.82 70.6 192.38 63.96 192.38 63.96 171.74 63.96 171.24 63.96 170.75 63.88 170.34 63.8 169.93 63.8 169.52 63.71 169.11 63.63 168.7 63.55 168.29 63.39 167.97 63.3 167.56 63.14 167.23 62.98 166.9 62.81 166.57 62.65 166.25 62.48 166 62.24 165.67 62.08 165.43 61.83 165.18 61.58 164.94 61.34 164.77 61.09 164.53 60.76 164.36 60.52 164.2 60.19 164.03 59.86 163.95 59.53 163.79 59.21 163.71 58.88 163.62 58.55 163.54 58.14 163.54 57.81 163.54 57.41 163.46 57.16 163.54 56.91 163.54 56.59 163.54 56.34 163.54 56.09 163.62 55.77 163.71 55.52 163.71 55.27 163.79 54.95 163.87 54.7 163.95 54.45 164.03 54.21 164.2 53.88 164.28 53.64 164.44 53.39 164.61 53.14 164.69 52.82 164.85 52.57 165.02 52.33 165.18 52.08 165.34 51.75 165.59 51.51 165.75 51.26 166 51.01 166.25 50.77 166.49 50.44 166.66 50.19 166.98 49.95 167.23 49.7 167.47 49.46 167.72 49.13 168.05 48.88 168.38 48.88 192.38 42.25 192.38 42.25 192.38"/><polygon class="cls-1" points="93.95 189.52 95.67 186.98 96.08 186.98 96.41 186.98 96.73 186.98 97.06 186.98 97.39 186.89 97.72 186.89 97.96 186.81 98.29 186.81 98.62 186.73 98.95 186.65 99.19 186.65 99.52 186.57 99.77 186.49 100.09 186.4 100.34 186.32 100.59 186.16 100.83 186.07 101.16 185.99 101.41 185.83 101.65 185.75 101.9 185.58 102.14 185.5 102.39 185.34 102.55 185.17 102.8 185.01 103.04 184.85 103.21 184.68 103.45 184.52 103.62 184.35 103.86 184.19 104.03 184.03 104.27 183.78 104.44 183.62 104.6 183.37 104.77 183.21 104.93 182.96 105.09 182.72 105.26 182.55 105.42 182.31 105.58 182.06 105.67 181.81 105.83 181.57 105.91 181.32 106.08 181.08 106.16 180.83 106.32 180.59 106.4 180.34 106.49 180.09 106.57 179.77 106.65 179.52 106.73 179.27 106.81 178.95 106.89 178.7 106.98 178.46 106.98 178.13 107.06 177.8 107.14 177.23 107.22 176.65 107.22 176 107.22 175.34 107.22 175.01 107.22 174.77 107.22 174.44 107.22 174.19 107.14 173.87 107.14 173.62 107.06 173.29 107.06 173.05 106.98 172.72 106.89 172.47 106.81 172.23 106.81 171.9 106.73 171.65 106.65 171.41 106.49 171.16 106.4 170.92 106.32 170.67 106.16 170.43 106.08 170.18 105.91 169.93 105.83 169.69 105.67 169.44 105.5 169.28 105.34 169.03 105.17 168.79 105.01 168.62 104.85 168.38 104.68 168.13 104.52 167.97 104.36 167.72 104.11 167.56 103.95 167.31 103.7 167.15 103.45 166.98 103.29 166.82 103.04 166.66 102.88 166.49 102.64 166.33 102.39 166.16 102.14 166 101.9 165.84 101.73 165.67 101.49 165.59 101.24 165.43 101 165.34 100.75 165.26 100.5 165.1 100.18 165.02 99.93 164.94 99.69 164.85 99.44 164.77 99.19 164.69 98.87 164.61 98.62 164.53 98.37 164.44 98.05 164.44 97.8 164.36 97.47 164.36 97.23 164.28 96.9 164.28 96.57 164.28 96.33 164.28 96 164.2 95.67 164.2 94.03 160.76 95.83 158.13 96.33 158.13 96.82 158.22 97.31 158.22 97.72 158.22 98.21 158.3 98.7 158.38 99.11 158.38 99.6 158.46 100.01 158.54 100.5 158.63 100.91 158.71 101.32 158.87 101.73 158.95 102.14 159.12 102.55 159.2 102.96 159.36 103.37 159.53 103.78 159.69 104.19 159.85 104.6 160.1 104.93 160.26 105.34 160.43 105.75 160.67 106.08 160.92 106.4 161.17 106.81 161.41 107.14 161.66 107.47 161.9 107.88 162.15 108.21 162.48 108.53 162.72 108.86 163.05 109.19 163.3 109.44 163.62 109.76 163.95 110.09 164.28 110.34 164.61 110.58 164.94 110.83 165.26 111.07 165.59 111.32 165.92 111.57 166.33 111.81 166.66 111.98 167.06 112.22 167.39 112.39 167.72 112.55 168.13 112.71 168.54 112.88 168.95 113.04 169.28 113.2 169.69 113.29 170.1 113.45 170.51 113.53 170.92 113.61 171.33 113.7 171.74 113.78 172.23 113.86 172.64 113.94 173.05 113.94 173.54 114.02 173.95 114.02 174.44 114.02 174.85 114.02 175.34 114.02 175.83 114.02 176.32 114.02 176.82 113.94 177.31 113.94 177.8 113.86 178.29 113.78 178.78 113.7 179.19 113.61 179.68 113.53 180.09 113.45 180.5 113.29 181 113.2 181.4 113.04 181.81 112.88 182.22 112.71 182.63 112.55 183.04 112.39 183.45 112.22 183.86 112.06 184.19 111.81 184.6 111.57 184.93 111.4 185.34 111.16 185.66 110.91 185.99 110.58 186.32 110.34 186.65 110.09 186.98 109.76 187.3 109.52 187.63 109.19 187.96 108.86 188.29 108.53 188.53 108.21 188.86 107.88 189.11 107.55 189.35 107.22 189.68 106.81 189.93 106.49 190.17 106.16 190.34 105.75 190.58 105.42 190.83 105.01 190.99 104.6 191.16 104.27 191.32 103.86 191.56 103.45 191.73 103.04 191.89 102.64 191.97 102.22 192.14 101.81 192.22 101.41 192.38 100.91 192.47 100.5 192.55 100.09 192.63 99.6 192.71 99.19 192.79 98.7 192.88 98.21 192.96 97.8 192.96 97.31 193.04 96.82 193.04 96.33 193.04 95.83 193.04 93.95 189.52 93.95 189.52"/><polygon class="cls-1" points="97.56 189.52 95.83 193.04 95.34 193.04 94.85 193.04 94.36 193.04 93.95 192.96 93.46 192.88 92.97 192.88 92.56 192.79 92.06 192.71 91.66 192.63 91.25 192.55 90.75 192.47 90.34 192.38 89.93 192.22 89.53 192.14 89.11 191.97 88.7 191.81 88.3 191.65 87.89 191.48 87.48 191.32 87.15 191.07 86.74 190.91 86.41 190.66 86 190.5 85.67 190.25 85.26 190.01 84.94 189.76 84.61 189.52 84.28 189.27 83.95 188.94 83.54 188.7 83.3 188.37 82.97 188.12 82.64 187.8 82.31 187.47 82.07 187.14 81.74 186.81 81.5 186.49 81.25 186.16 81 185.75 80.76 185.42 80.51 185.09 80.27 184.68 80.1 184.35 79.86 183.94 79.69 183.62 79.53 183.21 79.36 182.8 79.2 182.39 79.04 181.98 78.87 181.57 78.71 181.16 78.63 180.75 78.55 180.34 78.38 179.93 78.3 179.52 78.22 179.03 78.14 178.62 78.14 178.13 78.05 177.72 77.97 177.23 77.97 176.82 77.97 176.32 77.89 175.83 77.89 175.34 77.89 174.93 77.97 174.44 77.97 174.03 77.97 173.62 78.05 173.13 78.14 172.72 78.14 172.31 78.22 171.9 78.3 171.49 78.38 171.08 78.55 170.67 78.63 170.26 78.79 169.85 78.87 169.44 79.04 169.03 79.2 168.7 79.36 168.29 79.53 167.97 79.69 167.56 79.94 167.23 80.1 166.82 80.35 166.49 80.51 166.16 80.76 165.75 81 165.43 81.25 165.1 81.58 164.77 81.82 164.44 82.07 164.12 82.4 163.79 82.72 163.46 83.05 163.13 83.3 162.89 83.63 162.56 83.95 162.23 84.36 161.99 84.69 161.74 85.02 161.49 85.35 161.25 85.75 161 86.08 160.76 86.49 160.51 86.82 160.35 87.23 160.1 87.56 159.94 87.97 159.77 88.38 159.61 88.79 159.44 89.2 159.28 89.61 159.12 90.02 159.03 90.43 158.87 90.84 158.79 91.25 158.71 91.74 158.54 92.15 158.46 92.56 158.38 93.05 158.38 93.46 158.3 93.95 158.22 94.44 158.22 94.85 158.22 95.34 158.13 95.83 158.13 97.64 161.25 95.67 164.2 95.1 164.28 94.52 164.28 94.19 164.28 93.95 164.36 93.62 164.36 93.38 164.44 93.05 164.44 92.8 164.53 92.56 164.61 92.31 164.69 91.98 164.77 91.74 164.85 91.49 164.94 91.25 165.02 91 165.1 90.75 165.26 90.51 165.34 90.26 165.43 90.1 165.59 89.85 165.75 89.61 165.84 89.36 166 89.2 166.16 88.95 166.33 88.7 166.49 88.54 166.66 88.3 166.82 88.13 166.98 87.97 167.23 87.72 167.39 87.56 167.56 87.39 167.8 87.23 167.97 87.07 168.21 86.9 168.38 86.74 168.62 86.58 168.87 86.41 169.03 86.25 169.28 86.17 169.52 86 169.77 85.92 169.93 85.75 170.18 85.67 170.43 85.59 170.67 85.43 170.92 85.35 171.16 85.26 171.41 85.18 171.65 85.1 171.9 85.02 172.23 85.02 172.47 84.94 172.72 84.85 172.97 84.85 173.29 84.77 173.54 84.77 173.78 84.77 174.11 84.77 174.36 84.69 174.69 84.69 174.93 84.69 175.26 84.69 175.59 84.69 175.91 84.77 176.24 84.77 176.57 84.77 176.9 84.77 177.14 84.85 177.47 84.85 177.8 84.94 178.13 85.02 178.37 85.02 178.7 85.1 178.95 85.18 179.27 85.26 179.52 85.35 179.85 85.43 180.09 85.59 180.34 85.67 180.59 85.75 180.83 85.92 181.16 86 181.4 86.17 181.65 86.25 181.9 86.41 182.06 86.58 182.31 86.74 182.55 86.9 182.8 87.07 182.96 87.23 183.21 87.39 183.45 87.56 183.62 87.72 183.86 87.97 184.03 88.13 184.19 88.3 184.35 88.54 184.6 88.7 184.76 88.95 184.93 89.2 185.09 89.36 185.17 89.61 185.34 89.85 185.5 90.1 185.66 90.26 185.75 90.51 185.91 90.75 185.99 91 186.07 91.25 186.24 91.49 186.32 91.74 186.4 91.98 186.49 92.31 186.57 92.56 186.65 92.8 186.65 93.05 186.73 93.38 186.81 93.62 186.81 93.95 186.89 94.19 186.89 94.52 186.98 94.77 186.98 95.1 186.98 95.42 186.98 95.67 186.98 97.56 189.52 97.56 189.52"/><polygon class="cls-1" points="133.03 179.44 141.8 158.87 148.85 158.87 134.18 193.04 131.89 193.04 116.65 158.87 123.94 158.87 133.03 179.44 133.03 179.44"/><polygon class="cls-1" points="157.21 174.28 159.25 172.23 176.05 172.23 176.05 171.82 176.05 171.41 175.97 171 175.89 170.67 175.81 170.26 175.72 169.85 175.64 169.52 175.56 169.2 175.4 168.79 175.23 168.46 175.07 168.13 174.9 167.8 174.66 167.47 174.41 167.15 174.25 166.9 173.92 166.57 173.68 166.33 173.43 166 173.1 165.75 172.85 165.59 172.53 165.34 172.2 165.18 171.79 165.02 171.46 164.85 171.13 164.69 170.72 164.61 170.31 164.44 169.99 164.36 169.58 164.28 169.09 164.28 168.68 164.28 168.27 164.2 166.46 160.59 168.19 158.13 168.59 158.13 169 158.22 169.41 158.22 169.91 158.22 170.31 158.3 170.72 158.38 171.05 158.38 171.46 158.46 171.87 158.54 172.2 158.63 172.61 158.71 172.94 158.87 173.35 158.95 173.68 159.12 174 159.2 174.41 159.36 174.66 159.53 175.07 159.69 175.31 159.85 175.64 160.1 175.97 160.26 176.3 160.43 176.54 160.67 176.87 160.92 177.12 161.17 177.36 161.41 177.69 161.66 177.94 161.9 178.18 162.15 178.43 162.48 178.67 162.72 178.92 163.05 179.16 163.3 179.33 163.62 179.57 163.95 179.74 164.28 179.98 164.61 180.15 165.02 180.31 165.34 180.56 165.67 180.72 166.08 180.88 166.41 180.97 166.82 181.13 167.23 181.29 167.64 181.46 167.97 181.54 168.46 181.71 168.87 181.79 169.28 181.87 169.69 182.03 170.18 182.11 170.59 182.2 171.08 182.28 171.57 182.28 171.98 182.36 172.47 182.44 172.97 182.44 173.46 182.52 174.03 182.52 174.52 182.61 175.01 182.61 175.59 182.61 176.08 182.61 176.65 159.17 176.65 157.21 174.28 157.21 174.28"/><polygon class="cls-1" points="159.17 174.52 159.17 176.65 159.25 177.31 159.42 177.88 159.58 178.46 159.75 179.03 159.91 179.6 160.07 180.18 160.32 180.67 160.56 181.16 160.81 181.65 161.06 182.06 161.3 182.55 161.55 182.96 161.88 183.37 162.2 183.7 162.53 184.11 162.86 184.35 163.19 184.68 163.6 185.01 164.01 185.26 164.42 185.5 164.74 185.75 165.24 185.99 165.65 186.16 166.14 186.32 166.63 186.49 167.04 186.65 167.53 186.73 168.1 186.81 168.59 186.89 169.17 186.98 169.74 186.98 170.31 186.98 170.64 186.98 170.97 186.98 171.3 186.98 171.71 186.89 172.04 186.89 172.36 186.81 172.77 186.73 173.1 186.73 173.51 186.65 173.84 186.57 174.17 186.49 174.58 186.32 174.9 186.24 175.31 186.16 175.64 185.99 175.97 185.83 176.38 185.75 176.71 185.58 177.12 185.42 177.44 185.26 177.85 185.01 178.18 184.85 178.59 184.68 178.92 184.44 179.33 184.27 179.74 184.03 180.07 183.78 180.48 183.53 180.88 183.29 181.21 183.04 181.62 182.72 181.95 182.47 181.95 189.03 181.29 189.43 180.64 189.84 179.98 190.17 179.25 190.58 178.59 190.91 177.85 191.24 177.12 191.56 176.3 191.89 175.97 191.97 175.56 192.14 175.15 192.3 174.74 192.38 174.33 192.47 173.92 192.55 173.43 192.63 173.02 192.71 172.53 192.79 172.04 192.88 171.54 192.96 171.05 192.96 170.56 193.04 170.07 193.04 169.58 193.04 169 193.04 168.51 193.04 168.1 193.04 167.61 192.96 167.2 192.96 166.79 192.88 166.3 192.88 165.89 192.79 165.48 192.71 165.07 192.63 164.66 192.55 164.25 192.47 163.84 192.3 163.43 192.22 163.1 192.06 162.69 191.89 162.28 191.73 161.96 191.56 161.55 191.4 161.22 191.24 160.89 191.07 160.56 190.83 160.16 190.66 159.83 190.42 159.5 190.17 159.17 189.93 158.84 189.68 158.6 189.43 158.27 189.11 157.94 188.86 157.7 188.53 157.37 188.29 157.12 187.96 156.8 187.63 156.55 187.3 156.3 186.98 156.06 186.65 155.81 186.24 155.57 185.91 155.32 185.58 155.16 185.26 154.91 184.85 154.75 184.52 154.5 184.11 154.34 183.7 154.17 183.37 154.01 182.96 153.85 182.55 153.68 182.22 153.6 181.81 153.44 181.4 153.35 181 153.19 180.59 153.11 180.18 153.03 179.68 152.94 179.27 152.86 178.86 152.78 178.37 152.7 177.96 152.7 177.55 152.62 177.06 152.62 176.57 152.62 176.16 152.62 175.67 152.53 175.18 152.62 174.77 152.62 174.28 152.62 173.87 152.62 173.38 152.7 172.97 152.7 172.47 152.78 172.06 152.86 171.65 152.94 171.24 153.03 170.83 153.11 170.43 153.19 170.01 153.27 169.6 153.44 169.2 153.52 168.79 153.68 168.46 153.76 168.05 153.93 167.64 154.09 167.31 154.25 166.98 154.42 166.57 154.58 166.25 154.75 165.92 154.99 165.51 155.16 165.18 155.4 164.85 155.65 164.53 155.89 164.2 156.06 163.87 156.3 163.62 156.63 163.3 156.88 162.97 157.12 162.72 157.45 162.4 157.7 162.15 158.03 161.82 158.27 161.58 158.6 161.33 158.84 161.08 159.17 160.92 159.5 160.67 159.83 160.43 160.16 160.26 160.48 160.02 160.81 159.85 161.14 159.69 161.47 159.53 161.88 159.36 162.2 159.2 162.53 159.12 162.94 158.95 163.27 158.87 163.68 158.71 164.09 158.63 164.42 158.54 164.82 158.46 165.24 158.38 165.65 158.38 166.05 158.3 166.46 158.22 166.87 158.22 167.28 158.22 167.69 158.13 168.19 158.13 169.99 160.59 168.27 164.2 167.78 164.2 167.28 164.28 166.87 164.28 166.38 164.36 165.97 164.44 165.56 164.53 165.15 164.61 164.82 164.69 164.42 164.85 164.09 165.02 163.76 165.18 163.35 165.34 163.02 165.59 162.78 165.75 162.45 166 162.12 166.25 161.88 166.49 161.63 166.74 161.38 167.06 161.14 167.39 160.89 167.72 160.73 168.05 160.48 168.38 160.32 168.7 160.16 169.11 159.99 169.52 159.83 169.93 159.66 170.34 159.58 170.83 159.42 171.24 159.34 171.74 159.25 172.23 159.17 174.52 159.17 174.52"/><polygon class="cls-1" points="185.47 192.38 199.57 175.34 185.47 158.87 194 158.87 203.83 170.26 213.33 158.87 221.85 158.87 208.09 175.34 222.84 192.38 214.4 192.38 203.75 180.34 194 192.38 185.47 192.38 185.47 192.38"/></svg>