<svg width="322" height="322" viewBox="0 0 322 322" fill="none" xmlns="http://www.w3.org/2000/svg">
<path fill-rule="evenodd" clip-rule="evenodd" d="M273.349 108.825C276.029 104.184 276.029 98.466 273.349 93.825L223.51 7.5C220.83 2.85898 215.878 -2.70142e-06 210.519 -2.93567e-06L110.84 -7.2928e-06C105.481 -7.52704e-06 100.529 2.85898 97.8494 7.49999L48.0096 93.825C45.3301 98.466 45.3301 104.184 48.0096 108.825L97.8494 195.15C100.529 199.791 105.481 202.65 110.84 202.65H210.519C215.878 202.65 220.83 199.791 223.51 195.15L273.349 108.825ZM232.122 67.8223C232.941 65.9321 231.251 63.9178 229.247 64.3964L195.614 72.4306C193.806 72.8624 193.085 75.0455 194.28 76.4692L199.407 82.5802L172.933 105.73L151.826 81.8255C149.098 78.7359 144.388 78.4265 141.28 81.1328L111.241 107.283C109.509 106.64 107.635 106.29 105.68 106.29C96.8429 106.29 89.6795 113.453 89.6795 122.29C89.6795 131.126 96.8429 138.29 105.68 138.29C114.516 138.29 121.68 131.126 121.68 122.29C121.68 120.977 121.521 119.701 121.223 118.48L145.511 97.3364L166.629 121.254C169.361 124.348 174.08 124.653 177.188 121.935L209.051 94.0732L214.16 100.162C215.355 101.586 217.63 101.255 218.369 99.5493L232.122 67.8223Z" fill="#194B7D"/>
<path d="M22.12 305.98C18.1533 305.98 14.3033 305.49 10.57 304.51C6.83667 303.53 3.80333 302.223 1.47 300.59L6.02 290.37C8.21333 291.817 10.7567 292.983 13.65 293.87C16.5433 294.757 19.39 295.2 22.19 295.2C27.51 295.2 30.17 293.87 30.17 291.21C30.17 289.81 29.4 288.783 27.86 288.13C26.3667 287.43 23.94 286.707 20.58 285.96C16.8933 285.167 13.8133 284.327 11.34 283.44C8.86667 282.507 6.74333 281.037 4.97 279.03C3.19667 277.023 2.31 274.317 2.31 270.91C2.31 267.923 3.12667 265.24 4.76 262.86C6.39333 260.433 8.82 258.52 12.04 257.12C15.3067 255.72 19.2967 255.02 24.01 255.02C27.23 255.02 30.4033 255.393 33.53 256.14C36.6567 256.84 39.41 257.89 41.79 259.29L37.52 269.58C32.8533 267.06 28.3267 265.8 23.94 265.8C21.1867 265.8 19.18 266.22 17.92 267.06C16.66 267.853 16.03 268.903 16.03 270.21C16.03 271.517 16.7767 272.497 18.27 273.15C19.7633 273.803 22.1667 274.48 25.48 275.18C29.2133 275.973 32.2933 276.837 34.72 277.77C37.1933 278.657 39.3167 280.103 41.09 282.11C42.91 284.07 43.82 286.753 43.82 290.16C43.82 293.1 43.0033 295.76 41.37 298.14C39.7367 300.52 37.2867 302.433 34.02 303.88C30.7533 305.28 26.7867 305.98 22.12 305.98ZM62.5287 266.99H47.4787V256H91.3687V266.99H76.3887V305H62.5287V266.99ZM129.461 295.48H108.741L104.891 305H90.7513L112.381 256H126.031L147.731 305H133.311L129.461 295.48ZM125.401 285.26L119.101 269.58L112.801 285.26H125.401ZM162.19 266.99H147.14V256H191.03V266.99H176.05V305H162.19V266.99ZM215.837 305.98C211.87 305.98 208.02 305.49 204.287 304.51C200.553 303.53 197.52 302.223 195.187 300.59L199.737 290.37C201.93 291.817 204.473 292.983 207.367 293.87C210.26 294.757 213.107 295.2 215.907 295.2C221.227 295.2 223.887 293.87 223.887 291.21C223.887 289.81 223.117 288.783 221.577 288.13C220.083 287.43 217.657 286.707 214.297 285.96C210.61 285.167 207.53 284.327 205.057 283.44C202.583 282.507 200.46 281.037 198.687 279.03C196.913 277.023 196.027 274.317 196.027 270.91C196.027 267.923 196.843 265.24 198.477 262.86C200.11 260.433 202.537 258.52 205.757 257.12C209.023 255.72 213.013 255.02 217.727 255.02C220.947 255.02 224.12 255.393 227.247 256.14C230.373 256.84 233.127 257.89 235.507 259.29L231.237 269.58C226.57 267.06 222.043 265.8 217.657 265.8C214.903 265.8 212.897 266.22 211.637 267.06C210.377 267.853 209.747 268.903 209.747 270.21C209.747 271.517 210.493 272.497 211.987 273.15C213.48 273.803 215.883 274.48 219.197 275.18C222.93 275.973 226.01 276.837 228.437 277.77C230.91 278.657 233.033 280.103 234.807 282.11C236.627 284.07 237.537 286.753 237.537 290.16C237.537 293.1 236.72 295.76 235.087 298.14C233.453 300.52 231.003 302.433 227.737 303.88C224.47 305.28 220.503 305.98 215.837 305.98ZM246.499 256H260.359V305H246.499V256ZM305.61 279.45H317.86V299.75C315.06 301.757 311.84 303.297 308.2 304.37C304.56 305.443 300.92 305.98 297.28 305.98C292.146 305.98 287.526 304.907 283.42 302.76C279.313 300.567 276.093 297.533 273.76 293.66C271.426 289.787 270.26 285.4 270.26 280.5C270.26 275.6 271.426 271.213 273.76 267.34C276.093 263.467 279.336 260.457 283.49 258.31C287.643 256.117 292.333 255.02 297.56 255.02C302.133 255.02 306.24 255.79 309.88 257.33C313.52 258.87 316.553 261.087 318.98 263.98L310.16 271.96C306.846 268.32 302.88 266.5 298.26 266.5C294.06 266.5 290.676 267.783 288.11 270.35C285.543 272.87 284.26 276.253 284.26 280.5C284.26 283.207 284.843 285.633 286.01 287.78C287.176 289.88 288.81 291.537 290.91 292.75C293.01 293.917 295.413 294.5 298.12 294.5C300.78 294.5 303.276 293.963 305.61 292.89V279.45Z" fill="#194B7D"/>
</svg>
