<svg xmlns="http://www.w3.org/2000/svg" viewBox="0 0 1003.27 653.1"><defs><style>.ab8ad171-ecc9-47ce-a4c6-e2b406c36229,.acc6e641-dc33-4ed6-af66-c631e0b9ab6e,.b02181c9-b3be-4924-a2a1-a4d2efe47276,.ba04f3c0-1611-488c-80d0-14fc7b32f5d2,.bc7b8d35-2a18-4007-8952-5bd2ab5ed380,.ea8c408a-b8fe-46a6-b6bb-cef95554930b,.fac67674-a671-4290-b870-b94830bc6a89{fill:none}.ab8ad171-ecc9-47ce-a4c6-e2b406c36229,.b02181c9-b3be-4924-a2a1-a4d2efe47276,.ba04f3c0-1611-488c-80d0-14fc7b32f5d2,.bc7b8d35-2a18-4007-8952-5bd2ab5ed380,.fac67674-a671-4290-b870-b94830bc6a89{stroke-linejoin:round}.bafd1bae-4446-4a1e-ae1b-1588fbc532bc,.be62aa97-dda2-4d03-ac16-1f7947790748{font-family:Roboto-Regular,Roboto}.e4bb9ec5-aadf-43f7-afb4-00eff5a92786{fill:#fff}.be62aa97-dda2-4d03-ac16-1f7947790748{font-size:15.27px}.ae628b9e-445b-41e1-825e-c12e1216dbfb{fill:#486baf}.bafd1bae-4446-4a1e-ae1b-1588fbc532bc{font-size:13.09px}.e683e7b7-8418-455d-8d95-71427b196b9e{letter-spacing:-.02em}.fb7a4c57-891c-4a94-ba5b-f99324e9d691{letter-spacing:.02em}.ba04f3c0-1611-488c-80d0-14fc7b32f5d2{stroke:#fbb040}.ab8ad171-ecc9-47ce-a4c6-e2b406c36229,.acc6e641-dc33-4ed6-af66-c631e0b9ab6e,.ba04f3c0-1611-488c-80d0-14fc7b32f5d2,.fac67674-a671-4290-b870-b94830bc6a89{stroke-width:2px}.ab8ad171-ecc9-47ce-a4c6-e2b406c36229{stroke:#666}.b32ed865-048a-459d-8a3e-7eefd4e94e7f{fill:#e6e6e6}.b02181c9-b3be-4924-a2a1-a4d2efe47276{stroke:#e905ee;stroke-width:3px}.bb12e357-ae25-468f-8e91-c4156eb9644b{letter-spacing:.01em}.a5f24965-3c9d-4789-95b2-582ab7134036{fill:#757575}.acc6e641-dc33-4ed6-af66-c631e0b9ab6e,.fac67674-a671-4290-b870-b94830bc6a89{stroke:#fff}.acc6e641-dc33-4ed6-af66-c631e0b9ab6e,.bc7b8d35-2a18-4007-8952-5bd2ab5ed380{stroke-linecap:round}.acc6e641-dc33-4ed6-af66-c631e0b9ab6e,.ea8c408a-b8fe-46a6-b6bb-cef95554930b{stroke-miterlimit:10}.b9c0a267-3d84-488e-9576-e509ec181e45{letter-spacing:.01em}.fc62af34-9576-4bcf-9134-391c17462125{letter-spacing:0}.bc7b8d35-2a18-4007-8952-5bd2ab5ed380{stroke:#486baf;stroke-dasharray:6 12;stroke-width:4px}.ea8c408a-b8fe-46a6-b6bb-cef95554930b{stroke-width:4px;stroke:#090}.b85ba0af-2c5e-45f1-9c46-04df29bbcad0{fill:#090}</style></defs><g id="becdb05c-cf8d-4dac-a393-fa4fec57bdd5" data-name="multi-cluster"><rect x=".5" y="13.7" width="1002.27" height="638.9" rx="10" stroke-linejoin="round" stroke="#466bb0" stroke-dasharray="10.02 10.02" fill="none"/><text transform="translate(.48 10.27)" font-family="Roboto-Regular,Roboto" font-size="12">Istio Mesh</text><rect x="434.4" y="536.45" width="134.45" height="82.29" rx="3" fill="#e5e5e4"/><rect class="e4bb9ec5-aadf-43f7-afb4-00eff5a92786" x="444" y="583.82" width="115.24" height="28.81" rx="3"/><text class="be62aa97-dda2-4d03-ac16-1f7947790748" transform="translate(455.96 602.75)">Cont<tspan x="32.06" y="0" letter-spacing="-.02em">r</tspan><tspan x="36.98" y="0">ol Plane</tspan></text><path id="acd81648-78fe-462d-ac8e-29dc5efd8526" data-name="background" class="ae628b9e-445b-41e1-825e-c12e1216dbfb" d="M486.12 536.45h31.02v31.02h-31.02z"/><path id="bccfa974-d80c-41c8-9125-52bf882a155b" data-name="hull" class="e4bb9ec5-aadf-43f7-afb4-00eff5a92786" d="M492.24 562.51h18.77l-11.73 3.52-7.04-3.52z"/><path id="a2e76045-e9c2-472c-a0a6-dc0245846ce7" data-name="mainsail" class="e4bb9ec5-aadf-43f7-afb4-00eff5a92786" d="M492.24 561.34l7.04-1.17v-12.9l-7.04 14.07z"/><path id="ff7e5214-f694-49d7-b78d-1555b5da5071" data-name="headsail" class="e4bb9ec5-aadf-43f7-afb4-00eff5a92786" d="M500.45 560.17l10.56 1.17-10.56-23.45v22.28z"/><text class="bafd1bae-4446-4a1e-ae1b-1588fbc532bc" transform="translate(41.28 87.6)">Cluster: <tspan class="e683e7b7-8418-455d-8d95-71427b196b9e" x="47.71" y="0">W</tspan><tspan x="59.13" y="0">est-No</tspan><tspan class="fb7a4c57-891c-4a94-ba5b-f99324e9d691" x="97.5" y="0">r</tspan><tspan x="102.25" y="0">th</tspan></text><rect class="ba04f3c0-1611-488c-80d0-14fc7b32f5d2" x="41.36" y="90.89" width="270.24" height="358.98" rx="10"/><text class="bafd1bae-4446-4a1e-ae1b-1588fbc532bc" transform="translate(344.54 87.6)">Cluster: <tspan class="e683e7b7-8418-455d-8d95-71427b196b9e" x="47.71" y="0">W</tspan><tspan x="59.13" y="0">est-So</tspan><tspan class="fb7a4c57-891c-4a94-ba5b-f99324e9d691" x="95.93" y="0">r</tspan><tspan x="100.68" y="0">th</tspan></text><rect class="ba04f3c0-1611-488c-80d0-14fc7b32f5d2" x="344.61" y="90.89" width="270.24" height="358.98" rx="10"/><text class="bafd1bae-4446-4a1e-ae1b-1588fbc532bc" transform="translate(690.33 87.6)">Cluster: East-No<tspan class="fb7a4c57-891c-4a94-ba5b-f99324e9d691" x="93.71" y="0">r</tspan><tspan x="98.46" y="0" letter-spacing="0">th</tspan></text><rect class="ba04f3c0-1611-488c-80d0-14fc7b32f5d2" x="690.41" y="90.89" width="270.24" height="358.98" rx="10"/><rect class="ab8ad171-ecc9-47ce-a4c6-e2b406c36229" x="670.36" y="48.47" width="310.36" height="445.96" rx="10"/><text class="bafd1bae-4446-4a1e-ae1b-1588fbc532bc" transform="translate(670.7 45.06)">Network: East</text><rect class="ab8ad171-ecc9-47ce-a4c6-e2b406c36229" x="22.53" y="48.47" width="612.39" height="445.96" rx="10"/><text class="bafd1bae-4446-4a1e-ae1b-1588fbc532bc" transform="translate(22.74 45.06)">Network: <tspan x="55.32" y="0" letter-spacing="-.02em">W</tspan><tspan x="66.73" y="0">est</tspan></text><rect class="b32ed865-048a-459d-8a3e-7eefd4e94e7f" x="371.9" y="134.77" width="215.6" height="78.54" rx="3"/><rect class="e4bb9ec5-aadf-43f7-afb4-00eff5a92786" x="381.33" y="144.59" width="58.91" height="58.91" rx="3"/><path class="b02181c9-b3be-4924-a2a1-a4d2efe47276" d="M425.25 182.38v-16.69l-14.47-8.34-14.46 8.34v16.69l14.46 8.35 14.47-8.35z"/><rect class="e4bb9ec5-aadf-43f7-afb4-00eff5a92786" x="450.05" y="144.59" width="127.63" height="58.91" rx="3"/><text class="be62aa97-dda2-4d03-ac16-1f7947790748" transform="translate(507.26 179.32)">Se<tspan class="bb12e357-ae25-468f-8e91-c4156eb9644b" x="17.15" y="0">r</tspan><tspan x="22.45" y="0">vice A</tspan></text><circle class="a5f24965-3c9d-4789-95b2-582ab7134036" cx="479.5" cy="174.04" r="19.64"/><path class="fac67674-a671-4290-b870-b94830bc6a89" d="M472.53 166.93h13.95v13.95h-13.95z"/><path class="acc6e641-dc33-4ed6-af66-c631e0b9ab6e" d="M475.11 166.93v-3.36M479.5 166.93v-3.36M483.9 166.93v-3.36M475.11 184.5v-3.36M479.5 184.5v-3.36M483.9 184.5v-3.36M472.4 178.43h-3.36M472.4 174.04h-3.36M472.4 169.65h-3.36M489.97 178.43h-3.36M489.97 174.04h-3.36M489.97 169.65h-3.36"/><rect class="e4bb9ec5-aadf-43f7-afb4-00eff5a92786" x="476.4" y="170.81" width="6.2" height="6.2" rx="2"/><rect class="b32ed865-048a-459d-8a3e-7eefd4e94e7f" x="68.64" y="134.77" width="215.6" height="78.54" rx="3"/><rect class="e4bb9ec5-aadf-43f7-afb4-00eff5a92786" x="78.07" y="144.59" width="127.63" height="58.91" rx="3"/><text class="be62aa97-dda2-4d03-ac16-1f7947790748" transform="translate(135.29 179.32)">Se<tspan class="bb12e357-ae25-468f-8e91-c4156eb9644b" x="17.15" y="0">r</tspan><tspan x="22.45" y="0">vice A</tspan></text><circle class="a5f24965-3c9d-4789-95b2-582ab7134036" cx="107.53" cy="174.04" r="19.64"/><path class="fac67674-a671-4290-b870-b94830bc6a89" d="M100.55 166.93h13.95v13.95h-13.95z"/><path class="acc6e641-dc33-4ed6-af66-c631e0b9ab6e" d="M103.14 166.93v-3.36M107.53 166.93v-3.36M111.92 166.93v-3.36M103.14 184.5v-3.36M107.53 184.5v-3.36M111.92 184.5v-3.36M100.42 178.43h-3.36M100.42 174.04h-3.36M100.42 169.65h-3.36M117.99 178.43h-3.36M117.99 174.04h-3.36M117.99 169.65h-3.36"/><rect class="e4bb9ec5-aadf-43f7-afb4-00eff5a92786" x="104.43" y="170.81" width="6.2" height="6.2" rx="2"/><rect class="e4bb9ec5-aadf-43f7-afb4-00eff5a92786" x="215.52" y="144.59" width="58.91" height="58.91" rx="3"/><path class="b02181c9-b3be-4924-a2a1-a4d2efe47276" d="M259.44 182.38v-16.69l-14.47-8.34-14.46 8.34v16.69l14.46 8.35 14.47-8.35z"/><rect class="b32ed865-048a-459d-8a3e-7eefd4e94e7f" x="371.9" y="315.85" width="215.6" height="78.54" rx="3"/><rect class="e4bb9ec5-aadf-43f7-afb4-00eff5a92786" x="381.33" y="325.66" width="58.91" height="58.91" rx="3"/><path class="b02181c9-b3be-4924-a2a1-a4d2efe47276" d="M425.25 363.46v-16.69l-14.47-8.34-14.46 8.34v16.69l14.46 8.35 14.47-8.35z"/><rect class="e4bb9ec5-aadf-43f7-afb4-00eff5a92786" x="450.05" y="325.66" width="127.63" height="58.91" rx="3"/><text class="be62aa97-dda2-4d03-ac16-1f7947790748" transform="translate(507.49 360.4)">Se<tspan class="bb12e357-ae25-468f-8e91-c4156eb9644b" x="17.15" y="0">r</tspan><tspan x="22.45" y="0">vice B</tspan></text><circle class="a5f24965-3c9d-4789-95b2-582ab7134036" cx="479.5" cy="355.12" r="19.64"/><path class="fac67674-a671-4290-b870-b94830bc6a89" d="M472.53 348.01h13.95v13.95h-13.95z"/><path class="acc6e641-dc33-4ed6-af66-c631e0b9ab6e" d="M475.11 348.01v-3.36M479.5 348.01v-3.36M483.9 348.01v-3.36M475.11 365.58v-3.36M479.5 365.58v-3.36M483.9 365.58v-3.36M472.4 359.51h-3.36M472.4 355.12h-3.36M472.4 350.73h-3.36M489.97 359.51h-3.36M489.97 355.12h-3.36M489.97 350.73h-3.36"/><rect class="e4bb9ec5-aadf-43f7-afb4-00eff5a92786" x="476.4" y="351.89" width="6.2" height="6.2" rx="2"/><rect class="b32ed865-048a-459d-8a3e-7eefd4e94e7f" x="717.69" y="134.77" width="215.6" height="78.54" rx="3"/><rect class="e4bb9ec5-aadf-43f7-afb4-00eff5a92786" x="727.12" y="144.59" width="58.91" height="58.91" rx="3"/><path class="b02181c9-b3be-4924-a2a1-a4d2efe47276" d="M771.04 182.38v-16.69l-14.46-8.34-14.47 8.34v16.69l14.47 8.35 14.46-8.35z"/><rect class="e4bb9ec5-aadf-43f7-afb4-00eff5a92786" x="795.85" y="144.59" width="127.63" height="58.91" rx="3"/><text class="be62aa97-dda2-4d03-ac16-1f7947790748" transform="translate(853.06 179.32)">Se<tspan class="b9c0a267-3d84-488e-9576-e509ec181e45" x="17.15" y="0">r</tspan><tspan class="fc62af34-9576-4bcf-9134-391c17462125" x="22.45" y="0">vice A</tspan></text><circle class="a5f24965-3c9d-4789-95b2-582ab7134036" cx="825.3" cy="174.04" r="19.64"/><path class="fac67674-a671-4290-b870-b94830bc6a89" d="M818.32 166.93h13.95v13.95h-13.95z"/><path class="acc6e641-dc33-4ed6-af66-c631e0b9ab6e" d="M820.91 166.93v-3.36M825.3 166.93v-3.36M829.69 166.93v-3.36M820.91 184.5v-3.36M825.3 184.5v-3.36M829.69 184.5v-3.36M818.2 178.43h-3.36M818.2 174.04h-3.36M818.2 169.65h-3.36M835.76 178.43h-3.36M835.76 174.04h-3.36M835.76 169.65h-3.36"/><rect class="e4bb9ec5-aadf-43f7-afb4-00eff5a92786" x="822.2" y="170.81" width="6.2" height="6.2" rx="2"/><rect class="b32ed865-048a-459d-8a3e-7eefd4e94e7f" x="717.69" y="315.85" width="215.6" height="78.54" rx="3"/><rect class="e4bb9ec5-aadf-43f7-afb4-00eff5a92786" x="727.12" y="325.66" width="58.91" height="58.91" rx="3"/><path class="b02181c9-b3be-4924-a2a1-a4d2efe47276" d="M771.04 363.46v-16.69l-14.46-8.34-14.47 8.34v16.69l14.47 8.35 14.46-8.35z"/><rect class="e4bb9ec5-aadf-43f7-afb4-00eff5a92786" x="795.85" y="325.66" width="127.63" height="58.91" rx="3"/><text class="be62aa97-dda2-4d03-ac16-1f7947790748" transform="translate(853.29 360.4)">Se<tspan class="b9c0a267-3d84-488e-9576-e509ec181e45" x="17.15" y="0">r</tspan><tspan class="fc62af34-9576-4bcf-9134-391c17462125" x="22.45" y="0">vice B</tspan></text><circle class="a5f24965-3c9d-4789-95b2-582ab7134036" cx="825.3" cy="355.12" r="19.64"/><path class="fac67674-a671-4290-b870-b94830bc6a89" d="M818.32 348.01h13.95v13.95h-13.95z"/><path class="acc6e641-dc33-4ed6-af66-c631e0b9ab6e" d="M820.91 348.01v-3.36M825.3 348.01v-3.36M829.69 348.01v-3.36M820.91 365.58v-3.36M825.3 365.58v-3.36M829.69 365.58v-3.36M818.2 359.51h-3.36M818.2 355.12h-3.36M818.2 350.73h-3.36M835.76 359.51h-3.36M835.76 355.12h-3.36M835.76 350.73h-3.36"/><rect class="e4bb9ec5-aadf-43f7-afb4-00eff5a92786" x="822.2" y="351.89" width="6.2" height="6.2" rx="2"/><rect class="b32ed865-048a-459d-8a3e-7eefd4e94e7f" x="68.64" y="315.85" width="215.6" height="78.54" rx="3"/><rect class="e4bb9ec5-aadf-43f7-afb4-00eff5a92786" x="78.07" y="325.66" width="127.63" height="58.91" rx="3"/><text class="be62aa97-dda2-4d03-ac16-1f7947790748" transform="translate(135.51 360.4)">Se<tspan class="bb12e357-ae25-468f-8e91-c4156eb9644b" x="17.15" y="0">r</tspan><tspan x="22.45" y="0">vice B</tspan></text><circle class="a5f24965-3c9d-4789-95b2-582ab7134036" cx="107.53" cy="355.12" r="19.64"/><path class="fac67674-a671-4290-b870-b94830bc6a89" d="M100.55 348.01h13.95v13.95h-13.95z"/><path class="acc6e641-dc33-4ed6-af66-c631e0b9ab6e" d="M103.14 348.01v-3.36M107.53 348.01v-3.36M111.92 348.01v-3.36M103.14 365.58v-3.36M107.53 365.58v-3.36M111.92 365.58v-3.36M100.42 359.51h-3.36M100.42 355.12h-3.36M100.42 350.73h-3.36M117.99 359.51h-3.36M117.99 355.12h-3.36M117.99 350.73h-3.36"/><rect class="e4bb9ec5-aadf-43f7-afb4-00eff5a92786" x="104.43" y="351.89" width="6.2" height="6.2" rx="2"/><rect class="e4bb9ec5-aadf-43f7-afb4-00eff5a92786" x="215.52" y="325.66" width="58.91" height="58.91" rx="3"/><path class="b02181c9-b3be-4924-a2a1-a4d2efe47276" d="M259.44 363.46v-16.69l-14.47-8.34-14.46 8.34v16.69l14.46 8.35 14.47-8.35z"/><path class="bc7b8d35-2a18-4007-8952-5bd2ab5ed380" d="M500.32 537.99v-66.54H329.06v-297.8H281.6"/><path class="ae628b9e-445b-41e1-825e-c12e1216dbfb" d="M283.06 168.66l-8.63 4.99 8.63 4.99v-9.98z"/><path class="bc7b8d35-2a18-4007-8952-5bd2ab5ed380" d="M374.24 173.65h-45.18"/><path class="ae628b9e-445b-41e1-825e-c12e1216dbfb" d="M372.78 168.66l8.64 4.99-8.64 4.99v-9.98z"/><path class="bc7b8d35-2a18-4007-8952-5bd2ab5ed380" d="M374.24 354.73h-45.18"/><path class="ae628b9e-445b-41e1-825e-c12e1216dbfb" d="M372.78 349.75l8.64 4.98-8.64 4.99v-9.97z"/><path class="bc7b8d35-2a18-4007-8952-5bd2ab5ed380" d="M281.69 354.73h47.37"/><path class="ae628b9e-445b-41e1-825e-c12e1216dbfb" d="M283.15 359.72l-8.63-4.99 8.63-4.98v9.97z"/><path class="bc7b8d35-2a18-4007-8952-5bd2ab5ed380" d="M500.32 471.45h150.54v-297.8h69.09"/><path class="ae628b9e-445b-41e1-825e-c12e1216dbfb" d="M718.49 178.64l8.63-4.99-8.63-4.99v9.98z"/><path class="bc7b8d35-2a18-4007-8952-5bd2ab5ed380" d="M720.04 354.73h-69.18"/><path class="ae628b9e-445b-41e1-825e-c12e1216dbfb" d="M718.58 349.75l8.63 4.98-8.63 4.99v-9.97z"/><path class="ea8c408a-b8fe-46a6-b6bb-cef95554930b" d="M244.89 318V210.17"/><path class="b85ba0af-2c5e-45f1-9c46-04df29bbcad0" d="M249.87 316.54l-4.98 8.63-4.99-8.63h9.97zM249.87 211.63l-4.98-8.63-4.99 8.63h9.97z"/><path class="ea8c408a-b8fe-46a6-b6bb-cef95554930b" d="M410.69 318V210.17"/><path class="b85ba0af-2c5e-45f1-9c46-04df29bbcad0" d="M415.68 316.54l-4.99 8.63-4.98-8.63h9.97zM415.68 211.63l-4.99-8.63-4.98 8.63h9.97z"/><path class="ea8c408a-b8fe-46a6-b6bb-cef95554930b" d="M756.49 318V210.17"/><path class="b85ba0af-2c5e-45f1-9c46-04df29bbcad0" d="M761.48 316.54l-4.99 8.63-4.99-8.63h9.98zM761.48 211.63l-4.99-8.63-4.99 8.63h9.98z"/></g></svg>