<svg xmlns="http://www.w3.org/2000/svg" xmlns:xlink="http://www.w3.org/1999/xlink" viewBox="0 0 453.7 303.2"><defs><style>.a5ff8ac1-1f65-4f4e-9da4-73fe605ea933,.ae5d3196-8d2c-4b7d-9d29-c8b6a5dc04cd,.ba440cee-2e4c-4e33-a235-86eada01b712,.bfd5fe54-8a9c-4e86-8b3b-a706c358a55d,.eba91621-aef5-4a24-a34d-1588739e52c8{fill:none;}.a3b7b66d-240d-403a-bc0c-baf3f97746aa{fill:#e5e5e4;}.e09a5257-54ab-48fd-aeb9-c842bbb6704e{fill:#fff;}.a1bb58f8-7439-4372-81f1-02a370b4e28b,.b6041c88-715b-4940-90a0-7c58a80976a6,.e5a422db-e10d-4e2e-abed-2b10b01481f8,.ffd12cdf-3dce-4098-a25b-e5b25262a038{isolation:isolate;}.ffd12cdf-3dce-4098-a25b-e5b25262a038{font-size:35.5px;}.a1bb58f8-7439-4372-81f1-02a370b4e28b,.ffd12cdf-3dce-4098-a25b-e5b25262a038{font-family:GoogleSans-Regular, Google Sans;}.af9bb9a1-6b66-4dad-8c3d-69508fa2df21{letter-spacing:0em;}.a569a84f-238e-4cbc-911b-bf39fffa98fb{letter-spacing:-0.01em;}.a88d94ad-ff25-4162-a286-8bde8657d00e{clip-path:url(#f676421b-0835-4b1e-a017-9924634c8eb4);}.a126d060-c03f-4105-bca0-19f4d169e43f{fill:#466bb0;}.a90d0acf-5ada-42fa-bca3-6fbc165e832c{fill:#476baf;}.e5ec935f-76cd-4eed-bc13-1933e9f341b6{fill:#486baf;}.b6041c88-715b-4940-90a0-7c58a80976a6,.e5a422db-e10d-4e2e-abed-2b10b01481f8{font-size:16px;}.b9c31e3a-58a5-449d-bd87-f584111526c3,.e5a422db-e10d-4e2e-abed-2b10b01481f8{fill:#ededed;}.e5a422db-e10d-4e2e-abed-2b10b01481f8{font-family:ArialMT, Arial;}.a1bb58f8-7439-4372-81f1-02a370b4e28b{font-size:14px;}.b234d230-fa0c-4672-b39e-886d2022a8f6{letter-spacing:0.02em;}.a46dc092-1091-4a8b-b501-1e313f99f93c{letter-spacing:0em;}.a23d865e-db71-4e3b-af57-ed8ad8fb5de7{letter-spacing:-0.03em;}.bf067f10-7847-4d23-9418-b8944756f9d2{fill:#767576;}.b9c31e3a-58a5-449d-bd87-f584111526c3,.bfd5fe54-8a9c-4e86-8b3b-a706c358a55d,.eba91621-aef5-4a24-a34d-1588739e52c8{stroke:#fff;}.a5ff8ac1-1f65-4f4e-9da4-73fe605ea933,.bfd5fe54-8a9c-4e86-8b3b-a706c358a55d{stroke-linejoin:round;}.bfd5fe54-8a9c-4e86-8b3b-a706c358a55d,.eba91621-aef5-4a24-a34d-1588739e52c8{stroke-width:2px;}.eba91621-aef5-4a24-a34d-1588739e52c8{stroke-linecap:round;}.ae5d3196-8d2c-4b7d-9d29-c8b6a5dc04cd,.b9c31e3a-58a5-449d-bd87-f584111526c3,.eba91621-aef5-4a24-a34d-1588739e52c8{stroke-miterlimit:10;}.a5ff8ac1-1f65-4f4e-9da4-73fe605ea933{stroke:#b14d9d;}.a5ff8ac1-1f65-4f4e-9da4-73fe605ea933,.ae5d3196-8d2c-4b7d-9d29-c8b6a5dc04cd{stroke-width:3px;}.b6041c88-715b-4940-90a0-7c58a80976a6{fill:#818181;font-family:GoogleSans-Bold, Google Sans;font-weight:700;}.ae5d3196-8d2c-4b7d-9d29-c8b6a5dc04cd{stroke:#486baf;}.fe4032ea-a97d-4812-bb01-fc599a025ead{letter-spacing:-0.06em;}</style><clipPath id="f676421b-0835-4b1e-a017-9924634c8eb4"><rect class="ba440cee-2e4c-4e33-a235-86eada01b712" x="20" y="15.7" width="39.9" height="39.9"/></clipPath></defs><title>overview</title><g id="bd9d74ae-b2c6-4213-84ae-a84227b0a852" data-name="health"><g id="ef4d1901-624d-4f93-8691-af75395f6ee4" data-name="Pilot container"><path class="a3b7b66d-240d-403a-bc0c-baf3f97746aa" d="M327.3,135.2H9.5a3.08,3.08,0,0,1-3-3V3a3,3,0,0,1,3-3H327.3a3,3,0,0,1,3,3V132.2A3,3,0,0,1,327.3,135.2Z"/><path class="e09a5257-54ab-48fd-aeb9-c842bbb6704e" d="M313.6,121.4H22.9a3.08,3.08,0,0,1-3-3V18.6a3,3,0,0,1,3-3H313.6a3,3,0,0,1,3,3v99.8A3,3,0,0,1,313.6,121.4Z"/><text class="ffd12cdf-3dce-4098-a25b-e5b25262a038" transform="translate(58.82 46.42)">Pi<tspan class="af9bb9a1-6b66-4dad-8c3d-69508fa2df21" x="28.47" y="0">l</tspan><tspan class="a569a84f-238e-4cbc-911b-bf39fffa98fb" x="35.78" y="0">o</tspan><tspan x="56.41" y="0">t</tspan></text><g id="be385084-506d-4bc0-8d93-304c81e6d71f" data-name="Istio-logo-blue"><g class="a88d94ad-ff25-4162-a286-8bde8657d00e"><polygon class="a126d060-c03f-4105-bca0-19f4d169e43f" points="30 46.9 49.9 46.9 37.4 50.6 30 46.9"/></g><g class="a88d94ad-ff25-4162-a286-8bde8657d00e"><polygon class="a126d060-c03f-4105-bca0-19f4d169e43f" points="30 45.7 37.4 44.4 37.4 30.7 30 45.7"/></g><g class="a88d94ad-ff25-4162-a286-8bde8657d00e"><polygon class="a90d0acf-5ada-42fa-bca3-6fbc165e832c" points="38.7 44.4 49.9 45.7 38.7 20.7 38.7 44.4"/></g></g></g><path class="e5ec935f-76cd-4eed-bc13-1933e9f341b6" d="M295.6,48.6H174.2a3,3,0,0,1-3-3V25.8a3,3,0,0,1,3-3H295.6a3,3,0,0,1,3,3V45.6A3.08,3.08,0,0,1,295.6,48.6Z"/><text class="e5a422db-e10d-4e2e-abed-2b10b01481f8" transform="translate(175.32 40.38)">Platform adapters</text><path class="e5ec935f-76cd-4eed-bc13-1933e9f341b6" d="M295.6,83.2H174.2a3,3,0,0,1-3-3V60.4a3,3,0,0,1,3-3H295.6a3,3,0,0,1,3,3V80.2A3,3,0,0,1,295.6,83.2Z"/><text class="e5a422db-e10d-4e2e-abed-2b10b01481f8" transform="translate(183.76 75.04)">Abstract model</text><path class="a3b7b66d-240d-403a-bc0c-baf3f97746aa" d="M205.9,302.7H3a3.08,3.08,0,0,1-3-3v-66a3,3,0,0,1,3-3H205.9a3,3,0,0,1,3,3v66A3,3,0,0,1,205.9,302.7Z"/><path class="e09a5257-54ab-48fd-aeb9-c842bbb6704e" d="M192.2,293.7H81.2a3.08,3.08,0,0,1-3-3v-48a3,3,0,0,1,3-3h111a3,3,0,0,1,3,3v48A3,3,0,0,1,192.2,293.7Z"/><text class="a1bb58f8-7439-4372-81f1-02a370b4e28b" transform="translate(129.42 271.53)">Se<tspan class="b234d230-fa0c-4672-b39e-886d2022a8f6" x="15.74" y="0">r</tspan><tspan x="21.22" y="0">v</tspan><tspan class="a46dc092-1091-4a8b-b501-1e313f99f93c" x="28.42" y="0">ic</tspan><tspan x="39.09" y="0">e</tspan><tspan class="a23d865e-db71-4e3b-af57-ed8ad8fb5de7" x="46.97" y="0"> </tspan><tspan x="49.8" y="0">A</tspan></text><circle class="bf067f10-7847-4d23-9418-b8944756f9d2" cx="104.7" cy="266.7" r="18"/><rect class="bfd5fe54-8a9c-4e86-8b3b-a706c358a55d" x="98.3" y="260.2" width="12.8" height="12.8"/><line class="eba91621-aef5-4a24-a34d-1588739e52c8" x1="100.6" y1="260.2" x2="100.6" y2="257.1"/><line class="eba91621-aef5-4a24-a34d-1588739e52c8" x1="104.7" y1="260.2" x2="104.7" y2="257.1"/><line class="eba91621-aef5-4a24-a34d-1588739e52c8" x1="108.7" y1="260.2" x2="108.7" y2="257.1"/><line class="eba91621-aef5-4a24-a34d-1588739e52c8" x1="100.6" y1="276.3" x2="100.6" y2="273.2"/><line class="eba91621-aef5-4a24-a34d-1588739e52c8" x1="104.7" y1="276.3" x2="104.7" y2="273.2"/><line class="eba91621-aef5-4a24-a34d-1588739e52c8" x1="108.7" y1="276.3" x2="108.7" y2="273.2"/><line class="eba91621-aef5-4a24-a34d-1588739e52c8" x1="98.2" y1="270.7" x2="95.1" y2="270.7"/><line class="eba91621-aef5-4a24-a34d-1588739e52c8" x1="98.2" y1="266.7" x2="95.1" y2="266.7"/><line class="eba91621-aef5-4a24-a34d-1588739e52c8" x1="98.2" y1="262.7" x2="95.1" y2="262.7"/><line class="eba91621-aef5-4a24-a34d-1588739e52c8" x1="114.3" y1="270.7" x2="111.2" y2="270.7"/><line class="eba91621-aef5-4a24-a34d-1588739e52c8" x1="114.3" y1="266.7" x2="111.2" y2="266.7"/><line class="eba91621-aef5-4a24-a34d-1588739e52c8" x1="114.3" y1="262.7" x2="111.2" y2="262.7"/><path class="e09a5257-54ab-48fd-aeb9-c842bbb6704e" d="M105.5,269.4h-1.7a2,2,0,0,1-2-2v-1.7a2,2,0,0,1,2-2h1.7a2,2,0,0,1,2,2v1.7A2,2,0,0,1,105.5,269.4Z"/><path class="e09a5257-54ab-48fd-aeb9-c842bbb6704e" d="M63.9,293.7h-48a3,3,0,0,1-3-3v-48a3,3,0,0,1,3-3h48a3,3,0,0,1,3,3v48A3.08,3.08,0,0,1,63.9,293.7Z"/><polygon class="a5ff8ac1-1f65-4f4e-9da4-73fe605ea933" points="53.1 274.3 53.1 259 39.9 251.4 26.6 259 26.6 274.3 39.9 282 53.1 274.3"/><path class="b9c31e3a-58a5-449d-bd87-f584111526c3" d="M450.2,293.7H247.3a3,3,0,0,1-3-3v-66a3,3,0,0,1,3-3H450.2a3,3,0,0,1,3,3v66A3.08,3.08,0,0,1,450.2,293.7Z"/><path class="b9c31e3a-58a5-449d-bd87-f584111526c3" d="M437.6,302.7H234.7a3,3,0,0,1-3-3v-66a3,3,0,0,1,3-3H437.6a3,3,0,0,1,3,3v66A3,3,0,0,1,437.6,302.7Z"/><path class="e09a5257-54ab-48fd-aeb9-c842bbb6704e" d="M423.9,293.7h-111a3,3,0,0,1-3-3v-48a3,3,0,0,1,3-3h111a3,3,0,0,1,3,3v48A3.08,3.08,0,0,1,423.9,293.7Z"/><text class="a1bb58f8-7439-4372-81f1-02a370b4e28b" transform="translate(361.53 271.53)">Se<tspan class="b234d230-fa0c-4672-b39e-886d2022a8f6" x="15.74" y="0">r</tspan><tspan x="21.22" y="0">v</tspan><tspan class="a46dc092-1091-4a8b-b501-1e313f99f93c" x="28.42" y="0">ic</tspan><tspan x="39.09" y="0">e B</tspan></text><circle class="bf067f10-7847-4d23-9418-b8944756f9d2" cx="336.3" cy="266.7" r="18"/><rect class="bfd5fe54-8a9c-4e86-8b3b-a706c358a55d" x="329.9" y="260.2" width="12.8" height="12.8"/><line class="eba91621-aef5-4a24-a34d-1588739e52c8" x1="332.3" y1="260.2" x2="332.3" y2="257.1"/><line class="eba91621-aef5-4a24-a34d-1588739e52c8" x1="336.3" y1="260.2" x2="336.3" y2="257.1"/><line class="eba91621-aef5-4a24-a34d-1588739e52c8" x1="340.4" y1="260.2" x2="340.4" y2="257.1"/><line class="eba91621-aef5-4a24-a34d-1588739e52c8" x1="332.3" y1="276.3" x2="332.3" y2="273.2"/><line class="eba91621-aef5-4a24-a34d-1588739e52c8" x1="336.3" y1="276.3" x2="336.3" y2="273.2"/><line class="eba91621-aef5-4a24-a34d-1588739e52c8" x1="340.4" y1="276.3" x2="340.4" y2="273.2"/><line class="eba91621-aef5-4a24-a34d-1588739e52c8" x1="329.8" y1="270.7" x2="326.7" y2="270.7"/><line class="eba91621-aef5-4a24-a34d-1588739e52c8" x1="329.8" y1="266.7" x2="326.7" y2="266.7"/><line class="eba91621-aef5-4a24-a34d-1588739e52c8" x1="329.8" y1="262.7" x2="326.7" y2="262.7"/><line class="eba91621-aef5-4a24-a34d-1588739e52c8" x1="345.9" y1="270.7" x2="342.8" y2="270.7"/><line class="eba91621-aef5-4a24-a34d-1588739e52c8" x1="345.9" y1="266.7" x2="342.8" y2="266.7"/><line class="eba91621-aef5-4a24-a34d-1588739e52c8" x1="345.9" y1="262.7" x2="342.8" y2="262.7"/><path class="e09a5257-54ab-48fd-aeb9-c842bbb6704e" d="M337.2,269.4h-1.7a2,2,0,0,1-2-2v-1.7a2,2,0,0,1,2-2h1.7a2,2,0,0,1,2,2v1.7A2,2,0,0,1,337.2,269.4Z"/><path class="e09a5257-54ab-48fd-aeb9-c842bbb6704e" d="M295.5,293.7h-48a3.08,3.08,0,0,1-3-3v-48a3,3,0,0,1,3-3h48a3,3,0,0,1,3,3v48A3,3,0,0,1,295.5,293.7Z"/><polygon class="a5ff8ac1-1f65-4f4e-9da4-73fe605ea933" points="284.8 274.3 284.8 259 271.5 251.4 258.3 259 258.3 274.3 271.5 282 284.8 274.3"/><text class="b6041c88-715b-4940-90a0-7c58a80976a6" transform="translate(43.48 221.69)">1</text><text class="b6041c88-715b-4940-90a0-7c58a80976a6" transform="translate(221 151.62)">2</text><text class="b6041c88-715b-4940-90a0-7c58a80976a6" transform="translate(290.14 219.6)">3</text><polyline class="ae5d3196-8d2c-4b7d-9d29-c8b6a5dc04cd" points="166.7 117.9 166.7 198.5 39.9 198.5 39.9 231.7"/><path class="e5ec935f-76cd-4eed-bc13-1933e9f341b6" d="M39.9,230.8c2.4-2.4,7-3.5,10.2-3.6a30.4,30.4,0,0,0-10.2,12.5c-2-5.1-6-9.1-10.2-12.5C33.1,227.5,37.3,228.3,39.9,230.8Z"/><polyline class="ae5d3196-8d2c-4b7d-9d29-c8b6a5dc04cd" points="215.2 125.9 215.2 198.5 258.3 198.5 258.3 239.7"/><path class="e5ec935f-76cd-4eed-bc13-1933e9f341b6" d="M215.2,126.8c2.4,2.4,7,3.5,10.2,3.6a30.4,30.4,0,0,1-10.2-12.5c-2,5.1-6,9.1-10.2,12.5C208.4,130.1,212.6,129.3,215.2,126.8Z"/><polyline class="ae5d3196-8d2c-4b7d-9d29-c8b6a5dc04cd" points="284.8 231.7 284.8 159.1 241.7 159.1 241.7 117.9"/><path class="e5ec935f-76cd-4eed-bc13-1933e9f341b6" d="M284.8,230.8c-2.4-2.4-7-3.5-10.2-3.6a30.4,30.4,0,0,1,10.2,12.5c2-5.1,6-9.1,10.2-12.5C291.6,227.5,287.4,228.3,284.8,230.8Z"/><path class="e5ec935f-76cd-4eed-bc13-1933e9f341b6" d="M305.4,117.9H31.5a3,3,0,0,1-3-3V95.1a3,3,0,0,1,3-3H305.4a3,3,0,0,1,3,3v19.8A3,3,0,0,1,305.4,117.9Z"/><text class="e5a422db-e10d-4e2e-abed-2b10b01481f8" transform="translate(132.8 108.87)">Envoy<tspan class="fe4032ea-a97d-4812-bb01-fc599a025ead" x="44.47" y="0"> </tspan><tspan x="48.03" y="0">API</tspan></text></g></svg>