<?xml version="1.0" encoding="UTF-8" standalone="no"?><!DOCTYPE svg PUBLIC "-//W3C//DTD SVG 1.1//EN" "http://www.w3.org/Graphics/SVG/1.1/DTD/svg11.dtd"><svg width="100%" height="100%" viewBox="0 0 637 184" version="1.1" xmlns="http://www.w3.org/2000/svg" xmlns:xlink="http://www.w3.org/1999/xlink" xml:space="preserve" style="fill-rule:evenodd;clip-rule:evenodd;stroke-linejoin:round;stroke-miterlimit:10;"><path d="M306.156,0c14.278,0 25.853,11.575 25.853,25.854l0,108.198c0,6.857 -2.724,13.433 -7.572,18.281c-4.849,4.849 -11.425,7.573 -18.281,7.573l-103.411,0c-14.279,0 -25.854,-11.576 -25.854,-25.854l0,-108.198c0,-14.279 11.575,-25.854 25.854,-25.854l103.411,0Z" style="fill:#bfbfbf;"/><path d="M301.708,3.333c11.278,0 20.42,9.142 20.42,20.42l0,104.766c0,5.415 -2.151,10.609 -5.981,14.439c-3.829,3.83 -9.023,5.981 -14.439,5.981l-81.679,0c-11.278,0 -20.42,-9.142 -20.42,-20.42l0,-104.766c0,-11.278 9.142,-20.42 20.42,-20.42l81.679,0Z" style="fill:#fff;"/><path d="M301.708,3.333c11.278,0 20.42,9.142 20.42,20.42l0,104.766c0,5.415 -2.151,10.609 -5.981,14.439c-3.829,3.83 -9.023,5.981 -14.439,5.981l-81.679,0c-11.278,0 -20.42,-9.142 -20.42,-20.42l0,-104.766c0,-11.278 9.142,-20.42 20.42,-20.42l81.679,0Z" style="fill:none;stroke:#7f7f7f;stroke-width:1px;"/><path d="M285.601,14.552c11.278,0 20.421,9.143 20.421,20.421l0,97.584c0,5.416 -2.152,10.61 -5.981,14.44c-3.83,3.829 -9.024,5.981 -14.44,5.981l-81.679,0c-11.277,0 -20.42,-9.143 -20.42,-20.421l0,-97.584c0,-11.278 9.143,-20.421 20.42,-20.421l81.679,0Z" style="fill:#fff;"/><path d="M285.601,14.552c11.278,0 20.421,9.143 20.421,20.421l0,97.584c0,5.416 -2.152,10.61 -5.981,14.44c-3.83,3.829 -9.024,5.981 -14.44,5.981l-81.679,0c-11.277,0 -20.42,-9.143 -20.42,-20.421l0,-97.584c0,-11.278 9.143,-20.421 20.42,-20.421l81.679,0Z" style="fill:none;stroke:#7f7f7f;stroke-width:1px;"/><rect x="195.492" y="112.118" width="88.157" height="27.528" style="fill:#d9ead3;"/><path d="M229.553,128.822c0,-0.281 -0.115,-0.49 -0.344,-0.625c-0.219,-0.146 -0.594,-0.276 -1.125,-0.391c-0.521,-0.114 -0.959,-0.255 -1.313,-0.422c-0.771,-0.375 -1.156,-0.911 -1.156,-1.609c0,-0.594 0.25,-1.088 0.75,-1.484c0.5,-0.407 1.135,-0.61 1.906,-0.61c0.823,0 1.485,0.203 1.985,0.61c0.51,0.406 0.765,0.932 0.765,1.578l-1.547,0c0,-0.292 -0.109,-0.537 -0.328,-0.735c-0.218,-0.197 -0.51,-0.296 -0.875,-0.296c-0.343,0 -0.625,0.078 -0.843,0.234c-0.209,0.156 -0.313,0.365 -0.313,0.625c0,0.24 0.099,0.427 0.297,0.562c0.208,0.125 0.614,0.256 1.219,0.391c0.604,0.136 1.078,0.297 1.422,0.484c0.343,0.178 0.598,0.396 0.765,0.657c0.167,0.26 0.25,0.573 0.25,0.937c0,0.625 -0.255,1.13 -0.765,1.516c-0.511,0.375 -1.183,0.562 -2.016,0.562c-0.563,0 -1.063,-0.099 -1.5,-0.297c-0.438,-0.208 -0.781,-0.489 -1.031,-0.843c-0.25,-0.354 -0.375,-0.74 -0.375,-1.157l1.5,0c0.02,0.365 0.156,0.646 0.406,0.844c0.26,0.198 0.599,0.297 1.016,0.297c0.406,0 0.713,-0.073 0.921,-0.219c0.219,-0.156 0.329,-0.359 0.329,-0.609Zm5.456,-0.094l1.454,-4.922l1.593,0l-2.39,6.875l-1.328,0l-2.407,-6.875l1.594,0l1.484,4.922Zm6.984,0.844c0.385,0 0.703,-0.109 0.953,-0.328c0.26,-0.229 0.401,-0.505 0.422,-0.828l1.453,0c-0.021,0.427 -0.157,0.828 -0.407,1.203c-0.25,0.364 -0.588,0.656 -1.015,0.875c-0.427,0.208 -0.891,0.312 -1.391,0.312c-0.958,0 -1.719,-0.307 -2.281,-0.922c-0.563,-0.625 -0.844,-1.489 -0.844,-2.593l0,-0.157c0,-1.041 0.276,-1.875 0.828,-2.5c0.563,-0.635 1.328,-0.953 2.297,-0.953c0.813,0 1.474,0.24 1.985,0.719c0.52,0.479 0.796,1.104 0.828,1.875l-1.453,0c-0.021,-0.396 -0.157,-0.719 -0.407,-0.969c-0.25,-0.25 -0.573,-0.375 -0.968,-0.375c-0.5,0 -0.886,0.183 -1.157,0.547c-0.271,0.354 -0.406,0.901 -0.406,1.641l0,0.25c0,0.739 0.13,1.292 0.391,1.656c0.271,0.365 0.661,0.547 1.172,0.547Zm9.476,-1.047l-3.578,0l-0.75,2.156l-1.672,0l3.5,-9.25l1.438,0l3.5,9.25l-1.672,0l-0.766,-2.156Zm-3.125,-1.297l2.672,0l-1.328,-3.828l-1.344,3.828Z" style="fill-rule:nonzero;"/><rect x="196.281" y="45" width="86.583" height="28.409" style="fill:#cfe2f3;"/><path d="M228.107,59.88l-3.797,0l0,2.843l4.438,0l0,1.282l-6.047,0l0,-9.25l6,0l0,1.297l-4.391,0l0,2.562l3.797,0l0,1.266Zm3.411,-2.75l0.047,0.797c0.51,-0.615 1.177,-0.922 2,-0.922c1.427,0 2.156,0.823 2.188,2.468l0,4.532l-1.547,0l0,-4.453c0,-0.438 -0.094,-0.761 -0.282,-0.969c-0.187,-0.208 -0.494,-0.313 -0.921,-0.313c-0.625,0 -1.089,0.282 -1.391,0.844l0,4.891l-1.547,0l0,-6.875l1.453,0Zm8.413,4.922l1.453,-4.922l1.594,0l-2.391,6.875l-1.328,0l-2.406,-6.875l1.593,0l1.485,4.922Zm3.873,-1.547c0,-0.667 0.131,-1.271 0.391,-1.813c0.271,-0.541 0.646,-0.958 1.125,-1.25c0.49,-0.291 1.047,-0.437 1.672,-0.437c0.927,0 1.677,0.302 2.25,0.906c0.583,0.594 0.896,1.385 0.937,2.375l0.016,0.359c0,0.677 -0.13,1.282 -0.391,1.813c-0.26,0.531 -0.635,0.943 -1.125,1.234c-0.479,0.292 -1.036,0.438 -1.671,0.438c-0.969,0 -1.745,-0.323 -2.329,-0.969c-0.583,-0.646 -0.875,-1.505 -0.875,-2.578l0,-0.078Zm1.547,0.14c0,0.709 0.146,1.261 0.438,1.657c0.291,0.395 0.698,0.593 1.219,0.593c0.52,0 0.921,-0.203 1.203,-0.609c0.291,-0.406 0.437,-1 0.437,-1.781c0,-0.688 -0.151,-1.235 -0.453,-1.641c-0.292,-0.406 -0.693,-0.609 -1.203,-0.609c-0.5,0 -0.901,0.198 -1.203,0.593c-0.292,0.396 -0.438,0.995 -0.438,1.797Zm8.729,1.157l1.406,-4.672l1.641,0l-2.734,7.922c-0.417,1.156 -1.125,1.734 -2.125,1.734c-0.23,0 -0.48,-0.042 -0.75,-0.125l0,-1.188l0.296,0.016c0.386,0 0.678,-0.073 0.875,-0.219c0.198,-0.135 0.355,-0.369 0.469,-0.703l0.219,-0.594l-2.406,-6.843l1.656,0l1.453,4.672Z" style="fill-rule:nonzero;"/><path d="M239.572,73.409l0,38.709" style="fill-opacity:0;"/><path d="M239.572,76.837l0,31.854" style="fill:none;stroke:#4f81bd;stroke-width:1px;"/><path d="M239.572,76.837l1.125,1.124l-1.125,-3.09l-1.124,3.09l1.124,-1.124Z" style="fill:#4f81bd;stroke:#4f81bd;stroke-width:1px;stroke-linejoin:miter;"/><path d="M239.572,108.691l-1.124,-1.125l1.124,3.09l1.125,-3.09l-1.125,1.125Z" style="fill:#4f81bd;stroke:#4f81bd;stroke-width:1px;stroke-linejoin:miter;"/><rect x="184.598" y="13.53" width="48" height="23.528" style="fill-opacity:0;"/><path d="M194.144,25.893l0,3.437l-1.609,0l0,-9.25l3.531,0c1.042,0 1.865,0.271 2.469,0.813c0.604,0.541 0.906,1.255 0.906,2.14c0,0.907 -0.297,1.61 -0.89,2.11c-0.594,0.5 -1.427,0.75 -2.5,0.75l-1.907,0l0,0Zm0,-1.282l1.922,0c0.573,0 1.011,-0.135 1.313,-0.406c0.302,-0.271 0.453,-0.661 0.453,-1.172c0,-0.5 -0.156,-0.896 -0.469,-1.187c-0.302,-0.302 -0.719,-0.459 -1.25,-0.469l-1.969,0l0,3.234Zm6.472,1.219c0,-0.666 0.131,-1.271 0.391,-1.812c0.271,-0.542 0.646,-0.959 1.125,-1.25c0.49,-0.292 1.047,-0.438 1.672,-0.438c0.927,0 1.677,0.302 2.25,0.906c0.583,0.594 0.896,1.386 0.937,2.375l0.016,0.36c0,0.677 -0.13,1.281 -0.391,1.812c-0.26,0.532 -0.635,0.943 -1.125,1.235c-0.479,0.291 -1.036,0.437 -1.672,0.437c-0.968,0 -1.744,-0.323 -2.328,-0.969c-0.583,-0.645 -0.875,-1.505 -0.875,-2.578l0,-0.078l0,0Zm1.547,0.141c0,0.708 0.146,1.26 0.438,1.656c0.291,0.396 0.698,0.594 1.218,0.594c0.521,0 0.922,-0.203 1.204,-0.61c0.291,-0.406 0.437,-1 0.437,-1.781c0,-0.687 -0.151,-1.234 -0.453,-1.64c-0.292,-0.407 -0.693,-0.61 -1.203,-0.61c-0.5,0 -0.901,0.198 -1.203,0.594c-0.292,0.396 -0.438,0.995 -0.438,1.797Zm6.042,-0.125c0,-1.063 0.244,-1.912 0.734,-2.547c0.489,-0.646 1.151,-0.969 1.984,-0.969c0.719,0 1.308,0.255 1.766,0.766l0,-3.516l1.531,0l0,9.75l-1.39,0l-0.079,-0.719c-0.458,0.563 -1.073,0.844 -1.843,0.844c-0.802,0 -1.453,-0.323 -1.953,-0.969c-0.5,-0.645 -0.75,-1.526 -0.75,-2.64Zm1.546,0.125c0,0.708 0.131,1.26 0.391,1.656c0.271,0.385 0.656,0.578 1.156,0.578c0.625,0 1.089,-0.281 1.391,-0.844l0,-2.937c-0.292,-0.552 -0.75,-0.828 -1.375,-0.828c-0.5,0 -0.886,0.198 -1.156,0.594c-0.271,0.395 -0.407,0.989 -0.407,1.781Z" style="fill-rule:nonzero;"/><path d="M107.521,38.913c4.157,0 7.528,3.371 7.528,7.528l0,30.11c0,1.997 -0.794,3.911 -2.205,5.323c-1.412,1.412 -3.327,2.205 -5.323,2.205l-65.449,0c-4.157,0 -7.527,-3.371 -7.527,-7.528l0,-30.11c0,-4.157 3.37,-7.528 7.527,-7.528l65.449,0Z" style="fill:#fff;"/><path d="M107.521,38.913c4.157,0 7.528,3.371 7.528,7.528l0,30.11c0,1.997 -0.794,3.911 -2.205,5.323c-1.412,1.412 -3.327,2.205 -5.323,2.205l-65.449,0c-4.157,0 -7.527,-3.371 -7.527,-7.528l0,-30.11c0,-4.157 3.37,-7.528 7.527,-7.528l65.449,0Z" style="fill:none;stroke:#7f7f7f;stroke-width:1px;"/><path d="M43.524,49.444l59.181,0l0,23.055l-59.181,0l0,-23.055Z" style="fill:#cfe2f3;"/><path d="M61.649,61.646l-3.797,0l0,2.844l4.438,0l0,1.281l-6.047,0l0,-9.25l6,0l0,1.297l-4.391,0l0,2.563l3.797,0l0,1.265Zm3.411,-2.75l0.047,0.797c0.511,-0.615 1.177,-0.922 2,-0.922c1.427,0 2.156,0.823 2.188,2.469l0,4.531l-1.547,0l0,-4.453c0,-0.437 -0.094,-0.76 -0.282,-0.969c-0.187,-0.208 -0.494,-0.312 -0.921,-0.312c-0.625,0 -1.089,0.281 -1.391,0.844l0,4.89l-1.547,0l0,-6.875l1.453,0Zm8.413,4.922l1.453,-4.922l1.594,0l-2.391,6.875l-1.328,0l-2.406,-6.875l1.593,0l1.485,4.922Zm3.873,-1.547c0,-0.667 0.131,-1.271 0.391,-1.812c0.271,-0.542 0.646,-0.959 1.125,-1.25c0.49,-0.292 1.047,-0.438 1.672,-0.438c0.927,0 1.677,0.302 2.25,0.906c0.583,0.594 0.896,1.386 0.937,2.375l0.016,0.36c0,0.677 -0.13,1.281 -0.391,1.812c-0.26,0.532 -0.635,0.943 -1.125,1.235c-0.479,0.291 -1.036,0.437 -1.671,0.437c-0.969,0 -1.745,-0.323 -2.329,-0.969c-0.583,-0.645 -0.875,-1.505 -0.875,-2.578l0,-0.078Zm1.547,0.141c0,0.708 0.146,1.26 0.438,1.656c0.291,0.396 0.698,0.594 1.219,0.594c0.52,0 0.921,-0.203 1.203,-0.61c0.291,-0.406 0.437,-1 0.437,-1.781c0,-0.687 -0.151,-1.234 -0.453,-1.64c-0.292,-0.407 -0.693,-0.61 -1.203,-0.61c-0.5,0 -0.901,0.198 -1.203,0.594c-0.292,0.396 -0.438,0.995 -0.438,1.797Zm8.729,1.156l1.406,-4.672l1.641,0l-2.734,7.922c-0.417,1.156 -1.125,1.734 -2.125,1.734c-0.23,0 -0.48,-0.041 -0.75,-0.125l0,-1.187l0.297,0.016c0.385,0 0.677,-0.073 0.875,-0.219c0.197,-0.136 0.354,-0.37 0.468,-0.703l0.219,-0.594l-2.406,-6.844l1.656,0l1.453,4.672Z" style="fill-rule:nonzero;"/><path d="M24.445,85.798l129.071,0l0,53.071l-129.071,0l0,-53.071Z" style="fill-opacity:0;"/><path d="M34.085,101.598l-1.609,0l0,-9.25l1.609,0l0,9.25Zm3.34,-6.875l0.047,0.797c0.51,-0.615 1.177,-0.922 2,-0.922c1.427,0 2.156,0.823 2.188,2.469l0,4.531l-1.547,0l0,-4.453c0,-0.438 -0.094,-0.761 -0.282,-0.969c-0.187,-0.208 -0.494,-0.312 -0.921,-0.312c-0.625,0 -1.089,0.281 -1.391,0.843l0,4.891l-1.547,0l0,-6.875l1.453,0Zm5.709,3.391c0,-1.063 0.25,-1.912 0.75,-2.547c0.511,-0.646 1.178,-0.969 2,-0.969c0.782,0 1.396,0.276 1.844,0.828l0.078,-0.703l1.391,0l0,6.672c0,0.896 -0.281,1.604 -0.844,2.125c-0.562,0.521 -1.317,0.781 -2.265,0.781c-0.511,0 -1.006,-0.104 -1.485,-0.312c-0.479,-0.209 -0.844,-0.485 -1.094,-0.829l0.735,-0.921c0.479,0.562 1.062,0.843 1.75,0.843c0.51,0 0.911,-0.14 1.203,-0.422c0.302,-0.27 0.453,-0.677 0.453,-1.218l0,-0.453c-0.437,0.489 -1.031,0.734 -1.781,0.734c-0.802,0 -1.458,-0.318 -1.969,-0.953c-0.51,-0.646 -0.766,-1.531 -0.766,-2.656Zm1.547,0.125c0,0.697 0.141,1.244 0.422,1.64c0.281,0.396 0.672,0.594 1.172,0.594c0.615,0 1.073,-0.271 1.375,-0.813l0,-3.015c-0.292,-0.521 -0.75,-0.781 -1.375,-0.781c-0.5,0 -0.891,0.203 -1.172,0.609c-0.281,0.396 -0.422,0.984 -0.422,1.766Zm9.884,-2.094c-0.208,-0.042 -0.417,-0.063 -0.625,-0.063c-0.708,0 -1.187,0.271 -1.437,0.813l0,4.703l-1.547,0l0,-6.875l1.484,0l0.031,0.781c0.375,-0.604 0.891,-0.906 1.547,-0.906c0.219,0 0.401,0.031 0.547,0.094l0,1.453Zm4.108,5.578c-0.979,0 -1.771,-0.307 -2.375,-0.922c-0.604,-0.615 -0.907,-1.432 -0.907,-2.453l0,-0.203c0,-0.677 0.131,-1.287 0.391,-1.828c0.271,-0.542 0.641,-0.964 1.109,-1.266c0.48,-0.302 1.016,-0.453 1.61,-0.453c0.937,0 1.656,0.302 2.156,0.906c0.51,0.594 0.766,1.438 0.766,2.531l0,0.61l-4.485,0c0.052,0.573 0.245,1.026 0.578,1.359c0.334,0.323 0.75,0.485 1.25,0.485c0.709,0 1.282,-0.287 1.719,-0.86l0.844,0.797c-0.281,0.417 -0.651,0.74 -1.109,0.969c-0.459,0.219 -0.974,0.328 -1.547,0.328Zm-0.188,-5.875c-0.416,0 -0.755,0.146 -1.015,0.437c-0.261,0.292 -0.428,0.704 -0.5,1.235l2.937,0l0,-0.11c-0.031,-0.52 -0.172,-0.911 -0.422,-1.171c-0.239,-0.261 -0.573,-0.391 -1,-0.391Zm8.168,3.891c0,-0.282 -0.115,-0.49 -0.344,-0.625c-0.219,-0.146 -0.594,-0.277 -1.125,-0.391c-0.521,-0.115 -0.958,-0.255 -1.312,-0.422c-0.771,-0.375 -1.157,-0.911 -1.157,-1.609c0,-0.594 0.25,-1.089 0.75,-1.485c0.5,-0.406 1.136,-0.609 1.907,-0.609c0.823,0 1.484,0.203 1.984,0.609c0.511,0.407 0.766,0.933 0.766,1.578l-1.547,0c0,-0.291 -0.11,-0.536 -0.328,-0.734c-0.219,-0.198 -0.511,-0.297 -0.875,-0.297c-0.344,0 -0.625,0.078 -0.844,0.235c-0.208,0.156 -0.313,0.364 -0.313,0.625c0,0.239 0.099,0.427 0.297,0.562c0.209,0.125 0.615,0.255 1.219,0.391c0.604,0.135 1.078,0.297 1.422,0.484c0.344,0.177 0.599,0.396 0.766,0.656c0.166,0.261 0.25,0.573 0.25,0.938c0,0.625 -0.256,1.13 -0.766,1.515c-0.51,0.375 -1.182,0.563 -2.016,0.563c-0.562,0 -1.062,-0.099 -1.5,-0.297c-0.437,-0.208 -0.781,-0.49 -1.031,-0.844c-0.25,-0.354 -0.375,-0.739 -0.375,-1.156l1.5,0c0.021,0.365 0.156,0.646 0.406,0.844c0.261,0.198 0.599,0.297 1.016,0.297c0.406,0 0.714,-0.073 0.922,-0.219c0.219,-0.156 0.328,-0.359 0.328,-0.609Zm6.879,0c0,-0.282 -0.115,-0.49 -0.344,-0.625c-0.219,-0.146 -0.594,-0.277 -1.125,-0.391c-0.521,-0.115 -0.958,-0.255 -1.312,-0.422c-0.771,-0.375 -1.157,-0.911 -1.157,-1.609c0,-0.594 0.25,-1.089 0.75,-1.485c0.5,-0.406 1.136,-0.609 1.907,-0.609c0.822,0 1.484,0.203 1.984,0.609c0.51,0.407 0.766,0.933 0.766,1.578l-1.547,0c0,-0.291 -0.11,-0.536 -0.328,-0.734c-0.219,-0.198 -0.511,-0.297 -0.875,-0.297c-0.344,0 -0.625,0.078 -0.844,0.235c-0.209,0.156 -0.313,0.364 -0.313,0.625c0,0.239 0.099,0.427 0.297,0.562c0.209,0.125 0.615,0.255 1.219,0.391c0.604,0.135 1.078,0.297 1.422,0.484c0.344,0.177 0.599,0.396 0.765,0.656c0.167,0.261 0.25,0.573 0.25,0.938c0,0.625 -0.255,1.13 -0.765,1.515c-0.511,0.375 -1.182,0.563 -2.016,0.563c-0.562,0 -1.062,-0.099 -1.5,-0.297c-0.437,-0.208 -0.781,-0.49 -1.031,-0.844c-0.25,-0.354 -0.375,-0.739 -0.375,-1.156l1.5,0c0.021,0.365 0.156,0.646 0.406,0.844c0.261,0.198 0.599,0.297 1.016,0.297c0.406,0 0.713,-0.073 0.922,-0.219c0.218,-0.156 0.328,-0.359 0.328,-0.609Zm11.901,-2.266l-3.797,0l0,2.844l4.437,0l0,1.281l-6.046,0l0,-9.25l6,0l0,1.297l-4.391,0l0,2.562l3.797,0l0,1.266Zm3.411,-2.75l0.047,0.797c0.51,-0.615 1.177,-0.922 2,-0.922c1.427,0 2.156,0.823 2.187,2.469l0,4.531l-1.547,0l0,-4.453c0,-0.438 -0.093,-0.761 -0.281,-0.969c-0.187,-0.208 -0.495,-0.312 -0.922,-0.312c-0.625,0 -1.088,0.281 -1.39,0.843l0,4.891l-1.547,0l0,-6.875l1.453,0Zm8.412,4.922l1.453,-4.922l1.594,0l-2.39,6.875l-1.329,0l-2.406,-6.875l1.594,0l1.484,4.922Zm3.874,-1.547c0,-0.667 0.13,-1.271 0.391,-1.813c0.271,-0.541 0.646,-0.958 1.125,-1.25c0.489,-0.291 1.047,-0.437 1.672,-0.437c0.927,0 1.677,0.302 2.25,0.906c0.583,0.594 0.895,1.386 0.937,2.375l0.016,0.36c0,0.677 -0.13,1.281 -0.391,1.812c-0.26,0.531 -0.635,0.943 -1.125,1.234c-0.479,0.292 -1.036,0.438 -1.672,0.438c-0.969,0 -1.745,-0.323 -2.328,-0.969c-0.583,-0.646 -0.875,-1.505 -0.875,-2.578l0,-0.078Zm1.547,0.141c0,0.708 0.146,1.26 0.437,1.656c0.292,0.396 0.698,0.594 1.219,0.594c0.521,0 0.922,-0.204 1.203,-0.61c0.292,-0.406 0.438,-1 0.438,-1.781c0,-0.688 -0.151,-1.234 -0.453,-1.641c-0.292,-0.406 -0.693,-0.609 -1.203,-0.609c-0.5,0 -0.901,0.198 -1.204,0.594c-0.291,0.395 -0.437,0.994 -0.437,1.797Zm8.729,1.156l1.406,-4.672l1.641,0l-2.735,7.922c-0.416,1.156 -1.125,1.734 -2.125,1.734c-0.229,0 -0.479,-0.042 -0.75,-0.125l0,-1.187l0.297,0.015c0.386,0 0.677,-0.073 0.875,-0.218c0.198,-0.136 0.354,-0.37 0.469,-0.704l0.219,-0.593l-2.407,-6.844l1.657,0l1.453,4.672Z" style="fill-rule:nonzero;"/><path d="M32.257,113.832c0,-0.968 0.131,-1.89 0.391,-2.765c0.26,-0.886 0.646,-1.672 1.156,-2.36c0.511,-0.698 1.047,-1.187 1.61,-1.468l0.312,0.906c-0.594,0.458 -1.078,1.151 -1.453,2.078c-0.375,0.927 -0.578,1.989 -0.609,3.187l0,0.547c0,1.282 0.177,2.427 0.531,3.438c0.364,1 0.875,1.76 1.531,2.281l-0.312,0.859c-0.563,-0.281 -1.099,-0.77 -1.61,-1.468c-0.51,-0.688 -0.896,-1.469 -1.156,-2.344c-0.26,-0.875 -0.391,-1.839 -0.391,-2.891l0,0Zm6.272,3.766l-1.547,0l0,-6.875l1.547,0l0,6.875Zm-1.641,-8.656c0,-0.23 0.073,-0.422 0.219,-0.578c0.156,-0.167 0.37,-0.25 0.641,-0.25c0.281,0 0.5,0.083 0.656,0.25c0.156,0.156 0.234,0.348 0.234,0.578c0,0.239 -0.078,0.437 -0.234,0.593c-0.156,0.146 -0.375,0.219 -0.656,0.219c-0.271,0 -0.485,-0.073 -0.641,-0.219c-0.146,-0.156 -0.219,-0.354 -0.219,-0.593Zm4.826,1.781l0.047,0.797c0.51,-0.615 1.177,-0.922 2,-0.922c1.427,0 2.156,0.823 2.187,2.469l0,4.531l-1.547,0l0,-4.453c0,-0.438 -0.093,-0.761 -0.281,-0.969c-0.187,-0.208 -0.495,-0.312 -0.922,-0.312c-0.625,0 -1.088,0.281 -1.39,0.843l0,4.891l-1.547,0l0,-6.875l1.453,0Zm5.709,3.391c0,-1.063 0.25,-1.912 0.75,-2.547c0.511,-0.646 1.177,-0.969 2,-0.969c0.781,0 1.396,0.276 1.844,0.828l0.078,-0.703l1.391,0l0,6.672c0,0.896 -0.282,1.604 -0.844,2.125c-0.563,0.521 -1.318,0.781 -2.266,0.781c-0.51,0 -1.005,-0.104 -1.484,-0.312c-0.479,-0.209 -0.844,-0.485 -1.094,-0.829l0.735,-0.921c0.479,0.562 1.062,0.843 1.75,0.843c0.51,0 0.911,-0.14 1.203,-0.422c0.302,-0.27 0.453,-0.677 0.453,-1.218l0,-0.453c-0.438,0.489 -1.031,0.734 -1.781,0.734c-0.803,0 -1.459,-0.318 -1.969,-0.953c-0.511,-0.646 -0.766,-1.531 -0.766,-2.656Zm1.547,0.125c0,0.697 0.141,1.244 0.422,1.64c0.281,0.396 0.672,0.594 1.172,0.594c0.614,0 1.073,-0.271 1.375,-0.813l0,-3.015c-0.292,-0.521 -0.75,-0.781 -1.375,-0.781c-0.5,0 -0.891,0.203 -1.172,0.609c-0.281,0.396 -0.422,0.984 -0.422,1.766Zm9.884,-2.094c-0.208,-0.042 -0.417,-0.063 -0.625,-0.063c-0.708,0 -1.188,0.271 -1.438,0.813l0,4.703l-1.547,0l0,-6.875l1.485,0l0.031,0.781c0.375,-0.604 0.891,-0.906 1.547,-0.906c0.219,0 0.401,0.031 0.547,0.094l0,1.453Zm4.107,5.578c-0.979,0 -1.77,-0.307 -2.375,-0.922c-0.604,-0.615 -0.906,-1.432 -0.906,-2.453l0,-0.203c0,-0.677 0.13,-1.287 0.391,-1.828c0.271,-0.542 0.64,-0.964 1.109,-1.266c0.479,-0.302 1.016,-0.453 1.61,-0.453c0.937,0 1.656,0.302 2.156,0.906c0.51,0.594 0.765,1.438 0.765,2.531l0,0.61l-4.484,0c0.052,0.573 0.245,1.026 0.578,1.359c0.333,0.323 0.75,0.485 1.25,0.485c0.708,0 1.281,-0.287 1.719,-0.86l0.844,0.797c-0.282,0.417 -0.651,0.74 -1.11,0.969c-0.458,0.219 -0.974,0.328 -1.547,0.328l0,0Zm-0.187,-5.875c-0.417,0 -0.755,0.146 -1.016,0.437c-0.26,0.292 -0.427,0.704 -0.5,1.235l2.938,0l0,-0.11c-0.031,-0.52 -0.172,-0.911 -0.422,-1.171c-0.24,-0.261 -0.573,-0.391 -1,-0.391Zm8.168,3.891c0,-0.282 -0.115,-0.49 -0.344,-0.625c-0.219,-0.146 -0.594,-0.277 -1.125,-0.391c-0.521,-0.115 -0.958,-0.255 -1.313,-0.422c-0.77,-0.375 -1.156,-0.911 -1.156,-1.609c0,-0.594 0.25,-1.089 0.75,-1.485c0.5,-0.406 1.136,-0.609 1.906,-0.609c0.823,0 1.485,0.203 1.985,0.609c0.51,0.407 0.765,0.933 0.765,1.578l-1.546,0c0,-0.291 -0.11,-0.536 -0.329,-0.734c-0.218,-0.198 -0.51,-0.297 -0.875,-0.297c-0.343,0 -0.625,0.078 -0.843,0.235c-0.209,0.156 -0.313,0.364 -0.313,0.625c0,0.239 0.099,0.427 0.297,0.562c0.208,0.125 0.615,0.255 1.219,0.391c0.604,0.135 1.078,0.297 1.422,0.484c0.343,0.177 0.599,0.396 0.765,0.656c0.167,0.261 0.25,0.573 0.25,0.938c0,0.625 -0.255,1.13 -0.765,1.515c-0.511,0.375 -1.183,0.563 -2.016,0.563c-0.562,0 -1.062,-0.099 -1.5,-0.297c-0.437,-0.208 -0.781,-0.49 -1.031,-0.844c-0.25,-0.354 -0.375,-0.739 -0.375,-1.156l1.5,0c0.021,0.365 0.156,0.646 0.406,0.844c0.26,0.198 0.599,0.297 1.016,0.297c0.406,0 0.713,-0.073 0.922,-0.219c0.218,-0.156 0.328,-0.359 0.328,-0.609Zm6.879,0c0,-0.282 -0.115,-0.49 -0.344,-0.625c-0.219,-0.146 -0.594,-0.277 -1.125,-0.391c-0.521,-0.115 -0.959,-0.255 -1.313,-0.422c-0.771,-0.375 -1.156,-0.911 -1.156,-1.609c0,-0.594 0.25,-1.089 0.75,-1.485c0.5,-0.406 1.135,-0.609 1.906,-0.609c0.823,0 1.485,0.203 1.985,0.609c0.51,0.407 0.765,0.933 0.765,1.578l-1.547,0c0,-0.291 -0.109,-0.536 -0.328,-0.734c-0.218,-0.198 -0.51,-0.297 -0.875,-0.297c-0.343,0 -0.625,0.078 -0.843,0.235c-0.209,0.156 -0.313,0.364 -0.313,0.625c0,0.239 0.099,0.427 0.297,0.562c0.208,0.125 0.614,0.255 1.219,0.391c0.604,0.135 1.078,0.297 1.422,0.484c0.343,0.177 0.598,0.396 0.765,0.656c0.167,0.261 0.25,0.573 0.25,0.938c0,0.625 -0.255,1.13 -0.765,1.515c-0.511,0.375 -1.183,0.563 -2.016,0.563c-0.563,0 -1.063,-0.099 -1.5,-0.297c-0.438,-0.208 -0.781,-0.49 -1.031,-0.844c-0.25,-0.354 -0.375,-0.739 -0.375,-1.156l1.5,0c0.02,0.365 0.156,0.646 0.406,0.844c0.26,0.198 0.599,0.297 1.016,0.297c0.406,0 0.713,-0.073 0.921,-0.219c0.219,-0.156 0.329,-0.359 0.329,-0.609Zm9.166,0.75c0.386,0 0.703,-0.11 0.953,-0.329c0.261,-0.229 0.401,-0.505 0.422,-0.828l1.453,0c-0.021,0.427 -0.156,0.828 -0.406,1.203c-0.25,0.365 -0.589,0.657 -1.016,0.875c-0.427,0.209 -0.89,0.313 -1.39,0.313c-0.959,0 -1.719,-0.307 -2.282,-0.922c-0.562,-0.625 -0.843,-1.49 -0.843,-2.594l0,-0.156c0,-1.042 0.276,-1.875 0.828,-2.5c0.562,-0.635 1.328,-0.953 2.297,-0.953c0.812,0 1.474,0.239 1.984,0.719c0.521,0.479 0.797,1.104 0.828,1.875l-1.453,0c-0.021,-0.396 -0.156,-0.719 -0.406,-0.969c-0.25,-0.25 -0.573,-0.375 -0.969,-0.375c-0.5,0 -0.885,0.182 -1.156,0.547c-0.271,0.354 -0.406,0.901 -0.406,1.64l0,0.25c0,0.74 0.13,1.292 0.39,1.657c0.271,0.364 0.662,0.547 1.172,0.547Zm3.867,-2.391c0,-0.667 0.13,-1.271 0.391,-1.813c0.271,-0.541 0.646,-0.958 1.125,-1.25c0.489,-0.291 1.047,-0.437 1.672,-0.437c0.927,0 1.677,0.302 2.25,0.906c0.583,0.594 0.895,1.386 0.937,2.375l0.016,0.36c0,0.677 -0.13,1.281 -0.391,1.812c-0.26,0.531 -0.635,0.943 -1.125,1.234c-0.479,0.292 -1.036,0.438 -1.672,0.438c-0.968,0 -1.745,-0.323 -2.328,-0.969c-0.583,-0.646 -0.875,-1.505 -0.875,-2.578l0,-0.078Zm1.547,0.141c0,0.708 0.146,1.26 0.438,1.656c0.291,0.396 0.697,0.594 1.218,0.594c0.521,0 0.922,-0.204 1.203,-0.61c0.292,-0.406 0.438,-1 0.438,-1.781c0,-0.688 -0.151,-1.234 -0.453,-1.641c-0.292,-0.406 -0.693,-0.609 -1.203,-0.609c-0.5,0 -0.901,0.198 -1.203,0.594c-0.292,0.395 -0.438,0.994 -0.438,1.797Zm7.76,-3.516l0.047,0.797c0.51,-0.615 1.177,-0.922 2,-0.922c1.427,0 2.156,0.823 2.187,2.469l0,4.531l-1.546,0l0,-4.453c0,-0.438 -0.094,-0.761 -0.282,-0.969c-0.187,-0.208 -0.494,-0.312 -0.922,-0.312c-0.625,0 -1.088,0.281 -1.39,0.843l0,4.891l-1.547,0l0,-6.875l1.453,0Zm7.913,-1.656l0,1.656l1.218,0l0,1.156l-1.218,0l0,3.828c0,0.261 0.052,0.448 0.156,0.563c0.104,0.114 0.291,0.172 0.562,0.172c0.177,0 0.354,-0.021 0.532,-0.063l0,1.203c-0.344,0.094 -0.683,0.141 -1.016,0.141c-1.177,0 -1.766,-0.651 -1.766,-1.953l0,-3.891l-1.14,0l0,-1.156l1.14,0l0,-1.656l1.532,0Zm6.103,3.078c-0.208,-0.042 -0.416,-0.063 -0.625,-0.063c-0.708,0 -1.187,0.271 -1.437,0.813l0,4.703l-1.547,0l0,-6.875l1.484,0l0.032,0.781c0.375,-0.604 0.89,-0.906 1.546,-0.906c0.219,0 0.401,0.031 0.547,0.094l0,1.453Zm0.795,1.953c0,-0.667 0.131,-1.271 0.391,-1.813c0.271,-0.541 0.646,-0.958 1.125,-1.25c0.49,-0.291 1.047,-0.437 1.672,-0.437c0.927,0 1.677,0.302 2.25,0.906c0.583,0.594 0.896,1.386 0.937,2.375l0.016,0.36c0,0.677 -0.13,1.281 -0.391,1.812c-0.26,0.531 -0.635,0.943 -1.125,1.234c-0.479,0.292 -1.036,0.438 -1.672,0.438c-0.968,0 -1.744,-0.323 -2.328,-0.969c-0.583,-0.646 -0.875,-1.505 -0.875,-2.578l0,-0.078Zm1.547,0.141c0,0.708 0.146,1.26 0.438,1.656c0.291,0.396 0.698,0.594 1.218,0.594c0.521,0 0.922,-0.204 1.204,-0.61c0.291,-0.406 0.437,-1 0.437,-1.781c0,-0.688 -0.151,-1.234 -0.453,-1.641c-0.292,-0.406 -0.693,-0.609 -1.203,-0.609c-0.5,0 -0.901,0.198 -1.203,0.594c-0.292,0.395 -0.438,0.994 -0.438,1.797Zm7.979,3.359l-1.547,0l0,-9.75l1.547,0l0,9.75Zm3.404,0l-1.547,0l0,-9.75l1.547,0l0,9.75Zm4.778,0.125c-0.979,0 -1.771,-0.307 -2.375,-0.922c-0.604,-0.615 -0.906,-1.432 -0.906,-2.453l0,-0.203c0,-0.677 0.13,-1.287 0.391,-1.828c0.27,-0.542 0.64,-0.964 1.109,-1.266c0.479,-0.302 1.016,-0.453 1.609,-0.453c0.938,0 1.657,0.302 2.157,0.906c0.51,0.594 0.765,1.438 0.765,2.531l0,0.61l-4.484,0c0.052,0.573 0.245,1.026 0.578,1.359c0.333,0.323 0.75,0.485 1.25,0.485c0.708,0 1.281,-0.287 1.719,-0.86l0.844,0.797c-0.282,0.417 -0.652,0.74 -1.11,0.969c-0.458,0.219 -0.974,0.328 -1.547,0.328Zm-0.187,-5.875c-0.417,0 -0.755,0.146 -1.016,0.437c-0.26,0.292 -0.427,0.704 -0.5,1.235l2.938,0l0,-0.11c-0.032,-0.52 -0.172,-0.911 -0.422,-1.171c-0.24,-0.261 -0.573,-0.391 -1,-0.391Zm7.918,0.297c-0.209,-0.042 -0.417,-0.063 -0.625,-0.063c-0.709,0 -1.188,0.271 -1.438,0.813l0,4.703l-1.547,0l0,-6.875l1.485,0l0.031,0.781c0.375,-0.604 0.89,-0.906 1.547,-0.906c0.218,0 0.401,0.031 0.547,0.094l0,1.453Z" style="fill-rule:nonzero;"/><path d="M33.882,133.598l-1.547,0l0,-6.875l1.547,0l0,6.875Zm-1.64,-8.656c0,-0.23 0.073,-0.422 0.218,-0.578c0.157,-0.167 0.37,-0.25 0.641,-0.25c0.281,0 0.5,0.083 0.656,0.25c0.157,0.156 0.235,0.348 0.235,0.578c0,0.239 -0.078,0.437 -0.235,0.593c-0.156,0.146 -0.375,0.219 -0.656,0.219c-0.271,0 -0.484,-0.073 -0.641,-0.219c-0.145,-0.156 -0.218,-0.354 -0.218,-0.593Zm4.825,1.781l0.047,0.797c0.511,-0.615 1.177,-0.922 2,-0.922c1.427,0 2.156,0.823 2.188,2.469l0,4.531l-1.547,0l0,-4.453c0,-0.438 -0.094,-0.761 -0.282,-0.969c-0.187,-0.208 -0.494,-0.312 -0.921,-0.312c-0.625,0 -1.089,0.281 -1.391,0.843l0,4.891l-1.547,0l0,-6.875l1.453,0Zm12.107,2.875l-1.047,1.125l0,2.875l-1.61,0l0,-9.25l1.61,0l0,4.344l0.89,-1.094l2.704,-3.25l1.937,0l-3.437,4.109l3.64,5.141l-1.906,0l-2.781,-4Zm11.323,-2.813c0,0.459 -0.12,0.865 -0.359,1.219c-0.229,0.354 -0.542,0.63 -0.938,0.828c0.48,0.229 0.849,0.542 1.11,0.938c0.26,0.385 0.39,0.823 0.39,1.312c0,0.813 -0.276,1.459 -0.828,1.938c-0.552,0.469 -1.286,0.703 -2.203,0.703c-0.917,0 -1.651,-0.24 -2.203,-0.719c-0.552,-0.479 -0.828,-1.12 -0.828,-1.922c0,-0.5 0.13,-0.942 0.391,-1.328c0.27,-0.396 0.64,-0.703 1.109,-0.922c-0.396,-0.198 -0.708,-0.474 -0.938,-0.828c-0.229,-0.354 -0.343,-0.76 -0.343,-1.219c0,-0.781 0.25,-1.401 0.75,-1.859c0.51,-0.469 1.198,-0.703 2.062,-0.703c0.865,0 1.552,0.234 2.063,0.703c0.51,0.458 0.765,1.078 0.765,1.859Zm-1.343,4.219c0,-0.458 -0.136,-0.828 -0.407,-1.109c-0.271,-0.281 -0.63,-0.422 -1.078,-0.422c-0.448,0 -0.807,0.141 -1.078,0.422c-0.271,0.281 -0.406,0.651 -0.406,1.109c0,0.448 0.13,0.807 0.39,1.078c0.271,0.271 0.636,0.407 1.094,0.407c0.469,0 0.833,-0.131 1.094,-0.391c0.26,-0.261 0.391,-0.625 0.391,-1.094Zm-0.188,-4.156c0,-0.396 -0.12,-0.724 -0.359,-0.984c-0.23,-0.261 -0.542,-0.391 -0.938,-0.391c-0.396,0 -0.708,0.125 -0.937,0.375c-0.23,0.239 -0.344,0.573 -0.344,1c0,0.427 0.114,0.766 0.344,1.016c0.239,0.25 0.552,0.375 0.937,0.375c0.396,0 0.708,-0.125 0.938,-0.375c0.239,-0.25 0.359,-0.589 0.359,-1.016Zm8.356,4.375c0,-0.406 -0.145,-0.719 -0.437,-0.938c-0.281,-0.229 -0.797,-0.453 -1.547,-0.671c-0.74,-0.23 -1.328,-0.48 -1.766,-0.75c-0.843,-0.532 -1.265,-1.224 -1.265,-2.079c0,-0.739 0.302,-1.349 0.906,-1.828c0.615,-0.489 1.406,-0.734 2.375,-0.734c0.646,0 1.219,0.12 1.719,0.359c0.5,0.24 0.896,0.578 1.187,1.016c0.292,0.437 0.438,0.922 0.438,1.453l-1.61,0c0,-0.479 -0.151,-0.854 -0.453,-1.125c-0.302,-0.281 -0.734,-0.422 -1.297,-0.422c-0.52,0 -0.927,0.115 -1.218,0.344c-0.292,0.219 -0.438,0.531 -0.438,0.937c0,0.344 0.156,0.631 0.469,0.86c0.312,0.219 0.828,0.437 1.547,0.656c0.719,0.208 1.297,0.448 1.734,0.719c0.438,0.271 0.755,0.583 0.953,0.937c0.209,0.354 0.313,0.771 0.313,1.25c0,0.771 -0.297,1.386 -0.891,1.844c-0.583,0.448 -1.38,0.672 -2.39,0.672c-0.678,0 -1.297,-0.12 -1.86,-0.359c-0.552,-0.25 -0.984,-0.594 -1.297,-1.032c-0.312,-0.437 -0.468,-0.948 -0.468,-1.531l1.609,0c0,0.531 0.172,0.943 0.516,1.234c0.343,0.282 0.843,0.422 1.5,0.422c0.552,0 0.968,-0.114 1.25,-0.343c0.281,-0.23 0.421,-0.527 0.421,-0.891Zm6.044,-1.281c0,0.937 -0.13,1.843 -0.39,2.718c-0.261,0.875 -0.652,1.672 -1.172,2.391c-0.521,0.719 -1.068,1.214 -1.641,1.484l-0.312,-0.859c0.635,-0.49 1.135,-1.24 1.5,-2.25c0.375,-1.01 0.562,-2.161 0.562,-3.453l0,-0.141c0,-1.177 -0.161,-2.25 -0.484,-3.218c-0.313,-0.969 -0.771,-1.745 -1.375,-2.329l-0.203,-0.171l0.312,-0.875c0.542,0.27 1.063,0.739 1.563,1.406c0.51,0.666 0.901,1.416 1.171,2.25c0.271,0.823 0.427,1.672 0.469,2.547l0,0.5Z" style="fill-rule:nonzero;"/><path d="M102.705,60.971l93.575,-1.764" style="fill-opacity:0;"/><path d="M102.705,60.971l90.148,-1.699" style="fill:none;stroke:#4f81bd;stroke-width:1px;"/><path d="M192.853,59.272l-1.103,1.146l3.068,-1.183l-3.111,-1.066l1.146,1.103Z" style="fill:#4f81bd;stroke:#4f81bd;stroke-width:1px;stroke-linejoin:miter;"/><path d="M203.303,159.919l72.535,0l0,23.527l-72.535,0l0,-23.527Z" style="fill-opacity:0;"/><path d="M216.068,173.344c0,-0.407 -0.145,-0.719 -0.437,-0.938c-0.281,-0.229 -0.797,-0.453 -1.547,-0.672c-0.739,-0.229 -1.328,-0.479 -1.766,-0.75c-0.843,-0.531 -1.265,-1.224 -1.265,-2.078c0,-0.739 0.302,-1.349 0.906,-1.828c0.615,-0.49 1.406,-0.734 2.375,-0.734c0.646,0 1.219,0.119 1.719,0.359c0.5,0.24 0.896,0.578 1.187,1.016c0.292,0.437 0.438,0.922 0.438,1.453l-1.61,0c0,-0.479 -0.151,-0.854 -0.453,-1.125c-0.302,-0.281 -0.734,-0.422 -1.297,-0.422c-0.52,0 -0.927,0.114 -1.218,0.344c-0.292,0.218 -0.438,0.531 -0.438,0.937c0,0.344 0.156,0.63 0.469,0.86c0.312,0.218 0.828,0.437 1.547,0.656c0.719,0.208 1.297,0.448 1.734,0.719c0.438,0.27 0.755,0.583 0.953,0.937c0.209,0.354 0.313,0.771 0.313,1.25c0,0.771 -0.297,1.385 -0.891,1.844c-0.583,0.448 -1.38,0.672 -2.39,0.672c-0.677,0 -1.297,-0.12 -1.86,-0.36c-0.552,-0.25 -0.984,-0.593 -1.297,-1.031c-0.312,-0.437 -0.468,-0.948 -0.468,-1.531l1.609,0c0,0.531 0.172,0.942 0.516,1.234c0.343,0.281 0.843,0.422 1.5,0.422c0.552,0 0.968,-0.115 1.25,-0.344c0.281,-0.229 0.421,-0.526 0.421,-0.89Zm6.091,2.5c-0.979,0 -1.771,-0.308 -2.375,-0.922c-0.604,-0.615 -0.906,-1.433 -0.906,-2.453l0,-0.203c0,-0.678 0.13,-1.287 0.39,-1.829c0.271,-0.541 0.641,-0.963 1.11,-1.265c0.479,-0.302 1.015,-0.453 1.609,-0.453c0.938,0 1.656,0.302 2.156,0.906c0.511,0.594 0.766,1.437 0.766,2.531l0,0.61l-4.484,0c0.052,0.572 0.245,1.026 0.578,1.359c0.333,0.323 0.75,0.484 1.25,0.484c0.708,0 1.281,-0.286 1.719,-0.859l0.843,0.797c-0.281,0.416 -0.651,0.739 -1.109,0.969c-0.458,0.218 -0.974,0.328 -1.547,0.328Zm-0.187,-5.875c-0.417,0 -0.756,0.145 -1.016,0.437c-0.26,0.292 -0.427,0.703 -0.5,1.235l2.937,0l0,-0.11c-0.031,-0.521 -0.171,-0.911 -0.421,-1.172c-0.24,-0.26 -0.573,-0.39 -1,-0.39Zm7.917,0.297c-0.208,-0.042 -0.416,-0.063 -0.625,-0.063c-0.708,0 -1.187,0.271 -1.437,0.813l0,4.703l-1.547,0l0,-6.875l1.484,0l0.032,0.781c0.375,-0.604 0.89,-0.906 1.547,-0.906c0.218,0 0.401,0.031 0.546,0.093l0,1.454Zm3.514,3.5l1.453,-4.922l1.594,0l-2.391,6.875l-1.328,0l-2.406,-6.875l1.594,0l1.484,4.922Zm5.811,1.953l-1.546,0l0,-6.875l1.546,0l0,6.875Zm-1.64,-8.657c0,-0.229 0.073,-0.421 0.219,-0.578c0.156,-0.166 0.369,-0.25 0.64,-0.25c0.281,0 0.5,0.084 0.656,0.25c0.157,0.157 0.235,0.349 0.235,0.578c0,0.24 -0.078,0.438 -0.235,0.594c-0.156,0.146 -0.375,0.219 -0.656,0.219c-0.271,0 -0.484,-0.073 -0.64,-0.219c-0.146,-0.156 -0.219,-0.354 -0.219,-0.594Zm6.216,7.547c0.385,0 0.703,-0.109 0.953,-0.328c0.26,-0.229 0.401,-0.505 0.422,-0.828l1.453,0c-0.021,0.427 -0.156,0.828 -0.406,1.203c-0.25,0.365 -0.589,0.656 -1.016,0.875c-0.427,0.208 -0.89,0.313 -1.39,0.313c-0.959,0 -1.719,-0.308 -2.282,-0.922c-0.562,-0.625 -0.843,-1.49 -0.843,-2.594l0,-0.156c0,-1.042 0.276,-1.875 0.828,-2.5c0.562,-0.636 1.328,-0.953 2.297,-0.953c0.812,0 1.473,0.239 1.984,0.718c0.521,0.48 0.797,1.105 0.828,1.875l-1.453,0c-0.021,-0.395 -0.156,-0.718 -0.406,-0.968c-0.25,-0.25 -0.573,-0.375 -0.969,-0.375c-0.5,0 -0.886,0.182 -1.156,0.547c-0.271,0.354 -0.407,0.901 -0.407,1.64l0,0.25c0,0.74 0.131,1.292 0.391,1.656c0.271,0.365 0.661,0.547 1.172,0.547Zm7.179,1.235c-0.979,0 -1.77,-0.308 -2.375,-0.922c-0.604,-0.615 -0.906,-1.433 -0.906,-2.453l0,-0.203c0,-0.678 0.13,-1.287 0.391,-1.829c0.271,-0.541 0.64,-0.963 1.109,-1.265c0.479,-0.302 1.016,-0.453 1.61,-0.453c0.937,0 1.656,0.302 2.156,0.906c0.51,0.594 0.765,1.437 0.765,2.531l0,0.61l-4.484,0c0.052,0.572 0.245,1.026 0.578,1.359c0.334,0.323 0.75,0.484 1.25,0.484c0.709,0 1.281,-0.286 1.719,-0.859l0.844,0.797c-0.282,0.416 -0.651,0.739 -1.11,0.969c-0.458,0.218 -0.974,0.328 -1.547,0.328Zm-0.187,-5.875c-0.417,0 -0.755,0.145 -1.016,0.437c-0.26,0.292 -0.427,0.703 -0.5,1.235l2.938,0l0,-0.11c-0.031,-0.521 -0.172,-0.911 -0.422,-1.172c-0.24,-0.26 -0.573,-0.39 -1,-0.39Zm12.956,3.593l-3.579,0l-0.75,2.157l-1.671,0l3.5,-9.25l1.437,0l3.5,9.25l-1.672,0l-0.765,-2.157Zm-3.125,-1.296l2.671,0l-1.328,-3.829l-1.343,3.829Z" style="fill-rule:nonzero;"/><path d="M527.628,3.457c13.168,0 23.843,10.675 23.843,23.843l0,110.235c0,6.324 -2.512,12.389 -6.983,16.86c-4.472,4.471 -10.536,6.983 -16.86,6.983l-95.369,0c-13.168,0 -23.843,-10.674 -23.843,-23.843l0,-110.235c0,-13.168 10.675,-23.843 23.843,-23.843l95.369,0Z" style="fill:#bfbfbf;"/><path d="M509.633,7.635c10.553,0 19.108,8.555 19.108,19.108l0,102.414c0,5.068 -2.013,9.928 -5.596,13.512c-3.584,3.583 -8.444,5.596 -13.512,5.596l-76.429,0c-10.553,0 -19.108,-8.555 -19.108,-19.108l0,-102.414c0,-10.553 8.555,-19.108 19.108,-19.108l76.429,0Z" style="fill:#fff;"/><path d="M509.633,7.635c10.553,0 19.108,8.555 19.108,19.108l0,102.414c0,5.068 -2.013,9.928 -5.596,13.512c-3.584,3.583 -8.444,5.596 -13.512,5.596l-76.429,0c-10.553,0 -19.108,-8.555 -19.108,-19.108l0,-102.414c0,-10.553 8.555,-19.108 19.108,-19.108l76.429,0Z" style="fill:none;stroke:#7f7f7f;stroke-width:1px;"/><path d="M523.331,13.712c11.278,0 20.42,9.142 20.42,20.42l0,95.065c0,5.416 -2.151,10.61 -5.981,14.439c-3.829,3.83 -9.023,5.981 -14.439,5.981l-81.679,0c-11.278,0 -20.42,-9.142 -20.42,-20.42l0,-95.065c0,-11.278 9.142,-20.42 20.42,-20.42l81.679,0Z" style="fill:#fff;"/><path d="M523.331,13.712c11.278,0 20.42,9.142 20.42,20.42l0,95.065c0,5.416 -2.151,10.61 -5.981,14.439c-3.829,3.83 -9.023,5.981 -14.439,5.981l-81.679,0c-11.278,0 -20.42,-9.142 -20.42,-20.42l0,-95.065c0,-11.278 9.142,-20.42 20.42,-20.42l81.679,0Z" style="fill:none;stroke:#7f7f7f;stroke-width:1px;"/><path d="M440.791,111.446l88.158,0l0,27.528l-88.158,0l0,-27.528Z" style="fill:#d9ead3;"/><path d="M475.083,128.151c0,-0.282 -0.115,-0.49 -0.344,-0.625c-0.219,-0.146 -0.594,-0.276 -1.125,-0.391c-0.521,-0.115 -0.959,-0.255 -1.313,-0.422c-0.771,-0.375 -1.156,-0.911 -1.156,-1.609c0,-0.594 0.25,-1.089 0.75,-1.485c0.5,-0.406 1.135,-0.609 1.906,-0.609c0.823,0 1.485,0.203 1.985,0.609c0.51,0.407 0.765,0.933 0.765,1.578l-1.547,0c0,-0.291 -0.109,-0.536 -0.328,-0.734c-0.218,-0.198 -0.51,-0.297 -0.875,-0.297c-0.343,0 -0.625,0.078 -0.843,0.235c-0.209,0.156 -0.313,0.364 -0.313,0.625c0,0.239 0.099,0.427 0.297,0.562c0.208,0.125 0.614,0.255 1.219,0.391c0.604,0.135 1.078,0.297 1.422,0.484c0.343,0.177 0.598,0.396 0.765,0.656c0.167,0.261 0.25,0.573 0.25,0.938c0,0.625 -0.255,1.13 -0.765,1.515c-0.511,0.375 -1.183,0.563 -2.016,0.563c-0.563,0 -1.063,-0.099 -1.5,-0.297c-0.438,-0.208 -0.781,-0.49 -1.031,-0.844c-0.25,-0.354 -0.375,-0.739 -0.375,-1.156l1.5,0c0.02,0.365 0.156,0.646 0.406,0.844c0.26,0.198 0.599,0.297 1.016,0.297c0.406,0 0.713,-0.073 0.921,-0.219c0.219,-0.156 0.329,-0.359 0.329,-0.609Zm5.456,-0.094l1.454,-4.922l1.593,0l-2.39,6.875l-1.328,0l-2.407,-6.875l1.594,0l1.484,4.922Zm6.984,0.844c0.385,0 0.703,-0.11 0.953,-0.329c0.26,-0.229 0.401,-0.505 0.422,-0.828l1.453,0c-0.021,0.427 -0.157,0.828 -0.407,1.203c-0.25,0.365 -0.588,0.657 -1.015,0.875c-0.427,0.209 -0.891,0.313 -1.391,0.313c-0.958,0 -1.719,-0.307 -2.281,-0.922c-0.563,-0.625 -0.844,-1.49 -0.844,-2.594l0,-0.156c0,-1.042 0.276,-1.875 0.828,-2.5c0.563,-0.635 1.328,-0.953 2.297,-0.953c0.813,0 1.474,0.24 1.985,0.719c0.52,0.479 0.796,1.104 0.828,1.875l-1.453,0c-0.021,-0.396 -0.157,-0.719 -0.407,-0.969c-0.25,-0.25 -0.573,-0.375 -0.968,-0.375c-0.5,0 -0.886,0.182 -1.157,0.547c-0.271,0.354 -0.406,0.901 -0.406,1.64l0,0.25c0,0.74 0.13,1.292 0.391,1.657c0.271,0.364 0.661,0.547 1.172,0.547Zm4.304,1.109l0,-9.25l3.172,0c1.042,0 1.833,0.213 2.375,0.641c0.552,0.416 0.828,1.041 0.828,1.875c0,0.416 -0.114,0.796 -0.344,1.14c-0.229,0.334 -0.562,0.594 -1,0.781c0.5,0.136 0.886,0.391 1.157,0.766c0.27,0.375 0.406,0.823 0.406,1.344c0,0.875 -0.281,1.547 -0.844,2.015c-0.552,0.459 -1.344,0.688 -2.375,0.688l-3.375,0Zm1.61,-4.172l0,2.891l1.781,0c0.5,0 0.89,-0.125 1.172,-0.375c0.291,-0.25 0.437,-0.599 0.437,-1.047c0,-0.959 -0.489,-1.448 -1.469,-1.469l-1.921,0Zm0,-1.172l1.578,0c0.5,0 0.89,-0.114 1.172,-0.344c0.281,-0.229 0.421,-0.552 0.421,-0.968c0,-0.459 -0.13,-0.787 -0.39,-0.985c-0.261,-0.208 -0.667,-0.312 -1.219,-0.312l-1.562,0l0,2.609Z" style="fill-rule:nonzero;"/><path d="M440.609,44.327l86.583,0l0,28.409l-86.583,0l0,-28.409Z" style="fill:#cfe2f3;"/><path d="M472.436,59.207l-3.797,0l0,2.843l4.437,0l0,1.282l-6.047,0l0,-9.25l6,0l0,1.296l-4.39,0l0,2.563l3.797,0l0,1.266Zm3.411,-2.75l0.047,0.796c0.51,-0.614 1.177,-0.921 2,-0.921c1.427,0 2.156,0.823 2.187,2.468l0,4.532l-1.547,0l0,-4.454c0,-0.437 -0.093,-0.76 -0.281,-0.968c-0.187,-0.209 -0.495,-0.313 -0.922,-0.313c-0.625,0 -1.088,0.281 -1.39,0.844l0,4.891l-1.547,0l0,-6.875l1.453,0Zm8.412,4.921l1.453,-4.921l1.594,0l-2.39,6.875l-1.329,0l-2.406,-6.875l1.594,0l1.484,4.921Zm3.874,-1.546c0,-0.667 0.13,-1.271 0.391,-1.813c0.27,-0.542 0.645,-0.958 1.125,-1.25c0.489,-0.292 1.046,-0.437 1.671,-0.437c0.928,0 1.678,0.302 2.25,0.906c0.584,0.594 0.896,1.385 0.938,2.375l0.016,0.359c0,0.677 -0.131,1.281 -0.391,1.813c-0.26,0.531 -0.635,0.942 -1.125,1.234c-0.479,0.292 -1.036,0.438 -1.672,0.438c-0.969,0 -1.745,-0.323 -2.328,-0.969c-0.583,-0.646 -0.875,-1.505 -0.875,-2.578l0,-0.078Zm1.547,0.14c0,0.709 0.146,1.261 0.437,1.656c0.292,0.396 0.698,0.594 1.219,0.594c0.521,0 0.922,-0.203 1.203,-0.609c0.292,-0.406 0.438,-1 0.438,-1.781c0,-0.688 -0.151,-1.235 -0.453,-1.641c-0.292,-0.406 -0.693,-0.609 -1.204,-0.609c-0.5,0 -0.901,0.198 -1.203,0.593c-0.291,0.396 -0.437,0.995 -0.437,1.797Zm8.729,1.156l1.406,-4.671l1.641,0l-2.735,7.921c-0.416,1.157 -1.125,1.735 -2.125,1.735c-0.229,0 -0.479,-0.042 -0.75,-0.125l0,-1.188l0.297,0.016c0.385,0 0.677,-0.073 0.875,-0.219c0.198,-0.135 0.354,-0.37 0.469,-0.703l0.219,-0.594l-2.407,-6.843l1.657,0l1.453,4.671Z" style="fill-rule:nonzero;"/><path d="M483.901,72.736l0.598,36.221" style="fill-opacity:0;"/><path d="M483.957,76.163l0.486,29.367" style="fill:none;stroke:#4f81bd;stroke-width:1px;"/><path d="M483.957,76.163l1.143,1.106l-1.175,-3.071l-1.074,3.108l1.106,-1.143Z" style="fill:#4f81bd;stroke:#4f81bd;stroke-width:1px;stroke-linejoin:miter;"/><path d="M484.443,105.53l-1.143,-1.106l1.175,3.071l1.073,-3.108l-1.105,1.143Z" style="fill:#4f81bd;stroke:#4f81bd;stroke-width:1px;stroke-linejoin:miter;"/><path d="M282.863,59.205l157.733,-0.662" style="fill-opacity:0;"/><path d="M282.863,59.205l154.306,-0.647" style="fill:none;stroke:#4f81bd;stroke-width:1px;"/><path d="M437.169,58.558l-1.12,1.129l3.085,-1.138l-3.095,-1.111l1.13,1.12Z" style="fill:#4f81bd;stroke:#4f81bd;stroke-width:1px;stroke-linejoin:miter;"/><path d="M446.224,158.697l72.536,0l0,23.528l-72.536,0l0,-23.528Z" style="fill-opacity:0;"/><path d="M458.99,172.122c0,-0.406 -0.146,-0.718 -0.438,-0.937c-0.281,-0.229 -0.797,-0.453 -1.547,-0.672c-0.739,-0.229 -1.328,-0.479 -1.765,-0.75c-0.844,-0.531 -1.266,-1.224 -1.266,-2.078c0,-0.74 0.302,-1.349 0.906,-1.828c0.615,-0.49 1.407,-0.735 2.375,-0.735c0.646,0 1.219,0.12 1.719,0.36c0.5,0.239 0.896,0.578 1.188,1.015c0.291,0.438 0.437,0.922 0.437,1.453l-1.609,0c0,-0.479 -0.151,-0.854 -0.453,-1.125c-0.302,-0.281 -0.735,-0.421 -1.297,-0.421c-0.521,0 -0.927,0.114 -1.219,0.343c-0.292,0.219 -0.437,0.532 -0.437,0.938c0,0.344 0.156,0.63 0.468,0.859c0.313,0.219 0.828,0.438 1.547,0.656c0.719,0.209 1.297,0.448 1.735,0.719c0.437,0.271 0.755,0.583 0.953,0.938c0.208,0.354 0.312,0.77 0.312,1.25c0,0.77 -0.297,1.385 -0.89,1.843c-0.584,0.448 -1.381,0.672 -2.391,0.672c-0.677,0 -1.297,-0.12 -1.859,-0.359c-0.552,-0.25 -0.985,-0.594 -1.297,-1.031c-0.313,-0.438 -0.469,-0.948 -0.469,-1.532l1.609,0c0,0.532 0.172,0.943 0.516,1.235c0.344,0.281 0.844,0.422 1.5,0.422c0.552,0 0.969,-0.115 1.25,-0.344c0.281,-0.229 0.422,-0.526 0.422,-0.891Zm6.09,2.5c-0.979,0 -1.77,-0.307 -2.375,-0.922c-0.604,-0.614 -0.906,-1.432 -0.906,-2.453l0,-0.203c0,-0.677 0.13,-1.286 0.391,-1.828c0.271,-0.542 0.64,-0.964 1.109,-1.266c0.479,-0.302 1.016,-0.453 1.61,-0.453c0.937,0 1.656,0.302 2.156,0.907c0.51,0.593 0.765,1.437 0.765,2.531l0,0.609l-4.484,0c0.052,0.573 0.245,1.026 0.578,1.36c0.334,0.322 0.75,0.484 1.25,0.484c0.709,0 1.281,-0.287 1.719,-0.859l0.844,0.796c-0.282,0.417 -0.651,0.74 -1.11,0.969c-0.458,0.219 -0.974,0.328 -1.547,0.328Zm-0.187,-5.875c-0.417,0 -0.755,0.146 -1.016,0.438c-0.26,0.291 -0.427,0.703 -0.5,1.234l2.938,0l0,-0.109c-0.031,-0.521 -0.172,-0.912 -0.422,-1.172c-0.24,-0.261 -0.573,-0.391 -1,-0.391Zm7.918,0.297c-0.209,-0.042 -0.417,-0.062 -0.625,-0.062c-0.709,0 -1.188,0.27 -1.438,0.812l0,4.703l-1.547,0l0,-6.875l1.485,0l0.031,0.782c0.375,-0.605 0.891,-0.907 1.547,-0.907c0.219,0 0.401,0.032 0.547,0.094l0,1.453Zm3.514,3.5l1.453,-4.922l1.593,0l-2.39,6.875l-1.328,0l-2.407,-6.875l1.594,0l1.485,4.922Zm5.811,1.953l-1.547,0l0,-6.875l1.547,0l0,6.875Zm-1.641,-8.656c0,-0.229 0.073,-0.422 0.219,-0.578c0.156,-0.167 0.37,-0.25 0.641,-0.25c0.281,0 0.5,0.083 0.656,0.25c0.156,0.156 0.234,0.349 0.234,0.578c0,0.24 -0.078,0.438 -0.234,0.594c-0.156,0.146 -0.375,0.219 -0.656,0.219c-0.271,0 -0.485,-0.073 -0.641,-0.219c-0.146,-0.156 -0.219,-0.354 -0.219,-0.594Zm6.216,7.547c0.386,0 0.703,-0.109 0.953,-0.328c0.261,-0.229 0.401,-0.505 0.422,-0.828l1.453,0c-0.02,0.427 -0.156,0.828 -0.406,1.203c-0.25,0.364 -0.588,0.656 -1.015,0.875c-0.428,0.208 -0.891,0.312 -1.391,0.312c-0.958,0 -1.719,-0.307 -2.281,-0.922c-0.563,-0.625 -0.844,-1.489 -0.844,-2.593l0,-0.157c0,-1.041 0.276,-1.875 0.828,-2.5c0.563,-0.635 1.328,-0.953 2.297,-0.953c0.812,0 1.474,0.24 1.984,0.719c0.521,0.479 0.797,1.104 0.828,1.875l-1.453,0c-0.021,-0.396 -0.156,-0.719 -0.406,-0.969c-0.25,-0.25 -0.573,-0.375 -0.969,-0.375c-0.5,0 -0.885,0.183 -1.156,0.547c-0.271,0.354 -0.406,0.901 -0.406,1.641l0,0.25c0,0.739 0.13,1.291 0.39,1.656c0.271,0.365 0.662,0.547 1.172,0.547Zm7.18,1.234c-0.979,0 -1.771,-0.307 -2.375,-0.922c-0.604,-0.614 -0.906,-1.432 -0.906,-2.453l0,-0.203c0,-0.677 0.13,-1.286 0.39,-1.828c0.271,-0.542 0.641,-0.964 1.11,-1.266c0.479,-0.302 1.015,-0.453 1.609,-0.453c0.937,0 1.656,0.302 2.156,0.907c0.511,0.593 0.766,1.437 0.766,2.531l0,0.609l-4.485,0c0.053,0.573 0.245,1.026 0.579,1.36c0.333,0.322 0.75,0.484 1.25,0.484c0.708,0 1.281,-0.287 1.718,-0.859l0.844,0.796c-0.281,0.417 -0.651,0.74 -1.109,0.969c-0.459,0.219 -0.974,0.328 -1.547,0.328Zm-0.188,-5.875c-0.416,0 -0.755,0.146 -1.015,0.438c-0.261,0.291 -0.427,0.703 -0.5,1.234l2.937,0l0,-0.109c-0.031,-0.521 -0.172,-0.912 -0.422,-1.172c-0.239,-0.261 -0.573,-0.391 -1,-0.391Zm7.784,5.75l0,-9.25l3.172,0c1.042,0 1.833,0.214 2.375,0.641c0.552,0.417 0.828,1.042 0.828,1.875c0,0.417 -0.115,0.797 -0.344,1.141c-0.229,0.333 -0.562,0.593 -1,0.781c0.5,0.135 0.886,0.39 1.157,0.765c0.27,0.375 0.406,0.823 0.406,1.344c0,0.875 -0.281,1.547 -0.844,2.016c-0.552,0.458 -1.344,0.687 -2.375,0.687l-3.375,0Zm1.609,-4.172l0,2.891l1.782,0c0.5,0 0.89,-0.125 1.172,-0.375c0.291,-0.25 0.437,-0.599 0.437,-1.047c0,-0.958 -0.49,-1.448 -1.469,-1.469l-1.922,0Zm0,-1.171l1.579,0c0.5,0 0.89,-0.115 1.171,-0.344c0.282,-0.229 0.422,-0.552 0.422,-0.969c0,-0.458 -0.13,-0.786 -0.39,-0.984c-0.261,-0.209 -0.667,-0.313 -1.219,-0.313l-1.563,0l0,2.61Z" style="fill-rule:nonzero;"/><path d="M43.524,60.971l-43.024,1.102" style="fill-opacity:0;"/><path d="M40.098,61.059l-39.598,1.014" style="fill:none;stroke:#4f81bd;stroke-width:1px;"/><path d="M40.098,61.059l-1.096,1.153l3.06,-1.203l-3.117,-1.046l1.153,1.096Z" style="fill:#4f81bd;stroke:#4f81bd;stroke-width:1px;stroke-linejoin:miter;"/><path d="M581.334,57.209l-54.142,1.323" style="fill-opacity:0;"/><path d="M577.908,57.677l-50.716,0.855" style="fill:none;stroke:#4f81bd;stroke-width:0.86px;"/><path d="M577.908,57.292l-1.097,1.152l3.061,-1.2l-3.116,-1.048l1.152,1.096Z" style="fill:#4f81bd;stroke:#4f81bd;stroke-width:1px;stroke-linejoin:miter;"/><path d="M593.135,53.72l-3.797,0l0,2.844l4.437,0l0,1.281l-6.047,0l0,-9.25l6,0l0,1.297l-4.39,0l0,2.563l3.797,0l0,1.265Zm4.442,-0.484l1.313,-2.266l1.718,0l-2.109,3.391l2.172,3.484l-1.703,0l-1.36,-2.344l-1.375,2.344l-1.703,0l2.172,-3.484l-2.109,-3.391l1.703,0l1.281,2.266Zm6.172,-3.922l0,1.656l1.219,0l0,1.156l-1.219,0l0,3.829c0,0.26 0.052,0.447 0.156,0.562c0.104,0.115 0.292,0.172 0.563,0.172c0.177,0 0.354,-0.021 0.531,-0.063l0,1.204c-0.344,0.093 -0.682,0.14 -1.016,0.14c-1.177,0 -1.765,-0.651 -1.765,-1.953l0,-3.891l-1.141,0l0,-1.156l1.141,0l0,-1.656l1.531,0Zm5.526,8.656c-0.98,0 -1.771,-0.307 -2.375,-0.922c-0.605,-0.614 -0.907,-1.432 -0.907,-2.453l0,-0.203c0,-0.677 0.131,-1.286 0.391,-1.828c0.271,-0.542 0.641,-0.964 1.109,-1.266c0.479,-0.302 1.016,-0.453 1.61,-0.453c0.937,0 1.656,0.302 2.156,0.906c0.51,0.594 0.766,1.438 0.766,2.532l0,0.609l-4.485,0c0.052,0.573 0.245,1.026 0.578,1.359c0.334,0.323 0.75,0.485 1.25,0.485c0.709,0 1.282,-0.287 1.719,-0.86l0.844,0.797c-0.281,0.417 -0.651,0.74 -1.11,0.969c-0.458,0.219 -0.974,0.328 -1.546,0.328Zm-0.188,-5.875c-0.417,0 -0.755,0.146 -1.016,0.438c-0.26,0.291 -0.427,0.703 -0.5,1.234l2.938,0l0,-0.109c-0.031,-0.521 -0.172,-0.912 -0.422,-1.172c-0.24,-0.261 -0.573,-0.391 -1,-0.391Zm7.918,0.297c-0.208,-0.042 -0.417,-0.062 -0.625,-0.062c-0.708,0 -1.188,0.27 -1.438,0.812l0,4.703l-1.547,0l0,-6.875l1.485,0l0.031,0.781c0.375,-0.604 0.891,-0.906 1.547,-0.906c0.219,0 0.401,0.031 0.547,0.094l0,1.453Zm2.514,-1.422l0.047,0.797c0.51,-0.615 1.177,-0.922 2,-0.922c1.427,0 2.156,0.823 2.187,2.469l0,4.531l-1.547,0l0,-4.453c0,-0.437 -0.094,-0.76 -0.281,-0.969c-0.188,-0.208 -0.495,-0.312 -0.922,-0.312c-0.625,0 -1.089,0.281 -1.391,0.844l0,4.89l-1.546,0l0,-6.875l1.453,0Zm10.084,6.875c-0.062,-0.135 -0.12,-0.349 -0.172,-0.64c-0.489,0.51 -1.094,0.765 -1.812,0.765c-0.688,0 -1.25,-0.193 -1.688,-0.578c-0.427,-0.396 -0.64,-0.885 -0.64,-1.469c0,-0.729 0.27,-1.291 0.812,-1.687c0.542,-0.396 1.318,-0.594 2.328,-0.594l0.953,0l0,-0.437c0,-0.365 -0.104,-0.652 -0.312,-0.86c-0.198,-0.219 -0.5,-0.328 -0.906,-0.328c-0.344,0 -0.631,0.089 -0.86,0.266c-0.219,0.177 -0.328,0.401 -0.328,0.672l-1.547,0c0,-0.375 0.125,-0.724 0.375,-1.047c0.25,-0.334 0.589,-0.594 1.016,-0.782c0.427,-0.187 0.906,-0.281 1.437,-0.281c0.802,0 1.443,0.203 1.922,0.61c0.479,0.406 0.724,0.973 0.735,1.703l0,3.093c0,0.625 0.088,1.12 0.265,1.485l0,0.109l-1.578,0Zm-1.687,-1.109c0.302,0 0.588,-0.073 0.859,-0.219c0.271,-0.156 0.474,-0.359 0.609,-0.609l0,-1.282l-0.843,0c-0.563,0 -0.99,0.099 -1.282,0.297c-0.291,0.198 -0.437,0.479 -0.437,0.844c0,0.292 0.099,0.526 0.297,0.703c0.198,0.177 0.463,0.266 0.797,0.266Zm6.445,1.109l-1.547,0l0,-9.75l1.547,0l0,9.75Z" style="fill-rule:nonzero;"/><path d="M592.557,71.47c0,-0.406 -0.146,-0.719 -0.438,-0.937c-0.281,-0.23 -0.797,-0.453 -1.547,-0.672c-0.739,-0.229 -1.328,-0.479 -1.765,-0.75c-0.844,-0.531 -1.266,-1.224 -1.266,-2.078c0,-0.74 0.302,-1.349 0.906,-1.828c0.615,-0.49 1.406,-0.735 2.375,-0.735c0.646,0 1.219,0.12 1.719,0.36c0.5,0.239 0.896,0.578 1.187,1.015c0.292,0.438 0.438,0.922 0.438,1.453l-1.609,0c0,-0.479 -0.151,-0.854 -0.454,-1.125c-0.302,-0.281 -0.734,-0.422 -1.296,-0.422c-0.521,0 -0.927,0.115 -1.219,0.344c-0.292,0.219 -0.438,0.531 -0.438,0.938c0,0.343 0.157,0.63 0.469,0.859c0.313,0.219 0.828,0.438 1.547,0.656c0.719,0.209 1.297,0.448 1.734,0.719c0.438,0.271 0.756,0.583 0.953,0.938c0.209,0.354 0.313,0.77 0.313,1.25c0,0.77 -0.297,1.385 -0.891,1.843c-0.583,0.448 -1.38,0.672 -2.39,0.672c-0.677,0 -1.297,-0.12 -1.86,-0.359c-0.552,-0.25 -0.984,-0.594 -1.297,-1.031c-0.312,-0.438 -0.468,-0.948 -0.468,-1.532l1.609,0c0,0.532 0.172,0.943 0.516,1.235c0.343,0.281 0.843,0.422 1.5,0.422c0.552,0 0.968,-0.115 1.25,-0.344c0.281,-0.229 0.422,-0.526 0.422,-0.891Zm6.09,2.5c-0.979,0 -1.771,-0.307 -2.375,-0.922c-0.604,-0.614 -0.906,-1.432 -0.906,-2.453l0,-0.203c0,-0.677 0.13,-1.286 0.391,-1.828c0.27,-0.542 0.64,-0.964 1.109,-1.266c0.479,-0.302 1.016,-0.453 1.609,-0.453c0.938,0 1.657,0.302 2.157,0.906c0.51,0.594 0.765,1.438 0.765,2.532l0,0.609l-4.484,0c0.052,0.573 0.245,1.026 0.578,1.359c0.333,0.323 0.75,0.485 1.25,0.485c0.708,0 1.281,-0.287 1.719,-0.86l0.844,0.797c-0.282,0.417 -0.652,0.74 -1.11,0.969c-0.458,0.219 -0.974,0.328 -1.547,0.328Zm-0.187,-5.875c-0.417,0 -0.755,0.146 -1.016,0.438c-0.26,0.291 -0.427,0.703 -0.5,1.234l2.938,0l0,-0.109c-0.032,-0.521 -0.172,-0.912 -0.422,-1.172c-0.24,-0.261 -0.573,-0.391 -1,-0.391Zm7.918,0.297c-0.209,-0.042 -0.417,-0.062 -0.625,-0.062c-0.709,0 -1.188,0.27 -1.438,0.812l0,4.703l-1.547,0l0,-6.875l1.485,0l0.031,0.781c0.375,-0.604 0.89,-0.906 1.547,-0.906c0.218,0 0.401,0.031 0.547,0.094l0,1.453Zm3.513,3.5l1.453,-4.922l1.594,0l-2.39,6.875l-1.329,0l-2.406,-6.875l1.594,0l1.484,4.922Zm5.812,1.953l-1.547,0l0,-6.875l1.547,0l0,6.875Zm-1.641,-8.656c0,-0.229 0.073,-0.422 0.219,-0.578c0.156,-0.167 0.369,-0.25 0.64,-0.25c0.282,0 0.5,0.083 0.657,0.25c0.156,0.156 0.234,0.349 0.234,0.578c0,0.239 -0.078,0.437 -0.234,0.594c-0.157,0.145 -0.375,0.218 -0.657,0.218c-0.271,0 -0.484,-0.073 -0.64,-0.218c-0.146,-0.157 -0.219,-0.355 -0.219,-0.594Zm6.216,7.547c0.385,0 0.703,-0.11 0.953,-0.328c0.261,-0.23 0.401,-0.506 0.422,-0.828l1.453,0c-0.021,0.427 -0.156,0.828 -0.406,1.203c-0.25,0.364 -0.589,0.656 -1.016,0.875c-0.427,0.208 -0.89,0.312 -1.39,0.312c-0.959,0 -1.719,-0.307 -2.282,-0.922c-0.562,-0.625 -0.843,-1.489 -0.843,-2.593l0,-0.157c0,-1.041 0.276,-1.875 0.828,-2.5c0.562,-0.635 1.328,-0.953 2.297,-0.953c0.812,0 1.474,0.24 1.984,0.719c0.521,0.479 0.797,1.104 0.828,1.875l-1.453,0c-0.021,-0.396 -0.156,-0.719 -0.406,-0.969c-0.25,-0.25 -0.573,-0.375 -0.969,-0.375c-0.5,0 -0.885,0.182 -1.156,0.547c-0.271,0.354 -0.406,0.901 -0.406,1.641l0,0.25c0,0.739 0.13,1.291 0.39,1.656c0.271,0.364 0.662,0.547 1.172,0.547Zm7.18,1.234c-0.98,0 -1.771,-0.307 -2.375,-0.922c-0.605,-0.614 -0.907,-1.432 -0.907,-2.453l0,-0.203c0,-0.677 0.131,-1.286 0.391,-1.828c0.271,-0.542 0.641,-0.964 1.109,-1.266c0.48,-0.302 1.016,-0.453 1.61,-0.453c0.937,0 1.656,0.302 2.156,0.906c0.51,0.594 0.766,1.438 0.766,2.532l0,0.609l-4.485,0c0.052,0.573 0.245,1.026 0.578,1.359c0.334,0.323 0.75,0.485 1.25,0.485c0.709,0 1.282,-0.287 1.719,-0.86l0.844,0.797c-0.281,0.417 -0.651,0.74 -1.11,0.969c-0.458,0.219 -0.973,0.328 -1.546,0.328Zm-0.188,-5.875c-0.417,0 -0.755,0.146 -1.016,0.438c-0.26,0.291 -0.427,0.703 -0.5,1.234l2.938,0l0,-0.109c-0.031,-0.521 -0.172,-0.912 -0.422,-1.172c-0.239,-0.261 -0.573,-0.391 -1,-0.391Zm8.168,3.891c0,-0.281 -0.115,-0.49 -0.344,-0.625c-0.219,-0.146 -0.594,-0.276 -1.125,-0.391c-0.521,-0.114 -0.958,-0.255 -1.312,-0.422c-0.771,-0.375 -1.157,-0.911 -1.157,-1.609c0,-0.594 0.25,-1.089 0.75,-1.484c0.5,-0.407 1.136,-0.61 1.907,-0.61c0.823,0 1.484,0.203 1.984,0.61c0.51,0.406 0.766,0.932 0.766,1.578l-1.547,0c0,-0.292 -0.11,-0.537 -0.328,-0.735c-0.219,-0.198 -0.511,-0.297 -0.875,-0.297c-0.344,0 -0.625,0.079 -0.844,0.235c-0.208,0.156 -0.313,0.364 -0.313,0.625c0,0.239 0.099,0.427 0.297,0.562c0.209,0.125 0.615,0.255 1.219,0.391c0.604,0.135 1.078,0.297 1.422,0.484c0.344,0.177 0.599,0.396 0.766,0.657c0.166,0.26 0.25,0.572 0.25,0.937c0,0.625 -0.256,1.13 -0.766,1.516c-0.511,0.375 -1.182,0.562 -2.016,0.562c-0.562,0 -1.062,-0.099 -1.5,-0.297c-0.437,-0.208 -0.781,-0.489 -1.031,-0.843c-0.25,-0.355 -0.375,-0.74 -0.375,-1.157l1.5,0c0.021,0.365 0.156,0.646 0.406,0.844c0.261,0.198 0.599,0.297 1.016,0.297c0.406,0 0.713,-0.073 0.922,-0.219c0.219,-0.156 0.328,-0.359 0.328,-0.609Z" style="fill-rule:nonzero;"/></svg>