<svg xmlns="http://www.w3.org/2000/svg" viewBox="0 0 1003.27 925.86"><defs><style>.a3425cd0-1f40-43e9-a0eb-5a5b736b3ded,.adcd355c-f5a4-40e4-8e65-8c420609f40f,.b73e80d3-4c99-487c-a4bd-8109219862ea,.b770a8bd-38e8-4668-96f7-db1b952911b8,.b9c1631d-77a6-4bae-b716-adc6550439d9,.e51a8f16-eda9-44b7-b237-eeddf86499eb,.e6c47625-36ad-458f-bafe-830fcd609c62,.e8899fee-db2c-499d-b7ee-e44d378413c0{fill:none}.e8899fee-db2c-499d-b7ee-e44d378413c0{stroke:#fbb040}.a3425cd0-1f40-43e9-a0eb-5a5b736b3ded,.b73e80d3-4c99-487c-a4bd-8109219862ea,.b770a8bd-38e8-4668-96f7-db1b952911b8,.e51a8f16-eda9-44b7-b237-eeddf86499eb,.e6c47625-36ad-458f-bafe-830fcd609c62,.e8899fee-db2c-499d-b7ee-e44d378413c0{stroke-linejoin:round}.b9c1631d-77a6-4bae-b716-adc6550439d9,.e6c47625-36ad-458f-bafe-830fcd609c62,.e8899fee-db2c-499d-b7ee-e44d378413c0{stroke-width:2px}.e868c483-0407-4441-8f24-f6820d5a12b8{fill:#e6e6e6}.b120db43-3f97-4ffd-9857-d02a25849cc2{fill:#fff}.e51a8f16-eda9-44b7-b237-eeddf86499eb{stroke:#e905ee;stroke-width:3px}.e7b33e9d-b664-45e1-945a-4c6e8d6515a4{font-size:16.27px;font-family:Roboto-Regular,Roboto}.f836ace8-4344-4c73-a6e0-fecad7b8b3ed{font-family:Roboto-Regular,Roboto}.ad8f822a-18e9-47a6-a3d2-bb59fb006f54{letter-spacing:.01em}.f89523b6-9f77-4e3d-b2b8-08b72ba4dd5e{letter-spacing:0}.a928f8ec-6a8f-41d8-a6a9-90a8e9321324{fill:#757575}.b9c1631d-77a6-4bae-b716-adc6550439d9,.e6c47625-36ad-458f-bafe-830fcd609c62{stroke:#fff}.a3425cd0-1f40-43e9-a0eb-5a5b736b3ded,.b73e80d3-4c99-487c-a4bd-8109219862ea,.b770a8bd-38e8-4668-96f7-db1b952911b8,.b9c1631d-77a6-4bae-b716-adc6550439d9{stroke-linecap:round}.adcd355c-f5a4-40e4-8e65-8c420609f40f,.b9c1631d-77a6-4bae-b716-adc6550439d9{stroke-miterlimit:10}.a3425cd0-1f40-43e9-a0eb-5a5b736b3ded,.b73e80d3-4c99-487c-a4bd-8109219862ea,.b770a8bd-38e8-4668-96f7-db1b952911b8{stroke:#486baf}.a3425cd0-1f40-43e9-a0eb-5a5b736b3ded,.adcd355c-f5a4-40e4-8e65-8c420609f40f,.b73e80d3-4c99-487c-a4bd-8109219862ea,.b770a8bd-38e8-4668-96f7-db1b952911b8{stroke-width:4px}.b73e80d3-4c99-487c-a4bd-8109219862ea{stroke-dasharray:6 12}.b762b1ee-c214-4db9-935e-f1610d2b4b98{fill:#486baf}.f836ace8-4344-4c73-a6e0-fecad7b8b3ed{font-size:13.95px}.a09a449a-198a-4097-b2e4-42f8ba194917{letter-spacing:-.02em}.f630c504-9bbe-4929-b673-c083afa31633{fill:#e5e5e4}.b731d80b-db24-4438-a648-a998b3a2ef7a{letter-spacing:-.02em}.a3d73673-26dd-4676-8feb-9c8d0d8ee721{letter-spacing:0}.adcd355c-f5a4-40e4-8e65-8c420609f40f{stroke:#090}.b8287170-ba17-4b8f-8738-57b6fea06062{fill:#090}.a3425cd0-1f40-43e9-a0eb-5a5b736b3ded{stroke-dasharray:5.96 11.93}</style></defs><g id="be2d5b8d-07ce-4f10-8ebf-d32b124a8b7b" data-name="multi-control"><path class="e8899fee-db2c-499d-b7ee-e44d378413c0" d="M978.19 879.5l-444.42-1.68a11.66 11.66 0 01-11.62-11.63V507a11.66 11.66 0 0111.62-11.62L978.19 497a11.66 11.66 0 0111.62 11.62v359.26a11.66 11.66 0 01-11.62 11.62z"/><rect class="e868c483-0407-4441-8f24-f6820d5a12b8" x="641.13" y="513.24" width="229.71" height="83.68" rx="3"/><rect class="b120db43-3f97-4ffd-9857-d02a25849cc2" x="651.18" y="523.7" width="62.76" height="62.76" rx="3"/><path class="e51a8f16-eda9-44b7-b237-eeddf86499eb" d="M697.97 563.97v-17.78l-15.42-8.89-15.41 8.89v17.78l15.41 8.9 15.42-8.9z"/><rect class="b120db43-3f97-4ffd-9857-d02a25849cc2" x="724.39" y="523.7" width="135.98" height="62.76" rx="3"/><text class="e7b33e9d-b664-45e1-945a-4c6e8d6515a4" transform="translate(785.59 560.71)">Se<tspan class="ad8f822a-18e9-47a6-a3d2-bb59fb006f54" x="18.27" y="0">r</tspan><tspan class="f89523b6-9f77-4e3d-b2b8-08b72ba4dd5e" x="23.92" y="0">vice B</tspan></text><circle class="a928f8ec-6a8f-41d8-a6a9-90a8e9321324" cx="755.77" cy="555.08" r="20.92"/><path class="e6c47625-36ad-458f-bafe-830fcd609c62" d="M748.34 547.51h14.86v14.86h-14.86z"/><path class="b9c1631d-77a6-4bae-b716-adc6550439d9" d="M751.09 547.51v-3.58M755.77 547.51v-3.58M760.45 547.51v-3.58M751.09 566.23v-3.58M755.77 566.23v-3.58M760.45 566.23v-3.58M748.2 559.76h-3.57M748.2 555.08h-3.57M748.2 550.4h-3.57M766.92 559.76h-3.58M766.92 555.08h-3.58M766.92 550.4h-3.58"/><rect class="b120db43-3f97-4ffd-9857-d02a25849cc2" x="752.47" y="551.64" width="6.61" height="6.61" rx="2"/><rect class="e868c483-0407-4441-8f24-f6820d5a12b8" x="641.13" y="784.17" width="229.71" height="83.68" rx="3"/><rect class="b120db43-3f97-4ffd-9857-d02a25849cc2" x="651.18" y="794.63" width="62.76" height="62.76" rx="3"/><path class="e51a8f16-eda9-44b7-b237-eeddf86499eb" d="M697.97 834.9v-17.78l-15.42-8.89-15.41 8.89v17.78l15.41 8.89 15.42-8.89z"/><rect class="b120db43-3f97-4ffd-9857-d02a25849cc2" x="724.39" y="794.63" width="135.98" height="62.76" rx="3"/><text class="e7b33e9d-b664-45e1-945a-4c6e8d6515a4" transform="translate(785.35 831.64)">Se<tspan class="ad8f822a-18e9-47a6-a3d2-bb59fb006f54" x="18.27" y="0">r</tspan><tspan class="f89523b6-9f77-4e3d-b2b8-08b72ba4dd5e" x="23.92" y="0">vice A</tspan></text><circle class="a928f8ec-6a8f-41d8-a6a9-90a8e9321324" cx="755.77" cy="826.01" r="20.92"/><path class="e6c47625-36ad-458f-bafe-830fcd609c62" d="M748.34 818.44h14.86v14.86h-14.86z"/><path class="b9c1631d-77a6-4bae-b716-adc6550439d9" d="M751.09 818.44v-3.58M755.77 818.44v-3.58M760.45 818.44v-3.58M751.09 837.16v-3.58M755.77 837.16v-3.58M760.45 837.16v-3.58M748.2 830.69h-3.57M748.2 826.01h-3.57M748.2 821.33h-3.57M766.92 830.69h-3.58M766.92 826.01h-3.58M766.92 821.33h-3.58"/><rect class="b120db43-3f97-4ffd-9857-d02a25849cc2" x="752.47" y="822.57" width="6.61" height="6.61" rx="2"/><path class="b73e80d3-4c99-487c-a4bd-8109219862ea" d="M682.56 593.64v193.82"/><path class="b762b1ee-c214-4db9-935e-f1610d2b4b98" d="M677.57 595.1l4.98-8.64 4.99 8.64h-9.97zM677.57 786l4.98 8.63 4.99-8.63h-9.97z"/><path class="b73e80d3-4c99-487c-a4bd-8109219862ea" d="M923.99 688.86H682.56"/><rect x=".5" y="13.7" width="1002.27" height="911.66" rx="10" stroke="#466bb0" stroke-dasharray="9.98 9.98" stroke-linejoin="round" fill="none"/><text transform="translate(.48 10.27)" font-size="12" font-family="Roboto-Regular,Roboto">Istio Mesh</text><text class="f836ace8-4344-4c73-a6e0-fecad7b8b3ed" transform="translate(11.34 81.26)">Cluster: <tspan class="a09a449a-198a-4097-b2e4-42f8ba194917" x="50.83" y="0">W</tspan><tspan x="63" y="0">est-1</tspan></text><path class="e8899fee-db2c-499d-b7ee-e44d378413c0" d="M467.46 468.91L23 467.23a11.66 11.66 0 01-11.62-11.62V96.38A11.66 11.66 0 0123 84.76l444.42 1.68a11.66 11.66 0 0111.62 11.62v359.23a11.66 11.66 0 01-11.58 11.62z"/><text class="f836ace8-4344-4c73-a6e0-fecad7b8b3ed" transform="translate(522.15 82.95)">Cluster: East-1</text><text class="f836ace8-4344-4c73-a6e0-fecad7b8b3ed" transform="translate(522.15 491.85)">Cluster: East-2</text><rect class="f630c504-9bbe-4929-b673-c083afa31633" x="36.11" y="225.54" width="172.32" height="105.47" rx="3"/><rect class="b120db43-3f97-4ffd-9857-d02a25849cc2" x="48.42" y="286.26" width="147.7" height="36.93" rx="3"/><text class="e7b33e9d-b664-45e1-945a-4c6e8d6515a4" transform="translate(73.61 309.48)">Cont<tspan class="b731d80b-db24-4438-a648-a998b3a2ef7a" x="34.16" y="0">r</tspan><tspan class="a3d73673-26dd-4676-8feb-9c8d0d8ee721" x="39.4" y="0">ol Plane</tspan></text><path id="ae6f3b85-ad3e-4e44-adf1-04e717731bdd" data-name="background" class="b762b1ee-c214-4db9-935e-f1610d2b4b98" d="M102.39 225.54h39.76v39.76h-39.76z"/><path id="bbf4846d-3540-433f-a25c-f60cf6e9941e" data-name="hull" class="b120db43-3f97-4ffd-9857-d02a25849cc2" d="M110.25 258.95h24.05l-15.03 4.51-9.02-4.51z"/><path id="aaf3a073-9eeb-40cc-8adb-7d39efa6fdc7" data-name="mainsail" class="b120db43-3f97-4ffd-9857-d02a25849cc2" d="M110.25 257.45l9.02-1.51v-16.53l-9.02 18.04z"/><path id="bf86e498-8991-4b0f-a302-229d2883d8b5" data-name="headsail" class="b120db43-3f97-4ffd-9857-d02a25849cc2" d="M120.77 255.94l13.53 1.51-13.53-30.06v28.55z"/><rect class="f630c504-9bbe-4929-b673-c083afa31633" x="792.38" y="225.54" width="172.32" height="105.47" rx="3"/><rect class="b120db43-3f97-4ffd-9857-d02a25849cc2" x="804.69" y="286.26" width="147.7" height="36.93" rx="3"/><text class="e7b33e9d-b664-45e1-945a-4c6e8d6515a4" transform="translate(829.89 309.48)">Cont<tspan class="b731d80b-db24-4438-a648-a998b3a2ef7a" x="34.16" y="0">r</tspan><tspan class="a3d73673-26dd-4676-8feb-9c8d0d8ee721" x="39.4" y="0">ol Plane</tspan></text><path id="b97ac45b-d2ed-4437-8da8-a17e26907fe4" data-name="background" class="b762b1ee-c214-4db9-935e-f1610d2b4b98" d="M858.67 225.54h39.76v39.76h-39.76z"/><path id="e683925f-9635-4931-b037-56405209c997" data-name="hull" class="b120db43-3f97-4ffd-9857-d02a25849cc2" d="M866.52 258.95h24.05l-15.03 4.51-9.02-4.51z"/><path id="b2e053be-b6e6-4f93-a326-968457eead27" data-name="mainsail" class="b120db43-3f97-4ffd-9857-d02a25849cc2" d="M866.52 257.45l9.02-1.51v-16.53l-9.02 18.04z"/><path id="b2709133-8ee0-46bf-b3ea-143f59532ae5" data-name="headsail" class="b120db43-3f97-4ffd-9857-d02a25849cc2" d="M877.04 255.94l13.53 1.51-13.53-30.06v28.55z"/><rect class="e868c483-0407-4441-8f24-f6820d5a12b8" x="130.4" y="100.97" width="229.71" height="83.68" rx="3"/><rect class="b120db43-3f97-4ffd-9857-d02a25849cc2" x="140.44" y="111.43" width="135.98" height="62.76" rx="3"/><text class="e7b33e9d-b664-45e1-945a-4c6e8d6515a4" transform="translate(201.4 148.44)">Se<tspan class="ad8f822a-18e9-47a6-a3d2-bb59fb006f54" x="18.27" y="0">r</tspan><tspan class="f89523b6-9f77-4e3d-b2b8-08b72ba4dd5e" x="23.92" y="0">vice A</tspan></text><circle class="a928f8ec-6a8f-41d8-a6a9-90a8e9321324" cx="171.82" cy="142.81" r="20.92"/><path class="e6c47625-36ad-458f-bafe-830fcd609c62" d="M164.39 135.24h14.86v14.86h-14.86z"/><path class="b9c1631d-77a6-4bae-b716-adc6550439d9" d="M167.14 135.24v-3.57M171.82 135.24v-3.57M176.5 135.24v-3.57M167.14 153.96v-3.58M171.82 153.96v-3.58M176.5 153.96v-3.58M164.25 147.49h-3.57M164.25 142.81h-3.57M164.25 138.13h-3.57M182.97 147.49h-3.58M182.97 142.81h-3.58M182.97 138.13h-3.58"/><rect class="b120db43-3f97-4ffd-9857-d02a25849cc2" x="168.52" y="139.37" width="6.61" height="6.61" rx="2"/><rect class="b120db43-3f97-4ffd-9857-d02a25849cc2" x="286.88" y="111.43" width="62.76" height="62.76" rx="3"/><path class="e51a8f16-eda9-44b7-b237-eeddf86499eb" d="M333.67 151.71v-17.79l-15.41-8.89-15.41 8.89v17.79l15.41 8.89 15.41-8.89z"/><rect class="e868c483-0407-4441-8f24-f6820d5a12b8" x="130.4" y="371.9" width="229.71" height="83.68" rx="3"/><rect class="b120db43-3f97-4ffd-9857-d02a25849cc2" x="140.44" y="382.36" width="135.98" height="62.76" rx="3"/><text class="e7b33e9d-b664-45e1-945a-4c6e8d6515a4" transform="translate(201.64 419.37)">Se<tspan class="ad8f822a-18e9-47a6-a3d2-bb59fb006f54" x="18.27" y="0">r</tspan><tspan class="f89523b6-9f77-4e3d-b2b8-08b72ba4dd5e" x="23.92" y="0">vice B</tspan></text><circle class="a928f8ec-6a8f-41d8-a6a9-90a8e9321324" cx="171.82" cy="413.74" r="20.92"/><path class="e6c47625-36ad-458f-bafe-830fcd609c62" d="M164.39 406.17h14.86v14.86h-14.86z"/><path class="b9c1631d-77a6-4bae-b716-adc6550439d9" d="M167.14 406.17v-3.58M171.82 406.17v-3.58M176.5 406.17v-3.58M167.14 424.89v-3.58M171.82 424.89v-3.58M176.5 424.89v-3.58M164.25 418.42h-3.57M164.25 413.74h-3.57M164.25 409.06h-3.57M182.97 418.42h-3.58M182.97 413.74h-3.58M182.97 409.06h-3.58"/><rect class="b120db43-3f97-4ffd-9857-d02a25849cc2" x="168.52" y="410.3" width="6.61" height="6.61" rx="2"/><rect class="b120db43-3f97-4ffd-9857-d02a25849cc2" x="286.88" y="382.36" width="62.76" height="62.76" rx="3"/><path class="e51a8f16-eda9-44b7-b237-eeddf86499eb" d="M333.67 422.63v-17.78l-15.41-8.89-15.41 8.89v17.78l15.41 8.89 15.41-8.89z"/><path class="b73e80d3-4c99-487c-a4bd-8109219862ea" d="M318.26 181.37v193.82"/><path class="b762b1ee-c214-4db9-935e-f1610d2b4b98" d="M313.27 182.83l4.99-8.64 4.99 8.64h-9.98zM313.27 373.73l4.99 8.63 4.99-8.63h-9.98z"/><path class="e8899fee-db2c-499d-b7ee-e44d378413c0" d="M978.19 468.91l-444.42-1.68a11.66 11.66 0 01-11.62-11.62V96.38a11.66 11.66 0 0111.62-11.62l444.42 1.68a11.66 11.66 0 0111.62 11.62v359.23a11.66 11.66 0 01-11.62 11.62z"/><rect class="e868c483-0407-4441-8f24-f6820d5a12b8" x="641.13" y="102.66" width="229.71" height="83.68" rx="3"/><rect class="b120db43-3f97-4ffd-9857-d02a25849cc2" x="651.18" y="113.12" width="62.76" height="62.76" rx="3"/><path class="e51a8f16-eda9-44b7-b237-eeddf86499eb" d="M697.97 153.39v-17.78l-15.42-8.89-15.41 8.89v17.78l15.41 8.89 15.42-8.89z"/><rect class="b120db43-3f97-4ffd-9857-d02a25849cc2" x="724.39" y="113.12" width="135.98" height="62.76" rx="3"/><text class="e7b33e9d-b664-45e1-945a-4c6e8d6515a4" transform="translate(785.59 150.12)">Se<tspan class="ad8f822a-18e9-47a6-a3d2-bb59fb006f54" x="18.27" y="0">r</tspan><tspan class="f89523b6-9f77-4e3d-b2b8-08b72ba4dd5e" x="23.92" y="0">vice B</tspan></text><circle class="a928f8ec-6a8f-41d8-a6a9-90a8e9321324" cx="755.77" cy="144.5" r="20.92"/><path class="e6c47625-36ad-458f-bafe-830fcd609c62" d="M748.34 136.93h14.86v14.86h-14.86z"/><path class="b9c1631d-77a6-4bae-b716-adc6550439d9" d="M751.09 136.93v-3.58M755.77 136.93v-3.58M760.45 136.93v-3.58M751.09 155.64v-3.57M755.77 155.64v-3.57M760.45 155.64v-3.57M748.2 149.18h-3.57M748.2 144.5h-3.57M748.2 139.82h-3.57M766.92 149.18h-3.58M766.92 144.5h-3.58M766.92 139.82h-3.58"/><rect class="b120db43-3f97-4ffd-9857-d02a25849cc2" x="752.47" y="141.06" width="6.61" height="6.61" rx="2"/><rect class="e868c483-0407-4441-8f24-f6820d5a12b8" x="641.13" y="373.59" width="229.71" height="83.68" rx="3"/><rect class="b120db43-3f97-4ffd-9857-d02a25849cc2" x="651.18" y="384.05" width="62.76" height="62.76" rx="3"/><path class="e51a8f16-eda9-44b7-b237-eeddf86499eb" d="M697.97 424.32v-17.79l-15.42-8.89-15.41 8.89v17.79l15.41 8.89 15.42-8.89z"/><rect class="b120db43-3f97-4ffd-9857-d02a25849cc2" x="724.39" y="384.05" width="135.98" height="62.76" rx="3"/><text class="e7b33e9d-b664-45e1-945a-4c6e8d6515a4" transform="translate(785.35 421.05)">Se<tspan class="ad8f822a-18e9-47a6-a3d2-bb59fb006f54" x="18.27" y="0">r</tspan><tspan class="f89523b6-9f77-4e3d-b2b8-08b72ba4dd5e" x="23.92" y="0">vice A</tspan></text><circle class="a928f8ec-6a8f-41d8-a6a9-90a8e9321324" cx="755.77" cy="415.42" r="20.92"/><path class="e6c47625-36ad-458f-bafe-830fcd609c62" d="M748.34 407.86h14.86v14.86h-14.86z"/><path class="b9c1631d-77a6-4bae-b716-adc6550439d9" d="M751.09 407.86v-3.58M755.77 407.86v-3.58M760.45 407.86v-3.58M751.09 426.57v-3.58M755.77 426.57v-3.58M760.45 426.57v-3.58M748.2 420.1h-3.57M748.2 415.42h-3.57M748.2 410.75h-3.57M766.92 420.1h-3.58M766.92 415.42h-3.58M766.92 410.75h-3.58"/><rect class="b120db43-3f97-4ffd-9857-d02a25849cc2" x="752.47" y="411.98" width="6.61" height="6.61" rx="2"/><path class="b73e80d3-4c99-487c-a4bd-8109219862ea" d="M682.56 183.05v193.82"/><path class="b762b1ee-c214-4db9-935e-f1610d2b4b98" d="M677.57 184.51l4.98-8.63 4.99 8.63h-9.97zM677.57 375.41l4.98 8.64 4.99-8.64h-9.97z"/><path class="adcd355c-f5a4-40e4-8e65-8c420609f40f" d="M356.82 142.81H644"/><path class="b8287170-ba17-4b8f-8738-57b6fea06062" d="M358.28 147.8l-8.64-4.99 8.64-4.98v9.97zM642.54 147.8l8.64-4.99-8.64-4.98v9.97z"/><path class="adcd355c-f5a4-40e4-8e65-8c420609f40f" d="M356.82 413.74H644"/><path class="b8287170-ba17-4b8f-8738-57b6fea06062" d="M358.28 418.73l-8.64-4.99 8.64-4.98v9.97zM642.54 418.73l8.64-4.99-8.64-4.98v9.97z"/><path class="adcd355c-f5a4-40e4-8e65-8c420609f40f" d="M499.25 142.81v681.38"/><path class="b770a8bd-38e8-4668-96f7-db1b952911b8" d="M208.43 278.28h3"/><path stroke-dasharray="6.11 12.22" stroke-width="4" stroke="#486baf" stroke-linecap="round" stroke-linejoin="round" fill="none" d="M223.65 278.28h85.5"/><path class="b770a8bd-38e8-4668-96f7-db1b952911b8" d="M315.26 278.28h3"/><text class="f836ace8-4344-4c73-a6e0-fecad7b8b3ed" transform="translate(11.34 491.85)">Cluster: <tspan class="a09a449a-198a-4097-b2e4-42f8ba194917" x="50.83" y="0">W</tspan><tspan x="63" y="0">est-2</tspan></text><path class="e8899fee-db2c-499d-b7ee-e44d378413c0" d="M467.46 879.5L23 877.82a11.66 11.66 0 01-11.62-11.63V507A11.66 11.66 0 0123 495.35L467.46 497a11.66 11.66 0 0111.62 11.62v359.26a11.66 11.66 0 01-11.62 11.62z"/><rect class="e868c483-0407-4441-8f24-f6820d5a12b8" x="130.4" y="511.56" width="229.71" height="83.68" rx="3"/><rect class="b120db43-3f97-4ffd-9857-d02a25849cc2" x="140.44" y="522.02" width="135.98" height="62.76" rx="3"/><text class="e7b33e9d-b664-45e1-945a-4c6e8d6515a4" transform="translate(201.4 559.03)">Se<tspan class="ad8f822a-18e9-47a6-a3d2-bb59fb006f54" x="18.27" y="0">r</tspan><tspan class="f89523b6-9f77-4e3d-b2b8-08b72ba4dd5e" x="23.92" y="0">vice A</tspan></text><circle class="a928f8ec-6a8f-41d8-a6a9-90a8e9321324" cx="171.82" cy="553.4" r="20.92"/><path class="e6c47625-36ad-458f-bafe-830fcd609c62" d="M164.39 545.83h14.86v14.86h-14.86z"/><path class="b9c1631d-77a6-4bae-b716-adc6550439d9" d="M167.14 545.83v-3.58M171.82 545.83v-3.58M176.5 545.83v-3.58M167.14 564.55v-3.58M171.82 564.55v-3.58M176.5 564.55v-3.58M164.25 558.08h-3.57M164.25 553.4h-3.57M164.25 548.72h-3.57M182.97 558.08h-3.58M182.97 553.4h-3.58M182.97 548.72h-3.58"/><rect class="b120db43-3f97-4ffd-9857-d02a25849cc2" x="168.52" y="549.96" width="6.61" height="6.61" rx="2"/><rect class="b120db43-3f97-4ffd-9857-d02a25849cc2" x="286.88" y="522.02" width="62.76" height="62.76" rx="3"/><path class="e51a8f16-eda9-44b7-b237-eeddf86499eb" d="M333.67 562.29v-17.78l-15.41-8.89-15.41 8.89v17.78l15.41 8.89 15.41-8.89z"/><rect class="e868c483-0407-4441-8f24-f6820d5a12b8" x="130.4" y="782.49" width="229.71" height="83.68" rx="3"/><rect class="b120db43-3f97-4ffd-9857-d02a25849cc2" x="140.44" y="792.95" width="135.98" height="62.76" rx="3"/><text class="e7b33e9d-b664-45e1-945a-4c6e8d6515a4" transform="translate(201.64 829.95)">Se<tspan class="ad8f822a-18e9-47a6-a3d2-bb59fb006f54" x="18.27" y="0">r</tspan><tspan class="f89523b6-9f77-4e3d-b2b8-08b72ba4dd5e" x="23.92" y="0">vice B</tspan></text><circle class="a928f8ec-6a8f-41d8-a6a9-90a8e9321324" cx="171.82" cy="824.33" r="20.92"/><path class="e6c47625-36ad-458f-bafe-830fcd609c62" d="M164.39 816.76h14.86v14.86h-14.86z"/><path class="b9c1631d-77a6-4bae-b716-adc6550439d9" d="M167.14 816.76v-3.58M171.82 816.76v-3.58M176.5 816.76v-3.58M167.14 835.48v-3.58M171.82 835.48v-3.58M176.5 835.48v-3.58M164.25 829.01h-3.57M164.25 824.33h-3.57M164.25 819.65h-3.57M182.97 829.01h-3.58M182.97 824.33h-3.58M182.97 819.65h-3.58"/><rect class="b120db43-3f97-4ffd-9857-d02a25849cc2" x="168.52" y="820.89" width="6.61" height="6.61" rx="2"/><rect class="b120db43-3f97-4ffd-9857-d02a25849cc2" x="286.88" y="792.95" width="62.76" height="62.76" rx="3"/><path class="e51a8f16-eda9-44b7-b237-eeddf86499eb" d="M333.67 833.22v-17.78l-15.41-8.89-15.41 8.89v17.78l15.41 8.89 15.41-8.89z"/><path class="b73e80d3-4c99-487c-a4bd-8109219862ea" d="M318.26 591.96v193.81"/><path class="b762b1ee-c214-4db9-935e-f1610d2b4b98" d="M313.27 593.41l4.99-8.63 4.99 8.63h-9.98zM313.27 784.31l4.99 8.64 4.99-8.64h-9.98z"/><path class="adcd355c-f5a4-40e4-8e65-8c420609f40f" d="M356.82 553.4H644"/><path class="b8287170-ba17-4b8f-8738-57b6fea06062" d="M358.28 558.39l-8.64-4.99 8.64-4.99v9.98zM642.54 558.39l8.64-4.99-8.64-4.99v9.98z"/><path class="adcd355c-f5a4-40e4-8e65-8c420609f40f" d="M356.82 824.33H644"/><path class="b8287170-ba17-4b8f-8738-57b6fea06062" d="M358.28 829.32l-8.64-4.99 8.64-4.99v9.98zM642.54 829.32l8.64-4.99-8.64-4.99v9.98z"/><path class="b770a8bd-38e8-4668-96f7-db1b952911b8" d="M122.27 688.86h3"/><path stroke-dasharray="5.94 11.87" stroke-width="4" stroke="#486baf" stroke-linecap="round" stroke-linejoin="round" fill="none" d="M137.15 688.86h172.17"/><path class="b770a8bd-38e8-4668-96f7-db1b952911b8" d="M315.26 688.86h3"/><path class="b73e80d3-4c99-487c-a4bd-8109219862ea" d="M792.38 278.28H682.56"/><path class="b770a8bd-38e8-4668-96f7-db1b952911b8" d="M122.27 331.01v3"/><path class="a3425cd0-1f40-43e9-a0eb-5a5b736b3ded" d="M122.27 345.94V679.9"/><path class="b770a8bd-38e8-4668-96f7-db1b952911b8" d="M122.27 685.86v3M923.99 331.01v3"/><path class="a3425cd0-1f40-43e9-a0eb-5a5b736b3ded" d="M923.99 345.94V679.9"/><path class="b770a8bd-38e8-4668-96f7-db1b952911b8" d="M923.99 685.86v3"/></g></svg>