<?xml version="1.0" encoding="UTF-8"?>
<svg id="_图层_1" data-name="图层 1" xmlns="http://www.w3.org/2000/svg" xmlns:xlink="http://www.w3.org/1999/xlink" viewBox="0 0 1420.07 448.53">
  <defs>
    <style>
      .cls-1 {
        fill: url(#linear-gradient);
      }

      .cls-1, .cls-2, .cls-3, .cls-4, .cls-5 {
        stroke-width: 0px;
      }

      .cls-2 {
        fill: url(#linear-gradient-2);
      }

      .cls-3 {
        fill: url(#linear-gradient-3);
      }

      .cls-4 {
        fill: #ee780e;
      }

      .cls-5 {
        fill: #0059a8;
      }
    </style>
    <linearGradient id="linear-gradient" x1="190.83" y1="48.55" x2="69.03" y2="363.79" gradientUnits="userSpaceOnUse">
      <stop offset="0" stop-color="#eb6101"/>
      <stop offset=".19" stop-color="#f29344"/>
      <stop offset=".67" stop-color="#ee7816"/>
      <stop offset="1" stop-color="#eb6101"/>
    </linearGradient>
    <linearGradient id="linear-gradient-2" x1=".02" y1="319.29" x2="448.54" y2="319.29" gradientUnits="userSpaceOnUse">
      <stop offset="0" stop-color="#676763"/>
      <stop offset=".19" stop-color="#cacac7"/>
      <stop offset="1" stop-color="#45443f"/>
    </linearGradient>
    <linearGradient id="linear-gradient-3" x1="405.09" y1="314.79" x2="252.24" y2="44.92" gradientUnits="userSpaceOnUse">
      <stop offset="0" stop-color="#22ac39"/>
      <stop offset=".19" stop-color="#9dc93b"/>
      <stop offset=".7" stop-color="#57b548"/>
      <stop offset="1" stop-color="#094"/>
    </linearGradient>
  </defs>
  <g>
    <g>
      <path class="cls-5" d="m745.91,268.49h-153.66c-5.06,0-9.16-4.1-9.16-9.15s4.1-9.16,9.16-9.16h153.66c5.05,0,9.15,4.1,9.15,9.16s-4.1,9.15-9.15,9.15Z"/>
      <path class="cls-5" d="m947.65,277.14h-117.76c-5.05,0-9.16-4.1-9.16-9.16s4.1-9.16,9.16-9.16h117.76c5.05,0,9.15,4.1,9.15,9.16s-4.1,9.16-9.15,9.16Z"/>
      <path class="cls-5" d="m947.65,304.81h-117.76c-5.05,0-9.16-4.1-9.16-9.16s4.1-9.15,9.16-9.15h117.76c5.05,0,9.15,4.1,9.15,9.15s-4.1,9.16-9.15,9.16Z"/>
      <path class="cls-5" d="m1346.32,287.23h-88.78c-5.05,0-9.16-4.1-9.16-9.16s4.1-9.16,9.16-9.16h88.78c5.05,0,9.15,4.1,9.15,9.16s-4.1,9.16-9.15,9.16Z"/>
      <path class="cls-5" d="m1231.33,287.23h-41.31c-5.05,0-9.16-4.1-9.16-9.16s4.1-9.16,9.16-9.16h41.31c5.05,0,9.15,4.1,9.15,9.16s-4.1,9.16-9.15,9.16Z"/>
      <path class="cls-5" d="m993.62,275.16c-5.06,0-9.15-4.1-9.15-9.15s4.1-9.16,9.15-9.16c18.86,0,37.7-2.28,56.02-6.78l.86-.21c4.9-1.21,9.87,1.81,11.07,6.72,1.2,4.91-1.81,9.87-6.71,11.07l-.86.21c-19.73,4.85-40.05,7.3-60.38,7.3Z"/>
      <path class="cls-5" d="m1052.68,310.78h-59.05c-5.06,0-9.15-4.1-9.15-9.16s4.1-9.16,9.15-9.16h59.05c5.06,0,9.15,4.1,9.15,9.16s-4.09,9.16-9.15,9.16Z"/>
      <path class="cls-5" d="m947.65,332.49h-117.76c-5.05,0-9.16-4.1-9.16-9.15s4.1-9.16,9.16-9.16h117.76c5.05,0,9.15,4.1,9.15,9.16s-4.1,9.15-9.15,9.15Z"/>
      <path class="cls-4" d="m1116.3,343.65c-.93,0-1.89-.14-2.83-.45l-25.71-8.35c-4.63-1.5-8.3-5.16-9.81-9.79-1.5-4.63-.7-9.75,2.16-13.69l19.48-26.86-21.63-7.2c-4.8-1.6-7.39-6.78-5.79-11.58,1.6-4.8,6.78-7.4,11.57-5.79l25.58,8.51c4.6,1.53,8.23,5.2,9.71,9.82,1.49,4.62.67,9.71-2.17,13.64l-19.47,26.83,21.74,7.06c4.81,1.56,7.44,6.73,5.88,11.53-1.25,3.87-4.84,6.33-8.71,6.33Z"/>
      <path class="cls-5" d="m750.58,415.09h-162.98c-5.06,0-9.15-4.1-9.15-9.15s4.1-9.16,9.15-9.16h162.98c5.05,0,9.16,4.1,9.16,9.16s-4.1,9.15-9.16,9.15Z"/>
      <path class="cls-5" d="m695.42,415.09c-5.06,0-9.16-4.1-9.16-9.15v-146.6c0-5.06,4.1-9.16,9.16-9.16s9.16,4.1,9.16,9.16v146.6c0,5.05-4.1,9.15-9.16,9.15Z"/>
      <path class="cls-5" d="m1023.15,415.09c-5.06,0-9.15-4.1-9.15-9.15v-139.93c0-5.06,4.09-9.16,9.15-9.16s9.15,4.1,9.15,9.16v139.93c0,5.05-4.1,9.15-9.15,9.15Z"/>
      <path class="cls-5" d="m1198.57,415.09h-8.55c-5.05,0-9.16-4.1-9.16-9.15s4.1-9.16,9.16-9.16h8.55c3.98,0,7.22-3.24,7.22-7.22v-130.22c0-5.06,4.09-9.16,9.15-9.16s9.15,4.1,9.15,9.16v130.22c0,14.08-11.45,25.53-25.53,25.53Z"/>
      <path class="cls-5" d="m1301.93,322.6c-5.05,0-9.15-4.1-9.15-9.16v-54.11c0-5.06,4.1-9.16,9.15-9.16s9.16,4.1,9.16,9.16v54.11c0,5.06-4.1,9.16-9.16,9.16Z"/>
      <path class="cls-5" d="m1142.8,415.09c-5.05,0-9.15-4.1-9.15-9.15v-147.18c0-5.06,4.1-9.16,9.15-9.16s9.16,4.1,9.16,9.16v147.18c0,5.05-4.1,9.15-9.16,9.15Z"/>
      <path class="cls-5" d="m993.62,390.85c-5.06,0-9.15-4.1-9.15-9.16v-51c0-5.06,4.1-9.16,9.15-9.16s9.15,4.1,9.15,9.16v51c0,5.05-4.09,9.16-9.15,9.16Z"/>
      <path class="cls-5" d="m642.75,415.09c-5.06,0-9.16-4.1-9.16-9.15v-146.6c0-5.06,4.1-9.16,9.16-9.16s9.15,4.1,9.15,9.16v146.6c0,5.05-4.1,9.15-9.15,9.15Z"/>
      <path class="cls-5" d="m598.35,369.3c-5.06,0-9.15-4.1-9.15-9.16v-55.02c0-5.06,4.1-9.16,9.15-9.16s9.15,4.1,9.15,9.16v55.02c0,5.06-4.1,9.16-9.15,9.16Z"/>
      <path class="cls-5" d="m714.78,366.69h-19.35c-5.06,0-9.16-4.1-9.16-9.15s4.1-9.16,9.16-9.16h19.35c8.76,0,15.89-7.13,15.89-15.89v-27.36c0-5.06,4.1-9.16,9.16-9.16s9.15,4.1,9.15,9.16v27.36c0,18.86-15.34,34.2-34.2,34.2Z"/>
      <path class="cls-5" d="m971.42,415.09c-5.06,0-9.15-4.1-9.15-9.15s4.09-9.16,9.15-9.16c7.19,0,13.04-5.85,13.04-13.04,0-5.06,4.1-9.16,9.15-9.16s9.15,4.1,9.15,9.16c0,17.29-14.07,31.35-31.35,31.35Z"/>
      <path class="cls-5" d="m801.24,415.09c-5.06,0-9.16-4.1-9.16-9.15v-133.38c0-2.24-1.82-4.06-4.07-4.06h-11.3c-5.06,0-9.16-4.1-9.16-9.15s4.1-9.16,9.16-9.16h11.3c12.34,0,22.38,10.04,22.38,22.37v133.38c0,5.05-4.1,9.15-9.15,9.15Z"/>
      <path class="cls-5" d="m971.42,415.09h-116.91c-18.62,0-33.77-15.15-33.77-33.77v-8.23c0-17.23,14.02-31.24,31.24-31.24h73.59c17.22,0,31.24,14.01,31.24,31.24v8.6c0,5.05-4.1,9.16-9.15,9.16s-9.16-4.1-9.16-9.16v-8.6c0-7.13-5.8-12.93-12.93-12.93h-73.59c-7.13,0-12.93,5.8-12.93,12.93v8.23c0,8.52,6.93,15.46,15.46,15.46h116.91c5.05,0,9.15,4.1,9.15,9.16s-4.1,9.15-9.15,9.15Z"/>
      <path class="cls-5" d="m888.77,274.83c-5.06,0-9.16-4.1-9.16-9.16v-6.92c0-5.06,4.1-9.16,9.16-9.16s9.15,4.1,9.15,9.16v6.92c0,5.06-4.1,9.16-9.15,9.16Z"/>
      <path class="cls-5" d="m1245.6,415.09c-4.56,0-8.51-3.4-9.08-8.04-.62-5.02,2.95-9.59,7.97-10.2,34.83-4.27,77.21-39.42,89.9-74.24h-76.85c-5.05,0-9.16-4.1-9.16-9.16s4.1-9.15,9.16-9.15h78.36c5.55,0,10.8,2.7,14.05,7.22,3.21,4.48,4.07,10.26,2.31,15.46-14.18,41.75-63.49,82.89-105.53,88.04-.38.05-.75.07-1.13.07Z"/>
      <path class="cls-5" d="m1358.27,415.09c-.37,0-.75-.02-1.13-.07-36.13-4.43-79.7-36.7-99.18-73.46-2.37-4.47-.66-10.01,3.8-12.38,4.47-2.37,10.01-.67,12.37,3.8,16.7,31.5,54.93,60.14,85.24,63.86,5.02.62,8.59,5.19,7.98,10.2-.57,4.64-4.52,8.04-9.08,8.04Z"/>
      <path class="cls-5" d="m1190.01,347.27c-3.88,0-7.48-2.49-8.72-6.38-1.53-4.82,1.14-9.97,5.95-11.5l42.45-13.49c4.82-1.53,9.96,1.14,11.5,5.95,1.53,4.82-1.13,9.97-5.95,11.5l-42.44,13.49c-.92.3-1.86.43-2.78.43Z"/>
      <path class="cls-5" d="m1074.13,383.34c-4.35,0-8.67-1.15-12.49-3.39-6.02-3.54-10.26-9.49-11.64-16.33l-6.3-31.11c-1-4.95,2.2-9.78,7.16-10.79,4.96-1.01,9.78,2.2,10.78,7.16l6.3,31.11c.49,2.4,2.08,3.65,2.98,4.18.9.53,2.77,1.32,5.1.57l85.85-27.28c4.82-1.52,9.96,1.13,11.5,5.95,1.53,4.82-1.14,9.97-5.95,11.5l-85.85,27.28c-2.43.77-4.95,1.15-7.45,1.15Z"/>
    </g>
    <g>
      <path class="cls-5" d="m604.38,16.14l-78.6,184.28h24.9l24.01-58h85.32l24.57,58h25.27l-78.95-184.28h-26.53Zm-21.66,106.92h0l34.13-82.19,34.13,82.19h-68.26Z"/>
      <path class="cls-5" d="m777.49,121.76h-21.99c-13.36,0-20.08-6-20.08-17.96,0-12.93,11.28-19.37,33.84-19.37,16.25,0,31.96,2.51,47.02,7.74v-20.65c-15.07-4.25-30.77-6.43-47.02-6.43-37.6,0-56.49,12.91-56.49,38.72s14.19,39.92,42.73,39.92h21.99c14.18,0,21.31,6.01,21.31,17.98,0,12.92-10.83,19.36-32.46,19.36-16.32,0-32.01-2.6-47.09-7.67v20.56c15.08,4.34,30.77,6.47,47.09,6.47,37.56,0,56.33-12.91,56.33-38.72s-15-39.94-45.18-39.94"/>
      <rect class="cls-5" x="841.85" y="65.08" width="23.93" height="135.34"/>
      <rect class="cls-5" x="841.85" y="16.14" width="23.93" height="19.28"/>
      <path class="cls-5" d="m938.85,65.08c-14.02,0-28.31,2.18-43,6.45v19.34c14.69-4.26,28.98-6.44,43-6.44,24.41,0,36.63,7.28,36.63,22.02v12.78c-10.11-1.75-21.92-2.63-35.45-2.63-36.76,0-55.1,13.95-55.1,41.72s16.96,42.1,51.03,42.1c15.14,0,28.16-3,39.53-8.56v8.56h23.94v-92.07c0-28.84-20.23-43.27-60.57-43.27m36.63,105.39h0c-9.75,7.08-22.93,10.59-39.53,10.59-18.06,0-27.16-7.67-27.16-23.21,0-14.6,10.39-21.88,31.23-21.88,14.13,0,25.9.86,35.45,2.52v31.98Z"/>
      <rect class="cls-5" x="1024.97" y="16.14" width="23.88" height="184.28"/>
      <path class="cls-5" d="m1144.56,65.08c-16.61,0-33.19,5.78-49.64,17.25l.08-17.25h-20.52v135.34h23.95v-98.36c12.29-11.38,25.3-17.2,39.01-17.2,20.15,0,30.19,10.17,30.19,30.23v85.32h23.89v-84.97c0-33.55-15.58-50.37-46.96-50.37"/>
      <path class="cls-5" d="m1241.08,51.07c0-14.93,8.89-22.32,26.63-22.32,11.73,0,21.91,1.72,30.45,5.15V14.64c-9.12-3.48-19.24-5.23-30.28-5.23-33.86,0-50.74,16.39-50.74,49.08v142.22h23.94v-116.27h40.76v-19.35h-40.76v-14Z"/>
      <path class="cls-5" d="m1355.42,65.08c-43.17,0-64.7,22.53-64.7,67.62.15,45.01,21.78,67.53,64.7,67.53s64.65-22.52,64.65-67.53-21.56-67.62-64.65-67.62m0,115.98h0c-27.22,0-40.83-16.26-40.83-48.78s13.61-47.84,40.83-47.84,40.77,15.93,40.77,47.84-13.61,48.78-40.77,48.78"/>
    </g>
  </g>
  <g>
    <path class="cls-1" d="m112.15,30.08C4.91,92.01-31.83,229.15,30.06,336.4h0c26.57,46.04,67.06,79.07,113.02,96.9h0c.08-.46-3.74-90.73-26.87-95.04h0c-23.46-4.33-58.93-34.88-36.71-94.53h0c12.64-33.82,27.64-67.89,87.23-154.98h0s31.94-39.91,54.46-52.92h0c44.02-25.37,87.85-21.59,115.73-5.48h0C302.69,10.49,263.66,0,224.09,0h0c-38.05,0-76.62,9.71-111.93,30.08"/>
    <path class="cls-2" d="m.02,223.88v-.07H.02v.07m0-.07v-.04H.02v.04m0-.04H.02m0,0v-.08H.02v.08m0-.08v-.04H.02v.04m377.02,37.16c7.94,22.48-.76,68.46-63.52,79.04h0c-35.63,5.98-72.65,9.97-177.85,1.96h0s-50.54-7.67-73.04-20.68h0C18.69,295.79,0,256.07.02,223.88H.02c-.06,77.53,40.14,153.02,112.17,194.57h0c107.21,61.92,244.39,25.19,306.31-82.09h0c26.56-46.02,34.94-97.57,27.37-146.3h0c-.44.16-76.69,48.58-68.83,70.8"/>
    <path class="cls-3" d="m179.73,73.5c.27-.29.53-.6.83-.91h0c-.3.31-.56.62-.83.91m41.47-37.68c-13.13,7.58-29.33,24.19-40.64,36.78h0c16.27-17.63,59.51-31.57,99.24,16.58h0c22.98,27.83,44.95,57.88,90.63,153.01h0s18.57,47.63,18.57,73.62h0c-.05,50.83-25.19,86.94-53.15,103h0c67.33-38.68,112.66-111.34,112.66-194.52h0c-.04-40.77-10.9-78.95-29.9-111.89h0c-19.74-34.25-48.34-62.76-82.58-82.5h0c-13.54-7.63-30.68-12.39-49.73-12.39h0c-20.24,0-42.65,5.37-65.09,18.32"/>
  </g>
</svg>