<svg id="レイヤー_1" data-name="レイヤー 1" xmlns="http://www.w3.org/2000/svg" viewBox="0 0 419.72 125"><defs><style>.cls-1{fill:#f5ab18;}.cls-2{fill:#0f367a;}.cls-3{fill:#c7161d;}</style></defs><title>logo-zozo</title><path class="cls-1" d="M119.4,120.82V87.5l-.06-.75-.23-.69-.33-.62-.45-.58-.56-.46-.65-.33-.69-.23-.72-.06H81.94l-.71.06-.69.23-.65.33-.56.46-.46.58-.36.62-.19.69-.07.75v33.75l.07.72.19.71.36.62.46.56.56.46.65.36.69.19.71.1h33.77l.72-.1.69-.19.65-.36.56-.46.45-.56.33-.62.23-.71.06-.72Z"/><path class="cls-2" d="M3.74,125H43.15l.73-.07.69-.19.66-.37.56-.47.47-.56.36-.66.2-.7.07-.73V66.43l-.07-.67-.17-.66-.29-.6L46,64l-.5-.46-.56-.4-.6-.27-.66-.13-.66,0-.69.1-.63.2-.6.33-.53.43-.43.5-.24.34L.74,119l-.05.07-.33.6-.23.63L0,121l0,.66.13.7.27.63.36.56.46.5.53.43.63.3.66.2Z"/><path d="M121.38,0H82L81.24.1l-.69.2-.67.36-.56.47-.46.57-.37.66-.19.7-.07.73v55l.07.67.16.66.3.6.4.53.49.47.56.4.6.27.66.13.66,0,.7-.1.63-.2.59-.33.53-.43L85,61l.25-.35,39.11-54.6,0-.07.33-.6.24-.63.13-.7,0-.67-.13-.7-.26-.63-.37-.56-.46-.5-.53-.44-.63-.3L122,.06Z"/><path class="cls-3" d="M47.07,23.43,47,21.75l-.17-1.69-.3-1.66-.43-1.65-.53-1.59-.66-1.56-.76-1.52-.89-1.46-1-1.39L41.22,7.94,40.06,6.72,38.8,5.56,37.48,4.5l-1.39-.93-1.46-.86L33.08,2l-1.56-.63L29.9.83,28.24.43,26.59.17,24.9,0,23.21,0,21.53.07,19.84.3,18.19.63l-1.63.46-1.62.57-1.52.69-1.52.76L10.48,4,9.12,5,7.83,6.12,6.6,7.31,5.48,8.57l-1,1.36-.92,1.42-.8,1.49L2,14.36,1.41,16,1,17.57.58,19.23.32,20.92.18,22.6v1.69L.32,26l.26,1.66L1,29.29l.46,1.62L2,32.5l.73,1.56.8,1.49.92,1.39,1,1.35L6.6,39.55l1.23,1.19,1.29,1.1,1.36,1,1.42.89,1.52.8,1.52.66,1.62.6,1.63.43,1.65.33,1.69.23,1.68.1,1.69,0,1.69-.17,1.65-.26L29.9,46l1.62-.5,1.56-.63,1.55-.76,1.46-.83,1.39-1,1.32-1,1.26-1.13L41.22,39l1.09-1.33,1-1.39.89-1.46.76-1.48.66-1.56.53-1.62.43-1.62.3-1.69L47,25.12Z"/><path d="M196.12,42.81H169V31.24h42.85V42.11L183,82.26h28.91V93.83H167.2V83Z"/><path d="M254.77,28.76A33.74,33.74,0,1,0,288.5,62.51h0a33.74,33.74,0,0,0-33.73-33.74m0,54.83a21.1,21.1,0,1,1,21.09-21.11v0a21.09,21.09,0,0,1-21.09,21.09"/><path d="M327.34,42.81H300.27V31.24h42.85V42.11L314.2,82.26h28.92V93.83h-44.7V83Z"/><path d="M386,28.76a33.74,33.74,0,1,0,33.73,33.75h0A33.73,33.73,0,0,0,386,28.76h0m0,54.83a21.1,21.1,0,1,1,21.09-21.11v0A21.09,21.09,0,0,1,386,83.59"/></svg>