<?xml version="1.0" encoding="iso-8859-1"?>
<svg xmlns="http://www.w3.org/2000/svg" viewBox="0 0 505.7 61.3">
    <path fill="#313c53" d="M363.7 21.7h-.2c-2-2.1-4.2-3.7-6.5-4.8-2.3-1-4.9-1.6-7.7-1.6-5.9 0-10.8 2.1-14.7 6.4-3.9 4.2-5.8 9.6-5.8 16v1.6c0 6.4 1.9 11.6 5.8 15.7s8.7 6.1 14.3 6.1c3.1 0 5.9-.5 8.3-1.6 2.4-1.1 4.4-2.7 5.9-4.8h.2l1.6 5.2h8.1V16.7h-7.6l-1.7 5zm-4.1 27.1c-2.1 2.6-5 3.8-8.7 3.8s-6.7-1.3-8.7-3.8c-2.1-2.6-3.1-6.1-3.1-10.5s1-8 3.1-10.5c2.1-2.6 5-3.9 8.7-3.9s6.6 1.3 8.7 3.9c2.1 2.6 3.2 6.1 3.2 10.5s-1.1 7.9-3.2 10.5zM413.5 20.2h-.2c-1.5-1.6-3.3-2.8-5.3-3.6-2-.8-4.5-1.2-7.4-1.2-6.2 0-11.3 2.1-15.3 6.3-3.9 4.2-5.9 9.6-5.9 16.1v1.6c0 6.3 2 11.5 6 15.6s8.8 6.2 14.4 6.2c3.2 0 6-.5 8.4-1.5s4.4-2.6 6.1-4.7h.2l1.5 4.8h8V0h-10.5v20.2zm-3 28.6c-2.1 2.6-5 3.8-8.7 3.8s-6.7-1.3-8.7-3.8c-2.1-2.6-3.1-6.1-3.1-10.5s1-8 3.1-10.5c2.1-2.6 5-3.9 8.7-3.9s6.6 1.3 8.7 3.9c2.1 2.6 3.2 6.1 3.2 10.5s-1.1 7.9-3.2 10.5zM166.7 42.4c0 3.3-.7 5.8-2.1 7.4-1.4 1.7-3.5 2.5-6.3 2.5s-4.9-.8-6.3-2.5-2.1-4.1-2.1-7.4V17.7h-10.4v25.4c0 5.5 1.7 10 5.2 13.3s8 5 13.6 5 10.1-1.7 13.6-5 5.2-7.7 5.2-13.3V17.7h-10.4v24.7zM206.5 51.5c-1 .3-2 .5-3 .5-1.6 0-2.8-.4-3.6-1.2-.8-.8-1.2-2-1.2-3.6V23.7h11v-8.1h-11V5.8h-4.6c-1.4 3.4-3.1 6.1-4.9 8.1s-4.1 3.7-6.9 5v4.8h5.9v22.5c0 4.8 1.2 8.5 3.5 10.9 2.4 2.4 5.9 3.6 10.5 3.6 1.2 0 2.7-.2 4.5-.6s3.2-.9 4.2-1.5V50h-1.5c-.9.7-2 1.2-2.9 1.5zM236.9 15.4c-6.3 0-11.6 2.1-15.8 6.2-4.2 4.1-6.3 9.5-6.3 16v1.6c0 6.6 2.1 11.9 6.3 16 4.2 4.1 9.4 6.1 15.8 6.1 6.3 0 11.6-2.1 15.9-6.2s6.4-9.4 6.4-16v-1.6c0-6.6-2.1-11.9-6.4-16-4.2-4-9.5-6.1-15.9-6.1zm8.7 33.3c-2.1 2.6-4.9 3.8-8.6 3.8-3.6 0-6.5-1.3-8.5-3.8-2-2.6-3.1-6-3.1-10.4s1-7.9 3.1-10.4c2-2.6 4.9-3.8 8.5-3.8s6.5 1.3 8.6 3.8c2.1 2.6 3.1 6 3.1 10.4s-1 7.9-3.1 10.4zM254.4 12H271v47.9h10.9V12h15.9V2.6h-43.4zM321.6 16.3c-3 0-5.6.8-7.8 2.3-2.2 1.6-3.6 3.7-4.1 6.3h-.2l-2.2-8.3h-7.4v43.2h10.5V39.1c0-4.8.8-8.1 2.5-9.8 1.7-1.7 4.5-2.5 8.3-2.5h3.9V16.5c-.3-.1-.9-.1-1.6-.2-.7.1-1.4 0-1.9 0zM452.4 15.4c-6.1 0-11.2 2.1-15.3 6.4-4.1 4.2-6.2 9.6-6.2 15.9v1.4c0 6.4 2.1 11.7 6.2 15.9 4.1 4.2 9.3 6.3 15.4 6.3 5.2 0 9.6-1.2 13.1-3.6 3.1-2.2 5.3-5.1 6.5-8.9h-10.6c-.8 1.1-1.7 2-2.7 2.6-1.5.9-3.5 1.3-6 1.3-3.1 0-5.6-1-7.6-2.9-2-2-3.2-4.7-3.6-8.2h31.3c.1-.8.1-1.6.1-2.3v-2.1c0-6.5-1.9-11.7-5.8-15.7-3.7-4.1-8.7-6.1-14.8-6.1zm-10.5 18c.7-3.2 2-5.5 3.8-7.1s4.2-2.3 7-2.3 5.1.8 6.8 2.5 2.6 4 2.8 6.9h-20.4zM504 16.4c-.7-.1-1.3-.1-1.9-.1-3 0-5.6.8-7.8 2.3-2.2 1.6-3.6 3.7-4.1 6.3h-.2l-2.2-8.3h-7.4v43.2h10.5V39.1c0-4.8.9-8.1 2.6-9.8 1.7-1.7 4.5-2.5 8.3-2.5h3.9V16.5c-.5.1-1 0-1.7-.1zM102.6 3.7L80.5 58.5v1.4h10.7l4.3-11.4.9-2.4h23.3l.9 2.4 4.3 11.4h11.2v-1.4L114 3.7h-11.4zM100 36.6l5.1-13.5c.9-2.4 1.6-4.2 2-5.4.4-1.2.7-2.3 1-3.2h.2c.2.7.4 1.4.6 2.2.3.8 1 2.9 2.3 6.4l5 13.5H100zM0 59.9h50.8c6.7-.1 12.6-4.5 15.2-10.6l5.1-12.7H9.4L0 59.9z"></path>
    <path d="M84.4 3.7H33.6c-6.7.1-12.6 4.4-15.2 10.6L13.3 27h61.6l9.5-23.3z" fill="#ff4436"></path>
</svg>
