<svg id="图层_1" data-name="图层 1" xmlns="http://www.w3.org/2000/svg" viewBox="0 0 447.89 69.35"><defs><style>.cls-1{fill:#1a7aeb}</style></defs><path class="cls-1" d="M51.64 48.56a20.58 20.58 0 0 1-16.25 7.52 20.66 20.66 0 1 1 16.25-33.8 1.07 1.07 0 0 0 1.45.2l9.57-7.14a1.06 1.06 0 0 0 .2-1.5 34.68 34.68 0 1 0 0 43.16 1 1 0 0 0-.2-1.49l-9.57-7.14a1.05 1.05 0 0 0-1.45.19zM274.19 68.45V51.24a.64.64 0 0 1 .63-.65h3L257 34.76a.72.72 0 0 0-.88 0l-20.73 15.76 3 .06a.65.65 0 0 1 .63.65v17.22a.63.63 0 0 1-.64.63h-12.76a.63.63 0 0 1-.64-.63V2.36a.63.63 0 0 1 .64-.64h12.73a.63.63 0 0 1 .64.64v28.5L255.93 18a1.05 1.05 0 0 1 1.3 0l17 12.86V2.36a.63.63 0 0 1 .64-.64h12.73a.63.63 0 0 1 .64.64v66.09a.63.63 0 0 1-.64.63h-12.77a.63.63 0 0 1-.64-.63zM181 .74a34.68 34.68 0 1 0 34.67 34.68A34.72 34.72 0 0 0 181 .74zm0 55.35a20.67 20.67 0 1 1 20.7-20.67A20.69 20.69 0 0 1 181 56.09zM332.14.74a34.68 34.68 0 1 0 34.68 34.68A34.71 34.71 0 0 0 332.14.74zm0 55.35a20.67 20.67 0 1 1 20.67-20.67 20.69 20.69 0 0 1-20.67 20.67zM102.42.74a34.68 34.68 0 1 0 34.67 34.68A34.72 34.72 0 0 0 102.42.74zm0 55.35a20.67 20.67 0 1 1 20.66-20.67 20.69 20.69 0 0 1-20.66 20.67zM448.94 67.7L437.22 3a.76.76 0 0 0-.75-.61h-12.76a.86.86 0 0 0-.82.6l-12.37 41.75L398.15 3a.85.85 0 0 0-.81-.6h-12.77a.74.74 0 0 0-.74.61L372.11 67.7a.65.65 0 0 0 .64.75h12.65a.74.74 0 0 0 .72-.59l6.53-36.08 10.67 33.59a.87.87 0 0 0 .83.61h12.74a.86.86 0 0 0 .83-.61l10.68-33.59 6.53 36.08a.72.72 0 0 0 .72.59h12.64a.65.65 0 0 0 .65-.75z" transform="translate(-1.05 -.74)"/></svg>