<svg id="图层_1" data-name="图层 1" xmlns="http://www.w3.org/2000/svg" viewBox="0 0 447.89 69.35"><defs><style>.cls-1{fill:#1a7aeb;}</style></defs><title>logo_blue</title><path class="cls-1" d="M51.64,48.56a20.58,20.58,0,0,1-16.25,7.52,20.66,20.66,0,1,1,16.25-33.8,1.07,1.07,0,0,0,1.45.2l9.57-7.14a1.06,1.06,0,0,0,.2-1.5,34.68,34.68,0,1,0,0,43.16,1,1,0,0,0-.2-1.49l-9.57-7.14A1.05,1.05,0,0,0,51.64,48.56Z" transform="translate(-1.05 -0.74)"/><path class="cls-1" d="M274.19,68.45V51.24a.64.64,0,0,1,.63-.65l3,0L257,34.76a.72.72,0,0,0-.88,0L235.39,50.52l3,.06a.65.65,0,0,1,.63.65V68.45a.63.63,0,0,1-.64.63H225.62a.63.63,0,0,1-.64-.63V2.36a.63.63,0,0,1,.64-.64h12.73a.63.63,0,0,1,.64.64v28.5L255.93,18a1.05,1.05,0,0,1,1.3,0l17,12.86V2.36a.63.63,0,0,1,.64-.64h12.73a.63.63,0,0,1,.64.64V68.45a.63.63,0,0,1-.64.63H274.83A.63.63,0,0,1,274.19,68.45Z" transform="translate(-1.05 -0.74)"/><path class="cls-1" d="M181,.74a34.68,34.68,0,1,0,34.67,34.68A34.72,34.72,0,0,0,181,.74Zm0,55.35A20.67,20.67,0,1,1,201.7,35.42,20.69,20.69,0,0,1,181,56.09Z" transform="translate(-1.05 -0.74)"/><path class="cls-1" d="M332.14.74a34.68,34.68,0,1,0,34.68,34.68A34.71,34.71,0,0,0,332.14.74Zm0,55.35a20.67,20.67,0,1,1,20.67-20.67A20.69,20.69,0,0,1,332.14,56.09Z" transform="translate(-1.05 -0.74)"/><path class="cls-1" d="M102.42.74a34.68,34.68,0,1,0,34.67,34.68A34.72,34.72,0,0,0,102.42.74Zm0,55.35a20.67,20.67,0,1,1,20.66-20.67A20.69,20.69,0,0,1,102.42,56.09Z" transform="translate(-1.05 -0.74)"/><path class="cls-1" d="M448.94,67.7,437.22,3a.76.76,0,0,0-.75-.61H423.71a.86.86,0,0,0-.82.6L410.52,44.74,398.15,3a.85.85,0,0,0-.81-.6H384.57a.74.74,0,0,0-.74.61L372.11,67.7a.65.65,0,0,0,.64.75H385.4a.74.74,0,0,0,.72-.59l6.53-36.08,10.67,33.59a.87.87,0,0,0,.83.61h12.74a.86.86,0,0,0,.83-.61L428.4,31.78l6.53,36.08a.72.72,0,0,0,.72.59h12.64A.65.65,0,0,0,448.94,67.7Z" transform="translate(-1.05 -0.74)"/></svg>