<?xml version="1.0" encoding="UTF-8" standalone="no"?>
<svg
   xmlns:dc="http://purl.org/dc/elements/1.1/"
   xmlns:cc="http://creativecommons.org/ns#"
   xmlns:rdf="http://www.w3.org/1999/02/22-rdf-syntax-ns#"
   xmlns:svg="http://www.w3.org/2000/svg"
   xmlns="http://www.w3.org/2000/svg"
   viewBox="0 0 1065.5333 280.72"
   height="280.72"
   width="1065.5333"
   xml:space="preserve"
   id="svg2"
   version="1.1"><metadata
     id="metadata8"><rdf:RDF><cc:Work
         rdf:about=""><dc:format>image/svg+xml</dc:format><dc:type
           rdf:resource="http://purl.org/dc/dcmitype/StillImage" /></cc:Work></rdf:RDF></metadata><defs
     id="defs6" /><g
     transform="matrix(1.3333333,0,0,-1.3333333,0,280.72)"
     id="g10"><g
       transform="scale(0.1)"
       id="g12"><path
         id="path14"
         style="fill:#000000;fill-opacity:1;fill-rule:nonzero;stroke:none"
         d="m 2431.96,1070.38 c 124.43,0 186.31,61.18 186.31,153.3 0,92.81 -62.57,153.3 -178.06,153.3 h -139.55 v -306.6 z m -326.54,482.59 h 369.86 c 242.67,0 347.85,-141.61 347.85,-333.41 0,-219.3 -146.43,-324.478 -366.41,-324.478 H 2300.67 V 552.73 h -195.24 l -0.01,1000.24" /><path
         id="path16"
         style="fill:#000000;fill-opacity:1;fill-rule:nonzero;stroke:none"
         d="m 2921.38,1589.38 h 184.24 V 552.73 h -184.24 v 1036.65" /><path
         id="path18"
         style="fill:#000000;fill-opacity:1;fill-rule:nonzero;stroke:none"
         d="m 3762.13,893.711 c 0,109.989 -73.56,192.479 -173.24,192.479 -98.99,0 -176.67,-74.93 -176.67,-192.479 0,-111.371 72.87,-187.68 175.99,-187.68 95.55,0 173.92,74.93 173.92,187.68 z m 176.68,346.499 V 552.762 h -175.3 v 83.148 h -3.44 c -47.43,-61.18 -116.87,-94.84 -205.55,-94.84 -190.42,0 -329.29,140.899 -329.29,353.321 0,208.989 139.56,357.479 323.79,357.479 81.12,0 151.93,-30.25 202.79,-89.37 h 2.76 v 77.68 l 184.24,0.03" /><path
         id="path20"
         style="fill:#000000;fill-opacity:1;fill-rule:nonzero;stroke:none"
         d="m 4494.46,1251.87 c 147.13,0 249.56,-79.74 249.56,-291.479 V 552.039 h -184.24 v 362.262 c 0,131.329 -46.73,171.859 -131.99,171.859 -93.49,0 -156.05,-65.28 -156.05,-187.64 V 552.73 H 4087.5 v 687.45 h 184.24 v -88.68 h 2.06 c 56.36,66 136.13,100.37 220.67,100.37 h -0.01" /><path
         id="path22"
         style="fill:#000000;fill-opacity:1;fill-rule:nonzero;stroke:none"
         d="m 5375.74,543.109 c -288.04,0 -510.09,187.672 -510.09,508.021 0,292.17 189.74,513.55 501.84,513.55 141.62,0 294.23,-55.02 397.35,-171.2 L 5624.6,1274.55 c -61.87,59.81 -147.12,103.81 -257.11,103.81 -164.3,0 -295.6,-123.06 -295.6,-327.23 0,-183.548 116.18,-327.22 303.85,-327.22 72.18,0 138.87,17.18 202.8,57.051 v 147.121 h -224.8 v 169.798 h 415.91 V 666.852 C 5678.91,593.289 5529.73,543.109 5375.76,543.109 h -0.02" /><path
         id="path24"
         style="fill:#000000;fill-opacity:1;fill-rule:nonzero;stroke:none"
         d="m 6324.55,1251.87 c 5.48,0 10.29,0 14.42,-0.69 v -202.11 c -18.55,1.37 -38.49,2.06 -48.81,2.06 -113.43,0 -175.3,-76.989 -175.3,-179.419 V 552.73 h -184.24 v 687.45 h 184.24 v -101.05 h 2.06 c 52.23,72.87 126.49,112.74 207.61,112.74 h 0.02" /><path
         id="path26"
         style="fill:#000000;fill-opacity:1;fill-rule:nonzero;stroke:none"
         d="M 6419.66,1240.18 H 6603.9 V 552.73 h -184.24 z m -22,209.67 c 0,61.19 50.87,112.06 114.12,112.06 62.56,0 114.13,-50.87 114.13,-112.06 0,-62.55 -51.57,-112.74 -114.13,-112.74 -63.25,0 -114.12,50.19 -114.12,112.74" /><path
         id="path28"
         style="fill:#000000;fill-opacity:1;fill-rule:nonzero;stroke:none"
         d="m 7082.67,706.031 c 101.05,0 181.48,74.93 181.48,187.68 0,109.989 -75.62,192.479 -180.8,192.479 -98.99,0 -176.69,-74.93 -176.69,-192.479 0,-111.371 72.87,-187.68 175.99,-187.68 z m 356.08,883.379 V 552.73 h -175.3 v 83.18 h -4.12 c -48.13,-61.18 -118.93,-94.871 -210.36,-94.871 -190.43,0 -329.29,140.93 -329.29,353.352 0,208.989 139.55,357.479 323.79,357.479 83.87,0 156.05,-30.25 207.61,-89.37 h 3.43 v 426.88 l 184.24,0.03" /><path
         id="path30"
         style="fill:#0085de;fill-opacity:1;fill-rule:evenodd;stroke:none"
         d="M 1315,1736.95 H 790.418 c -148.688,0 -242.957,-0.58 -332.059,-89.68 C 369.035,1557.96 368.473,1463.23 368.473,1315 V 790.422 c 0,-148.703 0.586,-242.973 89.672,-332.063 89.367,-89.371 184.046,-89.89 332.273,-89.89 H 1315 c 148.7,0 242.95,0.562 332.06,89.679 89.31,89.301 89.89,184.043 89.89,332.274 V 1315 c 0,148.69 -0.58,242.96 -89.68,332.06 -89.35,89.36 -184.04,89.89 -332.27,89.89" /><path
         id="path32"
         style="fill:#ffffff;fill-opacity:1;fill-rule:nonzero;stroke:none"
         d="m 1425.77,622.691 c -31.44,0 -56.92,25.489 -56.92,56.93 0,31.449 25.48,56.949 56.92,56.949 31.49,0 56.94,-25.5 56.94,-56.949 0,-31.441 -25.45,-56.93 -56.94,-56.93 z m -373.08,43.879 c -212.901,0 -386.12,173.239 -386.12,386.14 0,212.92 173.219,386.14 386.12,386.14 212.92,0 386.16,-173.22 386.16,-386.14 0,-212.901 -173.24,-386.14 -386.16,-386.14 z m 500.02,433.3 c -23.76,254.02 -239.78,452.84 -500,452.84 -276.116,0 -499.999,-223.85 -499.999,-500 0,-266.671 208.445,-485.319 471.429,-499.999 h 396.48 c 72.67,0 132.09,59.418 132.09,132.09 v 415.069" /></g></g></svg>