<svg id="Layer_1" data-name="Layer 1" xmlns="http://www.w3.org/2000/svg" viewBox="0 0 720 271.11"> <defs> <style>.cls-1{fill:none}.cls-2{fill:#d02129}</style> </defs> <rect class="cls-1" width="720" height="271.11"></rect> <path class="cls-2" d="M290.58,200.56l-5.49-.59a116.57,116.57,0,0,1-28-6.4,2.15,2.15,0,0,1-1.62-2.41q.06-59.42,0-118.85V70.55H273.8v40.81l2.82-1a71.44,71.44,0,0,1,27.82-4.56c15.17.66,26.5,8.82,31.89,23A58.79,58.79,0,0,1,339.87,149a86.26,86.26,0,0,1-2.76,24.8c-4,14.43-13.58,22.79-28.15,25.59-2.23.43-4.5.59-6.75.89a8.94,8.94,0,0,0-1,.28Zm-16.74-47.33c0,9.38,0,18.76,0,28.15a1.84,1.84,0,0,0,1.48,2.05,63.59,63.59,0,0,0,17.07,3.7,37.27,37.27,0,0,0,12.31-.8c7.72-2,12.25-7.25,14.34-14.69a75.29,75.29,0,0,0,1.51-33A24.35,24.35,0,0,0,315,126.12c-4.64-5.24-10.76-7.07-17.49-7.16a60,60,0,0,0-22.3,4.13,1.79,1.79,0,0,0-1.39,2c.06,9.38,0,18.76,0,28.15"></path> <path class="cls-2" d="M600.52,200.56,595,200a116,116,0,0,1-28-6.38,2.16,2.16,0,0,1-1.66-2.41q.07-59.49,0-119V70.56h18.27v40.79c1.26-.44,2.29-.79,3.31-1.16a70,70,0,0,1,27.29-4.39c15.48.7,26.77,9,32.13,23.49,3,8,3.6,16.36,3.34,24.8a76.47,76.47,0,0,1-3.39,21.78c-4.21,12.81-13.11,20.34-26.1,23.21-2.71.6-5.5.81-8.25,1.22-.41.06-.8.18-1.2.27Zm-16.77-47.39q0,14.21,0,28.43c0,.81.09,1.35,1,1.68a61,61,0,0,0,24.43,3.91c4.91-.28,9.51-1.62,13.34-4.91,3.61-3.09,5.56-7.17,6.71-11.63a77.18,77.18,0,0,0,1.34-31.35,25.49,25.49,0,0,0-5.18-12.6c-4.64-5.64-10.94-7.62-17.93-7.72A59.5,59.5,0,0,0,585,123.13a1.7,1.7,0,0,0-1.3,1.89c0,9.38,0,18.76,0,28.15"></path> <path class="cls-2" d="M69.83,78.05s28.81-.08,42.33,0A64.49,64.49,0,0,1,131.1,80.7c11.14,3.48,17.7,11.5,19,23.11a56.42,56.42,0,0,1-.68,18c-2.26,10.6-8.89,17.24-18.94,20.73A54.31,54.31,0,0,1,113,145.3c-7.66.09-15.32,0-23,0H88.19v53H69.83ZM88.23,132c.38,0,.6.06.83.06,7.06,0,14.12.1,21.18-.06a45.21,45.21,0,0,0,8.81-1.13c6-1.35,10.39-4.61,12-10.84a35.33,35.33,0,0,0,.57-15.45c-1.12-6.11-4.64-10.22-10.71-11.66a57.34,57.34,0,0,0-11.12-1.55c-6.68-.25-13.37-.07-20.06-.07-.49,0-1,0-1.53.07Z"></path> <path class="cls-2" d="M194.7,200.56c-2.24-.29-4.49-.54-6.72-.88a39.92,39.92,0,0,1-15-5.22c-7.17-4.42-10.83-11-11.66-19.25-.23-2.35-.28-4.73-.28-7.09q0-29.26,0-58.52v-1.73h18.33v1.81q0,26.27,0,52.53A43.91,43.91,0,0,0,181,175.13c2.15,6.94,7,10.89,14.06,11.74a66.39,66.39,0,0,0,25.75-2.33,1.84,1.84,0,0,0,1.57-2.13q-.06-36.37,0-72.75v-1.83h18.32v1.81q0,41.39,0,82.77a1.93,1.93,0,0,1-1.7,2.28,168.56,168.56,0,0,1-32.71,5.63,7.1,7.1,0,0,0-1.06.24Z"></path> <path class="cls-2" d="M504.64,200.56c-2.24-.29-4.49-.54-6.72-.88a40.08,40.08,0,0,1-14.78-5.07c-7.26-4.36-11-10.93-11.89-19.25a63.94,63.94,0,0,1-.28-6.53q0-29.61,0-59.23v-1.75h18.33v1.78q0,26.76,0,53.52a39.93,39.93,0,0,0,1.79,12.34c2.23,6.83,7.08,10.56,14,11.39a68.22,68.22,0,0,0,25.23-2.19,2.3,2.3,0,0,0,2-2.68q-.09-36.17,0-72.33v-1.85h18.23c0,.52.08,1,.08,1.5q0,41.67,0,83.33a1.65,1.65,0,0,1-1.42,1.92,167.1,167.1,0,0,1-32.84,5.71,8.22,8.22,0,0,0-1.2.25Z"></path> <path class="cls-2" d="M453.24,198.31h-17c-3.21,0-6.42,0-9.62,0a2,2,0,0,1-2.15-1.25q-11.16-21.64-22.39-43.24l-30.63-59a2.21,2.21,0,0,0-.86-.94V198.22h-16V78.12c.43,0,.88-.07,1.32-.07,8.36,0,16.72,0,25.08,0a1.84,1.84,0,0,1,1.92,1.17q26.65,51.37,53.37,102.72a2.27,2.27,0,0,0,.87,1V78.15h16.14Z"></path> </svg>
