<svg version="1.1" xmlns="http://www.w3.org/2000/svg" x="0px" y="0px" viewBox="0 0 924.092 294.029" enable-background="new 0 0 924.092 294.029" aria-labelledby="logoTitleImg" role="img">
    <title id="logoTitleImg">Trulia Logo</title>
    <g>
        <circle fill="#000000" cx="700.921" cy="54.323" r="22.6"></circle>
        <path fill="#000000"
              d="M257.252,260.428c-32.896,0-49.189-18.798-49.189-50.127v-82.711h-29.762V95.321h29.762V53.967 l39.163-9.713v51.068h41.04v32.268h-41.04v79.265c0,12.531,5.638,17.857,18.169,17.857c8.146,0,14.725-0.312,25.377-1.567v32.896 C279.808,258.86,268.842,260.428,257.252,260.428z"></path>
        <path fill="#000000"
              d="M397.145,130.097c-27.57,0-41.981,19.736-41.981,46.054v82.083h-39.475V95.321h33.208l3.447,24.436 c7.52-18.798,26.944-26.63,46.054-26.63c4.073,0,8.146,0.314,12.219,0.941v37.594C406.229,130.724,401.53,130.097,397.145,130.097z "></path>
        <path fill="#000000"
              d="M537.864,258.234l-2.82-21.304c-7.832,15.978-26.003,25.377-46.68,25.377 c-34.776,0-56.394-23.497-56.394-58.273V95.321h39.163v99.94c0,19.112,7.52,31.017,28.197,31.017 c9.085,0,15.351-3.447,20.051-8.146c9.399-8.773,11.905-23.497,11.905-36.655V95.321h39.161v162.913H537.864z"></path>
        <path fill="#000000"
              d="M640.575,260.113c-26.63,0-44.487-12.846-44.487-43.86V31.722h39.475v177.952 c0,9.399,2.191,15.663,15.663,15.663c3.447,0,4.387-0.312,6.579-0.312v32.894C649.974,259.487,648.407,260.113,640.575,260.113z"></path>
        <path fill="#000000" d="M681.027,258.234V95.321h39.787v162.913H681.027z"></path>
        <path fill="#000000"
              d="M876.275,260.74c-16.919,0-26.318-10.652-27.57-22.871c-7.52,13.16-26.315,24.438-49.501,24.438 c-38.849,0-58.9-24.438-58.9-51.068c0-31.015,24.124-48.874,55.141-51.066l47.933-3.447v-10.025 c0-15.351-5.326-25.691-27.57-25.691c-18.169,0-28.823,8.146-29.762,23.185h-37.908c2.191-36.657,31.329-52.947,67.67-52.947 c27.885,0,51.694,8.773,61.093,33.208c4.073,10.34,4.699,21.93,4.699,32.896v60.465c0,7.52,2.506,10.34,9.085,10.34 c2.508,0,5.014-0.626,5.014-0.626v28.823C889.12,259.175,885.674,260.74,876.275,260.74z M843.378,185.862l-41.355,3.134 c-11.905,0.939-23.497,8.144-23.497,21.304c0,12.531,10.966,20.363,23.183,20.363c24.438,0,41.669-13.158,41.669-37.282V185.862z"></path>
        <g>
            <path fill="#000000"
                  d="M87.573,31.722c-35.964,0.201-59.18,24.336-59.18,60.831c0,30.212,19.708,56.047,30.941,95.325 c6.431,22.493,9.89,50.025,11.705,70.356h33.068c1.815-20.331,5.274-47.863,11.705-70.356 c11.232-39.278,30.941-65.113,30.941-95.325C146.753,56.058,123.538,31.924,87.573,31.722z M87.763,124.695 c-14.95,0-27.07-12.12-27.07-27.07s12.12-27.07,27.07-27.07c14.951,0,27.07,12.12,27.07,27.07S102.714,124.695,87.763,124.695z"></path>
        </g>
    </g>
</svg>
