<?xml version="1.0" encoding="UTF-8"?>
<svg id="Outshift" xmlns="http://www.w3.org/2000/svg" xmlns:xlink="http://www.w3.org/1999/xlink" viewBox="0 0 552.73 227.44">
  <defs>
    <style>
      .cls-1 {
        fill: none;
      }

      .cls-2 {
        clip-path: url(#clippath);
      }

      .cls-3 {
        fill: #0051af;
      }

      .cls-4 {
        fill: #00bceb;
      }

      .cls-5 {
        fill: #ff6d2d;
      }

      .cls-6 {
        fill: #0f294f;
      }

      .cls-7 {
        fill: #74bf4b;
      }

      .cls-8 {
        clip-path: url(#clippath-1);
      }
    </style>
    <clipPath id="clippath">
      <rect class="cls-1" x="0" y="0" width="552.73" height="227.44"/>
    </clipPath>
    <clipPath id="clippath-1">
      <rect class="cls-1" x="0" y="0" width="552.73" height="227.44"/>
    </clipPath>
  </defs>
  <g id="Logo_Full_Color" data-name="Logo Full Color">
    <g>
      <path class="cls-4" d="m208.49,212.74c0-2.08-.52-3.65-1.56-4.69-.83-.85-1.91-1.27-3.25-1.27-1.55,0-2.78.56-3.7,1.69-.87,1.08-1.31,2.51-1.31,4.27,0,2.13.52,3.75,1.56,4.88.87.98,2.02,1.47,3.44,1.47,1.59,0,2.81-.58,3.63-1.75.79-1.08,1.18-2.61,1.18-4.59h0Zm-10.2,8.48h-2.52v-22.95h3.06v8.67c1.3-1.85,3.15-2.77,5.55-2.77s4.23.85,5.55,2.55c1.17,1.53,1.75,3.56,1.75,6.09,0,3-.8,5.29-2.39,6.89-1.34,1.34-3.05,2.01-5.13,2.01-2.36,0-4.15-.89-5.39-2.68l-.48,2.2h0Z"/>
      <path class="cls-4" d="m228.38,204.64l-5.77,16.8c-.76,2.23-1.5,3.75-2.2,4.56-.83.96-1.9,1.43-3.22,1.43-.55,0-1.21-.1-1.98-.29v-2.49c.59.15,1.13.22,1.59.22.66,0,1.17-.23,1.53-.69.36-.46.82-1.45,1.37-2.98h-.99l-6.09-16.58h3.32l4.69,14.09,4.69-14.09h3.06Z"/>
      <path class="cls-4" d="m265.88,198.26v23.13h5.78v-23.13h-5.78Zm-8.16,6.53c0-1.87-.06-3.56.02-5.23.04-.85-.36-1.19-1.05-1.25-2.02-.17-4.08-.56-6.07-.34-9.69,1.08-13.12,11.2-9.01,18.19,3.2,5.46,9.97,6.83,15.45,5.1.25-.08.6-.38.61-.59.05-1.88.03-3.76.03-5.37-1.95.25-3.72.67-5.5.66-3.12-.01-5.52-2.31-5.81-5.24-.33-3.35,1.4-5.95,4.53-6.83,2.31-.65,4.47-.02,6.8.9h0Zm61.36-6.17c-6.47-2-12.55-.28-15.69,4.39-2.96,4.4-2.68,10.53.67,14.63,3.25,3.98,9.86,5.49,15,3.39.02-.25.05-.52.05-.79,0-1.73,0-3.45,0-5.29-.47.17-.83.4-1.21.44-1.79.2-3.63.7-5.36.45-3.24-.46-4.99-3.31-4.67-6.9.26-2.89,2.78-5.29,5.81-5.24,1.8.03,3.59.49,5.4.75v-5.83h0Zm-39.53,17.79c0,1.17-.04,2.66.04,4.16.02.3.47.8.75.82,2.84.14,5.73.55,8.52.22,4.98-.59,7.89-5.12,6.45-9.53-.8-2.47-2.73-3.74-5.04-4.58-1.02-.37-2.12-.57-3.04-1.11-.62-.36-1.4-1.21-1.34-1.75.06-.57.98-1.3,1.64-1.48,1.06-.28,2.24-.23,3.36-.17,1.01.05,2.01.31,3.05.48v-5.24c-2.52-.1-5.01-.4-7.47-.25-3.83.23-6.29,2.68-6.85,6.38-.46,3.08,1.33,5.76,4.85,7.18,1.09.44,2.24.73,3.32,1.19.91.38,1.87,1.04,1.47,2.11-.26.69-1.18,1.56-1.85,1.6-2.54.16-5.1,0-7.87-.03h0Z"/>
      <g class="cls-2">
        <path class="cls-4" d="m337.55,215.98c-3.4,0-6.14-2.77-6.07-6.14.07-3.41,2.68-5.95,6.12-5.94,3.53,0,6.15,2.61,6.14,6.06-.02,3.41-2.7,6.02-6.18,6.02h0Zm.08-18.11c-7.1,0-12.33,5.15-12.33,12.11,0,6.82,5.3,11.99,12.3,11.99,7.04,0,12.36-5.22,12.35-12.12,0-6.85-5.29-11.99-12.32-11.99h0Z"/>
        <path class="cls-4" d="m0,120.66c.02,4.55,3.78,8.2,8.34,8.18l82.37-.18c4.62-.02,8.28-3.7,8.26-8.26-.02-4.53-3.72-8.21-8.34-8.19l-82.37.18C3.71,112.41-.02,116.12,0,120.66H0Z"/>
      </g>
      <path class="cls-4" d="m55.92,186.93c2.29,3.93,7.37,5.21,11.31,2.92l34.83-20.32c3.99-2.33,5.32-7.35,3.03-11.28-2.28-3.92-7.32-5.25-11.31-2.92l-34.83,20.32c-3.94,2.3-5.31,7.37-3.03,11.29h0Z"/>
      <g class="cls-8">
        <path class="cls-4" d="m110.53,210.93c3.95,2.26,8.99.83,11.25-3.13l10.83-15.44c2.29-4.01.93-9.03-3.02-11.29-3.94-2.25-8.97-.88-11.26,3.13l-10.83,15.45c-2.26,3.96-.91,9.04,3.02,11.29h0Z"/>
        <path class="cls-7" d="m230.64,1.07c-3.95-2.26-8.99-.83-11.26,3.13l-41.03,71.43c-2.29,4.01-.93,9.03,3.02,11.28,3.94,2.25,8.97.88,11.26-3.13L233.66,12.36c2.26-3.96.91-9.04-3.02-11.29h0Z"/>
      </g>
      <path class="cls-5" d="m92.23,65.39c-3.49,2.92-3.9,8.14-.98,11.64l10.72,15.53c2.96,3.54,8.14,4.01,11.63,1.09,3.48-2.91,3.95-8.1.98-11.64l-10.72-15.53c-2.93-3.5-8.16-4-11.63-1.09h0Z"/>
      <path class="cls-3" d="m146.46,21.06c-4.55.02-8.2,3.78-8.18,8.34l.18,40.33c.02,4.62,3.7,8.28,8.26,8.26,4.53-.02,8.21-3.72,8.19-8.34l-.18-40.33c-.02-4.56-3.73-8.28-8.26-8.26h0Z"/>
      <path class="cls-6" d="m195.81,99.71h14.81v42.21c0,8.23,4.03,12.34,12.09,12.34,4.69,0,8.35-1.69,10.98-5.06,2.14-2.88,3.21-6.42,3.21-10.61v-38.87h14.81v64.17h-12.22l-1.6-7.16c-4.61,6.01-11.03,9.01-19.25,9.01-7.57,0-13.37-2.3-17.4-6.91-3.62-4.2-5.43-9.95-5.43-17.28v-41.84h0Z"/>
      <path class="cls-6" d="m299.9,153.02v11.23c-3.46.99-6.75,1.48-9.87,1.48-6.34,0-11.15-1.89-14.44-5.68-2.8-3.21-4.2-7.53-4.2-12.96v-36.04h-9.63v-11.35h9.63l.99-15.43h13.82v15.43h13.58v11.35h-13.58v36.53c0,4.28,2.18,6.42,6.54,6.42,1.89,0,4.28-.33,7.16-.99h0Z"/>
      <path class="cls-6" d="m321.19,145.61c1.15,6.17,5.8,9.26,13.94,9.26,4.52,0,7.94-.86,10.24-2.59,1.89-1.48,2.84-3.41,2.84-5.8,0-3.04-1.65-5.31-4.94-6.79-1.89-.82-6.05-1.97-12.46-3.45-7.9-1.81-13.53-4.28-16.91-7.4-3.38-3.04-5.06-7.03-5.06-11.97,0-6.25,2.55-11.07,7.65-14.44,4.52-3.04,10.74-4.57,18.63-4.57s14.69,1.93,19.62,5.8c4.28,3.29,6.95,7.73,8.02,13.33h-15.06c-1.23-5.51-5.51-8.27-12.83-8.27s-11.11,2.26-11.11,6.79c0,2.3.94,4.03,2.84,5.18,1.89,1.15,5.72,2.43,11.48,3.83,8.89,2.06,15.05,4.36,18.51,6.91,4.36,3.21,6.54,7.73,6.54,13.57,0,6.66-2.71,11.89-8.15,15.67-4.94,3.37-11.6,5.06-19.99,5.06-8.8,0-15.84-2.1-21.1-6.29-4.44-3.54-7.03-8.14-7.78-13.82h15.06Z"/>
      <path class="cls-6" d="m388.51,163.88h-14.81v-88.85h14.81v31.35c4.61-5.68,10.82-8.52,18.63-8.52s13.62,2.39,17.65,7.16c3.62,4.2,5.43,9.92,5.43,17.15v41.71h-14.81v-41.34c0-8.8-4.07-13.21-12.22-13.21-4.53,0-8.15,1.56-10.86,4.69-2.55,2.88-3.82,6.54-3.82,10.98v38.87h0Z"/>
      <polygon class="cls-6" points="457.52 163.88 442.71 163.88 442.71 99.71 457.52 99.71 457.52 163.88 457.52 163.88"/>
      <path class="cls-6" d="m509.41,74.9v11.6c-4.03-1.07-7.24-1.6-9.62-1.6-4.77,0-7.16,2.26-7.16,6.79v8.02h13.95v11.35h-13.95v52.82h-14.81v-52.82h-9.63v-11.35h9.63v-7.28c0-6.42,1.97-11.35,5.92-14.81,3.46-2.96,7.98-4.44,13.58-4.44,3.62,0,7.65.58,12.09,1.73h0Z"/>
      <path class="cls-6" d="m552.73,153.02v11.23c-3.45.99-6.75,1.48-9.87,1.48-6.34,0-11.15-1.89-14.44-5.68-2.8-3.21-4.2-7.53-4.2-12.96v-36.04h-9.63v-11.35h9.63l.99-15.43h13.82v15.43h13.58v11.35h-13.58v36.53c0,4.28,2.18,6.42,6.54,6.42,1.89,0,4.28-.33,7.16-.99h0Z"/>
      <path class="cls-6" d="m460.46,78.18c0,5.59-4.54,10.13-10.13,10.13s-10.13-4.54-10.13-10.13,4.53-10.13,10.13-10.13,10.13,4.54,10.13,10.13h0Z"/>
      <path class="cls-6" d="m151.94,152.04c-11.1,0-20.1-9-20.1-20.1s9-20.1,20.1-20.1,20.1,9,20.1,20.1-9,20.1-20.1,20.1h0Zm0-54.28c-18.88,0-34.18,15.3-34.18,34.18s15.3,34.18,34.18,34.18,34.18-15.3,34.18-34.18-15.3-34.18-34.18-34.18h0Z"/>
    </g>
  </g>
</svg>