<svg version="1.1" xmlns="http://www.w3.org/2000/svg" viewBox="0 0 1940 1442.2761081726217" width="3880"
  height="2884.5522163452433">
  <!-- svg-source:excalidraw -->

  <defs>
    <style class="style-fonts">
      @font-face {
        font-family: "Virgil";
        src: url("https://excalidraw.com/Virgil.woff2");
      }

      @font-face {
        font-family: "Cascadia";
        src: url("https://excalidraw.com/Cascadia.woff2");
      }

      @font-face {
        font-family: "Assistant";
        src: url("https://app.excalidraw.com//dist/excalidraw-assets/Assistant-Regular.woff2");
      }
    </style>

  </defs>
  <rect x="0" y="0" width="1940" height="1442.2761081726217" fill="#ffffff"></rect>
  <g stroke-linecap="round" transform="translate(10 70) rotate(0 960 590)">
    <path
      d="M32 0 C666.65 -5.61, 1301.05 -5.78, 1888 0 M32 0 C405.69 -2.54, 778.99 -2.11, 1888 0 M1888 0 C1910.1 1.58, 1920.42 10.51, 1920 32 M1888 0 C1910.69 -2.09, 1918.58 9.67, 1920 32 M1920 32 C1917.64 359.85, 1916.92 687.03, 1920 1148 M1920 32 C1918.78 306.18, 1918.65 579.39, 1920 1148 M1920 1148 C1921.79 1170.45, 1908.74 1178.13, 1888 1180 M1920 1148 C1919.28 1168.71, 1908.84 1181.93, 1888 1180 M1888 1180 C1380.68 1180.25, 872.71 1179.62, 32 1180 M1888 1180 C1346.59 1186.58, 805.14 1187.02, 32 1180 M32 1180 C11.12 1179.91, -2 1167.77, 0 1148 M32 1180 C9.94 1181.59, 1.68 1169.86, 0 1148 M0 1148 C1.32 733.02, 1.06 318.46, 0 32 M0 1148 C-2.8 842.41, -3.17 537.17, 0 32 M0 32 C-0.96 12.01, 11.74 0.28, 32 0 M0 32 C-2.04 10.61, 9.9 0.37, 32 0"
      stroke="#000000" stroke-width="1" fill="none"></path>
  </g>
  <g transform="translate(770 10) rotate(0 215.1666717529297 20.69999999999999)"><text x="0" y="0"
      font-family="Helvetica, Segoe UI Emoji" font-size="36px" fill="#1971c2" text-anchor="start"
      style="white-space: pre;" direction="ltr" dominant-baseline="text-before-edge">节点网络命名空间</text></g>
  <g stroke-linecap="round" transform="translate(70 150) rotate(0 180 480)">
    <path
      d="M32 0 C128.99 1.61, 224.31 0.99, 328 0 M32 0 C129.73 1.03, 227.12 1.69, 328 0 M328 0 C347.68 -0.95, 358.62 8.76, 360 32 M328 0 C350.91 -1.05, 357.87 11.93, 360 32 M360 32 C359.2 332.69, 359.7 633.54, 360 928 M360 32 C357.38 314.87, 357.25 596.83, 360 928 M360 928 C358.73 948.01, 350.54 960.48, 328 960 M360 928 C358.1 951.24, 351.18 961.79, 328 960 M328 960 C219.43 959.15, 110.96 957.62, 32 960 M328 960 C226.27 960.5, 122.67 959.7, 32 960 M32 960 C8.76 961.81, 1.39 951.19, 0 928 M32 960 C9.52 959.22, -0.93 948.1, 0 928 M0 928 C-0.48 673.1, -0.6 418.88, 0 32 M0 928 C-2.1 599.92, -2.2 271.79, 0 32 M0 32 C0.6 11.72, 12.33 -0.77, 32 0 M0 32 C2.06 12.74, 9.42 0.05, 32 0"
      stroke="#000000" stroke-width="1" fill="none"></path>
  </g>
  <g stroke-linecap="round" transform="translate(910 150) rotate(0 340 190)">
    <path
      d="M32 0 C254.51 2.68, 476.32 2.56, 648 0 M32 0 C193.03 0.46, 353.45 0.83, 648 0 M648 0 C670.24 -0.05, 681.77 12.17, 680 32 M648 0 C667.61 -0.74, 677.8 12.74, 680 32 M680 32 C681.59 148.12, 681.32 265.17, 680 348 M680 32 C679.35 134.66, 679.72 237.32, 680 348 M680 348 C681.33 369.54, 670.8 380.28, 648 380 M680 348 C681.1 369.71, 670.02 381.21, 648 380 M648 380 C412.84 381.78, 176.25 381.83, 32 380 M648 380 C474.81 378.25, 301.71 378.66, 32 380 M32 380 C10.85 381.55, 1.8 368.56, 0 348 M32 380 C8.8 378.3, 1.57 371.25, 0 348 M0 348 C1.67 233.14, 2.39 117.13, 0 32 M0 348 C-0.61 282.73, -0.87 218.21, 0 32 M0 32 C-0.35 10.28, 8.85 1.47, 32 0 M0 32 C1.14 11.74, 9.59 -1.29, 32 0"
      stroke="#000000" stroke-width="1" fill="none"></path>
  </g>
  <g transform="translate(188.0250015258789 1130) rotate(0 60.06666564941406 41.39999999999998)"><text
      x="60.06666564941406" y="0" font-family="Helvetica, Segoe UI Emoji" font-size="36px" fill="#1971c2"
      text-anchor="middle" style="white-space: pre;" direction="ltr"
      dominant-baseline="text-before-edge">Ztunnel</text><text x="60.06666564941406" y="41.4"
      font-family="Helvetica, Segoe UI Emoji" font-size="36px" fill="#1971c2" text-anchor="middle"
      style="white-space: pre;" direction="ltr" dominant-baseline="text-before-edge">Pod</text></g>
  <g stroke-linecap="round" transform="translate(350 310.9838427002268) rotate(0 20 20)">
    <path
      d="M5.37 7.31 C5.37 7.31, 5.37 7.31, 5.37 7.31 M5.37 7.31 C5.37 7.31, 5.37 7.31, 5.37 7.31 M4.98 32.15 C14.78 21.23, 23.28 11.38, 30.56 2.72 M4.98 32.15 C11.55 23.93, 18.48 15.82, 30.56 2.72 M19.02 40.38 C25.14 33.03, 32.48 24.36, 39.36 16.99 M19.02 40.38 C27.2 31.39, 35.17 21.48, 39.36 16.99"
      stroke="#82c91e" stroke-width="2" fill="none"></path>
    <path
      d="M16.88 0.41 C20.89 -0.55, 26.78 0.52, 30.45 2.71 C34.12 4.9, 37.54 9.51, 38.88 13.55 C40.23 17.58, 39.98 22.94, 38.51 26.95 C37.05 30.96, 33.71 35.42, 30.09 37.61 C26.48 39.8, 21.03 40.89, 16.83 40.1 C12.64 39.31, 7.79 36.21, 4.92 32.86 C2.06 29.52, -0.41 24.24, -0.36 20 C-0.3 15.76, 2.26 10.72, 5.26 7.44 C8.26 4.15, 15.59 1.36, 17.66 0.27 C19.73 -0.81, 17.71 0.63, 17.68 0.92 M17.37 0.08 C21.49 -0.91, 27.4 0.18, 31.12 2.56 C34.83 4.93, 38.38 10.14, 39.63 14.33 C40.88 18.51, 40.28 23.72, 38.61 27.67 C36.95 31.62, 33.55 36.05, 29.66 38.03 C25.77 40.01, 19.43 40.45, 15.29 39.53 C11.14 38.61, 7.27 35.85, 4.79 32.5 C2.31 29.14, 0.28 23.64, 0.4 19.4 C0.53 15.17, 2.69 10.17, 5.55 7.09 C8.41 4.01, 15.61 2.03, 17.56 0.93 C19.5 -0.18, 17.2 0.15, 17.23 0.46"
      stroke="#000000" stroke-width="4" fill="none"></path>
  </g>
  <g stroke-linecap="round">
    <g transform="translate(950 350.9838427002268) rotate(0 -290 0)">
      <path
        d="M-0.8 0.24 C-97.23 0.27, -483.09 0.43, -579.57 0.53 M0.97 -0.68 C-95.48 -1.04, -483.41 -1.25, -580.29 -1.32"
        stroke="#000000" stroke-width="4" fill="none"></path>
    </g>
  </g>
  <mask></mask>
  <g stroke-linecap="round">
    <g transform="translate(950 310.9838427002268) rotate(0 -290 0)">
      <path
        d="M0.43 0.53 C-96.05 0.62, -482.93 0.86, -579.68 0.79 M-0.8 -0.24 C-97.34 -0.51, -483.78 -1.2, -580.46 -0.92"
        stroke="#000000" stroke-width="4" fill="none"></path>
    </g>
  </g>
  <mask></mask>
  <g stroke-linecap="round" transform="translate(930 310.9838427002268) rotate(0 20 20)">
    <path
      d="M6.89 4.67 C6.89 4.67, 6.89 4.67, 6.89 4.67 M6.89 4.67 C6.89 4.67, 6.89 4.67, 6.89 4.67 M4.53 31.77 C12.26 23.23, 18.05 15.34, 28.81 3.84 M4.53 31.77 C9.78 25.59, 14.79 20.04, 28.81 3.84 M18.58 40 C25.62 32.12, 33.2 23.79, 39.57 15.85 M18.58 40 C23.27 34.79, 28.17 28.42, 39.57 15.85"
      stroke="#82c91e" stroke-width="2" fill="none"></path>
    <path
      d="M19.38 -0.02 C23.47 -0.36, 29.33 1.89, 32.77 4.66 C36.22 7.42, 39.22 12.39, 40.07 16.57 C40.91 20.76, 40.05 26.08, 37.85 29.78 C35.64 33.49, 30.82 37.21, 26.84 38.8 C22.87 40.39, 17.94 40.72, 14.01 39.32 C10.08 37.92, 5.6 34.08, 3.26 30.42 C0.93 26.75, -0.59 21.59, 0 17.32 C0.58 13.05, 3.37 7.69, 6.79 4.79 C10.21 1.88, 17.93 0.58, 20.51 -0.1 C23.09 -0.78, 22.23 0.26, 22.25 0.68 M17.27 0.49 C21.19 -0.36, 27.27 1.27, 30.78 3.49 C34.29 5.71, 36.98 9.77, 38.35 13.79 C39.72 17.81, 40.44 23.63, 39 27.6 C37.57 31.58, 33.54 35.59, 29.75 37.64 C25.97 39.7, 20.49 40.7, 16.31 39.93 C12.13 39.15, 7.39 36.47, 4.69 33 C1.99 29.53, -0.04 23.42, 0.1 19.12 C0.23 14.82, 2.76 10.35, 5.49 7.2 C8.23 4.05, 14.44 1.34, 16.51 0.23 C18.58 -0.88, 17.63 0.19, 17.89 0.54"
      stroke="#000000" stroke-width="4" fill="none"></path>
  </g>
  <g stroke-linecap="round" transform="translate(110 490) rotate(0 140 100)">
    <path
      d="M7.86 8.16 C7.86 8.16, 7.86 8.16, 7.86 8.16 M7.86 8.16 C7.86 8.16, 7.86 8.16, 7.86 8.16 M8.78 31.49 C17.41 22.18, 22.15 14.01, 34.37 2.05 M8.78 31.49 C18.99 19.72, 28.22 9.81, 34.37 2.05 M8.39 56.32 C20.26 41.33, 31.31 27.45, 55.63 1.98 M8.39 56.32 C18.84 44.65, 30.33 31.79, 55.63 1.98 M8.66 80.4 C23.93 62.01, 38 45.97, 76.89 1.91 M8.66 80.4 C29.99 56.33, 52.14 32.22, 76.89 1.91 M8.27 105.24 C38.61 71.38, 65.62 37.49, 98.15 1.85 M8.27 105.24 C42.32 66.67, 76.94 27.04, 98.15 1.85 M8.54 129.32 C42.88 90.46, 74.93 54.92, 119.41 1.78 M8.54 129.32 C42.13 89.91, 75.86 52.48, 119.41 1.78 M8.15 154.16 C57.73 96.36, 109.91 38.53, 140.67 1.71 M8.15 154.16 C44.37 112.15, 79.98 69.56, 140.67 1.71 M3.82 183.52 C55.31 123.32, 107.97 63.37, 161.28 2.39 M3.82 183.52 C65.04 113.31, 127.42 42.59, 161.28 2.39 M13.27 197.04 C71.28 130.38, 131.21 62.48, 182.54 2.32 M13.27 197.04 C71.62 127.79, 131.73 59.83, 182.54 2.32 M26.66 206.03 C75.14 152.02, 124.48 97.04, 203.8 2.26 M26.66 206.03 C91.28 132.95, 154.62 58.78, 203.8 2.26 M43.98 210.49 C107.5 138.54, 173.52 64.21, 225.06 2.19 M43.98 210.49 C114.34 127.9, 185.13 47.57, 225.06 2.19 M65.24 210.42 C107.83 160.07, 153.84 111.37, 248.28 -0.15 M65.24 210.42 C110.51 160.39, 153.3 111.08, 248.28 -0.15 M86.5 210.35 C140.26 148.12, 192.67 87.64, 264.95 5.07 M86.5 210.35 C129.38 157.99, 173.61 109.03, 264.95 5.07 M107.76 210.28 C151.86 158.58, 196.07 105.63, 278.34 14.05 M107.76 210.28 C165.96 142.34, 224.29 74.78, 278.34 14.05 M129.02 210.21 C179.12 153.87, 225.54 96.24, 282.54 33.61 M129.02 210.21 C184.22 146.2, 238.79 83.78, 282.54 33.61 M150.28 210.14 C198.16 154.3, 246.68 97.63, 282.15 58.44 M150.28 210.14 C181.83 174.31, 214.61 135.81, 282.15 58.44 M171.54 210.07 C205.41 172.58, 240.16 132.81, 282.42 82.53 M171.54 210.07 C196.85 180.5, 223.76 149.34, 282.42 82.53 M192.15 210.76 C219.59 181.45, 245.56 153.27, 282.03 107.36 M192.15 210.76 C212.69 186.87, 233.75 161.63, 282.03 107.36 M213.41 210.69 C228.64 194.6, 240.65 178.13, 282.3 131.44 M213.41 210.69 C238.89 180.29, 264.98 150.63, 282.3 131.44 M234.67 210.62 C249.94 189.39, 266.06 171.83, 282.56 155.53 M234.67 210.62 C245.38 197.15, 257.93 184.34, 282.56 155.53"
      stroke="#a5d8ff" stroke-width="2" fill="none"></path>
    <path
      d="M32 0 C112.96 -0.01, 194.35 -0.25, 248 0 M32 0 C113.42 0.31, 194.46 -0.22, 248 0 M248 0 C269.84 -1.22, 279.81 11.25, 280 32 M248 0 C269.09 -0.28, 279.62 9.51, 280 32 M280 32 C279.81 70.67, 278.69 109.98, 280 168 M280 32 C279.38 61.28, 279.39 88.13, 280 168 M280 168 C278.5 189.04, 270.67 201.25, 248 200 M280 168 C279.3 191.59, 271.07 201.78, 248 200 M248 200 C162.93 200.7, 75.55 199.92, 32 200 M248 200 C185.96 198.65, 125.67 199.57, 32 200 M32 200 C11.39 201.97, -0.56 187.82, 0 168 M32 200 C11.65 198.36, 1.02 189.87, 0 168 M0 168 C-1.37 132.05, 0.22 98.95, 0 32 M0 168 C-0.49 127.82, -1.36 85.59, 0 32 M0 32 C0.56 11.42, 9.72 -0.24, 32 0 M0 32 C-1.72 11.25, 12.19 -0.79, 32 0"
      stroke="#1971c2" stroke-width="4" fill="none"></path>
  </g>
  <g transform="translate(185.71666717529297 560) rotate(0 60.70000076293945 32.19999999999999)"><text
      x="60.70000076293945" y="0" font-family="Helvetica, Segoe UI Emoji" font-size="28px" fill="#1e1e1e"
      text-anchor="middle" style="white-space: pre;" direction="ltr"
      dominant-baseline="text-before-edge">ztunnel</text><text x="60.70000076293945" y="32.199999999999996"
      font-family="Helvetica, Segoe UI Emoji" font-size="28px" fill="#1e1e1e" text-anchor="middle"
      style="white-space: pre;" direction="ltr" dominant-baseline="text-before-edge">容器</text></g>
  <g transform="translate(1016.2166595458984 545) rotate(0 207.85000610351562 20.69999999999999)"><text
      x="207.85000610351562" y="0" font-family="Helvetica, Segoe UI Emoji" font-size="36px" fill="#1971c2"
      text-anchor="middle" style="white-space: pre;" direction="ltr" dominant-baseline="text-before-edge">目标工作负载 Pod</text></g>
  <g stroke-linecap="round" transform="translate(1071.1433770981246 230) rotate(0 130 100)">
    <path
      d="M7.86 8.16 C7.86 8.16, 7.86 8.16, 7.86 8.16 M7.86 8.16 C7.86 8.16, 7.86 8.16, 7.86 8.16 M8.78 31.49 C15.66 23.91, 20.94 18.37, 34.37 2.05 M8.78 31.49 C17.44 22.07, 24.71 13.05, 34.37 2.05 M8.39 56.32 C21.51 42.37, 36.03 25.76, 55.63 1.98 M8.39 56.32 C27.41 34.74, 45.25 13.39, 55.63 1.98 M8.66 80.4 C26.05 58.76, 43.17 42.5, 76.89 1.91 M8.66 80.4 C30.72 54.5, 53.48 30.19, 76.89 1.91 M8.27 105.24 C37.76 67.53, 71.17 31.2, 98.15 1.85 M8.27 105.24 C35.13 75.5, 62.22 43.99, 98.15 1.85 M8.54 129.32 C33.49 101.53, 56.72 77.45, 119.41 1.78 M8.54 129.32 C52.72 78.96, 95.12 30.71, 119.41 1.78 M8.15 154.16 C37.33 122, 65.97 87.6, 140.67 1.71 M8.15 154.16 C38.03 121.56, 66.68 87.1, 140.67 1.71 M3.82 183.52 C60.74 117.28, 114.09 54.33, 161.28 2.39 M3.82 183.52 C48.34 133.63, 92.05 85.07, 161.28 2.39 M13.27 197.04 C69.81 135.53, 123.67 71.57, 182.54 2.32 M13.27 197.04 C65.08 137.13, 116.9 77.23, 182.54 2.32 M26.66 206.03 C90.11 129.14, 157.89 54.07, 203.8 2.26 M26.66 206.03 C76.38 148.37, 126.16 89.06, 203.8 2.26 M43.98 210.49 C81.64 164.87, 122.24 121.46, 225.06 2.19 M43.98 210.49 C79.76 169.32, 115.81 127.13, 225.06 2.19 M65.24 210.42 C116.51 155.1, 163.79 98.11, 244.35 4.38 M65.24 210.42 C134.77 131.53, 204.44 52.48, 244.35 4.38 M86.5 210.35 C120.87 167.77, 155.51 128.84, 257.74 13.37 M86.5 210.35 C145.57 141.87, 204.79 72.59, 257.74 13.37 M107.76 210.28 C157.75 153.97, 203.98 100.57, 261.28 33.68 M107.76 210.28 C152.72 158.33, 196.39 109.05, 261.28 33.68 M129.02 210.21 C169.02 166.37, 206.58 117.62, 261.55 57.76 M129.02 210.21 C168.33 163.98, 206.75 117.99, 261.55 57.76 M150.28 210.14 C177.91 174.5, 207.58 141.27, 261.81 81.84 M150.28 210.14 C186.96 167.59, 223.74 124.04, 261.81 81.84 M171.54 210.07 C196.66 181.33, 217.02 156.21, 261.42 106.68 M171.54 210.07 C206.49 169.37, 241.49 130.67, 261.42 106.68 M192.15 210.76 C214.61 185.74, 237.86 158.65, 261.69 130.76 M192.15 210.76 C209.14 190.84, 226.18 171.62, 261.69 130.76 M213.41 210.69 C231.68 191.66, 247.91 172.35, 261.3 155.6 M213.41 210.69 C226.86 196.76, 239.52 180.86, 261.3 155.6 M243.85 200.05 C245.44 196.42, 248.48 193.11, 258.94 182.7 M243.85 200.05 C248.53 193.5, 255.08 187.67, 258.94 182.7"
      stroke="#e9ecef" stroke-width="2" fill="none"></path>
    <path
      d="M32 0 C75.8 1.15, 114.92 0.54, 228 0 M32 0 C89.96 -1.22, 147.94 -2.81, 228 0 M228 0 C250.57 -0.84, 258.56 9.56, 260 32 M228 0 C250.52 -1.93, 258.39 8.4, 260 32 M260 32 C262.53 76.12, 261.85 119.14, 260 168 M260 32 C259.07 66.14, 260.21 100.28, 260 168 M260 168 C260.06 191.33, 250.68 198.72, 228 200 M260 168 C257.82 189.29, 250.98 198.89, 228 200 M228 200 C166.41 201.23, 104.99 199.55, 32 200 M228 200 C161.34 199.88, 93.54 198.08, 32 200 M32 200 C11.61 201.92, -0.8 190.23, 0 168 M32 200 C12.82 200.61, 0.9 189.71, 0 168 M0 168 C0.15 137.14, -1.04 106.84, 0 32 M0 168 C0.03 136.37, 0.16 102.21, 0 32 M0 32 C-0.25 11.79, 9.6 1.3, 32 0 M0 32 C-0.81 10.02, 9.48 0.72, 32 0"
      stroke="#1e1e1e" stroke-width="4" fill="none"></path>
  </g>
  <g transform="translate(519.9916687011719 317.5) rotate(0 143.14999389648438 16.100000000000023)"><text
      x="143.14999389648438" y="0" font-family="Helvetica, Segoe UI Emoji" font-size="28px" fill="#1e1e1e"
      text-anchor="middle" style="white-space: pre;" direction="ltr" dominant-baseline="text-before-edge">明文套接字 15006</text></g>
  <g stroke-linecap="round" transform="translate(1130 370) rotate(0 20 20)">
    <path
      d="M6.4 5.56 C6.4 5.56, 6.4 5.56, 6.4 5.56 M6.4 5.56 C6.4 5.56, 6.4 5.56, 6.4 5.56 M4.69 31.91 C13.49 22.09, 23.9 10.21, 29.62 3.23 M4.69 31.91 C14.22 21.47, 23.97 9.68, 29.62 3.23 M19.39 39.38 C25 31.63, 31.5 25.96, 40.39 15.23 M19.39 39.38 C26.85 30.84, 33.86 22.8, 40.39 15.23"
      stroke="#82c91e" stroke-width="2" fill="none"></path>
    <path
      d="M18.92 0.06 C23.01 -0.33, 28.71 1.63, 32.2 4.18 C35.7 6.74, 38.99 11.23, 39.88 15.39 C40.78 19.55, 39.53 25.21, 37.57 29.12 C35.61 33.03, 31.97 37.11, 28.11 38.84 C24.26 40.57, 18.61 40.87, 14.44 39.51 C10.27 38.14, 5.43 34.4, 3.1 30.65 C0.78 26.89, -0.02 21.15, 0.51 16.99 C1.04 12.83, 3 8.53, 6.29 5.68 C9.58 2.82, 17.6 0.72, 20.25 -0.15 C22.9 -1.03, 22.18 0.11, 22.21 0.45 M17.3 0.78 C21.34 0.22, 27.26 1.82, 30.96 4.04 C34.67 6.26, 38.2 10.01, 39.54 14.1 C40.88 18.18, 40.75 24.67, 38.99 28.56 C37.23 32.46, 32.85 35.55, 28.99 37.46 C25.12 39.37, 20.06 41.02, 15.8 40.02 C11.54 39.02, 6.12 35.02, 3.44 31.47 C0.77 27.92, -0.61 22.91, -0.24 18.7 C0.14 14.5, 2.74 9.41, 5.69 6.23 C8.64 3.06, 15.35 0.5, 17.45 -0.33 C19.54 -1.16, 18.05 0.9, 18.25 1.23"
      stroke="#000000" stroke-width="4" fill="none"></path>
  </g>
  <g transform="translate(1189.9916687011719 370) rotate(0 45.11666488647461 16.100000000000023)"><text
      x="45.11666488647461" y="0" font-family="Helvetica, Segoe UI Emoji" font-size="28px" fill="#1e1e1e"
      text-anchor="middle" style="white-space: pre;" direction="ltr" dominant-baseline="text-before-edge">端口 80</text>
  </g>
  <g stroke-linecap="round">
    <g transform="translate(1071.1433770981246 350) rotate(0 130 0)">
      <path d="M0.21 -1.16 C43.36 -1.05, 216.49 0.55, 259.7 0.73 M-1.14 0.84 C41.76 0.6, 215.34 -1.07, 258.6 -1.01"
        stroke="#1e1e1e" stroke-width="4" fill="none"></path>
    </g>
  </g>
  <mask></mask>
  <g transform="translate(1114.0350473251754 250) rotate(0 87.66666412353516 32.19999999999999)"><text
      x="87.66666412353516" y="2" font-family="Helvetica, Segoe UI Emoji" font-size="28px" fill="#1e1e1e"
      text-anchor="middle" style="white-space: pre;" direction="ltr" dominant-baseline="text-before-edge">     目标工作负载
    </text><text x="87.66666412353516" y="39.199999999999996" font-family="Helvetica, Segoe UI Emoji" font-size="28px"
      fill="#1e1e1e" text-anchor="middle" style="white-space: pre;" direction="ltr"
      dominant-baseline="text-before-edge">Pod</text></g>
  <g mask="url(#mask-AMj0cXKO-O0bOp0juTUzp)" stroke-linecap="round">
    <g transform="translate(1830.6442644917965 290.4179595591587) rotate(0 -190 -10)">
      <path
        d="M-0.35 0.25 C-30.46 -3.18, -117.77 -20.2, -181.03 -20.42 C-244.29 -20.63, -346.77 -4.59, -379.92 -1.04 M1.67 -0.66 C-28.04 -3.94, -115.14 -19.16, -178.86 -19.1 C-242.58 -19.03, -347.18 -3.25, -380.64 -0.27"
        stroke="#f08c00" stroke-width="4" fill="none"></path>
    </g>
    <g transform="translate(1830.6442644917965 290.4179595591587) rotate(0 -190 -10)">
      <path
        d="M-358.29 -11.47 C-363.85 -10.25, -370.97 -5.39, -380.64 -0.27 M-358.29 -11.47 C-362.41 -8.01, -367.04 -5.83, -380.64 -0.27"
        stroke="#f08c00" stroke-width="4" fill="none"></path>
    </g>
    <g transform="translate(1830.6442644917965 290.4179595591587) rotate(0 -190 -10)">
      <path
        d="M-356.32 5.52 C-362.44 2.18, -370.08 2.47, -380.64 -0.27 M-356.32 5.52 C-360.87 5.37, -365.92 3.93, -380.64 -0.27"
        stroke="#f08c00" stroke-width="4" fill="none"></path>
    </g>
  </g>
  <mask id="mask-AMj0cXKO-O0bOp0juTUzp">
    <rect x="0" y="0" fill="#fff" width="2310.6442644917965" height="410.4179595591587"></rect>
    <rect x="1646.852597745657" y="252.9179595591587" fill="#000" width="7.583333492279053" height="35" opacity="1">
    </rect>
  </mask>
  <g transform="translate(1646.852597745657 252.9179595591587) rotate(0 -5.695255941152709 27.417843466340912)"><text
      x="3.7916667461395264" y="0" font-family="Virgil, Segoe UI Emoji" font-size="28px" fill="#f08c00"
      text-anchor="middle" style="white-space: pre;" direction="ltr" dominant-baseline="text-before-edge">1</text></g>
  <g stroke-linecap="round" transform="translate(1390 170) rotate(0 30 160)">
    <path
      d="M15 0 C26.96 2.04, 39.43 2.14, 45 0 M15 0 C26.05 0.96, 36.83 -0.66, 45 0 M45 0 C53.59 0.19, 60.14 6.25, 60 15 M45 0 C54.43 0.4, 58.51 6.51, 60 15 M60 15 C58.29 95.39, 59.65 174.71, 60 305 M60 15 C60.08 109.96, 61.1 205.93, 60 305 M60 305 C59.18 316.44, 56.7 318.61, 45 320 M60 305 C61.25 313.97, 55.62 321.31, 45 320 M45 320 C35.3 318.4, 21.57 318.14, 15 320 M45 320 C33.18 319.68, 21.11 320.24, 15 320 M15 320 C4.83 319.43, -0.76 314.03, 0 305 M15 320 C5.83 319.54, 0.08 316.57, 0 305 M0 305 C2.14 224.27, -0.33 144.99, 0 15 M0 305 C-0.1 230.57, -0.15 155.87, 0 15 M0 15 C0.7 5.77, 4.56 -0.68, 15 0 M0 15 C-0.42 2.8, 3.61 0.94, 15 0"
      stroke="#1e1e1e" stroke-width="4" fill="none"></path>
  </g>
  <g transform="translate(1412.5083332061768 202.5) rotate(0 7.7833333015441895 128.79999999999995)"><text
      x="7.7833333015441895" y="0" font-family="Helvetica, Segoe UI Emoji" font-size="28px" fill="#1e1e1e"
      text-anchor="middle" style="white-space: pre;" direction="ltr" dominant-baseline="text-before-edge">i</text><text
      x="7.7833333015441895" y="32.199999999999996" font-family="Helvetica, Segoe UI Emoji" font-size="28px"
      fill="#1e1e1e" text-anchor="middle" style="white-space: pre;" direction="ltr"
      dominant-baseline="text-before-edge">p</text><text x="7.7833333015441895" y="64.39999999999999"
      font-family="Helvetica, Segoe UI Emoji" font-size="28px" fill="#1e1e1e" text-anchor="middle"
      style="white-space: pre;" direction="ltr" dominant-baseline="text-before-edge">t</text><text
      x="7.7833333015441895" y="96.6" font-family="Helvetica, Segoe UI Emoji" font-size="28px" fill="#1e1e1e"
      text-anchor="middle" style="white-space: pre;" direction="ltr" dominant-baseline="text-before-edge">a</text><text
      x="7.7833333015441895" y="128.79999999999998" font-family="Helvetica, Segoe UI Emoji" font-size="28px"
      fill="#1e1e1e" text-anchor="middle" style="white-space: pre;" direction="ltr"
      dominant-baseline="text-before-edge">b</text><text x="7.7833333015441895" y="160.99999999999997"
      font-family="Helvetica, Segoe UI Emoji" font-size="28px" fill="#1e1e1e" text-anchor="middle"
      style="white-space: pre;" direction="ltr" dominant-baseline="text-before-edge">l</text><text
      x="7.7833333015441895" y="193.2" font-family="Helvetica, Segoe UI Emoji" font-size="28px" fill="#1e1e1e"
      text-anchor="middle" style="white-space: pre;" direction="ltr" dominant-baseline="text-before-edge">e</text><text
      x="7.7833333015441895" y="225.39999999999998" font-family="Helvetica, Segoe UI Emoji" font-size="28px"
      fill="#1e1e1e" text-anchor="middle" style="white-space: pre;" direction="ltr"
      dominant-baseline="text-before-edge">s</text></g>
  <g transform="translate(1527.1333312988281 222.5000000000001) rotate(0 143.9166717529297 16.100000000000023)"><text
      x="143.9166717529297" y="0" font-family="Helvetica, Segoe UI Emoji" font-size="28px" fill="#f08c00"
      text-anchor="middle" style="white-space: pre;" direction="ltr" dominant-baseline="text-before-edge">至 Pod 80 端口的明文</text></g>
  <g mask="url(#mask--KpEL8I6oPkf3iCinIqf6)" stroke-linecap="round">
    <g transform="translate(1390 470) rotate(0 -210 -60)">
      <path
        d="M0.78 0.65 C-39.33 0.8, -170.12 19.94, -240.23 -0.01 C-310.34 -19.95, -389.88 -98.85, -419.89 -119.01 M-0.26 -0.05 C-40.59 0.39, -171.24 21.66, -241.3 1.53 C-311.35 -18.6, -390.78 -100.51, -420.6 -120.83"
        stroke="#f08c00" stroke-width="4" fill="none"></path>
    </g>
    <g transform="translate(1390 470) rotate(0 -210 -60)">
      <path
        d="M-397 -112.58 C-403.8 -115.59, -412.84 -117.8, -420.6 -120.83 M-397 -112.58 C-406.53 -116.78, -415.13 -118.3, -420.6 -120.83"
        stroke="#f08c00" stroke-width="4" fill="none"></path>
    </g>
    <g transform="translate(1390 470) rotate(0 -210 -60)">
      <path
        d="M-407.82 -99.34 C-410.87 -106.88, -416.27 -113.55, -420.6 -120.83 M-407.82 -99.34 C-413.18 -108.52, -417.64 -115.11, -420.6 -120.83"
        stroke="#f08c00" stroke-width="4" fill="none"></path>
    </g>
  </g>
  <mask id="mask--KpEL8I6oPkf3iCinIqf6">
    <rect x="0" y="0" fill="#fff" width="1910" height="690"></rect>
    <rect x="1140.0333337783813" y="452.5" fill="#000" width="19.933332443237305" height="35" opacity="1"></rect>
  </mask>
  <g transform="translate(1140.0333337783813 452.5) rotate(0 40.05983458336436 -37.8281067215986)"><text
      x="9.966666221618652" y="0" font-family="Virgil, Segoe UI Emoji" font-size="28px" fill="#f08c00"
      text-anchor="middle" style="white-space: pre;" direction="ltr" dominant-baseline="text-before-edge">2</text></g>
  <g transform="translate(1064.2333374023438 470) rotate(28.945312024590034 52.91666793823242 16.100000000000023)"><text
      x="52.91666793823242" y="0" font-family="Helvetica, Segoe UI Emoji" font-size="28px" fill="#f08c00"
      text-anchor="middle" style="white-space: pre;" direction="ltr" dominant-baseline="text-before-edge">至代理</text></g>
  <g mask="url(#mask-EJHK6ZW8Mtc8hI1gzTd0Z)" stroke-linecap="round">
    <g transform="translate(970 330) rotate(0 79.5 30)">
      <path
        d="M-0.83 -1.2 C9.33 -1.16, 33.64 -10.64, 60.16 -0.32 C86.68 10.01, 141.72 50.67, 158.29 60.77 M0.93 0.79 C11.02 1.05, 32.65 -8.62, 59.3 1.06 C85.94 10.73, 144.01 48.75, 160.81 58.84"
        stroke="#f08c00" stroke-width="4" fill="none"></path>
    </g>
    <g transform="translate(970 330) rotate(0 79.5 30)">
      <path
        d="M136.34 53.7 C140.06 55.34, 147.27 55.09, 160.81 58.84 M136.34 53.7 C145.18 56.27, 154.19 56.42, 160.81 58.84"
        stroke="#f08c00" stroke-width="4" fill="none"></path>
    </g>
    <g transform="translate(970 330) rotate(0 79.5 30)">
      <path
        d="M145.37 39.18 C146.9 44.16, 151.99 47.32, 160.81 58.84 M145.37 39.18 C150.99 47.07, 156.71 52.5, 160.81 58.84"
        stroke="#f08c00" stroke-width="4" fill="none"></path>
    </g>
  </g>
  <mask id="mask-EJHK6ZW8Mtc8hI1gzTd0Z">
    <rect x="0" y="0" fill="#fff" width="1229" height="490"></rect>
    <rect x="1020.4666662216187" y="312.5" fill="#000" width="19.066667556762695" height="35" opacity="1"></rect>
  </mask>
  <g transform="translate(1020.4666662216187 312.5) rotate(0 29.5216640393063 45.318949143607824)"><text
      x="9.533333778381348" y="0" font-family="Virgil, Segoe UI Emoji" font-size="28px" fill="#f08c00"
      text-anchor="middle" style="white-space: pre;" direction="ltr" dominant-baseline="text-before-edge">3</text></g>
  <g stroke-linecap="round" transform="translate(910 690) rotate(0 340 197.5)">
    <path
      d="M32 0 C221.25 -0.88, 409.81 -0.59, 648 0 M32 0 C261.77 0.99, 491.73 1.19, 648 0 M648 0 C670.86 1.31, 680.72 11.42, 680 32 M648 0 C669.63 -0.8, 680.43 8.4, 680 32 M680 32 C680.49 123.46, 680.25 213.4, 680 363 M680 32 C682.38 135.79, 681.66 240.18, 680 363 M680 363 C678.9 383.26, 668.84 393.49, 648 395 M680 363 C679.37 385.36, 667.53 393.43, 648 395 M648 395 C492.78 393.51, 338.6 392.94, 32 395 M648 395 C461.61 392.74, 274.36 392.74, 32 395 M32 395 C11.73 394.89, 0.72 383.06, 0 363 M32 395 C11.56 393.88, 2.28 384.51, 0 363 M0 363 C0.9 287.5, 0.91 210.43, 0 32 M0 363 C-0.15 259.31, 0.2 155.63, 0 32 M0 32 C1.99 11.78, 11.78 1.25, 32 0 M0 32 C-1.2 10.87, 11.68 1.8, 32 0"
      stroke="#000000" stroke-width="1" fill="none"></path>
  </g>
  <g stroke-linecap="round" transform="translate(350 830) rotate(0 20 20)">
    <path
      d="M10.08 2.14 C10.08 2.14, 10.08 2.14, 10.08 2.14 M10.08 2.14 C10.08 2.14, 10.08 2.14, 10.08 2.14 M5.1 32.26 C13.73 22.83, 23.05 11.71, 29.37 4.33 M5.1 32.26 C13.09 23.28, 20.43 13.97, 29.37 4.33 M19.8 39.74 C26.12 34.26, 30.91 27.01, 38.82 17.85 M19.8 39.74 C24.69 34.37, 28.67 28.78, 38.82 17.85"
      stroke="#82c91e" stroke-width="2" fill="none"></path>
    <path
      d="M23.99 0.43 C27.96 0.94, 32.78 4.2, 35.36 7.5 C37.95 10.79, 39.53 15.93, 39.5 20.2 C39.48 24.48, 37.96 29.84, 35.23 33.16 C32.5 36.48, 27.38 39.44, 23.1 40.14 C18.83 40.84, 13.24 39.55, 9.58 37.36 C5.93 35.16, 2.49 31.03, 1.17 26.98 C-0.15 22.94, 0.18 17.19, 1.66 13.06 C3.13 8.93, 6.15 4.31, 10.03 2.2 C13.91 0.08, 22.29 0.52, 24.93 0.37 C27.56 0.21, 25.96 0.9, 25.83 1.25 M21.87 0.52 C25.97 0.76, 31 2.82, 34.02 5.93 C37.04 9.04, 39.74 14.83, 40 19.16 C40.27 23.49, 38.08 28.62, 35.6 31.9 C33.12 35.17, 29.12 37.83, 25.13 38.79 C21.13 39.75, 15.63 39.5, 11.63 37.66 C7.63 35.83, 2.87 31.66, 1.13 27.77 C-0.61 23.87, -0.13 18.46, 1.21 14.3 C2.56 10.15, 5.66 5.28, 9.21 2.86 C12.76 0.44, 20.24 0.14, 22.53 -0.24 C24.81 -0.62, 23.1 0.27, 22.93 0.58"
      stroke="#000000" stroke-width="4" fill="none"></path>
  </g>
  <g stroke-linecap="round">
    <g transform="translate(950.7092195781879 870.9838427002269) rotate(0 -290 0)">
      <path
        d="M0.92 0.79 C-95.73 0.71, -482.77 0.65, -579.57 0.45 M-0.06 0.15 C-96.86 -0.37, -483.54 -1.52, -580.29 -1.43"
        stroke="#000000" stroke-width="4" fill="none"></path>
    </g>
  </g>
  <mask></mask>
  <g stroke-linecap="round">
    <g transform="translate(950.7092195781879 830.9838427002269) rotate(0 -290 0)">
      <path
        d="M0.43 0.45 C-96.36 0.25, -483.14 -0.14, -579.84 -0.42 M-0.8 -0.35 C-97.82 -0.46, -484.1 0.92, -580.71 0.9"
        stroke="#000000" stroke-width="4" fill="none"></path>
    </g>
  </g>
  <mask></mask>
  <g stroke-linecap="round" transform="translate(930 830) rotate(0 20 20)">
    <path
      d="M7.54 3.91 C7.54 3.91, 7.54 3.91, 7.54 3.91 M7.54 3.91 C7.54 3.91, 7.54 3.91, 7.54 3.91 M4.53 31.76 C10.24 25.76, 15.73 18.32, 28.8 3.84 M4.53 31.76 C12.07 23.72, 19.65 14.95, 28.8 3.84 M19.88 38.48 C25.77 32.86, 30.48 25.5, 38.91 16.6 M19.88 38.48 C24.4 33.04, 29.5 27.02, 38.91 16.6"
      stroke="#82c91e" stroke-width="2" fill="none"></path>
    <path
      d="M21.06 0.07 C25.21 0.09, 30.41 2.75, 33.52 5.68 C36.62 8.61, 39.15 13.39, 39.71 17.65 C40.28 21.91, 39.15 27.65, 36.91 31.25 C34.68 34.86, 30.44 38.16, 26.29 39.31 C22.15 40.46, 16.06 39.87, 12.03 38.14 C8.01 36.41, 4.11 32.69, 2.14 28.91 C0.17 25.14, -0.67 19.65, 0.22 15.49 C1.11 11.34, 3.89 6.6, 7.49 3.96 C11.09 1.32, 19.41 0.28, 21.81 -0.33 C24.2 -0.94, 21.87 -0.07, 21.85 0.28 M17.63 0.11 C21.72 -0.7, 28.09 0.5, 31.79 2.89 C35.49 5.28, 38.83 10.24, 39.81 14.44 C40.78 18.64, 39.45 24.16, 37.64 28.09 C35.84 32.02, 32.71 36.23, 28.98 38.03 C25.24 39.82, 19.39 40.01, 15.23 38.88 C11.06 37.74, 6.39 34.62, 3.99 31.22 C1.58 27.82, 0.6 22.75, 0.81 18.45 C1.02 14.15, 2.32 8.56, 5.25 5.44 C8.17 2.32, 16.11 0.61, 18.37 -0.27 C20.62 -1.16, 18.73 -0.28, 18.79 0.13"
      stroke="#000000" stroke-width="4" fill="none"></path>
  </g>
  <g transform="translate(1087.4916610717773 1102.5) rotate(0 174.81666564941406 20.700000000000045)"><text
      x="174.81666564941406" y="0" font-family="Helvetica, Segoe UI Emoji" font-size="36px" fill="#1971c2"
      text-anchor="middle" style="white-space: pre;" direction="ltr" dominant-baseline="text-before-edge">源工作负载 Pod</text></g>
  <g stroke-linecap="round" transform="translate(1071.1433770981248 770) rotate(0 130 100)">
    <path
      d="M7.86 8.16 C7.86 8.16, 7.86 8.16, 7.86 8.16 M7.86 8.16 C7.86 8.16, 7.86 8.16, 7.86 8.16 M0.91 40.54 C12.68 25.74, 25.6 11.27, 36.34 -0.21 M0.91 40.54 C12.93 26.5, 26.45 11.29, 36.34 -0.21 M1.18 64.62 C14.93 48.76, 29.03 31.37, 57.6 -0.28 M1.18 64.62 C13.22 50.59, 25.11 38.37, 57.6 -0.28 M0.79 89.46 C19.98 65.02, 42.97 42.22, 78.2 0.41 M0.79 89.46 C17.19 70.42, 33.24 52.97, 78.2 0.41 M1.05 113.54 C29.94 80.68, 57.19 52.1, 99.46 0.34 M1.05 113.54 C23.27 87.28, 47.93 58.85, 99.46 0.34 M0.66 138.38 C40.32 88.13, 84.66 41.78, 120.72 0.27 M0.66 138.38 C40.34 95.71, 77.41 51.35, 120.72 0.27 M0.93 162.46 C30.54 129.24, 59.99 94.46, 141.98 0.2 M0.93 162.46 C35.08 124.71, 69.16 86.27, 141.98 0.2 M3.17 184.28 C50.23 130.81, 98.21 75.53, 163.24 0.13 M3.17 184.28 C44.41 138.34, 84.12 91.09, 163.24 0.13 M14.58 195.53 C66.73 136.31, 114.87 80.42, 184.5 0.06 M14.58 195.53 C78.33 121.79, 141.33 47.55, 184.5 0.06 M31.25 200.74 C92.29 130.83, 152.93 62.62, 205.76 -0.01 M31.25 200.74 C100.85 121.58, 169.19 41.6, 205.76 -0.01 M52.51 200.67 C85.98 158.96, 124.13 116.54, 227.02 -0.08 M52.51 200.67 C86.65 160.34, 123.14 118.14, 227.02 -0.08 M73.77 200.61 C111.38 158.9, 148.81 115.04, 245 3.63 M73.77 200.61 C112.25 158.07, 149.55 114.25, 245 3.63 M95.03 200.54 C148.57 139.13, 202.52 77.31, 256.42 14.88 M95.03 200.54 C144.76 144.16, 194.23 86.8, 256.42 14.88 M116.29 200.47 C148.17 165.94, 178.01 131.04, 259.97 35.19 M116.29 200.47 C172.02 133.56, 228.47 69.94, 259.97 35.19 M137.55 200.4 C174.59 158.44, 210.07 117.86, 260.24 59.27 M137.55 200.4 C161.68 170.57, 187.01 140.69, 260.24 59.27 M158.81 200.33 C185.9 167.08, 216.27 131.6, 259.85 84.1 M158.81 200.33 C187.68 167.63, 217.06 134.03, 259.85 84.1 M180.07 200.26 C198.53 180.08, 214.99 158.75, 260.11 108.19 M180.07 200.26 C202.87 172.16, 225.91 144.61, 260.11 108.19 M200.68 200.95 C225.69 171.99, 248.82 148.1, 260.38 132.27 M200.68 200.95 C215.56 182.8, 232.33 164.2, 260.38 132.27 M221.94 200.88 C234.66 186.47, 248.93 171.75, 259.99 157.1 M221.94 200.88 C232.55 186.95, 244.28 174.1, 259.99 157.1 M247.79 195.53 C250.38 191.84, 253.63 189.48, 255.01 187.22 M247.79 195.53 C250.55 192.15, 253.62 189.03, 255.01 187.22"
      stroke="#e9ecef" stroke-width="2" fill="none"></path>
    <path
      d="M32 0 C94.96 0.72, 156.73 2.06, 228 0 M32 0 C86.85 0.38, 140.29 -0.82, 228 0 M228 0 C248.07 -0.39, 258.9 9.59, 260 32 M228 0 C248.77 -1.74, 259.37 11.7, 260 32 M260 32 C260.12 60.9, 258.32 92.4, 260 168 M260 32 C259.68 79.31, 259.81 128.03, 260 168 M260 168 C258.56 188.71, 250.4 199.89, 228 200 M260 168 C260.83 187.87, 250.23 198.88, 228 200 M228 200 C148.43 199.32, 70.65 200.34, 32 200 M228 200 C178.54 200.88, 128.84 200.42, 32 200 M32 200 C11.11 200.64, 1.99 190.44, 0 168 M32 200 C11.94 201.43, -1.2 189.54, 0 168 M0 168 C-0.52 122.89, -0.42 75.16, 0 32 M0 168 C1.01 122.5, 1.48 77.02, 0 32 M0 32 C1.56 11.34, 10.18 -1.13, 32 0 M0 32 C-1.91 11.99, 11.44 0.09, 32 0"
      stroke="#1e1e1e" stroke-width="4" fill="none"></path>
  </g>
  <g transform="translate(524.650885227602 837.5) rotate(0 150.93333435058594 16.100000000000023)"><text
      x="150.93333435058594" y="0" font-family="Helvetica, Segoe UI Emoji" font-size="28px" fill="#1e1e1e"
      text-anchor="middle" style="white-space: pre;" direction="ltr" dominant-baseline="text-before-edge">出站套接字 15001</text></g>
  <g stroke-linecap="round" transform="translate(1130 910) rotate(0 20 20)">
    <path
      d="M1.58 11.97 C1.58 11.97, 1.58 11.97, 1.58 11.97 M1.58 11.97 C1.58 11.97, 1.58 11.97, 1.58 11.97 M5.78 31.52 C14.05 21.91, 21.22 12.03, 30.05 3.6 M5.78 31.52 C13.92 21.29, 22.81 11.85, 30.05 3.6 M20.48 39 C23.98 33.16, 28.66 28.35, 38.85 17.87 M20.48 39 C24.89 34.21, 29.78 28.15, 38.85 17.87"
      stroke="#82c91e" stroke-width="2" fill="none"></path>
    <path
      d="M24.32 0.22 C28.27 0.82, 33.37 4.29, 35.93 7.76 C38.49 11.22, 39.99 16.71, 39.7 21.01 C39.41 25.31, 37.04 30.49, 34.19 33.57 C31.34 36.64, 26.82 38.98, 22.57 39.47 C18.33 39.96, 12.27 38.82, 8.69 36.48 C5.12 34.15, 2.32 29.51, 1.11 25.45 C-0.1 21.39, -0.26 16.07, 1.44 12.13 C3.13 8.19, 7.25 3.66, 11.27 1.81 C15.29 -0.03, 23.1 1.07, 25.54 1.07 C27.98 1.07, 26.02 1.59, 25.89 1.8 M18.72 -0.42 C22.74 -1.04, 28.36 0.78, 31.92 3.36 C35.49 5.95, 39.18 10.94, 40.11 15.07 C41.04 19.19, 39.46 24.31, 37.53 28.11 C35.6 31.91, 32.23 36.04, 28.52 37.84 C24.81 39.64, 19.37 39.98, 15.27 38.91 C11.16 37.84, 6.43 34.81, 3.9 31.41 C1.37 28.02, -0.23 22.79, 0.08 18.53 C0.39 14.26, 2.69 8.87, 5.78 5.84 C8.87 2.8, 16.38 1.13, 18.62 0.3 C20.86 -0.53, 19.16 0.51, 19.23 0.88"
      stroke="#000000" stroke-width="4" fill="none"></path>
  </g>
  <g transform="translate(1189.9916687011719 910) rotate(0 45.11666488647461 16.100000000000023)"><text
      x="45.11666488647461" y="0" font-family="Helvetica, Segoe UI Emoji" font-size="28px" fill="#1e1e1e"
      text-anchor="middle" style="white-space: pre;" direction="ltr" dominant-baseline="text-before-edge">端口 80</text>
  </g>
  <g stroke-linecap="round">
    <g transform="translate(1071.1433770981248 890) rotate(0 130 0)">
      <path d="M0.52 -0.63 C43.55 -0.81, 216.11 -0.23, 259.24 -0.23 M-0.66 1.65 C42.65 1.59, 218.41 1.4, 261.56 1.18"
        stroke="#1e1e1e" stroke-width="4" fill="none"></path>
    </g>
  </g>
  <mask></mask>
  <g transform="translate(1106.7250061035156 790) rotate(0 87.66666412353516 32.200000000000045)"><text
      x="87.66666412353516" y="0" font-family="Helvetica, Segoe UI Emoji" font-size="28px" fill="#1e1e1e"
      text-anchor="middle" style="white-space: pre;" direction="ltr"
      dominant-baseline="text-before-edge">源工作负载</text><text x="87.66666412353516" y="39.199999999999996"
      font-family="Helvetica, Segoe UI Emoji" font-size="28px" fill="#1e1e1e" text-anchor="middle"
      style="white-space: pre;" direction="ltr" dominant-baseline="text-before-edge">Pod</text></g>
  <g stroke-linecap="round" transform="translate(1390 710) rotate(0 30 160)">
    <path
      d="M15 0 C20.84 -0.48, 30.6 -1.49, 45 0 M15 0 C21.33 -0.53, 28.96 0.39, 45 0 M45 0 C53.69 0.06, 61.15 3.27, 60 15 M45 0 C56.62 -0.76, 58.35 4.29, 60 15 M60 15 C58.92 117.99, 59.15 221.29, 60 305 M60 15 C58.76 103.83, 59.14 193.04, 60 305 M60 305 C61.06 315.27, 54.96 321.24, 45 320 M60 305 C59.34 315.35, 55.51 320.74, 45 320 M45 320 C34.26 319.12, 21.2 321.04, 15 320 M45 320 C34.48 320.4, 22.65 320.46, 15 320 M15 320 C3.29 320.06, -0.31 315.93, 0 305 M15 320 C5.75 322.21, 1.8 315.78, 0 305 M0 305 C2.09 225.53, 1.29 143.58, 0 15 M0 305 C0.72 231.99, 1.16 158.02, 0 15 M0 15 C-1.98 4.5, 3.13 -1.06, 15 0 M0 15 C0.21 3.95, 4.48 1.74, 15 0"
      stroke="#1e1e1e" stroke-width="4" fill="none"></path>
  </g>
  <g transform="translate(1412.5083332061768 737.5) rotate(0 7.7833333015441895 128.79999999999995)"><text
      x="7.7833333015441895" y="0" font-family="Helvetica, Segoe UI Emoji" font-size="28px" fill="#1e1e1e"
      text-anchor="middle" style="white-space: pre;" direction="ltr" dominant-baseline="text-before-edge">i</text><text
      x="7.7833333015441895" y="32.199999999999996" font-family="Helvetica, Segoe UI Emoji" font-size="28px"
      fill="#1e1e1e" text-anchor="middle" style="white-space: pre;" direction="ltr"
      dominant-baseline="text-before-edge">p</text><text x="7.7833333015441895" y="64.39999999999999"
      font-family="Helvetica, Segoe UI Emoji" font-size="28px" fill="#1e1e1e" text-anchor="middle"
      style="white-space: pre;" direction="ltr" dominant-baseline="text-before-edge">t</text><text
      x="7.7833333015441895" y="96.6" font-family="Helvetica, Segoe UI Emoji" font-size="28px" fill="#1e1e1e"
      text-anchor="middle" style="white-space: pre;" direction="ltr" dominant-baseline="text-before-edge">a</text><text
      x="7.7833333015441895" y="128.79999999999998" font-family="Helvetica, Segoe UI Emoji" font-size="28px"
      fill="#1e1e1e" text-anchor="middle" style="white-space: pre;" direction="ltr"
      dominant-baseline="text-before-edge">b</text><text x="7.7833333015441895" y="160.99999999999997"
      font-family="Helvetica, Segoe UI Emoji" font-size="28px" fill="#1e1e1e" text-anchor="middle"
      style="white-space: pre;" direction="ltr" dominant-baseline="text-before-edge">l</text><text
      x="7.7833333015441895" y="193.2" font-family="Helvetica, Segoe UI Emoji" font-size="28px" fill="#1e1e1e"
      text-anchor="middle" style="white-space: pre;" direction="ltr" dominant-baseline="text-before-edge">e</text><text
      x="7.7833333015441895" y="225.39999999999998" font-family="Helvetica, Segoe UI Emoji" font-size="28px"
      fill="#1e1e1e" text-anchor="middle" style="white-space: pre;" direction="ltr"
      dominant-baseline="text-before-edge">s</text></g>
  <g transform="translate(1039.808334350586 110) rotate(0 166.5 16.099999999999994)"><text x="166.5" y="0"
      font-family="Helvetica, Segoe UI Emoji" font-size="28px" fill="#1971c2" text-anchor="middle"
      style="white-space: pre;" direction="ltr" dominant-baseline="text-before-edge">明文入站示例</text>
  </g>
  <g transform="translate(1047.941665649414 650) rotate(0 177.38333129882812 16.100000000000023)"><text
      x="177.38333129882812" y="0" font-family="Helvetica, Segoe UI Emoji" font-size="28px" fill="#1971c2"
      text-anchor="middle" style="white-space: pre;" direction="ltr" dominant-baseline="text-before-edge">明文出站示例</text></g>
  <g mask="url(#mask-Jd4aVSqwGHfaNyYaFBGbx)" stroke-linecap="round">
    <g transform="translate(1390 750) rotate(0 -210 30)">
      <path
        d="M-1.03 0.73 C-44.25 -2.61, -190.5 -33.15, -260.24 -19.88 C-329.97 -6.61, -392.92 63.78, -419.45 80.37 M0.63 0.07 C-42.69 -3.08, -191.22 -31.31, -261.31 -18.28 C-331.4 -5.26, -393.66 61.75, -419.93 78.22"
        stroke="#f08c00" stroke-width="4" fill="none"></path>
    </g>
    <g transform="translate(1390 750) rotate(0 -210 30)">
      <path
        d="M-406.75 56.97 C-408.41 61.16, -412.35 67.17, -419.93 78.22 M-406.75 56.97 C-411.21 64.51, -414.95 71.97, -419.93 78.22"
        stroke="#f08c00" stroke-width="4" fill="none"></path>
    </g>
    <g transform="translate(1390 750) rotate(0 -210 30)">
      <path
        d="M-396.18 70.41 C-400.19 71.54, -406.47 74.58, -419.93 78.22 M-396.18 70.41 C-404.2 73.47, -411.43 76.49, -419.93 78.22"
        stroke="#f08c00" stroke-width="4" fill="none"></path>
    </g>
  </g>
  <mask id="mask-Jd4aVSqwGHfaNyYaFBGbx">
    <rect x="0" y="0" fill="#fff" width="1910" height="950"></rect>
    <rect x="1120.0333337783813" y="712.5" fill="#000" width="19.933332443237305" height="35" opacity="1"></rect>
  </mask>
  <g transform="translate(1120.0333337783813 712.5) rotate(0 60.316604576110876 66.081269684206)"><text
      x="9.966666221618652" y="0" font-family="Virgil, Segoe UI Emoji" font-size="28px" fill="#f08c00"
      text-anchor="middle" style="white-space: pre;" direction="ltr" dominant-baseline="text-before-edge">2</text></g>
  <g mask="url(#mask-SExV_9Vyu7HplRqe6CG7t)" stroke-linecap="round">
    <g transform="translate(1170 950) rotate(0 110 20)">
      <path
        d="M0.44 -0.95 C13.78 5.56, 43.06 32.54, 79.47 39.22 C115.88 45.9, 195.49 38.89, 218.91 39.14 M-0.78 1.17 C12.4 7.81, 41.25 33.88, 78.25 40.35 C115.25 46.82, 197.57 40.31, 221.22 40"
        stroke="#f08c00" stroke-width="4" fill="none"></path>
    </g>
    <g transform="translate(1170 950) rotate(0 110 20)">
      <path
        d="M198.11 49.52 C202.38 46.15, 208.52 42.79, 221.22 40 M198.11 49.52 C204.15 47.95, 209.64 44.14, 221.22 40"
        stroke="#f08c00" stroke-width="4" fill="none"></path>
    </g>
    <g transform="translate(1170 950) rotate(0 110 20)">
      <path d="M197.4 32.44 C201.86 33.39, 208.19 34.36, 221.22 40 M197.4 32.44 C203.59 34.76, 209.24 34.84, 221.22 40"
        stroke="#f08c00" stroke-width="4" fill="none"></path>
    </g>
  </g>
  <mask id="mask-SExV_9Vyu7HplRqe6CG7t">
    <rect x="0" y="0" fill="#fff" width="1490" height="1090"></rect>
    <rect x="1246.2083332538605" y="972.5" fill="#000" width="7.583333492279053" height="35" opacity="1"></rect>
  </mask>
  <g transform="translate(1246.2083332538605 972.5) rotate(0 34.01205526888373 -1.3731009676196209)"><text
      x="3.7916667461395264" y="0" font-family="Virgil, Segoe UI Emoji" font-size="28px" fill="#f08c00"
      text-anchor="middle" style="white-space: pre;" direction="ltr" dominant-baseline="text-before-edge">1</text></g>
  <g transform="translate(1215 997.5) rotate(0 61.46666717529297 32.200000000000045)"><text x="61.46666717529297" y="0"
      font-family="Helvetica, Segoe UI Emoji" font-size="28px" fill="#f08c00" text-anchor="middle"
      style="white-space: pre;" direction="ltr" dominant-baseline="text-before-edge">出站至 5151</text></g>
  <g transform="translate(1137.5166702270508 690) rotate(0 52.91666793823242 16.100000000000023)"><text
      x="52.91666793823242" y="0" font-family="Helvetica, Segoe UI Emoji" font-size="28px" fill="#f08c00"
      text-anchor="middle" style="white-space: pre;" direction="ltr" dominant-baseline="text-before-edge">To
      proxy</text></g>
  <g mask="url(#mask-DRrwpKzpgAwLtfMM894q9)" stroke-linecap="round">
    <g transform="translate(970 870) rotate(0 460.2468265274074 90.48557541612536)">
      <path
        d="M0.63 -0.97 C23.91 29.33, -12.42 150.69, 140.78 180.95 C293.98 211.22, 789.94 180.66, 919.82 180.63 M-0.49 1.13 C22.59 31.19, -12.96 149.23, 140.24 179.33 C293.44 209.44, 788.72 181.36, 918.69 181.76"
        stroke="#f08c00" stroke-width="4" fill="none"></path>
    </g>
    <g transform="translate(970 870) rotate(0 460.2468265274074 90.48557541612536)">
      <path
        d="M895.43 190.91 C903.05 188.47, 915.44 182.44, 918.69 181.76 M895.43 190.91 C902.43 188.11, 907.68 185.95, 918.69 181.76"
        stroke="#f08c00" stroke-width="4" fill="none"></path>
    </g>
    <g transform="translate(970 870) rotate(0 460.2468265274074 90.48557541612536)">
      <path
        d="M894.99 173.81 C902.67 178.12, 915.22 178.83, 918.69 181.76 M894.99 173.81 C902.05 175.65, 907.42 178.13, 918.69 181.76"
        stroke="#f08c00" stroke-width="4" fill="none"></path>
    </g>
  </g>
  <mask id="mask-DRrwpKzpgAwLtfMM894q9">
    <rect x="0" y="0" fill="#fff" width="1990.4936530548148" height="1150.9711508322507"></rect>
    <rect x="1100.4666662216187" y="1032.5" fill="#000" width="19.066667556762695" height="35" opacity="1"></rect>
  </mask>
  <g transform="translate(1100.4666662216187 1032.5) rotate(0 329.1941451841965 -65.82095200847118)"><text
      x="9.533333778381348" y="0" font-family="Virgil, Segoe UI Emoji" font-size="28px" fill="#f08c00"
      text-anchor="middle" style="white-space: pre;" direction="ltr" dominant-baseline="text-before-edge">3</text></g>
  <g transform="translate(1667.5166625976562 935) rotate(0 76.25 48.299999999999955)"><text x="76.25" y="20"
      font-family="Helvetica, Segoe UI Emoji" font-size="28px" fill="#f08c00" text-anchor="middle"
      style="white-space: pre;" direction="ltr" dominant-baseline="text-before-edge">从 5151</text><text x="76.25"
      y="52.199999999999996" font-family="Helvetica, Segoe UI Emoji" font-size="28px" fill="#f08c00"
      text-anchor="middle" style="white-space: pre;" direction="ltr" dominant-baseline="text-before-edge">以明文离开 Pod</text></g>
  <g transform="translate(67.375 1266.6761081726218) rotate(0 921.5 82.79999999999995)"><text x="0" y="0"
      font-family="Helvetica, Segoe UI Emoji" font-size="36px" fill="#1e1e1e" text-anchor="start"
      style="white-space: pre;" direction="ltr" dominant-baseline="text-before-edge">- 通过本地 ztunnel 嗅探进出 Pod 的所有流量</text><text x="0" y="41.4" font-family="Helvetica, Segoe UI Emoji"
      font-size="36px" fill="#1e1e1e" text-anchor="start" style="white-space: pre;" direction="ltr"
      dominant-baseline="text-before-edge">- 所有重定向都发生在 Pod 内 - 主机端没有任何重定向</text><text
      x="0" y="82.8" font-family="Helvetica, Segoe UI Emoji" font-size="36px" fill="#1e1e1e" text-anchor="start"
      style="white-space: pre;" direction="ltr" dominant-baseline="text-before-edge">- 对于 CNI（和 Pod）来说，看起来就像旧的 Sidecar，但实际上没有添加 Sidecar - “一种不显而易见的 Sidecar”</text><text x="0"
      y="124.19999999999999" font-family="Helvetica, Segoe UI Emoji" font-size="36px" fill="#1e1e1e" text-anchor="start"
      style="white-space: pre;" direction="ltr" dominant-baseline="text-before-edge"></text></g>
</svg>