<svg xmlns="http://www.w3.org/2000/svg" xmlns:xlink="http://www.w3.org/1999/xlink" width="100" height="60" viewBox="0 0 100 60">
    <defs>
        <path id="a" d="M0 .427h99.859v59.069H0z"/>
    </defs>
    <g fill="none" fill-rule="evenodd">
        <g transform="translate(0 .077)">
            <mask id="b" fill="#fff">
                <use xlink:href="#a"/>
            </mask>
            <path fill="#FA0236" d="M10.432 59.48l80.946-5.853c2.967-.215 5.335-2.584 5.576-5.578l2.885-35.919c.273-3.404-2.281-6.37-5.658-6.567L6.374.437C2.71.224-.29 3.34.022 7.032l3.976 46.897c.281 3.316 3.147 5.788 6.434 5.551" mask="url(#b)"/>
        </g>
        <path fill="#FFF" d="M45.784 37.352H44.53c-1.244 0-2.151-1.023-2.025-2.287l1.077-10.755a.755.755 0 0 1 .73-.671h1.012c1.33 0 2.3 1.094 2.164 2.443l-1.07 10.687a.655.655 0 0 1-.634.583M43.692 20.849c0-.569.21-1.017.629-1.344.419-.327.982-.49 1.69-.49.622 0 1.073.124 1.355.373.282.249.423.58.423.992 0 .526-.199.964-.596 1.312-.398.348-.98.522-1.745.522-1.17 0-1.756-.454-1.756-1.365M37.612 23.51c-1.374 0-3.011.23-4.014 1.26-.896.92-1.306 2.259-1.513 3.494 0 0-.134-2.642 1.386-4.728l.22-2.196c.128-1.255-.791-2.272-2.055-2.272h-1.524a.445.445 0 0 0-.434.391L28.09 34.98c-.133 1.31.827 2.374 2.147 2.374h1.332a.547.547 0 0 0 .534-.482l.677-6.628h.008c.209-2.033 1.09-3.418 2.802-3.418.888 0 1.557.61 1.441 1.74l-.68 6.658c-.12 1.176.742 2.13 1.926 2.13h1.598a.524.524 0 0 0 .51-.461l.852-8.327c.333-3.257-1.338-5.055-3.626-5.055M57.303 30.852c-.217 2.145-1.428 3.884-2.706 3.884-1.277 0-2.136-1.739-1.92-3.884.217-2.145 1.428-3.883 2.706-3.883 1.277 0 2.136 1.738 1.92 3.883m-.127-7.184c-1.371.01-2.788.837-3.748 2.147.128-1.27-.786-2.176-2.049-2.176h-1.525a.448.448 0 0 0-.434.397L47.666 41.35c-.134 1.327.827 2.402 2.147 2.402h1.333a.55.55 0 0 0 .533-.487l.727-5.744c-1.217-1.765-.984-4.553-.984-4.553.02.617.247 1.238.469 1.806.333.851.747 1.604 1.458 2.195.634.527 1.415.856 2.241.89.05.002.102.003.152.003 3.265 0 5.563-3.361 5.953-7.215.39-3.854-.799-7.004-4.519-6.979M66.92 30.105s.337-2.014 1.01-2.635c.674-.62 1.574-.729 2.124-.108.55.62.135 1.54-.539 2.162-.673.62-2.594.58-2.594.58m7.571-2.612c.192-1.914-1.025-3.853-4.998-3.853-3.345 0-6.364 3.07-6.743 6.857-.379 3.787.563 6.856 5.37 6.856 1.777 0 4.845-.202 5.033-2.082.007-.068.01-.133.012-.197.027-1.228-1.356-1.879-2.381-1.11-.406.305-1.067.645-2.117.586-1.973-.11-1.876-1.974-1.873-2.002-1.875-.401-3.086-1.302-3.086-1.302 1.695.9 3.938.859 3.938.859 5.063.088 6.664-2.797 6.845-4.612M84.23 23.678c-.894-.067-1.78.244-2.478.788-1.558 1.213-1.811 3.18-1.896 4.9-.592-2.376.36-3.822.61-4.417-.525-.746-1.118-1.234-2.157-1.3-.709-.045-1.69.016-1.782.9l-1.092 10.418c-.138 1.318.852 2.386 2.213 2.386h1.17a.703.703 0 0 0 .691-.608l.401-3.826c.349-2.388.634-5.87 2.014-5.87.87 0 .867.674.722 2.102-.029.29.172.534.467.563.082.009.162.014.227.014 1.858 0 3.502-1.57 3.462-3.414-.031-1.407-1.123-2.527-2.571-2.636M27.277 21.905a3.765 3.765 0 0 0-1.08-1.44c-.487-.41-1.104-.732-1.849-.966a6.029 6.029 0 0 0-.438-.118c.05-.614.015-1.362-.188-1.863-.246-.604-.858-.957-1.837-1.056l-1.323-.134c-.257-.026-.412.125-.464.455-.046.284-.26 1.251-.368 1.824 2.619-.054 3.696.681 3.696.681-1.583-.273-3.112-.063-3.582.015-.45.08-.87.188-1.26.33-.048.017-.097.035-.145.054-.916.36-1.692.832-2.325 1.416a7.662 7.662 0 0 0-1.555 1.993c-.402.744-.715 1.5-.937 2.269a12.98 12.98 0 0 0-.45 2.243 18.436 18.436 0 0 0-.116 1.918c0 1.538.215 2.816.643 3.835.428 1.02.984 1.83 1.67 2.431a6.017 6.017 0 0 0 1.605 1.016c.014.005.027.012.04.018.224.094.455.177.693.245.282.08.563.147.845.201.404.064.868.111 1.399.127 0 0-1.407.412-3.287-.007-.02.548.029 1.069.203 1.495.248.607.87.962 1.866 1.065l1.348.14c.261.028.42-.124.474-.454.059-.352.37-1.936.426-2.212.158-.01.312-.022.463-.038 1.915-.211 4.091-1.435 4.866-3.232.2-.462.217-.943.052-1.444-.124-.38-.315-.662-.571-.849a2.254 2.254 0 0 0-1.564-.44 3.062 3.062 0 0 0-.486.082.578.578 0 0 0-.392.365c-.067.183-.15.39-.25.621-.1.23-.254.46-.462.687-.208.228-.542.413-1.002.557a3.28 3.28 0 0 1-.782.15 2.124 2.124 0 0 1-1.406-.403c-.624-.453-.992-1.219-1.237-1.976a6.59 6.59 0 0 1-.25-1.092c-.108-.749-.105-1.514-.06-2.267.025-.434.085-.886.18-1.354.093-.467.222-.927.384-1.379a4.785 4.785 0 0 1 .643-1.215c.265-.36.59-.652.976-.877.386-.226.852-.339 1.4-.339.377 0 .672.063.887.188a.987.987 0 0 1 .26.222c.087.105.16.231.215.38.103.276.163.622.18 1.04.017.418.034.911.051 1.479 0 .184.047.305.142.364.093.058.33.087.706.087 1.182 0 2.094-.246 2.736-.74.643-.492.963-1.273.963-2.343 0-.618-.115-1.203-.346-1.755"/>
    </g>
</svg>
