<svg xmlns="http://www.w3.org/2000/svg" xmlns:xlink="http://www.w3.org/1999/xlink" id="图层_1" x="0" y="0" version="1.1" viewBox="0 0 485.21 140.13" xml:space="preserve" style="enable-background:new 0 0 485.21 140.13"><style type="text/css">.st2,.st3{fill-rule:evenodd;clip-rule:evenodd;fill:url(#SVGID_1_)}.st3{fill:url(#SVGID_2_)}.st4{fill:url(#SVGID_3_)}.st5{fill:url(#SVGID_4_)}.st6{fill:url(#SVGID_5_)}.st7{fill:url(#SVGID_6_)}.st8{fill:#404040}</style><g><g><linearGradient id="SVGID_1_" x1="70.267" x2="70.267" y1="139.448" y2="-.321" gradientUnits="userSpaceOnUse"><stop offset="0" style="stop-color:#5eb101"/><stop offset="1" style="stop-color:#bdf363"/></linearGradient><path d="M140.02,34.4c-0.08-3.06-0.27-6.14-0.82-9.16c-0.56-3.07-1.47-5.92-2.9-8.71c-1.41-2.74-3.25-5.25-5.45-7.42 c-2.2-2.18-4.74-4-7.51-5.39c-2.82-1.42-5.71-2.32-8.81-2.87c-3.06-0.54-6.18-0.77-9.27-0.86c-1.42-0.04-2.84-0.12-9.31-0.12 h-0.01l-1.38,0.05c0,0-53.55,0.02-59.5,0.1c-3.09,0.08-6.21,0.28-9.27,0.82C22.7,1.39,19.81,2.29,17,3.71 c-2.77,1.39-5.31,3.22-7.51,5.39c-2.2,2.17-4.04,4.68-5.45,7.42c-1.44,2.79-2.37,5.64-2.93,8.71c-0.45,2.47-0.78,4.98-0.78,7.48 v10.89c0,0,0,0,0,0v52.86c0,0,0,0,0,0v10.01c0,2.79,0.3,5.6,0.8,8.36c0.56,3.07,1.47,5.93,2.91,8.71 c1.41,2.74,3.26,5.24,5.45,7.42c2.2,2.17,4.73,4,7.51,5.39c2.82,1.42,5.71,2.32,8.81,2.87c3.06,0.54,6.18,0.74,9.27,0.82 c0.27,0.01,0.54-0.01,0.84-0.01h67.32c0.62,0,1.29,0.02,2.04,0.01c3.09-0.08,6.21-0.27,9.27-0.81c3.1-0.55,5.99-1.45,8.81-2.87 c2.77-1.39,5.31-3.22,7.51-5.39c2.2-2.17,4.04-4.68,5.45-7.42c1.44-2.79,2.35-5.65,2.9-8.71c0.55-3.02,0.73-6.11,0.82-9.16 c0.04-1.4,0.11-2.81,0.12-4.21c0.01-1.67,0.06-3.33,0.06-5V43.61c0-1.67-0.05-3.33-0.06-5C140.13,37.21,140.06,35.8,140.02,34.4z" class="st2"/><linearGradient id="SVGID_2_" x1="35.078" x2="35.078" y1="-.022" y2="140.228" gradientUnits="userSpaceOnUse"><stop offset="0" style="stop-color:#848483"/><stop offset="1" style="stop-color:#000"/></linearGradient><path d="M70.12-0.02C54.94-0.01,38.03,0,34.84,0.04c-3.09,0.08-6.2,0.26-9.26,0.81c-3.1,0.55-5.99,1.45-8.8,2.87 c-2.77,1.39-5.3,3.21-7.5,5.39c-2.2,2.17-4.04,4.68-5.45,7.42c-1.44,2.79-2.34,5.64-2.9,8.71c-0.55,3.02-0.73,6.11-0.81,9.16 c-0.04,1.4-0.05,2.81-0.06,4.21c-0.01,1.66-0.01,3.33-0.01,5v52.86c0,1.67-0.01,3.33,0.01,5c0.01,1.4,0.02,2.81,0.06,4.21 c0.08,3.05,0.26,6.14,0.81,9.16c0.56,3.07,1.47,5.93,2.9,8.71c1.41,2.74,3.25,5.24,5.45,7.42c2.2,2.17,4.73,4,7.51,5.39 c2.82,1.42,5.71,2.32,8.81,2.87c3.06,0.54,6.18,0.74,9.27,0.82c0.27,0.01,0.54-0.01,0.84-0.01h34.43V-0.02z" class="st3"/><g><linearGradient id="SVGID_3_" x1="106.976" x2="106.976" y1="49.319" y2="21.943" gradientUnits="userSpaceOnUse"><stop offset="0" style="stop-color:#848483"/><stop offset="1" style="stop-color:#000"/></linearGradient><path d="M117.76,35.62c0,5.95-4.83,10.78-10.78,10.78c-5.95,0-10.78-4.83-10.78-10.78c0-5.96,4.83-10.78,10.78-10.78 C112.93,24.84,117.76,29.67,117.76,35.62z" class="st4"/><linearGradient id="SVGID_4_" x1="38.985" x2="38.985" y1="24.577" y2="38.964" gradientUnits="userSpaceOnUse"><stop offset="0" style="stop-color:#5eb101"/><stop offset="1" style="stop-color:#bdf363"/></linearGradient><path d="M52.74,31.7l0.02-0.03c-4.09-2.26-8.78-3.55-13.78-3.55c-5.11,0-9.9,1.35-14.04,3.7c0,0,0,0.02,0,0.03 c-1.85,1.03-3.1,3-3.1,5.26c0,3.33,2.7,6.02,6.02,6.02c0.98,0,1.9-0.24,2.72-0.65c0.01,0.01,0.01,0.02,0.01,0.02 c2.45-1.46,5.32-2.3,8.38-2.3c2.85,0,5.54,0.73,7.87,2.01l0.02-0.04c0.94,0.61,2.06,0.96,3.26,0.96c3.32,0,6.02-2.69,6.02-6.02 C56.14,34.73,54.75,32.67,52.74,31.7z" class="st5"/></g><linearGradient id="SVGID_5_" x1="47.557" x2="47.557" y1="63.003" y2="112.743" gradientUnits="userSpaceOnUse"><stop offset="0" style="stop-color:#5eb101"/><stop offset="1" style="stop-color:#bdf363"/></linearGradient><path d="M70.12,63.67c0,0-36.33,0-36.52,0c-4.78,0-8.65,3.88-8.65,8.66c0,0.28,0.01,0.57,0.04,0.84 c0,0.01,0,0.08,0,0.09c1.95,21.2,15.07,39.92,45.18,39.92h-0.05V63.67z" class="st6"/><linearGradient id="SVGID_6_" x1="92.715" x2="92.715" y1="111.833" y2="63.418" gradientUnits="userSpaceOnUse"><stop offset="0" style="stop-color:#848483"/><stop offset="1" style="stop-color:#000"/></linearGradient><path d="M70.12,63.67c0,0,36.35,0,36.54,0c4.78,0,8.66,3.88,8.66,8.66c0,0.28-0.01,0.57-0.04,0.84 c0,0.01,0,0.08,0,0.09c-1.95,21.2-15.06,39.92-45.18,39.92h0.01V63.67z" class="st7"/></g><g><path d="M460.2,43.77c0-7.24,5.63-12.38,12.53-12.38c6.79,0,12.48,5.14,12.48,12.38c0,7.3-5.69,12.27-12.48,12.27 C465.83,56.04,460.2,51.07,460.2,43.77z M482.31,43.77c0-5.86-4.12-9.89-9.57-9.89c-5.51,0-9.63,4.03-9.63,9.89 c0,5.86,4.12,9.84,9.63,9.84C478.19,53.61,482.31,49.63,482.31,43.77z M467.81,37.36h5.22c2.79,0,5.16,1.16,5.16,4.03 c0,1.49-0.93,2.87-2.44,3.43l2.96,5.03h-3.31l-2.21-4.2h-2.38v4.2h-3.02V37.36z M472.39,43.55c1.62,0,2.55-0.72,2.55-1.93 c0-1.16-0.7-1.99-2.44-1.99h-1.68v3.92H472.39z" class="st8"/></g><g><path d="M195.54,68.01c-3.37-3.03-10.29-7-15.83-9.51l4.24-5.97c5.53,2.16,12.45,5.8,16.09,8.74L195.54,68.01z M203.84,79c-4.58,8.99-10.29,19.29-15.48,27.41l-6.75-5.36c4.58-6.57,11.24-17.56,16.26-27.42L203.84,79z M198.3,45.53 c-3.03-3.2-9.6-7.7-14.88-10.55l4.5-5.79c5.28,2.59,12.02,6.83,15.22,10.03L198.3,45.53z M210.67,69.57h7.26v8.65 c0,9.34-1.47,20.67-12.97,28.89c-1.12-1.64-3.81-4.06-5.62-5.28c10.21-7,11.33-16.26,11.33-23.87V69.57z M251.75,68.96 c-0.86-1.73-2.25-3.72-3.89-5.97c-33.99,2.42-38.14,2.77-40.91,3.81c-0.35-1.9-1.47-5.79-2.08-7.52c1.82-0.43,4.5-1.04,6.23-2.51 c1.47-1.38,5.45-6.4,8.73-10.64H204.1v-7.26h23.44c-0.86-2.94-2.16-6.4-3.37-9.08l7.35-1.73c1.64,3.29,3.37,7.61,4.32,10.81h21.71 v7.26h-28.54c-2.94,3.89-6.4,8.3-9.34,11.85l23.35-1.3c-1.82-2.42-3.81-4.67-5.53-6.75l5.97-3.55 c5.28,5.62,11.85,13.41,14.88,18.42L251.75,68.96z M225.63,69.65h7v34.16h-7V69.65z M251.32,99.58c0.61,0,1.21-0.09,1.56-0.35 c0.35-0.26,0.61-0.95,0.87-2.25c0.09-1.38,0.17-4.5,0.26-8.56c1.38,1.3,3.72,2.42,5.53,3.11c-0.09,3.8-0.43,8.3-0.86,9.86 c-0.52,1.73-1.38,2.85-2.51,3.55c-1.12,0.69-2.94,1.04-4.5,1.04h-4.32c-1.73,0-3.89-0.61-5.1-1.73c-1.38-1.3-1.82-2.85-1.82-8.22 V69.57h7.35v26.9c0,1.47,0.09,2.42,0.43,2.77c0.26,0.26,0.69,0.35,1.21,0.35H251.32z" class="st8"/><path d="M302.95,53.66h16.78v7.44h-16.78v2.68c4.24,3.63,13.49,12.54,15.91,14.88l-4.58,6.83 c-2.42-3.03-7.18-8.39-11.33-12.71v34.59h-8.04V73.11c-4.24,8.99-9.51,17.56-14.88,23c-0.78-2.33-2.94-5.71-4.24-7.87 c6.57-6.14,13.58-17.21,17.56-27.16h-15.74v-7.44h17.3v-12.8c-5.28,1.04-10.55,1.82-15.48,2.42c-0.43-1.82-1.56-4.5-2.51-6.23 c12.54-1.9,27.07-4.93,35.2-8.56l5.79,6.14c-4.24,1.73-9.43,3.29-14.96,4.5V53.66z M333.65,85.91h-7.96V38.35h7.96V85.91z M351.9,29.18V96.9c0,5.1-1.21,7.44-4.24,8.73c-3.11,1.3-8.3,1.56-16.09,1.56c-0.35-2.25-1.64-6.05-2.85-8.3 c5.79,0.26,11.24,0.26,12.97,0.26c1.56-0.09,2.25-0.61,2.25-2.25V29.18H351.9z" class="st8"/><path d="M396.9,80.98c0.61,2.42,1.9,5.71,2.68,7.27c-16.69,12.63-19.37,14.87-20.76,16.78 c-0.78-2.08-3.03-5.62-4.58-7.44c1.99-1.12,5.36-4.41,5.36-8.3V62.56h-11.68v-7.87h19.8v32.95L396.9,80.98z M386.09,48.73 c-2.68-3.81-8.56-9.95-13.15-14.18l5.36-4.84c4.58,3.98,10.72,9.69,13.49,13.4L386.09,48.73z M437.38,98.89 c1.64,0,2.08-1.3,2.25-10.38c1.64,1.38,4.93,2.68,7.09,3.29c-0.78,11.5-2.77,14.53-8.56,14.53h-7.44c-7,0-8.65-2.34-8.65-10.03 v-23h-6.92c-1.3,16-4.84,27.5-20.76,34.25c-0.95-1.9-3.11-4.76-4.84-6.23c14.01-5.27,16.52-14.87,17.56-28.02H396.9V45.18h10.55 c-1.21-3.98-4.24-9.77-7.26-14.1l6.75-2.85c3.46,4.5,6.92,10.46,8.22,14.53l-5.62,2.42h13.15c2.51-4.93,5.45-11.85,7-17.04 l8.48,2.51c-2.25,5.02-4.58,10.2-7.01,14.53h8.56v28.11h-9.77v22.83c0,2.42,0.35,2.77,2.08,2.77H437.38z M404.69,66.2h26.9V52.27 h-26.9V66.2z" class="st8"/></g></g></svg>