<?xml version="1.0" encoding="UTF-8" standalone="no"?>
<!-- Created with Inkscape (http://www.inkscape.org/) -->

<svg
   xmlns:dc="http://purl.org/dc/elements/1.1/"
   xmlns:cc="http://creativecommons.org/ns#"
   xmlns:rdf="http://www.w3.org/1999/02/22-rdf-syntax-ns#"
   xmlns:svg="http://www.w3.org/2000/svg"
   xmlns="http://www.w3.org/2000/svg"
   version="1.1"
   width="91.239998"
   height="42.970001"
   id="svg5890">
  <defs
     id="defs5892">
    <clipPath
       id="clipPath5818">
      <path
         d="m 22.8,704.934 119.143,0 0,63.666 -119.143,0 0,-63.666 z"
         id="path5820" />
    </clipPath>
  </defs>
  <metadata
     id="metadata5895">
    <rdf:RDF>
      <cc:Work
         rdf:about="">
        <dc:format>image/svg+xml</dc:format>
        <dc:type
           rdf:resource="http://purl.org/dc/dcmitype/StillImage" />
        <dc:title></dc:title>
      </cc:Work>
    </rdf:RDF>
  </metadata>
  <g
     transform="translate(-110.25097,-377.28528)"
     id="layer1">
    <path
       d="m 155.87597,378.28528 -23.0475,9.8725 -14.37625,0 0,4.0275 -7.20125,0 0,27.07 89.24,0 0,-27.07 -7.1975,0 0,-4.0275 -14.37125,0 -23.04625,-9.8725 z"
       id="path5808"
       style="fill:#004990;fill-opacity:1;fill-rule:nonzero;stroke:none" />
    <path
       d="m 177.1571,395.35728 -0.001,4.37625 2.83125,0.005 0.59,-4.38 -3.42,-10e-4 z"
       id="path5812"
       style="fill:#ffffff;fill-opacity:1;fill-rule:nonzero;stroke:none" />
    <path
       d="m 192.46547,399.1493 c 0.1825,0 0.3475,-0.0137 0.3475,-0.23625 0,-0.175 -0.1625,-0.2075 -0.3125,-0.2075 l -0.295,0 0,0.44375 0.26,0 z m -0.26,0.8025 -0.21625,0 0,-1.43 0.545,0 c 0.33625,0 0.50375,0.125 0.50375,0.4075 0,0.25625 -0.15875,0.3675 -0.36875,0.39375 l 0.40625,0.62875 -0.2425,0 -0.3775,-0.62 -0.25,0 0,0.62 z m 0.2625,0.32 c 0.56125,0 1.00375,-0.43875 1.00375,-1.0375 0,-0.5875 -0.4425,-1.03 -1.00375,-1.03 -0.56875,0 -1.01125,0.4425 -1.01125,1.03 0,0.59875 0.4425,1.0375 1.01125,1.0375 m -1.26125,-1.0375 c 0,-0.7125 0.5775,-1.2375 1.26125,-1.2375 0.67625,0 1.255,0.525 1.255,1.2375 0,0.7175 -0.57875,1.245 -1.255,1.245 -0.68375,0 -1.26125,-0.5275 -1.26125,-1.245"
       id="path5824"
       style="fill:#ffffff;fill-opacity:1;fill-rule:nonzero;stroke:none" />
    <path
       d="m 125.48622,410.27055 0,-14.91375 -4.07875,0 0,18.465 10.39,0 0,-3.55125 -6.31125,0 z"
       id="path5828"
       style="fill:#ffffff;fill-opacity:1;fill-rule:nonzero;stroke:none" />
    <path
       d="m 166.54685,413.82243 9.70875,0 0,-3.55625 -5.61,0 0,-2.3175 5.61,0 0,-3.42375 -5.61,0 0,-2.33 5.61,0 0,-3.57125 -9.70875,0 0,0.0175 0,15.18125 z"
       id="path5832"
       style="fill:#ffffff;fill-opacity:1;fill-rule:nonzero;stroke:none" />
    <path
       d="m 141.11985,402.1953 -3.5875,0 0,8.05625 3.5875,0 0,-8.05625 z m 4.08625,9.68625 c 0,1.07125 -0.86875,1.94125 -1.94125,1.94125 l -7.87875,0 c -1.07125,0 -1.94,-0.87 -1.94,-1.94125 l 0,-11.31625 c 0,-1.0725 0.86875,-1.94125 1.94,-1.94125 l 7.87875,0 c 1.0725,0 1.94125,0.86875 1.94125,1.94125 l 0,11.31625 z"
       id="path5834"
       style="fill:#ffffff;fill-opacity:1;fill-rule:nonzero;stroke:none" />
    <path
       d="m 160.12797,398.62442 0,11.64625 -2.4625,0 0,-11.64625 -3.5875,0 0,11.64625 -2.4625,0 0,-11.64625 -4.08625,0 0,13.25625 c 0,1.0725 0.86875,1.9425 1.94125,1.9425 l 4.83,0 c 0.81375,0 1.57125,-0.5625 1.57125,-1.37625 0,0.81375 0.7575,1.37625 1.57125,1.37625 l 4.83125,0 c 1.07125,0 1.94,-0.87 1.94,-1.9425 l 0,-13.25625 -4.08625,0 z"
       id="path5838"
       style="fill:#ffffff;fill-opacity:1;fill-rule:nonzero;stroke:none" />
    <path
       d="m 190.57835,408.07905 0.001,0.001 -0.025,-0.0525 c -0.0162,-0.0325 -0.0325,-0.0638 -0.0487,-0.0962 l -0.025,-0.05 c -0.64625,-1.29625 -2.09375,-2.37875 -4.42375,-3.31125 l -0.0825,-0.0312 c -0.46125,-0.18125 -1.865,-0.73 -2.02125,-1.6225 -0.0425,-0.25 0.0588,-0.6425 0.3375,-0.88125 0.29375,-0.29875 0.74375,-0.4525 1.3375,-0.4525 0.95,0 2.03,0.38875 2.59,0.62 1.17875,0.48875 2.2125,0.925 2.2225,0.93125 l 0.1025,0.0425 0,-3.3175 -0.0337,-0.0213 c -0.0225,-0.015 -2.25125,-1.42 -4.5025,-1.7425 -0.25875,-0.0225 -0.515,-0.0325 -0.76125,-0.0325 -2.0725,0 -3.6425,0.7525 -4.665,2.2375 -0.85875,1.22 -0.95375,3.15125 -0.22375,4.5925 0.93875,1.62875 2.44375,2.30875 3.9,2.9675 0.6,0.27 1.22125,0.5525 1.8025,0.8975 l 0.006,0.004 c 0.6575,0.395 0.9925,0.99875 0.85375,1.535 -0.14375,0.55625 -0.78,0.93 -1.58375,0.93 -0.11,0 -0.22125,-0.006 -0.33,-0.0212 l -0.0388,-0.005 c -1.54625,-0.215 -4.68125,-1.3825 -4.7125,-1.395 l -0.1,-0.0375 0,3.6375 0.0513,0.0175 c 0.0288,0.01 3.06375,1.015 5.7575,1.015 l 0.001,0 c 1.47,0 2.58,-0.29625 3.2975,-0.87875 0.0175,-0.0125 1.66375,-1.33625 1.73625,-3.5875 0.02,-0.6225 -0.12125,-1.26 -0.42,-1.8925"
       id="path5842"
       style="fill:#ffffff;fill-opacity:1;fill-rule:nonzero;stroke:none" />
  </g>
</svg>
