<svg width="235" height="61" viewBox="0 0 1208 315" xmlns="http://www.w3.org/2000/svg"><g fill="#00A8FF" fill-rule="evenodd"><path d="M372.99 145.415c3.189-7.432 7.562-13.935 13.126-19.522 5.557-5.59 12.066-9.984 19.54-13.204 7.478-3.202 15.404-4.806 23.797-4.806 8.561 0 16.534 1.604 23.918 4.806 7.375 3.22 13.894 7.614 19.544 13.204 5.65 5.587 10.071 12.09 13.247 19.522 3.194 7.417 4.797 15.439 4.797 24.051v61.862h-24.236v-61.88c0-5.13-.962-9.947-2.882-14.438-1.921-4.495-4.57-8.437-7.951-11.823-3.375-3.39-7.357-6.048-11.923-7.979-4.558-1.927-9.405-2.887-14.514-2.887-5.127 0-9.918.96-14.395 2.887-4.476 1.93-8.411 4.589-11.79 7.979-3.38 3.386-6.026 7.328-7.944 11.823-1.92 4.491-2.88 9.309-2.88 14.437v61.881h-24.241v-61.862c0-8.612 1.597-16.634 4.788-24.051M537.856 143.3c-7.276 7.33-10.909 16.133-10.909 26.409 0 5.687 1.27 11.095 3.83 16.226 2.163-2.197 5.491-5.545 9.943-10.034 4.46-4.494 9.19-9.265 14.19-14.302 5-5.047 9.821-9.862 14.463-14.45 4.638-4.583 8.225-8.16 10.78-10.731-6.914-3.481-14.233-4.67-21.962-3.572-7.733 1.095-14.507 4.588-20.335 10.455zm60.849 44.32l17.196 17.342-8.464 8.527c-5.818 5.866-12.453 10.36-19.915 13.478-7.462 3.11-15.285 4.667-23.47 4.667-8.187 0-16.004-1.557-23.463-4.667-7.456-3.117-14.102-7.612-19.914-13.478-6.012-6.057-10.473-12.893-13.38-20.495-2.908-7.614-4.362-15.363-4.362-23.244 0-7.885 1.454-15.593 4.361-23.116 2.908-7.517 7.37-14.3 13.38-20.348 6-6.054 12.774-10.596 20.323-13.621 7.546-3.026 15.23-4.542 23.056-4.542 7.814 0 15.512 1.516 23.055 4.542 7.543 3.025 14.324 7.567 20.329 13.621l8.464 8.528-67.943 68.484c6.914 3.49 14.227 4.642 21.966 3.45 7.72-1.19 14.507-4.724 20.325-10.596l8.456-8.531zM718.273 206.57v-37.418c0-5.132-.959-9.95-2.867-14.447-1.912-4.494-4.555-8.437-7.914-11.836a37.364 37.364 0 0 0-11.733-7.978c-4.461-1.918-9.24-2.878-14.333-2.878-5.1 0-9.921.96-14.466 2.878-4.552 1.93-8.509 4.589-11.868 7.978-3.368 3.4-6.011 7.342-7.916 11.836-1.918 4.498-2.87 9.315-2.87 14.447 0 5.144.952 9.997 2.87 14.588 1.905 4.583 4.548 8.575 7.916 11.965 3.36 3.399 7.316 6.057 11.868 7.981 4.545 1.93 9.367 2.885 14.466 2.885h36.847zm-36.847-99.004c8.546 0 16.497 1.607 23.868 4.818 7.35 3.204 13.807 7.605 19.348 13.201 5.554 5.587 9.906 12.09 13.091 19.51 3.182 7.426 4.782 15.438 4.782 24.057v61.859h-61.089c-8.365 0-16.272-1.594-23.731-4.811-7.447-3.202-14-7.652-19.625-13.33-5.644-5.684-10.046-12.282-13.221-19.799-3.198-7.513-4.788-15.492-4.788-23.919 0-8.619 1.59-16.631 4.788-24.057 3.175-7.42 7.577-13.923 13.22-19.51 5.626-5.596 12.18-9.997 19.626-13.201 7.459-3.21 15.366-4.818 23.731-4.818zM827.225 107.567v24.443h-12.278c-5.093 0-9.868.964-14.326 2.882-4.461 1.93-8.375 4.585-11.74 7.978-3.362 3.39-6.005 7.335-7.91 11.83-1.909 4.494-2.87 9.302-2.87 14.434v61.878h-24.547v-61.86c0-8.618 1.587-16.63 4.778-24.057 3.179-7.42 7.587-13.923 13.234-19.51 5.625-5.599 12.178-9.996 19.638-13.204 7.455-3.207 15.369-4.814 23.743-4.814h12.278zM923.104 183.988c-1.915 4.488-4.57 8.43-7.948 11.83-3.384 3.398-7.357 6.057-11.933 7.98-4.57 1.925-9.42 2.888-14.532 2.888-5.127 0-9.962-.963-14.529-2.887-4.576-1.924-8.548-4.583-11.93-7.982-3.377-3.399-6.032-7.341-7.956-11.83-1.921-4.5-2.874-9.315-2.874-14.453s.953-9.993 2.874-14.575c1.924-4.586 4.58-8.581 7.957-11.98 3.38-3.39 7.353-6.052 11.93-7.97 4.566-1.933 9.4-2.887 14.528-2.887 5.112 0 9.962.954 14.532 2.888 4.576 1.917 8.549 4.579 11.933 7.969 3.377 3.399 6.033 7.394 7.948 11.98 1.917 4.582 2.882 9.437 2.882 14.575s-.965 9.953-2.882 14.454m22.025-38.367c-3.194-7.514-7.562-14.114-13.125-19.795-5.557-5.687-12.07-10.131-19.544-13.333-7.478-3.21-15.4-4.811-23.787-4.811-8.57 0-16.537 1.6-23.922 4.811-7.378 3.202-13.897 7.646-19.547 13.333-5.65 5.68-10.061 12.281-13.255 19.795-3.188 7.514-4.782 15.49-4.782 23.913 0 2.003.106 3.964.277 5.904v83.016h23.747v-40.19c4.15 3.196 8.648 5.91 13.56 8.051 7.385 3.205 15.351 4.815 23.922 4.815 8.386 0 16.31-1.61 23.787-4.815 7.474-3.21 13.987-7.614 19.544-13.201 5.563-5.59 9.93-12.1 13.125-19.516 3.181-7.423 4.782-15.442 4.782-24.064 0-8.424-1.6-16.399-4.782-23.913M1054.684 169.533c0-5.138-.956-9.993-2.876-14.572-1.912-4.59-4.567-8.585-7.948-11.984-3.384-3.386-7.356-6.048-11.933-7.969-4.567-1.933-9.41-2.887-14.532-2.887-5.13 0-9.968.954-14.522 2.887-4.59 1.921-8.561 4.583-11.933 7.97-3.378 3.398-6.033 7.394-7.96 11.983-1.921 4.579-2.874 9.434-2.874 14.572s.953 9.956 2.874 14.453c1.927 4.489 4.582 8.434 7.96 11.83 3.372 3.399 7.344 6.057 11.933 7.981 4.554 1.927 9.392 2.888 14.522 2.888 5.121 0 9.965-.96 14.532-2.888 4.577-1.924 8.549-4.582 11.933-7.981 3.38-3.396 6.036-7.341 7.948-11.83 1.92-4.497 2.876-9.315 2.876-14.453m23.93 0c0 8.625-1.59 16.641-4.784 24.064-3.188 7.42-7.562 13.926-13.128 19.516-5.542 5.59-12.064 9.99-19.538 13.204-7.478 3.201-15.4 4.811-23.784 4.811-8.57 0-16.54-1.61-23.921-4.811-7.388-3.214-13.897-7.614-19.554-13.204-5.65-5.59-10.061-12.096-13.256-19.516-3.187-7.423-4.781-15.439-4.781-24.064 0-8.42 1.594-16.396 4.781-23.91 3.195-7.514 7.606-14.117 13.256-19.795a62.27 62.27 0 0 1 19.554-13.336c7.38-3.21 15.35-4.812 23.92-4.812 8.384 0 16.307 1.601 23.785 4.812 7.474 3.204 13.996 7.649 19.538 13.336 5.566 5.678 9.94 12.281 13.128 19.795 3.194 7.514 4.785 15.49 4.785 23.91M1180.373 183.988c-1.92 4.488-4.576 8.43-7.951 11.83-3.38 3.398-7.353 6.057-11.933 7.98-4.573 1.925-9.417 2.888-14.538 2.888-5.12 0-9.959-.963-14.526-2.887-4.582-1.924-8.551-4.583-11.926-7.982-3.38-3.399-6.033-7.341-7.957-11.83-1.92-4.5-2.877-9.315-2.877-14.453s.956-9.993 2.877-14.575c1.924-4.586 4.576-8.581 7.957-11.98 3.375-3.39 7.344-6.052 11.926-7.97 4.567-1.933 9.405-2.887 14.526-2.887s9.965.954 14.538 2.888c4.58 1.917 8.552 4.579 11.933 7.969 3.375 3.399 6.03 7.394 7.95 11.98 1.919 4.582 2.877 9.437 2.877 14.575s-.958 9.953-2.876 14.454zm26.804-103.129h-23.756v39.798c-4.147-3.261-8.686-6.017-13.692-8.164-7.48-3.21-15.404-4.811-23.787-4.811-8.577 0-16.537 1.6-23.921 4.811-7.385 3.202-13.903 7.646-19.55 13.333-5.657 5.68-10.065 12.281-13.26 19.795-3.184 7.514-4.781 15.49-4.781 23.913 0 8.622 1.597 16.641 4.782 24.064 3.194 7.417 7.602 13.926 13.258 19.516 5.648 5.587 12.166 9.99 19.55 13.201 7.385 3.205 15.345 4.815 23.922 4.815 8.383 0 16.306-1.61 23.787-4.815 7.465-3.21 13.981-7.614 19.538-13.201 5.566-5.59 9.934-12.1 13.122-19.516 3.19-7.423 4.788-15.442 4.788-24.064 0-.891-.094-1.76-.125-2.642h.125V80.859zM265.434 103.093H154.65c-5.81 0-9.427 1.315-13.088 7.37l-31.723 66.315-10.176 20.828H82.392l45.146-94.472c4.561-9.222 13.269-14.466 25.874-14.466h101.076c4.19 0 7.303 1.095 9.277 2.693 1.958 1.616 2.945 3.647 2.973 6.327 0 1.579-.405 3.409-1.304 5.405zm-59.308 131.442v.012c-.299.619-.629 1.24-1 1.846l-.43.891c-4.544 9.24-13.264 14.485-25.872 14.485h-69.61c-4.186 0-7.303-1.111-9.276-2.709-1.959-1.616-2.942-3.634-2.973-6.327 0-1.613.414-3.487 1.36-5.534h21.17c.183.029.342.13.528.13h59.234c4.542-.057 8.143-.808 11.92-8.055v-.015l2.615-5.493h.012l50.7-105.994h17.48l-55.858 116.763zM48.668 222.674c-1.958-1.613-2.945-3.631-2.973-6.328 0-1.613.414-3.487 1.357-5.533h21.17c.17.044.342.144.528.144h90.894c5.003 0 8.847-.348 12.85-8.085l2.631-5.489h.013l26.514-55.434.218-.462 2.905-6.082 8.729-18.286h17.514l-43.561 91.026c-.3.622-.63 1.24-1 1.861l-.426.895c-4.561 9.237-13.265 14.482-25.873 14.482H57.945c-4.19 0-7.303-1.112-9.277-2.71zm51.428-131.065l6.488-13.534c4.548-9.237 13.265-14.47 25.858-14.47h69.624c4.203 0 7.307 1.096 9.277 2.697 1.959 1.613 2.945 3.647 2.973 6.327 0 1.58-.404 3.409-1.292 5.402H132.96c-5.003 0-8.848.333-12.852 8.085l-2.63 5.493-50.457 105.47H49.54l50.556-105.47zM156.216.77C70.394.77.576 71.164.576 157.686c0 86.525 69.818 156.918 155.64 156.918 85.823 0 155.64-70.393 155.64-156.918C311.856 71.164 242.04.77 156.216.77z"/></g></svg>