<svg xmlns="http://www.w3.org/2000/svg" height="280.72" width="1065.533"><path d="M324.261 138.003c16.591 0 24.842-8.158 24.842-20.44 0-12.375-8.343-20.44-23.742-20.44h-18.606v40.88zm-43.538-64.346h49.314c32.356 0 46.38 18.882 46.38 44.455 0 29.24-19.524 43.264-48.854 43.264h-20.807v45.647h-26.032l-.001-133.366m108.794-4.854h24.566v138.22h-24.566V68.803m112.1 92.756c0-14.666-9.808-25.664-23.098-25.664-13.199 0-23.556 9.99-23.556 25.664 0 14.849 9.716 25.024 23.465 25.024 12.74 0 23.19-9.991 23.19-25.024zm23.558-46.2v91.66H501.8v-11.087h-.458c-6.324 8.157-15.583 12.645-27.407 12.645-25.39 0-43.905-18.786-43.905-47.11 0-27.864 18.608-47.663 43.172-47.663 10.816 0 20.257 4.033 27.038 11.916h.368v-10.357l24.566-.004m74.087-1.555c19.618 0 33.275 10.632 33.275 38.864v54.447h-24.565v-48.302c0-17.51-6.231-22.914-17.599-22.914-12.465 0-20.807 8.704-20.807 25.018v46.106H545v-91.66h24.565v11.824h.275c7.515-8.8 18.15-13.383 29.423-13.383h-.002m117.504 94.501c-38.405 0-68.012-25.022-68.012-67.736 0-38.956 25.299-68.473 66.912-68.473 18.883 0 39.231 7.336 52.98 22.827l-18.698 15.857c-8.25-7.975-19.616-13.841-34.282-13.841-21.906 0-39.413 16.408-39.413 43.63 0 24.473 15.49 43.63 40.513 43.63 9.624 0 18.516-2.291 27.04-7.607v-19.616h-29.973v-22.64h55.455v57.47c-12.099 9.809-31.99 16.5-52.519 16.5h-.003m126.508-94.502c.731 0 1.372 0 1.923.092v26.948c-2.473-.183-5.132-.275-6.508-.275-15.124 0-23.373 10.266-23.373 23.923v42.53h-24.566v-91.66h24.566v13.474h.274c6.964-9.716 16.866-15.032 27.682-15.032h.002m12.682 1.559h24.565v91.66h-24.565zm-2.934-27.956c0-8.159 6.783-14.942 15.216-14.942 8.342 0 15.218 6.783 15.218 14.942 0 8.34-6.876 15.032-15.218 15.032-8.433 0-15.216-6.692-15.216-15.032m91.335 99.176c13.473 0 24.197-9.991 24.197-25.024 0-14.666-10.082-25.664-24.106-25.664-13.199 0-23.559 9.99-23.559 25.664 0 14.849 9.716 25.024 23.465 25.024zm47.477-117.784v138.224H968.46v-11.091h-.55c-6.417 8.157-15.857 12.65-28.047 12.65-25.391 0-43.906-18.791-43.906-47.114 0-27.865 18.607-47.664 43.172-47.664 11.183 0 20.807 4.033 27.682 11.916h.457V68.803l24.565-.004"/><path d="M175.333 49.127H105.39c-19.825 0-32.394.077-44.274 11.957-11.91 11.908-11.985 24.539-11.985 44.303v69.943c0 19.827.078 32.397 11.956 44.275 11.916 11.917 24.54 11.986 44.303 11.986h69.944c19.827 0 32.394-.075 44.275-11.957 11.908-11.907 11.985-24.54 11.985-44.304v-69.943c0-19.826-.077-32.395-11.957-44.275-11.913-11.915-24.539-11.985-44.303-11.985" fill="#0085de" fill-rule="evenodd"/><path d="M190.103 197.695a7.59 7.59 0 01-7.59-7.591 7.591 7.591 0 1115.182 0 7.588 7.588 0 01-7.592 7.59zm-49.744-5.851c-28.387 0-51.483-23.099-51.483-51.485 0-28.39 23.096-51.486 51.483-51.486 28.389 0 51.488 23.096 51.488 51.486 0 28.386-23.099 51.485-51.488 51.485zm66.669-57.773c-3.168-33.87-31.97-60.379-66.667-60.379-36.815 0-66.666 29.847-66.666 66.667 0 35.556 27.792 64.709 62.857 66.666h52.864c9.69 0 17.612-7.922 17.612-17.612v-55.342" fill="#fff"/></svg>