<svg xmlns="http://www.w3.org/2000/svg" xmlns:xlink="http://www.w3.org/1999/xlink" id="Ebene_1" x="0" y="0" version="1.1" viewBox="0 0 711 236" xml:space="preserve" style="enable-background:new 0 0 711 236"><style type="text/css">.st0{fill:#004f91}.st1{fill-rule:evenodd;clip-rule:evenodd;fill:#e20613}</style><g><g><path d="M232.6,213h17.8v2.1h-15.5v7.6h14.9v2.1h-14.9v8.4h15.7v2.1h-18.1V213z" class="st0"/><path d="M295.8,226.8c0,4.1-1.1,9.2-10,9.2s-10-5.1-10-9.2V213h2.3v13.7c0,5.9,3.8,7.1,7.7,7.1s7.7-1.2,7.7-7.1V213 h2.3V226.8z" class="st0"/><path d="M322.4,213h12.2c3.8,0,7.3,1.3,7.3,6.1c0,2.4-1.5,4.8-4.4,5.4v0.1c3.2,0.5,3.8,2.5,4,6.2 c0.1,1.4,0.3,4.1,0.8,4.6h-2.5c-0.4-0.5-0.6-2.1-0.6-4.6c-0.1-4-1.6-5.3-5.4-5.3h-9v9.8h-2.3V213z M324.7,223.5h9.8 c2.5,0,4.8-0.9,4.8-4.4c0-3.3-2.5-3.9-4.6-3.9h-10V223.5z" class="st0"/><path d="M378.5,212.5c6.4,0,12.2,3.9,12.2,11.8s-5.8,11.8-12.2,11.8c-6.4,0-12.2-3.9-12.2-11.8 S372.2,212.5,378.5,212.5z M378.5,233.9c4.9,0,9.7-2.9,9.7-9.6c0-6.7-4.7-9.6-9.7-9.6c-4.9,0-9.7,2.9-9.7,9.6 C368.9,231,373.6,233.9,378.5,233.9z" class="st0"/><path d="M416.3,213h12.1c3.5,0,6.7,1.7,6.7,6.5c0,4.2-2.8,6.5-7.8,6.5h-8.7v9.4h-2.3V213z M418.6,223.9h9 c3.9,0,5-1.8,5-4.4c0-3.4-1.9-4.3-4.5-4.3h-9.4V223.9z" class="st0"/><path d="M460.3,213h17.8v2.1h-15.5v7.6h14.9v2.1h-14.9v8.4h15.7v2.1h-18.1V213z" class="st0"/></g><g><path d="M115.2,162.8c8.9,2,11.2,7.3,11.2,12.3c0,7.7-5.8,13.5-17.6,13.5c-12.3,0-17.9-6.2-17.9-10.8 c0-2.4,1.7-4,4.1-4c5.3,0,3.9,7.7,13.8,7.7c5,0,7.8-2.8,7.8-5.6c0-1.7-0.8-3.6-4.2-4.5l-11-2.8c-8.8-2.3-10.4-7.1-10.4-11.7 c0-9.5,8.8-13.1,17-13.1c7.6,0,16.6,4.3,16.6,10c0,2.4-2.1,3.9-4.5,3.9c-4.5,0-3.7-6.4-12.8-6.4c-4.5,0-7,2.1-7,5 c0,3,3.6,3.9,6.6,4.6L115.2,162.8z" class="st0"/><path d="M134.1,148.9c0-2.9,1.9-4.9,4.9-4.9c3,0,4.9,2,4.9,4.9V161h17.7v-12.1c0-2.9,1.9-4.9,4.9-4.9 c3,0,4.9,2,4.9,4.9v34.5c0,2.9-1.9,4.9-4.9,4.9c-3,0-4.9-2-4.9-4.9v-14.2h-17.7v14.2c0,2.9-1.9,4.9-4.9,4.9c-3,0-4.9-2-4.9-4.9 V148.9z" class="st0"/><path d="M200.7,143.8c14,0,21.6,9.3,21.6,21.8c0,12-7,22.9-21.6,22.9c-15.3,0-21.6-10-21.6-22.9 C179.1,153.1,186.7,143.8,200.7,143.8z M200.7,180.7c8.8,0,11.9-6.9,11.9-15.1s-3.9-14-11.9-14c-8,0-11.9,5.8-11.9,14 S191.6,180.7,200.7,180.7z" class="st0"/><path d="M230.2,150.5c0-4.3,2.3-5.7,5.7-5.7h14.9c8.2,0,14.8,4,14.8,13.5c0,7.8-5.4,13.5-14.8,13.5h-10.8v11.6 c0,2.9-1.9,4.9-4.9,4.9c-3,0-4.9-2-4.9-4.9V150.5z M239.9,164.4h9.1c3.9,0,6.8-2.4,6.8-6.1c0-4.3-3-6.1-7.8-6.1h-8.1V164.4z" class="st0"/><path d="M295,147c0.8-2.2,2.4-3,4.7-3h2.3c2.2,0,4.2,0.5,5.2,3.6l11.8,32.7c0.4,0.9,0.9,2.7,0.9,3.7 c0,2.4-2.1,4.3-4.6,4.3c-2.1,0-3.7-0.8-4.4-2.7l-2.5-7.1h-15.7l-2.6,7.1c-0.7,1.9-2,2.7-4.3,2.7c-2.7,0-4.5-1.7-4.5-4.3 c0-1.1,0.6-2.8,0.9-3.7L295,147z M300.9,154.6h-0.1l-5.8,17.2h11.4L300.9,154.6z" class="st0"/><path d="M325.8,150.5c0-4.3,2.3-5.7,5.7-5.7h14.9c8.2,0,14.8,4,14.8,13.5c0,7.8-5.4,13.5-14.8,13.5h-10.8v11.6 c0,2.9-1.9,4.9-4.9,4.9c-3,0-4.9-2-4.9-4.9V150.5z M335.5,164.4h9.1c3.9,0,6.8-2.4,6.8-6.1c0-4.3-3-6.1-7.8-6.1h-8.1V164.4z" class="st0"/><path d="M388,143.8c14,0,21.6,9.3,21.6,21.8c0,12-7,22.9-21.6,22.9c-15.3,0-21.6-10-21.6-22.9 C366.4,153.1,374,143.8,388,143.8z M388,180.7c8.8,0,11.9-6.9,11.9-15.1s-3.9-14-11.9-14c-8,0-11.9,5.8-11.9,14 S378.9,180.7,388,180.7z" class="st0"/><path d="M426.4,153h-9.2c-2.8,0-5-1.4-5-4.1c0-2.7,2.3-4.1,5-4.1h28.1c2.8,0,5,1.4,5,4.1c0,2.7-2.3,4.1-5,4.1h-9.2 v30.4c0,2.9-1.9,4.9-4.9,4.9c-3,0-4.9-2-4.9-4.9V153z" class="st0"/><path d="M456.3,148.9c0-2.9,1.9-4.9,4.9-4.9c3,0,4.9,2,4.9,4.9V161h17.7v-12.1c0-2.9,1.9-4.9,4.9-4.9 c3,0,4.9,2,4.9,4.9v34.5c0,2.9-1.9,4.9-4.9,4.9c-3,0-4.9-2-4.9-4.9v-14.2H466v14.2c0,2.9-1.9,4.9-4.9,4.9c-3,0-4.9-2-4.9-4.9 V148.9z" class="st0"/><path d="M503.4,150.5c0-4.3,2.3-5.7,5.7-5.7H532c2.8,0,4.9,0.8,4.9,3.9c0,3.1-2.1,3.9-4.9,3.9h-18.8v9.3h16.5 c2.6,0,4.6,0.7,4.6,3.7s-2,3.7-4.6,3.7h-16.5v10.3h19.3c2.8,0,4.9,0.8,4.9,3.9c0,3.1-2.1,3.9-4.9,3.9h-23.3 c-3.4,0-5.7-1.4-5.7-5.7V150.5z" class="st0"/><path d="M544.6,148.9c0-2.9,1.9-4.9,4.9-4.9c3,0,4.9,2,4.9,4.9V163l15.3-16.9c1.1-1.2,2.1-2.1,3.9-2.1 c2.3,0,4.6,1.4,4.6,3.9c0,1.5-0.8,2.5-1.6,3.3l-10,10.5l11.8,18c0.9,1.4,1.8,2.6,1.8,3.9c0,3.6-2.7,4.7-5,4.7c-2,0-3-0.5-4.3-2.6 l-11.2-17.3l-5.3,5.3v9.7c0,2.9-1.9,4.9-4.9,4.9c-3,0-4.9-2-4.9-4.9V148.9z" class="st0"/><path d="M586.2,150.5c0-4.3,2.3-5.7,5.7-5.7h22.9c2.8,0,4.9,0.8,4.9,3.9c0,3.1-2.1,3.9-4.9,3.9h-18.8v9.3h16.5 c2.6,0,4.6,0.7,4.6,3.7s-2,3.7-4.6,3.7h-16.5v10.3h19.3c2.8,0,4.9,0.8,4.9,3.9c0,3.1-2.1,3.9-4.9,3.9h-23.3 c-3.4,0-5.7-1.4-5.7-5.7V150.5z" class="st0"/></g><g><path d="M289.5,81.8c4.9,2.6,10.9,0.7,13.5-4.2c2.6-4.9,0.7-10.9-4.2-13.5c-4.9-2.6-10.9-0.7-13.5,4.2 C282.7,73.2,284.6,79.2,289.5,81.8" class="st1"/><path d="M322.4,113.7c4.4,2.3,9.8,0.6,12.1-3.8c2.3-4.4,0.6-9.8-3.8-12.1c-4.4-2.3-9.8-0.6-12.1,3.8 C316.3,106,318,111.4,322.4,113.7" class="st1"/><path d="M337.5,67.6c4.4,2.3,9.8,0.6,12.1-3.8c2.3-4.4,0.6-9.8-3.8-12.1c-4.4-2.3-9.8-0.6-12.1,3.8 C331.4,59.9,333.1,65.3,337.5,67.6" class="st1"/><path d="M361,51.7c5.2,2.7,11.6,0.7,14.4-4.5c2.7-5.2,0.7-11.6-4.5-14.4c-5.2-2.7-11.6-0.7-14.4,4.5 C353.8,42.6,355.8,49,361,51.7" class="st1"/><path d="M345.5,98.6c6.9,3.6,15.5,1,19.2-6c3.6-7,0.9-15.5-6-19.2c-6.9-3.6-15.5-0.9-19.2,6 C335.9,86.4,338.5,95,345.5,98.6" class="st1"/><path d="M204,93c3.1,1.6,7,0.4,8.6-2.7c1.6-3.1,0.4-7-2.7-8.6c-3.1-1.6-7-0.4-8.6,2.7C199.7,87.5,200.9,91.4,204,93" class="st1"/><path d="M309.8,64.6c3.4,1.8,7.7,0.5,9.5-3c1.8-3.4,0.5-7.7-3-9.5c-3.4-1.8-7.7-0.5-9.5,3 C305,58.6,306.3,62.8,309.8,64.6" class="st1"/><path d="M294.8,103.8c4,2.1,8.9,0.5,11-3.4c2.1-4,0.5-8.9-3.4-11c-4-2.1-8.9-0.5-11,3.4 C289.2,96.8,290.8,101.7,294.8,103.8" class="st1"/><path d="M248,69.1c3.1,1.6,7,0.4,8.6-2.7c1.6-3.1,0.4-7-2.7-8.6c-3.1-1.6-7-0.4-8.6,2.7 C243.6,63.6,244.8,67.5,248,69.1" class="st1"/><path d="M387.1,70.2c6.5,3.4,14.4,0.9,17.8-5.6c3.4-6.5,0.9-14.4-5.6-17.8c-6.5-3.4-14.4-0.9-17.8,5.6 C378.2,58.8,380.7,66.8,387.1,70.2" class="st1"/><path d="M382.9,105.9c7,3.7,15.7,1,19.4-6.1c3.7-7,1-15.7-6.1-19.4c-7-3.7-15.7-1-19.4,6.1 C373.2,93.6,375.9,102.3,382.9,105.9" class="st1"/><path d="M313.5,92.1c5.5,2.9,12.4,0.8,15.3-4.8c2.9-5.5,0.8-12.4-4.8-15.3c-5.5-2.9-12.4-0.8-15.3,4.8 C305.8,82.3,308,89.2,313.5,92.1" class="st1"/><path d="M423.7,86.1c9.6,5,21.4,1.3,26.4-8.3c5-9.6,1.3-21.4-8.3-26.4c-9.6-5-21.4-1.3-26.4,8.3 C410.4,69.3,414.1,81.1,423.7,86.1" class="st1"/><path d="M268.6,98.5c4.6,2.4,10.2,0.6,12.6-3.9c2.4-4.6,0.6-10.2-3.9-12.6c-4.6-2.4-10.2-0.6-12.6,3.9 C262.3,90.5,264,96.2,268.6,98.5" class="st1"/><path d="M465.1,101.7c8.3,4.3,18.5,1.1,22.8-7.2c4.3-8.3,1.1-18.5-7.1-22.9c-8.3-4.3-18.5-1.1-22.9,7.2 C453.6,87.1,456.8,97.3,465.1,101.7" class="st1"/><path d="M412.4,111c5.5,2.9,12.4,0.7,15.2-4.8c2.9-5.5,0.8-12.4-4.8-15.3c-5.5-2.9-12.4-0.8-15.3,4.8 C404.7,101.2,406.8,108.1,412.4,111" class="st1"/><path d="M410.9,45.4c8.1,4.2,18,1.1,22.2-7c4.2-8.1,1.1-18-7-22.2c-8.1-4.2-18-1.1-22.2,7 C399.7,31.3,402.8,41.2,410.9,45.4" class="st1"/><path d="M359.8,121.3c4.7,2.5,10.6,0.6,13.1-4.1c2.5-4.7,0.6-10.6-4.1-13.1c-4.7-2.5-10.6-0.6-13.1,4.1 C353.3,112.9,355.1,118.8,359.8,121.3" class="st1"/><path d="M223.2,79.1c4.4,2.3,9.8,0.6,12.1-3.8c2.3-4.4,0.6-9.8-3.8-12.1c-4.4-2.3-9.8-0.6-12.1,3.8 C217.1,71.4,218.8,76.8,223.2,79.1" class="st1"/><path d="M266.8,73.9c4.4,2.3,9.8,0.6,12.1-3.8c2.3-4.4,0.6-9.8-3.8-12.1c-4.4-2.3-9.8-0.6-12.1,3.8 C260.7,66.2,262.4,71.6,266.8,73.9" class="st1"/><path d="M245.8,91.2c4,2.1,9,0.5,11.1-3.5c2.1-4,0.6-9-3.5-11.1c-4-2.1-9-0.5-11.1,3.5 C240.2,84.2,241.8,89.1,245.8,91.2" class="st1"/><path d="M224.2,97.9c3.4,1.8,7.7,0.5,9.5-3c1.8-3.4,0.5-7.7-3-9.5c-3.4-1.8-7.7-0.5-9.5,3 C219.4,91.9,220.8,96.1,224.2,97.9" class="st1"/><path d="M367.9,73.7c3.1,1.6,7,0.4,8.6-2.7c1.6-3.1,0.4-7-2.7-8.6c-3.1-1.6-7-0.4-8.6,2.7 C363.5,68.2,364.7,72,367.9,73.7" class="st1"/><path d="M463.4,60.6c15.7,8.2,35.1,2.1,43.3-13.6c8.2-15.7,2.2-35.1-13.6-43.3c-15.7-8.2-35.1-2.1-43.3,13.6 C441.6,32.9,447.7,52.4,463.4,60.6" class="st1"/></g></g></svg>