<?xml version="1.0" encoding="UTF-8"?>
<svg width="478px" height="176px" viewBox="0 0 478 176" version="1.1" xmlns="http://www.w3.org/2000/svg" xmlns:xlink="http://www.w3.org/1999/xlink">
    <title>2181F03A-1C5F-4EC0-9536-D00E6DAE6FF6</title>
    <g id="Master-library" stroke="none" stroke-width="1" fill="none" fill-rule="evenodd">
        <g id="1.-Logo" transform="translate(-250.000000, -452.000000)" fill-rule="nonzero">
            <g id="Swoop-primary" transform="translate(250.000000, 452.000000)">
                <path d="M436.349596,38.7922362 C448.15596,38.7922362 457.873131,43.1734355 465.501111,51.9356322 C473.274848,60.6651341 477.113131,71.6505747 477.113131,84.9409962 C477.113131,97.9371648 473.274848,108.726437 465.598283,117.406897 C457.970303,125.989272 448.334108,130.288633 436.689697,130.304981 C426.632424,130.304981 417.64404,126.25083 409.724545,118.142529 L409.724545,174.590038 L389.950101,174.835249 L389.950101,45.9524904 L409.773131,46.2957854 L409.773131,50.6114943 C417.595455,42.7157088 426.454276,38.7759898 436.349596,38.7922362 Z M228.353535,0 L209.599394,41.1463602 L164.706061,134.228352 L140.850404,78.467433 L116.703232,134.228352 L71.8584848,41.1463602 L90.1267677,32.3187739 L116.606061,90.5808429 L140.850404,33.2505747 L165.240505,90.5808429 L190.165051,35.0651341 L228.353535,0 Z M46.9825253,0 C62.6271717,0 75.8911111,7.06206897 84.6851515,21.1371648 L66.999899,30.2590038 C63.890404,25.256705 60.9266667,22.0199234 58.1086869,20.4996169 C55.1935354,18.7831418 51.4038384,17.9003831 46.739596,17.9003831 C41.0550505,17.9003831 36.2936364,19.3716475 32.5525253,22.3632184 C28.8114141,25.3547893 26.9165657,28.983908 26.9165657,33.3977011 C26.9165657,39.5279693 31.8723232,44.4321839 41.7352525,48.2084291 L55.2907071,53.3088123 C66.319697,57.4283525 74.3849495,62.4306513 79.5350505,68.4137931 C84.6851515,74.3969349 87.2116162,81.6061303 87.2116162,90.2375479 C87.2116162,101.762452 83.0494276,111.309323 74.7250505,118.878161 C66.319697,126.479693 55.9223232,130.255939 43.4357576,130.255939 C31.6293939,130.255939 21.8798316,127.035504 14.1870707,120.594636 C6.60767677,114.121073 1.8786532,105.031928 1.80701963e-11,93.3272031 L20.7947475,89.1095785 C21.7178788,96.4659004 23.369798,101.566284 25.7505051,104.410728 C29.9774747,109.854406 36.1478788,112.551724 44.2617172,112.551724 C50.6750505,112.551724 55.9709091,110.590038 60.1978788,106.617625 C64.4248485,102.645211 66.5626263,97.6429119 66.5626263,91.5616858 C66.579422,89.2735912 66.20128,87.0000269 65.4451515,84.8429119 C64.6810745,82.7633152 63.5076177,80.8614786 61.9955556,79.2521073 C60.2229799,77.3701371 58.194494,75.7519231 55.9709091,74.445977 C53.1496925,72.8032008 50.2100529,71.3769551 47.1768687,70.1793103 L34.0586869,65.1279693 C15.450303,57.8697318 6.13801347,47.2439336 6.12181818,33.2505747 C6.12181818,23.8344828 10.0248822,15.9550447 17.8310101,9.61226054 C25.6533333,3.23678161 35.3705051,0 46.9825253,0 Z M243.609495,38.7923372 C256.33899,38.7923372 267.270808,43.2061303 276.210606,52.0337165 C285.004646,60.8613027 289.409764,71.7159642 289.42596,84.5977011 C289.42596,97.5938697 285.004646,108.432184 276.113434,117.210728 C267.222222,125.989272 256.241818,130.255939 243.269394,130.255939 C230.394141,130.255939 219.656667,125.793103 210.959798,116.916475 C202.262929,108.137931 197.906397,97.1197957 197.890202,83.862069 C197.890202,71.3563218 202.32771,60.7141762 211.202727,51.9356322 C220.045354,43.1570881 230.88,38.7923372 243.609495,38.7923372 Z M339.323636,38.7923372 C352.053131,38.7923372 362.984949,43.2061303 371.924747,52.0337165 C380.718788,60.8613027 385.123906,71.7159642 385.140101,84.5977011 C385.140101,97.5938697 380.718788,108.432184 371.827576,117.210728 C362.936364,125.989272 351.95596,130.255939 338.983535,130.255939 C326.108283,130.255939 315.370808,125.793103 306.673939,116.916475 C297.928485,108.137931 293.604343,97.1034483 293.604343,83.862069 C293.604343,71.3563218 298.041852,60.7141762 306.916869,51.9356322 C315.759495,43.1570881 326.594141,38.7923372 339.323636,38.7923372 Z M433.094343,56.8398467 C425.806465,56.8398467 419.927576,59.3900383 415.409091,64.4904215 C410.890606,69.5908046 408.607071,76.3095785 408.607071,84.5977011 C408.607071,92.7386973 410.890606,99.4084291 415.409091,104.704981 C419.87899,109.854406 425.757879,112.45364 433.045758,112.45364 C439.896364,112.45364 445.580909,109.854406 450.050808,104.606897 C454.617879,99.359387 456.901414,92.8367816 456.901414,84.9900383 C456.901414,76.7019157 454.666465,69.9340996 450.196566,64.7356322 C445.678081,59.4390805 439.993535,56.8398467 433.094343,56.8398467 Z M243.609495,56.7908046 C236.030101,56.7908046 229.908283,59.3409962 225.195455,64.4413793 C220.482626,69.5417625 218.150505,76.11341 218.150505,84.205364 C218.150505,92.8367816 220.43404,99.702682 225.001111,104.754023 C229.713939,109.854406 235.884343,112.404598 243.609495,112.404598 C251.334646,112.404598 257.553636,109.903448 262.217879,104.852107 C266.882121,99.8007663 269.165657,93.0819923 269.165657,84.6467433 C269.165657,76.2114943 266.833535,69.4927203 262.217879,64.4413793 C257.505051,59.3409962 251.334646,56.7908046 243.609495,56.7908046 Z M339.323636,56.7908046 C331.744242,56.7908046 325.622424,59.3409962 320.909596,64.4413793 C316.196768,69.5417625 313.864646,76.11341 313.864646,84.205364 C313.864646,92.8367816 316.148182,99.702682 320.715253,104.754023 C325.428081,109.854406 331.598485,112.404598 339.323636,112.404598 C347.048788,112.404598 353.267778,109.903448 357.93202,104.852107 C362.596263,99.8007663 364.879798,93.0819923 364.879798,84.6467433 C364.879798,76.2114943 362.547677,69.4927203 357.93202,64.4413793 C353.219192,59.3409962 347.048788,56.7908046 339.323636,56.7908046 Z" id="Shape" fill="#0B3850"></path>
                <polygon id="Path" fill="#96D3E1" points="225.924242 22.7555556 210.716869 40.4597701 190.165051 35.0651341"></polygon>
                <polygon id="Path" fill="#082330" points="222.426061 34.4766284 208.676263 43.2551724 190.165051 35.0651341"></polygon>
            </g>
        </g>
    </g>
</svg>