<svg version="1.1" id="Layer_1" xmlns="http://www.w3.org/2000/svg" xmlns:xlink="http://www.w3.org/1999/xlink" x="0px" y="0px"
	 width="360px" height="280.646px" viewBox="-111.85 -99.781 360 280.646" enable-background="new -111.85 -99.781 360 280.646"
	 xml:space="preserve">
<g>
	<polygon fill="#00529B" points="36.33,56.749 13.512,73.325 41.296,93.514 50.009,66.692 	"/>
	<polygon fill="#00529B" points="45.401,96.5 68.218,113.074 91.022,96.5 68.218,79.917 	"/>
	<polygon fill="#00529B" points="56.927,45.277 -26.724,-15.506 -7.197,25.13 20.546,45.277 	"/>
	<polygon fill="#00529B" points="65.682,18.478 -51.191,-66.441 -31.666,-25.797 58.723,39.876 	"/>
	<polygon fill="#00529B" points="-34.622,-99.781 -48.402,-71.107 -6.056,-40.342 	"/>
	<polygon fill="#00529B" points="86.418,66.692 95.138,93.514 122.912,73.325 100.092,56.749 	"/>
	<polygon fill="#00529B" points="115.882,45.277 143.625,25.13 163.144,-15.506 79.502,45.277 	"/>
	<polygon fill="#00529B" points="70.751,18.478 77.7,39.876 168.09,-25.797 187.62,-66.441 	"/>
	<polygon fill="#00529B" points="171.05,-99.781 142.476,-40.342 184.829,-71.107 	"/>
	<path fill="#00529B" d="M55.542,60.748c0-6.997,5.676-12.677,12.682-12.677c6.99,0,12.677,5.68,12.677,12.677
		c0,7.005-5.687,12.68-12.677,12.68C61.218,73.427,55.542,67.753,55.542,60.748z"/>
</g>
<g>
	<path fill="#00529B" d="M-111.85,154.258h9.173v14.596c0,1.603,0.146,2.768,0.728,3.75c1.165,2.001,3.494,2.548,5.351,2.548
		c2.402,0,3.785-0.837,4.404-1.42c1.564-1.455,1.602-3.785,1.602-5.023v-14.45h9.172v13.467c0,3.021-0.071,6.188-1.491,8.373
		c-2.803,4.367-9.573,4.768-13.65,4.768c-5.715,0-8.954-0.801-10.883-1.963c-4.004-1.968-4.404-6.044-4.404-8.119V154.258z"/>
	<path fill="#00529B" d="M-78.969,173.259h8.372v6.697h-8.372V173.259z"/>
	<path fill="#00529B" d="M-56.573,160.882c0,0.365,0.109,0.692,0.291,0.911c0.619,0.801,3.203,1.382,4.623,1.674
		c1.748,0.399,3.531,0.728,5.277,1.127c1.129,0.219,2.221,0.475,3.313,0.911c3.421,1.274,4.514,3.822,4.514,6.151
		c0,1.711-0.583,3.276-1.347,4.404c-2.148,3.24-6.48,4.66-13.396,4.66c-2.584,0-7.716-0.218-10.736-2.912
		c-2.221-1.967-2.549-4.332-2.694-5.496l9.063-0.256c0.327,1.675,2.038,2.949,5.678,2.949c0.947,0,2.293-0.11,3.203-0.618
		c0.619-0.365,1.274-1.094,1.274-1.966c0-1.202-0.982-1.712-1.71-1.966c-1.129-0.364-6.916-1.384-8.191-1.675
		c-1.018-0.219-1.965-0.473-2.947-0.801c-0.982-0.364-5.097-1.821-5.097-6.516c0-1.93,0.802-3.713,2.075-5.023
		c2.875-2.984,8.045-3.275,10.883-3.275c3.131,0,6.226,0.436,7.826,0.981c4.805,1.53,5.424,5.134,5.68,6.517l-9.027,0.51
		c-0.219-0.839-0.656-2.367-4.514-2.367C-53.734,158.806-56.573,158.989-56.573,160.882z"/>
	<path fill="#00529B" d="M-35.564,173.259h8.372v6.697h-8.372V173.259z"/>
	<path fill="#00529B" d="M6.229,170.092H0.26l2.948-8.699L6.229,170.092z M-13.135,179.956h10.083l1.383-4.187h9.828l1.383,4.187
		h10.011l-11.14-25.698H-2.069L-13.135,179.956z"/>
	<path fill="#00529B" d="M32.174,154.258v25.698h-9.21v-25.698H32.174z"/>
	<path fill="#00529B" d="M48.223,160.082h7.645c0.691,0,1.637,0.071,2.365,0.729c0.474,0.437,0.656,1.055,0.656,1.638
		c0,2.293-2.33,2.329-3.75,2.329h-6.916V160.082z M39.014,179.956h9.209v-9.354h4.914l5.277,9.354h10.193l-6.443-10.265
		c1.092-0.291,2.839-0.656,4.295-2.402c1.057-1.273,1.639-3.059,1.639-4.878c0-2.585-1.165-5.095-3.022-6.516
		c-2.147-1.566-4.914-1.603-7.17-1.638H39.014V179.956z"/>
	<path fill="#00529B" d="M82.343,154.258h25.188v5.787H91.552v4.914h14.668v5.751H91.552v9.246h-9.21V154.258z"/>
	<path fill="#00529B" d="M128.156,159.025c6.296,0.073,7.535,5.242,7.535,8.045c0,2.583-0.982,5.934-3.822,7.353
		c-1.128,0.583-2.439,0.729-3.713,0.729c-5.568,0-7.717-4.113-7.717-8.081C120.439,163.54,122.369,158.953,128.156,159.025z
		 M127.61,153.31c-4.551,0.073-10.665,0.911-14.268,6.008c-1.64,2.327-2.368,5.168-2.368,8.044c0,2.948,0.692,5.423,2.439,7.752
		c1.893,2.585,5.57,5.751,14.524,5.751c4.658,0,8.808-0.653,12.303-3.421c1.236-0.947,2.256-2.11,3.058-3.459
		c1.273-2.111,1.857-4.585,1.857-6.987c0-4.404-2.075-9.793-7.974-12.193C134.235,153.601,130.812,153.275,127.61,153.31z"/>
	<path fill="#00529B" d="M159.497,160.082h7.645c0.691,0,1.638,0.071,2.365,0.729c0.475,0.437,0.656,1.055,0.656,1.638
		c0,2.293-2.33,2.329-3.749,2.329h-6.917V160.082z M150.287,179.956h9.21v-9.354h4.914l5.278,9.354h10.192l-6.444-10.265
		c1.093-0.291,2.84-0.656,4.296-2.402c1.057-1.273,1.638-3.059,1.638-4.878c0-2.585-1.164-5.095-3.021-6.516
		c-2.147-1.566-4.913-1.603-7.169-1.638h-18.894V179.956z"/>
	<path fill="#00529B" d="M193.277,167.107c0,3.895,2.292,7.936,7.571,7.936c2.001,0,3.857-0.62,5.205-1.711
		c1.2-0.984,1.565-1.819,1.856-2.586l8.771,0.91c-0.291,0.947-0.618,1.893-1.456,3.203c-3.021,4.66-8.918,5.971-14.56,5.971
		c-2.512,0-4.988-0.22-7.353-0.947c-5.279-1.639-9.646-5.679-9.646-12.739c0-4.988,2.619-13.978,17.252-13.978
		c12.484,0,14.452,5.678,15.288,8.117l-8.517,1.529c-0.363-0.729-0.801-1.712-2.148-2.585c-1.384-0.874-3.094-1.166-4.404-1.166
		C196.989,159.061,193.277,161.645,193.277,167.107z"/>
	<path fill="#00529B" d="M247.787,154.258v5.787h-17.873v4.186h16.526v5.824h-16.563v4.077h18.272v5.824h-27.444v-25.698H247.787z"
		/>
</g>
</svg>
