<svg xmlns="http://www.w3.org/2000/svg" xmlns:svg="http://www.w3.org/2000/svg" xmlns:xlink="http://www.w3.org/1999/xlink" id="svg2" width="298" height="77.5" enable-background="new -.836 -.215 298 84" version="1.0" viewBox="-0.836 -0.215 298 84" xml:space="preserve"><metadata id="metadata37"/><defs id="defs4"><clipPath id="XMLID_126_"><use id="use30" width="298" height="84" x="0" y="0" xlink:href="#XMLID_123_"/></clipPath></defs><g id="g2394" transform="matrix(1.1144574,0,0,1.1144574,-12.495348,2.620768e-2)"><g style="fill:#006;fill-opacity:1" id="g6" transform="matrix(0.975878,0,0,0.9011521,-0.7892489,-0.2380792)"><g style="fill:#006;fill-opacity:1" id="g8"><polyline style="fill:#006;fill-opacity:1" id="polyline10" points="0 83.522 297.008 83.639 297.04 .116 .033 0"/></g></g><path style="fill:#fcb50f;fill-opacity:1" id="path12" d="M 123.89873,19.808733 C 124.26073,20.310733 124.45573,20.949733 124.26073,21.587733 C 123.92573,23.031733 122.67673,24.559733 121.23173,25.084733 C 120.45273,25.335733 119.59073,25.363733 118.81573,25.085733 C 118.20473,24.558733 117.95173,23.862733 118.06473,23.030733 C 118.31573,21.418733 119.90073,20.140733 121.28873,19.473733 C 122.09573,19.225733 123.26073,19.142733 123.89873,19.808733"/><path style="fill:#fcb50f;fill-opacity:1" id="path14" d="M 91.202733,19.047733 C 91.591733,19.519733 91.729733,20.157733 91.562733,20.770733 C 90.977733,22.547733 89.254733,24.466733 87.336733,24.573733 C 86.697733,24.546733 86.085733,24.212733 85.781733,23.628733 C 85.392733,22.464733 85.921733,21.378733 86.533733,20.462733 C 87.591733,19.018733 89.618733,17.962733 91.202733,19.047733"/><rect style="fill:#fff" id="rect16" width="40.293" height="11.703" x="16.318" y="-229.012" transform="matrix(-4.1203098e-4,0.9999999,-0.9999999,-4.1203098e-4,0,0)"/><polyline style="fill:#fff" id="polyline18" points="260.36 60.813 260.376 20.521 272.08 20.525 272.069 48.783 280.931 48.786 280.925 60.821 260.36 60.813" transform="translate(-4.0962668,-4.0962668)"/><polyline style="fill:#fff" id="polyline20" points="236.662 60.804 236.679 20.511 248.382 20.517 248.37 48.773 257.231 48.777 257.227 60.813 236.662 60.804" transform="translate(-4.0962668,-4.0962668)"/><polyline style="fill:#fff" id="polyline22" points="188.653 20.491 188.637 60.785 200.674 60.79 200.682 45.742 205.864 45.745 205.856 60.792 217.896 60.798 217.912 20.504 205.875 20.499 205.869 34.377 200.687 34.373 200.691 20.496 188.653 20.491" transform="translate(-4.0962668,-4.0962668)"/><g style="fill:#fcb50f;fill-opacity:1" id="g24" transform="translate(-4.0962668,-4.0962668)"><defs id="defs26"><rect id="XMLID_123_" width="54.952" height="267.249" x="119.999" y="-93.603" transform="matrix(3.732006e-4,-1,1,3.732006e-4,107.3981,187.4812)"/></defs><clipPath id="clipPath2450"><use id="use2452" width="298" height="84" x="0" y="0" xlink:href="#XMLID_123_"/></clipPath><path style="fill:#fcb50f;fill-opacity:1" id="path32" d="M 184.169,23.983 C 187.392,29.571 186.974,37.822 184.023,43.405 C 181.354,48.819 177.908,54.319 172.795,58.375 C 170.155,60.066 167.265,62.344 163.793,60.955 C 162.569,60.287 161.903,59.038 161.737,57.73 C 161.739,52.478 165.631,48.703 168.771,45.008 C 171.329,42.343 174.58,39.427 177.276,36.705 C 177.749,36.287 177.831,35.647 177.775,35.094 C 176.636,33.871 175.054,35.177 173.858,35.648 C 169.689,38.341 165.911,42.173 162.688,46.06 L 151.208,60.087 C 150.456,60.477 149.902,59.642 149.152,59.725 C 147.928,59.474 147.04,60.14 145.985,60.085 C 145.761,59.918 145.873,59.584 145.983,59.419 L 151.461,52.197 L 161.495,39.003 C 162.052,37.81 163.108,36.757 163.135,35.449 C 162.776,34.922 162.079,35.393 161.691,35.641 C 155.826,40.197 150.991,46.305 146.293,51.834 L 139.54,60.22 C 138.9,60.445 138.458,59.83 137.846,59.776 C 136.874,59.552 135.956,59.884 135.067,60.079 L 134.679,60.025 L 134.677,59.468 L 149.716,39.722 C 150.523,38.304 151.692,37.138 151.774,35.499 C 151.441,34.803 150.691,35.193 150.218,35.442 C 147.16,37.384 145.131,40.469 142.631,43.081 L 134.433,52.69 C 131.876,55.215 129.679,58.382 126.731,60.269 C 126.093,60.575 125.371,60.741 124.706,60.381 C 122.707,58.631 123.958,55.407 124.568,53.435 C 121.511,55.934 118.814,59.35 115.007,60.433 C 114.176,60.515 113.452,60.183 112.952,59.57 C 111.981,58.042 111.758,55.986 111.729,54.291 C 109.233,56.456 106.591,59.096 103.532,60.317 C 102.951,60.371 102.393,60.316 102.035,59.816 C 100.619,58.094 101.344,55.62 101.618,53.731 C 98.729,56.092 95.84,59.008 92.422,60.366 C 91.783,60.561 90.893,60.589 90.366,60.118 C 88.893,58.534 89.533,56.143 89.812,54.226 C 87.2,56.393 84.726,59.448 81.446,60.252 C 80.697,60.419 80.172,59.778 79.807,59.251 C 79.004,57.222 79.421,54.639 80.201,52.723 C 77.255,55.361 74.171,58.47 70.64,60.191 C 70.056,60.386 69.222,60.58 68.639,60.247 C 67.112,58.553 68.057,55.914 68.643,54.107 C 69.616,51.884 70.837,49.831 72.367,47.94 L 82.818,34.574 C 84.657,34.576 86.58,34.659 87.959,34.556 C 88.32,34.749 88.07,35.139 87.958,35.362 L 80.315,44.611 L 70.752,56.082 C 70.001,57.191 68.919,58.274 69.086,59.691 C 69.916,60.417 70.78,59.416 71.556,59.137 C 75.614,56.247 79.366,52.779 82.564,48.89 L 91.43,37.335 L 102.689,22.838 C 102.881,22.645 103.104,22.56 103.355,22.505 C 105.214,22.755 106.743,22.563 108.522,22.702 C 108.855,22.757 108.772,23.173 108.688,23.396 L 104.464,28.669 L 89.261,47.035 C 86.536,50.198 84.008,53.477 81.865,56.894 C 81.589,57.782 80.475,58.864 81.45,59.755 C 83.948,59.114 85.673,57.005 87.592,55.339 C 89.452,53.591 91.064,51.728 92.733,49.7 L 111.246,26.009 C 112.329,24.871 112.94,23.343 114.275,22.512 L 119.497,22.708 C 119.804,22.847 119.719,23.291 119.553,23.458 L 101.624,45.12 L 92.479,56.282 C 91.896,57.284 91.064,58.283 91.174,59.507 C 91.394,59.868 91.81,59.925 92.116,59.868 C 95.091,58.676 97.785,56.37 100.177,54.121 C 104.096,50.455 107.348,45.732 110.74,41.651 L 116.257,34.588 L 121.716,34.571 C 122.022,34.709 121.967,35.18 121.799,35.376 L 113.404,45.486 L 104.538,56.095 C 103.926,57.234 102.594,58.398 103.287,59.762 C 106.036,58.928 107.927,56.54 110.178,54.735 L 112.098,52.624 C 115.573,42.819 125.828,36.573 135.191,34.02 C 135.802,33.827 136.441,34.049 136.941,34.327 C 137.552,34.772 137.551,35.579 137.441,36.244 C 137.385,36.301 137.357,36.328 137.357,36.385 C 137.44,36.438 137.496,36.55 137.607,36.494 C 138.163,35.746 138.72,34.746 139.554,34.385 C 141.329,34.468 142.923,34.182 144.746,34.329 C 145.19,34.47 144.913,34.941 144.803,35.189 L 127.485,55.994 C 126.79,57.188 125.486,58.132 125.373,59.576 C 125.708,60.131 126.236,59.633 126.625,59.522 L 128.847,57.606 L 137.797,47.662 C 141.524,43.637 144.691,39.053 148.776,35.501 C 149.777,34.803 150.832,33.972 152.139,34.389 C 153.278,34.917 153.722,36.141 153.805,37.309 C 154.055,39.335 152.997,41.278 152.329,43.141 C 152.773,43.196 152.912,42.557 153.33,42.224 C 156.44,39.503 158.751,36.586 162.25,34.532 C 162.945,34.284 163.725,34.089 164.361,34.533 C 165.444,35.255 165.694,36.534 165.722,37.812 C 165.635,39.508 165.027,41.009 164.36,42.397 C 164.442,42.507 164.58,42.451 164.664,42.479 C 168.056,39.147 171.528,35.285 175.919,33.982 C 176.728,33.733 177.699,33.843 178.393,34.29 C 179.863,35.54 179.25,38.097 178.696,39.623 C 177.779,41.679 176.417,43.596 174.97,45.4 L 166.354,55.871 C 165.576,57.149 164.41,58.343 164.601,59.981 C 164.936,60.649 165.6,60.733 166.268,60.706 C 171.688,59.624 175.328,55.234 178.637,50.902 C 183.612,44.127 187.004,34.905 183.729,26.345 C 182.341,22.595 178.621,19.953 174.674,19.699 C 170.423,19.477 166.368,21.781 164.115,25.531 C 163.531,26.977 162.613,28.864 163.559,30.423 C 164.584,31.948 166.337,31.88 167.836,31.685 C 170.779,30.935 173.17,28.951 175.117,26.287 L 175.284,26.286 C 175.144,27.315 174.28,28.092 173.67,28.953 C 171.418,31.426 168.335,32.951 164.863,32.173 C 163.89,31.727 162.779,30.727 162.639,29.613 C 162.279,25.364 165.282,21.948 168.894,20.115 C 172.479,18.258 177.203,18.146 180.703,20.314 C 182.063,21.261 183.256,22.567 184.169,23.983 M 135.632,34.522 C 133.55,34.937 131.937,36.493 130.214,37.797 C 125.433,42.407 120.597,46.853 117.068,52.184 C 115.704,54.408 114.177,56.515 113.841,59.156 C 113.87,59.517 114.26,59.795 114.649,59.77 C 116.927,59.657 118.343,57.518 120.233,56.244 C 125.069,51.66 130.184,46.272 134.268,40.521 C 135.298,38.91 136.55,37.161 136.55,35.131 C 136.467,34.689 136.049,34.495 135.632,34.522 z" clip-path="url(#XMLID_126_)"/><path style="fill:#fcb50f;fill-opacity:1" id="path34" d="M 74.436,18.969 C 75.354,19.552 76.295,20.024 77.046,20.969 C 75.794,20.72 74.658,19.552 73.378,19.024 C 61.577,12.795 46.268,13.177 34.04,18.202 C 25.093,21.923 15.533,29.974 14.475,40.224 C 14.306,44.31 14.86,49.504 19.248,51.423 C 19.691,51.2 19.471,50.534 19.443,50.172 C 18.309,40.978 21.202,31.532 29.176,26.645 C 32.259,24.675 35.8,23.941 39.732,23.874 C 43.817,21.9 48.404,20.182 53.263,21.016 C 56.098,21.518 58.625,22.769 61.655,22.826 C 63.49,22.051 65.378,20.467 67.488,21.272 C 67.711,21.496 67.739,21.94 67.544,22.188 C 65.986,23.301 63.934,23.382 62.072,23.548 C 59.431,25.602 58.263,28.74 56.818,31.437 C 52.591,40.713 49.42,50.548 41.22,58.075 C 40.833,58.407 40.303,58.572 40.024,59.046 C 41.916,58.964 43.499,57.713 45.055,56.63 C 52.724,49.938 57.008,40.521 62.456,32.078 C 65.291,27.884 68.736,23.775 73.071,21.08 C 73.405,21.053 73.71,21.109 73.737,21.47 C 73.265,22.387 72.433,23.163 71.877,24.053 C 67.317,31.609 66.868,40.887 61.699,48.192 C 58.946,52.469 55.75,56.386 51.332,59.133 L 51.331,59.244 C 51.221,59.134 50.998,59.218 50.97,59.301 C 51.027,59.577 51.332,59.522 51.443,59.385 C 55.026,59.134 57.78,56.494 60.529,54.219 C 65.84,48.972 69.064,42.221 73.262,36.166 C 77.956,28.528 84.935,21.392 93.298,18.172 C 99.243,16.313 106.549,16.593 110.801,21.707 C 110.967,21.902 111.022,22.125 110.993,22.403 L 110.743,22.402 C 106.662,18.371 100.133,18.118 94.994,20.087 C 88.018,22.253 82.015,28.361 77.65,34.416 L 69.895,45.723 C 65.197,52.83 58,61.051 48.915,60.548 C 47.721,61.045 46.276,61.489 45.192,60.601 C 45.026,60.129 45.417,59.992 45.61,59.742 C 46.777,58.993 48.582,60.27 49.47,58.882 C 52.529,55.548 54.53,51.632 56.614,47.882 C 58.506,44.272 60.065,40.52 61.703,36.771 C 61.676,36.717 61.594,36.716 61.51,36.716 C 56.84,44.826 51.751,54.577 42.831,59.295 C 40.804,60.601 37.916,60.042 35.801,60.986 C 34.885,61.127 33.664,61.07 33.024,60.292 C 32.83,59.792 33.275,59.403 33.635,59.236 C 35.08,58.68 36.247,59.237 37.747,59.293 C 39.637,57.877 40.584,55.656 41.724,53.656 C 45.088,46.655 47.729,39.376 51.953,32.739 C 54.15,29.295 56.958,26.212 60.099,23.741 L 59.903,23.632 C 54.543,22.961 48.708,23.516 43.845,25.543 C 43.928,26.264 44.622,26.874 44.901,27.596 C 46.983,32.683 44.98,38.265 42.781,42.681 C 40.143,47.014 35.639,52.264 30.222,51.649 C 29.499,51.512 28.89,50.984 28.195,50.927 C 26.222,51.983 23.999,52.398 21.72,52.702 C 21.221,53.229 21.86,53.926 21.913,54.509 C 24.884,62.261 32.314,65.99 40.256,66.242 L 281.09,66.339 L 281.086,67.53 L 43.181,67.412 C 34.403,67.829 26.577,65.178 21.968,57.675 C 20.913,56.147 20.552,54.341 19.861,52.647 C 18.862,51.896 17.581,51.452 16.692,50.419 C 13.637,47.169 13.474,42.17 14.226,37.889 C 16.396,27.668 24.622,18.782 34.543,15.286 C 47.185,10.455 63.271,12.073 74.436,18.969 M 42.54,26.151 C 34.535,30.01 26.81,37.896 27.5,47.509 C 27.724,48.204 27.724,49.066 28.361,49.564 C 32.751,46.484 36.476,41.707 37.701,36.509 L 37.868,36.511 C 38.033,36.901 38.117,37.345 38.005,37.762 C 36.948,42.736 33.639,47.289 29.307,50.428 C 29.306,50.928 29.887,50.872 30.168,51.093 C 34.973,51.681 37.81,47.012 40.614,43.903 C 43.508,39.07 46.786,33.016 44.012,27.208 C 43.65,26.818 43.262,25.928 42.54,26.151 z M 35.215,24.821 C 34.101,25.084 33.023,25.55 32.483,25.787 C 23.897,29.671 20.087,39.117 20.613,48.117 C 20.748,49.369 20.777,50.647 21.303,51.727 C 22.913,52.091 24.721,51.646 26.25,50.925 C 26.721,50.591 27.555,50.454 27.555,49.732 C 26.833,48.565 26.472,47.257 26.197,45.896 C 25.7,37.062 30.981,29.229 38.068,24.732 L 38.179,24.481 C 37.726,24.452 36.452,24.528 35.215,24.821 z" clip-path="url(#XMLID_126_)"/></g></g></svg>