<?xml version="1.0" encoding="UTF-8" standalone="no"?>
<svg
   fill="none"
   stroke="none"
   stroke-linecap="square"
   stroke-miterlimit="10"
   version="1.1"
   viewBox="0 0 960 720"
   id="svg123"
   sodipodi:docname="arch.svg"
   inkscape:version="1.3 (0e150ed6c4, 2023-07-21)"
   xmlns:inkscape="http://www.inkscape.org/namespaces/inkscape"
   xmlns:sodipodi="http://sodipodi.sourceforge.net/DTD/sodipodi-0.dtd"
   xmlns="http://www.w3.org/2000/svg"
   xmlns:svg="http://www.w3.org/2000/svg">
  <defs
     id="defs123" />
  <sodipodi:namedview
     id="namedview123"
     pagecolor="#ffffff"
     bordercolor="#000000"
     borderopacity="0.25"
     inkscape:showpageshadow="2"
     inkscape:pageopacity="0.0"
     inkscape:pagecheckerboard="0"
     inkscape:deskcolor="#d1d1d1"
     inkscape:zoom="1.3092083"
     inkscape:cx="373.12626"
     inkscape:cy="295.21658"
     inkscape:window-width="1920"
     inkscape:window-height="1017"
     inkscape:window-x="1912"
     inkscape:window-y="-8"
     inkscape:window-maximized="1"
     inkscape:current-layer="g123" />
  <clipPath
     id="p.0">
    <path
       d="m0 0l960.0 0l0 720.0l-960.0 0l0 -720.0z"
       clip-rule="nonzero"
       id="path1" />
  </clipPath>
  <g
     clip-path="url(#p.0)"
     id="g123">
    <path
       fill="#000"
       fill-opacity="0"
       fill-rule="evenodd"
       d="m0 0l960.0 0l0 720.0l-960.0 0z"
       id="path2" />
    <path
       fill="#000"
       fill-opacity="0"
       fill-rule="evenodd"
       d="m81.779526 151.74236l0 0c0 -60.804718 49.29196 -110.09669 110.096695 -110.09669l584.31055 0c29.199463 0 57.203003 11.599442 77.8501 32.246574c20.647156 20.647133 32.246582 48.650658 32.246582 77.85011l0 440.37354c0 60.80475 -49.29193 110.09668 -110.09668 110.09668l-584.31055 0l0 0c-60.804733 0 -110.096695 -49.29193 -110.096695 -110.09668z"
       id="path3" />
    <path
       fill-rule="evenodd"
       stroke="#46f"
       stroke-dasharray="8 6"
       stroke-linecap="butt"
       stroke-linejoin="round"
       stroke-width="2"
       d="m81.779526 151.74236l0 0c0 -60.804718 49.29196 -110.09669 110.096695 -110.09669l584.31055 0c29.199463 0 57.203003 11.599442 77.8501 32.246574c20.647156 20.647133 32.246582 48.650658 32.246582 77.85011l0 440.37354c0 60.80475 -49.29193 110.09668 -110.09668 110.09668l-584.31055 0l0 0c-60.804733 0 -110.096695 -49.29193 -110.096695 -110.09668z"
       id="path4" />
    <path
       fill="#000"
       fill-opacity="0"
       fill-rule="evenodd"
       d="m138.28084 191.67905l0 0c0 -51.89261 42.067276 -93.959885 93.959885 -93.959885l500.64716 0c24.919739 0 48.818787 9.899315 66.4397 27.52021c17.62085 17.620903 27.520203 41.519966 27.520203 66.439674l0 375.82828c0 51.89258 -42.06726 93.95984 -93.9599 93.95984l-500.64716 0l0 0c-51.89261 0 -93.959885 -42.06726 -93.959885 -93.95984z"
       id="path5" />
    <path
       fill-rule="evenodd"
       stroke="#464646"
       stroke-linecap="butt"
       stroke-linejoin="round"
       stroke-width="2"
       d="m138.28084 191.67905l0 0c0 -51.89261 42.067276 -93.959885 93.959885 -93.959885l500.64716 0c24.919739 0 48.818787 9.899315 66.4397 27.52021c17.62085 17.620903 27.520203 41.519966 27.520203 66.439674l0 375.82828c0 51.89258 -42.06726 93.95984 -93.9599 93.95984l-500.64716 0l0 0c-51.89261 0 -93.959885 -42.06726 -93.959885 -93.95984z"
       id="path6" />
    <path
       fill="#000"
       fill-opacity="0"
       fill-rule="evenodd"
       d="m200.24934 191.99286l0 0c0 -20.140686 16.32724 -36.467926 36.467926 -36.467926l145.8673 0l0 0c9.6719055 0 18.947662 3.8421478 25.786713 10.681213c6.839081 6.8390503 10.681213 16.114822 10.681213 25.786713l0 402.08777c0 20.140686 -16.32724 36.467957 -36.467926 36.467957l-145.8673 0c-20.140686 0 -36.467926 -16.32727 -36.467926 -36.467957z"
       id="path7" />
    <path
       fill-rule="evenodd"
       stroke="#ff6400"
       stroke-linecap="butt"
       stroke-linejoin="round"
       stroke-width="2"
       d="m200.24934 191.99286l0 0c0 -20.140686 16.32724 -36.467926 36.467926 -36.467926l145.8673 0l0 0c9.6719055 0 18.947662 3.8421478 25.786713 10.681213c6.839081 6.8390503 10.681213 16.114822 10.681213 25.786713l0 402.08777c0 20.140686 -16.32724 36.467957 -36.467926 36.467957l-145.8673 0c-20.140686 0 -36.467926 -16.32727 -36.467926 -36.467957z"
       id="path8" />
    <path
       fill="#000"
       fill-opacity="0"
       fill-rule="evenodd"
       d="m75.367455 6.132729l148.8819 0l0 56.377953l-148.8819 0z"
       id="path9" />
    <path
       fill="#000"
       fill-opacity="0"
       fill-rule="evenodd"
       d="m191.69504 120.190155l183.46457 0l0 56.37796l-183.46457 0z"
       id="path11" />
    <path
       fill="#e6e6e6"
       fill-rule="evenodd"
       d="m234.35641 527.51447l-0.6577301 0.060180664l-1.1964264 0.40496826l-0.85816956 0.8098755l-0.5324402 1.0397949l-0.06265259 0.57458496l0 63.617126l0.06265259 0.5800781l0.5324402 1.0397949l0.85816956 0.8098755l1.1964264 0.40496826l0.6577301 0.054748535l142.25641 0l0.66397095 -0.054748535l1.1901855 -0.40496826l0.927063 -0.8098755l0.4635315 -1.0397949l0.06890869 -0.5800781l0 -63.617126l-0.06890869 -0.57458496l-0.4635315 -1.0397949l-0.927063 -0.8098755l-1.1901855 -0.40496826l-0.66397095 -0.060180664z"
       id="path13" />
    <path
       fill="#fff"
       fill-rule="evenodd"
       d="m242.78023 536.18634l126.047226 0l0 52.06299l-126.047226 0z"
       id="path14" />
    <path
       fill="#000"
       fill-rule="nonzero"
       d="m296.6637 568.3278q-0.875 0 -1.6875 -0.359375q-0.796875 -0.359375 -1.421875 -1.046875q-0.625 -0.703125 -0.890625 -1.6875l1.296875 -0.53125q0.265625 1.015625 1.0 1.671875q0.734375 0.65625 1.734375 0.65625q0.984375 0 1.671875 -0.53125q0.6875 -0.53125 0.6875 -1.46875q0 -0.796875 -0.578125 -1.3125q-0.578125 -0.515625 -1.90625 -0.96875l-0.734375 -0.25q-1.203125 -0.4375 -1.984375 -1.140625q-0.765625 -0.703125 -0.765625 -1.953125q0 -0.8125 0.453125 -1.5q0.453125 -0.703125 1.25 -1.125q0.796875 -0.421875 1.796875 -0.421875q0.984375 0 1.71875 0.375q0.734375 0.375 1.171875 0.90625q0.453125 0.515625 0.625 1.03125l-1.265625 0.546875q-0.171875 -0.59375 -0.75 -1.078125q-0.5625 -0.484375 -1.484375 -0.484375q-0.890625 0 -1.515625 0.5q-0.625 0.5 -0.625 1.25q0 0.671875 0.53125 1.09375q0.53125 0.421875 1.609375 0.796875l0.75 0.25q1.453125 0.53125 2.265625 1.328125q0.8125 0.78125 0.8125 2.140625q0 1.109375 -0.5625 1.859375q-0.5625 0.75 -1.4375 1.109375q-0.859375 0.34375 -1.765625 0.34375zm9.148285 0q-1.171875 0 -2.109375 -0.546875q-0.921875 -0.5625 -1.4375 -1.546875q-0.515625 -0.984375 -0.515625 -2.21875q0 -1.171875 0.484375 -2.171875q0.484375 -1.0 1.390625 -1.59375q0.90625 -0.59375 2.078125 -0.59375q1.203125 0 2.078125 0.546875q0.875 0.53125 1.34375 1.484375q0.484375 0.9375 0.484375 2.15625q0 0.1875 -0.03125 0.40625l-6.46875 0q0.046875 0.9375 0.4375 1.578125q0.40625 0.640625 1.015625 0.96875q0.625 0.3125 1.296875 0.3125q1.59375 0 2.421875 -1.484375l1.140625 0.5625q-0.5 0.984375 -1.421875 1.5625q-0.90625 0.578125 -2.1875 0.578125zm2.34375 -5.1875q-0.03125 -0.515625 -0.28125 -1.03125q-0.25 -0.515625 -0.796875 -0.859375q-0.546875 -0.359375 -1.375 -0.359375q-0.96875 0 -1.640625 0.625q-0.671875 0.609375 -0.875 1.625l4.96875 0zm3.0392456 -3.21875l1.28125 0l0 1.3125l0.078125 0q0.234375 -0.671875 0.921875 -1.109375q0.6875 -0.453125 1.4375 -0.453125q0.5625 0 0.96875 0.171875l0 1.46875q-0.515625 -0.265625 -1.15625 -0.265625q-0.59375 0 -1.09375 0.34375q-0.5 0.328125 -0.796875 0.90625q-0.28125 0.5625 -0.28125 1.21875l0 4.5625l-1.359375 0l0 -8.15625zm5.3657837 0l1.453125 0l2.53125 6.5625l0.03125 0l2.5625 -6.5625l1.421875 0l-3.328125 8.15625l-1.375 0l-3.296875 -8.15625zm9.927124 -1.5q-0.40625 0 -0.703125 -0.28125q-0.28125 -0.296875 -0.28125 -0.703125q0 -0.421875 0.28125 -0.6875q0.296875 -0.28125 0.703125 -0.28125q0.40625 0 0.6875 0.28125q0.28125 0.265625 0.28125 0.6875q0 0.40625 -0.28125 0.703125q-0.28125 0.28125 -0.6875 0.28125zm-0.671875 1.5l1.359375 0l0 8.15625l-1.359375 0l0 -8.15625zm7.0985107 8.40625q-1.1875 0 -2.140625 -0.5625q-0.9375 -0.5625 -1.46875 -1.546875q-0.515625 -0.984375 -0.515625 -2.21875q0 -1.234375 0.515625 -2.21875q0.53125 -1.0 1.46875 -1.5625q0.953125 -0.5625 2.140625 -0.5625q1.328125 0 2.234375 0.625q0.90625 0.609375 1.28125 1.640625l-1.234375 0.515625q-0.296875 -0.765625 -0.90625 -1.15625q-0.59375 -0.390625 -1.4375 -0.390625q-0.71875 0 -1.34375 0.390625q-0.625 0.390625 -1.0 1.109375q-0.375 0.703125 -0.375 1.609375q0 0.90625 0.375 1.609375q0.375 0.703125 1.0 1.109375q0.625 0.390625 1.34375 0.390625q0.859375 0 1.484375 -0.40625q0.625 -0.40625 0.9375 -1.140625l1.203125 0.515625q-0.40625 1.015625 -1.328125 1.640625q-0.921875 0.609375 -2.234375 0.609375zm8.593536 0q-1.171875 0 -2.109375 -0.546875q-0.921875 -0.5625 -1.4375 -1.546875q-0.515625 -0.984375 -0.515625 -2.21875q0 -1.171875 0.484375 -2.171875q0.484375 -1.0 1.390625 -1.59375q0.90625 -0.59375 2.078125 -0.59375q1.203125 0 2.078125 0.546875q0.875 0.53125 1.34375 1.484375q0.484375 0.9375 0.484375 2.15625q0 0.1875 -0.03125 0.40625l-6.46875 0q0.046875 0.9375 0.4375 1.578125q0.40625 0.640625 1.015625 0.96875q0.625 0.3125 1.296875 0.3125q1.59375 0 2.421875 -1.484375l1.140625 0.5625q-0.5 0.984375 -1.421875 1.5625q-0.90625 0.578125 -2.1875 0.578125zm2.34375 -5.1875q-0.03125 -0.515625 -0.28125 -1.03125q-0.25 -0.515625 -0.796875 -0.859375q-0.546875 -0.359375 -1.375 -0.359375q-0.96875 0 -1.640625 0.625q-0.671875 0.609375 -0.875 1.625l4.96875 0zm2.0236206 4.9375l0 0zm7.825775 -11.453125l1.53125 0l4.359375 11.453125l-1.5 0l-1.140625 -3.15625l-4.96875 0l-1.140625 3.15625l-1.5 0l4.359375 -11.453125zm2.78125 7.015625l-1.53125 -4.125l-0.453125 -1.234375l-0.0625 0l-0.453125 1.234375l-1.53125 4.125l4.03125 0z"
       id="path15" />
    <path
       fill="#767576"
       fill-rule="evenodd"
       d="m262.6468 544.86664l-1.9053955 0.054748535l-3.624939 0.6949463l-3.2531433 1.329834l-2.9452515 1.8496704l-2.5153809 2.3695679l-1.963501 2.7800293l-1.4116364 3.0645752l-0.73776245 3.4093018l-0.06390381 1.7949829l0.06390381 1.7949219l0.73776245 3.3491821l1.4116364 3.1247559l1.963501 2.774475l2.5153809 2.375061l2.9452515 1.8496704l3.2531433 1.329834l3.624939 0.6950073l1.9053955 0.0546875l1.8996277 -0.0546875l3.5610046 -0.6950073l3.317047 -1.329834l2.945282 -1.8496704l2.5153809 -2.375061l1.963501 -2.774475l1.4116211 -3.1247559l0.73776245 -3.3491821l0.06390381 -1.7949219l-0.06390381 -1.7949829l-0.73776245 -3.4093018l-1.4116211 -3.0645752l-1.963501 -2.7800293l-2.5153809 -2.3695679l-2.945282 -1.8496704l-3.317047 -1.329834l-3.5610046 -0.6949463l-1.8996277 -0.054748535z"
       id="path16" />
    <path
       fill="#000"
       fill-opacity="0"
       fill-rule="evenodd"
       d="m269.15305 568.22833l-13.076477 0l0 -12.31842l13.076477 0l0 12.31842z"
       id="path17" />
    <path
       fill-rule="evenodd"
       stroke="#fff"
       stroke-linecap="butt"
       stroke-linejoin="round"
       stroke-width=".916"
       d="m269.15305 568.22833l-13.076477 0l0 -12.31842l13.076477 0l0 12.31842z"
       id="path18" />
    <path
       fill="#000"
       fill-opacity="0"
       fill-rule="evenodd"
       d="m258.528 555.9099l0 -2.949646"
       id="path19" />
    <path
       fill-rule="evenodd"
       stroke="#fff"
       stroke-linecap="round"
       stroke-miterlimit="105.678"
       stroke-width=".916"
       d="m258.528 555.9099l0 -2.949646"
       id="path20" />
    <path
       fill="#000"
       fill-opacity="0"
       fill-rule="evenodd"
       d="m262.64673 555.9099l0 -2.949646"
       id="path21" />
    <path
       fill-rule="evenodd"
       stroke="#fff"
       stroke-linecap="round"
       stroke-miterlimit="105.678"
       stroke-width=".916"
       d="m262.64673 555.9099l0 -2.949646"
       id="path22" />
    <path
       fill="#000"
       fill-opacity="0"
       fill-rule="evenodd"
       d="m266.7596 555.9099l0 -2.949646"
       id="path23" />
    <path
       fill-rule="evenodd"
       stroke="#fff"
       stroke-linecap="round"
       stroke-miterlimit="105.678"
       stroke-width=".916"
       d="m266.7596 555.9099l0 -2.949646"
       id="path24" />
    <path
       fill="#000"
       fill-opacity="0"
       fill-rule="evenodd"
       d="m258.528 571.4679l0 -3.0098267"
       id="path25" />
    <path
       fill-rule="evenodd"
       stroke="#fff"
       stroke-linecap="round"
       stroke-miterlimit="105.678"
       stroke-width=".916"
       d="m258.528 571.4679l0 -3.0098267"
       id="path26" />
    <path
       fill="#000"
       fill-opacity="0"
       fill-rule="evenodd"
       d="m262.64673 571.4679l0 -3.0098267"
       id="path27" />
    <path
       fill-rule="evenodd"
       stroke="#fff"
       stroke-linecap="round"
       stroke-miterlimit="105.678"
       stroke-width=".916"
       d="m262.64673 571.4679l0 -3.0098267"
       id="path28" />
    <path
       fill="#000"
       fill-opacity="0"
       fill-rule="evenodd"
       d="m266.7596 571.4679l0 -3.0098267"
       id="path29" />
    <path
       fill-rule="evenodd"
       stroke="#fff"
       stroke-linecap="round"
       stroke-miterlimit="105.678"
       stroke-width=".916"
       d="m266.7596 571.4679l0 -3.0098267"
       id="path30" />
    <path
       fill="#000"
       fill-opacity="0"
       fill-rule="evenodd"
       d="m255.95457 566.0885l-3.1311493 0"
       id="path31" />
    <path
       fill-rule="evenodd"
       stroke="#fff"
       stroke-linecap="round"
       stroke-miterlimit="105.678"
       stroke-width=".916"
       d="m255.95457 566.0885l-3.1311493 0"
       id="path32" />
    <path
       fill="#000"
       fill-opacity="0"
       fill-rule="evenodd"
       d="m255.95457 562.21405l-3.1311493 0"
       id="path33" />
    <path
       fill-rule="evenodd"
       stroke="#fff"
       stroke-linecap="round"
       stroke-miterlimit="105.678"
       stroke-width=".916"
       d="m255.95457 562.21405l-3.1311493 0"
       id="path34" />
    <path
       fill="#000"
       fill-opacity="0"
       fill-rule="evenodd"
       d="m255.95457 558.3396l-3.1311493 0"
       id="path35" />
    <path
       fill-rule="evenodd"
       stroke="#fff"
       stroke-linecap="round"
       stroke-miterlimit="105.678"
       stroke-width=".916"
       d="m255.95457 558.3396l-3.1311493 0"
       id="path36" />
    <path
       fill="#000"
       fill-opacity="0"
       fill-rule="evenodd"
       d="m272.4642 566.0885l-3.1892395 0"
       id="path37" />
    <path
       fill-rule="evenodd"
       stroke="#fff"
       stroke-linecap="round"
       stroke-miterlimit="105.678"
       stroke-width=".916"
       d="m272.4642 566.0885l-3.1892395 0"
       id="path38" />
    <path
       fill="#000"
       fill-opacity="0"
       fill-rule="evenodd"
       d="m272.4642 562.21405l-3.1892395 0"
       id="path39" />
    <path
       fill-rule="evenodd"
       stroke="#fff"
       stroke-linecap="round"
       stroke-miterlimit="105.678"
       stroke-width=".916"
       d="m272.4642 562.21405l-3.1892395 0"
       id="path40" />
    <path
       fill="#000"
       fill-opacity="0"
       fill-rule="evenodd"
       d="m272.4642 558.3396l-3.1892395 0"
       id="path41" />
    <path
       fill-rule="evenodd"
       stroke="#fff"
       stroke-linecap="round"
       stroke-miterlimit="105.678"
       stroke-width=".916"
       d="m272.4642 558.3396l-3.1892395 0"
       id="path42" />
    <path
       fill="#fff"
       fill-rule="evenodd"
       d="m261.78696 559.32465l-0.4298706 0.054748535l-0.73776245 0.29003906l-0.5518799 0.5198364l-0.30789185 0.6950073l0 0.40496826l0 1.619873l0 0.40496826l0.30789185 0.6949463l0.5518799 0.51989746l0.73776245 0.2845459l2.5734863 0l0.73776245 -0.2845459l0.55184937 -0.51989746l0.30789185 -0.6949463l0 -0.40496826l0 -1.619873l0 -0.40496826l-0.30789185 -0.6950073l-0.55184937 -0.5198364l-0.73776245 -0.29003906l-0.42990112 -0.054748535z"
       id="path43" />
    <path
       fill="#000"
       fill-opacity="0"
       fill-rule="evenodd"
       d="m552.91077 190.33928l0 0c0 -19.227432 15.586914 -34.814346 34.81433 -34.814346l139.25323 0l0 0c9.233337 0 18.088501 3.6679382 24.617432 10.196884c6.5289307 6.528961 10.196899 15.384125 10.196899 24.617462l0 405.3949c0 19.227478 -15.586914 34.814392 -34.81433 34.814392l-139.25323 0c-19.227417 0 -34.81433 -15.586914 -34.81433 -34.814392z"
       id="path44" />
    <path
       fill-rule="evenodd"
       stroke="#ff6400"
       stroke-linecap="butt"
       stroke-linejoin="round"
       stroke-width="2"
       d="m552.91077 190.33928l0 0c0 -19.227432 15.586914 -34.814346 34.81433 -34.814346l139.25323 0l0 0c9.233337 0 18.088501 3.6679382 24.617432 10.196884c6.5289307 6.528961 10.196899 15.384125 10.196899 24.617462l0 405.3949c0 19.227478 -15.586914 34.814392 -34.81433 34.814392l-139.25323 0c-19.227417 0 -34.81433 -15.586914 -34.81433 -34.814392z"
       id="path45" />
    <path
       fill="#000"
       fill-opacity="0"
       fill-rule="evenodd"
       d="m543.1529 120.190155l183.46454 0l0 56.37796l-183.46454 0z"
       id="path46" />
    <path
       fill="#e6e6e6"
       fill-rule="evenodd"
       d="m555.2875 186.82127l131.78912 0l0 70.06636l-131.78912 0z"
       id="path48" />
    <path
       fill="#fff"
       fill-rule="evenodd"
       d="m561.99725 194.60728l116.140076 0l0 53.385406l-116.140076 0z"
       id="path49" />
    <path
       fill="#000"
       fill-rule="nonzero"
       d="m587.485 215.70686l1.53125 0l4.359375 11.453125l-1.5 0l-1.140625 -3.15625l-4.96875 0l-1.140625 3.15625l-1.5 0l4.359375 -11.453125zm2.78125 7.015625l-1.53125 -4.125l-0.453125 -1.234375l-0.0625 0l-0.453125 1.234375l-1.53125 4.125l4.03125 0zm4.6262817 -7.015625l3.859375 0q0.953125 0 1.765625 0.4375q0.828125 0.421875 1.3125 1.203125q0.484375 0.765625 0.484375 1.75q0 0.96875 -0.484375 1.75q-0.484375 0.78125 -1.3125 1.21875q-0.8125 0.421875 -1.765625 0.421875l-2.5 0l0 4.671875l-1.359375 0l0 -11.453125zm3.890625 5.484375q0.640625 0 1.125 -0.296875q0.484375 -0.3125 0.75 -0.78125q0.28125 -0.484375 0.28125 -1.015625q0 -0.53125 -0.28125 -1.0q-0.265625 -0.484375 -0.75 -0.78125q-0.484375 -0.3125 -1.125 -0.3125l-2.53125 0l0 4.1875l2.53125 0zm5.3253784 -5.484375l1.359375 0l0 11.453125l-1.359375 0l0 -11.453125zm2.638733 11.453125l0 0zm7.7164307 0.25q-0.875 0 -1.6875 -0.359375q-0.796875 -0.359375 -1.421875 -1.046875q-0.625 -0.703125 -0.890625 -1.6875l1.296875 -0.53125q0.265625 1.015625 1.0 1.671875q0.734375 0.65625 1.734375 0.65625q0.984375 0 1.671875 -0.53125q0.6875 -0.53125 0.6875 -1.46875q0 -0.796875 -0.578125 -1.3125q-0.578125 -0.515625 -1.90625 -0.96875l-0.734375 -0.25q-1.203125 -0.4375 -1.984375 -1.140625q-0.765625 -0.703125 -0.765625 -1.953125q0 -0.8125 0.453125 -1.5q0.453125 -0.703125 1.25 -1.125q0.796875 -0.421875 1.796875 -0.421875q0.984375 0 1.71875 0.375q0.734375 0.375 1.171875 0.90625q0.453125 0.515625 0.625 1.03125l-1.265625 0.546875q-0.171875 -0.59375 -0.75 -1.078125q-0.5625 -0.484375 -1.484375 -0.484375q-0.890625 0 -1.515625 0.5q-0.625 0.5 -0.625 1.25q0 0.671875 0.53125 1.09375q0.53125 0.421875 1.609375 0.796875l0.75 0.25q1.453125 0.53125 2.265625 1.328125q0.8125 0.78125 0.8125 2.140625q0 1.109375 -0.5625 1.859375q-0.5625 0.75 -1.4375 1.109375q-0.859375 0.34375 -1.765625 0.34375zm9.148254 0q-1.171875 0 -2.109375 -0.546875q-0.921875 -0.5625 -1.4375 -1.546875q-0.515625 -0.984375 -0.515625 -2.21875q0 -1.171875 0.484375 -2.171875q0.484375 -1.0 1.390625 -1.59375q0.90625 -0.59375 2.078125 -0.59375q1.203125 0 2.078125 0.546875q0.875 0.53125 1.34375 1.484375q0.484375 0.9375 0.484375 2.15625q0 0.1875 -0.03125 0.40625l-6.46875 0q0.046875 0.9375 0.4375 1.578125q0.40625 0.640625 1.015625 0.96875q0.625 0.3125 1.296875 0.3125q1.59375 0 2.421875 -1.484375l1.140625 0.5625q-0.5 0.984375 -1.421875 1.5625q-0.90625 0.578125 -2.1875 0.578125zm2.34375 -5.1875q-0.03125 -0.515625 -0.28125 -1.03125q-0.25 -0.515625 -0.796875 -0.859375q-0.546875 -0.359375 -1.375 -0.359375q-0.96875 0 -1.640625 0.625q-0.671875 0.609375 -0.875 1.625l4.96875 0zm3.0392456 -3.21875l1.28125 0l0 1.3125l0.078125 0q0.234375 -0.671875 0.921875 -1.109375q0.6875 -0.453125 1.4375 -0.453125q0.5625 0 0.96875 0.171875l0 1.46875q-0.515625 -0.265625 -1.15625 -0.265625q-0.59375 0 -1.09375 0.34375q-0.5 0.328125 -0.796875 0.90625q-0.28125 0.5625 -0.28125 1.21875l0 4.5625l-1.359375 0l0 -8.15625zm5.3657837 0l1.453125 0l2.53125 6.5625l0.03125 0l2.5625 -6.5625l1.421875 0l-3.328125 8.15625l-1.375 0l-3.296875 -8.15625zm12.515259 8.40625q-1.171875 0 -2.109375 -0.546875q-0.921875 -0.5625 -1.4375 -1.546875q-0.515625 -0.984375 -0.515625 -2.21875q0 -1.171875 0.484375 -2.171875q0.484375 -1.0 1.390625 -1.59375q0.90625 -0.59375 2.078125 -0.59375q1.203125 0 2.078125 0.546875q0.875 0.53125 1.34375 1.484375q0.484375 0.9375 0.484375 2.15625q0 0.1875 -0.03125 0.40625l-6.46875 0q0.046875 0.9375 0.4375 1.578125q0.40625 0.640625 1.015625 0.96875q0.625 0.3125 1.296875 0.3125q1.59375 0 2.421875 -1.484375l1.140625 0.5625q-0.5 0.984375 -1.421875 1.5625q-0.90625 0.578125 -2.1875 0.578125zm2.34375 -5.1875q-0.03125 -0.515625 -0.28125 -1.03125q-0.25 -0.515625 -0.796875 -0.859375q-0.546875 -0.359375 -1.375 -0.359375q-0.96875 0 -1.640625 0.625q-0.671875 0.609375 -0.875 1.625l4.96875 0zm3.0392456 -3.21875l1.28125 0l0 1.3125l0.078125 0q0.234375 -0.671875 0.921875 -1.109375q0.6875 -0.453125 1.4375 -0.453125q0.5625 0 0.96875 0.171875l0 1.46875q-0.515625 -0.265625 -1.15625 -0.265625q-0.59375 0 -1.09375 0.34375q-0.5 0.328125 -0.796875 0.90625q-0.28125 0.5625 -0.28125 1.21875l0 4.5625l-1.359375 0l0 -8.15625z"
       id="path50" />
    <path
       fill="#000"
       fill-opacity="0"
       fill-rule="evenodd"
       d="m305.80383 536.18634l0.881897 -153.73227"
       id="path51" />
    <path
       fill-rule="evenodd"
       stroke="#46f"
       stroke-dasharray="8 6"
       stroke-linecap="butt"
       stroke-linejoin="round"
       stroke-width="2"
       d="m305.80383 536.18634l0.84259033 -146.87823"
       id="path52" />
    <path
       fill="#46f"
       fill-rule="evenodd"
       stroke="#46f"
       stroke-linecap="butt"
       stroke-width="2"
       d="m306.64642 389.30814l2.2362366 2.262024l-2.213684 -6.192322l-2.2845764 6.166504z"
       id="path53" />
    <path
       fill="#000"
       fill-opacity="0"
       fill-rule="evenodd"
       d="m316.86337 311.91415l245.13388 -90.61417"
       id="path54" />
    <path
       fill-rule="evenodd"
       stroke="#46f"
       stroke-dasharray="8 6"
       stroke-linecap="butt"
       stroke-linejoin="round"
       stroke-width="2"
       d="m316.86337 311.91415l238.70486 -88.23767"
       id="path55" />
    <path
       fill="#46f"
       fill-rule="evenodd"
       stroke="#46f"
       stroke-linecap="butt"
       stroke-width="2"
       d="m555.56824 223.67648l-1.329773 2.8894806l5.0163574 -4.252228l-6.57605 0.032928467z"
       id="path56" />
    <path
       fill="#000"
       fill-opacity="0"
       fill-rule="evenodd"
       d="m444.15222 211.37796l90.99213 0l0 33.984238l-90.99213 0z"
       id="path57" />
    <path
       fill="#000"
       fill-opacity="0"
       fill-rule="evenodd"
       d="m202.53587 169.9029l90.99211 0l0 56.377945l-90.99211 0z"
       id="path59" />
    <path
       fill="#000"
       fill-opacity="0"
       fill-rule="evenodd"
       d="m138.28084 66.55944l197.57481 0l0 42.551178l-197.57481 0z"
       id="path62" />
    <path
       fill="#e6e6e6"
       fill-rule="evenodd"
       d="m586.35645 527.51447l-0.6577759 0.060180664l-1.1964111 0.40496826l-0.8581543 0.8098755l-0.5324707 1.0397949l-0.06262207 0.57458496l0 63.617126l0.06262207 0.5800781l0.5324707 1.0397949l0.8581543 0.8098755l1.1964111 0.40496826l0.6577759 0.054748535l142.25635 0l0.66400146 -0.054748535l1.1901855 -0.40496826l0.927063 -0.8098755l0.463562 -1.0397949l0.06890869 -0.5800781l0 -63.617126l-0.06890869 -0.57458496l-0.463562 -1.0397949l-0.927063 -0.8098755l-1.1901855 -0.40496826l-0.66400146 -0.060180664z"
       id="path64" />
    <path
       fill="#fff"
       fill-rule="evenodd"
       d="m594.7802 536.18634l126.04724 0l0 52.06299l-126.04724 0z"
       id="path65" />
    <path
       fill="#000"
       fill-rule="nonzero"
       d="m649.2077 568.3278q-0.875 0 -1.6875 -0.359375q-0.796875 -0.359375 -1.421875 -1.046875q-0.625 -0.703125 -0.890625 -1.6875l1.296875 -0.53125q0.265625 1.015625 1.0 1.671875q0.734375 0.65625 1.734375 0.65625q0.984375 0 1.671875 -0.53125q0.6875 -0.53125 0.6875 -1.46875q0 -0.796875 -0.578125 -1.3125q-0.578125 -0.515625 -1.90625 -0.96875l-0.734375 -0.25q-1.203125 -0.4375 -1.984375 -1.140625q-0.765625 -0.703125 -0.765625 -1.953125q0 -0.8125 0.453125 -1.5q0.453125 -0.703125 1.25 -1.125q0.796875 -0.421875 1.796875 -0.421875q0.984375 0 1.71875 0.375q0.734375 0.375 1.171875 0.90625q0.453125 0.515625 0.625 1.03125l-1.265625 0.546875q-0.171875 -0.59375 -0.75 -1.078125q-0.5625 -0.484375 -1.484375 -0.484375q-0.890625 0 -1.515625 0.5q-0.625 0.5 -0.625 1.25q0 0.671875 0.53125 1.09375q0.53125 0.421875 1.609375 0.796875l0.75 0.25q1.453125 0.53125 2.265625 1.328125q0.8125 0.78125 0.8125 2.140625q0 1.109375 -0.5625 1.859375q-0.5625 0.75 -1.4375 1.109375q-0.859375 0.34375 -1.765625 0.34375zm9.148254 0q-1.171875 0 -2.109375 -0.546875q-0.921875 -0.5625 -1.4375 -1.546875q-0.515625 -0.984375 -0.515625 -2.21875q0 -1.171875 0.484375 -2.171875q0.484375 -1.0 1.390625 -1.59375q0.90625 -0.59375 2.078125 -0.59375q1.203125 0 2.078125 0.546875q0.875 0.53125 1.34375 1.484375q0.484375 0.9375 0.484375 2.15625q0 0.1875 -0.03125 0.40625l-6.46875 0q0.046875 0.9375 0.4375 1.578125q0.40625 0.640625 1.015625 0.96875q0.625 0.3125 1.296875 0.3125q1.59375 0 2.421875 -1.484375l1.140625 0.5625q-0.5 0.984375 -1.421875 1.5625q-0.90625 0.578125 -2.1875 0.578125zm2.34375 -5.1875q-0.03125 -0.515625 -0.28125 -1.03125q-0.25 -0.515625 -0.796875 -0.859375q-0.546875 -0.359375 -1.375 -0.359375q-0.96875 0 -1.640625 0.625q-0.671875 0.609375 -0.875 1.625l4.96875 0zm3.0393066 -3.21875l1.28125 0l0 1.3125l0.078125 0q0.234375 -0.671875 0.921875 -1.109375q0.6875 -0.453125 1.4375 -0.453125q0.5625 0 0.96875 0.171875l0 1.46875q-0.515625 -0.265625 -1.15625 -0.265625q-0.59375 0 -1.09375 0.34375q-0.5 0.328125 -0.796875 0.90625q-0.28125 0.5625 -0.28125 1.21875l0 4.5625l-1.359375 0l0 -8.15625zm5.3657227 0l1.453125 0l2.53125 6.5625l0.03125 0l2.5625 -6.5625l1.421875 0l-3.328125 8.15625l-1.375 0l-3.296875 -8.15625zm9.927185 -1.5q-0.40625 0 -0.703125 -0.28125q-0.28125 -0.296875 -0.28125 -0.703125q0 -0.421875 0.28125 -0.6875q0.296875 -0.28125 0.703125 -0.28125q0.40625 0 0.6875 0.28125q0.28125 0.265625 0.28125 0.6875q0 0.40625 -0.28125 0.703125q-0.28125 0.28125 -0.6875 0.28125zm-0.671875 1.5l1.359375 0l0 8.15625l-1.359375 0l0 -8.15625zm7.0985107 8.40625q-1.1875 0 -2.140625 -0.5625q-0.9375 -0.5625 -1.46875 -1.546875q-0.515625 -0.984375 -0.515625 -2.21875q0 -1.234375 0.515625 -2.21875q0.53125 -1.0 1.46875 -1.5625q0.953125 -0.5625 2.140625 -0.5625q1.328125 0 2.234375 0.625q0.90625 0.609375 1.28125 1.640625l-1.234375 0.515625q-0.296875 -0.765625 -0.90625 -1.15625q-0.59375 -0.390625 -1.4375 -0.390625q-0.71875 0 -1.34375 0.390625q-0.625 0.390625 -1.0 1.109375q-0.375 0.703125 -0.375 1.609375q0 0.90625 0.375 1.609375q0.375 0.703125 1.0 1.109375q0.625 0.390625 1.34375 0.390625q0.859375 0 1.484375 -0.40625q0.625 -0.40625 0.9375 -1.140625l1.203125 0.515625q-0.40625 1.015625 -1.328125 1.640625q-0.921875 0.609375 -2.234375 0.609375zm8.593506 0q-1.171875 0 -2.109375 -0.546875q-0.921875 -0.5625 -1.4375 -1.546875q-0.515625 -0.984375 -0.515625 -2.21875q0 -1.171875 0.484375 -2.171875q0.484375 -1.0 1.390625 -1.59375q0.90625 -0.59375 2.078125 -0.59375q1.203125 0 2.078125 0.546875q0.875 0.53125 1.34375 1.484375q0.484375 0.9375 0.484375 2.15625q0 0.1875 -0.03125 0.40625l-6.46875 0q0.046875 0.9375 0.4375 1.578125q0.40625 0.640625 1.015625 0.96875q0.625 0.3125 1.296875 0.3125q1.59375 0 2.421875 -1.484375l1.140625 0.5625q-0.5 0.984375 -1.421875 1.5625q-0.90625 0.578125 -2.1875 0.578125zm2.34375 -5.1875q-0.03125 -0.515625 -0.28125 -1.03125q-0.25 -0.515625 -0.796875 -0.859375q-0.546875 -0.359375 -1.375 -0.359375q-0.96875 0 -1.640625 0.625q-0.671875 0.609375 -0.875 1.625l4.96875 0zm2.0236206 4.9375l0 0zm4.993286 -11.453125l4.109375 0q0.859375 0 1.625 0.40625q0.765625 0.390625 1.203125 1.09375q0.453125 0.703125 0.453125 1.578125q0 0.84375 -0.421875 1.46875q-0.421875 0.625 -1.140625 0.953125l0 0.0625q0.859375 0.296875 1.40625 1.0q0.546875 0.703125 0.546875 1.640625q0 0.9375 -0.484375 1.6875q-0.46875 0.734375 -1.265625 1.15625q-0.78125 0.40625 -1.703125 0.40625l-4.328125 0l0 -11.453125zm4.109375 4.9375q0.578125 0 1.015625 -0.265625q0.4375 -0.265625 0.671875 -0.6875q0.25 -0.421875 0.25 -0.875q0 -0.421875 -0.234375 -0.84375q-0.234375 -0.421875 -0.65625 -0.6875q-0.421875 -0.28125 -0.984375 -0.28125l-2.8125 0l0 3.640625l2.75 0zm0.3125 5.21875q0.5625 0 1.015625 -0.28125q0.46875 -0.296875 0.71875 -0.75q0.25 -0.453125 0.25 -0.9375q0 -0.484375 -0.265625 -0.9375q-0.25 -0.453125 -0.71875 -0.734375q-0.46875 -0.28125 -1.078125 -0.28125l-2.984375 0l0 3.921875l3.0625 0z"
       id="path66" />
    <path
       fill="#767576"
       fill-rule="evenodd"
       d="m614.6468 544.86664l-1.9053955 0.054748535l-3.624939 0.6949463l-3.2531738 1.329834l-2.9452515 1.8496704l-2.5153809 2.3695679l-1.963501 2.7800293l-1.4116211 3.0645752l-0.73773193 3.4093018l-0.06390381 1.7949829l0.06390381 1.7949219l0.73773193 3.3491821l1.4116211 3.1247559l1.963501 2.774475l2.5153809 2.375061l2.9452515 1.8496704l3.2531738 1.329834l3.624939 0.6950073l1.9053955 0.0546875l1.8995972 -0.0546875l3.5610352 -0.6950073l3.3170776 -1.329834l2.9452515 -1.8496704l2.5153809 -2.375061l1.963501 -2.774475l1.4116211 -3.1247559l0.73779297 -3.3491821l0.06390381 -1.7949219l-0.06390381 -1.7949829l-0.73779297 -3.4093018l-1.4116211 -3.0645752l-1.963501 -2.7800293l-2.5153809 -2.3695679l-2.9452515 -1.8496704l-3.3170776 -1.329834l-3.5610352 -0.6949463l-1.8995972 -0.054748535z"
       id="path67" />
    <path
       fill="#000"
       fill-opacity="0"
       fill-rule="evenodd"
       d="m621.153 568.22833l-13.076477 0l0 -12.31842l13.076477 0l0 12.31842z"
       id="path68" />
    <path
       fill-rule="evenodd"
       stroke="#fff"
       stroke-linecap="butt"
       stroke-linejoin="round"
       stroke-width=".916"
       d="m621.153 568.22833l-13.076477 0l0 -12.31842l13.076477 0l0 12.31842z"
       id="path69" />
    <path
       fill="#000"
       fill-opacity="0"
       fill-rule="evenodd"
       d="m610.528 555.9099l0 -2.949646"
       id="path70" />
    <path
       fill-rule="evenodd"
       stroke="#fff"
       stroke-linecap="round"
       stroke-miterlimit="105.678"
       stroke-width=".916"
       d="m610.528 555.9099l0 -2.949646"
       id="path71" />
    <path
       fill="#000"
       fill-opacity="0"
       fill-rule="evenodd"
       d="m614.6467 555.9099l0 -2.949646"
       id="path72" />
    <path
       fill-rule="evenodd"
       stroke="#fff"
       stroke-linecap="round"
       stroke-miterlimit="105.678"
       stroke-width=".916"
       d="m614.6467 555.9099l0 -2.949646"
       id="path73" />
    <path
       fill="#000"
       fill-opacity="0"
       fill-rule="evenodd"
       d="m618.7596 555.9099l0 -2.949646"
       id="path74" />
    <path
       fill-rule="evenodd"
       stroke="#fff"
       stroke-linecap="round"
       stroke-miterlimit="105.678"
       stroke-width=".916"
       d="m618.7596 555.9099l0 -2.949646"
       id="path75" />
    <path
       fill="#000"
       fill-opacity="0"
       fill-rule="evenodd"
       d="m610.528 571.4679l0 -3.0098267"
       id="path76" />
    <path
       fill-rule="evenodd"
       stroke="#fff"
       stroke-linecap="round"
       stroke-miterlimit="105.678"
       stroke-width=".916"
       d="m610.528 571.4679l0 -3.0098267"
       id="path77" />
    <path
       fill="#000"
       fill-opacity="0"
       fill-rule="evenodd"
       d="m614.6467 571.4679l0 -3.0098267"
       id="path78" />
    <path
       fill-rule="evenodd"
       stroke="#fff"
       stroke-linecap="round"
       stroke-miterlimit="105.678"
       stroke-width=".916"
       d="m614.6467 571.4679l0 -3.0098267"
       id="path79" />
    <path
       fill="#000"
       fill-opacity="0"
       fill-rule="evenodd"
       d="m618.7596 571.4679l0 -3.0098267"
       id="path80" />
    <path
       fill-rule="evenodd"
       stroke="#fff"
       stroke-linecap="round"
       stroke-miterlimit="105.678"
       stroke-width=".916"
       d="m618.7596 571.4679l0 -3.0098267"
       id="path81" />
    <path
       fill="#000"
       fill-opacity="0"
       fill-rule="evenodd"
       d="m607.9546 566.0885l-3.1311646 0"
       id="path82" />
    <path
       fill-rule="evenodd"
       stroke="#fff"
       stroke-linecap="round"
       stroke-miterlimit="105.678"
       stroke-width=".916"
       d="m607.9546 566.0885l-3.1311646 0"
       id="path83" />
    <path
       fill="#000"
       fill-opacity="0"
       fill-rule="evenodd"
       d="m607.9546 562.21405l-3.1311646 0"
       id="path84" />
    <path
       fill-rule="evenodd"
       stroke="#fff"
       stroke-linecap="round"
       stroke-miterlimit="105.678"
       stroke-width=".916"
       d="m607.9546 562.21405l-3.1311646 0"
       id="path85" />
    <path
       fill="#000"
       fill-opacity="0"
       fill-rule="evenodd"
       d="m607.9546 558.3396l-3.1311646 0"
       id="path86" />
    <path
       fill-rule="evenodd"
       stroke="#fff"
       stroke-linecap="round"
       stroke-miterlimit="105.678"
       stroke-width=".916"
       d="m607.9546 558.3396l-3.1311646 0"
       id="path87" />
    <path
       fill="#000"
       fill-opacity="0"
       fill-rule="evenodd"
       d="m624.46423 566.0885l-3.18927 0"
       id="path88" />
    <path
       fill-rule="evenodd"
       stroke="#fff"
       stroke-linecap="round"
       stroke-miterlimit="105.678"
       stroke-width=".916"
       d="m624.46423 566.0885l-3.18927 0"
       id="path89" />
    <path
       fill="#000"
       fill-opacity="0"
       fill-rule="evenodd"
       d="m624.46423 562.21405l-3.18927 0"
       id="path90" />
    <path
       fill-rule="evenodd"
       stroke="#fff"
       stroke-linecap="round"
       stroke-miterlimit="105.678"
       stroke-width=".916"
       d="m624.46423 562.21405l-3.18927 0"
       id="path91" />
    <path
       fill="#000"
       fill-opacity="0"
       fill-rule="evenodd"
       d="m624.46423 558.3396l-3.18927 0"
       id="path92" />
    <path
       fill-rule="evenodd"
       stroke="#fff"
       stroke-linecap="round"
       stroke-miterlimit="105.678"
       stroke-width=".916"
       d="m624.46423 558.3396l-3.18927 0"
       id="path93" />
    <path
       fill="#fff"
       fill-rule="evenodd"
       d="m613.787 559.32465l-0.4298706 0.054748535l-0.73779297 0.29003906l-0.5518799 0.5198364l-0.30786133 0.6950073l0 0.40496826l0 1.619873l0 0.40496826l0.30786133 0.6949463l0.5518799 0.51989746l0.73779297 0.2845459l2.5734253 0l0.73779297 -0.2845459l0.5518799 -0.51989746l0.30786133 -0.6949463l0 -0.40496826l0 -1.619873l0 -0.40496826l-0.30786133 -0.6950073l-0.5518799 -0.5198364l-0.73779297 -0.29003906l-0.4298706 -0.054748535z"
       id="path94" />
    <path
       fill="#e6e6e6"
       fill-rule="evenodd"
       d="m286.38333 186.82127l131.78915 0l0 70.06636l-131.78915 0z"
       id="path95" />
    <path
       fill="#fff"
       fill-rule="evenodd"
       d="m293.09314 194.60728l116.14011 0l0 53.385406l-116.14011 0z"
       id="path96" />
    <path
       fill="#000"
       fill-rule="nonzero"
       d="m318.58087 215.70686l1.53125 0l4.359375 11.453125l-1.5 0l-1.140625 -3.15625l-4.96875 0l-1.140625 3.15625l-1.5 0l4.359375 -11.453125zm2.78125 7.015625l-1.53125 -4.125l-0.453125 -1.234375l-0.0625 0l-0.453125 1.234375l-1.53125 4.125l4.03125 0zm4.626251 -7.015625l3.859375 0q0.953125 0 1.765625 0.4375q0.828125 0.421875 1.3125 1.203125q0.484375 0.765625 0.484375 1.75q0 0.96875 -0.484375 1.75q-0.484375 0.78125 -1.3125 1.21875q-0.8125 0.421875 -1.765625 0.421875l-2.5 0l0 4.671875l-1.359375 0l0 -11.453125zm3.890625 5.484375q0.640625 0 1.125 -0.296875q0.484375 -0.3125 0.75 -0.78125q0.28125 -0.484375 0.28125 -1.015625q0 -0.53125 -0.28125 -1.0q-0.265625 -0.484375 -0.75 -0.78125q-0.484375 -0.3125 -1.125 -0.3125l-2.53125 0l0 4.1875l2.53125 0zm5.325409 -5.484375l1.359375 0l0 11.453125l-1.359375 0l0 -11.453125zm2.6387634 11.453125l0 0zm7.7163696 0.25q-0.875 0 -1.6875 -0.359375q-0.796875 -0.359375 -1.421875 -1.046875q-0.625 -0.703125 -0.890625 -1.6875l1.296875 -0.53125q0.265625 1.015625 1.0 1.671875q0.734375 0.65625 1.734375 0.65625q0.984375 0 1.671875 -0.53125q0.6875 -0.53125 0.6875 -1.46875q0 -0.796875 -0.578125 -1.3125q-0.578125 -0.515625 -1.90625 -0.96875l-0.734375 -0.25q-1.203125 -0.4375 -1.984375 -1.140625q-0.765625 -0.703125 -0.765625 -1.953125q0 -0.8125 0.453125 -1.5q0.453125 -0.703125 1.25 -1.125q0.796875 -0.421875 1.796875 -0.421875q0.984375 0 1.71875 0.375q0.734375 0.375 1.171875 0.90625q0.453125 0.515625 0.625 1.03125l-1.265625 0.546875q-0.171875 -0.59375 -0.75 -1.078125q-0.5625 -0.484375 -1.484375 -0.484375q-0.890625 0 -1.515625 0.5q-0.625 0.5 -0.625 1.25q0 0.671875 0.53125 1.09375q0.53125 0.421875 1.609375 0.796875l0.75 0.25q1.453125 0.53125 2.265625 1.328125q0.8125 0.78125 0.8125 2.140625q0 1.109375 -0.5625 1.859375q-0.5625 0.75 -1.4375 1.109375q-0.859375 0.34375 -1.765625 0.34375zm9.148285 0q-1.171875 0 -2.109375 -0.546875q-0.921875 -0.5625 -1.4375 -1.546875q-0.515625 -0.984375 -0.515625 -2.21875q0 -1.171875 0.484375 -2.171875q0.484375 -1.0 1.390625 -1.59375q0.90625 -0.59375 2.078125 -0.59375q1.203125 0 2.078125 0.546875q0.875 0.53125 1.34375 1.484375q0.484375 0.9375 0.484375 2.15625q0 0.1875 -0.03125 0.40625l-6.46875 0q0.046875 0.9375 0.4375 1.578125q0.40625 0.640625 1.015625 0.96875q0.625 0.3125 1.296875 0.3125q1.59375 0 2.421875 -1.484375l1.140625 0.5625q-0.5 0.984375 -1.421875 1.5625q-0.90625 0.578125 -2.1875 0.578125zm2.34375 -5.1875q-0.03125 -0.515625 -0.28125 -1.03125q-0.25 -0.515625 -0.796875 -0.859375q-0.546875 -0.359375 -1.375 -0.359375q-0.96875 0 -1.640625 0.625q-0.671875 0.609375 -0.875 1.625l4.96875 0zm3.0392456 -3.21875l1.28125 0l0 1.3125l0.078125 0q0.234375 -0.671875 0.921875 -1.109375q0.6875 -0.453125 1.4375 -0.453125q0.5625 0 0.96875 0.171875l0 1.46875q-0.515625 -0.265625 -1.15625 -0.265625q-0.59375 0 -1.09375 0.34375q-0.5 0.328125 -0.796875 0.90625q-0.28125 0.5625 -0.28125 1.21875l0 4.5625l-1.359375 0l0 -8.15625zm5.3657837 0l1.453125 0l2.53125 6.5625l0.03125 0l2.5625 -6.5625l1.421875 0l-3.328125 8.15625l-1.375 0l-3.296875 -8.15625zm12.515259 8.40625q-1.171875 0 -2.109375 -0.546875q-0.921875 -0.5625 -1.4375 -1.546875q-0.515625 -0.984375 -0.515625 -2.21875q0 -1.171875 0.484375 -2.171875q0.484375 -1.0 1.390625 -1.59375q0.90625 -0.59375 2.078125 -0.59375q1.203125 0 2.078125 0.546875q0.875 0.53125 1.34375 1.484375q0.484375 0.9375 0.484375 2.15625q0 0.1875 -0.03125 0.40625l-6.46875 0q0.046875 0.9375 0.4375 1.578125q0.40625 0.640625 1.015625 0.96875q0.625 0.3125 1.296875 0.3125q1.59375 0 2.421875 -1.484375l1.140625 0.5625q-0.5 0.984375 -1.421875 1.5625q-0.90625 0.578125 -2.1875 0.578125zm2.34375 -5.1875q-0.03125 -0.515625 -0.28125 -1.03125q-0.25 -0.515625 -0.796875 -0.859375q-0.546875 -0.359375 -1.375 -0.359375q-0.96875 0 -1.640625 0.625q-0.671875 0.609375 -0.875 1.625l4.96875 0zm3.0392456 -3.21875l1.28125 0l0 1.3125l0.078125 0q0.234375 -0.671875 0.921875 -1.109375q0.6875 -0.453125 1.4375 -0.453125q0.5625 0 0.96875 0.171875l0 1.46875q-0.515625 -0.265625 -1.15625 -0.265625q-0.59375 0 -1.09375 0.34375q-0.5 0.328125 -0.796875 0.90625q-0.28125 0.5625 -0.28125 1.21875l0 4.5625l-1.359375 0l0 -8.15625z"
       id="path97" />
    <path
       fill="#e6e6e6"
       fill-rule="evenodd"
       d="m250.04932 312.3004l-0.5769043 0.059631348l-1.049408 0.401062l-0.75271606 0.80215454l-0.4670105 1.0297852l-0.0549469 0.5744934l0 63.000763l0.0549469 0.5744934l0.4670105 1.0297852l0.75271606 0.80215454l1.049408 0.401062l0.5769043 0.05960083l124.78058 0l0.5769043 -0.05960083l1.0439148 -0.401062l0.7582092 -0.80215454l0.46151733 -1.0297852l0.060424805 -0.5744934l0 -63.000763l-0.060424805 -0.5744934l-0.46151733 -1.0297852l-0.7582092 -0.80215454l-1.0439148 -0.401062l-0.5769043 -0.059631348z"
       id="path98" />
    <path
       fill="#fff"
       fill-rule="evenodd"
       d="m258.75775 320.89096l-0.6373291 0.05960083l-1.0439148 0.401062l-0.75271606 0.80215454l-0.46702576 1.0297852l0 0.5744934l0 45.819733l0 0.5744934l0.46702576 1.0297852l0.75271606 0.802124l1.0439148 0.40109253l0.6373291 0.05419922l107.41867 0l0.58236694 -0.05419922l1.0439148 -0.40109253l0.75271606 -0.802124l0.4670105 -1.0297852l0.05496216 -0.5744934l0 -45.819733l-0.05496216 -0.5744934l-0.4670105 -1.0297852l-0.75271606 -0.80215454l-1.0439148 -0.401062l-0.58236694 -0.05960083z"
       id="path99" />
    <path
       fill="#466bb0"
       fill-rule="evenodd"
       d="m269.15292 361.44254l9.988617 4.9266663l16.603699 -4.9266663z"
       id="path100" />
    <path
       fill="#466bb0"
       fill-rule="evenodd"
       d="m279.14154 340.08276l-9.988617 19.701294l9.988617 -1.6639099l0 -18.037384z"
       id="path101" />
    <path
       fill="#476baf"
       fill-rule="evenodd"
       d="m280.76782 326.96664l0 31.153503l14.977417 1.6639099l-14.977417 -32.817413z"
       id="path102" />
    <path
       fill="#000"
       fill-opacity="0"
       fill-rule="evenodd"
       d="m287.59097 332.39194l81.4837 0l0 28.547241l-81.4837 0z"
       id="path103" />
    <path
       fill="#000"
       fill-rule="nonzero"
       d="m309.59003 341.07245l1.359375 0l0 11.453125l-1.359375 0l0 -11.453125zm6.4981384 11.703125q-1.3125 0 -2.203125 -0.609375q-0.875 -0.609375 -1.234375 -1.578125l1.203125 -0.546875q0.3125 0.734375 0.90625 1.140625q0.609375 0.40625 1.328125 0.40625q0.765625 0 1.3125 -0.3125q0.546875 -0.3125 0.546875 -0.890625q0 -0.515625 -0.4375 -0.828125q-0.4375 -0.3125 -1.359375 -0.53125l-1.0 -0.265625q-0.96875 -0.234375 -1.59375 -0.8125q-0.625 -0.578125 -0.625 -1.484375q0 -0.703125 0.421875 -1.234375q0.421875 -0.546875 1.125 -0.828125q0.703125 -0.296875 1.53125 -0.296875q1.0625 0 1.90625 0.46875q0.84375 0.46875 1.1875 1.296875l-1.171875 0.546875q-0.546875 -1.09375 -1.9375 -1.09375q-0.671875 0 -1.1875 0.3125q-0.5 0.3125 -0.5 0.796875q0 0.453125 0.34375 0.734375q0.359375 0.265625 1.0625 0.453125l1.1875 0.296875q1.203125 0.3125 1.8125 0.90625q0.609375 0.59375 0.609375 1.46875q0 0.75 -0.4375 1.3125q-0.4375 0.5625 -1.171875 0.875q-0.734375 0.296875 -1.625 0.296875zm7.7692566 -0.125q-0.5 0 -0.921875 -0.15625q-0.421875 -0.15625 -0.703125 -0.4375q-0.640625 -0.609375 -0.640625 -1.671875l0 -4.78125l-1.421875 0l0 -1.234375l1.421875 0l0 -2.3125l1.359375 0l0 2.3125l2.0 0l0 1.234375l-2.0 0l0 4.4375q0 0.671875 0.25 1.0q0.3125 0.34375 0.890625 0.34375q0.484375 0 0.890625 -0.265625l0 1.328125q-0.234375 0.109375 -0.484375 0.15625q-0.25 0.046875 -0.640625 0.046875zm3.6078796 -9.78125q-0.40625 0 -0.703125 -0.28125q-0.28125 -0.296875 -0.28125 -0.703125q0 -0.421875 0.28125 -0.6875q0.296875 -0.28125 0.703125 -0.28125q0.40625 0 0.6875 0.28125q0.28125 0.265625 0.28125 0.6875q0 0.40625 -0.28125 0.703125q-0.28125 0.28125 -0.6875 0.28125zm-0.671875 1.5l1.359375 0l0 8.15625l-1.359375 0l0 -8.15625zm7.1610107 8.40625q-1.203125 0 -2.171875 -0.5625q-0.953125 -0.578125 -1.484375 -1.5625q-0.53125 -1.0 -0.53125 -2.203125q0 -1.203125 0.53125 -2.1875q0.53125 -1.0 1.484375 -1.578125q0.96875 -0.578125 2.171875 -0.578125q1.203125 0 2.15625 0.578125q0.96875 0.578125 1.5 1.578125q0.53125 0.984375 0.53125 2.1875q0 1.203125 -0.53125 2.203125q-0.53125 0.984375 -1.5 1.5625q-0.953125 0.5625 -2.15625 0.5625zm0 -1.21875q0.75 0 1.390625 -0.375q0.65625 -0.390625 1.046875 -1.09375q0.390625 -0.703125 0.390625 -1.640625q0 -0.953125 -0.390625 -1.65625q-0.390625 -0.703125 -1.046875 -1.078125q-0.640625 -0.375 -1.390625 -0.375q-0.75 0 -1.40625 0.375q-0.65625 0.375 -1.046875 1.078125q-0.390625 0.703125 -0.390625 1.65625q0 0.9375 0.390625 1.640625q0.390625 0.703125 1.046875 1.09375q0.65625 0.375 1.40625 0.375zm9.254791 1.21875q-1.109375 0 -2.0 -0.546875q-0.890625 -0.5625 -1.40625 -1.546875q-0.5 -0.984375 -0.5 -2.234375q0 -1.234375 0.5 -2.21875q0.515625 -1.0 1.40625 -1.5625q0.890625 -0.5625 2.0 -0.5625q0.921875 0 1.65625 0.4375q0.734375 0.421875 1.125 1.046875l0.0625 0l-0.0625 -1.140625l0 -3.375l1.359375 0l0 11.453125l-1.296875 0l0 -1.203125l-0.0625 0q-0.390625 0.609375 -1.125 1.03125q-0.734375 0.421875 -1.65625 0.421875zm0.140625 -1.21875q0.71875 0 1.328125 -0.390625q0.625 -0.390625 1.0 -1.09375q0.375 -0.703125 0.375 -1.625q0 -0.9375 -0.375 -1.640625q-0.375 -0.703125 -1.0 -1.078125q-0.609375 -0.390625 -1.328125 -0.390625q-0.703125 0 -1.328125 0.390625q-0.625 0.375 -1.0 1.09375q-0.375 0.71875 -0.375 1.625q0 0.90625 0.375 1.625q0.375 0.703125 1.0 1.09375q0.625 0.390625 1.328125 0.390625z"
       id="path104" />
    <path
       fill="#e6e6e6"
       fill-rule="evenodd"
       d="m325.1895 419.2017l-0.57733154 0.06085205l-1.0501709 0.40927124l-0.7532654 0.8186035l-0.4673462 1.0509338l-0.054992676 0.5862732l0 64.29346l0.054992676 0.5862732l0.4673462 1.0509338l0.7532654 0.8186035l1.0501709 0.40930176l0.57733154 0.060821533l124.87207 0l0.577301 -0.060821533l1.0446777 -0.40930176l0.75878906 -0.8186035l0.46185303 -1.0509338l0.06048584 -0.5862732l0 -64.29346l-0.06048584 -0.5862732l-0.46185303 -1.0509338l-0.75878906 -0.8186035l-1.0446777 -0.40927124l-0.577301 -0.06085205z"
       id="path105" />
    <path
       fill="#fff"
       fill-rule="evenodd"
       d="m332.898 427.97092l-0.6470947 0.060821533l-1.059845 0.40930176l-0.7642212 0.8185425l-0.4741516 1.0508423l0 0.5862732l0 46.757507l0 0.5862427l0.4741516 1.0508728l0.7642212 0.8185425l1.059845 0.40930176l0.6470947 0.05529785l109.059784 0l0.5912781 -0.05529785l1.0598755 -0.40930176l0.7642212 -0.8185425l0.4741516 -1.0508728l0.055786133 -0.5862427l0 -46.757507l-0.055786133 -0.5862732l-0.4741516 -1.0508423l-0.7642212 -0.8185425l-1.0598755 -0.40930176l-0.5912781 -0.060821533z"
       id="path106" />
    <path
       fill="#466bb0"
       fill-rule="evenodd"
       d="m341.65698 469.3533l8.792969 5.027771l14.616272 -5.027771z"
       id="path107" />
    <path
       fill="#466bb0"
       fill-rule="evenodd"
       d="m350.44995 447.55527l-8.792969 20.10553l8.792969 -1.6980591l0 -18.40747z"
       id="path108" />
    <path
       fill="#476baf"
       fill-rule="evenodd"
       d="m351.8816 434.17l0 31.792725l13.184631 1.6980591l-13.184631 -33.490784z"
       id="path109" />
    <path
       fill="#000"
       fill-opacity="0"
       fill-rule="evenodd"
       d="m357.8877 439.70926l85.219635 0l0 29.132996l-85.219635 0z"
       id="path110" />
    <path
       fill="#000"
       fill-rule="nonzero"
       d="m374.9937 460.38574q-1.609375 0 -2.984375 -0.78125q-1.359375 -0.78125 -2.15625 -2.15625q-0.796875 -1.375 -0.796875 -3.046875q0 -1.65625 0.796875 -3.03125q0.796875 -1.375 2.15625 -2.15625q1.375 -0.796875 2.984375 -0.796875q1.265625 0 2.375 0.453125q1.109375 0.453125 1.828125 1.265625l-0.953125 0.96875q-0.5625 -0.671875 -1.421875 -1.03125q-0.84375 -0.359375 -1.8125 -0.359375q-1.203125 0 -2.265625 0.59375q-1.046875 0.578125 -1.6875 1.640625q-0.625 1.0625 -0.625 2.453125q0 1.390625 0.625 2.46875q0.640625 1.0625 1.6875 1.640625q1.0625 0.578125 2.265625 0.578125q1.15625 0 1.921875 -0.359375q0.78125 -0.359375 1.34375 -0.953125q0.421875 -0.4375 0.671875 -1.0625q0.25 -0.640625 0.3125 -1.40625l-4.234375 0l0 -1.265625l5.5 0q0.078125 0.453125 0.078125 0.828125q0 1.0625 -0.34375 2.0625q-0.328125 1.0 -1.0625 1.75q-1.578125 1.703125 -4.203125 1.703125zm9.721161 0q-0.890625 0 -1.59375 -0.34375q-0.703125 -0.359375 -1.09375 -0.96875q-0.375 -0.625 -0.375 -1.40625q0 -1.296875 0.96875 -2.015625q0.984375 -0.734375 2.46875 -0.734375q0.734375 0 1.359375 0.171875q0.640625 0.15625 0.96875 0.359375l0 -0.5q0 -0.90625 -0.640625 -1.453125q-0.625 -0.5625 -1.609375 -0.5625q-0.671875 0 -1.265625 0.296875q-0.578125 0.296875 -0.90625 0.828125l-1.03125 -0.765625q0.484375 -0.734375 1.328125 -1.15625q0.859375 -0.421875 1.875 -0.421875q1.671875 0 2.609375 0.875q0.9375 0.875 0.9375 2.375l0 5.171875l-1.296875 0l0 -1.171875l-0.0625 0q-0.34375 0.59375 -1.046875 1.015625q-0.703125 0.40625 -1.59375 0.40625zm0.140625 -1.1875q0.6875 0 1.265625 -0.34375q0.59375 -0.359375 0.9375 -0.953125q0.359375 -0.59375 0.359375 -1.296875q-0.375 -0.265625 -0.9375 -0.421875q-0.5625 -0.15625 -1.1875 -0.15625q-1.109375 0 -1.6875 0.46875q-0.5625 0.453125 -0.5625 1.1875q0 0.671875 0.5 1.09375q0.515625 0.421875 1.3125 0.421875zm8.726624 1.0625q-0.5 0 -0.921875 -0.15625q-0.421875 -0.15625 -0.703125 -0.4375q-0.640625 -0.609375 -0.640625 -1.671875l0 -4.78125l-1.421875 0l0 -1.234375l1.421875 0l0 -2.3125l1.359375 0l0 2.3125l2.0 0l0 1.234375l-2.0 0l0 4.4375q0 0.671875 0.25 1.0q0.3125 0.34375 0.890625 0.34375q0.484375 0 0.890625 -0.265625l0 1.328125q-0.234375 0.109375 -0.484375 0.15625q-0.25 0.046875 -0.640625 0.046875zm6.0040283 0.125q-1.171875 0 -2.109375 -0.546875q-0.921875 -0.5625 -1.4375 -1.546875q-0.515625 -0.984375 -0.515625 -2.21875q0 -1.171875 0.484375 -2.171875q0.484375 -1.0 1.390625 -1.59375q0.90625 -0.59375 2.078125 -0.59375q1.203125 0 2.078125 0.546875q0.875 0.53125 1.34375 1.484375q0.484375 0.9375 0.484375 2.15625q0 0.1875 -0.03125 0.40625l-6.46875 0q0.046875 0.9375 0.4375 1.578125q0.40625 0.640625 1.015625 0.96875q0.625 0.3125 1.296875 0.3125q1.59375 0 2.421875 -1.484375l1.140625 0.5625q-0.5 0.984375 -1.421875 1.5625q-0.90625 0.578125 -2.1875 0.578125zm2.34375 -5.1875q-0.03125 -0.515625 -0.28125 -1.03125q-0.25 -0.515625 -0.796875 -0.859375q-0.546875 -0.359375 -1.375 -0.359375q-0.96875 0 -1.640625 0.625q-0.671875 0.609375 -0.875 1.625l4.96875 0zm1.972992 -3.21875l1.40625 0l1.9375 6.4375l0.015625 0l2.0625 -6.4375l1.390625 0l2.0625 6.421875l0.03125 0l1.921875 -6.421875l1.375 0l-2.625 8.15625l-1.390625 0l-2.109375 -6.515625l-2.09375 6.515625l-1.359375 0l-2.625 -8.15625zm15.772034 8.40625q-0.890625 0 -1.59375 -0.34375q-0.703125 -0.359375 -1.09375 -0.96875q-0.375 -0.625 -0.375 -1.40625q0 -1.296875 0.96875 -2.015625q0.984375 -0.734375 2.46875 -0.734375q0.734375 0 1.359375 0.171875q0.640625 0.15625 0.96875 0.359375l0 -0.5q0 -0.90625 -0.640625 -1.453125q-0.625 -0.5625 -1.609375 -0.5625q-0.671875 0 -1.265625 0.296875q-0.578125 0.296875 -0.90625 0.828125l-1.03125 -0.765625q0.484375 -0.734375 1.328125 -1.15625q0.859375 -0.421875 1.875 -0.421875q1.671875 0 2.609375 0.875q0.9375 0.875 0.9375 2.375l0 5.171875l-1.296875 0l0 -1.171875l-0.0625 0q-0.34375 0.59375 -1.046875 1.015625q-0.703125 0.40625 -1.59375 0.40625zm0.140625 -1.1875q0.6875 0 1.265625 -0.34375q0.59375 -0.359375 0.9375 -0.953125q0.359375 -0.59375 0.359375 -1.296875q-0.375 -0.265625 -0.9375 -0.421875q-0.5625 -0.15625 -1.1875 -0.15625q-1.109375 0 -1.6875 0.46875q-0.5625 0.453125 -0.5625 1.1875q0 0.671875 0.5 1.09375q0.515625 0.421875 1.3125 0.421875zm8.085999 0.421875l-3.375 -7.640625l1.46875 0l2.5625 6.0625l0.03125 0l2.46875 -6.0625l1.46875 0l-5.03125 11.609375l-1.40625 0l1.8125 -3.96875z"
       id="path111" />
    <path
       fill="#000"
       fill-opacity="0"
       fill-rule="evenodd"
       d="m368.82745 562.21783l112.97638 0l0 0.06298828l112.97638 0"
       id="path112" />
    <path
       fill-rule="evenodd"
       stroke="#008200"
       stroke-linecap="butt"
       stroke-linejoin="round"
       stroke-width="2"
       d="m368.82745 562.21783l112.97638 0l0 0.06298828l106.12225 0"
       id="path113" />
    <path
       fill="#008200"
       fill-rule="evenodd"
       stroke="#008200"
       stroke-linecap="butt"
       stroke-width="2"
       d="m587.926 562.2808l-2.2491455 2.2492065l6.1795654 -2.2492065l-6.1795654 -2.2491455z"
       id="path114" />
    <path
       fill="#000"
       fill-opacity="0"
       fill-rule="evenodd"
       d="m657.80383 536.18634l0 -81.921234l-214.70865 0"
       id="path115" />
    <path
       fill-rule="evenodd"
       stroke="#46f"
       stroke-dasharray="8 6"
       stroke-linecap="butt"
       stroke-linejoin="round"
       stroke-width="2"
       d="m657.80383 536.18634l0 -81.921234l-207.85449 0"
       id="path116" />
    <path
       fill="#46f"
       fill-rule="evenodd"
       stroke="#46f"
       stroke-linecap="butt"
       stroke-width="2"
       d="m449.94937 454.2651l2.2491455 -2.249176l-6.179535 2.249176l6.179535 2.2491455z"
       id="path117" />
    <path
       fill="#000"
       fill-opacity="0"
       fill-rule="evenodd"
       d="m393.26364 421.68918l0 -75.02362l-24.188965 0"
       id="path118" />
    <path
       fill-rule="evenodd"
       stroke="#46f"
       stroke-dasharray="8 6"
       stroke-linecap="butt"
       stroke-linejoin="round"
       stroke-width="2"
       d="m393.26364 421.68918l0 -75.02362l-17.334808 0"
       id="path119" />
    <path
       fill="#46f"
       fill-rule="evenodd"
       stroke="#46f"
       stroke-linecap="butt"
       stroke-width="2"
       d="m375.92886 346.66556l2.2491455 -2.249176l-6.179535 2.249176l6.179535 2.249176z"
       id="path120" />
    <path
       fill="#000"
       fill-opacity="0"
       fill-rule="evenodd"
       d="m263.21674 310.68582l0 -89.38583l32.944885 0"
       id="path121" />
    <path
       fill-rule="evenodd"
       stroke="#46f"
       stroke-dasharray="8 6"
       stroke-linecap="butt"
       stroke-linejoin="round"
       stroke-width="2"
       d="m263.21674 310.68582l0 -89.38583l26.090729 0"
       id="path122" />
    <path
       fill="#46f"
       fill-rule="evenodd"
       stroke="#46f"
       stroke-linecap="butt"
       stroke-width="2"
       d="m289.30743 221.29999l-2.2491455 2.249176l6.179535 -2.249176l-6.179535 -2.2491608z"
       id="path123" />
    <text
       xml:space="preserve"
       style="font-size:14.6667px;font-family:Helvetica;-inkscape-font-specification:Helvetica;fill:#000000"
       x="88.603157"
       y="29.025175"
       id="text123"><tspan
         sodipodi:role="line"
         id="tspan123"
         x="88.603157"
         y="29.025175"
         style="font-size:14.6667px">mesh1</tspan></text>
    <text
       xml:space="preserve"
       style="font-size:14.6667px;font-family:Helvetica;-inkscape-font-specification:Helvetica;fill:#000000"
       x="158.87465"
       y="85.547882"
       id="text124"><tspan
         sodipodi:role="line"
         id="tspan124"
         x="158.87465"
         y="85.547882">network1</tspan></text>
    <text
       xml:space="preserve"
       style="font-size:14.6667px;font-family:Helvetica;-inkscape-font-specification:Helvetica;fill:#000000"
       x="194.01039"
       y="141.30678"
       id="text125"><tspan
         sodipodi:role="line"
         id="tspan125"
         x="194.01039"
         y="141.30678">cluster1</tspan></text>
    <text
       xml:space="preserve"
       style="font-size:14.6667px;font-family:Helvetica;-inkscape-font-specification:Helvetica;fill:#000000"
       x="540.021"
       y="142.83441"
       id="text126"><tspan
         sodipodi:role="line"
         id="tspan126"
         x="540.021"
         y="142.83441"> cluster2</tspan></text>
    <text
       xml:space="preserve"
       style="font-size:16px;fill:#466baf;fill-opacity:1"
       x="214.63353"
       y="181.02544"
       id="text1"><tspan
         sodipodi:role="line"
         id="tspan1"
         x="214.63353"
         y="181.02544"
         style="font-style:normal;font-variant:normal;font-weight:bold;font-stretch:normal;font-size:16px;font-family:sans-serif;-inkscape-font-specification:sans-serif;fill:#466baf;fill-opacity:1"> / </tspan></text>
    <text
       xml:space="preserve"
       style="font-size:16px;fill:#466baf;fill-opacity:1"
       x="468.40817"
       y="232.82564"
       id="text1-4"><tspan
         sodipodi:role="line"
         id="tspan1-0"
         x="468.40817"
         y="232.82564"
         style="font-style:normal;font-variant:normal;font-weight:bold;font-stretch:normal;font-size:16px;font-family:sans-serif;-inkscape-font-specification:sans-serif;fill:#466baf;fill-opacity:1"></tspan></text>
    <text
       xml:space="preserve"
       style="font-size:16px;fill:#000000"
       x="229.14612"
       y="190.19128"
       id="text2"><tspan
         sodipodi:role="line"
         id="tspan2"
         x="229.14612"
         y="190.19128" /></text>
  </g>
</svg>
