<svg xmlns="http://www.w3.org/2000/svg" xmlns:xlink="http://www.w3.org/1999/xlink" fill="none" stroke="none" stroke-linecap="square" stroke-miterlimit="10" version="1.1" viewBox="0 0 960 720"><clipPath id="p.0"><path d="m0 0l960.0 0l0 720.0l-960.0 0l0 -720.0z" clip-rule="nonzero"/></clipPath><g clip-path="url(#p.0)"><path fill="#000" fill-opacity="0" fill-rule="evenodd" d="m0 0l960.0 0l0 720.0l-960.0 0z"/><path fill="#000" fill-opacity="0" fill-rule="evenodd" d="m106.0 393.52856l0 0c0 -28.148224 22.818665 -50.96689 50.966904 -50.96689l672.3339 0c13.517212 0 26.480896 5.3697205 36.039 14.927856c9.5581665 9.5581665 14.927856 22.52179 14.927856 36.039032l0 203.86151c0 28.148193 -22.818665 50.966858 -50.966858 50.966858l-672.3339 0l0 0c-28.14824 0 -50.966904 -22.818665 -50.966904 -50.966858z"/><path fill-rule="evenodd" stroke="#46f" stroke-dasharray="8 6" stroke-linecap="butt" stroke-linejoin="round" stroke-width="2" d="m106.0 393.52856l0 0c0 -28.148224 22.818665 -50.96689 50.966904 -50.96689l672.3339 0c13.517212 0 26.480896 5.3697205 36.039 14.927856c9.5581665 9.5581665 14.927856 22.52179 14.927856 36.039032l0 203.86151c0 28.148193 -22.818665 50.966858 -50.966858 50.966858l-672.3339 0l0 0c-28.14824 0 -50.966904 -22.818665 -50.966904 -50.966858z"/><path fill="#000" fill-opacity="0" fill-rule="evenodd" d="m377.7743 117.96118l0 0c0 -15.177261 12.303589 -27.480865 27.480865 -27.480865l175.49496 0c7.288391 0 14.278198 2.8952942 19.431885 8.048958c5.1536865 5.1536636 8.04895 12.143524 8.04895 19.431908l0 109.920166c0 15.177261 -12.303589 27.48085 -27.480835 27.48085l-175.49496 0c-15.177277 0 -27.480865 -12.303589 -27.480865 -27.48085z"/><path fill-rule="evenodd" stroke="#ff6400" stroke-linecap="butt" stroke-linejoin="round" stroke-width="2" d="m377.7743 117.96118l0 0c0 -15.177261 12.303589 -27.480865 27.480865 -27.480865l175.49496 0c7.288391 0 14.278198 2.8952942 19.431885 8.048958c5.1536865 5.1536636 8.04895 12.143524 8.04895 19.431908l0 109.920166c0 15.177261 -12.303589 27.48085 -27.480835 27.48085l-175.49496 0c-15.177277 0 -27.480865 -12.303589 -27.480865 -27.48085z"/><path fill="#000" fill-opacity="0" fill-rule="evenodd" d="m106.0 307.10123l148.8819 0l0 56.37796l-148.8819 0z"/><path fill="#000" fill-rule="nonzero" d="m116.28125 320.00812l1.96875 0l3.640625 9.390625l0.0625 0l3.65625 -9.390625l1.96875 0l0 11.453125l-1.34375 0l0 -7.28125l0.0625 -2.171875l-0.0625 0l-3.75 9.453125l-1.109375 0l-3.75 -9.453125l-0.0625 0l0.0625 2.171875l0 7.28125l-1.34375 0l0 -11.453125zm17.055405 11.703125q-1.171875 0 -2.109375 -0.546875q-0.921875 -0.5625 -1.4375 -1.546875q-0.515625 -0.984375 -0.515625 -2.21875q0 -1.171875 0.484375 -2.171875q0.484375 -1.0 1.390625 -1.59375q0.90625 -0.59375 2.078125 -0.59375q1.203125 0 2.078125 0.546875q0.875 0.53125 1.34375 1.484375q0.484375 0.9375 0.484375 2.15625q0 0.1875 -0.03125 0.40625l-6.46875 0q0.046875 0.9375 0.4375 1.578125q0.40625 0.640625 1.015625 0.96875q0.625 0.3125 1.296875 0.3125q1.59375 0 2.421875 -1.484375l1.140625 0.5625q-0.5 0.984375 -1.421875 1.5625q-0.90625 0.578125 -2.1875 0.578125zm2.34375 -5.1875q-0.03125 -0.515625 -0.28125 -1.03125q-0.25 -0.515625 -0.796875 -0.859375q-0.546875 -0.359375 -1.375 -0.359375q-0.96875 0 -1.640625 0.625q-0.671875 0.609375 -0.875 1.625l4.96875 0zm5.9630127 5.1875q-1.3125 0 -2.203125 -0.609375q-0.875 -0.609375 -1.234375 -1.578125l1.203125 -0.546875q0.3125 0.734375 0.90625 1.140625q0.609375 0.40625 1.328125 0.40625q0.765625 0 1.3125 -0.3125q0.546875 -0.3125 0.546875 -0.890625q0 -0.515625 -0.4375 -0.828125q-0.4375 -0.3125 -1.359375 -0.53125l-1.0 -0.265625q-0.96875 -0.234375 -1.59375 -0.8125q-0.625 -0.578125 -0.625 -1.484375q0 -0.703125 0.421875 -1.234375q0.421875 -0.546875 1.125 -0.828125q0.703125 -0.296875 1.53125 -0.296875q1.0625 0 1.90625 0.46875q0.84375 0.46875 1.1875 1.296875l-1.171875 0.546875q-0.546875 -1.09375 -1.9375 -1.09375q-0.671875 0 -1.1875 0.3125q-0.5 0.3125 -0.5 0.796875q0 0.453125 0.34375 0.734375q0.359375 0.265625 1.0625 0.453125l1.1875 0.296875q1.203125 0.3125 1.8125 0.90625q0.609375 0.59375 0.609375 1.46875q0 0.75 -0.4375 1.3125q-0.4375 0.5625 -1.171875 0.875q-0.734375 0.296875 -1.625 0.296875zm4.7242584 -11.703125l1.359375 0l0 3.375l-0.078125 1.125l0.078125 0q0.328125 -0.625 1.046875 -1.046875q0.734375 -0.421875 1.609375 -0.421875q1.484375 0 2.265625 0.875q0.78125 0.875 0.78125 2.3125l0 5.234375l-1.359375 0l0 -5.03125q0 -1.09375 -0.5625 -1.625q-0.5625 -0.53125 -1.453125 -0.53125q-0.640625 0 -1.1875 0.390625q-0.53125 0.375 -0.84375 0.984375q-0.296875 0.609375 -0.296875 1.265625l0 4.546875l-1.359375 0l0 -11.453125zm9.914642 5.25q-0.4375 0 -0.734375 -0.296875q-0.296875 -0.296875 -0.296875 -0.734375q0 -0.421875 0.296875 -0.71875q0.296875 -0.296875 0.734375 -0.296875q0.4375 0 0.71875 0.296875q0.296875 0.296875 0.296875 0.71875q0 0.4375 -0.296875 0.734375q-0.28125 0.296875 -0.71875 0.296875zm0 6.296875q-0.4375 0 -0.734375 -0.296875q-0.296875 -0.296875 -0.296875 -0.71875q0 -0.421875 0.296875 -0.71875q0.296875 -0.296875 0.734375 -0.296875q0.4375 0 0.71875 0.296875q0.296875 0.296875 0.296875 0.71875q0 0.421875 -0.296875 0.71875q-0.28125 0.296875 -0.71875 0.296875zm1.9017639 -0.09375l0 0zm4.7276306 -8.15625l1.28125 0l0 1.203125l0.078125 0q0.34375 -0.625 1.046875 -1.046875q0.703125 -0.421875 1.484375 -0.421875q0.90625 0 1.5625 0.4375q0.671875 0.4375 0.953125 1.15625q0.4375 -0.71875 1.140625 -1.15625q0.71875 -0.4375 1.65625 -0.4375q1.40625 0 2.125 0.859375q0.71875 0.859375 0.71875 2.328125l0 5.234375l-1.34375 0l0 -5.03125q0 -1.125 -0.46875 -1.640625q-0.46875 -0.515625 -1.375 -0.515625q-0.609375 0 -1.109375 0.359375q-0.5 0.34375 -0.78125 0.9375q-0.265625 0.59375 -0.265625 1.28125l0 4.609375l-1.359375 0l0 -5.015625q0 -1.140625 -0.46875 -1.65625q-0.46875 -0.515625 -1.359375 -0.515625q-0.609375 0 -1.109375 0.359375q-0.5 0.359375 -0.78125 0.96875q-0.265625 0.59375 -0.265625 1.28125l0 4.578125l-1.359375 0l0 -8.15625zm17.641022 8.40625q-1.171875 0 -2.109375 -0.546875q-0.921875 -0.5625 -1.4375 -1.546875q-0.515625 -0.984375 -0.515625 -2.21875q0 -1.171875 0.484375 -2.171875q0.484375 -1.0 1.390625 -1.59375q0.90625 -0.59375 2.078125 -0.59375q1.203125 0 2.078125 0.546875q0.875 0.53125 1.34375 1.484375q0.484375 0.9375 0.484375 2.15625q0 0.1875 -0.03125 0.40625l-6.46875 0q0.046875 0.9375 0.4375 1.578125q0.40625 0.640625 1.015625 0.96875q0.625 0.3125 1.296875 0.3125q1.59375 0 2.421875 -1.484375l1.140625 0.5625q-0.5 0.984375 -1.421875 1.5625q-0.90625 0.578125 -2.1875 0.578125zm2.34375 -5.1875q-0.03125 -0.515625 -0.28125 -1.03125q-0.25 -0.515625 -0.796875 -0.859375q-0.546875 -0.359375 -1.375 -0.359375q-0.96875 0 -1.640625 0.625q-0.671875 0.609375 -0.875 1.625l4.96875 0zm5.9630127 5.1875q-1.3125 0 -2.203125 -0.609375q-0.875 -0.609375 -1.234375 -1.578125l1.203125 -0.546875q0.3125 0.734375 0.90625 1.140625q0.609375 0.40625 1.328125 0.40625q0.765625 0 1.3125 -0.3125q0.546875 -0.3125 0.546875 -0.890625q0 -0.515625 -0.4375 -0.828125q-0.4375 -0.3125 -1.359375 -0.53125l-1.0 -0.265625q-0.96875 -0.234375 -1.59375 -0.8125q-0.625 -0.578125 -0.625 -1.484375q0 -0.703125 0.421875 -1.234375q0.421875 -0.546875 1.125 -0.828125q0.703125 -0.296875 1.53125 -0.296875q1.0625 0 1.90625 0.46875q0.84375 0.46875 1.1875 1.296875l-1.171875 0.546875q-0.546875 -1.09375 -1.9375 -1.09375q-0.671875 0 -1.1875 0.3125q-0.5 0.3125 -0.5 0.796875q0 0.453125 0.34375 0.734375q0.359375 0.265625 1.0625 0.453125l1.1875 0.296875q1.203125 0.3125 1.8125 0.90625q0.609375 0.59375 0.609375 1.46875q0 0.75 -0.4375 1.3125q-0.4375 0.5625 -1.171875 0.875q-0.734375 0.296875 -1.625 0.296875zm4.7242584 -11.703125l1.359375 0l0 3.375l-0.078125 1.125l0.078125 0q0.328125 -0.625 1.046875 -1.046875q0.734375 -0.421875 1.609375 -0.421875q1.484375 0 2.265625 0.875q0.78125 0.875 0.78125 2.3125l0 5.234375l-1.359375 0l0 -5.03125q0 -1.09375 -0.5625 -1.625q-0.5625 -0.53125 -1.453125 -0.53125q-0.640625 0 -1.1875 0.390625q-0.53125 0.375 -0.84375 0.984375q-0.296875 0.609375 -0.296875 1.265625l0 4.546875l-1.359375 0l0 -11.453125zm11.352142 2.40625l-1.921875 1.390625l-0.703125 -1.046875l3.125 -2.234375l0.859375 0l0 10.9375l-1.359375 0l0 -9.046875z"/><path fill="#000" fill-opacity="0" fill-rule="evenodd" d="m368.7297 54.188976l203.55905 0l0 56.377956l-203.55905 0z"/><path fill="#000" fill-rule="nonzero" d="m384.38596 78.79898q-1.671875 0 -3.03125 -0.78125q-1.359375 -0.78125 -2.140625 -2.140625q-0.765625 -1.375 -0.765625 -3.0625q0 -1.671875 0.765625 -3.03125q0.78125 -1.375 2.140625 -2.15625q1.359375 -0.796875 3.03125 -0.796875q1.28125 0 2.34375 0.484375q1.0625 0.484375 1.84375 1.390625l-0.96875 0.953125q-0.65625 -0.796875 -1.4375 -1.15625q-0.78125 -0.375 -1.78125 -0.375q-1.25 0 -2.296875 0.59375q-1.03125 0.578125 -1.65625 1.640625q-0.609375 1.0625 -0.609375 2.453125q0 1.390625 0.609375 2.46875q0.625 1.0625 1.65625 1.640625q1.046875 0.578125 2.296875 0.578125q2.078125 0 3.53125 -1.703125l1.0 0.953125q-0.78125 0.953125 -1.96875 1.5q-1.171875 0.546875 -2.5625 0.546875zm6.0553894 -11.703125l1.359375 0l0 11.453125l-1.359375 0l0 -11.453125zm6.329132 11.703125q-1.46875 0 -2.25 -0.859375q-0.78125 -0.859375 -0.78125 -2.421875l0 -5.125l1.359375 0l0 4.921875q0 1.171875 0.53125 1.71875q0.53125 0.546875 1.421875 0.546875q0.6875 0 1.21875 -0.375q0.546875 -0.375 0.84375 -0.953125q0.296875 -0.59375 0.296875 -1.25l0 -4.609375l1.359375 0l0 8.15625l-1.296875 0l0 -1.1875l-0.0625 0q-0.34375 0.609375 -1.078125 1.03125q-0.734375 0.40625 -1.5625 0.40625zm8.786652 0q-1.3125 0 -2.203125 -0.609375q-0.875 -0.609375 -1.234375 -1.578125l1.203125 -0.546875q0.3125 0.734375 0.90625 1.140625q0.609375 0.40625 1.328125 0.40625q0.765625 0 1.3125 -0.3125q0.546875 -0.3125 0.546875 -0.890625q0 -0.515625 -0.4375 -0.828125q-0.4375 -0.3125 -1.359375 -0.53125l-1.0 -0.265625q-0.96875 -0.234375 -1.59375 -0.8125q-0.625 -0.578125 -0.625 -1.484375q0 -0.703125 0.421875 -1.234375q0.421875 -0.546875 1.125 -0.828125q0.703125 -0.296875 1.53125 -0.296875q1.0625 0 1.90625 0.46875q0.84375 0.46875 1.1875 1.296875l-1.171875 0.546875q-0.546875 -1.09375 -1.9375 -1.09375q-0.671875 0 -1.1875 0.3125q-0.5 0.3125 -0.5 0.796875q0 0.453125 0.34375 0.734375q0.359375 0.265625 1.0625 0.453125l1.1875 0.296875q1.203125 0.3125 1.8125 0.90625q0.609375 0.59375 0.609375 1.46875q0 0.75 -0.4375 1.3125q-0.4375 0.5625 -1.171875 0.875q-0.734375 0.296875 -1.625 0.296875zm7.7692566 -0.125q-0.5 0 -0.921875 -0.15625q-0.421875 -0.15625 -0.703125 -0.4375q-0.640625 -0.609375 -0.640625 -1.671875l0 -4.78125l-1.421875 0l0 -1.234375l1.421875 0l0 -2.3125l1.359375 0l0 2.3125l2.0 0l0 1.234375l-2.0 0l0 4.4375q0 0.671875 0.25 1.0q0.3125 0.34375 0.890625 0.34375q0.484375 0 0.890625 -0.265625l0 1.328125q-0.234375 0.109375 -0.484375 0.15625q-0.25 0.046875 -0.640625 0.046875zm6.003998 0.125q-1.171875 0 -2.109375 -0.546875q-0.921875 -0.5625 -1.4375 -1.546875q-0.515625 -0.984375 -0.515625 -2.21875q0 -1.171875 0.484375 -2.171875q0.484375 -1.0 1.390625 -1.59375q0.90625 -0.59375 2.078125 -0.59375q1.203125 0 2.078125 0.546875q0.875 0.53125 1.34375 1.484375q0.484375 0.9375 0.484375 2.15625q0 0.1875 -0.03125 0.40625l-6.46875 0q0.046875 0.9375 0.4375 1.578125q0.40625 0.640625 1.015625 0.96875q0.625 0.3125 1.296875 0.3125q1.59375 0 2.421875 -1.484375l1.140625 0.5625q-0.5 0.984375 -1.421875 1.5625q-0.90625 0.578125 -2.1875 0.578125zm2.34375 -5.1875q-0.03125 -0.515625 -0.28125 -1.03125q-0.25 -0.515625 -0.796875 -0.859375q-0.546875 -0.359375 -1.375 -0.359375q-0.96875 0 -1.640625 0.625q-0.671875 0.609375 -0.875 1.625l4.96875 0zm3.0392761 -3.21875l1.28125 0l0 1.3125l0.078125 0q0.234375 -0.671875 0.921875 -1.109375q0.6875 -0.453125 1.4375 -0.453125q0.5625 0 0.96875 0.171875l0 1.46875q-0.515625 -0.265625 -1.15625 -0.265625q-0.59375 0 -1.09375 0.34375q-0.5 0.328125 -0.796875 0.90625q-0.28125 0.5625 -0.28125 1.21875l0 4.5625l-1.359375 0l0 -8.15625zm6.890625 1.953125q-0.4375 0 -0.734375 -0.296875q-0.296875 -0.296875 -0.296875 -0.734375q0 -0.421875 0.296875 -0.71875q0.296875 -0.296875 0.734375 -0.296875q0.4375 0 0.71875 0.296875q0.296875 0.296875 0.296875 0.71875q0 0.4375 -0.296875 0.734375q-0.28125 0.296875 -0.71875 0.296875zm0 6.296875q-0.4375 0 -0.734375 -0.296875q-0.296875 -0.296875 -0.296875 -0.71875q0 -0.421875 0.296875 -0.71875q0.296875 -0.296875 0.734375 -0.296875q0.4375 0 0.71875 0.296875q0.296875 0.296875 0.296875 0.71875q0 0.421875 -0.296875 0.71875q-0.28125 0.296875 -0.71875 0.296875zm1.9017639 -0.09375l0 0zm8.352631 0.25q-1.171875 0 -2.109375 -0.546875q-0.921875 -0.5625 -1.4375 -1.546875q-0.515625 -0.984375 -0.515625 -2.21875q0 -1.171875 0.484375 -2.171875q0.484375 -1.0 1.390625 -1.59375q0.90625 -0.59375 2.078125 -0.59375q1.203125 0 2.078125 0.546875q0.875 0.53125 1.34375 1.484375q0.484375 0.9375 0.484375 2.15625q0 0.1875 -0.03125 0.40625l-6.46875 0q0.046875 0.9375 0.4375 1.578125q0.40625 0.640625 1.015625 0.96875q0.625 0.3125 1.296875 0.3125q1.59375 0 2.421875 -1.484375l1.140625 0.5625q-0.5 0.984375 -1.421875 1.5625q-0.90625 0.578125 -2.1875 0.578125zm2.34375 -5.1875q-0.03125 -0.515625 -0.28125 -1.03125q-0.25 -0.515625 -0.796875 -0.859375q-0.546875 -0.359375 -1.375 -0.359375q-0.96875 0 -1.640625 0.625q-0.671875 0.609375 -0.875 1.625l4.96875 0zm4.9573975 0.796875l-2.828125 -4.015625l1.546875 0l2.09375 3.015625l2.03125 -3.015625l1.59375 0l-2.859375 4.015625l2.90625 4.140625l-1.578125 0l-2.109375 -3.140625l-2.09375 3.140625l-1.59375 0l2.890625 -4.140625zm8.838898 4.265625q-0.5 0 -0.921875 -0.15625q-0.421875 -0.15625 -0.703125 -0.4375q-0.640625 -0.609375 -0.640625 -1.671875l0 -4.78125l-1.421875 0l0 -1.234375l1.421875 0l0 -2.3125l1.359375 0l0 2.3125l2.0 0l0 1.234375l-2.0 0l0 4.4375q0 0.671875 0.25 1.0q0.3125 0.34375 0.890625 0.34375q0.484375 0 0.890625 -0.265625l0 1.328125q-0.234375 0.109375 -0.484375 0.15625q-0.25 0.046875 -0.640625 0.046875zm6.003998 0.125q-1.171875 0 -2.109375 -0.546875q-0.921875 -0.5625 -1.4375 -1.546875q-0.515625 -0.984375 -0.515625 -2.21875q0 -1.171875 0.484375 -2.171875q0.484375 -1.0 1.390625 -1.59375q0.90625 -0.59375 2.078125 -0.59375q1.203125 0 2.078125 0.546875q0.875 0.53125 1.34375 1.484375q0.484375 0.9375 0.484375 2.15625q0 0.1875 -0.03125 0.40625l-6.46875 0q0.046875 0.9375 0.4375 1.578125q0.40625 0.640625 1.015625 0.96875q0.625 0.3125 1.296875 0.3125q1.59375 0 2.421875 -1.484375l1.140625 0.5625q-0.5 0.984375 -1.421875 1.5625q-0.90625 0.578125 -2.1875 0.578125zm2.34375 -5.1875q-0.03125 -0.515625 -0.28125 -1.03125q-0.25 -0.515625 -0.796875 -0.859375q-0.546875 -0.359375 -1.375 -0.359375q-0.96875 0 -1.640625 0.625q-0.671875 0.609375 -0.875 1.625l4.96875 0zm3.0392761 -3.21875l1.28125 0l0 1.3125l0.078125 0q0.234375 -0.671875 0.921875 -1.109375q0.6875 -0.453125 1.4375 -0.453125q0.5625 0 0.96875 0.171875l0 1.46875q-0.515625 -0.265625 -1.15625 -0.265625q-0.59375 0 -1.09375 0.34375q-0.5 0.328125 -0.796875 0.90625q-0.28125 0.5625 -0.28125 1.21875l0 4.5625l-1.359375 0l0 -8.15625zm6.0 0l1.28125 0l0 1.203125l0.078125 0q0.328125 -0.609375 1.0625 -1.03125q0.734375 -0.4375 1.578125 -0.4375q1.46875 0 2.234375 0.859375q0.78125 0.859375 0.78125 2.328125l0 5.234375l-1.359375 0l0 -5.03125q0 -1.125 -0.546875 -1.640625q-0.546875 -0.515625 -1.484375 -0.515625q-0.65625 0 -1.1875 0.375q-0.515625 0.359375 -0.796875 0.96875q-0.28125 0.59375 -0.28125 1.25l0 4.59375l-1.359375 0l0 -8.15625zm11.489777 8.40625q-0.890625 0 -1.59375 -0.34375q-0.703125 -0.359375 -1.09375 -0.96875q-0.375 -0.625 -0.375 -1.40625q0 -1.296875 0.96875 -2.015625q0.984375 -0.734375 2.46875 -0.734375q0.734375 0 1.359375 0.171875q0.640625 0.15625 0.96875 0.359375l0 -0.5q0 -0.90625 -0.640625 -1.453125q-0.625 -0.5625 -1.609375 -0.5625q-0.671875 0 -1.265625 0.296875q-0.578125 0.296875 -0.90625 0.828125l-1.03125 -0.765625q0.484375 -0.734375 1.328125 -1.15625q0.859375 -0.421875 1.875 -0.421875q1.671875 0 2.609375 0.875q0.9375 0.875 0.9375 2.375l0 5.171875l-1.296875 0l0 -1.171875l-0.0625 0q-0.34375 0.59375 -1.046875 1.015625q-0.703125 0.40625 -1.59375 0.40625zm0.140625 -1.1875q0.6875 0 1.265625 -0.34375q0.59375 -0.359375 0.9375 -0.953125q0.359375 -0.59375 0.359375 -1.296875q-0.375 -0.265625 -0.9375 -0.421875q-0.5625 -0.15625 -1.1875 -0.15625q-1.109375 0 -1.6875 0.46875q-0.5625 0.453125 -0.5625 1.1875q0 0.671875 0.5 1.09375q0.515625 0.421875 1.3125 0.421875zm5.761627 -10.515625l1.359375 0l0 11.453125l-1.359375 0l0 -11.453125zm2.360382 13.796875l7.609375 0l0 1.109375l-7.609375 0l0 -1.109375zm12.319153 -2.09375q-1.1875 0 -2.140625 -0.5625q-0.9375 -0.5625 -1.46875 -1.546875q-0.515625 -0.984375 -0.515625 -2.21875q0 -1.234375 0.515625 -2.21875q0.53125 -1.0 1.46875 -1.5625q0.953125 -0.5625 2.140625 -0.5625q1.328125 0 2.234375 0.625q0.90625 0.609375 1.28125 1.640625l-1.234375 0.515625q-0.296875 -0.765625 -0.90625 -1.15625q-0.59375 -0.390625 -1.4375 -0.390625q-0.71875 0 -1.34375 0.390625q-0.625 0.390625 -1.0 1.109375q-0.375 0.703125 -0.375 1.609375q0 0.90625 0.375 1.609375q0.375 0.703125 1.0 1.109375q0.625 0.390625 1.34375 0.390625q0.859375 0 1.484375 -0.40625q0.625 -0.40625 0.9375 -1.140625l1.203125 0.515625q-0.40625 1.015625 -1.328125 1.640625q-0.921875 0.609375 -2.234375 0.609375zm5.0484924 -11.703125l1.359375 0l0 11.453125l-1.359375 0l0 -11.453125zm6.3291626 11.703125q-1.46875 0 -2.25 -0.859375q-0.78125 -0.859375 -0.78125 -2.421875l0 -5.125l1.359375 0l0 4.921875q0 1.171875 0.53125 1.71875q0.53125 0.546875 1.421875 0.546875q0.6875 0 1.21875 -0.375q0.546875 -0.375 0.84375 -0.953125q0.296875 -0.59375 0.296875 -1.25l0 -4.609375l1.359375 0l0 8.15625l-1.296875 0l0 -1.1875l-0.0625 0q-0.34375 0.609375 -1.078125 1.03125q-0.734375 0.40625 -1.5625 0.40625zm8.786621 0q-1.3125 0 -2.203125 -0.609375q-0.875 -0.609375 -1.234375 -1.578125l1.203125 -0.546875q0.3125 0.734375 0.90625 1.140625q0.609375 0.40625 1.328125 0.40625q0.765625 0 1.3125 -0.3125q0.546875 -0.3125 0.546875 -0.890625q0 -0.515625 -0.4375 -0.828125q-0.4375 -0.3125 -1.359375 -0.53125l-1.0 -0.265625q-0.96875 -0.234375 -1.59375 -0.8125q-0.625 -0.578125 -0.625 -1.484375q0 -0.703125 0.421875 -1.234375q0.421875 -0.546875 1.125 -0.828125q0.703125 -0.296875 1.53125 -0.296875q1.0625 0 1.90625 0.46875q0.84375 0.46875 1.1875 1.296875l-1.171875 0.546875q-0.546875 -1.09375 -1.9375 -1.09375q-0.671875 0 -1.1875 0.3125q-0.5 0.3125 -0.5 0.796875q0 0.453125 0.34375 0.734375q0.359375 0.265625 1.0625 0.453125l1.1875 0.296875q1.203125 0.3125 1.8125 0.90625q0.609375 0.59375 0.609375 1.46875q0 0.75 -0.4375 1.3125q-0.4375 0.5625 -1.171875 0.875q-0.734375 0.296875 -1.625 0.296875zm7.769287 -0.125q-0.5 0 -0.921875 -0.15625q-0.421875 -0.15625 -0.703125 -0.4375q-0.640625 -0.609375 -0.640625 -1.671875l0 -4.78125l-1.421875 0l0 -1.234375l1.421875 0l0 -2.3125l1.359375 0l0 2.3125l2.0 0l0 1.234375l-2.0 0l0 4.4375q0 0.671875 0.25 1.0q0.3125 0.34375 0.890625 0.34375q0.484375 0 0.890625 -0.265625l0 1.328125q-0.234375 0.109375 -0.484375 0.15625q-0.25 0.046875 -0.640625 0.046875zm6.0039673 0.125q-1.171875 0 -2.109375 -0.546875q-0.921875 -0.5625 -1.4375 -1.546875q-0.515625 -0.984375 -0.515625 -2.21875q0 -1.171875 0.484375 -2.171875q0.484375 -1.0 1.390625 -1.59375q0.90625 -0.59375 2.078125 -0.59375q1.203125 0 2.078125 0.546875q0.875 0.53125 1.34375 1.484375q0.484375 0.9375 0.484375 2.15625q0 0.1875 -0.03125 0.40625l-6.46875 0q0.046875 0.9375 0.4375 1.578125q0.40625 0.640625 1.015625 0.96875q0.625 0.3125 1.296875 0.3125q1.59375 0 2.421875 -1.484375l1.140625 0.5625q-0.5 0.984375 -1.421875 1.5625q-0.90625 0.578125 -2.1875 0.578125zm2.34375 -5.1875q-0.03125 -0.515625 -0.28125 -1.03125q-0.25 -0.515625 -0.796875 -0.859375q-0.546875 -0.359375 -1.375 -0.359375q-0.96875 0 -1.640625 0.625q-0.671875 0.609375 -0.875 1.625l4.96875 0zm3.0393066 -3.21875l1.28125 0l0 1.3125l0.078125 0q0.234375 -0.671875 0.921875 -1.109375q0.6875 -0.453125 1.4375 -0.453125q0.5625 0 0.96875 0.171875l0 1.46875q-0.515625 -0.265625 -1.15625 -0.265625q-0.59375 0 -1.09375 0.34375q-0.5 0.328125 -0.796875 0.90625q-0.28125 0.5625 -0.28125 1.21875l0 4.5625l-1.359375 0l0 -8.15625z"/><path fill="#000" fill-opacity="0" fill-rule="evenodd" d="m205.72966 430.44165l0 0c0 -19.584015 15.875992 -35.460022 35.460022 -35.460022l514.56024 0c9.404602 0 18.424011 3.735962 25.074036 10.385986c6.6500244 6.650055 10.385986 15.669464 10.385986 25.074036l0 141.83588c0 19.583984 -15.875977 35.460022 -35.460022 35.460022l-514.56024 0c-19.58403 0 -35.460022 -15.876038 -35.460022 -35.460022z"/><path fill-rule="evenodd" stroke="#ff6400" stroke-linecap="butt" stroke-linejoin="round" stroke-width="2" d="m205.72966 430.44165l0 0c0 -19.584015 15.875992 -35.460022 35.460022 -35.460022l514.56024 0c9.404602 0 18.424011 3.735962 25.074036 10.385986c6.6500244 6.650055 10.385986 15.669464 10.385986 25.074036l0 141.83588c0 19.583984 -15.875977 35.460022 -35.460022 35.460022l-514.56024 0c-19.58403 0 -35.460022 -15.876038 -35.460022 -35.460022z"/><path fill="#000" fill-opacity="0" fill-rule="evenodd" d="m212.74266 357.2546l218.80315 0l0 56.37793l-218.80315 0z"/><path fill="#000" fill-rule="nonzero" d="m228.39891 381.8646q-1.671875 0 -3.03125 -0.78125q-1.359375 -0.78125 -2.140625 -2.140625q-0.765625 -1.375 -0.765625 -3.0625q0 -1.671875 0.765625 -3.03125q0.78125 -1.375 2.140625 -2.15625q1.359375 -0.796875 3.03125 -0.796875q1.28125 0 2.34375 0.484375q1.0625 0.484375 1.84375 1.390625l-0.96875 0.953125q-0.65625 -0.796875 -1.4375 -1.15625q-0.78125 -0.375 -1.78125 -0.375q-1.25 0 -2.296875 0.59375q-1.03125 0.578125 -1.65625 1.640625q-0.609375 1.0625 -0.609375 2.453125q0 1.390625 0.609375 2.46875q0.625 1.0625 1.65625 1.640625q1.046875 0.578125 2.296875 0.578125q2.078125 0 3.53125 -1.703125l1.0 0.953125q-0.78125 0.953125 -1.96875 1.5q-1.171875 0.546875 -2.5625 0.546875zm6.0553894 -11.703125l1.359375 0l0 11.453125l-1.359375 0l0 -11.453125zm6.329132 11.703125q-1.46875 0 -2.25 -0.859375q-0.78125 -0.859375 -0.78125 -2.421875l0 -5.125l1.359375 0l0 4.921875q0 1.171875 0.53125 1.71875q0.53125 0.546875 1.421875 0.546875q0.6875 0 1.21875 -0.375q0.546875 -0.375 0.84375 -0.953125q0.296875 -0.59375 0.296875 -1.25l0 -4.609375l1.359375 0l0 8.15625l-1.296875 0l0 -1.1875l-0.0625 0q-0.34375 0.609375 -1.078125 1.03125q-0.734375 0.40625 -1.5625 0.40625zm8.786636 0q-1.3125 0 -2.203125 -0.609375q-0.875 -0.609375 -1.234375 -1.578125l1.203125 -0.546875q0.3125 0.734375 0.90625 1.140625q0.609375 0.40625 1.328125 0.40625q0.765625 0 1.3125 -0.3125q0.546875 -0.3125 0.546875 -0.890625q0 -0.515625 -0.4375 -0.828125q-0.4375 -0.3125 -1.359375 -0.53125l-1.0 -0.265625q-0.96875 -0.234375 -1.59375 -0.8125q-0.625 -0.578125 -0.625 -1.484375q0 -0.703125 0.421875 -1.234375q0.421875 -0.546875 1.125 -0.828125q0.703125 -0.296875 1.53125 -0.296875q1.0625 0 1.90625 0.46875q0.84375 0.46875 1.1875 1.296875l-1.171875 0.546875q-0.546875 -1.09375 -1.9375 -1.09375q-0.671875 0 -1.1875 0.3125q-0.5 0.3125 -0.5 0.796875q0 0.453125 0.34375 0.734375q0.359375 0.265625 1.0625 0.453125l1.1875 0.296875q1.203125 0.3125 1.8125 0.90625q0.609375 0.59375 0.609375 1.46875q0 0.75 -0.4375 1.3125q-0.4375 0.5625 -1.171875 0.875q-0.734375 0.296875 -1.625 0.296875zm7.7692566 -0.125q-0.5 0 -0.921875 -0.15625q-0.421875 -0.15625 -0.703125 -0.4375q-0.640625 -0.609375 -0.640625 -1.671875l0 -4.78125l-1.421875 0l0 -1.234375l1.421875 0l0 -2.3125l1.359375 0l0 2.3125l2.0 0l0 1.234375l-2.0 0l0 4.4375q0 0.671875 0.25 1.0q0.3125 0.34375 0.890625 0.34375q0.484375 0 0.890625 -0.265625l0 1.328125q-0.234375 0.109375 -0.484375 0.15625q-0.25 0.046875 -0.640625 0.046875zm6.003998 0.125q-1.171875 0 -2.109375 -0.546875q-0.921875 -0.5625 -1.4375 -1.546875q-0.515625 -0.984375 -0.515625 -2.21875q0 -1.171875 0.484375 -2.171875q0.484375 -1.0 1.390625 -1.59375q0.90625 -0.59375 2.078125 -0.59375q1.203125 0 2.078125 0.546875q0.875 0.53125 1.34375 1.484375q0.484375 0.9375 0.484375 2.15625q0 0.1875 -0.03125 0.40625l-6.46875 0q0.046875 0.9375 0.4375 1.578125q0.40625 0.640625 1.015625 0.96875q0.625 0.3125 1.296875 0.3125q1.59375 0 2.421875 -1.484375l1.140625 0.5625q-0.5 0.984375 -1.421875 1.5625q-0.90625 0.578125 -2.1875 0.578125zm2.34375 -5.1875q-0.03125 -0.515625 -0.28125 -1.03125q-0.25 -0.515625 -0.796875 -0.859375q-0.546875 -0.359375 -1.375 -0.359375q-0.96875 0 -1.640625 0.625q-0.671875 0.609375 -0.875 1.625l4.96875 0zm3.0392761 -3.21875l1.28125 0l0 1.3125l0.078125 0q0.234375 -0.671875 0.921875 -1.109375q0.6875 -0.453125 1.4375 -0.453125q0.5625 0 0.96875 0.171875l0 1.46875q-0.515625 -0.265625 -1.15625 -0.265625q-0.59375 0 -1.09375 0.34375q-0.5 0.328125 -0.796875 0.90625q-0.28125 0.5625 -0.28125 1.21875l0 4.5625l-1.359375 0l0 -8.15625zm6.890625 1.953125q-0.4375 0 -0.734375 -0.296875q-0.296875 -0.296875 -0.296875 -0.734375q0 -0.421875 0.296875 -0.71875q0.296875 -0.296875 0.734375 -0.296875q0.4375 0 0.71875 0.296875q0.296875 0.296875 0.296875 0.71875q0 0.4375 -0.296875 0.734375q-0.28125 0.296875 -0.71875 0.296875zm0 6.296875q-0.4375 0 -0.734375 -0.296875q-0.296875 -0.296875 -0.296875 -0.71875q0 -0.421875 0.296875 -0.71875q0.296875 -0.296875 0.734375 -0.296875q0.4375 0 0.71875 0.296875q0.296875 0.296875 0.296875 0.71875q0 0.421875 -0.296875 0.71875q-0.28125 0.296875 -0.71875 0.296875zm1.9017639 -0.09375l0 0zm4.7276306 -8.15625l1.28125 0l0 1.3125l0.078125 0q0.234375 -0.671875 0.921875 -1.109375q0.6875 -0.453125 1.4375 -0.453125q0.5625 0 0.96875 0.171875l0 1.46875q-0.515625 -0.265625 -1.15625 -0.265625q-0.59375 0 -1.09375 0.34375q-0.5 0.328125 -0.796875 0.90625q-0.28125 0.5625 -0.28125 1.21875l0 4.5625l-1.359375 0l0 -8.15625zm9.14502 8.40625q-1.171875 0 -2.109375 -0.546875q-0.921875 -0.5625 -1.4375 -1.546875q-0.515625 -0.984375 -0.515625 -2.21875q0 -1.171875 0.484375 -2.171875q0.484375 -1.0 1.390625 -1.59375q0.90625 -0.59375 2.078125 -0.59375q1.203125 0 2.078125 0.546875q0.875 0.53125 1.34375 1.484375q0.484375 0.9375 0.484375 2.15625q0 0.1875 -0.03125 0.40625l-6.46875 0q0.046875 0.9375 0.4375 1.578125q0.40625 0.640625 1.015625 0.96875q0.625 0.3125 1.296875 0.3125q1.59375 0 2.421875 -1.484375l1.140625 0.5625q-0.5 0.984375 -1.421875 1.5625q-0.90625 0.578125 -2.1875 0.578125zm2.34375 -5.1875q-0.03125 -0.515625 -0.28125 -1.03125q-0.25 -0.515625 -0.796875 -0.859375q-0.546875 -0.359375 -1.375 -0.359375q-0.96875 0 -1.640625 0.625q-0.671875 0.609375 -0.875 1.625l4.96875 0zm3.0392761 -3.21875l1.28125 0l0 1.203125l0.078125 0q0.34375 -0.625 1.046875 -1.046875q0.703125 -0.421875 1.484375 -0.421875q0.90625 0 1.5625 0.4375q0.671875 0.4375 0.953125 1.15625q0.4375 -0.71875 1.140625 -1.15625q0.71875 -0.4375 1.65625 -0.4375q1.40625 0 2.125 0.859375q0.71875 0.859375 0.71875 2.328125l0 5.234375l-1.34375 0l0 -5.03125q0 -1.125 -0.46875 -1.640625q-0.46875 -0.515625 -1.375 -0.515625q-0.609375 0 -1.109375 0.359375q-0.5 0.34375 -0.78125 0.9375q-0.265625 0.59375 -0.265625 1.28125l0 4.609375l-1.359375 0l0 -5.015625q0 -1.140625 -0.46875 -1.65625q-0.46875 -0.515625 -1.359375 -0.515625q-0.609375 0 -1.109375 0.359375q-0.5 0.359375 -0.78125 0.96875q-0.265625 0.59375 -0.265625 1.28125l0 4.578125l-1.359375 0l0 -8.15625zm17.766022 8.40625q-1.203125 0 -2.171875 -0.5625q-0.953125 -0.578125 -1.484375 -1.5625q-0.53125 -1.0 -0.53125 -2.203125q0 -1.203125 0.53125 -2.1875q0.53125 -1.0 1.484375 -1.578125q0.96875 -0.578125 2.171875 -0.578125q1.203125 0 2.15625 0.578125q0.96875 0.578125 1.5 1.578125q0.53125 0.984375 0.53125 2.1875q0 1.203125 -0.53125 2.203125q-0.53125 0.984375 -1.5 1.5625q-0.953125 0.5625 -2.15625 0.5625zm0 -1.21875q0.75 0 1.390625 -0.375q0.65625 -0.390625 1.046875 -1.09375q0.390625 -0.703125 0.390625 -1.640625q0 -0.953125 -0.390625 -1.65625q-0.390625 -0.703125 -1.046875 -1.078125q-0.640625 -0.375 -1.390625 -0.375q-0.75 0 -1.40625 0.375q-0.65625 0.375 -1.046875 1.078125q-0.390625 0.703125 -0.390625 1.65625q0 0.9375 0.390625 1.640625q0.390625 0.703125 1.046875 1.09375q0.65625 0.375 1.40625 0.375zm8.6710205 1.09375q-0.5 0 -0.921875 -0.15625q-0.421875 -0.15625 -0.703125 -0.4375q-0.640625 -0.609375 -0.640625 -1.671875l0 -4.78125l-1.421875 0l0 -1.234375l1.421875 0l0 -2.3125l1.359375 0l0 2.3125l2.0 0l0 1.234375l-2.0 0l0 4.4375q0 0.671875 0.25 1.0q0.3125 0.34375 0.890625 0.34375q0.484375 0 0.890625 -0.265625l0 1.328125q-0.234375 0.109375 -0.484375 0.15625q-0.25 0.046875 -0.640625 0.046875zm6.003998 0.125q-1.171875 0 -2.109375 -0.546875q-0.921875 -0.5625 -1.4375 -1.546875q-0.515625 -0.984375 -0.515625 -2.21875q0 -1.171875 0.484375 -2.171875q0.484375 -1.0 1.390625 -1.59375q0.90625 -0.59375 2.078125 -0.59375q1.203125 0 2.078125 0.546875q0.875 0.53125 1.34375 1.484375q0.484375 0.9375 0.484375 2.15625q0 0.1875 -0.03125 0.40625l-6.46875 0q0.046875 0.9375 0.4375 1.578125q0.40625 0.640625 1.015625 0.96875q0.625 0.3125 1.296875 0.3125q1.59375 0 2.421875 -1.484375l1.140625 0.5625q-0.5 0.984375 -1.421875 1.5625q-0.90625 0.578125 -2.1875 0.578125zm2.34375 -5.1875q-0.03125 -0.515625 -0.28125 -1.03125q-0.25 -0.515625 -0.796875 -0.859375q-0.546875 -0.359375 -1.375 -0.359375q-0.96875 0 -1.640625 0.625q-0.671875 0.609375 -0.875 1.625l4.96875 0zm2.0236511 7.28125l7.609375 0l0 1.109375l-7.609375 0l0 -1.109375zm12.319122 -2.09375q-1.1875 0 -2.140625 -0.5625q-0.9375 -0.5625 -1.46875 -1.546875q-0.515625 -0.984375 -0.515625 -2.21875q0 -1.234375 0.515625 -2.21875q0.53125 -1.0 1.46875 -1.5625q0.953125 -0.5625 2.140625 -0.5625q1.328125 0 2.234375 0.625q0.90625 0.609375 1.28125 1.640625l-1.234375 0.515625q-0.296875 -0.765625 -0.90625 -1.15625q-0.59375 -0.390625 -1.4375 -0.390625q-0.71875 0 -1.34375 0.390625q-0.625 0.390625 -1.0 1.109375q-0.375 0.703125 -0.375 1.609375q0 0.90625 0.375 1.609375q0.375 0.703125 1.0 1.109375q0.625 0.390625 1.34375 0.390625q0.859375 0 1.484375 -0.40625q0.625 -0.40625 0.9375 -1.140625l1.203125 0.515625q-0.40625 1.015625 -1.328125 1.640625q-0.921875 0.609375 -2.234375 0.609375zm5.048523 -11.703125l1.359375 0l0 11.453125l-1.359375 0l0 -11.453125zm6.329132 11.703125q-1.46875 0 -2.25 -0.859375q-0.78125 -0.859375 -0.78125 -2.421875l0 -5.125l1.359375 0l0 4.921875q0 1.171875 0.53125 1.71875q0.53125 0.546875 1.421875 0.546875q0.6875 0 1.21875 -0.375q0.546875 -0.375 0.84375 -0.953125q0.296875 -0.59375 0.296875 -1.25l0 -4.609375l1.359375 0l0 8.15625l-1.296875 0l0 -1.1875l-0.0625 0q-0.34375 0.609375 -1.078125 1.03125q-0.734375 0.40625 -1.5625 0.40625zm8.786652 0q-1.3125 0 -2.203125 -0.609375q-0.875 -0.609375 -1.234375 -1.578125l1.203125 -0.546875q0.3125 0.734375 0.90625 1.140625q0.609375 0.40625 1.328125 0.40625q0.765625 0 1.3125 -0.3125q0.546875 -0.3125 0.546875 -0.890625q0 -0.515625 -0.4375 -0.828125q-0.4375 -0.3125 -1.359375 -0.53125l-1.0 -0.265625q-0.96875 -0.234375 -1.59375 -0.8125q-0.625 -0.578125 -0.625 -1.484375q0 -0.703125 0.421875 -1.234375q0.421875 -0.546875 1.125 -0.828125q0.703125 -0.296875 1.53125 -0.296875q1.0625 0 1.90625 0.46875q0.84375 0.46875 1.1875 1.296875l-1.171875 0.546875q-0.546875 -1.09375 -1.9375 -1.09375q-0.671875 0 -1.1875 0.3125q-0.5 0.3125 -0.5 0.796875q0 0.453125 0.34375 0.734375q0.359375 0.265625 1.0625 0.453125l1.1875 0.296875q1.203125 0.3125 1.8125 0.90625q0.609375 0.59375 0.609375 1.46875q0 0.75 -0.4375 1.3125q-0.4375 0.5625 -1.171875 0.875q-0.734375 0.296875 -1.625 0.296875zm7.7692566 -0.125q-0.5 0 -0.921875 -0.15625q-0.421875 -0.15625 -0.703125 -0.4375q-0.640625 -0.609375 -0.640625 -1.671875l0 -4.78125l-1.421875 0l0 -1.234375l1.421875 0l0 -2.3125l1.359375 0l0 2.3125l2.0 0l0 1.234375l-2.0 0l0 4.4375q0 0.671875 0.25 1.0q0.3125 0.34375 0.890625 0.34375q0.484375 0 0.890625 -0.265625l0 1.328125q-0.234375 0.109375 -0.484375 0.15625q-0.25 0.046875 -0.640625 0.046875zm6.003998 0.125q-1.171875 0 -2.109375 -0.546875q-0.921875 -0.5625 -1.4375 -1.546875q-0.515625 -0.984375 -0.515625 -2.21875q0 -1.171875 0.484375 -2.171875q0.484375 -1.0 1.390625 -1.59375q0.90625 -0.59375 2.078125 -0.59375q1.203125 0 2.078125 0.546875q0.875 0.53125 1.34375 1.484375q0.484375 0.9375 0.484375 2.15625q0 0.1875 -0.03125 0.40625l-6.46875 0q0.046875 0.9375 0.4375 1.578125q0.40625 0.640625 1.015625 0.96875q0.625 0.3125 1.296875 0.3125q1.59375 0 2.421875 -1.484375l1.140625 0.5625q-0.5 0.984375 -1.421875 1.5625q-0.90625 0.578125 -2.1875 0.578125zm2.34375 -5.1875q-0.03125 -0.515625 -0.28125 -1.03125q-0.25 -0.515625 -0.796875 -0.859375q-0.546875 -0.359375 -1.375 -0.359375q-0.96875 0 -1.640625 0.625q-0.671875 0.609375 -0.875 1.625l4.96875 0zm3.0392761 -3.21875l1.28125 0l0 1.3125l0.078125 0q0.234375 -0.671875 0.921875 -1.109375q0.6875 -0.453125 1.4375 -0.453125q0.5625 0 0.96875 0.171875l0 1.46875q-0.515625 -0.265625 -1.15625 -0.265625q-0.59375 0 -1.09375 0.34375q-0.5 0.328125 -0.796875 0.90625q-0.28125 0.5625 -0.28125 1.21875l0 4.5625l-1.359375 0l0 -8.15625z"/><path fill="#e6e6e6" fill-rule="evenodd" d="m624.5888 459.67822l131.78918 0l0 70.06641l-131.78918 0z"/><path fill="#fff" fill-rule="evenodd" d="m631.2986 467.46423l116.14014 0l0 53.385376l-116.14014 0z"/><path fill="#000" fill-rule="nonzero" d="m656.7863 488.5638l1.53125 0l4.359375 11.453125l-1.5 0l-1.140625 -3.15625l-4.96875 0l-1.140625 3.15625l-1.5 0l4.359375 -11.453125zm2.78125 7.015625l-1.53125 -4.125l-0.453125 -1.234375l-0.0625 0l-0.453125 1.234375l-1.53125 4.125l4.03125 0zm4.6262817 -7.015625l3.859375 0q0.953125 0 1.765625 0.4375q0.828125 0.421875 1.3125 1.203125q0.484375 0.765625 0.484375 1.75q0 0.96875 -0.484375 1.75q-0.484375 0.78125 -1.3125 1.21875q-0.8125 0.421875 -1.765625 0.421875l-2.5 0l0 4.671875l-1.359375 0l0 -11.453125zm3.890625 5.484375q0.640625 0 1.125 -0.296875q0.484375 -0.3125 0.75 -0.78125q0.28125 -0.484375 0.28125 -1.015625q0 -0.53125 -0.28125 -1.0q-0.265625 -0.484375 -0.75 -0.78125q-0.484375 -0.3125 -1.125 -0.3125l-2.53125 0l0 4.1875l2.53125 0zm5.3253784 -5.484375l1.359375 0l0 11.453125l-1.359375 0l0 -11.453125zm2.638794 11.453125l0 0zm7.7163696 0.25q-0.875 0 -1.6875 -0.359375q-0.796875 -0.359375 -1.421875 -1.046875q-0.625 -0.703125 -0.890625 -1.6875l1.296875 -0.53125q0.265625 1.015625 1.0 1.671875q0.734375 0.65625 1.734375 0.65625q0.984375 0 1.671875 -0.53125q0.6875 -0.53125 0.6875 -1.46875q0 -0.796875 -0.578125 -1.3125q-0.578125 -0.515625 -1.90625 -0.96875l-0.734375 -0.25q-1.203125 -0.4375 -1.984375 -1.140625q-0.765625 -0.703125 -0.765625 -1.953125q0 -0.8125 0.453125 -1.5q0.453125 -0.703125 1.25 -1.125q0.796875 -0.421875 1.796875 -0.421875q0.984375 0 1.71875 0.375q0.734375 0.375 1.171875 0.90625q0.453125 0.515625 0.625 1.03125l-1.265625 0.546875q-0.171875 -0.59375 -0.75 -1.078125q-0.5625 -0.484375 -1.484375 -0.484375q-0.890625 0 -1.515625 0.5q-0.625 0.5 -0.625 1.25q0 0.671875 0.53125 1.09375q0.53125 0.421875 1.609375 0.796875l0.75 0.25q1.453125 0.53125 2.265625 1.328125q0.8125 0.78125 0.8125 2.140625q0 1.109375 -0.5625 1.859375q-0.5625 0.75 -1.4375 1.109375q-0.859375 0.34375 -1.765625 0.34375zm9.148254 0q-1.171875 0 -2.109375 -0.546875q-0.921875 -0.5625 -1.4375 -1.546875q-0.515625 -0.984375 -0.515625 -2.21875q0 -1.171875 0.484375 -2.171875q0.484375 -1.0 1.390625 -1.59375q0.90625 -0.59375 2.078125 -0.59375q1.203125 0 2.078125 0.546875q0.875 0.53125 1.34375 1.484375q0.484375 0.9375 0.484375 2.15625q0 0.1875 -0.03125 0.40625l-6.46875 0q0.046875 0.9375 0.4375 1.578125q0.40625 0.640625 1.015625 0.96875q0.625 0.3125 1.296875 0.3125q1.59375 0 2.421875 -1.484375l1.140625 0.5625q-0.5 0.984375 -1.421875 1.5625q-0.90625 0.578125 -2.1875 0.578125zm2.34375 -5.1875q-0.03125 -0.515625 -0.28125 -1.03125q-0.25 -0.515625 -0.796875 -0.859375q-0.546875 -0.359375 -1.375 -0.359375q-0.96875 0 -1.640625 0.625q-0.671875 0.609375 -0.875 1.625l4.96875 0zm3.0393066 -3.21875l1.28125 0l0 1.3125l0.078125 0q0.234375 -0.671875 0.921875 -1.109375q0.6875 -0.453125 1.4375 -0.453125q0.5625 0 0.96875 0.171875l0 1.46875q-0.515625 -0.265625 -1.15625 -0.265625q-0.59375 0 -1.09375 0.34375q-0.5 0.328125 -0.796875 0.90625q-0.28125 0.5625 -0.28125 1.21875l0 4.5625l-1.359375 0l0 -8.15625zm5.3657227 0l1.453125 0l2.53125 6.5625l0.03125 0l2.5625 -6.5625l1.421875 0l-3.328125 8.15625l-1.375 0l-3.296875 -8.15625zm12.515259 8.40625q-1.171875 0 -2.109375 -0.546875q-0.921875 -0.5625 -1.4375 -1.546875q-0.515625 -0.984375 -0.515625 -2.21875q0 -1.171875 0.484375 -2.171875q0.484375 -1.0 1.390625 -1.59375q0.90625 -0.59375 2.078125 -0.59375q1.203125 0 2.078125 0.546875q0.875 0.53125 1.34375 1.484375q0.484375 0.9375 0.484375 2.15625q0 0.1875 -0.03125 0.40625l-6.46875 0q0.046875 0.9375 0.4375 1.578125q0.40625 0.640625 1.015625 0.96875q0.625 0.3125 1.296875 0.3125q1.59375 0 2.421875 -1.484375l1.140625 0.5625q-0.5 0.984375 -1.421875 1.5625q-0.90625 0.578125 -2.1875 0.578125zm2.34375 -5.1875q-0.03125 -0.515625 -0.28125 -1.03125q-0.25 -0.515625 -0.796875 -0.859375q-0.546875 -0.359375 -1.375 -0.359375q-0.96875 0 -1.640625 0.625q-0.671875 0.609375 -0.875 1.625l4.96875 0zm3.0393066 -3.21875l1.28125 0l0 1.3125l0.078125 0q0.234375 -0.671875 0.921875 -1.109375q0.6875 -0.453125 1.4375 -0.453125q0.5625 0 0.96875 0.171875l0 1.46875q-0.515625 -0.265625 -1.15625 -0.265625q-0.59375 0 -1.09375 0.34375q-0.5 0.328125 -0.796875 0.90625q-0.28125 0.5625 -0.28125 1.21875l0 4.5625l-1.359375 0l0 -8.15625z"/><path fill="#000" fill-opacity="0" fill-rule="evenodd" d="m619.3858 101.362206l90.99213 0l0 56.377953l-90.99213 0z"/><path fill="#466bb0" fill-rule="nonzero" d="m633.9952 123.38095q-1.390625 0 -2.53125 -0.65625q-1.140625 -0.671875 -1.8125 -1.8125q-0.65625 -1.140625 -0.65625 -2.515625q0 -1.390625 0.65625 -2.53125q0.671875 -1.140625 1.8125 -1.796875q1.140625 -0.65625 2.53125 -0.65625q2.15625 0 3.578125 1.546875l-1.265625 1.234375q-0.921875 -1.078125 -2.296875 -1.078125q-0.890625 0 -1.625 0.40625q-0.734375 0.40625 -1.15625 1.15625q-0.421875 0.734375 -0.421875 1.71875q0 0.96875 0.421875 1.71875q0.421875 0.734375 1.15625 1.140625q0.734375 0.40625 1.625 0.40625q1.5 0 2.515625 -1.25l1.28125 1.21875q-0.703125 0.84375 -1.671875 1.296875q-0.96875 0.453125 -2.140625 0.453125zm8.229431 0q-1.0625 0 -1.890625 -0.46875q-0.8125 -0.484375 -1.28125 -1.296875q-0.453125 -0.828125 -0.453125 -1.859375q0 -1.0 0.453125 -1.828125q0.46875 -0.828125 1.28125 -1.296875q0.828125 -0.484375 1.890625 -0.484375q1.03125 0 1.859375 0.484375q0.828125 0.46875 1.28125 1.296875q0.46875 0.828125 0.46875 1.828125q0 1.03125 -0.46875 1.859375q-0.453125 0.8125 -1.28125 1.296875q-0.828125 0.46875 -1.859375 0.46875zm0 -1.625q0.5 0 0.921875 -0.234375q0.4375 -0.234375 0.6875 -0.6875q0.25 -0.453125 0.25 -1.078125q0 -0.59375 -0.25 -1.046875q-0.25 -0.453125 -0.6875 -0.6875q-0.421875 -0.25 -0.921875 -0.25q-0.515625 0 -0.9375 0.25q-0.421875 0.234375 -0.6875 0.6875q-0.265625 0.453125 -0.265625 1.046875q0 0.609375 0.265625 1.078125q0.265625 0.453125 0.6875 0.6875q0.421875 0.234375 0.9375 0.234375zm4.8134155 -5.390625l1.640625 0l0 0.859375l0.09375 0q0.3125 -0.5 0.875 -0.78125q0.5625 -0.296875 1.203125 -0.296875q1.234375 0 1.875 0.75q0.640625 0.75 0.640625 2.046875l0 4.21875l-1.75 0l0 -4.015625q0 -0.65625 -0.34375 -1.015625q-0.328125 -0.359375 -0.921875 -0.359375q-0.703125 0 -1.140625 0.546875q-0.4375 0.546875 -0.4375 1.375l0 3.46875l-1.734375 0l0 -6.796875zm13.897095 -0.75q-0.46875 0 -0.8125 -0.328125q-0.328125 -0.328125 -0.328125 -0.796875q0 -0.46875 0.328125 -0.796875q0.34375 -0.328125 0.8125 -0.328125q0.46875 0 0.796875 0.328125q0.328125 0.328125 0.328125 0.796875q0 0.46875 -0.328125 0.796875q-0.328125 0.328125 -0.796875 0.328125zm-5.3125 2.25l-1.21875 0l0 -1.5l1.21875 0l0 -0.375q0 -1.15625 0.6875 -1.8125q0.6875 -0.671875 1.8125 -0.671875q0.453125 0 0.75 0.09375l0 1.671875q-0.0625 -0.015625 -0.234375 -0.0625q-0.171875 -0.0625 -0.40625 -0.0625q-0.390625 0 -0.640625 0.265625q-0.234375 0.25 -0.234375 0.6875l0 0.265625l4.4375 0l0 6.796875l-1.734375 0l0 -5.296875l-2.703125 0l0 5.296875l-1.734375 0l0 -5.296875zm11.053833 8.390625q-1.296875 0 -2.15625 -0.578125q-0.84375 -0.578125 -1.140625 -1.390625l1.640625 -0.671875q0.21875 0.5 0.65625 0.796875q0.4375 0.296875 1.0 0.296875q0.828125 0 1.3125 -0.515625q0.484375 -0.5 0.484375 -1.4375l0 -0.53125l-0.109375 0q-0.3125 0.453125 -0.84375 0.703125q-0.515625 0.234375 -1.171875 0.234375q-0.84375 0 -1.578125 -0.421875q-0.71875 -0.4375 -1.15625 -1.234375q-0.4375 -0.796875 -0.4375 -1.84375q0 -1.0625 0.4375 -1.84375q0.4375 -0.796875 1.15625 -1.234375q0.734375 -0.4375 1.578125 -0.4375q0.65625 0 1.171875 0.25q0.53125 0.234375 0.84375 0.6875l0.109375 0l0 -0.71875l1.6875 0l0 6.328125q0 1.09375 -0.4375 1.890625q-0.421875 0.796875 -1.21875 1.234375q-0.78125 0.4375 -1.828125 0.4375zm0.03125 -4.6875q0.734375 0 1.25 -0.5q0.515625 -0.515625 0.515625 -1.40625q0 -0.921875 -0.515625 -1.421875q-0.5 -0.5 -1.25 -0.5q-0.75 0 -1.28125 0.515625q-0.515625 0.5 -0.515625 1.40625q0 0.90625 0.515625 1.40625q0.53125 0.5 1.28125 0.5zm7.1917114 -7.953125l1.71875 0l-2.890625 9.546875l-1.71875 0l2.890625 -9.546875z"/><path fill="#466bb0" fill-rule="nonzero" d="m629.47955 129.61533l6.046875 0l0 1.703125l-4.25 0l0 2.21875l3.828125 0l0 1.703125l-3.828125 0l0 2.21875l4.25 0l0 1.703125l-6.046875 0l0 -9.546875zm7.5358887 2.75l1.640625 0l0 0.859375l0.09375 0q0.3125 -0.5 0.875 -0.78125q0.5625 -0.296875 1.203125 -0.296875q1.234375 0 1.875 0.75q0.640625 0.75 0.640625 2.046875l0 4.21875l-1.75 0l0 -4.015625q0 -0.65625 -0.34375 -1.015625q-0.328125 -0.359375 -0.921875 -0.359375q-0.703125 0 -1.140625 0.546875q-0.4375 0.546875 -0.4375 1.375l0 3.46875l-1.734375 0l0 -6.796875zm10.8897705 7.015625q-0.90625 0 -1.671875 -0.453125q-0.75 -0.46875 -1.1875 -1.28125q-0.421875 -0.828125 -0.421875 -1.890625q0 -1.03125 0.421875 -1.859375q0.4375 -0.828125 1.1875 -1.28125q0.765625 -0.46875 1.671875 -0.46875q0.703125 0 1.234375 0.3125q0.53125 0.296875 0.8125 0.734375l0.109375 0l-0.109375 -0.96875l0 -2.609375l1.734375 0l0 9.546875l-1.625 0l0 -0.8125l-0.109375 0q-0.265625 0.4375 -0.8125 0.734375q-0.53125 0.296875 -1.234375 0.296875zm0.296875 -1.625q0.5 0 0.921875 -0.25q0.421875 -0.25 0.671875 -0.703125q0.265625 -0.453125 0.265625 -1.046875q0 -0.578125 -0.265625 -1.03125q-0.25 -0.453125 -0.671875 -0.703125q-0.421875 -0.25 -0.921875 -0.25q-0.484375 0 -0.90625 0.25q-0.421875 0.25 -0.6875 0.703125q-0.25 0.453125 -0.25 1.03125q0 0.59375 0.25 1.046875q0.265625 0.453125 0.6875 0.703125q0.421875 0.25 0.90625 0.25zm5.144348 -5.390625l1.640625 0l0 0.828125l0.109375 0q0.28125 -0.4375 0.8125 -0.734375q0.53125 -0.3125 1.21875 -0.3125q0.921875 0 1.671875 0.46875q0.765625 0.453125 1.1875 1.28125q0.421875 0.828125 0.421875 1.859375q0 1.0625 -0.421875 1.890625q-0.421875 0.8125 -1.1875 1.28125q-0.75 0.453125 -1.671875 0.453125q-0.6875 0 -1.234375 -0.296875q-0.53125 -0.296875 -0.796875 -0.734375l-0.109375 0l0.109375 0.953125l0 2.734375l-1.75 0l0 -9.671875zm3.484375 5.390625q0.484375 0 0.90625 -0.25q0.4375 -0.25 0.6875 -0.703125q0.25 -0.453125 0.25 -1.046875q0 -0.578125 -0.25 -1.03125q-0.25 -0.453125 -0.6875 -0.703125q-0.421875 -0.25 -0.90625 -0.25q-0.484375 0 -0.90625 0.25q-0.421875 0.25 -0.6875 0.703125q-0.25 0.453125 -0.25 1.03125q0 0.59375 0.25 1.046875q0.265625 0.453125 0.6875 0.703125q0.421875 0.25 0.90625 0.25zm8.1848755 1.625q-1.0625 0 -1.890625 -0.46875q-0.8125 -0.484375 -1.28125 -1.296875q-0.453125 -0.828125 -0.453125 -1.859375q0 -1.0 0.453125 -1.828125q0.46875 -0.828125 1.28125 -1.296875q0.828125 -0.484375 1.890625 -0.484375q1.03125 0 1.859375 0.484375q0.828125 0.46875 1.28125 1.296875q0.46875 0.828125 0.46875 1.828125q0 1.03125 -0.46875 1.859375q-0.453125 0.8125 -1.28125 1.296875q-0.828125 0.46875 -1.859375 0.46875zm0 -1.625q0.5 0 0.921875 -0.234375q0.4375 -0.234375 0.6875 -0.6875q0.25 -0.453125 0.25 -1.078125q0 -0.59375 -0.25 -1.046875q-0.25 -0.453125 -0.6875 -0.6875q-0.421875 -0.25 -0.921875 -0.25q-0.515625 0 -0.9375 0.25q-0.421875 0.234375 -0.6875 0.6875q-0.265625 0.453125 -0.265625 1.046875q0 0.609375 0.265625 1.078125q0.265625 0.453125 0.6875 0.6875q0.421875 0.234375 0.9375 0.234375zm5.7977905 -6.140625q-0.46875 0 -0.8125 -0.328125q-0.328125 -0.328125 -0.328125 -0.796875q0 -0.46875 0.328125 -0.796875q0.34375 -0.328125 0.8125 -0.328125q0.46875 0 0.78125 0.328125q0.328125 0.328125 0.328125 0.796875q0 0.46875 -0.328125 0.796875q-0.3125 0.328125 -0.78125 0.328125zm-0.890625 0.75l1.75 0l0 6.796875l-1.75 0l0 -6.796875zm3.5714722 0l1.640625 0l0 0.859375l0.09375 0q0.3125 -0.5 0.875 -0.78125q0.5625 -0.296875 1.203125 -0.296875q1.234375 0 1.875 0.75q0.640625 0.75 0.640625 2.046875l0 4.21875l-1.75 0l0 -4.015625q0 -0.65625 -0.34375 -1.015625q-0.328125 -0.359375 -0.921875 -0.359375q-0.703125 0 -1.140625 0.546875q-0.4375 0.546875 -0.4375 1.375l0 3.46875l-1.734375 0l0 -6.796875zm10.6033325 6.90625q-0.5 0 -0.9375 -0.15625q-0.421875 -0.15625 -0.6875 -0.421875q-0.625 -0.59375 -0.625 -1.703125l0 -3.125l-1.1875 0l0 -1.5l1.1875 0l0 -1.921875l1.75 0l0 1.921875l1.65625 0l0 1.5l-1.65625 0l0 2.796875q0 0.53125 0.21875 0.75q0.1875 0.21875 0.640625 0.21875q0.25 0 0.421875 -0.0625q0.171875 -0.078125 0.4375 -0.234375l0 1.703125q-0.578125 0.234375 -1.21875 0.234375zm5.329468 0.109375q-1.234375 0 -2.0 -0.5q-0.765625 -0.515625 -1.078125 -1.328125l1.5625 -0.6875q0.203125 0.484375 0.59375 0.734375q0.40625 0.25 0.921875 0.25q0.484375 0 0.796875 -0.15625q0.328125 -0.15625 0.328125 -0.5q0 -0.34375 -0.296875 -0.5q-0.296875 -0.171875 -0.875 -0.296875l-0.8125 -0.1875q-0.8125 -0.1875 -1.359375 -0.71875q-0.546875 -0.53125 -0.546875 -1.3125q0 -0.59375 0.34375 -1.046875q0.359375 -0.46875 0.953125 -0.71875q0.609375 -0.265625 1.34375 -0.265625q2.109375 0 2.8125 1.484375l-1.484375 0.65625q-0.40625 -0.71875 -1.28125 -0.71875q-0.453125 0 -0.71875 0.171875q-0.265625 0.15625 -0.265625 0.40625q0 0.484375 0.90625 0.71875l1.0 0.25q1.015625 0.25 1.515625 0.765625q0.515625 0.515625 0.515625 1.28125q0 0.65625 -0.375 1.15625q-0.375 0.5 -1.046875 0.78125q-0.65625 0.28125 -1.453125 0.28125z"/><path fill="#e6e6e6" fill-rule="evenodd" d="m419.6714 459.9777l-0.65774536 0.060180664l-1.1964111 0.40496826l-0.8581848 0.8099365l-0.5324402 1.0397644l-0.06265259 0.57458496l0 63.617126l0.06265259 0.5800781l0.5324402 1.0397949l0.8581848 0.8098755l1.1964111 0.40496826l0.65774536 0.054748535l142.25641 0l0.6639404 -0.054748535l1.1901855 -0.40496826l0.927063 -0.8098755l0.463562 -1.0397949l0.06890869 -0.5800781l0 -63.617126l-0.06890869 -0.57458496l-0.463562 -1.0397644l-0.927063 -0.8099365l-1.1901855 -0.40496826l-0.6639404 -0.060180664z"/><path fill="#fff" fill-rule="evenodd" d="m428.09518 468.6496l126.04727 0l0 52.06299l-126.04727 0z"/><path fill="#000" fill-rule="nonzero" d="m481.97867 500.7911q-0.875 0 -1.6875 -0.359375q-0.796875 -0.359375 -1.421875 -1.046875q-0.625 -0.703125 -0.890625 -1.6875l1.296875 -0.53125q0.265625 1.015625 1.0 1.671875q0.734375 0.65625 1.734375 0.65625q0.984375 0 1.671875 -0.53125q0.6875 -0.53125 0.6875 -1.46875q0 -0.796875 -0.578125 -1.3125q-0.578125 -0.515625 -1.90625 -0.96875l-0.734375 -0.25q-1.203125 -0.4375 -1.984375 -1.140625q-0.765625 -0.703125 -0.765625 -1.953125q0 -0.8125 0.453125 -1.5q0.453125 -0.703125 1.25 -1.125q0.796875 -0.421875 1.796875 -0.421875q0.984375 0 1.71875 0.375q0.734375 0.375 1.171875 0.90625q0.453125 0.515625 0.625 1.03125l-1.265625 0.546875q-0.171875 -0.59375 -0.75 -1.078125q-0.5625 -0.484375 -1.484375 -0.484375q-0.890625 0 -1.515625 0.5q-0.625 0.5 -0.625 1.25q0 0.671875 0.53125 1.09375q0.53125 0.421875 1.609375 0.796875l0.75 0.25q1.453125 0.53125 2.265625 1.328125q0.8125 0.78125 0.8125 2.140625q0 1.109375 -0.5625 1.859375q-0.5625 0.75 -1.4375 1.109375q-0.859375 0.34375 -1.765625 0.34375zm9.148254 0q-1.171875 0 -2.109375 -0.546875q-0.921875 -0.5625 -1.4375 -1.546875q-0.515625 -0.984375 -0.515625 -2.21875q0 -1.171875 0.484375 -2.171875q0.484375 -1.0 1.390625 -1.59375q0.90625 -0.59375 2.078125 -0.59375q1.203125 0 2.078125 0.546875q0.875 0.53125 1.34375 1.484375q0.484375 0.9375 0.484375 2.15625q0 0.1875 -0.03125 0.40625l-6.46875 0q0.046875 0.9375 0.4375 1.578125q0.40625 0.640625 1.015625 0.96875q0.625 0.3125 1.296875 0.3125q1.59375 0 2.421875 -1.484375l1.140625 0.5625q-0.5 0.984375 -1.421875 1.5625q-0.90625 0.578125 -2.1875 0.578125zm2.34375 -5.1875q-0.03125 -0.515625 -0.28125 -1.03125q-0.25 -0.515625 -0.796875 -0.859375q-0.546875 -0.359375 -1.375 -0.359375q-0.96875 0 -1.640625 0.625q-0.671875 0.609375 -0.875 1.625l4.96875 0zm3.0392761 -3.21875l1.28125 0l0 1.3125l0.078125 0q0.234375 -0.671875 0.921875 -1.109375q0.6875 -0.453125 1.4375 -0.453125q0.5625 0 0.96875 0.171875l0 1.46875q-0.515625 -0.265625 -1.15625 -0.265625q-0.59375 0 -1.09375 0.34375q-0.5 0.328125 -0.796875 0.90625q-0.28125 0.5625 -0.28125 1.21875l0 4.5625l-1.359375 0l0 -8.15625zm5.365753 0l1.453125 0l2.53125 6.5625l0.03125 0l2.5625 -6.5625l1.421875 0l-3.328125 8.15625l-1.375 0l-3.296875 -8.15625zm9.927155 -1.5q-0.40625 0 -0.703125 -0.28125q-0.28125 -0.296875 -0.28125 -0.703125q0 -0.421875 0.28125 -0.6875q0.296875 -0.28125 0.703125 -0.28125q0.40625 0 0.6875 0.28125q0.28125 0.265625 0.28125 0.6875q0 0.40625 -0.28125 0.703125q-0.28125 0.28125 -0.6875 0.28125zm-0.671875 1.5l1.359375 0l0 8.15625l-1.359375 0l0 -8.15625zm7.0985107 8.40625q-1.1875 0 -2.140625 -0.5625q-0.9375 -0.5625 -1.46875 -1.546875q-0.515625 -0.984375 -0.515625 -2.21875q0 -1.234375 0.515625 -2.21875q0.53125 -1.0 1.46875 -1.5625q0.953125 -0.5625 2.140625 -0.5625q1.328125 0 2.234375 0.625q0.90625 0.609375 1.28125 1.640625l-1.234375 0.515625q-0.296875 -0.765625 -0.90625 -1.15625q-0.59375 -0.390625 -1.4375 -0.390625q-0.71875 0 -1.34375 0.390625q-0.625 0.390625 -1.0 1.109375q-0.375 0.703125 -0.375 1.609375q0 0.90625 0.375 1.609375q0.375 0.703125 1.0 1.109375q0.625 0.390625 1.34375 0.390625q0.859375 0 1.484375 -0.40625q0.625 -0.40625 0.9375 -1.140625l1.203125 0.515625q-0.40625 1.015625 -1.328125 1.640625q-0.921875 0.609375 -2.234375 0.609375zm8.593506 0q-1.171875 0 -2.109375 -0.546875q-0.921875 -0.5625 -1.4375 -1.546875q-0.515625 -0.984375 -0.515625 -2.21875q0 -1.171875 0.484375 -2.171875q0.484375 -1.0 1.390625 -1.59375q0.90625 -0.59375 2.078125 -0.59375q1.203125 0 2.078125 0.546875q0.875 0.53125 1.34375 1.484375q0.484375 0.9375 0.484375 2.15625q0 0.1875 -0.03125 0.40625l-6.46875 0q0.046875 0.9375 0.4375 1.578125q0.40625 0.640625 1.015625 0.96875q0.625 0.3125 1.296875 0.3125q1.59375 0 2.421875 -1.484375l1.140625 0.5625q-0.5 0.984375 -1.421875 1.5625q-0.90625 0.578125 -2.1875 0.578125zm2.34375 -5.1875q-0.03125 -0.515625 -0.28125 -1.03125q-0.25 -0.515625 -0.796875 -0.859375q-0.546875 -0.359375 -1.375 -0.359375q-0.96875 0 -1.640625 0.625q-0.671875 0.609375 -0.875 1.625l4.96875 0zm2.0236206 4.9375l0 0zm7.8258057 -11.453125l1.53125 0l4.359375 11.453125l-1.5 0l-1.140625 -3.15625l-4.96875 0l-1.140625 3.15625l-1.5 0l4.359375 -11.453125zm2.78125 7.015625l-1.53125 -4.125l-0.453125 -1.234375l-0.0625 0l-0.453125 1.234375l-1.53125 4.125l4.03125 0z"/><path fill="#767576" fill-rule="evenodd" d="m447.96176 477.3299l-1.905426 0.054718018l-3.6249084 0.6950073l-3.2531433 1.3298035l-2.945282 1.8496704l-2.5153503 2.3695679l-1.9635315 2.7799988l-1.4116211 3.0645752l-0.73776245 3.4093323l-0.06390381 1.7949524l0.06390381 1.7949829l0.73776245 3.349121l1.4116211 3.1247559l1.9635315 2.7745361l2.5153503 2.3750305l2.945282 1.8497009l3.2531433 1.3298035l3.6249084 0.6949768l1.905426 0.054718018l1.8995972 -0.054718018l3.5610352 -0.6949768l3.317047 -1.3298035l2.9452515 -1.8497009l2.5153809 -2.3750305l1.963501 -2.7745361l1.4116516 -3.1247559l0.73776245 -3.349121l0.06390381 -1.7949829l-0.06390381 -1.7949524l-0.73776245 -3.4093323l-1.4116516 -3.0645752l-1.963501 -2.7799988l-2.5153809 -2.3695679l-2.9452515 -1.8496704l-3.317047 -1.3298035l-3.5610352 -0.6950073l-1.8995972 -0.054718018z"/><path fill="#000" fill-opacity="0" fill-rule="evenodd" d="m454.468 500.69162l-13.076477 0l0 -12.318481l13.076477 0l0 12.318481z"/><path fill-rule="evenodd" stroke="#fff" stroke-linecap="butt" stroke-linejoin="round" stroke-width=".916" d="m454.468 500.69162l-13.076477 0l0 -12.318481l13.076477 0l0 12.318481z"/><path fill="#000" fill-opacity="0" fill-rule="evenodd" d="m443.843 488.37317l0 -2.949646"/><path fill-rule="evenodd" stroke="#fff" stroke-linecap="round" stroke-miterlimit="105.678" stroke-width=".916" d="m443.843 488.37317l0 -2.949646"/><path fill="#000" fill-opacity="0" fill-rule="evenodd" d="m447.96167 488.37317l0 -2.949646"/><path fill-rule="evenodd" stroke="#fff" stroke-linecap="round" stroke-miterlimit="105.678" stroke-width=".916" d="m447.96167 488.37317l0 -2.949646"/><path fill="#000" fill-opacity="0" fill-rule="evenodd" d="m452.07455 488.37317l0 -2.949646"/><path fill-rule="evenodd" stroke="#fff" stroke-linecap="round" stroke-miterlimit="105.678" stroke-width=".916" d="m452.07455 488.37317l0 -2.949646"/><path fill="#000" fill-opacity="0" fill-rule="evenodd" d="m443.843 503.93112l0 -3.0098267"/><path fill-rule="evenodd" stroke="#fff" stroke-linecap="round" stroke-miterlimit="105.678" stroke-width=".916" d="m443.843 503.93112l0 -3.0098267"/><path fill="#000" fill-opacity="0" fill-rule="evenodd" d="m447.96167 503.93112l0 -3.0098267"/><path fill-rule="evenodd" stroke="#fff" stroke-linecap="round" stroke-miterlimit="105.678" stroke-width=".916" d="m447.96167 503.93112l0 -3.0098267"/><path fill="#000" fill-opacity="0" fill-rule="evenodd" d="m452.07455 503.93112l0 -3.0098267"/><path fill-rule="evenodd" stroke="#fff" stroke-linecap="round" stroke-miterlimit="105.678" stroke-width=".916" d="m452.07455 503.93112l0 -3.0098267"/><path fill="#000" fill-opacity="0" fill-rule="evenodd" d="m441.26953 498.55176l-3.131134 0"/><path fill-rule="evenodd" stroke="#fff" stroke-linecap="round" stroke-miterlimit="105.678" stroke-width=".916" d="m441.26953 498.55176l-3.131134 0"/><path fill="#000" fill-opacity="0" fill-rule="evenodd" d="m441.26953 494.6773l-3.131134 0"/><path fill-rule="evenodd" stroke="#fff" stroke-linecap="round" stroke-miterlimit="105.678" stroke-width=".916" d="m441.26953 494.6773l-3.131134 0"/><path fill="#000" fill-opacity="0" fill-rule="evenodd" d="m441.26953 490.8029l-3.131134 0"/><path fill-rule="evenodd" stroke="#fff" stroke-linecap="round" stroke-miterlimit="105.678" stroke-width=".916" d="m441.26953 490.8029l-3.131134 0"/><path fill="#000" fill-opacity="0" fill-rule="evenodd" d="m457.77917 498.55176l-3.1892395 0"/><path fill-rule="evenodd" stroke="#fff" stroke-linecap="round" stroke-miterlimit="105.678" stroke-width=".916" d="m457.77917 498.55176l-3.1892395 0"/><path fill="#000" fill-opacity="0" fill-rule="evenodd" d="m457.77917 494.6773l-3.1892395 0"/><path fill-rule="evenodd" stroke="#fff" stroke-linecap="round" stroke-miterlimit="105.678" stroke-width=".916" d="m457.77917 494.6773l-3.1892395 0"/><path fill="#000" fill-opacity="0" fill-rule="evenodd" d="m457.77917 490.8029l-3.1892395 0"/><path fill-rule="evenodd" stroke="#fff" stroke-linecap="round" stroke-miterlimit="105.678" stroke-width=".916" d="m457.77917 490.8029l-3.1892395 0"/><path fill="#fff" fill-rule="evenodd" d="m447.10193 491.7879l-0.4298706 0.054718018l-0.73776245 0.29003906l-0.5518799 0.51989746l-0.30789185 0.6949768l0 0.40496826l0 1.6198425l0 0.40496826l0.30789185 0.6950073l0.5518799 0.51986694l0.73776245 0.28457642l2.5734558 0l0.73776245 -0.28457642l0.5518799 -0.51986694l0.30789185 -0.6950073l0 -0.40496826l0 -1.6198425l0 -0.40496826l-0.30789185 -0.6949768l-0.5518799 -0.51989746l-0.73776245 -0.29003906l-0.4298706 -0.054718018z"/><path fill="#e6e6e6" fill-rule="evenodd" d="m156.10434 459.6059l-0.57733154 0.060821533l-1.0501709 0.40930176l-0.7532654 0.8186035l-0.46736145 1.0509033l-0.054977417 0.5863037l0 64.29343l0.054977417 0.5863037l0.46736145 1.0509033l0.7532654 0.8186035l1.0501709 0.40930176l0.57733154 0.06085205l124.87204 0l0.57733154 -0.06085205l1.0446777 -0.40930176l0.75875854 -0.8186035l0.46188354 -1.0509033l0.060455322 -0.5863037l0 -64.29343l-0.060455322 -0.5863037l-0.46188354 -1.0509033l-0.75875854 -0.8186035l-1.0446777 -0.40930176l-0.57733154 -0.060821533z"/><path fill="#fff" fill-rule="evenodd" d="m163.81282 468.3751l-0.6470642 0.06085205l-1.0598755 0.40927124l-0.76420593 0.818573l-0.4741516 1.0508423l0 0.5862732l0 46.757507l0 0.5862427l0.4741516 1.0508423l0.76420593 0.8186035l1.0598755 0.40924072l0.6470642 0.05529785l109.0598 0l0.5912781 -0.05529785l1.0598755 -0.40924072l0.7642212 -0.8186035l0.4741516 -1.0508423l0.055755615 -0.5862427l0 -46.757507l-0.055755615 -0.5862732l-0.4741516 -1.0508423l-0.7642212 -0.818573l-1.0598755 -0.40927124l-0.5912781 -0.06085205z"/><path fill="#466bb0" fill-rule="evenodd" d="m172.5718 509.7575l8.792984 5.027771l14.616287 -5.027771z"/><path fill="#466bb0" fill-rule="evenodd" d="m181.36478 487.95947l-8.792984 20.1055l8.792984 -1.6980286l0 -18.40747z"/><path fill="#476baf" fill-rule="evenodd" d="m182.79642 474.57422l0 31.792725l13.184647 1.6980286l-13.184647 -33.490753z"/><path fill="#000" fill-opacity="0" fill-rule="evenodd" d="m188.80252 480.11346l85.219635 0l0 29.132965l-85.219635 0z"/><path fill="#000" fill-rule="nonzero" d="m205.90854 500.78995q-1.609375 0 -2.984375 -0.78125q-1.359375 -0.78125 -2.15625 -2.15625q-0.796875 -1.375 -0.796875 -3.046875q0 -1.65625 0.796875 -3.03125q0.796875 -1.375 2.15625 -2.15625q1.375 -0.796875 2.984375 -0.796875q1.265625 0 2.375 0.453125q1.109375 0.453125 1.828125 1.265625l-0.953125 0.96875q-0.5625 -0.671875 -1.421875 -1.03125q-0.84375 -0.359375 -1.8125 -0.359375q-1.203125 0 -2.265625 0.59375q-1.046875 0.578125 -1.6875 1.640625q-0.625 1.0625 -0.625 2.453125q0 1.390625 0.625 2.46875q0.640625 1.0625 1.6875 1.640625q1.0625 0.578125 2.265625 0.578125q1.15625 0 1.921875 -0.359375q0.78125 -0.359375 1.34375 -0.953125q0.421875 -0.4375 0.671875 -1.0625q0.25 -0.640625 0.3125 -1.40625l-4.234375 0l0 -1.265625l5.5 0q0.078125 0.453125 0.078125 0.828125q0 1.0625 -0.34375 2.0625q-0.328125 1.0 -1.0625 1.75q-1.578125 1.703125 -4.203125 1.703125zm9.721146 0q-0.890625 0 -1.59375 -0.34375q-0.703125 -0.359375 -1.09375 -0.96875q-0.375 -0.625 -0.375 -1.40625q0 -1.296875 0.96875 -2.015625q0.984375 -0.734375 2.46875 -0.734375q0.734375 0 1.359375 0.171875q0.640625 0.15625 0.96875 0.359375l0 -0.5q0 -0.90625 -0.640625 -1.453125q-0.625 -0.5625 -1.609375 -0.5625q-0.671875 0 -1.265625 0.296875q-0.578125 0.296875 -0.90625 0.828125l-1.03125 -0.765625q0.484375 -0.734375 1.328125 -1.15625q0.859375 -0.421875 1.875 -0.421875q1.671875 0 2.609375 0.875q0.9375 0.875 0.9375 2.375l0 5.171875l-1.296875 0l0 -1.171875l-0.0625 0q-0.34375 0.59375 -1.046875 1.015625q-0.703125 0.40625 -1.59375 0.40625zm0.140625 -1.1875q0.6875 0 1.265625 -0.34375q0.59375 -0.359375 0.9375 -0.953125q0.359375 -0.59375 0.359375 -1.296875q-0.375 -0.265625 -0.9375 -0.421875q-0.5625 -0.15625 -1.1875 -0.15625q-1.109375 0 -1.6875 0.46875q-0.5625 0.453125 -0.5625 1.1875q0 0.671875 0.5 1.09375q0.515625 0.421875 1.3125 0.421875zm8.726639 1.0625q-0.5 0 -0.921875 -0.15625q-0.421875 -0.15625 -0.703125 -0.4375q-0.640625 -0.609375 -0.640625 -1.671875l0 -4.78125l-1.421875 0l0 -1.234375l1.421875 0l0 -2.3125l1.359375 0l0 2.3125l2.0 0l0 1.234375l-2.0 0l0 4.4375q0 0.671875 0.25 1.0q0.3125 0.34375 0.890625 0.34375q0.484375 0 0.890625 -0.265625l0 1.328125q-0.234375 0.109375 -0.484375 0.15625q-0.25 0.046875 -0.640625 0.046875zm6.004013 0.125q-1.171875 0 -2.109375 -0.546875q-0.921875 -0.5625 -1.4375 -1.546875q-0.515625 -0.984375 -0.515625 -2.21875q0 -1.171875 0.484375 -2.171875q0.484375 -1.0 1.390625 -1.59375q0.90625 -0.59375 2.078125 -0.59375q1.203125 0 2.078125 0.546875q0.875 0.53125 1.34375 1.484375q0.484375 0.9375 0.484375 2.15625q0 0.1875 -0.03125 0.40625l-6.46875 0q0.046875 0.9375 0.4375 1.578125q0.40625 0.640625 1.015625 0.96875q0.625 0.3125 1.296875 0.3125q1.59375 0 2.421875 -1.484375l1.140625 0.5625q-0.5 0.984375 -1.421875 1.5625q-0.90625 0.578125 -2.1875 0.578125zm2.34375 -5.1875q-0.03125 -0.515625 -0.28125 -1.03125q-0.25 -0.515625 -0.796875 -0.859375q-0.546875 -0.359375 -1.375 -0.359375q-0.96875 0 -1.640625 0.625q-0.671875 0.609375 -0.875 1.625l4.96875 0zm1.9730072 -3.21875l1.40625 0l1.9375 6.4375l0.015625 0l2.0625 -6.4375l1.390625 0l2.0625 6.421875l0.03125 0l1.921875 -6.421875l1.375 0l-2.625 8.15625l-1.390625 0l-2.109375 -6.515625l-2.09375 6.515625l-1.359375 0l-2.625 -8.15625zm15.772018 8.40625q-0.890625 0 -1.59375 -0.34375q-0.703125 -0.359375 -1.09375 -0.96875q-0.375 -0.625 -0.375 -1.40625q0 -1.296875 0.96875 -2.015625q0.984375 -0.734375 2.46875 -0.734375q0.734375 0 1.359375 0.171875q0.640625 0.15625 0.96875 0.359375l0 -0.5q0 -0.90625 -0.640625 -1.453125q-0.625 -0.5625 -1.609375 -0.5625q-0.671875 0 -1.265625 0.296875q-0.578125 0.296875 -0.90625 0.828125l-1.03125 -0.765625q0.484375 -0.734375 1.328125 -1.15625q0.859375 -0.421875 1.875 -0.421875q1.671875 0 2.609375 0.875q0.9375 0.875 0.9375 2.375l0 5.171875l-1.296875 0l0 -1.171875l-0.0625 0q-0.34375 0.59375 -1.046875 1.015625q-0.703125 0.40625 -1.59375 0.40625zm0.140625 -1.1875q0.6875 0 1.265625 -0.34375q0.59375 -0.359375 0.9375 -0.953125q0.359375 -0.59375 0.359375 -1.296875q-0.375 -0.265625 -0.9375 -0.421875q-0.5625 -0.15625 -1.1875 -0.15625q-1.109375 0 -1.6875 0.46875q-0.5625 0.453125 -0.5625 1.1875q0 0.671875 0.5 1.09375q0.515625 0.421875 1.3125 0.421875zm8.086014 0.421875l-3.375 -7.640625l1.46875 0l2.5625 6.0625l0.03125 0l2.46875 -6.0625l1.46875 0l-5.03125 11.609375l-1.40625 0l1.8125 -3.96875z"/><path fill="#e6e6e6" fill-rule="evenodd" d="m432.7606 112.27418l-0.5768738 0.05962372l-1.049408 0.40106964l-0.75271606 0.8021469l-0.46704102 1.0297775l-0.05493164 0.57450867l0 63.00074l0.05493164 0.57450867l0.46704102 1.0297852l0.75271606 0.8021393l1.049408 0.40107727l0.5768738 0.05961609l124.78061 0l0.5769043 -0.05961609l1.0438843 -0.40107727l0.75823975 -0.8021393l0.46148682 -1.0297852l0.060424805 -0.57450867l0 -63.00074l-0.060424805 -0.57450867l-0.46148682 -1.0297775l-0.75823975 -0.8021469l-1.0438843 -0.40106964l-0.5769043 -0.05962372z"/><path fill="#fff" fill-rule="evenodd" d="m441.46902 120.8647l-0.6373291 0.05961609l-1.0439148 0.40107727l-0.75271606 0.8021393l-0.4670105 1.0297775l0 0.57450867l0 45.81971l0 0.57450867l0.4670105 1.0297852l0.75271606 0.8021393l1.0439148 0.401062l0.6373291 0.05419922l107.41867 0l0.58239746 -0.05419922l1.0438843 -0.401062l0.7527466 -0.8021393l0.46697998 -1.0297852l0.054992676 -0.57450867l0 -45.81971l-0.054992676 -0.57450867l-0.46697998 -1.0297775l-0.7527466 -0.8021393l-1.0438843 -0.40107727l-0.58239746 -0.05961609z"/><path fill="#466bb0" fill-rule="evenodd" d="m451.8642 161.41628l9.988617 4.9266815l16.603699 -4.9266815z"/><path fill="#466bb0" fill-rule="evenodd" d="m461.8528 140.05652l-9.988617 19.701279l9.988617 -1.6639099l0 -18.037369z"/><path fill="#476baf" fill-rule="evenodd" d="m463.47913 126.94039l0 31.153496l14.977386 1.6639099l-14.977386 -32.817406z"/><path fill="#000" fill-opacity="0" fill-rule="evenodd" d="m470.30225 132.36569l81.4837 0l0 28.547241l-81.4837 0z"/><path fill="#000" fill-rule="nonzero" d="m483.46127 131.54619l6.625 0l0 1.296875l-5.265625 0l0 3.78125l4.75 0l0 1.28125l-4.75 0l0 3.796875l5.265625 0l0 1.296875l-6.625 0l0 -11.453125zm10.468536 7.3125l-2.828125 -4.015625l1.546875 0l2.09375 3.015625l2.03125 -3.015625l1.59375 0l-2.859375 4.015625l2.90625 4.140625l-1.578125 0l-2.109375 -3.140625l-2.09375 3.140625l-1.59375 0l2.890625 -4.140625zm8.838898 4.265625q-0.5 0 -0.921875 -0.15625q-0.421875 -0.15625 -0.703125 -0.4375q-0.640625 -0.609375 -0.640625 -1.671875l0 -4.78125l-1.421875 0l0 -1.234375l1.421875 0l0 -2.3125l1.359375 0l0 2.3125l2.0 0l0 1.234375l-2.0 0l0 4.4375q0 0.671875 0.25 1.0q0.3125 0.34375 0.890625 0.34375q0.484375 0 0.890625 -0.265625l0 1.328125q-0.234375 0.109375 -0.484375 0.15625q-0.25 0.046875 -0.640625 0.046875zm6.003998 0.125q-1.171875 0 -2.109375 -0.546875q-0.921875 -0.5625 -1.4375 -1.546875q-0.515625 -0.984375 -0.515625 -2.21875q0 -1.171875 0.484375 -2.171875q0.484375 -1.0 1.390625 -1.59375q0.90625 -0.59375 2.078125 -0.59375q1.203125 0 2.078125 0.546875q0.875 0.53125 1.34375 1.484375q0.484375 0.9375 0.484375 2.15625q0 0.1875 -0.03125 0.40625l-6.46875 0q0.046875 0.9375 0.4375 1.578125q0.40625 0.640625 1.015625 0.96875q0.625 0.3125 1.296875 0.3125q1.59375 0 2.421875 -1.484375l1.140625 0.5625q-0.5 0.984375 -1.421875 1.5625q-0.90625 0.578125 -2.1875 0.578125zm2.34375 -5.1875q-0.03125 -0.515625 -0.28125 -1.03125q-0.25 -0.515625 -0.796875 -0.859375q-0.546875 -0.359375 -1.375 -0.359375q-0.96875 0 -1.640625 0.625q-0.671875 0.609375 -0.875 1.625l4.96875 0zm3.0392456 -3.21875l1.28125 0l0 1.3125l0.078125 0q0.234375 -0.671875 0.921875 -1.109375q0.6875 -0.453125 1.4375 -0.453125q0.5625 0 0.96875 0.171875l0 1.46875q-0.515625 -0.265625 -1.15625 -0.265625q-0.59375 0 -1.09375 0.34375q-0.5 0.328125 -0.796875 0.90625q-0.28125 0.5625 -0.28125 1.21875l0 4.5625l-1.359375 0l0 -8.15625zm6.000061 0l1.28125 0l0 1.203125l0.078125 0q0.328125 -0.609375 1.0625 -1.03125q0.734375 -0.4375 1.578125 -0.4375q1.46875 0 2.234375 0.859375q0.78125 0.859375 0.78125 2.328125l0 5.234375l-1.359375 0l0 -5.03125q0 -1.125 -0.546875 -1.640625q-0.546875 -0.515625 -1.484375 -0.515625q-0.65625 0 -1.1875 0.375q-0.515625 0.359375 -0.796875 0.96875q-0.28125 0.59375 -0.28125 1.25l0 4.59375l-1.359375 0l0 -8.15625zm11.489746 8.40625q-0.890625 0 -1.59375 -0.34375q-0.703125 -0.359375 -1.09375 -0.96875q-0.375 -0.625 -0.375 -1.40625q0 -1.296875 0.96875 -2.015625q0.984375 -0.734375 2.46875 -0.734375q0.734375 0 1.359375 0.171875q0.640625 0.15625 0.96875 0.359375l0 -0.5q0 -0.90625 -0.640625 -1.453125q-0.625 -0.5625 -1.609375 -0.5625q-0.671875 0 -1.265625 0.296875q-0.578125 0.296875 -0.90625 0.828125l-1.03125 -0.765625q0.484375 -0.734375 1.328125 -1.15625q0.859375 -0.421875 1.875 -0.421875q1.671875 0 2.609375 0.875q0.9375 0.875 0.9375 2.375l0 5.171875l-1.296875 0l0 -1.171875l-0.0625 0q-0.34375 0.59375 -1.046875 1.015625q-0.703125 0.40625 -1.59375 0.40625zm0.140625 -1.1875q0.6875 0 1.265625 -0.34375q0.59375 -0.359375 0.9375 -0.953125q0.359375 -0.59375 0.359375 -1.296875q-0.375 -0.265625 -0.9375 -0.421875q-0.5625 -0.15625 -1.1875 -0.15625q-1.109375 0 -1.6875 0.46875q-0.5625 0.453125 -0.5625 1.1875q0 0.671875 0.5 1.09375q0.515625 0.421875 1.3125 0.421875zm5.7616577 -10.515625l1.359375 0l0 11.453125l-1.359375 0l0 -11.453125z"/><path fill="#000" fill-rule="nonzero" d="m492.3013 150.54619l1.359375 0l0 11.453125l-1.359375 0l0 -11.453125zm6.4981384 11.703125q-1.3125 0 -2.203125 -0.609375q-0.875 -0.609375 -1.234375 -1.578125l1.203125 -0.546875q0.3125 0.734375 0.90625 1.140625q0.609375 0.40625 1.328125 0.40625q0.765625 0 1.3125 -0.3125q0.546875 -0.3125 0.546875 -0.890625q0 -0.515625 -0.4375 -0.828125q-0.4375 -0.3125 -1.359375 -0.53125l-1.0 -0.265625q-0.96875 -0.234375 -1.59375 -0.8125q-0.625 -0.578125 -0.625 -1.484375q0 -0.703125 0.421875 -1.234375q0.421875 -0.546875 1.125 -0.828125q0.703125 -0.296875 1.53125 -0.296875q1.0625 0 1.90625 0.46875q0.84375 0.46875 1.1875 1.296875l-1.171875 0.546875q-0.546875 -1.09375 -1.9375 -1.09375q-0.671875 0 -1.1875 0.3125q-0.5 0.3125 -0.5 0.796875q0 0.453125 0.34375 0.734375q0.359375 0.265625 1.0625 0.453125l1.1875 0.296875q1.203125 0.3125 1.8125 0.90625q0.609375 0.59375 0.609375 1.46875q0 0.75 -0.4375 1.3125q-0.4375 0.5625 -1.171875 0.875q-0.734375 0.296875 -1.625 0.296875zm7.7692566 -0.125q-0.5 0 -0.921875 -0.15625q-0.421875 -0.15625 -0.703125 -0.4375q-0.640625 -0.609375 -0.640625 -1.671875l0 -4.78125l-1.421875 0l0 -1.234375l1.421875 0l0 -2.3125l1.359375 0l0 2.3125l2.0 0l0 1.234375l-2.0 0l0 4.4375q0 0.671875 0.25 1.0q0.3125 0.34375 0.890625 0.34375q0.484375 0 0.890625 -0.265625l0 1.328125q-0.234375 0.109375 -0.484375 0.15625q-0.25 0.046875 -0.640625 0.046875zm3.6078796 -9.78125q-0.40625 0 -0.703125 -0.28125q-0.28125 -0.296875 -0.28125 -0.703125q0 -0.421875 0.28125 -0.6875q0.296875 -0.28125 0.703125 -0.28125q0.40625 0 0.6875 0.28125q0.28125 0.265625 0.28125 0.6875q0 0.40625 -0.28125 0.703125q-0.28125 0.28125 -0.6875 0.28125zm-0.671875 1.5l1.359375 0l0 8.15625l-1.359375 0l0 -8.15625zm7.1610107 8.40625q-1.203125 0 -2.171875 -0.5625q-0.953125 -0.578125 -1.484375 -1.5625q-0.53125 -1.0 -0.53125 -2.203125q0 -1.203125 0.53125 -2.1875q0.53125 -1.0 1.484375 -1.578125q0.96875 -0.578125 2.171875 -0.578125q1.203125 0 2.15625 0.578125q0.96875 0.578125 1.5 1.578125q0.53125 0.984375 0.53125 2.1875q0 1.203125 -0.53125 2.203125q-0.53125 0.984375 -1.5 1.5625q-0.953125 0.5625 -2.15625 0.5625zm0 -1.21875q0.75 0 1.390625 -0.375q0.65625 -0.390625 1.046875 -1.09375q0.390625 -0.703125 0.390625 -1.640625q0 -0.953125 -0.390625 -1.65625q-0.390625 -0.703125 -1.046875 -1.078125q-0.640625 -0.375 -1.390625 -0.375q-0.75 0 -1.40625 0.375q-0.65625 0.375 -1.046875 1.078125q-0.390625 0.703125 -0.390625 1.65625q0 0.9375 0.390625 1.640625q0.390625 0.703125 1.046875 1.09375q0.65625 0.375 1.40625 0.375zm9.254761 1.21875q-1.109375 0 -2.0 -0.546875q-0.890625 -0.5625 -1.40625 -1.546875q-0.5 -0.984375 -0.5 -2.234375q0 -1.234375 0.5 -2.21875q0.515625 -1.0 1.40625 -1.5625q0.890625 -0.5625 2.0 -0.5625q0.921875 0 1.65625 0.4375q0.734375 0.421875 1.125 1.046875l0.0625 0l-0.0625 -1.140625l0 -3.375l1.359375 0l0 11.453125l-1.296875 0l0 -1.203125l-0.0625 0q-0.390625 0.609375 -1.125 1.03125q-0.734375 0.421875 -1.65625 0.421875zm0.140625 -1.21875q0.71875 0 1.328125 -0.390625q0.625 -0.390625 1.0 -1.09375q0.375 -0.703125 0.375 -1.625q0 -0.9375 -0.375 -1.640625q-0.375 -0.703125 -1.0 -1.078125q-0.609375 -0.390625 -1.328125 -0.390625q-0.703125 0 -1.328125 0.390625q-0.625 0.375 -1.0 1.09375q-0.375 0.71875 -0.375 1.625q0 0.90625 0.375 1.625q0.375 0.703125 1.0 1.09375q0.625 0.390625 1.328125 0.390625z"/><path fill="#e6e6e6" fill-rule="evenodd" d="m430.6126 216.83817l-0.577301 0.06085205l-1.0502014 0.40930176l-0.7532654 0.81858826l-0.4673462 1.0509186l-0.054992676 0.58628845l0 64.29344l0.054992676 0.5863037l0.4673462 1.0509033l0.7532654 0.8186035l1.0502014 0.40930176l0.577301 0.060821533l124.87207 0l0.57733154 -0.060821533l1.0446777 -0.40930176l0.758728 -0.8186035l0.46191406 -1.0509033l0.060424805 -0.5863037l0 -64.29344l-0.060424805 -0.58628845l-0.46191406 -1.0509186l-0.758728 -0.81858826l-1.0446777 -0.40930176l-0.57733154 -0.06085205z"/><path fill="#fff" fill-rule="evenodd" d="m438.3211 225.60739l-0.6470642 0.060836792l-1.0598755 0.4092865l-0.7642212 0.81855774l-0.4741516 1.0508575l0 0.58625793l0 46.757492l0 0.5862732l0.4741516 1.0508423l0.7642212 0.818573l1.0598755 0.40927124l0.6470642 0.05529785l109.059814 0l0.59124756 -0.05529785l1.0598755 -0.40927124l0.7642212 -0.818573l0.47418213 -1.0508423l0.055725098 -0.5862732l0 -46.757492l-0.055725098 -0.58625793l-0.47418213 -1.0508575l-0.7642212 -0.81855774l-1.0598755 -0.4092865l-0.59124756 -0.060836792z"/><path fill="#466bb0" fill-rule="evenodd" d="m447.08008 266.98978l8.792999 5.027771l14.616272 -5.027771z"/><path fill="#466bb0" fill-rule="evenodd" d="m455.87308 245.19174l-8.792999 20.10553l8.792999 -1.6980591l0 -18.40747z"/><path fill="#476baf" fill-rule="evenodd" d="m457.30472 231.80649l0 31.792725l13.184631 1.6980591l-13.184631 -33.490784z"/><path fill="#000" fill-opacity="0" fill-rule="evenodd" d="m463.31082 237.34573l85.219635 0l0 29.132996l-85.219635 0z"/><path fill="#000" fill-rule="nonzero" d="m480.41684 258.02222q-1.609375 0 -2.984375 -0.78125q-1.359375 -0.78125 -2.15625 -2.1562347q-0.796875 -1.375 -0.796875 -3.046875q0 -1.65625 0.796875 -3.03125q0.796875 -1.375 2.15625 -2.15625q1.375 -0.796875 2.984375 -0.796875q1.265625 0 2.375 0.453125q1.109375 0.453125 1.828125 1.265625l-0.953125 0.96875q-0.5625 -0.671875 -1.421875 -1.03125q-0.84375 -0.359375 -1.8125 -0.359375q-1.203125 0 -2.265625 0.59375q-1.046875 0.578125 -1.6875 1.640625q-0.625 1.0625 -0.625 2.453125q0 1.390625 0.625 2.46875q0.640625 1.0625 1.6875 1.6406097q1.0625 0.578125 2.265625 0.578125q1.15625 0 1.921875 -0.359375q0.78125 -0.359375 1.34375 -0.95310974q0.421875 -0.4375 0.671875 -1.0625q0.25 -0.640625 0.3125 -1.40625l-4.234375 0l0 -1.265625l5.5 0q0.078125 0.453125 0.078125 0.828125q0 1.0625 -0.34375 2.0625q-0.328125 1.0 -1.0625 1.7499847q-1.578125 1.703125 -4.203125 1.703125zm9.72113 0q-0.890625 0 -1.59375 -0.34375q-0.703125 -0.359375 -1.09375 -0.96875q-0.375 -0.625 -0.375 -1.4062347q0 -1.296875 0.96875 -2.015625q0.984375 -0.734375 2.46875 -0.734375q0.734375 0 1.359375 0.171875q0.640625 0.15625 0.96875 0.359375l0 -0.5q0 -0.90625 -0.640625 -1.453125q-0.625 -0.5625 -1.609375 -0.5625q-0.671875 0 -1.265625 0.296875q-0.578125 0.296875 -0.90625 0.828125l-1.03125 -0.765625q0.484375 -0.734375 1.328125 -1.15625q0.859375 -0.421875 1.875 -0.421875q1.671875 0 2.609375 0.875q0.9375 0.875 0.9375 2.375l0 5.1718597l-1.296875 0l0 -1.171875l-0.0625 0q-0.34375 0.59375 -1.046875 1.015625q-0.703125 0.40625 -1.59375 0.40625zm0.140625 -1.1875q0.6875 0 1.265625 -0.34375q0.59375 -0.359375 0.9375 -0.95310974q0.359375 -0.59375 0.359375 -1.296875q-0.375 -0.265625 -0.9375 -0.421875q-0.5625 -0.15625 -1.1875 -0.15625q-1.109375 0 -1.6875 0.46875q-0.5625 0.453125 -0.5625 1.1875q0 0.671875 0.5 1.0937347q0.515625 0.421875 1.3125 0.421875zm8.726654 1.0625q-0.5 0 -0.921875 -0.15625q-0.421875 -0.15625 -0.703125 -0.4375q-0.640625 -0.609375 -0.640625 -1.6718597l0 -4.78125l-1.421875 0l0 -1.234375l1.421875 0l0 -2.3125l1.359375 0l0 2.3125l2.0 0l0 1.234375l-2.0 0l0 4.4375q0 0.671875 0.25 0.99998474q0.3125 0.34375 0.890625 0.34375q0.484375 0 0.890625 -0.265625l0 1.328125q-0.234375 0.109375 -0.484375 0.15625q-0.25 0.046875 -0.640625 0.046875zm6.003998 0.125q-1.171875 0 -2.109375 -0.546875q-0.921875 -0.5625 -1.4375 -1.5468597q-0.515625 -0.984375 -0.515625 -2.21875q0 -1.171875 0.484375 -2.171875q0.484375 -1.0 1.390625 -1.59375q0.90625 -0.59375 2.078125 -0.59375q1.203125 0 2.078125 0.546875q0.875 0.53125 1.34375 1.484375q0.484375 0.9375 0.484375 2.15625q0 0.1875 -0.03125 0.40625l-6.46875 0q0.046875 0.9375 0.4375 1.578125q0.40625 0.64060974 1.015625 0.96873474q0.625 0.3125 1.296875 0.3125q1.59375 0 2.421875 -1.4843597l1.140625 0.5625q-0.5 0.98435974 -1.421875 1.5624847q-0.90625 0.578125 -2.1875 0.578125zm2.34375 -5.1874847q-0.03125 -0.515625 -0.28125 -1.03125q-0.25 -0.515625 -0.796875 -0.859375q-0.546875 -0.359375 -1.375 -0.359375q-0.96875 0 -1.640625 0.625q-0.671875 0.609375 -0.875 1.625l4.96875 0zm1.9730225 -3.21875l1.40625 0l1.9374695 6.4374847l0.015625 0l2.0625 -6.4374847l1.390625 0l2.0625 6.4218597l0.03125 0l1.921875 -6.4218597l1.375 0l-2.625 8.156235l-1.390625 0l-2.109375 -6.5156097l-2.09375 6.5156097l-1.3593445 0l-2.625 -8.156235zm15.772003 8.406235q-0.890625 0 -1.59375 -0.34375q-0.703125 -0.359375 -1.09375 -0.96875q-0.375 -0.625 -0.375 -1.4062347q0 -1.296875 0.96875 -2.015625q0.984375 -0.734375 2.46875 -0.734375q0.734375 0 1.359375 0.171875q0.640625 0.15625 0.96875 0.359375l0 -0.5q0 -0.90625 -0.640625 -1.453125q-0.625 -0.5625 -1.609375 -0.5625q-0.671875 0 -1.265625 0.296875q-0.578125 0.296875 -0.90625 0.828125l-1.03125 -0.765625q0.484375 -0.734375 1.328125 -1.15625q0.859375 -0.421875 1.875 -0.421875q1.671875 0 2.609375 0.875q0.9375 0.875 0.9375 2.375l0 5.1718597l-1.296875 0l0 -1.171875l-0.0625 0q-0.34375 0.59375 -1.046875 1.015625q-0.703125 0.40625 -1.59375 0.40625zm0.140625 -1.1875q0.6875 0 1.265625 -0.34375q0.59375 -0.359375 0.9375 -0.95310974q0.359375 -0.59375 0.359375 -1.296875q-0.375 -0.265625 -0.9375 -0.421875q-0.5625 -0.15625 -1.1875 -0.15625q-1.109375 0 -1.6875 0.46875q-0.5625 0.453125 -0.5625 1.1875q0 0.671875 0.5 1.0937347q0.515625 0.421875 1.3125 0.421875zm8.085999 0.421875l-3.375 -7.6406097l1.46875 0l2.5625 6.0625l0.03125 0l2.46875 -6.0625l1.46875 0l-5.03125 11.60936l-1.40625 0l1.8125 -3.96875z"/><path fill="#000" fill-opacity="0" fill-rule="evenodd" d="m274.02216 494.67996l77.036285 0l0 0.06298828l77.04245 0"/><path fill-rule="evenodd" stroke="#008200" stroke-linecap="butt" stroke-linejoin="round" stroke-width="2" d="m274.02216 494.67996l77.036285 0l0 0.06298828l70.18826 0"/><path fill="#008200" fill-rule="evenodd" stroke="#008200" stroke-linecap="butt" stroke-width="2" d="m421.2467 494.74295l-2.2491455 2.249176l6.179535 -2.249176l-6.179535 -2.249176z"/><path fill="#000" fill-opacity="0" fill-rule="evenodd" d="m689.36865 467.46423l0 -320.81888l-137.57477 0"/><path fill-rule="evenodd" stroke="#46f" stroke-dasharray="8 6" stroke-linecap="butt" stroke-linejoin="round" stroke-width="2" d="m689.3687 460.61008l0 -313.96472l-137.57483 0"/><path fill="#46f" fill-rule="evenodd" stroke="#46f" stroke-linecap="butt" stroke-width="2" d="m689.3687 460.61008l-2.2492065 -2.249176l2.2492065 6.179535l2.2491455 -6.179535z"/><path fill="#000" fill-opacity="0" fill-rule="evenodd" d="m492.22116 288.99606l0 89.82678l-1.102356 0l0 89.82675"/><path fill-rule="evenodd" stroke="#46f" stroke-dasharray="8 6" stroke-linecap="butt" stroke-linejoin="round" stroke-width="2" d="m492.22116 295.85022l0 82.972626l-1.102356 0l0 89.82675"/><path fill="#46f" fill-rule="evenodd" stroke="#46f" stroke-linecap="butt" stroke-width="2" d="m492.22116 295.85025l2.249176 2.2491455l-2.249176 -6.179535l-2.2491455 6.179535z"/><path fill="#000" fill-opacity="0" fill-rule="evenodd" d="m497.3596 216.83989l0 -33.66928"/><path fill-rule="evenodd" stroke="#46f" stroke-dasharray="8 6" stroke-linecap="butt" stroke-linejoin="round" stroke-width="2" d="m497.3596 216.83989l0 -26.815125"/><path fill="#46f" fill-rule="evenodd" stroke="#46f" stroke-linecap="butt" stroke-width="2" d="m497.3596 190.02478l2.2491455 2.2491608l-2.2491455 -6.179535l-2.249176 6.179535z"/><path fill="#000" fill-opacity="0" fill-rule="evenodd" d="m45.02216 494.64713l54.188976 0l0 -0.12597656l54.18898 0"/><path fill-rule="evenodd" stroke="#008200" stroke-linecap="butt" stroke-linejoin="round" stroke-width="2" d="m45.02216 494.64716l54.188976 0l0 -0.12600708l47.334793 0"/><path fill="#008200" fill-rule="evenodd" stroke="#008200" stroke-linecap="butt" stroke-width="2" d="m146.54593 494.52115l-2.2491608 2.249176l6.179535 -2.249176l-6.179535 -2.2491455z"/></g></svg>