<svg xmlns="http://www.w3.org/2000/svg" viewBox="0 0 490.229 490.229"><path d="M417.932 79.858c-46.214-33.636-107.6-52.16-172.818-52.16S118.512 46.222 72.298 79.858C25.676 113.8 0 159.034 0 207.255c0 31.235 11.1 61.983 32.072 88.92 19.7 25.305 47.802 46.902 81.362 62.577v99.528a4.25 4.25 0 0 0 2.457 3.853c.573.266 1.185.397 1.792.397a4.25 4.25 0 0 0 2.739-1l90.748-76.434a337.94 337.94 0 0 0 33.942 1.715c65.23 0 126.604-18.524 172.818-52.16 46.62-33.932 72.297-79.176 72.297-127.397S464.553 113.8 417.932 79.858zm-172.82 298.455a329.18 329.18 0 0 1-34.847-1.855c-1.157-.122-2.304.23-3.2.976l-85.142 71.712v-44.988h14.535a4.25 4.25 0 1 0 0-8.5h-14.535V385.4H164.1a4.25 4.25 0 1 0 0-8.5h-42.178v-20.868a4.25 4.25 0 0 0-2.491-3.869c-47.634-21.66-82.102-53.937-99.066-91.156h42.23a4.25 4.25 0 1 0 0-8.5H16.842C11.365 237.98 8.5 222.8 8.5 207.255c0-94.32 106.145-171.058 236.613-171.058 76.505 0 144.632 26.393 187.913 67.236h-86.274a4.25 4.25 0 1 0 0 8.5h94.74c5.412 5.8 10.34 11.872 14.753 18.156h-25.578a4.25 4.25 0 1 0 0 8.5h31.136c12.8 21.03 19.925 44.255 19.925 68.665 0 94.323-106.146 171.06-236.616 171.06zM202.48 172.15a4.25 4.25 0 0 0 4.25-4.25v-51.467a4.25 4.25 0 0 0-4.25-4.25h-77.96a4.25 4.25 0 0 0-4.25 4.25V167.9a4.25 4.25 0 0 0 4.25 4.25h77.96zm-73.7-51.467h69.46v42.967h-69.46v-42.967zm253.92 29.283H237.408a4.25 4.25 0 1 0 0 8.5H382.7a4.25 4.25 0 1 0 0-8.5zm-45.164 135.492H253.9a4.25 4.25 0 1 0 0 8.5h83.637a4.25 4.25 0 1 0-.001-8.5zM382.7 195.13H125.934a4.25 4.25 0 1 0 0 8.5h256.768a4.25 4.25 0 1 0-.001-8.5zm0 45.165H125.934a4.25 4.25 0 1 0 0 8.5h256.768a4.25 4.25 0 1 0-.001-8.5z"/></svg>