<svg xmlns="http://www.w3.org/2000/svg" xmlns:xlink="http://www.w3.org/1999/xlink" width="45px" height="39px" viewBox="0 0 45 39" version="1.1">
  <path
     d="M 9.754458,2.6670478 C 14.91366,6.5402518 20.462967,14.393495 22.500392,18.608001 24.537973,14.393805 30.08697,6.5401738 35.246327,2.6670478 c 3.722608,-2.7947486 9.754194,-4.9571661 9.754194,1.923761 0,1.374215 -0.787892,11.5441182 -1.249999,13.1951622 -1.606276,5.74017 -7.459491,7.20423 -12.66602,6.318113 9.100914,1.54894 11.416099,6.67959 6.416183,11.810241 -9.49583,9.744106 -13.648268,-2.444834 -14.712756,-5.568084 -0.195053,-0.572566 -0.286327,-0.840418 -0.287669,-0.612656 -0.0014,-0.22777 -0.09261,0.04009 -0.287668,0.612656 -1.064023,3.12325 -5.216383,15.312502 -14.712756,5.568084 C 2.499842,30.783674 4.81495,25.652714 13.916019,24.104084 8.709334,24.990201 2.856042,23.526133 1.249998,17.785971 0.787877,16.134772 0,5.9648688 0,4.5908088 0,-2.2901183 6.031742,-0.1277008 9.754194,2.6670478 Z"
     fill="#fff"
     id="path1"
     style="stroke-width:0.0775866" />
</svg>
