<svg xmlns="http://www.w3.org/2000/svg" viewBox="0 0 511 511"><path d="M327.5 0C226.318 0 144 82.318 144 183.5c0 47.899 18.455 91.563 48.619 124.275l-23.391 23.391a7.513 7.513 0 0 0-1.172 1.532C163.131 329.642 157.443 328 151.5 328c-8.417 0-16.327 3.278-22.272 9.228L9.229 457.227C3.278 463.176 0 471.086 0 479.5s3.278 16.324 9.226 22.27C15.173 507.722 23.083 511 31.5 511s16.327-3.278 22.272-9.228l119.999-119.999c5.951-5.949 9.229-13.859 9.229-22.273 0-5.943-1.642-11.631-4.698-16.556a7.483 7.483 0 0 0 1.533-1.172l23.391-23.391C235.937 348.545 279.601 367 327.5 367 428.682 367 511 284.682 511 183.5S428.682 0 327.5 0zM43.163 491.167C40.05 494.284 35.908 496 31.5 496s-8.55-1.716-11.667-4.835C16.716 488.049 15 483.906 15 479.5s1.716-8.549 4.834-11.666l106.697-106.697 23.331 23.331L43.163 491.167zm120.003-120.001l-2.697 2.697-23.331-23.331 2.699-2.699c3.113-3.116 7.255-4.833 11.663-4.833s8.55 1.716 11.667 4.835c3.117 3.116 4.833 7.258 4.833 11.665s-1.716 8.549-4.834 11.666zM327.5 352C234.589 352 159 276.411 159 183.5S234.589 15 327.5 15 496 90.589 496 183.5 420.411 352 327.5 352z"/><path d="M473.064 141.375c-9.877-34.188-31.68-63.969-61.392-83.858a7.498 7.498 0 0 0-10.404 2.061 7.499 7.499 0 0 0 2.061 10.404c26.779 17.926 46.427 44.759 55.325 75.556a7.503 7.503 0 0 0 7.202 5.42c.689 0 1.39-.096 2.085-.297a7.498 7.498 0 0 0 5.123-9.286zM312.324 319.167c-29.982-3.314-57.389-16.145-79.259-37.105a7.5 7.5 0 0 0-10.379 10.829c23.926 22.931 55.175 37.558 87.989 41.185a7.5 7.5 0 0 0 1.649-14.909zM206.171 246.107a7.5 7.5 0 1 0-13.324 6.89 152.061 152.061 0 0 0 8.675 14.683 7.494 7.494 0 0 0 10.405 2.06 7.5 7.5 0 0 0 2.06-10.405 136.565 136.565 0 0 1-7.816-13.228zM357.843 50.383c4.93 1.119 9.851 2.53 14.625 4.195a7.503 7.503 0 0 0 9.552-4.612 7.5 7.5 0 0 0-4.612-9.551 151.04 151.04 0 0 0-16.246-4.66 7.5 7.5 0 1 0-3.319 14.628zM414.854 174.029a7.496 7.496 0 0 0-9.726-5.644l-15.764 5.255c-1.168-6.344-2.942-12.397-5.245-18.064l10.735-5.368a7.497 7.497 0 0 0 3.354-3.354l16-32a7.499 7.499 0 0 0-3.354-10.062 7.499 7.499 0 0 0-10.062 3.354L385.91 137.91l-8.633 4.317c-6.531-10.319-15.05-18.576-24.84-23.831l13.771-27.542a7.5 7.5 0 1 0-13.416-6.708l-14.512 29.023c-3.507-.754-7.104-1.169-10.78-1.169s-7.274.415-10.78 1.169l-14.512-29.023a7.498 7.498 0 0 0-10.062-3.354 7.499 7.499 0 0 0-3.354 10.062l13.771 27.542c-9.79 5.254-18.309 13.512-24.84 23.831l-8.633-4.317-14.882-29.764a7.499 7.499 0 0 0-10.062-3.354 7.499 7.499 0 0 0-3.354 10.062l16 32a7.497 7.497 0 0 0 3.354 3.354l10.735 5.368c-2.303 5.667-4.077 11.72-5.245 18.064l-15.764-5.255a7.503 7.503 0 0 0-9.726 5.644l-8 40a7.5 7.5 0 0 0 7.363 8.972 7.503 7.503 0 0 0 7.347-6.031l6.333-31.669 10.864 3.621c-.022.858-.052 1.713-.052 2.577 0 8.995 1.217 17.636 3.426 25.705a7.514 7.514 0 0 0-1.229.992l-16 16a7.5 7.5 0 0 0-1.128 9.162l24 40a7.492 7.492 0 0 0 10.29 2.572 7.499 7.499 0 0 0 2.572-10.29l-20.987-34.979 8.17-8.17C284.244 255.55 304.456 271 327.5 271s43.256-15.45 54.386-38.508l8.17 8.17-20.987 34.979a7.5 7.5 0 0 0 12.862 7.718l24-40a7.499 7.499 0 0 0-1.128-9.162l-16-16a7.514 7.514 0 0 0-1.229-.992c2.209-8.069 3.426-16.71 3.426-25.705 0-.864-.03-1.719-.052-2.577l10.864-3.621 6.333 31.669a7.504 7.504 0 0 0 8.826 5.884 7.5 7.5 0 0 0 5.884-8.825l-8.001-40.001zM320 255.226c-23.194-4.809-41-31.552-41-63.726 0-10.042 1.736-19.555 4.828-28.038 10.484 6.309 22.908 10.177 36.172 11.236v80.528zm-29.53-105.315C299.374 135.912 312.666 127 327.5 127s28.126 8.912 37.03 22.911C354.26 156.366 341.113 160 327.5 160s-26.76-3.634-37.03-10.089zM335 255.226v-80.527c13.264-1.06 25.688-4.928 36.172-11.236 3.092 8.483 4.828 17.995 4.828 28.038 0 32.173-17.806 58.916-41 63.725z"/></svg>