<svg xmlns="http://www.w3.org/2000/svg" viewBox="0 0 47 47"><path d="M23.5 11.449c-6.385 0-11.563 4.959-11.563 11.077 0 7.265 5.045 9.117 5.045 13.344 0 1.045.799 2.017 1.999 2.731-.251.209-.391.438-.391.678 0 .322.253.623.688.881-.408.253-.645.544-.645.855 0 .314.242.608.659.863-.426.256-.674.555-.674.872 0 .388.366.743.978 1.032-.237.215-.373.453-.373.703 0 .74 1.153 1.369 2.774 1.621.285.528.863.894 1.537.894.673 0 1.25-.363 1.535-.889 1.637-.248 2.803-.881 2.803-1.623 0-.247-.131-.482-.363-.694.625-.291.998-.651.998-1.042 0-.314-.241-.609-.659-.863.425-.257.674-.554.674-.871 0-.322-.254-.623-.688-.882.41-.252.646-.544.646-.855 0-.249-.151-.484-.421-.698 1.181-.713 1.966-1.675 1.966-2.711 0-4.229 5.039-6.08 5.039-13.344-.001-6.12-5.178-11.079-11.564-11.079zm6.038 17.932c-1.152 1.692-2.455 3.604-2.535 6.232-.396.441-1.809 1.158-3.499 1.158-1.691 0-3.105-.717-3.5-1.16-.08-2.629-1.385-4.541-2.539-6.232-1.287-1.886-2.502-3.667-2.502-6.854 0-4.439 3.83-8.051 8.537-8.051 4.708 0 8.538 3.612 8.538 8.051 0 3.188-1.215 4.97-2.5 6.856zM23.5 7.564c.832 0 1.513-.9 1.513-2V2c0-1.1-.681-2-1.513-2s-1.513.9-1.513 2v3.564c0 1.101.681 2 1.513 2zm-7.753 2.078c.721-.416.859-1.536.31-2.488l-1.781-3.087c-.55-.953-1.59-1.392-2.311-.976-.721.416-.86 1.536-.311 2.488l1.783 3.087c.55.953 1.589 1.392 2.31.976zm-6.652 3.365L6.01 11.225c-.953-.55-2.073-.411-2.489.31-.416.721.022 1.76.976 2.31l3.086 1.782c.953.55 2.073.411 2.488-.31.415-.721-.023-1.76-.976-2.31zm33.409 19.288l-3.086-1.781c-.953-.551-2.073-.412-2.488.31-.416.721.021 1.76.977 2.31l3.084 1.782c.953.55 2.073.411 2.489-.31.416-.722-.022-1.761-.976-2.311zM7.994 23.07c0-.833-.9-1.513-2-1.513H2.43c-1.1 0-2 .681-2 1.513 0 .832.9 1.513 2 1.513h3.564c1.1 0 2-.681 2-1.513zm36.576-1.513h-3.563c-1.101 0-2 .681-2 1.513 0 .832.899 1.513 2 1.513h3.563c1.101 0 2-.681 2-1.513 0-.832-.9-1.513-2-1.513zM7.582 30.514l-3.086 1.781c-.953.55-1.392 1.589-.976 2.311.416.721 1.536.859 2.489.31l3.085-1.782c.953-.55 1.392-1.589.976-2.31-.415-.72-1.535-.861-2.488-.31zm31.836-14.887l3.086-1.782c.953-.55 1.392-1.589.976-2.31-.416-.721-1.536-.86-2.489-.31l-3.085 1.782c-.952.55-1.392 1.589-.976 2.31.415.721 1.535.86 2.488.31zM35.036 3.09c-.722-.416-1.762.023-2.312.976l-1.781 3.087c-.55.953-.411 2.072.31 2.488.722.416 1.761-.023 2.311-.976l1.783-3.087c.549-.952.409-2.072-.311-2.488z"/></svg>