<svg xmlns="http://www.w3.org/2000/svg" viewBox="0 0 489.3 489.3"><path d="M265 369.25c6.8 0 12.3-5.5 12.3-12.3s-5.5-12.3-12.3-12.3H38.4c-7.7 0-13.9-6.2-13.9-13.9V77.35c0-7.7 6.2-13.9 13.9-13.9H451c7.7 0 13.9 6.2 13.9 13.9v253.6c0 7.7-6.2 13.9-13.9 13.9h-30.2c-6.8 0-12.3 5.5-12.3 12.3v60.9l-69.5-69.5c-4.8-4.8-12.5-4.8-17.3 0s-4.8 12.5 0 17.3l78.9 78.9c3.6 3.6 8.5 5.6 13.4 5.6 2.4 0 4.9-.5 7.3-1.4 7.1-2.9 11.7-9.8 11.7-17.5v-61.9h17.9c21.2 0 38.4-17.2 38.4-38.4V77.35c0-21.2-17.2-38.4-38.4-38.4H38.4C17.2 38.95 0 56.15 0 77.35v253.6c0 21.2 17.2 38.4 38.4 38.4H265v-.1z"/><path d="M88.1 152.85h313.2c6.8 0 12.3-5.5 12.3-12.3s-5.5-12.3-12.3-12.3H88.1c-6.8 0-12.3 5.5-12.3 12.3s5.5 12.3 12.3 12.3zm0 65.9h313.2c6.8 0 12.3-5.5 12.3-12.3s-5.5-12.3-12.3-12.3H88.1c-6.8 0-12.3 5.5-12.3 12.3s5.5 12.3 12.3 12.3zm156.6 65.9h156.6c6.8 0 12.3-5.5 12.3-12.3s-5.5-12.3-12.3-12.3H244.7c-6.8 0-12.3 5.5-12.3 12.3.1 6.8 5.5 12.3 12.3 12.3z"/></svg>