<?xml version="1.0" encoding="iso-8859-1"?>
<svg version="1.1" id="Capa_1" xmlns="http://www.w3.org/2000/svg" xmlns:xlink="http://www.w3.org/1999/xlink"
	 viewBox="0 0 489.3 489.3" style="enable-background:new 0 0 489.3 489.3;" xml:space="preserve">
<path d="M265,369.25c6.8,0,12.3-5.5,12.3-12.3s-5.5-12.3-12.3-12.3H38.4c-7.7,0-13.9-6.2-13.9-13.9V77.35
	c0-7.7,6.2-13.9,13.9-13.9H451c7.7,0,13.9,6.2,13.9,13.9v253.6c0,7.7-6.2,13.9-13.9,13.9h-30.2c-6.8,0-12.3,5.5-12.3,12.3v60.9
	l-69.5-69.5c-4.8-4.8-12.5-4.8-17.3,0s-4.8,12.5,0,17.3l78.9,78.9c3.6,3.6,8.5,5.6,13.4,5.6c2.4,0,4.9-0.5,7.3-1.4
	c7.1-2.9,11.7-9.8,11.7-17.5v-61.9h17.9c21.2,0,38.4-17.2,38.4-38.4V77.35c0-21.2-17.2-38.4-38.4-38.4H38.4
	C17.2,38.95,0,56.15,0,77.35v253.6c0,21.2,17.2,38.4,38.4,38.4H265V369.25z"/>
<path d="M88.1,152.85h313.2c6.8,0,12.3-5.5,12.3-12.3s-5.5-12.3-12.3-12.3H88.1c-6.8,0-12.3,5.5-12.3,12.3
	S81.3,152.85,88.1,152.85z"/>
<path d="M88.1,218.75h313.2c6.8,0,12.3-5.5,12.3-12.3s-5.5-12.3-12.3-12.3H88.1c-6.8,0-12.3,5.5-12.3,12.3
	S81.3,218.75,88.1,218.75z"/>
<path d="M244.7,284.65h156.6c6.8,0,12.3-5.5,12.3-12.3s-5.5-12.3-12.3-12.3H244.7c-6.8,0-12.3,5.5-12.3,12.3
	C232.5,279.15,237.9,284.65,244.7,284.65z"/>
</svg>
