<svg xmlns="http://www.w3.org/2000/svg" viewBox="0 0 192.146 192.146"><path d="M108.186 144.372c0 7.054-4.729 12.32-12.037 12.32h-.254c-7.054 0-11.92-5.266-11.92-12.32 0-7.298 5.012-12.31 12.174-12.31s11.91 4.992 12.037 12.31zM88.44 125.301h15.447l2.951-61.298H85.46l2.98 61.298zm101.932 51.733c-2.237 3.664-6.214 5.921-10.493 5.921H12.282c-4.426 0-8.51-2.384-10.698-6.233a12.34 12.34 0 01.147-12.349l84.111-149.22c2.208-3.722 6.204-5.96 10.522-5.96h.332c4.445.107 8.441 2.618 10.513 6.546l83.515 149.229c1.993 3.8 1.905 8.363-.352 12.066zm-10.493-6.4L96.354 21.454l-84.062 149.18h167.587z"/></svg>