<svg xmlns="http://www.w3.org/2000/svg" viewBox="0 0 496.304 496.303"><path d="M248.146 0C111.314 0 0 111.321 0 248.152c0 136.829 111.314 248.151 248.146 248.151 136.835 0 248.158-111.322 248.158-248.151C496.304 111.321 384.98 0 248.146 0zm0 472.093c-123.473 0-223.935-100.459-223.935-223.941 0-123.479 100.462-223.941 223.935-223.941 123.488 0 223.947 100.462 223.947 223.941 0 123.482-100.459 223.941-223.947 223.941zm71.39-88.673v32.852a2.492 2.492 0 0 1-2.482 2.494H196.45a2.486 2.486 0 0 1-2.482-2.494V383.42a2.483 2.483 0 0 1 2.482-2.482h34.744V205.831h-35.101a2.466 2.466 0 0 1-2.468-2.474v-33.6c0-1.38 1.1-2.479 2.468-2.479h82.293a2.477 2.477 0 0 1 2.482 2.479v211.181h36.186a2.489 2.489 0 0 1 2.482 2.482zM209.93 105.927c0-20.895 16.929-37.829 37.829-37.829 20.886 0 37.826 16.935 37.826 37.829s-16.94 37.829-37.826 37.829c-20.906 0-37.829-16.934-37.829-37.829z"/></svg>