<svg xmlns="http://www.w3.org/2000/svg" viewBox="0 0 297 297"><path fill="red" d="M293.805 219.495l-71.019-71.003 70.998-71.015c4.258-4.259 4.256-11.163-.002-15.422L234.921 3.194a10.904 10.904 0 0 0-15.424.002l-70.999 71.025L77.477 3.219c-4.26-4.258-11.162-4.257-15.422.001L3.194 62.081a10.902 10.902 0 0 0 .002 15.424l71.035 71.01-70.983 71.01c-4.257 4.258-4.257 11.16 0 15.419l58.834 58.859a10.904 10.904 0 0 0 7.712 3.196h.001c2.893 0 5.667-1.149 7.712-3.195l71.013-71.029 71.005 70.979c4.258 4.258 11.161 4.258 15.419 0l58.86-58.834a10.904 10.904 0 0 0 .001-15.425z"/></svg>