<svg xmlns="http://www.w3.org/2000/svg" viewBox="0 0 311.539 311.539"><path d="M190.127 93.127l-34.357 34.357-34.358-34.357-28.285 28.285 34.358 34.358-34.358 34.357 28.285 28.285 34.358-34.357 34.357 34.357 28.285-28.285-34.357-34.357 34.357-34.358z"/><path d="M155.77 0C69.74 0 0 69.74 0 155.77s69.74 155.77 155.77 155.77 155.77-69.74 155.77-155.77S241.799 0 155.77 0zm0 271.539C91.784 271.539 40 219.761 40 155.77 40 91.784 91.778 40 155.77 40c63.986 0 115.77 51.778 115.77 115.77-.001 63.985-51.779 115.769-115.77 115.769z"/></svg>