<svg xmlns="http://www.w3.org/2000/svg" viewBox="0 0 512.001 512.001"><path d="M467.309 16.768H221.454c-6.128 0-11.095 4.967-11.095 11.095v86.451l12.305-7.64a30.76 30.76 0 0 1 9.884-3.978V38.958h223.665v160.016H232.549v-25.89l-22.19 13.778v23.208c0 6.128 4.967 11.095 11.095 11.095h245.855c6.127 0 11.095-4.967 11.095-11.095V27.863c0-6.128-4.968-11.095-11.095-11.095z"/><path d="M306.001 78.356a8.535 8.535 0 0 0-11.986-1.418l-38.217 30.133a30.686 30.686 0 0 1 9.301 9.527 31.009 31.009 0 0 1 1.834 3.431l37.651-29.687a8.533 8.533 0 0 0 1.417-11.986z"/><circle cx="121.535" cy="31.935" r="31.935"/><path d="M252.01 124.728c-4.489-7.229-13.987-9.451-21.218-4.963l-31.206 19.375-.144-28.811c-.101-20.005-16.458-36.281-36.464-36.281h-15.159c-12.951 33.588-8.779 21.12-19.772 49.63l4.623-20.131a6.422 6.422 0 0 0-.655-4.43l-6.264-11.393 5.559-10.109c.829-1.508-.264-3.356-1.985-3.356h-15.271c-1.72 0-2.815 1.848-1.985 3.356l5.57 10.13-6.276 11.414a6.431 6.431 0 0 0-.672 4.347l4.005 20.172-19.137-49.63H80.093c-20.005 0-36.363 16.275-36.464 36.281l-.569 113.2c-.042 8.51 6.821 15.443 15.331 15.486h.079c8.473 0 15.364-6.848 15.406-15.331l.569-113.2v-.053a3.056 3.056 0 0 1 6.113.045l.007 160.381c14.106-.6 27.176 4.488 36.981 13.423v-62.568h7.983v71.773a51.356 51.356 0 0 1 8.914 28.974 51.354 51.354 0 0 1-7.469 26.731c4.866.023 9.592.669 14.099 1.861a51.544 51.544 0 0 1 21.437-11.136c0-279.342-.335-106.627-.335-229.418a3.224 3.224 0 1 1 6.45-.013l.283 56.351a15.407 15.407 0 0 0 23.536 13.013l54.604-33.903c7.228-4.487 9.451-13.988 4.962-21.217z"/><circle cx="429.221" cy="322.831" r="33.803"/><path d="M511.459 405.811c-.107-21.176-17.421-38.404-38.598-38.404H388.08a51.318 51.318 0 0 1 5.704 23.55c0 9.005-2.405 18.413-7.5 26.782 18.904.764 35.468 10.91 45.149 25.897h40.579v-37.43a3.417 3.417 0 0 1 6.827-.233v.002l.19 37.661h32.621l-.191-37.825zm-220.99-14.855a51.324 51.324 0 0 1 5.894-23.92h-75.267a51.316 51.316 0 0 1 5.437 23.029 51.49 51.49 0 0 1-7.469 26.731c15.558.074 29.912 6.538 40.283 17.267 10.054-9.822 23.759-15.914 38.836-15.995a51.588 51.588 0 0 1-7.714-27.112zm-25.65-102.301c-18.668 0-33.804 15.132-33.804 33.803 0 18.628 15.107 33.803 33.804 33.803 18.518 0 33.803-14.965 33.803-33.803 0-18.65-15.105-33.803-33.803-33.803zm-141.602 101.41a51.344 51.344 0 0 1 5.411-22.98c-1.457-.072 4.672-.049-89.485-.049-21.068 0-38.491 17.138-38.598 38.404l-.192 38.196h32.621l.191-38.031a3.414 3.414 0 0 1 6.827.017v38.014h45.727c9.855-15.754 26.8-25.646 45.243-26.406a51.261 51.261 0 0 1-7.745-27.165zm-40.431-101.41c-18.668 0-33.803 15.134-33.803 33.803 0 18.584 15.046 33.803 33.803 33.803 18.536 0 33.804-15.015 33.804-33.803 0-18.67-15.135-33.803-33.804-33.803zm339.747 185.152c-.105-21.178-17.42-38.406-38.597-38.406h-85.507c-21.176 0-39.601 17.227-39.708 38.404l-.275-.891c-.105-21.092-17.341-38.404-38.597-38.404h-85.507c-21.176 0-39.601 17.227-39.708 38.404L94.442 512h32.621l.191-38.922a2.94 2.94 0 0 1 5.88.015v38.908h86.392v-38.908a3.15 3.15 0 0 1 6.299-.016l.191 38.923h65.134l.191-38.031v-.002a2.94 2.94 0 0 1 5.88.017V512h86.392v-38.016a3.15 3.15 0 0 1 6.299-.016l.191 38.031h32.621l-.191-38.192z"/><circle cx="175.934" cy="389.933" r="34.198"/><circle cx="342.07" cy="390.821" r="34.198"/></svg>