<svg xmlns="http://www.w3.org/2000/svg" viewBox="0 0 378.311 378.311"><path d="M189.156 0C84.858 0 .001 84.858.001 189.155c0 104.298 84.857 189.155 189.155 189.155 104.304 0 189.154-84.857 189.154-189.155C378.31 84.858 293.46 0 189.156 0zm0 347.144c-87.117 0-157.988-70.87-157.988-157.988 0-87.115 70.871-157.988 157.988-157.988s157.986 70.873 157.986 157.988c0 87.117-70.87 157.988-157.986 157.988z"/><path d="M204.739 182.963V75.841c0-8.606-6.977-15.584-15.583-15.584-8.605 0-15.582 6.978-15.582 15.584v113.314c0 4.839 2.25 9.101 5.703 11.962.146.176.245.373.397.546l58.438 66.354a15.572 15.572 0 0011.701 5.279 15.5 15.5 0 0010.289-3.888c6.461-5.692 7.084-15.537 1.398-21.998l-56.761-64.447z"/></svg>