<svg xmlns="http://www.w3.org/2000/svg" viewBox="0 0 24 29"><path d="M14.49 28.99H9.96v-1.812h4.53v1.812zm1.59-2.717h-7.7v-1.811h7.7v1.811zm0-2.717h-7.7v-.906c0-3.625-1.53-4.612-1.59-4.652l-.11-.062-.08-.079a7.97 7.97 0 0 1-.14-11.385 8.166 8.166 0 0 1 11.53 0 7.97 7.97 0 0 1-.14 11.385l-.09.09-.11.061c-.05.03-1.57 1.017-1.57 4.642v.906zm-5.92-1.811h4.13c.24-3.549 1.84-4.9 2.34-5.238a6.169 6.169 0 0 0 .08-8.755 6.342 6.342 0 0 0-8.96 0 6.159 6.159 0 0 0 .07 8.754c.51.343 2.1 1.694 2.34 5.239zm2.75-18.566h-1.82V.01h1.82v3.169zm-9.74 9.736H0V11.1h3.17v1.811zm20.83 0h-2.72V11.1H24v1.811zm-19.85 8.22l-1.28-1.281 2.24-2.241 1.29 1.281zM19.2 6.086l-1.28-1.281 1.92-1.921 1.29 1.28zm-14.09.319L2.87 4.164l1.28-1.28 2.25 2.24zm14.73 14.73l-1.92-1.921 1.28-1.281 1.93 1.921z"/></svg>