<svg xmlns="http://www.w3.org/2000/svg" viewBox="0 0 487.866 487.866"><path d="M482.866 127.128H467.22v-8.208a5 5 0 0 0-5-5h-9.716l9.012-16.366.001-.001.001-.002 8.462-15.369.002-.004.003-.005c2.843-5.164 3.505-11.125 1.865-16.786s-5.388-10.345-10.551-13.188a22.092 22.092 0 0 0-10.629-2.74 22.082 22.082 0 0 0-19.345 11.426l-.01.018-8.457 15.359-.001.002-.001.002-20.733 37.654H260.201a5 5 0 0 0-5.008 5.004v7.478a37.25 37.25 0 0 0-10.915-1.63 37.21 37.21 0 0 0-13.051 2.355H5a5 5 0 0 0-5 5v288.806a5 5 0 0 0 5 5h214.121c3.413 7.815 14.598 12.473 25.095 12.473 12.343 0 22.178-5.104 25.259-12.473h213.392a5 5 0 0 0 5-5V132.128a5.002 5.002 0 0 0-5.001-5zM265.228 376.441h191.993v20.05l-191.993-.494v-19.556zm105.68-153.978l-5.157-2.839.713-17.964 3.329-.965 1.965 6.789a4.998 4.998 0 0 0 6.196 3.411l6.789-1.969.964 3.329-14.799 10.208zm22.049-21.128a5 5 0 0 0-6.195-3.408l-6.789 1.969-1.965-6.789a4.998 4.998 0 0 0-6.192-3.412l57.39-104.227 21.14 11.64-57.389 104.227zm44.711-131.236l21.141 11.64-3.64 6.61-21.14-11.64 3.639-6.61zm18.808-9.14a11.989 11.989 0 0 1 5.77 7.211c.41 1.416.557 2.866.448 4.291l-14.061-7.741-5.195-2.86a12.087 12.087 0 0 1 7.232-2.4 12.067 12.067 0 0 1 5.806 1.499zM265.193 123.92h131.424l-39.385 71.528a5.051 5.051 0 0 0-.341.789c-.019.054-.038.107-.055.162-.08.262-.139.53-.175.803-.008.061-.012.122-.018.184-.009.092-.023.184-.027.276l-1.323 33.331H305.6a5 5 0 1 0 0 10h54.5c.301 0 .599-.036.895-.09.096-.018.188-.042.283-.064.2-.048.395-.109.589-.183.093-.035.187-.068.278-.109.217-.097.427-.213.631-.342.045-.029.095-.051.139-.081l.024-.014 31.414-21.669c.077-.053.146-.114.219-.171.049-.038.098-.074.146-.114.21-.176.405-.369.583-.576.038-.044.073-.09.109-.136.178-.222.343-.454.481-.705l.001-.002v-.001l51.107-92.816h10.222v242.521H265.193v-28.844a27.268 27.268 0 0 1 6.467 17.655c0 2.762 2.239 4.995 5 4.995s5-2.244 5-5.006c0-12.87-6.538-24.241-16.467-30.969v-25.293a27.268 27.268 0 0 1 6.467 17.655c0 2.762 2.239 4.995 5 4.995s5-2.244 5-5.006c0-12.87-6.538-24.241-16.467-30.969v-25.292a27.268 27.268 0 0 1 6.467 17.655c0 2.762 2.239 4.995 5 4.995s5-2.243 5-5.005c0-12.871-6.538-24.242-16.467-30.969v-25.292a27.268 27.268 0 0 1 6.467 17.655c0 2.762 2.239 4.995 5 4.995s5-2.243 5-5.005c0-12.871-6.538-24.242-16.467-30.969V183.13a27.268 27.268 0 0 1 6.467 17.655c0 2.762 2.239 4.995 5 4.995s5-2.243 5-5.005c0-12.871-6.538-24.242-16.467-30.969v-25.292a27.268 27.268 0 0 1 6.467 17.655c0 2.762 2.239 4.995 5 4.995s5-2.243 5-5.005c0-12.871-6.538-24.242-16.467-30.969v-7.27zm212.673 292.014H265.488a5 5 0 0 0-5 5c0 3.12-6.191 7.473-16.273 7.473-8.914 0-16.148-4.521-16.148-7.473a5 5 0 0 0-5-5H10V137.128h206.536c-5.988 6.631-9.641 15.41-9.641 25.027v.01c0 2.762 2.239 4.995 5 4.995s5-2.243 5-5.005c0-15.099 12.284-27.383 27.383-27.383 3.878 0 7.569.815 10.915 2.276v27.97a37.25 37.25 0 0 0-10.915-1.63c-20.613 0-37.383 16.77-37.383 37.383v.01c0 2.762 2.239 4.995 5 4.995s5-2.243 5-5.005c0-15.099 12.284-27.383 27.383-27.383 3.878 0 7.569.815 10.915 2.276v27.97a37.25 37.25 0 0 0-10.915-1.63c-20.613 0-37.383 16.77-37.383 37.383v.01c0 2.762 2.239 4.995 5 4.995s5-2.243 5-5.005c0-15.099 12.284-27.383 27.383-27.383 3.878 0 7.569.815 10.915 2.276v27.97a37.25 37.25 0 0 0-10.915-1.63c-20.613 0-37.383 16.77-37.383 37.383v.01c0 2.762 2.239 4.995 5 4.995s5-2.243 5-5.005c0-15.099 12.284-27.383 27.383-27.383 3.878 0 7.569.815 10.915 2.276v27.97a37.25 37.25 0 0 0-10.915-1.63c-20.613 0-37.383 16.77-37.383 37.382v.011c0 2.762 2.239 4.995 5 4.995s5-2.244 5-5.006c0-15.099 12.284-27.382 27.383-27.382 3.878 0 7.569.815 10.915 2.276v27.971a37.25 37.25 0 0 0-10.915-1.63c-20.613 0-37.383 16.77-37.383 37.382v.011c0 2.762 2.239 4.995 5 4.995s5-2.244 5-5.006c0-15.099 12.284-27.382 27.383-27.382 3.878 0 7.569.815 10.915 2.276v46.139c0 .12.027.231.035.349v24.361a5 5 0 0 0 4.987 5l201.993.52h.013a4.999 4.999 0 0 0 5-5v-264.37h10.646v278.806zm-31.918-29.012a5 5 0 0 1-5 5H281.403a5 5 0 1 1 0-10h159.545a5 5 0 0 1 5 5zM197.733 155.318v238.938a5 5 0 1 1-10 0V155.318a5 5 0 1 1 10 0zm243.311-55.967l-51.865 94.194a5.001 5.001 0 0 1-6.791 1.968 5 5 0 0 1-1.968-6.792l51.865-94.194a5 5 0 0 1 8.759 4.824z"/></svg>