<svg xmlns="http://www.w3.org/2000/svg" viewBox="0 0 473.081 473.081"><path d="M471.176 162.893a6.498 6.498 0 00-9.192 0l-40.487 40.488a6.5 6.5 0 00-1.868 3.921c-3.223 30.84-17.072 59.9-38.999 81.826l-9.621 9.621-69.908-69.908c4.422 1.044 8.75 1.572 12.953 1.572 6.165 0 12.065-1.127 17.607-3.395a6.5 6.5 0 10-4.922-12.032c-26.768 10.951-57.628-18.195-61.515-22.022l-18.575-18.575c2.306-9.78.315-20.276-5.615-28.803-6.704-9.638-17.362-15.165-29.287-15.165l-44.991.322h-.119a16.091 16.091 0 01-11.416-4.707 16.096 16.096 0 01-4.786-11.504v-.677a16.16 16.16 0 0115.567-16.188l81.933-3.228c29.569-1.164 59.042 7.816 82.946 25.285a6.5 6.5 0 008.431-.652l43.032-43.032a6.5 6.5 0 10-9.192-9.192l-39.173 39.174c-25.398-17.079-55.919-25.778-86.556-24.573l-81.933 3.228c-.193.008-.382.025-.573.037L133.83 53.628a6.498 6.498 0 00-9.192 0 6.498 6.498 0 000 9.192l26.352 26.352a29.119 29.119 0 00-13.555 24.682v.677c-.002 7.842 3.062 15.204 8.625 20.73 5.564 5.526 12.941 8.539 20.789 8.482l44.944-.322c10.353 0 16.077 6.007 18.567 9.588a23.59 23.59 0 013.787 8.879l-2.228-2.228a6.498 6.498 0 00-9.192 0 6.498 6.498 0 000 9.192l146.666 146.666c6.334 6.333 6.334 16.639 0 22.972-6.33 6.331-16.63 6.332-22.962.008l-93.42-93.419a6.497 6.497 0 00-9.191 0 6.498 6.498 0 000 9.192l100.622 100.623c6.334 6.333 6.334 16.639 0 22.972a16.134 16.134 0 01-11.486 4.758c-4.339 0-8.418-1.69-11.485-4.758l-95.387-95.387a6.5 6.5 0 00-9.192 9.192l78.161 78.162c6.328 6.334 6.326 16.634-.005 22.965-6.335 6.334-16.64 6.333-22.973 0l-84.888-84.888a6.498 6.498 0 00-9.192 0 6.498 6.498 0 000 9.192l62.967 62.967.001.001c6.334 6.333 6.334 16.638 0 22.972-6.332 6.333-16.638 6.333-22.971 0L104.073 289.128c-21.926-21.926-35.776-50.986-38.998-81.826a6.495 6.495 0 00-1.869-3.921l-52.11-52.111a6.498 6.498 0 00-9.192 0 6.498 6.498 0 000 9.192l50.502 50.502c3.968 32.934 18.996 63.876 42.475 87.355l9.586 9.586c-3.569 4.941-5.5 10.856-5.5 17.071 0 7.811 3.042 15.155 8.565 20.678 5.701 5.701 13.189 8.552 20.678 8.552.737 0 1.473-.036 2.208-.091a29.654 29.654 0 00-.386 4.737c0 7.811 3.042 15.155 8.565 20.678 5.701 5.701 13.189 8.552 20.678 8.552 1.457 0 2.914-.111 4.358-.327-1.325 8.865 1.414 18.226 8.224 25.036 5.523 5.523 12.867 8.565 20.678 8.565 6.962 0 13.549-2.422 18.811-6.859a29.17 29.17 0 0018.131 6.293c7.488 0 14.978-2.851 20.679-8.552a29.072 29.072 0 007.992-14.979l4.733 4.733c5.702 5.702 13.189 8.552 20.679 8.552 7.488 0 14.979-2.851 20.68-8.552a29.069 29.069 0 007.992-14.978l.045.045c5.523 5.523 12.867 8.565 20.679 8.565 7.813 0 15.156-3.042 20.68-8.565 8.349-8.349 10.576-20.53 6.698-30.932 6.66-.55 13.168-3.36 18.252-8.445 10.858-10.858 11.368-28.195 1.546-39.672l9.69-9.691c23.479-23.479 38.507-54.422 42.476-87.356l38.879-38.879a6.498 6.498 0 00-.001-9.191zM116.725 336.462a16.137 16.137 0 01-4.758-11.486c0-2.717.663-5.331 1.911-7.66l21.992 21.992a16.164 16.164 0 01-7.66 1.911 16.123 16.123 0 01-11.485-4.757zm31.065 33.877a16.137 16.137 0 01-4.758-11.486c0-3.413 1.059-6.656 2.999-9.382l22.624 22.624c-6.337 4.492-15.191 3.917-20.865-1.756zm33.26 33.26c-5.674-5.674-6.248-14.527-1.756-20.865l22.624 22.624a16.116 16.116 0 01-9.383 2.999c-4.338 0-8.417-1.69-11.485-4.758z"/></svg>