<?xml version="1.0" encoding="iso-8859-1"?>
<svg version="1.1" xmlns="http://www.w3.org/2000/svg" xmlns:xlink="http://www.w3.org/1999/xlink"
	 viewBox="0 0 473.081 473.081" style="enable-background:new 0 0 473.081 473.081;" xml:space="preserve">
<path d="M471.176,162.893c-2.537-2.539-6.653-2.539-9.192,0l-40.487,40.488c-1.054,1.054-1.713,2.438-1.868,3.921
	c-3.223,30.84-17.072,59.9-38.999,81.826l-9.621,9.621l-69.908-69.908c4.422,1.044,8.75,1.572,12.953,1.572
	c6.165,0,12.065-1.127,17.607-3.395c3.323-1.359,4.914-5.155,3.555-8.477c-1.359-3.324-5.156-4.913-8.477-3.555
	c-26.768,10.951-57.628-18.195-61.515-22.022l-18.575-18.575c2.306-9.78,0.315-20.276-5.615-28.803
	c-6.704-9.638-17.362-15.165-29.287-15.165l-44.991,0.322c-0.04,0-0.08,0-0.119,0c-4.307,0-8.357-1.669-11.416-4.707
	c-3.087-3.066-4.787-7.151-4.786-11.504v-0.677c0.002-8.733,6.84-15.844,15.567-16.188l81.933-3.228
	c29.569-1.164,59.042,7.816,82.946,25.285c2.588,1.89,6.166,1.614,8.431-0.652l43.032-43.032c2.539-2.538,2.539-6.654,0.001-9.192
	c-2.539-2.539-6.654-2.539-9.193,0l-39.173,39.174c-25.398-17.079-55.919-25.778-86.556-24.573l-81.933,3.228
	c-0.193,0.008-0.382,0.025-0.573,0.037l-31.087-31.086c-2.538-2.539-6.654-2.539-9.192,0c-2.539,2.538-2.539,6.654,0,9.192
	l26.352,26.352c-8.178,5.174-13.552,14.289-13.555,24.682v0.677c-0.002,7.842,3.062,15.204,8.625,20.73
	c5.564,5.526,12.941,8.539,20.789,8.482l44.944-0.322c10.353,0,16.077,6.007,18.567,9.588c1.897,2.727,3.168,5.757,3.787,8.879
	l-2.228-2.228c-2.538-2.539-6.654-2.539-9.192,0c-2.539,2.538-2.539,6.654,0,9.192l146.666,146.666
	c6.334,6.333,6.334,16.639,0,22.972c-6.33,6.331-16.63,6.332-22.962,0.008l-93.42-93.419c-2.537-2.539-6.654-2.539-9.191,0
	c-2.539,2.538-2.539,6.654,0,9.192l100.622,100.623c6.334,6.333,6.334,16.639,0,22.972c-3.067,3.068-7.146,4.758-11.486,4.758
	c-4.339,0-8.418-1.69-11.485-4.758l-95.387-95.387c-2.539-2.538-6.654-2.538-9.192,0s-2.539,6.654,0,9.192l78.161,78.162
	c6.328,6.334,6.326,16.634-0.005,22.965c-6.335,6.334-16.64,6.333-22.973,0l-84.888-84.888c-2.538-2.539-6.654-2.539-9.192,0
	c-2.539,2.538-2.539,6.654,0,9.192l62.967,62.967c0,0,0.001,0.001,0.001,0.001c6.334,6.333,6.334,16.638,0,22.972
	c-6.332,6.333-16.638,6.333-22.971,0L104.073,289.128c-21.926-21.926-35.776-50.986-38.998-81.826
	c-0.155-1.483-0.814-2.867-1.869-3.921l-52.11-52.111c-2.538-2.539-6.654-2.539-9.192,0c-2.539,2.538-2.539,6.654,0,9.192
	l50.502,50.502c3.968,32.934,18.996,63.876,42.475,87.355l9.586,9.586c-3.569,4.941-5.5,10.856-5.5,17.071
	c0,7.811,3.042,15.155,8.565,20.678c5.701,5.701,13.189,8.552,20.678,8.552c0.737,0,1.473-0.036,2.208-0.091
	c-0.251,1.552-0.386,3.134-0.386,4.737c0,7.811,3.042,15.155,8.565,20.678c5.701,5.701,13.189,8.552,20.678,8.552
	c1.457,0,2.914-0.111,4.358-0.327c-1.325,8.865,1.414,18.226,8.224,25.036c5.523,5.523,12.867,8.565,20.678,8.565
	c6.962,0,13.549-2.422,18.811-6.859c5.294,4.191,11.71,6.293,18.131,6.293c7.488,0,14.978-2.851,20.679-8.552
	c4.247-4.247,6.909-9.487,7.992-14.979l4.733,4.733c5.702,5.702,13.189,8.552,20.679,8.552c7.488,0,14.979-2.851,20.68-8.552
	c4.247-4.247,6.909-9.486,7.992-14.978l0.045,0.045c5.523,5.523,12.867,8.565,20.679,8.565c7.813,0,15.156-3.042,20.68-8.565
	c8.349-8.349,10.576-20.53,6.698-30.932c6.66-0.55,13.168-3.36,18.252-8.445c10.858-10.858,11.368-28.195,1.546-39.672l9.69-9.691
	c23.479-23.479,38.507-54.422,42.476-87.356l38.879-38.879C473.715,169.546,473.715,165.431,471.176,162.893z M116.725,336.462
	c-3.068-3.068-4.758-7.147-4.758-11.486c0-2.717,0.663-5.331,1.911-7.66l21.992,21.992c-2.328,1.248-4.943,1.911-7.66,1.911
	C123.872,341.221,119.793,339.531,116.725,336.462z M147.79,370.339c-3.068-3.068-4.758-7.147-4.758-11.486
	c0-3.413,1.059-6.656,2.999-9.382l22.624,22.624C162.318,376.587,153.464,376.012,147.79,370.339z M181.05,403.599
	c-5.674-5.674-6.248-14.527-1.756-20.865l22.624,22.624c-2.726,1.939-5.97,2.999-9.383,2.999
	C188.197,408.357,184.118,406.667,181.05,403.599z"/>
</svg>
