<?xml version="1.0" encoding="iso-8859-1"?>
<svg version="1.1" xmlns="http://www.w3.org/2000/svg" xmlns:xlink="http://www.w3.org/1999/xlink"
	 viewBox="0 0 490 490" style="enable-background:new 0 0 490 490;" xml:space="preserve">
	<path d="M483,431.629h-80.975l28.668-8.963c4.753-1.48,8.643-4.723,10.953-9.129c2.31-4.405,2.764-9.448,1.279-14.198
		L336.088,57.447c-2.438-7.822-9.57-13.077-17.752-13.077c-1.885,0-3.758,0.288-5.56,0.853l-65.677,20.52
		c-0.63,0.196-1.24,0.426-1.833,0.682v-2.704c0-10.263-8.346-18.613-18.604-18.613h-69.24c-4.392,0-8.426,1.539-11.611,4.094
		c-3.191-2.555-7.233-4.094-11.633-4.094H64.855c-10.269,0-18.625,8.35-18.625,18.613v367.908H7c-3.866,0-7,3.134-7,7
		c0,3.866,3.134,7,7,7h476c3.866,0,7-3.134,7-7C490,434.763,486.866,431.629,483,431.629z M429.247,407.037
		c-0.572,1.092-1.537,1.896-2.725,2.265l-65.67,20.531c-0.448,0.141-0.908,0.211-1.368,0.211c-2.003,0-3.82-1.337-4.418-3.251
		l-78.76-252.064l74.492-23.267l78.764,252.053C429.932,404.695,429.819,405.946,429.247,407.037z M346.623,138.1l-74.492,23.267
		l-8.518-27.26l74.49-23.271L346.623,138.1z M251.271,79.108l65.687-20.523c0.452-0.142,0.916-0.214,1.378-0.214
		c2.02,0,3.781,1.302,4.387,3.247l11.205,35.856l-74.49,23.271l-11.195-35.83C247.484,82.47,248.842,79.866,251.271,79.108z
		 M341.939,431.629h-96.674v-309.3L341.939,431.629z M152.817,207.605h78.448v19.492h-78.448V207.605z M231.266,193.605h-78.448
		v-68.511h78.448V193.605z M138.817,143.682H60.23v-18.588h78.587V143.682z M60.23,157.682h78.587v18.599H60.23V157.682z
		 M152.817,241.097h78.448v190.533h-78.448V241.097z M157.422,59.108h69.24c2.538,0,4.604,2.069,4.604,4.613v47.372h-78.448V63.722
		C152.817,61.178,154.883,59.108,157.422,59.108z M64.855,59.108h69.322c2.559,0,4.64,2.069,4.64,4.613v47.372H60.23V63.722
		C60.23,61.178,62.306,59.108,64.855,59.108z M60.23,190.281h78.587v241.349H60.23V190.281z"/>
</svg>
