<?xml version="1.0" encoding="iso-8859-1"?>
<svg version="1.1" xmlns="http://www.w3.org/2000/svg" xmlns:xlink="http://www.w3.org/1999/xlink" x="0px" y="0px"
	 width="484.702px" height="484.703px" viewBox="0 0 484.702 484.703" style="enable-background:new 0 0 484.702 484.703;"
	 xml:space="preserve">
<path d="M451.655,414.239H33.048C14.798,414.239,0,428.659,0,446.91c0,18.25,14.798,32.67,33.048,32.67h418.607
	c18.249,0,33.047-14.42,33.047-32.67C484.702,428.659,469.904,414.239,451.655,414.239z"/>
<path d="M217.351,370.521c13.862,19.657,37.98,17.842,50.002,0c30.482-45.242,126.299-177.947,126.299-177.947
	c7.233-10.19,6.901-23.929-0.812-33.762c-7.716-9.834-20.983-13.421-32.602-8.819l-73.499,29.111l9.703-143.854
	c0.531-7.827-2.223-15.52-7.6-21.238c-5.376-5.712-12.887-8.935-20.729-8.889h-51.525c-7.844-0.046-15.354,3.176-20.73,8.889
	c-5.376,5.718-8.13,13.412-7.6,21.238l9.704,143.854l-73.499-29.111c-11.617-4.602-24.886-1.015-32.602,8.819
	c-7.713,9.833-8.045,23.571-0.811,33.762C91.052,192.573,185.911,325.939,217.351,370.521z"/>
</svg>
