<?xml version="1.0" encoding="UTF-8"?>
<svg xmlns="http://www.w3.org/2000/svg" width="25" height="27" viewBox="0 0 25 27">
    <g stroke-width="2px" fill="none">
        <rect x="1" y="1" width="17" height="17" rx="2" ry="2"/>
        <path d="M2206,1721h2v2h-2v-2Zm4,0h2v2h-2v-2Zm4,0h2v2h-2v-2Zm4,0h2v2h-2v-2Zm4,0h2v2h-2v-2Zm-16,4h2v2h-2v-2Zm16,0h2v2h-2v-2Zm-16,4h2v2h-2v-2Zm16,0h2v2h-2v-2Zm-16,4h2v2h-2v-2Zm16,0h2v2h-2v-2Zm-16,4h2v2h-2v-2Zm4,0h2v2h-2v-2Zm4,0h2v2h-2v-2Zm4,0h2v2h-2v-2Zm4,0h2v2h-2v-2Z"
              transform="translate(-2199 -1712)"/>
    </g>
</svg>
