<svg xmlns="http://www.w3.org/2000/svg" viewBox="-50 -30 137.062 137.062"><path d="M-47.981 33.626c-2.692 2.692-2.692 7.119 0 9.81l61.607 61.607c2.692 2.692 7.119 2.692 9.81 0l61.607-61.606c2.692-2.692 2.692-7.12 0-9.811L23.437-27.981c-2.692-2.692-7.12-2.692-9.811 0z"/><path d="M83.269 35.387a4.447 4.447 0 0 1 0 6.289l-61.593 61.593a4.447 4.447 0 0 1-6.29 0l-61.593-61.593a4.447 4.447 0 0 1 0-6.29l61.594-61.593a4.447 4.447 0 0 1 6.289 0z" fill="#ffeb00"/><path d="M18.531-4.432C11.313-4.442 5.254 1.304 5.253 8.686c.001 1.925.472 3.25.472 3.25l11.181 44.971h3.25l11.181-44.972s.47-1.324.472-3.25c0-7.381-6.06-13.126-13.278-13.117zm10.772 75.155c0 5.949-4.823 10.772-10.772 10.772S7.76 76.672 7.76 70.723s4.822-10.772 10.771-10.772c5.95 0 10.772 4.823 10.772 10.772z"/></svg>