<svg xmlns="http://www.w3.org/2000/svg" viewBox="0 0 215.708 215.708"><path d="M63.302 103.257c6.54 0 11.84-7.59 11.84-14.13 0-6.546-5.307-11.847-11.84-11.847-6.545 0-11.853 5.307-11.853 11.847-.005 6.54 5.308 14.13 11.853 14.13zm89.125 0c6.546 0 11.849-7.59 11.849-14.13 0-6.546-5.31-11.847-11.849-11.847-6.54 0-11.844 5.307-11.844 11.847s5.31 14.13 11.844 14.13zm-80.95 51.644a10.45 10.45 0 01-2.25-7.757l4.625-41.638c-3.31-.719-7.051-1.291-10.55-1.291-8.36 0-18.082 3.249-19.997 3.909-.082.024-.143.049-.226.082-.042.019-.106.037-.125.043-.091.036-.155.112-.244.149-.447.194-.877.426-1.239.755-.167.149-.28.338-.423.511-.238.274-.469.542-.637.874-.149.293-.213.612-.295.923-.067.231-.192.423-.223.673l-3.748 33.737a4.685 4.685 0 004.664 5.199 4.678 4.678 0 004.652-4.164l3.41-30.738c.399-.122.84-.244 1.303-.378v31.98l-3.736 46.375c-.243 3.093 2.064 5.81 5.158 6.053.149.013.304.024.448.024a5.623 5.623 0 005.605-5.176l3.367-41.918a5.456 5.456 0 002.271.487 5.44 5.44 0 002.269-.487l3.373 41.918a5.616 5.616 0 005.593 5.176c.143 0 .307-.012.457-.024 3.093-.243 5.398-2.96 5.148-6.053l-2.862-35.622c-2.241-.516-4.293-1.74-5.788-3.622zm104.356-42.766c-.03-.237-.14-.423-.207-.648-.091-.329-.146-.654-.311-.959-.14-.277-.341-.487-.529-.719-.177-.243-.342-.481-.573-.679-.268-.226-.572-.375-.883-.536-.194-.106-.353-.262-.56-.344-.457-.155-11.234-4.028-20.351-4.028-3.501 0-7.233.588-10.546 1.297l4.621 41.632a10.427 10.427 0 01-2.246 7.758c-1.486 1.863-3.52 3.093-5.81 3.635l-2.868 35.622c-.249 3.093 2.064 5.803 5.151 6.059.152.012.311.012.457.012 2.904 0 5.371-2.223 5.602-5.163l3.374-41.918a5.573 5.573 0 004.536 0l3.367 41.918a5.618 5.618 0 005.603 5.163c.14 0 .298 0 .444-.012a5.634 5.634 0 005.157-6.059l-3.732-46.375v-31.986c.469.134.901.268 1.303.383l3.41 30.732a4.694 4.694 0 004.652 4.178 3.9 3.9 0 00.523-.037 4.686 4.686 0 004.141-5.176l-3.725-33.75zm-82.8-35.491c0 8.187 6.64 17.689 14.833 17.689 8.178 0 14.827-9.496 14.827-17.689s-6.649-14.827-14.827-14.827c-8.187 0-14.833 6.64-14.833 14.827z"/><path d="M136.668 154.141a5.866 5.866 0 005.176-6.479l-4.701-42.216c-.03-.295-.177-.53-.256-.813-.109-.411-.183-.822-.384-1.202-.17-.338-.426-.612-.651-.904-.231-.299-.433-.6-.719-.85-.335-.286-.718-.466-1.114-.673-.231-.131-.426-.329-.694-.423-.529-.186-12.336-4.42-23.181-4.981l-.089.174c-.73-.049-1.471-.174-2.195-.174s-1.445.131-2.183.174l-.067-.137c-9.897.5-20.554 4.022-22.773 4.801-.097.024-.18.064-.28.095-.055.024-.131.048-.143.055-.125.042-.191.137-.311.188-.563.25-1.093.53-1.553.941-.219.192-.356.423-.542.648-.295.347-.587.673-.794 1.083-.186.375-.262.762-.372 1.167-.076.286-.225.536-.262.843l-4.698 42.216a5.863 5.863 0 005.837 6.515 5.856 5.856 0 005.818-5.212l4.277-38.466a84.78 84.78 0 011.629-.472v40.021l-4.664 58.047a7.029 7.029 0 007.02 7.599 7.037 7.037 0 007.009-6.473l4.22-52.452c.868.39 1.827.615 2.838.615s1.97-.226 2.844-.615l4.213 52.452a7.037 7.037 0 007.581 6.449 7.034 7.034 0 006.449-7.575l-4.665-58.047v-40.034c.579.162 1.127.323 1.626.472l4.281 38.459a5.859 5.859 0 006.473 5.184zM92.777 16.922c.024.316.061.648.113.986h9.426a3.512 3.512 0 01-.036-.551 5.322 5.322 0 01-.037-.655v-.804c0-.679.067-1.477.198-2.393a8.277 8.277 0 01.804-2.576 5.69 5.69 0 011.754-2.046c.768-.56 1.771-.84 3.011-.84 1.173 0 2.095.25 2.773.749.683.496 1.206 1.083 1.571 1.75s.603 1.352.713 2.046c.104.691.158 1.221.158 1.589 0 1.607-.213 3.011-.651 4.223a14.62 14.62 0 01-1.666 3.285 29.053 29.053 0 01-2.155 2.792 33.604 33.604 0 00-2.158 2.737 14.551 14.551 0 00-1.666 3.124c-.441 1.136-.654 2.445-.654 3.931v3.249h9.426v-2.122c0-1.459.231-2.713.694-3.745a14.44 14.44 0 011.735-2.907 42.248 42.248 0 012.241-2.688 19.986 19.986 0 002.246-3.048c.688-1.142 1.273-2.487 1.729-4.034.463-1.547.694-3.428.694-5.645 0-1.97-.335-3.772-1.005-5.404a11.734 11.734 0 00-2.886-4.204c-1.255-1.172-2.771-2.083-4.562-2.737C112.798.329 110.798 0 108.575 0c-2.679 0-5.011.398-6.993 1.203-1.985.804-3.642 1.903-4.972 3.285a13.497 13.497 0 00-2.981 4.859c-.661 1.852-.983 3.821-.983 5.916 0 .243.006.511.018.807.013.291.061.584.113.852zm11.104 25.066h10.336v10.263h-10.336zM60.757 62.526h6.579v6.527h-6.579zm-7.063-15.938c.012.201.037.408.07.63h5.998a1.782 1.782 0 01-.027-.347 4.533 4.533 0 01-.024-.42v-.509c0-.432.045-.943.131-1.522a5.496 5.496 0 01.511-1.641c.256-.512.63-.94 1.118-1.303.493-.356 1.136-.536 1.921-.536.74 0 1.333.161 1.763.481.433.317.768.685.999 1.114.237.423.387.862.454 1.303.07.438.106.779.106 1.011 0 1.023-.137 1.915-.417 2.683-.28.767-.63 1.464-1.054 2.094s-.886 1.215-1.373 1.778a21.65 21.65 0 00-1.376 1.739c-.433.6-.78 1.267-1.054 1.982-.283.719-.42 1.553-.42 2.494v2.07h6.001v-1.346c0-.929.143-1.72.435-2.381a9.006 9.006 0 011.103-1.854c.444-.572.916-1.139 1.428-1.702a12.21 12.21 0 001.428-1.945c.438-.722.813-1.583 1.105-2.57.292-.977.441-2.18.441-3.583 0-1.254-.216-2.402-.643-3.443a7.484 7.484 0 00-1.839-2.673c-.798-.743-1.763-1.321-2.904-1.742-1.142-.417-2.415-.627-3.824-.627-1.702 0-3.185.256-4.445.768-1.267.508-2.32 1.202-3.16 2.088a8.519 8.519 0 00-1.896 3.09 11.18 11.18 0 00-.637 3.766c0 .158.006.332.012.511.026.195.044.369.069.542zm89.136 0c.012.201.036.408.073.63h5.997a1.895 1.895 0 01-.024-.347 4.533 4.533 0 01-.024-.42v-.509c0-.432.043-.943.128-1.522.086-.582.256-1.129.512-1.641s.627-.94 1.114-1.303c.493-.356 1.139-.536 1.925-.536.742 0 1.333.161 1.76.481.432.317.767.685.998 1.114.237.423.39.862.457 1.303.066.438.104.779.104 1.011 0 1.023-.134 1.915-.414 2.683a9.846 9.846 0 01-1.054 2.094c-.426.63-.889 1.215-1.37 1.778-.493.555-.95 1.139-1.382 1.739a8.96 8.96 0 00-1.054 1.982c-.28.719-.414 1.553-.414 2.494v2.07h5.998v-1.346c0-.929.14-1.72.433-2.381a8.935 8.935 0 011.107-1.854c.438-.572.914-1.139 1.425-1.702.512-.561.987-1.209 1.432-1.945.432-.722.81-1.583 1.102-2.57.293-.977.444-2.18.444-3.583 0-1.254-.219-2.402-.645-3.443a7.538 7.538 0 00-1.84-2.673c-.797-.743-1.766-1.321-2.904-1.742-1.145-.417-2.417-.627-3.824-.627-1.698 0-3.185.256-4.444.768-1.267.508-2.32 1.202-3.16 2.088a8.611 8.611 0 00-1.9 3.09 11.254 11.254 0 00-.633 3.766c0 .158.006.332.012.511.022.195.041.369.065.542zm7.069 15.938h6.576v6.527h-6.576z"/></svg>