<svg xmlns="http://www.w3.org/2000/svg" viewBox="0 0 463 463"><path d="M375.5 16H359V7.5c0-4.143-3.357-7.5-7.5-7.5S344 3.357 344 7.5V16h-33V7.5c0-4.143-3.357-7.5-7.5-7.5S296 3.357 296 7.5V16h-33V7.5c0-4.143-3.357-7.5-7.5-7.5S248 3.357 248 7.5V16h-33V7.5c0-4.143-3.357-7.5-7.5-7.5S200 3.357 200 7.5V16h-33V7.5c0-4.143-3.357-7.5-7.5-7.5S152 3.357 152 7.5V16h-33V7.5c0-4.143-3.357-7.5-7.5-7.5S104 3.357 104 7.5V16H87.5C74.542 16 64 26.542 64 39.5v400c0 12.958 10.542 23.5 23.5 23.5h288c12.958 0 23.5-10.542 23.5-23.5v-400c0-12.958-10.542-23.5-23.5-23.5zm8.5 423.5c0 4.687-3.813 8.5-8.5 8.5h-288c-4.687 0-8.5-3.813-8.5-8.5v-400c0-4.687 3.813-8.5 8.5-8.5H104v8.5c0 4.143 3.357 7.5 7.5 7.5s7.5-3.357 7.5-7.5V31h33v8.5c0 4.143 3.357 7.5 7.5 7.5s7.5-3.357 7.5-7.5V31h33v8.5c0 4.143 3.357 7.5 7.5 7.5s7.5-3.357 7.5-7.5V31h33v8.5c0 4.143 3.357 7.5 7.5 7.5s7.5-3.357 7.5-7.5V31h33v8.5c0 4.143 3.357 7.5 7.5 7.5s7.5-3.357 7.5-7.5V31h33v8.5c0 4.143 3.357 7.5 7.5 7.5s7.5-3.357 7.5-7.5V31h16.5c4.687 0 8.5 3.813 8.5 8.5v400z"/><path d="M207.5 119h112c4.143 0 7.5-3.357 7.5-7.5s-3.357-7.5-7.5-7.5h-112c-4.143 0-7.5 3.357-7.5 7.5s3.357 7.5 7.5 7.5zm144 17h-144c-4.143 0-7.5 3.357-7.5 7.5s3.357 7.5 7.5 7.5h144c4.143 0 7.5-3.357 7.5-7.5s-3.357-7.5-7.5-7.5zM170.196 98.196L135.5 132.894l-18.696-18.697a7.5 7.5 0 00-10.607 10.607l24 24c1.465 1.464 3.385 2.196 5.304 2.196s3.839-.732 5.304-2.196l40-40a7.5 7.5 0 10-10.609-10.608zM207.5 199h112c4.143 0 7.5-3.357 7.5-7.5s-3.357-7.5-7.5-7.5h-112c-4.143 0-7.5 3.357-7.5 7.5s3.357 7.5 7.5 7.5zm144 17h-144c-4.143 0-7.5 3.357-7.5 7.5s3.357 7.5 7.5 7.5h144c4.143 0 7.5-3.357 7.5-7.5s-3.357-7.5-7.5-7.5zm-181.304-37.804L135.5 212.894l-18.696-18.697a7.5 7.5 0 00-10.607 10.607l24 24c1.465 1.464 3.385 2.196 5.304 2.196s3.839-.732 5.304-2.196l40-40a7.5 7.5 0 10-10.609-10.608zM207.5 279h112c4.143 0 7.5-3.357 7.5-7.5s-3.357-7.5-7.5-7.5h-112c-4.143 0-7.5 3.357-7.5 7.5s3.357 7.5 7.5 7.5zm144 17h-144c-4.143 0-7.5 3.357-7.5 7.5s3.357 7.5 7.5 7.5h144c4.143 0 7.5-3.357 7.5-7.5s-3.357-7.5-7.5-7.5zm-181.304-37.804L135.5 292.894l-18.696-18.697a7.5 7.5 0 00-10.607 10.607l24 24c1.465 1.464 3.385 2.196 5.304 2.196s3.839-.732 5.304-2.196l40-40a7.5 7.5 0 10-10.609-10.608zM207.5 359h112c4.143 0 7.5-3.357 7.5-7.5s-3.357-7.5-7.5-7.5h-112c-4.143 0-7.5 3.357-7.5 7.5s3.357 7.5 7.5 7.5zm144 17h-144c-4.143 0-7.5 3.357-7.5 7.5s3.357 7.5 7.5 7.5h144c4.143 0 7.5-3.357 7.5-7.5s-3.357-7.5-7.5-7.5zm-181.304-37.804L135.5 372.894l-18.696-18.697a7.5 7.5 0 00-10.607 10.607l24 24c1.465 1.464 3.385 2.196 5.304 2.196s3.839-.732 5.304-2.196l40-40a7.5 7.5 0 10-10.609-10.608z"/></svg>