<svg xmlns="http://www.w3.org/2000/svg" viewBox="0 0 325.051 325.051"><path d="M162.523 86.532c-41.904 0-76 34.089-76 75.994 0 41.901 34.096 75.996 76 75.996s76-34.095 76-75.996c0-41.905-34.096-75.994-76-75.994zm0 139.693c-35.128 0-63.702-28.571-63.702-63.699 0-35.122 28.574-63.696 63.702-63.696 35.131 0 63.702 28.574 63.702 63.696 0 35.127-28.571 63.699-63.702 63.699z"/><path d="M302.503 130.583h-11.505c-5.975-24.202-18.537-45.916-36.587-63.3l5.765-9.977c6.329-10.965-.865-26.571-16.382-35.531-6.484-3.738-13.654-5.803-20.206-5.803-8.473 0-15.3 3.419-18.74 9.37l-5.759 9.974c-23.749-6.83-49.345-6.83-73.121 0l-5.755-9.974c-3.444-5.957-10.269-9.37-18.744-9.37-6.548 0-13.724 2.065-20.203 5.803C65.752 30.729 58.55 46.33 64.879 57.3l5.768 9.977c-18.065 17.39-30.615 39.104-36.593 63.312h-11.5C9.908 130.589 0 144.613 0 162.525s9.908 31.945 22.554 31.945h11.499c5.978 24.199 18.534 45.913 36.593 63.303l-5.768 9.98c-6.329 10.964.874 26.564 16.387 35.523 6.479 3.735 13.655 5.801 20.203 5.801 8.476 0 15.3-3.423 18.744-9.367l5.755-9.968c23.77 6.827 49.372 6.827 73.115-.013l5.765 9.98c3.44 5.957 10.268 9.367 18.74 9.367 6.552 0 13.722-2.065 20.206-5.801 15.517-8.959 22.711-24.56 16.382-35.523l-5.765-9.98c18.062-17.39 30.612-39.104 36.587-63.303h11.493c12.64 0 22.554-14.027 22.56-31.945.007-8.043-2.041-15.69-5.764-21.539-4.197-6.61-10.321-10.402-16.783-10.402zm-.011 51.59h-16.399a6.147 6.147 0 0 0-6.017 4.906c-5.23 25.196-18.212 47.653-37.536 64.941a6.145 6.145 0 0 0-1.225 7.656l8.215 14.226c2.432 4.203-2.145 13.103-11.884 18.723-8.779 5.092-19.636 5.272-22.146.938l-8.215-14.22a6.144 6.144 0 0 0-7.248-2.768c-24.205 7.98-50.771 7.992-75.018.006-2.759-.889-5.786.24-7.248 2.769l-8.202 14.214c-2.504 4.335-13.352 4.154-22.149-.932-9.74-5.62-14.309-14.52-11.886-18.723l8.214-14.226a6.151 6.151 0 0 0-1.222-7.649c-19.332-17.294-32.314-39.752-37.542-64.948a6.153 6.153 0 0 0-6.02-4.899H22.548c-4.837 0-10.256-8.401-10.256-19.648 0-11.241 5.419-19.639 10.256-19.639h16.405a6.144 6.144 0 0 0 6.02-4.902c5.233-25.208 18.215-47.667 37.539-64.948a6.145 6.145 0 0 0 1.225-7.656l-8.214-14.222c-2.429-4.207 2.147-13.105 11.886-18.726 8.797-5.083 19.639-5.269 22.149-.934l8.203 14.216a6.164 6.164 0 0 0 7.248 2.774c24.232-7.974 50.801-7.974 75.03 0a6.168 6.168 0 0 0 7.248-2.768L215.5 31.51c2.504-4.32 13.354-4.144 22.146.942 9.739 5.618 14.304 14.523 11.878 18.729l-8.215 14.222a6.158 6.158 0 0 0 1.225 7.656c19.323 17.282 32.306 39.74 37.53 64.945a6.162 6.162 0 0 0 6.022 4.9h16.411c2.174 0 4.504 1.714 6.413 4.71 2.438 3.843 3.837 9.284 3.837 14.94.001 11.218-5.421 19.619-10.255 19.619z"/></svg>