<svg viewBox="0 0 478.165 478.165">
    <path d="M349.22,55.768c6.136,14.046,10.241,37.556,4.224,54.69
	c24.426,20.999,33.073,71.904,21.079,113.704c35.006,2.73,76.666-1.235,103.642,9.484c-25.183-3.248-59.651-9.563-91.987-7.431
	c-6.136,0.458-15.361-0.239-14.903,8.408c37.735,3.008,75.092,6.117,105.894,15.779c-30.702-4.981-67.74-12.552-105.894-13.668
	c-15.54,30.921-47.239,46.262-90.991,49.49c4.682,10.261,13.847,14.066,15.879,30.702c3.267,24.406-4.881,60.328,3.208,76.686
	c4.064,7.89,10.579,8.009,14.863,14.604c-10.699,12.871-37.257-1.395-40.186-14.604c-5.14-22.852,7.89-58.256-6.415-73.737
	c0.996,24.865-5.718,59.85,0.996,82.145c2.789,8.806,10.659,12.113,8.647,20.063c-49.809,5.08-28.989-64.373-37.177-105.356
	c-7.471,0.697-4.204,11.197-4.224,15.76c-0.199,40.106,8.189,94.836-34.846,89.556c-1.315-8.348,5.838-11.217,8.467-19.007
	c7.91-22.434-1.454-56.045,2.112-83.161c-16.417,12.512,1.793,55.666-8.428,77.961c-5.838,12.671-24.785,18.27-39.19,12.651
	c1.873-9.464,11.695-7.989,15.879-16.875c5.818-12.452,0.02-30.244,2.092-48.494c-30.423,6.097-53.993-0.877-65.608-20.023
	c-5.12-8.507-6.356-18.708-12.632-26.219c-6.117-7.551-16.098-8.507-19.087-18.808c37.755-9.185,39.17,38.771,73.06,39.807
	c10.44,0.418,15.799-2.909,25.402-5.16c2.749-12.113,8.428-21.039,16.875-27.494c-42.078-5.658-76.865-18.788-93.023-50.466
	c-38.293,1.893-73.339,7.013-105.894,14.843c29.547-10.679,65.807-14.604,104.778-15.819c-2.351-13.807-22.434-10.022-34.866-9.543
	C47.677,227.17,18.449,230.138,0,233.645c26.817-9.543,64.233-8.348,100.454-8.428c-11.038-34.767-7.232-90.014,17.015-110.615
	c-6.854-17.254-4.722-45.346,4.184-58.834c27.036,1.175,43.374,12.891,60.388,24.247c21.019-6.017,43.035-9.045,71.904-7.451
	c12.133,0.677,24.705,6.097,33.731,5.32c8.906-0.877,18.728-10.898,27.534-14.843C326.507,58.099,336.17,56.206,349.22,55.768z"/>
</svg>
