<svg xmlns="http://www.w3.org/2000/svg" viewBox="0 0 60 60"><path d="M54 12H42V7h9c.6 0 1-.4 1-1 0-3.4-2.6-6-6-6H6C1.3 0 0 3.9 0 6v53c0 .6.4 1 1 1h48c.6 0 1-.4 1-1V19h9c.6 0 1-.4 1-1 0-3.4-2.6-6-6-6zm-4.1-7h-7.8c.1-.4.3-.8.5-1.2l.1-.1c.1-.2.2-.3.4-.4l.2-.2c.1-.1.2-.2.4-.3.1 0 .1-.1.2-.1.1-.1.3-.2.5-.2.1 0 .1-.1.2-.1.2-.1.4-.1.5-.2h.2c.2 0 .5-.1.8-.1 1.8-.1 3.4 1.2 3.8 2.9zM2 6c0-.2 0-4 4-4h35.5C40.6 3 40 4.4 40 6v6H14c-4.7 0-6 3.9-6 6v40H2V6zm46 52H10V18c0-.2 0-4 4-4h35.5c-.9 1-1.5 2.4-1.5 4v40zm2.1-41c.1-.4.3-.8.5-1.2l.1-.1c.1-.2.2-.3.4-.4l.2-.2c.1-.1.2-.2.4-.3.1 0 .1-.1.2-.1.1-.1.3-.2.5-.2.1 0 .1-.1.2-.1.2-.1.4-.1.5-.2h.2c.2 0 .5-.1.8-.1 1.9 0 3.5 1.3 3.9 3h-7.9V17z"/><path d="M44 35h-5v2h4v8H31c-.6 0-1 .4-1 1v7h-3v-5c0-.6-.4-1-1-1H15v-2h-2v9c0 .6.4 1 1 1h30c.6 0 1-.4 1-1V36c0-.6-.4-1-1-1zM15 49h10v4H15v-4zm17 4v-6h11v6H32zM15 37h18v-2H14c-.6 0-1 .4-1 1v3h2v-2z"/><path d="M37 42V31.4l1.3 1.3 1.4-1.4-3-3c-.4-.4-1-.4-1.4 0l-3 3 1.4 1.4 1.3-1.3V41H12v2h24c.6 0 1-.4 1-1zM34 49h2v2h-2zM39 49h2v2h-2zM14 18h6v2h-6zM14 22h16v2H14zM28 4h8v2h-8zM24 8h12v2H24zM39 18h2v2h-2zM43 18h2v2h-2zM39 22h2v2h-2zM43 22h2v2h-2z"/></svg>