<svg xmlns="http://www.w3.org/2000/svg" width="21.005" height="14.879" viewBox="0 0 21.005 14.879"><defs><style>.a{fill:#516baa;stroke:#516baa;}</style></defs><g transform="translate(271.632 -418.372)"><g transform="translate(-266.229 431.045)"><path class="a" d="M-218.5,513.215h-14.583a.259.259,0,0,1-.259-.26.259.259,0,0,1,.259-.259H-218.5a.26.26,0,0,1,.259.259A.259.259,0,0,1-218.5,513.215Z" transform="translate(233.345 -512.696)"/></g><g transform="translate(-266.229 425.684)"><path class="a" d="M-218.5,471.9h-14.583a.259.259,0,0,1-.259-.26.26.26,0,0,1,.259-.259H-218.5a.26.26,0,0,1,.259.259A.26.26,0,0,1-218.5,471.9Z" transform="translate(233.345 -471.376)"/></g><g transform="translate(-266.229 420.323)"><path class="a" d="M-218.5,430.574h-14.583a.259.259,0,0,1-.259-.259.259.259,0,0,1,.259-.259H-218.5a.26.26,0,0,1,.259.259A.259.259,0,0,1-218.5,430.574Z" transform="translate(233.345 -430.055)"/></g><g transform="translate(-271.132 429.814)"><path class="a" d="M-269.663,506.145a1.47,1.47,0,0,1-1.469-1.469,1.47,1.47,0,0,1,1.469-1.469,1.47,1.47,0,0,1,1.469,1.469A1.47,1.47,0,0,1-269.663,506.145Zm0-2.418a.951.951,0,0,0-.95.95.951.951,0,0,0,.95.95.951.951,0,0,0,.95-.95A.951.951,0,0,0-269.663,503.727Z" transform="translate(271.132 -503.208)"/></g><g transform="translate(-271.132 424.556)"><path class="a" d="M-269.663,465.62a1.47,1.47,0,0,1-1.469-1.469,1.47,1.47,0,0,1,1.469-1.469,1.47,1.47,0,0,1,1.469,1.469A1.47,1.47,0,0,1-269.663,465.62Zm0-2.418a.951.951,0,0,0-.95.95.951.951,0,0,0,.95.95.951.951,0,0,0,.95-.95A.951.951,0,0,0-269.663,463.2Z" transform="translate(271.132 -462.683)"/></g><g transform="translate(-271.132 418.872)"><path class="a" d="M-269.663,421.809a1.47,1.47,0,0,1-1.469-1.469,1.47,1.47,0,0,1,1.469-1.469,1.47,1.47,0,0,1,1.469,1.469A1.47,1.47,0,0,1-269.663,421.809Zm0-2.418a.951.951,0,0,0-.95.95.951.951,0,0,0,.95.95.951.951,0,0,0,.95-.95A.951.951,0,0,0-269.663,419.391Z" transform="translate(271.132 -418.872)"/></g></g></svg>
