<svg xmlns="http://www.w3.org/2000/svg" width="21.005" height="14.879" viewBox="0 0 21.005 14.879"><defs><style>.a{fill:#516baa;stroke:#516baa}</style></defs><path class="a" d="M20.248 13.192H5.665a.259.259 0 0 1-.259-.26.259.259 0 0 1 .259-.259h14.583a.26.26 0 0 1 .259.259.259.259 0 0 1-.259.26ZM20.248 7.836H5.665a.259.259 0 0 1-.259-.26.26.26 0 0 1 .259-.259h14.583a.26.26 0 0 1 .259.259.26.26 0 0 1-.259.26ZM20.248 2.47H5.665a.259.259 0 0 1-.259-.259.259.259 0 0 1 .259-.259h14.583a.26.26 0 0 1 .259.259.259.259 0 0 1-.259.259ZM1.969 14.379A1.47 1.47 0 0 1 .5 12.91a1.47 1.47 0 0 1 1.469-1.469 1.47 1.47 0 0 1 1.469 1.469 1.47 1.47 0 0 1-1.469 1.469Zm0-2.418a.951.951 0 0 0-.95.95.951.951 0 0 0 .95.95.951.951 0 0 0 .95-.95.951.951 0 0 0-.95-.95ZM1.969 9.121A1.47 1.47 0 0 1 .5 7.652a1.47 1.47 0 0 1 1.469-1.469 1.47 1.47 0 0 1 1.469 1.469 1.47 1.47 0 0 1-1.469 1.469Zm0-2.418a.951.951 0 0 0-.95.95.951.951 0 0 0 .95.95.951.951 0 0 0 .95-.95.951.951 0 0 0-.95-.952ZM1.969 3.437A1.47 1.47 0 0 1 .5 1.968 1.47 1.47 0 0 1 1.969.499a1.47 1.47 0 0 1 1.469 1.469 1.47 1.47 0 0 1-1.469 1.469Zm0-2.418a.951.951 0 0 0-.95.95.951.951 0 0 0 .95.95.951.951 0 0 0 .95-.95.951.951 0 0 0-.95-.95Z"/></svg>