<svg xmlns="http://www.w3.org/2000/svg" viewBox="0 0 58 58"><path d="M56.924 36.82c.001-.005-.001-.011.001-.016C57.62 34.319 58 31.704 58 29s-.38-5.319-1.075-7.804c-.001-.005.001-.011-.001-.016-.002-.008-.008-.013-.01-.02A28.864 28.864 0 0 0 56 18.439v-.329a.984.984 0 0 0-.487-.838 28.905 28.905 0 0 0-1.154-2.318.983.983 0 0 0 .641.248 1 1 0 0 0 1-1v-.977a1 1 0 1 0-2 0v.977c0 .06.024.111.034.168-.071-.121-.145-.239-.218-.359l-.04-.065c-.069-.113-.135-.228-.206-.34-.01-.016-.027-.024-.037-.039a29.143 29.143 0 0 0-2.133-2.962c-.007-.01-.009-.021-.016-.031a29.62 29.62 0 0 0-.607-.713c-.015-.017-.036-.024-.052-.04a29.174 29.174 0 0 0-2.555-2.553c-.015-.015-.021-.035-.038-.049a29.067 29.067 0 0 0-.711-.604c-.007-.006-.016-.007-.024-.013a29.104 29.104 0 0 0-2.968-2.137c-.015-.011-.023-.027-.04-.038-.11-.069-.223-.135-.334-.202l-.064-.039c-.122-.074-.244-.15-.367-.222.063.011.121.036.188.036h.977a1 1 0 1 0 0-2h-.977a1 1 0 0 0-1 1c0 .253.102.477.256.653a28.944 28.944 0 0 0-2.339-1.166.985.985 0 0 0-.838-.487h-.329a28.643 28.643 0 0 0-2.724-.915c-.006-.001-.01-.006-.017-.008h-.013C34.322.38 31.705 0 29 0s-5.322.38-7.808 1.077h-.013c-.006.001-.01.006-.017.008-.928.261-1.836.566-2.724.915h-.329a.984.984 0 0 0-.838.487c-.792.352-1.565.735-2.318 1.154A.983.983 0 0 0 15.201 3a1 1 0 0 0-1-1h-.977a1 1 0 1 0 0 2h.977c.06 0 .112-.024.169-.034-.118.069-.234.142-.351.212l-.083.05c-.111.068-.223.133-.333.201-.016.01-.024.026-.039.037A29.466 29.466 0 0 0 10.6 6.602c-.008.006-.018.008-.026.014-.241.198-.479.4-.713.607-.017.015-.023.034-.037.049a29.22 29.22 0 0 0-2.556 2.556c-.015.016-.035.022-.05.038a29.62 29.62 0 0 0-.607.713c-.007.009-.008.02-.015.029a29.121 29.121 0 0 0-2.132 2.961c-.011.016-.029.025-.039.042-.072.115-.14.232-.21.348a.413.413 0 0 0-.022.035c-.077.127-.155.253-.23.381.012-.062.037-.12.037-.187v-.977a1 1 0 1 0-2 0v.977a1 1 0 0 0 1 1 .988.988 0 0 0 .653-.256c-.423.759-.811 1.54-1.166 2.339a.985.985 0 0 0-.487.838v.329a28.675 28.675 0 0 0-.914 2.721c-.002.008-.008.013-.01.02-.001.005.001.011-.001.016C.38 23.681 0 26.296 0 29s.38 5.319 1.075 7.804c.001.005-.001.011.001.016.002.009.008.016.011.025.26.925.565 1.831.913 2.717v.329c0 .361.201.662.487.838.352.792.735 1.565 1.154 2.318A.985.985 0 0 0 3 42.799a1 1 0 0 0-1 1v.977a1 1 0 1 0 2 0v-.977c0-.059-.024-.11-.034-.167.074.126.151.25.227.374l.022.036c.072.118.141.237.214.353.016.026.039.045.057.069A29.125 29.125 0 0 0 6.6 47.397c.007.01.009.021.016.031.199.241.401.479.607.713.014.016.034.021.049.036a29.116 29.116 0 0 0 2.558 2.557c.015.015.021.035.038.049.234.205.471.407.711.604.008.007.019.009.027.015a29.2 29.2 0 0 0 2.965 2.135c.015.011.023.027.04.038.11.069.223.135.334.202l.064.039c.122.074.243.15.367.222-.063-.013-.121-.038-.188-.038h-.977a1 1 0 1 0 0 2h.977a1 1 0 0 0 1-1 .99.99 0 0 0-.256-.653c.759.423 1.54.811 2.339 1.166a.985.985 0 0 0 .838.487h.329c.888.349 1.796.654 2.724.915.006.001.01.006.017.008.007.002.013.001.02.002C23.683 57.62 26.297 58 29 58s5.317-.38 7.801-1.075l.02-.002c.006-.001.01-.006.017-.008A28.643 28.643 0 0 0 39.562 56h.329a.984.984 0 0 0 .838-.487 28.74 28.74 0 0 0 2.318-1.154.983.983 0 0 0-.248.641 1 1 0 0 0 1 1h.977a1 1 0 1 0 0-2h-.977c-.06 0-.112.024-.169.034.118-.069.234-.142.351-.212l.083-.05c.111-.068.223-.133.333-.201.016-.01.024-.026.039-.037a29.121 29.121 0 0 0 2.961-2.132c.009-.007.021-.01.03-.017.241-.198.479-.4.713-.607.016-.014.022-.034.037-.049a29.44 29.44 0 0 0 2.559-2.56c.014-.014.033-.019.046-.034.206-.234.408-.472.607-.713.007-.009.008-.02.015-.029a29.125 29.125 0 0 0 2.114-2.933c.018-.024.041-.043.057-.069.072-.115.14-.232.21-.348l.022-.036c.077-.127.155-.253.23-.381-.012.062-.037.119-.037.186v.977a1 1 0 1 0 2 0v-.977a1 1 0 0 0-1-1 .988.988 0 0 0-.653.256c.423-.759.811-1.54 1.166-2.339a.985.985 0 0 0 .487-.838v-.329c.348-.885.652-1.791.913-2.717.002-.009.009-.015.011-.025zm-4.852 6.191a27.207 27.207 0 0 1-9.039 9.047l-.094.057a26.865 26.865 0 0 1-5.645 2.576l-2.789-11.156a15.62 15.62 0 0 0 9.031-9.031l11.156 2.789a26.896 26.896 0 0 1-2.591 5.671l-.029.047zm-37.02 9.098l-.075-.045a27.21 27.21 0 0 1-9.08-9.106 26.889 26.889 0 0 1-2.588-5.665l11.156-2.789a15.617 15.617 0 0 0 9.031 9.031l-2.789 11.156a26.89 26.89 0 0 1-5.655-2.582zm-9.124-37.12a27.207 27.207 0 0 1 9.039-9.047l.094-.057a26.865 26.865 0 0 1 5.645-2.576l2.789 11.156a15.62 15.62 0 0 0-9.031 9.031L3.308 20.707a26.896 26.896 0 0 1 2.591-5.671l.029-.047zm7.947 10.42c-.274 1.155-.435 2.353-.435 3.591s.161 2.436.435 3.591L2.766 35.368C2.269 33.325 2 31.194 2 29s.269-4.325.766-6.368l11.109 2.777zM15.44 29c0-7.477 6.083-13.56 13.56-13.56S42.56 21.523 42.56 29 36.477 42.56 29 42.56 15.44 36.477 15.44 29zM42.948 5.891l.075.045a27.206 27.206 0 0 1 9.036 9.034l.053.088a26.895 26.895 0 0 1 2.578 5.648l-11.156 2.789a15.617 15.617 0 0 0-9.031-9.031l2.789-11.156a26.93 26.93 0 0 1 5.656 2.583zM56 29c0 2.194-.269 4.325-.766 6.368l-11.109-2.777c.274-1.155.435-2.353.435-3.591s-.161-2.436-.435-3.591l11.109-2.777C55.731 24.675 56 26.806 56 29zM35.368 2.766l-2.777 11.11c-1.155-.275-2.353-.436-3.591-.436s-2.436.161-3.591.435l-2.777-11.11C24.675 2.27 26.806 2 29 2s4.325.27 6.368.766zM22.632 55.234l2.777-11.11c1.155.274 2.353.435 3.591.435s2.436-.161 3.591-.435l2.777 11.11C33.325 55.73 31.194 56 29 56s-4.325-.27-6.368-.766zM3.958 5.639a1 1 0 0 0 .78-.373c.159-.198.339-.378.534-.533a1 1 0 0 0-1.247-1.565c-.31.248-.595.531-.846.844a1 1 0 0 0 .779 1.627zM3 10.304a1 1 0 0 0 1-1v-.978a1 1 0 1 0-2 0v.978a1 1 0 0 0 1 1zM8.339 4h.977a1 1 0 1 0 0-2h-.977a1 1 0 1 0 0 2zM54 8.339v.978a1 1 0 1 0 2 0v-.978a1 1 0 1 0-2 0zm-.732-3.068a.999.999 0 0 0 1.406.159 1 1 0 0 0 .159-1.405 5.465 5.465 0 0 0-.845-.848 1 1 0 1 0-1.252 1.56c.196.159.375.338.532.534zM48.696 4h.977a1 1 0 1 0 0-2h-.977a1 1 0 1 0 0 2zm4.567 48.734a3.407 3.407 0 0 1-.534.533 1 1 0 1 0 1.247 1.564c.311-.248.596-.531.847-.844a1 1 0 1 0-1.56-1.253zM49.661 54h-.977a1 1 0 1 0 0 2h.977a1 1 0 1 0 0-2zM55 47.696a1 1 0 0 0-1 1v.978a1 1 0 1 0 2 0v-.978a1 1 0 0 0-1-1zM9.304 54h-.977a1 1 0 1 0 0 2h.977a1 1 0 1 0 0-2zM4 49.661v-.978a1 1 0 1 0-2 0v.978a1 1 0 1 0 2 0zm.732 3.068a1 1 0 0 0-1.564 1.246c.249.312.533.597.845.848a.998.998 0 0 0 1.405-.154 1 1 0 0 0-.154-1.406 3.534 3.534 0 0 1-.532-.534z"/></svg>