<svg xmlns="http://www.w3.org/2000/svg" xmlns:xlink="http://www.w3.org/1999/xlink" width="41px" height="43px" viewBox="0 0 41 43" version="1.1">
  <path
     d="M 41.78372,9.74109 C 41.13753,5.01352 36.951187,1.2878779 31.9886,0.565946 31.151355,0.4439591 27.979084,0 20.630731,0 h -0.05488 C 13.225458,0 11.648478,0.4439591 10.811232,0.565946 5.9868071,1.2678765 1.5810444,4.6155561 0.51211359,9.399117 c -0.51414232,2.355775 -0.56901143,4.967519 -0.47349861,7.363263 0.13615621,3.435667 0.16257469,6.865326 0.47959541,10.287046 0.21916475,2.272832 0.60149261,4.52758 1.14412071,6.747347 1.0160905,4.099602 5.1292366,7.511288 9.1590499,8.903108 4.314526,1.451517 8.954414,1.69252 13.400243,0.695966 0.489036,-0.112026 0.972742,-0.241967 1.45095,-0.389992 1.079099,-0.337949 2.345172,-0.715923 3.275905,-1.379857 0.01276,-0.0093 0.02325,-0.02132 0.03062,-0.03521 0.0074,-0.01383 0.01151,-0.02914 0.01202,-0.04479 V 38.23035 c -2.27e-4,-0.01463 -0.0037,-0.02903 -0.01037,-0.04212 -0.0066,-0.0131 -0.01604,-0.02455 -0.02778,-0.03356 -0.01168,-0.009 -0.02529,-0.01531 -0.03974,-0.01848 -0.01451,-0.0032 -0.02954,-0.0031 -0.044,1.7e-4 -2.848381,0.669548 -5.767233,1.005172 -8.695723,0.9999 -5.039803,0 -6.395283,-2.353791 -6.783461,-3.333676 -0.311982,-0.846885 -0.510126,-1.730335 -0.589326,-2.62779 -7.94e-4,-0.01502 0.002,-0.0301 0.0082,-0.04388 0.0062,-0.01383 0.01565,-0.02597 0.0275,-0.03555 0.01191,-0.0095 0.02591,-0.01616 0.04088,-0.01939 0.01497,-0.0032 0.0305,-0.0029 0.04536,8.5e-4 2.80093,0.665013 5.672159,1.000637 8.553481,0.9999 0.692962,0 1.383881,0 2.0769,-0.01797 2.897876,-0.07999 5.952224,-0.225979 8.803385,-0.773977 0.07115,-0.01395 0.142243,-0.02596 0.203244,-0.04399 4.497193,-0.849888 8.776966,-3.517646 9.21186,-10.272987 0.01627,-0.265948 0.05692,-2.785735 0.05692,-3.061718 0.002,-0.937877 0.306882,-6.65335 -0.04473,-10.164987 z m -6.921622,16.856378 h -4.72884 V 15.198553 c 0,-2.399768 -1.016113,-3.623663 -3.082866,-3.623663 -2.271982,0 -3.409986,1.447832 -3.409986,4.30761 v 6.239376 H 18.939969 V 15.8825 c 0,-2.859778 -1.140045,-4.30761 -3.412026,-4.30761 -2.054564,0 -3.080825,1.223895 -3.082866,3.623663 V 26.597468 H 7.7202619 V 14.852554 c 0,-2.399768 0.6225485,-4.306249 1.8675889,-5.7194418 1.2843282,-1.4098476 2.9690262,-2.1337637 5.0601552,-2.1337637 2.420292,0 4.249273,0.9158794 5.468574,2.7457105 l 1.176669,1.943842 1.178653,-1.943842 c 1.219302,-1.8298311 3.048282,-2.7457105 5.464548,-2.7457105 2.08909,0 3.77373,0.7239161 5.06214,2.1337637 1.245098,1.4118888 1.867589,3.3183698 1.867589,5.7194418 z"
     fill="inherit"
     id="path1"
     style="stroke-width:0.566932" />
</svg>
