<svg xmlns="http://www.w3.org/2000/svg" viewBox="0 0 455.005 455.005"><path d="M446.158 267.615c-5.622-3.103-12.756-2.421-19.574 1.871l-125.947 79.309a7.5 7.5 0 007.993 12.693l125.947-79.309c2.66-1.675 4.116-1.552 4.331-1.432.218.12 1.096 1.285 1.096 4.428 0 8.449-6.271 19.809-13.42 24.311l-122.099 76.885c-6.492 4.088-12.427 5.212-16.284 3.084-3.856-2.129-6.067-7.75-6.067-15.423 0-19.438 13.896-44.61 30.345-54.967l139.023-87.542a7.5 7.5 0 000-12.694L184.368 50.615a7.5 7.5 0 00-7.993 0L35.66 139.223C15.664 151.815 0 180.188 0 203.818v4c0 23.63 15.664 52.004 35.66 64.595l209.292 131.791a7.501 7.501 0 007.993-12.693L43.653 259.72C28.121 249.941 15 226.172 15 207.818v-4c0-18.354 13.121-42.122 28.653-51.902l136.718-86.091 253.059 159.35-128.944 81.196c-20.945 13.189-37.352 42.909-37.352 67.661 0 13.495 4.907 23.636 13.818 28.555 3.579 1.976 7.526 2.956 11.709 2.956 6.231 0 12.985-2.176 19.817-6.479l122.099-76.885c11.455-7.213 20.427-23.467 20.427-37.004 0-8.056-3.224-14.456-8.846-17.56z"/><path d="M353.664 232.676a7.5 7.5 0 004.004-13.847l-173.3-109.126a7.5 7.5 0 00-7.993 12.693l173.3 109.126a7.467 7.467 0 003.989 1.154zM323.68 252.58a7.493 7.493 0 006.361-3.517 7.498 7.498 0 00-2.37-10.338L254.46 192.82a7.498 7.498 0 00-10.338 2.37 7.498 7.498 0 002.37 10.338l73.211 45.905a7.457 7.457 0 003.977 1.147zM223.903 212.559a7.5 7.5 0 00-10.334 2.39 7.5 7.5 0 002.39 10.334l73.773 46.062a7.495 7.495 0 0010.334-2.39 7.5 7.5 0 00-2.39-10.334l-73.773-46.062zM145.209 129.33l-62.33 39.254a7.501 7.501 0 00.037 12.716l74.335 46.219a7.493 7.493 0 008.031-.07l16.556-10.7a7.5 7.5 0 00-8.142-12.598l-12.562 8.119-60.119-37.38 48.2-30.355 59.244 37.147-6.907 4.464a7.5 7.5 0 008.142 12.598l16.8-10.859a7.501 7.501 0 00-.087-12.653l-73.218-45.909a7.498 7.498 0 00-7.98.007zM270.089 288.846a7.5 7.5 0 00-2.409-10.329l-74.337-46.221a7.498 7.498 0 00-10.329 2.409 7.5 7.5 0 002.409 10.329l74.337 46.221a7.494 7.494 0 0010.329-2.409zM53.527 192.864a7.5 7.5 0 002.409 10.329l183.478 114.081a7.494 7.494 0 0010.329-2.409 7.5 7.5 0 00-2.409-10.329L63.856 190.455a7.497 7.497 0 00-10.329 2.409z"/></svg>