<svg xmlns="http://www.w3.org/2000/svg" width="26.666" height="30.666" viewBox="0 0 26.666 30.666"><defs><style>.cls-1{fill:#516baa;stroke:#566ca5;stroke-width:2px}</style></defs><g id="Group_6390" transform="translate(-579.667 320)"><g id="Group_4687" transform="translate(586.333 -319)"><path id="Path_4158" d="M639.667-297.667a6.674 6.674 0 0 1-6.667-6.666 6.674 6.674 0 0 1 6.667-6.667 6.674 6.674 0 0 1 6.667 6.667 6.674 6.674 0 0 1-6.667 6.666zm0-12a5.339 5.339 0 0 0-5.333 5.333 5.339 5.339 0 0 0 5.333 5.334 5.339 5.339 0 0 0 5.333-5.333 5.339 5.339 0 0 0-5.333-5.334z" class="cls-1" transform="translate(-633 311)"/></g><g id="Group_4688" transform="translate(580.667 -303.333)"><path id="Path_4159" d="M640-251a.667.667 0 0 1-.667-.667 11.012 11.012 0 0 0-11-11 11.012 11.012 0 0 0-11 11 .667.667 0 0 1-.667.667.667.667 0 0 1-.667-.667A12.347 12.347 0 0 1 628.333-264a12.347 12.347 0 0 1 12.333 12.333.667.667 0 0 1-.666.667z" class="cls-1" transform="translate(-616 264)"/></g></g></svg>