<svg xmlns="http://www.w3.org/2000/svg" viewBox="0 0 412.605 412.605"><path d="M390.91 94.277h-64.25v-72.23c0-9.496-7.697-17.193-17.191-17.193H103.138c-9.495 0-17.192 7.697-17.192 17.193v72.23h-64.25C9.713 94.277 0 103.99 0 115.972v159.834c0 11.981 9.713 21.696 21.696 21.696h20.655c11.982 0 21.696-9.715 21.696-21.696v-30.853h21.899v145.605c0 9.496 7.697 17.193 17.192 17.193h206.331c9.494 0 17.191-7.697 17.191-17.193V244.953h21.898v30.853c0 11.981 9.713 21.696 21.697 21.696h20.654c11.982 0 21.695-9.715 21.695-21.696V115.972c.001-11.982-9.711-21.695-21.694-21.695zM120.33 39.238h171.945v55.039H120.33V39.238zm171.945 334.129H120.33V244.953h171.945v128.414z"/><path d="M160.018 287.429h92.57c5.992 0 10.848-4.856 10.848-10.849 0-5.99-4.855-10.848-10.848-10.848h-92.57c-5.991 0-10.848 4.857-10.848 10.848 0 5.992 4.857 10.849 10.848 10.849zM252.588 318.527h-92.57c-5.991 0-10.848 4.856-10.848 10.848 0 5.99 4.857 10.849 10.848 10.849h92.57c5.992 0 10.848-4.856 10.848-10.849 0-5.991-4.856-10.848-10.848-10.848z"/></svg>