<?xml version="1.0" encoding="iso-8859-1"?>
<svg version="1.1" xmlns="http://www.w3.org/2000/svg" xmlns:xlink="http://www.w3.org/1999/xlink"
	 viewBox="0 0 412.605 412.605" style="enable-background:new 0 0 412.605 412.605;"
	 xml:space="preserve">
<path d="M390.91,94.277h-64.25v-72.23c0-9.496-7.697-17.193-17.191-17.193H103.138c-9.495,0-17.192,7.697-17.192,17.193v72.23
    h-64.25C9.713,94.277,0,103.99,0,115.972v159.834c0,11.981,9.713,21.696,21.696,21.696h20.655
    c11.982,0,21.696-9.715,21.696-21.696v-30.853h21.899v145.605c0,9.496,7.697,17.193,17.192,17.193h206.331
    c9.494,0,17.191-7.697,17.191-17.193V244.953h21.898v30.853c0,11.981,9.713,21.696,21.697,21.696h20.654
    c11.982,0,21.695-9.715,21.695-21.696V115.972C412.605,103.99,402.893,94.277,390.91,94.277z M120.33,39.238h171.945v55.039
    H120.33V39.238z M292.275,373.367H120.33V244.953h171.945V373.367L292.275,373.367z"/>
<path d="M160.018,287.429h92.57c5.992,0,10.848-4.856,10.848-10.849c0-5.99-4.855-10.848-10.848-10.848h-92.57
    c-5.991,0-10.848,4.857-10.848,10.848C149.17,282.572,154.027,287.429,160.018,287.429z"/>
<path d="M252.588,318.527h-92.57c-5.991,0-10.848,4.856-10.848,10.848c0,5.99,4.857,10.849,10.848,10.849h92.57
    c5.992,0,10.848-4.856,10.848-10.849C263.436,323.384,258.58,318.527,252.588,318.527z"/>
</svg>
