<svg viewBox="0 0 512 512">
    <path d="M496.293,255.338c0-24.103-7.21-47.215-21.437-68.699c-12.771-19.288-30.666-36.362-53.184-50.745
    c-43.474-27.771-100.612-43.065-160.885-43.065c-20.131,0-39.974,1.702-59.222,5.072c-11.942-11.176-25.919-21.233-40.712-29.187
    c-79.026-38.298-144.561-0.9-144.561-0.9s60.931,50.053,51.023,93.93c-27.259,27.041-42.033,59.646-42.033,93.594
    c0,0.108,0.005,0.216,0.006,0.324c-0.001,0.108-0.006,0.216-0.006,0.324c0,33.949,14.774,66.554,42.033,93.595
    c9.907,43.874-51.023,93.93-51.023,93.93s65.535,37.397,144.561-0.901c14.792-7.953,28.77-18.01,40.712-29.188
    c19.249,3.372,39.091,5.072,59.222,5.072c60.272,0,117.411-15.294,160.885-43.064c22.518-14.383,40.412-31.457,53.184-50.742
    c14.227-21.487,21.437-44.599,21.437-68.702c0-0.107-0.006-0.216-0.006-0.324C496.287,255.554,496.293,255.446,496.293,255.338z
     M260.882,387.763c-25.367,0-49.66-2.932-72.107-8.282c-22.81,27.443-72.993,65.596-121.742,53.26
    c15.857-17.031,39.352-45.81,34.32-93.207c-29.218-22.738-46.759-51.832-46.759-83.541c0-72.776,92.36-131.769,206.288-131.769
    c113.928,0,206.288,58.993,206.288,131.769C467.17,328.765,374.81,387.763,260.882,387.763z M288.283,255.991
    c0,15.133-12.27,27.403-27.4,27.403c-15.134,0-27.402-12.271-27.402-27.403s12.268-27.401,27.402-27.401
    C276.014,228.59,288.283,240.858,288.283,255.991z M356.163,228.59c-15.133,0-27.4,12.268-27.4,27.401s12.268,27.403,27.4,27.403
    c15.134,0,27.399-12.271,27.399-27.403S371.297,228.59,356.163,228.59z M165.601,228.59c-15.133,0-27.4,12.268-27.4,27.401
    s12.268,27.403,27.4,27.403c15.134,0,27.401-12.271,27.401-27.403S180.735,228.59,165.601,228.59z"/>
</svg>
