<svg xmlns="http://www.w3.org/2000/svg" viewBox="0 0 23.94 24"><path d="M17.39.01a6.952 6.952 0 0 0-7.06 9.08l-9.4 9.43a3.203 3.203 0 0 0 4.52 4.54l9.4-9.43a6.964 6.964 0 0 0 8.67-8.99.856.856 0 0 0-1.1-.54.752.752 0 0 0-.34.21l-3.32 3.33-1.92-.54-.54-1.93 3.32-3.33A.881.881 0 0 0 19.63.6a1.078 1.078 0 0 0-.34-.21 6.823 6.823 0 0 0-1.9-.38zm-.15 1.74L14.7 4.3a.875.875 0 0 0-.22.86l.82 2.88a.877.877 0 0 0 .6.61l2.88.82a.886.886 0 0 0 .85-.22l2.54-2.55a5.214 5.214 0 0 1-7.22 5.12.882.882 0 0 0-.95.19l-9.78 9.81a1.457 1.457 0 0 1-2.06-2.06l9.79-9.81a.892.892 0 0 0 .18-.96 5.24 5.24 0 0 1 1.13-5.72 5.186 5.186 0 0 1 3.98-1.52z" stroke-width=".2"/></svg>