<svg xmlns="http://www.w3.org/2000/svg" width="45.073" height="45.073" viewBox="0 0 45.073 45.073"><defs><style>.a{fill:#fff;}</style></defs><g transform="translate(-661.145 -806.287)"><g transform="translate(661.145 830.01)"><path class="a" d="M670.634,856.859a4.744,4.744,0,1,1-4.744-4.744h4.744Z" transform="translate(-661.145 -852.115)"/><path class="a" d="M684.059,856.859a4.744,4.744,0,0,1,9.489,0V868.72a4.744,4.744,0,1,1-9.489,0Z" transform="translate(-672.198 -852.115)"/></g><g transform="translate(661.145 806.287)"><path class="a" d="M688.8,815.776a4.744,4.744,0,1,1,4.744-4.745v4.745Z" transform="translate(-672.198 -806.287)"/><path class="a" d="M677.751,829.2a4.744,4.744,0,0,1,0,9.489H665.89a4.744,4.744,0,1,1,0-9.489Z" transform="translate(-661.145 -817.34)"/></g><g transform="translate(684.868 806.287)"><path class="a" d="M729.887,833.945a4.744,4.744,0,1,1,4.745,4.745h-4.745Z" transform="translate(-718.026 -817.34)"/><path class="a" d="M716.462,822.893a4.744,4.744,0,1,1-9.489,0V811.031a4.744,4.744,0,0,1,9.489,0Z" transform="translate(-706.973 -806.287)"/></g><g transform="translate(684.868 830.01)"><path class="a" d="M711.718,875.029a4.744,4.744,0,1,1-4.745,4.744v-4.744Z" transform="translate(-706.973 -863.168)"/><path class="a" d="M711.718,861.6a4.744,4.744,0,1,1,0-9.489h11.861a4.744,4.744,0,0,1,0,9.489Z" transform="translate(-706.973 -852.115)"/></g></g></svg>