<svg viewBox="0 0 31.444 31.443"><path stroke="none" d="M31.202 16.369a2.754 2.754 0 0 0-3.637-1.391l-1.325.594-3.396-7.591 1.325-.592a2.753 2.753 0 0 0-2.248-5.027l-1.324.593-.593-1.326a2.752 2.752 0 1 0-5.026 2.249l.593 1.325L7.98 8.598l-.592-1.325A2.753 2.753 0 1 0 2.362 9.52l.592 1.324-1.324.594a2.754 2.754 0 0 0 2.248 5.026l1.325-.594 3.394 7.592-1.325.592a2.754 2.754 0 0 0 2.248 5.028l1.324-.593.593 1.325a2.752 2.752 0 1 0 5.025-2.247l-.591-1.326 7.591-3.394.592 1.321a2.751 2.751 0 1 0 5.026-2.245l-.592-1.324 1.323-.594a2.75 2.75 0 0 0 1.391-3.636zm-17.579 4.846l-3.395-7.593 7.591-3.394 3.395 7.591-7.591 3.396z"/></svg>