<svg xmlns="http://www.w3.org/2000/svg" width="44.355" height="44.355" viewBox="0 0 44.355 44.355"><defs><style>.a{fill:#fff}</style></defs><g><path d="M541.811,1382.2H508.544a5.546,5.546,0,0,0-5.544,5.544v33.266a5.547,5.547,0,0,0,5.544,5.545h33.267a5.546,5.546,0,0,0,5.544-5.545v-33.266A5.546,5.546,0,0,0,541.811,1382.2Zm-5.611,16.533c.011.244.011.488.011.732,0,7.507-5.722,16.178-16.179,16.178a16.173,16.173,0,0,1-8.7-2.539,10.92,10.92,0,0,0,1.353.078,11.4,11.4,0,0,0,7.064-2.44,5.685,5.685,0,0,1-5.311-3.947,5.725,5.725,0,0,0,2.561-.1,5.7,5.7,0,0,1-4.557-5.578v-.078a5.752,5.752,0,0,0,2.572.71,5.709,5.709,0,0,1-1.763-7.6,16.146,16.146,0,0,0,11.721,5.944,6.282,6.282,0,0,1-.144-1.3,5.688,5.688,0,0,1,9.836-3.892,11.3,11.3,0,0,0,3.615-1.375,5.721,5.721,0,0,1-2.506,3.149,11.538,11.538,0,0,0,3.271-.9A11.585,11.585,0,0,1,536.2,1398.733Z" class="a" transform="translate(-503 -1382.2)"/></g></svg>