<?xml version="1.0" encoding="UTF-8" standalone="no"?>
<svg
   id="f4d6a11b-0457-4c4b-ae44-a4a2df9b26c6"
   data-name="Layer 1"
   viewBox="0 0 680.3 475.36"
   version="1.1"
   sodipodi:docname="arch.svg"
   inkscape:version="1.3 (0e150ed6c4, 2023-07-21)"
   xmlns:inkscape="http://www.inkscape.org/namespaces/inkscape"
   xmlns:sodipodi="http://sodipodi.sourceforge.net/DTD/sodipodi-0.dtd"
   xmlns="http://www.w3.org/2000/svg"
   xmlns:svg="http://www.w3.org/2000/svg">
  <sodipodi:namedview
     id="namedview52"
     pagecolor="#ffffff"
     bordercolor="#000000"
     borderopacity="0.25"
     inkscape:showpageshadow="2"
     inkscape:pageopacity="0.0"
     inkscape:pagecheckerboard="0"
     inkscape:deskcolor="#d1d1d1"
     inkscape:zoom="1.2212527"
     inkscape:cx="388.53548"
     inkscape:cy="296.00753"
     inkscape:window-width="1920"
     inkscape:window-height="1017"
     inkscape:window-x="1912"
     inkscape:window-y="-8"
     inkscape:window-maximized="1"
     inkscape:current-layer="f4d6a11b-0457-4c4b-ae44-a4a2df9b26c6" />
  <defs
     id="defs1">
    <style
       id="style1">.f09797e6-9539-4c32-b49a-022e2c09fc30{fill:#466bb0}.e8fd0efc-502d-4997-81f5-96257f07fc0e,.f09797e6-9539-4c32-b49a-022e2c09fc30{opacity:.1}.a0d2ecab-bc9b-44a8-82e3-34149afae16c,.a49b4615-bc1c-41bd-b1e8-640b1f8dd42a,.b38d1ea6-a478-4fcb-bf29-b221edb8a33f,.e2e125c1-b406-488d-9663-154c8df4e9f4,.f0aad515-7ad9-45df-ab83-1f35aa91aec9,.f68635cb-cfa3-4a60-934b-de1f3aaa66c3{fill:none}.e2e125c1-b406-488d-9663-154c8df4e9f4{stroke:#466bb0;stroke-dasharray:10.01 10.01}.a49b4615-bc1c-41bd-b1e8-640b1f8dd42a,.b38d1ea6-a478-4fcb-bf29-b221edb8a33f,.e2e125c1-b406-488d-9663-154c8df4e9f4,.f68635cb-cfa3-4a60-934b-de1f3aaa66c3{stroke-linejoin:round}.a4076c78-2611-4424-b247-c2b071534796,.e19d6d5f-3b64-431f-ab4c-95c6ae498f56{font-size:12px}.a4076c78-2611-4424-b247-c2b071534796,.b1687d9f-cace-4cbf-9e86-85c41dc15326,.e19d6d5f-3b64-431f-ab4c-95c6ae498f56,.fa63d417-f2ec-400c-87e0-6baf8392cc5e{font-family:OpenSans,Open Sans}.e500ff81-4203-41af-b629-d871224c3705{fill:#e5e5e4}.e3a70dc2-4442-4ba5-bd5d-d0d7fd4bf78e{fill:#fff}.b1687d9f-cace-4cbf-9e86-85c41dc15326,.fa63d417-f2ec-400c-87e0-6baf8392cc5e{font-size:14px}.abed5706-4125-4085-bdf7-e601c0ec9f14{fill:#767576}.b38d1ea6-a478-4fcb-bf29-b221edb8a33f,.f0aad515-7ad9-45df-ab83-1f35aa91aec9{stroke:#fff}.a0d2ecab-bc9b-44a8-82e3-34149afae16c,.a49b4615-bc1c-41bd-b1e8-640b1f8dd42a,.b38d1ea6-a478-4fcb-bf29-b221edb8a33f,.f0aad515-7ad9-45df-ab83-1f35aa91aec9{stroke-width:2px}.a49b4615-bc1c-41bd-b1e8-640b1f8dd42a,.f0aad515-7ad9-45df-ab83-1f35aa91aec9{stroke-linecap:round}.a0d2ecab-bc9b-44a8-82e3-34149afae16c,.ea00890b-4b69-4c4d-b458-bb1f52794665,.f0aad515-7ad9-45df-ab83-1f35aa91aec9{stroke-miterlimit:10}.f68635cb-cfa3-4a60-934b-de1f3aaa66c3{stroke:#b14d9d;stroke-width:3px}.a0d2ecab-bc9b-44a8-82e3-34149afae16c{stroke:#00a14b}.b056d124-143c-4300-a481-77e2ca9932d3{fill:#00a14b}.a49b4615-bc1c-41bd-b1e8-640b1f8dd42a{stroke:#486baf;stroke-dasharray:6 12}.ee4e281a-3b21-4c59-b369-dc727cb09c08{fill:#486baf}.e8fd0efc-502d-4997-81f5-96257f07fc0e{fill:#009345}.ea00890b-4b69-4c4d-b458-bb1f52794665{fill:#e4e4e3;stroke:#777678}.a4076c78-2611-4424-b247-c2b071534796,.b1687d9f-cace-4cbf-9e86-85c41dc15326{isolation:isolate}.b146f52f-4430-4517-8eda-8341602c0617{fill:#486bae}</style>
  </defs>
  <title
     id="title1">arch</title>
  <rect
     width="549.99"
     height="96.23"
     x="68.01"
     y="360.11"
     class="f09797e6-9539-4c32-b49a-022e2c09fc30"
     rx="9"
     id="rect1" />
  <rect
     width="580.5"
     height="458.99"
     x="49.9"
     y="15.87"
     class="e2e125c1-b406-488d-9663-154c8df4e9f4"
     rx="10"
     id="rect2" />
  <text
     class="e19d6d5f-3b64-431f-ab4c-95c6ae498f56"
     transform="translate(49.9,10.28)"
     id="text2">Istio 网格</text>
  <text
     class="e19d6d5f-3b64-431f-ab4c-95c6ae498f56"
     id="text3"
     x="15.174808"
     y="201.38467"><tspan
       sodipodi:role="line"
       id="tspan53"
       x="15.174808"
       y="201.38467">入口</tspan><tspan
       sodipodi:role="line"
       id="tspan54"
       x="15.174808"
       y="216.6869">流量</tspan></text>
  <text
     class="e19d6d5f-3b64-431f-ab4c-95c6ae498f56"
     id="text4"
     x="642.33301"
     y="203.02234"><tspan
       sodipodi:role="line"
       id="tspan55"
       x="642.33301"
       y="203.02234">出口</tspan><tspan
       sodipodi:role="line"
       id="tspan56"
       x="642.33301"
       y="218.32457">流量</tspan></text>
  <rect
     width="136.06"
     height="136.06"
     x="120.77"
     y="84.87"
     class="e500ff81-4203-41af-b629-d871224c3705"
     rx="3"
     id="rect4" />
  <rect
     width="136.06"
     height="136.06"
     x="115.06"
     y="79.15"
     class="e500ff81-4203-41af-b629-d871224c3705"
     rx="3"
     id="rect5" />
  <rect
     width="117"
     height="40.35"
     x="124.59"
     y="86.73"
     class="e3a70dc2-4442-4ba5-bd5d-d0d7fd4bf78e"
     rx="3"
     id="rect6" />
  <text
     class="fa63d417-f2ec-400c-87e0-6baf8392cc5e"
     transform="translate(176.13,111.42)"
     id="text6"
     style="font-size:14px">Service A</text>
  <circle
     cx="151.04"
     cy="106.9"
     r="18"
     class="abed5706-4125-4085-bdf7-e601c0ec9f14"
     id="circle6" />
  <rect
     width="12.79"
     height="12.79"
     x="144.65"
     y="100.39"
     class="b38d1ea6-a478-4fcb-bf29-b221edb8a33f"
     id="rect7" />
  <line
     x1="147.02"
     x2="147.02"
     y1="100.39"
     y2="97.31"
     class="f0aad515-7ad9-45df-ab83-1f35aa91aec9"
     id="line7" />
  <line
     x1="151.04"
     x2="151.04"
     y1="100.39"
     y2="97.31"
     class="f0aad515-7ad9-45df-ab83-1f35aa91aec9"
     id="line8" />
  <line
     x1="155.07"
     x2="155.07"
     y1="100.39"
     y2="97.31"
     class="f0aad515-7ad9-45df-ab83-1f35aa91aec9"
     id="line9" />
  <line
     x1="147.02"
     x2="147.02"
     y1="116.5"
     y2="113.42"
     class="f0aad515-7ad9-45df-ab83-1f35aa91aec9"
     id="line10" />
  <line
     x1="151.04"
     x2="151.04"
     y1="116.5"
     y2="113.42"
     class="f0aad515-7ad9-45df-ab83-1f35aa91aec9"
     id="line11" />
  <line
     x1="155.07"
     x2="155.07"
     y1="116.5"
     y2="113.42"
     class="f0aad515-7ad9-45df-ab83-1f35aa91aec9"
     id="line12" />
  <line
     x1="144.53"
     x2="141.45"
     y1="110.93"
     y2="110.93"
     class="f0aad515-7ad9-45df-ab83-1f35aa91aec9"
     id="line13" />
  <line
     x1="144.53"
     x2="141.45"
     y1="106.9"
     y2="106.9"
     class="f0aad515-7ad9-45df-ab83-1f35aa91aec9"
     id="line14" />
  <line
     x1="144.53"
     x2="141.45"
     y1="102.88"
     y2="102.88"
     class="f0aad515-7ad9-45df-ab83-1f35aa91aec9"
     id="line15" />
  <line
     x1="160.64"
     x2="157.56"
     y1="110.93"
     y2="110.93"
     class="f0aad515-7ad9-45df-ab83-1f35aa91aec9"
     id="line16" />
  <line
     x1="160.64"
     x2="157.56"
     y1="106.9"
     y2="106.9"
     class="f0aad515-7ad9-45df-ab83-1f35aa91aec9"
     id="line17" />
  <line
     x1="160.64"
     x2="157.56"
     y1="102.88"
     y2="102.88"
     class="f0aad515-7ad9-45df-ab83-1f35aa91aec9"
     id="line18" />
  <rect
     width="5.68"
     height="5.68"
     x="148.2"
     y="103.94"
     class="e3a70dc2-4442-4ba5-bd5d-d0d7fd4bf78e"
     rx="2"
     id="rect18" />
  <rect
     width="117"
     height="39.08"
     x="124.59"
     y="164.69"
     class="e3a70dc2-4442-4ba5-bd5d-d0d7fd4bf78e"
     rx="3"
     id="rect19" />
  <polygon
     points="164.85 191.88 164.85 176.58 151.59 168.93 138.33 176.58 138.33 191.88 151.59 199.53 164.85 191.88"
     class="f68635cb-cfa3-4a60-934b-de1f3aaa66c3"
     id="polygon19" />
  <text
     class="fa63d417-f2ec-400c-87e0-6baf8392cc5e"
     transform="translate(187.05 188.68)"
     id="text19">Proxy</text>
  <rect
     width="136.06"
     height="136.06"
     x="434.89"
     y="84.87"
     class="e500ff81-4203-41af-b629-d871224c3705"
     rx="3"
     id="rect20" />
  <rect
     width="136.06"
     height="136.06"
     x="429.18"
     y="79.15"
     class="e500ff81-4203-41af-b629-d871224c3705"
     rx="3"
     id="rect21" />
  <rect
     width="117"
     height="40.35"
     x="438.71"
     y="86.73"
     class="e3a70dc2-4442-4ba5-bd5d-d0d7fd4bf78e"
     rx="3"
     id="rect22" />
  <text
     class="fa63d417-f2ec-400c-87e0-6baf8392cc5e"
     transform="translate(490.15,111.42)"
     id="text22"
     style="font-size:14px">Service B</text>
  <circle
     cx="465.16"
     cy="106.9"
     r="18"
     class="abed5706-4125-4085-bdf7-e601c0ec9f14"
     id="circle22" />
  <rect
     width="12.79"
     height="12.79"
     x="458.77"
     y="100.39"
     class="b38d1ea6-a478-4fcb-bf29-b221edb8a33f"
     id="rect23" />
  <line
     x1="461.14"
     x2="461.14"
     y1="100.39"
     y2="97.31"
     class="f0aad515-7ad9-45df-ab83-1f35aa91aec9"
     id="line23" />
  <line
     x1="465.16"
     x2="465.16"
     y1="100.39"
     y2="97.31"
     class="f0aad515-7ad9-45df-ab83-1f35aa91aec9"
     id="line24" />
  <line
     x1="469.19"
     x2="469.19"
     y1="100.39"
     y2="97.31"
     class="f0aad515-7ad9-45df-ab83-1f35aa91aec9"
     id="line25" />
  <line
     x1="461.14"
     x2="461.14"
     y1="116.5"
     y2="113.42"
     class="f0aad515-7ad9-45df-ab83-1f35aa91aec9"
     id="line26" />
  <line
     x1="465.16"
     x2="465.16"
     y1="116.5"
     y2="113.42"
     class="f0aad515-7ad9-45df-ab83-1f35aa91aec9"
     id="line27" />
  <line
     x1="469.19"
     x2="469.19"
     y1="116.5"
     y2="113.42"
     class="f0aad515-7ad9-45df-ab83-1f35aa91aec9"
     id="line28" />
  <line
     x1="458.65"
     x2="455.57"
     y1="110.93"
     y2="110.93"
     class="f0aad515-7ad9-45df-ab83-1f35aa91aec9"
     id="line29" />
  <line
     x1="458.65"
     x2="455.57"
     y1="106.9"
     y2="106.9"
     class="f0aad515-7ad9-45df-ab83-1f35aa91aec9"
     id="line30" />
  <line
     x1="458.65"
     x2="455.57"
     y1="102.88"
     y2="102.88"
     class="f0aad515-7ad9-45df-ab83-1f35aa91aec9"
     id="line31" />
  <line
     x1="474.76"
     x2="471.68"
     y1="110.93"
     y2="110.93"
     class="f0aad515-7ad9-45df-ab83-1f35aa91aec9"
     id="line32" />
  <line
     x1="474.76"
     x2="471.68"
     y1="106.9"
     y2="106.9"
     class="f0aad515-7ad9-45df-ab83-1f35aa91aec9"
     id="line33" />
  <line
     x1="474.76"
     x2="471.68"
     y1="102.88"
     y2="102.88"
     class="f0aad515-7ad9-45df-ab83-1f35aa91aec9"
     id="line34" />
  <rect
     width="5.68"
     height="5.68"
     x="462.32"
     y="103.94"
     class="e3a70dc2-4442-4ba5-bd5d-d0d7fd4bf78e"
     rx="2"
     id="rect34" />
  <rect
     width="117"
     height="39.08"
     x="438.71"
     y="164.69"
     class="e3a70dc2-4442-4ba5-bd5d-d0d7fd4bf78e"
     rx="3"
     id="rect35" />
  <polygon
     points="478.97 191.88 478.97 176.58 465.71 168.93 452.45 176.58 452.45 191.88 465.71 199.53 478.97 191.88"
     class="f68635cb-cfa3-4a60-934b-de1f3aaa66c3"
     id="polygon35" />
  <text
     class="fa63d417-f2ec-400c-87e0-6baf8392cc5e"
     transform="translate(501.17 188.68)"
     id="text35">Proxy</text>
  <line
     x1="151.4"
     x2="151.4"
     y1="134.36"
     y2="164.69"
     class="a0d2ecab-bc9b-44a8-82e3-34149afae16c"
     id="line35" />
  <polygon
     points="146.41 135.81 151.4 127.18 156.38 135.81 146.41 135.81"
     class="b056d124-143c-4300-a481-77e2ca9932d3"
     id="polygon36" />
  <line
     x1="224.68"
     x2="224.68"
     y1="127.18"
     y2="157.52"
     class="a0d2ecab-bc9b-44a8-82e3-34149afae16c"
     id="line36" />
  <polygon
     points="219.69 156.06 224.68 164.69 229.66 156.06 219.69 156.06"
     class="b056d124-143c-4300-a481-77e2ca9932d3"
     id="polygon37" />
  <line
     x1="241.59"
     x2="431.53"
     y1="184.23"
     y2="184.23"
     class="a0d2ecab-bc9b-44a8-82e3-34149afae16c"
     id="line37" />
  <polygon
     points="430.07 189.22 438.71 184.23 430.07 179.25 430.07 189.22"
     class="b056d124-143c-4300-a481-77e2ca9932d3"
     id="polygon38" />
  <line
     x2="117.41"
     y1="184.23"
     y2="184.23"
     class="a0d2ecab-bc9b-44a8-82e3-34149afae16c"
     id="line38" />
  <polygon
     points="115.95 189.22 124.59 184.23 115.95 179.25 115.95 189.22"
     class="b056d124-143c-4300-a481-77e2ca9932d3"
     id="polygon39" />
  <line
     x1="555.71"
     x2="673.12"
     y1="184.23"
     y2="184.23"
     class="a0d2ecab-bc9b-44a8-82e3-34149afae16c"
     id="line39" />
  <polygon
     points="671.66 189.22 680.3 184.23 671.66 179.25 671.66 189.22"
     class="b056d124-143c-4300-a481-77e2ca9932d3"
     id="polygon40" />
  <line
     x1="465.52"
     x2="465.52"
     y1="164.69"
     y2="134.36"
     class="a0d2ecab-bc9b-44a8-82e3-34149afae16c"
     id="line40" />
  <polygon
     points="470.5 135.81 465.52 127.18 460.53 135.81 470.5 135.81"
     class="b056d124-143c-4300-a481-77e2ca9932d3"
     id="polygon41" />
  <line
     x1="528.97"
     x2="528.97"
     y1="157.52"
     y2="127.18"
     class="a0d2ecab-bc9b-44a8-82e3-34149afae16c"
     id="line41" />
  <polygon
     points="533.95 156.06 528.97 164.69 523.98 156.06 533.95 156.06"
     class="b056d124-143c-4300-a481-77e2ca9932d3"
     id="polygon42" />
  <polyline
     points="340.2 378.3 340.2 332.99 183.09 332.99 183.09 210.95"
     class="a49b4615-bc1c-41bd-b1e8-640b1f8dd42a"
     id="polyline42" />
  <polygon
     points="188.08 212.41 183.09 203.77 178.1 212.41 188.08 212.41"
     class="ee4e281a-3b21-4c59-b369-dc727cb09c08"
     id="polygon43" />
  <polyline
     points="340.2 332.99 497.21 332.99 497.21 210.95"
     class="a49b4615-bc1c-41bd-b1e8-640b1f8dd42a"
     id="polyline43" />
  <polygon
     points="502.2 212.41 497.21 203.77 492.22 212.41 502.2 212.41"
     class="ee4e281a-3b21-4c59-b369-dc727cb09c08"
     id="polygon44" />
  <text
     class="e19d6d5f-3b64-431f-ab4c-95c6ae498f56"
     id="text45"
     x="340.98837"
     y="294.10468"><tspan
       sodipodi:role="line"
       id="tspan57"
       x="340.98837"
       y="294.10468"
       style="text-align:center;text-anchor:middle">服务发现</tspan><tspan
       sodipodi:role="line"
       x="340.98837"
       y="309.40689"
       id="tspan63"
       style="text-align:center;text-anchor:middle">配置</tspan><tspan
       sodipodi:role="line"
       x="340.98837"
       y="324.70914"
       id="tspan64"
       style="text-align:center;text-anchor:middle">证书</tspan><tspan
       sodipodi:role="line"
       id="tspan58"
       x="340.98837"
       y="340.01135"
       style="text-align:center;text-anchor:middle" /></text>
  <text
     class="e19d6d5f-3b64-431f-ab4c-95c6ae498f56"
     id="text46"
     x="317.56482"
     y="176.94">网格流量</text>
  <rect
     width="549.98999"
     height="95.669998"
     x="66.372337"
     y="141.31299"
     class="e8fd0efc-502d-4997-81f5-96257f07fc0e"
     rx="9"
     id="rect48" />
  <rect
     width="378.75"
     height="59.86"
     x="150.77"
     y="378.3"
     class="ea00890b-4b69-4c4d-b458-bb1f52794665"
     rx="3"
     id="rect49" />
  <text
     class="b1687d9f-cace-4cbf-9e86-85c41dc15326"
     transform="translate(197.69 412.46)"
     id="text49">istiod</text>
  <rect
     id="b243f9f5-a4f0-4ace-8728-20a55919deb2"
     width="27.55"
     height="27.55"
     x="165.65"
     y="394.45"
     class="b146f52f-4430-4517-8eda-8341602c0617"
     data-name="background" />
  <polygon
     id="bab6f098-e264-4a6f-a98c-5015ef270b55"
     points="172.47 415.7 186.38 415.7 177.72 418.33 172.47 415.7"
     class="e3a70dc2-4442-4ba5-bd5d-d0d7fd4bf78e"
     data-name="hull" />
  <polygon
     id="b00a4eed-a014-4f11-acfe-2bb9a5571d26"
     points="172.47 414.92 177.72 414.13 177.72 404.68 172.47 414.92"
     class="e3a70dc2-4442-4ba5-bd5d-d0d7fd4bf78e"
     data-name="mainsail" />
  <polygon
     id="ecdc0ee3-43a6-4e31-a101-a29aed72bde8"
     points="178.51 414.13 186.38 414.92 178.51 397.86 178.51 414.13"
     class="e3a70dc2-4442-4ba5-bd5d-d0d7fd4bf78e"
     data-name="headsail" />
  <path
     d="M514.24,422.43h-74.6a3,3,0,0,1-3-3V397a3.08,3.08,0,0,1,3-3h74.6a3.08,3.08,0,0,1,3,3v22.4A3,3,0,0,1,514.24,422.43Z"
     class="e3a70dc2-4442-4ba5-bd5d-d0d7fd4bf78e"
     id="path49" />
  <text
     class="a4076c78-2611-4424-b247-c2b071534796"
     transform="translate(459.81 410.94)"
     id="text50">Galley</text>
  <path
     d="M326.91,422.43h-74.6a3,3,0,0,1-3-3V397a3.08,3.08,0,0,1,3-3h74.6a3.08,3.08,0,0,1,3,3v22.4A3,3,0,0,1,326.91,422.43Z"
     class="e3a70dc2-4442-4ba5-bd5d-d0d7fd4bf78e"
     id="path50" />
  <text
     class="a4076c78-2611-4424-b247-c2b071534796"
     transform="translate(277.22 410.94)"
     id="text51">Pilot</text>
  <path
     d="M420.58,422.43H346a3,3,0,0,1-3-3V397a3.08,3.08,0,0,1,3-3h74.6a3.08,3.08,0,0,1,3,3v22.4A3,3,0,0,1,420.58,422.43Z"
     class="e3a70dc2-4442-4ba5-bd5d-d0d7fd4bf78e"
     id="path51" />
  <text
     class="a4076c78-2611-4424-b247-c2b071534796"
     transform="translate(363.96 410.94)"
     id="text52">Citadel</text>
  <text
     xml:space="preserve"
     style="font-size:14.6667px;font-family:sans-serif;-inkscape-font-specification:sans-serif;fill:#000000;fill-opacity:1"
     x="69.575195"
     y="104.08709"
     id="text132"><tspan
       sodipodi:role="line"
       id="tspan132"
       x="69.575195"
       y="104.08709">数据</tspan><tspan
       sodipodi:role="line"
       x="69.575195"
       y="122.78986"
       id="tspan52">平面</tspan></text>
  <text
     xml:space="preserve"
     style="font-size:14.6667px;font-family:sans-serif;-inkscape-font-specification:sans-serif;fill:#000000;fill-opacity:1"
     x="73.494431"
     y="353.31766"
     id="text132-5"><tspan
       sodipodi:role="line"
       id="tspan132-4"
       x="73.494431"
       y="353.31766">控制平面</tspan></text>
</svg>
