<svg xmlns="http://www.w3.org/2000/svg" viewBox="0 0 181 28"><path d="M21.85 7.41h1l2.85-2.85.14-1.21A12.81 12.81 0 005 9.6a1.55 1.55 0 011-.06l5.7-.94s.29-.48.44-.45a7.11 7.11 0 019.73-.74z" fill="#ea4335"/><path d="M29.76 9.6a12.84 12.84 0 00-3.87-6.24l-4 4A7.11 7.11 0 0124.5 13v.71a3.56 3.56 0 110 7.12h-7.12l-.71.72v4.27l.71.71h7.12A9.26 9.26 0 0029.76 9.6z" fill="#4285f4"/><path d="M10.25 26.49h7.12v-5.7h-7.12a3.54 3.54 0 01-1.47-.32l-1 .31-2.87 2.85-.25 1a9.21 9.21 0 005.59 1.86z" fill="#34a853"/><path d="M10.25 8a9.26 9.26 0 00-5.59 16.6l4.13-4.13a3.56 3.56 0 114.71-4.71l4.13-4.13A9.25 9.25 0 0010.25 8z" fill="#fbbc05"/><path d="M52.79 22.51a9.11 9.11 0 01-6.6-2.71 8.8 8.8 0 01-2.77-6.52 8.81 8.81 0 012.77-6.52A9.11 9.11 0 0152.79 4a8.84 8.84 0 016.33 2.55l-1.78 1.81a6.41 6.41 0 00-4.55-1.8 6.34 6.34 0 00-4.7 2 6.53 6.53 0 00-1.93 4.75A6.53 6.53 0 0048.09 18a6.71 6.71 0 009.36.11A5.32 5.32 0 0058.82 15h-6v-2.56h8.49a8.12 8.12 0 01.1 1.56 8 8 0 01-2.19 5.9 8.51 8.51 0 01-6.43 2.61zm19.74-1.7a6.12 6.12 0 01-8.47 0 5.7 5.7 0 01-1.73-4.25 5.71 5.71 0 011.73-4.25 6.13 6.13 0 018.47 0 5.71 5.71 0 011.73 4.25 5.7 5.7 0 01-1.74 4.25zm-6.6-1.67a3.24 3.24 0 004.73 0 3.56 3.56 0 001-2.58 3.57 3.57 0 00-1-2.59 3.29 3.29 0 00-4.75 0 3.57 3.57 0 00-1 2.59 3.56 3.56 0 001.01 2.58zm19.62 1.67a6.12 6.12 0 01-8.47 0 5.7 5.7 0 01-1.73-4.25 5.71 5.71 0 011.73-4.25 6.12 6.12 0 018.47 0 5.71 5.71 0 011.73 4.25 5.7 5.7 0 01-1.73 4.25zm-6.6-1.67a3.24 3.24 0 004.73 0 3.56 3.56 0 001-2.58 3.57 3.57 0 00-1-2.59 3.29 3.29 0 00-4.75 0 3.57 3.57 0 00-1 2.59 3.56 3.56 0 001.01 2.58zm15.16 8.71a5.24 5.24 0 01-3.33-1.06 6.13 6.13 0 01-1.94-2.46l2.28-.95a3.84 3.84 0 001.13 1.49 2.85 2.85 0 001.87.63 3 3 0 002.33-.9 3.65 3.65 0 00.83-2.6v-.86h-.09a3.81 3.81 0 01-3.13 1.35 5.43 5.43 0 01-4-1.74 5.75 5.75 0 01-1.71-4.19 5.81 5.81 0 011.71-4.22 5.42 5.42 0 014-1.75 4.3 4.3 0 011.84.41 3.7 3.7 0 011.3.95h.09V11h2.48v10.65a6.21 6.21 0 01-1.59 4.65 5.6 5.6 0 01-4.07 1.55zm.18-7.68a2.91 2.91 0 002.26-1 3.7 3.7 0 00.91-2.56 3.78 3.78 0 00-.91-2.61 2.9 2.9 0 00-2.26-1 3.09 3.09 0 00-2.34 1 3.65 3.65 0 00-1 2.59 3.58 3.58 0 001 2.56 3.1 3.1 0 002.34 1.02zm9.89-15.5v17.48h-2.61V4.67zm7.16 17.84a5.68 5.68 0 01-4.21-1.71 5.79 5.79 0 01-1.69-4.24 5.86 5.86 0 011.63-4.28 5.36 5.36 0 014-1.67 5.05 5.05 0 012 .39 4.71 4.71 0 011.53 1 7 7 0 011 1.21 7.15 7.15 0 01.59 1.17l.27.68-8 3.29a3 3 0 002.88 1.8 3.41 3.41 0 002.93-1.65l2 1.35a6.59 6.59 0 01-1.92 1.82 5.44 5.44 0 01-3.01.84zM108 16.38l5.32-2.21a1.84 1.84 0 00-.83-.91 2.71 2.71 0 00-1.37-.35 3.09 3.09 0 00-2.15.95 3.17 3.17 0 00-.97 2.52zm22.13 6.13a8.24 8.24 0 01-8.38-8.43 8.24 8.24 0 018.38-8.43 7.46 7.46 0 015.93 2.64l-1.44 1.4a5.44 5.44 0 00-4.48-2.05 6.11 6.11 0 00-4.45 1.78 6.24 6.24 0 00-1.81 4.66 6.24 6.24 0 001.81 4.66 6.11 6.11 0 004.45 1.78 6.36 6.36 0 005-2.34l1.44 1.44a7.86 7.86 0 01-2.77 2.11 8.48 8.48 0 01-3.68.78zm10.32-.36h-2.07V6h2.07zm3.38-9.72a5.79 5.79 0 018.16 0 5.85 5.85 0 011.6 4.2 5.85 5.85 0 01-1.6 4.2 5.79 5.79 0 01-8.16 0 5.85 5.85 0 01-1.6-4.2 5.85 5.85 0 011.6-4.2zm1.54 7.1a3.49 3.49 0 005.07 0 4 4 0 001.07-2.9 4 4 0 00-1.07-2.9 3.49 3.49 0 00-5.07 0 4 4 0 00-1.07 2.9 4 4 0 001.08 2.89zm19.69 2.62h-2v-1.53H163a3.85 3.85 0 01-1.46 1.38 4.08 4.08 0 01-2.05.55 3.89 3.89 0 01-3.14-1.26 5 5 0 01-1.07-3.38v-6.8h2.07v6.42q0 3.09 2.73 3.09a2.54 2.54 0 002.1-1 3.77 3.77 0 00.81-2.39v-6.12h2.07zm7.03.36a4.86 4.86 0 01-3.7-1.69 6 6 0 01-1.55-4.19 6 6 0 011.55-4.19 4.86 4.86 0 013.7-1.69 4.69 4.69 0 012.26.54 3.83 3.83 0 011.5 1.35h.09l-.09-1.53V6h2.07v16.15h-2v-1.53h-.09a3.83 3.83 0 01-1.5 1.35 4.69 4.69 0 01-2.24.54zm.34-1.89a3.3 3.3 0 002.49-1.08 4.05 4.05 0 001-2.91 4.05 4.05 0 00-1-2.91 3.38 3.38 0 00-5 0 4 4 0 00-1 2.9 4 4 0 001 2.9 3.3 3.3 0 002.51 1.1z" fill="#5f6368"/></svg>