<svg xmlns="http://www.w3.org/2000/svg" viewBox="0 0 269 95"><defs><style>.a{fill:#00a6e2}.b{fill:#88bd45}.c{fill:#777874}</style></defs><path class="a" d="M.46 24h23.75v5.7H7v10.09h16.22v5.51H7v15.48H.46zM26.81 35.84h6V40h.1a9.1 9.1 0 0 1 2.91-3.53 7.26 7.26 0 0 1 4.37-1.35h.78a2.93 2.93 0 0 1 .73.13V41a8.75 8.75 0 0 0-1.07-.21 7.46 7.46 0 0 0-.86-.05 6.62 6.62 0 0 0-3.43.78 6.23 6.23 0 0 0-2 1.87 6.67 6.67 0 0 0-1 2.23 8.65 8.65 0 0 0-.34 1.81v13.35h-6.19zM67.19 48.62v.83a6.72 6.72 0 0 1-.05.83h-19a6.16 6.16 0 0 0 .7 2.47 6.24 6.24 0 0 0 1.58 1.92 7.87 7.87 0 0 0 2.23 1.27 7.33 7.33 0 0 0 2.6.47 8.32 8.32 0 0 0 3.95-.86 7.41 7.41 0 0 0 2.65-2.36L66 56.52q-3.69 5-10.71 5A15.23 15.23 0 0 1 50 60.6a12.61 12.61 0 0 1-4.25-2.6 11.59 11.59 0 0 1-2.81-4.08 14.05 14.05 0 0 1-1-5.48 14.31 14.31 0 0 1 1-5.48 12.21 12.21 0 0 1 7-6.91 14 14 0 0 1 5.22-1 13.17 13.17 0 0 1 4.81.86 10.43 10.43 0 0 1 3.82 2.55 11.83 11.83 0 0 1 2.52 4.21 17.4 17.4 0 0 1 .88 5.95zM61 45.82a7.69 7.69 0 0 0-.34-2.29 5.1 5.1 0 0 0-2.91-3.25 6.45 6.45 0 0 0-2.62-.49 7 7 0 0 0-4.76 1.69 6.16 6.16 0 0 0-2.16 4.34zM96.76 60.78h-5.92V57h-.1a8.49 8.49 0 0 1-3.61 3.33 11.05 11.05 0 0 1-5 1.14A11.87 11.87 0 0 1 77 60.45a11.74 11.74 0 0 1-3.85-2.86 12.68 12.68 0 0 1-2.44-4.21 15.35 15.35 0 0 1-.86-5.17 14.7 14.7 0 0 1 .88-5.15 12.56 12.56 0 0 1 2.49-4.16A11.64 11.64 0 0 1 82 35.11a10.89 10.89 0 0 1 5.43 1.35 9.2 9.2 0 0 1 1.74 1.25 9.94 9.94 0 0 1 1.2 1.3h.16V24.1h6.24zM76.23 48.21a10 10 0 0 0 .44 2.91A8 8 0 0 0 78 53.71a6.92 6.92 0 0 0 2.23 1.87 7.16 7.16 0 0 0 6.24 0 7.5 7.5 0 0 0 2.31-1.85 8.05 8.05 0 0 0 1.46-2.57 8.79 8.79 0 0 0 .49-2.88 9 9 0 0 0-.49-2.91 8 8 0 0 0-1.46-2.6 7.87 7.87 0 0 0-2.31-1.87 6.37 6.37 0 0 0-3.07-.73 6.79 6.79 0 0 0-3.17.7A6.65 6.65 0 0 0 78 42.75a8 8 0 0 0-1.33 2.57 9.73 9.73 0 0 0-.44 2.89zM126.59 60.78h-5.93V57h-.1a8.49 8.49 0 0 1-3.56 3.37 11.05 11.05 0 0 1-5 1.14 11.87 11.87 0 0 1-5.12-1.07 11.74 11.74 0 0 1-3.88-2.85 12.68 12.68 0 0 1-2.44-4.21 15.35 15.35 0 0 1-.86-5.17 14.7 14.7 0 0 1 .88-5.15 12.56 12.56 0 0 1 2.49-4.16 11.64 11.64 0 0 1 8.73-3.79 10.89 10.89 0 0 1 5.43 1.35 9.2 9.2 0 0 1 1.77 1.25 9.94 9.94 0 0 1 1.2 1.3h.16V24.1h6.24zm-20.53-12.57a10 10 0 0 0 .44 2.91 8 8 0 0 0 1.33 2.6 6.92 6.92 0 0 0 2.23 1.87 7.16 7.16 0 0 0 6.24 0 7.5 7.5 0 0 0 2.31-1.85 8.05 8.05 0 0 0 1.46-2.57 8.79 8.79 0 0 0 .49-2.88 9 9 0 0 0-.49-2.91 8 8 0 0 0-1.46-2.6 7.87 7.87 0 0 0-2.31-1.87 6.37 6.37 0 0 0-3.07-.73 6.79 6.79 0 0 0-3.17.7 6.65 6.65 0 0 0-2.23 1.85 8 8 0 0 0-1.33 2.57 9.73 9.73 0 0 0-.44 2.91zM131.1 27.36a3.59 3.59 0 0 1 1.12-2.62 3.84 3.84 0 0 1 2.78-1.12 4.12 4.12 0 0 1 2.88 1.07 3.65 3.65 0 0 1 0 5.35 4.12 4.12 0 0 1-2.88 1.07 3.83 3.83 0 0 1-2.79-1.11 3.59 3.59 0 0 1-1.11-2.64zm.88 8.47h6.24v24.95H132zM167.3 48.62v.83a6.72 6.72 0 0 1-.05.83h-19a6.17 6.17 0 0 0 .7 2.47 6.28 6.28 0 0 0 1.59 1.92 7.87 7.87 0 0 0 2.23 1.27 7.34 7.34 0 0 0 2.6.47 8.32 8.32 0 0 0 3.95-.86A7.4 7.4 0 0 0 162 53.2l4.16 3.33q-3.69 5-10.71 5a15.23 15.23 0 0 1-5.35-.91 12.61 12.61 0 0 1-4.24-2.62 11.6 11.6 0 0 1-2.81-4.08 14.07 14.07 0 0 1-1-5.48 14.32 14.32 0 0 1 1-5.48 12.21 12.21 0 0 1 7-6.91 14 14 0 0 1 5.22-1 13.17 13.17 0 0 1 4.81.86 10.43 10.43 0 0 1 3.82 2.55 11.83 11.83 0 0 1 2.52 4.21 17.38 17.38 0 0 1 .88 5.95zm-6.24-2.81a7.69 7.69 0 0 0-.34-2.29 5.1 5.1 0 0 0-2.91-3.25 6.45 6.45 0 0 0-2.62-.49 7 7 0 0 0-4.76 1.69 6.16 6.16 0 0 0-2.16 4.34z"/><path class="b" d="M175.73 24H186l9.56 26.14h.16L205.14 24h10.29v36.8h-6.5V31.21h-.1l-11.17 29.57h-4.57l-11-29.57H182v29.57h-6.24zM236.41 57.61h-.16a7 7 0 0 1-3 2.73 10.23 10.23 0 0 1-4.73 1.07 13.55 13.55 0 0 1-3.14-.39 9.34 9.34 0 0 1-3-1.3 7.53 7.53 0 0 1-2.29-2.39 6.88 6.88 0 0 1-.91-3.66 6.21 6.21 0 0 1 1.58-4.47 10.26 10.26 0 0 1 4.08-2.55 23 23 0 0 1 5.54-1.17q3-.29 6-.29v-.62a3.85 3.85 0 0 0-1.69-3.46 7.13 7.13 0 0 0-4-1.12 9 9 0 0 0-3.79.83 10.2 10.2 0 0 0-3 2l-3.22-3.79a14.08 14.08 0 0 1 4.91-3 16.75 16.75 0 0 1 5.64-1 13.86 13.86 0 0 1 5.48.94 8.94 8.94 0 0 1 3.4 2.44 8.75 8.75 0 0 1 1.74 3.38 14.6 14.6 0 0 1 .49 3.74v15.25h-5.82zm-.1-8.21h-1.4q-1.51 0-3.17.13a13.82 13.82 0 0 0-3.07.57 6.56 6.56 0 0 0-2.34 1.25 2.76 2.76 0 0 0-.94 2.21 2.65 2.65 0 0 0 .39 1.48 3 3 0 0 0 1 1 4.52 4.52 0 0 0 1.4.52 7.94 7.94 0 0 0 1.56.16 6.5 6.5 0 0 0 4.9-1.72 6.43 6.43 0 0 0 1.66-4.68zM264.25 42.75a5.5 5.5 0 0 0-2.19-1.75 6.75 6.75 0 0 0-3-.7 6.25 6.25 0 0 0-3 .7 6.55 6.55 0 0 0-2.16 1.84 7.94 7.94 0 0 0-1.27 2.57 10.25 10.25 0 0 0-.42 2.88 9.72 9.72 0 0 0 .44 2.88 8 8 0 0 0 1.35 2.6 6.72 6.72 0 0 0 2.21 1.85 6.51 6.51 0 0 0 3.09.7 7.9 7.9 0 0 0 2.91-.57 5.55 5.55 0 0 0 2.34-1.66l3.9 3.95a10.33 10.33 0 0 1-4 2.57 14.72 14.72 0 0 1-5.22.91 15.38 15.38 0 0 1-5.22-.88 12.19 12.19 0 0 1-7.22-6.76 13.78 13.78 0 0 1-1.07-5.56 13.51 13.51 0 0 1 1.07-5.46 12.5 12.5 0 0 1 2.88-4.16 12.88 12.88 0 0 1 4.26-2.7 14.45 14.45 0 0 1 10.5.1 10.08 10.08 0 0 1 4.08 2.9zM81.64 24.1v-7.78L57.39.54 33.14 16.32v7.78L57.39 8.26 81.64 24.1zM74.99 10V.54h-6.65v5.13L74.99 10z"/><path class="c" d="M23.09 86.23l3.58-12.16h2.35l3.56 12.16L36 74.07h2.26L33.8 89.34h-2.22l-3.71-12.27-3.75 12.27H21.9l-4.48-15.27h2.31zM48.18 84.14v.35a2.78 2.78 0 0 1 0 .35H40a3 3 0 0 0 .32 1.16 3.17 3.17 0 0 0 .68 1 3.38 3.38 0 0 0 2.31.89 3.41 3.41 0 0 0 1.79-.45 3.64 3.64 0 0 0 1.19-1.1l1.42 1.14a5.09 5.09 0 0 1-1.93 1.6 6.19 6.19 0 0 1-4.62.12 5 5 0 0 1-1.7-1.09 5.06 5.06 0 0 1-1.12-1.69 5.71 5.71 0 0 1-.41-2.2 5.86 5.86 0 0 1 .4-2.19 5 5 0 0 1 1.11-1.71 5.1 5.1 0 0 1 1.69-1.11 5.79 5.79 0 0 1 4.14 0 4.22 4.22 0 0 1 1.56 1.06 4.77 4.77 0 0 1 1 1.67 6.62 6.62 0 0 1 .35 2.2zm-2.07-.82a3.87 3.87 0 0 0-.2-1.13 2.59 2.59 0 0 0-.54-.92 2.54 2.54 0 0 0-.88-.62 3.13 3.13 0 0 0-1.24-.23 3.27 3.27 0 0 0-1.22.23 3.16 3.16 0 0 0-1 .62 3.21 3.21 0 0 0-.69.92 2.91 2.91 0 0 0-.34 1.13zM58.52 79.41a3.54 3.54 0 0 1 2-.57 3.7 3.7 0 0 1 1.86.47 3.18 3.18 0 0 1 1.3 1.57 3.65 3.65 0 0 1 1.44-1.52 4 4 0 0 1 2-.53 4 4 0 0 1 1.7.33 3.45 3.45 0 0 1 1.19.9 3.63 3.63 0 0 1 .7 1.31A5.6 5.6 0 0 1 71 83v6.34h-2v-5.67a6.28 6.28 0 0 0-.11-1.19 3 3 0 0 0-.37-1 2 2 0 0 0-.69-.69 2.12 2.12 0 0 0-1.1-.26 2.3 2.3 0 0 0-1.19.29 2.46 2.46 0 0 0-.81.75 3.16 3.16 0 0 0-.45 1 5 5 0 0 0-.14 1.19v5.52h-2v-6.02a5.2 5.2 0 0 0-.11-1.1 2.24 2.24 0 0 0-.37-.85 1.82 1.82 0 0 0-.67-.56 2.26 2.26 0 0 0-1-.2 2.3 2.3 0 0 0-1.86.92 3.76 3.76 0 0 0-.74 2.45v5.43h-2v-8-1.06q0-.65-.06-1.14h1.92q0 .39.06.87v.81h.06a3.46 3.46 0 0 1 1.15-1.42zM80.24 82.72a2 2 0 0 0-.69-1.72 2.86 2.86 0 0 0-1.83-.55 4 4 0 0 0-1.63.33 4.12 4.12 0 0 0-1.28.85l-1.08-1.29a5.44 5.44 0 0 1 1.84-1.12 6.6 6.6 0 0 1 2.34-.41 5.3 5.3 0 0 1 1.91.31 3.62 3.62 0 0 1 1.33.85 3.5 3.5 0 0 1 .78 1.27 4.7 4.7 0 0 1 .26 1.57v5.55a5.55 5.55 0 0 0 .12.94H80.5a6.39 6.39 0 0 1-.17-1.47h-.06a3.92 3.92 0 0 1-1.41 1.27 4.23 4.23 0 0 1-2 .45 5.27 5.27 0 0 1-1.26-.16 3.65 3.65 0 0 1-1.2-.53 3 3 0 0 1-.9-1 2.89 2.89 0 0 1-.36-1.49 2.61 2.61 0 0 1 .63-1.84 4 4 0 0 1 1.64-1 9.24 9.24 0 0 1 2.29-.46q1.25-.07 2.54-.07zm-.5 1.75q-.76 0-1.56.06a7.24 7.24 0 0 0-1.47.26 2.76 2.76 0 0 0-1.09.58 1.32 1.32 0 0 0-.43 1 1.43 1.43 0 0 0 .18.75 1.52 1.52 0 0 0 .49.5 1.94 1.94 0 0 0 .67.27 3.72 3.72 0 0 0 .76.08 2.79 2.79 0 0 0 2.19-.85 3.09 3.09 0 0 0 .76-2.12v-.54zM87.09 83.56h.06l4.29-4.44h2.72l-4.79 4.63 5.2 5.58h-2.8L87.16 84h-.06v5.3h-2V73h2zM105 84.14v.35a2.78 2.78 0 0 1 0 .35h-8.14a3 3 0 0 0 .29 1.16 3.17 3.17 0 0 0 .72 1 3.38 3.38 0 0 0 2.31.89 3.41 3.41 0 0 0 1.79-.45 3.64 3.64 0 0 0 1.19-1.1l1.42 1.14a5.09 5.09 0 0 1-1.93 1.6 6.19 6.19 0 0 1-4.62.12 5 5 0 0 1-1.7-1.09 5.06 5.06 0 0 1-1.12-1.69 5.71 5.71 0 0 1-.41-2.2 5.86 5.86 0 0 1 .4-2.19 5 5 0 0 1 1.11-1.71A5.1 5.1 0 0 1 98 79.24a5.79 5.79 0 0 1 4.14 0 4.22 4.22 0 0 1 1.56 1.06 4.77 4.77 0 0 1 1 1.67 6.62 6.62 0 0 1 .3 2.17zm-2.07-.82a3.87 3.87 0 0 0-.2-1.13 2.59 2.59 0 0 0-.54-.92 2.54 2.54 0 0 0-.88-.62 3.13 3.13 0 0 0-1.24-.23 3.27 3.27 0 0 0-1.22.23 3.16 3.16 0 0 0-1 .62 3.21 3.21 0 0 0-.69.92 2.91 2.91 0 0 0-.31 1.13zM114.24 80.67a3.16 3.16 0 0 1 1.25-1.29 3.74 3.74 0 0 1 2-.54 4 4 0 0 1 1.7.33 3.45 3.45 0 0 1 1.19.9 3.63 3.63 0 0 1 .7 1.31 5.6 5.6 0 0 1 .23 1.62v6.34h-2v-5.67a7 7 0 0 0-.1-1.19 2.88 2.88 0 0 0-.36-1 2 2 0 0 0-.7-.69 2.26 2.26 0 0 0-1.15-.26 2.48 2.48 0 0 0-2 .92 3.67 3.67 0 0 0-.78 2.45v5.42h-2V73h2v7.63zM134.52 84.2a5.52 5.52 0 0 1-.42 2.18 5.17 5.17 0 0 1-1.16 1.71 5.25 5.25 0 0 1-1.76 1.12 6.14 6.14 0 0 1-4.35 0 5.12 5.12 0 0 1-1.75-1.12 5.26 5.26 0 0 1-1.15-1.71 5.52 5.52 0 0 1-.42-2.18 5.45 5.45 0 0 1 .42-2.17 5.1 5.1 0 0 1 2.9-2.8 6.14 6.14 0 0 1 4.35 0 5.34 5.34 0 0 1 1.76 1.11A5.08 5.08 0 0 1 134.1 82a5.45 5.45 0 0 1 .42 2.2zm-2.11 0a4.31 4.31 0 0 0-.23-1.4 3.53 3.53 0 0 0-.66-1.17 3.17 3.17 0 0 0-1.07-.81 3.69 3.69 0 0 0-2.92 0 3.17 3.17 0 0 0-1.07.81 3.52 3.52 0 0 0-.66 1.17 4.41 4.41 0 0 0 0 2.79 3.65 3.65 0 0 0 .66 1.18 3.12 3.12 0 0 0 1.07.82 3.7 3.7 0 0 0 2.92 0 3.12 3.12 0 0 0 1.07-.82 3.66 3.66 0 0 0 .66-1.18 4.31 4.31 0 0 0 .23-1.37zM140 79.41a3.54 3.54 0 0 1 2-.57 3.7 3.7 0 0 1 1.86.47 3.18 3.18 0 0 1 1.3 1.57 3.65 3.65 0 0 1 1.44-1.52 4 4 0 0 1 2-.53 4 4 0 0 1 1.7.33 3.45 3.45 0 0 1 1.19.9 3.63 3.63 0 0 1 .7 1.31 5.6 5.6 0 0 1 .23 1.62v6.34h-2v-5.66a6.28 6.28 0 0 0-.11-1.19 3 3 0 0 0-.37-1 2 2 0 0 0-.69-.69 2.12 2.12 0 0 0-1.1-.26 2.3 2.3 0 0 0-1.19.29 2.46 2.46 0 0 0-.81.75 3.16 3.16 0 0 0-.45 1 5 5 0 0 0-.14 1.19v5.52h-2v-6.02a5.2 5.2 0 0 0-.11-1.1 2.24 2.24 0 0 0-.37-.85 1.82 1.82 0 0 0-.67-.56 2.26 2.26 0 0 0-1-.2 2.3 2.3 0 0 0-1.86.92 3.76 3.76 0 0 0-.74 2.45v5.43h-2v-8-1.06q0-.65-.06-1.14h1.92q0 .39.06.87v.81h.06a3.46 3.46 0 0 1 1.21-1.42zM164.92 84.14v.35a2.78 2.78 0 0 1 0 .35h-8.13a3 3 0 0 0 .29 1.21 3.17 3.17 0 0 0 .72 1 3.38 3.38 0 0 0 2.31.89 3.41 3.41 0 0 0 1.79-.45 3.64 3.64 0 0 0 1.19-1.1l1.42 1.14a5.09 5.09 0 0 1-1.93 1.6 6.19 6.19 0 0 1-4.62.12 5 5 0 0 1-1.7-1.09 5.06 5.06 0 0 1-1.12-1.69 5.71 5.71 0 0 1-.41-2.2 5.86 5.86 0 0 1 .4-2.19 5 5 0 0 1 1.11-1.71 5.1 5.1 0 0 1 1.69-1.11 5.79 5.79 0 0 1 4.14 0 4.22 4.22 0 0 1 1.56 1.06 4.77 4.77 0 0 1 1 1.67 6.62 6.62 0 0 1 .29 2.15zm-2.07-.82a3.87 3.87 0 0 0-.2-1.13 2.59 2.59 0 0 0-.54-.92 2.54 2.54 0 0 0-.88-.62 3.13 3.13 0 0 0-1.24-.23 3.27 3.27 0 0 0-1.22.23 3.16 3.16 0 0 0-1 .62 3.21 3.21 0 0 0-.69.92 2.91 2.91 0 0 0-.31 1.13zM174.06 94.51h-2V79.12h2v1.6h.06a3.78 3.78 0 0 1 1.45-1.35 4.54 4.54 0 0 1 2.23-.53 5.13 5.13 0 0 1 2.08.41 4.8 4.8 0 0 1 1.61 1.14 5.14 5.14 0 0 1 1 1.71 6 6 0 0 1 .37 2.1 6.05 6.05 0 0 1-.37 2.11 5.21 5.21 0 0 1-1 1.73 4.77 4.77 0 0 1-1.61 1.15 5.19 5.19 0 0 1-2.13.42 4.62 4.62 0 0 1-2.06-.47 3.74 3.74 0 0 1-1.53-1.34h-.06zm6.73-10.3a4.48 4.48 0 0 0-.22-1.38 3.53 3.53 0 0 0-.65-1.19 3.11 3.11 0 0 0-1.07-.82 3.42 3.42 0 0 0-1.48-.3 3.25 3.25 0 0 0-1.41.3 3.33 3.33 0 0 0-1.09.82 3.77 3.77 0 0 0-.7 1.19 4.08 4.08 0 0 0 0 2.8 3.63 3.63 0 0 0 .7 1.17 3.39 3.39 0 0 0 1.09.81 3.25 3.25 0 0 0 1.41.3 3.31 3.31 0 0 0 1.48-.31 3.22 3.22 0 0 0 1.07-.83 3.52 3.52 0 0 0 .65-1.19 4.47 4.47 0 0 0 .22-1.38zM195.51 84.2a5.52 5.52 0 0 1-.42 2.18 5.17 5.17 0 0 1-1.16 1.71 5.25 5.25 0 0 1-1.76 1.12 6.14 6.14 0 0 1-4.35 0 5.12 5.12 0 0 1-1.75-1.12 5.26 5.26 0 0 1-1.15-1.71 5.52 5.52 0 0 1-.42-2.18 5.45 5.45 0 0 1 .42-2.17 5.1 5.1 0 0 1 2.9-2.8 6.14 6.14 0 0 1 4.35 0 5.34 5.34 0 0 1 1.76 1.11 5.08 5.08 0 0 1 1.16 1.66 5.45 5.45 0 0 1 .42 2.2zm-2.11 0a4.31 4.31 0 0 0-.23-1.4 3.53 3.53 0 0 0-.66-1.17 3.17 3.17 0 0 0-1.07-.81 3.69 3.69 0 0 0-2.92 0 3.17 3.17 0 0 0-1.07.81 3.52 3.52 0 0 0-.66 1.17 4.41 4.41 0 0 0 0 2.79 3.65 3.65 0 0 0 .66 1.18 3.12 3.12 0 0 0 1.07.82 3.7 3.7 0 0 0 2.92 0 3.12 3.12 0 0 0 1.07-.82 3.66 3.66 0 0 0 .66-1.18 4.31 4.31 0 0 0 .23-1.37zM203.3 81.7a2.65 2.65 0 0 0-1-.92 2.78 2.78 0 0 0-1.4-.36 3.25 3.25 0 0 0-.69.08 2 2 0 0 0-.61.24 1.31 1.31 0 0 0-.43.41 1.1 1.1 0 0 0-.16.61 1 1 0 0 0 .58 1 7.17 7.17 0 0 0 1.75.57 10.84 10.84 0 0 1 1.36.41 4.26 4.26 0 0 1 1.09.59 2.56 2.56 0 0 1 .72.85 2.49 2.49 0 0 1 .26 1.16 3.13 3.13 0 0 1-.35 1.53 3 3 0 0 1-.92 1 3.75 3.75 0 0 1-1.3.57 6.58 6.58 0 0 1-1.51.17 6 6 0 0 1-2.27-.45 4.45 4.45 0 0 1-1.84-1.38l1.42-1.23a3.3 3.3 0 0 0 1.13 1 3.16 3.16 0 0 0 1.58.41 3.56 3.56 0 0 0 .74-.08 2.14 2.14 0 0 0 .65-.25 1.32 1.32 0 0 0 .46-.45 1.34 1.34 0 0 0 .17-.71 1.12 1.12 0 0 0-.68-1.06 9.12 9.12 0 0 0-2-.65q-.52-.13-1-.31a3.5 3.5 0 0 1-1-.51 2.54 2.54 0 0 1-.7-.81 2.43 2.43 0 0 1-.27-1.2 2.83 2.83 0 0 1 .33-1.41 2.91 2.91 0 0 1 .87-1 3.85 3.85 0 0 1 1.23-.56 5.55 5.55 0 0 1 1.42-.18 5.42 5.42 0 0 1 2.12.43 3.52 3.52 0 0 1 1.58 1.25zM212.33 81.7a2.65 2.65 0 0 0-1-.92 2.78 2.78 0 0 0-1.4-.36 3.25 3.25 0 0 0-.69.08 2 2 0 0 0-.61.24 1.31 1.31 0 0 0-.43.41 1.1 1.1 0 0 0-.16.61 1 1 0 0 0 .58 1 7.17 7.17 0 0 0 1.75.57 10.84 10.84 0 0 1 1.36.41 4.26 4.26 0 0 1 1.09.59 2.56 2.56 0 0 1 .72.85 2.49 2.49 0 0 1 .26 1.16 3.13 3.13 0 0 1-.35 1.53 3 3 0 0 1-.92 1 3.75 3.75 0 0 1-1.3.57 6.58 6.58 0 0 1-1.51.17 6 6 0 0 1-2.27-.45 4.45 4.45 0 0 1-1.84-1.38l1.45-1.23a3.3 3.3 0 0 0 1.13 1 3.16 3.16 0 0 0 1.58.41 3.56 3.56 0 0 0 .74-.08 2.14 2.14 0 0 0 .65-.25 1.32 1.32 0 0 0 .46-.45 1.34 1.34 0 0 0 .17-.71 1.12 1.12 0 0 0-.68-1.06 9.12 9.12 0 0 0-2-.65q-.52-.13-1-.31a3.5 3.5 0 0 1-1-.51 2.54 2.54 0 0 1-.7-.81 2.43 2.43 0 0 1-.27-1.2 2.83 2.83 0 0 1 .33-1.41 2.91 2.91 0 0 1 .87-1 3.85 3.85 0 0 1 1.26-.52 5.55 5.55 0 0 1 1.42-.18 5.42 5.42 0 0 1 2.12.43 3.52 3.52 0 0 1 1.58 1.25zM218.21 75.43a1.21 1.21 0 0 1-.4.93 1.35 1.35 0 0 1-1 .37 1.29 1.29 0 0 1-.94-.38 1.23 1.23 0 0 1-.39-.92 1.26 1.26 0 0 1 .39-.94 1.29 1.29 0 0 1 .94-.38 1.33 1.33 0 0 1 1 .38 1.24 1.24 0 0 1 .4.94zm-.32 13.91h-2V79.12h2zM222.89 87.72v1.62h-2V73h2v7.61h.11a4.28 4.28 0 0 1 1.44-1.28 4.35 4.35 0 0 1 2.19-.53 5.13 5.13 0 0 1 2.08.41 4.8 4.8 0 0 1 1.61 1.14 5.14 5.14 0 0 1 1 1.71 6 6 0 0 1 .37 2.1 6.05 6.05 0 0 1-.37 2.11 5.21 5.21 0 0 1-1 1.73 4.77 4.77 0 0 1-1.61 1.15 5.2 5.2 0 0 1-2.13.42 4.67 4.67 0 0 1-2.09-.49 3.91 3.91 0 0 1-1.59-1.41zm6.79-3.5a4.45 4.45 0 0 0-.22-1.38 3.52 3.52 0 0 0-.65-1.18 3.1 3.1 0 0 0-1.07-.82 3.42 3.42 0 0 0-1.48-.3 3.26 3.26 0 0 0-1.41.3 3.32 3.32 0 0 0-1.09.82 3.75 3.75 0 0 0-.7 1.18 4.06 4.06 0 0 0 0 2.79 3.62 3.62 0 0 0 .7 1.17 3.39 3.39 0 0 0 1.09.81 3.25 3.25 0 0 0 1.41.3 3.32 3.32 0 0 0 1.48-.31 3.21 3.21 0 0 0 1.07-.83 3.51 3.51 0 0 0 .65-1.18 4.45 4.45 0 0 0 .22-1.37zM235.91 89.34h-2V73h2zM248.24 84.14v.35a2.78 2.78 0 0 1 0 .35h-8.13a3 3 0 0 0 .29 1.21 3.17 3.17 0 0 0 .72 1 3.38 3.38 0 0 0 2.31.89 3.41 3.41 0 0 0 1.79-.45 3.64 3.64 0 0 0 1.19-1.1l1.42 1.14a5.09 5.09 0 0 1-1.93 1.6 6.19 6.19 0 0 1-4.62.12 5 5 0 0 1-1.7-1.09 5.06 5.06 0 0 1-1.12-1.69 5.71 5.71 0 0 1-.41-2.2 5.86 5.86 0 0 1 .4-2.19 5 5 0 0 1 1.11-1.71 5.1 5.1 0 0 1 1.69-1.11 5.79 5.79 0 0 1 4.14 0 4.22 4.22 0 0 1 1.56 1.06 4.77 4.77 0 0 1 1 1.67 6.62 6.62 0 0 1 .29 2.15zm-2.07-.82a3.87 3.87 0 0 0-.2-1.13 2.59 2.59 0 0 0-.54-.92 2.54 2.54 0 0 0-.88-.62 3.13 3.13 0 0 0-1.24-.23 3.27 3.27 0 0 0-1.22.23 3.16 3.16 0 0 0-1 .62 3.21 3.21 0 0 0-.69.92 2.91 2.91 0 0 0-.31 1.13zM253.68 75.59a3.2 3.2 0 1 1-3.22 3.18 3.18 3.18 0 0 1 3.22-3.18zm0 5.92a2.73 2.73 0 1 0-2.68-2.74 2.64 2.64 0 0 0 2.68 2.75zm-1.25-4.6h1.44c.89 0 1.31.35 1.31 1.07a1 1 0 0 1-1 1l1.07 1.65h-.62l-1-1.61H253v1.61h-.58zm.58 1.66h.61c.51 0 1 0 1-.62s-.43-.57-.82-.57h-.8z"/></svg>