<?xml version='1.0' encoding='iso-8859-1'?>
<svg version="1.1" xmlns="http://www.w3.org/2000/svg" viewBox="0 0 463 463" xmlns:xlink="http://www.w3.org/1999/xlink" enable-background="new 0 0 463 463">
  <g>
    <path d="M375.5,16H359V7.5c0-4.143-3.357-7.5-7.5-7.5S344,3.357,344,7.5V16h-33V7.5c0-4.143-3.357-7.5-7.5-7.5S296,3.357,296,7.5   V16h-33V7.5c0-4.143-3.357-7.5-7.5-7.5S248,3.357,248,7.5V16h-33V7.5c0-4.143-3.357-7.5-7.5-7.5S200,3.357,200,7.5V16h-33V7.5   c0-4.143-3.357-7.5-7.5-7.5S152,3.357,152,7.5V16h-33V7.5c0-4.143-3.357-7.5-7.5-7.5S104,3.357,104,7.5V16H87.5   C74.542,16,64,26.542,64,39.5v400c0,12.958,10.542,23.5,23.5,23.5h288c12.958,0,23.5-10.542,23.5-23.5v-400   C399,26.542,388.458,16,375.5,16z M384,439.5c0,4.687-3.813,8.5-8.5,8.5h-288c-4.687,0-8.5-3.813-8.5-8.5v-400   c0-4.687,3.813-8.5,8.5-8.5H104v8.5c0,4.143,3.357,7.5,7.5,7.5s7.5-3.357,7.5-7.5V31h33v8.5c0,4.143,3.357,7.5,7.5,7.5   s7.5-3.357,7.5-7.5V31h33v8.5c0,4.143,3.357,7.5,7.5,7.5s7.5-3.357,7.5-7.5V31h33v8.5c0,4.143,3.357,7.5,7.5,7.5s7.5-3.357,7.5-7.5   V31h33v8.5c0,4.143,3.357,7.5,7.5,7.5s7.5-3.357,7.5-7.5V31h33v8.5c0,4.143,3.357,7.5,7.5,7.5s7.5-3.357,7.5-7.5V31h16.5   c4.687,0,8.5,3.813,8.5,8.5V439.5z"/>
    <path d="m207.5,119h112c4.143,0 7.5-3.357 7.5-7.5s-3.357-7.5-7.5-7.5h-112c-4.143,0-7.5,3.357-7.5,7.5s3.357,7.5 7.5,7.5z"/>
    <path d="m351.5,136h-144c-4.143,0-7.5,3.357-7.5,7.5s3.357,7.5 7.5,7.5h144c4.143,0 7.5-3.357 7.5-7.5s-3.357-7.5-7.5-7.5z"/>
    <path d="m170.196,98.196l-34.696,34.698-18.696-18.697c-2.93-2.928-7.678-2.928-10.607,0-2.929,2.93-2.929,7.678 0,10.607l24,24c1.465,1.464 3.385,2.196 5.304,2.196s3.839-0.732 5.304-2.196l40-40c2.929-2.93 2.929-7.678 0-10.607-2.931-2.928-7.679-2.928-10.609-0.001z"/>
    <path d="m207.5,199h112c4.143,0 7.5-3.357 7.5-7.5s-3.357-7.5-7.5-7.5h-112c-4.143,0-7.5,3.357-7.5,7.5s3.357,7.5 7.5,7.5z"/>
    <path d="m351.5,216h-144c-4.143,0-7.5,3.357-7.5,7.5s3.357,7.5 7.5,7.5h144c4.143,0 7.5-3.357 7.5-7.5s-3.357-7.5-7.5-7.5z"/>
    <path d="m170.196,178.196l-34.696,34.698-18.696-18.697c-2.93-2.928-7.678-2.928-10.607,0-2.929,2.93-2.929,7.678 0,10.607l24,24c1.465,1.464 3.385,2.196 5.304,2.196s3.839-0.732 5.304-2.196l40-40c2.929-2.93 2.929-7.678 0-10.607-2.931-2.928-7.679-2.928-10.609-0.001z"/>
    <path d="m207.5,279h112c4.143,0 7.5-3.357 7.5-7.5s-3.357-7.5-7.5-7.5h-112c-4.143,0-7.5,3.357-7.5,7.5s3.357,7.5 7.5,7.5z"/>
    <path d="m351.5,296h-144c-4.143,0-7.5,3.357-7.5,7.5s3.357,7.5 7.5,7.5h144c4.143,0 7.5-3.357 7.5-7.5s-3.357-7.5-7.5-7.5z"/>
    <path d="m170.196,258.196l-34.696,34.698-18.696-18.697c-2.93-2.928-7.678-2.928-10.607,0-2.929,2.93-2.929,7.678 0,10.607l24,24c1.465,1.464 3.385,2.196 5.304,2.196s3.839-0.732 5.304-2.196l40-40c2.929-2.93 2.929-7.678 0-10.607-2.931-2.928-7.679-2.928-10.609-0.001z"/>
    <path d="m207.5,359h112c4.143,0 7.5-3.357 7.5-7.5s-3.357-7.5-7.5-7.5h-112c-4.143,0-7.5,3.357-7.5,7.5s3.357,7.5 7.5,7.5z"/>
    <path d="m351.5,376h-144c-4.143,0-7.5,3.357-7.5,7.5s3.357,7.5 7.5,7.5h144c4.143,0 7.5-3.357 7.5-7.5s-3.357-7.5-7.5-7.5z"/>
    <path d="m170.196,338.196l-34.696,34.698-18.696-18.697c-2.93-2.928-7.678-2.928-10.607,0-2.929,2.93-2.929,7.678 0,10.607l24,24c1.465,1.464 3.385,2.196 5.304,2.196s3.839-0.732 5.304-2.196l40-40c2.929-2.93 2.929-7.678 0-10.607-2.931-2.928-7.679-2.928-10.609-0.001z"/>
  </g>
</svg>
