<?xml version="1.0" encoding="UTF-8" standalone="no"?>
<svg
   id="Group_8100"
   width="800"
   height="524"
   version="1.1"
   viewBox="0 0 800 524"
   sodipodi:docname="service-mesh.svg"
   inkscape:version="1.3 (0e150ed, 2023-07-21)"
   xmlns:inkscape="http://www.inkscape.org/namespaces/inkscape"
   xmlns:sodipodi="http://sodipodi.sourceforge.net/DTD/sodipodi-0.dtd"
   xmlns="http://www.w3.org/2000/svg"
   xmlns:svg="http://www.w3.org/2000/svg">
  <sodipodi:namedview
     id="namedview1"
     pagecolor="#ffffff"
     bordercolor="#000000"
     borderopacity="0.25"
     inkscape:showpageshadow="2"
     inkscape:pageopacity="0.0"
     inkscape:pagecheckerboard="0"
     inkscape:deskcolor="#d1d1d1"
     inkscape:zoom="1.2738718"
     inkscape:cx="319.49841"
     inkscape:cy="240.99757"
     inkscape:window-width="1920"
     inkscape:window-height="1027"
     inkscape:window-x="0"
     inkscape:window-y="25"
     inkscape:window-maximized="1"
     inkscape:current-layer="Group_8100" />
  <metadata
     id="metadata1116" />
  <defs
     id="defs577">
    <clipPath
       id="clip-path">
      <path
         id="Rectangle_707"
         fill="none"
         d="M0 0H800V524H0z" />
    </clipPath>
    <style
       id="style575">.cls-3{fill:#7dc6f2}.cls-4{fill:#516baa}.cls-5{fill:#fff}.cls-6{fill:#41507c}.cls-7{fill:#293655}</style>
  </defs>
  <path
     id="Path_10433"
     d="M 1.5,262 A 1.5,1.5 0 1 1 0,263.5 1.5,1.5 0 0 1 1.5,262"
     class="cls-3" />
  <path
     id="Path_10434"
     d="M 1.5,381 A 1.5,1.5 0 1 1 0,382.5 1.5,1.5 0 0 1 1.5,381"
     class="cls-3" />
  <path
     id="Path_10435"
     d="M 1.5,184 A 1.5,1.5 0 1 1 0,185.5 1.5,1.5 0 0 1 1.5,184"
     class="cls-3" />
  <path
     id="Path_10436"
     d="M 1.5,296 A 1.5,1.5 0 1 1 0,297.5 1.5,1.5 0 0 1 1.5,296"
     class="cls-3" />
  <path
     id="Path_10437"
     d="M 1.5,99 A 1.5,1.5 0 1 1 0,100.5 1.5,1.5 0 0 1 1.5,99"
     class="cls-3" />
  <path
     id="Path_10438"
     d="M 70,522.5 A 1.5,1.5 0 1 1 71.5,524 1.5,1.5 0 0 1 70,522.5"
     class="cls-3" />
  <path
     id="Path_10439"
     d="M 1.5,255 A 1.5,1.5 0 1 1 0,256.5 1.5,1.5 0 0 1 1.5,255"
     class="cls-3" />
  <path
     id="Path_10440"
     d="M 1.5,374 A 1.5,1.5 0 1 1 0,375.5 1.5,1.5 0 0 1 1.5,374"
     class="cls-3" />
  <path
     id="Path_10441"
     d="M 1.5,177 A 1.5,1.5 0 1 1 0,178.5 1.5,1.5 0 0 1 1.5,177"
     class="cls-3" />
  <path
     id="Path_10442"
     d="M 1.5,212 A 1.5,1.5 0 1 1 0,213.5 1.5,1.5 0 0 1 1.5,212"
     class="cls-3" />
  <path
     id="Path_10443"
     d="M 1.5,331 A 1.5,1.5 0 1 1 0,332.5 1.5,1.5 0 0 1 1.5,331"
     class="cls-3" />
  <path
     id="Path_10444"
     d="M 1.5,134 A 1.5,1.5 0 1 1 0,135.5 1.5,1.5 0 0 1 1.5,134"
     class="cls-3" />
  <path
     id="Path_10445"
     d="M 63,522.5 A 1.5,1.5 0 1 1 64.5,524 1.5,1.5 0 0 1 63,522.5"
     class="cls-3" />
  <path
     id="Path_10446"
     d="M 56,522.5 A 1.5,1.5 0 1 1 57.5,524 1.5,1.5 0 0 1 56,522.5"
     class="cls-3" />
  <path
     id="Path_10447"
     d="M 49,522.5 A 1.5,1.5 0 1 1 50.5,524 1.5,1.5 0 0 1 49,522.5"
     class="cls-3" />
  <path
     id="Path_10448"
     d="M 42,522.5 A 1.5,1.5 0 1 1 43.5,524 1.5,1.5 0 0 1 42,522.5"
     class="cls-3" />
  <path
     id="Path_10449"
     d="M 1.5,269 A 1.5,1.5 0 1 1 0,270.5 1.5,1.5 0 0 1 1.5,269"
     class="cls-3" />
  <path
     id="Path_10450"
     d="M 1.5,388 A 1.5,1.5 0 1 1 0,389.5 1.5,1.5 0 0 1 1.5,388"
     class="cls-3" />
  <path
     id="Path_10451"
     d="M 1.5,191 A 1.5,1.5 0 1 1 0,192.5 1.5,1.5 0 0 1 1.5,191"
     class="cls-3" />
  <path
     id="Path_10452"
     d="M 1.5,227 A 1.5,1.5 0 1 1 0,228.5 1.5,1.5 0 0 1 1.5,227"
     class="cls-3" />
  <path
     id="Path_10453"
     d="M 1.5,220 A 1.5,1.5 0 1 1 0,221.5 1.5,1.5 0 0 1 1.5,220"
     class="cls-3" />
  <path
     id="Path_10454"
     d="M 1.5,346 A 1.5,1.5 0 1 1 0,347.5 1.5,1.5 0 0 1 1.5,346"
     class="cls-3" />
  <path
     id="Path_10455"
     d="M 1.5,339 A 1.5,1.5 0 1 1 0,340.5 1.5,1.5 0 0 1 1.5,339"
     class="cls-3" />
  <path
     id="Path_10456"
     d="M 1.5,149 A 1.5,1.5 0 1 1 0,150.5 1.5,1.5 0 0 1 1.5,149"
     class="cls-3" />
  <path
     id="Path_10457"
     d="M 1.5,142 A 1.5,1.5 0 1 1 0,143.5 1.5,1.5 0 0 1 1.5,142"
     class="cls-3" />
  <path
     id="Path_10458"
     d="M 1.5,303 A 1.5,1.5 0 1 1 0,304.5 1.5,1.5 0 0 1 1.5,303"
     class="cls-3" />
  <path
     id="Path_10459"
     d="M 1.5,106 A 1.5,1.5 0 1 1 0,107.5 1.5,1.5 0 0 1 1.5,106"
     class="cls-3" />
  <path
     id="Path_10460"
     d="M 1.5,276 A 1.5,1.5 0 1 1 0,277.5 1.5,1.5 0 0 1 1.5,276"
     class="cls-3" />
  <path
     id="Path_10461"
     d="M 1.5,395 A 1.5,1.5 0 1 1 0,396.5 1.5,1.5 0 0 1 1.5,395"
     class="cls-3" />
  <path
     id="Path_10462"
     d="M 1.5,198 A 1.5,1.5 0 1 1 0,199.5 1.5,1.5 0 0 1 1.5,198"
     class="cls-3" />
  <path
     id="Path_10463"
     d="M 1.5,234 A 1.5,1.5 0 1 1 0,235.5 1.5,1.5 0 0 1 1.5,234"
     class="cls-3" />
  <path
     id="Path_10464"
     d="M 1.5,353 A 1.5,1.5 0 1 1 0,354.5 1.5,1.5 0 0 1 1.5,353"
     class="cls-3" />
  <path
     id="Path_10465"
     d="M 1.5,156 A 1.5,1.5 0 1 1 0,157.5 1.5,1.5 0 0 1 1.5,156"
     class="cls-3" />
  <path
     id="Path_10466"
     d="M 1.5,310 A 1.5,1.5 0 1 1 0,311.5 1.5,1.5 0 0 1 1.5,310"
     class="cls-3" />
  <path
     id="Path_10467"
     d="M 1.5,113 A 1.5,1.5 0 1 1 0,114.5 1.5,1.5 0 0 1 1.5,113"
     class="cls-3" />
  <path
     id="Path_10468"
     d="M 85,522.5 A 1.5,1.5 0 1 1 86.5,524 1.5,1.5 0 0 1 85,522.5"
     class="cls-3" />
  <path
     id="Path_10469"
     d="M 77,522.5 A 1.5,1.5 0 1 1 78.5,524 1.5,1.5 0 0 1 77,522.5"
     class="cls-3" />
  <path
     id="Path_10470"
     d="M 1.5,283 A 1.5,1.5 0 1 1 0,284.5 1.5,1.5 0 0 1 1.5,283"
     class="cls-3" />
  <path
     id="Path_10471"
     d="M 1.5,289 A 1.5,1.5 0 1 1 0,290.5 1.5,1.5 0 0 1 1.5,289"
     class="cls-3" />
  <path
     id="Path_10472"
     d="M 1.5,402 A 1.5,1.5 0 1 1 0,403.5 1.5,1.5 0 0 1 1.5,402"
     class="cls-3" />
  <path
     id="Path_10473"
     d="M 1.5,205 A 1.5,1.5 0 1 1 0,206.5 1.5,1.5 0 0 1 1.5,205"
     class="cls-3" />
  <path
     id="Path_10474"
     d="M 1.5,241 A 1.5,1.5 0 1 1 0,242.5 1.5,1.5 0 0 1 1.5,241"
     class="cls-3" />
  <path
     id="Path_10475"
     d="M 1.5,360 A 1.5,1.5 0 1 1 0,361.5 1.5,1.5 0 0 1 1.5,360"
     class="cls-3" />
  <path
     id="Path_10476"
     d="M 1.5,163 A 1.5,1.5 0 1 1 0,164.5 1.5,1.5 0 0 1 1.5,163"
     class="cls-3" />
  <path
     id="Path_10477"
     d="M 1.5,317 A 1.5,1.5 0 1 1 0,318.5 1.5,1.5 0 0 1 1.5,317"
     class="cls-3" />
  <path
     id="Path_10478"
     d="M 1.5,120 A 1.5,1.5 0 1 1 0,121.5 1.5,1.5 0 0 1 1.5,120"
     class="cls-3" />
  <path
     id="Path_10479"
     d="M 92,522.5 A 1.5,1.5 0 1 1 93.5,524 1.5,1.5 0 0 1 92,522.5"
     class="cls-3" />
  <path
     id="Path_10480"
     d="M 1.5,409 A 1.5,1.5 0 1 1 0,410.5 1.5,1.5 0 0 1 1.5,409"
     class="cls-3" />
  <path
     id="Path_10481"
     d="M 1.5,248 A 1.5,1.5 0 1 1 0,249.5 1.5,1.5 0 0 1 1.5,248"
     class="cls-3" />
  <path
     id="Path_10482"
     d="M 1.5,367 A 1.5,1.5 0 1 1 0,368.5 1.5,1.5 0 0 1 1.5,367"
     class="cls-3" />
  <path
     id="Path_10483"
     d="M 1.5,170 A 1.5,1.5 0 1 1 0,171.5 1.5,1.5 0 0 1 1.5,170"
     class="cls-3" />
  <path
     id="Path_10484"
     d="M 1.5,324 A 1.5,1.5 0 1 1 0,325.5 1.5,1.5 0 0 1 1.5,324"
     class="cls-3" />
  <path
     id="Path_10485"
     d="M 1.5,127 A 1.5,1.5 0 1 1 0,128.5 1.5,1.5 0 0 1 1.5,127"
     class="cls-3" />
  <path
     id="Path_10486"
     d="M 1.5,71 A 1.5,1.5 0 1 1 0,72.5 1.5,1.5 0 0 1 1.5,71"
     class="cls-3" />
  <path
     id="Path_10487"
     d="M 1.5,64 A 1.5,1.5 0 1 1 0,65.5 1.5,1.5 0 0 1 1.5,64"
     class="cls-3" />
  <path
     id="Path_10488"
     d="M 1.5,21 A 1.5,1.5 0 1 1 0,22.5 1.5,1.5 0 0 1 1.5,21"
     class="cls-3" />
  <path
     id="Path_10489"
     d="M 1.5,78 A 1.5,1.5 0 1 1 0,79.5 1.5,1.5 0 0 1 1.5,78"
     class="cls-3" />
  <path
     id="Path_10490"
     d="M 1.5,36 A 1.5,1.5 0 1 1 0,37.5 1.5,1.5 0 0 1 1.5,36"
     class="cls-3" />
  <path
     id="Path_10491"
     d="M 1.5,29 A 1.5,1.5 0 1 1 0,30.5 1.5,1.5 0 0 1 1.5,29"
     class="cls-3" />
  <path
     id="Path_10492"
     d="M 1.5,85 A 1.5,1.5 0 1 1 0,86.5 1.5,1.5 0 0 1 1.5,85"
     class="cls-3" />
  <path
     id="Path_10493"
     d="M 1.5,43 A 1.5,1.5 0 1 1 0,44.5 1.5,1.5 0 0 1 1.5,43"
     class="cls-3" />
  <path
     id="Path_10494"
     d="M 1.5,0 A 1.5,1.5 0 1 1 0,1.5 1.5,1.5 0 0 1 1.5,0"
     class="cls-3" />
  <path
     id="Path_10495"
     d="M 1.5,92 A 1.5,1.5 0 1 1 0,93.5 1.5,1.5 0 0 1 1.5,92"
     class="cls-3" />
  <path
     id="Path_10496"
     d="M 1.5,50 A 1.5,1.5 0 1 1 0,51.5 1.5,1.5 0 0 1 1.5,50"
     class="cls-3" />
  <path
     id="Path_10497"
     d="M 1.5,7 A 1.5,1.5 0 1 1 0,8.5 1.5,1.5 0 0 1 1.5,7"
     class="cls-3" />
  <path
     id="Path_10498"
     d="M 1.5,57 A 1.5,1.5 0 1 1 0,58.5 1.5,1.5 0 0 1 1.5,57"
     class="cls-3" />
  <path
     id="Path_10499"
     d="M 1.5,14 A 1.5,1.5 0 1 1 0,15.5 1.5,1.5 0 0 1 1.5,14"
     class="cls-3" />
  <path
     id="Path_10500"
     d="m 99,522.5 a 1.5,1.5 0 1 1 1.5,1.5 1.5,1.5 0 0 1 -1.5,-1.5"
     class="cls-3" />
  <path
     id="Path_10501"
     d="m 318.5,521 a 1.5,1.5 0 1 1 -1.5,1.5 1.5,1.5 0 0 1 1.5,-1.5"
     class="cls-3" />
  <path
     id="Path_10502"
     d="M 1.5,416 A 1.5,1.5 0 1 1 0,417.5 1.5,1.5 0 0 1 1.5,416"
     class="cls-3" />
  <path
     id="Path_10503"
     d="m 798.5,262 a 1.5,1.5 0 1 1 -1.5,1.5 1.5,1.5 0 0 1 1.5,-1.5"
     class="cls-3" />
  <path
     id="Path_10504"
     d="m 798.5,381 a 1.5,1.5 0 1 1 -1.5,1.5 1.5,1.5 0 0 1 1.5,-1.5"
     class="cls-3" />
  <path
     id="Path_10505"
     d="m 798.5,184 a 1.5,1.5 0 1 1 -1.5,1.5 1.5,1.5 0 0 1 1.5,-1.5"
     class="cls-3" />
  <path
     id="Path_10506"
     d="m 798.5,296 a 1.5,1.5 0 1 1 -1.5,1.5 1.5,1.5 0 0 1 1.5,-1.5"
     class="cls-3" />
  <path
     id="Path_10507"
     d="m 798.5,99 a 1.5,1.5 0 1 1 -1.5,1.5 1.5,1.5 0 0 1 1.5,-1.5"
     class="cls-3" />
  <path
     id="Path_10508"
     d="m 798.5,255 a 1.5,1.5 0 1 1 -1.5,1.5 1.5,1.5 0 0 1 1.5,-1.5"
     class="cls-3" />
  <path
     id="Path_10509"
     d="m 798.5,374 a 1.5,1.5 0 1 1 -1.5,1.5 1.5,1.5 0 0 1 1.5,-1.5"
     class="cls-3" />
  <path
     id="Path_10510"
     d="m 798.5,177 a 1.5,1.5 0 1 1 -1.5,1.5 1.5,1.5 0 0 1 1.5,-1.5"
     class="cls-3" />
  <path
     id="Path_10511"
     d="m 798.5,212 a 1.5,1.5 0 1 1 -1.5,1.5 1.5,1.5 0 0 1 1.5,-1.5"
     class="cls-3" />
  <path
     id="Path_10512"
     d="m 798.5,331 a 1.5,1.5 0 1 1 -1.5,1.5 1.5,1.5 0 0 1 1.5,-1.5"
     class="cls-3" />
  <path
     id="Path_10513"
     d="m 798.5,134 a 1.5,1.5 0 1 1 -1.5,1.5 1.5,1.5 0 0 1 1.5,-1.5"
     class="cls-3" />
  <path
     id="Path_10514"
     d="m 798.5,269 a 1.5,1.5 0 1 1 -1.5,1.5 1.5,1.5 0 0 1 1.5,-1.5"
     class="cls-3" />
  <path
     id="Path_10515"
     d="m 798.5,388 a 1.5,1.5 0 1 1 -1.5,1.5 1.5,1.5 0 0 1 1.5,-1.5"
     class="cls-3" />
  <path
     id="Path_10516"
     d="m 798.5,191 a 1.5,1.5 0 1 1 -1.5,1.5 1.5,1.5 0 0 1 1.5,-1.5"
     class="cls-3" />
  <path
     id="Path_10517"
     d="m 798.5,227 a 1.5,1.5 0 1 1 -1.5,1.5 1.5,1.5 0 0 1 1.5,-1.5"
     class="cls-3" />
  <path
     id="Path_10518"
     d="m 798.5,220 a 1.5,1.5 0 1 1 -1.5,1.5 1.5,1.5 0 0 1 1.5,-1.5"
     class="cls-3" />
  <path
     id="Path_10519"
     d="m 798.5,346 a 1.5,1.5 0 1 1 -1.5,1.5 1.5,1.5 0 0 1 1.5,-1.5"
     class="cls-3" />
  <path
     id="Path_10520"
     d="m 798.5,339 a 1.5,1.5 0 1 1 -1.5,1.5 1.5,1.5 0 0 1 1.5,-1.5"
     class="cls-3" />
  <path
     id="Path_10521"
     d="m 798.5,149 a 1.5,1.5 0 1 1 -1.5,1.5 1.5,1.5 0 0 1 1.5,-1.5"
     class="cls-3" />
  <path
     id="Path_10522"
     d="m 798.5,142 a 1.5,1.5 0 1 1 -1.5,1.5 1.5,1.5 0 0 1 1.5,-1.5"
     class="cls-3" />
  <path
     id="Path_10523"
     d="m 798.5,303 a 1.5,1.5 0 1 1 -1.5,1.5 1.5,1.5 0 0 1 1.5,-1.5"
     class="cls-3" />
  <path
     id="Path_10524"
     d="m 798.5,106 a 1.5,1.5 0 1 1 -1.5,1.5 1.5,1.5 0 0 1 1.5,-1.5"
     class="cls-3" />
  <path
     id="Path_10525"
     d="m 798.5,276 a 1.5,1.5 0 1 1 -1.5,1.5 1.5,1.5 0 0 1 1.5,-1.5"
     class="cls-3" />
  <path
     id="Path_10526"
     d="m 798.5,395 a 1.5,1.5 0 1 1 -1.5,1.5 1.5,1.5 0 0 1 1.5,-1.5"
     class="cls-3" />
  <path
     id="Path_10527"
     d="m 798.5,198 a 1.5,1.5 0 1 1 -1.5,1.5 1.5,1.5 0 0 1 1.5,-1.5"
     class="cls-3" />
  <path
     id="Path_10528"
     d="m 798.5,234 a 1.5,1.5 0 1 1 -1.5,1.5 1.5,1.5 0 0 1 1.5,-1.5"
     class="cls-3" />
  <path
     id="Path_10529"
     d="m 798.5,353 a 1.5,1.5 0 1 1 -1.5,1.5 1.5,1.5 0 0 1 1.5,-1.5"
     class="cls-3" />
  <path
     id="Path_10530"
     d="m 798.5,156 a 1.5,1.5 0 1 1 -1.5,1.5 1.5,1.5 0 0 1 1.5,-1.5"
     class="cls-3" />
  <path
     id="Path_10531"
     d="m 798.5,310 a 1.5,1.5 0 1 1 -1.5,1.5 1.5,1.5 0 0 1 1.5,-1.5"
     class="cls-3" />
  <path
     id="Path_10532"
     d="m 798.5,113 a 1.5,1.5 0 1 1 -1.5,1.5 1.5,1.5 0 0 1 1.5,-1.5"
     class="cls-3" />
  <path
     id="Path_10533"
     d="m 798.5,283 a 1.5,1.5 0 1 1 -1.5,1.5 1.5,1.5 0 0 1 1.5,-1.5"
     class="cls-3" />
  <path
     id="Path_10534"
     d="m 798.5,289 a 1.5,1.5 0 1 1 -1.5,1.5 1.5,1.5 0 0 1 1.5,-1.5"
     class="cls-3" />
  <path
     id="Path_10535"
     d="m 798.5,402 a 1.5,1.5 0 1 1 -1.5,1.5 1.5,1.5 0 0 1 1.5,-1.5"
     class="cls-3" />
  <path
     id="Path_10536"
     d="m 798.5,205 a 1.5,1.5 0 1 1 -1.5,1.5 1.5,1.5 0 0 1 1.5,-1.5"
     class="cls-3" />
  <path
     id="Path_10537"
     d="m 798.5,241 a 1.5,1.5 0 1 1 -1.5,1.5 1.5,1.5 0 0 1 1.5,-1.5"
     class="cls-3" />
  <path
     id="Path_10538"
     d="m 798.5,360 a 1.5,1.5 0 1 1 -1.5,1.5 1.5,1.5 0 0 1 1.5,-1.5"
     class="cls-3" />
  <path
     id="Path_10539"
     d="m 798.5,163 a 1.5,1.5 0 1 1 -1.5,1.5 1.5,1.5 0 0 1 1.5,-1.5"
     class="cls-3" />
  <path
     id="Path_10540"
     d="m 798.5,317 a 1.5,1.5 0 1 1 -1.5,1.5 1.5,1.5 0 0 1 1.5,-1.5"
     class="cls-3" />
  <path
     id="Path_10541"
     d="m 798.5,120 a 1.5,1.5 0 1 1 -1.5,1.5 1.5,1.5 0 0 1 1.5,-1.5"
     class="cls-3" />
  <path
     id="Path_10542"
     d="m 798.5,409 a 1.5,1.5 0 1 1 -1.5,1.5 1.5,1.5 0 0 1 1.5,-1.5"
     class="cls-3" />
  <path
     id="Path_10543"
     d="m 798.5,248 a 1.5,1.5 0 1 1 -1.5,1.5 1.5,1.5 0 0 1 1.5,-1.5"
     class="cls-3" />
  <path
     id="Path_10544"
     d="m 798.5,367 a 1.5,1.5 0 1 1 -1.5,1.5 1.5,1.5 0 0 1 1.5,-1.5"
     class="cls-3" />
  <path
     id="Path_10545"
     d="m 798.5,170 a 1.5,1.5 0 1 1 -1.5,1.5 1.5,1.5 0 0 1 1.5,-1.5"
     class="cls-3" />
  <path
     id="Path_10546"
     d="m 798.5,324 a 1.5,1.5 0 1 1 -1.5,1.5 1.5,1.5 0 0 1 1.5,-1.5"
     class="cls-3" />
  <path
     id="Path_10547"
     d="m 798.5,127 a 1.5,1.5 0 1 1 -1.5,1.5 1.5,1.5 0 0 1 1.5,-1.5"
     class="cls-3" />
  <path
     id="Path_10548"
     d="M 798.5,71 A 1.5,1.5 0 1 1 797,72.5 1.5,1.5 0 0 1 798.5,71"
     class="cls-3" />
  <path
     id="Path_10549"
     d="M 798.5,64 A 1.5,1.5 0 1 1 797,65.5 1.5,1.5 0 0 1 798.5,64"
     class="cls-3" />
  <path
     id="Path_10550"
     d="M 798.5,21 A 1.5,1.5 0 1 1 797,22.5 1.5,1.5 0 0 1 798.5,21"
     class="cls-3" />
  <path
     id="Path_10551"
     d="M 798.5,78 A 1.5,1.5 0 1 1 797,79.5 1.5,1.5 0 0 1 798.5,78"
     class="cls-3" />
  <path
     id="Path_10552"
     d="M 798.5,36 A 1.5,1.5 0 1 1 797,37.5 1.5,1.5 0 0 1 798.5,36"
     class="cls-3" />
  <path
     id="Path_10553"
     d="M 798.5,29 A 1.5,1.5 0 1 1 797,30.5 1.5,1.5 0 0 1 798.5,29"
     class="cls-3" />
  <path
     id="Path_10554"
     d="M 798.5,85 A 1.5,1.5 0 1 1 797,86.5 1.5,1.5 0 0 1 798.5,85"
     class="cls-3" />
  <path
     id="Path_10555"
     d="M 798.5,43 A 1.5,1.5 0 1 1 797,44.5 1.5,1.5 0 0 1 798.5,43"
     class="cls-3" />
  <path
     id="Path_10556"
     d="M 798.5,0 A 1.5,1.5 0 1 1 797,1.5 1.5,1.5 0 0 1 798.5,0"
     class="cls-3" />
  <path
     id="Path_10557"
     d="M 798.5,92 A 1.5,1.5 0 1 1 797,93.5 1.5,1.5 0 0 1 798.5,92"
     class="cls-3" />
  <path
     id="Path_10558"
     d="M 798.5,50 A 1.5,1.5 0 1 1 797,51.5 1.5,1.5 0 0 1 798.5,50"
     class="cls-3" />
  <path
     id="Path_10559"
     d="M 798.5,7 A 1.5,1.5 0 1 1 797,8.5 1.5,1.5 0 0 1 798.5,7"
     class="cls-3" />
  <path
     id="Path_10560"
     d="M 798.5,57 A 1.5,1.5 0 1 1 797,58.5 1.5,1.5 0 0 1 798.5,57"
     class="cls-3" />
  <path
     id="Path_10561"
     d="M 798.5,14 A 1.5,1.5 0 1 1 797,15.5 1.5,1.5 0 0 1 798.5,14"
     class="cls-3" />
  <path
     id="Path_10562"
     d="m 798.5,416 a 1.5,1.5 0 1 1 -1.5,1.5 1.5,1.5 0 0 1 1.5,-1.5"
     class="cls-3" />
  <path
     id="Path_10563"
     d="m 798.5,480 a 1.5,1.5 0 1 1 -1.5,1.5 1.5,1.5 0 0 1 1.5,-1.5"
     class="cls-3" />
  <path
     id="Path_10564"
     d="m 798.5,473 a 1.5,1.5 0 1 1 -1.5,1.5 1.5,1.5 0 0 1 1.5,-1.5"
     class="cls-3" />
  <path
     id="Path_10565"
     d="m 798.5,430 a 1.5,1.5 0 1 1 -1.5,1.5 1.5,1.5 0 0 1 1.5,-1.5"
     class="cls-3" />
  <path
     id="Path_10566"
     d="m 798.5,487 a 1.5,1.5 0 1 1 -1.5,1.5 1.5,1.5 0 0 1 1.5,-1.5"
     class="cls-3" />
  <path
     id="Path_10567"
     d="m 798.5,445 a 1.5,1.5 0 1 1 -1.5,1.5 1.5,1.5 0 0 1 1.5,-1.5"
     class="cls-3" />
  <path
     id="Path_10568"
     d="m 798.5,438 a 1.5,1.5 0 1 1 -1.5,1.5 1.5,1.5 0 0 1 1.5,-1.5"
     class="cls-3" />
  <path
     id="Path_10569"
     d="m 798.5,494 a 1.5,1.5 0 1 1 -1.5,1.5 1.5,1.5 0 0 1 1.5,-1.5"
     class="cls-3" />
  <path
     id="Path_10570"
     d="m 798.5,452 a 1.5,1.5 0 1 1 -1.5,1.5 1.5,1.5 0 0 1 1.5,-1.5"
     class="cls-3" />
  <path
     id="Path_10571"
     d="m 798.5,501 a 1.5,1.5 0 1 1 -1.5,1.5 1.5,1.5 0 0 1 1.5,-1.5"
     class="cls-3" />
  <path
     id="Path_10572"
     d="m 798.5,459 a 1.5,1.5 0 1 1 -1.5,1.5 1.5,1.5 0 0 1 1.5,-1.5"
     class="cls-3" />
  <path
     id="Path_10573"
     d="m 798.5,508 a 1.5,1.5 0 1 1 -1.5,1.5 1.5,1.5 0 0 1 1.5,-1.5"
     class="cls-3" />
  <path
     id="Path_10574"
     d="m 798.5,466 a 1.5,1.5 0 1 1 -1.5,1.5 1.5,1.5 0 0 1 1.5,-1.5"
     class="cls-3" />
  <path
     id="Path_10575"
     d="m 798.5,423 a 1.5,1.5 0 1 1 -1.5,1.5 1.5,1.5 0 0 1 1.5,-1.5"
     class="cls-3" />
  <path
     id="Path_10576"
     d="m 798.5,515 a 1.5,1.5 0 1 1 -1.5,1.5 1.5,1.5 0 0 1 1.5,-1.5"
     class="cls-3" />
  <path
     id="Path_10577"
     d="M 1.5,480 A 1.5,1.5 0 1 1 0,481.5 1.5,1.5 0 0 1 1.5,480"
     class="cls-3" />
  <path
     id="Path_10578"
     d="M 1.5,473 A 1.5,1.5 0 1 1 0,474.5 1.5,1.5 0 0 1 1.5,473"
     class="cls-3" />
  <path
     id="Path_10579"
     d="M 1.5,430 A 1.5,1.5 0 1 1 0,431.5 1.5,1.5 0 0 1 1.5,430"
     class="cls-3" />
  <path
     id="Path_10580"
     d="M 1.5,487 A 1.5,1.5 0 1 1 0,488.5 1.5,1.5 0 0 1 1.5,487"
     class="cls-3" />
  <path
     id="Path_10581"
     d="M 1.5,445 A 1.5,1.5 0 1 1 0,446.5 1.5,1.5 0 0 1 1.5,445"
     class="cls-3" />
  <path
     id="Path_10582"
     d="M 1.5,438 A 1.5,1.5 0 1 1 0,439.5 1.5,1.5 0 0 1 1.5,438"
     class="cls-3" />
  <path
     id="Path_10583"
     d="M 1.5,494 A 1.5,1.5 0 1 1 0,495.5 1.5,1.5 0 0 1 1.5,494"
     class="cls-3" />
  <path
     id="Path_10584"
     d="M 1.5,452 A 1.5,1.5 0 1 1 0,453.5 1.5,1.5 0 0 1 1.5,452"
     class="cls-3" />
  <path
     id="Path_10585"
     d="M 1.5,501 A 1.5,1.5 0 1 1 0,502.5 1.5,1.5 0 0 1 1.5,501"
     class="cls-3" />
  <path
     id="Path_10586"
     d="M 1.5,459 A 1.5,1.5 0 1 1 0,460.5 1.5,1.5 0 0 1 1.5,459"
     class="cls-3" />
  <path
     id="Path_10587"
     d="M 1.5,508 A 1.5,1.5 0 1 1 0,509.5 1.5,1.5 0 0 1 1.5,508"
     class="cls-3" />
  <path
     id="Path_10588"
     d="M 1.5,466 A 1.5,1.5 0 1 1 0,467.5 1.5,1.5 0 0 1 1.5,466"
     class="cls-3" />
  <path
     id="Path_10589"
     d="M 1.5,423 A 1.5,1.5 0 1 1 0,424.5 1.5,1.5 0 0 1 1.5,423"
     class="cls-3" />
  <path
     id="Path_10590"
     d="M 1.5,515 A 1.5,1.5 0 1 1 0,516.5 1.5,1.5 0 0 1 1.5,515"
     class="cls-3" />
  <path
     id="Path_10591"
     d="m 311.5,521 a 1.5,1.5 0 1 1 -1.5,1.5 1.5,1.5 0 0 1 1.5,-1.5"
     class="cls-3" />
  <path
     id="Path_10592"
     d="M 311.5,0 A 1.5,1.5 0 1 1 310,1.5 1.5,1.5 0 0 1 311.5,0"
     class="cls-3" />
  <path
     id="Path_10593"
     d="m 276.5,521 a 1.5,1.5 0 1 1 -1.5,1.5 1.5,1.5 0 0 1 1.5,-1.5"
     class="cls-3" />
  <path
     id="Path_10594"
     d="M 276.5,0 A 1.5,1.5 0 1 1 275,1.5 1.5,1.5 0 0 1 276.5,0"
     class="cls-3" />
  <path
     id="Path_10595"
     d="m 205.5,521 a 1.5,1.5 0 1 1 -1.5,1.5 1.5,1.5 0 0 1 1.5,-1.5"
     class="cls-3" />
  <path
     id="Path_10596"
     d="M 205.5,0 A 1.5,1.5 0 1 1 204,1.5 1.5,1.5 0 0 1 205.5,0"
     class="cls-3" />
  <path
     id="Path_10597"
     d="m 170.5,521 a 1.5,1.5 0 1 1 -1.5,1.5 1.5,1.5 0 0 1 1.5,-1.5"
     class="cls-3" />
  <path
     id="Path_10598"
     d="M 170.5,0 A 1.5,1.5 0 1 1 169,1.5 1.5,1.5 0 0 1 170.5,0"
     class="cls-3" />
  <path
     id="Path_10599"
     d="M 71.5,0 A 1.5,1.5 0 1 1 70,1.5 1.5,1.5 0 0 1 71.5,0"
     class="cls-3" />
  <path
     id="Path_10600"
     d="m 135.5,521 a 1.5,1.5 0 1 1 -1.5,1.5 1.5,1.5 0 0 1 1.5,-1.5"
     class="cls-3" />
  <path
     id="Path_10601"
     d="M 135.5,0 A 1.5,1.5 0 1 1 134,1.5 1.5,1.5 0 0 1 135.5,0"
     class="cls-3" />
  <path
     id="Path_10602"
     d="M 36.5,0 A 1.5,1.5 0 1 1 35,1.5 1.5,1.5 0 0 1 36.5,0"
     class="cls-3" />
  <path
     id="Path_10603"
     d="m 304.5,521 a 1.5,1.5 0 1 1 -1.5,1.5 1.5,1.5 0 0 1 1.5,-1.5"
     class="cls-3" />
  <path
     id="Path_10604"
     d="M 304.5,0 A 1.5,1.5 0 1 1 303,1.5 1.5,1.5 0 0 1 304.5,0"
     class="cls-3" />
  <path
     id="Path_10605"
     d="m 269.5,521 a 1.5,1.5 0 1 1 -1.5,1.5 1.5,1.5 0 0 1 1.5,-1.5"
     class="cls-3" />
  <path
     id="Path_10606"
     d="M 269.5,0 A 1.5,1.5 0 1 1 268,1.5 1.5,1.5 0 0 1 269.5,0"
     class="cls-3" />
  <path
     id="Path_10607"
     d="m 233.5,521 a 1.5,1.5 0 1 1 -1.5,1.5 1.5,1.5 0 0 1 1.5,-1.5"
     class="cls-3" />
  <path
     id="Path_10608"
     d="M 233.5,0 A 1.5,1.5 0 1 1 232,1.5 1.5,1.5 0 0 1 233.5,0"
     class="cls-3" />
  <path
     id="Path_10609"
     d="M 240.5,0 A 1.5,1.5 0 1 1 239,1.5 1.5,1.5 0 0 1 240.5,0"
     class="cls-3" />
  <path
     id="Path_10610"
     d="m 198.5,521 a 1.5,1.5 0 1 1 -1.5,1.5 1.5,1.5 0 0 1 1.5,-1.5"
     class="cls-3" />
  <path
     id="Path_10611"
     d="M 198.5,0 A 1.5,1.5 0 1 1 197,1.5 1.5,1.5 0 0 1 198.5,0"
     class="cls-3" />
  <path
     id="Path_10612"
     d="M 100.5,0 A 1.5,1.5 0 1 1 99,1.5 1.5,1.5 0 0 1 100.5,0"
     class="cls-3" />
  <path
     id="Path_10613"
     d="m 163.5,521 a 1.5,1.5 0 1 1 -1.5,1.5 1.5,1.5 0 0 1 1.5,-1.5"
     class="cls-3" />
  <path
     id="Path_10614"
     d="M 163.5,0 A 1.5,1.5 0 1 1 162,1.5 1.5,1.5 0 0 1 163.5,0"
     class="cls-3" />
  <path
     id="Path_10615"
     d="M 64.5,0 A 1.5,1.5 0 1 1 63,1.5 1.5,1.5 0 0 1 64.5,0"
     class="cls-3" />
  <path
     id="Path_10616"
     d="m 128.5,521 a 1.5,1.5 0 1 1 -1.5,1.5 1.5,1.5 0 0 1 1.5,-1.5"
     class="cls-3" />
  <path
     id="Path_10617"
     d="M 128.5,0 A 1.5,1.5 0 1 1 127,1.5 1.5,1.5 0 0 1 128.5,0"
     class="cls-3" />
  <path
     id="Path_10618"
     d="M 29.5,0 A 1.5,1.5 0 1 1 28,1.5 1.5,1.5 0 0 1 29.5,0"
     class="cls-3" />
  <path
     id="Path_10619"
     d="M 29.5,521 A 1.5,1.5 0 1 1 28,522.5 1.5,1.5 0 0 1 29.5,521"
     class="cls-3" />
  <path
     id="Path_10620"
     d="M 36.5,521 A 1.5,1.5 0 1 1 35,522.5 1.5,1.5 0 0 1 36.5,521"
     class="cls-3" />
  <path
     id="Path_10621"
     d="m 297.5,521 a 1.5,1.5 0 1 1 -1.5,1.5 1.5,1.5 0 0 1 1.5,-1.5"
     class="cls-3" />
  <path
     id="Path_10622"
     d="M 297.5,0 A 1.5,1.5 0 1 1 296,1.5 1.5,1.5 0 0 1 297.5,0"
     class="cls-3" />
  <path
     id="Path_10623"
     d="m 262.5,521 a 1.5,1.5 0 1 1 -1.5,1.5 1.5,1.5 0 0 1 1.5,-1.5"
     class="cls-3" />
  <path
     id="Path_10624"
     d="M 262.5,0 A 1.5,1.5 0 1 1 261,1.5 1.5,1.5 0 0 1 262.5,0"
     class="cls-3" />
  <path
     id="Path_10625"
     d="m 226.5,521 a 1.5,1.5 0 1 1 -1.5,1.5 1.5,1.5 0 0 1 1.5,-1.5"
     class="cls-3" />
  <path
     id="Path_10626"
     d="M 226.5,0 A 1.5,1.5 0 1 1 225,1.5 1.5,1.5 0 0 1 226.5,0"
     class="cls-3" />
  <path
     id="Path_10627"
     d="m 191.5,521 a 1.5,1.5 0 1 1 -1.5,1.5 1.5,1.5 0 0 1 1.5,-1.5"
     class="cls-3" />
  <path
     id="Path_10628"
     d="M 191.5,0 A 1.5,1.5 0 1 1 190,1.5 1.5,1.5 0 0 1 191.5,0"
     class="cls-3" />
  <path
     id="Path_10629"
     d="M 93.5,0 A 1.5,1.5 0 1 1 92,1.5 1.5,1.5 0 0 1 93.5,0"
     class="cls-3" />
  <path
     id="Path_10630"
     d="m 156.5,521 a 1.5,1.5 0 1 1 -1.5,1.5 1.5,1.5 0 0 1 1.5,-1.5"
     class="cls-3" />
  <path
     id="Path_10631"
     d="M 156.5,0 A 1.5,1.5 0 1 1 155,1.5 1.5,1.5 0 0 1 156.5,0"
     class="cls-3" />
  <path
     id="Path_10632"
     d="M 57.5,0 A 1.5,1.5 0 1 1 56,1.5 1.5,1.5 0 0 1 57.5,0"
     class="cls-3" />
  <path
     id="Path_10633"
     d="m 121.5,521 a 1.5,1.5 0 1 1 -1.5,1.5 1.5,1.5 0 0 1 1.5,-1.5"
     class="cls-3" />
  <path
     id="Path_10634"
     d="M 121.5,0 A 1.5,1.5 0 1 1 120,1.5 1.5,1.5 0 0 1 121.5,0"
     class="cls-3" />
  <path
     id="Path_10635"
     d="M 22.5,0 A 1.5,1.5 0 1 1 21,1.5 1.5,1.5 0 0 1 22.5,0"
     class="cls-3" />
  <path
     id="Path_10636"
     d="M 22.5,521 A 1.5,1.5 0 1 1 21,522.5 1.5,1.5 0 0 1 22.5,521"
     class="cls-3" />
  <path
     id="Path_10637"
     d="m 290.5,521 a 1.5,1.5 0 1 1 -1.5,1.5 1.5,1.5 0 0 1 1.5,-1.5"
     class="cls-3" />
  <path
     id="Path_10638"
     d="M 290.5,0 A 1.5,1.5 0 1 1 289,1.5 1.5,1.5 0 0 1 290.5,0"
     class="cls-3" />
  <path
     id="Path_10639"
     d="m 255.5,521 a 1.5,1.5 0 1 1 -1.5,1.5 1.5,1.5 0 0 1 1.5,-1.5"
     class="cls-3" />
  <path
     id="Path_10640"
     d="M 255.5,0 A 1.5,1.5 0 1 1 254,1.5 1.5,1.5 0 0 1 255.5,0"
     class="cls-3" />
  <path
     id="Path_10641"
     d="m 219.5,521 a 1.5,1.5 0 1 1 -1.5,1.5 1.5,1.5 0 0 1 1.5,-1.5"
     class="cls-3" />
  <path
     id="Path_10642"
     d="M 219.5,0 A 1.5,1.5 0 1 1 218,1.5 1.5,1.5 0 0 1 219.5,0"
     class="cls-3" />
  <path
     id="Path_10643"
     d="m 184.5,521 a 1.5,1.5 0 1 1 -1.5,1.5 1.5,1.5 0 0 1 1.5,-1.5"
     class="cls-3" />
  <path
     id="Path_10644"
     d="M 184.5,0 A 1.5,1.5 0 1 1 183,1.5 1.5,1.5 0 0 1 184.5,0"
     class="cls-3" />
  <path
     id="Path_10645"
     d="M 86.5,0 A 1.5,1.5 0 1 1 85,1.5 1.5,1.5 0 0 1 86.5,0"
     class="cls-3" />
  <path
     id="Path_10646"
     d="M 79.5,0 A 1.5,1.5 0 1 1 78,1.5 1.5,1.5 0 0 1 79.5,0"
     class="cls-3" />
  <path
     id="Path_10647"
     d="m 149.5,521 a 1.5,1.5 0 1 1 -1.5,1.5 1.5,1.5 0 0 1 1.5,-1.5"
     class="cls-3" />
  <path
     id="Path_10648"
     d="M 149.5,0 A 1.5,1.5 0 1 1 148,1.5 1.5,1.5 0 0 1 149.5,0"
     class="cls-3" />
  <path
     id="Path_10649"
     d="M 50.5,0 A 1.5,1.5 0 1 1 49,1.5 1.5,1.5 0 0 1 50.5,0"
     class="cls-3" />
  <path
     id="Path_10650"
     d="m 114.5,521 a 1.5,1.5 0 1 1 -1.5,1.5 1.5,1.5 0 0 1 1.5,-1.5"
     class="cls-3" />
  <path
     id="Path_10651"
     d="M 114.5,0 A 1.5,1.5 0 1 1 113,1.5 1.5,1.5 0 0 1 114.5,0"
     class="cls-3" />
  <path
     id="Path_10652"
     d="M 15.5,0 A 1.5,1.5 0 1 1 14,1.5 1.5,1.5 0 0 1 15.5,0"
     class="cls-3" />
  <path
     id="Path_10653"
     d="M 15.5,521 A 1.5,1.5 0 1 1 14,522.5 1.5,1.5 0 0 1 15.5,521"
     class="cls-3" />
  <path
     id="Path_10654"
     d="m 107.5,521 a 1.5,1.5 0 1 1 -1.5,1.5 1.5,1.5 0 0 1 1.5,-1.5"
     class="cls-3" />
  <path
     id="Path_10655"
     d="M 107.5,0 A 1.5,1.5 0 1 1 106,1.5 1.5,1.5 0 0 1 107.5,0"
     class="cls-3" />
  <path
     id="Path_10656"
     d="M 8.5,0 A 1.5,1.5 0 1 1 7,1.5 1.5,1.5 0 0 1 8.5,0"
     class="cls-3" />
  <path
     id="Path_10657"
     d="M 8.5,521 A 1.5,1.5 0 1 1 7,522.5 1.5,1.5 0 0 1 8.5,521"
     class="cls-3" />
  <path
     id="Path_10658"
     d="M 1.5,521 A 1.5,1.5 0 1 1 0,522.5 1.5,1.5 0 0 1 1.5,521"
     class="cls-3" />
  <path
     id="Path_10659"
     d="m 283.5,521 a 1.5,1.5 0 1 1 -1.5,1.5 1.5,1.5 0 0 1 1.5,-1.5"
     class="cls-3" />
  <path
     id="Path_10660"
     d="M 283.5,0 A 1.5,1.5 0 1 1 282,1.5 1.5,1.5 0 0 1 283.5,0"
     class="cls-3" />
  <path
     id="Path_10661"
     d="m 248.5,521 a 1.5,1.5 0 1 1 -1.5,1.5 1.5,1.5 0 0 1 1.5,-1.5"
     class="cls-3" />
  <path
     id="Path_10662"
     d="m 240.5,521 a 1.5,1.5 0 1 1 -1.5,1.5 1.5,1.5 0 0 1 1.5,-1.5"
     class="cls-3" />
  <path
     id="Path_10663"
     d="M 248.5,0 A 1.5,1.5 0 1 1 247,1.5 1.5,1.5 0 0 1 248.5,0"
     class="cls-3" />
  <path
     id="Path_10664"
     d="m 212.5,521 a 1.5,1.5 0 1 1 -1.5,1.5 1.5,1.5 0 0 1 1.5,-1.5"
     class="cls-3" />
  <path
     id="Path_10665"
     d="M 212.5,0 A 1.5,1.5 0 1 1 211,1.5 1.5,1.5 0 0 1 212.5,0"
     class="cls-3" />
  <path
     id="Path_10666"
     d="m 177.5,521 a 1.5,1.5 0 1 1 -1.5,1.5 1.5,1.5 0 0 1 1.5,-1.5"
     class="cls-3" />
  <path
     id="Path_10667"
     d="M 177.5,0 A 1.5,1.5 0 1 1 176,1.5 1.5,1.5 0 0 1 177.5,0"
     class="cls-3" />
  <path
     id="Path_10668"
     d="m 142.5,521 a 1.5,1.5 0 1 1 -1.5,1.5 1.5,1.5 0 0 1 1.5,-1.5"
     class="cls-3" />
  <path
     id="Path_10669"
     d="M 142.5,0 A 1.5,1.5 0 1 1 141,1.5 1.5,1.5 0 0 1 142.5,0"
     class="cls-3" />
  <path
     id="Path_10670"
     d="M 43.5,0 A 1.5,1.5 0 1 1 42,1.5 1.5,1.5 0 0 1 43.5,0"
     class="cls-3" />
  <path
     id="Path_10671"
     d="m 550,522.5 a 1.5,1.5 0 1 1 1.5,1.5 1.5,1.5 0 0 1 -1.5,-1.5"
     class="cls-3" />
  <path
     id="Path_10672"
     d="m 543,522.5 a 1.5,1.5 0 1 1 1.5,1.5 1.5,1.5 0 0 1 -1.5,-1.5"
     class="cls-3" />
  <path
     id="Path_10673"
     d="m 536,522.5 a 1.5,1.5 0 1 1 1.5,1.5 1.5,1.5 0 0 1 -1.5,-1.5"
     class="cls-3" />
  <path
     id="Path_10674"
     d="m 529,522.5 a 1.5,1.5 0 1 1 1.5,1.5 1.5,1.5 0 0 1 -1.5,-1.5"
     class="cls-3" />
  <path
     id="Path_10675"
     d="m 522,522.5 a 1.5,1.5 0 1 1 1.5,1.5 1.5,1.5 0 0 1 -1.5,-1.5"
     class="cls-3" />
  <path
     id="Path_10676"
     d="m 565,522.5 a 1.5,1.5 0 1 1 1.5,1.5 1.5,1.5 0 0 1 -1.5,-1.5"
     class="cls-3" />
  <path
     id="Path_10677"
     d="m 557,522.5 a 1.5,1.5 0 1 1 1.5,1.5 1.5,1.5 0 0 1 -1.5,-1.5"
     class="cls-3" />
  <path
     id="Path_10678"
     d="m 572,522.5 a 1.5,1.5 0 1 1 1.5,1.5 1.5,1.5 0 0 1 -1.5,-1.5"
     class="cls-3" />
  <path
     id="Path_10679"
     d="m 579,522.5 a 1.5,1.5 0 1 1 1.5,1.5 1.5,1.5 0 0 1 -1.5,-1.5"
     class="cls-3" />
  <path
     id="Path_10680"
     d="m 481.5,521 a 1.5,1.5 0 1 1 -1.5,1.5 1.5,1.5 0 0 1 1.5,-1.5"
     class="cls-3" />
  <path
     id="Path_10681"
     d="m 791.5,521 a 1.5,1.5 0 1 1 -1.5,1.5 1.5,1.5 0 0 1 1.5,-1.5"
     class="cls-3" />
  <path
     id="Path_10682"
     d="m 798.5,521 a 1.5,1.5 0 1 1 -1.5,1.5 1.5,1.5 0 0 1 1.5,-1.5"
     class="cls-3" />
  <path
     id="Path_10683"
     d="m 756.5,521 a 1.5,1.5 0 1 1 -1.5,1.5 1.5,1.5 0 0 1 1.5,-1.5"
     class="cls-3" />
  <path
     id="Path_10684"
     d="m 685.5,521 a 1.5,1.5 0 1 1 -1.5,1.5 1.5,1.5 0 0 1 1.5,-1.5"
     class="cls-3" />
  <path
     id="Path_10685"
     d="m 650.5,521 a 1.5,1.5 0 1 1 -1.5,1.5 1.5,1.5 0 0 1 1.5,-1.5"
     class="cls-3" />
  <path
     id="Path_10686"
     d="m 615.5,521 a 1.5,1.5 0 1 1 -1.5,1.5 1.5,1.5 0 0 1 1.5,-1.5"
     class="cls-3" />
  <path
     id="Path_10687"
     d="m 784.5,521 a 1.5,1.5 0 1 1 -1.5,1.5 1.5,1.5 0 0 1 1.5,-1.5"
     class="cls-3" />
  <path
     id="Path_10688"
     d="m 749.5,521 a 1.5,1.5 0 1 1 -1.5,1.5 1.5,1.5 0 0 1 1.5,-1.5"
     class="cls-3" />
  <path
     id="Path_10689"
     d="m 713.5,521 a 1.5,1.5 0 1 1 -1.5,1.5 1.5,1.5 0 0 1 1.5,-1.5"
     class="cls-3" />
  <path
     id="Path_10690"
     d="m 678.5,521 a 1.5,1.5 0 1 1 -1.5,1.5 1.5,1.5 0 0 1 1.5,-1.5"
     class="cls-3" />
  <path
     id="Path_10691"
     d="m 643.5,521 a 1.5,1.5 0 1 1 -1.5,1.5 1.5,1.5 0 0 1 1.5,-1.5"
     class="cls-3" />
  <path
     id="Path_10692"
     d="m 608.5,521 a 1.5,1.5 0 1 1 -1.5,1.5 1.5,1.5 0 0 1 1.5,-1.5"
     class="cls-3" />
  <path
     id="Path_10693"
     d="m 509.5,521 a 1.5,1.5 0 1 1 -1.5,1.5 1.5,1.5 0 0 1 1.5,-1.5"
     class="cls-3" />
  <path
     id="Path_10694"
     d="m 516.5,521 a 1.5,1.5 0 1 1 -1.5,1.5 1.5,1.5 0 0 1 1.5,-1.5"
     class="cls-3" />
  <path
     id="Path_10695"
     d="m 777.5,521 a 1.5,1.5 0 1 1 -1.5,1.5 1.5,1.5 0 0 1 1.5,-1.5"
     class="cls-3" />
  <path
     id="Path_10696"
     d="m 742.5,521 a 1.5,1.5 0 1 1 -1.5,1.5 1.5,1.5 0 0 1 1.5,-1.5"
     class="cls-3" />
  <path
     id="Path_10697"
     d="m 706.5,521 a 1.5,1.5 0 1 1 -1.5,1.5 1.5,1.5 0 0 1 1.5,-1.5"
     class="cls-3" />
  <path
     id="Path_10698"
     d="m 671.5,521 a 1.5,1.5 0 1 1 -1.5,1.5 1.5,1.5 0 0 1 1.5,-1.5"
     class="cls-3" />
  <path
     id="Path_10699"
     d="m 636.5,521 a 1.5,1.5 0 1 1 -1.5,1.5 1.5,1.5 0 0 1 1.5,-1.5"
     class="cls-3" />
  <path
     id="Path_10700"
     d="m 601.5,521 a 1.5,1.5 0 1 1 -1.5,1.5 1.5,1.5 0 0 1 1.5,-1.5"
     class="cls-3" />
  <path
     id="Path_10701"
     d="m 502.5,521 a 1.5,1.5 0 1 1 -1.5,1.5 1.5,1.5 0 0 1 1.5,-1.5"
     class="cls-3" />
  <path
     id="Path_10702"
     d="m 770.5,521 a 1.5,1.5 0 1 1 -1.5,1.5 1.5,1.5 0 0 1 1.5,-1.5"
     class="cls-3" />
  <path
     id="Path_10703"
     d="m 735.5,521 a 1.5,1.5 0 1 1 -1.5,1.5 1.5,1.5 0 0 1 1.5,-1.5"
     class="cls-3" />
  <path
     id="Path_10704"
     d="m 699.5,521 a 1.5,1.5 0 1 1 -1.5,1.5 1.5,1.5 0 0 1 1.5,-1.5"
     class="cls-3" />
  <path
     id="Path_10705"
     d="m 664.5,521 a 1.5,1.5 0 1 1 -1.5,1.5 1.5,1.5 0 0 1 1.5,-1.5"
     class="cls-3" />
  <path
     id="Path_10706"
     d="m 629.5,521 a 1.5,1.5 0 1 1 -1.5,1.5 1.5,1.5 0 0 1 1.5,-1.5"
     class="cls-3" />
  <path
     id="Path_10707"
     d="m 594.5,521 a 1.5,1.5 0 1 1 -1.5,1.5 1.5,1.5 0 0 1 1.5,-1.5"
     class="cls-3" />
  <path
     id="Path_10708"
     d="m 495.5,521 a 1.5,1.5 0 1 1 -1.5,1.5 1.5,1.5 0 0 1 1.5,-1.5"
     class="cls-3" />
  <path
     id="Path_10709"
     d="m 587.5,521 a 1.5,1.5 0 1 1 -1.5,1.5 1.5,1.5 0 0 1 1.5,-1.5"
     class="cls-3" />
  <path
     id="Path_10710"
     d="m 488.5,521 a 1.5,1.5 0 1 1 -1.5,1.5 1.5,1.5 0 0 1 1.5,-1.5"
     class="cls-3" />
  <path
     id="Path_10711"
     d="m 395,522.5 a 1.5,1.5 0 1 1 1.5,1.5 1.5,1.5 0 0 1 -1.5,-1.5"
     class="cls-3" />
  <path
     id="Path_10712"
     d="m 388,522.5 a 1.5,1.5 0 1 1 1.5,1.5 1.5,1.5 0 0 1 -1.5,-1.5"
     class="cls-3" />
  <path
     id="Path_10713"
     d="m 381,522.5 a 1.5,1.5 0 1 1 1.5,1.5 1.5,1.5 0 0 1 -1.5,-1.5"
     class="cls-3" />
  <path
     id="Path_10714"
     d="m 374,522.5 a 1.5,1.5 0 1 1 1.5,1.5 1.5,1.5 0 0 1 -1.5,-1.5"
     class="cls-3" />
  <path
     id="Path_10715"
     d="m 367,522.5 a 1.5,1.5 0 1 1 1.5,1.5 1.5,1.5 0 0 1 -1.5,-1.5"
     class="cls-3" />
  <path
     id="Path_10716"
     d="m 410,522.5 a 1.5,1.5 0 1 1 1.5,1.5 1.5,1.5 0 0 1 -1.5,-1.5"
     class="cls-3" />
  <path
     id="Path_10717"
     d="m 402,522.5 a 1.5,1.5 0 1 1 1.5,1.5 1.5,1.5 0 0 1 -1.5,-1.5"
     class="cls-3" />
  <path
     id="Path_10718"
     d="m 417,522.5 a 1.5,1.5 0 1 1 1.5,1.5 1.5,1.5 0 0 1 -1.5,-1.5"
     class="cls-3" />
  <path
     id="Path_10719"
     d="m 424,522.5 a 1.5,1.5 0 1 1 1.5,1.5 1.5,1.5 0 0 1 -1.5,-1.5"
     class="cls-3" />
  <path
     id="Path_10720"
     d="m 438,522.5 a 1.5,1.5 0 1 1 1.5,1.5 1.5,1.5 0 0 1 -1.5,-1.5"
     class="cls-3" />
  <path
     id="Path_10721"
     d="m 431,522.5 a 1.5,1.5 0 1 1 1.5,1.5 1.5,1.5 0 0 1 -1.5,-1.5"
     class="cls-3" />
  <path
     id="Path_10722"
     d="m 453,522.5 a 1.5,1.5 0 1 1 1.5,1.5 1.5,1.5 0 0 1 -1.5,-1.5"
     class="cls-3" />
  <path
     id="Path_10723"
     d="m 445,522.5 a 1.5,1.5 0 1 1 1.5,1.5 1.5,1.5 0 0 1 -1.5,-1.5"
     class="cls-3" />
  <path
     id="Path_10724"
     d="m 460,522.5 a 1.5,1.5 0 1 1 1.5,1.5 1.5,1.5 0 0 1 -1.5,-1.5"
     class="cls-3" />
  <path
     id="Path_10725"
     d="m 467,522.5 a 1.5,1.5 0 1 1 1.5,1.5 1.5,1.5 0 0 1 -1.5,-1.5"
     class="cls-3" />
  <path
     id="Path_10726"
     d="m 474,522.5 a 1.5,1.5 0 1 1 1.5,1.5 1.5,1.5 0 0 1 -1.5,-1.5"
     class="cls-3" />
  <path
     id="Path_10727"
     d="m 326.5,521 a 1.5,1.5 0 1 1 -1.5,1.5 1.5,1.5 0 0 1 1.5,-1.5"
     class="cls-3" />
  <path
     id="Path_10728"
     d="m 354.5,521 a 1.5,1.5 0 1 1 -1.5,1.5 1.5,1.5 0 0 1 1.5,-1.5"
     class="cls-3" />
  <path
     id="Path_10729"
     d="m 361.5,521 a 1.5,1.5 0 1 1 -1.5,1.5 1.5,1.5 0 0 1 1.5,-1.5"
     class="cls-3" />
  <path
     id="Path_10730"
     d="m 347.5,521 a 1.5,1.5 0 1 1 -1.5,1.5 1.5,1.5 0 0 1 1.5,-1.5"
     class="cls-3" />
  <path
     id="Path_10731"
     d="m 340.5,521 a 1.5,1.5 0 1 1 -1.5,1.5 1.5,1.5 0 0 1 1.5,-1.5"
     class="cls-3" />
  <path
     id="Path_10732"
     d="m 333.5,521 a 1.5,1.5 0 1 1 -1.5,1.5 1.5,1.5 0 0 1 1.5,-1.5"
     class="cls-3" />
  <path
     id="Path_10733"
     d="m 763.5,521 a 1.5,1.5 0 1 1 -1.5,1.5 1.5,1.5 0 0 1 1.5,-1.5"
     class="cls-3" />
  <path
     id="Path_10734"
     d="m 728.5,521 a 1.5,1.5 0 1 1 -1.5,1.5 1.5,1.5 0 0 1 1.5,-1.5"
     class="cls-3" />
  <path
     id="Path_10735"
     d="m 720.5,521 a 1.5,1.5 0 1 1 -1.5,1.5 1.5,1.5 0 0 1 1.5,-1.5"
     class="cls-3" />
  <path
     id="Path_10736"
     d="m 692.5,521 a 1.5,1.5 0 1 1 -1.5,1.5 1.5,1.5 0 0 1 1.5,-1.5"
     class="cls-3" />
  <path
     id="Path_10737"
     d="m 657.5,521 a 1.5,1.5 0 1 1 -1.5,1.5 1.5,1.5 0 0 1 1.5,-1.5"
     class="cls-3" />
  <path
     id="Path_10738"
     d="m 622.5,521 a 1.5,1.5 0 1 1 -1.5,1.5 1.5,1.5 0 0 1 1.5,-1.5"
     class="cls-3" />
  <path
     id="Path_10739"
     d="M 318.5,0 A 1.5,1.5 0 1 1 317,1.5 1.5,1.5 0 0 1 318.5,0"
     class="cls-3" />
  <path
     id="Path_10740"
     d="M 550,1.5 A 1.5,1.5 0 1 1 551.5,3 1.5,1.5 0 0 1 550,1.5"
     class="cls-3" />
  <path
     id="Path_10741"
     d="M 543,1.5 A 1.5,1.5 0 1 1 544.5,3 1.5,1.5 0 0 1 543,1.5"
     class="cls-3" />
  <path
     id="Path_10742"
     d="M 536,1.5 A 1.5,1.5 0 1 1 537.5,3 1.5,1.5 0 0 1 536,1.5"
     class="cls-3" />
  <path
     id="Path_10743"
     d="M 529,1.5 A 1.5,1.5 0 1 1 530.5,3 1.5,1.5 0 0 1 529,1.5"
     class="cls-3" />
  <path
     id="Path_10744"
     d="M 522,1.5 A 1.5,1.5 0 1 1 523.5,3 1.5,1.5 0 0 1 522,1.5"
     class="cls-3" />
  <path
     id="Path_10745"
     d="M 565,1.5 A 1.5,1.5 0 1 1 566.5,3 1.5,1.5 0 0 1 565,1.5"
     class="cls-3" />
  <path
     id="Path_10746"
     d="M 557,1.5 A 1.5,1.5 0 1 1 558.5,3 1.5,1.5 0 0 1 557,1.5"
     class="cls-3" />
  <path
     id="Path_10747"
     d="M 572,1.5 A 1.5,1.5 0 1 1 573.5,3 1.5,1.5 0 0 1 572,1.5"
     class="cls-3" />
  <path
     id="Path_10748"
     d="M 579,1.5 A 1.5,1.5 0 1 1 580.5,3 1.5,1.5 0 0 1 579,1.5"
     class="cls-3" />
  <path
     id="Path_10749"
     d="M 481.5,0 A 1.5,1.5 0 1 1 480,1.5 1.5,1.5 0 0 1 481.5,0"
     class="cls-3" />
  <path
     id="Path_10750"
     d="M 791.5,0 A 1.5,1.5 0 1 1 790,1.5 1.5,1.5 0 0 1 791.5,0"
     class="cls-3" />
  <path
     id="Path_10751"
     d="M 756.5,0 A 1.5,1.5 0 1 1 755,1.5 1.5,1.5 0 0 1 756.5,0"
     class="cls-3" />
  <path
     id="Path_10752"
     d="M 685.5,0 A 1.5,1.5 0 1 1 684,1.5 1.5,1.5 0 0 1 685.5,0"
     class="cls-3" />
  <path
     id="Path_10753"
     d="M 650.5,0 A 1.5,1.5 0 1 1 649,1.5 1.5,1.5 0 0 1 650.5,0"
     class="cls-3" />
  <path
     id="Path_10754"
     d="M 615.5,0 A 1.5,1.5 0 1 1 614,1.5 1.5,1.5 0 0 1 615.5,0"
     class="cls-3" />
  <path
     id="Path_10755"
     d="M 784.5,0 A 1.5,1.5 0 1 1 783,1.5 1.5,1.5 0 0 1 784.5,0"
     class="cls-3" />
  <path
     id="Path_10756"
     d="M 749.5,0 A 1.5,1.5 0 1 1 748,1.5 1.5,1.5 0 0 1 749.5,0"
     class="cls-3" />
  <path
     id="Path_10757"
     d="M 713.5,0 A 1.5,1.5 0 1 1 712,1.5 1.5,1.5 0 0 1 713.5,0"
     class="cls-3" />
  <path
     id="Path_10758"
     d="M 678.5,0 A 1.5,1.5 0 1 1 677,1.5 1.5,1.5 0 0 1 678.5,0"
     class="cls-3" />
  <path
     id="Path_10759"
     d="M 643.5,0 A 1.5,1.5 0 1 1 642,1.5 1.5,1.5 0 0 1 643.5,0"
     class="cls-3" />
  <path
     id="Path_10760"
     d="M 608.5,0 A 1.5,1.5 0 1 1 607,1.5 1.5,1.5 0 0 1 608.5,0"
     class="cls-3" />
  <path
     id="Path_10761"
     d="M 509.5,0 A 1.5,1.5 0 1 1 508,1.5 1.5,1.5 0 0 1 509.5,0"
     class="cls-3" />
  <path
     id="Path_10762"
     d="M 516.5,0 A 1.5,1.5 0 1 1 515,1.5 1.5,1.5 0 0 1 516.5,0"
     class="cls-3" />
  <path
     id="Path_10763"
     d="M 777.5,0 A 1.5,1.5 0 1 1 776,1.5 1.5,1.5 0 0 1 777.5,0"
     class="cls-3" />
  <path
     id="Path_10764"
     d="M 742.5,0 A 1.5,1.5 0 1 1 741,1.5 1.5,1.5 0 0 1 742.5,0"
     class="cls-3" />
  <path
     id="Path_10765"
     d="M 706.5,0 A 1.5,1.5 0 1 1 705,1.5 1.5,1.5 0 0 1 706.5,0"
     class="cls-3" />
  <path
     id="Path_10766"
     d="M 671.5,0 A 1.5,1.5 0 1 1 670,1.5 1.5,1.5 0 0 1 671.5,0"
     class="cls-3" />
  <path
     id="Path_10767"
     d="M 636.5,0 A 1.5,1.5 0 1 1 635,1.5 1.5,1.5 0 0 1 636.5,0"
     class="cls-3" />
  <path
     id="Path_10768"
     d="M 601.5,0 A 1.5,1.5 0 1 1 600,1.5 1.5,1.5 0 0 1 601.5,0"
     class="cls-3" />
  <path
     id="Path_10769"
     d="M 502.5,0 A 1.5,1.5 0 1 1 501,1.5 1.5,1.5 0 0 1 502.5,0"
     class="cls-3" />
  <path
     id="Path_10770"
     d="M 770.5,0 A 1.5,1.5 0 1 1 769,1.5 1.5,1.5 0 0 1 770.5,0"
     class="cls-3" />
  <path
     id="Path_10771"
     d="M 735.5,0 A 1.5,1.5 0 1 1 734,1.5 1.5,1.5 0 0 1 735.5,0"
     class="cls-3" />
  <path
     id="Path_10772"
     d="M 699.5,0 A 1.5,1.5 0 1 1 698,1.5 1.5,1.5 0 0 1 699.5,0"
     class="cls-3" />
  <path
     id="Path_10773"
     d="M 664.5,0 A 1.5,1.5 0 1 1 663,1.5 1.5,1.5 0 0 1 664.5,0"
     class="cls-3" />
  <path
     id="Path_10774"
     d="M 629.5,0 A 1.5,1.5 0 1 1 628,1.5 1.5,1.5 0 0 1 629.5,0"
     class="cls-3" />
  <path
     id="Path_10775"
     d="M 594.5,0 A 1.5,1.5 0 1 1 593,1.5 1.5,1.5 0 0 1 594.5,0"
     class="cls-3" />
  <path
     id="Path_10776"
     d="M 495.5,0 A 1.5,1.5 0 1 1 494,1.5 1.5,1.5 0 0 1 495.5,0"
     class="cls-3" />
  <path
     id="Path_10777"
     d="M 587.5,0 A 1.5,1.5 0 1 1 586,1.5 1.5,1.5 0 0 1 587.5,0"
     class="cls-3" />
  <path
     id="Path_10778"
     d="M 488.5,0 A 1.5,1.5 0 1 1 487,1.5 1.5,1.5 0 0 1 488.5,0"
     class="cls-3" />
  <path
     id="Path_10779"
     d="M 395,1.5 A 1.5,1.5 0 1 1 396.5,3 1.5,1.5 0 0 1 395,1.5"
     class="cls-3" />
  <path
     id="Path_10780"
     d="M 388,1.5 A 1.5,1.5 0 1 1 389.5,3 1.5,1.5 0 0 1 388,1.5"
     class="cls-3" />
  <path
     id="Path_10781"
     d="M 381,1.5 A 1.5,1.5 0 1 1 382.5,3 1.5,1.5 0 0 1 381,1.5"
     class="cls-3" />
  <path
     id="Path_10782"
     d="M 374,1.5 A 1.5,1.5 0 1 1 375.5,3 1.5,1.5 0 0 1 374,1.5"
     class="cls-3" />
  <path
     id="Path_10783"
     d="M 367,1.5 A 1.5,1.5 0 1 1 368.5,3 1.5,1.5 0 0 1 367,1.5"
     class="cls-3" />
  <path
     id="Path_10784"
     d="M 410,1.5 A 1.5,1.5 0 1 1 411.5,3 1.5,1.5 0 0 1 410,1.5"
     class="cls-3" />
  <path
     id="Path_10785"
     d="M 402,1.5 A 1.5,1.5 0 1 1 403.5,3 1.5,1.5 0 0 1 402,1.5"
     class="cls-3" />
  <path
     id="Path_10786"
     d="M 417,1.5 A 1.5,1.5 0 1 1 418.5,3 1.5,1.5 0 0 1 417,1.5"
     class="cls-3" />
  <path
     id="Path_10787"
     d="M 424,1.5 A 1.5,1.5 0 1 1 425.5,3 1.5,1.5 0 0 1 424,1.5"
     class="cls-3" />
  <path
     id="Path_10788"
     d="M 438,1.5 A 1.5,1.5 0 1 1 439.5,3 1.5,1.5 0 0 1 438,1.5"
     class="cls-3" />
  <path
     id="Path_10789"
     d="M 431,1.5 A 1.5,1.5 0 1 1 432.5,3 1.5,1.5 0 0 1 431,1.5"
     class="cls-3" />
  <path
     id="Path_10790"
     d="M 453,1.5 A 1.5,1.5 0 1 1 454.5,3 1.5,1.5 0 0 1 453,1.5"
     class="cls-3" />
  <path
     id="Path_10791"
     d="M 445,1.5 A 1.5,1.5 0 1 1 446.5,3 1.5,1.5 0 0 1 445,1.5"
     class="cls-3" />
  <path
     id="Path_10792"
     d="M 460,1.5 A 1.5,1.5 0 1 1 461.5,3 1.5,1.5 0 0 1 460,1.5"
     class="cls-3" />
  <path
     id="Path_10793"
     d="M 467,1.5 A 1.5,1.5 0 1 1 468.5,3 1.5,1.5 0 0 1 467,1.5"
     class="cls-3" />
  <path
     id="Path_10794"
     d="M 474,1.5 A 1.5,1.5 0 1 1 475.5,3 1.5,1.5 0 0 1 474,1.5"
     class="cls-3" />
  <path
     id="Path_10795"
     d="M 326.5,0 A 1.5,1.5 0 1 1 325,1.5 1.5,1.5 0 0 1 326.5,0"
     class="cls-3" />
  <path
     id="Path_10796"
     d="M 354.5,0 A 1.5,1.5 0 1 1 353,1.5 1.5,1.5 0 0 1 354.5,0"
     class="cls-3" />
  <path
     id="Path_10797"
     d="M 361.5,0 A 1.5,1.5 0 1 1 360,1.5 1.5,1.5 0 0 1 361.5,0"
     class="cls-3" />
  <path
     id="Path_10798"
     d="M 347.5,0 A 1.5,1.5 0 1 1 346,1.5 1.5,1.5 0 0 1 347.5,0"
     class="cls-3" />
  <path
     id="Path_10799"
     d="M 340.5,0 A 1.5,1.5 0 1 1 339,1.5 1.5,1.5 0 0 1 340.5,0"
     class="cls-3" />
  <path
     id="Path_10800"
     d="M 333.5,0 A 1.5,1.5 0 1 1 332,1.5 1.5,1.5 0 0 1 333.5,0"
     class="cls-3" />
  <path
     id="Path_10801"
     d="M 763.5,0 A 1.5,1.5 0 1 1 762,1.5 1.5,1.5 0 0 1 763.5,0"
     class="cls-3" />
  <path
     id="Path_10802"
     d="M 728.5,0 A 1.5,1.5 0 1 1 727,1.5 1.5,1.5 0 0 1 728.5,0"
     class="cls-3" />
  <path
     id="Path_10803"
     d="M 720.5,0 A 1.5,1.5 0 1 1 719,1.5 1.5,1.5 0 0 1 720.5,0"
     class="cls-3" />
  <path
     id="Path_10804"
     d="M 692.5,0 A 1.5,1.5 0 1 1 691,1.5 1.5,1.5 0 0 1 692.5,0"
     class="cls-3" />
  <path
     id="Path_10805"
     d="M 657.5,0 A 1.5,1.5 0 1 1 656,1.5 1.5,1.5 0 0 1 657.5,0"
     class="cls-3" />
  <path
     id="Path_10806"
     d="M 622.5,0 A 1.5,1.5 0 1 1 621,1.5 1.5,1.5 0 0 1 622.5,0"
     class="cls-3" />
  <path
     id="Rectangle_697"
     d="m 320.303,293.725 h 160 v 160 h -160 z"
     class="cls-4" />
  <path
     id="Path_10807"
     d="m 384.228,394.667 a 0.2,0.2 0 0 1 -0.062,-0.152 v -12.168 a 0.212,0.212 0 0 1 0.214,-0.216 h 1.657 a 0.2,0.2 0 0 1 0.152,0.062 0.206,0.206 0 0 1 0.064,0.154 v 12.168 a 0.2,0.2 0 0 1 -0.064,0.152 0.2,0.2 0 0 1 -0.152,0.063 h -1.657 a 0.2,0.2 0 0 1 -0.152,-0.063"
     class="cls-5" />
  <path
     id="Path_10808"
     d="m 390.113,394.506 a 3.082,3.082 0 0 1 -1.322,-0.918 2.036,2.036 0 0 1 -0.469,-1.306 v -0.162 a 0.219,0.219 0 0 1 0.217,-0.216 h 1.584 a 0.22,0.22 0 0 1 0.217,0.216 v 0.036 a 0.945,0.945 0 0 0 0.494,0.784 2.191,2.191 0 0 0 1.25,0.333 2.1,2.1 0 0 0 1.172,-0.3 0.88,0.88 0 0 0 0.449,-0.747 0.668,0.668 0 0 0 -0.369,-0.621 5.917,5.917 0 0 0 -1.2,-0.442 l -0.683,-0.216 a 9.929,9.929 0 0 1 -1.549,-0.576 3.065,3.065 0 0 1 -1.061,-0.837 2.074,2.074 0 0 1 -0.433,-1.358 2.386,2.386 0 0 1 0.99,-2.007 4.227,4.227 0 0 1 2.611,-0.747 4.892,4.892 0 0 1 1.926,0.351 2.966,2.966 0 0 1 1.278,0.971 2.349,2.349 0 0 1 0.449,1.413 0.215,0.215 0 0 1 -0.215,0.217 h -1.529 a 0.213,0.213 0 0 1 -0.215,-0.217 0.927,0.927 0 0 0 -0.459,-0.782 2.185,2.185 0 0 0 -1.252,-0.315 2.238,2.238 0 0 0 -1.143,0.26 0.812,0.812 0 0 0 -0.441,0.73 0.709,0.709 0 0 0 0.424,0.656 7.308,7.308 0 0 0 1.412,0.495 l 0.4,0.109 a 12.536,12.536 0 0 1 1.6,0.585 3.122,3.122 0 0 1 1.1,0.828 2.058,2.058 0 0 1 0.45,1.377 2.343,2.343 0 0 1 -1.008,2.007 4.482,4.482 0 0 1 -2.682,0.729 5.467,5.467 0 0 1 -1.99,-0.333"
     class="cls-5" />
  <path
     id="Path_10809"
     d="m 402.353,387.161 a 0.2,0.2 0 0 1 -0.152,0.063 h -1.836 a 0.08,0.08 0 0 0 -0.09,0.09 v 4.338 a 1.385,1.385 0 0 0 0.3,0.99 1.263,1.263 0 0 0 0.945,0.306 h 0.539 a 0.217,0.217 0 0 1 0.217,0.216 v 1.351 a 0.222,0.222 0 0 1 -0.217,0.233 l -0.935,0.018 A 3.747,3.747 0 0 1 399,394.28 a 2.122,2.122 0 0 1 -0.721,-1.836 v -5.13 a 0.08,0.08 0 0 0 -0.09,-0.09 h -1.025 a 0.213,0.213 0 0 1 -0.217,-0.215 v -1.261 a 0.209,0.209 0 0 1 0.062,-0.152 0.214,0.214 0 0 1 0.155,-0.064 h 1.025 a 0.079,0.079 0 0 0 0.09,-0.09 v -2.1 a 0.213,0.213 0 0 1 0.217,-0.217 h 1.564 a 0.21,0.21 0 0 1 0.154,0.063 0.213,0.213 0 0 1 0.063,0.154 v 2.1 a 0.079,0.079 0 0 0 0.09,0.09 h 1.833 a 0.205,0.205 0 0 1 0.152,0.064 0.2,0.2 0 0 1 0.064,0.152 v 1.261 a 0.2,0.2 0 0 1 -0.064,0.152"
     class="cls-5" />
  <path
     id="Path_10810"
     d="m 404.541,383.912 a 1.35,1.35 0 1 1 0.918,0.36 1.238,1.238 0 0 1 -0.918,-0.36 m -0.1,10.755 a 0.209,0.209 0 0 1 -0.062,-0.152 v -8.785 a 0.215,0.215 0 0 1 0.062,-0.153 0.211,0.211 0 0 1 0.154,-0.062 h 1.655 a 0.211,0.211 0 0 1 0.154,0.062 0.215,0.215 0 0 1 0.062,0.153 v 8.785 a 0.213,0.213 0 0 1 -0.216,0.215 h -1.65 a 0.208,0.208 0 0 1 -0.154,-0.063"
     class="cls-5" />
  <path
     id="Path_10811"
     d="m 410.328,394.155 a 3.8,3.8 0 0 1 -1.432,-2 6.82,6.82 0 0 1 -0.306,-2.052 6.731,6.731 0 0 1 0.289,-2.052 3.694,3.694 0 0 1 1.439,-1.961 4.255,4.255 0 0 1 2.467,-0.7 4,4 0 0 1 2.367,0.7 3.736,3.736 0 0 1 1.412,1.943 5.827,5.827 0 0 1 0.325,2.053 6.435,6.435 0 0 1 -0.307,2.051 3.87,3.87 0 0 1 -1.422,2.007 3.966,3.966 0 0 1 -2.393,0.729 4.109,4.109 0 0 1 -2.439,-0.72 m 3.582,-1.458 a 2.137,2.137 0 0 0 0.693,-1.062 5.354,5.354 0 0 0 0.18,-1.512 5.017,5.017 0 0 0 -0.18,-1.512 1.958,1.958 0 0 0 -0.685,-1.053 1.905,1.905 0 0 0 -1.188,-0.369 1.852,1.852 0 0 0 -1.152,0.369 2.05,2.05 0 0 0 -0.7,1.053 6.44,6.44 0 0 0 0,3.024 1.973,1.973 0 0 0 0.693,1.062 1.914,1.914 0 0 0 1.2,0.378 1.784,1.784 0 0 0 1.143,-0.378"
     class="cls-5" />
  <path
     id="Path_10856"
     d="m 305.3,375.725 h -98 v -126 h 2 v 124 h 96 z"
     class="cls-4" />
  <path
     id="Path_10857"
     d="m 215.053,254.725 h -14 l 7,-10.5 z"
     class="cls-4" />
  <path
     id="Path_10858"
     d="M 396.437,343.217 V 355.2 a 0.045,0.045 0 0 1 -0.037,0.045 l -11.535,1.977 a 0.046,0.046 0 0 1 -0.053,-0.038 0.052,0.052 0 0 1 0,-0.025 l 11.535,-25.761 a 0.047,0.047 0 0 1 0.062,-0.021 0.045,0.045 0 0 1 0.026,0.04 z"
     class="cls-5" />
  <path
     id="Path_10859"
     d="m 398.382,336.313 v 18.934 a 0.045,0.045 0 0 0 0.041,0.045 l 17.278,1.93 a 0.046,0.046 0 0 0 0.051,-0.041 0.049,0.049 0 0 0 0,-0.024 L 398.47,318.568 a 0.046,0.046 0 0 0 -0.062,-0.021 0.047,0.047 0 0 0 -0.026,0.04 z"
     class="cls-5" />
  <path
     id="Path_10860"
     d="m 415.568,358.988 -19.113,5.734 a 0.047,0.047 0 0 1 -0.033,0 l -11.549,-5.734 a 0.045,0.045 0 0 1 -0.024,-0.06 0.046,0.046 0 0 1 0.043,-0.027 h 30.663 a 0.046,0.046 0 0 1 0.038,0.053 0.048,0.048 0 0 1 -0.025,0.034"
     class="cls-5" />
  <path
     id="Path_10868"
     d="M 299.618,395.827 H 188.3 v -151.1 h 2 v 149.1 h 109.318 z"
     class="cls-3" />
  <path
     id="Path_10869"
     d="m 304.8,394.577 -10.5,7 v -14 z"
     class="cls-3" />
  <path
     id="Path_10902"
     d="m 592.3,375.725 h -98 v -2 h 96 v -124 h 2 z"
     class="cls-4" />
  <path
     id="Path_10903"
     d="m 584.553,254.725 h 14 l -7,-10.5 z"
     class="cls-4" />
  <path
     id="Path_10911"
     d="M 611.3,395.827 H 499.988 v -2 H 609.3 v -149.1 h 2 z"
     class="cls-3" />
  <path
     id="Path_10912"
     d="m 494.3,394.577 10.5,-7 v 14 z"
     class="cls-3" />
  <path
     id="Rectangle_698"
     d="m 148.431,72.058 h 160 v 160 h -160 z"
     class="cls-6" />
  <path
     id="Rectangle_699"
     d="m 174.89,180.058 h 108 v 26 h -108 z"
     class="cls-3" />
  <path
     id="Path_10913"
     d="m 193.574,110.758 a 3.685,3.685 0 0 1 -1.609,-1.261 3.236,3.236 0 0 1 -0.569,-1.907 v -0.45 a 0.219,0.219 0 0 1 0.217,-0.216 h 1.6 a 0.217,0.217 0 0 1 0.216,0.216 v 0.342 a 1.66,1.66 0 0 0 0.739,1.377 3.3,3.3 0 0 0 2.015,0.548 2.53,2.53 0 0 0 1.657,-0.467 1.5,1.5 0 0 0 0.556,-1.206 1.257,1.257 0 0 0 -0.3,-0.855 2.924,2.924 0 0 0 -0.874,-0.64 q -0.567,-0.287 -1.7,-0.719 a 17.648,17.648 0 0 1 -2.07,-0.882 3.86,3.86 0 0 1 -1.322,-1.125 2.873,2.873 0 0 1 -0.532,-1.774 3.025,3.025 0 0 1 1.153,-2.5 4.792,4.792 0 0 1 3.076,-0.917 5.767,5.767 0 0 1 2.387,0.467 3.8,3.8 0 0 1 1.609,1.306 3.323,3.323 0 0 1 0.576,1.935 v 0.305 a 0.2,0.2 0 0 1 -0.062,0.154 0.212,0.212 0 0 1 -0.153,0.063 h -1.624 a 0.215,0.215 0 0 1 -0.215,-0.217 v -0.2 a 1.81,1.81 0 0 0 -0.693,-1.432 2.89,2.89 0 0 0 -1.918,-0.585 2.519,2.519 0 0 0 -1.539,0.414 1.383,1.383 0 0 0 -0.549,1.17 1.319,1.319 0 0 0 0.289,0.883 2.562,2.562 0 0 0 0.864,0.62 18.948,18.948 0 0 0 1.783,0.711 20.54,20.54 0 0 1 2.043,0.883 3.923,3.923 0 0 1 1.312,1.106 2.813,2.813 0 0 1 0.549,1.774 3.122,3.122 0 0 1 -1.195,2.574 5.109,5.109 0 0 1 -3.268,0.953 6.159,6.159 0 0 1 -2.449,-0.449"
     class="cls-5" />
  <path
     id="Path_10914"
     d="m 210.225,106.438 -0.018,0.558 a 0.191,0.191 0 0 1 -0.217,0.216 h -5.632 a 0.079,0.079 0 0 0 -0.09,0.09 2.546,2.546 0 0 0 0.162,0.81 1.975,1.975 0 0 0 2.105,1.314 2.267,2.267 0 0 0 1.944,-1.009 0.212,0.212 0 0 1 0.179,-0.107 0.175,0.175 0 0 1 0.127,0.054 l 1.116,0.918 a 0.19,0.19 0 0 1 0.054,0.288 3.687,3.687 0 0 1 -1.484,1.224 4.832,4.832 0 0 1 -2.063,0.432 4.321,4.321 0 0 1 -2.384,-0.63 3.612,3.612 0 0 1 -1.43,-1.764 7.059,7.059 0 0 1 -0.414,-2.7 5.446,5.446 0 0 1 0.215,-1.692 3.61,3.61 0 0 1 1.359,-1.989 3.964,3.964 0 0 1 2.4,-0.729 q 3.549,0 4,3.708 a 6.415,6.415 0 0 1 0.072,1.008 m -5.174,-2.583 a 1.755,1.755 0 0 0 -0.621,0.927 3.121,3.121 0 0 0 -0.145,0.792 c -0.025,0.06 0,0.09 0.073,0.09 h 3.654 a 0.08,0.08 0 0 0 0.09,-0.09 3.441,3.441 0 0 0 -0.11,-0.684 1.743,1.743 0 0 0 -0.638,-1.008 1.934,1.934 0 0 0 -1.2,-0.36 1.779,1.779 0 0 0 -1.105,0.333"
     class="cls-5" />
  <path
     id="Path_10915"
     d="m 217.424,101.991 a 0.223,0.223 0 0 1 0.107,0.272 l -0.3,1.62 q -0.018,0.214 -0.252,0.126 a 1.971,1.971 0 0 0 -0.631,-0.091 2.929,2.929 0 0 0 -0.359,0.017 1.874,1.874 0 0 0 -1.26,0.532 1.724,1.724 0 0 0 -0.5,1.287 v 5.094 a 0.22,0.22 0 0 1 -0.217,0.216 h -1.656 a 0.215,0.215 0 0 1 -0.215,-0.216 v -8.766 a 0.2,0.2 0 0 1 0.062,-0.152 0.208,0.208 0 0 1 0.153,-0.064 H 214 a 0.2,0.2 0 0 1 0.152,0.064 0.2,0.2 0 0 1 0.065,0.152 v 0.81 c 0,0.048 0.008,0.075 0.027,0.081 0.019,0.006 0.037,-0.008 0.063,-0.045 a 2.372,2.372 0 0 1 2.1,-1.169 2.09,2.09 0 0 1 1.008,0.232"
     class="cls-5" />
  <path
     id="Path_10916"
     d="m 221.455,110.884 -2.9,-8.784 a 0.2,0.2 0 0 1 -0.018,-0.09 c 0,-0.108 0.066,-0.162 0.2,-0.162 h 1.836 a 0.237,0.237 0 0 1 0.252,0.18 l 1.746,6.011 c 0.012,0.036 0.029,0.055 0.053,0.055 0.024,0 0.043,-0.019 0.055,-0.055 l 1.746,-6.011 a 0.235,0.235 0 0 1 0.252,-0.18 l 1.836,0.036 a 0.206,0.206 0 0 1 0.162,0.062 0.2,0.2 0 0 1 0.017,0.19 l -2.881,8.748 a 0.224,0.224 0 0 1 -0.232,0.18 h -1.891 a 0.226,0.226 0 0 1 -0.234,-0.18"
     class="cls-5" />
  <path
     id="Path_10917"
     d="m 228.547,100.245 a 1.35,1.35 0 1 1 0.918,0.36 1.238,1.238 0 0 1 -0.918,-0.36 m -0.1,10.755 a 0.2,0.2 0 0 1 -0.064,-0.152 v -8.785 a 0.209,0.209 0 0 1 0.064,-0.153 0.2,0.2 0 0 1 0.152,-0.062 h 1.657 a 0.2,0.2 0 0 1 0.152,0.062 0.207,0.207 0 0 1 0.062,0.153 v 8.785 a 0.213,0.213 0 0 1 -0.214,0.215 H 228.6 A 0.2,0.2 0 0 1 228.448,111"
     class="cls-5" />
  <path
     id="Path_10918"
     d="m 234.307,110.5 a 3.672,3.672 0 0 1 -1.4,-1.917 8.078,8.078 0 0 1 0,-4.283 3.5,3.5 0 0 1 1.394,-1.882 4.172,4.172 0 0 1 2.4,-0.692 4.285,4.285 0 0 1 2.449,0.7 3.343,3.343 0 0 1 1.385,1.763 3.406,3.406 0 0 1 0.126,0.577 v 0.036 a 0.207,0.207 0 0 1 -0.2,0.216 l -1.619,0.233 h -0.036 a 0.215,0.215 0 0 1 -0.216,-0.18 0.5,0.5 0 0 0 -0.017,-0.143 c -0.026,-0.1 -0.049,-0.181 -0.073,-0.252 a 1.554,1.554 0 0 0 -0.647,-0.828 2.034,2.034 0 0 0 -1.153,-0.325 1.909,1.909 0 0 0 -1.161,0.351 1.688,1.688 0 0 0 -0.638,0.964 5.552,5.552 0 0 0 -0.182,1.6 6.488,6.488 0 0 0 0.162,1.6 1.888,1.888 0 0 0 0.649,1 1.833,1.833 0 0 0 1.17,0.369 1.989,1.989 0 0 0 1.179,-0.35 1.586,1.586 0 0 0 0.64,-0.946 0.21,0.21 0 0 0 0.016,-0.09 0.071,0.071 0 0 0 0.018,-0.053 c 0.037,-0.145 0.121,-0.2 0.253,-0.181 l 1.62,0.252 a 0.289,0.289 0 0 1 0.152,0.081 0.184,0.184 0 0 1 0.045,0.171 c -0.035,0.192 -0.065,0.331 -0.089,0.414 a 3.207,3.207 0 0 1 -1.385,1.827 4.419,4.419 0 0 1 -2.449,0.675 4.039,4.039 0 0 1 -2.394,-0.711"
     class="cls-5" />
  <path
     id="Path_10919"
     d="m 250.166,106.438 -0.02,0.558 a 0.19,0.19 0 0 1 -0.215,0.216 H 244.3 a 0.079,0.079 0 0 0 -0.09,0.09 2.6,2.6 0 0 0 0.162,0.81 1.978,1.978 0 0 0 2.1,1.314 2.271,2.271 0 0 0 1.946,-1.009 0.21,0.21 0 0 1 0.179,-0.107 0.171,0.171 0 0 1 0.125,0.054 l 1.118,0.918 a 0.191,0.191 0 0 1 0.052,0.288 3.674,3.674 0 0 1 -1.484,1.224 4.817,4.817 0 0 1 -2.061,0.432 4.316,4.316 0 0 1 -2.384,-0.63 3.627,3.627 0 0 1 -1.432,-1.764 7.1,7.1 0 0 1 -0.414,-2.7 5.439,5.439 0 0 1 0.217,-1.692 3.6,3.6 0 0 1 1.357,-1.989 3.97,3.97 0 0 1 2.4,-0.729 q 3.546,0 4,3.708 a 6.665,6.665 0 0 1 0.072,1.008 m -5.176,-2.583 a 1.755,1.755 0 0 0 -0.621,0.927 3.211,3.211 0 0 0 -0.145,0.792 c -0.023,0.06 0,0.09 0.073,0.09 h 3.654 a 0.08,0.08 0 0 0 0.09,-0.09 3.468,3.468 0 0 0 -0.108,-0.684 1.752,1.752 0 0 0 -0.638,-1.008 1.938,1.938 0 0 0 -1.2,-0.36 1.781,1.781 0 0 0 -1.107,0.333"
     class="cls-5" />
  <path
     id="Path_10920"
     d="m 263.448,110.884 -0.594,-1.927 c -0.024,-0.048 -0.053,-0.071 -0.09,-0.071 h -4.752 c -0.035,0 -0.066,0.023 -0.09,0.071 l -0.594,1.927 a 0.224,0.224 0 0 1 -0.234,0.179 h -1.8 a 0.2,0.2 0 0 1 -0.162,-0.063 0.194,0.194 0 0 1 -0.019,-0.189 l 3.906,-12.168 a 0.227,0.227 0 0 1 0.234,-0.179 h 2.25 a 0.227,0.227 0 0 1 0.235,0.179 l 3.923,12.168 a 0.2,0.2 0 0 1 0.018,0.09 c 0,0.109 -0.066,0.162 -0.2,0.162 h -1.8 a 0.226,0.226 0 0 1 -0.234,-0.179 m -4.895,-3.637 h 3.654 c 0.071,0 0.1,-0.035 0.071,-0.107 l -1.854,-6.031 c -0.012,-0.048 -0.029,-0.072 -0.053,-0.072 -0.024,0 -0.043,0.024 -0.054,0.072 l -1.836,6.031 c -0.012,0.072 0.011,0.107 0.072,0.107"
     class="cls-5" />
  <path
     id="Rectangle_700"
     d="m 492.431,72.058 h 160 v 160 h -160 z"
     class="cls-6" />
  <path
     id="Rectangle_701"
     d="m 518.89,180.058 h 108 v 26 h -108 z"
     class="cls-3" />
  <path
     id="Path_10921"
     d="m 537.808,110.758 a 3.685,3.685 0 0 1 -1.608,-1.258 3.236,3.236 0 0 1 -0.569,-1.907 v -0.45 a 0.219,0.219 0 0 1 0.217,-0.216 h 1.6 a 0.217,0.217 0 0 1 0.216,0.216 v 0.342 a 1.66,1.66 0 0 0 0.739,1.377 3.3,3.3 0 0 0 2.015,0.548 2.53,2.53 0 0 0 1.657,-0.467 1.5,1.5 0 0 0 0.556,-1.206 1.257,1.257 0 0 0 -0.3,-0.855 2.924,2.924 0 0 0 -0.874,-0.64 q -0.567,-0.287 -1.7,-0.719 a 17.654,17.654 0 0 1 -2.07,-0.882 3.86,3.86 0 0 1 -1.322,-1.125 2.873,2.873 0 0 1 -0.532,-1.774 3.025,3.025 0 0 1 1.153,-2.5 4.792,4.792 0 0 1 3.076,-0.917 5.767,5.767 0 0 1 2.387,0.467 3.8,3.8 0 0 1 1.609,1.306 3.322,3.322 0 0 1 0.576,1.935 v 0.305 a 0.2,0.2 0 0 1 -0.062,0.154 0.211,0.211 0 0 1 -0.153,0.063 h -1.621 a 0.215,0.215 0 0 1 -0.215,-0.217 v -0.2 a 1.81,1.81 0 0 0 -0.693,-1.432 2.89,2.89 0 0 0 -1.918,-0.585 2.519,2.519 0 0 0 -1.539,0.414 1.383,1.383 0 0 0 -0.549,1.17 1.319,1.319 0 0 0 0.289,0.883 2.563,2.563 0 0 0 0.864,0.62 18.944,18.944 0 0 0 1.783,0.711 20.543,20.543 0 0 1 2.043,0.883 3.923,3.923 0 0 1 1.312,1.106 2.813,2.813 0 0 1 0.549,1.774 3.121,3.121 0 0 1 -1.195,2.574 5.11,5.11 0 0 1 -3.268,0.953 6.16,6.16 0 0 1 -2.449,-0.449"
     class="cls-5" />
  <path
     id="Path_10922"
     d="m 554.459,106.438 -0.018,0.558 a 0.191,0.191 0 0 1 -0.217,0.216 h -5.632 a 0.079,0.079 0 0 0 -0.09,0.09 2.544,2.544 0 0 0 0.162,0.81 1.975,1.975 0 0 0 2.1,1.314 2.267,2.267 0 0 0 1.944,-1.009 0.212,0.212 0 0 1 0.179,-0.107 0.175,0.175 0 0 1 0.127,0.054 l 1.116,0.918 a 0.19,0.19 0 0 1 0.054,0.288 3.687,3.687 0 0 1 -1.484,1.224 4.832,4.832 0 0 1 -2.063,0.432 4.321,4.321 0 0 1 -2.384,-0.63 3.613,3.613 0 0 1 -1.43,-1.764 7.059,7.059 0 0 1 -0.414,-2.7 5.445,5.445 0 0 1 0.215,-1.692 3.61,3.61 0 0 1 1.359,-1.989 3.964,3.964 0 0 1 2.4,-0.729 q 3.549,0 4,3.708 a 6.419,6.419 0 0 1 0.072,1.008 m -5.174,-2.583 a 1.755,1.755 0 0 0 -0.621,0.927 3.121,3.121 0 0 0 -0.145,0.792 c -0.025,0.06 0,0.09 0.073,0.09 h 3.654 a 0.08,0.08 0 0 0 0.09,-0.09 3.44,3.44 0 0 0 -0.11,-0.684 1.743,1.743 0 0 0 -0.638,-1.008 1.934,1.934 0 0 0 -1.2,-0.36 1.779,1.779 0 0 0 -1.105,0.333"
     class="cls-5" />
  <path
     id="Path_10923"
     d="m 561.658,101.991 a 0.223,0.223 0 0 1 0.107,0.272 l -0.3,1.62 q -0.018,0.214 -0.252,0.126 a 1.971,1.971 0 0 0 -0.631,-0.091 2.929,2.929 0 0 0 -0.359,0.017 1.874,1.874 0 0 0 -1.26,0.532 1.724,1.724 0 0 0 -0.5,1.287 v 5.094 a 0.22,0.22 0 0 1 -0.217,0.216 h -1.656 a 0.215,0.215 0 0 1 -0.215,-0.216 v -8.766 a 0.2,0.2 0 0 1 0.062,-0.152 0.208,0.208 0 0 1 0.153,-0.064 h 1.656 a 0.2,0.2 0 0 1 0.152,0.064 0.2,0.2 0 0 1 0.065,0.152 v 0.81 c 0,0.048 0.008,0.075 0.027,0.081 0.019,0.006 0.037,-0.008 0.063,-0.045 a 2.372,2.372 0 0 1 2.105,-1.169 2.09,2.09 0 0 1 1.008,0.232"
     class="cls-5" />
  <path
     id="Path_10924"
     d="m 565.689,110.884 -2.9,-8.784 a 0.2,0.2 0 0 1 -0.018,-0.09 c 0,-0.108 0.066,-0.162 0.2,-0.162 h 1.836 a 0.237,0.237 0 0 1 0.252,0.18 l 1.746,6.011 c 0.012,0.036 0.029,0.055 0.053,0.055 0.024,0 0.043,-0.019 0.055,-0.055 l 1.746,-6.011 a 0.235,0.235 0 0 1 0.252,-0.18 l 1.836,0.036 a 0.206,0.206 0 0 1 0.162,0.062 0.2,0.2 0 0 1 0.017,0.19 l -2.881,8.748 a 0.224,0.224 0 0 1 -0.232,0.18 h -1.891 a 0.226,0.226 0 0 1 -0.234,-0.18"
     class="cls-5" />
  <path
     id="Path_10925"
     d="m 572.781,100.245 a 1.35,1.35 0 1 1 0.918,0.36 1.238,1.238 0 0 1 -0.918,-0.36 m -0.1,10.755 a 0.2,0.2 0 0 1 -0.064,-0.152 v -8.785 a 0.209,0.209 0 0 1 0.064,-0.153 0.2,0.2 0 0 1 0.152,-0.062 h 1.657 a 0.2,0.2 0 0 1 0.152,0.062 0.207,0.207 0 0 1 0.062,0.153 v 8.785 a 0.213,0.213 0 0 1 -0.214,0.215 h -1.657 A 0.2,0.2 0 0 1 572.681,111"
     class="cls-5" />
  <path
     id="Path_10926"
     d="m 578.541,110.5 a 3.676,3.676 0 0 1 -1.4,-1.917 8.078,8.078 0 0 1 0,-4.283 3.5,3.5 0 0 1 1.394,-1.882 4.17,4.17 0 0 1 2.4,-0.692 4.285,4.285 0 0 1 2.449,0.7 3.348,3.348 0 0 1 1.385,1.763 3.409,3.409 0 0 1 0.126,0.577 v 0.036 a 0.207,0.207 0 0 1 -0.2,0.216 l -1.619,0.233 h -0.037 a 0.215,0.215 0 0 1 -0.215,-0.18 0.5,0.5 0 0 0 -0.017,-0.143 c -0.026,-0.1 -0.049,-0.181 -0.073,-0.252 a 1.556,1.556 0 0 0 -0.648,-0.828 2.031,2.031 0 0 0 -1.152,-0.325 1.909,1.909 0 0 0 -1.161,0.351 1.688,1.688 0 0 0 -0.638,0.964 5.551,5.551 0 0 0 -0.182,1.6 6.489,6.489 0 0 0 0.162,1.6 1.888,1.888 0 0 0 0.649,1 1.833,1.833 0 0 0 1.17,0.369 1.989,1.989 0 0 0 1.179,-0.35 1.58,1.58 0 0 0 0.639,-0.946 0.2,0.2 0 0 0 0.017,-0.09 0.071,0.071 0 0 0 0.018,-0.053 c 0.037,-0.145 0.121,-0.2 0.252,-0.181 l 1.621,0.252 a 0.289,0.289 0 0 1 0.152,0.081 0.184,0.184 0 0 1 0.045,0.171 c -0.035,0.192 -0.066,0.331 -0.089,0.414 a 3.212,3.212 0 0 1 -1.385,1.827 4.419,4.419 0 0 1 -2.449,0.675 4.042,4.042 0 0 1 -2.395,-0.711"
     class="cls-5" />
  <path
     id="Path_10927"
     d="m 594.4,106.438 -0.02,0.558 a 0.19,0.19 0 0 1 -0.215,0.216 h -5.634 a 0.079,0.079 0 0 0 -0.09,0.09 2.6,2.6 0 0 0 0.162,0.81 1.978,1.978 0 0 0 2.1,1.314 2.27,2.27 0 0 0 1.946,-1.009 0.21,0.21 0 0 1 0.179,-0.107 0.171,0.171 0 0 1 0.125,0.054 l 1.118,0.918 a 0.191,0.191 0 0 1 0.052,0.288 3.673,3.673 0 0 1 -1.484,1.224 4.817,4.817 0 0 1 -2.061,0.432 4.316,4.316 0 0 1 -2.384,-0.63 3.627,3.627 0 0 1 -1.432,-1.764 7.1,7.1 0 0 1 -0.414,-2.7 5.438,5.438 0 0 1 0.217,-1.692 3.6,3.6 0 0 1 1.357,-1.989 3.97,3.97 0 0 1 2.4,-0.729 q 3.546,0 4,3.708 a 6.663,6.663 0 0 1 0.072,1.008 m -5.176,-2.583 a 1.755,1.755 0 0 0 -0.621,0.927 3.21,3.21 0 0 0 -0.145,0.792 c -0.023,0.06 0,0.09 0.073,0.09 h 3.654 a 0.08,0.08 0 0 0 0.09,-0.09 3.471,3.471 0 0 0 -0.108,-0.684 1.753,1.753 0 0 0 -0.638,-1.008 1.938,1.938 0 0 0 -1.2,-0.36 1.781,1.781 0 0 0 -1.107,0.333"
     class="cls-5" />
  <path
     id="Path_10928"
     d="m 607.143,104.6 a 3.029,3.029 0 0 1 1.836,2.97 3.1,3.1 0 0 1 -1.143,2.6 4.708,4.708 0 0 1 -2.978,0.891 h -4.537 a 0.2,0.2 0 0 1 -0.153,-0.064 0.2,0.2 0 0 1 -0.062,-0.152 V 98.68 a 0.207,0.207 0 0 1 0.062,-0.154 0.2,0.2 0 0 1 0.153,-0.061 h 4.392 a 4.752,4.752 0 0 1 3.024,0.845 3.067,3.067 0 0 1 1.062,2.556 2.645,2.645 0 0 1 -1.656,2.627 c -0.072,0.037 -0.072,0.072 0,0.109 m -4.949,-4.248 v 3.33 a 0.078,0.078 0 0 0 0.089,0.089 h 2.43 a 2.269,2.269 0 0 0 1.5,-0.458 1.561,1.561 0 0 0 0.549,-1.268 1.638,1.638 0 0 0 -0.549,-1.306 2.212,2.212 0 0 0 -1.5,-0.478 h -2.43 a 0.08,0.08 0 0 0 -0.089,0.091 m 4.148,8.387 a 1.768,1.768 0 0 0 0.549,-1.367 1.747,1.747 0 0 0 -0.559,-1.378 2.2,2.2 0 0 0 -1.511,-0.493 h -2.538 a 0.078,0.078 0 0 0 -0.089,0.089 v 3.563 a 0.079,0.079 0 0 0 0.089,0.091 h 2.575 a 2.108,2.108 0 0 0 1.484,-0.505"
     class="cls-5" />
  <path
     id="Rectangle_702"
     d="m 228.39,127.058 h 1 v 38 h -1 z"
     class="cls-3" />
  <path
     id="Path_10949"
     d="m 228.89,121.058 4,6 h -8 z"
     class="cls-3" />
  <path
     id="Path_10950"
     d="m 228.89,169.058 -4,-6 h 8 z"
     class="cls-3" />
  <path
     id="Rectangle_703"
     d="m 71.89,192.557 h 87 v 1 h -87 z"
     class="cls-3" />
  <path
     id="Rectangle_704"
     d="m 293.89,192.555 h 209 v 1 h -209 z"
     class="cls-3" />
  <path
     id="Path_10951"
     d="m 508.89,193.058 -6,4 v -8 z"
     class="cls-3" />
  <path
     id="Rectangle_705"
     d="m 638.89,192.557 h 85 v 1 h -85 z"
     class="cls-3" />
  <path
     id="Path_10952"
     d="m 727.89,193.058 -6,4 v -8 z"
     class="cls-3" />
  <path
     id="Path_10953"
     d="m 164.89,193.058 -6,4 v -8 z"
     class="cls-3" />
  <path
     id="Rectangle_706"
     d="m 572.39,127.058 h 1 v 38 h -1 z"
     class="cls-3" />
  <path
     id="Path_10954"
     d="m 572.89,121.058 4,6 h -8 z"
     class="cls-3" />
  <path
     id="Path_10955"
     d="m 572.89,169.058 -4,-6 h 8 z"
     class="cls-3" />
  <text
     xml:space="preserve"
     style="font-style:normal;font-variant:normal;font-weight:normal;font-stretch:normal;font-size:10.6667px;font-family:SimSun;-inkscape-font-specification:SimSun;text-align:center;text-anchor:middle;fill:#516baa;fill-opacity:1;fill-rule:nonzero;stroke:none;stroke-opacity:1"
     x="247.84534"
     y="328.61865"
     id="text2"><tspan
       sodipodi:role="line"
       id="tspan2"
       x="247.84534"
       y="328.61865"
       style="font-style:normal;font-variant:normal;font-weight:bold;font-stretch:normal;font-family:SimSun;-inkscape-font-specification:'SimSun Bold'"></tspan><tspan
       sodipodi:role="line"
       x="247.84534"
       y="343.03644"
       id="tspan3"
       style="font-style:normal;font-variant:normal;font-weight:bold;font-stretch:normal;font-family:SimSun;-inkscape-font-specification:'SimSun Bold'"></tspan><tspan
       sodipodi:role="line"
       x="247.84534"
       y="357.45419"
       id="tspan4"
       style="font-style:normal;font-variant:normal;font-weight:bold;font-stretch:normal;font-family:SimSun;-inkscape-font-specification:'SimSun Bold'"></tspan></text>
  <text
     xml:space="preserve"
     style="font-style:normal;font-variant:normal;font-weight:normal;font-stretch:normal;font-size:10.6667px;font-family:SimSun;-inkscape-font-specification:SimSun;text-align:center;text-anchor:middle;fill:#293655;fill-opacity:1;fill-rule:nonzero;stroke:none;stroke-opacity:1"
     x="222.48128"
     y="196.73691"
     id="text2-1"><tspan
       sodipodi:role="line"
       x="222.48128"
       y="196.73691"
       id="tspan4-8"
       style="font-style:normal;font-variant:normal;font-weight:bold;font-stretch:normal;font-family:SimSun;-inkscape-font-specification:'SimSun Bold';fill:#293655;fill-opacity:1"><tspan
   style="font-style:normal;font-variant:normal;font-weight:normal;font-stretch:normal;font-family:'Microsoft Sans Serif';-inkscape-font-specification:'Microsoft Sans Serif'"
   id="tspan6">Envoy</tspan> </tspan></text>
  <text
     xml:space="preserve"
     style="font-style:normal;font-variant:normal;font-weight:normal;font-stretch:normal;font-size:10.6667px;font-family:SimSun;-inkscape-font-specification:SimSun;text-align:center;text-anchor:middle;fill:#293655;fill-opacity:1;fill-rule:nonzero;stroke:none;stroke-opacity:1"
     x="570.94458"
     y="196.09633"
     id="text2-1-1"><tspan
       sodipodi:role="line"
       x="570.94458"
       y="196.09633"
       id="tspan4-8-0"
       style="font-style:normal;font-variant:normal;font-weight:bold;font-stretch:normal;font-family:SimSun;-inkscape-font-specification:'SimSun Bold';fill:#293655;fill-opacity:1"><tspan
   style="font-style:normal;font-variant:normal;font-weight:normal;font-stretch:normal;font-family:'Microsoft Sans Serif';-inkscape-font-specification:'Microsoft Sans Serif'"
   id="tspan6-2">Envoy</tspan> </tspan></text>
  <text
     xml:space="preserve"
     style="font-style:normal;font-variant:normal;font-weight:normal;font-stretch:normal;font-size:10.6667px;font-family:SimSun;-inkscape-font-specification:SimSun;text-align:center;text-anchor:middle;fill:#516baa;fill-opacity:1;fill-rule:nonzero;stroke:none;stroke-opacity:1"
     x="537.91718"
     y="329.60458"
     id="text2-6"><tspan
       sodipodi:role="line"
       id="tspan2-1"
       x="537.91718"
       y="329.60458"
       style="font-style:normal;font-variant:normal;font-weight:bold;font-stretch:normal;font-family:SimSun;-inkscape-font-specification:'SimSun Bold'"></tspan><tspan
       sodipodi:role="line"
       x="537.91718"
       y="344.02237"
       id="tspan3-2"
       style="font-style:normal;font-variant:normal;font-weight:bold;font-stretch:normal;font-family:SimSun;-inkscape-font-specification:'SimSun Bold'"></tspan><tspan
       sodipodi:role="line"
       x="537.91718"
       y="358.44012"
       id="tspan4-0"
       style="font-style:normal;font-variant:normal;font-weight:bold;font-stretch:normal;font-family:SimSun;-inkscape-font-specification:'SimSun Bold'"></tspan></text>
  <path
     style="fill:#5e85bf;fill-opacity:0.054902;fill-rule:nonzero;stroke:none;stroke-opacity:1"
     d="m 238.4089,358.86229 c 318.06356,0 317.23093,0.27754 317.23093,0.27754"
     id="path4" />
  <text
     xml:space="preserve"
     style="font-style:normal;font-variant:normal;font-weight:normal;font-stretch:normal;font-size:10.6667px;font-family:SimSun;-inkscape-font-specification:SimSun;text-align:center;text-anchor:middle;fill:#7dc6f2;fill-opacity:1;fill-rule:nonzero;stroke:none;stroke-opacity:1"
     x="241.12346"
     y="417.64743"
     id="text2-1-6"><tspan
       sodipodi:role="line"
       x="241.12346"
       y="417.64743"
       id="tspan4-8-5"
       style="font-style:normal;font-variant:normal;font-weight:bold;font-stretch:normal;font-family:SimSun;-inkscape-font-specification:'SimSun Bold';fill:#7dc6f2;fill-opacity:1"></tspan></text>
  <text
     xml:space="preserve"
     style="font-style:normal;font-variant:normal;font-weight:normal;font-stretch:normal;font-size:10.6667px;font-family:SimSun;-inkscape-font-specification:SimSun;text-align:center;text-anchor:middle;fill:#7dc6f2;fill-opacity:1;fill-rule:nonzero;stroke:none;stroke-opacity:1"
     x="557.85822"
     y="416.67062"
     id="text2-1-6-0"><tspan
       sodipodi:role="line"
       x="557.85822"
       y="416.67062"
       id="tspan4-8-5-1"
       style="font-style:normal;font-variant:normal;font-weight:bold;font-stretch:normal;font-family:SimSun;-inkscape-font-specification:'SimSun Bold';fill:#7dc6f2;fill-opacity:1"></tspan></text>
  <text
     xml:space="preserve"
     style="font-style:normal;font-variant:normal;font-weight:normal;font-stretch:normal;font-size:17.3333px;font-family:SimSun;-inkscape-font-specification:SimSun;text-align:center;text-anchor:middle;fill:#ffffff;fill-opacity:1;fill-rule:nonzero;stroke:none;stroke-opacity:1"
     x="401.0827"
     y="420.72784"
     id="text2-1-6-0-2"><tspan
       sodipodi:role="line"
       x="401.0827"
       y="420.72784"
       id="tspan4-8-5-1-9"
       style="font-style:normal;font-variant:normal;font-weight:bold;font-stretch:normal;font-size:17.3333px;font-family:SimSun;-inkscape-font-specification:'SimSun Bold';fill:#ffffff;fill-opacity:1"></tspan></text>
</svg>
