<svg xmlns="http://www.w3.org/2000/svg" id="Layer_1" data-name="Layer 1" viewBox="0 0 1503.96 425.2"><defs><style>.cls-1{fill:#0af}.cls-2{fill:#97cf26}.cls-3{fill:#ff6163}.cls-4{fill:#a169f7}</style></defs><title>avito</title><rect width="56.09" height="205.42" x="1011.31" y="157.74"/><polygon points="931.86 157.74 876.97 307.19 822.08 157.74 766.02 157.74 841.51 363.16 856.42 363.16 897.49 363.16 912.43 363.16 987.9 157.74 931.86 157.74"/><path d="M1376.32,289V243.78h-67.14V187.12h-56v56.66H1208.8V289h44.34v88.37c0,45.6,22.83,76,81,76,22.5,0,42.21-8.2,42.21-8.2l-6.79-44.38a96.43,96.43,0,0,1-24.61,3.27c-16.63,0-35.74-7.13-35.74-30.17V289Z" transform="translate(-110.97 -86.04)"/><path d="M835.26,449.2h59.67L784.4,148.32H741.14L630.61,449.2h59.68l21.08-57.41H814.11ZM728,346.45l34.79-94.57,34.74,94.57Z" transform="translate(-110.97 -86.04)"/><path d="M1504.87,238.52c-60.74,0-110,48.23-110,107.63s49.28,107.62,110,107.62,110.05-48.2,110.05-107.62-49.34-107.63-110.05-107.63m0,163.71c-31.22,0-56.56-24.78-56.56-55.32s25.34-55.35,56.56-55.35,56.56,24.79,56.56,55.35-25.28,55.32-56.56,55.32" transform="translate(-110.97 -86.04)"/><path d="M1186.5,183.61a36.15,36.15,0,1,1-36.13-36.13,36.14,36.14,0,0,1,36.13,36.13" transform="translate(-110.97 -86.04)"/><path d="M299.85,180.47A94.44,94.44,0,1,1,205.42,86a94.45,94.45,0,0,1,94.43,94.43" class="cls-1" transform="translate(-110.97 -86.04)"/><path d="M536.18,396.35a114.89,114.89,0,1,1-114.92-114.9,114.91,114.91,0,0,1,114.92,114.9" class="cls-2" transform="translate(-110.97 -86.04)"/><path d="M495.24,180.47a74,74,0,1,1-74-73.94,74,74,0,0,1,74,73.94" class="cls-3" transform="translate(-110.97 -86.04)"/><path d="M258.93,396.35a53.51,53.51,0,1,1-53.51-53.46,53.48,53.48,0,0,1,53.51,53.46" class="cls-4" transform="translate(-110.97 -86.04)"/></svg>