<svg xmlns="http://www.w3.org/2000/svg" xmlns:svg="http://www.w3.org/2000/svg" id="svg128" width="320" height="320" version="1.1" viewBox="0 0 320 320"><metadata id="metadata132"/><defs id="defs85"><clipPath id="clip-path"><path id="Rectangle_680" d="M0 0H51.629V64.741H0z" class="cls-1"/></clipPath><style id="style83">.cls-1{fill:#fff}.cls-4{fill:#7dc6f2}</style></defs><path id="Rectangle_724" fill="#516baa" d="M 0,0 H 320 V 320 H 0 Z"/><path id="Path_9883" d="M 186.098,76.362 V 64.305 c 0,-1.363 0.046,-2.746 0,-4.111 v -0.046 a 2.369,2.369 0 0 0 -1.7,-2.229 l -8.018,-2.777 q -6.318,-2.186 -12.632,-4.381 c -0.926,-0.327 -1.852,-0.692 -2.8,-0.972 -1,-0.3 -2.136,0.293 -3.054,0.61 l -12.1,4.188 q -4.73,1.643 -9.456,3.279 c -0.055,0.015 -0.1,0.038 -0.154,0.055 a 2.384,2.384 0 0 0 -1.7,2.228 v 14.3 c 0,3.008 -0.007,6.017 0,9.025 a 23.787,23.787 0 0 0 1.327,7.737 34.639,34.639 0 0 0 8.851,13.293 48.659,48.659 0 0 0 12.872,8.914 c 0.492,0.233 1,0.454 1.5,0.674 a 1.952,1.952 0 0 0 0.654,0.3 2.907,2.907 0 0 0 0.4,0.038 2,2 0 0 0 0.831,-0.061 2.347,2.347 0 0 0 0.6,-0.266 48.133,48.133 0 0 0 13.007,-8.311 35.989,35.989 0 0 0 9.411,-12.5 26.081,26.081 0 0 0 2.083,-8.061 c 0.124,-1.428 0.077,-2.87 0.077,-4.3 z m -4.769,9.658 a 23.461,23.461 0 0 1 -1.408,5.067 29.06,29.06 0 0 1 -2.7,4.86 c -0.276,0.409 -0.563,0.809 -0.863,1.2 l -0.025,0.032 c -0.055,0.054 -0.091,0.123 -0.139,0.176 -0.154,0.192 -0.308,0.385 -0.47,0.579 -0.636,0.772 -1.3,1.519 -2,2.245 a 43.936,43.936 0 0 1 -4.435,4.01 1.564,1.564 0 0 0 -0.265,0.211 l -0.553,0.414 c -0.4,0.294 -0.809,0.586 -1.218,0.864 -0.794,0.545 -1.612,1.071 -2.437,1.574 a 46.639,46.639 0 0 1 -4.493,2.382 47.063,47.063 0 0 1 -8.806,-5.29 c -0.078,-0.054 -0.409,-0.316 -0.085,-0.069 0.324,0.247 -0.006,-0.007 -0.084,-0.069 -0.2,-0.154 -0.393,-0.316 -0.586,-0.471 q -0.59,-0.474 -1.157,-0.972 -1.145,-1 -2.206,-2.059 c -0.71,-0.71 -1.389,-1.442 -2.044,-2.206 -0.3,-0.349 -0.592,-0.7 -0.876,-1.068 a 2.5,2.5 0 0 0 -0.2,-0.252 c -0.145,-0.2 -0.293,-0.393 -0.439,-0.594 a 29.457,29.457 0 0 1 -3.142,-5.509 23.341,23.341 0 0 1 -1.4,-5.035 34.719,34.719 0 0 1 -0.162,-4.055 V 61.828 l 6.259,-2.166 q 6.329,-2.2 12.658,-4.389 1.138,-0.391 2.272,-0.788 l 7.324,2.539 12.649,4.388 1.188,0.411 V 81.26 a 41.2,41.2 0 0 1 -0.156,4.76" class="cls-1"/><path id="Path_9884" d="m 173.982,70.507 a 2.35,2.35 0 0 0 -3.272,0 l -5.26,5.263 -8.322,8.323 -0.285,0.286 -5.826,-5.826 -1.063,-1.063 a 2.313,2.313 0 0 0 -3.271,3.271 l 7.459,7.459 1.064,1.064 a 2.342,2.342 0 0 0 3.271,0 l 5.265,-5.26 8.323,-8.323 1.921,-1.92 a 2.343,2.343 0 0 0 0,-3.272" class="cls-1"/><path id="Path_11576" d="m 184.029,265.893 h -48.164 a 10.937,10.937 0 0 1 -10.9,-10.9 v -48.171 a 10.937,10.937 0 0 1 10.9,-10.9 h 48.164 a 10.936,10.936 0 0 1 10.9,10.9 v 48.164 a 10.936,10.936 0 0 1 -10.9,10.9" class="cls-4"/><path id="Rectangle_681" d="m 246.493,131.396 h 1.817 v 46.298 h -1.817 z" class="cls-1"/><path id="Rectangle_682" d="m 72.973,131.206 h 175.283 v 1.817 H 72.973 Z" class="cls-1"/><path id="Path_9885" d="m 247.174,182.692 6.361,-9.542 h -12.722 z" class="cls-1"/><path id="Rectangle_683" d="m 159.253,131.396 h 1.817 v 46.298 h -1.817 z" class="cls-1"/><path id="Path_9886" d="m 159.934,182.692 6.361,-9.542 h -12.722 z" class="cls-1"/><path id="Rectangle_684" d="m 72.922,131.396 h 1.817 v 46.298 h -1.817 z" class="cls-1"/><path id="Path_9887" d="m 73.603,182.692 6.361,-9.542 H 67.242 Z" class="cls-1"/><path id="Path_9888" d="m 146.085,230.771 -5.631,-3.754 v 3.083 h -6.72 v 1.071 h 6.721 v 3.352 z" class="cls-1"/><path id="Path_9889" d="m 185.77,230.771 -5.631,-3.754 v 3.083 h -6.721 v 1.071 h 6.721 v 3.352 z" class="cls-1"/><path id="Path_9890" d="m 173.904,224.693 4.752,-4.752 2.37,2.37 1.328,-6.637 -6.637,1.328 2.181,2.181 -4.753,4.751 z" class="cls-1"/><path id="Path_9891" d="m 178.845,241.403 -4.747,-4.75 -0.758,0.757 4.752,4.753 -2.37,2.37 6.636,1.327 -1.328,-6.636 z" class="cls-1"/><path id="Path_9892" d="m 153.324,222.876 a 9.946,9.946 0 0 0 -1.762,13.955 l -7.447,7.459 a 0.888,0.888 0 0 0 0.093,1.155 l 0.5,0.5 a 0.888,0.888 0 0 0 1.258,0 l 7.353,-7.353 a 9.945,9.945 0 1 0 0.011,-15.709 m 13.537,8.347 a 7.5,7.5 0 0 1 -6.964,6.962 7.6,7.6 0 0 1 -0.976,0 7.465,7.465 0 0 1 -6.961,-7.938 v -0.087 a 7.4689351,7.4689351 0 0 1 14.9,1.063" class="cls-1"/><path id="Path_9893" d="m 159.475,229.575 a 1.072,1.072 0 1 0 1.073,1.073 1.073,1.073 0 0 0 -1.073,-1.073" class="cls-1"/><path id="Path_9894" d="m 155.721,229.575 a 1.072,1.072 0 1 0 1.073,1.073 1.073,1.073 0 0 0 -1.073,-1.073" class="cls-1"/><path id="Path_9895" d="m 163.229,229.575 a 1.072,1.072 0 1 0 1.073,1.073 1.073,1.073 0 0 0 -1.073,-1.073" class="cls-1"/><path id="Path_9896" d="m 271.029,265.893 h -48.164 a 10.937,10.937 0 0 1 -10.9,-10.9 v -48.171 a 10.937,10.937 0 0 1 10.9,-10.9 h 48.164 a 10.936,10.936 0 0 1 10.9,10.9 v 48.164 a 10.936,10.936 0 0 1 -10.9,10.9" class="cls-4"/><path id="Path_9897" d="m 232.47,230.771 -5.631,-3.754 v 3.083 h -6.721 v 1.071 h 6.721 v 3.352 z" class="cls-1"/><path id="Path_9898" d="m 272.155,230.771 -5.631,-3.754 v 3.083 h -6.721 v 1.071 h 6.721 v 3.352 z" class="cls-1"/><path id="Path_9899" d="m 260.288,224.693 4.752,-4.752 2.371,2.37 1.327,-6.637 -6.637,1.328 2.181,2.181 -4.752,4.751 z" class="cls-1"/><path id="Path_9900" d="m 265.23,241.403 -4.752,-4.752 -0.758,0.757 4.752,4.753 -2.37,2.37 6.636,1.327 -1.328,-6.636 z" class="cls-1"/><path id="Path_9901" d="m 239.71,222.876 a 9.945,9.945 0 0 0 -1.763,13.955 l -7.446,7.459 a 0.889,0.889 0 0 0 0.093,1.155 l 0.5,0.5 a 0.888,0.888 0 0 0 1.258,0 l 7.353,-7.353 a 9.946,9.946 0 1 0 0.012,-15.709 m 13.536,8.347 a 7.5,7.5 0 0 1 -6.964,6.962 7.6,7.6 0 0 1 -0.976,0 7.465,7.465 0 0 1 -6.961,-7.938 v -0.087 a 7.4689351,7.4689351 0 0 1 14.9,1.063" class="cls-1"/><path id="Path_9902" d="m 245.861,229.575 a 1.072,1.072 0 1 0 1.072,1.073 1.073,1.073 0 0 0 -1.072,-1.073" class="cls-1"/><path id="Path_9903" d="m 242.107,229.575 a 1.072,1.072 0 1 0 1.072,1.073 1.073,1.073 0 0 0 -1.072,-1.073" class="cls-1"/><path id="Path_9904" d="m 249.614,229.575 a 1.072,1.072 0 1 0 1.072,1.073 1.073,1.073 0 0 0 -1.072,-1.073" class="cls-1"/><path id="Path_9905" d="M 97.352,265.893 H 49.188 a 10.936,10.936 0 0 1 -10.905,-10.9 v -48.171 a 10.936,10.936 0 0 1 10.905,-10.9 h 48.164 a 10.937,10.937 0 0 1 10.9,10.9 v 48.164 a 10.937,10.937 0 0 1 -10.9,10.9" class="cls-4"/><path id="Path_9906" d="m 58.793,230.771 -5.631,-3.754 V 230.1 H 46.44 v 1.071 h 6.721 v 3.352 z" class="cls-1"/><path id="Path_9907" d="m 98.478,230.771 -5.631,-3.754 v 3.083 h -6.721 v 1.071 h 6.721 v 3.352 z" class="cls-1"/><path id="Path_9908" d="m 86.61,224.693 4.752,-4.752 2.37,2.37 1.328,-6.637 -6.637,1.328 2.181,2.181 -4.753,4.751 z" class="cls-1"/><path id="Path_9909" d="m 91.552,241.403 -4.752,-4.752 -0.758,0.757 4.751,4.753 -2.369,2.37 6.636,1.327 -1.328,-6.636 z" class="cls-1"/><path id="Path_9910" d="m 66.029,222.876 a 9.947,9.947 0 0 0 -1.762,13.955 l -7.446,7.459 a 0.888,0.888 0 0 0 0.093,1.155 l 0.5,0.5 a 0.889,0.889 0 0 0 1.259,0 l 7.353,-7.353 a 9.945,9.945 0 1 0 0.01,-15.709 m 13.537,8.347 a 7.5,7.5 0 0 1 -6.963,6.962 7.611,7.611 0 0 1 -0.977,0 7.465,7.465 0 0 1 -6.96,-7.938 v -0.087 a 7.4689351,7.4689351 0 0 1 14.9,1.063" class="cls-1"/><path id="Path_9911" d="m 72.181,229.575 a 1.072,1.072 0 1 0 1.073,1.073 1.073,1.073 0 0 0 -1.073,-1.073" class="cls-1"/><path id="Path_9912" d="m 68.428,229.575 a 1.072,1.072 0 1 0 1.073,1.073 1.074,1.074 0 0 0 -1.073,-1.073" class="cls-1"/><path id="Path_9913" d="m 75.936,229.575 a 1.072,1.072 0 1 0 1.073,1.073 1.073,1.073 0 0 0 -1.073,-1.073" class="cls-1"/></svg>