<svg xmlns="http://www.w3.org/2000/svg" width="320" height="320" viewBox="0 0 320 320">
    <defs>
        <clipPath id="clip-path">
            <path id="Rectangle_680" d="M0 0H51.629V64.741H0z" class="cls-1"/>
        </clipPath>
        <style>
            .cls-1{fill:#fff}.cls-4{fill:#7dc6f2}
        </style>
    </defs>
    <g id="Group_8189" transform="translate(6465 -2117)">
        <path id="Rectangle_724" fill="#516baa" d="M0 0H320V320H0z" transform="translate(-6465 2117)"/>
        <g id="Group_8090" transform="translate(-6330.509 2166.705)">
            <g id="Group_8089" clip-path="url(#clip-path)">
                <path id="Path_9883" d="M183.2 65.287V53.23c0-1.363.046-2.746 0-4.111v-.046a2.369 2.369 0 0 0-1.7-2.229l-8.018-2.777q-6.318-2.186-12.632-4.381c-.926-.327-1.852-.692-2.8-.972-1-.3-2.136.293-3.054.61l-12.1 4.188q-4.73 1.643-9.456 3.279c-.055.015-.1.038-.154.055a2.384 2.384 0 0 0-1.7 2.228v14.3c0 3.008-.007 6.017 0 9.025a23.787 23.787 0 0 0 1.327 7.737 34.639 34.639 0 0 0 8.851 13.293 48.659 48.659 0 0 0 12.872 8.914c.492.233 1 .454 1.5.674a1.952 1.952 0 0 0 .654.3 2.907 2.907 0 0 0 .4.038 2 2 0 0 0 .831-.061 2.347 2.347 0 0 0 .6-.266 48.133 48.133 0 0 0 13.007-8.311 35.989 35.989 0 0 0 9.411-12.5 26.081 26.081 0 0 0 2.083-8.061c.124-1.428.077-2.87.077-4.3zm-4.769 9.658a23.461 23.461 0 0 1-1.408 5.067 29.06 29.06 0 0 1-2.7 4.86c-.276.409-.563.809-.863 1.2l-.025.032c-.055.054-.091.123-.139.176-.154.192-.308.385-.47.579-.636.772-1.3 1.519-2 2.245a43.936 43.936 0 0 1-4.435 4.01 1.564 1.564 0 0 0-.265.211l-.553.414c-.4.294-.809.586-1.218.864-.794.545-1.612 1.071-2.437 1.574a46.639 46.639 0 0 1-4.493 2.382 47.063 47.063 0 0 1-8.806-5.29c-.078-.054-.409-.316-.085-.069s-.006-.007-.084-.069c-.2-.154-.393-.316-.586-.471q-.59-.474-1.157-.972-1.145-1-2.206-2.059c-.71-.71-1.389-1.442-2.044-2.206-.3-.349-.592-.7-.876-1.068a2.5 2.5 0 0 0-.2-.252c-.145-.2-.293-.393-.439-.594A29.457 29.457 0 0 1 137.8 80a23.341 23.341 0 0 1-1.4-5.035 34.719 34.719 0 0 1-.162-4.055V50.753l6.259-2.166q6.329-2.2 12.658-4.389 1.138-.391 2.272-.788l7.324 2.539 12.649 4.388 1.188.411v19.437a41.2 41.2 0 0 1-.156 4.76" class="cls-1" transform="translate(-131.593 -38.63)"/>
                <path id="Path_9884" d="M172.24 61.454a2.35 2.35 0 0 0-3.272 0l-5.26 5.263-8.322 8.323-.285.286-5.826-5.826-1.063-1.063a2.313 2.313 0 0 0-3.271 3.271l7.459 7.459 1.064 1.064a2.342 2.342 0 0 0 3.271 0l5.265-5.26 8.323-8.323 1.921-1.92a2.343 2.343 0 0 0 0-3.272" class="cls-1" transform="translate(-132.749 -40.652)"/>
            </g>
        </g>
        <g id="Group_8188" transform="translate(-6450.094 2131.6)">
            <path id="Path_11576" d="M275.91 269.5h-48.164a10.937 10.937 0 0 1-10.9-10.9v-48.171a10.937 10.937 0 0 1 10.9-10.9h48.164a10.936 10.936 0 0 1 10.9 10.9v48.164a10.936 10.936 0 0 1-10.9 10.9" class="cls-4" transform="translate(-106.787 -18.207)"/>
            <path id="Rectangle_681" d="M0 0H1.817V46.298H0z" class="cls-1" transform="translate(231.587 116.796)"/>
            <path id="Rectangle_682" d="M0 0H175.283V1.817H0z" class="cls-1" transform="translate(58.067 116.606)"/>
            <path id="Path_9885" d="M254.952 184.013l6.361-9.542h-12.722z" class="cls-1" transform="translate(-22.684 -15.921)"/>
            <path id="Rectangle_683" d="M0 0H1.817V46.298H0z" class="cls-1" transform="translate(144.347 116.796)"/>
            <path id="Path_9886" d="M158.952 184.013l6.361-9.542h-12.722z" class="cls-1" transform="translate(-13.924 -15.921)"/>
            <path id="Rectangle_684" d="M0 0H1.817V46.298H0z" class="cls-1" transform="translate(58.016 116.796)"/>
            <path id="Path_9887" d="M63.952 184.013l6.361-9.542H57.591z" class="cls-1" transform="translate(-5.255 -15.921)"/>
            <path id="Path_9888" d="M143.111 237.5l-5.631-3.754v3.083h-6.72v1.071h6.721v3.352z" class="cls-1" transform="translate(-11.932 -21.329)"/>
            <path id="Path_9889" d="M186.781 237.5l-5.631-3.754v3.083h-6.721v1.071h6.721v3.352z" class="cls-1" transform="translate(-15.917 -21.329)"/>
            <path id="Path_9890" d="M174.887 230.283l4.752-4.752 2.37 2.37 1.328-6.637-6.637 1.328 2.181 2.181-4.753 4.751z" class="cls-1" transform="translate(-15.889 -20.19)"/>
            <path id="Path_9891" d="M179.847 249.1l-4.747-4.75-.758.757 4.752 4.753-2.37 2.37 6.636 1.327-1.328-6.636z" class="cls-1" transform="translate(-15.908 -22.297)"/>
            <path id="Path_9892" d="M151.375 228.98a9.946 9.946 0 0 0-1.762 13.955l-7.447 7.459a.888.888 0 0 0 .093 1.155l.5.5a.888.888 0 0 0 1.258 0l7.353-7.353a9.945 9.945 0 1 0 .011-15.709m13.537 8.347a7.5 7.5 0 0 1-6.964 6.962 7.6 7.6 0 0 1-.976 0 7.465 7.465 0 0 1-6.961-7.938v-.087a7.467 7.467 0 0 1 14.9 1.063" class="cls-1" transform="translate(-12.957 -20.704)"/>
            <path id="Path_9893" d="M158.978 236.561a1.072 1.072 0 1 0 1.073 1.073 1.073 1.073 0 0 0-1.073-1.073" class="cls-1" transform="translate(-14.409 -21.586)"/>
            <path id="Path_9894" d="M154.847 236.561a1.072 1.072 0 1 0 1.073 1.073 1.073 1.073 0 0 0-1.073-1.073" class="cls-1" transform="translate(-14.032 -21.586)"/>
            <path id="Path_9895" d="M163.109 236.561a1.072 1.072 0 1 0 1.073 1.073 1.073 1.073 0 0 0-1.073-1.073" class="cls-1" transform="translate(-14.786 -21.586)"/>
            <path id="Path_9896" d="M275.91 269.5h-48.164a10.937 10.937 0 0 1-10.9-10.9v-48.171a10.937 10.937 0 0 1 10.9-10.9h48.164a10.936 10.936 0 0 1 10.9 10.9v48.164a10.936 10.936 0 0 1-10.9 10.9" class="cls-4" transform="translate(-19.787 -18.207)"/>
            <path id="Path_9897" d="M238.17 237.5l-5.631-3.754v3.083h-6.721v1.071h6.721v3.352z" class="cls-1" transform="translate(-20.606 -21.329)"/>
            <path id="Path_9898" d="M281.84 237.5l-5.631-3.754v3.083h-6.721v1.071h6.721v3.352z" class="cls-1" transform="translate(-24.591 -21.329)"/>
            <path id="Path_9899" d="M269.945 230.283l4.752-4.752 2.371 2.37 1.327-6.637-6.637 1.328 2.181 2.181-4.752 4.751z" class="cls-1" transform="translate(-24.563 -20.19)"/>
            <path id="Path_9900" d="M274.906 249.1l-4.752-4.752-.758.757 4.752 4.753-2.37 2.37 6.636 1.327-1.328-6.636z" class="cls-1" transform="translate(-24.582 -22.297)"/>
            <path id="Path_9901" d="M246.435 228.98a9.945 9.945 0 0 0-1.763 13.955l-7.446 7.459a.889.889 0 0 0 .093 1.155l.5.5a.888.888 0 0 0 1.258 0l7.353-7.353a9.946 9.946 0 1 0 .012-15.709m13.536 8.347a7.5 7.5 0 0 1-6.964 6.962 7.6 7.6 0 0 1-.976 0 7.465 7.465 0 0 1-6.961-7.938v-.087a7.467 7.467 0 0 1 14.9 1.063" class="cls-1" transform="translate(-21.631 -20.704)"/>
            <path id="Path_9902" d="M254.038 236.561a1.072 1.072 0 1 0 1.072 1.073 1.073 1.073 0 0 0-1.072-1.073" class="cls-1" transform="translate(-23.083 -21.586)"/>
            <path id="Path_9903" d="M249.907 236.561a1.072 1.072 0 1 0 1.072 1.073 1.073 1.073 0 0 0-1.072-1.073" class="cls-1" transform="translate(-22.706 -21.586)"/>
            <path id="Path_9904" d="M258.168 236.561a1.072 1.072 0 1 0 1.072 1.073 1.073 1.073 0 0 0-1.072-1.073" class="cls-1" transform="translate(-23.46 -21.586)"/>
            <path id="Path_9905" d="M84.793 269.5H36.629a10.936 10.936 0 0 1-10.905-10.9v-48.171a10.936 10.936 0 0 1 10.905-10.9h48.164a10.937 10.937 0 0 1 10.9 10.9v48.164a10.937 10.937 0 0 1-10.9 10.9" class="cls-4" transform="translate(-2.347 -18.207)"/>
            <path id="Path_9906" d="M47.053 237.5l-5.631-3.754v3.083H34.7v1.071h6.721v3.352z" class="cls-1" transform="translate(-3.166 -21.329)"/>
            <path id="Path_9907" d="M90.723 237.5l-5.631-3.754v3.083h-6.721v1.071h6.721v3.352z" class="cls-1" transform="translate(-7.151 -21.329)"/>
            <path id="Path_9908" d="M78.828 230.283l4.752-4.752 2.37 2.37 1.328-6.637-6.637 1.328 2.181 2.181-4.753 4.751z" class="cls-1" transform="translate(-7.124 -20.19)"/>
            <path id="Path_9909" d="M83.789 249.1l-4.752-4.752-.758.757 4.751 4.753-2.369 2.37 6.636 1.327-1.328-6.636z" class="cls-1" transform="translate(-7.143 -22.297)"/>
            <path id="Path_9910" d="M55.315 228.98a9.947 9.947 0 0 0-1.762 13.955l-7.446 7.459a.888.888 0 0 0 .093 1.155l.5.5a.889.889 0 0 0 1.259 0l7.353-7.353a9.945 9.945 0 1 0 .01-15.709m13.537 8.347a7.5 7.5 0 0 1-6.963 6.962 7.611 7.611 0 0 1-.977 0 7.465 7.465 0 0 1-6.96-7.938v-.087a7.467 7.467 0 0 1 14.9 1.063" class="cls-1" transform="translate(-4.192 -20.704)"/>
            <path id="Path_9911" d="M62.919 236.561a1.072 1.072 0 1 0 1.073 1.073 1.073 1.073 0 0 0-1.073-1.073" class="cls-1" transform="translate(-5.644 -21.586)"/>
            <path id="Path_9912" d="M58.788 236.561a1.072 1.072 0 1 0 1.073 1.073 1.074 1.074 0 0 0-1.073-1.073" class="cls-1" transform="translate(-5.266 -21.586)"/>
            <path id="Path_9913" d="M67.05 236.561a1.072 1.072 0 1 0 1.073 1.073 1.073 1.073 0 0 0-1.073-1.073" class="cls-1" transform="translate(-6.02 -21.586)"/>
        </g>
    </g>
</svg>
