<svg xmlns="http://www.w3.org/2000/svg" viewBox="0 0 24 24">
<path d="M5.7 3.056c-.088.029-.637.29-1.22.582-.777.39-1.099.572-1.205.683A1.085 1.085 0 0 0 3 5c0 .406.293.811.678.939.296.099.529.066.944-.133.19-.091.353-.166.362-.166.009 0 .016.756.016 1.68V9h-.554c-.798 0-1.079.11-1.318.516-.091.156-.108.23-.108.484 0 .256.016.328.111.489.125.213.318.375.539.454.219.078 4.441.078 4.66 0 .221-.079.414-.241.539-.454.095-.161.111-.233.111-.489 0-.254-.017-.328-.108-.484C8.633 9.11 8.352 9 7.554 9H7V6.427c0-2.904.008-2.821-.299-3.128A.971.971 0 0 0 5.7 3.056m5.995 2.001a1.04 1.04 0 0 0-.567.459c-.091.156-.108.23-.108.484 0 .256.016.328.111.489.125.213.318.375.539.454.222.079 8.438.079 8.66 0 .221-.079.414-.241.539-.454.095-.161.111-.233.111-.489 0-.254-.017-.328-.108-.484a1.02 1.02 0 0 0-.582-.461c-.261-.079-8.344-.076-8.595.002m0 6a1.04 1.04 0 0 0-.567.459c-.091.156-.108.23-.108.484 0 .256.016.328.111.489.125.213.318.375.539.454.222.079 8.438.079 8.66 0 .221-.079.414-.241.539-.454.095-.161.111-.233.111-.489 0-.254-.017-.328-.108-.484a1.02 1.02 0 0 0-.582-.461c-.261-.079-8.344-.076-8.595.002m-6.343 2.022c-1.075.227-1.969 1.082-2.259 2.162a2.86 2.86 0 0 0-.071.662c-.002.38.005.414.119.6.397.645 1.316.653 1.709.015.084-.136.121-.265.15-.514.042-.376.158-.617.374-.782.864-.659 1.993.289 1.495 1.255-.08.156-.321.352-1.85 1.505-1.928 1.454-1.963 1.487-2.006 1.907a.984.984 0 0 0 .285.811c.309.309.213.3 3.219.298 2.12-.001 2.694-.012 2.813-.055.221-.079.414-.241.539-.454.095-.161.111-.233.111-.489 0-.254-.017-.328-.108-.484a1.209 1.209 0 0 0-.254-.295c-.262-.2-.414-.221-1.571-.221H6.986l.457-.342c.544-.406.865-.711 1.064-1.012a3.027 3.027 0 0 0 .411-2.325c-.387-1.616-1.932-2.587-3.566-2.242m6.343 3.978a1.04 1.04 0 0 0-.567.459c-.091.156-.108.23-.108.484 0 .256.016.328.111.489.125.213.318.375.539.454.222.079 8.438.079 8.66 0 .221-.079.414-.241.539-.454.095-.161.111-.233.111-.489 0-.254-.017-.328-.108-.484a1.02 1.02 0 0 0-.582-.461c-.261-.079-8.344-.076-8.595.002"/>
</svg>