<svg xmlns="http://www.w3.org/2000/svg" width="320" height="320" viewBox="0 0 320 320">
    <defs>
        <style>
            .cls-2{fill:#7dc6f2}.cls-3{fill:#fff}
        </style>
    </defs>
    <g id="Group_8190" transform="translate(6120 -2117)">
        <path id="Rectangle_725" fill="#516baa" d="M0 0H320V320H0z" transform="translate(-6120 2117)"/>
        <path id="Path_11347" d="M71.686 225.429v47.9a10.937 10.937 0 0 1-10.905 10.9H45.688a10.937 10.937 0 0 1-10.905-10.9v-47.9a10.937 10.937 0 0 1 10.905-10.9h15.093a10.937 10.937 0 0 1 10.905 10.9" class="cls-2" transform="translate(-6108.574 2112.025)"/>
        <path id="Path_11348" d="M125.186 194.43v76.07a10.937 10.937 0 0 1-10.905 10.9H99.188a10.937 10.937 0 0 1-10.9-10.9v-76.07a10.937 10.937 0 0 1 10.9-10.9h15.093a10.937 10.937 0 0 1 10.905 10.9" class="cls-2" transform="translate(-6113.456 2114.854)"/>
        <path id="Path_11349" d="M178.686 161.43v106.059a10.936 10.936 0 0 1-10.905 10.9h-15.093a10.936 10.936 0 0 1-10.9-10.9V161.43a10.936 10.936 0 0 1 10.9-10.905h15.093a10.936 10.936 0 0 1 10.905 10.905" class="cls-2" transform="translate(-6118.337 2117.865)"/>
        <path id="Path_11350" d="M232.186 128.43v136.049a10.936 10.936 0 0 1-10.9 10.9h-15.098a10.937 10.937 0 0 1-10.9-10.9V128.43a10.936 10.936 0 0 1 10.9-10.9h15.093a10.936 10.936 0 0 1 10.9 10.9" class="cls-2" transform="translate(-6123.219 2120.876)"/>
        <path id="Path_11351" d="M285.686 99.429v162.4a10.936 10.936 0 0 1-10.9 10.9h-15.098a10.936 10.936 0 0 1-10.9-10.9v-162.4a10.937 10.937 0 0 1 10.9-10.9h15.093a10.936 10.936 0 0 1 10.9 10.9" class="cls-2" transform="translate(-6128.102 2123.522)"/>
        <path id="Path_11352" d="M56.505 64.97l-12.183-8.121v6.671h-14.54v2.321h14.54v7.252z" class="cls-3" transform="translate(-6108.118 2126.413)"/>
        <path id="Path_11353" d="M150.985 64.97L138.8 56.849v6.671h-14.54v2.321h14.54v7.252z" class="cls-3" transform="translate(-6116.739 2126.413)"/>
        <path id="Path_11354" d="M125.25 49.365l10.281-10.281 5.129 5.128 2.871-14.358-14.357 2.872 4.717 4.718-10.281 10.28z" class="cls-3" transform="translate(-6116.679 2128.876)"/>
        <path id="Path_11355" d="M135.983 90.078L125.7 79.8l-1.64 1.64 10.281 10.282-5.127 5.127 14.357 2.871-2.871-14.36z" class="cls-3" transform="translate(-6116.721 2124.319)"/>
        <path id="Path_11356" d="M74.382 46.546a21.519 21.519 0 0 0-3.813 30.19l-16.11 16.138a1.92 1.92 0 0 0 .2 2.5l1.073 1.071a1.924 1.924 0 0 0 2.721 0l15.906-15.914a21.517 21.517 0 1 0 .023-33.985m29.286 18.059A16.218 16.218 0 0 1 88.6 79.668a17.433 17.433 0 0 1-2.113 0 16.152 16.152 0 0 1-15.056-17.176c0-.064.006-.125.011-.187a16.154 16.154 0 0 1 32.226 2.3" class="cls-3" transform="translate(-6110.335 2127.765)"/>
        <path id="Path_11357" d="M90.833 62.947a2.32 2.32 0 1 0 2.321 2.321 2.322 2.322 0 0 0-2.321-2.321" class="cls-3" transform="translate(-6113.477 2125.856)"/>
        <path id="Path_11358" d="M81.9 62.947a2.32 2.32 0 1 0 2.321 2.321 2.321 2.321 0 0 0-2.321-2.321" class="cls-3" transform="translate(-6112.661 2125.856)"/>
        <path id="Path_11359" d="M99.771 62.947a2.32 2.32 0 1 0 2.321 2.321 2.322 2.322 0 0 0-2.321-2.321" class="cls-3" transform="translate(-6114.292 2125.856)"/>
        <path id="Rectangle_714" d="M0 0H52.053V1.817H0z" class="cls-3" transform="rotate(-44.27 -197.247 8604.143)"/>
        <path id="Rectangle_715" d="M0 0H40.529V1.817H0z" class="cls-3" transform="rotate(-19.641 3543.013 18535.51)"/>
        <path id="Rectangle_716" d="M0 0H41.19V1.817H0z" class="cls-3" transform="rotate(-24.283 2248.789 15029.323)"/>
        <path id="Rectangle_717" d="M0 0H40.528V1.818H0z" class="cls-3" transform="rotate(-32.86 822.55 11185.775)"/>
        <path id="Rectangle_718" d="M0 0H40.528V1.816H0z" class="cls-3" transform="rotate(-24.283 2189.853 14831.053)"/>
        <path id="Path_11360" d="M93.052 152.159a3.635 3.635 0 1 0-3.635 3.635 3.635 3.635 0 0 0 3.635-3.635" class="cls-3" transform="translate(-6113.228 2118.047)"/>
        <path id="Path_11361" d="M55.052 189.159a3.635 3.635 0 1 0-3.635 3.635 3.635 3.635 0 0 0 3.635-3.635" class="cls-3" transform="translate(-6109.76 2114.671)"/>
        <path id="Path_11362" d="M136.052 137.159a3.635 3.635 0 1 0-3.635 3.635 3.635 3.635 0 0 0 3.635-3.635" class="cls-3" transform="translate(-6117.151 2119.416)"/>
        <path id="Path_11363" d="M181.052 116.159a3.635 3.635 0 1 0-3.635 3.635 3.635 3.635 0 0 0 3.635-3.635" class="cls-3" transform="translate(-6121.257 2121.332)"/>
        <path id="Path_11364" d="M223.052 90.159a3.635 3.635 0 1 0-3.635 3.635 3.635 3.635 0 0 0 3.635-3.635" class="cls-3" transform="translate(-6125.09 2123.705)"/>
        <path id="Path_11365" d="M266.052 70.159a3.635 3.635 0 1 0-3.635 3.635 3.635 3.635 0 0 0 3.635-3.635" class="cls-3" transform="translate(-6129.014 2125.53)"/>
    </g>
</svg>
