<svg xmlns="http://www.w3.org/2000/svg" xmlns:svg="http://www.w3.org/2000/svg" id="svg413" width="320" height="320" version="1.1" viewBox="0 0 320 320"><metadata id="metadata417"/><defs id="defs385"><style id="style383">.cls-2{fill:#7dc6f2}.cls-3{fill:#fff}</style></defs><path id="Rectangle_725" fill="#516baa" d="M 0,0 H 320 V 320 H 0 Z"/><path id="Path_11347" d="m 83.112,220.454 v 47.9 a 10.937,10.937 0 0 1 -10.905,10.9 H 57.114 a 10.937,10.937 0 0 1 -10.905,-10.9 v -47.9 a 10.937,10.937 0 0 1 10.905,-10.9 h 15.093 a 10.937,10.937 0 0 1 10.905,10.9" class="cls-2"/><path id="Path_11348" d="m 131.73,192.284 v 76.07 a 10.937,10.937 0 0 1 -10.905,10.9 h -15.093 a 10.937,10.937 0 0 1 -10.9,-10.9 v -76.07 a 10.937,10.937 0 0 1 10.9,-10.9 h 15.093 a 10.937,10.937 0 0 1 10.905,10.9" class="cls-2"/><path id="Path_11349" d="m 180.349,162.295 v 106.059 a 10.936,10.936 0 0 1 -10.905,10.9 h -15.093 a 10.936,10.936 0 0 1 -10.9,-10.9 V 162.295 a 10.936,10.936 0 0 1 10.9,-10.905 h 15.093 a 10.936,10.936 0 0 1 10.905,10.905" class="cls-2"/><path id="Path_11350" d="m 228.967,132.306 v 136.049 a 10.936,10.936 0 0 1 -10.9,10.9 h -15.098 a 10.937,10.937 0 0 1 -10.9,-10.9 V 132.306 a 10.936,10.936 0 0 1 10.9,-10.9 h 15.093 a 10.936,10.936 0 0 1 10.9,10.9" class="cls-2"/><path id="Path_11351" d="m 277.584,105.951 v 162.4 a 10.936,10.936 0 0 1 -10.9,10.9 h -15.098 a 10.936,10.936 0 0 1 -10.9,-10.9 v -162.4 a 10.937,10.937 0 0 1 10.9,-10.9 h 15.093 a 10.936,10.936 0 0 1 10.9,10.9" class="cls-2"/><path id="Path_11352" d="M 68.387,74.383 56.204,66.262 v 6.671 h -14.54 v 2.321 h 14.54 v 7.252 z" class="cls-3"/><path id="Path_11353" d="m 154.246,74.383 -12.185,-8.121 v 6.671 h -14.54 v 2.321 h 14.54 v 7.252 z" class="cls-3"/><path id="Path_11354" d="m 128.571,61.241 10.281,-10.281 5.129,5.128 2.871,-14.358 -14.357,2.872 4.717,4.718 -10.281,10.28 z" class="cls-3"/><path id="Path_11355" d="m 139.262,97.397 -10.283,-10.278 -1.64,1.64 10.281,10.282 -5.127,5.127 14.357,2.871 -2.871,-14.36 z" class="cls-3"/><path id="Path_11356" d="m 84.047,57.311 a 21.519,21.519 0 0 0 -3.813,30.19 l -16.11,16.138 a 1.92,1.92 0 0 0 0.2,2.5 l 1.073,1.071 a 1.924,1.924 0 0 0 2.721,0 L 84.024,91.296 a 21.517,21.517 0 1 0 0.023,-33.985 m 29.286,18.059 a 16.218,16.218 0 0 1 -15.068,15.063 17.433,17.433 0 0 1 -2.113,0 16.152,16.152 0 0 1 -15.056,-17.176 c 0,-0.064 0.006,-0.125 0.011,-0.187 a 16.154,16.154 0 0 1 32.226,2.3" class="cls-3"/><path id="Path_11357" d="m 97.356,71.803 a 2.32,2.32 0 1 0 2.321,2.321 2.322,2.322 0 0 0 -2.321,-2.321" class="cls-3"/><path id="Path_11358" d="m 89.239,71.803 a 2.32,2.32 0 1 0 2.321,2.321 2.321,2.321 0 0 0 -2.321,-2.321" class="cls-3"/><path id="Path_11359" d="m 105.479,71.803 a 2.32,2.32 0 1 0 2.321,2.321 2.322,2.322 0 0 0 -2.321,-2.321" class="cls-3"/><path id="Rectangle_714" d="m 57.953471,188.38839 37.272984,-36.3351 1.268339,1.30108 -37.272984,36.3351 z" class="cls-3"/><path id="Rectangle_715" d="m 95.883,152.34587 38.17091,-13.62284 0.61074,1.71128 -38.17091,13.62284 z" class="cls-3"/><path id="Rectangle_716" d="m 138.24312,137.51512 37.54573,-16.93914 0.74723,1.65624 -37.54573,16.93914 z" class="cls-3"/><path id="Rectangle_717" d="m 182.33994,119.04256 34.04348,-21.990016 0.98642,1.527118 -34.04347,21.990008 z" class="cls-3"/><path id="Rectangle_718" d="m 214.56611,95.736176 36.9423,-16.666893 0.74682,1.65533 -36.9423,16.666893 z" class="cls-3"/><path id="Path_11360" d="m 99.824,153.206 a 3.635,3.635 0 1 0 -3.635,3.635 3.635,3.635 0 0 0 3.635,-3.635" class="cls-3"/><path id="Path_11361" d="m 65.292,186.83 a 3.635,3.635 0 1 0 -3.635,3.635 3.635,3.635 0 0 0 3.635,-3.635" class="cls-3"/><path id="Path_11362" d="m 138.901,139.575 a 3.635,3.635 0 1 0 -3.635,3.635 3.635,3.635 0 0 0 3.635,-3.635" class="cls-3"/><path id="Path_11363" d="m 179.795,120.491 a 3.635,3.635 0 1 0 -3.635,3.635 3.635,3.635 0 0 0 3.635,-3.635" class="cls-3"/><path id="Path_11364" d="m 217.962,96.864 a 3.635,3.635 0 1 0 -3.635,3.635 3.635,3.635 0 0 0 3.635,-3.635" class="cls-3"/><path id="Path_11365" d="m 257.038,78.689 a 3.635,3.635 0 1 0 -3.635,3.635 3.635,3.635 0 0 0 3.635,-3.635" class="cls-3"/></svg>