<svg xmlns="http://www.w3.org/2000/svg" id="Group_4864" width="70.94" height="72" viewBox="0 0 70.94 72"><defs id="defs64"><style id="style62">.cls-1{fill:none}</style></defs><circle id="Ellipse_1" cx="5.229" cy="5.229" r="5.229" class="cls-1"/><circle id="Ellipse_2" cx="5.229" cy="5.229" r="5.229" class="cls-1"/><circle id="Ellipse_3" cx="5.229" cy="5.229" r="5.229" class="cls-1"/><path id="Path_212" d="M216.656-283.631a10.074 10.074 0 0 0-9.7 7.579h-4.017a2.442 2.442 0 0 1-2.425-2.425V-297.2h6.366a10.009 10.009 0 0 0 9.7 7.579 9.994 9.994 0 0 0 10-10 9.995 9.995 0 0 0-10-10 10.075 10.075 0 0 0-9.7 7.579h-6.366v-18.8a2.442 2.442 0 0 1 2.426-2.425h4.016a9.926 9.926 0 0 0 9.7 7.579 9.995 9.995 0 0 0 10-10 9.995 9.995 0 0 0-10.079-9.928 10.075 10.075 0 0 0-9.7 7.579h-4.017a7.2 7.2 0 0 0-7.2 7.2v18.872h-7.2v-5.235a8.8 8.8 0 0 0-8.792-8.792h-15.156a8.8 8.8 0 0 0-8.792 8.792v15.309a8.8 8.8 0 0 0 8.792 8.792h15.309a8.8 8.8 0 0 0 8.792-8.792v-5.229h7.124v18.72a7.2 7.2 0 0 0 7.2 7.2h4.017a9.925 9.925 0 0 0 9.7 7.579 10 10 0 0 0 10-10 10 10 0 0 0-9.998-10.01zm-.076-21.221a5.239 5.239 0 0 1 5.229 5.229 5.239 5.239 0 0 1-5.229 5.229 5.239 5.239 0 0 1-5.229-5.229 5.239 5.239 0 0 1 5.229-5.229zm0-26a5.239 5.239 0 0 1 5.229 5.229 5.239 5.239 0 0 1-5.229 5.229 5.239 5.239 0 0 1-5.229-5.229 5.24 5.24 0 0 1 5.229-5.225zm-37.592 29.482l-6.821 6.821a2.349 2.349 0 0 1-1.667.682 2.349 2.349 0 0 1-1.667-.682l-3.562-3.562a2.472 2.472 0 0 1 0-3.411 2.472 2.472 0 0 1 3.411 0l1.895 1.895 5.078-5.078a2.455 2.455 0 0 1 3.334-.076 2.471 2.471 0 0 1-.002 3.415zm37.592 32.97a5.239 5.239 0 0 1-5.229-5.229 5.239 5.239 0 0 1 5.229-5.229 5.239 5.239 0 0 1 5.229 5.229 5.239 5.239 0 0 1-5.229 5.229z" transform="translate(-155.72 335.623)"/></svg>