<svg xmlns="http://www.w3.org/2000/svg" xmlns:svg="http://www.w3.org/2000/svg" id="svg308" width="320" height="320" version="1.1" viewBox="0 0 320 320"><metadata id="metadata312"/><defs id="defs274"><style id="style272">.cls-3{fill:#fff}</style></defs><path id="Rectangle_726" fill="#516baa" d="M 0,0 H 320 V 320 H 0 Z"/><path id="Path_11366" fill="#7dc6f2" d="m 217.86,99.927 v 91.784 a 10.937,10.937 0 0 1 -10.9,10.9 h -91.788 a 10.937,10.937 0 0 1 -10.9,-10.9 V 99.927 a 10.937,10.937 0 0 1 10.9,-10.9 h 91.788 a 10.937,10.937 0 0 1 10.9,10.9"/><path id="Path_11367" d="m 142.892,188.76 h -20.908 a 5.228,5.228 0 0 1 -5.222,-5.222 v -20.907 a 5.228,5.228 0 0 1 5.222,-5.222 h 20.909 a 5.228,5.228 0 0 1 5.222,5.222 v 20.909 a 5.228,5.228 0 0 1 -5.222,5.222 m -20.909,-29.534 a 3.409,3.409 0 0 0 -3.4,3.4 v 20.909 a 3.409,3.409 0 0 0 3.4,3.4 h 20.909 a 3.409,3.409 0 0 0 3.4,-3.4 v -20.906 a 3.409,3.409 0 0 0 -3.4,-3.4 z" class="cls-3"/><path id="Path_11368" d="m 200.141,188.761 h -40.9 a 5.23,5.23 0 0 1 -5.224,-5.224 v -40.9 a 5.23,5.23 0 0 1 5.224,-5.224 h 40.9 a 5.23,5.23 0 0 1 5.223,5.228 v 40.9 a 5.23,5.23 0 0 1 -5.224,5.224 m -40.9,-49.527 a 3.411,3.411 0 0 0 -3.407,3.407 v 40.9 a 3.411,3.411 0 0 0 3.407,3.407 h 40.9 a 3.411,3.411 0 0 0 3.407,-3.407 v -40.9 a 3.411,3.411 0 0 0 -3.407,-3.407 z" class="cls-3"/><path id="Path_11369" d="m 201.198,131.965 h -43.009 a 4.173,4.173 0 0 1 -4.168,-4.168 v -4.387 a 4.173,4.173 0 0 1 4.168,-4.168 h 43.009 a 4.173,4.173 0 0 1 4.166,4.168 v 4.383 a 4.173,4.173 0 0 1 -4.168,4.168 m -43.009,-10.905 a 2.353,2.353 0 0 0 -2.35,2.35 v 4.387 a 2.353,2.353 0 0 0 2.35,2.35 h 43.009 a 2.353,2.353 0 0 0 2.35,-2.35 v -4.387 a 2.353,2.353 0 0 0 -2.35,-2.35 z" class="cls-3"/><path id="Path_11370" d="m 201.198,115.606 h -43.009 a 4.173,4.173 0 0 1 -4.168,-4.168 v -4.387 a 4.173,4.173 0 0 1 4.168,-4.168 h 43.009 a 4.173,4.173 0 0 1 4.166,4.169 v 4.383 a 4.173,4.173 0 0 1 -4.168,4.168 m -43.009,-10.9 a 2.353,2.353 0 0 0 -2.35,2.35 v 4.382 a 2.353,2.353 0 0 0 2.35,2.35 h 43.009 a 2.353,2.353 0 0 0 2.35,-2.35 v -4.387 a 2.353,2.353 0 0 0 -2.35,-2.35 z" class="cls-3"/><path id="Path_11371" d="m 142.893,151.502 h -20.91 a 5.226,5.226 0 0 1 -5.221,-5.221 v -38.175 a 5.227,5.227 0 0 1 5.221,-5.222 h 20.91 a 5.227,5.227 0 0 1 5.221,5.222 v 38.176 a 5.226,5.226 0 0 1 -5.221,5.221 m -20.91,-46.8 a 3.407,3.407 0 0 0 -3.4,3.4 v 38.176 a 3.407,3.407 0 0 0 3.4,3.4 h 20.91 a 3.407,3.407 0 0 0 3.4,-3.4 v -38.173 a 3.407,3.407 0 0 0 -3.4,-3.4 z" class="cls-3"/><path id="Path_11552" d="m 205.141,249.142 h -27.68 l -0.443,-38.1 1.817,-0.021 0.422,36.307 h 25.884 z" class="cls-3"/><path id="Path_11553" d="m 210.139,248.456 -9.542,-6.361 v 12.723 z" class="cls-3"/><path id="Path_11554" d="m 131.543,249.142 h -27.68 v -1.818 h 25.883 l 0.423,-36.307 1.818,0.021 z" class="cls-3"/><path id="Path_11555" d="m 98.865,248.456 9.542,-6.361 v 12.723 z" class="cls-3"/><path id="Path_11556" d="m 248.09,261.617 -0.525,-2.5 c 0.46,-0.394 0.853,-0.789 1.314,-1.249 l 2.43,0.591 a 3.01,3.01 0 0 0 3.416,-1.707 l 1.181,-2.76 a 2.85,2.85 0 0 0 -1.116,-3.612 l -2.1,-1.38 a 7.821,7.821 0 0 0 0,-1.773 l 2.168,-1.314 a 2.952,2.952 0 0 0 1.182,-3.613 l -1.057,-2.823 a 2.933,2.933 0 0 0 -3.351,-1.774 l -2.5,0.525 c -0.393,-0.46 -0.789,-0.854 -1.249,-1.314 l 0.591,-2.43 a 3.008,3.008 0 0 0 -1.707,-3.415 l -2.76,-1.183 a 2.851,2.851 0 0 0 -3.612,1.118 l -1.38,2.1 a 8.032,8.032 0 0 0 -1.773,0 l -1.314,-2.167 a 2.926,2.926 0 0 0 -3.613,-1.182 l -2.823,1.051 a 2.9,2.9 0 0 0 -1.774,3.349 l 0.525,2.5 c -0.46,0.394 -0.854,0.789 -1.314,1.248 l -2.43,-0.591 a 3.01,3.01 0 0 0 -3.405,1.705 l -1.183,2.758 a 2.852,2.852 0 0 0 1.118,3.613 l 2.1,1.379 a 8.033,8.033 0 0 0 0,1.773 l -2.167,1.314 a 2.949,2.949 0 0 0 -1.179,3.613 l 1.051,2.825 a 2.934,2.934 0 0 0 3.349,1.773 l 2.5,-0.525 c 0.394,0.46 0.789,0.853 1.248,1.314 l -0.591,2.43 a 3.012,3.012 0 0 0 1.708,3.416 l 2.758,1.181 a 2.851,2.851 0 0 0 3.613,-1.116 l 1.379,-2.1 a 7.818,7.818 0 0 0 1.773,0 l 1.314,2.168 a 2.832,2.832 0 0 0 2.5,1.379 3.345,3.345 0 0 0 1.116,-0.2 l 2.759,-1.117 a 2.8,2.8 0 0 0 1.839,-3.284 m -2.693,-4.007 a 1.3,1.3 0 0 0 -0.46,1.314 l 0.657,3.218 a 0.467,0.467 0 0 1 -0.2,0.394 l -2.824,1.117 a 0.316,0.316 0 0 1 -0.394,-0.131 l -1.708,-2.759 a 1.239,1.239 0 0 0 -1.248,-0.657 10.182,10.182 0 0 1 -2.824,-0.065 1.413,1.413 0 0 0 -1.314,0.591 l -1.838,2.759 a 0.316,0.316 0 0 1 -0.394,0.132 l -2.759,-1.183 a 0.319,0.319 0 0 1 -0.2,-0.393 l 0.722,-3.219 a 1.255,1.255 0 0 0 -0.46,-1.314 11.612,11.612 0 0 1 -1.97,-2.036 1.3,1.3 0 0 0 -1.314,-0.46 l -3.219,0.657 a 0.469,0.469 0 0 1 -0.393,-0.2 l -1.117,-2.824 a 0.316,0.316 0 0 1 0.132,-0.394 l 2.759,-1.708 a 1.237,1.237 0 0 0 0.656,-1.248 13.534,13.534 0 0 1 0.066,-2.824 1.479,1.479 0 0 0 -0.592,-1.314 l -2.759,-1.838 a 0.316,0.316 0 0 1 -0.131,-0.394 l 1.181,-2.759 a 0.32,0.32 0 0 1 0.394,-0.2 l 3.219,0.722 a 1.361,1.361 0 0 0 1.38,-0.46 14.606,14.606 0 0 1 2.036,-1.971 1.3,1.3 0 0 0 0.46,-1.313 l -0.657,-3.219 a 0.467,0.467 0 0 1 0.2,-0.393 l 2.759,-1.117 a 0.317,0.317 0 0 1 0.394,0.132 l 1.707,2.759 a 1.237,1.237 0 0 0 1.248,0.656 20.358,20.358 0 0 1 2.825,0 1.407,1.407 0 0 0 1.313,-0.591 l 1.84,-2.759 a 0.315,0.315 0 0 1 0.393,-0.132 l 2.759,1.182 a 0.319,0.319 0 0 1 0.2,0.394 l -0.722,3.219 a 1.361,1.361 0 0 0 0.46,1.379 14.5,14.5 0 0 1 1.97,2.037 1.3,1.3 0 0 0 1.314,0.459 l 3.218,-0.656 a 0.467,0.467 0 0 1 0.394,0.2 l 1.117,2.759 a 0.315,0.315 0 0 1 -0.131,0.393 l -2.768,1.711 a 1.239,1.239 0 0 0 -0.657,1.248 13.6,13.6 0 0 1 -0.065,2.825 1.477,1.477 0 0 0 0.591,1.313 l 2.759,1.839 a 0.316,0.316 0 0 1 0.132,0.394 l -1.183,2.824 a 0.4,0.4 0 0 1 -0.393,0.2 l -3.218,-0.722 a 1.258,1.258 0 0 0 -1.315,0.46 19.022,19.022 0 0 1 -2.036,1.97" class="cls-3"/><path id="Path_11557" d="m 234.756,239.933 a 8.543,8.543 0 0 0 3.152,16.487 8.944,8.944 0 0 0 3.153,-0.591 8.5524212,8.5524212 0 0 0 -6.306,-15.9 m 5.32,13.465 a 5.91,5.91 0 1 1 3.284,-7.685 5.935,5.935 0 0 1 -3.284,7.685" class="cls-3"/><path id="Path_11558" d="m 278.634,271.532 a 2.677,2.677 0 0 0 -2.168,-2.628 l -1.9,-0.328 c -0.131,-0.394 -0.328,-0.788 -0.46,-1.117 l 1.117,-1.577 a 2.692,2.692 0 0 0 -0.329,-3.416 l -1.773,-1.708 a 2.606,2.606 0 0 0 -3.415,-0.263 l -1.578,1.117 a 8.031,8.031 0 0 0 -1.116,-0.46 l -0.329,-1.9 a 2.675,2.675 0 0 0 -2.627,-2.167 h -2.5 a 2.671,2.671 0 0 0 -2.628,2.234 l -0.328,1.9 a 5.708,5.708 0 0 0 -1.117,0.46 l -1.577,-1.116 a 2.692,2.692 0 0 0 -3.416,0.328 l -1.708,1.773 a 2.606,2.606 0 0 0 -0.263,3.416 l 1.117,1.577 a 7.934,7.934 0 0 0 -0.46,1.117 l -1.9,0.328 a 2.676,2.676 0 0 0 -2.168,2.628 v 2.43 a 2.676,2.676 0 0 0 2.168,2.627 l 1.9,0.328 c 0.131,0.394 0.328,0.722 0.46,1.117 l -1.117,1.577 a 2.693,2.693 0 0 0 0.328,3.416 l 1.774,1.708 a 2.6,2.6 0 0 0 3.415,0.263 l 1.578,-1.116 a 8.028,8.028 0 0 0 1.116,0.459 l 0.329,1.9 a 2.676,2.676 0 0 0 2.627,2.168 h 2.43 a 2.677,2.677 0 0 0 2.628,-2.168 l 0.328,-1.9 c 0.394,-0.131 0.788,-0.328 1.116,-0.459 l 1.578,1.116 a 2.693,2.693 0 0 0 3.416,-0.328 l 1.707,-1.708 a 2.606,2.606 0 0 0 0.264,-3.416 l -1.051,-1.643 a 7.882,7.882 0 0 0 0.46,-1.116 l 1.9,-0.328 a 2.677,2.677 0 0 0 2.168,-2.628 z m -2.628,2.5 -2.627,0.46 a 1.275,1.275 0 0 0 -1.051,0.921 11.8,11.8 0 0 1 -0.853,2.1 1.3,1.3 0 0 0 0.065,1.38 l 1.577,2.233 -1.774,1.708 -2.233,-1.512 a 1.422,1.422 0 0 0 -1.446,-0.065 8.3,8.3 0 0 1 -2.1,0.854 1.263,1.263 0 0 0 -0.921,1.051 l -0.46,2.823 h -2.5 l -0.46,-2.626 a 1.275,1.275 0 0 0 -0.92,-1.052 11.721,11.721 0 0 1 -2.1,-0.853 1.3,1.3 0 0 0 -1.379,0.065 l -2.234,1.578 -1.774,-1.775 1.51,-2.233 a 1.285,1.285 0 0 0 0.066,-1.445 8.316,8.316 0 0 1 -0.854,-2.1 1.263,1.263 0 0 0 -1.051,-0.921 l -2.758,-0.459 v -2.5 l 2.627,-0.459 a 1.274,1.274 0 0 0 1.051,-0.921 11.789,11.789 0 0 1 0.853,-2.1 1.3,1.3 0 0 0 -0.065,-1.379 l -1.577,-2.234 1.774,-1.773 2.166,1.51 a 1.288,1.288 0 0 0 1.446,0.065 8.28,8.28 0 0 1 2.1,-0.853 1.19,1.19 0 0 0 0.921,-1.052 l 0.525,-2.758 h 2.5 l 0.46,2.627 a 1.273,1.273 0 0 0 0.92,1.051 11.787,11.787 0 0 1 2.1,0.853 1.3,1.3 0 0 0 1.379,-0.065 l 2.233,-1.577 1.775,1.774 -1.512,2.167 a 1.288,1.288 0 0 0 -0.065,1.446 8.3,8.3 0 0 1 0.854,2.1 1.262,1.262 0 0 0 1.051,0.921 l 2.758,0.525 z" class="cls-3"/><path id="Path_11559" d="m 262.869,266.277 a 6.569,6.569 0 1 0 6.569,6.568 6.546,6.546 0 0 0 -6.569,-6.568 m 0,10.51 a 3.941,3.941 0 1 1 3.941,-3.941 3.953,3.953 0 0 1 -3.941,3.941" class="cls-3"/><path id="Path_11560" d="m 71.792,261.617 -0.525,-2.5 c 0.46,-0.394 0.853,-0.789 1.314,-1.249 l 2.43,0.591 a 3.01,3.01 0 0 0 3.416,-1.707 l 1.181,-2.76 a 2.85,2.85 0 0 0 -1.116,-3.612 l -2.1,-1.38 a 7.816,7.816 0 0 0 0,-1.773 l 2.168,-1.314 a 2.952,2.952 0 0 0 1.182,-3.613 l -1.057,-2.823 a 2.933,2.933 0 0 0 -3.351,-1.774 l -2.5,0.525 c -0.393,-0.46 -0.789,-0.854 -1.249,-1.314 l 0.591,-2.43 a 3.008,3.008 0 0 0 -1.707,-3.415 l -2.76,-1.183 a 2.851,2.851 0 0 0 -3.612,1.118 l -1.379,2.1 a 8.032,8.032 0 0 0 -1.773,0 l -1.314,-2.167 a 2.926,2.926 0 0 0 -3.613,-1.182 l -2.823,1.051 a 2.9,2.9 0 0 0 -1.774,3.349 l 0.525,2.5 c -0.46,0.394 -0.854,0.789 -1.314,1.248 l -2.43,-0.591 a 3.01,3.01 0 0 0 -3.406,1.705 l -1.183,2.758 a 2.852,2.852 0 0 0 1.118,3.613 l 2.1,1.379 a 8.032,8.032 0 0 0 0,1.773 l -2.167,1.314 a 2.949,2.949 0 0 0 -1.179,3.613 l 1.051,2.825 a 2.934,2.934 0 0 0 3.349,1.773 l 2.5,-0.525 c 0.394,0.46 0.789,0.853 1.248,1.314 l -0.591,2.43 a 3.012,3.012 0 0 0 1.708,3.416 l 2.758,1.181 a 2.851,2.851 0 0 0 3.613,-1.116 l 1.379,-2.1 a 7.818,7.818 0 0 0 1.773,0 l 1.314,2.168 a 2.832,2.832 0 0 0 2.5,1.379 3.345,3.345 0 0 0 1.116,-0.2 l 2.759,-1.117 a 2.8,2.8 0 0 0 1.839,-3.284 m -2.693,-4.007 a 1.3,1.3 0 0 0 -0.46,1.314 l 0.657,3.218 a 0.467,0.467 0 0 1 -0.2,0.394 l -2.824,1.117 a 0.316,0.316 0 0 1 -0.394,-0.131 l -1.708,-2.759 a 1.239,1.239 0 0 0 -1.248,-0.657 10.182,10.182 0 0 1 -2.824,-0.065 1.413,1.413 0 0 0 -1.314,0.591 l -1.838,2.759 a 0.316,0.316 0 0 1 -0.394,0.132 l -2.759,-1.183 a 0.319,0.319 0 0 1 -0.2,-0.393 l 0.722,-3.219 a 1.255,1.255 0 0 0 -0.46,-1.314 11.612,11.612 0 0 1 -1.97,-2.036 1.3,1.3 0 0 0 -1.314,-0.46 l -3.219,0.657 a 0.469,0.469 0 0 1 -0.393,-0.2 l -1.117,-2.824 a 0.316,0.316 0 0 1 0.132,-0.394 l 2.759,-1.708 a 1.237,1.237 0 0 0 0.656,-1.248 13.532,13.532 0 0 1 0.066,-2.824 1.479,1.479 0 0 0 -0.592,-1.314 l -2.763,-1.84 a 0.316,0.316 0 0 1 -0.131,-0.394 l 1.181,-2.759 a 0.32,0.32 0 0 1 0.394,-0.2 l 3.219,0.722 a 1.361,1.361 0 0 0 1.379,-0.46 14.607,14.607 0 0 1 2.037,-1.971 1.3,1.3 0 0 0 0.46,-1.313 l -0.657,-3.219 a 0.467,0.467 0 0 1 0.2,-0.393 l 2.759,-1.117 a 0.317,0.317 0 0 1 0.394,0.132 l 1.707,2.759 a 1.237,1.237 0 0 0 1.248,0.656 20.358,20.358 0 0 1 2.825,0 1.407,1.407 0 0 0 1.313,-0.591 l 1.84,-2.759 a 0.315,0.315 0 0 1 0.393,-0.132 l 2.759,1.182 a 0.319,0.319 0 0 1 0.2,0.394 l -0.722,3.219 a 1.361,1.361 0 0 0 0.46,1.379 14.5,14.5 0 0 1 1.97,2.037 1.3,1.3 0 0 0 1.314,0.459 l 3.218,-0.656 a 0.467,0.467 0 0 1 0.394,0.2 l 1.117,2.759 a 0.315,0.315 0 0 1 -0.131,0.393 l -2.764,1.713 a 1.239,1.239 0 0 0 -0.657,1.248 13.6,13.6 0 0 1 -0.065,2.825 1.477,1.477 0 0 0 0.591,1.313 l 2.759,1.839 a 0.316,0.316 0 0 1 0.132,0.394 l -1.183,2.824 a 0.4,0.4 0 0 1 -0.393,0.2 l -3.218,-0.722 a 1.258,1.258 0 0 0 -1.315,0.46 19.023,19.023 0 0 1 -2.036,1.97" class="cls-3"/><path id="Path_11561" d="m 58.458,239.933 a 8.543,8.543 0 0 0 3.152,16.487 8.944,8.944 0 0 0 3.153,-0.591 8.5524212,8.5524212 0 0 0 -6.306,-15.9 m 5.32,13.465 a 5.91,5.91 0 1 1 3.284,-7.685 5.935,5.935 0 0 1 -3.284,7.685" class="cls-3"/><path id="Path_11562" d="m 102.337,271.532 a 2.677,2.677 0 0 0 -2.168,-2.628 l -1.9,-0.328 c -0.131,-0.394 -0.328,-0.788 -0.46,-1.117 l 1.111,-1.577 a 2.692,2.692 0 0 0 -0.329,-3.416 l -1.771,-1.707 a 2.606,2.606 0 0 0 -3.415,-0.263 l -1.578,1.117 a 8.029,8.029 0 0 0 -1.116,-0.46 l -0.329,-1.9 a 2.675,2.675 0 0 0 -2.627,-2.167 h -2.5 a 2.671,2.671 0 0 0 -2.628,2.234 l -0.328,1.9 a 5.708,5.708 0 0 0 -1.117,0.46 l -1.577,-1.116 a 2.692,2.692 0 0 0 -3.416,0.328 l -1.708,1.773 a 2.606,2.606 0 0 0 -0.263,3.416 l 1.122,1.571 a 7.935,7.935 0 0 0 -0.46,1.117 l -1.9,0.328 a 2.676,2.676 0 0 0 -2.168,2.628 v 2.43 a 2.676,2.676 0 0 0 2.168,2.627 l 1.9,0.328 c 0.131,0.394 0.328,0.722 0.46,1.117 l -1.12,1.581 a 2.693,2.693 0 0 0 0.328,3.416 l 1.774,1.708 a 2.6,2.6 0 0 0 3.415,0.263 l 1.578,-1.116 a 8.029,8.029 0 0 0 1.116,0.459 l 0.329,1.9 a 2.676,2.676 0 0 0 2.627,2.168 h 2.433 a 2.677,2.677 0 0 0 2.628,-2.168 l 0.328,-1.9 c 0.394,-0.131 0.788,-0.328 1.116,-0.459 l 1.578,1.116 a 2.693,2.693 0 0 0 3.416,-0.328 l 1.707,-1.708 a 2.606,2.606 0 0 0 0.264,-3.416 L 97.806,278.1 a 7.884,7.884 0 0 0 0.46,-1.116 l 1.9,-0.328 a 2.677,2.677 0 0 0 2.168,-2.628 z m -2.628,2.5 -2.627,0.46 a 1.275,1.275 0 0 0 -1.051,0.921 11.807,11.807 0 0 1 -0.853,2.1 1.3,1.3 0 0 0 0.065,1.38 l 1.577,2.229 -1.774,1.708 -2.233,-1.512 a 1.422,1.422 0 0 0 -1.446,-0.066 8.3,8.3 0 0 1 -2.1,0.854 1.263,1.263 0 0 0 -0.921,1.051 l -0.46,2.823 h -2.5 l -0.46,-2.626 a 1.275,1.275 0 0 0 -0.92,-1.052 11.72,11.72 0 0 1 -2.1,-0.853 1.3,1.3 0 0 0 -1.379,0.065 l -2.234,1.578 -1.773,-1.774 1.51,-2.233 a 1.285,1.285 0 0 0 0.066,-1.445 8.315,8.315 0 0 1 -0.854,-2.1 1.263,1.263 0 0 0 -1.051,-0.921 l -2.758,-0.459 v -2.5 l 2.627,-0.459 a 1.274,1.274 0 0 0 1.051,-0.921 11.788,11.788 0 0 1 0.853,-2.1 1.3,1.3 0 0 0 -0.065,-1.379 l -1.579,-2.232 1.774,-1.773 2.166,1.51 a 1.288,1.288 0 0 0 1.446,0.065 8.28,8.28 0 0 1 2.1,-0.853 1.19,1.19 0 0 0 0.921,-1.052 l 0.525,-2.758 h 2.5 l 0.46,2.627 a 1.273,1.273 0 0 0 0.92,1.051 11.788,11.788 0 0 1 2.1,0.853 1.3,1.3 0 0 0 1.379,-0.065 l 2.233,-1.577 1.776,1.775 -1.512,2.167 a 1.288,1.288 0 0 0 -0.065,1.446 8.3,8.3 0 0 1 0.854,2.1 1.262,1.262 0 0 0 1.051,0.921 l 2.758,0.525 z" class="cls-3"/><path id="Path_11563" d="m 86.571,266.277 a 6.569,6.569 0 1 0 6.569,6.568 6.546,6.546 0 0 0 -6.569,-6.568 m 0,10.51 a 3.941,3.941 0 1 1 3.941,-3.941 3.953,3.953 0 0 1 -3.941,3.941" class="cls-3"/><path id="Path_11564" d="m 230.48,129.24 -0.021,-1.817 36.307,-0.422 v -25.888 h 1.822 v 27.68 z" class="cls-3"/><path id="Path_11565" d="m 267.902,96.115 -6.361,9.542 h 12.726 z" class="cls-3"/><path id="Path_11566" d="m 94.321,129.24 -38.1,-0.443 v -27.684 h 1.817 v 25.884 l 36.307,0.422 z" class="cls-3"/><path id="Path_11567" d="m 56.899,96.115 6.356,9.547 H 50.537 Z" class="cls-3"/><path id="Path_11568" d="m 62.906,59.003 0.525,2.5 c -0.46,0.394 -0.853,0.789 -1.314,1.249 l -2.43,-0.592 a 3.013,3.013 0 0 0 -3.416,1.708 l -1.181,2.76 a 2.85,2.85 0 0 0 1.116,3.612 l 2.1,1.379 a 7.816,7.816 0 0 0 0,1.773 l -2.165,1.311 a 2.952,2.952 0 0 0 -1.182,3.613 l 1.051,2.824 a 2.934,2.934 0 0 0 3.351,1.773 l 2.5,-0.525 c 0.393,0.46 0.789,0.854 1.249,1.314 l -0.591,2.43 a 3.009,3.009 0 0 0 1.707,3.416 l 2.76,1.182 a 2.852,2.852 0 0 0 3.612,-1.117 l 1.379,-2.1 a 8.032,8.032 0 0 0 1.773,0 l 1.314,2.167 a 2.926,2.926 0 0 0 3.613,1.182 l 2.818,-1.059 a 2.9,2.9 0 0 0 1.774,-3.35 l -0.525,-2.5 c 0.46,-0.394 0.854,-0.789 1.314,-1.248 l 2.43,0.591 a 3.01,3.01 0 0 0 3.415,-1.708 l 1.183,-2.759 a 2.852,2.852 0 0 0 -1.118,-3.613 l -2.1,-1.379 a 8.032,8.032 0 0 0 0,-1.773 l 2.165,-1.305 a 2.949,2.949 0 0 0 1.182,-3.612 l -1.051,-2.824 a 2.933,2.933 0 0 0 -3.349,-1.774 l -2.5,0.525 C 83.921,62.614 83.526,62.22 83.067,61.76 l 0.591,-2.43 A 3.012,3.012 0 0 0 81.95,55.914 l -2.758,-1.181 a 2.851,2.851 0 0 0 -3.613,1.116 l -1.379,2.1 a 8.032,8.032 0 0 0 -1.773,0 l -1.314,-2.167 a 2.832,2.832 0 0 0 -2.5,-1.379 3.345,3.345 0 0 0 -1.116,0.2 l -2.759,1.117 a 2.8,2.8 0 0 0 -1.832,3.283 m 2.693,4 a 1.3,1.3 0 0 0 0.46,-1.314 l -0.657,-3.218 a 0.467,0.467 0 0 1 0.2,-0.394 l 2.824,-1.117 a 0.316,0.316 0 0 1 0.394,0.132 l 1.708,2.758 a 1.236,1.236 0 0 0 1.248,0.657 10.183,10.183 0 0 1 2.824,0.066 1.411,1.411 0 0 0 1.314,-0.592 l 1.838,-2.759 a 0.316,0.316 0 0 1 0.394,-0.131 l 2.759,1.181 a 0.321,0.321 0 0 1 0.2,0.394 l -0.722,3.219 a 1.255,1.255 0 0 0 0.46,1.314 11.588,11.588 0 0 1 1.97,2.037 1.3,1.3 0 0 0 1.314,0.459 l 3.219,-0.656 a 0.466,0.466 0 0 1 0.393,0.2 l 1.117,2.823 a 0.318,0.318 0 0 1 -0.132,0.4 l -2.759,1.707 a 1.239,1.239 0 0 0 -0.656,1.249 13.532,13.532 0 0 1 -0.066,2.824 1.479,1.479 0 0 0 0.592,1.314 l 2.759,1.839 a 0.315,0.315 0 0 1 0.131,0.393 l -1.181,2.759 a 0.319,0.319 0 0 1 -0.394,0.2 l -3.219,-0.722 a 1.361,1.361 0 0 0 -1.379,0.46 14.448,14.448 0 0 1 -2.037,1.97 1.3,1.3 0 0 0 -0.46,1.314 l 0.657,3.219 a 0.467,0.467 0 0 1 -0.2,0.393 l -2.759,1.117 A 0.316,0.316 0 0 1 77.359,88.367 L 75.65,85.603 a 1.239,1.239 0 0 0 -1.248,-0.657 20.36,20.36 0 0 1 -2.825,0 1.411,1.411 0 0 0 -1.313,0.591 l -1.84,2.76 a 0.316,0.316 0 0 1 -0.393,0.131 l -2.759,-1.182 a 0.319,0.319 0 0 1 -0.2,-0.394 l 0.722,-3.219 a 1.361,1.361 0 0 0 -0.461,-1.379 14.406,14.406 0 0 1 -1.97,-2.037 1.3,1.3 0 0 0 -1.314,-0.459 l -3.218,0.657 a 0.466,0.466 0 0 1 -0.394,-0.2 l -1.114,-2.756 a 0.316,0.316 0 0 1 0.131,-0.394 l 2.759,-1.708 a 1.24,1.24 0 0 0 0.657,-1.249 13.6,13.6 0 0 1 0.065,-2.824 1.477,1.477 0 0 0 -0.591,-1.313 l -2.759,-1.839 a 0.316,0.316 0 0 1 -0.132,-0.394 l 1.18,-2.825 a 0.4,0.4 0 0 1 0.393,-0.2 l 3.218,0.722 a 1.256,1.256 0 0 0 1.315,-0.46 19.021,19.021 0 0 1 2.036,-1.97" class="cls-3"/><path id="Path_11569" d="m 76.24,80.678 a 8.543,8.543 0 0 0 -3.153,-16.487 8.926,8.926 0 0 0 -3.153,0.592 8.5524212,8.5524212 0 0 0 6.306,15.9 M 70.92,67.217 a 5.91,5.91 0 1 1 -3.284,7.685 5.935,5.935 0 0 1 3.284,-7.685" class="cls-3"/><path id="Path_11570" d="m 32.362,49.083 a 2.676,2.676 0 0 0 2.168,2.627 l 1.9,0.328 c 0.131,0.394 0.328,0.789 0.46,1.117 l -1.11,1.577 a 2.691,2.691 0 0 0 0.329,3.415 l 1.771,1.706 a 2.6,2.6 0 0 0 3.415,0.263 l 1.578,-1.117 a 8.036,8.036 0 0 0 1.116,0.46 l 0.329,1.9 a 2.675,2.675 0 0 0 2.627,2.167 h 2.5 a 2.671,2.671 0 0 0 2.628,-2.233 l 0.328,-1.9 a 5.706,5.706 0 0 0 1.117,-0.46 l 1.572,1.12 a 2.691,2.691 0 0 0 3.416,-0.328 l 1.707,-1.772 a 2.6,2.6 0 0 0 0.263,-3.415 l -1.117,-1.585 a 7.892,7.892 0 0 0 0.46,-1.117 l 1.9,-0.328 a 2.676,2.676 0 0 0 2.168,-2.627 v -2.428 a 2.676,2.676 0 0 0 -2.168,-2.627 l -1.9,-0.328 c -0.131,-0.394 -0.328,-0.722 -0.46,-1.117 L 60.48,40.806 A 2.693,2.693 0 0 0 60.152,37.39 L 58.374,35.683 A 2.6,2.6 0 0 0 54.959,35.42 l -1.579,1.117 a 7.927,7.927 0 0 0 -1.116,-0.46 L 51.935,34.171 A 2.676,2.676 0 0 0 49.308,32.004 H 46.88 a 2.677,2.677 0 0 0 -2.628,2.167 l -0.328,1.906 c -0.394,0.131 -0.788,0.328 -1.116,0.46 L 41.23,35.42 a 2.693,2.693 0 0 0 -3.416,0.328 l -1.707,1.705 a 2.6,2.6 0 0 0 -0.264,3.415 l 1.051,1.643 a 7.882,7.882 0 0 0 -0.46,1.116 l -1.9,0.328 a 2.677,2.677 0 0 0 -2.168,2.628 z m 2.628,-2.5 2.627,-0.46 a 1.275,1.275 0 0 0 1.051,-0.92 11.788,11.788 0 0 1 0.853,-2.1 1.3,1.3 0 0 0 -0.065,-1.379 l -1.576,-2.232 1.774,-1.708 2.233,1.511 a 1.421,1.421 0 0 0 1.446,0.065 8.3,8.3 0 0 1 2.1,-0.854 1.263,1.263 0 0 0 0.921,-1.051 l 0.46,-2.824 h 2.5 l 0.46,2.627 a 1.272,1.272 0 0 0 0.92,1.051 11.791,11.791 0 0 1 2.1,0.854 1.3,1.3 0 0 0 1.379,-0.065 l 2.234,-1.577 1.773,1.775 -1.51,2.233 a 1.285,1.285 0 0 0 -0.066,1.445 8.315,8.315 0 0 1 0.854,2.1 1.258,1.258 0 0 0 1.051,0.92 l 2.758,0.46 v 2.5 l -2.627,0.46 a 1.273,1.273 0 0 0 -1.051,0.92 11.788,11.788 0 0 1 -0.853,2.1 1.3,1.3 0 0 0 0.065,1.379 l 1.577,2.233 -1.778,1.773 -2.166,-1.51 a 1.287,1.287 0 0 0 -1.446,-0.066 8.315,8.315 0 0 1 -2.1,0.854 1.188,1.188 0 0 0 -0.921,1.051 l -0.525,2.759 h -2.5 l -0.46,-2.627 a 1.274,1.274 0 0 0 -0.92,-1.051 11.72,11.72 0 0 1 -2.1,-0.853 1.3,1.3 0 0 0 -1.379,0.065 l -2.233,1.577 -1.77,-1.776 1.512,-2.167 a 1.287,1.287 0 0 0 0.065,-1.445 8.315,8.315 0 0 1 -0.854,-2.1 1.259,1.259 0 0 0 -1.051,-0.92 L 34.99,49.083 Z" class="cls-3"/><path id="Path_11571" d="m 48.127,54.337 a 6.568,6.568 0 1 0 -6.57,-6.569 6.546,6.546 0 0 0 6.569,6.568 m 0,-10.51 a 3.941,3.941 0 1 1 -3.941,3.941 3.953,3.953 0 0 1 3.942,-3.938" class="cls-3"/><path id="Path_11572" d="m 260.104,57.186 0.525,2.5 c -0.46,0.394 -0.852,0.789 -1.314,1.249 l -2.429,-0.592 a 3.014,3.014 0 0 0 -3.417,1.708 l -1.181,2.76 a 2.85,2.85 0 0 0 1.116,3.612 l 2.1,1.379 a 7.714,7.714 0 0 0 0,1.773 l -2.165,1.311 a 2.953,2.953 0 0 0 -1.182,3.613 l 1.051,2.824 a 2.935,2.935 0 0 0 3.351,1.773 l 2.5,-0.525 c 0.393,0.46 0.789,0.854 1.25,1.314 l -0.592,2.43 a 3.01,3.01 0 0 0 1.708,3.416 l 2.759,1.182 a 2.852,2.852 0 0 0 3.612,-1.117 l 1.379,-2.1 a 8.031,8.031 0 0 0 1.773,0 l 1.315,2.167 a 2.924,2.924 0 0 0 3.612,1.182 l 2.823,-1.051 a 2.9,2.9 0 0 0 1.775,-3.35 l -0.525,-2.5 c 0.459,-0.394 0.854,-0.789 1.313,-1.248 l 2.43,0.591 a 3.009,3.009 0 0 0 3.415,-1.708 l 1.183,-2.759 a 2.852,2.852 0 0 0 -1.118,-3.613 l -2.1,-1.379 a 8.141,8.141 0 0 0 0,-1.773 l 2.166,-1.314 a 2.948,2.948 0 0 0 1.182,-3.612 l -1.051,-2.824 a 2.933,2.933 0 0 0 -3.349,-1.774 l -2.5,0.525 c -0.394,-0.46 -0.789,-0.854 -1.247,-1.314 l 0.59,-2.43 a 3.01,3.01 0 0 0 -1.708,-3.416 l -2.758,-1.181 a 2.85,2.85 0 0 0 -3.612,1.116 l -1.379,2.1 a 8.04,8.04 0 0 0 -1.774,0 l -1.314,-2.167 a 2.831,2.831 0 0 0 -2.5,-1.379 3.353,3.353 0 0 0 -1.116,0.2 l -2.759,1.117 a 2.8,2.8 0 0 0 -1.839,3.284 m 2.694,4.007 a 1.3,1.3 0 0 0 0.459,-1.314 l -0.657,-3.218 a 0.466,0.466 0 0 1 0.2,-0.394 l 2.823,-1.117 a 0.316,0.316 0 0 1 0.394,0.132 l 1.709,2.758 a 1.235,1.235 0 0 0 1.247,0.657 10.182,10.182 0 0 1 2.824,0.066 1.413,1.413 0 0 0 1.315,-0.592 l 1.837,-2.759 a 0.317,0.317 0 0 1 0.4,-0.131 l 2.758,1.181 a 0.321,0.321 0 0 1 0.2,0.394 l -0.722,3.219 a 1.257,1.257 0 0 0 0.46,1.314 11.525,11.525 0 0 1 1.97,2.037 1.3,1.3 0 0 0 1.314,0.459 l 3.22,-0.656 a 0.466,0.466 0 0 1 0.393,0.2 l 1.117,2.823 a 0.318,0.318 0 0 1 -0.132,0.4 l -2.759,1.707 a 1.238,1.238 0 0 0 -0.655,1.249 13.654,13.654 0 0 1 -0.066,2.824 1.474,1.474 0 0 0 0.592,1.314 l 2.758,1.839 a 0.315,0.315 0 0 1 0.131,0.393 l -1.181,2.759 a 0.319,0.319 0 0 1 -0.394,0.2 l -3.219,-0.722 a 1.361,1.361 0 0 0 -1.379,0.46 14.449,14.449 0 0 1 -2.037,1.97 1.3,1.3 0 0 0 -0.46,1.314 l 0.658,3.219 a 0.467,0.467 0 0 1 -0.2,0.393 l -2.759,1.117 a 0.317,0.317 0 0 1 -0.394,-0.131 l -1.713,-2.771 a 1.24,1.24 0 0 0 -1.249,-0.657 20.358,20.358 0 0 1 -2.825,0 1.41,1.41 0 0 0 -1.312,0.591 l -1.841,2.76 a 0.316,0.316 0 0 1 -0.393,0.131 l -2.759,-1.182 a 0.318,0.318 0 0 1 -0.2,-0.394 l 0.722,-3.219 a 1.362,1.362 0 0 0 -0.461,-1.379 14.308,14.308 0 0 1 -1.97,-2.037 1.3,1.3 0 0 0 -1.315,-0.459 l -3.217,0.657 a 0.466,0.466 0 0 1 -0.4,-0.2 l -1.117,-2.758 a 0.316,0.316 0 0 1 0.131,-0.394 l 2.76,-1.708 a 1.24,1.24 0 0 0 0.656,-1.249 13.719,13.719 0 0 1 0.065,-2.824 1.478,1.478 0 0 0 -0.591,-1.313 l -2.759,-1.839 a 0.317,0.317 0 0 1 -0.132,-0.394 l 1.189,-2.823 a 0.4,0.4 0 0 1 0.393,-0.2 l 3.218,0.722 a 1.256,1.256 0 0 0 1.315,-0.46 19.027,19.027 0 0 1 2.037,-1.97" class="cls-3"/><path id="Path_11573" d="m 273.439,78.86 a 8.543,8.543 0 0 0 -3.152,-16.487 8.925,8.925 0 0 0 -3.153,0.592 8.5524212,8.5524212 0 0 0 6.306,15.9 m -5.32,-13.466 a 5.91,5.91 0 1 1 -3.284,7.685 5.935,5.935 0 0 1 3.284,-7.685" class="cls-3"/><path id="Path_11574" d="m 229.561,47.265 a 2.676,2.676 0 0 0 2.168,2.627 l 1.9,0.328 c 0.131,0.394 0.328,0.789 0.46,1.117 l -1.11,1.577 a 2.691,2.691 0 0 0 0.329,3.415 l 1.771,1.706 a 2.6,2.6 0 0 0 3.415,0.263 l 1.578,-1.117 a 8.037,8.037 0 0 0 1.116,0.46 l 0.329,1.9 a 2.675,2.675 0 0 0 2.627,2.167 h 2.5 a 2.671,2.671 0 0 0 2.628,-2.233 l 0.328,-1.9 a 5.707,5.707 0 0 0 1.117,-0.46 l 1.572,1.12 a 2.691,2.691 0 0 0 3.416,-0.328 l 1.708,-1.774 a 2.6,2.6 0 0 0 0.263,-3.415 l -1.118,-1.583 a 7.891,7.891 0 0 0 0.46,-1.117 l 1.9,-0.328 a 2.676,2.676 0 0 0 2.168,-2.627 v -2.428 a 2.676,2.676 0 0 0 -2.168,-2.627 l -1.9,-0.328 c -0.131,-0.394 -0.328,-0.722 -0.46,-1.117 l 1.117,-1.577 a 2.693,2.693 0 0 0 -0.328,-3.416 l -1.774,-1.708 a 2.6,2.6 0 0 0 -3.415,-0.263 l -1.579,1.12 a 7.925,7.925 0 0 0 -1.116,-0.46 l -0.329,-1.906 a 2.676,2.676 0 0 0 -2.627,-2.167 h -2.428 a 2.677,2.677 0 0 0 -2.628,2.167 l -0.328,1.906 c -0.394,0.131 -0.788,0.328 -1.116,0.46 l -1.578,-1.117 a 2.693,2.693 0 0 0 -3.416,0.328 l -1.707,1.705 a 2.6,2.6 0 0 0 -0.264,3.415 l 1.051,1.643 a 7.882,7.882 0 0 0 -0.46,1.116 l -1.9,0.328 a 2.677,2.677 0 0 0 -2.168,2.628 z m 2.628,-2.5 2.627,-0.46 a 1.275,1.275 0 0 0 1.051,-0.92 11.788,11.788 0 0 1 0.853,-2.1 1.3,1.3 0 0 0 -0.065,-1.379 l -1.576,-2.232 1.774,-1.708 2.233,1.511 a 1.421,1.421 0 0 0 1.446,0.065 8.3,8.3 0 0 1 2.1,-0.854 1.263,1.263 0 0 0 0.921,-1.051 l 0.46,-2.824 h 2.5 l 0.46,2.627 a 1.272,1.272 0 0 0 0.92,1.051 11.791,11.791 0 0 1 2.1,0.854 1.3,1.3 0 0 0 1.379,-0.065 l 2.234,-1.577 1.774,1.774 -1.51,2.233 a 1.285,1.285 0 0 0 -0.066,1.445 8.316,8.316 0 0 1 0.854,2.1 1.258,1.258 0 0 0 1.051,0.92 l 2.758,0.46 v 2.5 l -2.627,0.46 a 1.273,1.273 0 0 0 -1.051,0.92 11.788,11.788 0 0 1 -0.853,2.1 1.3,1.3 0 0 0 0.065,1.379 l 1.577,2.233 -1.774,1.774 -2.167,-1.51 a 1.285,1.285 0 0 0 -1.445,-0.066 8.315,8.315 0 0 1 -2.1,0.854 1.188,1.188 0 0 0 -0.921,1.051 l -0.525,2.759 h -2.5 l -0.46,-2.627 a 1.274,1.274 0 0 0 -0.92,-1.051 11.72,11.72 0 0 1 -2.1,-0.853 1.3,1.3 0 0 0 -1.379,0.065 l -2.233,1.577 -1.775,-1.776 1.512,-2.167 a 1.287,1.287 0 0 0 0.065,-1.445 8.315,8.315 0 0 1 -0.854,-2.1 1.259,1.259 0 0 0 -1.051,-0.92 l -2.758,-0.525 z" class="cls-3"/><path id="Path_11575" d="m 245.325,52.52 a 6.568,6.568 0 1 0 -6.569,-6.568 6.546,6.546 0 0 0 6.569,6.568 m 0,-10.51 a 3.941,3.941 0 1 1 -3.941,3.941 3.953,3.953 0 0 1 3.941,-3.939" class="cls-3"/></svg>