<svg xmlns="http://www.w3.org/2000/svg" id="Group_4944" width="56.813" height="71.242" viewBox="0 0 56.813 71.242">
    <defs>
        <clipPath id="clip-path">
            <path id="Rectangle_38" fill="none" d="M0 0H56.813V71.242H0z"/>
        </clipPath>
        <style>
            .cls-3{fill:#7dc6f2}
        </style>
    </defs>
    <g id="Group_230" clip-path="url(#clip-path)">
        <path id="Path_237" d="M56.79 29.333V16.065c0-1.5.051-3.022 0-4.524v-.051a2.608 2.608 0 0 0-1.867-2.453Q50.517 7.509 46.1 5.981 39.148 3.575 32.2 1.16C31.181.8 30.162.4 29.118.09c-1.095-.331-2.351.322-3.361.671L12.447 5.37Q7.24 7.178 2.041 8.978c-.059.017-.11.042-.17.06A2.625 2.625 0 0 0 0 11.49v15.737c0 3.31-.008 6.621 0 9.931a26.2 26.2 0 0 0 1.46 8.514A38.126 38.126 0 0 0 11.2 60.3a53.567 53.567 0 0 0 14.166 9.81c.541.255 1.1.5 1.647.741a2.139 2.139 0 0 0 .721.328 3.108 3.108 0 0 0 .436.042 2.21 2.21 0 0 0 .914-.067 2.541 2.541 0 0 0 .66-.293 52.982 52.982 0 0 0 14.313-9.146 39.6 39.6 0 0 0 10.356-13.751 28.671 28.671 0 0 0 2.292-8.87c.136-1.57.085-3.158.085-4.737zm-5.248 10.628a25.724 25.724 0 0 1-1.549 5.576 32.057 32.057 0 0 1-2.965 5.348c-.305.45-.62.891-.951 1.324l-.027.035c-.059.059-.1.135-.152.194-.17.212-.34.424-.518.637-.7.849-1.435 1.672-2.2 2.47a48.119 48.119 0 0 1-4.88 4.413 1.786 1.786 0 0 0-.292.232l-.608.456c-.441.323-.891.645-1.341.951-.874.6-1.774 1.18-2.682 1.732a51.063 51.063 0 0 1-4.944 2.621 51.8 51.8 0 0 1-9.69-5.821c-.085-.059-.45-.348-.093-.076s-.008-.008-.093-.076c-.221-.17-.433-.348-.645-.518q-.649-.522-1.273-1.07c-.84-.73-1.647-1.485-2.428-2.266s-1.528-1.587-2.249-2.428c-.326-.384-.652-.775-.964-1.175a2.894 2.894 0 0 0-.216-.277c-.161-.221-.323-.433-.484-.654a32.385 32.385 0 0 1-3.467-6.066 25.733 25.733 0 0 1-1.541-5.541 37.909 37.909 0 0 1-.177-4.462V13.339L12 10.955q6.965-2.419 13.929-4.83 1.252-.431 2.5-.867l8.06 2.794q6.965 2.419 13.921 4.83l1.307.452v21.389a45.247 45.247 0 0 1-.172 5.238" class="cls-3" transform="translate(0 .001)"/>
        <path id="Path_238" d="M180.258 261.809a2.586 2.586 0 0 0-3.6 0l-5.788 5.791-9.159 9.159-.314.314-6.409-6.409-1.171-1.171a2.545 2.545 0 1 0-3.6 3.6l8.208 8.208 1.171 1.171a2.578 2.578 0 0 0 3.6 0l5.789-5.789 9.159-9.159 2.114-2.114a2.578 2.578 0 0 0 0-3.6" class="cls-3" transform="translate(-136.803 -238.918)"/>
    </g>
</svg>
