<svg xmlns="http://www.w3.org/2000/svg" xmlns:xlink="http://www.w3.org/1999/xlink" fill="none" stroke="none" stroke-linecap="square" stroke-miterlimit="10" version="1.1" viewBox="0 0 154.499 149.147"><clipPath id="p.0"><path d="m0 0l154.49869 0l0 149.14699l-154.49869 0l0 -149.14699z" clip-rule="nonzero"/></clipPath><g clip-path="url(#p.0)"><path fill="#000" fill-opacity="0" fill-rule="evenodd" d="m0 0l154.49869 0l0 149.14699l-154.49869 0z"/><path fill="#e6e6e6" fill-rule="evenodd" d="m85.633194 85.88263l-0.47994995 0.049804688l-0.8602905 0.33503723l-0.6203079 0.6700821l-0.3848648 0.8602295l-0.045280457 0.47992706l0 50.33287l0.045280457 0.47991943l0.3848648 0.86024475l0.6203079 0.67007446l0.8602905 0.33503723l0.47994995 0.049804688l59.522736 0l0.47994995 -0.049804688l0.8602905 -0.33503723l0.67012024 -0.67007446l0.38485718 -0.86024475l0 -0.47991943l0 -50.33287l0 -0.47992706l-0.38485718 -0.8602295l-0.67012024 -0.6700821l-0.8602905 -0.33503723l-0.47994995 -0.049804688z"/><path fill="#fff" fill-rule="evenodd" d="m90.22178 99.01734l-0.47542572 0.045272827l-0.8602829 0.33503723l-0.6248398 0.6700821l-0.38034058 0.8602371l-0.049804688 0.47991943l0 8.996262l0.049804688 0.4753952l0.38034058 0.86476135l0.6248398 0.6700821l0.8602829 0.33503723l0.47542572 0.045272827l50.340324 0l0.4754181 -0.045272827l0.8648071 -0.33503723l0.67012024 -0.6700821l0.38034058 -0.86476135l0 -0.4753952l0 -8.996262l0 -0.47991943l-0.38034058 -0.8602371l-0.67012024 -0.6700821l-0.8648071 -0.33503723l-0.4754181 -0.045272827z"/><path fill="#476bb0" fill-rule="evenodd" d="m83.2425 85.88263l0 8.3261795l8.371941 0l0 -8.3261795z"/><path fill="#fff" fill-rule="evenodd" d="m85.34794 92.39326l1.5756836 0.7651596l2.5853806 -0.7651596z"/><path fill="#fff" fill-rule="evenodd" d="m86.92362 88.993065l-1.5756836 3.1602325l1.5756836 -0.2897644l0 -2.8704681z"/><path fill="#fff" fill-rule="evenodd" d="m87.1636 86.93755l0 4.9259796l2.3454056 0.2897644l0 0l-2.3454056 -5.215744z"/><path fill="#000" fill-opacity="0" fill-rule="evenodd" d="m92.308395 99.843834l46.173233 0l0 12.125984l-46.173233 0z"/><path fill="#000" fill-rule="nonzero" d="m93.39304 103.5412l0.625 0l0.875 3.5l0.078125 0.328125l0.015625 0l0.109375 -0.328125l1.0625 -3.5l0.59375 0l1.015625 3.5l0.09375 0.328125l0.03125 0l0.9375 -3.828125l0.625 0l-1.28125 4.765625l-0.59375 0l-1.015625 -3.453125l-0.09375 -0.375l-0.03125 0l-0.109375 0.375l-1.0625 3.453125l-0.578125 0l-1.296875 -4.765625zm7.778427 4.875q-0.5 0 -0.90625 -0.234375q-0.390625 -0.25 -0.625 -0.65625q-0.21875 -0.421875 -0.21875 -0.921875q0 -0.5 0.21875 -0.90625q0.234375 -0.40625 0.625 -0.640625q0.40625 -0.25 0.90625 -0.25q0.5 0 0.890625 0.25q0.40625 0.234375 0.625 0.640625q0.234375 0.40625 0.234375 0.90625q0 0.5 -0.234375 0.921875q-0.21875 0.40625 -0.625 0.65625q-0.390625 0.234375 -0.890625 0.234375zm0 -0.515625q0.3125 0 0.578125 -0.15625q0.265625 -0.15625 0.421875 -0.4375q0.171875 -0.296875 0.171875 -0.703125q0 -0.390625 -0.171875 -0.671875q-0.15625 -0.296875 -0.421875 -0.453125q-0.265625 -0.15625 -0.578125 -0.15625q-0.3125 0 -0.59375 0.15625q-0.265625 0.15625 -0.4375 0.453125q-0.15625 0.28125 -0.15625 0.671875q0 0.40625 0.15625 0.703125q0.171875 0.28125 0.4375 0.4375q0.28125 0.15625 0.59375 0.15625zm2.337906 -2.984375l0.53125 0l0 0.546875l0.03125 0q0.09375 -0.28125 0.375 -0.46875q0.296875 -0.1875 0.609375 -0.1875q0.234375 0 0.40625 0.078125l0 0.609375q-0.21875 -0.109375 -0.484375 -0.109375q-0.25 0 -0.453125 0.140625q-0.203125 0.140625 -0.328125 0.375q-0.125 0.234375 -0.125 0.515625l0 1.890625l-0.5625 0l0 -3.390625zm2.5294037 -1.375l0.5625 0l0 3.0l1.59375 -1.625l0.71875 0l0 0.015625l-1.328125 1.34375l1.375 2.0l0 0.03125l-0.6875 0l-1.078125 -1.625l-0.59375 0.578125l0 1.046875l-0.5625 0l0 -4.765625zm3.3613586 0l0.5625 0l0 4.765625l-0.5625 0l0 -4.765625zm2.933609 4.875q-0.5 0 -0.90625 -0.234375q-0.390625 -0.25 -0.625 -0.65625q-0.21875 -0.421875 -0.21875 -0.921875q0 -0.5 0.21875 -0.90625q0.234375 -0.40625 0.625 -0.640625q0.40625 -0.25 0.90625 -0.25q0.5 0 0.890625 0.25q0.40625 0.234375 0.625 0.640625q0.234375 0.40625 0.234375 0.90625q0 0.5 -0.234375 0.921875q-0.21875 0.40625 -0.625 0.65625q-0.390625 0.234375 -0.890625 0.234375zm0 -0.515625q0.3125 0 0.578125 -0.15625q0.265625 -0.15625 0.421875 -0.4375q0.171875 -0.296875 0.171875 -0.703125q0 -0.390625 -0.171875 -0.671875q-0.15625 -0.296875 -0.421875 -0.453125q-0.265625 -0.15625 -0.578125 -0.15625q-0.3125 0 -0.59375 0.15625q-0.265625 0.15625 -0.4375 0.453125q-0.15625 0.28125 -0.15625 0.671875q0 0.40625 0.15625 0.703125q0.171875 0.28125 0.4375 0.4375q0.28125 0.15625 0.59375 0.15625zm3.4826965 0.515625q-0.375 0 -0.671875 -0.140625q-0.28125 -0.15625 -0.453125 -0.40625q-0.15625 -0.265625 -0.15625 -0.59375q0 -0.53125 0.40625 -0.828125q0.40625 -0.3125 1.03125 -0.3125q0.3125 0 0.5625 0.078125q0.265625 0.0625 0.40625 0.140625l0 -0.203125q0 -0.375 -0.265625 -0.609375q-0.265625 -0.234375 -0.671875 -0.234375q-0.28125 0 -0.53125 0.125q-0.234375 0.125 -0.375 0.34375l-0.421875 -0.3125q0.203125 -0.3125 0.546875 -0.484375q0.359375 -0.171875 0.78125 -0.171875q0.703125 0 1.09375 0.359375q0.390625 0.359375 0.390625 0.984375l0 2.15625l-0.546875 0l0 -0.484375l-0.015625 0q-0.15625 0.25 -0.453125 0.421875q-0.28125 0.171875 -0.65625 0.171875zm0.0625 -0.5q0.28125 0 0.53125 -0.140625q0.25 -0.15625 0.390625 -0.390625q0.140625 -0.25 0.140625 -0.546875q-0.15625 -0.109375 -0.390625 -0.171875q-0.234375 -0.0625 -0.484375 -0.0625q-0.46875 0 -0.703125 0.1875q-0.234375 0.1875 -0.234375 0.5q0 0.28125 0.203125 0.453125q0.21875 0.171875 0.546875 0.171875zm3.7979584 0.5q-0.453125 0 -0.828125 -0.234375q-0.359375 -0.234375 -0.578125 -0.640625q-0.21875 -0.40625 -0.21875 -0.9375q0 -0.5 0.21875 -0.90625q0.21875 -0.421875 0.578125 -0.65625q0.375 -0.234375 0.828125 -0.234375q0.390625 0 0.6875 0.1875q0.3125 0.171875 0.46875 0.421875l0.03125 0l-0.03125 -0.46875l0 -1.40625l0.578125 0l0 4.765625l-0.546875 0l0 -0.5l-0.03125 0q-0.15625 0.25 -0.46875 0.4375q-0.296875 0.171875 -0.6875 0.171875zm0.0625 -0.515625q0.296875 0 0.546875 -0.15625q0.265625 -0.15625 0.421875 -0.453125q0.15625 -0.296875 0.15625 -0.6875q0 -0.375 -0.15625 -0.671875q-0.15625 -0.296875 -0.421875 -0.453125q-0.25 -0.15625 -0.546875 -0.15625q-0.296875 0 -0.5625 0.15625q-0.25 0.15625 -0.40625 0.453125q-0.15625 0.296875 -0.15625 0.671875q0 0.390625 0.15625 0.6875q0.15625 0.296875 0.40625 0.453125q0.265625 0.15625 0.5625 0.15625zm2.616394 -4.359375l2.75 0l0 0.53125l-2.1875 0l0 1.578125l1.984375 0l0 0.546875l-1.984375 0l0 1.5625l2.1875 0l0 0.546875l-2.75 0l0 -4.765625zm3.491516 1.375l0.53125 0l0 0.5l0.03125 0q0.140625 -0.25 0.4375 -0.421875q0.3125 -0.1875 0.65625 -0.1875q0.6250076 0 0.9375076 0.359375q0.328125 0.359375 0.328125 0.96875l0 2.171875l-0.5625 0l0 -2.09375q0 -0.46875 -0.23438263 -0.671875q-0.21875 -0.21875 -0.609375 -0.21875q-0.28125 0 -0.5 0.15625q-0.21875 0.140625 -0.34375 0.390625q-0.109375 0.25 -0.109375 0.53125l0 1.90625l-0.5625 0l0 -3.390625zm4.8643265 3.4375q-0.203125 0 -0.375 -0.0625q-0.171875 -0.0625 -0.296875 -0.171875q-0.265625 -0.265625 -0.265625 -0.703125l0 -1.984375l-0.59375 0l0 -0.515625l0.59375 0l0 -0.96875l0.5625 0l0 0.96875l0.828125 0l0 0.515625l-0.828125 0l0 1.84375q0 0.28125 0.109375 0.40625q0.125 0.15625 0.359375 0.15625q0.21875 0 0.375 -0.109375l0 0.546875q-0.09375 0.046875 -0.203125 0.0625q-0.09375 0.015625 -0.265625 0.015625zm1.1392822 -3.4375l0.53125 0l0 0.546875l0.03125 0q0.09375 -0.28125 0.375 -0.46875q0.296875 -0.1875 0.609375 -0.1875q0.234375 0 0.40625 0.078125l0 0.609375q-0.21875 -0.109375 -0.484375 -0.109375q-0.25 0 -0.453125 0.140625q-0.203125 0.140625 -0.328125 0.375q-0.125 0.234375 -0.125 0.515625l0 1.890625l-0.5625 0l0 -3.390625zm3.6739807 3.171875l-1.40625 -3.171875l0.625 0l1.0625 2.515625l0.015625 0l1.015625 -2.515625l0.609375 0l-2.09375 4.828125l-0.578125 0l0.75 -1.65625z"/><path fill="#000" fill-opacity="0" fill-rule="evenodd" d="m92.308395 120.843834l46.173233 0l0 12.125984l-46.173233 0z"/><path fill="#000" fill-rule="nonzero" d="m101.18386 128.90495q-0.296875 0 -0.53125 -0.109375q-0.234375 -0.125 -0.359375 -0.328125q-0.125 -0.203125 -0.125 -0.46875q0 -0.421875 0.3125 -0.65625q0.328125 -0.25 0.828125 -0.25q0.25 0 0.453125 0.0625q0.21875 0.046875 0.328125 0.109375l0 -0.15625q0 -0.3125 -0.21875 -0.484375q-0.21875 -0.1875 -0.53125 -0.1875q-0.234375 0 -0.4375 0.09375q-0.1875 0.09375 -0.296875 0.265625l-0.34375 -0.25q0.171875 -0.25 0.453125 -0.375q0.28125 -0.140625 0.625 -0.140625q0.546875 0 0.859375 0.296875q0.3125 0.28125 0.3125 0.78125l0 1.71875l-0.421875 0l0 -0.390625l-0.03125 0q-0.109375 0.203125 -0.34375 0.34375q-0.234375 0.125 -0.53125 0.125zm0.046875 -0.390625q0.21875 0 0.421875 -0.109375q0.203125 -0.125 0.3125 -0.3125q0.125 -0.203125 0.125 -0.4375q-0.125 -0.09375 -0.3125 -0.140625q-0.1875 -0.0625 -0.40625 -0.0625q-0.375 0 -0.5625 0.15625q-0.1875 0.15625 -0.1875 0.40625q0 0.21875 0.171875 0.359375q0.171875 0.140625 0.4375 0.140625zm1.8917694 -2.40625l0.4375 0l0 0.40625l0.015625 0q0.125 -0.203125 0.375 -0.34375q0.25 -0.140625 0.546875 -0.140625q0.375 0 0.671875 0.1875q0.296875 0.1875 0.46875 0.515625q0.171875 0.328125 0.171875 0.734375q0 0.421875 -0.171875 0.75q-0.171875 0.328125 -0.46875 0.515625q-0.296875 0.171875 -0.671875 0.171875q-0.296875 0 -0.546875 -0.140625q-0.25 -0.140625 -0.375 -0.34375l-0.015625 0l0.015625 0.375l0 1.1875l-0.453125 0l0 -3.875zm1.328125 2.390625q0.234375 0 0.4375 -0.125q0.21875 -0.125 0.34375 -0.359375q0.125 -0.234375 0.125 -0.546875q0 -0.3125 -0.125 -0.546875q-0.125 -0.234375 -0.34375 -0.359375q-0.203125 -0.125 -0.4375 -0.125q-0.234375 0 -0.4375 0.125q-0.203125 0.125 -0.328125 0.359375q-0.125 0.234375 -0.125 0.546875q0 0.3125 0.125 0.546875q0.125 0.234375 0.328125 0.359375q0.203125 0.125 0.4375 0.125zm1.8047943 -2.390625l0.4375 0l0 0.40625l0.015625 0q0.125 -0.203125 0.375 -0.34375q0.25 -0.140625 0.546875 -0.140625q0.375 0 0.671875 0.1875q0.296875 0.1875 0.46875 0.515625q0.171875 0.328125 0.171875 0.734375q0 0.421875 -0.171875 0.75q-0.171875 0.328125 -0.46875 0.515625q-0.296875 0.171875 -0.671875 0.171875q-0.296875 0 -0.546875 -0.140625q-0.25 -0.140625 -0.375 -0.34375l-0.015625 0l0.015625 0.375l0 1.1875l-0.453125 0l0 -3.875zm1.328125 2.390625q0.234375 0 0.4375 -0.125q0.21875 -0.125 0.34375 -0.359375q0.125 -0.234375 0.125 -0.546875q0 -0.3125 -0.125 -0.546875q-0.125 -0.234375 -0.34375 -0.359375q-0.203125 -0.125 -0.4375 -0.125q-0.234375 0 -0.4375 0.125q-0.203125 0.125 -0.328125 0.359375q-0.125 0.234375 -0.125 0.546875q0 0.3125 0.125 0.546875q0.125 0.234375 0.328125 0.359375q0.203125 0.125 0.4375 0.125zm2.1862488 -1.734375q-0.15625 0 -0.25 -0.09375q-0.09375 -0.109375 -0.09375 -0.25q0 -0.140625 0.09375 -0.234375q0.09375 -0.109375 0.25 -0.109375q0.140625 0 0.234375 0.109375q0.09375 0.09375 0.09375 0.234375q0 0.140625 -0.09375 0.25q-0.09375 0.09375 -0.234375 0.09375zm0 2.09375q-0.15625 0 -0.25 -0.09375q-0.09375 -0.109375 -0.09375 -0.25q0 -0.140625 0.09375 -0.234375q0.09375 -0.09375 0.25 -0.09375q0.140625 0 0.234375 0.09375q0.09375 0.09375 0.09375 0.234375q0 0.140625 -0.09375 0.25q-0.09375 0.09375 -0.234375 0.09375zm0.6274872 -0.03125l0 0zm1.548645 -2.71875l0.4375 0l0 0.40625l0.015625 0q0.125 -0.203125 0.375 -0.34375q0.25 -0.140625 0.546875 -0.140625q0.375 0 0.671875 0.1875q0.296875 0.1875 0.46875 0.515625q0.171875 0.328125 0.171875 0.734375q0 0.421875 -0.171875 0.75q-0.171875 0.328125 -0.46875 0.515625q-0.296875 0.171875 -0.671875 0.171875q-0.296875 0 -0.546875 -0.140625q-0.25 -0.140625 -0.375 -0.34375l-0.015625 0l0.015625 0.375l0 1.1875l-0.453125 0l0 -3.875zm1.328125 2.390625q0.234375 0 0.4375 -0.125q0.21875 -0.125 0.34375 -0.359375q0.125 -0.234375 0.125 -0.546875q0 -0.3125 -0.125 -0.546875q-0.125 -0.234375 -0.34375 -0.359375q-0.203125 -0.125 -0.4375 -0.125q-0.234375 0 -0.4375 0.125q-0.203125 0.125 -0.328125 0.359375q-0.125 0.234375 -0.125 0.546875q0 0.3125 0.125 0.546875q0.125 0.234375 0.328125 0.359375q0.203125 0.125 0.4375 0.125zm1.8470764 -2.390625l0.4375 0l0 0.4375l0.015625 0q0.09375 -0.21875 0.3125 -0.359375q0.234375 -0.15625 0.484375 -0.15625q0.1875 0 0.3125 0.046875l0 0.5q-0.171875 -0.09375 -0.375 -0.09375q-0.203125 0 -0.375 0.125q-0.15625 0.109375 -0.265625 0.296875q-0.09375 0.1875 -0.09375 0.40625l0 1.515625l-0.453125 0l0 -2.71875zm3.1036835 2.796875q-0.40625 0 -0.734375 -0.1875q-0.3125 -0.1875 -0.5 -0.515625q-0.171875 -0.328125 -0.171875 -0.734375q0 -0.40625 0.171875 -0.734375q0.1875 -0.328125 0.5 -0.515625q0.328125 -0.1875 0.734375 -0.1875q0.390625 0 0.703125 0.1875q0.328125 0.1875 0.5 0.515625q0.1875 0.328125 0.1875 0.734375q0 0.40625 -0.1875 0.734375q-0.171875 0.328125 -0.5 0.515625q-0.3125 0.1875 -0.703125 0.1875zm0 -0.40625q0.25 0 0.453125 -0.125q0.21875 -0.125 0.34375 -0.359375q0.140625 -0.234375 0.140625 -0.546875q0 -0.3125 -0.140625 -0.546875q-0.125 -0.234375 -0.34375 -0.359375q-0.203125 -0.125 -0.453125 -0.125q-0.25 0 -0.46875 0.125q-0.21875 0.125 -0.359375 0.359375q-0.125 0.234375 -0.125 0.546875q0 0.3125 0.125 0.546875q0.140625 0.234375 0.359375 0.359375q0.21875 0.125 0.46875 0.125zm3.0662231 0.40625q-0.359375 0 -0.65625 -0.171875q-0.296875 -0.1875 -0.46875 -0.515625q-0.171875 -0.328125 -0.171875 -0.75q0 -0.40625 0.171875 -0.734375q0.171875 -0.328125 0.46875 -0.515625q0.296875 -0.1875 0.65625 -0.1875q0.3125 0 0.5625 0.140625q0.25 0.140625 0.375 0.34375l0.015625 0l-0.015625 -0.375l0 -1.125l0.453125 0l0 3.8125l-0.4375 0l0 -0.40625l-0.015625 0q-0.125 0.203125 -0.375 0.34375q-0.25 0.140625 -0.5625 0.140625zm0.0625 -0.40625q0.234375 0 0.4375 -0.125q0.203125 -0.125 0.328125 -0.359375q0.125 -0.234375 0.125 -0.546875q0 -0.3125 -0.125 -0.546875q-0.125 -0.234375 -0.328125 -0.359375q-0.203125 -0.125 -0.4375 -0.125q-0.234375 0 -0.453125 0.125q-0.203125 0.125 -0.328125 0.375q-0.125 0.234375 -0.125 0.53125q0 0.296875 0.125 0.546875q0.125 0.234375 0.328125 0.359375q0.21875 0.125 0.453125 0.125zm2.9888153 0.40625q-0.5 0 -0.765625 -0.28125q-0.25 -0.28125 -0.25 -0.796875l0 -1.71875l0.453125 0l0 1.640625q0 0.390625 0.171875 0.578125q0.1875 0.171875 0.484375 0.171875q0.21875 0 0.390625 -0.109375q0.1875 -0.125 0.28125 -0.328125q0.109375 -0.203125 0.109375 -0.421875l0 -1.53125l0.453125 0l0 2.71875l-0.4375 0l0 -0.390625l-0.015625 0q-0.109375 0.203125 -0.359375 0.34375q-0.25 0.125 -0.515625 0.125zm3.1968079 0q-0.390625 0 -0.703125 -0.1875q-0.3125 -0.1875 -0.5 -0.515625q-0.171875 -0.328125 -0.171875 -0.734375q0 -0.40625 0.171875 -0.734375q0.1875 -0.328125 0.5 -0.515625q0.3125 -0.1875 0.703125 -0.1875q0.453125 0 0.7500076 0.203125q0.296875 0.203125 0.421875 0.546875l-0.40625 0.171875q-0.09375 -0.25 -0.296875 -0.375q-0.20313263 -0.140625 -0.48438263 -0.140625q-0.234375 0 -0.453125 0.140625q-0.203125 0.125 -0.328125 0.359375q-0.125 0.234375 -0.125 0.53125q0 0.296875 0.125 0.53125q0.125 0.234375 0.328125 0.375q0.21875 0.125 0.453125 0.125q0.28125 0 0.48438263 -0.125q0.21875 -0.140625 0.3125 -0.390625l0.40625 0.171875q-0.140625 0.34375 -0.453125 0.546875q-0.29688263 0.203125 -0.7343826 0.203125zm2.695015 -0.03125q-0.15625 0 -0.296875 -0.046875q-0.140625 -0.0625 -0.234375 -0.15625q-0.21875 -0.203125 -0.21875 -0.5625l0 -1.59375l-0.46875 0l0 -0.40625l0.46875 0l0 -0.765625l0.453125 0l0 0.765625l0.671875 0l0 0.40625l-0.671875 0l0 1.484375q0 0.21875 0.078125 0.328125q0.109375 0.125 0.296875 0.125q0.171875 0 0.296875 -0.09375l0 0.4375q-0.078125 0.046875 -0.15625 0.0625q-0.078125 0.015625 -0.21875 0.015625z"/><path fill="#e6e6e6" fill-rule="evenodd" d="m2.394345 85.88263l-0.479949 0.049804688l-0.8602861 0.33503723l-0.6203115 0.6700821l-0.38486484 0.8602295l-0.045278214 0.47992706l0 50.33287l0.045278214 0.47991943l0.38486484 0.86024475l0.6203115 0.67007446l0.8602861 0.33503723l0.479949 0.049804688l59.522743 0l0.47994995 -0.049804688l0.8602829 -0.33503723l0.67012024 -0.67007446l0.384861 -0.86024475l0 -0.47991943l0 -50.33287l0 -0.47992706l-0.384861 -0.8602295l-0.67012024 -0.6700821l-0.8602829 -0.33503723l-0.47994995 -0.049804688z"/><path fill="#fff" fill-rule="evenodd" d="m6.9829316 99.01734l-0.47542143 0.045272827l-0.86028624 0.33503723l-0.6248393 0.6700821l-0.38033676 0.8602371l-0.049806118 0.47991943l0 8.996262l0.049806118 0.4753952l0.38033676 0.86476135l0.6248393 0.6700821l0.86028624 0.33503723l0.47542143 0.045272827l50.340317 0l0.4754219 -0.045272827l0.86481476 -0.33503723l0.6701164 -0.6700821l0.38033676 -0.86476135l0 -0.4753952l0 -8.996262l0 -0.47991943l-0.38033676 -0.8602371l-0.6701164 -0.6700821l-0.86481476 -0.33503723l-0.4754219 -0.045272827z"/><path fill="#000" fill-opacity="0" fill-rule="evenodd" d="m9.069553 99.843834l46.17323 0l0 12.125984l-46.17323 0z"/><path fill="#000" fill-rule="nonzero" d="m26.900064 103.5412l1.609375 0q0.390625 0 0.734375 0.1875q0.34375 0.171875 0.546875 0.5q0.203125 0.3125 0.203125 0.71875q0 0.40625 -0.203125 0.734375q-0.203125 0.328125 -0.546875 0.515625q-0.34375 0.171875 -0.734375 0.171875l-1.046875 0l0 1.9375l-0.5625 0l0 -4.765625zm1.625 2.28125q0.265625 0 0.46875 -0.125q0.203125 -0.125 0.3125 -0.328125q0.109375 -0.203125 0.109375 -0.421875q0 -0.21875 -0.109375 -0.40625q-0.109375 -0.203125 -0.3125 -0.328125q-0.203125 -0.140625 -0.46875 -0.140625l-1.0625 0l0 1.75l1.0625 0zm3.4287415 2.59375q-0.5 0 -0.90625 -0.234375q-0.390625 -0.25 -0.625 -0.65625q-0.21875 -0.421875 -0.21875 -0.921875q0 -0.5 0.21875 -0.90625q0.234375 -0.40625 0.625 -0.640625q0.40625 -0.25 0.90625 -0.25q0.5000019 0 0.8906269 0.25q0.40625 0.234375 0.625 0.640625q0.234375 0.40625 0.234375 0.90625q0 0.5 -0.234375 0.921875q-0.21875 0.40625 -0.625 0.65625q-0.390625 0.234375 -0.8906269 0.234375zm0 -0.515625q0.3125019 0 0.5781269 -0.15625q0.265625 -0.15625 0.421875 -0.4375q0.171875 -0.296875 0.171875 -0.703125q0 -0.390625 -0.171875 -0.671875q-0.15625 -0.296875 -0.421875 -0.453125q-0.265625 -0.15625 -0.5781269 -0.15625q-0.3125 0 -0.59375 0.15625q-0.265625 0.15625 -0.4375 0.453125q-0.15625 0.28125 -0.15625 0.671875q0 0.40625 0.15625 0.703125q0.171875 0.28125 0.4375 0.4375q0.28125 0.15625 0.59375 0.15625zm3.8420734 0.515625q-0.453125 0 -0.828125 -0.234375q-0.359375 -0.234375 -0.578125 -0.640625q-0.21875 -0.40625 -0.21875 -0.9375q0 -0.5 0.21875 -0.90625q0.21875 -0.421875 0.578125 -0.65625q0.375 -0.234375 0.828125 -0.234375q0.390625 0 0.6875 0.1875q0.3125 0.171875 0.46875 0.421875l0.03125 0l-0.03125 -0.46875l0 -1.40625l0.578125 0l0 4.765625l-0.546875 0l0 -0.5l-0.03125 0q-0.15625 0.25 -0.46875 0.4375q-0.296875 0.171875 -0.6875 0.171875zm0.0625 -0.515625q0.296875 0 0.546875 -0.15625q0.265625 -0.15625 0.421875 -0.453125q0.15625 -0.296875 0.15625 -0.6875q0 -0.375 -0.15625 -0.671875q-0.15625 -0.296875 -0.421875 -0.453125q-0.25 -0.15625 -0.546875 -0.15625q-0.296875 0 -0.5625 0.15625q-0.25 0.15625 -0.40625 0.453125q-0.15625 0.296875 -0.15625 0.671875q0 0.390625 0.15625 0.6875q0.15625 0.296875 0.40625 0.453125q0.265625 0.15625 0.5625 0.15625z"/><path fill="#000" fill-opacity="0" fill-rule="evenodd" d="m9.069553 120.843834l46.17323 0l0 12.125984l-46.17323 0z"/><path fill="#000" fill-rule="nonzero" d="m17.945017 128.90495q-0.296875 0 -0.53125 -0.109375q-0.234375 -0.125 -0.359375 -0.328125q-0.125 -0.203125 -0.125 -0.46875q0 -0.421875 0.3125 -0.65625q0.328125 -0.25 0.828125 -0.25q0.25 0 0.453125 0.0625q0.21875 0.046875 0.328125 0.109375l0 -0.15625q0 -0.3125 -0.21875 -0.484375q-0.21875 -0.1875 -0.53125 -0.1875q-0.234375 0 -0.4375 0.09375q-0.1875 0.09375 -0.296875 0.265625l-0.34375 -0.25q0.171875 -0.25 0.453125 -0.375q0.28125 -0.140625 0.625 -0.140625q0.546875 0 0.859375 0.296875q0.3125 0.28125 0.3125 0.78125l0 1.71875l-0.421875 0l0 -0.390625l-0.03125 0q-0.109375 0.203125 -0.34375 0.34375q-0.234375 0.125 -0.53125 0.125zm0.046875 -0.390625q0.21875 0 0.421875 -0.109375q0.203125 -0.125 0.3125 -0.3125q0.125 -0.203125 0.125 -0.4375q-0.125 -0.09375 -0.3125 -0.140625q-0.1875 -0.0625 -0.40625 -0.0625q-0.375 0 -0.5625 0.15625q-0.1875 0.15625 -0.1875 0.40625q0 0.21875 0.171875 0.359375q0.171875 0.140625 0.4375 0.140625zm1.8917694 -2.40625l0.4375 0l0 0.40625l0.015625 0q0.125 -0.203125 0.375 -0.34375q0.25 -0.140625 0.546875 -0.140625q0.375 0 0.671875 0.1875q0.296875 0.1875 0.46875 0.515625q0.171875 0.328125 0.171875 0.734375q0 0.421875 -0.171875 0.75q-0.171875 0.328125 -0.46875 0.515625q-0.296875 0.171875 -0.671875 0.171875q-0.296875 0 -0.546875 -0.140625q-0.25 -0.140625 -0.375 -0.34375l-0.015625 0l0.015625 0.375l0 1.1875l-0.453125 0l0 -3.875zm1.328125 2.390625q0.234375 0 0.4375 -0.125q0.21875 -0.125 0.34375 -0.359375q0.125 -0.234375 0.125 -0.546875q0 -0.3125 -0.125 -0.546875q-0.125 -0.234375 -0.34375 -0.359375q-0.203125 -0.125 -0.4375 -0.125q-0.234375 0 -0.4375 0.125q-0.203125 0.125 -0.328125 0.359375q-0.125 0.234375 -0.125 0.546875q0 0.3125 0.125 0.546875q0.125 0.234375 0.328125 0.359375q0.203125 0.125 0.4375 0.125zm1.8047943 -2.390625l0.4375 0l0 0.40625l0.015625 0q0.125 -0.203125 0.375 -0.34375q0.25 -0.140625 0.546875 -0.140625q0.375 0 0.671875 0.1875q0.296875 0.1875 0.46875 0.515625q0.171875 0.328125 0.171875 0.734375q0 0.421875 -0.171875 0.75q-0.171875 0.328125 -0.46875 0.515625q-0.296875 0.171875 -0.671875 0.171875q-0.296875 0 -0.546875 -0.140625q-0.25 -0.140625 -0.375 -0.34375l-0.015625 0l0.015625 0.375l0 1.1875l-0.453125 0l0 -3.875zm1.328125 2.390625q0.234375 0 0.4375 -0.125q0.21875 -0.125 0.34375 -0.359375q0.125 -0.234375 0.125 -0.546875q0 -0.3125 -0.125 -0.546875q-0.125 -0.234375 -0.34375 -0.359375q-0.203125 -0.125 -0.4375 -0.125q-0.234375 0 -0.4375 0.125q-0.203125 0.125 -0.328125 0.359375q-0.125 0.234375 -0.125 0.546875q0 0.3125 0.125 0.546875q0.125 0.234375 0.328125 0.359375q0.203125 0.125 0.4375 0.125zm2.1862488 -1.734375q-0.15625 0 -0.25 -0.09375q-0.09375 -0.109375 -0.09375 -0.25q0 -0.140625 0.09375 -0.234375q0.09375 -0.109375 0.25 -0.109375q0.140625 0 0.234375 0.109375q0.09375 0.09375 0.09375 0.234375q0 0.140625 -0.09375 0.25q-0.09375 0.09375 -0.234375 0.09375zm0 2.09375q-0.15625 0 -0.25 -0.09375q-0.09375 -0.109375 -0.09375 -0.25q0 -0.140625 0.09375 -0.234375q0.09375 -0.09375 0.25 -0.09375q0.140625 0 0.234375 0.09375q0.09375 0.09375 0.09375 0.234375q0 0.140625 -0.09375 0.25q-0.09375 0.09375 -0.234375 0.09375zm0.6274872 -0.03125l0 0zm1.548645 -2.71875l0.4375 0l0 0.40625l0.015625 0q0.125 -0.203125 0.375 -0.34375q0.25 -0.140625 0.546875 -0.140625q0.375 0 0.671875 0.1875q0.296875 0.1875 0.46875 0.515625q0.171875 0.328125 0.171875 0.734375q0 0.421875 -0.171875 0.75q-0.171875 0.328125 -0.46875 0.515625q-0.296875 0.171875 -0.671875 0.171875q-0.296875 0 -0.546875 -0.140625q-0.25 -0.140625 -0.375 -0.34375l-0.015625 0l0.015625 0.375l0 1.1875l-0.453125 0l0 -3.875zm1.328125 2.390625q0.234375 0 0.4375 -0.125q0.21875 -0.125 0.34375 -0.359375q0.125 -0.234375 0.125 -0.546875q0 -0.3125 -0.125 -0.546875q-0.125 -0.234375 -0.34375 -0.359375q-0.203125 -0.125 -0.4375 -0.125q-0.234375 0 -0.4375 0.125q-0.203125 0.125 -0.328125 0.359375q-0.125 0.234375 -0.125 0.546875q0 0.3125 0.125 0.546875q0.125 0.234375 0.328125 0.359375q0.203125 0.125 0.4375 0.125zm1.8470764 -2.390625l0.4375019 0l0 0.4375l0.015625 0q0.09375 -0.21875 0.3125 -0.359375q0.234375 -0.15625 0.484375 -0.15625q0.1875 0 0.3125 0.046875l0 0.5q-0.171875 -0.09375 -0.375 -0.09375q-0.203125 0 -0.375 0.125q-0.15625 0.109375 -0.265625 0.296875q-0.09375 0.1875 -0.09375 0.40625l0 1.515625l-0.4531269 0l0 -2.71875zm3.1036854 2.796875q-0.40625 0 -0.734375 -0.1875q-0.3125 -0.1875 -0.5 -0.515625q-0.171875 -0.328125 -0.171875 -0.734375q0 -0.40625 0.171875 -0.734375q0.1875 -0.328125 0.5 -0.515625q0.328125 -0.1875 0.734375 -0.1875q0.390625 0 0.703125 0.1875q0.328125 0.1875 0.5 0.515625q0.1875 0.328125 0.1875 0.734375q0 0.40625 -0.1875 0.734375q-0.171875 0.328125 -0.5 0.515625q-0.3125 0.1875 -0.703125 0.1875zm0 -0.40625q0.25 0 0.453125 -0.125q0.21875 -0.125 0.34375 -0.359375q0.140625 -0.234375 0.140625 -0.546875q0 -0.3125 -0.140625 -0.546875q-0.125 -0.234375 -0.34375 -0.359375q-0.203125 -0.125 -0.453125 -0.125q-0.25 0 -0.46875 0.125q-0.21875 0.125 -0.359375 0.359375q-0.125 0.234375 -0.125 0.546875q0 0.3125 0.125 0.546875q0.140625 0.234375 0.359375 0.359375q0.21875 0.125 0.46875 0.125zm3.0662231 0.40625q-0.359375 0 -0.65625 -0.171875q-0.296875 -0.1875 -0.46875 -0.515625q-0.171875 -0.328125 -0.171875 -0.75q0 -0.40625 0.171875 -0.734375q0.171875 -0.328125 0.46875 -0.515625q0.296875 -0.1875 0.65625 -0.1875q0.3125 0 0.5625 0.140625q0.25 0.140625 0.375 0.34375l0.015625 0l-0.015625 -0.375l0 -1.125l0.453125 0l0 3.8125l-0.4375 0l0 -0.40625l-0.015625 0q-0.125 0.203125 -0.375 0.34375q-0.25 0.140625 -0.5625 0.140625zm0.0625 -0.40625q0.234375 0 0.4375 -0.125q0.203125 -0.125 0.328125 -0.359375q0.125 -0.234375 0.125 -0.546875q0 -0.3125 -0.125 -0.546875q-0.125 -0.234375 -0.328125 -0.359375q-0.203125 -0.125 -0.4375 -0.125q-0.234375 0 -0.453125 0.125q-0.203125 0.125 -0.328125 0.375q-0.125 0.234375 -0.125 0.53125q0 0.296875 0.125 0.546875q0.125 0.234375 0.328125 0.359375q0.21875 0.125 0.453125 0.125zm2.9888153 0.40625q-0.5 0 -0.765625 -0.28125q-0.25 -0.28125 -0.25 -0.796875l0 -1.71875l0.453125 0l0 1.640625q0 0.390625 0.171875 0.578125q0.1875 0.171875 0.484375 0.171875q0.21875 0 0.390625 -0.109375q0.1875 -0.125 0.28125 -0.328125q0.109375 -0.203125 0.109375 -0.421875l0 -1.53125l0.453125 0l0 2.71875l-0.4375 0l0 -0.390625l-0.015625 0q-0.109375 0.203125 -0.359375 0.34375q-0.25 0.125 -0.515625 0.125zm3.1968079 0q-0.390625 0 -0.703125 -0.1875q-0.3125 -0.1875 -0.5 -0.515625q-0.171875 -0.328125 -0.171875 -0.734375q0 -0.40625 0.171875 -0.734375q0.1875 -0.328125 0.5 -0.515625q0.3125 -0.1875 0.703125 -0.1875q0.453125 0 0.75 0.203125q0.296875 0.203125 0.421875 0.546875l-0.40625 0.171875q-0.09375 -0.25 -0.296875 -0.375q-0.203125 -0.140625 -0.484375 -0.140625q-0.234375 0 -0.453125 0.140625q-0.203125 0.125 -0.328125 0.359375q-0.125 0.234375 -0.125 0.53125q0 0.296875 0.125 0.53125q0.125 0.234375 0.328125 0.375q0.21875 0.125 0.453125 0.125q0.28125 0 0.484375 -0.125q0.21875 -0.140625 0.3125 -0.390625l0.40625 0.171875q-0.140625 0.34375 -0.453125 0.546875q-0.296875 0.203125 -0.734375 0.203125zm2.6950073 -0.03125q-0.15625 0 -0.296875 -0.046875q-0.140625 -0.0625 -0.234375 -0.15625q-0.21875 -0.203125 -0.21875 -0.5625l0 -1.59375l-0.46875 0l0 -0.40625l0.46875 0l0 -0.765625l0.453125 0l0 0.765625l0.671875 0l0 0.40625l-0.671875 0l0 1.484375q0 0.21875 0.078125 0.328125q0.109375 0.125 0.296875 0.125q0.171875 0 0.296875 -0.09375l0 0.4375q-0.078125 0.046875 -0.15625 0.0625q-0.078125 0.015625 -0.21875 0.015625z"/><path fill="#e6e6e6" fill-rule="evenodd" d="m44.013767 7.391076E-4l-0.47994995 0.04980315l-0.8602829 0.33503935l-0.62031174 0.67007875l-0.3848648 0.86023617l-0.045280457 0.47992122l0 50.332874l0.045280457 0.47992325l0.3848648 0.8602333l0.62031174 0.6700821l0.8602829 0.33503723l0.47994995 0.049804688l59.52274 0l0.47994995 -0.049804688l0.8602905 -0.33503723l0.6701126 -0.6700821l0.3848648 -0.8602333l0 -0.47992325l0 -50.332874l0 -0.47992122l-0.3848648 -0.86023617l-0.6701126 -0.67007875l-0.8602905 -0.33503935l-0.47994995 -0.04980315z"/><path fill="#fff" fill-rule="evenodd" d="m48.602356 13.13545l-0.4754219 0.04527569l-0.8602867 0.33503914l-0.6248398 0.67007923l-0.38033676 0.86023617l-0.049804688 0.47992134l0 8.996259l0.049804688 0.4753952l0.38033676 0.86476326l0.6248398 0.6700783l0.8602867 0.33503914l0.4754219 0.04527664l50.340317 0l0.47542572 -0.04527664l0.8648071 -0.33503914l0.67012024 -0.6700783l0.38034058 -0.86476326l0 -0.4753952l0 -8.996259l0 -0.47992134l-0.38034058 -0.86023617l-0.67012024 -0.67007923l-0.8648071 -0.33503914l-0.47542572 -0.04527569z"/><path fill="#000" fill-opacity="0" fill-rule="evenodd" d="m50.688976 13.961943l46.17323 0l0 12.125984l-46.17323 0z"/><path fill="#000" fill-rule="nonzero" d="m64.4659 22.53431q-0.359375 0 -0.7031212 -0.140625q-0.328125 -0.15625 -0.59375 -0.4375q-0.25 -0.296875 -0.359375 -0.71875l0.53125 -0.21875q0.125 0.421875 0.421875 0.703125q0.3124962 0.265625 0.7187462 0.265625q0.421875 0 0.703125 -0.21875q0.28125 -0.21875 0.28125 -0.609375q0 -0.328125 -0.25 -0.546875q-0.234375 -0.21875 -0.78125 -0.40625l-0.296875 -0.109375q-0.5156212 -0.171875 -0.8437462 -0.46875q-0.3125 -0.296875 -0.3125 -0.8125q0 -0.34375 0.1875 -0.625q0.1875 -0.296875 0.515625 -0.46875q0.3437462 -0.171875 0.7499962 -0.171875q0.421875 0 0.71875 0.15625q0.3125 0.15625 0.484375 0.375q0.1875 0.21875 0.265625 0.4375l-0.53125 0.21875q-0.0625 -0.25 -0.3125 -0.4375q-0.234375 -0.203125 -0.609375 -0.203125q-0.375 0 -0.6406212 0.203125q-0.25 0.203125 -0.25 0.515625q0 0.28125 0.21875 0.46875q0.21875 0.171875 0.6718712 0.3125l0.3125 0.109375q0.59375 0.21875 0.9375 0.546875q0.34375 0.328125 0.34375 0.90625q0 0.453125 -0.234375 0.765625q-0.234375 0.3125 -0.59375 0.46875q-0.359375 0.140625 -0.75 0.140625zm3.8188934 0q-0.5 0 -0.890625 -0.234375q-0.375 -0.234375 -0.59375 -0.640625q-0.21875 -0.40625 -0.21875 -0.921875q0 -0.484375 0.203125 -0.90625q0.203125 -0.421875 0.578125 -0.65625q0.375 -0.25 0.875 -0.25q0.5 0 0.859375 0.21875q0.359375 0.21875 0.546875 0.625q0.203125 0.390625 0.203125 0.890625q0 0.078125 0 0.171875l-2.6875 0q0.015625 0.390625 0.171875 0.65625q0.171875 0.265625 0.421875 0.40625q0.265625 0.125 0.546875 0.125q0.65625 0 1.0 -0.609375l0.484375 0.234375q-0.21875 0.40625 -0.59375 0.65625q-0.375 0.234375 -0.90625 0.234375zm0.96875 -2.171875q-0.015625 -0.203125 -0.125 -0.421875q-0.09375 -0.21875 -0.328125 -0.359375q-0.21875 -0.140625 -0.5625 -0.140625q-0.40625 0 -0.6875 0.265625q-0.28125 0.25 -0.359375 0.65625l2.0625 0zm1.2630463 -1.328125l0.53125 0l0 0.546875l0.03125 0q0.09375 -0.28125 0.375 -0.46875q0.296875 -0.1875 0.609375 -0.1875q0.234375 0 0.40625 0.078125l0 0.609375q-0.21875 -0.109375 -0.484375 -0.109375q-0.25 0 -0.453125 0.140625q-0.203125 0.140625 -0.328125 0.375q-0.125 0.234375 -0.125 0.515625l0 1.890625l-0.5625 0l0 -3.390625zm2.2343903 0l0.609375 0l1.046875 2.71875l0.015625 0l1.0625 -2.71875l0.59375 0l-1.390625 3.390625l-0.5625 0l-1.375 -3.390625zm4.1243896 -0.625q-0.171875 0 -0.296875 -0.125q-0.109375 -0.125 -0.109375 -0.28125q0 -0.171875 0.109375 -0.28125q0.125 -0.125 0.296875 -0.125q0.171875 0 0.28125 0.125q0.125 0.109375 0.125 0.28125q0 0.15625 -0.125 0.28125q-0.109375 0.125 -0.28125 0.125zm-0.28125 0.625l0.5625 0l0 3.390625l-0.5625 0l0 -3.390625zm2.9553223 3.5q-0.484375 0 -0.890625 -0.234375q-0.390625 -0.234375 -0.609375 -0.640625q-0.21875 -0.421875 -0.21875 -0.9375q0 -0.5 0.21875 -0.90625q0.21875 -0.421875 0.609375 -0.65625q0.40625 -0.234375 0.890625 -0.234375q0.5625 0 0.9375 0.265625q0.375 0.25 0.53125 0.671875l-0.515625 0.21875q-0.125 -0.3125 -0.375 -0.46875q-0.25 -0.171875 -0.59375 -0.171875q-0.3125 0 -0.578125 0.171875q-0.25 0.15625 -0.40625 0.453125q-0.15625 0.28125 -0.15625 0.65625q0 0.390625 0.15625 0.6875q0.15625 0.28125 0.40625 0.453125q0.265625 0.15625 0.578125 0.15625q0.359375 0 0.609375 -0.15625q0.265625 -0.171875 0.390625 -0.484375l0.5 0.21875q-0.171875 0.421875 -0.5625 0.6875q-0.375 0.25 -0.921875 0.25zm3.5853043 0q-0.5000076 0 -0.8906326 -0.234375q-0.375 -0.234375 -0.59375 -0.640625q-0.21875 -0.40625 -0.21875 -0.921875q0 -0.484375 0.203125 -0.90625q0.203125 -0.421875 0.578125 -0.65625q0.375 -0.25 0.8750076 -0.25q0.5 0 0.859375 0.21875q0.359375 0.21875 0.546875 0.625q0.203125 0.390625 0.203125 0.890625q0 0.078125 0 0.171875l-2.6875076 0q0.015625 0.390625 0.171875 0.65625q0.171875 0.265625 0.421875 0.40625q0.26563263 0.125 0.5468826 0.125q0.65625 0 1.0 -0.609375l0.484375 0.234375q-0.21875 0.40625 -0.59375 0.65625q-0.375 0.234375 -0.90625 0.234375zm0.96875 -2.171875q-0.015625 -0.203125 -0.125 -0.421875q-0.09375 -0.21875 -0.328125 -0.359375q-0.21875 -0.140625 -0.5625 -0.140625q-0.40625763 0 -0.6875076 0.265625q-0.28125 0.25 -0.359375 0.65625l2.0625076 0z"/><path fill="#000" fill-opacity="0" fill-rule="evenodd" d="m56.730972 34.96194l46.173225 0l0 12.125984l-46.173225 0z"/><path fill="#000" fill-rule="nonzero" d="m58.012222 39.82306q-0.4375 0 -0.734375 -0.203125q-0.28125 -0.203125 -0.40625 -0.515625l0.40625 -0.1875q0.09375 0.25 0.296875 0.390625q0.203125 0.125 0.4375 0.125q0.265625 0 0.4375 -0.09375q0.1875 -0.109375 0.1875 -0.3125q0 -0.171875 -0.15625 -0.265625q-0.140625 -0.109375 -0.4375 -0.1875l-0.34375 -0.078125q-0.3125 -0.078125 -0.53125 -0.265625q-0.203125 -0.203125 -0.203125 -0.5q0 -0.234375 0.140625 -0.40625q0.140625 -0.1875 0.375 -0.28125q0.234375 -0.09375 0.5 -0.09375q0.359375 0 0.640625 0.15625q0.28125 0.140625 0.40625 0.421875l-0.40625 0.1875q-0.171875 -0.359375 -0.640625 -0.359375q-0.21875 0 -0.390625 0.109375q-0.171875 0.09375 -0.171875 0.25q0 0.15625 0.109375 0.25q0.125 0.09375 0.359375 0.140625l0.40625 0.109375q0.390625 0.09375 0.59375 0.296875q0.203125 0.203125 0.203125 0.484375q0 0.25 -0.140625 0.4375q-0.140625 0.1875 -0.390625 0.296875q-0.25 0.09375 -0.546875 0.09375zm2.8125305 0q-0.390625 0 -0.703125 -0.171875q-0.3125 -0.1875 -0.484375 -0.515625q-0.171875 -0.328125 -0.171875 -0.75q0 -0.390625 0.15625 -0.71875q0.171875 -0.328125 0.46875 -0.515625q0.3125 -0.203125 0.703125 -0.203125q0.390625 0 0.6875 0.171875q0.296875 0.171875 0.453125 0.5q0.15625 0.3125 0.15625 0.71875q0 0.0625 -0.015625 0.140625l-2.15625 0q0.015625 0.296875 0.140625 0.515625q0.140625 0.21875 0.34375 0.328125q0.21875 0.09375 0.4375 0.09375q0.53125 0 0.796875 -0.484375l0.390625 0.1875q-0.171875 0.328125 -0.484375 0.515625q-0.296875 0.1875 -0.71875 0.1875zm0.78125 -1.71875q-0.015625 -0.171875 -0.109375 -0.34375q-0.078125 -0.171875 -0.265625 -0.28125q-0.171875 -0.125 -0.4375 -0.125q-0.328125 0 -0.5625 0.203125q-0.21875 0.203125 -0.28125 0.546875l1.65625 0zm0.9997711 -2.171875l0.453125 0l0 3.8125l-0.453125 0l0 -3.8125zm2.31633 3.890625q-0.390625 0 -0.703125 -0.171875q-0.3125 -0.1875 -0.484375 -0.515625q-0.171875 -0.328125 -0.171875 -0.75q0 -0.390625 0.15625 -0.71875q0.171875 -0.328125 0.46875 -0.515625q0.3125 -0.203125 0.703125 -0.203125q0.390625 0 0.6875 0.171875q0.296875 0.171875 0.453125 0.5q0.15625 0.3125 0.15625 0.71875q0 0.0625 -0.015625 0.140625l-2.15625 0q0.015625 0.296875 0.140625 0.515625q0.140625 0.21875 0.34375 0.328125q0.21875 0.09375 0.4375 0.09375q0.53125 0 0.796875 -0.484375l0.390625 0.1875q-0.171875 0.328125 -0.484375 0.515625q-0.296875 0.1875 -0.71875 0.1875zm0.78125 -1.71875q-0.015625 -0.171875 -0.109375 -0.34375q-0.078125 -0.171875 -0.265625 -0.28125q-0.171875 -0.125 -0.4375 -0.125q-0.328125 0 -0.5625 0.203125q-0.21875 0.203125 -0.28125 0.546875l1.65625 0zm2.2608185 1.71875q-0.390625 0 -0.703125 -0.1875q-0.3125 -0.1875 -0.5 -0.515625q-0.171875 -0.328125 -0.171875 -0.734375q0 -0.40625 0.171875 -0.734375q0.1875 -0.328125 0.5 -0.515625q0.3125 -0.1875 0.703125 -0.1875q0.453125 0 0.75 0.203125q0.296875 0.203125 0.421875 0.546875l-0.40625 0.171875q-0.09375 -0.25 -0.296875 -0.375q-0.203125 -0.140625 -0.484375 -0.140625q-0.234375 0 -0.453125 0.140625q-0.203125 0.125 -0.328125 0.359375q-0.125 0.234375 -0.125 0.53125q0 0.296875 0.125 0.53125q0.125 0.234375 0.328125 0.375q0.21875 0.125 0.453125 0.125q0.28125 0 0.484375 -0.125q0.21875 -0.140625 0.3125 -0.390625l0.40625 0.171875q-0.140625 0.34375 -0.453125 0.546875q-0.296875 0.203125 -0.734375 0.203125zm2.6950073 -0.03125q-0.15625 0 -0.296875 -0.046875q-0.140625 -0.0625 -0.234375 -0.15625q-0.21875 -0.203125 -0.21875 -0.5625l0 -1.59375l-0.46875 0l0 -0.40625l0.46875 0l0 -0.765625l0.453125 0l0 0.765625l0.671875 0l0 0.40625l-0.671875 0l0 1.484375q0 0.21875 0.078125 0.328125q0.109375 0.125 0.296875 0.125q0.171875 0 0.296875 -0.09375l0 0.4375q-0.078125 0.046875 -0.15625 0.0625q-0.078125 0.015625 -0.21875 0.015625zm2.051529 0.03125q-0.40625 0 -0.734375 -0.1875q-0.3125 -0.1875 -0.5 -0.515625q-0.171875 -0.328125 -0.171875 -0.734375q0 -0.40625 0.171875 -0.734375q0.1875 -0.328125 0.5 -0.515625q0.328125 -0.1875 0.734375 -0.1875q0.390625 0 0.703125 0.1875q0.328125 0.1875 0.5 0.515625q0.1875 0.328125 0.1875 0.734375q0 0.40625 -0.1875 0.734375q-0.171875 0.328125 -0.5 0.515625q-0.3125 0.1875 -0.703125 0.1875zm0 -0.40625q0.25 0 0.453125 -0.125q0.21875 -0.125 0.34375 -0.359375q0.140625 -0.234375 0.140625 -0.546875q0 -0.3125 -0.140625 -0.546875q-0.125 -0.234375 -0.34375 -0.359375q-0.203125 -0.125 -0.453125 -0.125q-0.25 0 -0.46875 0.125q-0.21875 0.125 -0.359375 0.359375q-0.125 0.234375 -0.125 0.546875q0 0.3125 0.125 0.546875q0.140625 0.234375 0.359375 0.359375q0.21875 0.125 0.46875 0.125zm1.8566437 -2.390625l0.4375 0l0 0.4375l0.015625 0q0.09375 -0.21875 0.3125 -0.359375q0.234375 -0.15625 0.484375 -0.15625q0.1875 0 0.3125 0.046875l0 0.5q-0.171875 -0.09375 -0.375 -0.09375q-0.203125 0 -0.375 0.125q-0.15625 0.109375 -0.265625 0.296875q-0.09375 0.1875 -0.09375 0.40625l0 1.515625l-0.453125 0l0 -2.71875zm2.3105621 0.65625q-0.15625 0 -0.25 -0.09375q-0.09375 -0.109375 -0.09375 -0.25q0 -0.140625 0.09375 -0.234375q0.09375 -0.109375 0.25 -0.109375q0.140625 0 0.234375 0.109375q0.09375 0.09375 0.09375 0.234375q0 0.140625 -0.09375 0.25q-0.09375 0.09375 -0.234375 0.09375zm0 2.09375q-0.15625 0 -0.25 -0.09375q-0.09375 -0.109375 -0.09375 -0.25q0 -0.140625 0.09375 -0.234375q0.09375 -0.09375 0.25 -0.09375q0.140625 0 0.234375 0.09375q0.09375 0.09375 0.09375 0.234375q0 0.140625 -0.09375 0.25q-0.09375 0.09375 -0.234375 0.09375z"/><path fill="#000" fill-rule="nonzero" d="m56.730972 46.144936l0 0zm1.236145 0l0 0zm2.43927 0.078125q-0.296875 0 -0.53125 -0.109375q-0.234375 -0.125 -0.359375 -0.328125q-0.125 -0.203125 -0.125 -0.46875q0 -0.421875 0.3125 -0.65625q0.328125 -0.25 0.828125 -0.25q0.25 0 0.453125 0.0625q0.21875 0.046875 0.328125 0.109375l0 -0.15625q0 -0.3125 -0.21875 -0.484375q-0.21875 -0.1875 -0.53125 -0.1875q-0.234375 0 -0.4375 0.09375q-0.1875 0.09375 -0.296875 0.265625l-0.34375 -0.25q0.171875 -0.25 0.453125 -0.375q0.28125 -0.140625 0.625 -0.140625q0.546875 0 0.859375 0.296875q0.3125 0.28125 0.3125 0.78125l0 1.71875l-0.421875 0l0 -0.390625l-0.03125 0q-0.109375 0.203125 -0.34375 0.34375q-0.234375 0.125 -0.53125 0.125zm0.046875 -0.390625q0.21875 0 0.421875 -0.109375q0.203125 -0.125 0.3125 -0.3125q0.125 -0.203125 0.125 -0.4375q-0.125 -0.09375 -0.3125 -0.140625q-0.1875 -0.0625 -0.40625 -0.0625q-0.375 0 -0.5625 0.15625q-0.1875 0.15625 -0.1875 0.40625q0 0.21875 0.171875 0.359375q0.171875 0.140625 0.4375 0.140625zm1.8917694 -2.40625l0.4375 0l0 0.40625l0.015625 0q0.125 -0.203125 0.375 -0.34375q0.25 -0.140625 0.546875 -0.140625q0.375 0 0.671875 0.1875q0.296875 0.1875 0.46875 0.515625q0.171875 0.328125 0.171875 0.734375q0 0.421875 -0.171875 0.75q-0.171875 0.328125 -0.46875 0.515625q-0.296875 0.171875 -0.671875 0.171875q-0.296875 0 -0.546875 -0.140625q-0.25 -0.140625 -0.375 -0.34375l-0.015625 0l0.015625 0.375l0 1.1875l-0.453125 0l0 -3.875zm1.328125 2.390625q0.234375 0 0.4375 -0.125q0.21875 -0.125 0.34375 -0.359375q0.125 -0.234375 0.125 -0.546875q0 -0.3125 -0.125 -0.546875q-0.125 -0.234375 -0.34375 -0.359375q-0.203125 -0.125 -0.4375 -0.125q-0.234375 0 -0.4375 0.125q-0.203125 0.125 -0.328125 0.359375q-0.125 0.234375 -0.125 0.546875q0 0.3125 0.125 0.546875q0.125 0.234375 0.328125 0.359375q0.203125 0.125 0.4375 0.125zm1.8047943 -2.390625l0.4375 0l0 0.40625l0.015625 0q0.125 -0.203125 0.375 -0.34375q0.25 -0.140625 0.546875 -0.140625q0.375 0 0.671875 0.1875q0.296875 0.1875 0.46875 0.515625q0.171875 0.328125 0.171875 0.734375q0 0.421875 -0.171875 0.75q-0.171875 0.328125 -0.46875 0.515625q-0.296875 0.171875 -0.671875 0.171875q-0.296875 0 -0.546875 -0.140625q-0.25 -0.140625 -0.375 -0.34375l-0.015625 0l0.015625 0.375l0 1.1875l-0.453125 0l0 -3.875zm1.328125 2.390625q0.234375 0 0.4375 -0.125q0.21875 -0.125 0.34375 -0.359375q0.125 -0.234375 0.125 -0.546875q0 -0.3125 -0.125 -0.546875q-0.125 -0.234375 -0.34375 -0.359375q-0.203125 -0.125 -0.4375 -0.125q-0.234375 0 -0.4375 0.125q-0.203125 0.125 -0.328125 0.359375q-0.125 0.234375 -0.125 0.546875q0 0.3125 0.125 0.546875q0.125 0.234375 0.328125 0.359375q0.203125 0.125 0.4375 0.125zm2.1862488 -1.734375q-0.15625 0 -0.25 -0.09375q-0.09375 -0.109375 -0.09375 -0.25q0 -0.140625 0.09375 -0.234375q0.09375 -0.109375 0.25 -0.109375q0.140625 0 0.234375 0.109375q0.09375 0.09375 0.09375 0.234375q0 0.140625 -0.09375 0.25q-0.09375 0.09375 -0.234375 0.09375zm0 2.09375q-0.15625 0 -0.25 -0.09375q-0.09375 -0.109375 -0.09375 -0.25q0 -0.140625 0.09375 -0.234375q0.09375 -0.09375 0.25 -0.09375q0.140625 0 0.234375 0.09375q0.09375 0.09375 0.09375 0.234375q0 0.140625 -0.09375 0.25q-0.09375 0.09375 -0.234375 0.09375zm0.6274872 -0.03125l0 0zm1.548645 -2.71875l0.4375 0l0 0.40625l0.015625 0q0.125 -0.203125 0.375 -0.34375q0.25 -0.140625 0.546875 -0.140625q0.375 0 0.671875 0.1875q0.296875 0.1875 0.46875 0.515625q0.171875 0.328125 0.171875 0.734375q0 0.421875 -0.171875 0.75q-0.171875 0.328125 -0.46875 0.515625q-0.296875 0.171875 -0.671875 0.171875q-0.296875 0 -0.546875 -0.140625q-0.25 -0.140625 -0.375 -0.34375l-0.015625 0l0.015625 0.375l0 1.1875l-0.453125 0l0 -3.875zm1.328125 2.390625q0.234375 0 0.4375 -0.125q0.21875 -0.125 0.34375 -0.359375q0.125 -0.234375 0.125 -0.546875q0 -0.3125 -0.125 -0.546875q-0.125 -0.234375 -0.34375 -0.359375q-0.203125 -0.125 -0.4375 -0.125q-0.234375 0 -0.4375 0.125q-0.203125 0.125 -0.328125 0.359375q-0.125 0.234375 -0.125 0.546875q0 0.3125 0.125 0.546875q0.125 0.234375 0.328125 0.359375q0.203125 0.125 0.4375 0.125zm1.8470764 -2.390625l0.4375 0l0 0.4375l0.015625 0q0.09375 -0.21875 0.3125 -0.359375q0.234375 -0.15625 0.484375 -0.15625q0.1875 0 0.3125 0.046875l0 0.5q-0.171875 -0.09375 -0.375 -0.09375q-0.203125 0 -0.375 0.125q-0.15625 0.109375 -0.265625 0.296875q-0.09375 0.1875 -0.09375 0.40625l0 1.515625l-0.453125 0l0 -2.71875zm3.1036835 2.796875q-0.40625 0 -0.734375 -0.1875q-0.3125 -0.1875 -0.5 -0.515625q-0.171875 -0.328125 -0.171875 -0.734375q0 -0.40625 0.171875 -0.734375q0.1875 -0.328125 0.5 -0.515625q0.328125 -0.1875 0.734375 -0.1875q0.390625 0 0.703125 0.1875q0.328125 0.1875 0.5 0.515625q0.1875 0.328125 0.1875 0.734375q0 0.40625 -0.1875 0.734375q-0.171875 0.328125 -0.5 0.515625q-0.3125 0.1875 -0.703125 0.1875zm0 -0.40625q0.25 0 0.453125 -0.125q0.21875 -0.125 0.34375 -0.359375q0.140625 -0.234375 0.140625 -0.546875q0 -0.3125 -0.140625 -0.546875q-0.125 -0.234375 -0.34375 -0.359375q-0.203125 -0.125 -0.453125 -0.125q-0.25 0 -0.46875 0.125q-0.21875 0.125 -0.359375 0.359375q-0.125 0.234375 -0.125 0.546875q0 0.3125 0.125 0.546875q0.140625 0.234375 0.359375 0.359375q0.21875 0.125 0.46875 0.125zm3.0662231 0.40625q-0.359375 0 -0.65625 -0.171875q-0.296875 -0.1875 -0.46875 -0.515625q-0.171875 -0.328125 -0.171875 -0.75q0 -0.40625 0.171875 -0.734375q0.171875 -0.328125 0.46875 -0.515625q0.296875 -0.1875 0.65625 -0.1875q0.3125 0 0.5625 0.140625q0.25 0.140625 0.375 0.34375l0.015625 0l-0.015625 -0.375l0 -1.125l0.453125 0l0 3.8125l-0.4375 0l0 -0.40625l-0.015625 0q-0.125 0.203125 -0.375 0.34375q-0.25 0.140625 -0.5625 0.140625zm0.0625 -0.40625q0.234375 0 0.4375 -0.125q0.203125 -0.125 0.328125 -0.359375q0.125 -0.234375 0.125 -0.546875q0 -0.3125 -0.125 -0.546875q-0.125 -0.234375 -0.328125 -0.359375q-0.203125 -0.125 -0.4375 -0.125q-0.234375 0 -0.453125 0.125q-0.203125 0.125 -0.328125 0.375q-0.125 0.234375 -0.125 0.53125q0 0.296875 0.125 0.546875q0.125 0.234375 0.328125 0.359375q0.21875 0.125 0.453125 0.125zm2.9888153 0.40625q-0.5 0 -0.765625 -0.28125q-0.25 -0.28125 -0.25 -0.796875l0 -1.71875l0.453125 0l0 1.640625q0 0.390625 0.171875 0.578125q0.1875 0.171875 0.484375 0.171875q0.21875 0 0.390625 -0.109375q0.1875 -0.125 0.28125 -0.328125q0.109375 -0.203125 0.109375 -0.421875l0 -1.53125l0.453125 0l0 2.71875l-0.4375 0l0 -0.390625l-0.015625 0q-0.109375 0.203125 -0.359375 0.34375q-0.25 0.125 -0.515625 0.125zm3.1968079 0q-0.390625 0 -0.703125 -0.1875q-0.3125 -0.1875 -0.5 -0.515625q-0.171875 -0.328125 -0.171875 -0.734375q0 -0.40625 0.171875 -0.734375q0.1875 -0.328125 0.5 -0.515625q0.3125 -0.1875 0.703125 -0.1875q0.453125 0 0.75 0.203125q0.296875 0.203125 0.421875 0.546875l-0.40625 0.171875q-0.09375 -0.25 -0.296875 -0.375q-0.203125 -0.140625 -0.484375 -0.140625q-0.234375 0 -0.453125 0.140625q-0.203125 0.125 -0.328125 0.359375q-0.125 0.234375 -0.125 0.53125q0 0.296875 0.125 0.53125q0.125 0.234375 0.328125 0.375q0.21875 0.125 0.453125 0.125q0.28125 0 0.484375 -0.125q0.21875 -0.140625 0.3125 -0.390625l0.40625 0.171875q-0.140625 0.34375 -0.453125 0.546875q-0.296875 0.203125 -0.734375 0.203125zm2.6950073 -0.03125q-0.15625 0 -0.296875 -0.046875q-0.140625 -0.0625 -0.234375 -0.15625q-0.21875 -0.203125 -0.21875 -0.5625l0 -1.59375l-0.46875 0l0 -0.40625l0.46875 0l0 -0.765625l0.453125 0l0 0.765625l0.671875 0l0 0.40625l-0.671875 0l0 1.484375q0 0.21875 0.078125 0.328125q0.109375 0.125 0.296875 0.125q0.171875 0 0.296875 -0.09375l0 0.4375q-0.078125 0.046875 -0.15625 0.0625q-0.078125 0.015625 -0.21875 0.015625z"/><path fill="#000" fill-opacity="0" fill-rule="evenodd" d="m75.11155 53.85958c0 11.496063 10.070862 17.244095 20.141731 22.992126c10.070869 5.7480316 20.141731 11.496063 20.141731 22.992126"/><path fill-rule="evenodd" stroke="#476baf" stroke-dasharray="4 3" stroke-linecap="butt" stroke-linejoin="round" stroke-width="1" d="m75.11155 53.85958c0 11.496063 10.070862 17.244095 20.141731 22.992126c5.035431 2.8740158 10.070869 5.7480316 13.847443 9.340553c1.8882828 1.796257 3.4618607 3.7721405 4.563362 6.0174637c0.55075073 1.1226654 0.98348236 2.3126907 1.2785187 3.5812988c0.036888123 0.15857697 0.07161713 0.31838226 0.104156494 0.47943115l0.03010559 0.16108704"/><path fill="#476baf" fill-rule="evenodd" stroke="#476baf" stroke-linecap="butt" stroke-width="1" d="m115.076866 96.43154l-1.2241211 -1.0153275l1.4065552 2.9720306l0.832901 -3.1808243z"/><path fill="#000" fill-opacity="0" fill-rule="evenodd" d="m74.86483 54.363518c0 11.370079 -10.677162 17.055115 -21.354332 22.740158c-10.677166 5.6850357 -21.354332 11.370079 -21.354332 22.740158"/><path fill-rule="evenodd" stroke="#476baf" stroke-dasharray="4 3" stroke-linecap="butt" stroke-linejoin="round" stroke-width="1" d="m74.86483 54.363518c0 11.370079 -10.677162 17.055115 -21.354332 22.740158c-5.338581 2.8425217 -10.677166 5.6850357 -14.681103 9.23819c-2.0019684 1.7765732 -3.6702728 3.7308044 -4.838089 5.951523c-0.5839081 1.1103592 -1.0426941 2.2873383 -1.3554993 3.5420456c-0.039100647 0.15683746 -0.075920105 0.314888 -0.11042023 0.47418213l-0.024936676 0.12447357"/><path fill="#476baf" fill-rule="evenodd" stroke="#476baf" stroke-linecap="butt" stroke-width="1" d="m32.50045 96.43408l-1.0059204 -1.2318649l0.8084984 3.187111l1.4292908 -2.9611664z"/></g></svg>