<svg xmlns="http://www.w3.org/2000/svg" fill="none" stroke-linecap="square" stroke-miterlimit="10" viewBox="0 0 800 600"><clipPath id="a"><path d="M0 0h800v600H0V0z"/></clipPath><g clip-path="url(#a)"><path fill="#000" fill-opacity="0" fill-rule="evenodd" d="M0 0h800v600H0z"/><path fill="#ededed" fill-rule="evenodd" d="M115.8 493.4c-1.992 0-3.682 1.69-3.682 3.68v73.937c0 1.992 1.69 3.682 3.682 3.682h577.86c2.09 0 3.782-1.59 3.782-3.682V497.08c0-1.99-1.693-3.68-3.682-3.68z"/><path fill="#434343" fill-rule="evenodd" d="M368.31 87.37c.601 0 1.223.207 1.638.62.396.498.695 1.097.596 1.792.1.596-.2 1.294-.696 1.69-.598.499-1.294.698-1.992.698h-2.785v-4.776h2.885c.115-.016.236-.024.354-.024zm70.05 0c.577 0 1.144.207 1.643.62.399.498.596 1.097.596 1.792.1.596-.197 1.294-.696 1.69-.598.499-1.294.698-1.99.698h-2.687v-4.776h2.787a2.53 2.53 0 0 1 .347-.024zm-102.65-.871v10.648h.895V91.97h6.07v5.176h.896V86.499h-.895v4.777h-6.071v-4.777zm9.753 0v.795h3.583v9.853h.895v-9.853h3.682v-.795zm8.956 0v.795H358v9.853h.895v-9.853h3.683v-.795zm28.459 0l-3.583 1.393v.796l2.887-1.195v9.654h.795V86.499zm5.013 9.454c-.187 0-.386.1-.536.296-.097.1-.097.2-.097.4 0 .099 0 .199.097.298.1.2.3.2.5.2.298 0 .398 0 .498-.2a.487.487 0 0 0 0-.698.512.512 0 0 0-.462-.296zm6.83-9.454l-3.583 1.393v.796l2.787-1.195v9.654h.895V86.499zm11.143 0v10.648h.898V91.97h6.068v5.176h.898V86.499h-.898v4.777h-6.068v-4.777zm9.754 0v.795h3.582v9.853h.895v-9.853h3.683v-.795zm8.855 0v.795h3.583v9.853h.895v-9.853h3.682v-.795zm27.874-.218a2.48 2.48 0 0 0-.31.018c-.595 0-1.194.1-1.69.4-.499.196-.895.595-1.194 1.094-.2.496-.3.994-.3 1.59h.799c0-.695.197-1.294.695-1.69a2.324 2.324 0 0 1 1.69-.698c.599 0 1.195.2 1.594.698.399.396.695.995.695 1.59 0 .5-.197.898-.396 1.394-.399.599-.798 1.194-1.294 1.693l-3.583 4.079v.698h6.567v-.798h-5.572l2.987-3.383c.695-.596 1.194-1.394 1.59-2.19.798-1.193.699-2.787-.299-3.781-.606-.434-1.289-.714-1.979-.714zm-84.15.396c-.115 0-.23.008-.346.021h-3.583v10.546h.798v-4.079h2.785c.897 0 1.892-.299 2.588-.895.695-.598 1.094-1.493.994-2.388.1-.895-.299-1.793-.994-2.389a3.52 3.52 0 0 0-2.242-.816zm70.055 0c-.115 0-.23.008-.344.021h-3.682v10.546h.895v-4.079h2.787c.895 0 1.79-.299 2.586-.895.698-.598 1.094-1.493.997-2.388 0-.895-.3-1.793-.997-2.389a3.518 3.518 0 0 0-2.242-.816zm-61.444-.178l-4.48 11.643h.698l4.478-11.643zm70.055 0l-4.477 11.643h.695l4.478-11.643zm-47.667 9.254v1.095c0 .695-.2 1.294-.596 1.89l.496.398c.599-.698.995-1.593.995-2.488v-.895zm58.215 0v1.095c0 .695-.2 1.294-.598 1.89l.498.398c.696-.698 1.095-1.593.995-2.488v-.895zm-96.328 9.055c.798 0 1.494.2 1.99.596.598.499.798 1.095.798 1.793.1.596-.2 1.194-.599 1.59-.596.4-1.194.599-1.89.599h-2.787v-4.578zm68.42-.026c.601 0 1.223.207 1.638.622.396.499.696 1.095.596 1.693.1.696-.2 1.394-.696 1.79a3.588 3.588 0 0 1-1.992.598h-2.585v-4.677h2.685a2.65 2.65 0 0 1 .354-.026zm-58.079 0c.633 0 1.187.207 1.601.622.496.499.696 1.095.696 1.793 0 .596-.297 1.294-.796 1.69-.598.499-1.294.698-1.989.698h-2.688l.1-.1v-4.677h2.688c.13-.015.262-.026.388-.026zm65.785 4.703v.796h3.483v-.796zm4.281 0v.796h3.483v-.796zm-89.622-2.207c.084 0 .17.005.26.018.499 0 .995.1 1.394.3.396.296.695.695.895 1.191v3.583c-.279.924-1.153 1.504-2.074 1.504a1.97 1.97 0 0 1-.215-.01c-.074.01-.144.015-.215.015-.604 0-1.121-.365-1.478-.81-.496-.799-.696-1.594-.596-2.39-.1-.894.1-1.792.596-2.587.35-.52.848-.814 1.433-.814zm40.562.218c.499 0 .995.1 1.394.396.496.2.795.599.995 1.095.299.498.398 1.094.398 1.593v.2c0 .795-.199 1.69-.797 2.288-.496.596-1.168.895-1.84.895-.672 0-1.344-.3-1.84-.895-.499-.598-.798-1.493-.798-2.289h-.1c0-.895.2-1.692.798-2.388.396-.599 1.095-.895 1.79-.895zm13.433-3.583v.696h3.683v9.853h.797v-9.853h3.78v-.696zm-4.974 2.685c-.895 0-1.792.499-2.189 1.394v-1.194h-.897v7.76h.897v-5.471c.197-.397.496-.895.895-1.195.3-.396.796-.496 1.294-.496h.696v-.598c-.2-.1-.4-.2-.696-.2zm28.441-2.6c-.094 0-.186.004-.28.015h-3.583v10.546h.798v-4.079h2.784c.898 0 1.893-.3 2.588-.895.699-.499 1.095-1.394.995-2.289.1-.895-.296-1.792-.995-2.388-.624-.535-1.488-.91-2.307-.91zm-67.766-.1c-.094 0-.189.005-.28.015H357.8v10.55h.795v-4.282h3.186l2.486 4.478h.997v-.197l-2.687-4.38c.695-.297 1.194-.696 1.69-1.195.299-.496.598-1.194.598-1.89 0-.795-.399-1.593-.995-2.188-.624-.536-1.49-.911-2.307-.911zm9.746.194c-.124 0-.247.007-.373.02h-3.583v10.547h.895v-4.08h2.688c.995 0 1.89-.298 2.585-.894.698-.599 1.095-1.494.998-2.389.097-.895-.3-1.792-.998-2.388a3.344 3.344 0 0 0-2.212-.816zm8.882-.478c-.798 0-1.494.2-2.19.695-.598.4-1.096.998-1.493 1.693-.299.796-.498 1.69-.498 2.489v1.393c0 .796.199 1.69.498 2.486.3.698.795 1.294 1.394 1.693a5.725 5.725 0 0 0 2.09.695c.994 0 1.989-.296 2.784-.895.698-.695 1.194-1.593 1.194-2.588h-.795c0 1.475-1.197 2.61-2.638 2.61-.115 0-.23-.006-.346-.022-.898 0-1.793-.399-2.29-1.094a5.49 5.49 0 0 1-.897-2.985v-1.294c0-1.094.3-2.089.898-2.986.454-.636 1.241-1.108 2.058-1.108.076 0 .152.005.23.013.06-.003.124-.005.184-.005 1.507 0 2.706 1.163 2.8 2.693h.796c0-.895-.396-1.79-1.094-2.488-.696-.696-1.69-.995-2.686-.995zm12.438 2.984c-.699 0-1.394.2-1.89.499-.599.3-.998.795-1.294 1.394-.2.595-.4 1.294-.3 1.99h-.199v.099a5.12 5.12 0 0 0 .995 2.984c.698.798 1.593 1.194 2.488 1.194.696 0 1.394-.2 1.89-.496.598-.299.997-.798 1.294-1.393.3-.696.499-1.394.499-2.09v-.2c0-.994-.4-1.989-.995-2.786-.698-.796-1.593-1.195-2.488-1.195zm26.669-2.984c-.699 0-1.494.2-2.09.695-.598.4-1.094.998-1.493 1.693-.399.796-.499 1.69-.499 2.489v1.393c0 .796.1 1.69.499 2.486.2.698.695 1.294 1.394 1.693.595.399 1.39.596 2.089.695.995 0 1.99-.296 2.785-.895.698-.695 1.194-1.593 1.194-2.588h-.895c.092 1.475-1.181 2.61-2.638 2.61-.113 0-.23-.006-.346-.022-.895 0-1.693-.399-2.19-1.094-.698-.895-.994-1.99-.897-2.985v-1.294c-.097-1.094.2-2.089.898-2.986.454-.636 1.157-1.108 1.96-1.108.076 0 .152.005.229.013.06-.003.123-.005.183-.005 1.515 0 2.8 1.163 2.8 2.693h.896a4.678 4.678 0 0 0-1.095-2.488c-.695-.696-1.69-.995-2.785-.995zm-67.538 2.971c-.785 0-1.475.394-1.922 1.108-.695.798-.994 1.792-.895 2.887 0 .994.2 2.089.696 3.084.598.698 1.394 1.094 2.289 1.094.994 0 1.89-.396 2.488-1.194v.995c0 .598-.2 1.194-.599 1.693-.496.399-1.094.598-1.79.598-.895 0-1.69-.399-2.189-1.097l-.498.499c.299.399.698.695 1.194.994.498.2 1.094.4 1.593.4.895 0 1.79-.3 2.389-.896.595-.598.994-1.493.895-2.388v-7.664h-.895v1.094c-.457-.727-1.329-1.204-2.234-1.204-.084 0-.17.002-.255.01a3.097 3.097 0 0 0-.267-.013zm9.322 14.743c-.299 0-.496.197-.496.496 0 .2.1.3.197.399 0 .1.1.1.3.1.299 0 .398 0 .498-.1.2-.2.2-.499 0-.698-.1-.197-.2-.197-.499-.197zm48.163 0c-.296 0-.496.197-.496.496 0 .2.1.3.1.399 0 .1.2.1.396.1.3 0 .4 0 .5-.1a.483.483 0 0 0 0-.698c-.1-.197-.2-.197-.5-.197zm-25.499 3.654c.405 0 .796.162 1.121.325.496.3.795.698.995 1.194.296.499.396.995.396 1.593v.1c0 .895-.197 1.69-.795 2.389a2.477 2.477 0 0 1-3.683 0c-.496-.699-.795-1.494-.795-2.389h-.1c0-.898.2-1.693.796-2.388a1.83 1.83 0 0 1 1.792-.798c.092-.019.182-.027.273-.027zm44.042.007c.09 0 .176.008.265.019.5 0 .896.1 1.394.299.4.3.795.698.995 1.194.2.499.3.995.3 1.593v.1c.099.895-.2 1.69-.699 2.389a2.541 2.541 0 0 1-1.89.818 2.545 2.545 0 0 1-1.89-.818c-.498-.699-.797-1.494-.698-2.389h-.1c-.097-.898.2-1.693.699-2.388.433-.523 1.02-.817 1.624-.817zm-67.005-.876v7.86h.798v-7.86zm40.801-.1l-1.89 6.07-.1.696-.199-.595-1.692-6.071h-.895l2.288 7.86h.698l1.99-6.267.1-.499.2.4 1.989 6.17h.695l2.289-7.764h-.895l-1.59 6.07-.2.696-.2-.795-1.89-5.97zm7.465.1v7.86h.795v-7.86zm-55.627-.1l-1.892 6.07-.098.696-.1-.595-1.792-5.971h-.895l2.289 7.86h.695l1.992-6.267.197-.499.1.399 1.992 6.268h.696l2.288-7.861H358l-1.593 6.07-.1.597-.296-.796-1.893-5.97zm15.423-3.184v11.244h.698v-5.372c.3-.5.596-.995.995-1.394.399-.3.895-.496 1.394-.496.496 0 .994.1 1.393.496.397.3.496.798.496 1.493v5.273h.895V126.8c0-.695-.196-1.493-.695-2.089a1.975 1.975 0 0 0-1.79-.698c-.599 0-1.097.1-1.494.3a3.397 3.397 0 0 0-.994.897v-4.38zm22.892 3.273c-.83 0-1.625.575-1.995 1.405v-1.294h-.895v7.86h.895v-5.472c.2-.496.499-.895.898-1.294.296-.3.795-.496 1.291-.496h.698v-.598c-.2-.1-.399-.1-.698-.1a1.577 1.577 0 0 0-.194-.01zm25.273-3.273v11.244h.795v-5.372c.3-.5.599-.995.995-1.394.399-.3.895-.496 1.394-.496.498 0 .994.1 1.393.496.397.3.497.798.497 1.493v5.273h.897V126.8c0-.695-.2-1.493-.698-2.089a1.975 1.975 0 0 0-1.79-.698c-.598 0-1.095.1-1.493.3-.5.298-.895.695-1.195 1.193v-4.677zm16.617 3.184v5.076c0 .795.2 1.593.598 2.19.496.598 1.195.794 1.89.794.087.01.17.014.255.014.892 0 1.688-.47 2.233-1.108h.1v.798h.895v-7.764h-.895v5.672c-.265.882-1.073 1.528-1.945 1.528-.113 0-.228-.011-.344-.035-1.294 0-1.89-.695-1.89-2.189v-4.976zm-69.16-1.89v1.99h-1.49v.698h1.49v5.273c0 .499.1.995.399 1.493.247.328.63.523.982.523a.814.814 0 0 0 .212-.027c.4 0 .696 0 .995-.1v-.795c-.2.1-.499.1-.696.1-.399 0-.598 0-.798-.2-.1-.299-.199-.695-.199-.994v-5.273h1.593v-.698h-1.593v-1.99zm48.165 0v1.99h-1.493v.698h1.493v5.273c0 .499.097.995.396 1.493.247.328.565.523.948.523.079 0 .163-.008.247-.027.399 0 .698 0 .994-.1v-.795c-.2.1-.496.1-.695.1-.4 0-.696 0-.796-.2-.199-.299-.199-.695-.199-.994v-5.273h1.59v-.698h-1.59v-1.99zm29.554 0v1.99h-1.493v.698h1.493v5.273c0 .499.1.995.399 1.493a1.299 1.299 0 0 0 1.294.496c.296 0 .596 0 .995-.1v-.795c-.3.1-.499.1-.798.1-.397 0-.596 0-.696-.2a1.908 1.908 0 0 1-.299-.994v-5.273h1.593v-.698h-1.593v-1.99zm-58.871 1.966c-.572 0-1.12.192-1.533.522-.596.3-.995.796-1.294 1.394-.197.596-.396 1.291-.296 1.99h-.2v.1c0 1.094.396 2.089.995 2.984.695.698 1.593 1.094 2.488 1.094.696 0 1.394-.1 1.89-.496.598-.3.995-.798 1.294-1.394a4.96 4.96 0 0 0 .498-2.089v-.1c0-1.094-.398-2.089-.997-2.887-.635-.635-1.438-1.107-2.257-1.107a2.22 2.22 0 0 0-.228.013 2.757 2.757 0 0 0-.36-.024zm44.491 0c-.551 0-1.047.192-1.54.522-.5.3-.995.796-1.195 1.394-.3.596-.399 1.291-.399 1.99h-.1v.1c0 1.094.3 2.089.995 2.984.599.698 1.494 1.094 2.488 1.094.699 0 1.294-.1 1.893-.496.496-.3.995-.798 1.194-1.394.396-.598.496-1.393.496-2.089v-.1c0-1.094-.3-2.089-.995-2.887-.546-.635-1.34-1.107-2.233-1.107-.084 0-.168.005-.255.013a2.66 2.66 0 0 0-.349-.024zm-45.688 17.13c-.079 0-.157.004-.236.01-.496 0-.995.1-1.494.399a1.978 1.978 0 0 0-1.094 1.094v-1.294h-.895v7.764h.895v-5.276c.1-.595.399-1.094.898-1.393a1.3 1.3 0 0 1 1.293-.496c.796 0 1.292.1 1.491.496.4.399.599.897.499 1.493v5.176h.895v-5.176c.1-.596.399-1.094.795-1.493.4-.397.995-.596 1.593-.596.696 0 1.195.1 1.494.496.396.399.596.997.496 1.593v5.176h.698v-5.176c0-1.89-.798-2.787-2.588-2.787-.499 0-.995.2-1.493.399-.496.2-.895.598-1.095 1.094-.37-.924-1.165-1.504-2.152-1.504zm9.018-2.476v.795h3.583v9.85h.895v-9.85h3.683v-.795zm9.754 0v10.646h6.168v-.795h-5.273v-9.85zm10.769-.12c-.845 0-1.617.293-2.313.816-.595.398-.895 1.194-.994 1.99 0 .797.498 1.492 1.194 1.991.698.396 1.493.795 2.289.995.797.1 1.593.496 2.288.995.4.299.599.795.599 1.294 0 .595-.3 1.194-.698 1.49-.494.331-1.058.525-1.633.525-.118 0-.236-.01-.357-.026-.105.013-.21.019-.312.019-.69 0-1.37-.27-1.977-.617-.595-.397-.895-.995-.895-1.69h-.795c0 1.194.696 2.188 1.79 2.687.696.297 1.394.396 2.19.396.894 0 1.792-.2 2.587-.795.596-.399.995-1.194.995-1.99 0-.498-.1-.897-.4-1.293a2.54 2.54 0 0 0-1.094-.995c-.695-.499-1.393-.798-2.089-.898a8.335 8.335 0 0 1-2.189-.895c-.3-.396-.598-.895-.598-1.393 0-.497.299-.995.798-1.292.493-.33 1.057-.525 1.632-.525.118 0 .239.008.357.027.115-.016.234-.027.35-.027.577 0 1.143.208 1.64.622.498.4.797 1.095.698 1.693h.895c0-.498-.2-1.094-.499-1.593-.297-.496-.696-.895-1.291-1.094-.599-.297-1.195-.397-1.793-.397a3.638 3.638 0 0 0-.375-.02z"/><path fill="#000" fill-rule="evenodd" d="M205.15 449.81v-67.171"/><path fill="#000" fill-opacity="0" fill-rule="evenodd" d="M205.15 449.81v-2.486"/><path fill-rule="evenodd" stroke="#476baf" stroke-linecap="butt" stroke-miterlimit="37.914" stroke-width="2.488" d="M205.15 449.81v-2.486"/><path fill="#000" fill-opacity="0" fill-rule="evenodd" d="M205.15 441.85v-40.798"/><path fill-rule="evenodd" stroke="#476baf" stroke-dasharray="9.953 7.465" stroke-linecap="butt" stroke-miterlimit="37.914" stroke-width="2.488" d="M205.15 441.85v-40.798"/><path fill="#000" fill-opacity="0" fill-rule="evenodd" d="M205.15 398.37v-2.488"/><path fill-rule="evenodd" stroke="#476baf" stroke-linecap="butt" stroke-miterlimit="37.914" stroke-width="2.488" d="M205.15 398.37v-2.488"/><path fill="#476baf" fill-rule="evenodd" d="M205.15 387.02l-6.268 10.646h12.438l-6.17-10.646z"/><path fill="#000" fill-rule="evenodd" d="M205.15 449.81l52.344-30.249"/><path fill="#000" fill-opacity="0" fill-rule="evenodd" d="M205.15 449.81l2.09-1.194"/><path fill-rule="evenodd" stroke="#476baf" stroke-linecap="butt" stroke-miterlimit="37.914" stroke-width="2.488" d="M205.15 449.81l2.09-1.194"/><path fill="#000" fill-opacity="0" fill-rule="evenodd" d="M211.33 446.23l30.648-17.711"/><path fill-rule="evenodd" stroke="#476baf" stroke-dasharray="9.953 7.465" stroke-linecap="butt" stroke-miterlimit="37.914" stroke-width="2.488" d="M211.33 446.23l30.648-17.711"/><path fill="#000" fill-opacity="0" fill-rule="evenodd" d="M243.97 427.43l2.09-1.194"/><path fill-rule="evenodd" stroke="#476baf" stroke-linecap="butt" stroke-miterlimit="37.914" stroke-width="2.488" d="M243.97 427.43l2.09-1.194"/><path fill="#476baf" fill-rule="evenodd" d="M241.48 421.75l6.168 10.646 6.17-10.646z"/><path fill="#000" fill-opacity="0" fill-rule="evenodd" d="M604.4 448.72v-2.488"/><path fill-rule="evenodd" stroke="#476baf" stroke-linecap="butt" stroke-miterlimit="37.914" stroke-width="2.488" d="M604.4 448.72v-2.488"/><path fill="#000" fill-opacity="0" fill-rule="evenodd" d="M604.4 441.46v-34.533"/><path fill-rule="evenodd" stroke="#476baf" stroke-dasharray="9.953 7.465" stroke-linecap="butt" stroke-miterlimit="37.914" stroke-width="2.488" d="M604.4 441.46v-34.533"/><path fill="#000" fill-opacity="0" fill-rule="evenodd" d="M604.4 404.54v-2.488"/><path fill-rule="evenodd" stroke="#476baf" stroke-linecap="butt" stroke-miterlimit="37.914" stroke-width="2.488" d="M604.4 404.54v-2.488"/><path fill="#476baf" fill-rule="evenodd" d="M604.4 393.09l-6.17 10.848h12.338L604.4 393.09z"/><path fill="#000" fill-opacity="0" fill-rule="evenodd" d="M604.4 448.72l-2.488-.795"/><path fill-rule="evenodd" stroke="#476baf" stroke-linecap="butt" stroke-miterlimit="37.914" stroke-width="2.488" d="M604.4 448.72l-2.488-.795"/><path fill="#000" fill-opacity="0" fill-rule="evenodd" d="M597.63 446.83l-41.696-11.144"/><path fill-rule="evenodd" stroke="#476baf" stroke-dasharray="9.953 7.465" stroke-linecap="butt" stroke-miterlimit="37.914" stroke-width="2.488" d="M597.63 446.83l-41.696-11.144"/><path fill="#000" fill-opacity="0" fill-rule="evenodd" d="M553.84 434.99l-2.389-.596"/><path fill-rule="evenodd" stroke="#476baf" stroke-linecap="butt" stroke-miterlimit="37.914" stroke-width="2.488" d="M553.84 434.99l-2.389-.596"/><path fill="#476baf" fill-rule="evenodd" d="M554.84 428.92l-12.139 3.286 8.856 8.656 3.283-11.942z"/><path fill="#434343" fill-rule="evenodd" d="M385.58 219.52a.938.938 0 0 0-.604.22c-.1.3-.2.4-.2.599 0 .399.1.499.2.499.197.196.423.296.646.296.223 0 .449-.1.646-.296.1-.1.2-.3.2-.5 0-.48-.426-.818-.888-.818zm-18.118 1.514c.596 0 1.194.2 1.59.599a1.99 1.99 0 0 1 0 2.984c-.412.33-.892.522-1.383.522-.102 0-.204-.008-.307-.023h-2.488v-4.082zm58.711 2.489c.496 0 .995.2 1.394.498.396.496.595 1.095.595 1.69h-3.979c0-.595.197-1.194.596-1.59a1.963 1.963 0 0 1 1.394-.598zm-50.255 0c.698 0 1.294.299 1.593.798.4.695.696 1.39.696 2.189 0 .795-.197 1.59-.696 2.189-.299.496-.995.795-1.593.795-.596 0-1.194-.3-1.59-.796-.4-.598-.699-1.294-.599-2.089-.1-.798.1-1.693.598-2.388.397-.499.995-.698 1.591-.698zm-8.15-3.796c-.102 0-.204.006-.307.013h-3.981v10.648h1.393v-4.178h2.588a4.036 4.036 0 0 0 2.785-.795c.599-.699.995-1.494.995-2.389a3.46 3.46 0 0 0-.995-2.388c-.714-.536-1.588-.911-2.478-.911zm70.942-.582v11.244h1.394v-2.785l.895-.898 2.688 3.683h1.69l-3.483-4.678 3.087-3.283h-1.593l-2.489 2.588-.795.795v-6.667zm-57.417.1v11.243h1.394v-11.244zm3.583 3.383v7.86h1.391v-7.86zm29.853-3.384v11.244h1.394v-5.672c.097-.299.396-.595.695-.795.3-.299.796-.399 1.195-.399a.868.868 0 0 1 .217-.026c.35 0 .73.178.977.425.299.3.399.795.399 1.194v5.273h1.39v-5.273c0-1.892-.894-2.887-2.487-2.887-.995 0-1.79.4-2.386 1.194v-4.278zm-23.6 3.158a2.44 2.44 0 0 0-1.479.525c-.595.296-.994.795-1.29 1.294a4.723 4.723 0 0 0-.4 1.99v.299c0 1.094.4 2.089.995 2.984.638.638 1.522 1.107 2.43 1.107.087 0 .171-.005.258-.013.496 0 .994-.1 1.49-.399a2.56 2.56 0 0 0 1.097-.994 1.84 1.84 0 0 0 .497-1.195h-1.294c0 .4-.2.898-.596 1.095-.4.3-.798.399-1.194.399a2.13 2.13 0 0 1-1.693-.795c-.397-.599-.596-1.294-.596-2.09v-.299c0-.698.2-1.493.596-2.089.346-.433.845-.717 1.428-.717.086 0 .173.006.265.019a.943.943 0 0 1 .212-.024c.35 0 .733.192.982.522.396.3.596.696.596 1.195h1.294c-.1-.798-.4-1.494-.995-2.09-.606-.435-1.213-.716-1.95-.716-.11 0-.223.005-.339.018a2.068 2.068 0 0 0-.315-.026zm18.566 0c-.572 0-1.123.194-1.535.525-.596.296-.995.795-1.292 1.294-.2.695-.399 1.291-.299 1.99v.299c-.1 1.094.3 2.089.995 2.984.546.638 1.425 1.107 2.33 1.107.087 0 .171-.005.258-.013.496 0 .995-.1 1.49-.399a2.54 2.54 0 0 0 1.095-.994c.3-.297.499-.796.499-1.195h-1.194c0 .4-.3.898-.696 1.095-.3.3-.798.399-1.194.399-.599 0-1.194-.3-1.593-.795-.496-.599-.696-1.294-.696-2.09v-.299c0-.698.2-1.493.696-2.089.26-.433.821-.717 1.357-.717.078 0 .157.006.236.019.084-.016.168-.024.247-.024.383 0 .698.192.947.522.396.3.696.696.696 1.195h1.194c0-.798-.4-1.494-.995-2.09-.52-.435-1.191-.716-1.882-.716a2.41 2.41 0 0 0-.307.018 2.755 2.755 0 0 0-.357-.026zm23.99 0c-.551 0-1.047.194-1.54.525-.5.296-.995.795-1.195 1.294a4.723 4.723 0 0 0-.399 1.99v.299c0 1.094.3 2.089.995 2.984.546.638 1.425 1.107 2.33 1.107.087 0 .171-.005.258-.013.499 0 .995-.1 1.493-.399.496-.197.895-.496 1.095-.994.296-.297.496-.796.496-1.195h-1.194c0 .4-.2.898-.596 1.095-.4.3-.795.399-1.294.399-.599 0-1.194-.3-1.593-.795-.397-.599-.696-1.294-.596-2.09v-.299c-.1-.698.2-1.493.596-2.089.346-.433.845-.717 1.362-.717.076 0 .155.006.23.019a1.35 1.35 0 0 1 .248-.024c.388 0 .716.192 1.047.522.396.3.596.696.596 1.195h1.194c0-.798-.397-1.494-.995-2.09-.52-.435-1.192-.716-1.882-.716a2.41 2.41 0 0 0-.307.018 2.67 2.67 0 0 0-.35-.026zm-7.512-.074c-.598 0-1.194.2-1.693.499-.595.396-.994.895-1.294 1.493-.296.696-.496 1.392-.496 2.19v.196c0 1.095.3 2.092.995 2.887.696.696 1.693.995 2.588.995v.1c1.194 0 2.388-.596 2.984-1.593l-.795-.596c-.3.3-.598.496-.895.695-.399.2-.798.3-1.294.3-.598 0-1.194-.3-1.593-.796-.399-.498-.596-1.194-.596-1.792h5.373v-.696c.1-.995-.3-1.99-.895-2.887a3.484 3.484 0 0 0-2.389-.995zm-50.604.074c-.55 0-1.047.194-1.54.525-.5.2-.995.695-1.195 1.294-.399.695-.498 1.39-.498 2.189-.097 1.094.299 2.288.997 3.183.536.717 1.394 1.11 2.286 1.11.1 0 .2-.005.3-.015.12.016.236.026.351.026.551 0 1.045-.194 1.54-.525.497-.396.996-.895 1.195-1.49.396-.599.596-1.394.496-2.09v-.1c.1-1.094-.297-2.188-.995-2.986-.535-.714-1.393-1.11-2.286-1.11-.1 0-.2.005-.302.015a2.67 2.67 0 0 0-.349-.026zm73.391.102c-.658 0-1.294.208-1.79.622-.498.297-.897.995-.798 1.59 0 .4.1.699.2.996.2.299.499.598.895.797.499.197 1.094.297 1.593.496.499 0 1.095.2 1.494.5.296.199.396.495.396.894 0 .3-.297.596-.496 1.095-.4.1-.796.2-1.294.2a.874.874 0 0 1-.22.025c-.352 0-.746-.178-1.074-.425-.3-.2-.499-.596-.499-1.094h-1.391c0 .498.1.895.396 1.294.2.399.599.795 1.095.994.499.2 1.094.4 1.693.4.795 0 1.593-.2 2.288-.699.596-.396.895-.994.895-1.69 0-.499 0-.895-.299-1.194-.197-.3-.496-.499-.895-.696-.496-.2-.995-.399-1.59-.498-.499-.1-.898-.3-1.394-.5-.2-.196-.399-.395-.3-.794 0-.3.1-.596.3-.796.3-.299.795-.399 1.194-.399.397 0 .795.1 1.095.4.299.199.496.595.496.994h1.393a3.091 3.091 0 0 0-.895-1.793c-.52-.433-1.191-.713-1.816-.713-.092 0-.184.005-.273.018a3.39 3.39 0 0 0-.399-.024zm4.977 6.394v1.194c0 .696-.3 1.391-.798 1.99l.798.496c.396-.397.695-.796.994-1.195.2-.496.4-.994.4-1.49v-.995zm-58.514-6.57l2.887 7.861-.2.898c-.1.396-.299.795-.695.995a1.43 1.43 0 0 1-.777.236c-.105 0-.213-.01-.318-.037h-.399v1.194l.499.097h.297c1.094 0 1.892-.595 2.388-1.99l3.087-9.054h-1.494l-1.89 5.97-1.892-6.17zm-8.294 18.583c.43 0 .882.195 1.131.525a2.71 2.71 0 0 1 .596 1.69v.1h-3.98c0-.596.198-1.194.597-1.59.399-.4.895-.599 1.393-.698.084-.016.174-.027.263-.027zm11.514.008c.493 0 .9.257 1.16.517.396.496.695 1.095.596 1.69v.1h-3.98c0-.596.297-1.194.696-1.59.3-.4.795-.599 1.294-.698.079-.014.158-.019.234-.019zm20.864.019c.496 0 .994.199 1.291.498.499.496.698 1.095.698 1.69v.1h-3.981c0-.596.2-1.194.598-1.59.3-.4.795-.599 1.394-.698zm-27.664-4.179v11.144h1.39V236.76zm40.302 3.184c-.698 0-1.494.399-1.893.995v-.796h-1.194v7.761h1.394v-5.572c.273-.638.88-1.107 1.588-1.107.068 0 .136.005.204.013h.496v-1.095c-.1-.2-.396-.2-.595-.2zm-52.743-1.79v1.79h-1.491v.995h1.49v4.876c0 .596.2 1.194.5 1.593.33.328.726.523 1.136.523.086 0 .17-.008.257-.027a.903.903 0 0 0 .284.042c.238 0 .498-.07.71-.141v-1.095c-.199.1-.398.1-.598.1-.296 0-.496-.1-.695-.2-.1-.2-.2-.496-.2-.795v-4.876h1.494v-.995h-1.494v-1.79zm45.278 0v1.79h-1.494v.995h1.494v4.876c0 .596.2 1.194.498 1.593.328.328.727.523 1.137.523.084 0 .17-.008.254-.027.09.03.184.042.284.042.241 0 .501-.07.714-.141v-1.095c-.2.1-.4.1-.599.1-.299 0-.496-.1-.695-.2-.1-.2-.2-.496-.2-.795v-4.876h1.494v-.995h-1.494v-1.79zm-37.714 1.69c-.599 0-1.194.2-1.693.499-.596.396-.995.895-1.294 1.49-.297.699-.496 1.394-.496 2.092v.297c0 .995.396 2.09.994 2.887.696.596 1.69.995 2.688.995 1.194 0 2.289-.599 2.984-1.494l-.894-.695c-.3.3-.599.596-.896.795-.398.1-.797.2-1.194.2-.698 0-1.294-.2-1.693-.696-.399-.598-.595-1.194-.595-1.892h5.372v-.596c.1-.995-.2-2.09-.895-2.887-.598-.696-1.493-.995-2.388-.995zm20.152-.013c-.084 0-.166.005-.25.013-.897 0-1.693.399-2.288.995v-.895h-1.494v7.86h1.294v-5.671c.397-.795 1.095-1.194 1.89-1.194a1.29 1.29 0 0 1 .152-.008c.932 0 1.735.855 1.64 1.8v5.373h1.292v-5.276c.1-.496.3-.895.698-1.191.247-.331.562-.525.948-.525.078 0 .16.008.246.026.103-.021.205-.031.305-.031.845 0 1.465.732 1.286 1.624v5.074h1.394v-5.173c0-1.893-.895-2.788-2.588-2.788-.496 0-1.095.1-1.491.4-.399.199-.698.495-.995.894-.365-.819-1.147-1.307-2.04-1.307zm-8.709.013c-.598 0-1.194.2-1.693.499-.596.396-.995.895-1.294 1.49-.296.699-.496 1.394-.496 2.092v.297c0 .995.4 2.09.995 2.887a4.254 4.254 0 0 0 2.688.995c.086.008.173.01.257.01 1.092 0 2.081-.58 2.727-1.504l-.895-.695c-.3.3-.599.596-.895.795-.399.1-.798.2-1.194.2-.698 0-1.294-.2-1.693-.696-.397-.598-.596-1.194-.596-1.892h5.373v-.596c.1-.995-.2-2.09-.895-2.887-.599-.696-1.494-.995-2.389-.995zm21.097 0c-.698 0-1.294.2-1.793.499-.496.396-.994.895-1.194 1.49-.396.699-.596 1.394-.496 2.092v.297c-.1.995.297 2.09.995 2.887.695.596 1.59.995 2.588.995.086.008.17.01.257.01 1.092 0 2.081-.58 2.727-1.504l-.895-.695c-.3.3-.499.596-.898.795-.396.1-.795.2-1.191.2-.599 0-1.194-.2-1.593-.696-.4-.598-.696-1.194-.696-1.892h5.373v-.596c.1-.995-.2-2.09-.895-2.887-.599-.696-1.394-.995-2.289-.995zm13.932 0l2.785 7.861-.2.895c-.1.399-.296.698-.595.997-.4.1-.796.197-1.195.197h-.299v1.097l.499.197h.2c1.094 0 1.89-.695 2.385-1.99l3.087-9.154h-1.494l-1.89 5.97-1.792-6.07z"/><path fill="#e5e5e4" fill-rule="evenodd" d="M124.95 449.81c-2.092.1-3.682 1.693-3.782 3.782v82.097c.1 1.99 1.69 3.683 3.782 3.683h160.31a3.675 3.675 0 0 0 3.682-3.683v-82.097c0-2.09-1.693-3.682-3.682-3.782z"/><path fill="#fff" fill-rule="evenodd" d="M136.09 461.06c-1.99 0-3.682 1.69-3.682 3.68v59.709c0 2.09 1.693 3.682 3.682 3.78h138.12c1.992-.098 3.682-1.69 3.682-3.78v-59.71c0-1.989-1.69-3.679-3.682-3.679z"/><path fill="#000" fill-rule="evenodd" d="M227.85 488.03c-.3 0-.598.1-.698.3-.3.199-.396.398-.396.695 0 .299.097.598.396.798.1.2.399.296.698.296.297 0 .596-.097.795-.296.2-.2.3-.499.3-.798 0-.297-.1-.496-.3-.696-.299-.2-.498-.299-.795-.299zm-6.37 1.493c.399 0 .895.1 1.194.4.399.196.696.495.895.795a2.151 2.151 0 0 1 0 2.189 1.95 1.95 0 0 1-.895.895c-.3.2-.795.299-1.194.299h-2.785v-4.578zm17.115 3.284c.499 0 1.094.1 1.493.399.499.299.895.695 1.195 1.194.498 1.095.498 2.389 0 3.583a3.45 3.45 0 0 1-1.195 1.194c-.399.197-.994.396-1.493.396-.496 0-1.095-.2-1.49-.396a3.423 3.423 0 0 1-1.195-1.194c-.599-1.194-.599-2.488 0-3.583a3.401 3.401 0 0 1 1.194-1.194c.396-.3.995-.4 1.49-.4zM217.2 488.13v12.438h1.493v-5.074h2.785c.599 0 1.294-.1 1.89-.399a3.126 3.126 0 0 0 1.394-1.393c.399-.497.598-1.195.598-1.89 0-.696-.2-1.294-.598-1.89-.297-.598-.796-.995-1.394-1.294-.596-.3-1.291-.499-1.89-.499zm9.95 3.582v8.856h1.394v-8.856zm3.782-3.582v12.438h1.494V488.13zm7.662 3.31c-.822 0-1.64.222-2.389.671-.695.397-1.194.995-1.59 1.69a5.066 5.066 0 0 0 0 4.778c.396.698.895 1.294 1.59 1.692a5.096 5.096 0 0 0 4.777 0c.698-.399 1.194-.994 1.593-1.692a5.08 5.08 0 0 0 0-4.777c-.399-.696-.895-1.294-1.593-1.69a4.617 4.617 0 0 0-2.388-.673zm7.065-2.116v2.488h-1.59v1.294h1.59v5.273c-.1.399 0 .698.1 1.095.2.598.695.997 1.294 1.194.3.2.695.2.995.2.15.05.273.075.386.075a.66.66 0 0 0 .31-.076c.199 0 .398-.1.598-.1v-1.49c-.3.196-.696.296-.995.296-.399 0-.698-.1-.995-.396-.2-.3-.3-.698-.3-1.095v-4.976h2.19v-1.294h-2.19v-2.488z"/><path fill="#466bb0" fill-rule="evenodd" d="M161.67 486.04l-12.837 25.575 12.837-2.09V486.04zm-12.837 27.864l12.837 6.367 21.394-6.367z"/><path fill="#476baf" fill-rule="evenodd" d="M163.76 469.02v40.501l19.304 2.09-19.304-42.592z"/><path fill="#e5e5e4" fill-rule="evenodd" d="M324.57 300.05c-2.09.1-3.682 1.69-3.782 3.782v82.097c.1 1.99 1.693 3.68 3.782 3.68h160.31c2.09 0 3.782-1.69 3.782-3.68v-82.097c-.1-2.092-1.693-3.682-3.782-3.782z"/><path fill="#fff" fill-rule="evenodd" d="M335.71 311.29c-1.99 0-3.682 1.693-3.682 3.682v59.706c0 2.092 1.692 3.683 3.682 3.783h138.12c1.99-.1 3.68-1.69 3.68-3.783v-59.706c0-1.99-1.69-3.682-3.68-3.682z"/><path fill="#000" fill-rule="evenodd" d="M427.86 338.26c-.297 0-.596.1-.795.3-.2.196-.3.396-.3.695 0 .299.1.598.3.795.2.2.498.3.795.3.2 0 .499-.1.698-.3.2-.197.3-.496.3-.795 0-.3-.1-.499-.3-.696-.2-.2-.499-.299-.698-.299zm15.026 4.777c.598 0 1.095.1 1.493.396.4.2.696.499.895.898.2.396.3.695.3 1.094H440.2c.1-.598.396-1.294.995-1.693.396-.496 1.094-.695 1.69-.695zm10.052-1.394c-.598 0-1.094.2-1.593.499-.4.296-.795.695-.995 1.291v-1.49h-1.493v8.855h1.493v-4.976c0-.496.1-.895.3-1.294.196-.397.495-.795.894-.995.3-.297.796-.396 1.194-.396.397 0 .895.1 1.294.296v-1.59c-.398-.1-.698-.2-1.094-.2zm-40.801-3.283v12.538h1.493v-7.96l-.1-2.39h.1l4.08 10.25h1.193l4.082-10.25h.1l-.1 2.39v7.86h1.49V338.36h-2.188l-3.98 10.25-3.981-10.25zm14.927 3.582v8.956h1.493v-8.956zm2.984 0l3.087 4.378-3.087 4.578h1.693l2.289-3.483 2.289 3.483h1.693l-3.187-4.578 3.187-4.378h-1.793l-2.19 3.284-2.288-3.284zm12.837-.299c-.795 0-1.59.3-2.189.696a3.504 3.504 0 0 0-1.49 1.693c-.4.795-.599 1.593-.599 2.388 0 .796.2 1.69.599 2.389.296.695.895 1.294 1.59 1.69.698.399 1.394.598 2.289.598.798 0 1.593-.199 2.289-.598.698-.396 1.194-.995 1.593-1.69l-1.194-.599c-.5.995-1.594 1.593-2.688 1.593-.496 0-.995-.1-1.394-.398-.496-.2-.795-.596-1.094-.995-.297-.496-.496-1.095-.496-1.69h7.065v-.5c0-.794-.2-1.592-.499-2.288a3.521 3.521 0 0 0-1.493-1.693 4.632 4.632 0 0 0-2.289-.596z"/><path fill="#466bb0" fill-rule="evenodd" d="M361.89 336.27l-12.837 25.572 12.837-2.09V336.27zm-12.837 27.863l12.837 6.367 21.394-6.367z"/><path fill="#476baf" fill-rule="evenodd" d="M363.98 319.25v40.501l19.304 2.09-19.304-42.592z"/><path fill="#e5e5e4" fill-rule="evenodd" d="M524.19 449.81c-1.99.1-3.682 1.693-3.682 3.782v82.097c0 1.99 1.692 3.683 3.682 3.683H684.5c2.09 0 3.782-1.693 3.782-3.683v-82.097a3.782 3.782 0 0 0-3.782-3.782z"/><path fill="#fff" fill-rule="evenodd" d="M535.43 461.06c-2.09 0-3.682 1.69-3.78 3.68v59.709c.098 2.09 1.69 3.682 3.78 3.78h138.02c2.09-.098 3.682-1.69 3.78-3.78v-59.71c0-2.088-1.69-3.679-3.78-3.679z"/><path fill="#000" fill-rule="evenodd" d="M618.82 488.03c-.3 0-.596.1-.795.3-.2.199-.3.398-.3.695 0 .299.1.598.3.798.2.2.496.296.795.296.3 0 .499-.097.696-.296.199-.2.398-.499.398-.798 0-.297-.199-.496-.398-.696a.896.896 0 0 0-.696-.299zm32.806 4.75c.41 0 .819.18 1.228.426.397.2.696.496.895.895.2.3.3.695.3 1.094h-5.376c.1-.695.4-1.294.895-1.79.433-.346.94-.616 1.523-.616.089 0 .178.005.27.018a1.28 1.28 0 0 1 .265-.026zm-20.168 3.31c.399 0 .895.1 1.294.2.3.1.696.3.995.499 0 .496-.1.994-.4 1.39a2.382 2.382 0 0 1-.994.998c-.396.297-.895.396-1.391.396-.499 0-.997-.2-1.394-.496-.399-.2-.598-.698-.499-1.094-.1-.599.2-.995.599-1.394a3.713 3.713 0 0 1 1.79-.499zm9.604-3.333c.496 0 .994.15 1.443.449.397.3.796.695 1.095 1.194.496 1.095.496 2.389 0 3.583-.3.396-.599.795-1.095 1.094v.1a2.614 2.614 0 0 1-1.443.446c-.499 0-.995-.15-1.444-.446-.499-.3-.895-.698-1.094-1.194-.599-1.095-.599-2.389 0-3.583.2-.499.595-.895 1.094-1.194a2.59 2.59 0 0 1 1.444-.449zm-23.037-1.045v8.856h1.49v-8.855zm39.307-3.582v12.438h1.49V488.13zm-45.976-.3c-1.192 0-2.289.3-3.284.898a5.097 5.097 0 0 0-2.288 2.289 6.65 6.65 0 0 0 0 6.667c.498.994 1.294 1.79 2.288 2.388a7.297 7.297 0 0 0 3.284.795c.997 0 1.892-.2 2.787-.595.795-.4 1.494-.898 2.09-1.594l-.995-1.094c-.995 1.194-2.389 1.89-3.882 1.89-.895 0-1.69-.197-2.486-.596-.798-.499-1.394-1.095-1.793-1.793a5.71 5.71 0 0 1 0-5.372 3.897 3.897 0 0 1 1.793-1.79c.69-.347 1.38-.617 2.14-.617.112 0 .23.005.346.018.123-.018.244-.026.362-.026.546 0 1.04.178 1.53.425.596.2 1.194.696 1.59 1.194l1.098-.995a5.51 5.51 0 0 0-1.992-1.493c-.895-.399-1.69-.598-2.588-.598zm19.903 3.583c-.696 0-1.394.2-1.99.499-.598.3-1.094.696-1.393 1.194l1.094.895c.2-.399.598-.695.995-.895.325-.163.716-.325 1.12-.325.092 0 .182.008.273.026.1-.016.2-.024.3-.024.493 0 .979.208 1.393.622.496.397.696.895.696 1.491v.599c-.3-.2-.696-.3-.995-.4-.499-.099-.995-.199-1.493-.199-.995 0-1.89.3-2.685.798-.699.496-1.095 1.391-1.095 2.19 0 .595.097 1.094.397 1.59.299.399.698.798 1.194.997.598.297 1.194.396 1.792.396.596 0 1.195-.1 1.69-.396a4.24 4.24 0 0 0 1.195-1.097v1.194h1.394v-5.572c.1-.995-.3-1.89-.995-2.588-.798-.696-1.793-.995-2.887-.995zm20.102 0c-.796 0-1.593.2-2.289.698-.598.397-1.094.995-1.493 1.69a6.4 6.4 0 0 0-.496 2.39c0 .797.196 1.692.496 2.388a5.204 5.204 0 0 0 1.593 1.693c.695.396 1.49.595 2.388.595.795 0 1.59-.2 2.389-.595.595-.4 1.194-.995 1.49-1.693l-1.194-.696c-.496 1.095-1.59 1.69-2.685 1.69-.499 0-.897-.199-1.393-.396-.4-.2-.796-.598-1.095-.997-.3-.596-.499-1.095-.499-1.69h7.066v-.5c0-.795-.2-1.59-.496-2.388-.4-.596-.898-1.194-1.494-1.59a4.621 4.621 0 0 0-2.288-.599zm-28.66-2.089v2.488h-1.493v1.294h1.494v5.273c0 .3.1.698.197 1.095.1.299.299.498.498.798.2.2.499.296.795.396.3.2.599.2.995.2.1.05.2.076.3.076.1 0 .199-.027.299-.077.2 0 .399 0 .595-.1v-1.49a1.688 1.688 0 0 1-.994.296c-.397 0-.696-.1-.895-.396-.3-.3-.4-.698-.3-1.094v-4.977h2.092v-1.294h-2.092v-2.488zm21.295-1.194v3.682l.1 1.195h-.1c-.3-.5-.796-.796-1.294-1.095a3.713 3.713 0 0 0-1.79-.499c-.795 0-1.494.2-2.19.599-.598.396-1.094.994-1.493 1.69-.695 1.593-.695 3.383 0 4.877.4.698.895 1.294 1.494 1.693.695.396 1.394.595 2.189.695.596 0 1.294-.2 1.79-.496.498-.3.995-.698 1.294-1.097h.1v1.194h1.393V488.13z"/><path fill="#466bb0" fill-rule="evenodd" d="M559.32 484.94l-12.837 25.575 12.837-2.09V484.94zm-12.837 27.864l12.837 6.268 21.394-6.268z"/><path fill="#476baf" fill-rule="evenodd" d="M561.41 467.83v40.601l19.305 2.09-19.305-42.69z"/><path fill="#e5e5e4" fill-rule="evenodd" d="M324.57 448.72c-2.09 0-3.682 1.693-3.782 3.682V534.5c.1 2.09 1.693 3.683 3.782 3.783h160.31c2.09-.1 3.782-1.693 3.882-3.783v-82.097c-.1-1.99-1.693-3.682-3.782-3.682z"/><path fill="#fff" fill-rule="evenodd" d="M335.71 459.87c-1.99.1-3.682 1.69-3.682 3.78v59.709c0 1.989 1.692 3.682 3.682 3.682h138.12c1.99 0 3.68-1.693 3.68-3.682v-59.71c0-2.089-1.69-3.68-3.68-3.779z"/><path fill="#000" fill-rule="evenodd" d="M443.19 491.61c.598 0 1.095.1 1.593.399.297.2.596.596.795.995.2.299.3.695.4 1.094h-5.476c.1-.695.499-1.294.998-1.79.396-.399 1.094-.698 1.69-.698zm-16.816 3.383c.496 0 .895.1 1.294.2.396.1.695.299.995.498 0 .496-.1.895-.4 1.391-.199.4-.595.798-.994.998-.399.296-.895.396-1.394.396-.496 0-.994-.2-1.393-.496-.397-.3-.596-.698-.496-1.194 0-.499.199-.995.595-1.294a3.723 3.723 0 0 1 1.793-.499zm5.772-7.96v12.438h1.49v-12.438zm3.68 0l-.098 12.438h1.491v-12.438zm7.464 3.283c-.895 0-1.593.2-2.289.599-.695.496-1.194 1.094-1.493 1.79a4.646 4.646 0 0 0-.596 2.288c0 .895.2 1.693.596 2.488.399.696.898 1.294 1.593 1.693v-.1a4.631 4.631 0 0 0 2.375.672 4.26 4.26 0 0 0 2.302-.671c.696-.4 1.194-.995 1.59-1.693l-1.29-.596a2.87 2.87 0 0 1-2.589 1.59c-.498 0-.994-.1-1.393-.296-.499-.3-.895-.599-1.095-1.095-.299-.498-.498-1.097-.498-1.693h6.965v-.399c0-.895-.1-1.69-.496-2.388-.299-.696-.795-1.194-1.493-1.59a4.527 4.527 0 0 0-2.189-.599zm-28.163-3.583c-1.095 0-2.189.3-3.184.798a6.869 6.869 0 0 0-2.388 2.389 6.65 6.65 0 0 0 0 6.667c.598.895 1.393 1.79 2.388 2.288.995.596 2.09.895 3.184.895 1.793 0 3.483-.596 4.577-1.89.599-.498.998-1.194 1.195-1.892.299-.695.399-1.49.399-2.289 0-.296 0-.595-.1-.895h-5.971v1.394h4.577c0 .499-.1.995-.296 1.493-.2.497-.4.895-.798 1.195-.397.496-.895.795-1.391 1.094-.699.197-1.394.396-2.092.396-.895 0-1.79-.296-2.489-.695-.795-.399-1.39-.995-1.89-1.793a5.71 5.71 0 0 1 0-5.372 6.537 6.537 0 0 1 1.89-1.79 5.136 5.136 0 0 1 2.415-.594c.675 0 1.35.13 1.966.394.596.2 1.194.596 1.59 1.095l.995-.995c-.496-.698-1.194-1.095-1.99-1.394-.794-.399-1.69-.498-2.587-.498zm11.383 3.567c-.11 0-.223.006-.336.016-.698 0-1.394.1-1.99.4-.598.298-1.094.695-1.393 1.293l1.094.795c.2-.399.596-.695.995-.895.399-.2.895-.299 1.394-.299.596 0 1.194.2 1.69.599.499.396.698.994.698 1.59v.499c-.299-.1-.698-.3-.995-.4-.498-.099-.997-.099-1.493-.099a3.628 3.628 0 0 0-.375-.018c-.845 0-1.617.294-2.313.816-.695.496-1.094 1.291-1.094 2.189 0 .496.1.995.399 1.49.3.5.695.799 1.194 1.095.596.2 1.194.4 1.79.4.599 0 1.194-.2 1.693-.497.496-.2.895-.598 1.194-1.097v1.294h1.391V493.8c.1-.995-.296-1.89-.994-2.585-.714-.536-1.588-.913-2.549-.913zm21.556.315l3.682 8.26-1.992 4.378h1.494l5.472-12.638h-1.59l-2.688 6.567-2.785-6.567z"/><path fill="#466bb0" fill-rule="evenodd" d="M360.59 486.04l-12.837 25.575 12.837-2.09V486.04zm-12.837 27.864l12.837 6.367 21.394-6.367z"/><path fill="#476baf" fill-rule="evenodd" d="M362.68 469.02v40.501l19.304 2.09-19.304-42.592z"/><path fill="#000" fill-rule="evenodd" d="M377.11 395.48c-.297 0-.496.1-.696.2a1.044 1.044 0 0 0 0 1.293h.1c.15.15.373.224.596.224a.846.846 0 0 0 .598-.224c.2-.199.3-.399.3-.595 0-.3-.1-.499-.3-.699-.199-.1-.399-.199-.598-.199zm169.57 0c-.197 0-.496.1-.596.2-.399.398-.399.894 0 1.293.2.15.423.224.646.224.226 0 .449-.074.648-.224.3-.399.3-.895 0-1.294-.2-.1-.399-.199-.698-.199zm-370.48-.1c-.297 0-.496.1-.696.3-.199.199-.299.398-.299.598 0 .296.1.496.3.695.199.2.398.3.695.3.2 0 .399-.1.598-.3.2-.199.3-.399.3-.695 0-.2-.1-.4-.3-.599-.2-.199-.399-.299-.598-.299zm-39.207.1c-.496.1-.895.499-.895.997 0 .197.1.397.3.596.199.15.422.223.645.223.226 0 .449-.073.648-.223.197-.2.297-.399.297-.596 0-.299-.1-.498-.297-.698-.2-.2-.399-.299-.698-.299zm200.91 0c-.396.1-.795.499-.895.997 0 .197.1.397.3.596v-.1c.199.2.396.4.595.4.3 0 .499-.1.698-.3.2-.2.297-.399.297-.596a.903.903 0 0 0-.297-.698c-.2-.2-.399-.299-.698-.299zm217.63.076a.85.85 0 0 0-.598.223c-.197.2-.297.4-.297.698 0 .197.1.397.297.596v-.1c.1.2.299.3.598.4.2 0 .496-.1.596-.3.2-.2.299-.399.299-.596 0-.299-.1-.498-.3-.698a.844.844 0 0 0-.595-.223zm-25.646 3.98c.35 0 .74.162 1.066.325.299.196.498.496.698.795.197.3.296.596.296.995h-4.577c.1-.596.399-1.195.798-1.594.328-.328.727-.522 1.191-.522.097 0 .197.008.3.026a.938.938 0 0 1 .228-.026zm52.777 0c.38 0 .706.162 1.029.325.3.196.598.496.698.795.2.3.3.596.3.995h-4.578c.097-.596.396-1.195.795-1.594.344-.257.764-.517 1.257-.517.076 0 .155.008.236.021a1.31 1.31 0 0 1 .263-.026zm-400.5-.05c.449 0 .895.125 1.294.375.499.196.795.595.995.994.299.496.399.995.399 1.59 0 .5-.1.996-.4 1.494-.199.4-.495.795-.894.995h-.1c-.399.2-.845.3-1.294.3-.446 0-.895-.1-1.294-.3-.396-.3-.795-.596-.995-.995-.2-.498-.399-.995-.399-1.593 0-.496.2-1.094.4-1.49.199-.5.598-.799.994-.996a2.445 2.445 0 0 1 1.294-.375zm-64.882-.024c.499 0 .995.2 1.294.399.499.196.798.595.995.994.299.496.399.995.399 1.59 0 .5-.1.996-.4 1.494-.196.4-.495.795-.994.995-.3.3-.795.399-1.294.399-.396 0-.895-.1-1.294-.399-.396-.2-.696-.596-.995-.995a3.985 3.985 0 0 1-.296-1.493c0-.596.097-1.095.296-1.59.3-.4.599-.799.995-.995.399-.2.898-.3 1.294-.4zm25.895.073c.323 0 .648.163.974.326.399.196.695.595.895.994.2.496.399.995.399 1.59 0 .5-.2.996-.4 1.494-.199.4-.495.795-.894.995a1.91 1.91 0 0 1-1.194.399c-.497 0-.895-.1-1.294-.399-.397-.2-.696-.596-.895-.995-.2-.498-.3-.995-.3-1.493 0-.596.1-1.095.3-1.59.199-.4.498-.799.895-.995.398-.2.797-.3 1.294-.3a.904.904 0 0 1 .22-.026zm21.871 2.811c.399 0 .795 0 1.095.2.299 0 .595.199.895.299 0 .498-.1.895-.3 1.294a1.934 1.934 0 0 1-.895.895c-.396.2-.795.299-1.194.299-.396 0-.895-.1-1.194-.399-.297-.3-.496-.596-.496-.995 0-.498.2-.895.496-1.194.499-.3.995-.399 1.593-.399zm153.25-2.884c.499.1.895.2 1.294.399.399.196.698.595.895.994.3.496.399.995.399 1.59 0 .5-.1.996-.4 1.494-.196.4-.495.795-.894.995-.4.2-.795.399-1.294.399-.396 0-.895-.1-1.294-.399a2.406 2.406 0 0 1-.995-.995c-.2-.498-.396-.995-.299-1.493-.097-.596.1-1.095.3-1.59.199-.4.598-.799.994-.995.399-.2.898-.3 1.294-.4zm25.31.073c.087 0 .173.008.265.026.066-.008.131-.01.197-.01.814 0 1.525.567 1.892 1.304.3.496.4.995.4 1.59 0 .5-.1.996-.4 1.494-.2.4-.496.796-.895.995-.299.3-.795.399-1.194.399-.895 0-1.79-.499-2.189-1.394a3.99 3.99 0 0 1-.3-1.493c0-.596.1-1.095.3-1.59.2-.4.499-.799.895-.995.326-.163.651-.326 1.03-.326zm22.357 2.811c.399 0 .795 0 1.095.2.398 0 .695.199.895.299 0 .498-.1.895-.297 1.294-.2.399-.499.695-.898.895-.396.2-.795.299-1.194.299-.396 0-.895-.1-1.194-.399-.297-.3-.496-.596-.496-.995 0-.498.2-.895.496-1.194.499-.3 1.094-.399 1.593-.399zm17.215-2.785c.895 0 1.793.496 2.189 1.294.3.496.399.995.399 1.59 0 .5-.1.996-.399 1.494-.2.4-.496.795-.895.995-.399.3-.895.399-1.294.399-.496 0-.995-.1-1.394-.4-.396-.199-.695-.595-.895-.994a2.806 2.806 0 0 1-.399-1.493c0-.596.1-1.095.4-1.59.199-.4.498-.799.894-.995.4-.2.898-.3 1.394-.3zm185.99 2.785c.399 0 .696 0 1.095.2.299 0 .598.199.895.299 0 .498-.1.895-.397 1.294-.2.399-.498.695-.798.895-.396.2-.795.299-1.194.299-.396 0-.895-.1-1.294-.399-.296-.3-.396-.596-.396-.995 0-.498.2-.895.496-1.194.499-.3.997-.399 1.593-.399zm-442.62-3.997c-.1 0-.202.005-.302.018-.499 0-.997.1-1.394.399-.498.197-.797.496-1.094.895v-1.094h-1.194v7.66h1.294v-4.277c0-.4.1-.798.197-1.194.2-.4.498-.699.798-.896.299-.299.695-.398 1.094-.398.496 0 .995.199 1.394.496.396.399.596.997.496 1.593v4.677h1.194v-4.877c.1-.795-.2-1.59-.696-2.189a2.33 2.33 0 0 0-1.787-.813zm7.56-2.969c-.4 0-.799.1-1.195.3-.4.199-.698.498-.895.797-.2.397-.4.796-.3 1.292v.798h-1.393v1.294h1.294l.1 6.367h1.194v-6.367h3.583v6.367h1.194v-7.661h-4.677v-.699c-.1-.296.1-.695.296-.895.2-.299.599-.399.898-.399.197 0 .396 0 .496.1.2 0 .399.1.598.1v-1.194c-.399-.1-.798-.2-1.194-.2zm26.17 2.987c-.496 0-.995.1-1.394.4-.396.296-.695.595-.795 1.094v-1.294h-1.294v7.661h1.294v-4.278c-.1-.4 0-.798.2-1.194.2-.3.496-.599.795-.798a1.7 1.7 0 0 1 .995-.297c.399 0 .698.1 1.094.2v-1.294c-.296-.2-.596-.2-.895-.2zm15.226.2v7.661h1.294v-7.661zm15.927-.218a2.37 2.37 0 0 0-.304.018c-.496 0-.995.1-1.391.4-.5.196-.798.495-.998.894v-1.094h-1.291v7.66h1.291v-4.277c0-.499.1-.895.2-1.194.2-.4.498-.699.798-.895.296-.3.695-.4 1.094-.4.496 0 .995.2 1.391.497.4.399.599.997.499 1.593v4.677h1.294v-4.877c0-.795-.2-1.59-.795-2.189a2.33 2.33 0 0 0-1.788-.813zm136.1 0c-.09 0-.181.005-.27.018-.596 0-1.095.1-1.491.4-.399.196-.798.495-.995.894v-1.094h-1.294l.1 7.66h1.194v-4.277c0-.4.1-.798.297-1.194.1-.4.399-.699.698-.895.3-.3.695-.4 1.094-.4.496 0 .995.2 1.394.497.396.399.596.997.496 1.593v4.677h1.294v-4.877c0-.795-.2-1.59-.695-2.189-.523-.52-1.195-.813-1.822-.813zm7.494-2.969c-.4 0-.798.1-1.195.3a2.323 2.323 0 0 0-.895.797c-.2.397-.299.796-.299 1.292v.798h-1.394v1.294h1.394v6.367h1.294v-6.367h3.483v6.367h1.194v-7.661h-4.677v-.699c0-.296.1-.695.297-.895.299-.299.598-.399.897-.399.2 0 .397 0 .496.1.2 0 .4.1.599.1v-1.194c-.4-.1-.798-.2-1.195-.2zm26.17 2.987c-.398 0-.894.1-1.293.4-.397.296-.696.595-.895 1.094v-1.294h-1.294l.1 7.661h1.194v-4.278c0-.4.1-.798.299-1.194.2-.3.396-.599.695-.798.3-.197.698-.297 1.095-.297.299 0 .698.1.995.2v-1.294c-.197-.2-.497-.2-.895-.2zm15.227.2v7.661h1.293v-7.661zm15.927-.218a2.37 2.37 0 0 0-.305.018c-.496 0-.995.1-1.391.4-.399.196-.798.495-.997.894v-1.094h-1.292l.1 7.661h1.192v-4.278c0-.4.1-.798.299-1.194.1-.4.399-.699.698-.895a2.294 2.294 0 0 1 1.22-.363c.457 0 .903.15 1.266.46.399.399.598.997.498 1.593v4.677h1.294v-4.877c0-.795-.2-1.59-.695-2.189-.523-.52-1.195-.813-1.887-.813zm97.913-2.869v1.294h2.986v9.454h1.195v-9.454h3.084v-1.294zm8.858.1v10.648h5.871v-1.195h-4.677v-9.454zm46.969 2.987v7.661h1.194v-7.661zm6.567-3.187c-.397 0-.895.1-1.294.3a3.062 3.062 0 0 0-.796.797c-.299.397-.399.796-.399 1.292v.798h-1.39v1.294h1.39l.1 6.367h1.194v-6.367h3.483v6.367h1.294v-7.661h-4.777v-.698c0-.297.1-.696.4-.896.199-.299.498-.398.795-.398.2 0 .399 0 .598.1.2 0 .3.099.496.099v-1.194c-.296-.1-.695-.2-1.094-.2zm-14.328 3.187c-.499 0-.995.1-1.394.396-.399.2-.795.598-.895.995v-1.192h-1.294v7.562h1.294v-4.179c-.1-.698.2-1.294.596-1.693.399-.498.995-.695 1.493-.695h.696v-1.194zm-229.08-3.284c-.995 0-1.99.297-2.785.696-.898.498-1.593 1.194-1.992 2.089-.995 1.693-.995 3.882 0 5.672.399.798 1.094 1.493 1.992 1.992.795.496 1.79.695 2.785.695.795 0 1.693-.199 2.388-.498.696-.397 1.294-.796 1.89-1.391l-.995-.898a4.206 4.206 0 0 1-3.275 1.538 4.311 4.311 0 0 1-2.097-.543c-.696-.297-1.195-.895-1.594-1.491a4.646 4.646 0 0 1-.595-2.289c0-.798.199-1.593.595-2.288a4.096 4.096 0 0 1 1.594-1.594 4.95 4.95 0 0 1 2.089-.496c.598 0 1.194.097 1.693.297.496.3.994.698 1.294 1.094l.895-.895c-.4-.496-.995-.895-1.693-1.194-.696-.299-1.394-.496-2.19-.496zm40.003 3.284v4.874c0 .797.299 1.593.798 2.191.496.596 1.194.795 1.99.795.498 0 .994-.1 1.493-.398.396-.2.695-.497.994-.896v1.095h1.294v-7.661h-1.294v4.278c0 .399-.1.795-.299 1.194-.1.399-.399.696-.695.895-.326.163-.651.325-.977.325a.882.882 0 0 1-.218-.026 1.295 1.295 0 0 1-1.294-.499 1.83 1.83 0 0 1-.498-1.59v-4.577zm160.41-3.284c-.599 0-1.194.097-1.693.396-.499.2-.895.599-1.194.995-.2.499-.4.898-.4 1.494 0 .598.2 1.294.699 1.79a4.947 4.947 0 0 0 1.89.997l.698.297c.596.2 1.194.498 1.69.897.399.297.598.796.598 1.194 0 .596-.199 1.095-.598 1.392-.496.398-.995.498-1.593.498-.596 0-1.194-.2-1.59-.598-.5-.397-.796-.995-.996-1.59l-1.194.495c.2.898.696 1.594 1.394 2.192.696.496 1.49.696 2.289.696.596 0 1.094-.1 1.69-.3.499-.2.995-.595 1.294-.994.399-.5.596-1.195.499-1.79.097-.699-.2-1.494-.699-1.993-.595-.595-1.393-.994-2.188-1.194l-.696-.296c-.499-.2-.997-.4-1.493-.699-.3-.299-.5-.595-.5-.994 0-.499.3-.995.6-1.194.396-.3.894-.497 1.393-.497.496 0 .995.098 1.391.497.4.199.599.598.698.994l1.294-.496c-.2-.399-.299-.698-.598-.995a3.11 3.11 0 0 0-1.095-.897 4.486 4.486 0 0 0-1.59-.297zm12.039 3.084c-.696 0-1.394.2-1.99.496-.598.4-.995.898-1.393 1.494-.3.598-.5 1.294-.4 2.089-.1.698.1 1.394.4 1.992.398.596.795 1.094 1.393 1.49.596.4 1.294.5 2.09.5.695 0 1.393-.2 2.089-.599.498-.297.895-.895 1.194-1.49l-1.095-.5c-.2.5-.496.896-.895 1.095-.399.3-.895.399-1.393.399-.4 0-.895-.2-1.195-.399a2.391 2.391 0 0 1-.994-.995c-.2-.498-.4-.994-.3-1.493 0-.596.1-1.095.3-1.59.2-.4.595-.699.994-.995.3-.2.796-.3 1.195-.4.498 0 .895.2 1.393.4.3.296.596.695.796 1.094l1.194-.499c-.3-.595-.696-1.194-1.294-1.493-.596-.396-1.294-.596-2.09-.596zm60.703 0c-.698 0-1.394.2-1.992.596-.496.3-.995.798-1.195 1.394a4.45 4.45 0 0 0 0 4.18c.3.597.699 1.095 1.294 1.392.599.399 1.294.499 1.99.499.798 0 1.493-.1 2.092-.5.596-.395.995-.894 1.294-1.49l-1.097-.499c-.397.895-1.292 1.394-2.19 1.394-.495 0-.894-.1-1.29-.3a1.952 1.952 0 0 1-.898-.894 2.826 2.826 0 0 1-.397-1.494h5.969v-.396c0-.698-.097-1.394-.397-1.992-.299-.596-.698-1.094-1.294-1.394-.598-.296-1.293-.496-1.89-.496zm-434.07.2v4.874c0 .798.2 1.593.798 2.191.433.52 1.094.814 1.719.814.092 0 .18-.005.27-.018.598 0 1.095-.1 1.493-.4.397-.199.796-.495.995-.894v1.094h1.294v-7.661h-1.294v4.278c0 .399-.1.795-.299 1.194-.1.399-.399.696-.696.895-.325.163-.65.326-.976.326a.882.882 0 0 1-.218-.027 1.295 1.295 0 0 1-1.294-.499 1.83 1.83 0 0 1-.498-1.59v-4.577zm-40.003-3.187c-.995 0-1.99.2-2.788.698-.895.497-1.59 1.095-1.99 1.99-.994 1.693-.994 3.882 0 5.672.4.798 1.095 1.493 1.99 1.992a5.54 5.54 0 0 0 2.722.714c1.567 0 3.12-.661 4.244-1.908l-.895-.898a4.363 4.363 0 0 1-3.375 1.61 4.082 4.082 0 0 1-1.998-.515 4.072 4.072 0 0 1-1.593-1.59 4.646 4.646 0 0 1-.596-2.29c0-.797.2-1.593.596-2.288.4-.599.895-1.194 1.593-1.494.596-.399 1.294-.595 2.09-.595a3.51 3.51 0 0 1 1.693.396c.496.2.895.598 1.29 1.094l.899-.895c-.5-.595-1.095-.994-1.693-1.294-.696-.299-1.394-.398-2.19-.398zm73.887 2.96c-1.344 0-2.688.673-3.433 2.017a4.622 4.622 0 0 0-.5 2.089c0 .698.2 1.394.5 1.992.299.596.795 1.094 1.393 1.49a3.87 3.87 0 0 0 1.95.523c1.402 0 2.783-.735 3.523-2.013.299-.598.498-1.294.498-1.992 0-.795-.2-1.49-.498-2.09-.746-1.343-2.09-2.015-3.433-2.015zm136.03 0a3.888 3.888 0 0 0-3.433 2.017 4.655 4.655 0 0 0-.496 2.089c0 .698.2 1.394.496 1.992.399.596.798 1.094 1.393 1.49a3.88 3.88 0 0 0 1.953.523c1.4 0 2.78-.735 3.52-2.013.3-.598.499-1.294.499-1.992 0-.795-.2-1.49-.5-2.09-.744-1.343-2.088-2.015-3.432-2.015zm64.882 0a4.31 4.31 0 0 0-2.04.523c-.598.4-.994.898-1.393 1.494a4.621 4.621 0 0 0-.496 2.089c0 .698.196 1.394.496 1.992.399.596.795 1.094 1.393 1.49a3.877 3.877 0 0 0 1.95.523c1.402 0 2.783-.735 3.523-2.013.299-.598.498-1.294.498-1.992 0-.795-.2-1.49-.498-2.09-.3-.595-.796-1.094-1.394-1.493a4.302 4.302 0 0 0-2.04-.522zm-265.8 0a4.31 4.31 0 0 0-2.04.523c-.595.4-1.094.898-1.393 1.494a4.655 4.655 0 0 0-.496 2.089c0 .698.199 1.394.496 1.992.299.596.798 1.094 1.393 1.49a4.28 4.28 0 0 0 2.04.523 4.29 4.29 0 0 0 2.042-.522c.596-.397.994-.895 1.39-1.491.3-.598.5-1.294.5-1.992 0-.795-.2-1.49-.5-2.09-.396-.595-.794-1.094-1.39-1.493a4.32 4.32 0 0 0-2.042-.522zm412.33.027c-.696 0-1.394.2-1.99.596-.499.3-.995.798-1.194 1.394a4.45 4.45 0 0 0 0 4.18c.3.597.695 1.095 1.294 1.392a4.27 4.27 0 0 0 2.026.522 3.85 3.85 0 0 0 1.953-.522c.598-.396 1.094-.895 1.394-1.49l-1.095-.5c-.396.895-1.294 1.394-2.189 1.394-.499 0-.895-.1-1.294-.3a1.958 1.958 0 0 1-.895-.894c-.3-.499-.399-.995-.499-1.494h6.071v-.396c0-.698-.1-1.394-.399-1.992a3.52 3.52 0 0 0-1.29-1.394c-.6-.296-1.295-.496-1.893-.496zm31.845 0c-1.394 0-2.688.696-3.286 1.99-.397.598-.496 1.294-.496 2.089 0 .698.1 1.394.496 1.992.299.596.798 1.094 1.393 1.49.599.4 1.294.5 1.992.5a2.744 2.744 0 0 0 2.09-.598c.595-.298.994-.896 1.194-1.492l-1.095-.498c-.2.498-.498.795-.897 1.094-.397.3-.895.399-1.391.399-.4 0-.798-.2-1.195-.399-.399-.2-.698-.596-.897-.995a2.826 2.826 0 0 1-.397-1.493c0-.596.1-1.095.397-1.49.2-.5.498-.799.897-1.095.397-.2.796-.3 1.195-.3.089-.018.18-.026.273-.026.404 0 .795.163 1.118.326.399.296.698.695.798 1.094l1.194-.499a2.728 2.728 0 0 0-1.294-1.493c-.599-.396-1.294-.596-2.09-.596zm-396.21.082c-.113 0-.229.005-.341.018-.696 0-1.294.1-1.79.396-.5.2-.898.599-1.195.998l.895.695c.2-.299.496-.499.895-.695.3-.2.696-.3 1.195-.3.498 0 .994.2 1.493.496.396.4.596.898.596 1.394v.499c-.3-.2-.596-.3-.895-.4-.4-.099-.895-.099-1.294-.099a2.522 2.522 0 0 0-.313-.018c-.69 0-1.37.27-1.976.617a2.452 2.452 0 0 0-.895 1.89c0 .498.1.894.399 1.293.197.4.596.696.995.895.396.3.994.4 1.49.4.998 0 1.893-.5 2.489-1.295v1.095h1.194v-4.877c.1-.795-.2-1.59-.795-2.189a3.318 3.318 0 0 0-2.147-.813zm5.43-2.071v2.189h-1.393v1.294h1.393v4.477c-.1.297 0 .596.1.895.1.2.2.499.499.696.097.1.396.3.595.399.3.1.596.1.895.2h.599l.396-.2v-1.194c-.197.1-.496.2-.795.2-.3 0-.596-.1-.795-.3-.2-.3-.3-.596-.3-.995v-4.178h1.89v-1.294h-1.89v-2.19zm195.42 2.07c-.123 0-.25.006-.375.019-.596 0-1.095.1-1.69.396-.5.2-.898.599-1.195.998l.895.695c.2-.299.496-.499.895-.695.4-.2.796-.3 1.195-.3.498 0 1.094.2 1.493.496.396.4.596.898.596 1.394v.499c-.297-.2-.596-.3-.895-.4-.4-.099-.895-.099-1.294-.099a2.523 2.523 0 0 0-.312-.018c-.69 0-1.37.27-1.977.617a2.452 2.452 0 0 0-.895 1.89c0 .498.1.894.4 1.293.196.4.595.696.994.895.396.2.895.4 1.39.4.998 0 1.993-.5 2.49-1.295h.099v1.095h1.194v-4.877c.1-.795-.2-1.59-.895-2.189-.522-.52-1.27-.813-2.113-.813zm5.496-2.07v2.189h-1.393v1.294h1.393v4.477c0 .297 0 .596.1.895.1.2.3.499.499.696.197.1.396.3.596.399.299.1.598.1.895.2h.598c.1-.1.297-.1.396-.2v-1.194c-.197.1-.496.2-.795.2-.3 0-.596-.1-.895-.3-.1-.3-.2-.596-.2-.995v-4.178h1.89v-1.294h-1.89v-2.19zm169.57 0v2.189h-1.294v1.294h1.294v4.477c0 .297.1.596.2.895.1.2.2.499.399.696.2.1.396.3.695.399.2.1.499.1.796.2h.598l.496-.2v-1.194c-.297.1-.596.2-.895.2-.297 0-.596-.1-.795-.3-.2-.3-.2-.596-.2-.995v-4.178h1.793v-1.294h-1.793v-2.19zm28.105 2.07c-.113 0-.225.006-.34.019-.597 0-1.195.1-1.691.396-.499.2-.898.599-1.194.998l.895.795c.2-.399.496-.599.895-.795.299-.2.698-.3 1.194-.3.499 0 .995.2 1.493.496.397.4.596.898.596 1.394v.499c-.296-.2-.596-.3-.895-.4-.499-.099-.895-.099-1.294-.099a2.41 2.41 0 0 0-.307-.018c-.693 0-1.375.283-1.981.716-.596.397-.995 1.095-.895 1.79 0 .499.1.895.299 1.294.296.4.596.696.994.895.497.2.995.4 1.494.4.995 0 1.99-.5 2.485-1.295h.1v1.095h1.194v-4.877c.1-.795-.296-1.59-.895-2.189a3.318 3.318 0 0 0-2.147-.814zm5.43-1.97v2.089h-1.293v1.294h1.294v4.477c0 .297.1.596.2.895.099.2.199.499.398.696.197.1.496.3.696.399.299.1.598.1.795.2h.598c.2-.1.3-.1.497-.2v-1.194c-.297.1-.596.2-.895.2-.3 0-.596-.1-.796-.3-.2-.3-.2-.596-.2-.995v-4.178h1.793v-1.294h-1.792v-2.09zm15.526 1.989c-.499 0-.995 0-1.494.2-.399.196-.695.495-.994.795-.599.795-.5 1.79.2 2.488.395.396.894.596 1.49.795l.898.2c.396.1.895.299 1.194.496.296.2.496.498.396.798.1.299-.1.695-.496.795-.3.2-.798.3-1.194.3-.499 0-.895-.1-1.294-.4-.3-.2-.598-.596-.795-.995l-1.195.5a4.359 4.359 0 0 0 1.195 1.49c.596.399 1.39.598 2.089.598.596 0 1.094 0 1.59-.2.4-.199.798-.498 1.095-.894.2-.3.399-.798.399-1.194 0-.5-.2-.995-.596-1.394-.499-.399-1.094-.696-1.693-.795l-1.094-.3c-.4-.1-.696-.199-.995-.399-.2-.199-.3-.496-.3-.695 0-.3.2-.598.4-.795.396-.2.695-.3 1.094-.3.796 0 1.494.397 1.89 1.095l1.095-.499c-.2-.596-.596-.994-1.095-1.294-.596-.296-1.194-.396-1.79-.396zm-246.54-.102c-.61 0-1.205.175-1.743.498-.598.4-.995.898-1.294 1.494-.598 1.294-.598 2.787 0 4.18.3.597.696 1.095 1.294 1.392.496.399 1.095.499 1.79.499.499 0 .995-.1 1.493-.3.4-.299.796-.595 1.095-.994v.895c0 .698-.2 1.294-.696 1.892a2.861 2.861 0 0 1-3.186.197c-.396-.297-.695-.596-.895-1.095l-1.094.5c.199.595.598 1.193 1.094 1.492h.1a3.895 3.895 0 0 0 2.17.646c.961 0 1.927-.333 2.706-.945.696-.795 1.095-1.792.995-2.787v-7.362h-1.194v1.094a3.074 3.074 0 0 0-1.095-.895 3.178 3.178 0 0 0-1.54-.401zm-200.97.002c-.596 0-1.194.2-1.79.496a4.424 4.424 0 0 0-1.194 1.494c-.699 1.294-.699 2.787 0 4.18.299.597.695.996 1.194 1.392.596.399 1.194.499 1.79.499.598 0 1.094-.1 1.593-.3.399-.299.795-.595 1.095-.994v.895c0 .698-.2 1.294-.696 1.892-.499.396-1.194.596-1.793.596-.496 0-.994-.1-1.393-.4-.397-.296-.696-.595-.895-1.094l-1.095.499c.2.596.596 1.194 1.095 1.493h.1a3.712 3.712 0 0 0 2.094.654c1.955 0 3.777-1.549 3.777-3.74v-7.362h-1.194v1.094a3.073 3.073 0 0 0-1.095-.895c-.499-.299-.995-.399-1.593-.399zm38.362 15c-.223 0-.449.076-.646.226-.1.2-.2.396-.2.596 0 .299.1.498.2.698l.596.296c.3 0 .499-.1.695-.296.1-.2.2-.4.2-.698 0-.2-.1-.397-.2-.596a1.068 1.068 0 0 0-.645-.226zm376.4-.073c-.3 0-.496.1-.696.299-.1.2-.2.396-.2.596 0 .299.1.498.2.698.2.097.397.197.696.296.2 0 .498-.1.598-.296.197-.2.297-.4.297-.698 0-.2-.1-.397-.297-.596-.1-.2-.399-.3-.598-.3zm-370.26 4.152c.325 0 .65.163.976.325.3.2.596.5.795.796.1.299.2.598.3.997h-4.678c.1-.598.4-1.194.895-1.593.331-.33.728-.522 1.195-.522.097 0 .197.007.299.023a.898.898 0 0 1 .218-.026zm376.36 0c.346 0 .722.163.966.325.399.2.595.5.795.796.1.299.2.598.3.997h-4.678c.1-.598.399-1.194.895-1.593.33-.33.73-.522 1.194-.522.097 0 .197.007.3.023a.938.938 0 0 1 .228-.026zm-460.66-.047c.435 0 .884.123 1.283.372.297.3.696.599.895.995.2.499.3.995.3 1.593 0 .496-.1.995-.3 1.494-.2.396-.598.795-.994.994h.1a2.454 2.454 0 0 1-1.284.373c-.433 0-.858-.126-1.205-.373-.499-.199-.798-.598-.995-.994-.2-.499-.399-.998-.299-1.494-.1-.598.1-1.094.3-1.593.196-.396.495-.695.994-.995a2.063 2.063 0 0 1 1.205-.372zm427.58 0c.435 0 .858.123 1.205.372.398.3.797.599.997.995a4.17 4.17 0 0 1 0 3.087c-.2.396-.599.795-.997.994a2.072 2.072 0 0 1-1.205.373c-.436 0-.885-.126-1.281-.373-.399-.199-.698-.598-.898-.994-.197-.499-.396-.998-.296-1.494-.1-.598.1-1.094.296-1.593.2-.396.499-.695.898-.995a2.415 2.415 0 0 1 1.28-.372zm-419.13 2.86c.399 0 .798 0 1.094.2.4 0 .698.2.898.297 0 .498-.1.897-.3 1.294a1.957 1.957 0 0 1-.894.897c-.3.197-.698.297-1.194.297-.4 0-.798-.1-1.195-.397-.299-.299-.498-.598-.498-.994 0-.499.2-.898.598-1.194.396-.3.995-.4 1.49-.4zm13.136 0c.399 0 .795 0 1.094.2.4 0 .696.2.895.297 0 .498-.1.897-.296 1.294-.2.399-.499.698-.898.897-.396.197-.795.297-1.094.297-.496 0-.895-.1-1.294-.397-.297-.299-.496-.598-.496-.994 0-.499.199-.898.595-1.194.4-.3.995-.4 1.494-.4zm17.115-2.787c.399 0 .895.1 1.294.3.399.199.695.598.895.994.299.499.399.995.399 1.593 0 .496-.1.995-.4 1.494-.199.396-.495.795-.894.995-.4.199-.895.396-1.294.396-.397 0-.895-.197-1.194-.396-.496-.2-.796-.599-.995-.995a2.812 2.812 0 0 1-.4-1.494c0-.598.1-1.094.4-1.593.2-.396.499-.795.995-.995.299-.2.798-.299 1.194-.299zm12.438 0c.498 0 .897.1 1.294.3.399.299.698.598.897.994.297.499.397.995.397 1.593 0 .496-.1.995-.397 1.494-.199.396-.498.795-.897.995-.397.199-.795.396-1.294.396-.397 0-.895-.197-1.194-.396-.397-.2-.696-.599-.895-.995a2.832 2.832 0 0 1-.397-1.494c0-.598.1-1.094.397-1.593.2-.396.498-.695.895-.995.299-.2.798-.299 1.194-.299zm14.097-.026c.38 0 .706.163 1.029.325.498.2.798.599.994.995.3.499.4.995.4 1.593 0 .496-.1.995-.4 1.494-.196.396-.496.795-.994.995-.397.296-.796.396-1.294.396-.397 0-.796-.197-1.194-.396a2.422 2.422 0 0 1-.995-.995 2.832 2.832 0 0 1-.397-1.494c0-.598.1-1.094.397-1.593.2-.396.598-.795.995-.995a2.64 2.64 0 0 1 1.194-.299c.092-.018.18-.026.265-.026zm170.99-.074c.498.1.895.2 1.294.4.399.299.695.598.895.994.2.499.399.995.299 1.593.1.496-.1.995-.3 1.494-.199.396-.495.795-.894.995-.4.199-.795.396-1.294.396-.396 0-.895-.197-1.194-.396a2.422 2.422 0 0 1-.995-.995 4 4 0 0 1-.3-1.494c0-.598.1-1.094.3-1.593.2-.396.598-.695.995-.995.299-.2.798-.299 1.194-.399zm8.46 2.888c.395 0 .794 0 1.193.199.3 0 .596.2.796.297.1.498-.1.897-.3 1.294a1.94 1.94 0 0 1-.895.897c-.299.197-.695.297-1.094.297-.496 0-.895-.1-1.294-.397-.3-.299-.496-.598-.496-.994 0-.499.197-.898.596-1.195.399-.299.994-.398 1.493-.398zm13.133 0c.399 0 .798 0 1.097.199.297 0 .596.2.895.297 0 .498-.1.897-.299 1.294-.2.398-.499.698-.895.897a2.684 2.684 0 0 1-1.194.297c-.4 0-.895-.1-1.194-.397-.3-.299-.5-.598-.5-.994 0-.499.2-.898.5-1.195.496-.299.994-.398 1.59-.398zm157.13-2.788c.997 0 1.893.499 2.289 1.294.3.499.399.995.399 1.593 0 .496-.1.995-.4 1.494-.196.396-.495.795-.894.995-.397.296-.895.396-1.394.396-.396 0-.895-.1-1.291-.396-.4-.2-.698-.599-.998-.995a4.17 4.17 0 0 1 0-3.087c.3-.396.599-.795.998-.995.396-.2.895-.299 1.291-.299zm26.643-.026c.402 0 .78.163 1.021.325.499.2.798.599.997.995.297.499.397.995.397 1.593 0 .496-.1.995-.397 1.494-.199.396-.498.795-.997.994-.297.297-.795.397-1.291.397-.4 0-.898-.1-1.294-.397-.4-.199-.698-.598-.995-.994a4 4 0 0 1-.3-1.494c0-.598.1-1.094.3-1.593.297-.396.596-.795.995-.995.396-.2.895-.299 1.294-.299.089-.018.18-.026.27-.026zm-381.8-1.168c-.499 0-.995.2-1.294.399-.499.3-.795.598-.895 1.094v-1.294h-1.294v7.664h1.294v-4.28c0-.397.1-.796.3-1.095.096-.396.396-.696.695-.895.299-.2.695-.3.995-.3.399 0 .795.1 1.094.2v-1.294c-.3-.1-.596-.2-.895-.2zm9.654.3l2.685 3.682-2.685 3.881h1.49l1.893-2.887 1.99 2.887h1.493l-2.688-3.881 2.588-3.683h-1.493l-1.89 2.788-1.893-2.788zm8.06-.1v7.663h1.291v-7.664zm358.74-.2c-.499 0-.995.2-1.394.399-.396.3-.695.598-.895 1.094v-1.294h-1.294l.1 7.664h1.194v-4.28c.1-.397.2-.796.3-1.095.199-.396.496-.696.795-.895.299-.2.596-.3.995-.3.398 0 .698.1 1.094.2v-1.294c-.3-.1-.596-.2-.895-.2zm9.554.3l2.685 3.682-2.685 3.881h1.49l1.893-2.887 1.99 2.887h1.493l-2.688-3.881 2.588-3.683h-1.493l-1.89 2.788-1.892-2.788zm8.06-.1v7.663h1.294v-7.664zm-445.27-.218c-.113 0-.226.007-.338.018-.599 0-1.195.1-1.693.399a2.76 2.76 0 0 0-1.294 1.094l.994.696c.2-.297.5-.596.798-.795.397-.2.895-.3 1.292-.3.598 0 1.097.2 1.493.599.399.299.599.795.599 1.294v.496c-.3-.197-.599-.297-.898-.396-.396-.1-.795-.1-1.291-.1-.798 0-1.594.2-2.29.695-.598.4-.897 1.095-.897 1.893 0 .396.1.895.4 1.291.199.399.595.698.994.898.499.197.995.296 1.493.296.995 0 1.89-.496 2.489-1.291v1.094h1.194v-4.876c.1-.798-.3-1.593-.898-2.19a3.302 3.302 0 0 0-2.147-.815zm5.53-1.872v2.09h-1.29v1.194h1.29v4.577c0 .3 0 .598.1.895.1.2.3.499.499.698.2.1.399.3.695.396.2.1.5.1.798.1h.596c.2 0 .3-.1.499-.197v-1.194c-.3.197-.599.197-.895.297-.3 0-.599-.197-.798-.397-.2-.299-.3-.598-.2-.897v-4.278h1.793v-1.195h-1.892v-2.089zm7.607 1.872c-.113 0-.226.007-.342.018-.595 0-1.194.1-1.69.399-.498.2-.995.598-1.294 1.094l.995.696c.2-.297.496-.596.795-.795.4-.2.798-.3 1.294-.3.499 0 1.095.2 1.494.599.396.299.595.795.595 1.294v.496c-.296-.197-.595-.297-.895-.297-.399-.1-.795-.2-1.294-.2-.795 0-1.59.2-2.288.696-.596.4-.895 1.095-.895 1.893 0 .396.1.895.399 1.291.196.399.595.698.994.898.397.197.895.296 1.394.296.496 0 .995-.1 1.49-.396.4-.2.699-.499.996-.895h.1v1.094h1.194v-4.776c0-.898-.297-1.693-.895-2.29a3.307 3.307 0 0 0-2.147-.815zm9.013-1.872v2.09h-1.194v1.194h1.194v4.577c0 .3.1.598.2.895.099.2.199.499.398.698.197.1.397.3.696.396.299.1.596.1.895.1h.498c.2-.1.3-.1.497-.197v-1.194c-.297.197-.497.197-.796.297-.399 0-.695-.197-.895-.397-.1-.299-.2-.598-.2-.897v-4.278h1.79v-1.195h-1.79v-2.089zm53.239 1.89c-.696 0-1.394.2-1.99.598-.498.3-.897.796-1.194 1.394-.3.696-.499 1.391-.499 2.09 0 .695.2 1.393.5 2.088a3.126 3.126 0 0 0 1.393 1.394c.596.396 1.291.496 1.99.496.695 0 1.393-.1 1.989-.496.598-.399 1.094-.895 1.394-1.493l-1.095-.496c-.399.895-1.294 1.39-2.289 1.39-.399 0-.795-.099-1.194-.296-.399-.2-.698-.498-.995-.897-.2-.496-.399-.995-.399-1.491h5.971v-.4c0-.695-.1-1.393-.398-1.989-.297-.598-.696-1.094-1.294-1.393-.596-.3-1.195-.5-1.89-.5zm160.95-.018c-.113 0-.229.007-.341.018-.599 0-1.195.1-1.693.399a2.76 2.76 0 0 0-1.292 1.094l.995.696c.197-.297.496-.596.795-.795.4-.2.796-.3 1.195-.3.595 0 1.094.2 1.493.599.396.3.596.795.596 1.294v.496c-.3-.197-.596-.297-.895-.297-.4-.2-.796-.2-1.194-.2-.895 0-1.693.2-2.389.696-.596.4-.895 1.095-.895 1.893 0 .396.1.895.396 1.291.2.399.599.698.998.898.496.197.994.296 1.49.296.5 0 .995-.1 1.494-.396.399-.2.695-.499.995-.895v1.094h1.294v-4.776c0-.898-.3-1.693-.895-2.29a3.307 3.307 0 0 0-2.147-.815zm5.43-1.872v2.09h-1.294v1.194h1.294v4.577c0 .3 0 .598.1.895.1.2.3.499.496.698.2.1.4.3.698.396.2.1.496.1.796.1h.598c.1 0 .297-.1.396-.197v-1.194c-.2.197-.496.197-.795.297-.3 0-.598-.197-.795-.397-.2-.299-.3-.598-.3-.897v-4.278h1.89v-1.195h-1.89v-2.089zm7.638 1.872c-.123 0-.247.007-.373.018-.598 0-1.194.1-1.693.399-.496.2-.895.598-1.294 1.094l.995.696c.2-.297.499-.596.898-.795.296-.2.695-.3 1.094-.3.596 0 1.095.2 1.59.599.4.3.6.795.6 1.294v.496c-.3-.197-.6-.297-.896-.297-.399-.1-.897-.2-1.294-.2-.798 0-1.593.2-2.288.696-.599.4-.898 1.095-.898 1.893 0 .396.1.895.3 1.291.298.399.697.698 1.094.898.399.197.994.296 1.493.296.995 0 1.89-.496 2.488-1.291v1.094h1.194v-4.776c.1-.898-.199-1.693-.897-2.29-.52-.521-1.268-.815-2.113-.815zm149.19-1.872v2.09h-1.394v1.194h1.394v4.577c0 .3 0 .598.1.895.1.2.3.499.499.698.196.1.396.3.595.396.3.1.599.1.895.1h.599c.1-.1.299-.1.396-.197v-1.194c-.197.197-.496.197-.795.297-.3 0-.596-.197-.795-.397-.2-.299-.3-.598-.3-.897v-4.278h1.89v-1.195h-1.89v-2.089zm53.14 1.89c-.696 0-1.395.2-1.89.598-.6.3-.995.796-1.295 1.394-.299.696-.498 1.391-.399 2.09-.1.695.1 1.393.4 2.088a3.14 3.14 0 0 0 1.393 1.394c.596.396 1.294.496 1.99.496.695 0 1.393-.1 1.989-.496.598-.399.995-.895 1.394-1.493l-1.095-.496c-.499.895-1.294 1.39-2.289 1.39-.399 0-.895-.099-1.194-.296-.399-.2-.795-.498-.995-.897a2.797 2.797 0 0 1-.398-1.491h5.97c.1-.1.1-.3 0-.4 0-.695-.1-1.393-.398-1.989-.297-.598-.696-1.094-1.195-1.393-.595-.3-1.293-.499-1.99-.499zm-395.4-.021c-.67 0-1.342.165-1.954.52-.596.399-1.094.895-1.393 1.493a4.647 4.647 0 0 0-.496 2.09c0 .695.199 1.393.496 1.989.299.598.798 1.094 1.393 1.493.612.354 1.284.52 1.953.52 1.399 0 2.78-.732 3.52-2.013.299-.596.498-1.294.498-1.99 0-.795-.199-1.493-.498-2.089-.74-1.28-2.12-2.013-3.52-2.013zm350.07-.003c-.696 0-1.392.174-2.04.523-.596.399-1.095.895-1.394 1.493a4.646 4.646 0 0 0-.496 2.09c0 .695.2 1.393.496 1.989.399.598.798 1.094 1.394 1.493.611.354 1.283.52 1.953.52 1.398 0 2.779-.732 3.52-2.013.298-.596.498-1.294.498-1.99 0-.795-.2-1.493-.499-2.089-.296-.598-.795-1.094-1.39-1.493a4.29 4.29 0 0 0-2.043-.523zm-376.35 0a4.28 4.28 0 0 0-2.04.523c-.596.399-1.095.895-1.394 1.493a4.613 4.613 0 0 0-.496 2.09c0 .695.197 1.393.496 1.989.3.598.798 1.094 1.394 1.493a4.28 4.28 0 0 0 2.04.522c.697 0 1.393-.173 2.039-.522.598-.399.997-.895 1.393-1.493.3-.596.499-1.294.499-1.99 0-.795-.2-1.493-.499-2.089-.396-.598-.795-1.094-1.393-1.493a4.272 4.272 0 0 0-2.04-.523zm402.72 0a4.29 4.29 0 0 0-2.043.523c-.596.399-1.094.895-1.394 1.493a4.647 4.647 0 0 0-.496 2.09c0 .695.2 1.393.496 1.989.3.598.798 1.094 1.394 1.493a4.29 4.29 0 0 0 2.042.522 4.29 4.29 0 0 0 2.04-.522c.595-.399.994-.895 1.393-1.493.297-.596.496-1.294.496-1.99 0-.795-.2-1.493-.496-2.089-.399-.598-.798-1.094-1.393-1.493a4.287 4.287 0 0 0-2.04-.523zm-438.9-2.76v4.178c-.3-.397-.7-.796-1.095-.995-.5-.3-.998-.399-1.594-.399-.598 0-1.294.2-1.792.499-.496.399-.995.895-1.291 1.493-.599 1.294-.599 2.785 0 4.179.296.498.795.994 1.29 1.393.5.397 1.195.596 1.793.596.596 0 1.095-.1 1.594-.396.396-.2.795-.599 1.094-.995v1.094h1.194v-10.648zm89.466 2.797a4.1 4.1 0 0 0-1.501.286c-.397.1-.795.4-1.095.698a1.973 1.973 0 0 0 .2 2.586c.399.399.995.598 1.493.797l.895.197c.499.1.895.3 1.294.499.2.2.4.499.4.795 0 .3-.2.698-.5.798a2.78 2.78 0 0 1-1.294.297c-.396 0-.795-.1-1.194-.397a1.59 1.59 0 0 1-.795-.994l-1.194.496c.2.598.596 1.094 1.194 1.493.596.396 1.294.596 2.09.596.498 0 .994-.1 1.493-.297.396-.2.795-.498 1.094-.798.3-.396.399-.795.399-1.294 0-.496-.2-.994-.598-1.39-.4-.4-.995-.699-1.594-.798l-1.194-.297c-.296 0-.695-.2-.895-.399-.299-.2-.396-.399-.396-.698 0-.297.197-.596.496-.696.3-.2.698-.299 1.094-.299.071-.01.145-.013.216-.013.64 0 1.31.383 1.577 1.008l1.095-.496a2.761 2.761 0 0 0-1.095-1.294 3.773 3.773 0 0 0-1.685-.386zm146.77-2.798v4.179c-.3-.397-.596-.796-1.094-.995-.5-.3-.995-.399-1.594-.399-.595 0-1.194.2-1.79.499-.498.399-.994.895-1.293 1.493-.596 1.294-.596 2.785 0 4.179.299.498.795.994 1.293 1.393.496.397 1.195.596 1.79.596.599 0 1.095-.1 1.594-.396.498-.2.795-.599 1.094-.995v1.094h1.194v-10.648zm229.47 2.785c-.496 0-.995.1-1.49.3-.4.099-.699.398-.998.697a1.973 1.973 0 0 0 .2 2.586c.398.399.894.598 1.493.797l.895.197c.399.1.895.3 1.194.5.3.199.499.498.399.794.1.3-.1.698-.499.798-.296.197-.795.297-1.194.297-.396 0-.895-.1-1.294-.397-.296-.199-.596-.598-.795-.994l-1.095.496c.2.598.599 1.094 1.095 1.493.695.397 1.394.596 2.09.596.598 0 1.094-.1 1.592-.297.4-.2.796-.498 1.095-.797.2-.397.399-.796.399-1.294 0-.497-.2-.995-.599-1.294a3.142 3.142 0 0 0-1.69-.895l-1.094-.297c-.4 0-.699-.2-.998-.399-.197-.2-.296-.399-.296-.698 0-.297.196-.596.396-.696.399-.2.798-.299 1.094-.299.082-.01.163-.013.242-.013.695 0 1.294.383 1.65 1.008l1.095-.496a2.761 2.761 0 0 0-1.094-1.294c-.599-.3-1.194-.4-1.793-.4zm-416.95 0c-.496 0-1.094.1-1.49.399-.5.2-.799.598-1.095.995v-1.195h-1.194v10.848h1.194v-4.278c.296.397.596.696 1.094.895.397.297.995.397 1.491.397.698 0 1.294-.197 1.893-.496.496-.4.994-.896 1.294-1.394.595-1.394.595-2.885 0-4.179-.3-.598-.798-1.094-1.294-1.493-.599-.3-1.195-.499-1.893-.499zm376.45 0c-.596 0-1.094.1-1.59.399-.4.2-.798.598-.995.995v-1.195h-1.294v10.848h1.294v-3.283l-.1-.995h.1c.197.397.596.696.995.895.496.297 1.094.397 1.59.397.698 0 1.294-.1 1.793-.497.596-.398 1.094-.795 1.393-1.393.596-1.394.596-2.885 0-4.179-.299-.598-.798-1.094-1.393-1.493a3.435 3.435 0 0 0-1.793-.499zm105.68 138.82c.496 0 .895.1 1.294.3.297.199.596.498.795.894a2.151 2.151 0 0 1 0 2.19c-.399.797-1.194 1.193-2.089 1.193h-2.787v-4.577zm32.352 3.26c.465 0 .874.176 1.284.422.296.2.595.499.795.895.2.3.299.698.299 1.095h-5.375c.1-.696.498-1.294.997-1.79.344-.347.916-.617 1.451-.617.082 0 .16.005.24.018.104-.015.207-.023.309-.023zm-82.706.023c1.097 0 2.192.599 2.688 1.594.299.498.399 1.094.399 1.79 0 .598-.1 1.194-.4 1.792-.298.496-.695.895-1.094 1.095-.496.299-.994.498-1.593.498-.496-.1-.995-.199-1.49-.498a1.975 1.975 0 0 1-1.095-1.095c-.3-.598-.499-1.194-.499-1.792 0-.696.2-1.292.499-1.79.2-.5.596-.895 1.094-1.195a2.8 2.8 0 0 1 1.491-.399zm31.945 0c1.095 0 2.09.599 2.685 1.594.3.498.4 1.094.4 1.79 0 .598-.1 1.194-.4 1.792-.296.496-.695.895-1.194 1.095a2.671 2.671 0 0 1-1.49.498 2.68 2.68 0 0 1-1.494-.498c-.496-.2-.895-.599-1.195-1.095-.299-.598-.399-1.194-.399-1.792 0-.696.1-1.292.4-1.79.299-.5.698-.895 1.194-1.195.399-.299.994-.399 1.493-.399zm31.147 3.286c.396 0 .795.098 1.194.197.397.1.796.2 1.095.499 0 .399-.2.895-.4 1.394a4.73 4.73 0 0 1-.994.994c-.399.3-.895.4-1.394.4-.496 0-.994-.2-1.393-.5a1.421 1.421 0 0 1-.596-1.194c0-.498.2-.994.596-1.294.598-.299 1.194-.496 1.892-.496zm-52.268-4.692a2.52 2.52 0 0 0-.275.015c-.696 0-1.195.197-1.79.496-.4.2-.895.599-1.095 1.095h-.1v-1.294h-1.393l.1 8.858h1.393v-4.976c0-.499.1-.995.396-1.394.1-.496.5-.795.798-1.094.397-.3.796-.4 1.294-.4.596 0 1.194.2 1.59.599.5.499.699 1.095.6 1.79v5.475h1.49v-5.672c0-.997-.297-1.792-.795-2.488-.625-.627-1.412-1.01-2.213-1.01zm15.05.015c-.499 0-1.094.197-1.493.496-.496.3-.895.699-.995 1.195h-.1v-1.394h-1.394l-.097 8.858h1.491v-4.976c0-.499.1-.895.3-1.294.199-.399.498-.795.894-.995.4-.299.798-.399 1.195-.399.498 0 .895.1 1.294.3v-1.594c-.3-.197-.696-.197-1.095-.197zm12.24-3.286v12.441h1.493v-12.44zm8.06 0v12.441h1.493v-5.076h2.688c.695 0 1.294-.1 1.99-.499a4.232 4.232 0 0 0 1.393-1.29c.299-.6.496-1.195.496-1.893 0-.696-.197-1.294-.496-1.89-.4-.599-.895-.995-1.394-1.294-.695-.399-1.294-.499-1.99-.499zm9.853 0v12.441h1.493v-12.44zm17.39 3.27a2.55 2.55 0 0 0-.275.016c-.596 0-1.194.197-1.69.496-.499.2-.898.599-1.195 1.095h-.1v-1.294h-1.293v8.858h1.493v-4.976c0-.499.097-.995.297-1.394.2-.496.498-.795.895-1.095.299-.199.798-.398 1.194-.398.598 0 1.194.199 1.693.598.399.499.596 1.094.596 1.79v5.475h1.393v-5.672c.1-.997-.199-1.892-.795-2.488-.624-.627-1.412-1.01-2.212-1.01zm-83.865-3.566a6.254 6.254 0 0 0-3.284.895c-.995.496-1.79 1.294-2.388 2.288a7.178 7.178 0 0 0 0 6.667c.598.995 1.393 1.793 2.388 2.289a6.255 6.255 0 0 0 3.284.895c.897 0 1.892-.197 2.787-.596.795-.4 1.493-.895 2.09-1.593l-.996-1.095c-.994 1.194-2.388 1.893-3.881 1.893-.895 0-1.79-.2-2.486-.599-.798-.496-1.394-1.094-1.793-1.79a5.716 5.716 0 0 1 0-5.375 3.91 3.91 0 0 1 1.793-1.79c.696-.499 1.59-.698 2.486-.698.598 0 1.293.2 1.892.399a5.042 5.042 0 0 1 1.59 1.293l1.098-.994a6.002 6.002 0 0 0-4.58-2.09zm10.449 3.582c-.796 0-1.591.197-2.29.596a4.223 4.223 0 0 0-1.69 1.793c-.398.695-.598 1.49-.498 2.288-.1.895.1 1.69.499 2.486a4.607 4.607 0 0 0 1.69 1.693 4.618 4.618 0 0 0 2.289.596c.897 0 1.692-.197 2.388-.596.698-.4 1.194-.995 1.593-1.693a5.37 5.37 0 0 0 .596-2.486c0-.797-.197-1.593-.596-2.288-.399-.798-.895-1.294-1.593-1.793-.696-.399-1.49-.596-2.388-.596zm16.52-2.191v2.488h-1.591v1.294h1.59v5.375c0 .297 0 .696.1 1.095.1.196.3.496.599.695.196.2.496.4.695.499.4.1.696.197.995.197h.695c.2-.097.4-.097.599-.197v-1.494c-.3.2-.696.3-.995.3a.867.867 0 0 1-.21.026c-.299 0-.54-.163-.785-.326a2.637 2.637 0 0 1-.299-1.194v-4.976h2.19v-1.294h-2.19v-2.488zm15.407 2.168c-.777 0-1.562.2-2.27.62-.699.498-1.295.994-1.694 1.792-.396.695-.596 1.49-.596 2.386 0 .797.2 1.593.596 2.388a4.595 4.595 0 0 0 1.693 1.693 4.619 4.619 0 0 0 2.302.596c.808 0 1.627-.197 2.375-.596.696-.4 1.195-.995 1.59-1.693.4-.795.6-1.59.6-2.388 0-.895-.2-1.69-.6-2.386a4.498 4.498 0 0 0-3.996-2.412zm30.966.023c-.696 0-1.394.197-1.99.496-.598.3-1.095.698-1.494 1.195l1.095.895c.3-.397.598-.696.995-.895.498-.3.895-.4 1.393-.4.596 0 1.294.2 1.79.699.4.399.699.895.699 1.59v.499c-.4-.2-.699-.3-1.095-.399-.499-.1-.995-.197-1.493-.197-.895 0-1.89.297-2.688.795-.696.497-1.095 1.394-.995 2.19-.1.595.1 1.094.4 1.593.298.396.695.795 1.193.994.496.3 1.095.397 1.69.397.6 0 1.195-.097 1.793-.397a5.73 5.73 0 0 0 1.095-1.094h.1v1.194h1.393v-5.575c0-.994-.299-1.89-.997-2.585-.795-.698-1.89-.995-2.885-.995zm19.504 0c-.796 0-1.594.197-2.19.696-.695.399-1.194.995-1.593 1.693a6.032 6.032 0 0 0-.496 2.386c0 .798.2 1.692.596 2.388.3.698.898 1.294 1.593 1.693.596.399 1.494.596 2.289.596.795 0 1.593-.197 2.388-.596.596-.499 1.195-1.095 1.494-1.693l-1.194-.696c-.499.995-1.593 1.693-2.688 1.693a3.537 3.537 0 0 1-2.488-1.393c-.3-.599-.4-1.195-.496-1.793h7.063v-.396a6.38 6.38 0 0 0-.496-2.389c-.3-.698-.895-1.194-1.494-1.593a4.611 4.611 0 0 0-2.288-.596z"/><path fill="#000" fill-opacity="0" fill-rule="evenodd" d="M404.77 448.72v-2.488"/><path fill-rule="evenodd" stroke="#476baf" stroke-linecap="butt" stroke-miterlimit="37.914" stroke-width="2.488" d="M404.77 448.72v-2.488"/><path fill="#000" fill-opacity="0" fill-rule="evenodd" d="M404.77 441.16v-37.617"/><path fill-rule="evenodd" stroke="#476baf" stroke-dasharray="9.953 7.465" stroke-linecap="butt" stroke-miterlimit="37.914" stroke-width="2.488" d="M404.77 441.16v-37.617"/><path fill="#000" fill-opacity="0" fill-rule="evenodd" d="M404.77 401.06v-2.488"/><path fill-rule="evenodd" stroke="#476baf" stroke-linecap="butt" stroke-miterlimit="37.914" stroke-width="2.488" d="M404.77 401.06v-2.488"/><path fill="#476baf" fill-rule="evenodd" d="M404.77 389.61l-6.168 10.748h12.438l-6.27-10.748z"/><path fill="#000" fill-opacity="0" fill-rule="evenodd" d="M320.79 494.6h-2.488"/><path fill-rule="evenodd" stroke="#476baf" stroke-linecap="butt" stroke-miterlimit="37.914" stroke-width="2.488" d="M320.79 494.6h-2.488"/><path fill="#000" fill-opacity="0" fill-rule="evenodd" d="M312.33 494.6h-8.955"/><path fill-rule="evenodd" stroke="#476baf" stroke-linecap="butt" stroke-miterlimit="37.914" stroke-width="2.488" d="M312.33 494.6h-8.955"/><path fill="#000" fill-opacity="0" fill-rule="evenodd" d="M300.39 494.6h-2.488"/><path fill-rule="evenodd" stroke="#476baf" stroke-linecap="butt" stroke-miterlimit="37.914" stroke-width="2.488" d="M300.39 494.6h-2.488"/><path fill="#476baf" fill-rule="evenodd" d="M299.79 488.43l-10.845 6.17 10.845 6.268V488.43z"/><path fill="#000" fill-opacity="0" fill-rule="evenodd" d="M510.66 344.83h-2.488"/><path fill-rule="evenodd" stroke="#476baf" stroke-linecap="butt" stroke-miterlimit="37.914" stroke-width="2.488" d="M510.66 344.83h-2.488"/><path fill="#000" fill-opacity="0" fill-rule="evenodd" d="M502.2 344.83h-8.955"/><path fill-rule="evenodd" stroke="#476baf" stroke-linecap="butt" stroke-miterlimit="37.914" stroke-width="2.488" d="M502.2 344.83h-8.955"/><path fill="#000" fill-opacity="0" fill-rule="evenodd" d="M490.25 344.83h-2.486"/><path fill-rule="evenodd" stroke="#476baf" stroke-linecap="butt" stroke-miterlimit="37.914" stroke-width="2.488" d="M490.25 344.83h-2.486"/><path fill="#476baf" fill-rule="evenodd" d="M508.76 338.66v12.438l10.748-6.27-10.748-6.168z"/><path fill="#000" fill-opacity="0" fill-rule="evenodd" d="M320.79 344.83h-2.488"/><path fill-rule="evenodd" stroke="#476baf" stroke-linecap="butt" stroke-miterlimit="37.914" stroke-width="2.488" d="M320.79 344.83h-2.488"/><path fill="#000" fill-opacity="0" fill-rule="evenodd" d="M312.33 344.83h-8.955"/><path fill-rule="evenodd" stroke="#476baf" stroke-dasharray="9.953 7.465" stroke-linecap="butt" stroke-miterlimit="37.914" stroke-width="2.488" d="M312.33 344.83h-8.955"/><path fill="#000" fill-opacity="0" fill-rule="evenodd" d="M300.39 344.83h-2.488"/><path fill-rule="evenodd" stroke="#476baf" stroke-linecap="butt" stroke-miterlimit="37.914" stroke-width="2.488" d="M300.39 344.83h-2.488"/><path fill="#476baf" fill-rule="evenodd" d="M299.79 338.66l-10.845 6.168 10.845 6.27V338.66z"/><path fill="#e5e5e4" fill-rule="evenodd" d="M524.29 327.22c-1.99 0-3.682 1.693-3.682 3.682v27.864c0 2.09 1.692 3.782 3.682 3.782h92.843c2.092 0 3.682-1.692 3.682-3.782v-27.864c0-1.99-1.69-3.682-3.682-3.682z"/><path fill="#fff" fill-rule="evenodd" d="M531.45 332.99c-2.092.1-3.682 1.693-3.782 3.782v14.031c.1 2.09 1.69 3.683 3.782 3.782h78.415a3.78 3.78 0 0 0 3.78-3.782v-14.03c-.098-2.09-1.69-3.683-3.78-3.783z"/><path fill="#000" fill-rule="evenodd" d="M583.4 342.54c.396 0 .696 0 .995.2.2.199.396.398.596.595.1.2.1.499.199.698h-3.483c.1-.399.3-.795.599-1.094.296-.3.695-.399 1.094-.399zm-29.556-1.89l.399.895.995 2.887h-2.688l.997-2.887.297-.895zm6.803 1.872c.662 0 1.307.385 1.656 1.013.2.299.2.698.2 1.094 0 .4 0 .798-.2 1.194-.2.3-.399.599-.695.699a1.44 1.44 0 0 1-.898.296c-.323 0-.646-.097-.895-.296a1.2 1.2 0 0 1-.695-.699 2.63 2.63 0 0 1-.3-1.194c0-.396.1-.695.3-1.094.1-.297.396-.596.695-.796a1.72 1.72 0 0 1 .832-.217zm12.85-.006a2.1 2.1 0 0 1 .945.223c.3.2.499.5.698.796.1.399.2.698.2 1.094 0 .4-.1.798-.2 1.194-.2.3-.399.599-.698.699a1.687 1.687 0 0 1-.945.296c-.323 0-.645-.097-.945-.296-.299-.1-.496-.4-.695-.699a2.63 2.63 0 0 1-.3-1.194c0-.396.1-.695.3-1.094.2-.297.396-.596.695-.796.3-.15.622-.223.945-.223zm-6.517 2.113c.3 0 .596 0 .895.1l.599.3c0 .298-.1.695-.2.894-.2.3-.399.499-.698.698-.297.1-.596.197-.895.197a.52.52 0 0 1-.163.03c-.244 0-.488-.164-.732-.326-.2-.1-.399-.4-.399-.699 0-.296.2-.695.399-.895a2.65 2.65 0 0 1 1.194-.299zm-13.633-5.073l-2.987 7.96h.995l.798-2.189h3.483l.795 2.19h.995l-2.984-7.961zm36.42 2.089c-.3 0-.695.1-.995.3a1.52 1.52 0 0 0-.595.794v-.895h-.898l-.1 5.772h.998v-3.283c0-.3 0-.599.196-.898.1-.197.3-.396.5-.596.298-.2.498-.2.794-.2.3 0 .599 0 .798.1v-.994c-.2-.1-.399-.1-.698-.1zm-27.265-2.09v3.085c-.2-.3-.499-.496-.798-.696a2.625 2.625 0 0 0-1.191-.299c-.499 0-.898.1-1.394.399-.399.297-.698.596-.898 1.094a3.382 3.382 0 0 0 0 3.084c.2.4.5.796.898 1.095.496.3.995.399 1.49.399.4 0 .799-.1 1.195-.3.3-.099.499-.398.698-.695v.895h.895v-8.06zm4.063 2.053c-.325 0-.68.11-.979.336-.399.1-.695.397-.895.696l.696.598c.2-.299.399-.499.698-.598.2-.1.496-.2.795-.2.4 0 .795.1 1.194.4.3.199.4.595.4.994v.399c-.2-.1-.4-.2-.699-.2-.21-.07-.422-.141-.632-.141a.831.831 0 0 0-.263.042 1.733 1.733 0 0 0-.307-.027c-.49 0-.971.195-1.386.525-.496.297-.695.796-.695 1.392 0 .698.399 1.293.994 1.593.4.2.798.299 1.195.299.399 0 .698-.1 1.094-.3.3-.099.499-.398.698-.695v.895h.895v-3.782c.1-.596-.2-1.194-.598-1.593-.496-.415-.995-.622-1.549-.622-.113 0-.225.01-.34.026a1.233 1.233 0 0 0-.316-.037zm11.163-1.357v1.594h-.997v.795h.997v3.383c0 .3.1.499.1.698.097.197.197.396.396.496.1.2.3.3.499.4.2 0 .396.099.596.099h.498c.1 0 .2-.1.3-.1v-.995c-.2.1-.4.197-.599.197-.299 0-.498-.097-.596-.296-.2-.2-.2-.4-.2-.698v-3.184h1.395v-.795h-1.394v-1.594zm5.672 1.394c-.499 0-.995.1-1.394.399-.399.297-.795.696-.994 1.095-.2.496-.3.994-.3 1.49 0 .599.1 1.095.3 1.594.299.398.595.795 1.094 1.094.397.3.895.399 1.494.399.994 0 1.99-.598 2.485-1.493l-.795-.4c-.3.599-.995.995-1.69.995-.3 0-.599-.097-.898-.197-.297-.199-.596-.398-.696-.698-.199-.296-.299-.695-.398-1.094h4.577v-.3c0-.495-.1-.994-.396-1.49-.2-.4-.5-.798-.898-.995a2.797 2.797 0 0 0-1.49-.399zm-9.853 0c-.396 0-.795.1-1.194.3-.297.199-.596.396-.795.695v-.795h-.895v8.06h.895v-3.284c.199.397.498.596.795.796.399.2.798.299 1.194.299.499 0 .995-.2 1.394-.399.399-.3.695-.696.995-1.095a4.123 4.123 0 0 0 0-3.084 3.51 3.51 0 0 0-.995-1.094c-.4-.3-.895-.399-1.394-.399z"/><path fill="#486baf" fill-rule="evenodd" d="M520.51 327.22v13.037h13.037V327.22z"/><path fill="#fff" fill-rule="evenodd" d="M523.69 337.27l2.488 1.194 4.082-1.194zm2.49-5.28l-2.488 4.877 2.488-.4v-4.477zm.4-3.18v7.661l3.682.4-3.682-8.061z"/><path fill="#e5e5e4" fill-rule="evenodd" d="M192.42 327.22a3.675 3.675 0 0 0-3.682 3.682v27.864c0 2.09 1.692 3.782 3.682 3.782h92.845c2.09 0 3.682-1.692 3.682-3.782v-27.864c0-1.99-1.693-3.682-3.682-3.682z"/><path fill="#fff" fill-rule="evenodd" d="M199.58 332.99a3.782 3.782 0 0 0-3.782 3.782v14.031a3.782 3.782 0 0 0 3.782 3.782h78.614c1.99 0 3.682-1.693 3.583-3.782v-14.03c-.1-2.09-1.693-3.683-3.782-3.783z"/><path fill="#000" fill-rule="evenodd" d="M251.63 342.54c.399 0 .696 0 .995.2.2.199.399.398.498.595.2.2.2.499.297.698h-3.483c0-.399.3-.795.599-1.094.299-.3.695-.399 1.094-.399zm-29.554-1.89l.396.895.995 2.887h-2.685l.995-2.887.299-.895zm6.816 1.866c.323 0 .646.074.945.223.3.2.496.5.696.796.1.399.2.698.2 1.094 0 .4-.1.798-.2 1.194-.2.3-.397.599-.696.699a1.694 1.694 0 0 1-.945.296c-.325 0-.648-.097-.947-.296-.297-.1-.496-.4-.696-.699a2.628 2.628 0 0 1-.299-1.194c0-.396.1-.695.3-1.094.199-.297.398-.596.695-.796.299-.15.622-.223.947-.223zm6.318 2.113c.3 0 .598 0 .798.1.296.1.496.2.695.3 0 .298-.1.695-.2.894-.199.3-.398.499-.695.698h-.1c-.199.197-.498.197-.894.197-.3 0-.599-.097-.898-.296-.2-.1-.297-.4-.297-.699 0-.296.097-.695.397-.895.299-.2.798-.299 1.194-.299zm6.47-2.113c.323 0 .645.074.895.223.299.2.596.5.695.796.2.399.3.698.3 1.094 0 .4-.1.798-.3 1.194a1.2 1.2 0 0 1-.695.699c-.25.199-.572.296-.895.296-.326 0-.649-.097-.898-.296a1.208 1.208 0 0 1-.695-.699 2.63 2.63 0 0 1-.3-1.194c0-.396.1-.695.3-1.094.1-.297.398-.596.695-.796.25-.15.572-.223.898-.223zm-20.102-2.96l-2.985 8.06h.995l.795-2.289h3.384l.895 2.19h.994l-2.984-7.961zm36.42 2.089c-.297 0-.696.1-.995.3a1.55 1.55 0 0 0-.596.794v-.895h-.895l-.1 5.772h.995v-3.283c0-.3 0-.599.2-.898.1-.197.296-.396.496-.596.299-.2.498-.2.798-.2.296 0 .496 0 .795.1v-.994c-.2-.1-.4-.1-.698-.1zm-27.265-2.09v3.085c-.2-.3-.496-.496-.796-.696a2.643 2.643 0 0 0-1.194-.299c-.498 0-.995.1-1.393.399-.4.297-.696.596-.895 1.094a3.366 3.366 0 0 0 0 3.084c.199.4.496.796.895 1.095.498.3.994.399 1.493.399.396 0 .795-.1 1.194-.3.297-.1.496-.398.696-.695v.895h.895v-8.06zm4.685 2.064c-.105 0-.208.01-.307.026-.496 0-.895.1-1.294.3-.397.099-.696.395-.895.695l.698.598c.197-.3.396-.499.596-.598.299-.1.598-.2.895-.2.399 0 .797.1 1.194.4.299.199.399.595.399.994v.399c-.2-.1-.4-.2-.696-.2-.212-.07-.422-.141-.635-.141a.843.843 0 0 0-.262.042 2.26 2.26 0 0 0-1.79.499c-.4.296-.699.795-.599 1.39-.1.699.3 1.294.995 1.594.3.2.698.299 1.097.299.396 0 .795-.1 1.094-.3.297-.1.596-.398.696-.695v.895h.995v-3.782c0-.596-.3-1.194-.696-1.593a2.126 2.126 0 0 0-1.485-.622zm10.64-1.368v1.594h-.995v.795h.995v3.383c-.1.3 0 .499.1.698 0 .197.1.396.296.496.1.2.3.3.499.4.2 0 .399.099.598.099h.496c.1 0 .2-.1.3-.1v-.995c-.2.1-.4.197-.599.197-.297 0-.496-.097-.596-.296-.2-.2-.2-.4-.2-.698v-3.184h1.394v-.795h-1.393v-1.594zm5.572 1.394c-.499 0-.995.1-1.394.399-.396.297-.795.695-.995 1.094-.199.497-.399.995-.299 1.491-.1.599.1 1.095.3 1.593.199.4.598.796.994 1.095.499.3.995.399 1.593.399.995 0 1.99-.599 2.489-1.494l-.798-.398c-.397.598-.995.994-1.69.994-.4 0-.699-.097-.896-.197-.299-.199-.598-.399-.698-.698-.299-.296-.396-.695-.396-1.094h4.577v-.3c0-.495-.2-.994-.399-1.49-.2-.4-.498-.798-.895-.995a2.806 2.806 0 0 0-1.493-.399zm-9.95 0c-.4 0-.798.1-1.095.3-.399.199-.598.396-.798.695v-.796h-.895l-.1 8.06h.995v-3.283c.2.397.4.596.798.796.297.2.696.299 1.095.299.496 0 .995-.2 1.39-.4.4-.298.799-.695.998-1.094a3.382 3.382 0 0 0 0-3.084c-.2-.498-.598-.797-.997-1.094-.396-.3-.895-.399-1.391-.399z"/><path fill="#486baf" fill-rule="evenodd" d="M188.73 327.22v13.037h13.037V327.22z"/><path fill="#fff" fill-rule="evenodd" d="M191.92 337.27l2.488 1.194 3.98-1.194zm2.49-5.28l-2.488 4.877 2.488-.4v-4.477zm.4-3.18v7.661l3.583.4-3.583-8.061z"/><path fill="#e5e5e4" fill-rule="evenodd" d="M132.02 32.066c-2.092 0-3.682 1.69-3.682 3.782v161.81c0 2.09 1.59 3.68 3.682 3.68h161.8c2.092 0 3.682-1.59 3.682-3.68V35.848c0-2.092-1.59-3.782-3.682-3.782z"/><path fill="#e5e5e4" fill-rule="evenodd" d="M124.95 25a3.78 3.78 0 0 0-3.782 3.782v161.71a3.78 3.78 0 0 0 3.782 3.782h161.71a3.78 3.78 0 0 0 3.78-3.782V28.782A3.78 3.78 0 0 0 286.66 25z"/><path fill="#fff" fill-rule="evenodd" d="M136.79 34.454c-2.09 0-3.78 1.59-3.78 3.682v42.79c0 1.99 1.69 3.68 3.78 3.68h138.02c2.09 0 3.782-1.69 3.782-3.68v-42.79c0-2.092-1.693-3.682-3.782-3.682z"/><path fill="#000" fill-rule="evenodd" d="M234.26 52.564c-.273 0-.549.1-.745.3-.2.199-.3.398-.3.695 0 .299.1.598.3.798.196.197.472.296.745.296s.549-.1.745-.296c.2-.2.3-.499.3-.798 0-.297-.1-.496-.3-.696a1.043 1.043 0 0 0-.745-.299zm-22.638 4.777c.496 0 1.094.1 1.49.399.4.197.699.496.898.895.197.399.297.695.297 1.094h-5.373c.1-.695.4-1.294.895-1.693.499-.496 1.095-.695 1.793-.695zm38.808 0c.598 0 1.094.1 1.493.399.397.197.696.496.895.895.2.399.3.695.3 1.094h-5.376c.1-.695.499-1.294.995-1.693.399-.496 1.097-.695 1.693-.695zm14.231-2.885l.496 1.391 1.693 4.478h-4.378l1.69-4.478.499-1.39zm-43.089 1.591c-.499 0-1.095.2-1.493.499-.496.296-.895.695-1.095 1.194v-1.494h-1.394v8.856h1.394v-4.974c0-.399.1-.897.3-1.294.199-.399.498-.698.894-.994.3-.2.798-.4 1.195-.4.498 0 .895.1 1.294.3v-1.494c-.4-.2-.696-.2-1.095-.2zm1.89.2l3.583 8.855h1.493l3.583-8.856h-1.594l-2.685 7.166-2.787-7.166zm10.052 0v8.855h1.49v-8.856zm30.349-3.583l-4.677 12.438h1.692l1.195-3.383h5.372l1.294 3.383h1.594l-4.777-12.438zm-52.241 3.283c-.798 0-1.593.2-2.289.698-.598.397-1.094.995-1.493 1.69-.3.796-.499 1.594-.499 2.39 0 .794.2 1.692.598 2.388.3.695.895 1.294 1.494 1.693.745.396 1.567.595 2.375.595s1.604-.199 2.3-.595c.698-.4 1.194-.998 1.593-1.693l-1.294-.596a2.864 2.864 0 0 1-2.588 1.59c-.496 0-.995-.1-1.391-.299-.5-.296-.898-.595-1.095-1.094-.3-.496-.499-1.095-.499-1.69h6.966v-.5c.1-.794-.1-1.59-.399-2.388-.396-.595-.895-1.194-1.49-1.59a4.62 4.62 0 0 0-2.29-.599zm38.808 0c-.795 0-1.593.2-2.289.698a3.894 3.894 0 0 0-1.394 1.69c-.396.796-.595 1.594-.595 2.39 0 .794.2 1.692.595 2.388.4.695.895 1.294 1.594 1.693a4.651 4.651 0 0 0 2.301.595c.809 0 1.628-.199 2.376-.595a5.223 5.223 0 0 0 1.59-1.693l-1.291-.596a2.87 2.87 0 0 1-2.588 1.59c-.499 0-.995-.1-1.394-.299-.498-.296-.895-.595-1.194-1.094-.3-.496-.499-1.095-.499-1.69h7.066v-.5c0-.794-.2-1.59-.496-2.388-.399-.595-.895-1.194-1.493-1.59a4.614 4.614 0 0 0-2.29-.599zm-49.031-3.609c-.57 0-1.129.179-1.62.426-.498.299-.994.695-1.393 1.294-.3.496-.496.994-.496 1.59 0 .798.296 1.593.895 2.192.595.496 1.294.994 2.089 1.194l.795.296c.798.2 1.494.599 2.09 1.095.398.3.697.898.697 1.394 0 .598-.299 1.194-.795 1.593-.498.396-1.194.596-1.792.596-.696 0-1.394-.2-1.89-.696-.499-.499-.898-1.094-1.095-1.793l-1.393.5a3.924 3.924 0 0 0 1.69 2.487c.698.596 1.593.895 2.588.895.128.019.252.027.375.027.54 0 1.029-.163 1.517-.326.696-.296 1.192-.695 1.59-1.294.4-.596.699-1.291.6-1.99.099-.894-.2-1.79-.799-2.388a7.649 7.649 0 0 0-2.488-1.394l-.895-.296a5.518 5.518 0 0 1-1.69-.898 1.414 1.414 0 0 1-.599-1.194c0-.596.3-1.095.698-1.391.496-.4 1.095-.499 1.591-.499.598 0 1.194.1 1.693.499.396.296.596.695.795 1.194l1.394-.598c-.2-.397-.4-.796-.698-1.195-.297-.396-.796-.695-1.192-.895-.493-.246-1.052-.425-1.567-.425-.11 0-.22.01-.325.026a2.924 2.924 0 0 0-.37-.026zm39.877 3.61c-.795 0-1.593.199-2.289.697-.695.297-1.294.895-1.693 1.591-.695 1.593-.695 3.383 0 4.877a4.634 4.634 0 0 0 1.693 1.693 4.167 4.167 0 0 0 2.289.695c.895 0 1.69-.2 2.488-.695a3.917 3.917 0 0 0 1.394-1.693l-1.294-.596c-.2.496-.599.895-.995 1.191-.499.3-1.095.5-1.593.5-.599 0-1.095-.2-1.494-.5-.496-.296-.895-.695-1.094-1.191a4.262 4.262 0 0 1 0-3.483c.2-.499.598-.997 1.094-1.294.4-.3.895-.399 1.494-.399.498 0 1.094.1 1.593.399.396.297.695.795.895 1.294l1.394-.599c-.3-.695-.798-1.393-1.394-1.79-.798-.498-1.593-.698-2.488-.698z"/><path fill="#767576" fill-rule="evenodd" d="M165.95 37.139c-12.339 0-22.388 10.052-22.388 22.391 0 12.339 10.05 22.391 22.388 22.391 12.339 0 22.391-10.052 22.391-22.391 0-12.339-10.052-22.391-22.391-22.391z"/><path fill="#000" fill-opacity="0" fill-rule="evenodd" d="M157.99 51.47h15.921v15.822H157.99z"/><path fill-rule="evenodd" stroke="#fff" stroke-linecap="butt" stroke-linejoin="round" stroke-width="2.488" d="M157.99 51.47h15.921v15.822H157.99z"/><path fill="#000" fill-opacity="0" fill-rule="evenodd" d="M160.97 51.47v-3.882m4.976 3.782v-3.782m4.977 3.782v-3.782m-9.953 23.885v-3.882m4.976 3.882v-3.882m4.977 3.882v-3.882m-13.037-3.084h-3.88m3.88-4.976h-3.88m3.88-4.977h-3.88m23.883 9.953h-3.882m3.882-4.976h-3.882m3.882-4.977h-3.882"/><path fill-rule="evenodd" stroke="#fff" stroke-linecap="round" stroke-miterlimit="37.914" stroke-width="2.488" d="M160.97 51.47v-3.882m4.976 3.782v-3.782m4.977 3.782v-3.782m-9.953 23.885v-3.882m4.976 3.882v-3.882m4.977 3.882v-3.882m-13.037-3.084h-3.88m3.88-4.976h-3.88m3.88-4.977h-3.88m23.883 9.953h-3.882m3.882-4.976h-3.882m3.882-4.977h-3.882"/><path fill="#fff" fill-rule="evenodd" d="M164.95 55.848a2.464 2.464 0 0 0-2.488 2.488v2.09a2.464 2.464 0 0 0 2.488 2.488h1.99a2.464 2.464 0 0 0 2.488-2.489v-2.089a2.464 2.464 0 0 0-2.489-2.488zm-28.16 75.532c-2.09 0-3.78 1.69-3.78 3.782v41.097a3.78 3.78 0 0 0 3.78 3.782h138.02a3.782 3.782 0 0 0 3.782-3.782v-41.097a3.78 3.78 0 0 0-3.782-3.782z"/><path fill="#000" fill-opacity="0" fill-rule="evenodd" d="M183.16 165.21v-19.008l-16.517-9.554-16.52 9.554v19.008l16.52 9.551z"/><path fill-rule="evenodd" stroke="#b14d9d" stroke-linecap="butt" stroke-linejoin="round" stroke-width="3.782" d="M183.16 165.21v-19.008l-16.517-9.554-16.52 9.554v19.008l16.52 9.551z"/><path fill="#000" fill-rule="evenodd" d="M217.59 150.09c.898 0 1.593.496 2.092 1.294.1.297.197.696.296 1.095-.1 1.294-1.094 2.288-2.388 2.288h-2.785v-4.677zm15.525 3.284c.499 0 1.095.1 1.493.398.496.297.895.696 1.195 1.195.496 1.094.496 2.485 0 3.58-.3.498-.699.897-1.195 1.194h.1c-.499.3-.997.499-1.593.499a2.67 2.67 0 0 1-1.493-.5 3.423 3.423 0 0 1-1.195-1.193 3.809 3.809 0 0 1 0-3.58c.3-.499.699-.898 1.195-1.195.399-.299.994-.398 1.493-.398zm-19.803-4.578v12.438h1.493v-5.173h2.785c.599 0 1.294-.1 1.893-.399a3.526 3.526 0 0 0 1.393-1.294 3.689 3.689 0 0 0 0-3.782c-.299-.596-.798-.995-1.393-1.294-.599-.397-1.294-.496-1.893-.496zm13.832 3.284c-.596 0-1.095.2-1.59.498-.5.297-.798.696-.998 1.194h-.097v-1.393h-1.394v8.855h1.394v-4.976c0-.496.097-.895.396-1.291a2.1 2.1 0 0 1 .796-.998c.398-.296.797-.396 1.294-.396.398 0 .797.1 1.194.297v-1.59c-.297-.2-.696-.2-.995-.2zm11.244.299l3.087 4.378-3.087 4.477h1.693l2.289-3.383 2.288 3.383h1.693l-3.186-4.477 3.087-4.378h-1.693l-2.19 3.283-2.288-3.283zm-5.323-.323c-.79 0-1.596.202-2.338.622-.696.396-1.195.995-1.594 1.79-.795 1.493-.795 3.184 0 4.777.4.695.898 1.294 1.594 1.69a4.72 4.72 0 0 0 2.338.625c1.614 0 3.16-.843 4.032-2.315.795-1.593.795-3.284 0-4.777-.809-1.546-2.386-2.412-4.032-2.412zm13.583.323l3.683 8.36-1.99 4.278h1.494l5.472-12.638h-1.593l-2.685 6.567-2.788-6.567z"/><path fill="#e5e5e4" fill-rule="evenodd" d="M522.8 32.066a3.78 3.78 0 0 0-3.782 3.782v161.81c0 2.09 1.693 3.68 3.782 3.68h161.71c2.09 0 3.782-1.59 3.782-3.68V35.848a3.78 3.78 0 0 0-3.782-3.782z"/><path fill="#e5e5e4" fill-rule="evenodd" d="M515.63 25c-2.09 0-3.68 1.693-3.68 3.782v161.71c0 2.09 1.59 3.782 3.68 3.782h161.81c2.09 0 3.682-1.693 3.682-3.782V28.782c0-2.089-1.593-3.782-3.682-3.782z"/><path fill="#fff" fill-rule="evenodd" d="M527.47 34.454a3.673 3.673 0 0 0-3.682 3.682v42.79c0 1.99 1.692 3.68 3.682 3.68h138.12a3.67 3.67 0 0 0 3.68-3.68v-42.79c0-2.092-1.59-3.682-3.68-3.682z"/><path fill="#767576" fill-rule="evenodd" d="M556.63 37.139c-12.339 0-22.391 10.052-22.391 22.391 0 12.339 10.052 22.391 22.391 22.391 12.438 0 22.388-10.052 22.388-22.391 0-12.339-9.95-22.391-22.388-22.391z"/><path fill="#000" fill-opacity="0" fill-rule="evenodd" d="M548.77 51.47h15.822v15.822H548.77z"/><path fill-rule="evenodd" stroke="#fff" stroke-linecap="butt" stroke-linejoin="round" stroke-width="2.488" d="M548.77 51.47h15.822v15.822H548.77z"/><path fill="#000" fill-opacity="0" fill-rule="evenodd" d="M551.65 51.47v-3.882m4.976 3.782v-3.782m5.074 3.782v-3.782m-10.05 23.885v-3.882m4.976 3.882v-3.882m5.074 3.882v-3.882m-13.134-3.084h-3.782m3.782-4.976h-3.782m3.782-4.977h-3.782m23.785 9.953h-3.783m3.783-4.976h-3.783m3.783-4.977h-3.783"/><path fill-rule="evenodd" stroke="#fff" stroke-linecap="round" stroke-miterlimit="37.914" stroke-width="2.488" d="M551.65 51.47v-3.882m4.976 3.782v-3.782m5.074 3.782v-3.782m-10.05 23.885v-3.882m4.976 3.882v-3.882m5.074 3.882v-3.882m-13.134-3.084h-3.782m3.782-4.976h-3.782m3.782-4.977h-3.782m23.785 9.953h-3.783m3.783-4.976h-3.783m3.783-4.977h-3.783"/><path fill="#fff" fill-rule="evenodd" d="M555.64 55.848a2.464 2.464 0 0 0-2.488 2.488v2.09a2.464 2.464 0 0 0 2.488 2.488h2.09a2.464 2.464 0 0 0 2.487-2.489v-2.089a2.464 2.464 0 0 0-2.488-2.488zm-28.17 75.532c-1.99 0-3.682 1.69-3.682 3.782v41.097c0 2.09 1.692 3.782 3.682 3.782h138.12c2.09 0 3.68-1.693 3.68-3.782v-41.097c0-2.092-1.59-3.782-3.68-3.782z"/><path fill="#000" fill-opacity="0" fill-rule="evenodd" d="M573.85 165.21v-19.008l-16.52-9.554-16.42 9.554v19.008l16.42 9.551z"/><path fill-rule="evenodd" stroke="#b14d9d" stroke-linecap="butt" stroke-linejoin="round" stroke-width="3.782" d="M573.85 165.21v-19.008l-16.52-9.554-16.42 9.554v19.008l16.42 9.551z"/><path fill="#000" fill-rule="evenodd" d="M608.28 150.09c.895 0 1.693.496 2.09 1.294.199.297.298.696.298 1.095-.1 1.294-1.094 2.288-2.388 2.288h-2.785v-4.677zm15.625 3.284c.496 0 1.095.1 1.49.398a3.38 3.38 0 0 1 1.195 1.195c.499 1.094.499 2.485 0 3.58a3.38 3.38 0 0 1-1.194 1.194c-.396.3-.995.399-1.491.499-.598 0-1.095-.2-1.593-.5-.499-.296-.795-.695-1.095-1.193a3.794 3.794 0 0 1 0-3.58c.3-.499.696-.898 1.095-1.195.499-.299.995-.398 1.593-.398zm-19.803-4.578v12.438h1.394v-5.076h2.784c.599 0 1.294-.197 1.893-.496a3.477 3.477 0 0 0 1.391-5.076c-.297-.596-.795-.995-1.391-1.294-.598-.396-1.294-.496-1.893-.496zm13.732 3.284c-.499 0-1.095.2-1.593.498-.397.297-.795.696-.995 1.194v-1.393h-1.493l.1 8.855h1.393v-4.976c0-.496.1-.895.4-1.291a2.08 2.08 0 0 1 .794-.998 1.922 1.922 0 0 1 1.195-.396c.399 0 .895.1 1.294.297v-1.59c-.4-.2-.696-.2-1.095-.2zm11.244.299l3.084 4.378-3.084 4.477h1.693l2.289-3.383 2.288 3.383h1.69l-3.083-4.477 3.084-4.378h-1.79l-2.19 3.283-2.288-3.283zm-5.289-.323c-.78 0-1.564.202-2.273.622-.698.396-1.194.995-1.593 1.79-.795 1.493-.795 3.184 0 4.777.4.695.895 1.294 1.593 1.69a4.714 4.714 0 0 0 2.336.625 4.676 4.676 0 0 0 4.032-2.315c.795-1.593.795-3.284 0-4.777a4.717 4.717 0 0 0-4.095-2.412zm13.648.323l3.683 8.36-1.992 4.278h1.493l5.473-12.638h-1.591l-2.688 6.567-2.784-6.567z"/><path fill="#000" fill-opacity="0" fill-rule="evenodd" d="M207.24 84.706v37.816"/><path fill-rule="evenodd" stroke="#00a14b" stroke-linecap="butt" stroke-miterlimit="37.914" stroke-width="2.488" d="M207.24 84.706v37.816"/><path fill="#00a14b" fill-rule="evenodd" d="M201.08 120.63l6.168 10.748 6.27-10.748z"/><path fill="#000" fill-opacity="0" fill-rule="evenodd" d="M278.6 155.76h236.24"/><path fill-rule="evenodd" stroke="#00a14b" stroke-linecap="butt" stroke-miterlimit="37.914" stroke-width="2.488" d="M278.6 155.76h236.24"/><path fill="#00a14b" fill-rule="evenodd" d="M513.04 149.49v12.438l10.745-6.168-10.745-6.27z"/><path fill="#000" fill-opacity="0" fill-rule="evenodd" d="M596.53 131.38V93.666"/><path fill-rule="evenodd" stroke="#00a14b" stroke-linecap="butt" stroke-miterlimit="37.914" stroke-width="2.488" d="M596.53 131.38V93.666"/><path fill="#00a14b" fill-rule="evenodd" d="M596.53 84.706l-6.168 10.748h12.339l-6.17-10.748z"/><path fill="#000" fill-opacity="0" fill-rule="evenodd" d="M206.95 188.9c.2.795.496 1.593.795 2.388"/><path fill-rule="evenodd" stroke="#476baf" stroke-linecap="butt" stroke-miterlimit="37.914" stroke-width="2.488" d="M206.95 188.9c.2.795.496 1.593.795 2.388"/><path fill="#000" fill-opacity="0" fill-rule="evenodd" d="M209.63 195.86c14.131 28.063 64.782 44.283 104.29 44.283 43.386 0 78.514 21.593 88.168 46.472"/><path fill-rule="evenodd" stroke="#476baf" stroke-dasharray="9.953 7.465" stroke-linecap="butt" stroke-miterlimit="37.914" stroke-width="2.488" d="M209.63 195.86c14.131 28.063 64.782 44.283 104.29 44.283 43.386 0 78.514 21.593 88.168 46.472"/><path fill="#000" fill-opacity="0" fill-rule="evenodd" d="M402.88 288.81c.3.795.499 1.59.696 2.388"/><path fill-rule="evenodd" stroke="#476baf" stroke-linecap="butt" stroke-miterlimit="37.914" stroke-width="2.488" d="M402.88 288.81c.3.795.499 1.59.696 2.388"/><path fill="#476baf" fill-rule="evenodd" d="M205.85 180.04l-4.577 11.543 12.339-1.892-7.762-9.651zm203.4 108.47l-12.239 1.89 7.761 9.653 4.478-11.543z"/><path fill="#000" fill-opacity="0" fill-rule="evenodd" d="M405.97 291.19c.2-.798.499-1.593.698-2.388"/><path fill-rule="evenodd" stroke="#476baf" stroke-linecap="butt" stroke-miterlimit="37.914" stroke-width="2.488" d="M405.97 291.19c.2-.798.499-1.593.698-2.388"/><path fill="#000" fill-opacity="0" fill-rule="evenodd" d="M408.66 284.33c14.131-28.163 64.782-44.283 104.29-44.283 43.386 0 78.514-21.693 88.165-46.472"/><path fill-rule="evenodd" stroke="#476baf" stroke-dasharray="9.953 7.465" stroke-linecap="butt" stroke-miterlimit="37.914" stroke-width="2.488" d="M408.66 284.33c14.131-28.163 64.782-44.283 104.29-44.283 43.386 0 78.514-21.693 88.165-46.472"/><path fill="#000" fill-opacity="0" fill-rule="evenodd" d="M601.91 191.28c.197-.795.496-1.593.696-2.388"/><path fill-rule="evenodd" stroke="#476baf" stroke-linecap="butt" stroke-miterlimit="37.914" stroke-width="2.488" d="M601.91 191.28c.197-.795.496-1.593.696-2.388"/><path fill="#476baf" fill-rule="evenodd" d="M603.7 180.04l-7.661 9.65 12.239 1.893-4.578-11.543zM400.3 288.51l4.478 11.543 7.764-9.653-12.241-1.89z"/><path fill="#000" fill-opacity="0" fill-rule="evenodd" d="M575.09 38.491h99.622v45.26H575.09z"/><path fill="#000" d="M584.93 61.114l1.656-.14q.125 1 .547 1.64.438.64 1.344 1.047.922.39 2.062.39 1 0 1.782-.296t1.156-.813q.375-.531.375-1.156t-.375-1.094q-.36-.469-1.188-.797-.547-.203-2.39-.64-1.828-.453-2.563-.844-.969-.5-1.437-1.235-.47-.75-.47-1.671 0-1 .58-1.875.577-.891 1.671-1.344 1.11-.453 2.453-.453 1.484 0 2.61.484 1.14.469 1.75 1.406.609.922.656 2.094l-1.688.125q-.14-1.266-.937-1.906-.782-.656-2.313-.656-1.61 0-2.344.593t-.734 1.422q0 .719.531 1.172.5.469 2.656.969 2.157.484 2.954.844 1.171.53 1.718 1.359.563.828.563 1.906 0 1.063-.61 2.016-.609.937-1.75 1.469-1.14.515-2.578.515-1.812 0-3.047-.531-1.218-.531-1.921-1.594-.688-1.062-.72-2.406zm19.459 1.188l1.687.203q-.406 1.484-1.484 2.312-1.078.813-2.766.813-2.125 0-3.375-1.297-1.234-1.313-1.234-3.672 0-2.453 1.25-3.797 1.266-1.344 3.266-1.344 1.937 0 3.156 1.328 1.234 1.313 1.234 3.703v.438h-7.219q.094 1.594.907 2.453.812.844 2.015.844.907 0 1.547-.47.64-.483 1.016-1.515zm-5.39-2.657h5.406q-.11-1.219-.625-1.828-.782-.953-2.032-.953-1.125 0-1.906.766-.765.75-.844 2.015zm9.125 5.766v-9.672h1.469v1.469q.562-1.031 1.031-1.36.484-.328 1.063-.328.828 0 1.687.532l-.562 1.515q-.61-.36-1.204-.36-.546 0-.968.329t-.61.89q-.28.875-.28 1.922v5.063h-1.626zm8.916 0l-3.688-9.672h1.735l2.078 5.797q.328.937.625 1.937.203-.765.61-1.828l2.14-5.906h1.687l-3.656 9.672h-1.531zm6.64-11.47v-1.89h1.641v1.89h-1.64zm0 11.47v-9.672h1.641v9.672h-1.64zm10.457-3.547l1.61.219q-.266 1.656-1.36 2.61-1.078.937-2.671.937-1.985 0-3.188-1.297t-1.203-3.719q0-1.578.516-2.75t1.578-1.75q1.062-.594 2.312-.594 1.578 0 2.578.797t1.282 2.266l-1.594.234q-.235-.969-.813-1.453-.578-.5-1.39-.5-1.235 0-2.016.89t-.781 2.813q0 1.953.75 2.844.75.875 1.953.875.969 0 1.61-.594.656-.594.827-1.828zm9.641.438l1.688.203q-.407 1.484-1.485 2.312-1.078.813-2.765.813-2.125 0-3.375-1.297-1.235-1.313-1.235-3.672 0-2.453 1.25-3.797 1.266-1.344 3.266-1.344 1.937 0 3.156 1.328 1.234 1.313 1.234 3.703v.438h-7.218q.093 1.594.906 2.453.812.844 2.015.844.907 0 1.547-.47.641-.483 1.016-1.515zm-5.39-2.657h5.406q-.11-1.219-.625-1.828-.782-.953-2.032-.953-1.125 0-1.906.766-.765.75-.843 2.015zm14.45 5.766V52.05h5.015q1.531 0 2.453.407t1.438 1.25q.53.844.53 1.766 0 .86-.468 1.625-.453.75-1.39 1.203 1.203.36 1.859 1.219t.656 2.015q0 .938-.406 1.75-.39.797-.984 1.235-.579.437-1.453.672-.875.218-2.157.218h-5.093zm1.78-7.75h2.876q1.187 0 1.687-.14.672-.204 1.016-.673t.344-1.172q0-.656-.329-1.156-.312-.515-.906-.703t-2.031-.187h-2.656v4.03zm0 6.172h3.313q.86 0 1.203-.063.61-.11 1.016-.36.422-.265.687-.75t.266-1.124q0-.75-.39-1.297-.376-.547-1.063-.766-.672-.234-1.953-.234h-3.078v4.594z"/></g></svg>