<svg width="420" height="90" xmlns="http://www.w3.org/2000/svg">
 <!-- Generator: Sketch 54 (76480) - https://sketchapp.com -->

 <title>KubeSpherelogo®.svg</title>
 <desc>Created with Sketch.</desc>
 <g>
  <title>background</title>
  <rect fill="none" id="canvas_background" height="92" width="422" y="-1" x="-1"/>
 </g>
 <g>
  <title>Layer 1</title>
  <g fill-rule="evenodd" fill="none" id="KubeSphere商标®.ai">
   <g fill="#443D4E" id="编组">
    <path id="Fill-5" d="m308.533523,23.999999l-3.66528,0c-0.80117,0 -1.46834,0.68439 -1.46834,1.50433l0,17.50498l-11.79886,0l0,-17.50498c0,-0.81994 -0.60018,-1.50433 -1.46649,-1.50433l-3.66714,0c-0.80024,0 -1.46741,0.68439 -1.46741,1.50433l0,41.99039c0,0.82184 0.66717,1.50528 1.46741,1.50528l3.66714,0c0.86631,0 1.46649,-0.68344 1.46649,-1.50528l0,-17.71498l11.79886,0l0,17.71498c0,0.82184 0.66717,1.50528 1.46834,1.50528l3.66528,0c0.86723,0 1.46648,-0.68344 1.46648,-1.50528l0,-41.99039c0,-0.81994 -0.59925,-1.50433 -1.46648,-1.50433"/>
    <path id="Fill-7" d="m219.000003,63.733899c0,-0.82089 -0.67739,-1.50528 -1.48893,-1.50528l-16.80995,0.00095l0,-12.34483l16.80995,0c0.81154,0 1.48798,-0.61472 1.48798,-1.50433l0,-3.76082c0,-0.82184 -0.67738,-1.50528 -1.48892,-1.50528l-16.80901,0l0,-12.34388l16.80901,0c0.81154,0 1.48892,-0.61567 1.48892,-1.50433l0,-3.76082c0,-0.82184 -0.67738,-1.50528 -1.48892,-1.50528l-18.2951,0c-0.00095,0 -0.00189,0 -0.00284,0l-3.72232,0c-0.81343,0 -1.48987,0.68344 -1.48987,1.50433l0,41.99039c0,0.82089 0.67644,1.50528 1.48987,1.50528l1.61269,0l0.00284,0l20.40567,0c0.81154,0 1.48893,-0.61567 1.48893,-1.50528l0,-3.76082z"/>
    <path id="Fill-9" d="m341.000003,63.733899c0,-0.82089 -0.67739,-1.50528 -1.48893,-1.50528l-16.80995,0.00095l0,-12.34483l16.80901,0c0.81154,0 1.48893,-0.61472 1.48893,-1.50433l0,-3.76082c0,-0.82184 -0.67739,-1.50528 -1.48893,-1.50528l-16.80901,0l0,-12.34388l16.80901,0c0.81154,0 1.48893,-0.61567 1.48893,-1.50433l0,-3.76082c0,-0.82184 -0.67739,-1.50528 -1.48893,-1.50528l-18.2951,0c-0.00095,0 -0.00189,0 -0.00284,0l-3.72232,0c-0.81343,0 -1.48987,0.68344 -1.48987,1.50433l0,41.99039c0,0.82089 0.67644,1.50528 1.48987,1.50528l1.61269,0l0.00284,0l20.40567,0c0.81154,0 1.48893,-0.61567 1.48893,-1.50528l0,-3.76082z"/>
    <path id="Fill-11" d="m405.000003,63.733899c0,-0.82089 -0.67739,-1.50528 -1.48893,-1.50528l-16.80995,0.00095l0,-12.34483l16.80995,0c0.81154,0 1.48799,-0.61472 1.48799,-1.50433l0,-3.76082c0,-0.82184 -0.67739,-1.50528 -1.48893,-1.50528l-16.80901,0l0,-12.34388l16.80901,0c0.81154,0 1.48893,-0.61567 1.48893,-1.50433l0,-3.76082c0,-0.82184 -0.67739,-1.50528 -1.48893,-1.50528l-18.29511,0c-0.00094,0 -0.00188,0 -0.00283,0l-3.72232,0c-0.81248,0 -1.48987,0.68344 -1.48987,1.50433l0,41.99039c0,0.82089 0.67739,1.50528 1.48987,1.50528l1.61269,0l0.00284,0l20.40567,0c0.81154,0 1.48893,-0.61567 1.48893,-1.50528l0,-3.76082z"/>
    <path id="Fill-13" d="m230.466773,35.771959l0,2.58598c0,1.97385 1.86688,3.1299 4.00018,4.01496l8.86557,3.81027c3.33364,1.49816 5.66748,4.15046 5.66748,8.23364l0,4.83083c0,4.01496 -8.26775,10.75236 -12.66805,10.75236c-2.99849,0 -7.53154,-2.17757 -11.06383,-4.15142c-0.80117,-0.40745 -1.33402,-1.3617 -0.86707,-2.44952l1.1335,-2.31403c0.46601,-0.95233 1.46583,-1.15702 2.3329,-0.68038c2.86575,1.49721 6.66541,3.33459 8.4645,3.33459c2.00057,0 6.20128,-3.47008 6.20128,-5.44393l0,-2.99344c0,-2.31403 -1.73319,-3.60654 -4.13293,-4.55887l-8.2668,-3.53927c-3.19997,-1.36075 -6.1335,-4.15046 -6.1335,-7.96073l0,-4.42337c0,-4.42337 8.73282,-10.81963 12.93353,-10.81963c2.79985,0 7.3329,2.10934 10.33327,3.743c0.93297,0.47665 1.1994,1.56543 0.79835,2.3813l-1.06572,2.31403c-0.33327,0.81587 -1.39992,1.08879 -2.33289,0.67941c-2.26699,-1.08782 -6.06665,-2.85698 -7.73301,-2.85698c-1.93372,0 -6.46676,3.26636 -6.46676,5.5112"/>
    <path id="Fill-15" d="m360.452143,29.881769l-6.65758,0l0,15.04613l6.72559,0c2.81439,0 6.10869,-4.99215 6.10869,-7.66004c0,-2.59821 -3.43224,-7.38609 -6.1767,-7.38609m-0.27492,20.92694l-6.38266,0l0,16.68792c0,0.88866 -0.61786,1.50337 -1.57962,1.50337l-3.63628,0c-0.82381,0 -1.57866,-0.61471 -1.57866,-1.50337l0,-40.35052c0,-1.5721 1.85358,-3.14611 3.36328,-3.14611l10.98165,0c5.00899,0 11.65507,7.78508 11.65507,12.91373c0,3.42006 -3.00788,8.56016 -6.23322,10.54461c2.60747,1.36688 6.17575,4.99215 6.17575,8.34348l0,11.69481c0,0.81993 -0.68492,1.50337 -1.50969,1.50337l-3.77423,0c-0.82382,0 -1.50969,-0.68344 -1.50969,-1.50337l0,-10.66965c0,-2.39395 -3.36232,-6.01827 -5.9717,-6.01827"/>
    <path id="Fill-17" d="m268.087613,29.881769l-6.47624,0l0,15.04613l6.5424,0c2.73905,0 5.56105,-4.99215 5.56105,-7.66004c0,-2.59821 -2.95713,-7.38609 -5.62721,-7.38609m-0.26655,20.92694l-6.20969,0l0,16.68792c0,0.88866 -0.60205,1.50337 -1.53681,1.50337l-3.53868,0c-0.80149,0 -1.53588,-0.61471 -1.53588,-1.50337l0,-40.35052c0,-1.5721 1.80335,-3.14611 3.27213,-3.14611l10.68407,0c4.87325,0 11.0438,8.02753 11.0438,13.15618c0,3.42005 -2.47344,8.0199 -5.33085,10.68015c-1.40447,1.3077 -3.6356,2.97238 -6.84809,2.97238"/>
    <path id="Fill-19" d="m143.483873,69.999999c-4.34779,0 -12.48387,-5.7634 -12.48387,-10.73684l0,-33.37905c0,-0.82858 0.72171,-1.51424 1.51716,-1.51424l3.48505,0c0.85168,0 1.50979,0.68566 1.50979,1.51424l0,32.48479c0,2.41816 3.92932,5.34911 5.97187,5.34911c2.04255,0 5.9986,-3.30179 5.9986,-5.71994l0,-32.48383c0,-0.82955 0.59175,-1.51424 1.3872,-1.51424l3.61317,0c0.79545,0 1.51716,0.68469 1.51716,1.51424l0,33.37905c0,4.82472 -8.17295,11.10671 -12.51613,11.10671"/>
    <path id="Fill-21" d="m175.157323,63.119059l-6.39465,0l0,-15.04645l6.46234,0c2.80117,0 6.08097,4.72976 6.08097,7.39675c0,2.59922 -3.41614,7.6497 -6.14866,7.6497l0,0zm-6.39465,-33.23812l6.39465,0c2.73252,0 6.14866,3.91744 6.14866,6.51666c0,2.66699 -3.2798,7.02257 -6.08097,7.02257l-6.46234,0l0,-13.53923zm12.98856,15.8664c3.11294,-2.05226 6.24877,-6.03939 6.24877,-9.34974c0,-5.12876 -6.96766,-12.3976 -11.95409,-12.3976l-10.69938,0c-1.50165,0 -3.34653,1.57309 -3.34653,3.14522l0,16.48781l0,22.2208l0,1.64277c0,0.88963 0.7513,1.5034 1.57125,1.5034l1.77528,0l1.84489,0l9.08522,0c4.98643,0 11.72336,-8.40093 11.72336,-13.53064c0,-3.30845 -3.13583,-7.64684 -6.24877,-9.72202l0,0z"/>
    <path id="Fill-23" d="m109.909033,46.749129l14.71684,-17.24345c0.53022,-0.62139 0.51229,-1.54059 -0.15284,-2.1219l-2.8143,-2.45789c-0.61419,-0.5374 -1.56801,-0.46676 -2.09823,0.15463l-12.86863,15.07859l0,-14.65383c0,-0.82089 -0.60852,-1.50528 -1.48687,-1.50528l-3.71813,0c-0.81136,0 -1.48687,0.68439 -1.48687,1.50528l0,41.99135c0,0.81993 0.67551,1.50337 1.48687,1.50337l3.71813,0c0.87835,0 1.48687,-0.68344 1.48687,-1.50337l0,-14.15748l12.86863,15.07955c0.53022,0.62044 1.48404,0.69107 2.09823,0.15463l2.8143,-2.4579c0.66513,-0.58225 0.68306,-1.50146 0.15284,-2.1219l-14.71684,-17.2444z"/>
   </g>
   <polygon points="65.99960327148438,72.64651489257812 46.99959945678711,61.64699935913086 46.99959945678711,83.64700317382812 " fill="#00A971" id="Fill-1"/>
   <polygon points="65.99960327148438,20.64699935913086 46.99959945678711,9.647000312805176 46.99959945678711,31.64699935913086 " fill="#00A971" id="Fill-2"/>
   <polygon points="20.677799224853516,46.64746856689453 37.99959945678711,36.55561828613281 37.99959945678711,4.647000074386597 1.9995999932289124,25.61995506286621 1.9995999932289124,67.67498779296875 37.99959945678711,88.64700317382812 37.99959945678711,56.739322662353516 " fill="#00A971" id="Fill-3"/>
   <polygon points="37.99959945678711,46.64699935913086 74.99960327148438,67.64700317382812 74.99960327148438,25.64699935913086 " fill="#00A971" id="Fill-4"/>
  </g>
 </g>
</svg>