<svg xmlns="http://www.w3.org/2000/svg" viewBox="0 0 400 200"><path d="M336.8 39.6c-12.4-12.2-27.7-18.5-46-18.7h-.8c-11.5 0-22.2 2.9-32.1 8.6-9.9 5.7-17.7 13.6-23.5 23.7-5.7 10.1-8.6 21.1-8.6 32.9 0 17.7 6.3 32.9 18.9 45.4 12.5 12.5 27.9 18.7 46 18.7h.2c18 0 33.3-6.2 45.8-18.8 12.5-12.5 18.8-27.8 18.8-45.9.2-18.1-6.2-33.4-18.7-45.9zm-19.7 91.8c-8.1 4.6-16.8 6.9-26.3 6.9h-.3c-14.3 0-26.5-5-36.7-15.1-10.1-10-15.2-22.4-15.2-37 0-9.9 2.3-18.8 6.8-26.9 4.6-8 11-14.4 19.1-19.2 8.1-4.7 16.7-7.1 25.9-7.1h.3c9.2 0 17.9 2.4 26.1 7.1 8.2 4.7 14.7 11 19.2 19 4.6 7.9 6.8 16.8 6.8 26.5 0 9.8-2.3 18.7-6.8 26.8-4.5 8-10.8 14.4-18.9 19z"/><path d="M162.2 28.5h-13.8l-33.7 85.7-33.8-91.7-35.8 91.6-30.5-85.6H.7l43.9 120.2 36-91.6 33.7 91.7 43.2-108.6zM216 91.8c-5.6-4.6-11.6-8.3-18-11.1l-3.2-1.5-3.1-1.4c-5.9-3-10.7-5.8-14.4-8.4-3.8-2.7-5.7-6.5-5.7-11.5s1.9-9.1 5.7-12.3c3.8-3.1 8.5-4.7 14-4.7 3.6 0 6.6.7 9.1 2.1 2.5 1.4 5 3.6 7.2 6.7l1.2 1.8c.3.2.8.8 1.4 1.7l10.1-6.5c-3.3-5.8-7.4-10.3-12.5-13.3-5-3-10.3-4.5-16-4.5-9.7 0-17.7 2.8-23.8 8.2-6.2 5.5-9.3 12.5-9.3 21.1 0 8.1 2.8 14.3 8.4 18.8 5.6 4.4 11.6 8 18 10.9l2.1 1 2 .8c6.1 3.1 11.4 6.1 15.8 9.1s6.5 7.4 6.5 13.2c0 6.6-2.2 12.1-6.6 16.5-4.4 4.4-10 6.6-16.7 6.6-5.9 0-10.9-1.8-14.8-5.5-3.9-3.6-6.6-8.9-8.2-15.8l-7.7 2.3-4.7 1.4c1.1 4.6 2.6 8.7 4.7 12.3 2.1 3.7 4.7 6.8 7.8 9.4 6.1 5.1 13.8 7.6 23.2 7.6 10 0 18.4-3.4 25.4-10.2 7-6.8 10.5-15.1 10.5-25 0-8.5-2.8-15.2-8.4-19.8zm101.1 39.6c-8.1 4.6-16.8 6.9-26.3 6.9h-.3c-14.3 0-26.5-5-36.7-15.1-10.1-10-15.2-22.4-15.2-37 0-9.9 2.3-18.8 6.8-26.9 4.6-8 11-14.4 19.1-19.2 8.1-4.7 16.7-7.1 25.9-7.1h.3c9.2 0 17.9 2.4 26.1 7.1 8.2 4.7 14.7 11 19.2 19 4.6 7.9 6.8 16.8 6.8 26.5 0 9.8-2.3 18.7-6.8 26.8-4.5 8-10.8 14.4-18.9 19z" fill="#ff5000"/><path d="M290.6 60.5l22.8 55.5 14.9-26.9 14.5-.1c.1-1.2.1-2.3.1-3.5 0-1.4 0-2.8-.1-4.1l-18.9.1-9.4 16.9L291 41.1l-21.1 47-31-.1c.1 2.6.3 5.1.8 7.6l35.2.1 15.7-35.2z" fill="#fff"/><path d="M399.3 168.4H356l23.6-25.4c7.4-8 12.4-14.4 15-19.1 2.6-4.7 3.9-9.7 3.9-15.1 0-7.7-2.7-14.3-8.1-19.9-5.4-5.6-12.4-8.5-21.1-8.5-3.3 0-6.3.5-9.2 1.3 0 .9.1 1.7.1 2.6 0 2.4-.1 4.7-.3 7 2.7-1.2 5.7-1.8 8.9-1.8 5.8 0 10.6 1.9 14.6 5.8s5.9 8.4 5.9 13.8c0 4.2-1.1 8.2-3.3 12-2.2 3.8-7 9.6-14.3 17.5l-36.2 39.1h63.9c-.3-1.4-.5-2.9-.5-4.5-.1-1.7.1-3.3.4-4.8z"/></svg>