<svg xmlns="http://www.w3.org/2000/svg" viewBox="0 0 519 238"><defs><style>.a3e019a7-d7b3-4bed-978d-5667649e039c{fill:#e5e5e4;}.aa6d0143-5d65-44d7-befe-c1fe90f38d31{fill:#fff;}.a731aa34-730c-40a0-b6f7-7e9329346a84{font-size:14px;}.a731aa34-730c-40a0-b6f7-7e9329346a84,.b2482be2-9620-4c05-9eaf-15394fcda8b2{font-family:GoogleSans-Regular, Google Sans;}.f75d2ebd-e94e-40d6-91a6-d6104556d903{letter-spacing:-0.01em;}.ad1ace8d-ff09-4d7c-8fe3-e277ee596760{letter-spacing:0em;}.e9a84afd-6e22-4c9f-9d90-20b038619a5f{letter-spacing:0.01em;}.b29d37f0-f94c-4f6e-942e-bd3ea18ac9a3{letter-spacing:0em;}.b464db90-99e8-4445-9716-384a39c8230d{letter-spacing:-0.01em;}.a5ecd3e8-4031-4519-bfe9-12096f60e545{fill:#486baf;}.a499933c-e56b-4f00-9b70-873dbc19a28d,.a5d028c9-e153-4816-9692-02ed7ac50ef6,.a7ee17b0-c450-4fb4-a324-877bd1a85333,.ac569e98-25a4-4f6b-b70d-d771e368e8f2,.b14a748f-fa8e-46ef-a195-077f5f7d70c8,.b6af3a0f-a466-4bc3-9923-ba5de94ea7e4,.b73158db-7ef1-403c-b013-d6a02a95a3ff,.b8ba668a-be2c-4316-a364-0e5b44fc5d88,.b8d78f25-2641-48ca-8a3a-e66f26982ae4,.bd79ce48-93df-489d-a7a3-cf851454e1d0,.e0e10271-57a6-4fff-8dc2-68804d608b9b,.eae8024f-d364-4f57-83fb-27f23694280a,.efa77a58-ce08-4428-bec8-cd515a339838,.f16c69e6-ab73-43f9-89ee-cc7f86945d92{fill:none;}.b8d78f25-2641-48ca-8a3a-e66f26982ae4{stroke:#466bb0;stroke-dasharray:9.93 9.93;}.a499933c-e56b-4f00-9b70-873dbc19a28d,.a5d028c9-e153-4816-9692-02ed7ac50ef6,.a7ee17b0-c450-4fb4-a324-877bd1a85333,.b14a748f-fa8e-46ef-a195-077f5f7d70c8,.b6af3a0f-a466-4bc3-9923-ba5de94ea7e4,.b73158db-7ef1-403c-b013-d6a02a95a3ff,.b8ba668a-be2c-4316-a364-0e5b44fc5d88,.b8d78f25-2641-48ca-8a3a-e66f26982ae4,.bd79ce48-93df-489d-a7a3-cf851454e1d0,.e0e10271-57a6-4fff-8dc2-68804d608b9b,.eae8024f-d364-4f57-83fb-27f23694280a,.efa77a58-ce08-4428-bec8-cd515a339838,.f16c69e6-ab73-43f9-89ee-cc7f86945d92{stroke-linejoin:round;}.b2482be2-9620-4c05-9eaf-15394fcda8b2{font-size:16px;}.ac4d8ae5-3fa1-45b9-b7b3-01016d387353{letter-spacing:0em;}.a5d138a1-1dd3-4b52-927e-22ac441c06bb{letter-spacing:0em;}.a6f262c5-21cb-481b-b824-129b9e4fb792{letter-spacing:-0.01em;}.a914b9a4-61a9-4d62-9e61-b157e1bd16fb{letter-spacing:0.01em;}.a499933c-e56b-4f00-9b70-873dbc19a28d,.a5d028c9-e153-4816-9692-02ed7ac50ef6,.b14a748f-fa8e-46ef-a195-077f5f7d70c8,.b6af3a0f-a466-4bc3-9923-ba5de94ea7e4,.f16c69e6-ab73-43f9-89ee-cc7f86945d92{stroke:#486baf;}.a499933c-e56b-4f00-9b70-873dbc19a28d,.a5d028c9-e153-4816-9692-02ed7ac50ef6,.ac569e98-25a4-4f6b-b70d-d771e368e8f2,.b14a748f-fa8e-46ef-a195-077f5f7d70c8,.b6af3a0f-a466-4bc3-9923-ba5de94ea7e4,.b8ba668a-be2c-4316-a364-0e5b44fc5d88,.bd79ce48-93df-489d-a7a3-cf851454e1d0,.e0e10271-57a6-4fff-8dc2-68804d608b9b,.eae8024f-d364-4f57-83fb-27f23694280a,.efa77a58-ce08-4428-bec8-cd515a339838,.f16c69e6-ab73-43f9-89ee-cc7f86945d92{stroke-linecap:round;}.a499933c-e56b-4f00-9b70-873dbc19a28d,.a5d028c9-e153-4816-9692-02ed7ac50ef6,.b14a748f-fa8e-46ef-a195-077f5f7d70c8,.b6af3a0f-a466-4bc3-9923-ba5de94ea7e4,.b8ba668a-be2c-4316-a364-0e5b44fc5d88,.bd79ce48-93df-489d-a7a3-cf851454e1d0,.e0e10271-57a6-4fff-8dc2-68804d608b9b,.eae8024f-d364-4f57-83fb-27f23694280a,.efa77a58-ce08-4428-bec8-cd515a339838,.f16c69e6-ab73-43f9-89ee-cc7f86945d92{stroke-width:4px;}.b14a748f-fa8e-46ef-a195-077f5f7d70c8,.eae8024f-d364-4f57-83fb-27f23694280a{stroke-dasharray:6 12;}.b84687ac-a8e1-4a1a-b800-0d7cee2a3627{letter-spacing:-0.02em;}.f519b18c-4730-4868-a9ab-77d304f5dc49{letter-spacing:-0.01em;}.ae1fafc8-31cf-4388-8860-95220efeb198{letter-spacing:-0.03em;}.bb462ac3-7559-4339-afa0-ace442967c2c{letter-spacing:-0.03em;}.b44e9bfd-0cad-4107-86e7-86051f7b3125{letter-spacing:-0.02em;}.afbcff6a-f5bf-47e5-8883-362779b50d08{letter-spacing:-0.02em;}.aaf81f9a-71b4-4c58-806e-452ab8df23dd{letter-spacing:-0.03em;}.a2dfbdad-5b24-4079-97cf-ea41d2edfe67{letter-spacing:-0.01em;}.b8ab3aee-f978-4450-a1fc-18ec13839af5{letter-spacing:-0.02em;}.b8ba668a-be2c-4316-a364-0e5b44fc5d88,.bd79ce48-93df-489d-a7a3-cf851454e1d0,.e0e10271-57a6-4fff-8dc2-68804d608b9b,.eae8024f-d364-4f57-83fb-27f23694280a,.efa77a58-ce08-4428-bec8-cd515a339838{stroke:#29abe2;}.efa77a58-ce08-4428-bec8-cd515a339838{stroke-dasharray:5.72 11.44;}.a83ed2b5-752a-4252-aaa8-3da0801f5b61{fill:#e6e6e6;}.a7ee17b0-c450-4fb4-a324-877bd1a85333{stroke:#e905ee;stroke-width:3px;}.bcea2c06-754c-4bfc-a226-6b8626dc5174{fill:#757575;}.ac569e98-25a4-4f6b-b70d-d771e368e8f2,.b73158db-7ef1-403c-b013-d6a02a95a3ff{stroke:#fff;stroke-width:2px;}.ac569e98-25a4-4f6b-b70d-d771e368e8f2{stroke-miterlimit:10;}.e0e10271-57a6-4fff-8dc2-68804d608b9b{stroke-dasharray:6 12;}.bd79ce48-93df-489d-a7a3-cf851454e1d0{stroke-dasharray:6 12;}.a5d028c9-e153-4816-9692-02ed7ac50ef6{stroke-dasharray:6 12;}.b6af3a0f-a466-4bc3-9923-ba5de94ea7e4{stroke-dasharray:4.92 9.85;}.a499933c-e56b-4f00-9b70-873dbc19a28d{stroke-dasharray:5.65 11.3;}</style></defs><title>routing-4</title><g id="a47f904b-9d8a-4e82-8727-9fe1ade21ca5" data-name="Fine-traffic-control"><rect class="a3e019a7-d7b3-4bed-978d-5667649e039c" x="35.11" y="50.09" width="123.25" height="75.44" rx="3"/><rect class="aa6d0143-5d65-44d7-befe-c1fe90f38d31" x="43.92" y="93.52" width="105.64" height="26.41" rx="3"/><text class="a731aa34-730c-40a0-b6f7-7e9329346a84" transform="translate(62.59 110.87)"><tspan class="f75d2ebd-e94e-40d6-91a6-d6104556d903">m</tspan><tspan class="ad1ace8d-ff09-4d7c-8fe3-e277ee596760" x="12.05" y="0">y-</tspan><tspan class="e9a84afd-6e22-4c9f-9d90-20b038619a5f" x="25.45" y="0">v</tspan><tspan class="b29d37f0-f94c-4f6e-942e-bd3ea18ac9a3" x="32.73" y="0">t</tspan><tspan class="ad1ace8d-ff09-4d7c-8fe3-e277ee596760" x="37.93" y="0">l-s</tspan><tspan class="b464db90-99e8-4445-9716-384a39c8230d" x="53.68" y="0">v</tspan><tspan x="60.66" y="0">c</tspan></text><rect id="add74eee-a841-42c9-83cd-a19333e364d5" data-name="background" class="a5ecd3e8-4031-4519-bfe9-12096f60e545" x="82.52" y="50.09" width="28.44" height="28.44"/><polygon id="b0dee65c-38f8-425b-b38a-dcd1e3980820" data-name="hull" class="aa6d0143-5d65-44d7-befe-c1fe90f38d31" points="88.14 73.98 105.34 73.98 94.59 77.21 88.14 73.98"/><polygon id="b6c3d4aa-9761-4b75-97cc-dcdc33892479" data-name="mainsail" class="aa6d0143-5d65-44d7-befe-c1fe90f38d31" points="88.14 72.91 94.59 71.83 94.59 60.01 88.14 72.91"/><polygon id="a2c44910-565a-4465-b218-419160a51979" data-name="headsail" class="aa6d0143-5d65-44d7-befe-c1fe90f38d31" points="95.66 71.83 105.34 72.91 95.66 51.41 95.66 71.83"/><rect class="b8d78f25-2641-48ca-8a3a-e66f26982ae4" x="0.5" y="21.64" width="518" height="215.86" rx="10"/><text class="b2482be2-9620-4c05-9eaf-15394fcda8b2" transform="translate(0.9 13.73)">I<tspan class="ac4d8ae5-3fa1-45b9-b7b3-01016d387353" x="3.9" y="0">s</tspan><tspan class="a5d138a1-1dd3-4b52-927e-22ac441c06bb" x="11.39" y="0">t</tspan><tspan class="a6f262c5-21cb-481b-b824-129b9e4fb792" x="17.33" y="0">i</tspan><tspan x="20.86" y="0">o M</tspan><tspan class="a914b9a4-61a9-4d62-9e61-b157e1bd16fb" x="47.97" y="0">e</tspan><tspan x="57.06" y="0">sh</tspan></text><line class="f16c69e6-ab73-43f9-89ee-cc7f86945d92" x1="33" y1="183" x2="36" y2="183"/><line class="b14a748f-fa8e-46ef-a195-077f5f7d70c8" x1="48" y1="183" x2="168" y2="183"/><line class="f16c69e6-ab73-43f9-89ee-cc7f86945d92" x1="174" y1="183" x2="177" y2="183"/><text class="b2482be2-9620-4c05-9eaf-15394fcda8b2" transform="translate(30.78 210)"><tspan class="b84687ac-a8e1-4a1a-b800-0d7cee2a3627">C</tspan><tspan class="f519b18c-4730-4868-a9ab-77d304f5dc49" x="11.54" y="0">on</tspan><tspan class="ac4d8ae5-3fa1-45b9-b7b3-01016d387353" x="29.73" y="0">fig</tspan><tspan x="48.62" y="0">u</tspan><tspan class="ae1fafc8-31cf-4388-8860-95220efeb198" x="57.6" y="0">r</tspan><tspan class="a5d138a1-1dd3-4b52-927e-22ac441c06bb" x="63.12" y="0">e</tspan><tspan x="72.21" y="0">d </tspan><tspan class="bb462ac3-7559-4339-afa0-ace442967c2c" x="85.55" y="0">r</tspan><tspan class="a6f262c5-21cb-481b-b824-129b9e4fb792" x="91.07" y="0">o</tspan><tspan class="a914b9a4-61a9-4d62-9e61-b157e1bd16fb" x="100.53" y="0">u</tspan><tspan class="b44e9bfd-0cad-4107-86e7-86051f7b3125" x="109.58" y="0">t</tspan><tspan x="115.09" y="0">e</tspan><tspan class="afbcff6a-f5bf-47e5-8883-362779b50d08" x="124.09" y="0"> </tspan><tspan class="aaf81f9a-71b4-4c58-806e-452ab8df23dd" x="127.49" y="0">f</tspan><tspan class="a2dfbdad-5b24-4079-97cf-ea41d2edfe67" x="133.06" y="0">o</tspan><tspan x="142.43" y="0">r</tspan><tspan x="21.7" y="19.2">all </tspan><tspan class="b8ab3aee-f978-4450-a1fc-18ec13839af5" x="40.66" y="19.2">o</tspan><tspan class="a5d138a1-1dd3-4b52-927e-22ac441c06bb" x="49.96" y="19.2">t</tspan><tspan x="55.9" y="19.2">her t</tspan><tspan class="b84687ac-a8e1-4a1a-b800-0d7cee2a3627" x="89.5" y="19.2">r</tspan><tspan class="f519b18c-4730-4868-a9ab-77d304f5dc49" x="95.18" y="19.2">a</tspan><tspan class="ac4d8ae5-3fa1-45b9-b7b3-01016d387353" x="103.51" y="19.2">ffi</tspan><tspan x="117.99" y="19.2">c</tspan></text><line class="b8ba668a-be2c-4316-a364-0e5b44fc5d88" x1="285" y1="183" x2="288" y2="183"/><line class="efa77a58-ce08-4428-bec8-cd515a339838" x1="299.44" y1="183" x2="465.28" y2="183"/><line class="b8ba668a-be2c-4316-a364-0e5b44fc5d88" x1="471" y1="183" x2="474" y2="183"/><path d="M311.56,209.47a5.66,5.66,0,0,1-2.14-2.15,6.43,6.43,0,0,1,0-6.1,5.66,5.66,0,0,1,2.14-2.15,6,6,0,0,1,3-.78,5.49,5.49,0,0,1,2.35.49,5.41,5.41,0,0,1,1.85,1.38l-1,.94a4.35,4.35,0,0,0-1.43-1.15,4.21,4.21,0,0,0-1.79-.37,4.56,4.56,0,0,0-2.28.59,4.31,4.31,0,0,0-1.66,1.65,5.17,5.17,0,0,0,0,4.91,4.31,4.31,0,0,0,1.66,1.65,4.55,4.55,0,0,0,2.28.58,4.49,4.49,0,0,0,3.54-1.71l1,1a5.62,5.62,0,0,1-2,1.49,5.86,5.86,0,0,1-2.56.56A6,6,0,0,1,311.56,209.47Z"/><path d="M322.07,209.68a4,4,0,0,1-1.49-1.57,4.71,4.71,0,0,1,0-4.38,4,4,0,0,1,1.49-1.57,4.31,4.31,0,0,1,4.32,0,4,4,0,0,1,1.5,1.57,4.79,4.79,0,0,1,0,4.38,4,4,0,0,1-1.5,1.57,4.31,4.31,0,0,1-4.32,0Zm3.56-1a2.77,2.77,0,0,0,1-1.08,3.69,3.69,0,0,0,0-3.3,2.77,2.77,0,0,0-1-1.08,2.74,2.74,0,0,0-1.4-.37,2.8,2.8,0,0,0-1.41.37,2.77,2.77,0,0,0-1,1.08,3.6,3.6,0,0,0,0,3.3,2.77,2.77,0,0,0,1,1.08,2.8,2.8,0,0,0,1.41.37A2.74,2.74,0,0,0,325.63,208.65Z"/><path d="M329.85,201.84h1.29V203h.07a2.66,2.66,0,0,1,1.07-1,3.12,3.12,0,0,1,1.57-.43,2.89,2.89,0,0,1,2.25.86,3.38,3.38,0,0,1,.77,2.33V210h-1.36v-5a2.18,2.18,0,0,0-.54-1.65,2.09,2.09,0,0,0-1.49-.51,2,2,0,0,0-1.18.36,2.53,2.53,0,0,0-.8,1,2.77,2.77,0,0,0-.29,1.26V210h-1.36Z"/><path d="M339.61,203.07H338.1v-1.23h1.51V201a2.55,2.55,0,0,1,.35-1.34,2.43,2.43,0,0,1,.94-.89,2.79,2.79,0,0,1,1.32-.31,3.4,3.4,0,0,1,1.2.19v1.33c-.2-.08-.38-.14-.55-.19a2.18,2.18,0,0,0-.61-.07,1.27,1.27,0,0,0-.91.38,1.41,1.41,0,0,0-.38,1v.74h5V210h-1.34v-6.93H341V210h-1.36Zm5.05-2.94a1,1,0,0,1,0-1.38,1,1,0,0,1,.69-.29,1,1,0,1,1,0,2A1,1,0,0,1,344.66,200.13Z"/><path d="M349.3,213a3.25,3.25,0,0,1-1.26-1.62l1.23-.52a2.36,2.36,0,0,0,.91,1.14,2.57,2.57,0,0,0,1.49.44,2.62,2.62,0,0,0,2-.71,2.72,2.72,0,0,0,.7-2v-.91h-.07a3,3,0,0,1-1.12,1,3.37,3.37,0,0,1-1.66.4,3.61,3.61,0,0,1-1.93-.55,3.9,3.9,0,0,1-1.38-1.54,5.2,5.2,0,0,1,0-4.49,3.93,3.93,0,0,1,1.38-1.55,3.61,3.61,0,0,1,1.93-.55,3.37,3.37,0,0,1,1.66.4,2.87,2.87,0,0,1,1.12,1h.07v-1.17h1.29v7.84A4.08,4.08,0,0,1,349.3,213Zm3.71-4.39a2.7,2.7,0,0,0,1-1.07,4,4,0,0,0,0-3.33,2.64,2.64,0,0,0-1-1.07,2.56,2.56,0,0,0-1.34-.36,2.48,2.48,0,0,0-1.34.37,2.65,2.65,0,0,0-1,1.07,3.6,3.6,0,0,0-.36,1.66,3.67,3.67,0,0,0,.36,1.67,2.59,2.59,0,0,0,1,1.07,2.56,2.56,0,0,0,1.34.36A2.48,2.48,0,0,0,353,208.65Z"/><path d="M358.27,209.39a3.46,3.46,0,0,1-.77-2.41v-5.14h1.36v4.93a2.38,2.38,0,0,0,.52,1.71,1.92,1.92,0,0,0,1.43.54,2.13,2.13,0,0,0,1.22-.36,2.48,2.48,0,0,0,.83-1,2.74,2.74,0,0,0,.3-1.25v-4.61h1.36V210h-1.3v-1.18h-.06a2.71,2.71,0,0,1-1.07,1,3.11,3.11,0,0,1-1.57.42A2.87,2.87,0,0,1,358.27,209.39Z"/><path d="M366.54,201.84h1.29v1.31h.07a2.25,2.25,0,0,1,.92-1.12,2.6,2.6,0,0,1,1.44-.45,2.28,2.28,0,0,1,1,.18v1.46a2.53,2.53,0,0,0-1.15-.26,1.87,1.87,0,0,0-1.09.34,2.39,2.39,0,0,0-.79.9,2.59,2.59,0,0,0-.29,1.23V210h-1.36Z"/><path d="M373.59,209.7a3.94,3.94,0,0,1-1.45-1.55,4.71,4.71,0,0,1-.52-2.21,5,5,0,0,1,.49-2.18,4,4,0,0,1,1.39-1.58,3.63,3.63,0,0,1,2.08-.6,3.91,3.91,0,0,1,2.08.54A3.65,3.65,0,0,1,379,203.6a4.83,4.83,0,0,1,.47,2.16,1.73,1.73,0,0,1-.05.42H373a3.33,3.33,0,0,0,.45,1.56,2.6,2.6,0,0,0,1,1,2.68,2.68,0,0,0,1.29.32,2.65,2.65,0,0,0,2.41-1.47l1.15.56a4.1,4.1,0,0,1-1.43,1.57,4.3,4.3,0,0,1-4.28,0Zm4.45-4.64a2.62,2.62,0,0,0-.29-1,2.14,2.14,0,0,0-.81-.86,2.44,2.44,0,0,0-1.38-.35,2.28,2.28,0,0,0-1.62.61,2.92,2.92,0,0,0-.88,1.63Z"/><path d="M382.62,209.7a4,4,0,0,1-1.4-1.55,5.11,5.11,0,0,1,0-4.45,4,4,0,0,1,1.4-1.56,3.68,3.68,0,0,1,2-.56,3.33,3.33,0,0,1,1.68.43,3.07,3.07,0,0,1,1.12,1.05h.06l-.06-1.14v-3.38h1.36V210h-1.3v-1.2h-.06a3.11,3.11,0,0,1-1.12,1,3.33,3.33,0,0,1-1.68.43A3.68,3.68,0,0,1,382.62,209.7Zm3.48-1.06a2.83,2.83,0,0,0,1-1.09,3.78,3.78,0,0,0,0-3.26,2.83,2.83,0,0,0-1-1.09,2.54,2.54,0,0,0-2.67,0,2.81,2.81,0,0,0-1,1.1,3.73,3.73,0,0,0,0,3.24,2.81,2.81,0,0,0,1,1.1,2.54,2.54,0,0,0,2.67,0Z"/><path d="M394.49,201.84h1.29v1.31h.07a2.22,2.22,0,0,1,.93-1.12,2.55,2.55,0,0,1,1.44-.45,2.35,2.35,0,0,1,1,.18v1.46A2.6,2.6,0,0,0,398,203a1.84,1.84,0,0,0-1.08.34,2.41,2.41,0,0,0-.8.9,2.72,2.72,0,0,0-.29,1.23V210h-1.36Z"/><path d="M401.61,209.68a4,4,0,0,1-1.5-1.57,4.79,4.79,0,0,1,0-4.38,4,4,0,0,1,1.5-1.57,4.31,4.31,0,0,1,4.32,0,4,4,0,0,1,1.49,1.57,4.71,4.71,0,0,1,0,4.38,4,4,0,0,1-1.49,1.57,4.31,4.31,0,0,1-4.32,0Zm3.56-1a2.77,2.77,0,0,0,1-1.08,3.69,3.69,0,0,0,0-3.3,2.77,2.77,0,0,0-1-1.08,2.74,2.74,0,0,0-1.4-.37,2.8,2.8,0,0,0-1.41.37,2.73,2.73,0,0,0-1.05,1.08,3.69,3.69,0,0,0,0,3.3,2.73,2.73,0,0,0,1.05,1.08,2.8,2.8,0,0,0,1.41.37A2.74,2.74,0,0,0,405.17,208.65Z"/><path d="M410.18,209.39a3.46,3.46,0,0,1-.78-2.41v-5.14h1.36v4.93a2.38,2.38,0,0,0,.53,1.71,1.88,1.88,0,0,0,1.42.54,2.17,2.17,0,0,0,1.23-.36,2.66,2.66,0,0,0,.83-1,2.86,2.86,0,0,0,.29-1.25v-4.61h1.36V210h-1.29v-1.18h-.07a2.71,2.71,0,0,1-1.07,1,3.11,3.11,0,0,1-1.57.42A2.83,2.83,0,0,1,410.18,209.39Z"/><path d="M420.74,210.09a1.94,1.94,0,0,1-.72-.44,2,2,0,0,1-.48-.71,2.91,2.91,0,0,1-.16-1v-4.87H418v-1.23h1.42v-2.3h1.36v2.3h2v1.23h-2v4.55a1.63,1.63,0,0,0,.26,1,1.09,1.09,0,0,0,.88.36,1.68,1.68,0,0,0,.9-.27v1.33a2.34,2.34,0,0,1-.49.16,3.65,3.65,0,0,1-.63,0A2.51,2.51,0,0,1,420.74,210.09Z"/><path d="M425.56,209.7a3.94,3.94,0,0,1-1.45-1.55,4.59,4.59,0,0,1-.52-2.21,4.81,4.81,0,0,1,.49-2.18,3.92,3.92,0,0,1,1.38-1.58,3.65,3.65,0,0,1,2.08-.6,3.88,3.88,0,0,1,2.08.54A3.6,3.6,0,0,1,431,203.6a4.83,4.83,0,0,1,.47,2.16,1.73,1.73,0,0,1-.05.42H425a3.12,3.12,0,0,0,.45,1.56,2.53,2.53,0,0,0,1,1,2.72,2.72,0,0,0,3.7-1.15l1.15.56a4.1,4.1,0,0,1-1.43,1.57,4.3,4.3,0,0,1-4.28,0Zm4.45-4.64a2.62,2.62,0,0,0-.29-1,2.14,2.14,0,0,0-.81-.86,2.48,2.48,0,0,0-1.38-.35,2.32,2.32,0,0,0-1.63.61,3,3,0,0,0-.87,1.63Z"/><path d="M437.37,203.07h-1.51v-1.23h1.51V201a2.55,2.55,0,0,1,.35-1.34,2.37,2.37,0,0,1,.94-.89,2.79,2.79,0,0,1,1.32-.31,3.44,3.44,0,0,1,1.2.19v1.33c-.2-.08-.38-.14-.55-.19a2.18,2.18,0,0,0-.61-.07,1.27,1.27,0,0,0-.91.38,1.41,1.41,0,0,0-.38,1v.74h2.09v1.23h-2.09V210h-1.36Z"/><path d="M443.59,209.68a4,4,0,0,1-1.49-1.57,4.71,4.71,0,0,1,0-4.38,4,4,0,0,1,1.49-1.57,4.31,4.31,0,0,1,4.32,0,4,4,0,0,1,1.5,1.57,4.79,4.79,0,0,1,0,4.38,4,4,0,0,1-1.5,1.57,4.31,4.31,0,0,1-4.32,0Zm3.56-1a2.77,2.77,0,0,0,1-1.08,3.69,3.69,0,0,0,0-3.3,2.77,2.77,0,0,0-1-1.08,2.74,2.74,0,0,0-1.4-.37,2.8,2.8,0,0,0-1.41.37,2.77,2.77,0,0,0-1,1.08,3.6,3.6,0,0,0,0,3.3,2.77,2.77,0,0,0,1,1.08,2.8,2.8,0,0,0,1.41.37A2.74,2.74,0,0,0,447.15,208.65Z"/><path d="M451.37,201.84h1.29v1.31h.07a2.22,2.22,0,0,1,.93-1.12,2.55,2.55,0,0,1,1.44-.45,2.35,2.35,0,0,1,1,.18v1.46a2.6,2.6,0,0,0-1.16-.26,1.84,1.84,0,0,0-1.08.34,2.41,2.41,0,0,0-.8.9,2.72,2.72,0,0,0-.29,1.23V210h-1.36Z"/><path d="M289,217.74h1.34v5h5.92v-5h1.34V229.2h-1.34V224h-5.92v5.22H289Z"/><path d="M302.5,219h-3.22v-1.3h7.78V219h-3.2V229.2H302.5Z"/><path d="M311.12,219H307.9v-1.3h7.78V219h-3.2V229.2h-1.36Z"/><path d="M317.39,217.74h3.86a3.69,3.69,0,0,1,1.77.44,3.37,3.37,0,0,1,1.31,1.2,3.31,3.31,0,0,1,.49,1.76,3.27,3.27,0,0,1-.49,1.75A3.39,3.39,0,0,1,323,224.1a3.79,3.79,0,0,1-1.77.43h-2.51v4.67h-1.35Zm3.89,5.49a2.12,2.12,0,0,0,1.13-.3,2.21,2.21,0,0,0,.76-.79,2,2,0,0,0,0-2,2.29,2.29,0,0,0-.76-.79,2.12,2.12,0,0,0-1.13-.3h-2.54v4.19Z"/><path d="M332.26,229.29a1.9,1.9,0,0,1-.71-.44,2,2,0,0,1-.48-.71,2.69,2.69,0,0,1-.16-1v-4.87h-1.42V221h1.42v-2.3h1.36V221h2v1.23h-2v4.55a1.63,1.63,0,0,0,.26,1,1.08,1.08,0,0,0,.88.36,1.63,1.63,0,0,0,.89-.27v1.33a2.26,2.26,0,0,1-.48.16,3.69,3.69,0,0,1-.64.05A2.55,2.55,0,0,1,332.26,229.29Z"/><path d="M335.9,221h1.3v1.31h.06a2.22,2.22,0,0,1,.93-1.12,2.6,2.6,0,0,1,1.44-.45,2.32,2.32,0,0,1,1,.18v1.46a2.53,2.53,0,0,0-1.15-.26,1.85,1.85,0,0,0-1.09.34,2.39,2.39,0,0,0-.79.9,2.6,2.6,0,0,0-.3,1.23v4.57H335.9Z"/><path d="M342.59,229.1a2.62,2.62,0,0,1-1.09-1,2.65,2.65,0,0,1-.38-1.4,2.4,2.4,0,0,1,1-2,4,4,0,0,1,2.46-.73,5.92,5.92,0,0,1,1.37.16,3.72,3.72,0,0,1,1,.37V224a1.87,1.87,0,0,0-.64-1.47,2.39,2.39,0,0,0-1.62-.55,2.66,2.66,0,0,0-1.26.3,2.28,2.28,0,0,0-.92.82l-1-.77a3.29,3.29,0,0,1,1.32-1.15,4.1,4.1,0,0,1,1.86-.42,3.69,3.69,0,0,1,2.62.88,3.07,3.07,0,0,1,.95,2.37v5.17H346.9V228h-.07a2.84,2.84,0,0,1-1.05,1,3,3,0,0,1-1.59.42A3.46,3.46,0,0,1,342.59,229.1Zm3-1.2a2.57,2.57,0,0,0,.94-.94,2.45,2.45,0,0,0,.36-1.3,3.48,3.48,0,0,0-.95-.41,4.15,4.15,0,0,0-1.18-.16,2.62,2.62,0,0,0-1.69.46,1.48,1.48,0,0,0-.57,1.2,1.34,1.34,0,0,0,.51,1.09,2,2,0,0,0,1.3.42A2.4,2.4,0,0,0,345.6,227.9Z"/><path d="M350.86,222.27h-1.5V221h1.5v-.88a2.46,2.46,0,0,1,.36-1.34,2.3,2.3,0,0,1,.94-.89,2.72,2.72,0,0,1,1.31-.31,3.36,3.36,0,0,1,1.2.19v1.33a5,5,0,0,0-.54-.19,2.22,2.22,0,0,0-.61-.07,1.25,1.25,0,0,0-.91.38,1.38,1.38,0,0,0-.39,1V221h3.72v-.88a2.54,2.54,0,0,1,.34-1.34,2.3,2.3,0,0,1,.94-.89,2.79,2.79,0,0,1,1.32-.31,3.51,3.51,0,0,1,1.2.19v1.33a5.62,5.62,0,0,0-.56-.2,2.64,2.64,0,0,0-.6-.06,1.28,1.28,0,0,0-.92.38,1.41,1.41,0,0,0-.38,1V221h5.06v8.16H361v-6.93h-3.71v6.93h-1.34v-6.93h-3.72v6.93h-1.36ZM361,219.34a.9.9,0,0,1-.29-.68.91.91,0,0,1,.29-.7.93.93,0,0,1,.68-.28,1,1,0,0,1,1,1,.93.93,0,0,1-.28.68.91.91,0,0,1-.7.29A.9.9,0,0,1,361,219.34Z"/><path d="M366,228.89a4,4,0,0,1-1.47-1.55,4.91,4.91,0,0,1,0-4.44,3.94,3.94,0,0,1,1.47-1.56,4.13,4.13,0,0,1,2.13-.56,3.9,3.9,0,0,1,2.23.62,3.42,3.42,0,0,1,1.29,1.64l-1.24.51a2.36,2.36,0,0,0-.9-1.14A2.6,2.6,0,0,0,368,222a2.46,2.46,0,0,0-1.34.39,2.85,2.85,0,0,0-1,1.09,3.64,3.64,0,0,0,0,3.24,2.78,2.78,0,0,0,1,1.09,2.46,2.46,0,0,0,1.34.39,2.68,2.68,0,0,0,1.49-.4,2.32,2.32,0,0,0,.93-1.13l1.21.51a3.53,3.53,0,0,1-1.33,1.63,3.87,3.87,0,0,1-2.23.63A4,4,0,0,1,366,228.89Z"/><path d="M377.47,222.27H376V221h1.5v-.88a2.55,2.55,0,0,1,.35-1.34,2.39,2.39,0,0,1,.95-.89,2.72,2.72,0,0,1,1.31-.31,3.36,3.36,0,0,1,1.2.19v1.33a5,5,0,0,0-.54-.19,2.22,2.22,0,0,0-.61-.07,1.25,1.25,0,0,0-.91.38,1.38,1.38,0,0,0-.39,1V221h2.1v1.23h-2.1v6.93h-1.36Z"/><path d="M383.7,228.88a4,4,0,0,1-1.5-1.57,4.71,4.71,0,0,1,0-4.38,4,4,0,0,1,1.5-1.57,4.31,4.31,0,0,1,4.32,0,4,4,0,0,1,1.49,1.57,4.71,4.71,0,0,1,0,4.38,4,4,0,0,1-1.49,1.57,4.31,4.31,0,0,1-4.32,0Zm3.56-1a2.85,2.85,0,0,0,1-1.08,3.69,3.69,0,0,0,0-3.3,2.85,2.85,0,0,0-1-1.08,2.85,2.85,0,0,0-2.81,0,2.73,2.73,0,0,0-1.05,1.08,3.69,3.69,0,0,0,0,3.3,2.76,2.76,0,0,0,2.46,1.45A2.77,2.77,0,0,0,387.26,227.85Z"/><path d="M391.47,221h1.3v1.31h.06a2.22,2.22,0,0,1,.93-1.12,2.6,2.6,0,0,1,1.44-.45,2.35,2.35,0,0,1,1,.18v1.46a2.56,2.56,0,0,0-1.15-.26,1.85,1.85,0,0,0-1.09.34,2.39,2.39,0,0,0-.79.9,2.6,2.6,0,0,0-.3,1.23v4.57h-1.36Z"/><path d="M401.9,228.59a3.46,3.46,0,0,1-.78-2.41V221h1.36V226a2.38,2.38,0,0,0,.53,1.71,1.88,1.88,0,0,0,1.42.54,2.17,2.17,0,0,0,1.23-.36,2.66,2.66,0,0,0,.83-1,2.86,2.86,0,0,0,.29-1.25V221h1.36v8.16h-1.29V228h-.07a2.71,2.71,0,0,1-1.07,1,3.11,3.11,0,0,1-1.57.42A2.83,2.83,0,0,1,401.9,228.59Z"/><path d="M410.74,228.84a3.32,3.32,0,0,1-1.25-1.58l1.21-.54a2.53,2.53,0,0,0,.91,1.14,2.38,2.38,0,0,0,1.32.4,2.57,2.57,0,0,0,1.31-.32,1,1,0,0,0,.11-1.71,4,4,0,0,0-1.36-.53l-1-.26a3.53,3.53,0,0,1-1.6-.82,1.9,1.9,0,0,1-.62-1.48,1.94,1.94,0,0,1,.42-1.24,2.67,2.67,0,0,1,1.13-.83,4,4,0,0,1,1.52-.29,3.89,3.89,0,0,1,1.91.47,2.61,2.61,0,0,1,1.19,1.29l-1.18.55a2,2,0,0,0-1.94-1.09,2.13,2.13,0,0,0-1.17.31.91.91,0,0,0-.51.79.89.89,0,0,0,.35.73,2.85,2.85,0,0,0,1.06.46l1.18.3a3.94,3.94,0,0,1,1.81.91,2,2,0,0,1,.61,1.46,2.11,2.11,0,0,1-.43,1.32,2.73,2.73,0,0,1-1.17.87,4.26,4.26,0,0,1-1.63.31A3.7,3.7,0,0,1,410.74,228.84Z"/><path d="M419.26,228.9a3.84,3.84,0,0,1-1.44-1.55,4.59,4.59,0,0,1-.52-2.21,4.94,4.94,0,0,1,.48-2.18,4,4,0,0,1,1.39-1.58,3.63,3.63,0,0,1,2.08-.6,3.91,3.91,0,0,1,2.08.54,3.65,3.65,0,0,1,1.35,1.48,4.83,4.83,0,0,1,.47,2.16,1.34,1.34,0,0,1,0,.42h-6.44a3.22,3.22,0,0,0,.44,1.56,2.6,2.6,0,0,0,1,1,2.68,2.68,0,0,0,1.29.32,2.65,2.65,0,0,0,2.41-1.47l1.16.56a4.12,4.12,0,0,1-1.44,1.57,4.3,4.3,0,0,1-4.28,0Zm4.45-4.64a2.67,2.67,0,0,0-.29-1,2.19,2.19,0,0,0-.8-.86,2.5,2.5,0,0,0-1.39-.35,2.28,2.28,0,0,0-1.62.61,2.91,2.91,0,0,0-.87,1.63Z"/><path d="M426.74,221H428v1.31h.07a2.15,2.15,0,0,1,.92-1.12,2.6,2.6,0,0,1,1.44-.45,2.28,2.28,0,0,1,1,.18v1.46a2.53,2.53,0,0,0-1.15-.26,1.87,1.87,0,0,0-1.09.34,2.39,2.39,0,0,0-.79.9,2.59,2.59,0,0,0-.29,1.23v4.57h-1.36Z"/><path d="M436.49,220.75a.94.94,0,0,1-.3-.71,1.37,1.37,0,0,1,.1-.48,4.17,4.17,0,0,1,.33-.56l1-1.42.64.42-.78,1.16a.89.89,0,0,1,.51.29.84.84,0,0,1,.22.6,1,1,0,0,1-.29.7,1,1,0,0,1-.72.29A1,1,0,0,1,436.49,220.75Z"/><path d="M438.54,232.8v-1.3a1,1,0,0,0,.32.13,1.63,1.63,0,0,0,.35.05.83.83,0,0,0,.73-.31,1.68,1.68,0,0,0,.22-.93V221h1.34v9.39a2.57,2.57,0,0,1-.59,1.86,2.13,2.13,0,0,1-1.65.62A2.46,2.46,0,0,1,438.54,232.8Zm1.6-13.54a.93.93,0,0,1-.28-.68.9.9,0,0,1,.28-.68,1,1,0,0,1,1.38,0,.91.91,0,0,1,.29.68,1,1,0,0,1-.28.68,1,1,0,0,1-1.39,0Z"/><path d="M444.58,229.1a2.55,2.55,0,0,1-1.48-2.36,2.4,2.4,0,0,1,1-2,4,4,0,0,1,2.46-.73,5.92,5.92,0,0,1,1.37.16,3.58,3.58,0,0,1,1,.37V224a1.84,1.84,0,0,0-.64-1.47,2.39,2.39,0,0,0-1.62-.55,2.69,2.69,0,0,0-1.26.3,2.26,2.26,0,0,0-.91.82l-1-.77a3.29,3.29,0,0,1,1.32-1.15,4.11,4.11,0,0,1,1.87-.42,3.67,3.67,0,0,1,2.61.88,3,3,0,0,1,1,2.37v5.17h-1.3V228h-.06a3,3,0,0,1-1.06,1,3,3,0,0,1-1.58.42A3.43,3.43,0,0,1,444.58,229.1Zm3-1.2a2.59,2.59,0,0,0,.95-.94,2.53,2.53,0,0,0,.35-1.3,3.55,3.55,0,0,0-.94-.41,4.22,4.22,0,0,0-1.19-.16,2.62,2.62,0,0,0-1.69.46,1.47,1.47,0,0,0-.56,1.2,1.34,1.34,0,0,0,.51,1.09,2,2,0,0,0,1.29.42A2.4,2.4,0,0,0,447.58,227.9Z"/><path d="M452.64,228.84a3.38,3.38,0,0,1-1.25-1.58l1.22-.54a2.45,2.45,0,0,0,.9,1.14,2.38,2.38,0,0,0,1.32.4,2.57,2.57,0,0,0,1.31-.32,1,1,0,0,0,.55-.88,1,1,0,0,0-.44-.83,3.92,3.92,0,0,0-1.35-.53l-1-.26a3.53,3.53,0,0,1-1.6-.82,2.06,2.06,0,0,1-.2-2.72,2.73,2.73,0,0,1,1.13-.83,4,4,0,0,1,1.52-.29,3.86,3.86,0,0,1,1.91.47,2.68,2.68,0,0,1,1.2,1.29l-1.19.55a2,2,0,0,0-1.93-1.09,2.19,2.19,0,0,0-1.18.31.9.9,0,0,0-.5.79.86.86,0,0,0,.35.73,2.72,2.72,0,0,0,1,.46l1.19.3a4,4,0,0,1,1.81.91,2,2,0,0,1,.6,1.46,2.11,2.11,0,0,1-.43,1.32,2.73,2.73,0,0,1-1.17.87,4.26,4.26,0,0,1-1.63.31A3.75,3.75,0,0,1,452.64,228.84Z"/><path d="M461.23,228.88a4,4,0,0,1-1.5-1.57,4.79,4.79,0,0,1,0-4.38,4,4,0,0,1,1.5-1.57,4.31,4.31,0,0,1,4.32,0,4,4,0,0,1,1.5,1.57,4.79,4.79,0,0,1,0,4.38,4,4,0,0,1-1.5,1.57,4.31,4.31,0,0,1-4.32,0Zm3.56-1a2.77,2.77,0,0,0,1-1.08,3.69,3.69,0,0,0,0-3.3,2.77,2.77,0,0,0-1-1.08,2.74,2.74,0,0,0-1.4-.37,2.76,2.76,0,0,0-2.46,1.45,3.69,3.69,0,0,0,0,3.3,2.76,2.76,0,0,0,2.46,1.45A2.74,2.74,0,0,0,464.79,227.85Z"/><path d="M469,221h1.29v1.2h.07a2.73,2.73,0,0,1,1.07-1,3.12,3.12,0,0,1,1.57-.43,2.86,2.86,0,0,1,2.24.86A3.33,3.33,0,0,1,476,224v5.23h-1.36v-5a2.18,2.18,0,0,0-.54-1.65,2.11,2.11,0,0,0-1.49-.51,2,2,0,0,0-1.18.36,2.65,2.65,0,0,0-.81,1,2.9,2.9,0,0,0-.28,1.26v4.59H469Z"/><path d="M477.44,220.62l.78-1.2a.89.89,0,0,1-.73-.91,1,1,0,0,1,1-1,1,1,0,0,1,1,1,1.44,1.44,0,0,1-.1.5,3.66,3.66,0,0,1-.33.57l-1,1.46Z"/><rect class="a83ed2b5-752a-4252-aaa8-3da0801f5b61" x="285.35" y="29.86" width="197.65" height="135" rx="3"/><rect class="aa6d0143-5d65-44d7-befe-c1fe90f38d31" x="294" y="38.86" width="54" height="54" rx="3"/><polygon class="a7ee17b0-c450-4fb4-a324-877bd1a85333" points="334.26 73.51 334.26 58.21 321 50.56 307.74 58.21 307.74 73.51 321 81.16 334.26 73.51"/><rect class="aa6d0143-5d65-44d7-befe-c1fe90f38d31" x="357" y="38.86" width="117" height="54" rx="3"/><text class="a731aa34-730c-40a0-b6f7-7e9329346a84" transform="translate(407.27 70.7)"><tspan class="f75d2ebd-e94e-40d6-91a6-d6104556d903">m</tspan><tspan class="ad1ace8d-ff09-4d7c-8fe3-e277ee596760" x="12.05" y="0">y-s</tspan><tspan class="b464db90-99e8-4445-9716-384a39c8230d" x="32.07" y="0">v</tspan><tspan x="39.06" y="0">c v1</tspan></text><circle class="bcea2c06-754c-4bfc-a226-6b8626dc5174" cx="384" cy="65.86" r="18"/><rect class="b73158db-7ef1-403c-b013-d6a02a95a3ff" x="377.61" y="59.34" width="12.79" height="12.79"/><line class="ac569e98-25a4-4f6b-b70d-d771e368e8f2" x1="379.97" y1="59.34" x2="379.97" y2="56.27"/><line class="ac569e98-25a4-4f6b-b70d-d771e368e8f2" x1="384" y1="59.34" x2="384" y2="56.27"/><line class="ac569e98-25a4-4f6b-b70d-d771e368e8f2" x1="388.03" y1="59.34" x2="388.03" y2="56.27"/><line class="ac569e98-25a4-4f6b-b70d-d771e368e8f2" x1="379.97" y1="75.45" x2="379.97" y2="72.37"/><line class="ac569e98-25a4-4f6b-b70d-d771e368e8f2" x1="384" y1="75.45" x2="384" y2="72.37"/><line class="ac569e98-25a4-4f6b-b70d-d771e368e8f2" x1="388.03" y1="75.45" x2="388.03" y2="72.37"/><line class="ac569e98-25a4-4f6b-b70d-d771e368e8f2" x1="377.49" y1="69.88" x2="374.41" y2="69.88"/><line class="ac569e98-25a4-4f6b-b70d-d771e368e8f2" x1="377.49" y1="65.86" x2="374.41" y2="65.86"/><line class="ac569e98-25a4-4f6b-b70d-d771e368e8f2" x1="377.49" y1="61.83" x2="374.41" y2="61.83"/><line class="ac569e98-25a4-4f6b-b70d-d771e368e8f2" x1="393.59" y1="69.88" x2="390.51" y2="69.88"/><line class="ac569e98-25a4-4f6b-b70d-d771e368e8f2" x1="393.59" y1="65.86" x2="390.51" y2="65.86"/><line class="ac569e98-25a4-4f6b-b70d-d771e368e8f2" x1="393.59" y1="61.83" x2="390.51" y2="61.83"/><rect class="aa6d0143-5d65-44d7-befe-c1fe90f38d31" x="381.16" y="62.9" width="5.68" height="5.68" rx="2"/><rect class="aa6d0143-5d65-44d7-befe-c1fe90f38d31" x="294" y="101.86" width="54" height="54" rx="3"/><polygon class="a7ee17b0-c450-4fb4-a324-877bd1a85333" points="334.26 136.51 334.26 121.21 321 113.56 307.74 121.21 307.74 136.51 321 144.16 334.26 136.51"/><rect class="aa6d0143-5d65-44d7-befe-c1fe90f38d31" x="357" y="101.86" width="117" height="54" rx="3"/><text class="a731aa34-730c-40a0-b6f7-7e9329346a84" transform="translate(406.25 133.7)"><tspan class="f75d2ebd-e94e-40d6-91a6-d6104556d903">m</tspan><tspan x="12.05" y="0">y-s</tspan><tspan class="b464db90-99e8-4445-9716-384a39c8230d" x="32.07" y="0">v</tspan><tspan x="39.06" y="0">c v2</tspan></text><circle class="bcea2c06-754c-4bfc-a226-6b8626dc5174" cx="384" cy="128.86" r="18"/><rect class="b73158db-7ef1-403c-b013-d6a02a95a3ff" x="377.61" y="122.34" width="12.79" height="12.79"/><line class="ac569e98-25a4-4f6b-b70d-d771e368e8f2" x1="379.97" y1="122.34" x2="379.97" y2="119.27"/><line class="ac569e98-25a4-4f6b-b70d-d771e368e8f2" x1="384" y1="122.34" x2="384" y2="119.27"/><line class="ac569e98-25a4-4f6b-b70d-d771e368e8f2" x1="388.03" y1="122.34" x2="388.03" y2="119.27"/><line class="ac569e98-25a4-4f6b-b70d-d771e368e8f2" x1="379.97" y1="138.45" x2="379.97" y2="135.37"/><line class="ac569e98-25a4-4f6b-b70d-d771e368e8f2" x1="384" y1="138.45" x2="384" y2="135.37"/><line class="ac569e98-25a4-4f6b-b70d-d771e368e8f2" x1="388.03" y1="138.45" x2="388.03" y2="135.37"/><line class="ac569e98-25a4-4f6b-b70d-d771e368e8f2" x1="377.49" y1="132.88" x2="374.41" y2="132.88"/><line class="ac569e98-25a4-4f6b-b70d-d771e368e8f2" x1="377.49" y1="128.86" x2="374.41" y2="128.86"/><line class="ac569e98-25a4-4f6b-b70d-d771e368e8f2" x1="377.49" y1="124.83" x2="374.41" y2="124.83"/><line class="ac569e98-25a4-4f6b-b70d-d771e368e8f2" x1="393.59" y1="132.88" x2="390.51" y2="132.88"/><line class="ac569e98-25a4-4f6b-b70d-d771e368e8f2" x1="393.59" y1="128.86" x2="390.51" y2="128.86"/><line class="ac569e98-25a4-4f6b-b70d-d771e368e8f2" x1="393.59" y1="124.83" x2="390.51" y2="124.83"/><rect class="aa6d0143-5d65-44d7-befe-c1fe90f38d31" x="381.16" y="125.9" width="5.68" height="5.68" rx="2"/><line class="b8ba668a-be2c-4316-a364-0e5b44fc5d88" x1="150" y1="87.61" x2="153" y2="87.61"/><line class="eae8024f-d364-4f57-83fb-27f23694280a" x1="165" y1="87.61" x2="249" y2="87.61"/><polyline class="b8ba668a-be2c-4316-a364-0e5b44fc5d88" points="255 87.61 258 87.61 258 90.61"/><line class="e0e10271-57a6-4fff-8dc2-68804d608b9b" x1="258" y1="102.61" x2="258" y2="114.61"/><polyline class="b8ba668a-be2c-4316-a364-0e5b44fc5d88" points="258 120.61 258 123.61 261 123.61"/><line class="bd79ce48-93df-489d-a7a3-cf851454e1d0" x1="273" y1="123.61" x2="285" y2="123.61"/><line class="b8ba668a-be2c-4316-a364-0e5b44fc5d88" x1="291" y1="123.61" x2="294" y2="123.61"/><line class="f16c69e6-ab73-43f9-89ee-cc7f86945d92" x1="294" y1="57" x2="291" y2="57"/><line class="a5d028c9-e153-4816-9692-02ed7ac50ef6" x1="279" y1="57" x2="159" y2="57"/><polyline class="f16c69e6-ab73-43f9-89ee-cc7f86945d92" points="153 57 150 57 150 60"/><line class="b6af3a0f-a466-4bc3-9923-ba5de94ea7e4" x1="150" y1="69.85" x2="150" y2="79.69"/><polyline class="f16c69e6-ab73-43f9-89ee-cc7f86945d92" points="150 84.61 150 87.61 147 87.62"/><line class="a499933c-e56b-4f00-9b70-873dbc19a28d" x1="135.7" y1="87.64" x2="39.65" y2="87.79"/><line class="f16c69e6-ab73-43f9-89ee-cc7f86945d92" x1="34" y1="87.8" x2="31" y2="87.81"/></g></svg>