<svg xmlns="http://www.w3.org/2000/svg" viewBox="0 0 485.65 194"><defs><style>.a539b085-9b36-4a5d-a3ca-65912a07b708,.abb3be6a-72f2-4571-a36b-415fb005c47f,.ae74e660-afac-452e-a851-5f12a91a2d88,.af9d65c9-8027-40ae-b4ae-2156f15b20b9,.bafbb106-7255-4f47-a67a-6f515c92dcad,.bc7d9dee-3e91-405d-b5ce-044e6bda5b5e,.ee18ecaa-f987-4a3f-b45d-bd7cadb8df7e{fill:none;}.bc7d9dee-3e91-405d-b5ce-044e6bda5b5e{stroke:#466bb0;stroke-dasharray:10.08 10.08;}.a539b085-9b36-4a5d-a3ca-65912a07b708,.abb3be6a-72f2-4571-a36b-415fb005c47f,.ae74e660-afac-452e-a851-5f12a91a2d88,.af9d65c9-8027-40ae-b4ae-2156f15b20b9,.bafbb106-7255-4f47-a67a-6f515c92dcad,.bc7d9dee-3e91-405d-b5ce-044e6bda5b5e{stroke-linejoin:round;}.f819bc16-e839-4ce3-a3c7-31ed11264961{font-size:16px;}.ad57db7c-ab3d-452e-a52d-9015ad65bf5d,.f819bc16-e839-4ce3-a3c7-31ed11264961{font-family:GoogleSans-Regular, Google Sans;}.bc9e6f8b-da62-4750-8230-49fe4177fb8c{letter-spacing:0em;}.fa8e3f92-93f7-409a-9fe6-69f6827bf212{letter-spacing:0em;}.a2105210-e62c-413c-b2e0-1f9974a9b9ef{letter-spacing:-0.01em;}.f0e87582-7e4a-4538-8733-5d009e8422b8{letter-spacing:0.01em;}.a539b085-9b36-4a5d-a3ca-65912a07b708,.abb3be6a-72f2-4571-a36b-415fb005c47f,.af9d65c9-8027-40ae-b4ae-2156f15b20b9{stroke:#486baf;stroke-width:4px;}.a539b085-9b36-4a5d-a3ca-65912a07b708,.abb3be6a-72f2-4571-a36b-415fb005c47f,.af9d65c9-8027-40ae-b4ae-2156f15b20b9,.ee18ecaa-f987-4a3f-b45d-bd7cadb8df7e{stroke-linecap:round;}.abb3be6a-72f2-4571-a36b-415fb005c47f{stroke-dasharray:6 12;}.fb1046d2-4a9f-4c7a-b98b-be1d2fd34f11{letter-spacing:-0.02em;}.e76f0509-f81e-4931-8a0d-88b2ce2902c9{letter-spacing:-0.01em;}.e9d02ce3-f338-45d2-be1b-635382442eed{letter-spacing:0em;}.be83ab47-04b5-41a8-a76d-a4048f9393c3{letter-spacing:-0.02em;}.ad54abfb-42af-402e-8999-11a5265d3c12{letter-spacing:-0.01em;}.e1a42186-ddb7-4167-bf44-3308facead77{letter-spacing:-0.03em;}.a250eb25-1e2a-4502-8eab-3a4d26633bca{letter-spacing:-0.02em;}.abd25a6e-fc9d-40b7-9708-10ed72df0789{fill:#e6e6e6;}.f45b74d8-b724-4fcb-a594-0de86273d450{fill:#fff;}.bafbb106-7255-4f47-a67a-6f515c92dcad{stroke:#e905ee;stroke-width:3px;}.ad57db7c-ab3d-452e-a52d-9015ad65bf5d{font-size:14px;}.f9967ce8-3ed3-4367-b5b5-4ee84cd9fe33{letter-spacing:-0.01em;}.baca4e8e-97bc-46e9-aef3-d6c7e681cccd{letter-spacing:0em;}.b310ebb9-8bc9-4279-8301-d5f625d442eb{fill:#757575;}.ae74e660-afac-452e-a851-5f12a91a2d88,.ee18ecaa-f987-4a3f-b45d-bd7cadb8df7e{stroke:#fff;stroke-width:2px;}.ee18ecaa-f987-4a3f-b45d-bd7cadb8df7e{stroke-miterlimit:10;}.f7d0a258-575f-401c-ae82-2aff21fb8cf4{fill:#e5e5e4;}.f0eeecb1-f7e7-4ca1-976c-37b1328711d7{letter-spacing:0.01em;}.abb2e41f-7a9b-43c8-b223-f8aba56c41d0{letter-spacing:0em;}.b7b88b35-fc7b-4fcd-8927-bb5625992e1e{fill:#486baf;}.af9d65c9-8027-40ae-b4ae-2156f15b20b9{stroke-dasharray:6.18 12.37;}</style></defs><title>routing-2a</title><g id="eb829772-c886-419c-9ee1-a763c37617aa" data-name="Service-relationships"><rect class="bc7d9dee-3e91-405d-b5ce-044e6bda5b5e" x="33.5" y="21.64" width="451.65" height="171.86" rx="10"/><text class="f819bc16-e839-4ce3-a3c7-31ed11264961" transform="translate(33.9 13.73)">I<tspan class="bc9e6f8b-da62-4750-8230-49fe4177fb8c" x="3.9" y="0">s</tspan><tspan class="fa8e3f92-93f7-409a-9fe6-69f6827bf212" x="11.39" y="0">t</tspan><tspan class="a2105210-e62c-413c-b2e0-1f9974a9b9ef" x="17.33" y="0">i</tspan><tspan x="20.86" y="0">o M</tspan><tspan class="f0e87582-7e4a-4538-8733-5d009e8422b8" x="47.97" y="0">e</tspan><tspan x="57.06" y="0">sh</tspan></text><line class="a539b085-9b36-4a5d-a3ca-65912a07b708" x1="279.08" y1="144" x2="282.08" y2="144"/><line class="abb3be6a-72f2-4571-a36b-415fb005c47f" x1="294.08" y1="144" x2="414.08" y2="144"/><line class="a539b085-9b36-4a5d-a3ca-65912a07b708" x1="420.08" y1="144" x2="423.08" y2="144"/><text class="f819bc16-e839-4ce3-a3c7-31ed11264961" transform="translate(255.91 171)"><tspan class="fb1046d2-4a9f-4c7a-b98b-be1d2fd34f11">C</tspan><tspan class="e76f0509-f81e-4931-8a0d-88b2ce2902c9" x="11.54" y="0">on</tspan><tspan class="a2105210-e62c-413c-b2e0-1f9974a9b9ef" x="29.73" y="0">fig</tspan><tspan class="e9d02ce3-f338-45d2-be1b-635382442eed" x="48.62" y="0">u</tspan><tspan class="be83ab47-04b5-41a8-a76d-a4048f9393c3" x="57.6" y="0">r</tspan><tspan x="63.28" y="0">a</tspan><tspan class="a2105210-e62c-413c-b2e0-1f9974a9b9ef" x="71.78" y="0">bl</tspan><tspan x="84.62" y="0">e t</tspan><tspan class="fb1046d2-4a9f-4c7a-b98b-be1d2fd34f11" x="103.2" y="0">r</tspan><tspan class="ad54abfb-42af-402e-8999-11a5265d3c12" x="108.88" y="0">aff</tspan><tspan class="bc9e6f8b-da62-4750-8230-49fe4177fb8c" x="117.22" y="0">i</tspan><tspan x="131.7" y="0">c </tspan><tspan class="e1a42186-ddb7-4167-bf44-3308facead77" x="144.14" y="0">r</tspan><tspan class="bc9e6f8b-da62-4750-8230-49fe4177fb8c" x="149.66" y="0">o</tspan><tspan class="f0e87582-7e4a-4538-8733-5d009e8422b8" x="159.12" y="0">u</tspan><tspan class="a250eb25-1e2a-4502-8eab-3a4d26633bca" x="168.18" y="0">t</tspan><tspan class="f0e87582-7e4a-4538-8733-5d009e8422b8" x="173.68" y="0">e</tspan><tspan x="182.77" y="0">s</tspan></text><rect class="abd25a6e-fc9d-40b7-9708-10ed72df0789" x="252.25" y="40.86" width="197.65" height="72" rx="3"/><rect class="f45b74d8-b724-4fcb-a594-0de86273d450" x="260.9" y="49.86" width="54" height="54" rx="3"/><polygon class="bafbb106-7255-4f47-a67a-6f515c92dcad" points="301.16 84.51 301.16 69.21 287.9 61.56 274.64 69.21 274.64 84.51 287.9 92.16 301.16 84.51"/><rect class="f45b74d8-b724-4fcb-a594-0de86273d450" x="323.9" y="49.86" width="117" height="54" rx="3"/><text class="ad57db7c-ab3d-452e-a52d-9015ad65bf5d" transform="translate(387.27 81.7)">s<tspan class="f9967ce8-3ed3-4367-b5b5-4ee84cd9fe33" x="6.62" y="0">v</tspan><tspan class="baca4e8e-97bc-46e9-aef3-d6c7e681cccd" x="13.61" y="0">c-X</tspan></text><circle class="b310ebb9-8bc9-4279-8301-d5f625d442eb" cx="350.9" cy="76.86" r="18"/><rect class="ae74e660-afac-452e-a851-5f12a91a2d88" x="344.51" y="70.34" width="12.79" height="12.79"/><line class="ee18ecaa-f987-4a3f-b45d-bd7cadb8df7e" x1="346.87" y1="70.34" x2="346.87" y2="67.27"/><line class="ee18ecaa-f987-4a3f-b45d-bd7cadb8df7e" x1="350.9" y1="70.34" x2="350.9" y2="67.27"/><line class="ee18ecaa-f987-4a3f-b45d-bd7cadb8df7e" x1="354.93" y1="70.34" x2="354.93" y2="67.27"/><line class="ee18ecaa-f987-4a3f-b45d-bd7cadb8df7e" x1="346.87" y1="86.45" x2="346.87" y2="83.37"/><line class="ee18ecaa-f987-4a3f-b45d-bd7cadb8df7e" x1="350.9" y1="86.45" x2="350.9" y2="83.37"/><line class="ee18ecaa-f987-4a3f-b45d-bd7cadb8df7e" x1="354.93" y1="86.45" x2="354.93" y2="83.37"/><line class="ee18ecaa-f987-4a3f-b45d-bd7cadb8df7e" x1="344.39" y1="80.88" x2="341.31" y2="80.88"/><line class="ee18ecaa-f987-4a3f-b45d-bd7cadb8df7e" x1="344.39" y1="76.86" x2="341.31" y2="76.86"/><line class="ee18ecaa-f987-4a3f-b45d-bd7cadb8df7e" x1="344.39" y1="72.83" x2="341.31" y2="72.83"/><line class="ee18ecaa-f987-4a3f-b45d-bd7cadb8df7e" x1="360.49" y1="80.88" x2="357.41" y2="80.88"/><line class="ee18ecaa-f987-4a3f-b45d-bd7cadb8df7e" x1="360.49" y1="76.86" x2="357.41" y2="76.86"/><line class="ee18ecaa-f987-4a3f-b45d-bd7cadb8df7e" x1="360.49" y1="72.83" x2="357.41" y2="72.83"/><rect class="f45b74d8-b724-4fcb-a594-0de86273d450" x="348.06" y="73.9" width="5.68" height="5.68" rx="2"/><rect class="f7d0a258-575f-401c-ae82-2aff21fb8cf4" x="73.11" y="39.82" width="123.25" height="75.44" rx="3"/><rect class="f45b74d8-b724-4fcb-a594-0de86273d450" x="81.92" y="83.25" width="105.64" height="26.41" rx="3"/><text class="ad57db7c-ab3d-452e-a52d-9015ad65bf5d" transform="translate(105.54 100.6)"><tspan class="f0eeecb1-f7e7-4ca1-976c-37b1328711d7">v</tspan><tspan class="abb2e41f-7a9b-43c8-b223-f8aba56c41d0" x="7.28" y="0">t</tspan><tspan x="12.47" y="0">l-s</tspan><tspan class="f9967ce8-3ed3-4367-b5b5-4ee84cd9fe33" x="28.22" y="0">v</tspan><tspan class="baca4e8e-97bc-46e9-aef3-d6c7e681cccd" x="35.21" y="0">c-A</tspan></text><rect id="adf49a18-3904-44e6-98cf-d4a422b845f5" data-name="background" class="b7b88b35-fc7b-4fcd-8927-bb5625992e1e" x="120.52" y="39.82" width="28.44" height="28.44"/><polygon id="b8037049-ef17-40f5-924a-7ecbb5ced007" data-name="hull" class="f45b74d8-b724-4fcb-a594-0de86273d450" points="126.14 63.71 143.34 63.71 132.59 66.94 126.14 63.71"/><polygon id="a15e595d-6875-4a5d-aebe-d4786d3191a6" data-name="mainsail" class="f45b74d8-b724-4fcb-a594-0de86273d450" points="126.14 62.63 132.59 61.56 132.59 49.73 126.14 62.63"/><polygon id="a8512c8d-57f2-4da5-bb76-75536e66cf08" data-name="headsail" class="f45b74d8-b724-4fcb-a594-0de86273d450" points="133.66 61.56 143.34 62.63 133.66 41.14 133.66 61.56"/><line class="a539b085-9b36-4a5d-a3ca-65912a07b708" x1="57" y1="77.54" x2="60" y2="77.54"/><line class="af9d65c9-8027-40ae-b4ae-2156f15b20b9" x1="72.37" y1="77.54" x2="251.72" y2="77.54"/><line class="a539b085-9b36-4a5d-a3ca-65912a07b708" x1="257.9" y1="77.54" x2="260.9" y2="77.54"/></g></svg>