<svg xmlns="http://www.w3.org/2000/svg" viewBox="0 0 504 262.65"><defs><style>.f06ba06a-95d4-44ea-8471-ff9fcac29b3e{fill:#e5e5e4;}.a1704f99-7e08-4036-a34c-8c8e6892479b{fill:#fff;}.ae88a2fc-4cd3-4037-90d9-440ddb52ffd2{font-size:14px;}.ae88a2fc-4cd3-4037-90d9-440ddb52ffd2,.e8db1857-2529-4ad8-934c-dc6374164a7f{font-family:GoogleSans-Regular, Google Sans;}.a3f39496-6152-4e92-962e-70ea1199cd3a{letter-spacing:0.01em;}.a707a87b-4753-41b2-bf1f-a4b874691a8b{letter-spacing:0em;}.f1df9d1d-d467-47e8-a911-d5ae6a1e08c9{letter-spacing:-0.01em;}.acb17813-62e9-4e21-a11c-80f1d52fb545{letter-spacing:0em;}.fd10a197-256a-4e6b-83eb-6d2605cb0118{fill:#486baf;}.b23a2369-83aa-4e0a-927e-486487188ad7,.b4b5c9de-9baa-4b1e-8753-3c413c6f8cad,.b85df70a-b8dc-4959-bd3d-26a194e22742,.b86808bd-1b40-4d71-a6fa-e4f38204f6c6,.baae48ed-95cd-40bb-ab38-7b1393624458,.badbbd8a-5869-4aa5-b30c-07c50a7eabb8,.f88662de-4890-43d8-8e84-b742977372e7,.fc13b10c-4ca8-4433-8935-ef07f914462f{fill:none;}.baae48ed-95cd-40bb-ab38-7b1393624458{stroke:#466bb0;stroke-dasharray:10.07 10.07;}.b23a2369-83aa-4e0a-927e-486487188ad7,.b4b5c9de-9baa-4b1e-8753-3c413c6f8cad,.b85df70a-b8dc-4959-bd3d-26a194e22742,.b86808bd-1b40-4d71-a6fa-e4f38204f6c6,.baae48ed-95cd-40bb-ab38-7b1393624458,.badbbd8a-5869-4aa5-b30c-07c50a7eabb8,.fc13b10c-4ca8-4433-8935-ef07f914462f{stroke-linejoin:round;}.e8db1857-2529-4ad8-934c-dc6374164a7f{font-size:16px;}.fb852b11-e59f-491a-8a5f-f6d3a4f9056f{letter-spacing:0em;}.a878f6ae-1f1a-40e9-acf0-d59ca30c0f51{letter-spacing:0em;}.f0a5a90d-e06b-4af2-85bb-7f92c7b87dd3{letter-spacing:-0.01em;}.f064cb72-4ba8-4d9e-a758-fa976957de67{letter-spacing:0.01em;}.b85df70a-b8dc-4959-bd3d-26a194e22742,.b86808bd-1b40-4d71-a6fa-e4f38204f6c6,.badbbd8a-5869-4aa5-b30c-07c50a7eabb8,.fc13b10c-4ca8-4433-8935-ef07f914462f{stroke:#486baf;stroke-width:4px;}.b85df70a-b8dc-4959-bd3d-26a194e22742,.b86808bd-1b40-4d71-a6fa-e4f38204f6c6,.badbbd8a-5869-4aa5-b30c-07c50a7eabb8,.f88662de-4890-43d8-8e84-b742977372e7,.fc13b10c-4ca8-4433-8935-ef07f914462f{stroke-linecap:round;}.fc13b10c-4ca8-4433-8935-ef07f914462f{stroke-dasharray:6 12;}.a3b684e4-dac7-438a-8179-bd7e8989dac5{letter-spacing:-0.02em;}.bbff94f3-cb39-41d0-a5a0-48dafc3ef009{letter-spacing:-0.01em;}.bbd80fb4-f7a5-4a14-91dd-ece334c79f64{letter-spacing:0em;}.f2fdb634-3b8d-4c81-8a48-43de012d8536{letter-spacing:-0.02em;}.ae2fcb42-040d-4a4f-bd20-c549cc9a78fb{letter-spacing:-0.01em;}.f17012cd-ca2d-467b-bfdb-8b8d070a7cdb{letter-spacing:-0.03em;}.b59dd662-92db-4f92-ac91-b3aee2308048{letter-spacing:-0.02em;}.a087eccb-a85c-4a35-92ef-24d4e7c8ea5a{fill:#e6e6e6;}.b23a2369-83aa-4e0a-927e-486487188ad7{stroke:#e905ee;stroke-width:3px;}.bbf0ceb9-fa6f-47f6-ab5d-6895211d220f{letter-spacing:-0.02em;}.f4a5240f-8f93-48aa-b8ee-453e63c7f5e9{fill:#757575;}.b4b5c9de-9baa-4b1e-8753-3c413c6f8cad,.f88662de-4890-43d8-8e84-b742977372e7{stroke:#fff;stroke-width:2px;}.f88662de-4890-43d8-8e84-b742977372e7{stroke-miterlimit:10;}.b85df70a-b8dc-4959-bd3d-26a194e22742{stroke-dasharray:6.07 12.14;}.b86808bd-1b40-4d71-a6fa-e4f38204f6c6{stroke-dasharray:5.36 10.71;}</style></defs><title>rounting-2c</title><g id="af4edb44-28ba-4de3-8ab5-98aa954112dd" data-name="Service-relationships"><rect class="f06ba06a-95d4-44ea-8471-ff9fcac29b3e" x="43.11" y="44.82" width="123.25" height="75.44" rx="3"/><rect class="a1704f99-7e08-4036-a34c-8c8e6892479b" x="51.92" y="88.25" width="105.64" height="26.41" rx="3"/><text class="ae88a2fc-4cd3-4037-90d9-440ddb52ffd2" transform="translate(75.04 105.6)"><tspan class="a3f39496-6152-4e92-962e-70ea1199cd3a">v</tspan><tspan class="a707a87b-4753-41b2-bf1f-a4b874691a8b" x="7.28" y="0">t</tspan><tspan x="12.47" y="0">l-s</tspan><tspan class="f1df9d1d-d467-47e8-a911-d5ae6a1e08c9" x="28.22" y="0">v</tspan><tspan class="acb17813-62e9-4e21-a11c-80f1d52fb545" x="35.21" y="0">c-C</tspan></text><rect id="ace23c5e-6bf6-420b-b388-b163717957b6" data-name="background" class="fd10a197-256a-4e6b-83eb-6d2605cb0118" x="90.52" y="44.82" width="28.44" height="28.44"/><polygon id="a0880e72-8c95-4496-b236-f55310d0aa71" data-name="hull" class="a1704f99-7e08-4036-a34c-8c8e6892479b" points="96.14 68.71 113.34 68.71 102.59 71.94 96.14 68.71"/><polygon id="a3508c84-00ab-4050-b013-a1d9a7ee9272" data-name="mainsail" class="a1704f99-7e08-4036-a34c-8c8e6892479b" points="96.14 67.64 102.59 66.56 102.59 54.73 96.14 67.64"/><polygon id="bf9e913f-4b5a-41d9-8cb9-74827caf0902" data-name="headsail" class="a1704f99-7e08-4036-a34c-8c8e6892479b" points="103.66 66.56 113.34 67.64 103.66 46.14 103.66 66.56"/><rect class="baae48ed-95cd-40bb-ab38-7b1393624458" x="0.5" y="21.64" width="503" height="240.51" rx="10"/><text class="e8db1857-2529-4ad8-934c-dc6374164a7f" transform="translate(0.9 13.73)">I<tspan class="fb852b11-e59f-491a-8a5f-f6d3a4f9056f" x="3.9" y="0">s</tspan><tspan class="a878f6ae-1f1a-40e9-acf0-d59ca30c0f51" x="11.39" y="0">t</tspan><tspan class="f0a5a90d-e06b-4af2-85bb-7f92c7b87dd3" x="17.33" y="0">i</tspan><tspan x="20.86" y="0">o M</tspan><tspan class="f064cb72-4ba8-4d9e-a758-fa976957de67" x="47.97" y="0">e</tspan><tspan x="57.06" y="0">sh</tspan></text><line class="badbbd8a-5869-4aa5-b30c-07c50a7eabb8" x1="34" y1="210.65" x2="37" y2="210.65"/><line class="fc13b10c-4ca8-4433-8935-ef07f914462f" x1="49" y1="210.65" x2="169" y2="210.65"/><line class="badbbd8a-5869-4aa5-b30c-07c50a7eabb8" x1="175" y1="210.65" x2="178" y2="210.65"/><text class="e8db1857-2529-4ad8-934c-dc6374164a7f" transform="translate(10.83 237.65)"><tspan class="a3b684e4-dac7-438a-8179-bd7e8989dac5">C</tspan><tspan class="bbff94f3-cb39-41d0-a5a0-48dafc3ef009" x="11.54" y="0">on</tspan><tspan class="f0a5a90d-e06b-4af2-85bb-7f92c7b87dd3" x="29.73" y="0">fig</tspan><tspan class="bbd80fb4-f7a5-4a14-91dd-ece334c79f64" x="48.62" y="0">u</tspan><tspan class="f2fdb634-3b8d-4c81-8a48-43de012d8536" x="57.6" y="0">r</tspan><tspan x="63.28" y="0">a</tspan><tspan class="f0a5a90d-e06b-4af2-85bb-7f92c7b87dd3" x="71.78" y="0">bl</tspan><tspan x="84.62" y="0">e t</tspan><tspan class="a3b684e4-dac7-438a-8179-bd7e8989dac5" x="103.2" y="0">r</tspan><tspan class="ae2fcb42-040d-4a4f-bd20-c549cc9a78fb" x="108.88" y="0">aff</tspan><tspan class="fb852b11-e59f-491a-8a5f-f6d3a4f9056f" x="117.22" y="0">i</tspan><tspan x="131.7" y="0">c </tspan><tspan class="f17012cd-ca2d-467b-bfdb-8b8d070a7cdb" x="144.14" y="0">r</tspan><tspan class="fb852b11-e59f-491a-8a5f-f6d3a4f9056f" x="149.66" y="0">o</tspan><tspan class="f064cb72-4ba8-4d9e-a758-fa976957de67" x="159.12" y="0">u</tspan><tspan class="b59dd662-92db-4f92-ac91-b3aee2308048" x="168.18" y="0">t</tspan><tspan class="f064cb72-4ba8-4d9e-a758-fa976957de67" x="173.68" y="0">e</tspan><tspan x="182.77" y="0">s</tspan></text><rect class="a087eccb-a85c-4a35-92ef-24d4e7c8ea5a" x="277.25" y="46.86" width="197.65" height="198.14" rx="3"/><rect class="a1704f99-7e08-4036-a34c-8c8e6892479b" x="285.9" y="55.86" width="54" height="54" rx="3"/><polygon class="b23a2369-83aa-4e0a-927e-486487188ad7" points="326.16 90.51 326.16 75.21 312.9 67.56 299.64 75.21 299.64 90.51 312.9 98.16 326.16 90.51"/><rect class="a1704f99-7e08-4036-a34c-8c8e6892479b" x="348.9" y="55.86" width="117" height="54" rx="3"/><text class="ae88a2fc-4cd3-4037-90d9-440ddb52ffd2" transform="translate(402.34 87.7)">s<tspan class="f1df9d1d-d467-47e8-a911-d5ae6a1e08c9" x="6.62" y="0">v</tspan><tspan class="acb17813-62e9-4e21-a11c-80f1d52fb545" x="13.61" y="0">c</tspan><tspan class="bbf0ceb9-fa6f-47f6-ab5d-6895211d220f" x="21.25" y="0">-</tspan><tspan x="27.15" y="0">W v1</tspan></text><circle class="f4a5240f-8f93-48aa-b8ee-453e63c7f5e9" cx="375.9" cy="82.86" r="18"/><rect class="b4b5c9de-9baa-4b1e-8753-3c413c6f8cad" x="369.51" y="76.34" width="12.79" height="12.79"/><line class="f88662de-4890-43d8-8e84-b742977372e7" x1="371.87" y1="76.34" x2="371.87" y2="73.27"/><line class="f88662de-4890-43d8-8e84-b742977372e7" x1="375.9" y1="76.34" x2="375.9" y2="73.27"/><line class="f88662de-4890-43d8-8e84-b742977372e7" x1="379.93" y1="76.34" x2="379.93" y2="73.27"/><line class="f88662de-4890-43d8-8e84-b742977372e7" x1="371.87" y1="92.45" x2="371.87" y2="89.37"/><line class="f88662de-4890-43d8-8e84-b742977372e7" x1="375.9" y1="92.45" x2="375.9" y2="89.37"/><line class="f88662de-4890-43d8-8e84-b742977372e7" x1="379.93" y1="92.45" x2="379.93" y2="89.37"/><line class="f88662de-4890-43d8-8e84-b742977372e7" x1="369.39" y1="86.88" x2="366.31" y2="86.88"/><line class="f88662de-4890-43d8-8e84-b742977372e7" x1="369.39" y1="82.86" x2="366.31" y2="82.86"/><line class="f88662de-4890-43d8-8e84-b742977372e7" x1="369.39" y1="78.83" x2="366.31" y2="78.83"/><line class="f88662de-4890-43d8-8e84-b742977372e7" x1="385.49" y1="86.88" x2="382.41" y2="86.88"/><line class="f88662de-4890-43d8-8e84-b742977372e7" x1="385.49" y1="82.86" x2="382.41" y2="82.86"/><line class="f88662de-4890-43d8-8e84-b742977372e7" x1="385.49" y1="78.83" x2="382.41" y2="78.83"/><rect class="a1704f99-7e08-4036-a34c-8c8e6892479b" x="373.06" y="79.9" width="5.68" height="5.68" rx="2"/><rect class="a1704f99-7e08-4036-a34c-8c8e6892479b" x="285.9" y="118.86" width="54" height="54" rx="3"/><polygon class="b23a2369-83aa-4e0a-927e-486487188ad7" points="326.16 153.51 326.16 138.21 312.9 130.56 299.64 138.21 299.64 153.51 312.9 161.16 326.16 153.51"/><rect class="a1704f99-7e08-4036-a34c-8c8e6892479b" x="348.9" y="118.86" width="117" height="54" rx="3"/><text class="ae88a2fc-4cd3-4037-90d9-440ddb52ffd2" transform="translate(401.32 150.7)">s<tspan class="f1df9d1d-d467-47e8-a911-d5ae6a1e08c9" x="6.62" y="0">v</tspan><tspan class="acb17813-62e9-4e21-a11c-80f1d52fb545" x="13.61" y="0">c</tspan><tspan class="bbf0ceb9-fa6f-47f6-ab5d-6895211d220f" x="21.25" y="0">-</tspan><tspan x="27.15" y="0">W v2</tspan></text><circle class="f4a5240f-8f93-48aa-b8ee-453e63c7f5e9" cx="375.9" cy="145.86" r="18"/><rect class="b4b5c9de-9baa-4b1e-8753-3c413c6f8cad" x="369.51" y="139.34" width="12.79" height="12.79"/><line class="f88662de-4890-43d8-8e84-b742977372e7" x1="371.87" y1="139.34" x2="371.87" y2="136.27"/><line class="f88662de-4890-43d8-8e84-b742977372e7" x1="375.9" y1="139.34" x2="375.9" y2="136.27"/><line class="f88662de-4890-43d8-8e84-b742977372e7" x1="379.93" y1="139.34" x2="379.93" y2="136.27"/><line class="f88662de-4890-43d8-8e84-b742977372e7" x1="371.87" y1="155.45" x2="371.87" y2="152.37"/><line class="f88662de-4890-43d8-8e84-b742977372e7" x1="375.9" y1="155.45" x2="375.9" y2="152.37"/><line class="f88662de-4890-43d8-8e84-b742977372e7" x1="379.93" y1="155.45" x2="379.93" y2="152.37"/><line class="f88662de-4890-43d8-8e84-b742977372e7" x1="369.39" y1="149.88" x2="366.31" y2="149.88"/><line class="f88662de-4890-43d8-8e84-b742977372e7" x1="369.39" y1="145.86" x2="366.31" y2="145.86"/><line class="f88662de-4890-43d8-8e84-b742977372e7" x1="369.39" y1="141.83" x2="366.31" y2="141.83"/><line class="f88662de-4890-43d8-8e84-b742977372e7" x1="385.49" y1="149.88" x2="382.41" y2="149.88"/><line class="f88662de-4890-43d8-8e84-b742977372e7" x1="385.49" y1="145.86" x2="382.41" y2="145.86"/><line class="f88662de-4890-43d8-8e84-b742977372e7" x1="385.49" y1="141.83" x2="382.41" y2="141.83"/><rect class="a1704f99-7e08-4036-a34c-8c8e6892479b" x="373.06" y="142.9" width="5.68" height="5.68" rx="2"/><rect class="a1704f99-7e08-4036-a34c-8c8e6892479b" x="285.9" y="181.86" width="54" height="54" rx="3"/><polygon class="b23a2369-83aa-4e0a-927e-486487188ad7" points="326.16 216.51 326.16 201.21 312.9 193.56 299.64 201.21 299.64 216.51 312.9 224.16 326.16 216.51"/><rect class="a1704f99-7e08-4036-a34c-8c8e6892479b" x="348.9" y="181.86" width="117" height="54" rx="3"/><text class="ae88a2fc-4cd3-4037-90d9-440ddb52ffd2" transform="translate(401.25 213.7)">s<tspan class="f1df9d1d-d467-47e8-a911-d5ae6a1e08c9" x="6.62" y="0">v</tspan><tspan class="acb17813-62e9-4e21-a11c-80f1d52fb545" x="13.61" y="0">c</tspan><tspan class="bbf0ceb9-fa6f-47f6-ab5d-6895211d220f" x="21.25" y="0">-</tspan><tspan x="27.15" y="0">W v3</tspan></text><circle class="f4a5240f-8f93-48aa-b8ee-453e63c7f5e9" cx="375.9" cy="208.86" r="18"/><rect class="b4b5c9de-9baa-4b1e-8753-3c413c6f8cad" x="369.51" y="202.34" width="12.79" height="12.79"/><line class="f88662de-4890-43d8-8e84-b742977372e7" x1="371.87" y1="202.34" x2="371.87" y2="199.27"/><line class="f88662de-4890-43d8-8e84-b742977372e7" x1="375.9" y1="202.34" x2="375.9" y2="199.27"/><line class="f88662de-4890-43d8-8e84-b742977372e7" x1="379.93" y1="202.34" x2="379.93" y2="199.27"/><line class="f88662de-4890-43d8-8e84-b742977372e7" x1="371.87" y1="218.45" x2="371.87" y2="215.37"/><line class="f88662de-4890-43d8-8e84-b742977372e7" x1="375.9" y1="218.45" x2="375.9" y2="215.37"/><line class="f88662de-4890-43d8-8e84-b742977372e7" x1="379.93" y1="218.45" x2="379.93" y2="215.37"/><line class="f88662de-4890-43d8-8e84-b742977372e7" x1="369.39" y1="212.88" x2="366.31" y2="212.88"/><line class="f88662de-4890-43d8-8e84-b742977372e7" x1="369.39" y1="208.86" x2="366.31" y2="208.86"/><line class="f88662de-4890-43d8-8e84-b742977372e7" x1="369.39" y1="204.83" x2="366.31" y2="204.83"/><line class="f88662de-4890-43d8-8e84-b742977372e7" x1="385.49" y1="212.88" x2="382.41" y2="212.88"/><line class="f88662de-4890-43d8-8e84-b742977372e7" x1="385.49" y1="208.86" x2="382.41" y2="208.86"/><line class="f88662de-4890-43d8-8e84-b742977372e7" x1="385.49" y1="204.83" x2="382.41" y2="204.83"/><rect class="a1704f99-7e08-4036-a34c-8c8e6892479b" x="373.06" y="205.9" width="5.68" height="5.68" rx="2"/><line class="badbbd8a-5869-4aa5-b30c-07c50a7eabb8" x1="31" y1="83" x2="34" y2="83"/><line class="b85df70a-b8dc-4959-bd3d-26a194e22742" x1="46.14" y1="83" x2="276.83" y2="83"/><line class="badbbd8a-5869-4aa5-b30c-07c50a7eabb8" x1="282.9" y1="83" x2="285.9" y2="83"/><line class="badbbd8a-5869-4aa5-b30c-07c50a7eabb8" x1="204.9" y1="146" x2="207.9" y2="146"/><line class="b86808bd-1b40-4d71-a6fa-e4f38204f6c6" x1="218.61" y1="146" x2="277.54" y2="146"/><line class="badbbd8a-5869-4aa5-b30c-07c50a7eabb8" x1="282.9" y1="146" x2="285.9" y2="146"/><line class="badbbd8a-5869-4aa5-b30c-07c50a7eabb8" x1="285.9" y1="209" x2="282.9" y2="209"/><line class="b86808bd-1b40-4d71-a6fa-e4f38204f6c6" x1="272.19" y1="209" x2="213.26" y2="209"/><polyline class="badbbd8a-5869-4aa5-b30c-07c50a7eabb8" points="207.9 209 204.9 209 204.9 206"/><line class="fc13b10c-4ca8-4433-8935-ef07f914462f" x1="204.9" y1="194" x2="204.9" y2="92"/><line class="badbbd8a-5869-4aa5-b30c-07c50a7eabb8" x1="204.9" y1="86" x2="204.9" y2="83"/></g></svg>