<svg xmlns="http://www.w3.org/2000/svg" width="390" height="373"><g><title>Layer 1</title><g id="Layer_x0020_1"><path id="path10" fill="#000" stroke-width="0" d="m67.164558,130.0056l31.776917,0l4.885239,171.014328l-40.937836,0.00116l4.275681,-171.016083l0,0.000595zm-29.948761,177.162003l315.327385,0l0,22.00351l18.893341,0l-0.001129,22.00354l18.322998,0l0,22.001221l-389.758392,-0.00174l0,-21.999481l18.323006,0l0,-22.00354l18.892212,0l0,-22.00351l0.00058,0zm331.772636,-224.911293l-174.112427,-82.25631l-174.115273,82.25631l0.001144,13.447571l348.225975,0.001144l0,-13.448715l0.00058,0zm-314.660698,19.600403l281.104668,0l0,21.999496l-281.104668,0l0,-21.999496zm235.877312,28.148888l31.776886,0l4.886414,171.016068l-40.937256,-0.00174l4.273956,-171.014328zm-74.346817,0l31.776901,0.001144l4.886383,171.013184l-40.938995,0.00116l4.275711,-171.016083l0,0.000595zm-74.346848,0l31.775757,-0.001755l4.888748,171.016083l-40.94017,0l4.275665,-171.014328z" class="fil0"/></g></g></svg>