<svg viewBox="0 0 480 336" fill="none" stroke-linecap="square" stroke-miterlimit="10" xmlns:xlink="http://www.w3.org/1999/xlink" xmlns="http://www.w3.org/2000/svg"><clipPath id="a"><path d="M0 0h480v336H0V0z"/></clipPath><g clip-path="url(#a)"><path fill="#000" fill-opacity="0" d="M0 0h480v336H0z" fill-rule="evenodd"/><g filter="url(#b)"><use xlink:href="#c" transform="translate(.455 -.488)"/></g><defs><filter id="b" filterUnits="userSpaceOnUse"><feGaussianBlur in="SourceAlpha" stdDeviation=".667" result="blur"/><feComponentTransfer in="blur" color-interpolation-filters="sRGB"><feFuncR type="linear" slope="0"/><feFuncG type="linear" slope="0"/><feFuncB type="linear" slope="0"/><feFuncA type="linear" slope=".447"/></feComponentTransfer></filter></defs><g id="c"><path fill="#fff" d="M197.706 36.13c0-.24.195-.434.434-.434h157.525a.434.434 0 0 1 .435.434v25.084c0 .24-.195.434-.435.434H198.14a.434.434 0 0 1-.434-.434z" fill-rule="evenodd"/><path fill="#212121" d="M209.727 53.472v-9.469h3.11q1.53 0 2.312.64.781.626.781 1.876 0 .672-.375 1.187-.375.5-1.031.782.766.218 1.203.828.453.593.453 1.422 0 1.28-.828 2.015-.828.719-2.328.719h-3.297zm1.25-4.438v3.422h2.063q.875 0 1.375-.453.515-.453.515-1.25 0-1.719-1.86-1.719h-2.093zm0-1h1.89q.829 0 1.313-.406.5-.406.5-1.11 0-.78-.469-1.14-.453-.36-1.375-.36h-1.859v3.016zm8.173 5.438h-1.204v-10h1.204v10zm6.28-.703q-.702.828-2.062.828-1.14 0-1.734-.64-.578-.657-.578-1.938v-4.594h1.203v4.547q0 1.61 1.297 1.61 1.375 0 1.828-1.032v-5.125h1.219v7.047h-1.156l-.016-.703zm5.91.828q-1.421 0-2.327-.938-.891-.937-.891-2.515v-.219q0-1.047.39-1.86.407-.827 1.126-1.296.718-.469 1.562-.469 1.375 0 2.125.906.766.907.766 2.594v.5h-4.766q.016 1.031.594 1.672.594.64 1.484.64.64 0 1.078-.25.454-.265.782-.687l.734.563q-.875 1.359-2.656 1.359zm-.14-6.313q-.734 0-1.234.532-.485.53-.61 1.484h3.532v-.078q-.047-.922-.5-1.422-.438-.516-1.188-.516zm5.42-.859l.032.781q.765-.906 2.094-.906 1.468 0 2 1.125.359-.5.921-.812.563-.313 1.329-.313 2.312 0 2.359 2.453v4.719h-1.203v-4.64q0-.766-.344-1.141t-1.172-.375q-.656 0-1.11.406-.437.406-.515 1.078v4.672h-1.203v-4.61q0-1.546-1.5-1.546-1.187 0-1.625 1.015v5.14h-1.203v-7.046h1.14zm11.854 7.047h-1.203v-7.047h1.203v7.047zm-1.297-8.906q0-.297.172-.5.188-.203.531-.203.36 0 .532.203.187.203.187.5t-.187.5q-.172.187-.532.187-.343 0-.53-.187-.173-.203-.173-.5zm5.594 4.437l1.547-2.578h1.406l-2.297 3.484 2.375 3.563h-1.39l-1.625-2.64-1.625 2.64h-1.407l2.375-3.563-2.296-3.484h1.39l1.547 2.578z"/></g><g filter="url(#d)"><use xlink:href="#e" transform="translate(.455 -.488)"/></g><defs><filter id="d" filterUnits="userSpaceOnUse"><feGaussianBlur in="SourceAlpha" stdDeviation=".667" result="blur"/><feComponentTransfer in="blur" color-interpolation-filters="sRGB"><feFuncR type="linear" slope="0"/><feFuncG type="linear" slope="0"/><feFuncB type="linear" slope="0"/><feFuncA type="linear" slope=".447"/></feComponentTransfer></filter></defs><g id="e"><path fill="#fff" d="M197.706 68.13c0-.24.195-.434.434-.434h157.525a.434.434 0 0 1 .435.434v25.084c0 .24-.195.434-.435.434H198.14a.434.434 0 0 1-.434-.434z" fill-rule="evenodd"/><path fill="#212121" d="M212.524 81.253q-1.61-.469-2.344-1.14-.734-.672-.734-1.657 0-1.125.89-1.86.907-.733 2.344-.733.969 0 1.735.39.765.375 1.187 1.047.422.656.422 1.438h-1.266q0-.86-.547-1.344-.546-.5-1.53-.5-.923 0-1.454.406-.516.406-.516 1.125 0 .578.485.984.5.407 1.672.735 1.187.328 1.859.734.672.39.984.938.329.53.329 1.25 0 1.156-.907 1.843-.89.688-2.39.688-.985 0-1.828-.375-.844-.375-1.313-1.016-.453-.656-.453-1.484h1.266q0 .86.625 1.36.64.5 1.703.5.984 0 1.515-.407.532-.406.532-1.094 0-.703-.5-1.078-.485-.39-1.766-.75zm6.563-4.531v1.703h1.313v.938h-1.313v4.359q0 .422.172.64.172.22.594.22.219 0 .578-.079v.969q-.469.125-.922.125-.812 0-1.219-.484-.406-.485-.406-1.391v-4.36h-1.281v-.937h1.281v-1.703h1.203zm7.073 8.75q-.11-.203-.172-.734-.844.859-2.016.859-1.031 0-1.703-.578-.672-.594-.672-1.5 0-1.094.828-1.703.844-.61 2.36-.61h1.172v-.562q0-.625-.375-1t-1.11-.375q-.64 0-1.078.328-.437.328-.437.781h-1.203q0-.515.359-1 .375-.5 1.016-.781.656-.297 1.421-.297 1.22 0 1.907.61.687.609.718 1.671v3.25q0 .969.235 1.532v.109h-1.25zm-2-.922q.562 0 1.062-.281.516-.297.735-.766V82.05h-.938q-2.219 0-2.219 1.297 0 .562.375.89.391.313.985.313zm7.718.063q.64 0 1.125-.391.485-.39.532-.969h1.14q-.031.61-.422 1.156-.375.547-1.015.875-.641.313-1.36.313-1.437 0-2.297-.953-.843-.969-.843-2.625v-.203q0-1.032.375-1.828.39-.797 1.093-1.235.704-.453 1.672-.453 1.172 0 1.953.719.797.703.844 1.828h-1.14q-.047-.672-.516-1.11-.469-.453-1.14-.453-.923 0-1.438.672-.5.657-.5 1.907v.218q0 1.219.5 1.875.515.657 1.437.657zm6.117-2.407l-.75.797v2.469h-1.203v-10h1.203v6.047l.641-.766 2.187-2.328h1.47l-2.735 2.953 3.047 4.094h-1.407l-2.453-3.266zm4.506-.312q0-1.625.765-2.61.766-.984 2-.984 1.25 0 1.969.844v-3.672h1.203v10h-1.11l-.062-.75q-.719.875-2 .875-1.234 0-2-1-.765-1-.765-2.61v-.093zm1.203.14q0 1.188.484 1.875.5.672 1.375.672 1.14 0 1.672-1.031v-3.234q-.547-1-1.656-1-.891 0-1.391.687-.484.688-.484 2.031zm10-2.53q-.265-.032-.593-.032-1.188 0-1.61 1v5h-1.203v-7.047h1.172l.031.813q.579-.938 1.672-.938.344 0 .532.094v1.11zm2.417 5.968h-1.203v-7.047h1.203v7.047zm-1.297-8.906q0-.297.172-.5.187-.203.531-.203.36 0 .531.203.188.203.188.5t-.188.5q-.172.187-.53.187-.345 0-.532-.187-.172-.203-.172-.5zm5.547 7.265l1.75-5.406h1.219l-2.516 7.047h-.922l-2.547-7.047h1.219l1.797 5.406zm7.05 1.766q-1.422 0-2.329-.938-.89-.937-.89-2.515v-.219q0-1.047.39-1.86.407-.827 1.125-1.296.72-.469 1.563-.469 1.375 0 2.125.906.765.907.765 2.594v.5h-4.765q.015 1.031.594 1.672.593.64 1.484.64.64 0 1.078-.25.453-.265.781-.687l.735.563q-.875 1.359-2.657 1.359zm-.141-6.313q-.735 0-1.235.532-.484.53-.609 1.484h3.531v-.078q-.047-.922-.5-1.422-.437-.516-1.187-.516zm7.686.22q-.266-.032-.594-.032-1.187 0-1.61 1v5h-1.202v-7.047h1.172l.03.813q.579-.938 1.673-.938.343 0 .53.094v1.11z"/></g><g filter="url(#f)"><use xlink:href="#g" transform="translate(.455 -.488)"/></g><defs><filter id="f" filterUnits="userSpaceOnUse"><feGaussianBlur in="SourceAlpha" stdDeviation=".667" result="blur"/><feComponentTransfer in="blur" color-interpolation-filters="sRGB"><feFuncR type="linear" slope="0"/><feFuncG type="linear" slope="0"/><feFuncB type="linear" slope="0"/><feFuncA type="linear" slope=".447"/></feComponentTransfer></filter></defs><g id="g"><path fill="#fff" d="M197.706 100.13c0-.24.195-.434.434-.434h157.525a.434.434 0 0 1 .435.434v25.084c0 .24-.195.434-.435.434H198.14a.434.434 0 0 1-.434-.434z" fill-rule="evenodd"/><path fill="#212121" d="M214.961 115.003h-3.968l-.891 2.469h-1.281l3.61-9.469h1.093l3.625 9.469h-1.281l-.907-2.469zm-3.593-1.031h3.234l-1.625-4.438-1.61 4.438zm9.1.516l.188 1.25.266-1.125 1.875-6.61h1.046l1.829 6.61.265 1.14.203-1.281 1.47-6.469h1.25l-2.298 9.469h-1.125l-1.953-6.906-.156-.72-.156.72-2.016 6.906h-1.14l-2.298-9.469h1.25l1.5 6.485zm12.575-1.235q-1.61-.469-2.344-1.14-.734-.672-.734-1.657 0-1.125.89-1.86.907-.733 2.344-.733.97 0 1.735.39.765.375 1.187 1.047.422.656.422 1.438h-1.265q0-.86-.547-1.344-.547-.5-1.532-.5-.921 0-1.453.406-.515.406-.515 1.125 0 .578.484.984.5.407 1.672.735 1.187.328 1.86.734.671.39.984.938.328.53.328 1.25 0 1.156-.906 1.843-.891.688-2.391.688-.984 0-1.828-.375-.844-.375-1.313-1.016-.453-.656-.453-1.484h1.266q0 .86.625 1.36.64.5 1.703.5.984 0 1.516-.407.53-.406.53-1.094 0-.703-.5-1.078-.484-.39-1.765-.75z"/></g><g filter="url(#h)"><use xlink:href="#i" transform="translate(.455 -.488)"/></g><defs><filter id="h" filterUnits="userSpaceOnUse"><feGaussianBlur in="SourceAlpha" stdDeviation=".667" result="blur"/><feComponentTransfer in="blur" color-interpolation-filters="sRGB"><feFuncR type="linear" slope="0"/><feFuncG type="linear" slope="0"/><feFuncB type="linear" slope="0"/><feFuncA type="linear" slope=".447"/></feComponentTransfer></filter></defs><g id="i"><path fill="#fff" d="M197.706 132.13c0-.24.195-.434.434-.434h157.525a.434.434 0 0 1 .435.434v25.084c0 .24-.195.434-.435.434H198.14a.434.434 0 0 1-.434-.434z" fill-rule="evenodd"/><path fill="#212121" d="M210.977 145.769v3.703h-1.25v-9.469h3.5q1.563 0 2.438.797.875.781.875 2.094 0 1.375-.86 2.125t-2.469.75h-2.234zm0-1.031h2.25q1 0 1.531-.47.547-.468.547-1.359 0-.843-.547-1.343-.531-.516-1.453-.547h-2.328v3.719zm10.377-1.235q-.266-.031-.594-.031-1.187 0-1.61 1v5h-1.202v-7.047h1.172l.03.813q.579-.938 1.673-.938.343 0 .531.094v1.11zm.791 2.39q0-1.046.406-1.874.407-.828 1.125-1.266.735-.453 1.657-.453 1.437 0 2.328 1 .89.984.89 2.64v.094q0 1.016-.39 1.844-.39.813-1.125 1.266-.735.453-1.688.453-1.422 0-2.312-.984-.89-1-.89-2.641v-.078zm1.203.141q0 1.172.547 1.875.547.704 1.453.704.922 0 1.453-.72.547-.718.547-2 0-1.171-.547-1.89-.546-.719-1.468-.719-.89 0-1.438.72-.547.702-.547 2.03zm7.851-3.609l.032.781q.765-.906 2.093-.906 1.47 0 2 1.125.36-.5.922-.812.563-.313 1.328-.313 2.313 0 2.36 2.453v4.719h-1.203v-4.64q0-.766-.344-1.141t-1.172-.375q-.656 0-1.11.406-.437.406-.515 1.078v4.672h-1.203v-4.61q0-1.546-1.5-1.546-1.188 0-1.625 1.015v5.14h-1.203v-7.046h1.14zm13.463 7.172q-1.421 0-2.328-.938-.89-.937-.89-2.515v-.219q0-1.047.39-1.86.407-.827 1.125-1.296.719-.469 1.563-.469 1.375 0 2.125.906.765.907.765 2.594v.5h-4.765q.015 1.031.594 1.672.593.64 1.484.64.64 0 1.078-.25.453-.265.781-.687l.735.563q-.875 1.359-2.657 1.359zm-.14-6.313q-.735 0-1.235.532-.484.53-.609 1.484h3.531v-.078q-.047-.922-.5-1.422-.437-.516-1.187-.516zm5.92-2.562v1.703h1.313v.938h-1.313v4.359q0 .422.172.64.172.22.594.22.219 0 .578-.079v.969q-.469.125-.922.125-.812 0-1.219-.484-.406-.485-.406-1.391v-4.36h-1.281v-.937h1.281v-1.703h1.203zm3.916 2.562q.813-.984 2.094-.984 2.235 0 2.25 2.516v4.656H257.5v-4.656q-.016-.766-.36-1.125-.327-.375-1.062-.375-.578 0-1.031.312-.438.313-.688.828v5.016h-1.203v-10h1.203v3.812zm9.06 6.313q-1.422 0-2.328-.938-.89-.937-.89-2.515v-.219q0-1.047.39-1.86.406-.827 1.125-1.296.719-.469 1.562-.469 1.375 0 2.125.906.766.907.766 2.594v.5h-4.766q.016 1.031.594 1.672.594.64 1.485.64.64 0 1.078-.25.453-.265.781-.687l.734.563q-.875 1.359-2.656 1.359zm-.14-6.313q-.735 0-1.235.532-.484.53-.61 1.484h3.532v-.078q-.047-.922-.5-1.422-.438-.516-1.188-.516zm8.639 5.485q-.703.828-2.063.828-1.14 0-1.734-.64-.578-.657-.578-1.938v-4.594h1.203v4.547q0 1.61 1.297 1.61 1.375 0 1.828-1.032v-5.125h1.219v7.047h-1.157l-.015-.703zm7.097-1.172q0-.484-.375-.75-.36-.266-1.281-.453-.906-.203-1.453-.469-.532-.281-.797-.656-.25-.39-.25-.906 0-.86.734-1.454.735-.609 1.875-.609 1.188 0 1.938.625.75.61.75 1.578h-1.22q0-.5-.421-.86-.422-.359-1.047-.359-.656 0-1.031.297-.375.282-.375.75 0 .422.344.657.343.218 1.25.421.906.204 1.453.485.562.265.828.672.281.39.281.953 0 .937-.765 1.515-.75.563-1.954.563-.843 0-1.5-.297-.64-.297-1.015-.828-.36-.547-.36-1.172h1.204q.03.61.484.969.453.344 1.187.344.688 0 1.094-.266.422-.281.422-.75z"/></g><g filter="url(#j)"><use xlink:href="#k" transform="translate(.455 -.488)"/></g><defs><filter id="j" filterUnits="userSpaceOnUse"><feGaussianBlur in="SourceAlpha" stdDeviation=".667" result="blur"/><feComponentTransfer in="blur" color-interpolation-filters="sRGB"><feFuncR type="linear" slope="0"/><feFuncG type="linear" slope="0"/><feFuncB type="linear" slope="0"/><feFuncA type="linear" slope=".447"/></feComponentTransfer></filter></defs><g id="k"><path fill="#fff" d="M197.706 164.13c0-.24.195-.434.434-.434h157.525a.434.434 0 0 1 .435.434v25.084c0 .24-.195.434-.435.434H198.14a.434.434 0 0 1-.434-.434z" fill-rule="evenodd"/><path fill="#212121" d="M217.008 181.472h-1.25v-4.375h-4.781v4.375h-1.25v-9.469h1.25v4.063h4.781v-4.063h1.25v9.469zm4.955.125q-1.422 0-2.328-.938-.89-.937-.89-2.515v-.219q0-1.047.39-1.86.406-.827 1.125-1.296.719-.469 1.562-.469 1.375 0 2.125.906.766.907.766 2.594v.5h-4.766q.016 1.031.594 1.672.594.64 1.484.64.641 0 1.079-.25.453-.265.78-.687l.735.563q-.875 1.359-2.656 1.359zm-.14-6.313q-.735 0-1.235.532-.484.53-.61 1.484h3.532v-.078q-.047-.922-.5-1.422-.438-.516-1.188-.516zm8.638 6.188q-.109-.203-.171-.734-.844.859-2.016.859-1.031 0-1.703-.578-.672-.594-.672-1.5 0-1.094.828-1.703.844-.61 2.36-.61h1.171v-.562q0-.625-.375-1t-1.109-.375q-.64 0-1.078.328-.438.328-.438.781h-1.203q0-.515.36-1 .375-.5 1.015-.781.656-.297 1.422-.297 1.219 0 1.906.61.688.609.72 1.671v3.25q0 .969.233 1.532v.109h-1.25zm-2-.922q.563 0 1.063-.281.516-.297.734-.766v-1.453h-.937q-2.219 0-2.219 1.297 0 .562.375.89.39.313.984.313zm10.844-2.516q0 1.61-.734 2.594-.735.969-2 .969-1.282 0-2.016-.813v3.391h-1.203v-9.75h1.11l.046.781q.75-.906 2.047-.906 1.266 0 2 .953.75.953.75 2.672v.11zm-1.203-.14q0-1.188-.516-1.875-.5-.703-1.39-.703-1.094 0-1.641.968v3.375q.547.954 1.656.954.875 0 1.375-.672.516-.688.516-2.047zm6.837 1.703q0-.484-.375-.75-.36-.266-1.281-.453-.907-.203-1.454-.469-.53-.281-.796-.656-.25-.39-.25-.906 0-.86.734-1.454.734-.609 1.875-.609 1.187 0 1.937.625.75.61.75 1.578h-1.218q0-.5-.422-.86-.422-.359-1.047-.359-.656 0-1.031.297-.375.282-.375.75 0 .422.343.657.344.218 1.25.421.907.204 1.454.485.562.265.828.672.28.39.28.953 0 .937-.765 1.515-.75.563-1.953.563-.844 0-1.5-.297-.64-.297-1.015-.828-.36-.547-.36-1.172h1.203q.032.61.485.969.453.344 1.187.344.688 0 1.094-.266.422-.281.422-.75zm4.403-6.875v1.703h1.313v.938h-1.313v4.359q0 .422.172.64.172.22.594.22.219 0 .578-.079v.969q-.469.125-.922.125-.812 0-1.219-.484-.406-.485-.406-1.391v-4.36h-1.281v-.937h1.281v-1.703h1.203zm5.635 8.875q-1.421 0-2.328-.938-.89-.937-.89-2.515v-.219q0-1.047.39-1.86.407-.827 1.125-1.296.719-.469 1.563-.469 1.375 0 2.125.906.765.907.765 2.594v.5h-4.765q.015 1.031.594 1.672.593.64 1.484.64.64 0 1.078-.25.453-.265.781-.687l.735.563q-.875 1.359-2.657 1.359zm-.14-6.313q-.735 0-1.235.532-.484.53-.609 1.484h3.531v-.078q-.047-.922-.5-1.422-.437-.516-1.187-.516zm7.686.22q-.266-.032-.594-.032-1.187 0-1.61 1v5h-1.202v-7.047h1.171l.032.813q.578-.938 1.672-.938.343 0 .53.094v1.11z"/></g><g filter="url(#l)"><use xlink:href="#m" transform="translate(.455 -.488)"/></g><defs><filter id="l" filterUnits="userSpaceOnUse"><feGaussianBlur in="SourceAlpha" stdDeviation=".667" result="blur"/><feComponentTransfer in="blur" color-interpolation-filters="sRGB"><feFuncR type="linear" slope="0"/><feFuncG type="linear" slope="0"/><feFuncB type="linear" slope="0"/><feFuncA type="linear" slope=".447"/></feComponentTransfer></filter></defs><g id="m"><path fill="#fff" d="M197.706 195.608c0-.24.195-.434.434-.434h157.525a.435.435 0 0 1 .435.434v25.084c0 .24-.195.435-.435.435H198.14a.434.434 0 0 1-.434-.435z" fill-rule="evenodd"/><path fill="#212121" d="M209.727 212.95v-9.469h2.688q1.234 0 2.171.547.954.547 1.47 1.563.53 1 .53 2.297v.61q0 1.343-.515 2.358-.516 1-1.485 1.547-.953.532-2.234.547h-2.625zm1.25-8.453v7.438h1.313q1.453 0 2.25-.891.812-.906.812-2.578v-.547q0-1.61-.766-2.5-.75-.906-2.14-.922h-1.469zm11.662 8.453q-.11-.203-.172-.734-.844.86-2.016.86-1.03 0-1.703-.579-.672-.594-.672-1.5 0-1.094.829-1.703.843-.61 2.359-.61h1.172v-.562q0-.625-.375-1t-1.11-.375q-.64 0-1.078.328-.437.328-.437.781h-1.203q0-.515.36-1 .374-.5 1.015-.78.656-.298 1.422-.298 1.218 0 1.906.61.687.61.719 1.672v3.25q0 .968.234 1.53v.11h-1.25zm-2-.922q.562 0 1.062-.28.516-.298.735-.767v-1.453h-.938q-2.218 0-2.218 1.297 0 .563.375.89.39.313.984.313zm6.531-7.828v1.703h1.313v.938h-1.313v4.36q0 .421.172.64.172.219.594.219.218 0 .578-.079v.97q-.469.124-.922.124-.813 0-1.219-.484-.406-.485-.406-1.39v-4.36h-1.281v-.938h1.28V204.2h1.204zm7.073 8.75q-.11-.203-.172-.734-.844.86-2.016.86-1.031 0-1.703-.579-.672-.594-.672-1.5 0-1.094.828-1.703.844-.61 2.36-.61h1.171v-.562q0-.625-.375-1t-1.109-.375q-.64 0-1.078.328-.438.328-.438.781h-1.203q0-.515.36-1 .375-.5 1.015-.78.657-.298 1.422-.298 1.219 0 1.906.61.688.61.72 1.672v3.25q0 .968.234 1.53v.11h-1.25zm-2-.922q.562 0 1.062-.28.516-.298.734-.767v-1.453h-.937q-2.219 0-2.219 1.297 0 .563.375.89.39.313.985.313zm4.609-2.656q0-1.625.765-2.61.766-.984 2-.984 1.25 0 1.97.844v-3.672h1.202v10h-1.11l-.062-.75q-.718.875-2 .875-1.234 0-2-1-.765-1-.765-2.61v-.093zm1.203.14q0 1.188.484 1.876.5.672 1.375.672 1.14 0 1.672-1.032v-3.234q-.547-1-1.656-1-.89 0-1.39.687-.485.688-.485 2.032zm6.282-.14q0-1.047.406-1.875.407-.828 1.125-1.266.735-.453 1.657-.453 1.437 0 2.328 1 .89.985.89 2.64v.095q0 1.015-.39 1.843-.391.813-1.125 1.266-.735.453-1.688.453-1.422 0-2.312-.984-.891-1-.891-2.64v-.079zm1.203.14q0 1.173.547 1.876.547.703 1.453.703.922 0 1.453-.719.547-.719.547-2 0-1.172-.547-1.89-.547-.72-1.468-.72-.891 0-1.438.72-.547.703-.547 2.03zm6.43-.14q0-1.64.75-2.61.765-.984 2.03-.984 1.282 0 2.016.907l.047-.782h1.11v6.875q0 1.375-.813 2.157-.812.78-2.187.78-.75 0-1.485-.327-.734-.313-1.11-.875l.626-.735q.765.97 1.89.97.875 0 1.36-.5.5-.5.5-1.392v-.609q-.719.828-1.969.828-1.234 0-2-.984-.766-1-.766-2.719zm1.203.14q0 1.188.484 1.876.5.672 1.375.672 1.14 0 1.672-1.032v-3.218q-.547-1.016-1.656-1.016-.875 0-1.375.687-.5.688-.5 2.032z"/></g><g filter="url(#n)"><use xlink:href="#o" transform="translate(.455 -.488)"/></g><defs><filter id="n" filterUnits="userSpaceOnUse"><feGaussianBlur in="SourceAlpha" stdDeviation=".667" result="blur"/><feComponentTransfer in="blur" color-interpolation-filters="sRGB"><feFuncR type="linear" slope="0"/><feFuncG type="linear" slope="0"/><feFuncB type="linear" slope="0"/><feFuncA type="linear" slope=".447"/></feComponentTransfer></filter></defs><g id="o"><path fill="#fff" d="M197.706 227.608c0-.24.195-.434.434-.434h157.525a.435.435 0 0 1 .435.434v25.084c0 .24-.195.435-.435.435H198.14a.434.434 0 0 1-.434-.435z" fill-rule="evenodd"/><path fill="#212121" d="M212.524 240.731q-1.61-.468-2.344-1.14-.734-.672-.734-1.656 0-1.125.89-1.86.907-.734 2.344-.734.969 0 1.735.39.765.375 1.187 1.047.422.657.422 1.438h-1.266q0-.86-.547-1.344-.546-.5-1.53-.5-.923 0-1.454.406-.516.407-.516 1.125 0 .578.485.985.5.406 1.672.734 1.187.328 1.859.734.672.391.984.938.329.531.329 1.25 0 1.156-.907 1.844-.89.687-2.39.687-.985 0-1.828-.375-.844-.375-1.313-1.015-.453-.657-.453-1.485h1.266q0 .86.625 1.36.64.5 1.703.5.984 0 1.515-.407.532-.406.532-1.093 0-.704-.5-1.079-.485-.39-1.766-.75zm4.61.641q0-1.047.406-1.875.407-.828 1.125-1.266.735-.453 1.657-.453 1.437 0 2.328 1 .89.985.89 2.64v.095q0 1.015-.39 1.843-.39.813-1.125 1.266-.735.453-1.688.453-1.422 0-2.312-.984-.89-1-.89-2.64v-.079zm1.203.14q0 1.173.547 1.876.547.703 1.453.703.922 0 1.453-.719.547-.719.547-2 0-1.172-.547-1.89-.547-.72-1.468-.72-.891 0-1.438.72-.547.703-.547 2.03zm8.023 3.438h-1.203v-10h1.203v10zm6.282 0q-.11-.203-.172-.734-.844.86-2.016.86-1.031 0-1.703-.579-.672-.594-.672-1.5 0-1.094.828-1.703.844-.61 2.36-.61h1.171v-.562q0-.625-.375-1t-1.109-.375q-.64 0-1.078.328-.438.328-.438.781h-1.203q0-.515.36-1 .375-.5 1.015-.78.657-.298 1.422-.298 1.219 0 1.906.61.688.61.72 1.672v3.25q0 .968.234 1.53v.11h-1.25zm-2-.922q.562 0 1.062-.28.516-.298.734-.767v-1.453h-.937q-2.219 0-2.219 1.297 0 .563.375.89.39.313.985.313zm8.296-5.047q-.265-.03-.594-.03-1.187 0-1.609 1v5h-1.203v-7.048h1.172l.031.813q.578-.938 1.672-.938.344 0 .531.094v1.11zm7.338 4.313l1.36-5.39h1.203l-2.047 7.046h-.984l-1.704-5.344-1.671 5.344h-.97l-2.046-7.047h1.203l1.375 5.282 1.64-5.282h.97l1.671 5.39zm5.094 1.656h-1.203v-7.047h1.203v7.047zm-1.297-8.906q0-.297.172-.5.188-.203.531-.203.36 0 .532.203.187.203.187.5t-.187.5q-.172.187-.532.187-.343 0-.53-.187-.173-.203-.173-.5zm4.36 1.86l.047.89q.796-1.016 2.109-1.016 2.234 0 2.25 2.516v4.656h-1.203v-4.656q-.016-.766-.36-1.125-.328-.375-1.062-.375-.578 0-1.031.312-.438.313-.688.829v5.015h-1.203v-7.047h1.14zm5.932 3.468q0-1.625.765-2.61.766-.984 2-.984 1.25 0 1.969.844v-3.672h1.203v10h-1.11l-.062-.75q-.718.875-2 .875-1.234 0-2-1-.765-1-.765-2.61v-.093zm1.203.14q0 1.188.484 1.876.5.672 1.375.672 1.14 0 1.672-1.032v-3.234q-.547-1-1.656-1-.89 0-1.39.687-.485.688-.485 2.032zm10.704 1.563q0-.484-.375-.75-.36-.265-1.281-.453-.907-.203-1.453-.469-.532-.28-.797-.656-.25-.39-.25-.906 0-.86.734-1.453.734-.61 1.875-.61 1.188 0 1.938.625.75.61.75 1.578h-1.22q0-.5-.421-.859-.422-.36-1.047-.36-.656 0-1.031.298-.375.28-.375.75 0 .421.344.656.343.219 1.25.422.906.203 1.453.484.562.266.828.672.281.39.281.953 0 .938-.766 1.516-.75.562-1.953.562-.843 0-1.5-.297-.64-.297-1.015-.828-.36-.547-.36-1.172h1.203q.032.61.485.97.453.343 1.187.343.688 0 1.094-.266.422-.281.422-.75z"/></g><g filter="url(#p)"><use xlink:href="#q" transform="translate(.455 -.488)"/></g><defs><filter id="p" filterUnits="userSpaceOnUse"><feGaussianBlur in="SourceAlpha" stdDeviation=".667" result="blur"/><feComponentTransfer in="blur" color-interpolation-filters="sRGB"><feFuncR type="linear" slope="0"/><feFuncG type="linear" slope="0"/><feFuncB type="linear" slope="0"/><feFuncA type="linear" slope=".447"/></feComponentTransfer></filter></defs><g id="q"><path fill="#fff" d="M197.706 259.608c0-.24.195-.434.434-.434h157.525a.434.434 0 0 1 .435.434v25.084c0 .24-.195.435-.435.435H198.14a.434.434 0 0 1-.434-.435z" fill-rule="evenodd"/><path fill="#212121" d="M209.57 276.325q0-.312.188-.515.188-.22.547-.22.375 0 .563.22.203.203.203.515 0 .297-.203.5-.188.203-.563.203-.36 0-.547-.203-.187-.203-.187-.5zm3.509 0q0-.312.187-.515.188-.22.547-.22.375 0 .562.22.204.203.204.515 0 .297-.204.5-.187.203-.562.203-.36 0-.547-.203-.187-.203-.187-.5zm3.507 0q0-.312.188-.515.187-.22.547-.22.375 0 .562.22.203.203.203.515 0 .297-.203.5-.187.203-.562.203-.36 0-.547-.203-.188-.203-.188-.5z"/></g><g filter="url(#r)"><use xlink:href="#s" transform="translate(0 .667)"/></g><defs><filter id="r" filterUnits="userSpaceOnUse"><feGaussianBlur in="SourceAlpha" stdDeviation=".667" result="blur"/><feComponentTransfer in="blur" color-interpolation-filters="sRGB"><feFuncR type="linear" slope="0"/><feFuncG type="linear" slope="0"/><feFuncB type="linear" slope="0"/><feFuncA type="linear" slope=".447"/></feComponentTransfer></filter></defs><g id="s"><path fill="#ededed" d="M137.226 28.769h66.393v268.094h-66.393z" fill-rule="evenodd"/><path fill="#000" d="M156.618 158.147l3.094 7.72 3.093-7.72h1.625v9.47h-1.25v-3.688l.11-3.985-3.11 7.672h-.953l-3.11-7.656.126 3.969v3.687h-1.25v-9.469h1.625zm11.136 9.47h-1.203v-7.048h1.203v7.047zm-1.297-8.907q0-.297.172-.5.187-.203.531-.203.36 0 .531.203.188.203.188.5t-.188.5q-.171.187-.53.187-.345 0-.532-.187-.172-.203-.172-.5zm5.594 4.437l1.547-2.578h1.406l-2.297 3.485 2.375 3.562h-1.39l-1.626-2.64-1.625 2.64h-1.406l2.375-3.562-2.297-3.485h1.39l1.548 2.578zm7.152 4.594q-1.422 0-2.328-.937-.89-.938-.89-2.516v-.219q0-1.047.39-1.86.406-.827 1.125-1.296.719-.469 1.563-.469 1.375 0 2.125.907.765.906.765 2.593v.5h-4.765q.015 1.032.593 1.672.594.64 1.485.64.64 0 1.078-.25.453-.265.781-.687l.734.563q-.875 1.36-2.656 1.36zm-.14-6.312q-.735 0-1.235.53-.484.532-.61 1.485h3.532v-.078q-.047-.922-.5-1.422-.437-.515-1.187-.515zm7.686.218q-.266-.03-.594-.03-1.188 0-1.61 1v5h-1.203v-7.048h1.172l.031.813q.579-.938 1.672-.938.344 0 .532.094v1.11z"/></g></g></svg>