<?xml version="1.0" encoding="UTF-8" standalone="no"?>
<svg
   fill="none"
   stroke="none"
   stroke-linecap="square"
   stroke-miterlimit="10"
   version="1.1"
   viewBox="0 0 960 720"
   id="svg129"
   sodipodi:docname="arch.svg"
   inkscape:version="1.3 (0e150ed6c4, 2023-07-21)"
   xmlns:inkscape="http://www.inkscape.org/namespaces/inkscape"
   xmlns:sodipodi="http://sodipodi.sourceforge.net/DTD/sodipodi-0.dtd"
   xmlns="http://www.w3.org/2000/svg"
   xmlns:svg="http://www.w3.org/2000/svg">
  <defs
     id="defs129" />
  <sodipodi:namedview
     id="namedview129"
     pagecolor="#ffffff"
     bordercolor="#000000"
     borderopacity="0.25"
     inkscape:showpageshadow="2"
     inkscape:pageopacity="0.0"
     inkscape:pagecheckerboard="0"
     inkscape:deskcolor="#d1d1d1"
     inkscape:zoom="1.1402778"
     inkscape:cx="480.14616"
     inkscape:cy="360"
     inkscape:window-width="1920"
     inkscape:window-height="1017"
     inkscape:window-x="1912"
     inkscape:window-y="-8"
     inkscape:window-maximized="1"
     inkscape:current-layer="svg129" />
  <clipPath
     id="p.0">
    <path
       d="m0 0l960.0 0l0 720.0l-960.0 0l0 -720.0z"
       clip-rule="nonzero"
       id="path1" />
  </clipPath>
  <g
     clip-path="url(#p.0)"
     id="g129">
    <path
       fill="#000"
       fill-opacity="0"
       fill-rule="evenodd"
       d="m0 0l960.0 0l0 720.0l-960.0 0z"
       id="path2" />
    <path
       fill="#000"
       fill-opacity="0"
       fill-rule="evenodd"
       d="m98.30971 191.67905l0 0c0 -51.89261 42.067276 -93.959885 93.959885 -93.959885l559.3873 0c24.919678 0 48.818787 9.899315 66.43964 27.52021c17.62091 17.620903 27.520264 41.519966 27.520264 66.439674l0 375.82828c0 51.89258 -42.06732 93.95984 -93.9599 93.95984l-559.3873 0l0 0c-51.89261 0 -93.959885 -42.06726 -93.959885 -93.95984z"
       id="path3" />
    <path
       fill-rule="evenodd"
       stroke="#464646"
       stroke-linecap="butt"
       stroke-linejoin="round"
       stroke-width="2"
       d="m98.30971 191.67905l0 0c0 -51.89261 42.067276 -93.959885 93.959885 -93.959885l559.3873 0c24.919678 0 48.818787 9.899315 66.43964 27.52021c17.62091 17.620903 27.520264 41.519966 27.520264 66.439674l0 375.82828c0 51.89258 -42.06732 93.95984 -93.9599 93.95984l-559.3873 0l0 0c-51.89261 0 -93.959885 -42.06726 -93.959885 -93.95984z"
       id="path4" />
    <path
       fill="#000"
       fill-opacity="0"
       fill-rule="evenodd"
       d="m42.6168 151.74236l0 0c0 -60.804718 49.29197 -110.09669 110.09669 -110.09669l635.52313 0c29.199463 0 57.203003 11.599442 77.8501 32.246574c20.647156 20.647133 32.246582 48.650658 32.246582 77.85011l0 440.37354c0 60.80475 -49.29193 110.09668 -110.09668 110.09668l-635.52313 0l0 0c-60.804718 0 -110.09669 -49.29193 -110.09669 -110.09668z"
       id="path5" />
    <path
       fill-rule="evenodd"
       stroke="#46f"
       stroke-dasharray="8 6"
       stroke-linecap="butt"
       stroke-linejoin="round"
       stroke-width="2"
       d="m42.6168 151.74236l0 0c0 -60.804718 49.29197 -110.09669 110.09669 -110.09669l635.52313 0c29.199463 0 57.203003 11.599442 77.8501 32.246574c20.647156 20.647133 32.246582 48.650658 32.246582 77.85011l0 440.37354c0 60.80475 -49.29193 110.09668 -110.09668 110.09668l-635.52313 0l0 0c-60.804718 0 -110.09669 -49.29193 -110.09669 -110.09668z"
       id="path6" />
    <path
       fill="#000"
       fill-opacity="0"
       fill-rule="evenodd"
       d="m172.53432 197.98166l0 0c0 -23.448654 19.008896 -42.457535 42.45755 -42.457535l169.82506 0l0 0c11.260468 0 22.059692 4.4731903 30.022034 12.435516c7.9623413 7.9623413 12.435516 18.761581 12.435516 30.022018l0 390.10855c0 23.44867 -19.00888 42.45752 -42.45755 42.45752l-169.82506 0c-23.448654 0 -42.45755 -19.00885 -42.45755 -42.45752z"
       id="path7" />
    <path
       fill-rule="evenodd"
       stroke="#ff6400"
       stroke-linecap="butt"
       stroke-linejoin="round"
       stroke-width="2"
       d="m172.53432 197.98166l0 0c0 -23.448654 19.008896 -42.457535 42.45755 -42.457535l169.82506 0l0 0c11.260468 0 22.059692 4.4731903 30.022034 12.435516c7.9623413 7.9623413 12.435516 18.761581 12.435516 30.022018l0 390.10855c0 23.44867 -19.00888 42.45752 -42.45755 42.45752l-169.82506 0c-23.448654 0 -42.45755 -19.00885 -42.45755 -42.45752z"
       id="path8" />
    <path
       fill="#000"
       fill-opacity="0"
       fill-rule="evenodd"
       d="m43.367455 6.132729l148.8819 0l0 56.377953l-148.8819 0z"
       id="path9" />
    <path
       fill="#000"
       fill-opacity="0"
       fill-rule="evenodd"
       d="m167.69504 120.190155l183.46457 0l0 56.37796l-183.46457 0z"
       id="path11" />
    <path
       fill="#e6e6e6"
       fill-rule="evenodd"
       d="m272.356 189.56194l151.87015 0l0 98.65666l-151.87015 0z"
       id="path13" />
    <path
       fill="#fff"
       fill-rule="evenodd"
       d="m280.08817 200.52501l133.83661 0l0 75.16908l-133.83661 0z"
       id="path14" />
    <path
       fill="#000"
       fill-rule="nonzero"
       d="m314.42416 232.51642l1.53125 0l4.359375 11.453125l-1.5 0l-1.140625 -3.15625l-4.96875 0l-1.140625 3.15625l-1.5 0l4.359375 -11.453125zm2.78125 7.015625l-1.53125 -4.125l-0.453125 -1.234375l-0.0625 0l-0.453125 1.234375l-1.53125 4.125l4.03125 0zm4.626251 -7.015625l3.859375 0q0.953125 0 1.765625 0.4375q0.828125 0.421875 1.3125 1.203125q0.484375 0.765625 0.484375 1.75q0 0.96875 -0.484375 1.75q-0.484375 0.78125 -1.3125 1.21875q-0.8125 0.421875 -1.765625 0.421875l-2.5 0l0 4.671875l-1.359375 0l0 -11.453125zm3.890625 5.484375q0.640625 0 1.125 -0.296875q0.484375 -0.3125 0.75 -0.78125q0.28125 -0.484375 0.28125 -1.015625q0 -0.53125 -0.28125 -1.0q-0.265625 -0.484375 -0.75 -0.78125q-0.484375 -0.3125 -1.125 -0.3125l-2.53125 0l0 4.1875l2.53125 0zm5.325409 -5.484375l1.359375 0l0 11.453125l-1.359375 0l0 -11.453125zm2.6387634 11.453125l0 0zm7.7163696 0.25q-0.875 0 -1.6875 -0.359375q-0.796875 -0.359375 -1.421875 -1.046875q-0.625 -0.703125 -0.890625 -1.6875l1.296875 -0.53125q0.265625 1.015625 1.0 1.671875q0.734375 0.65625 1.734375 0.65625q0.984375 0 1.671875 -0.53125q0.6875 -0.53125 0.6875 -1.46875q0 -0.796875 -0.578125 -1.3125q-0.578125 -0.515625 -1.90625 -0.96875l-0.734375 -0.25q-1.203125 -0.4375 -1.984375 -1.140625q-0.765625 -0.703125 -0.765625 -1.953125q0 -0.8125 0.453125 -1.5q0.453125 -0.703125 1.25 -1.125q0.796875 -0.421875 1.796875 -0.421875q0.984375 0 1.71875 0.375q0.734375 0.375 1.171875 0.90625q0.453125 0.515625 0.625 1.03125l-1.265625 0.546875q-0.171875 -0.59375 -0.75 -1.078125q-0.5625 -0.484375 -1.484375 -0.484375q-0.890625 0 -1.515625 0.5q-0.625 0.5 -0.625 1.25q0 0.671875 0.53125 1.09375q0.53125 0.421875 1.609375 0.796875l0.75 0.25q1.453125 0.53125 2.265625 1.328125q0.8125 0.78125 0.8125 2.140625q0 1.109375 -0.5625 1.859375q-0.5625 0.75 -1.4375 1.109375q-0.859375 0.34375 -1.765625 0.34375zm9.148285 0q-1.171875 0 -2.109375 -0.546875q-0.921875 -0.5625 -1.4375 -1.546875q-0.515625 -0.984375 -0.515625 -2.21875q0 -1.171875 0.484375 -2.171875q0.484375 -1.0 1.390625 -1.59375q0.90625 -0.59375 2.078125 -0.59375q1.203125 0 2.078125 0.546875q0.875 0.53125 1.34375 1.484375q0.484375 0.9375 0.484375 2.15625q0 0.1875 -0.03125 0.40625l-6.46875 0q0.046875 0.9375 0.4375 1.578125q0.40625 0.640625 1.015625 0.96875q0.625 0.3125 1.296875 0.3125q1.59375 0 2.421875 -1.484375l1.140625 0.5625q-0.5 0.984375 -1.421875 1.5625q-0.90625 0.578125 -2.1875 0.578125zm2.34375 -5.1875q-0.03125 -0.515625 -0.28125 -1.03125q-0.25 -0.515625 -0.796875 -0.859375q-0.546875 -0.359375 -1.375 -0.359375q-0.96875 0 -1.640625 0.625q-0.671875 0.609375 -0.875 1.625l4.96875 0zm3.0392456 -3.21875l1.28125 0l0 1.3125l0.078125 0q0.234375 -0.671875 0.921875 -1.109375q0.6875 -0.453125 1.4375 -0.453125q0.5625 0 0.96875 0.171875l0 1.46875q-0.515625 -0.265625 -1.15625 -0.265625q-0.59375 0 -1.09375 0.34375q-0.5 0.328125 -0.796875 0.90625q-0.28125 0.5625 -0.28125 1.21875l0 4.5625l-1.359375 0l0 -8.15625zm5.3657837 0l1.453125 0l2.53125 6.5625l0.03125 0l2.5625 -6.5625l1.421875 0l-3.328125 8.15625l-1.375 0l-3.296875 -8.15625zm12.515259 8.40625q-1.171875 0 -2.109375 -0.546875q-0.921875 -0.5625 -1.4375 -1.546875q-0.515625 -0.984375 -0.515625 -2.21875q0 -1.171875 0.484375 -2.171875q0.484375 -1.0 1.390625 -1.59375q0.90625 -0.59375 2.078125 -0.59375q1.203125 0 2.078125 0.546875q0.875 0.53125 1.34375 1.484375q0.484375 0.9375 0.484375 2.15625q0 0.1875 -0.03125 0.40625l-6.46875 0q0.046875 0.9375 0.4375 1.578125q0.40625 0.640625 1.015625 0.96875q0.625 0.3125 1.296875 0.3125q1.59375 0 2.421875 -1.484375l1.140625 0.5625q-0.5 0.984375 -1.421875 1.5625q-0.90625 0.578125 -2.1875 0.578125zm2.34375 -5.1875q-0.03125 -0.515625 -0.28125 -1.03125q-0.25 -0.515625 -0.796875 -0.859375q-0.546875 -0.359375 -1.375 -0.359375q-0.96875 0 -1.640625 0.625q-0.671875 0.609375 -0.875 1.625l4.96875 0zm3.0392456 -3.21875l1.28125 0l0 1.3125l0.078125 0q0.234375 -0.671875 0.921875 -1.109375q0.6875 -0.453125 1.4375 -0.453125q0.5625 0 0.96875 0.171875l0 1.46875q-0.515625 -0.265625 -1.15625 -0.265625q-0.59375 0 -1.09375 0.34375q-0.5 0.328125 -0.796875 0.90625q-0.28125 0.5625 -0.28125 1.21875l0 4.5625l-1.359375 0l0 -8.15625z"
       id="path15" />
    <path
       fill="#e6e6e6"
       fill-rule="evenodd"
       d="m224.99759 363.6593l-0.67097473 0.079071045l-1.22052 0.532074l-0.87545776 1.0641174l-0.5431671 1.3660889l-0.06390381 0.762146l0 83.57608l0.06390381 0.7621155l0.5431671 1.3660889l0.87545776 1.0641174l1.22052 0.532074l0.67097473 0.079071045l145.1282 0l0.6709595 -0.079071045l1.2141418 -0.532074l0.88183594 -1.0641174l0.5368042 -1.3660889l0.07028198 -0.7621155l0 -83.57608l-0.07028198 -0.762146l-0.5368042 -1.3660889l-0.88183594 -1.0641174l-1.2141418 -0.532074l-0.6709595 -0.079071045z"
       id="path16" />
    <path
       fill="#fff"
       fill-rule="evenodd"
       d="m235.12608 375.0554l-0.7412567 0.079071045l-1.2141418 0.532074l-0.87545776 1.0641174l-0.5431824 1.3660889l0 0.7621155l0 60.783936l0 0.7621155l0.5431824 1.3661194l0.87545776 1.0640869l1.2141418 0.532074l0.7412567 0.071899414l124.935104 0l0.67736816 -0.071899414l1.2141418 -0.532074l0.87545776 -1.0640869l0.54315186 -1.3661194l0.06390381 -0.7621155l0 -60.783936l-0.06390381 -0.7621155l-0.54315186 -1.3660889l-0.87545776 -1.0641174l-1.2141418 -0.532074l-0.67736816 -0.079071045z"
       id="path17" />
    <path
       fill="#466bb0"
       fill-rule="evenodd"
       d="m247.21637 428.85065l11.617401 6.535675l19.311249 -6.535675z"
       id="path18" />
    <path
       fill="#466bb0"
       fill-rule="evenodd"
       d="m258.83377 400.515l-11.617401 26.135529l11.617401 -2.2073364l0 -23.928192z"
       id="path19" />
    <path
       fill="#476baf"
       fill-rule="evenodd"
       d="m260.72528 383.11533l0 41.32788l17.419739 2.2073364l-17.419739 -43.535217z"
       id="path20" />
    <path
       fill="#000"
       fill-opacity="0"
       fill-rule="evenodd"
       d="m268.66104 390.31247l94.77103 0l0 37.870453l-94.77103 0z"
       id="path21" />
    <path
       fill="#000"
       fill-rule="nonzero"
       d="m297.30374 403.65457l1.359375 0l0 11.453125l-1.359375 0l0 -11.453125zm6.4981384 11.703125q-1.3125 0 -2.203125 -0.609375q-0.875 -0.609375 -1.234375 -1.578125l1.203125 -0.546875q0.3125 0.734375 0.90625 1.140625q0.609375 0.40625 1.328125 0.40625q0.765625 0 1.3125 -0.3125q0.546875 -0.3125 0.546875 -0.890625q0 -0.515625 -0.4375 -0.828125q-0.4375 -0.3125 -1.359375 -0.53125l-1.0 -0.265625q-0.96875 -0.234375 -1.59375 -0.8125q-0.625 -0.578125 -0.625 -1.484375q0 -0.703125 0.421875 -1.234375q0.421875 -0.546875 1.125 -0.828125q0.703125 -0.296875 1.53125 -0.296875q1.0625 0 1.90625 0.46875q0.84375 0.46875 1.1875 1.296875l-1.171875 0.546875q-0.546875 -1.09375 -1.9375 -1.09375q-0.671875 0 -1.1875 0.3125q-0.5 0.3125 -0.5 0.796875q0 0.453125 0.34375 0.734375q0.359375 0.265625 1.0625 0.453125l1.1875 0.296875q1.203125 0.3125 1.8125 0.90625q0.609375 0.59375 0.609375 1.46875q0 0.75 -0.4375 1.3125q-0.4375 0.5625 -1.171875 0.875q-0.734375 0.296875 -1.625 0.296875zm7.7692566 -0.125q-0.5 0 -0.921875 -0.15625q-0.421875 -0.15625 -0.703125 -0.4375q-0.640625 -0.609375 -0.640625 -1.671875l0 -4.78125l-1.421875 0l0 -1.234375l1.421875 0l0 -2.3125l1.359375 0l0 2.3125l2.0 0l0 1.234375l-2.0 0l0 4.4375q0 0.671875 0.25 1.0q0.3125 0.34375 0.890625 0.34375q0.484375 0 0.890625 -0.265625l0 1.328125q-0.234375 0.109375 -0.484375 0.15625q-0.25 0.046875 -0.640625 0.046875zm3.6079102 -9.78125q-0.40625 0 -0.703125 -0.28125q-0.28125 -0.296875 -0.28125 -0.703125q0 -0.421875 0.28125 -0.6875q0.296875 -0.28125 0.703125 -0.28125q0.40625 0 0.6875 0.28125q0.28125 0.265625 0.28125 0.6875q0 0.40625 -0.28125 0.703125q-0.28125 0.28125 -0.6875 0.28125zm-0.671875 1.5l1.359375 0l0 8.15625l-1.359375 0l0 -8.15625zm7.1610107 8.40625q-1.203125 0 -2.171875 -0.5625q-0.953125 -0.578125 -1.484375 -1.5625q-0.53125 -1.0 -0.53125 -2.203125q0 -1.203125 0.53125 -2.1875q0.53125 -1.0 1.484375 -1.578125q0.96875 -0.578125 2.171875 -0.578125q1.203125 0 2.15625 0.578125q0.96875 0.578125 1.5 1.578125q0.53125 0.984375 0.53125 2.1875q0 1.203125 -0.53125 2.203125q-0.53125 0.984375 -1.5 1.5625q-0.953125 0.5625 -2.15625 0.5625zm0 -1.21875q0.75 0 1.390625 -0.375q0.65625 -0.390625 1.046875 -1.09375q0.390625 -0.703125 0.390625 -1.640625q0 -0.953125 -0.390625 -1.65625q-0.390625 -0.703125 -1.046875 -1.078125q-0.640625 -0.375 -1.390625 -0.375q-0.75 0 -1.40625 0.375q-0.65625 0.375 -1.046875 1.078125q-0.390625 0.703125 -0.390625 1.65625q0 0.9375 0.390625 1.640625q0.390625 0.703125 1.046875 1.09375q0.65625 0.375 1.40625 0.375zm9.254761 1.21875q-1.109375 0 -2.0 -0.546875q-0.890625 -0.5625 -1.40625 -1.546875q-0.5 -0.984375 -0.5 -2.234375q0 -1.234375 0.5 -2.21875q0.515625 -1.0 1.40625 -1.5625q0.890625 -0.5625 2.0 -0.5625q0.921875 0 1.65625 0.4375q0.734375 0.421875 1.125 1.046875l0.0625 0l-0.0625 -1.140625l0 -3.375l1.359375 0l0 11.453125l-1.296875 0l0 -1.203125l-0.0625 0q-0.390625 0.609375 -1.125 1.03125q-0.734375 0.421875 -1.65625 0.421875zm0.140625 -1.21875q0.71875 0 1.328125 -0.390625q0.625 -0.390625 1.0 -1.09375q0.375 -0.703125 0.375 -1.625q0 -0.9375 -0.375 -1.640625q-0.375 -0.703125 -1.0 -1.078125q-0.609375 -0.390625 -1.328125 -0.390625q-0.703125 0 -1.328125 0.390625q-0.625 0.375 -1.0 1.09375q-0.375 0.71875 -0.375 1.625q0 0.90625 0.375 1.625q0.375 0.703125 1.0 1.09375q0.625 0.390625 1.328125 0.390625z"
       id="path22" />
    <path
       fill="#e6e6e6"
       fill-rule="evenodd"
       d="m226.35641 527.51447l-0.6577301 0.060180664l-1.1964264 0.40496826l-0.85816956 0.8098755l-0.5324402 1.0397949l-0.06265259 0.57458496l0 63.617126l0.06265259 0.5800781l0.5324402 1.0397949l0.85816956 0.8098755l1.1964264 0.40496826l0.6577301 0.054748535l142.25641 0l0.66397095 -0.054748535l1.1901855 -0.40496826l0.927063 -0.8098755l0.4635315 -1.0397949l0.06890869 -0.5800781l0 -63.617126l-0.06890869 -0.57458496l-0.4635315 -1.0397949l-0.927063 -0.8098755l-1.1901855 -0.40496826l-0.66397095 -0.060180664z"
       id="path23" />
    <path
       fill="#fff"
       fill-rule="evenodd"
       d="m234.78023 536.18634l126.047226 0l0 52.06299l-126.047226 0z"
       id="path24" />
    <path
       fill="#000"
       fill-rule="nonzero"
       d="m288.6637 568.3278q-0.875 0 -1.6875 -0.359375q-0.796875 -0.359375 -1.421875 -1.046875q-0.625 -0.703125 -0.890625 -1.6875l1.296875 -0.53125q0.265625 1.015625 1.0 1.671875q0.734375 0.65625 1.734375 0.65625q0.984375 0 1.671875 -0.53125q0.6875 -0.53125 0.6875 -1.46875q0 -0.796875 -0.578125 -1.3125q-0.578125 -0.515625 -1.90625 -0.96875l-0.734375 -0.25q-1.203125 -0.4375 -1.984375 -1.140625q-0.765625 -0.703125 -0.765625 -1.953125q0 -0.8125 0.453125 -1.5q0.453125 -0.703125 1.25 -1.125q0.796875 -0.421875 1.796875 -0.421875q0.984375 0 1.71875 0.375q0.734375 0.375 1.171875 0.90625q0.453125 0.515625 0.625 1.03125l-1.265625 0.546875q-0.171875 -0.59375 -0.75 -1.078125q-0.5625 -0.484375 -1.484375 -0.484375q-0.890625 0 -1.515625 0.5q-0.625 0.5 -0.625 1.25q0 0.671875 0.53125 1.09375q0.53125 0.421875 1.609375 0.796875l0.75 0.25q1.453125 0.53125 2.265625 1.328125q0.8125 0.78125 0.8125 2.140625q0 1.109375 -0.5625 1.859375q-0.5625 0.75 -1.4375 1.109375q-0.859375 0.34375 -1.765625 0.34375zm9.148285 0q-1.171875 0 -2.109375 -0.546875q-0.921875 -0.5625 -1.4375 -1.546875q-0.515625 -0.984375 -0.515625 -2.21875q0 -1.171875 0.484375 -2.171875q0.484375 -1.0 1.390625 -1.59375q0.90625 -0.59375 2.078125 -0.59375q1.203125 0 2.078125 0.546875q0.875 0.53125 1.34375 1.484375q0.484375 0.9375 0.484375 2.15625q0 0.1875 -0.03125 0.40625l-6.46875 0q0.046875 0.9375 0.4375 1.578125q0.40625 0.640625 1.015625 0.96875q0.625 0.3125 1.296875 0.3125q1.59375 0 2.421875 -1.484375l1.140625 0.5625q-0.5 0.984375 -1.421875 1.5625q-0.90625 0.578125 -2.1875 0.578125zm2.34375 -5.1875q-0.03125 -0.515625 -0.28125 -1.03125q-0.25 -0.515625 -0.796875 -0.859375q-0.546875 -0.359375 -1.375 -0.359375q-0.96875 0 -1.640625 0.625q-0.671875 0.609375 -0.875 1.625l4.96875 0zm3.0392456 -3.21875l1.28125 0l0 1.3125l0.078125 0q0.234375 -0.671875 0.921875 -1.109375q0.6875 -0.453125 1.4375 -0.453125q0.5625 0 0.96875 0.171875l0 1.46875q-0.515625 -0.265625 -1.15625 -0.265625q-0.59375 0 -1.09375 0.34375q-0.5 0.328125 -0.796875 0.90625q-0.28125 0.5625 -0.28125 1.21875l0 4.5625l-1.359375 0l0 -8.15625zm5.3657837 0l1.453125 0l2.53125 6.5625l0.03125 0l2.5625 -6.5625l1.421875 0l-3.328125 8.15625l-1.375 0l-3.296875 -8.15625zm9.927124 -1.5q-0.40625 0 -0.703125 -0.28125q-0.28125 -0.296875 -0.28125 -0.703125q0 -0.421875 0.28125 -0.6875q0.296875 -0.28125 0.703125 -0.28125q0.40625 0 0.6875 0.28125q0.28125 0.265625 0.28125 0.6875q0 0.40625 -0.28125 0.703125q-0.28125 0.28125 -0.6875 0.28125zm-0.671875 1.5l1.359375 0l0 8.15625l-1.359375 0l0 -8.15625zm7.0985107 8.40625q-1.1875 0 -2.140625 -0.5625q-0.9375 -0.5625 -1.46875 -1.546875q-0.515625 -0.984375 -0.515625 -2.21875q0 -1.234375 0.515625 -2.21875q0.53125 -1.0 1.46875 -1.5625q0.953125 -0.5625 2.140625 -0.5625q1.328125 0 2.234375 0.625q0.90625 0.609375 1.28125 1.640625l-1.234375 0.515625q-0.296875 -0.765625 -0.90625 -1.15625q-0.59375 -0.390625 -1.4375 -0.390625q-0.71875 0 -1.34375 0.390625q-0.625 0.390625 -1.0 1.109375q-0.375 0.703125 -0.375 1.609375q0 0.90625 0.375 1.609375q0.375 0.703125 1.0 1.109375q0.625 0.390625 1.34375 0.390625q0.859375 0 1.484375 -0.40625q0.625 -0.40625 0.9375 -1.140625l1.203125 0.515625q-0.40625 1.015625 -1.328125 1.640625q-0.921875 0.609375 -2.234375 0.609375zm8.593536 0q-1.171875 0 -2.109375 -0.546875q-0.921875 -0.5625 -1.4375 -1.546875q-0.515625 -0.984375 -0.515625 -2.21875q0 -1.171875 0.484375 -2.171875q0.484375 -1.0 1.390625 -1.59375q0.90625 -0.59375 2.078125 -0.59375q1.203125 0 2.078125 0.546875q0.875 0.53125 1.34375 1.484375q0.484375 0.9375 0.484375 2.15625q0 0.1875 -0.03125 0.40625l-6.46875 0q0.046875 0.9375 0.4375 1.578125q0.40625 0.640625 1.015625 0.96875q0.625 0.3125 1.296875 0.3125q1.59375 0 2.421875 -1.484375l1.140625 0.5625q-0.5 0.984375 -1.421875 1.5625q-0.90625 0.578125 -2.1875 0.578125zm2.34375 -5.1875q-0.03125 -0.515625 -0.28125 -1.03125q-0.25 -0.515625 -0.796875 -0.859375q-0.546875 -0.359375 -1.375 -0.359375q-0.96875 0 -1.640625 0.625q-0.671875 0.609375 -0.875 1.625l4.96875 0zm2.0236206 4.9375l0 0zm7.825775 -11.453125l1.53125 0l4.359375 11.453125l-1.5 0l-1.140625 -3.15625l-4.96875 0l-1.140625 3.15625l-1.5 0l4.359375 -11.453125zm2.78125 7.015625l-1.53125 -4.125l-0.453125 -1.234375l-0.0625 0l-0.453125 1.234375l-1.53125 4.125l4.03125 0z"
       id="path25" />
    <path
       fill="#767576"
       fill-rule="evenodd"
       d="m254.6468 544.86664l-1.9054108 0.054748535l-3.624939 0.6949463l-3.2531433 1.329834l-2.9452515 1.8496704l-2.5153809 2.3695679l-1.963501 2.7800293l-1.4116364 3.0645752l-0.73776245 3.4093018l-0.06390381 1.7949829l0.06390381 1.7949219l0.73776245 3.3491821l1.4116364 3.1247559l1.963501 2.774475l2.5153809 2.375061l2.9452515 1.8496704l3.2531433 1.329834l3.624939 0.6950073l1.9054108 0.0546875l1.8996124 -0.0546875l3.5610046 -0.6950073l3.317047 -1.329834l2.945282 -1.8496704l2.5153809 -2.375061l1.963501 -2.774475l1.4116211 -3.1247559l0.73776245 -3.3491821l0.06390381 -1.7949219l-0.06390381 -1.7949829l-0.73776245 -3.4093018l-1.4116211 -3.0645752l-1.963501 -2.7800293l-2.5153809 -2.3695679l-2.945282 -1.8496704l-3.317047 -1.329834l-3.5610046 -0.6949463l-1.8996124 -0.054748535z"
       id="path26" />
    <path
       fill="#000"
       fill-opacity="0"
       fill-rule="evenodd"
       d="m261.15305 568.22833l-13.076492 0l0 -12.31842l13.076492 0l0 12.31842z"
       id="path27" />
    <path
       fill-rule="evenodd"
       stroke="#fff"
       stroke-linecap="butt"
       stroke-linejoin="round"
       stroke-width=".916"
       d="m261.15305 568.22833l-13.076492 0l0 -12.31842l13.076492 0l0 12.31842z"
       id="path28" />
    <path
       fill="#000"
       fill-opacity="0"
       fill-rule="evenodd"
       d="m250.52802 555.9099l0 -2.949646"
       id="path29" />
    <path
       fill-rule="evenodd"
       stroke="#fff"
       stroke-linecap="round"
       stroke-miterlimit="105.678"
       stroke-width=".916"
       d="m250.52802 555.9099l0 -2.949646"
       id="path30" />
    <path
       fill="#000"
       fill-opacity="0"
       fill-rule="evenodd"
       d="m254.64671 555.9099l0 -2.949646"
       id="path31" />
    <path
       fill-rule="evenodd"
       stroke="#fff"
       stroke-linecap="round"
       stroke-miterlimit="105.678"
       stroke-width=".916"
       d="m254.64671 555.9099l0 -2.949646"
       id="path32" />
    <path
       fill="#000"
       fill-opacity="0"
       fill-rule="evenodd"
       d="m258.7596 555.9099l0 -2.949646"
       id="path33" />
    <path
       fill-rule="evenodd"
       stroke="#fff"
       stroke-linecap="round"
       stroke-miterlimit="105.678"
       stroke-width=".916"
       d="m258.7596 555.9099l0 -2.949646"
       id="path34" />
    <path
       fill="#000"
       fill-opacity="0"
       fill-rule="evenodd"
       d="m250.52802 571.4679l0 -3.0098267"
       id="path35" />
    <path
       fill-rule="evenodd"
       stroke="#fff"
       stroke-linecap="round"
       stroke-miterlimit="105.678"
       stroke-width=".916"
       d="m250.52802 571.4679l0 -3.0098267"
       id="path36" />
    <path
       fill="#000"
       fill-opacity="0"
       fill-rule="evenodd"
       d="m254.64671 571.4679l0 -3.0098267"
       id="path37" />
    <path
       fill-rule="evenodd"
       stroke="#fff"
       stroke-linecap="round"
       stroke-miterlimit="105.678"
       stroke-width=".916"
       d="m254.64671 571.4679l0 -3.0098267"
       id="path38" />
    <path
       fill="#000"
       fill-opacity="0"
       fill-rule="evenodd"
       d="m258.7596 571.4679l0 -3.0098267"
       id="path39" />
    <path
       fill-rule="evenodd"
       stroke="#fff"
       stroke-linecap="round"
       stroke-miterlimit="105.678"
       stroke-width=".916"
       d="m258.7596 571.4679l0 -3.0098267"
       id="path40" />
    <path
       fill="#000"
       fill-opacity="0"
       fill-rule="evenodd"
       d="m247.95457 566.0885l-3.1311493 0"
       id="path41" />
    <path
       fill-rule="evenodd"
       stroke="#fff"
       stroke-linecap="round"
       stroke-miterlimit="105.678"
       stroke-width=".916"
       d="m247.95457 566.0885l-3.1311493 0"
       id="path42" />
    <path
       fill="#000"
       fill-opacity="0"
       fill-rule="evenodd"
       d="m247.95457 562.21405l-3.1311493 0"
       id="path43" />
    <path
       fill-rule="evenodd"
       stroke="#fff"
       stroke-linecap="round"
       stroke-miterlimit="105.678"
       stroke-width=".916"
       d="m247.95457 562.21405l-3.1311493 0"
       id="path44" />
    <path
       fill="#000"
       fill-opacity="0"
       fill-rule="evenodd"
       d="m247.95457 558.3396l-3.1311493 0"
       id="path45" />
    <path
       fill-rule="evenodd"
       stroke="#fff"
       stroke-linecap="round"
       stroke-miterlimit="105.678"
       stroke-width=".916"
       d="m247.95457 558.3396l-3.1311493 0"
       id="path46" />
    <path
       fill="#000"
       fill-opacity="0"
       fill-rule="evenodd"
       d="m264.4642 566.0885l-3.1892395 0"
       id="path47" />
    <path
       fill-rule="evenodd"
       stroke="#fff"
       stroke-linecap="round"
       stroke-miterlimit="105.678"
       stroke-width=".916"
       d="m264.4642 566.0885l-3.1892395 0"
       id="path48" />
    <path
       fill="#000"
       fill-opacity="0"
       fill-rule="evenodd"
       d="m264.4642 562.21405l-3.1892395 0"
       id="path49" />
    <path
       fill-rule="evenodd"
       stroke="#fff"
       stroke-linecap="round"
       stroke-miterlimit="105.678"
       stroke-width=".916"
       d="m264.4642 562.21405l-3.1892395 0"
       id="path50" />
    <path
       fill="#000"
       fill-opacity="0"
       fill-rule="evenodd"
       d="m264.4642 558.3396l-3.1892395 0"
       id="path51" />
    <path
       fill-rule="evenodd"
       stroke="#fff"
       stroke-linecap="round"
       stroke-miterlimit="105.678"
       stroke-width=".916"
       d="m264.4642 558.3396l-3.1892395 0"
       id="path52" />
    <path
       fill="#fff"
       fill-rule="evenodd"
       d="m253.78697 559.32465l-0.42988586 0.054748535l-0.73776245 0.29003906l-0.5518799 0.5198364l-0.3078766 0.6950073l0 0.40496826l0 1.619873l0 0.40496826l0.3078766 0.6949463l0.5518799 0.51989746l0.73776245 0.2845459l2.573471 0l0.7377777 -0.2845459l0.55184937 -0.51989746l0.30789185 -0.6949463l0 -0.40496826l0 -1.619873l0 -0.40496826l-0.30789185 -0.6950073l-0.55184937 -0.5198364l-0.7377777 -0.29003906l-0.42988586 -0.054748535z"
       id="path53" />
    <path
       fill="#000"
       fill-opacity="0"
       fill-rule="evenodd"
       d="m547.9921 197.98166l0 0c0 -23.448654 19.008911 -42.457535 42.45758 -42.457535l169.82507 0l0 0c11.260437 0 22.059692 4.4731903 30.022034 12.435516c7.9622803 7.9623413 12.435486 18.761581 12.435486 30.022018l0 390.10855c0 23.44867 -19.00885 42.45752 -42.45752 42.45752l-169.82507 0c-23.44867 0 -42.45758 -19.00885 -42.45758 -42.45752z"
       id="path54" />
    <path
       fill-rule="evenodd"
       stroke="#ff6400"
       stroke-linecap="butt"
       stroke-linejoin="round"
       stroke-width="2"
       d="m547.9921 197.98166l0 0c0 -23.448654 19.008911 -42.457535 42.45758 -42.457535l169.82507 0l0 0c11.260437 0 22.059692 4.4731903 30.022034 12.435516c7.9622803 7.9623413 12.435486 18.761581 12.435486 30.022018l0 390.10855c0 23.44867 -19.00885 42.45752 -42.45752 42.45752l-169.82507 0c-23.44867 0 -42.45758 -19.00885 -42.45758 -42.45752z"
       id="path55" />
    <path
       fill="#000"
       fill-opacity="0"
       fill-rule="evenodd"
       d="m535.1529 120.190155l183.46454 0l0 56.37796l-183.46454 0z"
       id="path56" />
    <path
       fill="#e6e6e6"
       fill-rule="evenodd"
       d="m550.44763 189.56194l151.87012 0l0 98.65666l-151.87012 0z"
       id="path58" />
    <path
       fill="#fff"
       fill-rule="evenodd"
       d="m558.17975 200.52501l133.83661 0l0 75.16908l-133.83661 0z"
       id="path59" />
    <path
       fill="#000"
       fill-rule="nonzero"
       d="m592.51575 232.51642l1.53125 0l4.359375 11.453125l-1.5 0l-1.140625 -3.15625l-4.96875 0l-1.140625 3.15625l-1.5 0l4.359375 -11.453125zm2.78125 7.015625l-1.53125 -4.125l-0.453125 -1.234375l-0.0625 0l-0.453125 1.234375l-1.53125 4.125l4.03125 0zm4.6262817 -7.015625l3.859375 0q0.953125 0 1.765625 0.4375q0.828125 0.421875 1.3125 1.203125q0.484375 0.765625 0.484375 1.75q0 0.96875 -0.484375 1.75q-0.484375 0.78125 -1.3125 1.21875q-0.8125 0.421875 -1.765625 0.421875l-2.5 0l0 4.671875l-1.359375 0l0 -11.453125zm3.890625 5.484375q0.640625 0 1.125 -0.296875q0.484375 -0.3125 0.75 -0.78125q0.28125 -0.484375 0.28125 -1.015625q0 -0.53125 -0.28125 -1.0q-0.265625 -0.484375 -0.75 -0.78125q-0.484375 -0.3125 -1.125 -0.3125l-2.53125 0l0 4.1875l2.53125 0zm5.3253784 -5.484375l1.359375 0l0 11.453125l-1.359375 0l0 -11.453125zm2.638794 11.453125l0 0zm7.7163696 0.25q-0.875 0 -1.6875 -0.359375q-0.796875 -0.359375 -1.421875 -1.046875q-0.625 -0.703125 -0.890625 -1.6875l1.296875 -0.53125q0.265625 1.015625 1.0 1.671875q0.734375 0.65625 1.734375 0.65625q0.984375 0 1.671875 -0.53125q0.6875 -0.53125 0.6875 -1.46875q0 -0.796875 -0.578125 -1.3125q-0.578125 -0.515625 -1.90625 -0.96875l-0.734375 -0.25q-1.203125 -0.4375 -1.984375 -1.140625q-0.765625 -0.703125 -0.765625 -1.953125q0 -0.8125 0.453125 -1.5q0.453125 -0.703125 1.25 -1.125q0.796875 -0.421875 1.796875 -0.421875q0.984375 0 1.71875 0.375q0.734375 0.375 1.171875 0.90625q0.453125 0.515625 0.625 1.03125l-1.265625 0.546875q-0.171875 -0.59375 -0.75 -1.078125q-0.5625 -0.484375 -1.484375 -0.484375q-0.890625 0 -1.515625 0.5q-0.625 0.5 -0.625 1.25q0 0.671875 0.53125 1.09375q0.53125 0.421875 1.609375 0.796875l0.75 0.25q1.453125 0.53125 2.265625 1.328125q0.8125 0.78125 0.8125 2.140625q0 1.109375 -0.5625 1.859375q-0.5625 0.75 -1.4375 1.109375q-0.859375 0.34375 -1.765625 0.34375zm9.148254 0q-1.171875 0 -2.109375 -0.546875q-0.921875 -0.5625 -1.4375 -1.546875q-0.515625 -0.984375 -0.515625 -2.21875q0 -1.171875 0.484375 -2.171875q0.484375 -1.0 1.390625 -1.59375q0.90625 -0.59375 2.078125 -0.59375q1.203125 0 2.078125 0.546875q0.875 0.53125 1.34375 1.484375q0.484375 0.9375 0.484375 2.15625q0 0.1875 -0.03125 0.40625l-6.46875 0q0.046875 0.9375 0.4375 1.578125q0.40625 0.640625 1.015625 0.96875q0.625 0.3125 1.296875 0.3125q1.59375 0 2.421875 -1.484375l1.140625 0.5625q-0.5 0.984375 -1.421875 1.5625q-0.90625 0.578125 -2.1875 0.578125zm2.34375 -5.1875q-0.03125 -0.515625 -0.28125 -1.03125q-0.25 -0.515625 -0.796875 -0.859375q-0.546875 -0.359375 -1.375 -0.359375q-0.96875 0 -1.640625 0.625q-0.671875 0.609375 -0.875 1.625l4.96875 0zm3.0392456 -3.21875l1.28125 0l0 1.3125l0.078125 0q0.234375 -0.671875 0.921875 -1.109375q0.6875 -0.453125 1.4375 -0.453125q0.5625 0 0.96875 0.171875l0 1.46875q-0.515625 -0.265625 -1.15625 -0.265625q-0.59375 0 -1.09375 0.34375q-0.5 0.328125 -0.796875 0.90625q-0.28125 0.5625 -0.28125 1.21875l0 4.5625l-1.359375 0l0 -8.15625zm5.3657837 0l1.453125 0l2.53125 6.5625l0.03125 0l2.5625 -6.5625l1.421875 0l-3.328125 8.15625l-1.375 0l-3.296875 -8.15625zm12.515259 8.40625q-1.171875 0 -2.109375 -0.546875q-0.921875 -0.5625 -1.4375 -1.546875q-0.515625 -0.984375 -0.515625 -2.21875q0 -1.171875 0.484375 -2.171875q0.484375 -1.0 1.390625 -1.59375q0.90625 -0.59375 2.078125 -0.59375q1.203125 0 2.078125 0.546875q0.875 0.53125 1.34375 1.484375q0.484375 0.9375 0.484375 2.15625q0 0.1875 -0.03125 0.40625l-6.46875 0q0.046875 0.9375 0.4375 1.578125q0.40625 0.640625 1.015625 0.96875q0.625 0.3125 1.296875 0.3125q1.59375 0 2.421875 -1.484375l1.140625 0.5625q-0.5 0.984375 -1.421875 1.5625q-0.90625 0.578125 -2.1875 0.578125zm2.34375 -5.1875q-0.03125 -0.515625 -0.28125 -1.03125q-0.25 -0.515625 -0.796875 -0.859375q-0.546875 -0.359375 -1.375 -0.359375q-0.96875 0 -1.640625 0.625q-0.671875 0.609375 -0.875 1.625l4.96875 0zm3.0392456 -3.21875l1.28125 0l0 1.3125l0.078125 0q0.234375 -0.671875 0.921875 -1.109375q0.6875 -0.453125 1.4375 -0.453125q0.5625 0 0.96875 0.171875l0 1.46875q-0.515625 -0.265625 -1.15625 -0.265625q-0.59375 0 -1.09375 0.34375q-0.5 0.328125 -0.796875 0.90625q-0.28125 0.5625 -0.28125 1.21875l0 4.5625l-1.359375 0l0 -8.15625z"
       id="path60" />
    <path
       fill="#e6e6e6"
       fill-rule="evenodd"
       d="m600.45544 363.6593l-0.6710205 0.079071045l-1.22052 0.532074l-0.87542725 1.0641174l-0.54315186 1.3660889l-0.06390381 0.762146l0 83.57608l0.06390381 0.7621155l0.54315186 1.3660889l0.87542725 1.0641174l1.22052 0.532074l0.6710205 0.079071045l145.12817 0l0.6709595 -0.079071045l1.2141724 -0.532074l0.88183594 -1.0641174l0.53674316 -1.3660889l0.0703125 -0.7621155l0 -83.57608l-0.0703125 -0.762146l-0.53674316 -1.3660889l-0.88183594 -1.0641174l-1.2141724 -0.532074l-0.6709595 -0.079071045z"
       id="path61" />
    <path
       fill="#fff"
       fill-rule="evenodd"
       d="m610.5839 375.0554l-0.741272 0.079071045l-1.2141113 0.532074l-0.8754883 1.0641174l-0.54315186 1.3660889l0 0.7621155l0 60.783936l0 0.7621155l0.54315186 1.3661194l0.8754883 1.0640869l1.2141113 0.532074l0.741272 0.071899414l124.93512 0l0.67736816 -0.071899414l1.2141113 -0.532074l0.8754883 -1.0640869l0.54315186 -1.3661194l0.06390381 -0.7621155l0 -60.783936l-0.06390381 -0.7621155l-0.54315186 -1.3660889l-0.8754883 -1.0641174l-1.2141113 -0.532074l-0.67736816 -0.079071045z"
       id="path62" />
    <path
       fill="#466bb0"
       fill-rule="evenodd"
       d="m622.6742 428.85065l11.617432 6.535675l19.311218 -6.535675z"
       id="path63" />
    <path
       fill="#466bb0"
       fill-rule="evenodd"
       d="m634.2916 400.515l-11.617432 26.135529l11.617432 -2.2073364l0 -23.928192z"
       id="path64" />
    <path
       fill="#476baf"
       fill-rule="evenodd"
       d="m636.1831 383.11533l0 41.32788l17.419739 2.2073364l-17.419739 -43.535217z"
       id="path65" />
    <path
       fill="#000"
       fill-opacity="0"
       fill-rule="evenodd"
       d="m644.1189 390.31247l94.770996 0l0 37.870453l-94.770996 0z"
       id="path66" />
    <path
       fill="#000"
       fill-rule="nonzero"
       d="m672.7616 403.65457l1.359375 0l0 11.453125l-1.359375 0l0 -11.453125zm6.498108 11.703125q-1.3125 0 -2.203125 -0.609375q-0.875 -0.609375 -1.234375 -1.578125l1.203125 -0.546875q0.3125 0.734375 0.90625 1.140625q0.609375 0.40625 1.328125 0.40625q0.765625 0 1.3125 -0.3125q0.546875 -0.3125 0.546875 -0.890625q0 -0.515625 -0.4375 -0.828125q-0.4375 -0.3125 -1.359375 -0.53125l-1.0 -0.265625q-0.96875 -0.234375 -1.59375 -0.8125q-0.625 -0.578125 -0.625 -1.484375q0 -0.703125 0.421875 -1.234375q0.421875 -0.546875 1.125 -0.828125q0.703125 -0.296875 1.53125 -0.296875q1.0625 0 1.90625 0.46875q0.84375 0.46875 1.1875 1.296875l-1.171875 0.546875q-0.546875 -1.09375 -1.9375 -1.09375q-0.671875 0 -1.1875 0.3125q-0.5 0.3125 -0.5 0.796875q0 0.453125 0.34375 0.734375q0.359375 0.265625 1.0625 0.453125l1.1875 0.296875q1.203125 0.3125 1.8125 0.90625q0.609375 0.59375 0.609375 1.46875q0 0.75 -0.4375 1.3125q-0.4375 0.5625 -1.171875 0.875q-0.734375 0.296875 -1.625 0.296875zm7.769287 -0.125q-0.5 0 -0.921875 -0.15625q-0.421875 -0.15625 -0.703125 -0.4375q-0.640625 -0.609375 -0.640625 -1.671875l0 -4.78125l-1.421875 0l0 -1.234375l1.421875 0l0 -2.3125l1.359375 0l0 2.3125l2.0 0l0 1.234375l-2.0 0l0 4.4375q0 0.671875 0.25 1.0q0.3125 0.34375 0.890625 0.34375q0.484375 0 0.890625 -0.265625l0 1.328125q-0.234375 0.109375 -0.484375 0.15625q-0.25 0.046875 -0.640625 0.046875zm3.6079102 -9.78125q-0.40625 0 -0.703125 -0.28125q-0.28125 -0.296875 -0.28125 -0.703125q0 -0.421875 0.28125 -0.6875q0.296875 -0.28125 0.703125 -0.28125q0.40625 0 0.6875 0.28125q0.28125 0.265625 0.28125 0.6875q0 0.40625 -0.28125 0.703125q-0.28125 0.28125 -0.6875 0.28125zm-0.671875 1.5l1.359375 0l0 8.15625l-1.359375 0l0 -8.15625zm7.1610107 8.40625q-1.203125 0 -2.171875 -0.5625q-0.953125 -0.578125 -1.484375 -1.5625q-0.53125 -1.0 -0.53125 -2.203125q0 -1.203125 0.53125 -2.1875q0.53125 -1.0 1.484375 -1.578125q0.96875 -0.578125 2.171875 -0.578125q1.203125 0 2.15625 0.578125q0.96875 0.578125 1.5 1.578125q0.53125 0.984375 0.53125 2.1875q0 1.203125 -0.53125 2.203125q-0.53125 0.984375 -1.5 1.5625q-0.953125 0.5625 -2.15625 0.5625zm0 -1.21875q0.75 0 1.390625 -0.375q0.65625 -0.390625 1.046875 -1.09375q0.390625 -0.703125 0.390625 -1.640625q0 -0.953125 -0.390625 -1.65625q-0.390625 -0.703125 -1.046875 -1.078125q-0.640625 -0.375 -1.390625 -0.375q-0.75 0 -1.40625 0.375q-0.65625 0.375 -1.046875 1.078125q-0.390625 0.703125 -0.390625 1.65625q0 0.9375 0.390625 1.640625q0.390625 0.703125 1.046875 1.09375q0.65625 0.375 1.40625 0.375zm9.254761 1.21875q-1.109375 0 -2.0 -0.546875q-0.890625 -0.5625 -1.40625 -1.546875q-0.5 -0.984375 -0.5 -2.234375q0 -1.234375 0.5 -2.21875q0.515625 -1.0 1.40625 -1.5625q0.890625 -0.5625 2.0 -0.5625q0.921875 0 1.65625 0.4375q0.734375 0.421875 1.125 1.046875l0.0625 0l-0.0625 -1.140625l0 -3.375l1.359375 0l0 11.453125l-1.296875 0l0 -1.203125l-0.0625 0q-0.390625 0.609375 -1.125 1.03125q-0.734375 0.421875 -1.65625 0.421875zm0.140625 -1.21875q0.71875 0 1.328125 -0.390625q0.625 -0.390625 1.0 -1.09375q0.375 -0.703125 0.375 -1.625q0 -0.9375 -0.375 -1.640625q-0.375 -0.703125 -1.0 -1.078125q-0.609375 -0.390625 -1.328125 -0.390625q-0.703125 0 -1.328125 0.390625q-0.625 0.375 -1.0 1.09375q-0.375 0.71875 -0.375 1.625q0 0.90625 0.375 1.625q0.375 0.703125 1.0 1.09375q0.625 0.390625 1.328125 0.390625z"
       id="path67" />
    <path
       fill="#000"
       fill-opacity="0"
       fill-rule="evenodd"
       d="m297.80383 536.18634l-0.56692505 -80.188965"
       id="path68" />
    <path
       fill-rule="evenodd"
       stroke="#46f"
       stroke-dasharray="8 6"
       stroke-linecap="butt"
       stroke-linejoin="round"
       stroke-width="2"
       d="m297.80383 536.18634l-0.51846313 -73.33496"
       id="path69" />
    <path
       fill="#46f"
       fill-rule="evenodd"
       stroke="#46f"
       stroke-linecap="butt"
       stroke-width="2"
       d="m297.28537 462.85138l2.2650146 2.2332153l-2.2927856 -6.1634827l-2.2054443 6.195282z"
       id="path70" />
    <path
       fill="#000"
       fill-opacity="0"
       fill-rule="evenodd"
       d="m301.9278 363.43237l256.25195 -125.32283"
       id="path71" />
    <path
       fill-rule="evenodd"
       stroke="#46f"
       stroke-dasharray="8 6"
       stroke-linecap="butt"
       stroke-linejoin="round"
       stroke-width="2"
       d="m301.9278 363.43237l250.09473 -122.311554"
       id="path72" />
    <path
       fill="#46f"
       fill-rule="evenodd"
       stroke="#46f"
       stroke-linecap="butt"
       stroke-width="2"
       d="m552.0225 241.12082l-1.0323486 3.0086212l4.5631104 -4.735367l-6.5393677 0.694397z"
       id="path73" />
    <path
       fill="#000"
       fill-opacity="0"
       fill-rule="evenodd"
       d="m674.9011 363.40088l-260.97635 -125.291336"
       id="path74" />
    <path
       fill-rule="evenodd"
       stroke="#46f"
       stroke-dasharray="8 6"
       stroke-linecap="butt"
       stroke-linejoin="round"
       stroke-width="2"
       d="m674.9012 363.40088l-254.79742 -122.32489"
       id="path75" />
    <path
       fill="#46f"
       fill-rule="evenodd"
       stroke="#46f"
       stroke-linecap="butt"
       stroke-width="2"
       d="m420.10376 241.07599l3.0010376 -1.054184l-6.54422 -0.64686584l4.5973816 4.7020874z"
       id="path76" />
    <path
       fill="#000"
       fill-opacity="0"
       fill-rule="evenodd"
       d="m444.15198 299.37903l148.8819 0l0 56.37796l-148.8819 0z"
       id="path77" />
    <path
       fill="#000"
       fill-opacity="0"
       fill-rule="evenodd"
       d="m709.36523 192.56693l92.50391 0l0 56.37796l-92.50391 0z"
       id="path79" />
    <path
       fill="#000"
       fill-opacity="0"
       fill-rule="evenodd"
       d="m188.53584 192.89502l92.50392 0l0 56.377945l-92.50392 0z"
       id="path82" />
    <path
       fill="#000"
       fill-opacity="0"
       fill-rule="evenodd"
       d="m363.2951 562.2253l234.5827 0"
       id="path85" />
    <path
       fill-rule="evenodd"
       stroke="#008200"
       stroke-linecap="butt"
       stroke-linejoin="round"
       stroke-width="2"
       d="m363.2951 562.2253l222.5827 0"
       id="path86" />
    <path
       fill="#008200"
       fill-rule="evenodd"
       stroke="#008200"
       stroke-linecap="butt"
       stroke-width="2"
       d="m585.8778 565.52875l9.076172 -3.3034668l-9.076172 -3.3034668z"
       id="path87" />
    <path
       fill="#000"
       fill-opacity="0"
       fill-rule="evenodd"
       d="m98.28084 66.55944l197.57481 0l0 42.551178l-197.57481 0z"
       id="path88" />
    <path
       fill="#e6e6e6"
       fill-rule="evenodd"
       d="m602.35645 527.51447l-0.6577759 0.060180664l-1.1964111 0.40496826l-0.8581543 0.8098755l-0.5324707 1.0397949l-0.06262207 0.57458496l0 63.617126l0.06262207 0.5800781l0.5324707 1.0397949l0.8581543 0.8098755l1.1964111 0.40496826l0.6577759 0.054748535l142.25635 0l0.66400146 -0.054748535l1.1901855 -0.40496826l0.927063 -0.8098755l0.463562 -1.0397949l0.06890869 -0.5800781l0 -63.617126l-0.06890869 -0.57458496l-0.463562 -1.0397949l-0.927063 -0.8098755l-1.1901855 -0.40496826l-0.66400146 -0.060180664z"
       id="path90" />
    <path
       fill="#fff"
       fill-rule="evenodd"
       d="m610.7802 536.18634l126.04724 0l0 52.06299l-126.04724 0z"
       id="path91" />
    <path
       fill="#000"
       fill-rule="nonzero"
       d="m665.2077 568.3278q-0.875 0 -1.6875 -0.359375q-0.796875 -0.359375 -1.421875 -1.046875q-0.625 -0.703125 -0.890625 -1.6875l1.296875 -0.53125q0.265625 1.015625 1.0 1.671875q0.734375 0.65625 1.734375 0.65625q0.984375 0 1.671875 -0.53125q0.6875 -0.53125 0.6875 -1.46875q0 -0.796875 -0.578125 -1.3125q-0.578125 -0.515625 -1.90625 -0.96875l-0.734375 -0.25q-1.203125 -0.4375 -1.984375 -1.140625q-0.765625 -0.703125 -0.765625 -1.953125q0 -0.8125 0.453125 -1.5q0.453125 -0.703125 1.25 -1.125q0.796875 -0.421875 1.796875 -0.421875q0.984375 0 1.71875 0.375q0.734375 0.375 1.171875 0.90625q0.453125 0.515625 0.625 1.03125l-1.265625 0.546875q-0.171875 -0.59375 -0.75 -1.078125q-0.5625 -0.484375 -1.484375 -0.484375q-0.890625 0 -1.515625 0.5q-0.625 0.5 -0.625 1.25q0 0.671875 0.53125 1.09375q0.53125 0.421875 1.609375 0.796875l0.75 0.25q1.453125 0.53125 2.265625 1.328125q0.8125 0.78125 0.8125 2.140625q0 1.109375 -0.5625 1.859375q-0.5625 0.75 -1.4375 1.109375q-0.859375 0.34375 -1.765625 0.34375zm9.148254 0q-1.171875 0 -2.109375 -0.546875q-0.921875 -0.5625 -1.4375 -1.546875q-0.515625 -0.984375 -0.515625 -2.21875q0 -1.171875 0.484375 -2.171875q0.484375 -1.0 1.390625 -1.59375q0.90625 -0.59375 2.078125 -0.59375q1.203125 0 2.078125 0.546875q0.875 0.53125 1.34375 1.484375q0.484375 0.9375 0.484375 2.15625q0 0.1875 -0.03125 0.40625l-6.46875 0q0.046875 0.9375 0.4375 1.578125q0.40625 0.640625 1.015625 0.96875q0.625 0.3125 1.296875 0.3125q1.59375 0 2.421875 -1.484375l1.140625 0.5625q-0.5 0.984375 -1.421875 1.5625q-0.90625 0.578125 -2.1875 0.578125zm2.34375 -5.1875q-0.03125 -0.515625 -0.28125 -1.03125q-0.25 -0.515625 -0.796875 -0.859375q-0.546875 -0.359375 -1.375 -0.359375q-0.96875 0 -1.640625 0.625q-0.671875 0.609375 -0.875 1.625l4.96875 0zm3.0393066 -3.21875l1.28125 0l0 1.3125l0.078125 0q0.234375 -0.671875 0.921875 -1.109375q0.6875 -0.453125 1.4375 -0.453125q0.5625 0 0.96875 0.171875l0 1.46875q-0.515625 -0.265625 -1.15625 -0.265625q-0.59375 0 -1.09375 0.34375q-0.5 0.328125 -0.796875 0.90625q-0.28125 0.5625 -0.28125 1.21875l0 4.5625l-1.359375 0l0 -8.15625zm5.3657227 0l1.453125 0l2.53125 6.5625l0.03125 0l2.5625 -6.5625l1.421875 0l-3.328125 8.15625l-1.375 0l-3.296875 -8.15625zm9.927185 -1.5q-0.40625 0 -0.703125 -0.28125q-0.28125 -0.296875 -0.28125 -0.703125q0 -0.421875 0.28125 -0.6875q0.296875 -0.28125 0.703125 -0.28125q0.40625 0 0.6875 0.28125q0.28125 0.265625 0.28125 0.6875q0 0.40625 -0.28125 0.703125q-0.28125 0.28125 -0.6875 0.28125zm-0.671875 1.5l1.359375 0l0 8.15625l-1.359375 0l0 -8.15625zm7.0985107 8.40625q-1.1875 0 -2.140625 -0.5625q-0.9375 -0.5625 -1.46875 -1.546875q-0.515625 -0.984375 -0.515625 -2.21875q0 -1.234375 0.515625 -2.21875q0.53125 -1.0 1.46875 -1.5625q0.953125 -0.5625 2.140625 -0.5625q1.328125 0 2.234375 0.625q0.90625 0.609375 1.28125 1.640625l-1.234375 0.515625q-0.296875 -0.765625 -0.90625 -1.15625q-0.59375 -0.390625 -1.4375 -0.390625q-0.71875 0 -1.34375 0.390625q-0.625 0.390625 -1.0 1.109375q-0.375 0.703125 -0.375 1.609375q0 0.90625 0.375 1.609375q0.375 0.703125 1.0 1.109375q0.625 0.390625 1.34375 0.390625q0.859375 0 1.484375 -0.40625q0.625 -0.40625 0.9375 -1.140625l1.203125 0.515625q-0.40625 1.015625 -1.328125 1.640625q-0.921875 0.609375 -2.234375 0.609375zm8.593506 0q-1.171875 0 -2.109375 -0.546875q-0.921875 -0.5625 -1.4375 -1.546875q-0.515625 -0.984375 -0.515625 -2.21875q0 -1.171875 0.484375 -2.171875q0.484375 -1.0 1.390625 -1.59375q0.90625 -0.59375 2.078125 -0.59375q1.203125 0 2.078125 0.546875q0.875 0.53125 1.34375 1.484375q0.484375 0.9375 0.484375 2.15625q0 0.1875 -0.03125 0.40625l-6.46875 0q0.046875 0.9375 0.4375 1.578125q0.40625 0.640625 1.015625 0.96875q0.625 0.3125 1.296875 0.3125q1.59375 0 2.421875 -1.484375l1.140625 0.5625q-0.5 0.984375 -1.421875 1.5625q-0.90625 0.578125 -2.1875 0.578125zm2.34375 -5.1875q-0.03125 -0.515625 -0.28125 -1.03125q-0.25 -0.515625 -0.796875 -0.859375q-0.546875 -0.359375 -1.375 -0.359375q-0.96875 0 -1.640625 0.625q-0.671875 0.609375 -0.875 1.625l4.96875 0zm2.0236206 4.9375l0 0zm4.993286 -11.453125l4.109375 0q0.859375 0 1.625 0.40625q0.765625 0.390625 1.203125 1.09375q0.453125 0.703125 0.453125 1.578125q0 0.84375 -0.421875 1.46875q-0.421875 0.625 -1.140625 0.953125l0 0.0625q0.859375 0.296875 1.40625 1.0q0.546875 0.703125 0.546875 1.640625q0 0.9375 -0.484375 1.6875q-0.46875 0.734375 -1.265625 1.15625q-0.78125 0.40625 -1.703125 0.40625l-4.328125 0l0 -11.453125zm4.109375 4.9375q0.578125 0 1.015625 -0.265625q0.4375 -0.265625 0.671875 -0.6875q0.25 -0.421875 0.25 -0.875q0 -0.421875 -0.234375 -0.84375q-0.234375 -0.421875 -0.65625 -0.6875q-0.421875 -0.28125 -0.984375 -0.28125l-2.8125 0l0 3.640625l2.75 0zm0.3125 5.21875q0.5625 0 1.015625 -0.28125q0.46875 -0.296875 0.71875 -0.75q0.25 -0.453125 0.25 -0.9375q0 -0.484375 -0.265625 -0.9375q-0.25 -0.453125 -0.71875 -0.734375q-0.46875 -0.28125 -1.078125 -0.28125l-2.984375 0l0 3.921875l3.0625 0z"
       id="path92" />
    <path
       fill="#767576"
       fill-rule="evenodd"
       d="m630.6468 544.86664l-1.9053955 0.054748535l-3.624939 0.6949463l-3.2531738 1.329834l-2.9452515 1.8496704l-2.5153809 2.3695679l-1.963501 2.7800293l-1.4116211 3.0645752l-0.73773193 3.4093018l-0.06390381 1.7949829l0.06390381 1.7949219l0.73773193 3.3491821l1.4116211 3.1247559l1.963501 2.774475l2.5153809 2.375061l2.9452515 1.8496704l3.2531738 1.329834l3.624939 0.6950073l1.9053955 0.0546875l1.8995972 -0.0546875l3.5610352 -0.6950073l3.3170776 -1.329834l2.9452515 -1.8496704l2.5153809 -2.375061l1.963501 -2.774475l1.4116211 -3.1247559l0.73779297 -3.3491821l0.06390381 -1.7949219l-0.06390381 -1.7949829l-0.73779297 -3.4093018l-1.4116211 -3.0645752l-1.963501 -2.7800293l-2.5153809 -2.3695679l-2.9452515 -1.8496704l-3.3170776 -1.329834l-3.5610352 -0.6949463l-1.8995972 -0.054748535z"
       id="path93" />
    <path
       fill="#000"
       fill-opacity="0"
       fill-rule="evenodd"
       d="m637.153 568.22833l-13.076477 0l0 -12.31842l13.076477 0l0 12.31842z"
       id="path94" />
    <path
       fill-rule="evenodd"
       stroke="#fff"
       stroke-linecap="butt"
       stroke-linejoin="round"
       stroke-width=".916"
       d="m637.153 568.22833l-13.076477 0l0 -12.31842l13.076477 0l0 12.31842z"
       id="path95" />
    <path
       fill="#000"
       fill-opacity="0"
       fill-rule="evenodd"
       d="m626.528 555.9099l0 -2.949646"
       id="path96" />
    <path
       fill-rule="evenodd"
       stroke="#fff"
       stroke-linecap="round"
       stroke-miterlimit="105.678"
       stroke-width=".916"
       d="m626.528 555.9099l0 -2.949646"
       id="path97" />
    <path
       fill="#000"
       fill-opacity="0"
       fill-rule="evenodd"
       d="m630.6467 555.9099l0 -2.949646"
       id="path98" />
    <path
       fill-rule="evenodd"
       stroke="#fff"
       stroke-linecap="round"
       stroke-miterlimit="105.678"
       stroke-width=".916"
       d="m630.6467 555.9099l0 -2.949646"
       id="path99" />
    <path
       fill="#000"
       fill-opacity="0"
       fill-rule="evenodd"
       d="m634.7596 555.9099l0 -2.949646"
       id="path100" />
    <path
       fill-rule="evenodd"
       stroke="#fff"
       stroke-linecap="round"
       stroke-miterlimit="105.678"
       stroke-width=".916"
       d="m634.7596 555.9099l0 -2.949646"
       id="path101" />
    <path
       fill="#000"
       fill-opacity="0"
       fill-rule="evenodd"
       d="m626.528 571.4679l0 -3.0098267"
       id="path102" />
    <path
       fill-rule="evenodd"
       stroke="#fff"
       stroke-linecap="round"
       stroke-miterlimit="105.678"
       stroke-width=".916"
       d="m626.528 571.4679l0 -3.0098267"
       id="path103" />
    <path
       fill="#000"
       fill-opacity="0"
       fill-rule="evenodd"
       d="m630.6467 571.4679l0 -3.0098267"
       id="path104" />
    <path
       fill-rule="evenodd"
       stroke="#fff"
       stroke-linecap="round"
       stroke-miterlimit="105.678"
       stroke-width=".916"
       d="m630.6467 571.4679l0 -3.0098267"
       id="path105" />
    <path
       fill="#000"
       fill-opacity="0"
       fill-rule="evenodd"
       d="m634.7596 571.4679l0 -3.0098267"
       id="path106" />
    <path
       fill-rule="evenodd"
       stroke="#fff"
       stroke-linecap="round"
       stroke-miterlimit="105.678"
       stroke-width=".916"
       d="m634.7596 571.4679l0 -3.0098267"
       id="path107" />
    <path
       fill="#000"
       fill-opacity="0"
       fill-rule="evenodd"
       d="m623.9546 566.0885l-3.1311646 0"
       id="path108" />
    <path
       fill-rule="evenodd"
       stroke="#fff"
       stroke-linecap="round"
       stroke-miterlimit="105.678"
       stroke-width=".916"
       d="m623.9546 566.0885l-3.1311646 0"
       id="path109" />
    <path
       fill="#000"
       fill-opacity="0"
       fill-rule="evenodd"
       d="m623.9546 562.21405l-3.1311646 0"
       id="path110" />
    <path
       fill-rule="evenodd"
       stroke="#fff"
       stroke-linecap="round"
       stroke-miterlimit="105.678"
       stroke-width=".916"
       d="m623.9546 562.21405l-3.1311646 0"
       id="path111" />
    <path
       fill="#000"
       fill-opacity="0"
       fill-rule="evenodd"
       d="m623.9546 558.3396l-3.1311646 0"
       id="path112" />
    <path
       fill-rule="evenodd"
       stroke="#fff"
       stroke-linecap="round"
       stroke-miterlimit="105.678"
       stroke-width=".916"
       d="m623.9546 558.3396l-3.1311646 0"
       id="path113" />
    <path
       fill="#000"
       fill-opacity="0"
       fill-rule="evenodd"
       d="m640.46423 566.0885l-3.18927 0"
       id="path114" />
    <path
       fill-rule="evenodd"
       stroke="#fff"
       stroke-linecap="round"
       stroke-miterlimit="105.678"
       stroke-width=".916"
       d="m640.46423 566.0885l-3.18927 0"
       id="path115" />
    <path
       fill="#000"
       fill-opacity="0"
       fill-rule="evenodd"
       d="m640.46423 562.21405l-3.18927 0"
       id="path116" />
    <path
       fill-rule="evenodd"
       stroke="#fff"
       stroke-linecap="round"
       stroke-miterlimit="105.678"
       stroke-width=".916"
       d="m640.46423 562.21405l-3.18927 0"
       id="path117" />
    <path
       fill="#000"
       fill-opacity="0"
       fill-rule="evenodd"
       d="m640.46423 558.3396l-3.18927 0"
       id="path118" />
    <path
       fill-rule="evenodd"
       stroke="#fff"
       stroke-linecap="round"
       stroke-miterlimit="105.678"
       stroke-width=".916"
       d="m640.46423 558.3396l-3.18927 0"
       id="path119" />
    <path
       fill="#fff"
       fill-rule="evenodd"
       d="m629.787 559.32465l-0.4298706 0.054748535l-0.73779297 0.29003906l-0.5518799 0.5198364l-0.30786133 0.6950073l0 0.40496826l0 1.619873l0 0.40496826l0.30786133 0.6949463l0.5518799 0.51989746l0.73779297 0.2845459l2.5734253 0l0.73779297 -0.2845459l0.5518799 -0.51989746l0.30786133 -0.6949463l0 -0.40496826l0 -1.619873l0 -0.40496826l-0.30786133 -0.6950073l-0.5518799 -0.5198364l-0.73779297 -0.29003906l-0.4298706 -0.054748535z"
       id="path120" />
    <path
       fill="#000"
       fill-opacity="0"
       fill-rule="evenodd"
       d="m672.3247 536.16516l0.37799072 -80.188995"
       id="path121" />
    <path
       fill-rule="evenodd"
       stroke="#46f"
       stroke-dasharray="8 6"
       stroke-linecap="butt"
       stroke-linejoin="round"
       stroke-width="2"
       d="m672.3247 536.16516l0.3456421 -73.3349"
       id="path122" />
    <path
       fill="#46f"
       fill-rule="evenodd"
       stroke="#46f"
       stroke-linecap="butt"
       stroke-width="2"
       d="m672.67035 462.83026l2.2385864 2.2597656l-2.2200317 -6.190094l-2.2782593 6.1688843z"
       id="path123" />
    <path
       fill="#000"
       fill-opacity="0"
       fill-rule="evenodd"
       d="m247.28609 363.4147l0 -127.05733l32.88188 0l0 0.9470825"
       id="path124" />
    <path
       fill-rule="evenodd"
       stroke="#46f"
       stroke-dasharray="8 6"
       stroke-linecap="butt"
       stroke-linejoin="round"
       stroke-width="2"
       d="m247.28609 363.4147l0 -127.05734l26.09346 0"
       id="path125" />
    <path
       fill="#46f"
       fill-rule="evenodd"
       stroke="#46f"
       stroke-linecap="butt"
       stroke-width="2"
       d="m273.37955 236.35736l-2.5383606 1.9168091l6.4310303 -1.3737183l-5.8094788 -3.0814667z"
       id="path126" />
    <path
       fill="#000"
       fill-opacity="0"
       fill-rule="evenodd"
       d="m727.292 363.40088l0 -125.291336l-35.275635 0"
       id="path127" />
    <path
       fill-rule="evenodd"
       stroke="#46f"
       stroke-dasharray="8 6"
       stroke-linecap="butt"
       stroke-linejoin="round"
       stroke-width="2"
       d="m727.292 363.40088l0 -125.291336l-28.421448 0"
       id="path128" />
    <path
       fill="#46f"
       fill-rule="evenodd"
       stroke="#46f"
       stroke-linecap="butt"
       stroke-width="2"
       d="m698.8706 238.10954l2.2491455 -2.249176l-6.1795654 2.249176l6.1795654 2.2491608z"
       id="path129" />
    <text
       xml:space="preserve"
       style="font-size:14.6667px;font-family:sans-serif;-inkscape-font-specification:sans-serif;fill:#466baf"
       x="186.79659"
       y="221.87576"
       id="text129"><tspan
         sodipodi:role="line"
         id="tspan129"
         x="186.79659"
         y="221.87576"
         style="font-weight:bold;font-size:14.6667px"> / </tspan></text>
    <text
       xml:space="preserve"
       style="font-size:14.6667px;font-family:sans-serif;-inkscape-font-specification:sans-serif;fill:#466baf"
       x="710.36694"
       y="221.85318"
       id="text129-6"><tspan
         sodipodi:role="line"
         id="tspan129-7"
         x="710.36694"
         y="221.85318"
         style="font-weight:bold;font-size:14.6667px"> / </tspan></text>
    <text
       xml:space="preserve"
       style="font-size:14.6667px;font-family:sans-serif;-inkscape-font-specification:sans-serif;fill:#466baf"
       x="473.1806"
       y="312.7655"
       id="text129-6-1"><tspan
         sodipodi:role="line"
         id="tspan129-7-2"
         x="473.1806"
         y="312.7655"
         style="font-weight:bold;font-size:14.6667px"></tspan></text>
    <text
       xml:space="preserve"
       style="font-size:14.6667px;font-family:sans-serif;-inkscape-font-specification:sans-serif;fill:#466baf"
       x="43.848969"
       y="29.817293"
       id="text130"><tspan
         sodipodi:role="line"
         id="tspan130"
         x="43.848969"
         y="29.817293"
         style="fill:#000000;fill-opacity:1">mesh1</tspan></text>
  </g>
  <text
     xml:space="preserve"
     style="font-size:14.6667px;font-family:sans-serif;-inkscape-font-specification:sans-serif;fill:#000000;fill-opacity:1"
     x="113.13032"
     y="84.19001"
     id="text131"><tspan
       sodipodi:role="line"
       id="tspan131"
       x="113.13032"
       y="84.19001">network1</tspan></text>
  <text
     xml:space="preserve"
     style="font-size:14.6667px;font-family:sans-serif;-inkscape-font-specification:sans-serif;fill:#000000;fill-opacity:1"
     x="170.13397"
     y="142.94763"
     id="text132"><tspan
       sodipodi:role="line"
       id="tspan132"
       x="170.13397"
       y="142.94763">cluster1</tspan></text>
  <text
     xml:space="preserve"
     style="font-size:14.6667px;font-family:sans-serif;-inkscape-font-specification:sans-serif;fill:#000000;fill-opacity:1"
     x="544.60413"
     y="143.8246"
     id="text133"><tspan
       sodipodi:role="line"
       id="tspan133"
       x="544.60413"
       y="143.8246">cluster2</tspan></text>
</svg>
