<?xml version="1.0" encoding="utf-8"?>
<!-- Generator: Adobe Illustrator 19.2.1, SVG Export Plug-In . SVG Version: 6.00 Build 0)  -->
<svg version="1.1" id="layer" xmlns="http://www.w3.org/2000/svg" xmlns:xlink="http://www.w3.org/1999/xlink" x="0px" y="0px"
	 viewBox="0 0 652 652" style="enable-background:new 0 0 652 652;" xml:space="preserve">
<style type="text/css">
	.st0{fill:#00A1DF;}
</style>
<g>
	<g>
		<g>
			<path class="st0" d="M109.3,404c-44.8,0-81.1-36.3-81.1-81.1c-0.1-44.8,36.3-81.2,81.1-81.2c44.8,0,81.1,36.3,81.1,81.1
				S154.1,404,109.3,404L109.3,404z M109.2,233.8c-49,0-88.9,39.7-88.9,88.5c0,48.8,39.9,88.5,88.9,88.5s88.9-39.7,88.9-88.5
				C198.2,273.5,158.3,233.8,109.2,233.8L109.2,233.8z"/>
		</g>
	</g>
	<path class="st0" d="M86.7,362.1c-13.4-6.3-22.7-20.5-22.7-37c0-8.7,2.6-16.8,7-23.3l29.2,43.6h17.7l29.2-43.6
		c4.4,6.6,7,14.7,7,23.3c0,15.4-8.1,28.7-20,35.6l5.6,21.6c21.5-11.1,36.1-33.4,36.1-59.2c0-24.4-13.1-45.6-32.6-57.2l-34,52.4
		l-33.6-52.6c-19.7,11.6-33,33-33,57.4c0,26.7,15.7,49.8,38.4,60.3L86.7,362.1L86.7,362.1z"/>
	<polygon class="st0" points="265.2,331.6 243.4,285 232,285 232,359.8 243.4,359.8 243.4,309.8 261,346.3 269.5,346.3 286.6,309.8 
		286.6,359.8 298,359.8 298,285 286.6,285 	"/>
	<path class="st0" d="M340.6,339c0,8.2-5,11.9-11,11.9s-10.7-3.6-10.7-11.9v-32.5h-10.7v34.1c0,6,1.3,11.1,5.4,15.1
		c3.2,3,7.7,4.8,13.1,4.8c5.4,0,10.5-2,14.2-6v5.4h10.5v-53.3h-10.7V339L340.6,339z"/>
	<path class="st0" d="M372.3,344.5V285h-10.7v60.1c0,7.9,4.4,14.7,14.6,14.7h6.6v-9.1h-4.7C373.8,350.7,372.3,348.6,372.3,344.5
		L372.3,344.5z"/>
	<path class="st0" d="M396.7,328.8c0.1-3.2,0.3-4.8,1.4-7.2c1.7-4,5.6-6.7,10.6-6.7s8.8,2.7,10.5,6.7c1,2.4,1.4,4,1.5,7.2H396.7
		L396.7,328.8z M408.6,305.9c-13.6,0-22.6,10-22.6,27.2c0,20.3,10.6,27.3,24,27.3c9.4,0,14.5-2.8,19.9-8.3l-6.9-6.4
		c-3.8,3.8-7,5.5-12.9,5.5c-8.7,0-13.6-5.7-13.6-14.9h34.6v-4.7C431.2,316.5,422.9,305.9,408.6,305.9L408.6,305.9z"/>
	<path class="st0" d="M484.1,323.1c-3.2-2.8-7.1-4.5-14-5.6l-8.5-1.3c-3.4-0.5-6.5-1.8-8.4-3.4c-2-1.8-2.8-4.2-2.8-7
		c0-6.6,4.8-11.7,13.6-11.7c6.3,0,11.7,1.4,16.3,5.7l7.2-7.1c-6.4-5.9-13.3-8.5-23.2-8.5c-15.6,0-25,8.9-25,22
		c0,6.1,1.8,10.8,5.5,14.3c3.2,3.1,8.1,5.1,14.2,6l8.8,1.3c4.4,0.6,6.3,1.4,8.2,3.2c2,1.8,3,4.5,3,7.8c0,7.2-5.7,11.4-15.4,11.4
		c-7.7,0-13.6-1.7-19.1-7.1l-7.6,7.4c7.1,7.2,15.2,9.9,26.5,9.9c15.7,0,26.9-8.2,26.9-22C490.2,332.1,488.2,326.8,484.1,323.1
		L484.1,323.1z"/>
	<path class="st0" d="M526.4,347.8c-2,2-4.7,3.1-7.9,3.1c-3.2,0-5.8-1.1-7.8-3.1c-3.3-3.2-3.7-8.8-3.7-14.6s0.4-11.3,3.7-14.6
		c2-2,4.6-3.1,7.8-3.1c3.1,0,5.9,1,7.9,3.1c3.2,3.2,3.7,8.8,3.7,14.6C530.1,338.9,529.6,344.5,526.4,347.8L526.4,347.8z
		 M518.5,305.9c-7.2,0-12.4,2.7-15.9,6.3c-5,5.3-6.3,12-6.3,20.9c0,9,1.3,15.8,6.3,21c3.4,3.6,8.6,6.3,15.9,6.3
		c7.2,0,12.5-2.7,16-6.3c5-5.3,6.3-12,6.3-21c0-8.9-1.3-15.7-6.3-20.9C531,308.7,525.7,305.9,518.5,305.9L518.5,305.9z"/>
	<path class="st0" d="M551.6,299.3v8.2h-6.1v8.2h6.1v44.1h10.7v-44.1h10.6v-8.2h-10.6v-7.7c0-3.9,1.9-6.2,5.9-6.2h4.7v-9.2h-6.7
		C556.2,284.5,551.6,291.7,551.6,299.3L551.6,299.3z"/>
	<path class="st0" d="M596.4,291.3h-10.7v16.2h-6.1v8.2h6.1V345c0,7.7,4.6,14.8,14.6,14.8h6.4v-9.1h-4.4c-4,0-5.9-2.3-5.9-6.2v-28.8
		h10.3v-8.2h-10.3V291.3L596.4,291.3z"/>
	<path class="st0" d="M619,303.8c-0.2,0.6-0.5,1.1-1,1.5s-0.9,0.8-1.5,1c-0.5,0.3-1.2,0.4-1.9,0.4c-0.7,0-1.3-0.1-1.9-0.4
		c-0.6-0.3-1.1-0.6-1.5-1c-0.4-0.4-0.8-1-1-1.5c-0.2-0.6-0.4-1.3-0.4-2c0-0.7,0.1-1.3,0.4-1.9c0.2-0.6,0.5-1.1,1-1.5s0.9-0.8,1.5-1
		c0.6-0.3,1.2-0.4,1.9-0.4c0.7,0,1.3,0.1,1.9,0.4c0.5,0.3,1.1,0.6,1.5,1c0.4,0.4,0.8,0.9,1,1.5s0.4,1.3,0.4,1.9
		C619.3,302.6,619.2,303.2,619,303.8L619,303.8z M619.9,299.6c-0.3-0.7-0.7-1.3-1.3-1.8c-0.5-0.5-1.1-0.9-1.8-1.2
		c-0.7-0.3-1.4-0.4-2.2-0.4c-0.8,0-1.5,0.2-2.2,0.4c-0.7,0.3-1.3,0.7-1.9,1.2c-0.5,0.5-0.9,1.1-1.3,1.8c-0.3,0.7-0.4,1.4-0.4,2.2
		c0,0.8,0.2,1.6,0.4,2.3c0.3,0.7,0.7,1.3,1.3,1.8c0.5,0.5,1.1,0.9,1.9,1.2c0.7,0.3,1.4,0.4,2.2,0.4c0.8,0,1.5-0.2,2.2-0.4
		c0.7-0.3,1.3-0.7,1.8-1.2c0.5-0.5,0.9-1.1,1.3-1.8c0.3-0.7,0.4-1.5,0.4-2.3C620.3,301,620.2,300.3,619.9,299.6L619.9,299.6z"/>
	<path class="st0" d="M614.5,301.5h-1.1v-2.1h1.4c0.2,0,0.3,0,0.5,0.1c0.2,0,0.3,0.1,0.5,0.2c0.2,0.1,0.3,0.2,0.3,0.3
		c0.1,0.1,0.1,0.3,0.1,0.5c0,0.3-0.1,0.5-0.2,0.6c-0.1,0.2-0.2,0.3-0.4,0.3c-0.2,0.1-0.3,0.1-0.5,0.1
		C615,301.5,614.8,301.5,614.5,301.5L614.5,301.5z M616.8,301.8c0.3-0.3,0.5-0.7,0.5-1.3c0-0.7-0.2-1.1-0.6-1.4
		c-0.4-0.3-1-0.5-1.8-0.5h-2.6v6.7h1v-2.9h1.1l1.8,2.9h1.1l-1.9-3C616.1,302.2,616.5,302.1,616.8,301.8L616.8,301.8z"/>
</g>
</svg>
