<?xml version="1.0" encoding="UTF-8"?>
<svg width="379px" height="49px" viewBox="0 0 379 49" version="1.1" xmlns="http://www.w3.org/2000/svg" xmlns:xlink="http://www.w3.org/1999/xlink">
    <!-- Generator: Sketch 41.2 (35397) - http://www.bohemiancoding.com/sketch -->
    <title>nutanix-seeklogo.com</title>
    <desc>Created with Sketch.</desc>
    <defs></defs>
    <g id="Page-1" stroke="none" stroke-width="1" fill="none" fill-rule="evenodd">
        <g id="nutanix-seeklogo.com">
            <path d="M323.217,48.069 C323.023,48.236 322.771,48.326 322.513,48.326 L308.763,48.326 C308.328,48.326 307.904,48.096 307.725,47.699 C307.518,47.242 307.638,46.709 308.012,46.4 L333.104,25.268 C333.663,24.796 333.665,23.935 333.107,23.462 L308.05,2.187 C307.746,1.928 307.569,1.532 307.638,1.139 C307.732,0.598 308.196,0.229 308.72,0.229 L321.952,0.229 C322.206,0.229 322.453,0.319 322.656,0.485 L349.962,23.455 L350.209,23.666 C350.629,24.024 350.64,24.669 350.233,25.042 L349.963,25.289 L323.217,48.069" id="Fill-1" fill="#A8CB3A"></path>
            <path d="M55.097,0.565 L46.707,0.565 C45.701,0.565 44.877,1.389 44.877,2.396 L44.877,29.514 C44.877,30.151 44.127,30.493 43.646,30.074 L12.592,3.039 C10.475,1.197 8.174,0.259 5.746,0.259 C3.603,0.259 0,1.134 0,6.986 L0,46.219 C0,47.23 0.819,48.049 1.83,48.049 L10.215,48.049 C11.225,48.049 12.044,47.23 12.044,46.22 L12.044,18.989 C12.044,18.351 12.795,18.01 13.276,18.43 L44.658,45.874 C46.603,47.6 48.718,48.475 50.945,48.475 C53.179,48.475 56.925,47.561 56.925,41.44 L56.925,2.394 C56.925,1.388 56.102,0.565 55.097,0.565" id="Fill-2" fill="#174489"></path>
            <path d="M116.47,0.565 L106.718,0.565 C106.122,0.565 105.632,1.051 105.632,1.651 L105.632,33.41 C105.632,36.026 102.384,37.353 95.973,37.353 L82.71,37.353 C76.179,37.353 72.863,36.026 72.863,33.41 L72.863,1.651 C72.863,1.051 72.377,0.565 71.776,0.565 L61.904,0.565 C61.302,0.565 60.815,1.051 60.815,1.651 L60.815,33.898 C60.815,36.135 61.194,38.065 61.93,39.637 C62.663,41.191 63.661,42.528 64.9,43.611 C66.113,44.669 67.538,45.51 69.126,46.105 C70.667,46.688 72.291,47.126 73.944,47.415 C75.589,47.712 77.301,47.89 79.033,47.956 C80.72,48.018 82.306,48.049 83.792,48.049 L94.584,48.049 C102.506,48.049 108.144,46.953 111.825,44.702 C115.629,42.374 117.559,38.742 117.559,33.898 L117.559,1.651 C117.559,1.051 117.069,0.565 116.47,0.565" id="Fill-3" fill="#174489"></path>
            <path d="M173.485,8.946 L173.485,2.696 C173.485,1.486 172.505,0.506 171.295,0.506 L123.598,0.506 C122.388,0.506 121.407,1.487 121.407,2.697 L121.407,8.946 C121.407,10.156 122.388,11.138 123.599,11.138 L140.284,11.138 C140.894,11.138 141.389,11.632 141.389,12.242 L141.389,45.858 C141.389,47.068 142.37,48.049 143.58,48.049 L151.245,48.049 C152.456,48.049 153.438,47.067 153.438,45.857 L153.438,12.242 C153.438,11.632 153.932,11.138 154.542,11.138 L171.293,11.138 C172.504,11.138 173.485,10.157 173.485,8.946" id="Fill-4" fill="#174489"></path>
            <path d="M185.986,24.19 L192.096,15.408 C192.375,15.005 192.97,15.003 193.253,15.403 L199.436,24.123 C199.724,24.528 199.434,25.089 198.937,25.089 L186.456,25.089 C185.994,25.089 185.722,24.569 185.986,24.19 Z M199.431,3.778 C197.788,1.484 195.613,0.319 192.966,0.319 C190.355,0.319 188.201,1.506 186.554,3.854 L157.132,46.339 C156.851,46.743 156.871,47.293 157.211,47.681 C157.432,47.932 157.769,48.049 158.103,48.049 L169.669,48.049 C170.037,48.049 170.383,47.861 170.583,47.552 L177.972,36.184 C178.134,35.935 178.41,35.785 178.707,35.785 C178.707,35.785 203.342,35.779 207.071,35.784 C207.367,35.784 207.64,35.932 207.803,36.179 L215.359,47.561 C215.559,47.866 215.9,48.049 216.265,48.049 L227.365,48.049 C227.764,48.049 228.135,47.827 228.322,47.468 C228.512,47.113 228.489,46.684 228.264,46.351 L199.431,3.778 L199.431,3.778 Z" id="Fill-5" fill="#174489"></path>
            <path d="M286.224,0.565 L277.603,0.565 C276.658,0.565 275.891,1.332 275.891,2.278 L275.891,29.769 C275.891,30.307 275.258,30.595 274.852,30.242 L243.607,3.039 C241.491,1.197 239.186,0.259 236.755,0.259 C234.612,0.259 231.011,1.134 231.011,6.986 L231.011,46.335 C231.011,47.278 231.782,48.049 232.725,48.049 L241.343,48.049 C242.29,48.049 243.058,47.281 243.058,46.334 L243.058,18.733 C243.058,18.194 243.692,17.907 244.098,18.261 L275.672,45.874 C277.615,47.6 279.732,48.475 281.959,48.475 C284.191,48.475 287.939,47.561 287.939,41.44 L287.939,2.28 C287.939,1.333 287.171,0.565 286.224,0.565" id="Fill-6" fill="#174489"></path>
            <path d="M302.734,0.565 L292.866,0.565 C292.265,0.565 291.779,1.051 291.779,1.651 L291.779,46.962 C291.779,47.561 292.265,48.049 292.866,48.049 L302.734,48.049 C303.334,48.049 303.823,47.561 303.823,46.962 L303.823,1.651 C303.823,1.051 303.334,0.565 302.734,0.565" id="Fill-7" fill="#174489"></path>
            <path d="M354.178,20.388 C354.616,20.761 355.261,20.761 355.699,20.389 L377.601,2.187 C377.905,1.928 378.081,1.532 378.013,1.139 C377.919,0.598 377.454,0.229 376.931,0.229 L363.699,0.229 C363.445,0.229 363.198,0.319 362.995,0.485 L347.626,13.014 C347.07,13.482 347.068,14.337 347.621,14.808 L354.178,20.388" id="Fill-8" fill="#174489"></path>
            <path d="M354.104,28.346 C354.543,27.973 355.187,27.972 355.626,28.345 L377.854,46.499 C378.158,46.757 378.334,47.154 378.266,47.547 C378.172,48.087 377.707,48.457 377.184,48.457 L363.951,48.457 C363.698,48.457 363.451,48.367 363.248,48.201 L347.975,35.484 C347.419,35.016 347.417,34.161 347.97,33.69 L354.104,28.346" id="Fill-9" fill="#174489"></path>
        </g>
    </g>
</svg>