<svg class="landing-image" viewBox="0 0 1200 900"><defs><style>.p-1{fill:none;stroke:#000;stroke-miterlimit:10;stroke-width:10px}.p-2{fill:#476baf}.p-3{fill:#64c489}</style></defs><polygon points="390 480 420 450 390 420 390 480"/><line x1="380" x2="100" y1="450" y2="450" class="p-1"/><path d="M380,580c-110,0-180,220-280,220" class="p-1"/><polygon points="1070 480 1100 450 1070 420 1070 480"/><line x1="790" x2="1060" y1="450" y2="450" class="p-1"/><line x1="790" x2="1060" y1="320" y2="320" class="p-1"/><line x1="790" x2="1060" y1="580" y2="580" class="p-1"/><polygon points="1069 610 1099 580 1069 550 1069 610"/><polygon points="390 610 420 580 390 550 390 610"/><polygon points="390 350 420 320 390 290 390 350"/><path d="M380,320c-110,0-180-219.46-280-219.46" class="p-1"/><polygon points="1069.5 350 1099.5 320 1069.5 290 1069.5 350"/><path d="M455.37,455v72.52c0,85.52,114.17,133,139.63,142.57V455Z"/><path d="M595,445V202.77L455.37,280V445Z" class="p-2"/><path d="M744.6,445c0-82.16-.1-165.19-.1-165.19L605,202.76V445Z"/><path d="M605,455V670.09c25.46-9.53,139.63-57.05,139.63-142.57v-.26c0-22,0-46.94,0-72.26Z" class="p-3"/></svg>