<svg class="landing-image" viewBox="0 0 1200 900"><defs><style>.r-1,.r-3,.r-4{fill:none;stroke-miterlimit:10;stroke-width:10px}.r-1{stroke:#000}.r-2{fill:#476baf}.r-3{stroke:#64c489}.r-4{stroke:#476baf}</style></defs><polygon points="100 277.57 100 320 142.43 320 100 277.57"/><polygon points="210 587.57 210 630 252.43 630 210 587.57"/><polygon points="890.5 329.07 890.5 371.5 932.93 371.5 890.5 329.07"/><path d="M100,795c84.32-10.77,165-40.47,241.15-77.37C476.51,652,603.47,561.86,751.25,525.42c117.73-29,287.93-22.63,349.46,102,2.07,4.19,3.6,8.49,5.42,12.77l-6.64,3.86c-36.75-34.34-82.24-55.82-131.45-65.17-53.63-10.2-108.94-7-162.24,3.64-50.57,10.12-99.64,26.81-147.29,46.36C574.75,663.27,494.88,706.24,411.75,742c-82,35.28-168.81,63.89-258.89,65.28A468,468,0,0,1,95,804.45v-8.86C96.67,795.4,98.33,795.19,100,795Z"/><path d="M100,650s57.21,62.93,150,93.6" class="r-1"/><line x1="129.95" x2="320.87" y1="290.92" y2="100" class="r-1"/><line x1="700" x2="741.13" y1="141.13" y2="100" class="r-1"/><line x1="240" x2="590" y1="600" y2="251.1" class="r-1"/><line x1="920" x2="1100" y1="340.13" y2="159.13" class="r-1"/><polygon points="560.21 510.56 682.41 461.91 630.82 237.77 560.21 510.56" class="r-2"/><polygon points="692.15 459.66 872.05 438.78 604.68 79.6 692.15 459.66" class="r-2"/><path d="M714.75,524.54c16.31-5,32.76-9.5,49.56-13.38l110-62.63L562.45,520.3l97,23.49C677.6,536.77,696,530.3,714.75,524.54Z" class="r-2"/><polygon points="296 282.57 296 325 338.43 325 296 282.57" class="r-2"/><polygon points="450.5 557.07 450.5 599.5 492.93 599.5 450.5 557.07" class="r-2"/><path d="M477,800c100-30,211-101.14,330-124,250-48,293,102,293,102" class="r-3"/><line x1="100.43" x2="240.87" y1="520.43" y2="380" class="r-3"/><line x1="325.5" x2="520" y1="294.5" y2="100" class="r-4"/><line x1="800.13" x2="950.02" y1="249.13" y2="100" class="r-3"/><line x1="481" x2="520.33" y1="569" y2="530.33" class="r-4"/><line x1="1004.63" x2="1099.51" y1="474.63" y2="379.51" class="r-4"/></svg>