<?xml version="1.0" encoding="UTF-8"?>
<svg version="1.1" viewBox="0 0 2048 1378" width="1280" height="1280" xmlns="http://www.w3.org/2000/svg">
<path transform="translate(1215,105)" d="m0 0h119l22 1 7 2 7 7 13 21 21 32 15 23 29 44 12 19 15 23 1 4-7 8-24 22-10 9-13 12-8 7-16 15-8 7-15 15-8 7-12 11-15 14-11 9-11 11-8 7-15 14-8 7-13 13-11 9-15 15-11 9-12 12-8 7-13 12-32 30-12 11-40 36-8 7-13 13-8 7-12 11-9 9-11 9-16 16-5-1-10-9-10-8-8-8-8-7-16-15-24-22-10-9-12-11-8-7-12-11-11-10-8-7-15-14-8-7-7-7-8-7-10-9-36-33-13-12-9-9-8-7-13-12-12-11-13-12-12-11-8-7-20-18-8-8-8-7-12-12-8-7-16-15-10-9-7-7-8-7-16-15-12-10 1-6 10-16 15-23 14-23 12-19 12-18 15-24 14-23 11-17 5-6 2-1 34-2zm-349 34-101 1-1 2-1 33 67-15 30-8 24-5 10-4 2-4zm436 1-59 1h-60l1 4 13 4 62 15 45 10 1-33zm-277 4-71 15-4 2v387l11 11 8 7 14 13 8 7 10 10 8 7 17 16h3l-1-12v-463zm16 1-1 227v255l6-2 43-43 11-9 12-11 6-5 1-2v-393l-2-2-41-9-33-6zm118 25-1 9v45l4 10v6l-4 5-1 93 1 9 3 6 1 8-4 8v18l3 7 1 10-4 7v20l5 8v5l-5 4v52l1 9 6-2 10-9 13-12 62-62 8-7 22-22 8-7 12-12 5-8-1-166-5-3-40-9-56-12-39-8zm-255 0-36 7-84 18-18 4-2 1v168l7 8 14 12 13 13 8 7 18 18 8 7 17 16 27 27 8 7 10 9 12 11h1v-333zm-183 32-7 7-27 36-12 17-8 12 1 4 7 8 8 7 28 28 8 7 3 3h2v-126l-1-3zm625 0v128l8-6 32-32 11-9 5-5v-5l-14-19-16-21-12-17-8-10-4-4z" fill="#9B8A6B"/>
<path transform="translate(447,793)" d="m0 0h66l19 3 17 5 16 8 13 10 8 10 7 16 3 12 1 10v13l-2 13-5 15-8 11-13 13-13 8-9 4h-2l12 16 12 15 9 12 10 13 11 14 12 15 6 9 1 5-42 1-21 1-6-4-10-12-8-11-14-18-10-14-12-15-9-12-5-4-3-1-25-1v89l-1 1-57 1-2-1-1-11v-229l3-3 22-4zm24 43-15 2-3 1v67l7 2 9 1h28l18-4 12-6 5-5 3-4 2-10v-17l-3-10-7-8-10-5-14-3-9-1z" fill="#9B8A6B"/>
<path transform="translate(1561,794)" d="m0 0h67l4 4 16 41 17 47 13 34 14 38 15 40 14 37 1 8-6 2-17-1-37-1-3-4-18-51-4-8-103-1-3 11-15 42-5 10-3 2-57-1 1-6 18-50 11-29 15-40 26-70 17-46 3-6 1-1zm25 45-4 6-7 21-15 41-8 19-1 4h62l7-1-11-32-14-39-6-17z" fill="#9B8A6B"/>
<path transform="translate(1057,792)" d="m0 0 37 1 33 3 2 1 1 6v46l-9-1-23-5-9-1-37-1-14 1-10 3-11 6-5 6-2 4v13l4 6 6 4 16 5 35 7 26 8 16 8 11 8 9 9 7 13 2 9 1 9v17l-2 15-7 14-9 12-9 8-21 11-21 6-19 3-14 1h-18l-25-2-25-4-17-5-3-2-1-4v-44l3-1 13 4 39 6 21 3h17l5-2 12-2 12-6 5-6 2-7v-7l-3-8-1-3-5-2-13-5-49-11-17-5-15-8-11-9-7-7-7-11-4-10-2-9v-22l4-15 8-16 7-8 8-7 14-8 13-6 18-4 9-1z" fill="#9B8A6B"/>
<path transform="translate(239,792)" d="m0 0 38 1 23 2 6 2 1 2v24l-1 26-6-1-16-4-15-2h-34l-23 5-16 6-13 8-7 7-8 14-4 13-2 15v22l3 17 5 12 7 11 10 8 15 8 18 5 19 2h21l18-2 23-5h5l1 6v25l-1 19-5 3-27 4-32 2h-12l-25-2-17-3-18-5-16-7-15-9-14-12-10-13-8-14-7-15-8-20-2-9v-32l3-14 8-24 8-18 9-14 8-9 13-10 17-9 23-9 17-4 15-2z" fill="#9B8A6B"/>
<path transform="translate(1193,795)" d="m0 0h238l1 1-1 40-1 7-2 2-10 1h-74v196l-2 1h-60l-1-1-1-117v-46l1-33h-84l-3-3-1-6z" fill="#9B8A6B"/>
<path transform="translate(678,794)" d="m0 0h30l7 8 13 19 11 15 13 19 12 17 9 12 2 2 6-8 11-16 13-19 19-28 12-17 3-3 4-1h52l4 1-1 5-16 25-38 57-9 13-8 12-13 18-7 11-2 5v100l-1 1-29 2h-31l-1-4-1-100-6-10-15-20-13-19-12-17-15-22-19-28-12-17-7-10v-2z" fill="#9B8A6B"/>
<path transform="translate(1798,795)" d="m0 0h63l1 1v197l129-1-1 12-1 35-1 1h-186l-3-1-1-27z" fill="#9B8A6B"/>
<path transform="translate(1443,1136)" d="m0 0h11l5 4 12 26 11 24 5 9v-59l2-3h12l3 2v68l-1 31-7 2h-5l-6-7-12-26-9-21-5-12v49l-1 16-1 1h-13l-2-3v-100z" fill="#9B8A6B"/>
<path transform="translate(1814,1136)" d="m0 0h11l5 6 12 28 12 26 3 6v-42l1-22 3-2h10l1 1 1 28v32l-1 30-1 14-2 2h-6l-6-7-10-19-13-31-6-11-1 52-1 15h-9l-4-1-1-4v-98z" fill="#9B8A6B"/>
<path transform="translate(593,1135)" d="m0 0 6 2 5 6 15 35 9 19 2 3 1-62 7-2h7l2 2-1 96-1 7-1 1h-8l-6-7-13-28-10-23-6-13-1 68-2 2h-6l-5-3-1-3-1-17 1-78 3-4z" fill="#9B8A6B"/>
<path transform="translate(96,1136)" d="m0 0h23l13 2 8 5 4 6 1 3v24l-2 8 1 8 3 5 1 6v16l-2 8-4 6-8 6-11 3h-21l-6-2-2-4-1-8v-77l1-12zm15 12-3 1-1 2v29l1 1h19l4-7 1-2v-14l-3-5-4-3-10-2zm-3 45-1 5v25l2 5h15l5-3 4-5v-17l-3-6-4-3-6-1z" fill="#9B8A6B"/>
<path transform="translate(1968,1134)" d="m0 0h17l8 3 7 6 4 8 1 4v10l-5 4h-7l-3-3-2-11-3-5-4-2h-11l-5 5-2 6-1 12v37l2 16 3 4 8 1 9-3 4-8v-8l-2-9-5-2-9-3-2-5 1-2 7-1h24l3 2 1 3v41l-2 3-14 2-11 3h-17l-6-3-5-8-2-9-1-10v-53l2-9 5-8 8-6z" fill="#9C8B6D"/>
<path transform="translate(1584,1136)" d="m0 0h19l14 1 9 3 6 7 2 4 1 14v53l-1 11-3 5-5 2-6 1h-32l-6-2-1-1v-96zm13 13v79h18l5-3 1-3v-66l-3-5-5-2z" fill="#9B8A6B"/>
<path transform="translate(864,1134)" d="m0 0h17l8 3 5 5 3 5 1 4v16l-3 5-5 1-4-2-1-2-2-14-3-5-3-2h-12l-5 5-1 8 6 9 16 15 10 10 7 11 3 9v8l-2 6-6 8-6 4-8 2h-14l-9-2-8-7-4-7-1-4v-10l3-7 2-2h8l1 1 2 17 2 5 8 3 11-2 4-5v-7l-4-9-9-10-14-12-11-14-3-7v-10l4-9 4-5 9-5z" fill="#9B8A6B"/>
<path transform="translate(1309,1136)" d="m0 0 13 1 2 1 1 83 2 7 7 2 10-1 5-5 1-7 1-79 1-1h13l-1 92-4 6-5 4-10 3h-19l-9-3-6-7-2-4-1-7v-84z" fill="#9B8A6B"/>
<path transform="translate(375,1134)" d="m0 0h17l7 3 5 5 4 8v19l-3 4h-7l-3-3-1-2-1-13-2-6-4-1h-12l-5 5v9l6 9 12 11 10 9 9 11 4 10v14l-4 8-7 6-6 2-15 1-12-2-7-5-5-9-1-3v-14l3-5 5-1 5 2 2 15 3 6 7 3 10-1 4-2 2-4v-7l-4-8-5-6-8-7-7-6-7-8-7-10-2-6v-13l5-10 9-6z" fill="#9B8A6B"/>
<path transform="translate(993,1134)" d="m0 0h17l8 3 5 4 4 8 1 4v13l-3 5-2 1h-8l-2-4v-11l-3-6-4-3-8-1-7 3-3 5v8l9 10 7 7 8 7 10 10 7 11 2 10-2 12-6 8-10 4-7 1h-12l-10-3-5-5-5-7-1-3v-16l4-5 7 1 1 1 1 12 4 9 8 3 10-1 5-3 2-7-4-10-9-10-11-9-7-7-7-10-4-9v-12l6-10 8-6z" fill="#9B8A6B"/>
<path transform="translate(269,1136)" d="m0 0h8v92l-2 7-4 4-10 3h-20l-9-3-5-5-4-8-1-8v-81h15v77l2 13 5 2h14l5-3 2-11v-45l1-32z" fill="#9B8A6B"/>
<path transform="translate(728,1136)" d="m0 0h44l1 1v10l-1 1h-30v34l25 1 2 2-1 9-1 1-25 1-1 31 32 1 3 3v9l-1 1-9 1h-38l-1-1-1-9v-94z" fill="#9B8A6B"/>
<path transform="translate(1196,1136)" d="m0 0h29l15 1 1 1v9l-1 1h-31l-1 15v19l26 1 2 4-1 7-2 1h-25v45l-4 2-9-1-1-1-1-10v-91z" fill="#9B8A6B"/>
<path transform="translate(1710,1136)" d="m0 0h24l4 1 1 4-4 7-2 1-1 3-1 73 1 3 5 3 2 4v5l-1 1-10 1-16-1-3-1-1-4 4-8 4-2v-73l-2-4-5-4-2-6z" fill="#9C8B6C"/>
<path transform="translate(484,1136)" d="m0 0h25l3 1v6l-6 7-1 3-1 46v27l5 2 3 5v7l-1 1-14 1-12-1-3-1-1-5 6-7 2-1v-71l-2-7-5-6v-6z" fill="#9B8A6B"/>
<path transform="translate(84,1228)" d="m0 0h1l2 12-4-4v-6z" fill="#E1DCD3"/>
</svg>
