<svg xmlns="http://www.w3.org/2000/svg" xmlns:xlink="http://www.w3.org/1999/xlink" width="142" height="46" version="1.1" viewBox="0 0 142 46"><title>Logo-Alcide-Rapid7-color</title><g id="Website-Components" fill="none" fill-rule="evenodd" stroke="none" stroke-width="1"><g id="Logo-Alcide-Rapid7-color"><g id="logo" fill="#0031E2"><g id="Type" fill-rule="nonzero" transform="translate(54.713916, 6.800889)"><path id="Shape" d="M12.2226219,5.6197824 L12.2226219,8.14868448 C11.752521,7.21205408 11.0003597,6.46274976 10.1541782,5.99443456 C9.2139765,5.43245632 8.27377481,5.1514672 7.14553279,5.1514672 C6.11131094,5.1514672 5.17110926,5.33879328 4.32492774,5.80710848 C3.47874623,6.27542368 2.72658488,6.83740192 2.0684437,7.58670624 C1.41030253,8.33601055 0.940201684,9.27264095 0.56412101,10.3029344 C0.188040337,11.3332278 0,12.4571843 0,13.6748038 C0,14.8924234 0.188040337,16.0163798 0.56412101,17.0466733 C0.940201684,18.0769667 1.41030253,19.0135971 2.0684437,19.7629014 C2.72658488,20.5122057 3.5727664,21.167847 4.41894791,21.5424992 C5.3591496,22.0108144 6.39337145,22.1981405 7.4275933,22.1981405 C8.55583532,22.1981405 9.40201684,21.9171513 10.2481984,21.4488361 C11.0003597,20.9805209 11.6585009,20.3248797 12.1286017,19.3882493 L12.1286017,21.8234883 L17.0176505,21.8234883 L17.0176505,5.52611936 L12.2226219,5.52611936 L12.2226219,5.6197824 Z M12.2226219,15.7353907 C11.8465412,16.484695 11.3764404,17.0466733 10.8123194,17.4213254 C10.2481984,17.7959776 9.59005717,18.0769667 8.83789582,18.0769667 C8.27377481,18.0769667 7.80367397,17.9833037 7.33357313,17.7023145 C6.86347229,17.5149885 6.48739162,17.1403363 6.11131094,16.7656841 C5.73523027,16.391032 5.54718993,15.9227168 5.3591496,15.4544016 C5.17110926,14.9860864 5.07708909,14.4241082 5.07708909,13.7684669 C5.07708909,13.2064886 5.17110926,12.6445104 5.3591496,12.1761952 C5.54718993,11.614217 5.73523027,11.1459018 6.11131094,10.7712496 C6.39337145,10.3965974 6.76945212,10.0219453 7.23955296,9.83461919 C7.7096538,9.55363007 8.17975465,9.45996703 8.64985549,9.45996703 C9.40201684,9.45996703 10.1541782,9.74095615 10.8123194,10.2092714 C11.4704605,10.7712496 11.9405614,11.4268909 12.3166421,12.2698582 L12.3166421,15.7353907 L12.2226219,15.7353907 Z M36.5738455,17.5149885 C36.1037446,17.7959776 35.5396236,17.9833037 34.8814825,17.9833037 C34.4113816,17.9833037 33.9412808,17.8896406 33.4711799,17.7023145 C33.0010791,17.5149885 32.6249984,17.2339993 32.3429379,16.8593472 C32.0608774,16.484695 31.7788169,16.0163798 31.5907766,15.4544016 C31.4027362,14.8924234 31.3087161,14.3304451 31.3087161,13.6748038 C31.3087161,12.3635213 31.6847967,11.3332278 32.3429379,10.5839235 C33.0010791,9.83461919 33.8472606,9.36630399 34.8814825,9.36630399 C36.1037446,9.36630399 36.9499262,9.92828223 37.6080673,10.9585757 L42.3090758,9.45996703 C41.6509346,8.14868448 40.8047531,7.11839104 39.4884707,6.27542368 C38.2662085,5.43245632 36.7618858,5.05780416 34.8814825,5.05780416 C33.5652001,5.05780416 32.3429379,5.24513024 31.3087161,5.71344544 C30.2744942,6.18176064 29.3342925,6.83740192 28.6761513,7.58670624 C27.92399,8.33601055 27.359869,9.27264095 26.9837883,10.3029344 C26.6077076,11.3332278 26.4196673,12.4571843 26.4196673,13.5811408 C26.4196673,14.7050973 26.6077076,15.8290538 26.9837883,16.8593472 C27.359869,17.8896406 27.92399,18.826271 28.6761513,19.5755753 C29.4283127,20.3248797 30.2744942,20.9805209 31.3087161,21.4488361 C32.3429379,21.9171513 33.5652001,22.1981405 34.8814825,22.1981405 C36.6678657,22.1981405 38.2662085,21.8234883 39.4884707,20.9805209 C40.8047531,20.1375536 41.6509346,19.1072601 42.3090758,17.7959776 L37.6080673,16.297369 C37.420027,16.8593472 37.0439463,17.2339993 36.5738455,17.5149885 M19.6502152,0.0936630399 L19.6502152,22.2918035 L24.5392639,22.2918035 L24.5392639,0.0936630399 L19.6502152,0.0936630399 L19.6502152,0.0936630399 Z M48.608427,4.40216288 L48.608427,0 L43.7193783,0 L43.7193783,4.40216288 L48.608427,4.40216288 L48.608427,4.40216288 Z M85.7463935,10.3029344 C85.3703129,9.27264095 84.8061919,8.33601055 84.1480507,7.58670624 C83.3958893,6.83740192 82.5497078,6.18176064 81.515486,5.71344544 C80.4812641,5.24513024 79.2590019,5.05780416 77.9427196,5.05780416 C76.6264372,5.05780416 75.404175,5.24513024 74.3699532,5.71344544 C73.3357313,6.18176064 72.3955296,6.83740192 71.7373885,7.58670624 C70.9852271,8.42967359 70.4211061,9.27264095 70.0450254,10.3965974 C69.6689447,11.4268909 69.4809044,12.5508474 69.4809044,13.7684669 C69.4809044,14.8924234 69.6689447,15.9227168 70.0450254,16.9530102 C70.4211061,17.9833037 70.9852271,18.826271 71.7373885,19.6692384 C72.4895498,20.4185427 73.3357313,21.074184 74.3699532,21.5424992 C75.404175,22.0108144 76.6264372,22.1981405 77.9427196,22.1981405 C79.7291028,22.1981405 81.3274456,21.8234883 82.643728,20.9805209 C83.9600103,20.1375536 84.900212,19.1072601 85.5583532,17.7959776 L81.515486,16.5783581 C81.3274456,17.1403363 80.8573448,17.7023145 80.1992036,17.9833037 C79.5410624,18.3579558 78.8829212,18.5452819 78.1307599,18.5452819 C77.2845784,18.5452819 76.4383969,18.2642928 75.7802557,17.7023145 C75.1221145,17.1403363 74.7460338,16.297369 74.6520137,15.1734125 L86.3105145,15.1734125 C86.3105145,14.9860864 86.4045347,14.7050973 86.4045347,14.4241082 L86.4045347,13.5811408 C86.3105145,12.4571843 86.1224742,11.3332278 85.7463935,10.3029344 M74.4639733,12.0825322 C74.5579935,11.0522387 74.9340742,10.2092714 75.4981952,9.64729311 C76.0623162,8.99165183 76.9084977,8.71066271 77.8486994,8.71066271 C78.7889011,8.71066271 79.5410624,8.99165183 80.1992036,9.64729311 C80.8573448,10.2092714 81.1394053,11.0522387 81.2334255,12.1761952 L74.4639733,12.0825322 L74.4639733,12.0825322 Z M43.7193783,6.27542368 L43.7193783,22.1981405 L48.608427,22.1981405 L48.608427,6.27542368 L43.7193783,6.27542368 Z M62.8994926,0 L62.8994926,8.71066271 C62.4293918,7.86769536 61.6772304,7.11839104 60.8310489,6.65007584 C59.8908472,6.0880976 58.9506456,5.90077152 57.8224035,5.90077152 C56.7881817,5.90077152 55.84798,6.0880976 55.0017985,6.5564128 C54.155617,6.93106496 53.4034556,7.58670624 52.7453144,8.24234752 C52.0871733,8.99165183 51.6170724,9.83461919 51.2409918,10.8649126 C50.8649111,11.8952061 50.6768707,12.9254995 50.6768707,14.049456 C50.6768707,15.2670755 50.8649111,16.297369 51.2409918,17.3276624 C51.6170724,18.3579558 52.1811934,19.2009232 52.8393346,19.9502275 C53.4974758,20.6995318 54.3436573,21.2615101 55.283859,21.6361622 C56.2240607,22.0108144 57.2582825,22.2918035 58.2925044,22.2918035 C60.4549682,22.2918035 61.9592909,21.4488361 62.9935128,19.6692384 L62.9935128,21.9171513 L67.8825615,21.9171513 L67.8825615,0 L62.8994926,0 L62.8994926,0 Z M61.5832103,17.6086515 C61.0190893,17.9833037 60.2669279,18.1706297 59.6087867,18.1706297 C59.0446657,18.1706297 58.5745649,18.0769667 58.104464,17.8896406 C57.6343632,17.7023145 57.2582825,17.4213254 56.8822019,17.0466733 C56.5061212,16.6720211 56.3180808,16.297369 56.1300405,15.7353907 C55.9420002,15.2670755 55.84798,14.7050973 55.84798,14.143119 C55.84798,13.5811408 55.9420002,13.1128256 56.1300405,12.5508474 C56.3180808,12.0825322 56.6001413,11.614217 56.8822019,11.2395648 C57.1642624,10.8649126 57.540343,10.5839235 58.0104439,10.3029344 C58.4805447,10.1156083 58.9506456,9.92828223 59.4207464,9.92828223 C60.1729077,9.92828223 60.8310489,10.2092714 61.5832103,10.6775866 C62.2413514,11.1459018 62.8054725,11.801543 63.087533,12.6445104 L63.087533,15.9227168 C62.6174321,16.6720211 62.1473313,17.2339993 61.5832103,17.6086515"/></g><g id="Symbol"><path id="Shape" fill-rule="nonzero" d="M24.1334348,-1.34255805e-13 L0,25.2779041 L1.7841839,27.0633323 C2.15980156,27.4392119 11.8319564,36.4603227 24.0395304,36.4603227 C36.2471044,36.4603227 45.9192592,27.4392119 46.2948769,27.0633323 L48.1729652,25.2779041 L24.1334348,-1.34255805e-13 Z M24.1334348,31.3859479 C16.9027948,31.3859479 10.5172945,27.345242 7.41844883,24.9959944 L24.1334348,7.4236224 L40.8484208,24.9020245 C37.7495751,27.2512721 31.3640748,31.3859479 24.1334348,31.3859479 Z"/><polygon id="Path" points="19.08 21.506 24.063 26.564 29.14 21.506 24.063 16.542"/></g></g><g id="Rapid7-Home" fill-rule="nonzero" transform="translate(84.157999, 33.694915)"><path id="Shape" fill="#242B2E" d="M5.87681852,4.279156 L3.55313488,4.279156 L4.056565,2.00123873 L6.2055043,2.00123873 C6.91280282,2.00123873 7.32886076,2.38193176 7.32886076,2.93736912 C7.32886076,3.66963111 6.79214601,4.279156 5.87681852,4.279156 M9.71079252,2.71269782 C9.71079252,1.14831994 8.50422447,0 6.39481067,0 L2.10109264,0 L0,9.56933282 L2.3923332,9.56933282 L3.11627404,6.28247502 L4.51630903,6.28247502 L5.90802287,9.56933282 L8.29411521,9.56933282 L6.81086862,6.124373 C8.58951635,5.84561418 9.71079252,4.41853541 9.71079252,2.71269782"/><path id="Shape" fill="#242B2E" d="M13.8380874,5.98707388 L15.8892531,2.45890248 L16.6652011,5.98707388 L13.8401677,5.98707388 L13.8380874,5.98707388 Z M14.919838,0 L9.36130384,9.56933282 L11.7473962,9.56933282 L12.6772857,7.98207174 L17.1041423,7.98207174 L17.4536309,9.56933282 L19.8397233,9.56933282 L17.7448715,0 L14.919838,0 Z M26.6901174,4.279156 L24.5682219,4.279156 L25.0674914,2.00123873 L26.9147887,2.00123873 C27.6428901,2.00123873 28.0901524,2.34864712 28.0901524,2.93736912 C28.0901524,3.66963111 27.5388756,4.279156 26.6921977,4.279156 M27.1581826,0 L23.112019,0 L21.0109264,9.56933282 L23.399099,9.56933282 L24.1272004,6.27831444 L26.7941319,6.27831444 C29.0741294,6.27831444 30.4554418,4.55999512 30.4554418,2.74806275 C30.4554418,1.13375791 29.1968665,0.00208028974 27.1561023,0.00208028974"/><polygon id="Shape" fill="#242B2E" points="35.078 0 32.686 0 30.58 9.569 32.973 9.569"/><path id="Shape" fill="#E85E26" d="M52.211112,0 L44.6679814,0 C44.7823973,0.116496226 44.8968132,0.237153031 45.0008277,0.364050705 C45.8454254,1.38755326 46.2906074,2.67317232 46.2906074,4.08776935 C46.2906074,6.27207358 45.3711193,8.24210796 43.8941136,9.56942783 L48.5123568,9.56942783 L50.7070625,4.11481311 L47.96108,4.11481311 L48.4187438,1.99915844 L53.8732635,1.99915844 L51.0087045,9.56942783 L52.132061,9.56942783 C54.7469852,9.58597514 56.5152314,7.41415264 56.5152314,4.77634525 C56.5152314,2.13853786 54.8301968,0 52.2090317,0"/><path id="Shape" fill="#242B2E" d="M38.893097,7.57225466 L37.572113,7.57225466 L38.799484,2.00123873 L40.0476578,2.00123873 C41.4164885,2.00123873 42.1841154,3.02682158 42.1841154,4.31036035 C42.1841154,6.03700083 40.9525839,7.57225466 38.8972576,7.57225466 M43.6860846,1.56021731 C42.8664504,0.561678231 41.5121818,0 39.9145193,0 L36.8481722,0 L34.7408387,9.56933282 L38.5997762,9.56933282 C40.0975848,9.56933282 41.2500653,9.23648646 42.1300279,8.70601257 C43.9190771,7.62010133 44.5535654,5.71039534 44.5535654,4.08776935 C44.5535654,3.07674853 44.2373614,2.21966916 43.6881649,1.56021731"/></g><path id="by" fill="#242B2E" fill-rule="nonzero" d="M74.2568304,43.4003796 C74.8000272,43.4003796 75.2243997,43.2025567 75.5299479,42.806911 C75.8354961,42.4112652 75.9882702,41.8582752 75.9882702,41.1479409 C75.9882702,40.4402182 75.8374548,39.8904926 75.5358238,39.4987641 C75.2341929,39.1070357 74.8130848,38.9111714 74.2724996,38.9111714 C73.7031875,38.9111714 73.2722862,39.1266221 72.9797956,39.5575234 L72.9797956,39.5575234 L72.9406228,39.5575234 C72.9414933,39.5479478 72.9424364,39.5362322 72.9434519,39.5223766 L72.950416,39.4135632 C72.9543333,39.3463165 72.9589035,39.2598098 72.9641265,39.1540431 C72.9745726,38.9425097 72.9797956,38.7832068 72.9797956,38.6761344 L72.9797956,38.6761344 L72.9797956,37.2267391 L72.0592338,37.2267391 L72.0592338,43.3220339 L72.7486758,43.3220339 L72.9171191,42.8088696 L72.9797956,42.8088696 C73.2827323,43.2032096 73.7084106,43.4003796 74.2568304,43.4003796 Z M74.0492143,42.6482609 C73.6705435,42.6482609 73.3976393,42.5300895 73.2305019,42.2937467 C73.0633644,42.0574039 72.9797956,41.6754686 72.9797956,41.1479409 L72.9797956,41.1479409 L72.9797956,41.0852644 C72.9850187,40.5734059 73.0692403,40.2084455 73.2324605,39.9903833 C73.3956807,39.7723212 73.6627089,39.6632901 74.0335452,39.6632901 C74.7073181,39.6632901 75.0442046,40.1555622 75.0442046,41.1401064 C75.0442046,41.6284612 74.959983,42.001909 74.7915398,42.2604498 C74.6230965,42.5189906 74.3756547,42.6482609 74.0492143,42.6482609 Z M77.1185575,45.2493379 C77.9046259,45.2493379 78.4661034,44.7988502 78.8029899,43.8978747 L78.8029899,43.8978747 L80.6558655,38.9895171 L79.6608752,38.9895171 C79.0602249,40.731403 78.7285615,41.7048482 78.6658849,41.9098528 C78.6032084,42.1148574 78.5601182,42.2891765 78.5366145,42.4328103 L78.5366145,42.4328103 L78.5052762,42.4328103 C78.4608803,42.1246506 78.3720886,41.7955987 78.2389009,41.4456546 L78.2389009,41.4456546 L77.3575118,38.9895171 L76.354687,38.9895171 L78.0939614,43.3220339 L77.9333527,43.7294315 C77.7531576,44.2439015 77.4410806,44.5011366 76.9971217,44.5011366 C76.8195381,44.5011366 76.661541,44.4854674 76.5231302,44.4541291 L76.5231302,44.4541291 L76.5231302,45.1827441 C76.7163829,45.22714 76.9148587,45.2493379 77.1185575,45.2493379 Z"/></g></g></svg>