<?xml version="1.0" encoding="UTF-8" standalone="no"?>
<svg
   xmlns:dc="http://purl.org/dc/elements/1.1/"
   xmlns:cc="http://creativecommons.org/ns#"
   xmlns:rdf="http://www.w3.org/1999/02/22-rdf-syntax-ns#"
   xmlns:svg="http://www.w3.org/2000/svg"
   xmlns="http://www.w3.org/2000/svg"
   version="1.1"
   id="Layer_1"
   x="0px"
   y="0px"
   viewBox="0 0 365 46"
   xml:space="preserve"
   width="365"
   height="46"><metadata
   id="metadata64"><rdf:RDF><cc:Work
       rdf:about=""><dc:format>image/svg+xml</dc:format><dc:type
         rdf:resource="http://purl.org/dc/dcmitype/StillImage" /><dc:title></dc:title></cc:Work></rdf:RDF></metadata><defs
   id="defs62">
	
	
	
		<linearGradient
   id="XMLID_53_"
   gradientUnits="userSpaceOnUse"
   x1="1.8196"
   y1="0.2748"
   x2="2.1487"
   y2="0.2748"
   gradientTransform="matrix(195.5818,-52.772,52.772,195.5818,-369.4737,86.1163)">
		<stop
   offset="0"
   style="stop-color:#2973A4"
   id="stop14" />
		<stop
   offset="0.37"
   style="stop-color:#2E7EC1"
   id="stop16" />
		<stop
   offset="1"
   style="stop-color:#25A3DD"
   id="stop18" />
	</linearGradient>
	
	
		<linearGradient
   id="XMLID_54_"
   gradientUnits="userSpaceOnUse"
   x1="-0.9774"
   y1="-0.48289999"
   x2="-0.64829999"
   y2="-0.48289999"
   gradientTransform="matrix(-195.5813,52.7719,-52.7719,-195.5813,-140.1768,-40.7295)">
		<stop
   offset="0"
   style="stop-color:#E40428"
   id="stop22" />
		<stop
   offset="0.3189"
   style="stop-color:#E10627"
   id="stop24" />
		<stop
   offset="0.572"
   style="stop-color:#D80D23"
   id="stop26" />
		<stop
   offset="0.8016"
   style="stop-color:#C9141E"
   id="stop28" />
		<stop
   offset="1"
   style="stop-color:#B71918"
   id="stop30" />
	</linearGradient>
	
	
		<linearGradient
   id="XMLID_58_"
   gradientUnits="userSpaceOnUse"
   x1="1.8196"
   y1="0.27590001"
   x2="2.1487"
   y2="0.27590001"
   gradientTransform="matrix(195.6223,-52.783,52.783,195.6223,-369.7054,85.9261)">
		<stop
   offset="0"
   style="stop-color:#004884"
   id="stop34" />
		<stop
   offset="7.660000e-002"
   style="stop-color:#004C89"
   id="stop36" />
		<stop
   offset="0.4219"
   style="stop-color:#005B9B"
   id="stop38" />
		<stop
   offset="0.7391"
   style="stop-color:#0065A6"
   id="stop40" />
		<stop
   offset="1"
   style="stop-color:#0068AA"
   id="stop42" />
	</linearGradient>
	
	
		<linearGradient
   id="XMLID_59_"
   gradientUnits="userSpaceOnUse"
   x1="-0.97670001"
   y1="-0.4831"
   x2="-0.6476"
   y2="-0.4831"
   gradientTransform="matrix(-195.6242,52.7834,-52.7834,-195.6242,-140.1796,-40.8131)">
		<stop
   offset="0"
   style="stop-color:#E40428"
   id="stop46" />
		<stop
   offset="0.3189"
   style="stop-color:#E10627"
   id="stop48" />
		<stop
   offset="0.572"
   style="stop-color:#D80D23"
   id="stop50" />
		<stop
   offset="0.8016"
   style="stop-color:#C9141E"
   id="stop52" />
		<stop
   offset="1"
   style="stop-color:#B71918"
   id="stop54" />
	</linearGradient>
	
</defs>
<style
   type="text/css"
   id="style10">
	.st0{fill:#585857;}
	.st1{fill:#6C6A6C;}
	.st2{fill:url(#XMLID_53_);}
	.st3{fill:url(#XMLID_54_);}
	.st4{fill:url(#XMLID_58_);}
	.st5{fill:url(#XMLID_59_);}
</style>
<path
   id="XMLID_18_"
   class="st0"
   d="m 163.6,11 h -5.3 V 0 h -7.9 v 11 h -5.2 v 7 h 5.2 v 27 h 7.9 V 18 h 5.3 z m 16.7,-1 c -4.6,0 -9.1,1.9 -12.5,5.3 -3.4,3.4 -5.1,7.8 -5.1,12.6 0,4.8 1.8,9.1 5,12.6 3.5,3.7 7.7,5.5 12.8,5.5 5.1,0 9.5,-1.8 12.9,-5.3 3.4,-3.5 5.1,-7.8 5.1,-12.9 0,-4.7 -2,-9.4 -5.6,-12.8 -3.6,-3.3 -7.7,-5 -12.6,-5 z m 0.2,28.1 c -5.8,0 -9.6,-3.9 -9.6,-10.3 0,-5.9 3.9,-10 9.6,-10 5.5,0 9.6,4 9.6,9.8 0,6.6 -3.9,10.5 -9.6,10.5 z M 87.9,0.2 69,45.7 h 9.3 l 5,-12.1 h 16.3 l 4.7,12.1 h 9.3 L 94.5,0.2 Z m -1.8,25.6 5,-13.7 h 0.1 l 5.2,13.7 z m 48.8,0 c 0,8.2 -1.6,12.5 -7.4,12.5 -5.8,0 -7,-3.9 -7,-12 V 11 h -8 v 19.7 c 0,9.9 4.8,15.2 13.3,15.2 3.9,0 6.8,-1.5 9.1,-4.6 V 45 h 7.9 V 11 H 135 V 25.8 Z M 329.1,10 c -4.7,0 -9.2,2 -12.7,5.7 -3.2,3.4 -4.8,7.6 -4.8,12.4 0,4.6 1.8,9.2 5.1,12.6 3.4,3.6 7.7,5.3 12.8,5.3 7.6,0 13.6,-4.3 16.5,-11.7 h -8.6 c -1.6,2.7 -4.6,4.3 -8.1,4.3 -5.4,0 -8.9,-3 -9.5,-7.9 h 27.3 c 0,-0.6 0.1,-1.1 0.1,-1.7 0,-4.5 -1,-8.1 -3.2,-11.2 -3.7,-5 -9,-7.8 -14.9,-7.8 z M 320,24.3 c 1.2,-4.3 4.9,-7 9.1,-7 4.8,0 8.1,2.4 9.5,7 z M 356.2,15 v -4 h -7.4 v 34.1 h 7.9 V 27.7 c 0,-6.3 1.5,-9.3 8.2,-9.8 v -7.4 c -3.6,0 -6.3,1.5 -8.7,4.5 z m -54.3,-1.2 c -3,-2.5 -6.3,-3.6 -10.6,-3.6 -4.4,0 -8.6,1.5 -11.7,4.5 -3.7,3.4 -5.8,8.2 -5.8,13.3 0,5.5 2.3,10.5 6.4,14 3,2.6 6.9,4 11.2,4 4,0 7.4,-1.1 10.6,-3.7 v 2.8 h 7.8 V 0 H 302 Z m -9.6,24.3 c -6,0 -10.3,-4.4 -10.3,-10 0,-5.5 4.4,-10.1 9.9,-10.1 5.5,0 9.7,4.4 9.7,10.2 0,5.7 -4.2,9.9 -9.3,9.9 z M 263.2,15.2 c -2.2,-3.4 -5.8,-5 -10.7,-5 -5.1,0 -9.2,1.7 -12.6,5.3 -3.2,3.3 -4.9,7.7 -4.9,12.5 0,10.2 7.5,18 17.7,18 5.3,0 8.7,-1.5 10.6,-4.9 v 4.2 H 271 V 11 h -7.7 z m -10.3,22.7 c -5.3,0 -9.8,-4.2 -9.8,-10.1 0,-5.5 4.4,-9.8 9.7,-9.8 5,0 9.6,4.4 9.6,10.2 0,5.2 -4.5,9.7 -9.5,9.7 z M 222,0 h -31.1 v 7.9 h 11.2 v 37.2 h 8.8 V 7.9 h 11.2 V 0 Z m 12.9,10.5 c -3.7,0 -6.4,1.5 -8.8,4.4 V 11 h -7.4 v 34.1 h 7.9 V 27.7 c 0,-6.3 1.5,-9.3 8.2,-9.8 v -7.4 z" /><path
   id="XMLID_34_"
   class="st1"
   d="m 163.5,11 h -5.3 V 0 h -7.9 v 11 h -5.2 v 7 h 5.2 v 27 h 7.9 V 18 h 5.3 z m 16.7,-1 c -4.6,0 -9.1,1.9 -12.5,5.3 -3.4,3.4 -5.1,7.8 -5.1,12.6 0,4.8 1.8,9.1 5,12.6 3.5,3.7 7.7,5.5 12.8,5.5 5.1,0 9.5,-1.8 12.9,-5.3 3.4,-3.5 5.1,-7.8 5.1,-12.9 0,-4.7 -2,-9.4 -5.6,-12.8 -3.5,-3.3 -7.6,-5 -12.6,-5 z m 0.2,28.1 c -5.8,0 -9.6,-3.9 -9.6,-10.3 0,-5.9 3.9,-10 9.6,-10 5.5,0 9.6,4 9.6,9.8 0,6.6 -3.8,10.5 -9.6,10.5 z M 87.8,0.2 68.9,45.7 h 9.3 l 5,-12.1 h 16.3 l 4.7,12.1 h 9.3 L 94.4,0.2 Z M 86,25.8 91,12.1 h 0.1 l 5.2,13.7 z m 48.9,0 c 0,8.3 -1.6,12.5 -7.4,12.5 -5.8,0 -7,-3.9 -7,-12 V 11 h -8 v 19.7 c 0,9.9 4.8,15.2 13.3,15.2 3.9,0 6.8,-1.5 9.1,-4.6 V 45 h 7.9 V 11 H 135 Z M 329.1,10 c -4.7,0 -9.2,2 -12.7,5.7 -3.2,3.4 -4.8,7.6 -4.8,12.4 0,4.6 1.8,9.2 5.1,12.6 3.4,3.6 7.7,5.3 12.8,5.3 7.6,0 13.6,-4.3 16.5,-11.7 h -8.6 c -1.7,2.7 -4.6,4.3 -8.1,4.3 -5.4,0 -8.9,-3 -9.5,-7.9 h 27.3 c 0,-0.6 0.1,-1.1 0.1,-1.7 0,-4.5 -1,-8.1 -3.2,-11.2 -3.7,-5 -9,-7.8 -14.9,-7.8 z M 320,24.3 c 1.2,-4.3 4.9,-7 9.1,-7 4.8,0 8.1,2.4 9.5,7 z M 356.2,15 v -4 h -7.4 v 34.1 h 7.9 V 27.7 c 0,-6.3 1.5,-9.3 8.3,-9.8 v -7.4 c -3.7,0 -6.4,1.5 -8.8,4.5 z m -54.3,-1.2 c -3,-2.5 -6.3,-3.6 -10.6,-3.6 -4.4,0 -8.6,1.5 -11.7,4.5 -3.7,3.4 -5.8,8.2 -5.8,13.3 0,5.5 2.3,10.5 6.4,14 3,2.6 6.9,4 11.2,4 4,0 7.4,-1.1 10.6,-3.7 v 2.8 h 7.8 V 0 H 302 v 13.8 z m -9.6,24.3 c -6,0 -10.3,-4.4 -10.3,-10 0,-5.5 4.4,-10.1 9.9,-10.1 5.5,0 9.7,4.4 9.7,10.2 0,5.7 -4.3,9.9 -9.3,9.9 z M 263.1,15.2 c -2.2,-3.4 -5.8,-5 -10.7,-5 -5.1,0 -9.2,1.7 -12.6,5.3 -3.2,3.3 -4.9,7.7 -4.9,12.5 0,10.2 7.6,18 17.7,18 5.3,0 8.7,-1.5 10.6,-4.9 v 4.2 h 7.7 V 11 h -7.7 v 4.2 z m -10.2,22.7 c -5.3,0 -9.8,-4.2 -9.8,-10.1 0,-5.5 4.4,-9.8 9.7,-9.8 5,0 9.6,4.4 9.6,10.2 -0.1,5.2 -4.6,9.7 -9.5,9.7 z M 221.9,0 H 190.8 V 7.9 H 202 v 37.2 h 8.8 V 7.9 H 222 V 0 Z m 13,10.5 c -3.7,0 -6.4,1.5 -8.8,4.4 V 11 h -7.4 v 34.1 h 7.9 V 27.7 c 0,-6.3 1.5,-9.3 8.3,-9.8 z" /><path
   id="XMLID_35_"
   class="st2"
   d="m 51.8,45.7 v 0 c 0.1,0 0.3,0 0.4,0 4,0 7.4,-2.5 8.8,-6.1 L 66.8,25.7 H 8.4 l -8.3,20 z"
   style="fill:url(#XMLID_53_)" /><path
   id="XMLID_36_"
   class="st3"
   d="m 25.6,0.3 v 0 c -0.1,0 -0.3,0 -0.4,0 -4,0 -7.4,2.5 -8.8,6.1 l -5.8,13.9 h 58.3 l 8.3,-20 z"
   style="fill:url(#XMLID_54_)" /><path
   id="XMLID_37_"
   class="st4"
   d="m 51.7,45.7 v 0 c 0.1,0 0.3,0 0.4,0 4,0 7.4,-2.5 8.8,-6.1 L 66.7,25.7 H 8.3 L 0,45.7 Z"
   style="fill:url(#XMLID_58_)" /><path
   id="XMLID_38_"
   class="st5"
   d="m 25.5,0.3 v 0 c -0.1,0 -0.3,0 -0.4,0 -4,0 -7.4,2.5 -8.8,6.1 l -5.8,13.8 h 58.3 l 8.3,-20 z"
   style="fill:url(#XMLID_59_)" />
</svg>
