<svg xmlns="http://www.w3.org/2000/svg" xmlns:xlink="http://www.w3.org/1999/xlink" id="Layer_1" width="196.538" height="147.928" x="0" y="0" enable-background="new 0 0 196.538 147.928" version="1.1" viewBox="0 0 196.538 147.928" xml:space="preserve"><metadata><sfw xmlns="http://ns.adobe.com/SaveForWeb/1.0/"><slices/><sliceSourceBounds width="1058.27" height="1322.121" x="1167.314" y="-5316.646" bottomLeftOrigin="true"/></sfw></metadata><g><g><g><path fill="#222" d="M22.522,128.779c0,5.588-3.34,9.302-8.484,9.302c-2.385,0-4.327-0.954-5.622-2.657v2.453H2.521v-25.283 h5.895v9.336c1.295-1.669,3.169-2.623,5.485-2.623C19.081,119.307,22.522,123.089,22.522,128.779z M16.594,128.609 c0-2.795-1.67-4.771-4.123-4.771c-2.385,0-4.055,1.977-4.055,4.771c0,2.861,1.67,4.804,4.055,4.804 C14.924,133.413,16.594,131.437,16.594,128.609z"/><path fill="#222" d="M41.941,125.883v11.994h-5.758v-2.113c-1.192,1.568-3.135,2.385-5.622,2.385 c-3.919,0-6.304-2.385-6.304-5.758c0-3.475,2.487-5.52,7.053-5.554h4.839v-0.272c0-1.807-1.192-2.896-3.578-2.896 c-1.533,0-3.543,0.545-5.485,1.533l-1.67-3.885c2.862-1.328,5.452-2.078,8.519-2.078 C38.978,119.238,41.907,121.727,41.941,125.883z M36.149,131.641v-1.635h-3.714c-1.772,0-2.658,0.613-2.658,1.977 c0,1.328,0.954,2.18,2.59,2.18C34.207,134.162,35.774,133.141,36.149,131.641z"/><path fill="#222" d="M62.316,123.43l-4.226,2.555c-0.852-1.191-2.112-1.907-3.714-1.907c-2.283,0-3.851,1.874-3.851,4.634 c0,2.828,1.567,4.668,3.851,4.668c1.67,0,2.964-0.682,3.748-2.078l4.293,2.521c-1.499,2.691-4.463,4.259-8.348,4.259 c-5.656,0-9.473-3.748-9.473-9.336c0-5.656,3.851-9.438,9.541-9.438C57.784,119.307,60.715,120.807,62.316,123.43z"/><path fill="#222" d="M71.344,132.867v5.01h-5.895v-25.283h5.895v13.357l6.065-6.439h6.678l-6.746,7.053l6.95,11.312h-6.984 l-3.986-7.088L71.344,132.867z"/><path fill="#222" d="M96.351,139.785c-1.362,3.338-3.68,4.975-7.087,4.975c-2.044,0-3.714-0.613-5.35-1.875l2.453-4.02 c0.853,0.681,1.567,0.987,2.42,0.987c1.056,0,1.806-0.478,2.282-1.465l0.443-0.92l-7.633-17.956h6.065l4.497,12.197l3.987-12.197 h5.86L96.351,139.785z"/><path fill="#222" d="M122.074,125.883v11.994h-5.758v-2.113c-1.192,1.568-3.135,2.385-5.622,2.385 c-3.919,0-6.304-2.385-6.304-5.758c0-3.475,2.487-5.52,7.053-5.554h4.839v-0.272c0-1.807-1.192-2.896-3.578-2.896 c-1.533,0-3.543,0.545-5.485,1.533l-1.67-3.885c2.862-1.328,5.452-2.078,8.519-2.078 C119.11,119.238,122.04,121.727,122.074,125.883z M116.282,131.641v-1.635h-3.714c-1.772,0-2.658,0.613-2.658,1.977 c0,1.328,0.954,2.18,2.59,2.18C114.34,134.162,115.907,133.141,116.282,131.641z"/><path fill="#222" d="M132.158,122.611c1.26-2.146,3.339-3.339,5.962-3.373v5.316c-3.407-0.307-5.655,1.294-5.962,3.884v9.438 h-5.896v-18.365h5.896V122.611z"/><path fill="#222" d="M159.312,137.877h-5.895v-2.42c-1.295,1.704-3.169,2.658-5.52,2.658c-5.18,0-8.587-3.816-8.587-9.506 c0-5.623,3.373-9.337,8.45-9.337c2.419,0,4.361,0.954,5.656,2.657v-9.336h5.895V137.877z M153.418,128.745 c0-2.828-1.636-4.771-4.089-4.771s-4.089,1.942-4.123,4.771c0.034,2.827,1.67,4.804,4.123,4.804S153.418,131.572,153.418,128.745 z"/><path fill="#222" d="M178.323,121.316l-2.01,3.816c-2.215-1.192-4.26-1.84-5.793-1.84c-1.056,0-1.806,0.409-1.806,1.262 c0,2.521,9.677,1.294,9.643,7.699c0,3.783-3.305,5.861-7.734,5.861c-3.066,0-6.031-0.887-8.246-2.59l1.874-3.748 c2.079,1.465,4.464,2.283,6.508,2.283c1.159,0,2.011-0.409,2.011-1.261c0-2.692-9.507-1.295-9.473-7.735 c0-3.781,3.203-5.826,7.462-5.826C173.417,119.238,176.074,119.988,178.323,121.316z"/></g></g><g><path fill="#222" d="M100.352,142.771c0.977,0,1.566,0.451,1.566,1.213c0,0.568-0.327,0.979-0.895,1.096 c0.699,0.105,1.108,0.561,1.108,1.227c0,0.824-0.651,1.316-1.745,1.316h-2.08v-4.852H100.352z M98.861,144.864h1.462 c0.651,0,1.033-0.285,1.033-0.789c0-0.492-0.382-0.77-1.033-0.77h-1.462V144.864z M98.861,147.095h1.462 c0.79,0,1.249-0.311,1.249-0.865c0-0.527-0.459-0.838-1.249-0.838h-1.462V147.095z"/><path fill="#222" d="M107.759,147.622h-0.548v-1.643l-1.877-3.209h0.574l1.573,2.531l1.552-2.531h0.568l-1.843,3.189V147.622z"/><path fill="#222" d="M119.856,142.771c0.977,0,1.566,0.451,1.566,1.213c0,0.568-0.326,0.979-0.896,1.096 c0.701,0.105,1.109,0.561,1.109,1.227c0,0.824-0.651,1.316-1.745,1.316h-2.079v-4.852H119.856z M118.367,144.864h1.461 c0.651,0,1.032-0.285,1.032-0.789c0-0.492-0.381-0.77-1.032-0.77h-1.461V144.864z M118.367,147.095h1.461 c0.791,0,1.248-0.311,1.248-0.865c0-0.527-0.457-0.838-1.248-0.838h-1.461V147.095z"/><path fill="#222" d="M125.968,146.396l-0.541,1.227h-0.589l2.176-4.852h0.574l2.17,4.852h-0.604l-0.541-1.227H125.968z M127.283,143.403l-1.08,2.459h2.176L127.283,143.403z"/><path fill="#222" d="M136.756,147.622l-2.91-3.895v3.895h-0.553v-4.852h0.573l2.909,3.902v-3.902h0.549v4.852H136.756z"/><path fill="#222" d="M141.862,147.095h3.251l-0.008,0.527h-3.971v-0.443l3.216-3.873h-3.124v-0.535h3.852v0.445 L141.862,147.095z"/><path fill="#222" d="M149.339,146.396l-0.542,1.227h-0.586l2.175-4.852h0.575l2.168,4.852h-0.604l-0.539-1.227H149.339z M150.656,143.403l-1.082,2.459h2.176L150.656,143.403z"/><path fill="#222" d="M156.663,147.622v-4.852h0.555v4.852H156.663z"/><path fill="#222" d="M165.512,143.604l-0.93,1.102c-0.291-0.396-0.728-0.652-1.102-0.652c-0.582,0-1.004,0.463-1.004,1.109 c0,0.65,0.422,1.121,1.004,1.121c0.346,0,0.783-0.215,1.102-0.553l0.93,0.99c-0.541,0.588-1.367,0.969-2.113,0.969 c-1.49,0-2.571-1.059-2.571-2.506c0-1.428,1.108-2.469,2.633-2.469C164.201,142.716,165.012,143.062,165.512,143.604z"/><path fill="#222" d="M172.238,146.284v1.338h-3.631v-4.857h1.608v3.52H172.238z"/><path fill="#222" d="M180.518,145.19c0,1.441-1.12,2.5-2.666,2.5c-1.545,0-2.668-1.053-2.668-2.5 c0-1.441,1.123-2.475,2.668-2.475C179.397,142.716,180.518,143.757,180.518,145.19z M176.834,145.196 c0,0.666,0.483,1.158,1.038,1.158s0.997-0.492,0.997-1.158s-0.442-1.143-0.997-1.143 C177.311,144.054,176.834,144.53,176.834,145.196z"/><path fill="#222" d="M188.334,145.563c0,1.291-0.908,2.127-2.312,2.127c-1.414,0-2.35-0.836-2.35-2.127v-2.799h1.607v2.799 c0,0.479,0.346,0.791,0.748,0.791c0.396,0,0.699-0.307,0.699-0.791v-2.799h1.607V145.563z"/><path fill="#222" d="M193.898,142.765c1.601,0,2.64,0.949,2.64,2.426c0,1.475-1.06,2.432-2.702,2.432h-2.105v-4.857H193.898z M193.337,146.374h0.603c0.582,0,0.956-0.457,0.956-1.17c0-0.721-0.407-1.191-1.032-1.191h-0.526V146.374z"/></g></g><linearGradient id="SVGID_1_" x1="527.669" x2="676.757" y1="-740.815" y2="-740.815" gradientTransform="matrix(0.9527 0.3041 -0.3041 0.9527 -692.1813 576.5708)" gradientUnits="userSpaceOnUse"><stop offset="0" style="stop-color:#76a1d6"/><stop offset="1" style="stop-color:#454494"/></linearGradient><path fill="url(#SVGID_1_)" d="M165.601,52.862c-6.751-2.154-13.818-0.312-18.65,4.207c-0.109,0.107-0.22,0.211-0.332,0.314	c-0.005,0.004-0.008,0.008-0.013,0.012h-0.001c-3.536,3.232-8.656,4.537-13.548,2.977c-6.306-2.014-10.162-8.125-9.568-14.455	l-0.003,0.004c0.443-19.4-11.82-37.582-31.246-43.783C68.615-5.401,43.352,7.636,35.812,31.261l0,0	c-7.541,23.625,5.498,48.889,29.123,56.43c19.424,6.199,39.955-1.516,50.832-17.588v0.006c3.184-5.504,9.868-8.25,16.173-6.238	c4.892,1.562,8.311,5.59,9.319,10.273l0,0c0.002,0.006,0.003,0.012,0.003,0.018c0.033,0.15,0.062,0.299,0.089,0.447	c1.321,6.484,6.016,12.08,12.765,14.236c9.937,3.17,20.562-2.314,23.733-12.248l0,0C181.02,66.659,175.536,56.032,165.601,52.862z"/><g><linearGradient id="SVGID_2_" x1="-296.757" x2="-154.853" y1="387.94" y2="387.94" gradientTransform="matrix(0.9892 -0.1466 0.1466 0.9892 254.6929 -354.9834)" gradientUnits="userSpaceOnUse"><stop offset="0" style="stop-color:#c28ebf"/><stop offset="1" style="stop-color:#9eb5de"/></linearGradient><path fill="url(#SVGID_2_)" d="M158.209,50.429c-0.031-0.17-0.057-0.342-0.091-0.514c-0.102-0.516-0.215-1.025-0.339-1.531 c-0.003-0.012-0.007-0.021-0.007-0.029c-0.651-2.639-1.615-5.152-2.854-7.502c-2.098-4.004-4.945-7.455-8.314-10.227h-0.002 c-0.315-0.26-0.638-0.51-0.963-0.758c-0.115-0.086-0.227-0.178-0.345-0.266c-0.215-0.158-0.434-0.311-0.651-0.463 c-0.234-0.166-0.466-0.334-0.707-0.496c-0.104-0.066-0.21-0.133-0.314-0.201c-3.263-2.131-6.921-3.705-10.842-4.59 c-3.105-0.705-6.336-0.973-9.603-0.748c-0.116,0.008-0.234,0.014-0.351,0.021c-0.283,0.023-0.566,0.049-0.85,0.08 c-0.279,0.027-0.555,0.061-0.832,0.096c-0.172,0.023-0.346,0.043-0.518,0.068c-0.51,0.074-1.016,0.158-1.517,0.256 c-0.028,0.006-0.058,0.012-0.086,0.018c-2.098,0.408-4.124,1.014-6.061,1.793c-0.001,0.002-0.003,0.002-0.004,0.004 c-0.452,0.18-0.898,0.369-1.337,0.57c-0.007,0.004-0.011,0.004-0.016,0.006c-0.408,0.188-0.814,0.381-1.216,0.584 c-0.193,0.098-0.382,0.201-0.572,0.301c-0.166,0.088-0.336,0.176-0.5,0.27c-0.272,0.148-0.539,0.303-0.806,0.459 c-0.062,0.035-0.121,0.072-0.182,0.107c-3.664,2.184-6.81,5.02-9.331,8.305c-0.004,0.006-0.011,0.014-0.016,0.021 c-0.225,0.293-0.446,0.59-0.662,0.891c-0.025,0.037-0.048,0.07-0.073,0.105c-0.522,0.738-1.015,1.496-1.477,2.271 c-0.139,0.232-0.276,0.467-0.41,0.703c-0.072,0.131-0.142,0.26-0.213,0.389c-0.145,0.266-0.289,0.537-0.428,0.809 c-0.055,0.109-0.111,0.221-0.165,0.33c-0.063,0.131-0.132,0.26-0.194,0.391c-0.061,0.143-0.13,0.279-0.193,0.422 c-0.078,0.168-0.154,0.338-0.23,0.51c-0.077,0.168-0.149,0.34-0.229,0.506c-0.018,0.041-0.036,0.078-0.052,0.117l-0.006-0.006 c-4.015,8.178-11.846,14.311-21.54,15.746C65,60.45,57.18,58.12,51.202,53.423l-0.01,0.002c-0.415-0.34-0.847-0.658-1.287-0.963 c-0.046-0.031-0.091-0.064-0.137-0.098c-0.414-0.279-0.836-0.545-1.268-0.793c-0.096-0.057-0.19-0.109-0.287-0.164 c-0.416-0.232-0.839-0.451-1.271-0.656c-0.104-0.049-0.211-0.094-0.317-0.141c-0.41-0.184-0.824-0.357-1.246-0.516 c-0.087-0.029-0.172-0.064-0.26-0.094c-0.454-0.164-0.915-0.307-1.382-0.436c-0.087-0.025-0.173-0.051-0.26-0.074 c-0.508-0.135-1.021-0.248-1.54-0.342c-0.059-0.012-0.119-0.023-0.179-0.033c-0.558-0.098-1.12-0.172-1.687-0.223 c-0.008-0.002-0.017-0.002-0.024-0.004c-1.271-0.111-2.562-0.107-3.859,0.027c-0.07,0.006-0.138,0.016-0.207,0.023 c-0.25,0.027-0.501,0.059-0.752,0.096c-0.179,0.025-0.355,0.061-0.533,0.09c-0.139,0.025-0.278,0.047-0.418,0.076 c-0.284,0.055-0.565,0.117-0.846,0.186c-0.037,0.01-0.073,0.018-0.111,0.027c-1.349,0.334-2.646,0.799-3.876,1.387 c-0.012,0.004-0.024,0.008-0.035,0.016c-0.184,0.086-0.361,0.18-0.54,0.273c-2.753,1.416-5.085,3.408-6.889,5.781 c-0.05,0.064-0.103,0.127-0.152,0.195c-0.1,0.133-0.194,0.271-0.291,0.408c-0.101,0.143-0.201,0.281-0.298,0.424 c-0.043,0.066-0.082,0.131-0.125,0.197c-1.328,2.031-2.303,4.314-2.842,6.762c-0.022,0.1-0.048,0.197-0.068,0.297 c-0.004,0.018-0.006,0.037-0.01,0.057c-0.402,1.977-0.512,4.029-0.302,6.1c0.011,0.105,0.024,0.207,0.036,0.312 c0.025,0.213,0.051,0.43,0.083,0.645c0.031,0.215,0.069,0.428,0.108,0.643c0.018,0.102,0.034,0.205,0.055,0.309 c0.398,2.041,1.1,3.975,2.058,5.748c0.009,0.018,0.017,0.037,0.027,0.053c0.048,0.09,0.101,0.174,0.15,0.264 c1.224,2.186,2.82,4.086,4.681,5.648c0.06,0.049,0.117,0.1,0.178,0.15c0.133,0.109,0.271,0.213,0.407,0.32 c0.132,0.102,0.262,0.207,0.397,0.307c0.066,0.049,0.135,0.096,0.201,0.145c2.414,1.746,5.223,2.975,8.27,3.533 c0.197,0.037,0.396,0.074,0.596,0.105c0.014,0.002,0.027,0.002,0.04,0.006c1.346,0.205,2.722,0.273,4.11,0.201 c0.039-0.002,0.076-0.006,0.114-0.008c0.288-0.016,0.575-0.035,0.862-0.064c0.143-0.016,0.282-0.033,0.422-0.051 c0.18-0.021,0.359-0.041,0.537-0.066c0.251-0.037,0.5-0.082,0.748-0.127c0.068-0.014,0.136-0.023,0.204-0.037 c1.28-0.25,2.519-0.619,3.701-1.096c0.007-0.002,0.015-0.006,0.022-0.008c0.528-0.213,1.045-0.449,1.55-0.703 c0.054-0.027,0.107-0.057,0.162-0.084c0.468-0.24,0.927-0.498,1.373-0.775c0.078-0.045,0.152-0.096,0.229-0.145 c0.408-0.258,0.809-0.529,1.195-0.818c0.075-0.055,0.147-0.111,0.222-0.166c0.357-0.273,0.705-0.559,1.044-0.854 c0.087-0.076,0.176-0.15,0.262-0.229c0.354-0.318,0.694-0.652,1.026-0.996c0.076-0.076,0.152-0.156,0.228-0.236 c0.34-0.367,0.668-0.74,0.981-1.129c0.035-0.043,0.068-0.088,0.103-0.133c0.334-0.42,0.655-0.85,0.954-1.295h0.008 c4.36-6.23,11.168-10.727,19.282-11.93c9.692-1.436,18.967,2.162,25.182,8.822h0.006l-0.003-0.008 c0.027,0.035,0.056,0.066,0.082,0.098c0.127,0.139,0.245,0.281,0.369,0.42c0.121,0.141,0.245,0.283,0.368,0.42 c0.101,0.119,0.208,0.229,0.307,0.35c0.098,0.107,0.2,0.209,0.299,0.314c0.085,0.09,0.168,0.18,0.254,0.27 c0.212,0.221,0.427,0.438,0.645,0.65c0.105,0.104,0.21,0.207,0.315,0.309c0.195,0.189,0.396,0.371,0.597,0.555 c0.667,0.611,1.357,1.191,2.071,1.746c0.034,0.025,0.067,0.053,0.102,0.08c0.293,0.225,0.59,0.445,0.893,0.662 c0.006,0.004,0.014,0.01,0.021,0.014c3.364,2.414,7.195,4.215,11.336,5.242c0.068,0.016,0.137,0.033,0.207,0.051 c0.299,0.072,0.6,0.143,0.902,0.205c0.186,0.041,0.372,0.076,0.559,0.113c0.212,0.039,0.421,0.084,0.634,0.121 c0.443,0.078,0.887,0.146,1.333,0.207c0,0,0.011,0,0.016,0.002c0.48,0.064,0.963,0.115,1.447,0.16h0.003 c2.081,0.184,4.194,0.178,6.32-0.041c0.028-0.004,0.059-0.008,0.089-0.01c0.507-0.053,1.016-0.115,1.524-0.193 c0.173-0.027,0.345-0.059,0.516-0.086c0.274-0.049,0.55-0.094,0.823-0.148c0.281-0.055,0.559-0.111,0.836-0.172 c0.115-0.025,0.229-0.053,0.343-0.078c3.191-0.734,6.206-1.926,8.974-3.502c3.495-1.982,6.541-4.551,9.045-7.537 c0.079-0.096,0.162-0.189,0.241-0.285c0.184-0.223,0.357-0.449,0.534-0.678c0.164-0.211,0.33-0.418,0.488-0.631 c0.086-0.117,0.168-0.238,0.253-0.357c0.239-0.332,0.476-0.662,0.702-1.002c0-0.002,0-0.002,0-0.002 c2.422-3.629,4.146-7.758,4.993-12.199c0.504-2.607,0.697-5.289,0.554-8.004c0-0.012,0-0.02,0-0.031 c-0.028-0.521-0.067-1.043-0.121-1.564c-0.018-0.174-0.042-0.346-0.062-0.518c-0.039-0.35-0.081-0.697-0.132-1.045 C158.335,51.12,158.271,50.774,158.209,50.429z"/></g><linearGradient id="SVGID_3_" x1="33.894" x2="158.746" y1="53.404" y2="53.404" gradientUnits="userSpaceOnUse"><stop offset="0" style="stop-color:#565ca2"/><stop offset="1" style="stop-color:#303b89"/></linearGradient><path fill="url(#SVGID_3_)" d="M158.7,54.628c0-0.012,0-0.02,0-0.031c-0.028-0.521-0.067-1.043-0.121-1.564	c-0.018-0.174-0.042-0.346-0.062-0.518c-0.019-0.163-0.041-0.326-0.062-0.489c-4.311,0.323-8.378,2.117-11.506,5.044	c-0.109,0.107-0.22,0.211-0.332,0.314c-0.005,0.004-0.008,0.008-0.013,0.012h-0.001c-3.536,3.232-8.656,4.537-13.548,2.977	c-6.306-2.014-10.162-8.125-9.568-14.455l-0.003,0.004c0.179-7.797-1.7-15.396-5.267-22.101c-1.811,0.4-3.568,0.938-5.254,1.616	c-0.001,0.002-0.003,0.002-0.004,0.004c-0.452,0.18-0.898,0.369-1.337,0.57c-0.007,0.004-0.011,0.004-0.016,0.006	c-0.408,0.188-0.814,0.381-1.216,0.584c-0.193,0.098-0.382,0.201-0.572,0.301c-0.166,0.088-0.336,0.176-0.5,0.27	c-0.272,0.148-0.539,0.303-0.806,0.459c-0.062,0.035-0.121,0.072-0.182,0.107c-3.664,2.184-6.81,5.02-9.331,8.305	c-0.004,0.006-0.011,0.014-0.016,0.021c-0.225,0.293-0.446,0.59-0.662,0.891c-0.025,0.037-0.048,0.07-0.073,0.105	c-0.522,0.738-1.015,1.496-1.477,2.271c-0.139,0.232-0.276,0.467-0.41,0.703c-0.072,0.131-0.142,0.26-0.213,0.389	c-0.145,0.266-0.289,0.537-0.428,0.809c-0.055,0.109-0.111,0.221-0.165,0.33c-0.063,0.131-0.132,0.26-0.194,0.391	c-0.061,0.143-0.13,0.279-0.193,0.422c-0.078,0.168-0.154,0.338-0.23,0.51c-0.077,0.168-0.149,0.34-0.229,0.506	c-0.018,0.041-0.036,0.078-0.052,0.117l-0.006-0.006c-4.015,8.178-11.846,14.311-21.54,15.746C65,60.45,57.18,58.12,51.202,53.423	l-0.01,0.002c-0.415-0.34-0.847-0.658-1.287-0.963c-0.046-0.031-0.091-0.064-0.137-0.098c-0.414-0.279-0.836-0.545-1.268-0.793	c-0.096-0.057-0.19-0.109-0.287-0.164c-0.416-0.232-0.839-0.451-1.271-0.656c-0.104-0.049-0.211-0.094-0.317-0.141	c-0.41-0.184-0.824-0.357-1.246-0.516c-0.087-0.029-0.172-0.064-0.26-0.094c-0.454-0.164-0.915-0.307-1.382-0.436	c-0.087-0.025-0.173-0.051-0.26-0.074c-0.508-0.135-1.021-0.248-1.54-0.342c-0.059-0.012-0.119-0.023-0.179-0.033	c-0.558-0.098-1.12-0.172-1.687-0.223c-0.008-0.002-0.017-0.002-0.024-0.004c-1.271-0.111-2.562-0.107-3.859,0.027	c-0.07,0.006-0.138,0.016-0.207,0.023c-0.25,0.027-0.501,0.059-0.752,0.096c-0.179,0.025-0.355,0.061-0.533,0.09	c-0.139,0.025-0.278,0.047-0.418,0.076c-0.13,0.024-0.257,0.057-0.386,0.085c1.315,13.375,8.624,25.648,20.01,33.133	c0.089-0.104,0.185-0.204,0.271-0.312c0.035-0.043,0.068-0.088,0.103-0.133c0.334-0.42,0.655-0.85,0.954-1.295h0.008	c4.36-6.23,11.168-10.727,19.282-11.93c9.692-1.436,18.967,2.162,25.182,8.822h0.006l-0.003-0.008	c0.027,0.035,0.056,0.066,0.082,0.098c0.127,0.139,0.245,0.281,0.369,0.42c0.121,0.141,0.245,0.283,0.368,0.42	c0.101,0.119,0.208,0.229,0.307,0.35c0.098,0.107,0.2,0.209,0.299,0.314c0.085,0.09,0.168,0.18,0.254,0.27	c0.212,0.221,0.427,0.438,0.645,0.65c0.105,0.104,0.21,0.207,0.315,0.309c0.195,0.189,0.396,0.371,0.597,0.555	c0.357,0.327,0.739,0.625,1.11,0.937c4.546-3.128,8.543-7.098,11.715-11.784v0.006c3.184-5.504,9.868-8.25,16.173-6.238	c4.892,1.562,8.311,5.59,9.319,10.273c0.002,0.006,0.003,0.012,0.003,0.018c0.033,0.15,0.062,0.299,0.089,0.447	c0.63,3.088,2.031,5.97,4.048,8.379c2.049-1.536,3.916-3.27,5.536-5.201c0.079-0.096,0.162-0.189,0.241-0.285	c0.184-0.223,0.357-0.449,0.534-0.678c0.164-0.211,0.33-0.418,0.488-0.631c0.086-0.117,0.168-0.238,0.253-0.357	c0.239-0.332,0.476-0.662,0.702-1.002c0-0.002,0-0.002,0-0.002c2.422-3.629,4.146-7.758,4.993-12.199	C158.65,60.024,158.844,57.343,158.7,54.628z"/></svg>