 <svg  version="1.0" xmlns="http://www.w3.org/2000/svg"  width="900.000000pt" height="915.000000pt" viewBox="0 0 900.000000 915.000000"  preserveAspectRatio="xMidYMid meet">  <g transform="translate(0.000000,915.000000) scale(0.100000,-0.100000)" fill="#646150" stroke="none"> <path d="M6308 5558 c-10 -10 -18 -22 -18 -27 0 -5 -27 -55 -60 -111 -33 -56 -60 -103 -60 -105 0 -4 -114 -200 -130 -225 -6 -8 -14 -24 -19 -35 -5 -11 -20 -36 -33 -55 -13 -19 -27 -42 -31 -50 -4 -8 -15 -27 -25 -42 -33 -51 -147 -253 -150 -266 -2 -8 3 -21 11 -30 14 -16 124 -197 140 -232 4 -8 16 -28 27 -45 11 -16 35 -63 55 -102 38 -79 60 -92 88 -50 8 12 113 122 234 244 l219 222 267 -6 266 -6 11 29 c32 85 121 154 200 154 77 0 166 -60 204 -139 22 -46 21 -123 -4 -170 -28 -55 -93 -108 -149 -120 -99 -21 -202 28 -238 114 l-18 45 -248 0 -249 0 -211 -211 c-116 -116 -226 -223 -244 -236 -30 -23 -45 -63 -24 -63 9 0 90 -131 152 -245 17 -33 36 -66 42 -72 7 -10 59 -13 198 -13 103 0 189 3 191 8 2 4 2 43 -1 87 -5 72 -8 80 -27 83 -32 4 -102 68 -124 113 -55 106 -1 238 118 290 104 45 215 -2 270 -114 l18 -38 342 -1 c197 -1 346 3 351 8 5 5 24 38 44 74 19 36 49 89 65 117 17 28 45 77 62 109 18 33 53 90 78 128 37 56 43 72 34 85 -17 24 -170 281 -233 391 -30 52 -59 104 -66 115 -6 11 -23 43 -38 72 l-26 51 -132 -3 c-73 -2 -134 -4 -137 -4 -3 -1 -57 -51 -120 -112 l-114 -111 17 -30 c41 -71 8 -183 -70 -243 -106 -81 -256 -46 -321 76 -33 61 -27 152 13 204 78 103 168 130 267 80 l32 -16 129 132 129 131 77 -6 c42 -4 95 -9 118 -13 59 -7 65 13 20 74 -19 27 -42 65 -52 86 -9 20 -20 37 -24 37 -3 1 -157 1 -341 1 l-335 1 4 -177 3 -177 -198 -199 c-110 -109 -201 -206 -202 -215 -2 -9 1 -21 7 -27 17 -17 13 -123 -5 -160 -37 -72 -124 -127 -199 -127 -73 0 -139 43 -188 122 -24 39 -23 138 2 187 22 42 80 97 118 112 42 16 116 10 156 -11 l37 -20 183 186 182 187 5 151 c3 83 2 155 -3 161 -4 5 -73 9 -155 10 -127 0 -149 -2 -164 -17z m863 -95 c16 -16 -28 -74 -110 -146 l-66 -58 -73 4 c-40 2 -78 9 -83 14 -6 6 -13 38 -16 72 -7 79 8 105 74 119 60 14 260 9 274 -5z m-657 -25 c25 -29 27 -37 22 -80 -10 -70 -38 -110 -165 -235 -108 -108 -116 -113 -156 -113 -35 0 -44 4 -56 26 -13 24 -11 32 29 108 23 44 46 93 52 109 5 15 14 27 19 27 5 0 15 15 22 33 20 49 78 126 108 142 47 25 93 19 125 -17z m976 -265 c16 -9 33 -26 38 -37 5 -12 22 -36 37 -54 15 -18 35 -48 45 -65 60 -115 93 -172 110 -194 11 -14 20 -30 20 -36 0 -6 7 -18 15 -27 9 -10 25 -43 36 -74 l20 -57 -29 -52 c-16 -29 -43 -76 -61 -105 -17 -29 -31 -57 -31 -61 0 -5 -22 -42 -49 -83 -40 -61 -56 -76 -88 -87 -35 -11 -138 -11 -498 -2 -34 1 -49 10 -100 56 -84 76 -169 109 -244 95 -65 -12 -144 -40 -156 -54 -5 -7 -17 -15 -25 -18 -14 -5 -28 -27 -44 -68 -3 -8 -10 -22 -15 -30 -16 -27 -32 -138 -25 -182 7 -45 40 -106 87 -163 15 -18 27 -35 27 -38 0 -15 -63 -28 -106 -22 -70 9 -101 24 -108 49 -3 13 -19 40 -36 61 -36 45 -55 103 -46 139 5 21 138 166 152 166 2 0 47 42 100 94 66 65 105 97 127 101 18 4 41 13 53 20 27 18 207 18 288 1 51 -10 71 -21 111 -59 28 -26 56 -47 64 -47 7 0 23 -11 35 -23 29 -32 123 -44 166 -22 16 8 35 15 43 15 8 0 21 7 28 16 7 9 21 19 30 23 28 10 116 120 122 151 4 16 9 58 13 94 6 55 3 71 -19 119 -14 30 -39 65 -56 78 -17 12 -31 28 -31 34 0 12 -47 38 -110 62 -19 7 -65 13 -101 12 -36 -1 -71 1 -77 5 -22 13 -14 117 12 159 61 99 200 155 276 110z m-870 -363 c14 -31 20 -54 14 -59 -10 -10 -130 -41 -157 -41 -42 0 -34 67 15 130 50 63 89 54 128 -30z m-510 -420 c11 -7 12 -12 3 -21 -15 -15 -43 -5 -43 16 0 17 18 19 40 5z"/> <path d="M2583 5492 c-31 -20 -37 -96 -10 -129 14 -19 102 -16 118 4 22 25 18 102 -5 119 -21 15 -83 19 -103 6z"/> <path d="M4367 5482 c-23 -26 -22 -94 1 -115 22 -20 102 -23 120 -5 7 7 12 36 12 65 0 41 -4 54 -19 63 -32 17 -96 12 -114 -8z"/> <path d="M3110 5371 c-5 -11 -9 -41 -7 -68 l2 -48 -45 -5 c-58 -7 -70 -15 -70 -49 0 -39 17 -51 72 -51 l48 0 -3 -182 c-2 -196 0 -205 51 -260 29 -31 117 -68 162 -68 31 0 70 30 70 54 0 8 -8 24 -18 36 -14 18 -30 23 -70 24 -39 2 -58 8 -75 24 -21 21 -22 34 -27 190 -3 92 -2 171 3 177 4 5 41 8 83 6 84 -3 104 6 104 49 0 43 -20 53 -107 49 l-78 -4 -3 60 c-2 32 -8 65 -14 72 -16 20 -66 16 -78 -6z"/> <path d="M5230 5247 c-13 -7 -51 -52 -85 -102 -34 -49 -66 -90 -71 -92 -5 -2 -32 29 -59 68 -82 117 -94 129 -126 129 -22 0 -32 -7 -41 -25 -15 -34 -5 -53 81 -152 39 -45 71 -87 71 -94 0 -6 -40 -64 -89 -129 -102 -132 -112 -157 -81 -185 36 -33 67 -11 142 100 99 148 95 146 134 83 15 -24 54 -80 88 -125 64 -87 88 -100 119 -65 18 19 23 68 9 74 -5 2 -33 34 -63 73 -30 38 -69 85 -86 105 -37 39 -42 71 -15 97 10 10 34 38 53 63 18 24 46 58 62 74 35 40 37 88 3 104 -17 7 -29 7 -46 -1z"/> <path d="M1865 5243 c-11 -2 -29 -6 -40 -8 -32 -7 -87 -61 -104 -102 -23 -58 -27 -294 -6 -349 40 -105 137 -151 297 -141 51 3 109 12 128 20 40 17 89 62 100 91 12 32 0 66 -24 67 -38 2 -48 -2 -81 -37 l-32 -34 -111 0 c-132 0 -158 8 -177 55 -17 39 -20 206 -5 270 15 67 36 75 180 72 l125 -2 20 -32 c36 -57 105 -52 105 9 0 24 -10 41 -44 73 -38 37 -50 43 -106 48 -67 7 -192 7 -225 0z"/> <path d="M2591 5236 c-17 -20 -17 -545 -1 -575 15 -29 64 -28 84 1 24 34 24 549 0 572 -19 20 -68 21 -83 2z"/> <path d="M3732 5238 c-9 -9 -12 -87 -12 -288 0 -256 1 -278 18 -293 25 -22 55 -21 76 2 16 17 17 40 14 209 l-3 191 25 26 c36 38 104 65 165 65 46 0 55 3 70 26 15 24 15 27 0 51 -16 24 -20 25 -83 20 -64 -6 -142 -43 -142 -67 0 -6 -9 -10 -20 -10 -15 0 -20 7 -20 28 0 35 -16 52 -50 52 -14 0 -31 -5 -38 -12z"/> <path d="M4387 5232 c-15 -16 -17 -51 -17 -289 0 -249 1 -271 18 -286 26 -24 65 -21 81 5 18 29 18 552 0 574 -16 20 -63 17 -82 -4z"/> <path d="M6834 5061 c-63 -27 -84 -126 -39 -180 60 -70 155 -58 196 25 24 52 21 76 -18 122 -23 27 -37 35 -73 38 -25 2 -55 0 -66 -5z"/> <path d="M6108 4822 c-41 -5 -88 -64 -88 -110 0 -69 52 -121 122 -122 66 0 130 81 114 145 -15 58 -78 96 -148 87z"/> <path d="M7245 4702 c-47 -29 -59 -50 -59 -103 0 -42 5 -54 32 -81 27 -27 38 -32 81 -32 54 0 82 17 107 66 29 56 5 121 -56 153 -38 20 -69 19 -105 -3z"/> <path d="M4777 4612 c-15 -17 -17 -60 -17 -410 0 -377 1 -392 19 -402 33 -17 61 -12 73 15 14 31 21 31 67 3 32 -20 49 -23 158 -23 119 0 122 1 165 30 70 50 82 86 86 254 4 154 -5 195 -52 250 -53 60 -200 87 -300 56 -30 -10 -61 -24 -67 -31 -6 -8 -23 -14 -36 -14 -22 0 -25 3 -19 28 3 15 9 70 12 123 7 91 6 97 -16 117 -29 27 -52 28 -73 4z m397 -332 c44 -16 56 -57 56 -184 0 -185 -16 -205 -160 -206 -109 0 -186 21 -197 54 -3 12 -6 83 -6 159 0 155 3 164 70 177 57 11 208 11 237 0z"/> <path d="M3100 4585 c-10 -12 -12 -103 -11 -393 2 -337 4 -378 18 -389 23 -18 434 -18 451 -1 13 13 16 47 6 72 -5 14 -32 16 -189 16 -101 0 -185 3 -187 8 -2 4 -1 153 2 332 6 358 4 370 -49 370 -16 0 -34 -7 -41 -15z"/> <path d="M3975 4383 c-76 -23 -144 -98 -130 -143 5 -16 15 -20 46 -20 34 0 43 5 57 30 18 31 30 36 112 46 136 15 248 -36 223 -102 -5 -14 -22 -15 -137 -9 -117 6 -137 5 -188 -13 -67 -24 -86 -40 -110 -95 -38 -84 -17 -187 52 -252 l31 -30 128 0 127 0 43 34 c44 35 60 32 61 -11 0 -38 86 -34 92 5 2 12 1 117 -2 232 -6 223 -8 235 -63 289 -51 50 -234 71 -342 39z m305 -298 c17 -21 8 -106 -15 -137 -32 -41 -89 -58 -196 -58 -120 0 -134 11 -134 101 0 89 7 93 178 100 78 3 145 6 148 7 4 1 12 -5 19 -13z"/> <path d="M6684 4191 c-84 -51 -77 -164 13 -206 78 -37 163 18 163 106 0 94 -96 149 -176 100z"/> <path d="M7244 4043 l-291 -3 -18 -39 c-22 -49 -59 -85 -107 -106 l-38 -15 0 -85 0 -85 306 2 307 3 16 30 c16 30 87 155 106 187 5 10 23 35 38 57 31 43 29 62 -6 59 -12 -2 -153 -4 -313 -5z m107 -105 c34 -11 39 -17 37 -38 -2 -15 -19 -37 -46 -57 l-44 -33 -153 0 c-140 0 -205 9 -205 29 0 3 17 26 38 50 31 36 47 46 83 51 75 12 247 11 290 -2z"/> </g> </svg> 