<?xml version="1.0" encoding="utf-8"?>
<!-- Generator: Adobe Illustrator 25.2.3, SVG Export Plug-In . SVG Version: 6.00 Build 0)  -->
<svg version="1.1" id="Layer_1" xmlns="http://www.w3.org/2000/svg" xmlns:xlink="http://www.w3.org/1999/xlink" x="0px" y="0px"
	 viewBox="0 0 720 720" style="enable-background:new 0 0 720 720;" xml:space="preserve">
<style type="text/css">
	.st0{fill-rule:evenodd;clip-rule:evenodd;fill:#5FA9E2;}
	.st1{fill:#732281;}
	.st2{fill-rule:evenodd;clip-rule:evenodd;fill:#FFFFFF;}
	.st3{fill:#FFFFFF;}
	.st4{fill:#5FA9E2;}
</style>
<rect x="-8.18" y="-9.65" class="st3" width="745.99" height="745.99"/>
<path class="st0" d="M130.48,285.45c-0.32-1.96-0.49-3.94-0.49-5.92c0-1.99,0.16-3.97,0.49-5.93c2.87-17.31,17.91-30,35.44-30
	c9.56,0,18.64,3.76,25.41,10.52l2.73,2.73c0.47,0.46,1.23,0.46,1.69,0l15.01-15.01c0.47-0.46,0.47-1.23,0-1.69l-2.73-2.73
	c-11.2-11.2-26.27-17.44-42.11-17.44c-30.01,0-55.42,22.39-59.11,52.18c-0.3,2.45-0.46,4.91-0.46,7.38c0,2.47,0.15,4.93,0.46,7.38
	c3.69,29.79,29.1,52.18,59.11,52.18c15.84,0,30.91-6.24,42.11-17.44l2.73-2.73c0.47-0.47,0.47-1.23,0-1.69l-15.01-15.01
	c-0.46-0.47-1.23-0.47-1.69,0l-2.73,2.73c-6.76,6.76-15.84,10.52-25.41,10.52C148.4,315.45,133.36,302.76,130.48,285.45
	L130.48,285.45z"/>
<path class="st0" d="M305.35,220.42c-29.8,3.68-52.18,29.1-52.18,59.1c0,30.01,22.38,55.42,52.18,59.1c2.45,0.3,4.91,0.46,7.38,0.46
	c2.47,0,4.93-0.15,7.38-0.46c29.8-3.68,52.18-29.1,52.18-59.1s-22.38-55.42-52.18-59.1c-2.45-0.3-4.91-0.46-7.38-0.46
	C310.26,219.97,307.79,220.12,305.35,220.42L305.35,220.42z M319.12,244.16c17.09,3.05,29.53,18.02,29.53,35.36
	c0,17.53-12.69,32.57-30,35.44c-1.96,0.32-3.94,0.49-5.93,0.49c-1.99,0-3.97-0.16-5.93-0.49l-0.5-0.08
	c-17.08-3.06-29.5-18.03-29.5-35.36c0-17.53,12.69-32.57,30-35.44c1.96-0.32,3.94-0.49,5.93-0.49c1.99,0,3.97,0.16,5.93,0.49
	L319.12,244.16L319.12,244.16z"/>
<path class="st0" d="M220.87,190.39c-0.66,0-1.2,0.54-1.2,1.2v146.3c0,0.66,0.54,1.2,1.2,1.2h21.24c0.66,0,1.2-0.54,1.2-1.2v-146.3
	c0-0.66-0.54-1.2-1.2-1.2H220.87L220.87,190.39z"/>
<g>
	<path class="st0" d="M163.07,473.73l61.57-90.46c0.27-0.4,0.3-0.85,0.07-1.27c-0.23-0.43-0.61-0.66-1.09-0.66H119.58
		c-0.68,0-1.24,0.56-1.24,1.24v22.03c0,0.68,0.56,1.24,1.24,1.24h57.34c0.55,0,1.02,0.28,1.27,0.77c0.26,0.48,0.23,1.03-0.08,1.48
		l-61.57,90.46c-0.27,0.4-0.3,0.85-0.07,1.27c0.23,0.43,0.61,0.66,1.09,0.66H221.6c0.68,0,1.24-0.56,1.24-1.24v-22.03
		c0-0.68-0.56-1.24-1.24-1.24h-57.34c-0.55,0-1.02-0.28-1.27-0.77C162.73,474.73,162.76,474.18,163.07,473.73L163.07,473.73z"/>
	<path class="st0" d="M282.57,377.94c-30.77,3.8-53.89,30.05-53.89,61.03c0,30.99,23.12,57.23,53.89,61.03
		c2.53,0.31,5.07,0.47,7.62,0.47c2.55,0,5.09-0.16,7.62-0.47c30.77-3.8,53.89-30.05,53.89-61.03s-23.11-57.23-53.89-61.03
		c-2.53-0.31-5.07-0.47-7.62-0.47C287.64,377.47,285.1,377.63,282.57,377.94L282.57,377.94z M296.79,402.46
		c17.65,3.15,30.5,18.61,30.5,36.52c0,18.1-13.11,33.63-30.98,36.6c-2.02,0.34-4.07,0.51-6.12,0.51c-2.05,0-4.1-0.17-6.12-0.5
		l-0.51-0.09c-17.63-3.16-30.46-18.61-30.46-36.51c0-18.1,13.11-33.63,30.98-36.59c2.02-0.34,4.07-0.51,6.12-0.51
		c2.05,0,4.1,0.17,6.12,0.5L296.79,402.46L296.79,402.46z"/>
	<path class="st0" d="M424.89,406.38c12.12,2.73,20.86,13.61,20.86,26.04v66.82c0,0.68,0.56,1.24,1.24,1.24h21.93
		c0.68,0,1.24-0.56,1.24-1.24v-66.82c0-25.11-18.5-46.67-43.32-50.49c-2.57-0.4-5.17-0.59-7.77-0.59c-2.6,0-5.2,0.2-7.77,0.59
		c-24.81,3.83-43.32,25.39-43.32,50.49v66.82c0,0.68,0.56,1.24,1.24,1.24h21.93c0.68,0,1.24-0.56,1.24-1.24v-66.82
		c0-12.43,8.74-23.31,20.86-26.04c1.91-0.43,3.87-0.65,5.83-0.65C421.02,405.73,422.98,405.95,424.89,406.38L424.89,406.38z"/>
	<path class="st0" d="M572.94,465.21c-4.04,4.04-8.89,7.04-14.16,8.86c-0.11,0.04-0.22,0.08-0.34,0.11
		c-3.69,1.23-7.63,1.89-11.73,1.89c-8.57,0-16.68-2.96-23.12-8.09c-4.83-3.84-8.73-8.89-11.18-14.83c-0.02-0.05-0.04-0.1-0.05-0.15
		c-1.77-4.33-2.75-9.07-2.75-14.04c0-4.97,0.98-9.71,2.75-14.05c0.01-0.05,0.03-0.09,0.05-0.14c2.43-5.89,6.29-10.92,11.08-14.75
		c0,0,0.01-0.01,0.01-0.01c6.36-5.1,14.43-8.16,23.21-8.16c8.61,0,16.75,2.99,23.21,8.16c4.79,3.83,8.66,8.86,11.09,14.76
		c0.02,0.05,0.04,0.09,0.05,0.14c0.25,0.61,0.48,1.22,0.7,1.85h-29.63h-27.57h-0.02h-2.06c-1.33,3.82-2.05,7.92-2.05,12.2
		c0,4.27,0.72,8.38,2.05,12.2h2.06h0.02h14.24h42.96h3.94h20.39c0.63,0,1.15-0.46,1.23-1.08l0.43-3.5c0.31-2.53,0.47-5.07,0.47-7.62
		s-0.16-5.09-0.47-7.62c-3.8-30.77-30.05-53.89-61.04-53.89c-30.99,0-57.23,23.12-61.04,53.89c-0.31,2.53-0.47,5.07-0.47,7.62
		s0.16,5.09,0.47,7.62c3.8,30.77,30.05,53.89,61.04,53.89c16.36,0,31.92-6.44,43.49-18.01l2.82-2.82c0.48-0.48,0.48-1.27,0-1.75
		l-15.5-15.51c-0.48-0.48-1.27-0.48-1.75,0L572.94,465.21L572.94,465.21z"/>
</g>
<g>
	<g>
		<path class="st1" d="M410.99,540.91c0,2-0.28,3.79-0.85,5.38c-0.56,1.59-1.32,2.93-2.27,4.02c-1.01,1.12-2.12,1.97-3.33,2.53
			c-1.21,0.56-2.54,0.84-3.99,0.84c-1.35,0-2.53-0.16-3.55-0.48c-1.01-0.32-2.01-0.75-2.99-1.29l-0.26,1.11h-3.76v-33.23h4.02v11.88
			c1.13-0.93,2.32-1.69,3.59-2.27c1.27-0.6,2.69-0.89,4.27-0.89c2.82,0,5.04,1.08,6.67,3.25
			C410.17,533.91,410.99,536.96,410.99,540.91 M406.84,541.01c0-2.85-0.47-5.01-1.41-6.48c-0.94-1.47-2.46-2.21-4.55-2.21
			c-1.17,0-2.35,0.26-3.55,0.76c-1.2,0.51-2.31,1.16-3.33,1.96v13.67c1.14,0.51,2.12,0.87,2.94,1.07c0.82,0.2,1.75,0.3,2.79,0.3
			c2.22,0,3.96-0.73,5.22-2.19C406.21,546.42,406.84,544.13,406.84,541.01"/>
		<polygon class="st1" points="438.21,529.16 424.28,561.82 419.99,561.82 424.43,551.87 414.93,529.16 419.28,529.16 
			426.61,546.84 434,529.16 		"/>
		<path class="st1" d="M488.66,534.83c0,0.44-0.04,0.92-0.1,1.43c-0.07,0.52-0.16,1.05-0.29,1.61l-3.62,15.61h-7.8l2.79-11.98
			c0.19-0.83,0.36-1.62,0.51-2.38c0.15-0.76,0.23-1.37,0.23-1.84c0-0.82-0.23-1.43-0.68-1.81c-0.45-0.38-1.26-0.58-2.42-0.58
			c-0.55,0-1.18,0.13-1.88,0.4c-0.7,0.26-1.55,0.66-2.54,1.18l-3.92,17h-7.8l2.79-11.98c0.16-0.7,0.32-1.45,0.47-2.27
			c0.16-0.81,0.24-1.43,0.24-1.86c0-0.87-0.22-1.5-0.66-1.89c-0.43-0.39-1.24-0.59-2.42-0.59c-0.62,0-1.29,0.14-2.01,0.43
			c-0.73,0.29-1.55,0.67-2.46,1.15l-3.92,17h-7.74l5.56-23.98h7.74l-0.62,2.65c1.57-1.04,2.98-1.85,4.23-2.44
			c1.26-0.58,2.62-0.88,4.08-0.88c1.58,0,2.91,0.35,3.99,1.06c1.08,0.71,1.84,1.74,2.26,3.11c1.91-1.38,3.61-2.42,5.12-3.12
			c1.51-0.7,2.96-1.05,4.37-1.05c2.11,0,3.71,0.52,4.82,1.56C488.1,531.42,488.66,532.9,488.66,534.83"/>
		<path class="st1" d="M507.29,550.93c-0.49,0.32-1.07,0.7-1.75,1.14c-0.68,0.45-1.32,0.8-1.9,1.05c-0.8,0.33-1.55,0.58-2.25,0.75
			c-0.7,0.17-1.67,0.26-2.91,0.26c-1.99,0-3.62-0.56-4.88-1.68c-1.26-1.12-1.89-2.58-1.89-4.37c0-1.9,0.45-3.5,1.34-4.82
			c0.9-1.32,2.23-2.37,3.99-3.15c1.65-0.74,3.62-1.28,5.9-1.61c2.28-0.33,4.75-0.57,7.41-0.73c0.02-0.09,0.05-0.23,0.1-0.42
			c0.05-0.19,0.07-0.41,0.07-0.65c0-1.01-0.47-1.72-1.41-2.13c-0.94-0.4-2.34-0.61-4.21-0.61c-1.27,0-2.66,0.22-4.2,0.64
			c-1.53,0.43-2.68,0.79-3.45,1.07h-0.7l1.13-5.68c0.9-0.23,2.29-0.49,4.16-0.77c1.88-0.28,3.75-0.43,5.62-0.43
			c3.76,0,6.51,0.49,8.27,1.47s2.64,2.51,2.64,4.57c0,0.28-0.03,0.65-0.08,1.11c-0.05,0.46-0.12,0.85-0.2,1.2l-3.76,16.32h-7.65
			L507.29,550.93z M509.33,542.15c-1.37,0.12-2.66,0.25-3.86,0.41c-1.2,0.16-2.23,0.38-3.07,0.69c-0.88,0.31-1.54,0.75-2,1.32
			c-0.46,0.57-0.69,1.32-0.69,2.26c0,0.83,0.3,1.41,0.91,1.74c0.61,0.34,1.5,0.51,2.66,0.51c0.76,0,1.57-0.17,2.44-0.53
			c0.87-0.35,1.68-0.79,2.44-1.33L509.33,542.15z"/>
		<path class="st1" d="M531.01,553.94c-2.67,0-4.56-0.44-5.7-1.31c-1.14-0.88-1.71-2.18-1.71-3.9c0-0.46,0.03-0.9,0.1-1.32
			c0.07-0.43,0.17-0.93,0.28-1.5l2.62-11.36h-3.18l1.18-5.06h3.17l1.58-6.86h7.71l-1.58,6.86h7.2l-1.17,5.06h-7.19l-2.01,8.65
			c-0.15,0.6-0.28,1.2-0.41,1.81c-0.13,0.61-0.2,1.12-0.2,1.55c0,0.86,0.24,1.45,0.72,1.79c0.48,0.34,1.22,0.5,2.21,0.5
			c0.4,0,0.92-0.08,1.57-0.23c0.65-0.15,1.16-0.32,1.55-0.5h0.64l-1.2,5.14c-0.87,0.22-1.79,0.38-2.75,0.51
			C533.5,553.88,532.35,553.94,531.01,553.94"/>
		<path class="st1" d="M563.45,536.81h-0.69c-0.34-0.11-0.82-0.2-1.45-0.26c-0.63-0.06-1.24-0.09-1.85-0.09
			c-1.01,0-1.99,0.08-2.92,0.23c-0.94,0.15-1.9,0.39-2.9,0.71l-3.73,16.06h-7.74l5.56-23.98h7.74l-0.82,3.52
			c1.45-1.07,2.9-1.94,4.34-2.61c1.44-0.67,2.9-1,4.36-1c0.27,0,0.57,0,0.91,0.02c0.33,0.01,0.63,0.04,0.89,0.07L563.45,536.81z"/>
		<path class="st1" d="M577.65,529.49l-5.57,23.98h-7.74l5.56-23.98H577.65z M580.01,520.24l-1.35,5.83h-8.16l1.34-5.83H580.01z"/>
		<polygon class="st1" points="589.1,541.27 582.36,529.49 590.65,529.49 594.47,536.8 601.36,529.49 610.26,529.49 597.97,541.52 
			604.81,553.47 596.53,553.47 592.67,546.09 585.53,553.47 576.66,553.47 		"/>
	</g>
</g>
<path class="st0" d="M586.44,201.78v77.74c0,17.53-12.69,32.57-30,35.44c-1.96,0.32-3.94,0.49-5.93,0.49s-3.97-0.16-5.93-0.49
	l-0.5-0.08c-17.08-3.06-29.5-18.03-29.5-35.35c0-17.53,12.69-32.57,30-35.44c1.96-0.32,3.94-0.49,5.93-0.49
	c1.98,0,3.97,0.16,5.93,0.49l0.47,0.08c5.56,0.99,10.8,3.3,15.3,6.72c0.38,0.29,0.83,0.33,1.26,0.12c0.43-0.21,0.66-0.59,0.66-1.07
	v-24.31c0-0.51-0.27-0.91-0.74-1.11c-4.96-2.06-10.18-3.44-15.51-4.09c-2.45-0.3-4.91-0.46-7.38-0.46c-2.47,0-4.93,0.15-7.38,0.45
	c-29.8,3.68-52.18,29.1-52.18,59.1c0,30.01,22.38,55.42,52.18,59.1c2.45,0.3,4.91,0.46,7.38,0.46c2.47,0,4.93-0.15,7.38-0.46
	c29.8-3.68,52.18-29.1,52.18-59.1v-77.74H586.44z"/>
<path class="st0" d="M610.07,192.6v-27.72h-13.16c-6.19,0-11.22,5.02-11.22,11.22v16.51H610.07z"/>
<path class="st0" d="M424.38,338.53c0.07,0,0.13,0,0.2,0.01c2.33,0.34,4.68,0.5,7.04,0.5c2.52,0,5.04-0.19,7.52-0.58
	c24.01-3.7,41.92-24.57,41.92-48.87v-64.67c0-0.66-0.54-1.2-1.2-1.2h-21.22c-0.66,0-1.2,0.54-1.2,1.2v64.67
	c0,12.03-8.46,22.56-20.19,25.2c-1.19,0.27-2.4,0.42-3.62,0.51c-0.17,0.02-0.35,0.02-0.52,0.03c-0.5,0.03-1,0.08-1.5,0.08
	c-0.08,0-0.15,0-0.23-0.01c-0.02,0-0.05,0-0.07,0c-0.07,0-0.14-0.01-0.22-0.01c-0.22,0-0.43,0-0.65-0.01
	c-0.03,0-0.05-0.02-0.08-0.02c-3.29-0.12-6.39-0.88-9.15-2.15c-0.03-0.01-0.05-0.02-0.08-0.03c-0.29-0.14-0.58-0.28-0.87-0.43
	c-8.68-4.28-14.49-13.21-14.49-23.16v-64.67c0-0.66-0.54-1.2-1.2-1.2h-21.22c-0.66,0-1.2,0.54-1.2,1.2v64.67
	c0,22.44,15.35,42.24,37.06,47.87C419.23,337.47,421.07,337.99,424.38,338.53z"/>
</svg>
