<svg class="inline-block align-middle h-auto" width="160" height="26" viewBox="0 0 160 26" fill="none" xmlns="http://www.w3.org/2000/svg">
<path d="M21.0879 7.59484C23.7393 10.6906 24.8218 14.8328 24.0238 18.8299C28.1858 17.1699 29.8004 14.3865 30.2917 11.6032C30.2917 11.6032 31.7105 6.3287 33.9159 4.13623C29.558 4.82016 29.1176 3.11033 21.0879 7.59917" fill="#19B99A"></path>
<path d="M14.4211 12.9859C13.5499 10.2947 12.0475 7.85096 10.0394 5.8587C10.0394 5.8587 16.0995 7.45165 19.5884 18.7625C16.2965 17.7691 14.8918 14.5204 14.4146 12.9859H14.4211ZM21.9194 20.3879C22.0168 19.8468 23.6228 14.3754 20.4412 9.93198C15.1137 4.02767 7.08398 3.19873 7.08398 3.19873C8.65096 6.2288 8.70074 9.05759 10.4127 14.8256C12.4873 20.797 20.1414 21.1995 20.7085 21.2104C21.2225 22.022 22.401 23.115 25.0989 23.6799L25.3975 22.2579C23.0698 21.7709 22.2181 20.8749 21.9259 20.3814" fill="#19B99A"></path>
<path d="M7.94312 1.46093C4.55701 3.05604 3.19889 6.94969 3.19889 12.9016C3.19889 18.7453 4.55485 22.6628 7.94312 24.3726L7.56328 25.8335C2.35913 24.009 0 19.953 0 12.9254C0 5.84371 2.35913 1.78558 7.56328 0L7.94312 1.46093Z" fill="#0A2540"></path>
<path d="M33.0192 0C38.2277 1.78341 40.5814 5.84371 40.5814 12.9233C40.5814 19.9574 38.2223 24.009 33.0181 25.8184L32.6123 24.3596C36.0027 22.6563 37.3565 18.7323 37.3565 12.8886C37.3565 6.9367 36.0006 3.04739 32.6123 1.45227L33.0192 0Z" fill="#0A2540"></path>
<path d="M56.0952 19.1629C54.5253 19.7657 52.8524 20.0547 51.1713 20.0135C47.0298 20.0135 45.0397 18.2192 45.6804 13.6871C46.2713 9.41256 47.9053 7.66594 52.2383 7.66594C53.9407 7.63781 55.6334 7.92623 57.2304 8.51652L56.6417 11.1354L52.7837 11.1116C51.0317 11.1116 50.4398 11.7024 50.1552 13.8256C49.8467 16.1631 50.2515 16.5873 51.9548 16.5873C53.2353 16.5949 54.5153 16.5321 55.7889 16.399L56.0952 19.1629Z" fill="#0A2540"></path>
<path d="M63.0092 14.04C62.678 16.4489 62.8902 17.0138 64.4312 17.0138C65.9224 17.0138 66.3975 16.3775 66.7751 13.7088C67.1528 11.2545 66.8942 10.6788 65.4484 10.6788C63.8868 10.6788 63.4128 11.2675 63.0092 14.0335V14.04ZM71.2218 14.0422C70.5725 18.4574 68.7847 20.0136 64.2775 20.0136C59.7703 20.0136 57.8711 18.3146 58.5323 13.711C59.1513 9.25031 60.9477 7.66602 65.5187 7.66602C70.039 7.66602 71.8862 9.4148 71.2239 14.0422" fill="#0A2540"></path>
<path d="M80.4304 10.4233C78.6307 10.4233 78.2054 10.7999 77.8494 13.5162C77.5659 15.6416 77.5182 16.49 78.5831 16.4207C79.5807 16.3239 80.5159 15.8912 81.2355 15.1935L81.8729 10.432L80.4304 10.4233ZM84.903 19.73H81.5179L81.4714 17.7475C80.2715 19.0548 78.6241 19.8636 76.8559 20.0135C74.1105 20.0135 72.8801 18.0764 73.4698 13.5919C74.1191 8.68105 76.0508 7.66598 78.5831 7.66598C79.8533 7.66556 81.121 7.78002 82.3707 8.00794C82.3585 7.20172 82.4142 6.3959 82.5373 5.59903L82.9388 3.21826H87.2426L84.903 19.73Z" fill="#0A2540"></path>
<path d="M94.9878 12.7417C96.0537 12.6464 96.6197 12.4819 96.7192 11.4669C96.7906 10.6877 96.4822 10.5449 95.2972 10.5687C93.8515 10.5925 93.3786 11.0167 93.0009 12.93L94.9878 12.7417ZM99.6995 19.0702C97.9803 19.74 96.145 20.0608 94.3006 20.0138C89.2826 20.0138 87.9158 17.8192 88.3584 13.7113C88.8995 8.82638 91.1298 7.66846 95.3654 7.66846C100.006 7.66846 101.225 9.20297 100.856 11.8889C100.524 14.0857 99.0329 14.7134 95.9238 14.9579L92.7271 15.1939C92.7769 16.447 93.3905 16.6829 94.7172 16.6829C95.7561 16.6829 97.9724 16.5639 99.4019 16.3994L99.6995 19.0702Z" fill="#0A2540"></path>
<path d="M110.114 4.67701C108.668 4.67701 108.078 5.00816 107.865 6.5167L107.606 8.22436H111.177L110.938 9.98397H107.366L105.804 21.0567C105.773 22.0107 105.354 22.9106 104.643 23.5478C103.933 24.185 102.993 24.5041 102.041 24.4309C101.084 24.4243 100.128 24.3607 99.1787 24.2405L99.5347 22.5393H101.309C102.731 22.5393 103.321 22.2081 103.537 20.6996L105.052 9.98613H102.996L103.212 8.33258L105.319 8.21571L105.604 6.15958C105.632 5.20498 106.053 4.30444 106.768 3.67092C107.482 3.0374 108.427 2.72715 109.378 2.81352C110.508 2.79958 111.638 2.85452 112.762 2.97801L112.384 4.68784L110.114 4.67701Z" fill="#19B99A"></path>
<path d="M120.909 10.051H120.259C118.961 10.051 117.703 10.9168 115.702 12.3885L114.684 19.73H112.387L114.019 8.20919H115.772L115.653 10.854C117.492 8.96671 119.296 7.90186 120.861 7.90186H121.477L120.909 10.051Z" fill="#19B99A"></path>
<path d="M128.886 13.261C130.307 13.168 130.921 12.7676 131.11 11.443C131.326 9.86086 130.52 9.81974 128.673 9.81974C126.332 9.81974 125.526 10.4561 125.029 13.6203L128.886 13.261ZM132.199 19.3536C130.657 19.8246 129.05 20.0482 127.438 20.0159C123.434 20.0159 122.065 17.9598 122.631 13.6658C123.248 9.17909 124.832 7.9043 129.016 7.9043C132.803 7.9043 133.727 9.32194 133.395 11.6356C133.017 13.9255 131.692 14.7523 128.875 14.9644L124.871 15.3193C124.847 17.633 125.936 18.1027 127.781 18.1027C129.061 18.1027 130.717 17.962 132.044 17.8191L132.199 19.3536Z" fill="#19B99A"></path>
<path d="M138.542 14.0164C136.886 13.2372 136.105 12.3412 136.317 10.6616C136.578 8.46699 138.164 7.84799 141.194 7.89994C142.85 7.92793 144.501 8.0624 146.14 8.3025L145.855 9.92576C144.389 9.88031 143.014 9.83053 141.263 9.80672C139.368 9.80672 138.659 9.85433 138.54 10.8218C138.423 11.6875 138.972 11.9321 139.915 12.3563L143.04 13.7739C144.838 14.6007 145.574 15.3323 145.334 17.1027C144.981 19.7237 143.11 19.9834 139.865 19.9834C138.368 19.9866 136.873 19.8759 135.393 19.6523L135.653 17.9533C136.719 18.0464 138.209 18.0723 139.275 18.0723C142.188 18.0723 142.945 17.8364 143.086 16.8906C143.227 16.0422 142.653 15.8993 141.641 15.4275L138.542 14.0164Z" fill="#19B99A"></path>
<path d="M152.369 7.73728C152.235 8.69191 152.046 9.63789 151.801 10.5704C153.809 8.79997 155.486 7.89961 157.146 7.89961C157.996 7.78955 158.843 8.11716 159.398 8.77006C159.953 9.42296 160.14 10.3124 159.894 11.1331L158.663 19.7255H156.391L157.503 11.7002C157.693 10.2587 157.432 9.83452 156.438 9.83452C155.016 9.83452 153.645 10.802 151.664 12.3603L150.646 19.7191H148.344L150.687 3.19434H152.959L152.369 7.73728Z" fill="#19B99A"></path>
</svg>