<svg xmlns="http://www.w3.org/2000/svg" viewBox="0 0 120 27"><path d="M112.929 8.18v2.96h5.555v3.806h-5.555v2.94H120v3.887h-11.11V4.293H120V8.19h-7.071v-.01zM97.26 13.033l-3.957-8.74h-4.487l8.444 17.683 8.455-17.683h-4.487l-3.968 8.74zm-14.03 1.333l5.83 7.417h-4.813l-5.555-7.102h-.05v7.092h-4.04V4.293h6.756a5.48 5.48 0 013.418 1.21 5.1 5.1 0 011.822 3.063c.223 1.2.01 2.432-.61 3.49a5.32 5.32 0 01-2.758 2.31zm-.458-4.731c0-.234-.05-.468-.142-.682a1.724 1.724 0 00-.407-.57 1.762 1.762 0 00-.6-.376 2.081 2.081 0 00-.703-.122h-2.268v3.48h2.268a1.879 1.879 0 001.312-.478c.174-.164.316-.357.408-.57.091-.214.142-.448.132-.682zm-17.154 5.097c0 2.116-1.343 3.45-3.306 3.45-1.964 0-3.297-1.334-3.297-3.45V4.293h-4.04v10.398c0 4.385 3.053 7.285 7.347 7.285 4.293 0 7.346-2.91 7.346-7.285V4.293h-4.04l-.01 10.439zm-46.1 4.874a.333.333 0 00-.152.111.353.353 0 00-.082.163.553.553 0 000 .183c.01.061.051.112.092.163.173.265.488.712.936 1.353.448.641.793 1.12 1.038 1.465.101.173.234.184.407.041a17.772 17.772 0 001.79-1.71 13.422 13.422 0 002.94-6.48c.031-.03-.03 0-.152.071-3.296 2.198-5.565 3.754-6.817 4.64zm6.095-11.61c-.041-.01-.133.031-.285.123-.499.335-2.035 1.383-4.62 3.133-2.706 1.842-4.212 2.87-4.507 3.063a1.212 1.212 0 00-.498.54c-.04.142.04.365.244.66L17.8 18.1c.173.244.315.376.407.397.102.02.274-.051.519-.214.57-.417 1.394-.977 2.472-1.69a98.11 98.11 0 002.249-1.515c1.414-.946 2.36-1.587 2.838-1.933a.633.633 0 00.275-.244.599.599 0 00.102-.346 14.297 14.297 0 00-.886-4.324c-.07-.143-.122-.214-.162-.234zM12.08 9.798a.88.88 0 00.224.58c.366.53.997 1.425 1.882 2.697.153.213.254.335.356.346a.885.885 0 00.468-.204 763.95 763.95 0 004.772-3.235v.04c2.39-1.628 3.947-2.706 4.69-3.245.244-.143.377-.255.387-.326.01-.071-.051-.214-.204-.437a14.062 14.062 0 00-2.269-2.585c-.244-.244-.417-.366-.498-.366-.214.05-.407.153-.58.285-.01 0-.03 0-.04.01-.01.01-.031.01-.031.03l-.03.031c-.011.01-.031.01-.041.01-4.752 3.226-7.641 5.2-8.68 5.901a.87.87 0 00-.406.468zm6.868 12.8c-.407-.57-.682-.946-.804-1.15-.204-.264-.346-.417-.448-.437-.203 0-.417.05-.6.142a9.572 9.572 0 01-5.983.478 8.824 8.824 0 01-4.863-2.9c-1.943-2.32-2.574-4.883-1.903-7.681.865-3.663 3.104-5.911 6.705-6.746a9.015 9.015 0 014.925.285.946.946 0 00.936-.153c.101-.07.64-.437 1.607-1.088.946-.63 1.496-1.007 1.638-1.13.143-.122.234-.193.255-.213 0-.051-.082-.122-.255-.214A13.03 13.03 0 0011.643.142 13.104 13.104 0 003.84 3.998a12.993 12.993 0 00-3.52 6.308 12.72 12.72 0 00.437 7.163 12.622 12.622 0 004.304 5.83 12.868 12.868 0 007.172 2.696c2.625.214 5.25-.346 7.54-1.608.05-.01.091-.04.122-.08a.335.335 0 00.07-.133.335.335 0 000-.143.203.203 0 00-.08-.122c-.214-.295-.53-.742-.936-1.312zm15.973-9.615c-.03 4.935 3.816 9.147 9.95 9.177 2.9.01 4.823-.966 6.706-2.442l-2.208-3.174a6.476 6.476 0 01-4.467 1.7c-3.317-.011-5.382-2.33-5.362-5.24.02-2.91 2.106-5.2 5.413-5.18a6.4 6.4 0 014.446 1.74L51.65 6.41c-1.862-1.505-3.775-2.492-6.675-2.513-6.145-.02-10.031 4.162-10.052 9.096v-.01z"/></svg>