<?xml version="1.0" encoding="UTF-8"?> <svg xmlns="http://www.w3.org/2000/svg" xmlns:xlink="http://www.w3.org/1999/xlink" role="img" viewBox="-6.46 -6.46 1011.92 1011.92"><style>svg {enable-background:new 0 0 1000 1000}</style><style>.st0{fill:#3d5080}.st3{fill:#fff}</style><path d="M928.8 727.6H71.2l-55.6-35.4h968.8z" class="st0"></path><circle cx="500" cy="500" r="486.5" class="st0"></circle><defs><circle id="SVGID_1_" cx="500" cy="500" r="486.5"></circle></defs><clipPath id="SVGID_00000052788936934154063720000011799702862614401411_"><use overflow="visible" xlink:href="#SVGID_1_"></use></clipPath><g clip-path="url(#SVGID_00000052788936934154063720000011799702862614401411_)"><path fill="#516baa" d="M394.3 403.6v329.3c0 .6-.4 1.1-1 1.2l-317 54.3c-.7.1-1.3-.4-1.4-1.1 0-.2 0-.5.1-.7l317-708c.3-.6 1.1-.9 1.7-.6.4.2.7.6.7 1.1 0 .1-.1 324.5-.1 324.5zm53.5-189.7v520.4c0 .6.5 1.2 1.1 1.2l474.9 53c.7.1 1.3-.4 1.4-1.1 0-.2 0-.4-.1-.6L450.2-273.9c-.3-.6-1.1-.9-1.7-.6-.4.2-.7.6-.7 1.1v487.3zm472.4 623.2L394.8 994.7c-.3.1-.6.1-.9 0L76.5 837.1c-.6-.3-.9-1-.6-1.6.2-.5.7-.8 1.2-.7h842.8c.7.1 1.2.8 1 1.5-.1.3-.4.6-.7.8z"></path></g><path d="M227.3 350v87.7c0 .2-.1.3-.3.3l-84.4 14.5c-.2 0-.4-.1-.4-.3v-.2l84.4-188.5c.1-.2.3-.2.5-.2.1.1.2.2.2.3V350zm14.3-50.5V438c0 .2.1.3.3.3l126.4 14.1c.2 0 .4-.1.4-.3v-.2L242.2 169.6c-.1-.2-.3-.2-.5-.2-.1.1-.2.2-.2.3v129.8h.1zm125.7 165.9l-139.9 42h-.2l-84.5-42c-.2-.1-.2-.3-.2-.4.1-.1.2-.2.3-.2h224.4c.2 0 .3.2.3.4 0 .1-.1.2-.2.2zm100.6-19.8c-.5-.5-.7-1.1-.7-1.8V300.2c0-.7.2-1.3.7-1.8s1.1-.7 1.8-.7h19.5c.7 0 1.3.3 1.8.7.5.5.7 1.1.7 1.8v143.6c0 .7-.2 1.3-.7 1.8s-1.1.7-1.8.7h-19.5c-.7.1-1.3-.2-1.8-.7zm70.6-1.9c-6.7-2.6-11.9-6.2-15.6-10.8-3.7-4.6-5.5-9.7-5.5-15.4v-1.9c0-.7.2-1.3.7-1.8s1.1-.7 1.8-.7h18.7c.7 0 1.3.2 1.8.7s.7 1.1.7 1.8v.4c0 3.5 1.9 6.6 5.8 9.2 3.9 2.6 8.8 3.9 14.8 3.9 5.7 0 10.3-1.2 13.8-3.5s5.3-5.3 5.3-8.8c0-3.3-1.5-5.7-4.4-7.3-2.9-1.6-7.6-3.4-14.1-5.2l-8.1-2.5c-7.2-2.1-13.3-4.4-18.3-6.8s-9.1-5.7-12.5-9.9c-3.4-4.2-5.1-9.5-5.1-16 0-9.9 3.9-17.8 11.7-23.7 7.8-5.9 18.1-8.8 30.8-8.8 8.6 0 16.2 1.4 22.7 4.1 6.5 2.8 11.5 6.6 15.1 11.5 3.5 4.9 5.3 10.4 5.3 16.7 0 .7-.2 1.3-.7 1.8s-1.1.7-1.8.7h-18.1c-.7 0-1.3-.2-1.8-.7s-.7-1.1-.7-1.8c0-3.7-1.8-6.8-5.4-9.2-3.6-2.5-8.5-3.7-14.8-3.7-5.5 0-10 1-13.5 3.1s-5.2 4.9-5.2 8.6c0 3.4 1.7 6 5 7.8s8.9 3.7 16.7 5.8l4.7 1.3c7.5 2.3 13.8 4.6 18.9 6.9s9.4 5.6 13 9.8c3.5 4.2 5.3 9.6 5.3 16.3 0 10.1-4 18-11.9 23.7s-18.5 8.6-31.7 8.6c-8.9-.2-16.7-1.6-23.4-4.2zM684 357c-.5.5-1.1.7-1.8.7h-21.7c-.7 0-1.1.4-1.1 1.1V410c0 5.4 1.2 9.3 3.5 11.7 2.3 2.4 6.1 3.6 11.2 3.6h6.4c.7 0 1.3.2 1.8.7s.7 1.1.7 1.8v15.9c0 1.6-.9 2.5-2.6 2.8l-11.1.2c-11.2 0-19.5-1.9-25.1-5.7-5.5-3.8-8.4-11.1-8.5-21.7v-60.6c0-.7-.4-1.1-1.1-1.1h-12.1c-.7 0-1.3-.2-1.8-.7s-.7-1.1-.7-1.8v-14.9c0-.7.2-1.3.7-1.8s1.1-.7 1.8-.7h12.1c.7 0 1.1-.4 1.1-1.1v-24.9c0-.7.2-1.3.7-1.8s1.1-.7 1.8-.7h18.5c.7 0 1.3.3 1.8.7.5.5.7 1.1.7 1.8v24.9c0 .7.4 1.1 1.1 1.1H682c.7 0 1.3.3 1.8.7.5.5.7 1.1.7 1.8v14.9c.3.8 0 1.4-.5 1.9zm26.9-38.3c-2.8-2.8-4.3-6.4-4.3-10.8s1.4-8 4.3-10.8c2.8-2.8 6.4-4.2 10.8-4.2s8 1.4 10.8 4.2c2.8 2.8 4.2 6.4 4.2 10.8s-1.4 8-4.2 10.8-6.4 4.2-10.8 4.2c-4.3 0-8-1.4-10.8-4.2zm-1.2 126.9c-.5-.5-.7-1.1-.7-1.8V340.1c0-.7.2-1.3.7-1.8s1.1-.7 1.8-.7H731c.7 0 1.3.2 1.8.7s.7 1.1.7 1.8v103.7c0 .7-.2 1.3-.7 1.8s-1.1.7-1.8.7h-19.5c-.7.1-1.3-.2-1.8-.7zm70.6-6c-8-5.7-13.6-13.5-16.9-23.6-2.4-7.7-3.6-15.7-3.6-24.2 0-9.1 1.1-17.1 3.4-24.2 3.3-9.9 8.9-17.6 17-23.2 8.1-5.5 17.8-8.3 29.1-8.3 10.8 0 20.1 2.8 27.9 8.3 7.9 5.5 13.4 13.2 16.7 23 2.5 6.8 3.8 14.9 3.8 24.2 0 8.9-1.2 17-3.6 24.2-3.3 10.1-8.9 18-16.8 23.7-7.9 5.7-17.4 8.6-28.3 8.6-11.1 0-20.7-2.9-28.7-8.5zm42.3-17.2c3.8-3 6.5-7.2 8.2-12.5 1.4-4.7 2.1-10.6 2.1-17.8 0-7.7-.7-13.6-2.1-17.8-1.6-5.4-4.3-9.5-8.1-12.4s-8.5-4.4-14-4.4c-5.2 0-9.8 1.5-13.6 4.4s-6.6 7-8.3 12.4c-1.4 5-2.1 10.9-2.1 17.8s.7 12.9 2.1 17.8c1.6 5.4 4.3 9.6 8.2 12.5 3.9 3 8.6 4.5 14.1 4.5 5.2-.1 9.7-1.6 13.5-4.5z" class="st3"></path><path fill="#7dc6f2" d="M500 41.3c252.9 0 458.7 205.8 458.7 458.7S752.9 958.7 500 958.7 41.3 752.9 41.3 500 247.1 41.3 500 41.3m0-27.8C231.3 13.5 13.5 231.3 13.5 500S231.3 986.5 500 986.5 986.5 768.7 986.5 500 768.7 13.5 500 13.5z"></path><path d="M298.1 834.1l3.2-10.7c0-.3 0-.5-.2-.7l-22.3-14.9c-.2-.1-.4-.1-.7.1l-8.6 7.1c-.6.5-1.2.5-1.8.1l-11.5-7.7c-.4-.2-.6-.5-.6-.9 0-.3.1-.7.5-1l60.5-48.2c.6-.5 1.2-.5 1.8-.1l14.2 9.5c.6.4.8 1 .6 1.7L312 842.8c0 .2-.1.3-.2.5-.4.5-.9.6-1.5.2l-11.5-7.7c-.7-.4-.9-1-.7-1.7zm-9.5-34.1l16 10.7c.4.2.6.1.7-.3l9.8-32.4c.1-.3.1-.4-.1-.5-.1 0-.3 0-.5.1l-26 21.6c-.2.4-.2.6.1.8zm47.5 53.8c-2.8-2.7-4.6-5.6-5.5-8.6-.9-3.1-.7-6 .5-8.9l.4-1c.1-.3.4-.6.7-.7.3-.1.7-.1 1 0l11.1 4.7c.3.1.6.4.7.7s.1.7 0 1v.1c-.6 1.5-.3 3.1.9 4.8 1.2 1.7 3 3.1 5.5 4.2 2.3 1 4.3 1.3 6.1 1 1.8-.3 3-1.1 3.5-2.5.5-1.2.3-2.4-.7-3.5-.9-1.1-2.6-2.6-5.1-4.4-2.8-2.1-4.9-4-6.4-5.5-3.7-3.3-6.3-6.6-7.9-9.8s-1.6-6.8.1-10.8c2.1-4.9 5.7-8.1 10.8-9.3 5.1-1.3 10.8-.6 17.2 2.2 4.3 1.8 7.7 4.1 10.4 6.8 2.6 2.7 4.3 5.7 5 9 .7 3.2.4 6.4-.9 9.6-.1.3-.4.6-.7.7-.3.1-.7.1-1 0L371 829c-.3-.1-.6-.4-.7-.7s-.1-.7 0-1c.6-1.5.4-3-.7-4.7-1.1-1.6-2.9-3-5.3-4.1-2.2-.9-4.2-1.3-5.9-1.1-1.7.2-2.9 1-3.5 2.4-.6 1.3-.3 2.6.8 3.9 1.1 1.3 3.1 2.9 6 5 .6.5 1.4 1.1 2.2 1.7.8.6 1.7 1.3 2.6 2.1 4.1 3.4 7.1 6.8 8.9 10.2s1.8 7.2 0 11.4c-2.1 5-5.7 8-10.8 9.1-5.1 1.1-11 .2-17.6-2.6-4.5-1.8-8.1-4.1-10.9-6.8zm59.1 21.8c-3.2-2.2-5.5-4.7-6.8-7.6-1.4-2.9-1.7-5.8-.9-8.9l.3-1.1c.1-.3.3-.6.6-.8.3-.2.6-.2 1-.1l11.8 2.9c.4.1.6.3.8.6.2.3.2.6.1 1v.1c-.4 1.6.2 3.1 1.6 4.6 1.5 1.5 3.5 2.6 6.1 3.2 2.4.6 4.5.6 6.2 0s2.7-1.6 3.1-3c.3-1.3-.1-2.4-1.2-3.3-1.1-.9-3-2.1-5.8-3.5-3.1-1.7-5.5-3.1-7.2-4.4-4.1-2.7-7.3-5.5-9.4-8.4s-2.7-6.5-1.6-10.7c1.3-5.2 4.3-8.9 9.1-11 4.8-2.1 10.6-2.3 17.3-.7 4.5 1.1 8.3 2.8 11.3 5.1s5.2 5 6.4 8c1.2 3.1 1.4 6.3.6 9.6-.1.3-.3.6-.6.8-.3.2-.6.2-1 .2l-11.3-2.8c-.4-.1-.6-.3-.8-.6-.2-.3-.2-.6-.2-1 .4-1.6-.1-3.1-1.4-4.5s-3.3-2.5-5.9-3.1c-2.3-.6-4.3-.6-6-.1s-2.7 1.5-3.1 3c-.3 1.4.1 2.6 1.4 3.7 1.3 1.1 3.5 2.4 6.7 4 .7.4 1.5.8 2.5 1.3.9.5 1.9 1 3 1.7 4.6 2.7 8.1 5.6 10.5 8.6 2.3 3 2.9 6.8 1.9 11.2-1.3 5.2-4.3 8.8-9.2 10.7-4.8 1.9-10.8 2-17.8.3-4.9-1.1-8.9-2.8-12.1-5zm61.3 9.4c-4.1-3.5-6.8-8.1-8-13.7-.8-3.5-1-7.2-.7-11.2.3-4.3 1.1-8.1 2.3-11.4 2-5.2 5.4-9.2 9.9-12 4.6-2.7 9.9-3.9 16-3.4 5.9.4 10.9 2.3 14.9 5.6s6.7 7.7 8 13.2c.9 3.7 1.2 7.6.9 11.5-.3 3.9-1 7.5-2.3 10.9-2 5.5-5.3 9.8-9.8 12.7s-9.9 4.2-16 3.7c-6-.5-11.1-2.4-15.2-5.9zm22.5-9c1.8-1.3 3.1-3.2 4-5.7.7-2.3 1.2-4.8 1.4-7.5.2-3 .1-5.6-.3-7.8-.6-2.5-1.7-4.5-3.3-6-1.6-1.5-3.6-2.3-5.9-2.5-2.5-.2-4.6.4-6.3 1.6-1.7 1.3-3 3.1-3.9 5.5-.7 1.7-1.2 4.3-1.4 7.7-.2 3.3-.2 5.8.2 7.7.5 2.6 1.6 4.7 3.2 6.2 1.6 1.6 3.6 2.4 6.1 2.6 2.3.1 4.4-.5 6.2-1.8zm46 11c-4.5-2.5-7.9-6.1-10.3-11-1.6-3.5-2.6-7.7-3.1-12.6-.5-4.8-.3-9.1.6-12.8 1.2-5.1 3.9-9.3 7.8-12.5 4-3.2 8.9-5.2 14.7-5.7 5.8-.6 11 .4 15.7 2.8 4.7 2.5 7.9 5.8 9.8 10.1.7 1.7 1.2 2.9 1.3 3.8v.2c.1.7-.3 1.1-1 1.3l-12.3 3.1h-.2c-.7.1-1.1-.3-1.4-1l-.5-1.7c-.7-1.8-2-3.3-3.8-4.3-1.9-1.1-4-1.5-6.4-1.2-2.3.2-4.2 1-5.7 2.3s-2.4 3-2.9 5.1c-.6 2.2-.7 5.3-.3 9 .4 3.8 1 6.7 2 8.8.9 2.1 2.2 3.7 3.9 4.8 1.8 1.1 3.8 1.5 6.1 1.3 2.2-.2 4.2-1 5.7-2.4 1.6-1.4 2.6-3.1 3-5.3.1-.2.1-.4 0-.7.1-.1.1-.2.1-.3 0-.9.5-1.3 1.4-1.2l12.7.7c.7.1 1.1.4 1.2 1.1.1.6 0 1.7-.3 3.3-1 5-3.6 9.1-7.7 12.3-4.1 3.2-9 5.1-14.7 5.6-5.7.5-10.9-.5-15.4-2.9zm42.6-67.8c-2-1.2-3.2-3-3.8-5.5s-.3-4.7.9-6.6c1.2-1.9 3-3.2 5.5-3.7s4.7-.3 6.6.9c1.9 1.2 3.2 3 3.7 5.5.6 2.4.2 4.6-1 6.5-1.2 2-3 3.2-5.5 3.8-2.2.7-4.4.4-6.4-.9zm13.2 63.1c-.3-.2-.5-.5-.6-.8l-12-52.2c-.1-.3 0-.7.2-1s.5-.5.8-.6l12.4-2.9c.4-.1.7 0 1 .2s.5.5.6.8l12 52.2c.1.4 0 .7-.2 1s-.5.5-.8.6l-12.4 2.9c-.3.1-.7 0-1-.2zm47-70.6c4 .2 7.5 1.3 10.5 3.3 2.9 1.9 5 4.6 6.2 7.8l12.8 34.7c.1.3.1.7 0 1-.2.3-.4.6-.7.7l-12 4.4c-.3.1-.7.1-1 0-.3-.2-.6-.4-.7-.7l-1.2-3.4c-.1-.2-.2-.3-.4-.3s-.3.1-.3.4c-1.5 4.8-5.4 8.4-11.7 10.7-5.3 2-10.1 2.3-14.3.9-4.2-1.4-7.3-4.6-9.1-9.6-1.9-5.2-1.6-10 1-14.3s7.3-7.7 14.1-10.2l10.4-3.9c.3-.1.4-.4.3-.7l-.8-2.2c-.8-2.3-2.2-3.8-4-4.5s-4.1-.6-6.8.4c-2.1.8-3.7 1.8-4.9 3.1-1.1 1.3-1.6 2.6-1.5 4.2.1.8-.2 1.3-1 1.5l-13 2.9c-.9.2-1.4 0-1.5-.5-.8-3-.6-6 .6-9 1.2-3.1 3.1-5.9 6-8.4 2.8-2.5 6.3-4.5 10.4-6 4.3-1.9 8.6-2.6 12.6-2.3zm7.9 41.1c1.5-2.3 1.7-4.7.8-7.2l-1.4-3.7c-.1-.3-.4-.4-.7-.3l-7.4 2.7c-3.1 1.1-5.3 2.6-6.6 4.4-1.3 1.8-1.6 3.8-.8 5.9.7 1.8 1.9 3.1 3.5 3.6 1.7.6 3.6.5 5.8-.3 3.2-1 5.4-2.7 6.8-5.1zm44.8-56c-.1.3-.3.6-.6.8l-9.2 5c-.3.2-.4.4-.2.7l11.1 20.3c1.1 2.1 2.4 3.4 3.8 4 1.4.6 3.1.3 5-.7l3.2-1.7c.3-.2.7-.2 1-.1.3.1.6.3.8.6l5 9.1c.4.7.2 1.3-.5 1.9-2.6 1.6-4.5 2.7-5.6 3.3-5.3 2.9-9.7 4.2-13.3 3.8-3.6-.3-6.7-2.9-9.4-7.7l-14-25.7c-.2-.3-.4-.4-.7-.2l-5.5 3c-.3.2-.7.2-1 .1-.3-.1-.6-.3-.8-.6l-4.6-8.5c-.2-.3-.2-.7-.1-1 .1-.3.3-.6.6-.8l5.5-3c.3-.2.4-.4.2-.7l-6.2-11.4c-.2-.3-.2-.7-.1-1 .1-.3.3-.6.6-.8l10.7-5.9c.3-.2.7-.2 1-.1.3.1.6.3.8.6l6.2 11.4c.2.3.4.4.7.2l9.2-5c.3-.2.6-.2 1-.1.3.1.6.3.8.6l4.6 8.5c0 .4.1.7 0 1.1zm59.6-18.8c.5.7.3 1.4-.4 1.9l-27 20.2c-.4.3-.4.5 0 .7 1 1 2.2 2 3.6 2.8 4 2.1 8.3 1.5 12.9-2 3.7-2.8 5.5-6.6 5.4-11.1 0-.5.1-.9.4-1.1.2-.1.5-.2.9-.1l10.9 1.5c.5.1.8.2 1 .5.1.1.1.4.2 1-.1 3.8-1.2 7.5-3.3 11.1-2 3.6-4.9 6.7-8.5 9.4-5 3.7-10.1 5.8-15.3 6.1s-10-1-14.6-3.9c-3.4-2-6.9-5.3-10.4-10.1-2.4-3.2-4.1-6.4-5-9.4-1.8-5.1-1.9-10.2-.4-15.1s4.6-9.1 9.2-12.6c5.8-4.4 11.8-6.2 17.8-5.4 6 .7 11.6 3.6 16.5 8.7 2.2 1.7 4.2 4.1 6.1 6.9zm-35.5 10.7c.3.9.8 2 1.5 3.2.2.3.5.3.8.1l15.1-11.3c.3-.3.4-.5 0-.7-1.6-1.5-2.3-2.2-2.3-2.1-1.8-1.4-3.8-2-5.8-2s-4 .7-5.9 2.2c-3.7 2.8-4.9 6.3-3.4 10.6z" class="st3"></path><path fill="#2a3755" d="M15.6 547.7h968.8v144.5H15.6z"></path><g><path d="M225.2 658.6c-4.1-2.1-7.2-5.1-9.5-8.9-2.2-3.9-3.4-8.3-3.4-13.3v-28.5c0-5 1.1-9.4 3.4-13.2 2.2-3.8 5.4-6.7 9.5-8.8 4.1-2.1 8.7-3.1 14-3.1 5.3 0 9.9 1 14 3 4 2 7.2 4.9 9.4 8.5 2.2 3.7 3.4 7.9 3.4 12.8v.1c0 .4-.1.7-.3.9-.2.2-.5.3-.8.3l-8.4.4c-.7 0-1.1-.3-1.1-1v-.3c0-4.7-1.5-8.5-4.4-11.3-2.9-2.9-6.9-4.3-11.8-4.3s-8.9 1.4-11.8 4.3-4.5 6.6-4.5 11.3v29.3c0 4.7 1.5 8.5 4.5 11.3s6.9 4.3 11.8 4.3 8.8-1.4 11.8-4.3c2.9-2.9 4.4-6.6 4.4-11.3v-.2c0-.7.4-1 1.1-1l8.4.4c.7 0 1.1.4 1.1 1.1 0 4.8-1.1 9.1-3.4 12.8-2.2 3.7-5.4 6.6-9.4 8.6-4 2.1-8.7 3.1-14 3.1-5.3.2-9.9-.9-14-3zm108.2-22.7c0 .7-.4 1.1-1.1 1.1h-35.1c-.3 0-.4.1-.4.4 0 2.5.2 4.4.7 5.7.8 2.9 2.4 5.2 4.9 6.9 2.5 1.7 5.6 2.5 9.3 2.5 5.4 0 9.6-2.2 12.5-6.7.4-.7.8-.8 1.4-.3l6.3 4.2c.5.4.6.9.3 1.4-2.1 3.3-5 5.9-8.7 7.8-3.8 1.9-8.1 2.9-12.8 2.9-5.4 0-9.9-1.2-13.5-3.5-3.7-2.3-6.4-5.7-8.3-10-1.8-4.3-2.6-9.6-2.6-15.7 0-5.4.4-9.4 1.2-12.2 1.3-5.1 4-9.1 7.9-12 4-2.9 8.8-4.4 14.4-4.4 7.4 0 12.9 1.9 16.6 5.6 3.7 3.7 5.9 9.2 6.7 16.3.3 2.9.4 6.3.3 10zm-31.5-20.5c-2.1 1.6-3.4 3.7-4.2 6.3-.5 1.6-.8 3.7-1 6.2 0 .3.1.4.4.4h25.2c.3 0 .4-.1.4-.4-.1-2.4-.4-4.2-.7-5.4-.7-2.9-2.2-5.2-4.3-6.9-2.2-1.7-4.9-2.6-8.1-2.6-3 0-5.6.8-7.7 2.4zm83.7-9.8c.5.2.7.7.6 1.3l-1.8 8.3c-.1.7-.5.9-1.3.7-1.2-.5-2.7-.8-4.4-.8l-1.5.1c-3.4.1-6.3 1.3-8.5 3.6-2.2 2.2-3.4 5.2-3.4 8.7v32.1c0 .7-.4 1.1-1.1 1.1h-8.4c-.7 0-1.1-.4-1.1-1.1v-53.8c0-.7.4-1.1 1.1-1.1h8.4c.7 0 1.1.4 1.1 1.1v5.8c0 .2.1.3.2.4.1 0 .2 0 .3-.2 3.3-5.1 7.8-7.7 13.5-7.7 2.2.1 4.4.6 6.3 1.5zm45.5 7.8h-11.9c-.3 0-.4.1-.4.4V643c0 3.1.7 5.3 2.1 6.7 1.4 1.4 3.6 2 6.5 2h3.2c.7 0 1.1.4 1.1 1.1v6.8c0 .7-.4 1.1-1.1 1.1-2.3.1-4 .2-5.1.2-5.6 0-9.8-1-12.6-3-2.8-2-4.2-5.7-4.2-11.2v-32.9c0-.3-.1-.4-.4-.4h-6.7c-.7 0-1.1-.4-1.1-1.1v-6.5c0-.7.4-1.1 1.1-1.1h6.7c.3 0 .4-.1.4-.4v-13c0-.7.4-1.1 1.1-1.1h7.9c.7 0 1.1.4 1.1 1.1v13c0 .3.1.4.4.4h11.9c.7 0 1.1.4 1.1 1.1v6.5c0 .8-.3 1.1-1.1 1.1zm23.4-19.4c-1.3-1.3-2-3-2-5.1 0-2.1.7-3.7 2-5.1 1.3-1.3 3-2 5.1-2 2.1 0 3.7.7 5.1 2s2 3 2 5.1c0 2.1-.7 3.7-2 5.1-1.3 1.3-3 2-5.1 2-2.1-.1-3.8-.7-5.1-2zm-.5 65.6v-53.7c0-.7.4-1.1 1.1-1.1h8.4c.7 0 1.1.4 1.1 1.1v53.7c0 .7-.4 1.1-1.1 1.1h-8.4c-.7 0-1.1-.4-1.1-1.1zm52.3-64.5c-1.3 1.4-2 4-2 7.9v1.3c0 .3.1.4.4.4h11.6c.7 0 1.1.4 1.1 1.1v7.5c0 .7-.4 1.1-1.1 1.1h-11.6c-.3 0-.4.1-.4.4v44.8c0 .7-.4 1.1-1.1 1.1h-8.4c-.7 0-1.1-.4-1.1-1.1v-44.8c0-.3-.1-.4-.4-.4h-7.4c-.7 0-1.1-.4-1.1-1.1v-7.5c0-.7.4-1.1 1.1-1.1h7.4c.3 0 .4-.1.4-.4v-2c0-4.8.6-8.6 1.7-11.2 1.1-2.6 3.1-4.5 5.8-5.7 2.7-1.1 6.5-1.7 11.4-1.7h3.7c.7 0 1.1.4 1.1 1.1v7c0 .7-.4 1.1-1.1 1.1h-2.6c-3.6.1-6.1.8-7.4 2.2zm24.5-1.1c-1.3-1.3-2-3-2-5.1 0-2.1.7-3.7 2-5.1 1.3-1.3 3-2 5.1-2 2.1 0 3.7.7 5.1 2s2 3 2 5.1c0 2.1-.7 3.7-2 5.1-1.3 1.3-3 2-5.1 2-2.1-.1-3.7-.7-5.1-2zm-.4 65.6v-53.7c0-.7.4-1.1 1.1-1.1h8.4c.7 0 1.1.4 1.1 1.1v53.7c0 .7-.4 1.1-1.1 1.1h-8.4c-.7 0-1.1-.4-1.1-1.1zm80.8-23.7c0 .7-.4 1.1-1.1 1.1H575c-.3 0-.4.1-.4.4 0 2.5.2 4.4.7 5.7.8 2.9 2.4 5.2 4.9 6.9 2.5 1.7 5.6 2.5 9.3 2.5 5.4 0 9.6-2.2 12.5-6.7.4-.7.8-.8 1.4-.3l6.3 4.2c.5.4.6.9.3 1.4-2.1 3.3-5 5.9-8.7 7.8-3.8 1.9-8.1 2.9-12.8 2.9-5.4 0-9.9-1.2-13.5-3.5-3.7-2.3-6.4-5.7-8.3-10-1.8-4.3-2.6-9.6-2.6-15.7 0-5.4.4-9.4 1.2-12.2 1.3-5.1 4-9.1 7.9-12 4-2.9 8.8-4.4 14.4-4.4 7.4 0 12.9 1.9 16.6 5.6 3.7 3.7 5.9 9.2 6.7 16.3.2 2.9.3 6.3.3 10zm-31.5-20.5c-2.1 1.6-3.4 3.7-4.2 6.3-.5 1.6-.8 3.7-1 6.2 0 .3.1.4.4.4h25.2c.3 0 .4-.1.4-.4-.1-2.4-.4-4.2-.7-5.4-.7-2.9-2.2-5.2-4.3-6.9-2.2-1.7-4.9-2.6-8.1-2.6-3 0-5.6.8-7.7 2.4zm88.6-31.7h8.4c.7 0 1.1.4 1.1 1.1v74.8c0 .7-.4 1.1-1.1 1.1h-8.4c-.7 0-1.1-.4-1.1-1.1V656c0-.1-.1-.3-.2-.3-.1-.1-.2 0-.4.1-1.6 1.8-3.5 3.3-5.7 4.3s-4.6 1.5-7.2 1.5c-5.3 0-9.7-1.3-13.2-3.9-3.5-2.6-6-6.3-7.6-11.1-1.4-3.9-2.1-8.6-2.1-14.1 0-5.1.6-9.6 1.8-13.3 1.5-4.8 4.1-8.6 7.6-11.3 3.5-2.7 8-4.1 13.5-4.1 2.5 0 4.9.5 7.1 1.5s4.2 2.4 5.8 4.2c.1.1.3.2.4.1.1-.1.2-.2.2-.3v-24.5c0-.7.4-1.1 1.1-1.1zm-1.3 49c0-6.2-.9-10.9-2.8-14.1-2.1-3.7-5.2-5.6-9.4-5.6-4.4 0-7.7 1.8-9.8 5.3-2.3 3.7-3.5 8.5-3.5 14.5 0 5.7.9 10.2 2.8 13.6 2.1 4 5.6 6.1 10.5 6.1 4.3 0 7.5-2 9.7-5.9 1.6-3.1 2.5-7.7 2.5-13.9z" class="st3"></path></g></svg> 