<svg xmlns="http://www.w3.org/2000/svg" width="348" height="65" viewBox="0 0 348 65"><g fill="none" fill-rule="evenodd"><path fill="#141414" d="M146.975 39.791c-3.328 0-4.903-1.29-4.903-3.286v-.118c0-1.76.992-3.051 4.611-3.58l1.576-.234c2.302-.323 3.72-.75 5.02-1.542v2.599c0 3.931-2.452 6.161-6.304 6.161m.875-27.992c-4.494 0-9.164 1.233-14.942 4.343l3.21 7.98c5.02-2.816 9.164-4.048 12.2-4.048 3.443 0 4.96 1.29 4.96 2.993v.117c0 1.174-.933 1.82-3.21 2.054l-3.969.41c-9.923 1.057-14.009 5.4-14.009 11.385v.41c0 5.693 4.67 10.153 11.266 10.153 4.342 0 8.116-1.843 10.408-5.097l.74 4.51h8.99V26.53c0-9.683-5.546-14.73-15.644-14.73"/><path fill="#fa582d" d="M63.331 12.034L51.832.474 40.334 12.034 46.054 17.785 17.219 46.774 28.718 58.335 40.217 46.774 34.496 41.023 63.331 12.034M0 29.463L11.499 41.023 40.333 12.034 28.834.474 0 29.463M40.217 46.774L51.716 58.335 80.55 29.346 69.051 17.785 40.217 46.774"/><path fill="#141414" d="M169.33 47.009L179.545 47.009 179.545.063 169.33.063zM119.25 29.991c0 5.281-2.744 9.096-7.297 9.096-4.553 0-7.296-3.815-7.296-9.096v-.587c0-5.281 2.743-9.095 7.296-9.095 4.553 0 7.296 3.814 7.296 9.095v.587zM114.93 11.8c-4.644 0-8.372 2.066-10.426 5.301l-.781-4.714h-8.99v46.36h10.216v-16.07c1.944 3.014 5.623 4.92 9.98 4.92 8.173 0 14.827-7.277 14.827-17.311V29.11c0-10.035-6.654-17.312-14.826-17.312zM324.652 29.991c0 5.281-2.743 9.096-7.297 9.096-4.553 0-7.296-3.815-7.296-9.096v-.587c0-5.281 2.743-9.095 7.296-9.095 4.554 0 7.297 3.814 7.297 9.095v.587zM317.355 11.8c-10.447 0-17.803 7.277-17.803 17.312v1.174c0 10.034 7.356 17.311 17.803 17.311 10.448 0 17.804-7.277 17.804-17.311V29.11c0-10.035-7.356-17.312-17.804-17.312zM341.461 13.032h1.228c.698 0 .991.235.991.763v.058c0 .47-.293.763-.991.763h-1.228v-1.584zm3.329.88v-.176c0-.997-.76-1.702-2.101-1.702h-2.335v5.399h1.107v-1.82h1.236l.924 1.82h1.228l-1.14-2.136c.693-.212 1.08-.732 1.08-1.385z"/><path fill="#141414" d="M342.455 19.546c-2.743 0-4.728-1.996-4.728-4.812 0-2.817 1.985-4.812 4.728-4.812 2.743 0 4.728 1.995 4.728 4.812 0 2.816-1.985 4.812-4.728 4.812m0-10.387c-3.151 0-5.545 2.406-5.545 5.575s2.394 5.575 5.545 5.575S348 17.903 348 14.734c0-3.17-2.394-5.575-5.545-5.575M259.277 47.009L269.493 47.009 269.493.063 259.277.063zM289.631 39.087c-2.977 0-4.086-1.467-4.086-4.636V20.309h12.025v-7.923h-12.025V4.464L275.328 5.99v29.459c0 8.039 4.086 12.147 12.259 12.147 3.618 0 7.88-1.115 11.382-3.11l-2.917-7.277c-2.045 1.115-4.903 1.878-6.421 1.878M236.923 39.791c-3.328 0-4.904-1.29-4.904-3.286v-.118c0-1.76.993-3.051 4.611-3.58l1.577-.234c2.302-.323 3.719-.75 5.02-1.542v2.599c0 3.931-2.452 6.161-6.304 6.161m.875-27.992c-4.494 0-9.164 1.233-14.942 4.343l3.21 7.98c5.02-2.816 9.164-4.048 12.2-4.048 3.443 0 4.96 1.29 4.96 2.993v.117c0 1.174-.934 1.82-3.21 2.054l-3.969.41c-9.923 1.057-14.009 5.4-14.009 11.385v.41c0 5.693 4.67 10.153 11.266 10.153 4.341 0 8.116-1.843 10.408-5.097l.74 4.51h8.99V26.53c0-9.683-5.546-14.73-15.644-14.73M209.197 29.991c0 5.281-2.744 9.096-7.296 9.096-4.553 0-7.296-3.815-7.296-9.096v-.587c0-5.281 2.743-9.095 7.296-9.095 4.552 0 7.296 3.814 7.296 9.095v.587zM201.9 11.8c-10.449 0-17.803 7.277-17.803 17.312v1.174c0 10.034 7.354 17.311 17.803 17.311 10.448 0 17.802-7.277 17.802-17.311V29.11c0-10.035-7.354-17.312-17.802-17.312zM243.711 55.333L246.328 55.333 249.941 60.125 249.978 60.125 249.978 55.333 252.378 55.333 252.378 63.781 249.845 63.781 246.148 58.869 246.112 58.869 246.112 63.781 243.711 63.781 243.711 55.333M255.57 55.333L262.916 55.333 263.014 57.385 258.08 57.385 258.08 58.544 261.955 58.544 261.955 60.414 258.08 60.414 258.08 61.73 263.157 61.73 263.06 63.781 255.57 63.781 255.57 55.333M268.271 57.506L265.33 57.506 265.425 55.333 273.646 55.333 273.744 57.506 270.803 57.506 270.803 63.781 268.271 63.781 268.271 57.506M275.773 55.333L278.459 55.333 279.828 61.199 279.962 61.199 281.736 55.333 284.199 55.333 285.938 61.199 286.071 61.199 287.415 55.333 289.983 55.333 287.774 63.781 284.474 63.781 282.938 58.688 282.866 58.688 281.305 63.781 277.992 63.781 275.773 55.333M298.926 59.557c0-1.46-.84-2.329-2.294-2.329-1.451 0-2.29.869-2.29 2.33 0 1.46.839 2.329 2.28 2.329 1.45 0 2.304-.87 2.304-2.33m-7.094 0c0-2.751 1.86-4.477 4.8-4.477 2.94 0 4.803 1.726 4.803 4.477 0 2.752-1.862 4.477-4.803 4.477-2.94 0-4.8-1.725-4.8-4.477M308.731 59.581c.84 0 1.14-.47 1.14-1.11 0-.64-.3-1.098-1.14-1.098h-2.052v2.208h2.052zm-4.571-4.248h4.897c2.232 0 3.324 1.062 3.324 3.03 0 1.351-.552 2.269-1.634 2.703l1.993 2.715h-2.856l-1.548-2.22h-1.657v2.22h-2.52v-8.448zM315.658 55.333L318.177 55.333 318.177 58.447 319.21 58.447 321.67 55.333 324.503 55.333 324.516 55.346 321.3 59.388 324.696 63.769 324.683 63.781 321.742 63.781 319.199 60.535 318.177 60.535 318.177 63.781 315.658 63.781 315.658 55.333M326.627 63.226v-2.317h.013c1.405.712 2.773 1.062 3.96 1.062.901 0 1.359-.217 1.359-.64 0-.422-.3-.53-2.101-.82-1.97-.314-3.277-.905-3.277-2.607 0-1.58 1.379-2.8 4.08-2.8 1.08 0 2.21.23 3.252.676v2.293l-.01.012c-.997-.58-2.342-.941-3.421-.941-.96 0-1.346.23-1.346.615 0 .495.588.544 2.065.797 1.97.338 3.277.893 3.277 2.679 0 1.388-1.032 2.775-3.996 2.775-1.467 0-2.63-.301-3.855-.784"/></g></svg>