<?xml version="1.0" encoding="utf-8"?>
<!-- Generator: Adobe Illustrator 25.2.1, SVG Export Plug-In . SVG Version: 6.00 Build 0)  -->
<svg version="1.1" id="Layer_1" xmlns="http://www.w3.org/2000/svg" xmlns:xlink="http://www.w3.org/1999/xlink" x="0px" y="0px"
	 viewBox="0 0 841.89 595.28" style="enable-background:new 0 0 841.89 595.28;" xml:space="preserve">
<style type="text/css">
	.st0{fill:#FFCA20;}
</style>
<path d="M112.36,410.34c-0.87,14.36-4.07,20.47-17.29,20.47c-9.75-0.25-6.19-0.25-15.94-0.21c-2.46,0.01-3.57-0.52-3.54-3.11
	c0.27-25.46-1.29-51.02,1.83-76.33c3.56-28.85,23.78-46.93,54.36-50.97c6.52-0.86,13.03-1.3,19.61-1.23c2.6,0.03,3.9,0.44,3.82,3.39
	c-0.26,9.43-0.33,18.87-0.2,28.3c0.04,3.05-1.07,3.85-4.11,3.8c-5.55-0.1-11.09-0.48-16.65,0.55c-13.06,2.41-20.05,9.68-21.03,22.38
	c-0.19,2.44-0.46,4.89-0.48,7.33c-0.06,9.25-0.02,18.5-0.02,27.75"/>
<path d="M478.89,412.47c-0.09,12.36-9.16,21.63-21.01,21.66c-11.72,0.04-21.05-8.71-21.1-20.89c-0.11-26.98,0.15-53.96,0.56-80.94
	c0.16-10.68,9.87-19.37,20.82-19.45c11.18-0.08,20.76,8.62,21.03,19.79c0.33,13.58,0.08,27.17,0.08,40.76"/>
<path class="st0" d="M403.46,178.21c-9.95-8.6-18.58-16.05-27.19-23.53c-2.06-1.79-4.07-0.58-6.15-0.12
	c-9.52,2.11-19.38-1.66-23.78-9.06c-4.49-7.56-2.92-16.19,4.03-22.06c7.3-6.17,19.85-6.58,27.68-0.91
	c7.96,5.77,10.21,14.93,4.96,23.12c-1.98,3.09-1.22,4.38,1.18,6.41c9.51,8.03,18.86,16.23,28.26,24.37
	c1.49,1.29,3.27,1.99,5.12,2.74c4.72,1.91,7.09,5.51,6.32,10.4c-0.76,4.84-4.03,8.28-9.1,8.37c-16.32,0.29-32.66,0.25-48.98-0.12
	c-6.05-0.14-10-4.87-9.82-10.19c0.19-5.49,4.54-9.54,11.08-9.63c9.35-0.13,18.71,0.12,28.07,0.2
	C397.31,178.23,399.48,178.21,403.46,178.21z"/>
<path class="st0" d="M511.98,179.07c12.46,0,24.2-0.03,35.93,0.01c7.65,0.02,12.55,4,12.47,10c-0.07,5.79-4.82,9.81-12.14,9.74
	c-15.13-0.15-30.26,0.51-45.39-0.4c-5.59-0.34-9.11-2.74-10.27-7.75c-1.18-5.09,1.27-8.8,6.16-10.98c1.85-0.82,3.36-1.95,4.78-3.3
	c8.86-8.43,17.68-16.9,26.66-25.21c2.26-2.09,2.96-3.73,1.69-6.79c-3.56-8.62-0.5-16.84,7.46-21.69c8.15-4.96,20.15-3.91,27.15,2.37
	c6.27,5.62,7.64,14.06,3.45,21.27c-4.34,7.47-15,12.46-23.52,9.01c-7.21-2.92-10.66-0.19-14.9,4.14
	c-5.96,6.09-12.33,11.81-18.51,17.71C512.76,177.44,512.66,177.82,511.98,179.07z"/>
<path class="st0" d="M485.24,176.85c-0.1,13.5-12.77,24.54-28.15,24.54c-15.21,0-28.1-11.28-28.17-24.65
	c-0.07-13.54,13.3-25.18,28.56-24.85C473.03,152.22,485.34,163.29,485.24,176.85z"/>
<path d="M326.89,416.65c10.42,11.05,14.59,13.86,23.88,16.17c27.25,6.77,51.75-4.55,63.72-29.34c5.22-10.82,7.15-22.28,7.92-34.01
	c-0.28-4.84-0.23-9.69-0.07-14.52c0.51-14.9-4.53-28.04-13.8-39.83c-3.69-4.69-7.89-8.96-14.54-9.84
	c-17.4-8.19-35.62-10.5-54.51-6.14c-22.39,5.16-41.56,14.58-46.85,38.42c-1.32,5.93-1.43,11.91-1.45,17.98
	c-0.07,19.82-0.27,39.65-0.43,59.47c-0.17,20.76-0.32,41.52-0.59,62.28c-0.03,2.5,0.77,3.27,3.37,3.18
	c5.17-0.17,10.36,0.12,15.53-0.09c9.86-0.41,16.92-7.54,17-17 M381.1,389.68c-4.51,10.02-12.88,15.5-24.77,15.36
	c-12.3-0.15-20.46-6.11-25.52-16.37c-3.44-7-3.73-14.55-4.09-21.75c0.48-8.2,0.68-16.1,3.91-23.59
	c4.51-10.47,12.62-16.42,24.48-16.76c11.71-0.33,21.03,4.38,25.79,14.86C388.16,357.38,388.29,373.71,381.1,389.68z"/>
<path d="M625.03,278.28c0.01-8.02-6.8-14.69-15.28-15.62c-5.12-0.56-10.34-0.16-15.5-0.49c-3.81-0.24-5.19,0.82-5.06,4.69
	c0.32,9.43,0.1,18.88,0.1,28.33c0,7.15,0,13.3,0,20.46c-9.45-10.97-17.88-15.85-34.72-17.34c-11.25-1-21.69,1.43-31.55,6.48
	c-4.98,2.58-4.55,3.4-6.6,5.11c-6.96,5.78-11.5,12.93-15.54,20.8c-5.09,9.93-6.93,18.98-7.05,29.71
	c-0.63,10.03-0.17,20.05,2.1,29.85c4.61,19.86,14.24,35.9,36.6,42.08c14.47,4,29.15,4.82,43.63,1.38
	c31.94-7.61,46.82-19.66,47.99-51.78C625.42,347.41,625,312.83,625.03,278.28z M584.85,389.96c-4.24,10.27-12.03,16.26-23.8,16.73
	c-11.76,0.46-21.15-3.92-26.04-14.36c-7.43-15.86-7.91-32.21-0.75-48.22c4.75-10.62,13.56-16.37,26.3-15.77
	c11.84,0.56,20.55,6.67,24.96,17.82c2.54,6.43,3.25,13.16,3.46,20.17C588.64,374.23,588.01,382.3,584.85,389.96z"/>
<path d="M279.46,334.67c-0.01-16.31-8.15-27.8-24.32-33.23c-18.05-6.06-36.71-6.91-55.26-2.94c-16.87,3.62-28.71,13.24-33.65,29.55
	c-1.13,3.75-0.56,5.42,4.18,5.12c6.35-0.4,12.74-0.07,19.11-0.11c5.79-0.03,11.98,1.29,15.65-5.09c0.71-1.24,2.94-1.91,4.61-2.39
	c9.69-2.79,19.26-1.99,28.67,1.26c3.69,1.28,5.77,3.94,6.26,7.61c0.5,3.81-1.45,6.58-4.63,8.57c-4.57,2.86-9.8,3.95-15.12,4.85
	c-10.74,1.81-21.79,2.1-32.21,5.53c-10.43,3.44-20.61,7.42-26.42,17.14c-15.89,26.58,0.27,57.88,31.98,62.43
	c11.19,1.61,22.3,0.76,33.32-0.54c25.14-2.96,43.45-16.15,46.11-37.87c1.73-14.18,1.34-24.83,1.73-35.02
	C279.46,349.77,279.46,342.22,279.46,334.67z M244.99,375.36c-0.07,20.87-12.71,32.72-33.45,31.36
	c-8.78-0.58-14.42-4.95-15.65-12.13c-1.44-8.4,2.22-15.06,10.06-18.42c5.66-2.43,11.81-3.11,17.75-4.53
	c4.04-0.96,8.1-1.87,12.06-3.05C245.04,365.81,245.02,365.75,244.99,375.36z"/>
<path class="st0" d="M523.03,304.77c-18.42,12.6-26.61,30.34-28.57,51.2c-0.14,1.49-0.42,2.96-0.63,4.43
	c0.03-9.24,0.1-18.46,0.08-27.69c-0.05-20.8-11.65-31.72-33.62-32.63c-12.41-0.52-23.37,1.43-31.24,11.45
	c-4.29,5.46-6.35,11.58-6.34,18.45c0.02,13.18-0.18,26.37-0.29,39.52c-0.31-12.21-0.64-24.33-5.24-36.01
	c-4.64-11.78-11.48-21.73-23.17-28.2c0.14-20.96,0.3-41.92,0.4-62.88c0.09-17.97,13.96-31.68,32.92-31.87
	c20.91-0.2,41.83-0.13,62.74,0.16c19.43,0.27,33.47,14.61,33.21,32.89C522.98,263.98,523.1,284.38,523.03,304.77z"/>
<path d="M761.36,352.05c-4.32-32.65-26.88-52.28-61.45-53.15c-29.59-0.75-51.47,12.25-60.28,36.25c-3.81,10.37-5.8,21.15-5.3,31.27
	c0,2.46-0.08,3.98,0.01,5.48c0.93,15.2,2.95,30.34,13.07,42.77c15.28,18.76,36.88,23.42,60.32,21.14
	c27.14-2.64,43.99-17.5,51.23-42.27C762.95,379.9,763.22,366.06,761.36,352.05z M726.6,365.72c0.04,9-0.9,16.88-3.74,24.4
	c-6.22,16.46-23.14,22.66-38.43,14.34c-5.32-2.89-8.57-7.32-10.38-12.65c-4.61-13.55-5.54-27.4-2.35-41.3
	c3.36-14.63,13.63-22.5,27.97-22.17c12.43,0.29,22.74,9.8,25.57,23.76C726.22,356.92,726.99,361.79,726.6,365.72z"/>
<g>
	<path d="M436.76,446.45h11.72c5.34,0,9.22,0.76,11.63,2.29c2.41,1.52,3.62,3.95,3.62,7.27c0,2.26-0.53,4.11-1.58,5.55
		s-2.46,2.32-4.21,2.61v0.26c2.39,0.53,4.11,1.53,5.16,3c1.06,1.46,1.58,3.41,1.58,5.84c0,3.44-1.24,6.13-3.72,8.06
		c-2.48,1.93-5.85,2.89-10.11,2.89h-14.09V446.45z M444.74,461.4h4.64c2.16,0,3.73-0.33,4.7-1.01c0.97-0.67,1.46-1.78,1.46-3.33
		c0-1.45-0.53-2.48-1.58-3.11c-1.06-0.63-2.73-0.94-5.01-0.94h-4.2V461.4z M444.74,467.75v9.84h5.2c2.2,0,3.82-0.42,4.87-1.27
		c1.05-0.84,1.57-2.13,1.57-3.87c0-3.13-2.23-4.7-6.7-4.7H444.74z"/>
	<path d="M482.75,484.2v-37.76h7.99v37.76H482.75z"/>
	<path d="M541.06,484.2h-9.07l-9.87-15.91l-3.37,2.43v13.48h-7.99v-37.76h7.99v17.28l3.14-4.44l10.2-12.83h8.86l-13.14,16.71
		L541.06,484.2z"/>
	<path d="M578.04,484.2h-21.69v-37.76h21.69v6.56h-13.7v8.29h12.75v6.56h-12.75v9.74h13.7V484.2z"/>
	<path d="M635.23,484.2h-7.99v-31.09h-10.23v-6.66h28.44v6.66h-10.23V484.2z"/>
	<path d="M684.85,484.2l-2.73-8.99h-13.73l-2.73,8.99h-8.6l13.29-37.91h9.76l13.34,37.91H684.85z M680.22,468.5
		c-2.52-8.14-3.95-12.75-4.26-13.82s-0.55-1.91-0.68-2.53c-0.57,2.2-2.19,7.65-4.87,16.35H680.22z"/>
	<path d="M739.19,484.2h-9.12l-8.76-14.28l-8.76,14.28h-8.55l12.49-19.47l-11.69-18.28h8.81l8.11,13.58l7.96-13.58h8.6l-11.82,18.72
		L739.19,484.2z"/>
	<path d="M754.48,484.2v-37.76h7.99v37.76H754.48z"/>
</g>
</svg>
