<svg xmlns="http://www.w3.org/2000/svg" xmlns:xlink="http://www.w3.org/1999/xlink" id="logo_diap" x="0" y="0" version="1.1" viewBox="0 0 570.3 80.9" xml:space="preserve" style="enable-background:new 0 0 570.3 80.9"><style type="text/css">.st0{fill-rule:evenodd;clip-rule:evenodd;fill:#d53b27}.st1{fill:#0b373c}</style><path d="M17.4,13.9c-1.9,0-3.5,1.6-3.5,3.5l0,0v23.4c0,14.8,12,26.9,26.9,26.9l0,0h23.4c1.9,0,3.5-1.6,3.5-3.5l0,0V17.4	c0-1.9-1.6-3.5-3.5-3.5l0,0H17.4z M5.2,0h70.5c2.9,0,5.2,2.3,5.2,5.2l0,0v70.5c0,2.9-2.3,5.2-5.2,5.2l0,0H40.5	C18.1,80.9,0,62.8,0,40.5l0,0V5.2C0,2.3,2.3,0,5.2,0L5.2,0L5.2,0z" class="st0"/><path d="M510.3,14.9c4.3,0,7.9,3.5,7.9,7.9l0,0c0,1.4,0,3.3,0,5c0,1.9-1.5,3.5-3.4,3.6h-14.2c-1.2,0-1.6,0.6-1.6,1.5	s0.5,1.3,1.6,1.3l14.8-0.1c1.4,0,2.6,1.1,2.6,2.6c0,1.6,0,5.5,0,8.1c0,1.4-1.2,2.6-2.6,2.6l0,0h-14.8c-0.9,0-1.7,0.8-1.7,1.7	c0.1,1,1.3,1.4,1.7,1.4c1.2,0,14.5,0,14.5,0c1.7,0,3.1,1.2,3.3,2.9v4.1c0,4.4-3.5,7.9-7.9,7.9h-27.8c-6.1,0-11.1-5-11.1-11.1l0,0	c0-12.7,0-32.2,0-37.7c0-0.7,0.6-1.7,1.3-1.7C472.9,14.9,510.3,14.9,510.3,14.9z" class="st1"/><path d="M152.3,14.9c4.4,0,7.9,3.5,7.9,7.9l0,0c0,6.1,0,13.4,0,13.4c0,3.1-0.3,5.8-1.6,6.7c-2.2,1.5-3.1,1.9-3.1,3.3	c0,1.2,1,1.8,2,3.8c0.2,0.4,0.4,0.8,0.7,1.2c1.3,2.1,4.9,8,4.9,11.3c0,1.5-1.2,2.8-2.8,2.8h-0.1h-19.8c-2.4,0-3-0.5-3.5-1.5	c-0.9-1.7-3.1-6-3.1-6c-0.7-1.1-1.1-1.5-2.3-1.1c-0.6,0.3-1,0.4-1,1.5c0,2.4,0.1,2.6,0.1,4.3s-0.4,2.7-1.9,2.7H116	c-6.1,0-11.1-4.9-11.1-11l0,0c0-12.9,0.1-33.1,0.1-38.1c0-0.7,0.6-1.3,1.3-1.3l0,0L152.3,14.9z M129.7,37.8	c-0.1,0.9-0.1,1.8,0.1,2.8c0.1,1,0.6,1.6,1.4,1.4c1.4-0.3,2.8-0.8,4.1-1.4c1.1-0.6,1.5-0.7,1.5-2.5c0-0.7-0.5-1.3-1.2-1.3l0,0h-4	C130.7,36.7,129.8,36.9,129.7,37.8L129.7,37.8z" class="st1"/><path d="M204.1,14.9c4.3,0,7.9,3.5,7.9,7.9c0,1.4,0,3.3,0,5c0,1.9-1.5,3.5-3.4,3.6h-14.2c-1.2,0-1.6,0.6-1.6,1.5	s0.5,1.3,1.6,1.3l14.8-0.1c1.4,0,2.6,1.1,2.6,2.6c0,1.6,0,5.5,0,8.1c0,1.5-1.2,2.6-2.6,2.6l0,0h-14.9c-0.9,0-1.7,0.8-1.7,1.7	c0,1,1.3,1.4,1.7,1.4c1.2,0,14.5,0,14.5,0c1.7,0,3.1,1.2,3.3,2.9v4.1c0,4.4-3.5,7.9-7.9,7.9h-27.8c-6.1,0-11.1-5-11.1-11.1l0,0	c0-12.7,0-32.2,0-37.7c0-0.7,0.6-1.7,1.3-1.7C166.6,14.9,204.1,14.9,204.1,14.9z" class="st1"/><path d="M254.7,14.9c8.7,0,15.8,7,15.9,15.7l0,0c0,4.1,0,11.8,0,19c0,8.7-7.1,15.8-15.8,15.8l0,0h-27.3	c-6.1,0-11.1-5-11.1-11.1l0,0l0.1-37.8c0-0.7,0.6-1.6,1.3-1.6C221.9,15,240.7,15,254.7,14.9z M240.9,42c-0.1,1.7,1.6,1.9,2.7,1.9	c1.5,0,4-1.4,4-2.7v-1.6c0-2-2.3-3-3.9-3c-2.8,0-2.8,0.9-2.8,3.5C240.9,40.7,240.9,41.4,240.9,42z" class="st1"/><path d="M312.2,15c1.8,0,2.3,1.7,2.3,3.3c0,1.2,0,2,0,4.1c0,1.8,0.1,2.1,1.2,2.3s1.7,0.2,2.6-1.7	c1.2-2.7,1.6-4.2,2.3-5.6c0.5-1.2,1-2.4,2.6-2.3s17.1-0.1,20.8,0c1.7,0.1,3.1,1.7,3.1,4c-0.1,3-7.1,15-8.2,16.8s-1.6,2.5-1.6,4.2	c0,1.3,0.7,2.1,1.9,4.3c1.5,2.8,3.9,7.2,6.2,11.6c0.1,0.1,0.1,0.3,0.2,0.4c0.8,2.5,1.6,2.5,1.6,5.1c0,1.7-1.3,4-3,4s-17.8,0-20.4,0	c-2.4,0-4-5-5.5-8c-1-1.9-1.7-1.7-2.4-1.4s-1.1,0.9-1.1,2c0,0.5,0,3.7,0,4.7c0,1.5-0.9,2.7-2.1,2.7h-12.8c-6.1,0-11.1-5-11.1-11.1	V16.5c0-0.8,0.5-1.4,1.3-1.6L312.2,15z" class="st1"/><path d="M466.8,22.9v8.8c0,0-0.3,3.6-4.2,6.9l-0.1,0.1c-1.3,0.9-1.5,1.2-1.5,1.7s0.1,0.8,1.7,1.5	c4.4,1.9,4.4,2.7,4.4,5.5v10.2c0,4.4-3.5,7.9-7.9,7.9l0,0h-35.3c-6.1,0-11.1-5-11.1-11.1v-38c0-0.7,0.6-1.3,1.3-1.3	c5.6,0,31.6,0,44.9,0C463.2,15,466.8,18.5,466.8,22.9z M439.8,50.2h1.4c0.9-0.1,1.5-0.8,1.5-1.6c0-1.4-0.5-2.1-3.6-2.8	c-1.3-0.3-1.4,0.2-1.4,1.7C437.7,49.6,438.3,50.2,439.8,50.2z M439.4,35.1c2.9-0.8,3.3-1.7,3.3-3.1c0-0.8-0.6-1.4-1.3-1.4h-2.2	c-1.3,0-1.5,0.8-1.5,2.1C437.6,34.5,437.9,35.4,439.4,35.1z" class="st1"/><path d="M562.3,14.9c4.4,0,7.9,3.5,7.9,7.9l0,0V34c0.1,1.3-0.8,2.9-3.4,2.4c-0.5-0.1-9-2.4-9-2.4	c-1.1-0.3-2-0.6-2.4,0.1s-0.3,1.3,0.7,2c0,0,9.8,6.9,11.6,8.2s2.4,3,2.5,5.5v7.8c0,4.4-3.5,7.9-7.9,7.9h-29.2c-6.1,0-11-4.9-11.1-11	c0-3.4,0-6.5-0.1-7.6c-0.1-1.2,1.6-2.4,2.7-2.4l8.1,2.2c1.5,0.7,2.2,0.7,2.6,0s0.4-0.7-1.1-2.4l-8.6-8c-3.4-3-3.5-4.9-3.5-10.2v-9.4	c0-0.7,0.6-1.7,1.3-1.7L562.3,14.9z" class="st1"/><path d="M374.1,15.1c2,0,3.3,2,3.3,3.8v20.6c0,1.5,1.2,2.7,2.6,2.7h0.6c1.5,0,2.6-1.2,2.6-2.6l0,0	c0-5.8-0.1-19.1-0.1-23.1c0-0.7,0.6-1.3,1.3-1.3l0,0h18.4c4.2,0,5.3,2.9,5.3,7.3v35.3c0,4.4-3.5,7.9-7.9,7.9h-37.7	c-6.1,0-11-4.9-11-11c0,0,0,0,0-0.1c0-13.4,0-34.5,0-37.9c0-0.7,0.6-1.6,1.3-1.6L374.1,15.1z" class="st1"/></svg>