<svg id="Layer_1" data-name="Layer 1" xmlns="http://www.w3.org/2000/svg" xmlns:xlink="http://www.w3.org/1999/xlink" viewBox="0 0 412.38 204"><defs><style>.cls-1,.cls-2{fill-rule:evenodd;}.cls-1{fill:url(#linear-gradient);}.cls-2{fill:#fff;}.cls-3{fill:#1e5fbb;}</style><linearGradient id="linear-gradient" x1="206.19" x2="206.19" y2="204" gradientUnits="userSpaceOnUse"><stop offset="0" stop-color="#00b8f1"/><stop offset="0.02" stop-color="#01b6f0"/><stop offset="0.31" stop-color="#0d90d9"/><stop offset="0.58" stop-color="#1775c8"/><stop offset="0.82" stop-color="#1c65bf"/><stop offset="1" stop-color="#1e5fbb"/></linearGradient></defs><title>SAP_grad_RZeichenfläche 1</title><polyline class="cls-1" points="0 204 208.41 204 412.38 0 0 0 0 204"/><path class="cls-2" d="M244.73,38.36l-40.6,0v96.52L168.67,38.33H133.51l-30.27,80.72C100,98.7,79,91.67,62.4,86.4,51.46,82.89,39.85,77.72,40,72c.09-4.68,6.23-9,18.38-8.38,8.17.43,15.37,1.09,29.71,8l14.1-24.55C89.06,40.42,71,36.21,56.17,36.19h-.09c-17.28,0-31.68,5.6-40.6,14.83A34.23,34.23,0,0,0,5.77,74.7C5.54,87.15,10.11,96,19.71,103c8.1,5.94,18.46,9.79,27.6,12.62,11.27,3.49,20.47,6.53,20.36,13A9.57,9.57,0,0,1,65,135c-2.81,2.9-7.13,4-13.09,4.1-11.49.24-20-1.56-33.61-9.59L5.77,154.42a93.77,93.77,0,0,0,46,12.22l2.11,0c14.24-.25,25.74-4.31,34.92-11.71.53-.41,1-.84,1.49-1.28L86.17,164.5H123l6.19-18.82a67.46,67.46,0,0,0,21.68,3.43,68.33,68.33,0,0,0,21.16-3.25l6,18.64h60.14v-39h13.11c31.71,0,50.46-16.15,50.46-43.2C301.74,52.19,283.52,38.36,244.73,38.36ZM150.91,121a36.93,36.93,0,0,1-13-2.28l12.87-40.59H151l12.65,40.71A38.5,38.5,0,0,1,150.91,121Zm96.2-23.33h-8.94V64.91h8.94c11.93,0,21.44,4,21.44,16.14,0,12.6-9.51,16.57-21.44,16.57"/><path class="cls-3" d="M257.84,190.58a10.71,10.71,0,1,1,10.75,11A10.71,10.71,0,0,1,257.84,190.58Zm10.75,13.23a13.2,13.2,0,1,0-13.41-13.23A13.17,13.17,0,0,0,268.59,203.81Zm-2.79-12.19h2.65l4,6.59h2.61l-4.36-6.7c2.26-.25,4-1.46,4-4.19,0-3-1.78-4.32-5.36-4.32h-5.8v15.21h2.3Zm0-2V185h3.14c1.59,0,3.29.34,3.29,2.23,0,2.37-1.73,2.48-3.66,2.48Z"/></svg>