<?xml version="1.0" encoding="utf-8"?>
<!-- Generator: Adobe Illustrator 27.2.0, SVG Export Plug-In . SVG Version: 6.00 Build 0)  -->
<svg version="1.1" id="Layer_1" xmlns="http://www.w3.org/2000/svg" xmlns:xlink="http://www.w3.org/1999/xlink" x="0px" y="0px"
	 viewBox="0 0 600 600" style="enable-background:new 0 0 600 600;" xml:space="preserve">
<style type="text/css">
	.st0{fill:#000717;}
	.st1{fill:#FF5500;}
</style>
<g>
	<path class="st0" d="M264,296.3c-16.4,0-26.9,13.5-26.9,28.9c0,17.4,12.5,28.8,29,28.8c4.3,0.1,8.5-0.8,12.4-2.5
		c3.9-1.7,7.4-4.2,10.3-7.4l-8.4-8.4c-1.8,1.9-3.9,3.5-6.3,4.6c-2.4,1.1-5,1.7-7.6,1.8c-3.7,0.1-7.3-1.2-10.1-3.6
		c-2.8-2.4-4.5-5.9-4.9-9.6h38.4c0.2-1.4,0.3-2.8,0.3-4.2C290.2,309.2,279.3,296.3,264,296.3z M252.1,318.1c0.5-2.7,2-5.2,4.2-7
		c2.2-1.8,4.9-2.7,7.7-2.7c2.7,0,5.3,1,7.3,2.8c2,1.8,3.3,4.3,3.6,6.9H252.1z"/>
	<path class="st0" d="M313.1,282.1h-14.8l0,47.5c0,7.9,1.3,12.8,4.1,16.6c3.8,5,10.3,8,19.2,8c3.1,0,6.2-0.4,9.3-1.1l-2.3-12.6
		c-2,0.4-4,0.6-6,0.6c-3.7,0-6.3-1.3-7.5-2.8c-1.3-1.5-1.8-3.5-1.8-7V310h18.3v-12.6h-18.3V282.1z"/>
	<path class="st0" d="M213.9,282.1H199l0,47.5c0,7.9,1.3,12.8,4.1,16.6c3.8,5,10.3,8,19.2,8c3.1,0,6.2-0.4,9.2-1.1l-2.3-12.6
		c-2,0.4-4,0.6-6.1,0.6c-3.7,0-6.3-1.3-7.5-2.8c-1.3-1.5-1.8-3.5-1.8-7V310h18.3v-12.6h-18.3V282.1z"/>
	<path class="st0" d="M355.6,303.1v-5.6h-14.3v55.4h14.8V318c1.4-2.3,3.4-4.3,5.7-5.7c2.4-1.4,5-2.2,7.7-2.3c1.8,0,3.6,0.1,5.4,0.6
		l1.7-13.8c-1.6-0.3-3.3-0.4-4.9-0.4C365,296.3,358.9,299,355.6,303.1z"/>
	<path class="st0" d="M421.4,301.9c-4.6-3.7-10.3-5.7-16.2-5.6c-15.1,0-27.2,12.6-27.2,28.9c0,7.1,2.5,14,7.1,19.4
		c2.6,2.9,5.8,5.3,9.4,6.9c3.6,1.6,7.5,2.4,11.5,2.4c5.7,0.1,11.1-1.9,15.4-5.6v4.5h14.3v-55.4h-14.3V301.9z M420.8,333.5
		c-1.5,2.1-3.5,3.9-5.8,5.1c-2.3,1.2-4.9,1.8-7.5,1.8c-2,0-3.9-0.4-5.7-1.1c-1.8-0.8-3.5-1.9-4.8-3.3c-1.4-1.4-2.4-3.1-3.1-4.9
		c-0.7-1.8-1-3.8-0.9-5.8c0-8,5.6-15.2,14.3-15.2c2.7,0,5.3,0.6,7.7,1.8c2.4,1.2,4.4,2.9,6,5.1V333.5z"/>
	<path class="st0" d="M460.1,282.1h-14.8l0,47.5c0,7.9,1.3,12.8,4.1,16.6c3.8,5,10.3,8,19.2,8c3.1,0,6.2-0.4,9.2-1.1l-2.3-12.6
		c-2,0.4-4,0.6-6.1,0.6c-3.7,0-6.3-1.3-7.5-2.8c-1.3-1.5-1.8-3.5-1.8-7V310h18.3v-12.6h-18.3V282.1z"/>
	<path class="st0" d="M533.4,324.6c0-15.4-10.9-28.3-26.2-28.3c-16.4,0-26.9,13.5-26.9,28.9c0,17.4,12.5,28.8,29,28.8
		c4.3,0.1,8.5-0.8,12.4-2.5c3.9-1.7,7.4-4.2,10.3-7.4l-8.4-8.4c-1.8,1.9-3.9,3.5-6.3,4.6c-2.4,1.1-5,1.7-7.6,1.8
		c-3.7,0.1-7.3-1.2-10.1-3.6c-2.8-2.4-4.5-5.9-4.9-9.6H533C533.2,327.4,533.4,326,533.4,324.6z M495.3,318.1c0.5-2.7,2-5.2,4.2-7
		c2.2-1.8,4.9-2.7,7.7-2.7c2.7,0,5.3,1,7.3,2.8c2,1.8,3.3,4.3,3.6,6.9H495.3z"/>
</g>
<g>
	<path class="st1" d="M132.8,302c6.7-8.8,0.3-21.5-10.6-21.5c-10.9-0.1-17.4,12.7-10.6,21.5c3.6,4.3,5.6,9.7,5.6,15.3h0
		c0,5.7-2,11.1-5.6,15.3c-6.7,8.8-0.3,21.5,10.6,21.5c10.9,0.1,17.4-12.7,10.6-21.5c-3.6-4.3-5.6-9.7-5.6-15.3h0
		C127.2,311.6,129.2,306.2,132.8,302z"/>
	<path class="st1" d="M161.1,269.5c-5.5,1-11.2,0.1-16.1-2.8l0,0c-4.9-2.8-8.6-7.3-10.5-12.5c-4.4-10.9-20.3-10.9-24.7,0
		c-1.9,5.3-5.5,9.7-10.5,12.5l0,0c-4.9,2.8-10.6,3.8-16.1,2.8C72.4,268.1,64.5,280,70,289.5c5.4,9.6,19.8,8.6,23.9-1.5
		c10-25.6,46.6-25.6,56.5,0c4.2,10.1,18.5,11.1,23.9,1.5C179.9,280,172,268.1,161.1,269.5z"/>
</g>
</svg>
