<?xml version="1.0" encoding="utf-8"?>
<!-- Generator: Adobe Illustrator 26.2.1, SVG Export Plug-In . SVG Version: 6.00 Build 0)  -->
<svg version="1.1" id="レイヤー_1" xmlns="http://www.w3.org/2000/svg" xmlns:xlink="http://www.w3.org/1999/xlink" x="0px"
	 y="0px" viewBox="0 0 419.72 125" style="enable-background:new 0 0 419.72 125;" xml:space="preserve">
<style type="text/css">
	.st0{fill:url(#SVGID_1_);}
	.st1{fill:url(#SVGID_00000009560029816058064230000018177577955470570377_);}
	.st2{fill:url(#SVGID_00000152956510678598538770000004032587284215978914_);}
	.st3{fill:url(#SVGID_00000019641573863400375730000008563017827991578551_);}
	.st4{fill:url(#SVGID_00000140714326055512721090000008227131544842110605_);}
	.st5{fill:url(#SVGID_00000003803491837774820610000018202069700130029447_);}
	.st6{fill:url(#SVGID_00000013183611300958261350000011407936962427843006_);}
	.st7{fill:url(#SVGID_00000147213242463858478520000006308475646327827353_);}
</style>
<linearGradient id="SVGID_1_" gradientUnits="userSpaceOnUse" x1="-12.4862" y1="69.9791" x2="301.5138" y2="166.9791">
	<stop  offset="0" style="stop-color:#FF0A04"/>
	<stop  offset="0.115" style="stop-color:#FF5919"/>
	<stop  offset="0.2123" style="stop-color:#FCC034"/>
	<stop  offset="0.3693" style="stop-color:#A1CB4C"/>
	<stop  offset="0.5586" style="stop-color:#54A734"/>
	<stop  offset="0.7515" style="stop-color:#29B9E8"/>
	<stop  offset="0.9767" style="stop-color:#6A438E"/>
</linearGradient>
<path class="st0" d="M119.4,120.82V87.5l-0.06-0.75l-0.23-0.69l-0.33-0.62l-0.45-0.58l-0.56-0.46l-0.65-0.33l-0.69-0.23l-0.72-0.06
	H81.94l-0.71,0.06l-0.69,0.23l-0.65,0.33l-0.56,0.46l-0.46,0.58l-0.36,0.62l-0.19,0.69l-0.07,0.75v33.75l0.07,0.72l0.19,0.71
	l0.36,0.62l0.46,0.56l0.56,0.46l0.65,0.36l0.69,0.19l0.71,0.1h33.77l0.72-0.1l0.69-0.19l0.65-0.36l0.56-0.46l0.45-0.56l0.33-0.62
	l0.23-0.71l0.06-0.72L119.4,120.82z"/>
<linearGradient id="SVGID_00000119115720278394620170000002238417060665341368_" gradientUnits="userSpaceOnUse" x1="-16.0881" y1="81.6388" x2="297.9119" y2="178.6388">
	<stop  offset="0" style="stop-color:#FF0A04"/>
	<stop  offset="0.115" style="stop-color:#FF5919"/>
	<stop  offset="0.2123" style="stop-color:#FCC034"/>
	<stop  offset="0.3693" style="stop-color:#A1CB4C"/>
	<stop  offset="0.5586" style="stop-color:#54A734"/>
	<stop  offset="0.7515" style="stop-color:#29B9E8"/>
	<stop  offset="0.9767" style="stop-color:#6A438E"/>
</linearGradient>
<path style="fill:url(#SVGID_00000119115720278394620170000002238417060665341368_);" d="M3.74,125h39.41l0.73-0.07l0.69-0.19
	l0.66-0.37l0.56-0.47l0.47-0.56l0.36-0.66l0.2-0.7l0.07-0.73V66.43l-0.07-0.67l-0.17-0.66l-0.29-0.6L46,64l-0.5-0.46l-0.56-0.4
	l-0.6-0.27l-0.66-0.13h-0.66l-0.69,0.1l-0.63,0.2l-0.6,0.33l-0.53,0.43l-0.43,0.5l-0.24,0.34L0.74,119l-0.05,0.07l-0.33,0.6
	l-0.23,0.63L0,121v0.66l0.13,0.7l0.27,0.63l0.36,0.56l0.46,0.5l0.53,0.43l0.63,0.3l0.66,0.2L3.74,125z"/>
<linearGradient id="SVGID_00000021119464002539920250000015412653179759655830_" gradientUnits="userSpaceOnUse" x1="8.3673" y1="2.474" x2="322.3673" y2="99.474">
	<stop  offset="0" style="stop-color:#FF0A04"/>
	<stop  offset="0.115" style="stop-color:#FF5919"/>
	<stop  offset="0.2123" style="stop-color:#FCC034"/>
	<stop  offset="0.3693" style="stop-color:#A1CB4C"/>
	<stop  offset="0.5586" style="stop-color:#54A734"/>
	<stop  offset="0.7515" style="stop-color:#29B9E8"/>
	<stop  offset="0.9767" style="stop-color:#6A438E"/>
</linearGradient>
<path style="fill:url(#SVGID_00000021119464002539920250000015412653179759655830_);" d="M121.38,0H82l-0.76,0.1l-0.69,0.2
	l-0.67,0.36l-0.56,0.47L78.86,1.7l-0.37,0.66l-0.19,0.7l-0.07,0.73v55l0.07,0.67l0.16,0.66l0.3,0.6l0.4,0.53l0.49,0.47l0.56,0.4
	l0.6,0.27l0.66,0.13h0.66l0.7-0.1l0.63-0.2l0.59-0.33l0.53-0.43L85,61l0.25-0.35l39.11-54.6V5.98l0.33-0.6l0.24-0.63l0.13-0.7V3.38
	l-0.13-0.7l-0.26-0.63l-0.37-0.56l-0.46-0.5l-0.53-0.44l-0.63-0.3L122,0.06L121.38,0z"/>
<linearGradient id="SVGID_00000019640958505980193240000006934234910742323864_" gradientUnits="userSpaceOnUse" x1="3.7862" y1="17.3035" x2="317.7862" y2="114.3035">
	<stop  offset="0" style="stop-color:#FF0A04"/>
	<stop  offset="0.115" style="stop-color:#FF5919"/>
	<stop  offset="0.2123" style="stop-color:#FCC034"/>
	<stop  offset="0.3693" style="stop-color:#A1CB4C"/>
	<stop  offset="0.5586" style="stop-color:#54A734"/>
	<stop  offset="0.7515" style="stop-color:#29B9E8"/>
	<stop  offset="0.9767" style="stop-color:#6A438E"/>
</linearGradient>
<path style="fill:url(#SVGID_00000019640958505980193240000006934234910742323864_);" d="M47.07,23.43L47,21.75l-0.17-1.69
	l-0.3-1.66l-0.43-1.65l-0.53-1.59l-0.66-1.56l-0.76-1.52l-0.89-1.46l-1-1.39l-1.04-1.29l-1.16-1.22L38.8,5.56L37.48,4.5l-1.39-0.93
	l-1.46-0.86L33.08,2l-1.56-0.63L29.9,0.83l-1.66-0.4l-1.65-0.26L24.9,0h-1.69l-1.68,0.07L19.84,0.3l-1.65,0.33l-1.63,0.46
	l-1.62,0.57l-1.52,0.69L11.9,3.11L10.48,4L9.12,5L7.83,6.12L6.6,7.31L5.48,8.57l-1,1.36l-0.92,1.42l-0.8,1.49L2,14.36L1.41,16
	L1,17.57l-0.42,1.66l-0.26,1.69L0.18,22.6v1.69L0.32,26l0.26,1.66L1,29.29l0.46,1.62L2,32.5l0.73,1.56l0.8,1.49l0.92,1.39l1,1.35
	l1.15,1.26l1.23,1.19l1.29,1.1l1.36,1l1.42,0.89l1.52,0.8l1.52,0.66l1.62,0.6l1.63,0.43l1.65,0.33l1.69,0.23l1.68,0.1h1.69
	l1.69-0.17l1.65-0.26L29.9,46l1.62-0.5l1.56-0.63l1.55-0.76l1.46-0.83l1.39-1l1.32-1l1.26-1.13L41.22,39l1.09-1.33l1-1.39l0.89-1.46
	l0.76-1.48l0.66-1.56l0.53-1.62l0.43-1.62l0.3-1.69L47,25.12L47.07,23.43z"/>
<linearGradient id="SVGID_00000171713556694514770370000002891197602047596714_" gradientUnits="userSpaceOnUse" x1="7.2116" y1="6.2152" x2="321.2116" y2="103.2152">
	<stop  offset="0" style="stop-color:#FF0A04"/>
	<stop  offset="0.115" style="stop-color:#FF5919"/>
	<stop  offset="0.2123" style="stop-color:#FCC034"/>
	<stop  offset="0.3693" style="stop-color:#A1CB4C"/>
	<stop  offset="0.5586" style="stop-color:#54A734"/>
	<stop  offset="0.7515" style="stop-color:#29B9E8"/>
	<stop  offset="0.9767" style="stop-color:#6A438E"/>
</linearGradient>
<path style="fill:url(#SVGID_00000171713556694514770370000002891197602047596714_);" d="M196.12,42.81H169V31.24h42.85v10.87
	L183,82.26h28.91v11.57H167.2V83L196.12,42.81z"/>
<linearGradient id="SVGID_00000126308638357124429930000013421418059817422489_" gradientUnits="userSpaceOnUse" x1="12.9039" y1="-12.2115" x2="326.9039" y2="84.7885">
	<stop  offset="0" style="stop-color:#FF0A04"/>
	<stop  offset="0.115" style="stop-color:#FF5919"/>
	<stop  offset="0.2123" style="stop-color:#FCC034"/>
	<stop  offset="0.3693" style="stop-color:#A1CB4C"/>
	<stop  offset="0.5586" style="stop-color:#54A734"/>
	<stop  offset="0.7515" style="stop-color:#29B9E8"/>
	<stop  offset="0.9767" style="stop-color:#6A438E"/>
</linearGradient>
<path style="fill:url(#SVGID_00000126308638357124429930000013421418059817422489_);" d="M254.77,28.76
	c-18.63-0.01-33.74,15.1-33.75,33.73s15.1,33.74,33.73,33.75s33.74-15.1,33.75-33.73l0,0l0,0C288.5,43.88,273.4,28.78,254.77,28.76
	 M254.77,83.6c-11.65,0.01-21.1-9.44-21.11-21.09s9.44-21.1,21.09-21.11s21.1,9.44,21.11,21.09l0,0c0,11.65-9.44,21.09-21.09,21.09"
	/>
<linearGradient id="SVGID_00000156569514554191037430000007497811256570745011_" gradientUnits="userSpaceOnUse" x1="18.6452" y1="-30.7966" x2="332.6452" y2="66.2034">
	<stop  offset="0" style="stop-color:#FF0A04"/>
	<stop  offset="0.115" style="stop-color:#FF5919"/>
	<stop  offset="0.2123" style="stop-color:#FCC034"/>
	<stop  offset="0.3693" style="stop-color:#A1CB4C"/>
	<stop  offset="0.5586" style="stop-color:#54A734"/>
	<stop  offset="0.7515" style="stop-color:#29B9E8"/>
	<stop  offset="0.9767" style="stop-color:#6A438E"/>
</linearGradient>
<path style="fill:url(#SVGID_00000156569514554191037430000007497811256570745011_);" d="M327.34,42.81h-27.07V31.24h42.85v10.87
	L314.2,82.26h28.92v11.57h-44.7V83L327.34,42.81z"/>
<linearGradient id="SVGID_00000077291211317199092470000005109954485930892672_" gradientUnits="userSpaceOnUse" x1="24.3376" y1="-49.2235" x2="338.3376" y2="47.7765">
	<stop  offset="0" style="stop-color:#FF0A04"/>
	<stop  offset="0.115" style="stop-color:#FF5919"/>
	<stop  offset="0.2123" style="stop-color:#FCC034"/>
	<stop  offset="0.3693" style="stop-color:#A1CB4C"/>
	<stop  offset="0.5586" style="stop-color:#54A734"/>
	<stop  offset="0.7515" style="stop-color:#29B9E8"/>
	<stop  offset="0.9767" style="stop-color:#6A438E"/>
</linearGradient>
<path style="fill:url(#SVGID_00000077291211317199092470000005109954485930892672_);" d="M386,28.76
	c-18.63-0.01-33.74,15.1-33.75,33.73s15.1,33.74,33.73,33.75s33.74-15.1,33.75-33.73l0,0c0.01-18.63-15.08-33.74-33.71-33.75
	C386.01,28.76,386.01,28.76,386,28.76L386,28.76 M386,83.59c-11.65,0.01-21.1-9.44-21.11-21.09s9.44-21.1,21.09-21.11
	s21.1,9.44,21.11,21.09l0,0c0.01,11.65-9.42,21.1-21.07,21.11C386.01,83.59,386.01,83.59,386,83.59"/>
</svg>
