<svg width="112" height="38" viewBox="0 0 112 38" xmlns="http://www.w3.org/2000/svg"><title>Apigee-Logo</title><g fill="none"><path d="M10.154 24.744c2.915 0 4.314-2.95 4.314-5.626 0-2.677-1.362-5.708-4.314-5.708-3.069 0-4.433 3.028-4.433 5.708s1.4 5.626 4.433 5.626zm9.91 1.245c0 1.434 0 3.65-2.681 3.65-1.632 0-2.301-.894-2.682-2.37-1.437 1.708-3.194 2.61-5.327 2.61-5.245 0-9.251-4.465-9.251-10.753 0-6.13 4.122-10.833 9.251-10.833 2.06 0 4.083.815 5.327 2.563a2.658 2.658 0 0 1 2.682-2.338c2.682 0 2.682 2.212 2.682 3.65v13.82zm11.571-1.242c2.915 0 4.352-3.029 4.352-5.63 0-2.64-1.437-5.707-4.352-5.707-2.995 0-4.396 2.795-4.396 5.516 0 2.722 1.323 5.823 4.396 5.823v-.002zm-9.991-13.122c0-1.865 1.166-3.107 2.798-3.107 1.556 0 2.455.855 2.797 2.33 1.051-1.708 3.23-2.562 5.328-2.562 6.025 0 9.017 5.628 9.017 11.063 0 5.28-3.576 10.522-9.205 10.522a8.01 8.01 0 0 1-5.134-1.941v6.83c0 1.866-1.164 3.107-2.797 3.107-1.632 0-2.798-1.241-2.798-3.106l-.006-23.136zm21.261 0c0-1.865 1.168-3.107 2.799-3.107 1.63 0 2.798 1.242 2.798 3.107v14.908c0 1.861-1.164 3.105-2.798 3.105-1.634 0-2.799-1.244-2.799-3.105V11.625zm5.948-8.427c0 1.748-1.399 3.218-3.15 3.218-1.67 0-3.146-1.514-3.146-3.218 0-1.592 1.476-3.065 3.147-3.065 1.67 0 3.15 1.436 3.15 3.065z" fill="#DD3303"/><path d="M59.777 13.409c-2.915 0-4.354 3.03-4.354 5.63 0 2.99 1.44 5.705 4.354 5.705 2.992 0 4.391-2.793 4.391-5.516s-1.32-5.822-4.39-5.822v.003zm9.99 14.362c0 6.717-4.391 10.093-10.768 10.093-2.293 0-8.825-1.127-8.825-4.193 0-1.048 1.168-2.451 2.256-2.451 1.789 0 3.77 1.745 6.996 1.745 2.722 0 4.742-1.59 4.742-4.424v-1.32h-.076c-1.168 1.717-3.072 2.658-5.637 2.658-5.87 0-8.63-5.165-8.63-10.715 0-5.63 3.576-10.88 9.213-10.88 1.904 0 4.082.854 5.13 2.564.352-1.475 1.245-2.33 2.799-2.33 1.634 0 2.8 1.242 2.8 3.107v16.146zm15.508-10.556c-.307-2.452-1.866-4.272-4.47-4.272-2.486 0-4.16 1.903-4.43 4.272h8.9zm-8.784 3.726c.389 2.757 2.676 4.035 5.284 4.035 2.877 0 4.86-2.253 6.337-2.253 1.204 0 2.301 1.205 2.301 2.408 0 2.407-4.975 4.737-9.135 4.737-6.298 0-10.496-4.583-10.496-10.755 0-5.669 4.121-10.831 10.03-10.831 6.065 0 10.068 5.516 10.068 10.173 0 1.668-.738 2.483-2.455 2.483l-11.934.003zm29.788-3.654c-.307-2.452-1.866-4.272-4.471-4.272-2.485 0-4.158 1.903-4.43 4.272h8.9zm-8.784 3.726c.388 2.758 2.68 4.04 5.286 4.04 2.876 0 4.859-2.253 6.336-2.253 1.205 0 2.292 1.203 2.292 2.406 0 2.408-4.975 4.737-9.135 4.737-6.29 0-10.494-4.581-10.494-10.753 0-5.67 4.12-10.833 10.028-10.833 6.066 0 10.07 5.516 10.07 10.173 0 1.668-.739 2.483-2.456 2.483H97.495z" fill="#494A4C"/></g></svg>