<svg xmlns="http://www.w3.org/2000/svg" width="105.1" height="24" viewBox="0 0 105.1 24">
  <defs>
    <style>
      .a252a805-af02-4964-8e43-e8a1aa6fa0c2 {
        fill: #233a6f;
      }
    </style>
  </defs>
  <title>aporeto-logo</title>
  <g id="6fb31e20-70c8-4884-9668-b00cf14ba4fc" data-name="Layer 2">
    <g id="36235304-bef9-4b94-b812-86ec73f3e88a" data-name="exports">
      <g>
        <path class="a252a805-af02-4964-8e43-e8a1aa6fa0c2" d="M26.6,5c.6-.1.5,1.1.9,1.6s1.3-.5,1.7-.2a7.2,7.2,0,0,1,6.3-2.1,7,7,0,0,1,4.4,2.4,7.3,7.3,0,0,1,0,9.5,7.4,7.4,0,0,1-10.6.4V22H26.6Zm7.9,2A4.5,4.5,0,1,0,39,11.5,4.5,4.5,0,0,0,34.5,7Z"/>
        <path class="a252a805-af02-4964-8e43-e8a1aa6fa0c2" d="M81.5,10.4,70.4,13.6A4.4,4.4,0,0,0,74.5,16a4.5,4.5,0,0,0,4.2-3.1l2.5.8c-.6,3-4.2,5.4-7.6,5a7.2,7.2,0,1,1,7.9-8.3ZM77.8,8.6a4.3,4.3,0,0,0-5-1.3c-1.6.6-2.9,2.4-2.7,3.6Z"/>
        <path class="a252a805-af02-4964-8e43-e8a1aa6fa0c2" d="M50.3,18.7a7.2,7.2,0,1,1,7.3-7.2A7.2,7.2,0,0,1,50.3,18.7ZM50.3,7a4.5,4.5,0,0,0,0,9,4.5,4.5,0,1,0,0-9Z"/>
        <path class="a252a805-af02-4964-8e43-e8a1aa6fa0c2" d="M97.9,18.7a7.2,7.2,0,1,1,7.2-7.2A7.2,7.2,0,0,1,97.9,18.7ZM97.9,7a4.5,4.5,0,1,0,4.5,4.5A4.5,4.5,0,0,0,97.9,7Z"/>
        <path class="a252a805-af02-4964-8e43-e8a1aa6fa0c2" d="M84.4,7.1H82.1V4.4h2.3V.6c.7.4.8,1.2,1.3,1.6s1.4.3,1.2,1.3.3.4.3.7h2.6V7.1H87.7c-.4,0-.5.1-.5.5s0,2.6,0,3.9a4.5,4.5,0,0,0,2.3,4c.1.1.3.3.3.4s0,1.7,0,2.7l-.6-.2a7.2,7.2,0,0,1-4.8-6.5c0-1.4,0-2.8,0-4.2S84.4,7.4,84.4,7.1Z"/>
        <path class="a252a805-af02-4964-8e43-e8a1aa6fa0c2" d="M62.2,18.7H59.5V4.3c.6-.1.8.5,1.2,1.1s1.1.2,1.4.6a7.5,7.5,0,0,1,4.6-1.7V7h-.9a4.4,4.4,0,0,0-3.6,4.4c0,2.2,0,4.4,0,6.6C62.2,18.3,62.2,18.5,62.2,18.7Z"/>
        <polygon class="a252a805-af02-4964-8e43-e8a1aa6fa0c2" points="59.5 4.3 60.6 4.3 62.3 6.1 60.9 7.3 60 5.8 59.5 4.3"/>
        <polygon class="a252a805-af02-4964-8e43-e8a1aa6fa0c2" points="26.6 5 27.7 5 29.3 6.5 26.7 9.3 26.6 5"/>
        <polygon class="a252a805-af02-4964-8e43-e8a1aa6fa0c2" points="20 22 24.5 22 11.8 0 20 22"/>
        <polygon class="a252a805-af02-4964-8e43-e8a1aa6fa0c2" points="11.8 0 0 20.5 5.1 18.9 11.8 7.8 20 22 11.8 0"/>
        <polygon class="a252a805-af02-4964-8e43-e8a1aa6fa0c2" points="2.1 24 14.6 20.1 12.6 16.6 2.1 24"/>
        <polygon class="a252a805-af02-4964-8e43-e8a1aa6fa0c2" points="0 20.5 2.1 24 12.6 16.6 0 20.5"/>
        <polygon class="a252a805-af02-4964-8e43-e8a1aa6fa0c2" points="84.4 0.6 85.7 0.6 87.2 2.1 87.2 4.5 84.6 4.5 84.4 0.6"/>
      </g>
    </g>
  </g>
</svg>
