<?xml version="1.0" encoding="UTF-8"?>
<svg width="765px" height="55px" viewBox="0 0 765 55" version="1.1" xmlns="http://www.w3.org/2000/svg" xmlns:xlink="http://www.w3.org/1999/xlink">
  <title>Artboard</title>
  <g id="Artboard" stroke="none" stroke-width="1" fill="none" fill-rule="evenodd">
    <g id="Group-IP">
      <path d="M65.5,0.5 L65.5,54.5 L3,54.5 C2.30964406,54.5 1.68464406,54.220178 1.23223305,53.767767 C0.779822031,53.3153559 0.5,52.6903559 0.5,52 L0.5,3 C0.5,2.30964406 0.779822031,1.68464406 1.23223305,1.23223305 C1.68464406,0.779822031 2.30964406,0.5 3,0.5 L65.5,0.5 Z" id="bg" stroke="#888888" fill="#E8C0B8"/>
      <text id="IP" font-family="ArialMT, Arial" font-size="20" font-weight="normal" line-spacing="26" fill="#333333">
                <tspan x="23.0869691" y="32">IP</tspan>
            </text>
    </g>
    <g id="Istio-/-block-txt" transform="translate(65, 0)">
      <rect id="bg" stroke="#888888" fill="#D9D9D9" x="0.5" y="0.5" width="75" height="54"/>
      <text id="TEXT" font-family="ArialMT, Arial" font-size="20" font-weight="normal" line-spacing="26" fill="#333333">
                <tspan x="18" y="32">TCP</tspan>
            </text>
    </g>
    <g id="Istio-/-block-txt-Copy" transform="translate(140, 0)">
      <rect id="bg" stroke="#888888" fill="#E7BBD0" x="0.5" y="0.5" width="75" height="54"/>
      <text id="TEXT" font-family="ArialMT, Arial" font-size="20" font-weight="normal" line-spacing="26" fill="#333333">
                <tspan x="19.6601562" y="32">TLS</tspan>
            </text>
    </g>
    <g id="Istio-/-block-txt-Copy-2" transform="translate(215, 0)">
      <rect id="bg" stroke="#888888" fill="#C4E4B8" x="0.5" y="0.5" width="274" height="54"/>
      <text id="TEXT" font-family="ArialMT, Arial" font-size="20" font-weight="normal" line-spacing="26" fill="#333333">
                <tspan x="15.2539062" y="32">HTTP / 2 &amp; CONECT hdars </tspan>
            </text>
    </g>
    <g id="Istio-/-block-txt-Copy-3" transform="translate(489, 0)">
      <path d="M273,0.5 C273.690356,0.5 274.315356,0.779822031 274.767767,1.23223305 C275.220178,1.68464406 275.5,2.30964406 275.5,3 L275.5,52 C275.5,52.6903559 275.220178,53.3153559 274.767767,53.767767 C274.315356,54.220178 273.690356,54.5 273,54.5 L0.5,54.5 L0.5,0.5 Z" id="bg" stroke="#888888" fill="#B4D2EE"/>
      <text id="TEXT" font-family="ArialMT, Arial" font-size="20" font-weight="normal" line-spacing="26" fill="#333333">
                <tspan x="15.1582031" y="33">Tunneled client byte stream</tspan>
            </text>
    </g>
  </g>
</svg>
