<svg xmlns="http://www.w3.org/2000/svg" aria-hidden="true" style="width: 0; height: 0; position: absolute;"><symbol id="about" viewBox="0 0 198.777 198.777"><path d="M99.388.002C44.582.002 0 44.587 0 99.4s44.585 99.385 99.388 99.385S198.776 154.2 198.776 99.4C198.777 44.587 154.2.002 99.388.002m0 189.858c-49.882 0-90.47-40.584-90.47-90.47S49.506 8.924 99.388 8.924s90.47 40.58 90.47 90.463c0 49.9-40.6 90.473-90.47 90.473m.727-151.593c-8.357 0-17.365 2.298-23.14 5.816l2.6 6.87c4.824-2.73 11.26-4.413 17.243-4.413 12.4.204 19.78 6.986 19.78 18.148 0 9.076-4.892 16.627-13.356 26.598-8.23 9.874-11.853 19.888-10.765 29.755l.204 2.588h9.462l-.08-2.226c-.6-10.164 2.68-18.714 10.983-28.52 8.854-10.515 15.13-18.843 15.13-30.206-.002-11.266-7.357-24.4-28.07-24.4zm-2.738 104.29c-5.103 0-8.52 3.643-8.52 9.062 0 5.236 3.43 8.893 8.332 8.893 5.107 0 8.528-3.575 8.528-8.893.003-5.42-3.35-9.062-8.34-9.062"></path></symbol><symbol id="best-practices" viewBox="0 0 490 490"><path d="M158.8 342.1c13.3 12.7 29 19 47.2 19 10.9 0 21.5-3 31.7-9.1l-47.2 116.1c-1.8 4.8-5.3 7.7-10.4 8.6s-9.5-.5-13.1-4.1l-33.6-34.5-47.1 1.9c-5.4 0-9.7-2.1-12.7-6.3s-3.6-8.8-1.8-13.6l41.7-101.6c7.3 6 14.8 10.3 22.7 12.7l8.2 1.8c4.2 1.2 6.8 2.1 7.7 2.7s2.3 1.8 4.1 3.6zm150.6-20.9c-6 6-13.3 9.5-21.8 10.4s-16.3-.8-23.6-5c-5.4-3.6-11.8-5.4-19-5.4s-13.6 1.8-19 5.4c-7.3 4.2-15.1 5.9-23.6 5s-15.6-4.4-21.3-10.4-10.1-9.8-13.1-11.3-8.5-3.2-16.3-5l-6.3-1.8c-6-1.8-11.3-5.1-15.9-10-4.5-4.8-7.7-10.3-9.5-16.3l-1.8-4.5c-2.4-9.7-4.4-15.9-5.9-18.6s-5.6-7.7-12.2-15l-3.6-3.6c-4.8-4.8-8-10.4-9.5-16.8s-1.7-12.5-.5-18.6l1.8-5.4c2.4-9.7 3.6-16 3.6-19s-1.2-9.4-3.6-19l-1.8-4.5c-1.2-6.7-1.1-13.1.5-19.5s4.7-11.9 9.5-16.8l3.6-3.6c6.7-6.7 10.7-11.3 12.2-14.1s3.5-8.9 5.9-18.6l1.8-5.4c1.8-6 5-11.5 9.5-16.3s9.8-8.2 15.9-10l4.5-.9q14.55-3.6 18.6-6.3c2.7-1.8 7.4-6 14.1-12.7l3.6-3.6c4.8-4.8 10.4-8 16.8-9.5 6.3-1.5 12.5-1.7 18.6-.5l4.5 1.8c9.7 2.4 16 3.6 19 3.6s9.4-1.2 19-3.6l4.5-1.8c6-1.2 12.2-1.1 18.6.5 6.3 1.5 11.9 4.7 16.8 9.5l3.6 3.6c6.7 6.7 11.3 10.9 14.1 12.7q4.05 2.7 18.6 6.3l4.5.9c6 1.8 11.3 5.1 15.9 10s7.7 10.3 9.5 16.3l1.8 5.4c2.4 9.7 4.4 15.9 5.9 18.6s5.6 7.4 12.2 14.1l3.6 3.6c4.8 4.8 8 10.4 9.5 16.8 1.5 6.3 1.7 12.8.5 19.5l-1.8 4.5c-2.4 9.7-3.6 16-3.6 19s1.2 9.4 3.6 19l1.8 5.4c1.2 6 1.1 12.2-.5 18.6-1.5 6.3-4.7 11.9-9.5 16.8l-3.6 3.6c-6.7 7.3-10.7 12.2-12.2 15-1.5 2.7-3.5 8.9-5.9 18.6l-1.8 4.5c-1.8 6-5 11.5-9.5 16.3s-9.8 8.2-15.9 10l-7.3 1.8c-7.3 1.8-12.4 3.5-15.4 5s-7.3 5.3-12.7 11.3M159.8 172.5c0 24.2 8.3 44.7 24.9 61.7s36.7 25.4 60.3 25.4 43.7-8.5 60.3-25.4 24.9-37.5 24.9-61.7-8.3-44.7-24.9-61.7c-16.6-16.9-36.7-25.4-60.3-25.4s-43.7 8.5-60.3 25.4-24.9 37.5-24.9 61.7m258.4 247.6c1.8 4.8 1.2 9.4-1.8 13.6s-7.3 6.3-12.7 6.3l-47.2-1.8-33.5 34.5c-3.6 3.6-8 5-13.1 4.1s-8.6-3.8-10.4-8.6l-47.2-116.1c10.3 6 20.9 9.1 31.7 9.1 18.1 0 33.9-6.3 47.2-19l2.7-2.7c1.8-1.8 3.2-3 4.1-3.6s3.5-1.5 7.7-2.7l8.2-1.8c7.9-2.4 15.4-6.7 22.7-12.7z"></path></symbol><symbol id="bluesky" viewBox="0 0 45 39"><path fill="#fff" d="M9.754 2.667C14.914 6.54 20.463 14.393 22.5 18.608c2.038-4.214 7.587-12.068 12.746-15.941 3.723-2.795 9.755-4.957 9.755 1.924 0 1.374-.788 11.544-1.25 13.195-1.607 5.74-7.46 7.204-12.666 6.318 9.1 1.549 11.416 6.68 6.416 11.81-9.496 9.744-13.649-2.445-14.713-5.568-.195-.572-.286-.84-.288-.612-.001-.228-.092.04-.287.612C21.149 33.47 16.996 45.66 7.5 35.914c-5-5.13-2.685-10.261 6.416-11.81-5.207.886-11.06-.578-12.666-6.318C.788 16.135 0 5.965 0 4.591 0-2.29 6.032-.128 9.754 2.667Z" style="stroke-width:.0775866"></path></symbol><symbol id="breadcrumb-arrow" viewBox="0 0 5.976 9.131"><defs><style>.a998__cls-2{fill:none;stroke:#2b3653;stroke-width:2px}</style></defs><g id="d323__Group_5194" opacity=".601" transform="rotate(-90 434.066 319.858)"><path id="5a0c__Line_1" d="m0 0 4.116 4.116" class="a998__cls-2" transform="translate(745.5 -113.5)"></path><path id="5c5c__Path_5147" d="M-.558 4.561 4 0" class="a998__cls-2" transform="translate(749.214 -113.5)"></path></g></symbol><symbol id="bugs" viewBox="0 0 511 511"><path d="M327.5 0C226.318 0 144 82.318 144 183.5c0 47.899 18.455 91.563 48.619 124.275l-23.391 23.391a7.5 7.5 0 0 0-1.172 1.532C163.131 329.642 157.443 328 151.5 328c-8.417 0-16.327 3.278-22.272 9.228L9.229 457.227C3.278 463.176 0 471.086 0 479.5s3.278 16.324 9.226 22.27C15.173 507.722 23.083 511 31.5 511s16.327-3.278 22.272-9.228l119.999-119.999c5.951-5.949 9.229-13.859 9.229-22.273 0-5.943-1.642-11.631-4.698-16.556a7.5 7.5 0 0 0 1.533-1.172l23.391-23.391C235.937 348.545 279.601 367 327.5 367 428.682 367 511 284.682 511 183.5S428.682 0 327.5 0M43.163 491.167C40.05 494.284 35.908 496 31.5 496s-8.55-1.716-11.667-4.835C16.716 488.049 15 483.906 15 479.5s1.716-8.549 4.834-11.666l106.697-106.697 23.331 23.331zm120.003-120.001-2.697 2.697-23.331-23.331 2.699-2.699c3.113-3.116 7.255-4.833 11.663-4.833s8.55 1.716 11.667 4.835c3.117 3.116 4.833 7.258 4.833 11.665s-1.716 8.549-4.834 11.666M327.5 352C234.589 352 159 276.411 159 183.5S234.589 15 327.5 15 496 90.589 496 183.5 420.411 352 327.5 352"></path><path d="M473.064 141.375c-9.877-34.188-31.68-63.969-61.392-83.858a7.5 7.5 0 0 0-10.404 2.061 7.5 7.5 0 0 0 2.061 10.404c26.779 17.926 46.427 44.759 55.325 75.556a7.5 7.5 0 0 0 7.202 5.42c.689 0 1.39-.096 2.085-.297a7.5 7.5 0 0 0 5.123-9.286m-160.74 177.792c-29.982-3.314-57.389-16.145-79.259-37.105a7.5 7.5 0 0 0-10.379 10.829c23.926 22.931 55.175 37.558 87.989 41.185a7.5 7.5 0 0 0 1.649-14.909m-106.153-73.06a7.5 7.5 0 1 0-13.324 6.89 152 152 0 0 0 8.675 14.683 7.494 7.494 0 0 0 10.405 2.06 7.5 7.5 0 0 0 2.06-10.405 137 137 0 0 1-7.816-13.228M357.843 50.383c4.93 1.119 9.851 2.53 14.625 4.195a7.503 7.503 0 0 0 9.552-4.612 7.5 7.5 0 0 0-4.612-9.551 151 151 0 0 0-16.246-4.66 7.5 7.5 0 1 0-3.319 14.628m57.011 123.646a7.496 7.496 0 0 0-9.726-5.644l-15.764 5.255c-1.168-6.344-2.942-12.397-5.245-18.064l10.735-5.368a7.5 7.5 0 0 0 3.354-3.354l16-32a7.5 7.5 0 0 0-3.354-10.062 7.5 7.5 0 0 0-10.062 3.354L385.91 137.91l-8.633 4.317c-6.531-10.319-15.05-18.576-24.84-23.831l13.771-27.542a7.5 7.5 0 1 0-13.416-6.708l-14.512 29.023c-3.507-.754-7.104-1.169-10.78-1.169s-7.274.415-10.78 1.169l-14.512-29.023a7.5 7.5 0 0 0-10.062-3.354 7.5 7.5 0 0 0-3.354 10.062l13.771 27.542c-9.79 5.254-18.309 13.512-24.84 23.831l-8.633-4.317-14.882-29.764a7.5 7.5 0 0 0-10.062-3.354 7.5 7.5 0 0 0-3.354 10.062l16 32a7.5 7.5 0 0 0 3.354 3.354l10.735 5.368c-2.303 5.667-4.077 11.72-5.245 18.064l-15.764-5.255a7.503 7.503 0 0 0-9.726 5.644l-8 40a7.5 7.5 0 0 0 7.363 8.972 7.5 7.5 0 0 0 7.347-6.031l6.333-31.669 10.864 3.621c-.022.858-.052 1.713-.052 2.577 0 8.995 1.217 17.636 3.426 25.705a7.5 7.5 0 0 0-1.229.992l-16 16a7.5 7.5 0 0 0-1.128 9.162l24 40a7.49 7.49 0 0 0 10.29 2.572 7.5 7.5 0 0 0 2.572-10.29l-20.987-34.979 8.17-8.17C284.244 255.55 304.456 271 327.5 271s43.256-15.45 54.386-38.508l8.17 8.17-20.987 34.979a7.5 7.5 0 0 0 12.862 7.718l24-40a7.5 7.5 0 0 0-1.128-9.162l-16-16a7.5 7.5 0 0 0-1.229-.992c2.209-8.069 3.426-16.71 3.426-25.705 0-.864-.03-1.719-.052-2.577l10.864-3.621 6.333 31.669a7.504 7.504 0 0 0 8.826 5.884 7.5 7.5 0 0 0 5.884-8.825zM320 255.226c-23.194-4.809-41-31.552-41-63.726 0-10.042 1.736-19.555 4.828-28.038 10.484 6.309 22.908 10.177 36.172 11.236zm-29.53-105.315C299.374 135.912 312.666 127 327.5 127s28.126 8.912 37.03 22.911C354.26 156.366 341.113 160 327.5 160s-26.76-3.634-37.03-10.089M335 255.226v-80.527c13.264-1.06 25.688-4.928 36.172-11.236 3.092 8.483 4.828 17.995 4.828 28.038 0 32.173-17.806 58.916-41 63.725"></path></symbol><symbol id="bulb" viewBox="0 0 512.008 512.008"><path fill="#868491" d="M280.01 464.008h-48c-4.422 0-8 3.578-8 8v8c0 17.648 14.352 32 32 32s32-14.352 32-32v-8c0-4.422-3.578-8-8-8"></path><path fill="#5C546A" d="M256.002 464.008H232.01c-4.422 0-8 3.578-8 8v8c0 17.646 14.347 31.995 31.992 31.999z"></path><path fill="#FFCD00" d="M381.983 49.895C344.592 14.754 295.616-2.847 244.249.375 150.639 6.2 75.014 84.286 72.092 178.149c-2.156 69.547 34.375 133.578 95.344 167.117 15.156 8.344 24.57 24.367 24.57 41.828v60.914c0 17.648 14.352 32 32 32h64c17.648 0 32-14.352 32-32v-60.914a47.87 47.87 0 0 1 24.766-41.93c58.742-32.406 95.234-94.156 95.234-161.156 0-50.578-21.148-99.461-58.023-134.113"></path><circle cx="256.002" cy="184.008" r="128" fill="#FFE671"></circle><path fill="#FFF" d="M283.986 232.008c-10.633 0-16.07-6.203-20.031-10.727-3.492-3.984-4.883-5.273-8-5.273-3.102 0-4.484 1.289-7.961 5.266-3.734 4.273-9.383 10.734-20.016 10.734-10.625 0-16.273-6.461-20.008-10.734-3.477-3.977-4.859-5.266-7.961-5.266-4.422 0-8-3.578-8-8s3.578-8 8-8c10.625 0 16.273 6.461 20.008 10.734 3.477 3.977 4.859 5.266 7.961 5.266s4.492-1.289 7.969-5.266c3.734-4.273 9.383-10.734 20.008-10.734 10.633 0 16.07 6.203 20.031 10.727 3.492 3.984 4.883 5.273 8 5.273 3.109 0 4.5-1.289 7.992-5.266 3.742-4.273 9.391-10.734 20.031-10.734 4.422 0 8 3.578 8 8s-3.578 8-8 8c-3.117 0-4.508 1.289-8 5.273-3.742 4.274-9.39 10.727-20.023 10.727"></path><path fill="#5C546A" d="M232.002 384.008a8.01 8.01 0 0 1-7.813-6.297l-40-184c-.938-4.32 1.805-8.578 6.117-9.523 4.344-.953 8.578 1.805 9.523 6.117l40 184c.938 4.32-1.805 8.578-6.117 9.523a8 8 0 0 1-1.71.18m48.015 0a8 8 0 0 1-1.711-.18c-4.313-.945-7.055-5.203-6.117-9.523l40-184a7.986 7.986 0 0 1 9.523-6.117c4.313.945 7.055 5.203 6.117 9.523l-40 184a8.01 8.01 0 0 1-7.812 6.297"></path><path fill="#B4B6BC" d="M190.633 376.008c.851 3.593 1.374 7.293 1.374 11.086v60.914c0 17.648 14.352 32 32 32h64c17.648 0 32-14.352 32-32v-60.914c0-3.79.527-7.491 1.384-11.086z"></path><path fill="#868491" d="M256.002 376.008h-65.369c.851 3.593 1.374 7.293 1.374 11.086v60.914c0 17.648 14.352 32 32 32h31.995zm0 24h64v16h-64zm.004 32h64v16h-64z"></path><path fill="#5C546A" d="M192.002 400.008h64v16h-64zm0 32h64v16h-64z"></path></symbol><symbol id="calendar" viewBox="0 0 60 60"><path d="M57 4h-7V1a1 1 0 0 0-1-1h-7a1 1 0 0 0-1 1v3H19V1a1 1 0 0 0-1-1h-7a1 1 0 0 0-1 1v3H3a1 1 0 0 0-1 1v54a1 1 0 0 0 1 1h54a1 1 0 0 0 1-1V5a1 1 0 0 0-1-1M43 2h5v6h-5zM12 2h5v6h-5zM4 6h6v3a1 1 0 0 0 1 1h7a1 1 0 0 0 1-1V6h22v3a1 1 0 0 0 1 1h7a1 1 0 0 0 1-1V6h6v9H4zm0 52V17h52v41z"></path><path d="M38 23H11v29h38V23zm-7 2h7v7h-7zm7 16h-7v-7h7zm-16-7h7v7h-7zm0-9h7v7h-7zm-9 0h7v7h-7zm0 9h7v7h-7zm7 16h-7v-7h7zm9 0h-7v-7h7zm9 0h-7v-7h7zm9 0h-7v-7h7zm0-9h-7v-7h7zm0-16v7h-7v-7z"></path></symbol><symbol id="callout-idea" viewBox="0 0 47 47"><path d="M23.5 11.449c-6.385 0-11.563 4.959-11.563 11.077 0 7.265 5.045 9.117 5.045 13.344 0 1.045.799 2.017 1.999 2.731-.251.209-.391.438-.391.678 0 .322.253.623.688.881-.408.253-.645.544-.645.855 0 .314.242.608.659.863-.426.256-.674.555-.674.872 0 .388.366.743.978 1.032-.237.215-.373.453-.373.703 0 .74 1.153 1.369 2.774 1.621.285.528.863.894 1.537.894s1.25-.363 1.535-.889c1.637-.248 2.803-.881 2.803-1.623 0-.247-.131-.482-.363-.694.625-.291.998-.651.998-1.042 0-.314-.241-.609-.659-.863.425-.257.674-.554.674-.871 0-.322-.254-.623-.688-.882.41-.252.646-.544.646-.855 0-.249-.151-.484-.421-.698 1.181-.713 1.966-1.675 1.966-2.711 0-4.229 5.039-6.08 5.039-13.344-.001-6.12-5.178-11.079-11.564-11.079m6.038 17.932c-1.152 1.692-2.455 3.604-2.535 6.232-.396.441-1.809 1.158-3.499 1.158s-3.105-.717-3.5-1.16c-.08-2.629-1.385-4.541-2.539-6.232-1.287-1.886-2.502-3.667-2.502-6.854 0-4.439 3.83-8.051 8.537-8.051s8.538 3.612 8.538 8.051c0 3.188-1.215 4.97-2.5 6.856M23.5 7.564c.832 0 1.513-.9 1.513-2V2c0-1.1-.681-2-1.513-2s-1.513.9-1.513 2v3.564c0 1.101.681 2 1.513 2m-7.753 2.078c.721-.416.859-1.536.31-2.488l-1.781-3.087c-.55-.953-1.59-1.392-2.311-.976s-.86 1.536-.311 2.488l1.783 3.087c.55.953 1.589 1.392 2.31.976m-6.652 3.365L6.01 11.225c-.953-.55-2.073-.411-2.489.31s.022 1.76.976 2.31l3.086 1.782c.953.55 2.073.411 2.488-.31s-.023-1.76-.976-2.31m33.409 19.288-3.086-1.781c-.953-.551-2.073-.412-2.488.31-.416.721.021 1.76.977 2.31l3.084 1.782c.953.55 2.073.411 2.489-.31.416-.722-.022-1.761-.976-2.311M7.994 23.07c0-.833-.9-1.513-2-1.513H2.43c-1.1 0-2 .681-2 1.513s.9 1.513 2 1.513h3.564c1.1 0 2-.681 2-1.513m36.576-1.513h-3.563c-1.101 0-2 .681-2 1.513s.899 1.513 2 1.513h3.563c1.101 0 2-.681 2-1.513s-.9-1.513-2-1.513M7.582 30.514l-3.086 1.781c-.953.55-1.392 1.589-.976 2.311.416.721 1.536.859 2.489.31l3.085-1.782c.953-.55 1.392-1.589.976-2.31-.415-.72-1.535-.861-2.488-.31m31.836-14.887 3.086-1.782c.953-.55 1.392-1.589.976-2.31s-1.536-.86-2.489-.31l-3.085 1.782c-.952.55-1.392 1.589-.976 2.31s1.535.86 2.488.31M35.036 3.09c-.722-.416-1.762.023-2.312.976l-1.781 3.087c-.55.953-.411 2.072.31 2.488.722.416 1.761-.023 2.311-.976l1.783-3.087c.549-.952.409-2.072-.311-2.488"></path></symbol><symbol id="callout-quote" viewBox="0 0 489.3 489.3"><path d="M265 369.25c6.8 0 12.3-5.5 12.3-12.3s-5.5-12.3-12.3-12.3H38.4c-7.7 0-13.9-6.2-13.9-13.9V77.35c0-7.7 6.2-13.9 13.9-13.9H451c7.7 0 13.9 6.2 13.9 13.9v253.6c0 7.7-6.2 13.9-13.9 13.9h-30.2c-6.8 0-12.3 5.5-12.3 12.3v60.9l-69.5-69.5c-4.8-4.8-12.5-4.8-17.3 0s-4.8 12.5 0 17.3l78.9 78.9c3.6 3.6 8.5 5.6 13.4 5.6 2.4 0 4.9-.5 7.3-1.4 7.1-2.9 11.7-9.8 11.7-17.5v-61.9h17.9c21.2 0 38.4-17.2 38.4-38.4V77.35c0-21.2-17.2-38.4-38.4-38.4H38.4C17.2 38.95 0 56.15 0 77.35v253.6c0 21.2 17.2 38.4 38.4 38.4H265z"></path><path d="M88.1 152.85h313.2c6.8 0 12.3-5.5 12.3-12.3s-5.5-12.3-12.3-12.3H88.1c-6.8 0-12.3 5.5-12.3 12.3s5.5 12.3 12.3 12.3m0 65.9h313.2c6.8 0 12.3-5.5 12.3-12.3s-5.5-12.3-12.3-12.3H88.1c-6.8 0-12.3 5.5-12.3 12.3s5.5 12.3 12.3 12.3m156.6 65.9h156.6c6.8 0 12.3-5.5 12.3-12.3s-5.5-12.3-12.3-12.3H244.7c-6.8 0-12.3 5.5-12.3 12.3.1 6.8 5.5 12.3 12.3 12.3"></path></symbol><symbol id="callout-tip" viewBox="0 0 496.304 496.303"><path d="M248.146 0C111.314 0 0 111.321 0 248.152c0 136.829 111.314 248.151 248.146 248.151 136.835 0 248.158-111.322 248.158-248.151C496.304 111.321 384.98 0 248.146 0m0 472.093c-123.473 0-223.935-100.459-223.935-223.941 0-123.479 100.462-223.941 223.935-223.941 123.488 0 223.947 100.462 223.947 223.941 0 123.482-100.459 223.941-223.947 223.941m71.39-88.673v32.852a2.49 2.49 0 0 1-2.482 2.494H196.45a2.486 2.486 0 0 1-2.482-2.494V383.42a2.483 2.483 0 0 1 2.482-2.482h34.744V205.831h-35.101a2.466 2.466 0 0 1-2.468-2.474v-33.6c0-1.38 1.1-2.479 2.468-2.479h82.293a2.477 2.477 0 0 1 2.482 2.479v211.181h36.186a2.49 2.49 0 0 1 2.482 2.482M209.93 105.927c0-20.895 16.929-37.829 37.829-37.829 20.886 0 37.826 16.935 37.826 37.829s-16.94 37.829-37.826 37.829c-20.906 0-37.829-16.934-37.829-37.829"></path></symbol><symbol id="callout-warning" viewBox="0 0 192.146 192.146"><path d="M108.186 144.372c0 7.054-4.729 12.32-12.037 12.32h-.254c-7.054 0-11.92-5.266-11.92-12.32 0-7.298 5.012-12.31 12.174-12.31s11.91 4.992 12.037 12.31M88.44 125.301h15.447l2.951-61.298H85.46zm101.932 51.733c-2.237 3.664-6.214 5.921-10.493 5.921H12.282c-4.426 0-8.51-2.384-10.698-6.233a12.34 12.34 0 0 1 .147-12.349l84.111-149.22c2.208-3.722 6.204-5.96 10.522-5.96h.332c4.445.107 8.441 2.618 10.513 6.546l83.515 149.229c1.993 3.8 1.905 8.363-.352 12.066m-10.493-6.4L96.354 21.454l-84.062 149.18z"></path></symbol><symbol id="cancel-grey" viewBox="0 0 297 297"><path fill="gray" d="m293.805 219.495-71.019-71.003 70.998-71.015c4.258-4.259 4.256-11.163-.002-15.422L234.921 3.194a10.904 10.904 0 0 0-15.424.002l-70.999 71.025L77.477 3.219c-4.26-4.258-11.162-4.257-15.422.001L3.194 62.081a10.9 10.9 0 0 0 .002 15.424l71.035 71.01-70.983 71.01c-4.257 4.258-4.257 11.16 0 15.419l58.834 58.859a10.9 10.9 0 0 0 7.712 3.196h.001c2.893 0 5.667-1.149 7.712-3.195l71.013-71.029 71.005 70.979c4.258 4.258 11.161 4.258 15.419 0l58.86-58.834a10.904 10.904 0 0 0 .001-15.425"></path></symbol><symbol id="cancel-x" viewBox="0 0 311.539 311.539"><path d="m190.127 93.127-34.357 34.357-34.358-34.357-28.285 28.285 34.358 34.358-34.358 34.357 28.285 28.285 34.358-34.357 34.357 34.357 28.285-28.285-34.357-34.357 34.357-34.358z"></path><path d="M155.77 0C69.74 0 0 69.74 0 155.77s69.74 155.77 155.77 155.77 155.77-69.74 155.77-155.77S241.799 0 155.77 0m0 271.539C91.784 271.539 40 219.761 40 155.77 40 91.784 91.778 40 155.77 40c63.986 0 115.77 51.778 115.77 115.77-.001 63.985-51.779 115.769-115.77 115.769"></path></symbol><symbol id="cancel" viewBox="0 0 297 297"><path fill="red" d="m293.805 219.495-71.019-71.003 70.998-71.015c4.258-4.259 4.256-11.163-.002-15.422L234.921 3.194a10.904 10.904 0 0 0-15.424.002l-70.999 71.025L77.477 3.219c-4.26-4.258-11.162-4.257-15.422.001L3.194 62.081a10.9 10.9 0 0 0 .002 15.424l71.035 71.01-70.983 71.01c-4.257 4.258-4.257 11.16 0 15.419l58.834 58.859a10.9 10.9 0 0 0 7.712 3.196h.001c2.893 0 5.667-1.149 7.712-3.195l71.013-71.029 71.005 70.979c4.258 4.258 11.161 4.258 15.419 0l58.86-58.834a10.904 10.904 0 0 0 .001-15.425"></path></symbol><symbol id="checkmark" viewBox="0 0 97.619 97.618"><path fill="green" d="M96.939 17.358 83.968 5.959a2 2 0 0 0-1.449-.494 2 2 0 0 0-1.373.677L34.1 59.688 17.372 37.547a2 2 0 0 0-1.319-.773 1.97 1.97 0 0 0-1.481.385L.794 47.567a2 2 0 0 0-.39 2.801l30.974 40.996c.362.479.922.771 1.522.793h.073c.574 0 1.122-.246 1.503-.68L97.12 20.18a2 2 0 0 0-.181-2.822"></path></symbol><symbol id="clock" viewBox="0 0 378.311 378.311"><path d="M189.156 0C84.858 0 .001 84.858.001 189.155c0 104.298 84.857 189.155 189.155 189.155 104.304 0 189.154-84.857 189.154-189.155C378.31 84.858 293.46 0 189.156 0m0 347.144c-87.117 0-157.988-70.87-157.988-157.988 0-87.115 70.871-157.988 157.988-157.988s157.986 70.873 157.986 157.988c0 87.117-70.87 157.988-157.986 157.988"></path><path d="M204.739 182.963V75.841c0-8.606-6.977-15.584-15.583-15.584s-15.582 6.978-15.582 15.584v113.314c0 4.839 2.25 9.101 5.703 11.962.146.176.245.373.397.546l58.438 66.354a15.57 15.57 0 0 0 11.701 5.279 15.5 15.5 0 0 0 10.289-3.888c6.461-5.692 7.084-15.537 1.398-21.998z"></path></symbol><symbol id="community" viewBox="0 0 611.998 611.998"><path d="M382.167 150.945c9.702 10.875 16.557 24.306 20.381 39.921 3.629 14.822 4.44 31.308 2.414 49.006a249 249 0 0 1-3.479 21.802c12.532 12.135 28.95 19.839 50.296 19.838 59.22-.005 80.529-59.3 86.105-108.006 6.872-60.004-21.498-105.163-86.105-105.163-50.698 0-79.079 27.82-85.628 68.798 5.925 3.921 11.298 8.514 16.016 13.804"></path><path d="M611.973 422.704c-.645-18.899-2.861-37.887-6.161-56.495-3.992-22.539-9.08-55.585-28.759-70.275-11.38-8.491-26.117-11.278-39.143-16.398-6.343-2.492-12.024-4.967-17.354-7.784-17.995 19.734-41.459 30.055-68.782 30.057-21.261 0-40.172-6.281-56.001-18.358-3.644 11.272-8.522 22.623-15.044 32.994 5.728 3.449 11.923 6.204 19.451 9.162 3.332 1.31 6.99 2.506 10.864 3.771 10.472 3.422 22.339 7.301 32.994 15.255 25.329 18.907 31.564 54.336 36.117 80.207l.49 2.792c2.355 13.266 4.084 26.299 5.197 38.961 20.215-2.071 40.327-5.61 60.047-9.774 15.941-3.365 31.774-7.471 47.109-13.003 12.249-4.419 19.478-6.473 18.975-21.112M160.216 281.511c21.345.002 37.762-7.703 50.295-19.838a249 249 0 0 1-3.479-21.802c-2.026-17.697-1.214-34.184 2.414-49.006 3.823-15.614 10.679-29.046 20.381-39.921 4.718-5.291 10.09-9.884 16.014-13.805-6.549-40.978-34.93-68.798-85.628-68.798-64.606 0-92.977 45.16-86.106 105.163 5.58 48.708 26.889 108.003 86.109 108.007"></path><path d="M167.957 344.634c10.655-7.954 22.524-11.833 32.994-15.255 3.875-1.265 7.531-2.461 10.864-3.771 7.528-2.957 13.725-5.711 19.451-9.162-6.52-10.369-11.4-21.722-15.043-32.994-15.829 12.077-34.741 18.358-56.001 18.358-27.322-.001-50.788-10.324-68.782-30.057-5.329 2.817-11.012 5.291-17.354 7.784-13.026 5.12-27.763 7.907-39.143 16.398-19.678 14.691-24.767 47.735-28.759 70.275-3.3 18.607-5.516 37.595-6.161 56.495-.502 14.64 6.726 16.693 18.974 21.112 15.334 5.531 31.17 9.637 47.109 13.003 19.72 4.165 39.833 7.704 60.047 9.774 1.112-12.662 2.841-25.693 5.197-38.961l.49-2.792c4.554-25.87 10.788-61.3 36.117-80.207"></path><path d="m470.351 429.405-.493-2.805c-4.258-24.197-10.091-57.334-32.191-73.832-9.321-6.957-19.872-10.404-30.078-13.74-4.019-1.313-7.812-2.554-11.427-3.974-5.269-2.07-10.016-4.097-14.464-6.338-18.684 24.932-44.58 38.059-75.383 38.062-30.795 0-56.687-13.128-75.371-38.062-4.449 2.243-9.196 4.269-14.467 6.34-3.61 1.418-7.406 2.659-11.424 3.972-10.207 3.335-20.761 6.784-30.079 13.74-22.107 16.5-27.936 49.645-32.193 73.846l-.493 2.795c-3.557 20.086-5.68 39.572-6.308 57.914-.737 21.519 12.62 26.316 24.403 30.55l1.269.457c14.17 5.112 30.021 9.492 48.457 13.388 37.646 7.946 68.197 11.74 96.138 11.938h.144c27.946-.199 58.495-3.992 96.135-11.938 18.439-3.894 34.289-8.274 48.453-13.387l1.268-.456c11.786-4.233 25.147-9.029 24.41-30.553-.627-18.391-2.751-37.875-6.306-57.917"></path><path d="M221.005 243.009c5.577 48.709 26.883 108.009 86.103 108.006s80.529-59.297 86.106-108.006c6.871-60.002-21.503-105.16-86.106-105.16-64.593-.002-92.985 45.153-86.103 105.16"></path></symbol><symbol id="contribution" viewBox="0 0 28 28"><path d="M23.333 18.667a4.64 4.64 0 0 0-3.652 1.8L9.157 15.2a4.2 4.2 0 0 0 0-2.4l10.524-5.264a4.64 4.64 0 1 0-1.015-2.869 4.6 4.6 0 0 0 .176 1.2L8.319 11.131a4.667 4.667 0 1 0 0 5.738l10.524 5.263a4.6 4.6 0 0 0-.176 1.2 4.667 4.667 0 1 0 4.667-4.667m0-16.8a2.8 2.8 0 1 1-2.8 2.8 2.8 2.8 0 0 1 2.8-2.8M4.667 16.8a2.8 2.8 0 1 1 2.8-2.8 2.8 2.8 0 0 1-2.8 2.8m18.667 9.333a2.8 2.8 0 1 1 2.8-2.8 2.8 2.8 0 0 1-2.8 2.8" style="fill:#fff"></path></symbol><symbol id="copy" viewBox="0 0 460 460"><path d="M425.934 0H171.662c-18.122 0-32.864 14.743-32.864 32.864v77.134h149.543c34.664 0 62.865 28.201 62.865 62.865v147.139h74.728c18.121 0 32.864-14.743 32.864-32.865V32.864C458.797 14.743 444.055 0 425.934 0"></path><path d="M288.339 139.998H34.068c-18.121 0-32.865 14.743-32.865 32.865v254.272C1.204 445.257 15.946 460 34.068 460H288.34c18.122 0 32.865-14.743 32.865-32.864V172.863c.001-18.122-14.744-32.865-32.866-32.865"></path></symbol><symbol id="customers" viewBox="0 0 473.081 473.081"><path d="M471.176 162.893a6.5 6.5 0 0 0-9.192 0l-40.487 40.488a6.5 6.5 0 0 0-1.868 3.921c-3.223 30.84-17.072 59.9-38.999 81.826l-9.621 9.621-69.908-69.908c4.422 1.044 8.75 1.572 12.953 1.572 6.165 0 12.065-1.127 17.607-3.395a6.5 6.5 0 1 0-4.922-12.032c-26.768 10.951-57.628-18.195-61.515-22.022l-18.575-18.575c2.306-9.78.315-20.276-5.615-28.803-6.704-9.638-17.362-15.165-29.287-15.165l-44.991.322h-.119a16.1 16.1 0 0 1-11.416-4.707 16.1 16.1 0 0 1-4.786-11.504v-.677a16.16 16.16 0 0 1 15.567-16.188l81.933-3.228c29.569-1.164 59.042 7.816 82.946 25.285a6.5 6.5 0 0 0 8.431-.652l43.032-43.032a6.5 6.5 0 1 0-9.192-9.192l-39.173 39.174c-25.398-17.079-55.919-25.778-86.556-24.573l-81.933 3.228c-.193.008-.382.025-.573.037L133.83 53.628a6.5 6.5 0 0 0-9.192 0 6.5 6.5 0 0 0 0 9.192l26.352 26.352a29.12 29.12 0 0 0-13.555 24.682v.677c-.002 7.842 3.062 15.204 8.625 20.73s12.941 8.539 20.789 8.482l44.944-.322c10.353 0 16.077 6.007 18.567 9.588a23.6 23.6 0 0 1 3.787 8.879l-2.228-2.228a6.5 6.5 0 0 0-9.192 0 6.5 6.5 0 0 0 0 9.192l146.666 146.666c6.334 6.333 6.334 16.639 0 22.972-6.33 6.331-16.63 6.332-22.962.008l-93.42-93.419a6.497 6.497 0 0 0-9.191 0 6.5 6.5 0 0 0 0 9.192l100.622 100.623c6.334 6.333 6.334 16.639 0 22.972a16.13 16.13 0 0 1-11.486 4.758c-4.339 0-8.418-1.69-11.485-4.758l-95.387-95.387a6.5 6.5 0 0 0-9.192 9.192l78.161 78.162c6.328 6.334 6.326 16.634-.005 22.965-6.335 6.334-16.64 6.333-22.973 0l-84.888-84.888a6.5 6.5 0 0 0-9.192 0 6.5 6.5 0 0 0 0 9.192l62.967 62.967.001.001c6.334 6.333 6.334 16.638 0 22.972-6.332 6.333-16.638 6.333-22.971 0L104.073 289.128c-21.926-21.926-35.776-50.986-38.998-81.826a6.5 6.5 0 0 0-1.869-3.921l-52.11-52.111a6.5 6.5 0 0 0-9.192 0 6.5 6.5 0 0 0 0 9.192l50.502 50.502c3.968 32.934 18.996 63.876 42.475 87.355l9.586 9.586c-3.569 4.941-5.5 10.856-5.5 17.071 0 7.811 3.042 15.155 8.565 20.678 5.701 5.701 13.189 8.552 20.678 8.552.737 0 1.473-.036 2.208-.091a29.7 29.7 0 0 0-.386 4.737c0 7.811 3.042 15.155 8.565 20.678 5.701 5.701 13.189 8.552 20.678 8.552 1.457 0 2.914-.111 4.358-.327-1.325 8.865 1.414 18.226 8.224 25.036 5.523 5.523 12.867 8.565 20.678 8.565 6.962 0 13.549-2.422 18.811-6.859a29.17 29.17 0 0 0 18.131 6.293c7.488 0 14.978-2.851 20.679-8.552a29.07 29.07 0 0 0 7.992-14.979l4.733 4.733c5.702 5.702 13.189 8.552 20.679 8.552 7.488 0 14.979-2.851 20.68-8.552a29.07 29.07 0 0 0 7.992-14.978l.045.045c5.523 5.523 12.867 8.565 20.679 8.565 7.813 0 15.156-3.042 20.68-8.565 8.349-8.349 10.576-20.53 6.698-30.932 6.66-.55 13.168-3.36 18.252-8.445 10.858-10.858 11.368-28.195 1.546-39.672l9.69-9.691c23.479-23.479 38.507-54.422 42.476-87.356l38.879-38.879a6.5 6.5 0 0 0-.001-9.191M116.725 336.462a16.14 16.14 0 0 1-4.758-11.486c0-2.717.663-5.331 1.911-7.66l21.992 21.992a16.16 16.16 0 0 1-7.66 1.911 16.12 16.12 0 0 1-11.485-4.757m31.065 33.877a16.14 16.14 0 0 1-4.758-11.486c0-3.413 1.059-6.656 2.999-9.382l22.624 22.624c-6.337 4.492-15.191 3.917-20.865-1.756m33.26 33.26c-5.674-5.674-6.248-14.527-1.756-20.865l22.624 22.624a16.1 16.1 0 0 1-9.383 2.999c-4.338 0-8.417-1.69-11.485-4.758"></path></symbol><symbol id="discourse" viewBox="0 0 448 512"><path d="M225.9 32C103.3 32 0 130.5 0 252.1 0 256 .1 480 .1 480l225.8-.2c122.7 0 222.1-102.3 222.1-223.9S348.6 32 225.9 32M224 384c-19.4 0-37.9-4.3-54.4-12.1L88.5 392l22.9-75c-9.8-18.1-15.4-38.9-15.4-61 0-70.7 57.3-128 128-128s128 57.3 128 128-57.3 128-128 128"></path></symbol><symbol id="download" viewBox="0 0 29.978 29.978"><path d="M25.462 19.105v6.848H4.515v-6.848H.489v8.861c0 1.111.9 2.012 2.016 2.012h24.967c1.115 0 2.016-.9 2.016-2.012v-8.861zm-10.842-.679-5.764-6.965s-.877-.828.074-.828h3.248V.494S12.049 0 12.793 0h4.572c.536 0 .524.416.524.416v10.008h2.998c1.154 0 .285.867.285.867s-4.904 6.51-5.588 7.193c-.492.495-.964-.058-.964-.058"></path></symbol><symbol id="drive" viewBox="0 0 50.489 44.355"><path d="m17.474 31.427-.138.247-7.248 12.681H43.1l.138-.246 7.248-12.671h-.836l-31.891-.01ZM16.093 2.219 0 30.086l.138.247 7.356 12.622.414-.72L23.864 14.6l.136-.242-.138-.247L16.507 1.5ZM33.7 0 19.1.059l.414.72L35.46 28.41l.138.237h.286l14.6-.059-.414-.72L33.981 0Z" style="fill:#fff"></path></symbol><symbol id="dropdown-arrow" viewBox="0 0 24 24"><path d="M12 17.414 3.293 8.707l1.414-1.414L12 14.586l7.293-7.293 1.414 1.414z"></path></symbol><symbol id="events" viewBox="0 0 24.995 25.854">&#x105;<path d="M23.947 2.289h-2.816v-1.24a1.048 1.048 0 1 0-2.1 0v1.24H5.96v-1.24a1.048 1.048 0 1 0-2.1 0v1.24H1.048A1.05 1.05 0 0 0 0 3.337v21.469a1.05 1.05 0 0 0 1.048 1.048h22.9A1.05 1.05 0 0 0 25 24.806V3.336a1.05 1.05 0 0 0-1.048-1.047M22.9 23.759H2.094V8.965H22.9zM3.864 5.344A1.05 1.05 0 0 0 4.911 6.39 1.05 1.05 0 0 0 5.96 5.342v-.956h13.075v.958a1.048 1.048 0 0 0 2.1 0v-.958H22.9v2.483H2.094V4.386h1.77z" class="5033__cls-3"></path><path d="M10.609 19.821a1.046 1.046 0 0 0 1.517-.036l5.725-6.3a1.05 1.05 0 0 0-.072-1.479 1.1 1.1 0 0 0-.7-.263c-.019 0-.036-.009-.055-.009a1.05 1.05 0 0 0-.724.343l-4.987 5.483-2.658-2.66a1.07 1.07 0 0 0-1.48 0 1.05 1.05 0 0 0 0 1.481z" class="5033__cls-3"></path></symbol><symbol id="exclamation-mark" viewBox="-50 -30 137.062 137.062"><path d="M-47.981 33.626c-2.692 2.692-2.692 7.119 0 9.81l61.607 61.607c2.692 2.692 7.119 2.692 9.81 0l61.607-61.606c2.692-2.692 2.692-7.12 0-9.811L23.437-27.981c-2.692-2.692-7.12-2.692-9.811 0z"></path><path fill="#ffeb00" d="M83.269 35.387a4.447 4.447 0 0 1 0 6.289l-61.593 61.593a4.447 4.447 0 0 1-6.29 0l-61.593-61.593a4.447 4.447 0 0 1 0-6.29l61.594-61.593a4.447 4.447 0 0 1 6.289 0z"></path><path d="M18.531-4.432C11.313-4.442 5.254 1.304 5.253 8.686c.001 1.925.472 3.25.472 3.25l11.181 44.971h3.25l11.181-44.972s.47-1.324.472-3.25c0-7.381-6.06-13.126-13.278-13.117m10.772 75.155c0 5.949-4.823 10.772-10.772 10.772S7.76 76.672 7.76 70.723s4.822-10.772 10.771-10.772 10.772 4.823 10.772 10.772"></path></symbol><symbol id="gear" viewBox="0 0 325.051 325.051"><path d="M162.523 86.532c-41.904 0-76 34.089-76 75.994 0 41.901 34.096 75.996 76 75.996s76-34.095 76-75.996c0-41.905-34.096-75.994-76-75.994m0 139.693c-35.128 0-63.702-28.571-63.702-63.699 0-35.122 28.574-63.696 63.702-63.696 35.131 0 63.702 28.574 63.702 63.696 0 35.127-28.571 63.699-63.702 63.699"></path><path d="M302.503 130.583h-11.505c-5.975-24.202-18.537-45.916-36.587-63.3l5.765-9.977c6.329-10.965-.865-26.571-16.382-35.531-6.484-3.738-13.654-5.803-20.206-5.803-8.473 0-15.3 3.419-18.74 9.37l-5.759 9.974c-23.749-6.83-49.345-6.83-73.121 0l-5.755-9.974c-3.444-5.957-10.269-9.37-18.744-9.37-6.548 0-13.724 2.065-20.203 5.803C65.752 30.729 58.55 46.33 64.879 57.3l5.768 9.977c-18.065 17.39-30.615 39.104-36.593 63.312h-11.5C9.908 130.589 0 144.613 0 162.525s9.908 31.945 22.554 31.945h11.499c5.978 24.199 18.534 45.913 36.593 63.303l-5.768 9.98c-6.329 10.964.874 26.564 16.387 35.523 6.479 3.735 13.655 5.801 20.203 5.801 8.476 0 15.3-3.423 18.744-9.367l5.755-9.968c23.77 6.827 49.372 6.827 73.115-.013l5.765 9.98c3.44 5.957 10.268 9.367 18.74 9.367 6.552 0 13.722-2.065 20.206-5.801 15.517-8.959 22.711-24.56 16.382-35.523l-5.765-9.98c18.062-17.39 30.612-39.104 36.587-63.303h11.493c12.64 0 22.554-14.027 22.56-31.945.007-8.043-2.041-15.69-5.764-21.539-4.197-6.61-10.321-10.402-16.783-10.402m-.011 51.59h-16.399a6.15 6.15 0 0 0-6.017 4.906c-5.23 25.196-18.212 47.653-37.536 64.941a6.145 6.145 0 0 0-1.225 7.656l8.215 14.226c2.432 4.203-2.145 13.103-11.884 18.723-8.779 5.092-19.636 5.272-22.146.938l-8.215-14.22a6.144 6.144 0 0 0-7.248-2.768c-24.205 7.98-50.771 7.992-75.018.006-2.759-.889-5.786.24-7.248 2.769l-8.202 14.214c-2.504 4.335-13.352 4.154-22.149-.932-9.74-5.62-14.309-14.52-11.886-18.723l8.214-14.226a6.15 6.15 0 0 0-1.222-7.649c-19.332-17.294-32.314-39.752-37.542-64.948a6.15 6.15 0 0 0-6.02-4.899H22.548c-4.837 0-10.256-8.401-10.256-19.648 0-11.241 5.419-19.639 10.256-19.639h16.405a6.144 6.144 0 0 0 6.02-4.902c5.233-25.208 18.215-47.667 37.539-64.948a6.145 6.145 0 0 0 1.225-7.656l-8.214-14.222c-2.429-4.207 2.147-13.105 11.886-18.726 8.797-5.083 19.639-5.269 22.149-.934l8.203 14.216a6.164 6.164 0 0 0 7.248 2.774c24.232-7.974 50.801-7.974 75.03 0a6.17 6.17 0 0 0 7.248-2.768L215.5 31.51c2.504-4.32 13.354-4.144 22.146.942 9.739 5.618 14.304 14.523 11.878 18.729l-8.215 14.222a6.16 6.16 0 0 0 1.225 7.656c19.323 17.282 32.306 39.74 37.53 64.945a6.16 6.16 0 0 0 6.022 4.9h16.411c2.174 0 4.504 1.714 6.413 4.71 2.438 3.843 3.837 9.284 3.837 14.94.001 11.218-5.421 19.619-10.255 19.619"></path></symbol><symbol id="github" viewBox="0 0 46.14 45"><path d="M228.962 1078.578a23.072 23.072 0 0 0-7.29 44.96c1.154.212 1.574-.5 1.574-1.112 0-.548-.02-2-.031-3.924-6.417 1.394-7.771-3.093-7.771-3.093a6.1 6.1 0 0 0-2.562-3.375c-2.095-1.431.159-1.4.159-1.4a4.85 4.85 0 0 1 3.533 2.377c2.058 3.525 5.4 2.507 6.714 1.917a4.93 4.93 0 0 1 1.464-3.084c-5.123-.582-10.508-2.562-10.508-11.4a8.92 8.92 0 0 1 2.374-6.191 8.3 8.3 0 0 1 .226-6.105s1.937-.62 6.344 2.365a21.86 21.86 0 0 1 11.551 0c4.4-2.985 6.338-2.365 6.338-2.365a8.28 8.28 0 0 1 .23 6.105 8.9 8.9 0 0 1 2.371 6.191c0 8.862-5.393 10.812-10.533 11.384a5.5 5.5 0 0 1 1.566 4.272c0 3.084-.028 5.572-.028 6.329 0 .617.415 1.334 1.586 1.109a23.073 23.073 0 0 0-7.308-44.958Z" style="fill:#fff;fill-rule:evenodd" transform="translate(-205.894 -1078.578)"></path></symbol><symbol id="hamburger-sidebar" viewBox="0 0 21.005 14.879"><path d="M20.248 13.192H5.665a.26.26 0 0 1-.259-.26.26.26 0 0 1 .259-.259h14.583a.26.26 0 0 1 .259.259.26.26 0 0 1-.259.26M20.248 7.836H5.665a.26.26 0 0 1-.259-.26.26.26 0 0 1 .259-.259h14.583a.26.26 0 0 1 .259.259.26.26 0 0 1-.259.26M20.248 2.47H5.665a.26.26 0 0 1-.259-.259.26.26 0 0 1 .259-.259h14.583a.26.26 0 0 1 .259.259.26.26 0 0 1-.259.259M1.969 14.379A1.47 1.47 0 0 1 .5 12.91a1.47 1.47 0 0 1 1.469-1.469 1.47 1.47 0 0 1 1.469 1.469 1.47 1.47 0 0 1-1.469 1.469m0-2.418a.95.95 0 0 0-.95.95.95.95 0 0 0 .95.95.95.95 0 0 0 .95-.95.95.95 0 0 0-.95-.95M1.969 9.121A1.47 1.47 0 0 1 .5 7.652a1.47 1.47 0 0 1 1.469-1.469 1.47 1.47 0 0 1 1.469 1.469 1.47 1.47 0 0 1-1.469 1.469m0-2.418a.95.95 0 0 0-.95.95.95.95 0 0 0 .95.95.95.95 0 0 0 .95-.95.95.95 0 0 0-.95-.952ZM1.969 3.437A1.47 1.47 0 0 1 .5 1.968 1.47 1.47 0 0 1 1.969.499a1.47 1.47 0 0 1 1.469 1.469 1.47 1.47 0 0 1-1.469 1.469m0-2.418a.95.95 0 0 0-.95.95.95.95 0 0 0 .95.95.95.95 0 0 0 .95-.95.95.95 0 0 0-.95-.95"></path></symbol><symbol id="hamburger" viewBox="0 0 24 24"><path d="M3 18h18v-2H3zm0-5h18v-2H3zm0-7v2h18V6z"></path></symbol><symbol id="help" viewBox="0 0 58 58"><path d="M56.924 36.82q0-.008.001-.016C57.62 34.319 58 31.704 58 29s-.38-5.319-1.075-7.804q0-.008-.001-.016-.005-.01-.01-.02A29 29 0 0 0 56 18.439v-.329a.98.98 0 0 0-.487-.838 29 29 0 0 0-1.154-2.318.98.98 0 0 0 .641.248 1 1 0 0 0 1-1v-.977a1 1 0 1 0-2 0v.977c0 .06.024.111.034.168q-.108-.18-.218-.359l-.04-.065c-.069-.113-.135-.228-.206-.34-.01-.016-.027-.024-.037-.039a29 29 0 0 0-2.133-2.962c-.007-.01-.009-.021-.016-.031a30 30 0 0 0-.607-.713c-.015-.017-.036-.024-.052-.04a29 29 0 0 0-2.555-2.553c-.015-.015-.021-.035-.038-.049a29 29 0 0 0-.711-.604c-.007-.006-.016-.007-.024-.013a29 29 0 0 0-2.968-2.137c-.015-.011-.023-.027-.04-.038q-.166-.103-.334-.202l-.064-.039q-.183-.113-.367-.222c.063.011.121.036.188.036h.977a1 1 0 1 0 0-2h-.977a1 1 0 0 0-1 1c0 .253.102.477.256.653a29 29 0 0 0-2.339-1.166.99.99 0 0 0-.838-.487h-.329a29 29 0 0 0-2.724-.915q-.008-.003-.017-.008h-.013C34.322.38 31.705 0 29 0s-5.322.38-7.808 1.077h-.013q-.008.003-.017.008-1.392.391-2.724.915h-.329a.98.98 0 0 0-.838.487q-1.188.527-2.318 1.154A.98.98 0 0 0 15.201 3a1 1 0 0 0-1-1h-.977a1 1 0 1 0 0 2h.977c.06 0 .112-.024.169-.034q-.176.105-.351.212l-.083.05q-.167.1-.333.201c-.016.01-.024.026-.039.037A29.5 29.5 0 0 0 10.6 6.602q-.013.007-.026.014-.362.297-.713.607c-.017.015-.023.034-.037.049a29 29 0 0 0-2.556 2.556c-.015.016-.035.022-.05.038a30 30 0 0 0-.607.713c-.007.009-.008.02-.015.029a29 29 0 0 0-2.132 2.961c-.011.016-.029.025-.039.042q-.106.173-.21.348l-.022.035q-.117.19-.23.381c.012-.062.037-.12.037-.187v-.977a1 1 0 1 0-2 0v.977a1 1 0 0 0 1 1 1 1 0 0 0 .653-.256q-.634 1.14-1.166 2.339a.99.99 0 0 0-.487.838v.329a29 29 0 0 0-.914 2.721c-.002.008-.008.013-.01.02q0 .008-.001.016C.38 23.681 0 26.296 0 29s.38 5.319 1.075 7.804q0 .008.001.016.005.012.011.025.39 1.388.913 2.717v.329c0 .361.201.662.487.838q.527 1.188 1.154 2.318A1 1 0 0 0 3 42.799a1 1 0 0 0-1 1v.977a1 1 0 1 0 2 0v-.977c0-.059-.024-.11-.034-.167q.112.188.227.374l.022.036q.106.178.214.353c.016.026.039.045.057.069A29 29 0 0 0 6.6 47.397c.007.01.009.021.016.031q.298.362.607.713c.014.016.034.021.049.036a29 29 0 0 0 2.558 2.557c.015.015.021.035.038.049q.351.308.711.604c.008.007.019.009.027.015a29 29 0 0 0 2.965 2.135c.015.011.023.027.04.038q.166.103.334.202l.064.039q.182.112.367.222c-.063-.013-.121-.038-.188-.038h-.977a1 1 0 1 0 0 2h.977a1 1 0 0 0 1-1 1 1 0 0 0-.256-.653q1.14.634 2.339 1.166a.99.99 0 0 0 .838.487h.329q1.332.524 2.724.915.008.003.017.008.01.002.02.002C23.683 57.62 26.297 58 29 58s5.317-.38 7.801-1.075l.02-.002q.008-.003.017-.008A29 29 0 0 0 39.562 56h.329a.98.98 0 0 0 .838-.487 29 29 0 0 0 2.318-1.154.98.98 0 0 0-.248.641 1 1 0 0 0 1 1h.977a1 1 0 1 0 0-2h-.977c-.06 0-.112.024-.169.034q.176-.105.351-.212l.083-.05q.167-.1.333-.201c.016-.01.024-.026.039-.037a29 29 0 0 0 2.961-2.132q.015-.008.03-.017.362-.297.713-.607c.016-.014.022-.034.037-.049a29 29 0 0 0 2.559-2.56c.014-.014.033-.019.046-.034q.309-.351.607-.713c.007-.009.008-.02.015-.029a29 29 0 0 0 2.114-2.933c.018-.024.041-.043.057-.069q.107-.173.21-.348l.022-.036q.117-.19.23-.381c-.012.062-.037.119-.037.186v.977a1 1 0 1 0 2 0v-.977a1 1 0 0 0-1-1 1 1 0 0 0-.653.256q.634-1.14 1.166-2.339a.99.99 0 0 0 .487-.838v-.329q.522-1.328.913-2.717c.002-.009.009-.015.011-.025m-4.852 6.191a27.2 27.2 0 0 1-9.039 9.047l-.094.057a27 27 0 0 1-5.645 2.576l-2.789-11.156a15.62 15.62 0 0 0 9.031-9.031l11.156 2.789a27 27 0 0 1-2.591 5.671zm-37.02 9.098-.075-.045a27.2 27.2 0 0 1-9.08-9.106 27 27 0 0 1-2.588-5.665l11.156-2.789a15.62 15.62 0 0 0 9.031 9.031l-2.789 11.156a27 27 0 0 1-5.655-2.582m-9.124-37.12a27.2 27.2 0 0 1 9.039-9.047l.094-.057a27 27 0 0 1 5.645-2.576l2.789 11.156a15.62 15.62 0 0 0-9.031 9.031L3.308 20.707a27 27 0 0 1 2.591-5.671zm7.947 10.42c-.274 1.155-.435 2.353-.435 3.591s.161 2.436.435 3.591L2.766 35.368C2.269 33.325 2 31.194 2 29s.269-4.325.766-6.368zM15.44 29c0-7.477 6.083-13.56 13.56-13.56S42.56 21.523 42.56 29 36.477 42.56 29 42.56 15.44 36.477 15.44 29M42.948 5.891l.075.045a27.2 27.2 0 0 1 9.036 9.034l.053.088a27 27 0 0 1 2.578 5.648l-11.156 2.789a15.62 15.62 0 0 0-9.031-9.031l2.789-11.156a27 27 0 0 1 5.656 2.583M56 29c0 2.194-.269 4.325-.766 6.368l-11.109-2.777c.274-1.155.435-2.353.435-3.591s-.161-2.436-.435-3.591l11.109-2.777C55.731 24.675 56 26.806 56 29M35.368 2.766l-2.777 11.11c-1.155-.275-2.353-.436-3.591-.436s-2.436.161-3.591.435l-2.777-11.11C24.675 2.27 26.806 2 29 2s4.325.27 6.368.766M22.632 55.234l2.777-11.11c1.155.274 2.353.435 3.591.435s2.436-.161 3.591-.435l2.777 11.11C33.325 55.73 31.194 56 29 56s-4.325-.27-6.368-.766M3.958 5.639a1 1 0 0 0 .78-.373q.24-.299.534-.533a1 1 0 0 0-1.247-1.565c-.31.248-.595.531-.846.844a1 1 0 0 0 .779 1.627M3 10.304a1 1 0 0 0 1-1v-.978a1 1 0 1 0-2 0v.978a1 1 0 0 0 1 1M8.339 4h.977a1 1 0 1 0 0-2h-.977a1 1 0 1 0 0 2M54 8.339v.978a1 1 0 1 0 2 0v-.978a1 1 0 1 0-2 0m-.732-3.068a1 1 0 0 0 1.406.159 1 1 0 0 0 .159-1.405 5.5 5.5 0 0 0-.845-.848 1 1 0 1 0-1.252 1.56q.295.24.532.534M48.696 4h.977a1 1 0 1 0 0-2h-.977a1 1 0 1 0 0 2m4.567 48.734a3.4 3.4 0 0 1-.534.533 1 1 0 1 0 1.247 1.564q.468-.373.847-.844a1 1 0 1 0-1.56-1.253M49.661 54h-.977a1 1 0 1 0 0 2h.977a1 1 0 1 0 0-2M55 47.696a1 1 0 0 0-1 1v.978a1 1 0 1 0 2 0v-.978a1 1 0 0 0-1-1M9.304 54h-.977a1 1 0 1 0 0 2h.977a1 1 0 1 0 0-2M4 49.661v-.978a1 1 0 1 0-2 0v.978a1 1 0 1 0 2 0m.732 3.068a1 1 0 0 0-1.564 1.246q.375.47.845.848a1 1 0 0 0 1.405-.154 1 1 0 0 0-.154-1.406 3.5 3.5 0 0 1-.532-.534"></path></symbol><symbol id="info" viewBox="0 0 45.818 45.818"><path fill="#00f" d="M22.909 0C10.258 0 0 10.257 0 22.908s10.258 22.91 22.909 22.91 22.909-10.258 22.909-22.91C45.818 10.257 35.561 0 22.909 0m3.502 35.417c0 1.921-1.573 3.478-3.492 3.478s-3.492-1.557-3.492-3.478V20.201c0-1.92 1.572-3.477 3.492-3.477s3.492 1.556 3.492 3.477zm-3.502-21.566a3.837 3.837 0 1 1 0-7.674 3.837 3.837 0 0 1 0 7.674"></path></symbol><symbol id="kubernetes" viewBox="0 0 722.846 701.966"><path fill="#326ce5" d="M358.986 10.06a46.725 46.342 0 0 0-17.906 4.531L96.736 131.341a46.725 46.342 0 0 0-25.28 31.438l-60.282 262.25a46.725 46.342 0 0 0 6.344 35.531 46.725 46.342 0 0 0 2.656 3.688l169.125 210.28a46.725 46.342 0 0 0 36.531 17.438l271.219-.062a46.725 46.342 0 0 0 36.531-17.406l169.063-210.313a46.725 46.342 0 0 0 9.03-39.219L651.3 162.716a46.725 46.342 0 0 0-25.281-31.437L381.643 14.59a46.725 46.342 0 0 0-22.657-4.53"></path><path fill="#fff" stroke="#fff" stroke-width=".25" d="M361.408 99.307c-8.077.001-14.626 7.276-14.625 16.25 0 .138.028.27.03.406-.011 1.22-.07 2.689-.03 3.75.192 5.176 1.32 9.138 2 13.907 1.23 10.206 2.26 18.667 1.625 26.531-.62 2.965-2.803 5.677-4.75 7.562l-.344 6.188a190 190 0 0 0-26.438 4.062c-37.974 8.623-70.67 28.184-95.562 54.594a245 245 0 0 1-5.281-3.75c-2.612.353-5.25 1.159-8.688-.844-6.545-4.405-12.506-10.486-19.719-17.812-3.305-3.504-5.698-6.841-9.625-10.219-.891-.767-2.252-1.804-3.25-2.594-3.07-2.447-6.69-3.724-10.187-3.843-4.496-.154-8.824 1.604-11.656 5.156-5.036 6.315-3.424 15.968 3.593 21.562.071.057.147.101.219.157.964.781 2.145 1.783 3.031 2.437 4.167 3.077 7.973 4.652 12.125 7.094 8.747 5.402 15.999 9.88 21.75 15.281 2.246 2.394 2.639 6.613 2.938 8.438l4.687 4.187c-25.093 37.764-36.707 84.41-29.843 131.938l-6.125 1.781c-1.615 2.085-3.896 5.365-6.282 6.344-7.525 2.37-15.994 3.24-26.218 4.312-4.8.4-8.943.161-14.032 1.125-1.12.212-2.68.619-3.906.906l-.125.032c-.067.015-.155.048-.219.062-8.62 2.083-14.157 10.006-12.375 17.813 1.783 7.808 10.203 12.556 18.875 10.687.063-.014.154-.017.219-.031.098-.022.184-.07.281-.094 1.21-.265 2.724-.56 3.782-.843 5.003-1.34 8.626-3.308 13.125-5.032 9.676-3.47 17.691-6.37 25.5-7.5 3.26-.255 6.697 2.012 8.406 2.969l6.375-1.094c14.67 45.483 45.414 82.245 84.344 105.313l-2.657 6.375c.958 2.475 2.014 5.824 1.3 8.27-2.838 7.36-7.7 15.13-13.237 23.792-2.681 4.002-5.425 7.108-7.844 11.688-.579 1.096-1.316 2.78-1.875 3.937-3.759 8.043-1.002 17.305 6.219 20.782 7.266 3.497 16.284-.192 20.187-8.25.006-.012.026-.02.031-.032.004-.009-.004-.022 0-.03.556-1.143 1.344-2.645 1.813-3.72 2.072-4.747 2.762-8.815 4.219-13.406 3.87-9.72 5.995-19.919 11.322-26.274 1.459-1.74 3.837-2.41 6.303-3.07l3.312-6c33.938 13.027 71.927 16.523 109.875 7.907a190 190 0 0 0 25.094-7.563c.93 1.651 2.661 4.826 3.125 5.625 2.506.815 5.24 1.236 7.469 4.531 3.985 6.81 6.71 14.865 10.031 24.594 1.457 4.591 2.178 8.66 4.25 13.406.472 1.082 1.256 2.605 1.812 3.75 3.895 8.085 12.943 11.787 20.22 8.282 7.219-3.478 9.979-12.74 6.218-20.782-.559-1.158-1.327-2.841-1.906-3.937-2.42-4.58-5.163-7.655-7.844-11.656-5.537-8.662-10.13-15.858-12.969-23.22-1.187-3.796.2-6.157 1.125-8.624-.554-.635-1.739-4.22-2.437-5.906 40.457-23.889 70.298-62.022 84.312-106.063 1.893.298 5.182.88 6.25 1.094 2.2-1.45 4.222-3.344 8.188-3.031 7.808 1.129 15.823 4.03 25.5 7.5 4.498 1.723 8.121 3.723 13.125 5.062 1.057.283 2.572.547 3.781.813.097.023.183.071.281.093.066.015.156.017.219.032 8.672 1.866 17.094-2.88 18.875-10.688 1.78-7.807-3.754-15.732-12.375-17.812-1.254-.286-3.032-.77-4.25-1-5.09-.964-9.231-.727-14.031-1.125-10.225-1.072-18.694-1.943-26.219-4.313-3.068-1.19-5.251-4.841-6.313-6.344l-5.906-1.718c3.062-22.155 2.237-45.212-3.062-68.282-5.349-23.284-14.8-44.58-27.407-63.343 1.515-1.378 4.377-3.911 5.188-4.657.237-2.624.033-5.375 2.75-8.281 5.751-5.4 13.003-9.879 21.75-15.281 4.152-2.443 7.99-4.017 12.156-7.094.942-.696 2.23-1.798 3.219-2.594 7.015-5.596 8.63-15.248 3.594-21.562s-14.797-6.91-21.813-1.313c-.998.791-2.353 1.823-3.25 2.594-3.926 3.378-6.351 6.714-9.656 10.219-7.213 7.326-13.174 13.438-19.719 17.844-2.836 1.65-6.99 1.08-8.875.968l-5.562 3.969c-31.72-33.26-74.905-54.525-121.406-58.656-.13-1.949-.3-5.471-.344-6.532-1.904-1.821-4.204-3.376-4.781-7.312-.637-7.864.426-16.325 1.656-26.531.679-4.769 1.807-8.73 2-13.907.044-1.176-.027-2.884-.031-4.156-.001-8.974-6.548-16.25-14.625-16.25zm-18.313 113.438-4.344 76.718-.312.157c-.292 6.863-5.94 12.343-12.875 12.343-2.841 0-5.463-.912-7.594-2.468l-.125.062-62.906-44.594c19.333-19.01 44.063-33.06 72.562-39.53a154 154 0 0 1 15.594-2.688zm36.656 0c33.274 4.092 64.045 19.159 87.625 42.25l-62.5 44.312-.218-.093c-5.548 4.051-13.364 3.046-17.688-2.375a12.8 12.8 0 0 1-2.812-7.47l-.063-.03zM232.126 283.62l57.438 51.375-.063.312c5.185 4.507 5.95 12.328 1.625 17.75a12.9 12.9 0 0 1-6.687 4.406l-.063.25-73.625 21.25c-3.747-34.265 4.329-67.573 21.375-95.343zm258.157.03c8.534 13.833 14.996 29.283 18.843 46.032 3.801 16.548 4.755 33.067 3.188 49.031l-74-21.312-.063-.313c-6.626-1.81-10.699-8.551-9.156-15.312a12.8 12.8 0 0 1 4.094-6.844l-.031-.156zm-140.657 55.313h23.532l14.625 18.282-5.25 22.812-21.125 10.156-21.188-10.187-5.25-22.813zm75.438 62.563c1-.05 1.995.04 2.969.219l.125-.157 76.156 12.875c-11.146 31.314-32.473 58.44-60.969 76.594l-29.562-71.406.093-.125c-2.715-6.31.002-13.71 6.25-16.719 1.6-.77 3.271-1.197 4.938-1.281zm-127.906.312c5.811.082 11.024 4.116 12.375 10.032.632 2.77.324 5.513-.72 7.937l.22.281-29.25 70.688c-27.348-17.549-49.13-43.824-60.782-76.063l75.5-12.812.125.156c.845-.155 1.701-.23 2.532-.219zm63.78 30.97a12.76 12.76 0 0 1 6.032 1.28c2.56 1.233 4.537 3.174 5.781 5.5h.282l37.218 67.25a154 154 0 0 1-14.875 4.157c-28.464 6.463-56.838 4.504-82.53-4.25l37.124-67.125h.063a12.91 12.91 0 0 1 10.906-6.813z"></path></symbol><symbol id="left-arrow" viewBox="0 0 400.004 400.004"><path d="M382.688 182.686H59.116l77.209-77.214c6.764-6.76 6.764-17.726 0-24.485-6.764-6.764-17.73-6.764-24.484 0L5.073 187.757c-6.764 6.76-6.764 17.727 0 24.485l106.768 106.775a17.25 17.25 0 0 0 12.242 5.072c4.43 0 8.861-1.689 12.242-5.072 6.764-6.76 6.764-17.726 0-24.484l-77.209-77.218h323.572c9.562 0 17.316-7.753 17.316-17.315s-7.753-17.314-17.316-17.314"></path></symbol><symbol id="linkedin" viewBox="0 0 44 42"><path d="M9.989 42.057V13.68H.558v28.377zM5.274 9.807c3.288 0 5.336-2.18 5.336-4.904C10.548 2.119 8.562 0 5.336 0S0 2.12 0 4.903c0 2.723 2.047 4.904 5.212 4.904zm9.934 32.25s.124-25.714 0-28.377h9.433v4.115h-.063c1.24-1.936 3.475-4.781 8.563-4.781C39.348 13.014 44 17.07 44 25.786v16.272h-9.431V26.876c0-3.814-1.365-6.417-4.779-6.417-2.605 0-4.157 1.755-4.839 3.451-.25.604-.31 1.452-.31 2.3v15.847z" style="clip-rule:evenodd;display:inline;fill-rule:evenodd;stroke-width:.0861058"></path></symbol><symbol id="links" viewBox="0 0 54.971 54.971"><path d="M51.173 3.801c-5.068-5.068-13.315-5.066-18.384 0l-9.192 9.192a2 2 0 1 0 2.828 2.828l9.192-9.192a8.94 8.94 0 0 1 6.363-2.622c2.413 0 4.673.932 6.364 2.623s2.623 3.951 2.623 6.364a8.93 8.93 0 0 1-2.623 6.363L36.325 31.379c-3.51 3.508-9.219 3.508-12.729 0a2 2 0 1 0-2.828 2.828c2.534 2.534 5.863 3.801 9.192 3.801s6.658-1.267 9.192-3.801l12.021-12.021c2.447-2.446 3.795-5.711 3.795-9.192 0-3.482-1.348-6.746-3.795-9.193"></path><path d="m27.132 40.57-7.778 7.778a8.94 8.94 0 0 1-6.364 2.623 8.94 8.94 0 0 1-6.364-2.623c-3.509-3.509-3.509-9.219 0-12.728L17.94 24.306a8.94 8.94 0 0 1 6.364-2.622c2.412 0 4.672.932 6.363 2.622a2 2 0 1 0 2.828-2.828c-5.067-5.067-13.314-5.068-18.384 0L3.797 32.793C1.351 35.239.003 38.504.003 41.985s1.348 6.745 3.795 9.191a12.9 12.9 0 0 0 9.191 3.795c3.481 0 6.746-1.348 9.192-3.795l7.778-7.778a2 2 0 0 0-2.827-2.828"></path></symbol><symbol id="magnifier" viewBox="0 0 487.95 487.95"><path d="m481.8 453-140-140.1c27.6-33.1 44.2-75.4 44.2-121.6C386 85.9 299.5.2 193.1.2S0 86 0 191.4s86.5 191.1 192.9 191.1c45.2 0 86.8-15.5 119.8-41.4l140.5 140.5c8.2 8.2 20.4 8.2 28.6 0s8.2-20.4 0-28.6M41 191.4c0-82.8 68.2-150.1 151.9-150.1s151.9 67.3 151.9 150.1-68.2 150.1-151.9 150.1S41 274.1 41 191.4"></path></symbol><symbol id="mastodon" viewBox="0 0 41 43"><path fill="inherit" d="M41.784 9.741c-.646-4.727-4.833-8.453-9.795-9.175C31.15.444 27.979 0 20.63 0h-.055c-7.35 0-8.928.444-9.765.566-4.824.702-9.23 4.05-10.299 8.833-.514 2.356-.569 4.968-.473 7.363.136 3.436.162 6.866.48 10.287a48 48 0 0 0 1.143 6.748c1.016 4.1 5.13 7.511 9.16 8.903a24.94 24.94 0 0 0 13.4.696q.733-.168 1.45-.39c1.08-.338 2.346-.716 3.276-1.38a.1.1 0 0 0 .043-.08V38.23a.1.1 0 0 0-.038-.075.1.1 0 0 0-.084-.019 37.7 37.7 0 0 1-8.695 1c-5.04 0-6.396-2.354-6.784-3.333-.312-.847-.51-1.73-.59-2.628a.1.1 0 0 1 .036-.08.1.1 0 0 1 .087-.018c2.8.665 5.672 1 8.553 1 .693 0 1.384 0 2.077-.018 2.898-.08 5.952-.226 8.803-.774.072-.014.143-.026.204-.044 4.497-.85 8.777-3.518 9.212-10.273.016-.266.056-2.786.056-3.062.002-.938.307-6.653-.044-10.165m-6.922 16.856h-4.729V15.2c0-2.4-1.016-3.624-3.083-3.624-2.272 0-3.41 1.448-3.41 4.308v6.239h-4.7v-6.24c0-2.86-1.14-4.307-3.412-4.307-2.055 0-3.08 1.224-3.083 3.624v11.398H7.72V14.853q0-3.6 1.868-5.72C10.872 7.723 12.557 7 14.648 7c2.42 0 4.25.916 5.469 2.746l1.176 1.944 1.179-1.944C23.692 7.915 25.52 7 27.936 7c2.09 0 3.774.724 5.063 2.134q1.867 2.117 1.867 5.72z" style="stroke-width:.566932"></path></symbol><symbol id="menu-close" viewBox="0 0 21.414 21.414"><path d="m20.707.707-20 20M.707.707l20 20"></path></symbol><symbol id="menu-hamburger" viewBox="0 0 24 18"><path d="M0 9h24M0 1h24M0 17h24"></path></symbol><symbol id="notes" viewBox="0 0 59.833 59.833"><path d="m56.648 58.142-5.969-6.244a10.74 10.74 0 0 0 2.82-7.25c0-5.953-4.843-10.796-10.796-10.796s-10.796 4.843-10.796 10.796 4.843 10.796 10.796 10.796c2.441 0 4.688-.824 6.499-2.196l6.001 6.277a1 1 0 0 0 1.414.032 1 1 0 0 0 .031-1.415M33.907 44.647c0-4.85 3.946-8.796 8.796-8.796s8.796 3.946 8.796 8.796-3.946 8.796-8.796 8.796-8.796-3.946-8.796-8.796M9.74 18h13a1 1 0 1 0 0-2h-13a1 1 0 1 0 0 2m0 28a1 1 0 1 0 0 2h14.167a1 1 0 1 0 0-2zm30-23a1 1 0 0 0-1-1h-29a1 1 0 1 0 0 2h29a1 1 0 0 0 1-1m-9.833 11H9.74a1 1 0 1 0 0 2h20.167a1 1 0 1 0 0-2m-2 7a1 1 0 0 0-1-1H9.74a1 1 0 1 0 0 2h17.167a1 1 0 0 0 1-1M9.74 28a1 1 0 1 0 0 2h14a1 1 0 1 0 0-2zm30 1a1 1 0 0 0-1-1h-7a1 1 0 1 0 0 2h7a1 1 0 0 0 1-1m-12.713-.71c-.181.189-.29.449-.29.71s.109.52.3.71a.97.97 0 0 0 .7.29c.26 0 .52-.101.71-.29a1.01 1.01 0 0 0 0-1.42c-.37-.37-1.04-.37-1.42 0"></path><path d="M28.907 56h-24V8h7v2a1 1 0 0 0 1 1h23a1 1 0 0 0 1-1V8h7v20a1 1 0 1 0 2 0V7a1 1 0 0 0-1-1h-8V4a1 1 0 0 0-1-1h-6V1a1 1 0 0 0-1-1h-9a1 1 0 0 0-1 1v2h-6a1 1 0 0 0-1 1v2h-8a1 1 0 0 0-1 1v50a1 1 0 0 0 1 1h25a1 1 0 1 0 0-2m-8-54h7v4h-7zm-7 3h5v2a1 1 0 0 0 1 1h9a1 1 0 0 0 1-1V5h5v4h-21z"></path></symbol><symbol id="partners" viewBox="0 0 64 64"><path d="M48 34a1 1 0 0 0-.293-.707L47.414 33l.293-.293A1 1 0 0 0 48 32v-3.586l11.707-11.707-1.414-1.414L52 21.586 42.414 12l6.293-6.293-1.414-1.414L35.586 16H32a1 1 0 0 0-.707.293l-.293.293-.293-.293-.379-.379-3.621-3.621A1 1 0 0 0 26 12h-1.586l-7.707-7.707-1.414 1.414L17.586 8 8 17.586l-2.293-2.293-1.414 1.414L12 24.414V30c0 .265.105.52.293.707L15 33.414v3.172L4.293 47.293l1.414 1.414L11 43.414 20.586 53l-5.293 5.293 1.414 1.414L27.414 49H31c.265 0 .52-.105.707-.293l.707-.707h3.172l11.707 11.707 1.414-1.414L42.414 52 52 42.414l6.293 6.293 1.414-1.414L48 35.586zm-7-20.586L50.586 23 47 26.586 37.414 17zM35.586 18 46 28.414v3.172L32.414 18zM46 34.414v1.172L35.586 46h-3.172L27 40.586v-1.172l1.293 1.293 1.414-1.414-11.379-11.379a1.122 1.122 0 0 1 1.586-1.586l7.379 7.379 1.414-1.414-7.379-7.379a1.122 1.122 0 0 1 1.586-1.586l7.379 7.379 1.414-1.414-7.379-7.379a1.122 1.122 0 0 1 1.586-1.586l7.379 7.379 1.414-1.414-7.379-7.379a1.122 1.122 0 0 1 1.586-1.586l.379.379zm-27-25L22.586 13 13 22.586 9.414 19zm-5 15L24.414 14h1.172l1.272 1.272a3.12 3.12 0 0 0-1.847 2.739 3.113 3.113 0 0 0-3 3 3.113 3.113 0 0 0-3 3A3.12 3.12 0 0 0 16 27.121c0 .834.325 1.618.914 2.207l.672.672L16 31.586l-2-2zm8 27.172L12.414 42 16 38.414 25.586 48zM27.414 47 17 36.586v-3.172l2-2 6 6V41c0 .265.105.52.293.707L30.586 47zM41 50.586 37.414 47 47 37.414 50.586 41z"></path><path d="m44.292 42.293 2-2 1.414 1.414-2 2zm-24.999 4.414 1.414-1.414 2 2-1.415 1.414zm-3-32.414 2-2 1.414 1.414-2 2zm24 3.414 1.414-1.414 2 2-1.415 1.414z"></path></symbol><symbol id="people" viewBox="0 0 62 34.666"><defs><style>.dd22__cls-1{fill:#516baa;stroke:#566ca5;stroke-width:2px}</style></defs><g id="1961__Group_6386" transform="translate(-562 324)"><g id="492b__Group_4687" transform="translate(586.333 -319)"><path id="9138__Path_4158" d="M639.667-297.667a6.674 6.674 0 0 1-6.667-6.666 6.674 6.674 0 0 1 6.667-6.667 6.674 6.674 0 0 1 6.667 6.667 6.674 6.674 0 0 1-6.667 6.666zm0-12a5.34 5.34 0 0 0-5.333 5.333 5.34 5.34 0 0 0 5.333 5.334 5.34 5.34 0 0 0 5.333-5.333 5.34 5.34 0 0 0-5.333-5.334z" class="dd22__cls-1" transform="translate(-633 311)"></path></g><g id="deb2__Group_4688" transform="translate(580.667 -303.333)"><path id="c45d__Path_4159" d="M640-251a.667.667 0 0 1-.667-.667 11.01 11.01 0 0 0-11-11 11.01 11.01 0 0 0-11 11 .667.667 0 0 1-.667.667.667.667 0 0 1-.667-.667A12.347 12.347 0 0 1 628.333-264a12.347 12.347 0 0 1 12.333 12.333.667.667 0 0 1-.666.667z" class="dd22__cls-1" transform="translate(-616 264)"></path></g><g id="d34e__Group_4689" transform="translate(604 -323)"><path id="d2a4__Path_4160" d="M692.667-309.667a6.674 6.674 0 0 1-6.667-6.666 6.674 6.674 0 0 1 6.667-6.667 6.674 6.674 0 0 1 6.667 6.667 6.674 6.674 0 0 1-6.667 6.666zm0-12a5.34 5.34 0 0 0-5.333 5.333 5.34 5.34 0 0 0 5.333 5.334 5.34 5.34 0 0 0 5.333-5.333 5.34 5.34 0 0 0-5.333-5.334z" class="dd22__cls-1" transform="translate(-686 323)"></path></g><g id="13bf__Group_4690" transform="translate(599.539 -307.333)"><path id="e8fe__Path_4161" d="M695.411-263a.667.667 0 0 1-.667-.667 11.01 11.01 0 0 0-11-11 10.94 10.94 0 0 0-9.864 6.125.666.666 0 0 1-.893.3.667.667 0 0 1-.3-.893A12.27 12.27 0 0 1 683.745-276a12.347 12.347 0 0 1 12.333 12.333.667.667 0 0 1-.667.667z" class="dd22__cls-1" transform="translate(-672.617 276)"></path></g><g id="2355__Group_4691" transform="translate(568.667 -323)"><path id="b41f__Path_4162" d="M586.667-309.667a6.674 6.674 0 0 1-6.667-6.666 6.674 6.674 0 0 1 6.667-6.667 6.674 6.674 0 0 1 6.667 6.667 6.674 6.674 0 0 1-6.667 6.666zm0-12a5.34 5.34 0 0 0-5.333 5.333 5.34 5.34 0 0 0 5.333 5.334 5.34 5.34 0 0 0 5.333-5.333 5.34 5.34 0 0 0-5.333-5.334z" class="dd22__cls-1" transform="translate(-580 323)"></path></g><g id="2209__Group_4692" transform="translate(563 -307.333)"><path id="7f25__Path_4163" d="M563.667-263a.667.667 0 0 1-.667-.667A12.347 12.347 0 0 1 575.333-276a12.27 12.27 0 0 1 11.058 6.866.667.667 0 0 1-.3.893.666.666 0 0 1-.893-.3 10.94 10.94 0 0 0-9.864-6.125 11.01 11.01 0 0 0-11 11 .667.667 0 0 1-.667.666z" class="dd22__cls-1" transform="translate(-563 276)"></path></g></g></symbol><symbol id="person" viewBox="0 0 26.666 30.666"><defs><style>.cb34__cls-1{fill:#516baa;stroke:#566ca5;stroke-width:2px}</style></defs><g id="438b__Group_6390" transform="translate(-579.667 320)"><g id="2e93__Group_4687" transform="translate(586.333 -319)"><path id="1cb1__Path_4158" d="M639.667-297.667a6.674 6.674 0 0 1-6.667-6.666 6.674 6.674 0 0 1 6.667-6.667 6.674 6.674 0 0 1 6.667 6.667 6.674 6.674 0 0 1-6.667 6.666zm0-12a5.34 5.34 0 0 0-5.333 5.333 5.34 5.34 0 0 0 5.333 5.334 5.34 5.34 0 0 0 5.333-5.333 5.34 5.34 0 0 0-5.333-5.334z" class="cb34__cls-1" transform="translate(-633 311)"></path></g><g id="25c2__Group_4688" transform="translate(580.667 -303.333)"><path id="afd4__Path_4159" d="M640-251a.667.667 0 0 1-.667-.667 11.01 11.01 0 0 0-11-11 11.01 11.01 0 0 0-11 11 .667.667 0 0 1-.667.667.667.667 0 0 1-.667-.667A12.347 12.347 0 0 1 628.333-264a12.347 12.347 0 0 1 12.333 12.333.667.667 0 0 1-.666.667z" class="cb34__cls-1" transform="translate(-616 264)"></path></g></g></symbol><symbol id="printer" viewBox="0 0 412.605 412.605"><path d="M390.91 94.277h-64.25v-72.23c0-9.496-7.697-17.193-17.191-17.193H103.138c-9.495 0-17.192 7.697-17.192 17.193v72.23h-64.25C9.713 94.277 0 103.99 0 115.972v159.834c0 11.981 9.713 21.696 21.696 21.696h20.655c11.982 0 21.696-9.715 21.696-21.696v-30.853h21.899v145.605c0 9.496 7.697 17.193 17.192 17.193h206.331c9.494 0 17.191-7.697 17.191-17.193V244.953h21.898v30.853c0 11.981 9.713 21.696 21.697 21.696h20.654c11.982 0 21.695-9.715 21.695-21.696V115.972c.001-11.982-9.711-21.695-21.694-21.695M120.33 39.238h171.945v55.039H120.33zm171.945 334.129H120.33V244.953h171.945z"></path><path d="M160.018 287.429h92.57c5.992 0 10.848-4.856 10.848-10.849 0-5.99-4.855-10.848-10.848-10.848h-92.57c-5.991 0-10.848 4.857-10.848 10.848s4.857 10.849 10.848 10.849m92.57 31.098h-92.57c-5.991 0-10.848 4.856-10.848 10.848 0 5.99 4.857 10.849 10.848 10.849h92.57c5.992 0 10.848-4.856 10.848-10.849 0-5.991-4.856-10.848-10.848-10.848"></path></symbol><symbol id="pull" viewBox="0 0 400.004 400.004"><path d="M36 48h99c4.95 0 9 4.05 9 9v6c0 4.95-4.05 9-9 9H36c-6.6 0-12 5.4-12 12v216c0 6.6 5.4 12 12 12h99c4.95 0 9 4.05 9 9v6c0 4.95-4.05 9-9 9H36c-19.875 0-36-16.125-36-36V84c0-19.875 16.125-36 36-36m209.25 14.625-5.325 5.325a9.01 9.01 0 0 0 0 12.75l99 98.55H129c-4.95 0-9 4.05-9 9v7.5c0 4.95 4.05 9 9 9h209.925L240 303.3a9.01 9.01 0 0 0 0 12.75l5.325 5.325a9.01 9.01 0 0 0 12.75 0l123.375-123a9.01 9.01 0 0 0 0-12.75L258 62.625a9.01 9.01 0 0 0-12.75 0"></path></symbol><symbol id="right-arrow" viewBox="0 0 330 330"><path d="M15 180h263.787l-49.394 49.394c-5.858 5.857-5.858 15.355 0 21.213C232.322 253.535 236.161 255 240 255s7.678-1.465 10.606-4.394l75-75c5.858-5.857 5.858-15.355 0-21.213l-75-75c-5.857-5.857-15.355-5.857-21.213 0s-5.858 15.355 0 21.213L278.787 150H15c-8.284 0-15 6.716-15 15s6.716 15 15 15"></path></symbol><symbol id="rss" viewBox="0 0 8 8"><g fill="#fff" stroke="transparent"><rect width="8" height="8" fill="#466BB0" rx="1.5"></rect><circle cx="2" cy="6" r="1"></circle><path d="M1 4a3 3 0 0 1 3 3h1a4 4 0 0 0-4-4z"></path><path d="M1 2a5 5 0 0 1 5 5h1a6 6 0 0 0-6-6z"></path></g></symbol><symbol id="security" viewBox="0 0 56.813 71.242"><path d="M56.79 29.334V16.066c0-1.5.051-3.022 0-4.524v-.051a2.61 2.61 0 0 0-1.867-2.453Q50.517 7.51 46.1 5.982q-6.952-2.406-13.9-4.821c-1.019-.36-2.038-.76-3.082-1.07-1.095-.331-2.351.322-3.361.671l-13.31 4.609Q7.24 7.179 2.041 8.979c-.059.017-.11.042-.17.06A2.625 2.625 0 0 0 0 11.491v15.737c0 3.31-.008 6.621 0 9.931a26.2 26.2 0 0 0 1.46 8.514 38.1 38.1 0 0 0 9.74 14.628 53.6 53.6 0 0 0 14.166 9.81c.541.255 1.1.5 1.647.741a2.1 2.1 0 0 0 .721.328 3 3 0 0 0 .436.042 2.2 2.2 0 0 0 .914-.067 2.5 2.5 0 0 0 .66-.293 53 53 0 0 0 14.313-9.146 39.6 39.6 0 0 0 10.356-13.751 28.7 28.7 0 0 0 2.292-8.87c.136-1.57.085-3.158.085-4.737zm-5.248 10.628a25.7 25.7 0 0 1-1.549 5.576 32 32 0 0 1-2.965 5.348q-.456.675-.951 1.324l-.027.035c-.059.059-.1.135-.152.194-.17.212-.34.424-.518.637q-1.051 1.273-2.2 2.47a48 48 0 0 1-4.88 4.413 1.8 1.8 0 0 0-.292.232l-.608.456c-.441.323-.891.645-1.341.951-.874.6-1.774 1.18-2.682 1.732a51 51 0 0 1-4.944 2.621 51.8 51.8 0 0 1-9.69-5.821c-.085-.059-.45-.348-.093-.076s-.008-.008-.093-.076c-.221-.17-.433-.348-.645-.518q-.649-.522-1.273-1.07a47 47 0 0 1-2.428-2.266 43 43 0 0 1-2.249-2.428 37 37 0 0 1-.964-1.175 3 3 0 0 0-.216-.277c-.161-.221-.323-.433-.484-.654a32.4 32.4 0 0 1-3.467-6.066 25.7 25.7 0 0 1-1.541-5.541 38 38 0 0 1-.177-4.462V13.34L12 10.956q6.965-2.419 13.929-4.83 1.252-.431 2.5-.867l8.06 2.794q6.965 2.419 13.921 4.83l1.307.452v21.389a45 45 0 0 1-.172 5.238"></path><path d="M43.455 22.891a2.586 2.586 0 0 0-3.6 0l-5.788 5.791-9.159 9.159-.314.314-6.409-6.409-1.171-1.171a2.546 2.546 0 1 0-3.6 3.6l8.208 8.208 1.171 1.171a2.58 2.58 0 0 0 3.6 0l5.789-5.789 9.159-9.159 2.114-2.114a2.58 2.58 0 0 0 0-3.6"></path></symbol><symbol id="slack" viewBox="0 0 45.073 45.073"><defs><style>.a7ef__a{fill:#fff}</style></defs><path d="M9.489 28.467a4.744 4.744 0 1 1-4.744-4.744h4.744ZM11.861 28.467a4.745 4.745 0 0 1 9.489 0v11.861a4.745 4.745 0 1 1-9.489 0ZM16.602 9.489a4.744 4.744 0 1 1 4.744-4.745v4.745ZM16.606 11.86a4.745 4.745 0 0 1 0 9.489H4.745a4.745 4.745 0 1 1 0-9.489ZM35.584 16.605a4.744 4.744 0 1 1 4.745 4.745h-4.745ZM33.212 16.606a4.745 4.745 0 1 1-9.489 0V4.744a4.745 4.745 0 0 1 9.489 0ZM28.468 35.584a4.744 4.744 0 1 1-4.745 4.744v-4.744ZM28.468 33.208a4.745 4.745 0 1 1 0-9.489h11.861a4.745 4.745 0 0 1 0 9.489Z" class="a7ef__a"></path></symbol><symbol id="stackoverflow" viewBox="0 0 37.647 44.6"><defs><style>.4fe4__a{fill:#fff}</style></defs><path d="M31.828 40.631V28.683h3.966v15.914H0V28.683h3.966v11.948Z" class="4fe4__a"></path><path d="m8.343 27.553 19.467 4.069.824-3.914-19.467-4.069Zm2.575-9.27 18.025 8.395 1.648-3.605-18.025-8.446Zm5-8.858 15.3 12.721 2.524-3.039-15.3-12.721ZM25.806 0l-3.193 2.369 11.845 15.965 3.193-2.369ZM7.931 36.617H27.81v-3.966H7.931Z" class="4fe4__a"></path></symbol><symbol id="tick" viewBox="0 0 17.217 12.521"><defs><style>.bfb4__a{fill:none;stroke:#fff;stroke-width:3px}</style></defs><path d="m1.061 4.644 6.14 6.14M5.766 11.461l10.39-10.4" class="bfb4__a"></path></symbol><symbol id="top" viewBox="0 0 330 330"><path d="M100.606 100.606 150 51.212V315c0 8.284 6.716 15 15 15s15-6.716 15-15V51.212l49.394 49.394A14.95 14.95 0 0 0 240 105a14.95 14.95 0 0 0 10.606-4.394c5.858-5.857 5.858-15.355 0-21.213l-75-75c-5.857-5.858-15.355-5.858-21.213 0l-75 75c-5.858 5.857-5.858 15.355 0 21.213 5.858 5.857 15.356 5.857 21.213 0"></path></symbol><symbol id="twitter" viewBox="0 0 44 44"><path d="M33.445 4.125h6.07l-13.253 15.14 15.59 20.61H29.648l-9.566-12.496-10.93 12.496H3.078l14.168-16.2L2.305 4.126h12.511l8.637 11.422ZM31.316 36.25h3.36L12.984 7.563H9.375Zm0 0" style="stroke:none;fill-rule:nonzero;fill:#fff;fill-opacity:1"></path></symbol><symbol id="user" viewBox="0 0 18.131 20.851"><path d="M9.065 10.424a5.212 5.212 0 1 0-5.213-5.211 5.226 5.226 0 0 0 5.214 5.211m0-2.266a2.946 2.946 0 1 1 2.95-2.947 2.955 2.955 0 0 1-2.95 2.947M9.065 10.653A9.087 9.087 0 0 0 0 19.718a1.133 1.133 0 1 0 2.266 0 6.8 6.8 0 1 1 13.6 0A1.135 1.135 0 0 0 17 20.851a1.135 1.135 0 0 0 1.13-1.134 9.09 9.09 0 0 0-9.065-9.064" class="ce3a__cls-1"></path>&#x105;</symbol><symbol id="working-groups" viewBox="0 -45 439.833 439.833"><path d="m246.048 195.833 53.918 39.252 19.531-7.789-43.219-31.463zm-52.262 0h-30.23L120.33 227.3l19.532 7.789zm26.141-184.275c-23.854 0-37.057 12.362-36.814 36.182.348 32.623 14.211 52.414 36.814 52.068 0 0 36.802 1.492 36.802-52.068 0-23.822-12.435-36.182-36.802-36.182m65.09 113.009-36.77-14.659-8.608-7.256a5.73 5.73 0 0 0-7.741.317l-11.973 11.904-12.008-11.907a5.73 5.73 0 0 0-7.736-.313l-8.611 7.256-36.77 14.661c-11.842 4.715-11.83 46.647-12.848 50.497h155.93c-1.016-3.839-1.02-45.787-12.865-50.5M77.976 228.568s36.801 1.492 36.801-52.068c0-23.82-12.434-36.182-36.801-36.182-23.854 0-37.057 12.362-36.814 36.182.347 32.624 14.21 52.415 36.814 52.068m65.089 24.761-36.77-14.658-8.609-7.256a5.73 5.73 0 0 0-7.742.315l-11.971 11.904-12.008-11.908a5.73 5.73 0 0 0-7.736-.312l-8.611 7.256-36.77 14.66C1.006 258.045 1.018 299.977 0 303.827h155.93c-1.015-3.839-1.019-45.785-12.865-50.498m218.813-24.761s36.801 1.492 36.801-52.068c0-23.82-12.434-36.182-36.801-36.182-23.854 0-37.057 12.362-36.812 36.182.345 32.624 14.208 52.415 36.812 52.068m65.09 24.761-36.77-14.658-8.609-7.256a5.73 5.73 0 0 0-7.742.315l-11.971 11.904-12.008-11.908a5.73 5.73 0 0 0-7.736-.312l-8.61 7.256-36.771 14.66c-11.842 4.715-11.83 46.646-12.848 50.497h155.93c-1.016-3.839-1.021-45.785-12.865-50.498"></path></symbol></svg>