<svg xmlns="http://www.w3.org/2000/svg" width="88" height="32" fill="none" viewBox="0 0 88 32"><path fill="#BFD400" d="M13.8562 15.1493C11.5007 8.18789 6.17545 9.7974 3.63357 7.50626L3.52766 7.39633C3.76465 7.53994 4.01095 7.66631 4.2648 7.77452C6.7516 9.05861 11.5219 7.57223 14.0087 13.6057C14.0849 13.7933 14.1598 13.9883 14.2332 14.1906C14.4365 14.7491 15.144 13.2187 14.5128 10.9935C12.3522 3.38134 5.49338 6.95657 2.66342 5.50537C1.98859 5.13011 1.36819 4.65784 0.820557 4.10254C0.820557 4.10254 4.4385 17.5503 12.5556 17.2249C13.5681 17.1853 14.0807 15.8265 13.8519 15.1493"/><path fill="#BFD400" d="M18.1288 29.536H19.2882C19.4249 29.5514 19.558 29.4835 19.6309 29.3612C19.7039 29.2389 19.7039 29.0837 19.6309 28.9614C19.558 28.8391 19.4249 28.7712 19.2882 28.7866H18.1125C18.0841 28.7902 18.0555 28.7811 18.0338 28.7616C18.012 28.742 17.9991 28.7138 17.9982 28.6838C17.9982 28.581 17.9982 28.4354 17.9982 28.4012C17.9982 28.3669 17.9982 28.2898 17.888 28.2898L14.5161 28.4226C14.2658 28.3922 14.015 28.4747 13.8259 28.6494C13.6368 28.8241 13.5271 29.0747 13.5242 29.339V29.5103C6.64167 28.5253 1.32263 22.4485 1.32263 15.1684C1.321 13.3246 1.66498 11.4985 2.33501 9.7939C2.05334 9.25003 1.80433 8.719 1.57573 8.20511C0.537106 10.3644 -0.00267282 12.7498 9.95147e-06 15.1684C9.95147e-06 23.2065 5.89872 29.8658 13.5078 30.8636V30.9492C13.5225 31.2095 13.6354 31.4529 13.8216 31.6257C14.0077 31.7984 14.2518 31.8863 14.4998 31.8699L17.8716 31.9984C17.9018 32.0039 17.9327 31.9943 17.9551 31.9725C17.9775 31.9506 17.989 31.919 17.9859 31.8871C17.9859 31.8057 17.9859 31.6986 17.9859 31.6601C17.9859 31.6216 18.0268 31.5616 18.088 31.5616H19.2841C19.3859 31.5686 19.4862 31.5328 19.5628 31.4621C19.6394 31.3914 19.686 31.2916 19.6923 31.1848C19.6871 31.0778 19.6407 30.9777 19.5637 30.9074C19.4867 30.8371 19.3857 30.8027 19.2841 30.8122H18.1084C18.0268 30.8122 17.9859 30.7736 17.9859 30.7137C17.9859 30.4482 17.9859 29.7501 17.9859 29.6773C17.9848 29.6384 17.9991 29.6006 18.0253 29.5731C18.0516 29.5455 18.0876 29.5305 18.1247 29.5317"/><path fill="#BFD400" d="M15.5833 -7.50456e-06C11.2255 -0.0116438 7.06202 1.87429 4.10254 5.20048C4.48649 5.24604 4.87274 5.26725 5.25917 5.264H5.8945C8.53351 2.7335 11.9936 1.33155 15.5833 1.33827C22.462 1.33827 28.7665 6.25497 29.9516 13.1282L30.3589 13.0435C29.0557 5.5308 23.1055 -7.50456e-06 15.5833 -7.50456e-06Z"/><path fill="#303C42" d="M28.1247 23.4349C28.5271 23.2441 28.8802 22.9668 29.1575 22.6237C29.4346 22.2706 29.6427 21.8705 29.7713 21.4435C29.9087 20.9921 29.9772 20.5233 29.9746 20.0524C29.9767 19.5249 29.9211 18.9987 29.8087 18.4828C29.7112 18.0173 29.527 17.5732 29.2653 17.1728C29.0114 16.7931 28.6651 16.4809 28.2574 16.2643C27.7682 16.0234 27.2245 15.9076 26.6772 15.9277C25.7336 15.8944 24.8366 16.3292 24.2923 17.0836C24.0232 17.4493 23.8288 17.8625 23.7199 18.3003C23.605 18.7623 23.5479 19.2362 23.5498 19.7117C23.5501 20.1953 23.6001 20.6777 23.6992 21.1515C23.7917 21.607 23.9673 22.0425 24.2176 22.4372C24.462 22.8167 24.7927 23.136 25.184 23.37C25.638 23.627 26.157 23.7536 26.6813 23.735C27.1811 23.7457 27.6762 23.6386 28.1247 23.4227V23.4349ZM33.4213 27.8841C33.2647 28.6083 32.9285 29.2837 32.4424 29.8511C31.8359 30.5169 31.0809 31.0373 30.2359 31.372C29.0035 31.8322 27.6884 32.0433 26.3702 31.9925C25.6591 31.9901 24.9507 31.9071 24.2591 31.7451C23.5683 31.5911 22.9064 31.3325 22.2973 30.9786C21.715 30.6376 21.2143 30.1784 20.829 29.6321C20.4264 29.0516 20.1953 28.3738 20.1612 27.6732H24.0019C24.1226 28.2822 24.5108 28.8087 25.0637 29.113C25.6291 29.3917 26.2557 29.5309 26.8887 29.5185C27.9782 29.5185 28.7717 29.2076 29.2695 28.5857C29.7869 27.8978 30.0382 27.0529 29.9787 26.2009V24.4529H29.9248C29.5191 25.1505 28.8934 25.7012 28.1413 26.0225C27.3761 26.3596 26.5459 26.5325 25.7066 26.5294C24.7702 26.5519 23.8405 26.369 22.9858 25.9941C22.2507 25.6625 21.6067 25.1648 21.1069 24.5421C20.6042 23.9023 20.2389 23.1698 20.0326 22.3885C19.8019 21.5377 19.6876 20.6608 19.6925 19.7807C19.6965 18.9291 19.8364 18.0835 20.1073 17.2742C20.3468 16.5 20.7323 15.7765 21.2438 15.1409C21.7563 14.5226 22.4021 14.0227 23.1351 13.6767C23.9469 13.2999 24.8372 13.1125 25.7357 13.1292C26.574 13.1138 27.405 13.2844 28.1662 13.6281C28.9965 14.024 29.7006 14.634 30.2027 15.3923C30.1477 14.8335 30.3625 14.2816 30.7833 13.8998C31.5175 13.3482 32.1479 13.9525 33.6411 13.4942V26.0671C33.6307 26.6885 33.5528 27.3071 33.4088 27.9125"/><path fill="#303C42" d="M39.4372 14.0606C39.9336 14.7752 39.8569 16.2868 39.8569 16.2868C40.1625 15.7699 40.5335 15.2874 40.9624 14.8492C41.2945 14.4914 41.684 14.1812 42.1176 13.9291C42.5493 13.6755 43.0168 13.4765 43.5075 13.3377C44.0058 13.1974 44.5246 13.1268 45.0462 13.1282C45.3522 13.1346 45.6558 13.1789 45.9487 13.2596V16.7304C45.7501 16.6975 45.4974 16.6646 45.2402 16.64C44.9749 16.6151 44.7083 16.6028 44.4415 16.603C43.7707 16.5851 43.1037 16.7015 42.4876 16.9439C41.9818 17.1545 41.5402 17.4746 41.2016 17.8763C40.8676 18.2876 40.6309 18.7576 40.5067 19.2564C40.3631 19.8178 40.2934 20.3928 40.2991 20.9692V27.0769H36.1025V13.4814C37.2261 13.9825 38.8732 13.2473 39.4327 14.0606"/><path fill="#303C42" d="M53.4136 16.7786C52.8504 16.2322 52.0895 15.9564 51.3184 16.0192C50.7926 16.0005 50.2698 16.108 49.7912 16.3331C49.4179 16.5167 49.0868 16.7799 48.8197 17.1053C48.5873 17.3939 48.4124 17.7269 48.3051 18.0853C48.2171 18.3867 48.1591 18.6966 48.1322 19.0101H54.3933C54.2826 18.1897 53.9503 17.4179 53.4342 16.7828L53.4136 16.7786ZM49.0749 24.169C50.3791 25.191 52.1551 25.2935 53.5618 24.4278C54.0312 24.1501 54.3932 23.7141 54.5868 23.1932H57.9664C57.4175 24.8902 56.5943 26.0951 55.4965 26.8078C54.2733 27.5614 52.8663 27.9383 51.4419 27.8939C50.4279 27.9083 49.4201 27.7285 48.4698 27.3636C47.6244 27.0361 46.8587 26.522 46.2263 25.8575C45.6027 25.1867 45.1194 24.391 44.8062 23.5199C44.4664 22.5694 44.2976 21.563 44.3081 20.5502C44.2994 19.547 44.474 18.551 44.8226 17.6144C45.146 16.7358 45.6421 15.9356 46.2799 15.264C46.9235 14.593 47.6903 14.0609 48.5357 13.6986C49.4577 13.3104 50.446 13.117 51.4419 13.1301C52.5163 13.1042 53.5814 13.3412 54.5498 13.8216C55.4052 14.2612 56.1504 14.8986 56.7274 15.684C57.3042 16.4788 57.7238 17.3826 57.9623 18.3441C58.2162 19.3629 58.3066 20.4176 58.2299 21.4665H48.1281C48.1816 22.7138 48.4986 23.6217 49.0749 24.1817"/><path fill="#303C42" d="M72.798 16.4323C72.6526 15.7901 72.3538 15.1873 71.9244 14.6691C71.4877 14.165 70.9185 13.7763 70.2731 13.5415C69.4156 13.2438 68.5048 13.1045 67.5909 13.1315C66.7173 13.1329 65.8549 13.3163 65.066 13.6686C64.2221 14.0023 63.4739 14.5178 62.8818 15.1734C62.8063 15.2173 62.7469 15.2816 62.7114 15.358C62.7251 14.9005 62.5827 14.4508 62.3052 14.0745C61.7591 13.2545 60.169 13.9925 59.0769 13.4964V27.0687H63.1876V19.9627C63.1876 18.5795 63.4366 17.5858 63.9346 16.9817C64.4326 16.3776 65.2349 16.0755 66.3415 16.0755C67.3172 16.0755 67.9957 16.3489 68.3772 16.8956C68.7587 17.4423 68.9495 18.2788 68.9495 19.405V27.0769H73.0252V18.7285C73.0321 17.957 72.9501 17.1871 72.7806 16.4323"/><path fill="#303C42" d="M82.9689 16.7913C82.4047 16.2455 81.6424 15.97 80.8699 16.0328C80.3432 16.0141 79.8194 16.1215 79.34 16.3464C78.9661 16.5298 78.6344 16.7927 78.3667 17.1176C78.1327 17.4051 77.9574 17.738 77.8513 18.0965C77.7589 18.3967 77.6995 18.7066 77.6739 19.0203H83.9257C83.815 18.2007 83.482 17.4297 82.9648 16.7956L82.9689 16.7913ZM78.6224 24.1732C79.9289 25.1941 81.7082 25.2964 83.1174 24.4317C83.5876 24.1544 83.9503 23.7189 84.1442 23.1986H87.5423C86.9924 24.8936 86.1676 26.0971 85.068 26.809C83.8425 27.5618 82.433 27.9382 81.006 27.8939C79.9901 27.9084 78.9805 27.7288 78.0286 27.3642C77.1817 27.0369 76.4147 26.5235 75.7811 25.8598C75.1514 25.1897 74.6629 24.3934 74.346 23.5207C74.0057 22.5712 73.8366 21.566 73.847 20.5543C73.8308 19.5476 74.0001 18.5469 74.346 17.6049C74.672 16.7274 75.1704 15.9283 75.81 15.2573C76.451 14.5894 77.215 14.0593 78.0574 13.6979C78.9812 13.3105 79.9712 13.1174 80.9689 13.13C82.0452 13.1047 83.1121 13.3414 84.0824 13.8207C84.9376 14.2607 85.6827 14.8972 86.2597 15.6811C86.839 16.474 87.2595 17.3771 87.4969 18.338C87.7526 19.3554 87.8446 20.409 87.7691 21.4569H77.6781C77.733 22.7028 78.0492 23.6068 78.6265 24.169"/><path fill="#303C42" d="M16.1525 14.6687C16.1525 14.6687 19.2457 8.0752 20.3515 7.28772C21.9492 6.15545 23.4171 7.1515 25.4359 6.56409C25.2234 6.89611 18.2185 19.2063 18.2185 19.2063V27.0769H13.9487V19.0914L16.1525 14.6687Z"/></svg>