<?xml version="1.0" encoding="UTF-8"?>
<!DOCTYPE svg PUBLIC "-//W3C//DTD SVG 1.1//EN" "http://www.w3.org/Graphics/SVG/1.1/DTD/svg11.dtd">
<svg xmlns="http://www.w3.org/2000/svg" version="1.1" width="2847px" height="1046px" style="shape-rendering:geometricPrecision; text-rendering:geometricPrecision; image-rendering:optimizeQuality; fill-rule:evenodd; clip-rule:evenodd" xmlns:xlink="http://www.w3.org/1999/xlink">
<g><path style="opacity:0.998" fill="#1563ff" d="M 451.5,-0.5 C 458.5,-0.5 465.5,-0.5 472.5,-0.5C 482.584,1.47581 492.251,4.97581 501.5,10C 628.833,83.3333 756.167,156.667 883.5,230C 905.936,242.351 919.436,261.185 924,286.5C 924.667,443.833 924.667,601.167 924,758.5C 920.111,781.14 908.611,798.64 889.5,811C 756.663,887.586 623.663,963.919 490.5,1040C 483.548,1042.55 476.548,1044.38 469.5,1045.5C 464.5,1045.5 459.5,1045.5 454.5,1045.5C 442.151,1043.66 430.485,1039.49 419.5,1033C 291.5,959.333 163.5,885.667 35.5,812C 16.1693,799.507 4.16931,782.007 -0.5,759.5C -0.5,601.833 -0.5,444.167 -0.5,286.5C 4.09777,264.382 15.7644,246.882 34.5,234C 167.167,157.667 299.833,81.3333 432.5,5C 438.828,2.6729 445.162,0.839566 451.5,-0.5 Z"/></g>
<g><path style="opacity:1" fill="#dbe7ff" d="M 656.5,634.5 C 656.5,634.167 656.5,633.833 656.5,633.5C 656.667,566.833 656.5,500.166 656,433.5C 652.681,418.684 645.181,406.517 633.5,397C 577.008,364.009 520.508,331.176 464,298.5C 463.5,363.166 463.333,427.832 463.5,492.5C 462.501,427.669 462.168,362.669 462.5,297.5C 462.5,237.833 462.5,178.167 462.5,118.5C 465.495,103.176 474.828,94.843 490.5,93.5C 494.273,93.8598 497.939,94.6932 501.5,96C 608.663,157.414 715.663,219.081 822.5,281C 837.546,290.589 847.046,304.089 851,321.5C 851.667,449.167 851.667,576.833 851,704.5C 844.779,721.862 832.613,728.695 814.5,725C 761.643,695.074 708.976,664.908 656.5,634.5 Z"/></g>
<g><path style="opacity:1" fill="#4784ff" d="M 462.5,118.5 C 462.5,178.167 462.5,237.833 462.5,297.5C 461.508,297.672 460.842,297.338 460.5,296.5C 461.167,237.167 461.833,177.833 462.5,118.5 Z"/></g>
<g><path style="opacity:1" fill="#95b8ff" d="M 460.5,296.5 C 460.842,297.338 461.508,297.672 462.5,297.5C 462.168,362.669 462.501,427.669 463.5,492.5C 464.61,509.888 471.944,524.054 485.5,535C 542.228,568.362 599.228,601.196 656.5,633.5C 656.5,633.833 656.5,634.167 656.5,634.5C 656.667,695.168 656.5,755.834 656,816.5C 649.788,834.691 637.288,841.525 618.5,837C 566.612,806.939 514.612,777.106 462.5,747.5C 462.5,747.167 462.5,746.833 462.5,746.5C 462.667,682.832 462.5,619.166 462,555.5C 461.298,536.93 453.798,521.764 439.5,510C 382.585,476.96 325.751,443.793 269,410.5C 268.5,476.166 268.333,541.832 268.5,607.5C 267.501,541.669 267.168,475.669 267.5,409.5C 267.333,349.166 267.5,288.832 268,228.5C 273.957,210.934 286.124,203.767 304.5,207C 356.69,236.592 408.69,266.426 460.5,296.5 Z"/></g>
<g><path style="opacity:0.979" fill="#242341" d="M 1360.5,244.5 C 1397.22,241.897 1428.05,253.897 1453,280.5C 1464.53,295.579 1471.7,312.579 1474.5,331.5C 1459.18,332.666 1443.84,332.833 1428.5,332C 1420.78,301.869 1401.28,286.369 1370,285.5C 1337.9,287.598 1316.9,303.932 1307,334.5C 1297.84,366.577 1300.51,397.577 1315,427.5C 1332.24,452.852 1356.08,462.352 1386.5,456C 1408.93,449.899 1422.93,435.566 1428.5,413C 1441.17,412.333 1453.83,412.333 1466.5,413C 1469.23,413.182 1471.89,413.682 1474.5,414.5C 1467.15,453.012 1445.15,479.178 1408.5,493C 1370.39,504.741 1334.73,499.741 1301.5,478C 1275,456.175 1260.17,428.008 1257,393.5C 1252.88,360.992 1257.88,329.992 1272,300.5C 1291.93,266.782 1321.43,248.115 1360.5,244.5 Z"/></g>
<g><path style="opacity:0.98" fill="#232341" d="M 1606.5,244.5 C 1678.6,245.424 1719.1,281.758 1728,353.5C 1731.07,382.237 1727.07,409.904 1716,436.5C 1695.25,477.729 1661.59,498.729 1615,499.5C 1561.08,497.543 1525.41,471.21 1508,420.5C 1497.95,382.937 1499.62,345.937 1513,309.5C 1531.68,269.906 1562.85,248.239 1606.5,244.5 Z M 1610.5,285.5 C 1645.38,285.559 1667.88,302.226 1678,335.5C 1684,359.833 1684,384.167 1678,408.5C 1665.01,446.751 1638.51,462.584 1598.5,456C 1577.68,449.845 1563.18,436.678 1555,416.5C 1547.02,392.65 1545.36,368.316 1550,343.5C 1555.19,315.664 1571.02,297.164 1597.5,288C 1601.99,287.24 1606.32,286.406 1610.5,285.5 Z"/></g>
<g><path style="opacity:0.981" fill="#242341" d="M 2537.5,244.5 C 2608.24,245.073 2648.74,280.406 2659,350.5C 2663.54,385.145 2657.54,417.812 2641,448.5C 2618.58,482.217 2586.91,499.217 2546,499.5C 2491.72,497.539 2456.06,470.872 2439,419.5C 2427.23,376.889 2431.23,335.889 2451,296.5C 2471.29,264.938 2500.13,247.605 2537.5,244.5 Z M 2541.5,285.5 C 2579.27,285.977 2602.44,304.644 2611,341.5C 2616.19,365.429 2615.19,389.095 2608,412.5C 2595,446.091 2570.5,460.924 2534.5,457C 2505.96,450.125 2488.46,432.292 2482,403.5C 2474.81,372.898 2478.14,343.565 2492,315.5C 2503.81,297.68 2520.31,287.68 2541.5,285.5 Z"/></g>
<g><path style="opacity:0.976" fill="#232342" d="M 1763.5,248.5 C 1777.52,248.167 1791.52,248.501 1805.5,249.5C 1844,305.167 1882.5,360.833 1921,416.5C 1921.5,360.501 1921.67,304.501 1921.5,248.5C 1936.83,248.5 1952.17,248.5 1967.5,248.5C 1967.5,330.833 1967.5,413.167 1967.5,495.5C 1953.48,495.833 1939.48,495.499 1925.5,494.5C 1887,438.833 1848.5,383.167 1810,327.5C 1809.5,383.499 1809.33,439.499 1809.5,495.5C 1794.17,495.5 1778.83,495.5 1763.5,495.5C 1763.5,413.167 1763.5,330.833 1763.5,248.5 Z"/></g>
<g><path style="opacity:0.991" fill="#232342" d="M 1997.5,248.5 C 2063.17,248.5 2128.83,248.5 2194.5,248.5C 2194.5,261.167 2194.5,273.833 2194.5,286.5C 2169.17,286.5 2143.83,286.5 2118.5,286.5C 2118.5,356.167 2118.5,425.833 2118.5,495.5C 2103.5,495.5 2088.5,495.5 2073.5,495.5C 2073.5,425.833 2073.5,356.167 2073.5,286.5C 2048.17,286.5 2022.83,286.5 1997.5,286.5C 1997.5,273.833 1997.5,261.167 1997.5,248.5 Z"/></g>
<g><path style="opacity:0.981" fill="#242442" d="M 2224.5,248.5 C 2261.17,248.333 2297.83,248.5 2334.5,249C 2380.43,255.095 2404.1,281.262 2405.5,327.5C 2405.87,360.629 2391.2,384.129 2361.5,398C 2379.17,430.333 2396.83,462.667 2414.5,495C 2397.5,495.667 2380.5,495.667 2363.5,495C 2347.63,465.42 2331.63,435.92 2315.5,406.5C 2300.51,405.501 2285.51,405.167 2270.5,405.5C 2270.5,435.5 2270.5,465.5 2270.5,495.5C 2255.17,495.5 2239.83,495.5 2224.5,495.5C 2224.5,413.167 2224.5,330.833 2224.5,248.5 Z M 2270.5,286.5 C 2287.5,286.333 2304.5,286.5 2321.5,287C 2345.31,289.81 2357.65,303.143 2358.5,327C 2357.95,352.886 2344.61,366.219 2318.5,367C 2302.5,367.5 2286.5,367.667 2270.5,367.5C 2270.5,340.5 2270.5,313.5 2270.5,286.5 Z"/></g>
<g><path style="opacity:0.979" fill="#242442" d="M 2846.5,457.5 C 2846.5,470.167 2846.5,482.833 2846.5,495.5C 2795.17,495.5 2743.83,495.5 2692.5,495.5C 2692.5,413.167 2692.5,330.833 2692.5,248.5C 2707.83,248.5 2723.17,248.5 2738.5,248.5C 2738.5,318.167 2738.5,387.833 2738.5,457.5C 2774.5,457.5 2810.5,457.5 2846.5,457.5 Z"/></g>
<g><path style="opacity:1" fill="#eef4ff" d="M 656.5,633.5 C 599.228,601.196 542.228,568.362 485.5,535C 471.944,524.054 464.61,509.888 463.5,492.5C 463.333,427.832 463.5,363.166 464,298.5C 520.508,331.176 577.008,364.009 633.5,397C 645.181,406.517 652.681,418.684 656,433.5C 656.5,500.166 656.667,566.833 656.5,633.5 Z"/></g>
<g><path style="opacity:1" fill="#4f89ff" d="M 267.5,409.5 C 267.168,475.669 267.501,541.669 268.5,607.5C 270.615,624.239 278.282,637.739 291.5,648C 348.228,681.362 405.228,714.196 462.5,746.5C 462.5,746.833 462.5,747.167 462.5,747.5C 462.667,807.168 462.5,866.834 462,926.5C 458.8,941.702 449.467,949.702 434,950.5C 428.006,950.836 422.506,949.336 417.5,946C 310.336,884.253 203.336,822.253 96.5,760C 83.942,749.718 76.442,736.551 74,720.5C 73.3333,593.5 73.3333,466.5 74,339.5C 81.4223,321.039 94.589,314.872 113.5,321C 164.979,350.328 216.313,379.828 267.5,409.5 Z"/></g>
<g><path style="opacity:1" fill="#afc9ff" d="M 462.5,746.5 C 405.228,714.196 348.228,681.362 291.5,648C 278.282,637.739 270.615,624.239 268.5,607.5C 268.333,541.832 268.5,476.166 269,410.5C 325.751,443.793 382.585,476.96 439.5,510C 453.798,521.764 461.298,536.93 462,555.5C 462.5,619.166 462.667,682.832 462.5,746.5 Z"/></g>
<g><path style="opacity:0.986" fill="#232342" d="M 1262.5,548.5 C 1294.5,548.333 1326.5,548.5 1358.5,549C 1411.61,550.776 1439.61,578.11 1442.5,631C 1440.18,681.992 1413.51,709.326 1362.5,713C 1344.17,713.5 1325.84,713.667 1307.5,713.5C 1307.5,741.167 1307.5,768.833 1307.5,796.5C 1292.5,796.5 1277.5,796.5 1262.5,796.5C 1262.5,713.833 1262.5,631.167 1262.5,548.5 Z M 1307.5,587.5 C 1324.5,587.333 1341.5,587.5 1358.5,588C 1383.03,591.863 1395.36,606.197 1395.5,631C 1395.59,657.245 1382.59,671.911 1356.5,675C 1340.17,675.5 1323.84,675.667 1307.5,675.5C 1307.5,646.167 1307.5,616.833 1307.5,587.5 Z"/></g>
<g><path style="opacity:0.977" fill="#242442" d="M 1473.5,548.5 C 1488.83,548.5 1504.17,548.5 1519.5,548.5C 1519.5,618.5 1519.5,688.5 1519.5,758.5C 1555.5,758.5 1591.5,758.5 1627.5,758.5C 1627.5,771.167 1627.5,783.833 1627.5,796.5C 1576.17,796.5 1524.83,796.5 1473.5,796.5C 1473.5,713.833 1473.5,631.167 1473.5,548.5 Z"/></g>
<g><path style="opacity:0.981" fill="#242441" d="M 1738.5,548.5 C 1757.41,548.174 1776.24,548.507 1795,549.5C 1824.42,631.667 1853.26,714.001 1881.5,796.5C 1865.5,796.667 1849.5,796.5 1833.5,796C 1826.3,776.075 1819.3,756.075 1812.5,736C 1781.84,735.5 1751.17,735.333 1720.5,735.5C 1714.33,755.832 1707.67,775.999 1700.5,796C 1684.5,796.5 1668.5,796.667 1652.5,796.5C 1680.96,713.776 1709.63,631.109 1738.5,548.5 Z M 1766.5,600.5 C 1777.91,632.881 1789.24,665.381 1800.5,698C 1778.17,698.667 1755.83,698.667 1733.5,698C 1744.6,665.525 1755.6,633.025 1766.5,600.5 Z"/></g>
<g><path style="opacity:0.976" fill="#232342" d="M 1906.5,548.5 C 1920.17,548.333 1933.84,548.5 1947.5,549C 1986.46,605.08 2025.29,661.246 2064,717.5C 2064.5,661.168 2064.67,604.834 2064.5,548.5C 2079.83,548.5 2095.17,548.5 2110.5,548.5C 2110.5,631.167 2110.5,713.833 2110.5,796.5C 2096.83,796.667 2083.16,796.5 2069.5,796C 2030.79,740.079 1991.96,684.246 1953,628.5C 1952.5,684.499 1952.33,740.499 1952.5,796.5C 1937.17,796.5 1921.83,796.5 1906.5,796.5C 1906.5,713.833 1906.5,631.167 1906.5,548.5 Z"/></g>
<g><path style="opacity:0.988" fill="#242442" d="M 2151.5,548.5 C 2205.17,548.5 2258.83,548.5 2312.5,548.5C 2312.5,561.5 2312.5,574.5 2312.5,587.5C 2273.83,587.5 2235.17,587.5 2196.5,587.5C 2196.5,609.5 2196.5,631.5 2196.5,653.5C 2232.5,653.5 2268.5,653.5 2304.5,653.5C 2304.5,666.167 2304.5,678.833 2304.5,691.5C 2268.5,691.5 2232.5,691.5 2196.5,691.5C 2196.5,713.833 2196.5,736.167 2196.5,758.5C 2235.5,758.5 2274.5,758.5 2313.5,758.5C 2313.5,771.167 2313.5,783.833 2313.5,796.5C 2259.5,796.5 2205.5,796.5 2151.5,796.5C 2151.5,713.833 2151.5,631.167 2151.5,548.5 Z"/></g>
</svg>
