<svg xmlns="http://www.w3.org/2000/svg" xml:space="preserve" width="395.4" height="155.9"><path fill="#0068B5" stroke="null" d="M30.75 19.909h22.1v23.1h-22.1z" class="st0"/><g stroke="null"><path d="M53.542 144.967V55.784H30.1v89.183h23.442zm155.806.881v-21.855c-3.437 0-6.345-.176-8.46-.529-2.467-.352-4.318-1.233-5.552-2.467s-2.027-2.996-2.467-5.288c-.353-2.203-.53-5.111-.53-8.636V75.876h17.01V55.784h-17.01v-34.81H168.81v86.275c0 7.315.617 13.483 1.85 18.418 1.235 4.847 3.35 8.813 6.258 11.81s6.786 5.11 11.456 6.433c4.759 1.321 10.752 1.938 17.89 1.938h3.084zm134.657-.88V14.1h-23.53v130.867h23.53zm-197.843-80.46c-6.521-7.05-15.687-10.575-27.32-10.575-5.64 0-10.75 1.146-15.421 3.437-4.583 2.291-8.548 5.464-11.633 9.517l-1.322 1.675V55.784H67.29v89.183h23.354v-47.5 3.26-1.585c.264-8.372 2.29-14.541 6.168-18.507 4.142-4.23 9.165-6.345 14.894-6.345 6.785 0 11.985 2.115 15.422 6.169 3.348 4.054 5.111 9.782 5.111 17.096v47.324h23.706V94.295c.088-12.69-3.26-22.737-9.782-29.787zm162.152 35.691c0-6.433-1.146-12.426-3.35-18.066-2.29-5.552-5.463-10.487-9.429-14.717-4.053-4.23-8.9-7.49-14.54-9.87s-11.897-3.525-18.683-3.525c-6.433 0-12.514 1.234-18.154 3.613-5.64 2.468-10.575 5.728-14.717 9.87s-7.49 9.077-9.87 14.717c-2.468 5.64-3.613 11.721-3.613 18.154 0 6.434 1.145 12.514 3.437 18.154 2.29 5.64 5.552 10.575 9.605 14.717 4.054 4.142 9.077 7.491 14.894 9.87 5.816 2.468 12.25 3.702 19.123 3.702 19.916 0 32.254-9.077 39.657-17.537l-16.92-12.867c-3.526 4.23-11.986 9.958-22.56 9.958-6.61 0-12.074-1.498-16.216-4.582-4.142-2.996-6.962-7.226-8.46-12.426l-.264-.793h70.06v-8.372zm-69.884-8.196c0-6.521 7.49-17.89 23.618-17.977 16.127 0 23.705 11.368 23.705 17.89l-47.323.087zM370.795 133.334a8.329 8.329 0 0 0-1.85-2.731c-.794-.794-1.675-1.41-2.733-1.851s-2.203-.705-3.348-.705c-1.234 0-2.292.264-3.35.705a8.329 8.329 0 0 0-2.731 1.85 8.329 8.329 0 0 0-1.85 2.732c-.441 1.058-.706 2.204-.706 3.35 0 1.233.265 2.29.705 3.348s1.058 1.939 1.85 2.732c.794.793 1.675 1.41 2.733 1.85s2.203.706 3.349.706c1.233 0 2.29-.265 3.348-.705a8.329 8.329 0 0 0 2.732-1.851 8.329 8.329 0 0 0 1.851-2.732c.44-1.057.705-2.203.705-3.349s-.264-2.291-.705-3.349zm-1.41 6.17a6.892 6.892 0 0 1-1.498 2.29c-.617.617-1.41 1.146-2.291 1.499s-1.763.528-2.82.528c-.97 0-1.94-.176-2.82-.528-.882-.353-1.675-.882-2.292-1.498s-1.145-1.41-1.498-2.292c-.352-.881-.529-1.762-.529-2.82 0-.97.177-1.939.53-2.82s.88-1.674 1.497-2.291c.617-.617 1.41-1.146 2.291-1.498s1.763-.529 2.82-.529c.97 0 1.94.176 2.82.529.882.352 1.675.881 2.292 1.498s1.145 1.41 1.498 2.291c.352.881.529 1.763.529 2.82.088 1.058-.177 1.939-.529 2.82zm-4.935-2.116c.705-.088 1.234-.352 1.674-.793s.705-1.057.705-1.939c0-.97-.264-1.674-.88-2.203-.53-.529-1.5-.793-2.645-.793h-3.877v9.958h1.85v-4.054h1.322l2.468 4.054h1.939l-2.556-4.23zm-.97-1.41h-2.203v-2.82h2.204c.264 0 .528.088.793.176.264.089.44.265.528.441s.177.44.177.793-.088.617-.177.793c-.176.177-.352.353-.528.441-.265.088-.53.176-.793.176z"/></g></svg>