<?xml version="1.0"?><svg version="1.2" baseProfile="tiny-ps" viewBox="0 0 300 300" xmlns="http://www.w3.org/2000/svg" xmlns:xlink="http://www.w3.org/1999/xlink"><title>Changejar Technologies Pvt Ltd</title><g><g fill="#fefeff" transform="matrix(.1 0 0 -.1 0 300)"><path d="M0 1500V0h3000v3000H0V1500z"/></g><g fill="#b2aec9" transform="matrix(.1 0 0 -.1 0 300)"><path d="M0 1500V0h3000v3000H0V1500zm1368 1053l31-48 12-48 12-48-5-72-5-72-26-51-25-50-41-37c-22-20-57-45-78-55l-38-19-102-11-102-10-48-22c-58-26-108-71-135-125l-21-40-9-190-10-190 7-308 6-309 20-53 20-53 48-45 49-46 55-16 55-16 484 3 483 3 47 23 48 24 40 45 40 46 17 56 16 56v900l-16 56-17 56-39 45-40 45-63 28-63 29-111 4-110 4-42-21-42-21-16-26c-9-13-23-50-30-82l-14-57v-192c0-106 2-193 5-193s28 16 56 35l51 35h74l21-15 22-16 11-39 11-39-14-33-14-33-69-65c-101-95-196-176-221-189-12-6-33-11-46-11h-24l-39 26c-21 15-94 76-161 136l-121 109-11 29-10 29 10 35 10 35 26 21 26 20h84l44-35 44-35 6 98c4 53 7 142 8 197l1 100 15 68c8 38 25 93 39 123l25 53 47 51 47 51 62 29 63 30 75 10 75 11 85-11c95-12 173-36 248-77l50-27 59-63 59-62 29-63c16-35 36-88 43-118l14-55V855l-14-60c-7-33-26-87-41-120l-27-60-41-46c-51-58-120-103-198-129l-59-21-130-11-130-10-395 5-395 5-58 16c-31 9-81 28-109 42l-52 26-57 57-57 57-30 60c-16 32-35 84-43 114l-14 55v980l14 55c7 30 27 84 45 120l31 65 55 56 55 56 54 31 55 31 60 15c34 8 83 18 110 21l49 7 24 24 25 25-5 42c-3 23-8 54-12 68l-7 25 84 72 83 71h21l22 1 30-47z"/></g><g fill="#5586ff" transform="matrix(.1 0 0 -.1 0 300)"><path d="M0 1500V0h3000v3000H0V1500zm1348 1087c11-12 33-49 49-82l28-60-1-80v-80l-26-57-26-56-42-40c-22-23-61-50-85-62l-44-22-91-8-90-8-49-17-48-16-40-34-40-34-24-53-24-53V835l28-57 28-57 32-27c18-15 52-37 77-48l45-21h990l45 21c25 11 59 33 77 48l32 27 28 57 28 57v980l-29 59-29 58-44 32c-24 17-66 39-91 49l-47 19-90 5-90 5-42-11-41-11-31-35-30-34-12-38-11-38-5-214-5-214 13 9c8 4 36 23 63 41l48 33h56l31-26 30-25 7-35 6-34-6-25-6-24-78-74c-82-78-146-136-200-180l-34-27h-73l-26 18c-52 33-277 237-294 265l-17 29 5 35 6 36 22 23c12 13 36 28 54 34l32 11 29-11c16-6 43-22 61-36 17-13 34-24 36-24s7 93 11 208l7 207 21 78 21 79 39 58 39 59 49 36c27 20 75 46 107 58l58 21h120l120 1 75-24c41-12 100-37 130-54l55-31 55-56 55-55 33-67 33-67 14-68 14-68 6-255 6-255-10-225-10-225-15-54c-8-29-27-78-43-108l-27-55-52-52-52-52-55-27c-31-15-82-34-114-42l-58-16-250-11-249-10-266 10-265 11-65 20c-83 26-129 55-197 122l-54 54-35 70-34 70-11 80-11 80-1 420v420l12 80 11 80 35 72 34 73 48 51c85 92 201 151 323 165l62 7 29 24 29 25v29c0 17-7 43-15 60l-16 29 8 14c11 20 176 155 189 156 6 0 20-10 32-23z"/></g><g fill="#8b58ff" transform="matrix(.1 0 0 -.1 0 300)"><path d="M0 1500V0h3000v3000H0V1500zm1348 1087c11-12 33-49 49-82l28-60-1-80v-80l-26-57-26-56-42-40c-22-23-61-50-85-62l-44-22-91-8-90-8-49-17-48-16-40-34-40-34-24-53-24-53V835l28-57 28-57 32-27c18-15 52-37 77-48l45-21h990l45 21c25 11 59 33 77 48l32 27 28 57 28 57v980l-29 58-28 58-45 33c-25 18-69 41-97 52l-51 19h-223l-29-21c-32-24-75-83-70-97 1-5 25-17 53-27 28-9 73-30 100-46l49-28 61-62 62-62 31-64c40-81 61-158 61-226v-53l-102 3-103 3-75-71c-81-77-146-134-198-177l-34-27h-34c-20 0-44 5-55 11-21 11-165 134-252 216l-48 46-100-2-99-2v53c0 68 21 145 61 227l32 65 66 66 66 65 75 37c41 20 92 40 112 43l37 7 20 67 20 67 39 54 40 55 46 33c26 19 72 43 104 55l57 21h120l120 1 75-24c41-12 100-37 130-54l55-31 55-56 55-55 33-67 33-67 14-68 14-68 6-255 6-255-10-225-10-225-15-54c-8-29-27-78-43-108l-27-55-52-52-52-52-55-27c-31-15-82-34-114-42l-58-16-250-11-249-10-266 10-265 11-65 20c-83 26-129 55-197 122l-54 54-35 70-34 70-11 80-11 80-1 420v420l12 80 11 80 35 72 34 73 48 51c85 92 201 151 323 165l62 7 29 24 29 25v29c0 17-7 43-15 60l-16 29 8 14c11 20 176 155 189 156 6 0 20-10 32-23z"/></g><g fill="#635994" transform="matrix(.1 0 0 -.1 0 300)"><path d="M0 1500V0h3000v3000H0V1500zm1348 1087c11-12 33-49 49-82l28-60-1-80v-80l-26-57-26-56-42-40c-22-23-61-50-85-62l-44-22-91-8-90-8-49-17-48-16-40-34-40-34-24-53-24-53V835l28-57 28-57 32-27c18-15 52-37 77-48l45-21h990l45 21c25 11 59 33 77 48l32 27 28 57 28 57v980l-29 58-28 58-45 33c-25 18-69 41-97 52l-51 19h-223l-29-21c-32-24-75-83-70-97 1-5 25-17 53-27 28-9 73-30 100-46l49-28 61-62 62-62 31-64c18-35 38-88 46-118l15-55v-171l-15-59c-9-32-30-86-48-119l-31-61-66-66-65-66-61-31c-33-17-87-38-120-48l-59-18h-170l-59 18c-33 10-87 31-120 48l-61 31-65 66-66 66-31 61c-18 33-39 87-48 119l-15 59v171l15 55c8 30 29 83 46 119l32 65 66 66 66 65 75 37c41 20 92 40 112 43l37 7 20 67 20 67 39 54 40 55 46 33c26 19 72 43 104 55l57 21h120l120 1 75-24c41-12 100-37 130-54l55-31 55-56 55-55 33-67 33-67 14-68 14-68 6-255 6-255-10-225-10-225-15-54c-8-29-27-78-43-108l-27-55-52-52-52-52-55-27c-31-15-82-34-114-42l-58-16-250-11-249-10-266 10-265 11-65 20c-83 26-129 55-197 122l-54 54-35 70-34 70-11 80-11 80-1 420v420l12 80 11 80 35 72 34 73 48 51c85 92 201 151 323 165l62 7 29 24 29 25v29c0 17-7 43-15 60l-16 29 8 14c11 20 176 155 189 156 6 0 20-10 32-23z"/></g><g fill="#251753" transform="matrix(.1 0 0 -.1 0 300)"><path d="M0 1500V0h3000v3000H0V1500zm1351 1088c12-13 33-48 48-78l26-55v-180l-28-57-28-56-39-36c-21-19-58-45-82-57l-43-22-92-9-93-8-54-20-53-20-37-36c-20-19-43-49-52-66l-16-31-9-96-8-96v-330c0-181 3-373 8-425l7-95 19-39c23-47 74-98 123-122l37-18 253-8 252-8 263 8 262 8 40 21c54 29 99 78 127 138l23 50v940l-14 48-14 47-39 45-39 44-52 25-52 26-75 11-75 12-57-7-57-7-33-22-33-22-17-35-18-34 60-22c32-13 83-38 112-57l53-34 55-59c30-33 67-83 83-111l27-52 20-77 20-77v-114l-20-77-20-77-32-61-33-62-61-61-61-61-70-37-70-37-64-15-64-15h-130l-64 15-64 15-70 37-70 37-61 61-61 61-33 62-32 61-20 77-20 77v114l20 77 20 77 27 52 28 51 59 63 58 63 57 34c31 19 86 44 122 56l66 22 13 41c19 66 58 135 100 181l39 42 52 28c28 16 74 35 103 42l51 14h182l75-19 76-20 63-32 63-31 62-62 62-62 31-62c17-34 38-90 47-124l16-63 5-340 5-340-11-160-10-160-15-46c-8-25-26-70-41-99l-27-53-52-53-53-52-49-25c-27-14-74-32-104-41l-55-17-145-9c-181-12-566-12-770 0l-155 9-57 20c-162 57-282 194-319 366l-13 60v940l13 60c7 33 28 92 47 131l33 71 55 56c89 90 185 138 317 156l74 10 23 26 22 26v22c0 12-7 35-15 51-8 15-15 34-15 42v13l92 76c51 41 98 75 105 75s22-10 34-22z"/></g></g></svg>