<?xml version="1.0" encoding="UTF-8"?>

<svg width="465" height="108" viewBox="0 0 465 108" xmlns="http://www.w3.org/2000/svg">
    <g id="Group">
        <path id="Path" fill="#000717" stroke="none" d="M 196 50.299988 C 179.600006 50.299988 169.100006 63.799988 169.100006 79.200012 C 169.100006 96.600006 181.600006 108 198.100006 108 C 202.399994 108.100006 206.600006 107.200012 210.5 105.5 C 214.399994 103.799988 217.899994 101.299988 220.799988 98.100006 L 212.399994 89.700012 C 210.600006 91.600006 208.5 93.200012 206.100006 94.299988 C 203.700012 95.399994 201.100006 96 198.5 96.100006 C 194.799988 96.200012 191.200012 94.899994 188.399994 92.5 C 185.600006 90.100006 183.899994 86.600006 183.5 82.899994 L 221.899994 82.899994 C 222.100006 81.5 222.200012 80.100006 222.200012 78.700012 C 222.200012 63.200012 211.299988 50.299988 196 50.299988 Z M 184.100006 72.100006 C 184.600006 69.399994 186.100006 66.899994 188.299988 65.100006 C 190.5 63.299988 193.200012 62.399994 196 62.399994 C 198.700012 62.399994 201.299988 63.399994 203.299988 65.200012 C 205.299988 67 206.600006 69.5 206.899994 72.100006 L 184.100006 72.100006 Z"/>
        <path id="path1" fill="#000717" stroke="none" d="M 245.100006 36.100006 L 230.299988 36.100006 L 230.299988 83.600006 C 230.299988 91.5 231.600006 96.399994 234.399994 100.200012 C 238.200012 105.200012 244.700012 108.200012 253.600006 108.200012 C 256.700012 108.200012 259.799988 107.799988 262.899994 107.100006 L 260.600006 94.5 C 258.600006 94.899994 256.600006 95.100006 254.600006 95.100006 C 250.899994 95.100006 248.299988 93.799988 247.100006 92.299988 C 245.799988 90.799988 245.299988 88.799988 245.299988 85.299988 L 245.299988 64 L 263.600006 64 L 263.600006 51.399994 L 245.299988 51.399994 L 245.299988 36.100006 Z"/>
        <path id="path2" fill="#000717" stroke="none" d="M 145.899994 36.100006 L 131 36.100006 L 131 83.600006 C 131 91.5 132.300003 96.399994 135.100006 100.200012 C 138.899994 105.200012 145.399994 108.200012 154.300003 108.200012 C 157.399994 108.200012 160.5 107.799988 163.5 107.100006 L 161.199997 94.5 C 159.199997 94.899994 157.199997 95.100006 155.100006 95.100006 C 151.399994 95.100006 148.800003 93.799988 147.600006 92.299988 C 146.300003 90.799988 145.800003 88.799988 145.800003 85.299988 L 145.800003 64 L 164.100006 64 L 164.100006 51.399994 L 145.800003 51.399994 L 145.800003 36.100006 Z"/>
        <path id="path3" fill="#000717" stroke="none" d="M 287.600006 57.100006 L 287.600006 51.5 L 273.299988 51.5 L 273.299988 106.899994 L 288.100006 106.899994 L 288.100006 72 C 289.5 69.700012 291.5 67.700012 293.799988 66.299988 C 296.200012 64.899994 298.799988 64.100006 301.5 64 C 303.299988 64 305.100006 64.100006 306.899994 64.600006 L 308.600006 50.799988 C 307 50.5 305.299988 50.399994 303.700012 50.399994 C 297 50.299988 290.899994 53 287.600006 57.100006 Z"/>
        <path id="path4" fill="#000717" stroke="none" d="M 353.399994 55.899994 C 348.799988 52.200012 343.100006 50.200012 337.200012 50.299988 C 322.100006 50.299988 310 62.899994 310 79.200012 C 310 86.299988 312.5 93.200012 317.100006 98.600006 C 319.700012 101.5 322.899994 103.899994 326.5 105.5 C 330.100006 107.100006 334 107.899994 338 107.899994 C 343.700012 108 349.100006 106 353.399994 102.299988 L 353.399994 106.799988 L 367.700012 106.799988 L 367.700012 51.399994 L 353.399994 51.399994 L 353.399994 55.899994 Z M 352.799988 87.5 C 351.299988 89.600006 349.299988 91.399994 347 92.600006 C 344.700012 93.799988 342.100006 94.399994 339.5 94.399994 C 337.5 94.399994 335.600006 94 333.799988 93.299988 C 332 92.5 330.299988 91.399994 329 90 C 327.600006 88.600006 326.600006 86.899994 325.899994 85.100006 C 325.200012 83.299988 324.899994 81.299988 325 79.299988 C 325 71.299988 330.600006 64.100006 339.299988 64.100006 C 342 64.100006 344.600006 64.700012 347 65.899994 C 349.399994 67.100006 351.399994 68.799988 353 71 L 353 87.5 Z"/>
        <path id="path5" fill="#000717" stroke="none" d="M 392.100006 36.100006 L 377.299988 36.100006 L 377.299988 83.600006 C 377.299988 91.5 378.600006 96.399994 381.399994 100.200012 C 385.200012 105.200012 391.700012 108.200012 400.600006 108.200012 C 403.700012 108.200012 406.799988 107.799988 409.799988 107.100006 L 407.5 94.5 C 405.5 94.899994 403.5 95.100006 401.399994 95.100006 C 397.700012 95.100006 395.100006 93.799988 393.899994 92.299988 C 392.600006 90.799988 392.100006 88.799988 392.100006 85.299988 L 392.100006 64 L 410.399994 64 L 410.399994 51.399994 L 392.100006 51.399994 L 392.100006 36.100006 Z"/>
        <path id="path6" fill="#000717" stroke="none" d="M 465.400024 78.600006 C 465.400024 63.200012 454.5 50.299988 439.200012 50.299988 C 422.799988 50.299988 412.299988 63.799988 412.299988 79.200012 C 412.299988 96.600006 424.799988 108 441.299988 108 C 445.599976 108.100006 449.799988 107.200012 453.700012 105.5 C 457.599976 103.799988 461.099976 101.299988 464 98.100006 L 455.599976 89.700012 C 453.799988 91.600006 451.700012 93.200012 449.299988 94.299988 C 446.900024 95.399994 444.299988 96 441.700012 96.100006 C 438 96.200012 434.399994 94.899994 431.600006 92.5 C 428.799988 90.100006 427.100006 86.600006 426.700012 82.899994 L 465 82.899994 C 465.200012 81.399994 465.400024 80 465.400024 78.600006 Z M 427.299988 72.100006 C 427.799988 69.399994 429.299988 66.899994 431.5 65.100006 C 433.700012 63.299988 436.399994 62.399994 439.200012 62.399994 C 441.899994 62.399994 444.5 63.399994 446.5 65.200012 C 448.5 67 449.799988 69.5 450.099976 72.100006 L 427.299988 72.100006 Z"/>
    </g>
    <g id="g1">
        <path id="path7" fill="#ff5500" stroke="none" d="M 64.800003 56 C 71.5 47.200012 65.100006 34.5 54.199997 34.5 C 43.300003 34.399994 36.800003 47.200012 43.599998 56 C 47.199997 60.299988 49.199997 65.700012 49.199997 71.299988 L 49.199997 71.299988 C 49.199997 77 47.199997 82.399994 43.599998 86.600006 C 36.900002 95.399994 43.300003 108.100006 54.199997 108.100006 C 65.100006 108.200012 71.600006 95.399994 64.800003 86.600006 C 61.199997 82.299988 59.199997 76.899994 59.199997 71.299988 L 59.199997 71.299988 C 59.199997 65.600006 61.199997 60.200012 64.800003 56 Z"/>
        <path id="path8" fill="#ff5500" stroke="none" d="M 93.100006 23.5 C 87.600006 24.5 81.899994 23.600006 77 20.700012 L 77 20.700012 C 72.100006 17.899994 68.399994 13.399994 66.5 8.200012 C 62.100006 -2.700012 46.199997 -2.700012 41.800003 8.200012 C 39.900002 13.5 36.300003 17.899994 31.300003 20.700012 L 31.300003 20.700012 C 26.400002 23.5 20.699997 24.5 15.199997 23.5 C 4.400002 22.100006 -3.5 34 2 43.5 C 7.400002 53.100006 21.800003 52.100006 25.900002 42 C 35.900002 16.399994 72.5 16.399994 82.399994 42 C 86.600006 52.100006 100.899994 53.100006 106.300003 43.5 C 111.899994 34 104 22.100006 93.100006 23.5 Z"/>
    </g>
</svg>
