<svg version="1.1" id="Layer_1" xmlns="http://www.w3.org/2000/svg" x="0" y="0" viewBox="0 0 852.14 238.4" style="enable-background:new 0 0 852.14 238.4" xml:space="preserve"><style>.st0{fill:#010202}</style><path class="st0" d="M424.23.78v13.71H393.3v82.69h-16.02V14.49H346.5V.78h77.73zM469.74 26.85c7.78 0 13.8 2.2 18.06 6.58 4.25 4.39 6.38 10.07 6.38 17.04v46.71h-14.93V55.09c0-4.98-1.22-8.8-3.67-11.47-2.44-2.67-5.93-4.01-10.45-4.01-4.44 0-8.1 1.49-11 4.48-2.9 2.99-4.34 6.79-4.34 11.41v41.68h-14.93V.78h14.93v35.03c4.52-5.98 11.17-8.96 19.95-8.96zM540.44 26.85c10.23 0 18.55 3.35 24.98 10.05 6.43 6.7 9.64 15.43 9.64 26.2 0 10.68-3.21 19.37-9.64 26.07-6.43 6.7-14.75 10.05-24.98 10.05s-18.58-3.35-25.05-10.05c-6.47-6.7-9.71-15.39-9.71-26.07 0-10.77 3.21-19.5 9.64-26.2 6.42-6.7 14.8-10.05 25.12-10.05zm0 12.62c-5.97 0-10.73 2.15-14.26 6.45-3.53 4.3-5.29 10.03-5.29 17.18 0 7.06 1.76 12.74 5.29 17.04 3.53 4.3 8.28 6.45 14.26 6.45 5.88 0 10.59-2.15 14.12-6.45 3.53-4.3 5.3-9.98 5.3-17.04 0-7.15-1.77-12.87-5.3-17.18-3.53-4.3-8.24-6.45-14.12-6.45zM629.86 29.02h14.94v68.16h-13.71v-7.74c-3.98 6.52-10.73 9.78-20.23 9.78-8.24 0-14.35-1.99-18.33-5.97-3.98-3.98-5.97-9.28-5.97-15.88V29.02h14.94v44.26c0 4.16 1.06 7.38 3.19 9.64 2.13 2.26 5.27 3.39 9.44 3.39 4.71 0 8.51-1.38 11.4-4.14 2.9-2.76 4.34-6.72 4.34-11.88V29.02zM708.47 29.02h13.85V94.6c0 9.14-2.97 16.25-8.89 21.32-5.93 5.07-13.74 7.6-23.42 7.6-11.22 0-21.81-3.31-31.77-9.91l7.33-10.86c4.98 2.99 9.25 5.14 12.83 6.45 3.57 1.31 7.4 1.97 11.47 1.97 5.34 0 9.64-1.45 12.9-4.34 3.26-2.9 4.89-7.38 4.89-13.44v-7.2c-4.62 6.52-11.54 9.78-20.77 9.78-8.69 0-15.84-3.21-21.45-9.64-5.61-6.43-8.42-14.75-8.42-24.98 0-10.14 2.8-18.42 8.42-24.85 5.61-6.43 12.76-9.64 21.45-9.64 9.78 0 16.97 3.62 21.59 10.86v-8.7zM690 83.33c5.34 0 9.68-2.04 13.03-6.11 3.35-4.07 5.02-9.37 5.02-15.89 0-6.43-1.68-11.65-5.02-15.68-3.35-4.03-7.69-6.04-13.03-6.04-5.52 0-9.89 1.99-13.1 5.97-3.21 3.98-4.82 9.23-4.82 15.75 0 6.61 1.61 11.93 4.82 15.95 3.21 4.03 7.58 6.05 13.1 6.05zM772.7 26.85c7.78 0 13.8 2.2 18.06 6.58 4.25 4.39 6.38 10.07 6.38 17.04v46.71H782.2V55.09c0-4.98-1.22-8.8-3.67-11.47-2.44-2.67-5.93-4.01-10.45-4.01-4.44 0-8.1 1.49-11 4.48-2.9 2.99-4.34 6.79-4.34 11.41v41.68H737.8V.78h14.93v35.03c4.53-5.98 11.19-8.96 19.97-8.96zM849.47 84.28l1.9 11.81c-5.07 1.72-9.96 2.58-14.66 2.58-6.61 0-11.36-1.51-14.26-4.55-2.9-3.03-4.34-7.62-4.34-13.78V40.29h-12.36V29.02h12.36v-22h14.93v22h17.24v11.27h-17.24v38.29c0 2.63.59 4.48 1.77 5.57 1.18 1.09 3.03 1.63 5.57 1.63 2.44-.01 5.47-.5 9.09-1.5zM400.21 213.44l22-74.4h26.61v96.4h-15.75v-48.61c0-.18.14-12.08.41-35.71l-26.34 84.31h-13.98l-26.88-84.04c.18 7.79.27 19.64.27 35.57v48.47h-15.34v-96.4l25.86-.03 23.14 74.44zM493.27 165.11c9.23 0 16.34 2.15 21.32 6.45 4.98 4.3 7.47 10.07 7.47 17.31v46.57h-13.44v-7.74c-4.62 6.61-12.13 9.91-22.54 9.91-7.06 0-12.9-1.58-17.51-4.75-4.62-3.17-6.92-8.01-6.92-14.53 0-7.15 2.69-12.47 8.08-15.95 5.38-3.48 12.87-6.13 22.47-7.94l15.61-2.85v-2.44c0-3.71-1.27-6.59-3.8-8.62-2.54-2.04-5.97-3.05-10.32-3.05-4.26 0-7.94.86-11.07 2.58-3.12 1.72-6.72 4.62-10.79 8.69l-9.37-8.69c8.32-9.97 18.59-14.95 30.81-14.95zm-5.02 60.55c5.52 0 10.16-1.47 13.92-4.41 3.75-2.94 5.63-7.13 5.63-12.56v-6.25l-11.81 2.44c-6.79 1.45-11.77 3.03-14.93 4.75-3.17 1.72-4.75 4.34-4.75 7.87 0 2.53 1.06 4.53 3.19 5.97 2.12 1.47 5.04 2.19 8.75 2.19zM586.69 187.24c-3.62-3.71-6.84-6.22-9.64-7.54-2.81-1.31-5.79-1.97-8.96-1.97-6.07 0-10.75 2.29-14.05 6.86-3.31 4.57-4.96 10.16-4.96 16.77 0 6.61 1.65 12.15 4.96 16.63 3.3 4.48 7.99 6.72 14.05 6.72 3.53 0 6.72-.79 9.57-2.38 2.85-1.58 6.13-4.41 9.84-8.49l9.78 8.28c-4.53 5.7-9.05 9.69-13.58 11.95-4.53 2.26-9.78 3.39-15.75 3.39-10.23 0-18.46-3.26-24.71-9.78s-9.37-15.3-9.37-26.34 3.17-19.84 9.5-26.41c6.33-6.56 14.62-9.84 24.85-9.84 5.7 0 10.73.97 15.07 2.92 4.35 1.95 8.64 5.32 12.9 10.11l-9.5 9.12zM641.19 165.11c7.78 0 13.8 2.2 18.06 6.58 4.25 4.39 6.38 10.07 6.38 17.04v46.71H650.7v-42.09c0-4.98-1.22-8.8-3.67-11.47-2.44-2.67-5.93-4.01-10.45-4.01-4.44 0-8.1 1.49-11 4.48-2.9 2.99-4.34 6.79-4.34 11.41v41.68h-14.93v-96.4h14.93v35.03c4.51-5.97 11.17-8.96 19.95-8.96zM746.22 165.11c7.78 0 13.8 2.2 18.06 6.58 4.25 4.39 6.38 10.07 6.38 17.04v46.71h-14.93v-42.09c0-4.98-1.22-8.8-3.67-11.47-2.44-2.67-5.93-4.01-10.45-4.01-4.44 0-8.1 1.49-11 4.48-2.9 2.99-4.34 6.79-4.34 11.41v41.68h-14.93v-68.16h13.85v8.15c4.69-6.88 11.71-10.32 21.03-10.32zM838.88 214.67l8.55 9.1c-4.89 4.98-9.69 8.51-14.39 10.59-4.71 2.08-9.96 3.12-15.75 3.12-10.68 0-19.17-3.24-25.46-9.71-6.29-6.47-9.44-15.14-9.44-26s3.03-19.69 9.1-26.48c6.06-6.79 14.21-10.18 24.44-10.18 10.05 0 17.79 2.99 23.22 8.96 5.43 5.97 8.15 14.17 8.15 24.57 0 2.26-.09 4.3-.27 6.11h-49.96c.54 5.97 2.53 10.82 5.97 14.53 3.44 3.71 8.28 5.57 14.53 5.57 4.07 0 7.56-.72 10.45-2.17 2.89-1.45 6.52-4.12 10.86-8.01zm-23.35-37.75c-4.89 0-8.87 1.49-11.95 4.48s-5.11 7.15-6.11 12.49h35.16c-.27-5.25-1.88-9.39-4.82-12.42-2.94-3.03-7.03-4.55-12.28-4.55zM679.21 147.87c0-5.02 4.07-9.1 9.23-9.1s9.23 4.07 9.23 9.1c0 5.02-4.07 9.1-9.23 9.1-5.16-.01-9.23-4.08-9.23-9.1zm16.7 87.57h-14.93v-68.16h14.93v68.16z"/><g><path class="st0" d="M124.48 198.39h37.06v-37.05h37.05v-37.06h-74.11z"/><path class="st0" d="M235.64 161.34h-37.05v37.05h-37.05v37.05h74.1z"/></g><g><circle class="st0" cx="28.77" cy="152.09" r="27.79"/><circle class="st0" cx="84.34" cy="152.09" r="27.79"/><circle class="st0" cx="84.34" cy="207.67" r="27.79"/><circle class="st0" cx="28.77" cy="207.67" r="27.79"/></g><path class="st0" d="M56.56.79C25.87.79.98 25.67.98 56.37s24.88 55.58 55.58 55.58 55.58-24.88 55.58-55.58S87.25.79 56.56.79zm0 86.29c-16.96 0-30.71-13.75-30.71-30.71S39.6 25.66 56.56 25.66s30.71 13.75 30.71 30.71-13.75 30.71-30.71 30.71z"/><g><path transform="rotate(90 143.01 19.32)" class="st0" d="M124.48.79h37.05v37.05h-37.05z"/><path transform="rotate(90 180.061 56.372)" class="st0" d="M161.54 37.85h37.05V74.9h-37.05z"/><path transform="rotate(90 217.113 19.32)" class="st0" d="M198.59.79h37.05v37.05h-37.05z"/><path transform="rotate(90 143.01 93.423)" class="st0" d="M124.48 74.9h37.05v37.05h-37.05z"/><path transform="rotate(90 217.113 93.423)" class="st0" d="M198.59 74.9h37.05v37.05h-37.05z"/></g></svg>