<svg xmlns="http://www.w3.org/2000/svg" xmlns:xlink="http://www.w3.org/1999/xlink" width="197.829" height="37.618" viewBox="0 0 197.829 37.618">
  <defs>
    <style>
      .cls-1 {
        fill: none;
      }

      .cls-2 {
        clip-path: url(#clip-path);
      }

      .cls-3 {
        fill: #002838;
      }

      .cls-4 {
        fill: #0ecad4;
      }
    </style>
    <clipPath id="clip-path">
      <rect class="cls-1" width="197.829" height="37.618"/>
    </clipPath>
  </defs>
  <g id="WPE-LOGO-H-Default" class="cls-2">
    <path id="registered" class="cls-3" d="M262.3,15.313a2.213,2.213,0,1,1,2.213,2.213A2.173,2.173,0,0,1,262.3,15.313Zm4.057,0a1.844,1.844,0,1,0-1.844,1.844A1.782,1.782,0,0,0,266.357,15.313Zm-2.582,1.254c-.074,0-.074,0-.074-.074V14.206c0-.074,0-.074.074-.074h.885a.719.719,0,0,1,.811.738.631.631,0,0,1-.516.664l.516.959c.074.074,0,.148-.074.148h-.221c-.074,0-.074-.074-.148-.074l-.516-.959H264v.885a.072.072,0,0,1-.074.074h-.148ZM265.1,14.8c0-.221-.148-.369-.443-.369h-.59v.738h.59C264.955,15.165,265.1,15.018,265.1,14.8Z" transform="translate(-68.897 -3.437)"/>
    <path id="logotext" class="cls-3" d="M80.533,29.285c-.221,0-.3-.074-.369-.3l-3.024-10.7h-.074l-3.024,10.7c-.074.221-.148.3-.369.3H70.132c-.221,0-.3-.074-.369-.3L64.6,10.4c0-.148,0-.3.221-.3h4.647a.337.337,0,0,1,.369.3L72.271,21.54h.074L75.3,10.4c.074-.221.148-.3.369-.3h2.877c.221,0,.3.074.369.3l3.1,11.138h.074L84.442,10.4a.337.337,0,0,1,.369-.3h4.647c.148,0,.221.148.221.3L84.516,28.99c-.074.221-.148.3-.369.3H80.533Zm12.835,0a.317.317,0,0,1-.3-.3V10.4a.317.317,0,0,1,.3-.3h7.671c4.647,0,7.081,2.655,7.081,6.344s-2.434,6.417-7.081,6.417h-2.8c-.148,0-.148.074-.148.148v5.9a.317.317,0,0,1-.3.3H93.367Zm9.81-12.761c0-1.328-.885-2.139-2.434-2.139H98.235c-.148,0-.148.074-.148.148v3.983c0,.148.074.148.148.148h2.508A2.143,2.143,0,0,0,103.177,16.525Zm11.507,8.04a14.155,14.155,0,0,1-.516-4.795,16.788,16.788,0,0,1,.516-4.795,6.686,6.686,0,0,1,12.687,0,12.993,12.993,0,0,1,.516,4.5c0,.221-.148.369-.443.369H115.422c-.148,0-.221.148-.221.3a13.321,13.321,0,0,0,.443,4.057,5.314,5.314,0,0,0,5.532,3.909,6.615,6.615,0,0,0,5.458-2.582.316.316,0,0,1,.516-.074l.221.221a.316.316,0,0,1,.074.516,7.377,7.377,0,0,1-6.2,3.024,6.323,6.323,0,0,1-6.565-4.647Zm11.949-5.753a.2.2,0,0,0,.221-.221,9.969,9.969,0,0,0-.443-3.172,5.22,5.22,0,0,0-5.311-3.909,5.144,5.144,0,0,0-5.311,3.909,9.658,9.658,0,0,0-.443,3.172.2.2,0,0,0,.221.221ZM145,28.843a.348.348,0,0,1-.369-.369V17.7c0-4.278-1.77-6.122-5.237-6.122a5.322,5.322,0,0,0-5.532,5.606V28.548a.348.348,0,0,1-.369.369h-.369a.348.348,0,0,1-.369-.369V11.288a.348.348,0,0,1,.369-.369h.369a.348.348,0,0,1,.369.369V13.8h.074a5.734,5.734,0,0,1,5.532-3.319c4.057,0,6.344,2.287,6.344,6.934V28.474a.348.348,0,0,1-.369.369Zm6.2,4.647c-.148-.221-.148-.443.074-.516l.3-.221c.221-.148.369-.074.516.148a5.715,5.715,0,0,0,4.795,2.139c3.393,0,5.606-1.7,5.606-6.122V25.892h-.074c-.885,1.992-2.434,3.393-5.606,3.393a5.924,5.924,0,0,1-5.975-4.278,15.738,15.738,0,0,1-.59-5.09,18.12,18.12,0,0,1,.59-5.09A5.924,5.924,0,0,1,156.8,10.55c3.172,0,4.721,1.4,5.606,3.393h.074V11.361a.348.348,0,0,1,.369-.369h.369a.348.348,0,0,1,.369.369V28.99c0,4.942-2.655,7.155-6.786,7.155A6.939,6.939,0,0,1,151.2,33.49Zm10.769-8.925a14.8,14.8,0,0,0,.516-4.721,15.1,15.1,0,0,0-.516-4.721,4.886,4.886,0,0,0-5.016-3.614,4.783,4.783,0,0,0-4.942,3.541,15.336,15.336,0,0,0-.59,4.721,15.336,15.336,0,0,0,.59,4.721,4.839,4.839,0,0,0,4.942,3.541A4.567,4.567,0,0,0,161.965,24.565Zm7.819-19.252a.348.348,0,0,1-.369-.369V3.469a.348.348,0,0,1,.369-.369h.885a.348.348,0,0,1,.369.369V5.018a.348.348,0,0,1-.369.369h-.885Zm.3,23.53a.348.348,0,0,1-.369-.369V11.288a.348.348,0,0,1,.369-.369h.369a.348.348,0,0,1,.369.369V28.474a.348.348,0,0,1-.369.369Zm19.1,0a.348.348,0,0,1-.369-.369V17.7c0-4.278-1.77-6.122-5.237-6.122a5.322,5.322,0,0,0-5.532,5.606V28.548a.348.348,0,0,1-.369.369h-.369a.348.348,0,0,1-.369-.369V11.288a.348.348,0,0,1,.369-.369h.369a.348.348,0,0,1,.369.369V13.8h.074a5.734,5.734,0,0,1,5.532-3.319c4.057,0,6.344,2.287,6.344,6.934V28.474a.348.348,0,0,1-.369.369Zm5.827-4.278a14.155,14.155,0,0,1-.516-4.795,16.789,16.789,0,0,1,.516-4.795,6.686,6.686,0,0,1,12.687,0,12.993,12.993,0,0,1,.516,4.5c0,.221-.148.369-.443.369H195.748c-.148,0-.221.148-.221.3a13.321,13.321,0,0,0,.443,4.057,5.314,5.314,0,0,0,5.532,3.909,6.615,6.615,0,0,0,5.458-2.582.316.316,0,0,1,.516-.074l.221.221a.316.316,0,0,1,.074.516,7.377,7.377,0,0,1-6.2,3.024c-3.319,0-5.606-1.549-6.565-4.647Zm11.876-5.753a.2.2,0,0,0,.221-.221,9.969,9.969,0,0,0-.443-3.172,5.22,5.22,0,0,0-5.311-3.909,5.144,5.144,0,0,0-5.311,3.909,9.658,9.658,0,0,0-.443,3.172.2.2,0,0,0,.221.221Z" transform="translate(-17.024 -0.813)"/>
    <path id="logomark" class="cls-4" d="M12.861,37.618h12.1V28.472l-2.95-2.95h-6.27l-2.877,2.95ZM28.5,12.761l-2.877,2.877v6.344L28.5,24.858h9.22v-12.1ZM24.958,0h-12.1V9.22L15.737,12.1h6.27l2.95-2.877ZM37.718,37.618V28.472l-2.877-2.95h-9.22v12.1ZM2.977,0,.1,2.877V12.1H12.2V0ZM25.622,0V9.22L28.5,12.1h9.22V0ZM18.909,20.58a1.7,1.7,0,1,1,1.7-1.7A1.716,1.716,0,0,1,18.909,20.58ZM12.2,12.761H.1v12.1H9.246l2.95-2.877Zm0,15.711-2.95-2.95H.1v12.1H9.246l2.95-2.877Z" transform="translate(-0.1)"/>
  </g>
</svg>
