<svg version="1.1" xmlns="http://www.w3.org/2000/svg" viewBox="0 0 1940 1447.6" width="3880" height="2895.2">
  <!-- svg-source:excalidraw -->
  
  <defs>
    <style class="style-fonts">
      @font-face {
        font-family: "Virgil";
        src: url("https://excalidraw.com/Virgil.woff2");
      }
      @font-face {
        font-family: "Cascadia";
        src: url("https://excalidraw.com/Cascadia.woff2");
      }
      @font-face {
        font-family: "Assistant";
        src: url("https://app.excalidraw.com//dist/excalidraw-assets/Assistant-Regular.woff2");
      }
    </style>
    
  </defs>
  <rect x="0" y="0" width="1940" height="1447.6" fill="#ffffff"></rect><g stroke-linecap="round" transform="translate(10 70) rotate(0 960 590)"><path d="M32 0 C666.65 -5.61, 1301.05 -5.78, 1888 0 M32 0 C405.69 -2.54, 778.99 -2.11, 1888 0 M1888 0 C1910.1 1.58, 1920.42 10.51, 1920 32 M1888 0 C1910.69 -2.09, 1918.58 9.67, 1920 32 M1920 32 C1917.64 359.85, 1916.92 687.03, 1920 1148 M1920 32 C1918.78 306.18, 1918.65 579.39, 1920 1148 M1920 1148 C1921.79 1170.45, 1908.74 1178.13, 1888 1180 M1920 1148 C1919.28 1168.71, 1908.84 1181.93, 1888 1180 M1888 1180 C1380.68 1180.25, 872.71 1179.62, 32 1180 M1888 1180 C1346.59 1186.58, 805.14 1187.02, 32 1180 M32 1180 C11.12 1179.91, -2 1167.77, 0 1148 M32 1180 C9.94 1181.59, 1.68 1169.86, 0 1148 M0 1148 C1.32 733.02, 1.06 318.46, 0 32 M0 1148 C-2.8 842.41, -3.17 537.17, 0 32 M0 32 C-0.96 12.01, 11.74 0.28, 32 0 M0 32 C-2.04 10.61, 9.9 0.37, 32 0" stroke="#000000" stroke-width="1" fill="none"></path></g><g transform="translate(770 10) rotate(0 215.1666717529297 20.69999999999999)"><text x="0" y="0" font-family="Helvetica, Segoe UI Emoji" font-size="36px" fill="#1971c2" text-anchor="start" style="white-space: pre;" direction="ltr" dominant-baseline="text-before-edge">Node Network Namespace</text></g><g stroke-linecap="round" transform="translate(70 150) rotate(0 180 480)"><path d="M32 0 C128.99 1.61, 224.31 0.99, 328 0 M32 0 C129.73 1.03, 227.12 1.69, 328 0 M328 0 C347.68 -0.95, 358.62 8.76, 360 32 M328 0 C350.91 -1.05, 357.87 11.93, 360 32 M360 32 C359.2 332.69, 359.7 633.54, 360 928 M360 32 C357.38 314.87, 357.25 596.83, 360 928 M360 928 C358.73 948.01, 350.54 960.48, 328 960 M360 928 C358.1 951.24, 351.18 961.79, 328 960 M328 960 C219.43 959.15, 110.96 957.62, 32 960 M328 960 C226.27 960.5, 122.67 959.7, 32 960 M32 960 C8.76 961.81, 1.39 951.19, 0 928 M32 960 C9.52 959.22, -0.93 948.1, 0 928 M0 928 C-0.48 673.1, -0.6 418.88, 0 32 M0 928 C-2.1 599.92, -2.2 271.79, 0 32 M0 32 C0.6 11.72, 12.33 -0.77, 32 0 M0 32 C2.06 12.74, 9.42 0.05, 32 0" stroke="#000000" stroke-width="1" fill="none"></path></g><g stroke-linecap="round" transform="translate(910 150) rotate(0 340 190)"><path d="M32 0 C254.51 2.68, 476.32 2.56, 648 0 M32 0 C193.03 0.46, 353.45 0.83, 648 0 M648 0 C670.24 -0.05, 681.77 12.17, 680 32 M648 0 C667.61 -0.74, 677.8 12.74, 680 32 M680 32 C681.59 148.12, 681.32 265.17, 680 348 M680 32 C679.35 134.66, 679.72 237.32, 680 348 M680 348 C681.33 369.54, 670.8 380.28, 648 380 M680 348 C681.1 369.71, 670.02 381.21, 648 380 M648 380 C412.84 381.78, 176.25 381.83, 32 380 M648 380 C474.81 378.25, 301.71 378.66, 32 380 M32 380 C10.85 381.55, 1.8 368.56, 0 348 M32 380 C8.8 378.3, 1.57 371.25, 0 348 M0 348 C1.67 233.14, 2.39 117.13, 0 32 M0 348 C-0.61 282.73, -0.87 218.21, 0 32 M0 32 C-0.35 10.28, 8.85 1.47, 32 0 M0 32 C1.14 11.74, 9.59 -1.29, 32 0" stroke="#000000" stroke-width="1" fill="none"></path></g><g stroke-linecap="round" transform="translate(350 290) rotate(0 20 20)"><path d="M8.24 3.19 C8.24 3.19, 8.24 3.19, 8.24 3.19 M8.24 3.19 C8.24 3.19, 8.24 3.19, 8.24 3.19 M5.22 31.04 C11.26 23.22, 17.3 16.23, 28.84 3.87 M5.22 31.04 C12.3 22.77, 18.72 15.08, 28.84 3.87 M19.27 39.27 C23.24 34.33, 28.42 28.3, 38.95 16.63 M19.27 39.27 C23.84 34.6, 28.36 28.76, 38.95 16.63" stroke="#82c91e" stroke-width="2" fill="none"></path><path d="M22.11 0.56 C26.18 0.82, 31.82 3.16, 34.78 6.26 C37.75 9.36, 39.76 14.86, 39.89 19.16 C40.03 23.46, 38.12 28.62, 35.6 32.07 C33.09 35.53, 28.87 38.9, 24.8 39.87 C20.72 40.84, 15.02 39.85, 11.18 37.87 C7.33 35.89, 3.47 31.98, 1.73 28.01 C-0.02 24.04, -0.44 18.23, 0.7 14.03 C1.84 9.83, 4.8 5.15, 8.56 2.81 C12.33 0.48, 20.83 0.28, 23.29 0 C25.74 -0.27, 23.44 0.7, 23.27 1.15 M22.34 0.41 C26.22 0.82, 31.24 3.44, 34.29 6.47 C37.34 9.5, 40.36 14.36, 40.64 18.58 C40.92 22.81, 38.74 28.34, 35.98 31.82 C33.22 35.3, 28.36 38.54, 24.06 39.45 C19.77 40.36, 14.05 39.16, 10.2 37.28 C6.36 35.39, 2.59 32.02, 1.02 28.13 C-0.56 24.24, -0.76 18.21, 0.75 13.93 C2.26 9.64, 6.49 4.81, 10.08 2.42 C13.68 0.03, 20.19 -0.22, 22.33 -0.4 C24.47 -0.58, 22.84 0.82, 22.92 1.32" stroke="#000000" stroke-width="4" fill="none"></path></g><g stroke-linecap="round"><g transform="translate(950 330) rotate(0 -290 0)"><path d="M0.57 0.53 C-96.15 0.53, -484.01 -0.62, -580.6 -0.63 M-0.59 -0.23 C-96.89 -0.04, -481.77 0.81, -578.21 0.58" stroke="#000000" stroke-width="4" fill="none"></path></g></g><mask></mask><g stroke-linecap="round"><g transform="translate(950 290) rotate(0 -290 0)"><path d="M0.53 -0.6 C-96.14 -0.53, -483.95 0.92, -580.63 1 M-0.65 1.7 C-96.87 1.4, -481.68 -0.5, -578.25 -0.59" stroke="#000000" stroke-width="4" fill="none"></path></g></g><mask></mask><g transform="translate(188.0250015258789 1130) rotate(0 60.06666564941406 41.39999999999998)"><text x="60.06666564941406" y="0" font-family="Helvetica, Segoe UI Emoji" font-size="36px" fill="#1971c2" text-anchor="middle" style="white-space: pre;" direction="ltr" dominant-baseline="text-before-edge">Ztunnel</text><text x="60.06666564941406" y="41.4" font-family="Helvetica, Segoe UI Emoji" font-size="36px" fill="#1971c2" text-anchor="middle" style="white-space: pre;" direction="ltr" dominant-baseline="text-before-edge">Pod</text></g><g stroke-linecap="round" transform="translate(930 290) rotate(0 20 20)"><path d="M5.25 7.21 C5.25 7.21, 5.25 7.21, 5.25 7.21 M5.25 7.21 C5.25 7.21, 5.25 7.21, 5.25 7.21 M4.86 32.05 C9.52 25.86, 16.32 19.68, 30.45 2.62 M4.86 32.05 C13.54 22.42, 21.49 12.94, 30.45 2.62 M18.9 40.28 C24.66 33.41, 32.27 25.95, 39.24 16.89 M18.9 40.28 C23.47 35.26, 27.41 29.85, 39.24 16.89" stroke="#82c91e" stroke-width="2" fill="none"></path><path d="M16.32 0.73 C20.2 -0.3, 26.15 0.26, 29.88 2.34 C33.61 4.42, 37.26 9.09, 38.71 13.21 C40.16 17.34, 39.99 23.11, 38.57 27.09 C37.14 31.07, 33.77 34.99, 30.15 37.12 C26.53 39.24, 21.03 40.52, 16.83 39.84 C12.63 39.16, 7.82 36.3, 4.93 33.02 C2.05 29.73, -0.5 24.4, -0.47 20.13 C-0.45 15.86, 2.15 10.78, 5.09 7.4 C8.03 4.02, 14.95 1.01, 17.16 -0.15 C19.36 -1.31, 18.23 0.01, 18.31 0.44 M24.85 -0.12 C28.9 0.6, 32.97 4.47, 35.58 7.97 C38.18 11.47, 40.55 16.49, 40.45 20.87 C40.35 25.25, 38.03 31, 34.97 34.25 C31.92 37.49, 26.46 39.98, 22.13 40.35 C17.81 40.71, 12.51 38.75, 9.01 36.42 C5.52 34.1, 2.34 30.42, 1.17 26.42 C-0.01 22.42, 0.35 16.56, 1.95 12.43 C3.55 8.29, 7.1 3.71, 10.76 1.62 C14.43 -0.47, 21.77 -0.08, 23.93 -0.1 C26.09 -0.12, 23.7 1.17, 23.71 1.5" stroke="#000000" stroke-width="4" fill="none"></path></g><g stroke-linecap="round" transform="translate(110 490) rotate(0 140 100)"><path d="M32 0 C112.96 -0.01, 194.35 -0.25, 248 0 M32 0 C113.42 0.31, 194.46 -0.22, 248 0 M248 0 C269.84 -1.22, 279.81 11.25, 280 32 M248 0 C269.09 -0.28, 279.62 9.51, 280 32 M280 32 C279.81 70.67, 278.69 109.98, 280 168 M280 32 C279.38 61.28, 279.39 88.13, 280 168 M280 168 C278.5 189.04, 270.67 201.25, 248 200 M280 168 C279.3 191.59, 271.07 201.78, 248 200 M248 200 C162.93 200.7, 75.55 199.92, 32 200 M248 200 C185.96 198.65, 125.67 199.57, 32 200 M32 200 C11.39 201.97, -0.56 187.82, 0 168 M32 200 C11.65 198.36, 1.02 189.87, 0 168 M0 168 C-1.37 132.05, 0.22 98.95, 0 32 M0 168 C-0.49 127.82, -1.36 85.59, 0 32 M0 32 C0.56 11.42, 9.72 -0.24, 32 0 M0 32 C-1.72 11.25, 12.19 -0.79, 32 0" stroke="#1e1e1e" stroke-width="4" fill="none"></path></g><g transform="translate(185.71666717529297 560) rotate(0 60.70000076293945 32.19999999999999)"><text x="60.70000076293945" y="0" font-family="Helvetica, Segoe UI Emoji" font-size="28px" fill="#1e1e1e" text-anchor="middle" style="white-space: pre;" direction="ltr" dominant-baseline="text-before-edge">Ztunnel</text><text x="60.70000076293945" y="32.199999999999996" font-family="Helvetica, Segoe UI Emoji" font-size="28px" fill="#1e1e1e" text-anchor="middle" style="white-space: pre;" direction="ltr" dominant-baseline="text-before-edge">Container</text></g><g transform="translate(1123.2666625976562 545) rotate(0 125.80000305175781 20.69999999999999)"><text x="125.80000305175781" y="0" font-family="Helvetica, Segoe UI Emoji" font-size="36px" fill="#1971c2" text-anchor="middle" style="white-space: pre;" direction="ltr" dominant-baseline="text-before-edge">Workload 1 pod</text></g><g stroke-linecap="round" transform="translate(1071.1433770981246 230) rotate(0 130 100)"><path d="M32 0 C75.8 1.15, 114.92 0.54, 228 0 M32 0 C89.96 -1.22, 147.94 -2.81, 228 0 M228 0 C250.57 -0.84, 258.56 9.56, 260 32 M228 0 C250.52 -1.93, 258.39 8.4, 260 32 M260 32 C262.53 76.12, 261.85 119.14, 260 168 M260 32 C259.07 66.14, 260.21 100.28, 260 168 M260 168 C260.06 191.33, 250.68 198.72, 228 200 M260 168 C257.82 189.29, 250.98 198.89, 228 200 M228 200 C166.41 201.23, 104.99 199.55, 32 200 M228 200 C161.34 199.88, 93.54 198.08, 32 200 M32 200 C11.61 201.92, -0.8 190.23, 0 168 M32 200 C12.82 200.61, 0.9 189.71, 0 168 M0 168 C0.15 137.14, -1.04 106.84, 0 32 M0 168 C0.03 136.37, 0.16 102.21, 0 32 M0 32 C-0.25 11.79, 9.6 1.3, 32 0 M0 32 C-0.81 10.02, 9.48 0.72, 32 0" stroke="#1e1e1e" stroke-width="4" fill="none"></path></g><g transform="translate(510.55834197998047 294) rotate(0 136.9166717529297 16.100000000000023)"><text x="136.9166717529297" y="0" font-family="Helvetica, Segoe UI Emoji" font-size="28px" fill="#1e1e1e" text-anchor="middle" style="white-space: pre;" direction="ltr" dominant-baseline="text-before-edge">HBONE socket 15008</text></g><g stroke-linecap="round" transform="translate(1130 370) rotate(0 20 20)"><path d="M6.4 5.56 C6.4 5.56, 6.4 5.56, 6.4 5.56 M6.4 5.56 C6.4 5.56, 6.4 5.56, 6.4 5.56 M4.69 31.91 C13.49 22.09, 23.9 10.21, 29.62 3.23 M4.69 31.91 C14.22 21.47, 23.97 9.68, 29.62 3.23 M19.39 39.38 C25 31.63, 31.5 25.96, 40.39 15.23 M19.39 39.38 C26.85 30.84, 33.86 22.8, 40.39 15.23" stroke="#82c91e" stroke-width="2" fill="none"></path><path d="M18.92 0.06 C23.01 -0.33, 28.71 1.63, 32.2 4.18 C35.7 6.74, 38.99 11.23, 39.88 15.39 C40.78 19.55, 39.53 25.21, 37.57 29.12 C35.61 33.03, 31.97 37.11, 28.11 38.84 C24.26 40.57, 18.61 40.87, 14.44 39.51 C10.27 38.14, 5.43 34.4, 3.1 30.65 C0.78 26.89, -0.02 21.15, 0.51 16.99 C1.04 12.83, 3 8.53, 6.29 5.68 C9.58 2.82, 17.6 0.72, 20.25 -0.15 C22.9 -1.03, 22.18 0.11, 22.21 0.45 M17.3 0.78 C21.34 0.22, 27.26 1.82, 30.96 4.04 C34.67 6.26, 38.2 10.01, 39.54 14.1 C40.88 18.18, 40.75 24.67, 38.99 28.56 C37.23 32.46, 32.85 35.55, 28.99 37.46 C25.12 39.37, 20.06 41.02, 15.8 40.02 C11.54 39.02, 6.12 35.02, 3.44 31.47 C0.77 27.92, -0.61 22.91, -0.24 18.7 C0.14 14.5, 2.74 9.41, 5.69 6.23 C8.64 3.06, 15.35 0.5, 17.45 -0.33 C19.54 -1.16, 18.05 0.9, 18.25 1.23" stroke="#000000" stroke-width="4" fill="none"></path></g><g transform="translate(1189.9916687011719 370) rotate(0 45.11666488647461 16.100000000000023)"><text x="45.11666488647461" y="0" font-family="Helvetica, Segoe UI Emoji" font-size="28px" fill="#1e1e1e" text-anchor="middle" style="white-space: pre;" direction="ltr" dominant-baseline="text-before-edge">Port 80</text></g><g stroke-linecap="round"><g transform="translate(1071.1433770981246 350) rotate(0 130 0)"><path d="M0.21 -1.16 C43.36 -1.05, 216.49 0.55, 259.7 0.73 M-1.14 0.84 C41.76 0.6, 215.34 -1.07, 258.6 -1.01" stroke="#1e1e1e" stroke-width="4" fill="none"></path></g></g><mask></mask><g transform="translate(1131.1517083969527 250) rotate(0 70.55000305175781 32.19999999999999)"><text x="70.55000305175781" y="0" font-family="Helvetica, Segoe UI Emoji" font-size="28px" fill="#1e1e1e" text-anchor="middle" style="white-space: pre;" direction="ltr" dominant-baseline="text-before-edge">Workload 1</text><text x="70.55000305175781" y="32.199999999999996" font-family="Helvetica, Segoe UI Emoji" font-size="28px" fill="#1e1e1e" text-anchor="middle" style="white-space: pre;" direction="ltr" dominant-baseline="text-before-edge">Pod</text></g><g stroke-linecap="round" transform="translate(1390 170) rotate(0 30 160)"><path d="M15 0 C26.96 2.04, 39.43 2.14, 45 0 M15 0 C26.05 0.96, 36.83 -0.66, 45 0 M45 0 C53.59 0.19, 60.14 6.25, 60 15 M45 0 C54.43 0.4, 58.51 6.51, 60 15 M60 15 C58.29 95.39, 59.65 174.71, 60 305 M60 15 C60.08 109.96, 61.1 205.93, 60 305 M60 305 C59.18 316.44, 56.7 318.61, 45 320 M60 305 C61.25 313.97, 55.62 321.31, 45 320 M45 320 C35.3 318.4, 21.57 318.14, 15 320 M45 320 C33.18 319.68, 21.11 320.24, 15 320 M15 320 C4.83 319.43, -0.76 314.03, 0 305 M15 320 C5.83 319.54, 0.08 316.57, 0 305 M0 305 C2.14 224.27, -0.33 144.99, 0 15 M0 305 C-0.1 230.57, -0.15 155.87, 0 15 M0 15 C0.7 5.77, 4.56 -0.68, 15 0 M0 15 C-0.42 2.8, 3.61 0.94, 15 0" stroke="#1e1e1e" stroke-width="4" fill="none"></path></g><g transform="translate(1410.0083332061768 202) rotate(0 7.7833333015441895 128.79999999999995)"><text x="7.7833333015441895" y="0" font-family="Helvetica, Segoe UI Emoji" font-size="28px" fill="#1e1e1e" text-anchor="middle" style="white-space: pre;" direction="ltr" dominant-baseline="text-before-edge">i</text><text x="7.7833333015441895" y="32.199999999999996" font-family="Helvetica, Segoe UI Emoji" font-size="28px" fill="#1e1e1e" text-anchor="middle" style="white-space: pre;" direction="ltr" dominant-baseline="text-before-edge">p</text><text x="7.7833333015441895" y="64.39999999999999" font-family="Helvetica, Segoe UI Emoji" font-size="28px" fill="#1e1e1e" text-anchor="middle" style="white-space: pre;" direction="ltr" dominant-baseline="text-before-edge">t</text><text x="7.7833333015441895" y="96.6" font-family="Helvetica, Segoe UI Emoji" font-size="28px" fill="#1e1e1e" text-anchor="middle" style="white-space: pre;" direction="ltr" dominant-baseline="text-before-edge">a</text><text x="7.7833333015441895" y="128.79999999999998" font-family="Helvetica, Segoe UI Emoji" font-size="28px" fill="#1e1e1e" text-anchor="middle" style="white-space: pre;" direction="ltr" dominant-baseline="text-before-edge">b</text><text x="7.7833333015441895" y="160.99999999999997" font-family="Helvetica, Segoe UI Emoji" font-size="28px" fill="#1e1e1e" text-anchor="middle" style="white-space: pre;" direction="ltr" dominant-baseline="text-before-edge">l</text><text x="7.7833333015441895" y="193.2" font-family="Helvetica, Segoe UI Emoji" font-size="28px" fill="#1e1e1e" text-anchor="middle" style="white-space: pre;" direction="ltr" dominant-baseline="text-before-edge">e</text><text x="7.7833333015441895" y="225.39999999999998" font-family="Helvetica, Segoe UI Emoji" font-size="28px" fill="#1e1e1e" text-anchor="middle" style="white-space: pre;" direction="ltr" dominant-baseline="text-before-edge">s</text></g><g mask="url(#mask-T5OaVwBPYAlLvE9yc7THt)" stroke-linecap="round"><g transform="translate(1790 410) rotate(0 -170 10)"><path d="M-0.29 -0.69 C-27.26 2.75, -104.56 20.25, -161.02 20.42 C-217.48 20.58, -309.08 3.81, -339.05 0.31 M1.76 1.57 C-24.92 4.65, -102 18.47, -158.84 18.51 C-215.69 18.55, -308.95 4.83, -339.32 1.79" stroke="#2f9e44" stroke-width="4" fill="none"></path></g><g transform="translate(1790 410) rotate(0 -170 10)"><path d="M-314.98 -3.92 C-325.1 -3.57, -332.24 1.82, -339.32 1.79 M-314.98 -3.92 C-322.05 -1.41, -331.24 -1.22, -339.32 1.79" stroke="#2f9e44" stroke-width="4" fill="none"></path></g><g transform="translate(1790 410) rotate(0 -170 10)"><path d="M-317 13.06 C-326.35 7.15, -332.74 6.28, -339.32 1.79 M-317 13.06 C-323.29 10.04, -331.82 4.7, -339.32 1.79" stroke="#2f9e44" stroke-width="4" fill="none"></path></g></g><mask id="mask-T5OaVwBPYAlLvE9yc7THt"><rect x="0" y="0" fill="#fff" width="2230" height="530"></rect><rect x="1626.2083332538605" y="412.5" fill="#000" width="7.583333492279053" height="35" opacity="1"></rect></mask><g transform="translate(1626.2083332538605 412.5) rotate(0 -4.98491173652917 7.365625109259668)"><text x="3.7916667461395264" y="0" font-family="Virgil, Segoe UI Emoji" font-size="28px" fill="#2f9e44" text-anchor="middle" style="white-space: pre;" direction="ltr" dominant-baseline="text-before-edge">1</text></g><g transform="translate(1509.974998474121 450) rotate(0 108.13333129882812 32.19999999999999)"><text x="108.13333129882812" y="0" font-family="Helvetica, Segoe UI Emoji" font-size="28px" fill="#2f9e44" text-anchor="middle" style="white-space: pre;" direction="ltr" dominant-baseline="text-before-edge">HBONE to 15008</text><text x="108.13333129882812" y="32.199999999999996" font-family="Helvetica, Segoe UI Emoji" font-size="28px" fill="#2f9e44" text-anchor="middle" style="white-space: pre;" direction="ltr" dominant-baseline="text-before-edge">(target 80)</text></g><g mask="url(#mask-W5hjjw-aCoCz9cIzqVKNz)" stroke-linecap="round"><g transform="translate(1390.1230473214202 207.5) rotate(0 -220 40)"><path d="M-1.15 -0.56 C-44.77 -0.32, -188.05 -10.82, -261.12 2.52 C-334.19 15.86, -409.72 66.48, -439.58 79.51 M0.44 1.76 C-42.86 2.72, -185.5 -9.06, -258.93 4.07 C-332.36 17.2, -409.92 68.16, -440.12 80.56" stroke="#2f9e44" stroke-width="4" fill="none"></path></g><g transform="translate(1390.1230473214202 207.5) rotate(0 -220 40)"><path d="M-423.02 62.33 C-429.75 66.87, -434.75 75.59, -440.12 80.56 M-423.02 62.33 C-426.98 68.06, -431.63 71.4, -440.12 80.56" stroke="#2f9e44" stroke-width="4" fill="none"></path></g><g transform="translate(1390.1230473214202 207.5) rotate(0 -220 40)"><path d="M-415.3 77.59 C-424.87 76.73, -432.56 80.13, -440.12 80.56 M-415.3 77.59 C-421.23 79.41, -427.87 78.81, -440.12 80.56" stroke="#2f9e44" stroke-width="4" fill="none"></path></g></g><mask id="mask-W5hjjw-aCoCz9cIzqVKNz"><rect x="0" y="0" fill="#fff" width="1930.1230473214202" height="387.5"></rect><rect x="1120.0333337783811" y="192.5" fill="#000" width="19.933332443237305" height="35" opacity="1"></rect></mask><g transform="translate(1120.0333337783811 192.5) rotate(0 50.24907738745219 53.15012053407196)"><text x="9.966666221618652" y="0" font-family="Virgil, Segoe UI Emoji" font-size="28px" fill="#2f9e44" text-anchor="middle" style="white-space: pre;" direction="ltr" dominant-baseline="text-before-edge">2</text></g><g transform="translate(1044.066665649414 170) rotate(0 115.1500015258789 16.099999999999994)"><text x="115.1500015258789" y="0" font-family="Helvetica, Segoe UI Emoji" font-size="28px" fill="#2f9e44" text-anchor="middle" style="white-space: pre;" direction="ltr" dominant-baseline="text-before-edge">To proxy for decap</text></g><g mask="url(#mask-ZO6vCfmtr4ELu-y6a0uEp)" stroke-linecap="round"><g transform="translate(970.5473730575293 310.6448599983007) rotate(0 79.72631347123536 49.67757000084964)"><path d="M-0.55 -0.64 C9.51 16.07, 32.59 83.13, 59.42 99.99 C86.24 116.85, 143.7 100.76, 160.4 100.51 M1.37 1.63 C11.34 18.02, 31.99 82.01, 58.45 98.2 C84.91 114.39, 143.22 98.62, 160.14 98.77" stroke="#f08c00" stroke-width="4" fill="none"></path></g><g transform="translate(970.5473730575293 310.6448599983007) rotate(0 79.72631347123536 49.67757000084964)"><path d="M137.8 110 C141.76 107.53, 148.9 106.66, 160.14 98.77 M137.8 110 C147.61 105.64, 154.71 101.18, 160.14 98.77" stroke="#f08c00" stroke-width="4" fill="none"></path></g><g transform="translate(970.5473730575293 310.6448599983007) rotate(0 79.72631347123536 49.67757000084964)"><path d="M135.81 93.02 C140.17 94.36, 147.75 97.29, 160.14 98.77 M135.81 93.02 C146.43 95.4, 154.32 97.66, 160.14 98.77" stroke="#f08c00" stroke-width="4" fill="none"></path></g></g><mask id="mask-ZO6vCfmtr4ELu-y6a0uEp"><rect x="0" y="0" fill="#fff" width="1230" height="510"></rect><rect x="1020.4666662216189" y="392.5" fill="#000" width="19.066667556762695" height="35" opacity="1"></rect></mask><g transform="translate(1020.4666662216189 392.5) rotate(0 30.00881129447373 -28.338392400038344)"><text x="9.533333778381348" y="0" font-family="Virgil, Segoe UI Emoji" font-size="28px" fill="#f08c00" text-anchor="middle" style="white-space: pre;" direction="ltr" dominant-baseline="text-before-edge">3</text></g><g stroke-linecap="round" transform="translate(910 690) rotate(0 340 190)"><path d="M32 0 C221.25 -0.88, 409.81 -0.59, 648 0 M32 0 C261.77 0.99, 491.73 1.19, 648 0 M648 0 C670.86 1.31, 680.72 11.42, 680 32 M648 0 C669.63 -0.8, 680.43 8.4, 680 32 M680 32 C680.48 119.4, 680.23 205.22, 680 348 M680 32 C682.37 131.06, 681.62 230.73, 680 348 M680 348 C678.9 368.26, 668.84 378.49, 648 380 M680 348 C679.37 370.36, 667.53 378.43, 648 380 M648 380 C492.78 378.51, 338.6 377.94, 32 380 M648 380 C461.61 377.74, 274.36 377.74, 32 380 M32 380 C11.73 379.89, 0.72 368.06, 0 348 M32 380 C11.56 378.88, 2.28 369.51, 0 348 M0 348 C0.86 276.02, 0.87 202.4, 0 32 M0 348 C-0.16 249.02, 0.2 150.05, 0 32 M0 32 C1.99 11.78, 11.78 1.25, 32 0 M0 32 C-1.2 10.87, 11.68 1.8, 32 0" stroke="#000000" stroke-width="1" fill="none"></path></g><g stroke-linecap="round" transform="translate(350 830) rotate(0 20 20)"><path d="M10.08 2.14 C10.08 2.14, 10.08 2.14, 10.08 2.14 M10.08 2.14 C10.08 2.14, 10.08 2.14, 10.08 2.14 M5.1 32.26 C13.73 22.83, 23.05 11.71, 29.37 4.33 M5.1 32.26 C13.09 23.28, 20.43 13.97, 29.37 4.33 M19.8 39.74 C26.12 34.26, 30.91 27.01, 38.82 17.85 M19.8 39.74 C24.69 34.37, 28.67 28.78, 38.82 17.85" stroke="#82c91e" stroke-width="2" fill="none"></path><path d="M23.99 0.43 C27.96 0.94, 32.78 4.2, 35.36 7.5 C37.95 10.79, 39.53 15.93, 39.5 20.2 C39.48 24.48, 37.96 29.84, 35.23 33.16 C32.5 36.48, 27.38 39.44, 23.1 40.14 C18.83 40.84, 13.24 39.55, 9.58 37.36 C5.93 35.16, 2.49 31.03, 1.17 26.98 C-0.15 22.94, 0.18 17.19, 1.66 13.06 C3.13 8.93, 6.15 4.31, 10.03 2.2 C13.91 0.08, 22.29 0.52, 24.93 0.37 C27.56 0.21, 25.96 0.9, 25.83 1.25 M21.87 0.52 C25.97 0.76, 31 2.82, 34.02 5.93 C37.04 9.04, 39.74 14.83, 40 19.16 C40.27 23.49, 38.08 28.62, 35.6 31.9 C33.12 35.17, 29.12 37.83, 25.13 38.79 C21.13 39.75, 15.63 39.5, 11.63 37.66 C7.63 35.83, 2.87 31.66, 1.13 27.77 C-0.61 23.87, -0.13 18.46, 1.21 14.3 C2.56 10.15, 5.66 5.28, 9.21 2.86 C12.76 0.44, 20.24 0.14, 22.53 -0.24 C24.81 -0.62, 23.1 0.27, 22.93 0.58" stroke="#000000" stroke-width="4" fill="none"></path></g><g stroke-linecap="round"><g transform="translate(950.7092195781879 870.9838427002269) rotate(0 -290 0)"><path d="M0.92 0.79 C-95.73 0.71, -482.77 0.65, -579.57 0.45 M-0.06 0.15 C-96.86 -0.37, -483.54 -1.52, -580.29 -1.43" stroke="#000000" stroke-width="4" fill="none"></path></g></g><mask></mask><g stroke-linecap="round"><g transform="translate(950.7092195781879 830.9838427002269) rotate(0 -290 0)"><path d="M0.43 0.45 C-96.36 0.25, -483.14 -0.14, -579.84 -0.42 M-0.8 -0.35 C-97.82 -0.46, -484.1 0.92, -580.71 0.9" stroke="#000000" stroke-width="4" fill="none"></path></g></g><mask></mask><g stroke-linecap="round" transform="translate(930 830) rotate(0 20 20)"><path d="M7.54 3.91 C7.54 3.91, 7.54 3.91, 7.54 3.91 M7.54 3.91 C7.54 3.91, 7.54 3.91, 7.54 3.91 M4.53 31.76 C10.24 25.76, 15.73 18.32, 28.8 3.84 M4.53 31.76 C12.07 23.72, 19.65 14.95, 28.8 3.84 M19.88 38.48 C25.77 32.86, 30.48 25.5, 38.91 16.6 M19.88 38.48 C24.4 33.04, 29.5 27.02, 38.91 16.6" stroke="#82c91e" stroke-width="2" fill="none"></path><path d="M21.06 0.07 C25.21 0.09, 30.41 2.75, 33.52 5.68 C36.62 8.61, 39.15 13.39, 39.71 17.65 C40.28 21.91, 39.15 27.65, 36.91 31.25 C34.68 34.86, 30.44 38.16, 26.29 39.31 C22.15 40.46, 16.06 39.87, 12.03 38.14 C8.01 36.41, 4.11 32.69, 2.14 28.91 C0.17 25.14, -0.67 19.65, 0.22 15.49 C1.11 11.34, 3.89 6.6, 7.49 3.96 C11.09 1.32, 19.41 0.28, 21.81 -0.33 C24.2 -0.94, 21.87 -0.07, 21.85 0.28 M17.63 0.11 C21.72 -0.7, 28.09 0.5, 31.79 2.89 C35.49 5.28, 38.83 10.24, 39.81 14.44 C40.78 18.64, 39.45 24.16, 37.64 28.09 C35.84 32.02, 32.71 36.23, 28.98 38.03 C25.24 39.82, 19.39 40.01, 15.23 38.88 C11.06 37.74, 6.39 34.62, 3.99 31.22 C1.58 27.82, 0.6 22.75, 0.81 18.45 C1.02 14.15, 2.32 8.56, 5.25 5.44 C8.17 2.32, 16.11 0.61, 18.37 -0.27 C20.62 -1.16, 18.73 -0.28, 18.79 0.13" stroke="#000000" stroke-width="4" fill="none"></path></g><g transform="translate(1136.5083236694336 1090) rotate(0 125.80000305175781 20.700000000000045)"><text x="125.80000305175781" y="0" font-family="Helvetica, Segoe UI Emoji" font-size="36px" fill="#1971c2" text-anchor="middle" style="white-space: pre;" direction="ltr" dominant-baseline="text-before-edge">Workload 2 pod</text></g><g stroke-linecap="round" transform="translate(1071.1433770981248 770) rotate(0 130 100)"><path d="M32 0 C94.96 0.72, 156.73 2.06, 228 0 M32 0 C86.85 0.38, 140.29 -0.82, 228 0 M228 0 C248.07 -0.39, 258.9 9.59, 260 32 M228 0 C248.77 -1.74, 259.37 11.7, 260 32 M260 32 C260.12 60.9, 258.32 92.4, 260 168 M260 32 C259.68 79.31, 259.81 128.03, 260 168 M260 168 C258.56 188.71, 250.4 199.89, 228 200 M260 168 C260.83 187.87, 250.23 198.88, 228 200 M228 200 C148.43 199.32, 70.65 200.34, 32 200 M228 200 C178.54 200.88, 128.84 200.42, 32 200 M32 200 C11.11 200.64, 1.99 190.44, 0 168 M32 200 C11.94 201.43, -1.2 189.54, 0 168 M0 168 C-0.52 122.89, -0.42 75.16, 0 32 M0 168 C1.01 122.5, 1.48 77.02, 0 32 M0 32 C1.56 11.34, 10.18 -1.13, 32 0 M0 32 C-1.91 11.99, 11.44 0.09, 32 0" stroke="#1e1e1e" stroke-width="4" fill="none"></path></g><g transform="translate(515.9749908447266 834) rotate(0 150.93333435058594 16.100000000000023)"><text x="150.93333435058594" y="0" font-family="Helvetica, Segoe UI Emoji" font-size="28px" fill="#1e1e1e" text-anchor="middle" style="white-space: pre;" direction="ltr" dominant-baseline="text-before-edge">Outbound Socket 15001</text></g><g stroke-linecap="round" transform="translate(1130 910) rotate(0 20 20)"><path d="M1.58 11.97 C1.58 11.97, 1.58 11.97, 1.58 11.97 M1.58 11.97 C1.58 11.97, 1.58 11.97, 1.58 11.97 M5.78 31.52 C14.05 21.91, 21.22 12.03, 30.05 3.6 M5.78 31.52 C13.92 21.29, 22.81 11.85, 30.05 3.6 M20.48 39 C23.98 33.16, 28.66 28.35, 38.85 17.87 M20.48 39 C24.89 34.21, 29.78 28.15, 38.85 17.87" stroke="#82c91e" stroke-width="2" fill="none"></path><path d="M24.32 0.22 C28.27 0.82, 33.37 4.29, 35.93 7.76 C38.49 11.22, 39.99 16.71, 39.7 21.01 C39.41 25.31, 37.04 30.49, 34.19 33.57 C31.34 36.64, 26.82 38.98, 22.57 39.47 C18.33 39.96, 12.27 38.82, 8.69 36.48 C5.12 34.15, 2.32 29.51, 1.11 25.45 C-0.1 21.39, -0.26 16.07, 1.44 12.13 C3.13 8.19, 7.25 3.66, 11.27 1.81 C15.29 -0.03, 23.1 1.07, 25.54 1.07 C27.98 1.07, 26.02 1.59, 25.89 1.8 M18.72 -0.42 C22.74 -1.04, 28.36 0.78, 31.92 3.36 C35.49 5.95, 39.18 10.94, 40.11 15.07 C41.04 19.19, 39.46 24.31, 37.53 28.11 C35.6 31.91, 32.23 36.04, 28.52 37.84 C24.81 39.64, 19.37 39.98, 15.27 38.91 C11.16 37.84, 6.43 34.81, 3.9 31.41 C1.37 28.02, -0.23 22.79, 0.08 18.53 C0.39 14.26, 2.69 8.87, 5.78 5.84 C8.87 2.8, 16.38 1.13, 18.62 0.3 C20.86 -0.53, 19.16 0.51, 19.23 0.88" stroke="#000000" stroke-width="4" fill="none"></path></g><g transform="translate(1189.9916687011719 910) rotate(0 45.11666488647461 16.100000000000023)"><text x="45.11666488647461" y="0" font-family="Helvetica, Segoe UI Emoji" font-size="28px" fill="#1e1e1e" text-anchor="middle" style="white-space: pre;" direction="ltr" dominant-baseline="text-before-edge">Port 80</text></g><g stroke-linecap="round"><g transform="translate(1071.1433770981248 890) rotate(0 130 0)"><path d="M0.52 -0.63 C43.55 -0.81, 216.11 -0.23, 259.24 -0.23 M-0.66 1.65 C42.65 1.59, 218.41 1.4, 261.56 1.18" stroke="#1e1e1e" stroke-width="4" fill="none"></path></g></g><mask></mask><g transform="translate(1123.841667175293 790) rotate(0 70.55000305175781 32.200000000000045)"><text x="70.55000305175781" y="0" font-family="Helvetica, Segoe UI Emoji" font-size="28px" fill="#1e1e1e" text-anchor="middle" style="white-space: pre;" direction="ltr" dominant-baseline="text-before-edge">Workload 2</text><text x="70.55000305175781" y="32.199999999999996" font-family="Helvetica, Segoe UI Emoji" font-size="28px" fill="#1e1e1e" text-anchor="middle" style="white-space: pre;" direction="ltr" dominant-baseline="text-before-edge">Pod</text></g><g stroke-linecap="round" transform="translate(1390 710) rotate(0 30 160)"><path d="M15 0 C20.84 -0.48, 30.6 -1.49, 45 0 M15 0 C21.33 -0.53, 28.96 0.39, 45 0 M45 0 C53.69 0.06, 61.15 3.27, 60 15 M45 0 C56.62 -0.76, 58.35 4.29, 60 15 M60 15 C58.92 117.99, 59.15 221.29, 60 305 M60 15 C58.76 103.83, 59.14 193.04, 60 305 M60 305 C61.06 315.27, 54.96 321.24, 45 320 M60 305 C59.34 315.35, 55.51 320.74, 45 320 M45 320 C34.26 319.12, 21.2 321.04, 15 320 M45 320 C34.48 320.4, 22.65 320.46, 15 320 M15 320 C3.29 320.06, -0.31 315.93, 0 305 M15 320 C5.75 322.21, 1.8 315.78, 0 305 M0 305 C2.09 225.53, 1.29 143.58, 0 15 M0 305 C0.72 231.99, 1.16 158.02, 0 15 M0 15 C-1.98 4.5, 3.13 -1.06, 15 0 M0 15 C0.21 3.95, 4.48 1.74, 15 0" stroke="#1e1e1e" stroke-width="4" fill="none"></path></g><g transform="translate(1412.0083332061768 740) rotate(0 7.7833333015441895 128.79999999999995)"><text x="7.7833333015441895" y="0" font-family="Helvetica, Segoe UI Emoji" font-size="28px" fill="#1e1e1e" text-anchor="middle" style="white-space: pre;" direction="ltr" dominant-baseline="text-before-edge">i</text><text x="7.7833333015441895" y="32.199999999999996" font-family="Helvetica, Segoe UI Emoji" font-size="28px" fill="#1e1e1e" text-anchor="middle" style="white-space: pre;" direction="ltr" dominant-baseline="text-before-edge">p</text><text x="7.7833333015441895" y="64.39999999999999" font-family="Helvetica, Segoe UI Emoji" font-size="28px" fill="#1e1e1e" text-anchor="middle" style="white-space: pre;" direction="ltr" dominant-baseline="text-before-edge">t</text><text x="7.7833333015441895" y="96.6" font-family="Helvetica, Segoe UI Emoji" font-size="28px" fill="#1e1e1e" text-anchor="middle" style="white-space: pre;" direction="ltr" dominant-baseline="text-before-edge">a</text><text x="7.7833333015441895" y="128.79999999999998" font-family="Helvetica, Segoe UI Emoji" font-size="28px" fill="#1e1e1e" text-anchor="middle" style="white-space: pre;" direction="ltr" dominant-baseline="text-before-edge">b</text><text x="7.7833333015441895" y="160.99999999999997" font-family="Helvetica, Segoe UI Emoji" font-size="28px" fill="#1e1e1e" text-anchor="middle" style="white-space: pre;" direction="ltr" dominant-baseline="text-before-edge">l</text><text x="7.7833333015441895" y="193.2" font-family="Helvetica, Segoe UI Emoji" font-size="28px" fill="#1e1e1e" text-anchor="middle" style="white-space: pre;" direction="ltr" dominant-baseline="text-before-edge">e</text><text x="7.7833333015441895" y="225.39999999999998" font-family="Helvetica, Segoe UI Emoji" font-size="28px" fill="#1e1e1e" text-anchor="middle" style="white-space: pre;" direction="ltr" dominant-baseline="text-before-edge">s</text></g><g transform="translate(1090.0166625976562 110) rotate(0 162.60000610351562 16.099999999999994)"><text x="162.60000610351562" y="0" font-family="Helvetica, Segoe UI Emoji" font-size="28px" fill="#1971c2" text-anchor="middle" style="white-space: pre;" direction="ltr" dominant-baseline="text-before-edge">HBONE Inbound Example</text></g><g transform="translate(1070 650) rotate(0 173.48333740234375 16.100000000000023)"><text x="173.48333740234375" y="0" font-family="Helvetica, Segoe UI Emoji" font-size="28px" fill="#1971c2" text-anchor="middle" style="white-space: pre;" direction="ltr" dominant-baseline="text-before-edge">HBONE Outbound Example</text></g><g mask="url(#mask-Jd4aVSqwGHfaNyYaFBGbx)" stroke-linecap="round"><g transform="translate(1390 750) rotate(0 -210 30)"><path d="M-1.03 0.73 C-44.25 -2.61, -190.5 -33.15, -260.24 -19.88 C-329.97 -6.61, -392.92 63.78, -419.45 80.37 M0.63 0.07 C-42.69 -3.08, -191.22 -31.31, -261.31 -18.28 C-331.4 -5.26, -393.66 61.75, -419.93 78.22" stroke="#f08c00" stroke-width="4" fill="none"></path></g><g transform="translate(1390 750) rotate(0 -210 30)"><path d="M-406.75 56.97 C-408.41 61.16, -412.35 67.17, -419.93 78.22 M-406.75 56.97 C-411.21 64.51, -414.95 71.97, -419.93 78.22" stroke="#f08c00" stroke-width="4" fill="none"></path></g><g transform="translate(1390 750) rotate(0 -210 30)"><path d="M-396.18 70.41 C-400.19 71.54, -406.47 74.58, -419.93 78.22 M-396.18 70.41 C-404.2 73.47, -411.43 76.49, -419.93 78.22" stroke="#f08c00" stroke-width="4" fill="none"></path></g></g><mask id="mask-Jd4aVSqwGHfaNyYaFBGbx"><rect x="0" y="0" fill="#fff" width="1910" height="950"></rect><rect x="1120.0333337783813" y="712.5" fill="#000" width="19.933332443237305" height="35" opacity="1"></rect></mask><g transform="translate(1120.0333337783813 712.5) rotate(0 60.316604576110876 66.081269684206)"><text x="9.966666221618652" y="0" font-family="Virgil, Segoe UI Emoji" font-size="28px" fill="#f08c00" text-anchor="middle" style="white-space: pre;" direction="ltr" dominant-baseline="text-before-edge">2</text></g><g mask="url(#mask-SExV_9Vyu7HplRqe6CG7t)" stroke-linecap="round"><g transform="translate(1170 950) rotate(0 110.39187352389092 20.474799848161638)"><path d="M0.44 -0.95 C7.11 5.56, 2.93 32.38, 39.47 39.22 C76.01 46.06, 189.48 39.68, 219.69 40.09 M-0.78 1.17 C5.73 7.81, 1.12 33.72, 38.25 40.35 C75.38 46.98, 191.55 41.1, 222.01 40.95" stroke="#f08c00" stroke-width="4" fill="none"></path></g><g transform="translate(1170 950) rotate(0 110.39187352389092 20.474799848161638)"><path d="M198.74 50.1 C203.05 46.82, 209.23 43.55, 222.01 40.95 M198.74 50.1 C204.82 48.62, 210.34 44.88, 222.01 40.95" stroke="#f08c00" stroke-width="4" fill="none"></path></g><g transform="translate(1170 950) rotate(0 110.39187352389092 20.474799848161638)"><path d="M198.3 33.01 C202.74 34.06, 209.03 35.12, 222.01 40.95 M198.3 33.01 C204.47 35.42, 210.09 35.59, 222.01 40.95" stroke="#f08c00" stroke-width="4" fill="none"></path></g></g><mask id="mask-SExV_9Vyu7HplRqe6CG7t"><rect x="0" y="0" fill="#fff" width="1490.7837470477818" height="1090.9495996963233"></rect><rect x="1206.2083332538605" y="972.5" fill="#000" width="7.583333492279053" height="35" opacity="1"></rect></mask><g transform="translate(1206.2083332538602 972.5) rotate(0 74.40392879277465 -1.226572860600868)"><text x="3.7916667461395264" y="0" font-family="Virgil, Segoe UI Emoji" font-size="28px" fill="#f08c00" text-anchor="middle" style="white-space: pre;" direction="ltr" dominant-baseline="text-before-edge">1</text></g><g transform="translate(1230 997.5) rotate(0 61.46666717529297 32.200000000000045)"><text x="61.46666717529297" y="0" font-family="Helvetica, Segoe UI Emoji" font-size="28px" fill="#f08c00" text-anchor="middle" style="white-space: pre;" direction="ltr" dominant-baseline="text-before-edge">Outbound</text><text x="61.46666717529297" y="32.199999999999996" font-family="Helvetica, Segoe UI Emoji" font-size="28px" fill="#f08c00" text-anchor="middle" style="white-space: pre;" direction="ltr" dominant-baseline="text-before-edge">to 5151</text></g><g transform="translate(1057.525001525879 690) rotate(0 115.1500015258789 16.100000000000023)"><text x="115.1500015258789" y="0" font-family="Helvetica, Segoe UI Emoji" font-size="28px" fill="#f08c00" text-anchor="middle" style="white-space: pre;" direction="ltr" dominant-baseline="text-before-edge">To proxy for encap</text></g><g mask="url(#mask-DRrwpKzpgAwLtfMM894q9)" stroke-linecap="round"><g transform="translate(970 870) rotate(0 460.2468265274074 90.48557541612536)"><path d="M0.63 -0.97 C23.91 29.33, -12.42 150.69, 140.78 180.95 C293.98 211.22, 789.94 180.66, 919.82 180.63 M-0.49 1.13 C22.59 31.19, -12.96 149.23, 140.24 179.33 C293.44 209.44, 788.72 181.36, 918.69 181.76" stroke="#2f9e44" stroke-width="4" fill="none"></path></g><g transform="translate(970 870) rotate(0 460.2468265274074 90.48557541612536)"><path d="M895.43 190.91 C903.05 188.47, 915.44 182.44, 918.69 181.76 M895.43 190.91 C902.43 188.11, 907.68 185.95, 918.69 181.76" stroke="#2f9e44" stroke-width="4" fill="none"></path></g><g transform="translate(970 870) rotate(0 460.2468265274074 90.48557541612536)"><path d="M894.99 173.81 C902.67 178.12, 915.22 178.83, 918.69 181.76 M894.99 173.81 C902.05 175.65, 907.42 178.13, 918.69 181.76" stroke="#2f9e44" stroke-width="4" fill="none"></path></g></g><mask id="mask-DRrwpKzpgAwLtfMM894q9"><rect x="0" y="0" fill="#fff" width="1990.4936530548148" height="1150.9711508322507"></rect><rect x="1100.4666662216187" y="1032.5" fill="#000" width="19.066667556762695" height="35" opacity="1"></rect></mask><g transform="translate(1100.4666662216187 1032.5) rotate(0 329.1941451841965 -65.82095200847118)"><text x="9.533333778381348" y="0" font-family="Virgil, Segoe UI Emoji" font-size="28px" fill="#2f9e44" text-anchor="middle" style="white-space: pre;" direction="ltr" dominant-baseline="text-before-edge">3</text></g><g transform="translate(1629.974998474121 910) rotate(0 80.13333129882812 64.39999999999998)"><text x="80.13333129882812" y="0" font-family="Helvetica, Segoe UI Emoji" font-size="28px" fill="#2f9e44" text-anchor="middle" style="white-space: pre;" direction="ltr" dominant-baseline="text-before-edge">Leaves pod </text><text x="80.13333129882812" y="32.199999999999996" font-family="Helvetica, Segoe UI Emoji" font-size="28px" fill="#2f9e44" text-anchor="middle" style="white-space: pre;" direction="ltr" dominant-baseline="text-before-edge">as HBONE</text><text x="80.13333129882812" y="64.39999999999999" font-family="Helvetica, Segoe UI Emoji" font-size="28px" fill="#2f9e44" text-anchor="middle" style="white-space: pre;" direction="ltr" dominant-baseline="text-before-edge">on 15008</text><text x="80.13333129882812" y="96.6" font-family="Helvetica, Segoe UI Emoji" font-size="28px" fill="#2f9e44" text-anchor="middle" style="white-space: pre;" direction="ltr" dominant-baseline="text-before-edge">(target 5151)</text></g><g transform="translate(57.875 1272) rotate(0 921.5 82.79999999999995)"><text x="0" y="0" font-family="Helvetica, Segoe UI Emoji" font-size="36px" fill="#1e1e1e" text-anchor="start" style="white-space: pre;" direction="ltr" dominant-baseline="text-before-edge">- Everything entering or exiting a pod "hairpins" thru the local ztunnel</text><text x="0" y="41.4" font-family="Helvetica, Segoe UI Emoji" font-size="36px" fill="#1e1e1e" text-anchor="start" style="white-space: pre;" direction="ltr" dominant-baseline="text-before-edge">- All redirection happens WITHIN the pod - nothing host side</text><text x="0" y="82.8" font-family="Helvetica, Segoe UI Emoji" font-size="36px" fill="#1e1e1e" text-anchor="start" style="white-space: pre;" direction="ltr" dominant-baseline="text-before-edge">- Looks just like old sidecar to CNIs (and to pods) without actually adding a sidecar - "sidecar with long, long straws"</text><text x="0" y="124.19999999999999" font-family="Helvetica, Segoe UI Emoji" font-size="36px" fill="#1e1e1e" text-anchor="start" style="white-space: pre;" direction="ltr" dominant-baseline="text-before-edge"></text></g><g transform="translate(931.5333328247068 416.5) rotate(34.298316000278675 74.71666717529297 32.19999999999999)"><text x="74.71666717529297" y="0" font-family="Helvetica, Segoe UI Emoji" font-size="28px" fill="#f08c00" text-anchor="middle" style="white-space: pre;" direction="ltr" dominant-baseline="text-before-edge">To workload</text><text x="74.71666717529297" y="32.199999999999996" font-family="Helvetica, Segoe UI Emoji" font-size="28px" fill="#f08c00" text-anchor="middle" style="white-space: pre;" direction="ltr" dominant-baseline="text-before-edge">port</text></g></svg>