<svg id="bc9f8df8-f9ce-4372-a501-89395f6dc0ca" data-name="Layer 1" xmlns="http://www.w3.org/2000/svg" viewBox="0 0 481.43 441.93"><title>arch</title><path d="M481.1,466.6H16.6a3.08,3.08,0,0,1-3-3V404.2a3.08,3.08,0,0,1,3-3H481.2a3.08,3.08,0,0,1,3,3v59.4A3.1,3.1,0,0,1,481.1,466.6Z" transform="translate(-2.77 -24.67)" fill="#ededed"/><path d="M199.8,82.63H199v-4.1h-4.9v4.1h-.7v-8.5h.7v3.8H199v-3.8h.7v8.5Zm7.9-7.9h-2.9v7.9h-.7v-7.9h-2.9v-.6h6.6v.6Zm7.2,0H212v7.9h-.7v-7.9h-2.9v-.6H215v.6Zm2.1,4.5v3.5h-.7v-8.5h2.9a2.82,2.82,0,0,1,2.1.7,2.41,2.41,0,0,1,.8,1.9,2.24,2.24,0,0,1-.8,1.9,3.3,3.3,0,0,1-2.1.7H217Zm0-.6h2.2a2.54,2.54,0,0,0,1.6-.5,1.68,1.68,0,0,0,.6-1.4,2,2,0,0,0-.5-1.4,2.07,2.07,0,0,0-1.6-.5H217Zm6.4,4.8h-.6l3.6-9.3h.6Zm8-.8h-.7v-7.7l-2.3.9v-.6l2.9-1.1h.1Zm3.4-.4a.37.37,0,0,1,.1-.3.5.5,0,0,1,.8,0,.5.5,0,0,1,0,.6c-.1.1-.2.1-.4.1s-.3,0-.4-.1A.44.44,0,0,1,234.8,82.23Zm6.1.4h-.7v-7.7l-2.3.9v-.6l2.9-1.1h.1Zm3.4,1.6-.4-.3a2.26,2.26,0,0,0,.5-1.5v-.9h.7v.7A2.63,2.63,0,0,1,244.3,84.23Zm11.8-1.6h-.7v-4.1h-4.9v4.1h-.7v-8.5h.7v3.8h4.9v-3.8h.7Zm8-7.9h-2.9v7.9h-.7v-7.9h-2.9v-.6h6.6v.6Zm7.1,0h-2.9v7.9h-.7v-7.9h-2.9v-.6h6.6v.6Zm2.1,4.5v3.5h-.7v-8.5h2.9a2.82,2.82,0,0,1,2.1.7,2.41,2.41,0,0,1,.8,1.9,2.24,2.24,0,0,1-.8,1.9,3.3,3.3,0,0,1-2.1.7h-2.2Zm0-.6h2.2a2.54,2.54,0,0,0,1.6-.5,1.68,1.68,0,0,0,.6-1.4,2,2,0,0,0-.5-1.4,2.07,2.07,0,0,0-1.6-.5h-2.2v3.8Zm6.4,4.8h-.6l3.6-9.3h.6Zm10.1-.8h-5.3v-.5l2.9-3.3a7.57,7.57,0,0,0,1-1.4,2.28,2.28,0,0,0,.3-1.1,1.9,1.9,0,0,0-.5-1.3,1.73,1.73,0,0,0-1.3-.5,2.17,2.17,0,0,0-1.4.5,1.62,1.62,0,0,0-.5,1.4h-.7a2.77,2.77,0,0,1,.3-1.3,2,2,0,0,1,.9-.9,3.19,3.19,0,0,1,1.4-.3,2.44,2.44,0,0,1,1.8.6,2.37,2.37,0,0,1,.3,3,7.83,7.83,0,0,1-1.3,1.8L285.3,82h4.5Zm1.3,1.6-.4-.3a2.26,2.26,0,0,0,.5-1.5v-.9h.7v.7A2.32,2.32,0,0,1,291.1,84.23Z" transform="translate(-2.77 -24.67)" fill="#434343"/><path d="M204,93.43a3.17,3.17,0,0,1,.7-2.3,2,2,0,0,1,1.8-.9,2.22,2.22,0,0,1,2,1v-.9h.7v6.2a2.35,2.35,0,0,1-.7,1.9,2.49,2.49,0,0,1-1.9.7,3.08,3.08,0,0,1-1.3-.3,3.92,3.92,0,0,1-1-.8l.4-.4a2.27,2.27,0,0,0,1.8.9,2.17,2.17,0,0,0,1.4-.5,2,2,0,0,0,.5-1.4v-.8a2.33,2.33,0,0,1-2,1,2.27,2.27,0,0,1-1.8-.9,5.39,5.39,0,0,1-.6-2.5Zm.7.1a3.31,3.31,0,0,0,.5,1.9,1.51,1.51,0,0,0,1.4.7,1.75,1.75,0,0,0,1.8-1.2V92a2.18,2.18,0,0,0-.7-.9,2,2,0,0,0-1.1-.3,1.51,1.51,0,0,0-1.4.7A3.68,3.68,0,0,0,204.7,93.53Zm9.6-.4h-2.5v3.5h-.7v-8.5h2.8a2.82,2.82,0,0,1,2.1.7,2.34,2.34,0,0,1,.8,1.8,3,3,0,0,1-.5,1.5,3,3,0,0,1-1.3.9l2.1,3.6v.1h-.8Zm-2.5-.6H214a2.46,2.46,0,0,0,1.5-.5,1.54,1.54,0,0,0,.5-1.3,1.68,1.68,0,0,0-.6-1.4,2.54,2.54,0,0,0-1.6-.5h-2v3.7Zm7.7.7v3.5h-.7v-8.5h2.9a2.82,2.82,0,0,1,2.1.7,2.41,2.41,0,0,1,.8,1.9,2.24,2.24,0,0,1-.8,1.9,3.3,3.3,0,0,1-2.1.7h-2.2Zm0-.6h2.2a2.54,2.54,0,0,0,1.6-.5,1.68,1.68,0,0,0,.6-1.4,2,2,0,0,0-.5-1.4,2.07,2.07,0,0,0-1.6-.5h-2.2v3.8ZM232.2,94a3,3,0,0,1-1,2.1,3.07,3.07,0,0,1-2.2.7,3.37,3.37,0,0,1-1.7-.5,2.59,2.59,0,0,1-1.1-1.4,4.21,4.21,0,0,1-.4-2v-1.1a4.21,4.21,0,0,1,.4-2,4.07,4.07,0,0,1,1.2-1.4,2.62,2.62,0,0,1,1.7-.5,2.86,2.86,0,0,1,2.2.8,3.37,3.37,0,0,1,.9,2h-.7a2.26,2.26,0,0,0-2.4-2.2,2,2,0,0,0-1.8.9,3.61,3.61,0,0,0-.7,2.4v1a3.61,3.61,0,0,0,.7,2.4,2.14,2.14,0,0,0,1.8.9,2.08,2.08,0,0,0,2.4-2.1Zm4.1-.6a3.81,3.81,0,0,1,.3-1.6,2.17,2.17,0,0,1,1-1.1,2.41,2.41,0,0,1,1.5-.4,2.52,2.52,0,0,1,2,.9,3.57,3.57,0,0,1,.8,2.3v.1a3.29,3.29,0,0,1-.4,1.7,2.17,2.17,0,0,1-1,1.1,2.41,2.41,0,0,1-1.5.4,2.52,2.52,0,0,1-2-.9,3.65,3.65,0,0,1-.8-2.4v-.1Zm.7.2a2.88,2.88,0,0,0,.6,1.9,2,2,0,0,0,3,0,2.88,2.88,0,0,0,.6-1.9v-.1a2.77,2.77,0,0,0-.3-1.3,1.76,1.76,0,0,0-.8-.9A2,2,0,0,0,239,91a1.8,1.8,0,0,0-1.5.7,2.88,2.88,0,0,0-.6,1.9h.1Zm9.3-2.7h-.5a1.5,1.5,0,0,0-1.1.4,2.55,2.55,0,0,0-.7,1v4.4h-.7v-6.3h.7v1a1.83,1.83,0,0,1,1.8-1.1.9.9,0,0,1,.5.1Zm10-2.2h-2.9v7.9h-.7v-7.9h-2.9v-.6h6.6v.6Zm7.4,5.3a3,3,0,0,1-1,2.1,3.07,3.07,0,0,1-2.2.7,3.37,3.37,0,0,1-1.7-.5,2.59,2.59,0,0,1-1.1-1.4,4.21,4.21,0,0,1-.4-2v-1.1a4.21,4.21,0,0,1,.4-2,4.07,4.07,0,0,1,1.2-1.4,2.62,2.62,0,0,1,1.7-.5,2.86,2.86,0,0,1,2.2.8,3.37,3.37,0,0,1,.9,2H263a2.26,2.26,0,0,0-2.4-2.2,2,2,0,0,0-1.8.9,3.61,3.61,0,0,0-.7,2.4v1a3.61,3.61,0,0,0,.7,2.4,2.14,2.14,0,0,0,1.8.9A2.08,2.08,0,0,0,263,94Zm2.5-.8v3.5h-.7v-8.5h2.9a2.82,2.82,0,0,1,2.1.7,2.41,2.41,0,0,1,.8,1.9,2.24,2.24,0,0,1-.8,1.9,3.3,3.3,0,0,1-2.1.7h-2.2Zm0-.6h2.2a2.54,2.54,0,0,0,1.6-.5,1.68,1.68,0,0,0,.6-1.4,2,2,0,0,0-.5-1.4,2.07,2.07,0,0,0-1.6-.5h-2.2v3.8Zm11.6.6H275v-.6h2.8Zm3.4,0h-2.8v-.6h2.8Z" transform="translate(-2.77 -24.67)" fill="#434343"/><path d="M205.9,109.23l.1.5.1-.6,1.5-4.9h.6l1.5,4.8.2.7.1-.5,1.3-4.9h.7l-1.8,6.3h-.6l-1.6-5-.1-.3-.1.4-1.6,5h-.6l-1.8-6.3h.7Zm8.3,1.4h-.7v-6.3h.7Zm-.8-8.1a.35.35,0,0,1,.4-.4c.2,0,.3,0,.4.1a.5.5,0,0,1,0,.6c-.1.1-.2.1-.4.1s-.3,0-.3-.1A.37.37,0,0,1,213.4,102.53Zm3.8.2v1.6h1.3v.6h-1.3v4.2a1.55,1.55,0,0,0,.2.8c.1.2.3.2.6.2a1.76,1.76,0,0,0,.6-.1v.6a1.72,1.72,0,0,1-.8.1,1.05,1.05,0,0,1-1-.4,2.13,2.13,0,0,1-.3-1.2v-4.2h-1.2v-.6h1.2v-1.6Zm3.4,2.7a2,2,0,0,1,.9-.9,2.66,2.66,0,0,1,1.2-.3,1.75,1.75,0,0,1,1.5.6,2.65,2.65,0,0,1,.5,1.7v4.2H224v-4.2c0-.6-.1-1-.4-1.2a1.25,1.25,0,0,0-1.1-.4,1.5,1.5,0,0,0-1.1.4,3.13,3.13,0,0,0-.8,1.1v4.3H220v-9h.7v3.7Zm8.5,2a3.81,3.81,0,0,1,.3-1.6,2.17,2.17,0,0,1,1-1.1,2.41,2.41,0,0,1,1.5-.4,2.52,2.52,0,0,1,2,.9,3.57,3.57,0,0,1,.8,2.3v.1a3.29,3.29,0,0,1-.4,1.7,2.17,2.17,0,0,1-1,1.1,2.41,2.41,0,0,1-1.5.4,2.52,2.52,0,0,1-2-.9,3.65,3.65,0,0,1-.8-2.4v-.1Zm.7.2a2.88,2.88,0,0,0,.6,1.9,2,2,0,0,0,3,0,2.88,2.88,0,0,0,.6-1.9v-.1a2.77,2.77,0,0,0-.3-1.3,1.76,1.76,0,0,0-.8-.9,2,2,0,0,0-1.1-.3,1.8,1.8,0,0,0-1.5.7,2.88,2.88,0,0,0-.6,1.9h.1Zm9.3-2.7h-.5a1.5,1.5,0,0,0-1.1.4,2.55,2.55,0,0,0-.7,1v4.4h-.7v-6.3h.7v1a1.83,1.83,0,0,1,1.8-1.1.9.9,0,0,1,.5.1Zm5.5,4.3.1.5.1-.6,1.5-4.9h.6l1.5,4.8.2.7.1-.6,1.3-4.9h.7l-1.8,6.3h-.6l-1.6-5-.1-.3-.1.4-1.6,5h-.6l-1.8-6.3h.7Zm8.4,1.4h-.7v-6.3h.7Zm-.9-8.1a.35.35,0,0,1,.4-.4c.2,0,.3,0,.4.1a.5.5,0,0,1,0,.6c-.1.1-.2.1-.4.1s-.3,0-.3-.1S252.1,102.63,252.1,102.53Zm3.8.2v1.6h1.3v.6h-1.3v4.2a1.55,1.55,0,0,0,.2.8c.1.2.3.2.6.2a1.76,1.76,0,0,0,.6-.1v.6a1.72,1.72,0,0,1-.8.1,1.05,1.05,0,0,1-1-.4,2.13,2.13,0,0,1-.3-1.2v-4.2H254v-.6h1.2v-1.6Zm3.5,2.7a2,2,0,0,1,.9-.9,2.66,2.66,0,0,1,1.2-.3,1.75,1.75,0,0,1,1.5.6,2.65,2.65,0,0,1,.5,1.7v4.2h-.7v-4.2c0-.6-.1-1-.4-1.2a1.25,1.25,0,0,0-1.1-.4,1.5,1.5,0,0,0-1.1.4,3.13,3.13,0,0,0-.8,1.1v4.3h-.7v-9h.7Zm5.5,2a3.81,3.81,0,0,1,.3-1.6,2.17,2.17,0,0,1,1-1.1,2.41,2.41,0,0,1,1.5-.4,2.52,2.52,0,0,1,2,.9,3.57,3.57,0,0,1,.8,2.3v.1a3.29,3.29,0,0,1-.4,1.7,2.17,2.17,0,0,1-1,1.1,2.41,2.41,0,0,1-1.5.4,2.52,2.52,0,0,1-2-.9,3.65,3.65,0,0,1-.8-2.4v-.1Zm.7.2a2.88,2.88,0,0,0,.6,1.9,2,2,0,0,0,3,0,2.88,2.88,0,0,0,.6-1.9v-.1a2.77,2.77,0,0,0-.3-1.3,1.76,1.76,0,0,0-.8-.9,2.28,2.28,0,0,0-1.1-.3,1.8,1.8,0,0,0-1.5.7,2.88,2.88,0,0,0-.6,1.9h.1Zm10.5,2.2a2.26,2.26,0,0,1-2,.9,1.75,1.75,0,0,1-1.5-.6,3,3,0,0,1-.5-1.8v-4.1h.7v4q0,1.8,1.5,1.8a1.72,1.72,0,0,0,1.9-1.2v-4.6h.7v6.3h-.7v-.7Zm3.6-7.1v1.6H281v.6h-1.3v4.2a1.55,1.55,0,0,0,.2.8c.1.2.3.2.6.2a1.76,1.76,0,0,0,.6-.1v.6a1.72,1.72,0,0,1-.8.1,1.05,1.05,0,0,1-1-.4,2.13,2.13,0,0,1-.3-1.2v-4.2h-1.2v-.6H279v-1.6Z" transform="translate(-2.77 -24.67)" fill="#434343"/><path d="M228.4,118.33v1a2,2,0,0,1,.9-.9,2.38,2.38,0,0,1,1.2-.3,1.8,1.8,0,0,1,1.9,1.2,2,2,0,0,1,.9-.9,2.66,2.66,0,0,1,1.2-.3c1.4,0,2.1.7,2.1,2.2v4.2H236v-4.2a1.7,1.7,0,0,0-.4-1.3c-.2-.3-.6-.4-1.2-.4a2.11,2.11,0,0,0-1.3.5,2.28,2.28,0,0,0-.6,1.2v4.2h-.7v-4.2a1.59,1.59,0,0,0-.4-1.2c-.2-.3-.6-.4-1.2-.4a1.5,1.5,0,0,0-1.1.4,2.33,2.33,0,0,0-.7,1.1v4.3h-.7v-6.3h.7Zm16-1.6h-2.9v7.9h-.7v-7.9h-2.9v-.6h6.6v.6Zm2.1,7.3h4.2v.6h-4.9v-8.5h.7Zm10.4-1.5a1.29,1.29,0,0,0-.5-1.1,5.13,5.13,0,0,0-1.8-.8,4.89,4.89,0,0,1-1.9-.8,1.92,1.92,0,0,1-.9-1.6,2.09,2.09,0,0,1,.8-1.6,3.28,3.28,0,0,1,2.1-.6,3.34,3.34,0,0,1,1.5.3,2.19,2.19,0,0,1,1,.9,2.84,2.84,0,0,1,.4,1.3h-.7a1.68,1.68,0,0,0-.6-1.4,2.07,2.07,0,0,0-1.6-.5,2.54,2.54,0,0,0-1.6.4,1.38,1.38,0,0,0-.6,1.1,1.61,1.61,0,0,0,.5,1.1,4.57,4.57,0,0,0,1.7.7,4.57,4.57,0,0,1,1.7.7,2.36,2.36,0,0,1,.9.8,2,2,0,0,1,.3,1.1,1.94,1.94,0,0,1-.8,1.6,3.28,3.28,0,0,1-2.1.6,4.67,4.67,0,0,1-1.7-.3,2.41,2.41,0,0,1-1.5-2.2h.7a1.51,1.51,0,0,0,.7,1.4,3,3,0,0,0,1.8.5,2.54,2.54,0,0,0,1.6-.4A1.43,1.43,0,0,0,256.9,122.53Z" transform="translate(-2.77 -24.67)" fill="#434343"/><path d="M88.4,366.2v-54" transform="translate(-2.77 -24.67)" fill-opacity="0" fill-rule="evenodd"/><line x1="85.63" y1="341.53" x2="85.63" y2="339.53" fill="none" stroke="#476baf" stroke-miterlimit="10" stroke-width="2"/><line x1="85.63" y1="335.13" x2="85.63" y2="302.33" fill="none" stroke="#476baf" stroke-miterlimit="10" stroke-width="2" stroke-dasharray="4.37 4.37"/><line x1="85.63" y1="300.13" x2="85.63" y2="298.13" fill="none" stroke="#476baf" stroke-miterlimit="10" stroke-width="2"/><polygon points="90.63 299.63 85.63 291.03 80.63 299.63 90.63 299.63" fill="#476baf"/><path d="M88.4,366.2l42.1-24.3" transform="translate(-2.77 -24.67)" fill-opacity="0" fill-rule="evenodd"/><line x1="85.63" y1="341.53" x2="87.33" y2="340.53" fill="none" stroke="#476baf" stroke-miterlimit="10" stroke-width="2"/><line x1="90.63" y1="338.63" x2="115.23" y2="324.43" fill="none" stroke="#476baf" stroke-miterlimit="10" stroke-width="2" stroke-dasharray="3.78 3.78"/><line x1="116.83" y1="323.53" x2="118.53" y2="322.53" fill="none" stroke="#476baf" stroke-miterlimit="10" stroke-width="2"/><polygon points="119.83 327.53 124.73 318.93 114.83 318.93 119.83 327.53" fill="#476baf"/><line x1="406.63" y1="340.63" x2="406.63" y2="338.63" fill="none" stroke="#476baf" stroke-miterlimit="10" stroke-width="2"/><line x1="406.63" y1="334.83" x2="406.63" y2="307.03" fill="none" stroke="#476baf" stroke-miterlimit="10" stroke-width="2" stroke-dasharray="3.72 3.72"/><line x1="406.63" y1="305.13" x2="406.63" y2="303.13" fill="none" stroke="#476baf" stroke-miterlimit="10" stroke-width="2"/><polygon points="411.53 304.63 406.63 295.93 401.63 304.63 411.53 304.63" fill="#476baf"/><line x1="406.63" y1="340.63" x2="404.63" y2="340.03" fill="none" stroke="#476baf" stroke-miterlimit="10" stroke-width="2"/><line x1="401.13" y1="339.13" x2="367.63" y2="330.13" fill="none" stroke="#476baf" stroke-miterlimit="10" stroke-width="2" stroke-dasharray="3.65 3.65"/><line x1="365.93" y1="329.63" x2="364.03" y2="329.13" fill="none" stroke="#476baf" stroke-miterlimit="10" stroke-width="2"/><polygon points="366.73 324.73 357.03 327.33 364.13 334.33 366.73 324.73" fill="#476baf"/><path d="M216.8,186.45v3.3h-1.1v-8.5h3.2a3.07,3.07,0,0,1,2.2.7,2.56,2.56,0,0,1,.8,1.9,2.41,2.41,0,0,1-.8,1.9,3.39,3.39,0,0,1-2.2.7Zm0-.9h2a2,2,0,0,0,1.4-.4,1.69,1.69,0,0,0,0-2.4,1.9,1.9,0,0,0-1.3-.5h-2.1v3.3Zm6,1a3.29,3.29,0,0,1,.4-1.7,2.17,2.17,0,0,1,1-1.1,2.41,2.41,0,0,1,1.5-.4,2.58,2.58,0,0,1,2.1.9,3.65,3.65,0,0,1,.8,2.4v.1a3.29,3.29,0,0,1-.4,1.7,2.94,2.94,0,0,1-1,1.2,2.41,2.41,0,0,1-1.5.4,2.58,2.58,0,0,1-2.1-.9,3.69,3.69,0,0,1-.8-2.6Zm1.1.2a2.86,2.86,0,0,0,.5,1.7,1.61,1.61,0,0,0,1.3.6,1.49,1.49,0,0,0,1.3-.6,3,3,0,0,0,.5-1.8,3.1,3.1,0,0,0-.5-1.7,1.71,1.71,0,0,0-1.3-.7,1.61,1.61,0,0,0-1.3.6A2.85,2.85,0,0,0,223.9,186.75Zm7.2,3.1H230v-9h1.1Zm2.9,0h-1.1v-6.3H234Zm-1.2-8.1c0-.2.1-.3.2-.5a.7.7,0,0,1,1.2.5.52.52,0,0,1-.2.4.72.72,0,0,1-1,0C232.9,182.15,232.8,182,232.8,181.75Zm5.5,7.3a1.69,1.69,0,0,0,1-.3,1.05,1.05,0,0,0,.5-.9h1a1.78,1.78,0,0,1-.4,1,2.36,2.36,0,0,1-.9.8,2.66,2.66,0,0,1-1.2.3,2.58,2.58,0,0,1-2.1-.9,3.65,3.65,0,0,1-.8-2.4v-.2a3.81,3.81,0,0,1,.3-1.6,2.66,2.66,0,0,1,1-1.1,2.41,2.41,0,0,1,1.5-.4,2.79,2.79,0,0,1,1.8.6,2.49,2.49,0,0,1,.8,1.7h-1a1.23,1.23,0,0,0-.5-1,1.28,1.28,0,0,0-1-.4,1.49,1.49,0,0,0-1.3.6,2.86,2.86,0,0,0-.5,1.7v.2a2.86,2.86,0,0,0,.5,1.7A1.49,1.49,0,0,0,238.3,189.05Zm5.8-.8,1.5-4.8h1.2l-2.5,7.3c-.4,1.1-1,1.6-1.9,1.6h-.2l-.4-.1v-.9h.3a2,2,0,0,0,.9-.2,1.23,1.23,0,0,0,.5-.8l.2-.7-2.3-6.3h1.2Zm9.1.8a1.69,1.69,0,0,0,1-.3,1.05,1.05,0,0,0,.5-.9h1a1.78,1.78,0,0,1-.4,1,2.36,2.36,0,0,1-.9.8,2.66,2.66,0,0,1-1.2.3,2.58,2.58,0,0,1-2.1-.9,3.65,3.65,0,0,1-.8-2.4v-.2a3.81,3.81,0,0,1,.3-1.6,2.66,2.66,0,0,1,1-1.1,2.41,2.41,0,0,1,1.5-.4,2.79,2.79,0,0,1,1.8.6,2.49,2.49,0,0,1,.8,1.7h-1a1.23,1.23,0,0,0-.5-1,1.28,1.28,0,0,0-1-.4,1.49,1.49,0,0,0-1.3.6,2.86,2.86,0,0,0-.5,1.7v.2a2.86,2.86,0,0,0,.5,1.7A1.61,1.61,0,0,0,253.2,189.05Zm4.8-4.8a2.32,2.32,0,0,1,1.9-.9c1.3,0,2,.8,2,2.3v4.2h-1.1v-4.2a1.49,1.49,0,0,0-.3-1,1.33,1.33,0,0,0-1-.3,1.22,1.22,0,0,0-.9.3,1.34,1.34,0,0,0-.6.7v4.5h-1.1v-9H258v3.4Zm8.2,5.7a2.86,2.86,0,0,1-2.1-.8,3.37,3.37,0,0,1-.8-2.3v-.2a3.29,3.29,0,0,1,.4-1.7,2.94,2.94,0,0,1,1-1.2,2.3,2.3,0,0,1,1.4-.4,2.41,2.41,0,0,1,1.9.8,3.17,3.17,0,0,1,.7,2.3v.5h-4.3a2.46,2.46,0,0,0,.5,1.5,1.76,1.76,0,0,0,1.3.6,3,3,0,0,0,1-.2,4.35,4.35,0,0,0,.7-.6l.7.5A2.62,2.62,0,0,1,266.2,190Zm-.1-5.7a1.61,1.61,0,0,0-1.1.5,1.9,1.9,0,0,0-.5,1.3h3.2V186a1.73,1.73,0,0,0-.5-1.3A1.5,1.5,0,0,0,266.1,184.25Zm6.4,4.8a1.69,1.69,0,0,0,1-.3,1.05,1.05,0,0,0,.5-.9h1a1.78,1.78,0,0,1-.4,1,2.36,2.36,0,0,1-.9.8,2.66,2.66,0,0,1-1.2.3,2.58,2.58,0,0,1-2.1-.9,3.65,3.65,0,0,1-.8-2.4v-.2a3.81,3.81,0,0,1,.3-1.6,2.66,2.66,0,0,1,1-1.1,2.41,2.41,0,0,1,1.5-.4,2.79,2.79,0,0,1,1.8.6,2.49,2.49,0,0,1,.8,1.7h-1a1.23,1.23,0,0,0-.5-1,1.28,1.28,0,0,0-1-.4,1.49,1.49,0,0,0-1.3.6,2.86,2.86,0,0,0-.5,1.7v.2a2.86,2.86,0,0,0,.5,1.7A1.49,1.49,0,0,0,272.5,189.05Zm5.5-2.2-.7.7v2.2h-1.1v-9h1.1v5.4l.6-.7,2-2.1h1.3l-2.5,2.7,2.8,3.7h-1.3Zm8,1.3a.91.91,0,0,0-.3-.7,2.35,2.35,0,0,0-1.2-.4,10.38,10.38,0,0,1-1.3-.4,2.17,2.17,0,0,1-.7-.6,1.88,1.88,0,0,1-.2-.8,1.46,1.46,0,0,1,.7-1.3,2.31,2.31,0,0,1,1.7-.5,2.35,2.35,0,0,1,1.7.6,1.91,1.91,0,0,1,.7,1.4H286a1,1,0,0,0-.4-.8,1.4,1.4,0,0,0-.9-.3,1.22,1.22,0,0,0-.9.3.91.91,0,0,0-.3.7.6.6,0,0,0,.3.6,4.33,4.33,0,0,0,1.1.4,10.38,10.38,0,0,1,1.3.4,2.17,2.17,0,0,1,.7.6c.2.2.2.5.2.9a1.62,1.62,0,0,1-.7,1.4,3,3,0,0,1-1.8.5,3.19,3.19,0,0,1-1.4-.3,1.76,1.76,0,0,1-.9-.8,1.93,1.93,0,0,1-.3-1h1.1a1.27,1.27,0,0,0,.4.9,1.8,1.8,0,0,0,1.1.3,3,3,0,0,0,1-.2C285.8,188.65,286,188.45,286,188.15Zm2.4,3.4-.6-.4a2.45,2.45,0,0,0,.6-1.6v-1h1.1v.8a2.66,2.66,0,0,1-.3,1.2A3.92,3.92,0,0,1,288.4,191.55Z" transform="translate(-2.77 -24.67)" fill="#434343"/><path d="M229.6,196v1.5h1.2v.8h-1.2v3.9a.85.85,0,0,0,.2.6.76.76,0,0,0,.5.2,1.09,1.09,0,0,0,.5-.1v.9a2.49,2.49,0,0,1-.8.1,1.37,1.37,0,0,1-1.1-.4,2.23,2.23,0,0,1-.4-1.3v-3.9h-1.2v-.8h1.2V196Zm5.1,8a2.86,2.86,0,0,1-2.1-.8,3.37,3.37,0,0,1-.8-2.3v-.2a3.29,3.29,0,0,1,.4-1.7,2.94,2.94,0,0,1,1-1.2,2.3,2.3,0,0,1,1.4-.4,2.41,2.41,0,0,1,1.9.8,3.17,3.17,0,0,1,.7,2.3v.5h-4.3a2.46,2.46,0,0,0,.5,1.5,1.76,1.76,0,0,0,1.3.6,3,3,0,0,0,1-.2,4.35,4.35,0,0,0,.7-.6l.7.5A2.85,2.85,0,0,1,234.7,204Zm-.2-5.7a1.61,1.61,0,0,0-1.1.5,1.9,1.9,0,0,0-.5,1.3h3.2V200a1.73,1.73,0,0,0-.5-1.3A1.25,1.25,0,0,0,234.5,198.25Zm5.1,5.6h-1.1v-9h1.1Zm4.3.1a2.86,2.86,0,0,1-2.1-.8,3.37,3.37,0,0,1-.8-2.3v-.2a3.29,3.29,0,0,1,.4-1.7,2.94,2.94,0,0,1,1-1.2,2.3,2.3,0,0,1,1.4-.4,2.41,2.41,0,0,1,1.9.8,3.17,3.17,0,0,1,.7,2.3v.5h-4.3a2.46,2.46,0,0,0,.5,1.5,1.76,1.76,0,0,0,1.3.6,3,3,0,0,0,1-.2,4.35,4.35,0,0,0,.7-.6l.7.5A2.62,2.62,0,0,1,243.9,204Zm-.1-5.7a1.61,1.61,0,0,0-1.1.5,1.9,1.9,0,0,0-.5,1.3h3.2V200a1.73,1.73,0,0,0-.5-1.3A1.37,1.37,0,0,0,243.8,198.25Zm4.9-.8v.7a2.56,2.56,0,0,1,1.9-.8,1.73,1.73,0,0,1,1.8,1,2.7,2.7,0,0,1,.8-.7,2.13,2.13,0,0,1,1.2-.3c1.4,0,2.1.7,2.1,2.2v4.2h-1.1v-4.1a1.1,1.1,0,0,0-1.3-1.3,1.28,1.28,0,0,0-1,.4,1.6,1.6,0,0,0-.5,1V204h-1.1v-4.3a1.27,1.27,0,0,0-1.4-1.4,1.55,1.55,0,0,0-1.5.9v4.6h-1.1v-6.3Zm12.1,6.5a2.86,2.86,0,0,1-2.1-.8,3.37,3.37,0,0,1-.8-2.3v-.2a3.29,3.29,0,0,1,.4-1.7,2.94,2.94,0,0,1,1-1.2,2.3,2.3,0,0,1,1.4-.4,2.41,2.41,0,0,1,1.9.8,3.17,3.17,0,0,1,.7,2.3v.5H259a2.46,2.46,0,0,0,.5,1.5,1.76,1.76,0,0,0,1.3.6,3,3,0,0,0,1-.2,4.35,4.35,0,0,0,.7-.6l.7.5A2.62,2.62,0,0,1,260.8,204Zm-.1-5.7a1.61,1.61,0,0,0-1.1.5,1.9,1.9,0,0,0-.5,1.3h3.2V200a1.73,1.73,0,0,0-.5-1.3A1.5,1.5,0,0,0,260.7,198.25ZM266,196v1.5h1.2v.8H266v3.9a.85.85,0,0,0,.2.6.76.76,0,0,0,.5.2,1.09,1.09,0,0,0,.5-.1v.9a2.49,2.49,0,0,1-.8.1,1.37,1.37,0,0,1-1.1-.4,2.23,2.23,0,0,1-.4-1.3v-3.9h-1.2v-.8h1.2V196Zm5.5,2.5H271a1.55,1.55,0,0,0-1.5.9v4.5h-1.1v-6.3h1v.7a1.66,1.66,0,0,1,1.5-.8.75.75,0,0,1,.5.1v.9Zm3.1,3.8,1.5-4.8h1.2l-2.5,7.3c-.4,1.1-1,1.6-1.9,1.6h-.2l-.4-.1v-.9h.3a2,2,0,0,0,.9-.2,1.23,1.23,0,0,0,.5-.8l.2-.7-2.3-6.3h1.2Z" transform="translate(-2.77 -24.67)" fill="#434343"/><path d="M152.8,438.2H23.9a3.08,3.08,0,0,1-3-3v-66a3.08,3.08,0,0,1,3-3H152.8a3.08,3.08,0,0,1,3,3v66A3,3,0,0,1,152.8,438.2Z" transform="translate(-2.77 -24.67)" fill="#e5e5e4"/><path d="M143.9,429.2H32.9a3.08,3.08,0,0,1-3-3v-48a3.08,3.08,0,0,1,3-3h111a3.08,3.08,0,0,1,3,3v48A3.08,3.08,0,0,1,143.9,429.2Z" transform="translate(-2.77 -24.67)" fill="#fff"/><text transform="translate(94.23 382.34)" font-size="14" font-family="GoogleSans-Regular, Google Sans" style="isolation:isolate">Pi<tspan x="11.23" y="0" letter-spacing="-0.01em">l</tspan><tspan x="14.11" y="0" letter-spacing="-0.01em">o</tspan><tspan x="22.25" y="0" letter-spacing="0em">t</tspan></text><polygon points="40.36 393.03 67.86 393.03 50.66 398.13 40.36 393.03" fill="#466bb0"/><polygon points="40.36 391.23 50.66 389.53 50.66 370.63 40.36 391.23" fill="#466bb0"/><polygon points="52.36 389.53 67.86 391.23 52.36 356.93 52.36 389.53" fill="#476baf"/><path d="M313.3,317.8H184.4a3.08,3.08,0,0,1-3-3v-66a3.08,3.08,0,0,1,3-3H313.3a3.08,3.08,0,0,1,3,3v66A3,3,0,0,1,313.3,317.8Z" transform="translate(-2.77 -24.67)" fill="#e5e5e4"/><path d="M304.4,308.8h-111a3.08,3.08,0,0,1-3-3v-48a3.08,3.08,0,0,1,3-3h111a3.08,3.08,0,0,1,3,3v48A3.08,3.08,0,0,1,304.4,308.8Z" transform="translate(-2.77 -24.67)" fill="#fff"/><text transform="translate(250.93 261.96)" font-size="14" font-family="GoogleSans-Regular, Google Sans" style="isolation:isolate">Mi<tspan x="15.29" y="0" letter-spacing="-0.01em">x</tspan><tspan x="21.9" y="0">er</tspan></text><polygon points="201.33 272.63 228.83 272.63 211.63 277.73 201.33 272.63" fill="#466bb0"/><polygon points="201.33 270.83 211.63 269.13 211.63 250.23 201.33 270.83" fill="#466bb0"/><polygon points="213.33 269.13 228.83 270.83 213.33 236.53 213.33 269.13" fill="#476baf"/><path d="M473.8,438.2H344.9a3.08,3.08,0,0,1-3-3v-66a3.08,3.08,0,0,1,3-3H473.8a3,3,0,0,1,3,3v66A3,3,0,0,1,473.8,438.2Z" transform="translate(-2.77 -24.67)" fill="#e5e5e4"/><path d="M464.9,429.2h-111a3.08,3.08,0,0,1-3-3v-48a3.08,3.08,0,0,1,3-3h111a3,3,0,0,1,3,3v48A3.08,3.08,0,0,1,464.9,429.2Z" transform="translate(-2.77 -24.67)" fill="#fff"/><text transform="translate(406.36 382.34)" font-size="14" font-family="GoogleSans-Regular, Google Sans" style="isolation:isolate"><tspan letter-spacing="-0.01em">C</tspan><tspan x="10.23" y="0" letter-spacing="0em">i</tspan><tspan x="13.33" y="0" letter-spacing="-0.01em">t</tspan><tspan x="18.31" y="0" letter-spacing="0em">ad</tspan><tspan x="34.03" y="0">el</tspan></text><polygon points="360.03 392.13 387.53 392.13 370.33 397.23 360.03 392.13" fill="#466bb0"/><polygon points="360.03 390.33 370.33 388.63 370.33 369.73 360.03 390.33" fill="#466bb0"/><polygon points="372.03 388.63 387.53 390.33 372.03 356.03 372.03 388.63" fill="#476baf"/><path d="M313.3,437.3H184.4a3.08,3.08,0,0,1-3-3v-66a3.08,3.08,0,0,1,3-3h129a3.08,3.08,0,0,1,3,3v66A3.17,3.17,0,0,1,313.3,437.3Z" transform="translate(-2.77 -24.67)" fill="#e5e5e4"/><path d="M304.4,428.3h-111a3.08,3.08,0,0,1-3-3v-48a3.08,3.08,0,0,1,3-3h111a3.08,3.08,0,0,1,3,3v48A3.08,3.08,0,0,1,304.4,428.3Z" transform="translate(-2.77 -24.67)" fill="#fff"/><text transform="translate(248.63 381.43)" font-size="14" font-family="GoogleSans-Regular, Google Sans" style="isolation:isolate"><tspan letter-spacing="-0.01em">G</tspan><tspan x="11.17" y="0" letter-spacing="0em">al</tspan><tspan x="21.56" y="0" letter-spacing="0em">l</tspan><tspan x="24.44" y="0" letter-spacing="-0.01em">e</tspan><tspan x="32.19" y="0">y</tspan></text><polygon points="200.28 393.03 227.78 393.03 210.58 398.13 200.28 393.03" fill="#466bb0"/><polygon points="200.28 391.23 210.58 389.53 210.58 370.63 200.28 391.23" fill="#466bb0"/><polygon points="212.28 389.53 227.78 391.23 212.28 356.93 212.28 389.53" fill="#476baf"/><g style="isolation:isolate"><text transform="translate(164.33 306.47)" font-size="12" font-family="GoogleSans-Regular, Google Sans" style="isolation:isolate"><tspan letter-spacing="-0.02em">C</tspan><tspan x="8.65" y="0" letter-spacing="-0.01em">on</tspan><tspan x="22.3" y="0" letter-spacing="0em">fig</tspan><tspan x="36.47" y="0">u</tspan><tspan x="43.2" y="0" letter-spacing="-0.02em">r</tspan><tspan x="47.46" y="0" letter-spacing="-0.01em">a</tspan><tspan x="53.71" y="0" letter-spacing="0.01em">t</tspan><tspan x="58.16" y="0" letter-spacing="-0.01em">i</tspan><tspan x="60.82" y="0" letter-spacing="-0.01em">o</tspan><tspan x="67.85" y="0">n</tspan></text><text transform="translate(189.93 320.87)" font-size="12" font-family="GoogleSans-Regular, Google Sans" style="isolation:isolate"><tspan letter-spacing="0em">d</tspan><tspan x="7.16" y="0" letter-spacing="-0.01em">at</tspan><tspan x="17.69" y="0">a</tspan></text></g><g style="isolation:isolate"><text transform="translate(314.51 306.47)" font-size="12" font-family="GoogleSans-Regular, Google Sans" style="isolation:isolate">TLS <tspan x="22.09" y="0" letter-spacing="0em">c</tspan><tspan x="28.58" y="0">e</tspan><tspan x="35.34" y="0" letter-spacing="0.01em">rt</tspan><tspan x="44.34" y="0">if</tspan><tspan x="47.05" y="0" letter-spacing="-0.01em">ic</tspan><tspan x="60.61" y="0" letter-spacing="-0.01em">a</tspan><tspan x="66.86" y="0" letter-spacing="-0.02em">t</tspan><tspan x="70.99" y="0" letter-spacing="0.01em">e</tspan><tspan x="77.81" y="0">s</tspan></text><text transform="translate(329.41 320.87)" font-size="12" font-family="GoogleSans-Regular, Google Sans" letter-spacing="-0.02em" style="isolation:isolate">t<tspan x="4.13" y="0" letter-spacing="0em">o </tspan><tspan x="14.06" y="0" letter-spacing="0em">p</tspan><tspan x="21.18" y="0" letter-spacing="-0.03em">r</tspan><tspan x="25.32" y="0" letter-spacing="-0.01em">o</tspan><tspan x="32.29" y="0" letter-spacing="0em">x</tspan><tspan x="38.14" y="0" letter-spacing="0em">i</tspan><tspan x="40.79" y="0" letter-spacing="0em">e</tspan><tspan x="47.6" y="0" letter-spacing="0em">s</tspan></text></g><g style="isolation:isolate"><text transform="translate(2.8 306.47)" font-size="12" font-family="GoogleSans-Regular, Google Sans" style="isolation:isolate"><tspan letter-spacing="-0.02em">C</tspan><tspan x="8.65" y="0" letter-spacing="-0.01em">on</tspan><tspan x="22.3" y="0" letter-spacing="0em">fig</tspan><tspan x="36.47" y="0">u</tspan><tspan x="43.2" y="0" letter-spacing="-0.02em">r</tspan><tspan x="47.46" y="0" letter-spacing="-0.01em">a</tspan><tspan x="53.71" y="0" letter-spacing="0.01em">t</tspan><tspan x="58.16" y="0" letter-spacing="-0.01em">i</tspan><tspan x="60.82" y="0" letter-spacing="-0.01em">o</tspan><tspan x="67.85" y="0">n</tspan></text><text transform="translate(0 320.87)" font-size="12" font-family="GoogleSans-Regular, Google Sans" style="isolation:isolate"><tspan letter-spacing="0em">d</tspan><tspan x="7.16" y="0" letter-spacing="-0.01em">at</tspan><tspan x="17.69" y="0">a </tspan><tspan x="26.84" y="0" letter-spacing="-0.02em">t</tspan><tspan x="30.97" y="0" letter-spacing="0em">o </tspan><tspan x="40.91" y="0" letter-spacing="0em">p</tspan><tspan x="48.02" y="0" letter-spacing="-0.03em">r</tspan><tspan x="52.16" y="0" letter-spacing="-0.02em">o</tspan><tspan x="59.14" y="0" letter-spacing="0em">x</tspan><tspan x="64.98" y="0" letter-spacing="0em">i</tspan><tspan x="67.63" y="0" letter-spacing="0.01em">e</tspan><tspan x="74.45" y="0">s</tspan></text></g><text transform="translate(377.55 435.05)" font-size="14" font-family="GoogleSans-Regular, Google Sans" letter-spacing="-0.02em" style="isolation:isolate">C<tspan x="10.09" y="0" letter-spacing="-0.01em">o</tspan><tspan x="18.3" y="0" letter-spacing="-0.02em">n</tspan><tspan x="25.8" y="0" letter-spacing="0em">t</tspan><tspan x="30.93" y="0" letter-spacing="-0.03em">r</tspan><tspan x="35.76" y="0" letter-spacing="0em">o</tspan><tspan x="44.03" y="0" letter-spacing="0em">l </tspan><tspan x="50.23" y="0" letter-spacing="0em">P</tspan><tspan x="58.37" y="0" letter-spacing="0em">l</tspan><tspan x="61.25" y="0" letter-spacing="0em">ane</tspan></text><line x1="246.13" y1="340.63" x2="246.13" y2="338.63" fill="none" stroke="#476baf" stroke-miterlimit="10" stroke-width="2"/><line x1="246.13" y1="334.53" x2="246.13" y2="304.33" fill="none" stroke="#476baf" stroke-miterlimit="10" stroke-width="2" stroke-dasharray="4.03 4.03"/><line x1="246.13" y1="302.33" x2="246.13" y2="300.33" fill="none" stroke="#476baf" stroke-miterlimit="10" stroke-width="2"/><polygon points="251.13 301.73 246.13 293.13 241.13 301.73 251.13 301.73" fill="#476baf"/><line x1="178.63" y1="377.53" x2="176.63" y2="377.53" fill="none" stroke="#476baf" stroke-miterlimit="10" stroke-width="2"/><line x1="171.83" y1="377.53" x2="164.63" y2="377.53" fill="none" stroke="#476baf" stroke-miterlimit="10" stroke-width="2" stroke-dasharray="4.81 4.81"/><line x1="162.23" y1="377.53" x2="160.23" y2="377.53" fill="none" stroke="#476baf" stroke-miterlimit="10" stroke-width="2"/><polygon points="161.73 372.53 153.03 377.53 161.73 382.53 161.73 372.53" fill="#476baf"/><line x1="331.23" y1="257.13" x2="329.23" y2="257.13" fill="none" stroke="#476baf" stroke-miterlimit="10" stroke-width="2"/><line x1="324.43" y1="257.13" x2="317.23" y2="257.13" fill="none" stroke="#476baf" stroke-miterlimit="10" stroke-width="2" stroke-dasharray="4.81 4.81"/><line x1="314.83" y1="257.13" x2="312.83" y2="257.13" fill="none" stroke="#476baf" stroke-miterlimit="10" stroke-width="2"/><polygon points="329.73 252.13 338.33 257.13 329.73 262.13 329.73 252.13" fill="#476baf"/><line x1="178.63" y1="257.13" x2="176.63" y2="257.13" fill="none" stroke="#476baf" stroke-miterlimit="10" stroke-width="2"/><line x1="171.83" y1="257.13" x2="164.63" y2="257.13" fill="none" stroke="#476baf" stroke-miterlimit="10" stroke-width="2" stroke-dasharray="4.81 4.81"/><line x1="162.23" y1="257.13" x2="160.23" y2="257.13" fill="none" stroke="#476baf" stroke-miterlimit="10" stroke-width="2"/><polygon points="161.73 252.13 153.03 257.13 161.73 262.13 161.73 252.13" fill="#476baf"/><path d="M419.6,296H345a3,3,0,0,1-3-3V270.6a3.08,3.08,0,0,1,3-3h74.6a3.08,3.08,0,0,1,3,3V293A3,3,0,0,1,419.6,296Z" transform="translate(-2.77 -24.67)" fill="#e5e5e4"/><path d="M413.8,289.6H350.7a3.08,3.08,0,0,1-3-3V275.3a3.08,3.08,0,0,1,3-3h63.1a3.08,3.08,0,0,1,3,3v11.3A3,3,0,0,1,413.8,289.6Z" transform="translate(-2.77 -24.67)" fill="#fff"/><text transform="translate(362.98 259.28)" font-size="8.96" font-family="GoogleSans-Regular, Google Sans" style="isolation:isolate"><tspan letter-spacing="-0.01em">A</tspan><tspan x="5.86" y="0" letter-spacing="-0.01em">d</tspan><tspan x="11.21" y="0">a</tspan><tspan x="15.97" y="0" letter-spacing="-0.02em">p</tspan><tspan x="21.15" y="0" letter-spacing="-0.02em">t</tspan><tspan x="24.23" y="0" letter-spacing="0em">er</tspan></text><rect id="a89bc46f-eda9-4da6-873f-d673e6f86a09" data-name="background" x="339.13" y="242.93" width="10.5" height="10.5" fill="#486baf"/><polygon id="af3ffdbe-9202-4570-b47c-288da2d16cf2" data-name="hull" points="341.73 251.03 347.03 251.03 343.73 252.03 341.73 251.03" fill="#fff"/><polygon id="ea52bccc-71e8-47c7-97b7-785cc68d12f8" data-name="mainsail" points="341.73 250.73 343.73 250.43 343.73 246.83 341.73 250.73" fill="#fff"/><polygon id="b6a4f8a7-8035-41af-bd0d-ac7261852b25" data-name="headsail" points="344.03 250.43 347.03 250.73 344.03 244.23 344.03 250.43" fill="#fff"/><path d="M152.8,296H78.2a3,3,0,0,1-3-3V270.6a3,3,0,0,1,3-3h74.6a3.08,3.08,0,0,1,3,3V293A3,3,0,0,1,152.8,296Z" transform="translate(-2.77 -24.67)" fill="#e5e5e4"/><path d="M147.1,289.6H83.9a3,3,0,0,1-3-3V275.3a3,3,0,0,1,3-3H147a3.08,3.08,0,0,1,3,3v11.3A2.86,2.86,0,0,1,147.1,289.6Z" transform="translate(-2.77 -24.67)" fill="#fff"/><text transform="translate(96.25 259.28)" font-size="8.96" font-family="GoogleSans-Regular, Google Sans" style="isolation:isolate"><tspan letter-spacing="-0.01em">A</tspan><tspan x="5.86" y="0" letter-spacing="-0.01em">d</tspan><tspan x="11.21" y="0">a</tspan><tspan x="15.97" y="0" letter-spacing="-0.02em">p</tspan><tspan x="21.15" y="0" letter-spacing="-0.02em">t</tspan><tspan x="24.23" y="0" letter-spacing="0em">er</tspan></text><rect id="f572b5dd-568a-4064-a4e2-da6278c1fe5e" data-name="background" x="72.43" y="242.93" width="10.5" height="10.5" fill="#486baf"/><polygon id="b93bef24-09ed-4c82-bf24-bd90fec8f0fe" data-name="hull" points="75.03 251.03 80.23 251.03 77.03 252.03 75.03 251.03" fill="#fff"/><polygon id="e7fc0349-d7f0-4c5f-81cd-3ed6bb41ceaa" data-name="mainsail" points="75.03 250.73 77.03 250.43 77.03 246.83 75.03 250.73" fill="#fff"/><polygon id="bc9be5f3-7efe-4ae6-871f-f875fd8956ff" data-name="headsail" points="77.33 250.43 80.23 250.73 77.33 244.23 77.33 250.43" fill="#fff"/><rect x="23.84" y="5.72" width="136.06" height="136.06" rx="3" fill="#e5e5e4"/><rect x="18.13" width="136.06" height="136.06" rx="3" fill="#e5e5e4"/><rect x="27.66" y="7.58" width="117" height="40.35" rx="3" fill="#fff"/><text transform="translate(79.03 32.27)" font-size="14" font-family="GoogleSans-Regular, Google Sans">Se<tspan x="15.74" y="0" letter-spacing="0.02em">r</tspan><tspan x="21.22" y="0">v</tspan><tspan x="28.42" y="0" letter-spacing="0em">ic</tspan><tspan x="39.09" y="0">e</tspan><tspan x="46.97" y="0" letter-spacing="-0.03em"> </tspan><tspan x="49.8" y="0">A</tspan></text><circle cx="54.11" cy="27.76" r="18" fill="#767576"/><rect x="47.72" y="21.24" width="12.79" height="12.79" fill="none" stroke="#fff" stroke-linejoin="round" stroke-width="2"/><line x1="50.09" y1="21.24" x2="50.09" y2="18.16" fill="none" stroke="#fff" stroke-linecap="round" stroke-miterlimit="10" stroke-width="2"/><line x1="54.11" y1="21.24" x2="54.11" y2="18.16" fill="none" stroke="#fff" stroke-linecap="round" stroke-miterlimit="10" stroke-width="2"/><line x1="58.14" y1="21.24" x2="58.14" y2="18.16" fill="none" stroke="#fff" stroke-linecap="round" stroke-miterlimit="10" stroke-width="2"/><line x1="50.09" y1="37.35" x2="50.09" y2="34.27" fill="none" stroke="#fff" stroke-linecap="round" stroke-miterlimit="10" stroke-width="2"/><line x1="54.11" y1="37.35" x2="54.11" y2="34.27" fill="none" stroke="#fff" stroke-linecap="round" stroke-miterlimit="10" stroke-width="2"/><line x1="58.14" y1="37.35" x2="58.14" y2="34.27" fill="none" stroke="#fff" stroke-linecap="round" stroke-miterlimit="10" stroke-width="2"/><line x1="47.6" y1="31.78" x2="44.52" y2="31.78" fill="none" stroke="#fff" stroke-linecap="round" stroke-miterlimit="10" stroke-width="2"/><line x1="47.6" y1="27.76" x2="44.52" y2="27.76" fill="none" stroke="#fff" stroke-linecap="round" stroke-miterlimit="10" stroke-width="2"/><line x1="47.6" y1="23.73" x2="44.52" y2="23.73" fill="none" stroke="#fff" stroke-linecap="round" stroke-miterlimit="10" stroke-width="2"/><line x1="63.7" y1="31.78" x2="60.62" y2="31.78" fill="none" stroke="#fff" stroke-linecap="round" stroke-miterlimit="10" stroke-width="2"/><line x1="63.7" y1="27.76" x2="60.62" y2="27.76" fill="none" stroke="#fff" stroke-linecap="round" stroke-miterlimit="10" stroke-width="2"/><line x1="63.7" y1="23.73" x2="60.62" y2="23.73" fill="none" stroke="#fff" stroke-linecap="round" stroke-miterlimit="10" stroke-width="2"/><rect x="51.27" y="24.79" width="5.68" height="5.68" rx="2" fill="#fff"/><rect x="27.66" y="85.55" width="117" height="39.08" rx="3" fill="#fff"/><polygon points="67.92 112.73 67.92 97.44 54.66 89.78 41.4 97.44 41.4 112.73 54.66 120.39 67.92 112.73" fill="none" stroke="#b14d9d" stroke-linejoin="round" stroke-width="3"/><text transform="translate(91.08 109.53)" font-size="14" font-family="GoogleSans-Regular, Google Sans">P<tspan x="8.06" y="0" letter-spacing="-0.03em">r</tspan><tspan x="12.89" y="0" letter-spacing="-0.01em">o</tspan><tspan x="21.03" y="0">xy</tspan></text><rect x="337.96" y="5.72" width="136.06" height="136.06" rx="3" fill="#e5e5e4"/><rect x="332.25" width="136.06" height="136.06" rx="3" fill="#e5e5e4"/><rect x="341.78" y="7.58" width="117" height="40.35" rx="3" fill="#fff"/><text transform="translate(393.38 32.27)" font-size="14" font-family="GoogleSans-Regular, Google Sans">Se<tspan x="15.74" y="0" letter-spacing="0.02em">r</tspan><tspan x="21.22" y="0">v</tspan><tspan x="28.42" y="0" letter-spacing="0em">ic</tspan><tspan x="39.09" y="0">e B</tspan></text><circle cx="368.23" cy="27.76" r="18" fill="#767576"/><rect x="361.84" y="21.24" width="12.79" height="12.79" fill="none" stroke="#fff" stroke-linejoin="round" stroke-width="2"/><line x1="364.21" y1="21.24" x2="364.21" y2="18.16" fill="none" stroke="#fff" stroke-linecap="round" stroke-miterlimit="10" stroke-width="2"/><line x1="368.23" y1="21.24" x2="368.23" y2="18.16" fill="none" stroke="#fff" stroke-linecap="round" stroke-miterlimit="10" stroke-width="2"/><line x1="372.26" y1="21.24" x2="372.26" y2="18.16" fill="none" stroke="#fff" stroke-linecap="round" stroke-miterlimit="10" stroke-width="2"/><line x1="364.21" y1="37.35" x2="364.21" y2="34.27" fill="none" stroke="#fff" stroke-linecap="round" stroke-miterlimit="10" stroke-width="2"/><line x1="368.23" y1="37.35" x2="368.23" y2="34.27" fill="none" stroke="#fff" stroke-linecap="round" stroke-miterlimit="10" stroke-width="2"/><line x1="372.26" y1="37.35" x2="372.26" y2="34.27" fill="none" stroke="#fff" stroke-linecap="round" stroke-miterlimit="10" stroke-width="2"/><line x1="361.72" y1="31.78" x2="358.64" y2="31.78" fill="none" stroke="#fff" stroke-linecap="round" stroke-miterlimit="10" stroke-width="2"/><line x1="361.72" y1="27.76" x2="358.64" y2="27.76" fill="none" stroke="#fff" stroke-linecap="round" stroke-miterlimit="10" stroke-width="2"/><line x1="361.72" y1="23.73" x2="358.64" y2="23.73" fill="none" stroke="#fff" stroke-linecap="round" stroke-miterlimit="10" stroke-width="2"/><line x1="377.82" y1="31.78" x2="374.74" y2="31.78" fill="none" stroke="#fff" stroke-linecap="round" stroke-miterlimit="10" stroke-width="2"/><line x1="377.82" y1="27.76" x2="374.74" y2="27.76" fill="none" stroke="#fff" stroke-linecap="round" stroke-miterlimit="10" stroke-width="2"/><line x1="377.82" y1="23.73" x2="374.74" y2="23.73" fill="none" stroke="#fff" stroke-linecap="round" stroke-miterlimit="10" stroke-width="2"/><rect x="365.39" y="24.79" width="5.68" height="5.68" rx="2" fill="#fff"/><rect x="341.78" y="85.55" width="117" height="39.08" rx="3" fill="#fff"/><polygon points="382.04 112.73 382.04 97.44 368.78 89.78 355.52 97.44 355.52 112.73 368.78 120.39 382.04 112.73" fill="none" stroke="#b14d9d" stroke-linejoin="round" stroke-width="3"/><text transform="translate(405.2 109.53)" font-size="14" font-family="GoogleSans-Regular, Google Sans">P<tspan x="8.06" y="0" letter-spacing="-0.03em">r</tspan><tspan x="12.89" y="0" letter-spacing="-0.01em">o</tspan><tspan x="21.03" y="0">xy</tspan></text><line x1="87.33" y1="48.03" x2="87.33" y2="78.37" fill="none" stroke="#00a14b" stroke-miterlimit="10" stroke-width="2"/><polygon points="82.34 76.91 87.33 85.55 92.31 76.91 82.34 76.91" fill="#00a14b"/><line x1="144.66" y1="105.09" x2="334.6" y2="105.09" fill="none" stroke="#00a14b" stroke-miterlimit="10" stroke-width="2"/><polygon points="333.14 110.07 341.78 105.08 333.14 100.1 333.14 110.07" fill="#00a14b"/><line x1="400.28" y1="85.55" x2="400.28" y2="55.21" fill="none" stroke="#00a14b" stroke-miterlimit="10" stroke-width="2"/><polygon points="405.26 56.66 400.28 48.03 395.29 56.66 405.26 56.66" fill="#00a14b"/><path d="M89.87,156.41c.17.64.37,1.28.59,1.91" transform="translate(-2.77 -24.67)" fill="none" stroke="#476baf" stroke-miterlimit="10" stroke-width="2"/><path d="M92,162c11.36,22.61,52.06,35.6,83.88,35.6,34.87,0,63.07,17.41,70.84,37.35" transform="translate(-2.77 -24.67)" fill="none" stroke="#476baf" stroke-miterlimit="10" stroke-width="2" stroke-dasharray="3.94 3.94"/><path d="M247.38,236.76c.2.63.39,1.27.55,1.92" transform="translate(-2.77 -24.67)" fill="none" stroke="#476baf" stroke-miterlimit="10" stroke-width="2"/><polygon points="82.53 133.91 86.16 124.63 92.39 132.41 82.53 133.91" fill="#476baf"/><polygon points="239.87 213.33 246.08 221.13 249.73 211.85 239.87 213.33" fill="#476baf"/><path d="M249.84,238.68c.17-.64.37-1.27.59-1.9" transform="translate(-2.77 -24.67)" fill="none" stroke="#476baf" stroke-miterlimit="10" stroke-width="2"/><path d="M252,233.15c11.36-22.62,52.06-35.6,83.88-35.6,34.87,0,63.06-17.41,70.84-37.35" transform="translate(-2.77 -24.67)" fill="none" stroke="#476baf" stroke-miterlimit="10" stroke-width="2" stroke-dasharray="3.94 3.94"/><path d="M407.35,158.34c.2-.64.39-1.28.55-1.92" transform="translate(-2.77 -24.67)" fill="none" stroke="#476baf" stroke-miterlimit="10" stroke-width="2"/><polygon points="252.36 213.35 246.13 221.13 242.5 211.84 252.36 213.35" fill="#476baf"/><polygon points="409.7 133.9 406.04 124.63 399.83 132.43 409.7 133.9" fill="#476baf"/></svg>