<svg data-name="Layer 1" xmlns="http://www.w3.org/2000/svg" viewBox="0 0 480.99 441.93"><path d="M477.89 441.93H13.39a3.08 3.08 0 0 1-3-3v-59.4a3.08 3.08 0 0 1 3-3h464.6a3.08 3.08 0 0 1 3 3v59.4a3.1 3.1 0 0 1-3.1 3z" fill="#ededed"/><path d="M196.59 57.96h-.8v-4.1h-4.9v4.1h-.7v-8.5h.7v3.8h4.9v-3.8h.7v8.5zm7.9-7.9h-2.9v7.9h-.7v-7.9h-2.9v-.6h6.6v.6zm7.2 0h-2.9v7.9h-.7v-7.9h-2.9v-.6h6.6v.6zm2.1 4.5v3.5h-.7v-8.5h2.9a2.82 2.82 0 0 1 2.1.7 2.41 2.41 0 0 1 .8 1.9 2.24 2.24 0 0 1-.8 1.9 3.3 3.3 0 0 1-2.1.7h-2.2zm0-.6h2.2a2.54 2.54 0 0 0 1.6-.5 1.68 1.68 0 0 0 .6-1.4 2 2 0 0 0-.5-1.4 2.07 2.07 0 0 0-1.6-.5h-2.3zm6.4 4.8h-.6l3.6-9.3h.6zm8-.8h-.7v-7.7l-2.3.9v-.6l2.9-1.1h.1zm3.4-.4a.37.37 0 0 1 .1-.3.5.5 0 0 1 .8 0 .5.5 0 0 1 0 .6c-.1.1-.2.1-.4.1s-.3 0-.4-.1a.44.44 0 0 1-.1-.3zm6.1.4h-.7v-7.7l-2.3.9v-.6l2.9-1.1h.1zm3.4 1.6l-.4-.3a2.26 2.26 0 0 0 .5-1.5v-.9h.7v.7a2.63 2.63 0 0 1-.8 2zm11.8-1.6h-.7v-4.1h-4.9v4.1h-.7v-8.5h.7v3.8h4.9v-3.8h.7zm8-7.9h-2.9v7.9h-.7v-7.9h-2.9v-.6h6.6v.6zm7.1 0h-2.9v7.9h-.7v-7.9h-2.9v-.6h6.6v.6zm2.1 4.5v3.5h-.7v-8.5h2.9a2.82 2.82 0 0 1 2.1.7 2.41 2.41 0 0 1 .8 1.9 2.24 2.24 0 0 1-.8 1.9 3.3 3.3 0 0 1-2.1.7h-2.2zm0-.6h2.2a2.54 2.54 0 0 0 1.6-.5 1.68 1.68 0 0 0 .6-1.4 2 2 0 0 0-.5-1.4 2.07 2.07 0 0 0-1.6-.5h-2.2v3.8zm6.4 4.8h-.6l3.6-9.3h.6zm10.1-.8h-5.3v-.5l2.9-3.3a7.57 7.57 0 0 0 1-1.4 2.28 2.28 0 0 0 .3-1.1 1.9 1.9 0 0 0-.5-1.3 1.73 1.73 0 0 0-1.3-.5 2.17 2.17 0 0 0-1.4.5 1.62 1.62 0 0 0-.5 1.4h-.7a2.77 2.77 0 0 1 .3-1.3 2 2 0 0 1 .9-.9 3.19 3.19 0 0 1 1.4-.3 2.44 2.44 0 0 1 1.8.6 2.37 2.37 0 0 1 .3 3 7.83 7.83 0 0 1-1.3 1.8l-2.4 2.67h4.5zm1.3 1.6l-.4-.3a2.26 2.26 0 0 0 .5-1.5v-.9h.7v.7a2.32 2.32 0 0 1-.8 2zM200.79 68.76a3.17 3.17 0 0 1 .7-2.3 2 2 0 0 1 1.8-.9 2.22 2.22 0 0 1 2 1v-.9h.7v6.2a2.35 2.35 0 0 1-.7 1.9 2.49 2.49 0 0 1-1.9.7 3.08 3.08 0 0 1-1.3-.3 3.92 3.92 0 0 1-1-.8l.4-.4a2.27 2.27 0 0 0 1.8.9 2.17 2.17 0 0 0 1.4-.5 2 2 0 0 0 .5-1.4v-.8a2.33 2.33 0 0 1-2 1 2.27 2.27 0 0 1-1.8-.9 5.39 5.39 0 0 1-.6-2.5zm.7.1a3.31 3.31 0 0 0 .5 1.9 1.51 1.51 0 0 0 1.4.7 1.75 1.75 0 0 0 1.8-1.2v-2.93a2.18 2.18 0 0 0-.7-.9 2 2 0 0 0-1.1-.3 1.51 1.51 0 0 0-1.4.7 3.68 3.68 0 0 0-.5 2.03zm9.6-.4h-2.5v3.5h-.7v-8.5h2.8a2.82 2.82 0 0 1 2.1.7 2.34 2.34 0 0 1 .8 1.8 3 3 0 0 1-.5 1.5 3 3 0 0 1-1.3.9l2.1 3.6v.1h-.8zm-2.5-.6h2.2a2.46 2.46 0 0 0 1.5-.5 1.54 1.54 0 0 0 .5-1.3 1.68 1.68 0 0 0-.6-1.4 2.54 2.54 0 0 0-1.6-.5h-2v3.7zm7.7.7v3.5h-.7v-8.5h2.9a2.82 2.82 0 0 1 2.1.7 2.41 2.41 0 0 1 .8 1.9 2.24 2.24 0 0 1-.8 1.9 3.3 3.3 0 0 1-2.1.7h-2.2zm0-.6h2.2a2.54 2.54 0 0 0 1.6-.5 1.68 1.68 0 0 0 .6-1.4 2 2 0 0 0-.5-1.4 2.07 2.07 0 0 0-1.6-.5h-2.2v3.8zm12.7 1.37a3 3 0 0 1-1 2.1 3.07 3.07 0 0 1-2.2.7 3.37 3.37 0 0 1-1.7-.5 2.59 2.59 0 0 1-1.1-1.4 4.21 4.21 0 0 1-.4-2v-1.1a4.21 4.21 0 0 1 .4-2 4.07 4.07 0 0 1 1.2-1.4 2.62 2.62 0 0 1 1.7-.5 2.86 2.86 0 0 1 2.2.8 3.37 3.37 0 0 1 .9 2h-.7a2.26 2.26 0 0 0-2.4-2.2 2 2 0 0 0-1.8.9 3.61 3.61 0 0 0-.7 2.4v1a3.61 3.61 0 0 0 .7 2.4 2.14 2.14 0 0 0 1.8.9 2.08 2.08 0 0 0 2.4-2.1zm4.1-.6a3.81 3.81 0 0 1 .3-1.6 2.17 2.17 0 0 1 1-1.1 2.41 2.41 0 0 1 1.5-.4 2.52 2.52 0 0 1 2 .9 3.57 3.57 0 0 1 .8 2.3v.1a3.29 3.29 0 0 1-.4 1.7 2.17 2.17 0 0 1-1 1.1 2.41 2.41 0 0 1-1.5.4 2.52 2.52 0 0 1-2-.9 3.65 3.65 0 0 1-.8-2.4v-.1zm.7.2a2.88 2.88 0 0 0 .6 1.9 2 2 0 0 0 3 0 2.88 2.88 0 0 0 .6-1.9v-.1a2.77 2.77 0 0 0-.3-1.3 1.76 1.76 0 0 0-.8-.9 2 2 0 0 0-1.1-.3 1.8 1.8 0 0 0-1.5.7 2.88 2.88 0 0 0-.6 1.9h.1zm9.3-2.7h-.5a1.5 1.5 0 0 0-1.1.4 2.55 2.55 0 0 0-.7 1v4.4h-.7v-6.3h.7v1a1.83 1.83 0 0 1 1.8-1.1.9.9 0 0 1 .5.1zm10-2.2h-2.9v7.9h-.7v-7.9h-2.9v-.6h6.6v.6zm7.4 5.3a3 3 0 0 1-1 2.1 3.07 3.07 0 0 1-2.2.7 3.37 3.37 0 0 1-1.7-.5 2.59 2.59 0 0 1-1.1-1.4 4.21 4.21 0 0 1-.4-2v-1.1a4.21 4.21 0 0 1 .4-2 4.07 4.07 0 0 1 1.2-1.4 2.62 2.62 0 0 1 1.7-.5 2.86 2.86 0 0 1 2.2.8 3.37 3.37 0 0 1 .9 2h-.7a2.26 2.26 0 0 0-2.4-2.2 2 2 0 0 0-1.8.9 3.61 3.61 0 0 0-.7 2.4v1a3.61 3.61 0 0 0 .7 2.4 2.14 2.14 0 0 0 1.8.9 2.08 2.08 0 0 0 2.4-2.1zm2.5-.8v3.5h-.7v-8.5h2.9a2.82 2.82 0 0 1 2.1.7 2.41 2.41 0 0 1 .8 1.9 2.24 2.24 0 0 1-.8 1.9 3.3 3.3 0 0 1-2.1.7h-2.2zm0-.6h2.2a2.54 2.54 0 0 0 1.6-.5 1.68 1.68 0 0 0 .6-1.4 2 2 0 0 0-.5-1.4 2.07 2.07 0 0 0-1.6-.5h-2.2v3.8zm11.6.6h-2.8v-.6h2.8zm3.4 0h-2.8v-.6h2.8zM202.69 84.56l.1.5.1-.6 1.5-4.9h.6l1.5 4.8.2.7.1-.5 1.3-4.9h.7l-1.8 6.3h-.6l-1.6-5-.1-.3-.1.4-1.6 5h-.6l-1.8-6.3h.7zm8.3 1.4h-.7v-6.3h.7zm-.8-8.1a.35.35 0 0 1 .4-.4c.2 0 .3 0 .4.1a.5.5 0 0 1 0 .6c-.1.1-.2.1-.4.1s-.3 0-.3-.1a.37.37 0 0 1-.1-.3zm3.8.2v1.6h1.3v.6h-1.3v4.2a1.55 1.55 0 0 0 .2.8c.1.2.3.2.6.2a1.76 1.76 0 0 0 .6-.1v.6a1.72 1.72 0 0 1-.8.1 1.05 1.05 0 0 1-1-.4 2.13 2.13 0 0 1-.3-1.2v-4.2h-1.2v-.6h1.2v-1.6zm3.4 2.7a2 2 0 0 1 .9-.9 2.66 2.66 0 0 1 1.2-.3 1.75 1.75 0 0 1 1.5.6 2.65 2.65 0 0 1 .5 1.7v4.2h-.7v-4.2c0-.6-.1-1-.4-1.2a1.25 1.25 0 0 0-1.1-.4 1.5 1.5 0 0 0-1.1.4 3.13 3.13 0 0 0-.8 1.1v4.3h-.6v-9h.7v3.7zm8.5 2a3.81 3.81 0 0 1 .3-1.6 2.17 2.17 0 0 1 1-1.1 2.41 2.41 0 0 1 1.5-.4 2.52 2.52 0 0 1 2 .9 3.57 3.57 0 0 1 .8 2.3v.1a3.29 3.29 0 0 1-.4 1.7 2.17 2.17 0 0 1-1 1.1 2.41 2.41 0 0 1-1.5.4 2.52 2.52 0 0 1-2-.9 3.65 3.65 0 0 1-.8-2.4v-.1zm.7.2a2.88 2.88 0 0 0 .6 1.9 2 2 0 0 0 3 0 2.88 2.88 0 0 0 .6-1.9v-.1a2.77 2.77 0 0 0-.3-1.3 1.76 1.76 0 0 0-.8-.9 2 2 0 0 0-1.1-.3 1.8 1.8 0 0 0-1.5.7 2.88 2.88 0 0 0-.6 1.9h.1zm9.3-2.7h-.5a1.5 1.5 0 0 0-1.1.4 2.55 2.55 0 0 0-.7 1v4.4h-.7v-6.3h.7v1a1.83 1.83 0 0 1 1.8-1.1.9.9 0 0 1 .5.1zm5.5 4.3l.1.5.1-.6 1.5-4.9h.6l1.5 4.8.2.7.1-.6 1.3-4.9h.7l-1.8 6.3h-.6l-1.6-5-.1-.3-.1.4-1.6 5h-.6l-1.8-6.3h.7zm8.4 1.4h-.7v-6.3h.7zm-.9-8.1a.35.35 0 0 1 .4-.4c.2 0 .3 0 .4.1a.5.5 0 0 1 0 .6c-.1.1-.2.1-.4.1s-.3 0-.3-.1-.1-.2-.1-.3zm3.8.2v1.6h1.3v.6h-1.3v4.2a1.55 1.55 0 0 0 .2.8c.1.2.3.2.6.2a1.76 1.76 0 0 0 .6-.1v.6a1.72 1.72 0 0 1-.8.1 1.05 1.05 0 0 1-1-.4 2.13 2.13 0 0 1-.3-1.2v-4.2h-1.2v-.6h1.2v-1.6zm3.5 2.7a2 2 0 0 1 .9-.9 2.66 2.66 0 0 1 1.2-.3 1.75 1.75 0 0 1 1.5.6 2.65 2.65 0 0 1 .5 1.7v4.2h-.7v-4.2c0-.6-.1-1-.4-1.2a1.25 1.25 0 0 0-1.1-.4 1.5 1.5 0 0 0-1.1.4 3.13 3.13 0 0 0-.8 1.1v4.3h-.7v-9h.7zm5.5 2a3.81 3.81 0 0 1 .3-1.6 2.17 2.17 0 0 1 1-1.1 2.41 2.41 0 0 1 1.5-.4 2.52 2.52 0 0 1 2 .9 3.57 3.57 0 0 1 .8 2.3v.1a3.29 3.29 0 0 1-.4 1.7 2.17 2.17 0 0 1-1 1.1 2.41 2.41 0 0 1-1.5.4 2.52 2.52 0 0 1-2-.9 3.65 3.65 0 0 1-.8-2.4v-.1zm.7.2a2.88 2.88 0 0 0 .6 1.9 2 2 0 0 0 3 0 2.88 2.88 0 0 0 .6-1.9v-.1a2.77 2.77 0 0 0-.3-1.3 1.76 1.76 0 0 0-.8-.9 2.28 2.28 0 0 0-1.1-.3 1.8 1.8 0 0 0-1.5.7 2.88 2.88 0 0 0-.6 1.9h.1zm10.5 2.2a2.26 2.26 0 0 1-2 .9 1.75 1.75 0 0 1-1.5-.6 3 3 0 0 1-.5-1.8v-4.1h.7v4q0 1.8 1.5 1.8a1.72 1.72 0 0 0 1.9-1.2v-4.6h.7v6.3h-.7v-.7zm3.6-7.1v1.6h1.3v.6h-1.3v4.2a1.55 1.55 0 0 0 .2.8c.1.2.3.2.6.2a1.76 1.76 0 0 0 .6-.1v.6a1.72 1.72 0 0 1-.8.1 1.05 1.05 0 0 1-1-.4 2.13 2.13 0 0 1-.3-1.2v-4.2h-1.2v-.6h1.2v-1.6zM225.19 93.66v1a2 2 0 0 1 .9-.9 2.38 2.38 0 0 1 1.2-.3 1.8 1.8 0 0 1 1.9 1.2 2 2 0 0 1 .9-.9 2.66 2.66 0 0 1 1.2-.3c1.4 0 2.1.7 2.1 2.2v4.2h-.6v-4.2a1.7 1.7 0 0 0-.4-1.3c-.2-.3-.6-.4-1.2-.4a2.11 2.11 0 0 0-1.3.5 2.28 2.28 0 0 0-.6 1.2v4.2h-.7v-4.2a1.59 1.59 0 0 0-.4-1.2c-.2-.3-.6-.4-1.2-.4a1.5 1.5 0 0 0-1.1.4 2.33 2.33 0 0 0-.7 1.1v4.3h-.7v-6.3h.7zm16-1.6h-2.9v7.9h-.7v-7.9h-2.9v-.6h6.6v.6zm2.1 7.3h4.2v.6h-4.9v-8.5h.7zm10.4-1.5a1.29 1.29 0 0 0-.5-1.1 5.13 5.13 0 0 0-1.8-.8 4.89 4.89 0 0 1-1.9-.8 1.92 1.92 0 0 1-.9-1.6 2.09 2.09 0 0 1 .8-1.6 3.28 3.28 0 0 1 2.1-.6 3.34 3.34 0 0 1 1.5.3 2.19 2.19 0 0 1 1 .9 2.84 2.84 0 0 1 .4 1.3h-.7a1.68 1.68 0 0 0-.6-1.4 2.07 2.07 0 0 0-1.6-.5 2.54 2.54 0 0 0-1.6.4 1.38 1.38 0 0 0-.6 1.1 1.61 1.61 0 0 0 .5 1.1 4.57 4.57 0 0 0 1.7.7 4.57 4.57 0 0 1 1.7.7 2.36 2.36 0 0 1 .9.8 2 2 0 0 1 .3 1.1 1.94 1.94 0 0 1-.8 1.6 3.28 3.28 0 0 1-2.1.6 4.67 4.67 0 0 1-1.7-.3 2.41 2.41 0 0 1-1.5-2.2h.7a1.51 1.51 0 0 0 .7 1.4 3 3 0 0 0 1.8.5 2.54 2.54 0 0 0 1.6-.4 1.43 1.43 0 0 0 .6-1.2z" fill="#434343"/><path d="M85.19 341.53v-54" fill-opacity="0" fill-rule="evenodd"/><path fill="none" stroke="#476baf" stroke-miterlimit="10" stroke-width="2" d="M85.19 341.53v-2"/><path fill="none" stroke="#476baf" stroke-miterlimit="10" stroke-width="2" stroke-dasharray="4.37 4.37" d="M85.19 335.13v-32.8"/><path fill="none" stroke="#476baf" stroke-miterlimit="10" stroke-width="2" d="M85.19 300.13v-2"/><path fill="#476baf" d="M90.19 299.63l-5-8.6-5 8.6h10z"/><path d="M85.19 341.53l42.1-24.3" fill-opacity="0" fill-rule="evenodd"/><path fill="none" stroke="#476baf" stroke-miterlimit="10" stroke-width="2" d="M85.19 341.53l1.7-1"/><path fill="none" stroke="#476baf" stroke-miterlimit="10" stroke-width="2" stroke-dasharray="3.78 3.78" d="M90.19 338.63l24.6-14.2"/><path fill="none" stroke="#476baf" stroke-miterlimit="10" stroke-width="2" d="M116.39 323.53l1.7-1"/><path fill="#476baf" d="M119.39 327.53l4.9-8.6h-9.9l5 8.6z"/><path fill="none" stroke="#476baf" stroke-miterlimit="10" stroke-width="2" d="M406.19 340.63v-2"/><path fill="none" stroke="#476baf" stroke-miterlimit="10" stroke-width="2" stroke-dasharray="3.72 3.72" d="M406.19 334.83v-27.8"/><path fill="none" stroke="#476baf" stroke-miterlimit="10" stroke-width="2" d="M406.19 305.13v-2"/><path fill="#476baf" d="M411.09 304.63l-4.9-8.7-5 8.7h9.9z"/><path fill="none" stroke="#476baf" stroke-miterlimit="10" stroke-width="2" d="M406.19 340.63l-2-.6"/><path fill="none" stroke="#476baf" stroke-miterlimit="10" stroke-width="2" stroke-dasharray="3.65 3.65" d="M400.69 339.13l-33.5-9"/><path fill="none" stroke="#476baf" stroke-miterlimit="10" stroke-width="2" d="M365.49 329.63l-1.9-.5"/><path fill="#476baf" d="M366.29 324.73l-9.7 2.6 7.1 7 2.6-9.6z"/><path d="M213.59 161.78v3.3h-1.1v-8.5h3.2a3.07 3.07 0 0 1 2.2.7 2.56 2.56 0 0 1 .8 1.9 2.41 2.41 0 0 1-.8 1.9 3.39 3.39 0 0 1-2.2.7zm0-.9h2a2 2 0 0 0 1.4-.4 1.69 1.69 0 0 0 0-2.4 1.9 1.9 0 0 0-1.3-.5h-2.1v3.3zm6 1a3.29 3.29 0 0 1 .4-1.7 2.17 2.17 0 0 1 1-1.1 2.41 2.41 0 0 1 1.5-.4 2.58 2.58 0 0 1 2.1.9 3.65 3.65 0 0 1 .8 2.4v.1a3.29 3.29 0 0 1-.4 1.7 2.94 2.94 0 0 1-1 1.2 2.41 2.41 0 0 1-1.5.4 2.58 2.58 0 0 1-2.1-.9 3.69 3.69 0 0 1-.8-2.6zm1.1.2a2.86 2.86 0 0 0 .5 1.7 1.61 1.61 0 0 0 1.3.6 1.49 1.49 0 0 0 1.3-.6 3 3 0 0 0 .5-1.8 3.1 3.1 0 0 0-.5-1.7 1.71 1.71 0 0 0-1.3-.7 1.61 1.61 0 0 0-1.3.6 2.85 2.85 0 0 0-.5 1.9zm7.2 3.1h-1.1v-9h1.1zm2.9 0h-1.1v-6.3h1.1zm-1.2-8.1c0-.2.1-.3.2-.5a.7.7 0 0 1 1.2.5.52.52 0 0 1-.2.4.72.72 0 0 1-1 0c-.1 0-.2-.15-.2-.4zm5.5 7.3a1.69 1.69 0 0 0 1-.3 1.05 1.05 0 0 0 .5-.9h1a1.78 1.78 0 0 1-.4 1 2.36 2.36 0 0 1-.9.8 2.66 2.66 0 0 1-1.2.3 2.58 2.58 0 0 1-2.1-.9 3.65 3.65 0 0 1-.8-2.4v-.2a3.81 3.81 0 0 1 .3-1.6 2.66 2.66 0 0 1 1-1.1 2.41 2.41 0 0 1 1.5-.4 2.79 2.79 0 0 1 1.8.6 2.49 2.49 0 0 1 .8 1.7h-1a1.23 1.23 0 0 0-.5-1 1.28 1.28 0 0 0-1-.4 1.49 1.49 0 0 0-1.3.6 2.86 2.86 0 0 0-.5 1.7v.2a2.86 2.86 0 0 0 .5 1.7 1.49 1.49 0 0 0 1.3.6zm5.8-.8l1.5-4.8h1.2l-2.5 7.3c-.4 1.1-1 1.6-1.9 1.6h-.2l-.4-.1v-.9h.3a2 2 0 0 0 .9-.2 1.23 1.23 0 0 0 .5-.8l.2-.7-2.3-6.3h1.2zm9.1.8a1.69 1.69 0 0 0 1-.3 1.05 1.05 0 0 0 .5-.9h1a1.78 1.78 0 0 1-.4 1 2.36 2.36 0 0 1-.9.8 2.66 2.66 0 0 1-1.2.3 2.58 2.58 0 0 1-2.1-.9 3.65 3.65 0 0 1-.8-2.4v-.2a3.81 3.81 0 0 1 .3-1.6 2.66 2.66 0 0 1 1-1.1 2.41 2.41 0 0 1 1.5-.4 2.79 2.79 0 0 1 1.8.6 2.49 2.49 0 0 1 .8 1.7h-1a1.23 1.23 0 0 0-.5-1 1.28 1.28 0 0 0-1-.4 1.49 1.49 0 0 0-1.3.6 2.86 2.86 0 0 0-.5 1.7v.2a2.86 2.86 0 0 0 .5 1.7 1.61 1.61 0 0 0 1.3.6zm4.8-4.8a2.32 2.32 0 0 1 1.9-.9c1.3 0 2 .8 2 2.3v4.2h-1.1v-4.2a1.49 1.49 0 0 0-.3-1 1.33 1.33 0 0 0-1-.3 1.22 1.22 0 0 0-.9.3 1.34 1.34 0 0 0-.6.7v4.5h-1.1v-9h1.1v3.4zm8.2 5.7a2.86 2.86 0 0 1-2.1-.8 3.37 3.37 0 0 1-.8-2.3v-.2a3.29 3.29 0 0 1 .4-1.7 2.94 2.94 0 0 1 1-1.2 2.3 2.3 0 0 1 1.4-.4 2.41 2.41 0 0 1 1.9.8 3.17 3.17 0 0 1 .7 2.3v.5h-4.3a2.46 2.46 0 0 0 .5 1.5 1.76 1.76 0 0 0 1.3.6 3 3 0 0 0 1-.2 4.35 4.35 0 0 0 .7-.6l.7.5a2.62 2.62 0 0 1-2.4 1.25zm-.1-5.7a1.61 1.61 0 0 0-1.1.5 1.9 1.9 0 0 0-.5 1.3h3.2v-.05a1.73 1.73 0 0 0-.5-1.3 1.5 1.5 0 0 0-1.1-.45zm6.4 4.8a1.69 1.69 0 0 0 1-.3 1.05 1.05 0 0 0 .5-.9h1a1.78 1.78 0 0 1-.4 1 2.36 2.36 0 0 1-.9.8 2.66 2.66 0 0 1-1.2.3 2.58 2.58 0 0 1-2.1-.9 3.65 3.65 0 0 1-.8-2.4v-.2a3.81 3.81 0 0 1 .3-1.6 2.66 2.66 0 0 1 1-1.1 2.41 2.41 0 0 1 1.5-.4 2.79 2.79 0 0 1 1.8.6 2.49 2.49 0 0 1 .8 1.7h-1a1.23 1.23 0 0 0-.5-1 1.28 1.28 0 0 0-1-.4 1.49 1.49 0 0 0-1.3.6 2.86 2.86 0 0 0-.5 1.7v.2a2.86 2.86 0 0 0 .5 1.7 1.49 1.49 0 0 0 1.3.6zm5.5-2.2l-.7.7v2.2h-1.1v-9h1.1v5.4l.6-.7 2-2.1h1.3l-2.5 2.7 2.8 3.7h-1.3zm8 1.3a.91.91 0 0 0-.3-.7 2.35 2.35 0 0 0-1.2-.4 10.38 10.38 0 0 1-1.3-.4 2.17 2.17 0 0 1-.7-.6 1.88 1.88 0 0 1-.2-.8 1.46 1.46 0 0 1 .7-1.3 2.31 2.31 0 0 1 1.7-.5 2.35 2.35 0 0 1 1.7.6 1.91 1.91 0 0 1 .7 1.4h-1.1a1 1 0 0 0-.4-.8 1.4 1.4 0 0 0-.9-.3 1.22 1.22 0 0 0-.9.3.91.91 0 0 0-.3.7.6.6 0 0 0 .3.6 4.33 4.33 0 0 0 1.1.4 10.38 10.38 0 0 1 1.3.4 2.17 2.17 0 0 1 .7.6c.2.2.2.5.2.9a1.62 1.62 0 0 1-.7 1.4 3 3 0 0 1-1.8.5 3.19 3.19 0 0 1-1.4-.3 1.76 1.76 0 0 1-.9-.8 1.93 1.93 0 0 1-.3-1h1.1a1.27 1.27 0 0 0 .4.9 1.8 1.8 0 0 0 1.1.3 3 3 0 0 0 1-.2c.2-.4.4-.6.4-.9zm2.4 3.4l-.6-.4a2.45 2.45 0 0 0 .6-1.6v-1h1.1v.8a2.66 2.66 0 0 1-.3 1.2 3.92 3.92 0 0 1-.8 1zM226.39 171.33v1.5h1.2v.8h-1.2v3.9a.85.85 0 0 0 .2.6.76.76 0 0 0 .5.2 1.09 1.09 0 0 0 .5-.1v.9a2.49 2.49 0 0 1-.8.1 1.37 1.37 0 0 1-1.1-.4 2.23 2.23 0 0 1-.4-1.3v-3.9h-1.2v-.8h1.2v-1.5zm5.1 8a2.86 2.86 0 0 1-2.1-.8 3.37 3.37 0 0 1-.8-2.3v-.2a3.29 3.29 0 0 1 .4-1.7 2.94 2.94 0 0 1 1-1.2 2.3 2.3 0 0 1 1.4-.4 2.41 2.41 0 0 1 1.9.8 3.17 3.17 0 0 1 .7 2.3v.5h-4.3a2.46 2.46 0 0 0 .5 1.5 1.76 1.76 0 0 0 1.3.6 3 3 0 0 0 1-.2 4.35 4.35 0 0 0 .7-.6l.7.5a2.85 2.85 0 0 1-2.4 1.2zm-.2-5.7a1.61 1.61 0 0 0-1.1.5 1.9 1.9 0 0 0-.5 1.3h3.2v-.1a1.73 1.73 0 0 0-.5-1.3 1.25 1.25 0 0 0-1.1-.45zm5.1 5.6h-1.1v-9h1.1zm4.3.1a2.86 2.86 0 0 1-2.1-.8 3.37 3.37 0 0 1-.8-2.3v-.2a3.29 3.29 0 0 1 .4-1.7 2.94 2.94 0 0 1 1-1.2 2.3 2.3 0 0 1 1.4-.4 2.41 2.41 0 0 1 1.9.8 3.17 3.17 0 0 1 .7 2.3v.5h-4.3a2.46 2.46 0 0 0 .5 1.5 1.76 1.76 0 0 0 1.3.6 3 3 0 0 0 1-.2 4.35 4.35 0 0 0 .7-.6l.7.5a2.62 2.62 0 0 1-2.4 1.2zm-.1-5.7a1.61 1.61 0 0 0-1.1.5 1.9 1.9 0 0 0-.5 1.3h3.2v-.1a1.73 1.73 0 0 0-.5-1.3 1.37 1.37 0 0 0-1.1-.45zm4.9-.8v.7a2.56 2.56 0 0 1 1.9-.8 1.73 1.73 0 0 1 1.8 1 2.7 2.7 0 0 1 .8-.7 2.13 2.13 0 0 1 1.2-.3c1.4 0 2.1.7 2.1 2.2v4.2h-1.1v-4.1a1.1 1.1 0 0 0-1.3-1.3 1.28 1.28 0 0 0-1 .4 1.6 1.6 0 0 0-.5 1v4.2h-1.1v-4.3a1.27 1.27 0 0 0-1.4-1.4 1.55 1.55 0 0 0-1.5.9v4.6h-1.1v-6.3zm12.1 6.5a2.86 2.86 0 0 1-2.1-.8 3.37 3.37 0 0 1-.8-2.3v-.2a3.29 3.29 0 0 1 .4-1.7 2.94 2.94 0 0 1 1-1.2 2.3 2.3 0 0 1 1.4-.4 2.41 2.41 0 0 1 1.9.8 3.17 3.17 0 0 1 .7 2.3v.5h-4.3a2.46 2.46 0 0 0 .5 1.5 1.76 1.76 0 0 0 1.3.6 3 3 0 0 0 1-.2 4.35 4.35 0 0 0 .7-.6l.7.5a2.62 2.62 0 0 1-2.4 1.2zm-.1-5.7a1.61 1.61 0 0 0-1.1.5 1.9 1.9 0 0 0-.5 1.3h3.2v-.1a1.73 1.73 0 0 0-.5-1.3 1.5 1.5 0 0 0-1.1-.45zm5.3-2.3v1.5h1.2v.8h-1.2v3.9a.85.85 0 0 0 .2.6.76.76 0 0 0 .5.2 1.09 1.09 0 0 0 .5-.1v.9a2.49 2.49 0 0 1-.8.1 1.37 1.37 0 0 1-1.1-.4 2.23 2.23 0 0 1-.4-1.3v-3.9h-1.2v-.8h1.2v-1.5zm5.5 2.5h-.5a1.55 1.55 0 0 0-1.5.9v4.5h-1.1v-6.3h1v.7a1.66 1.66 0 0 1 1.5-.8.75.75 0 0 1 .5.1v.9zm3.1 3.8l1.5-4.8h1.2l-2.5 7.3c-.4 1.1-1 1.6-1.9 1.6h-.2l-.4-.1v-.9h.3a2 2 0 0 0 .9-.2 1.23 1.23 0 0 0 .5-.8l.2-.7-2.3-6.3h1.2z" fill="#434343"/><path d="M149.59 413.53H20.69a3.08 3.08 0 0 1-3-3v-66a3.08 3.08 0 0 1 3-3h128.9a3.08 3.08 0 0 1 3 3v66a3 3 0 0 1-3 3z" fill="#e5e5e4"/><path d="M140.69 404.53h-111a3.08 3.08 0 0 1-3-3v-48a3.08 3.08 0 0 1 3-3h111a3.08 3.08 0 0 1 3 3v48a3.08 3.08 0 0 1-3 3z" fill="#fff"/><g style="isolation:isolate"><path d="M94.91 372.33h3.38a3.28 3.28 0 0 1 1.55.37 3 3 0 0 1 1.14 1.06 2.82 2.82 0 0 1 .43 1.54 2.78 2.78 0 0 1-.43 1.53 2.89 2.89 0 0 1-1.14 1.05 3.18 3.18 0 0 1-1.55.38h-2.2v4.07h-1.18zm3.4 4.8a1.79 1.79 0 0 0 1-.27 1.82 1.82 0 0 0 .67-.68 1.82 1.82 0 0 0 0-1.77 1.82 1.82 0 0 0-.67-.68 1.79 1.79 0 0 0-1-.27h-2.22v3.67zM102.84 373.65a.83.83 0 0 1-.26-.61.79.79 0 0 1 .26-.59.81.81 0 0 1 .6-.24.85.85 0 0 1 .6.24.78.78 0 0 1 .25.59.85.85 0 0 1-.24.61.86.86 0 0 1-.61.25.82.82 0 0 1-.6-.25zm0 1.55h1.18v7.13h-1.18zM105.9 372.33h1.19v10h-1.19zM110.19 382.06a3.52 3.52 0 0 1-1.31-1.37 4.16 4.16 0 0 1 0-3.84 3.52 3.52 0 0 1 1.31-1.37 3.82 3.82 0 0 1 3.78 0 3.5 3.5 0 0 1 1.3 1.37 4.16 4.16 0 0 1 0 3.84 3.5 3.5 0 0 1-1.3 1.37 3.82 3.82 0 0 1-3.78 0zm3.11-.9a2.45 2.45 0 0 0 .91-.95 3.22 3.22 0 0 0 0-2.88 2.45 2.45 0 0 0-.91-.95 2.4 2.4 0 0 0-1.22-.33 2.48 2.48 0 0 0-1.24.33 2.45 2.45 0 0 0-.91.95 3.14 3.14 0 0 0 0 2.88 2.45 2.45 0 0 0 .91.95 2.48 2.48 0 0 0 1.24.33 2.4 2.4 0 0 0 1.22-.33zM118.86 382.42a1.73 1.73 0 0 1-1-1 2.27 2.27 0 0 1-.14-.87v-4.22h-1.25v-1.08h1.25v-2h1.19v2h1.73v1.08h-1.73v4a1.41 1.41 0 0 0 .22.88 1 1 0 0 0 .77.32 1.43 1.43 0 0 0 .78-.24v1.16a1.39 1.39 0 0 1-.42.14 2.92 2.92 0 0 1-.56 0 2.1 2.1 0 0 1-.84-.17z"/></g><path fill="#466bb0" d="M39.93 393.03h27.5l-17.2 5.1-10.3-5.1zM39.93 391.23l10.3-1.7v-18.9l-10.3 20.6z"/><path fill="#476baf" d="M51.93 389.53l15.5 1.7-15.5-34.3v32.6z"/><path d="M310.09 293.13h-128.9a3.08 3.08 0 0 1-3-3v-66a3.08 3.08 0 0 1 3-3h128.9a3.08 3.08 0 0 1 3 3v66a3 3 0 0 1-3 3z" fill="#e5e5e4"/><path d="M301.19 284.13h-111a3.08 3.08 0 0 1-3-3v-48a3.08 3.08 0 0 1 3-3h111a3.08 3.08 0 0 1 3 3v48a3.08 3.08 0 0 1-3 3z" fill="#fff"/><g style="isolation:isolate"><path d="M251.61 251.93h1.72l3.2 8.22h.05l3.2-8.22h1.72v10h-1.18v-6.37l.06-1.91h-.06l-3.28 8.28h-1l-3.25-8.25h-.06l.06 1.91v6.37h-1.18zM263.6 253.26a.83.83 0 0 1-.26-.6.79.79 0 0 1 .26-.59.8.8 0 0 1 .6-.25.82.82 0 0 1 .6.25.78.78 0 0 1 .25.59.85.85 0 0 1-.24.6.82.82 0 0 1-.61.25.8.8 0 0 1-.6-.25zm0 1.56h1.19v7.14h-1.18zM268.48 258.33l-2.48-3.51h1.35l1.85 2.64 1.77-2.64h1.39l-2.49 3.51 2.55 3.63h-1.39l-1.86-2.75-1.82 2.75h-1.39zM274.62 261.69a3.37 3.37 0 0 1-1.27-1.35 4 4 0 0 1-.46-1.94 4.31 4.31 0 0 1 .43-1.9 3.47 3.47 0 0 1 1.21-1.39 3.26 3.26 0 0 1 1.82-.52 3.45 3.45 0 0 1 1.82.47 3.09 3.09 0 0 1 1.18 1.3 4.11 4.11 0 0 1 .42 1.89 1.25 1.25 0 0 1-.05.36h-5.64a2.87 2.87 0 0 0 .39 1.37 2.23 2.23 0 0 0 .89.84 2.39 2.39 0 0 0 1.13.28 2.31 2.31 0 0 0 2.11-1.28l1 .48a3.63 3.63 0 0 1-1.25 1.38 3.53 3.53 0 0 1-1.91.5 3.44 3.44 0 0 1-1.82-.49zm3.89-4.06a2.27 2.27 0 0 0-.26-.89 1.81 1.81 0 0 0-.7-.76 2.18 2.18 0 0 0-1.21-.31 2 2 0 0 0-1.42.54 2.57 2.57 0 0 0-.77 1.42zM281.15 254.82h1.14v1.14h.05a1.93 1.93 0 0 1 .81-1 2.26 2.26 0 0 1 1.26-.4 1.94 1.94 0 0 1 .84.16v1.27a2.16 2.16 0 0 0-1-.22 1.72 1.72 0 0 0-1 .29 2.12 2.12 0 0 0-.69.79 2.36 2.36 0 0 0-.26 1.08v4h-1.19z"/></g><path fill="#466bb0" d="M200.89 272.63h27.5l-17.2 5.1-10.3-5.1zM200.89 270.83l10.3-1.7v-18.9l-10.3 20.6z"/><path fill="#476baf" d="M212.89 269.13l15.5 1.7-15.5-34.3v32.6z"/><path d="M470.59 413.53h-128.9a3.08 3.08 0 0 1-3-3v-66a3.08 3.08 0 0 1 3-3h128.9a3 3 0 0 1 3 3v66a3 3 0 0 1-3 3z" fill="#e5e5e4"/><path d="M461.69 404.53h-111a3.08 3.08 0 0 1-3-3v-48a3.08 3.08 0 0 1 3-3h111a3 3 0 0 1 3 3v48a3.08 3.08 0 0 1-3 3z" fill="#fff"/><g style="isolation:isolate"><path d="M409.11 381.88a5 5 0 0 1-1.87-1.88 5.58 5.58 0 0 1 0-5.34 4.9 4.9 0 0 1 1.87-1.88 5.15 5.15 0 0 1 2.64-.69 4.92 4.92 0 0 1 2.05.43 4.79 4.79 0 0 1 1.62 1.21l-.85.83a3.77 3.77 0 0 0-1.26-1 3.51 3.51 0 0 0-1.56-.32 4 4 0 0 0-2 .51 3.78 3.78 0 0 0-1.45 1.44 4.55 4.55 0 0 0 0 4.3 3.78 3.78 0 0 0 1.45 1.44 4 4 0 0 0 2 .51 3.9 3.9 0 0 0 3.09-1.5l.87.84a5 5 0 0 1-1.72 1.31 5.2 5.2 0 0 1-2.24.48 5.14 5.14 0 0 1-2.64-.69zM417.14 373.65a.82.82 0 0 1-.25-.61.78.78 0 0 1 .25-.59.85.85 0 0 1 .6-.24.81.81 0 0 1 .6.24.79.79 0 0 1 .26.59.86.86 0 0 1-.25.61.83.83 0 0 1-.61.25.86.86 0 0 1-.6-.25zm0 1.55h1.17v7.13h-1.17zM422.08 382.42a1.8 1.8 0 0 1-.63-.38 1.93 1.93 0 0 1-.42-.63 2.48 2.48 0 0 1-.14-.87v-4.21h-1.24v-1.08h1.24v-2h1.19v2h1.71v1.08h-1.74v4a1.4 1.4 0 0 0 .23.88.94.94 0 0 0 .77.32 1.43 1.43 0 0 0 .78-.24v1.16a1.36 1.36 0 0 1-.43.14 2.75 2.75 0 0 1-.55 0 2.07 2.07 0 0 1-.77-.17zM426 382.26a2.38 2.38 0 0 1-.95-.85 2.31 2.31 0 0 1-.33-1.23 2.09 2.09 0 0 1 .85-1.77 3.54 3.54 0 0 1 2.16-.63 4.57 4.57 0 0 1 1.19.14 3.1 3.1 0 0 1 .85.32v-.44a1.63 1.63 0 0 0-.56-1.28 2.1 2.1 0 0 0-1.41-.48 2.42 2.42 0 0 0-1.11.26 2 2 0 0 0-.8.72l-.89-.67a2.83 2.83 0 0 1 1.15-1 3.65 3.65 0 0 1 1.63-.36 3.26 3.26 0 0 1 2.29.76 2.66 2.66 0 0 1 .83 2.08v4.5h-1.11v-1h-.06a2.52 2.52 0 0 1-.92.88 2.69 2.69 0 0 1-1.39.36 3.16 3.16 0 0 1-1.42-.31zm2.64-1.05a2.33 2.33 0 0 0 .82-.83 2.11 2.11 0 0 0 .31-1.13 3 3 0 0 0-.83-.37 3.82 3.82 0 0 0-1-.14 2.29 2.29 0 0 0-1.48.41 1.3 1.3 0 0 0-.5 1.05 1.16 1.16 0 0 0 .45.95 1.76 1.76 0 0 0 1.13.36 2.22 2.22 0 0 0 1.1-.3zM433.79 382.08a3.35 3.35 0 0 1-1.22-1.36 4.43 4.43 0 0 1 0-3.89 3.29 3.29 0 0 1 1.22-1.36 3.14 3.14 0 0 1 1.73-.49 2.87 2.87 0 0 1 1.47.37 2.7 2.7 0 0 1 1 .91h.06l-.06-1v-2.93h1.19v10h-1.13v-1h-.06a2.6 2.6 0 0 1-1 .9 2.87 2.87 0 0 1-1.47.37 3.22 3.22 0 0 1-1.73-.52zm3-.93a2.43 2.43 0 0 0 .87-.95 3.26 3.26 0 0 0 0-2.86 2.5 2.5 0 0 0-.87-.95 2.17 2.17 0 0 0-2.33 0 2.41 2.41 0 0 0-.88 1 3.22 3.22 0 0 0 0 2.84 2.35 2.35 0 0 0 .88 1 2.17 2.17 0 0 0 2.33 0zM442.19 382.08a3.4 3.4 0 0 1-1.27-1.36 4.1 4.1 0 0 1-.45-1.93 4.31 4.31 0 0 1 .42-1.91 3.45 3.45 0 0 1 1.21-1.38 3.21 3.21 0 0 1 1.82-.52 3.36 3.36 0 0 1 1.82.47 3.09 3.09 0 0 1 1.19 1.29 4.24 4.24 0 0 1 .41 1.89 1.4 1.4 0 0 1 0 .37h-5.64a2.69 2.69 0 0 0 .39 1.37 2.31 2.31 0 0 0 .89.84 2.48 2.48 0 0 0 1.12.28 2.33 2.33 0 0 0 2.12-1.29l1 .49a3.62 3.62 0 0 1-1.26 1.37 3.42 3.42 0 0 1-1.91.5 3.52 3.52 0 0 1-1.86-.48zm3.89-4.07a2.35 2.35 0 0 0-.25-.89 2 2 0 0 0-.71-.76 2.26 2.26 0 0 0-1.21-.31 2 2 0 0 0-1.42.54 2.59 2.59 0 0 0-.76 1.42zM448.73 372.33h1.18v10h-1.18z"/></g><path fill="#466bb0" d="M359.6 392.13h27.5l-17.21 5.1-10.29-5.1zM359.6 390.33l10.29-1.7v-18.9l-10.29 20.6z"/><path fill="#476baf" d="M371.6 388.63l15.5 1.7-15.5-34.3v32.6z"/><path d="M310.09 412.63h-128.9a3.08 3.08 0 0 1-3-3v-66a3.08 3.08 0 0 1 3-3h129a3.08 3.08 0 0 1 3 3v66a3.17 3.17 0 0 1-3.1 3z" fill="#e5e5e4"/><path d="M301.19 403.63h-111a3.08 3.08 0 0 1-3-3v-48a3.08 3.08 0 0 1 3-3h111a3.08 3.08 0 0 1 3 3v48a3.08 3.08 0 0 1-3 3z" fill="#fff"/><g style="isolation:isolate"><path d="M251.42 380.97a5 5 0 0 1-1.89-1.89 5.4 5.4 0 0 1 0-5.32 5 5 0 0 1 1.89-1.89 5.08 5.08 0 0 1 2.6-.69 5.54 5.54 0 0 1 2.08.39 4.33 4.33 0 0 1 1.6 1.11l-.85.85a3.09 3.09 0 0 0-1.22-.9 4.18 4.18 0 0 0-3.58.2 3.9 3.9 0 0 0-1.47 1.44 4.48 4.48 0 0 0 0 4.3 3.93 3.93 0 0 0 1.48 1.44 4 4 0 0 0 2 .51 4 4 0 0 0 1.68-.31 3.8 3.8 0 0 0 1.17-.84 3.07 3.07 0 0 0 .59-.94 4.26 4.26 0 0 0 .28-1.23h-3.71v-1.1h4.82a4.76 4.76 0 0 1 .06.72 5.47 5.47 0 0 1-.29 1.8 3.89 3.89 0 0 1-.94 1.54 4.79 4.79 0 0 1-3.68 1.49 5.07 5.07 0 0 1-2.62-.68zM261.13 381.33a2.38 2.38 0 0 1-.95-.85 2.32 2.32 0 0 1-.34-1.23 2.1 2.1 0 0 1 .86-1.77 3.53 3.53 0 0 1 2.15-.63 4.59 4.59 0 0 1 1.2.14 3.1 3.1 0 0 1 .85.32v-.44a1.63 1.63 0 0 0-.56-1.28 2.1 2.1 0 0 0-1.42-.48 2.41 2.41 0 0 0-1.1.26 2 2 0 0 0-.8.72l-.9-.67a2.92 2.92 0 0 1 1.16-1 3.65 3.65 0 0 1 1.63-.36 3.26 3.26 0 0 1 2.29.76 2.7 2.7 0 0 1 .83 2.08v4.52h-1.13v-1h-.06a2.52 2.52 0 0 1-.92.88 2.69 2.69 0 0 1-1.39.36 3.16 3.16 0 0 1-1.4-.33zm2.63-1a2.28 2.28 0 0 0 .83-.83 2.14 2.14 0 0 0 .31-1.13 3.19 3.19 0 0 0-.83-.37 3.82 3.82 0 0 0-1-.14 2.29 2.29 0 0 0-1.48.41 1.3 1.3 0 0 0-.5 1 1.16 1.16 0 0 0 .45 1 1.76 1.76 0 0 0 1.13.36 2.16 2.16 0 0 0 1.12-.3zM267.68 371.41h1.19v10h-1.19zM270.64 371.41h1.15v10h-1.19zM274.87 381.16a3.31 3.31 0 0 1-1.27-1.35 4.12 4.12 0 0 1-.46-1.94 4.31 4.31 0 0 1 .43-1.9 3.55 3.55 0 0 1 1.21-1.39 3.28 3.28 0 0 1 1.82-.51 3.36 3.36 0 0 1 1.82.47 3.09 3.09 0 0 1 1.19 1.29 4.24 4.24 0 0 1 .41 1.89 1.79 1.79 0 0 1 0 .36h-5.65a2.83 2.83 0 0 0 .4 1.38 2.31 2.31 0 0 0 .89.84 2.44 2.44 0 0 0 1.12.28 2.33 2.33 0 0 0 2.12-1.29l1 .49a3.62 3.62 0 0 1-1.26 1.37 3.78 3.78 0 0 1-3.74 0zm3.89-4.06a2.3 2.3 0 0 0-.25-.89 2 2 0 0 0-.71-.76 2.26 2.26 0 0 0-1.21-.31 2 2 0 0 0-1.42.54 2.59 2.59 0 0 0-.76 1.42zM283.45 380.98l-3-6.69h1.34l2.24 5.31 2.16-5.31h1.28l-4.41 10.16h-1.23z"/></g><path fill="#466bb0" d="M199.84 393.03h27.5l-17.2 5.1-10.3-5.1zM199.84 391.23l10.3-1.7v-18.9l-10.3 20.6z"/><path fill="#476baf" d="M211.84 389.53l15.5 1.7-15.5-34.3v32.6z"/><g style="isolation:isolate"><g style="isolation:isolate"><path d="M166.62 306.08a4.29 4.29 0 0 1-1.6-1.62 4.79 4.79 0 0 1 0-4.57 4.26 4.26 0 0 1 1.6-1.61 4.39 4.39 0 0 1 2.27-.59 4.26 4.26 0 0 1 1.76.36 4.13 4.13 0 0 1 1.38 1l-.73.71a3.25 3.25 0 0 0-1.07-.86 3 3 0 0 0-1.34-.28 3.47 3.47 0 0 0-1.72.44 3.25 3.25 0 0 0-1.24 1.23 3.63 3.63 0 0 0-.46 1.85 3.59 3.59 0 0 0 .46 1.84 3.25 3.25 0 0 0 1.24 1.23 3.45 3.45 0 0 0 4.37-.84l.75.72a4.57 4.57 0 0 1-1.48 1.12 4.41 4.41 0 0 1-1.92.41 4.49 4.49 0 0 1-2.27-.54zM174.5 306.23a3.15 3.15 0 0 1-1.12-1.17 3.53 3.53 0 0 1-.4-1.65 3.46 3.46 0 0 1 .4-1.64 3.12 3.12 0 0 1 5.49 0 3.46 3.46 0 0 1 .4 1.64 3.53 3.53 0 0 1-.4 1.65 3.2 3.2 0 0 1-4.37 1.17zm2.67-.77a2.12 2.12 0 0 0 .79-.81 2.58 2.58 0 0 0 .29-1.24 2.54 2.54 0 0 0-.29-1.23 2 2 0 0 0-.79-.81 2 2 0 0 0-1-.29 2.08 2.08 0 0 0-1.05.29 2 2 0 0 0-.79.81 2.54 2.54 0 0 0-.29 1.23 2.58 2.58 0 0 0 .29 1.24 2.12 2.12 0 0 0 .79.81 2.07 2.07 0 0 0 1.05.28 2 2 0 0 0 1-.28zM180.34 300.33h1v.9a2 2 0 0 1 .8-.77 2.35 2.35 0 0 1 1.18-.32 2.15 2.15 0 0 1 1.68.64 2.5 2.5 0 0 1 .58 1.75v3.92h-1v-3.76a1.64 1.64 0 0 0-.4-1.24 1.57 1.57 0 0 0-1.12-.39 1.51 1.51 0 0 0-.88.28 1.9 1.9 0 0 0-.61.73 2.19 2.19 0 0 0-.21.94v3.44h-1zM187.66 301.33h-1.13v-1h1.13v-.66a1.88 1.88 0 0 1 .26-1 1.8 1.8 0 0 1 .71-.66 2 2 0 0 1 1-.24 2.42 2.42 0 0 1 .9.15v1a3.84 3.84 0 0 0-.41-.13 1.49 1.49 0 0 0-.45-.06 1 1 0 0 0-.69.28 1.06 1.06 0 0 0-.28.79v.53h3.79v6.12h-1v-5.12h-2.78v5.19h-1zm3.79-2.21a.7.7 0 0 1-.22-.52.75.75 0 0 1 .73-.73.69.69 0 0 1 .52.22.7.7 0 0 1 .22.51.73.73 0 0 1-.21.52.72.72 0 0 1-.53.21.69.69 0 0 1-.51-.26zM194.92 308.75a2.48 2.48 0 0 1-.94-1.21l.93-.4a1.78 1.78 0 0 0 .67.86 2.2 2.2 0 0 0 2.59-.2 2 2 0 0 0 .53-1.51v-.68a2.25 2.25 0 0 1-.85.76 2.52 2.52 0 0 1-1.24.29 2.57 2.57 0 0 1-1.44-.41 2.83 2.83 0 0 1-1-1.15 3.84 3.84 0 0 1 0-3.37 2.86 2.86 0 0 1 1-1.16 2.76 2.76 0 0 1 2.68-.12 2.22 2.22 0 0 1 .85.78v-.9h1v5.88a2.92 2.92 0 0 1-.82 2.25 3.36 3.36 0 0 1-3.93.27zm2.79-3.29a2 2 0 0 0 .72-.8 2.71 2.71 0 0 0 .27-1.25 2.68 2.68 0 0 0-.27-1.25 1.9 1.9 0 0 0-1.72-1.08 1.86 1.86 0 0 0-1 .29 1.89 1.89 0 0 0-.73.8 2.67 2.67 0 0 0-.27 1.24 2.71 2.71 0 0 0 .27 1.25 1.88 1.88 0 0 0 1.74 1.08 1.84 1.84 0 0 0 .99-.28zM201.65 306.02a2.67 2.67 0 0 1-.58-1.81v-3.88h1v3.7a1.75 1.75 0 0 0 .4 1.28 1.42 1.42 0 0 0 1.07.41 1.51 1.51 0 0 0 .91-.28 1.83 1.83 0 0 0 .63-.72 2 2 0 0 0 .22-.93v-3.46h1v6.12h-1v-.89h-.05a2.05 2.05 0 0 1-.8.77 2.34 2.34 0 0 1-1.18.31 2.16 2.16 0 0 1-1.62-.62zM207.85 300.33h1v1h.05a1.62 1.62 0 0 1 .7-.84 1.89 1.89 0 0 1 1.08-.34 1.93 1.93 0 0 1 .72.13v1.09a2.06 2.06 0 0 0-.87-.19 1.42 1.42 0 0 0-.81.26 1.77 1.77 0 0 0-.6.67 2.08 2.08 0 0 0-.22.92v3.43h-1zM212.87 306.4a2.08 2.08 0 0 1-.82-.73 1.92 1.92 0 0 1-.29-1 1.78 1.78 0 0 1 .74-1.51 2.94 2.94 0 0 1 1.84-.55 4.22 4.22 0 0 1 1 .12 2.47 2.47 0 0 1 .73.28v-.38a1.36 1.36 0 0 0-.48-1.09 1.79 1.79 0 0 0-1.22-.42 2.13 2.13 0 0 0-.94.22 1.8 1.8 0 0 0-.69.62l-.77-.57a2.5 2.5 0 0 1 1-.87 3 3 0 0 1 1.39-.31 2.81 2.81 0 0 1 2 .65 2.3 2.3 0 0 1 .72 1.79v3.87h-1v-.87h-.05a2.32 2.32 0 0 1-2 1.06 2.58 2.58 0 0 1-1.16-.31zm2.25-.9a1.93 1.93 0 0 0 .71-.71 1.82 1.82 0 0 0 .27-1 2.58 2.58 0 0 0-.71-.31 3.24 3.24 0 0 0-.89-.12 1.94 1.94 0 0 0-1.27.35 1.11 1.11 0 0 0-.42.9 1 1 0 0 0 .38.81 1.49 1.49 0 0 0 1 .31 1.77 1.77 0 0 0 .93-.23zM220.03 306.54a1.54 1.54 0 0 1-.54-.33 1.42 1.42 0 0 1-.36-.54 2 2 0 0 1-.12-.74v-3.6h-1.07v-1h1.07v-1.73h1v1.73h1.49v1h-1.49v3.41a1.31 1.31 0 0 0 .19.76.84.84 0 0 0 .66.27 1.23 1.23 0 0 0 .68-.21v1a2.65 2.65 0 0 1-.37.12 3 3 0 0 1-.47 0 1.92 1.92 0 0 1-.67-.14zM222.9 299.02a.71.71 0 0 1 0-1 .72.72 0 0 1 .52-.21.69.69 0 0 1 .51.21.67.67 0 0 1 .22.51.7.7 0 0 1-.21.52.72.72 0 0 1-1 0zm0 1.33h1v6.12h-1zM226.67 306.23a3 3 0 0 1-1.12-1.17 3.42 3.42 0 0 1-.41-1.65 3.35 3.35 0 0 1 .41-1.64 3 3 0 0 1 1.12-1.18 3.27 3.27 0 0 1 3.24 0 3 3 0 0 1 1.12 1.18 3.35 3.35 0 0 1 .4 1.64 3.41 3.41 0 0 1-.4 1.65 3.18 3.18 0 0 1-4.36 1.17zm2.67-.77a2.17 2.17 0 0 0 .78-.81 2.58 2.58 0 0 0 .29-1.24 2.54 2.54 0 0 0-.29-1.23 2.09 2.09 0 0 0-1.83-1.1 2.09 2.09 0 0 0-1.06.29 1.91 1.91 0 0 0-.78.81 2.44 2.44 0 0 0-.3 1.23 2.47 2.47 0 0 0 .3 1.24 2 2 0 0 0 .78.81 2.08 2.08 0 0 0 1.06.28 2 2 0 0 0 1.05-.28zM232.5 300.33h1v.9a2.12 2.12 0 0 1 .8-.77 2.35 2.35 0 0 1 1.18-.32 2.16 2.16 0 0 1 1.69.64 2.55 2.55 0 0 1 .58 1.75v3.92h-1v-3.76a1.64 1.64 0 0 0-.41-1.24 1.67 1.67 0 0 0-2-.11 1.79 1.79 0 0 0-.6.73 2.06 2.06 0 0 0-.22.94v3.44h-1z"/></g><g style="isolation:isolate"><path d="M191.36 320.64a3 3 0 0 1-1-1.15 3.88 3.88 0 0 1 0-3.35 3 3 0 0 1 1-1.16 2.74 2.74 0 0 1 1.48-.42 2.46 2.46 0 0 1 1.26.32 2.27 2.27 0 0 1 .84.78v-3.33h1v8.59h-1v-.9a2.35 2.35 0 0 1-.84.78 2.45 2.45 0 0 1-1.26.31 2.74 2.74 0 0 1-1.48-.47zm2.61-.79a2.16 2.16 0 0 0 .74-.81 2.57 2.57 0 0 0 .28-1.23 2.53 2.53 0 0 0-.28-1.22 2.19 2.19 0 0 0-.74-.82 1.91 1.91 0 0 0-1-.29 1.87 1.87 0 0 0-1 .29 2.13 2.13 0 0 0-.75.82 2.58 2.58 0 0 0-.28 1.22 2.55 2.55 0 0 0 .28 1.22 2.06 2.06 0 0 0 .75.82 1.87 1.87 0 0 0 1 .29 1.91 1.91 0 0 0 1-.29zM198.17 320.8a2 2 0 0 1-.81-.73 1.84 1.84 0 0 1-.29-1.05 1.77 1.77 0 0 1 .73-1.51 3 3 0 0 1 1.85-.55 4.08 4.08 0 0 1 1 .12 2.47 2.47 0 0 1 .73.28v-.38a1.36 1.36 0 0 0-.48-1.09 1.76 1.76 0 0 0-1.21-.42 2.14 2.14 0 0 0-.95.22 1.7 1.7 0 0 0-.68.62l-.77-.57a2.47 2.47 0 0 1 1-.87 3.06 3.06 0 0 1 1.4-.31 2.83 2.83 0 0 1 2 .65 2.33 2.33 0 0 1 .71 1.79v3.87h-1V320h-.05a2.2 2.2 0 0 1-.79.75 2.27 2.27 0 0 1-1.19.31 2.58 2.58 0 0 1-1.2-.26zm2.26-.9a2.1 2.1 0 0 0 .71-.71 1.9 1.9 0 0 0 .26-1 2.45 2.45 0 0 0-.71-.31 3.19 3.19 0 0 0-.89-.12 1.89 1.89 0 0 0-1.26.35 1.09 1.09 0 0 0-.43.9 1 1 0 0 0 .39.81 1.47 1.47 0 0 0 1 .31 1.82 1.82 0 0 0 .93-.23zM205.33 320.94a1.49 1.49 0 0 1-.53-.33 1.42 1.42 0 0 1-.36-.54 2 2 0 0 1-.12-.74v-3.65h-1.07v-.93h1.07v-1.73h1v1.73h1.47v.93h-1.48v3.41a1.23 1.23 0 0 0 .19.76.81.81 0 0 0 .66.27 1.23 1.23 0 0 0 .67-.21v1a2.29 2.29 0 0 1-.37.12 3 3 0 0 1-.47 0 1.92 1.92 0 0 1-.66-.09zM208.7 320.8a2 2 0 0 1-.82-.73 1.92 1.92 0 0 1-.29-1.05 1.8 1.8 0 0 1 .73-1.51 3 3 0 0 1 1.85-.55 4.22 4.22 0 0 1 1 .12 2.39 2.39 0 0 1 .72.28v-.38a1.36 1.36 0 0 0-.48-1.09 1.76 1.76 0 0 0-1.21-.42 2.17 2.17 0 0 0-.95.22 1.85 1.85 0 0 0-.68.62l-.77-.57a2.47 2.47 0 0 1 1-.87 3.09 3.09 0 0 1 1.4-.31 2.81 2.81 0 0 1 2 .65 2.3 2.3 0 0 1 .72 1.79v3.87h-1V320a2.36 2.36 0 0 1-2 1.06 2.58 2.58 0 0 1-1.22-.26zm2.25-.9a2 2 0 0 0 .71-.71 1.81 1.81 0 0 0 .26-1 2.38 2.38 0 0 0-.7-.31 3.24 3.24 0 0 0-.89-.12 1.94 1.94 0 0 0-1.27.35 1.11 1.11 0 0 0-.42.9 1 1 0 0 0 .38.81 1.48 1.48 0 0 0 1 .31 1.78 1.78 0 0 0 .93-.23z"/></g></g><g style="isolation:isolate"><g style="isolation:isolate"><path d="M316.79 298.85h-2.4v-1h5.83v1h-2.43v7.62h-1zM321.5 297.88h1v7.62h3.77v1h-4.78zM328.17 306.05a3.07 3.07 0 0 1-1.16-1.71l1-.4a2.54 2.54 0 0 0 .76 1.26 1.88 1.88 0 0 0 1.3.49 2 2 0 0 0 1.26-.4 1.32 1.32 0 0 0 .51-1.1 1.24 1.24 0 0 0-.44-1 4.18 4.18 0 0 0-1.43-.72l-.54-.2a4.13 4.13 0 0 1-1.49-.85 1.89 1.89 0 0 1-.57-1.46 2.1 2.1 0 0 1 .33-1.14 2.53 2.53 0 0 1 .94-.83 2.84 2.84 0 0 1 1.34-.31 2.93 2.93 0 0 1 1.3.27 2.68 2.68 0 0 1 .88.68 2.45 2.45 0 0 1 .46.78l-1 .4a1.63 1.63 0 0 0-.54-.8 1.7 1.7 0 0 0-1.13-.36 1.78 1.78 0 0 0-1.12.37 1.13 1.13 0 0 0-.47.94 1 1 0 0 0 .39.82 4.17 4.17 0 0 0 1.2.59l.57.2a4.6 4.6 0 0 1 1.7 1 2.12 2.12 0 0 1 .61 1.61 2.25 2.25 0 0 1-.42 1.39 2.52 2.52 0 0 1-1.08.83 3.39 3.39 0 0 1-1.33.26 3 3 0 0 1-1.83-.61zM338.1 306.24a3 3 0 0 1-1.1-1.17 3.37 3.37 0 0 1-.4-1.66 3.46 3.46 0 0 1 .4-1.67 2.93 2.93 0 0 1 1.1-1.16 3.06 3.06 0 0 1 1.6-.42 2.88 2.88 0 0 1 1.67.46 2.61 2.61 0 0 1 1 1.23l-.93.39a1.74 1.74 0 0 0-.68-.86 1.9 1.9 0 0 0-1.08-.3 1.84 1.84 0 0 0-1 .3 2.13 2.13 0 0 0-.75.82 2.51 2.51 0 0 0-.28 1.21 2.49 2.49 0 0 0 .28 1.21 2.16 2.16 0 0 0 .75.83 1.91 1.91 0 0 0 1 .29 2 2 0 0 0 1.11-.3 1.73 1.73 0 0 0 .7-.85l.91.38a2.73 2.73 0 0 1-1 1.23 2.92 2.92 0 0 1-1.67.46 3.06 3.06 0 0 1-1.63-.42zM344.57 306.24a2.87 2.87 0 0 1-1.09-1.15 3.77 3.77 0 0 1 0-3.3 3 3 0 0 1 1-1.19 2.77 2.77 0 0 1 1.56-.44 2.92 2.92 0 0 1 1.56.4 2.71 2.71 0 0 1 1 1.11 3.51 3.51 0 0 1 .35 1.62 1.35 1.35 0 0 1 0 .31h-4.84a2.48 2.48 0 0 0 .34 1.18 1.94 1.94 0 0 0 .76.72 2.08 2.08 0 0 0 1 .24 2 2 0 0 0 1.81-1.1l.86.42a3.1 3.1 0 0 1-1.09 1.17 3.24 3.24 0 0 1-3.21 0zm3.33-3.48a1.81 1.81 0 0 0-.21-.76 1.58 1.58 0 0 0-.61-.65 1.85 1.85 0 0 0-1-.27 1.7 1.7 0 0 0-1.21.47 2.18 2.18 0 0 0-.66 1.21zM350.17 300.45h1v1a1.71 1.71 0 0 1 .73-.84 2.22 2.22 0 0 1 1.13-.3 1.92 1.92 0 0 1 .45 0v1a2.68 2.68 0 0 0-.56 0 1.62 1.62 0 0 0-1.26.52 1.84 1.84 0 0 0-.49 1.34v3.4h-1zm6.21 6.09a1.49 1.49 0 0 1-.53-.33 1.42 1.42 0 0 1-.36-.54 2 2 0 0 1-.12-.74v-3.6h-1.07v-1h1.07v-1.73h1v1.73h1.49v1h-1.47v3.41a1.23 1.23 0 0 0 .19.76.81.81 0 0 0 .66.27 1.2 1.2 0 0 0 .67-.21v1l-.36.12a3.23 3.23 0 0 1-.48 0 1.92 1.92 0 0 1-.69-.14zM359.26 299.02a.71.71 0 0 1 0-1 .69.69 0 0 1 .51-.21.73.73 0 0 1 .52.21.74.74 0 0 1 0 1 .71.71 0 0 1-1 0zm0 1.33h1v6.12h-1zM362.59 301.33h-1.13v-1h1.13v-.66a1.88 1.88 0 0 1 .27-1 1.78 1.78 0 0 1 .7-.66 2.07 2.07 0 0 1 1-.24 2.5 2.5 0 0 1 .9.15v1c-.15 0-.28-.1-.41-.13a1.56 1.56 0 0 0-.46-.06 1 1 0 0 0-.68.28 1.07 1.07 0 0 0-.29.79v.53h3.79v6.12h-1v-5.12h-2.79v5.19h-1zm3.79-2.21a.73.73 0 0 1-.21-.52.69.69 0 0 1 .21-.51.72.72 0 0 1 1 0 .69.69 0 0 1 .21.51.73.73 0 0 1-.21.52.7.7 0 0 1-.52.21.73.73 0 0 1-.48-.26zM370.13 306.24a3 3 0 0 1-1.11-1.17 3.48 3.48 0 0 1-.39-1.66 3.57 3.57 0 0 1 .39-1.67 3 3 0 0 1 2.7-1.58 2.89 2.89 0 0 1 1.68.46 2.54 2.54 0 0 1 1 1.23l-.92.39a1.74 1.74 0 0 0-.68-.86 1.9 1.9 0 0 0-1.08-.3 1.84 1.84 0 0 0-1 .3 2.13 2.13 0 0 0-.75.82 2.51 2.51 0 0 0-.28 1.21 2.49 2.49 0 0 0 .28 1.21 2.16 2.16 0 0 0 .75.83 1.91 1.91 0 0 0 1 .29 2 2 0 0 0 1.11-.3 1.79 1.79 0 0 0 .7-.85l.91.38a2.73 2.73 0 0 1-1 1.23 2.93 2.93 0 0 1-1.68.46 3 3 0 0 1-1.63-.42zM376.2 306.4a2.08 2.08 0 0 1-.82-.73 1.92 1.92 0 0 1-.28-1 1.77 1.77 0 0 1 .73-1.51 3 3 0 0 1 1.85-.55 4.13 4.13 0 0 1 1 .12 2.47 2.47 0 0 1 .73.28v-.38a1.36 1.36 0 0 0-.48-1.09 1.78 1.78 0 0 0-1.21-.42 2.14 2.14 0 0 0-.95.22 1.8 1.8 0 0 0-.69.62l-.76-.57a2.47 2.47 0 0 1 1-.87 3.05 3.05 0 0 1 1.39-.31 2.84 2.84 0 0 1 2 .65 2.33 2.33 0 0 1 .71 1.79v3.87h-1v-.87h-.05a2.32 2.32 0 0 1-2 1.06 2.58 2.58 0 0 1-1.17-.31zm2.26-.9a2 2 0 0 0 .7-.71 1.82 1.82 0 0 0 .27-1 2.45 2.45 0 0 0-.71-.31 3.24 3.24 0 0 0-.89-.12 1.89 1.89 0 0 0-1.26.35 1.09 1.09 0 0 0-.43.9 1 1 0 0 0 .38.81 1.49 1.49 0 0 0 1 .31 1.82 1.82 0 0 0 .94-.23zM383.36 306.54a1.63 1.63 0 0 1-.54-.33 1.42 1.42 0 0 1-.36-.54 2 2 0 0 1-.12-.74v-3.6h-1.06v-1h1.06v-1.73h1v1.73h1.49v1h-1.49v3.41a1.23 1.23 0 0 0 .2.76.81.81 0 0 0 .66.27 1.23 1.23 0 0 0 .67-.21v1a2.29 2.29 0 0 1-.37.12 3 3 0 0 1-.47 0 1.92 1.92 0 0 1-.67-.14zM386.98 306.24a2.87 2.87 0 0 1-1.09-1.15 3.77 3.77 0 0 1 0-3.3 3 3 0 0 1 1-1.19 2.82 2.82 0 0 1 1.56-.44 2.92 2.92 0 0 1 1.56.4 2.73 2.73 0 0 1 1 1.11 3.64 3.64 0 0 1 .35 1.62 1.35 1.35 0 0 1 0 .31h-4.84a2.38 2.38 0 0 0 .34 1.18 1.94 1.94 0 0 0 .76.72 2.07 2.07 0 0 0 1 .24 2 2 0 0 0 1.82-1.1l.86.42a3.1 3.1 0 0 1-1.07 1.17 3 3 0 0 1-1.64.43 3 3 0 0 1-1.61-.42zm3.33-3.48a2 2 0 0 0-.21-.76 1.58 1.58 0 0 0-.61-.65 1.87 1.87 0 0 0-1-.27 1.74 1.74 0 0 0-1.22.47 2.17 2.17 0 0 0-.65 1.21zM393.13 306.2a2.49 2.49 0 0 1-.93-1.18l.91-.41a1.81 1.81 0 0 0 .68.85 1.75 1.75 0 0 0 1 .3 1.9 1.9 0 0 0 1-.23.75.75 0 0 0 .41-.67.71.71 0 0 0-.33-.61 3 3 0 0 0-1-.41l-.74-.19a2.63 2.63 0 0 1-1.2-.61 1.54 1.54 0 0 1-.15-2 2 2 0 0 1 .85-.61 2.86 2.86 0 0 1 1.14-.22 2.94 2.94 0 0 1 1.43.35 1.91 1.91 0 0 1 .89 1l-.88.41a1.49 1.49 0 0 0-1.46-.82 1.61 1.61 0 0 0-.88.24.68.68 0 0 0-.38.59.67.67 0 0 0 .27.55 2.09 2.09 0 0 0 .79.34l.89.23a2.85 2.85 0 0 1 1.35.67 1.47 1.47 0 0 1 .46 1.1 1.61 1.61 0 0 1-.32 1 2 2 0 0 1-.88.66 3.23 3.23 0 0 1-1.22.22 2.79 2.79 0 0 1-1.7-.55z"/></g><g style="isolation:isolate"><path d="M331.39 320.94a1.49 1.49 0 0 1-.53-.33 1.42 1.42 0 0 1-.36-.54 2 2 0 0 1-.12-.74v-3.65h-1.07v-.93h1.07v-1.73h1v1.73h1.49v.93h-1.49v3.41a1.23 1.23 0 0 0 .19.76.82.82 0 0 0 .66.27 1.2 1.2 0 0 0 .67-.21v1a2.53 2.53 0 0 1-.36.12 3.14 3.14 0 0 1-.48 0 2 2 0 0 1-.67-.09zM335.06 320.63a3.07 3.07 0 0 1-1.12-1.17 3.41 3.41 0 0 1-.4-1.65 3.35 3.35 0 0 1 .4-1.64 3 3 0 0 1 1.12-1.18 3.27 3.27 0 0 1 3.24 0 3 3 0 0 1 1.12 1.18 3.35 3.35 0 0 1 .41 1.64 3.42 3.42 0 0 1-.41 1.65 3.18 3.18 0 0 1-4.36 1.17zm2.67-.77a2.17 2.17 0 0 0 .78-.81 2.47 2.47 0 0 0 .29-1.24 2.43 2.43 0 0 0-.29-1.23 2.09 2.09 0 0 0-1.83-1.1 2.09 2.09 0 0 0-1.06.29 2 2 0 0 0-.78.81 2.44 2.44 0 0 0-.3 1.23 2.47 2.47 0 0 0 .3 1.24 2.17 2.17 0 0 0 .78.81 2.08 2.08 0 0 0 1.06.28 2 2 0 0 0 1.05-.28zM343.79 314.75h1v.91a2.16 2.16 0 0 1 .83-.78 2.51 2.51 0 0 1 1.26-.32 2.71 2.71 0 0 1 1.48.42 3 3 0 0 1 1.06 1.16 3.79 3.79 0 0 1 0 3.35 2.94 2.94 0 0 1-1.06 1.15 2.71 2.71 0 0 1-1.48.42 2.5 2.5 0 0 1-1.26-.31 2.24 2.24 0 0 1-.83-.78h-.05l.05.84v2.65h-1zm4 5.1a2.06 2.06 0 0 0 .75-.82 2.55 2.55 0 0 0 .28-1.22 2.58 2.58 0 0 0-.28-1.22 2.13 2.13 0 0 0-.75-.82 1.85 1.85 0 0 0-2 0 2 2 0 0 0-.74.82 2.53 2.53 0 0 0-.28 1.22 2.57 2.57 0 0 0 .28 1.23 2 2 0 0 0 .74.81 1.85 1.85 0 0 0 2 0zM350.91 314.75h1v1h.05a1.67 1.67 0 0 1 .7-.84 1.89 1.89 0 0 1 1.08-.34 1.75 1.75 0 0 1 .72.13v1.09a2 2 0 0 0-.86-.19 1.49 1.49 0 0 0-.82.25 1.77 1.77 0 0 0-.59.68 2 2 0 0 0-.23.92v3.43h-1zM356.25 320.63a3.07 3.07 0 0 1-1.12-1.17 3.41 3.41 0 0 1-.4-1.65 3.35 3.35 0 0 1 .4-1.64 3 3 0 0 1 1.12-1.18 3.27 3.27 0 0 1 3.24 0 3 3 0 0 1 1.12 1.18 3.35 3.35 0 0 1 .41 1.64 3.42 3.42 0 0 1-.41 1.65 3 3 0 0 1-1.12 1.17 3.27 3.27 0 0 1-3.24 0zm2.67-.77a2 2 0 0 0 .78-.81 2.47 2.47 0 0 0 .3-1.24 2.44 2.44 0 0 0-.3-1.23 1.91 1.91 0 0 0-.78-.81 2 2 0 0 0-1.05-.29 2.05 2.05 0 0 0-1.05.29 2 2 0 0 0-.79.81 2.43 2.43 0 0 0-.29 1.23 2.47 2.47 0 0 0 .29 1.24 2.12 2.12 0 0 0 .79.81 2 2 0 0 0 1.05.28 2 2 0 0 0 1.05-.28zM363.58 317.76l-2.12-3h1.15l1.59 2.27 1.52-2.27h1.19l-2.14 3 2.19 3.11h-1.17l-1.6-2.35-1.56 2.35h-1.19zM367.95 313.42a.72.72 0 0 1-.21-.52.69.69 0 0 1 .21-.51.73.73 0 0 1 .52-.21.69.69 0 0 1 .51.21.67.67 0 0 1 .22.51.72.72 0 0 1-.21.52.71.71 0 0 1-.52.22.74.74 0 0 1-.52-.22zm0 1.33h1v6.12h-1zM371.67 320.64a2.92 2.92 0 0 1-1.08-1.15 3.55 3.55 0 0 1-.39-1.67 3.71 3.71 0 0 1 .36-1.63 3.07 3.07 0 0 1 1-1.19 2.82 2.82 0 0 1 1.56-.44 2.92 2.92 0 0 1 1.56.4 2.73 2.73 0 0 1 1 1.11 3.64 3.64 0 0 1 .35 1.62.93.93 0 0 1 0 .31h-4.83a2.37 2.37 0 0 0 .33 1.18 2 2 0 0 0 .76.72 2.11 2.11 0 0 0 1 .24 2 2 0 0 0 1.81-1.1l.87.42a3.2 3.2 0 0 1-1.08 1.17 3 3 0 0 1-1.63.43 3 3 0 0 1-1.59-.42zm3.34-3.48a2 2 0 0 0-.22-.76 1.55 1.55 0 0 0-.6-.65 1.89 1.89 0 0 0-1-.27 1.72 1.72 0 0 0-1.22.47 2.17 2.17 0 0 0-.65 1.21zM377.79 320.6a2.57 2.57 0 0 1-.94-1.18l.91-.41a1.87 1.87 0 0 0 .68.85 1.75 1.75 0 0 0 1 .3 1.93 1.93 0 0 0 1-.23.74.74 0 0 0 .4-.67.7.7 0 0 0-.32-.61 3.14 3.14 0 0 0-1-.41l-.74-.19a2.63 2.63 0 0 1-1.2-.61 1.54 1.54 0 0 1-.15-2.05 2 2 0 0 1 .84-.61 2.86 2.86 0 0 1 1.14-.22 3 3 0 0 1 1.44.35 2 2 0 0 1 .89 1l-.89.41a1.47 1.47 0 0 0-1.45-.82 1.59 1.59 0 0 0-.88.24.68.68 0 0 0-.38.59.69.69 0 0 0 .26.55 2.15 2.15 0 0 0 .8.34l.88.23a2.89 2.89 0 0 1 1.36.67 1.51 1.51 0 0 1 .46 1.1 1.55 1.55 0 0 1-.33 1 2.08 2.08 0 0 1-.87.66 3.24 3.24 0 0 1-1.23.22 2.78 2.78 0 0 1-1.68-.5z"/></g></g><g style="isolation:isolate"><g style="isolation:isolate"><path d="M5.09 306.08a4.22 4.22 0 0 1-1.6-1.62 4.72 4.72 0 0 1 0-4.57 4.19 4.19 0 0 1 1.6-1.56 4.37 4.37 0 0 1 2.27-.59 4.18 4.18 0 0 1 1.75.36 4.07 4.07 0 0 1 1.39 1l-.73.71a3.18 3.18 0 0 0-1.08-.86 3 3 0 0 0-1.33-.28 3.47 3.47 0 0 0-1.72.44 3.25 3.25 0 0 0-1.24 1.22 3.63 3.63 0 0 0-.46 1.85 3.59 3.59 0 0 0 .46 1.84 3.25 3.25 0 0 0 1.24 1.23 3.45 3.45 0 0 0 4.37-.84l.74.72a4.6 4.6 0 0 1-5.66.95zM12.97 306.23a3.07 3.07 0 0 1-1.12-1.17 3.41 3.41 0 0 1-.4-1.65 3.35 3.35 0 0 1 .4-1.64 3 3 0 0 1 1.12-1.18 3.27 3.27 0 0 1 3.24 0 3 3 0 0 1 1.12 1.18 3.35 3.35 0 0 1 .41 1.64 3.42 3.42 0 0 1-.41 1.65 3 3 0 0 1-1.12 1.17 3.27 3.27 0 0 1-3.24 0zm2.67-.77a2 2 0 0 0 .78-.81 2.47 2.47 0 0 0 .3-1.24 2.44 2.44 0 0 0-.3-1.23 1.91 1.91 0 0 0-.78-.81 2 2 0 0 0-1.05-.29 2.05 2.05 0 0 0-1.05.29 2 2 0 0 0-.79.81 2.43 2.43 0 0 0-.29 1.23 2.47 2.47 0 0 0 .29 1.24 2.12 2.12 0 0 0 .79.81 2 2 0 0 0 1.05.28 2 2 0 0 0 1.05-.28zM18.79 300.33h1v.9a2.08 2.08 0 0 1 .81-.77 2.34 2.34 0 0 1 1.17-.32 2.16 2.16 0 0 1 1.69.64 2.5 2.5 0 0 1 .58 1.75v3.92h-1v-3.77a1.59 1.59 0 0 0-.41-1.23 1.53 1.53 0 0 0-1.11-.39 1.51 1.51 0 0 0-.88.28 1.82 1.82 0 0 0-.61.73 2.2 2.2 0 0 0-.22.94v3.44h-1.02zM26.12 301.33H25v-1h1.12v-.66a1.88 1.88 0 0 1 .27-1 1.74 1.74 0 0 1 .71-.66 2 2 0 0 1 1-.24 2.5 2.5 0 0 1 .9.15v1a3.84 3.84 0 0 0-.41-.13 1.53 1.53 0 0 0-.45-.06 1 1 0 0 0-.69.28 1.07 1.07 0 0 0-.29.79v.53h3.8v6.12h-1v-5.12h-2.82v5.19h-1zm3.8-2.21a.7.7 0 0 1-.22-.52.75.75 0 0 1 .73-.73.7.7 0 0 1 .52.22.69.69 0 0 1 .21.51.73.73 0 0 1-.21.52.74.74 0 0 1-1 0zM33.39 308.75a2.43 2.43 0 0 1-.94-1.21l.92-.4a1.8 1.8 0 0 0 .68.86 1.92 1.92 0 0 0 1.12.33 2 2 0 0 0 1.47-.53 2 2 0 0 0 .52-1.51v-.68a2.33 2.33 0 0 1-.85.76 2.52 2.52 0 0 1-1.24.29 2.63 2.63 0 0 1-1.45-.41 3 3 0 0 1-1-1.15 3.93 3.93 0 0 1 0-3.37 3 3 0 0 1 1-1.16 2.72 2.72 0 0 1 1.45-.41 2.64 2.64 0 0 1 1.24.29 2.29 2.29 0 0 1 .85.78v-.9h1v5.88a3.06 3.06 0 0 1-4.75 2.52zm2.78-3.29a2.07 2.07 0 0 0 .72-.8 2.71 2.71 0 0 0 .27-1.25 2.68 2.68 0 0 0-.27-1.25 1.94 1.94 0 0 0-.72-.8 1.82 1.82 0 0 0-1-.28 2 2 0 0 0-1 .28 2 2 0 0 0-.72.81 2.67 2.67 0 0 0-.27 1.24 2.71 2.71 0 0 0 .27 1.25 2 2 0 0 0 .72.81 2 2 0 0 0 1 .27 1.82 1.82 0 0 0 1-.28zM40.12 306.02a2.63 2.63 0 0 1-.58-1.82v-3.87h1v3.7a1.75 1.75 0 0 0 .4 1.28 1.42 1.42 0 0 0 1.06.41 1.54 1.54 0 0 0 .92-.28 1.83 1.83 0 0 0 .63-.72 2.12 2.12 0 0 0 .22-.93v-3.46h1v6.12h-1v-.89a2 2 0 0 1-.81.77 2.3 2.3 0 0 1-1.17.31 2.16 2.16 0 0 1-1.67-.62zM46.32 300.33h1v1a1.62 1.62 0 0 1 .7-.84 1.89 1.89 0 0 1 1.08-.34 1.75 1.75 0 0 1 .72.13v1.09a2.06 2.06 0 0 0-.87-.19 1.46 1.46 0 0 0-.81.25 1.88 1.88 0 0 0-.6.68 2 2 0 0 0-.22.92v3.43h-1zM51.34 306.4a2 2 0 0 1-.82-.73 1.92 1.92 0 0 1-.29-1 1.8 1.8 0 0 1 .73-1.51 3 3 0 0 1 1.85-.55 4.22 4.22 0 0 1 1 .12 2.39 2.39 0 0 1 .72.28v-.38a1.36 1.36 0 0 0-.48-1.09 1.76 1.76 0 0 0-1.21-.42 2.17 2.17 0 0 0-.95.22 1.85 1.85 0 0 0-.68.62l-.77-.57a2.47 2.47 0 0 1 1-.87 3.09 3.09 0 0 1 1.4-.31 2.81 2.81 0 0 1 2 .65 2.3 2.3 0 0 1 .72 1.79v3.87h-1v-.87a2.36 2.36 0 0 1-2 1.06 2.58 2.58 0 0 1-1.22-.31zm2.25-.9a2 2 0 0 0 .71-.71 1.81 1.81 0 0 0 .26-1 2.38 2.38 0 0 0-.7-.31 3.24 3.24 0 0 0-.89-.12 1.94 1.94 0 0 0-1.27.35 1.11 1.11 0 0 0-.42.9 1 1 0 0 0 .38.81 1.48 1.48 0 0 0 1 .31 1.78 1.78 0 0 0 .93-.23zM58.49 306.54a1.49 1.49 0 0 1-.53-.33 1.42 1.42 0 0 1-.36-.54 2 2 0 0 1-.12-.74v-3.6h-1.07v-1h1.07v-1.73h1v1.73h1.51v1H58.5v3.41a1.23 1.23 0 0 0 .19.76.81.81 0 0 0 .66.27 1.2 1.2 0 0 0 .67-.21v1l-.36.12a3.14 3.14 0 0 1-.48 0 2 2 0 0 1-.69-.14zM61.37 299.02a.69.69 0 0 1-.22-.52.67.67 0 0 1 .22-.51.69.69 0 0 1 .51-.21.72.72 0 0 1 .52.21.7.7 0 0 1 .22.51.72.72 0 0 1-.21.52.73.73 0 0 1-.53.22.7.7 0 0 1-.51-.22zm0 1.33h1v6.12h-1zM65.14 306.23a3.1 3.1 0 0 1-1.13-1.17 3.53 3.53 0 0 1-.4-1.65 3.46 3.46 0 0 1 .4-1.64 3.12 3.12 0 0 1 5.49 0 3.35 3.35 0 0 1 .4 1.64 3.41 3.41 0 0 1-.4 1.65 3.18 3.18 0 0 1-4.36 1.17zm2.67-.77a2.17 2.17 0 0 0 .78-.81 2.58 2.58 0 0 0 .29-1.24 2.54 2.54 0 0 0-.29-1.23 2 2 0 0 0-.8-.85 2.06 2.06 0 0 0-2.11 0 2 2 0 0 0-.79.81 2.54 2.54 0 0 0-.29 1.23 2.58 2.58 0 0 0 .29 1.24 2.12 2.12 0 0 0 .79.81 2.13 2.13 0 0 0 2.11 0zM70.97 300.33h1v.9a2.05 2.05 0 0 1 .8-.77 2.35 2.35 0 0 1 1.18-.32 2.14 2.14 0 0 1 1.68.64 2.5 2.5 0 0 1 .59 1.75v3.92h-1v-3.77a1.63 1.63 0 0 0-.41-1.23 1.56 1.56 0 0 0-1.12-.39 1.51 1.51 0 0 0-.9.27 1.9 1.9 0 0 0-.61.73 2.19 2.19 0 0 0-.21.94v3.44h-1z"/></g><g style="isolation:isolate"><path d="M1.43 320.64a3 3 0 0 1-1-1.15 3.88 3.88 0 0 1 0-3.35 3 3 0 0 1 1-1.16 2.71 2.71 0 0 1 1.48-.42 2.51 2.51 0 0 1 1.26.32 2.27 2.27 0 0 1 .84.78v-3.33h1v8.59h-1v-.9a2.35 2.35 0 0 1-.84.78 2.5 2.5 0 0 1-1.26.31 2.71 2.71 0 0 1-1.48-.47zm2.6-.79a2.1 2.1 0 0 0 .75-.81 2.57 2.57 0 0 0 .28-1.23 2.53 2.53 0 0 0-.27-1.22 2.13 2.13 0 0 0-.75-.82 1.85 1.85 0 0 0-2 0 2 2 0 0 0-.75.82 2.59 2.59 0 0 0-.29 1.22 2.56 2.56 0 0 0 .29 1.22 1.93 1.93 0 0 0 .75.82 1.85 1.85 0 0 0 2 0zM8.24 320.8a2.08 2.08 0 0 1-.82-.73 1.92 1.92 0 0 1-.28-1.05 1.77 1.77 0 0 1 .73-1.51 3 3 0 0 1 1.85-.55 4.13 4.13 0 0 1 1 .12 2.47 2.47 0 0 1 .73.28v-.38a1.36 1.36 0 0 0-.48-1.09 1.78 1.78 0 0 0-1.21-.42 2.14 2.14 0 0 0-1 .22 1.8 1.8 0 0 0-.69.62l-.76-.57a2.47 2.47 0 0 1 1-.87 3.05 3.05 0 0 1 1.39-.31 2.84 2.84 0 0 1 2 .65 2.33 2.33 0 0 1 .71 1.79v3.87h-1V320a2.32 2.32 0 0 1-2 1.06 2.58 2.58 0 0 1-1.17-.26zm2.26-.9a2 2 0 0 0 .7-.71 1.82 1.82 0 0 0 .27-1 2.45 2.45 0 0 0-.71-.31 3.24 3.24 0 0 0-.89-.12 1.89 1.89 0 0 0-1.26.35 1.09 1.09 0 0 0-.43.9 1 1 0 0 0 .38.81 1.49 1.49 0 0 0 1 .31 1.82 1.82 0 0 0 .94-.23zM15.4 320.94a1.63 1.63 0 0 1-.54-.33 1.42 1.42 0 0 1-.36-.54 2 2 0 0 1-.12-.74v-3.65h-1.06v-.93h1.06v-1.73h1v1.73h1.51v.93H15.4v3.41a1.23 1.23 0 0 0 .2.76.81.81 0 0 0 .66.27 1.23 1.23 0 0 0 .67-.21v1a2.29 2.29 0 0 1-.37.12 3 3 0 0 1-.47 0 1.92 1.92 0 0 1-.69-.09zM18.79 320.8a2 2 0 0 1-.81-.73 1.92 1.92 0 0 1-.29-1.05 1.77 1.77 0 0 1 .73-1.51 3 3 0 0 1 1.85-.55 4.22 4.22 0 0 1 1 .12 2.51 2.51 0 0 1 .72.28v-.38a1.36 1.36 0 0 0-.48-1.09 1.76 1.76 0 0 0-1.21-.42 2.17 2.17 0 0 0-1 .22 1.77 1.77 0 0 0-.68.62l-.77-.57a2.47 2.47 0 0 1 1-.87 3.09 3.09 0 0 1 1.4-.31 2.83 2.83 0 0 1 2 .65 2.29 2.29 0 0 1 .71 1.79v3.87h-1V320h-.05a2.2 2.2 0 0 1-.79.75 2.27 2.27 0 0 1-1.19.31 2.64 2.64 0 0 1-1.14-.26zm2.26-.9a2 2 0 0 0 .71-.71 1.9 1.9 0 0 0 .26-1 2.45 2.45 0 0 0-.71-.31 3.17 3.17 0 0 0-.88-.12 1.92 1.92 0 0 0-1.27.35 1.12 1.12 0 0 0-.43.9 1 1 0 0 0 .39.81 1.47 1.47 0 0 0 1 .31 1.82 1.82 0 0 0 .9-.23zM28.79 320.94a1.54 1.54 0 0 1-.54-.33 1.42 1.42 0 0 1-.36-.54 2 2 0 0 1-.1-.74v-3.65h-1v-.93h1v-1.73h1v1.73h1.49v.93h-1.49v3.41a1.31 1.31 0 0 0 .19.76.84.84 0 0 0 .66.27 1.23 1.23 0 0 0 .68-.21v1a2.65 2.65 0 0 1-.37.12 3 3 0 0 1-.47 0 1.92 1.92 0 0 1-.69-.09zM32.49 320.63a3.07 3.07 0 0 1-1.12-1.17 3.41 3.41 0 0 1-.4-1.65 3.35 3.35 0 0 1 .4-1.64 3 3 0 0 1 1.12-1.18 3.27 3.27 0 0 1 3.24 0 3 3 0 0 1 1.12 1.18 3.35 3.35 0 0 1 .41 1.64 3.42 3.42 0 0 1-.41 1.65 3 3 0 0 1-1.12 1.17 3.27 3.27 0 0 1-3.24 0zm2.67-.77a2 2 0 0 0 .78-.81 2.47 2.47 0 0 0 .3-1.24 2.44 2.44 0 0 0-.3-1.23 1.91 1.91 0 0 0-.78-.81 2 2 0 0 0-1-.29 2.05 2.05 0 0 0-1 .29 2 2 0 0 0-.79.81 2.43 2.43 0 0 0-.29 1.23 2.47 2.47 0 0 0 .29 1.24 2.12 2.12 0 0 0 .79.81 2 2 0 0 0 1 .28 2 2 0 0 0 1-.28zM41.18 314.75h1v.91a2.16 2.16 0 0 1 .83-.78 2.54 2.54 0 0 1 1.26-.32 2.77 2.77 0 0 1 1.49.42 3 3 0 0 1 1 1.16 3.79 3.79 0 0 1 0 3.35 2.92 2.92 0 0 1-1 1.15 2.77 2.77 0 0 1-1.49.42 2.53 2.53 0 0 1-1.26-.31 2.24 2.24 0 0 1-.83-.78V323.46h-1zm4 5.1a1.93 1.93 0 0 0 .75-.82 2.56 2.56 0 0 0 .29-1.22 2.59 2.59 0 0 0-.29-1.22 2 2 0 0 0-.75-.82 1.87 1.87 0 0 0-1-.29 1.9 1.9 0 0 0-1 .29 2 2 0 0 0-.74.82 2.53 2.53 0 0 0-.28 1.22 2.57 2.57 0 0 0 .28 1.23 2 2 0 0 0 .74.81 1.9 1.9 0 0 0 1 .29 1.87 1.87 0 0 0 .98-.29zM48.34 314.75h1v1a1.67 1.67 0 0 1 .7-.84 1.89 1.89 0 0 1 1.08-.34 1.75 1.75 0 0 1 .72.13v1.09a2 2 0 0 0-.86-.19 1.49 1.49 0 0 0-.82.25 1.77 1.77 0 0 0-.59.68 2 2 0 0 0-.23.92v3.43h-1zM53.68 320.63a3.07 3.07 0 0 1-1.12-1.17 3.41 3.41 0 0 1-.4-1.65 3.35 3.35 0 0 1 .4-1.64 3 3 0 0 1 1.12-1.18 3.13 3.13 0 0 1 4.37 1.18 3.46 3.46 0 0 1 .4 1.64 3.53 3.53 0 0 1-.4 1.65 3.2 3.2 0 0 1-4.37 1.17zm2.67-.77a2 2 0 0 0 .78-.81 2.47 2.47 0 0 0 .3-1.24 2.44 2.44 0 0 0-.3-1.23 1.91 1.91 0 0 0-.78-.81 2 2 0 0 0-1.05-.29 2.08 2.08 0 0 0-1 .29 2 2 0 0 0-.79.81 2.54 2.54 0 0 0-.29 1.23 2.58 2.58 0 0 0 .29 1.24 2.12 2.12 0 0 0 .79.81 2.07 2.07 0 0 0 1 .28 2 2 0 0 0 1.05-.28zM61.02 317.76l-2.13-3h1.15l1.59 2.27 1.52-2.27h1.19l-2.14 3 2.19 3.11H63.2l-1.6-2.35-1.56 2.35h-1.18zM65.38 313.42a.72.72 0 0 1-.21-.52.69.69 0 0 1 .21-.51.75.75 0 0 1 1 0 .69.69 0 0 1 .21.51.72.72 0 0 1-.21.52.71.71 0 0 1-.52.22.74.74 0 0 1-.48-.22zm0 1.33h1v6.12h-1zM69.1 320.64a2.92 2.92 0 0 1-1.08-1.15 3.55 3.55 0 0 1-.39-1.67 3.71 3.71 0 0 1 .36-1.63 3.07 3.07 0 0 1 1-1.19 2.82 2.82 0 0 1 1.56-.44 2.92 2.92 0 0 1 1.56.4 2.73 2.73 0 0 1 1 1.11 3.64 3.64 0 0 1 .35 1.62.93.93 0 0 1 0 .31h-4.81a2.37 2.37 0 0 0 .33 1.18 2 2 0 0 0 .77.72 2 2 0 0 0 1 .24 2 2 0 0 0 1.81-1.1l.87.42a3.12 3.12 0 0 1-1.08 1.17 2.94 2.94 0 0 1-1.63.43 3 3 0 0 1-1.62-.42zm3.34-3.48a2 2 0 0 0-.22-.76 1.55 1.55 0 0 0-.6-.65 1.87 1.87 0 0 0-1-.27 1.72 1.72 0 0 0-1.22.47 2.17 2.17 0 0 0-.65 1.21zM75.26 320.6a2.57 2.57 0 0 1-.94-1.18l.92-.41a1.79 1.79 0 0 0 .67.85 1.75 1.75 0 0 0 1 .3 1.91 1.91 0 0 0 1-.23.75.75 0 0 0 .41-.67.71.71 0 0 0-.33-.61 3 3 0 0 0-1-.41l-.74-.19a2.63 2.63 0 0 1-1.2-.61 1.54 1.54 0 0 1-.15-2.05 2 2 0 0 1 .84-.61 3.1 3.1 0 0 1 2.58.13 1.91 1.91 0 0 1 .89 1l-.89.41a1.47 1.47 0 0 0-1.45-.82 1.61 1.61 0 0 0-.88.24.68.68 0 0 0-.38.59.67.67 0 0 0 .27.55 2.09 2.09 0 0 0 .79.34l.89.23a2.85 2.85 0 0 1 1.35.67 1.47 1.47 0 0 1 .46 1.1 1.55 1.55 0 0 1-.33 1 2 2 0 0 1-.87.66 3.24 3.24 0 0 1-1.23.22 2.78 2.78 0 0 1-1.68-.5z"/></g></g><g style="isolation:isolate"><path d="M380.3 434.59a4.9 4.9 0 0 1-1.87-1.88 5.58 5.58 0 0 1 0-5.34 5 5 0 0 1 1.87-1.88 5.14 5.14 0 0 1 2.64-.68 4.72 4.72 0 0 1 3.67 1.63l-.85.83a3.8 3.8 0 0 0-1.26-1 3.65 3.65 0 0 0-1.56-.32 4 4 0 0 0-2 .51 3.78 3.78 0 0 0-1.45 1.44 4.55 4.55 0 0 0 0 4.3 3.78 3.78 0 0 0 1.45 1.44 4 4 0 0 0 2 .51 3.94 3.94 0 0 0 3.1-1.49l.86.84a5 5 0 0 1-1.72 1.3 5.07 5.07 0 0 1-2.24.49 5.15 5.15 0 0 1-2.64-.7zM389.5 434.77a3.39 3.39 0 0 1-1.31-1.37 3.9 3.9 0 0 1-.47-1.92 3.84 3.84 0 0 1 .47-1.91 3.48 3.48 0 0 1 1.31-1.38 3.59 3.59 0 0 1 1.88-.5 3.66 3.66 0 0 1 1.89.5 3.55 3.55 0 0 1 1.31 1.38 3.84 3.84 0 0 1 .47 1.91 3.9 3.9 0 0 1-.47 1.92 3.45 3.45 0 0 1-1.31 1.37 3.57 3.57 0 0 1-1.89.51 3.51 3.51 0 0 1-1.88-.51zm3.11-.9a2.42 2.42 0 0 0 .91-.94 3 3 0 0 0 .34-1.45 2.89 2.89 0 0 0-.34-1.44 2.42 2.42 0 0 0-2.14-1.27 2.47 2.47 0 0 0-1.23.33 2.35 2.35 0 0 0-.91.94 2.9 2.9 0 0 0-.35 1.44 3 3 0 0 0 .35 1.45 2.35 2.35 0 0 0 .91.94 2.47 2.47 0 0 0 1.23.33 2.41 2.41 0 0 0 1.23-.33zM396.3 427.91h1.13v1.05h.06a2.41 2.41 0 0 1 .94-.9 2.66 2.66 0 0 1 1.37-.37 2.53 2.53 0 0 1 2 .75 2.93 2.93 0 0 1 .67 2v4.57h-1.19v-4.39a1.88 1.88 0 0 0-.47-1.44 1.82 1.82 0 0 0-1.3-.45 1.68 1.68 0 0 0-1 .32 2.11 2.11 0 0 0-.71.85 2.46 2.46 0 0 0-.25 1.1v4h-1.19zM405.79 435.14a1.93 1.93 0 0 1-.62-.39 1.66 1.66 0 0 1-.42-.63 2.4 2.4 0 0 1-.14-.87v-4.26h-1.25v-1.08h1.25v-2h1.18v2h1.73v1.08h-1.73v4a1.44 1.44 0 0 0 .22.89 1 1 0 0 0 .77.31 1.48 1.48 0 0 0 .79-.24v1.17a2.39 2.39 0 0 1-.43.14 3.9 3.9 0 0 1-.55 0 2.38 2.38 0 0 1-.8-.12zM408.93 427.91h1.13v1.15h.06a2 2 0 0 1 .81-1 2.28 2.28 0 0 1 1.26-.39 2.17 2.17 0 0 1 .84.15v1.28a2.24 2.24 0 0 0-1-.23 1.62 1.62 0 0 0-1 .3 2.15 2.15 0 0 0-.7.79 2.31 2.31 0 0 0-.25 1.07v4h-1.19zM415.16 434.77a3.45 3.45 0 0 1-1.31-1.37 3.9 3.9 0 0 1-.47-1.92 3.84 3.84 0 0 1 .47-1.91 3.55 3.55 0 0 1 1.31-1.38 3.64 3.64 0 0 1 5.09 1.38 3.94 3.94 0 0 1 .46 1.91 4 4 0 0 1-.46 1.92 3.52 3.52 0 0 1-1.31 1.37 3.76 3.76 0 0 1-3.78 0zm3.11-.9a2.42 2.42 0 0 0 .91-.94 3 3 0 0 0 .34-1.45 2.89 2.89 0 0 0-.34-1.44 2.42 2.42 0 0 0-2.13-1.27 2.48 2.48 0 0 0-1.24.33 2.42 2.42 0 0 0-.91.94 2.9 2.9 0 0 0-.35 1.44 3 3 0 0 0 .35 1.45 2.42 2.42 0 0 0 .91.94 2.48 2.48 0 0 0 1.24.33 2.4 2.4 0 0 0 1.22-.33zM422.03 425.03h1.19v10h-1.19zM428.47 425.03h3.37a3.33 3.33 0 0 1 1.56.38 3 3 0 0 1 1.14 1.05 2.9 2.9 0 0 1 .43 1.54 2.84 2.84 0 0 1-.43 1.53 3.05 3.05 0 0 1-1.14 1.06 3.33 3.33 0 0 1-1.56.38h-2.19v4.08h-1.18zm3.4 4.8a1.82 1.82 0 0 0 1.65-.95 1.73 1.73 0 0 0 0-1.76 1.89 1.89 0 0 0-.66-.69 1.81 1.81 0 0 0-1-.27h-2.22v3.67zM436.37 425.03h1.19v10h-1.19zM440.13 434.97a2.31 2.31 0 0 1-.95-.85 2.28 2.28 0 0 1-.34-1.22 2.08 2.08 0 0 1 .86-1.77 3.47 3.47 0 0 1 2.15-.64 5.06 5.06 0 0 1 1.2.14 3.1 3.1 0 0 1 .85.32v-.43a1.62 1.62 0 0 0-.56-1.28 2.08 2.08 0 0 0-1.42-.49 2.38 2.38 0 0 0-1.1.26 2.15 2.15 0 0 0-.8.72l-.9-.67a2.93 2.93 0 0 1 1.16-1 3.65 3.65 0 0 1 1.63-.36 3.26 3.26 0 0 1 2.29.76 2.7 2.7 0 0 1 .83 2.08v4.52h-1.13v-1h-.06a2.44 2.44 0 0 1-.92.88 2.6 2.6 0 0 1-1.39.37 3.17 3.17 0 0 1-1.4-.34zm2.63-1.05a2.36 2.36 0 0 0 .83-.83 2.11 2.11 0 0 0 .31-1.13 2.89 2.89 0 0 0-.83-.36 3.47 3.47 0 0 0-1-.14 2.29 2.29 0 0 0-1.48.4 1.3 1.3 0 0 0-.5 1.05 1.16 1.16 0 0 0 .45.95 1.71 1.71 0 0 0 1.13.37 2.17 2.17 0 0 0 1.12-.31zM446.68 427.91h1.11v1.05h.05a2.48 2.48 0 0 1 .94-.9 2.69 2.69 0 0 1 1.37-.37 2.52 2.52 0 0 1 2 .75 2.94 2.94 0 0 1 .68 2v4.57h-1.19v-4.39a1.88 1.88 0 0 0-.48-1.44 1.8 1.8 0 0 0-1.3-.45 1.72 1.72 0 0 0-1 .32 2.09 2.09 0 0 0-.7.85 2.47 2.47 0 0 0-.26 1.1v4h-1.19zM455.88 434.79a3.41 3.41 0 0 1-1.26-1.35 4 4 0 0 1-.46-1.94 4.22 4.22 0 0 1 .43-1.91 3.38 3.38 0 0 1 1.21-1.38 3.19 3.19 0 0 1 1.82-.52 3.47 3.47 0 0 1 1.82.47 3.07 3.07 0 0 1 1.18 1.29 4.11 4.11 0 0 1 .41 1.89 1.35 1.35 0 0 1 0 .37h-5.64a2.87 2.87 0 0 0 .39 1.37 2.35 2.35 0 0 0 2 1.12 2.32 2.32 0 0 0 2.11-1.29l1 .49a3.6 3.6 0 0 1-1.25 1.37 3.47 3.47 0 0 1-1.91.51 3.54 3.54 0 0 1-1.85-.49zm3.91-4.06a2.34 2.34 0 0 0-.25-.9 1.86 1.86 0 0 0-.7-.75 2.21 2.21 0 0 0-1.22-.31 2 2 0 0 0-1.42.54 2.62 2.62 0 0 0-.76 1.42z"/></g><path fill="none" stroke="#476baf" stroke-miterlimit="10" stroke-width="2" d="M245.69 340.63v-2"/><path fill="none" stroke="#476baf" stroke-miterlimit="10" stroke-width="2" stroke-dasharray="4.03 4.03" d="M245.69 334.53v-30.2"/><path fill="none" stroke="#476baf" stroke-miterlimit="10" stroke-width="2" d="M245.69 302.33v-2"/><path fill="#476baf" d="M250.69 301.73l-5-8.6-5 8.6h10z"/><path fill="none" stroke="#476baf" stroke-miterlimit="10" stroke-width="2" d="M178.19 377.53h-2"/><path fill="none" stroke="#476baf" stroke-miterlimit="10" stroke-width="2" stroke-dasharray="4.81 4.81" d="M171.39 377.53h-7.2"/><path fill="none" stroke="#476baf" stroke-miterlimit="10" stroke-width="2" d="M161.79 377.53h-2"/><path fill="#476baf" d="M161.29 372.53l-8.7 5 8.7 5v-10z"/><path fill="none" stroke="#476baf" stroke-miterlimit="10" stroke-width="2" d="M330.79 257.13h-2"/><path fill="none" stroke="#476baf" stroke-miterlimit="10" stroke-width="2" stroke-dasharray="4.81 4.81" d="M323.99 257.13h-7.2"/><path fill="none" stroke="#476baf" stroke-miterlimit="10" stroke-width="2" d="M314.39 257.13h-2"/><path fill="#476baf" d="M329.29 252.13l8.6 5-8.6 5v-10z"/><path fill="none" stroke="#476baf" stroke-miterlimit="10" stroke-width="2" d="M178.19 257.13h-2"/><path fill="none" stroke="#476baf" stroke-miterlimit="10" stroke-width="2" stroke-dasharray="4.81 4.81" d="M171.39 257.13h-7.2"/><path fill="none" stroke="#476baf" stroke-miterlimit="10" stroke-width="2" d="M161.79 257.13h-2"/><path fill="#476baf" d="M161.29 252.13l-8.7 5 8.7 5v-10z"/><path d="M416.39 271.33h-74.6a3 3 0 0 1-3-3v-22.4a3.08 3.08 0 0 1 3-3h74.6a3.08 3.08 0 0 1 3 3v22.4a3 3 0 0 1-3 3z" fill="#e5e5e4"/><path d="M410.59 264.93h-63.1a3.08 3.08 0 0 1-3-3v-11.3a3.08 3.08 0 0 1 3-3h63.1a3.08 3.08 0 0 1 3 3v11.3a3 3 0 0 1-3 3z" fill="#fff"/><g style="isolation:isolate"><path d="M365.1 252.86h.86l2.44 6.42h-.83l-.65-1.77h-2.76l-.65 1.77h-.83zm1.56 3.93l-.85-2.31-.26-.69-.25.69-.86 2.31zM369.79 259.11a2.2 2.2 0 0 1-.78-.87 2.82 2.82 0 0 1 0-2.49 2.2 2.2 0 0 1 .78-.87 2.08 2.08 0 0 1 1.11-.32 1.83 1.83 0 0 1 .94.24 1.64 1.64 0 0 1 .63.59v-2.53h.76v6.47h-.72v-.68a1.69 1.69 0 0 1-.63.58 1.83 1.83 0 0 1-.94.24 2.07 2.07 0 0 1-1.15-.36zm1.95-.6a1.46 1.46 0 0 0 .55-.6 1.84 1.84 0 0 0 .22-.92 1.8 1.8 0 0 0-.22-.91 1.41 1.41 0 0 0-2-.61 1.5 1.5 0 0 0-.56.61 1.94 1.94 0 0 0-.21.91 1.91 1.91 0 0 0 .21.91 1.44 1.44 0 0 0 .56.61 1.37 1.37 0 0 0 1.49 0zM374.88 259.22a1.41 1.41 0 0 1-.82-1.32 1.35 1.35 0 0 1 .54-1.14 2.28 2.28 0 0 1 1.38-.4 3.13 3.13 0 0 1 .77.09 1.65 1.65 0 0 1 .54.2v-.32a1 1 0 0 0-.36-.82 1.36 1.36 0 0 0-.9-.31 1.52 1.52 0 0 0-.71.17 1.2 1.2 0 0 0-.51.46l-.57-.43a1.75 1.75 0 0 1 .73-.64 2.31 2.31 0 0 1 1.05-.24 2.09 2.09 0 0 1 1.46.49 1.71 1.71 0 0 1 .54 1.33v2.99h-.73v-.66a1.62 1.62 0 0 1-.59.57 1.75 1.75 0 0 1-.88.23 2 2 0 0 1-.94-.25zm1.68-.67a1.42 1.42 0 0 0 .53-.53 1.39 1.39 0 0 0 .2-.72 1.73 1.73 0 0 0-.53-.24 2.39 2.39 0 0 0-.66-.09 1.51 1.51 0 0 0-.95.26.85.85 0 0 0-.32.68.73.73 0 0 0 .29.6 1.09 1.09 0 0 0 .73.24 1.39 1.39 0 0 0 .71-.2zM379.04 254.71h.75v.68a1.61 1.61 0 0 1 .62-.59 1.85 1.85 0 0 1 .94-.24 2.08 2.08 0 0 1 1.11.32 2.22 2.22 0 0 1 .79.87 2.91 2.91 0 0 1 0 2.49 2.22 2.22 0 0 1-.79.87 2.07 2.07 0 0 1-1.11.31 1.85 1.85 0 0 1-.94-.24 1.66 1.66 0 0 1-.62-.58v2.63h-.76zm3 3.8a1.44 1.44 0 0 0 .56-.61 1.91 1.91 0 0 0 .21-.91 1.94 1.94 0 0 0-.21-.91 1.5 1.5 0 0 0-.56-.61 1.35 1.35 0 0 0-1.48 0 1.44 1.44 0 0 0-.56.61 1.91 1.91 0 0 0-.21.91 2 2 0 0 0 .21.92 1.48 1.48 0 0 0 .56.6 1.35 1.35 0 0 0 1.48 0zM385.49 259.33a1.09 1.09 0 0 1-.4-.25 1.07 1.07 0 0 1-.26-.4 1.53 1.53 0 0 1-.09-.56v-2.72h-.8v-.69h.8v-1.29h.76v1.29h1.11v.69h-1.11v2.54a.89.89 0 0 0 .14.57.62.62 0 0 0 .49.2 1 1 0 0 0 .51-.15v.77a1.31 1.31 0 0 1-.28.09 1.69 1.69 0 0 1-.35 0 1.46 1.46 0 0 1-.52-.09zM388.2 259.11a2.22 2.22 0 0 1-.82-.87 2.67 2.67 0 0 1-.29-1.24 2.64 2.64 0 0 1 .28-1.22 2.29 2.29 0 0 1 .77-.89 2.08 2.08 0 0 1 1.17-.33 2.2 2.2 0 0 1 1.16.3 2 2 0 0 1 .76.83 2.76 2.76 0 0 1 .26 1.21.75.75 0 0 1 0 .23h-3.61a1.82 1.82 0 0 0 .26.88 1.38 1.38 0 0 0 .56.54 1.55 1.55 0 0 0 .73.18 1.51 1.51 0 0 0 1.35-.82l.64.31a2.16 2.16 0 0 1-2 1.2 2.18 2.18 0 0 1-1.22-.31zm2.49-2.6a1.66 1.66 0 0 0-.17-.58 1.14 1.14 0 0 0-.45-.48 1.4 1.4 0 0 0-.77-.2 1.29 1.29 0 0 0-.91.35 1.65 1.65 0 0 0-.49.91zM392.38 254.71h.72v.73a1.25 1.25 0 0 1 .52-.63 1.54 1.54 0 0 1 .81-.25 1.39 1.39 0 0 1 .53.1v.82a1.34 1.34 0 0 0-.64-.15 1.1 1.1 0 0 0-.61.19 1.36 1.36 0 0 0-.44.51 1.47 1.47 0 0 0-.17.69v2.61h-.76z"/></g><path data-name="background" fill="#486baf" d="M338.69 242.93h10.5v10.5h-10.5z"/><path data-name="hull" fill="#fff" d="M341.29 251.03h5.3l-3.3 1-2-1z"/><path data-name="mainsail" fill="#fff" d="M341.29 250.73l2-.3v-3.6l-2 3.9z"/><path data-name="headsail" fill="#fff" d="M343.59 250.43l3 .3-3-6.5v6.2z"/><path d="M149.59 271.33h-74.6a3 3 0 0 1-3-3v-22.4a3 3 0 0 1 3-3h74.6a3.08 3.08 0 0 1 3 3v22.4a3 3 0 0 1-3 3z" fill="#e5e5e4"/><path d="M143.89 264.93h-63.2a3 3 0 0 1-3-3v-11.3a3 3 0 0 1 3-3h63.1a3.08 3.08 0 0 1 3 3v11.3a2.86 2.86 0 0 1-2.9 3z" fill="#fff"/><g style="isolation:isolate"><path d="M98.37 252.86h.87l2.43 6.42h-.83l-.65-1.77h-2.76l-.64 1.82h-.83zm1.56 3.93l-.85-2.31-.26-.69-.25.69-.85 2.31zM103.07 259.11a2.15 2.15 0 0 1-.79-.87 2.91 2.91 0 0 1 0-2.49 2.15 2.15 0 0 1 .79-.87 2 2 0 0 1 1.1-.32 1.83 1.83 0 0 1 .94.24 1.64 1.64 0 0 1 .63.59v-2.53h.76v6.47h-.71v-.68a1.69 1.69 0 0 1-.63.58 1.83 1.83 0 0 1-.94.24 2 2 0 0 1-1.15-.36zm1.94-.6a1.55 1.55 0 0 0 .56-.6 2 2 0 0 0 .21-.92 1.91 1.91 0 0 0-.21-.91 1.51 1.51 0 0 0-.56-.61 1.37 1.37 0 0 0-1.49 0 1.58 1.58 0 0 0-.56.61 1.94 1.94 0 0 0-.21.91 1.91 1.91 0 0 0 .21.91 1.51 1.51 0 0 0 .56.61 1.37 1.37 0 0 0 1.49 0zM108.15 259.22a1.41 1.41 0 0 1-.82-1.32 1.35 1.35 0 0 1 .54-1.14 2.28 2.28 0 0 1 1.38-.4 3.13 3.13 0 0 1 .77.09 1.65 1.65 0 0 1 .54.2v-.32a1 1 0 0 0-.36-.82 1.36 1.36 0 0 0-.9-.31 1.52 1.52 0 0 0-.71.17 1.2 1.2 0 0 0-.51.46l-.57-.43a1.75 1.75 0 0 1 .73-.64 2.31 2.31 0 0 1 1-.24 2.09 2.09 0 0 1 1.46.49 1.71 1.71 0 0 1 .54 1.33v2.99h-.73v-.66a1.62 1.62 0 0 1-.59.57 1.75 1.75 0 0 1-.88.23 2 2 0 0 1-.89-.25zm1.68-.67a1.42 1.42 0 0 0 .53-.53 1.31 1.31 0 0 0 .2-.72 1.73 1.73 0 0 0-.53-.24 2.39 2.39 0 0 0-.66-.09 1.51 1.51 0 0 0-1 .26.84.84 0 0 0-.31.68.72.72 0 0 0 .28.6 1.11 1.11 0 0 0 .73.24 1.39 1.39 0 0 0 .72-.2zM112.31 254.71h.72v.68a1.61 1.61 0 0 1 .62-.59 1.85 1.85 0 0 1 .94-.24 2.08 2.08 0 0 1 1.11.32 2.22 2.22 0 0 1 .79.87 2.91 2.91 0 0 1 0 2.49 2.22 2.22 0 0 1-.79.87 2.07 2.07 0 0 1-1.11.31 1.85 1.85 0 0 1-.94-.24 1.66 1.66 0 0 1-.62-.58v2.63h-.76zm3 3.8a1.44 1.44 0 0 0 .56-.61 1.91 1.91 0 0 0 .21-.91 1.94 1.94 0 0 0-.21-.91 1.5 1.5 0 0 0-.56-.61 1.35 1.35 0 0 0-1.48 0 1.44 1.44 0 0 0-.56.61 1.91 1.91 0 0 0-.21.91 2 2 0 0 0 .21.92 1.48 1.48 0 0 0 .56.6 1.35 1.35 0 0 0 1.48 0zM118.79 259.33a1.09 1.09 0 0 1-.4-.25 1.2 1.2 0 0 1-.26-.4 1.53 1.53 0 0 1-.09-.56v-2.72h-.8v-.69h.8v-1.29h.75v1.29h1.11v.69h-1.11v2.54a1 1 0 0 0 .14.57.62.62 0 0 0 .49.2 1 1 0 0 0 .51-.15v.77a1.31 1.31 0 0 1-.28.09 1.69 1.69 0 0 1-.35 0 1.46 1.46 0 0 1-.51-.09zM121.47 259.11a2.22 2.22 0 0 1-.82-.87 2.67 2.67 0 0 1-.29-1.24 2.64 2.64 0 0 1 .28-1.22 2.29 2.29 0 0 1 .77-.89 2.08 2.08 0 0 1 1.17-.33 2.2 2.2 0 0 1 1.16.3 2 2 0 0 1 .76.83 2.76 2.76 0 0 1 .26 1.21 1.4 1.4 0 0 1 0 .23h-3.62a1.82 1.82 0 0 0 .26.88 1.38 1.38 0 0 0 .56.54 1.55 1.55 0 0 0 .73.18 1.51 1.51 0 0 0 1.35-.82l.64.31a2.16 2.16 0 0 1-2 1.2 2.18 2.18 0 0 1-1.21-.31zm2.49-2.6a1.66 1.66 0 0 0-.17-.58 1.14 1.14 0 0 0-.45-.48 1.4 1.4 0 0 0-.77-.2 1.29 1.29 0 0 0-.91.35 1.65 1.65 0 0 0-.49.91zM125.65 254.71h.72v.73a1.25 1.25 0 0 1 .52-.63 1.54 1.54 0 0 1 .81-.25 1.39 1.39 0 0 1 .53.1v.82a1.34 1.34 0 0 0-.64-.15 1.12 1.12 0 0 0-.61.19 1.36 1.36 0 0 0-.44.51 1.47 1.47 0 0 0-.17.69v2.61h-.76z"/></g><path data-name="background" fill="#486baf" d="M71.99 242.93h10.5v10.5h-10.5z"/><path data-name="hull" fill="#fff" d="M74.59 251.03h5.2l-3.2 1-2-1z"/><path data-name="mainsail" fill="#fff" d="M74.59 250.73l2-.3v-3.6l-2 3.9z"/><path data-name="headsail" fill="#fff" d="M76.89 250.43l2.9.3-2.9-6.5v6.2z"/><rect x="23.41" y="5.72" width="136.06" height="136.06" rx="3" fill="#e5e5e4"/><rect x="17.69" width="136.06" height="136.06" rx="3" fill="#e5e5e4"/><rect x="27.22" y="7.58" width="117" height="40.35" rx="3" fill="#fff"/><path d="M80.36 31.78a3.67 3.67 0 0 1-1.35-2l1.14-.45a3 3 0 0 0 .88 1.47 2.2 2.2 0 0 0 1.51.57 2.33 2.33 0 0 0 1.47-.47 1.53 1.53 0 0 0 .6-1.28 1.5 1.5 0 0 0-.51-1.16 4.92 4.92 0 0 0-1.67-.84l-.64-.24a5 5 0 0 1-1.74-1 2.23 2.23 0 0 1-.67-1.71 2.4 2.4 0 0 1 .41-1.34 2.81 2.81 0 0 1 1.1-1 3.24 3.24 0 0 1 1.56-.37 3.44 3.44 0 0 1 1.52.32 3.24 3.24 0 0 1 1 .79 3 3 0 0 1 .53.91l-1.12.47a1.85 1.85 0 0 0-.63-.93 2 2 0 0 0-1.31-.42 2.07 2.07 0 0 0-1.32.43 1.34 1.34 0 0 0-.54 1.09 1.17 1.17 0 0 0 .46 1 4.54 4.54 0 0 0 1.4.69l.66.23a5.48 5.48 0 0 1 2 1.15 2.49 2.49 0 0 1 .69 1.91 2.63 2.63 0 0 1-.5 1.62 3 3 0 0 1-1.25 1 4.2 4.2 0 0 1-1.56.3 3.53 3.53 0 0 1-2.12-.74zM88.67 32a3.29 3.29 0 0 1-1.26-1.35 4 4 0 0 1-.46-1.94 4.18 4.18 0 0 1 .43-1.9 3.47 3.47 0 0 1 1.21-1.39 3.26 3.26 0 0 1 1.82-.51 3.44 3.44 0 0 1 1.82.46 3.15 3.15 0 0 1 1.18 1.3 4.11 4.11 0 0 1 .38 1.89 1.25 1.25 0 0 1-.05.36h-5.6a2.94 2.94 0 0 0 .39 1.41 2.38 2.38 0 0 0 .89.84 2.52 2.52 0 0 0 1.13.28 2.32 2.32 0 0 0 2.11-1.29l1 .49a3.6 3.6 0 0 1-1.25 1.37 3.8 3.8 0 0 1-3.75 0zm3.9-4.06a2.32 2.32 0 0 0-.26-.89 1.87 1.87 0 0 0-.7-.76 2.26 2.26 0 0 0-1.21-.31 2 2 0 0 0-1.42.54 2.6 2.6 0 0 0-.77 1.42zM95.21 25.13h1.14v1.2a2 2 0 0 1 .81-1 2.33 2.33 0 0 1 1.26-.39 2.1 2.1 0 0 1 .84.15v1.24a2.16 2.16 0 0 0-1-.22 1.72 1.72 0 0 0-1 .29 2.07 2.07 0 0 0-.69.8 2.32 2.32 0 0 0-.26 1.07v4h-1.1zM99.92 25.13h1.27l2.21 5.74 2.24-5.74h1.25l-2.92 7.14h-1.18zM107.99 23.58a.86.86 0 0 1-.25-.61.82.82 0 0 1 .25-.59.86.86 0 0 1 1.21 0 .78.78 0 0 1 .25.59.85.85 0 0 1-.24.61.87.87 0 0 1-1.22 0zm0 1.55h1.17v7.14h-1.17zM112.36 32a3.52 3.52 0 0 1-1.29-1.36 4.34 4.34 0 0 1 0-3.89 3.36 3.36 0 0 1 1.29-1.35 3.54 3.54 0 0 1 1.86-.49 3.47 3.47 0 0 1 2 .53 3 3 0 0 1 1.12 1.44l-1.07.45a2.1 2.1 0 0 0-.79-1 2.3 2.3 0 0 0-1.27-.35 2.2 2.2 0 0 0-1.18.35 2.46 2.46 0 0 0-.87 1 3.18 3.18 0 0 0 0 2.82 2.53 2.53 0 0 0 .87 1 2.2 2.2 0 0 0 1.18.35 2.38 2.38 0 0 0 1.3-.35 2.18 2.18 0 0 0 .81-1l1.07.45a3.26 3.26 0 0 1-1.17 1.43 3.45 3.45 0 0 1-2 .54 3.54 3.54 0 0 1-1.86-.57zM119.91 32a3.31 3.31 0 0 1-1.27-1.35 4.11 4.11 0 0 1-.45-1.94 4.3 4.3 0 0 1 .42-1.9 3.55 3.55 0 0 1 1.18-1.39 3.28 3.28 0 0 1 1.82-.51 3.44 3.44 0 0 1 1.82.46 3.18 3.18 0 0 1 1.19 1.3 4.24 4.24 0 0 1 .41 1.89 1.28 1.28 0 0 1 0 .36h-5.64a2.83 2.83 0 0 0 .4 1.41 2.31 2.31 0 0 0 .89.84 2.48 2.48 0 0 0 1.12.28 2.33 2.33 0 0 0 2.12-1.29l1 .49a3.62 3.62 0 0 1-1.26 1.37 3.78 3.78 0 0 1-3.74 0zm3.88-4.06a2.3 2.3 0 0 0-.25-.89 2 2 0 0 0-.71-.76 2.24 2.24 0 0 0-1.21-.31 2 2 0 0 0-1.42.54 2.59 2.59 0 0 0-.76 1.42zM132.4 22.25h1.39l3.81 10h-1.3l-1-2.76h-4.33l-1 2.76h-1.3zm2.39 6.14l-1.33-3.61-.4-1.08H133l-.39 1.08-1.33 3.61z"/><circle cx="53.68" cy="27.76" r="18" fill="#767576"/><path fill="none" stroke="#fff" stroke-linejoin="round" stroke-width="2" d="M47.28 21.24h12.79v12.79H47.28z"/><path fill="none" stroke="#fff" stroke-linecap="round" stroke-miterlimit="10" stroke-width="2" d="M49.65 21.24v-3.08M53.68 21.24v-3.08M57.71 21.24v-3.08M49.65 37.35v-3.08M53.68 37.35v-3.08M57.71 37.35v-3.08M47.17 31.78h-3.08M47.17 27.76h-3.08M47.17 23.73h-3.08M63.27 31.78h-3.08M63.27 27.76h-3.08M63.27 23.73h-3.08"/><rect x="50.84" y="24.79" width="5.68" height="5.68" rx="2" fill="#fff"/><rect x="27.22" y="85.55" width="117" height="39.08" rx="3" fill="#fff"/><path fill="none" stroke="#b14d9d" stroke-linejoin="round" stroke-width="3" d="M67.48 112.73V97.44l-13.25-7.66-13.26 7.66v15.29l13.26 7.66 13.25-7.66z"/><path d="M91.79 99.51h3.37a3.29 3.29 0 0 1 1.56.37 3.06 3.06 0 0 1 1.14 1.06 3 3 0 0 1 0 3.07 3 3 0 0 1-1.14 1 3.19 3.19 0 0 1-1.56.38h-2.22v4.09h-1.15zm3.4 4.8a1.87 1.87 0 0 0 1.89-1.84 1.77 1.77 0 0 0-.24-.88 1.87 1.87 0 0 0-1.65-1h-2.25v3.74zM99.59 102.39h1.13v1.15h.07a2 2 0 0 1 .81-1 2.28 2.28 0 0 1 1.26-.39 2.1 2.1 0 0 1 .84.15v1.27a2.37 2.37 0 0 0-1-.22 1.62 1.62 0 0 0-1 .3 2 2 0 0 0-.69.79 2.2 2.2 0 0 0-.26 1.07v4h-1.16zM105.79 109.25a3.52 3.52 0 0 1-1.31-1.37 4.16 4.16 0 0 1 0-3.84 3.52 3.52 0 0 1 1.31-1.37 3.65 3.65 0 0 1 5.09 1.37 4.24 4.24 0 0 1 0 3.84 3.72 3.72 0 0 1-5.09 1.37zm3.11-.9a2.45 2.45 0 0 0 .91-1 3.22 3.22 0 0 0 0-2.88 2.45 2.45 0 0 0-.91-.95 2.38 2.38 0 0 0-1.22-.33 2.48 2.48 0 0 0-1.24.33 2.45 2.45 0 0 0-.91.95 3.14 3.14 0 0 0 0 2.88 2.45 2.45 0 0 0 .91 1 2.48 2.48 0 0 0 1.24.33 2.38 2.38 0 0 0 1.25-.35zM114.37 105.9l-2.48-3.51h1.35l1.84 2.65 1.78-2.65h1.39l-2.46 3.51 2.54 3.63h-1.38l-1.86-2.74-1.82 2.74h-1.39zM121.55 109.08l-3-6.69h1.29l2.24 5.31 2.16-5.31h1.29l-4.41 10.16h-1.23z"/><rect x="337.53" y="5.72" width="136.06" height="136.06" rx="3" fill="#e5e5e4"/><rect x="331.81" width="136.06" height="136.06" rx="3" fill="#e5e5e4"/><rect x="341.35" y="7.58" width="117" height="40.35" rx="3" fill="#fff"/><path d="M394.48 31.78a3.67 3.67 0 0 1-1.35-2l1.14-.46a3 3 0 0 0 .88 1.47 2.2 2.2 0 0 0 1.51.57 2.33 2.33 0 0 0 1.47-.47 1.53 1.53 0 0 0 .6-1.28 1.5 1.5 0 0 0-.51-1.16 4.92 4.92 0 0 0-1.67-.84l-.63-.23a5 5 0 0 1-1.74-1 2.23 2.23 0 0 1-.67-1.71 2.4 2.4 0 0 1 .39-1.32 2.81 2.81 0 0 1 1.1-1 3.24 3.24 0 0 1 1.56-.37 3.44 3.44 0 0 1 1.52.32 3.24 3.24 0 0 1 1 .79 3 3 0 0 1 .53.91l-1.12.47a1.85 1.85 0 0 0-.63-.93 2 2 0 0 0-1.31-.42 2.07 2.07 0 0 0-1.32.43 1.34 1.34 0 0 0-.54 1.09 1.17 1.17 0 0 0 .46 1 4.54 4.54 0 0 0 1.4.69l.66.23a5.48 5.48 0 0 1 2 1.15 2.49 2.49 0 0 1 .72 1.89 2.63 2.63 0 0 1-.5 1.62 3 3 0 0 1-1.25 1 4.2 4.2 0 0 1-1.56.3 3.53 3.53 0 0 1-2.14-.74zM402.79 32a3.29 3.29 0 0 1-1.26-1.35 4 4 0 0 1-.46-1.94 4.18 4.18 0 0 1 .43-1.9 3.47 3.47 0 0 1 1.21-1.39 3.26 3.26 0 0 1 1.82-.51 3.44 3.44 0 0 1 1.82.46 3.15 3.15 0 0 1 1.18 1.3 4.11 4.11 0 0 1 .42 1.89 1.25 1.25 0 0 1-.05.36h-5.64a2.94 2.94 0 0 0 .39 1.38 2.38 2.38 0 0 0 .89.84 2.52 2.52 0 0 0 1.13.28 2.32 2.32 0 0 0 2.12-1.29l1 .49a3.6 3.6 0 0 1-1.25 1.37 3.8 3.8 0 0 1-3.75 0zm3.9-4.06a2.32 2.32 0 0 0-.26-.89 1.87 1.87 0 0 0-.7-.76 2.26 2.26 0 0 0-1.21-.31 2 2 0 0 0-1.42.54 2.6 2.6 0 0 0-.77 1.42zM409.33 25.13h1.14v1.2h.05a2 2 0 0 1 .81-1 2.33 2.33 0 0 1 1.26-.39 2.1 2.1 0 0 1 .84.15v1.24a2.16 2.16 0 0 0-1-.22 1.72 1.72 0 0 0-1 .29 2.07 2.07 0 0 0-.69.8 2.32 2.32 0 0 0-.26 1.07v4h-1.19zM414.04 25.13h1.27l2.21 5.74 2.27-5.74h1.25l-2.92 7.14h-1.2zM422.11 23.58a.86.86 0 0 1-.25-.61.82.82 0 0 1 .25-.59.86.86 0 0 1 1.21 0 .78.78 0 0 1 .25.59.85.85 0 0 1-.24.61.87.87 0 0 1-1.22 0zm0 1.55h1.17v7.14h-1.17zM426.48 32a3.52 3.52 0 0 1-1.29-1.36 4.34 4.34 0 0 1 0-3.89 3.36 3.36 0 0 1 1.29-1.35 3.54 3.54 0 0 1 1.86-.49 3.47 3.47 0 0 1 2 .53 3 3 0 0 1 1.12 1.44l-1.07.45a2.1 2.1 0 0 0-.79-1 2.28 2.28 0 0 0-1.27-.35 2.2 2.2 0 0 0-1.18.35 2.46 2.46 0 0 0-.87 1 3.18 3.18 0 0 0 0 2.82 2.53 2.53 0 0 0 .87 1 2.2 2.2 0 0 0 1.18.35 2.38 2.38 0 0 0 1.3-.35 2.18 2.18 0 0 0 .81-1l1.07.45a3.26 3.26 0 0 1-1.17 1.43 3.45 3.45 0 0 1-2 .54 3.54 3.54 0 0 1-1.86-.57zM434.03 32a3.31 3.31 0 0 1-1.24-1.35 4.11 4.11 0 0 1-.45-1.94 4.3 4.3 0 0 1 .42-1.9 3.55 3.55 0 0 1 1.21-1.39 3.28 3.28 0 0 1 1.82-.51 3.44 3.44 0 0 1 1.82.46 3.18 3.18 0 0 1 1.19 1.3 4.24 4.24 0 0 1 .41 1.89 1.28 1.28 0 0 1 0 .36h-5.64a2.83 2.83 0 0 0 .32 1.41 2.31 2.31 0 0 0 .89.84 2.48 2.48 0 0 0 1.12.28 2.33 2.33 0 0 0 2.12-1.29l1 .49a3.62 3.62 0 0 1-1.23 1.34 3.78 3.78 0 0 1-3.74 0zm3.89-4.06a2.3 2.3 0 0 0-.25-.89 2 2 0 0 0-.71-.76 2.24 2.24 0 0 0-1.21-.31 2 2 0 0 0-1.42.54 2.59 2.59 0 0 0-.76 1.42zM446.52 22.25h1.34l3.81 10h-1.3l-1-2.76h-4.33l-1 2.76h-1.3zm2.43 6.14l-1.33-3.61-.4-1.08h-.06l-.37 1.08-1.33 3.61z"/><circle cx="367.8" cy="27.76" r="18" fill="#767576"/><path fill="none" stroke="#fff" stroke-linejoin="round" stroke-width="2" d="M361.4 21.24h12.79v12.79H361.4z"/><path fill="none" stroke="#fff" stroke-linecap="round" stroke-miterlimit="10" stroke-width="2" d="M363.77 21.24v-3.08M367.8 21.24v-3.08M371.83 21.24v-3.08M363.77 37.35v-3.08M367.8 37.35v-3.08M371.83 37.35v-3.08M361.29 31.78h-3.08M361.29 27.76h-3.08M361.29 23.73h-3.08M377.39 31.78h-3.08M377.39 27.76h-3.08M377.39 23.73h-3.08"/><rect x="364.96" y="24.79" width="5.68" height="5.68" rx="2" fill="#fff"/><rect x="341.35" y="85.55" width="117" height="39.08" rx="3" fill="#fff"/><path fill="none" stroke="#b14d9d" stroke-linejoin="round" stroke-width="3" d="M381.61 112.73V97.44l-13.26-7.66-13.27 7.66v15.29l13.27 7.66 13.26-7.66z"/><path d="M405.88 99.51h3.37a3.29 3.29 0 0 1 1.56.37 3 3 0 0 1 1.14 1.06 2.91 2.91 0 0 1-1.14 4.12 3.19 3.19 0 0 1-1.56.38h-2.19v4.09h-1.18zm3.4 4.8a1.87 1.87 0 0 0 1.89-1.84 1.77 1.77 0 0 0-.24-.88 1.87 1.87 0 0 0-1.65-1h-2.22v3.74zM413.71 102.39h1.13v1.15h.06a2 2 0 0 1 .81-1 2.28 2.28 0 0 1 1.26-.39 2.1 2.1 0 0 1 .84.15v1.27a2.37 2.37 0 0 0-1-.22 1.65 1.65 0 0 0-.95.3 2 2 0 0 0-.69.79 2.2 2.2 0 0 0-.26 1.07v4h-1.19zM419.94 109.25a3.52 3.52 0 0 1-1.31-1.37 4.16 4.16 0 0 1 0-3.84 3.52 3.52 0 0 1 1.31-1.37 3.65 3.65 0 0 1 5.09 1.37 4.16 4.16 0 0 1 0 3.84 3.72 3.72 0 0 1-5.09 1.37zm3.11-.9a2.45 2.45 0 0 0 .91-1 3.22 3.22 0 0 0 0-2.88 2.45 2.45 0 0 0-.91-.95 2.38 2.38 0 0 0-1.22-.33 2.48 2.48 0 0 0-1.24.33 2.45 2.45 0 0 0-.91.95 3.14 3.14 0 0 0 0 2.88 2.45 2.45 0 0 0 .91 1 2.48 2.48 0 0 0 1.24.33 2.38 2.38 0 0 0 1.22-.35zM428.49 105.9l-2.48-3.51h1.35l1.85 2.65 1.77-2.65h1.39l-2.49 3.51 2.54 3.63h-1.38l-1.86-2.74-1.82 2.74h-1.39zM435.67 109.08l-2.95-6.69h1.29l2.24 5.31 2.16-5.31h1.29l-4.41 10.16h-1.23z"/><path fill="none" stroke="#00a14b" stroke-miterlimit="10" stroke-width="2" d="M86.89 48.03v30.34"/><path fill="#00a14b" d="M81.91 76.91l4.98 8.64 4.99-8.64h-9.97z"/><path fill="none" stroke="#00a14b" stroke-miterlimit="10" stroke-width="2" d="M144.22 105.09h189.95"/><path fill="#00a14b" d="M332.71 110.07l8.64-4.99-8.64-4.98v9.97z"/><path fill="none" stroke="#00a14b" stroke-miterlimit="10" stroke-width="2" d="M399.85 85.55V55.21"/><path fill="#00a14b" d="M404.83 56.66l-4.98-8.63-4.99 8.63h9.97z"/><path d="M86.66 131.74c.17.64.37 1.28.59 1.91" fill="none" stroke="#476baf" stroke-miterlimit="10" stroke-width="2"/><path d="M88.79 137.33c11.36 22.61 52.06 35.6 83.88 35.6 34.87 0 63.07 17.41 70.84 37.35" fill="none" stroke="#476baf" stroke-miterlimit="10" stroke-width="2" stroke-dasharray="3.94 3.94"/><path d="M244.17 212.09c.2.63.39 1.27.55 1.92" fill="none" stroke="#476baf" stroke-miterlimit="10" stroke-width="2"/><path fill="#476baf" d="M82.1 133.91l3.62-9.28 6.24 7.78-9.86 1.5zM239.43 213.33l6.21 7.8 3.66-9.28-9.87 1.48z"/><path d="M246.63 214.01c.17-.64.37-1.27.59-1.9" fill="none" stroke="#476baf" stroke-miterlimit="10" stroke-width="2"/><path d="M248.79 208.48c11.36-22.62 52.06-35.6 83.88-35.6 34.87 0 63.06-17.41 70.84-37.35" fill="none" stroke="#476baf" stroke-miterlimit="10" stroke-width="2" stroke-dasharray="3.94 3.94"/><path d="M404.14 133.67c.2-.64.39-1.28.55-1.92" fill="none" stroke="#476baf" stroke-miterlimit="10" stroke-width="2"/><path fill="#476baf" d="M251.93 213.35l-6.24 7.78-3.62-9.29 9.86 1.51zM409.26 133.9l-3.65-9.27-6.21 7.8 9.86 1.47z"/></svg>