<svg xmlns="http://www.w3.org/2000/svg" viewBox="0 0 465.9 246"><defs><style>.cls-1,.cls-4,.cls-5,.cls-8,.cls-9{fill:none;}.cls-1,.cls-5{stroke:#466bb0;}.cls-1,.cls-4,.cls-5,.cls-8{stroke-linejoin:round;}.cls-1{stroke-dasharray:10 10;}.cls-2{fill:#e6e6e6;}.cls-3{fill:#fff;}.cls-4{stroke:#e905ee;stroke-width:3px;}.cls-5,.cls-9{stroke-linecap:round;}.cls-5{stroke-width:4px;}.cls-6{fill:#466bb0;}.cls-7{fill:#757575;}.cls-8,.cls-9{stroke:#fff;stroke-width:2px;}.cls-9{stroke-miterlimit:10;}</style></defs><title>net-config-3</title><g id="Virtual_service" data-name="Virtual service"><rect class="cls-1" x="0.5" y="21.64" width="464.9" height="223.86" rx="10" ry="10"/><path d="M2.18,2.27H3.52V13.73H2.18Z"/><path d="M6.47,13.37a3.38,3.38,0,0,1-1.25-1.58l1.22-.54a2.38,2.38,0,0,0,.9,1.13,2.3,2.3,0,0,0,1.32.4A2.57,2.57,0,0,0,10,12.47a1,1,0,0,0,.55-.89,1,1,0,0,0-.44-.82,3.88,3.88,0,0,0-1.36-.54l-1-.25a3.53,3.53,0,0,1-1.6-.82,2,2,0,0,1-.62-1.49,2,2,0,0,1,.42-1.24A2.8,2.8,0,0,1,7.06,5.6a4,4,0,0,1,1.52-.29,3.86,3.86,0,0,1,1.91.47,2.61,2.61,0,0,1,1.19,1.29l-1.18.55A2,2,0,0,0,8.56,6.53a2.15,2.15,0,0,0-1.17.31.91.91,0,0,0-.51.79.89.89,0,0,0,.36.73,2.72,2.72,0,0,0,1,.46l1.19.3a3.8,3.8,0,0,1,1.8.9,2,2,0,0,1,.61,1.47,2.11,2.11,0,0,1-.43,1.32,2.73,2.73,0,0,1-1.17.87,4.26,4.26,0,0,1-1.63.3A3.74,3.74,0,0,1,6.47,13.37Z"/><path d="M15.52,13.82a2,2,0,0,1-.71-.44,1.83,1.83,0,0,1-.48-.72,2.63,2.63,0,0,1-.16-1V6.8H12.74V5.57h1.43V3.26h1.35V5.57h2V6.8h-2v4.55a1.65,1.65,0,0,0,.26,1,1.09,1.09,0,0,0,.88.36,1.68,1.68,0,0,0,.9-.27v1.33a3.11,3.11,0,0,1-.49.16,3.77,3.77,0,0,1-.63,0A2.51,2.51,0,0,1,15.52,13.82Z"/><path d="M19.35,3.79a1,1,0,0,1,0-1.37,1,1,0,0,1,1.37,0A.9.9,0,0,1,21,3.1a1,1,0,0,1-1.66.69Zm0,1.78h1.35v8.16H19.36Z"/><path d="M24.37,13.41a4,4,0,0,1-1.49-1.57,4.5,4.5,0,0,1-.54-2.19,4.5,4.5,0,0,1,.54-2.19,3.89,3.89,0,0,1,1.49-1.57,4.31,4.31,0,0,1,4.32,0,4,4,0,0,1,1.5,1.57,4.49,4.49,0,0,1,.53,2.19,4.49,4.49,0,0,1-.53,2.19,4.26,4.26,0,0,1-5.82,1.57Zm3.56-1a2.77,2.77,0,0,0,1-1.08,3.35,3.35,0,0,0,.39-1.65A3.35,3.35,0,0,0,29,8a2.77,2.77,0,0,0-2.44-1.46,2.81,2.81,0,0,0-1.41.38,2.77,2.77,0,0,0-1,1.08,3.25,3.25,0,0,0-.4,1.65,3.25,3.25,0,0,0,.4,1.65,2.77,2.77,0,0,0,1,1.08,2.8,2.8,0,0,0,1.41.37A2.74,2.74,0,0,0,27.93,12.38Z"/><path d="M36.29,2.27h2l3.65,9.39H42l3.65-9.39h2V13.73H46.24V6.45l.07-2.18h-.07L42.5,13.73H41.38L37.64,4.27h-.07l.07,2.18v7.28H36.29Z"/><path d="M51.41,13.42A3.85,3.85,0,0,1,50,11.88a4.75,4.75,0,0,1-.52-2.22,4.93,4.93,0,0,1,.49-2.17A4,4,0,0,1,51.32,5.9a3.7,3.7,0,0,1,2.08-.59,3.91,3.91,0,0,1,2.08.54,3.65,3.65,0,0,1,1.35,1.48,4.83,4.83,0,0,1,.47,2.16,1.58,1.58,0,0,1,0,.41H50.8a3.37,3.37,0,0,0,.45,1.57,2.6,2.6,0,0,0,1,1,2.68,2.68,0,0,0,1.29.32A2.65,2.65,0,0,0,56,11.28l1.15.56a4.17,4.17,0,0,1-1.43,1.57,4,4,0,0,1-2.18.57A3.93,3.93,0,0,1,51.41,13.42Zm4.45-4.64a2.62,2.62,0,0,0-.29-1,2.14,2.14,0,0,0-.81-.86,2.46,2.46,0,0,0-1.38-.36,2.29,2.29,0,0,0-1.62.62,2.93,2.93,0,0,0-.88,1.62Z"/><path d="M59.62,13.37a3.38,3.38,0,0,1-1.25-1.58l1.22-.54a2.38,2.38,0,0,0,.9,1.13,2.3,2.3,0,0,0,1.32.4,2.57,2.57,0,0,0,1.31-.31,1,1,0,0,0,.55-.89,1,1,0,0,0-.43-.82,4.06,4.06,0,0,0-1.36-.54l-1-.25a3.53,3.53,0,0,1-1.6-.82,2,2,0,0,1-.62-1.49,2,2,0,0,1,.42-1.24,2.8,2.8,0,0,1,1.13-.82,4,4,0,0,1,1.52-.29,3.86,3.86,0,0,1,1.91.47,2.68,2.68,0,0,1,1.2,1.29l-1.19.55a2,2,0,0,0-1.93-1.09,2.19,2.19,0,0,0-1.18.31.9.9,0,0,0-.5.79.88.88,0,0,0,.35.73,2.72,2.72,0,0,0,1,.46l1.19.3a3.89,3.89,0,0,1,1.81.9,2,2,0,0,1,.6,1.47,2.11,2.11,0,0,1-.43,1.32,2.73,2.73,0,0,1-1.17.87,4.26,4.26,0,0,1-1.63.3A3.74,3.74,0,0,1,59.62,13.37Z"/><path d="M66.53,2.27h1.36V5.65l-.06,1.12h.06a2.68,2.68,0,0,1,1.07-1,3.1,3.1,0,0,1,1.59-.42,2.9,2.9,0,0,1,2.27.87A3.37,3.37,0,0,1,73.6,8.5v5.23H72.24v-5a2.12,2.12,0,0,0-.56-1.63,2,2,0,0,0-1.45-.53,2,2,0,0,0-1.18.39,2.64,2.64,0,0,0-.85,1,2.86,2.86,0,0,0-.31,1.26v4.55H66.53Z"/><rect class="cls-2" x="16" y="38.86" width="108" height="108" rx="3" ry="3"/><rect class="cls-3" x="25" y="110.86" width="90" height="27" rx="3" ry="3"/><path d="M36.91,122.06H38v1h.06a2.37,2.37,0,0,1,.92-.91,2.56,2.56,0,0,1,1.3-.37,2.47,2.47,0,0,1,1.37.38,2.1,2.1,0,0,1,.83,1,2.93,2.93,0,0,1,1-1,2.77,2.77,0,0,1,1.45-.38,2.29,2.29,0,0,1,1.86.75,3.12,3.12,0,0,1,.62,2v4.58H46.27v-4.4a2.12,2.12,0,0,0-.4-1.44,1.55,1.55,0,0,0-1.21-.45,1.6,1.6,0,0,0-1,.31,2,2,0,0,0-.68.83,2.46,2.46,0,0,0-.25,1.12v4H41.58v-4.38a2.14,2.14,0,0,0-.4-1.46,1.52,1.52,0,0,0-1.19-.45,1.61,1.61,0,0,0-1,.32,2.09,2.09,0,0,0-.68.84,2.65,2.65,0,0,0-.24,1.12v4H36.91Z"/><path d="M51.15,128.75l-3-6.69h1.29l2.24,5.3h0l2.15-5.3h1.29l-4.41,10.16H49.55Z"/><path d="M56.17,124.37h4.44v1H56.17Z"/><path d="M61.57,122.06h1.28l2.21,5.74h0l2.24-5.74h1.24l-2.91,7.14h-1.2Z"/><path d="M71.58,129.28a1.69,1.69,0,0,1-.62-.39,1.87,1.87,0,0,1-.43-.62,2.49,2.49,0,0,1-.13-.87v-4.26H69.15v-1.08H70.4v-2h1.18v2h1.74v1.08H71.58v4a1.44,1.44,0,0,0,.23.89,1,1,0,0,0,.77.32,1.43,1.43,0,0,0,.78-.24v1.16a2.3,2.3,0,0,1-.42.14,2.92,2.92,0,0,1-.56,0A2.32,2.32,0,0,1,71.58,129.28Z"/><path d="M74.83,119.17H76v10H74.83Z"/><path d="M77.77,124.37h4.44v1H77.77Z"/><path d="M84.53,128.88a3,3,0,0,1-1.09-1.38l1.07-.47a2.08,2.08,0,0,0,1.94,1.34,2.3,2.3,0,0,0,1.15-.27.87.87,0,0,0,.1-1.5,3.52,3.52,0,0,0-1.19-.47l-.87-.22a3.06,3.06,0,0,1-1.4-.72,1.7,1.7,0,0,1-.55-1.3,1.72,1.72,0,0,1,.37-1.08,2.28,2.28,0,0,1,1-.72,3.6,3.6,0,0,1,3,.15,2.37,2.37,0,0,1,1,1.13l-1,.48a1.72,1.72,0,0,0-1.69-.95,1.93,1.93,0,0,0-1,.27.78.78,0,0,0-.44.69.77.77,0,0,0,.31.64,2.41,2.41,0,0,0,.92.4l1,.27a3.35,3.35,0,0,1,1.58.79,1.74,1.74,0,0,1,.53,1.28,1.85,1.85,0,0,1-.38,1.15,2.43,2.43,0,0,1-1,.77,3.87,3.87,0,0,1-1.43.26A3.29,3.29,0,0,1,84.53,128.88Z"/><path d="M89.8,122.06h1.27l2.21,5.74h0l2.24-5.74H96.8l-2.91,7.14H92.68Z"/><path d="M98.94,128.92a3.49,3.49,0,0,1-1.29-1.35,4.34,4.34,0,0,1,0-3.89,3.45,3.45,0,0,1,1.29-1.36,3.64,3.64,0,0,1,1.86-.49,3.35,3.35,0,0,1,2,.54,2.92,2.92,0,0,1,1.13,1.44l-1.08.45a2.07,2.07,0,0,0-.79-1,2.32,2.32,0,0,0-1.26-.34,2.25,2.25,0,0,0-1.18.34,2.56,2.56,0,0,0-.88,1,3.09,3.09,0,0,0-.32,1.42,3.05,3.05,0,0,0,.32,1.41,2.56,2.56,0,0,0,.88,1,2.16,2.16,0,0,0,1.18.34,2.32,2.32,0,0,0,1.3-.35,2.1,2.1,0,0,0,.81-1l1.06.45a3.13,3.13,0,0,1-1.17,1.43,3.39,3.39,0,0,1-2,.54A3.46,3.46,0,0,1,98.94,128.92Z"/><rect class="cls-3" x="43" y="47.86" width="54" height="54" rx="3" ry="3"/><polygon class="cls-4" points="83.26 82.51 83.26 67.21 70 59.56 56.74 67.21 56.74 82.51 70 90.16 83.26 82.51"/><line class="cls-5" x1="20.47" y1="174" x2="155.33" y2="174"/><polygon class="cls-6" points="28.44 180.78 21.65 174 28.44 167.22 22.68 167.22 15.9 174 22.68 180.78 28.44 180.78"/><polygon class="cls-6" points="147.36 180.78 154.15 174 147.36 167.22 153.12 167.22 159.9 174 153.12 180.78 147.36 180.78"/><path d="M11.72,200.47a5.66,5.66,0,0,1-2.14-2.15,6.43,6.43,0,0,1,0-6.1,5.66,5.66,0,0,1,2.14-2.15,5.94,5.94,0,0,1,3-.78,5.45,5.45,0,0,1,2.34.49,5.32,5.32,0,0,1,1.85,1.38l-1,.94A4.38,4.38,0,0,0,16.52,191a4.16,4.16,0,0,0-1.78-.37,4.62,4.62,0,0,0-2.29.59,4.36,4.36,0,0,0-1.65,1.65,5.17,5.17,0,0,0,0,4.91,4.36,4.36,0,0,0,1.65,1.65,4.61,4.61,0,0,0,2.29.58,4.49,4.49,0,0,0,3.54-1.71l1,1a5.62,5.62,0,0,1-2,1.49,6.15,6.15,0,0,1-5.58-.23Z"/><path d="M22.23,200.68a4,4,0,0,1-1.5-1.57,4.79,4.79,0,0,1,0-4.38,4,4,0,0,1,1.5-1.57,4.31,4.31,0,0,1,4.32,0A4,4,0,0,1,28,194.73a4.71,4.71,0,0,1,0,4.38,4,4,0,0,1-1.49,1.57,4.31,4.31,0,0,1-4.32,0Zm3.56-1a2.77,2.77,0,0,0,1-1.08,3.69,3.69,0,0,0,0-3.3,2.77,2.77,0,0,0-1-1.08,2.74,2.74,0,0,0-1.4-.37,2.8,2.8,0,0,0-1.41.37,2.73,2.73,0,0,0-1.05,1.08,3.69,3.69,0,0,0,0,3.3A2.73,2.73,0,0,0,23,199.65a2.8,2.8,0,0,0,1.41.37A2.74,2.74,0,0,0,25.79,199.65Z"/><path d="M30,192.84h1.3V194h.07a2.66,2.66,0,0,1,1.07-1,3.11,3.11,0,0,1,1.56-.43,2.87,2.87,0,0,1,2.25.86,3.33,3.33,0,0,1,.78,2.33V201H35.67v-5a2.15,2.15,0,0,0-.55-1.65,2.06,2.06,0,0,0-1.48-.51,2,2,0,0,0-1.18.36,2.56,2.56,0,0,0-.81,1,2.9,2.9,0,0,0-.28,1.26V201H30Z"/><path d="M39.77,194.07H38.26v-1.23h1.51V192a2.46,2.46,0,0,1,.35-1.34,2.37,2.37,0,0,1,.94-.89,2.75,2.75,0,0,1,1.31-.31,3.36,3.36,0,0,1,1.2.19v1.33a5,5,0,0,0-.54-.19,2.18,2.18,0,0,0-.61-.07,1.27,1.27,0,0,0-.91.38,1.38,1.38,0,0,0-.39,1v.74h5.06V201H44.84v-6.93H41.12V201H39.77Zm5-2.94a1,1,0,0,1,.69-1.67,1,1,0,0,1,.69.29.94.94,0,0,1,.28.69,1,1,0,0,1-.27.69,1,1,0,0,1-1.39,0Z"/><path d="M49.45,204a3.29,3.29,0,0,1-1.25-1.62l1.23-.52a2.4,2.4,0,0,0,.9,1.14,2.58,2.58,0,0,0,1.5.44,2.63,2.63,0,0,0,2-.71,2.76,2.76,0,0,0,.7-2v-.91h-.07a3,3,0,0,1-1.13,1,3.3,3.3,0,0,1-1.65.4,3.59,3.59,0,0,1-1.93-.55,3.9,3.9,0,0,1-1.38-1.54,5.11,5.11,0,0,1,0-4.49,3.93,3.93,0,0,1,1.38-1.55,3.59,3.59,0,0,1,1.93-.55,3.3,3.3,0,0,1,1.65.4,2.9,2.9,0,0,1,1.13,1h.07v-1.17h1.29v7.84a3.67,3.67,0,0,1-4,4A4,4,0,0,1,49.45,204Zm3.72-4.39a2.7,2.7,0,0,0,1-1.07,4,4,0,0,0,0-3.33,2.64,2.64,0,0,0-1-1.07,2.56,2.56,0,0,0-1.34-.36,2.48,2.48,0,0,0-1.34.37,2.65,2.65,0,0,0-1,1.07,3.6,3.6,0,0,0-.36,1.66,3.67,3.67,0,0,0,.36,1.67,2.59,2.59,0,0,0,1,1.07,2.56,2.56,0,0,0,1.34.36A2.48,2.48,0,0,0,53.17,199.65Z"/><path d="M58.43,200.39a3.46,3.46,0,0,1-.78-2.41v-5.14H59v4.93a2.38,2.38,0,0,0,.53,1.71A1.9,1.9,0,0,0,61,200a2.17,2.17,0,0,0,1.23-.36,2.56,2.56,0,0,0,.83-1,2.74,2.74,0,0,0,.3-1.25v-4.61h1.36V201h-1.3v-1.18h-.06a2.78,2.78,0,0,1-1.07,1,3.16,3.16,0,0,1-1.57.42A2.87,2.87,0,0,1,58.43,200.39Z"/><path d="M66.69,192.84H68v1.31h.06A2.22,2.22,0,0,1,69,193a2.6,2.6,0,0,1,1.44-.45,2.35,2.35,0,0,1,1,.18v1.46a2.53,2.53,0,0,0-1.15-.26,1.85,1.85,0,0,0-1.09.34,2.39,2.39,0,0,0-.79.9,2.6,2.6,0,0,0-.3,1.23V201H66.69Z"/><path d="M73.75,200.7a3.94,3.94,0,0,1-1.45-1.55,4.59,4.59,0,0,1-.52-2.21,4.81,4.81,0,0,1,.49-2.18,3.92,3.92,0,0,1,1.38-1.58,3.65,3.65,0,0,1,2.08-.6,3.88,3.88,0,0,1,2.08.54,3.6,3.6,0,0,1,1.36,1.48,4.83,4.83,0,0,1,.47,2.16,1.73,1.73,0,0,1,0,.42H73.14a3.15,3.15,0,0,0,.45,1.56,2.58,2.58,0,0,0,1,1,2.74,2.74,0,0,0,1.29.32,2.66,2.66,0,0,0,2.42-1.47l1.15.56A4.1,4.1,0,0,1,78,200.68a4.3,4.3,0,0,1-4.28,0Zm4.45-4.64a2.62,2.62,0,0,0-.29-1,2.14,2.14,0,0,0-.81-.86,2.48,2.48,0,0,0-1.38-.35,2.32,2.32,0,0,0-1.63.61,3,3,0,0,0-.87,1.63Z"/><path d="M82.78,200.7a4,4,0,0,1-1.4-1.55,5.11,5.11,0,0,1,0-4.45,3.93,3.93,0,0,1,1.4-1.56,3.65,3.65,0,0,1,2-.56,3.33,3.33,0,0,1,1.68.43,3.07,3.07,0,0,1,1.12,1.05h.06l-.06-1.14v-3.38h1.36V201h-1.3v-1.2h-.06a3.11,3.11,0,0,1-1.12,1,3.33,3.33,0,0,1-1.68.43A3.65,3.65,0,0,1,82.78,200.7Zm3.47-1.06a2.83,2.83,0,0,0,1-1.09,3.69,3.69,0,0,0,0-3.26,2.83,2.83,0,0,0-1-1.09,2.52,2.52,0,0,0-2.66,0,2.74,2.74,0,0,0-1,1.1,3.64,3.64,0,0,0,0,3.24,2.74,2.74,0,0,0,1,1.1,2.52,2.52,0,0,0,2.66,0Z"/><path d="M96.86,201.09a2,2,0,0,1-.71-.44,1.79,1.79,0,0,1-.48-.71,2.69,2.69,0,0,1-.16-1v-4.87H94.08v-1.23h1.43v-2.3h1.36v2.3h2v1.23h-2v4.55a1.63,1.63,0,0,0,.25,1A1.1,1.1,0,0,0,98,200a1.68,1.68,0,0,0,.9-.27v1.33a2.16,2.16,0,0,1-.49.16,3.48,3.48,0,0,1-.63,0A2.51,2.51,0,0,1,96.86,201.09Z"/><path d="M100.5,192.84h1.3v1.31h.06a2.22,2.22,0,0,1,.93-1.12,2.6,2.6,0,0,1,1.44-.45,2.35,2.35,0,0,1,1,.18v1.46A2.56,2.56,0,0,0,104,194a1.85,1.85,0,0,0-1.09.34,2.31,2.31,0,0,0-.79.9,2.6,2.6,0,0,0-.3,1.23V201H100.5Z"/><path d="M107.19,200.9a2.62,2.62,0,0,1-1.09-1,2.56,2.56,0,0,1-.38-1.4,2.39,2.39,0,0,1,1-2,4,4,0,0,1,2.47-.73,5.83,5.83,0,0,1,1.36.16,3.45,3.45,0,0,1,1,.37v-.49a1.84,1.84,0,0,0-.64-1.47,2.35,2.35,0,0,0-1.61-.55,2.73,2.73,0,0,0-1.27.3,2.26,2.26,0,0,0-.91.82l-1-.77a3.29,3.29,0,0,1,1.32-1.15,4.1,4.1,0,0,1,1.86-.42,3.71,3.71,0,0,1,2.62.88,3.07,3.07,0,0,1,1,2.37V201h-1.3v-1.17h-.06a3,3,0,0,1-1.06,1,3,3,0,0,1-1.58.42A3.46,3.46,0,0,1,107.19,200.9Zm3-1.2a2.65,2.65,0,0,0,.94-.94,2.44,2.44,0,0,0,.35-1.3,3.14,3.14,0,0,0-.94-.41,4.22,4.22,0,0,0-1.19-.16,2.59,2.59,0,0,0-1.68.46,1.48,1.48,0,0,0-.57,1.2,1.34,1.34,0,0,0,.51,1.09,2,2,0,0,0,1.3.42A2.43,2.43,0,0,0,110.2,199.7Z"/><path d="M115.46,194.07H114v-1.23h1.5V192a2.55,2.55,0,0,1,.35-1.34,2.39,2.39,0,0,1,1-.89,2.72,2.72,0,0,1,1.31-.31,3.36,3.36,0,0,1,1.2.19v1.33a4.5,4.5,0,0,0-.55-.19,2.15,2.15,0,0,0-.6-.07,1.28,1.28,0,0,0-.92.38,1.41,1.41,0,0,0-.38,1v.74h3.71V192a2.55,2.55,0,0,1,.35-1.34,2.3,2.3,0,0,1,.94-.89,2.79,2.79,0,0,1,1.32-.31,3.51,3.51,0,0,1,1.2.19v1.33a5,5,0,0,0-.57-.2,2.52,2.52,0,0,0-.6-.06,1.27,1.27,0,0,0-.91.38,1.37,1.37,0,0,0-.38,1v.74h5.05V201h-1.34v-6.93h-3.71V201h-1.35v-6.93h-3.71V201h-1.36Zm10.11-2.93a.94.94,0,0,1-.29-.68,1,1,0,0,1,.29-.7,1,1,0,0,1,1.39,0,1,1,0,0,1,.28.7,1,1,0,0,1-.28.68,1,1,0,0,1-1.39,0Z"/><path d="M130.56,200.69a4,4,0,0,1-1.47-1.55,4.91,4.91,0,0,1,0-4.44,3.88,3.88,0,0,1,1.47-1.56,4.13,4.13,0,0,1,2.13-.56,3.86,3.86,0,0,1,2.23.62,3.31,3.31,0,0,1,1.29,1.64l-1.23.51a2.36,2.36,0,0,0-.9-1.14,2.62,2.62,0,0,0-1.45-.39,2.52,2.52,0,0,0-1.35.39,2.85,2.85,0,0,0-1,1.09,3.73,3.73,0,0,0,0,3.24,2.85,2.85,0,0,0,1,1.09,2.52,2.52,0,0,0,1.35.39,2.7,2.7,0,0,0,1.49-.4,2.35,2.35,0,0,0,.92-1.13l1.22.51a3.55,3.55,0,0,1-1.34,1.63,3.83,3.83,0,0,1-2.23.63A4,4,0,0,1,130.56,200.69Z"/><path d="M141.44,192.84h1.3v1.31h.06a2.22,2.22,0,0,1,.93-1.12,2.6,2.6,0,0,1,1.44-.45,2.28,2.28,0,0,1,1,.18v1.46A2.53,2.53,0,0,0,145,194a1.87,1.87,0,0,0-1.09.34,2.39,2.39,0,0,0-.79.9,2.6,2.6,0,0,0-.3,1.23V201h-1.36Z"/><path d="M148.16,200.39a3.46,3.46,0,0,1-.78-2.41v-5.14h1.36v4.93a2.38,2.38,0,0,0,.53,1.71,1.88,1.88,0,0,0,1.42.54,2.17,2.17,0,0,0,1.23-.36,2.66,2.66,0,0,0,.83-1,2.73,2.73,0,0,0,.29-1.25v-4.61h1.36V201h-1.29v-1.18H153a2.71,2.71,0,0,1-1.07,1,3.11,3.11,0,0,1-1.57.42A2.83,2.83,0,0,1,148.16,200.39Z"/><path d="M156.42,189.54h1.36V201h-1.36Z"/><path d="M161.25,200.7a3.94,3.94,0,0,1-1.45-1.55,4.71,4.71,0,0,1-.52-2.21,5,5,0,0,1,.49-2.18,4,4,0,0,1,1.39-1.58,3.63,3.63,0,0,1,2.08-.6,3.91,3.91,0,0,1,2.08.54,3.65,3.65,0,0,1,1.35,1.48,4.83,4.83,0,0,1,.47,2.16,1.73,1.73,0,0,1,0,.42h-6.45a3.37,3.37,0,0,0,.45,1.56,2.6,2.6,0,0,0,1,1,2.68,2.68,0,0,0,1.29.32,2.65,2.65,0,0,0,2.41-1.47l1.15.56a4.1,4.1,0,0,1-1.43,1.57,4.3,4.3,0,0,1-4.28,0Zm4.45-4.64a2.62,2.62,0,0,0-.29-1,2.14,2.14,0,0,0-.81-.86,2.46,2.46,0,0,0-1.38-.35,2.28,2.28,0,0,0-1.62.61,2.92,2.92,0,0,0-.88,1.63Z"/><rect class="cls-2" x="250.25" y="38.86" width="197.65" height="198.14" rx="3" ry="3"/><rect class="cls-3" x="258.9" y="47.86" width="54" height="54" rx="3" ry="3"/><polygon class="cls-4" points="299.16 82.51 299.16 67.21 285.9 59.56 272.64 67.21 272.64 82.51 285.9 90.16 299.16 82.51"/><rect class="cls-3" x="321.9" y="47.86" width="117" height="54" rx="3" ry="3"/><path d="M373.05,72.56h1.13v1h.06a2.37,2.37,0,0,1,.92-.91,2.56,2.56,0,0,1,2.67,0,2,2,0,0,1,.83,1,3,3,0,0,1,1-1,2.77,2.77,0,0,1,1.45-.38,2.29,2.29,0,0,1,1.86.75,3.12,3.12,0,0,1,.62,2V79.7h-1.17V75.3a2.12,2.12,0,0,0-.41-1.44,1.53,1.53,0,0,0-1.2-.45,1.6,1.6,0,0,0-1,.31,2,2,0,0,0-.68.82,2.66,2.66,0,0,0-.24,1.13v4h-1.19V75.32a2.14,2.14,0,0,0-.41-1.46,1.52,1.52,0,0,0-1.19-.45,1.61,1.61,0,0,0-1,.32,2.18,2.18,0,0,0-.68.84,2.65,2.65,0,0,0-.24,1.12v4h-1.19Z"/><path d="M387.29,79.25l-3-6.69h1.29l2.24,5.3h0l2.16-5.3h1.28l-4.41,10.16h-1.23Z"/><path d="M392.31,74.87h4.44v1h-4.44Z"/><path d="M399.07,79.38A3,3,0,0,1,398,78l1.07-.47A2.08,2.08,0,0,0,401,78.87a2.3,2.3,0,0,0,1.15-.27.87.87,0,0,0,.1-1.5,3.52,3.52,0,0,0-1.19-.47l-.87-.22a3.06,3.06,0,0,1-1.4-.72,1.7,1.7,0,0,1-.55-1.3,1.67,1.67,0,0,1,.38-1.08,2.28,2.28,0,0,1,1-.73,3.66,3.66,0,0,1,1.33-.25,3.43,3.43,0,0,1,1.68.41,2.32,2.32,0,0,1,1,1.13l-1,.48a1.71,1.71,0,0,0-1.69-.95,1.93,1.93,0,0,0-1,.27.8.8,0,0,0-.44.69.77.77,0,0,0,.31.64,2.41,2.41,0,0,0,.92.4l1,.27a3.35,3.35,0,0,1,1.58.79,1.74,1.74,0,0,1,.53,1.28,1.85,1.85,0,0,1-.38,1.15,2.43,2.43,0,0,1-1,.77,3.83,3.83,0,0,1-1.43.26A3.29,3.29,0,0,1,399.07,79.38Z"/><path d="M404.34,72.56h1.27l2.21,5.74h0l2.24-5.74h1.25l-2.91,7.14h-1.21Z"/><path d="M413.48,79.42a3.49,3.49,0,0,1-1.29-1.35,4.34,4.34,0,0,1,0-3.89,3.45,3.45,0,0,1,1.29-1.36,3.64,3.64,0,0,1,1.86-.49,3.4,3.4,0,0,1,2,.54,3,3,0,0,1,1.12,1.44l-1.08.44a2.09,2.09,0,0,0-.79-1,2.32,2.32,0,0,0-1.26-.34,2.25,2.25,0,0,0-1.18.34,2.45,2.45,0,0,0-.87,1,3.2,3.2,0,0,0,0,2.83,2.45,2.45,0,0,0,.87,1,2.16,2.16,0,0,0,1.18.34,2.32,2.32,0,0,0,1.3-.35,2.1,2.1,0,0,0,.81-1l1.06.45a3.17,3.17,0,0,1-1.16,1.43,3.45,3.45,0,0,1-2,.54A3.55,3.55,0,0,1,413.48,79.42Z"/><path d="M422.22,72.56h1.27l2.21,5.74h0L428,72.56h1.25L426.3,79.7h-1.2Z"/><path d="M432.24,71.79,430.56,73l-.62-.91,2.73-2h.76V79.7h-1.19Z"/><circle class="cls-7" cx="348.9" cy="74.86" r="18"/><rect class="cls-8" x="342.51" y="68.34" width="12.79" height="12.79"/><line class="cls-9" x1="344.87" y1="68.34" x2="344.87" y2="65.27"/><line class="cls-9" x1="348.9" y1="68.34" x2="348.9" y2="65.27"/><line class="cls-9" x1="352.93" y1="68.34" x2="352.93" y2="65.27"/><line class="cls-9" x1="344.87" y1="84.45" x2="344.87" y2="81.37"/><line class="cls-9" x1="348.9" y1="84.45" x2="348.9" y2="81.37"/><line class="cls-9" x1="352.93" y1="84.45" x2="352.93" y2="81.37"/><line class="cls-9" x1="342.39" y1="78.88" x2="339.31" y2="78.88"/><line class="cls-9" x1="342.39" y1="74.86" x2="339.31" y2="74.86"/><line class="cls-9" x1="342.39" y1="70.83" x2="339.31" y2="70.83"/><line class="cls-9" x1="358.49" y1="78.88" x2="355.41" y2="78.88"/><line class="cls-9" x1="358.49" y1="74.86" x2="355.41" y2="74.86"/><line class="cls-9" x1="358.49" y1="70.83" x2="355.41" y2="70.83"/><rect class="cls-3" x="346.06" y="71.9" width="5.68" height="5.68" rx="2" ry="2"/><rect class="cls-3" x="258.9" y="110.86" width="54" height="54" rx="3" ry="3"/><polygon class="cls-4" points="299.16 145.51 299.16 130.21 285.9 122.56 272.64 130.21 272.64 145.51 285.9 153.16 299.16 145.51"/><rect class="cls-3" x="321.9" y="110.86" width="117" height="54" rx="3" ry="3"/><path d="M372,135.56h1.14v1.05h.05a2.7,2.7,0,0,1,2.23-1.28,2.44,2.44,0,0,1,1.36.38,2.12,2.12,0,0,1,.84,1,2.85,2.85,0,0,1,1-1,2.75,2.75,0,0,1,1.45-.38,2.26,2.26,0,0,1,1.85.75,3.07,3.07,0,0,1,.63,2v4.58H381.4v-4.4a2.12,2.12,0,0,0-.41-1.44,1.53,1.53,0,0,0-1.2-.45,1.62,1.62,0,0,0-1,.31,2,2,0,0,0-.67.82,2.53,2.53,0,0,0-.25,1.13v4h-1.19v-4.38a2.14,2.14,0,0,0-.41-1.46,1.51,1.51,0,0,0-1.19-.45,1.61,1.61,0,0,0-1,.32,2.09,2.09,0,0,0-.68.84,2.66,2.66,0,0,0-.25,1.12v4H372Z"/><path d="M386.27,142.25l-2.95-6.69h1.29l2.24,5.3h0l2.16-5.3h1.29l-4.41,10.16h-1.23Z"/><path d="M391.3,137.87h4.44v1H391.3Z"/><path d="M398.06,142.38A2.94,2.94,0,0,1,397,141l1.06-.47a2.12,2.12,0,0,0,.79,1,2.08,2.08,0,0,0,1.16.35,2.3,2.3,0,0,0,1.15-.27.86.86,0,0,0,.47-.78.83.83,0,0,0-.38-.72,3.43,3.43,0,0,0-1.19-.47l-.86-.22a3.06,3.06,0,0,1-1.4-.72,1.79,1.79,0,0,1-.18-2.38,2.38,2.38,0,0,1,1-.73,3.62,3.62,0,0,1,1.33-.25,3.41,3.41,0,0,1,1.67.41,2.28,2.28,0,0,1,1,1.13l-1,.48a1.72,1.72,0,0,0-1.7-.95,1.89,1.89,0,0,0-1,.27.78.78,0,0,0-.14,1.33,2.54,2.54,0,0,0,.93.4l1,.27a3.3,3.3,0,0,1,1.58.79,1.71,1.71,0,0,1,.54,1.28,1.85,1.85,0,0,1-.38,1.15,2.49,2.49,0,0,1-1,.77,3.87,3.87,0,0,1-1.43.26A3.25,3.25,0,0,1,398.06,142.38Z"/><path d="M403.32,135.56h1.28l2.21,5.74h0l2.24-5.74h1.24l-2.91,7.14h-1.2Z"/><path d="M412.47,142.42a3.42,3.42,0,0,1-1.29-1.35,4.34,4.34,0,0,1,0-3.89,3.38,3.38,0,0,1,1.29-1.36,3.64,3.64,0,0,1,1.86-.49,3.39,3.39,0,0,1,1.95.54,3,3,0,0,1,1.13,1.44l-1.08.44a2.15,2.15,0,0,0-.79-1,2.33,2.33,0,0,0-1.27-.34,2.21,2.21,0,0,0-1.17.34,2.48,2.48,0,0,0-.88,1,3.2,3.2,0,0,0,0,2.83,2.48,2.48,0,0,0,.88,1,2.13,2.13,0,0,0,1.17.34,2.28,2.28,0,0,0,1.3-.35,2.06,2.06,0,0,0,.82-1l1.06.45a3.13,3.13,0,0,1-1.17,1.43,3.43,3.43,0,0,1-1.95.54A3.55,3.55,0,0,1,412.47,142.42Z"/><path d="M421.2,135.56h1.28l2.21,5.74h0l2.24-5.74h1.24l-2.91,7.14h-1.2Z"/><path d="M428.93,141.51l1.72-1.75c.86-.87,1.46-1.49,1.79-1.85a8,8,0,0,0,1-1.2,2,2,0,0,0,.25-1.05,1.53,1.53,0,0,0-.22-.8,1.66,1.66,0,0,0-.63-.6,2,2,0,0,0-1-.23,1.66,1.66,0,0,0-1.21.44,2.09,2.09,0,0,0-.6,1l-1.09-.43a3,3,0,0,1,.5-.93,3.09,3.09,0,0,1,1-.83,3,3,0,0,1,1.46-.34,3.06,3.06,0,0,1,1.56.38,2.76,2.76,0,0,1,1.06,1,2.64,2.64,0,0,1,.38,1.36,4.52,4.52,0,0,1-1.54,3l-2.87,2.88H435v1.14h-6.05Z"/><circle class="cls-7" cx="348.9" cy="137.86" r="18"/><rect class="cls-8" x="342.51" y="131.34" width="12.79" height="12.79"/><line class="cls-9" x1="344.87" y1="131.34" x2="344.87" y2="128.27"/><line class="cls-9" x1="348.9" y1="131.34" x2="348.9" y2="128.27"/><line class="cls-9" x1="352.93" y1="131.34" x2="352.93" y2="128.27"/><line class="cls-9" x1="344.87" y1="147.45" x2="344.87" y2="144.37"/><line class="cls-9" x1="348.9" y1="147.45" x2="348.9" y2="144.37"/><line class="cls-9" x1="352.93" y1="147.45" x2="352.93" y2="144.37"/><line class="cls-9" x1="342.39" y1="141.88" x2="339.31" y2="141.88"/><line class="cls-9" x1="342.39" y1="137.86" x2="339.31" y2="137.86"/><line class="cls-9" x1="342.39" y1="133.83" x2="339.31" y2="133.83"/><line class="cls-9" x1="358.49" y1="141.88" x2="355.41" y2="141.88"/><line class="cls-9" x1="358.49" y1="137.86" x2="355.41" y2="137.86"/><line class="cls-9" x1="358.49" y1="133.83" x2="355.41" y2="133.83"/><rect class="cls-3" x="346.06" y="134.9" width="5.68" height="5.68" rx="2" ry="2"/><rect class="cls-3" x="258.9" y="173.86" width="54" height="54" rx="3" ry="3"/><polygon class="cls-4" points="299.16 208.51 299.16 193.21 285.9 185.56 272.64 193.21 272.64 208.51 285.9 216.16 299.16 208.51"/><rect class="cls-3" x="321.9" y="173.86" width="117" height="54" rx="3" ry="3"/><path d="M372,198.56h1.14v1.05h0a2.7,2.7,0,0,1,2.23-1.28,2.44,2.44,0,0,1,1.36.38,2.12,2.12,0,0,1,.84,1,2.85,2.85,0,0,1,1-1,2.75,2.75,0,0,1,1.45-.38,2.26,2.26,0,0,1,1.85.75,3.07,3.07,0,0,1,.63,2v4.58h-1.18v-4.4a2.12,2.12,0,0,0-.41-1.44,1.53,1.53,0,0,0-1.2-.45,1.6,1.6,0,0,0-1,.31,2.11,2.11,0,0,0-.68.82,2.66,2.66,0,0,0-.24,1.13v4h-1.19v-4.38a2.14,2.14,0,0,0-.41-1.46,1.51,1.51,0,0,0-1.19-.45,1.61,1.61,0,0,0-1,.32,2.09,2.09,0,0,0-.68.84,2.66,2.66,0,0,0-.25,1.12v4H372Z"/><path d="M386.2,205.25l-2.95-6.69h1.29l2.24,5.3h0l2.16-5.3h1.29l-4.41,10.16h-1.23Z"/><path d="M391.23,200.87h4.44v1h-4.44Z"/><path d="M398,205.38A2.94,2.94,0,0,1,396.9,204l1.06-.47a2.12,2.12,0,0,0,.79,1,2.08,2.08,0,0,0,1.16.35,2.3,2.3,0,0,0,1.15-.27.86.86,0,0,0,.47-.78.83.83,0,0,0-.38-.72,3.52,3.52,0,0,0-1.19-.47l-.86-.22a3.06,3.06,0,0,1-1.4-.72,1.79,1.79,0,0,1-.18-2.38,2.38,2.38,0,0,1,1-.73,3.62,3.62,0,0,1,1.33-.25,3.41,3.41,0,0,1,1.67.41,2.28,2.28,0,0,1,1,1.13l-1,.48a1.72,1.72,0,0,0-1.7-.95,2,2,0,0,0-1,.27.78.78,0,0,0-.13,1.33,2.46,2.46,0,0,0,.93.4l1,.27a3.3,3.3,0,0,1,1.58.79,1.71,1.71,0,0,1,.54,1.28,1.85,1.85,0,0,1-.38,1.15,2.49,2.49,0,0,1-1,.77,3.87,3.87,0,0,1-1.43.26A3.25,3.25,0,0,1,398,205.38Z"/><path d="M403.25,198.56h1.28l2.21,5.74h0l2.24-5.74h1.24l-2.91,7.14h-1.2Z"/><path d="M412.4,205.42a3.42,3.42,0,0,1-1.29-1.35,4.34,4.34,0,0,1,0-3.89,3.38,3.38,0,0,1,1.29-1.36,3.64,3.64,0,0,1,1.86-.49,3.39,3.39,0,0,1,1.95.54,3,3,0,0,1,1.13,1.44l-1.08.44a2.15,2.15,0,0,0-.79-1,2.33,2.33,0,0,0-1.27-.34,2.27,2.27,0,0,0-1.18.34,2.53,2.53,0,0,0-.87,1,3.2,3.2,0,0,0,0,2.83,2.53,2.53,0,0,0,.87,1,2.18,2.18,0,0,0,1.18.34,2.28,2.28,0,0,0,1.3-.35,2,2,0,0,0,.81-1l1.07.45a3.13,3.13,0,0,1-1.17,1.43,3.43,3.43,0,0,1-1.95.54A3.55,3.55,0,0,1,412.4,205.42Z"/><path d="M421.13,198.56h1.28l2.21,5.74h0l2.24-5.74h1.24l-2.91,7.14H424Z"/><path d="M430.65,205.67a3.21,3.21,0,0,1-1.14-.79,3.17,3.17,0,0,1-.74-1.35l1.08-.45a2.44,2.44,0,0,0,.77,1.26,1.91,1.91,0,0,0,1.26.45,2.26,2.26,0,0,0,1-.23,1.84,1.84,0,0,0,.73-.65,1.62,1.62,0,0,0,.27-.91,1.59,1.59,0,0,0-.27-.9,1.93,1.93,0,0,0-.74-.64,2.36,2.36,0,0,0-1-.23H431v-1.11h.74a1.86,1.86,0,0,0,1.28-.44,1.44,1.44,0,0,0,.52-1.17,1.29,1.29,0,0,0-.5-1.07,1.94,1.94,0,0,0-1.25-.41,1.65,1.65,0,0,0-1.14.38,2.18,2.18,0,0,0-.59.92l-1.1-.46a3.07,3.07,0,0,1,1-1.36,2.75,2.75,0,0,1,1.85-.61,3.43,3.43,0,0,1,1.52.33,2.73,2.73,0,0,1,1.05.94,2.41,2.41,0,0,1,.39,1.34,2.12,2.12,0,0,1-.38,1.27,2.82,2.82,0,0,1-.94.81v0a2.79,2.79,0,0,1,1.18.91,2.27,2.27,0,0,1,.46,1.43,2.72,2.72,0,0,1-.43,1.51,2.88,2.88,0,0,1-1.16,1,3.52,3.52,0,0,1-1.62.38A3.26,3.26,0,0,1,430.65,205.67Z"/><circle class="cls-7" cx="348.9" cy="200.86" r="18"/><rect class="cls-8" x="342.51" y="194.34" width="12.79" height="12.79"/><line class="cls-9" x1="344.87" y1="194.34" x2="344.87" y2="191.27"/><line class="cls-9" x1="348.9" y1="194.34" x2="348.9" y2="191.27"/><line class="cls-9" x1="352.93" y1="194.34" x2="352.93" y2="191.27"/><line class="cls-9" x1="344.87" y1="210.45" x2="344.87" y2="207.37"/><line class="cls-9" x1="348.9" y1="210.45" x2="348.9" y2="207.37"/><line class="cls-9" x1="352.93" y1="210.45" x2="352.93" y2="207.37"/><line class="cls-9" x1="342.39" y1="204.88" x2="339.31" y2="204.88"/><line class="cls-9" x1="342.39" y1="200.86" x2="339.31" y2="200.86"/><line class="cls-9" x1="342.39" y1="196.83" x2="339.31" y2="196.83"/><line class="cls-9" x1="358.49" y1="204.88" x2="355.41" y2="204.88"/><line class="cls-9" x1="358.49" y1="200.86" x2="355.41" y2="200.86"/><line class="cls-9" x1="358.49" y1="196.83" x2="355.41" y2="196.83"/><rect class="cls-3" x="346.06" y="197.9" width="5.68" height="5.68" rx="2" ry="2"/><line class="cls-5" x1="101.47" y1="75" x2="254.33" y2="75"/><polygon class="cls-6" points="109.44 81.78 102.65 75 109.44 68.22 103.68 68.22 96.9 75 103.68 81.78 109.44 81.78"/><polygon class="cls-6" points="246.36 81.78 253.15 75 246.36 68.22 252.12 68.22 258.9 75 252.12 81.78 246.36 81.78"/></g></svg>