<svg viewBox="0 0 176 88"><path fill-rule="evenodd" d="M58.713 63.709c-7.848 0-11.32 8.153-11.32 14.888 0 5.194-4.213 9.404-9.41 9.404-7.416 0-9.002-6.46-9.33-8.67-.803-5.436-13.128-15.62-19.243-15.62-5.197 0-9.41-4.21-9.41-9.404 0-5.193 4.213-9.403 9.41-9.403 5.155 0 8.736 4.177 9.395 9.277.02 4.358 1.8 8.3 4.665 11.156 1.45 1.54 3.14 2.64 4.944 3.345a15.825 15.825 0 006.26 1.283c8.767 0 15.873-7.1 15.873-15.86 0-8.24-6.29-15.012-14.333-15.786-5.985-.575-8.966-4.97-7.245-10.852 1.156-3.954 4.7-6.855 9.013-6.855 5.197 0 9.41 4.21 9.41 9.403 0 6.735 3.472 14.89 11.32 14.89 5.197-.002 9.41 4.21 9.41 9.402 0 5.193-4.213 9.403-9.41 9.403zM49.984 17.95a6.03 6.03 0 01-6.032-6.027c0-3.33 2.7-6.027 6.032-6.027s6.032 2.698 6.032 6.027c0 3.33-2.7 6.027-6.032 6.027z" fill="#F88100"/><path fill-rule="evenodd" d="M100.238 40.473h-13.24c-1.465 0-2.514.25-3.16.75-.654.543-.983 1.41-.983 2.604 0 .902.28 1.604.84 2.09.605.47 1.454.702 2.54.702h7.09c2.953 0 5.046.56 6.284 1.676 1.226 1.158 1.842 3.036 1.842 5.645 0 2.63-.708 4.562-2.124 5.8-1.44 1.25-3.697 1.877-6.772 1.877H78.29v-4.572h13.436c1.538 0 2.617-.232 3.252-.695.604-.44.91-1.183.91-2.232 0-1.024-.294-1.792-.88-2.305-.58-.438-1.555-.658-2.928-.658h-6.32c-2.93 0-5.078-.597-6.432-1.786-1.385-1.202-2.075-3.074-2.075-5.61 0-2.7.726-4.707 2.18-6 1.426-1.26 3.684-1.896 6.77-1.896h14.037v4.61zm29.13 15.85l-5.676-13.58h-5.256l7.896 17.652c.16.484.795 1.67 1.994 1.027a676.528 676.528 0 01-3 6.472h5.133l11.378-25.152h-5.164l-6.068 13.64c-.24.56-1.055.526-1.238-.06zm21.97-13.58c-5.906 0-7.532 1.085-7.532 6.294v12.58h5.013V49.35c0-1.74.51-2.587 3.252-2.587h3.19v-4.02h-3.925zm-39 13.74v-10.01h3.465v-3.73h-3.465v-4.577h-4.943v4.576h-3.465v3.73h3.465V58.65c0 2.107.84 2.967 2.9 2.967h7.223V57.85h-3.772c-.95.04-1.475-.37-1.408-1.368zm56.74-9.827a1.756 1.756 0 11-.002 3.512h-4.67c-2.696 0-4.612.463-5.76 1.396-1.14.914-1.714 2.45-1.714 4.603 0 1.75.507 3.09 1.52 4.024 1 .952 2.422 1.427 4.26 1.427H176V49.795c0-2.36-.647-4.12-1.934-5.29-1.288-1.178-3.21-1.763-5.78-1.763h-10.103v3.914h10.894zm-3.976 7.28h5.81v3.877h-6.188c-1.123 0-1.843-.134-2.172-.403-.33-.268-.494-.737-.494-1.402 0-.75.225-1.298.665-1.646.427-.287 1.22-.427 2.38-.427zM34.47 63.37c-5.197 0-9.41-4.21-9.41-9.4 0-5.194 4.213-9.404 9.41-9.404s9.41 4.21 9.41 9.404c0 5.193-4.213 9.403-9.41 9.403zm27.243-23.647c-5.197 0-9.41-4.21-9.41-9.403 0-5.193 4.213-9.403 9.41-9.403s9.41 4.21 9.41 9.403c0 5.193-4.213 9.403-9.41 9.403zM60.108 7.427a3.714 3.714 0 110-7.427 3.716 3.716 0 013.717 3.714 3.715 3.715 0 01-3.717 3.713z" fill="#FFF"/></svg>