<svg xmlns="http://www.w3.org/2000/svg" stroke-miterlimit="10" width="594.677" height="313.955" fill="none" stroke-linecap="square"><defs><marker orient="auto" refY="0" refX="0" id="f" overflow="visible"><path d="M10 0l4-4L0 0l14 4z" fill="#000" fill-rule="evenodd" stroke="#000" stroke-width="1.066"/></marker><marker id="e" refX="0" refY="0" orient="auto" overflow="visible"><path d="M10 0l4-4L0 0l14 4z" fill="#000" fill-rule="evenodd" stroke="#000" stroke-width="1.066"/></marker><marker orient="auto" refY="0" refX="0" id="c" overflow="visible"><path d="M10 0l4-4L0 0l14 4z" fill="#000" fill-rule="evenodd" stroke="#000" stroke-width="1.066"/></marker><marker orient="auto" refY="0" refX="0" id="a" overflow="visible"><path d="M10 0l4-4L0 0l14 4z" fill="#000" fill-rule="evenodd" stroke="#000" stroke-width="1.066"/></marker><marker orient="auto" refY="0" refX="0" id="d" overflow="visible"><path d="M-10 0l-4 4L0 0l-14-4z" fill="#000" fill-rule="evenodd" stroke="#000" stroke-width="1.066"/></marker><marker orient="auto" refY="0" refX="0" id="b" overflow="visible"><path d="M-10 0l-4 4L0 0l-14-4z" fill="#000" fill-rule="evenodd" stroke="#000" stroke-width="1.066"/></marker></defs><path d="M202.554 78.438h150.263v44.929H202.554z" fill="#cfe2f3" fill-rule="evenodd"/><path d="M21.823-29.489h604.942v452.454H21.823z" fill="#000" fill-opacity="0" fill-rule="evenodd"/><path d="M394.097 87.233c0-3.775 4.23-6.835 9.448-6.835H571.26c2.505 0 4.909.72 6.68 2.002 1.772 1.282 2.768 3.02 2.768 4.833v27.338c0 3.775-4.23 6.835-9.448 6.835H403.545c-5.218 0-9.448-3.06-9.448-6.835z" fill="#d9ead3" fill-rule="evenodd"/><path d="M393.743 87.233v0c0-3.775 4.247-6.835 9.484-6.835h168.35c2.516 0 4.928.72 6.707 2.002 1.778 1.282 2.777 3.02 2.777 4.833v27.338c0 3.775-4.246 6.835-9.484 6.835h-168.35c-5.237 0-9.484-3.06-9.484-6.835z" fill-rule="evenodd" stroke="#000" stroke-linecap="butt" stroke-linejoin="round"/><path d="M135.83 18.519l112 142.992m129 24l97.008-94.992m-97.008 94.992l97.008-42.488m-97.008 45.452l97.008 10.016m-97.008-12.98l97.008 65.512" fill="#000" fill-opacity="0" fill-rule="evenodd"/><path d="M202.554 78.755h150.263v44.295H202.554z" fill-rule="evenodd" stroke="#000" stroke-linecap="butt" stroke-linejoin="round"/><path d="M202.554 172.433h150.263v42.1H202.554z" fill="#cfe2f3" fill-rule="evenodd"/><path d="M202.554 172.433h150.263v42.1H202.554z" fill-rule="evenodd" stroke="#000" stroke-linecap="butt" stroke-linejoin="round"/><text style="line-height:1.25" x="240.661" y="32.931" font-weight="400" font-size="26.667" font-family="sans-serif" letter-spacing="0" word-spacing="0" fill="#000"><tspan x="240.661" y="32.931">Rules</tspan></text><text style="line-height:1.25" x="429.805" y="32.931" font-weight="400" font-size="26.667" font-family="sans-serif" letter-spacing="0" word-spacing="0" fill="#000"><tspan x="429.805" y="32.931">Handlers</tspan></text><path d="M394.097 179.814c0-3.775 4.23-6.835 9.448-6.835H571.26c2.505 0 4.909.72 6.68 2.002 1.772 1.282 2.768 3.02 2.768 4.833v27.338c0 3.775-4.23 6.835-9.448 6.835H403.545c-5.218 0-9.448-3.06-9.448-6.835z" fill="#d9ead3" fill-rule="evenodd"/><path d="M393.743 179.814v0c0-3.775 4.247-6.835 9.484-6.835h168.35c2.516 0 4.928.72 6.707 2.002 1.778 1.282 2.777 3.02 2.777 4.833v27.338c0 3.775-4.246 6.835-9.484 6.835h-168.35c-5.237 0-9.484-3.06-9.484-6.835z" fill-rule="evenodd" stroke="#000" stroke-linecap="butt" stroke-linejoin="round"/><text style="line-height:1.25" x="33.458" y="32.495" font-weight="400" font-size="26.667" font-family="sans-serif" letter-spacing="0" word-spacing="0" fill="#000"><tspan x="33.458" y="32.495">Instances</tspan></text><path d="M32.073 87.233c0-3.775 2.692-6.835 6.012-6.835H144.79c1.594 0 3.123.72 4.25 2.002 1.128 1.282 1.76 3.02 1.76 4.833v27.338c0 3.775-2.69 6.835-6.01 6.835H38.085c-3.32 0-6.012-3.06-6.012-6.835z" fill="#d9ead3" fill-rule="evenodd"/><path d="M31.148 87.233v0c0-3.775 2.707-6.835 6.047-6.835h107.341c1.604 0 3.142.72 4.276 2.002 1.134 1.282 1.771 3.02 1.771 4.833v27.338c0 3.775-2.707 6.835-6.047 6.835H37.195c-3.34 0-6.047-3.06-6.047-6.835z" fill-rule="evenodd" stroke="#000" stroke-linecap="butt" stroke-linejoin="round"/><text style="line-height:1.25" x="39.857" y="103.498" font-weight="400" font-size="14.667" font-family="sans-serif" letter-spacing="0" word-spacing="0" fill="#000"><tspan x="39.857" y="103.498">egress-access</tspan></text><path d="M152.516 101.106l49.489-.707" fill="#000" stroke="#000" stroke-width="1.002" stroke-linecap="butt" marker-start="url(#a)"/><path d="M353.326 100.902h38.34" fill="#000" stroke="#000" stroke-width="1.002" stroke-linecap="butt" marker-end="url(#b)"/><path d="M126.21 122.596l75.678 74.935h-.675" fill="#000" stroke="#000" stroke-width="1.002" stroke-linecap="butt" marker-start="url(#c)"/><path d="M352.619 193.483h41.012" fill="#000" stroke="#000" stroke-width="1.002" stroke-linecap="butt" marker-end="url(#d)"/><text style="line-height:1.25" x="223.716" y="104.998" font-weight="400" font-size="14.667" font-family="sans-serif" letter-spacing="0" word-spacing="0" fill="#000"><tspan x="223.716" y="104.998">handle-politics</tspan></text><text style="line-height:1.25" x="414.885" y="104.959" font-weight="400" font-size="14.667" font-family="sans-serif" letter-spacing="0" word-spacing="0" fill="#000"><tspan x="414.885" y="104.959">egress-error-logger</tspan></text><text style="line-height:1.25" x="208.821" y="198.686" font-weight="400" font-size="14.667" font-family="sans-serif" letter-spacing="0" word-spacing="0" fill="#000"><tspan x="208.821" y="198.686">handle-cnn-access</tspan></text><text style="line-height:1.25" x="409.042" y="197.283" font-weight="400" font-size="14.667" font-family="sans-serif" letter-spacing="0" word-spacing="0" fill="#000"><tspan x="409.042" y="197.283">egress-access-logger</tspan></text><path d="M32.073 261.9c0-3.775 2.692-6.835 6.012-6.835H144.79c1.594 0 3.123.72 4.25 2.002 1.128 1.282 1.76 3.02 1.76 4.833v27.338c0 3.775-2.69 6.835-6.01 6.835H38.085c-3.32 0-6.012-3.06-6.012-6.835z" fill="#d9ead3" fill-rule="evenodd"/><path d="M31.72 261.9v0c0-3.775 2.707-6.835 6.047-6.835h107.341c1.604 0 3.142.72 4.276 2.002 1.134 1.282 1.771 3.02 1.771 4.833v27.338c0 3.775-2.707 6.835-6.047 6.835H37.767c-3.34 0-6.047-3.06-6.047-6.835z" fill-rule="evenodd" stroke="#000" stroke-linecap="butt" stroke-linejoin="round"/><text style="line-height:1.25" x="43.757" y="279.665" font-weight="400" font-size="14.667" font-family="sans-serif" letter-spacing="0" word-spacing="0" fill="#000"><tspan x="43.757" y="279.665">request-path</tspan></text><path d="M394.097 261.9c0-3.775 4.23-6.835 9.448-6.835H571.26c2.505 0 4.909.72 6.68 2.002 1.772 1.282 2.768 3.02 2.768 4.833v27.338c0 3.775-4.23 6.835-9.448 6.835H403.545c-5.218 0-9.448-3.06-9.448-6.835z" fill="#d9ead3" fill-rule="evenodd"/><path d="M393.743 261.9v0c0-3.775 4.247-6.835 9.484-6.835h168.35c2.516 0 4.928.72 6.707 2.002 1.778 1.282 2.777 3.02 2.777 4.833v27.338c0 3.775-4.246 6.835-9.484 6.835h-168.35c-5.237 0-9.484-3.06-9.484-6.835z" fill-rule="evenodd" stroke="#000" stroke-linecap="butt" stroke-linejoin="round"/><text style="line-height:1.25" x="438.364" y="279.665" font-weight="400" font-size="14.667" font-family="sans-serif" letter-spacing="0" word-spacing="0" fill="#000"><tspan x="438.364" y="279.665">path-checker</tspan></text><path d="M115.258 253.144l85.955-55.613" stroke="#000" stroke-linecap="butt" marker-start="url(#e)"/><path d="M352.619 193.483l57.503 61.075v0l-.707-.707" stroke="#000" stroke-linecap="butt" marker-end="url(#f)"/></svg>