<?xml version="1.0" encoding="UTF-8" standalone="no"?>
<svg
   fill="none"
   stroke="none"
   stroke-linecap="square"
   stroke-miterlimit="10"
   version="1.1"
   viewBox="0 0 960 720"
   id="svg193"
   sodipodi:docname="setup.svg"
   inkscape:version="1.3 (0e150ed6c4, 2023-07-21)"
   xmlns:inkscape="http://www.inkscape.org/namespaces/inkscape"
   xmlns:sodipodi="http://sodipodi.sourceforge.net/DTD/sodipodi-0.dtd"
   xmlns="http://www.w3.org/2000/svg"
   xmlns:svg="http://www.w3.org/2000/svg">
  <defs
     id="defs193" />
  <sodipodi:namedview
     id="namedview193"
     pagecolor="#ffffff"
     bordercolor="#000000"
     borderopacity="0.25"
     inkscape:showpageshadow="2"
     inkscape:pageopacity="0.0"
     inkscape:pagecheckerboard="0"
     inkscape:deskcolor="#d1d1d1"
     inkscape:zoom="1.1402778"
     inkscape:cx="480.14616"
     inkscape:cy="360"
     inkscape:window-width="1920"
     inkscape:window-height="1017"
     inkscape:window-x="1912"
     inkscape:window-y="-8"
     inkscape:window-maximized="1"
     inkscape:current-layer="svg193" />
  <clipPath
     id="p.0">
    <path
       d="m0 0l960.0 0l0 720.0l-960.0 0l0 -720.0z"
       clip-rule="nonzero"
       id="path1" />
  </clipPath>
  <g
     clip-path="url(#p.0)"
     id="g193">
    <path
       fill="#000"
       fill-opacity="0"
       fill-rule="evenodd"
       d="m0 0l960.0 0l0 720.0l-960.0 0z"
       id="path2" />
    <path
       fill="#000"
       fill-opacity="0"
       fill-rule="evenodd"
       d="m41.779526 151.74236l0 0c0 -60.804718 49.29197 -110.09669 110.096695 -110.09669l635.3027 0c29.199463 0 57.203003 11.599442 77.8501 32.246574c20.647156 20.647133 32.246582 48.650658 32.246582 77.85011l0 440.37354c0 60.80475 -49.29193 110.09668 -110.09668 110.09668l-635.3027 0l0 0c-60.804726 0 -110.096695 -49.29193 -110.096695 -110.09668z"
       id="path3" />
    <path
       fill-rule="evenodd"
       stroke="#46f"
       stroke-dasharray="8 6"
       stroke-linecap="butt"
       stroke-linejoin="round"
       stroke-width="2"
       d="m41.779526 151.74236l0 0c0 -60.804718 49.29197 -110.09669 110.096695 -110.09669l635.3027 0c29.199463 0 57.203003 11.599442 77.8501 32.246574c20.647156 20.647133 32.246582 48.650658 32.246582 77.85011l0 440.37354c0 60.80475 -49.29193 110.09668 -110.09668 110.09668l-635.3027 0l0 0c-60.804726 0 -110.096695 -49.29193 -110.096695 -110.09668z"
       id="path4" />
    <path
       fill="#000"
       fill-opacity="0"
       fill-rule="evenodd"
       d="m109.727036 148.68082l0 0c0 -28.145348 22.8163 -50.961655 50.961655 -50.961655l203.84048 0l0 0c13.515869 0 26.47815 5.369156 36.03531 14.926323c9.557159 9.557159 14.926331 22.519447 14.926331 36.03533l0 456.2499c0 28.145386 -22.816315 50.96167 -50.96164 50.96167l-203.84048 0c-28.145355 0 -50.961655 -22.816284 -50.961655 -50.96167z"
       id="path5" />
    <path
       fill-rule="evenodd"
       stroke="#464646"
       stroke-linecap="butt"
       stroke-linejoin="round"
       stroke-width="2"
       d="m109.727036 148.68082l0 0c0 -28.145348 22.8163 -50.961655 50.961655 -50.961655l203.84048 0l0 0c13.515869 0 26.47815 5.369156 36.03531 14.926323c9.557159 9.557159 14.926331 22.519447 14.926331 36.03533l0 456.2499c0 28.145386 -22.816315 50.96167 -50.96164 50.96167l-203.84048 0c-28.145355 0 -50.961655 -22.816284 -50.961655 -50.96167z"
       id="path6" />
    <path
       fill="#000"
       fill-opacity="0"
       fill-rule="evenodd"
       d="m35.367455 6.132729l148.8819 0l0 56.377953l-148.8819 0z"
       id="path7" />
    <path
       fill="#000"
       fill-opacity="0"
       fill-rule="evenodd"
       d="m140.54855 192.84326l0 0c0 -20.36972 16.512924 -36.88263 36.88263 -36.88263l171.58908 0c9.781891 0 19.163116 3.8858337 26.079956 10.802673c6.9168396 6.9168243 10.802673 16.298065 10.802673 26.079956l0 147.5261c0 20.36969 -16.512909 36.88263 -36.88263 36.88263l-171.58908 0l0 0c-20.369705 0 -36.88263 -16.51294 -36.88263 -36.88263z"
       id="path9" />
    <path
       fill-rule="evenodd"
       stroke="#464646"
       stroke-dasharray="8 6"
       stroke-linecap="butt"
       stroke-linejoin="round"
       stroke-width="2"
       d="m140.54855 192.84326l0 0c0 -20.36972 16.512924 -36.88263 36.88263 -36.88263l171.58908 0c9.781891 0 19.163116 3.8858337 26.079956 10.802673c6.9168396 6.9168243 10.802673 16.298065 10.802673 26.079956l0 147.5261c0 20.36969 -16.512909 36.88263 -36.88263 36.88263l-171.58908 0l0 0c-20.369705 0 -36.88263 -16.51294 -36.88263 -36.88263z"
       id="path10" />
    <path
       fill="#e6e6e6"
       fill-rule="evenodd"
       d="m183.24167 177.25984l-0.7661438 0.060195923l-1.3936462 0.40496826l-0.9996338 0.80992126l-0.62020874 1.0397644l-0.07296753 0.5746002l0 63.617126l0.07296753 0.5800781l0.62020874 1.0397644l0.9996338 0.80992126l1.3936462 0.404953l0.7661438 0.054733276l165.7055 0l0.7734375 -0.054733276l1.3863525 -0.404953l1.079895 -0.80992126l0.5399475 -1.0397644l0.08026123 -0.5800781l0 -63.617126l-0.08026123 -0.5746002l-0.5399475 -1.0397644l-1.079895 -0.80992126l-1.3863525 -0.40496826l-0.7734375 -0.060195923z"
       id="path11" />
    <path
       fill="#fff"
       fill-rule="evenodd"
       d="m191.1193 185.93176l148.8819 0l0 52.06299l-148.8819 0z"
       id="path12" />
    <path
       fill="#000"
       fill-rule="nonzero"
       d="m253.48227 196.87013l1.359375 0l0 4.9375l5.890625 0l0 -4.9375l1.359375 0l0 11.453125l-1.359375 0l0 -5.21875l-5.890625 0l0 5.21875l-1.359375 0l0 -11.453125zm14.367401 11.703125q-1.171875 0 -2.109375 -0.546875q-0.921875 -0.5625 -1.4375 -1.546875q-0.515625 -0.984375 -0.515625 -2.21875q0 -1.171875 0.484375 -2.171875q0.484375 -1.0 1.390625 -1.59375q0.90625 -0.59375 2.078125 -0.59375q1.203125 0 2.078125 0.546875q0.875 0.53125 1.34375 1.484375q0.484375 0.9375 0.484375 2.15625q0 0.1875 -0.03125 0.40625l-6.46875 0q0.046875 0.9375 0.4375 1.578125q0.40625 0.640625 1.015625 0.96875q0.625 0.3125 1.296875 0.3125q1.59375 0 2.421875 -1.484375l1.140625 0.5625q-0.5 0.984375 -1.421875 1.5625q-0.90625 0.578125 -2.1875 0.578125zm2.34375 -5.1875q-0.03125 -0.515625 -0.28125 -1.03125q-0.25 -0.515625 -0.796875 -0.859375q-0.546875 -0.359375 -1.375 -0.359375q-0.96875 0 -1.640625 0.625q-0.671875 0.609375 -0.875 1.625l4.96875 0zm3.0392761 -6.515625l1.359375 0l0 11.453125l-1.359375 0l0 -11.453125zm3.376007 0l1.359375 0l0 11.453125l-1.359375 0l0 -11.453125zm7.04599 11.703125q-1.203125 0 -2.171875 -0.5625q-0.953125 -0.578125 -1.484375 -1.5625q-0.53125 -1.0 -0.53125 -2.203125q0 -1.203125 0.53125 -2.1875q0.53125 -1.0 1.484375 -1.578125q0.96875 -0.578125 2.171875 -0.578125q1.203125 0 2.15625 0.578125q0.96875 0.578125 1.5 1.578125q0.53125 0.984375 0.53125 2.1875q0 1.203125 -0.53125 2.203125q-0.53125 0.984375 -1.5 1.5625q-0.953125 0.5625 -2.15625 0.5625zm0 -1.21875q0.75 0 1.390625 -0.375q0.65625 -0.390625 1.046875 -1.09375q0.390625 -0.703125 0.390625 -1.640625q0 -0.953125 -0.390625 -1.65625q-0.390625 -0.703125 -1.046875 -1.078125q-0.640625 -0.375 -1.390625 -0.375q-0.75 0 -1.40625 0.375q-0.65625 0.375 -1.046875 1.078125q-0.390625 0.703125 -0.390625 1.65625q0 0.9375 0.390625 1.640625q0.390625 0.703125 1.046875 1.09375q0.65625 0.375 1.40625 0.375zm5.0360413 -10.484375l1.515625 0l2.078125 8.40625l0.1875 0.796875l0.0625 0l0.25 -0.796875l2.546875 -8.40625l1.40625 0l2.453125 8.40625l0.25 0.796875l0.0625 0l2.25 -9.203125l1.5 0l-3.078125 11.453125l-1.40625 0l-2.4375 -8.28125l-0.265625 -0.90625l-0.0625 0l-0.265625 0.90625l-2.53125 8.28125l-1.40625 0l-3.109375 -11.453125zm18.692017 11.703125q-1.203125 0 -2.171875 -0.5625q-0.953125 -0.578125 -1.484375 -1.5625q-0.53125 -1.0 -0.53125 -2.203125q0 -1.203125 0.53125 -2.1875q0.53125 -1.0 1.484375 -1.578125q0.96875 -0.578125 2.171875 -0.578125q1.203125 0 2.15625 0.578125q0.96875 0.578125 1.5 1.578125q0.53125 0.984375 0.53125 2.1875q0 1.203125 -0.53125 2.203125q-0.53125 0.984375 -1.5 1.5625q-0.953125 0.5625 -2.15625 0.5625zm0 -1.21875q0.75 0 1.390625 -0.375q0.65625 -0.390625 1.046875 -1.09375q0.390625 -0.703125 0.390625 -1.640625q0 -0.953125 -0.390625 -1.65625q-0.390625 -0.703125 -1.046875 -1.078125q-0.640625 -0.375 -1.390625 -0.375q-0.75 0 -1.40625 0.375q-0.65625 0.375 -1.046875 1.078125q-0.390625 0.703125 -0.390625 1.65625q0 0.9375 0.390625 1.640625q0.390625 0.703125 1.046875 1.09375q0.65625 0.375 1.40625 0.375zm5.6260376 -7.1875l1.28125 0l0 1.3125l0.078125 0q0.234375 -0.671875 0.921875 -1.109375q0.6875 -0.453125 1.4375 -0.453125q0.5625 0 0.96875 0.171875l0 1.46875q-0.515625 -0.265625 -1.15625 -0.265625q-0.59375 0 -1.09375 0.34375q-0.5 0.328125 -0.796875 0.90625q-0.28125 0.5625 -0.28125 1.21875l0 4.5625l-1.359375 0l0 -8.15625zm6.080017 -3.296875l1.359375 0l0 11.453125l-1.359375 0l0 -11.453125zm6.76474 11.703125q-1.109375 0 -2.0 -0.546875q-0.890625 -0.5625 -1.40625 -1.546875q-0.5 -0.984375 -0.5 -2.234375q0 -1.234375 0.5 -2.21875q0.515625 -1.0 1.40625 -1.5625q0.890625 -0.5625 2.0 -0.5625q0.921875 0 1.65625 0.4375q0.734375 0.421875 1.125 1.046875l0.0625 0l-0.0625 -1.140625l0 -3.375l1.359375 0l0 11.453125l-1.296875 0l0 -1.203125l-0.0625 0q-0.390625 0.609375 -1.125 1.03125q-0.734375 0.421875 -1.65625 0.421875zm0.140625 -1.21875q0.71875 0 1.328125 -0.390625q0.625 -0.390625 1.0 -1.09375q0.375 -0.703125 0.375 -1.625q0 -0.9375 -0.375 -1.640625q-0.375 -0.703125 -1.0 -1.078125q-0.609375 -0.390625 -1.328125 -0.390625q-0.703125 0 -1.328125 0.390625q-0.625 0.375 -1.0 1.09375q-0.375 0.71875 -0.375 1.625q0 0.90625 0.375 1.625q0.375 0.703125 1.0 1.09375q0.625 0.390625 1.328125 0.390625z"
       id="path13" />
    <path
       fill="#000"
       fill-rule="nonzero"
       d="m235.0086 219.167l1.28125 0l0 1.3125l0.078125 0q0.234375 -0.671875 0.921875 -1.109375q0.6875 -0.453125 1.4375 -0.453125q0.5625 0 0.96875 0.171875l0 1.46875q-0.515625 -0.265625 -1.15625 -0.265625q-0.59375 0 -1.09375 0.34375q-0.5 0.328125 -0.796875 0.90625q-0.28125 0.5625 -0.28125 1.21875l0 4.5625l-1.359375 0l0 -8.15625zm9.14502 8.40625q-1.171875 0 -2.109375 -0.546875q-0.921875 -0.5625 -1.4375 -1.546875q-0.515625 -0.984375 -0.515625 -2.21875q0 -1.171875 0.484375 -2.171875q0.484375 -1.0 1.390625 -1.59375q0.90625 -0.59375 2.078125 -0.59375q1.203125 0 2.078125 0.546875q0.875 0.53125 1.34375 1.484375q0.484375 0.9375 0.484375 2.15625q0 0.1875 -0.03125 0.40625l-6.46875 0q0.046875 0.9375 0.4375 1.578125q0.40625 0.640625 1.015625 0.96875q0.625 0.3125 1.296875 0.3125q1.59375 0 2.421875 -1.484375l1.140625 0.5625q-0.5 0.984375 -1.421875 1.5625q-0.90625 0.578125 -2.1875 0.578125zm2.34375 -5.1875q-0.03125 -0.515625 -0.28125 -1.03125q-0.25 -0.515625 -0.796875 -0.859375q-0.546875 -0.359375 -1.375 -0.359375q-0.96875 0 -1.640625 0.625q-0.671875 0.609375 -0.875 1.625l4.96875 0zm6.6973877 8.65625q-1.4375 0 -2.375 -0.671875q-0.9375 -0.671875 -1.265625 -1.625l1.25 -0.53125q0.265625 0.703125 0.890625 1.140625q0.640625 0.453125 1.5 0.453125q1.265625 0 1.953125 -0.734375q0.703125 -0.734375 0.703125 -2.09375l0 -0.90625l-0.0625 0q-0.40625 0.625 -1.140625 1.015625q-0.71875 0.390625 -1.640625 0.390625q-1.0625 0 -1.9375 -0.53125q-0.875 -0.546875 -1.390625 -1.515625q-0.5 -0.984375 -0.5 -2.234375q0 -1.234375 0.5 -2.21875q0.515625 -0.984375 1.390625 -1.53125q0.875 -0.546875 1.9375 -0.546875q0.921875 0 1.640625 0.40625q0.734375 0.390625 1.140625 1.03125l0.0625 0l0 -1.171875l1.296875 0l0 7.84375q0 1.953125 -1.09375 2.984375q-1.078125 1.046875 -2.859375 1.046875zm0 -4.796875q0.734375 0 1.328125 -0.359375q0.609375 -0.375 0.96875 -1.0625q0.359375 -0.6875 0.359375 -1.625q0 -0.96875 -0.359375 -1.65625q-0.359375 -0.6875 -0.96875 -1.046875q-0.59375 -0.359375 -1.328125 -0.359375q-0.734375 0 -1.34375 0.375q-0.609375 0.359375 -0.96875 1.046875q-0.359375 0.6875 -0.359375 1.640625q0 0.9375 0.359375 1.640625q0.359375 0.6875 0.96875 1.046875q0.609375 0.359375 1.34375 0.359375zm6.7707825 -8.578125q-0.40625 0 -0.703125 -0.28125q-0.28125 -0.296875 -0.28125 -0.703125q0 -0.421875 0.28125 -0.6875q0.296875 -0.28125 0.703125 -0.28125q0.40625 0 0.6875 0.28125q0.28125 0.265625 0.28125 0.6875q0 0.40625 -0.28125 0.703125q-0.28125 0.28125 -0.6875 0.28125zm-0.671875 1.5l1.359375 0l0 8.15625l-1.359375 0l0 -8.15625zm7.1610107 8.40625q-1.203125 0 -2.171875 -0.5625q-0.953125 -0.578125 -1.484375 -1.5625q-0.53125 -1.0 -0.53125 -2.203125q0 -1.203125 0.53125 -2.1875q0.53125 -1.0 1.484375 -1.578125q0.96875 -0.578125 2.171875 -0.578125q1.203125 0 2.15625 0.578125q0.96875 0.578125 1.5 1.578125q0.53125 0.984375 0.53125 2.1875q0 1.203125 -0.53125 2.203125q-0.53125 0.984375 -1.5 1.5625q-0.953125 0.5625 -2.15625 0.5625zm0 -1.21875q0.75 0 1.390625 -0.375q0.65625 -0.390625 1.046875 -1.09375q0.390625 -0.703125 0.390625 -1.640625q0 -0.953125 -0.390625 -1.65625q-0.390625 -0.703125 -1.046875 -1.078125q-0.640625 -0.375 -1.390625 -0.375q-0.75 0 -1.40625 0.375q-0.65625 0.375 -1.046875 1.078125q-0.390625 0.703125 -0.390625 1.65625q0 0.9375 0.390625 1.640625q0.390625 0.703125 1.046875 1.09375q0.65625 0.375 1.40625 0.375zm5.626007 -7.1875l1.28125 0l0 1.203125l0.078125 0q0.328125 -0.609375 1.0625 -1.03125q0.734375 -0.4375 1.578125 -0.4375q1.46875 0 2.234375 0.859375q0.78125 0.859375 0.78125 2.328125l0 5.234375l-1.359375 0l0 -5.03125q0 -1.125 -0.546875 -1.640625q-0.546875 -0.515625 -1.484375 -0.515625q-0.65625 0 -1.1875 0.375q-0.515625 0.359375 -0.796875 0.96875q-0.28125 0.59375 -0.28125 1.25l0 4.59375l-1.359375 0l0 -8.15625zm11.304138 -0.890625l-1.921875 1.390625l-0.703125 -1.046875l3.125 -2.234375l0.859375 0l0 10.9375l-1.359375 0l0 -9.046875zm4.642517 9.140625q-0.4375 0 -0.734375 -0.296875q-0.296875 -0.296875 -0.296875 -0.71875q0 -0.421875 0.296875 -0.71875q0.296875 -0.296875 0.734375 -0.296875q0.4375 0 0.71875 0.296875q0.296875 0.296875 0.296875 0.71875q0 0.421875 -0.296875 0.71875q-0.28125 0.296875 -0.71875 0.296875zm2.495514 -1.265625l4.8125 -5.75l-4.671875 0l0 -1.234375l6.34375 0l0 1.171875l-4.828125 5.75l4.953125 0l0 1.234375l-6.609375 0l0 -1.171875zm11.803894 1.421875q-1.203125 0 -2.171875 -0.5625q-0.953125 -0.578125 -1.484375 -1.5625q-0.53125 -1.0 -0.53125 -2.203125q0 -1.203125 0.53125 -2.1875q0.53125 -1.0 1.484375 -1.578125q0.96875 -0.578125 2.171875 -0.578125q1.203125 0 2.15625 0.578125q0.96875 0.578125 1.5 1.578125q0.53125 0.984375 0.53125 2.1875q0 1.203125 -0.53125 2.203125q-0.53125 0.984375 -1.5 1.5625q-0.953125 0.5625 -2.15625 0.5625zm0 -1.21875q0.75 0 1.390625 -0.375q0.65625 -0.390625 1.046875 -1.09375q0.390625 -0.703125 0.390625 -1.640625q0 -0.953125 -0.390625 -1.65625q-0.390625 -0.703125 -1.046875 -1.078125q-0.640625 -0.375 -1.390625 -0.375q-0.75 0 -1.40625 0.375q-0.65625 0.375 -1.046875 1.078125q-0.390625 0.703125 -0.390625 1.65625q0 0.9375 0.390625 1.640625q0.390625 0.703125 1.046875 1.09375q0.65625 0.375 1.40625 0.375zm5.6260376 -7.1875l1.28125 0l0 1.203125l0.078125 0q0.328125 -0.609375 1.0625 -1.03125q0.734375 -0.4375 1.578125 -0.4375q1.46875 0 2.234375 0.859375q0.78125 0.859375 0.78125 2.328125l0 5.234375l-1.359375 0l0 -5.03125q0 -1.125 -0.546875 -1.640625q-0.546875 -0.515625 -1.484375 -0.515625q-0.65625 0 -1.1875 0.375q-0.515625 0.359375 -0.796875 0.96875q-0.28125 0.59375 -0.28125 1.25l0 4.59375l-1.359375 0l0 -8.15625zm12.601013 8.40625q-1.171875 0 -2.109375 -0.546875q-0.921875 -0.5625 -1.4375 -1.546875q-0.515625 -0.984375 -0.515625 -2.21875q0 -1.171875 0.484375 -2.171875q0.484375 -1.0 1.390625 -1.59375q0.90625 -0.59375 2.078125 -0.59375q1.203125 0 2.078125 0.546875q0.875 0.53125 1.34375 1.484375q0.484375 0.9375 0.484375 2.15625q0 0.1875 -0.03125 0.40625l-6.46875 0q0.046875 0.9375 0.4375 1.578125q0.40625 0.640625 1.015625 0.96875q0.625 0.3125 1.296875 0.3125q1.59375 0 2.421875 -1.484375l1.140625 0.5625q-0.5 0.984375 -1.421875 1.5625q-0.90625 0.578125 -2.1875 0.578125zm2.34375 -5.1875q-0.03125 -0.515625 -0.28125 -1.03125q-0.25 -0.515625 -0.796875 -0.859375q-0.546875 -0.359375 -1.375 -0.359375q-0.96875 0 -1.640625 0.625q-0.671875 0.609375 -0.875 1.625l4.96875 0zm5.3673706 -4.109375l-1.921875 1.390625l-0.703125 -1.046875l3.125 -2.234375l0.859375 0l0 10.9375l-1.359375 0l0 -9.046875z"
       id="path14" />
    <path
       fill="#767576"
       fill-rule="evenodd"
       d="m210.9867 194.61205l-1.9054108 0.054718018l-3.624939 0.6950073l-3.2531433 1.3298035l-2.9452515 1.8496857l-2.5153809 2.3695679l-1.963501 2.7799988l-1.4116364 3.06456l-0.73776245 3.4093323l-0.06390381 1.7949677l0.06390381 1.7949524l0.73776245 3.3491364l1.4116364 3.124771l1.963501 2.7745209l2.5153809 2.3750458l2.9452515 1.8496704l3.2531433 1.3298035l3.624939 0.6950073l1.9054108 0.054718018l1.8996124 -0.054718018l3.56102 -0.6950073l3.317047 -1.3298035l2.9452667 -1.8496704l2.5153656 -2.3750458l1.9635162 -2.7745209l1.4116211 -3.124771l0.7377777 -3.3491364l0.06388855 -1.7949524l-0.06388855 -1.7949677l-0.7377777 -3.4093323l-1.4116211 -3.06456l-1.9635162 -2.7799988l-2.5153656 -2.3695679l-2.9452667 -1.8496857l-3.317047 -1.3298035l-3.56102 -0.6950073l-1.8996124 -0.054718018z"
       id="path15" />
    <path
       fill="#000"
       fill-opacity="0"
       fill-rule="evenodd"
       d="m217.49294 217.97375l-13.076492 0l0 -12.318466l13.076492 0l0 12.318466z"
       id="path16" />
    <path
       fill-rule="evenodd"
       stroke="#fff"
       stroke-linecap="butt"
       stroke-linejoin="round"
       stroke-width=".916"
       d="m217.49294 217.97375l-13.076492 0l0 -12.318466l13.076492 0l0 12.318466z"
       id="path17" />
    <path
       fill="#000"
       fill-opacity="0"
       fill-rule="evenodd"
       d="m206.86792 205.65533l0 -2.949646"
       id="path18" />
    <path
       fill-rule="evenodd"
       stroke="#fff"
       stroke-linecap="round"
       stroke-miterlimit="105.678"
       stroke-width=".916"
       d="m206.86792 205.65533l0 -2.949646"
       id="path19" />
    <path
       fill="#000"
       fill-opacity="0"
       fill-rule="evenodd"
       d="m210.9866 205.65533l0 -2.949646"
       id="path20" />
    <path
       fill-rule="evenodd"
       stroke="#fff"
       stroke-linecap="round"
       stroke-miterlimit="105.678"
       stroke-width=".916"
       d="m210.9866 205.65533l0 -2.949646"
       id="path21" />
    <path
       fill="#000"
       fill-opacity="0"
       fill-rule="evenodd"
       d="m215.09949 205.65533l0 -2.949646"
       id="path22" />
    <path
       fill-rule="evenodd"
       stroke="#fff"
       stroke-linecap="round"
       stroke-miterlimit="105.678"
       stroke-width=".916"
       d="m215.09949 205.65533l0 -2.949646"
       id="path23" />
    <path
       fill="#000"
       fill-opacity="0"
       fill-rule="evenodd"
       d="m206.86792 221.21329l0 -3.009842"
       id="path24" />
    <path
       fill-rule="evenodd"
       stroke="#fff"
       stroke-linecap="round"
       stroke-miterlimit="105.678"
       stroke-width=".916"
       d="m206.86792 221.21329l0 -3.009842"
       id="path25" />
    <path
       fill="#000"
       fill-opacity="0"
       fill-rule="evenodd"
       d="m210.9866 221.21329l0 -3.009842"
       id="path26" />
    <path
       fill-rule="evenodd"
       stroke="#fff"
       stroke-linecap="round"
       stroke-miterlimit="105.678"
       stroke-width=".916"
       d="m210.9866 221.21329l0 -3.009842"
       id="path27" />
    <path
       fill="#000"
       fill-opacity="0"
       fill-rule="evenodd"
       d="m215.09949 221.21329l0 -3.009842"
       id="path28" />
    <path
       fill-rule="evenodd"
       stroke="#fff"
       stroke-linecap="round"
       stroke-miterlimit="105.678"
       stroke-width=".916"
       d="m215.09949 221.21329l0 -3.009842"
       id="path29" />
    <path
       fill="#000"
       fill-opacity="0"
       fill-rule="evenodd"
       d="m204.29448 215.83391l-3.1311646 0"
       id="path30" />
    <path
       fill-rule="evenodd"
       stroke="#fff"
       stroke-linecap="round"
       stroke-miterlimit="105.678"
       stroke-width=".916"
       d="m204.29448 215.83391l-3.1311646 0"
       id="path31" />
    <path
       fill="#000"
       fill-opacity="0"
       fill-rule="evenodd"
       d="m204.29448 211.95947l-3.1311646 0"
       id="path32" />
    <path
       fill-rule="evenodd"
       stroke="#fff"
       stroke-linecap="round"
       stroke-miterlimit="105.678"
       stroke-width=".916"
       d="m204.29448 211.95947l-3.1311646 0"
       id="path33" />
    <path
       fill="#000"
       fill-opacity="0"
       fill-rule="evenodd"
       d="m204.29448 208.08502l-3.1311646 0"
       id="path34" />
    <path
       fill-rule="evenodd"
       stroke="#fff"
       stroke-linecap="round"
       stroke-miterlimit="105.678"
       stroke-width=".916"
       d="m204.29448 208.08502l-3.1311646 0"
       id="path35" />
    <path
       fill="#000"
       fill-opacity="0"
       fill-rule="evenodd"
       d="m220.80411 215.83391l-3.1892548 0"
       id="path36" />
    <path
       fill-rule="evenodd"
       stroke="#fff"
       stroke-linecap="round"
       stroke-miterlimit="105.678"
       stroke-width=".916"
       d="m220.80411 215.83391l-3.1892548 0"
       id="path37" />
    <path
       fill="#000"
       fill-opacity="0"
       fill-rule="evenodd"
       d="m220.80411 211.95947l-3.1892548 0"
       id="path38" />
    <path
       fill-rule="evenodd"
       stroke="#fff"
       stroke-linecap="round"
       stroke-miterlimit="105.678"
       stroke-width=".916"
       d="m220.80411 211.95947l-3.1892548 0"
       id="path39" />
    <path
       fill="#000"
       fill-opacity="0"
       fill-rule="evenodd"
       d="m220.80411 208.08502l-3.1892548 0"
       id="path40" />
    <path
       fill-rule="evenodd"
       stroke="#fff"
       stroke-linecap="round"
       stroke-miterlimit="105.678"
       stroke-width=".916"
       d="m220.80411 208.08502l-3.1892548 0"
       id="path41" />
    <path
       fill="#fff"
       fill-rule="evenodd"
       d="m210.12686 209.07005l-0.42988586 0.054733276l-0.73776245 0.29003906l-0.5518646 0.5198822l-0.30789185 0.69499207l0 0.40496826l0 1.6198425l0 0.404953l0.30789185 0.6950073l0.5518646 0.5198822l0.73776245 0.28456116l2.573471 0l0.7377777 -0.28456116l0.5518646 -0.5198822l0.30789185 -0.6950073l0 -0.404953l0 -1.6198425l0 -0.40496826l-0.30789185 -0.69499207l-0.5518646 -0.5198822l-0.7377777 -0.29003906l-0.4298706 -0.054733276z"
       id="path42" />
    <path
       fill="#000"
       fill-opacity="0"
       fill-rule="evenodd"
       d="m104.67454 57.409832l197.5748 0l0 42.55118l-197.5748 0z"
       id="path43" />
    <path
       fill="#000"
       fill-opacity="0"
       fill-rule="evenodd"
       d="m136.67455 113.409836l197.57478 0l0 42.551178l-197.57478 0z"
       id="path45" />
    <path
       fill="#000"
       fill-opacity="0"
       fill-rule="evenodd"
       d="m140.54855 495.381l0 0c0 -12.147614 9.84758 -21.995178 21.995193 -21.995178l201.36394 0c5.833496 0 11.42807 2.3173218 15.552948 6.44223c4.1249084 4.1249084 6.4422607 9.719452 6.4422607 15.552948l0 87.97812c0 12.147644 -9.847595 21.995178 -21.995209 21.995178l-201.36394 0c-12.147614 0 -21.995193 -9.847534 -21.995193 -21.995178z"
       id="path47" />
    <path
       fill-rule="evenodd"
       stroke="#464646"
       stroke-dasharray="8 6"
       stroke-linecap="butt"
       stroke-linejoin="round"
       stroke-width="2"
       d="m140.54855 495.381l0 0c0 -12.147614 9.84758 -21.995178 21.995193 -21.995178l201.36394 0c5.833496 0 11.42807 2.3173218 15.552948 6.44223c4.1249084 4.1249084 6.4422607 9.719452 6.4422607 15.552948l0 87.97812c0 12.147644 -9.847595 21.995178 -21.995209 21.995178l-201.36394 0c-12.147614 0 -21.995193 -9.847534 -21.995193 -21.995178z"
       id="path48" />
    <path
       fill="#000"
       fill-opacity="0"
       fill-rule="evenodd"
       d="m136.67455 433.40982l197.57478 0l0 42.55121l-197.57478 0z"
       id="path49" />
    <path
       fill="#000"
       fill-opacity="0"
       fill-rule="evenodd"
       d="m520.67456 134.60179l0 0c0 -20.369713 16.512878 -36.88263 36.88263 -36.88263l237.0379 0c9.78186 0 19.163086 3.8858337 26.079956 10.802673c6.916809 6.916832 10.802612 16.298073 10.802612 26.079956l0 147.52608c0 20.36972 -16.512878 36.88263 -36.88257 36.88263l-237.0379 0c-20.369751 0 -36.88263 -16.512909 -36.88263 -36.88263z"
       id="path51" />
    <path
       fill-rule="evenodd"
       stroke="#464646"
       stroke-linecap="butt"
       stroke-linejoin="round"
       stroke-width="2"
       d="m520.67456 134.60179l0 0c0 -20.369713 16.512878 -36.88263 36.88263 -36.88263l237.0379 0c9.78186 0 19.163086 3.8858337 26.079956 10.802673c6.916809 6.916832 10.802612 16.298073 10.802612 26.079956l0 147.52608c0 20.36972 -16.512878 36.88263 -36.88257 36.88263l-237.0379 0c-20.369751 0 -36.88263 -16.512909 -36.88263 -36.88263z"
       id="path52" />
    <path
       fill="#000"
       fill-opacity="0"
       fill-rule="evenodd"
       d="m556.5486 171.00041l0 0c0 -11.295242 9.156555 -20.451859 20.451843 -20.451859l204.45062 0c5.4241333 0 10.62616 2.1547394 14.461609 5.990219c3.8355103 3.8354645 5.9902344 9.03746 5.9902344 14.461639l0 81.80495c0 11.295258 -9.156616 20.451874 -20.451843 20.451874l-204.45062 0c-11.295288 0 -20.451843 -9.156616 -20.451843 -20.451874z"
       id="path53" />
    <path
       fill-rule="evenodd"
       stroke="#464646"
       stroke-dasharray="8 6"
       stroke-linecap="butt"
       stroke-linejoin="round"
       stroke-width="2"
       d="m556.5486 171.00041l0 0c0 -11.295242 9.156555 -20.451859 20.451843 -20.451859l204.45062 0c5.4241333 0 10.62616 2.1547394 14.461609 5.990219c3.8355103 3.8354645 5.9902344 9.03746 5.9902344 14.461639l0 81.80495c0 11.295258 -9.156616 20.451874 -20.451843 20.451874l-204.45062 0c-11.295288 0 -20.451843 -9.156616 -20.451843 -20.451874z"
       id="path54" />
    <path
       fill="#e6e6e6"
       fill-rule="evenodd"
       d="m599.24164 177.25984l-0.7661133 0.060195923l-1.3936768 0.40496826l-0.9996338 0.80992126l-0.6201782 1.0397644l-0.07299805 0.5746002l0 63.617126l0.07299805 0.5800781l0.6201782 1.0397644l0.9996338 0.80992126l1.3936768 0.404953l0.7661133 0.054733276l165.70557 0l0.7734375 -0.054733276l1.3863525 -0.404953l1.079895 -0.80992126l0.539917 -1.0397644l0.08026123 -0.5800781l0 -63.617126l-0.08026123 -0.5746002l-0.539917 -1.0397644l-1.079895 -0.80992126l-1.3863525 -0.40496826l-0.7734375 -0.060195923z"
       id="path55" />
    <path
       fill="#fff"
       fill-rule="evenodd"
       d="m607.1193 185.93176l148.88184 0l0 52.06299l-148.88184 0z"
       id="path56" />
    <path
       fill="#000"
       fill-rule="nonzero"
       d="m669.4823 196.87013l1.359375 0l0 4.9375l5.890625 0l0 -4.9375l1.359375 0l0 11.453125l-1.359375 0l0 -5.21875l-5.890625 0l0 5.21875l-1.359375 0l0 -11.453125zm14.367371 11.703125q-1.171875 0 -2.109375 -0.546875q-0.921875 -0.5625 -1.4375 -1.546875q-0.515625 -0.984375 -0.515625 -2.21875q0 -1.171875 0.484375 -2.171875q0.484375 -1.0 1.390625 -1.59375q0.90625 -0.59375 2.078125 -0.59375q1.203125 0 2.078125 0.546875q0.875 0.53125 1.34375 1.484375q0.484375 0.9375 0.484375 2.15625q0 0.1875 -0.03125 0.40625l-6.46875 0q0.046875 0.9375 0.4375 1.578125q0.40625 0.640625 1.015625 0.96875q0.625 0.3125 1.296875 0.3125q1.59375 0 2.421875 -1.484375l1.140625 0.5625q-0.5 0.984375 -1.421875 1.5625q-0.90625 0.578125 -2.1875 0.578125zm2.34375 -5.1875q-0.03125 -0.515625 -0.28125 -1.03125q-0.25 -0.515625 -0.796875 -0.859375q-0.546875 -0.359375 -1.375 -0.359375q-0.96875 0 -1.640625 0.625q-0.671875 0.609375 -0.875 1.625l4.96875 0zm3.0392456 -6.515625l1.359375 0l0 11.453125l-1.359375 0l0 -11.453125zm3.3760376 0l1.359375 0l0 11.453125l-1.359375 0l0 -11.453125zm7.0460205 11.703125q-1.203125 0 -2.171875 -0.5625q-0.953125 -0.578125 -1.484375 -1.5625q-0.53125 -1.0 -0.53125 -2.203125q0 -1.203125 0.53125 -2.1875q0.53125 -1.0 1.484375 -1.578125q0.96875 -0.578125 2.171875 -0.578125q1.203125 0 2.15625 0.578125q0.96875 0.578125 1.5 1.578125q0.53125 0.984375 0.53125 2.1875q0 1.203125 -0.53125 2.203125q-0.53125 0.984375 -1.5 1.5625q-0.953125 0.5625 -2.15625 0.5625zm0 -1.21875q0.75 0 1.390625 -0.375q0.65625 -0.390625 1.046875 -1.09375q0.390625 -0.703125 0.390625 -1.640625q0 -0.953125 -0.390625 -1.65625q-0.390625 -0.703125 -1.046875 -1.078125q-0.640625 -0.375 -1.390625 -0.375q-0.75 0 -1.40625 0.375q-0.65625 0.375 -1.046875 1.078125q-0.390625 0.703125 -0.390625 1.65625q0 0.9375 0.390625 1.640625q0.390625 0.703125 1.046875 1.09375q0.65625 0.375 1.40625 0.375zm5.0360107 -10.484375l1.515625 0l2.078125 8.40625l0.1875 0.796875l0.0625 0l0.25 -0.796875l2.546875 -8.40625l1.40625 0l2.453125 8.40625l0.25 0.796875l0.0625 0l2.25 -9.203125l1.5 0l-3.078125 11.453125l-1.40625 0l-2.4375 -8.28125l-0.265625 -0.90625l-0.0625 0l-0.265625 0.90625l-2.53125 8.28125l-1.40625 0l-3.109375 -11.453125zm18.692017 11.703125q-1.203125 0 -2.171875 -0.5625q-0.953125 -0.578125 -1.484375 -1.5625q-0.53125 -1.0 -0.53125 -2.203125q0 -1.203125 0.53125 -2.1875q0.53125 -1.0 1.484375 -1.578125q0.96875 -0.578125 2.171875 -0.578125q1.203125 0 2.15625 0.578125q0.96875 0.578125 1.5 1.578125q0.53125 0.984375 0.53125 2.1875q0 1.203125 -0.53125 2.203125q-0.53125 0.984375 -1.5 1.5625q-0.953125 0.5625 -2.15625 0.5625zm0 -1.21875q0.75 0 1.390625 -0.375q0.65625 -0.390625 1.046875 -1.09375q0.390625 -0.703125 0.390625 -1.640625q0 -0.953125 -0.390625 -1.65625q-0.390625 -0.703125 -1.046875 -1.078125q-0.640625 -0.375 -1.390625 -0.375q-0.75 0 -1.40625 0.375q-0.65625 0.375 -1.046875 1.078125q-0.390625 0.703125 -0.390625 1.65625q0 0.9375 0.390625 1.640625q0.390625 0.703125 1.046875 1.09375q0.65625 0.375 1.40625 0.375zm5.6260376 -7.1875l1.28125 0l0 1.3125l0.078125 0q0.234375 -0.671875 0.921875 -1.109375q0.6875 -0.453125 1.4375 -0.453125q0.5625 0 0.96875 0.171875l0 1.46875q-0.515625 -0.265625 -1.15625 -0.265625q-0.59375 0 -1.09375 0.34375q-0.5 0.328125 -0.796875 0.90625q-0.28125 0.5625 -0.28125 1.21875l0 4.5625l-1.359375 0l0 -8.15625zm6.080017 -3.296875l1.359375 0l0 11.453125l-1.359375 0l0 -11.453125zm6.7647705 11.703125q-1.109375 0 -2.0 -0.546875q-0.890625 -0.5625 -1.40625 -1.546875q-0.5 -0.984375 -0.5 -2.234375q0 -1.234375 0.5 -2.21875q0.515625 -1.0 1.40625 -1.5625q0.890625 -0.5625 2.0 -0.5625q0.921875 0 1.65625 0.4375q0.734375 0.421875 1.125 1.046875l0.0625 0l-0.0625 -1.140625l0 -3.375l1.359375 0l0 11.453125l-1.296875 0l0 -1.203125l-0.0625 0q-0.390625 0.609375 -1.125 1.03125q-0.734375 0.421875 -1.65625 0.421875zm0.140625 -1.21875q0.71875 0 1.328125 -0.390625q0.625 -0.390625 1.0 -1.09375q0.375 -0.703125 0.375 -1.625q0 -0.9375 -0.375 -1.640625q-0.375 -0.703125 -1.0 -1.078125q-0.609375 -0.390625 -1.328125 -0.390625q-0.703125 0 -1.328125 0.390625q-0.625 0.375 -1.0 1.09375q-0.375 0.71875 -0.375 1.625q0 0.90625 0.375 1.625q0.375 0.703125 1.0 1.09375q0.625 0.390625 1.328125 0.390625z"
       id="path57" />
    <path
       fill="#000"
       fill-rule="nonzero"
       d="m646.1926 219.167l1.28125 0l0 1.3125l0.078125 0q0.234375 -0.671875 0.921875 -1.109375q0.6875 -0.453125 1.4375 -0.453125q0.5625 0 0.96875 0.171875l0 1.46875q-0.515625 -0.265625 -1.15625 -0.265625q-0.59375 0 -1.09375 0.34375q-0.5 0.328125 -0.796875 0.90625q-0.28125 0.5625 -0.28125 1.21875l0 4.5625l-1.359375 0l0 -8.15625zm9.14502 8.40625q-1.171875 0 -2.109375 -0.546875q-0.921875 -0.5625 -1.4375 -1.546875q-0.515625 -0.984375 -0.515625 -2.21875q0 -1.171875 0.484375 -2.171875q0.484375 -1.0 1.390625 -1.59375q0.90625 -0.59375 2.078125 -0.59375q1.203125 0 2.078125 0.546875q0.875 0.53125 1.34375 1.484375q0.484375 0.9375 0.484375 2.15625q0 0.1875 -0.03125 0.40625l-6.46875 0q0.046875 0.9375 0.4375 1.578125q0.40625 0.640625 1.015625 0.96875q0.625 0.3125 1.296875 0.3125q1.59375 0 2.421875 -1.484375l1.140625 0.5625q-0.5 0.984375 -1.421875 1.5625q-0.90625 0.578125 -2.1875 0.578125zm2.34375 -5.1875q-0.03125 -0.515625 -0.28125 -1.03125q-0.25 -0.515625 -0.796875 -0.859375q-0.546875 -0.359375 -1.375 -0.359375q-0.96875 0 -1.640625 0.625q-0.671875 0.609375 -0.875 1.625l4.96875 0zm6.6973877 8.65625q-1.4375 0 -2.375 -0.671875q-0.9375 -0.671875 -1.265625 -1.625l1.25 -0.53125q0.265625 0.703125 0.890625 1.140625q0.640625 0.453125 1.5 0.453125q1.265625 0 1.953125 -0.734375q0.703125 -0.734375 0.703125 -2.09375l0 -0.90625l-0.0625 0q-0.40625 0.625 -1.140625 1.015625q-0.71875 0.390625 -1.640625 0.390625q-1.0625 0 -1.9375 -0.53125q-0.875 -0.546875 -1.390625 -1.515625q-0.5 -0.984375 -0.5 -2.234375q0 -1.234375 0.5 -2.21875q0.515625 -0.984375 1.390625 -1.53125q0.875 -0.546875 1.9375 -0.546875q0.921875 0 1.640625 0.40625q0.734375 0.390625 1.140625 1.03125l0.0625 0l0 -1.171875l1.296875 0l0 7.84375q0 1.953125 -1.09375 2.984375q-1.078125 1.046875 -2.859375 1.046875zm0 -4.796875q0.734375 0 1.328125 -0.359375q0.609375 -0.375 0.96875 -1.0625q0.359375 -0.6875 0.359375 -1.625q0 -0.96875 -0.359375 -1.65625q-0.359375 -0.6875 -0.96875 -1.046875q-0.59375 -0.359375 -1.328125 -0.359375q-0.734375 0 -1.34375 0.375q-0.609375 0.359375 -0.96875 1.046875q-0.359375 0.6875 -0.359375 1.640625q0 0.9375 0.359375 1.640625q0.359375 0.6875 0.96875 1.046875q0.609375 0.359375 1.34375 0.359375zm6.770752 -8.578125q-0.40625 0 -0.703125 -0.28125q-0.28125 -0.296875 -0.28125 -0.703125q0 -0.421875 0.28125 -0.6875q0.296875 -0.28125 0.703125 -0.28125q0.40625 0 0.6875 0.28125q0.28125 0.265625 0.28125 0.6875q0 0.40625 -0.28125 0.703125q-0.28125 0.28125 -0.6875 0.28125zm-0.671875 1.5l1.359375 0l0 8.15625l-1.359375 0l0 -8.15625zm7.1610107 8.40625q-1.203125 0 -2.171875 -0.5625q-0.953125 -0.578125 -1.484375 -1.5625q-0.53125 -1.0 -0.53125 -2.203125q0 -1.203125 0.53125 -2.1875q0.53125 -1.0 1.484375 -1.578125q0.96875 -0.578125 2.171875 -0.578125q1.203125 0 2.15625 0.578125q0.96875 0.578125 1.5 1.578125q0.53125 0.984375 0.53125 2.1875q0 1.203125 -0.53125 2.203125q-0.53125 0.984375 -1.5 1.5625q-0.953125 0.5625 -2.15625 0.5625zm0 -1.21875q0.75 0 1.390625 -0.375q0.65625 -0.390625 1.046875 -1.09375q0.390625 -0.703125 0.390625 -1.640625q0 -0.953125 -0.390625 -1.65625q-0.390625 -0.703125 -1.046875 -1.078125q-0.640625 -0.375 -1.390625 -0.375q-0.75 0 -1.40625 0.375q-0.65625 0.375 -1.046875 1.078125q-0.390625 0.703125 -0.390625 1.65625q0 0.9375 0.390625 1.640625q0.390625 0.703125 1.046875 1.09375q0.65625 0.375 1.40625 0.375zm5.6260376 -7.1875l1.28125 0l0 1.203125l0.078125 0q0.328125 -0.609375 1.0625 -1.03125q0.734375 -0.4375 1.578125 -0.4375q1.46875 0 2.234375 0.859375q0.78125 0.859375 0.78125 2.328125l0 5.234375l-1.359375 0l0 -5.03125q0 -1.125 -0.546875 -1.640625q-0.546875 -0.515625 -1.484375 -0.515625q-0.65625 0 -1.1875 0.375q-0.515625 0.359375 -0.796875 0.96875q-0.28125 0.59375 -0.28125 1.25l0 4.59375l-1.359375 0l0 -8.15625zm8.679138 6.796875q3.140625 -3.15625 4.015625 -4.109375q0.8125 -0.890625 1.09375 -1.375q0.296875 -0.5 0.296875 -1.203125q0 -0.46875 -0.25 -0.890625q-0.234375 -0.4375 -0.703125 -0.703125q-0.46875 -0.265625 -1.125 -0.265625q-0.859375 0 -1.390625 0.515625q-0.53125 0.5 -0.6875 1.09375l-1.234375 -0.5q0.140625 -0.515625 0.5625 -1.0625q0.421875 -0.5625 1.125 -0.953125q0.703125 -0.390625 1.65625 -0.390625q1.015625 0 1.78125 0.4375q0.78125 0.421875 1.203125 1.15625q0.4375 0.71875 0.4375 1.546875q0 1.671875 -1.75 3.46875l-3.28125 3.296875l5.15625 0l0 1.296875l-6.90625 0l0 -1.359375zm9.603516 1.453125q-0.4375 0 -0.734375 -0.296875q-0.296875 -0.296875 -0.296875 -0.71875q0 -0.421875 0.296875 -0.71875q0.296875 -0.296875 0.734375 -0.296875q0.4375 0 0.71875 0.296875q0.296875 0.296875 0.296875 0.71875q0 0.421875 -0.296875 0.71875q-0.28125 0.296875 -0.71875 0.296875zm2.4954834 -1.265625l4.8125 -5.75l-4.671875 0l0 -1.234375l6.34375 0l0 1.171875l-4.828125 5.75l4.953125 0l0 1.234375l-6.609375 0l0 -1.171875zm11.803894 1.421875q-1.203125 0 -2.171875 -0.5625q-0.953125 -0.578125 -1.484375 -1.5625q-0.53125 -1.0 -0.53125 -2.203125q0 -1.203125 0.53125 -2.1875q0.53125 -1.0 1.484375 -1.578125q0.96875 -0.578125 2.171875 -0.578125q1.203125 0 2.15625 0.578125q0.96875 0.578125 1.5 1.578125q0.53125 0.984375 0.53125 2.1875q0 1.203125 -0.53125 2.203125q-0.53125 0.984375 -1.5 1.5625q-0.953125 0.5625 -2.15625 0.5625zm0 -1.21875q0.75 0 1.390625 -0.375q0.65625 -0.390625 1.046875 -1.09375q0.390625 -0.703125 0.390625 -1.640625q0 -0.953125 -0.390625 -1.65625q-0.390625 -0.703125 -1.046875 -1.078125q-0.640625 -0.375 -1.390625 -0.375q-0.75 0 -1.40625 0.375q-0.65625 0.375 -1.046875 1.078125q-0.390625 0.703125 -0.390625 1.65625q0 0.9375 0.390625 1.640625q0.390625 0.703125 1.046875 1.09375q0.65625 0.375 1.40625 0.375zm5.6260376 -7.1875l1.28125 0l0 1.203125l0.078125 0q0.328125 -0.609375 1.0625 -1.03125q0.734375 -0.4375 1.578125 -0.4375q1.46875 0 2.234375 0.859375q0.78125 0.859375 0.78125 2.328125l0 5.234375l-1.359375 0l0 -5.03125q0 -1.125 -0.546875 -1.640625q-0.546875 -0.515625 -1.484375 -0.515625q-0.65625 0 -1.1875 0.375q-0.515625 0.359375 -0.796875 0.96875q-0.28125 0.59375 -0.28125 1.25l0 4.59375l-1.359375 0l0 -8.15625zm12.601013 8.40625q-1.171875 0 -2.109375 -0.546875q-0.921875 -0.5625 -1.4375 -1.546875q-0.515625 -0.984375 -0.515625 -2.21875q0 -1.171875 0.484375 -2.171875q0.484375 -1.0 1.390625 -1.59375q0.90625 -0.59375 2.078125 -0.59375q1.203125 0 2.078125 0.546875q0.875 0.53125 1.34375 1.484375q0.484375 0.9375 0.484375 2.15625q0 0.1875 -0.03125 0.40625l-6.46875 0q0.046875 0.9375 0.4375 1.578125q0.40625 0.640625 1.015625 0.96875q0.625 0.3125 1.296875 0.3125q1.59375 0 2.421875 -1.484375l1.140625 0.5625q-0.5 0.984375 -1.421875 1.5625q-0.90625 0.578125 -2.1875 0.578125zm2.34375 -5.1875q-0.03125 -0.515625 -0.28125 -1.03125q-0.25 -0.515625 -0.796875 -0.859375q-0.546875 -0.359375 -1.375 -0.359375q-0.96875 0 -1.640625 0.625q-0.671875 0.609375 -0.875 1.625l4.96875 0zm6.1954956 5.1875q-0.6875 0 -1.40625 -0.28125q-0.71875 -0.28125 -1.3125 -0.890625q-0.578125 -0.625 -0.828125 -1.5625l1.234375 -0.5q0.25 0.921875 0.859375 1.4375q0.625 0.5 1.453125 0.5q0.609375 0 1.140625 -0.25q0.53125 -0.265625 0.84375 -0.734375q0.3125 -0.484375 0.3125 -1.0625q0 -0.546875 -0.3125 -1.015625q-0.3125 -0.46875 -0.859375 -0.734375q-0.53125 -0.265625 -1.171875 -0.265625l-0.9375 0l0 -1.265625l0.84375 0q0.875 0 1.46875 -0.5q0.59375 -0.5 0.59375 -1.328125q0 -0.765625 -0.578125 -1.234375q-0.578125 -0.46875 -1.421875 -0.46875q-0.828125 0 -1.3125 0.4375q-0.46875 0.421875 -0.671875 1.046875l-1.25 -0.515625q0.296875 -0.875 1.109375 -1.5625q0.828125 -0.703125 2.125 -0.703125q0.96875 0 1.734375 0.390625q0.765625 0.375 1.203125 1.0625q0.4375 0.6875 0.4375 1.546875q0 0.84375 -0.4375 1.4375q-0.421875 0.59375 -1.0625 0.921875l0 0.0625q0.8125 0.34375 1.34375 1.046875q0.53125 0.6875 0.53125 1.625q0 0.96875 -0.5 1.734375q-0.484375 0.765625 -1.328125 1.203125q-0.828125 0.421875 -1.84375 0.421875z"
       id="path58" />
    <path
       fill="#767576"
       fill-rule="evenodd"
       d="m626.9867 194.61205l-1.9053955 0.054718018l-3.624939 0.6950073l-3.2531738 1.3298035l-2.9452515 1.8496857l-2.5153809 2.3695679l-1.963501 2.7799988l-1.4116211 3.06456l-0.73779297 3.4093323l-0.06384277 1.7949677l0.06384277 1.7949524l0.73779297 3.3491364l1.4116211 3.124771l1.963501 2.7745209l2.5153809 2.3750458l2.9452515 1.8496704l3.2531738 1.3298035l3.624939 0.6950073l1.9053955 0.054718018l1.8995972 -0.054718018l3.5610352 -0.6950073l3.3170776 -1.3298035l2.9452515 -1.8496704l2.5153809 -2.3750458l1.963501 -2.7745209l1.4116211 -3.124771l0.73773193 -3.3491364l0.06390381 -1.7949524l-0.06390381 -1.7949677l-0.73773193 -3.4093323l-1.4116211 -3.06456l-1.963501 -2.7799988l-2.5153809 -2.3695679l-2.9452515 -1.8496857l-3.3170776 -1.3298035l-3.5610352 -0.6950073l-1.8995972 -0.054718018z"
       id="path59" />
    <path
       fill="#000"
       fill-opacity="0"
       fill-rule="evenodd"
       d="m633.4929 217.97375l-13.076477 0l0 -12.318466l13.076477 0l0 12.318466z"
       id="path60" />
    <path
       fill-rule="evenodd"
       stroke="#fff"
       stroke-linecap="butt"
       stroke-linejoin="round"
       stroke-width=".916"
       d="m633.4929 217.97375l-13.076477 0l0 -12.318466l13.076477 0l0 12.318466z"
       id="path61" />
    <path
       fill="#000"
       fill-opacity="0"
       fill-rule="evenodd"
       d="m622.8679 205.65533l0 -2.949646"
       id="path62" />
    <path
       fill-rule="evenodd"
       stroke="#fff"
       stroke-linecap="round"
       stroke-miterlimit="105.678"
       stroke-width=".916"
       d="m622.8679 205.65533l0 -2.949646"
       id="path63" />
    <path
       fill="#000"
       fill-opacity="0"
       fill-rule="evenodd"
       d="m626.98663 205.65533l0 -2.949646"
       id="path64" />
    <path
       fill-rule="evenodd"
       stroke="#fff"
       stroke-linecap="round"
       stroke-miterlimit="105.678"
       stroke-width=".916"
       d="m626.98663 205.65533l0 -2.949646"
       id="path65" />
    <path
       fill="#000"
       fill-opacity="0"
       fill-rule="evenodd"
       d="m631.0995 205.65533l0 -2.949646"
       id="path66" />
    <path
       fill-rule="evenodd"
       stroke="#fff"
       stroke-linecap="round"
       stroke-miterlimit="105.678"
       stroke-width=".916"
       d="m631.0995 205.65533l0 -2.949646"
       id="path67" />
    <path
       fill="#000"
       fill-opacity="0"
       fill-rule="evenodd"
       d="m622.8679 221.21329l0 -3.009842"
       id="path68" />
    <path
       fill-rule="evenodd"
       stroke="#fff"
       stroke-linecap="round"
       stroke-miterlimit="105.678"
       stroke-width=".916"
       d="m622.8679 221.21329l0 -3.009842"
       id="path69" />
    <path
       fill="#000"
       fill-opacity="0"
       fill-rule="evenodd"
       d="m626.98663 221.21329l0 -3.009842"
       id="path70" />
    <path
       fill-rule="evenodd"
       stroke="#fff"
       stroke-linecap="round"
       stroke-miterlimit="105.678"
       stroke-width=".916"
       d="m626.98663 221.21329l0 -3.009842"
       id="path71" />
    <path
       fill="#000"
       fill-opacity="0"
       fill-rule="evenodd"
       d="m631.0995 221.21329l0 -3.009842"
       id="path72" />
    <path
       fill-rule="evenodd"
       stroke="#fff"
       stroke-linecap="round"
       stroke-miterlimit="105.678"
       stroke-width=".916"
       d="m631.0995 221.21329l0 -3.009842"
       id="path73" />
    <path
       fill="#000"
       fill-opacity="0"
       fill-rule="evenodd"
       d="m620.2945 215.83391l-3.1311646 0"
       id="path74" />
    <path
       fill-rule="evenodd"
       stroke="#fff"
       stroke-linecap="round"
       stroke-miterlimit="105.678"
       stroke-width=".916"
       d="m620.2945 215.83391l-3.1311646 0"
       id="path75" />
    <path
       fill="#000"
       fill-opacity="0"
       fill-rule="evenodd"
       d="m620.2945 211.95947l-3.1311646 0"
       id="path76" />
    <path
       fill-rule="evenodd"
       stroke="#fff"
       stroke-linecap="round"
       stroke-miterlimit="105.678"
       stroke-width=".916"
       d="m620.2945 211.95947l-3.1311646 0"
       id="path77" />
    <path
       fill="#000"
       fill-opacity="0"
       fill-rule="evenodd"
       d="m620.2945 208.08502l-3.1311646 0"
       id="path78" />
    <path
       fill-rule="evenodd"
       stroke="#fff"
       stroke-linecap="round"
       stroke-miterlimit="105.678"
       stroke-width=".916"
       d="m620.2945 208.08502l-3.1311646 0"
       id="path79" />
    <path
       fill="#000"
       fill-opacity="0"
       fill-rule="evenodd"
       d="m636.8041 215.83391l-3.189209 0"
       id="path80" />
    <path
       fill-rule="evenodd"
       stroke="#fff"
       stroke-linecap="round"
       stroke-miterlimit="105.678"
       stroke-width=".916"
       d="m636.8041 215.83391l-3.189209 0"
       id="path81" />
    <path
       fill="#000"
       fill-opacity="0"
       fill-rule="evenodd"
       d="m636.8041 211.95947l-3.189209 0"
       id="path82" />
    <path
       fill-rule="evenodd"
       stroke="#fff"
       stroke-linecap="round"
       stroke-miterlimit="105.678"
       stroke-width=".916"
       d="m636.8041 211.95947l-3.189209 0"
       id="path83" />
    <path
       fill="#000"
       fill-opacity="0"
       fill-rule="evenodd"
       d="m636.8041 208.08502l-3.189209 0"
       id="path84" />
    <path
       fill-rule="evenodd"
       stroke="#fff"
       stroke-linecap="round"
       stroke-miterlimit="105.678"
       stroke-width=".916"
       d="m636.8041 208.08502l-3.189209 0"
       id="path85" />
    <path
       fill="#fff"
       fill-rule="evenodd"
       d="m626.1269 209.07005l-0.42993164 0.054733276l-0.73773193 0.29003906l-0.5518799 0.5198822l-0.30786133 0.69499207l0 0.40496826l0 1.6198425l0 0.404953l0.30786133 0.6950073l0.5518799 0.5198822l0.73773193 0.28456116l2.5734863 0l0.73779297 -0.28456116l0.5518799 -0.5198822l0.30786133 -0.6950073l0 -0.404953l0 -1.6198425l0 -0.40496826l-0.30786133 -0.69499207l-0.5518799 -0.5198822l-0.73779297 -0.29003906l-0.4298706 -0.054733276z"
       id="path86" />
    <path
       fill="#000"
       fill-opacity="0"
       fill-rule="evenodd"
       d="m520.67456 57.409832l197.57477 0l0 42.55118l-197.57477 0z"
       id="path87" />
    <path
       fill="#000"
       fill-opacity="0"
       fill-rule="evenodd"
       d="m525.72705 455.54935l0 0c0 -22.129517 17.939514 -40.06903 40.06903 -40.06903l225.62567 0c10.627014 0 20.818726 4.2215576 28.33313 11.735962c7.5144043 7.5144043 11.735901 17.706116 11.735901 28.333069l0 160.2714c0 22.129517 -17.939514 40.06903 -40.06903 40.06903l-225.62567 0l0 0c-22.129517 0 -40.06903 -17.939514 -40.06903 -40.06903z"
       id="path89" />
    <path
       fill-rule="evenodd"
       stroke="#464646"
       stroke-linecap="butt"
       stroke-linejoin="round"
       stroke-width="2"
       d="m525.72705 455.54935l0 0c0 -22.129517 17.939514 -40.06903 40.06903 -40.06903l225.62567 0c10.627014 0 20.818726 4.2215576 28.33313 11.735962c7.5144043 7.5144043 11.735901 17.706116 11.735901 28.333069l0 160.2714c0 22.129517 -17.939514 40.06903 -40.06903 40.06903l-225.62567 0l0 0c-22.129517 0 -40.06903 -17.939514 -40.06903 -40.06903z"
       id="path90" />
    <path
       fill="#000"
       fill-opacity="0"
       fill-rule="evenodd"
       d="m552.67456 113.409836l197.57477 0l0 42.551178l-197.57477 0z"
       id="path91" />
    <path
       fill="#000"
       fill-opacity="0"
       fill-rule="evenodd"
       d="m556.5486 494.1212l0 0c0 -12.147614 9.847534 -21.995209 21.995178 -21.995209l201.36395 0c5.833496 0 11.42804 2.3173523 15.5529175 6.4422607c4.124939 4.124878 6.4422607 9.719452 6.4422607 15.552948l0 87.97812c0 12.147583 -9.847595 21.995178 -21.995178 21.995178l-201.36395 0c-12.147644 0 -21.995178 -9.847595 -21.995178 -21.995178z"
       id="path93" />
    <path
       fill-rule="evenodd"
       stroke="#464646"
       stroke-dasharray="8 6"
       stroke-linecap="butt"
       stroke-linejoin="round"
       stroke-width="2"
       d="m556.5486 494.1212l0 0c0 -12.147614 9.847534 -21.995209 21.995178 -21.995209l201.36395 0c5.833496 0 11.42804 2.3173523 15.5529175 6.4422607c4.124939 4.124878 6.4422607 9.719452 6.4422607 15.552948l0 87.97812c0 12.147583 -9.847595 21.995178 -21.995178 21.995178l-201.36395 0c-12.147644 0 -21.995178 -9.847595 -21.995178 -21.995178z"
       id="path94" />
    <path
       fill="#000"
       fill-opacity="0"
       fill-rule="evenodd"
       d="m552.67456 433.7484l197.57477 0l0 42.551178l-197.57477 0z"
       id="path95" />
    <path
       fill="#e6e6e6"
       fill-rule="evenodd"
       d="m183.24167 505.25986l-0.7661438 0.060180664l-1.3936462 0.40496826l-0.9996338 0.809906l-0.62020874 1.0397644l-0.07296753 0.5746155l0 63.617126l0.07296753 0.5800781l0.62020874 1.0397339l0.9996338 0.8099365l1.3936462 0.40496826l0.7661438 0.054748535l165.7055 0l0.7734375 -0.054748535l1.3863525 -0.40496826l1.079895 -0.8099365l0.5399475 -1.0397339l0.08026123 -0.5800781l0 -63.617126l-0.08026123 -0.5746155l-0.5399475 -1.0397644l-1.079895 -0.809906l-1.3863525 -0.40496826l-0.7734375 -0.060180664z"
       id="path97" />
    <path
       fill="#fff"
       fill-rule="evenodd"
       d="m191.1193 513.93176l148.8819 0l0 52.06299l-148.8819 0z"
       id="path98" />
    <path
       fill="#000"
       fill-rule="nonzero"
       d="m253.48227 524.8701l1.359375 0l0 4.9375l5.890625 0l0 -4.9375l1.359375 0l0 11.453125l-1.359375 0l0 -5.21875l-5.890625 0l0 5.21875l-1.359375 0l0 -11.453125zm14.367401 11.703125q-1.171875 0 -2.109375 -0.546875q-0.921875 -0.5625 -1.4375 -1.546875q-0.515625 -0.984375 -0.515625 -2.21875q0 -1.171875 0.484375 -2.171875q0.484375 -1.0 1.390625 -1.59375q0.90625 -0.59375 2.078125 -0.59375q1.203125 0 2.078125 0.546875q0.875 0.53125 1.34375 1.484375q0.484375 0.9375 0.484375 2.15625q0 0.1875 -0.03125 0.40625l-6.46875 0q0.046875 0.9375 0.4375 1.578125q0.40625 0.640625 1.015625 0.96875q0.625 0.3125 1.296875 0.3125q1.59375 0 2.421875 -1.484375l1.140625 0.5625q-0.5 0.984375 -1.421875 1.5625q-0.90625 0.578125 -2.1875 0.578125zm2.34375 -5.1875q-0.03125 -0.515625 -0.28125 -1.03125q-0.25 -0.515625 -0.796875 -0.859375q-0.546875 -0.359375 -1.375 -0.359375q-0.96875 0 -1.640625 0.625q-0.671875 0.609375 -0.875 1.625l4.96875 0zm3.0392761 -6.515625l1.359375 0l0 11.453125l-1.359375 0l0 -11.453125zm3.376007 0l1.359375 0l0 11.453125l-1.359375 0l0 -11.453125zm7.04599 11.703125q-1.203125 0 -2.171875 -0.5625q-0.953125 -0.578125 -1.484375 -1.5625q-0.53125 -1.0 -0.53125 -2.203125q0 -1.203125 0.53125 -2.1875q0.53125 -1.0 1.484375 -1.578125q0.96875 -0.578125 2.171875 -0.578125q1.203125 0 2.15625 0.578125q0.96875 0.578125 1.5 1.578125q0.53125 0.984375 0.53125 2.1875q0 1.203125 -0.53125 2.203125q-0.53125 0.984375 -1.5 1.5625q-0.953125 0.5625 -2.15625 0.5625zm0 -1.21875q0.75 0 1.390625 -0.375q0.65625 -0.390625 1.046875 -1.09375q0.390625 -0.703125 0.390625 -1.640625q0 -0.953125 -0.390625 -1.65625q-0.390625 -0.703125 -1.046875 -1.078125q-0.640625 -0.375 -1.390625 -0.375q-0.75 0 -1.40625 0.375q-0.65625 0.375 -1.046875 1.078125q-0.390625 0.703125 -0.390625 1.65625q0 0.9375 0.390625 1.640625q0.390625 0.703125 1.046875 1.09375q0.65625 0.375 1.40625 0.375zm5.0360413 -10.484375l1.515625 0l2.078125 8.40625l0.1875 0.796875l0.0625 0l0.25 -0.796875l2.546875 -8.40625l1.40625 0l2.453125 8.40625l0.25 0.796875l0.0625 0l2.25 -9.203125l1.5 0l-3.078125 11.453125l-1.40625 0l-2.4375 -8.28125l-0.265625 -0.90625l-0.0625 0l-0.265625 0.90625l-2.53125 8.28125l-1.40625 0l-3.109375 -11.453125zm18.692017 11.703125q-1.203125 0 -2.171875 -0.5625q-0.953125 -0.578125 -1.484375 -1.5625q-0.53125 -1.0 -0.53125 -2.203125q0 -1.203125 0.53125 -2.1875q0.53125 -1.0 1.484375 -1.578125q0.96875 -0.578125 2.171875 -0.578125q1.203125 0 2.15625 0.578125q0.96875 0.578125 1.5 1.578125q0.53125 0.984375 0.53125 2.1875q0 1.203125 -0.53125 2.203125q-0.53125 0.984375 -1.5 1.5625q-0.953125 0.5625 -2.15625 0.5625zm0 -1.21875q0.75 0 1.390625 -0.375q0.65625 -0.390625 1.046875 -1.09375q0.390625 -0.703125 0.390625 -1.640625q0 -0.953125 -0.390625 -1.65625q-0.390625 -0.703125 -1.046875 -1.078125q-0.640625 -0.375 -1.390625 -0.375q-0.75 0 -1.40625 0.375q-0.65625 0.375 -1.046875 1.078125q-0.390625 0.703125 -0.390625 1.65625q0 0.9375 0.390625 1.640625q0.390625 0.703125 1.046875 1.09375q0.65625 0.375 1.40625 0.375zm5.6260376 -7.1875l1.28125 0l0 1.3125l0.078125 0q0.234375 -0.671875 0.921875 -1.109375q0.6875 -0.453125 1.4375 -0.453125q0.5625 0 0.96875 0.171875l0 1.46875q-0.515625 -0.265625 -1.15625 -0.265625q-0.59375 0 -1.09375 0.34375q-0.5 0.328125 -0.796875 0.90625q-0.28125 0.5625 -0.28125 1.21875l0 4.5625l-1.359375 0l0 -8.15625zm6.080017 -3.296875l1.359375 0l0 11.453125l-1.359375 0l0 -11.453125zm6.76474 11.703125q-1.109375 0 -2.0 -0.546875q-0.890625 -0.5625 -1.40625 -1.546875q-0.5 -0.984375 -0.5 -2.234375q0 -1.234375 0.5 -2.21875q0.515625 -1.0 1.40625 -1.5625q0.890625 -0.5625 2.0 -0.5625q0.921875 0 1.65625 0.4375q0.734375 0.421875 1.125 1.046875l0.0625 0l-0.0625 -1.140625l0 -3.375l1.359375 0l0 11.453125l-1.296875 0l0 -1.203125l-0.0625 0q-0.390625 0.609375 -1.125 1.03125q-0.734375 0.421875 -1.65625 0.421875zm0.140625 -1.21875q0.71875 0 1.328125 -0.390625q0.625 -0.390625 1.0 -1.09375q0.375 -0.703125 0.375 -1.625q0 -0.9375 -0.375 -1.640625q-0.375 -0.703125 -1.0 -1.078125q-0.609375 -0.390625 -1.328125 -0.390625q-0.703125 0 -1.328125 0.390625q-0.625 0.375 -1.0 1.09375q-0.375 0.71875 -0.375 1.625q0 0.90625 0.375 1.625q0.375 0.703125 1.0 1.09375q0.625 0.390625 1.328125 0.390625z"
       id="path99" />
    <path
       fill="#000"
       fill-rule="nonzero"
       d="m232.6726 547.167l1.28125 0l0 1.3125l0.078125 0q0.234375 -0.671875 0.921875 -1.109375q0.6875 -0.453125 1.4375 -0.453125q0.5625 0 0.96875 0.171875l0 1.46875q-0.515625 -0.265625 -1.15625 -0.265625q-0.59375 0 -1.09375 0.34375q-0.5 0.328125 -0.796875 0.90625q-0.28125 0.5625 -0.28125 1.21875l0 4.5625l-1.359375 0l0 -8.15625zm9.14502 8.40625q-1.171875 0 -2.109375 -0.546875q-0.921875 -0.5625 -1.4375 -1.546875q-0.515625 -0.984375 -0.515625 -2.21875q0 -1.171875 0.484375 -2.171875q0.484375 -1.0 1.390625 -1.59375q0.90625 -0.59375 2.078125 -0.59375q1.203125 0 2.078125 0.546875q0.875 0.53125 1.34375 1.484375q0.484375 0.9375 0.484375 2.15625q0 0.1875 -0.03125 0.40625l-6.46875 0q0.046875 0.9375 0.4375 1.578125q0.40625 0.640625 1.015625 0.96875q0.625 0.3125 1.296875 0.3125q1.59375 0 2.421875 -1.484375l1.140625 0.5625q-0.5 0.984375 -1.421875 1.5625q-0.90625 0.578125 -2.1875 0.578125zm2.34375 -5.1875q-0.03125 -0.515625 -0.28125 -1.03125q-0.25 -0.515625 -0.796875 -0.859375q-0.546875 -0.359375 -1.375 -0.359375q-0.96875 0 -1.640625 0.625q-0.671875 0.609375 -0.875 1.625l4.96875 0zm6.6973877 8.65625q-1.4375 0 -2.375 -0.671875q-0.9375 -0.671875 -1.265625 -1.625l1.25 -0.53125q0.265625 0.703125 0.890625 1.140625q0.640625 0.453125 1.5 0.453125q1.265625 0 1.953125 -0.734375q0.703125 -0.734375 0.703125 -2.09375l0 -0.90625l-0.0625 0q-0.40625 0.625 -1.140625 1.015625q-0.71875 0.390625 -1.640625 0.390625q-1.0625 0 -1.9375 -0.53125q-0.875 -0.546875 -1.390625 -1.515625q-0.5 -0.984375 -0.5 -2.234375q0 -1.234375 0.5 -2.21875q0.515625 -0.984375 1.390625 -1.53125q0.875 -0.546875 1.9375 -0.546875q0.921875 0 1.640625 0.40625q0.734375 0.390625 1.140625 1.03125l0.0625 0l0 -1.171875l1.296875 0l0 7.84375q0 1.953125 -1.09375 2.984375q-1.078125 1.046875 -2.859375 1.046875zm0 -4.796875q0.734375 0 1.328125 -0.359375q0.609375 -0.375 0.96875 -1.0625q0.359375 -0.6875 0.359375 -1.625q0 -0.96875 -0.359375 -1.65625q-0.359375 -0.6875 -0.96875 -1.046875q-0.59375 -0.359375 -1.328125 -0.359375q-0.734375 0 -1.34375 0.375q-0.609375 0.359375 -0.96875 1.046875q-0.359375 0.6875 -0.359375 1.640625q0 0.9375 0.359375 1.640625q0.359375 0.6875 0.96875 1.046875q0.609375 0.359375 1.34375 0.359375zm6.7707825 -8.578125q-0.40625 0 -0.703125 -0.28125q-0.28125 -0.296875 -0.28125 -0.703125q0 -0.421875 0.28125 -0.6875q0.296875 -0.28125 0.703125 -0.28125q0.40625 0 0.6875 0.28125q0.28125 0.265625 0.28125 0.6875q0 0.40625 -0.28125 0.703125q-0.28125 0.28125 -0.6875 0.28125zm-0.671875 1.5l1.359375 0l0 8.15625l-1.359375 0l0 -8.15625zm7.1610107 8.40625q-1.203125 0 -2.171875 -0.5625q-0.953125 -0.578125 -1.484375 -1.5625q-0.53125 -1.0 -0.53125 -2.203125q0 -1.203125 0.53125 -2.1875q0.53125 -1.0 1.484375 -1.578125q0.96875 -0.578125 2.171875 -0.578125q1.203125 0 2.15625 0.578125q0.96875 0.578125 1.5 1.578125q0.53125 0.984375 0.53125 2.1875q0 1.203125 -0.53125 2.203125q-0.53125 0.984375 -1.5 1.5625q-0.953125 0.5625 -2.15625 0.5625zm0 -1.21875q0.75 0 1.390625 -0.375q0.65625 -0.390625 1.046875 -1.09375q0.390625 -0.703125 0.390625 -1.640625q0 -0.953125 -0.390625 -1.65625q-0.390625 -0.703125 -1.046875 -1.078125q-0.640625 -0.375 -1.390625 -0.375q-0.75 0 -1.40625 0.375q-0.65625 0.375 -1.046875 1.078125q-0.390625 0.703125 -0.390625 1.65625q0 0.9375 0.390625 1.640625q0.390625 0.703125 1.046875 1.09375q0.65625 0.375 1.40625 0.375zm5.626007 -7.1875l1.28125 0l0 1.203125l0.078125 0q0.328125 -0.609375 1.0625 -1.03125q0.734375 -0.4375 1.578125 -0.4375q1.46875 0 2.234375 0.859375q0.78125 0.859375 0.78125 2.328125l0 5.234375l-1.359375 0l0 -5.03125q0 -1.125 -0.546875 -1.640625q-0.546875 -0.515625 -1.484375 -0.515625q-0.65625 0 -1.1875 0.375q-0.515625 0.359375 -0.796875 0.96875q-0.28125 0.59375 -0.28125 1.25l0 4.59375l-1.359375 0l0 -8.15625zm11.304138 -0.890625l-1.921875 1.390625l-0.703125 -1.046875l3.125 -2.234375l0.859375 0l0 10.9375l-1.359375 0l0 -9.046875zm4.642517 9.140625q-0.4375 0 -0.734375 -0.296875q-0.296875 -0.296875 -0.296875 -0.71875q0 -0.421875 0.296875 -0.71875q0.296875 -0.296875 0.734375 -0.296875q0.4375 0 0.71875 0.296875q0.296875 0.296875 0.296875 0.71875q0 0.421875 -0.296875 0.71875q-0.28125 0.296875 -0.71875 0.296875zm2.495514 -1.265625l4.8125 -5.75l-4.671875 0l0 -1.234375l6.34375 0l0 1.171875l-4.828125 5.75l4.953125 0l0 1.234375l-6.609375 0l0 -1.171875zm11.803894 1.421875q-1.203125 0 -2.171875 -0.5625q-0.953125 -0.578125 -1.484375 -1.5625q-0.53125 -1.0 -0.53125 -2.203125q0 -1.203125 0.53125 -2.1875q0.53125 -1.0 1.484375 -1.578125q0.96875 -0.578125 2.171875 -0.578125q1.203125 0 2.15625 0.578125q0.96875 0.578125 1.5 1.578125q0.53125 0.984375 0.53125 2.1875q0 1.203125 -0.53125 2.203125q-0.53125 0.984375 -1.5 1.5625q-0.953125 0.5625 -2.15625 0.5625zm0 -1.21875q0.75 0 1.390625 -0.375q0.65625 -0.390625 1.046875 -1.09375q0.390625 -0.703125 0.390625 -1.640625q0 -0.953125 -0.390625 -1.65625q-0.390625 -0.703125 -1.046875 -1.078125q-0.640625 -0.375 -1.390625 -0.375q-0.75 0 -1.40625 0.375q-0.65625 0.375 -1.046875 1.078125q-0.390625 0.703125 -0.390625 1.65625q0 0.9375 0.390625 1.640625q0.390625 0.703125 1.046875 1.09375q0.65625 0.375 1.40625 0.375zm5.6260376 -7.1875l1.28125 0l0 1.203125l0.078125 0q0.328125 -0.609375 1.0625 -1.03125q0.734375 -0.4375 1.578125 -0.4375q1.46875 0 2.234375 0.859375q0.78125 0.859375 0.78125 2.328125l0 5.234375l-1.359375 0l0 -5.03125q0 -1.125 -0.546875 -1.640625q-0.546875 -0.515625 -1.484375 -0.515625q-0.65625 0 -1.1875 0.375q-0.515625 0.359375 -0.796875 0.96875q-0.28125 0.59375 -0.28125 1.25l0 4.59375l-1.359375 0l0 -8.15625zm12.601013 8.40625q-1.171875 0 -2.109375 -0.546875q-0.921875 -0.5625 -1.4375 -1.546875q-0.515625 -0.984375 -0.515625 -2.21875q0 -1.171875 0.484375 -2.171875q0.484375 -1.0 1.390625 -1.59375q0.90625 -0.59375 2.078125 -0.59375q1.203125 0 2.078125 0.546875q0.875 0.53125 1.34375 1.484375q0.484375 0.9375 0.484375 2.15625q0 0.1875 -0.03125 0.40625l-6.46875 0q0.046875 0.9375 0.4375 1.578125q0.40625 0.640625 1.015625 0.96875q0.625 0.3125 1.296875 0.3125q1.59375 0 2.421875 -1.484375l1.140625 0.5625q-0.5 0.984375 -1.421875 1.5625q-0.90625 0.578125 -2.1875 0.578125zm2.34375 -5.1875q-0.03125 -0.515625 -0.28125 -1.03125q-0.25 -0.515625 -0.796875 -0.859375q-0.546875 -0.359375 -1.375 -0.359375q-0.96875 0 -1.640625 0.625q-0.671875 0.609375 -0.875 1.625l4.96875 0zm2.7423706 3.578125q3.140625 -3.15625 4.015625 -4.109375q0.8125 -0.890625 1.09375 -1.375q0.296875 -0.5 0.296875 -1.203125q0 -0.46875 -0.25 -0.890625q-0.234375 -0.4375 -0.703125 -0.703125q-0.46875 -0.265625 -1.125 -0.265625q-0.859375 0 -1.390625 0.515625q-0.53125 0.5 -0.6875 1.09375l-1.234375 -0.5q0.140625 -0.515625 0.5625 -1.0625q0.421875 -0.5625 1.125 -0.953125q0.703125 -0.390625 1.65625 -0.390625q1.015625 0 1.78125 0.4375q0.78125 0.421875 1.203125 1.15625q0.4375 0.71875 0.4375 1.546875q0 1.671875 -1.75 3.46875l-3.28125 3.296875l5.15625 0l0 1.296875l-6.90625 0l0 -1.359375z"
       id="path100" />
    <path
       fill="#767576"
       fill-rule="evenodd"
       d="m210.9867 522.61206l-1.9054108 0.0546875l-3.624939 0.6950073l-3.2531433 1.329834l-2.9452515 1.8496704l-2.5153809 2.3695679l-1.963501 2.7799683l-1.4116364 3.0645752l-0.73776245 3.4093628l-0.06390381 1.7949219l0.06390381 1.7949829l0.73776245 3.349121l1.4116364 3.1247559l1.963501 2.7745361l2.5153809 2.375061l2.9452515 1.8496704l3.2531433 1.329834l3.624939 0.6949463l1.9054108 0.054748535l1.8996124 -0.054748535l3.56102 -0.6949463l3.317047 -1.329834l2.9452667 -1.8496704l2.5153656 -2.375061l1.9635162 -2.7745361l1.4116211 -3.1247559l0.7377777 -3.349121l0.06388855 -1.7949829l-0.06388855 -1.7949219l-0.7377777 -3.4093628l-1.4116211 -3.0645752l-1.9635162 -2.7799683l-2.5153656 -2.3695679l-2.9452667 -1.8496704l-3.317047 -1.329834l-3.56102 -0.6950073l-1.8996124 -0.0546875z"
       id="path101" />
    <path
       fill="#000"
       fill-opacity="0"
       fill-rule="evenodd"
       d="m217.49294 545.97375l-13.076492 0l0 -12.318481l13.076492 0l0 12.318481z"
       id="path102" />
    <path
       fill-rule="evenodd"
       stroke="#fff"
       stroke-linecap="butt"
       stroke-linejoin="round"
       stroke-width=".916"
       d="m217.49294 545.97375l-13.076492 0l0 -12.318481l13.076492 0l0 12.318481z"
       id="path103" />
    <path
       fill="#000"
       fill-opacity="0"
       fill-rule="evenodd"
       d="m206.86792 533.65533l0 -2.949646"
       id="path104" />
    <path
       fill-rule="evenodd"
       stroke="#fff"
       stroke-linecap="round"
       stroke-miterlimit="105.678"
       stroke-width=".916"
       d="m206.86792 533.65533l0 -2.949646"
       id="path105" />
    <path
       fill="#000"
       fill-opacity="0"
       fill-rule="evenodd"
       d="m210.9866 533.65533l0 -2.949646"
       id="path106" />
    <path
       fill-rule="evenodd"
       stroke="#fff"
       stroke-linecap="round"
       stroke-miterlimit="105.678"
       stroke-width=".916"
       d="m210.9866 533.65533l0 -2.949646"
       id="path107" />
    <path
       fill="#000"
       fill-opacity="0"
       fill-rule="evenodd"
       d="m215.09949 533.65533l0 -2.949646"
       id="path108" />
    <path
       fill-rule="evenodd"
       stroke="#fff"
       stroke-linecap="round"
       stroke-miterlimit="105.678"
       stroke-width=".916"
       d="m215.09949 533.65533l0 -2.949646"
       id="path109" />
    <path
       fill="#000"
       fill-opacity="0"
       fill-rule="evenodd"
       d="m206.86792 549.2133l0 -3.0098877"
       id="path110" />
    <path
       fill-rule="evenodd"
       stroke="#fff"
       stroke-linecap="round"
       stroke-miterlimit="105.678"
       stroke-width=".916"
       d="m206.86792 549.2133l0 -3.0098877"
       id="path111" />
    <path
       fill="#000"
       fill-opacity="0"
       fill-rule="evenodd"
       d="m210.9866 549.2133l0 -3.0098877"
       id="path112" />
    <path
       fill-rule="evenodd"
       stroke="#fff"
       stroke-linecap="round"
       stroke-miterlimit="105.678"
       stroke-width=".916"
       d="m210.9866 549.2133l0 -3.0098877"
       id="path113" />
    <path
       fill="#000"
       fill-opacity="0"
       fill-rule="evenodd"
       d="m215.09949 549.2133l0 -3.0098877"
       id="path114" />
    <path
       fill-rule="evenodd"
       stroke="#fff"
       stroke-linecap="round"
       stroke-miterlimit="105.678"
       stroke-width=".916"
       d="m215.09949 549.2133l0 -3.0098877"
       id="path115" />
    <path
       fill="#000"
       fill-opacity="0"
       fill-rule="evenodd"
       d="m204.29448 543.8339l-3.1311646 0"
       id="path116" />
    <path
       fill-rule="evenodd"
       stroke="#fff"
       stroke-linecap="round"
       stroke-miterlimit="105.678"
       stroke-width=".916"
       d="m204.29448 543.8339l-3.1311646 0"
       id="path117" />
    <path
       fill="#000"
       fill-opacity="0"
       fill-rule="evenodd"
       d="m204.29448 539.9595l-3.1311646 0"
       id="path118" />
    <path
       fill-rule="evenodd"
       stroke="#fff"
       stroke-linecap="round"
       stroke-miterlimit="105.678"
       stroke-width=".916"
       d="m204.29448 539.9595l-3.1311646 0"
       id="path119" />
    <path
       fill="#000"
       fill-opacity="0"
       fill-rule="evenodd"
       d="m204.29448 536.085l-3.1311646 0"
       id="path120" />
    <path
       fill-rule="evenodd"
       stroke="#fff"
       stroke-linecap="round"
       stroke-miterlimit="105.678"
       stroke-width=".916"
       d="m204.29448 536.085l-3.1311646 0"
       id="path121" />
    <path
       fill="#000"
       fill-opacity="0"
       fill-rule="evenodd"
       d="m220.80411 543.8339l-3.1892548 0"
       id="path122" />
    <path
       fill-rule="evenodd"
       stroke="#fff"
       stroke-linecap="round"
       stroke-miterlimit="105.678"
       stroke-width=".916"
       d="m220.80411 543.8339l-3.1892548 0"
       id="path123" />
    <path
       fill="#000"
       fill-opacity="0"
       fill-rule="evenodd"
       d="m220.80411 539.9595l-3.1892548 0"
       id="path124" />
    <path
       fill-rule="evenodd"
       stroke="#fff"
       stroke-linecap="round"
       stroke-miterlimit="105.678"
       stroke-width=".916"
       d="m220.80411 539.9595l-3.1892548 0"
       id="path125" />
    <path
       fill="#000"
       fill-opacity="0"
       fill-rule="evenodd"
       d="m220.80411 536.085l-3.1892548 0"
       id="path126" />
    <path
       fill-rule="evenodd"
       stroke="#fff"
       stroke-linecap="round"
       stroke-miterlimit="105.678"
       stroke-width=".916"
       d="m220.80411 536.085l-3.1892548 0"
       id="path127" />
    <path
       fill="#fff"
       fill-rule="evenodd"
       d="m210.12686 537.07007l-0.42988586 0.0546875l-0.73776245 0.29003906l-0.5518646 0.51989746l-0.30789185 0.6950073l0 0.40496826l0 1.619812l0 0.40496826l0.30789185 0.6950073l0.5518646 0.51989746l0.73776245 0.2845459l2.573471 0l0.7377777 -0.2845459l0.5518646 -0.51989746l0.30789185 -0.6950073l0 -0.40496826l0 -1.619812l0 -0.40496826l-0.30789185 -0.6950073l-0.5518646 -0.51989746l-0.7377777 -0.29003906l-0.4298706 -0.0546875z"
       id="path128" />
    <path
       fill="#e6e6e6"
       fill-rule="evenodd"
       d="m596.3729 504.66928l-0.7661743 0.06021118l-1.3936157 0.40496826l-0.9996338 0.809906l-0.62023926 1.0397644l-0.07293701 0.5746155l0 63.617096l0.07293701 0.5800781l0.62023926 1.0397949l0.9996338 0.8099365l1.3936157 0.40496826l0.7661743 0.0546875l165.7055 0l0.7734375 -0.0546875l1.3863525 -0.40496826l1.079895 -0.8099365l0.539917 -1.0397949l0.08026123 -0.5800781l0 -63.617096l-0.08026123 -0.5746155l-0.539917 -1.0397644l-1.079895 -0.809906l-1.3863525 -0.40496826l-0.7734375 -0.06021118z"
       id="path129" />
    <path
       fill="#fff"
       fill-rule="evenodd"
       d="m604.25055 513.3412l148.8819 0l0 52.06299l-148.8819 0z"
       id="path130" />
    <path
       fill="#000"
       fill-rule="nonzero"
       d="m666.6135 524.2796l1.359375 0l0 4.9375l5.890625 0l0 -4.9375l1.359375 0l0 11.453125l-1.359375 0l0 -5.21875l-5.890625 0l0 5.21875l-1.359375 0l0 -11.453125zm14.367371 11.703125q-1.171875 0 -2.109375 -0.546875q-0.921875 -0.5625 -1.4375 -1.546875q-0.515625 -0.984375 -0.515625 -2.21875q0 -1.171875 0.484375 -2.171875q0.484375 -1.0 1.390625 -1.59375q0.90625 -0.59375 2.078125 -0.59375q1.203125 0 2.078125 0.546875q0.875 0.53125 1.34375 1.484375q0.484375 0.9375 0.484375 2.15625q0 0.1875 -0.03125 0.40625l-6.46875 0q0.046875 0.9375 0.4375 1.578125q0.40625 0.640625 1.015625 0.96875q0.625 0.3125 1.296875 0.3125q1.59375 0 2.421875 -1.484375l1.140625 0.5625q-0.5 0.984375 -1.421875 1.5625q-0.90625 0.578125 -2.1875 0.578125zm2.34375 -5.1875q-0.03125 -0.515625 -0.28125 -1.03125q-0.25 -0.515625 -0.796875 -0.859375q-0.546875 -0.359375 -1.375 -0.359375q-0.96875 0 -1.640625 0.625q-0.671875 0.609375 -0.875 1.625l4.96875 0zm3.0392456 -6.515625l1.359375 0l0 11.453125l-1.359375 0l0 -11.453125zm3.3760376 0l1.359375 0l0 11.453125l-1.359375 0l0 -11.453125zm7.0460205 11.703125q-1.203125 0 -2.171875 -0.5625q-0.953125 -0.578125 -1.484375 -1.5625q-0.53125 -1.0 -0.53125 -2.203125q0 -1.203125 0.53125 -2.1875q0.53125 -1.0 1.484375 -1.578125q0.96875 -0.578125 2.171875 -0.578125q1.203125 0 2.15625 0.578125q0.96875 0.578125 1.5 1.578125q0.53125 0.984375 0.53125 2.1875q0 1.203125 -0.53125 2.203125q-0.53125 0.984375 -1.5 1.5625q-0.953125 0.5625 -2.15625 0.5625zm0 -1.21875q0.75 0 1.390625 -0.375q0.65625 -0.390625 1.046875 -1.09375q0.390625 -0.703125 0.390625 -1.640625q0 -0.953125 -0.390625 -1.65625q-0.390625 -0.703125 -1.046875 -1.078125q-0.640625 -0.375 -1.390625 -0.375q-0.75 0 -1.40625 0.375q-0.65625 0.375 -1.046875 1.078125q-0.390625 0.703125 -0.390625 1.65625q0 0.9375 0.390625 1.640625q0.390625 0.703125 1.046875 1.09375q0.65625 0.375 1.40625 0.375zm5.0360107 -10.484375l1.515625 0l2.078125 8.40625l0.1875 0.796875l0.0625 0l0.25 -0.796875l2.546875 -8.40625l1.40625 0l2.453125 8.40625l0.25 0.796875l0.0625 0l2.25 -9.203125l1.5 0l-3.078125 11.453125l-1.40625 0l-2.4375 -8.28125l-0.265625 -0.90625l-0.0625 0l-0.265625 0.90625l-2.53125 8.28125l-1.40625 0l-3.109375 -11.453125zm18.692017 11.703125q-1.203125 0 -2.171875 -0.5625q-0.953125 -0.578125 -1.484375 -1.5625q-0.53125 -1.0 -0.53125 -2.203125q0 -1.203125 0.53125 -2.1875q0.53125 -1.0 1.484375 -1.578125q0.96875 -0.578125 2.171875 -0.578125q1.203125 0 2.15625 0.578125q0.96875 0.578125 1.5 1.578125q0.53125 0.984375 0.53125 2.1875q0 1.203125 -0.53125 2.203125q-0.53125 0.984375 -1.5 1.5625q-0.953125 0.5625 -2.15625 0.5625zm0 -1.21875q0.75 0 1.390625 -0.375q0.65625 -0.390625 1.046875 -1.09375q0.390625 -0.703125 0.390625 -1.640625q0 -0.953125 -0.390625 -1.65625q-0.390625 -0.703125 -1.046875 -1.078125q-0.640625 -0.375 -1.390625 -0.375q-0.75 0 -1.40625 0.375q-0.65625 0.375 -1.046875 1.078125q-0.390625 0.703125 -0.390625 1.65625q0 0.9375 0.390625 1.640625q0.390625 0.703125 1.046875 1.09375q0.65625 0.375 1.40625 0.375zm5.6260376 -7.1875l1.28125 0l0 1.3125l0.078125 0q0.234375 -0.671875 0.921875 -1.109375q0.6875 -0.453125 1.4375 -0.453125q0.5625 0 0.96875 0.171875l0 1.46875q-0.515625 -0.265625 -1.15625 -0.265625q-0.59375 0 -1.09375 0.34375q-0.5 0.328125 -0.796875 0.90625q-0.28125 0.5625 -0.28125 1.21875l0 4.5625l-1.359375 0l0 -8.15625zm6.080017 -3.296875l1.359375 0l0 11.453125l-1.359375 0l0 -11.453125zm6.7647705 11.703125q-1.109375 0 -2.0 -0.546875q-0.890625 -0.5625 -1.40625 -1.546875q-0.5 -0.984375 -0.5 -2.234375q0 -1.234375 0.5 -2.21875q0.515625 -1.0 1.40625 -1.5625q0.890625 -0.5625 2.0 -0.5625q0.921875 0 1.65625 0.4375q0.734375 0.421875 1.125 1.046875l0.0625 0l-0.0625 -1.140625l0 -3.375l1.359375 0l0 11.453125l-1.296875 0l0 -1.203125l-0.0625 0q-0.390625 0.609375 -1.125 1.03125q-0.734375 0.421875 -1.65625 0.421875zm0.140625 -1.21875q0.71875 0 1.328125 -0.390625q0.625 -0.390625 1.0 -1.09375q0.375 -0.703125 0.375 -1.625q0 -0.9375 -0.375 -1.640625q-0.375 -0.703125 -1.0 -1.078125q-0.609375 -0.390625 -1.328125 -0.390625q-0.703125 0 -1.328125 0.390625q-0.625 0.375 -1.0 1.09375q-0.375 0.71875 -0.375 1.625q0 0.90625 0.375 1.625q0.375 0.703125 1.0 1.09375q0.625 0.390625 1.328125 0.390625z"
       id="path131" />
    <path
       fill="#000"
       fill-rule="nonzero"
       d="m642.41187 546.5765l1.28125 0l0 1.3125l0.078125 0q0.234375 -0.671875 0.921875 -1.109375q0.6875 -0.453125 1.4375 -0.453125q0.5625 0 0.96875 0.171875l0 1.46875q-0.515625 -0.265625 -1.15625 -0.265625q-0.59375 0 -1.09375 0.34375q-0.5 0.328125 -0.796875 0.90625q-0.28125 0.5625 -0.28125 1.21875l0 4.5625l-1.359375 0l0 -8.15625zm9.14502 8.40625q-1.171875 0 -2.109375 -0.546875q-0.921875 -0.5625 -1.4375 -1.546875q-0.515625 -0.984375 -0.515625 -2.21875q0 -1.171875 0.484375 -2.171875q0.484375 -1.0 1.390625 -1.59375q0.90625 -0.59375 2.078125 -0.59375q1.203125 0 2.078125 0.546875q0.875 0.53125 1.34375 1.484375q0.484375 0.9375 0.484375 2.15625q0 0.1875 -0.03125 0.40625l-6.46875 0q0.046875 0.9375 0.4375 1.578125q0.40625 0.640625 1.015625 0.96875q0.625 0.3125 1.296875 0.3125q1.59375 0 2.421875 -1.484375l1.140625 0.5625q-0.5 0.984375 -1.421875 1.5625q-0.90625 0.578125 -2.1875 0.578125zm2.34375 -5.1875q-0.03125 -0.515625 -0.28125 -1.03125q-0.25 -0.515625 -0.796875 -0.859375q-0.546875 -0.359375 -1.375 -0.359375q-0.96875 0 -1.640625 0.625q-0.671875 0.609375 -0.875 1.625l4.96875 0zm6.6973877 8.65625q-1.4375 0 -2.375 -0.671875q-0.9375 -0.671875 -1.265625 -1.625l1.25 -0.53125q0.265625 0.703125 0.890625 1.140625q0.640625 0.453125 1.5 0.453125q1.265625 0 1.953125 -0.734375q0.703125 -0.734375 0.703125 -2.09375l0 -0.90625l-0.0625 0q-0.40625 0.625 -1.140625 1.015625q-0.71875 0.390625 -1.640625 0.390625q-1.0625 0 -1.9375 -0.53125q-0.875 -0.546875 -1.390625 -1.515625q-0.5 -0.984375 -0.5 -2.234375q0 -1.234375 0.5 -2.21875q0.515625 -0.984375 1.390625 -1.53125q0.875 -0.546875 1.9375 -0.546875q0.921875 0 1.640625 0.40625q0.734375 0.390625 1.140625 1.03125l0.0625 0l0 -1.171875l1.296875 0l0 7.84375q0 1.953125 -1.09375 2.984375q-1.078125 1.046875 -2.859375 1.046875zm0 -4.796875q0.734375 0 1.328125 -0.359375q0.609375 -0.375 0.96875 -1.0625q0.359375 -0.6875 0.359375 -1.625q0 -0.96875 -0.359375 -1.65625q-0.359375 -0.6875 -0.96875 -1.046875q-0.59375 -0.359375 -1.328125 -0.359375q-0.734375 0 -1.34375 0.375q-0.609375 0.359375 -0.96875 1.046875q-0.359375 0.6875 -0.359375 1.640625q0 0.9375 0.359375 1.640625q0.359375 0.6875 0.96875 1.046875q0.609375 0.359375 1.34375 0.359375zm6.770752 -8.578125q-0.40625 0 -0.703125 -0.28125q-0.28125 -0.296875 -0.28125 -0.703125q0 -0.421875 0.28125 -0.6875q0.296875 -0.28125 0.703125 -0.28125q0.40625 0 0.6875 0.28125q0.28125 0.265625 0.28125 0.6875q0 0.40625 -0.28125 0.703125q-0.28125 0.28125 -0.6875 0.28125zm-0.671875 1.5l1.359375 0l0 8.15625l-1.359375 0l0 -8.15625zm7.1610107 8.40625q-1.203125 0 -2.171875 -0.5625q-0.953125 -0.578125 -1.484375 -1.5625q-0.53125 -1.0 -0.53125 -2.203125q0 -1.203125 0.53125 -2.1875q0.53125 -1.0 1.484375 -1.578125q0.96875 -0.578125 2.171875 -0.578125q1.203125 0 2.15625 0.578125q0.96875 0.578125 1.5 1.578125q0.53125 0.984375 0.53125 2.1875q0 1.203125 -0.53125 2.203125q-0.53125 0.984375 -1.5 1.5625q-0.953125 0.5625 -2.15625 0.5625zm0 -1.21875q0.75 0 1.390625 -0.375q0.65625 -0.390625 1.046875 -1.09375q0.390625 -0.703125 0.390625 -1.640625q0 -0.953125 -0.390625 -1.65625q-0.390625 -0.703125 -1.046875 -1.078125q-0.640625 -0.375 -1.390625 -0.375q-0.75 0 -1.40625 0.375q-0.65625 0.375 -1.046875 1.078125q-0.390625 0.703125 -0.390625 1.65625q0 0.9375 0.390625 1.640625q0.390625 0.703125 1.046875 1.09375q0.65625 0.375 1.40625 0.375zm5.6260376 -7.1875l1.28125 0l0 1.203125l0.078125 0q0.328125 -0.609375 1.0625 -1.03125q0.734375 -0.4375 1.578125 -0.4375q1.46875 0 2.234375 0.859375q0.78125 0.859375 0.78125 2.328125l0 5.234375l-1.359375 0l0 -5.03125q0 -1.125 -0.546875 -1.640625q-0.546875 -0.515625 -1.484375 -0.515625q-0.65625 0 -1.1875 0.375q-0.515625 0.359375 -0.796875 0.96875q-0.28125 0.59375 -0.28125 1.25l0 4.59375l-1.359375 0l0 -8.15625zm12.132263 8.40625q-0.6875 0 -1.40625 -0.28125q-0.71875 -0.28125 -1.3125 -0.890625q-0.578125 -0.625 -0.828125 -1.5625l1.234375 -0.5q0.25 0.921875 0.859375 1.4375q0.625 0.5 1.453125 0.5q0.609375 0 1.140625 -0.25q0.53125 -0.265625 0.84375 -0.734375q0.3125 -0.484375 0.3125 -1.0625q0 -0.546875 -0.3125 -1.015625q-0.3125 -0.46875 -0.859375 -0.734375q-0.53125 -0.265625 -1.171875 -0.265625l-0.9375 0l0 -1.265625l0.84375 0q0.875 0 1.46875 -0.5q0.59375 -0.5 0.59375 -1.328125q0 -0.765625 -0.578125 -1.234375q-0.578125 -0.46875 -1.421875 -0.46875q-0.828125 0 -1.3125 0.4375q-0.46875 0.421875 -0.671875 1.046875l-1.25 -0.515625q0.296875 -0.875 1.109375 -1.5625q0.828125 -0.703125 2.125 -0.703125q0.96875 0 1.734375 0.390625q0.765625 0.375 1.203125 1.0625q0.4375 0.6875 0.4375 1.546875q0 0.84375 -0.4375 1.4375q-0.421875 0.59375 -1.0625 0.921875l0 0.0625q0.8125 0.34375 1.34375 1.046875q0.53125 0.6875 0.53125 1.625q0 0.96875 -0.5 1.734375q-0.484375 0.765625 -1.328125 1.203125q-0.828125 0.421875 -1.84375 0.421875zm6.1343384 -0.15625q-0.4375 0 -0.734375 -0.296875q-0.296875 -0.296875 -0.296875 -0.71875q0 -0.421875 0.296875 -0.71875q0.296875 -0.296875 0.734375 -0.296875q0.4375 0 0.71875 0.296875q0.296875 0.296875 0.296875 0.71875q0 0.421875 -0.296875 0.71875q-0.28125 0.296875 -0.71875 0.296875zm2.4955444 -1.265625l4.8125 -5.75l-4.671875 0l0 -1.234375l6.34375 0l0 1.171875l-4.828125 5.75l4.953125 0l0 1.234375l-6.609375 0l0 -1.171875zm11.803894 1.421875q-1.203125 0 -2.171875 -0.5625q-0.953125 -0.578125 -1.484375 -1.5625q-0.53125 -1.0 -0.53125 -2.203125q0 -1.203125 0.53125 -2.1875q0.53125 -1.0 1.484375 -1.578125q0.96875 -0.578125 2.171875 -0.578125q1.203125 0 2.15625 0.578125q0.96875 0.578125 1.5 1.578125q0.53125 0.984375 0.53125 2.1875q0 1.203125 -0.53125 2.203125q-0.53125 0.984375 -1.5 1.5625q-0.953125 0.5625 -2.15625 0.5625zm0 -1.21875q0.75 0 1.390625 -0.375q0.65625 -0.390625 1.046875 -1.09375q0.390625 -0.703125 0.390625 -1.640625q0 -0.953125 -0.390625 -1.65625q-0.390625 -0.703125 -1.046875 -1.078125q-0.640625 -0.375 -1.390625 -0.375q-0.75 0 -1.40625 0.375q-0.65625 0.375 -1.046875 1.078125q-0.390625 0.703125 -0.390625 1.65625q0 0.9375 0.390625 1.640625q0.390625 0.703125 1.046875 1.09375q0.65625 0.375 1.40625 0.375zm5.6260376 -7.1875l1.28125 0l0 1.203125l0.078125 0q0.328125 -0.609375 1.0625 -1.03125q0.734375 -0.4375 1.578125 -0.4375q1.46875 0 2.234375 0.859375q0.78125 0.859375 0.78125 2.328125l0 5.234375l-1.359375 0l0 -5.03125q0 -1.125 -0.546875 -1.640625q-0.546875 -0.515625 -1.484375 -0.515625q-0.65625 0 -1.1875 0.375q-0.515625 0.359375 -0.796875 0.96875q-0.28125 0.59375 -0.28125 1.25l0 4.59375l-1.359375 0l0 -8.15625zm12.601013 8.40625q-1.171875 0 -2.109375 -0.546875q-0.921875 -0.5625 -1.4375 -1.546875q-0.515625 -0.984375 -0.515625 -2.21875q0 -1.171875 0.484375 -2.171875q0.484375 -1.0 1.390625 -1.59375q0.90625 -0.59375 2.078125 -0.59375q1.203125 0 2.078125 0.546875q0.875 0.53125 1.34375 1.484375q0.484375 0.9375 0.484375 2.15625q0 0.1875 -0.03125 0.40625l-6.46875 0q0.046875 0.9375 0.4375 1.578125q0.40625 0.640625 1.015625 0.96875q0.625 0.3125 1.296875 0.3125q1.59375 0 2.421875 -1.484375l1.140625 0.5625q-0.5 0.984375 -1.421875 1.5625q-0.90625 0.578125 -2.1875 0.578125zm2.34375 -5.1875q-0.03125 -0.515625 -0.28125 -1.03125q-0.25 -0.515625 -0.796875 -0.859375q-0.546875 -0.359375 -1.375 -0.359375q-0.96875 0 -1.640625 0.625q-0.671875 0.609375 -0.875 1.625l4.96875 0zm7.9923706 2.578125l-5.25 0l0 -1.015625l5.125 -7.5625l1.46875 0l0 7.3125l1.40625 0l0 1.265625l-1.40625 0l0 2.359375l-1.34375 0l0 -2.359375zm0 -1.265625l0 -5.328125l-0.0625 0l-3.640625 5.328125l3.703125 0z"
       id="path132" />
    <path
       fill="#767576"
       fill-rule="evenodd"
       d="m624.1179 522.0215l-1.9053955 0.054748535l-3.624939 0.6950073l-3.2531738 1.329773l-2.9452515 1.8496704l-2.5153809 2.3695679l-1.963501 2.7800293l-1.4116211 3.0645752l-0.73773193 3.4093018l-0.06390381 1.7949829l0.06390381 1.7949219l0.73773193 3.3491821l1.4116211 3.1247559l1.963501 2.7745361l2.5153809 2.375l2.9452515 1.8497314l3.2531738 1.329773l3.624939 0.6950073l1.9053955 0.054748535l1.8995972 -0.054748535l3.5610352 -0.6950073l3.3170776 -1.329773l2.9452515 -1.8497314l2.5153809 -2.375l1.963501 -2.7745361l1.4116211 -3.1247559l0.73779297 -3.3491821l0.06384277 -1.7949219l-0.06384277 -1.7949829l-0.73779297 -3.4093018l-1.4116211 -3.0645752l-1.963501 -2.7800293l-2.5153809 -2.3695679l-2.9452515 -1.8496704l-3.3170776 -1.329773l-3.5610352 -0.6950073l-1.8995972 -0.054748535z"
       id="path133" />
    <path
       fill="#000"
       fill-opacity="0"
       fill-rule="evenodd"
       d="m630.62415 545.3832l-13.076477 0l0 -12.31842l13.076477 0l0 12.31842z"
       id="path134" />
    <path
       fill-rule="evenodd"
       stroke="#fff"
       stroke-linecap="butt"
       stroke-linejoin="round"
       stroke-width=".916"
       d="m630.62415 545.3832l-13.076477 0l0 -12.31842l13.076477 0l0 12.31842z"
       id="path135" />
    <path
       fill="#000"
       fill-opacity="0"
       fill-rule="evenodd"
       d="m619.99915 533.06476l0 -2.949646"
       id="path136" />
    <path
       fill-rule="evenodd"
       stroke="#fff"
       stroke-linecap="round"
       stroke-miterlimit="105.678"
       stroke-width=".916"
       d="m619.99915 533.06476l0 -2.949646"
       id="path137" />
    <path
       fill="#000"
       fill-opacity="0"
       fill-rule="evenodd"
       d="m624.11786 533.06476l0 -2.949646"
       id="path138" />
    <path
       fill-rule="evenodd"
       stroke="#fff"
       stroke-linecap="round"
       stroke-miterlimit="105.678"
       stroke-width=".916"
       d="m624.11786 533.06476l0 -2.949646"
       id="path139" />
    <path
       fill="#000"
       fill-opacity="0"
       fill-rule="evenodd"
       d="m628.2307 533.06476l0 -2.949646"
       id="path140" />
    <path
       fill-rule="evenodd"
       stroke="#fff"
       stroke-linecap="round"
       stroke-miterlimit="105.678"
       stroke-width=".916"
       d="m628.2307 533.06476l0 -2.949646"
       id="path141" />
    <path
       fill="#000"
       fill-opacity="0"
       fill-rule="evenodd"
       d="m619.99915 548.62274l0 -3.0098267"
       id="path142" />
    <path
       fill-rule="evenodd"
       stroke="#fff"
       stroke-linecap="round"
       stroke-miterlimit="105.678"
       stroke-width=".916"
       d="m619.99915 548.62274l0 -3.0098267"
       id="path143" />
    <path
       fill="#000"
       fill-opacity="0"
       fill-rule="evenodd"
       d="m624.11786 548.62274l0 -3.0098267"
       id="path144" />
    <path
       fill-rule="evenodd"
       stroke="#fff"
       stroke-linecap="round"
       stroke-miterlimit="105.678"
       stroke-width=".916"
       d="m624.11786 548.62274l0 -3.0098267"
       id="path145" />
    <path
       fill="#000"
       fill-opacity="0"
       fill-rule="evenodd"
       d="m628.2307 548.62274l0 -3.0098267"
       id="path146" />
    <path
       fill-rule="evenodd"
       stroke="#fff"
       stroke-linecap="round"
       stroke-miterlimit="105.678"
       stroke-width=".916"
       d="m628.2307 548.62274l0 -3.0098267"
       id="path147" />
    <path
       fill="#000"
       fill-opacity="0"
       fill-rule="evenodd"
       d="m617.4257 543.24335l-3.1311646 0"
       id="path148" />
    <path
       fill-rule="evenodd"
       stroke="#fff"
       stroke-linecap="round"
       stroke-miterlimit="105.678"
       stroke-width=".916"
       d="m617.4257 543.24335l-3.1311646 0"
       id="path149" />
    <path
       fill="#000"
       fill-opacity="0"
       fill-rule="evenodd"
       d="m617.4257 539.3689l-3.1311646 0"
       id="path150" />
    <path
       fill-rule="evenodd"
       stroke="#fff"
       stroke-linecap="round"
       stroke-miterlimit="105.678"
       stroke-width=".916"
       d="m617.4257 539.3689l-3.1311646 0"
       id="path151" />
    <path
       fill="#000"
       fill-opacity="0"
       fill-rule="evenodd"
       d="m617.4257 535.49445l-3.1311646 0"
       id="path152" />
    <path
       fill-rule="evenodd"
       stroke="#fff"
       stroke-linecap="round"
       stroke-miterlimit="105.678"
       stroke-width=".916"
       d="m617.4257 535.49445l-3.1311646 0"
       id="path153" />
    <path
       fill="#000"
       fill-opacity="0"
       fill-rule="evenodd"
       d="m633.93536 543.24335l-3.18927 0"
       id="path154" />
    <path
       fill-rule="evenodd"
       stroke="#fff"
       stroke-linecap="round"
       stroke-miterlimit="105.678"
       stroke-width=".916"
       d="m633.93536 543.24335l-3.18927 0"
       id="path155" />
    <path
       fill="#000"
       fill-opacity="0"
       fill-rule="evenodd"
       d="m633.93536 539.3689l-3.18927 0"
       id="path156" />
    <path
       fill-rule="evenodd"
       stroke="#fff"
       stroke-linecap="round"
       stroke-miterlimit="105.678"
       stroke-width=".916"
       d="m633.93536 539.3689l-3.18927 0"
       id="path157" />
    <path
       fill="#000"
       fill-opacity="0"
       fill-rule="evenodd"
       d="m633.93536 535.49445l-3.18927 0"
       id="path158" />
    <path
       fill-rule="evenodd"
       stroke="#fff"
       stroke-linecap="round"
       stroke-miterlimit="105.678"
       stroke-width=".916"
       d="m633.93536 535.49445l-3.18927 0"
       id="path159" />
    <path
       fill="#fff"
       fill-rule="evenodd"
       d="m623.2581 536.4795l-0.4298706 0.054748535l-0.73779297 0.29003906l-0.5518799 0.51989746l-0.30786133 0.6949463l0 0.40496826l0 1.619873l0 0.40496826l0.30786133 0.6950073l0.5518799 0.5198364l0.73779297 0.28460693l2.5734253 0l0.73779297 -0.28460693l0.5518799 -0.5198364l0.30786133 -0.6950073l0 -0.40496826l0 -1.619873l0 -0.40496826l-0.30786133 -0.6949463l-0.5518799 -0.51989746l-0.73779297 -0.29003906l-0.4298706 -0.054748535z"
       id="path160" />
    <path
       fill="#e6e6e6"
       fill-rule="evenodd"
       d="m198.57755 289.25986l-0.6345062 0.060180664l-1.1542206 0.40496826l-0.8279114 0.809906l-0.5136566 1.0397644l-0.060424805 0.5746155l0 63.617126l0.060424805 0.5800781l0.5136566 1.0397644l0.8279114 0.809906l1.1542206 0.40496826l0.6345062 0.054718018l137.23755 0l0.64056396 -0.054718018l1.1481934 -0.40496826l0.89434814 -0.809906l0.4472046 -1.0397644l0.066467285 -0.5800781l0 -63.617126l-0.066467285 -0.5746155l-0.4472046 -1.0397644l-0.89434814 -0.809906l-1.1481934 -0.40496826l-0.64056396 -0.060180664z"
       id="path161" />
    <path
       fill="#fff"
       fill-rule="evenodd"
       d="m207.11836 297.93176l117.10237 0l0 52.06299l-117.10237 0z"
       id="path162" />
    <path
       fill="#000"
       fill-rule="nonzero"
       d="m279.75302 330.07324q-0.875 0 -1.6875 -0.359375q-0.796875 -0.359375 -1.421875 -1.046875q-0.625 -0.703125 -0.890625 -1.6875l1.296875 -0.53125q0.265625 1.015625 1.0 1.671875q0.734375 0.65625 1.734375 0.65625q0.984375 0 1.671875 -0.53125q0.6875 -0.53125 0.6875 -1.46875q0 -0.796875 -0.578125 -1.3125q-0.578125 -0.515625 -1.90625 -0.96875l-0.734375 -0.25q-1.203125 -0.4375 -1.984375 -1.140625q-0.765625 -0.703125 -0.765625 -1.953125q0 -0.8125 0.453125 -1.5q0.453125 -0.703125 1.25 -1.125q0.796875 -0.421875 1.796875 -0.421875q0.984375 0 1.71875 0.375q0.734375 0.375 1.171875 0.90625q0.453125 0.515625 0.625 1.03125l-1.265625 0.546875q-0.171875 -0.59375 -0.75 -1.078125q-0.5625 -0.484375 -1.484375 -0.484375q-0.890625 0 -1.515625 0.5q-0.625 0.5 -0.625 1.25q0 0.671875 0.53125 1.09375q0.53125 0.421875 1.609375 0.796875l0.75 0.25q1.453125 0.53125 2.265625 1.328125q0.8125 0.78125 0.8125 2.140625q0 1.109375 -0.5625 1.859375q-0.5625 0.75 -1.4375 1.109375q-0.859375 0.34375 -1.765625 0.34375zm5.523285 -11.703125l1.359375 0l0 11.453125l-1.359375 0l0 -11.453125zm6.92099 11.703125q-1.171875 0 -2.109375 -0.546875q-0.921875 -0.5625 -1.4375 -1.546875q-0.515625 -0.984375 -0.515625 -2.21875q0 -1.171875 0.484375 -2.171875q0.484375 -1.0 1.390625 -1.59375q0.90625 -0.59375 2.078125 -0.59375q1.203125 0 2.078125 0.546875q0.875 0.53125 1.34375 1.484375q0.484375 0.9375 0.484375 2.15625q0 0.1875 -0.03125 0.40625l-6.46875 0q0.046875 0.9375 0.4375 1.578125q0.40625 0.640625 1.015625 0.96875q0.625 0.3125 1.296875 0.3125q1.59375 0 2.421875 -1.484375l1.140625 0.5625q-0.5 0.984375 -1.421875 1.5625q-0.90625 0.578125 -2.1875 0.578125zm2.34375 -5.1875q-0.03125 -0.515625 -0.28125 -1.03125q-0.25 -0.515625 -0.796875 -0.859375q-0.546875 -0.359375 -1.375 -0.359375q-0.96875 0 -1.640625 0.625q-0.671875 0.609375 -0.875 1.625l4.96875 0zm6.7442627 5.1875q-1.171875 0 -2.109375 -0.546875q-0.921875 -0.5625 -1.4375 -1.546875q-0.515625 -0.984375 -0.515625 -2.21875q0 -1.171875 0.484375 -2.171875q0.484375 -1.0 1.390625 -1.59375q0.90625 -0.59375 2.078125 -0.59375q1.203125 0 2.078125 0.546875q0.875 0.53125 1.34375 1.484375q0.484375 0.9375 0.484375 2.15625q0 0.1875 -0.03125 0.40625l-6.46875 0q0.046875 0.9375 0.4375 1.578125q0.40625 0.640625 1.015625 0.96875q0.625 0.3125 1.296875 0.3125q1.59375 0 2.421875 -1.484375l1.140625 0.5625q-0.5 0.984375 -1.421875 1.5625q-0.90625 0.578125 -2.1875 0.578125zm2.34375 -5.1875q-0.03125 -0.515625 -0.28125 -1.03125q-0.25 -0.515625 -0.796875 -0.859375q-0.546875 -0.359375 -1.375 -0.359375q-0.96875 0 -1.640625 0.625q-0.671875 0.609375 -0.875 1.625l4.96875 0zm2.9611511 -3.21875l1.296875 0l0 1.21875l0.0625 0q0.375 -0.625 1.109375 -1.046875q0.75 -0.4375 1.6875 -0.4375q1.09375 0 1.984375 0.5625q0.890625 0.5625 1.390625 1.5625q0.515625 0.984375 0.515625 2.21875q0 1.25 -0.515625 2.234375q-0.5 0.984375 -1.390625 1.546875q-0.890625 0.546875 -1.984375 0.546875q-0.9375 0 -1.6875 -0.421875q-0.734375 -0.421875 -1.109375 -1.03125l-0.0625 0l0.0625 1.125l0 3.53125l-1.359375 0l0 -11.609375zm4.0 7.1875q0.703125 0 1.328125 -0.390625q0.625 -0.390625 0.984375 -1.09375q0.375 -0.703125 0.375 -1.625q0 -0.9375 -0.375 -1.640625q-0.359375 -0.703125 -0.984375 -1.078125q-0.625 -0.390625 -1.328125 -0.390625q-0.71875 0 -1.34375 0.390625q-0.609375 0.375 -0.984375 1.078125q-0.375 0.703125 -0.375 1.640625q0 0.921875 0.375 1.625q0.375 0.703125 0.984375 1.09375q0.625 0.390625 1.34375 0.390625z"
       id="path163" />
    <path
       fill="#767576"
       fill-rule="evenodd"
       d="m226.9867 306.61203l-1.9054108 0.054748535l-3.624939 0.6949768l-3.2531433 1.3298035l-2.9452515 1.8497009l-2.5153809 2.3695679l-1.963501 2.7799988l-1.4116364 3.0645752l-0.73776245 3.4093323l-0.06390381 1.7949524l0.06390381 1.7949524l0.73776245 3.349121l1.4116364 3.1247864l1.963501 2.7745056l2.5153809 2.375061l2.9452515 1.8496704l3.2531433 1.3298035l3.624939 0.6950073l1.9054108 0.054718018l1.8996124 -0.054718018l3.56102 -0.6950073l3.317047 -1.3298035l2.9452667 -1.8496704l2.5153656 -2.375061l1.9635162 -2.7745056l1.4116211 -3.1247864l0.7377777 -3.349121l0.06388855 -1.7949524l-0.06388855 -1.7949524l-0.7377777 -3.4093323l-1.4116211 -3.0645752l-1.9635162 -2.7799988l-2.5153656 -2.3695679l-2.9452667 -1.8497009l-3.317047 -1.3298035l-3.56102 -0.6949768l-1.8996124 -0.054748535z"
       id="path164" />
    <path
       fill="#000"
       fill-opacity="0"
       fill-rule="evenodd"
       d="m233.49294 329.97375l-13.076492 0l0 -12.318451l13.076492 0l0 12.318451z"
       id="path165" />
    <path
       fill-rule="evenodd"
       stroke="#fff"
       stroke-linecap="butt"
       stroke-linejoin="round"
       stroke-width=".916"
       d="m233.49294 329.97375l-13.076492 0l0 -12.318451l13.076492 0l0 12.318451z"
       id="path166" />
    <path
       fill="#000"
       fill-opacity="0"
       fill-rule="evenodd"
       d="m222.86792 317.65533l0 -2.949646"
       id="path167" />
    <path
       fill-rule="evenodd"
       stroke="#fff"
       stroke-linecap="round"
       stroke-miterlimit="105.678"
       stroke-width=".916"
       d="m222.86792 317.65533l0 -2.949646"
       id="path168" />
    <path
       fill="#000"
       fill-opacity="0"
       fill-rule="evenodd"
       d="m226.9866 317.65533l0 -2.949646"
       id="path169" />
    <path
       fill-rule="evenodd"
       stroke="#fff"
       stroke-linecap="round"
       stroke-miterlimit="105.678"
       stroke-width=".916"
       d="m226.9866 317.65533l0 -2.949646"
       id="path170" />
    <path
       fill="#000"
       fill-opacity="0"
       fill-rule="evenodd"
       d="m231.09949 317.65533l0 -2.949646"
       id="path171" />
    <path
       fill-rule="evenodd"
       stroke="#fff"
       stroke-linecap="round"
       stroke-miterlimit="105.678"
       stroke-width=".916"
       d="m231.09949 317.65533l0 -2.949646"
       id="path172" />
    <path
       fill="#000"
       fill-opacity="0"
       fill-rule="evenodd"
       d="m222.86792 333.2133l0 -3.0098267"
       id="path173" />
    <path
       fill-rule="evenodd"
       stroke="#fff"
       stroke-linecap="round"
       stroke-miterlimit="105.678"
       stroke-width=".916"
       d="m222.86792 333.2133l0 -3.0098267"
       id="path174" />
    <path
       fill="#000"
       fill-opacity="0"
       fill-rule="evenodd"
       d="m226.9866 333.2133l0 -3.0098267"
       id="path175" />
    <path
       fill-rule="evenodd"
       stroke="#fff"
       stroke-linecap="round"
       stroke-miterlimit="105.678"
       stroke-width=".916"
       d="m226.9866 333.2133l0 -3.0098267"
       id="path176" />
    <path
       fill="#000"
       fill-opacity="0"
       fill-rule="evenodd"
       d="m231.09949 333.2133l0 -3.0098267"
       id="path177" />
    <path
       fill-rule="evenodd"
       stroke="#fff"
       stroke-linecap="round"
       stroke-miterlimit="105.678"
       stroke-width=".916"
       d="m231.09949 333.2133l0 -3.0098267"
       id="path178" />
    <path
       fill="#000"
       fill-opacity="0"
       fill-rule="evenodd"
       d="m220.29448 327.83392l-3.1311646 0"
       id="path179" />
    <path
       fill-rule="evenodd"
       stroke="#fff"
       stroke-linecap="round"
       stroke-miterlimit="105.678"
       stroke-width=".916"
       d="m220.29448 327.83392l-3.1311646 0"
       id="path180" />
    <path
       fill="#000"
       fill-opacity="0"
       fill-rule="evenodd"
       d="m220.29448 323.95947l-3.1311646 0"
       id="path181" />
    <path
       fill-rule="evenodd"
       stroke="#fff"
       stroke-linecap="round"
       stroke-miterlimit="105.678"
       stroke-width=".916"
       d="m220.29448 323.95947l-3.1311646 0"
       id="path182" />
    <path
       fill="#000"
       fill-opacity="0"
       fill-rule="evenodd"
       d="m220.29448 320.08502l-3.1311646 0"
       id="path183" />
    <path
       fill-rule="evenodd"
       stroke="#fff"
       stroke-linecap="round"
       stroke-miterlimit="105.678"
       stroke-width=".916"
       d="m220.29448 320.08502l-3.1311646 0"
       id="path184" />
    <path
       fill="#000"
       fill-opacity="0"
       fill-rule="evenodd"
       d="m236.80411 327.83392l-3.1892548 0"
       id="path185" />
    <path
       fill-rule="evenodd"
       stroke="#fff"
       stroke-linecap="round"
       stroke-miterlimit="105.678"
       stroke-width=".916"
       d="m236.80411 327.83392l-3.1892548 0"
       id="path186" />
    <path
       fill="#000"
       fill-opacity="0"
       fill-rule="evenodd"
       d="m236.80411 323.95947l-3.1892548 0"
       id="path187" />
    <path
       fill-rule="evenodd"
       stroke="#fff"
       stroke-linecap="round"
       stroke-miterlimit="105.678"
       stroke-width=".916"
       d="m236.80411 323.95947l-3.1892548 0"
       id="path188" />
    <path
       fill="#000"
       fill-opacity="0"
       fill-rule="evenodd"
       d="m236.80411 320.08502l-3.1892548 0"
       id="path189" />
    <path
       fill-rule="evenodd"
       stroke="#fff"
       stroke-linecap="round"
       stroke-miterlimit="105.678"
       stroke-width=".916"
       d="m236.80411 320.08502l-3.1892548 0"
       id="path190" />
    <path
       fill="#fff"
       fill-rule="evenodd"
       d="m226.12686 321.07007l-0.42988586 0.054718018l-0.73776245 0.29003906l-0.5518646 0.51986694l-0.30789185 0.6950073l0 0.40496826l0 1.6198425l0 0.40496826l0.30789185 0.6949768l0.5518646 0.51989746l0.73776245 0.2845459l2.573471 0l0.7377777 -0.2845459l0.5518646 -0.51989746l0.30789185 -0.6949768l0 -0.40496826l0 -1.6198425l0 -0.40496826l-0.30789185 -0.6950073l-0.5518646 -0.51986694l-0.7377777 -0.29003906l-0.4298706 -0.054718018z"
       id="path191" />
    <path
       fill="#000"
       fill-opacity="0"
       fill-rule="evenodd"
       d="m520.67456 377.40982l197.57477 0l0 42.55121l-197.57477 0z"
       id="path192" />
  </g>
  <text
     xml:space="preserve"
     style="font-size:16px;font-family:sans-serif;-inkscape-font-specification:sans-serif;text-align:center;text-anchor:middle;fill:#466baf"
     x="96.316704"
     y="30.555422"
     id="text193"><tspan
       sodipodi:role="line"
       id="tspan193"
       x="96.316704"
       y="30.555422"
       style="fill:#000000;fill-opacity:1">mesh1</tspan></text>
  <text
     xml:space="preserve"
     style="font-size:16px;font-family:sans-serif;-inkscape-font-specification:sans-serif;text-align:center;text-anchor:middle;fill:#466baf"
     x="169.53516"
     y="81.351562"
     id="text193-3"><tspan
       sodipodi:role="line"
       id="tspan193-3"
       x="169.53516"
       y="81.351562"
       style="fill:#000000;fill-opacity:1">region1</tspan></text>
  <text
     xml:space="preserve"
     style="font-size:16px;font-family:sans-serif;-inkscape-font-specification:sans-serif;text-align:center;text-anchor:middle;fill:#466baf"
     x="186.86328"
     y="144.32031"
     id="text193-3-8"><tspan
       sodipodi:role="line"
       id="tspan193-3-6"
       x="186.86328"
       y="144.32031"
       style="fill:#000000;fill-opacity:1">zone1</tspan></text>
  <text
     xml:space="preserve"
     style="font-size:16px;font-family:sans-serif;-inkscape-font-specification:sans-serif;text-align:center;text-anchor:middle;fill:#466baf"
     x="183.81641"
     y="459.25781"
     id="text193-3-8-1"><tspan
       sodipodi:role="line"
       id="tspan193-3-6-8"
       x="183.81641"
       y="459.25781"
       style="fill:#000000;fill-opacity:1">zone2</tspan></text>
  <text
     xml:space="preserve"
     style="font-size:16px;font-family:sans-serif;-inkscape-font-specification:sans-serif;text-align:center;text-anchor:middle;fill:#466baf"
     x="596.81641"
     y="134.25781"
     id="text193-3-8-1-3"><tspan
       sodipodi:role="line"
       id="tspan193-3-6-8-8"
       x="596.81641"
       y="134.25781"
       style="fill:#000000;fill-opacity:1">zone3</tspan></text>
  <text
     xml:space="preserve"
     style="font-size:16px;font-family:sans-serif;-inkscape-font-specification:sans-serif;text-align:center;text-anchor:middle;fill:#466baf"
     x="595.81641"
     y="460.25781"
     id="text193-3-8-1-3-7"><tspan
       sodipodi:role="line"
       id="tspan193-3-6-8-8-4"
       x="595.81641"
       y="460.25781"
       style="fill:#000000;fill-opacity:1">zone4</tspan></text>
  <text
     xml:space="preserve"
     style="font-size:16px;font-family:sans-serif;-inkscape-font-specification:sans-serif;text-align:center;text-anchor:middle;fill:#466baf"
     x="573.86328"
     y="80.320312"
     id="text193-3-1"><tspan
       sodipodi:role="line"
       id="tspan193-3-1"
       x="573.86328"
       y="80.320312"
       style="fill:#000000;fill-opacity:1">region2</tspan></text>
  <text
     xml:space="preserve"
     style="font-size:16px;font-family:sans-serif;-inkscape-font-specification:sans-serif;text-align:center;text-anchor:middle;fill:#466baf"
     x="574.86328"
     y="400.32031"
     id="text193-3-1-4"><tspan
       sodipodi:role="line"
       id="tspan193-3-1-5"
       x="574.86328"
       y="400.32031"
       style="fill:#000000;fill-opacity:1">region3</tspan></text>
</svg>
