<svg version="1.1" viewBox="0.0 0.0 501.40944881889766 327.36745406824144" fill="none" stroke="none" stroke-linecap="square" stroke-miterlimit="10" xmlns:xlink="http://www.w3.org/1999/xlink" xmlns="http://www.w3.org/2000/svg"><clipPath id="p.0"><path d="m0 0l501.40945 0l0 327.36746l-501.40945 0l0 -327.36746z" clip-rule="nonzero"/></clipPath><g clip-path="url(#p.0)"><path fill="#000000" fill-opacity="0.0" d="m0 0l501.40945 0l0 327.36746l-501.40945 0z" fill-rule="evenodd"/><path fill="#000000" fill-opacity="0.0" d="m482.70343 312.8943l-465.8048 0l-0.8936367 0l-1.7423439 -0.45196533l-1.5825872 -0.83673096l-1.3729067 -1.1604614l-1.213151 -1.4230652l-0.9485531 -1.7406616l-0.6889496 -1.9361267l-0.31452084 -2.0643616l-0.05491638 -1.0993652l0 -258.24203l0.05491638 -1.099369l0.31452084 -2.1254501l0.6889496 -1.9361115l0.9485531 -1.679596l1.213151 -1.4841499l1.3729067 -1.1604462l1.5825872 -0.84284973l1.7423439 -0.38477707l0.8936367 -0.06718445l465.8048 0l0.8986511 0.06718445l1.7423401 0.38477707l1.5825806 0.84284973l1.3729248 1.1604462l1.2131348 1.4841499l0.94854736 1.679596l0.68395996 1.9361115l0.3694458 2.1254501l0 1.099369l0 258.24203l0 1.0993652l-0.3694458 2.0643616l-0.68395996 1.9361267l-0.94854736 1.7406616l-1.2131348 1.4230652l-1.3729248 1.1604614l-1.5825806 0.83673096l-1.7423401 0.45196533l-0.8986511 0z" fill-rule="evenodd"/><path stroke="#466bb0" stroke-width="0.47244094488188976" stroke-linejoin="round" stroke-linecap="butt" stroke-dasharray="1.889763779527559,1.4173228346456692" d="m482.70343 312.8943l-465.8048 0l-0.8936367 0l-1.7423439 -0.45196533l-1.5825872 -0.83673096l-1.3729067 -1.1604614l-1.213151 -1.4230652l-0.9485531 -1.7406616l-0.6889496 -1.9361267l-0.31452084 -2.0643616l-0.05491638 -1.0993652l0 -258.24203l0.05491638 -1.099369l0.31452084 -2.1254501l0.6889496 -1.9361115l0.9485531 -1.679596l1.213151 -1.4841499l1.3729067 -1.1604462l1.5825872 -0.84284973l1.7423439 -0.38477707l0.8936367 -0.06718445l465.8048 0l0.8986511 0.06718445l1.7423401 0.38477707l1.5825806 0.84284973l1.3729248 1.1604462l1.2131348 1.4841499l0.94854736 1.679596l0.68395996 1.9361115l0.3694458 2.1254501l0 1.099369l0 258.24203l0 1.0993652l-0.3694458 2.0643616l-0.68395996 1.9361267l-0.94854736 1.7406616l-1.2131348 1.4230652l-1.3729248 1.1604614l-1.5825806 0.83673096l-1.7423401 0.45196533l-0.8986511 0z" fill-rule="evenodd"/><path fill="#e6e6e6" d="m94.11811 109.19554l-0.275589 0.028869629l-0.50131226 0.1942215l-0.3858261 0.38845062l-0.22309875 0.49868774l0 0.27822113l0 30.509178l0 0.2782135l0.22309875 0.49868774l0.3858261 0.38845825l0.50131226 0.19422913l0.275589 0.028869629l93.77953 0l0.2782135 -0.028869629l0.49868774 -0.19422913l0.35957336 -0.38845825l0.22309875 -0.49868774l0.028869629 -0.2782135l0 -30.509178l-0.028869629 -0.27822113l-0.22309875 -0.49868774l-0.35957336 -0.38845062l-0.49868774 -0.1942215l-0.2782135 -0.028869629z" fill-rule="evenodd"/><path fill="#ffffff" d="m100.026245 113.355644l-0.275589 0.028869629l-0.50131226 0.19422913l-0.38845062 0.38845062l-0.22047424 0.49868774l0 0.2782135l0 22.18898l0 0.2782135l0.22047424 0.49868774l0.38845062 0.388443l0.50131226 0.19422913l0.275589 0.026245117l22.191605 0l0.275589 -0.026245117l0.49868774 -0.19422913l0.3622055 -0.388443l0.22047424 -0.49868774l0.028869629 -0.2782135l0 -22.18898l-0.028869629 -0.2782135l-0.22047424 -0.49868774l-0.3622055 -0.38845062l-0.49868774 -0.19422913l-0.275589 -0.028869629z" fill-rule="evenodd"/><path fill="#000000" fill-opacity="0.0" d="m117.25197 129.36089l0 -7.0734863l-6.131233 -3.5223083l-6.1286087 3.5223083l0 7.0734863l6.1286087 3.5511932l6.131233 -3.5511932z" fill-rule="evenodd"/><path stroke="#b14d9d" stroke-width="1.3858267716535433" stroke-linejoin="round" stroke-linecap="butt" d="m117.25197 129.36089l0 -7.0734863l-6.131233 -3.5223083l-6.1286087 3.5223083l0 7.0734863l6.1286087 3.5511932l6.131233 -3.5511932z" fill-rule="evenodd"/><path fill="#ffffff" d="m130.2336 113.355644l-0.2782135 0.028869629l-0.49868774 0.19422913l-0.38845825 0.38845062l-0.22309875 0.49868774l0 0.2782135l0 22.18898l0 0.2782135l0.22309875 0.49868774l0.38845825 0.388443l0.49868774 0.19422913l0.2782135 0.026245117l51.312332 0l0.2782135 -0.026245117l0.49868774 -0.19422913l0.35958862 -0.388443l0.22309875 -0.49868774l0.026245117 -0.2782135l0 -22.18898l-0.026245117 -0.2782135l-0.22309875 -0.49868774l-0.35958862 -0.38845062l-0.49868774 -0.19422913l-0.2782135 -0.028869629z" fill-rule="evenodd"/><path fill="#767576" d="m138.97113 117.51837l-0.8609009 0.026245117l-1.6377869 0.33333588l-1.4698181 0.6377945l-1.3307037 0.88713837l-1.1364899 1.1364822l-0.88713074 1.3333359l-0.6378021 1.4698181l-0.33332825 1.63517l-0.028869629 0.86089325l0.028869629 0.86089325l0.33332825 1.6062927l0.6378021 1.4986877l0.88713074 1.330719l1.1364899 1.1390991l1.3307037 0.887146l1.4698181 0.63778687l1.6377869 0.3333435l0.8609009 0.026245117l0.8582611 -0.026245117l1.6089325 -0.3333435l1.4986877 -0.63778687l1.3307037 -0.887146l1.1364899 -1.1390991l0.88713074 -1.330719l0.6378021 -1.4986877l0.33332825 -1.6062927l0.028869629 -0.86089325l-0.028869629 -0.86089325l-0.33332825 -1.63517l-0.6378021 -1.4698181l-0.88713074 -1.3333359l-1.1364899 -1.1364822l-1.3307037 -0.88713837l-1.4986877 -0.6377945l-1.6089325 -0.33333588l-0.8582611 -0.026245117z" fill-rule="evenodd"/><path fill="#000000" fill-opacity="0.0" d="m141.91077 128.7231l-5.908142 0l0 -5.9081345l5.908142 0l0 5.9081345z" fill-rule="evenodd"/><path stroke="#ffffff" stroke-width="0.916010498687664" stroke-linejoin="round" stroke-linecap="butt" d="m141.91077 128.7231l-5.908142 0l0 -5.9081345l5.908142 0l0 5.9081345z" fill-rule="evenodd"/><path fill="#000000" fill-opacity="0.0" d="m137.11023 122.814964l0 -1.4147034" fill-rule="evenodd"/><path stroke="#ffffff" stroke-width="0.916010498687664" stroke-miterlimit="105.678" stroke-linecap="round" d="m137.11023 122.814964l0 -1.4147034" fill-rule="evenodd"/><path fill="#000000" fill-opacity="0.0" d="m138.97113 122.814964l0 -1.4147034" fill-rule="evenodd"/><path stroke="#ffffff" stroke-width="0.916010498687664" stroke-miterlimit="105.678" stroke-linecap="round" d="m138.97113 122.814964l0 -1.4147034" fill-rule="evenodd"/><path fill="#000000" fill-opacity="0.0" d="m140.82939 122.814964l0 -1.4147034" fill-rule="evenodd"/><path stroke="#ffffff" stroke-width="0.916010498687664" stroke-miterlimit="105.678" stroke-linecap="round" d="m140.82939 122.814964l0 -1.4147034" fill-rule="evenodd"/><path fill="#000000" fill-opacity="0.0" d="m137.11023 130.2769l0 -1.443573" fill-rule="evenodd"/><path stroke="#ffffff" stroke-width="0.916010498687664" stroke-miterlimit="105.678" stroke-linecap="round" d="m137.11023 130.2769l0 -1.443573" fill-rule="evenodd"/><path fill="#000000" fill-opacity="0.0" d="m138.97113 130.2769l0 -1.443573" fill-rule="evenodd"/><path stroke="#ffffff" stroke-width="0.916010498687664" stroke-miterlimit="105.678" stroke-linecap="round" d="m138.97113 130.2769l0 -1.443573" fill-rule="evenodd"/><path fill="#000000" fill-opacity="0.0" d="m140.82939 130.2769l0 -1.443573" fill-rule="evenodd"/><path stroke="#ffffff" stroke-width="0.916010498687664" stroke-miterlimit="105.678" stroke-linecap="round" d="m140.82939 130.2769l0 -1.443573" fill-rule="evenodd"/><path fill="#000000" fill-opacity="0.0" d="m135.94751 127.69685l-1.4147034 0" fill-rule="evenodd"/><path stroke="#ffffff" stroke-width="0.916010498687664" stroke-miterlimit="105.678" stroke-linecap="round" d="m135.94751 127.69685l-1.4147034 0" fill-rule="evenodd"/><path fill="#000000" fill-opacity="0.0" d="m135.94751 125.838585l-1.4147034 0" fill-rule="evenodd"/><path stroke="#ffffff" stroke-width="0.916010498687664" stroke-miterlimit="105.678" stroke-linecap="round" d="m135.94751 125.838585l-1.4147034 0" fill-rule="evenodd"/><path fill="#000000" fill-opacity="0.0" d="m135.94751 123.980316l-1.4147034 0" fill-rule="evenodd"/><path stroke="#ffffff" stroke-width="0.916010498687664" stroke-miterlimit="105.678" stroke-linecap="round" d="m135.94751 123.980316l-1.4147034 0" fill-rule="evenodd"/><path fill="#000000" fill-opacity="0.0" d="m143.40683 127.69685l-1.4409485 0" fill-rule="evenodd"/><path stroke="#ffffff" stroke-width="0.916010498687664" stroke-miterlimit="105.678" stroke-linecap="round" d="m143.40683 127.69685l-1.4409485 0" fill-rule="evenodd"/><path fill="#000000" fill-opacity="0.0" d="m143.40683 125.838585l-1.4409485 0" fill-rule="evenodd"/><path stroke="#ffffff" stroke-width="0.916010498687664" stroke-miterlimit="105.678" stroke-linecap="round" d="m143.40683 125.838585l-1.4409485 0" fill-rule="evenodd"/><path fill="#000000" fill-opacity="0.0" d="m143.40683 123.980316l-1.4409485 0" fill-rule="evenodd"/><path stroke="#ffffff" stroke-width="0.916010498687664" stroke-miterlimit="105.678" stroke-linecap="round" d="m143.40683 123.980316l-1.4409485 0" fill-rule="evenodd"/><path fill="#ffffff" d="m138.58267 124.45276l-0.19421387 0.026245117l-0.3333435 0.13910675l-0.24934387 0.24934387l-0.13909912 0.33333588l0 0.1942215l0 0.77690125l0 0.19422913l0.13909912 0.33333588l0.24934387 0.24934387l0.3333435 0.13648224l1.1627197 0l0.3333435 -0.13648224l0.24934387 -0.24934387l0.13909912 -0.33333588l0 -0.19422913l0 -0.77690125l0 -0.1942215l-0.13909912 -0.33333588l-0.24934387 -0.24934387l-0.3333435 -0.13910675l-0.19422913 -0.026245117z" fill-rule="evenodd"/><path fill="#000000" fill-opacity="0.0" d="m139.69029 113.35171l58.23622 0l0 24.976372l-58.23622 0z" fill-rule="evenodd"/><path fill="#000000" d="m150.54967 128.34927q-0.359375 0 -0.703125 -0.140625q-0.328125 -0.15625 -0.59375 -0.43750763q-0.25 -0.296875 -0.359375 -0.71875l0.53125 -0.21875q0.125 0.421875 0.421875 0.703125q0.3125 0.265625 0.71875 0.265625q0.421875 0 0.703125 -0.21875q0.28125 -0.21875 0.28125 -0.609375q0 -0.328125 -0.25 -0.546875q-0.234375 -0.21875 -0.78125 -0.40625l-0.296875 -0.109375q-0.515625 -0.171875 -0.84375 -0.46875q-0.3125 -0.296875 -0.3125 -0.8125q0 -0.34375 0.1875 -0.625q0.1875 -0.296875 0.515625 -0.46875q0.34375 -0.171875 0.75 -0.171875q0.421875 0 0.71875 0.15625q0.3125 0.15625 0.484375 0.375q0.1875 0.21875 0.265625 0.4375l-0.53125 0.21875q-0.0625 -0.25 -0.3125 -0.4375q-0.234375 -0.203125 -0.609375 -0.203125q-0.375 0 -0.640625 0.203125q-0.25 0.203125 -0.25 0.515625q0 0.28125 0.21875 0.46875q0.21875 0.171875 0.671875 0.3125l0.3125 0.109375q0.59375 0.21875 0.9375 0.546875q0.34375 0.328125 0.34375 0.90625q0 0.453125 -0.234375 0.765625q-0.234375 0.31250763 -0.59375 0.46875763q-0.359375 0.140625 -0.75 0.140625zm3.8188934 0q-0.5 0 -0.890625 -0.234375q-0.375 -0.23438263 -0.59375 -0.6406326q-0.21875 -0.40625 -0.21875 -0.921875q0 -0.484375 0.203125 -0.90625q0.203125 -0.421875 0.578125 -0.65625q0.375 -0.25 0.875 -0.25q0.5 0 0.859375 0.21875q0.359375 0.21875 0.546875 0.625q0.203125 0.390625 0.203125 0.890625q0 0.078125 0 0.171875l-2.6875 0q0.015625 0.390625 0.171875 0.65625q0.171875 0.265625 0.421875 0.40625q0.265625 0.125 0.546875 0.125q0.65625 0 1.0 -0.609375l0.484375 0.234375q-0.21875 0.40625 -0.59375 0.6562576q-0.375 0.234375 -0.90625 0.234375zm0.96875 -2.1718826q-0.015625 -0.203125 -0.125 -0.421875q-0.09375 -0.21875 -0.328125 -0.359375q-0.21875 -0.140625 -0.5625 -0.140625q-0.40625 0 -0.6875 0.265625q-0.28125 0.25 -0.359375 0.65625l2.0625 0zm1.2630463 -1.328125l0.53125 0l0 0.546875l0.03125 0q0.09375 -0.28125 0.375 -0.46875q0.296875 -0.1875 0.609375 -0.1875q0.234375 0 0.40625 0.078125l0 0.609375q-0.21875 -0.109375 -0.484375 -0.109375q-0.25 0 -0.453125 0.140625q-0.203125 0.140625 -0.328125 0.375q-0.125 0.234375 -0.125 0.515625l0 1.8906326l-0.5625 0l0 -3.3906326zm2.2343903 0l0.609375 0l1.046875 2.71875l0.015625 0l1.0625 -2.71875l0.59375 0l-1.390625 3.3906326l-0.5625 0l-1.375 -3.3906326zm4.1243896 -0.625q-0.171875 0 -0.296875 -0.125q-0.109375 -0.125 -0.109375 -0.28125q0 -0.171875 0.109375 -0.28125q0.125 -0.125 0.296875 -0.125q0.171875 0 0.28125 0.125q0.125 0.109375 0.125 0.28125q0 0.15625 -0.125 0.28125q-0.109375 0.125 -0.28125 0.125zm-0.28125 0.625l0.5625 0l0 3.3906326l-0.5625 0l0 -3.3906326zm2.9553223 3.5000076q-0.484375 0 -0.890625 -0.234375q-0.390625 -0.23438263 -0.609375 -0.6406326q-0.21875 -0.421875 -0.21875 -0.9375q0 -0.5 0.21875 -0.90625q0.21875 -0.421875 0.609375 -0.65625q0.40625 -0.234375 0.890625 -0.234375q0.5625 0 0.9375 0.265625q0.375 0.25 0.53125 0.671875l-0.515625 0.21875q-0.125 -0.3125 -0.375 -0.46875q-0.25 -0.171875 -0.59375 -0.171875q-0.3125 0 -0.578125 0.171875q-0.25 0.15625 -0.40625 0.453125q-0.15625 0.28125 -0.15625 0.65625q0 0.390625 0.15625 0.6875q0.15625 0.28125 0.40625 0.453125q0.265625 0.15625 0.578125 0.15625q0.359375 0 0.609375 -0.15625q0.265625 -0.171875 0.390625 -0.484375l0.5 0.21875q-0.171875 0.421875 -0.5625 0.6875076q-0.375 0.25 -0.921875 0.25zm3.5852966 0q-0.5 0 -0.890625 -0.234375q-0.375 -0.23438263 -0.59375 -0.6406326q-0.21875 -0.40625 -0.21875 -0.921875q0 -0.484375 0.203125 -0.90625q0.203125 -0.421875 0.578125 -0.65625q0.375 -0.25 0.875 -0.25q0.5 0 0.859375 0.21875q0.359375 0.21875 0.546875 0.625q0.203125 0.390625 0.203125 0.890625q0 0.078125 0 0.171875l-2.6875 0q0.015625 0.390625 0.171875 0.65625q0.171875 0.265625 0.421875 0.40625q0.265625 0.125 0.546875 0.125q0.65625 0 1.0 -0.609375l0.484375 0.234375q-0.21875 0.40625 -0.59375 0.6562576q-0.375 0.234375 -0.90625 0.234375zm0.96875 -2.1718826q-0.015625 -0.203125 -0.125 -0.421875q-0.09375 -0.21875 -0.328125 -0.359375q-0.21875 -0.140625 -0.5625 -0.140625q-0.40625 0 -0.6875 0.265625q-0.28125 0.25 -0.359375 0.65625l2.0625 0zm0.84117126 2.0625076l0 0zm3.2504883 -4.7656326l0.640625 0l1.8125 4.7656326l-0.625 0l-0.46875 -1.3125076l-2.0625 0l-0.484375 1.3125076l-0.625 0l1.8125 -4.7656326zm1.15625 2.921875l-0.640625 -1.71875l-0.171875 -0.515625l-0.03125 0l-0.1875 0.515625l-0.640625 1.71875l1.671875 0z" fill-rule="nonzero"/><path fill="#000000" fill-opacity="0.0" d="m8.085301 14.237533l68.22047 0l0 14.803149l-68.22047 0z" fill-rule="evenodd"/><path fill="#000000" d="m17.725927 21.986307l0.671875 0l0 5.734375l-0.671875 0l0 -5.734375zm3.2412262 5.859375q-0.65625 0 -1.09375 -0.296875q-0.4375 -0.3125 -0.625 -0.796875l0.609375 -0.265625q0.15625 0.359375 0.453125 0.5625q0.296875 0.203125 0.65625 0.203125q0.390625 0 0.65625 -0.15625q0.28125 -0.15625 0.28125 -0.453125q0 -0.25 -0.21875 -0.40625q-0.21875 -0.15625 -0.6875 -0.265625l-0.484375 -0.125q-0.5 -0.125 -0.8125 -0.40625q-0.296875 -0.296875 -0.296875 -0.75q0 -0.359375 0.203125 -0.625q0.21875 -0.265625 0.5625 -0.40625q0.359375 -0.140625 0.765625 -0.140625q0.53125 0 0.953125 0.234375q0.421875 0.21875 0.59375 0.640625l-0.59375 0.265625q-0.265625 -0.53125 -0.96875 -0.53125q-0.328125 0 -0.578125 0.15625q-0.25 0.15625 -0.25 0.390625q0 0.21875 0.171875 0.359375q0.171875 0.140625 0.53125 0.234375l0.59375 0.15625q0.59375 0.140625 0.890625 0.453125q0.3125 0.296875 0.3125 0.71875q0 0.375 -0.21875 0.671875q-0.21875 0.28125 -0.59375 0.4375q-0.359375 0.140625 -0.8125 0.140625zm3.9002075 -0.0625q-0.25 0 -0.46875 -0.078125q-0.203125 -0.078125 -0.359375 -0.21875q-0.3125 -0.296875 -0.3125 -0.84375l0 -2.390625l-0.71875 0l0 -0.609375l0.71875 0l0 -1.15625l0.671875 0l0 1.15625l1.0 0l0 0.609375l-1.0 0l0 2.234375q0 0.328125 0.140625 0.484375q0.140625 0.1875 0.4375 0.1875q0.25 0 0.4375 -0.140625l0 0.65625q-0.109375 0.0625 -0.234375 0.078125q-0.125 0.03125 -0.3125 0.03125zm1.7960815 -4.890625q-0.203125 0 -0.34375 -0.140625q-0.140625 -0.15625 -0.140625 -0.34375q0 -0.21875 0.140625 -0.359375q0.140625 -0.140625 0.34375 -0.140625q0.203125 0 0.34375 0.140625q0.140625 0.140625 0.140625 0.359375q0 0.1875 -0.140625 0.34375q-0.140625 0.140625 -0.34375 0.140625zm-0.34375 0.75l0.6875 0l0 4.078125l-0.6875 0l0 -4.078125zm3.596115 4.203125q-0.609375 0 -1.09375 -0.28125q-0.46875 -0.296875 -0.75 -0.78125q-0.265625 -0.5 -0.265625 -1.109375q0 -0.59375 0.265625 -1.078125q0.28125 -0.5 0.75 -0.78125q0.484375 -0.296875 1.09375 -0.296875q0.59375 0 1.0625 0.296875q0.484375 0.28125 0.75 0.78125q0.2812481 0.484375 0.2812481 1.078125q0 0.609375 -0.2812481 1.109375q-0.265625 0.484375 -0.75 0.78125q-0.46875 0.28125 -1.0625 0.28125zm0 -0.609375q0.375 0 0.6875 -0.1875q0.328125 -0.1875 0.515625 -0.53125q0.203125 -0.359375 0.203125 -0.84375q0 -0.46875 -0.203125 -0.8125q-0.1875 -0.359375 -0.515625 -0.546875q-0.3125 -0.1875 -0.6875 -0.1875q-0.375 0 -0.703125 0.1875q-0.328125 0.1875 -0.53125 0.546875q-0.203125 0.34375 -0.203125 0.8125q0 0.484375 0.203125 0.84375q0.203125 0.34375 0.53125 0.53125q0.328125 0.1875 0.703125 0.1875zm2.3773174 0.484375l0 0zm2.4965973 -5.734375l0.984375 0l1.828125 4.703125l0.03125 0l1.8125 -4.703125l0.984375 0l0 5.734375l-0.671875 0l0 -3.640625l0.03125 -1.09375l-0.03125 0l-1.859375 4.734375l-0.5625 0l-1.875 -4.734375l-0.03125 0l0.03125 1.09375l0 3.640625l-0.671875 0l0 -5.734375zm8.519791 5.859375q-0.578125 0 -1.046875 -0.28125q-0.453125 -0.28125 -0.71875 -0.765625q-0.265625 -0.5 -0.265625 -1.109375q0 -0.578125 0.25 -1.078125q0.25 -0.5 0.703125 -0.796875q0.453125 -0.296875 1.03125 -0.296875q0.59375 0 1.03125 0.265625q0.453125 0.265625 0.6875 0.734375q0.234375 0.46875 0.234375 1.078125q0 0.09375 -0.015625 0.21875l-3.234375 0q0.015625 0.453125 0.21875 0.78125q0.203125 0.3125 0.515625 0.484375q0.3125 0.15625 0.640625 0.15625q0.796875 0 1.203125 -0.734375l0.578125 0.28125q-0.25 0.484375 -0.71875 0.78125q-0.453125 0.28125 -1.09375 0.28125zm1.1875 -2.59375q-0.015625 -0.265625 -0.15625 -0.515625q-0.125 -0.25 -0.390625 -0.421875q-0.265625 -0.1875 -0.6875 -0.1875q-0.484375 0 -0.828125 0.3125q-0.328125 0.3125 -0.421875 0.8125l2.484375 0zm2.965805 2.59375q-0.65625 0 -1.09375 -0.296875q-0.4375 -0.3125 -0.625 -0.796875l0.609375 -0.265625q0.15625 0.359375 0.453125 0.5625q0.296875 0.203125 0.65625 0.203125q0.390625 0 0.65625 -0.15625q0.28125 -0.15625 0.28125 -0.453125q0 -0.25 -0.21875 -0.40625q-0.21875 -0.15625 -0.6875 -0.265625l-0.484375 -0.125q-0.5 -0.125 -0.8125 -0.40625q-0.296875 -0.296875 -0.296875 -0.75q0 -0.359375 0.203125 -0.625q0.21875 -0.265625 0.5625 -0.40625q0.359375 -0.140625 0.765625 -0.140625q0.53125 0 0.953125 0.234375q0.421875 0.21875 0.59375 0.640625l-0.59375 0.265625q-0.265625 -0.53125 -0.96875 -0.53125q-0.328125 0 -0.578125 0.15625q-0.25 0.15625 -0.25 0.390625q0 0.21875 0.171875 0.359375q0.171875 0.140625 0.53125 0.234375l0.59375 0.15625q0.59375 0.140625 0.890625 0.453125q0.3125 0.296875 0.3125 0.71875q0 0.375 -0.21875 0.671875q-0.21875 0.28125 -0.59375 0.4375q-0.359375 0.140625 -0.8125 0.140625zm2.3620758 -5.859375l0.6875 0l0 1.6875l-0.03125 0.5625l0.03125 0q0.171875 -0.3125 0.53125 -0.515625q0.359375 -0.203125 0.796875 -0.203125q0.734375 0 1.125 0.4375q0.40625 0.421875 0.40625 1.15625l0 2.609375l-0.6875 0l0 -2.515625q0 -0.546875 -0.28125 -0.8125q-0.28125 -0.265625 -0.71875 -0.265625q-0.328125 0 -0.59375 0.203125q-0.265625 0.1875 -0.421875 0.5q-0.15625 0.296875 -0.15625 0.625l0 2.265625l-0.6875 0l0 -5.734375z" fill-rule="nonzero"/><path fill="#000000" fill-opacity="0.0" d="m290.3408 303.24487l-268.44815 0l-0.51501274 0l-1.0041294 -0.4102478l-0.9120617 -0.75946045l-0.7912216 -1.0532837l-0.6991501 -1.2916565l-0.5466614 -1.579895l-0.39704895 -1.7573242l-0.18126106 -1.8737183l-0.031650543 -0.99783325l0 -234.39322l0.031650543 -0.9978409l0.18126106 -1.9291611l0.39704895 -1.7573128l0.5466614 -1.5244827l0.6991501 -1.3470879l0.7912216 -1.0532761l0.9120617 -0.76501465l1.0041294 -0.34924316l0.51501274 -0.060977936l268.44815 0l0.5178833 0.060977936l1.0041504 0.34924316l0.91204834 0.76501465l0.79122925 1.0532761l0.6991272 1.3470879l0.5466614 1.5244827l0.39419556 1.7573128l0.21289062 1.9291611l0 0.9978409l0 234.39322l0 0.99783325l-0.21289062 1.8737183l-0.39419556 1.7573242l-0.5466614 1.579895l-0.6991272 1.2916565l-0.79122925 1.0532837l-0.91204834 0.75946045l-1.0041504 0.4102478l-0.5178833 0z" fill-rule="evenodd"/><path stroke="#999999" stroke-width="0.47244094488188976" stroke-linejoin="round" stroke-linecap="butt" d="m290.3408 303.24487l-268.44815 0l-0.51501274 0l-1.0041294 -0.4102478l-0.9120617 -0.75946045l-0.7912216 -1.0532837l-0.6991501 -1.2916565l-0.5466614 -1.579895l-0.39704895 -1.7573242l-0.18126106 -1.8737183l-0.031650543 -0.99783325l0 -234.39322l0.031650543 -0.9978409l0.18126106 -1.9291611l0.39704895 -1.7573128l0.5466614 -1.5244827l0.6991501 -1.3470879l0.7912216 -1.0532761l0.9120617 -0.76501465l1.0041294 -0.34924316l0.51501274 -0.060977936l268.44815 0l0.5178833 0.060977936l1.0041504 0.34924316l0.91204834 0.76501465l0.79122925 1.0532761l0.6991272 1.3470879l0.5466614 1.5244827l0.39419556 1.7573128l0.21289062 1.9291611l0 0.9978409l0 234.39322l0 0.99783325l-0.21289062 1.8737183l-0.39419556 1.7573242l-0.5466614 1.579895l-0.6991272 1.2916565l-0.79122925 1.0532837l-0.91204834 0.75946045l-1.0041504 0.4102478l-0.5178833 0z" fill-rule="evenodd"/><path fill="#000000" fill-opacity="0.0" d="m22.347769 29.040682l68.220474 0l0 14.803152l-68.220474 0z" fill-rule="evenodd"/><path fill="#000000" d="m31.988394 36.789455l0.8281269 0l2.875 4.5625l0.03125 0l-0.03125 -1.09375l0 -3.46875l0.6875 0l0 5.734375l-0.71875 0l-3.0 -4.78125l-0.03125 0l0.03125 1.109375l0 3.671875l-0.6718769 0l0 -5.734375zm7.2558002 5.859375q-0.578125 0 -1.046875 -0.28125q-0.453125 -0.28125 -0.71875 -0.765625q-0.265625 -0.5 -0.265625 -1.109375q0 -0.578125 0.25 -1.078125q0.25 -0.5 0.703125 -0.796875q0.453125 -0.296875 1.03125 -0.296875q0.59375 0 1.03125 0.265625q0.453125 0.265625 0.6875 0.734375q0.234375 0.46875 0.234375 1.078125q0 0.09375 -0.015625 0.21875l-3.234375 0q0.015625 0.453125 0.21875 0.78125q0.203125 0.3125 0.515625 0.484375q0.3125 0.15625 0.640625 0.15625q0.796875 0 1.203125 -0.734375l0.578125 0.28125q-0.25 0.484375 -0.71875 0.78125q-0.453125 0.28125 -1.09375 0.28125zm1.1875 -2.59375q-0.015625 -0.265625 -0.15625 -0.515625q-0.125 -0.25 -0.390625 -0.421875q-0.265625 -0.1875 -0.6875 -0.1875q-0.484375 0 -0.828125 0.3125q-0.328125 0.3125 -0.421875 0.8125l2.484375 0zm2.9620667 2.53125q-0.25 0 -0.46875 -0.078125q-0.203125 -0.078125 -0.359375 -0.21875q-0.3125 -0.296875 -0.3125 -0.84375l0 -2.390625l-0.71875 0l0 -0.609375l0.71875 0l0 -1.15625l0.671875 0l0 1.15625l1.0 0l0 0.609375l-1.0 0l0 2.234375q0 0.328125 0.140625 0.484375q0.140625 0.1875 0.4375 0.1875q0.25 0 0.4375 -0.140625l0 0.65625q-0.109375 0.0625 -0.234375 0.078125q-0.125 0.03125 -0.3125 0.03125zm1.0323334 -4.140625l0.703125 0l0.96875 3.21875l0 0l1.03125 -3.21875l0.703125 0l1.03125 3.21875l0 0l0.96875 -3.21875l0.6875 0l-1.3125 4.078125l-0.6875 0l-1.0625 -3.25l-1.046875 3.25l-0.671875 0l-1.3125 -4.078125zm8.46405 4.203125q-0.609375 0 -1.09375 -0.28125q-0.46875 -0.296875 -0.75 -0.78125q-0.265625 -0.5 -0.265625 -1.109375q0 -0.59375 0.265625 -1.078125q0.28125 -0.5 0.75 -0.78125q0.484375 -0.296875 1.09375 -0.296875q0.59375 0 1.0625 0.296875q0.484375 0.28125 0.75 0.78125q0.28125 0.484375 0.28125 1.078125q0 0.609375 -0.28125 1.109375q-0.265625 0.484375 -0.75 0.78125q-0.46875 0.28125 -1.0625 0.28125zm0 -0.609375q0.375 0 0.6875 -0.1875q0.328125 -0.1875 0.515625 -0.53125q0.203125 -0.359375 0.203125 -0.84375q0 -0.46875 -0.203125 -0.8125q-0.1875 -0.359375 -0.515625 -0.546875q-0.3125 -0.1875 -0.6875 -0.1875q-0.375 0 -0.703125 0.1875q-0.328125 0.1875 -0.53125 0.546875q-0.203125 0.34375 -0.203125 0.8125q0 0.484375 0.203125 0.84375q0.203125 0.34375 0.53125 0.53125q0.328125 0.1875 0.703125 0.1875zm2.7973175 -3.59375l0.65625 0l0 0.65625l0.03125 0q0.109375 -0.34375 0.453125 -0.5625q0.34375 -0.21875 0.734375 -0.21875q0.265625 0 0.46875 0.078125l0 0.734375q-0.25 -0.125 -0.578125 -0.125q-0.296875 0 -0.546875 0.171875q-0.234375 0.171875 -0.390625 0.453125q-0.140625 0.28125 -0.140625 0.609375l0 2.28125l-0.6875 0l0 -4.078125zm3.0399475 -1.65625l0.6875 0l0 3.609375l1.921875 -1.953125l0.859375 0l0 0.03125l-1.59375 1.609375l1.640625 2.40625l0 0.03125l-0.8125 0l-1.3125 -1.953125l-0.703125 0.703125l0 1.25l-0.6875 0l0 -5.734375zm3.5399475 5.734375l0 0zm3.9128418 -5.734375l0.765625 0l2.171875 5.734375l-0.734375 0l-0.578125 -1.578125l-2.484375 0l-0.578125 1.578125l-0.734375 0l2.171875 -5.734375zm1.390625 3.515625l-0.765625 -2.0625l-0.21875 -0.609375l-0.046875 0l-0.21875 0.609375l-0.765625 2.0625l2.015625 0z" fill-rule="nonzero"/><path fill="#000000" fill-opacity="0.0" d="m262.6237 290.35776l-225.54346 0l-0.4327011 0l-0.843647 -0.3635254l-0.76628876 -0.6730652l-0.6647644 -0.93344116l-0.58741 -1.1447144l-0.45928955 -1.4001465l-0.33359146 -1.5574036l-0.15229034 -1.6605225l-0.026592255 -0.8843384l0 -207.72557l0.026592255 -0.8843155l0.15229034 -1.7096786l0.33359146 -1.557373l0.45928955 -1.3510361l0.58741 -1.1938248l0.6647644 -0.9334488l0.76628876 -0.6779709l0.843647 -0.30950928l0.4327011 -0.05404663l225.54346 0l0.43511963 0.05404663l0.84365845 0.30950928l0.7662964 0.6779709l0.6647644 0.9334488l0.58740234 1.1938248l0.45928955 1.3510361l0.33117676 1.557373l0.17886353 1.7096786l0 0.8843155l0 207.72557l0 0.8843384l-0.17886353 1.6605225l-0.33117676 1.5574036l-0.45928955 1.4001465l-0.58740234 1.1447144l-0.6647644 0.93344116l-0.7662964 0.6730652l-0.84365845 0.3635254l-0.43511963 0z" fill-rule="evenodd"/><path stroke="#fbb03f" stroke-width="1.0" stroke-linejoin="round" stroke-linecap="butt" d="m262.6237 290.35776l-225.54346 0l-0.4327011 0l-0.843647 -0.3635254l-0.76628876 -0.6730652l-0.6647644 -0.93344116l-0.58741 -1.1447144l-0.45928955 -1.4001465l-0.33359146 -1.5574036l-0.15229034 -1.6605225l-0.026592255 -0.8843384l0 -207.72557l0.026592255 -0.8843155l0.15229034 -1.7096786l0.33359146 -1.557373l0.45928955 -1.3510361l0.58741 -1.1938248l0.6647644 -0.9334488l0.76628876 -0.6779709l0.843647 -0.30950928l0.4327011 -0.05404663l225.54346 0l0.43511963 0.05404663l0.84365845 0.30950928l0.7662964 0.6779709l0.6647644 0.9334488l0.58740234 1.1938248l0.45928955 1.3510361l0.33117676 1.557373l0.17886353 1.7096786l0 0.8843155l0 207.72557l0 0.8843384l-0.17886353 1.6605225l-0.33117676 1.5574036l-0.45928955 1.4001465l-0.58740234 1.1447144l-0.6647644 0.93344116l-0.7662964 0.6730652l-0.84365845 0.3635254l-0.43511963 0z" fill-rule="evenodd"/><path fill="#000000" fill-opacity="0.0" d="m38.34777 45.040684l68.220474 0l0 14.80315l-68.220474 0z" fill-rule="evenodd"/><path fill="#000000" d="m50.675896 58.64883q-0.828125 0 -1.515625 -0.390625q-0.671875 -0.390625 -1.0625 -1.078125q-0.390625 -0.6875 -0.390625 -1.515625q0 -0.84375 0.390625 -1.53125q0.390625 -0.6875 1.0625 -1.078125q0.6875 -0.390625 1.515625 -0.390625q0.640625 0 1.171875 0.25q0.53125 0.234375 0.921875 0.6875l-0.484375 0.46875q-0.328125 -0.390625 -0.71875 -0.5625q-0.390625 -0.1875 -0.890625 -0.1875q-0.625 0 -1.15625 0.296875q-0.515625 0.28125 -0.828125 0.8125q-0.296875 0.53125 -0.296875 1.234375q0 0.6875 0.296875 1.21875q0.3125 0.53125 0.828125 0.828125q0.53125 0.296875 1.15625 0.296875q1.046875 0 1.765625 -0.859375l0.5 0.484375q-0.390625 0.46875 -0.984375 0.75q-0.578125 0.265625 -1.28125 0.265625zm3.0197906 -5.859375l0.6875 0l0 5.734375l-0.6875 0l0 -5.734375zm3.172348 5.859375q-0.734375 0 -1.125 -0.421875q-0.390625 -0.4375 -0.390625 -1.21875l0 -2.5625l0.6875 0l0 2.46875q0 0.578125 0.265625 0.859375q0.265625 0.265625 0.703125 0.265625q0.34375 0 0.609375 -0.1875q0.28125 -0.1875 0.421875 -0.484375q0.140625 -0.296875 0.140625 -0.625l0 -2.296875l0.6875 0l0 4.078125l-0.640625 0l0 -0.59375l-0.046875 0q-0.15625 0.3125 -0.53125 0.515625q-0.359375 0.203125 -0.78125 0.203125zm4.3854523 0q-0.65625 0 -1.09375 -0.296875q-0.4375 -0.3125 -0.625 -0.796875l0.609375 -0.265625q0.15625 0.359375 0.453125 0.5625q0.296875 0.203125 0.65625 0.203125q0.390625 0 0.65625 -0.15625q0.28125 -0.15625 0.28125 -0.453125q0 -0.25 -0.21875 -0.40625q-0.21875 -0.15625 -0.6875 -0.265625l-0.484375 -0.125q-0.5 -0.125 -0.8125 -0.40625q-0.296875 -0.296875 -0.296875 -0.75q0 -0.359375 0.203125 -0.625q0.21875 -0.265625 0.5625 -0.40625q0.359375 -0.140625 0.765625 -0.140625q0.53125 0 0.953125 0.234375q0.421875 0.21875 0.59375 0.640625l-0.59375 0.265625q-0.265625 -0.53125 -0.96875 -0.53125q-0.328125 0 -0.578125 0.15625q-0.25 0.15625 -0.25 0.390625q0 0.21875 0.171875 0.359375q0.171875 0.140625 0.53125 0.234375l0.59375 0.15625q0.59375 0.140625 0.890625 0.453125q0.3125 0.296875 0.3125 0.71875q0 0.375 -0.21875 0.671875q-0.21875 0.28125 -0.59375 0.4375q-0.359375 0.140625 -0.8125 0.140625zm3.9002075 -0.0625q-0.25 0 -0.46875 -0.078125q-0.203125 -0.078125 -0.359375 -0.21875q-0.3125 -0.296875 -0.3125 -0.84375l0 -2.390625l-0.71875 0l0 -0.609375l0.71875 0l0 -1.15625l0.671875 0l0 1.15625l1.0 0l0 0.609375l-1.0 0l0 2.234375q0 0.328125 0.140625 0.484375q0.140625 0.1875 0.4375 0.1875q0.25 0 0.4375 -0.140625l0 0.65625q-0.109375 0.0625 -0.234375 0.078125q-0.125 0.03125 -0.3125 0.03125zm2.9863434 0.0625q-0.578125 0 -1.046875 -0.28125q-0.453125 -0.28125 -0.71875 -0.765625q-0.265625 -0.5 -0.265625 -1.109375q0 -0.578125 0.25 -1.078125q0.25 -0.5 0.703125 -0.796875q0.453125 -0.296875 1.03125 -0.296875q0.59375 0 1.03125 0.265625q0.453125 0.265625 0.6875 0.734375q0.234375 0.46875 0.234375 1.078125q0 0.09375 -0.015625 0.21875l-3.234375 0q0.015625 0.453125 0.21875 0.78125q0.203125 0.3125 0.515625 0.484375q0.3125 0.15625 0.640625 0.15625q0.796875 0 1.203125 -0.734375l0.578125 0.28125q-0.25 0.484375 -0.71875 0.78125q-0.453125 0.28125 -1.09375 0.28125zm1.1875 -2.59375q-0.015625 -0.265625 -0.15625 -0.515625q-0.125 -0.25 -0.390625 -0.421875q-0.265625 -0.1875 -0.6875 -0.1875q-0.484375 0 -0.828125 0.3125q-0.328125 0.3125 -0.421875 0.8125l2.484375 0zm1.5039368 -1.609375l0.65625 0l0 0.65625l0.03125 0q0.109375 -0.34375 0.453125 -0.5625q0.34375 -0.21875 0.734375 -0.21875q0.265625 0 0.46875 0.078125l0 0.734375q-0.25 -0.125 -0.578125 -0.125q-0.296875 0 -0.546875 0.171875q-0.234375 0.171875 -0.390625 0.453125q-0.140625 0.28125 -0.140625 0.609375l0 2.28125l-0.6875 0l0 -4.078125z" fill-rule="nonzero"/><path fill="#e6e6e6" d="m241.63748 153.54593l-0.34683228 0.035995483l-0.6216583 0.2748413l-0.48423767 0.4482422l-0.2748413 0.62493896l0 0.34355164l0 45.15898l0 0.34683228l0.2748413 0.6216583l0.48423767 0.48423767l0.6216583 0.24212646l0.34683228 0.032714844l45.122986 0l0.37954712 -0.032714844l0.6216736 -0.24212646l0.45150757 -0.48423767l0.2748413 -0.6216583l0 -0.34683228l0 -45.15898l0 -0.34355164l-0.2748413 -0.62493896l-0.45150757 -0.4482422l-0.6216736 -0.2748413l-0.37954712 -0.035995483z" fill-rule="evenodd"/><path fill="#ffffff" d="m245.68156 185.94444l-0.34355164 0.035980225l-0.6216583 0.2748413l-0.48425293 0.4515381l-0.2421112 0.6216583l-0.035995483 0.34355164l0 8.716385l0.035995483 0.34355164l0.2421112 0.6216583l0.48425293 0.48425293l0.6216583 0.2421112l0.34355164 0.035995483l37.034805 0l0.3435669 -0.035995483l0.6216736 -0.2421112l0.4842224 -0.48425293l0.2781372 -0.6216583l0 -0.34355164l0 -8.716385l0 -0.34355164l-0.2781372 -0.6216583l-0.4842224 -0.4515381l-0.6216736 -0.2748413l-0.3435669 -0.035980225z" fill-rule="evenodd"/><path fill="#ffffff" d="m253.42946 157.626l-0.6249237 0.2748413l-0.48425293 0.45152283l-0.23884583 0.6216583l-0.035995483 0.37954712l0 20.815933l0.035995483 0.34681702l0.23884583 0.6216736l0.48425293 0.48423767l0.6249237 0.2781067l21.539017 0l0.62493896 -0.2781067l0.48425293 -0.48423767l0.24212646 -0.6216736l0.032714844 -0.34681702l0 -20.815933l-0.032714844 -0.37954712l-0.24212646 -0.6216583l-0.48425293 -0.45152283l-0.62493896 -0.2748413z" fill-rule="evenodd"/><path fill="#000000" fill-opacity="0.0" d="m270.16205 173.18396l0 -6.880829l-5.9450684 -3.4224243l-5.981079 3.4224243l0 6.880829l5.981079 3.4584198l5.9450684 -3.4584198z" fill-rule="evenodd"/><path stroke="#b14d9d" stroke-width="1.3858267716535433" stroke-linejoin="round" stroke-linecap="butt" d="m270.16205 173.18396l0 -6.880829l-5.9450684 -3.4224243l-5.981079 3.4224243l0 6.880829l5.981079 3.4584198l5.9450684 -3.4584198z" fill-rule="evenodd"/><path fill="#000000" fill-opacity="0.0" d="m239.0315 177.87401l52.661407 0l0 14.803162l-52.661407 0z" fill-rule="evenodd"/><path fill="#000000" d="m251.35962 191.48216q-0.8125 0 -1.5 -0.390625q-0.671875 -0.390625 -1.078125 -1.078125q-0.390625 -0.6875 -0.390625 -1.515625q0 -0.84375 0.390625 -1.53125q0.40625 -0.6875 1.078125 -1.078125q0.6875 -0.390625 1.5 -0.390625q0.625 0 1.1875 0.234375q0.5625 0.21875 0.921875 0.625l-0.484375 0.484375q-0.28125 -0.328125 -0.703125 -0.5q-0.421875 -0.1875 -0.90625 -0.1875q-0.609375 0 -1.140625 0.296875q-0.515625 0.28125 -0.84375 0.8125q-0.3125 0.53125 -0.3125 1.234375q0 0.6875 0.3125 1.21875q0.328125 0.53125 0.84375 0.828125q0.53125 0.296875 1.140625 0.296875q0.5625 0 0.953125 -0.171875q0.390625 -0.1875 0.671875 -0.484375q0.203125 -0.234375 0.328125 -0.546875q0.140625 -0.3125 0.171875 -0.703125l-2.125 0l0 -0.625l2.75 0q0.046875 0.21875 0.046875 0.421875q0 0.515625 -0.171875 1.015625q-0.171875 0.5 -0.53125 0.875q-0.796875 0.859375 -2.109375 0.859375zm4.8683167 0q-0.45314026 0 -0.81251526 -0.171875q-0.34375 -0.171875 -0.546875 -0.484375q-0.1875 -0.3125 -0.1875 -0.703125q0 -0.640625 0.484375 -1.0q0.5 -0.375 1.2343903 -0.375q0.375 0 0.6875 0.078125q0.3125 0.078125 0.484375 0.1875l0 -0.25q0 -0.453125 -0.328125 -0.71875q-0.3125 -0.28125 -0.796875 -0.28125q-0.328125 0 -0.62501526 0.15625q-0.296875 0.140625 -0.46875 0.390625l-0.5 -0.375q0.234375 -0.375 0.65625 -0.578125q0.421875 -0.203125 0.93751526 -0.203125q0.828125 0 1.296875 0.4375q0.484375 0.421875 0.484375 1.1875l0 2.578125l-0.65625 0l0 -0.578125l-0.03125 0q-0.171875 0.296875 -0.53125 0.5q-0.34375 0.203125 -0.78125 0.203125zm0.0625 -0.59375q0.34375 0 0.640625 -0.171875q0.296875 -0.1875 0.46875 -0.484375q0.171875 -0.296875 0.171875 -0.640625q-0.1875 -0.125 -0.46875 -0.203125q-0.28125 -0.09375 -0.59375 -0.09375q-0.56251526 0 -0.84376526 0.234375q-0.28125 0.234375 -0.28125 0.609375q0 0.328125 0.25 0.546875q0.265625 0.203125 0.65626526 0.203125zm4.371063 0.53125q-0.25 0 -0.46875 -0.078125q-0.203125 -0.078125 -0.359375 -0.21875q-0.3125 -0.296875 -0.3125 -0.84375l0 -2.390625l-0.71875 0l0 -0.609375l0.71875 0l0 -1.15625l0.671875 0l0 1.15625l1.0 0l0 0.609375l-1.0 0l0 2.234375q0 0.328125 0.140625 0.484375q0.140625 0.1875 0.4375 0.1875q0.25 0 0.4375 -0.140625l0 0.65625q-0.109375 0.0625 -0.234375 0.078125q-0.125 0.03125 -0.3125 0.03125zm2.9863281 0.0625q-0.578125 0 -1.046875 -0.28125q-0.453125 -0.28125 -0.71875 -0.765625q-0.265625 -0.5 -0.265625 -1.109375q0 -0.578125 0.25 -1.078125q0.25 -0.5 0.703125 -0.796875q0.453125 -0.296875 1.03125 -0.296875q0.59375 0 1.03125 0.265625q0.453125 0.265625 0.6875 0.734375q0.234375 0.46875 0.234375 1.078125q0 0.09375 -0.015625 0.21875l-3.234375 0q0.015625 0.453125 0.21875 0.78125q0.203125 0.3125 0.515625 0.484375q0.3125 0.15625 0.640625 0.15625q0.796875 0 1.203125 -0.734375l0.578125 0.28125q-0.25 0.484375 -0.71875 0.78125q-0.453125 0.28125 -1.09375 0.28125zm1.1875 -2.59375q-0.015625 -0.265625 -0.15625 -0.515625q-0.125 -0.25 -0.390625 -0.421875q-0.265625 -0.1875 -0.6875 -0.1875q-0.484375 0 -0.828125 0.3125q-0.328125 0.3125 -0.421875 0.8125l2.484375 0zm0.9864502 -1.609375l0.703125 0l0.96875 3.21875l0 0l1.03125 -3.21875l0.703125 0l1.03125 3.21875l0 0l0.96875 -3.21875l0.6875 0l-1.3125 4.078125l-0.6875 0l-1.0625 -3.25l-1.046875 3.25l-0.671875 0l-1.3125 -4.078125zm7.8859253 4.203125q-0.453125 0 -0.8125 -0.171875q-0.34375 -0.171875 -0.546875 -0.484375q-0.1875 -0.3125 -0.1875 -0.703125q0 -0.640625 0.484375 -1.0q0.5 -0.375 1.234375 -0.375q0.375 0 0.6875 0.078125q0.3125 0.078125 0.484375 0.1875l0 -0.25q0 -0.453125 -0.328125 -0.71875q-0.3125 -0.28125 -0.796875 -0.28125q-0.328125 0 -0.625 0.15625q-0.296875 0.140625 -0.46875 0.390625l-0.5 -0.375q0.234375 -0.375 0.65625 -0.578125q0.421875 -0.203125 0.9375 -0.203125q0.828125 0 1.296875 0.4375q0.484375 0.421875 0.484375 1.1875l0 2.578125l-0.65625 0l0 -0.578125l-0.03125 0q-0.171875 0.296875 -0.53125 0.5q-0.34375 0.203125 -0.78125 0.203125zm0.0625 -0.59375q0.34375 0 0.640625 -0.171875q0.296875 -0.1875 0.46875 -0.484375q0.171875 -0.296875 0.171875 -0.640625q-0.1875 -0.125 -0.46875 -0.203125q-0.28125 -0.09375 -0.59375 -0.09375q-0.5625 0 -0.84375 0.234375q-0.28125 0.234375 -0.28125 0.609375q0 0.328125 0.25 0.546875q0.265625 0.203125 0.65625 0.203125zm4.042938 0.21875l-1.6875 -3.828125l0.734375 0l1.28125 3.03125l0.015625 0l1.234375 -3.03125l0.734375 0l-2.515625 5.8125l-0.703125 0l0.90625 -1.984375z" fill-rule="nonzero"/><path fill="#e6e6e6" d="m116.6706 233.8084l-0.275589 0.028869629l-0.50131226 0.19422913l-0.359581 0.38845825l-0.22309875 0.49868774l-0.026245117 0.2782135l0 30.50917l0.026245117 0.27822876l0.22309875 0.49868774l0.359581 0.38845825l0.50131226 0.19421387l0.275589 0.028869629l59.608925 0l0.275589 -0.028869629l0.49868774 -0.19421387l0.36221313 -0.38845825l0.22047424 -0.49868774l0.028869629 -0.27822876l0 -30.50917l-0.028869629 -0.2782135l-0.22047424 -0.49868774l-0.36221313 -0.38845825l-0.49868774 -0.19422913l-0.275589 -0.028869629z" fill-rule="evenodd"/><path fill="#ffffff" d="m120.83071 237.9685l-0.30446625 0.028869629l-0.49868774 0.19422913l-0.359581 0.388443l-0.22309113 0.49868774l0 0.2782135l0 22.18898l0 0.27822876l0.22309113 0.49868774l0.359581 0.38842773l0.49868774 0.19424438l0.30446625 0.026245117l51.314964 0l0.2782135 -0.026245117l0.49868774 -0.19424438l0.35957336 -0.38842773l0.22309875 -0.49868774l0.026245117 -0.27822876l0 -22.18898l-0.026245117 -0.2782135l-0.22309875 -0.49868774l-0.35957336 -0.388443l-0.49868774 -0.19422913l-0.2782135 -0.028869629z" fill-rule="evenodd"/><path fill="#466bb0" d="m125.796585 257.6063l4.771652 2.3858337l7.9317627 -2.3858337z" fill-rule="evenodd"/><path fill="#466bb0" d="m130.56824 247.26247l-4.771652 9.540695l4.771652 -0.80578613l0 -8.734909z" fill-rule="evenodd"/><path fill="#476baf" d="m131.34514 240.91077l0 15.086609l7.1548615 0.80578613l-7.1548615 -15.892395z" fill-rule="evenodd"/><path fill="#000000" fill-opacity="0.0" d="m134.60359 243.53806l40.503937 0l0 13.826782l-40.503937 0z" fill-rule="evenodd"/><path fill="#000000" d="m145.48431 247.39706l0.671875 0l0 5.734375l-0.671875 0l0 -5.734375zm3.2412262 5.859375q-0.65625 0 -1.09375 -0.296875q-0.4375 -0.3125 -0.625 -0.796875l0.609375 -0.265625q0.15625 0.359375 0.453125 0.5625q0.296875 0.203125 0.65625 0.203125q0.390625 0 0.65625 -0.15625q0.28125 -0.15625 0.28125 -0.453125q0 -0.25 -0.21875 -0.40625q-0.21875 -0.15625 -0.6875 -0.265625l-0.484375 -0.125q-0.5 -0.125 -0.8125 -0.40625q-0.296875 -0.296875 -0.296875 -0.75q0 -0.359375 0.203125 -0.625q0.21875 -0.265625 0.5625 -0.40625q0.359375 -0.140625 0.765625 -0.140625q0.53125 0 0.953125 0.234375q0.421875 0.21875 0.59375 0.640625l-0.59375 0.265625q-0.265625 -0.53125 -0.96875 -0.53125q-0.328125 0 -0.578125 0.15625q-0.25 0.15625 -0.25 0.390625q0 0.21875 0.171875 0.359375q0.171875 0.140625 0.53125 0.234375l0.59375 0.15625q0.59375 0.140625 0.890625 0.453125q0.3125 0.296875 0.3125 0.71875q0 0.375 -0.21875 0.671875q-0.21875 0.28125 -0.59375 0.4375q-0.359375 0.140625 -0.8125 0.140625zm3.9002075 -0.0625q-0.25 0 -0.46875 -0.078125q-0.203125 -0.078125 -0.359375 -0.21875q-0.3125 -0.296875 -0.3125 -0.84375l0 -2.390625l-0.71875 0l0 -0.609375l0.71875 0l0 -1.15625l0.671875 0l0 1.15625l1.0 0l0 0.609375l-1.0 0l0 2.234375q0 0.328125 0.140625 0.484375q0.140625 0.1875 0.4375 0.1875q0.25 0 0.4375 -0.140625l0 0.65625q-0.109375 0.0625 -0.234375 0.078125q-0.125 0.03125 -0.3125 0.03125zm1.7960815 -4.890625q-0.203125 0 -0.34375 -0.140625q-0.140625 -0.15625 -0.140625 -0.34375q0 -0.21875 0.140625 -0.359375q0.140625 -0.140625 0.34375 -0.140625q0.203125 0 0.34375 0.140625q0.140625 0.140625 0.140625 0.359375q0 0.1875 -0.140625 0.34375q-0.140625 0.140625 -0.34375 0.140625zm-0.34375 0.75l0.6875 0l0 4.078125l-0.6875 0l0 -4.078125zm3.596115 4.203125q-0.609375 0 -1.09375 -0.28125q-0.46875 -0.296875 -0.75 -0.78125q-0.265625 -0.5 -0.265625 -1.109375q0 -0.59375 0.265625 -1.078125q0.28125 -0.5 0.75 -0.78125q0.484375 -0.296875 1.09375 -0.296875q0.59375 0 1.0625 0.296875q0.484375 0.28125 0.75 0.78125q0.28125 0.484375 0.28125 1.078125q0 0.609375 -0.28125 1.109375q-0.265625 0.484375 -0.75 0.78125q-0.46875 0.28125 -1.0625 0.28125zm0 -0.609375q0.375 0 0.6875 -0.1875q0.328125 -0.1875 0.515625 -0.53125q0.203125 -0.359375 0.203125 -0.84375q0 -0.46875 -0.203125 -0.8125q-0.1875 -0.359375 -0.515625 -0.546875q-0.3125 -0.1875 -0.6875 -0.1875q-0.375 0 -0.703125 0.1875q-0.328125 0.1875 -0.53125 0.546875q-0.203125 0.34375 -0.203125 0.8125q0 0.484375 0.203125 0.84375q0.203125 0.34375 0.53125 0.53125q0.328125 0.1875 0.703125 0.1875zm4.6116943 0.609375q-0.546875 0 -1.0 -0.28125q-0.4375 -0.28125 -0.703125 -0.765625q-0.25 -0.5 -0.25 -1.125q0 -0.609375 0.25 -1.09375q0.265625 -0.5 0.703125 -0.78125q0.453125 -0.28125 1.0 -0.28125q0.46875 0 0.828125 0.21875q0.375 0.203125 0.5625 0.515625l0.03125 0l-0.03125 -0.578125l0 -1.6875l0.6875 0l0 5.734375l-0.65625 0l0 -0.59375l-0.03125 0q-0.1875 0.296875 -0.5625 0.515625q-0.359375 0.203125 -0.828125 0.203125zm0.078125 -0.609375q0.359375 0 0.65625 -0.1875q0.3125 -0.203125 0.5 -0.546875q0.1875 -0.359375 0.1875 -0.828125q0 -0.453125 -0.1875 -0.796875q-0.1875 -0.359375 -0.5 -0.546875q-0.296875 -0.203125 -0.65625 -0.203125q-0.359375 0 -0.671875 0.203125q-0.296875 0.1875 -0.5 0.546875q-0.1875 0.34375 -0.1875 0.796875q0 0.46875 0.1875 0.828125q0.203125 0.34375 0.5 0.546875q0.3125 0.1875 0.671875 0.1875z" fill-rule="nonzero"/><path fill="#e6e6e6" d="m340.22964 114.19554l-0.27557373 0.028869629l-0.50131226 0.1942215l-0.38583374 0.38845062l-0.2230835 0.49868774l0 0.27822113l0 30.509178l0 0.2782135l0.2230835 0.49868774l0.38583374 0.38845825l0.50131226 0.19422913l0.27557373 0.028869629l93.77954 0l0.27822876 -0.028869629l0.49868774 -0.19422913l0.3595581 -0.38845825l0.22311401 -0.49868774l0.028869629 -0.2782135l0 -30.509178l-0.028869629 -0.27822113l-0.22311401 -0.49868774l-0.3595581 -0.38845062l-0.49868774 -0.1942215l-0.27822876 -0.028869629z" fill-rule="evenodd"/><path fill="#ffffff" d="m346.1378 118.355644l-0.27557373 0.028869629l-0.50131226 0.19422913l-0.38845825 0.38845062l-0.22045898 0.49868774l0 0.2782135l0 22.18898l0 0.2782135l0.22045898 0.49868774l0.38845825 0.388443l0.50131226 0.19422913l0.27557373 0.026245117l22.19162 0l0.27557373 -0.026245117l0.49868774 -0.19422913l0.36221313 -0.388443l0.22045898 -0.49868774l0.028869629 -0.2782135l0 -22.18898l-0.028869629 -0.2782135l-0.22045898 -0.49868774l-0.36221313 -0.38845062l-0.49868774 -0.19422913l-0.27557373 -0.028869629z" fill-rule="evenodd"/><path fill="#000000" fill-opacity="0.0" d="m363.36353 134.36089l0 -7.0734863l-6.131256 -3.5223083l-6.128601 3.5223083l0 7.0734863l6.128601 3.5511932l6.131256 -3.5511932z" fill-rule="evenodd"/><path stroke="#b14d9d" stroke-width="1.3858267716535433" stroke-linejoin="round" stroke-linecap="butt" d="m363.36353 134.36089l0 -7.0734863l-6.131256 -3.5223083l-6.128601 3.5223083l0 7.0734863l6.128601 3.5511932l6.131256 -3.5511932z" fill-rule="evenodd"/><path fill="#ffffff" d="m376.34515 118.355644l-0.27822876 0.028869629l-0.49868774 0.19422913l-0.38845825 0.38845062l-0.2230835 0.49868774l0 0.2782135l0 22.18898l0 0.2782135l0.2230835 0.49868774l0.38845825 0.388443l0.49868774 0.19422913l0.27822876 0.026245117l51.312317 0l0.27822876 -0.026245117l0.49868774 -0.19422913l0.35958862 -0.388443l0.2230835 -0.49868774l0.026245117 -0.2782135l0 -22.18898l-0.026245117 -0.2782135l-0.2230835 -0.49868774l-0.35958862 -0.38845062l-0.49868774 -0.19422913l-0.27822876 -0.028869629z" fill-rule="evenodd"/><path fill="#767576" d="m385.08267 122.51837l-0.8609009 0.026245117l-1.6377869 0.33333588l-1.4698181 0.6377945l-1.3306885 0.88713837l-1.1365051 1.1364822l-0.8871155 1.3333359l-0.6378174 1.4698105l-0.333313 1.6351776l-0.028869629 0.8608856l0.028869629 0.8609009l0.333313 1.6062927l0.6378174 1.4986877l0.8871155 1.330719l1.1365051 1.1390991l1.3306885 0.887146l1.4698181 0.63778687l1.6377869 0.3333435l0.8609009 0.026245117l0.85827637 -0.026245117l1.6089172 -0.3333435l1.4986877 -0.63778687l1.330719 -0.887146l1.1364746 -1.1390991l0.887146 -1.330719l0.63778687 -1.4986877l0.3333435 -1.6062927l0.028869629 -0.8609009l-0.028869629 -0.8608856l-0.3333435 -1.6351776l-0.63778687 -1.4698105l-0.887146 -1.3333359l-1.1364746 -1.1364822l-1.330719 -0.88713837l-1.4986877 -0.6377945l-1.6089172 -0.33333588l-0.85827637 -0.026245117z" fill-rule="evenodd"/><path fill="#000000" fill-opacity="0.0" d="m388.0223 133.7231l-5.908142 0l0 -5.9081345l5.908142 0l0 5.9081345z" fill-rule="evenodd"/><path stroke="#ffffff" stroke-width="0.916010498687664" stroke-linejoin="round" stroke-linecap="butt" d="m388.0223 133.7231l-5.908142 0l0 -5.9081345l5.908142 0l0 5.9081345z" fill-rule="evenodd"/><path fill="#000000" fill-opacity="0.0" d="m383.22177 127.814964l0 -1.4147034" fill-rule="evenodd"/><path stroke="#ffffff" stroke-width="0.916010498687664" stroke-miterlimit="105.678" stroke-linecap="round" d="m383.22177 127.814964l0 -1.4147034" fill-rule="evenodd"/><path fill="#000000" fill-opacity="0.0" d="m385.08267 127.814964l0 -1.4147034" fill-rule="evenodd"/><path stroke="#ffffff" stroke-width="0.916010498687664" stroke-miterlimit="105.678" stroke-linecap="round" d="m385.08267 127.814964l0 -1.4147034" fill-rule="evenodd"/><path fill="#000000" fill-opacity="0.0" d="m386.94095 127.814964l0 -1.4147034" fill-rule="evenodd"/><path stroke="#ffffff" stroke-width="0.916010498687664" stroke-miterlimit="105.678" stroke-linecap="round" d="m386.94095 127.814964l0 -1.4147034" fill-rule="evenodd"/><path fill="#000000" fill-opacity="0.0" d="m383.22177 135.2769l0 -1.443573" fill-rule="evenodd"/><path stroke="#ffffff" stroke-width="0.916010498687664" stroke-miterlimit="105.678" stroke-linecap="round" d="m383.22177 135.2769l0 -1.443573" fill-rule="evenodd"/><path fill="#000000" fill-opacity="0.0" d="m385.08267 135.2769l0 -1.443573" fill-rule="evenodd"/><path stroke="#ffffff" stroke-width="0.916010498687664" stroke-miterlimit="105.678" stroke-linecap="round" d="m385.08267 135.2769l0 -1.443573" fill-rule="evenodd"/><path fill="#000000" fill-opacity="0.0" d="m386.94095 135.2769l0 -1.443573" fill-rule="evenodd"/><path stroke="#ffffff" stroke-width="0.916010498687664" stroke-miterlimit="105.678" stroke-linecap="round" d="m386.94095 135.2769l0 -1.443573" fill-rule="evenodd"/><path fill="#000000" fill-opacity="0.0" d="m382.05905 132.69685l-1.4147034 0" fill-rule="evenodd"/><path stroke="#ffffff" stroke-width="0.916010498687664" stroke-miterlimit="105.678" stroke-linecap="round" d="m382.05905 132.69685l-1.4147034 0" fill-rule="evenodd"/><path fill="#000000" fill-opacity="0.0" d="m382.05905 130.83858l-1.4147034 0" fill-rule="evenodd"/><path stroke="#ffffff" stroke-width="0.916010498687664" stroke-miterlimit="105.678" stroke-linecap="round" d="m382.05905 130.83858l-1.4147034 0" fill-rule="evenodd"/><path fill="#000000" fill-opacity="0.0" d="m382.05905 128.98032l-1.4147034 0" fill-rule="evenodd"/><path stroke="#ffffff" stroke-width="0.916010498687664" stroke-miterlimit="105.678" stroke-linecap="round" d="m382.05905 128.98032l-1.4147034 0" fill-rule="evenodd"/><path fill="#000000" fill-opacity="0.0" d="m389.51837 132.69685l-1.4409485 0" fill-rule="evenodd"/><path stroke="#ffffff" stroke-width="0.916010498687664" stroke-miterlimit="105.678" stroke-linecap="round" d="m389.51837 132.69685l-1.4409485 0" fill-rule="evenodd"/><path fill="#000000" fill-opacity="0.0" d="m389.51837 130.83858l-1.4409485 0" fill-rule="evenodd"/><path stroke="#ffffff" stroke-width="0.916010498687664" stroke-miterlimit="105.678" stroke-linecap="round" d="m389.51837 130.83858l-1.4409485 0" fill-rule="evenodd"/><path fill="#000000" fill-opacity="0.0" d="m389.51837 128.98032l-1.4409485 0" fill-rule="evenodd"/><path stroke="#ffffff" stroke-width="0.916010498687664" stroke-miterlimit="105.678" stroke-linecap="round" d="m389.51837 128.98032l-1.4409485 0" fill-rule="evenodd"/><path fill="#ffffff" d="m384.6942 129.45276l-0.19421387 0.026245117l-0.3333435 0.13909912l-0.24932861 0.24934387l-0.13909912 0.3333435l0 0.19422913l0 0.77690125l0 0.19421387l0.13909912 0.3333435l0.24932861 0.24934387l0.3333435 0.13647461l1.1627197 0l0.3333435 -0.13647461l0.24932861 -0.24934387l0.13912964 -0.3333435l0 -0.19421387l0 -0.77690125l0 -0.19422913l-0.13912964 -0.3333435l-0.24932861 -0.24934387l-0.3333435 -0.13909912l-0.19421387 -0.026245117z" fill-rule="evenodd"/><path fill="#000000" fill-opacity="0.0" d="m385.80185 118.350395l49.5748 0l0 24.976372l-49.5748 0z" fill-rule="evenodd"/><path fill="#000000" d="m396.66122 133.34796q-0.359375 0 -0.703125 -0.140625q-0.328125 -0.15625 -0.59375 -0.4375q-0.25 -0.296875 -0.359375 -0.71875l0.53125 -0.21875q0.125 0.421875 0.421875 0.703125q0.3125 0.265625 0.71875 0.265625q0.421875 0 0.703125 -0.21875q0.28125 -0.21875 0.28125 -0.609375q0 -0.328125 -0.25 -0.546875q-0.234375 -0.21875 -0.78125 -0.40625l-0.296875 -0.109375q-0.515625 -0.171875 -0.84375 -0.46875q-0.3125 -0.296875 -0.3125 -0.8125q0 -0.34375 0.1875 -0.625q0.1875 -0.296875 0.515625 -0.46875q0.34375 -0.171875 0.75 -0.171875q0.421875 0 0.71875 0.15625q0.3125 0.15625 0.484375 0.375q0.1875 0.21875 0.265625 0.4375l-0.53125 0.21875q-0.0625 -0.25 -0.3125 -0.4375q-0.234375 -0.203125 -0.609375 -0.203125q-0.375 0 -0.640625 0.203125q-0.25 0.203125 -0.25 0.515625q0 0.28125 0.21875 0.46875q0.21875 0.171875 0.671875 0.3125l0.3125 0.109375q0.59375 0.21875 0.9375 0.546875q0.34375 0.328125 0.34375 0.90625q0 0.453125 -0.234375 0.765625q-0.234375 0.3125 -0.59375 0.46875q-0.359375 0.140625 -0.75 0.140625zm3.8188782 0q-0.5 0 -0.890625 -0.234375q-0.375 -0.234375 -0.59375 -0.640625q-0.21875 -0.40625 -0.21875 -0.921875q0 -0.484375 0.203125 -0.90625q0.203125 -0.421875 0.578125 -0.65625q0.375 -0.25 0.875 -0.25q0.5 0 0.859375 0.21875q0.359375 0.21875 0.546875 0.625q0.203125 0.390625 0.203125 0.890625q0 0.078125 0 0.171875l-2.6875 0q0.015625 0.390625 0.171875 0.65625q0.171875 0.265625 0.421875 0.40625q0.265625 0.125 0.546875 0.125q0.65625 0 1.0 -0.609375l0.484375 0.234375q-0.21875 0.40625 -0.59375 0.65625q-0.375 0.234375 -0.90625 0.234375zm0.96875 -2.171875q-0.015625 -0.203125 -0.125 -0.421875q-0.09375 -0.21875 -0.328125 -0.359375q-0.21875 -0.140625 -0.5625 -0.140625q-0.40625 0 -0.6875 0.265625q-0.28125 0.25 -0.359375 0.65625l2.0625 0zm1.2630615 -1.328125l0.53125 0l0 0.546875l0.03125 0q0.09375 -0.28125 0.375 -0.46875q0.296875 -0.1875 0.609375 -0.1875q0.234375 0 0.40625 0.078125l0 0.609375q-0.21875 -0.109375 -0.484375 -0.109375q-0.25 0 -0.453125 0.140625q-0.203125 0.140625 -0.328125 0.375q-0.125 0.234375 -0.125 0.515625l0 1.890625l-0.5625 0l0 -3.390625zm2.234375 0l0.609375 0l1.046875 2.71875l0.015625 0l1.0625 -2.71875l0.59375 0l-1.390625 3.390625l-0.5625 0l-1.375 -3.390625zm4.1243896 -0.625q-0.171875 0 -0.296875 -0.125q-0.109375 -0.125 -0.109375 -0.28125q0 -0.171875 0.109375 -0.28125q0.125 -0.125 0.296875 -0.125q0.171875 0 0.28125 0.125q0.125 0.109375 0.125 0.28125q0 0.15625 -0.125 0.28125q-0.109375 0.125 -0.28125 0.125zm-0.28125 0.625l0.5625 0l0 3.390625l-0.5625 0l0 -3.390625zm2.9553223 3.5q-0.484375 0 -0.890625 -0.234375q-0.390625 -0.234375 -0.609375 -0.640625q-0.21875 -0.421875 -0.21875 -0.9375q0 -0.5 0.21875 -0.90625q0.21875 -0.421875 0.609375 -0.65625q0.40625 -0.234375 0.890625 -0.234375q0.5625 0 0.9375 0.265625q0.375 0.25 0.53125 0.671875l-0.515625 0.21875q-0.125 -0.3125 -0.375 -0.46875q-0.25 -0.171875 -0.59375 -0.171875q-0.3125 0 -0.578125 0.171875q-0.25 0.15625 -0.40625 0.453125q-0.15625 0.28125 -0.15625 0.65625q0 0.390625 0.15625 0.6875q0.15625 0.28125 0.40625 0.453125q0.265625 0.15625 0.578125 0.15625q0.359375 0 0.609375 -0.15625q0.265625 -0.171875 0.390625 -0.484375l0.5 0.21875q-0.171875 0.421875 -0.5625 0.6875q-0.375 0.25 -0.921875 0.25zm3.5852966 0q-0.5 0 -0.890625 -0.234375q-0.375 -0.234375 -0.59375 -0.640625q-0.21875 -0.40625 -0.21875 -0.921875q0 -0.484375 0.203125 -0.90625q0.203125 -0.421875 0.578125 -0.65625q0.375 -0.25 0.875 -0.25q0.5 0 0.859375 0.21875q0.359375 0.21875 0.546875 0.625q0.203125 0.390625 0.203125 0.890625q0 0.078125 0 0.171875l-2.6875 0q0.015625 0.390625 0.171875 0.65625q0.171875 0.265625 0.421875 0.40625q0.265625 0.125 0.546875 0.125q0.65625 0 1.0 -0.609375l0.484375 0.234375q-0.21875 0.40625 -0.59375 0.65625q-0.375 0.234375 -0.90625 0.234375zm0.96875 -2.171875q-0.015625 -0.203125 -0.125 -0.421875q-0.09375 -0.21875 -0.328125 -0.359375q-0.21875 -0.140625 -0.5625 -0.140625q-0.40625 0 -0.6875 0.265625q-0.28125 0.25 -0.359375 0.65625l2.0625 0zm0.8411865 2.0625l0 0zm2.07547 -4.765625l1.71875 0q0.359375 0 0.671875 0.171875q0.3125 0.15625 0.5 0.453125q0.1875 0.296875 0.1875 0.65625q0 0.34375 -0.1875 0.609375q-0.171875 0.265625 -0.46875 0.40625l0 0.015625q0.359375 0.125 0.578125 0.421875q0.234375 0.28125 0.234375 0.6875q0 0.375 -0.203125 0.6875q-0.1875 0.3125 -0.515625 0.484375q-0.328125 0.171875 -0.703125 0.171875l-1.8125 0l0 -4.765625zm1.71875 2.0625q0.234375 0 0.40625 -0.109375q0.1875 -0.109375 0.28125 -0.28125q0.109375 -0.1875 0.109375 -0.375q0 -0.171875 -0.09375 -0.34375q-0.09375 -0.1875 -0.28125 -0.296875q-0.171875 -0.125 -0.40625 -0.125l-1.171875 0l0 1.53125l1.15625 0zm0.125 2.15625q0.234375 0 0.421875 -0.109375q0.1875 -0.125 0.28125 -0.3125q0.109375 -0.1875 0.109375 -0.390625q0 -0.203125 -0.109375 -0.390625q-0.09375 -0.1875 -0.296875 -0.296875q-0.1875 -0.125 -0.4375 -0.125l-1.25 0l0 1.625l1.28125 0z" fill-rule="nonzero"/><path fill="#e6e6e6" d="m337.3281 212.19554l-0.27560425 0.028869629l-0.50131226 0.19422913l-0.38583374 0.388443l-0.2230835 0.49868774l0 0.2782135l0 30.509186l0 0.2782135l0.2230835 0.49868774l0.38583374 0.38845825l0.50131226 0.19422913l0.27560425 0.028869629l93.77951 0l0.27822876 -0.028869629l0.49868774 -0.19422913l0.3595581 -0.38845825l0.22311401 -0.49868774l0.028869629 -0.2782135l0 -30.509186l-0.028869629 -0.2782135l-0.22311401 -0.49868774l-0.3595581 -0.388443l-0.49868774 -0.19422913l-0.27822876 -0.028869629z" fill-rule="evenodd"/><path fill="#ffffff" d="m343.2362 216.35564l-0.27557373 0.028884888l-0.50131226 0.19421387l-0.38845825 0.38845825l-0.22045898 0.49868774l0 0.2782135l0 22.18898l0 0.2782135l0.22045898 0.49868774l0.38845825 0.388443l0.50131226 0.19422913l0.27557373 0.026245117l22.19162 0l0.27557373 -0.026245117l0.49868774 -0.19422913l0.36221313 -0.388443l0.2204895 -0.49868774l0.028869629 -0.2782135l0 -22.18898l-0.028869629 -0.2782135l-0.2204895 -0.49868774l-0.36221313 -0.38845825l-0.49868774 -0.19421387l-0.27557373 -0.028884888z" fill-rule="evenodd"/><path fill="#000000" fill-opacity="0.0" d="m360.46194 232.36089l0 -7.0734863l-6.1312256 -3.5223083l-6.1286316 3.5223083l0 7.0734863l6.1286316 3.5511932l6.1312256 -3.5511932z" fill-rule="evenodd"/><path stroke="#b14d9d" stroke-width="1.3858267716535433" stroke-linejoin="round" stroke-linecap="butt" d="m360.46194 232.36089l0 -7.0734863l-6.1312256 -3.5223083l-6.1286316 3.5223083l0 7.0734863l6.1286316 3.5511932l6.1312256 -3.5511932z" fill-rule="evenodd"/><path fill="#ffffff" d="m373.44357 216.35564l-0.27822876 0.028884888l-0.49868774 0.19421387l-0.38842773 0.38845825l-0.22311401 0.49868774l0 0.2782135l0 22.18898l0 0.2782135l0.22311401 0.49868774l0.38842773 0.388443l0.49868774 0.19422913l0.27822876 0.026245117l51.312347 0l0.27819824 -0.026245117l0.49868774 -0.19422913l0.35958862 -0.388443l0.2230835 -0.49868774l0.026245117 -0.2782135l0 -22.18898l-0.026245117 -0.2782135l-0.2230835 -0.49868774l-0.35958862 -0.38845825l-0.49868774 -0.19421387l-0.27819824 -0.028884888z" fill-rule="evenodd"/><path fill="#767576" d="m382.1811 220.51837l-0.86087036 0.026245117l-1.6378174 0.3333435l-1.4698181 0.63778687l-1.3306885 0.887146l-1.1365051 1.1364746l-0.8871155 1.3333282l-0.6378174 1.4698181l-0.333313 1.6351776l-0.028869629 0.8608856l0.028869629 0.8609009l0.333313 1.6062927l0.6378174 1.4986877l0.8871155 1.330719l1.1365051 1.1390991l1.3306885 0.887146l1.4698181 0.63778687l1.6378174 0.3333435l0.86087036 0.026245117l0.85827637 -0.026245117l1.6089172 -0.3333435l1.4986877 -0.63778687l1.330719 -0.887146l1.1364746 -1.1390991l0.887146 -1.330719l0.63778687 -1.4986877l0.3333435 -1.6062927l0.028869629 -0.8609009l-0.028869629 -0.8608856l-0.3333435 -1.6351776l-0.63778687 -1.4698181l-0.887146 -1.3333282l-1.1364746 -1.1364746l-1.330719 -0.887146l-1.4986877 -0.63778687l-1.6089172 -0.3333435l-0.85827637 -0.026245117z" fill-rule="evenodd"/><path fill="#000000" fill-opacity="0.0" d="m385.12073 231.7231l-5.908142 0l0 -5.908142l5.908142 0l0 5.908142z" fill-rule="evenodd"/><path stroke="#ffffff" stroke-width="0.916010498687664" stroke-linejoin="round" stroke-linecap="butt" d="m385.12073 231.7231l-5.908142 0l0 -5.908142l5.908142 0l0 5.908142z" fill-rule="evenodd"/><path fill="#000000" fill-opacity="0.0" d="m380.32022 225.81496l0 -1.4146881" fill-rule="evenodd"/><path stroke="#ffffff" stroke-width="0.916010498687664" stroke-miterlimit="105.678" stroke-linecap="round" d="m380.32022 225.81496l0 -1.4146881" fill-rule="evenodd"/><path fill="#000000" fill-opacity="0.0" d="m382.1811 225.81496l0 -1.4146881" fill-rule="evenodd"/><path stroke="#ffffff" stroke-width="0.916010498687664" stroke-miterlimit="105.678" stroke-linecap="round" d="m382.1811 225.81496l0 -1.4146881" fill-rule="evenodd"/><path fill="#000000" fill-opacity="0.0" d="m384.03937 225.81496l0 -1.4146881" fill-rule="evenodd"/><path stroke="#ffffff" stroke-width="0.916010498687664" stroke-miterlimit="105.678" stroke-linecap="round" d="m384.03937 225.81496l0 -1.4146881" fill-rule="evenodd"/><path fill="#000000" fill-opacity="0.0" d="m380.32022 233.2769l0 -1.443573" fill-rule="evenodd"/><path stroke="#ffffff" stroke-width="0.916010498687664" stroke-miterlimit="105.678" stroke-linecap="round" d="m380.32022 233.2769l0 -1.443573" fill-rule="evenodd"/><path fill="#000000" fill-opacity="0.0" d="m382.1811 233.2769l0 -1.443573" fill-rule="evenodd"/><path stroke="#ffffff" stroke-width="0.916010498687664" stroke-miterlimit="105.678" stroke-linecap="round" d="m382.1811 233.2769l0 -1.443573" fill-rule="evenodd"/><path fill="#000000" fill-opacity="0.0" d="m384.03937 233.2769l0 -1.443573" fill-rule="evenodd"/><path stroke="#ffffff" stroke-width="0.916010498687664" stroke-miterlimit="105.678" stroke-linecap="round" d="m384.03937 233.2769l0 -1.443573" fill-rule="evenodd"/><path fill="#000000" fill-opacity="0.0" d="m379.15747 230.69685l-1.4147034 0" fill-rule="evenodd"/><path stroke="#ffffff" stroke-width="0.916010498687664" stroke-miterlimit="105.678" stroke-linecap="round" d="m379.15747 230.69685l-1.4147034 0" fill-rule="evenodd"/><path fill="#000000" fill-opacity="0.0" d="m379.15747 228.83858l-1.4147034 0" fill-rule="evenodd"/><path stroke="#ffffff" stroke-width="0.916010498687664" stroke-miterlimit="105.678" stroke-linecap="round" d="m379.15747 228.83858l-1.4147034 0" fill-rule="evenodd"/><path fill="#000000" fill-opacity="0.0" d="m379.15747 226.98032l-1.4147034 0" fill-rule="evenodd"/><path stroke="#ffffff" stroke-width="0.916010498687664" stroke-miterlimit="105.678" stroke-linecap="round" d="m379.15747 226.98032l-1.4147034 0" fill-rule="evenodd"/><path fill="#000000" fill-opacity="0.0" d="m386.6168 230.69685l-1.4409485 0" fill-rule="evenodd"/><path stroke="#ffffff" stroke-width="0.916010498687664" stroke-miterlimit="105.678" stroke-linecap="round" d="m386.6168 230.69685l-1.4409485 0" fill-rule="evenodd"/><path fill="#000000" fill-opacity="0.0" d="m386.6168 228.83858l-1.4409485 0" fill-rule="evenodd"/><path stroke="#ffffff" stroke-width="0.916010498687664" stroke-miterlimit="105.678" stroke-linecap="round" d="m386.6168 228.83858l-1.4409485 0" fill-rule="evenodd"/><path fill="#000000" fill-opacity="0.0" d="m386.6168 226.98032l-1.4409485 0" fill-rule="evenodd"/><path stroke="#ffffff" stroke-width="0.916010498687664" stroke-miterlimit="105.678" stroke-linecap="round" d="m386.6168 226.98032l-1.4409485 0" fill-rule="evenodd"/><path fill="#ffffff" d="m381.79266 227.45276l-0.19424438 0.026245117l-0.333313 0.13909912l-0.24935913 0.24934387l-0.13909912 0.3333435l0 0.19422913l0 0.77690125l0 0.19421387l0.13909912 0.3333435l0.24935913 0.24934387l0.333313 0.13647461l1.1627502 0l0.333313 -0.13647461l0.24935913 -0.24934387l0.13909912 -0.3333435l0 -0.19421387l0 -0.77690125l0 -0.19422913l-0.13909912 -0.3333435l-0.24935913 -0.24934387l-0.333313 -0.13909912l-0.19424438 -0.026245117z" fill-rule="evenodd"/><path fill="#000000" fill-opacity="0.0" d="m382.90027 216.35039l49.5748 0l0 24.97638l-49.5748 0z" fill-rule="evenodd"/><path fill="#000000" d="m393.75964 231.34796q-0.359375 0 -0.703125 -0.140625q-0.328125 -0.15625 -0.59375 -0.4375q-0.25 -0.296875 -0.359375 -0.71875l0.53125 -0.21875q0.125 0.421875 0.421875 0.703125q0.3125 0.265625 0.71875 0.265625q0.421875 0 0.703125 -0.21875q0.28125 -0.21875 0.28125 -0.609375q0 -0.328125 -0.25 -0.546875q-0.234375 -0.21875 -0.78125 -0.40625l-0.296875 -0.109375q-0.515625 -0.171875 -0.84375 -0.46875q-0.3125 -0.296875 -0.3125 -0.8125q0 -0.34375 0.1875 -0.625q0.1875 -0.296875 0.515625 -0.46875q0.34375 -0.171875 0.75 -0.171875q0.421875 0 0.71875 0.15625q0.3125 0.15625 0.484375 0.375q0.1875 0.21875 0.265625 0.4375l-0.53125 0.21875q-0.0625 -0.25 -0.3125 -0.4375q-0.234375 -0.203125 -0.609375 -0.203125q-0.375 0 -0.640625 0.203125q-0.25 0.203125 -0.25 0.515625q0 0.28125 0.21875 0.46875q0.21875 0.171875 0.671875 0.3125l0.3125 0.109375q0.59375 0.21875 0.9375 0.546875q0.34375 0.328125 0.34375 0.90625q0 0.453125 -0.234375 0.765625q-0.234375 0.3125 -0.59375 0.46875q-0.359375 0.140625 -0.75 0.140625zm3.8188782 0q-0.5 0 -0.890625 -0.234375q-0.375 -0.234375 -0.59375 -0.640625q-0.21875 -0.40625 -0.21875 -0.921875q0 -0.484375 0.203125 -0.90625q0.203125 -0.421875 0.578125 -0.65625q0.375 -0.25 0.875 -0.25q0.5 0 0.859375 0.21875q0.359375 0.21875 0.546875 0.625q0.203125 0.390625 0.203125 0.890625q0 0.078125 0 0.171875l-2.6875 0q0.015625 0.390625 0.171875 0.65625q0.171875 0.265625 0.421875 0.40625q0.265625 0.125 0.546875 0.125q0.65625 0 1.0 -0.609375l0.484375 0.234375q-0.21875 0.40625 -0.59375 0.65625q-0.375 0.234375 -0.90625 0.234375zm0.96875 -2.171875q-0.015625 -0.203125 -0.125 -0.421875q-0.09375 -0.21875 -0.328125 -0.359375q-0.21875 -0.140625 -0.5625 -0.140625q-0.40625 0 -0.6875 0.265625q-0.28125 0.25 -0.359375 0.65625l2.0625 0zm1.2630615 -1.328125l0.53125 0l0 0.546875l0.03125 0q0.09375 -0.28125 0.375 -0.46875q0.296875 -0.1875 0.609375 -0.1875q0.234375 0 0.40625 0.078125l0 0.609375q-0.21875 -0.109375 -0.484375 -0.109375q-0.25 0 -0.453125 0.140625q-0.203125 0.140625 -0.328125 0.375q-0.125 0.234375 -0.125 0.515625l0 1.890625l-0.5625 0l0 -3.390625zm2.234375 0l0.609375 0l1.046875 2.71875l0.015625 0l1.0625 -2.71875l0.59375 0l-1.390625 3.390625l-0.5625 0l-1.375 -3.390625zm4.1243896 -0.625q-0.171875 0 -0.296875 -0.125q-0.109375 -0.125 -0.109375 -0.28125q0 -0.171875 0.109375 -0.28125q0.125 -0.125 0.296875 -0.125q0.171875 0 0.28125 0.125q0.125 0.109375 0.125 0.28125q0 0.15625 -0.125 0.28125q-0.109375 0.125 -0.28125 0.125zm-0.28125 0.625l0.5625 0l0 3.390625l-0.5625 0l0 -3.390625zm2.9553223 3.5q-0.484375 0 -0.890625 -0.234375q-0.390625 -0.234375 -0.609375 -0.640625q-0.21875 -0.421875 -0.21875 -0.9375q0 -0.5 0.21875 -0.90625q0.21875 -0.421875 0.609375 -0.65625q0.40625 -0.234375 0.890625 -0.234375q0.5625 0 0.9375 0.265625q0.375 0.25 0.53125 0.671875l-0.515625 0.21875q-0.125 -0.3125 -0.375 -0.46875q-0.25 -0.171875 -0.59375 -0.171875q-0.3125 0 -0.578125 0.171875q-0.25 0.15625 -0.40625 0.453125q-0.15625 0.28125 -0.15625 0.65625q0 0.390625 0.15625 0.6875q0.15625 0.28125 0.40625 0.453125q0.265625 0.15625 0.578125 0.15625q0.359375 0 0.609375 -0.15625q0.265625 -0.171875 0.390625 -0.484375l0.5 0.21875q-0.171875 0.421875 -0.5625 0.6875q-0.375 0.25 -0.921875 0.25zm3.5852966 0q-0.5 0 -0.890625 -0.234375q-0.375 -0.234375 -0.59375 -0.640625q-0.21875 -0.40625 -0.21875 -0.921875q0 -0.484375 0.203125 -0.90625q0.203125 -0.421875 0.578125 -0.65625q0.375 -0.25 0.875 -0.25q0.5 0 0.859375 0.21875q0.359375 0.21875 0.546875 0.625q0.203125 0.390625 0.203125 0.890625q0 0.078125 0 0.171875l-2.6875 0q0.015625 0.390625 0.171875 0.65625q0.171875 0.265625 0.421875 0.40625q0.265625 0.125 0.546875 0.125q0.65625 0 1.0 -0.609375l0.484375 0.234375q-0.21875 0.40625 -0.59375 0.65625q-0.375 0.234375 -0.90625 0.234375zm0.96875 -2.171875q-0.015625 -0.203125 -0.125 -0.421875q-0.09375 -0.21875 -0.328125 -0.359375q-0.21875 -0.140625 -0.5625 -0.140625q-0.40625 0 -0.6875 0.265625q-0.28125 0.25 -0.359375 0.65625l2.0625 0zm0.8411865 2.0625l0 0zm4.1765137 0.109375q-0.6875 0 -1.265625 -0.328125q-0.5625 -0.328125 -0.890625 -0.890625q-0.3125 -0.578125 -0.3125 -1.28125q0 -0.6875 0.3125 -1.25q0.328125 -0.578125 0.890625 -0.90625q0.578125 -0.328125 1.265625 -0.328125q0.53125 0 0.96875 0.203125q0.453125 0.203125 0.78125 0.578125l-0.40625 0.390625q-0.28125 -0.328125 -0.609375 -0.46875q-0.3125 -0.15625 -0.734375 -0.15625q-0.515625 0 -0.953125 0.25q-0.421875 0.234375 -0.6875 0.671875q-0.25 0.4375 -0.25 1.015625q0 0.59375 0.25 1.03125q0.265625 0.4375 0.6875 0.6875q0.4375 0.234375 0.953125 0.234375q0.875 0 1.46875 -0.703125l0.421875 0.390625q-0.328125 0.390625 -0.828125 0.625q-0.484375 0.234375 -1.0625 0.234375z" fill-rule="nonzero"/><path fill="#000000" fill-opacity="0.0" d="m78.661415 89.379265l68.22048 0l0 14.803146l-68.22048 0z" fill-rule="evenodd"/><path fill="#000000" d="m88.30204 97.12804l1.921875 0q0.484375 0 0.890625 0.21875q0.40625 0.21875 0.65625 0.609375q0.25 0.390625 0.25 0.875q0 0.484375 -0.25 0.875q-0.25 0.390625 -0.65625 0.609375q-0.40625 0.203125 -0.890625 0.203125l-1.25 0l0 2.34375l-0.671875 0l0 -5.734375zm1.9375 2.75q0.328125 0 0.5625 -0.140625q0.25 -0.15625 0.375 -0.390625q0.140625 -0.25 0.140625 -0.515625q0 -0.265625 -0.140625 -0.5q-0.125 -0.25 -0.375 -0.390625q-0.234375 -0.15625 -0.5625 -0.15625l-1.265625 0l0 2.09375l1.265625 0zm4.140442 3.109375q-0.609375 0 -1.09375 -0.28125q-0.46875 -0.296875 -0.75 -0.78125q-0.265625 -0.5 -0.265625 -1.109375q0 -0.59375 0.265625 -1.078125q0.28125 -0.5 0.75 -0.78125q0.484375 -0.296875 1.09375 -0.296875q0.59375 0 1.0625 0.296875q0.484375 0.28125 0.75 0.78125q0.28125 0.484375 0.28125 1.078125q0 0.609375 -0.28125 1.109375q-0.265625 0.484375 -0.75 0.78125q-0.46875 0.28125 -1.0625 0.28125zm0 -0.609375q0.375 0 0.6875 -0.1875q0.328125 -0.1875 0.515625 -0.53125q0.203125 -0.359375 0.203125 -0.84375q0 -0.46875 -0.203125 -0.8125q-0.1875 -0.359375 -0.515625 -0.546875q-0.3125 -0.1875 -0.6875 -0.1875q-0.375 0 -0.703125 0.1875q-0.328125 0.1875 -0.53125 0.546875q-0.203125 0.34375 -0.203125 0.8125q0 0.484375 0.203125 0.84375q0.203125 0.34375 0.53125 0.53125q0.328125 0.1875 0.703125 0.1875zm4.6116943 0.609375q-0.546875 0 -1.0 -0.28125q-0.4375 -0.28125 -0.703125 -0.765625q-0.25 -0.5 -0.25 -1.125q0 -0.609375 0.25 -1.09375q0.265625 -0.5 0.703125 -0.78125q0.453125 -0.28125 1.0 -0.28125q0.46875 0 0.828125 0.21875q0.375 0.203125 0.5625 0.515625l0.03125 0l-0.03125 -0.578125l0 -1.6875l0.6875 0l0 5.734375l-0.65625 0l0 -0.59375l-0.03125 0q-0.1875 0.296875 -0.5625 0.515625q-0.359375 0.203125 -0.828125 0.203125zm0.078125 -0.609375q0.359375 0 0.65625 -0.1875q0.3125 -0.203125 0.5 -0.546875q0.1875 -0.359375 0.1875 -0.828125q0 -0.453125 -0.1875 -0.796875q-0.1875 -0.359375 -0.5 -0.546875q-0.296875 -0.203125 -0.65625 -0.203125q-0.359375 0 -0.671875 0.203125q-0.296875 0.1875 -0.5 0.546875q-0.1875 0.34375 -0.1875 0.796875q0 0.46875 0.1875 0.828125q0.203125 0.34375 0.5 0.546875q0.3125 0.1875 0.671875 0.1875z" fill-rule="nonzero"/><path fill="#000000" fill-opacity="0.0" d="m323.53568 94.3937l81.00787 0l0 14.803154l-81.00787 0z" fill-rule="evenodd"/><path fill="#000000" d="m332.64505 102.14248l0.75 0l1.421875 4.15625l0.1875 0.5625l0.03125 0l0.203125 -0.5625l1.484375 -4.15625l0.75 0l-2.09375 5.734375l-0.703125 0l-2.03125 -5.734375zm5.6848145 0.90625q-0.203125 0 -0.34375 -0.140625q-0.140625 -0.15625 -0.140625 -0.34375q0 -0.21875 0.140625 -0.359375q0.140625 -0.140625 0.34375 -0.140625q0.203125 0 0.34375 0.140625q0.140625 0.140625 0.140625 0.359375q0 0.1875 -0.140625 0.34375q-0.140625 0.140625 -0.34375 0.140625zm-0.34375 0.75l0.6875 0l0 4.078125l-0.6875 0l0 -4.078125zm6.3548584 4.140625q-0.25 0 -0.46875 -0.078125q-0.203125 -0.078125 -0.359375 -0.21875q-0.3125 -0.296875 -0.3125 -0.84375l0 -2.390625l-0.71875 0l0 -0.609375l0.71875 0l0 -1.15625l0.671875 0l0 1.15625l1.0 0l0 0.609375l-1.0 0l0 2.234375q0 0.328125 0.140625 0.484375q0.140625 0.1875 0.4375 0.1875q0.25 0 0.4375 -0.140625l0 0.65625q-0.109375 0.0625 -0.234375 0.078125q-0.125 0.03125 -0.3125 0.03125zm-4.609375 -4.140625l0.65625 0l0 0.640625l0.03125 0q0.140625 -0.359375 0.484375 -0.546875q0.34375 -0.203125 0.765625 -0.203125q0.15625 0 0.28125 0.015625l0 0.703125q-0.140625 -0.03125 -0.359375 -0.03125q-0.53125 0 -0.859375 0.34375q-0.3125 0.34375 -0.3125 0.890625l0 2.265625l-0.6875 0l0 -4.078125zm7.4443054 4.203125q-0.734375 0 -1.125 -0.421875q-0.390625 -0.4375 -0.390625 -1.21875l0 -2.5625l0.6875 0l0 2.46875q0 0.578125 0.265625 0.859375q0.265625 0.265625 0.703125 0.265625q0.34375 0 0.609375 -0.1875q0.28125 -0.1875 0.421875 -0.484375q0.140625 -0.296875 0.140625 -0.625l0 -2.296875l0.6875 0l0 4.078125l-0.640625 0l0 -0.59375l-0.046875 0q-0.15625 0.3125 -0.53125 0.515625q-0.359375 0.203125 -0.78125 0.203125zm4.276062 0q-0.453125 0 -0.8125 -0.171875q-0.34375 -0.171875 -0.546875 -0.484375q-0.1875 -0.3125 -0.1875 -0.703125q0 -0.640625 0.484375 -1.0q0.5 -0.375 1.234375 -0.375q0.375 0 0.6875 0.078125q0.3125 0.078125 0.484375 0.1875l0 -0.25q0 -0.453125 -0.328125 -0.71875q-0.3125 -0.28125 -0.796875 -0.28125q-0.328125 0 -0.625 0.15625q-0.296875 0.140625 -0.46875 0.390625l-0.5 -0.375q0.234375 -0.375 0.65625 -0.578125q0.421875 -0.203125 0.9375 -0.203125q0.828125 0 1.296875 0.4375q0.484375 0.421875 0.484375 1.1875l0 2.578125l-0.65625 0l0 -0.578125l-0.03125 0q-0.171875 0.296875 -0.53125 0.5q-0.34375 0.203125 -0.78125 0.203125zm0.0625 -0.59375q0.34375 0 0.640625 -0.171875q0.296875 -0.1875 0.46875 -0.484375q0.171875 -0.296875 0.171875 -0.640625q-0.1875 -0.125 -0.46875 -0.203125q-0.28125 -0.09375 -0.59375 -0.09375q-0.5625 0 -0.84375 0.234375q-0.28125 0.234375 -0.28125 0.609375q0 0.328125 0.25 0.546875q0.265625 0.203125 0.65625 0.203125zm2.8729553 -5.265625l0.6875 0l0 5.734375l-0.6875 0l0 -5.734375zm1.1879578 5.734375l0 0zm2.4966125 -5.734375l0.984375 0l1.828125 4.703125l0.03125 0l1.8125 -4.703125l0.984375 0l0 5.734375l-0.671875 0l0 -3.640625l0.03125 -1.09375l-0.03125 0l-1.859375 4.734375l-0.5625 0l-1.875 -4.734375l-0.03125 0l0.03125 1.09375l0 3.640625l-0.671875 0l0 -5.734375zm7.9797974 5.859375q-0.453125 0 -0.8125 -0.171875q-0.34375 -0.171875 -0.546875 -0.484375q-0.1875 -0.3125 -0.1875 -0.703125q0 -0.640625 0.484375 -1.0q0.5 -0.375 1.234375 -0.375q0.375 0 0.6875 0.078125q0.3125 0.078125 0.484375 0.1875l0 -0.25q0 -0.453125 -0.328125 -0.71875q-0.3125 -0.28125 -0.796875 -0.28125q-0.328125 0 -0.625 0.15625q-0.296875 0.140625 -0.46875 0.390625l-0.5 -0.375q0.234375 -0.375 0.65625 -0.578125q0.421875 -0.203125 0.9375 -0.203125q0.828125 0 1.296875 0.4375q0.484375 0.421875 0.484375 1.1875l0 2.578125l-0.65625 0l0 -0.578125l-0.03125 0q-0.171875 0.296875 -0.53125 0.5q-0.34375 0.203125 -0.78125 0.203125zm0.0625 -0.59375q0.34375 0 0.640625 -0.171875q0.296875 -0.1875 0.46875 -0.484375q0.171875 -0.296875 0.171875 -0.640625q-0.1875 -0.125 -0.46875 -0.203125q-0.28125 -0.09375 -0.59375 -0.09375q-0.5625 0 -0.84375 0.234375q-0.28125 0.234375 -0.28125 0.609375q0 0.328125 0.25 0.546875q0.265625 0.203125 0.65625 0.203125zm4.692322 0.59375q-0.59375 0 -1.078125 -0.28125q-0.46875 -0.28125 -0.734375 -0.765625q-0.265625 -0.5 -0.265625 -1.125q0 -0.609375 0.265625 -1.09375q0.265625 -0.5 0.734375 -0.78125q0.484375 -0.28125 1.078125 -0.28125q0.65625 0 1.109375 0.3125q0.453125 0.296875 0.640625 0.8125l-0.609375 0.25q-0.15625 -0.375 -0.453125 -0.5625q-0.296875 -0.203125 -0.734375 -0.203125q-0.359375 0 -0.671875 0.203125q-0.296875 0.1875 -0.5 0.546875q-0.1875 0.34375 -0.1875 0.796875q0 0.46875 0.1875 0.828125q0.203125 0.34375 0.5 0.546875q0.3125 0.1875 0.671875 0.1875q0.4375 0 0.75 -0.203125q0.3125 -0.203125 0.46875 -0.5625l0.609375 0.25q-0.21875 0.5 -0.671875 0.8125q-0.453125 0.3125 -1.109375 0.3125zm2.5085754 -5.859375l0.6875 0l0 1.6875l-0.03125 0.5625l0.03125 0q0.171875 -0.3125 0.53125 -0.515625q0.359375 -0.203125 0.796875 -0.203125q0.734375 0 1.125 0.4375q0.40625 0.421875 0.40625 1.15625l0 2.609375l-0.6875 0l0 -2.515625q0 -0.546875 -0.28125 -0.8125q-0.28125 -0.265625 -0.71875 -0.265625q-0.328125 0 -0.59375 0.203125q-0.265625 0.1875 -0.421875 0.5q-0.15625 0.296875 -0.15625 0.625l0 2.265625l-0.6875 0l0 -5.734375zm4.9181824 0.90625q-0.203125 0 -0.34375 -0.140625q-0.140625 -0.15625 -0.140625 -0.34375q0 -0.21875 0.140625 -0.359375q0.140625 -0.140625 0.34375 -0.140625q0.203125 0 0.34375 0.140625q0.140625 0.140625 0.140625 0.359375q0 0.1875 -0.140625 0.34375q-0.140625 0.140625 -0.34375 0.140625zm-0.34375 0.75l0.6875 0l0 4.078125l-0.6875 0l0 -4.078125zm1.7454834 0l0.65625 0l0 0.59375l0.03125 0q0.171875 -0.296875 0.53125 -0.5q0.375 -0.21875 0.78125 -0.21875q0.734375 0 1.125 0.421875q0.390625 0.421875 0.390625 1.171875l0 2.609375l-0.671875 0l0 -2.515625q0 -0.5625 -0.28125 -0.8125q-0.265625 -0.265625 -0.75 -0.265625q-0.328125 0 -0.59375 0.1875q-0.25 0.1875 -0.390625 0.484375q-0.140625 0.296875 -0.140625 0.625l0 2.296875l-0.6875 0l0 -4.078125zm6.3004456 4.203125q-0.578125 0 -1.046875 -0.28125q-0.453125 -0.28125 -0.71875 -0.765625q-0.265625 -0.5 -0.265625 -1.109375q0 -0.578125 0.25 -1.078125q0.25 -0.5 0.703125 -0.796875q0.453125 -0.296875 1.03125 -0.296875q0.59375 0 1.03125 0.265625q0.453125 0.265625 0.6875 0.734375q0.234375 0.46875 0.234375 1.078125q0 0.09375 -0.015625 0.21875l-3.234375 0q0.015625 0.453125 0.21875 0.78125q0.203125 0.3125 0.515625 0.484375q0.3125 0.15625 0.640625 0.15625q0.796875 0 1.203125 -0.734375l0.578125 0.28125q-0.25 0.484375 -0.71875 0.78125q-0.453125 0.28125 -1.09375 0.28125zm1.1875 -2.59375q-0.015625 -0.265625 -0.15625 -0.515625q-0.125 -0.25 -0.390625 -0.421875q-0.265625 -0.1875 -0.6875 -0.1875q-0.484375 0 -0.828125 0.3125q-0.328125 0.3125 -0.421875 0.8125l2.484375 0z" fill-rule="nonzero"/><path fill="#000000" fill-opacity="0.0" d="m323.53568 192.3937l81.00787 0l0 14.803146l-81.00787 0z" fill-rule="evenodd"/><path fill="#000000" d="m332.64505 200.14247l0.75 0l1.421875 4.15625l0.1875 0.5625l0.03125 0l0.203125 -0.5625l1.484375 -4.15625l0.75 0l-2.09375 5.734375l-0.703125 0l-2.03125 -5.734375zm5.6848145 0.90625q-0.203125 0 -0.34375 -0.140625q-0.140625 -0.15625 -0.140625 -0.34375q0 -0.21875 0.140625 -0.359375q0.140625 -0.140625 0.34375 -0.140625q0.203125 0 0.34375 0.140625q0.140625 0.140625 0.140625 0.359375q0 0.1875 -0.140625 0.34375q-0.140625 0.140625 -0.34375 0.140625zm-0.34375 0.75l0.6875 0l0 4.078125l-0.6875 0l0 -4.078125zm6.3548584 4.140625q-0.25 0 -0.46875 -0.078125q-0.203125 -0.078125 -0.359375 -0.21875q-0.3125 -0.296875 -0.3125 -0.84375l0 -2.390625l-0.71875 0l0 -0.609375l0.71875 0l0 -1.15625l0.671875 0l0 1.15625l1.0 0l0 0.609375l-1.0 0l0 2.234375q0 0.328125 0.140625 0.484375q0.140625 0.1875 0.4375 0.1875q0.25 0 0.4375 -0.140625l0 0.65625q-0.109375 0.0625 -0.234375 0.078125q-0.125 0.03125 -0.3125 0.03125zm-4.609375 -4.140625l0.65625 0l0 0.640625l0.03125 0q0.140625 -0.359375 0.484375 -0.546875q0.34375 -0.203125 0.765625 -0.203125q0.15625 0 0.28125 0.015625l0 0.703125q-0.140625 -0.03125 -0.359375 -0.03125q-0.53125 0 -0.859375 0.34375q-0.3125 0.34375 -0.3125 0.890625l0 2.265625l-0.6875 0l0 -4.078125zm7.4443054 4.203125q-0.734375 0 -1.125 -0.421875q-0.390625 -0.4375 -0.390625 -1.21875l0 -2.5625l0.6875 0l0 2.46875q0 0.578125 0.265625 0.859375q0.265625 0.265625 0.703125 0.265625q0.34375 0 0.609375 -0.1875q0.28125 -0.1875 0.421875 -0.484375q0.140625 -0.296875 0.140625 -0.625l0 -2.296875l0.6875 0l0 4.078125l-0.640625 0l0 -0.59375l-0.046875 0q-0.15625 0.3125 -0.53125 0.515625q-0.359375 0.203125 -0.78125 0.203125zm4.276062 0q-0.453125 0 -0.8125 -0.171875q-0.34375 -0.171875 -0.546875 -0.484375q-0.1875 -0.3125 -0.1875 -0.703125q0 -0.640625 0.484375 -1.0q0.5 -0.375 1.234375 -0.375q0.375 0 0.6875 0.078125q0.3125 0.078125 0.484375 0.1875l0 -0.25q0 -0.453125 -0.328125 -0.71875q-0.3125 -0.28125 -0.796875 -0.28125q-0.328125 0 -0.625 0.15625q-0.296875 0.140625 -0.46875 0.390625l-0.5 -0.375q0.234375 -0.375 0.65625 -0.578125q0.421875 -0.203125 0.9375 -0.203125q0.828125 0 1.296875 0.4375q0.484375 0.421875 0.484375 1.1875l0 2.578125l-0.65625 0l0 -0.578125l-0.03125 0q-0.171875 0.296875 -0.53125 0.5q-0.34375 0.203125 -0.78125 0.203125zm0.0625 -0.59375q0.34375 0 0.640625 -0.171875q0.296875 -0.1875 0.46875 -0.484375q0.171875 -0.296875 0.171875 -0.640625q-0.1875 -0.125 -0.46875 -0.203125q-0.28125 -0.09375 -0.59375 -0.09375q-0.5625 0 -0.84375 0.234375q-0.28125 0.234375 -0.28125 0.609375q0 0.328125 0.25 0.546875q0.265625 0.203125 0.65625 0.203125zm2.8729553 -5.265625l0.6875 0l0 5.734375l-0.6875 0l0 -5.734375zm1.1879578 5.734375l0 0zm2.4966125 -5.734375l0.984375 0l1.828125 4.703125l0.03125 0l1.8125 -4.703125l0.984375 0l0 5.734375l-0.671875 0l0 -3.640625l0.03125 -1.09375l-0.03125 0l-1.859375 4.734375l-0.5625 0l-1.875 -4.734375l-0.03125 0l0.03125 1.09375l0 3.640625l-0.671875 0l0 -5.734375zm7.9797974 5.859375q-0.453125 0 -0.8125 -0.171875q-0.34375 -0.171875 -0.546875 -0.484375q-0.1875 -0.3125 -0.1875 -0.703125q0 -0.640625 0.484375 -1.0q0.5 -0.375 1.234375 -0.375q0.375 0 0.6875 0.078125q0.3125 0.078125 0.484375 0.1875l0 -0.25q0 -0.453125 -0.328125 -0.71875q-0.3125 -0.28125 -0.796875 -0.28125q-0.328125 0 -0.625 0.15625q-0.296875 0.140625 -0.46875 0.390625l-0.5 -0.375q0.234375 -0.375 0.65625 -0.578125q0.421875 -0.203125 0.9375 -0.203125q0.828125 0 1.296875 0.4375q0.484375 0.421875 0.484375 1.1875l0 2.578125l-0.65625 0l0 -0.578125l-0.03125 0q-0.171875 0.296875 -0.53125 0.5q-0.34375 0.203125 -0.78125 0.203125zm0.0625 -0.59375q0.34375 0 0.640625 -0.171875q0.296875 -0.1875 0.46875 -0.484375q0.171875 -0.296875 0.171875 -0.640625q-0.1875 -0.125 -0.46875 -0.203125q-0.28125 -0.09375 -0.59375 -0.09375q-0.5625 0 -0.84375 0.234375q-0.28125 0.234375 -0.28125 0.609375q0 0.328125 0.25 0.546875q0.265625 0.203125 0.65625 0.203125zm4.692322 0.59375q-0.59375 0 -1.078125 -0.28125q-0.46875 -0.28125 -0.734375 -0.765625q-0.265625 -0.5 -0.265625 -1.125q0 -0.609375 0.265625 -1.09375q0.265625 -0.5 0.734375 -0.78125q0.484375 -0.28125 1.078125 -0.28125q0.65625 0 1.109375 0.3125q0.453125 0.296875 0.640625 0.8125l-0.609375 0.25q-0.15625 -0.375 -0.453125 -0.5625q-0.296875 -0.203125 -0.734375 -0.203125q-0.359375 0 -0.671875 0.203125q-0.296875 0.1875 -0.5 0.546875q-0.1875 0.34375 -0.1875 0.796875q0 0.46875 0.1875 0.828125q0.203125 0.34375 0.5 0.546875q0.3125 0.1875 0.671875 0.1875q0.4375 0 0.75 -0.203125q0.3125 -0.203125 0.46875 -0.5625l0.609375 0.25q-0.21875 0.5 -0.671875 0.8125q-0.453125 0.3125 -1.109375 0.3125zm2.5085754 -5.859375l0.6875 0l0 1.6875l-0.03125 0.5625l0.03125 0q0.171875 -0.3125 0.53125 -0.515625q0.359375 -0.203125 0.796875 -0.203125q0.734375 0 1.125 0.4375q0.40625 0.421875 0.40625 1.15625l0 2.609375l-0.6875 0l0 -2.515625q0 -0.546875 -0.28125 -0.8125q-0.28125 -0.265625 -0.71875 -0.265625q-0.328125 0 -0.59375 0.203125q-0.265625 0.1875 -0.421875 0.5q-0.15625 0.296875 -0.15625 0.625l0 2.265625l-0.6875 0l0 -5.734375zm4.9181824 0.90625q-0.203125 0 -0.34375 -0.140625q-0.140625 -0.15625 -0.140625 -0.34375q0 -0.21875 0.140625 -0.359375q0.140625 -0.140625 0.34375 -0.140625q0.203125 0 0.34375 0.140625q0.140625 0.140625 0.140625 0.359375q0 0.1875 -0.140625 0.34375q-0.140625 0.140625 -0.34375 0.140625zm-0.34375 0.75l0.6875 0l0 4.078125l-0.6875 0l0 -4.078125zm1.7454834 0l0.65625 0l0 0.59375l0.03125 0q0.171875 -0.296875 0.53125 -0.5q0.375 -0.21875 0.78125 -0.21875q0.734375 0 1.125 0.421875q0.390625 0.421875 0.390625 1.171875l0 2.609375l-0.671875 0l0 -2.515625q0 -0.5625 -0.28125 -0.8125q-0.265625 -0.265625 -0.75 -0.265625q-0.328125 0 -0.59375 0.1875q-0.25 0.1875 -0.390625 0.484375q-0.140625 0.296875 -0.140625 0.625l0 2.296875l-0.6875 0l0 -4.078125zm6.3004456 4.203125q-0.578125 0 -1.046875 -0.28125q-0.453125 -0.28125 -0.71875 -0.765625q-0.265625 -0.5 -0.265625 -1.109375q0 -0.578125 0.25 -1.078125q0.25 -0.5 0.703125 -0.796875q0.453125 -0.296875 1.03125 -0.296875q0.59375 0 1.03125 0.265625q0.453125 0.265625 0.6875 0.734375q0.234375 0.46875 0.234375 1.078125q0 0.09375 -0.015625 0.21875l-3.234375 0q0.015625 0.453125 0.21875 0.78125q0.203125 0.3125 0.515625 0.484375q0.3125 0.15625 0.640625 0.15625q0.796875 0 1.203125 -0.734375l0.578125 0.28125q-0.25 0.484375 -0.71875 0.78125q-0.453125 0.28125 -1.09375 0.28125zm1.1875 -2.59375q-0.015625 -0.265625 -0.15625 -0.515625q-0.125 -0.25 -0.390625 -0.421875q-0.265625 -0.1875 -0.6875 -0.1875q-0.484375 0 -0.828125 0.3125q-0.328125 0.3125 -0.421875 0.8125l2.484375 0z" fill-rule="nonzero"/><path fill="#000000" fill-opacity="0.0" d="m338.77954 131.5853l-24.75592 0l0 43.496063l-24.75589 0" fill-rule="evenodd"/><path stroke="#476bb0" stroke-width="1.0" stroke-linejoin="round" stroke-linecap="round" stroke-dasharray="3.0,4.0" d="m334.27954 131.5853l-20.25592 0l0 43.496063l-24.75589 0" fill-rule="evenodd"/><path fill="#476bb0" stroke="#476bb0" stroke-width="1.0" stroke-linecap="butt" d="m334.27954 132.69109l3.038086 -1.1057892l-3.038086 -1.1057739z" fill-rule="evenodd"/><path fill="#000000" fill-opacity="0.0" d="m335.77954 229.5853l0 0.49856567l-21.51181 0l0 -54.986755" fill-rule="evenodd"/><path stroke="#476bb0" stroke-width="1.0" stroke-linejoin="round" stroke-linecap="round" stroke-dasharray="3.0,4.0" d="m331.30722 230.08386l-17.03949 0l0 -54.986755" fill-rule="evenodd"/><path fill="#476bb0" stroke="#476bb0" stroke-width="1.0" stroke-linecap="butt" d="m331.42975 231.18283l2.896881 -1.4355621l-3.1419067 -0.7623749z" fill-rule="evenodd"/><path fill="#000000" fill-opacity="0.0" d="m239.0315 185.27559l-97.10475 0l0 48.818893l0.8527832 0" fill-rule="evenodd"/><path stroke="#476bb0" stroke-width="1.0" stroke-linejoin="round" stroke-linecap="round" stroke-dasharray="3.0,4.0" d="m239.0315 185.27559l-97.10475 0l0 48.818893l0.8527832 0" fill-rule="evenodd"/><path fill="#000000" fill-opacity="0.0" d="m142.77953 143.08398l0 20.503937l0.06298828 0l0 20.503937" fill-rule="evenodd"/><path stroke="#476bb0" stroke-width="1.0" stroke-linejoin="round" stroke-linecap="round" stroke-dasharray="3.0,4.0" d="m142.77953 147.58398l0 16.003937l0.06298828 0l0 20.503937" fill-rule="evenodd"/><path fill="#476bb0" stroke="#476bb0" stroke-width="1.0" stroke-linecap="butt" d="m143.8853 147.58398l-1.1057739 -3.038086l-1.1057739 3.038086z" fill-rule="evenodd"/><path fill="#000000" fill-opacity="0.0" d="m288.36353 174.69817l49.921265 -57.102364" fill-rule="evenodd"/><path stroke="#009444" stroke-width="2.0" stroke-linejoin="round" stroke-linecap="butt" d="m296.2617 165.66385l34.12491 -39.03373" fill-rule="evenodd"/><path fill="#009444" stroke="#009444" stroke-width="2.0" stroke-linecap="butt" d="m293.77466 163.48956l-3.4867554 9.007385l8.460846 -4.6588287z" fill-rule="evenodd"/><path fill="#009444" stroke="#009444" stroke-width="2.0" stroke-linecap="butt" d="m332.87366 128.8044l3.4867249 -9.007385l-8.460815 4.658821z" fill-rule="evenodd"/><path fill="#000000" fill-opacity="0.0" d="m420.27036 211.5853l0 -63.02362" fill-rule="evenodd"/><path stroke="#009444" stroke-width="2.0" stroke-linejoin="round" stroke-linecap="butt" d="m420.27036 199.5853l0 -39.02362" fill-rule="evenodd"/><path fill="#009444" stroke="#009444" stroke-width="2.0" stroke-linecap="butt" d="m416.9669 199.5853l3.3034668 9.076202l3.3034363 -9.076202z" fill-rule="evenodd"/><path fill="#009444" stroke="#009444" stroke-width="2.0" stroke-linecap="butt" d="m423.5738 160.56168l-3.3034363 -9.076187l-3.3034668 9.076187z" fill-rule="evenodd"/><path fill="#000000" fill-opacity="0.0" d="m474.37906 304.58606l-165.64343 0l-0.31781006 0l-0.6195679 -0.4102173l-0.56277466 -0.75946045l-0.4882202 -1.0532837l-0.431427 -1.2916565l-0.3373108 -1.5799255l-0.24499512 -1.7572937l-0.111846924 -1.8737183l-0.019500732 -0.99786377l0 -234.3932l0.019500732 -0.9978447l0.111846924 -1.9291611l0.24499512 -1.7573128l0.3373108 -1.5244789l0.431427 -1.3470879l0.4882202 -1.0532799l0.56277466 -0.76501083l0.6195679 -0.34924698l0.31781006 -0.060977936l165.64343 0l0.31954956 0.060977936l0.6195984 0.34924698l0.56277466 0.76501083l0.4882202 1.0532799l0.43139648 1.3470879l0.3373108 1.5244789l0.2432251 1.7573128l0.13137817 1.9291611l0 0.9978447l0 234.3932l0 0.99786377l-0.13137817 1.8737183l-0.2432251 1.7572937l-0.3373108 1.5799255l-0.43139648 1.2916565l-0.4882202 1.0532837l-0.56277466 0.75946045l-0.6195984 0.4102173l-0.31954956 0z" fill-rule="evenodd"/><path stroke="#999999" stroke-width="0.47244094488188976" stroke-linejoin="round" stroke-linecap="butt" d="m474.37906 304.58606l-165.64343 0l-0.31781006 0l-0.6195679 -0.4102173l-0.56277466 -0.75946045l-0.4882202 -1.0532837l-0.431427 -1.2916565l-0.3373108 -1.5799255l-0.24499512 -1.7572937l-0.111846924 -1.8737183l-0.019500732 -0.99786377l0 -234.3932l0.019500732 -0.9978447l0.111846924 -1.9291611l0.24499512 -1.7573128l0.3373108 -1.5244789l0.431427 -1.3470879l0.4882202 -1.0532799l0.56277466 -0.76501083l0.6195679 -0.34924698l0.31781006 -0.060977936l165.64343 0l0.31954956 0.060977936l0.6195984 0.34924698l0.56277466 0.76501083l0.4882202 1.0532799l0.43139648 1.3470879l0.3373108 1.5244789l0.2432251 1.7573128l0.13137817 1.9291611l0 0.9978447l0 234.3932l0 0.99786377l-0.13137817 1.8737183l-0.2432251 1.7572937l-0.3373108 1.5799255l-0.43139648 1.2916565l-0.4882202 1.0532837l-0.56277466 0.75946045l-0.6195984 0.4102173l-0.31954956 0z" fill-rule="evenodd"/><path fill="#000000" fill-opacity="0.0" d="m301.3924 29.832022l68.22046 0l0 14.803148l-68.22046 0z" fill-rule="evenodd"/><path fill="#000000" d="m311.03302 37.580795l0.828125 0l2.875 4.5625l0.03125 0l-0.03125 -1.09375l0 -3.46875l0.6875 0l0 5.734375l-0.71875 0l-3.0 -4.78125l-0.03125 0l0.03125 1.109375l0 3.671875l-0.671875 0l0 -5.734375zm7.2557983 5.859375q-0.578125 0 -1.046875 -0.28125q-0.453125 -0.28125 -0.71875 -0.765625q-0.265625 -0.5 -0.265625 -1.109375q0 -0.578125 0.25 -1.078125q0.25 -0.5 0.703125 -0.796875q0.453125 -0.296875 1.03125 -0.296875q0.59375 0 1.03125 0.265625q0.453125 0.265625 0.6875 0.734375q0.234375 0.46875 0.234375 1.078125q0 0.09375 -0.015625 0.21875l-3.234375 0q0.015625 0.453125 0.21875 0.78125q0.203125 0.3125 0.515625 0.484375q0.3125 0.15625 0.640625 0.15625q0.796875 0 1.203125 -0.734375l0.578125 0.28125q-0.25 0.484375 -0.71875 0.78125q-0.453125 0.28125 -1.09375 0.28125zm1.1875 -2.59375q-0.015625 -0.265625 -0.15625 -0.515625q-0.125 -0.25 -0.390625 -0.421875q-0.265625 -0.1875 -0.6875 -0.1875q-0.484375 0 -0.828125 0.3125q-0.328125 0.3125 -0.421875 0.8125l2.484375 0zm2.9620667 2.53125q-0.25 0 -0.46875 -0.078125q-0.203125 -0.078125 -0.359375 -0.21875q-0.3125 -0.296875 -0.3125 -0.84375l0 -2.390625l-0.71875 0l0 -0.609375l0.71875 0l0 -1.15625l0.671875 0l0 1.15625l1.0 0l0 0.609375l-1.0 0l0 2.234375q0 0.328125 0.140625 0.484375q0.140625 0.1875 0.4375 0.1875q0.25 0 0.4375 -0.140625l0 0.65625q-0.109375 0.0625 -0.234375 0.078125q-0.125 0.03125 -0.3125 0.03125zm1.0323181 -4.140625l0.703125 0l0.96875 3.21875l0 0l1.03125 -3.21875l0.703125 0l1.03125 3.21875l0 0l0.96875 -3.21875l0.6875 0l-1.3125 4.078125l-0.6875 0l-1.0625 -3.25l-1.046875 3.25l-0.671875 0l-1.3125 -4.078125zm8.46405 4.203125q-0.609375 0 -1.09375 -0.28125q-0.46875 -0.296875 -0.75 -0.78125q-0.265625 -0.5 -0.265625 -1.109375q0 -0.59375 0.265625 -1.078125q0.28125 -0.5 0.75 -0.78125q0.484375 -0.296875 1.09375 -0.296875q0.59375 0 1.0625 0.296875q0.484375 0.28125 0.75 0.78125q0.28125 0.484375 0.28125 1.078125q0 0.609375 -0.28125 1.109375q-0.265625 0.484375 -0.75 0.78125q-0.46875 0.28125 -1.0625 0.28125zm0 -0.609375q0.375 0 0.6875 -0.1875q0.328125 -0.1875 0.515625 -0.53125q0.203125 -0.359375 0.203125 -0.84375q0 -0.46875 -0.203125 -0.8125q-0.1875 -0.359375 -0.515625 -0.546875q-0.3125 -0.1875 -0.6875 -0.1875q-0.375 0 -0.703125 0.1875q-0.328125 0.1875 -0.53125 0.546875q-0.203125 0.34375 -0.203125 0.8125q0 0.484375 0.203125 0.84375q0.203125 0.34375 0.53125 0.53125q0.328125 0.1875 0.703125 0.1875zm2.7973328 -3.59375l0.65625 0l0 0.65625l0.03125 0q0.109375 -0.34375 0.453125 -0.5625q0.34375 -0.21875 0.734375 -0.21875q0.265625 0 0.46875 0.078125l0 0.734375q-0.25 -0.125 -0.578125 -0.125q-0.296875 0 -0.546875 0.171875q-0.234375 0.171875 -0.390625 0.453125q-0.140625 0.28125 -0.140625 0.609375l0 2.28125l-0.6875 0l0 -4.078125zm3.0399475 -1.65625l0.6875 0l0 3.609375l1.921875 -1.953125l0.859375 0l0 0.03125l-1.59375 1.609375l1.640625 2.40625l0 0.03125l-0.8125 0l-1.3125 -1.953125l-0.703125 0.703125l0 1.25l-0.6875 0l0 -5.734375zm3.5399475 5.734375l0 0zm2.496582 -5.734375l2.0625 0q0.421875 0 0.796875 0.203125q0.390625 0.203125 0.609375 0.5625q0.234375 0.34375 0.234375 0.78125q0 0.421875 -0.21875 0.734375q-0.21875 0.3125 -0.578125 0.484375l0 0.03125q0.4375 0.140625 0.703125 0.5q0.28125 0.34375 0.28125 0.8125q0 0.46875 -0.234375 0.84375q-0.234375 0.359375 -0.640625 0.578125q-0.390625 0.203125 -0.84375 0.203125l-2.171875 0l0 -5.734375zm2.0625 2.484375q0.28125 0 0.5 -0.125q0.21875 -0.140625 0.328125 -0.34375q0.125 -0.21875 0.125 -0.453125q0 -0.21875 -0.109375 -0.421875q-0.109375 -0.21875 -0.328125 -0.34375q-0.203125 -0.140625 -0.484375 -0.140625l-1.421875 0l0 1.828125l1.390625 0zm0.140625 2.609375q0.296875 0 0.515625 -0.140625q0.234375 -0.15625 0.359375 -0.375q0.125 -0.234375 0.125 -0.46875q0 -0.25 -0.140625 -0.46875q-0.125 -0.234375 -0.359375 -0.375q-0.21875 -0.140625 -0.53125 -0.140625l-1.5 0l0 1.96875l1.53125 0z" fill-rule="nonzero"/><path fill="#000000" fill-opacity="0.0" d="m239.35957 173.19423l-70.55118 -34.86615" fill-rule="evenodd"/><path stroke="#009444" stroke-width="2.0" stroke-linejoin="round" stroke-linecap="butt" d="m228.60161 167.87767l-49.035233 -24.233032" fill-rule="evenodd"/><path fill="#009444" stroke="#009444" stroke-width="2.0" stroke-linecap="butt" d="m227.13802 170.83922l9.600372 1.0596313l-6.6732025 -6.982727z" fill-rule="evenodd"/><path fill="#009444" stroke="#009444" stroke-width="2.0" stroke-linecap="butt" d="m181.02997 140.68309l-9.600388 -1.0596313l6.673218 6.982727z" fill-rule="evenodd"/></g></svg>