<svg version="1.1" viewBox="0.0 0.0 501.40944881889766 327.36745406824144" fill="none" stroke="none" stroke-linecap="square" stroke-miterlimit="10" xmlns:xlink="http://www.w3.org/1999/xlink" xmlns="http://www.w3.org/2000/svg"><clipPath id="p.0"><path d="m0 0l501.40945 0l0 327.36746l-501.40945 0l0 -327.36746z" clip-rule="nonzero"/></clipPath><g clip-path="url(#p.0)"><path fill="#000000" fill-opacity="0.0" d="m0 0l501.40945 0l0 327.36746l-501.40945 0z" fill-rule="evenodd"/><path fill="#000000" fill-opacity="0.0" d="m483.605 313.00848l-465.8048 0l-0.8936367 0l-1.7423449 -0.45196533l-1.5825863 -0.8367615l-1.3729076 -1.1604309l-1.21315 -1.4230957l-0.94855404 -1.7406616l-0.6889496 -1.9360962l-0.31451988 -2.064392l-0.05491638 -1.0993652l0 -258.24203l0.05491638 -1.0993729l0.31451988 -2.1254463l0.6889496 -1.9361153l0.94855404 -1.6795921l1.21315 -1.4841499l1.3729076 -1.1604462l1.5825863 -0.84284973l1.7423449 -0.38478088l0.8936367 -0.06718063l465.8048 0l0.8986511 0.06718063l1.7423401 0.38478088l1.5825806 0.84284973l1.3728943 1.1604462l1.2131653 1.4841499l0.94854736 1.6795921l0.68395996 1.9361153l0.3694458 2.1254463l0 1.0993729l0 258.24203l0 1.0993652l-0.3694458 2.064392l-0.68395996 1.9360962l-0.94854736 1.7406616l-1.2131653 1.4230957l-1.3728943 1.1604309l-1.5825806 0.8367615l-1.7423401 0.45196533l-0.8986511 0z" fill-rule="evenodd"/><path stroke="#466bb0" stroke-width="0.47244094488188976" stroke-linejoin="round" stroke-linecap="butt" stroke-dasharray="1.889763779527559,1.4173228346456692" d="m483.605 313.00848l-465.8048 0l-0.8936367 0l-1.7423449 -0.45196533l-1.5825863 -0.8367615l-1.3729076 -1.1604309l-1.21315 -1.4230957l-0.94855404 -1.7406616l-0.6889496 -1.9360962l-0.31451988 -2.064392l-0.05491638 -1.0993652l0 -258.24203l0.05491638 -1.0993729l0.31451988 -2.1254463l0.6889496 -1.9361153l0.94855404 -1.6795921l1.21315 -1.4841499l1.3729076 -1.1604462l1.5825863 -0.84284973l1.7423449 -0.38478088l0.8936367 -0.06718063l465.8048 0l0.8986511 0.06718063l1.7423401 0.38478088l1.5825806 0.84284973l1.3728943 1.1604462l1.2131653 1.4841499l0.94854736 1.6795921l0.68395996 1.9361153l0.3694458 2.1254463l0 1.0993729l0 258.24203l0 1.0993652l-0.3694458 2.064392l-0.68395996 1.9360962l-0.94854736 1.7406616l-1.2131653 1.4230957l-1.3728943 1.1604309l-1.5825806 0.8367615l-1.7423401 0.45196533l-0.8986511 0z" fill-rule="evenodd"/><path fill="#e6e6e6" d="m95.019684 109.30971l-0.275589 0.028877258l-0.50131226 0.1942215l-0.3858261 0.38845062l-0.22309875 0.49868774l0 0.27822113l0 30.509186l0 0.2782135l0.22309875 0.49868774l0.3858261 0.388443l0.50131226 0.19422913l0.275589 0.028869629l93.779526 0l0.2782135 -0.028869629l0.49868774 -0.19422913l0.35958862 -0.388443l0.22309875 -0.49868774l0.028869629 -0.2782135l0 -30.509186l-0.028869629 -0.27822113l-0.22309875 -0.49868774l-0.35958862 -0.38845062l-0.49868774 -0.1942215l-0.2782135 -0.028877258z" fill-rule="evenodd"/><path fill="#ffffff" d="m100.92782 113.46982l-0.275589 0.028869629l-0.50131226 0.19422913l-0.38845062 0.38845062l-0.22047424 0.49868774l0 0.2782135l0 22.188972l0 0.2782135l0.22047424 0.49868774l0.38845062 0.38845825l0.50131226 0.19422913l0.275589 0.026245117l22.191605 0l0.275589 -0.026245117l0.49868774 -0.19422913l0.3622055 -0.38845825l0.22047424 -0.49868774l0.028869629 -0.2782135l0 -22.188972l-0.028869629 -0.2782135l-0.22047424 -0.49868774l-0.3622055 -0.38845062l-0.49868774 -0.19422913l-0.275589 -0.028869629z" fill-rule="evenodd"/><path fill="#000000" fill-opacity="0.0" d="m118.15354 129.47507l0 -7.073494l-6.131233 -3.5223083l-6.1286087 3.5223083l0 7.073494l6.1286087 3.551178l6.131233 -3.551178z" fill-rule="evenodd"/><path stroke="#b14d9d" stroke-width="1.3858267716535433" stroke-linejoin="round" stroke-linecap="butt" d="m118.15354 129.47507l0 -7.073494l-6.131233 -3.5223083l-6.1286087 3.5223083l0 7.073494l6.1286087 3.551178l6.131233 -3.551178z" fill-rule="evenodd"/><path fill="#ffffff" d="m131.13518 113.46982l-0.27822876 0.028869629l-0.49868774 0.19422913l-0.388443 0.38845062l-0.22309875 0.49868774l0 0.2782135l0 22.188972l0 0.2782135l0.22309875 0.49868774l0.388443 0.38845825l0.49868774 0.19422913l0.27822876 0.026245117l51.312332 0l0.2782135 -0.026245117l0.49868774 -0.19422913l0.35957336 -0.38845825l0.22309875 -0.49868774l0.026245117 -0.2782135l0 -22.188972l-0.026245117 -0.2782135l-0.22309875 -0.49868774l-0.35957336 -0.38845062l-0.49868774 -0.19422913l-0.2782135 -0.028869629z" fill-rule="evenodd"/><path fill="#767576" d="m139.8727 117.632545l-0.8608856 0.026245117l-1.6378021 0.33333588l-1.4698029 0.6377945l-1.330719 0.88713837l-1.1364746 1.1364822l-0.887146 1.3333359l-0.63778687 1.4698181l-0.3333435 1.63517l-0.028869629 0.86089325l0.028869629 0.86089325l0.3333435 1.6063004l0.63778687 1.4986877l0.887146 1.3307037l1.1364746 1.1391144l1.330719 0.88713074l1.4698029 0.6378021l1.6378021 0.33332825l0.8608856 0.026245117l0.85827637 -0.026245117l1.6089172 -0.33332825l1.4986877 -0.6378021l1.330719 -0.88713074l1.1364746 -1.1391144l0.887146 -1.3307037l0.63778687 -1.4986877l0.3333435 -1.6063004l0.028869629 -0.86089325l-0.028869629 -0.86089325l-0.3333435 -1.63517l-0.63778687 -1.4698181l-0.887146 -1.3333359l-1.1364746 -1.1364822l-1.330719 -0.88713837l-1.4986877 -0.6377945l-1.6089172 -0.33333588l-0.85827637 -0.026245117z" fill-rule="evenodd"/><path fill="#000000" fill-opacity="0.0" d="m142.81233 128.83727l-5.908127 0l0 -5.9081345l5.908127 0l0 5.9081345z" fill-rule="evenodd"/><path stroke="#ffffff" stroke-width="0.916010498687664" stroke-linejoin="round" stroke-linecap="butt" d="m142.81233 128.83727l-5.908127 0l0 -5.9081345l5.908127 0l0 5.9081345z" fill-rule="evenodd"/><path fill="#000000" fill-opacity="0.0" d="m138.01181 122.92913l0 -1.4146957" fill-rule="evenodd"/><path stroke="#ffffff" stroke-width="0.916010498687664" stroke-miterlimit="105.678" stroke-linecap="round" d="m138.01181 122.92913l0 -1.4146957" fill-rule="evenodd"/><path fill="#000000" fill-opacity="0.0" d="m139.8727 122.92913l0 -1.4146957" fill-rule="evenodd"/><path stroke="#ffffff" stroke-width="0.916010498687664" stroke-miterlimit="105.678" stroke-linecap="round" d="m139.8727 122.92913l0 -1.4146957" fill-rule="evenodd"/><path fill="#000000" fill-opacity="0.0" d="m141.73097 122.92913l0 -1.4146957" fill-rule="evenodd"/><path stroke="#ffffff" stroke-width="0.916010498687664" stroke-miterlimit="105.678" stroke-linecap="round" d="m141.73097 122.92913l0 -1.4146957" fill-rule="evenodd"/><path fill="#000000" fill-opacity="0.0" d="m138.01181 130.39108l0 -1.443573" fill-rule="evenodd"/><path stroke="#ffffff" stroke-width="0.916010498687664" stroke-miterlimit="105.678" stroke-linecap="round" d="m138.01181 130.39108l0 -1.443573" fill-rule="evenodd"/><path fill="#000000" fill-opacity="0.0" d="m139.8727 130.39108l0 -1.443573" fill-rule="evenodd"/><path stroke="#ffffff" stroke-width="0.916010498687664" stroke-miterlimit="105.678" stroke-linecap="round" d="m139.8727 130.39108l0 -1.443573" fill-rule="evenodd"/><path fill="#000000" fill-opacity="0.0" d="m141.73097 130.39108l0 -1.443573" fill-rule="evenodd"/><path stroke="#ffffff" stroke-width="0.916010498687664" stroke-miterlimit="105.678" stroke-linecap="round" d="m141.73097 130.39108l0 -1.443573" fill-rule="evenodd"/><path fill="#000000" fill-opacity="0.0" d="m136.84908 127.81102l-1.4146881 0" fill-rule="evenodd"/><path stroke="#ffffff" stroke-width="0.916010498687664" stroke-miterlimit="105.678" stroke-linecap="round" d="m136.84908 127.81102l-1.4146881 0" fill-rule="evenodd"/><path fill="#000000" fill-opacity="0.0" d="m136.84908 125.95276l-1.4146881 0" fill-rule="evenodd"/><path stroke="#ffffff" stroke-width="0.916010498687664" stroke-miterlimit="105.678" stroke-linecap="round" d="m136.84908 125.95276l-1.4146881 0" fill-rule="evenodd"/><path fill="#000000" fill-opacity="0.0" d="m136.84908 124.09449l-1.4146881 0" fill-rule="evenodd"/><path stroke="#ffffff" stroke-width="0.916010498687664" stroke-miterlimit="105.678" stroke-linecap="round" d="m136.84908 124.09449l-1.4146881 0" fill-rule="evenodd"/><path fill="#000000" fill-opacity="0.0" d="m144.3084 127.81102l-1.4409485 0" fill-rule="evenodd"/><path stroke="#ffffff" stroke-width="0.916010498687664" stroke-miterlimit="105.678" stroke-linecap="round" d="m144.3084 127.81102l-1.4409485 0" fill-rule="evenodd"/><path fill="#000000" fill-opacity="0.0" d="m144.3084 125.95276l-1.4409485 0" fill-rule="evenodd"/><path stroke="#ffffff" stroke-width="0.916010498687664" stroke-miterlimit="105.678" stroke-linecap="round" d="m144.3084 125.95276l-1.4409485 0" fill-rule="evenodd"/><path fill="#000000" fill-opacity="0.0" d="m144.3084 124.09449l-1.4409485 0" fill-rule="evenodd"/><path stroke="#ffffff" stroke-width="0.916010498687664" stroke-miterlimit="105.678" stroke-linecap="round" d="m144.3084 124.09449l-1.4409485 0" fill-rule="evenodd"/><path fill="#ffffff" d="m139.48425 124.56693l-0.19422913 0.026245117l-0.33332825 0.13910675l-0.24934387 0.24934387l-0.13911438 0.33333588l0 0.1942215l0 0.77690125l0 0.19422913l0.13911438 0.33333588l0.24934387 0.24934387l0.33332825 0.13648224l1.162735 0l0.33332825 -0.13648224l0.24934387 -0.24934387l0.13911438 -0.33333588l0 -0.19422913l0 -0.77690125l0 -0.1942215l-0.13911438 -0.33333588l-0.24934387 -0.24934387l-0.33332825 -0.13910675l-0.19422913 -0.026245117z" fill-rule="evenodd"/><path fill="#000000" fill-opacity="0.0" d="m140.59186 113.46588l58.23622 0l0 24.97638l-58.23622 0z" fill-rule="evenodd"/><path fill="#000000" d="m151.45123 128.46344q-0.359375 0 -0.703125 -0.140625q-0.328125 -0.15625 -0.59375 -0.4375q-0.25 -0.296875 -0.359375 -0.71875l0.53125 -0.21875q0.125 0.421875 0.421875 0.703125q0.3125 0.265625 0.71875 0.265625q0.421875 0 0.703125 -0.21875q0.28125 -0.21875 0.28125 -0.609375q0 -0.328125 -0.25 -0.546875q-0.234375 -0.21875 -0.78125 -0.40625l-0.296875 -0.109375q-0.515625 -0.171875 -0.84375 -0.46875q-0.3125 -0.296875 -0.3125 -0.8125q0 -0.34375 0.1875 -0.625q0.1875 -0.296875 0.515625 -0.46875q0.34375 -0.171875 0.75 -0.171875q0.421875 0 0.71875 0.15625q0.3125 0.15625 0.484375 0.375q0.1875 0.21875 0.265625 0.4375l-0.53125 0.21875q-0.0625 -0.25 -0.3125 -0.4375q-0.234375 -0.203125 -0.609375 -0.203125q-0.375 0 -0.640625 0.203125q-0.25 0.203125 -0.25 0.515625q0 0.28125 0.21875 0.46875q0.21875 0.171875 0.671875 0.3125l0.3125 0.109375q0.59375 0.21875 0.9375 0.546875q0.34375 0.328125 0.34375 0.90625q0 0.453125 -0.234375 0.765625q-0.234375 0.3125 -0.59375 0.46875q-0.359375 0.140625 -0.75 0.140625zm3.8188934 0q-0.5 0 -0.890625 -0.234375q-0.375 -0.234375 -0.59375 -0.640625q-0.21875 -0.40625 -0.21875 -0.921875q0 -0.484375 0.203125 -0.90625q0.203125 -0.421875 0.578125 -0.65625q0.375 -0.25 0.875 -0.25q0.5 0 0.859375 0.21875q0.359375 0.21875 0.546875 0.625q0.203125 0.390625 0.203125 0.890625q0 0.078125 0 0.171875l-2.6875 0q0.015625 0.390625 0.171875 0.65625q0.171875 0.265625 0.421875 0.40625q0.265625 0.125 0.546875 0.125q0.65625 0 1.0 -0.609375l0.484375 0.234375q-0.21875 0.40625 -0.59375 0.65625q-0.375 0.234375 -0.90625 0.234375zm0.96875 -2.171875q-0.015625 -0.203125 -0.125 -0.421875q-0.09375 -0.21875 -0.328125 -0.359375q-0.21875 -0.140625 -0.5625 -0.140625q-0.40625 0 -0.6875 0.265625q-0.28125 0.25 -0.359375 0.65625l2.0625 0zm1.2630463 -1.328125l0.53125 0l0 0.546875l0.03125 0q0.09375 -0.28125 0.375 -0.46875q0.296875 -0.1875 0.609375 -0.1875q0.234375 0 0.40625 0.078125l0 0.609375q-0.21875 -0.109375 -0.484375 -0.109375q-0.25 0 -0.453125 0.140625q-0.203125 0.140625 -0.328125 0.375q-0.125 0.234375 -0.125 0.515625l0 1.890625l-0.5625 0l0 -3.390625zm2.2343903 0l0.609375 0l1.046875 2.71875l0.015625 0l1.0625 -2.71875l0.59375 0l-1.390625 3.390625l-0.5625 0l-1.375 -3.390625zm4.1243896 -0.625q-0.171875 0 -0.296875 -0.125q-0.109375 -0.125 -0.109375 -0.28125q0 -0.171875 0.109375 -0.28125q0.125 -0.125 0.296875 -0.125q0.171875 0 0.28125 0.125q0.125 0.109375 0.125 0.28125q0 0.15625 -0.125 0.28125q-0.109375 0.125 -0.28125 0.125zm-0.28125 0.625l0.5625 0l0 3.390625l-0.5625 0l0 -3.390625zm2.9553223 3.5q-0.484375 0 -0.890625 -0.234375q-0.390625 -0.234375 -0.609375 -0.640625q-0.21875 -0.421875 -0.21875 -0.9375q0 -0.5 0.21875 -0.90625q0.21875 -0.421875 0.609375 -0.65625q0.40625 -0.234375 0.890625 -0.234375q0.5625 0 0.9375 0.265625q0.375 0.25 0.53125 0.671875l-0.515625 0.21875q-0.125 -0.3125 -0.375 -0.46875q-0.25 -0.171875 -0.59375 -0.171875q-0.3125 0 -0.578125 0.171875q-0.25 0.15625 -0.40625 0.453125q-0.15625 0.28125 -0.15625 0.65625q0 0.390625 0.15625 0.6875q0.15625 0.28125 0.40625 0.453125q0.265625 0.15625 0.578125 0.15625q0.359375 0 0.609375 -0.15625q0.265625 -0.171875 0.390625 -0.484375l0.5 0.21875q-0.171875 0.421875 -0.5625 0.6875q-0.375 0.25 -0.921875 0.25zm3.5852966 0q-0.5 0 -0.890625 -0.234375q-0.375 -0.234375 -0.59375 -0.640625q-0.21875 -0.40625 -0.21875 -0.921875q0 -0.484375 0.203125 -0.90625q0.203125 -0.421875 0.578125 -0.65625q0.375 -0.25 0.875 -0.25q0.5 0 0.859375 0.21875q0.359375 0.21875 0.546875 0.625q0.203125 0.390625 0.203125 0.890625q0 0.078125 0 0.171875l-2.6875 0q0.015625 0.390625 0.171875 0.65625q0.171875 0.265625 0.421875 0.40625q0.265625 0.125 0.546875 0.125q0.65625 0 1.0 -0.609375l0.484375 0.234375q-0.21875 0.40625 -0.59375 0.65625q-0.375 0.234375 -0.90625 0.234375zm0.96875 -2.171875q-0.015625 -0.203125 -0.125 -0.421875q-0.09375 -0.21875 -0.328125 -0.359375q-0.21875 -0.140625 -0.5625 -0.140625q-0.40625 0 -0.6875 0.265625q-0.28125 0.25 -0.359375 0.65625l2.0625 0zm0.84117126 2.0625l0 0zm3.2504883 -4.765625l0.640625 0l1.8125 4.765625l-0.625 0l-0.46875 -1.3125l-2.0625 0l-0.484375 1.3125l-0.625 0l1.8125 -4.765625zm1.15625 2.921875l-0.640625 -1.71875l-0.171875 -0.515625l-0.03125 0l-0.1875 0.515625l-0.640625 1.71875l1.671875 0z" fill-rule="nonzero"/><path fill="#000000" fill-opacity="0.0" d="m8.9868765 14.3517065l68.220474 0l0 14.803149l-68.220474 0z" fill-rule="evenodd"/><path fill="#000000" d="m18.627502 22.100481l0.671875 0l0 5.734375l-0.671875 0l0 -5.734375zm3.2412262 5.859375q-0.65625 0 -1.09375 -0.296875q-0.4375 -0.3125 -0.625 -0.796875l0.609375 -0.265625q0.15625 0.359375 0.453125 0.5625q0.296875 0.203125 0.65625 0.203125q0.390625 0 0.65625 -0.15625q0.28125 -0.15625 0.28125 -0.453125q0 -0.25 -0.21875 -0.40625q-0.21875 -0.15625 -0.6875 -0.265625l-0.484375 -0.125q-0.5 -0.125 -0.8125 -0.40625q-0.296875 -0.296875 -0.296875 -0.75q0 -0.359375 0.203125 -0.625q0.21875 -0.265625 0.5625 -0.40625q0.359375 -0.140625 0.765625 -0.140625q0.53125 0 0.953125 0.234375q0.421875 0.21875 0.59375 0.640625l-0.59375 0.265625q-0.265625 -0.53125 -0.96875 -0.53125q-0.328125 0 -0.578125 0.15625q-0.25 0.15625 -0.25 0.390625q0 0.21875 0.171875 0.359375q0.171875 0.140625 0.53125 0.234375l0.59375 0.15625q0.59375 0.140625 0.890625 0.453125q0.3125 0.296875 0.3125 0.71875q0 0.375 -0.21875 0.671875q-0.21875 0.28125 -0.59375 0.4375q-0.359375 0.140625 -0.8125 0.140625zm3.9002075 -0.0625q-0.25 0 -0.46875 -0.078125q-0.203125 -0.078125 -0.359375 -0.21875q-0.3125 -0.296875 -0.3125 -0.84375l0 -2.390625l-0.71875 0l0 -0.609375l0.71875 0l0 -1.15625l0.671875 0l0 1.15625l1.0 0l0 0.609375l-1.0 0l0 2.234375q0 0.328125 0.140625 0.484375q0.140625 0.1875 0.4375 0.1875q0.25 0 0.4375 -0.140625l0 0.65625q-0.109375 0.0625 -0.234375 0.078125q-0.125 0.03125 -0.3125 0.03125zm1.7960815 -4.890625q-0.203125 0 -0.34375 -0.140625q-0.140625 -0.15625 -0.140625 -0.34375q0 -0.21875 0.140625 -0.359375q0.140625 -0.140625 0.34375 -0.140625q0.203125 0 0.34375 0.140625q0.140625 0.140625 0.140625 0.359375q0 0.1875 -0.140625 0.34375q-0.140625 0.140625 -0.34375 0.140625zm-0.34375 0.75l0.6875 0l0 4.078125l-0.6875 0l0 -4.078125zm3.596115 4.203125q-0.609375 0 -1.09375 -0.28125q-0.46875 -0.296875 -0.75 -0.78125q-0.265625 -0.5 -0.265625 -1.109375q0 -0.59375 0.265625 -1.078125q0.28125 -0.5 0.75 -0.78125q0.484375 -0.296875 1.09375 -0.296875q0.59375 0 1.0625 0.296875q0.484375 0.28125 0.75 0.78125q0.28125 0.484375 0.28125 1.078125q0 0.609375 -0.28125 1.109375q-0.265625 0.484375 -0.75 0.78125q-0.46875 0.28125 -1.0625 0.28125zm0 -0.609375q0.375 0 0.6875 -0.1875q0.328125 -0.1875 0.515625 -0.53125q0.203125 -0.359375 0.203125 -0.84375q0 -0.46875 -0.203125 -0.8125q-0.1875 -0.359375 -0.515625 -0.546875q-0.3125 -0.1875 -0.6875 -0.1875q-0.375 0 -0.703125 0.1875q-0.328125 0.1875 -0.53125 0.546875q-0.203125 0.34375 -0.203125 0.8125q0 0.484375 0.203125 0.84375q0.203125 0.34375 0.53125 0.53125q0.328125 0.1875 0.703125 0.1875zm2.3773193 0.484375l0 0zm2.4965973 -5.734375l0.984375 0l1.828125 4.703125l0.03125 0l1.8125 -4.703125l0.984375 0l0 5.734375l-0.671875 0l0 -3.640625l0.03125 -1.09375l-0.03125 0l-1.859375 4.734375l-0.5625 0l-1.875 -4.734375l-0.03125 0l0.03125 1.09375l0 3.640625l-0.671875 0l0 -5.734375zm8.519791 5.859375q-0.578125 0 -1.046875 -0.28125q-0.453125 -0.28125 -0.71875 -0.765625q-0.265625 -0.5 -0.265625 -1.109375q0 -0.578125 0.25 -1.078125q0.25 -0.5 0.703125 -0.796875q0.453125 -0.296875 1.03125 -0.296875q0.59375 0 1.03125 0.265625q0.453125 0.265625 0.6875 0.734375q0.234375 0.46875 0.234375 1.078125q0 0.09375 -0.015625 0.21875l-3.234375 0q0.015625 0.453125 0.21875 0.78125q0.203125 0.3125 0.515625 0.484375q0.3125 0.15625 0.640625 0.15625q0.796875 0 1.203125 -0.734375l0.578125 0.28125q-0.25 0.484375 -0.71875 0.78125q-0.453125 0.28125 -1.09375 0.28125zm1.1875 -2.59375q-0.015625 -0.265625 -0.15625 -0.515625q-0.125 -0.25 -0.390625 -0.421875q-0.265625 -0.1875 -0.6875 -0.1875q-0.484375 0 -0.828125 0.3125q-0.328125 0.3125 -0.421875 0.8125l2.484375 0zm2.965805 2.59375q-0.65625 0 -1.09375 -0.296875q-0.4375 -0.3125 -0.625 -0.796875l0.609375 -0.265625q0.15625 0.359375 0.453125 0.5625q0.296875 0.203125 0.65625 0.203125q0.390625 0 0.65625 -0.15625q0.28125 -0.15625 0.28125 -0.453125q0 -0.25 -0.21875 -0.40625q-0.21875 -0.15625 -0.6875 -0.265625l-0.484375 -0.125q-0.5 -0.125 -0.8125 -0.40625q-0.296875 -0.296875 -0.296875 -0.75q0 -0.359375 0.203125 -0.625q0.21875 -0.265625 0.5625 -0.40625q0.359375 -0.140625 0.765625 -0.140625q0.53125 0 0.953125 0.234375q0.421875 0.21875 0.59375 0.640625l-0.59375 0.265625q-0.265625 -0.53125 -0.96875 -0.53125q-0.328125 0 -0.578125 0.15625q-0.25 0.15625 -0.25 0.390625q0 0.21875 0.171875 0.359375q0.171875 0.140625 0.53125 0.234375l0.59375 0.15625q0.59375 0.140625 0.890625 0.453125q0.3125 0.296875 0.3125 0.71875q0 0.375 -0.21875 0.671875q-0.21875 0.28125 -0.59375 0.4375q-0.359375 0.140625 -0.8125 0.140625zm2.3620758 -5.859375l0.6875 0l0 1.6875l-0.03125 0.5625l0.03125 0q0.171875 -0.3125 0.53125 -0.515625q0.359375 -0.203125 0.796875 -0.203125q0.734375 0 1.125 0.4375q0.40625 0.421875 0.40625 1.15625l0 2.609375l-0.6875 0l0 -2.515625q0 -0.546875 -0.28125 -0.8125q-0.28125 -0.265625 -0.71875 -0.265625q-0.328125 0 -0.59375 0.203125q-0.265625 0.1875 -0.421875 0.5q-0.15625 0.296875 -0.15625 0.625l0 2.265625l-0.6875 0l0 -5.734375z" fill-rule="nonzero"/><path fill="#000000" fill-opacity="0.0" d="m475.38904 303.359l-449.1768 0l-0.8617363 0l-1.6801472 -0.4102173l-1.5260925 -0.75949097l-1.3238983 -1.0532837l-1.1698437 -1.291626l-0.9146919 -1.5799255l-0.66435623 -1.7573242l-0.30329323 -1.8737183l-0.052955627 -0.99783325l0 -234.39322l0.052955627 -0.9978409l0.30329323 -1.9291649l0.66435623 -1.757309l0.9146919 -1.5244827l1.1698437 -1.3470879l1.3238983 -1.0532799l1.5260925 -0.76501083l1.6801472 -0.34924698l0.8617363 -0.060977936l449.1768 0l0.86654663 0.060977936l1.6801453 0.34924698l1.5260925 0.76501083l1.3239136 1.0532799l1.1698303 1.3470879l0.91470337 1.5244827l0.6595459 1.757309l0.3562317 1.9291649l0 0.9978409l0 234.39322l0 0.99783325l-0.3562317 1.8737183l-0.6595459 1.7573242l-0.91470337 1.5799255l-1.1698303 1.291626l-1.3239136 1.0532837l-1.5260925 0.75949097l-1.6801453 0.4102173l-0.86654663 0z" fill-rule="evenodd"/><path stroke="#999999" stroke-width="0.47244094488188976" stroke-linejoin="round" stroke-linecap="butt" d="m475.38904 303.359l-449.1768 0l-0.8617363 0l-1.6801472 -0.4102173l-1.5260925 -0.75949097l-1.3238983 -1.0532837l-1.1698437 -1.291626l-0.9146919 -1.5799255l-0.66435623 -1.7573242l-0.30329323 -1.8737183l-0.052955627 -0.99783325l0 -234.39322l0.052955627 -0.9978409l0.30329323 -1.9291649l0.66435623 -1.757309l0.9146919 -1.5244827l1.1698437 -1.3470879l1.3238983 -1.0532799l1.5260925 -0.76501083l1.6801472 -0.34924698l0.8617363 -0.060977936l449.1768 0l0.86654663 0.060977936l1.6801453 0.34924698l1.5260925 0.76501083l1.3239136 1.0532799l1.1698303 1.3470879l0.91470337 1.5244827l0.6595459 1.757309l0.3562317 1.9291649l0 0.9978409l0 234.39322l0 0.99783325l-0.3562317 1.8737183l-0.6595459 1.7573242l-0.91470337 1.5799255l-1.1698303 1.291626l-1.3239136 1.0532837l-1.5260925 0.75949097l-1.6801453 0.4102173l-0.86654663 0z" fill-rule="evenodd"/><path fill="#000000" fill-opacity="0.0" d="m23.249344 29.154856l68.220474 0l0 14.803148l-68.220474 0z" fill-rule="evenodd"/><path fill="#000000" d="m32.88997 36.90363l0.828125 0l2.875 4.5625l0.03125 0l-0.03125 -1.09375l0 -3.46875l0.6875 0l0 5.734375l-0.71875 0l-3.0 -4.78125l-0.03125 0l0.03125 1.109375l0 3.671875l-0.671875 0l0 -5.734375zm7.2557983 5.859375q-0.578125 0 -1.046875 -0.28125q-0.453125 -0.28125 -0.71875 -0.765625q-0.265625 -0.5 -0.265625 -1.109375q0 -0.578125 0.25 -1.078125q0.25 -0.5 0.703125 -0.796875q0.453125 -0.296875 1.03125 -0.296875q0.59375 0 1.03125 0.265625q0.453125 0.265625 0.6875 0.734375q0.234375 0.46875 0.234375 1.078125q0 0.09375 -0.015625 0.21875l-3.234375 0q0.015625 0.453125 0.21875 0.78125q0.203125 0.3125 0.515625 0.484375q0.3125 0.15625 0.640625 0.15625q0.796875 0 1.203125 -0.734375l0.578125 0.28125q-0.25 0.484375 -0.71875 0.78125q-0.453125 0.28125 -1.09375 0.28125zm1.1875 -2.59375q-0.015625 -0.265625 -0.15625 -0.515625q-0.125 -0.25 -0.390625 -0.421875q-0.265625 -0.1875 -0.6875 -0.1875q-0.484375 0 -0.828125 0.3125q-0.328125 0.3125 -0.421875 0.8125l2.484375 0zm2.9620667 2.53125q-0.25 0 -0.46875 -0.078125q-0.203125 -0.078125 -0.359375 -0.21875q-0.3125 -0.296875 -0.3125 -0.84375l0 -2.390625l-0.71875 0l0 -0.609375l0.71875 0l0 -1.15625l0.671875 0l0 1.15625l1.0 0l0 0.609375l-1.0 0l0 2.234375q0 0.328125 0.140625 0.484375q0.140625 0.1875 0.4375 0.1875q0.25 0 0.4375 -0.140625l0 0.65625q-0.109375 0.0625 -0.234375 0.078125q-0.125 0.03125 -0.3125 0.03125zm1.0323334 -4.140625l0.703125 0l0.96875 3.21875l0 0l1.03125 -3.21875l0.703125 0l1.03125 3.21875l0 0l0.96875 -3.21875l0.6875 0l-1.3125 4.078125l-0.6875 0l-1.0625 -3.25l-1.046875 3.25l-0.671875 0l-1.3125 -4.078125zm8.46405 4.203125q-0.609375 0 -1.09375 -0.28125q-0.46875 -0.296875 -0.75 -0.78125q-0.265625 -0.5 -0.265625 -1.109375q0 -0.59375 0.265625 -1.078125q0.28125 -0.5 0.75 -0.78125q0.484375 -0.296875 1.09375 -0.296875q0.59375 0 1.0625 0.296875q0.484375 0.28125 0.75 0.78125q0.28125 0.484375 0.28125 1.078125q0 0.609375 -0.28125 1.109375q-0.265625 0.484375 -0.75 0.78125q-0.46875 0.28125 -1.0625 0.28125zm0 -0.609375q0.375 0 0.6875 -0.1875q0.328125 -0.1875 0.515625 -0.53125q0.203125 -0.359375 0.203125 -0.84375q0 -0.46875 -0.203125 -0.8125q-0.1875 -0.359375 -0.515625 -0.546875q-0.3125 -0.1875 -0.6875 -0.1875q-0.375 0 -0.703125 0.1875q-0.328125 0.1875 -0.53125 0.546875q-0.203125 0.34375 -0.203125 0.8125q0 0.484375 0.203125 0.84375q0.203125 0.34375 0.53125 0.53125q0.328125 0.1875 0.703125 0.1875zm2.7973175 -3.59375l0.65625 0l0 0.65625l0.03125 0q0.109375 -0.34375 0.453125 -0.5625q0.34375 -0.21875 0.734375 -0.21875q0.265625 0 0.46875 0.078125l0 0.734375q-0.25 -0.125 -0.578125 -0.125q-0.296875 0 -0.546875 0.171875q-0.234375 0.171875 -0.390625 0.453125q-0.140625 0.28125 -0.140625 0.609375l0 2.28125l-0.6875 0l0 -4.078125zm3.0399475 -1.65625l0.6875 0l0 3.609375l1.921875 -1.953125l0.859375 0l0 0.03125l-1.59375 1.609375l1.640625 2.40625l0 0.03125l-0.8125 0l-1.3125 -1.953125l-0.703125 0.703125l0 1.25l-0.6875 0l0 -5.734375z" fill-rule="nonzero"/><path fill="#000000" fill-opacity="0.0" d="m263.52527 290.47195l-225.54347 0l-0.4326973 0l-0.843647 -0.3635559l-0.7662926 -0.6730652l-0.6647644 -0.93344116l-0.58741 -1.1447144l-0.45928955 -1.4001465l-0.33359146 -1.557373l-0.15229034 -1.660553l-0.026592255 -0.88430786l0 -207.72559l0.026592255 -0.8843155l0.15229034 -1.7096786l0.33359146 -1.557373l0.45928955 -1.3510361l0.58741 -1.1938324l0.6647644 -0.93344116l0.7662926 -0.6779709l0.843647 -0.30950928l0.4326973 -0.05404663l225.54347 0l0.43511963 0.05404663l0.84365845 0.30950928l0.76626587 0.6779709l0.6647644 0.93344116l0.58743286 1.1938324l0.45928955 1.3510361l0.33117676 1.557373l0.17886353 1.7096786l0 0.8843155l0 207.72559l0 0.88430786l-0.17886353 1.660553l-0.33117676 1.557373l-0.45928955 1.4001465l-0.58743286 1.1447144l-0.6647644 0.93344116l-0.76626587 0.6730652l-0.84365845 0.3635559l-0.43511963 0z" fill-rule="evenodd"/><path stroke="#fbb03f" stroke-width="1.0" stroke-linejoin="round" stroke-linecap="butt" d="m263.52527 290.47195l-225.54347 0l-0.4326973 0l-0.843647 -0.3635559l-0.7662926 -0.6730652l-0.6647644 -0.93344116l-0.58741 -1.1447144l-0.45928955 -1.4001465l-0.33359146 -1.557373l-0.15229034 -1.660553l-0.026592255 -0.88430786l0 -207.72559l0.026592255 -0.8843155l0.15229034 -1.7096786l0.33359146 -1.557373l0.45928955 -1.3510361l0.58741 -1.1938324l0.6647644 -0.93344116l0.7662926 -0.6779709l0.843647 -0.30950928l0.4326973 -0.05404663l225.54347 0l0.43511963 0.05404663l0.84365845 0.30950928l0.76626587 0.6779709l0.6647644 0.93344116l0.58743286 1.1938324l0.45928955 1.3510361l0.33117676 1.557373l0.17886353 1.7096786l0 0.8843155l0 207.72559l0 0.88430786l-0.17886353 1.660553l-0.33117676 1.557373l-0.45928955 1.4001465l-0.58743286 1.1447144l-0.6647644 0.93344116l-0.76626587 0.6730652l-0.84365845 0.3635559l-0.43511963 0z" fill-rule="evenodd"/><path fill="#000000" fill-opacity="0.0" d="m39.249344 45.154854l68.220474 0l0 14.80315l-68.220474 0z" fill-rule="evenodd"/><path fill="#000000" d="m51.57747 58.763004q-0.828125 0 -1.515625 -0.390625q-0.671875 -0.390625 -1.0625 -1.078125q-0.390625 -0.6875 -0.390625 -1.515625q0 -0.84375 0.390625 -1.53125q0.390625 -0.6875 1.0625 -1.078125q0.6875 -0.390625 1.515625 -0.390625q0.640625 0 1.171875 0.25q0.53125 0.234375 0.921875 0.6875l-0.484375 0.46875q-0.328125 -0.390625 -0.71875 -0.5625q-0.390625 -0.1875 -0.890625 -0.1875q-0.625 0 -1.15625 0.296875q-0.515625 0.28125 -0.828125 0.8125q-0.296875 0.53125 -0.296875 1.234375q0 0.6875 0.296875 1.21875q0.3125 0.53125 0.828125 0.828125q0.53125 0.296875 1.15625 0.296875q1.046875 0 1.765625 -0.859375l0.5 0.484375q-0.390625 0.46875 -0.984375 0.75q-0.578125 0.265625 -1.28125 0.265625zm3.0197906 -5.859375l0.6875 0l0 5.734375l-0.6875 0l0 -5.734375zm3.172348 5.859375q-0.734375 0 -1.125 -0.421875q-0.390625 -0.4375 -0.390625 -1.21875l0 -2.5625l0.6875 0l0 2.46875q0 0.578125 0.265625 0.859375q0.265625 0.265625 0.703125 0.265625q0.34375 0 0.609375 -0.1875q0.28125 -0.1875 0.421875 -0.484375q0.140625 -0.296875 0.140625 -0.625l0 -2.296875l0.6875 0l0 4.078125l-0.640625 0l0 -0.59375l-0.046875 0q-0.15625 0.3125 -0.53125 0.515625q-0.359375 0.203125 -0.78125 0.203125zm4.3854523 0q-0.65625 0 -1.09375 -0.296875q-0.4375 -0.3125 -0.625 -0.796875l0.609375 -0.265625q0.15625 0.359375 0.453125 0.5625q0.296875 0.203125 0.65625 0.203125q0.390625 0 0.65625 -0.15625q0.28125 -0.15625 0.28125 -0.453125q0 -0.25 -0.21875 -0.40625q-0.21875 -0.15625 -0.6875 -0.265625l-0.484375 -0.125q-0.5 -0.125 -0.8125 -0.40625q-0.296875 -0.296875 -0.296875 -0.75q0 -0.359375 0.203125 -0.625q0.21875 -0.265625 0.5625 -0.40625q0.359375 -0.140625 0.765625 -0.140625q0.53125 0 0.953125 0.234375q0.421875 0.21875 0.59375 0.640625l-0.59375 0.265625q-0.265625 -0.53125 -0.96875 -0.53125q-0.328125 0 -0.578125 0.15625q-0.25 0.15625 -0.25 0.390625q0 0.21875 0.171875 0.359375q0.171875 0.140625 0.53125 0.234375l0.59375 0.15625q0.59375 0.140625 0.890625 0.453125q0.3125 0.296875 0.3125 0.71875q0 0.375 -0.21875 0.671875q-0.21875 0.28125 -0.59375 0.4375q-0.359375 0.140625 -0.8125 0.140625zm3.9002075 -0.0625q-0.25 0 -0.46875 -0.078125q-0.203125 -0.078125 -0.359375 -0.21875q-0.3125 -0.296875 -0.3125 -0.84375l0 -2.390625l-0.71875 0l0 -0.609375l0.71875 0l0 -1.15625l0.671875 0l0 1.15625l1.0 0l0 0.609375l-1.0 0l0 2.234375q0 0.328125 0.140625 0.484375q0.140625 0.1875 0.4375 0.1875q0.25 0 0.4375 -0.140625l0 0.65625q-0.109375 0.0625 -0.234375 0.078125q-0.125 0.03125 -0.3125 0.03125zm2.9863434 0.0625q-0.578125 0 -1.046875 -0.28125q-0.453125 -0.28125 -0.71875 -0.765625q-0.265625 -0.5 -0.265625 -1.109375q0 -0.578125 0.25 -1.078125q0.25 -0.5 0.703125 -0.796875q0.453125 -0.296875 1.03125 -0.296875q0.59375 0 1.03125 0.265625q0.453125 0.265625 0.6875 0.734375q0.234375 0.46875 0.234375 1.078125q0 0.09375 -0.015625 0.21875l-3.234375 0q0.015625 0.453125 0.21875 0.78125q0.203125 0.3125 0.515625 0.484375q0.3125 0.15625 0.640625 0.15625q0.796875 0 1.203125 -0.734375l0.578125 0.28125q-0.25 0.484375 -0.71875 0.78125q-0.453125 0.28125 -1.09375 0.28125zm1.1875 -2.59375q-0.015625 -0.265625 -0.15625 -0.515625q-0.125 -0.25 -0.390625 -0.421875q-0.265625 -0.1875 -0.6875 -0.1875q-0.484375 0 -0.828125 0.3125q-0.328125 0.3125 -0.421875 0.8125l2.484375 0zm1.5039368 -1.609375l0.65625 0l0 0.65625l0.03125 0q0.109375 -0.34375 0.453125 -0.5625q0.34375 -0.21875 0.734375 -0.21875q0.265625 0 0.46875 0.078125l0 0.734375q-0.25 -0.125 -0.578125 -0.125q-0.296875 0 -0.546875 0.171875q-0.234375 0.171875 -0.390625 0.453125q-0.140625 0.28125 -0.140625 0.609375l0 2.28125l-0.6875 0l0 -4.078125z" fill-rule="nonzero"/><path fill="#e6e6e6" d="m242.53905 153.6601l-0.34681702 0.035995483l-0.6216583 0.2748413l-0.48425293 0.44825745l-0.2748413 0.6249237l0 0.34355164l0 45.158997l0 0.34681702l0.2748413 0.6216583l0.48425293 0.48425293l0.6216583 0.2421112l0.34681702 0.032730103l45.123 0l0.37954712 -0.032730103l0.62164307 -0.2421112l0.4515381 -0.48425293l0.2748413 -0.6216583l0 -0.34681702l0 -45.158997l0 -0.34355164l-0.2748413 -0.6249237l-0.4515381 -0.44825745l-0.62164307 -0.2748413l-0.37954712 -0.035995483z" fill-rule="evenodd"/><path fill="#ffffff" d="m246.58315 186.05861l-0.34355164 0.035995483l-0.6216736 0.2748413l-0.48423767 0.45152283l-0.24212646 0.6216583l-0.035980225 0.34355164l0 8.716385l0.035980225 0.34355164l0.24212646 0.6216736l0.48423767 0.48423767l0.6216736 0.24212646l0.34355164 0.035980225l37.034805 0l0.3435669 -0.035980225l0.62164307 -0.24212646l0.48425293 -0.48423767l0.2781067 -0.6216736l0 -0.34355164l0 -8.716385l0 -0.34355164l-0.2781067 -0.6216583l-0.48425293 -0.45152283l-0.62164307 -0.2748413l-0.3435669 -0.035995483z" fill-rule="evenodd"/><path fill="#ffffff" d="m254.33104 157.74017l-0.62493896 0.2748413l-0.48423767 0.45152283l-0.23886108 0.6216736l-0.035980225 0.37953186l0 20.815933l0.035980225 0.34683228l0.23886108 0.6216583l0.48423767 0.48423767l0.62493896 0.27812195l21.539017 0l0.62493896 -0.27812195l0.48425293 -0.48423767l0.24212646 -0.6216583l0.032714844 -0.34683228l0 -20.815933l-0.032714844 -0.37953186l-0.24212646 -0.6216736l-0.48425293 -0.45152283l-0.62493896 -0.2748413z" fill-rule="evenodd"/><path fill="#000000" fill-opacity="0.0" d="m271.06363 173.29814l0 -6.880844l-5.945099 -3.4224243l-5.9810486 3.4224243l0 6.880844l5.9810486 3.4584198l5.945099 -3.4584198z" fill-rule="evenodd"/><path stroke="#b14d9d" stroke-width="1.3858267716535433" stroke-linejoin="round" stroke-linecap="butt" d="m271.06363 173.29814l0 -6.880844l-5.945099 -3.4224243l-5.9810486 3.4224243l0 6.880844l5.9810486 3.4584198l5.945099 -3.4584198z" fill-rule="evenodd"/><path fill="#000000" fill-opacity="0.0" d="m239.93307 177.98819l52.661407 0l0 14.803146l-52.661407 0z" fill-rule="evenodd"/><path fill="#000000" d="m252.2612 191.59634q-0.8125 0 -1.5 -0.390625q-0.671875 -0.390625 -1.078125 -1.078125q-0.390625 -0.6875 -0.390625 -1.515625q0 -0.84375 0.390625 -1.53125q0.40625 -0.6875 1.078125 -1.078125q0.6875 -0.390625 1.5 -0.390625q0.625 0 1.1875 0.234375q0.5625 0.21875 0.921875 0.625l-0.484375 0.484375q-0.28125 -0.328125 -0.703125 -0.5q-0.421875 -0.1875 -0.90625 -0.1875q-0.609375 0 -1.140625 0.296875q-0.515625 0.28125 -0.84375 0.8125q-0.3125 0.53125 -0.3125 1.234375q0 0.6875 0.3125 1.21875q0.328125 0.53125 0.84375 0.828125q0.53125 0.296875 1.140625 0.296875q0.5625 0 0.953125 -0.171875q0.390625 -0.1875 0.671875 -0.484375q0.203125 -0.234375 0.328125 -0.546875q0.140625 -0.3125 0.171875 -0.703125l-2.125 0l0 -0.625l2.75 0q0.046875 0.21875 0.046875 0.421875q0 0.515625 -0.171875 1.015625q-0.171875 0.5 -0.53125 0.875q-0.796875 0.859375 -2.109375 0.859375zm4.868286 0q-0.453125 0 -0.8125 -0.171875q-0.34373474 -0.171875 -0.54685974 -0.484375q-0.1875 -0.3125 -0.1875 -0.703125q0 -0.640625 0.48435974 -1.0q0.5 -0.375 1.234375 -0.375q0.375 0 0.6875 0.078125q0.3125 0.078125 0.484375 0.1875l0 -0.25q0 -0.453125 -0.328125 -0.71875q-0.3125 -0.28125 -0.796875 -0.28125q-0.328125 0 -0.625 0.15625q-0.296875 0.140625 -0.46875 0.390625l-0.49998474 -0.375q0.234375 -0.375 0.65623474 -0.578125q0.421875 -0.203125 0.9375 -0.203125q0.828125 0 1.296875 0.4375q0.484375 0.421875 0.484375 1.1875l0 2.578125l-0.65625 0l0 -0.578125l-0.03125 0q-0.171875 0.296875 -0.53125 0.5q-0.34375 0.203125 -0.78125 0.203125zm0.0625 -0.59375q0.34375 0 0.640625 -0.171875q0.296875 -0.1875 0.46875 -0.484375q0.171875 -0.296875 0.171875 -0.640625q-0.1875 -0.125 -0.46875 -0.203125q-0.28125 -0.09375 -0.59375 -0.09375q-0.5625 0 -0.84375 0.234375q-0.28125 0.234375 -0.28125 0.609375q0 0.328125 0.25 0.546875q0.265625 0.203125 0.65625 0.203125zm4.371063 0.53125q-0.25 0 -0.46875 -0.078125q-0.203125 -0.078125 -0.359375 -0.21875q-0.3125 -0.296875 -0.3125 -0.84375l0 -2.390625l-0.71875 0l0 -0.609375l0.71875 0l0 -1.15625l0.671875 0l0 1.15625l1.0 0l0 0.609375l-1.0 0l0 2.234375q0 0.328125 0.140625 0.484375q0.140625 0.1875 0.4375 0.1875q0.25 0 0.4375 -0.140625l0 0.65625q-0.109375 0.0625 -0.234375 0.078125q-0.125 0.03125 -0.3125 0.03125zm2.9863586 0.0625q-0.578125 0 -1.046875 -0.28125q-0.453125 -0.28125 -0.71875 -0.765625q-0.265625 -0.5 -0.265625 -1.109375q0 -0.578125 0.25 -1.078125q0.25 -0.5 0.703125 -0.796875q0.453125 -0.296875 1.03125 -0.296875q0.59375 0 1.03125 0.265625q0.453125 0.265625 0.6875 0.734375q0.234375 0.46875 0.234375 1.078125q0 0.09375 -0.015625 0.21875l-3.234375 0q0.015625 0.453125 0.21875 0.78125q0.203125 0.3125 0.515625 0.484375q0.3125 0.15625 0.640625 0.15625q0.796875 0 1.203125 -0.734375l0.578125 0.28125q-0.25 0.484375 -0.71875 0.78125q-0.453125 0.28125 -1.09375 0.28125zm1.1875 -2.59375q-0.015625 -0.265625 -0.15625 -0.515625q-0.125 -0.25 -0.390625 -0.421875q-0.265625 -0.1875 -0.6875 -0.1875q-0.484375 0 -0.828125 0.3125q-0.328125 0.3125 -0.421875 0.8125l2.484375 0zm0.9864197 -1.609375l0.703125 0l0.96875 3.21875l0 0l1.03125 -3.21875l0.703125 0l1.03125 3.21875l0 0l0.96875 -3.21875l0.6875 0l-1.3125 4.078125l-0.6875 0l-1.0625 -3.25l-1.046875 3.25l-0.671875 0l-1.3125 -4.078125zm7.8859253 4.203125q-0.453125 0 -0.8125 -0.171875q-0.34375 -0.171875 -0.546875 -0.484375q-0.1875 -0.3125 -0.1875 -0.703125q0 -0.640625 0.484375 -1.0q0.5 -0.375 1.234375 -0.375q0.375 0 0.6875 0.078125q0.3125 0.078125 0.484375 0.1875l0 -0.25q0 -0.453125 -0.328125 -0.71875q-0.3125 -0.28125 -0.796875 -0.28125q-0.328125 0 -0.625 0.15625q-0.296875 0.140625 -0.46875 0.390625l-0.5 -0.375q0.234375 -0.375 0.65625 -0.578125q0.421875 -0.203125 0.9375 -0.203125q0.828125 0 1.296875 0.4375q0.484375 0.421875 0.484375 1.1875l0 2.578125l-0.65625 0l0 -0.578125l-0.03125 0q-0.171875 0.296875 -0.53125 0.5q-0.34375 0.203125 -0.78125 0.203125zm0.0625 -0.59375q0.34375 0 0.640625 -0.171875q0.296875 -0.1875 0.46875 -0.484375q0.171875 -0.296875 0.171875 -0.640625q-0.1875 -0.125 -0.46875 -0.203125q-0.28125 -0.09375 -0.59375 -0.09375q-0.5625 0 -0.84375 0.234375q-0.28125 0.234375 -0.28125 0.609375q0 0.328125 0.25 0.546875q0.265625 0.203125 0.65625 0.203125zm4.042938 0.21875l-1.6875 -3.828125l0.734375 0l1.28125 3.03125l0.015625 0l1.234375 -3.03125l0.734375 0l-2.515625 5.8125l-0.703125 0l0.90625 -1.984375z" fill-rule="nonzero"/><path fill="#e6e6e6" d="m117.57218 233.92258l-0.27559662 0.028869629l-0.50131226 0.19422913l-0.359581 0.388443l-0.22309113 0.49868774l-0.026252747 0.2782135l0 30.509201l0.026252747 0.27819824l0.22309113 0.49868774l0.359581 0.38845825l0.50131226 0.19421387l0.27559662 0.028869629l59.608925 0l0.275589 -0.028869629l0.49868774 -0.19421387l0.36219788 -0.38845825l0.22047424 -0.49868774l0.028869629 -0.27819824l0 -30.509201l-0.028869629 -0.2782135l-0.22047424 -0.49868774l-0.36219788 -0.388443l-0.49868774 -0.19422913l-0.275589 -0.028869629z" fill-rule="evenodd"/><path fill="#ffffff" d="m121.732285 238.08267l-0.30446625 0.028869629l-0.49868774 0.19422913l-0.35957336 0.38845825l-0.22309875 0.49868774l0 0.2782135l0 22.188965l0 0.27822876l0.22309875 0.49868774l0.35957336 0.38845825l0.49868774 0.19421387l0.30446625 0.026245117l51.314957 0l0.2782135 -0.026245117l0.49868774 -0.19421387l0.35958862 -0.38845825l0.22309875 -0.49868774l0.026245117 -0.27822876l0 -22.188965l-0.026245117 -0.2782135l-0.22309875 -0.49868774l-0.35958862 -0.38845825l-0.49868774 -0.19422913l-0.2782135 -0.028869629z" fill-rule="evenodd"/><path fill="#466bb0" d="m126.698166 257.72046l4.771652 2.3858337l7.9317627 -2.3858337z" fill-rule="evenodd"/><path fill="#466bb0" d="m131.46982 247.37665l-4.771652 9.54068l4.771652 -0.80578613l0 -8.734894z" fill-rule="evenodd"/><path fill="#476baf" d="m132.24672 241.02493l0 15.086609l7.1548615 0.80578613l-7.1548615 -15.892395z" fill-rule="evenodd"/><path fill="#000000" fill-opacity="0.0" d="m135.50517 243.65224l40.503937 0l0 13.826767l-40.503937 0z" fill-rule="evenodd"/><path fill="#000000" d="m146.38588 247.51125l0.671875 0l0 5.734375l-0.671875 0l0 -5.734375zm3.2412262 5.859375q-0.65625 0 -1.09375 -0.296875q-0.4375 -0.3125 -0.625 -0.796875l0.609375 -0.265625q0.15625 0.359375 0.453125 0.5625q0.296875 0.203125 0.65625 0.203125q0.390625 0 0.65625 -0.15625q0.28125 -0.15625 0.28125 -0.453125q0 -0.25 -0.21875 -0.40625q-0.21875 -0.15625 -0.6875 -0.265625l-0.484375 -0.125q-0.5 -0.125 -0.8125 -0.40625q-0.296875 -0.296875 -0.296875 -0.75q0 -0.359375 0.203125 -0.625q0.21875 -0.265625 0.5625 -0.40625q0.359375 -0.140625 0.765625 -0.140625q0.53125 0 0.953125 0.234375q0.421875 0.21875 0.59375 0.640625l-0.59375 0.265625q-0.265625 -0.53125 -0.96875 -0.53125q-0.328125 0 -0.578125 0.15625q-0.25 0.15625 -0.25 0.390625q0 0.21875 0.171875 0.359375q0.171875 0.140625 0.53125 0.234375l0.59375 0.15625q0.59375 0.140625 0.890625 0.453125q0.3125 0.296875 0.3125 0.71875q0 0.375 -0.21875 0.671875q-0.21875 0.28125 -0.59375 0.4375q-0.359375 0.140625 -0.8125 0.140625zm3.9002075 -0.0625q-0.25 0 -0.46875 -0.078125q-0.203125 -0.078125 -0.359375 -0.21875q-0.3125 -0.296875 -0.3125 -0.84375l0 -2.390625l-0.71875 0l0 -0.609375l0.71875 0l0 -1.15625l0.671875 0l0 1.15625l1.0 0l0 0.609375l-1.0 0l0 2.234375q0 0.328125 0.140625 0.484375q0.140625 0.1875 0.4375 0.1875q0.25 0 0.4375 -0.140625l0 0.65625q-0.109375 0.0625 -0.234375 0.078125q-0.125 0.03125 -0.3125 0.03125zm1.7960815 -4.890625q-0.203125 0 -0.34375 -0.140625q-0.140625 -0.15625 -0.140625 -0.34375q0 -0.21875 0.140625 -0.359375q0.140625 -0.140625 0.34375 -0.140625q0.203125 0 0.34375 0.140625q0.140625 0.140625 0.140625 0.359375q0 0.1875 -0.140625 0.34375q-0.140625 0.140625 -0.34375 0.140625zm-0.34375 0.75l0.6875 0l0 4.078125l-0.6875 0l0 -4.078125zm3.596115 4.203125q-0.609375 0 -1.09375 -0.28125q-0.46875 -0.296875 -0.75 -0.78125q-0.265625 -0.5 -0.265625 -1.109375q0 -0.59375 0.265625 -1.078125q0.28125 -0.5 0.75 -0.78125q0.484375 -0.296875 1.09375 -0.296875q0.59375 0 1.0625 0.296875q0.484375 0.28125 0.75 0.78125q0.28125 0.484375 0.28125 1.078125q0 0.609375 -0.28125 1.109375q-0.265625 0.484375 -0.75 0.78125q-0.46875 0.28125 -1.0625 0.28125zm0 -0.609375q0.375 0 0.6875 -0.1875q0.328125 -0.1875 0.515625 -0.53125q0.203125 -0.359375 0.203125 -0.84375q0 -0.46875 -0.203125 -0.8125q-0.1875 -0.359375 -0.515625 -0.546875q-0.3125 -0.1875 -0.6875 -0.1875q-0.375 0 -0.703125 0.1875q-0.328125 0.1875 -0.53125 0.546875q-0.203125 0.34375 -0.203125 0.8125q0 0.484375 0.203125 0.84375q0.203125 0.34375 0.53125 0.53125q0.328125 0.1875 0.703125 0.1875zm4.6116943 0.609375q-0.546875 0 -1.0 -0.28125q-0.4375 -0.28125 -0.703125 -0.765625q-0.25 -0.5 -0.25 -1.125q0 -0.609375 0.25 -1.09375q0.265625 -0.5 0.703125 -0.78125q0.453125 -0.28125 1.0 -0.28125q0.46875 0 0.828125 0.21875q0.375 0.203125 0.5625 0.515625l0.03125 0l-0.03125 -0.578125l0 -1.6875l0.6875 0l0 5.734375l-0.65625 0l0 -0.59375l-0.03125 0q-0.1875 0.296875 -0.5625 0.515625q-0.359375 0.203125 -0.828125 0.203125zm0.078125 -0.609375q0.359375 0 0.65625 -0.1875q0.3125 -0.203125 0.5 -0.546875q0.1875 -0.359375 0.1875 -0.828125q0 -0.453125 -0.1875 -0.796875q-0.1875 -0.359375 -0.5 -0.546875q-0.296875 -0.203125 -0.65625 -0.203125q-0.359375 0 -0.671875 0.203125q-0.296875 0.1875 -0.5 0.546875q-0.1875 0.34375 -0.1875 0.796875q0 0.46875 0.1875 0.828125q0.203125 0.34375 0.5 0.546875q0.3125 0.1875 0.671875 0.1875z" fill-rule="nonzero"/><path fill="#e6e6e6" d="m341.13123 114.30971l-0.27557373 0.028877258l-0.50131226 0.1942215l-0.38583374 0.38845062l-0.22311401 0.49868774l0 0.27822113l0 30.509186l0 0.2782135l0.22311401 0.49868774l0.38583374 0.388443l0.50131226 0.19422913l0.27557373 0.028869629l93.77954 0l0.27819824 -0.028869629l0.49868774 -0.19422913l0.35958862 -0.388443l0.22311401 -0.49868774l0.028869629 -0.2782135l0 -30.509186l-0.028869629 -0.27822113l-0.22311401 -0.49868774l-0.35958862 -0.38845062l-0.49868774 -0.1942215l-0.27819824 -0.028877258z" fill-rule="evenodd"/><path fill="#ffffff" d="m347.03937 118.46982l-0.27557373 0.028869629l-0.50131226 0.19422913l-0.38845825 0.38845062l-0.2204895 0.49868774l0 0.2782135l0 22.188972l0 0.2782135l0.2204895 0.49868774l0.38845825 0.38845825l0.50131226 0.19422913l0.27557373 0.026245117l22.19159 0l0.27560425 -0.026245117l0.49868774 -0.19422913l0.36221313 -0.38845825l0.22045898 -0.49868774l0.028869629 -0.2782135l0 -22.188972l-0.028869629 -0.2782135l-0.22045898 -0.49868774l-0.36221313 -0.38845062l-0.49868774 -0.19422913l-0.27560425 -0.028869629z" fill-rule="evenodd"/><path fill="#000000" fill-opacity="0.0" d="m364.2651 134.47507l0 -7.073494l-6.131256 -3.5223083l-6.128601 3.5223083l0 7.073494l6.128601 3.551178l6.131256 -3.551178z" fill-rule="evenodd"/><path stroke="#b14d9d" stroke-width="1.3858267716535433" stroke-linejoin="round" stroke-linecap="butt" d="m364.2651 134.47507l0 -7.073494l-6.131256 -3.5223083l-6.128601 3.5223083l0 7.073494l6.128601 3.551178l6.131256 -3.551178z" fill-rule="evenodd"/><path fill="#ffffff" d="m377.2467 118.46982l-0.27819824 0.028869629l-0.49868774 0.19422913l-0.38845825 0.38845062l-0.2230835 0.49868774l0 0.2782135l0 22.188972l0 0.2782135l0.2230835 0.49868774l0.38845825 0.38845825l0.49868774 0.19422913l0.27819824 0.026245117l51.312347 0l0.27822876 -0.026245117l0.49868774 -0.19422913l0.3595581 -0.38845825l0.22311401 -0.49868774l0.026245117 -0.2782135l0 -22.188972l-0.026245117 -0.2782135l-0.22311401 -0.49868774l-0.3595581 -0.38845062l-0.49868774 -0.19422913l-0.27822876 -0.028869629z" fill-rule="evenodd"/><path fill="#767576" d="m385.98425 122.632545l-0.8609009 0.026245117l-1.6377869 0.33333588l-1.4698181 0.6377945l-1.330719 0.88713837l-1.1364746 1.1364822l-0.887146 1.3333359l-0.63778687 1.4698181l-0.3333435 1.6351624l-0.028869629 0.8609009l0.028869629 0.8608856l0.3333435 1.606308l0.63778687 1.4986877l0.887146 1.3307037l1.1364746 1.1391144l1.330719 0.88713074l1.4698181 0.6378021l1.6377869 0.33332825l0.8609009 0.026245117l0.85827637 -0.026245117l1.6089172 -0.33332825l1.4986877 -0.6378021l1.330719 -0.88713074l1.1364746 -1.1391144l0.887146 -1.3307037l0.63778687 -1.4986877l0.3333435 -1.606308l0.028869629 -0.8608856l-0.028869629 -0.8609009l-0.3333435 -1.6351624l-0.63778687 -1.4698181l-0.887146 -1.3333359l-1.1364746 -1.1364822l-1.330719 -0.88713837l-1.4986877 -0.6377945l-1.6089172 -0.33333588l-0.85827637 -0.026245117z" fill-rule="evenodd"/><path fill="#000000" fill-opacity="0.0" d="m388.9239 133.83727l-5.908142 0l0 -5.9081345l5.908142 0l0 5.9081345z" fill-rule="evenodd"/><path stroke="#ffffff" stroke-width="0.916010498687664" stroke-linejoin="round" stroke-linecap="butt" d="m388.9239 133.83727l-5.908142 0l0 -5.9081345l5.908142 0l0 5.9081345z" fill-rule="evenodd"/><path fill="#000000" fill-opacity="0.0" d="m384.12335 127.92913l0 -1.4146957" fill-rule="evenodd"/><path stroke="#ffffff" stroke-width="0.916010498687664" stroke-miterlimit="105.678" stroke-linecap="round" d="m384.12335 127.92913l0 -1.4146957" fill-rule="evenodd"/><path fill="#000000" fill-opacity="0.0" d="m385.98425 127.92913l0 -1.4146957" fill-rule="evenodd"/><path stroke="#ffffff" stroke-width="0.916010498687664" stroke-miterlimit="105.678" stroke-linecap="round" d="m385.98425 127.92913l0 -1.4146957" fill-rule="evenodd"/><path fill="#000000" fill-opacity="0.0" d="m387.84253 127.92913l0 -1.4146957" fill-rule="evenodd"/><path stroke="#ffffff" stroke-width="0.916010498687664" stroke-miterlimit="105.678" stroke-linecap="round" d="m387.84253 127.92913l0 -1.4146957" fill-rule="evenodd"/><path fill="#000000" fill-opacity="0.0" d="m384.12335 135.39108l0 -1.443573" fill-rule="evenodd"/><path stroke="#ffffff" stroke-width="0.916010498687664" stroke-miterlimit="105.678" stroke-linecap="round" d="m384.12335 135.39108l0 -1.443573" fill-rule="evenodd"/><path fill="#000000" fill-opacity="0.0" d="m385.98425 135.39108l0 -1.443573" fill-rule="evenodd"/><path stroke="#ffffff" stroke-width="0.916010498687664" stroke-miterlimit="105.678" stroke-linecap="round" d="m385.98425 135.39108l0 -1.443573" fill-rule="evenodd"/><path fill="#000000" fill-opacity="0.0" d="m387.84253 135.39108l0 -1.443573" fill-rule="evenodd"/><path stroke="#ffffff" stroke-width="0.916010498687664" stroke-miterlimit="105.678" stroke-linecap="round" d="m387.84253 135.39108l0 -1.443573" fill-rule="evenodd"/><path fill="#000000" fill-opacity="0.0" d="m382.96063 132.81102l-1.4147034 0" fill-rule="evenodd"/><path stroke="#ffffff" stroke-width="0.916010498687664" stroke-miterlimit="105.678" stroke-linecap="round" d="m382.96063 132.81102l-1.4147034 0" fill-rule="evenodd"/><path fill="#000000" fill-opacity="0.0" d="m382.96063 130.95276l-1.4147034 0" fill-rule="evenodd"/><path stroke="#ffffff" stroke-width="0.916010498687664" stroke-miterlimit="105.678" stroke-linecap="round" d="m382.96063 130.95276l-1.4147034 0" fill-rule="evenodd"/><path fill="#000000" fill-opacity="0.0" d="m382.96063 129.09448l-1.4147034 0" fill-rule="evenodd"/><path stroke="#ffffff" stroke-width="0.916010498687664" stroke-miterlimit="105.678" stroke-linecap="round" d="m382.96063 129.09448l-1.4147034 0" fill-rule="evenodd"/><path fill="#000000" fill-opacity="0.0" d="m390.41995 132.81102l-1.4409485 0" fill-rule="evenodd"/><path stroke="#ffffff" stroke-width="0.916010498687664" stroke-miterlimit="105.678" stroke-linecap="round" d="m390.41995 132.81102l-1.4409485 0" fill-rule="evenodd"/><path fill="#000000" fill-opacity="0.0" d="m390.41995 130.95276l-1.4409485 0" fill-rule="evenodd"/><path stroke="#ffffff" stroke-width="0.916010498687664" stroke-miterlimit="105.678" stroke-linecap="round" d="m390.41995 130.95276l-1.4409485 0" fill-rule="evenodd"/><path fill="#000000" fill-opacity="0.0" d="m390.41995 129.09448l-1.4409485 0" fill-rule="evenodd"/><path stroke="#ffffff" stroke-width="0.916010498687664" stroke-miterlimit="105.678" stroke-linecap="round" d="m390.41995 129.09448l-1.4409485 0" fill-rule="evenodd"/><path fill="#ffffff" d="m385.5958 129.56693l-0.19421387 0.026245117l-0.3333435 0.13911438l-0.24932861 0.24934387l-0.13912964 0.33332825l0 0.19422913l0 0.77690125l0 0.19422913l0.13912964 0.33332825l0.24932861 0.24934387l0.3333435 0.13648987l1.1627197 0l0.3333435 -0.13648987l0.24932861 -0.24934387l0.13912964 -0.33332825l0 -0.19422913l0 -0.77690125l0 -0.19422913l-0.13912964 -0.33332825l-0.24932861 -0.24934387l-0.3333435 -0.13911438l-0.19421387 -0.026245117z" fill-rule="evenodd"/><path fill="#000000" fill-opacity="0.0" d="m386.7034 118.46457l49.57483 0l0 24.97638l-49.57483 0z" fill-rule="evenodd"/><path fill="#000000" d="m397.56277 133.46213q-0.359375 0 -0.703125 -0.140625q-0.328125 -0.15625 -0.59375 -0.4375q-0.25 -0.296875 -0.359375 -0.71875l0.53125 -0.21875q0.125 0.421875 0.421875 0.703125q0.3125 0.265625 0.71875 0.265625q0.421875 0 0.703125 -0.21875q0.28125 -0.21875 0.28125 -0.609375q0 -0.328125 -0.25 -0.546875q-0.234375 -0.21875 -0.78125 -0.40625l-0.296875 -0.109375q-0.515625 -0.171875 -0.84375 -0.46875q-0.3125 -0.296875 -0.3125 -0.8125q0 -0.34375 0.1875 -0.625q0.1875 -0.296875 0.515625 -0.46875q0.34375 -0.171875 0.75 -0.171875q0.421875 0 0.71875 0.15625q0.3125 0.15625 0.484375 0.375q0.1875 0.21875 0.265625 0.4375l-0.53125 0.21875q-0.0625 -0.25 -0.3125 -0.4375q-0.234375 -0.203125 -0.609375 -0.203125q-0.375 0 -0.640625 0.203125q-0.25 0.203125 -0.25 0.515625q0 0.28125 0.21875 0.46875q0.21875 0.171875 0.671875 0.3125l0.3125 0.109375q0.59375 0.21875 0.9375 0.546875q0.34375 0.328125 0.34375 0.90625q0 0.453125 -0.234375 0.765625q-0.234375 0.3125 -0.59375 0.46875q-0.359375 0.140625 -0.75 0.140625zm3.8189087 0q-0.5 0 -0.890625 -0.234375q-0.375 -0.234375 -0.59375 -0.640625q-0.21875 -0.40625 -0.21875 -0.921875q0 -0.484375 0.203125 -0.90625q0.203125 -0.421875 0.578125 -0.65625q0.375 -0.25 0.875 -0.25q0.5 0 0.859375 0.21875q0.359375 0.21875 0.546875 0.625q0.203125 0.390625 0.203125 0.890625q0 0.078125 0 0.171875l-2.6875 0q0.015625 0.390625 0.171875 0.65625q0.171875 0.265625 0.421875 0.40625q0.265625 0.125 0.546875 0.125q0.65625 0 1.0 -0.609375l0.484375 0.234375q-0.21875 0.40625 -0.59375 0.65625q-0.375 0.234375 -0.90625 0.234375zm0.96875 -2.171875q-0.015625 -0.203125 -0.125 -0.421875q-0.09375 -0.21875 -0.328125 -0.359375q-0.21875 -0.140625 -0.5625 -0.140625q-0.40625 0 -0.6875 0.265625q-0.28125 0.25 -0.359375 0.65625l2.0625 0zm1.263031 -1.328125l0.53125 0l0 0.546875l0.03125 0q0.09375 -0.28125 0.375 -0.46875q0.296875 -0.1875 0.609375 -0.1875q0.234375 0 0.40625 0.078125l0 0.609375q-0.21875 -0.109375 -0.484375 -0.109375q-0.25 0 -0.453125 0.140625q-0.203125 0.140625 -0.328125 0.375q-0.125 0.234375 -0.125 0.515625l0 1.890625l-0.5625 0l0 -3.390625zm2.2344055 0l0.609375 0l1.046875 2.71875l0.015625 0l1.0625 -2.71875l0.59375 0l-1.390625 3.390625l-0.5625 0l-1.375 -3.390625zm4.1243896 -0.625q-0.171875 0 -0.296875 -0.125q-0.109375 -0.125 -0.109375 -0.28125q0 -0.171875 0.109375 -0.28125q0.125 -0.125 0.296875 -0.125q0.171875 0 0.28125 0.125q0.125 0.109375 0.125 0.28125q0 0.15625 -0.125 0.28125q-0.109375 0.125 -0.28125 0.125zm-0.28125 0.625l0.5625 0l0 3.390625l-0.5625 0l0 -3.390625zm2.9553223 3.5q-0.484375 0 -0.890625 -0.234375q-0.390625 -0.234375 -0.609375 -0.640625q-0.21875 -0.421875 -0.21875 -0.9375q0 -0.5 0.21875 -0.90625q0.21875 -0.421875 0.609375 -0.65625q0.40625 -0.234375 0.890625 -0.234375q0.5625 0 0.9375 0.265625q0.375 0.25 0.53125 0.671875l-0.515625 0.21875q-0.125 -0.3125 -0.375 -0.46875q-0.25 -0.171875 -0.59375 -0.171875q-0.3125 0 -0.578125 0.171875q-0.25 0.15625 -0.40625 0.453125q-0.15625 0.28125 -0.15625 0.65625q0 0.390625 0.15625 0.6875q0.15625 0.28125 0.40625 0.453125q0.265625 0.15625 0.578125 0.15625q0.359375 0 0.609375 -0.15625q0.265625 -0.171875 0.390625 -0.484375l0.5 0.21875q-0.171875 0.421875 -0.5625 0.6875q-0.375 0.25 -0.921875 0.25zm3.5852966 0q-0.5 0 -0.890625 -0.234375q-0.375 -0.234375 -0.59375 -0.640625q-0.21875 -0.40625 -0.21875 -0.921875q0 -0.484375 0.203125 -0.90625q0.203125 -0.421875 0.578125 -0.65625q0.375 -0.25 0.875 -0.25q0.5 0 0.859375 0.21875q0.359375 0.21875 0.546875 0.625q0.203125 0.390625 0.203125 0.890625q0 0.078125 0 0.171875l-2.6875 0q0.015625 0.390625 0.171875 0.65625q0.171875 0.265625 0.421875 0.40625q0.265625 0.125 0.546875 0.125q0.65625 0 1.0 -0.609375l0.484375 0.234375q-0.21875 0.40625 -0.59375 0.65625q-0.375 0.234375 -0.90625 0.234375zm0.96875 -2.171875q-0.015625 -0.203125 -0.125 -0.421875q-0.09375 -0.21875 -0.328125 -0.359375q-0.21875 -0.140625 -0.5625 -0.140625q-0.40625 0 -0.6875 0.265625q-0.28125 0.25 -0.359375 0.65625l2.0625 0zm0.841156 2.0625l0 0zm2.0755005 -4.765625l1.71875 0q0.359375 0 0.671875 0.171875q0.3125 0.15625 0.5 0.453125q0.1875 0.296875 0.1875 0.65625q0 0.34375 -0.1875 0.609375q-0.171875 0.265625 -0.46875 0.40625l0 0.015625q0.359375 0.125 0.578125 0.421875q0.234375 0.28125 0.234375 0.6875q0 0.375 -0.203125 0.6875q-0.1875 0.3125 -0.515625 0.484375q-0.328125 0.171875 -0.703125 0.171875l-1.8125 0l0 -4.765625zm1.71875 2.0625q0.234375 0 0.40625 -0.109375q0.1875 -0.109375 0.28125 -0.28125q0.109375 -0.1875 0.109375 -0.375q0 -0.171875 -0.09375 -0.34375q-0.09375 -0.1875 -0.28125 -0.296875q-0.171875 -0.125 -0.40625 -0.125l-1.171875 0l0 1.53125l1.15625 0zm0.125 2.15625q0.234375 0 0.421875 -0.109375q0.1875 -0.125 0.28125 -0.3125q0.109375 -0.1875 0.109375 -0.390625q0 -0.203125 -0.109375 -0.390625q-0.09375 -0.1875 -0.296875 -0.296875q-0.1875 -0.125 -0.4375 -0.125l-1.25 0l0 1.625l1.28125 0z" fill-rule="nonzero"/><path fill="#e6e6e6" d="m338.22964 212.30971l-0.27557373 0.028869629l-0.50131226 0.19422913l-0.38583374 0.38845825l-0.2230835 0.49868774l0 0.2782135l0 30.509186l0 0.2782135l0.2230835 0.49868774l0.38583374 0.388443l0.50131226 0.19422913l0.27557373 0.028869629l93.77954 0l0.27822876 -0.028869629l0.49868774 -0.19422913l0.3595581 -0.388443l0.22311401 -0.49868774l0.028869629 -0.2782135l0 -30.509186l-0.028869629 -0.2782135l-0.22311401 -0.49868774l-0.3595581 -0.38845825l-0.49868774 -0.19422913l-0.27822876 -0.028869629z" fill-rule="evenodd"/><path fill="#ffffff" d="m344.1378 216.46982l-0.27557373 0.028869629l-0.50131226 0.19422913l-0.38845825 0.388443l-0.22045898 0.49868774l0 0.2782135l0 22.18898l0 0.2782135l0.22045898 0.49868774l0.38845825 0.38845825l0.50131226 0.19422913l0.27557373 0.026245117l22.19162 0l0.27557373 -0.026245117l0.49868774 -0.19422913l0.36221313 -0.38845825l0.22045898 -0.49868774l0.028869629 -0.2782135l0 -22.18898l-0.028869629 -0.2782135l-0.22045898 -0.49868774l-0.36221313 -0.388443l-0.49868774 -0.19422913l-0.27557373 -0.028869629z" fill-rule="evenodd"/><path fill="#000000" fill-opacity="0.0" d="m361.36353 232.47507l0 -7.0734863l-6.131256 -3.5223083l-6.128601 3.5223083l0 7.0734863l6.128601 3.551178l6.131256 -3.551178z" fill-rule="evenodd"/><path stroke="#b14d9d" stroke-width="1.3858267716535433" stroke-linejoin="round" stroke-linecap="butt" d="m361.36353 232.47507l0 -7.0734863l-6.131256 -3.5223083l-6.128601 3.5223083l0 7.0734863l6.128601 3.551178l6.131256 -3.551178z" fill-rule="evenodd"/><path fill="#ffffff" d="m374.34515 216.46982l-0.27822876 0.028869629l-0.49868774 0.19422913l-0.38845825 0.388443l-0.2230835 0.49868774l0 0.2782135l0 22.18898l0 0.2782135l0.2230835 0.49868774l0.38845825 0.38845825l0.49868774 0.19422913l0.27822876 0.026245117l51.312317 0l0.27822876 -0.026245117l0.49868774 -0.19422913l0.35958862 -0.38845825l0.2230835 -0.49868774l0.026245117 -0.2782135l0 -22.18898l-0.026245117 -0.2782135l-0.2230835 -0.49868774l-0.35958862 -0.388443l-0.49868774 -0.19422913l-0.27822876 -0.028869629z" fill-rule="evenodd"/><path fill="#767576" d="m383.08267 220.63255l-0.8609009 0.026245117l-1.6377869 0.33332825l-1.4698181 0.6378021l-1.3306885 0.88713074l-1.1365051 1.1364899l-0.8871155 1.3333282l-0.6378174 1.4698181l-0.333313 1.6351624l-0.028869629 0.8609009l0.028869629 0.8608856l0.333313 1.606308l0.6378174 1.4986877l0.8871155 1.3307037l1.1365051 1.1391144l1.3306885 0.88713074l1.4698181 0.6378021l1.6377869 0.33332825l0.8609009 0.026245117l0.85827637 -0.026245117l1.6089172 -0.33332825l1.4986877 -0.6378021l1.330719 -0.88713074l1.1364746 -1.1391144l0.887146 -1.3307037l0.63778687 -1.4986877l0.3333435 -1.606308l0.028869629 -0.8608856l-0.028869629 -0.8609009l-0.3333435 -1.6351624l-0.63778687 -1.4698181l-0.887146 -1.3333282l-1.1364746 -1.1364899l-1.330719 -0.88713074l-1.4986877 -0.6378021l-1.6089172 -0.33332825l-0.85827637 -0.026245117z" fill-rule="evenodd"/><path fill="#000000" fill-opacity="0.0" d="m386.0223 231.83727l-5.908142 0l0 -5.908127l5.908142 0l0 5.908127z" fill-rule="evenodd"/><path stroke="#ffffff" stroke-width="0.916010498687664" stroke-linejoin="round" stroke-linecap="butt" d="m386.0223 231.83727l-5.908142 0l0 -5.908127l5.908142 0l0 5.908127z" fill-rule="evenodd"/><path fill="#000000" fill-opacity="0.0" d="m381.22177 225.92914l0 -1.4147034" fill-rule="evenodd"/><path stroke="#ffffff" stroke-width="0.916010498687664" stroke-miterlimit="105.678" stroke-linecap="round" d="m381.22177 225.92914l0 -1.4147034" fill-rule="evenodd"/><path fill="#000000" fill-opacity="0.0" d="m383.08267 225.92914l0 -1.4147034" fill-rule="evenodd"/><path stroke="#ffffff" stroke-width="0.916010498687664" stroke-miterlimit="105.678" stroke-linecap="round" d="m383.08267 225.92914l0 -1.4147034" fill-rule="evenodd"/><path fill="#000000" fill-opacity="0.0" d="m384.94095 225.92914l0 -1.4147034" fill-rule="evenodd"/><path stroke="#ffffff" stroke-width="0.916010498687664" stroke-miterlimit="105.678" stroke-linecap="round" d="m384.94095 225.92914l0 -1.4147034" fill-rule="evenodd"/><path fill="#000000" fill-opacity="0.0" d="m381.22177 233.39108l0 -1.443573" fill-rule="evenodd"/><path stroke="#ffffff" stroke-width="0.916010498687664" stroke-miterlimit="105.678" stroke-linecap="round" d="m381.22177 233.39108l0 -1.443573" fill-rule="evenodd"/><path fill="#000000" fill-opacity="0.0" d="m383.08267 233.39108l0 -1.443573" fill-rule="evenodd"/><path stroke="#ffffff" stroke-width="0.916010498687664" stroke-miterlimit="105.678" stroke-linecap="round" d="m383.08267 233.39108l0 -1.443573" fill-rule="evenodd"/><path fill="#000000" fill-opacity="0.0" d="m384.94095 233.39108l0 -1.443573" fill-rule="evenodd"/><path stroke="#ffffff" stroke-width="0.916010498687664" stroke-miterlimit="105.678" stroke-linecap="round" d="m384.94095 233.39108l0 -1.443573" fill-rule="evenodd"/><path fill="#000000" fill-opacity="0.0" d="m380.05905 230.81102l-1.4147034 0" fill-rule="evenodd"/><path stroke="#ffffff" stroke-width="0.916010498687664" stroke-miterlimit="105.678" stroke-linecap="round" d="m380.05905 230.81102l-1.4147034 0" fill-rule="evenodd"/><path fill="#000000" fill-opacity="0.0" d="m380.05905 228.95276l-1.4147034 0" fill-rule="evenodd"/><path stroke="#ffffff" stroke-width="0.916010498687664" stroke-miterlimit="105.678" stroke-linecap="round" d="m380.05905 228.95276l-1.4147034 0" fill-rule="evenodd"/><path fill="#000000" fill-opacity="0.0" d="m380.05905 227.09448l-1.4147034 0" fill-rule="evenodd"/><path stroke="#ffffff" stroke-width="0.916010498687664" stroke-miterlimit="105.678" stroke-linecap="round" d="m380.05905 227.09448l-1.4147034 0" fill-rule="evenodd"/><path fill="#000000" fill-opacity="0.0" d="m387.51837 230.81102l-1.4409485 0" fill-rule="evenodd"/><path stroke="#ffffff" stroke-width="0.916010498687664" stroke-miterlimit="105.678" stroke-linecap="round" d="m387.51837 230.81102l-1.4409485 0" fill-rule="evenodd"/><path fill="#000000" fill-opacity="0.0" d="m387.51837 228.95276l-1.4409485 0" fill-rule="evenodd"/><path stroke="#ffffff" stroke-width="0.916010498687664" stroke-miterlimit="105.678" stroke-linecap="round" d="m387.51837 228.95276l-1.4409485 0" fill-rule="evenodd"/><path fill="#000000" fill-opacity="0.0" d="m387.51837 227.09448l-1.4409485 0" fill-rule="evenodd"/><path stroke="#ffffff" stroke-width="0.916010498687664" stroke-miterlimit="105.678" stroke-linecap="round" d="m387.51837 227.09448l-1.4409485 0" fill-rule="evenodd"/><path fill="#ffffff" d="m382.6942 227.56693l-0.19421387 0.026245117l-0.3333435 0.13911438l-0.24932861 0.24934387l-0.13909912 0.33332825l0 0.19422913l0 0.77690125l0 0.19422913l0.13909912 0.33332825l0.24932861 0.24934387l0.3333435 0.13648987l1.1627197 0l0.3333435 -0.13648987l0.24932861 -0.24934387l0.13912964 -0.33332825l0 -0.19422913l0 -0.77690125l0 -0.19422913l-0.13912964 -0.33332825l-0.24932861 -0.24934387l-0.3333435 -0.13911438l-0.19421387 -0.026245117z" fill-rule="evenodd"/><path fill="#000000" fill-opacity="0.0" d="m383.80185 216.46457l49.5748 0l0 24.97638l-49.5748 0z" fill-rule="evenodd"/><path fill="#000000" d="m394.66122 231.46213q-0.359375 0 -0.703125 -0.140625q-0.328125 -0.15625 -0.59375 -0.4375q-0.25 -0.296875 -0.359375 -0.71875l0.53125 -0.21875q0.125 0.421875 0.421875 0.703125q0.3125 0.265625 0.71875 0.265625q0.421875 0 0.703125 -0.21875q0.28125 -0.21875 0.28125 -0.609375q0 -0.328125 -0.25 -0.546875q-0.234375 -0.21875 -0.78125 -0.40625l-0.296875 -0.109375q-0.515625 -0.171875 -0.84375 -0.46875q-0.3125 -0.296875 -0.3125 -0.8125q0 -0.34375 0.1875 -0.625q0.1875 -0.296875 0.515625 -0.46875q0.34375 -0.171875 0.75 -0.171875q0.421875 0 0.71875 0.15625q0.3125 0.15625 0.484375 0.375q0.1875 0.21875 0.265625 0.4375l-0.53125 0.21875q-0.0625 -0.25 -0.3125 -0.4375q-0.234375 -0.203125 -0.609375 -0.203125q-0.375 0 -0.640625 0.203125q-0.25 0.203125 -0.25 0.515625q0 0.28125 0.21875 0.46875q0.21875 0.171875 0.671875 0.3125l0.3125 0.109375q0.59375 0.21875 0.9375 0.546875q0.34375 0.328125 0.34375 0.90625q0 0.453125 -0.234375 0.765625q-0.234375 0.3125 -0.59375 0.46875q-0.359375 0.140625 -0.75 0.140625zm3.8188782 0q-0.5 0 -0.890625 -0.234375q-0.375 -0.234375 -0.59375 -0.640625q-0.21875 -0.40625 -0.21875 -0.921875q0 -0.484375 0.203125 -0.90625q0.203125 -0.421875 0.578125 -0.65625q0.375 -0.25 0.875 -0.25q0.5 0 0.859375 0.21875q0.359375 0.21875 0.546875 0.625q0.203125 0.390625 0.203125 0.890625q0 0.078125 0 0.171875l-2.6875 0q0.015625 0.390625 0.171875 0.65625q0.171875 0.265625 0.421875 0.40625q0.265625 0.125 0.546875 0.125q0.65625 0 1.0 -0.609375l0.484375 0.234375q-0.21875 0.40625 -0.59375 0.65625q-0.375 0.234375 -0.90625 0.234375zm0.96875 -2.171875q-0.015625 -0.203125 -0.125 -0.421875q-0.09375 -0.21875 -0.328125 -0.359375q-0.21875 -0.140625 -0.5625 -0.140625q-0.40625 0 -0.6875 0.265625q-0.28125 0.25 -0.359375 0.65625l2.0625 0zm1.2630615 -1.328125l0.53125 0l0 0.546875l0.03125 0q0.09375 -0.28125 0.375 -0.46875q0.296875 -0.1875 0.609375 -0.1875q0.234375 0 0.40625 0.078125l0 0.609375q-0.21875 -0.109375 -0.484375 -0.109375q-0.25 0 -0.453125 0.140625q-0.203125 0.140625 -0.328125 0.375q-0.125 0.234375 -0.125 0.515625l0 1.890625l-0.5625 0l0 -3.390625zm2.234375 0l0.609375 0l1.046875 2.71875l0.015625 0l1.0625 -2.71875l0.59375 0l-1.390625 3.390625l-0.5625 0l-1.375 -3.390625zm4.1243896 -0.625q-0.171875 0 -0.296875 -0.125q-0.109375 -0.125 -0.109375 -0.28125q0 -0.171875 0.109375 -0.28125q0.125 -0.125 0.296875 -0.125q0.171875 0 0.28125 0.125q0.125 0.109375 0.125 0.28125q0 0.15625 -0.125 0.28125q-0.109375 0.125 -0.28125 0.125zm-0.28125 0.625l0.5625 0l0 3.390625l-0.5625 0l0 -3.390625zm2.9553223 3.5q-0.484375 0 -0.890625 -0.234375q-0.390625 -0.234375 -0.609375 -0.640625q-0.21875 -0.421875 -0.21875 -0.9375q0 -0.5 0.21875 -0.90625q0.21875 -0.421875 0.609375 -0.65625q0.40625 -0.234375 0.890625 -0.234375q0.5625 0 0.9375 0.265625q0.375 0.25 0.53125 0.671875l-0.515625 0.21875q-0.125 -0.3125 -0.375 -0.46875q-0.25 -0.171875 -0.59375 -0.171875q-0.3125 0 -0.578125 0.171875q-0.25 0.15625 -0.40625 0.453125q-0.15625 0.28125 -0.15625 0.65625q0 0.390625 0.15625 0.6875q0.15625 0.28125 0.40625 0.453125q0.265625 0.15625 0.578125 0.15625q0.359375 0 0.609375 -0.15625q0.265625 -0.171875 0.390625 -0.484375l0.5 0.21875q-0.171875 0.421875 -0.5625 0.6875q-0.375 0.25 -0.921875 0.25zm3.5852966 0q-0.5 0 -0.890625 -0.234375q-0.375 -0.234375 -0.59375 -0.640625q-0.21875 -0.40625 -0.21875 -0.921875q0 -0.484375 0.203125 -0.90625q0.203125 -0.421875 0.578125 -0.65625q0.375 -0.25 0.875 -0.25q0.5 0 0.859375 0.21875q0.359375 0.21875 0.546875 0.625q0.203125 0.390625 0.203125 0.890625q0 0.078125 0 0.171875l-2.6875 0q0.015625 0.390625 0.171875 0.65625q0.171875 0.265625 0.421875 0.40625q0.265625 0.125 0.546875 0.125q0.65625 0 1.0 -0.609375l0.484375 0.234375q-0.21875 0.40625 -0.59375 0.65625q-0.375 0.234375 -0.90625 0.234375zm0.96875 -2.171875q-0.015625 -0.203125 -0.125 -0.421875q-0.09375 -0.21875 -0.328125 -0.359375q-0.21875 -0.140625 -0.5625 -0.140625q-0.40625 0 -0.6875 0.265625q-0.28125 0.25 -0.359375 0.65625l2.0625 0zm0.8411865 2.0625l0 0zm4.1765137 0.109375q-0.6875 0 -1.265625 -0.328125q-0.5625 -0.328125 -0.890625 -0.890625q-0.3125 -0.578125 -0.3125 -1.28125q0 -0.6875 0.3125 -1.25q0.328125 -0.578125 0.890625 -0.90625q0.578125 -0.328125 1.265625 -0.328125q0.53125 0 0.96875 0.203125q0.453125 0.203125 0.78125 0.578125l-0.40625 0.390625q-0.28125 -0.328125 -0.609375 -0.46875q-0.3125 -0.15625 -0.734375 -0.15625q-0.515625 0 -0.953125 0.25q-0.421875 0.234375 -0.6875 0.671875q-0.25 0.4375 -0.25 1.015625q0 0.59375 0.25 1.03125q0.265625 0.4375 0.6875 0.6875q0.4375 0.234375 0.953125 0.234375q0.875 0 1.46875 -0.703125l0.421875 0.390625q-0.328125 0.390625 -0.828125 0.625q-0.484375 0.234375 -1.0625 0.234375z" fill-rule="nonzero"/><path fill="#000000" fill-opacity="0.0" d="m79.562996 89.49344l68.22047 0l0 14.803146l-68.22047 0z" fill-rule="evenodd"/><path fill="#000000" d="m89.20362 97.24221l1.921875 0q0.484375 0 0.890625 0.21875q0.40625 0.21875 0.65625 0.609375q0.25 0.390625 0.25 0.875q0 0.484375 -0.25 0.875q-0.25 0.390625 -0.65625 0.609375q-0.40625 0.203125 -0.890625 0.203125l-1.25 0l0 2.34375l-0.671875 0l0 -5.734375zm1.9375 2.75q0.328125 0 0.5625 -0.140625q0.25 -0.15625 0.375 -0.390625q0.140625 -0.25 0.140625 -0.515625q0 -0.265625 -0.140625 -0.5q-0.125 -0.25 -0.375 -0.390625q-0.234375 -0.15625 -0.5625 -0.15625l-1.265625 0l0 2.09375l1.265625 0zm4.140442 3.109375q-0.609375 0 -1.09375 -0.28125q-0.46875 -0.296875 -0.75 -0.78125q-0.265625 -0.5 -0.265625 -1.109375q0 -0.59375 0.265625 -1.078125q0.28125 -0.5 0.75 -0.78125q0.484375 -0.296875 1.09375 -0.296875q0.59375 0 1.0625 0.296875q0.484375 0.28125 0.75 0.78125q0.28125 0.484375 0.28125 1.078125q0 0.609375 -0.28125 1.109375q-0.265625 0.484375 -0.75 0.78125q-0.46875 0.28125 -1.0625 0.28125zm0 -0.609375q0.375 0 0.6875 -0.1875q0.328125 -0.1875 0.515625 -0.53125q0.203125 -0.359375 0.203125 -0.84375q0 -0.46875 -0.203125 -0.8125q-0.1875 -0.359375 -0.515625 -0.546875q-0.3125 -0.1875 -0.6875 -0.1875q-0.375 0 -0.703125 0.1875q-0.328125 0.1875 -0.53125 0.546875q-0.203125 0.34375 -0.203125 0.8125q0 0.484375 0.203125 0.84375q0.203125 0.34375 0.53125 0.53125q0.328125 0.1875 0.703125 0.1875zm4.6116943 0.609375q-0.546875 0 -1.0 -0.28125q-0.4375 -0.28125 -0.703125 -0.765625q-0.25 -0.5 -0.25 -1.125q0 -0.609375 0.25 -1.09375q0.265625 -0.5 0.703125 -0.78125q0.453125 -0.28125 1.0 -0.28125q0.46875 0 0.828125 0.21875q0.375 0.203125 0.5625 0.515625l0.03125 0l-0.03125 -0.578125l0 -1.6875l0.6875 0l0 5.734375l-0.65625 0l0 -0.59375l-0.03125 0q-0.1875 0.296875 -0.5625 0.515625q-0.359375 0.203125 -0.828125 0.203125zm0.078125 -0.609375q0.359375 0 0.65625 -0.1875q0.3125 -0.203125 0.5 -0.546875q0.1875 -0.359375 0.1875 -0.828125q0 -0.453125 -0.1875 -0.796875q-0.1875 -0.359375 -0.5 -0.546875q-0.296875 -0.203125 -0.65625 -0.203125q-0.359375 0 -0.671875 0.203125q-0.296875 0.1875 -0.5 0.546875q-0.1875 0.34375 -0.1875 0.796875q0 0.46875 0.1875 0.828125q0.203125 0.34375 0.5 0.546875q0.3125 0.1875 0.671875 0.1875z" fill-rule="nonzero"/><path fill="#000000" fill-opacity="0.0" d="m324.43726 94.50787l81.00787 0l0 14.803146l-81.00787 0z" fill-rule="evenodd"/><path fill="#000000" d="m333.54663 102.256645l0.75 0l1.421875 4.15625l0.1875 0.5625l0.03125 0l0.203125 -0.5625l1.484375 -4.15625l0.75 0l-2.09375 5.734375l-0.703125 0l-2.03125 -5.734375zm5.6848145 0.90625q-0.203125 0 -0.34375 -0.140625q-0.140625 -0.15625 -0.140625 -0.34375q0 -0.21875 0.140625 -0.359375q0.140625 -0.140625 0.34375 -0.140625q0.203125 0 0.34375 0.140625q0.140625 0.140625 0.140625 0.359375q0 0.1875 -0.140625 0.34375q-0.140625 0.140625 -0.34375 0.140625zm-0.34375 0.75l0.6875 0l0 4.078125l-0.6875 0l0 -4.078125zm6.3548584 4.140625q-0.25 0 -0.46875 -0.078125q-0.203125 -0.078125 -0.359375 -0.21875q-0.3125 -0.296875 -0.3125 -0.84375l0 -2.390625l-0.71875 0l0 -0.609375l0.71875 0l0 -1.15625l0.671875 0l0 1.15625l1.0 0l0 0.609375l-1.0 0l0 2.234375q0 0.328125 0.140625 0.484375q0.140625 0.1875 0.4375 0.1875q0.25 0 0.4375 -0.140625l0 0.65625q-0.109375 0.0625 -0.234375 0.078125q-0.125 0.03125 -0.3125 0.03125zm-4.609375 -4.140625l0.65625 0l0 0.640625l0.03125 0q0.140625 -0.359375 0.484375 -0.546875q0.34375 -0.203125 0.765625 -0.203125q0.15625 0 0.28125 0.015625l0 0.703125q-0.140625 -0.03125 -0.359375 -0.03125q-0.53125 0 -0.859375 0.34375q-0.3125 0.34375 -0.3125 0.890625l0 2.265625l-0.6875 0l0 -4.078125zm7.4443054 4.203125q-0.734375 0 -1.125 -0.421875q-0.390625 -0.4375 -0.390625 -1.21875l0 -2.5625l0.6875 0l0 2.46875q0 0.578125 0.265625 0.859375q0.265625 0.265625 0.703125 0.265625q0.34375 0 0.609375 -0.1875q0.28125 -0.1875 0.421875 -0.484375q0.140625 -0.296875 0.140625 -0.625l0 -2.296875l0.6875 0l0 4.078125l-0.640625 0l0 -0.59375l-0.046875 0q-0.15625 0.3125 -0.53125 0.515625q-0.359375 0.203125 -0.78125 0.203125zm4.276062 0q-0.453125 0 -0.8125 -0.171875q-0.34375 -0.171875 -0.546875 -0.484375q-0.1875 -0.3125 -0.1875 -0.703125q0 -0.640625 0.484375 -1.0q0.5 -0.375 1.234375 -0.375q0.375 0 0.6875 0.078125q0.3125 0.078125 0.484375 0.1875l0 -0.25q0 -0.453125 -0.328125 -0.71875q-0.3125 -0.28125 -0.796875 -0.28125q-0.328125 0 -0.625 0.15625q-0.296875 0.140625 -0.46875 0.390625l-0.5 -0.375q0.234375 -0.375 0.65625 -0.578125q0.421875 -0.203125 0.9375 -0.203125q0.828125 0 1.296875 0.4375q0.484375 0.421875 0.484375 1.1875l0 2.578125l-0.65625 0l0 -0.578125l-0.03125 0q-0.171875 0.296875 -0.53125 0.5q-0.34375 0.203125 -0.78125 0.203125zm0.0625 -0.59375q0.34375 0 0.640625 -0.171875q0.296875 -0.1875 0.46875 -0.484375q0.171875 -0.296875 0.171875 -0.640625q-0.1875 -0.125 -0.46875 -0.203125q-0.28125 -0.09375 -0.59375 -0.09375q-0.5625 0 -0.84375 0.234375q-0.28125 0.234375 -0.28125 0.609375q0 0.328125 0.25 0.546875q0.265625 0.203125 0.65625 0.203125zm2.8729553 -5.265625l0.6875 0l0 5.734375l-0.6875 0l0 -5.734375zm1.1879578 5.734375l0 0zm2.4966125 -5.734375l0.984375 0l1.828125 4.703125l0.03125 0l1.8125 -4.703125l0.984375 0l0 5.734375l-0.671875 0l0 -3.640625l0.03125 -1.09375l-0.03125 0l-1.859375 4.734375l-0.5625 0l-1.875 -4.734375l-0.03125 0l0.03125 1.09375l0 3.640625l-0.671875 0l0 -5.734375zm7.9797974 5.859375q-0.453125 0 -0.8125 -0.171875q-0.34375 -0.171875 -0.546875 -0.484375q-0.1875 -0.3125 -0.1875 -0.703125q0 -0.640625 0.484375 -1.0q0.5 -0.375 1.234375 -0.375q0.375 0 0.6875 0.078125q0.3125 0.078125 0.484375 0.1875l0 -0.25q0 -0.453125 -0.328125 -0.71875q-0.3125 -0.28125 -0.796875 -0.28125q-0.328125 0 -0.625 0.15625q-0.296875 0.140625 -0.46875 0.390625l-0.5 -0.375q0.234375 -0.375 0.65625 -0.578125q0.421875 -0.203125 0.9375 -0.203125q0.828125 0 1.296875 0.4375q0.484375 0.421875 0.484375 1.1875l0 2.578125l-0.65625 0l0 -0.578125l-0.03125 0q-0.171875 0.296875 -0.53125 0.5q-0.34375 0.203125 -0.78125 0.203125zm0.0625 -0.59375q0.34375 0 0.640625 -0.171875q0.296875 -0.1875 0.46875 -0.484375q0.171875 -0.296875 0.171875 -0.640625q-0.1875 -0.125 -0.46875 -0.203125q-0.28125 -0.09375 -0.59375 -0.09375q-0.5625 0 -0.84375 0.234375q-0.28125 0.234375 -0.28125 0.609375q0 0.328125 0.25 0.546875q0.265625 0.203125 0.65625 0.203125zm4.692322 0.59375q-0.59375 0 -1.078125 -0.28125q-0.46875 -0.28125 -0.734375 -0.765625q-0.265625 -0.5 -0.265625 -1.125q0 -0.609375 0.265625 -1.09375q0.265625 -0.5 0.734375 -0.78125q0.484375 -0.28125 1.078125 -0.28125q0.65625 0 1.109375 0.3125q0.453125 0.296875 0.640625 0.8125l-0.609375 0.25q-0.15625 -0.375 -0.453125 -0.5625q-0.296875 -0.203125 -0.734375 -0.203125q-0.359375 0 -0.671875 0.203125q-0.296875 0.1875 -0.5 0.546875q-0.1875 0.34375 -0.1875 0.796875q0 0.46875 0.1875 0.828125q0.203125 0.34375 0.5 0.546875q0.3125 0.1875 0.671875 0.1875q0.4375 0 0.75 -0.203125q0.3125 -0.203125 0.46875 -0.5625l0.609375 0.25q-0.21875 0.5 -0.671875 0.8125q-0.453125 0.3125 -1.109375 0.3125zm2.5085754 -5.859375l0.6875 0l0 1.6875l-0.03125 0.5625l0.03125 0q0.171875 -0.3125 0.53125 -0.515625q0.359375 -0.203125 0.796875 -0.203125q0.734375 0 1.125 0.4375q0.40625 0.421875 0.40625 1.15625l0 2.609375l-0.6875 0l0 -2.515625q0 -0.546875 -0.28125 -0.8125q-0.28125 -0.265625 -0.71875 -0.265625q-0.328125 0 -0.59375 0.203125q-0.265625 0.1875 -0.421875 0.5q-0.15625 0.296875 -0.15625 0.625l0 2.265625l-0.6875 0l0 -5.734375zm4.9181824 0.90625q-0.203125 0 -0.34375 -0.140625q-0.140625 -0.15625 -0.140625 -0.34375q0 -0.21875 0.140625 -0.359375q0.140625 -0.140625 0.34375 -0.140625q0.203125 0 0.34375 0.140625q0.140625 0.140625 0.140625 0.359375q0 0.1875 -0.140625 0.34375q-0.140625 0.140625 -0.34375 0.140625zm-0.34375 0.75l0.6875 0l0 4.078125l-0.6875 0l0 -4.078125zm1.7454834 0l0.65625 0l0 0.59375l0.03125 0q0.171875 -0.296875 0.53125 -0.5q0.375 -0.21875 0.78125 -0.21875q0.734375 0 1.125 0.421875q0.390625 0.421875 0.390625 1.171875l0 2.609375l-0.671875 0l0 -2.515625q0 -0.5625 -0.28125 -0.8125q-0.265625 -0.265625 -0.75 -0.265625q-0.328125 0 -0.59375 0.1875q-0.25 0.1875 -0.390625 0.484375q-0.140625 0.296875 -0.140625 0.625l0 2.296875l-0.6875 0l0 -4.078125zm6.3004456 4.203125q-0.578125 0 -1.046875 -0.28125q-0.453125 -0.28125 -0.71875 -0.765625q-0.265625 -0.5 -0.265625 -1.109375q0 -0.578125 0.25 -1.078125q0.25 -0.5 0.703125 -0.796875q0.453125 -0.296875 1.03125 -0.296875q0.59375 0 1.03125 0.265625q0.453125 0.265625 0.6875 0.734375q0.234375 0.46875 0.234375 1.078125q0 0.09375 -0.015625 0.21875l-3.234375 0q0.015625 0.453125 0.21875 0.78125q0.203125 0.3125 0.515625 0.484375q0.3125 0.15625 0.640625 0.15625q0.796875 0 1.203125 -0.734375l0.578125 0.28125q-0.25 0.484375 -0.71875 0.78125q-0.453125 0.28125 -1.09375 0.28125zm1.1875 -2.59375q-0.015625 -0.265625 -0.15625 -0.515625q-0.125 -0.25 -0.390625 -0.421875q-0.265625 -0.1875 -0.6875 -0.1875q-0.484375 0 -0.828125 0.3125q-0.328125 0.3125 -0.421875 0.8125l2.484375 0z" fill-rule="nonzero"/><path fill="#000000" fill-opacity="0.0" d="m324.43726 192.50787l81.00787 0l0 14.803146l-81.00787 0z" fill-rule="evenodd"/><path fill="#000000" d="m333.54663 200.25665l0.75 0l1.421875 4.15625l0.1875 0.5625l0.03125 0l0.203125 -0.5625l1.484375 -4.15625l0.75 0l-2.09375 5.734375l-0.703125 0l-2.03125 -5.734375zm5.6848145 0.90625q-0.203125 0 -0.34375 -0.140625q-0.140625 -0.15625 -0.140625 -0.34375q0 -0.21875 0.140625 -0.359375q0.140625 -0.140625 0.34375 -0.140625q0.203125 0 0.34375 0.140625q0.140625 0.140625 0.140625 0.359375q0 0.1875 -0.140625 0.34375q-0.140625 0.140625 -0.34375 0.140625zm-0.34375 0.75l0.6875 0l0 4.078125l-0.6875 0l0 -4.078125zm6.3548584 4.140625q-0.25 0 -0.46875 -0.078125q-0.203125 -0.078125 -0.359375 -0.21875q-0.3125 -0.296875 -0.3125 -0.84375l0 -2.390625l-0.71875 0l0 -0.609375l0.71875 0l0 -1.15625l0.671875 0l0 1.15625l1.0 0l0 0.609375l-1.0 0l0 2.234375q0 0.328125 0.140625 0.484375q0.140625 0.1875 0.4375 0.1875q0.25 0 0.4375 -0.140625l0 0.65625q-0.109375 0.0625 -0.234375 0.078125q-0.125 0.03125 -0.3125 0.03125zm-4.609375 -4.140625l0.65625 0l0 0.640625l0.03125 0q0.140625 -0.359375 0.484375 -0.546875q0.34375 -0.203125 0.765625 -0.203125q0.15625 0 0.28125 0.015625l0 0.703125q-0.140625 -0.03125 -0.359375 -0.03125q-0.53125 0 -0.859375 0.34375q-0.3125 0.34375 -0.3125 0.890625l0 2.265625l-0.6875 0l0 -4.078125zm7.4443054 4.203125q-0.734375 0 -1.125 -0.421875q-0.390625 -0.4375 -0.390625 -1.21875l0 -2.5625l0.6875 0l0 2.46875q0 0.578125 0.265625 0.859375q0.265625 0.265625 0.703125 0.265625q0.34375 0 0.609375 -0.1875q0.28125 -0.1875 0.421875 -0.484375q0.140625 -0.296875 0.140625 -0.625l0 -2.296875l0.6875 0l0 4.078125l-0.640625 0l0 -0.59375l-0.046875 0q-0.15625 0.3125 -0.53125 0.515625q-0.359375 0.203125 -0.78125 0.203125zm4.276062 0q-0.453125 0 -0.8125 -0.171875q-0.34375 -0.171875 -0.546875 -0.484375q-0.1875 -0.3125 -0.1875 -0.703125q0 -0.640625 0.484375 -1.0q0.5 -0.375 1.234375 -0.375q0.375 0 0.6875 0.078125q0.3125 0.078125 0.484375 0.1875l0 -0.25q0 -0.453125 -0.328125 -0.71875q-0.3125 -0.28125 -0.796875 -0.28125q-0.328125 0 -0.625 0.15625q-0.296875 0.140625 -0.46875 0.390625l-0.5 -0.375q0.234375 -0.375 0.65625 -0.578125q0.421875 -0.203125 0.9375 -0.203125q0.828125 0 1.296875 0.4375q0.484375 0.421875 0.484375 1.1875l0 2.578125l-0.65625 0l0 -0.578125l-0.03125 0q-0.171875 0.296875 -0.53125 0.5q-0.34375 0.203125 -0.78125 0.203125zm0.0625 -0.59375q0.34375 0 0.640625 -0.171875q0.296875 -0.1875 0.46875 -0.484375q0.171875 -0.296875 0.171875 -0.640625q-0.1875 -0.125 -0.46875 -0.203125q-0.28125 -0.09375 -0.59375 -0.09375q-0.5625 0 -0.84375 0.234375q-0.28125 0.234375 -0.28125 0.609375q0 0.328125 0.25 0.546875q0.265625 0.203125 0.65625 0.203125zm2.8729553 -5.265625l0.6875 0l0 5.734375l-0.6875 0l0 -5.734375zm1.1879578 5.734375l0 0zm2.4966125 -5.734375l0.984375 0l1.828125 4.703125l0.03125 0l1.8125 -4.703125l0.984375 0l0 5.734375l-0.671875 0l0 -3.640625l0.03125 -1.09375l-0.03125 0l-1.859375 4.734375l-0.5625 0l-1.875 -4.734375l-0.03125 0l0.03125 1.09375l0 3.640625l-0.671875 0l0 -5.734375zm7.9797974 5.859375q-0.453125 0 -0.8125 -0.171875q-0.34375 -0.171875 -0.546875 -0.484375q-0.1875 -0.3125 -0.1875 -0.703125q0 -0.640625 0.484375 -1.0q0.5 -0.375 1.234375 -0.375q0.375 0 0.6875 0.078125q0.3125 0.078125 0.484375 0.1875l0 -0.25q0 -0.453125 -0.328125 -0.71875q-0.3125 -0.28125 -0.796875 -0.28125q-0.328125 0 -0.625 0.15625q-0.296875 0.140625 -0.46875 0.390625l-0.5 -0.375q0.234375 -0.375 0.65625 -0.578125q0.421875 -0.203125 0.9375 -0.203125q0.828125 0 1.296875 0.4375q0.484375 0.421875 0.484375 1.1875l0 2.578125l-0.65625 0l0 -0.578125l-0.03125 0q-0.171875 0.296875 -0.53125 0.5q-0.34375 0.203125 -0.78125 0.203125zm0.0625 -0.59375q0.34375 0 0.640625 -0.171875q0.296875 -0.1875 0.46875 -0.484375q0.171875 -0.296875 0.171875 -0.640625q-0.1875 -0.125 -0.46875 -0.203125q-0.28125 -0.09375 -0.59375 -0.09375q-0.5625 0 -0.84375 0.234375q-0.28125 0.234375 -0.28125 0.609375q0 0.328125 0.25 0.546875q0.265625 0.203125 0.65625 0.203125zm4.692322 0.59375q-0.59375 0 -1.078125 -0.28125q-0.46875 -0.28125 -0.734375 -0.765625q-0.265625 -0.5 -0.265625 -1.125q0 -0.609375 0.265625 -1.09375q0.265625 -0.5 0.734375 -0.78125q0.484375 -0.28125 1.078125 -0.28125q0.65625 0 1.109375 0.3125q0.453125 0.296875 0.640625 0.8125l-0.609375 0.25q-0.15625 -0.375 -0.453125 -0.5625q-0.296875 -0.203125 -0.734375 -0.203125q-0.359375 0 -0.671875 0.203125q-0.296875 0.1875 -0.5 0.546875q-0.1875 0.34375 -0.1875 0.796875q0 0.46875 0.1875 0.828125q0.203125 0.34375 0.5 0.546875q0.3125 0.1875 0.671875 0.1875q0.4375 0 0.75 -0.203125q0.3125 -0.203125 0.46875 -0.5625l0.609375 0.25q-0.21875 0.5 -0.671875 0.8125q-0.453125 0.3125 -1.109375 0.3125zm2.5085754 -5.859375l0.6875 0l0 1.6875l-0.03125 0.5625l0.03125 0q0.171875 -0.3125 0.53125 -0.515625q0.359375 -0.203125 0.796875 -0.203125q0.734375 0 1.125 0.4375q0.40625 0.421875 0.40625 1.15625l0 2.609375l-0.6875 0l0 -2.515625q0 -0.546875 -0.28125 -0.8125q-0.28125 -0.265625 -0.71875 -0.265625q-0.328125 0 -0.59375 0.203125q-0.265625 0.1875 -0.421875 0.5q-0.15625 0.296875 -0.15625 0.625l0 2.265625l-0.6875 0l0 -5.734375zm4.9181824 0.90625q-0.203125 0 -0.34375 -0.140625q-0.140625 -0.15625 -0.140625 -0.34375q0 -0.21875 0.140625 -0.359375q0.140625 -0.140625 0.34375 -0.140625q0.203125 0 0.34375 0.140625q0.140625 0.140625 0.140625 0.359375q0 0.1875 -0.140625 0.34375q-0.140625 0.140625 -0.34375 0.140625zm-0.34375 0.75l0.6875 0l0 4.078125l-0.6875 0l0 -4.078125zm1.7454834 0l0.65625 0l0 0.59375l0.03125 0q0.171875 -0.296875 0.53125 -0.5q0.375 -0.21875 0.78125 -0.21875q0.734375 0 1.125 0.421875q0.390625 0.421875 0.390625 1.171875l0 2.609375l-0.671875 0l0 -2.515625q0 -0.5625 -0.28125 -0.8125q-0.265625 -0.265625 -0.75 -0.265625q-0.328125 0 -0.59375 0.1875q-0.25 0.1875 -0.390625 0.484375q-0.140625 0.296875 -0.140625 0.625l0 2.296875l-0.6875 0l0 -4.078125zm6.3004456 4.203125q-0.578125 0 -1.046875 -0.28125q-0.453125 -0.28125 -0.71875 -0.765625q-0.265625 -0.5 -0.265625 -1.109375q0 -0.578125 0.25 -1.078125q0.25 -0.5 0.703125 -0.796875q0.453125 -0.296875 1.03125 -0.296875q0.59375 0 1.03125 0.265625q0.453125 0.265625 0.6875 0.734375q0.234375 0.46875 0.234375 1.078125q0 0.09375 -0.015625 0.21875l-3.234375 0q0.015625 0.453125 0.21875 0.78125q0.203125 0.3125 0.515625 0.484375q0.3125 0.15625 0.640625 0.15625q0.796875 0 1.203125 -0.734375l0.578125 0.28125q-0.25 0.484375 -0.71875 0.78125q-0.453125 0.28125 -1.09375 0.28125zm1.1875 -2.59375q-0.015625 -0.265625 -0.15625 -0.515625q-0.125 -0.25 -0.390625 -0.421875q-0.265625 -0.1875 -0.6875 -0.1875q-0.484375 0 -0.828125 0.3125q-0.328125 0.3125 -0.421875 0.8125l2.484375 0z" fill-rule="nonzero"/><path fill="#000000" fill-opacity="0.0" d="m339.6811 131.69948l-24.75589 0l0 43.496063l-24.75592 0" fill-rule="evenodd"/><path stroke="#476bb0" stroke-width="1.858267716535433" stroke-linejoin="round" stroke-linecap="round" stroke-dasharray="5.574803149606299,7.433070866141732" d="m331.3189 131.69948l-16.393707 0l0 43.496063l-24.75592 0" fill-rule="evenodd"/><path fill="#476bb0" stroke="#476bb0" stroke-width="1.858267716535433" stroke-linecap="butt" d="m331.3189 133.7543l5.6455994 -2.0548248l-5.6455994 -2.05484z" fill-rule="evenodd"/><path fill="#000000" fill-opacity="0.0" d="m336.6811 229.69948l0 0.49856567l-21.51181 0l0 -54.986755" fill-rule="evenodd"/><path stroke="#476bb0" stroke-width="1.858267716535433" stroke-linejoin="round" stroke-linecap="round" stroke-dasharray="5.574803149606299,7.433070866141732" d="m328.33377 230.19804l-13.16449 0l0 -54.986755" fill-rule="evenodd"/><path fill="#476bb0" stroke="#476bb0" stroke-width="1.858267716535433" stroke-linecap="butt" d="m328.4563 232.24922l5.513031 -2.3877869l-5.7580566 -1.7145691z" fill-rule="evenodd"/><path fill="#000000" fill-opacity="0.0" d="m239.93307 185.38977l-96.28758 0l0 48.818893l0.035614014 0" fill-rule="evenodd"/><path stroke="#476bb0" stroke-width="1.858267716535433" stroke-linejoin="round" stroke-linecap="round" stroke-dasharray="5.574803149606299,7.433070866141732" d="m239.93307 185.38977l-96.28758 0l0 48.818893l0.035614014 0" fill-rule="evenodd"/><path fill="#000000" fill-opacity="0.0" d="m143.6811 143.19817l0 20.503937l0.06298828 0l0 20.503937" fill-rule="evenodd"/><path stroke="#476bb0" stroke-width="1.858267716535433" stroke-linejoin="round" stroke-linecap="round" stroke-dasharray="5.574803149606299,7.433070866141732" d="m143.6811 151.56036l0 12.141739l0.06298828 0l0 20.503937" fill-rule="evenodd"/><path fill="#476bb0" stroke="#476bb0" stroke-width="1.858267716535433" stroke-linecap="butt" d="m145.73593 151.56036l-2.0548248 -5.6455994l-2.05484 5.6455994z" fill-rule="evenodd"/><path fill="#000000" fill-opacity="0.0" d="m190.1798 117.69948l149.00786 0" fill-rule="evenodd"/><path stroke="#009444" stroke-width="2.0" stroke-linejoin="round" stroke-linecap="butt" d="m202.1798 117.69948l125.00786 0" fill-rule="evenodd"/><path fill="#009444" stroke="#009444" stroke-width="2.0" stroke-linecap="butt" d="m202.1798 114.39601l-9.076202 3.3034668l9.076202 3.3034592z" fill-rule="evenodd"/><path fill="#009444" stroke="#009444" stroke-width="2.0" stroke-linecap="butt" d="m327.18765 121.00294l9.076202 -3.3034592l-9.076202 -3.3034668z" fill-rule="evenodd"/><path fill="#000000" fill-opacity="0.0" d="m421.1719 211.69948l0 -63.02362" fill-rule="evenodd"/><path stroke="#009444" stroke-width="2.0" stroke-linejoin="round" stroke-linecap="butt" d="m421.1719 199.69948l0 -39.02362" fill-rule="evenodd"/><path fill="#009444" stroke="#009444" stroke-width="2.0" stroke-linecap="butt" d="m417.86844 199.69948l3.3034668 9.076187l3.3034668 -9.076187z" fill-rule="evenodd"/><path fill="#009444" stroke="#009444" stroke-width="2.0" stroke-linecap="butt" d="m424.47537 160.67586l-3.3034668 -9.076202l-3.3034668 9.076202z" fill-rule="evenodd"/></g></svg>