<?xml version="1.0" standalone="no"?>
<!DOCTYPE svg PUBLIC "-//W3C//DTD SVG 20010904//EN"
 "http://www.w3.org/TR/2001/REC-SVG-20010904/DTD/svg10.dtd">
<svg version="1.0" xmlns="http://www.w3.org/2000/svg"
 width="637.000000pt" height="480.000000pt" viewBox="0 0 637.000000 480.000000"
 preserveAspectRatio="xMidYMid meet">

<g transform="translate(0.000000,480.000000) scale(0.100000,-0.100000)"
fill="#000000" stroke="none">
<path d="M1970 4640 c0 -5 5 -10 10 -10 6 0 10 5 10 10 0 6 -4 10 -10 10 -5 0
-10 -4 -10 -10z"/>
<path d="M5010 4625 c0 -18 -4 -23 -15 -19 -22 9 -45 -14 -45 -46 0 -33 16
-48 53 -48 27 0 27 1 27 69 0 39 -4 69 -10 69 -5 0 -10 -11 -10 -25z m-5 -66
c0 -24 -5 -34 -15 -34 -16 0 -25 37 -16 62 10 26 31 8 31 -28z"/>
<path d="M1909 4624 c-2 -10 -2 -39 1 -64 4 -39 8 -45 30 -47 14 -1 18 0 8 3
-13 4 -18 16 -18 45 0 30 4 39 18 40 13 0 14 2 2 6 -8 4 -20 13 -26 21 -9 13
-11 12 -15 -4z"/>
<path d="M2185 4630 c-3 -5 1 -10 9 -10 12 0 16 -11 16 -49 0 -30 -5 -51 -12
-54 -7 -3 5 -5 27 -5 22 0 32 2 23 5 -15 4 -18 16 -18 64 0 52 -2 59 -19 59
-11 0 -23 -4 -26 -10z"/>
<path d="M2356 4596 c-32 -55 -32 -56 -1 -56 13 0 29 -8 34 -17 9 -16 10 -16
11 -1 0 9 6 19 13 21 10 4 10 6 0 6 -9 1 -13 17 -13 46 0 25 -4 45 -9 45 -5 0
-21 -20 -35 -44z m34 -16 c0 -23 -4 -30 -20 -30 -24 0 -25 8 -4 38 20 29 24
28 24 -8z"/>
<path d="M2612 4631 c-8 -5 -12 -21 -10 -37 2 -23 9 -30 31 -32 15 -2 27 -7
27 -11 0 -16 -28 -31 -45 -24 -13 4 -16 3 -11 -5 21 -34 76 5 76 52 0 54 -31
81 -68 57z m46 -35 c-4 -25 -36 -34 -44 -12 -8 21 13 46 32 39 8 -3 14 -15 12
-27z"/>
<path d="M2724 4632 c-33 -21 -27 -107 8 -118 28 -9 52 18 52 60 0 51 -29 79
-60 58z m46 -57 c0 -38 -20 -61 -38 -43 -29 29 -5 111 25 87 7 -7 13 -26 13
-44z"/>
<path d="M2870 4630 c0 -5 7 -10 15 -10 23 0 21 -86 -2 -99 -14 -8 -10 -10 22
-10 32 0 36 2 23 10 -14 8 -18 23 -18 64 0 48 -2 55 -20 55 -11 0 -20 -4 -20
-10z"/>
<path d="M2982 4628 c-16 -16 -16 -90 0 -106 31 -31 68 -1 68 53 0 54 -37 84
-68 53z m43 -54 c0 -37 -4 -49 -15 -49 -22 0 -36 49 -22 80 19 41 37 25 37
-31z"/>
<path d="M3094 4632 c-33 -21 -27 -107 8 -118 28 -9 52 18 52 60 0 51 -29 79
-60 58z m46 -57 c0 -38 -20 -61 -38 -43 -29 29 -5 111 25 87 7 -7 13 -26 13
-44z"/>
<path d="M3192 4628 c-16 -16 -16 -90 0 -106 31 -31 68 -1 68 53 0 54 -37 84
-68 53z m43 -54 c0 -37 -4 -49 -15 -49 -22 0 -36 49 -22 80 19 41 37 25 37
-31z"/>
<path d="M3296 4618 c-9 -12 -16 -32 -16 -43 0 -29 28 -65 50 -65 10 0 22 -4
25 -10 3 -5 11 -10 17 -10 7 0 7 4 -1 14 -9 10 -8 16 4 26 8 7 15 27 15 45 0
59 -63 87 -94 43z m62 0 c17 -17 15 -73 -2 -87 -11 -9 -20 -10 -35 -1 -27 14
-29 74 -3 89 22 13 26 13 40 -1z"/>
<path d="M3421 4573 c1 -47 3 -59 8 -38 4 21 13 31 28 33 56 8 49 72 -7 72
l-30 0 1 -67z m48 48 c19 -12 6 -41 -19 -41 -13 0 -20 7 -20 18 0 31 14 39 39
23z"/>
<path d="M3521 4622 c-12 -23 4 -52 30 -52 24 0 37 -29 18 -41 -8 -4 -25 -5
-38 -2 -17 4 -22 2 -17 -6 10 -16 61 -14 76 4 17 21 5 45 -30 58 -17 6 -30 17
-30 23 0 15 26 25 45 18 8 -4 15 -1 15 5 0 18 -58 13 -69 -7z"/>
<path d="M4104 4629 c-4 -7 0 -9 13 -5 12 4 25 1 32 -7 8 -11 4 -23 -19 -55
-17 -23 -30 -44 -30 -47 0 -3 17 -4 38 -4 31 2 32 3 9 6 l-28 4 25 34 c29 38
33 70 10 79 -24 9 -42 7 -50 -5z"/>
<path d="M4225 4600 c-31 -50 -31 -60 0 -60 16 0 25 -6 25 -15 0 -8 5 -15 10
-15 6 0 10 6 10 14 0 8 6 17 13 19 10 4 10 6 0 6 -9 1 -13 17 -13 46 0 25 -4
45 -10 45 -5 0 -21 -18 -35 -40z m25 -20 c0 -24 -4 -30 -21 -30 -20 0 -20 1
-2 30 9 17 19 30 20 30 2 0 3 -13 3 -30z"/>
<path d="M4322 4628 c-16 -16 -16 -90 0 -106 31 -31 68 -1 68 53 0 54 -37 84
-68 53z m48 -53 c0 -48 -22 -68 -40 -35 -20 37 -3 94 25 84 10 -4 15 -20 15
-49z"/>
<path d="M1783 4560 c0 -30 2 -43 4 -27 2 15 2 39 0 55 -2 15 -4 2 -4 -28z"/>
<path d="M1827 4603 c-16 -15 -6 -43 18 -49 31 -8 27 -30 -4 -27 -11 2 -21 -2
-21 -8 0 -6 12 -9 28 -7 38 4 42 40 7 56 -29 13 -24 36 6 27 11 -4 19 -2 19 4
0 12 -43 15 -53 4z"/>
<path d="M1970 4560 c0 -27 5 -50 10 -50 6 0 10 23 10 50 0 28 -4 50 -10 50
-5 0 -10 -22 -10 -50z"/>
<path d="M2031 4601 c-8 -5 -14 -24 -14 -41 0 -52 54 -70 75 -25 22 49 -19 93
-61 66z m49 -40 c0 -26 -21 -43 -37 -30 -16 14 -17 41 -1 57 14 14 38 -2 38
-27z"/>
<path d="M2501 4535 c1 -38 4 -58 6 -44 3 21 8 25 28 21 33 -6 54 36 37 73 -9
20 -18 25 -42 23 l-30 -2 1 -71z m59 25 c0 -30 -21 -45 -39 -27 -23 23 -4 71
25 60 8 -3 14 -18 14 -33z"/>
<path d="M3681 4596 c-31 -37 9 -103 47 -80 36 23 23 94 -18 94 -10 0 -23 -6
-29 -14z m49 -16 c8 -14 8 -26 0 -41 -14 -25 -34 -20 -38 10 -7 47 18 68 38
31z"/>
<path d="M3770 4601 c0 -20 32 -91 41 -91 10 0 24 31 35 77 5 17 3 24 -4 19
-6 -3 -13 -20 -17 -36 -4 -17 -10 -30 -15 -30 -5 0 -11 13 -15 30 -6 29 -25
52 -25 31z"/>
<path d="M3882 4598 c-7 -7 -12 -24 -12 -38 0 -14 5 -31 12 -38 15 -15 55 -16
64 0 5 8 2 9 -9 5 -22 -8 -47 2 -47 19 0 9 11 14 30 14 18 0 30 5 30 13 0 18
-21 37 -40 37 -9 0 -21 -5 -28 -12z m48 -13 c11 -13 8 -15 -14 -15 -25 0 -33
10 -19 23 10 11 19 8 33 -8z"/>
<path d="M3982 4555 c1 -43 2 -45 5 -13 3 24 12 43 26 53 22 15 22 15 -6 13
-26 -2 -27 -5 -25 -53z"/>
<path d="M4469 4594 c-11 -14 -10 -18 5 -30 10 -7 23 -15 29 -17 21 -7 -5 -28
-26 -21 -17 5 -19 3 -11 -6 19 -19 59 -8 62 17 3 17 -3 24 -23 29 -31 8 -27
30 4 27 13 -2 20 1 16 7 -9 15 -41 12 -56 -6z"/>
<path d="M4562 4598 c-7 -7 -12 -24 -12 -38 0 -14 5 -31 12 -38 15 -15 55 -16
64 0 5 8 2 9 -9 5 -22 -8 -47 2 -47 19 0 9 11 14 30 14 18 0 30 5 30 13 0 18
-21 37 -40 37 -9 0 -21 -5 -28 -12z m48 -13 c11 -13 8 -15 -14 -15 -25 0 -33
10 -19 23 10 11 19 8 33 -8z"/>
<path d="M4658 4585 c-16 -36 3 -75 37 -75 14 0 25 5 25 11 0 5 -4 8 -9 5 -19
-12 -41 7 -41 34 0 27 22 46 41 34 5 -3 9 0 9 5 0 6 -11 11 -25 11 -17 0 -29
-8 -37 -25z"/>
<path d="M4748 4585 c-8 -19 -8 -31 0 -50 21 -45 75 -27 75 25 0 52 -54 70
-75 25z m62 -24 c0 -23 -19 -41 -36 -34 -17 6 -18 60 -1 66 16 6 37 -12 37
-32z"/>
<path d="M4850 4558 c0 -59 18 -64 22 -5 2 29 8 42 18 42 10 0 16 -13 18 -42
4 -49 22 -59 22 -12 0 47 -16 68 -50 67 -29 -1 -30 -3 -30 -50z"/>
<path d="M5067 4603 c-16 -15 -6 -43 18 -49 35 -9 25 -30 -11 -26 -22 3 -26 0
-18 -8 19 -19 59 -8 62 17 3 17 -3 24 -23 29 -30 8 -28 30 4 27 11 -2 21 2 21
7 0 11 -43 14 -53 3z"/>
<path d="M2123 4553 c9 -2 23 -2 30 0 6 3 -1 5 -18 5 -16 0 -22 -2 -12 -5z"/>
<path d="M2290 4520 c0 -5 5 -10 10 -10 6 0 10 5 10 10 0 6 -4 10 -10 10 -5 0
-10 -4 -10 -10z"/>
<path d="M2816 4514 c-4 -9 -4 -19 -1 -22 2 -3 7 3 11 12 4 9 4 19 1 22 -2 3
-7 -3 -11 -12z"/>
<path d="M356 4462 c-3 -6 2 -8 13 -5 31 8 35 -17 7 -46 -34 -35 -33 -41 7
-40 25 1 27 3 9 6 l-24 5 22 23 c12 13 20 31 18 42 -3 19 -42 30 -52 15z"/>
<path d="M444 4456 c-3 -8 -4 -29 -2 -48 2 -25 8 -34 25 -36 29 -4 47 36 33
73 -10 27 -47 35 -56 11z m41 -37 c0 -24 -5 -34 -15 -34 -16 0 -25 37 -16 62
10 26 31 8 31 -28z"/>
<path d="M574 4445 c-10 -39 3 -75 26 -75 29 0 47 42 32 75 -7 15 -20 25 -32
25 -13 0 -22 -9 -26 -25z m41 -26 c0 -24 -5 -34 -15 -34 -16 0 -25 37 -16 62
10 26 31 8 31 -28z"/>
<path d="M713 4423 l27 -4 0 -234 0 -234 -27 -4 -28 -4 28 -2 27 -1 0 -234 0
-235 -27 -4 -28 -4 28 -2 27 -1 0 -234 0 -235 -27 -4 -28 -4 28 -2 27 -1 0
-239 0 -240 -27 -4 -28 -4 28 -2 27 -1 0 -234 0 -235 -27 -4 -28 -4 28 -2 27
-1 0 -234 0 -235 -27 -4 -28 -4 28 -2 27 -1 0 -234 0 -235 -27 -4 -28 -4 28
-2 27 -1 0 -234 0 -235 -27 -4 -28 -4 27 -2 c21 -1 28 -7 31 -28 l4 -28 2 28
1 27 379 0 380 0 4 -27 4 -28 2 28 1 27 384 0 385 0 4 -27 4 -28 2 28 1 27
379 0 380 0 4 -27 4 -28 2 28 1 27 379 0 380 0 4 -27 4 -28 2 28 1 27 384 0
385 0 4 -28 4 -27 2 28 1 27 379 0 380 0 4 -28 4 -27 2 28 1 27 379 0 380 0 4
-28 c2 -15 5 854 6 1931 l1 1957 -2737 -1 c-1506 -1 -2726 -4 -2710 -6z m5435
-295 c0 -161 -3 -278 -5 -260 -5 40 -17 38 -44 -6 l-21 -32 26 0 c18 0 26 -6
27 -17 0 -15 2 -15 9 2 5 12 9 -103 9 -279 1 -233 -2 -297 -11 -288 -14 14
-48 16 -48 3 0 -5 9 -7 20 -4 30 8 26 -25 -7 -59 l-27 -28 37 0 37 0 0 -260
c0 -244 -1 -260 -18 -260 -26 0 -42 -20 -42 -51 0 -31 23 -54 45 -45 13 5 15
-104 15 -979 l0 -985 -2700 0 -2700 0 0 1920 0 1920 2700 0 2700 0 -2 -292z
m-18 -268 c0 -11 -7 -20 -15 -20 -18 0 -19 12 -3 28 16 16 18 15 18 -8z m20
-665 c0 -18 -5 -25 -20 -25 -20 0 -20 1 -4 25 9 14 18 25 20 25 2 0 4 -11 4
-25z m0 -579 c0 -10 -7 -12 -22 -9 -22 5 -22 5 -4 -9 19 -15 17 -48 -4 -48
-10 0 -12 6 -12 40 0 36 2 40 22 40 11 0 20 -6 20 -14z"/>
<path d="M1400 4245 c0 -30 5 -55 10 -55 6 0 10 25 10 55 0 30 -4 55 -10 55
-5 0 -10 -25 -10 -55z"/>
<path d="M2330 4245 c0 -30 5 -55 10 -55 6 0 10 25 10 55 0 30 -4 55 -10 55
-5 0 -10 -25 -10 -55z"/>
<path d="M2370 4245 c0 -30 5 -55 10 -55 6 0 10 25 10 55 0 30 -4 55 -10 55
-5 0 -10 -25 -10 -55z"/>
<path d="M2701 4249 c-1 -54 0 -56 25 -55 51 2 59 71 8 71 -10 0 -22 9 -26 20
-3 12 -6 -4 -7 -36z m44 -19 c0 -13 -5 -25 -11 -27 -14 -5 -25 22 -17 42 8 23
28 12 28 -15z"/>
<path d="M2932 4245 c1 -47 2 -52 7 -25 4 22 12 35 21 35 9 0 18 -13 22 -35
l6 -35 -1 40 c-2 33 -6 40 -22 40 -11 0 -23 9 -27 20 -3 11 -6 -7 -6 -40z"/>
<path d="M1268 4278 c-2 -7 -2 -29 2 -48 3 -25 11 -35 25 -37 11 -2 14 0 8 3
-16 7 -17 64 -2 64 6 0 4 7 -5 15 -18 18 -23 19 -28 3z"/>
<path d="M1749 4281 c-3 -7 -3 -30 -1 -52 3 -33 8 -39 26 -38 16 1 17 2 4 6
-12 3 -18 14 -18 34 0 21 5 29 18 30 13 0 14 2 2 6 -8 3 -18 10 -21 16 -4 5
-8 5 -10 -2z"/>
<path d="M2026 4282 c-3 -5 4 -8 16 -8 31 1 32 -18 3 -53 l-27 -31 39 1 c31 2
33 3 9 6 l-28 5 22 23 c12 13 20 31 18 42 -3 19 -42 31 -52 15z"/>
<path d="M2869 4278 c-4 -45 10 -88 29 -87 10 0 12 3 5 6 -16 6 -17 63 -2 63
6 0 4 7 -5 15 -18 18 -26 19 -27 3z"/>
<path d="M1319 4246 c-9 -20 -9 -29 1 -41 13 -16 60 -21 60 -7 0 5 -10 8 -21
8 -12 -1 -24 5 -26 12 -3 7 5 12 22 12 20 0 26 4 23 18 -5 28 -46 27 -59 -2z
m46 4 c3 -5 -3 -10 -15 -10 -12 0 -18 5 -15 10 3 6 10 10 15 10 5 0 12 -4 15
-10z"/>
<path d="M1444 4256 c-3 -8 -4 -25 -2 -38 2 -18 10 -23 33 -25 27 -2 28 -1 6
5 -37 11 -38 32 -2 32 33 0 39 8 19 28 -16 16 -47 15 -54 -2z m46 -6 c0 -5 -9
-10 -21 -10 -11 0 -17 5 -14 10 3 6 13 10 21 10 8 0 14 -4 14 -10z"/>
<path d="M1531 4226 l2 -41 6 34 c8 48 31 53 31 7 0 -44 18 -48 22 -4 4 46 28
49 28 4 0 -20 5 -36 10 -36 12 0 13 50 2 66 -4 6 -28 11 -54 11 l-48 -1 1 -40z"/>
<path d="M1664 4256 c-3 -8 -4 -25 -2 -38 2 -18 10 -23 33 -25 27 -2 28 -1 6
5 -37 11 -38 32 -2 32 33 0 39 8 19 28 -16 16 -47 15 -54 -2z m46 -6 c0 -5 -9
-10 -21 -10 -11 0 -17 5 -14 10 3 6 13 10 21 10 8 0 14 -4 14 -10z"/>
<path d="M1801 4225 c1 -41 3 -40 13 8 9 40 39 35 55 -8 10 -28 10 -39 1 -50
-9 -11 -10 -15 -1 -15 12 0 32 41 45 90 6 22 5 22 -11 -5 l-17 -30 -10 28 c-8
23 -15 27 -43 25 -32 -2 -33 -4 -32 -43z"/>
<path d="M1947 4230 c9 -22 20 -40 24 -40 10 0 33 69 25 77 -3 3 -8 -6 -12
-21 -8 -33 -22 -33 -30 -1 -3 14 -10 25 -14 25 -5 0 -1 -18 7 -40z"/>
<path d="M2161 4226 c1 -42 3 -41 13 7 9 37 29 30 38 -14 6 -34 6 -34 5 6 -2
36 -5 40 -29 41 -26 1 -28 -1 -27 -40z"/>
<path d="M2253 4235 c2 -36 5 -40 30 -41 25 -1 27 1 26 40 -1 42 -3 41 -13 -7
-9 -37 -29 -30 -38 14 -6 34 -6 34 -5 -6z"/>
<path d="M2411 4264 c-2 -19 21 -74 30 -74 5 0 9 2 9 4 0 2 7 20 15 40 8 20
11 36 7 36 -5 0 -14 -15 -19 -32 l-10 -33 -16 35 c-8 19 -16 30 -16 24z"/>
<path d="M2490 4229 c0 -47 17 -52 22 -7 4 46 28 49 28 4 0 -44 18 -48 22 -4
4 46 28 49 28 4 0 -20 5 -36 10 -36 13 0 13 40 0 60 -6 10 -27 15 -60 16 l-50
2 0 -39z"/>
<path d="M2790 4251 c-15 -29 4 -63 33 -59 18 2 22 10 22 38 0 28 -4 36 -22
38 -14 2 -26 -4 -33 -17z m45 -21 c0 -27 -22 -39 -31 -16 -8 22 3 49 19 43 6
-2 12 -14 12 -27z"/>
<path d="M2118 4233 c7 -3 16 -2 19 1 4 3 -2 6 -13 5 -11 0 -14 -3 -6 -6z"/>
<path d="M2638 4163 c12 -2 30 -2 40 0 9 3 -1 5 -23 4 -22 0 -30 -2 -17 -4z"/>
<path d="M1400 4035 c0 -30 5 -55 10 -55 6 0 10 25 10 55 0 30 -4 55 -10 55
-5 0 -10 -25 -10 -55z"/>
<path d="M2330 4035 c0 -30 5 -55 10 -55 6 0 10 25 10 55 0 30 -4 55 -10 55
-5 0 -10 -25 -10 -55z"/>
<path d="M2370 4035 c0 -30 5 -55 10 -55 6 0 10 25 10 55 0 30 -4 55 -10 55
-5 0 -10 -25 -10 -55z"/>
<path d="M3313 4035 c0 -33 2 -45 4 -27 2 18 2 45 0 60 -2 15 -4 0 -4 -33z"/>
<path d="M1268 4068 c-2 -7 -2 -29 2 -48 3 -25 11 -35 25 -37 11 -2 14 0 8 3
-16 7 -17 64 -2 64 6 0 4 7 -5 15 -18 18 -23 19 -28 3z"/>
<path d="M1749 4071 c-3 -7 -3 -30 -1 -52 3 -33 8 -39 26 -38 16 1 17 2 4 6
-12 3 -18 14 -18 34 0 21 5 29 18 30 13 0 14 2 2 6 -8 3 -18 10 -21 16 -4 5
-8 5 -10 -2z"/>
<path d="M2026 4072 c-3 -5 4 -8 16 -8 31 1 32 -18 3 -53 l-27 -31 39 1 c31 2
33 3 9 6 l-28 5 22 23 c12 13 20 31 18 42 -3 19 -42 31 -52 15z"/>
<path d="M972 4058 c-7 -7 -12 -21 -12 -33 0 -48 59 -62 86 -20 16 24 16 27
-1 45 -20 22 -55 26 -73 8z"/>
<path d="M1319 4036 c-9 -20 -9 -29 1 -41 13 -16 60 -21 60 -7 0 5 -10 8 -21
8 -12 -1 -24 5 -26 12 -3 7 5 12 22 12 20 0 26 4 23 18 -5 28 -46 27 -59 -2z
m46 4 c3 -5 -3 -10 -15 -10 -12 0 -18 5 -15 10 3 6 10 10 15 10 5 0 12 -4 15
-10z"/>
<path d="M1444 4046 c-3 -8 -4 -25 -2 -38 2 -18 10 -23 33 -25 27 -2 28 -1 6
5 -37 11 -38 32 -2 32 33 0 39 8 19 28 -16 16 -47 15 -54 -2z m46 -6 c0 -5 -9
-10 -21 -10 -11 0 -17 5 -14 10 3 6 13 10 21 10 8 0 14 -4 14 -10z"/>
<path d="M1531 4016 l2 -41 6 34 c8 48 31 53 31 7 0 -44 18 -48 22 -4 4 46 28
49 28 4 0 -20 5 -36 10 -36 12 0 13 50 2 66 -4 6 -28 11 -54 11 l-48 -1 1 -40z"/>
<path d="M1664 4046 c-3 -8 -4 -25 -2 -38 2 -18 10 -23 33 -25 27 -2 28 -1 6
5 -37 11 -38 32 -2 32 33 0 39 8 19 28 -16 16 -47 15 -54 -2z m46 -6 c0 -5 -9
-10 -21 -10 -11 0 -17 5 -14 10 3 6 13 10 21 10 8 0 14 -4 14 -10z"/>
<path d="M1801 4015 c1 -41 3 -40 13 8 9 40 39 35 55 -8 10 -28 10 -39 1 -50
-9 -11 -10 -15 -1 -15 12 0 32 41 45 90 6 22 5 22 -11 -5 l-17 -30 -10 28 c-8
23 -15 27 -43 25 -32 -2 -33 -4 -32 -43z"/>
<path d="M1947 4020 c9 -22 20 -40 24 -40 10 0 33 69 25 77 -3 3 -8 -6 -12
-21 -8 -33 -22 -33 -30 -1 -3 14 -10 25 -14 25 -5 0 -1 -18 7 -40z"/>
<path d="M2161 4016 c1 -42 3 -41 13 7 9 37 29 30 38 -14 6 -34 6 -34 5 6 -2
36 -5 40 -29 41 -26 1 -28 -1 -27 -40z"/>
<path d="M2253 4025 c2 -36 5 -40 30 -41 25 -1 27 1 26 40 -1 42 -3 41 -13 -7
-9 -37 -29 -30 -38 14 -6 34 -6 34 -5 -6z"/>
<path d="M2411 4054 c-2 -19 21 -74 30 -74 5 0 9 2 9 4 0 2 7 20 15 40 8 20
11 36 7 36 -5 0 -14 -15 -19 -32 l-10 -33 -16 35 c-8 19 -16 30 -16 24z"/>
<path d="M2490 4019 c0 -47 17 -52 22 -7 4 46 28 49 28 4 0 -44 18 -48 22 -4
4 46 28 49 28 4 0 -20 5 -36 10 -36 13 0 13 40 0 60 -6 10 -27 15 -60 16 l-50
2 0 -39z"/>
<path d="M2700 4042 c0 -11 10 -24 23 -29 l22 -11 -25 -11 -25 -11 25 3 c31 3
39 33 11 42 -28 8 -27 23 2 28 19 4 18 4 -5 6 -21 1 -28 -4 -28 -17z"/>
<path d="M2774 4046 c-3 -8 -4 -25 -2 -38 2 -18 10 -23 33 -25 27 -2 28 -1 6
5 -37 11 -38 32 -2 32 33 0 39 8 19 28 -16 16 -47 15 -54 -2z m46 -6 c0 -5 -9
-10 -21 -10 -11 0 -17 5 -14 10 3 6 13 10 21 10 8 0 14 -4 14 -10z"/>
<path d="M2861 4015 c2 -33 3 -35 6 -10 2 17 11 35 20 42 13 10 13 12 -6 10
-18 -1 -21 -7 -20 -42z"/>
<path d="M2911 4056 c-2 -20 24 -76 33 -73 12 4 38 77 27 77 -4 0 -13 -15 -18
-32 l-10 -33 -16 35 c-8 19 -16 31 -16 26z"/>
<path d="M3002 4048 c-15 -15 -15 -41 0 -56 14 -14 44 -16 52 -4 3 5 -4 8 -16
8 -12 -1 -23 5 -25 12 -3 7 5 12 22 12 20 0 26 4 23 18 -4 21 -39 27 -56 10z
m43 -8 c3 -5 -3 -10 -14 -10 -12 0 -21 5 -21 10 0 6 6 10 14 10 8 0 18 -4 21
-10z"/>
<path d="M3081 4015 c1 -41 3 -40 13 7 3 14 14 29 24 31 9 3 5 4 -10 4 -26 -1
-28 -4 -27 -42z"/>
<path d="M3140 4041 c-15 -29 4 -63 33 -59 18 2 22 10 22 38 0 28 -4 36 -22
38 -14 2 -26 -4 -33 -17z m45 -21 c0 -13 -6 -25 -12 -27 -16 -6 -27 21 -19 43
9 23 31 11 31 -16z"/>
<path d="M3220 4019 c0 -47 17 -52 22 -7 4 46 28 49 28 4 0 -20 5 -36 10 -36
12 0 13 49 2 66 -4 7 -19 12 -34 12 -26 0 -28 -4 -28 -39z"/>
<path d="M3357 4023 c11 -28 12 -42 4 -55 -7 -12 -8 -18 -1 -18 13 0 52 89 47
104 -3 6 -8 -1 -12 -16 -9 -35 -23 -36 -31 -3 -3 14 -10 25 -15 25 -4 0 -1
-17 8 -37z"/>
<path d="M870 4030 c0 -5 18 -10 40 -10 22 0 40 5 40 10 0 6 -18 10 -40 10
-22 0 -40 -4 -40 -10z"/>
<path d="M1090 4030 c0 -5 11 -10 25 -10 14 0 25 5 25 10 0 6 -11 10 -25 10
-14 0 -25 -4 -25 -10z"/>
<path d="M2118 4023 c7 -3 16 -2 19 1 4 3 -2 6 -13 5 -11 0 -14 -3 -6 -6z"/>
<path d="M2638 3953 c12 -2 30 -2 40 0 9 3 -1 5 -23 4 -22 0 -30 -2 -17 -4z"/>
<path d="M5710 3889 c0 -5 5 -7 10 -4 6 4 10 -10 10 -34 0 -22 -5 -42 -12 -44
-7 -3 3 -5 22 -5 19 0 27 2 18 5 -14 3 -18 15 -18 49 0 32 -4 44 -15 44 -8 0
-15 -5 -15 -11z"/>
<path d="M5791 3886 c-17 -20 -10 -67 11 -80 25 -15 57 17 42 42 -6 9 -17 17
-25 18 -9 1 -10 0 -1 -3 18 -6 15 -53 -3 -53 -8 0 -15 5 -16 10 -5 44 -1 56
21 67 23 12 24 13 4 13 -12 0 -27 -6 -33 -14z"/>
<path d="M5933 3893 c32 -5 31 -1 11 -48 -8 -20 -13 -40 -10 -42 3 -3 10 5 15
18 34 87 35 79 -7 78 -30 -2 -32 -3 -9 -6z"/>
<path d="M6000 3881 c0 -13 8 -21 23 -23 14 -2 22 -10 22 -23 0 -14 -6 -20
-22 -19 -13 0 -23 -3 -23 -8 0 -5 12 -8 28 -6 21 2 28 9 30 31 3 22 -1 30 -17
34 -28 7 -27 21 2 26 16 3 13 5 -10 6 -26 1 -33 -3 -33 -18z"/>
<path d="M2101 3829 c-1 -54 0 -56 25 -55 51 2 59 71 8 71 -10 0 -22 9 -26 20
-3 12 -6 -4 -7 -36z m53 -4 c7 -20 -3 -45 -19 -45 -7 0 -15 7 -19 15 -7 20 3
45 19 45 7 0 15 -7 19 -15z"/>
<path d="M2332 3825 c0 -61 1 -62 12 -12 9 37 29 30 38 -14 6 -34 6 -34 5 6
-2 33 -6 40 -22 40 -11 0 -23 9 -27 20 -3 11 -6 -7 -6 -40z"/>
<path d="M1361 3841 c-26 -36 -26 -41 -1 -41 11 0 20 -7 20 -15 0 -21 18 -19
22 3 5 26 -3 82 -12 82 -5 0 -18 -13 -29 -29z m19 -16 c0 -8 -7 -15 -16 -15
-14 0 -14 3 -4 15 7 8 14 15 16 15 2 0 4 -7 4 -15z"/>
<path d="M2270 3843 c0 -46 11 -73 29 -72 10 0 11 2 4 6 -16 6 -17 63 -2 63 6
0 4 7 -5 15 -21 21 -26 19 -26 -12z"/>
<path d="M972 3848 c-7 -7 -12 -21 -12 -33 0 -48 59 -62 86 -20 16 24 16 27
-1 45 -20 22 -55 26 -73 8z"/>
<path d="M1271 3844 c-2 -19 21 -74 30 -74 5 0 9 2 9 4 0 2 7 20 15 40 8 20
11 36 7 36 -5 0 -14 -15 -19 -32 l-10 -33 -16 35 c-8 19 -16 30 -16 24z"/>
<path d="M1481 3805 c1 -41 3 -40 13 8 9 41 36 35 36 -8 0 -19 5 -35 10 -35
13 0 13 21 0 54 -7 19 -16 25 -35 24 -22 -2 -25 -7 -24 -43z"/>
<path d="M1570 3831 c-15 -29 4 -63 33 -59 18 2 22 10 22 38 0 28 -4 36 -22
38 -14 2 -26 -4 -33 -17z m45 -21 c0 -27 -22 -39 -31 -16 -8 22 3 49 19 43 6
-2 12 -14 12 -27z"/>
<path d="M1650 3809 c0 -47 17 -52 22 -7 4 46 28 49 28 4 0 -20 5 -36 10 -36
6 0 10 16 10 35 0 48 27 48 33 0 l4 -35 -1 37 -1 38 -52 1 -53 1 0 -38z"/>
<path d="M1793 3810 c0 -25 2 -35 4 -22 2 12 2 32 0 45 -2 12 -4 2 -4 -23z"/>
<path d="M1830 3842 c0 -6 5 -14 11 -17 7 -5 5 -15 -6 -31 -18 -27 -9 -33 11
-6 12 16 13 16 19 0 4 -10 11 -18 16 -18 5 0 4 11 -3 25 -8 19 -8 28 2 40 7 9
8 15 2 15 -6 0 -12 -6 -15 -12 -3 -10 -7 -10 -20 1 -10 8 -17 9 -17 3z"/>
<path d="M1914 3836 c-12 -32 0 -61 29 -64 15 -2 27 1 27 6 0 5 -10 8 -21 8
-12 -1 -24 5 -26 12 -3 8 6 12 27 12 28 0 30 2 20 20 -12 23 -48 27 -56 6z
m41 -6 c3 -5 -3 -10 -15 -10 -12 0 -18 5 -15 10 3 6 10 10 15 10 5 0 12 -4 15
-10z"/>
<path d="M1990 3809 c0 -22 5 -39 10 -39 6 0 10 13 10 30 0 17 7 33 17 38 13
8 11 10 -10 10 -25 0 -27 -4 -27 -39z"/>
<path d="M2194 3836 c-3 -8 -4 -25 -2 -38 2 -17 9 -23 28 -23 22 0 25 4 25 35
0 29 -4 36 -23 38 -13 2 -24 -3 -28 -12z m41 -26 c0 -27 -22 -39 -31 -16 -8
22 3 49 19 43 6 -2 12 -14 12 -27z"/>
<path d="M870 3820 c0 -5 18 -10 40 -10 22 0 40 5 40 10 0 6 -18 10 -40 10
-22 0 -40 -4 -40 -10z"/>
<path d="M1090 3820 c0 -5 11 -10 25 -10 14 0 25 5 25 10 0 6 -11 10 -25 10
-14 0 -25 -4 -25 -10z"/>
<path d="M1438 3813 c7 -3 16 -2 19 1 4 3 -2 6 -13 5 -11 0 -14 -3 -6 -6z"/>
<path d="M2058 3813 c7 -3 16 -2 19 1 4 3 -2 6 -13 5 -11 0 -14 -3 -6 -6z"/>
<path d="M5870 3810 c0 -5 5 -10 10 -10 6 0 10 5 10 10 0 6 -4 10 -10 10 -5 0
-10 -4 -10 -10z"/>
<path d="M2710 3615 c0 -30 5 -55 10 -55 6 0 10 25 10 55 0 30 -4 55 -10 55
-5 0 -10 -25 -10 -55z"/>
<path d="M1361 3631 c-26 -36 -26 -41 -1 -41 11 0 20 -7 20 -15 0 -21 18 -19
22 3 5 26 -3 82 -12 82 -5 0 -18 -13 -29 -29z m19 -16 c0 -8 -7 -15 -16 -15
-14 0 -14 3 -4 15 7 8 14 15 16 15 2 0 4 -7 4 -15z"/>
<path d="M972 3638 c-7 -7 -12 -21 -12 -33 0 -48 59 -62 86 -20 16 24 16 27
-1 45 -20 22 -55 26 -73 8z"/>
<path d="M1271 3634 c-2 -19 21 -74 30 -74 5 0 9 2 9 4 0 2 7 20 15 40 8 20
11 36 7 36 -5 0 -14 -15 -19 -32 l-10 -33 -16 35 c-8 19 -16 30 -16 24z"/>
<path d="M1481 3595 c1 -41 3 -40 13 8 9 41 36 35 36 -8 0 -19 5 -35 10 -35
13 0 13 21 0 54 -7 19 -16 25 -35 24 -22 -2 -25 -7 -24 -43z"/>
<path d="M1570 3621 c-15 -29 4 -63 33 -59 18 2 22 10 22 38 0 28 -4 36 -22
38 -14 2 -26 -4 -33 -17z m45 -21 c0 -13 -6 -25 -12 -27 -16 -6 -27 21 -19 43
9 23 31 11 31 -16z"/>
<path d="M1650 3599 c0 -47 17 -52 22 -7 4 46 28 49 28 4 0 -20 5 -36 10 -36
6 0 10 16 10 35 0 48 27 48 33 0 l4 -35 -1 37 -1 38 -52 1 -53 1 0 -38z"/>
<path d="M1793 3600 c0 -25 2 -35 4 -22 2 12 2 32 0 45 -2 12 -4 2 -4 -23z"/>
<path d="M1830 3632 c0 -6 5 -14 11 -17 7 -5 5 -15 -6 -31 -18 -27 -9 -33 11
-6 12 16 13 16 19 0 4 -10 11 -18 16 -18 5 0 4 11 -3 25 -8 19 -8 28 2 40 7 9
8 15 2 15 -6 0 -12 -6 -15 -12 -3 -10 -7 -10 -20 1 -10 8 -17 9 -17 3z"/>
<path d="M1914 3626 c-12 -32 0 -61 29 -64 15 -2 27 1 27 6 0 5 -10 8 -21 8
-12 -1 -24 5 -26 12 -3 8 6 12 27 12 28 0 30 2 20 20 -12 23 -48 27 -56 6z
m41 -6 c3 -5 -3 -10 -15 -10 -12 0 -18 5 -15 10 3 6 10 10 15 10 5 0 12 -4 15
-10z"/>
<path d="M1990 3599 c0 -22 5 -39 10 -39 6 0 10 13 10 30 0 17 7 33 17 38 13
8 11 10 -10 10 -25 0 -27 -4 -27 -39z"/>
<path d="M2107 3633 c-13 -13 -7 -32 13 -38 26 -8 26 -22 0 -28 -17 -4 -17 -4
2 -3 30 1 36 32 9 41 -28 8 -27 23 2 28 20 4 20 4 1 6 -11 0 -24 -2 -27 -6z"/>
<path d="M2182 3628 c-29 -29 -8 -70 36 -67 10 1 7 4 -7 8 -37 10 -38 31 -2
31 17 0 31 4 31 8 0 12 -22 32 -35 32 -6 0 -16 -5 -23 -12z m38 -8 c0 -5 -9
-10 -21 -10 -11 0 -17 5 -14 10 3 6 13 10 21 10 8 0 14 -4 14 -10z"/>
<path d="M2261 3595 c2 -33 3 -35 6 -10 2 17 11 35 20 42 13 10 13 12 -6 10
-18 -1 -21 -7 -20 -42z"/>
<path d="M2314 3624 c3 -9 9 -27 12 -40 3 -13 10 -24 15 -24 10 0 42 71 34 78
-2 3 -11 -10 -18 -28 l-14 -32 -11 31 c-6 17 -14 31 -18 31 -3 0 -3 -7 0 -16z"/>
<path d="M2399 3616 c-9 -20 -9 -29 1 -41 13 -16 60 -21 60 -7 0 5 -10 8 -21
8 -12 -1 -24 5 -26 12 -3 7 5 12 22 12 20 0 26 4 23 18 -5 28 -46 27 -59 -2z
m46 4 c3 -5 -3 -10 -15 -10 -12 0 -18 5 -15 10 3 6 10 10 15 10 5 0 12 -4 15
-10z"/>
<path d="M2480 3600 c0 -22 5 -40 10 -40 6 0 10 13 10 30 0 17 7 33 18 39 14
9 13 10 -10 11 -26 0 -28 -3 -28 -40z"/>
<path d="M2544 3626 c-3 -8 -4 -25 -2 -38 2 -17 9 -23 28 -23 22 0 25 4 25 35
0 29 -4 36 -23 38 -13 2 -24 -3 -28 -12z m41 -26 c0 -13 -6 -25 -12 -27 -16
-6 -27 21 -19 43 9 23 31 11 31 -16z"/>
<path d="M2620 3599 c0 -21 5 -39 10 -39 6 0 10 13 10 29 0 28 15 49 27 38 3
-4 9 -21 14 -39 8 -33 8 -33 6 7 -2 38 -4 40 -34 42 -32 1 -33 0 -33 -38z"/>
<path d="M2751 3636 c-1 -5 4 -26 11 -48 10 -33 9 -41 -3 -50 -12 -8 -12 -9 1
-6 16 5 65 108 50 108 -5 0 -12 -11 -16 -25 -8 -32 -18 -32 -31 3 -6 15 -11
23 -12 18z"/>
<path d="M870 3610 c0 -5 18 -10 40 -10 22 0 40 5 40 10 0 6 -18 10 -40 10
-22 0 -40 -4 -40 -10z"/>
<path d="M1090 3610 c0 -5 11 -10 25 -10 14 0 25 5 25 10 0 6 -11 10 -25 10
-14 0 -25 -4 -25 -10z"/>
<path d="M1438 3603 c7 -3 16 -2 19 1 4 3 -2 6 -13 5 -11 0 -14 -3 -6 -6z"/>
<path d="M2058 3603 c7 -3 16 -2 19 1 4 3 -2 6 -13 5 -11 0 -14 -3 -6 -6z"/>
<path d="M1931 3410 c-1 -52 0 -56 24 -58 32 -2 50 29 34 59 -7 13 -17 19 -29
16 -13 -3 -20 1 -23 17 -2 11 -5 -4 -6 -34z m44 -20 c0 -27 -22 -39 -31 -16
-8 22 3 49 19 43 6 -2 12 -14 12 -27z"/>
<path d="M2162 3405 c1 -47 2 -52 7 -25 4 22 12 35 21 35 9 0 18 -13 22 -35
l6 -35 -1 40 c-2 33 -6 40 -22 40 -11 0 -23 9 -27 20 -3 11 -6 -7 -6 -40z"/>
<path d="M1361 3421 c-26 -36 -26 -41 -1 -41 11 0 20 -7 20 -15 0 -21 18 -19
22 3 5 26 -3 82 -12 82 -5 0 -18 -13 -29 -29z m19 -16 c0 -8 -7 -15 -16 -15
-14 0 -14 3 -4 15 7 8 14 15 16 15 2 0 4 -7 4 -15z"/>
<path d="M2098 3438 c-2 -7 -2 -29 2 -48 3 -25 11 -35 25 -37 11 -2 14 0 8 3
-16 7 -17 64 -2 64 6 0 4 7 -5 15 -18 18 -23 19 -28 3z"/>
<path d="M1271 3424 c-2 -19 21 -74 30 -74 5 0 9 2 9 4 0 2 7 20 15 40 8 20
11 36 7 36 -5 0 -14 -15 -19 -32 l-10 -33 -16 35 c-8 19 -16 30 -16 24z"/>
<path d="M1481 3386 l1 -41 8 33 c4 18 10 35 13 39 12 11 27 -10 28 -40 1 -34
3 -30 13 16 9 37 29 30 38 -14 6 -34 6 -34 5 6 l-2 40 -52 1 -53 1 1 -41z"/>
<path d="M1623 3390 c0 -25 2 -35 4 -22 2 12 2 32 0 45 -2 12 -4 2 -4 -23z"/>
<path d="M1660 3415 c10 -12 10 -21 1 -43 -12 -26 -12 -26 7 -9 17 16 20 16
25 2 4 -8 11 -15 17 -15 7 0 5 9 -4 22 -14 20 -14 24 1 40 18 20 4 25 -16 6
-11 -10 -14 -10 -18 0 -3 6 -9 12 -15 12 -6 0 -5 -6 2 -15z"/>
<path d="M1739 3406 c-9 -20 -9 -29 1 -41 13 -16 60 -21 60 -7 0 5 -10 8 -21
8 -12 -1 -24 5 -26 12 -3 7 5 12 22 12 20 0 26 4 23 18 -5 28 -46 27 -59 -2z
m46 4 c3 -5 -3 -10 -15 -10 -12 0 -18 5 -15 10 3 6 10 10 15 10 5 0 12 -4 15
-10z"/>
<path d="M1820 3390 c0 -22 5 -40 10 -40 6 0 10 13 10 30 0 17 7 33 18 39 14
9 13 10 -10 11 -26 0 -28 -3 -28 -40z"/>
<path d="M2022 3418 c-27 -27 -3 -73 35 -66 27 5 25 72 -2 76 -11 1 -26 -3
-33 -10z m43 -28 c0 -27 -22 -39 -31 -16 -8 22 3 49 19 43 6 -2 12 -14 12 -27z"/>
<path d="M1438 3393 c7 -3 16 -2 19 1 4 3 -2 6 -13 5 -11 0 -14 -3 -6 -6z"/>
<path d="M1878 3393 c6 -2 18 -2 25 0 6 3 1 5 -13 5 -14 0 -19 -2 -12 -5z"/>
<path d="M5710 3249 c0 -5 5 -7 10 -4 6 4 10 -10 10 -34 0 -22 -5 -42 -12 -44
-7 -3 3 -5 22 -5 19 0 27 2 18 5 -14 3 -18 15 -18 49 0 32 -4 44 -15 44 -8 0
-15 -5 -15 -11z"/>
<path d="M5799 3252 c29 -9 40 -32 15 -32 -17 0 -17 -1 1 -13 22 -17 11 -41
-16 -34 -11 3 -19 1 -19 -4 0 -14 46 -11 59 4 6 8 8 17 4 20 -3 4 -6 19 -7 34
-1 24 -6 28 -31 30 -27 2 -28 1 -6 -5z"/>
<path d="M5931 3234 c-26 -33 -26 -44 -1 -44 11 0 20 -7 20 -15 0 -21 18 -19
22 3 5 26 -3 82 -12 82 -5 0 -18 -12 -29 -26z m19 -14 c0 -11 -7 -20 -15 -20
-13 0 -13 3 -3 20 7 11 14 20 15 20 2 0 3 -9 3 -20z"/>
<path d="M6000 3252 c0 -6 8 -8 19 -5 31 8 35 -17 7 -46 -34 -35 -33 -41 7
-40 25 1 27 3 9 6 l-24 5 22 23 c29 30 23 59 -13 63 -15 2 -27 -1 -27 -6z"/>
<path d="M2543 3195 c0 -33 2 -45 4 -27 2 18 2 45 0 60 -2 15 -4 0 -4 -33z"/>
<path d="M1361 3211 c-26 -36 -26 -41 -1 -41 11 0 20 -7 20 -15 0 -21 18 -19
22 3 5 26 -3 82 -12 82 -5 0 -18 -13 -29 -29z m19 -16 c0 -8 -7 -15 -16 -15
-14 0 -14 3 -4 15 7 8 14 15 16 15 2 0 4 -7 4 -15z"/>
<path d="M972 3218 c-7 -7 -12 -21 -12 -33 0 -48 59 -62 86 -20 16 24 16 27
-1 45 -20 22 -55 26 -73 8z"/>
<path d="M1271 3214 c-2 -19 21 -74 30 -74 5 0 9 2 9 4 0 2 7 20 15 40 8 20
11 36 7 36 -5 0 -14 -15 -19 -32 l-10 -33 -16 35 c-8 19 -16 30 -16 24z"/>
<path d="M1481 3176 l1 -41 8 33 c4 18 10 35 13 39 12 11 27 -10 28 -40 1 -34
3 -30 13 16 9 37 29 30 38 -14 6 -34 6 -34 5 6 l-2 40 -52 1 -53 1 1 -41z"/>
<path d="M1623 3180 c0 -25 2 -35 4 -22 2 12 2 32 0 45 -2 12 -4 2 -4 -23z"/>
<path d="M1660 3205 c10 -12 10 -21 1 -43 -12 -26 -12 -26 7 -9 17 16 20 16
25 2 4 -8 11 -15 17 -15 7 0 5 9 -4 22 -14 20 -14 24 1 40 18 20 4 25 -16 6
-11 -10 -14 -10 -18 0 -3 6 -9 12 -15 12 -6 0 -5 -6 2 -15z"/>
<path d="M1739 3196 c-9 -20 -9 -29 1 -41 13 -16 60 -21 60 -7 0 5 -10 8 -21
8 -12 -1 -24 5 -26 12 -3 7 5 12 22 12 20 0 26 4 23 18 -5 28 -46 27 -59 -2z
m46 4 c3 -5 -3 -10 -15 -10 -12 0 -18 5 -15 10 3 6 10 10 15 10 5 0 12 -4 15
-10z"/>
<path d="M1820 3180 c0 -22 5 -40 10 -40 6 0 10 13 10 30 0 17 7 33 18 39 14
9 13 10 -10 11 -26 0 -28 -3 -28 -40z"/>
<path d="M1926 3205 c-3 -9 5 -20 22 -29 l27 -15 -25 -10 -25 -11 25 3 c31 3
39 33 11 42 -26 8 -27 22 -3 28 13 4 12 5 -4 6 -12 0 -24 -6 -28 -14z"/>
<path d="M2004 3206 c-12 -32 0 -61 29 -64 15 -2 27 1 27 6 0 5 -10 8 -21 8
-12 -1 -24 5 -26 12 -3 8 6 12 27 12 28 0 30 2 20 20 -12 23 -48 27 -56 6z
m41 -6 c3 -5 -3 -10 -15 -10 -12 0 -18 5 -15 10 3 6 10 10 15 10 5 0 12 -4 15
-10z"/>
<path d="M2080 3179 c0 -22 5 -39 10 -39 6 0 10 13 10 30 0 17 7 33 17 38 13
8 11 10 -10 10 -25 0 -27 -4 -27 -39z"/>
<path d="M2141 3214 c-2 -19 21 -74 30 -74 5 0 9 2 9 4 0 2 7 20 15 40 8 20
11 36 7 36 -5 0 -14 -15 -19 -32 l-10 -33 -16 35 c-8 19 -16 30 -16 24z"/>
<path d="M2232 3208 c-25 -25 -6 -68 29 -68 10 0 20 4 23 9 3 4 -5 6 -18 4
-15 -3 -25 1 -29 11 -5 12 0 16 23 16 32 0 42 23 14 34 -22 8 -28 8 -42 -6z
m43 -8 c4 -6 -5 -10 -20 -10 -15 0 -24 4 -20 10 3 6 12 10 20 10 8 0 17 -4 20
-10z"/>
<path d="M2311 3175 c1 -41 3 -40 13 7 3 14 14 29 24 31 9 3 5 4 -10 4 -26 -1
-28 -4 -27 -42z"/>
<path d="M2372 3208 c-27 -27 -3 -73 35 -66 27 5 25 72 -2 76 -11 1 -26 -3
-33 -10z m43 -28 c0 -27 -22 -39 -31 -16 -8 22 3 49 19 43 6 -2 12 -14 12 -27z"/>
<path d="M2450 3180 c0 -22 5 -40 10 -40 6 0 10 16 10 35 0 24 5 35 15 35 10
0 15 -11 15 -35 0 -19 5 -35 10 -35 11 0 13 39 4 64 -4 10 -18 16 -35 16 -27
0 -29 -3 -29 -40z"/>
<path d="M2586 3180 c13 -32 14 -43 4 -55 -9 -11 -9 -15 -1 -15 12 0 32 41 45
90 6 22 5 22 -11 -5 l-17 -30 -10 28 c-5 15 -13 27 -18 27 -4 0 -1 -18 8 -40z"/>
<path d="M870 3190 c0 -5 18 -10 40 -10 22 0 40 5 40 10 0 6 -18 10 -40 10
-22 0 -40 -4 -40 -10z"/>
<path d="M1090 3190 c0 -5 11 -10 25 -10 14 0 25 5 25 10 0 6 -11 10 -25 10
-14 0 -25 -4 -25 -10z"/>
<path d="M1438 3183 c7 -3 16 -2 19 1 4 3 -2 6 -13 5 -11 0 -14 -3 -6 -6z"/>
<path d="M1878 3183 c6 -2 18 -2 25 0 6 3 1 5 -13 5 -14 0 -19 -2 -12 -5z"/>
<path d="M5870 3170 c0 -5 5 -10 11 -10 5 0 7 5 4 10 -3 6 -8 10 -11 10 -2 0
-4 -4 -4 -10z"/>
<path d="M1270 2985 c0 -54 0 -55 29 -55 21 0 32 6 36 20 9 30 -4 60 -26 60
-10 0 -19 7 -19 15 0 8 -4 15 -10 15 -5 0 -10 -25 -10 -55z m54 0 c7 -18 -2
-45 -15 -45 -13 0 -22 27 -15 45 3 8 10 15 15 15 5 0 11 -7 15 -15z"/>
<path d="M1590 2985 c0 -30 5 -55 10 -55 6 0 10 25 10 55 0 30 -4 55 -10 55
-5 0 -10 -25 -10 -55z"/>
<path d="M972 3008 c-7 -7 -12 -21 -12 -33 0 -48 59 -62 86 -20 16 24 16 27
-1 45 -20 22 -55 26 -73 8z"/>
<path d="M1380 2999 l25 -12 -25 -6 c-36 -10 -34 -46 3 -47 26 -1 28 1 25 35
-3 30 -7 36 -28 38 l-25 3 25 -11z m20 -38 c0 -14 -18 -23 -30 -16 -6 4 -8 11
-5 16 8 12 35 12 35 0z"/>
<path d="M1437 3003 c-13 -12 -7 -23 18 -35 28 -13 23 -32 -8 -24 -14 3 -17 2
-10 -5 15 -15 47 -7 51 13 2 9 -5 19 -17 23 -26 8 -27 22 -3 28 14 4 13 5 -4
6 -11 0 -24 -2 -27 -6z"/>
<path d="M1510 2991 c-15 -29 3 -61 35 -61 14 0 25 4 25 8 0 5 -10 8 -21 8
-12 -1 -24 5 -26 12 -3 7 5 12 22 12 20 0 26 4 23 18 -5 25 -44 27 -58 3z m45
-1 c3 -5 -3 -10 -15 -10 -12 0 -18 5 -15 10 3 6 10 10 15 10 5 0 12 -4 15 -10z"/>
<path d="M1630 2970 c0 -22 5 -40 10 -40 6 0 10 18 10 40 0 22 -4 40 -10 40
-5 0 -10 -18 -10 -40z"/>
<path d="M1671 2965 c1 -41 3 -40 13 8 9 41 36 35 36 -8 0 -19 5 -35 10 -35
13 0 13 21 0 54 -7 19 -16 25 -35 24 -22 -2 -25 -7 -24 -43z"/>
<path d="M1760 2991 c-15 -29 3 -61 35 -61 14 0 25 4 25 8 0 5 -10 8 -21 8
-12 -1 -24 5 -26 12 -3 7 5 12 22 12 20 0 26 4 23 18 -5 25 -44 27 -58 3z m45
-1 c3 -5 -3 -10 -15 -10 -12 0 -18 5 -15 10 3 6 10 10 15 10 5 0 12 -4 15 -10z"/>
<path d="M870 2980 c0 -5 16 -10 35 -10 19 0 35 5 35 10 0 6 -16 10 -35 10
-19 0 -35 -4 -35 -10z"/>
<path d="M1090 2980 c0 -5 11 -10 25 -10 14 0 25 5 25 10 0 6 -11 10 -25 10
-14 0 -25 -4 -25 -10z"/>
<path d="M5710 2629 c0 -5 5 -7 10 -4 6 4 10 -6 10 -23 0 -26 -3 -29 -27 -24
-20 4 -32 -1 -47 -20 -23 -28 -37 -33 -396 -147 -124 -40 -243 -78 -265 -86
-22 -7 -161 -52 -310 -100 -148 -48 -340 -110 -425 -137 -418 -135 -505 -164
-629 -204 -74 -24 -144 -44 -156 -44 -11 0 -26 -5 -33 -12 -9 -9 -17 -9 -36 2
-21 11 -28 11 -41 0 -8 -7 -15 -18 -15 -24 0 -6 -13 -17 -29 -23 -24 -9 -31
-8 -35 3 -3 8 -16 18 -28 23 l-23 9 25 10 c22 9 23 11 4 11 -24 1 -44 -17 -44
-39 0 -8 -10 -20 -22 -25 -13 -6 -24 -19 -26 -30 -2 -15 -101 -74 -393 -235
-381 -210 -481 -257 -526 -245 -13 3 -23 1 -23 -4 0 -20 -41 -23 -61 -5 -24
21 -52 10 -57 -23 -2 -13 -13 -23 -28 -26 -26 -5 -38 6 -39 38 0 14 -8 21 -25
22 -25 3 -25 3 -3 -7 27 -11 30 -30 6 -30 -17 -1 -17 -1 0 -11 9 -6 15 -15 11
-20 -4 -6 -11 -6 -19 1 -21 17 -59 8 -69 -17 -12 -26 -334 -162 -411 -173 -27
-4 -39 -8 -25 -9 21 -1 19 -4 -19 -21 -52 -24 -65 -22 -66 11 0 19 -6 25 -29
27 -20 3 -27 0 -23 -10 2 -7 10 -12 16 -11 17 4 13 -12 -9 -32 -24 -22 -44 -9
-45 28 0 16 -7 23 -25 24 -25 3 -25 3 -2 -7 26 -11 29 -30 5 -30 -15 0 -15 -1
2 -13 22 -17 11 -41 -16 -34 -11 3 -19 1 -19 -4 0 -5 10 -9 23 -10 17 0 14 -4
-16 -17 -42 -19 -41 -37 0 -21 30 11 36 8 28 -13 -4 -11 -21 -16 -52 -16 -53
-1 -79 -17 -62 -38 9 -11 5 -16 -16 -24 -33 -12 -59 -12 -27 0 28 12 30 34 2
27 -13 -3 -24 1 -30 13 -6 11 -27 21 -51 25 -34 6 -44 3 -64 -15 -17 -16 -32
-21 -55 -18 -17 3 -33 1 -36 -4 -3 -4 -15 -8 -27 -8 -13 0 -26 -9 -32 -23 -8
-17 -18 -22 -48 -21 -35 1 -37 -1 -38 -30 -3 -56 3 -111 12 -122 13 -16 125
-15 138 0 6 7 10 28 9 48 -1 43 5 54 38 62 36 9 57 -9 41 -35 -6 -10 -17 -19
-24 -19 -7 0 -13 -4 -13 -10 0 -5 6 -10 14 -10 7 0 19 -7 26 -15 17 -21 56
-19 72 3 24 34 204 48 237 18 25 -23 48 -20 83 9 27 23 38 25 126 25 116 0
337 9 373 15 17 2 29 -2 37 -16 16 -24 57 -25 74 0 15 21 45 23 498 37 671 21
644 20 658 2 17 -23 57 -23 74 1 14 20 -11 19 763 36 121 3 283 7 360 10 77 2
302 7 500 10 198 4 365 8 372 10 7 2 98 5 204 6 185 1 191 1 206 -20 19 -29
64 -25 78 6 5 12 16 24 25 27 12 3 11 4 -2 5 -14 1 -18 10 -18 46 0 33 -4 45
-15 45 -8 0 -15 -5 -15 -11 0 -5 5 -7 10 -4 6 4 10 -6 10 -23 0 -26 -3 -29
-25 -24 -15 2 -33 -2 -43 -11 -14 -12 -72 -16 -327 -21 -306 -6 -537 -12 -850
-21 -88 -2 -311 -7 -495 -10 -184 -3 -345 -8 -357 -11 -13 -2 -34 -2 -48 2
-24 6 -25 8 -10 24 24 26 15 54 -18 58 -15 2 -27 -1 -27 -6 0 -6 8 -8 19 -5
32 8 35 -17 5 -48 -36 -37 -55 -38 -48 -1 3 16 -1 35 -10 47 -22 29 -50 9 -54
-39 -2 -20 -9 -36 -16 -36 -8 0 -11 11 -8 33 4 39 -17 62 -48 52 -29 -9 -23
-49 8 -53 43 -6 16 -27 -36 -28 -49 -1 -51 0 -46 25 7 37 -19 70 -43 55 -10
-6 -19 -21 -21 -33 -2 -13 -11 -21 -22 -21 -10 0 -25 -8 -32 -18 -12 -17 -36
-20 -263 -26 -137 -4 -326 -9 -419 -13 l-168 -6 17 27 c9 14 15 33 11 41 -6
17 -51 20 -61 5 -4 -7 2 -9 18 -5 14 4 27 2 31 -3 8 -13 -29 -58 -54 -65 -17
-4 -19 -1 -14 18 7 30 -12 65 -35 65 -22 0 -31 -19 -31 -61 0 -24 -4 -29 -25
-29 -29 0 -30 5 -10 54 l15 36 -37 -1 c-31 -2 -33 -3 -10 -6 32 -5 31 -1 12
-46 -14 -33 -18 -36 -54 -34 -37 1 -39 3 -35 27 7 36 -19 69 -43 54 -10 -6
-19 -21 -21 -33 -2 -11 -11 -21 -19 -21 -9 0 -25 -8 -36 -18 -27 -24 -210 -32
-201 -9 9 25 -15 59 -39 55 -33 -5 -30 -50 3 -59 22 -6 21 -7 -10 -8 -25 -1
-39 5 -48 19 -7 11 -20 19 -30 19 -16 -1 -16 -2 1 -6 23 -6 23 -46 0 -41 -27
5 -22 50 7 65 23 11 23 13 5 13 -29 0 -45 -19 -45 -52 0 -33 -15 -37 -23 -7
-3 11 -15 23 -26 26 -28 7 -27 21 2 26 19 4 18 4 -5 6 -23 1 -28 -3 -28 -23 0
-16 5 -23 17 -22 10 0 19 -7 21 -17 3 -14 -4 -17 -52 -17 -44 0 -54 3 -50 14
3 8 1 30 -4 50 -12 41 -10 41 78 37 30 -1 40 1 32 7 -11 7 -9 10 7 15 11 3 25
-1 32 -9 16 -20 37 -17 51 6 17 27 58 27 51 0 -7 -28 6 -25 16 4 8 20 22 25
99 40 111 20 126 20 142 0 19 -22 63 -14 75 14 5 12 17 23 25 23 23 2 34 4 54
14 13 6 21 5 24 -3 3 -9 10 -8 25 3 28 20 58 20 51 0 -5 -12 1 -15 27 -14 29
1 31 2 10 8 -34 9 -9 27 52 35 44 7 48 6 45 -11 -2 -11 -12 -18 -26 -17 -12 0
-22 -3 -22 -8 0 -5 12 -8 27 -6 22 2 29 9 31 29 3 24 7 26 145 49 173 28 203
33 337 54 58 8 156 25 219 36 102 18 116 19 131 5 25 -22 56 -18 77 10 14 19
29 26 69 29 29 2 56 6 60 9 15 9 104 20 104 13 0 -4 -10 -11 -22 -16 l-23 -9
22 0 c13 -1 27 8 33 19 6 11 20 20 32 20 17 0 19 -3 10 -12 -20 -20 -14 -28
21 -27 28 1 29 2 9 8 -23 6 -23 7 -5 23 12 11 73 25 178 42 88 15 257 42 375
62 459 74 646 105 680 110 19 4 49 8 65 11 40 5 315 51 385 63 333 58 389 64
408 47 38 -35 89 -11 80 38 -3 14 -1 25 3 25 5 0 9 -7 9 -15 0 -21 20 -19 21
3 2 30 -3 77 -8 82 -3 3 -17 -10 -32 -27 -15 -18 -34 -33 -43 -33 -8 0 -23 -9
-32 -19 -11 -12 -38 -22 -69 -26 -29 -3 -144 -22 -257 -40 -113 -19 -304 -50
-425 -70 -121 -19 -236 -38 -255 -41 -19 -4 -48 -8 -65 -11 -44 -6 -320 -52
-385 -63 -69 -12 -417 -68 -525 -85 -66 -10 -81 -10 -88 1 -9 15 -57 19 -57 5
0 -5 8 -7 19 -4 10 3 22 0 25 -5 3 -6 -8 -13 -26 -17 -25 -6 -34 -3 -48 15
-21 28 -54 23 -58 -8 -3 -22 -27 -40 -38 -30 -2 3 0 17 5 32 10 25 10 26 -27
25 -30 -2 -32 -3 -9 -6 30 -5 33 -11 14 -37 -13 -17 -71 -35 -116 -36 -23 0
-23 1 -7 19 10 11 16 28 14 38 -4 21 -35 30 -51 14 -7 -7 -4 -8 10 -5 12 3 24
1 28 -6 11 -17 -15 -40 -46 -40 -16 0 -33 -8 -41 -19 -11 -15 -56 -25 -233
-55 -121 -20 -247 -41 -280 -46 -33 -6 -116 -20 -185 -31 -69 -11 -135 -23
-147 -26 -13 -3 -23 -1 -23 5 0 6 10 13 22 15 17 3 14 5 -9 6 -22 1 -33 -4
-33 -13 0 -22 -27 -27 -33 -5 -5 19 -41 27 -51 10 -4 -5 2 -7 13 -4 23 6 39
-16 20 -28 -8 -5 -29 -9 -47 -9 -29 0 -32 2 -22 19 15 29 13 31 -27 30 -31 -2
-33 -3 -11 -6 31 -5 34 -11 15 -37 -9 -12 -31 -20 -65 -24 l-52 -5 0 40 c0 32
5 42 24 51 19 8 26 8 29 -1 3 -8 10 -6 19 7 8 11 22 17 29 14 8 -3 23 0 34 8
27 20 45 17 45 -6 0 -11 7 -23 16 -27 26 -10 49 11 46 41 -3 30 12 39 55 34
l28 -4 -30 -14 -30 -14 28 -4 c33 -4 31 -24 -4 -33 -24 -7 -24 -7 3 -8 32 -1
43 13 40 56 -2 22 3 35 15 41 10 5 191 57 402 117 329 92 386 105 406 95 30
-16 58 -9 70 18 5 12 17 22 25 23 27 1 69 7 92 14 18 5 20 4 8 -4 -11 -8 -12
-11 -2 -11 8 0 25 9 39 20 27 21 73 27 73 10 0 -6 -10 -15 -22 -20 l-23 -9 23
0 c15 -1 26 8 34 24 9 21 18 25 42 23 38 -4 42 -29 6 -40 -23 -6 -23 -7 5 -5
26 2 30 6 30 32 l1 29 134 28 c74 15 200 41 280 57 80 17 300 62 490 101 190
40 419 87 510 106 91 18 273 56 405 83 215 44 242 48 257 34 22 -20 60 -13 73
13 6 12 17 29 24 38 17 20 8 44 -21 55 l-23 9 25 10 c22 9 23 11 5 11 -26 1
-45 -17 -45 -41 0 -10 -6 -18 -14 -18 -8 0 -21 -9 -28 -19 -8 -12 -35 -23 -68
-30 -30 -5 -199 -40 -375 -76 -620 -129 -802 -166 -1040 -215 -132 -27 -315
-65 -407 -84 -98 -21 -183 -33 -205 -30 -27 3 -32 2 -18 -4 17 -8 16 -9 -10
-15 -20 -3 -33 -1 -38 9 -14 24 -47 16 -58 -13 -11 -28 -11 -28 -20 -5 -5 12
-15 25 -24 28 -19 8 -45 -13 -45 -37 0 -19 -33 -35 -50 -24 -5 3 -10 20 -10
36 0 20 -4 29 -12 26 -8 -2 -12 -15 -10 -30 3 -20 -1 -27 -14 -27 -14 0 -14 3
-4 15 7 9 10 18 7 21 -3 3 -10 -4 -17 -15 -6 -12 -20 -21 -30 -21 -11 0 -25
-9 -32 -20 -14 -21 -42 -31 -343 -115 -93 -26 -237 -67 -320 -91 -92 -26 -154
-39 -160 -33 -16 15 -43 10 -58 -11 -11 -16 -21 -19 -41 -14 -32 8 -34 21 -3
27 15 3 12 5 -11 6 -31 1 -33 -1 -30 -26 2 -20 -2 -29 -14 -31 -14 -3 -18 3
-18 25 0 21 8 33 30 46 22 14 30 15 30 5 0 -8 5 -6 11 5 5 9 23 24 39 32 29
15 30 15 30 -9 0 -15 -7 -26 -17 -29 -10 -3 -2 -5 17 -5 19 0 29 2 23 5 -7 2
-13 17 -13 32 0 32 29 50 120 75 606 168 715 195 732 180 22 -21 61 -14 73 14
9 21 21 26 54 24 8 0 20 6 28 14 21 20 44 18 37 -3 -5 -14 -2 -13 13 4 10 12
27 22 38 23 39 4 65 0 65 -10 0 -6 -10 -15 -22 -20 l-23 -9 23 0 c17 -1 27 8
38 34 8 19 21 35 28 35 8 0 23 3 33 6 17 5 17 5 0 -9 -16 -13 -16 -15 -1 -21
22 -8 13 -29 -17 -37 -24 -7 -24 -7 3 -8 29 -1 54 29 38 45 -5 5 -6 15 -1 22
8 14 60 28 371 101 96 23 222 53 280 67 230 55 702 167 927 220 57 14 151 36
210 50 272 65 266 64 284 48 35 -31 79 -10 79 38 0 16 7 44 14 63 l15 35 -37
-1 c-29 -2 -31 -3 -10 -6 24 -4 26 -6 17 -32 -8 -23 -15 -27 -35 -23 -16 3
-33 -2 -47 -16 -14 -12 -64 -30 -132 -46 -202 -49 -269 -65 -395 -95 -130 -31
-350 -83 -530 -126 -58 -13 -170 -40 -250 -59 -166 -40 -338 -80 -425 -101
-33 -8 -127 -31 -210 -51 -82 -20 -175 -37 -206 -38 -38 -1 -61 -6 -73 -18
-23 -23 -30 -23 -23 2 4 17 1 20 -31 19 -31 -2 -32 -3 -9 -6 51 -8 25 -38 -41
-49 -42 -7 -42 -6 -42 25 0 39 -13 39 -42 1 -13 -18 -31 -30 -44 -30 -13 0
-25 -8 -28 -18 -5 -15 -76 -37 -343 -110 -185 -50 -338 -90 -340 -88 -2 2 40
27 94 56 54 30 114 62 133 73 378 213 436 242 480 242 37 0 47 4 55 22 12 27
51 47 59 30 3 -8 9 -6 16 6 11 17 13 17 31 2 22 -21 46 -14 58 18 5 14 19 27
30 30 18 4 21 1 21 -23 0 -16 -6 -31 -12 -33 -7 -3 3 -5 22 -5 19 0 27 2 18 5
-12 3 -18 14 -18 34 0 23 6 32 27 40 15 5 36 9 47 7 25 -4 34 -28 10 -28 -17
0 -17 -1 1 -13 22 -17 11 -41 -16 -34 -11 3 -19 1 -19 -4 0 -14 46 -11 59 4 6
8 8 16 5 19 -3 3 -7 21 -8 40 l-4 34 122 39 c66 21 126 40 131 41 6 1 78 25
160 52 83 27 245 79 360 116 116 37 255 82 310 101 55 18 201 65 325 105 124
39 295 94 380 122 85 27 183 59 218 70 49 15 66 17 77 8 21 -17 59 -8 70 17 5
12 16 24 25 27 12 3 11 4 -2 5 -14 1 -18 10 -18 46 0 33 -4 45 -15 45 -8 0
-15 -5 -15 -11z m43 -702 c9 -23 -8 -40 -22 -23 -13 15 -7 36 9 36 4 0 10 -6
13 -13z m-2353 -106 c0 -12 -20 -25 -27 -18 -7 7 6 27 18 27 5 0 9 -4 9 -9z
m-126 -36 c4 -10 -1 -15 -14 -15 -20 0 -26 11 -13 23 10 11 20 8 27 -8z m136
-2 c0 -5 -5 -15 -10 -23 -7 -12 -12 -12 -22 -2 -10 10 -10 15 2 22 18 12 30
13 30 3z m2340 -203 c0 -11 -7 -20 -15 -20 -13 0 -13 3 -3 20 7 11 14 20 15
20 2 0 3 -9 3 -20z m-2270 6 c0 -2 -7 -7 -16 -10 -8 -3 -12 -2 -9 4 6 10 25
14 25 6z m-210 -26 c0 -11 -7 -20 -15 -20 -13 0 -13 3 -3 20 7 11 14 20 15 20
2 0 3 -9 3 -20z m130 -120 c9 -18 8 -20 -15 -20 -27 0 -28 1 -19 24 8 22 21
20 34 -4z m84 11 c3 -5 -1 -12 -10 -15 -20 -8 -29 -1 -19 13 8 13 22 14 29 2z
m-1327 -208 c2 -6 -4 -13 -13 -17 -21 -8 -26 -3 -18 18 7 18 25 17 31 -1z m80
-29 c-3 -3 -12 -4 -19 -1 -8 3 -5 6 6 6 11 1 17 -2 13 -5z m-33 -13 c3 -4 -6
-13 -19 -19 -23 -11 -24 -10 -13 8 14 22 24 25 32 11z m1282 -2 c10 -17 -13
-36 -27 -22 -12 12 -4 33 11 33 5 0 12 -5 16 -11z m-1331 -9 c-3 -5 -10 -10
-16 -10 -5 0 -9 5 -9 10 0 6 7 10 16 10 8 0 12 -4 9 -10z m-23 -14 c16 -12 13
-16 -32 -40 -48 -26 -50 -26 -50 -7 0 11 -5 23 -11 27 -16 10 12 25 34 18 9
-3 17 -1 17 5 0 15 21 13 42 -3z m203 -36 c-3 -5 -11 -10 -16 -10 -6 0 -7 5
-4 10 3 6 11 10 16 10 6 0 7 -4 4 -10z m-362 -16 c20 -8 23 -24 3 -24 -8 0
-23 -11 -33 -25 -13 -18 -47 -33 -133 -59 -63 -19 -116 -33 -119 -31 -2 3 7 9
20 14 24 10 24 10 2 10 -13 1 -28 -8 -35 -19 -17 -26 -58 -27 -58 -1 0 14 21
27 88 54 48 20 119 49 157 66 39 16 75 28 80 25 6 -2 18 -7 28 -10z m67 6 c0
-5 -7 -10 -16 -10 -8 0 -12 5 -9 10 3 6 10 10 16 10 5 0 9 -4 9 -10z m83 -20
c-4 -16 0 -20 18 -21 22 -1 22 -1 -4 -9 -16 -5 -35 -6 -43 -3 -8 3 -14 1 -14
-5 0 -5 -9 -12 -19 -15 -31 -8 -14 21 28 48 20 13 37 24 38 24 0 1 -1 -8 -4
-19z m137 -65 c0 -8 -6 -15 -14 -15 -17 0 -28 14 -19 24 12 12 33 6 33 -9z
m-323 -21 c-3 -3 -12 -4 -19 -1 -8 3 -5 6 6 6 11 1 17 -2 13 -5z m-327 -39 c0
-8 -7 -15 -16 -15 -8 0 -12 -4 -9 -10 3 -5 4 -10 1 -10 -2 0 -12 -3 -21 -6
-13 -5 -16 -2 -13 17 2 15 12 26 28 30 14 4 26 7 28 8 1 1 2 -6 2 -14z m341
-1 c8 -10 23 -14 41 -12 21 4 28 0 28 -12 0 -13 -6 -16 -25 -12 -16 3 -33 -2
-44 -12 -11 -10 -59 -24 -111 -34 -79 -14 -93 -14 -101 -1 -21 33 -1 49 97 74
110 29 99 28 115 9z m-451 -50 c0 -12 -6 -15 -24 -10 -16 4 -26 1 -30 -9 -3
-8 -11 -15 -18 -15 -9 0 -8 3 2 10 13 9 13 10 0 11 -17 1 37 28 58 29 6 0 12
-7 12 -16z m215 6 c-3 -5 -12 -10 -18 -10 -7 0 -6 4 3 10 19 12 23 12 15 0z
m-43 -40 c-3 -18 -10 -30 -19 -30 -10 0 -13 6 -9 16 3 9 6 22 6 30 0 8 6 14
13 14 9 0 12 -10 9 -30z m-92 -20 c0 -23 -4 -30 -20 -30 -23 0 -24 1 -8 35 15
34 28 32 28 -5z m132 8 c-9 -9 -15 -9 -24 0 -9 9 -7 12 12 12 19 0 21 -3 12
-12z m-201 -5 c-11 -5 -11 -7 0 -14 23 -14 -2 -28 -56 -34 -28 -3 -45 -3 -38
1 7 3 9 12 6 20 -5 13 7 18 35 15 6 -1 12 3 12 9 0 5 12 10 28 9 15 0 21 -3
13 -6z m1767 -62 c2 -12 1 -30 -3 -39 -5 -14 -7 -14 -22 0 -11 11 -13 25 -9
43 8 31 30 28 34 -4z m122 9 c0 -21 -24 -28 -35 -10 -8 14 3 30 21 30 8 0 14
-9 14 -20z m88 -9 c2 -12 1 -30 -3 -39 -5 -14 -7 -14 -22 0 -11 11 -13 25 -9
43 8 31 30 28 34 -4z m-2168 5 c0 -14 -58 -31 -69 -20 -9 8 30 34 51 34 10 0
18 -6 18 -14z m312 2 c-9 -9 -15 -9 -24 0 -9 9 -7 12 12 12 19 0 21 -3 12 -12z
m-516 -25 c-10 -10 -19 5 -10 18 6 11 8 11 12 0 2 -7 1 -15 -2 -18z m932 -22
c2 -12 1 -30 -3 -39 -5 -14 -7 -14 -22 0 -11 11 -13 25 -9 43 8 31 30 28 34
-4z m210 -9 c3 -27 0 -32 -17 -32 -16 0 -21 6 -21 28 0 53 33 56 38 4z m-1248
13 c0 -8 -4 -15 -10 -15 -5 0 -10 -7 -10 -15 0 -12 -7 -14 -27 -9 -41 10 -44
13 -30 34 15 25 77 28 77 5z m219 -18 c-15 -11 -39 -49 -39 -61 0 -3 10 -6 22
-6 35 0 16 -8 -32 -13 l-45 -5 0 39 c0 30 3 38 15 35 8 -3 31 1 50 8 45 18 48
18 29 3z m61 3 c-10 -7 -11 -10 -2 -11 6 -1 17 -2 22 -3 6 0 15 -8 20 -16 9
-13 10 -13 10 1 0 8 -5 20 -12 27 -9 9 -5 9 15 0 48 -23 32 -44 -28 -39 -17 2
-18 0 -5 -9 13 -9 13 -11 0 -20 -39 -26 -69 4 -56 56 4 16 13 24 29 24 18 0
19 -2 7 -10z m436 -1 c10 -17 -13 -36 -27 -22 -12 12 -4 33 11 33 5 0 12 -5
16 -11z m-606 -48 c0 -31 -14 -49 -25 -32 -8 13 5 61 16 61 5 0 9 -13 9 -29z
m110 9 c0 -11 -7 -20 -15 -20 -13 0 -13 3 -3 20 7 11 14 20 15 20 2 0 3 -9 3
-20z m193 6 c4 -10 0 -12 -14 -9 -22 6 -26 23 -5 23 8 0 16 -6 19 -14z"/>
<path d="M5784 2615 c-10 -39 3 -75 26 -75 12 0 25 10 32 25 15 33 -3 75 -32
75 -13 0 -22 -9 -26 -25z m41 -26 c0 -24 -5 -34 -15 -34 -16 0 -25 37 -16 62
10 26 31 8 31 -28z"/>
<path d="M5920 2629 c0 -5 5 -7 10 -4 6 4 10 -10 10 -34 0 -22 -5 -42 -12 -44
-7 -3 3 -5 22 -5 19 0 27 2 18 5 -14 3 -18 15 -18 49 0 32 -4 44 -15 44 -8 0
-15 -5 -15 -11z"/>
<path d="M6011 2626 c-17 -20 -10 -67 11 -80 25 -15 57 17 42 42 -6 9 -17 17
-25 18 -9 1 -10 0 -1 -3 18 -6 15 -53 -3 -53 -8 0 -15 5 -16 10 -5 44 -1 56
21 67 23 12 24 13 4 13 -12 0 -27 -6 -33 -14z"/>
<path d="M3234 2586 c-9 -24 3 -46 26 -46 27 0 26 -18 -2 -30 -23 -10 -23 -10
2 -7 30 3 50 48 34 75 -15 23 -52 28 -60 8z m44 -19 c2 -10 -3 -17 -12 -17
-18 0 -29 16 -21 31 9 14 29 6 33 -14z"/>
<path d="M3360 2585 c-18 -21 -5 -45 25 -45 30 0 25 -17 -9 -30 -20 -9 -20 -9
0 -9 27 -1 44 18 44 49 0 44 -35 65 -60 35z m40 -15 c0 -11 -7 -20 -15 -20 -8
0 -15 9 -15 20 0 11 7 20 15 20 8 0 15 -9 15 -20z"/>
<path d="M3450 2581 c-23 -45 3 -96 38 -74 25 15 21 46 -8 60 l-24 12 24 10
c24 9 24 10 3 10 -12 1 -27 -8 -33 -18z m47 -37 c8 -21 -13 -42 -28 -27 -13
13 -5 43 11 43 6 0 13 -7 17 -16z"/>
<path d="M3539 2593 c0 -5 -1 -26 -2 -48 -2 -37 0 -40 26 -43 31 -4 46 20 28
42 -9 10 -9 16 -1 21 8 5 8 11 -1 21 -12 15 -48 19 -50 7z m41 -18 c0 -8 -7
-15 -15 -15 -8 0 -15 7 -15 15 0 8 7 15 15 15 8 0 15 -7 15 -15z m8 -42 c5
-17 -26 -29 -40 -15 -6 6 -7 15 -3 22 9 14 37 9 43 -7z"/>
<path d="M5870 2550 c0 -5 5 -10 11 -10 5 0 7 5 4 10 -3 6 -8 10 -11 10 -2 0
-4 -4 -4 -10z"/>
<path d="M3310 2510 c0 -5 5 -10 10 -10 6 0 10 5 10 10 0 6 -4 10 -10 10 -5 0
-10 -4 -10 -10z"/>
<path d="M5831 2176 c-8 -9 -9 -16 -2 -21 7 -4 6 -13 -2 -26 -10 -16 -9 -21 3
-29 8 -6 24 -9 35 -8 17 3 20 10 20 48 0 38 -4 45 -21 48 -11 2 -26 -4 -33
-12z m39 -11 c0 -8 -7 -15 -15 -15 -8 0 -15 7 -15 15 0 8 7 15 15 15 8 0 15
-7 15 -15z m5 -45 c0 -8 -8 -16 -17 -18 -13 -2 -18 3 -18 18 0 15 5 20 18 18
9 -2 17 -10 17 -18z"/>
<path d="M5910 2171 c0 -13 8 -21 23 -23 14 -2 22 -10 22 -23 0 -14 -6 -20
-22 -19 -13 0 -23 -3 -23 -8 0 -15 49 -8 59 9 11 21 -3 53 -24 53 -24 0 -17
18 8 23 16 3 13 5 -10 6 -26 1 -33 -3 -33 -18z"/>
<path d="M6000 2182 c0 -6 8 -8 19 -5 31 8 35 -17 7 -46 -34 -35 -33 -41 7
-40 25 1 27 3 9 6 l-24 5 22 23 c29 30 23 59 -13 63 -15 2 -27 -1 -27 -6z"/>
<path d="M3252 2163 c28 -4 28 -4 13 -40 -8 -19 -15 -40 -15 -46 0 -19 14 3
31 48 l17 45 -36 -1 c-30 -2 -32 -3 -10 -6z"/>
<path d="M3372 2163 l27 -4 -15 -41 c-15 -44 -11 -67 5 -27 34 87 35 79 -7 78
-29 -2 -31 -3 -10 -6z"/>
<path d="M3459 2162 c29 -9 40 -32 15 -32 -17 0 -17 -1 1 -13 22 -17 11 -41
-16 -34 -11 3 -19 1 -19 -4 0 -14 46 -11 59 4 6 8 8 17 4 20 -3 4 -6 19 -7 34
-1 24 -6 28 -31 30 -27 2 -28 1 -6 -5z"/>
<path d="M3535 2160 c-4 -6 -1 -9 7 -8 8 2 14 -10 16 -34 2 -28 -1 -37 -15
-41 -10 -3 -2 -5 17 -5 19 0 29 2 23 5 -8 3 -13 23 -13 49 0 32 -4 44 -14 44
-8 0 -18 -5 -21 -10z"/>
<path d="M5780 2100 c0 -5 5 -10 10 -10 6 0 10 5 10 10 0 6 -4 10 -10 10 -5 0
-10 -4 -10 -10z"/>
<path d="M3310 2080 c0 -5 5 -10 10 -10 6 0 10 5 10 10 0 6 -4 10 -10 10 -5 0
-10 -4 -10 -10z"/>
<path d="M2012 2043 c28 -4 28 -4 13 -40 -8 -19 -15 -40 -15 -46 0 -19 16 6
33 51 l17 42 -38 -1 c-30 -2 -32 -3 -10 -6z"/>
<path d="M2122 2038 c-17 -17 -15 -63 4 -79 22 -18 48 0 52 35 6 45 -29 71
-56 44z m38 -18 c11 -21 -2 -60 -20 -60 -5 0 -12 9 -15 20 -7 23 2 60 15 60 5
0 14 -9 20 -20z"/>
<path d="M2207 2043 c-3 -5 -4 -26 -3 -48 1 -32 5 -41 22 -43 28 -4 51 23 35
42 -9 10 -9 16 -1 21 8 5 8 11 -1 21 -12 15 -45 19 -52 7z m43 -18 c0 -8 -7
-15 -15 -15 -8 0 -15 7 -15 15 0 8 7 15 15 15 8 0 15 -7 15 -15z m0 -45 c0
-11 -6 -20 -14 -20 -18 0 -29 16 -21 30 11 18 35 11 35 -10z"/>
<path d="M2292 2033 c-14 -26 -4 -43 25 -43 15 0 23 -5 20 -12 -2 -7 -14 -13
-26 -12 -11 0 -21 -3 -21 -8 0 -10 31 -10 46 0 18 12 26 50 14 72 -13 25 -46
26 -58 3z m44 -4 c10 -17 -13 -36 -27 -22 -12 12 -4 33 11 33 5 0 12 -5 16
-11z"/>
<path d="M5853 1973 c32 -5 31 -3 12 -50 -8 -20 -13 -38 -10 -41 4 -4 45 81
45 94 0 2 -17 3 -37 3 -31 -2 -33 -3 -10 -6z"/>
<path d="M5920 1961 c0 -13 8 -21 23 -23 14 -2 22 -10 22 -23 0 -14 -6 -20
-22 -19 -13 0 -23 -3 -23 -8 0 -15 49 -8 59 9 11 21 -3 53 -24 53 -24 0 -17
18 8 23 16 3 13 5 -10 6 -26 1 -33 -3 -33 -18z"/>
<path d="M2070 1960 c0 -5 5 -10 10 -10 6 0 10 5 10 10 0 6 -4 10 -10 10 -5 0
-10 -4 -10 -10z"/>
<path d="M5790 1890 c0 -5 5 -10 10 -10 6 0 10 5 10 10 0 6 -4 10 -10 10 -5 0
-10 -4 -10 -10z"/>
<path d="M5841 1606 c-9 -10 -9 -16 -1 -21 8 -5 8 -11 -1 -21 -18 -22 -3 -46
28 -42 26 3 28 6 28 48 0 38 -4 45 -21 48 -11 2 -26 -4 -33 -12z m39 -11 c0
-8 -7 -15 -15 -15 -8 0 -15 7 -15 15 0 8 7 15 15 15 8 0 15 -7 15 -15z m5 -45
c0 -22 -29 -18 -33 3 -3 14 1 18 15 15 10 -2 18 -10 18 -18z"/>
<path d="M5929 1613 c0 -5 -1 -26 -2 -48 -2 -37 0 -40 26 -43 31 -4 46 20 28
42 -9 10 -9 16 -1 21 8 5 8 11 -1 21 -12 15 -48 19 -50 7z m41 -18 c0 -8 -7
-15 -15 -15 -8 0 -15 7 -15 15 0 8 7 15 15 15 8 0 15 -7 15 -15z m7 -41 c5
-15 -20 -24 -37 -14 -7 4 -9 13 -5 19 8 14 37 11 42 -5z"/>
<path d="M6022 1608 c-7 -7 -12 -27 -12 -44 0 -24 5 -34 21 -39 30 -10 58 19
43 43 -6 9 -17 17 -25 18 -9 1 -10 0 -1 -3 14 -5 16 -39 3 -47 -5 -3 -13 0
-18 7 -16 22 -8 51 17 64 22 11 23 13 5 13 -12 0 -26 -5 -33 -12z"/>
<path d="M5790 1530 c0 -5 5 -10 10 -10 6 0 10 5 10 10 0 6 -4 10 -10 10 -5 0
-10 -4 -10 -10z"/>
<path d="M2018 1440 c26 -11 29 -30 5 -30 -15 0 -15 -1 2 -13 22 -17 11 -41
-16 -34 -11 3 -19 1 -19 -4 0 -15 46 -10 60 6 6 8 8 20 4 27 -5 7 -8 22 -9 33
0 14 -8 21 -25 22 -25 3 -25 3 -2 -7z"/>
<path d="M2114 1435 c-9 -23 3 -45 26 -45 27 0 26 -18 -2 -30 -22 -8 -22 -9
-2 -9 27 -1 44 18 44 49 0 14 -5 31 -12 38 -17 17 -47 15 -54 -3z m46 -15 c0
-21 -24 -28 -35 -10 -8 14 3 30 21 30 8 0 14 -9 14 -20z"/>
<path d="M2209 1443 c0 -5 -1 -26 -2 -48 -2 -37 0 -40 26 -43 31 -4 46 20 28
42 -9 10 -9 16 -1 21 8 5 8 11 -1 21 -12 15 -48 19 -50 7z m41 -18 c0 -8 -7
-15 -15 -15 -8 0 -15 7 -15 15 0 8 7 15 15 15 8 0 15 -7 15 -15z m8 -42 c5
-17 -26 -29 -40 -15 -6 6 -7 15 -3 22 9 14 37 9 43 -7z"/>
<path d="M2294 1435 c-9 -24 3 -45 27 -45 12 0 19 -5 16 -12 -2 -7 -14 -13
-26 -12 -11 0 -21 -3 -21 -8 0 -4 11 -8 25 -8 34 0 53 39 37 75 -13 28 -49 34
-58 10z m44 -18 c2 -10 -3 -17 -12 -17 -18 0 -29 16 -21 31 9 14 29 6 33 -14z"/>
<path d="M2070 1360 c0 -5 5 -10 10 -10 6 0 10 5 10 10 0 6 -4 10 -10 10 -5 0
-10 -4 -10 -10z"/>
<path d="M1398 1280 c27 -12 29 -30 3 -30 -11 0 -22 -4 -25 -8 -3 -5 5 -8 17
-8 13 1 22 -5 22 -14 0 -9 -9 -15 -22 -14 -13 0 -23 -3 -23 -8 0 -4 5 -8 12
-8 9 0 9 -3 0 -12 -20 -20 -14 -28 21 -27 25 1 27 3 8 6 l-23 5 27 28 c18 19
24 33 19 42 -5 7 -8 22 -9 33 0 14 -8 21 -25 22 -25 3 -25 3 -2 -7z"/>
<path d="M1500 1281 c0 -5 6 -11 13 -14 10 -4 10 -7 0 -18 -7 -7 -13 -23 -13
-36 0 -18 6 -23 26 -23 16 0 24 -5 21 -12 -2 -7 -12 -12 -21 -12 -9 1 -16 -2
-16 -7 0 -13 34 -11 48 3 19 19 14 66 -8 80 -11 7 -20 21 -20 30 0 10 -7 18
-15 18 -8 0 -15 -4 -15 -9z m50 -67 c0 -8 -5 -12 -10 -9 -6 4 -8 11 -5 16 9
14 15 11 15 -7z"/>
<path d="M1582 1268 c2 -15 11 -24 26 -26 31 -5 25 -37 -6 -36 -12 0 -22 -3
-22 -8 0 -4 9 -8 19 -8 15 0 18 -5 14 -22 -9 -36 12 -9 30 39 l16 42 -29 6
c-35 8 -39 22 -7 28 15 3 12 5 -11 6 -29 1 -33 -2 -30 -21z"/>
<path d="M1670 1282 c0 -5 10 -8 21 -8 12 1 24 -5 26 -11 3 -8 -4 -13 -16 -13
-12 0 -21 -5 -21 -11 0 -5 6 -7 13 -3 6 4 4 -2 -5 -13 -22 -25 -23 -33 -1 -33
13 0 14 -3 5 -12 -20 -20 -14 -28 21 -27 25 1 27 3 9 6 l-24 5 22 23 c19 20
21 29 13 62 -7 31 -14 39 -36 41 -15 2 -27 -1 -27 -6z m58 -64 c-3 -7 -13 -15
-24 -17 -16 -3 -17 -1 -5 13 16 19 34 21 29 4z"/>
<path d="M1450 1200 c0 -5 5 -10 10 -10 6 0 10 5 10 10 0 6 -4 10 -10 10 -5 0
-10 -4 -10 -10z"/>
<path d="M1460 1160 c0 -5 5 -10 10 -10 6 0 10 5 10 10 0 6 -4 10 -10 10 -5 0
-10 -4 -10 -10z"/>
<path d="M2124 1028 c-3 -4 11 -8 30 -8 20 0 36 2 36 4 0 8 -61 12 -66 4z"/>
<path d="M1080 1009 c0 -5 5 -7 10 -4 6 4 10 -10 10 -34 0 -22 -5 -42 -12 -44
-7 -3 3 -5 22 -5 19 0 27 2 18 5 -14 3 -18 15 -18 49 0 32 -4 44 -15 44 -8 0
-15 -5 -15 -11z"/>
<path d="M1213 1013 c32 -5 31 -3 12 -50 -8 -20 -13 -38 -10 -41 4 -4 45 81
45 94 0 2 -17 3 -37 3 -31 -2 -33 -3 -10 -6z"/>
<path d="M1150 930 c0 -5 5 -10 10 -10 6 0 10 5 10 10 0 6 -4 10 -10 10 -5 0
-10 -4 -10 -10z"/>
<path d="M5826 902 c-3 -6 2 -8 14 -5 34 9 36 -24 4 -58 l-28 -29 40 1 c31 2
34 3 10 6 l-28 5 22 23 c12 13 20 31 18 42 -3 19 -42 30 -52 15z"/>
<path d="M5922 898 c-26 -26 -8 -88 25 -88 23 0 38 46 25 75 -13 27 -31 32
-50 13z m33 -38 c0 -38 -20 -52 -30 -21 -8 27 3 63 18 58 7 -2 12 -19 12 -37z"/>
<path d="M6006 898 c-3 -7 -4 -29 -3 -48 2 -27 7 -36 23 -38 25 -4 49 22 38
40 -5 7 -8 22 -9 33 0 23 -43 34 -49 13z m44 -13 c0 -8 -6 -15 -14 -15 -17 0
-28 14 -19 24 12 12 33 6 33 -9z m0 -45 c0 -11 -6 -20 -14 -20 -18 0 -29 16
-21 30 11 18 35 11 35 -10z"/>
<path d="M1178 868 c-16 -5 -28 -14 -28 -19 0 -11 0 -11 39 2 17 6 31 15 31
20 0 11 -7 10 -42 -3z"/>
<path d="M5780 820 c0 -5 5 -10 10 -10 6 0 10 5 10 10 0 6 -4 10 -10 10 -5 0
-10 -4 -10 -10z"/>
<path d="M360 3979 c0 -5 5 -7 10 -4 6 4 10 -10 10 -34 0 -22 -5 -42 -12 -44
-7 -3 3 -5 22 -5 19 0 27 2 18 5 -14 3 -18 15 -18 49 0 32 -4 44 -15 44 -8 0
-15 -5 -15 -11z"/>
<path d="M452 3983 c28 -4 28 -4 13 -40 -21 -51 -17 -66 6 -18 26 56 24 65
-13 64 -31 -2 -31 -2 -6 -6z"/>
<path d="M560 3971 c0 -13 8 -21 23 -23 14 -2 22 -10 22 -23 0 -14 -6 -20 -22
-19 -13 0 -23 -3 -23 -8 0 -15 49 -8 59 9 11 21 -3 53 -24 53 -24 0 -17 18 8
23 16 3 13 5 -10 6 -26 1 -33 -3 -33 -18z"/>
<path d="M520 3900 c0 -5 5 -10 11 -10 5 0 7 5 4 10 -3 6 -8 10 -11 10 -2 0
-4 -4 -4 -10z"/>
<path d="M360 3499 c0 -5 5 -7 10 -4 6 4 10 -10 10 -34 0 -22 -5 -42 -12 -44
-7 -3 3 -5 22 -5 19 0 27 2 18 5 -14 3 -18 15 -18 49 0 32 -4 44 -15 44 -8 0
-15 -5 -15 -11z"/>
<path d="M430 3491 c0 -13 8 -21 23 -23 14 -2 22 -10 22 -23 0 -14 -6 -20 -22
-19 -13 0 -23 -3 -23 -8 0 -5 12 -8 28 -6 21 2 28 9 30 31 3 22 -1 30 -17 34
-28 7 -27 21 2 26 16 3 13 5 -10 6 -26 1 -33 -3 -33 -18z"/>
<path d="M572 3498 c-26 -26 -8 -88 25 -88 23 0 38 46 25 75 -13 27 -31 32
-50 13z m33 -38 c0 -38 -20 -52 -30 -21 -8 27 3 63 18 58 7 -2 12 -19 12 -37z"/>
<path d="M520 3420 c0 -5 5 -10 11 -10 5 0 7 5 4 10 -3 6 -8 10 -11 10 -2 0
-4 -4 -4 -10z"/>
<path d="M174 3145 c1 -27 33 -31 41 -6 8 27 22 27 28 1 4 -17 4 -17 3 2 -1
30 -32 36 -41 9 -8 -26 -22 -27 -28 -3 -3 13 -4 12 -3 -3z"/>
<path d="M140 3090 c0 -5 8 -10 18 -10 13 0 18 -7 18 -22 -1 -20 4 -23 34 -23
32 0 35 2 37 33 l1 32 -54 0 c-30 0 -54 -4 -54 -10z m95 -30 c0 -18 -33 -26
-47 -12 -6 6 -7 15 -3 22 10 16 50 8 50 -10z"/>
<path d="M360 3019 c0 -5 5 -7 10 -4 6 4 10 -10 10 -34 0 -22 -5 -42 -12 -44
-7 -3 3 -5 22 -5 19 0 27 2 18 5 -14 3 -18 15 -18 49 0 32 -4 44 -15 44 -8 0
-15 -5 -15 -11z"/>
<path d="M430 3022 c0 -6 8 -8 19 -5 31 8 35 -17 7 -46 -34 -35 -33 -41 7 -40
25 1 27 3 9 6 l-24 5 22 23 c29 30 23 59 -13 63 -15 2 -27 -1 -27 -6z"/>
<path d="M560 3011 c0 -13 8 -21 23 -23 14 -2 22 -10 22 -23 0 -14 -6 -20 -22
-19 -13 0 -23 -3 -23 -8 0 -15 49 -8 59 9 11 21 -3 53 -24 53 -24 0 -17 18 8
23 16 3 13 5 -10 6 -26 1 -33 -3 -33 -18z"/>
<path d="M176 2998 c-12 -37 -3 -48 38 -47 l41 2 -34 6 c-43 8 -51 28 -14 37
48 10 49 12 10 13 -22 1 -39 -4 -41 -11z"/>
<path d="M520 2940 c0 -5 5 -10 11 -10 5 0 7 5 4 10 -3 6 -8 10 -11 10 -2 0
-4 -4 -4 -10z"/>
<path d="M174 2906 c-12 -30 4 -47 38 -44 28 2 33 7 33 28 0 21 -5 26 -33 28
-22 2 -34 -2 -38 -12z m61 -16 c0 -18 -33 -26 -47 -12 -6 6 -7 15 -3 22 10 16
50 8 50 -10z"/>
<path d="M174 2816 c2 -47 69 -45 72 3 1 17 1 18 -3 2 -8 -35 -57 -37 -66 -3
-3 13 -4 12 -3 -2z"/>
<path d="M177 2753 c-28 -27 17 -72 53 -53 19 10 29 60 12 60 -5 0 -8 -10 -8
-21 1 -12 -5 -24 -11 -26 -8 -3 -13 5 -13 21 0 24 -18 35 -33 19z m23 -25 c0
-16 -3 -19 -11 -11 -6 6 -8 16 -5 22 11 17 16 13 16 -11z"/>
<path d="M205 2661 c-8 -26 -22 -27 -29 -3 -3 10 -4 7 -3 -7 3 -34 24 -38 38
-7 14 29 33 24 25 -7 -3 -14 -2 -17 5 -10 15 15 7 47 -13 51 -9 2 -19 -5 -23
-17z"/>
<path d="M188 2593 c12 -2 32 -2 45 0 12 2 2 4 -23 4 -25 0 -35 -2 -22 -4z"/>
<path d="M168 2553 c18 -2 45 -2 60 0 15 2 0 4 -33 4 -33 0 -45 -2 -27 -4z"/>
<path d="M360 2539 c0 -5 5 -7 10 -4 6 4 10 -10 10 -34 0 -22 -5 -42 -12 -44
-7 -3 3 -5 22 -5 19 0 27 2 18 5 -14 3 -18 15 -18 49 0 32 -4 44 -15 44 -8 0
-15 -5 -15 -11z"/>
<path d="M434 2525 c-10 -39 3 -75 26 -75 12 0 25 10 32 25 15 33 -3 75 -32
75 -13 0 -22 -9 -26 -25z m41 -26 c0 -24 -5 -34 -15 -34 -16 0 -25 37 -16 62
10 26 31 8 31 -28z"/>
<path d="M572 2538 c-26 -26 -8 -88 25 -88 23 0 38 46 25 75 -13 27 -31 32
-50 13z m33 -38 c0 -38 -20 -52 -30 -21 -8 27 3 63 18 58 7 -2 12 -19 12 -37z"/>
<path d="M168 2513 c18 -2 45 -2 60 0 15 2 0 4 -33 4 -33 0 -45 -2 -27 -4z"/>
<path d="M170 2480 c0 -5 18 -10 40 -10 22 0 40 5 40 10 0 6 -18 10 -40 10
-22 0 -40 -4 -40 -10z"/>
<path d="M520 2460 c0 -5 5 -10 11 -10 5 0 7 5 4 10 -3 6 -8 10 -11 10 -2 0
-4 -4 -4 -10z"/>
<path d="M184 2442 c-6 -4 -11 -28 -11 -54 l1 -48 40 1 41 2 -35 6 c-22 4 -35
12 -35 21 0 9 13 17 35 21 l35 6 -34 4 c-48 6 -50 25 -4 37 36 10 37 10 8 11
-16 0 -35 -3 -41 -7z"/>
<path d="M240 2306 c0 -2 7 -7 16 -10 8 -3 12 -2 9 4 -6 10 -25 14 -25 6z"/>
<path d="M170 2270 c0 -5 11 -12 25 -16 32 -8 32 -20 -1 -28 -15 -4 -24 -9
-21 -12 3 -3 24 0 47 7 35 11 43 10 52 -2 8 -12 9 -12 6 1 -5 16 -108 65 -108
50z"/>
<path d="M174 2166 c3 -49 68 -44 73 5 3 23 2 23 -6 3 -5 -12 -14 -25 -19 -28
-15 -9 -40 4 -45 22 -3 13 -4 12 -3 -2z"/>
<path d="M176 2098 c-12 -37 -3 -48 38 -47 l41 2 -35 6 c-22 4 -35 12 -35 21
0 9 13 17 35 21 l35 6 -38 2 c-22 0 -39 -4 -41 -11z"/>
<path d="M462 2063 c28 -4 28 -4 13 -40 -8 -19 -15 -40 -15 -46 0 -19 14 3 31
48 l17 45 -36 -1 c-30 -2 -32 -3 -10 -6z"/>
<path d="M570 2051 c0 -11 9 -21 21 -24 28 -8 21 -39 -11 -48 l-25 -7 26 -1
c49 -2 65 54 19 66 -27 7 -25 21 3 26 19 4 18 4 -5 6 -21 1 -28 -4 -28 -18z"/>
<path d="M179 2014 c-17 -20 -1 -48 31 -52 25 -4 40 13 39 43 -1 17 -2 16 -8
-4 -10 -37 -31 -38 -31 -2 0 34 -11 39 -31 15z m21 -25 c0 -11 -4 -17 -10 -14
-5 3 -10 13 -10 21 0 8 5 14 10 14 6 0 10 -9 10 -21z"/>
<path d="M520 1980 c0 -5 5 -10 10 -10 6 0 10 5 10 10 0 6 -4 10 -10 10 -5 0
-10 -4 -10 -10z"/>
<path d="M171 1938 c0 -10 -7 -18 -13 -18 -10 0 -10 -2 0 -9 20 -12 87 2 88
19 0 9 -1 10 -3 3 -7 -20 -61 -16 -66 5 -4 16 -5 16 -6 0z"/>
<path d="M177 1873 c-4 -3 -7 -16 -6 -27 0 -19 1 -19 11 4 l11 25 6 -25 c10
-36 46 -34 47 3 1 24 -3 27 -31 27 -17 0 -35 -3 -38 -7z m58 -21 c0 -18 -20
-15 -23 4 -3 10 1 15 10 12 7 -3 13 -10 13 -16z"/>
<path d="M140 1800 c0 -5 25 -10 55 -10 30 0 55 5 55 10 0 6 -25 10 -55 10
-30 0 -55 -4 -55 -10z"/>
<path d="M430 1571 c0 -13 8 -21 23 -23 14 -2 22 -10 22 -23 0 -14 -6 -20 -22
-19 -13 0 -23 -3 -23 -8 0 -15 49 -8 59 9 11 21 -3 53 -24 53 -24 0 -17 18 8
23 16 3 13 5 -10 6 -26 1 -33 -3 -33 -18z"/>
<path d="M562 1578 c-17 -17 -15 -63 4 -79 22 -18 48 0 52 35 6 45 -29 71 -56
44z m38 -18 c11 -21 -2 -60 -20 -60 -5 0 -12 9 -15 20 -7 23 2 60 15 60 5 0
14 -9 20 -20z"/>
<path d="M510 1500 c0 -5 5 -10 10 -10 6 0 10 5 10 10 0 6 -4 10 -10 10 -5 0
-10 -4 -10 -10z"/>
<path d="M436 1102 c-3 -6 2 -8 13 -5 31 8 35 -17 7 -46 -34 -35 -33 -41 7
-40 25 1 27 3 9 6 l-24 5 22 23 c12 13 20 31 18 42 -3 19 -42 30 -52 15z"/>
<path d="M570 1091 c0 -11 9 -21 21 -24 28 -8 21 -39 -11 -48 l-25 -7 26 -1
c49 -2 65 54 19 66 -27 7 -25 21 3 26 19 4 18 4 -5 6 -21 1 -28 -4 -28 -18z"/>
<path d="M520 1020 c0 -5 5 -10 10 -10 6 0 10 5 10 10 0 6 -4 10 -10 10 -5 0
-10 -4 -10 -10z"/>
<path d="M452 618 c-26 -26 -8 -88 25 -88 23 0 38 46 25 75 -13 27 -31 32 -50
13z m33 -38 c0 -18 -5 -35 -12 -37 -15 -5 -26 31 -18 58 10 31 30 17 30 -21z"/>
<path d="M572 618 c-17 -17 -15 -63 4 -79 22 -18 48 0 52 35 6 45 -29 71 -56
44z m38 -18 c11 -21 -2 -60 -20 -60 -13 0 -22 37 -15 60 3 11 10 20 15 20 5 0
14 -9 20 -20z"/>
<path d="M520 540 c0 -5 5 -10 10 -10 6 0 10 5 10 10 0 6 -4 10 -10 10 -5 0
-10 -4 -10 -10z"/>
<path d="M732 468 c-26 -26 -8 -88 25 -88 23 0 38 46 25 75 -13 27 -31 32 -50
13z m33 -38 c0 -18 -5 -35 -12 -37 -15 -5 -26 31 -18 58 10 31 30 17 30 -21z"/>
<path d="M1450 469 c0 -5 5 -7 10 -4 6 4 10 -10 10 -34 0 -22 -5 -42 -12 -44
-7 -3 3 -5 22 -5 19 0 27 2 18 5 -14 3 -18 15 -18 49 0 32 -4 44 -15 44 -8 0
-15 -5 -15 -11z"/>
<path d="M1524 455 c-10 -39 3 -75 26 -75 12 0 25 10 32 25 15 33 -3 75 -32
75 -13 0 -22 -9 -26 -25z m41 -26 c0 -24 -5 -34 -15 -34 -16 0 -25 37 -16 62
10 26 31 8 31 -28z"/>
<path d="M2216 472 c-3 -6 2 -8 13 -5 31 8 35 -17 7 -46 -34 -35 -33 -41 7
-40 25 1 27 3 9 6 l-24 5 22 23 c12 13 20 31 18 42 -3 19 -42 30 -52 15z"/>
<path d="M2304 466 c-3 -8 -4 -29 -2 -48 2 -25 8 -34 25 -36 29 -4 47 36 33
73 -10 27 -47 35 -56 11z m41 -37 c0 -24 -5 -34 -15 -34 -16 0 -25 37 -16 62
10 26 31 8 31 -28z"/>
<path d="M3008 470 c26 -11 29 -30 5 -30 -15 0 -15 -1 2 -13 22 -17 11 -41
-16 -34 -11 3 -19 1 -19 -4 0 -15 46 -10 60 6 6 8 8 20 4 27 -5 7 -8 22 -9 33
0 14 -8 21 -25 22 -25 3 -25 3 -2 -7z"/>
<path d="M3064 466 c-3 -8 -4 -29 -2 -48 2 -25 8 -34 25 -36 29 -4 47 36 33
73 -10 27 -47 35 -56 11z m41 -37 c0 -24 -5 -34 -15 -34 -16 0 -25 37 -16 62
10 26 31 8 31 -28z"/>
<path d="M3781 454 c-26 -33 -26 -44 -1 -44 11 0 20 -7 20 -15 0 -21 18 -19
22 3 5 26 -3 82 -12 82 -5 0 -18 -12 -29 -26z m19 -14 c0 -11 -7 -20 -15 -20
-13 0 -13 3 -3 20 7 11 14 20 15 20 2 0 3 -9 3 -20z"/>
<path d="M3844 466 c-3 -8 -4 -29 -2 -48 2 -25 8 -34 25 -36 29 -4 47 36 33
73 -10 27 -47 35 -56 11z m41 -37 c0 -24 -5 -34 -15 -34 -16 0 -25 37 -16 62
10 26 31 8 31 -28z"/>
<path d="M4530 461 c0 -13 8 -21 23 -23 14 -2 22 -10 22 -23 0 -14 -6 -20 -22
-19 -13 0 -23 -3 -23 -8 0 -15 49 -8 59 9 11 21 -3 53 -24 53 -24 0 -17 18 8
23 16 3 13 5 -10 6 -26 1 -33 -3 -33 -18z"/>
<path d="M4614 466 c-3 -8 -4 -29 -2 -48 2 -25 8 -34 25 -36 29 -4 47 36 33
73 -10 27 -47 35 -56 11z m41 -37 c0 -24 -5 -34 -15 -34 -16 0 -25 37 -16 62
10 26 31 8 31 -28z"/>
<path d="M5312 468 c-32 -32 1 -104 36 -81 25 15 21 46 -8 60 l-24 12 24 10
c22 9 23 10 5 10 -12 1 -26 -4 -33 -11z m40 -40 c7 -19 -2 -38 -18 -38 -8 0
-14 8 -14 18 0 30 23 44 32 20z"/>
<path d="M5394 455 c-10 -39 3 -75 26 -75 29 0 47 42 32 75 -7 15 -20 25 -32
25 -13 0 -22 -9 -26 -25z m41 -26 c0 -24 -5 -34 -15 -34 -16 0 -25 37 -16 62
10 26 31 8 31 -28z"/>
<path d="M6102 473 c28 -4 28 -4 13 -40 -8 -19 -15 -40 -15 -46 0 -19 14 3 31
48 l17 45 -36 -1 c-30 -2 -32 -3 -10 -6z"/>
<path d="M6164 466 c-3 -8 -4 -29 -2 -48 2 -25 8 -34 25 -36 29 -4 47 36 33
73 -10 27 -47 35 -56 11z m41 -37 c0 -24 -5 -34 -15 -34 -16 0 -25 37 -16 62
10 26 31 8 31 -28z"/>
<path d="M3538 268 c-2 -7 -2 -29 2 -48 3 -25 11 -36 25 -38 18 -2 18 -2 3 8
-10 6 -18 22 -18 35 0 17 6 25 18 26 13 0 14 2 2 6 -8 3 -18 10 -21 15 -3 5
-8 4 -11 -4z"/>
<path d="M3063 253 c-30 -12 -7 -74 27 -72 9 0 6 4 -7 9 -14 6 -23 18 -23 30
0 12 9 24 23 30 12 5 15 9 7 9 -8 -1 -21 -3 -27 -6z"/>
<path d="M3120 241 c-15 -29 4 -63 33 -59 18 2 22 10 22 38 0 28 -4 36 -22 38
-14 2 -26 -4 -33 -17z m45 -21 c0 -13 -6 -25 -12 -27 -16 -6 -27 21 -19 43 9
23 31 11 31 -16z"/>
<path d="M3200 219 c0 -47 17 -52 22 -7 4 46 28 49 28 4 0 -20 5 -36 10 -36
12 0 13 49 2 66 -4 7 -19 12 -34 12 -26 0 -28 -4 -28 -39z"/>
<path d="M3291 215 c1 -41 3 -40 13 8 9 41 36 35 36 -8 0 -19 5 -35 10 -35 13
0 13 21 0 54 -7 19 -16 25 -35 24 -22 -2 -25 -7 -24 -43z"/>
<path d="M3380 241 c-15 -29 3 -61 35 -61 14 0 25 4 25 8 0 5 -10 8 -21 8 -12
-1 -24 5 -26 12 -3 7 5 12 22 12 20 0 26 4 23 18 -5 25 -44 27 -58 3z m45 -1
c3 -5 -3 -10 -15 -10 -12 0 -18 5 -15 10 3 6 10 10 15 10 5 0 12 -4 15 -10z"/>
<path d="M3472 248 c-27 -27 -2 -74 35 -65 15 4 14 5 -3 6 -41 2 -41 56 -1 64
21 4 21 4 2 6 -12 0 -26 -4 -33 -11z"/>
<path d="M3590 220 c0 -22 5 -40 10 -40 6 0 10 18 10 40 0 22 -4 40 -10 40 -5
0 -10 -18 -10 -40z"/>
<path d="M3640 245 c-26 -31 13 -82 44 -56 19 16 21 42 4 59 -16 16 -33 15
-48 -3z m35 -25 c0 -13 -6 -25 -12 -27 -16 -6 -27 21 -19 43 9 23 31 11 31
-16z"/>
<path d="M3721 216 l2 -41 6 35 c4 22 12 35 21 35 9 0 18 -13 22 -35 l6 -35
-1 40 c-2 36 -5 40 -29 41 -26 1 -28 -1 -27 -40z"/>
<path d="M3804 248 c-4 -7 2 -18 14 -26 28 -18 29 -36 2 -29 -11 3 -20 1 -20
-5 0 -5 12 -8 28 -6 34 4 36 28 2 45 l-24 12 24 10 c24 9 24 10 3 10 -12 1
-25 -4 -29 -11z"/>
</g>
</svg>
