<svg xmlns="http://www.w3.org/2000/svg" viewBox="0 0 547 511.14"><defs><style>.a3dabc74-60d4-424f-aa10-6738a0c3bb03{fill:#e5e5e4;}.e895bbc3-f942-46ba-8df7-4230ae6a6d7f{fill:#fff;}.fdf7712b-ceb6-4336-a702-84de2e7b7476{font-size:14px;}.bb8771de-dc11-423e-ba90-ddcd42c1d3d2,.fdf7712b-ceb6-4336-a702-84de2e7b7476{font-family:GoogleSans-Regular, Google Sans;}.bb6ac156-59b8-411b-9c0b-5e7d623e59ca{letter-spacing:-0.01em;}.a15f2a9e-ca40-4aca-befb-1fef09cb0de2{letter-spacing:0em;}.ebf0b94e-7289-4e7c-8b8d-799bc455c21d{letter-spacing:0.01em;}.e76ab905-dab8-4dc4-9c89-31d70b7ac234{letter-spacing:0em;}.a9a3f9bf-966c-4c24-b7f9-053571bc680f{letter-spacing:-0.01em;}.b2d4d10c-135d-418f-832d-fd1fa2b9f5e4{fill:#486baf;}.a30c413c-ec14-482f-ad92-5d3b9ac505c1,.a3388fd0-69f8-46a9-9b22-74c329370508,.a3a4cf56-e011-4b4e-8059-1e84e612b6f9,.a3c79924-7a00-41d2-b117-62bd8a50245a,.a587dfc2-3b07-4138-b90b-c6ce75842ec6,.ada6fa44-5611-4eee-8310-b7cbcfbab16e,.b4b1cfd3-0510-4fb5-b420-8f218f0b5d00,.b6b7887e-f9ad-4352-bf0f-83ff1f5f6410,.bc0e211a-309c-49b0-bb77-e39115e58123,.bcb97d74-ab80-4304-b68c-5df91cb1097e,.e0b55aeb-7156-4791-b2cc-f109150c3c91,.e5edda7e-093a-4491-b69a-d33e8b409ebc,.ed163314-0319-4fd2-8da7-4a4cde96f80b,.f1e20ece-96f5-4726-9413-8bc31edc6a94,.f2180b93-0dc4-42b0-a90b-580ec46075a4,.fb7e032f-938c-421e-b1cb-0cf6bbbcc10f{fill:none;}.b6b7887e-f9ad-4352-bf0f-83ff1f5f6410{stroke:#466bb0;stroke-dasharray:9.96 9.96;}.a30c413c-ec14-482f-ad92-5d3b9ac505c1,.a3388fd0-69f8-46a9-9b22-74c329370508,.a3a4cf56-e011-4b4e-8059-1e84e612b6f9,.a3c79924-7a00-41d2-b117-62bd8a50245a,.a587dfc2-3b07-4138-b90b-c6ce75842ec6,.ada6fa44-5611-4eee-8310-b7cbcfbab16e,.b4b1cfd3-0510-4fb5-b420-8f218f0b5d00,.b6b7887e-f9ad-4352-bf0f-83ff1f5f6410,.bcb97d74-ab80-4304-b68c-5df91cb1097e,.e0b55aeb-7156-4791-b2cc-f109150c3c91,.e5edda7e-093a-4491-b69a-d33e8b409ebc,.ed163314-0319-4fd2-8da7-4a4cde96f80b,.f1e20ece-96f5-4726-9413-8bc31edc6a94,.f2180b93-0dc4-42b0-a90b-580ec46075a4,.fb7e032f-938c-421e-b1cb-0cf6bbbcc10f{stroke-linejoin:round;}.bb8771de-dc11-423e-ba90-ddcd42c1d3d2{font-size:16px;}.b5050ba1-af06-4954-9a1e-52274885aa9a{letter-spacing:0em;}.a6c76839-f9ad-47c7-b55f-0f0ff06c16b4{letter-spacing:0em;}.e1415078-b06d-4ec3-9ffc-4a6ad92f72c6{letter-spacing:-0.01em;}.a36b9b26-bc12-420f-998a-f39b325f84e9{letter-spacing:0.01em;}.a3c79924-7a00-41d2-b117-62bd8a50245a,.a587dfc2-3b07-4138-b90b-c6ce75842ec6,.ada6fa44-5611-4eee-8310-b7cbcfbab16e,.fb7e032f-938c-421e-b1cb-0cf6bbbcc10f{stroke:#29abe2;}.a30c413c-ec14-482f-ad92-5d3b9ac505c1,.a3388fd0-69f8-46a9-9b22-74c329370508,.a3a4cf56-e011-4b4e-8059-1e84e612b6f9,.a3c79924-7a00-41d2-b117-62bd8a50245a,.a587dfc2-3b07-4138-b90b-c6ce75842ec6,.ada6fa44-5611-4eee-8310-b7cbcfbab16e,.bc0e211a-309c-49b0-bb77-e39115e58123,.bcb97d74-ab80-4304-b68c-5df91cb1097e,.e0b55aeb-7156-4791-b2cc-f109150c3c91,.e5edda7e-093a-4491-b69a-d33e8b409ebc,.ed163314-0319-4fd2-8da7-4a4cde96f80b,.f1e20ece-96f5-4726-9413-8bc31edc6a94,.fb7e032f-938c-421e-b1cb-0cf6bbbcc10f{stroke-linecap:round;}.a30c413c-ec14-482f-ad92-5d3b9ac505c1,.a3388fd0-69f8-46a9-9b22-74c329370508,.a3a4cf56-e011-4b4e-8059-1e84e612b6f9,.a3c79924-7a00-41d2-b117-62bd8a50245a,.a587dfc2-3b07-4138-b90b-c6ce75842ec6,.ada6fa44-5611-4eee-8310-b7cbcfbab16e,.bcb97d74-ab80-4304-b68c-5df91cb1097e,.e0b55aeb-7156-4791-b2cc-f109150c3c91,.e5edda7e-093a-4491-b69a-d33e8b409ebc,.ed163314-0319-4fd2-8da7-4a4cde96f80b,.f1e20ece-96f5-4726-9413-8bc31edc6a94,.fb7e032f-938c-421e-b1cb-0cf6bbbcc10f{stroke-width:4px;}.a30c413c-ec14-482f-ad92-5d3b9ac505c1,.a587dfc2-3b07-4138-b90b-c6ce75842ec6,.bcb97d74-ab80-4304-b68c-5df91cb1097e,.e5edda7e-093a-4491-b69a-d33e8b409ebc{stroke-dasharray:6 12;}.fc8fb7a0-c386-4ea1-8e27-134ea2e000b2{letter-spacing:-0.02em;}.f60f5bf4-5d26-4b6b-b9bd-c59fb813f398{letter-spacing:0em;}.b4d2dd9d-279d-4579-a757-3a03e4a6ed31{letter-spacing:-0.01em;}.a4645198-5f80-4935-a192-6627ffc5665d{letter-spacing:0em;}.acf06cd7-8d30-4d54-891a-400f2be11748{letter-spacing:-0.01em;}.f9d11889-b418-465a-8f1e-30e2fc8eace4{letter-spacing:-0.03em;}.ece307e2-64be-4b43-82bb-a512eafe8d8b{letter-spacing:-0.02em;}.bd38dae6-012d-43be-9b70-1e32a5ae7592{letter-spacing:0em;}.be6bd989-27af-4017-8982-5de9cc03d195{letter-spacing:-0.03em;}.a5cc0cca-31f9-451d-b481-7e873fcf38f1{letter-spacing:-0.02em;}.e61e98b8-e589-4f6b-b98c-3b83bfc17355{letter-spacing:-0.03em;}.b630a9e9-9524-47d3-99dd-4a9665a3b07b{letter-spacing:-0.02em;}.e9ae6782-acf3-4c36-9bd4-cfb620aef937{letter-spacing:0.02em;}.a3388fd0-69f8-46a9-9b22-74c329370508,.e5edda7e-093a-4491-b69a-d33e8b409ebc,.f1e20ece-96f5-4726-9413-8bc31edc6a94{stroke:#1b1464;}.ec2d0e7e-5ec4-47f2-a1a8-2d585f6587f9{letter-spacing:-0.02em;}.a4162be4-a7e7-4bf5-ab47-cc39ceefa3c6{letter-spacing:-0.01em;}.a30c413c-ec14-482f-ad92-5d3b9ac505c1,.a3a4cf56-e011-4b4e-8059-1e84e612b6f9{stroke:#486baf;}.bcb97d74-ab80-4304-b68c-5df91cb1097e,.e0b55aeb-7156-4791-b2cc-f109150c3c91,.ed163314-0319-4fd2-8da7-4a4cde96f80b{stroke:aqua;}.bf51ead8-945a-4b4b-acba-c4b16c4c8bcb{letter-spacing:-0.02em;}.efcaccd8-f3f7-4ccf-8c8a-180fee43f0ac{letter-spacing:-0.09em;}.f0807518-91a3-4a98-89b9-49dc95529edc{fill:#e6e6e6;}.b4b1cfd3-0510-4fb5-b420-8f218f0b5d00{stroke:#e905ee;stroke-width:3px;}.a9093ac6-efed-4a81-bd46-6b16ca5df883{fill:#757575;}.bc0e211a-309c-49b0-bb77-e39115e58123,.f2180b93-0dc4-42b0-a90b-580ec46075a4{stroke:#fff;stroke-width:2px;}.bc0e211a-309c-49b0-bb77-e39115e58123{stroke-miterlimit:10;}.a3388fd0-69f8-46a9-9b22-74c329370508{stroke-dasharray:5.99 11.98;}.a3c79924-7a00-41d2-b117-62bd8a50245a{stroke-dasharray:5.36 10.71;}.ada6fa44-5611-4eee-8310-b7cbcfbab16e{stroke-dasharray:5.18 10.36;}.ed163314-0319-4fd2-8da7-4a4cde96f80b{stroke-dasharray:6.2 12.4;}</style></defs><title>routing-7</title><g id="b7c984d1-86cc-4714-b1a6-e179e4fe19f1" data-name="Destination rules"><rect class="a3dabc74-60d4-424f-aa10-6738a0c3bb03" x="29.11" y="48.09" width="123.25" height="75.44" rx="3"/><rect class="e895bbc3-f942-46ba-8df7-4230ae6a6d7f" x="37.92" y="91.52" width="105.64" height="26.41" rx="3"/><text class="fdf7712b-ceb6-4336-a702-84de2e7b7476" transform="translate(56.59 108.87)"><tspan class="bb6ac156-59b8-411b-9c0b-5e7d623e59ca">m</tspan><tspan class="a15f2a9e-ca40-4aca-befb-1fef09cb0de2" x="12.05" y="0">y-</tspan><tspan class="ebf0b94e-7289-4e7c-8b8d-799bc455c21d" x="25.45" y="0">v</tspan><tspan class="e76ab905-dab8-4dc4-9c89-31d70b7ac234" x="32.73" y="0">t</tspan><tspan class="a15f2a9e-ca40-4aca-befb-1fef09cb0de2" x="37.93" y="0">l-s</tspan><tspan class="a9a3f9bf-966c-4c24-b7f9-053571bc680f" x="53.68" y="0">v</tspan><tspan x="60.66" y="0">c</tspan></text><rect id="b9080ae7-363c-4cf6-935d-ddb3a91e69aa" data-name="background" class="b2d4d10c-135d-418f-832d-fd1fa2b9f5e4" x="76.52" y="48.09" width="28.44" height="28.44"/><polygon id="ed6ea4b5-1bf5-4a40-a352-c3b6fb309281" data-name="hull" class="e895bbc3-f942-46ba-8df7-4230ae6a6d7f" points="82.14 71.98 99.34 71.98 88.59 75.21 82.14 71.98"/><polygon id="f1fce41f-772e-475b-908c-4103b7801adf" data-name="mainsail" class="e895bbc3-f942-46ba-8df7-4230ae6a6d7f" points="82.14 70.91 88.59 69.83 88.59 58.01 82.14 70.91"/><polygon id="adcee823-04a5-4870-95b7-dfab465932bc" data-name="headsail" class="e895bbc3-f942-46ba-8df7-4230ae6a6d7f" points="89.66 69.83 99.34 70.91 89.66 49.41 89.66 69.83"/><rect class="b6b7887e-f9ad-4352-bf0f-83ff1f5f6410" x="0.5" y="21.64" width="546" height="489" rx="10"/><text class="bb8771de-dc11-423e-ba90-ddcd42c1d3d2" transform="translate(31 13.73)">I<tspan class="b5050ba1-af06-4954-9a1e-52274885aa9a" x="3.9" y="0">s</tspan><tspan class="a6c76839-f9ad-47c7-b55f-0f0ff06c16b4" x="11.39" y="0">t</tspan><tspan class="e1415078-b06d-4ec3-9ffc-4a6ad92f72c6" x="17.33" y="0">i</tspan><tspan x="20.86" y="0">o M</tspan><tspan class="a36b9b26-bc12-420f-998a-f39b325f84e9" x="47.97" y="0">e</tspan><tspan x="57.06" y="0">sh</tspan></text><line class="fb7e032f-938c-421e-b1cb-0cf6bbbcc10f" x1="15.7" y1="375.86" x2="18.7" y2="375.86"/><line class="a587dfc2-3b07-4138-b90b-c6ce75842ec6" x1="30.7" y1="375.86" x2="150.7" y2="375.86"/><line class="fb7e032f-938c-421e-b1cb-0cf6bbbcc10f" x1="156.7" y1="375.86" x2="159.7" y2="375.86"/><text class="bb8771de-dc11-423e-ba90-ddcd42c1d3d2" transform="translate(15.7 402.86)"><tspan class="fc8fb7a0-c386-4ea1-8e27-134ea2e000b2">D</tspan><tspan class="a36b9b26-bc12-420f-998a-f39b325f84e9" x="11.01" y="0">e</tspan><tspan class="e1415078-b06d-4ec3-9ffc-4a6ad92f72c6" x="20.1" y="0">s</tspan><tspan class="a36b9b26-bc12-420f-998a-f39b325f84e9" x="27.58" y="0">t</tspan><tspan class="f60f5bf4-5d26-4b6b-b9bd-c59fb813f398" x="33.52" y="0">i</tspan><tspan class="b5050ba1-af06-4954-9a1e-52274885aa9a" x="37.14" y="0">n</tspan><tspan class="b4d2dd9d-279d-4579-a757-3a03e4a6ed31" x="46.03" y="0">a</tspan><tspan class="a6c76839-f9ad-47c7-b55f-0f0ff06c16b4" x="54.37" y="0">t</tspan><tspan class="b5050ba1-af06-4954-9a1e-52274885aa9a" x="60.3" y="0">i</tspan><tspan class="b4d2dd9d-279d-4579-a757-3a03e4a6ed31" x="63.84" y="0">o</tspan><tspan class="a4645198-5f80-4935-a192-6627ffc5665d" x="73.21" y="0">n ru</tspan><tspan class="e1415078-b06d-4ec3-9ffc-4a6ad92f72c6" x="100.88" y="0">l</tspan><tspan x="104.17" y="0">e </tspan><tspan class="b5050ba1-af06-4954-9a1e-52274885aa9a" x="116.89" y="0">c</tspan><tspan class="acf06cd7-8d30-4d54-891a-400f2be11748" x="125.55" y="0">on</tspan><tspan class="b5050ba1-af06-4954-9a1e-52274885aa9a" x="143.74" y="0">fig</tspan><tspan x="162.64" y="0">u</tspan><tspan class="f9d11889-b418-465a-8f1e-30e2fc8eace4" x="171.61" y="0">r</tspan><tspan class="a6c76839-f9ad-47c7-b55f-0f0ff06c16b4" x="177.13" y="0">e</tspan><tspan x="186.22" y="0">d </tspan><tspan class="ece307e2-64be-4b43-82bb-a512eafe8d8b" x="199.57" y="0">t</tspan><tspan x="205.07" y="0">o </tspan><tspan class="bd38dae6-012d-43be-9b70-1e32a5ae7592" x="218.32" y="0">u</tspan><tspan class="a6c76839-f9ad-47c7-b55f-0f0ff06c16b4" x="227.21" y="0">s</tspan><tspan x="234.86" y="0">e a </tspan><tspan class="e1415078-b06d-4ec3-9ffc-4a6ad92f72c6" x="259.79" y="0">s</tspan><tspan x="267.28" y="0">im</tspan><tspan class="acf06cd7-8d30-4d54-891a-400f2be11748" x="284.89" y="0">p</tspan><tspan class="e1415078-b06d-4ec3-9ffc-4a6ad92f72c6" x="294.3" y="0">l</tspan><tspan x="297.6" y="0">e </tspan><tspan class="be6bd989-27af-4017-8982-5de9cc03d195" x="310.32" y="0">r</tspan><tspan class="b5050ba1-af06-4954-9a1e-52274885aa9a" x="315.84" y="0">o</tspan><tspan x="325.29" y="0">und-</tspan><tspan class="f9d11889-b418-465a-8f1e-30e2fc8eace4" x="359.93" y="0">r</tspan><tspan class="e1415078-b06d-4ec3-9ffc-4a6ad92f72c6" x="365.45" y="0">ob</tspan><tspan x="384.46" y="0">in</tspan><tspan class="e1415078-b06d-4ec3-9ffc-4a6ad92f72c6" x="0" y="19.2">l</tspan><tspan x="3.3" y="19.2">o</tspan><tspan class="e1415078-b06d-4ec3-9ffc-4a6ad92f72c6" x="12.83" y="19.2">a</tspan><tspan x="21.25" y="19.2">d ba</tspan><tspan class="e1415078-b06d-4ec3-9ffc-4a6ad92f72c6" x="52.72" y="19.2">l</tspan><tspan x="56.02" y="19.2">an</tspan><tspan class="b5050ba1-af06-4954-9a1e-52274885aa9a" x="73.49" y="19.2">c</tspan><tspan x="82.14" y="19.2">er</tspan><tspan class="a5cc0cca-31f9-451d-b481-7e873fcf38f1" x="97.15" y="19.2"> </tspan><tspan class="e61e98b8-e589-4f6b-b98c-3b83bfc17355" x="100.54" y="19.2">f</tspan><tspan class="b4d2dd9d-279d-4579-a757-3a03e4a6ed31" x="106.11" y="19.2">o</tspan><tspan x="115.49" y="19.2">r </tspan><tspan class="a6c76839-f9ad-47c7-b55f-0f0ff06c16b4" x="125.2" y="19.2">t</tspan><tspan class="a4645198-5f80-4935-a192-6627ffc5665d" x="131.13" y="19.2">he v2 su</tspan><tspan class="b5050ba1-af06-4954-9a1e-52274885aa9a" x="189.76" y="19.2">b</tspan><tspan class="a36b9b26-bc12-420f-998a-f39b325f84e9" x="199.31" y="19.2">s</tspan><tspan class="fc8fb7a0-c386-4ea1-8e27-134ea2e000b2" x="206.96" y="19.2">e</tspan><tspan x="215.73" y="19.2">t </tspan><tspan class="fc8fb7a0-c386-4ea1-8e27-134ea2e000b2" x="225.29" y="19.2">o</tspan><tspan x="234.59" y="19.2">f </tspan><tspan class="b630a9e9-9524-47d3-99dd-4a9665a3b07b" x="244.37" y="19.2">y</tspan><tspan class="b5050ba1-af06-4954-9a1e-52274885aa9a" x="252.3" y="19.2">o</tspan><tspan class="a4645198-5f80-4935-a192-6627ffc5665d" x="261.76" y="19.2">ur </tspan><tspan class="a6c76839-f9ad-47c7-b55f-0f0ff06c16b4" x="280.45" y="19.2">s</tspan><tspan x="288.09" y="19.2">e</tspan><tspan class="e9ae6782-acf3-4c36-9bd4-cfb620aef937" x="297.1" y="19.2">r</tspan><tspan x="303.37" y="19.2">v</tspan><tspan class="e1415078-b06d-4ec3-9ffc-4a6ad92f72c6" x="311.6" y="19.2">ic</tspan><tspan x="323.79" y="19.2">e.</tspan></text><line class="f1e20ece-96f5-4726-9413-8bc31edc6a94" x1="16" y1="448" x2="19" y2="448"/><line class="e5edda7e-093a-4491-b69a-d33e8b409ebc" x1="31" y1="448" x2="151" y2="448"/><line class="f1e20ece-96f5-4726-9413-8bc31edc6a94" x1="157" y1="448" x2="160" y2="448"/><text class="bb8771de-dc11-423e-ba90-ddcd42c1d3d2" transform="translate(16 475)"><tspan class="fc8fb7a0-c386-4ea1-8e27-134ea2e000b2">D</tspan><tspan class="a36b9b26-bc12-420f-998a-f39b325f84e9" x="11.01" y="0">e</tspan><tspan class="e1415078-b06d-4ec3-9ffc-4a6ad92f72c6" x="20.1" y="0">s</tspan><tspan class="a36b9b26-bc12-420f-998a-f39b325f84e9" x="27.58" y="0">t</tspan><tspan class="f60f5bf4-5d26-4b6b-b9bd-c59fb813f398" x="33.52" y="0">i</tspan><tspan class="b5050ba1-af06-4954-9a1e-52274885aa9a" x="37.14" y="0">n</tspan><tspan class="b4d2dd9d-279d-4579-a757-3a03e4a6ed31" x="46.03" y="0">a</tspan><tspan class="a6c76839-f9ad-47c7-b55f-0f0ff06c16b4" x="54.37" y="0">t</tspan><tspan class="b5050ba1-af06-4954-9a1e-52274885aa9a" x="60.3" y="0">i</tspan><tspan class="b4d2dd9d-279d-4579-a757-3a03e4a6ed31" x="63.84" y="0">o</tspan><tspan class="a4645198-5f80-4935-a192-6627ffc5665d" x="73.21" y="0">n ru</tspan><tspan class="e1415078-b06d-4ec3-9ffc-4a6ad92f72c6" x="100.88" y="0">l</tspan><tspan x="104.17" y="0">e </tspan><tspan class="b5050ba1-af06-4954-9a1e-52274885aa9a" x="116.89" y="0">c</tspan><tspan class="acf06cd7-8d30-4d54-891a-400f2be11748" x="125.55" y="0">on</tspan><tspan class="b5050ba1-af06-4954-9a1e-52274885aa9a" x="143.74" y="0">fig</tspan><tspan x="162.64" y="0">u</tspan><tspan class="f9d11889-b418-465a-8f1e-30e2fc8eace4" x="171.61" y="0">r</tspan><tspan class="a6c76839-f9ad-47c7-b55f-0f0ff06c16b4" x="177.13" y="0">e</tspan><tspan x="186.22" y="0">d </tspan><tspan class="ece307e2-64be-4b43-82bb-a512eafe8d8b" x="199.57" y="0">t</tspan><tspan x="205.07" y="0">o </tspan><tspan class="bd38dae6-012d-43be-9b70-1e32a5ae7592" x="218.32" y="0">u</tspan><tspan class="a6c76839-f9ad-47c7-b55f-0f0ff06c16b4" x="227.21" y="0">s</tspan><tspan x="234.86" y="0">e a </tspan><tspan class="e1415078-b06d-4ec3-9ffc-4a6ad92f72c6" x="259.79" y="0">s</tspan><tspan x="267.28" y="0">im</tspan><tspan class="acf06cd7-8d30-4d54-891a-400f2be11748" x="284.89" y="0">p</tspan><tspan class="e1415078-b06d-4ec3-9ffc-4a6ad92f72c6" x="294.3" y="0">l</tspan><tspan x="297.6" y="0">e </tspan><tspan class="ec2d0e7e-5ec4-47f2-a1a8-2d585f6587f9" x="310.32" y="0">r</tspan><tspan x="316" y="0">an</tspan><tspan class="e1415078-b06d-4ec3-9ffc-4a6ad92f72c6" x="333.47" y="0">d</tspan><tspan class="b4d2dd9d-279d-4579-a757-3a03e4a6ed31" x="343.02" y="0">o</tspan><tspan x="352.4" y="0">m </tspan><tspan class="e1415078-b06d-4ec3-9ffc-4a6ad92f72c6" x="370.11" y="0">l</tspan><tspan x="373.4" y="0">o</tspan><tspan class="e1415078-b06d-4ec3-9ffc-4a6ad92f72c6" x="382.94" y="0">a</tspan><tspan x="391.36" y="0">d ba</tspan><tspan class="e1415078-b06d-4ec3-9ffc-4a6ad92f72c6" x="422.83" y="0">l</tspan><tspan x="426.12" y="0">an</tspan><tspan class="b5050ba1-af06-4954-9a1e-52274885aa9a" x="443.6" y="0">c</tspan><tspan x="452.25" y="0">er</tspan><tspan class="e61e98b8-e589-4f6b-b98c-3b83bfc17355" x="0" y="19.2">f</tspan><tspan class="acf06cd7-8d30-4d54-891a-400f2be11748" x="5.57" y="19.2">o</tspan><tspan x="14.94" y="19.2">r </tspan><tspan class="a6c76839-f9ad-47c7-b55f-0f0ff06c16b4" x="24.66" y="19.2">t</tspan><tspan x="30.59" y="19.2">he v3 su</tspan><tspan class="e1415078-b06d-4ec3-9ffc-4a6ad92f72c6" x="89.38" y="19.2">b</tspan><tspan class="a6c76839-f9ad-47c7-b55f-0f0ff06c16b4" x="98.93" y="19.2">s</tspan><tspan class="a4162be4-a7e7-4bf5-ab47-cc39ceefa3c6" x="106.57" y="19.2">e</tspan><tspan x="115.34" y="19.2">t </tspan><tspan class="fc8fb7a0-c386-4ea1-8e27-134ea2e000b2" x="124.91" y="19.2">o</tspan><tspan x="134.21" y="19.2">f </tspan><tspan class="b630a9e9-9524-47d3-99dd-4a9665a3b07b" x="143.98" y="19.2">y</tspan><tspan class="b5050ba1-af06-4954-9a1e-52274885aa9a" x="151.92" y="19.2">o</tspan><tspan x="161.37" y="19.2">ur </tspan><tspan class="a36b9b26-bc12-420f-998a-f39b325f84e9" x="180.06" y="19.2">s</tspan><tspan x="187.71" y="19.2">e</tspan><tspan class="e9ae6782-acf3-4c36-9bd4-cfb620aef937" x="196.72" y="19.2">r</tspan><tspan class="f60f5bf4-5d26-4b6b-b9bd-c59fb813f398" x="202.99" y="19.2">v</tspan><tspan class="e1415078-b06d-4ec3-9ffc-4a6ad92f72c6" x="211.21" y="19.2">ic</tspan><tspan x="223.41" y="19.2">e.</tspan></text><line class="a3a4cf56-e011-4b4e-8059-1e84e612b6f9" x1="16" y1="305.14" x2="19" y2="305.14"/><line class="a30c413c-ec14-482f-ad92-5d3b9ac505c1" x1="31" y1="305.14" x2="151" y2="305.14"/><line class="a3a4cf56-e011-4b4e-8059-1e84e612b6f9" x1="157" y1="305.14" x2="160" y2="305.14"/><path d="M17.28,320.69h3.46a6.3,6.3,0,0,1,3.07.72,5.1,5.1,0,0,1,2,2,6.59,6.59,0,0,1,0,5.95,5,5,0,0,1-2,2,6.2,6.2,0,0,1-3.07.73H17.28Zm3.46,10.16a4.44,4.44,0,1,0,0-8.87H18.62v8.87Z"/><path d="M29.55,331.84a3.87,3.87,0,0,1-1.45-1.55,4.71,4.71,0,0,1-.52-2.21,5,5,0,0,1,.49-2.18,4,4,0,0,1,1.39-1.58,3.63,3.63,0,0,1,2.08-.59,4,4,0,0,1,2.08.53A3.65,3.65,0,0,1,35,325.74a4.83,4.83,0,0,1,.47,2.16,1.73,1.73,0,0,1,0,.42H28.94a3.29,3.29,0,0,0,.45,1.57,2.75,2.75,0,0,0,1,1,2.8,2.8,0,0,0,1.29.32,2.64,2.64,0,0,0,2.41-1.48l1.15.56a4,4,0,0,1-1.43,1.57,3.92,3.92,0,0,1-2.18.58A4,4,0,0,1,29.55,331.84ZM34,327.2a2.72,2.72,0,0,0-.29-1,2.21,2.21,0,0,0-.81-.86,2.55,2.55,0,0,0-1.38-.35,2.25,2.25,0,0,0-1.62.62A2.93,2.93,0,0,0,29,327.2Z"/><path d="M37.76,331.78a3.36,3.36,0,0,1-1.25-1.57l1.22-.55a2.45,2.45,0,0,0,.9,1.14,2.3,2.3,0,0,0,1.32.4,2.67,2.67,0,0,0,1.31-.31,1,1,0,0,0,.55-.89,1,1,0,0,0-.43-.83,4.3,4.3,0,0,0-1.36-.53l-1-.26a3.62,3.62,0,0,1-1.6-.81,2.07,2.07,0,0,1-.2-2.73,2.82,2.82,0,0,1,1.13-.83,4,4,0,0,1,1.52-.28,3.86,3.86,0,0,1,1.91.46,2.65,2.65,0,0,1,1.2,1.3l-1.19.54a2,2,0,0,0-1.93-1.09,2.28,2.28,0,0,0-1.18.31.92.92,0,0,0-.5.8.85.85,0,0,0,.35.72,2.72,2.72,0,0,0,1,.46l1.19.3a4,4,0,0,1,1.81.91,2,2,0,0,1,.6,1.46,2.11,2.11,0,0,1-.43,1.32,2.73,2.73,0,0,1-1.17.87,4.08,4.08,0,0,1-1.63.31A3.75,3.75,0,0,1,37.76,331.78Z"/><path d="M46.81,332.24a2.09,2.09,0,0,1-.71-.44,1.9,1.9,0,0,1-.48-.72,2.63,2.63,0,0,1-.16-1v-4.88H44V324h1.43v-2.3h1.36V324h2v1.23h-2v4.55a1.67,1.67,0,0,0,.25,1,1.12,1.12,0,0,0,.88.35,1.68,1.68,0,0,0,.9-.27v1.33a1.87,1.87,0,0,1-.49.16,3.65,3.65,0,0,1-.63,0A2.73,2.73,0,0,1,46.81,332.24Z"/><path d="M50.64,322.21a1,1,0,0,1-.29-.69.92.92,0,0,1,.29-.68.94.94,0,0,1,.69-.28,1,1,0,0,1,.69.28.91.91,0,0,1,.28.68,1,1,0,0,1-.28.69.92.92,0,0,1-.69.28A.94.94,0,0,1,50.64,322.21Zm0,1.77H52v8.16H50.66Z"/><path d="M54.14,324h1.3v1.2h.06a2.76,2.76,0,0,1,1.08-1,3.1,3.1,0,0,1,1.56-.42,2.89,2.89,0,0,1,2.25.85,3.33,3.33,0,0,1,.78,2.33v5.23H59.81v-5a2.15,2.15,0,0,0-.55-1.65,2.08,2.08,0,0,0-1.48-.51,2,2,0,0,0-1.18.37,2.37,2.37,0,0,0-.81,1,2.91,2.91,0,0,0-.29,1.26v4.59H54.14Z"/><path d="M64.05,332.05a2.71,2.71,0,0,1-1.09-1,2.56,2.56,0,0,1-.38-1.4,2.36,2.36,0,0,1,1-2,4,4,0,0,1,2.47-.73,5.34,5.34,0,0,1,1.36.16,3.61,3.61,0,0,1,1,.36V327a1.84,1.84,0,0,0-.64-1.47,2.42,2.42,0,0,0-1.61-.55,2.73,2.73,0,0,0-1.27.3,2.33,2.33,0,0,0-.91.82l-1-.77a3.29,3.29,0,0,1,1.32-1.15,4.23,4.23,0,0,1,1.86-.41,3.75,3.75,0,0,1,2.62.87,3.07,3.07,0,0,1,1,2.37v5.17h-1.3V331h-.06a2.87,2.87,0,0,1-1.06,1,3,3,0,0,1-1.58.42A3.58,3.58,0,0,1,64.05,332.05Zm3-1.2a2.76,2.76,0,0,0,.94-1,2.5,2.5,0,0,0,.35-1.29,3.41,3.41,0,0,0-.94-.42,4.22,4.22,0,0,0-1.19-.16,2.65,2.65,0,0,0-1.68.46,1.48,1.48,0,0,0-.57,1.2,1.33,1.33,0,0,0,.51,1.09,2,2,0,0,0,1.3.42A2.54,2.54,0,0,0,67.06,330.85Z"/><path d="M73.59,332.24a2.19,2.19,0,0,1-.71-.44,2.16,2.16,0,0,1-.48-.72,2.63,2.63,0,0,1-.16-1v-4.88H70.82V324h1.42v-2.3H73.6V324h2v1.23h-2v4.55a1.67,1.67,0,0,0,.25,1,1.14,1.14,0,0,0,.89.35,1.68,1.68,0,0,0,.89-.27v1.33a1.76,1.76,0,0,1-.49.16,3.48,3.48,0,0,1-.63,0A2.73,2.73,0,0,1,73.59,332.24Z"/><path d="M77.42,322.21a1,1,0,0,1-.29-.69.92.92,0,0,1,.29-.68,1,1,0,0,1,1.38,0,.92.92,0,0,1,.29.68,1,1,0,0,1-.28.69,1,1,0,0,1-1.39,0Zm0,1.77h1.34v8.16H77.44Z"/><path d="M82.45,331.82a4,4,0,0,1-1.5-1.57,4.79,4.79,0,0,1,0-4.38,4.26,4.26,0,0,1,5.82-1.57,4,4,0,0,1,1.49,1.57,4.71,4.71,0,0,1,0,4.38,3.89,3.89,0,0,1-1.49,1.57,4.31,4.31,0,0,1-4.32,0Zm3.56-1a2.77,2.77,0,0,0,1-1.08,3.69,3.69,0,0,0,0-3.3,2.92,2.92,0,0,0-1-1.08,2.77,2.77,0,0,0-1.4-.37,2.8,2.8,0,0,0-1.41.37,2.87,2.87,0,0,0-1,1.08,3.69,3.69,0,0,0,0,3.3,2.73,2.73,0,0,0,1,1.08,2.81,2.81,0,0,0,1.41.38A2.78,2.78,0,0,0,86,330.79Z"/><path d="M90.22,324h1.3v1.2h.06a2.8,2.8,0,0,1,1.07-1,3.16,3.16,0,0,1,1.57-.42,2.89,2.89,0,0,1,2.25.85,3.33,3.33,0,0,1,.78,2.33v5.23H95.89v-5a2.15,2.15,0,0,0-.55-1.65,2.09,2.09,0,0,0-1.49-.51,2,2,0,0,0-1.17.37,2.37,2.37,0,0,0-.81,1,2.91,2.91,0,0,0-.29,1.26v4.59H90.22Z"/><path d="M102.91,324h1.3v1.31h.06a2.26,2.26,0,0,1,.93-1.12,2.67,2.67,0,0,1,1.44-.44,2.35,2.35,0,0,1,1,.17v1.46a2.56,2.56,0,0,0-1.15-.26,1.85,1.85,0,0,0-1.09.34,2.34,2.34,0,0,0-.79.91,2.53,2.53,0,0,0-.3,1.22v4.57h-1.36Z"/><path d="M109.62,331.53a3.5,3.5,0,0,1-.77-2.41V324h1.36v4.93a2.38,2.38,0,0,0,.52,1.71,1.89,1.89,0,0,0,1.43.55,2.12,2.12,0,0,0,1.22-.37,2.48,2.48,0,0,0,.83-1,2.74,2.74,0,0,0,.3-1.25V324h1.36v8.16h-1.3V331h-.06a2.64,2.64,0,0,1-1.07,1,3.11,3.11,0,0,1-1.57.42A2.87,2.87,0,0,1,109.62,331.53Z"/><path d="M117.89,320.69h1.36v11.45h-1.36Z"/><path d="M122.72,331.84a3.87,3.87,0,0,1-1.45-1.55,4.59,4.59,0,0,1-.52-2.21,4.81,4.81,0,0,1,.49-2.18,3.92,3.92,0,0,1,1.38-1.58,3.65,3.65,0,0,1,2.08-.59,4,4,0,0,1,2.08.53,3.51,3.51,0,0,1,1.35,1.48,4.7,4.7,0,0,1,.48,2.16,1.73,1.73,0,0,1-.05.42h-6.45a3.19,3.19,0,0,0,.45,1.57,2.73,2.73,0,0,0,1,1,2.86,2.86,0,0,0,1.29.32,2.65,2.65,0,0,0,2.42-1.48l1.15.56a4,4,0,0,1-1.43,1.57,3.93,3.93,0,0,1-2.19.58A4,4,0,0,1,122.72,331.84Zm4.45-4.64a2.72,2.72,0,0,0-.29-1,2.21,2.21,0,0,0-.81-.86,2.57,2.57,0,0,0-1.38-.35,2.29,2.29,0,0,0-1.63.62,3,3,0,0,0-.87,1.62Z"/><path d="M135.47,331.83a4,4,0,0,1-1.47-1.55,4.91,4.91,0,0,1,0-4.44,3.85,3.85,0,0,1,1.47-1.55,4,4,0,0,1,2.13-.56,3.87,3.87,0,0,1,2.23.61,3.42,3.42,0,0,1,1.29,1.64l-1.23.51a2.43,2.43,0,0,0-.91-1.14,2.6,2.6,0,0,0-1.45-.39,2.49,2.49,0,0,0-1.34.39,2.81,2.81,0,0,0-1,1.1,3.36,3.36,0,0,0-.38,1.61,3.4,3.4,0,0,0,.38,1.62,2.78,2.78,0,0,0,1,1.09,2.41,2.41,0,0,0,1.34.4,2.74,2.74,0,0,0,1.49-.4,2.39,2.39,0,0,0,.93-1.14l1.22.51a3.61,3.61,0,0,1-1.34,1.63,3.85,3.85,0,0,1-2.23.63A4,4,0,0,1,135.47,331.83Z"/><path d="M144.16,331.82a4,4,0,0,1-1.5-1.57,4.79,4.79,0,0,1,0-4.38,4.26,4.26,0,0,1,5.82-1.57,4,4,0,0,1,1.49,1.57,4.71,4.71,0,0,1,0,4.38,3.89,3.89,0,0,1-1.49,1.57,4.31,4.31,0,0,1-4.32,0Zm3.56-1a2.77,2.77,0,0,0,1-1.08,3.69,3.69,0,0,0,0-3.3,2.92,2.92,0,0,0-1-1.08,2.74,2.74,0,0,0-1.4-.37,2.8,2.8,0,0,0-1.41.37,2.87,2.87,0,0,0-1,1.08,3.69,3.69,0,0,0,0,3.3,2.73,2.73,0,0,0,1,1.08,2.81,2.81,0,0,0,1.41.38A2.75,2.75,0,0,0,147.72,330.79Z"/><path d="M151.93,324h1.3v1.2h.06a2.83,2.83,0,0,1,1.08-1,3.1,3.1,0,0,1,1.56-.42,2.86,2.86,0,0,1,2.25.85,3.33,3.33,0,0,1,.78,2.33v5.23H157.6v-5a2.15,2.15,0,0,0-.55-1.65,2.06,2.06,0,0,0-1.48-.51,2,2,0,0,0-1.18.37,2.37,2.37,0,0,0-.81,1,2.91,2.91,0,0,0-.29,1.26v4.59h-1.36Z"/><path d="M161.69,325.21h-1.5V324h1.5v-.88a2.46,2.46,0,0,1,.36-1.34,2.37,2.37,0,0,1,.94-.89,2.72,2.72,0,0,1,1.31-.31,3.36,3.36,0,0,1,1.2.19v1.33a5,5,0,0,0-.54-.19,2.69,2.69,0,0,0-.61-.07,1.25,1.25,0,0,0-.91.38,1.39,1.39,0,0,0-.39,1.05V324h5.06v8.16h-1.34v-6.93h-3.72v6.93h-1.36Zm5.06-2.94a.94.94,0,0,1-.29-.69,1,1,0,0,1,.29-.69.94.94,0,0,1,.69-.28,1,1,0,0,1,1,1,.94.94,0,0,1-.28.69.91.91,0,0,1-.69.29A.94.94,0,0,1,166.75,322.27Z"/><path d="M171.38,335.18a3.27,3.27,0,0,1-1.25-1.61l1.23-.53a2.4,2.4,0,0,0,.9,1.14,2.51,2.51,0,0,0,1.5.44,2.64,2.64,0,0,0,2-.7,2.76,2.76,0,0,0,.69-2V331h-.06a3,3,0,0,1-1.13,1,3.41,3.41,0,0,1-1.65.39,3.59,3.59,0,0,1-1.93-.55,4,4,0,0,1-1.39-1.54,5.2,5.2,0,0,1,0-4.49,3.93,3.93,0,0,1,1.39-1.54,3.5,3.5,0,0,1,1.93-.55,3.41,3.41,0,0,1,1.65.39,2.9,2.9,0,0,1,1.13,1h.06V324h1.3v7.84a3.67,3.67,0,0,1-4,4A4,4,0,0,1,171.38,335.18Zm3.71-4.39a2.64,2.64,0,0,0,1-1.07,4,4,0,0,0,0-3.33,2.64,2.64,0,0,0-1-1.07,2.64,2.64,0,0,0-2.68,0,2.67,2.67,0,0,0-1,1.08,3.53,3.53,0,0,0-.36,1.65,3.64,3.64,0,0,0,.36,1.67,2.57,2.57,0,0,0,1,1.07,2.63,2.63,0,0,0,1.35.37A2.46,2.46,0,0,0,175.09,330.79Z"/><path d="M180.36,331.53a3.46,3.46,0,0,1-.78-2.41V324h1.36v4.93a2.38,2.38,0,0,0,.53,1.71,1.87,1.87,0,0,0,1.42.55,2.17,2.17,0,0,0,1.23-.37,2.56,2.56,0,0,0,.83-1,2.74,2.74,0,0,0,.3-1.25V324h1.36v8.16h-1.3V331h-.06a2.67,2.67,0,0,1-1.08,1,3.1,3.1,0,0,1-1.56.42A2.85,2.85,0,0,1,180.36,331.53Z"/><path d="M188.62,324h1.3v1.31H190a2.26,2.26,0,0,1,.93-1.12,2.67,2.67,0,0,1,1.44-.44,2.35,2.35,0,0,1,1,.17v1.46a2.56,2.56,0,0,0-1.15-.26,1.85,1.85,0,0,0-1.09.34,2.42,2.42,0,0,0-.79.91,2.53,2.53,0,0,0-.3,1.22v4.57h-1.36Z"/><path d="M195.68,331.84a3.87,3.87,0,0,1-1.45-1.55,4.59,4.59,0,0,1-.52-2.21,4.81,4.81,0,0,1,.49-2.18,3.85,3.85,0,0,1,1.38-1.58,3.65,3.65,0,0,1,2.08-.59,4,4,0,0,1,2.08.53,3.51,3.51,0,0,1,1.35,1.48,4.7,4.7,0,0,1,.48,2.16,1.73,1.73,0,0,1,0,.42h-6.45a3.19,3.19,0,0,0,.45,1.57,2.65,2.65,0,0,0,1,1,2.8,2.8,0,0,0,1.29.32,2.65,2.65,0,0,0,2.42-1.48l1.15.56a4,4,0,0,1-1.43,1.57,3.93,3.93,0,0,1-2.19.58A4,4,0,0,1,195.68,331.84Zm4.45-4.64a2.91,2.91,0,0,0-.29-1,2.21,2.21,0,0,0-.81-.86,2.57,2.57,0,0,0-1.38-.35,2.27,2.27,0,0,0-1.63.62,3,3,0,0,0-.87,1.62Z"/><path d="M204.71,331.84a3.9,3.9,0,0,1-1.4-1.55,5.11,5.11,0,0,1,0-4.45,3.9,3.9,0,0,1,1.4-1.55,3.57,3.57,0,0,1,2-.56,3.35,3.35,0,0,1,1.68.42,3.07,3.07,0,0,1,1.12,1.05h.06l-.06-1.14v-3.37h1.36v11.45h-1.3v-1.2h-.06a3.11,3.11,0,0,1-1.12,1,3.26,3.26,0,0,1-1.68.43A3.65,3.65,0,0,1,204.71,331.84Zm3.47-1.06a2.76,2.76,0,0,0,1-1.09,3.69,3.69,0,0,0,0-3.26,2.83,2.83,0,0,0-1-1.09,2.51,2.51,0,0,0-1.33-.38,2.53,2.53,0,0,0-1.33.38,2.74,2.74,0,0,0-1,1.1,3.4,3.4,0,0,0-.38,1.62,3.47,3.47,0,0,0,.38,1.63,2.71,2.71,0,0,0,1,1.09,2.45,2.45,0,0,0,1.33.39A2.43,2.43,0,0,0,208.18,330.78Z"/><path d="M218.79,332.24a2.19,2.19,0,0,1-.71-.44,1.9,1.9,0,0,1-.48-.72,2.63,2.63,0,0,1-.16-1v-4.88H216V324h1.43v-2.3h1.36V324h2v1.23h-2v4.55a1.67,1.67,0,0,0,.25,1,1.13,1.13,0,0,0,.88.35,1.68,1.68,0,0,0,.9-.27v1.33a1.76,1.76,0,0,1-.49.16,3.48,3.48,0,0,1-.63,0A2.73,2.73,0,0,1,218.79,332.24Z"/><path d="M223.68,331.82a4,4,0,0,1-1.5-1.57,4.79,4.79,0,0,1,0-4.38A4.26,4.26,0,0,1,228,324.3a4,4,0,0,1,1.49,1.57,4.71,4.71,0,0,1,0,4.38,3.89,3.89,0,0,1-1.49,1.57,4.31,4.31,0,0,1-4.32,0Zm3.56-1a2.77,2.77,0,0,0,1-1.08,3.69,3.69,0,0,0,0-3.3,2.92,2.92,0,0,0-1-1.08,2.74,2.74,0,0,0-1.4-.37,2.8,2.8,0,0,0-1.41.37,2.87,2.87,0,0,0-1.05,1.08,3.69,3.69,0,0,0,0,3.3,2.73,2.73,0,0,0,1.05,1.08,2.81,2.81,0,0,0,1.41.38A2.75,2.75,0,0,0,227.24,330.79Z"/><path d="M236,331.53a3.46,3.46,0,0,1-.78-2.41V324h1.36v4.93a2.38,2.38,0,0,0,.53,1.71,1.87,1.87,0,0,0,1.42.55,2.17,2.17,0,0,0,1.23-.37,2.66,2.66,0,0,0,.83-1,2.74,2.74,0,0,0,.3-1.25V324h1.36v8.16H241V331h-.06a2.74,2.74,0,0,1-1.08,1,3.1,3.1,0,0,1-1.56.42A2.84,2.84,0,0,1,236,331.53Z"/><path d="M244.88,331.78a3.36,3.36,0,0,1-1.25-1.57l1.22-.55a2.45,2.45,0,0,0,.9,1.14,2.3,2.3,0,0,0,1.32.4,2.67,2.67,0,0,0,1.31-.31,1,1,0,0,0,.11-1.72,4.11,4.11,0,0,0-1.36-.53l-1-.26a3.62,3.62,0,0,1-1.6-.81,2.07,2.07,0,0,1-.2-2.73,2.76,2.76,0,0,1,1.13-.83,4,4,0,0,1,1.52-.28,3.88,3.88,0,0,1,1.91.46,2.59,2.59,0,0,1,1.19,1.3l-1.18.54a2,2,0,0,0-1.94-1.09,2.24,2.24,0,0,0-1.17.31.93.93,0,0,0-.51.8.86.86,0,0,0,.36.72,2.72,2.72,0,0,0,1,.46l1.19.3a3.9,3.9,0,0,1,1.8.91,2,2,0,0,1,.61,1.46,2.11,2.11,0,0,1-.43,1.32,2.73,2.73,0,0,1-1.17.87,4.08,4.08,0,0,1-1.63.31A3.73,3.73,0,0,1,244.88,331.78Z"/><path d="M253.41,331.84a3.81,3.81,0,0,1-1.45-1.55,4.59,4.59,0,0,1-.52-2.21,4.81,4.81,0,0,1,.49-2.18,3.85,3.85,0,0,1,1.38-1.58,3.65,3.65,0,0,1,2.08-.59,4,4,0,0,1,2.08.53,3.51,3.51,0,0,1,1.35,1.48,4.7,4.7,0,0,1,.47,2.16,1.76,1.76,0,0,1,0,.42H252.8a3.19,3.19,0,0,0,.45,1.57,2.65,2.65,0,0,0,1,1,2.8,2.8,0,0,0,1.29.32,2.66,2.66,0,0,0,2.42-1.48l1.15.56a4,4,0,0,1-1.43,1.57,4.3,4.3,0,0,1-4.28,0Zm4.44-4.64a2.7,2.7,0,0,0-.28-1,2.28,2.28,0,0,0-.81-.86,2.58,2.58,0,0,0-1.39-.35,2.25,2.25,0,0,0-1.62.62,3,3,0,0,0-.87,1.62Z"/><path d="M265.6,332.05a2.71,2.71,0,0,1-1.09-1,2.57,2.57,0,0,1-.39-1.4,2.37,2.37,0,0,1,1-2,4,4,0,0,1,2.46-.73,5.37,5.37,0,0,1,1.37.16,3.61,3.61,0,0,1,1,.36V327a1.84,1.84,0,0,0-.64-1.47,2.42,2.42,0,0,0-1.61-.55,2.73,2.73,0,0,0-1.27.3,2.33,2.33,0,0,0-.91.82l-1-.77a3.39,3.39,0,0,1,1.33-1.15,4.23,4.23,0,0,1,1.86-.41,3.75,3.75,0,0,1,2.62.87,3.07,3.07,0,0,1,.95,2.37v5.17h-1.3V331h-.06a2.87,2.87,0,0,1-1.06,1,3,3,0,0,1-1.58.42A3.58,3.58,0,0,1,265.6,332.05Zm3-1.2a2.7,2.7,0,0,0,.95-1,2.5,2.5,0,0,0,.35-1.29,3.41,3.41,0,0,0-.94-.42,4.22,4.22,0,0,0-1.19-.16,2.7,2.7,0,0,0-1.69.46,1.5,1.5,0,0,0-.56,1.2,1.33,1.33,0,0,0,.51,1.09,2,2,0,0,0,1.3.42A2.48,2.48,0,0,0,268.6,330.85Z"/><path d="M277.45,331.78a3.34,3.34,0,0,1-1.24-1.57l1.21-.55a2.47,2.47,0,0,0,.91,1.14,2.3,2.3,0,0,0,1.32.4,2.7,2.7,0,0,0,1.31-.31,1,1,0,0,0,.11-1.72,4.21,4.21,0,0,0-1.36-.53l-1-.26a3.57,3.57,0,0,1-1.6-.81,1.93,1.93,0,0,1-.63-1.49,1.91,1.91,0,0,1,.43-1.24A2.79,2.79,0,0,1,278,324a4,4,0,0,1,1.52-.28,3.9,3.9,0,0,1,1.92.46,2.63,2.63,0,0,1,1.19,1.3l-1.19.54a2,2,0,0,0-1.93-1.09,2.28,2.28,0,0,0-1.18.31.94.94,0,0,0-.5.8.87.87,0,0,0,.35.72,2.85,2.85,0,0,0,1.06.46l1.18.3a4,4,0,0,1,1.81.91,2,2,0,0,1,.61,1.46,2.12,2.12,0,0,1-.44,1.32,2.64,2.64,0,0,1-1.16.87,4.12,4.12,0,0,1-1.63.31A3.76,3.76,0,0,1,277.45,331.78Z"/><path d="M284.4,322.21a1,1,0,0,1-.29-.69,1,1,0,0,1,1-1,.94.94,0,0,1,.69.28.92.92,0,0,1,.29.68,1,1,0,0,1-.28.69.94.94,0,0,1-.7.28A.93.93,0,0,1,284.4,322.21Zm0,1.77h1.35v8.16h-1.35Z"/><path d="M287.9,324h1.3v1.2h.06a3,3,0,0,1,2.54-1.45,2.77,2.77,0,0,1,1.56.43,2.44,2.44,0,0,1,1,1.15,3.3,3.3,0,0,1,1.14-1.15,3.14,3.14,0,0,1,1.66-.43,2.6,2.6,0,0,1,2.12.85,3.56,3.56,0,0,1,.71,2.33v5.23H298.6v-5a2.41,2.41,0,0,0-.46-1.65,1.77,1.77,0,0,0-1.38-.51,1.89,1.89,0,0,0-1.1.35,2.48,2.48,0,0,0-.78.94,3.1,3.1,0,0,0-.28,1.28v4.61h-1.36v-5a2.44,2.44,0,0,0-.46-1.66,1.74,1.74,0,0,0-1.36-.51,1.83,1.83,0,0,0-1.1.36,2.47,2.47,0,0,0-.78,1,3,3,0,0,0-.28,1.29v4.57H287.9Z"/><path d="M301.84,324h1.29v1.22h.07a2.82,2.82,0,0,1,1.11-1.05,3.31,3.31,0,0,1,1.67-.42,3.57,3.57,0,0,1,2,.56,3.85,3.85,0,0,1,1.41,1.55,5.11,5.11,0,0,1,0,4.45,3.85,3.85,0,0,1-1.41,1.55,3.65,3.65,0,0,1-2,.56,3.22,3.22,0,0,1-1.67-.43,2.85,2.85,0,0,1-1.11-1h-.07l.07,1.12v3.54h-1.36Zm5.31,6.8a2.78,2.78,0,0,0,1-1.09,3.46,3.46,0,0,0,.37-1.63,3.4,3.4,0,0,0-.37-1.62,2.81,2.81,0,0,0-1-1.1,2.52,2.52,0,0,0-2.66,0,2.83,2.83,0,0,0-1,1.09,3.78,3.78,0,0,0,0,3.26,2.76,2.76,0,0,0,1,1.09,2.46,2.46,0,0,0,2.66,0Z"/><path d="M311.31,320.69h1.36v11.45h-1.36Z"/><path d="M316.14,331.84a3.87,3.87,0,0,1-1.45-1.55,4.71,4.71,0,0,1-.52-2.21,4.81,4.81,0,0,1,.49-2.18,4,4,0,0,1,1.38-1.58,3.65,3.65,0,0,1,2.08-.59,4,4,0,0,1,2.08.53,3.6,3.6,0,0,1,1.36,1.48,4.83,4.83,0,0,1,.47,2.16,1.73,1.73,0,0,1,0,.42h-6.45a3.19,3.19,0,0,0,.45,1.57,2.75,2.75,0,0,0,1,1,2.79,2.79,0,0,0,1.28.32,2.65,2.65,0,0,0,2.42-1.48l1.15.56a4,4,0,0,1-1.43,1.57,3.92,3.92,0,0,1-2.18.58A4,4,0,0,1,316.14,331.84Zm4.45-4.64a2.72,2.72,0,0,0-.29-1,2.21,2.21,0,0,0-.81-.86,2.57,2.57,0,0,0-1.38-.35,2.29,2.29,0,0,0-1.63.62,3,3,0,0,0-.87,1.62Z"/><path d="M327.32,324h1.3v1.31h.06a2.26,2.26,0,0,1,.93-1.12,2.67,2.67,0,0,1,1.44-.44,2.29,2.29,0,0,1,1,.17v1.46a2.53,2.53,0,0,0-1.15-.26,1.87,1.87,0,0,0-1.09.34,2.42,2.42,0,0,0-.79.91,2.53,2.53,0,0,0-.3,1.22v4.57h-1.36Z"/><path d="M334,332.05a2.71,2.71,0,0,1-1.09-1,2.65,2.65,0,0,1-.38-1.4,2.37,2.37,0,0,1,1-2,4,4,0,0,1,2.46-.73,5.42,5.42,0,0,1,1.37.16,3.75,3.75,0,0,1,1,.36V327a1.87,1.87,0,0,0-.64-1.47,2.44,2.44,0,0,0-1.62-.55,2.66,2.66,0,0,0-1.26.3,2.36,2.36,0,0,0-.92.82l-1-.77a3.29,3.29,0,0,1,1.32-1.15,4.23,4.23,0,0,1,1.86-.41,3.73,3.73,0,0,1,2.62.87,3.07,3.07,0,0,1,.95,2.37v5.17h-1.29V331h-.07a2.76,2.76,0,0,1-1.05,1,3,3,0,0,1-1.59.42A3.62,3.62,0,0,1,334,332.05Zm3-1.2a2.59,2.59,0,0,0,.94-1,2.41,2.41,0,0,0,.36-1.29,3.48,3.48,0,0,0-.95-.42,4.15,4.15,0,0,0-1.18-.16,2.68,2.68,0,0,0-1.69.46,1.48,1.48,0,0,0-.57,1.2,1.31,1.31,0,0,0,.52,1.09,2,2,0,0,0,1.29.42A2.49,2.49,0,0,0,337,330.85Z"/><path d="M341.5,324h1.3v1.2h.06a2.73,2.73,0,0,1,1.07-1,3.13,3.13,0,0,1,1.57-.42,2.89,2.89,0,0,1,2.25.85,3.33,3.33,0,0,1,.77,2.33v5.23h-1.36v-5a2.18,2.18,0,0,0-.54-1.65,2.09,2.09,0,0,0-1.49-.51,1.94,1.94,0,0,0-1.17.37,2.37,2.37,0,0,0-.81,1,2.91,2.91,0,0,0-.29,1.26v4.59H341.5Z"/><path d="M352,331.84a3.83,3.83,0,0,1-1.4-1.55,5,5,0,0,1,0-4.45,3.83,3.83,0,0,1,1.4-1.55,3.56,3.56,0,0,1,2-.56,3.33,3.33,0,0,1,1.68.42,3,3,0,0,1,1.12,1.05h.07l-.07-1.14v-3.37h1.36v11.45H356.8v-1.2h-.07a3,3,0,0,1-1.12,1,3.23,3.23,0,0,1-1.68.43A3.64,3.64,0,0,1,352,331.84Zm3.47-1.06a2.76,2.76,0,0,0,1-1.09,3.69,3.69,0,0,0,0-3.26,2.83,2.83,0,0,0-1-1.09,2.54,2.54,0,0,0-2.67,0,2.81,2.81,0,0,0-1,1.1,3.4,3.4,0,0,0-.37,1.62,3.46,3.46,0,0,0,.37,1.63,2.78,2.78,0,0,0,1,1.09,2.48,2.48,0,0,0,2.67,0Z"/><path d="M361.63,331.82a4,4,0,0,1-1.5-1.57,4.79,4.79,0,0,1,0-4.38A4.26,4.26,0,0,1,366,324.3a4,4,0,0,1,1.49,1.57,4.71,4.71,0,0,1,0,4.38,3.89,3.89,0,0,1-1.49,1.57,4.31,4.31,0,0,1-4.32,0Zm3.56-1a2.77,2.77,0,0,0,1-1.08,3.69,3.69,0,0,0,0-3.3,2.92,2.92,0,0,0-1-1.08,2.74,2.74,0,0,0-1.4-.37,2.8,2.8,0,0,0-1.41.37,2.87,2.87,0,0,0-1.05,1.08,3.69,3.69,0,0,0,0,3.3,2.73,2.73,0,0,0,1.05,1.08,2.81,2.81,0,0,0,1.41.38A2.75,2.75,0,0,0,365.19,330.79Z"/><path d="M369.4,324h1.3v1.2h.06a3,3,0,0,1,2.55-1.45,2.77,2.77,0,0,1,1.56.43,2.42,2.42,0,0,1,.95,1.15,3.39,3.39,0,0,1,1.14-1.15,3.14,3.14,0,0,1,1.66-.43,2.59,2.59,0,0,1,2.12.85,3.56,3.56,0,0,1,.71,2.33v5.23h-1.34v-5a2.41,2.41,0,0,0-.47-1.65,1.75,1.75,0,0,0-1.37-.51,1.92,1.92,0,0,0-1.11.35,2.46,2.46,0,0,0-.77.94,3,3,0,0,0-.28,1.28v4.61h-1.36v-5a2.44,2.44,0,0,0-.47-1.66,1.74,1.74,0,0,0-1.36-.51,1.83,1.83,0,0,0-1.1.36,2.47,2.47,0,0,0-.78,1,3.11,3.11,0,0,0-.28,1.29v4.57H369.4Z"/><path d="M17,339.89h1.36v11.45H17Z"/><path d="M21.9,351a4,4,0,0,1-1.49-1.57,4.71,4.71,0,0,1,0-4.38,4.09,4.09,0,0,1,1.49-1.57,4.17,4.17,0,0,1,5.82,1.57,4.71,4.71,0,0,1,0,4.38,4,4,0,0,1-1.5,1.57,4.31,4.31,0,0,1-4.32,0Zm3.56-1a2.71,2.71,0,0,0,1-1.08,3.25,3.25,0,0,0,.4-1.65,3.19,3.19,0,0,0-.4-1.64,2.8,2.8,0,0,0-1-1.09,2.83,2.83,0,0,0-2.8,0,2.82,2.82,0,0,0-1.05,1.09,3.29,3.29,0,0,0-.39,1.64,3.35,3.35,0,0,0,.39,1.65A2.78,2.78,0,0,0,25.46,350Z"/><path d="M30.85,351.25a2.71,2.71,0,0,1-1.09-1,2.56,2.56,0,0,1-.38-1.4,2.36,2.36,0,0,1,1-2,4,4,0,0,1,2.47-.73,5.34,5.34,0,0,1,1.36.16,3.17,3.17,0,0,1,1,.37v-.5a1.81,1.81,0,0,0-.64-1.46,2.35,2.35,0,0,0-1.61-.56,2.73,2.73,0,0,0-1.27.3,2.33,2.33,0,0,0-.91.82l-1-.77A3.29,3.29,0,0,1,31,343.34a4.23,4.23,0,0,1,1.86-.41,3.75,3.75,0,0,1,2.62.87,3.07,3.07,0,0,1,1,2.37v5.17h-1.3v-1.17h-.06a2.87,2.87,0,0,1-1.06,1,3,3,0,0,1-1.58.42A3.58,3.58,0,0,1,30.85,351.25Zm3-1.2a2.67,2.67,0,0,0,.94-.95,2.5,2.5,0,0,0,.35-1.29,3.41,3.41,0,0,0-.94-.42,4.22,4.22,0,0,0-1.19-.16,2.59,2.59,0,0,0-1.68.47,1.45,1.45,0,0,0-.57,1.19,1.33,1.33,0,0,0,.51,1.09,2,2,0,0,0,1.3.42A2.54,2.54,0,0,0,33.86,350.05Z"/><path d="M39.74,351a3.83,3.83,0,0,1-1.4-1.55,5,5,0,0,1,0-4.45,3.83,3.83,0,0,1,1.4-1.55,3.56,3.56,0,0,1,2-.56,3.33,3.33,0,0,1,1.68.42,3,3,0,0,1,1.12,1h.07l-.07-1.14v-3.37h1.36v11.45H44.58v-1.2h-.07a3,3,0,0,1-1.12,1,3.23,3.23,0,0,1-1.68.43A3.64,3.64,0,0,1,39.74,351ZM43.21,350a2.76,2.76,0,0,0,1-1.09,3.69,3.69,0,0,0,0-3.26,2.83,2.83,0,0,0-1-1.09,2.54,2.54,0,0,0-2.67,0,2.81,2.81,0,0,0-1,1.1,3.42,3.42,0,0,0-.37,1.62,3.46,3.46,0,0,0,.37,1.63,2.78,2.78,0,0,0,1,1.09,2.48,2.48,0,0,0,2.67,0Z"/><path d="M54.07,351.17a3,3,0,0,1-1.11-1H52.9v1.2H51.6V339.89H53v3.37l-.06,1.14H53a3,3,0,0,1,1.11-1,3.34,3.34,0,0,1,1.67-.42,3.63,3.63,0,0,1,2,.56A3.92,3.92,0,0,1,59.14,345a5.11,5.11,0,0,1,0,4.45A3.92,3.92,0,0,1,57.73,351a3.71,3.71,0,0,1-2,.56A3.25,3.25,0,0,1,54.07,351.17ZM56.91,350a2.71,2.71,0,0,0,1-1.09,3.47,3.47,0,0,0,.38-1.63,3.43,3.43,0,0,0-.38-1.62,2.74,2.74,0,0,0-1-1.1,2.53,2.53,0,0,0-1.33-.38,2.5,2.5,0,0,0-1.32.38,2.78,2.78,0,0,0-1,1.09,3.87,3.87,0,0,0,0,3.26,2.71,2.71,0,0,0,1,1.09,2.42,2.42,0,0,0,1.32.39A2.45,2.45,0,0,0,56.91,350Z"/><path d="M62.24,351.25a2.71,2.71,0,0,1-1.09-1,2.65,2.65,0,0,1-.38-1.4,2.36,2.36,0,0,1,1-2,4,4,0,0,1,2.47-.73,5.48,5.48,0,0,1,1.37.16,3.2,3.2,0,0,1,1,.37v-.5a1.81,1.81,0,0,0-.64-1.46,2.35,2.35,0,0,0-1.61-.56,2.73,2.73,0,0,0-1.27.3,2.4,2.4,0,0,0-.91.82l-1-.77a3.29,3.29,0,0,1,1.32-1.15,4.23,4.23,0,0,1,1.86-.41,3.75,3.75,0,0,1,2.62.87,3.07,3.07,0,0,1,1,2.37v5.17h-1.3v-1.17h-.06a2.8,2.8,0,0,1-1.06,1,3,3,0,0,1-1.58.42A3.58,3.58,0,0,1,62.24,351.25Zm3-1.2a2.67,2.67,0,0,0,.94-.95,2.41,2.41,0,0,0,.35-1.29,3.41,3.41,0,0,0-.94-.42,4.15,4.15,0,0,0-1.18-.16,2.62,2.62,0,0,0-1.69.47,1.45,1.45,0,0,0-.57,1.19,1.33,1.33,0,0,0,.51,1.09,2,2,0,0,0,1.3.42A2.51,2.51,0,0,0,65.25,350.05Z"/><path d="M69.73,339.89h1.36v11.45H69.73Z"/><path d="M74,351.25a2.71,2.71,0,0,1-1.09-1,2.65,2.65,0,0,1-.38-1.4,2.34,2.34,0,0,1,1-2,4,4,0,0,1,2.46-.73,5.42,5.42,0,0,1,1.37.16,3.39,3.39,0,0,1,1,.37v-.5a1.84,1.84,0,0,0-.64-1.46,2.4,2.4,0,0,0-1.62-.56,2.66,2.66,0,0,0-1.26.3,2.36,2.36,0,0,0-.92.82l-1-.77a3.29,3.29,0,0,1,1.32-1.15,4.23,4.23,0,0,1,1.86-.41,3.75,3.75,0,0,1,2.62.87,3.07,3.07,0,0,1,.95,2.37v5.17H78.34v-1.17h-.07a2.76,2.76,0,0,1-1,1,3,3,0,0,1-1.59.42A3.58,3.58,0,0,1,74,351.25Zm3-1.2a2.67,2.67,0,0,0,.94-.95,2.41,2.41,0,0,0,.36-1.29,3.63,3.63,0,0,0-1-.42,4.15,4.15,0,0,0-1.18-.16,2.62,2.62,0,0,0-1.69.47,1.45,1.45,0,0,0-.57,1.19,1.33,1.33,0,0,0,.51,1.09,2,2,0,0,0,1.3.42A2.49,2.49,0,0,0,77,350.05Z"/><path d="M81.52,343.18h1.3v1.2h.06a2.73,2.73,0,0,1,1.07-1,3.11,3.11,0,0,1,1.57-.42,2.89,2.89,0,0,1,2.25.85,3.33,3.33,0,0,1,.77,2.33v5.23H87.18v-5a2.18,2.18,0,0,0-.54-1.65,2.09,2.09,0,0,0-1.49-.51,1.92,1.92,0,0,0-1.17.37,2.37,2.37,0,0,0-.81,1,2.91,2.91,0,0,0-.29,1.26v4.59H81.52Z"/><path d="M92.06,351a4,4,0,0,1-1.47-1.55,4.91,4.91,0,0,1,0-4.44,3.85,3.85,0,0,1,1.47-1.55,4,4,0,0,1,2.13-.56,3.85,3.85,0,0,1,2.23.61,3.31,3.31,0,0,1,1.29,1.64l-1.23.52a2.34,2.34,0,0,0-.9-1.15,2.62,2.62,0,0,0-1.45-.39,2.52,2.52,0,0,0-1.35.39,2.88,2.88,0,0,0-1,1.1,3.71,3.71,0,0,0,0,3.23,2.85,2.85,0,0,0,1,1.09,2.45,2.45,0,0,0,1.35.4,2.79,2.79,0,0,0,1.49-.4,2.43,2.43,0,0,0,.92-1.14l1.22.51A3.55,3.55,0,0,1,96.42,351a3.83,3.83,0,0,1-2.23.63A4,4,0,0,1,92.06,351Z"/><path d="M100.69,351a3.87,3.87,0,0,1-1.45-1.55,4.59,4.59,0,0,1-.52-2.21,4.81,4.81,0,0,1,.49-2.18,3.85,3.85,0,0,1,1.38-1.58,3.65,3.65,0,0,1,2.08-.59,4,4,0,0,1,2.08.53,3.51,3.51,0,0,1,1.35,1.48,4.7,4.7,0,0,1,.48,2.16,1.73,1.73,0,0,1,0,.42h-6.45a3.19,3.19,0,0,0,.45,1.57,2.65,2.65,0,0,0,1,1,2.8,2.8,0,0,0,1.29.32,2.65,2.65,0,0,0,2.42-1.48l1.15.56A4,4,0,0,1,105,351a4.3,4.3,0,0,1-4.28,0Zm4.45-4.64a2.91,2.91,0,0,0-.29-1,2.21,2.21,0,0,0-.81-.86,2.57,2.57,0,0,0-1.38-.35,2.27,2.27,0,0,0-1.63.62,3,3,0,0,0-.87,1.62Z"/><path d="M108.16,343.18h1.3v1.31h.06a2.26,2.26,0,0,1,.93-1.12,2.67,2.67,0,0,1,1.44-.44,2.53,2.53,0,0,1,1,.17v1.46a2.56,2.56,0,0,0-1.15-.26,1.85,1.85,0,0,0-1.09.34,2.34,2.34,0,0,0-.79.91,2.53,2.53,0,0,0-.3,1.22v4.57h-1.36Z"/><path d="M118.5,344.41H117v-1.23h1.51v-.88a2.44,2.44,0,0,1,1.29-2.23,2.75,2.75,0,0,1,1.31-.31,3.36,3.36,0,0,1,1.2.19v1.33a5,5,0,0,0-.54-.19,2.63,2.63,0,0,0-.61-.07,1.27,1.27,0,0,0-.91.38,1.39,1.39,0,0,0-.39,1.05v.73H122v1.23h-2.1v6.93H118.5Z"/><path d="M124.72,351a4,4,0,0,1-1.5-1.57,4.79,4.79,0,0,1,0-4.38,4.17,4.17,0,0,1,7.32,0,4.79,4.79,0,0,1,0,4.38A4,4,0,0,1,129,351a4.31,4.31,0,0,1-4.32,0Zm3.56-1a2.77,2.77,0,0,0,1-1.08,3.35,3.35,0,0,0,.39-1.65,3.29,3.29,0,0,0-.39-1.64,2.87,2.87,0,0,0-1-1.09,2.74,2.74,0,0,0-1.4-.37,2.75,2.75,0,0,0-2.46,1.46,3.29,3.29,0,0,0-.39,1.64,3.35,3.35,0,0,0,.39,1.65,2.73,2.73,0,0,0,1,1.08,2.81,2.81,0,0,0,1.41.38A2.75,2.75,0,0,0,128.28,350Z"/><path d="M132.5,343.18h1.29v1.31h.07a2.24,2.24,0,0,1,.92-1.12,2.67,2.67,0,0,1,1.44-.44,2.46,2.46,0,0,1,1,.17v1.46a2.53,2.53,0,0,0-1.15-.26,1.87,1.87,0,0,0-1.09.34,2.42,2.42,0,0,0-.79.91,2.53,2.53,0,0,0-.29,1.22v4.57H132.5Z"/><path d="M144.42,351.44a2.19,2.19,0,0,1-.71-.44,2.16,2.16,0,0,1-.48-.72,2.63,2.63,0,0,1-.16-1v-4.88h-1.42v-1.23h1.42v-2.3h1.36v2.3h2v1.23h-2V349a1.66,1.66,0,0,0,.26,1,1.1,1.1,0,0,0,.88.35,1.63,1.63,0,0,0,.89-.27v1.33a1.81,1.81,0,0,1-.48.16,3.69,3.69,0,0,1-.64.05A2.78,2.78,0,0,1,144.42,351.44Z"/><path d="M148.14,339.89h1.36v3.37l-.06,1.12h.06a2.75,2.75,0,0,1,1.07-1,3.19,3.19,0,0,1,1.59-.41,2.9,2.9,0,0,1,2.27.87,3.33,3.33,0,0,1,.78,2.31v5.23h-1.36v-5a2.11,2.11,0,0,0-.56-1.63,2,2,0,0,0-1.45-.53,2,2,0,0,0-1.18.38,2.91,2.91,0,0,0-.85,1,2.87,2.87,0,0,0-.31,1.27v4.54h-1.36Z"/><path d="M158.7,351a3.78,3.78,0,0,1-1.44-1.55,4.59,4.59,0,0,1-.52-2.21,4.94,4.94,0,0,1,.48-2.18,4,4,0,0,1,1.39-1.58,3.63,3.63,0,0,1,2.08-.59,4,4,0,0,1,2.08.53,3.65,3.65,0,0,1,1.35,1.48,4.83,4.83,0,0,1,.47,2.16,1.34,1.34,0,0,1-.05.42H158.1a3.29,3.29,0,0,0,.44,1.57,2.75,2.75,0,0,0,1,1,2.8,2.8,0,0,0,1.29.32,2.64,2.64,0,0,0,2.41-1.48l1.16.56A4,4,0,0,1,163,351a3.92,3.92,0,0,1-2.18.58A4,4,0,0,1,158.7,351Zm4.45-4.64a2.72,2.72,0,0,0-.29-1,2.26,2.26,0,0,0-.8-.86,2.58,2.58,0,0,0-1.39-.35,2.25,2.25,0,0,0-1.62.62,2.86,2.86,0,0,0-.87,1.62Z"/><path d="M169,343.18h1.46l2.53,6.56h0l2.56-6.56H177l-3.33,8.16h-1.37Z"/><path d="M180.45,342.3l-1.92,1.38-.71-1,3.12-2.24h.87v10.94h-1.36Z"/><path d="M188.56,351a3.36,3.36,0,0,1-1.25-1.57l1.22-.55a2.45,2.45,0,0,0,.9,1.14,2.3,2.3,0,0,0,1.32.4,2.67,2.67,0,0,0,1.31-.31,1,1,0,0,0,.11-1.72,4.11,4.11,0,0,0-1.36-.53l-1-.26a3.62,3.62,0,0,1-1.6-.81A2.07,2.07,0,0,1,188,344a2.82,2.82,0,0,1,1.13-.83,4,4,0,0,1,1.52-.28,3.86,3.86,0,0,1,1.91.46,2.59,2.59,0,0,1,1.19,1.3l-1.18.54a2,2,0,0,0-1.94-1.09,2.24,2.24,0,0,0-1.17.31.93.93,0,0,0-.51.8.86.86,0,0,0,.36.72,2.72,2.72,0,0,0,1,.46l1.19.31a3.8,3.8,0,0,1,1.8.9,2,2,0,0,1,.61,1.46,2.11,2.11,0,0,1-.43,1.32,2.73,2.73,0,0,1-1.17.87,4.08,4.08,0,0,1-1.63.31A3.75,3.75,0,0,1,188.56,351Z"/><path d="M196.18,350.74a3.5,3.5,0,0,1-.77-2.42v-5.14h1.36v4.93a2.38,2.38,0,0,0,.52,1.71,1.89,1.89,0,0,0,1.43.55,2.14,2.14,0,0,0,1.22-.37,2.48,2.48,0,0,0,.83-1,2.74,2.74,0,0,0,.3-1.25v-4.61h1.36v8.16h-1.3v-1.18h-.06a2.64,2.64,0,0,1-1.07,1,3.13,3.13,0,0,1-1.57.42A2.89,2.89,0,0,1,196.18,350.74Z"/><path d="M206.92,351.17a2.85,2.85,0,0,1-1.11-1h-.07v1.2h-1.29V339.89h1.36v3.37l-.07,1.14h.07a2.82,2.82,0,0,1,1.11-1,3.31,3.31,0,0,1,1.67-.42,3.57,3.57,0,0,1,2,.56A3.85,3.85,0,0,1,212,345a5.11,5.11,0,0,1,0,4.45,3.85,3.85,0,0,1-1.41,1.55,3.65,3.65,0,0,1-2,.56A3.22,3.22,0,0,1,206.92,351.17Zm2.84-1.19a2.78,2.78,0,0,0,1-1.09,3.46,3.46,0,0,0,.37-1.63,3.42,3.42,0,0,0-.37-1.62,2.81,2.81,0,0,0-1-1.1,2.52,2.52,0,0,0-2.66,0,2.83,2.83,0,0,0-1,1.09,3.78,3.78,0,0,0,0,3.26,2.76,2.76,0,0,0,1,1.09,2.46,2.46,0,0,0,2.66,0Z"/><path d="M214.65,351a3.34,3.34,0,0,1-1.24-1.57l1.21-.55a2.47,2.47,0,0,0,.91,1.14,2.3,2.3,0,0,0,1.32.4,2.67,2.67,0,0,0,1.31-.31,1,1,0,0,0,.11-1.72,4.21,4.21,0,0,0-1.36-.53l-1-.26a3.57,3.57,0,0,1-1.6-.81,1.93,1.93,0,0,1-.63-1.49,2,2,0,0,1,.43-1.24,2.76,2.76,0,0,1,1.13-.83,4,4,0,0,1,1.52-.28,3.88,3.88,0,0,1,1.91.46,2.59,2.59,0,0,1,1.19,1.3l-1.18.54a2,2,0,0,0-1.94-1.09,2.28,2.28,0,0,0-1.18.31.94.94,0,0,0-.5.8.87.87,0,0,0,.35.72,2.85,2.85,0,0,0,1.06.46l1.18.31a3.89,3.89,0,0,1,1.81.9,2,2,0,0,1,.61,1.46,2.17,2.17,0,0,1-.43,1.32,2.73,2.73,0,0,1-1.17.87,4.12,4.12,0,0,1-1.63.31A3.76,3.76,0,0,1,214.65,351Z"/><path d="M223.18,351a3.87,3.87,0,0,1-1.45-1.55,4.71,4.71,0,0,1-.52-2.21,5,5,0,0,1,.49-2.18,4,4,0,0,1,1.39-1.58,3.63,3.63,0,0,1,2.08-.59,4,4,0,0,1,2.08.53,3.65,3.65,0,0,1,1.35,1.48,4.83,4.83,0,0,1,.47,2.16,1.73,1.73,0,0,1,0,.42h-6.45a3.29,3.29,0,0,0,.45,1.57,2.75,2.75,0,0,0,1,1,2.8,2.8,0,0,0,1.29.32,2.64,2.64,0,0,0,2.41-1.48l1.15.56a4,4,0,0,1-1.43,1.57,3.92,3.92,0,0,1-2.18.58A4,4,0,0,1,223.18,351Zm4.45-4.64a2.72,2.72,0,0,0-.29-1,2.21,2.21,0,0,0-.81-.86,2.55,2.55,0,0,0-1.38-.35,2.25,2.25,0,0,0-1.62.62,2.93,2.93,0,0,0-.88,1.62Z"/><path d="M232.63,351.44a2.19,2.19,0,0,1-.71-.44,1.9,1.9,0,0,1-.48-.72,2.63,2.63,0,0,1-.16-1v-4.88h-1.43v-1.23h1.43v-2.3h1.36v2.3h2v1.23h-2V349a1.67,1.67,0,0,0,.25,1,1.13,1.13,0,0,0,.88.35,1.68,1.68,0,0,0,.9-.27v1.33a1.76,1.76,0,0,1-.49.16,3.48,3.48,0,0,1-.63.05A2.73,2.73,0,0,1,232.63,351.44Z"/><path d="M241.58,351a3.89,3.89,0,0,1-1.49-1.57,4.71,4.71,0,0,1,0-4.38,4,4,0,0,1,1.49-1.57,4.17,4.17,0,0,1,5.82,1.57,4.79,4.79,0,0,1,0,4.38,4,4,0,0,1-1.5,1.57,4.31,4.31,0,0,1-4.32,0Zm3.56-1a2.77,2.77,0,0,0,1-1.08,3.35,3.35,0,0,0,.39-1.65,3.29,3.29,0,0,0-.39-1.64,2.87,2.87,0,0,0-1-1.09,2.74,2.74,0,0,0-1.4-.37,2.8,2.8,0,0,0-1.41.37,2.87,2.87,0,0,0-1,1.09,3.19,3.19,0,0,0-.4,1.64,3.25,3.25,0,0,0,.4,1.65,2.77,2.77,0,0,0,1,1.08,2.81,2.81,0,0,0,1.41.38A2.75,2.75,0,0,0,245.14,350Z"/><path d="M250.22,344.41h-1.5v-1.23h1.5v-.88a2.55,2.55,0,0,1,.35-1.34,2.46,2.46,0,0,1,1-.89,2.72,2.72,0,0,1,1.31-.31,3.36,3.36,0,0,1,1.2.19v1.33a5,5,0,0,0-.54-.19,2.77,2.77,0,0,0-.61-.07,1.25,1.25,0,0,0-.91.38,1.39,1.39,0,0,0-.39,1.05v.73h2.1v1.23h-2.1v6.93h-1.36Z"/><path d="M261.55,350.83l-3.38-7.65h1.48l2.56,6.07h0l2.46-6.07h1.47l-5,11.62h-1.4Z"/><path d="M268.59,351a4,4,0,0,1-1.5-1.57,4.79,4.79,0,0,1,0-4.38,4.17,4.17,0,0,1,7.32,0,4.79,4.79,0,0,1,0,4.38,4,4,0,0,1-1.5,1.57,4.31,4.31,0,0,1-4.32,0Zm3.56-1a2.77,2.77,0,0,0,1-1.08,3.35,3.35,0,0,0,.39-1.65,3.29,3.29,0,0,0-.39-1.64,2.87,2.87,0,0,0-1-1.09,2.74,2.74,0,0,0-1.4-.37,2.75,2.75,0,0,0-2.46,1.46,3.29,3.29,0,0,0-.39,1.64,3.35,3.35,0,0,0,.39,1.65,2.73,2.73,0,0,0,1,1.08,2.81,2.81,0,0,0,1.41.38A2.75,2.75,0,0,0,272.15,350Z"/><path d="M277.16,350.74a3.5,3.5,0,0,1-.78-2.42v-5.14h1.36v4.93a2.38,2.38,0,0,0,.53,1.71,1.87,1.87,0,0,0,1.42.55,2.17,2.17,0,0,0,1.23-.37,2.66,2.66,0,0,0,.83-1,2.74,2.74,0,0,0,.3-1.25v-4.61h1.36v8.16h-1.3v-1.18h-.06a2.74,2.74,0,0,1-1.08,1,3.1,3.1,0,0,1-1.56.42A2.87,2.87,0,0,1,277.16,350.74Z"/><path d="M285.42,343.18h1.3v1.31h.06a2.26,2.26,0,0,1,.93-1.12,2.67,2.67,0,0,1,1.44-.44,2.53,2.53,0,0,1,1,.17v1.46a2.56,2.56,0,0,0-1.15-.26,1.85,1.85,0,0,0-1.09.34,2.34,2.34,0,0,0-.79.91,2.53,2.53,0,0,0-.3,1.22v4.57h-1.36Z"/><path d="M295.79,351a3.36,3.36,0,0,1-1.25-1.57l1.22-.55a2.45,2.45,0,0,0,.9,1.14,2.3,2.3,0,0,0,1.32.4,2.67,2.67,0,0,0,1.31-.31,1,1,0,0,0,.11-1.72,4.11,4.11,0,0,0-1.36-.53l-1-.26a3.62,3.62,0,0,1-1.6-.81,2.07,2.07,0,0,1-.2-2.73,2.82,2.82,0,0,1,1.13-.83,4,4,0,0,1,1.52-.28,3.86,3.86,0,0,1,1.91.46,2.59,2.59,0,0,1,1.19,1.3l-1.18.54a2,2,0,0,0-1.94-1.09,2.24,2.24,0,0,0-1.17.31.92.92,0,0,0-.5.8.85.85,0,0,0,.35.72,2.72,2.72,0,0,0,1.05.46l1.19.31a3.8,3.8,0,0,1,1.8.9,2,2,0,0,1,.61,1.46,2.11,2.11,0,0,1-.43,1.32,2.73,2.73,0,0,1-1.17.87,4.08,4.08,0,0,1-1.63.31A3.75,3.75,0,0,1,295.79,351Z"/><path d="M304.32,351a3.81,3.81,0,0,1-1.45-1.55,4.59,4.59,0,0,1-.52-2.21,4.81,4.81,0,0,1,.49-2.18,3.85,3.85,0,0,1,1.38-1.58,3.65,3.65,0,0,1,2.08-.59,4,4,0,0,1,2.08.53,3.51,3.51,0,0,1,1.35,1.48,4.7,4.7,0,0,1,.47,2.16,1.76,1.76,0,0,1,0,.42h-6.45a3.19,3.19,0,0,0,.45,1.57,2.65,2.65,0,0,0,1,1,2.8,2.8,0,0,0,1.29.32,2.65,2.65,0,0,0,2.42-1.48l1.15.56A4,4,0,0,1,308.6,351a4.3,4.3,0,0,1-4.28,0Zm4.44-4.64a2.7,2.7,0,0,0-.28-1,2.21,2.21,0,0,0-.81-.86,2.58,2.58,0,0,0-1.39-.35,2.25,2.25,0,0,0-1.62.62,3,3,0,0,0-.87,1.62Z"/><path d="M311.79,343.18h1.29v1.31h.07a2.26,2.26,0,0,1,.93-1.12,2.62,2.62,0,0,1,1.44-.44,2.53,2.53,0,0,1,1,.17v1.46a2.6,2.6,0,0,0-1.16-.26,1.84,1.84,0,0,0-1.08.34,2.44,2.44,0,0,0-.8.91,2.64,2.64,0,0,0-.29,1.22v4.57h-1.36Z"/><path d="M317.16,343.18h1.46l2.53,6.56h0l2.56-6.56h1.42l-3.32,8.16h-1.38Z"/><path d="M326.4,341.41a.92.92,0,0,1-.29-.69.89.89,0,0,1,.29-.68,1,1,0,0,1,1.66.68,1,1,0,0,1-1,1A.94.94,0,0,1,326.4,341.41Zm0,1.77h1.35v8.16h-1.35Z"/><path d="M331.39,351a4,4,0,0,1-1.47-1.55,4.91,4.91,0,0,1,0-4.44,3.85,3.85,0,0,1,1.47-1.55,4,4,0,0,1,2.13-.56,3.87,3.87,0,0,1,2.23.61,3.42,3.42,0,0,1,1.29,1.64l-1.24.52a2.34,2.34,0,0,0-.9-1.15,2.6,2.6,0,0,0-1.45-.39,2.46,2.46,0,0,0-1.34.39,2.81,2.81,0,0,0-1,1.1,3.62,3.62,0,0,0,0,3.23,2.78,2.78,0,0,0,1,1.09,2.39,2.39,0,0,0,1.34.4,2.76,2.76,0,0,0,1.49-.4,2.39,2.39,0,0,0,.93-1.14l1.21.51a3.53,3.53,0,0,1-1.33,1.63,3.87,3.87,0,0,1-2.23.63A4,4,0,0,1,331.39,351Z"/><path d="M340,351a3.87,3.87,0,0,1-1.45-1.55,4.71,4.71,0,0,1-.52-2.21,5,5,0,0,1,.49-2.18,4,4,0,0,1,1.39-1.58,3.63,3.63,0,0,1,2.08-.59,4,4,0,0,1,2.08.53,3.65,3.65,0,0,1,1.35,1.48,4.83,4.83,0,0,1,.47,2.16,1.73,1.73,0,0,1,0,.42H339.4a3.41,3.41,0,0,0,.45,1.57,2.75,2.75,0,0,0,1,1,2.8,2.8,0,0,0,1.29.32,2.64,2.64,0,0,0,2.41-1.48l1.15.56a4,4,0,0,1-1.43,1.57,3.92,3.92,0,0,1-2.18.58A4,4,0,0,1,340,351Zm4.45-4.64a2.72,2.72,0,0,0-.29-1,2.21,2.21,0,0,0-.81-.86,2.52,2.52,0,0,0-1.38-.35,2.25,2.25,0,0,0-1.62.62,2.93,2.93,0,0,0-.88,1.62Z"/><path d="M347.65,351.06a.94.94,0,0,1-.29-.69.92.92,0,0,1,.29-.68,1,1,0,0,1,.73-.28,1,1,0,0,1,.71.28.9.9,0,0,1,.3.68.92.92,0,0,1-.3.69,1,1,0,0,1-.71.28A1,1,0,0,1,347.65,351.06Z"/><line class="e0b55aeb-7156-4791-b2cc-f109150c3c91" x1="16" y1="232.14" x2="19" y2="232.14"/><line class="bcb97d74-ab80-4304-b68c-5df91cb1097e" x1="31" y1="232.14" x2="151" y2="232.14"/><line class="e0b55aeb-7156-4791-b2cc-f109150c3c91" x1="157" y1="232.14" x2="160" y2="232.14"/><text class="bb8771de-dc11-423e-ba90-ddcd42c1d3d2" transform="translate(16 260.09)"><tspan class="b4d2dd9d-279d-4579-a757-3a03e4a6ed31">R</tspan><tspan class="e1415078-b06d-4ec3-9ffc-4a6ad92f72c6" x="9.22" y="0">o</tspan><tspan class="a36b9b26-bc12-420f-998a-f39b325f84e9" x="18.67" y="0">u</tspan><tspan class="ece307e2-64be-4b43-82bb-a512eafe8d8b" x="27.73" y="0">t</tspan><tspan x="33.23" y="0">e </tspan><tspan class="a4162be4-a7e7-4bf5-ab47-cc39ceefa3c6" x="45.95" y="0">o</tspan><tspan x="55.25" y="0">f in</tspan><tspan class="b5050ba1-af06-4954-9a1e-52274885aa9a" x="77.62" y="0">c</tspan><tspan class="acf06cd7-8d30-4d54-891a-400f2be11748" x="86.27" y="0">o</tspan><tspan x="95.65" y="0">mi</tspan><tspan class="b5050ba1-af06-4954-9a1e-52274885aa9a" x="113.26" y="0">n</tspan><tspan x="122.16" y="0">g t</tspan><tspan class="b630a9e9-9524-47d3-99dd-4a9665a3b07b" x="141.28" y="0">r</tspan><tspan class="acf06cd7-8d30-4d54-891a-400f2be11748" x="146.96" y="0">a</tspan><tspan class="b5050ba1-af06-4954-9a1e-52274885aa9a" x="155.29" y="0">ffi</tspan><tspan x="169.77" y="0">c </tspan><tspan class="b5050ba1-af06-4954-9a1e-52274885aa9a" x="182.22" y="0">c</tspan><tspan class="b4d2dd9d-279d-4579-a757-3a03e4a6ed31" x="190.88" y="0">onf</tspan><tspan class="b5050ba1-af06-4954-9a1e-52274885aa9a" x="209.07" y="0">ig</tspan><tspan x="227.97" y="0">u</tspan><tspan class="f9d11889-b418-465a-8f1e-30e2fc8eace4" x="236.94" y="0">r</tspan><tspan class="a6c76839-f9ad-47c7-b55f-0f0ff06c16b4" x="242.46" y="0">e</tspan><tspan x="251.55" y="0">d</tspan><tspan class="bf51ead8-945a-4b4b-acba-c4b16c4c8bcb" x="0" y="19.2">t</tspan><tspan class="a4645198-5f80-4935-a192-6627ffc5665d" x="5.5" y="19.2">o </tspan><tspan class="b5050ba1-af06-4954-9a1e-52274885aa9a" x="18.75" y="19.2">u</tspan><tspan class="a36b9b26-bc12-420f-998a-f39b325f84e9" x="27.65" y="19.2">s</tspan><tspan x="35.3" y="19.2">e a </tspan><tspan class="e1415078-b06d-4ec3-9ffc-4a6ad92f72c6" x="60.22" y="19.2">s</tspan><tspan class="a4645198-5f80-4935-a192-6627ffc5665d" x="67.71" y="19.2">im</tspan><tspan class="acf06cd7-8d30-4d54-891a-400f2be11748" x="85.33" y="19.2">p</tspan><tspan class="e1415078-b06d-4ec3-9ffc-4a6ad92f72c6" x="94.74" y="19.2">l</tspan><tspan x="98.03" y="19.2">e </tspan><tspan class="b630a9e9-9524-47d3-99dd-4a9665a3b07b" x="110.75" y="19.2">r</tspan><tspan x="116.43" y="19.2">an</tspan><tspan class="b5050ba1-af06-4954-9a1e-52274885aa9a" x="133.9" y="19.2">d</tspan><tspan class="b4d2dd9d-279d-4579-a757-3a03e4a6ed31" x="143.46" y="19.2">o</tspan><tspan x="152.83" y="19.2">m </tspan><tspan class="e1415078-b06d-4ec3-9ffc-4a6ad92f72c6" x="170.54" y="19.2">l</tspan><tspan x="173.84" y="19.2">o</tspan><tspan class="e1415078-b06d-4ec3-9ffc-4a6ad92f72c6" x="183.38" y="19.2">a</tspan><tspan x="191.79" y="19.2">d ba</tspan><tspan class="b5050ba1-af06-4954-9a1e-52274885aa9a" x="223.26" y="19.2">l</tspan><tspan class="f60f5bf4-5d26-4b6b-b9bd-c59fb813f398" x="226.56" y="19.2">an</tspan><tspan class="e1415078-b06d-4ec3-9ffc-4a6ad92f72c6" x="244.03" y="19.2">c</tspan><tspan x="252.69" y="19.2">e</tspan><tspan class="efcaccd8-f3f7-4ccf-8c8a-180fee43f0ac" x="261.69" y="19.2">r</tspan><tspan class="f60f5bf4-5d26-4b6b-b9bd-c59fb813f398" x="266.25" y="19.2">. </tspan></text><rect class="f0807518-91a3-4a98-89b9-49dc95529edc" x="295.25" y="34" width="197.65" height="198.14" rx="3"/><rect class="e895bbc3-f942-46ba-8df7-4230ae6a6d7f" x="303.9" y="43" width="54" height="54" rx="3"/><polygon class="b4b1cfd3-0510-4fb5-b420-8f218f0b5d00" points="344.16 77.65 344.16 62.35 330.9 54.7 317.64 62.35 317.64 77.65 330.9 85.3 344.16 77.65"/><rect class="e895bbc3-f942-46ba-8df7-4230ae6a6d7f" x="366.9" y="43" width="117" height="54" rx="3"/><text class="fdf7712b-ceb6-4336-a702-84de2e7b7476" transform="translate(417.17 74.84)"><tspan class="bb6ac156-59b8-411b-9c0b-5e7d623e59ca">m</tspan><tspan class="a15f2a9e-ca40-4aca-befb-1fef09cb0de2" x="12.05" y="0">y-s</tspan><tspan class="a9a3f9bf-966c-4c24-b7f9-053571bc680f" x="32.07" y="0">v</tspan><tspan x="39.06" y="0">c v1</tspan></text><circle class="a9093ac6-efed-4a81-bd46-6b16ca5df883" cx="393.9" cy="70" r="18"/><rect class="f2180b93-0dc4-42b0-a90b-580ec46075a4" x="387.51" y="63.49" width="12.79" height="12.79"/><line class="bc0e211a-309c-49b0-bb77-e39115e58123" x1="389.87" y1="63.49" x2="389.87" y2="60.41"/><line class="bc0e211a-309c-49b0-bb77-e39115e58123" x1="393.9" y1="63.49" x2="393.9" y2="60.41"/><line class="bc0e211a-309c-49b0-bb77-e39115e58123" x1="397.93" y1="63.49" x2="397.93" y2="60.41"/><line class="bc0e211a-309c-49b0-bb77-e39115e58123" x1="389.87" y1="79.59" x2="389.87" y2="76.51"/><line class="bc0e211a-309c-49b0-bb77-e39115e58123" x1="393.9" y1="79.59" x2="393.9" y2="76.51"/><line class="bc0e211a-309c-49b0-bb77-e39115e58123" x1="397.93" y1="79.59" x2="397.93" y2="76.51"/><line class="bc0e211a-309c-49b0-bb77-e39115e58123" x1="387.39" y1="74.03" x2="384.31" y2="74.03"/><line class="bc0e211a-309c-49b0-bb77-e39115e58123" x1="387.39" y1="70" x2="384.31" y2="70"/><line class="bc0e211a-309c-49b0-bb77-e39115e58123" x1="387.39" y1="65.97" x2="384.31" y2="65.97"/><line class="bc0e211a-309c-49b0-bb77-e39115e58123" x1="403.49" y1="74.03" x2="400.41" y2="74.03"/><line class="bc0e211a-309c-49b0-bb77-e39115e58123" x1="403.49" y1="70" x2="400.41" y2="70"/><line class="bc0e211a-309c-49b0-bb77-e39115e58123" x1="403.49" y1="65.97" x2="400.41" y2="65.97"/><rect class="e895bbc3-f942-46ba-8df7-4230ae6a6d7f" x="391.06" y="67.04" width="5.68" height="5.68" rx="2"/><rect class="e895bbc3-f942-46ba-8df7-4230ae6a6d7f" x="303.9" y="106" width="54" height="54" rx="3"/><polygon class="b4b1cfd3-0510-4fb5-b420-8f218f0b5d00" points="344.16 140.65 344.16 125.35 330.9 117.7 317.64 125.35 317.64 140.65 330.9 148.3 344.16 140.65"/><rect class="e895bbc3-f942-46ba-8df7-4230ae6a6d7f" x="366.9" y="106" width="117" height="54" rx="3"/><text class="fdf7712b-ceb6-4336-a702-84de2e7b7476" transform="translate(416.15 137.84)"><tspan class="bb6ac156-59b8-411b-9c0b-5e7d623e59ca">m</tspan><tspan x="12.05" y="0">y-s</tspan><tspan class="a9a3f9bf-966c-4c24-b7f9-053571bc680f" x="32.07" y="0">v</tspan><tspan x="39.06" y="0">c v2</tspan></text><circle class="a9093ac6-efed-4a81-bd46-6b16ca5df883" cx="393.9" cy="133" r="18"/><rect class="f2180b93-0dc4-42b0-a90b-580ec46075a4" x="387.51" y="126.49" width="12.79" height="12.79"/><line class="bc0e211a-309c-49b0-bb77-e39115e58123" x1="389.87" y1="126.49" x2="389.87" y2="123.41"/><line class="bc0e211a-309c-49b0-bb77-e39115e58123" x1="393.9" y1="126.49" x2="393.9" y2="123.41"/><line class="bc0e211a-309c-49b0-bb77-e39115e58123" x1="397.93" y1="126.49" x2="397.93" y2="123.41"/><line class="bc0e211a-309c-49b0-bb77-e39115e58123" x1="389.87" y1="142.59" x2="389.87" y2="139.51"/><line class="bc0e211a-309c-49b0-bb77-e39115e58123" x1="393.9" y1="142.59" x2="393.9" y2="139.51"/><line class="bc0e211a-309c-49b0-bb77-e39115e58123" x1="397.93" y1="142.59" x2="397.93" y2="139.51"/><line class="bc0e211a-309c-49b0-bb77-e39115e58123" x1="387.39" y1="137.03" x2="384.31" y2="137.03"/><line class="bc0e211a-309c-49b0-bb77-e39115e58123" x1="387.39" y1="133" x2="384.31" y2="133"/><line class="bc0e211a-309c-49b0-bb77-e39115e58123" x1="387.39" y1="128.97" x2="384.31" y2="128.97"/><line class="bc0e211a-309c-49b0-bb77-e39115e58123" x1="403.49" y1="137.03" x2="400.41" y2="137.03"/><line class="bc0e211a-309c-49b0-bb77-e39115e58123" x1="403.49" y1="133" x2="400.41" y2="133"/><line class="bc0e211a-309c-49b0-bb77-e39115e58123" x1="403.49" y1="128.97" x2="400.41" y2="128.97"/><rect class="e895bbc3-f942-46ba-8df7-4230ae6a6d7f" x="391.06" y="130.04" width="5.68" height="5.68" rx="2"/><rect class="e895bbc3-f942-46ba-8df7-4230ae6a6d7f" x="303.9" y="169" width="54" height="54" rx="3"/><polygon class="b4b1cfd3-0510-4fb5-b420-8f218f0b5d00" points="344.16 203.65 344.16 188.35 330.9 180.7 317.64 188.35 317.64 203.65 330.9 211.3 344.16 203.65"/><rect class="e895bbc3-f942-46ba-8df7-4230ae6a6d7f" x="366.9" y="169" width="117" height="54" rx="3"/><text class="fdf7712b-ceb6-4336-a702-84de2e7b7476" transform="translate(416.08 200.84)"><tspan class="bb6ac156-59b8-411b-9c0b-5e7d623e59ca">m</tspan><tspan x="12.05" y="0">y-s</tspan><tspan class="a9a3f9bf-966c-4c24-b7f9-053571bc680f" x="32.07" y="0">v</tspan><tspan x="39.06" y="0">c v3</tspan></text><circle class="a9093ac6-efed-4a81-bd46-6b16ca5df883" cx="393.9" cy="196" r="18"/><rect class="f2180b93-0dc4-42b0-a90b-580ec46075a4" x="387.51" y="189.49" width="12.79" height="12.79"/><line class="bc0e211a-309c-49b0-bb77-e39115e58123" x1="389.87" y1="189.49" x2="389.87" y2="186.41"/><line class="bc0e211a-309c-49b0-bb77-e39115e58123" x1="393.9" y1="189.49" x2="393.9" y2="186.41"/><line class="bc0e211a-309c-49b0-bb77-e39115e58123" x1="397.93" y1="189.49" x2="397.93" y2="186.41"/><line class="bc0e211a-309c-49b0-bb77-e39115e58123" x1="389.87" y1="205.59" x2="389.87" y2="202.51"/><line class="bc0e211a-309c-49b0-bb77-e39115e58123" x1="393.9" y1="205.59" x2="393.9" y2="202.51"/><line class="bc0e211a-309c-49b0-bb77-e39115e58123" x1="397.93" y1="205.59" x2="397.93" y2="202.51"/><line class="bc0e211a-309c-49b0-bb77-e39115e58123" x1="387.39" y1="200.03" x2="384.31" y2="200.03"/><line class="bc0e211a-309c-49b0-bb77-e39115e58123" x1="387.39" y1="196" x2="384.31" y2="196"/><line class="bc0e211a-309c-49b0-bb77-e39115e58123" x1="387.39" y1="191.97" x2="384.31" y2="191.97"/><line class="bc0e211a-309c-49b0-bb77-e39115e58123" x1="403.49" y1="200.03" x2="400.41" y2="200.03"/><line class="bc0e211a-309c-49b0-bb77-e39115e58123" x1="403.49" y1="196" x2="400.41" y2="196"/><line class="bc0e211a-309c-49b0-bb77-e39115e58123" x1="403.49" y1="191.97" x2="400.41" y2="191.97"/><rect class="e895bbc3-f942-46ba-8df7-4230ae6a6d7f" x="391.06" y="193.04" width="5.68" height="5.68" rx="2"/><line class="a3a4cf56-e011-4b4e-8059-1e84e612b6f9" x1="304" y1="52.14" x2="301" y2="52.14"/><line class="a30c413c-ec14-482f-ad92-5d3b9ac505c1" x1="289" y1="52.14" x2="151" y2="52.14"/><polyline class="a3a4cf56-e011-4b4e-8059-1e84e612b6f9" points="145 52.14 142 52.14 141.95 55.14"/><line class="a3a4cf56-e011-4b4e-8059-1e84e612b6f9" x1="141.79" y1="64.04" x2="141.74" y2="67.04"/><line class="f1e20ece-96f5-4726-9413-8bc31edc6a94" x1="304" y1="196" x2="301" y2="196"/><line class="e5edda7e-093a-4491-b69a-d33e8b409ebc" x1="289" y1="196" x2="187" y2="196"/><polyline class="f1e20ece-96f5-4726-9413-8bc31edc6a94" points="181 196 178 196 178 193"/><line class="a3388fd0-69f8-46a9-9b22-74c329370508" x1="178" y1="181.02" x2="178" y2="97.13"/><polyline class="f1e20ece-96f5-4726-9413-8bc31edc6a94" points="178 91.14 178 88.14 175 88.14"/><line class="e5edda7e-093a-4491-b69a-d33e8b409ebc" x1="163" y1="88.14" x2="151" y2="88.14"/><line class="f1e20ece-96f5-4726-9413-8bc31edc6a94" x1="145" y1="88.14" x2="142" y2="88.14"/><line class="fb7e032f-938c-421e-b1cb-0cf6bbbcc10f" x1="304" y1="133.14" x2="301" y2="133.14"/><line class="a3c79924-7a00-41d2-b117-62bd8a50245a" x1="290.29" y1="133.14" x2="231.36" y2="133.14"/><polyline class="fb7e032f-938c-421e-b1cb-0cf6bbbcc10f" points="226 133.14 223 133.14 223 130.14"/><line class="ada6fa44-5611-4eee-8310-b7cbcfbab16e" x1="223" y1="119.78" x2="223" y2="78.32"/><polyline class="fb7e032f-938c-421e-b1cb-0cf6bbbcc10f" points="223 73.14 223 70.14 220 70.14"/><line class="a3c79924-7a00-41d2-b117-62bd8a50245a" x1="209.29" y1="70.14" x2="150.36" y2="70.14"/><polyline class="fb7e032f-938c-421e-b1cb-0cf6bbbcc10f" points="145 70.14 142 70.14 141.95 73.14"/><line class="fb7e032f-938c-421e-b1cb-0cf6bbbcc10f" x1="141.79" y1="82.3" x2="141.74" y2="85.3"/><line class="e0b55aeb-7156-4791-b2cc-f109150c3c91" x1="12" y1="88.03" x2="15" y2="88.03"/><line class="ed163314-0319-4fd2-8da7-4a4cde96f80b" x1="27.4" y1="88.03" x2="132.8" y2="88.03"/><line class="e0b55aeb-7156-4791-b2cc-f109150c3c91" x1="139" y1="88.03" x2="142" y2="88.03"/></g></svg>