<?xml version="1.0" standalone="yes"?>

<svg version="1.1" viewBox="0.0 0.0 468.0 373.0" fill="none" stroke="none" stroke-linecap="square" stroke-miterlimit="10" xmlns="http://www.w3.org/2000/svg" xmlns:xlink="http://www.w3.org/1999/xlink"><clipPath id="p.0"><path d="m0 0l468.0 0l0 373.0l-468.0 0l0 -373.0z" clip-rule="nonzero"></path></clipPath><g clip-path="url(#p.0)"><path fill="#000000" fill-opacity="0.0" d="m0 0l468.0 0l0 373.0l-468.0 0z" fill-rule="evenodd"></path><path fill="#ffffff" d="m353.48 56.87008l0 0c8.633789 0 15.632843 6.999069 15.632843 15.632858l0 87.88389c0 4.1460876 -1.6470337 8.1223755 -4.578766 11.054108c-2.9317017 2.931717 -6.9079895 4.5787506 -11.054077 4.5787506l-62.52957 0c-8.633789 0 -15.632843 -6.999069 -15.632843 -15.632858l0 -87.88389l0 0c0 -8.633789 6.999054 -15.632858 15.632843 -15.632858z" fill-rule="evenodd"></path><path stroke="#7f7f7f" stroke-width="1.0" stroke-linejoin="round" stroke-linecap="butt" d="m353.48 56.87008l0 0c8.633789 0 15.632843 6.999069 15.632843 15.632858l0 87.88389c0 4.1460876 -1.6470337 8.1223755 -4.578766 11.054108c-2.9317017 2.931717 -6.9079895 4.5787506 -11.054077 4.5787506l-62.52957 0c-8.633789 0 -15.632843 -6.999069 -15.632843 -15.632858l0 -87.88389l0 0c0 -8.633789 6.999054 -15.632858 15.632843 -15.632858z" fill-rule="evenodd"></path><path fill="#ffffff" d="m108.7182 116.28724l0 0c11.277855 0 20.420364 9.142509 20.420364 20.420357l0 97.58449c0 5.4158173 -2.1514282 10.6098175 -5.9809875 14.439377c-3.8295593 3.8295593 -9.02356 5.9809723 -14.439377 5.9809723l-81.67897 0c-11.277851 0 -20.420357 -9.142502 -20.420357 -20.42035l0 -97.58449c0 -11.277847 9.142505 -20.420357 20.420357 -20.420357z" fill-rule="evenodd"></path><path stroke="#7f7f7f" stroke-width="1.0" stroke-linejoin="round" stroke-linecap="butt" d="m108.7182 116.28724l0 0c11.277855 0 20.420364 9.142509 20.420364 20.420357l0 97.58449c0 5.4158173 -2.1514282 10.6098175 -5.9809875 14.439377c-3.8295593 3.8295593 -9.02356 5.9809723 -14.439377 5.9809723l-81.67897 0c-11.277851 0 -20.420357 -9.142502 -20.420357 -20.42035l0 -97.58449c0 -11.277847 9.142505 -20.420357 20.420357 -20.420357z" fill-rule="evenodd"></path><path fill="#d9ead3" d="m18.608969 213.8525l88.15748 0l0 27.527557l-88.15748 0z" fill-rule="evenodd"></path><path fill="#000000" d="m52.669334 230.5569q0 -0.421875 -0.34375 -0.625q-0.328125 -0.21875 -1.125 -0.390625q-0.78125 -0.171875 -1.3125 -0.421875q-1.15625 -0.5625 -1.15625 -1.609375q0 -0.890625 0.75 -1.484375q0.75 -0.609375 1.90625 -0.609375q1.234375 0 1.984375 0.609375q0.765625 0.609375 0.765625 1.578125l-1.546875 0q0 -0.4375 -0.328125 -0.734375q-0.328125 -0.296875 -0.875 -0.296875q-0.515625 0 -0.84375 0.234375q-0.3125 0.234375 -0.3125 0.625q0 0.359375 0.296875 0.5625q0.3125 0.1875 1.21875 0.390625q0.90625 0.203125 1.421875 0.484375q0.515625 0.265625 0.765625 0.65625q0.25 0.390625 0.25 0.9375q0 0.9375 -0.765625 1.515625q-0.765625 0.5625 -2.015625 0.5625q-0.84375 0 -1.5 -0.296875q-0.65625 -0.3125 -1.03125 -0.84375q-0.375 -0.53125 -0.375 -1.15625l1.5 0q0.03125 0.546875 0.40625 0.84375q0.390625 0.296875 1.015625 0.296875q0.609375 0 0.921875 -0.21875q0.328125 -0.234375 0.328125 -0.609375zm5.456955 -0.09375l1.453125 -4.921875l1.59375 0l-2.390625 6.875l-1.328125 0l-2.40625 -6.875l1.59375 0l1.484375 4.921875zm6.9831085 0.84375q0.578125 0 0.953125 -0.328125q0.390625 -0.34375 0.421875 -0.828125l1.453125 0q-0.03125 0.640625 -0.40625 1.203125q-0.375 0.546875 -1.015625 0.875q-0.640625 0.3125 -1.390625 0.3125q-1.4375 0 -2.28125 -0.921875q-0.84375 -0.9375 -0.84375 -2.59375l0 -0.15625q0 -1.5625 0.828125 -2.5q0.84375 -0.953125 2.296875 -0.953125q1.21875 0 1.984375 0.71875q0.78125 0.71875 0.828125 1.875l-1.453125 0q-0.03125 -0.59375 -0.40625 -0.96875q-0.375 -0.375 -0.96875 -0.375q-0.75 0 -1.15625 0.546875q-0.40625 0.53125 -0.40625 1.640625l0 0.25q0 1.109375 0.390625 1.65625q0.40625 0.546875 1.171875 0.546875zm9.47644 -1.046875l-3.578125 0l-0.75 2.15625l-1.671875 0l3.5 -9.25l1.4375 0l3.5 9.25l-1.671875 0l-0.765625 -2.15625zm-3.125 -1.296875l2.671875 0l-1.328125 -3.828125l-1.34375 3.828125z" fill-rule="nonzero"></path><path fill="#cfe2f3" d="m19.397638 146.73491l86.58268 0l0 28.409454l-86.58268 0z" fill-rule="evenodd"></path><path fill="#000000" d="m51.22392 161.61462l-3.796875 0l0 2.84375l4.4375 0l0 1.28125l-6.046875 0l0 -9.25l6.0 0l0 1.296875l-4.390625 0l0 2.5625l3.796875 0l0 1.265625zm3.4111176 -2.75l0.046875 0.796875q0.765625 -0.921875 2.0 -0.921875q2.140625 0 2.1875 2.46875l0 4.53125l-1.546875 0l0 -4.453125q0 -0.65625 -0.28125 -0.96875q-0.28125 -0.3125 -0.921875 -0.3125q-0.9375 0 -1.390625 0.84375l0 4.890625l-1.546875 0l0 -6.875l1.453125 0zm8.412476 4.921875l1.4531288 -4.921875l1.59375 0l-2.3906288 6.875l-1.328125 0l-2.40625 -6.875l1.59375 0l1.484375 4.921875zm3.8737373 -1.546875q0 -1.0 0.390625 -1.8125q0.40625 -0.8125 1.125 -1.25q0.734375 -0.4375 1.671875 -0.4375q1.390625 0 2.25 0.90625q0.875 0.890625 0.9375 2.375l0.015625 0.359375q0 1.015625 -0.390625 1.8125q-0.390625 0.796875 -1.125 1.234375q-0.71875 0.4375 -1.671875 0.4375q-1.453125 0 -2.328125 -0.96875q-0.875 -0.96875 -0.875 -2.578125l0 -0.078125zm1.546875 0.140625q0 1.0625 0.4375 1.65625q0.4375 0.59375 1.21875 0.59375q0.78125 0 1.203125 -0.609375q0.4375 -0.609375 0.4375 -1.78125q0 -1.03125 -0.453125 -1.640625q-0.4375 -0.609375 -1.203125 -0.609375q-0.75 0 -1.203125 0.59375q-0.4375 0.59375 -0.4375 1.796875zm8.728806 1.15625l1.40625 -4.671875l1.640625 0l-2.734375 7.921875q-0.625 1.734375 -2.125 1.734375q-0.34375 0 -0.75 -0.125l0 -1.1875l0.296875 0.015625q0.578125 0 0.875 -0.21875q0.296875 -0.203125 0.46875 -0.703125l0.21875 -0.59375l-2.40625 -6.84375l1.65625 0l1.453125 4.671875z" fill-rule="nonzero"></path><path fill="#000000" fill-opacity="0.0" d="m38.688976 175.14436l0 38.70865" fill-rule="evenodd"></path><path stroke="#4f81bd" stroke-width="1.0" stroke-linejoin="round" stroke-linecap="butt" d="m38.688976 178.57144l0 35.28157" fill-rule="evenodd"></path><path fill="#4f81bd" stroke="#4f81bd" stroke-width="1.0" stroke-linecap="butt" d="m38.688976 178.57144l1.1245842 1.124588l-1.1245842 -3.0897675l-1.1245842 3.0897675z" fill-rule="evenodd"></path><path fill="#000000" fill-opacity="0.0" d="m7.7143674 115.26509l48.0 0l0 23.527557l-48.0 0z" fill-rule="evenodd"></path><path fill="#000000" d="m17.261242 127.627594l0 3.4375l-1.609374 0l0 -9.25l3.531249 0q1.5625 0 2.46875 0.8125q0.90625 0.8125 0.90625 2.140625q0 1.359375 -0.890625 2.109375q-0.890625 0.75 -2.5 0.75l-1.90625 0zm0 -1.28125l1.921875 0q0.859375 0 1.3125 -0.40625q0.453125 -0.40625 0.453125 -1.171875q0 -0.75 -0.46875 -1.1875q-0.453125 -0.453125 -1.25 -0.46875l-1.96875 0l0 3.234375zm6.471939 1.21875q0 -1.0 0.390625 -1.8125q0.40625 -0.8125 1.125 -1.25q0.734375 -0.4375 1.671875 -0.4375q1.390625 0 2.25 0.90625q0.875 0.890625 0.9375 2.375l0.015625 0.359375q0 1.015625 -0.390625 1.8125q-0.390625 0.796875 -1.125 1.234375q-0.71875 0.4375 -1.671875 0.4375q-1.453125 0 -2.328125 -0.96875q-0.875 -0.96875 -0.875 -2.578125l0 -0.078125zm1.546875 0.140625q0 1.0625 0.4375 1.65625q0.4375 0.59375 1.21875 0.59375q0.78125 0 1.203125 -0.609375q0.4375 -0.609375 0.4375 -1.78125q0 -1.03125 -0.453125 -1.640625q-0.4375 -0.609375 -1.203125 -0.609375q-0.75 0 -1.203125 0.59375q-0.4375 0.59375 -0.4375 1.796875zm6.0413055 -0.125q0 -1.59375 0.734375 -2.546875q0.734375 -0.96875 1.984375 -0.96875q1.078125 0 1.765625 0.765625l0 -3.515625l1.53125 0l0 9.75l-1.390625 0l-0.078125 -0.71875q-0.6875 0.84375 -1.84375 0.84375q-1.203125 0 -1.953125 -0.96875q-0.75 -0.96875 -0.75 -2.640625zm1.546875 0.125q0 1.0625 0.390625 1.65625q0.40625 0.578125 1.15625 0.578125q0.9375 0 1.390625 -0.84375l0 -2.9375q-0.4375 -0.828125 -1.375 -0.828125q-0.75 0 -1.15625 0.59375q-0.40625 0.59375 -0.40625 1.78125z" fill-rule="nonzero"></path><path fill="#000000" fill-opacity="0.0" d="m25.648064 254.7126l74.07874 0l0 23.527542l-74.07874 0z" fill-rule="evenodd"></path><path fill="#000000" d="m38.41369 268.1376q0 -0.609375 -0.4375 -0.9375q-0.421875 -0.34375 -1.546875 -0.671875q-1.109375 -0.34375 -1.765625 -0.75q-1.265625 -0.796875 -1.265625 -2.078125q0 -1.109375 0.90625 -1.828125q0.921875 -0.734375 2.375 -0.734375q0.96875 0 1.71875 0.359375q0.75 0.359375 1.1875 1.015625q0.4375 0.65625 0.4375 1.453125l-1.609375 0q0 -0.71875 -0.453125 -1.125q-0.453125 -0.421875 -1.296875 -0.421875q-0.78125 0 -1.21875 0.34375q-0.4375 0.328125 -0.4375 0.9375q0 0.515625 0.46875 0.859375q0.46875 0.328125 1.546875 0.65625q1.078125 0.3125 1.734375 0.71875q0.65625 0.40625 0.953125 0.9375q0.3125 0.53125 0.3125 1.25q0 1.15625 -0.890625 1.84375q-0.875 0.671875 -2.390625 0.671875q-1.015625 0 -1.859375 -0.359375q-0.828125 -0.375 -1.296875 -1.03125q-0.46875 -0.65625 -0.46875 -1.53125l1.609375 0q0 0.796875 0.515625 1.234375q0.515625 0.421875 1.5 0.421875q0.828125 0 1.25 -0.34375q0.421875 -0.34375 0.421875 -0.890625zm6.0906067 2.5q-1.46875 0 -2.375 -0.921875q-0.90625 -0.921875 -0.90625 -2.453125l0 -0.203125q0 -1.015625 0.390625 -1.828125q0.40625 -0.8125 1.109375 -1.265625q0.71875 -0.453125 1.609375 -0.453125q1.40625 0 2.15625 0.90625q0.765625 0.890625 0.765625 2.53125l0 0.609375l-4.484375 0q0.078125 0.859375 0.578125 1.359375q0.5 0.484375 1.25 0.484375q1.0625 0 1.71875 -0.859375l0.84375 0.796875q-0.421875 0.625 -1.109375 0.96875q-0.6875 0.328125 -1.546875 0.328125zm-0.1875 -5.875q-0.625 0 -1.015625 0.4375q-0.390625 0.4375 -0.5 1.234375l2.9375 0l0 -0.109375q-0.046875 -0.78125 -0.421875 -1.171875q-0.359375 -0.390625 -1.0 -0.390625zm7.9177856 0.296875q-0.3125 -0.0625 -0.625 -0.0625q-1.0625 0 -1.4375 0.8125l0 4.703125l-1.546875 0l0 -6.875l1.484375 0l0.03125 0.78125q0.5625 -0.90625 1.546875 -0.90625q0.328125 0 0.546875 0.09375l0 1.453125zm3.513794 3.5l1.453125 -4.921875l1.59375 0l-2.390625 6.875l-1.328125 0l-2.40625 -6.875l1.59375 0l1.484375 4.921875zm5.8112335 1.953125l-1.546875 0l0 -6.875l1.546875 0l0 6.875zm-1.640625 -8.65625q0 -0.34375 0.21875 -0.578125q0.234375 -0.25 0.640625 -0.25q0.421875 0 0.65625 0.25q0.234375 0.234375 0.234375 0.578125q0 0.359375 -0.234375 0.59375q-0.234375 0.21875 -0.65625 0.21875q-0.40625 0 -0.640625 -0.21875q-0.21875 -0.234375 -0.21875 -0.59375zm6.2161255 7.546875q0.578125 0 0.953125 -0.328125q0.390625 -0.34375 0.421875 -0.828125l1.453125 0q-0.03125 0.640625 -0.40625 1.203125q-0.375 0.546875 -1.015625 0.875q-0.640625 0.3125 -1.390625 0.3125q-1.4375 0 -2.28125 -0.921875q-0.84375 -0.9375 -0.84375 -2.59375l0 -0.15625q0 -1.5625 0.828125 -2.5q0.84375 -0.953125 2.296875 -0.953125q1.21875 0 1.984375 0.71875q0.78125 0.71875 0.828125 1.875l-1.453125 0q-0.03125 -0.59375 -0.40625 -0.96875q-0.375 -0.375 -0.96875 -0.375q-0.75 0 -1.15625 0.546875q-0.40625 0.53125 -0.40625 1.640625l0 0.25q0 1.109375 0.390625 1.65625q0.40625 0.546875 1.171875 0.546875zm7.1795654 1.234375q-1.46875 0 -2.375 -0.921875q-0.90625 -0.921875 -0.90625 -2.453125l0 -0.203125q0 -1.015625 0.390625 -1.828125q0.40625 -0.8125 1.109375 -1.265625q0.71875 -0.453125 1.609375 -0.453125q1.40625 0 2.15625 0.90625q0.765625 0.890625 0.765625 2.53125l0 0.609375l-4.484375 0q0.078125 0.859375 0.578125 1.359375q0.5 0.484375 1.25 0.484375q1.0625 0 1.71875 -0.859375l0.84375 0.796875q-0.421875 0.625 -1.109375 0.96875q-0.6875 0.328125 -1.546875 0.328125zm-0.1875 -5.875q-0.625 0 -1.015625 0.4375q-0.390625 0.4375 -0.5 1.234375l2.9375 0l0 -0.109375q-0.046875 -0.78125 -0.421875 -1.171875q-0.359375 -0.390625 -1.0 -0.390625zm12.955551 3.59375l-3.578125 0l-0.75 2.15625l-1.671875 0l3.5 -9.25l1.4375 0l3.5 9.25l-1.671875 0l-0.765625 -2.15625zm-3.125 -1.296875l2.671875 0l-1.328125 -3.828125l-1.34375 3.828125z" fill-rule="nonzero"></path><path fill="#bfbfbf" d="m417.8997 32.43047l0 0c16.113678 0 29.176422 13.062733 29.176422 29.176434l0 270.21405c0 7.7380676 -3.073944 15.15921 -8.545563 20.63086c-5.471649 5.471649 -12.892792 8.545593 -20.63086 8.545593l-116.70224 0c-16.113708 0 -29.176453 -13.062744 -29.176453 -29.176453l0 -270.21405c0 -16.1137 13.062744 -29.176434 29.176453 -29.176434z" fill-rule="evenodd"></path><path fill="#ffffff" d="m360.06793 59.581364l0 0c8.633789 0 15.632843 6.999073 15.632843 15.632862l0 87.88389c0 4.1460876 -1.6470032 8.1223755 -4.5787354 11.054092c-2.9317322 2.9317322 -6.90802 4.578766 -11.054108 4.578766l-62.52957 0c-8.633789 0 -15.632843 -6.999069 -15.632843 -15.632858l0 -87.88389l0 0c0 -8.633789 6.999054 -15.632862 15.632843 -15.632862z" fill-rule="evenodd"></path><path stroke="#7f7f7f" stroke-width="1.0" stroke-linejoin="round" stroke-linecap="butt" d="m360.06793 59.581364l0 0c8.633789 0 15.632843 6.999073 15.632843 15.632862l0 87.88389c0 4.1460876 -1.6470032 8.1223755 -4.5787354 11.054092c-2.9317322 2.9317322 -6.90802 4.578766 -11.054108 4.578766l-62.52957 0c-8.633789 0 -15.632843 -6.999069 -15.632843 -15.632858l0 -87.88389l0 0c0 -8.633789 6.999054 -15.632862 15.632843 -15.632862z" fill-rule="evenodd"></path><path fill="#ffffff" d="m375.4012 64.75985l0 0c9.651428 0 17.475433 7.8240128 17.475433 17.475418l0 85.6161c0 4.6347656 -1.841156 9.079712 -5.1184387 12.356979c-3.2772827 3.2772827 -7.722229 5.1184387 -12.356995 5.1184387l-69.89957 0c-9.651398 0 -17.475403 -7.8240204 -17.475403 -17.475418l0 -85.6161c0 -9.651405 7.824005 -17.475418 17.475403 -17.475418z" fill-rule="evenodd"></path><path stroke="#7f7f7f" stroke-width="1.0" stroke-linejoin="round" stroke-linecap="butt" d="m375.4012 64.75985l0 0c9.651428 0 17.475433 7.8240128 17.475433 17.475418l0 85.6161c0 4.6347656 -1.841156 9.079712 -5.1184387 12.356979c-3.2772827 3.2772827 -7.722229 5.1184387 -12.356995 5.1184387l-69.89957 0c-9.651398 0 -17.475403 -7.8240204 -17.475403 -17.475418l0 -85.6161c0 -9.651405 7.824005 -17.475418 17.475403 -17.475418z" fill-rule="evenodd"></path><path fill="#ffffff" d="m380.6637 71.34777l0 0c9.471649 0 17.149963 7.6782913 17.149963 17.149948l0 81.007195c0 4.5484467 -1.8068848 8.910599 -5.023102 12.126831c-3.2162476 3.2162476 -7.5783997 5.023117 -12.126862 5.023117l-68.59775 0c-9.471649 0 -17.149933 -7.678299 -17.149933 -17.149948l0 -81.007195c0 -9.471657 7.6782837 -17.149948 17.149933 -17.149948z" fill-rule="evenodd"></path><path stroke="#7f7f7f" stroke-width="1.0" stroke-linejoin="round" stroke-linecap="butt" d="m380.6637 71.34777l0 0c9.471649 0 17.149963 7.6782913 17.149963 17.149948l0 81.007195c0 4.5484467 -1.8068848 8.910599 -5.023102 12.126831c-3.2162476 3.2162476 -7.5783997 5.023117 -12.126862 5.023117l-68.59775 0c-9.471649 0 -17.149933 -7.678299 -17.149933 -17.149948l0 -81.007195c0 -9.471657 7.6782837 -17.149948 17.149933 -17.149948z" fill-rule="evenodd"></path><path fill="#d9ead3" d="m304.9263 148.4921l88.1575 0l0 27.527557l-88.1575 0z" fill-rule="evenodd"></path><path fill="#000000" d="m339.2177 165.1965q0 -0.421875 -0.34375 -0.625q-0.328125 -0.21875 -1.125 -0.390625q-0.78125 -0.171875 -1.3125 -0.421875q-1.15625 -0.5625 -1.15625 -1.609375q0 -0.890625 0.75 -1.484375q0.75 -0.609375 1.90625 -0.609375q1.234375 0 1.984375 0.609375q0.765625 0.609375 0.765625 1.578125l-1.546875 0q0 -0.4375 -0.328125 -0.734375q-0.328125 -0.296875 -0.875 -0.296875q-0.515625 0 -0.84375 0.234375q-0.3125 0.234375 -0.3125 0.625q0 0.359375 0.296875 0.5625q0.3125 0.1875 1.21875 0.390625q0.90625 0.203125 1.421875 0.484375q0.515625 0.265625 0.765625 0.65625q0.25 0.390625 0.25 0.9375q0 0.9375 -0.765625 1.515625q-0.765625 0.5625 -2.015625 0.5625q-0.84375 0 -1.5 -0.296875q-0.65625 -0.3125 -1.03125 -0.84375q-0.375 -0.53125 -0.375 -1.15625l1.5 0q0.03125 0.546875 0.40625 0.84375q0.390625 0.296875 1.015625 0.296875q0.609375 0 0.921875 -0.21875q0.328125 -0.234375 0.328125 -0.609375zm5.45697 -0.09375l1.453125 -4.921875l1.59375 0l-2.390625 6.875l-1.328125 0l-2.40625 -6.875l1.59375 0l1.484375 4.921875zm6.9830933 0.84375q0.578125 0 0.953125 -0.328125q0.390625 -0.34375 0.421875 -0.828125l1.453125 0q-0.03125 0.640625 -0.40625 1.203125q-0.375 0.546875 -1.015625 0.875q-0.640625 0.3125 -1.390625 0.3125q-1.4375 0 -2.28125 -0.921875q-0.84375 -0.9375 -0.84375 -2.59375l0 -0.15625q0 -1.5625 0.828125 -2.5q0.84375 -0.953125 2.296875 -0.953125q1.21875 0 1.984375 0.71875q0.78125 0.71875 0.828125 1.875l-1.453125 0q-0.03125 -0.59375 -0.40625 -0.96875q-0.375 -0.375 -0.96875 -0.375q-0.75 0 -1.15625 0.546875q-0.40625 0.53125 -0.40625 1.640625l0 0.25q0 1.109375 0.390625 1.65625q0.40625 0.546875 1.171875 0.546875zm4.3045654 1.109375l0 -9.25l3.171875 0q1.5625 0 2.375 0.640625q0.828125 0.625 0.828125 1.875q0 0.625 -0.34375 1.140625q-0.34375 0.5 -1.0 0.78125q0.75 0.203125 1.15625 0.765625q0.40625 0.5625 0.40625 1.34375q0 1.3125 -0.84375 2.015625q-0.828125 0.6875 -2.375 0.6875l-3.375 0zm1.609375 -4.171875l0 2.890625l1.78125 0q0.75 0 1.171875 -0.375q0.4375 -0.375 0.4375 -1.046875q0 -1.4375 -1.46875 -1.46875l-1.921875 0zm0 -1.171875l1.578125 0q0.75 0 1.171875 -0.34375q0.421875 -0.34375 0.421875 -0.96875q0 -0.6875 -0.390625 -0.984375q-0.390625 -0.3125 -1.21875 -0.3125l-1.5625 0l0 2.609375z" fill-rule="nonzero"></path><path fill="#cfe2f3" d="m304.7446 81.37282l86.58267 0l0 28.409447l-86.58267 0z" fill-rule="evenodd"></path><path fill="#000000" d="m336.57086 96.25254l-3.796875 0l0 2.84375l4.4375 0l0 1.28125l-6.046875 0l0 -9.25l6.0 0l0 1.296875l-4.390625 0l0 2.5625l3.796875 0l0 1.265625zm3.4111328 -2.75l0.046875 0.796875q0.765625 -0.921875 2.0 -0.921875q2.140625 0 2.1875 2.46875l0 4.53125l-1.546875 0l0 -4.453125q0 -0.65625 -0.28125 -0.96875q-0.28125 -0.3125 -0.921875 -0.3125q-0.9375 0 -1.390625 0.84375l0 4.890625l-1.546875 0l0 -6.875l1.453125 0zm8.412476 4.921875l1.453125 -4.921875l1.59375 0l-2.390625 6.875l-1.328125 0l-2.40625 -6.875l1.59375 0l1.484375 4.921875zm3.8737183 -1.546875q0 -1.0 0.390625 -1.8125q0.40625 -0.8125 1.125 -1.25q0.734375 -0.4375 1.671875 -0.4375q1.390625 0 2.25 0.90625q0.875 0.890625 0.9375 2.375l0.015625 0.359375q0 1.015625 -0.390625 1.8125q-0.390625 0.796875 -1.125 1.234375q-0.71875 0.4375 -1.671875 0.4375q-1.453125 0 -2.328125 -0.96875q-0.875 -0.96875 -0.875 -2.578125l0 -0.078125zm1.546875 0.140625q0 1.0625 0.4375 1.65625q0.4375 0.59375 1.21875 0.59375q0.78125 0 1.203125 -0.609375q0.4375 -0.609375 0.4375 -1.78125q0 -1.03125 -0.453125 -1.640625q-0.4375 -0.609375 -1.203125 -0.609375q-0.75 0 -1.203125 0.59375q-0.4375 0.59375 -0.4375 1.796875zm8.728821 1.15625l1.40625 -4.671875l1.640625 0l-2.734375 7.921875q-0.625 1.734375 -2.125 1.734375q-0.34375 0 -0.75 -0.125l0 -1.1875l0.296875 0.015625q0.578125 0 0.875 -0.21875q0.296875 -0.203125 0.46875 -0.703125l0.21875 -0.59375l-2.40625 -6.84375l1.65625 0l1.453125 4.671875z" fill-rule="nonzero"></path><path fill="#000000" fill-opacity="0.0" d="m348.03592 109.782265l0.5984497 36.220467" fill-rule="evenodd"></path><path stroke="#4f81bd" stroke-width="1.0" stroke-linejoin="round" stroke-linecap="butt" d="m348.09253 113.208885l0.4852295 29.367226" fill-rule="evenodd"></path><path fill="#4f81bd" stroke="#4f81bd" stroke-width="1.0" stroke-linecap="butt" d="m348.09253 113.208885l1.1430054 1.1058502l-1.1754456 -3.0707703l-1.0733948 3.1079254z" fill-rule="evenodd"></path><path fill="#4f81bd" stroke="#4f81bd" stroke-width="1.0" stroke-linecap="butt" d="m348.57773 142.57613l-1.1430054 -1.1058655l1.1754761 3.0707703l1.0733948 -3.1079254z" fill-rule="evenodd"></path><path fill="#000000" fill-opacity="0.0" d="m105.980316 160.93964l198.77164 -65.35433" fill-rule="evenodd"></path><path stroke="#4f81bd" stroke-width="1.0" stroke-linejoin="round" stroke-linecap="butt" d="m105.980316 160.93964l195.51602 -64.28391" fill-rule="evenodd"></path><path fill="#4f81bd" stroke="#4f81bd" stroke-width="1.0" stroke-linecap="butt" d="m301.49634 96.65572l-0.71707153 1.4195709l2.5839539 -2.0333786l-3.2864685 -0.103256226z" fill-rule="evenodd"></path><path fill="#000000" fill-opacity="0.0" d="m250.9672 204.1378l0 -79.05512l23.527557 0l0 79.05512z" fill-rule="evenodd"></path><path fill="#000000" d="m264.39218 191.37218q-0.609375 0 -0.9375 0.4375q-0.34375 0.421875 -0.671875 1.546875q-0.34375 1.109375 -0.75 1.765625q-0.796875 1.265625 -2.078125 1.265625q-1.109375 0 -1.828125 -0.90625q-0.734375 -0.921875 -0.734375 -2.375q0 -0.96875 0.359375 -1.71875q0.359375 -0.75 1.015625 -1.1875q0.65625 -0.4375 1.453125 -0.4375l0 1.609375q-0.71875 0 -1.125 0.453125q-0.421875 0.453125 -0.421875 1.296875q0 0.78125 0.34375 1.21875q0.328125 0.4375 0.9375 0.4375q0.515625 0 0.859375 -0.46875q0.328125 -0.46875 0.65625 -1.546875q0.3125 -1.078125 0.71875 -1.734375q0.40625 -0.65625 0.9375 -0.953125q0.53125 -0.3125 1.25 -0.3125q1.15625 0 1.84375 0.890625q0.671875 0.875 0.671875 2.390625q0 1.015625 -0.359375 1.859375q-0.375 0.828125 -1.03125 1.296875q-0.65625 0.46875 -1.53125 0.46875l0 -1.609375q0.796875 0 1.234375 -0.515625q0.421875 -0.515625 0.421875 -1.5q0 -0.828125 -0.34375 -1.25q-0.34375 -0.421875 -0.890625 -0.421875zm2.5 -6.0906067q0 1.46875 -0.921875 2.375q-0.921875 0.90625 -2.453125 0.90625l-0.203125 0q-1.015625 0 -1.828125 -0.390625q-0.8125 -0.40625 -1.265625 -1.109375q-0.453125 -0.71875 -0.453125 -1.609375q0 -1.40625 0.90625 -2.15625q0.890625 -0.765625 2.53125 -0.765625l0.609375 0l0 4.484375q0.859375 -0.078125 1.359375 -0.578125q0.484375 -0.5 0.484375 -1.25q0 -1.0625 -0.859375 -1.71875l0.796875 -0.84375q0.625 0.421875 0.96875 1.109375q0.328125 0.6875 0.328125 1.546875zm-5.875 0.1875q0 0.625 0.4375 1.015625q0.4375 0.390625 1.234375 0.5l0 -2.9375l-0.109375 0q-0.78125 0.046875 -1.171875 0.421875q-0.390625 0.359375 -0.390625 1.0zm0.296875 -7.9177856q-0.0625 0.3125 -0.0625 0.625q0 1.0625 0.8125 1.4375l4.703125 0l0 1.546875l-6.875 0l0 -1.484375l0.78125 -0.03125q-0.90625 -0.5625 -0.90625 -1.546875q0 -0.328125 0.09375 -0.546875l1.453125 0zm3.5 -3.513794l-4.921875 -1.453125l0 -1.59375l6.875 2.390625l0 1.328125l-6.875 2.40625l0 -1.59375l4.921875 -1.484375zm1.953125 -5.8112335l0 1.546875l-6.875 0l0 -1.546875l6.875 0zm-8.65625 1.640625q-0.34375 0 -0.578125 -0.21875q-0.25 -0.234375 -0.25 -0.640625q0 -0.421875 0.25 -0.65625q0.234375 -0.234375 0.578125 -0.234375q0.359375 0 0.59375 0.234375q0.21875 0.234375 0.21875 0.65625q0 0.40625 -0.21875 0.640625q-0.234375 0.21875 -0.59375 0.21875zm7.546875 -6.2161255q0 -0.578125 -0.328125 -0.953125q-0.34375 -0.390625 -0.828125 -0.421875l0 -1.453125q0.640625 0.03125 1.203125 0.40625q0.546875 0.375 0.875 1.015625q0.3125 0.640625 0.3125 1.390625q0 1.4375 -0.921875 2.28125q-0.9375 0.84375 -2.59375 0.84375l-0.15625 0q-1.5625 0 -2.5 -0.828125q-0.953125 -0.84375 -0.953125 -2.296875q0 -1.21875 0.71875 -1.984375q0.71875 -0.78125 1.875 -0.828125l0 1.453125q-0.59375 0.03125 -0.96875 0.40625q-0.375 0.375 -0.375 0.96875q0 0.75 0.546875 1.15625q0.53125 0.40625 1.640625 0.40625l0.25 0q1.109375 0 1.65625 -0.390625q0.546875 -0.40625 0.546875 -1.171875zm1.234375 -7.1795654q0 1.46875 -0.921875 2.375q-0.921875 0.90625 -2.453125 0.90625l-0.203125 0q-1.015625 0 -1.828125 -0.390625q-0.8125 -0.40625 -1.265625 -1.109375q-0.453125 -0.71875 -0.453125 -1.609375q0 -1.40625 0.90625 -2.15625q0.890625 -0.765625 2.53125 -0.765625l0.609375 0l0 4.484375q0.859375 -0.078125 1.359375 -0.578125q0.484375 -0.5 0.484375 -1.25q0 -1.0625 -0.859375 -1.71875l0.796875 -0.84375q0.625 0.421875 0.96875 1.109375q0.328125 0.6875 0.328125 1.546875zm-5.875 0.1875q0 0.625 0.4375 1.015625q0.4375 0.390625 1.234375 0.5l0 -2.9375l-0.109375 0q-0.78125 0.046875 -1.171875 0.421875q-0.390625 0.359375 -0.390625 1.0zm5.75 -7.783676l-9.25 0l0 -3.171875q0 -1.5625 0.640625 -2.375q0.625 -0.828125 1.875 -0.828125q0.625 0 1.140625 0.34375q0.5 0.34375 0.78125 1.0q0.203125 -0.75 0.765625 -1.15625q0.5625 -0.40625 1.34375 -0.40625q1.3125 0 2.015625 0.84375q0.6875 0.828125 0.6875 2.375l0 3.375zm-4.171875 -1.609375l2.890625 0l0 -1.78125q0 -0.75 -0.375 -1.171875q-0.375 -0.4375 -1.046875 -0.4375q-1.4375 0 -1.46875 1.46875l0 1.921875zm-1.171875 0l0 -1.578125q0 -0.75 -0.34375 -1.171875q-0.34375 -0.421875 -0.96875 -0.421875q-0.6875 0 -0.984375 0.390625q-0.3125 0.390625 -0.3125 1.21875l0 1.5625l2.609375 0z" fill-rule="nonzero"></path><path fill="#000000" fill-opacity="0.0" d="m38.687664 190.73622l178.89763 0l0 23.527557l-178.89763 0z" fill-rule="evenodd"></path><path fill="#000000" d="m47.29704 199.9906q0.34375 -0.578125 0.875 -0.875q0.546875 -0.3125 1.1875 -0.3125q1.015625 0 1.515625 0.578125q0.5 0.5625 0.515625 1.71875l0 4.15625l-0.703125 0l0 -4.171875q0 -0.84375 -0.359375 -1.25q-0.359375 -0.421875 -1.140625 -0.421875q-0.640625 0 -1.140625 0.40625q-0.5 0.40625 -0.75 1.09375l0 4.34375l-0.6875 0l0 -9.0l0.6875 0l0 3.734375zm6.9765625 -2.703125l0 1.625l1.3125 0l0 0.578125l-1.3125 0l0 4.21875q0 0.53125 0.1875 0.796875q0.203125 0.25 0.640625 0.25q0.171875 0 0.578125 -0.0625l0.015625 0.578125q-0.265625 0.109375 -0.75 0.109375q-0.71875 0 -1.046875 -0.421875q-0.328125 -0.421875 -0.328125 -1.234375l0 -4.234375l-1.15625 0l0 -0.578125l1.15625 0l0 -1.625l0.703125 0zm3.8554688 0l0 1.625l1.3125 0l0 0.578125l-1.3125 0l0 4.21875q0 0.53125 0.1875 0.796875q0.203125 0.25 0.640625 0.25q0.171875 0 0.578125 -0.0625l0.015625 0.578125q-0.265625 0.109375 -0.75 0.109375q-0.71875 0 -1.046875 -0.421875q-0.328125 -0.421875 -0.328125 -1.234375l0 -4.234375l-1.15625 0l0 -0.578125l1.15625 0l0 -1.625l0.703125 0zm7.8710976 4.859375q0 1.484375 -0.65625 2.359375q-0.65625 0.875 -1.7656288 0.875q-1.296875 0 -1.984375 -0.921875l0 3.234375l-0.703125 0l0 -8.78125l0.65625 0l0.03125 0.90625q0.6875 -1.015625 1.984375 -1.015625q1.1406288 0 1.7812538 0.859375q0.65625 0.859375 0.65625 2.390625l0 0.09375zm-0.703125 -0.125q0 -1.203125 -0.5 -1.90625q-0.5 -0.703125 -1.3906288 -0.703125q-0.640625 0 -1.109375 0.3125q-0.453125 0.296875 -0.703125 0.890625l0 3.046875q0.25 0.546875 0.71875 0.84375q0.46875 0.28125 1.109375 0.28125q0.8750038 0 1.3750038 -0.703125q0.5 -0.71875 0.5 -2.0625zm2.1816406 2.8125q0 -0.203125 0.125 -0.34375q0.140625 -0.15625 0.375 -0.15625q0.234375 0 0.375 0.15625q0.140625 0.140625 0.140625 0.34375q0 0.203125 -0.140625 0.34375q-0.140625 0.125 -0.375 0.125q-0.234375 0 -0.375 -0.125q-0.125 -0.140625 -0.125 -0.34375zm0 -5.0q0 -0.203125 0.125 -0.34375q0.140625 -0.15625 0.375 -0.15625q0.234375 0 0.375 0.15625q0.140625 0.140625 0.140625 0.34375q0 0.203125 -0.140625 0.34375q-0.140625 0.125 -0.375 0.125q-0.234375 0 -0.375 -0.125q-0.125 -0.140625 -0.125 -0.34375zm2.4882812 6.15625l-0.640625 0l3.5625 -9.265625l0.640625 0l-3.5625 9.265625zm4.763672 0l-0.640625 0l3.5625 -9.265625l0.640625 0l-3.5625 9.265625zm8.669922 -2.34375q0 -0.53125 -0.421875 -0.84375q-0.421875 -0.3125 -1.265625 -0.484375q-0.84375 -0.1875 -1.3125 -0.421875q-0.46875 -0.234375 -0.703125 -0.5625q-0.21875 -0.328125 -0.21875 -0.8125q0 -0.75 0.625 -1.234375q0.640625 -0.484375 1.609375 -0.484375q1.0625 0 1.703125 0.53125q0.640625 0.515625 0.640625 1.359375l-0.703125 0q0 -0.5625 -0.46875 -0.921875q-0.453125 -0.375 -1.171875 -0.375q-0.6875 0 -1.109375 0.3125q-0.421875 0.296875 -0.421875 0.796875q0 0.46875 0.34375 0.734375q0.359375 0.265625 1.28125 0.484375q0.921875 0.203125 1.375 0.453125q0.46875 0.25 0.6875 0.59375q0.234375 0.34375 0.234375 0.84375q0 0.796875 -0.65625 1.28125q-0.640625 0.484375 -1.6875 0.484375q-1.109375 0 -1.796875 -0.53125q-0.6875 -0.546875 -0.6875 -1.375l0.703125 0q0.046875 0.625 0.515625 0.96875q0.484375 0.34375 1.265625 0.34375q0.734375 0 1.1875 -0.328125q0.453125 -0.328125 0.453125 -0.8125zm4.732422 1.734375q-0.8125 0 -1.46875 -0.40625q-0.65625 -0.40625 -1.015625 -1.109375q-0.359375 -0.71875 -0.359375 -1.59375l0 -0.25q0 -0.921875 0.34375 -1.65625q0.359375 -0.734375 0.984375 -1.140625q0.640625 -0.421875 1.375 -0.421875q1.15625 0 1.828125 0.796875q0.6875 0.78125 0.6875 2.140625l0 0.390625l-4.53125 0l0 0.140625q0 1.078125 0.625 1.796875q0.625 0.71875 1.5625 0.71875q0.5625 0 0.984375 -0.203125q0.4375 -0.21875 0.78125 -0.671875l0.4375 0.34375q-0.765625 1.125 -2.234375 1.125zm-0.140625 -5.984375q-0.78125 0 -1.328125 0.578125q-0.546875 0.578125 -0.65625 1.5625l3.796875 0l0 -0.078125q-0.03125 -0.921875 -0.53125 -1.484375q-0.484375 -0.578125 -1.28125 -0.578125zm6.8085938 0.109375q-0.21875 -0.03125 -0.46875 -0.03125q-0.65625 0 -1.109375 0.375q-0.453125 0.359375 -0.65625 1.046875l0 4.359375l-0.6875 0l0 -6.34375l0.671875 0l0.015625 1.015625q0.5625 -1.125 1.796875 -1.125q0.28125 0 0.453125 0.078125l-0.015625 0.625zm3.0839844 4.78125l1.921875 -5.375l0.71875 0l-2.359375 6.34375l-0.5625 0l-2.390625 -6.34375l0.71875 0l1.953125 5.375zm4.5839844 0.96875l-0.703125 0l0 -6.34375l0.703125 0l0 6.34375zm-0.828125 -8.171875q0 -0.203125 0.125 -0.34375q0.125 -0.140625 0.34375 -0.140625q0.234375 0 0.359375 0.140625q0.140625 0.140625 0.140625 0.34375q0 0.203125 -0.140625 0.34375q-0.125 0.125 -0.359375 0.125q-0.21875 0 -0.34375 -0.125q-0.125 -0.140625 -0.125 -0.34375zm5.080078 7.703125q0.71875 0 1.21875 -0.40625q0.5 -0.421875 0.53125 -1.078125l0.6875 0q-0.03125 0.578125 -0.375 1.0625q-0.328125 0.46875 -0.890625 0.75q-0.546875 0.265625 -1.171875 0.265625q-1.25 0 -1.984375 -0.875q-0.734375 -0.875 -0.734375 -2.328125l0 -0.21875q0 -0.9375 0.328125 -1.65625q0.328125 -0.71875 0.9375 -1.109375q0.625 -0.390625 1.4375 -0.390625q1.046875 0 1.71875 0.625q0.6875 0.609375 0.734375 1.625l-0.6875 0q-0.046875 -0.75 -0.53125 -1.203125q-0.484375 -0.453125 -1.234375 -0.453125q-0.953125 0 -1.484375 0.6875q-0.515625 0.6875 -0.515625 1.921875l0 0.203125q0 1.21875 0.515625 1.90625q0.53125 0.671875 1.5 0.671875zm6.2910156 0.59375q-0.8125 0 -1.46875 -0.40625q-0.65625 -0.40625 -1.015625 -1.109375q-0.359375 -0.71875 -0.359375 -1.59375l0 -0.25q0 -0.921875 0.34375 -1.65625q0.359375 -0.734375 0.984375 -1.140625q0.640625 -0.421875 1.375 -0.421875q1.15625 0 1.828125 0.796875q0.6875 0.78125 0.6875 2.140625l0 0.390625l-4.53125 0l0 0.140625q0 1.078125 0.625 1.796875q0.625 0.71875 1.5625 0.71875q0.5625 0 0.984375 -0.203125q0.4375 -0.21875 0.78125 -0.671875l0.4375 0.34375q-0.765625 1.125 -2.234375 1.125zm-0.140625 -5.984375q-0.78125 0 -1.328125 0.578125q-0.546875 0.578125 -0.65625 1.5625l3.796875 0l0 -0.078125q-0.03125 -0.921875 -0.53125 -1.484375q-0.484375 -0.578125 -1.28125 -0.578125zm4.0429688 5.859375l0 -8.53125l2.515625 0q1.375 0 2.078125 0.5625q0.71875 0.5625 0.71875 1.671875q0 0.65625 -0.359375 1.15625q-0.359375 0.484375 -0.984375 0.6875q0.734375 0.171875 1.1875 0.75q0.453125 0.5625 0.453125 1.296875q0 1.140625 -0.734375 1.78125q-0.71875 0.625 -2.015625 0.625l-2.859375 0zm0.71875 -4.109375l0 3.5l2.171875 0q0.921875 0 1.453125 -0.46875q0.546875 -0.46875 0.546875 -1.3125q0 -0.796875 -0.515625 -1.25q-0.515625 -0.46875 -1.4375 -0.46875l-2.21875 0zm0 -0.59375l1.96875 0q0.90625 -0.015625 1.390625 -0.421875q0.5 -0.40625 0.5 -1.1875q0 -0.828125 -0.515625 -1.21875q-0.5 -0.390625 -1.546875 -0.390625l-1.796875 0l0 3.21875zm6.4003906 4.28125q0 -0.203125 0.125 -0.34375q0.140625 -0.15625 0.375 -0.15625q0.234375 0 0.375 0.15625q0.140625 0.140625 0.140625 0.34375q0 0.203125 -0.140625 0.34375q-0.140625 0.125 -0.375 0.125q-0.234375 0 -0.375 -0.125q-0.125 -0.140625 -0.125 -0.34375zm5.3964844 0.546875q-0.8125 0 -1.46875 -0.40625q-0.65625 -0.40625 -1.015625 -1.109375q-0.359375 -0.71875 -0.359375 -1.59375l0 -0.25q0 -0.921875 0.34375 -1.65625q0.359375 -0.734375 0.984375 -1.140625q0.640625 -0.421875 1.375 -0.421875q1.15625 0 1.828125 0.796875q0.6875 0.78125 0.6875 2.140625l0 0.390625l-4.53125 0l0 0.140625q0 1.078125 0.625 1.796875q0.625 0.71875 1.5625 0.71875q0.5625 0 0.984375 -0.203125q0.4375 -0.21875 0.78125 -0.671875l0.4375 0.34375q-0.765625 1.125 -2.234375 1.125zm-0.140625 -5.984375q-0.78125 0 -1.328125 0.578125q-0.546875 0.578125 -0.65625 1.5625l3.796875 0l0 -0.078125q-0.03125 -0.921875 -0.53125 -1.484375q-0.484375 -0.578125 -1.28125 -0.578125zm5.8710938 2.09375l1.71875 -2.578125l0.828125 0l-2.15625 3.109375l2.25 3.234375l-0.828125 0l-1.8125 -2.6875l-1.796875 2.6875l-0.828125 0l2.234375 -3.234375l-2.140625 -3.109375l0.828125 0l1.703125 2.578125zm7.8515625 3.765625q-0.109375 -0.296875 -0.140625 -0.890625q-0.375 0.484375 -0.953125 0.75q-0.5625 0.265625 -1.203125 0.265625q-0.90625 0 -1.46875 -0.515625q-0.5625 -0.515625 -0.5625 -1.296875q0 -0.921875 0.765625 -1.453125q0.765625 -0.546875 2.140625 -0.546875l1.28125 0l0 -0.71875q0 -0.6875 -0.421875 -1.0625q-0.421875 -0.390625 -1.21875 -0.390625q-0.734375 0 -1.21875 0.375q-0.484375 0.375 -0.484375 0.890625l-0.703125 0q0 -0.75 0.703125 -1.296875q0.703125 -0.5625 1.734375 -0.5625q1.0625 0 1.671875 0.53125q0.609375 0.53125 0.625 1.46875l0 3.0q0 0.921875 0.203125 1.375l0 0.078125l-0.75 0zm-2.203125 -0.5q0.703125 0 1.25 -0.34375q0.5625 -0.34375 0.8125 -0.90625l0 -1.390625l-1.265625 0q-1.046875 0 -1.640625 0.375q-0.578125 0.375 -0.578125 1.03125q0 0.53125 0.390625 0.890625q0.390625 0.34375 1.03125 0.34375zm5.2558594 -5.84375l0.03125 1.03125q0.34375 -0.578125 0.875 -0.859375q0.53125 -0.28125 1.171875 -0.28125q1.5 0 1.90625 1.21875q0.34375 -0.578125 0.90625 -0.890625q0.578125 -0.328125 1.25 -0.328125q2.046875 0 2.09375 2.21875l0 4.234375l-0.703125 0l0 -4.171875q-0.015625 -0.859375 -0.375 -1.265625q-0.359375 -0.40625 -1.171875 -0.40625q-0.75 0 -1.28125 0.484375q-0.515625 0.484375 -0.578125 1.15625l0 4.203125l-0.703125 0l0 -4.234375q0 -0.8125 -0.390625 -1.203125q-0.375 -0.40625 -1.15625 -0.40625q-0.65625 0 -1.140625 0.375q-0.46875 0.375 -0.703125 1.125l0 4.34375l-0.703125 0l0 -6.34375l0.671875 0zm15.103516 3.234375q0 1.484375 -0.65625 2.359375q-0.65625 0.875 -1.765625 0.875q-1.296875 0 -1.984375 -0.921875l0 3.234375l-0.703125 0l0 -8.78125l0.65625 0l0.03125 0.90625q0.6875 -1.015625 1.984375 -1.015625q1.140625 0 1.78125 0.859375q0.65625 0.859375 0.65625 2.390625l0 0.09375zm-0.703125 -0.125q0 -1.203125 -0.5 -1.90625q-0.5 -0.703125 -1.390625 -0.703125q-0.640625 0 -1.109375 0.3125q-0.453125 0.296875 -0.703125 0.890625l0 3.046875q0.25 0.546875 0.71875 0.84375q0.46875 0.28125 1.109375 0.28125q0.875 0 1.375 -0.703125q0.5 -0.71875 0.5 -2.0625zm3.0410156 3.234375l-0.703125 0l0 -9.0l0.703125 0l0 9.0zm4.361328 0.125q-0.8125 0 -1.46875 -0.40625q-0.65625 -0.40625 -1.015625 -1.109375q-0.359375 -0.71875 -0.359375 -1.59375l0 -0.25q0 -0.921875 0.34375 -1.65625q0.359375 -0.734375 0.984375 -1.140625q0.640625 -0.421875 1.375 -0.421875q1.15625 0 1.828125 0.796875q0.6875 0.78125 0.6875 2.140625l0 0.390625l-4.53125 0l0 0.140625q0 1.078125 0.625 1.796875q0.625 0.71875 1.5625 0.71875q0.5625 0 0.984375 -0.203125q0.4375 -0.21875 0.78125 -0.671875l0.4375 0.34375q-0.765625 1.125 -2.234375 1.125zm-0.140625 -5.984375q-0.78125 0 -1.328125 0.578125q-0.546875 0.578125 -0.65625 1.5625l3.796875 0l0 -0.078125q-0.03125 -0.921875 -0.53125 -1.484375q-0.484375 -0.578125 -1.28125 -0.578125zm3.8085938 5.4375q0 -0.203125 0.125 -0.34375q0.140625 -0.15625 0.375 -0.15625q0.234375 0 0.375 0.15625q0.140625 0.140625 0.140625 0.34375q0 0.203125 -0.140625 0.34375q-0.140625 0.125 -0.375 0.125q-0.234375 0 -0.375 -0.125q-0.125 -0.140625 -0.125 -0.34375zm5.2871094 -0.046875q0.71875 0 1.21875 -0.40625q0.5 -0.421875 0.53125 -1.078125l0.6875 0q-0.03125 0.578125 -0.375 1.0625q-0.328125 0.46875 -0.890625 0.75q-0.546875 0.265625 -1.171875 0.265625q-1.25 0 -1.984375 -0.875q-0.734375 -0.875 -0.734375 -2.328125l0 -0.21875q0 -0.9375 0.328125 -1.65625q0.328125 -0.71875 0.9375 -1.109375q0.625 -0.390625 1.4375 -0.390625q1.046875 0 1.71875 0.625q0.6875 0.609375 0.734375 1.625l-0.6875 0q-0.046875 -0.75 -0.53125 -1.203125q-0.484375 -0.453125 -1.234375 -0.453125q-0.953125 0 -1.484375 0.6875q-0.515625 0.6875 -0.515625 1.921875l0 0.203125q0 1.21875 0.515625 1.90625q0.53125 0.671875 1.5 0.671875zm3.4472656 -2.796875q0 -0.90625 0.34375 -1.640625q0.359375 -0.734375 1.0 -1.140625q0.65625 -0.40625 1.484375 -0.40625q1.265625 0 2.046875 0.890625q0.78125 0.875 0.78125 2.34375l0 0.140625q0 0.921875 -0.359375 1.65625q-0.34375 0.734375 -1.0 1.140625q-0.640625 0.40625 -1.46875 0.40625q-1.25 0 -2.046875 -0.890625q-0.78125 -0.890625 -0.78125 -2.359375l0 -0.140625zm0.703125 0.1875q0 1.140625 0.578125 1.875q0.59375 0.734375 1.546875 0.734375q0.953125 0 1.53125 -0.734375q0.59375 -0.734375 0.59375 -1.921875l0 -0.140625q0 -0.71875 -0.265625 -1.328125q-0.265625 -0.609375 -0.75 -0.9375q-0.484375 -0.328125 -1.109375 -0.328125q-0.9375 0 -1.53125 0.734375q-0.59375 0.734375 -0.59375 1.921875l0 0.125zm7.033203 -3.265625l0.03125 1.03125q0.34375 -0.578125 0.875 -0.859375q0.53125 -0.28125 1.171875 -0.28125q1.5 0 1.90625 1.21875q0.34375 -0.578125 0.90625 -0.890625q0.578125 -0.328125 1.25 -0.328125q2.046875 0 2.09375 2.21875l0 4.234375l-0.703125 0l0 -4.171875q-0.015625 -0.859375 -0.375 -1.265625q-0.359375 -0.40625 -1.171875 -0.40625q-0.75 0 -1.28125 0.484375q-0.515625 0.484375 -0.578125 1.15625l0 4.203125l-0.703125 0l0 -4.234375q0 -0.8125 -0.390625 -1.203125q-0.375 -0.40625 -1.15625 -0.40625q-0.65625 0 -1.140625 0.375q-0.46875 0.375 -0.703125 1.125l0 4.34375l-0.703125 0l0 -6.34375l0.671875 0z" fill-rule="nonzero"></path><path fill="#000000" fill-opacity="0.0" d="m282.30447 35.05512l178.89761 0l0 23.527557l-178.89761 0z" fill-rule="evenodd"></path><path fill="#000000" d="m293.5076 48.839493l2.34375 -7.234375l1.765625 0l-3.328125 9.25l-1.5625 0l-3.3125 -9.25l1.765625 0l2.328125 7.234375zm8.2323 2.140625q-1.46875 0 -2.375 -0.921875q-0.90625 -0.921875 -0.90625 -2.453125l0 -0.203125q0 -1.015625 0.390625 -1.828125q0.40625 -0.8125 1.109375 -1.265625q0.71875 -0.453125 1.609375 -0.453125q1.40625 0 2.15625 0.90625q0.765625 0.890625 0.765625 2.53125l0 0.609375l-4.484375 0q0.078125 0.859375 0.578125 1.359375q0.5 0.484375 1.25 0.484375q1.0625 0 1.71875 -0.859375l0.84375 0.796875q-0.421875 0.625 -1.109375 0.96875q-0.6875 0.328125 -1.546875 0.328125zm-0.1875 -5.875q-0.625 0 -1.015625 0.4375q-0.390625 0.4375 -0.5 1.234375l2.9375 0l0 -0.109375q-0.046875 -0.78125 -0.421875 -1.171875q-0.359375 -0.390625 -1.0 -0.390625zm7.9177856 0.296875q-0.3125 -0.0625 -0.625 -0.0625q-1.0625 0 -1.4375 0.8125l0 4.703125l-1.546875 0l0 -6.875l1.484375 0l0.03125 0.78125q0.5625 -0.90625 1.546875 -0.90625q0.328125 0 0.546875 0.09375l0 1.453125zm4.935669 3.59375q0 -0.421875 -0.34375 -0.625q-0.328125 -0.21875 -1.125 -0.390625q-0.78125 -0.171875 -1.3125 -0.421875q-1.15625 -0.5625 -1.15625 -1.609375q0 -0.890625 0.75 -1.484375q0.75 -0.609375 1.90625 -0.609375q1.234375 0 1.984375 0.609375q0.765625 0.609375 0.765625 1.578125l-1.546875 0q0 -0.4375 -0.328125 -0.734375q-0.328125 -0.296875 -0.875 -0.296875q-0.515625 0 -0.84375 0.234375q-0.3125 0.234375 -0.3125 0.625q0 0.359375 0.296875 0.5625q0.3125 0.1875 1.21875 0.390625q0.90625 0.203125 1.421875 0.484375q0.515625 0.265625 0.765625 0.65625q0.25 0.390625 0.25 0.9375q0 0.9375 -0.765625 1.515625q-0.765625 0.5625 -2.015625 0.5625q-0.84375 0 -1.5 -0.296875q-0.65625 -0.3125 -1.03125 -0.84375q-0.375 -0.53125 -0.375 -1.15625l1.5 0q0.03125 0.546875 0.40625 0.84375q0.390625 0.296875 1.015625 0.296875q0.609375 0 0.921875 -0.21875q0.328125 -0.234375 0.328125 -0.609375zm4.67572 1.859375l-1.546875 0l0 -6.875l1.546875 0l0 6.875zm-1.640625 -8.65625q0 -0.34375 0.21875 -0.578125q0.234375 -0.25 0.640625 -0.25q0.421875 0 0.65625 0.25q0.234375 0.234375 0.234375 0.578125q0 0.359375 -0.234375 0.59375q-0.234375 0.21875 -0.65625 0.21875q-0.40625 0 -0.640625 -0.21875q-0.21875 -0.234375 -0.21875 -0.59375zm3.1067505 5.15625q0 -1.0 0.390625 -1.8125q0.40625 -0.8125 1.125 -1.25q0.734375 -0.4375 1.671875 -0.4375q1.390625 0 2.25 0.90625q0.875 0.890625 0.9375 2.375l0.015625 0.359375q0 1.015625 -0.390625 1.8125q-0.390625 0.796875 -1.125 1.234375q-0.71875 0.4375 -1.671875 0.4375q-1.453125 0 -2.328125 -0.96875q-0.875 -0.96875 -0.875 -2.578125l0 -0.078125zm1.546875 0.140625q0 1.0625 0.4375 1.65625q0.4375 0.59375 1.21875 0.59375q0.78125 0 1.203125 -0.609375q0.4375 -0.609375 0.4375 -1.78125q0 -1.03125 -0.453125 -1.640625q-0.4375 -0.609375 -1.203125 -0.609375q-0.75 0 -1.203125 0.59375q-0.4375 0.59375 -0.4375 1.796875zm7.7600403 -3.515625l0.046875 0.796875q0.765625 -0.921875 2.0 -0.921875q2.140625 0 2.1875 2.46875l0 4.53125l-1.546875 0l0 -4.453125q0 -0.65625 -0.28125 -0.96875q-0.28125 -0.3125 -0.921875 -0.3125q-0.9375 0 -1.390625 0.84375l0 4.890625l-1.546875 0l0 -6.875l1.453125 0zm6.9437256 5.25q0.4375 0 0.671875 0.25q0.234375 0.234375 0.234375 0.609375q0 0.359375 -0.234375 0.59375q-0.234375 0.234375 -0.671875 0.234375q-0.40625 0 -0.65625 -0.234375q-0.234375 -0.234375 -0.234375 -0.59375q0 -0.375 0.234375 -0.609375q0.234375 -0.25 0.65625 -0.25zm0 -5.0q0.4375 0 0.671875 0.25q0.234375 0.234375 0.234375 0.609375q0 0.359375 -0.234375 0.59375q-0.234375 0.234375 -0.671875 0.234375q-0.40625 0 -0.65625 -0.234375q-0.234375 -0.234375 -0.234375 -0.59375q0 -0.375 0.234375 -0.609375q0.234375 -0.25 0.65625 -0.25zm8.321564 4.671875l1.453125 -4.921875l1.59375 0l-2.390625 6.875l-1.328125 0l-2.40625 -6.875l1.59375 0l1.484375 4.921875zm8.248718 1.953125l-1.546875 0l0 -7.421875l-2.265625 0.78125l0 -1.3125l3.609375 -1.328125l0.203125 0l0 9.28125zm4.450165 -1.625q0.4375 0 0.671875 0.25q0.234375 0.234375 0.234375 0.609375q0 0.359375 -0.234375 0.59375q-0.234375 0.234375 -0.671875 0.234375q-0.40625 0 -0.65625 -0.234375q-0.234375 -0.234375 -0.234375 -0.59375q0 -0.375 0.234375 -0.609375q0.234375 -0.25 0.65625 -0.25zm3.0818787 -2.953125l0.5 -4.671875l4.953125 0l0 1.34375l-3.671875 0l-0.25 2.203125q0.640625 -0.359375 1.4375 -0.359375q1.328125 0 2.0625 0.84375q0.734375 0.84375 0.734375 2.265625q0 1.40625 -0.8125 2.25q-0.8125 0.828125 -2.234375 0.828125q-1.265625 0 -2.109375 -0.71875q-0.828125 -0.71875 -0.90625 -1.90625l1.5 0q0.09375 0.671875 0.484375 1.03125q0.390625 0.359375 1.03125 0.359375q0.703125 0 1.09375 -0.5q0.40625 -0.515625 0.40625 -1.390625q0 -0.84375 -0.4375 -1.328125q-0.4375 -0.5 -1.203125 -0.5q-0.421875 0 -0.71875 0.109375q-0.296875 0.109375 -0.625 0.4375l-1.234375 -0.296875zm7.481415 6.65625l-0.84375 -0.484375q0.375 -0.578125 0.5 -1.015625q0.140625 -0.421875 0.15625 -0.875l0 -1.1875l1.390625 0l-0.015625 1.109375q0 0.671875 -0.34375 1.34375q-0.328125 0.671875 -0.84375 1.109375zm10.185059 -2.75q-0.6875 0.796875 -1.9375 0.796875q-1.109375 0 -1.6875 -0.65625q-0.578125 -0.65625 -0.578125 -1.890625l0 -4.453125l1.546875 0l0 4.4375q0 1.3125 1.09375 1.3125q1.109375 0 1.515625 -0.8125l0 -4.9375l1.53125 0l0 6.875l-1.453125 0l-0.03125 -0.671875zm7.0934753 -1.1875q0 -0.421875 -0.34375 -0.625q-0.328125 -0.21875 -1.125 -0.390625q-0.78125 -0.171875 -1.3125 -0.421875q-1.15625 -0.5625 -1.15625 -1.609375q0 -0.890625 0.75 -1.484375q0.75 -0.609375 1.90625 -0.609375q1.234375 0 1.984375 0.609375q0.765625 0.609375 0.765625 1.578125l-1.546875 0q0 -0.4375 -0.328125 -0.734375q-0.328125 -0.296875 -0.875 -0.296875q-0.515625 0 -0.84375 0.234375q-0.3125 0.234375 -0.3125 0.625q0 0.359375 0.296875 0.5625q0.3125 0.1875 1.21875 0.390625q0.90625 0.203125 1.421875 0.484375q0.515625 0.265625 0.765625 0.65625q0.25 0.390625 0.25 0.9375q0 0.9375 -0.765625 1.515625q-0.765625 0.5625 -2.015625 0.5625q-0.84375 0 -1.5 -0.296875q-0.65625 -0.3125 -1.03125 -0.84375q-0.375 -0.53125 -0.375 -1.15625l1.5 0q0.03125 0.546875 0.40625 0.84375q0.390625 0.296875 1.015625 0.296875q0.609375 0 0.921875 -0.21875q0.328125 -0.234375 0.328125 -0.609375zm6.0194397 -1.453125l-3.328125 0l0 -1.234375l3.328125 0l0 1.234375zm7.404541 -0.046875q0 1.59375 -0.734375 2.546875q-0.71875 0.9375 -1.9375 0.9375q-1.125 0 -1.8125 -0.734375l0 3.25l-1.546875 0l0 -9.515625l1.421875 0l0.0625 0.703125q0.6875 -0.828125 1.859375 -0.828125q1.25 0 1.96875 0.9375q0.71875 0.9375 0.71875 2.609375l0 0.09375zm-1.546875 -0.140625q0 -1.03125 -0.40625 -1.625q-0.40625 -0.609375 -1.171875 -0.609375q-0.9375 0 -1.359375 0.78125l0 3.046875q0.421875 0.796875 1.375 0.796875q0.734375 0 1.140625 -0.59375q0.421875 -0.59375 0.421875 -1.796875zm6.628601 -1.953125q-0.3125 -0.0625 -0.625 -0.0625q-1.0625 0 -1.4375 0.8125l0 4.703125l-1.546875 0l0 -6.875l1.484375 0l0.03125 0.78125q0.5625 -0.90625 1.546875 -0.90625q0.328125 0 0.546875 0.09375l0 1.453125zm0.79504395 1.953125q0 -1.0 0.390625 -1.8125q0.40625 -0.8125 1.125 -1.25q0.734375 -0.4375 1.671875 -0.4375q1.390625 0 2.25 0.90625q0.875 0.890625 0.9375 2.375l0.015625 0.359375q0 1.015625 -0.390625 1.8125q-0.390625 0.796875 -1.125 1.234375q-0.71875 0.4375 -1.671875 0.4375q-1.453125 0 -2.328125 -0.96875q-0.875 -0.96875 -0.875 -2.578125l0 -0.078125zm1.546875 0.140625q0 1.0625 0.4375 1.65625q0.4375 0.59375 1.21875 0.59375q0.78125 0 1.203125 -0.609375q0.4375 -0.609375 0.4375 -1.78125q0 -1.03125 -0.453125 -1.640625q-0.4375 -0.609375 -1.203125 -0.609375q-0.75 0 -1.203125 0.59375q-0.4375 0.59375 -0.4375 1.796875zm6.0412903 -0.125q0 -1.59375 0.734375 -2.546875q0.734375 -0.96875 1.984375 -0.96875q1.078125 0 1.765625 0.765625l0 -3.515625l1.53125 0l0 9.75l-1.390625 0l-0.078125 -0.71875q-0.6875 0.84375 -1.84375 0.84375q-1.203125 0 -1.953125 -0.96875q-0.75 -0.96875 -0.75 -2.640625zm1.546875 0.125q0 1.0625 0.390625 1.65625q0.40625 0.578125 1.15625 0.578125q0.9375 0 1.390625 -0.84375l0 -2.9375q-0.4375 -0.828125 -1.375 -0.828125q-0.75 0 -1.15625 0.59375q-0.40625 0.59375 -0.40625 1.78125z" fill-rule="nonzero"></path><path fill="#ffffff" d="m380.65057 210.58136l0 0c9.471649 0 17.149963 7.678299 17.149963 17.149948l0 81.00719c0 4.548462 -1.8068848 8.910614 -5.023102 12.126862c-3.2162476 3.216217 -7.5783997 5.023102 -12.126862 5.023102l-68.59775 0c-9.471649 0 -17.149933 -7.678314 -17.149933 -17.149963l0 -81.00719c0 -9.471649 7.6782837 -17.149948 17.149933 -17.149948z" fill-rule="evenodd"></path><path stroke="#7f7f7f" stroke-width="1.0" stroke-linejoin="round" stroke-linecap="butt" d="m380.65057 210.58136l0 0c9.471649 0 17.149963 7.678299 17.149963 17.149948l0 81.00719c0 4.548462 -1.8068848 8.910614 -5.023102 12.126862c-3.2162476 3.216217 -7.5783997 5.023102 -12.126862 5.023102l-68.59775 0c-9.471649 0 -17.149933 -7.678314 -17.149933 -17.149963l0 -81.00719c0 -9.471649 7.6782837 -17.149948 17.149933 -17.149948z" fill-rule="evenodd"></path><path fill="#d9ead3" d="m304.91318 287.7257l88.1575 0l0 27.527557l-88.1575 0z" fill-rule="evenodd"></path><path fill="#000000" d="m339.2046 304.4301q0 -0.421875 -0.34375 -0.625q-0.328125 -0.21875 -1.125 -0.390625q-0.78125 -0.171875 -1.3125 -0.421875q-1.15625 -0.5625 -1.15625 -1.609375q0 -0.890625 0.75 -1.484375q0.75 -0.609375 1.90625 -0.609375q1.234375 0 1.984375 0.609375q0.765625 0.609375 0.765625 1.578125l-1.546875 0q0 -0.4375 -0.328125 -0.734375q-0.328125 -0.296875 -0.875 -0.296875q-0.515625 0 -0.84375 0.234375q-0.3125 0.234375 -0.3125 0.625q0 0.359375 0.296875 0.5625q0.3125 0.1875 1.21875 0.390625q0.90625 0.203125 1.421875 0.484375q0.515625 0.265625 0.765625 0.65625q0.25 0.390625 0.25 0.9375q0 0.9375 -0.765625 1.515625q-0.765625 0.5625 -2.015625 0.5625q-0.84375 0 -1.5 -0.296875q-0.65625 -0.3125 -1.03125 -0.84375q-0.375 -0.53125 -0.375 -1.15625l1.5 0q0.03125 0.546875 0.40625 0.84375q0.390625 0.296875 1.015625 0.296875q0.609375 0 0.921875 -0.21875q0.328125 -0.234375 0.328125 -0.609375zm5.45697 -0.09375l1.453125 -4.921875l1.59375 0l-2.390625 6.875l-1.328125 0l-2.40625 -6.875l1.59375 0l1.484375 4.921875zm6.9830933 0.84375q0.578125 0 0.953125 -0.328125q0.390625 -0.34375 0.421875 -0.828125l1.453125 0q-0.03125 0.640625 -0.40625 1.203125q-0.375 0.546875 -1.015625 0.875q-0.640625 0.3125 -1.390625 0.3125q-1.4375 0 -2.28125 -0.921875q-0.84375 -0.9375 -0.84375 -2.59375l0 -0.15625q0 -1.5625 0.828125 -2.5q0.84375 -0.953125 2.296875 -0.953125q1.21875 0 1.984375 0.71875q0.78125 0.71875 0.828125 1.875l-1.453125 0q-0.03125 -0.59375 -0.40625 -0.96875q-0.375 -0.375 -0.96875 -0.375q-0.75 0 -1.15625 0.546875q-0.40625 0.53125 -0.40625 1.640625l0 0.25q0 1.109375 0.390625 1.65625q0.40625 0.546875 1.171875 0.546875zm4.3045654 1.109375l0 -9.25l3.171875 0q1.5625 0 2.375 0.640625q0.828125 0.625 0.828125 1.875q0 0.625 -0.34375 1.140625q-0.34375 0.5 -1.0 0.78125q0.75 0.203125 1.15625 0.765625q0.40625 0.5625 0.40625 1.34375q0 1.3125 -0.84375 2.015625q-0.828125 0.6875 -2.375 0.6875l-3.375 0zm1.609375 -4.171875l0 2.890625l1.78125 0q0.75 0 1.171875 -0.375q0.4375 -0.375 0.4375 -1.046875q0 -1.4375 -1.46875 -1.46875l-1.921875 0zm0 -1.171875l1.578125 0q0.75 0 1.171875 -0.34375q0.421875 -0.34375 0.421875 -0.96875q0 -0.6875 -0.390625 -0.984375q-0.390625 -0.3125 -1.21875 -0.3125l-1.5625 0l0 2.609375z" fill-rule="nonzero"></path><path fill="#cfe2f3" d="m304.73148 220.60641l86.58267 0l0 28.40944l-86.58267 0z" fill-rule="evenodd"></path><path fill="#000000" d="m336.55774 235.48613l-3.796875 0l0 2.84375l4.4375 0l0 1.28125l-6.046875 0l0 -9.25l6.0 0l0 1.296875l-4.390625 0l0 2.5625l3.796875 0l0 1.265625zm3.4111328 -2.75l0.046875 0.796875q0.765625 -0.921875 2.0 -0.921875q2.140625 0 2.1875 2.46875l0 4.53125l-1.546875 0l0 -4.453125q0 -0.65625 -0.28125 -0.96875q-0.28125 -0.3125 -0.921875 -0.3125q-0.9375 0 -1.390625 0.84375l0 4.890625l-1.546875 0l0 -6.875l1.453125 0zm8.412476 4.921875l1.453125 -4.921875l1.59375 0l-2.390625 6.875l-1.328125 0l-2.40625 -6.875l1.59375 0l1.484375 4.921875zm3.8737183 -1.546875q0 -1.0 0.390625 -1.8125q0.40625 -0.8125 1.125 -1.25q0.734375 -0.4375 1.671875 -0.4375q1.390625 0 2.25 0.90625q0.875 0.890625 0.9375 2.375l0.015625 0.359375q0 1.015625 -0.390625 1.8125q-0.390625 0.796875 -1.125 1.234375q-0.71875 0.4375 -1.671875 0.4375q-1.453125 0 -2.328125 -0.96875q-0.875 -0.96875 -0.875 -2.578125l0 -0.078125zm1.546875 0.140625q0 1.0625 0.4375 1.65625q0.4375 0.59375 1.21875 0.59375q0.78125 0 1.203125 -0.609375q0.4375 -0.609375 0.4375 -1.78125q0 -1.03125 -0.453125 -1.640625q-0.4375 -0.609375 -1.203125 -0.609375q-0.75 0 -1.203125 0.59375q-0.4375 0.59375 -0.4375 1.796875zm8.728821 1.15625l1.40625 -4.671875l1.640625 0l-2.734375 7.921875q-0.625 1.734375 -2.125 1.734375q-0.34375 0 -0.75 -0.125l0 -1.1875l0.296875 0.015625q0.578125 0 0.875 -0.21875q0.296875 -0.203125 0.46875 -0.703125l0.21875 -0.59375l-2.40625 -6.84375l1.65625 0l1.453125 4.671875z" fill-rule="nonzero"></path><path fill="#000000" fill-opacity="0.0" d="m348.0228 249.01585l0.5984497 36.220474" fill-rule="evenodd"></path><path stroke="#4f81bd" stroke-width="1.0" stroke-linejoin="round" stroke-linecap="butt" d="m348.0794 252.44246l0.4852295 29.367264" fill-rule="evenodd"></path><path fill="#4f81bd" stroke="#4f81bd" stroke-width="1.0" stroke-linecap="butt" d="m348.0794 252.44247l1.1430054 1.1058502l-1.1754456 -3.0707703l-1.0733948 3.1079254z" fill-rule="evenodd"></path><path fill="#4f81bd" stroke="#4f81bd" stroke-width="1.0" stroke-linecap="butt" d="m348.5646 281.8097l-1.1430054 -1.105835l1.1754761 3.0707703l1.0733948 -3.1079407z" fill-rule="evenodd"></path><path fill="#000000" fill-opacity="0.0" d="m288.01312 325.88846l168.97638 0l0 31.24408l-168.97638 0z" fill-rule="evenodd"></path><path fill="#000000" d="m298.88812 338.54907l2.171875 -6.671875l1.625 0l-3.078125 8.53125l-1.421875 0l-3.0625 -8.53125l1.625 0l2.140625 6.671875zm7.404297 1.984375q-1.34375 0 -2.1875 -0.859375q-0.84375 -0.859375 -0.84375 -2.265625l0 -0.1875q0 -0.9375 0.359375 -1.6875q0.375 -0.75 1.03125 -1.15625q0.671875 -0.421875 1.484375 -0.421875q1.296875 0 2.0 0.828125q0.703125 0.8125 0.703125 2.328125l0 0.578125l-4.140625 0q0.0625 0.78125 0.515625 1.25q0.46875 0.453125 1.171875 0.453125q0.96875 0 1.59375 -0.796875l0.765625 0.734375q-0.390625 0.5625 -1.03125 0.890625q-0.625 0.3125 -1.421875 0.3125zm-0.15625 -5.4375q-0.59375 0 -0.953125 0.40625q-0.359375 0.40625 -0.453125 1.140625l2.703125 0l0 -0.109375q-0.046875 -0.703125 -0.390625 -1.0625q-0.328125 -0.375 -0.90625 -0.375zm7.126953 0.265625q-0.28125 -0.046875 -0.578125 -0.046875q-0.984375 0 -1.3125 0.75l0 4.34375l-1.421875 0l0 -6.34375l1.359375 0l0.03125 0.71875q0.515625 -0.828125 1.421875 -0.828125q0.3125 0 0.515625 0.078125l-0.015625 1.328125zm4.453125 3.328125q0 -0.390625 -0.3125 -0.578125q-0.3125 -0.203125 -1.046875 -0.359375q-0.71875 -0.15625 -1.203125 -0.390625q-1.0625 -0.515625 -1.0625 -1.484375q0 -0.828125 0.6875 -1.375q0.6875 -0.546875 1.75 -0.546875q1.140625 0 1.84375 0.5625q0.703125 0.5625 0.703125 1.453125l-1.421875 0q0 -0.40625 -0.3125 -0.671875q-0.296875 -0.28125 -0.8125 -0.28125q-0.46875 0 -0.765625 0.21875q-0.28125 0.21875 -0.28125 0.578125q0 0.328125 0.265625 0.515625q0.28125 0.171875 1.109375 0.359375q0.84375 0.1875 1.3125 0.4375q0.484375 0.25 0.71875 0.609375q0.234375 0.359375 0.234375 0.875q0 0.859375 -0.71875 1.390625q-0.703125 0.53125 -1.84375 0.53125q-0.78125 0 -1.390625 -0.28125q-0.609375 -0.296875 -0.953125 -0.78125q-0.34375 -0.5 -0.34375 -1.0625l1.390625 0q0.03125 0.5 0.375 0.78125q0.359375 0.265625 0.9375 0.265625q0.5625 0 0.84375 -0.203125q0.296875 -0.21875 0.296875 -0.5625zm4.1621094 1.71875l-1.421875 0l0 -6.34375l1.421875 0l0 6.34375zm-1.515625 -7.984375q0 -0.328125 0.203125 -0.546875q0.21875 -0.21875 0.59375 -0.21875q0.390625 0 0.59375 0.21875q0.21875 0.21875 0.21875 0.546875q0 0.3125 -0.21875 0.53125q-0.203125 0.21875 -0.59375 0.21875q-0.375 0 -0.59375 -0.21875q-0.203125 -0.21875 -0.203125 -0.53125zm2.7988281 4.75q0 -0.921875 0.359375 -1.671875q0.375 -0.75 1.03125 -1.140625q0.671875 -0.40625 1.546875 -0.40625q1.28125 0 2.078125 0.828125q0.796875 0.8125 0.875 2.1875l0 0.328125q0 0.9375 -0.359375 1.6875q-0.359375 0.734375 -1.03125 1.140625q-0.671875 0.40625 -1.546875 0.40625q-1.34375 0 -2.15625 -0.890625q-0.796875 -0.90625 -0.796875 -2.390625l0 -0.078125zm1.421875 0.125q0 0.984375 0.40625 1.546875q0.40625 0.546875 1.125 0.546875q0.71875 0 1.109375 -0.5625q0.40625 -0.5625 0.40625 -1.65625q0 -0.953125 -0.421875 -1.515625q-0.40625 -0.5625 -1.109375 -0.5625q-0.703125 0 -1.109375 0.5625q-0.40625 0.546875 -0.40625 1.640625zm6.9882812 -3.234375l0.046875 0.734375q0.703125 -0.84375 1.84375 -0.84375q1.984375 0 2.015625 2.265625l0 4.1875l-1.421875 0l0 -4.109375q0 -0.609375 -0.265625 -0.890625q-0.25 -0.296875 -0.84375 -0.296875q-0.859375 0 -1.28125 0.78125l0 4.515625l-1.4375 0l0 -6.34375l1.34375 0zm6.251953 4.84375q0.390625 0 0.609375 0.234375q0.21875 0.21875 0.21875 0.5625q0 0.328125 -0.21875 0.546875q-0.21875 0.21875 -0.609375 0.21875q-0.390625 0 -0.609375 -0.21875q-0.21875 -0.21875 -0.21875 -0.546875q0 -0.34375 0.203125 -0.5625q0.21875 -0.234375 0.625 -0.234375zm0 -5.0q0.390625 0 0.609375 0.234375q0.21875 0.21875 0.21875 0.5625q0 0.328125 -0.21875 0.546875q-0.21875 0.21875 -0.609375 0.21875q-0.390625 0 -0.609375 -0.21875q-0.21875 -0.21875 -0.21875 -0.546875q0 -0.34375 0.203125 -0.5625q0.21875 -0.234375 0.625 -0.234375zm7.513672 4.6875l1.34375 -4.53125l1.46875 0l-2.203125 6.34375l-1.234375 0l-2.21875 -6.34375l1.484375 0l1.359375 4.53125zm9.341797 1.8125l-5.734375 0l0 -0.984375l2.84375 -3.09375q0.609375 -0.6875 0.875 -1.140625q0.265625 -0.46875 0.265625 -0.921875q0 -0.609375 -0.34375 -0.984375q-0.34375 -0.375 -0.921875 -0.375q-0.703125 0 -1.078125 0.421875q-0.375 0.421875 -0.375 1.140625l-1.4375 0q0 -0.765625 0.359375 -1.390625q0.359375 -0.625 1.015625 -0.96875q0.65625 -0.359375 1.515625 -0.359375q1.25 0 1.96875 0.625q0.71875 0.625 0.71875 1.734375q0 0.640625 -0.359375 1.34375q-0.359375 0.6875 -1.1875 1.578125l-2.078125 2.234375l3.953125 0l0 1.140625zm2.0703125 -1.5q0.390625 0 0.609375 0.234375q0.21875 0.21875 0.21875 0.5625q0 0.328125 -0.21875 0.546875q-0.21875 0.21875 -0.609375 0.21875q-0.390625 0 -0.609375 -0.21875q-0.21875 -0.21875 -0.21875 -0.546875q0 -0.34375 0.203125 -0.5625q0.21875 -0.234375 0.625 -0.234375zm7.9296875 -2.09375q0 1.84375 -0.6875 2.78125q-0.6875 0.9375 -2.09375 0.9375q-1.390625 0 -2.09375 -0.90625q-0.6875 -0.921875 -0.71875 -2.71875l0 -1.46875q0 -1.84375 0.6875 -2.765625q0.703125 -0.921875 2.109375 -0.921875q1.40625 0 2.09375 0.90625q0.6875 0.890625 0.703125 2.6875l0 1.46875zm-1.421875 -1.59375q0 -1.203125 -0.328125 -1.75q-0.328125 -0.5625 -1.046875 -0.5625q-0.703125 0 -1.03125 0.53125q-0.328125 0.515625 -0.34375 1.640625l0 1.9375q0 1.203125 0.328125 1.796875q0.34375 0.578125 1.0625 0.578125q0.6875 0 1.015625 -0.546875q0.328125 -0.546875 0.34375 -1.703125l0 -1.921875zm5.5390625 2.140625l-3.078125 0l0 -1.15625l3.078125 0l0 1.15625zm4.953125 3.046875q-0.09375 -0.1875 -0.15625 -0.59375q-0.6875 0.71875 -1.671875 0.71875q-0.953125 0 -1.5625 -0.546875q-0.59375 -0.546875 -0.59375 -1.359375q0 -1.015625 0.75 -1.546875q0.75 -0.546875 2.15625 -0.546875l0.875 0l0 -0.421875q0 -0.484375 -0.28125 -0.78125q-0.28125 -0.296875 -0.84375 -0.296875q-0.484375 0 -0.796875 0.25q-0.296875 0.234375 -0.296875 0.609375l-1.4375 0q0 -0.515625 0.34375 -0.96875q0.359375 -0.453125 0.953125 -0.703125q0.59375 -0.265625 1.328125 -0.265625q1.109375 0 1.765625 0.5625q0.671875 0.546875 0.6875 1.5625l0 2.859375q0 0.859375 0.234375 1.375l0 0.09375l-1.453125 0zm-1.5625 -1.03125q0.421875 0 0.796875 -0.203125q0.375 -0.203125 0.5625 -0.546875l0 -1.203125l-0.765625 0q-0.796875 0 -1.203125 0.28125q-0.390625 0.28125 -0.390625 0.78125q0 0.40625 0.265625 0.65625q0.28125 0.234375 0.734375 0.234375zm5.7890625 1.03125l-1.421875 0l0 -9.0l1.421875 0l0 9.0zm7.095703 -3.109375q0 1.46875 -0.671875 2.359375q-0.65625 0.875 -1.78125 0.875q-1.046875 0 -1.671875 -0.6875l0 3.0l-1.421875 0l0 -8.78125l1.3125 0l0.046875 0.640625q0.625 -0.75 1.703125 -0.75q1.171875 0 1.828125 0.859375q0.65625 0.859375 0.65625 2.40625l0 0.078125zm-1.421875 -0.125q0 -0.9375 -0.375 -1.5q-0.375 -0.5625 -1.078125 -0.5625q-0.875 0 -1.25 0.71875l0 2.8125q0.375 0.75 1.265625 0.75q0.671875 0 1.046875 -0.546875q0.390625 -0.546875 0.390625 -1.671875zm4.0371094 -2.421875q0.6875 -0.796875 1.75 -0.796875q2.03125 0 2.0625 2.3125l0 4.140625l-1.421875 0l0 -4.09375q0 -0.65625 -0.28125 -0.921875q-0.28125 -0.28125 -0.84375 -0.28125q-0.84375 0 -1.265625 0.765625l0 4.53125l-1.4375 0l0 -9.0l1.4375 0l0 3.34375zm9.037109 5.65625q-0.09375 -0.1875 -0.15625 -0.59375q-0.6875 0.71875 -1.671875 0.71875q-0.953125 0 -1.5625 -0.546875q-0.59375 -0.546875 -0.59375 -1.359375q0 -1.015625 0.75 -1.546875q0.75 -0.546875 2.15625 -0.546875l0.875 0l0 -0.421875q0 -0.484375 -0.28125 -0.78125q-0.28125 -0.296875 -0.84375 -0.296875q-0.484375 0 -0.796875 0.25q-0.296875 0.234375 -0.296875 0.609375l-1.4375 0q0 -0.515625 0.34375 -0.96875q0.359375 -0.453125 0.953125 -0.703125q0.59375 -0.265625 1.328125 -0.265625q1.109375 0 1.765625 0.5625q0.671875 0.546875 0.6875 1.5625l0 2.859375q0 0.859375 0.234375 1.375l0 0.09375l-1.453125 0zm-1.5625 -1.03125q0.421875 0 0.796875 -0.203125q0.375 -0.203125 0.5625 -0.546875l0 -1.203125l-0.765625 0q-0.796875 0 -1.203125 0.28125q-0.390625 0.28125 -0.390625 0.78125q0 0.40625 0.265625 0.65625q0.28125 0.234375 0.734375 0.234375zm4.4765625 2.953125l-0.765625 -0.453125q0.328125 -0.53125 0.453125 -0.9375q0.125 -0.390625 0.140625 -0.796875l0 -1.109375l1.28125 0l0 1.015625q-0.015625 0.625 -0.328125 1.25q-0.296875 0.625 -0.78125 1.03125z" fill-rule="nonzero"></path><path fill="#000000" d="m299.59125 353.78345q-0.640625 0.75 -1.78125 0.75q-1.03125 0 -1.5625 -0.609375q-0.53125 -0.609375 -0.53125 -1.75l0 -4.109375l1.421875 0l0 4.09375q0 1.203125 1.0 1.203125q1.03125 0 1.40625 -0.734375l0 -4.5625l1.421875 0l0 6.34375l-1.34375 0l-0.03125 -0.625zm6.3710938 -1.09375q0 -0.390625 -0.3125 -0.578125q-0.3125 -0.203125 -1.046875 -0.359375q-0.71875 -0.15625 -1.203125 -0.390625q-1.0625 -0.515625 -1.0625 -1.484375q0 -0.828125 0.6875 -1.375q0.6875 -0.546875 1.75 -0.546875q1.140625 0 1.84375 0.5625q0.703125 0.5625 0.703125 1.453125l-1.421875 0q0 -0.40625 -0.3125 -0.671875q-0.296875 -0.28125 -0.8125 -0.28125q-0.46875 0 -0.765625 0.21875q-0.28125 0.21875 -0.28125 0.578125q0 0.328125 0.265625 0.515625q0.28125 0.171875 1.109375 0.359375q0.84375 0.1875 1.3125 0.4375q0.484375 0.25 0.71875 0.609375q0.234375 0.359375 0.234375 0.875q0 0.859375 -0.71875 1.390625q-0.703125 0.53125 -1.84375 0.53125q-0.78125 0 -1.390625 -0.28125q-0.609375 -0.296875 -0.953125 -0.78125q-0.34375 -0.5 -0.34375 -1.0625l1.390625 0q0.03125 0.5 0.375 0.78125q0.359375 0.265625 0.9375 0.265625q0.5625 0 0.84375 -0.203125q0.296875 -0.21875 0.296875 -0.5625zm5.4121094 -1.328125l-3.078125 0l0 -1.15625l3.078125 0l0 1.15625zm4.71875 1.328125q0 -0.390625 -0.3125 -0.578125q-0.3125 -0.203125 -1.046875 -0.359375q-0.71875 -0.15625 -1.203125 -0.390625q-1.0625 -0.515625 -1.0625 -1.484375q0 -0.828125 0.6875 -1.375q0.6875 -0.546875 1.75 -0.546875q1.140625 0 1.84375 0.5625q0.703125 0.5625 0.703125 1.453125l-1.421875 0q0 -0.40625 -0.3125 -0.671875q-0.296875 -0.28125 -0.8125 -0.28125q-0.46875 0 -0.765625 0.21875q-0.28125 0.21875 -0.28125 0.578125q0 0.328125 0.265625 0.515625q0.28125 0.171875 1.109375 0.359375q0.84375 0.1875 1.3125 0.4375q0.484375 0.25 0.71875 0.609375q0.234375 0.359375 0.234375 0.875q0 0.859375 -0.71875 1.390625q-0.703125 0.53125 -1.84375 0.53125q-0.78125 0 -1.390625 -0.28125q-0.609375 -0.296875 -0.953125 -0.78125q-0.34375 -0.5 -0.34375 -1.0625l1.390625 0q0.03125 0.5 0.375 0.78125q0.359375 0.265625 0.9375 0.265625q0.5625 0 0.84375 -0.203125q0.296875 -0.21875 0.296875 -0.5625zm4.4277344 -6.15625l0 1.53125l1.125 0l0 1.0625l-1.125 0l0 3.53125q0 0.359375 0.140625 0.53125q0.140625 0.15625 0.515625 0.15625q0.25 0 0.5 -0.0625l0 1.109375q-0.484375 0.140625 -0.9375 0.140625q-1.640625 0 -1.640625 -1.8125l0 -3.59375l-1.046875 0l0 -1.0625l1.046875 0l0 -1.53125l1.421875 0zm5.9902344 7.875q-0.09375 -0.1875 -0.15625 -0.59375q-0.6875 0.71875 -1.671875 0.71875q-0.953125 0 -1.5625 -0.546875q-0.59375 -0.546875 -0.59375 -1.359375q0 -1.015625 0.75 -1.546875q0.75 -0.546875 2.15625 -0.546875l0.875 0l0 -0.421875q0 -0.484375 -0.28125 -0.78125q-0.28125 -0.296875 -0.84375 -0.296875q-0.484375 0 -0.796875 0.25q-0.296875 0.234375 -0.296875 0.609375l-1.4375 0q0 -0.515625 0.34375 -0.96875q0.359375 -0.453125 0.953125 -0.703125q0.59375 -0.265625 1.328125 -0.265625q1.109375 0 1.765625 0.5625q0.671875 0.546875 0.6875 1.5625l0 2.859375q0 0.859375 0.234375 1.375l0 0.09375l-1.453125 0zm-1.5625 -1.03125q0.421875 0 0.796875 -0.203125q0.375 -0.203125 0.5625 -0.546875l0 -1.203125l-0.765625 0q-0.796875 0 -1.203125 0.28125q-0.390625 0.28125 -0.390625 0.78125q0 0.40625 0.265625 0.65625q0.28125 0.234375 0.734375 0.234375zm4.0234375 -2.1875q0 -1.46875 0.6875 -2.34375q0.703125 -0.890625 1.84375 -0.890625q1.09375 0 1.703125 0.75l0.0625 -0.640625l1.296875 0l0 6.15625q0 1.25 -0.78125 1.96875q-0.78125 0.71875 -2.09375 0.71875q-0.703125 0 -1.375 -0.296875q-0.65625 -0.28125 -1.0 -0.75l0.671875 -0.859375q0.65625 0.78125 1.625 0.78125q0.703125 0 1.109375 -0.390625q0.40625 -0.375 0.40625 -1.125l0 -0.421875q-0.609375 0.6875 -1.640625 0.6875q-1.109375 0 -1.8125 -0.890625q-0.703125 -0.890625 -0.703125 -2.453125zm1.421875 0.125q0 0.953125 0.375 1.5q0.390625 0.546875 1.09375 0.546875q0.859375 0 1.265625 -0.734375l0 -2.796875q-0.390625 -0.71875 -1.265625 -0.71875q-0.703125 0 -1.09375 0.5625q-0.375 0.5625 -0.375 1.640625zm7.1464844 3.09375l-1.421875 0l0 -6.34375l1.421875 0l0 6.34375zm-1.515625 -7.984375q0 -0.328125 0.203125 -0.546875q0.21875 -0.21875 0.59375 -0.21875q0.390625 0 0.59375 0.21875q0.21875 0.21875 0.21875 0.546875q0 0.3125 -0.21875 0.53125q-0.203125 0.21875 -0.59375 0.21875q-0.375 0 -0.59375 -0.21875q-0.203125 -0.21875 -0.203125 -0.53125zm4.376953 1.640625l0.046875 0.734375q0.703125 -0.84375 1.84375 -0.84375q1.984375 0 2.015625 2.265625l0 4.1875l-1.421875 0l0 -4.109375q0 -0.609375 -0.265625 -0.890625q-0.25 -0.296875 -0.84375 -0.296875q-0.859375 0 -1.28125 0.78125l0 4.515625l-1.4375 0l0 -6.34375l1.34375 0zm5.111328 3.125q0 -1.46875 0.6875 -2.34375q0.703125 -0.890625 1.84375 -0.890625q1.09375 0 1.703125 0.75l0.0625 -0.640625l1.296875 0l0 6.15625q0 1.25 -0.78125 1.96875q-0.78125 0.71875 -2.09375 0.71875q-0.703125 0 -1.375 -0.296875q-0.65625 -0.28125 -1.0 -0.75l0.671875 -0.859375q0.65625 0.78125 1.625 0.78125q0.703125 0 1.109375 -0.390625q0.40625 -0.375 0.40625 -1.125l0 -0.421875q-0.609375 0.6875 -1.640625 0.6875q-1.109375 0 -1.8125 -0.890625q-0.703125 -0.890625 -0.703125 -2.453125zm1.421875 0.125q0 0.953125 0.375 1.5q0.390625 0.546875 1.09375 0.546875q0.859375 0 1.265625 -0.734375l0 -2.796875q-0.390625 -0.71875 -1.265625 -0.71875q-0.703125 0 -1.09375 0.5625q-0.375 0.5625 -0.375 1.640625z" fill-rule="nonzero"></path><path fill="#000000" fill-opacity="0.0" d="m105.980316 160.93964l198.74014 73.85826" fill-rule="evenodd"></path><path stroke="#4f81bd" stroke-width="1.0" stroke-linejoin="round" stroke-linecap="butt" d="m105.980316 160.93964l195.52774 72.66443" fill-rule="evenodd"></path><path fill="#4f81bd" stroke="#4f81bd" stroke-width="1.0" stroke-linecap="butt" d="m301.50806 233.60406l-1.4458923 0.66238403l3.2879639 0.02218628l-2.5044556 -2.130478z" fill-rule="evenodd"></path><path fill="#000000" fill-opacity="0.0" d="m275.31635 5.8713913l178.89764 0l0 23.52756l-178.89764 0z" fill-rule="evenodd"></path><path fill="#000000" d="m286.95697 19.812016q0 -0.421875 -0.34375 -0.625q-0.328125 -0.21875 -1.125 -0.390625q-0.78125 -0.171875 -1.3125 -0.421875q-1.15625 -0.5625 -1.15625 -1.609375q0 -0.890625 0.75 -1.484375q0.75 -0.609375 1.90625 -0.609375q1.234375 0 1.984375 0.609375q0.765625 0.609375 0.765625 1.578125l-1.546875 0q0 -0.4375 -0.328125 -0.734375q-0.328125 -0.296875 -0.875 -0.296875q-0.515625 0 -0.84375 0.234375q-0.3125 0.234375 -0.3125 0.625q0 0.359375 0.296875 0.5625q0.3125 0.1875 1.21875 0.390625q0.90625 0.203125 1.421875 0.484375q0.515625 0.265625 0.765625 0.65625q0.25 0.390625 0.25 0.9375q0 0.9375 -0.765625 1.515625q-0.765625 0.5625 -2.015625 0.5625q-0.84375 0 -1.5 -0.296875q-0.65625 -0.3125 -1.03125 -0.84375q-0.375 -0.53125 -0.375 -1.15625l1.5 0q0.03125 0.546875 0.40625 0.84375q0.390625 0.296875 1.015625 0.296875q0.609375 0 0.921875 -0.21875q0.328125 -0.234375 0.328125 -0.609375zm6.0506897 1.984375q-1.46875 0 -2.375 -0.921875q-0.90625 -0.921875 -0.90625 -2.453125l0 -0.203125q0 -1.015625 0.390625 -1.828125q0.40625 -0.8125 1.109375 -1.265625q0.71875 -0.453125 1.609375 -0.453125q1.40625 0 2.15625 0.90625q0.765625 0.890625 0.765625 2.53125l0 0.609375l-4.484375 0q0.078125 0.859375 0.578125 1.359375q0.5 0.484375 1.25 0.484375q1.0625 0 1.71875 -0.859375l0.84375 0.796875q-0.421875 0.625 -1.109375 0.96875q-0.6875 0.328125 -1.546875 0.328125zm-0.1875 -5.875q-0.625 0 -1.015625 0.4375q-0.390625 0.4375 -0.5 1.234375l2.9375 0l0 -0.109375q-0.046875 -0.78125 -0.421875 -1.171875q-0.359375 -0.390625 -1.0 -0.390625zm7.9177856 0.296875q-0.3125 -0.0625 -0.625 -0.0625q-1.0625 0 -1.4375 0.8125l0 4.703125l-1.546875 0l0 -6.875l1.484375 0l0.03125 0.78125q0.5625 -0.90625 1.546875 -0.90625q0.328125 0 0.546875 0.09375l0 1.453125zm3.513794 3.5l1.453125 -4.921875l1.59375 0l-2.390625 6.875l-1.328125 0l-2.40625 -6.875l1.59375 0l1.484375 4.921875zm5.811249 1.953125l-1.546875 0l0 -6.875l1.546875 0l0 6.875zm-1.640625 -8.65625q0 -0.34375 0.21875 -0.578125q0.234375 -0.25 0.640625 -0.25q0.421875 0 0.65625 0.25q0.234375 0.234375 0.234375 0.578125q0 0.359375 -0.234375 0.59375q-0.234375 0.21875 -0.65625 0.21875q-0.40625 0 -0.640625 -0.21875q-0.21875 -0.234375 -0.21875 -0.59375zm6.2161255 7.546875q0.578125 0 0.953125 -0.328125q0.390625 -0.34375 0.421875 -0.828125l1.453125 0q-0.03125 0.640625 -0.40625 1.203125q-0.375 0.546875 -1.015625 0.875q-0.640625 0.3125 -1.390625 0.3125q-1.4375 0 -2.28125 -0.921875q-0.84375 -0.9375 -0.84375 -2.59375l0 -0.15625q0 -1.5625 0.828125 -2.5q0.84375 -0.953125 2.296875 -0.953125q1.21875 0 1.984375 0.71875q0.78125 0.71875 0.828125 1.875l-1.453125 0q-0.03125 -0.59375 -0.40625 -0.96875q-0.375 -0.375 -0.96875 -0.375q-0.75 0 -1.15625 0.546875q-0.40625 0.53125 -0.40625 1.640625l0 0.25q0 1.109375 0.390625 1.65625q0.40625 0.546875 1.171875 0.546875zm7.1795654 1.234375q-1.46875 0 -2.375 -0.921875q-0.90625 -0.921875 -0.90625 -2.453125l0 -0.203125q0 -1.015625 0.390625 -1.828125q0.40625 -0.8125 1.109375 -1.265625q0.71875 -0.453125 1.609375 -0.453125q1.40625 0 2.15625 0.90625q0.765625 0.890625 0.765625 2.53125l0 0.609375l-4.484375 0q0.078125 0.859375 0.578125 1.359375q0.5 0.484375 1.25 0.484375q1.0625 0 1.71875 -0.859375l0.84375 0.796875q-0.421875 0.625 -1.109375 0.96875q-0.6875 0.328125 -1.546875 0.328125zm-0.1875 -5.875q-0.625 0 -1.015625 0.4375q-0.390625 0.4375 -0.5 1.234375l2.9375 0l0 -0.109375q-0.046875 -0.78125 -0.421875 -1.171875q-0.359375 -0.390625 -1.0 -0.390625zm4.4646606 5.75l0 -9.25l3.171875 0q1.5625 0 2.375 0.640625q0.828125 0.625 0.828125 1.875q0 0.625 -0.34375 1.140625q-0.34375 0.5 -1.0 0.78125q0.75 0.203125 1.15625 0.765625q0.40625 0.5625 0.40625 1.34375q0 1.3125 -0.84375 2.015625q-0.828125 0.6875 -2.375 0.6875l-3.375 0zm1.609375 -4.171875l0 2.890625l1.78125 0q0.75 0 1.171875 -0.375q0.4375 -0.375 0.4375 -1.046875q0 -1.4375 -1.46875 -1.46875l-1.921875 0zm0 -1.171875l1.578125 0q0.75 0 1.171875 -0.34375q0.421875 -0.34375 0.421875 -0.96875q0 -0.6875 -0.390625 -0.984375q-0.390625 -0.3125 -1.21875 -0.3125l-1.5625 0l0 2.609375zm7.6112976 3.71875q0.4375 0 0.671875 0.25q0.234375 0.234375 0.234375 0.609375q0 0.359375 -0.234375 0.59375q-0.234375 0.234375 -0.671875 0.234375q-0.40625 0 -0.65625 -0.234375q-0.234375 -0.234375 -0.234375 -0.59375q0 -0.375 0.234375 -0.609375q0.234375 -0.25 0.65625 -0.25zm5.7850037 1.75q-1.46875 0 -2.375 -0.921875q-0.90625 -0.921875 -0.90625 -2.453125l0 -0.203125q0 -1.015625 0.390625 -1.828125q0.40625 -0.8125 1.109375 -1.265625q0.71875 -0.453125 1.609375 -0.453125q1.40625 0 2.15625 0.90625q0.765625 0.890625 0.765625 2.53125l0 0.609375l-4.484375 0q0.078125 0.859375 0.578125 1.359375q0.5 0.484375 1.25 0.484375q1.0625 0 1.71875 -0.859375l0.84375 0.796875q-0.421875 0.625 -1.109375 0.96875q-0.6875 0.328125 -1.546875 0.328125zm-0.1875 -5.875q-0.625 0 -1.015625 0.4375q-0.390625 0.4375 -0.5 1.234375l2.9375 0l0 -0.109375q-0.046875 -0.78125 -0.421875 -1.171875q-0.359375 -0.390625 -1.0 -0.390625zm6.7771606 1.140625l1.3125 -2.265625l1.71875 0l-2.109375 3.390625l2.171875 3.484375l-1.703125 0l-1.359375 -2.34375l-1.375 2.34375l-1.703125 0l2.171875 -3.484375l-2.109375 -3.390625l1.703125 0l1.28125 2.265625zm8.3437195 4.609375q-0.09375 -0.203125 -0.171875 -0.640625q-0.734375 0.765625 -1.8125 0.765625q-1.03125 0 -1.6875 -0.578125q-0.640625 -0.59375 -0.640625 -1.46875q0 -1.09375 0.8125 -1.6875q0.8125 -0.59375 2.328125 -0.59375l0.953125 0l0 -0.4375q0 -0.546875 -0.3125 -0.859375q-0.296875 -0.328125 -0.90625 -0.328125q-0.515625 0 -0.859375 0.265625q-0.328125 0.265625 -0.328125 0.671875l-1.546875 0q0 -0.5625 0.375 -1.046875q0.375 -0.5 1.015625 -0.78125q0.640625 -0.28125 1.4375 -0.28125q1.203125 0 1.921875 0.609375q0.71875 0.609375 0.734375 1.703125l0 3.09375q0 0.9375 0.265625 1.484375l0 0.109375l-1.578125 0zm-1.6875 -1.109375q0.453125 0 0.859375 -0.21875q0.40625 -0.234375 0.609375 -0.609375l0 -1.28125l-0.84375 0q-0.84375 0 -1.28125 0.296875q-0.4375 0.296875 -0.4375 0.84375q0 0.4375 0.296875 0.703125q0.296875 0.265625 0.796875 0.265625zm6.241974 -5.765625l0.046875 0.71875q0.734375 -0.84375 1.984375 -0.84375q1.375 0 1.890625 1.0625q0.75 -1.0625 2.109375 -1.0625q1.125 0 1.671875 0.640625q0.5625 0.625 0.578125 1.84375l0 4.515625l-1.546875 0l0 -4.46875q0 -0.65625 -0.28125 -0.953125q-0.28125 -0.3125 -0.9375 -0.3125q-0.53125 0 -0.875 0.28125q-0.328125 0.28125 -0.453125 0.75l0 4.703125l-1.546875 0l0 -4.515625q-0.03125 -1.21875 -1.234375 -1.21875q-0.921875 0 -1.3125 0.75l0 4.984375l-1.546875 0l0 -6.875l1.453125 0zm16.17517 3.515625q0 1.59375 -0.734375 2.546875q-0.71875 0.9375 -1.9375 0.9375q-1.125 0 -1.8125 -0.734375l0 3.25l-1.546875 0l0 -9.515625l1.421875 0l0.0625 0.703125q0.6875 -0.828125 1.859375 -0.828125q1.25 0 1.96875 0.9375q0.71875 0.9375 0.71875 2.609375l0 0.09375zm-1.546875 -0.140625q0 -1.03125 -0.40625 -1.625q-0.40625 -0.609375 -1.171875 -0.609375q-0.9375 0 -1.359375 0.78125l0 3.046875q0.421875 0.796875 1.375 0.796875q0.734375 0 1.140625 -0.59375q0.421875 -0.59375 0.421875 -1.796875zm4.6754456 3.5l-1.546875 0l0 -9.75l1.546875 0l0 9.75zm4.7786255 0.125q-1.46875 0 -2.375 -0.921875q-0.90625 -0.921875 -0.90625 -2.453125l0 -0.203125q0 -1.015625 0.390625 -1.828125q0.40625 -0.8125 1.109375 -1.265625q0.71875 -0.453125 1.609375 -0.453125q1.40625 0 2.15625 0.90625q0.765625 0.890625 0.765625 2.53125l0 0.609375l-4.484375 0q0.078125 0.859375 0.578125 1.359375q0.5 0.484375 1.25 0.484375q1.0625 0 1.71875 -0.859375l0.84375 0.796875q-0.421875 0.625 -1.109375 0.96875q-0.6875 0.328125 -1.546875 0.328125zm-0.1875 -5.875q-0.625 0 -1.015625 0.4375q-0.390625 0.4375 -0.5 1.234375l2.9375 0l0 -0.109375q-0.046875 -0.78125 -0.421875 -1.171875q-0.359375 -0.390625 -1.0 -0.390625zm5.2771606 4.125q0.4375 0 0.671875 0.25q0.234375 0.234375 0.234375 0.609375q0 0.359375 -0.234375 0.59375q-0.234375 0.234375 -0.671875 0.234375q-0.40625 0 -0.65625 -0.234375q-0.234375 -0.234375 -0.234375 -0.59375q0 -0.375 0.234375 -0.609375q0.234375 -0.25 0.65625 -0.25zm5.5818787 0.515625q0.578125 0 0.953125 -0.328125q0.390625 -0.34375 0.421875 -0.828125l1.453125 0q-0.03125 0.640625 -0.40625 1.203125q-0.375 0.546875 -1.015625 0.875q-0.640625 0.3125 -1.390625 0.3125q-1.4375 0 -2.28125 -0.921875q-0.84375 -0.9375 -0.84375 -2.59375l0 -0.15625q0 -1.5625 0.828125 -2.5q0.84375 -0.953125 2.296875 -0.953125q1.21875 0 1.984375 0.71875q0.78125 0.71875 0.828125 1.875l-1.453125 0q-0.03125 -0.59375 -0.40625 -0.96875q-0.375 -0.375 -0.96875 -0.375q-0.75 0 -1.15625 0.546875q-0.40625 0.53125 -0.40625 1.640625l0 0.25q0 1.109375 0.390625 1.65625q0.40625 0.546875 1.171875 0.546875zm3.8670654 -2.390625q0 -1.0 0.390625 -1.8125q0.40625 -0.8125 1.125 -1.25q0.734375 -0.4375 1.671875 -0.4375q1.390625 0 2.25 0.90625q0.875 0.890625 0.9375 2.375l0.015625 0.359375q0 1.015625 -0.390625 1.8125q-0.390625 0.796875 -1.125 1.234375q-0.71875 0.4375 -1.671875 0.4375q-1.453125 0 -2.328125 -0.96875q-0.875 -0.96875 -0.875 -2.578125l0 -0.078125zm1.546875 0.140625q0 1.0625 0.4375 1.65625q0.4375 0.59375 1.21875 0.59375q0.78125 0 1.203125 -0.609375q0.4375 -0.609375 0.4375 -1.78125q0 -1.03125 -0.453125 -1.640625q-0.4375 -0.609375 -1.203125 -0.609375q-0.75 0 -1.203125 0.59375q-0.4375 0.59375 -0.4375 1.796875zm7.775696 -3.515625l0.046875 0.71875q0.734375 -0.84375 1.984375 -0.84375q1.375 0 1.890625 1.0625q0.75 -1.0625 2.109375 -1.0625q1.125 0 1.671875 0.640625q0.5625 0.625 0.578125 1.84375l0 4.515625l-1.546875 0l0 -4.46875q0 -0.65625 -0.28125 -0.953125q-0.28125 -0.3125 -0.9375 -0.3125q-0.53125 0 -0.875 0.28125q-0.328125 0.28125 -0.453125 0.75l0 4.703125l-1.546875 0l0 -4.515625q-0.03125 -1.21875 -1.234375 -1.21875q-0.921875 0 -1.3125 0.75l0 4.984375l-1.546875 0l0 -6.875l1.453125 0z" fill-rule="nonzero"></path><path fill="#ffffff" d="m11.238845 31.641825l0 0c0 -2.5338936 2.0541258 -4.5880184 4.5880184 -4.5880184l93.721596 0c1.2168198 0 2.3838043 0.48337936 3.2442245 1.3437996c0.8604202 0.8604202 1.3437958 2.027401 1.3437958 3.2442188l0 18.351522c0 2.5338936 -2.054123 4.5880165 -4.5880203 4.5880165l-93.721596 0c-2.5338926 0 -4.5880184 -2.054123 -4.5880184 -4.5880165z" fill-rule="evenodd"></path><path stroke="#7f7f7f" stroke-width="1.0" stroke-linejoin="round" stroke-linecap="butt" d="m11.238845 31.641825l0 0c0 -2.5338936 2.0541258 -4.5880184 4.5880184 -4.5880184l93.721596 0c1.2168198 0 2.3838043 0.48337936 3.2442245 1.3437996c0.8604202 0.8604202 1.3437958 2.027401 1.3437958 3.2442188l0 18.351522c0 2.5338936 -2.054123 4.5880165 -4.5880203 4.5880165l-93.721596 0c-2.5338926 0 -4.5880184 -2.054123 -4.5880184 -4.5880165z" fill-rule="evenodd"></path><path fill="#000000" d="m23.661602 45.617584l-1.609375 0l0 -9.25l1.609375 0l0 9.25zm5.761551 -1.859375q0 -0.421875 -0.34375 -0.625q-0.328125 -0.21875 -1.125 -0.390625q-0.78125 -0.171875 -1.3125 -0.421875q-1.15625 -0.5625 -1.15625 -1.609375q0 -0.890625 0.75 -1.484375q0.75 -0.609375 1.90625 -0.609375q1.234375 0 1.984375 0.609375q0.765625 0.609375 0.765625 1.578125l-1.546875 0q0 -0.4375 -0.328125 -0.734375q-0.328125 -0.296875 -0.875 -0.296875q-0.515625 0 -0.84375 0.234375q-0.3125 0.234375 -0.3125 0.625q0 0.359375 0.296875 0.5625q0.3125 0.1875 1.21875 0.390625q0.90625 0.203125 1.421875 0.484375q0.515625 0.265625 0.765625 0.65625q0.25 0.390625 0.25 0.9375q0 0.9375 -0.765625 1.515625q-0.765625 0.5625 -2.015625 0.5625q-0.84375 0 -1.5 -0.296875q-0.65625 -0.3125 -1.03125 -0.84375q-0.375 -0.53125 -0.375 -1.15625l1.5 0q0.03125 0.546875 0.40625 0.84375q0.390625 0.296875 1.015625 0.296875q0.609375 0 0.921875 -0.21875q0.328125 -0.234375 0.328125 -0.609375zm4.956955 -6.671875l0 1.65625l1.21875 0l0 1.15625l-1.21875 0l0 3.828125q0 0.390625 0.15625 0.5625q0.15625 0.171875 0.5625 0.171875q0.265625 0 0.53125 -0.0625l0 1.203125q-0.515625 0.140625 -1.015625 0.140625q-1.765625 0 -1.765625 -1.953125l0 -3.890625l-1.140625 0l0 -1.15625l1.140625 0l0 -1.65625l1.53125 0zm4.1506195 8.53125l-1.546875 0l0 -6.875l1.546875 0l0 6.875zm-1.640625 -8.65625q0 -0.34375 0.21875 -0.578125q0.234375 -0.25 0.640625 -0.25q0.421875 0 0.65625 0.25q0.234375 0.234375 0.234375 0.578125q0 0.359375 -0.234375 0.59375q-0.234375 0.21875 -0.65625 0.21875q-0.40625 0 -0.640625 -0.21875q-0.21875 -0.234375 -0.21875 -0.59375zm3.1067505 5.15625q0 -1.0 0.390625 -1.8125q0.40625 -0.8125 1.125 -1.25q0.734375 -0.4375 1.671875 -0.4375q1.390625 0 2.25 0.90625q0.875 0.890625 0.9375 2.375l0.015625 0.359375q0 1.015625 -0.390625 1.8125q-0.390625 0.796875 -1.125 1.234375q-0.71875 0.4375 -1.671875 0.4375q-1.453125 0 -2.328125 -0.96875q-0.875 -0.96875 -0.875 -2.578125l0 -0.078125zm1.546875 0.140625q0 1.0625 0.4375 1.65625q0.4375 0.59375 1.21875 0.59375q0.78125 0 1.203125 -0.609375q0.4375 -0.609375 0.4375 -1.78125q0 -1.03125 -0.453125 -1.640625q-0.4375 -0.609375 -1.203125 -0.609375q-0.75 0 -1.203125 0.59375q-0.4375 0.59375 -0.4375 1.796875zm9.322556 0.046875l-3.328125 0l0 -1.234375l3.328125 0l0 1.234375zm3.607666 -5.9375l2.671875 7.09375l2.65625 -7.09375l2.078125 0l0 9.25l-1.59375 0l0 -3.046875l0.15625 -4.078125l-2.734375 7.125l-1.140625 0l-2.734375 -7.109375l0.171875 4.0625l0 3.046875l-1.609375 0l0 -9.25l2.078125 0zm13.543621 9.25q-0.09375 -0.203125 -0.171875 -0.640625q-0.734375 0.765625 -1.8125 0.765625q-1.03125 0 -1.6875 -0.578125q-0.6406212 -0.59375 -0.6406212 -1.46875q0 -1.09375 0.8124962 -1.6875q0.8125 -0.59375 2.328125 -0.59375l0.953125 0l0 -0.4375q0 -0.546875 -0.3125 -0.859375q-0.296875 -0.328125 -0.90625 -0.328125q-0.515625 0 -0.859375 0.265625q-0.328125 0.265625 -0.328125 0.671875l-1.5468712 0q0 -0.5625 0.3749962 -1.046875q0.375 -0.5 1.015625 -0.78125q0.640625 -0.28125 1.4375 -0.28125q1.203125 0 1.921875 0.609375q0.71875 0.609375 0.734375 1.703125l0 3.09375q0 0.9375 0.265625 1.484375l0 0.109375l-1.578125 0zm-1.6875 -1.109375q0.453125 0 0.859375 -0.21875q0.40625 -0.234375 0.609375 -0.609375l0 -1.28125l-0.84375 0q-0.84375 0 -1.28125 0.296875q-0.4375 0.296875 -0.4375 0.84375q0 0.4375 0.296875 0.703125q0.296875 0.265625 0.796875 0.265625zm6.226349 -5.765625l0.046875 0.796875q0.765625 -0.921875 2.0 -0.921875q2.140625 0 2.1875 2.46875l0 4.53125l-1.546875 0l0 -4.453125q0 -0.65625 -0.28125 -0.96875q-0.28125 -0.3125 -0.921875 -0.3125q-0.9375 0 -1.390625 0.84375l0 4.890625l-1.546875 0l0 -6.875l1.453125 0zm10.084351 6.875q-0.09375 -0.203125 -0.171875 -0.640625q-0.734375 0.765625 -1.8125 0.765625q-1.03125 0 -1.6875 -0.578125q-0.640625 -0.59375 -0.640625 -1.46875q0 -1.09375 0.8125 -1.6875q0.8125 -0.59375 2.328125 -0.59375l0.953125 0l0 -0.4375q0 -0.546875 -0.3125 -0.859375q-0.296875 -0.328125 -0.90625 -0.328125q-0.515625 0 -0.859375 0.265625q-0.328125 0.265625 -0.328125 0.671875l-1.546875 0q0 -0.5625 0.375 -1.046875q0.375 -0.5 1.015625 -0.78125q0.640625 -0.28125 1.4375 -0.28125q1.203125 0 1.921875 0.609375q0.71875 0.609375 0.734375 1.703125l0 3.09375q0 0.9375 0.265625 1.484375l0 0.109375l-1.578125 0zm-1.6875 -1.109375q0.453125 0 0.859375 -0.21875q0.40625 -0.234375 0.609375 -0.609375l0 -1.28125l-0.84375 0q-0.84375 0 -1.28125 0.296875q-0.4375 0.296875 -0.4375 0.84375q0 0.4375 0.296875 0.703125q0.296875 0.265625 0.796875 0.265625zm4.523224 -2.375q0 -1.59375 0.75 -2.546875q0.765625 -0.96875 2.0 -0.96875q1.171875 0 1.84375 0.828125l0.078125 -0.703125l1.390625 0l0 6.671875q0 1.34375 -0.84375 2.125q-0.84375 0.78125 -2.265625 0.78125q-0.765625 0 -1.484375 -0.3125q-0.71875 -0.3125 -1.09375 -0.828125l0.734375 -0.921875q0.71875 0.84375 1.75 0.84375q0.765625 0 1.203125 -0.421875q0.453125 -0.40625 0.453125 -1.21875l0 -0.453125q-0.65625 0.734375 -1.78125 0.734375q-1.203125 0 -1.96875 -0.953125q-0.765625 -0.96875 -0.765625 -2.65625zm1.546875 0.125q0 1.046875 0.421875 1.640625q0.421875 0.59375 1.171875 0.59375q0.921875 0 1.375 -0.8125l0 -3.015625q-0.4375 -0.78125 -1.375 -0.78125q-0.75 0 -1.171875 0.609375q-0.421875 0.59375 -0.421875 1.765625zm9.305649 3.484375q-1.46875 0 -2.375 -0.921875q-0.90625 -0.921875 -0.90625 -2.453125l0 -0.203125q0 -1.015625 0.390625 -1.828125q0.40625 -0.8125 1.109375 -1.265625q0.71875 -0.453125 1.609375 -0.453125q1.40625 0 2.15625 0.90625q0.765625 0.890625 0.765625 2.53125l0 0.609375l-4.484375 0q0.078125 0.859375 0.578125 1.359375q0.5 0.484375 1.25 0.484375q1.0625 0 1.71875 -0.859375l0.84375 0.796875q-0.421875 0.625 -1.109375 0.96875q-0.6875 0.328125 -1.546875 0.328125zm-0.1875 -5.875q-0.625 0 -1.015625 0.4375q-0.390625 0.4375 -0.5 1.234375l2.9375 0l0 -0.109375q-0.046875 -0.78125 -0.421875 -1.171875q-0.359375 -0.390625 -1.0 -0.390625zm7.9177856 0.296875q-0.3125 -0.0625 -0.625 -0.0625q-1.0625 0 -1.4375 0.8125l0 4.703125l-1.546875 0l0 -6.875l1.484375 0l0.03125 0.78125q0.5625 -0.90625 1.546875 -0.90625q0.328125 0 0.546875 0.09375l0 1.453125z" fill-rule="nonzero"></path><path fill="#000000" fill-opacity="0.0" d="m62.687664 54.581364l0 92.157486" fill-rule="evenodd"></path><path stroke="#000000" stroke-width="1.0" stroke-linejoin="round" stroke-linecap="butt" stroke-dasharray="4.0,3.0" d="m62.687664 54.581364l0 86.157486" fill-rule="evenodd"></path><path fill="#000000" stroke="#000000" stroke-width="1.0" stroke-linecap="butt" d="m61.03593 140.73885l1.6517334 4.538101l1.6517296 -4.538101z" fill-rule="evenodd"></path><path fill="#000000" fill-opacity="0.0" d="m60.48819 68.0538l111.27559 0l0 38.708664l-111.27559 0z" fill-rule="evenodd"></path><path fill="#000000" d="m74.941315 75.61943l-2.96875 0l0 8.234375l-1.203125 0l0 -8.234375l-2.96875 0l0 -1.015625l7.140625 0l0 1.015625zm4.7026215 2.421875q-0.265625 -0.046875 -0.578125 -0.046875q-1.15625 0 -1.5625 0.984375l0 4.875l-1.171875 0l0 -6.875l1.140625 0l0.015625 0.796875q0.578125 -0.921875 1.640625 -0.921875q0.34375 0 0.515625 0.09375l0 1.09375zm5.431839 5.8125q-0.09375 -0.203125 -0.15625 -0.71875q-0.828125 0.84375 -1.953125 0.84375q-1.015625 0 -1.671875 -0.5625q-0.65625 -0.578125 -0.65625 -1.46875q0 -1.078125 0.8125 -1.671875q0.828125 -0.59375 2.296875 -0.59375l1.140625 0l0 -0.53125q0 -0.609375 -0.375 -0.96875q-0.359375 -0.375 -1.078125 -0.375q-0.625 0 -1.046875 0.3125q-0.421875 0.3125 -0.421875 0.765625l-1.1875 0q0 -0.515625 0.359375 -0.984375q0.375 -0.484375 1.0 -0.765625q0.625 -0.28125 1.375 -0.28125q1.1875 0 1.859375 0.59375q0.671875 0.59375 0.703125 1.640625l0 3.15625q0 0.953125 0.234375 1.5l0 0.109375l-1.234375 0zm-1.9375 -0.890625q0.546875 0 1.03125 -0.28125q0.5 -0.296875 0.71875 -0.75l0 -1.40625l-0.90625 0q-2.171875 0 -2.171875 1.265625q0 0.546875 0.375 0.859375q0.375 0.3125 0.953125 0.3125zm5.531021 0.890625l0 -5.953125l-1.09375 0l0 -0.921875l1.09375 0l0 -0.703125q0 -1.09375 0.578125 -1.703125q0.59375 -0.609375 1.671875 -0.609375q0.40625 0 0.8125 0.109375l-0.0625 0.953125q-0.296875 -0.046875 -0.640625 -0.046875q-0.5625 0 -0.875 0.328125q-0.3125 0.328125 -0.3125 0.953125l0 0.71875l1.46875 0l0 0.921875l-1.46875 0l0 5.953125l-1.171875 0zm4.6271057 0l0 -5.953125l-1.09375 0l0 -0.921875l1.09375 0l0 -0.703125q0 -1.09375 0.578125 -1.703125q0.59375 -0.609375 1.671875 -0.609375q0.40625 0 0.8125 0.109375l-0.0625 0.953125q-0.296875 -0.046875 -0.640625 -0.046875q-0.5625 0 -0.875 0.328125q-0.3125 0.328125 -0.3125 0.953125l0 0.71875l1.46875 0l0 0.921875l-1.46875 0l0 5.953125l-1.171875 0zm5.3302307 0l-1.1875 0l0 -6.875l1.1875 0l0 6.875zm-1.28125 -8.6875q0 -0.28125 0.171875 -0.484375q0.1875 -0.203125 0.53125 -0.203125q0.34375 0 0.515625 0.203125q0.171875 0.203125 0.171875 0.484375q0 0.28125 -0.171875 0.46875q-0.171875 0.1875 -0.515625 0.1875q-0.34375 0 -0.53125 -0.1875q-0.171875 -0.1875 -0.171875 -0.46875zm5.984421 7.859375q0.625 0 1.09375 -0.375q0.484375 -0.390625 0.53125 -0.96875l1.109375 0q-0.03125 0.59375 -0.40625 1.125q-0.375 0.53125 -1.0 0.859375q-0.625 0.3125 -1.328125 0.3125q-1.40625 0 -2.234375 -0.9375q-0.828125 -0.9375 -0.828125 -2.5625l0 -0.1875q0 -1.015625 0.375 -1.78125q0.375 -0.78125 1.0625 -1.21875q0.6875 -0.4375 1.625 -0.4375q1.15625 0 1.921875 0.703125q0.765625 0.6875 0.8125 1.796875l-1.109375 0q-0.046875 -0.671875 -0.515625 -1.09375q-0.453125 -0.4375 -1.109375 -0.4375q-0.890625 0 -1.390625 0.65625q-0.484375 0.640625 -0.484375 1.859375l0 0.21875q0 1.1875 0.484375 1.828125q0.484375 0.640625 1.390625 0.640625zm10.83844 -4.984375q-0.265625 -0.046875 -0.578125 -0.046875q-1.15625 0 -1.5625 0.984375l0 4.875l-1.171875 0l0 -6.875l1.140625 0l0.015625 0.796875q0.578125 -0.921875 1.640625 -0.921875q0.34375 0 0.515625 0.09375l0 1.09375zm0.884964 2.3125q0 -1.0 0.390625 -1.8125q0.40625 -0.8125 1.109375 -1.25q0.703125 -0.4375 1.609375 -0.4375q1.40625 0 2.265625 0.984375q0.875 0.96875 0.875 2.578125l0 0.078125q0 1.0 -0.390625 1.796875q-0.375 0.796875 -1.09375 1.25q-0.703125 0.4375 -1.640625 0.4375q-1.390625 0 -2.265625 -0.96875q-0.859375 -0.96875 -0.859375 -2.578125l0 -0.078125zm1.1875 0.140625q0 1.140625 0.515625 1.84375q0.53125 0.6875 1.421875 0.6875q0.90625 0 1.421875 -0.703125q0.53125 -0.703125 0.53125 -1.96875q0 -1.125 -0.546875 -1.828125q-0.53125 -0.703125 -1.421875 -0.703125q-0.859375 0 -1.390625 0.703125q-0.53125 0.6875 -0.53125 1.96875zm10.960571 2.6875q-0.6875 0.796875 -2.015625 0.796875q-1.09375 0 -1.671875 -0.640625q-0.5625 -0.640625 -0.578125 -1.890625l0 -4.46875l1.171875 0l0 4.4375q0 1.5625 1.28125 1.5625q1.34375 0 1.78125 -1.0l0 -5.0l1.171875 0l0 6.875l-1.109375 0l-0.03125 -0.671875zm4.706772 -7.859375l0 1.65625l1.28125 0l0 0.921875l-1.28125 0l0 4.25q0 0.421875 0.171875 0.625q0.171875 0.203125 0.578125 0.203125q0.203125 0 0.5625 -0.078125l0 0.953125q-0.46875 0.125 -0.90625 0.125q-0.78125 0 -1.1875 -0.46875q-0.390625 -0.484375 -0.390625 -1.359375l0 -4.25l-1.25 0l0 -0.921875l1.25 0l0 -1.65625l1.171875 0zm4.041275 8.53125l-1.1875 0l0 -6.875l1.1875 0l0 6.875zm-1.28125 -8.6875q0 -0.28125 0.171875 -0.484375q0.1875 -0.203125 0.53125 -0.203125q0.34375 0 0.515625 0.203125q0.171875 0.203125 0.171875 0.484375q0 0.28125 -0.171875 0.46875q-0.171875 0.1875 -0.515625 0.1875q-0.34375 0 -0.53125 -0.1875q-0.171875 -0.1875 -0.171875 -0.46875zm4.343796 1.8125l0.03125 0.875q0.796875 -1.0 2.0625 -1.0q2.171875 0 2.203125 2.46875l0 4.53125l-1.1875 0l0 -4.546875q0 -0.734375 -0.34375 -1.09375q-0.328125 -0.359375 -1.03125 -0.359375q-0.5625 0 -1.0 0.3125q-0.4375 0.296875 -0.671875 0.796875l0 4.890625l-1.171875 0l0 -6.875l1.109375 0zm5.963272 3.390625q0 -1.609375 0.734375 -2.5625q0.75 -0.953125 1.96875 -0.953125q1.265625 0 1.96875 0.890625l0.0625 -0.765625l1.0625 0l0 6.703125q0 1.34375 -0.796875 2.109375q-0.78125 0.765625 -2.109375 0.765625q-0.75 0 -1.46875 -0.328125q-0.703125 -0.3125 -1.078125 -0.859375l0.609375 -0.703125q0.765625 0.9375 1.859375 0.9375q0.84375 0 1.328125 -0.484375q0.484375 -0.484375 0.484375 -1.359375l0 -0.59375q-0.703125 0.8125 -1.921875 0.8125q-1.21875 0 -1.96875 -0.96875q-0.734375 -0.96875 -0.734375 -2.640625zm1.1875 0.125q0 1.15625 0.46875 1.828125q0.484375 0.65625 1.328125 0.65625q1.109375 0 1.640625 -1.0l0 -3.140625q-0.546875 -0.984375 -1.625 -0.984375q-0.859375 0 -1.34375 0.671875q-0.46875 0.65625 -0.46875 1.96875z" fill-rule="nonzero"></path><path fill="#000000" d="m71.691315 94.041306q-0.265625 -0.046875 -0.578125 -0.046875q-1.15625 0 -1.5625 0.984375l0 4.875l-1.171875 0l0 -6.875l1.140625 0l0.015625 0.796875q0.578125 -0.921875 1.640625 -0.921875q0.34375 0 0.515625 0.09375l0 1.09375zm5.431839 5.140625q-0.6875 0.796875 -2.015625 0.796875q-1.09375 0 -1.671875 -0.640625q-0.5625 -0.640625 -0.578125 -1.890625l0 -4.46875l1.171875 0l0 4.4375q0 1.5625 1.28125 1.5625q1.34375 0 1.78125 -1.0l0 -5.0l1.171875 0l0 6.875l-1.109375 0l-0.03125 -0.671875zm4.394272 0.671875l-1.1875 0l0 -9.75l1.1875 0l0 9.75zm4.796921 0.125q-1.390625 0 -2.265625 -0.90625q-0.875 -0.921875 -0.875 -2.46875l0 -0.203125q0 -1.03125 0.390625 -1.828125q0.390625 -0.8125 1.09375 -1.265625q0.703125 -0.453125 1.515625 -0.453125q1.34375 0 2.078125 0.890625q0.75 0.875 0.75 2.515625l0 0.5l-4.65625 0q0.03125 1.015625 0.59375 1.640625q0.5625 0.625 1.4375 0.625q0.625 0 1.046875 -0.25q0.4375 -0.265625 0.765625 -0.6875l0.71875 0.5625q-0.859375 1.328125 -2.59375 1.328125zm-0.140625 -6.15625q-0.71875 0 -1.203125 0.515625q-0.46875 0.515625 -0.59375 1.453125l3.453125 0l0 -0.09375q-0.0625 -0.890625 -0.5 -1.375q-0.421875 -0.5 -1.15625 -0.5zm8.357925 4.203125q0 -0.46875 -0.359375 -0.734375q-0.359375 -0.265625 -1.25 -0.453125q-0.890625 -0.1875 -1.421875 -0.453125q-0.515625 -0.265625 -0.765625 -0.625q-0.25 -0.375 -0.25 -0.890625q0 -0.84375 0.703125 -1.421875q0.71875 -0.59375 1.828125 -0.59375q1.171875 0 1.890625 0.609375q0.734375 0.59375 0.734375 1.546875l-1.1875 0q0 -0.484375 -0.40625 -0.828125q-0.40625 -0.359375 -1.03125 -0.359375q-0.640625 0 -1.0 0.28125q-0.359375 0.28125 -0.359375 0.734375q0 0.421875 0.328125 0.640625q0.34375 0.203125 1.21875 0.40625q0.875 0.203125 1.421875 0.484375q0.546875 0.265625 0.8125 0.65625q0.265625 0.375 0.265625 0.921875q0 0.921875 -0.734375 1.484375q-0.734375 0.546875 -1.90625 0.546875q-0.828125 0 -1.46875 -0.28125q-0.625 -0.296875 -0.984375 -0.8125q-0.359375 -0.53125 -0.359375 -1.140625l1.171875 0q0.03125 0.578125 0.46875 0.9375q0.4375 0.34375 1.171875 0.34375q0.65625 0 1.0625 -0.265625q0.40625 -0.28125 0.40625 -0.734375z" fill-rule="nonzero"></path><path fill="#000000" fill-opacity="0.0" d="m197.8924 103.585304l48.0 0l0 27.52755l-48.0 0z" fill-rule="evenodd"></path><path fill="#000000" d="m210.15802 115.3228q-0.359375 0.4375 -0.875 0.703125q-0.515625 0.265625 -1.125 0.265625q-0.796875 0 -1.390625 -0.390625q-0.59375 -0.390625 -0.921875 -1.109375q-0.3125 -0.71875 -0.3125 -1.578125q0 -0.921875 0.34375 -1.65625q0.359375 -0.75 1.0 -1.140625q0.65625 -0.40625 1.515625 -0.40625q1.375 0 2.15625 1.03125q0.796875 1.03125 0.796875 2.796875l0 0.34375q0 2.703125 -1.078125 3.9375q-1.0625 1.234375 -3.203125 1.265625l-0.234375 0l0 -0.984375l0.25 0q1.453125 -0.03125 2.234375 -0.75q0.78125 -0.734375 0.84375 -2.328125zm-1.8125 0q0.59375 0 1.09375 -0.359375q0.5 -0.359375 0.734375 -0.890625l0 -0.484375q0 -1.140625 -0.515625 -1.859375q-0.5 -0.734375 -1.265625 -0.734375q-0.765625 0 -1.234375 0.59375q-0.46875 0.59375 -0.46875 1.5625q0 0.953125 0.453125 1.5625q0.453125 0.609375 1.203125 0.609375zm9.296555 0q-0.359375 0.4375 -0.875 0.703125q-0.515625 0.265625 -1.125 0.265625q-0.796875 0 -1.390625 -0.390625q-0.59375 -0.390625 -0.921875 -1.109375q-0.3125 -0.71875 -0.3125 -1.578125q0 -0.921875 0.34375 -1.65625q0.359375 -0.75 1.0 -1.140625q0.65625 -0.40625 1.515625 -0.40625q1.375 0 2.15625 1.03125q0.796875 1.03125 0.796875 2.796875l0 0.34375q0 2.703125 -1.078125 3.9375q-1.0625 1.234375 -3.203125 1.265625l-0.234375 0l0 -0.984375l0.25 0q1.453125 -0.03125 2.234375 -0.75q0.78125 -0.734375 0.84375 -2.328125zm-1.8125 0q0.59375 0 1.09375 -0.359375q0.5 -0.359375 0.734375 -0.890625l0 -0.484375q0 -1.140625 -0.515625 -1.859375q-0.5 -0.734375 -1.265625 -0.734375q-0.765625 0 -1.234375 0.59375q-0.46875 0.59375 -0.46875 1.5625q0 0.953125 0.453125 1.5625q0.453125 0.609375 1.203125 0.609375zm4.7028046 -3.40625q0 -0.828125 0.53125 -1.359375q0.53125 -0.546875 1.359375 -0.546875q0.84375 0 1.359375 0.546875q0.53125 0.53125 0.53125 1.40625l0 0.453125q0 0.828125 -0.53125 1.359375q-0.53125 0.53125 -1.34375 0.53125q-0.828125 0 -1.375 -0.53125q-0.53125 -0.53125 -0.53125 -1.40625l0 -0.453125zm0.875 0.5q0 0.484375 0.265625 0.8125q0.28125 0.3125 0.765625 0.3125q0.4375 0 0.71875 -0.3125q0.28125 -0.3125 0.28125 -0.84375l0 -0.46875q0 -0.484375 -0.28125 -0.8125q-0.265625 -0.328125 -0.734375 -0.328125q-0.46875 0 -0.75 0.328125q-0.265625 0.328125 -0.265625 0.84375l0 0.46875zm3.625 4.703125q0 -0.828125 0.53125 -1.359375q0.53125 -0.546875 1.359375 -0.546875q0.828125 0 1.359375 0.53125q0.53125 0.53125 0.53125 1.421875l0 0.453125q0 0.828125 -0.53125 1.375q-0.53125 0.53125 -1.359375 0.53125q-0.8125 0 -1.359375 -0.53125q-0.53125 -0.53125 -0.53125 -1.421875l0 -0.453125zm0.875 0.5q0 0.5 0.28125 0.828125q0.28125 0.3125 0.75 0.3125q0.453125 0 0.71875 -0.3125q0.28125 -0.3125 0.28125 -0.859375l0 -0.46875q0 -0.5 -0.28125 -0.8125q-0.28125 -0.328125 -0.734375 -0.328125q-0.453125 0 -0.734375 0.3125q-0.28125 0.3125 -0.28125 0.859375l0 0.46875zm-3.203125 1.0625l-0.671875 -0.421875l4.515625 -7.21875l0.65625 0.421875l-4.5 7.21875z" fill-rule="nonzero"></path><path fill="#000000" fill-opacity="0.0" d="m202.96588 180.73753l48.0 0l0 27.527557l-48.0 0z" fill-rule="evenodd"></path><path fill="#000000" d="m214.59088 196.53754l-1.171875 0l0 -7.828125l-2.375 0.875l0 -1.078125l3.359375 -1.25l0.1875 0l0 9.28125zm3.5309296 -7.46875q0 -0.828125 0.53125 -1.359375q0.53125 -0.546875 1.359375 -0.546875q0.84375 0 1.359375 0.546875q0.53125 0.53125 0.53125 1.40625l0 0.453125q0 0.828125 -0.53125 1.359375q-0.53125 0.53125 -1.34375 0.53125q-0.828125 0 -1.375 -0.53125q-0.53125 -0.53125 -0.53125 -1.40625l0 -0.453125zm0.875 0.5q0 0.484375 0.265625 0.8125q0.28125 0.3125 0.765625 0.3125q0.4375 0 0.71875 -0.3125q0.28125 -0.3125 0.28125 -0.84375l0 -0.46875q0 -0.484375 -0.28125 -0.8125q-0.265625 -0.328125 -0.734375 -0.328125q-0.46875 0 -0.75 0.328125q-0.265625 0.328125 -0.265625 0.84375l0 0.46875zm3.625 4.703125q0 -0.828125 0.53125 -1.359375q0.53125 -0.546875 1.359375 -0.546875q0.828125 0 1.359375 0.53125q0.53125 0.53125 0.53125 1.421875l0 0.453125q0 0.828125 -0.53125 1.375q-0.53125 0.53125 -1.359375 0.53125q-0.8125 0 -1.359375 -0.53125q-0.53125 -0.53125 -0.53125 -1.421875l0 -0.453125zm0.875 0.5q0 0.5 0.28125 0.828125q0.28125 0.3125 0.75 0.3125q0.453125 0 0.71875 -0.3125q0.28125 -0.3125 0.28125 -0.859375l0 -0.46875q0 -0.5 -0.28125 -0.8125q-0.28125 -0.328125 -0.734375 -0.328125q-0.453125 0 -0.734375 0.3125q-0.28125 0.3125 -0.28125 0.859375l0 0.46875zm-3.203125 1.0625l-0.671875 -0.421875l4.515625 -7.21875l0.65625 0.421875l-4.5 7.21875z" fill-rule="nonzero"></path></g></svg>

