<?xml version="1.0" encoding="utf-8"?>
<!-- Generator: Adobe Illustrator 21.0.2, SVG Export Plug-In . SVG Version: 6.00 Build 0)  -->
<svg version="1.1" id="Layer_1" xmlns="http://www.w3.org/2000/svg" xmlns:xlink="http://www.w3.org/1999/xlink" x="0px" y="0px"
	 viewBox="0 0 916 802" style="enable-background:new 0 0 916 802;" xml:space="preserve">
<style type="text/css">
	.st0{fill:#181818;}
</style>
<g>
	<g>
		<path class="st0" d="M654,36.6c-4.7-13.9-14.5-24.5-26.6-30.6c-12.2-6-26.6-7.5-50.5,0.5L305.7,96.9c-24,8-34.6,17.8-40.7,29.9
			c-6.1,12.1-7.5,26.5-2.9,40.4c4.7,13.9,14.5,24.5,26.6,30.6c12.2,6,26.6,7.5,50.5-0.5l271.2-90.4c23.9-8,34.6-17.8,40.7-29.9
			C657.2,64.9,658.6,50.5,654,36.6z"/>
		<path class="st0" d="M654,204c-4.7-13.9-14.5-24.5-26.6-30.6c-12.2-6-26.6-7.5-50.5,0.5l-271.2,90.4c-24,8-34.6,17.8-40.7,29.9
			c-6.1,12.1-7.5,26.5-2.9,40.4c4.7,13.9,14.5,24.5,26.6,30.6c12.2,6,26.6,7.5,50.5-0.5l271.2-90.4c23.9-8,34.6-17.8,40.7-29.9
			C657.2,232.3,658.6,217.9,654,204z"/>
		<path class="st0" d="M654,371.5c-4.7-13.9-14.5-24.5-26.6-30.6c-12.2-6-26.6-7.5-50.5,0.5l-271.2,90.4c-24,8-34.6,17.8-40.7,29.9
			c-6.1,12.1-7.5,26.5-2.9,40.4c4.7,13.9,14.5,24.5,26.6,30.6c12.2,6,26.6,7.5,50.5-0.5l271.2-90.4c23.9-8,34.6-17.8,40.7-29.9
			C657.2,399.8,658.6,385.4,654,371.5z"/>
	</g>
	<g>
		<polygon class="st0" points="1.8,667.7 101.3,667.7 101.3,694.8 37,694.8 37,718.3 98.7,718.3 98.7,746.3 37,746.3 37,770.5 
			102.4,770.5 102.4,797.8 1.8,797.8 		"/>
		<polygon class="st0" points="255.8,667.7 291.2,667.7 291.2,797.8 255.8,797.8 		"/>
		<path class="st0" d="M420.2,671.9l-2.4,27.8c-28.6-16.5-72.4-11.3-73.1,32.1c-0.8,43.3,45.1,49.7,74.2,34.9l1.8,28.4
			c-51.4,16-112.8-0.3-112.5-63.4C308.5,670.1,370.4,653,420.2,671.9L420.2,671.9z"/>
		<path class="st0" d="M524.4,669.9L522,697c-17.8-9.8-51.7-10.1-51.7,5.3c0,22.8,60.3,6.4,60.3,55.2c0,48.1-57.4,48.6-94.7,37.5
			l2.6-28.7c23.3,10.9,56.4,13.3,56.4-5.6c0-20.7-60.6-9-60.6-55.5C434.4,667.1,481.6,656.9,524.4,669.9L524.4,669.9z"/>
		<path class="st0" d="M631.1,669.9l-2.3,27.1c-17.8-9.8-51.7-10.1-51.7,5.3c0,22.8,60.3,6.4,60.3,55.2c0,48.1-57.5,48.6-94.7,37.5
			l2.7-28.7c23.3,10.9,56.4,13.3,56.4-5.6c0-20.7-60.6-9-60.6-55.5C541.1,667.1,588.3,656.9,631.1,669.9L631.1,669.9z"/>
		<polygon class="st0" points="794,667.7 838.8,667.7 881.6,751.7 881.6,667.7 914.2,667.7 914.2,797.8 871.9,797.8 826.8,712.3 
			826.8,797.8 794,797.8 		"/>
		<path class="st0" d="M712.4,664.6c36.7,0,64.8,21.5,64.8,68.5c0,44.9-28.2,67.9-64.8,67.9c-36.5,0-64.5-22.5-64.5-67.9
			C647.9,686.1,675.7,664.6,712.4,664.6L712.4,664.6z M684.1,733.1c0,19.8,8.5,42.3,28.3,42.2c19.8,0,28.2-22.4,28.3-42.2
			c0.1-17.9-8.5-42.2-28.3-42.2C692.6,690.8,684.1,713.3,684.1,733.1L684.1,733.1z"/>
		<path class="st0" d="M160.9,722.6h19.4c8.7,0.1,16.6-5.1,16.5-14.7c-0.1-8.5-7-14.5-16-14.4h-19.9V722.6L160.9,722.6z M127,667.7
			h63.7c17.3,0,41.4,7.6,41.4,34.6c0,17.3-7.8,27-22.7,31.5c0.7-0.1,8.5,3.4,11.7,13.1c0.1,0.3,18.2,50.8,18.4,50.9H202l-13.4-39.1
			c-2.1-6-6.5-10-12.9-10c-5.5,0-14.2-0.4-14.2,0v49.1H127V667.7L127,667.7z"/>
	</g>
</g>
</svg>
