<?xml version="1.0" encoding="UTF-8"?>
<!DOCTYPE svg PUBLIC "-//W3C//DTD SVG 1.1//EN" "http://www.w3.org/Graphics/SVG/1.1/DTD/svg11.dtd">
<svg xmlns="http://www.w3.org/2000/svg" version="1.1" width="394px" height="65px" style="shape-rendering:geometricPrecision; text-rendering:geometricPrecision; image-rendering:optimizeQuality; fill-rule:evenodd; clip-rule:evenodd" xmlns:xlink="http://www.w3.org/1999/xlink">
<g><path style="opacity:0.915" fill="#fefffe" d="M 162.5,0.5 C 167.377,-0.18755 171.71,0.979117 175.5,4C 173.667,5.83333 171.833,7.66667 170,9.5C 163.497,7.17446 159.997,9.5078 159.5,16.5C 162.833,16.5 166.167,16.5 169.5,16.5C 169.5,18.8333 169.5,21.1667 169.5,23.5C 166.167,23.5 162.833,23.5 159.5,23.5C 159.5,32.5 159.5,41.5 159.5,50.5C 157.167,50.5 154.833,50.5 152.5,50.5C 152.333,36.8293 152.5,23.1626 153,9.5C 155.406,5.59151 158.572,2.59151 162.5,0.5 Z"/></g>
<g><path style="opacity:0.831" fill="#fefffe" d="M 393.5,0.5 C 393.5,17.1667 393.5,33.8333 393.5,50.5C 390.833,50.5 388.167,50.5 385.5,50.5C 385.5,33.8333 385.5,17.1667 385.5,0.5C 388.167,0.5 390.833,0.5 393.5,0.5 Z"/></g>
<g><path style="opacity:0.934" fill="#4997f3" d="M 337.5,5.5 C 343.885,4.21356 345.885,6.54689 343.5,12.5C 337.228,14.1106 335.228,11.7773 337.5,5.5 Z"/></g>
<g><path style="opacity:0.954" fill="#4996f3" d="M 25.5,64.5 C 19.5,64.5 13.5,64.5 7.5,64.5C 0.922243,61.6799 -0.91109,57.0133 2,50.5C 8.42649,57.6478 15.9265,59.1478 24.5,55C 26.3318,53.5114 27.1652,51.678 27,49.5C 14.6942,54.5664 5.52754,51.2331 -0.5,39.5C -0.5,35.5 -0.5,31.5 -0.5,27.5C 5.85677,15.7698 15.0234,12.7698 27,18.5C 29.456,16.6787 32.2893,16.012 35.5,16.5C 35.3354,19.5184 35.502,22.5184 36,25.5C 42.5778,15.3156 51.4111,12.8156 62.5,18C 65.0402,20.2047 67.2068,22.7047 69,25.5C 69.4994,19.8431 69.6661,14.1764 69.5,8.5C 71.8333,8.5 74.1667,8.5 76.5,8.5C 76.5,11.1667 76.5,13.8333 76.5,16.5C 81.5,16.5 86.5,16.5 91.5,16.5C 91.5,19.1667 91.5,21.8333 91.5,24.5C 86.5,24.5 81.5,24.5 76.5,24.5C 76.0227,29.742 76.8561,34.742 79,39.5C 79.9025,40.7014 81.0692,41.5348 82.5,42C 88.0755,43.4716 92.9089,42.3049 97,38.5C 98.1361,20.6716 107.303,13.505 124.5,17C 133.285,22.0762 136.452,29.5762 134,39.5C 129.43,50.0225 121.596,53.8558 110.5,51C 107.241,49.7894 104.408,47.9561 102,45.5C 93.7863,53.4133 84.953,54.2466 75.5,48C 73.0314,45.5589 71.198,42.7256 70,39.5C 64.3959,51.0365 55.5625,54.5365 43.5,50C 39.9421,48.1083 37.4421,45.2749 36,41.5C 37.1817,51.5089 33.6817,59.1756 25.5,64.5 Z M 12.5,24.5 C 24.2096,22.3781 29.0429,27.0448 27,38.5C 22.9089,42.3049 18.0755,43.4716 12.5,42C 4.58084,36.1732 4.58084,30.3399 12.5,24.5 Z M 47.5,24.5 C 55.954,22.385 61.2874,25.385 63.5,33.5C 61.2839,41.7791 55.9506,44.6124 47.5,42C 39.5808,36.1732 39.5808,30.3399 47.5,24.5 Z M 111.5,24.5 C 119.954,22.385 125.287,25.385 127.5,33.5C 125.284,41.7791 119.951,44.6124 111.5,42C 103.801,36.2305 103.801,30.3972 111.5,24.5 Z"/></g>
<g><path style="opacity:0.876" fill="#fefffe" d="M 364.5,14.5 C 367.935,15.0756 371.268,16.0756 374.5,17.5C 377.421,16.5934 380.421,16.2601 383.5,16.5C 383.5,27.8333 383.5,39.1667 383.5,50.5C 380.289,50.988 377.456,50.3213 375,48.5C 364.617,53.8633 355.95,51.8633 349,42.5C 344.045,27.4017 349.211,18.0684 364.5,14.5 Z M 359.5,24.5 C 363.182,24.3347 366.848,24.5014 370.5,25C 375.155,27.8966 376.655,32.0633 375,37.5C 368.953,43.7284 362.62,44.0617 356,38.5C 353.267,32.7222 354.434,28.0555 359.5,24.5 Z"/></g>
<g><path style="opacity:0.902" fill="#fefffe" d="M 194.5,15.5 C 205.51,13.5872 213.344,17.5872 218,27.5C 218.308,35.1916 218.808,42.8583 219.5,50.5C 216.833,50.5 214.167,50.5 211.5,50.5C 211.666,43.825 211.5,37.1583 211,30.5C 208.929,26.0466 205.429,24.0466 200.5,24.5C 196.103,23.9472 192.937,25.6139 191,29.5C 189.616,36.4112 189.116,43.4112 189.5,50.5C 187.167,50.5 184.833,50.5 182.5,50.5C 182.5,39.1667 182.5,27.8333 182.5,16.5C 185.579,16.2601 188.579,16.5934 191.5,17.5C 192.739,17.0576 193.739,16.3909 194.5,15.5 Z"/></g>
<g><path style="opacity:0.869" fill="#fefffe" d="M 234.5,15.5 C 240.061,14.8024 245.227,15.8024 250,18.5C 252.456,16.6787 255.289,16.012 258.5,16.5C 258.5,27.8333 258.5,39.1667 258.5,50.5C 255.421,50.7399 252.421,50.4066 249.5,49.5C 239.53,54.0707 231.03,52.0707 224,43.5C 218.947,30.8137 222.447,21.4804 234.5,15.5 Z M 234.5,24.5 C 238.182,24.3347 241.848,24.5014 245.5,25C 251.665,29.9847 251.998,35.318 246.5,41C 239.973,43.9114 234.473,42.7447 230,37.5C 228.379,31.9227 229.879,27.5894 234.5,24.5 Z"/></g>
<g><path style="opacity:0.855" fill="#fefffe" d="M 274.5,15.5 C 286.747,13.8604 294.58,18.8604 298,30.5C 298.5,37.1583 298.666,43.825 298.5,50.5C 295.833,50.5 293.167,50.5 290.5,50.5C 290.666,43.4921 290.5,36.4921 290,29.5C 287.925,25.4625 284.592,23.7959 280,24.5C 275.164,24.0033 271.831,26.0033 270,30.5C 269.5,37.1583 269.334,43.825 269.5,50.5C 266.833,50.5 264.167,50.5 261.5,50.5C 261.5,39.1667 261.5,27.8333 261.5,16.5C 264.711,16.012 267.544,16.6787 270,18.5C 271.409,17.2189 272.909,16.2189 274.5,15.5 Z"/></g>
<g><path style="opacity:0.863" fill="#fefffe" d="M 313.5,15.5 C 322.023,13.9507 329.023,16.4507 334.5,23C 332.667,24.8333 330.833,26.6667 329,28.5C 324.108,24.2237 318.608,23.3904 312.5,26C 307.167,31 307.167,36 312.5,41C 318.142,43.3356 323.476,42.8356 328.5,39.5C 331.099,40.899 332.599,42.899 333,45.5C 325.738,53.0192 317.571,54.1859 308.5,49C 298.404,39.2984 298.071,29.2984 307.5,19C 309.727,18.059 311.727,16.8923 313.5,15.5 Z"/></g>
<g><path style="opacity:0.943" fill="#fefffe" d="M 172.5,16.5 C 174.833,16.5 177.167,16.5 179.5,16.5C 179.5,27.8333 179.5,39.1667 179.5,50.5C 177.167,50.5 174.833,50.5 172.5,50.5C 172.5,39.1667 172.5,27.8333 172.5,16.5 Z"/></g>
<g><path style="opacity:0.826" fill="#fefffe" d="M 336.5,16.5 C 339.167,16.5 341.833,16.5 344.5,16.5C 344.5,27.8333 344.5,39.1667 344.5,50.5C 341.833,50.5 339.167,50.5 336.5,50.5C 336.5,39.1667 336.5,27.8333 336.5,16.5 Z"/></g>
<g><path style="opacity:0.945" fill="#4996f3" d="M 173.5,53.5 C 180.068,53.1918 181.734,55.6918 178.5,61C 171.745,61.7558 170.078,59.2558 173.5,53.5 Z"/></g>
</svg>
