<svg xmlns="http://www.w3.org/2000/svg" xmlns:xlink="http://www.w3.org/1999/xlink" width="850" zoomAndPan="magnify" viewBox="0 0 637.5 359.999987" height="480" preserveAspectRatio="xMidYMid meet" version="1.0"><defs><g/><clipPath id="658d17a5f5"><path d="M 120.527344 226 L 122 226 L 122 232 L 120.527344 232 Z M 120.527344 226 " clip-rule="nonzero"/></clipPath><clipPath id="2b83134181"><path d="M 203 283 L 215 283 L 215 287.695312 L 203 287.695312 Z M 203 283 " clip-rule="nonzero"/></clipPath><clipPath id="87ac0b9165"><path d="M 120.527344 117 L 201 117 L 201 176 L 120.527344 176 Z M 120.527344 117 " clip-rule="nonzero"/></clipPath><clipPath id="ff67931bc1"><path d="M 231 117 L 311.246094 117 L 311.246094 176 L 231 176 Z M 231 117 " clip-rule="nonzero"/></clipPath><clipPath id="e1dc30d65a"><path d="M 247 155 L 311.246094 155 L 311.246094 262 L 247 262 Z M 247 155 " clip-rule="nonzero"/></clipPath><clipPath id="d4ea4c7264"><path d="M 120.527344 155 L 235 155 L 235 287.695312 L 120.527344 287.695312 Z M 120.527344 155 " clip-rule="nonzero"/></clipPath><clipPath id="94597ac992"><path d="M 149 72.367188 L 283 72.367188 L 283 125 L 149 125 Z M 149 72.367188 " clip-rule="nonzero"/></clipPath></defs><path fill="#ec4627" d="M 228.449219 174.25 C 228.449219 175.078125 228.367188 175.898438 228.207031 176.707031 C 228.046875 177.519531 227.808594 178.304688 227.492188 179.070312 C 227.175781 179.835938 226.789062 180.558594 226.332031 181.25 C 225.875 181.9375 225.351562 182.570312 224.769531 183.15625 C 224.183594 183.742188 223.550781 184.265625 222.863281 184.722656 C 222.179688 185.183594 221.453125 185.570312 220.691406 185.886719 C 219.929688 186.203125 219.144531 186.441406 218.335938 186.605469 C 217.523438 186.765625 216.707031 186.847656 215.882812 186.847656 C 215.058594 186.847656 214.242188 186.765625 213.429688 186.605469 C 212.621094 186.441406 211.835938 186.203125 211.074219 185.886719 C 210.3125 185.570312 209.585938 185.183594 208.902344 184.722656 C 208.214844 184.265625 207.582031 183.742188 206.996094 183.15625 C 206.414062 182.570312 205.894531 181.9375 205.433594 181.25 C 204.976562 180.558594 204.589844 179.835938 204.273438 179.070312 C 203.957031 178.304688 203.71875 177.519531 203.558594 176.707031 C 203.398438 175.898438 203.316406 175.078125 203.316406 174.25 C 203.316406 173.421875 203.398438 172.605469 203.558594 171.792969 C 203.71875 170.980469 203.957031 170.195312 204.273438 169.429688 C 204.589844 168.667969 204.976562 167.941406 205.433594 167.253906 C 205.894531 166.566406 206.414062 165.929688 206.996094 165.34375 C 207.582031 164.757812 208.214844 164.238281 208.902344 163.777344 C 209.585938 163.316406 210.3125 162.929688 211.074219 162.613281 C 211.835938 162.296875 212.621094 162.058594 213.429688 161.898438 C 214.242188 161.734375 215.058594 161.65625 215.882812 161.65625 C 216.707031 161.65625 217.523438 161.734375 218.335938 161.898438 C 219.144531 162.058594 219.929688 162.296875 220.691406 162.613281 C 221.453125 162.929688 222.179688 163.316406 222.863281 163.777344 C 223.550781 164.238281 224.183594 164.757812 224.769531 165.34375 C 225.351562 165.929688 225.875 166.566406 226.332031 167.253906 C 226.789062 167.941406 227.175781 168.667969 227.492188 169.429688 C 227.808594 170.195312 228.046875 170.980469 228.207031 171.792969 C 228.367188 172.605469 228.449219 173.421875 228.449219 174.25 Z M 228.449219 174.25 " fill-opacity="1" fill-rule="nonzero"/><g clip-path="url(#658d17a5f5)"><path fill="#c55a11" d="M 120.535156 226.121094 C 120.574219 228.121094 120.976562 230.042969 121.738281 231.890625 C 120.925781 230.171875 120.523438 228.363281 120.535156 226.457031 C 120.527344 226.347656 120.527344 226.234375 120.535156 226.121094 Z M 120.535156 226.121094 " fill-opacity="1" fill-rule="nonzero"/></g><path fill="#c55a11" d="M 203.890625 255.425781 L 203.890625 255.484375 L 203.859375 255.46875 C 203.867188 255.453125 203.878906 255.4375 203.890625 255.425781 Z M 203.890625 255.425781 " fill-opacity="1" fill-rule="nonzero"/><g clip-path="url(#2b83134181)"><path fill="#c55a11" d="M 207.84375 285.535156 C 210.011719 286.789062 212.34375 287.496094 214.84375 287.652344 C 212.84375 287.542969 210.914062 287.113281 209.058594 286.367188 C 207.199219 285.621094 205.511719 284.597656 203.988281 283.292969 Z M 207.84375 285.535156 " fill-opacity="1" fill-rule="nonzero"/></g><g clip-path="url(#87ac0b9165)"><path fill="#277bec" d="M 200.175781 163.789062 C 200.175781 164.507812 200.105469 165.21875 199.972656 165.925781 C 199.835938 166.628906 199.632812 167.316406 199.367188 167.980469 C 199.101562 168.648438 198.773438 169.285156 198.382812 169.886719 C 197.996094 170.492188 197.550781 171.050781 197.054688 171.570312 C 196.558594 172.089844 196.019531 172.554688 195.433594 172.96875 C 194.847656 173.382812 194.230469 173.738281 193.574219 174.035156 C 192.921875 174.328125 192.246094 174.558594 191.550781 174.726562 C 190.851562 174.890625 190.144531 174.988281 189.429688 175.019531 C 189.277344 175.019531 189.128906 175.019531 188.960938 175.019531 C 188.335938 175.019531 187.71875 174.964844 187.101562 174.863281 C 186.484375 174.757812 185.882812 174.605469 185.292969 174.398438 C 184.703125 174.195312 184.132812 173.941406 183.585938 173.644531 C 183.039062 173.34375 182.519531 173 182.027344 172.613281 C 181.539062 172.226562 181.082031 171.800781 180.664062 171.335938 C 180.242188 170.875 179.863281 170.378906 179.527344 169.851562 C 179.191406 169.324219 178.898438 168.773438 178.652344 168.199219 C 178.410156 167.625 178.210938 167.03125 178.066406 166.421875 L 155.207031 153.207031 L 149.957031 150.164062 C 148.679688 151.140625 147.296875 151.933594 145.8125 152.539062 C 145.390625 152.710938 144.960938 152.871094 144.527344 153.011719 C 143.164062 153.457031 141.773438 153.734375 140.34375 153.847656 C 139.855469 153.882812 139.363281 153.90625 138.863281 153.90625 C 137.84375 153.90625 136.832031 153.820312 135.824219 153.652344 C 134.820312 153.484375 133.835938 153.230469 132.871094 152.898438 C 131.90625 152.5625 130.976562 152.148438 130.082031 151.660156 C 129.1875 151.171875 128.339844 150.609375 127.535156 149.976562 C 126.734375 149.347656 125.992188 148.652344 125.304688 147.898438 C 124.617188 147.140625 124 146.332031 123.445312 145.472656 C 122.894531 144.613281 122.417969 143.714844 122.015625 142.773438 C 121.613281 141.835938 121.292969 140.867188 121.050781 139.875 C 120.808594 138.882812 120.652344 137.875 120.578125 136.855469 C 120.503906 135.835938 120.515625 134.816406 120.613281 133.800781 C 120.707031 132.78125 120.886719 131.777344 121.152344 130.789062 C 121.414062 129.804688 121.757812 128.84375 122.179688 127.914062 C 122.601562 126.984375 123.097656 126.09375 123.667969 125.246094 C 124.242188 124.398438 124.878906 123.605469 125.582031 122.863281 C 126.285156 122.125 127.042969 121.445312 127.859375 120.832031 C 128.675781 120.21875 129.535156 119.675781 130.441406 119.207031 C 130.699219 119.070312 130.96875 118.9375 131.234375 118.816406 C 133.65625 117.707031 136.199219 117.152344 138.863281 117.15625 C 139.785156 117.15625 140.703125 117.226562 141.613281 117.363281 C 142.691406 117.523438 143.742188 117.78125 144.773438 118.132812 C 145.800781 118.484375 146.792969 118.925781 147.746094 119.453125 C 148.695312 119.980469 149.59375 120.585938 150.4375 121.277344 C 151.28125 121.964844 152.058594 122.722656 152.765625 123.546875 C 153.476562 124.375 154.105469 125.257812 154.660156 126.195312 C 155.210938 127.136719 155.675781 128.117188 156.054688 129.140625 C 156.433594 130.160156 156.71875 131.207031 156.910156 132.28125 C 157.101562 133.355469 157.199219 134.4375 157.199219 135.527344 C 157.199219 135.828125 157.199219 136.132812 157.175781 136.449219 L 162.710938 139.648438 L 185.800781 153.007812 C 186.835938 152.699219 187.894531 152.546875 188.972656 152.550781 C 189.710938 152.550781 190.4375 152.621094 191.160156 152.765625 C 191.882812 152.910156 192.585938 153.121094 193.265625 153.40625 C 193.945312 153.6875 194.589844 154.035156 195.203125 154.445312 C 195.816406 154.855469 196.382812 155.320312 196.902344 155.839844 C 197.421875 156.363281 197.886719 156.929688 198.296875 157.542969 C 198.707031 158.15625 199.050781 158.804688 199.332031 159.488281 C 199.613281 160.167969 199.828125 160.871094 199.972656 161.597656 C 200.113281 162.320312 200.1875 163.050781 200.1875 163.789062 Z M 200.175781 163.789062 " fill-opacity="1" fill-rule="nonzero"/></g><g clip-path="url(#ff67931bc1)"><path fill="#ec277b" d="M 242.808594 175.027344 C 242.707031 175.027344 242.613281 175.027344 242.503906 175.027344 C 241.773438 175.011719 241.050781 174.921875 240.335938 174.765625 C 239.621094 174.605469 238.929688 174.378906 238.261719 174.085938 C 237.589844 173.789062 236.957031 173.433594 236.355469 173.015625 C 235.753906 172.59375 235.199219 172.121094 234.691406 171.59375 C 234.183594 171.066406 233.734375 170.492188 233.335938 169.878906 C 232.941406 169.261719 232.609375 168.609375 232.339844 167.929688 C 232.070312 167.246094 231.867188 166.546875 231.738281 165.824219 C 231.605469 165.105469 231.542969 164.375 231.554688 163.644531 C 231.5625 162.910156 231.644531 162.183594 231.792969 161.46875 C 231.945312 160.75 232.164062 160.054688 232.453125 159.378906 C 232.742188 158.707031 233.089844 158.066406 233.503906 157.460938 C 233.914062 156.855469 234.382812 156.292969 234.90625 155.78125 C 235.425781 155.265625 235.992188 154.808594 236.605469 154.40625 C 237.214844 154.003906 237.859375 153.664062 238.539062 153.386719 C 239.214844 153.109375 239.914062 152.902344 240.632812 152.761719 C 241.351562 152.625 242.074219 152.554688 242.808594 152.558594 C 243.882812 152.558594 244.941406 152.710938 245.972656 153.019531 L 268.722656 139.859375 L 274.335938 136.609375 L 274.59375 136.460938 C 274.578125 136.160156 274.574219 135.855469 274.574219 135.539062 C 274.574219 134.203125 274.714844 132.882812 275 131.578125 C 275.011719 131.542969 275.015625 131.507812 275.023438 131.472656 C 275.34375 130.046875 275.828125 128.675781 276.480469 127.367188 C 276.742188 126.839844 277.03125 126.324219 277.339844 125.824219 C 277.652344 125.324219 277.984375 124.839844 278.34375 124.371094 C 278.699219 123.902344 279.078125 123.453125 279.480469 123.019531 C 279.882812 122.589844 280.300781 122.179688 280.742188 121.785156 C 281.183594 121.394531 281.640625 121.027344 282.117188 120.679688 C 282.589844 120.332031 283.082031 120.007812 283.589844 119.710938 C 284.09375 119.410156 284.613281 119.136719 285.148438 118.886719 C 285.679688 118.636719 286.226562 118.414062 286.78125 118.214844 C 287.332031 118.019531 287.894531 117.847656 288.46875 117.707031 C 289.039062 117.5625 289.613281 117.449219 290.195312 117.359375 C 290.777344 117.273438 291.363281 117.214844 291.949219 117.183594 C 292.539062 117.152344 293.125 117.148438 293.710938 117.175781 C 294.300781 117.199219 294.886719 117.253906 295.46875 117.335938 C 296.050781 117.417969 296.628906 117.53125 297.199219 117.667969 C 297.773438 117.804688 298.335938 117.96875 298.890625 118.164062 C 299.449219 118.355469 299.992188 118.574219 300.527344 118.816406 C 300.796875 118.9375 301.0625 119.070312 301.324219 119.207031 C 302.234375 119.671875 303.097656 120.210938 303.914062 120.824219 C 304.734375 121.433594 305.492188 122.109375 306.199219 122.847656 C 306.902344 123.585938 307.542969 124.378906 308.113281 125.226562 C 308.683594 126.074219 309.179688 126.960938 309.605469 127.894531 C 310.027344 128.824219 310.367188 129.78125 310.628906 130.769531 C 310.890625 131.757812 311.070312 132.761719 311.160156 133.78125 C 311.253906 134.800781 311.261719 135.816406 311.183594 136.835938 C 311.105469 137.855469 310.945312 138.863281 310.699219 139.855469 C 310.449219 140.847656 310.121094 141.8125 309.714844 142.746094 C 309.304688 143.683594 308.820312 144.582031 308.261719 145.4375 C 307.703125 146.292969 307.078125 147.09375 306.382812 147.84375 C 305.691406 148.59375 304.941406 149.28125 304.128906 149.902344 C 303.320312 150.527344 302.46875 151.078125 301.566406 151.554688 C 300.664062 152.035156 299.730469 152.433594 298.761719 152.753906 C 297.792969 153.078125 296.804688 153.316406 295.796875 153.46875 C 294.789062 153.625 293.773438 153.691406 292.753906 153.675781 C 290.871094 153.675781 289.03125 153.398438 287.234375 152.839844 L 287.234375 153.011719 C 286.957031 152.925781 286.6875 152.832031 286.417969 152.726562 L 285.953125 152.539062 C 284.464844 151.933594 283.085938 151.140625 281.808594 150.164062 L 276.3125 153.355469 L 253.699219 166.441406 C 253.554688 167.050781 253.355469 167.640625 253.113281 168.214844 C 252.867188 168.789062 252.574219 169.339844 252.238281 169.867188 C 251.898438 170.394531 251.523438 170.886719 251.101562 171.351562 C 250.683594 171.8125 250.226562 172.238281 249.738281 172.625 C 249.246094 173.011719 248.726562 173.355469 248.179688 173.652344 C 247.632812 173.953125 247.0625 174.207031 246.472656 174.410156 C 245.882812 174.613281 245.28125 174.769531 244.664062 174.871094 C 244.050781 174.976562 243.429688 175.027344 242.808594 175.027344 Z M 242.808594 175.027344 " fill-opacity="1" fill-rule="nonzero"/></g><g clip-path="url(#e1dc30d65a)"><path fill="#277bec" d="M 311.226562 226.148438 C 311.230469 226.25 311.230469 226.351562 311.226562 226.453125 C 311.226562 227.277344 311.144531 228.097656 310.984375 228.910156 C 310.824219 229.71875 310.585938 230.507812 310.269531 231.273438 C 309.953125 232.035156 309.566406 232.761719 309.109375 233.449219 C 308.648438 234.136719 308.128906 234.773438 307.546875 235.359375 C 306.960938 235.945312 306.328125 236.464844 305.640625 236.925781 C 304.953125 237.386719 304.230469 237.773438 303.46875 238.089844 C 302.707031 238.40625 301.921875 238.644531 301.113281 238.808594 C 300.300781 238.96875 299.484375 239.050781 298.660156 239.050781 C 297.816406 239.050781 296.976562 238.964844 296.148438 238.800781 L 258.921875 260.351562 C 258.480469 260.609375 258.023438 260.816406 257.542969 260.980469 C 257.058594 261.144531 256.566406 261.261719 256.066406 261.328125 C 255.5625 261.394531 255.054688 261.410156 254.550781 261.378906 C 254.042969 261.34375 253.542969 261.261719 253.050781 261.128906 C 252.5625 261 252.089844 260.820312 251.632812 260.59375 C 251.175781 260.371094 250.75 260.101562 250.34375 259.792969 C 249.941406 259.484375 249.574219 259.136719 249.238281 258.753906 C 248.902344 258.371094 248.609375 257.960938 248.355469 257.519531 C 248.101562 257.078125 247.890625 256.617188 247.730469 256.132812 C 247.566406 255.652344 247.453125 255.15625 247.386719 254.652344 C 247.320312 254.148438 247.300781 253.640625 247.335938 253.132812 C 247.371094 252.625 247.453125 252.125 247.582031 251.632812 C 247.714844 251.144531 247.894531 250.667969 248.117188 250.210938 C 248.34375 249.753906 248.609375 249.324219 248.921875 248.921875 C 249.230469 248.519531 249.574219 248.148438 249.957031 247.8125 C 250.339844 247.476562 250.75 247.183594 251.191406 246.929688 L 286.109375 226.71875 C 286.109375 226.636719 286.109375 226.546875 286.109375 226.457031 C 286.105469 225.5 286.210938 224.554688 286.425781 223.617188 C 286.636719 222.683594 286.953125 221.785156 287.375 220.925781 C 287.792969 220.0625 288.304688 219.261719 288.90625 218.515625 C 289.507812 217.769531 290.1875 217.105469 290.941406 216.515625 L 290.941406 159.628906 C 291.542969 159.675781 292.148438 159.699219 292.75 159.695312 C 295.179688 159.699219 297.558594 159.347656 299.882812 158.640625 C 302.210938 157.929688 304.378906 156.894531 306.394531 155.53125 L 306.394531 216.515625 C 307.132812 217.089844 307.792969 217.734375 308.386719 218.453125 C 308.976562 219.175781 309.480469 219.953125 309.898438 220.785156 C 310.316406 221.617188 310.636719 222.488281 310.863281 223.394531 C 311.085938 224.296875 311.207031 225.21875 311.226562 226.148438 Z M 311.226562 226.148438 " fill-opacity="1" fill-rule="nonzero"/></g><g clip-path="url(#d4ea4c7264)"><path fill="#27ec6c" d="M 234.214844 269.320312 C 234.214844 270.230469 234.148438 271.128906 234.015625 272.027344 C 233.882812 272.921875 233.683594 273.804688 233.421875 274.671875 C 233.160156 275.539062 232.832031 276.382812 232.445312 277.203125 C 232.058594 278.019531 231.613281 278.808594 231.109375 279.558594 C 230.605469 280.3125 230.046875 281.023438 229.4375 281.695312 C 228.828125 282.363281 228.175781 282.984375 227.472656 283.558594 C 226.773438 284.132812 226.035156 284.648438 225.257812 285.113281 C 224.480469 285.578125 223.671875 285.980469 222.835938 286.324219 C 222.414062 286.5 221.980469 286.660156 221.550781 286.796875 C 220.046875 287.289062 218.503906 287.574219 216.921875 287.65625 C 216.816406 287.667969 216.707031 287.675781 216.601562 287.675781 C 216.363281 287.675781 216.128906 287.675781 215.890625 287.675781 C 215.710938 287.675781 215.539062 287.675781 215.359375 287.675781 C 215.183594 287.675781 215.015625 287.675781 214.84375 287.652344 C 214.671875 287.625 214.476562 287.625 214.289062 287.605469 C 211.992188 287.378906 209.84375 286.683594 207.84375 285.523438 L 203.992188 283.300781 C 202.390625 281.933594 201.0625 280.332031 200.011719 278.507812 C 198.957031 276.679688 198.238281 274.726562 197.855469 272.652344 L 138.042969 238.042969 C 137.304688 238.355469 136.542969 238.601562 135.761719 238.769531 C 134.976562 238.941406 134.1875 239.035156 133.382812 239.050781 C 132.582031 239.070312 131.789062 239.011719 130.996094 238.878906 C 130.207031 238.742188 129.4375 238.535156 128.6875 238.253906 C 127.9375 237.972656 127.21875 237.621094 126.535156 237.199219 C 125.851562 236.78125 125.214844 236.300781 124.625 235.757812 C 124.03125 235.21875 123.496094 234.625 123.019531 233.980469 C 122.539062 233.335938 122.125 232.652344 121.777344 231.929688 C 121.78125 231.914062 121.78125 231.898438 121.777344 231.882812 C 121.015625 230.035156 120.613281 228.113281 120.574219 226.113281 L 120.574219 226.09375 C 120.574219 226.09375 120.574219 226.082031 120.574219 226.074219 C 120.574219 226.074219 120.574219 226.058594 120.574219 226.054688 C 120.628906 224.296875 121.03125 222.628906 121.789062 221.042969 C 122.542969 219.457031 123.582031 218.089844 124.910156 216.945312 L 124.910156 155.472656 C 126.933594 156.851562 129.113281 157.902344 131.449219 158.621094 C 133.785156 159.34375 136.179688 159.703125 138.625 159.703125 C 139.195312 159.703125 139.769531 159.679688 140.335938 159.640625 L 140.335938 216.171875 C 141.71875 217.148438 142.859375 218.355469 143.757812 219.792969 C 144.65625 221.234375 145.234375 222.792969 145.503906 224.464844 L 202.101562 257.214844 C 202.640625 256.585938 203.222656 256.003906 203.847656 255.464844 L 203.878906 255.476562 L 203.878906 255.417969 C 204.972656 254.46875 206.164062 253.664062 207.449219 253 C 207.671875 252.878906 207.910156 252.769531 208.140625 252.660156 L 208.140625 220.585938 C 207.800781 220.320312 207.472656 220.035156 207.160156 219.734375 C 206.847656 219.433594 206.550781 219.117188 206.273438 218.785156 C 205.992188 218.453125 205.730469 218.109375 205.488281 217.75 C 205.246094 217.390625 205.019531 217.019531 204.8125 216.640625 C 204.609375 216.257812 204.421875 215.867188 204.257812 215.464844 C 204.09375 215.0625 203.949219 214.65625 203.824219 214.238281 C 203.703125 213.824219 203.601562 213.402344 203.523438 212.976562 C 203.441406 212.546875 203.382812 212.117188 203.347656 211.6875 C 203.3125 211.253906 203.300781 210.820312 203.308594 210.386719 C 203.320312 209.953125 203.351562 209.519531 203.40625 209.089844 C 203.460938 208.660156 203.535156 208.230469 203.632812 207.808594 C 203.730469 207.386719 203.851562 206.96875 203.992188 206.558594 C 204.132812 206.148438 204.292969 205.746094 204.476562 205.355469 C 204.660156 204.960938 204.859375 204.578125 205.082031 204.203125 C 205.304688 203.832031 205.542969 203.472656 205.804688 203.125 C 206.0625 202.777344 206.339844 202.441406 206.632812 202.121094 C 206.925781 201.804688 207.234375 201.5 207.558594 201.214844 C 207.882812 200.925781 208.222656 200.65625 208.574219 200.40625 C 208.929688 200.152344 209.292969 199.917969 209.667969 199.707031 C 210.046875 199.492188 210.433594 199.296875 210.828125 199.121094 C 211.226562 198.949219 211.628906 198.796875 212.042969 198.664062 C 212.453125 198.53125 212.871094 198.417969 213.296875 198.332031 C 213.71875 198.242188 214.148438 198.175781 214.578125 198.128906 C 215.007812 198.085938 215.441406 198.0625 215.875 198.0625 C 216.308594 198.0625 216.738281 198.085938 217.167969 198.128906 C 217.601562 198.175781 218.027344 198.242188 218.449219 198.332031 C 218.875 198.417969 219.292969 198.53125 219.707031 198.664062 C 220.117188 198.796875 220.523438 198.949219 220.917969 199.121094 C 221.316406 199.296875 221.703125 199.492188 222.078125 199.707031 C 222.457031 199.917969 222.820312 200.152344 223.171875 200.40625 C 223.523438 200.65625 223.863281 200.925781 224.1875 201.214844 C 224.511719 201.5 224.820312 201.804688 225.113281 202.121094 C 225.410156 202.441406 225.683594 202.777344 225.945312 203.125 C 226.203125 203.472656 226.441406 203.832031 226.664062 204.203125 C 226.886719 204.578125 227.089844 204.960938 227.273438 205.355469 C 227.453125 205.746094 227.617188 206.148438 227.757812 206.558594 C 227.898438 206.96875 228.015625 207.386719 228.113281 207.808594 C 228.210938 208.230469 228.289062 208.660156 228.34375 209.089844 C 228.394531 209.519531 228.429688 209.953125 228.4375 210.386719 C 228.445312 210.820312 228.433594 211.253906 228.398438 211.6875 C 228.363281 212.117188 228.304688 212.546875 228.226562 212.976562 C 228.144531 213.402344 228.046875 213.824219 227.921875 214.238281 C 227.800781 214.65625 227.65625 215.0625 227.488281 215.464844 C 227.324219 215.867188 227.140625 216.257812 226.933594 216.640625 C 226.726562 217.019531 226.503906 217.390625 226.257812 217.75 C 226.015625 218.109375 225.753906 218.453125 225.472656 218.785156 C 225.195312 219.117188 224.898438 219.433594 224.585938 219.734375 C 224.273438 220.035156 223.949219 220.320312 223.605469 220.585938 L 223.605469 252.660156 C 225.054688 253.328125 226.394531 254.171875 227.617188 255.199219 C 228.652344 256.058594 229.578125 257.023438 230.402344 258.089844 C 231.222656 259.15625 231.921875 260.300781 232.492188 261.519531 C 233.0625 262.742188 233.492188 264.011719 233.78125 265.324219 C 234.074219 266.640625 234.214844 267.972656 234.214844 269.320312 Z M 234.214844 269.320312 " fill-opacity="1" fill-rule="nonzero"/></g><g clip-path="url(#94597ac992)"><path fill="#ec7e27" d="M 282.410156 112.902344 C 279.914062 114.070312 277.679688 115.621094 275.703125 117.542969 C 273.726562 119.464844 272.121094 121.660156 270.878906 124.125 L 222.105469 95.898438 C 220.339844 96.914062 218.441406 97.460938 216.410156 97.542969 C 216.238281 97.542969 216.0625 97.542969 215.882812 97.542969 C 215.703125 97.542969 215.539062 97.542969 215.371094 97.542969 C 213.324219 97.464844 211.414062 96.914062 209.640625 95.894531 L 160.589844 124.28125 C 159.371094 121.8125 157.785156 119.609375 155.828125 117.675781 C 153.871094 115.742188 151.65625 114.179688 149.175781 112.992188 L 203.847656 81.355469 C 204.039062 80.707031 204.28125 80.082031 204.574219 79.476562 C 204.867188 78.867188 205.207031 78.289062 205.59375 77.738281 C 205.976562 77.183594 206.40625 76.667969 206.875 76.183594 C 207.34375 75.699219 207.847656 75.257812 208.386719 74.855469 C 208.925781 74.453125 209.492188 74.09375 210.089844 73.785156 C 210.6875 73.472656 211.304688 73.210938 211.941406 73 C 212.582031 72.789062 213.234375 72.628906 213.898438 72.523438 C 214.5625 72.414062 215.230469 72.363281 215.902344 72.363281 C 216.574219 72.363281 217.242188 72.417969 217.90625 72.527344 C 218.570312 72.636719 219.222656 72.796875 219.859375 73.007812 C 220.496094 73.222656 221.113281 73.484375 221.710938 73.796875 C 222.304688 74.109375 222.875 74.46875 223.414062 74.871094 C 223.949219 75.273438 224.453125 75.71875 224.921875 76.203125 C 225.390625 76.6875 225.816406 77.207031 226.199219 77.761719 C 226.582031 78.3125 226.921875 78.894531 227.214844 79.5 C 227.503906 80.109375 227.746094 80.734375 227.9375 81.382812 Z M 282.410156 112.902344 " fill-opacity="1" fill-rule="nonzero"/></g><g fill="#277bec" fill-opacity="1"><g transform="translate(316.812482, 219.058493)"><g><path d="M 14.34375 0 L 4.765625 0 L 4.765625 -46.515625 L 14.34375 -46.515625 Z M 14.34375 0 "/></g></g></g><g fill="#277bec" fill-opacity="1"><g transform="translate(335.885954, 219.058493)"><g><path d="M 16.671875 -46.515625 L 28.625 -12.78125 L 40.515625 -46.515625 L 53.109375 -46.515625 L 53.109375 0 L 43.484375 0 L 43.484375 -12.71875 L 44.4375 -34.671875 L 31.890625 0 L 25.3125 0 L 12.78125 -34.640625 L 13.734375 -12.71875 L 13.734375 0 L 4.15625 0 L 4.15625 -46.515625 Z M 16.671875 -46.515625 "/></g></g></g><g fill="#277bec" fill-opacity="1"><g transform="translate(393.202217, 219.058493)"><g><path d="M 32.140625 -20.15625 L 13.734375 -20.15625 L 13.734375 -7.703125 L 35.34375 -7.703125 L 35.34375 0 L 4.15625 0 L 4.15625 -46.515625 L 35.28125 -46.515625 L 35.28125 -38.75 L 13.734375 -38.75 L 13.734375 -27.671875 L 32.140625 -27.671875 Z M 32.140625 -20.15625 "/></g></g></g><g fill="#277bec" fill-opacity="1"><g transform="translate(430.007309, 219.058493)"><g><path d="M 28.28125 -12.203125 C 28.28125 -14.015625 27.640625 -15.40625 26.359375 -16.375 C 25.078125 -17.34375 22.773438 -18.363281 19.453125 -19.4375 C 16.128906 -20.519531 13.5 -21.582031 11.5625 -22.625 C 6.28125 -25.476562 3.640625 -29.320312 3.640625 -34.15625 C 3.640625 -36.664062 4.347656 -38.90625 5.765625 -40.875 C 7.179688 -42.851562 9.210938 -44.394531 11.859375 -45.5 C 14.515625 -46.601562 17.492188 -47.15625 20.796875 -47.15625 C 24.117188 -47.15625 27.078125 -46.550781 29.671875 -45.34375 C 32.273438 -44.144531 34.296875 -42.445312 35.734375 -40.25 C 37.171875 -38.0625 37.890625 -35.570312 37.890625 -32.78125 L 28.3125 -32.78125 C 28.3125 -34.914062 27.640625 -36.570312 26.296875 -37.75 C 24.953125 -38.9375 23.066406 -39.53125 20.640625 -39.53125 C 18.296875 -39.53125 16.472656 -39.03125 15.171875 -38.03125 C 13.878906 -37.039062 13.234375 -35.738281 13.234375 -34.125 C 13.234375 -32.613281 13.992188 -31.34375 15.515625 -30.3125 C 17.035156 -29.289062 19.273438 -28.335938 22.234375 -27.453125 C 27.691406 -25.804688 31.664062 -23.769531 34.15625 -21.34375 C 36.644531 -18.914062 37.890625 -15.890625 37.890625 -12.265625 C 37.890625 -8.242188 36.363281 -5.085938 33.3125 -2.796875 C 30.269531 -0.503906 26.175781 0.640625 21.03125 0.640625 C 17.445312 0.640625 14.1875 -0.015625 11.25 -1.328125 C 8.3125 -2.640625 6.066406 -4.429688 4.515625 -6.703125 C 2.972656 -8.984375 2.203125 -11.628906 2.203125 -14.640625 L 11.828125 -14.640625 C 11.828125 -9.503906 14.894531 -6.9375 21.03125 -6.9375 C 23.300781 -6.9375 25.078125 -7.398438 26.359375 -8.328125 C 27.640625 -9.253906 28.28125 -10.546875 28.28125 -12.203125 Z M 28.28125 -12.203125 "/></g></g></g><g fill="#277bec" fill-opacity="1"><g transform="translate(470.23093, 219.058493)"><g><path d="M 42.015625 0 L 32.4375 0 L 32.4375 -19.9375 L 13.734375 -19.9375 L 13.734375 0 L 4.15625 0 L 4.15625 -46.515625 L 13.734375 -46.515625 L 13.734375 -27.671875 L 32.4375 -27.671875 L 32.4375 -46.515625 L 42.015625 -46.515625 Z M 42.015625 0 "/></g></g></g></svg>