<svg xmlns="http://www.w3.org/2000/svg" width="679.098" height="389.494" viewBox="0 0 679.098 389.494"><g transform="translate(-160.453 -305.251)"><path d="M246.712,586.874l-35.171,46.055L176.61,586.874H160.453V693.5h14.912V609.43l36.176,47.77,36.411-47.77V693.5h14.912V586.874Z" fill="#001021"/><rect width="14.907" height="106.627" transform="translate(285.214 586.877)" fill="#001021"/><path d="M337.378,639.014H361.19q13.889,0,19.008-5.4t5.111-14.032q0-19.593-24.745-19.591H337.378ZM322.471,693.5V586.873h39.344q17.874,0,28.137,8.368t10.264,23.869q0,13.092-6.831,20.806a34.844,34.844,0,0,1-17.054,10.6L404.666,693.5H387.1l-25.755-40.589H337.378V693.5Z" fill="#001021"/><path d="M461.894,605.449l16.944,44.258H444.955Zm-7.18-18.575L412.171,693.5h16l11.473-29.9h44.5l11.473,29.9h16L469.23,586.874Z" fill="#001021"/><path d="M599.391,586.874v84.852l-59.634-84.852H522.813V693.5h14.912V608.1l60.1,85.4H614.3V586.874Z" fill="#001021"/><path d="M631.424,586.874v13.891h35.749V693.5h14.912V600.765h35.978V586.874Z" fill="#001021"/><rect width="14.907" height="106.627" transform="translate(735.203 586.877)" fill="#001021"/><path d="M767.888,615.676a28.47,28.47,0,0,1,9.1-21.285q9.1-8.769,28.167-8.769a61.213,61.213,0,0,1,27.48,6.492v14.495a48.669,48.669,0,0,0-25.687-7.091q-24.15,0-24.151,16.158,0,4.329,4.247,7.565a33.531,33.531,0,0,0,10.478,5.164q6.229,1.93,13.657,5.007a132.305,132.305,0,0,1,13.672,6.539,28.948,28.948,0,0,1,10.473,10.166,28.64,28.64,0,0,1,4.22,15.6q0,13.662-10.238,21.342t-28.277,7.686a71.935,71.935,0,0,1-31.732-7.634V671.792q14.85,9.067,30.4,9.061,24.863,0,24.932-15.131a15.723,15.723,0,0,0-4.2-11.036,24.21,24.21,0,0,0-10.442-6.617l-13.713-4.653q-7.473-2.6-13.7-5.32a25.515,25.515,0,0,1-10.452-8.472,22.9,22.9,0,0,1-4.231-13.948" fill="#001021"/><path d="M349.323,369.533c39.532,10.987,67.388,34.674,96.269,58.4,25.574-14.031,50.884-28.581,76.173-42.282q13.024-7.056,25.976-13.3c-8.7-7.513-17.417-14.989-26.554-21.895-34.689-26.247-73.576-41.323-117.065-44.5-81.719-5.977-168.316,26.423-227.628,82.633,51.9-31.134,115.31-35.048,172.829-19.056" fill="#001021"/><path d="M614.583,419.345c-14.776-6.364-27.871-15.113-40.314-24.813-27.556,15-54.8,30.731-82.011,45.471q-9.447,5.124-18.866,9.81a276.119,276.119,0,0,0,23.08,15.289c102.552,60.248,243.889,27.146,327.034-51.88-63.137,38.068-142.822,34.586-208.923,6.123" fill="#001021"/><path d="M786.175,315.351c-98.266-4.8-183.539,15.384-271.607,63.1C418.877,430.3,322.879,494.362,213.458,495.9c98.266,4.8,183.547-15.384,271.607-63.094,95.7-51.857,191.7-115.917,301.11-117.46" fill="#ef2369"/></g></svg>