<?xml version="1.0" encoding="UTF-8"?>
<svg width="600" height="177" viewBox="0 0 600 177" xmlns="http://www.w3.org/2000/svg">
    <g id="Group">
        <g id="g1">
            <g id="g2">
                <path id="Path" fill="#00a1df" stroke="none" d="M 89.300003 170 C 44.5 170 8.200001 133.700012 8.200001 88.899994 C 8.1 44.100006 44.5 7.700012 89.300003 7.700012 C 134.100006 7.700012 170.399994 44 170.399994 88.799988 C 170.399994 133.600006 134.100006 170 89.300003 170 L 89.300003 170 Z M 89.199997 -0.200012 C 40.200001 -0.200012 0.299999 39.5 0.299999 88.299988 C 0.299999 137.100006 40.200001 176.799988 89.199997 176.799988 C 138.199997 176.799988 178.100006 137.100006 178.100006 88.299988 C 178.199997 39.5 138.300003 -0.200012 89.199997 -0.200012 L 89.199997 -0.200012 Z"/>
            </g>
        </g>
        <path id="path1" fill="#00a1df" stroke="none" d="M 66.699997 128.100006 C 53.300003 121.799988 44 107.600006 44 91.100006 C 44 82.399994 46.599998 74.299988 51 67.799988 L 80.199997 111.399994 L 97.900002 111.399994 L 127.100006 67.799988 C 131.5 74.399994 134.100006 82.5 134.100006 91.100006 C 134.100006 106.5 126 119.799988 114.100006 126.700012 L 119.699997 148.299988 C 141.199997 137.200012 155.800003 114.899994 155.800003 89.100006 C 155.800003 64.700012 142.699997 43.5 123.199997 31.899994 L 89.199997 84.299988 L 55.599998 31.700012 C 35.900002 43.299988 22.599998 64.700012 22.599998 89.100006 C 22.599998 115.799988 38.299999 138.899994 61 149.399994 L 66.699997 128.100006 L 66.699997 128.100006 Z"/>
        <path id="path2" fill="#00a1df" stroke="none" d="M 245.200012 97.600006 L 223.399994 51 L 212 51 L 212 125.799988 L 223.399994 125.799988 L 223.399994 75.799988 L 241 112.299988 L 249.5 112.299988 L 266.600006 75.799988 L 266.600006 125.799988 L 278 125.799988 L 278 51 L 266.600006 51 Z"/>
        <path id="path3" fill="#00a1df" stroke="none" d="M 320.600006 105 C 320.600006 113.200012 315.600006 116.899994 309.600006 116.899994 C 303.600006 116.899994 298.899994 113.299988 298.899994 105 L 298.899994 72.5 L 288.200012 72.5 L 288.200012 106.600006 C 288.200012 112.600006 289.5 117.700012 293.600006 121.700012 C 296.799988 124.700012 301.299988 126.5 306.700012 126.5 C 312.100006 126.5 317.200012 124.5 320.899994 120.5 L 320.899994 125.899994 L 331.399994 125.899994 L 331.399994 72.600006 L 320.700012 72.600006 L 320.700012 105 L 320.600006 105 Z"/>
        <path id="path4" fill="#00a1df" stroke="none" d="M 352.299988 110.5 L 352.299988 51 L 341.600006 51 L 341.600006 111.100006 C 341.600006 119 346 125.799988 356.200012 125.799988 L 362.799988 125.799988 L 362.799988 116.700012 L 358.100006 116.700012 C 353.799988 116.700012 352.299988 114.600006 352.299988 110.5 L 352.299988 110.5 Z"/>
        <path id="path5" fill="#00a1df" stroke="none" d="M 376.700012 94.799988 C 376.799988 91.600006 377 90 378.100006 87.600006 C 379.799988 83.600006 383.700012 80.899994 388.700012 80.899994 C 393.700012 80.899994 397.5 83.600006 399.200012 87.600006 C 400.200012 90 400.600006 91.600006 400.700012 94.799988 L 376.700012 94.799988 L 376.700012 94.799988 Z M 388.600006 71.899994 C 375 71.899994 366 81.899994 366 99.100006 C 366 119.399994 376.600006 126.399994 390 126.399994 C 399.399994 126.399994 404.5 123.600006 409.899994 118.100006 L 403 111.700012 C 399.200012 115.5 396 117.200012 390.100006 117.200012 C 381.399994 117.200012 376.5 111.5 376.5 102.299988 L 411.100006 102.299988 L 411.100006 97.600006 C 411.200012 82.5 402.899994 71.899994 388.600006 71.899994 L 388.600006 71.899994 Z"/>
        <path id="path6" fill="#00a1df" stroke="none" d="M 464.100006 89.100006 C 460.899994 86.299988 457 84.600006 450.100006 83.5 L 441.600006 82.200012 C 438.200012 81.700012 435.100006 80.399994 433.200012 78.799988 C 431.200012 77 430.399994 74.600006 430.399994 71.799988 C 430.399994 65.200012 435.200012 60.100006 444 60.100006 C 450.299988 60.100006 455.700012 61.5 460.299988 65.799988 L 467.5 58.700012 C 461.100006 52.799988 454.200012 50.200012 444.299988 50.200012 C 428.700012 50.200012 419.299988 59.100006 419.299988 72.200012 C 419.299988 78.299988 421.100006 83 424.799988 86.5 C 428 89.600006 432.899994 91.600006 439 92.5 L 447.799988 93.799988 C 452.200012 94.399994 454.100006 95.200012 456 97 C 458 98.799988 459 101.5 459 104.799988 C 459 112 453.299988 116.200012 443.600006 116.200012 C 435.899994 116.200012 430 114.5 424.5 109.100006 L 416.899994 116.5 C 424 123.700012 432.100006 126.399994 443.399994 126.399994 C 459.100006 126.399994 470.299988 118.200012 470.299988 104.399994 C 470.200012 98.100006 468.200012 92.799988 464.100006 89.100006 L 464.100006 89.100006 Z"/>
        <path id="path7" fill="#00a1df" stroke="none" d="M 506.400024 113.799988 C 504.400024 115.799988 501.700012 116.899994 498.5 116.899994 C 495.299988 116.899994 492.700012 115.799988 490.700012 113.799988 C 487.399994 110.600006 487 105 487 99.200012 C 487 93.399994 487.399994 87.899994 490.700012 84.600006 C 492.700012 82.600006 495.299988 81.5 498.5 81.5 C 501.599976 81.5 504.400024 82.5 506.400024 84.600006 C 509.599976 87.799988 510.099976 93.399994 510.099976 99.200012 C 510.099976 104.899994 509.599976 110.5 506.400024 113.799988 L 506.400024 113.799988 Z M 498.5 71.899994 C 491.299988 71.899994 486.100006 74.600006 482.600006 78.200012 C 477.600006 83.5 476.299988 90.200012 476.299988 99.100006 C 476.299988 108.100006 477.600006 114.899994 482.600006 120.100006 C 486 123.700012 491.200012 126.399994 498.5 126.399994 C 505.700012 126.399994 511 123.700012 514.5 120.100006 C 519.5 114.799988 520.799988 108.100006 520.799988 99.100006 C 520.799988 90.200012 519.5 83.399994 514.5 78.200012 C 511 74.700012 505.700012 71.899994 498.5 71.899994 L 498.5 71.899994 Z"/>
        <path id="path8" fill="#00a1df" stroke="none" d="M 531.599976 65.299988 L 531.599976 73.5 L 525.5 73.5 L 525.5 81.700012 L 531.599976 81.700012 L 531.599976 125.799988 L 542.299988 125.799988 L 542.299988 81.700012 L 552.900024 81.700012 L 552.900024 73.5 L 542.299988 73.5 L 542.299988 65.799988 C 542.299988 61.899994 544.200012 59.600006 548.200012 59.600006 L 552.900024 59.600006 L 552.900024 50.399994 L 546.200012 50.399994 C 536.200012 50.5 531.599976 57.700012 531.599976 65.299988 L 531.599976 65.299988 Z"/>
        <path id="path9" fill="#00a1df" stroke="none" d="M 576.400024 57.299988 L 565.700012 57.299988 L 565.700012 73.5 L 559.599976 73.5 L 559.599976 81.700012 L 565.700012 81.700012 L 565.700012 111 C 565.700012 118.700012 570.299988 125.799988 580.299988 125.799988 L 586.700012 125.799988 L 586.700012 116.700012 L 582.299988 116.700012 C 578.299988 116.700012 576.400024 114.399994 576.400024 110.5 L 576.400024 81.700012 L 586.700012 81.700012 L 586.700012 73.5 L 576.400024 73.5 L 576.400024 57.299988 L 576.400024 57.299988 Z"/>
        <path id="path10" fill="#00a1df" stroke="none" d="M 599 69.799988 C 598.799988 70.399994 598.5 70.899994 598 71.299988 C 597.5 71.700012 597.099976 72.100006 596.5 72.299988 C 596 72.600006 595.299988 72.700012 594.599976 72.700012 C 593.900024 72.700012 593.299988 72.600006 592.700012 72.299988 C 592.099976 72 591.599976 71.700012 591.200012 71.299988 C 590.799988 70.899994 590.400024 70.299988 590.200012 69.799988 C 590 69.200012 589.799988 68.5 589.799988 67.799988 C 589.799988 67.100006 589.900024 66.5 590.200012 65.899994 C 590.400024 65.299988 590.700012 64.799988 591.200012 64.399994 C 591.700012 64 592.099976 63.600006 592.700012 63.399994 C 593.299988 63.100006 593.900024 63 594.599976 63 C 595.299988 63 595.900024 63.100006 596.5 63.399994 C 597 63.700012 597.599976 64 598 64.399994 C 598.400024 64.799988 598.799988 65.299988 599 65.899994 C 599.200012 66.5 599.400024 67.200012 599.400024 67.799988 C 599.299988 68.600006 599.200012 69.200012 599 69.799988 L 599 69.799988 Z M 599.900024 65.600006 C 599.599976 64.899994 599.200012 64.299988 598.599976 63.799988 C 598.099976 63.299988 597.5 62.899994 596.799988 62.600006 C 596.099976 62.299988 595.400024 62.200012 594.599976 62.200012 C 593.799988 62.200012 593.099976 62.399994 592.400024 62.600006 C 591.700012 62.899994 591.099976 63.299988 590.5 63.799988 C 590 64.299988 589.599976 64.899994 589.200012 65.600006 C 588.900024 66.299988 588.799988 67 588.799988 67.799988 C 588.799988 68.600006 589 69.399994 589.200012 70.100006 C 589.5 70.799988 589.900024 71.399994 590.5 71.899994 C 591 72.399994 591.599976 72.799988 592.400024 73.100006 C 593.099976 73.399994 593.799988 73.5 594.599976 73.5 C 595.400024 73.5 596.099976 73.299988 596.799988 73.100006 C 597.5 72.799988 598.099976 72.399994 598.599976 71.899994 C 599.099976 71.399994 599.5 70.799988 599.900024 70.100006 C 600.200012 69.399994 600.299988 68.600006 600.299988 67.799988 C 600.299988 67 600.200012 66.299988 599.900024 65.600006 L 599.900024 65.600006 Z"/>
        <path id="path11" fill="#00a1df" stroke="none" d="M 594.5 67.5 L 593.400024 67.5 L 593.400024 65.399994 L 594.799988 65.399994 C 595 65.399994 595.099976 65.399994 595.299988 65.5 C 595.5 65.5 595.599976 65.600006 595.799988 65.700012 C 596 65.799988 596.099976 65.899994 596.099976 66 C 596.200012 66.100006 596.200012 66.299988 596.200012 66.5 C 596.200012 66.799988 596.099976 67 596 67.100006 C 595.900024 67.299988 595.799988 67.399994 595.599976 67.399994 C 595.400024 67.5 595.299988 67.5 595.099976 67.5 C 595 67.5 594.799988 67.5 594.5 67.5 L 594.5 67.5 Z M 596.799988 67.799988 C 597.099976 67.5 597.299988 67.100006 597.299988 66.5 C 597.299988 65.799988 597.099976 65.399994 596.700012 65.100006 C 596.299988 64.799988 595.700012 64.600006 594.900024 64.600006 L 592.299988 64.600006 L 592.299988 71.299988 L 593.299988 71.299988 L 593.299988 68.399994 L 594.400024 68.399994 L 596.200012 71.299988 L 597.299988 71.299988 L 595.400024 68.299988 C 596.099976 68.200012 596.5 68.100006 596.799988 67.799988 L 596.799988 67.799988 Z"/>
    </g>
</svg>
