<svg width="1012" height="156" viewBox="0 0 1012 156" fill="none" xmlns="http://www.w3.org/2000/svg">
<g clip-path="url(#clip0_25_435)">
<path d="M52.3896 29.9997C48.6332 27.5439 44.1557 25.0638 38.9395 22.9364C23.3294 16.5718 8.94457 16.5648 0 17.3962C0 17.3962 34.1714 10.9791 51.0663 15.1919C51.1293 17.7001 51.2764 20.3654 51.5389 23.167C51.7665 25.5633 52.057 27.8444 52.3896 29.9997Z" fill="url(#paint0_linear_25_435)"/>
<path d="M73.2579 0.0699808C64.2784 -0.185024 53.5379 0.220189 41.5826 2.14146C24.5197 4.88363 10.4744 9.83352 0 14.4585C11.2411 12.2648 24.0681 10.6125 38.2288 10.2213C43.8301 10.0676 49.2004 10.12 54.3151 10.333L73.2579 0.0699808Z" fill="url(#paint1_linear_25_435)"/>
<path d="M95.5723 0.0698587C104.552 -0.185146 115.292 0.220067 127.248 2.14134C144.314 4.88351 158.359 9.8334 168.834 14.4584C157.593 12.2647 144.766 10.6124 130.605 10.2211C125.004 10.0674 119.633 10.1198 114.519 10.3329L95.5723 0.0698587Z" fill="url(#paint2_linear_25_435)"/>
<path d="M116.444 29.9997C120.2 27.544 124.678 25.0638 129.894 22.9364C145.504 16.5718 159.889 16.5683 168.83 17.3997C168.83 17.3997 134.659 10.9827 117.764 15.1955C117.701 17.7036 117.554 20.3689 117.291 23.1705C117.067 25.5633 116.776 27.8444 116.444 29.9997Z" fill="url(#paint3_linear_25_435)"/>
<path d="M117.764 15.192C117.764 15.192 119.388 27.6139 108.021 68.6592C96.6538 109.704 84.478 156 84.478 156V96.6992C84.478 96.6992 103.151 63.2587 117.764 15.192Z" fill="url(#paint4_linear_25_435)"/>
<path d="M103.151 10.3294C103.151 10.3294 113.437 9.7879 114.519 10.3294C114.519 10.3294 99.3636 0.607733 95.5757 0.0662842C95.5722 0.0697774 101.527 8.7085 103.151 10.3294Z" fill="url(#paint5_linear_25_435)"/>
<path d="M84.478 82.0522C84.478 82.0522 104.233 39.4944 114.518 10.3295C114.518 10.3295 113.437 9.78806 103.151 10.3295C103.151 10.3295 86.9146 74.3846 84.478 82.0522Z" fill="url(#paint6_linear_25_435)"/>
<path d="M50.9191 15.192C50.9191 15.192 49.2947 27.6139 60.6619 68.6592C72.029 109.704 84.2048 156 84.2048 156V96.6992C84.2083 96.6992 65.535 63.2587 50.9191 15.192Z" fill="url(#paint7_linear_25_435)"/>
<path d="M65.5351 10.3294C65.5351 10.3294 55.2497 9.7879 54.168 10.3294C54.168 10.3294 69.323 0.607733 73.1108 0.0662842C73.1108 0.0697774 67.156 8.7085 65.5351 10.3294Z" fill="url(#paint8_linear_25_435)"/>
<path d="M84.2084 82.0522C84.2084 82.0522 64.4533 39.4944 54.168 10.3295C54.168 10.3295 55.2497 9.78806 65.5351 10.3295C65.5351 10.3295 81.7718 74.3846 84.2084 82.0522Z" fill="#A6A6A6"/>
<path d="M282.918 42.8163H292.773L259.855 115.59L226.59 42.8163H236.595L259.855 93.6111L271.239 68.6801L274.789 60.7644L277.499 54.6653L282.918 42.8163Z" fill="#333333"/>
<path d="M331.278 42.8896C344.472 42.8652 357.667 42.8407 370.862 42.8163V52.4541C357.667 52.3283 344.472 52.1991 331.278 52.0733C331.278 49.0133 331.278 45.9532 331.278 42.8896ZM316.224 112.827C316.2 89.5171 316.175 66.2034 316.151 42.8931H325.81C325.684 66.2034 325.554 89.5171 325.428 112.827C322.361 112.827 319.295 112.827 316.224 112.827ZM331.278 103.644C344.472 103.563 357.667 103.479 370.862 103.399V112.89H331.274C331.278 109.806 331.278 106.725 331.278 103.644ZM331.274 82.597V72.9103H370.858V82.597H331.274Z" fill="#333333"/>
<path d="M719.941 103.63C733.136 103.504 746.33 103.375 759.525 103.249V112.887C746.33 112.862 733.136 112.838 719.941 112.813C719.941 109.753 719.941 106.693 719.941 103.63ZM714.092 42.8792C714.218 66.1894 714.347 89.5031 714.473 112.813H704.814C704.839 89.5031 704.863 66.1894 704.888 42.8792C707.958 42.8792 711.025 42.8792 714.092 42.8792ZM719.941 42.8163H759.525V52.3074C746.33 52.227 733.136 52.1432 719.941 52.0628C719.941 48.9818 719.941 45.8973 719.941 42.8163ZM759.525 73.106V82.7926H719.941V73.106H759.525Z" fill="#333333"/>
<path d="M445.982 42.8163H455.641V116.083L403.699 63.1224V112.887H394.041V39.9135L445.982 93.2688V42.8163Z" fill="#333333"/>
<path d="M495.826 52.4541H478.774V42.8163H495.826V52.4541ZM533.229 42.8163V52.4541H510.855V112.74H501.148V42.8163H533.229Z" fill="#333333"/>
<path d="M597.284 42.8163H606.943V90.0201C606.943 93.4295 606.277 96.6921 604.947 99.8081C603.617 102.921 601.817 105.61 599.552 107.874C597.284 110.134 594.592 111.93 591.469 113.257C588.346 114.584 585.08 115.248 581.663 115.248C578.246 115.248 574.977 114.584 571.857 113.257C568.735 111.93 566.043 110.134 563.778 107.874C561.509 105.61 559.713 102.924 558.379 99.8081C557.049 96.6956 556.384 93.433 556.384 90.0201V42.8163H566.043V90.0201C566.043 94.3168 567.569 97.9881 570.625 101.034C573.681 104.08 577.361 105.607 581.663 105.607C585.966 105.607 589.645 104.084 592.701 101.034C595.757 97.9846 597.284 94.3133 597.284 90.0201V42.8163Z" fill="#333333"/>
<path d="M682.416 65.6829C682.416 70.273 681.166 74.4439 678.67 78.1956C676.174 81.9508 672.887 84.7454 668.815 86.5793L682.416 112.74H672.708L660.144 88.546C660.046 88.546 659.923 88.553 659.776 88.5704C659.629 88.5879 659.521 88.5949 659.454 88.5949H639.692V112.688H629.984V78.9082H659.454C663.134 78.9082 666.263 77.6227 668.843 75.0482C671.424 72.4737 672.712 69.3542 672.712 65.6829C672.712 62.0115 671.424 58.8886 668.843 56.3141C666.263 53.7396 663.134 52.4541 659.454 52.4541H629.984V42.8163H659.454C663.596 42.8163 667.429 43.8328 670.961 45.8659C674.494 47.8989 677.284 50.676 679.339 54.2007C681.39 57.7253 682.416 61.5504 682.416 65.6829Z" fill="#333333"/>
<path d="M834.617 42.8163H844.276V116.083L792.335 63.1224V112.887H782.676V39.9135L834.617 93.2688V42.8163Z" fill="#333333"/>
<path d="M886.118 43.5534C890.742 41.5867 895.602 40.6051 900.692 40.6051C905.782 40.6051 910.631 41.5867 915.241 43.5534C919.852 45.5201 923.829 48.1749 927.175 51.5214C930.522 54.8644 933.183 58.8397 935.157 63.4437C937.132 68.0513 938.119 72.8754 938.119 77.9266C938.119 82.9743 937.132 87.8019 935.157 92.4095C933.183 97.0135 930.522 100.989 927.175 104.332C923.829 107.675 919.852 110.33 915.241 112.3C910.631 114.267 905.782 115.248 900.692 115.248C895.602 115.248 890.753 114.267 886.142 112.3C881.532 110.333 877.562 107.678 874.229 104.332C870.9 100.989 868.246 97.0135 866.272 92.4095C864.297 87.8054 863.31 82.9778 863.31 77.9266C863.31 72.8789 864.297 68.0513 866.272 63.4437C868.246 58.8397 870.896 54.8644 874.229 51.5214C877.558 48.1784 881.521 45.5236 886.118 43.5534ZM889.867 103.497C893.319 104.971 896.928 105.708 900.692 105.708C904.455 105.708 908.054 104.971 911.495 103.497C914.933 102.019 917.902 100.046 920.401 97.5725C922.901 95.0958 924.882 92.1475 926.346 88.7206C927.809 85.2938 928.544 81.6993 928.544 77.9266C928.544 74.1574 927.812 70.5594 926.346 67.1326C924.882 63.7092 922.901 60.7575 920.401 58.2808C917.902 55.8041 914.933 53.8304 911.495 52.3563C908.057 50.8821 904.455 50.1451 900.692 50.1451C896.928 50.1451 893.329 50.8821 889.888 52.3563C886.45 53.8339 883.482 55.8076 880.982 58.2808C878.483 60.754 876.501 63.7057 875.038 67.1326C873.571 70.5594 872.839 74.1574 872.839 77.9266C872.839 81.6958 873.571 85.2938 875.038 88.7206C876.501 92.1475 878.483 95.0958 880.982 97.5725C883.482 100.049 886.443 102.019 889.867 103.497Z" fill="#333333"/>
<path d="M978.917 64.7537C976.943 67.6147 974.976 70.4756 973.005 73.3436C966.181 63.4263 959.355 53.5161 952.532 43.5953H964.568C969.353 50.6481 974.132 57.7044 978.917 64.7537Z" fill="#333333"/>
<path d="M1012 113.533H1000.67C992.651 101.883 984.638 90.2368 976.614 78.5869C978.567 75.7259 980.514 72.865 982.467 69.9971C992.311 84.5079 1002.16 99.0222 1012 113.533Z" fill="#333333"/>
<path d="M1012 43.5988C1008.23 43.5988 1004.46 43.5988 1000.68 43.5988C984.631 66.9334 968.583 90.2681 952.532 113.603C956.544 113.578 960.556 113.557 964.568 113.533C980.377 90.2192 996.19 66.909 1012 43.5988Z" fill="#333333"/>
</g>
<defs>
<linearGradient id="paint0_linear_25_435" x1="24.6176" y1="10.1129" x2="27.647" y2="30.6334" gradientUnits="userSpaceOnUse">
<stop stop-color="#7B7B7B"/>
<stop offset="0.5137" stop-color="#343434"/>
<stop offset="0.7553" stop-color="#363636"/>
<stop offset="0.8422" stop-color="#3D3D3D"/>
<stop offset="0.9042" stop-color="#484848"/>
<stop offset="0.954" stop-color="#595959"/>
<stop offset="0.9965" stop-color="#6F6F6F"/>
<stop offset="1" stop-color="#717171"/>
</linearGradient>
<linearGradient id="paint1_linear_25_435" x1="37.4819" y1="0.352547" x2="35.5805" y2="15.8368" gradientUnits="userSpaceOnUse">
<stop stop-color="#D9D5DE"/>
<stop offset="0.3281" stop-color="#DCD5DE"/>
<stop offset="0.4536" stop-color="#E0D4DD"/>
<stop offset="0.6543" stop-color="#DDD1DA"/>
<stop offset="0.8044" stop-color="#D4C9D0"/>
<stop offset="0.9376" stop-color="#C5BAC0"/>
<stop offset="1" stop-color="#BBB1B6"/>
</linearGradient>
<linearGradient id="paint2_linear_25_435" x1="131.351" y1="0.352425" x2="133.252" y2="15.8367" gradientUnits="userSpaceOnUse">
<stop stop-color="#B5B7BB"/>
<stop offset="0.5279" stop-color="#A8A9AD"/>
<stop offset="1" stop-color="#AEB1B6"/>
</linearGradient>
<linearGradient id="paint3_linear_25_435" x1="144.215" y1="10.113" x2="141.185" y2="30.6334" gradientUnits="userSpaceOnUse">
<stop stop-color="#7B7B7B"/>
<stop offset="0.4749" stop-color="#343434"/>
<stop offset="0.7357" stop-color="#363636"/>
<stop offset="0.8296" stop-color="#3D3D3D"/>
<stop offset="0.8966" stop-color="#484848"/>
<stop offset="0.9504" stop-color="#595959"/>
<stop offset="0.9962" stop-color="#6F6F6F"/>
<stop offset="1" stop-color="#717171"/>
</linearGradient>
<linearGradient id="paint4_linear_25_435" x1="88.2471" y1="75.5749" x2="102.467" y2="86.6917" gradientUnits="userSpaceOnUse">
<stop stop-color="#414141"/>
<stop offset="0.453" stop-color="#464748"/>
<stop offset="1" stop-color="#535457"/>
</linearGradient>
<linearGradient id="paint5_linear_25_435" x1="105.635" y1="4.43927" x2="101.109" y2="10.2983" gradientUnits="userSpaceOnUse">
<stop stop-color="#676767"/>
<stop offset="0.1279" stop-color="#6A6A6A"/>
<stop offset="0.227" stop-color="#747474"/>
<stop offset="0.3165" stop-color="#848484"/>
<stop offset="0.3999" stop-color="#9B9B9B"/>
<stop offset="0.479" stop-color="#B9B9B9"/>
<stop offset="0.4832" stop-color="#BBBBBB"/>
<stop offset="0.5046" stop-color="#B0B0B0"/>
<stop offset="0.5598" stop-color="#989898"/>
<stop offset="0.6228" stop-color="#868686"/>
<stop offset="0.6975" stop-color="#797979"/>
<stop offset="0.7948" stop-color="#717171"/>
<stop offset="1" stop-color="#6F6F6F"/>
</linearGradient>
<linearGradient id="paint6_linear_25_435" x1="91.1208" y1="43.7294" x2="102.272" y2="47.0196" gradientUnits="userSpaceOnUse">
<stop stop-color="#A6A6A6"/>
<stop offset="0.176" stop-color="#A9A9A9"/>
<stop offset="0.3124" stop-color="#B3B3B3"/>
<stop offset="0.4351" stop-color="#C3C3C3"/>
<stop offset="0.4832" stop-color="#CCCCCC"/>
<stop offset="0.5487" stop-color="#BDBDBD"/>
<stop offset="0.6378" stop-color="#B0B0B0"/>
<stop offset="0.7544" stop-color="#A8A8A8"/>
<stop offset="1" stop-color="#A6A6A6"/>
</linearGradient>
<linearGradient id="paint7_linear_25_435" x1="51.1888" y1="87.7151" x2="84.2765" y2="83.4138" gradientUnits="userSpaceOnUse">
<stop stop-color="#37383A"/>
<stop offset="0.1776" stop-color="#393A3C"/>
<stop offset="0.273" stop-color="#404244"/>
<stop offset="0.3489" stop-color="#4C4E52"/>
<stop offset="0.4145" stop-color="#5C6165"/>
<stop offset="0.4734" stop-color="#72787E"/>
<stop offset="0.5268" stop-color="#8C949C"/>
<stop offset="0.5497" stop-color="#99A3AC"/>
<stop offset="0.5834" stop-color="#7E858C"/>
<stop offset="0.6225" stop-color="#656B6F"/>
<stop offset="0.666" stop-color="#515457"/>
<stop offset="0.7151" stop-color="#414344"/>
<stop offset="0.7729" stop-color="#363737"/>
<stop offset="0.8475" stop-color="#30302F"/>
<stop offset="1" stop-color="#2E2E2D"/>
</linearGradient>
<linearGradient id="paint8_linear_25_435" x1="61.1878" y1="1.98919" x2="66.0255" y2="8.35208" gradientUnits="userSpaceOnUse">
<stop stop-color="#767676"/>
<stop offset="0.2825" stop-color="#797979"/>
<stop offset="0.5014" stop-color="#838383"/>
<stop offset="0.699" stop-color="#939393"/>
<stop offset="0.8829" stop-color="#AAAAAA"/>
<stop offset="0.986" stop-color="#BBBBBB"/>
</linearGradient>
<clipPath id="clip0_25_435">
<rect width="1012" height="156" fill="white"/>
</clipPath>
</defs>
</svg>
