<svg xmlns="http://www.w3.org/2000/svg" height="829.731" width="872.157" clip-rule="evenodd"><path d="M828.524 510.541c0-8.585-5.873-15.555-13.106-15.555H661.39c-7.233 0-13.104 6.97-13.104 15.555v131.447c0 8.585 5.87 15.555 13.104 15.555h154.027c7.233 0 13.106-6.97 13.106-15.555z" fill="#fff" stroke="#000" stroke-width="1.098"/><path fill="none" stroke="#000" stroke-width=".91" stroke-dasharray="5.45823877,5.45823877" d="M37.725 426.126h561.237v360.223H37.725z"/><path d="M421.533 547.078c0-13.084-11.613-23.707-25.918-23.707H91.021c-14.304 0-25.914 10.623-25.914 23.707v200.336c0 13.084 11.61 23.706 25.914 23.706h304.594c14.305 0 25.918-10.622 25.918-23.706z" fill="#fff" stroke="#000" stroke-width="1.906"/><path d="M389.425 701.984c0-3.692-7.704-6.69-17.195-6.69H229.025c-9.491 0-17.199 2.998-17.199 6.69v51.04c0 3.692 7.708 6.69 17.2 6.69H372.23c9.491 0 17.195-2.998 17.195-6.69z" fill="none" stroke="#000" stroke-width="2.59"/><text transform="matrix(.92404 0 0 1.0822 -30.92 182.686)" x="272.804" y="512.498" font-size="31.116" font-family="Helvetica" stroke-width="1.945">Microservice</text><text style="line-height:1.25" x="94.869" y="471.665" font-weight="400" font-size="40" font-family="sans-serif" letter-spacing="0" word-spacing="0"><tspan x="94.869" y="471.665">Istio Service Mesh</tspan></text><path d="M648.383 570.593l-9.814 6.46-.098-12.77z" fill="#1800ff" fill-opacity=".753"/><path d="M648.383 570.83l-9.814 6.46-.098-12.769zm-8.828 4.614l6.988-4.6-7.058-4.492z" fill="#1800ff"/><path d="M357.153 568.852l281.647 1.095" fill="none" stroke="#1800ff" stroke-width="1.54"/><path d="M246.2 548.937c-1.398 0-2.536 1.826-2.536 4.075v32.017c0 2.252 1.138 4.078 2.536 4.078h107.394c1.398 0 2.535-1.826 2.535-4.078v-32.017c0-2.249-1.137-4.075-2.535-4.075z" fill="#4b252d" stroke="#000" stroke-width="1.392"/><text y="422.729" x="527.536" style="line-height:1.25" font-weight="400" font-size="40" font-family="sans-serif" letter-spacing="0" word-spacing="0" fill="#fff" transform="translate(-269.02 153.636)"><tspan y="422.729" x="527.536" font-size="26.667">Envoy</tspan></text><g style="line-height:1.25"><path d="M691.533 560.294h-15.328V537.03h15.328v2.75H679.3v6.375h12.234v2.75H679.3v8.64h12.234zm19.797 0h-3.703l-4.953-6.703-4.985 6.703h-3.421l6.812-8.703-6.75-8.75h3.703l4.922 6.594 4.938-6.594h3.437l-6.86 8.594zm12.89-.156q-.827.219-1.812.36-.969.14-1.734.14-2.672 0-4.063-1.438-1.39-1.437-1.39-4.609v-9.281h-1.985v-2.469h1.985v-5.016h2.937v5.016h6.063v2.469h-6.063v7.953q0 1.375.063 2.156.062.766.437 1.438.344.625.938.922.61.28 1.843.28.72 0 1.5-.202.782-.22 1.125-.36h.157zm18.173-8.266h-12.86q0 1.61.485 2.813.484 1.187 1.328 1.953.812.75 1.922 1.125 1.125.375 2.468.375 1.782 0 3.578-.703 1.813-.719 2.579-1.406h.156v3.203q-1.485.625-3.031 1.047-1.547.421-3.25.421-4.344 0-6.782-2.343-2.437-2.36-2.437-6.688 0-4.281 2.328-6.797 2.344-2.515 6.156-2.515 3.531 0 5.438 2.062 1.922 2.063 1.922 5.86zm-2.86-2.25q-.015-2.312-1.172-3.578-1.14-1.265-3.484-1.265-2.36 0-3.766 1.39-1.39 1.39-1.578 3.453zm18.203-3.578h-.156q-.656-.156-1.281-.219-.61-.078-1.453-.078-1.36 0-2.625.61-1.266.593-2.438 1.547v12.39h-2.937v-17.453h2.937v2.578q1.75-1.406 3.078-1.984 1.344-.594 2.735-.594.765 0 1.11.047.343.031 1.03.14zm17.391 14.25h-2.938v-9.937q0-1.203-.14-2.25-.14-1.063-.516-1.657-.39-.656-1.125-.968-.734-.328-1.906-.328-1.203 0-2.516.593-1.312.594-2.515 1.516v13.031h-2.938v-17.453h2.938v1.938q1.375-1.141 2.843-1.782 1.47-.64 3.016-.64 2.828 0 4.313 1.703 1.484 1.703 1.484 4.906zm19.219 0h-2.922v-1.86q-.39.266-1.063.75-.656.47-1.28.75-.735.36-1.688.595-.954.25-2.235.25-2.36 0-4-1.563-1.64-1.562-1.64-3.984 0-1.985.843-3.203.86-1.235 2.438-1.938 1.594-.703 3.828-.953t4.797-.375v-.453q0-1-.36-1.656-.343-.657-1-1.032-.625-.36-1.5-.484-.875-.125-1.828-.125-1.156 0-2.578.312-1.422.297-2.937.875h-.157v-2.984q.86-.234 2.485-.516 1.625-.28 3.203-.28 1.844 0 3.203.312 1.375.297 2.375 1.03.984.72 1.5 1.86.516 1.14.516 2.828zm-2.922-4.297v-4.86q-1.344.079-3.172.235-1.813.157-2.875.453-1.266.36-2.047 1.125-.781.75-.781 2.079 0 1.5.906 2.265.906.75 2.766.75 1.547 0 2.828-.594 1.281-.609 2.375-1.453zm11.578 4.297h-2.938v-24.312h2.938zm-109.891 43.36q0 1.359-.64 2.687-.625 1.328-1.766 2.25-1.25 1-2.922 1.563-1.656.562-4 .562-2.515 0-4.531-.469-2-.468-4.078-1.39v-3.875h.219q1.765 1.468 4.078 2.265 2.312.797 4.343.797 2.875 0 4.47-1.078 1.609-1.078 1.609-2.875 0-1.547-.766-2.281-.75-.735-2.297-1.14-1.172-.313-2.547-.516-1.36-.204-2.89-.516-3.094-.656-4.594-2.234-1.485-1.594-1.485-4.141 0-2.922 2.47-4.781 2.468-1.875 6.265-1.875 2.453 0 4.5.468 2.047.47 3.625 1.157v3.656h-.219q-1.328-1.125-3.5-1.86-2.156-.75-4.422-.75-2.484 0-4 1.032-1.5 1.031-1.5 2.656 0 1.453.75 2.281.75.828 2.64 1.266 1 .219 2.845.531 1.843.313 3.125.64 2.593.688 3.906 2.079 1.312 1.39 1.312 3.89zm19.344-1.782h-12.86q0 1.61.485 2.813.484 1.187 1.328 1.953.813.75 1.922 1.125 1.125.375 2.469.375 1.781 0 3.578-.703 1.812-.719 2.578-1.406h.156v3.203q-1.484.625-3.03 1.047-1.548.421-3.25.421-4.345 0-6.782-2.343-2.438-2.36-2.438-6.688 0-4.281 2.328-6.797 2.344-2.515 6.157-2.515 3.53 0 5.437 2.062 1.922 2.063 1.922 5.86zm-2.86-2.25q-.015-2.312-1.171-3.578-1.14-1.265-3.485-1.265-2.359 0-3.765 1.39-1.39 1.39-1.578 3.453zm18.204-3.578h-.156q-.657-.156-1.282-.219-.61-.078-1.453-.078-1.36 0-2.625.61-1.265.593-2.437 1.547v12.39h-2.938v-17.453h2.938v2.578q1.75-1.406 3.078-1.984 1.344-.594 2.734-.594.766 0 1.11.047.343.031 1.03.14zm17.891-3.203l-7.063 17.453h-2.953l-7.016-17.453h3.188l5.406 13.89 5.36-13.89zm7-2.921h-3.313v-3.048h3.312zm-.188 20.374h-2.938v-17.453h2.938zm18.75-1.094q-1.469.704-2.797 1.094-1.312.39-2.797.39-1.89 0-3.469-.546-1.578-.563-2.703-1.688-1.14-1.125-1.765-2.843-.625-1.72-.625-4.016 0-4.281 2.343-6.719 2.36-2.437 6.22-2.437 1.5 0 2.937.422 1.453.422 2.656 1.03v3.267h-.156q-1.344-1.047-2.782-1.61-1.421-.562-2.78-.562-2.5 0-3.954 1.687-1.437 1.672-1.437 4.922 0 3.156 1.406 4.86 1.422 1.687 3.984 1.687.89 0 1.813-.234.922-.235 1.656-.61.64-.328 1.203-.687.563-.375.89-.64h.157zm18.391-7.328h-12.86q0 1.61.485 2.813.484 1.187 1.328 1.953.812.75 1.922 1.125 1.125.375 2.468.375 1.782 0 3.578-.703 1.813-.719 2.579-1.406h.156v3.203q-1.485.625-3.031 1.047-1.547.421-3.25.421-4.344 0-6.782-2.343-2.437-2.36-2.437-6.688 0-4.281 2.328-6.797 2.344-2.515 6.156-2.515 3.531 0 5.438 2.062 1.922 2.063 1.922 5.86zm-2.86-2.25q-.015-2.312-1.172-3.578-1.14-1.265-3.484-1.265-2.36 0-3.766 1.39-1.39 1.39-1.578 3.453z" style="-inkscape-font-specification:'sans-serif, Normal';font-variant-ligatures:normal;font-variant-caps:normal;font-variant-numeric:normal;font-feature-settings:normal;text-align:start" aria-label="External Service" font-weight="400" font-size="32" font-family="sans-serif" letter-spacing="0" word-spacing="0"/></g><path d="M829.709 121.185c0-8.585-5.873-15.555-13.106-15.555H662.576c-7.234 0-13.105 6.97-13.105 15.555v131.447c0 8.585 5.871 15.555 13.105 15.555h154.027c7.233 0 13.106-6.97 13.106-15.555z" fill="#fff" stroke="#000" stroke-width="1.098"/><path fill="none" stroke="#000" stroke-width=".91" stroke-dasharray="5.45823877,5.45823877" d="M38.91 36.77h561.237v360.223H38.91z"/><path d="M422.718 157.722c0-13.084-11.614-23.707-25.918-23.707H92.206c-14.304 0-25.914 10.623-25.914 23.707v200.335c0 13.084 11.61 23.707 25.914 23.707H396.8c14.304 0 25.918-10.623 25.918-23.707z" fill="#fff" stroke="#000" stroke-width="1.906"/><path d="M390.61 312.628c0-3.693-7.704-6.69-17.196-6.69H230.21c-9.491 0-17.2 2.997-17.2 6.69v51.04c0 3.692 7.709 6.69 17.2 6.69h143.204c9.492 0 17.196-2.998 17.196-6.69z" fill="none" stroke="#000" stroke-width="2.59"/><text transform="matrix(.92404 0 0 1.0822 -29.735 -206.67)" x="272.804" y="512.498" font-size="31.116" font-family="Helvetica" stroke-width="1.945">Microservice</text><text style="line-height:1.25" x="110.519" y="370.833" font-weight="400" font-size="40" font-family="sans-serif" letter-spacing="0" word-spacing="0" transform="translate(-14.466 -288.524)"><tspan x="110.519" y="370.833">Istio Service Mesh</tspan></text><path d="M649.568 181.236l-9.814 6.46-.098-12.769z" fill="#1800ff" fill-opacity=".753"/><path d="M649.568 181.474l-9.814 6.46-.098-12.77zm-8.828 4.614l6.988-4.6-7.058-4.492z" fill="#1800ff"/><path d="M358.338 179.496l281.647 1.095" fill="none" stroke="#1800ff" stroke-width="1.54"/><path d="M247.385 159.581c-1.398 0-2.536 1.826-2.536 4.075v32.016c0 2.253 1.138 4.079 2.536 4.079h107.393c1.398 0 2.536-1.826 2.536-4.079v-32.016c0-2.25-1.138-4.075-2.536-4.075z" fill="#4b252d" stroke="#000" stroke-width="1.392"/><text y="422.729" x="527.536" style="line-height:1.25" font-weight="400" font-size="40" font-family="sans-serif" letter-spacing="0" word-spacing="0" fill="#fff" transform="translate(-267.836 -235.72)"><tspan y="422.729" x="527.536" font-size="26.667">Envoy</tspan></text><g style="line-height:1.25"><path d="M692.718 170.938H677.39v-23.266h15.328v2.75h-12.234v6.375h12.234v2.75h-12.234v8.64h12.234zm19.797 0h-3.703l-4.953-6.703-4.985 6.703h-3.422l6.813-8.703-6.75-8.75h3.703l4.922 6.593 4.937-6.593h3.438l-6.86 8.593zm12.89-.156q-.828.218-1.812.359-.969.14-1.734.14-2.672 0-4.063-1.437-1.39-1.437-1.39-4.61v-9.28h-1.985v-2.47h1.984v-5.015h2.938v5.016h6.062v2.468h-6.062v7.954q0 1.375.062 2.156.063.765.438 1.437.344.625.937.922.61.281 1.844.281.719 0 1.5-.203.781-.218 1.125-.359h.156zm18.172-8.266h-12.86q0 1.61.485 2.812.485 1.188 1.328 1.954.813.75 1.922 1.125 1.125.375 2.469.375 1.781 0 3.578-.704 1.813-.718 2.578-1.406h.157v3.203q-1.485.625-3.032 1.047-1.547.422-3.25.422-4.343 0-6.781-2.344-2.437-2.359-2.437-6.687 0-4.281 2.328-6.797 2.343-2.516 6.156-2.516 3.531 0 5.437 2.063 1.922 2.062 1.922 5.86zm-2.86-2.25q-.015-2.313-1.171-3.578-1.14-1.266-3.484-1.266-2.36 0-3.766 1.39-1.39 1.391-1.578 3.454zm18.204-3.578h-.156q-.656-.156-1.281-.219-.61-.078-1.454-.078-1.359 0-2.625.61-1.265.593-2.437 1.546v12.39h-2.938v-17.452h2.938v2.578q1.75-1.406 3.078-1.984 1.344-.594 2.734-.594.766 0 1.11.047.344.03 1.031.14zm17.391 14.25h-2.938V161q0-1.203-.14-2.25-.141-1.062-.516-1.656-.39-.656-1.125-.969-.734-.328-1.906-.328-1.203 0-2.516.594-1.312.594-2.516 1.516v13.03h-2.937v-17.452h2.937v1.937q1.375-1.14 2.844-1.781 1.469-.64 3.016-.64 2.828 0 4.312 1.702 1.485 1.704 1.485 4.907zm19.218 0h-2.921v-1.86q-.391.266-1.063.75-.656.47-1.281.75-.735.36-1.688.594-.953.25-2.234.25-2.36 0-4-1.562-1.64-1.563-1.64-3.985 0-1.984.843-3.203.86-1.234 2.438-1.937 1.593-.703 3.828-.953 2.234-.25 4.797-.375v-.454q0-1-.36-1.656-.344-.656-1-1.031-.625-.36-1.5-.484-.875-.125-1.828-.125-1.156 0-2.578.312-1.422.297-2.938.875h-.156v-2.984q.86-.235 2.485-.516t3.203-.281q1.843 0 3.203.312 1.375.297 2.375 1.032.984.718 1.5 1.859.515 1.14.515 2.828zm-2.921-4.297v-4.86q-1.344.079-3.172.235-1.813.156-2.875.453-1.266.36-2.047 1.125-.781.75-.781 2.078 0 1.5.906 2.266.906.75 2.765.75 1.547 0 2.829-.594 1.28-.61 2.375-1.453zm11.578 4.297h-2.938v-24.313h2.938zm-109.891 43.359q0 1.36-.64 2.688-.626 1.328-1.766 2.25-1.25 1-2.922 1.562-1.656.563-4 .563-2.516 0-4.531-.469-2-.469-4.078-1.39v-3.876h.218q1.766 1.47 4.078 2.266 2.313.797 4.344.797 2.875 0 4.469-1.078 1.61-1.078 1.61-2.875 0-1.547-.766-2.282-.75-.734-2.297-1.14-1.172-.313-2.547-.516-1.36-.203-2.89-.515-3.094-.657-4.594-2.235-1.485-1.594-1.485-4.14 0-2.922 2.469-4.782 2.469-1.875 6.266-1.875 2.453 0 4.5.47 2.046.468 3.625 1.155v3.657h-.22q-1.327-1.125-3.5-1.86-2.155-.75-4.421-.75-2.484 0-4 1.031-1.5 1.032-1.5 2.657 0 1.453.75 2.281.75.828 2.64 1.266 1 .218 2.844.53 1.844.313 3.125.641 2.594.688 3.907 2.079 1.312 1.39 1.312 3.89zm19.344-1.781h-12.86q0 1.61.485 2.812.484 1.188 1.328 1.954.812.75 1.922 1.125 1.125.375 2.469.375 1.78 0 3.578-.704 1.812-.718 2.578-1.406h.156v3.203q-1.484.625-3.031 1.047-1.547.422-3.25.422-4.344 0-6.781-2.344-2.438-2.359-2.438-6.687 0-4.281 2.328-6.797Q702.468 203 706.28 203q3.532 0 5.438 2.063 1.922 2.062 1.922 5.86zm-2.86-2.25q-.015-2.313-1.171-3.578-1.141-1.266-3.485-1.266-2.36 0-3.765 1.39-1.391 1.391-1.579 3.454zm18.204-3.578h-.157q-.656-.156-1.281-.219-.61-.078-1.453-.078-1.36 0-2.625.61-1.266.593-2.438 1.546v12.39h-2.937v-17.452h2.937v2.578q1.75-1.406 3.079-1.984 1.343-.594 2.734-.594.766 0 1.11.047.343.03 1.03.14zm17.89-3.203l-7.062 17.453h-2.953l-7.016-17.453h3.187l5.407 13.89 5.359-13.89zm7-2.922h-3.312v-3.047h3.312zm-.187 20.375h-2.938v-17.453h2.938zm18.75-1.094q-1.47.703-2.797 1.094-1.313.39-2.797.39-1.89 0-3.469-.546-1.578-.563-2.703-1.688-1.14-1.125-1.766-2.844-.625-1.718-.625-4.015 0-4.282 2.344-6.719 2.36-2.438 6.219-2.438 1.5 0 2.937.422 1.454.422 2.657 1.032v3.265h-.157q-1.343-1.047-2.78-1.61-1.423-.562-2.782-.562-2.5 0-3.953 1.688-1.438 1.672-1.438 4.922 0 3.156 1.407 4.86 1.421 1.687 3.984 1.687.89 0 1.812-.235.922-.234 1.657-.61.64-.327 1.203-.687.562-.375.89-.64h.157zm18.39-7.328h-12.86q0 1.61.485 2.812.485 1.188 1.328 1.954.813.75 1.922 1.125 1.125.375 2.469.375 1.781 0 3.578-.704 1.813-.718 2.578-1.406h.157v3.203q-1.485.625-3.032 1.047-1.547.422-3.25.422-4.343 0-6.781-2.344-2.437-2.359-2.437-6.687 0-4.281 2.328-6.797 2.343-2.516 6.156-2.516 3.531 0 5.437 2.063 1.922 2.062 1.922 5.86zm-2.86-2.25q-.015-2.313-1.171-3.578-1.14-1.266-3.484-1.266-2.36 0-3.766 1.39-1.39 1.391-1.578 3.454z" style="-inkscape-font-specification:'sans-serif, Normal';font-variant-ligatures:normal;font-variant-caps:normal;font-variant-numeric:normal;font-feature-settings:normal;text-align:start" aria-label="External Service" font-weight="400" font-size="32" font-family="sans-serif" letter-spacing="0" word-spacing="0"/></g><text style="line-height:1.25" x="541.741" y="451.212" font-weight="400" font-size="40" font-family="sans-serif" letter-spacing="0" word-spacing="0" transform="translate(-14.466 -288.524)"><tspan x="541.741" y="451.212" style="-inkscape-font-specification:'sans-serif, Normal';font-variant-ligatures:normal;font-variant-caps:normal;font-variant-numeric:normal;font-feature-settings:normal;text-align:center" font-size="21.333" text-anchor="middle" fill="#00f">HTTPS</tspan><tspan x="541.741" y="501.212" style="-inkscape-font-specification:'sans-serif, Normal';font-variant-ligatures:normal;font-variant-caps:normal;font-variant-numeric:normal;font-feature-settings:normal;text-align:center" font-size="21.333" text-anchor="middle" fill="#00f">(encrypted)</tspan></text><g fill="#00f"><path d="M304.562 199.898l6.46 9.814-12.769.098z" fill-opacity=".753"/><path d="M304.74 199.898l6.46 9.814-12.77.098zm4.613 8.828l-4.6-6.988-4.492 7.058z"/></g><g fill="#00f" stroke="#00f"><path d="M304.183 303.414l-6.46-9.814 12.769-.098z" fill-opacity=".753"/><path d="M304.006 303.414l-6.46-9.814 12.77-.098zm-4.614-8.828l4.6 6.988 4.492-7.058z"/></g><path d="M303.46 295.723l1.118-85.748" fill="#00f" stroke="#00f" stroke-width=".859"/><text style="line-height:1.25" x="201.857" y="537.007" font-weight="400" font-size="40" font-family="sans-serif" letter-spacing="0" word-spacing="0" fill="#00f" transform="translate(-14.466 -288.524)"><tspan x="201.857" y="537.007" style="-inkscape-font-specification:'sans-serif, Normal';font-variant-ligatures:normal;font-variant-caps:normal;font-variant-numeric:normal;font-feature-settings:normal;text-align:center" font-size="21.333" text-anchor="middle">HTTPS (encrypted)</tspan></text><path fill-opacity="0" stroke="#fff" stroke-width="1.002" stroke-miterlimit="10" d="M-68.73-3.196h82v16h-82z"/><path fill-opacity="0" stroke="#fff" stroke-width="1.002" stroke-miterlimit="10" d="M.501.5h871.156v828.73H.501z"/><text style="line-height:1.25" x="526.091" y="552.044" font-weight="400" font-size="40" font-family="sans-serif" letter-spacing="0" word-spacing="0"><tspan x="526.091" y="552.044" style="-inkscape-font-specification:'sans-serif, Normal';font-variant-ligatures:normal;font-variant-caps:normal;font-variant-numeric:normal;font-feature-settings:normal;text-align:center" font-size="21.333" text-anchor="middle" fill="#00f">HTTPS</tspan><tspan x="526.091" y="602.044" style="-inkscape-font-specification:'sans-serif, Normal';font-variant-ligatures:normal;font-variant-caps:normal;font-variant-numeric:normal;font-feature-settings:normal;text-align:center" font-size="21.333" text-anchor="middle" fill="#00f">(encrypted)</tspan></text><g fill="red"><path d="M303.378 589.255l6.46 9.814-12.77.098z" fill-opacity=".753"/><path d="M303.554 589.255l6.46 9.814-12.769.098zm4.614 8.828l-4.6-6.988-4.492 7.058z"/></g><g fill="red"><path d="M302.998 692.77l-6.46-9.814 12.77-.098z" fill-opacity=".753"/><path d="M302.822 692.77l-6.46-9.814 12.769-.098zm-4.614-8.828l4.6 6.988 4.492-7.058z"/></g><path d="M302.275 685.08l1.118-85.748" fill="red" stroke="red" stroke-width=".859"/><text style="line-height:1.25" x="186.207" y="637.839" font-weight="400" font-size="40" font-family="sans-serif" letter-spacing="0" word-spacing="0" fill="red"><tspan x="186.207" y="637.839" style="-inkscape-font-specification:'sans-serif, Normal';font-variant-ligatures:normal;font-variant-caps:normal;font-variant-numeric:normal;font-feature-settings:normal;text-align:center" font-size="21.333" text-anchor="middle">HTTP (unencrypted)</tspan></text></svg>