<?xml version="1.0" encoding="UTF-8" standalone="no"?>
<!-- Created with Inkscape (http://www.inkscape.org/) -->
<svg
   xmlns:svg="http://www.w3.org/2000/svg"
   xmlns="http://www.w3.org/2000/svg"
   version="1.0"
   width="900"
   height="321.70001"
   id="svg2"
   xml:space="preserve"><defs
     id="defs5"><clipPath
       id="clipPath1029"><path
         d="M 25.502,709.23 L 117.752,709.23 L 117.752,762.48 L 25.502,762.48 L 25.502,709.23 z"
         id="path1031" /></clipPath></defs><g
     transform="matrix(1.25,0,0,-1.25,-45.003,928.885)"
     id="g11"><g
       transform="matrix(9.99985,0,0,9.99985,-324.0128,-6687.881)"
       id="g3420"><g
         transform="translate(53.7994,737.1999)"
         id="g1019"><path
           d="M 0,0 L 0,5.339 L -17.797,5.339 L -17.797,-19.575 L -12.457,-19.575 L -12.457,-10.677 L -1.779,-10.677 L -1.779,-5.339 L -12.457,-5.339 L -12.457,0 L 0,0 z"
           id="path1021"
           style="fill:#003f5f;fill-opacity:1;fill-rule:nonzero;stroke:none" /></g><path
         d="M 60.803,717.626 L 55.464,717.626 L 55.464,742.54 L 60.803,742.54 L 60.803,717.626 z"
         id="path1023"
         style="fill:#003f5f;fill-opacity:1;fill-rule:nonzero;stroke:none" /><g
         id="g1025"><g
           clip-path="url(#clipPath1029)"
           id="g1027"><g
             transform="translate(80.8147,724.712)"
             id="g1033"><path
               d="M 0,0 C -1.367,-1.299 -3.217,-2.1 -5.254,-2.1 C -9.47,-2.1 -12.888,1.32 -12.888,5.537 C -12.888,9.753 -9.47,13.171 -5.254,13.171 C -3.244,13.171 -1.418,12.394 -0.053,11.124 C 0.586,12.8 1.508,14.335 2.654,15.672 C 0.473,17.376 -2.271,18.396 -5.254,18.396 C -12.357,18.396 -18.113,12.638 -18.113,5.537 C -18.113,-1.565 -12.357,-7.322 -5.254,-7.322 C -2.225,-7.322 0.557,-6.273 2.754,-4.522 C 1.594,-3.195 0.656,-1.668 0,0"
               id="path1035"
               style="fill:#003f5f;fill-opacity:1;fill-rule:nonzero;stroke:none" /></g><g
             transform="translate(95.1428,722.6007)"
             id="g1037"><path
               d="M 0,0 C -4.217,0 -7.637,3.418 -7.637,7.635 C -7.637,11.852 -4.217,15.27 0,15.27 C 4.217,15.27 7.635,11.852 7.635,7.635 C 7.635,3.418 4.217,0 0,0 M 0,20.494 C -7.105,20.494 -12.859,14.736 -12.859,7.635 C -12.859,0.533 -7.105,-5.225 0,-5.225 C 7.104,-5.225 12.86,0.533 12.86,7.635 C 12.86,14.736 7.104,20.494 0,20.494"
               id="path1039"
               style="fill:#003f5f;fill-opacity:1;fill-rule:nonzero;stroke:none" /></g><g
             transform="translate(103.7093,719.3594)"
             id="g1041"><path
               d="M 0,0 L 0,0.396 L 1.756,0.396 L 1.756,0 L 1.114,0 L 1.114,-1.746 L 0.643,-1.746 L 0.643,0 L 0,0 z"
               id="path1043"
               style="fill:#003f5f;fill-opacity:1;fill-rule:nonzero;stroke:none" /></g><g
             transform="translate(106.3588,719.7549)"
             id="g1045"><path
               d="M 0,0 L 0.501,-1.473 L 0.507,-1.473 L 0.982,0 L 1.643,0 L 1.643,-2.142 L 1.203,-2.142 L 1.203,-0.623 L 1.196,-0.623 L 0.672,-2.142 L 0.309,-2.142 L -0.216,-0.639 L -0.221,-0.639 L -0.221,-2.142 L -0.663,-2.142 L -0.663,0 L 0,0 z"
               id="path1047"
               style="fill:#003f5f;fill-opacity:1;fill-rule:nonzero;stroke:none" /></g></g></g></g></g></svg>