<svg xmlns="http://www.w3.org/2000/svg" viewBox="0 0 924.092 294.029" aria-labelledby="logoTitleImg"><circle cx="700.921" cy="54.323" r="22.6"/><path d="M257.252 260.428c-32.896 0-49.189-18.798-49.189-50.127V127.59h-29.762V95.321h29.762V53.967l39.163-9.713v51.068h41.04v32.268h-41.04v79.265c0 12.531 5.638 17.857 18.169 17.857 8.146 0 14.725-.312 25.377-1.567v32.896c-10.964 2.819-21.93 4.387-33.52 4.387zm139.893-130.331c-27.57 0-41.981 19.736-41.981 46.054v82.083h-39.475V95.321h33.208l3.447 24.436c7.52-18.798 26.944-26.63 46.054-26.63 4.073 0 8.146.314 12.219.941v37.594c-4.388-.938-9.087-1.565-13.472-1.565zm140.719 128.137l-2.82-21.304c-7.832 15.978-26.003 25.377-46.68 25.377-34.776 0-56.394-23.497-56.394-58.273V95.321h39.163v99.94c0 19.112 7.52 31.017 28.197 31.017 9.085 0 15.351-3.447 20.051-8.146 9.399-8.773 11.905-23.497 11.905-36.655V95.321h39.161v162.913h-32.583zm102.711 1.879c-26.63 0-44.487-12.846-44.487-43.86V31.722h39.475v177.952c0 9.399 2.191 15.663 15.663 15.663 3.447 0 4.387-.312 6.579-.312v32.894c-7.831 1.568-9.398 2.194-17.23 2.194zm40.452-1.879V95.321h39.787v162.913h-39.787zm195.248 2.506c-16.919 0-26.318-10.652-27.57-22.871-7.52 13.16-26.315 24.438-49.501 24.438-38.849 0-58.9-24.438-58.9-51.068 0-31.015 24.124-48.874 55.141-51.066l47.933-3.447v-10.025c0-15.351-5.326-25.691-27.57-25.691-18.169 0-28.823 8.146-29.762 23.185h-37.908c2.191-36.657 31.329-52.947 67.67-52.947 27.885 0 51.694 8.773 61.093 33.208 4.073 10.34 4.699 21.93 4.699 32.896v60.465c0 7.52 2.506 10.34 9.085 10.34 2.508 0 5.014-.626 5.014-.626v28.823c-6.579 2.821-10.025 4.386-19.424 4.386zm-32.897-74.878l-41.355 3.134c-11.905.939-23.497 8.144-23.497 21.304 0 12.531 10.966 20.363 23.183 20.363 24.438 0 41.669-13.158 41.669-37.282v-7.519zM87.573 31.722c-35.964.201-59.18 24.336-59.18 60.831 0 30.212 19.708 56.047 30.941 95.325 6.431 22.493 9.89 50.025 11.705 70.356h33.068c1.815-20.331 5.274-47.863 11.705-70.356 11.232-39.278 30.941-65.113 30.941-95.325 0-36.495-23.215-60.629-59.18-60.831zm.19 92.973c-14.95 0-27.07-12.12-27.07-27.07s12.12-27.07 27.07-27.07c14.951 0 27.07 12.12 27.07 27.07s-12.119 27.07-27.07 27.07z"/></svg>