<svg id="Best-Black" xmlns="http://www.w3.org/2000/svg" viewBox="0 0 941.46 724.92"><defs><style>.cls-1{fill:#231f20;}.cls-2{fill:#010101;fill-rule:evenodd;}</style></defs><path class="cls-1" d="M371.84,770.09h0c-4.33,0-8.65,0-13,0-2,0-2.25.21-2.25,2.14q0,10,0,20.12c0,2,.24,2.22,2.18,2.22,8,0,16,.08,23.93,0a24.31,24.31,0,0,0,11-2.63,8.86,8.86,0,0,0,4.67-5.45c1.93-6.56-.13-12.77-7.45-15.16a24.28,24.28,0,0,0-7.48-1.19c-3.87,0-7.75,0-11.62,0m2.52,72.76h0c4.7,0,9.39,0,14.09,0a28.33,28.33,0,0,0,9.2-1.58c6.65-2.32,9-7.34,7.83-13.92-.84-4.9-4.33-7.46-8.8-8.85a31.1,31.1,0,0,0-9-1.32c-9.54-.06-19.07,0-28.61,0-2.29,0-2.42.13-2.42,2.41q0,10.4,0,20.79c0,2.38.12,2.49,2.55,2.5,5.07,0,10.13,0,15.2,0m-44.23-36.37V750.07c0-3.82,0-3.83,3.87-3.83h52.15a65.43,65.43,0,0,1,13.1,1.34,36.52,36.52,0,0,1,16.65,7.8,26.76,26.76,0,0,1,9.72,19.21,36.58,36.58,0,0,1-.26,8.69,27.56,27.56,0,0,1-11.78,18.56c-.7.5-2,.8-1.9,1.69.08,1.05,1.42,1.14,2.26,1.54a43.1,43.1,0,0,1,9.06,5.71,24.45,24.45,0,0,1,8.62,14,36,36,0,0,1-1.05,20.06,27.94,27.94,0,0,1-12.64,14.86,50.09,50.09,0,0,1-18.83,6.11,111.68,111.68,0,0,1-15.84.88c-16.49-.05-33,0-49.47,0-3.6,0-3.66-.05-3.66-3.59V806.48" transform="translate(-29.27 -143.72)"/><path class="cls-1" d="M656,779.75c-.61.3-.69.94-.91,1.47-2.19,5.34-4.35,10.7-6.53,16s-4.51,11-6.74,16.44c-.8,2-.6,2.25,1.61,2.32h25.1c.44,0,.89,0,1.33,0,.95,0,1.14-.52.8-1.33-.12-.27-.23-.54-.35-.82q-6.67-16.33-13.37-32.68c-.22-.52-.29-1.16-.94-1.43m49.42,86.94c-3.7,0-7.41-.08-11.11,0a3.22,3.22,0,0,1-3.48-2.37c-2.91-7.29-5.92-14.55-8.88-21.81-1-2.5-1-2.51-3.72-2.51H633.77c-2.67,0-2.67,0-3.71,2.54-2.93,7.2-5.91,14.39-8.75,21.62a3.48,3.48,0,0,1-3.81,2.54c-7.18-.12-14.37,0-21.55,0-2.85,0-3-.29-1.9-2.92q12.3-28.92,24.59-57.86,10.22-24,20.46-48c1.33-3.14,2.73-6.24,4-9.41a3.14,3.14,0,0,1,3.34-2.28c6.51,0,13,.08,19.55,0a3.48,3.48,0,0,1,3.71,2.43c3.45,8.27,7,16.5,10.5,24.75l18.45,43.33q6.36,14.92,12.7,29.85c2.43,5.72,4.89,11.44,7.31,17.17,1.11,2.63.89,2.95-1.9,3-3.78,0-7.56,0-11.34,0" transform="translate(-29.27 -143.72)"/><path class="cls-1" d="M92.79,744.24a77.2,77.2,0,0,1,9.28.52A74.59,74.59,0,0,1,113.23,747a56.27,56.27,0,0,1,22.21,12.1c.95.83,1.94,1.64,2.84,2.52,1.2,1.17,1.23,1.52.12,2.81-3.42,4-6.89,8-10.35,12-1.41,1.64-2.83,3.27-4.29,4.86-1.22,1.34-1.34,1.35-2.73.21a73.27,73.27,0,0,0-11.17-7.8,37.15,37.15,0,0,0-13.79-4.27,34.47,34.47,0,0,0-14.15,1.21A32.83,32.83,0,0,0,62.41,786.8c-7.65,13.69-6.4,32.51,4,45a31.4,31.4,0,0,0,21.71,11.6,38.69,38.69,0,0,0,17.82-2.12c5.3-2,9.79-5.35,14.13-8.9.7-.57,1.4-1.12,2.06-1.73a1.58,1.58,0,0,1,2.52.14c1.46,1.49,3,3,4.42,4.43q5,5,9.94,10c1.41,1.42,1.42,1.76.13,3.14-7.47,8-16.15,14.11-26.69,17.4a67,67,0,0,1-15.38,2.7c-13.34.91-26-1.31-37.7-8.12a59.18,59.18,0,0,1-24.48-27.11,59.87,59.87,0,0,1-5.13-18.47,64.63,64.63,0,0,1,4.63-33.49A62.27,62.27,0,0,1,47,762.37a58.78,58.78,0,0,1,21.19-13.85,61.65,61.65,0,0,1,16.32-3.87C87.2,744.39,90,744.24,92.79,744.24Z" transform="translate(-29.27 -143.72)"/><path class="cls-1" d="M218.31,842.31c0-6.86,0-13.72,0-20.58a8.77,8.77,0,0,0-1.52-5Q204.48,797.4,192.24,778q-8.51-13.41-17.06-26.8c-.59-.94-1.22-1.87-1.77-2.84-.94-1.64-.7-2,1.24-2.11.37,0,.75,0,1.12,0,8.28,0,16.56.09,24.83,0a4.85,4.85,0,0,1,4.8,2.79q12.58,21.4,25.34,42.71c1.28,2.15,1.39,2.14,2.67,0l25-41.31c.42-.7.85-1.41,1.21-2.15a3.46,3.46,0,0,1,3.59-2c6.86.07,13.73,0,20.59,0,1.79,0,3.58,0,5.37,0s2.13.56,1.11,2.16q-5,7.85-10,15.66L250.6,810.64c-1.33,2.07-2.65,4.15-4,6.21a5.83,5.83,0,0,0-1,3.13c0,1.41-.2,2.82-.21,4.24,0,13,0,26.1,0,39.15,0,3.23-.07,3.32-3.2,3.32H221.54c-3.08,0-3.22-.15-3.23-3.34v-21" transform="translate(-29.27 -143.72)"/><path class="cls-1" d="M898.26,842.5c0-6.93,0-13.87,0-20.81a8.13,8.13,0,0,0-1.38-4.61q-19-29.91-38-59.87c-1.83-2.9-3.69-5.78-5.49-8.7-1-1.7-.74-2.24,1.28-2.25,9,0,18,0,27.08,0,1.64,0,2.37,1,3.08,2.15q5,8.48,10,16.93,7.77,13.08,15.55,26.15c1.45,2.44,1.49,2.45,2.91.11q10-16.53,20-33.1c2-3.38,4.16-6.72,6.13-10.15a3.67,3.67,0,0,1,3.58-2.09c8.42,0,16.85,0,25.28,0,.78,0,1.81-.29,2.23.61s-.4,1.53-.83,2.19q-10.34,16.23-20.72,32.43Q938,798.82,926.87,816.14a9.82,9.82,0,0,0-1.63,5.65c.07,13.57,0,27.15,0,40.72v.9c0,3.13-.15,3.27-3.29,3.28H901.4c-.52,0-1,0-1.56,0a1.45,1.45,0,0,1-1.54-1.55q0-1,0-2,0-10.29,0-20.59" transform="translate(-29.27 -143.72)"/><path class="cls-1" d="M562.84,865.22a14.16,14.16,0,0,0-.84-1.33l-6.56-9.61q-9.84-14.41-19.69-28.83c-1.13-1.67-1.09-1.79.73-2.56a40.65,40.65,0,0,0,9.92-6A35,35,0,0,0,559,796.35a49.81,49.81,0,0,0,.53-17.13,38.08,38.08,0,0,0-4.29-13.35c-4.43-7.91-11.15-13.06-19.55-16.21a57.07,57.07,0,0,0-19.3-3.37c-8.72-.15-61.82.09-64.26,0-1.07,0-1.77.18-1.9.8a.85.85,0,0,0,.06.52h0v0a2,2,0,0,0,.17.27,4.61,4.61,0,0,1,.29.43c.07.11.21.29.29.4.29.45.59.86.78,1.16l13,18.91c1.61,1.69,3.78,2.14,6.07,2.12,7.91-.09,34.43,0,42.34,0a25.7,25.7,0,0,1,7.09.86c7.7,2.18,11.56,6.82,12.22,14.82.71,8.59-4.35,14.8-12.05,16.86-2.75.74-27.21.61-29,.67h0c-.73,0-1.32.33-1.42.85a.9.9,0,0,0,.19.73,6.68,6.68,0,0,0,.77,1.26c5.72,8.3,7.9,11.48,7.9,11.48s19.78,28.55,31.72,46.16a4.79,4.79,0,0,0,4.32,2.15c8.5-.07,17,0,25.51,0a11.56,11.56,0,0,0,1.56-.07c.86-.11,1.2-.58.78-1.4" transform="translate(-29.27 -143.72)"/><path class="cls-1" d="M830.59,865.22a14.06,14.06,0,0,0-.83-1.33l-6.56-9.61q-9.84-14.41-19.69-28.83c-1.13-1.67-1.09-1.79.72-2.56a40.52,40.52,0,0,0,9.93-6,35,35,0,0,0,12.62-20.54,49.81,49.81,0,0,0,.53-17.13A38.08,38.08,0,0,0,823,765.87c-4.43-7.91-11.15-13.06-19.55-16.21a57.07,57.07,0,0,0-19.3-3.37c-8.73-.15-61.82,0-64.26,0-1,0-1.77.18-1.9.8a.85.85,0,0,0,.06.52h0v0a1.34,1.34,0,0,0,.17.27,4.61,4.61,0,0,1,.29.43l.28.4c.29.45.6.86.79,1.16l13,18.91c1.61,1.69,3.78,2.14,6.07,2.12,7.91-.09,34.43,0,42.34,0a25.58,25.58,0,0,1,7.08.86c7.71,2.18,11.57,6.82,12.23,14.82.71,8.59-4.35,14.8-12.05,16.86-2.75.74-27.21.61-29,.67h0a1.3,1.3,0,0,0-1.41.85.89.89,0,0,0,.18.73,7.36,7.36,0,0,0,.78,1.26c5.72,8.3,7.9,11.48,7.9,11.48s19.78,28.55,31.72,46.16a4.77,4.77,0,0,0,4.31,2.15c8.51-.07,17,0,25.52,0a11.56,11.56,0,0,0,1.56-.07c.85-.11,1.2-.58.77-1.4" transform="translate(-29.27 -143.72)"/><path class="cls-2" d="M667.76,625.51a92,92,0,0,1-23.09,11.09c-46.7,15.31-94.52,24-143.81,21.39-68.4-3.64-128.94-26.72-177.58-76.19-37.8-38.44-59.92-85.27-69.65-138.07-8.41-45.69-6.3-91.17,3.05-136.48,11.55-56.05,34.21-107.59,63.42-156.46,4.94-8.28,5.19-8.29,14.91-5.09a1288.39,1288.39,0,0,1,123.5,48.1c57.4,25.62,112.44,55.59,164.07,91.57,33.14,23.08,64.5,48.34,92.26,77.79,12,12.77,23.57,26,33.07,40.86,1.5,2.35,2.73,3.88,3.72,7.69a25.74,25.74,0,0,1-8.15-5.8c-48.09-49-101.81-83.69-162.16-115.61a852.64,852.64,0,0,0-118.58-52.14c-32.9-11.43-66.35-20.83-100.94-25.63-8.64-1.2-9.71-.89-14,7-25.39,47-43.41,96.51-49.11,150-4.81,45.21-2.13,89.63,14.22,132.48,25,65.59,71.44,108.77,138,130.46,29.67,9.66,60.37,13.3,91.31,12.93,34.83-.42,69.26-5.52,103.07-14.23C654.09,628.94,661,627.22,667.76,625.51Z" transform="translate(-29.27 -143.72)"/></svg>
