<svg xmlns="http://www.w3.org/2000/svg" viewBox="0 0 687.1 250.33"><defs><style>.aa7b0076-cbf7-4dd7-9b5e-bc444fe7ed93,.acab4e82-a04e-45b5-9bd7-6c8387d9326d,.ad1b79c1-fe1b-4ce9-be6c-5a5156276722,.b925d3b0-204d-4ef7-81b1-1e68ef4aa0a5,.e88a6b64-c50b-49c6-aa6f-861c18fe7c77,.fe3eb638-bafd-489a-acf4-4b83a0f88050{fill:none}.aa7b0076-cbf7-4dd7-9b5e-bc444fe7ed93,.acab4e82-a04e-45b5-9bd7-6c8387d9326d,.b925d3b0-204d-4ef7-81b1-1e68ef4aa0a5,.e88a6b64-c50b-49c6-aa6f-861c18fe7c77,.fe3eb638-bafd-489a-acf4-4b83a0f88050{stroke-linejoin:round}.f16af222-8f6f-4cfb-8c2d-f58cb6535dab{fill:#e5e5e4}.a46b6813-9297-465d-a9e1-8dec879dd6e5{fill:#fff}.bfbf8265-f905-4894-b5ff-300c71c7b5ce{font-size:14px}.bfbf8265-f905-4894-b5ff-300c71c7b5ce,.f52f5ae7-e6dc-4e96-955b-0f1aa88a3367{font-family:GoogleSans-Regular,Google Sans}.b4a81d1e-e186-43da-82f8-997290fec620{letter-spacing:-.01em}.a977d508-8c88-4235-98c9-2884dd686e9a,.bf6d55a4-870a-4fed-82d5-dbd916cde3ab{letter-spacing:0}.fe3eb638-bafd-489a-acf4-4b83a0f88050{stroke:#e905ee;stroke-width:3px}.b5f70278-4e76-4d46-952f-0e45caaf6dad{fill:#486baf}.f52f5ae7-e6dc-4e96-955b-0f1aa88a3367{font-size:16px}.a113430f-d639-4d65-8f97-1bbda2be29fc,.bcf97ba6-89b6-4e6d-9f1c-0272859e84cf{letter-spacing:0}.bded759f-20d6-4e7e-9198-307df0d550e7{letter-spacing:.01em}.acab4e82-a04e-45b5-9bd7-6c8387d9326d,.b925d3b0-204d-4ef7-81b1-1e68ef4aa0a5{stroke:#486baf}.acab4e82-a04e-45b5-9bd7-6c8387d9326d,.ad1b79c1-fe1b-4ce9-be6c-5a5156276722,.b925d3b0-204d-4ef7-81b1-1e68ef4aa0a5,.e88a6b64-c50b-49c6-aa6f-861c18fe7c77{stroke-linecap:round}.acab4e82-a04e-45b5-9bd7-6c8387d9326d,.b925d3b0-204d-4ef7-81b1-1e68ef4aa0a5,.e88a6b64-c50b-49c6-aa6f-861c18fe7c77{stroke-width:4px}.acab4e82-a04e-45b5-9bd7-6c8387d9326d{stroke-dasharray:6 12}.a3e7c483-b428-4f5e-84c0-8520695bc486{letter-spacing:-.02em}.abc7a5dc-0ca9-4671-9e5e-2c6310e2de2a{letter-spacing:-.01em}.e88a6b64-c50b-49c6-aa6f-861c18fe7c77{stroke:#818181}.ecf30b2b-a943-4418-99af-38a3891a0acb{fill:#818181}.a6e139ab-c7fe-4c86-a06a-15db0fd5c95c{fill:#e6e6e6}.a9ea4987-0665-4b95-94a3-1f8794d57444{fill:#757575}.aa7b0076-cbf7-4dd7-9b5e-bc444fe7ed93,.ad1b79c1-fe1b-4ce9-be6c-5a5156276722{stroke:#fff;stroke-width:2px}.ad1b79c1-fe1b-4ce9-be6c-5a5156276722{stroke-miterlimit:10}.e1d12dbd-140a-4c30-bf7c-71279eb58aff{letter-spacing:0}</style></defs><g id="b3d06dc1-ee2e-4bc2-83ec-be28e8181616" data-name="Simple gateway"><rect x="236.5" y="31.64" width="450.1" height="127.18" rx="10" stroke-linejoin="round" stroke="#466bb0" stroke-dasharray="9.98 9.98" fill="none"/><rect class="f16af222-8f6f-4cfb-8c2d-f58cb6535dab" x="183.68" y="44.86" width="105.64" height="105.64" rx="3"/><rect class="a46b6813-9297-465d-a9e1-8dec879dd6e5" x="192.48" y="115.29" width="88.04" height="26.41" rx="3"/><text class="bfbf8265-f905-4894-b5ff-300c71c7b5ce" transform="translate(193.42 133.23)"><tspan class="b4a81d1e-e186-43da-82f8-997290fec620">e</tspan><tspan class="a977d508-8c88-4235-98c9-2884dd686e9a" x="7.74" y="0">xt-h</tspan><tspan class="bf6d55a4-870a-4fed-82d5-dbd916cde3ab" x="33.75" y="0">os</tspan><tspan x="48.58" y="0">t-g</tspan><tspan x="68.24" y="0" letter-spacing=".01em">w</tspan><tspan class="a977d508-8c88-4235-98c9-2884dd686e9a" x="79.28" y="0">y</tspan></text><rect class="a46b6813-9297-465d-a9e1-8dec879dd6e5" x="210.09" y="53.66" width="52.82" height="52.82" rx="3"/><path class="fe3eb638-bafd-489a-acf4-4b83a0f88050" d="M249.47 87.56V72.59l-12.97-7.48-12.97 7.48v14.97l12.97 7.48 12.97-7.48z"/><path id="a3fa6502-5ecc-4483-aaa9-f3a420708f45" data-name="background" class="b5f70278-4e76-4d46-952f-0e45caaf6dad" d="M188.23 44.86h20v20h-20z"/><path id="f527d8e7-4b2c-4cd5-9a3d-a1b6c463b98c" data-name="hull" class="a46b6813-9297-465d-a9e1-8dec879dd6e5" d="M192.23 61.61h12l-7.5 2.25-4.5-2.25z"/><path id="f97ab2d8-f8eb-4fdb-9bd4-e4b1b4c170b3" data-name="mainsail" class="a46b6813-9297-465d-a9e1-8dec879dd6e5" d="M192.23 60.86l4.5-.75v-8.25l-4.5 9z"/><path id="b986b73b-bedb-4b17-9749-e5fe768a85f8" data-name="headsail" class="a46b6813-9297-465d-a9e1-8dec879dd6e5" d="M197.48 60.11l6.75.75-6.75-15v14.25z"/><text class="f52f5ae7-e6dc-4e96-955b-0f1aa88a3367" transform="translate(255.7 13.73)">I<tspan class="bcf97ba6-89b6-4e6d-9f1c-0272859e84cf" x="3.9" y="0">s</tspan><tspan class="a113430f-d639-4d65-8f97-1bbda2be29fc" x="11.39" y="0">t</tspan><tspan x="17.33" y="0" letter-spacing="-.01em">i</tspan><tspan x="20.86" y="0">o M</tspan><tspan class="bded759f-20d6-4e7e-9198-307df0d550e7" x="47.97" y="0">e</tspan><tspan x="57.06" y="0">sh</tspan></text><path class="b925d3b0-204d-4ef7-81b1-1e68ef4aa0a5" d="M21.1 219h3"/><path class="acab4e82-a04e-45b5-9bd7-6c8387d9326d" d="M36.1 219h120"/><path class="b925d3b0-204d-4ef7-81b1-1e68ef4aa0a5" d="M162.1 219h3"/><text class="f52f5ae7-e6dc-4e96-955b-0f1aa88a3367" transform="translate(21.73 246.29)"><tspan class="a3e7c483-b428-4f5e-84c0-8520695bc486">C</tspan><tspan class="abc7a5dc-0ca9-4671-9e5e-2c6310e2de2a" x="11.54" y="0">on</tspan><tspan class="bcf97ba6-89b6-4e6d-9f1c-0272859e84cf" x="29.73" y="0">fig</tspan><tspan x="48.62" y="0">u</tspan><tspan x="57.6" y="0" letter-spacing="-.03em">r</tspan><tspan class="a113430f-d639-4d65-8f97-1bbda2be29fc" x="63.12" y="0">e</tspan><tspan x="72.21" y="0">d t</tspan><tspan class="a3e7c483-b428-4f5e-84c0-8520695bc486" x="91.41" y="0">r</tspan><tspan class="abc7a5dc-0ca9-4671-9e5e-2c6310e2de2a" x="97.09" y="0">aff</tspan><tspan class="bcf97ba6-89b6-4e6d-9f1c-0272859e84cf" x="105.42" y="0">i</tspan><tspan x="119.9" y="0">c </tspan><tspan x="132.35" y="0" letter-spacing="-.03em">r</tspan><tspan class="bcf97ba6-89b6-4e6d-9f1c-0272859e84cf" x="137.87" y="0">o</tspan><tspan class="bded759f-20d6-4e7e-9198-307df0d550e7" x="147.33" y="0">u</tspan><tspan x="156.38" y="0" letter-spacing="-.02em">t</tspan><tspan class="bded759f-20d6-4e7e-9198-307df0d550e7" x="161.89" y="0">e</tspan><tspan x="170.97" y="0">s</tspan></text><path class="e88a6b64-c50b-49c6-aa6f-861c18fe7c77" d="M25.67 174h6"/><path stroke-dasharray="1.76 10.53" stroke="#818181" stroke-width="4" stroke-linecap="round" stroke-linejoin="round" fill="none" d="M42.2 174h7.02"/><path stroke-dasharray="10.53 10.53 1.76 10.53" stroke="#818181" stroke-width="4" stroke-linecap="round" stroke-linejoin="round" fill="none" d="M54.49 174h94.77"/><path class="e88a6b64-c50b-49c6-aa6f-861c18fe7c77" d="M154.53 174h6"/><path class="ecf30b2b-a943-4418-99af-38a3891a0acb" d="M33.64 180.78L26.85 174l6.79-6.78h-5.76L21.1 174l6.78 6.78h5.76zM152.56 180.78l6.79-6.78-6.79-6.78h5.76l6.78 6.78-6.78 6.78h-5.76z"/><path d="M21.65 188.83H23v5h5.92v-5h1.35v11.45h-1.36v-5.21H23v5.21h-1.35zM35.17 190.12H32v-1.29h7.78v1.29h-3.2v10.16h-1.41zM43.79 190.12h-3.21v-1.29h7.77v1.29h-3.2v10.16h-1.36zM50.06 188.83h3.86a3.75 3.75 0 0 1 1.78.43 3.36 3.36 0 0 1 1.3 1.21 3.37 3.37 0 0 1 0 3.5 3.36 3.36 0 0 1-1.3 1.21 3.75 3.75 0 0 1-1.78.43h-2.51v4.67h-1.35zm3.94 5.49a2 2 0 0 0 1.13-.31 2.1 2.1 0 0 0 .76-.78 2 2 0 0 0 0-2 2.16 2.16 0 0 0-1.89-1.11h-2.59v4.2zM60 199.73a4.15 4.15 0 0 1-1.54-2.29l1.3-.53a3.35 3.35 0 0 0 1 1.68 2.5 2.5 0 0 0 1.73.65 2.64 2.64 0 0 0 1.68-.53 1.77 1.77 0 0 0 .69-1.47 1.66 1.66 0 0 0-.58-1.31 5.64 5.64 0 0 0-1.92-1l-.72-.26a5.88 5.88 0 0 1-2-1.13 2.55 2.55 0 0 1-.77-2 2.75 2.75 0 0 1 .45-1.51 3.29 3.29 0 0 1 1.29-1.03 3.78 3.78 0 0 1 1.79-.42 3.9 3.9 0 0 1 1.73.37 3.5 3.5 0 0 1 1.17.9 3.28 3.28 0 0 1 .62 1l-1.28.54a2.17 2.17 0 0 0-.73-1.07 2.22 2.22 0 0 0-1.49-.48 2.36 2.36 0 0 0-1.51.49 1.56 1.56 0 0 0-.62 1.25 1.32 1.32 0 0 0 .53 1.1 5.26 5.26 0 0 0 1.6.79l.75.26a6.21 6.21 0 0 1 2.27 1.32 2.87 2.87 0 0 1 .82 2.15 3 3 0 0 1-.57 1.85 3.37 3.37 0 0 1-1.43 1.11 4.78 4.78 0 0 1-1.78.35 4.08 4.08 0 0 1-2.48-.78zM73.91 200.38a2.19 2.19 0 0 1-.71-.44 2.16 2.16 0 0 1-.48-.72 2.63 2.63 0 0 1-.16-1v-4.87h-1.42v-1.24h1.42v-2.3h1.36v2.3h2v1.24h-2v4.54a1.66 1.66 0 0 0 .26 1 1.08 1.08 0 0 0 .88.36A1.65 1.65 0 0 0 76 199v1.32a1.76 1.76 0 0 1-.49.16 3.48 3.48 0 0 1-.63 0 2.51 2.51 0 0 1-.97-.1zM77.55 192.12h1.3v1.32h.06a2.22 2.22 0 0 1 .93-1.12 2.6 2.6 0 0 1 1.44-.45 2.53 2.53 0 0 1 1 .17v1.46a2.56 2.56 0 0 0-1.15-.26 1.93 1.93 0 0 0-1.09.34 2.5 2.5 0 0 0-.79.91 2.59 2.59 0 0 0-.3 1.22v4.57h-1.4zM84.24 200.19a2.71 2.71 0 0 1-1.09-1 2.65 2.65 0 0 1-.38-1.4 2.37 2.37 0 0 1 1-2 4 4 0 0 1 2.47-.73 5.42 5.42 0 0 1 1.37.16 3.49 3.49 0 0 1 1 .37v-.5a1.82 1.82 0 0 0-.64-1.46 2.35 2.35 0 0 0-1.61-.56 2.73 2.73 0 0 0-1.27.3 2.4 2.4 0 0 0-.91.82l-1-.76a3.31 3.31 0 0 1 1.32-1.16 4.23 4.23 0 0 1 1.86-.41 3.75 3.75 0 0 1 2.62.87 3.07 3.07 0 0 1 1 2.38v5.16h-1.3v-1.16h-.06a2.85 2.85 0 0 1-1.06 1 3 3 0 0 1-1.58.42 3.58 3.58 0 0 1-1.74-.34zm3-1.2a2.67 2.67 0 0 0 .94-1 2.41 2.41 0 0 0 .35-1.29 3.41 3.41 0 0 0-.94-.42 4.54 4.54 0 0 0-1.18-.16 2.62 2.62 0 0 0-1.69.47 1.48 1.48 0 0 0-.57 1.2 1.36 1.36 0 0 0 .51 1.09 2 2 0 0 0 1.3.41 2.51 2.51 0 0 0 1.29-.29zM92.51 193.36H91v-1.24h1.5v-.88a2.55 2.55 0 0 1 .35-1.34 2.46 2.46 0 0 1 1-.89 2.84 2.84 0 0 1 1.31-.31 3.6 3.6 0 0 1 1.2.19v1.33a4.88 4.88 0 0 0-.54-.18 2.22 2.22 0 0 0-.61-.07 1.25 1.25 0 0 0-.91.37 1.39 1.39 0 0 0-.39 1v.73h3.71v-.88a2.55 2.55 0 0 1 .35-1.34 2.37 2.37 0 0 1 .94-.89 2.92 2.92 0 0 1 1.32-.31 3.77 3.77 0 0 1 1.2.19v1.33a4.74 4.74 0 0 0-.57-.19 2.52 2.52 0 0 0-.6-.06 1.26 1.26 0 0 0-.91.37 1.42 1.42 0 0 0-.38 1v.73h5v8.16h-1.34v-6.92h-3.7v6.92h-1.35v-6.92h-3.71v6.92h-1.36zm10.11-2.93a1 1 0 0 1 0-1.39 1 1 0 0 1 .69-.27 1 1 0 0 1 .7 1.66 1 1 0 0 1-.7.29 1 1 0 0 1-.69-.29zM107.62 200a4 4 0 0 1-1.48-1.55 4.61 4.61 0 0 1-.52-2.22 4.66 4.66 0 0 1 .52-2.22 3.94 3.94 0 0 1 1.48-1.55 4.09 4.09 0 0 1 2.12-.56 3.91 3.91 0 0 1 2.24.61 3.39 3.39 0 0 1 1.28 1.64l-1.23.52a2.38 2.38 0 0 0-.9-1.15 2.6 2.6 0 0 0-1.45-.39 2.46 2.46 0 0 0-1.34.39 2.81 2.81 0 0 0-1 1.1 3.62 3.62 0 0 0 0 3.23 2.81 2.81 0 0 0 1 1.1 2.46 2.46 0 0 0 1.34.39 2.68 2.68 0 0 0 1.49-.4 2.51 2.51 0 0 0 .93-1.14l1.21.51a3.62 3.62 0 0 1-1.33 1.64 4 4 0 0 1-2.24.62 4 4 0 0 1-2.12-.57zM120.1 200a4.11 4.11 0 0 1-1.5-1.57 4.73 4.73 0 0 1 0-4.39 4.16 4.16 0 0 1 7.31 0 4.73 4.73 0 0 1 0 4.39 4.09 4.09 0 0 1-1.49 1.57 4.38 4.38 0 0 1-4.32 0zm3.56-1a2.85 2.85 0 0 0 1-1.08 3.66 3.66 0 0 0 0-3.29 2.85 2.85 0 0 0-1-1.08 2.79 2.79 0 0 0-2.81 0 2.73 2.73 0 0 0-1 1.08 3.66 3.66 0 0 0 0 3.29 2.73 2.73 0 0 0 1 1.08 2.79 2.79 0 0 0 2.81 0zM127.87 192.12h1.3v1.2h.06a2.87 2.87 0 0 1 1.07-1 3.13 3.13 0 0 1 1.57-.42 2.86 2.86 0 0 1 2.25.86 3.31 3.31 0 0 1 .78 2.32v5.23h-1.36v-5a2.19 2.19 0 0 0-.55-1.65 2.09 2.09 0 0 0-1.49-.51 1.94 1.94 0 0 0-1.17.37 2.4 2.4 0 0 0-.81 1 2.9 2.9 0 0 0-.29 1.25v4.59h-1.36zM140.5 192.12h1.29v1.22h.07a3 3 0 0 1 1.11-1.05 3.31 3.31 0 0 1 1.67-.42 3.65 3.65 0 0 1 2 .56A3.85 3.85 0 0 1 148 194a5.13 5.13 0 0 1 0 4.46 3.89 3.89 0 0 1-1.41 1.54 3.65 3.65 0 0 1-2 .56 3.31 3.31 0 0 1-1.67-.42 3 3 0 0 1-1.11-1h-.07l.07 1.12v3.54h-1.31zm5.31 6.81a2.88 2.88 0 0 0 1-1.1 3.75 3.75 0 0 0 0-3.25 2.88 2.88 0 0 0-1-1.1 2.52 2.52 0 0 0-2.66 0 2.76 2.76 0 0 0-1 1.09 3.8 3.8 0 0 0 0 3.27 2.76 2.76 0 0 0 1 1.09 2.52 2.52 0 0 0 2.66 0zM151.73 200a4.11 4.11 0 0 1-1.5-1.57 4.81 4.81 0 0 1 0-4.39 4.26 4.26 0 0 1 5.82-1.57 4 4 0 0 1 1.49 1.57 4.73 4.73 0 0 1 0 4.39 4 4 0 0 1-1.49 1.57 4.38 4.38 0 0 1-4.32 0zm3.56-1a2.77 2.77 0 0 0 1-1.08 3.66 3.66 0 0 0 0-3.29 2.77 2.77 0 0 0-2.44-1.46 2.81 2.81 0 0 0-1.41.38 2.73 2.73 0 0 0-1 1.08 3.66 3.66 0 0 0 0 3.29 2.73 2.73 0 0 0 1 1.08 2.81 2.81 0 0 0 1.41.38 2.75 2.75 0 0 0 1.44-.45zM159.5 192.25h1.3v1.3h.06a2.27 2.27 0 0 1 1-1.12 2.91 2.91 0 0 1 1.5-.4 2.58 2.58 0 0 1 .6.05v1.39a3.56 3.56 0 0 0-.74-.07 2.22 2.22 0 0 0-1.69.69 2.53 2.53 0 0 0-.65 1.8v4.52h-1.38zm8.28 8.13a2.19 2.19 0 0 1-.71-.44 2.16 2.16 0 0 1-.48-.72 2.63 2.63 0 0 1-.16-1v-4.87H165v-1.24h1.42v-2.3h1.36v2.3h2v1.24h-2v4.54a1.66 1.66 0 0 0 .26 1 1.08 1.08 0 0 0 .88.36 1.63 1.63 0 0 0 .89-.27v1.32a1.81 1.81 0 0 1-.48.16 3.69 3.69 0 0 1-.64 0 2.54 2.54 0 0 1-.91-.08zM180.1 197.93h-5.25v-1l5.12-7.57h1.47v7.31h1.41v1.28h-1.41v2.35h-1.34zm0-1.28v-5.33h-.1l-3.63 5.33zM189.57 197.93h-5.25v-1l5.12-7.57h1.47v7.31h1.41v1.28h-1.41v2.35h-1.34zm0-1.28v-5.33h-.07l-3.63 5.33zM195.84 200.25a3.55 3.55 0 0 1-1.3-.9 3.6 3.6 0 0 1-.84-1.54l1.23-.52a2.75 2.75 0 0 0 .87 1.44 2.19 2.19 0 0 0 1.45.51 2.44 2.44 0 0 0 1.13-.26 2 2 0 0 0 .84-.74 1.82 1.82 0 0 0 .32-1 1.79 1.79 0 0 0-.32-1 2.14 2.14 0 0 0-.84-.73 2.72 2.72 0 0 0-1.18-.26h-.94v-1.26h.84a2.2 2.2 0 0 0 1.48-.51 1.67 1.67 0 0 0 .59-1.33 1.48 1.48 0 0 0-.58-1.23 2.19 2.19 0 0 0-1.42-.47 1.86 1.86 0 0 0-1.31.43 2.52 2.52 0 0 0-.68 1.06l-1.24-.53a3.48 3.48 0 0 1 1.11-1.56 3.19 3.19 0 0 1 2.12-.7 3.79 3.79 0 0 1 1.73.39 3 3 0 0 1 1.2 1.07 2.74 2.74 0 0 1 .44 1.54 2.38 2.38 0 0 1-.43 1.44 3.06 3.06 0 0 1-1.07.92v.07a3.17 3.17 0 0 1 1.34 1 2.6 2.6 0 0 1 .53 1.64 3.12 3.12 0 0 1-.49 1.73 3.33 3.33 0 0 1-1.32 1.2 4 4 0 0 1-1.85.43 3.82 3.82 0 0 1-1.41-.33z"/><rect class="a6e139ab-c7fe-4c86-a06a-15db0fd5c95c" x="471.35" y="44.86" width="197.65" height="72" rx="3"/><rect class="a46b6813-9297-465d-a9e1-8dec879dd6e5" x="480" y="53.86" width="54" height="54" rx="3"/><path class="fe3eb638-bafd-489a-acf4-4b83a0f88050" d="M520.26 88.51v-15.3L507 65.56l-13.26 7.65v15.3L507 96.16l13.26-7.65z"/><rect class="a46b6813-9297-465d-a9e1-8dec879dd6e5" x="543" y="53.86" width="117" height="54" rx="3"/><text class="bfbf8265-f905-4894-b5ff-300c71c7b5ce" transform="translate(601.15 85.7)"><tspan letter-spacing="-.01em">m</tspan><tspan x="12.05" y="0" letter-spacing="0">y-s</tspan><tspan x="32.07" y="0" letter-spacing="-.01em">v</tspan><tspan x="39.06" y="0">c</tspan></text><circle class="a9ea4987-0665-4b95-94a3-1f8794d57444" cx="570" cy="80.86" r="18"/><path class="aa7b0076-cbf7-4dd7-9b5e-bc444fe7ed93" d="M563.61 74.34h12.79v12.79h-12.79z"/><path class="ad1b79c1-fe1b-4ce9-be6c-5a5156276722" d="M565.97 74.34v-3.07M570 74.34v-3.07M574.03 74.34v-3.07M565.97 90.45v-3.08M570 90.45v-3.08M574.03 90.45v-3.08M563.49 84.88h-3.08M563.49 80.86h-3.08M563.49 76.83h-3.08M579.59 84.88h-3.08M579.59 80.86h-3.08M579.59 76.83h-3.08"/><rect class="a46b6813-9297-465d-a9e1-8dec879dd6e5" x="567.16" y="77.9" width="5.68" height="5.68" rx="2"/><rect class="a6e139ab-c7fe-4c86-a06a-15db0fd5c95c" y="44.86" width="135" height="72" rx="3"/><rect class="a46b6813-9297-465d-a9e1-8dec879dd6e5" x="9" y="53.86" width="117" height="54" rx="3"/><text class="bfbf8265-f905-4894-b5ff-300c71c7b5ce" transform="translate(63.65 85.09)"><tspan class="b4a81d1e-e186-43da-82f8-997290fec620">e</tspan><tspan class="a977d508-8c88-4235-98c9-2884dd686e9a" x="7.74" y="0">xt-h</tspan><tspan class="bf6d55a4-870a-4fed-82d5-dbd916cde3ab" x="33.75" y="0">os</tspan><tspan x="48.58" y="0">t</tspan></text><circle class="a9ea4987-0665-4b95-94a3-1f8794d57444" cx="36" cy="80.86" r="18"/><path class="aa7b0076-cbf7-4dd7-9b5e-bc444fe7ed93" d="M29.61 74.34H42.4v12.79H29.61z"/><path class="ad1b79c1-fe1b-4ce9-be6c-5a5156276722" d="M31.97 74.34v-3.07M36 74.34v-3.07M40.03 74.34v-3.07M31.97 90.45v-3.08M36 90.45v-3.08M40.03 90.45v-3.08M29.49 84.88h-3.08M29.49 80.86h-3.08M29.49 76.83h-3.08M45.59 84.88h-3.08M45.59 80.86h-3.08M45.59 76.83h-3.08"/><rect class="a46b6813-9297-465d-a9e1-8dec879dd6e5" x="33.16" y="77.9" width="5.68" height="5.68" rx="2"/><path class="e88a6b64-c50b-49c6-aa6f-861c18fe7c77" d="M139.57 80.86h6"/><path stroke-dasharray="1.69 10.12" stroke="#818181" stroke-width="4" stroke-linecap="round" stroke-linejoin="round" fill="none" d="M155.69 80.86h6.74"/><path stroke-dasharray="10.12 10.12 1.69 10.12" stroke="#818181" stroke-width="4" stroke-linecap="round" stroke-linejoin="round" fill="none" d="M167.49 80.86h26.98"/><path class="e88a6b64-c50b-49c6-aa6f-861c18fe7c77" d="M199.53 80.86h6"/><path class="ecf30b2b-a943-4418-99af-38a3891a0acb" d="M147.54 87.64l-6.79-6.78 6.79-6.78h-5.76L135 80.86l6.78 6.78h5.76zM197.56 87.64l6.79-6.78-6.79-6.78h5.76l6.78 6.78-6.78 6.78h-5.76z"/><rect class="f16af222-8f6f-4cfb-8c2d-f58cb6535dab" x="319.11" y="43.28" width="123.25" height="75.44" rx="3"/><rect class="a46b6813-9297-465d-a9e1-8dec879dd6e5" x="327.92" y="86.71" width="105.64" height="26.41" rx="3"/><text class="bfbf8265-f905-4894-b5ff-300c71c7b5ce" transform="translate(347.03 104.06)"><tspan letter-spacing=".01em">v</tspan><tspan class="e1d12dbd-140a-4c30-bf7c-71279eb58aff" x="7.28" y="0">t</tspan><tspan x="12.47" y="0">l-</tspan><tspan class="e1d12dbd-140a-4c30-bf7c-71279eb58aff" x="21.6" y="0">s</tspan><tspan x="28.29" y="0">e</tspan><tspan x="36.18" y="0" letter-spacing=".02em">r</tspan><tspan x="41.66" y="0">v</tspan><tspan class="bf6d55a4-870a-4fed-82d5-dbd916cde3ab" x="48.86" y="0">ic</tspan><tspan x="59.53" y="0">e</tspan></text><path id="abf9ecdb-ccb2-44f0-9304-6a725147af26" data-name="background" class="b5f70278-4e76-4d46-952f-0e45caaf6dad" d="M366.52 43.28h28.44v28.44h-28.44z"/><path id="a349e98e-fa9a-4804-a7bd-906450a69ef2" data-name="hull" class="a46b6813-9297-465d-a9e1-8dec879dd6e5" d="M372.14 67.17h17.2l-10.75 3.23-6.45-3.23z"/><path id="bd0139ad-a915-4749-b369-c2581937f8ed" data-name="mainsail" class="a46b6813-9297-465d-a9e1-8dec879dd6e5" d="M372.14 66.1l6.45-1.07V53.2l-6.45 12.9z"/><path id="a12e540f-ab06-43a1-9fff-58e494ec074c" data-name="headsail" class="a46b6813-9297-465d-a9e1-8dec879dd6e5" d="M379.66 65.03l9.68 1.07-9.68-21.5v20.43z"/><path class="b925d3b0-204d-4ef7-81b1-1e68ef4aa0a5" d="M480.1 81h-3"/><path class="acab4e82-a04e-45b5-9bd7-6c8387d9326d" d="M465.1 81h-192"/><path class="b925d3b0-204d-4ef7-81b1-1e68ef4aa0a5" d="M267.1 81h-3"/></g></svg>