<svg xmlns="http://www.w3.org/2000/svg" viewBox="0 0 687.1 250.33"><defs><style>.a7670738-d721-4481-8b94-e86536f22c92,.aa7b0076-cbf7-4dd7-9b5e-bc444fe7ed93,.ab8629a8-44d0-42ec-b1de-88c00c31a7ac,.acab4e82-a04e-45b5-9bd7-6c8387d9326d,.ad1b79c1-fe1b-4ce9-be6c-5a5156276722,.ad23a23b-f2f6-451b-b88e-ebf9a7864cf2,.b925d3b0-204d-4ef7-81b1-1e68ef4aa0a5,.b94932b9-ce87-4bf5-977c-2adcd733bd2f,.bfcf604f-8707-4896-b319-b5cfe6a7b491,.e88a6b64-c50b-49c6-aa6f-861c18fe7c77,.fe3eb638-bafd-489a-acf4-4b83a0f88050{fill:none;}.b94932b9-ce87-4bf5-977c-2adcd733bd2f{stroke:#466bb0;stroke-dasharray:9.98 9.98;}.a7670738-d721-4481-8b94-e86536f22c92,.aa7b0076-cbf7-4dd7-9b5e-bc444fe7ed93,.ab8629a8-44d0-42ec-b1de-88c00c31a7ac,.acab4e82-a04e-45b5-9bd7-6c8387d9326d,.ad23a23b-f2f6-451b-b88e-ebf9a7864cf2,.b925d3b0-204d-4ef7-81b1-1e68ef4aa0a5,.b94932b9-ce87-4bf5-977c-2adcd733bd2f,.bfcf604f-8707-4896-b319-b5cfe6a7b491,.e88a6b64-c50b-49c6-aa6f-861c18fe7c77,.fe3eb638-bafd-489a-acf4-4b83a0f88050{stroke-linejoin:round;}.f16af222-8f6f-4cfb-8c2d-f58cb6535dab{fill:#e5e5e4;}.a46b6813-9297-465d-a9e1-8dec879dd6e5{fill:#fff;}.bfbf8265-f905-4894-b5ff-300c71c7b5ce{font-size:14px;}.bfbf8265-f905-4894-b5ff-300c71c7b5ce,.f52f5ae7-e6dc-4e96-955b-0f1aa88a3367{font-family:GoogleSans-Regular, Google Sans;}.b4a81d1e-e186-43da-82f8-997290fec620{letter-spacing:-0.01em;}.a977d508-8c88-4235-98c9-2884dd686e9a{letter-spacing:0em;}.bf6d55a4-870a-4fed-82d5-dbd916cde3ab{letter-spacing:0em;}.a419a46a-6313-44cb-9cc9-a21bfac81a78{letter-spacing:0.01em;}.fe3eb638-bafd-489a-acf4-4b83a0f88050{stroke:#e905ee;stroke-width:3px;}.b5f70278-4e76-4d46-952f-0e45caaf6dad{fill:#486baf;}.f52f5ae7-e6dc-4e96-955b-0f1aa88a3367{font-size:16px;}.bcf97ba6-89b6-4e6d-9f1c-0272859e84cf{letter-spacing:0em;}.a113430f-d639-4d65-8f97-1bbda2be29fc{letter-spacing:0em;}.ad3eb49e-fcf6-4c0d-bd23-23df46bc0971{letter-spacing:-0.01em;}.bded759f-20d6-4e7e-9198-307df0d550e7{letter-spacing:0.01em;}.acab4e82-a04e-45b5-9bd7-6c8387d9326d,.b925d3b0-204d-4ef7-81b1-1e68ef4aa0a5{stroke:#486baf;}.a7670738-d721-4481-8b94-e86536f22c92,.ab8629a8-44d0-42ec-b1de-88c00c31a7ac,.acab4e82-a04e-45b5-9bd7-6c8387d9326d,.ad1b79c1-fe1b-4ce9-be6c-5a5156276722,.ad23a23b-f2f6-451b-b88e-ebf9a7864cf2,.b925d3b0-204d-4ef7-81b1-1e68ef4aa0a5,.bfcf604f-8707-4896-b319-b5cfe6a7b491,.e88a6b64-c50b-49c6-aa6f-861c18fe7c77{stroke-linecap:round;}.a7670738-d721-4481-8b94-e86536f22c92,.ab8629a8-44d0-42ec-b1de-88c00c31a7ac,.acab4e82-a04e-45b5-9bd7-6c8387d9326d,.ad23a23b-f2f6-451b-b88e-ebf9a7864cf2,.b925d3b0-204d-4ef7-81b1-1e68ef4aa0a5,.bfcf604f-8707-4896-b319-b5cfe6a7b491,.e88a6b64-c50b-49c6-aa6f-861c18fe7c77{stroke-width:4px;}.acab4e82-a04e-45b5-9bd7-6c8387d9326d{stroke-dasharray:6 12;}.a3e7c483-b428-4f5e-84c0-8520695bc486{letter-spacing:-0.02em;}.abc7a5dc-0ca9-4671-9e5e-2c6310e2de2a{letter-spacing:-0.01em;}.aeb4a1e5-7244-4f7e-a404-69990272a473{letter-spacing:-0.03em;}.a198a741-7111-447d-8b32-fbbd07620524{letter-spacing:-0.03em;}.be15905c-d613-4249-82c7-ecfc390f3765{letter-spacing:-0.02em;}.a7670738-d721-4481-8b94-e86536f22c92,.ab8629a8-44d0-42ec-b1de-88c00c31a7ac,.ad23a23b-f2f6-451b-b88e-ebf9a7864cf2,.bfcf604f-8707-4896-b319-b5cfe6a7b491,.e88a6b64-c50b-49c6-aa6f-861c18fe7c77{stroke:#818181;}.a7670738-d721-4481-8b94-e86536f22c92{stroke-dasharray:1.76 10.53;}.ab8629a8-44d0-42ec-b1de-88c00c31a7ac{stroke-dasharray:10.53 10.53 1.76 10.53;}.ecf30b2b-a943-4418-99af-38a3891a0acb{fill:#818181;}.a6e139ab-c7fe-4c86-a06a-15db0fd5c95c{fill:#e6e6e6;}.e482b261-f7f2-441d-bef0-620521373dde{letter-spacing:-0.01em;}.abc8cff1-7316-4755-885c-79a97de3e094{letter-spacing:0em;}.b746c945-6f79-492b-838c-4eef3680c645{letter-spacing:-0.01em;}.a9ea4987-0665-4b95-94a3-1f8794d57444{fill:#757575;}.aa7b0076-cbf7-4dd7-9b5e-bc444fe7ed93,.ad1b79c1-fe1b-4ce9-be6c-5a5156276722{stroke:#fff;stroke-width:2px;}.ad1b79c1-fe1b-4ce9-be6c-5a5156276722{stroke-miterlimit:10;}.ad23a23b-f2f6-451b-b88e-ebf9a7864cf2{stroke-dasharray:1.69 10.12;}.bfcf604f-8707-4896-b319-b5cfe6a7b491{stroke-dasharray:10.12 10.12 1.69 10.12;}.feb19741-a260-4a7a-9f2d-02baa38b4282{letter-spacing:0.01em;}.e1d12dbd-140a-4c30-bf7c-71279eb58aff{letter-spacing:0em;}.b6908c23-d667-4c44-b3e3-931180f2b17f{letter-spacing:0.02em;}</style></defs><title>routing-6</title><g id="b3d06dc1-ee2e-4bc2-83ec-be28e8181616" data-name="Simple gateway"><rect class="b94932b9-ce87-4bf5-977c-2adcd733bd2f" x="236.5" y="31.64" width="450.1" height="127.18" rx="10"/><rect class="f16af222-8f6f-4cfb-8c2d-f58cb6535dab" x="183.68" y="44.86" width="105.64" height="105.64" rx="3"/><rect class="a46b6813-9297-465d-a9e1-8dec879dd6e5" x="192.48" y="115.29" width="88.04" height="26.41" rx="3"/><text class="bfbf8265-f905-4894-b5ff-300c71c7b5ce" transform="translate(193.42 133.23)"><tspan class="b4a81d1e-e186-43da-82f8-997290fec620">e</tspan><tspan class="a977d508-8c88-4235-98c9-2884dd686e9a" x="7.74" y="0">xt-h</tspan><tspan class="bf6d55a4-870a-4fed-82d5-dbd916cde3ab" x="33.75" y="0">os</tspan><tspan x="48.58" y="0">t-g</tspan><tspan class="a419a46a-6313-44cb-9cc9-a21bfac81a78" x="68.24" y="0">w</tspan><tspan class="a977d508-8c88-4235-98c9-2884dd686e9a" x="79.28" y="0">y</tspan></text><rect class="a46b6813-9297-465d-a9e1-8dec879dd6e5" x="210.09" y="53.66" width="52.82" height="52.82" rx="3"/><polygon class="fe3eb638-bafd-489a-acf4-4b83a0f88050" points="249.47 87.56 249.47 72.59 236.5 65.11 223.53 72.59 223.53 87.56 236.5 95.04 249.47 87.56"/><rect id="a3fa6502-5ecc-4483-aaa9-f3a420708f45" data-name="background" class="b5f70278-4e76-4d46-952f-0e45caaf6dad" x="188.23" y="44.86" width="20" height="20"/><polygon id="f527d8e7-4b2c-4cd5-9a3d-a1b6c463b98c" data-name="hull" class="a46b6813-9297-465d-a9e1-8dec879dd6e5" points="192.23 61.61 204.23 61.61 196.73 63.86 192.23 61.61"/><polygon id="f97ab2d8-f8eb-4fdb-9bd4-e4b1b4c170b3" data-name="mainsail" class="a46b6813-9297-465d-a9e1-8dec879dd6e5" points="192.23 60.86 196.73 60.11 196.73 51.86 192.23 60.86"/><polygon id="b986b73b-bedb-4b17-9749-e5fe768a85f8" data-name="headsail" class="a46b6813-9297-465d-a9e1-8dec879dd6e5" points="197.48 60.11 204.23 60.86 197.48 45.86 197.48 60.11"/><text class="f52f5ae7-e6dc-4e96-955b-0f1aa88a3367" transform="translate(255.7 13.73)">I<tspan class="bcf97ba6-89b6-4e6d-9f1c-0272859e84cf" x="3.9" y="0">s</tspan><tspan class="a113430f-d639-4d65-8f97-1bbda2be29fc" x="11.39" y="0">t</tspan><tspan class="ad3eb49e-fcf6-4c0d-bd23-23df46bc0971" x="17.33" y="0">i</tspan><tspan x="20.86" y="0">o M</tspan><tspan class="bded759f-20d6-4e7e-9198-307df0d550e7" x="47.97" y="0">e</tspan><tspan x="57.06" y="0">sh</tspan></text><line class="b925d3b0-204d-4ef7-81b1-1e68ef4aa0a5" x1="21.1" y1="219" x2="24.1" y2="219"/><line class="acab4e82-a04e-45b5-9bd7-6c8387d9326d" x1="36.1" y1="219" x2="156.1" y2="219"/><line class="b925d3b0-204d-4ef7-81b1-1e68ef4aa0a5" x1="162.1" y1="219" x2="165.1" y2="219"/><text class="f52f5ae7-e6dc-4e96-955b-0f1aa88a3367" transform="translate(21.73 246.29)"><tspan class="a3e7c483-b428-4f5e-84c0-8520695bc486">C</tspan><tspan class="abc7a5dc-0ca9-4671-9e5e-2c6310e2de2a" x="11.54" y="0">on</tspan><tspan class="bcf97ba6-89b6-4e6d-9f1c-0272859e84cf" x="29.73" y="0">fig</tspan><tspan x="48.62" y="0">u</tspan><tspan class="aeb4a1e5-7244-4f7e-a404-69990272a473" x="57.6" y="0">r</tspan><tspan class="a113430f-d639-4d65-8f97-1bbda2be29fc" x="63.12" y="0">e</tspan><tspan x="72.21" y="0">d t</tspan><tspan class="a3e7c483-b428-4f5e-84c0-8520695bc486" x="91.41" y="0">r</tspan><tspan class="abc7a5dc-0ca9-4671-9e5e-2c6310e2de2a" x="97.09" y="0">aff</tspan><tspan class="bcf97ba6-89b6-4e6d-9f1c-0272859e84cf" x="105.42" y="0">i</tspan><tspan x="119.9" y="0">c </tspan><tspan class="a198a741-7111-447d-8b32-fbbd07620524" x="132.35" y="0">r</tspan><tspan class="bcf97ba6-89b6-4e6d-9f1c-0272859e84cf" x="137.87" y="0">o</tspan><tspan class="bded759f-20d6-4e7e-9198-307df0d550e7" x="147.33" y="0">u</tspan><tspan class="be15905c-d613-4249-82c7-ecfc390f3765" x="156.38" y="0">t</tspan><tspan class="bded759f-20d6-4e7e-9198-307df0d550e7" x="161.89" y="0">e</tspan><tspan x="170.97" y="0">s</tspan></text><line class="e88a6b64-c50b-49c6-aa6f-861c18fe7c77" x1="25.67" y1="174" x2="31.67" y2="174"/><line class="a7670738-d721-4481-8b94-e86536f22c92" x1="42.2" y1="174" x2="49.22" y2="174"/><line class="ab8629a8-44d0-42ec-b1de-88c00c31a7ac" x1="54.49" y1="174" x2="149.26" y2="174"/><line class="e88a6b64-c50b-49c6-aa6f-861c18fe7c77" x1="154.53" y1="174" x2="160.53" y2="174"/><polygon class="ecf30b2b-a943-4418-99af-38a3891a0acb" points="33.64 180.78 26.85 174 33.64 167.22 27.88 167.22 21.1 174 27.88 180.78 33.64 180.78"/><polygon class="ecf30b2b-a943-4418-99af-38a3891a0acb" points="152.56 180.78 159.35 174 152.56 167.22 158.32 167.22 165.1 174 158.32 180.78 152.56 180.78"/><path d="M21.65,188.83H23v5h5.92v-5h1.35v11.45H28.91v-5.21H23v5.21H21.65Z"/><path d="M35.17,190.12H32v-1.29h7.78v1.29h-3.2v10.16H35.17Z"/><path d="M43.79,190.12H40.58v-1.29h7.77v1.29h-3.2v10.16H43.79Z"/><path d="M50.06,188.83h3.86a3.75,3.75,0,0,1,1.78.43,3.36,3.36,0,0,1,1.3,1.21,3.37,3.37,0,0,1,0,3.5,3.36,3.36,0,0,1-1.3,1.21,3.75,3.75,0,0,1-1.78.43H51.41v4.67H50.06ZM54,194.32a2,2,0,0,0,1.13-.31,2.1,2.1,0,0,0,.76-.78,2,2,0,0,0,0-2A2.16,2.16,0,0,0,54,190.12H51.41v4.2Z"/><path d="M60,199.73a4.15,4.15,0,0,1-1.54-2.29l1.3-.53a3.35,3.35,0,0,0,1,1.68,2.5,2.5,0,0,0,1.73.65,2.64,2.64,0,0,0,1.68-.53,1.77,1.77,0,0,0,.69-1.47,1.66,1.66,0,0,0-.58-1.31,5.64,5.64,0,0,0-1.92-1l-.72-.26a5.88,5.88,0,0,1-2-1.13,2.55,2.55,0,0,1-.77-2,2.75,2.75,0,0,1,.45-1.51A3.29,3.29,0,0,1,60.61,189a3.78,3.78,0,0,1,1.79-.42,3.9,3.9,0,0,1,1.73.37,3.5,3.5,0,0,1,1.17.9,3.28,3.28,0,0,1,.62,1l-1.28.54a2.17,2.17,0,0,0-.73-1.07,2.22,2.22,0,0,0-1.49-.48,2.36,2.36,0,0,0-1.51.49,1.56,1.56,0,0,0-.62,1.25,1.32,1.32,0,0,0,.53,1.1,5.26,5.26,0,0,0,1.6.79l.75.26a6.21,6.21,0,0,1,2.27,1.32,2.87,2.87,0,0,1,.82,2.15,3,3,0,0,1-.57,1.85,3.37,3.37,0,0,1-1.43,1.11,4.78,4.78,0,0,1-1.78.35A4.08,4.08,0,0,1,60,199.73Z"/><path d="M73.91,200.38a2.19,2.19,0,0,1-.71-.44,2.16,2.16,0,0,1-.48-.72,2.63,2.63,0,0,1-.16-1v-4.87H71.14v-1.24h1.42v-2.3h1.36v2.3h2v1.24h-2v4.54a1.66,1.66,0,0,0,.26,1,1.08,1.08,0,0,0,.88.36A1.65,1.65,0,0,0,76,199v1.32a1.76,1.76,0,0,1-.49.16,3.48,3.48,0,0,1-.63,0A2.51,2.51,0,0,1,73.91,200.38Z"/><path d="M77.55,192.12h1.3v1.32h.06a2.22,2.22,0,0,1,.93-1.12,2.6,2.6,0,0,1,1.44-.45,2.53,2.53,0,0,1,1,.17v1.46a2.56,2.56,0,0,0-1.15-.26,1.93,1.93,0,0,0-1.09.34,2.5,2.5,0,0,0-.79.91,2.59,2.59,0,0,0-.3,1.22v4.57H77.55Z"/><path d="M84.24,200.19a2.71,2.71,0,0,1-1.09-1,2.65,2.65,0,0,1-.38-1.4,2.37,2.37,0,0,1,1-2,4,4,0,0,1,2.47-.73,5.42,5.42,0,0,1,1.37.16,3.49,3.49,0,0,1,1,.37v-.5a1.82,1.82,0,0,0-.64-1.46,2.35,2.35,0,0,0-1.61-.56,2.73,2.73,0,0,0-1.27.3,2.4,2.4,0,0,0-.91.82l-1-.76a3.31,3.31,0,0,1,1.32-1.16,4.23,4.23,0,0,1,1.86-.41,3.75,3.75,0,0,1,2.62.87,3.07,3.07,0,0,1,1,2.38v5.16h-1.3v-1.16h-.06a2.85,2.85,0,0,1-1.06,1,3,3,0,0,1-1.58.42A3.58,3.58,0,0,1,84.24,200.19Zm3-1.2a2.67,2.67,0,0,0,.94-1,2.41,2.41,0,0,0,.35-1.29,3.41,3.41,0,0,0-.94-.42,4.54,4.54,0,0,0-1.18-.16,2.62,2.62,0,0,0-1.69.47,1.48,1.48,0,0,0-.57,1.2,1.36,1.36,0,0,0,.51,1.09,2,2,0,0,0,1.3.41A2.51,2.51,0,0,0,87.25,199Z"/><path d="M92.51,193.36H91v-1.24h1.5v-.88a2.55,2.55,0,0,1,.35-1.34,2.46,2.46,0,0,1,1-.89,2.84,2.84,0,0,1,1.31-.31,3.6,3.6,0,0,1,1.2.19v1.33a4.88,4.88,0,0,0-.54-.18,2.22,2.22,0,0,0-.61-.07,1.25,1.25,0,0,0-.91.37,1.39,1.39,0,0,0-.39,1v.73h3.71v-.88a2.55,2.55,0,0,1,.35-1.34,2.37,2.37,0,0,1,.94-.89,2.92,2.92,0,0,1,1.32-.31,3.77,3.77,0,0,1,1.2.19v1.33a4.74,4.74,0,0,0-.57-.19,2.52,2.52,0,0,0-.6-.06,1.26,1.26,0,0,0-.91.37,1.42,1.42,0,0,0-.38,1v.73h5v8.16h-1.34v-6.92H98.93v6.92H97.58v-6.92H93.87v6.92H92.51Zm10.11-2.93a1,1,0,0,1,0-1.39,1,1,0,0,1,.69-.27,1,1,0,0,1,.7,1.66,1,1,0,0,1-.7.29A1,1,0,0,1,102.62,190.43Z"/><path d="M107.62,200a4,4,0,0,1-1.48-1.55,4.61,4.61,0,0,1-.52-2.22,4.66,4.66,0,0,1,.52-2.22,3.94,3.94,0,0,1,1.48-1.55,4.09,4.09,0,0,1,2.12-.56,3.91,3.91,0,0,1,2.24.61,3.39,3.39,0,0,1,1.28,1.64l-1.23.52a2.38,2.38,0,0,0-.9-1.15,2.6,2.6,0,0,0-1.45-.39,2.46,2.46,0,0,0-1.34.39,2.81,2.81,0,0,0-1,1.1,3.62,3.62,0,0,0,0,3.23,2.81,2.81,0,0,0,1,1.1,2.46,2.46,0,0,0,1.34.39,2.68,2.68,0,0,0,1.49-.4,2.51,2.51,0,0,0,.93-1.14l1.21.51a3.62,3.62,0,0,1-1.33,1.64,4,4,0,0,1-2.24.62A4,4,0,0,1,107.62,200Z"/><path d="M120.1,200a4.11,4.11,0,0,1-1.5-1.57,4.73,4.73,0,0,1,0-4.39,4.16,4.16,0,0,1,7.31,0,4.73,4.73,0,0,1,0,4.39,4.09,4.09,0,0,1-1.49,1.57,4.38,4.38,0,0,1-4.32,0Zm3.56-1a2.85,2.85,0,0,0,1-1.08,3.66,3.66,0,0,0,0-3.29,2.85,2.85,0,0,0-1-1.08,2.79,2.79,0,0,0-2.81,0,2.73,2.73,0,0,0-1,1.08,3.66,3.66,0,0,0,0,3.29,2.73,2.73,0,0,0,1,1.08,2.79,2.79,0,0,0,2.81,0Z"/><path d="M127.87,192.12h1.3v1.2h.06a2.87,2.87,0,0,1,1.07-1,3.13,3.13,0,0,1,1.57-.42,2.86,2.86,0,0,1,2.25.86,3.31,3.31,0,0,1,.78,2.32v5.23h-1.36v-5a2.19,2.19,0,0,0-.55-1.65,2.09,2.09,0,0,0-1.49-.51,1.94,1.94,0,0,0-1.17.37,2.4,2.4,0,0,0-.81,1,2.9,2.9,0,0,0-.29,1.25v4.59h-1.36Z"/><path d="M140.5,192.12h1.29v1.22h.07a3,3,0,0,1,1.11-1.05,3.31,3.31,0,0,1,1.67-.42,3.65,3.65,0,0,1,2,.56A3.85,3.85,0,0,1,148,194a5.13,5.13,0,0,1,0,4.46,3.89,3.89,0,0,1-1.41,1.54,3.65,3.65,0,0,1-2,.56,3.31,3.31,0,0,1-1.67-.42,3,3,0,0,1-1.11-1h-.07l.07,1.12v3.54H140.5Zm5.31,6.81a2.88,2.88,0,0,0,1-1.1,3.75,3.75,0,0,0,0-3.25,2.88,2.88,0,0,0-1-1.1,2.52,2.52,0,0,0-2.66,0,2.76,2.76,0,0,0-1,1.09,3.8,3.8,0,0,0,0,3.27,2.76,2.76,0,0,0,1,1.09,2.52,2.52,0,0,0,2.66,0Z"/><path d="M151.73,200a4.11,4.11,0,0,1-1.5-1.57,4.81,4.81,0,0,1,0-4.39,4.26,4.26,0,0,1,5.82-1.57,4,4,0,0,1,1.49,1.57,4.73,4.73,0,0,1,0,4.39,4,4,0,0,1-1.49,1.57,4.38,4.38,0,0,1-4.32,0Zm3.56-1a2.77,2.77,0,0,0,1-1.08,3.66,3.66,0,0,0,0-3.29,2.77,2.77,0,0,0-2.44-1.46,2.81,2.81,0,0,0-1.41.38,2.73,2.73,0,0,0-1,1.08,3.66,3.66,0,0,0,0,3.29,2.73,2.73,0,0,0,1,1.08,2.81,2.81,0,0,0,1.41.38A2.75,2.75,0,0,0,155.29,198.93Z"/><path d="M159.5,192.25h1.3v1.3h.06a2.27,2.27,0,0,1,1-1.12,2.91,2.91,0,0,1,1.5-.4,2.58,2.58,0,0,1,.6.05v1.39a3.56,3.56,0,0,0-.74-.07,2.22,2.22,0,0,0-1.69.69,2.53,2.53,0,0,0-.65,1.8v4.52H159.5Zm8.28,8.13a2.19,2.19,0,0,1-.71-.44,2.16,2.16,0,0,1-.48-.72,2.63,2.63,0,0,1-.16-1v-4.87H165v-1.24h1.42v-2.3h1.36v2.3h2v1.24h-2v4.54a1.66,1.66,0,0,0,.26,1,1.08,1.08,0,0,0,.88.36,1.63,1.63,0,0,0,.89-.27v1.32a1.81,1.81,0,0,1-.48.16,3.69,3.69,0,0,1-.64,0A2.54,2.54,0,0,1,167.78,200.38Z"/><path d="M180.1,197.93h-5.25v-1l5.12-7.57h1.47v7.31h1.41v1.28h-1.41v2.35H180.1Zm0-1.28v-5.33H180l-3.63,5.33Z"/><path d="M189.57,197.93h-5.25v-1l5.12-7.57h1.47v7.31h1.41v1.28h-1.41v2.35h-1.34Zm0-1.28v-5.33h-.07l-3.63,5.33Z"/><path d="M195.84,200.25a3.55,3.55,0,0,1-1.3-.9,3.6,3.6,0,0,1-.84-1.54l1.23-.52a2.75,2.75,0,0,0,.87,1.44,2.19,2.19,0,0,0,1.45.51,2.44,2.44,0,0,0,1.13-.26,2,2,0,0,0,.84-.74,1.82,1.82,0,0,0,.32-1,1.79,1.79,0,0,0-.32-1,2.14,2.14,0,0,0-.84-.73,2.72,2.72,0,0,0-1.18-.26h-.94v-1.26h.84a2.2,2.2,0,0,0,1.48-.51,1.67,1.67,0,0,0,.59-1.33,1.48,1.48,0,0,0-.58-1.23,2.19,2.19,0,0,0-1.42-.47,1.86,1.86,0,0,0-1.31.43,2.52,2.52,0,0,0-.68,1.06l-1.24-.53a3.48,3.48,0,0,1,1.11-1.56,3.19,3.19,0,0,1,2.12-.7,3.79,3.79,0,0,1,1.73.39,3,3,0,0,1,1.2,1.07,2.74,2.74,0,0,1,.44,1.54,2.38,2.38,0,0,1-.43,1.44,3.06,3.06,0,0,1-1.07.92v.07a3.17,3.17,0,0,1,1.34,1,2.6,2.6,0,0,1,.53,1.64,3.12,3.12,0,0,1-.49,1.73,3.33,3.33,0,0,1-1.32,1.2,4,4,0,0,1-1.85.43A3.82,3.82,0,0,1,195.84,200.25Z"/><rect class="a6e139ab-c7fe-4c86-a06a-15db0fd5c95c" x="471.35" y="44.86" width="197.65" height="72" rx="3"/><rect class="a46b6813-9297-465d-a9e1-8dec879dd6e5" x="480" y="53.86" width="54" height="54" rx="3"/><polygon class="fe3eb638-bafd-489a-acf4-4b83a0f88050" points="520.26 88.51 520.26 73.21 507 65.56 493.74 73.21 493.74 88.51 507 96.16 520.26 88.51"/><rect class="a46b6813-9297-465d-a9e1-8dec879dd6e5" x="543" y="53.86" width="117" height="54" rx="3"/><text class="bfbf8265-f905-4894-b5ff-300c71c7b5ce" transform="translate(601.15 85.7)"><tspan class="e482b261-f7f2-441d-bef0-620521373dde">m</tspan><tspan class="abc8cff1-7316-4755-885c-79a97de3e094" x="12.05" y="0">y-s</tspan><tspan class="b746c945-6f79-492b-838c-4eef3680c645" x="32.07" y="0">v</tspan><tspan x="39.06" y="0">c</tspan></text><circle class="a9ea4987-0665-4b95-94a3-1f8794d57444" cx="570" cy="80.86" r="18"/><rect class="aa7b0076-cbf7-4dd7-9b5e-bc444fe7ed93" x="563.61" y="74.34" width="12.79" height="12.79"/><line class="ad1b79c1-fe1b-4ce9-be6c-5a5156276722" x1="565.97" y1="74.34" x2="565.97" y2="71.27"/><line class="ad1b79c1-fe1b-4ce9-be6c-5a5156276722" x1="570" y1="74.34" x2="570" y2="71.27"/><line class="ad1b79c1-fe1b-4ce9-be6c-5a5156276722" x1="574.03" y1="74.34" x2="574.03" y2="71.27"/><line class="ad1b79c1-fe1b-4ce9-be6c-5a5156276722" x1="565.97" y1="90.45" x2="565.97" y2="87.37"/><line class="ad1b79c1-fe1b-4ce9-be6c-5a5156276722" x1="570" y1="90.45" x2="570" y2="87.37"/><line class="ad1b79c1-fe1b-4ce9-be6c-5a5156276722" x1="574.03" y1="90.45" x2="574.03" y2="87.37"/><line class="ad1b79c1-fe1b-4ce9-be6c-5a5156276722" x1="563.49" y1="84.88" x2="560.41" y2="84.88"/><line class="ad1b79c1-fe1b-4ce9-be6c-5a5156276722" x1="563.49" y1="80.86" x2="560.41" y2="80.86"/><line class="ad1b79c1-fe1b-4ce9-be6c-5a5156276722" x1="563.49" y1="76.83" x2="560.41" y2="76.83"/><line class="ad1b79c1-fe1b-4ce9-be6c-5a5156276722" x1="579.59" y1="84.88" x2="576.51" y2="84.88"/><line class="ad1b79c1-fe1b-4ce9-be6c-5a5156276722" x1="579.59" y1="80.86" x2="576.51" y2="80.86"/><line class="ad1b79c1-fe1b-4ce9-be6c-5a5156276722" x1="579.59" y1="76.83" x2="576.51" y2="76.83"/><rect class="a46b6813-9297-465d-a9e1-8dec879dd6e5" x="567.16" y="77.9" width="5.68" height="5.68" rx="2"/><rect class="a6e139ab-c7fe-4c86-a06a-15db0fd5c95c" y="44.86" width="135" height="72" rx="3"/><rect class="a46b6813-9297-465d-a9e1-8dec879dd6e5" x="9" y="53.86" width="117" height="54" rx="3"/><text class="bfbf8265-f905-4894-b5ff-300c71c7b5ce" transform="translate(63.65 85.09)"><tspan class="b4a81d1e-e186-43da-82f8-997290fec620">e</tspan><tspan class="a977d508-8c88-4235-98c9-2884dd686e9a" x="7.74" y="0">xt-h</tspan><tspan class="bf6d55a4-870a-4fed-82d5-dbd916cde3ab" x="33.75" y="0">os</tspan><tspan x="48.58" y="0">t</tspan></text><circle class="a9ea4987-0665-4b95-94a3-1f8794d57444" cx="36" cy="80.86" r="18"/><rect class="aa7b0076-cbf7-4dd7-9b5e-bc444fe7ed93" x="29.61" y="74.34" width="12.79" height="12.79"/><line class="ad1b79c1-fe1b-4ce9-be6c-5a5156276722" x1="31.97" y1="74.34" x2="31.97" y2="71.27"/><line class="ad1b79c1-fe1b-4ce9-be6c-5a5156276722" x1="36" y1="74.34" x2="36" y2="71.27"/><line class="ad1b79c1-fe1b-4ce9-be6c-5a5156276722" x1="40.03" y1="74.34" x2="40.03" y2="71.27"/><line class="ad1b79c1-fe1b-4ce9-be6c-5a5156276722" x1="31.97" y1="90.45" x2="31.97" y2="87.37"/><line class="ad1b79c1-fe1b-4ce9-be6c-5a5156276722" x1="36" y1="90.45" x2="36" y2="87.37"/><line class="ad1b79c1-fe1b-4ce9-be6c-5a5156276722" x1="40.03" y1="90.45" x2="40.03" y2="87.37"/><line class="ad1b79c1-fe1b-4ce9-be6c-5a5156276722" x1="29.49" y1="84.88" x2="26.41" y2="84.88"/><line class="ad1b79c1-fe1b-4ce9-be6c-5a5156276722" x1="29.49" y1="80.86" x2="26.41" y2="80.86"/><line class="ad1b79c1-fe1b-4ce9-be6c-5a5156276722" x1="29.49" y1="76.83" x2="26.41" y2="76.83"/><line class="ad1b79c1-fe1b-4ce9-be6c-5a5156276722" x1="45.59" y1="84.88" x2="42.51" y2="84.88"/><line class="ad1b79c1-fe1b-4ce9-be6c-5a5156276722" x1="45.59" y1="80.86" x2="42.51" y2="80.86"/><line class="ad1b79c1-fe1b-4ce9-be6c-5a5156276722" x1="45.59" y1="76.83" x2="42.51" y2="76.83"/><rect class="a46b6813-9297-465d-a9e1-8dec879dd6e5" x="33.16" y="77.9" width="5.68" height="5.68" rx="2"/><line class="e88a6b64-c50b-49c6-aa6f-861c18fe7c77" x1="139.57" y1="80.86" x2="145.57" y2="80.86"/><line class="ad23a23b-f2f6-451b-b88e-ebf9a7864cf2" x1="155.69" y1="80.86" x2="162.43" y2="80.86"/><line class="bfcf604f-8707-4896-b319-b5cfe6a7b491" x1="167.49" y1="80.86" x2="194.47" y2="80.86"/><line class="e88a6b64-c50b-49c6-aa6f-861c18fe7c77" x1="199.53" y1="80.86" x2="205.53" y2="80.86"/><polygon class="ecf30b2b-a943-4418-99af-38a3891a0acb" points="147.54 87.64 140.75 80.86 147.54 74.08 141.78 74.08 135 80.86 141.78 87.64 147.54 87.64"/><polygon class="ecf30b2b-a943-4418-99af-38a3891a0acb" points="197.56 87.64 204.35 80.86 197.56 74.08 203.32 74.08 210.1 80.86 203.32 87.64 197.56 87.64"/><rect class="f16af222-8f6f-4cfb-8c2d-f58cb6535dab" x="319.11" y="43.28" width="123.25" height="75.44" rx="3"/><rect class="a46b6813-9297-465d-a9e1-8dec879dd6e5" x="327.92" y="86.71" width="105.64" height="26.41" rx="3"/><text class="bfbf8265-f905-4894-b5ff-300c71c7b5ce" transform="translate(347.03 104.06)"><tspan class="feb19741-a260-4a7a-9f2d-02baa38b4282">v</tspan><tspan class="e1d12dbd-140a-4c30-bf7c-71279eb58aff" x="7.28" y="0">t</tspan><tspan x="12.47" y="0">l-</tspan><tspan class="e1d12dbd-140a-4c30-bf7c-71279eb58aff" x="21.6" y="0">s</tspan><tspan x="28.29" y="0">e</tspan><tspan class="b6908c23-d667-4c44-b3e3-931180f2b17f" x="36.18" y="0">r</tspan><tspan x="41.66" y="0">v</tspan><tspan class="bf6d55a4-870a-4fed-82d5-dbd916cde3ab" x="48.86" y="0">ic</tspan><tspan x="59.53" y="0">e</tspan></text><rect id="abf9ecdb-ccb2-44f0-9304-6a725147af26" data-name="background" class="b5f70278-4e76-4d46-952f-0e45caaf6dad" x="366.52" y="43.28" width="28.44" height="28.44"/><polygon id="a349e98e-fa9a-4804-a7bd-906450a69ef2" data-name="hull" class="a46b6813-9297-465d-a9e1-8dec879dd6e5" points="372.14 67.17 389.34 67.17 378.59 70.4 372.14 67.17"/><polygon id="bd0139ad-a915-4749-b369-c2581937f8ed" data-name="mainsail" class="a46b6813-9297-465d-a9e1-8dec879dd6e5" points="372.14 66.1 378.59 65.03 378.59 53.2 372.14 66.1"/><polygon id="a12e540f-ab06-43a1-9fff-58e494ec074c" data-name="headsail" class="a46b6813-9297-465d-a9e1-8dec879dd6e5" points="379.66 65.03 389.34 66.1 379.66 44.6 379.66 65.03"/><line class="b925d3b0-204d-4ef7-81b1-1e68ef4aa0a5" x1="480.1" y1="81" x2="477.1" y2="81"/><polyline class="acab4e82-a04e-45b5-9bd7-6c8387d9326d" points="465.1 81 408.1 81 354.1 81 273.1 81"/><line class="b925d3b0-204d-4ef7-81b1-1e68ef4aa0a5" x1="267.1" y1="81" x2="264.1" y2="81"/></g></svg>