<svg xmlns="http://www.w3.org/2000/svg" xmlns:xlink="http://www.w3.org/1999/xlink" viewBox="0 0 861.9 229.78"><defs><style>.a36a82f8-3159-46b0-8cde-4bc36a32a4a1,.a3e76015-6336-4bd1-9093-c4acf4ba8d9f,.a882157a-8bf2-4bb6-911c-a19b0e68dadd,.a8db638c-563e-4eb8-9103-4dd87dc7511f,.b08e357e-053d-4d84-bd29-4c40d6a5d7ab,.b0de2207-b132-4c81-b55c-2cb90527386e,.b56fd367-3c6e-4f22-a6a4-2f2ec74eccf1,.b8c97ffa-ffdf-4e31-861d-f2bcfd34f893,.bfa7d269-ab12-4d36-8c2c-cf03656246ef,.f8d59571-1281-4937-a1fb-b075ee83ccca,.fa9feeca-d901-41e7-b6ab-ee3512279f8e,.fcf7a0ff-b76a-4aa5-83a1-f59b6b4df0ec,.fe8cbe7b-7d3b-4aa9-9f1a-cfb1d09527c2{fill:none;}.b600a5e2-6b63-4525-a08c-1d77abc658a8{fill:#e5e5e4;}.a5a6cb5e-e408-44b4-8dbe-597c067af83b{fill:#fff;}.b0cc6676-633c-4f7c-acd1-42d9601cdfbf{font-size:13.69px;}.b0cc6676-633c-4f7c-acd1-42d9601cdfbf,.f8875836-8920-49d1-a601-7f79f0db3163{font-family:GoogleSans-Regular, Google Sans;}.acca4613-a42a-44df-808c-e9d883658fe0{letter-spacing:-0.02em;}.eb00fede-d7df-4e8e-8b9a-774f44e784a1{letter-spacing:-0.01em;}.e7452eca-15d1-46f4-8326-556d691f1188{letter-spacing:-0.02em;}.a882157a-8bf2-4bb6-911c-a19b0e68dadd{stroke:#e905ee;stroke-width:3px;}.a36a82f8-3159-46b0-8cde-4bc36a32a4a1,.a3e76015-6336-4bd1-9093-c4acf4ba8d9f,.a882157a-8bf2-4bb6-911c-a19b0e68dadd,.a8db638c-563e-4eb8-9103-4dd87dc7511f,.b08e357e-053d-4d84-bd29-4c40d6a5d7ab,.b56fd367-3c6e-4f22-a6a4-2f2ec74eccf1,.b8c97ffa-ffdf-4e31-861d-f2bcfd34f893,.bfa7d269-ab12-4d36-8c2c-cf03656246ef,.f8d59571-1281-4937-a1fb-b075ee83ccca,.fa9feeca-d901-41e7-b6ab-ee3512279f8e,.fe8cbe7b-7d3b-4aa9-9f1a-cfb1d09527c2{stroke-linejoin:round;}.e5621899-2a4b-488e-a3b1-5e7580f3bb6c{fill:#486baf;}.bfa7d269-ab12-4d36-8c2c-cf03656246ef{stroke:#466bb0;stroke-dasharray:10.05 10.05;}.e586560b-19d9-4bf3-81a4-26e4836da638{fill:#e6e6e6;}.f8875836-8920-49d1-a601-7f79f0db3163{font-size:14px;}.b340e8a1-282c-4e31-b29b-549de6e034a8{letter-spacing:0.02em;}.b02bc810-aa01-45a8-ac13-4ec7078b0d31{letter-spacing:0em;}.b7e02eaa-608c-42e0-ab4b-c6d070b18659{letter-spacing:-0.03em;}.a1362386-c9e6-464d-bfa9-f00e1bbcffbc{fill:#757575;}.b0de2207-b132-4c81-b55c-2cb90527386e,.f8d59571-1281-4937-a1fb-b075ee83ccca{stroke:#fff;stroke-width:2px;}.a36a82f8-3159-46b0-8cde-4bc36a32a4a1,.a3e76015-6336-4bd1-9093-c4acf4ba8d9f,.a8db638c-563e-4eb8-9103-4dd87dc7511f,.b08e357e-053d-4d84-bd29-4c40d6a5d7ab,.b0de2207-b132-4c81-b55c-2cb90527386e,.b56fd367-3c6e-4f22-a6a4-2f2ec74eccf1,.b8c97ffa-ffdf-4e31-861d-f2bcfd34f893,.fa9feeca-d901-41e7-b6ab-ee3512279f8e,.fe8cbe7b-7d3b-4aa9-9f1a-cfb1d09527c2{stroke-linecap:round;}.b0de2207-b132-4c81-b55c-2cb90527386e{stroke-miterlimit:10;}.fc39221f-3347-4f97-95e6-5e97593f0364{clip-path:url(#a58b9023-843b-4431-9666-dcefc6c3be8d);}.a2e9d05d-c312-4134-9004-6934169df0d6{fill:#466bb0;}.e7bb8a1c-873b-44b4-b88d-75146d1e4553{fill:#476baf;}.b52b7def-8c57-4fd8-971d-6190b55b4a1b{font-size:8px;font-family:GoogleSansDisplay-Regular, Google Sans Display;}.e0552c6b-85d7-438f-9f3e-85b05865e37c{letter-spacing:-0.01em;}.b6932110-26db-4fa4-9393-e4e90de849c0{letter-spacing:0em;}.e7073d6e-88ec-4621-a5f6-3b9398226b34{letter-spacing:-0.02em;}.b636a67f-c4df-49c0-9782-288aa2a81fe9{letter-spacing:-0.02em;}.fa9feeca-d901-41e7-b6ab-ee3512279f8e{stroke:#009345;}.a36a82f8-3159-46b0-8cde-4bc36a32a4a1,.a3e76015-6336-4bd1-9093-c4acf4ba8d9f,.a8db638c-563e-4eb8-9103-4dd87dc7511f,.b08e357e-053d-4d84-bd29-4c40d6a5d7ab,.b56fd367-3c6e-4f22-a6a4-2f2ec74eccf1,.b8c97ffa-ffdf-4e31-861d-f2bcfd34f893,.fa9feeca-d901-41e7-b6ab-ee3512279f8e,.fe8cbe7b-7d3b-4aa9-9f1a-cfb1d09527c2{stroke-width:4px;}.a56bb5d8-cea9-4d6c-b847-574f741e019f{fill:#009345;}.bce0e3a8-6f70-4dbc-9b04-11f7263fe78d{letter-spacing:-0.02em;}.ef976021-141d-4b0e-be3d-56b4686f5137{letter-spacing:-0.01em;}.a36a82f8-3159-46b0-8cde-4bc36a32a4a1,.a3e76015-6336-4bd1-9093-c4acf4ba8d9f,.a8db638c-563e-4eb8-9103-4dd87dc7511f,.b08e357e-053d-4d84-bd29-4c40d6a5d7ab,.b56fd367-3c6e-4f22-a6a4-2f2ec74eccf1,.b8c97ffa-ffdf-4e31-861d-f2bcfd34f893,.fe8cbe7b-7d3b-4aa9-9f1a-cfb1d09527c2{stroke:#818181;}.a8db638c-563e-4eb8-9103-4dd87dc7511f{stroke-dasharray:2.15 12.87;}.fe8cbe7b-7d3b-4aa9-9f1a-cfb1d09527c2{stroke-dasharray:12.87 12.87 2.15 12.87;}.ba18535d-f1a7-402a-9514-9ec92cd2a069{fill:#818181;}.b08e357e-053d-4d84-bd29-4c40d6a5d7ab{stroke-dasharray:1.98 11.89;}.b8c97ffa-ffdf-4e31-861d-f2bcfd34f893{stroke-dasharray:11.89 11.89 1.98 11.89;}.a3e76015-6336-4bd1-9093-c4acf4ba8d9f{stroke-dasharray:2.48 14.89;}.a36a82f8-3159-46b0-8cde-4bc36a32a4a1{stroke-dasharray:14.89 14.89 2.48 14.89;}.bfc17972-82c5-49c3-b025-73513c27928b{font-size:7px;font-family:MyriadPro-Regular, Myriad Pro;}.e1687774-5e54-4b2d-b5ae-c86867f2c9a4{letter-spacing:0.01em;}</style><clipPath id="a58b9023-843b-4431-9666-dcefc6c3be8d"><rect class="fcf7a0ff-b76a-4aa5-83a1-f59b6b4df0ec" x="31" y="1.78" width="23.8" height="23.8"/></clipPath></defs><title>routing-9</title><g id="b3f9d67a-d01c-4b93-9c2b-be9b65fd9ea6" data-name="Layer 10"><rect class="b600a5e2-6b63-4525-a08c-1d77abc658a8" x="561.47" y="103.34" width="105.64" height="105.64" rx="3"/><rect class="a5a6cb5e-e408-44b4-8dbe-597c067af83b" x="570.28" y="173.77" width="88.04" height="26.41" rx="3"/><text class="b0cc6676-633c-4f7c-acd1-42d9601cdfbf" transform="translate(586.94 191.72)"><tspan class="acca4613-a42a-44df-808c-e9d883658fe0">G</tspan><tspan class="eb00fede-d7df-4e8e-8b9a-774f44e784a1" x="10.93" y="0">a</tspan><tspan class="e7452eca-15d1-46f4-8326-556d691f1188" x="18.06" y="0">t</tspan><tspan class="eb00fede-d7df-4e8e-8b9a-774f44e784a1" x="22.77" y="0">ewa</tspan><tspan x="47.99" y="0">y</tspan></text><rect class="a5a6cb5e-e408-44b4-8dbe-597c067af83b" x="587.88" y="112.15" width="52.82" height="52.82" rx="3"/><polygon class="a882157a-8bf2-4bb6-911c-a19b0e68dadd" points="627.27 146.04 627.27 131.08 614.29 123.59 601.32 131.08 601.32 146.04 614.29 153.53 627.27 146.04"/><rect id="f73b5221-aba3-4596-8e16-d0fd539d86fe" data-name="background" class="e5621899-2a4b-488e-a3b1-5e7580f3bb6c" x="566.02" y="103.34" width="20" height="20"/><polygon id="a80df669-7909-4953-a731-39da38ed318b" data-name="hull" class="a5a6cb5e-e408-44b4-8dbe-597c067af83b" points="570.02 120.09 582.02 120.09 574.52 122.34 570.02 120.09"/><polygon id="ad56c77b-aad8-4602-b4c0-7b95fc267338" data-name="mainsail" class="a5a6cb5e-e408-44b4-8dbe-597c067af83b" points="570.02 119.34 574.52 118.59 574.52 110.34 570.02 119.34"/><polygon id="ae20dcc2-027f-41a4-bbd0-b72e02df85aa" data-name="headsail" class="a5a6cb5e-e408-44b4-8dbe-597c067af83b" points="575.27 118.59 582.02 119.34 575.27 104.34 575.27 118.59"/><rect class="b600a5e2-6b63-4525-a08c-1d77abc658a8" x="55.74" y="103.34" width="105.64" height="105.64" rx="3"/><rect class="a5a6cb5e-e408-44b4-8dbe-597c067af83b" x="64.55" y="173.77" width="88.04" height="26.41" rx="3"/><text class="b0cc6676-633c-4f7c-acd1-42d9601cdfbf" transform="translate(81.21 191.72)"><tspan class="acca4613-a42a-44df-808c-e9d883658fe0">G</tspan><tspan class="eb00fede-d7df-4e8e-8b9a-774f44e784a1" x="10.93" y="0">a</tspan><tspan class="e7452eca-15d1-46f4-8326-556d691f1188" x="18.06" y="0">t</tspan><tspan class="eb00fede-d7df-4e8e-8b9a-774f44e784a1" x="22.77" y="0">ewa</tspan><tspan x="47.99" y="0">y</tspan></text><rect class="a5a6cb5e-e408-44b4-8dbe-597c067af83b" x="82.15" y="112.15" width="52.82" height="52.82" rx="3"/><polygon class="a882157a-8bf2-4bb6-911c-a19b0e68dadd" points="121.53 146.04 121.53 131.08 108.56 123.59 95.59 131.08 95.59 146.04 108.56 153.53 121.53 146.04"/><rect id="fc55d0ae-4613-4091-bc78-1a33fa974a9f" data-name="background" class="e5621899-2a4b-488e-a3b1-5e7580f3bb6c" x="60.29" y="103.34" width="20" height="20"/><polygon id="f2cfe013-ff68-42dd-b88c-0732317fca03" data-name="hull" class="a5a6cb5e-e408-44b4-8dbe-597c067af83b" points="64.29 120.09 76.29 120.09 68.79 122.34 64.29 120.09"/><polygon id="bc7801b3-371d-4870-98ee-cf2e933707b8" data-name="mainsail" class="a5a6cb5e-e408-44b4-8dbe-597c067af83b" points="64.29 119.34 68.79 118.59 68.79 110.34 64.29 119.34"/><polygon id="bbccd5dc-f595-47da-92f4-5c95e55fb508" data-name="headsail" class="a5a6cb5e-e408-44b4-8dbe-597c067af83b" points="69.54 118.59 76.29 119.34 69.54 104.34 69.54 118.59"/><rect class="bfa7d269-ab12-4d36-8c2c-cf03656246ef" x="31.5" y="1.28" width="655" height="228" rx="10"/><rect class="e586560b-19d9-4bf3-81a4-26e4836da638" x="208.9" y="9.78" width="136" height="161" rx="3"/><rect class="a5a6cb5e-e408-44b4-8dbe-597c067af83b" x="249.9" y="111.64" width="54" height="54" rx="3"/><polygon class="a882157a-8bf2-4bb6-911c-a19b0e68dadd" points="290.16 146.29 290.16 130.99 276.9 123.34 263.64 130.99 263.64 146.29 276.9 153.94 290.16 146.29"/><rect class="a5a6cb5e-e408-44b4-8dbe-597c067af83b" x="218.4" y="18.64" width="117" height="54" rx="3"/><text class="f8875836-8920-49d1-a601-7f79f0db3163" transform="translate(270.32 50.48)">Se<tspan class="b340e8a1-282c-4e31-b29b-549de6e034a8" x="15.74" y="0">r</tspan><tspan x="21.22" y="0">v</tspan><tspan class="b02bc810-aa01-45a8-ac13-4ec7078b0d31" x="28.42" y="0">ic</tspan><tspan x="39.09" y="0">e</tspan><tspan class="b7e02eaa-608c-42e0-ab4b-c6d070b18659" x="46.97" y="0"> </tspan><tspan x="49.8" y="0">A</tspan></text><circle class="a1362386-c9e6-464d-bfa9-f00e1bbcffbc" cx="245.4" cy="45.64" r="18"/><rect class="f8d59571-1281-4937-a1fb-b075ee83ccca" x="239" y="39.13" width="12.79" height="12.79"/><line class="b0de2207-b132-4c81-b55c-2cb90527386e" x1="241.37" y1="39.13" x2="241.37" y2="36.05"/><line class="b0de2207-b132-4c81-b55c-2cb90527386e" x1="245.4" y1="39.13" x2="245.4" y2="36.05"/><line class="b0de2207-b132-4c81-b55c-2cb90527386e" x1="249.42" y1="39.13" x2="249.42" y2="36.05"/><line class="b0de2207-b132-4c81-b55c-2cb90527386e" x1="241.37" y1="55.23" x2="241.37" y2="52.15"/><line class="b0de2207-b132-4c81-b55c-2cb90527386e" x1="245.4" y1="55.23" x2="245.4" y2="52.15"/><line class="b0de2207-b132-4c81-b55c-2cb90527386e" x1="249.42" y1="55.23" x2="249.42" y2="52.15"/><line class="b0de2207-b132-4c81-b55c-2cb90527386e" x1="238.88" y1="49.66" x2="235.81" y2="49.66"/><line class="b0de2207-b132-4c81-b55c-2cb90527386e" x1="238.88" y1="45.64" x2="235.81" y2="45.64"/><line class="b0de2207-b132-4c81-b55c-2cb90527386e" x1="238.88" y1="41.61" x2="235.81" y2="41.61"/><line class="b0de2207-b132-4c81-b55c-2cb90527386e" x1="254.99" y1="49.66" x2="251.91" y2="49.66"/><line class="b0de2207-b132-4c81-b55c-2cb90527386e" x1="254.99" y1="45.64" x2="251.91" y2="45.64"/><line class="b0de2207-b132-4c81-b55c-2cb90527386e" x1="254.99" y1="41.61" x2="251.91" y2="41.61"/><rect class="a5a6cb5e-e408-44b4-8dbe-597c067af83b" x="242.56" y="42.68" width="5.68" height="5.68" rx="2"/><rect class="e586560b-19d9-4bf3-81a4-26e4836da638" x="376.9" y="9.78" width="136" height="161" rx="3"/><rect class="a5a6cb5e-e408-44b4-8dbe-597c067af83b" x="417.9" y="111.64" width="54" height="54" rx="3"/><polygon class="a882157a-8bf2-4bb6-911c-a19b0e68dadd" points="458.16 146.29 458.16 130.99 444.9 123.34 431.64 130.99 431.64 146.29 444.9 153.94 458.16 146.29"/><rect class="a5a6cb5e-e408-44b4-8dbe-597c067af83b" x="386.4" y="18.64" width="117" height="54" rx="3"/><text class="f8875836-8920-49d1-a601-7f79f0db3163" transform="translate(438.55 50.48)">Se<tspan class="b340e8a1-282c-4e31-b29b-549de6e034a8" x="15.74" y="0">r</tspan><tspan x="21.22" y="0">v</tspan><tspan class="b02bc810-aa01-45a8-ac13-4ec7078b0d31" x="28.42" y="0">ic</tspan><tspan x="39.09" y="0">e B</tspan></text><circle class="a1362386-c9e6-464d-bfa9-f00e1bbcffbc" cx="413.4" cy="45.64" r="18"/><rect class="f8d59571-1281-4937-a1fb-b075ee83ccca" x="407" y="39.13" width="12.79" height="12.79"/><line class="b0de2207-b132-4c81-b55c-2cb90527386e" x1="409.37" y1="39.13" x2="409.37" y2="36.05"/><line class="b0de2207-b132-4c81-b55c-2cb90527386e" x1="413.4" y1="39.13" x2="413.4" y2="36.05"/><line class="b0de2207-b132-4c81-b55c-2cb90527386e" x1="417.42" y1="39.13" x2="417.42" y2="36.05"/><line class="b0de2207-b132-4c81-b55c-2cb90527386e" x1="409.37" y1="55.23" x2="409.37" y2="52.15"/><line class="b0de2207-b132-4c81-b55c-2cb90527386e" x1="413.4" y1="55.23" x2="413.4" y2="52.15"/><line class="b0de2207-b132-4c81-b55c-2cb90527386e" x1="417.42" y1="55.23" x2="417.42" y2="52.15"/><line class="b0de2207-b132-4c81-b55c-2cb90527386e" x1="406.88" y1="49.66" x2="403.81" y2="49.66"/><line class="b0de2207-b132-4c81-b55c-2cb90527386e" x1="406.88" y1="45.64" x2="403.81" y2="45.64"/><line class="b0de2207-b132-4c81-b55c-2cb90527386e" x1="406.88" y1="41.61" x2="403.81" y2="41.61"/><line class="b0de2207-b132-4c81-b55c-2cb90527386e" x1="422.99" y1="49.66" x2="419.91" y2="49.66"/><line class="b0de2207-b132-4c81-b55c-2cb90527386e" x1="422.99" y1="45.64" x2="419.91" y2="45.64"/><line class="b0de2207-b132-4c81-b55c-2cb90527386e" x1="422.99" y1="41.61" x2="419.91" y2="41.61"/><rect class="a5a6cb5e-e408-44b4-8dbe-597c067af83b" x="410.56" y="42.68" width="5.68" height="5.68" rx="2"/><g class="fc39221f-3347-4f97-95e6-5e97593f0364"><polygon class="a2e9d05d-c312-4134-9004-6934169df0d6" points="36.95 20.37 48.85 20.37 41.41 22.61 36.95 20.37"/><polygon class="a2e9d05d-c312-4134-9004-6934169df0d6" points="36.95 19.63 41.41 18.89 41.41 10.71 36.95 19.63"/><polygon class="e7bb8a1c-873b-44b4-b88d-75146d1e4553" points="42.16 18.89 48.85 19.63 42.16 4.76 42.16 18.89"/></g><rect class="e586560b-19d9-4bf3-81a4-26e4836da638" x="726.9" y="103.78" width="135" height="72" rx="3"/><rect class="a5a6cb5e-e408-44b4-8dbe-597c067af83b" x="735.9" y="112.78" width="117" height="54" rx="3"/><text class="f8875836-8920-49d1-a601-7f79f0db3163" transform="translate(793.92 144.02)">Se<tspan class="b340e8a1-282c-4e31-b29b-549de6e034a8" x="15.74" y="0">r</tspan><tspan x="21.22" y="0">v</tspan><tspan class="b02bc810-aa01-45a8-ac13-4ec7078b0d31" x="28.42" y="0">ic</tspan><tspan x="39.09" y="0">e</tspan></text><circle class="a1362386-c9e6-464d-bfa9-f00e1bbcffbc" cx="762.9" cy="139.78" r="18"/><rect class="f8d59571-1281-4937-a1fb-b075ee83ccca" x="756.51" y="133.27" width="12.79" height="12.79"/><line class="b0de2207-b132-4c81-b55c-2cb90527386e" x1="758.87" y1="133.27" x2="758.87" y2="130.19"/><line class="b0de2207-b132-4c81-b55c-2cb90527386e" x1="762.9" y1="133.27" x2="762.9" y2="130.19"/><line class="b0de2207-b132-4c81-b55c-2cb90527386e" x1="766.93" y1="133.27" x2="766.93" y2="130.19"/><line class="b0de2207-b132-4c81-b55c-2cb90527386e" x1="758.87" y1="149.37" x2="758.87" y2="146.29"/><line class="b0de2207-b132-4c81-b55c-2cb90527386e" x1="762.9" y1="149.37" x2="762.9" y2="146.29"/><line class="b0de2207-b132-4c81-b55c-2cb90527386e" x1="766.93" y1="149.37" x2="766.93" y2="146.29"/><line class="b0de2207-b132-4c81-b55c-2cb90527386e" x1="756.39" y1="143.81" x2="753.31" y2="143.81"/><line class="b0de2207-b132-4c81-b55c-2cb90527386e" x1="756.39" y1="139.78" x2="753.31" y2="139.78"/><line class="b0de2207-b132-4c81-b55c-2cb90527386e" x1="756.39" y1="135.75" x2="753.31" y2="135.75"/><line class="b0de2207-b132-4c81-b55c-2cb90527386e" x1="772.49" y1="143.81" x2="769.41" y2="143.81"/><line class="b0de2207-b132-4c81-b55c-2cb90527386e" x1="772.49" y1="139.78" x2="769.41" y2="139.78"/><line class="b0de2207-b132-4c81-b55c-2cb90527386e" x1="772.49" y1="135.75" x2="769.41" y2="135.75"/><rect class="a5a6cb5e-e408-44b4-8dbe-597c067af83b" x="760.06" y="136.82" width="5.68" height="5.68" rx="2"/><text class="b52b7def-8c57-4fd8-971d-6190b55b4a1b" transform="translate(730.02 18.31)">D<tspan class="e0552c6b-85d7-438f-9f3e-85b05865e37c" x="5.61" y="0">at</tspan><tspan x="12.49" y="0">a </tspan><tspan class="e0552c6b-85d7-438f-9f3e-85b05865e37c" x="18.52" y="0">p</tspan><tspan class="b6932110-26db-4fa4-9393-e4e90de849c0" x="23.13" y="0">l</tspan><tspan x="24.76" y="0">ane t</tspan><tspan class="e7073d6e-88ec-4621-a5f6-3b9398226b34" x="42.49" y="0">r</tspan><tspan class="e0552c6b-85d7-438f-9f3e-85b05865e37c" x="45.26" y="0">a</tspan><tspan class="b636a67f-c4df-49c0-9782-288aa2a81fe9" x="49.35" y="0">f</tspan><tspan class="e0552c6b-85d7-438f-9f3e-85b05865e37c" x="52.15" y="0">f</tspan><tspan class="b6932110-26db-4fa4-9393-e4e90de849c0" x="55.03" y="0">i</tspan><tspan x="56.78" y="0">c</tspan></text><line class="fa9feeca-d901-41e7-b6ab-ee3512279f8e" x1="726.9" y1="6.78" x2="848.33" y2="6.78"/><polygon class="a56bb5d8-cea9-4d6c-b847-574f741e019f" points="840.36 13.56 847.15 6.78 840.36 0 846.12 0 852.9 6.78 846.12 13.56 840.36 13.56"/><text class="b52b7def-8c57-4fd8-971d-6190b55b4a1b" transform="translate(730.02 44.31)"><tspan class="e0552c6b-85d7-438f-9f3e-85b05865e37c">E</tspan><tspan x="4.32" y="0">x</tspan><tspan class="bce0e3a8-6f70-4dbc-9b04-11f7263fe78d" x="8.13" y="0">t</tspan><tspan x="10.82" y="0">er</tspan><tspan class="ef976021-141d-4b0e-be3d-56b4686f5137" x="18.14" y="0">n</tspan><tspan x="22.54" y="0">al t</tspan><tspan class="b636a67f-c4df-49c0-9782-288aa2a81fe9" x="33.1" y="0">r</tspan><tspan class="e0552c6b-85d7-438f-9f3e-85b05865e37c" x="35.87" y="0">a</tspan><tspan class="b636a67f-c4df-49c0-9782-288aa2a81fe9" x="39.97" y="0">f</tspan><tspan class="e0552c6b-85d7-438f-9f3e-85b05865e37c" x="42.77" y="0">f</tspan><tspan class="b6932110-26db-4fa4-9393-e4e90de849c0" x="45.65" y="0">i</tspan><tspan x="47.4" y="0">c</tspan></text><line class="b56fd367-3c6e-4f22-a6a4-2f2ec74eccf1" x1="726.9" y1="28.78" x2="732.9" y2="28.78"/><line class="a8db638c-563e-4eb8-9103-4dd87dc7511f" x1="745.77" y1="28.78" x2="754.36" y2="28.78"/><line class="fe8cbe7b-7d3b-4aa9-9f1a-cfb1d09527c2" x1="760.79" y1="28.78" x2="835.89" y2="28.78"/><line class="b56fd367-3c6e-4f22-a6a4-2f2ec74eccf1" x1="842.33" y1="28.78" x2="848.33" y2="28.78"/><polygon class="ba18535d-f1a7-402a-9514-9ec92cd2a069" points="840.36 35.56 847.15 28.78 840.36 22 846.12 22 852.9 28.78 846.12 35.56 840.36 35.56"/><line class="fa9feeca-d901-41e7-b6ab-ee3512279f8e" x1="135" y1="139.78" x2="245.43" y2="139.78"/><polygon class="a56bb5d8-cea9-4d6c-b847-574f741e019f" points="237.46 146.56 244.25 139.78 237.46 133 243.22 133 250 139.78 243.22 146.56 237.46 146.56"/><line class="fa9feeca-d901-41e7-b6ab-ee3512279f8e" x1="304" y1="139.78" x2="413.43" y2="139.78"/><polygon class="a56bb5d8-cea9-4d6c-b847-574f741e019f" points="405.46 146.56 412.25 139.78 405.46 133 411.22 133 418 139.78 411.22 146.56 405.46 146.56"/><line class="fa9feeca-d901-41e7-b6ab-ee3512279f8e" x1="472" y1="139.78" x2="582.43" y2="139.78"/><polygon class="a56bb5d8-cea9-4d6c-b847-574f741e019f" points="574.46 146.56 581.25 139.78 574.46 133 580.22 133 587 139.78 580.22 146.56 574.46 146.56"/><line class="fa9feeca-d901-41e7-b6ab-ee3512279f8e" x1="277" y1="107.21" x2="277" y2="77.35"/><polygon class="a56bb5d8-cea9-4d6c-b847-574f741e019f" points="283.78 99.24 277 106.03 270.22 99.24 270.22 105 277 111.78 283.78 105 283.78 99.24"/><polygon class="a56bb5d8-cea9-4d6c-b847-574f741e019f" points="283.78 85.32 277 78.53 270.22 85.32 270.22 79.56 277 72.78 283.78 79.56 283.78 85.32"/><line class="fa9feeca-d901-41e7-b6ab-ee3512279f8e" x1="445" y1="107.21" x2="445" y2="77.35"/><polygon class="a56bb5d8-cea9-4d6c-b847-574f741e019f" points="451.78 99.24 445 106.03 438.22 99.24 438.22 105 445 111.78 451.78 105 451.78 99.24"/><polygon class="a56bb5d8-cea9-4d6c-b847-574f741e019f" points="451.78 85.32 445 78.53 438.22 85.32 438.22 79.56 445 72.78 451.78 79.56 451.78 85.32"/><line class="b56fd367-3c6e-4f22-a6a4-2f2ec74eccf1" x1="77.43" y1="139.78" x2="71.43" y2="139.78"/><line class="b08e357e-053d-4d84-bd29-4c40d6a5d7ab" x1="59.54" y1="139.78" x2="51.61" y2="139.78"/><line class="b8c97ffa-ffdf-4e31-861d-f2bcfd34f893" x1="45.66" y1="139.78" x2="13.95" y2="139.78"/><line class="b56fd367-3c6e-4f22-a6a4-2f2ec74eccf1" x1="8" y1="139.78" x2="2" y2="139.78"/><polygon class="ba18535d-f1a7-402a-9514-9ec92cd2a069" points="69.46 133 76.25 139.78 69.46 146.56 75.22 146.56 82 139.78 75.22 133 69.46 133"/><line class="b56fd367-3c6e-4f22-a6a4-2f2ec74eccf1" x1="640" y1="139.78" x2="646" y2="139.78"/><line class="a3e76015-6336-4bd1-9093-c4acf4ba8d9f" x1="660.89" y1="139.78" x2="670.82" y2="139.78"/><line class="a36a82f8-3159-46b0-8cde-4bc36a32a4a1" x1="678.27" y1="139.78" x2="717.98" y2="139.78"/><line class="b56fd367-3c6e-4f22-a6a4-2f2ec74eccf1" x1="725.43" y1="139.78" x2="731.43" y2="139.78"/><polygon class="ba18535d-f1a7-402a-9514-9ec92cd2a069" points="723.46 146.56 730.25 139.78 723.46 133 729.22 133 736 139.78 729.22 146.56 723.46 146.56"/><text class="bfc17972-82c5-49c3-b025-73513c27928b" transform="translate(632.91 109.42)">OPTIONAL</text><text class="bfc17972-82c5-49c3-b025-73513c27928b" transform="translate(822.91 110.42)">E<tspan class="e1687774-5e54-4b2d-b5ae-c86867f2c9a4" x="3.44" y="0">X</tspan><tspan x="7.5" y="0">TERNAL</tspan></text></g></svg>