<?xml version="1.0" encoding="UTF-8" standalone="no"?>
<svg
   version="1.1"
   viewBox="0.0 0.0 435.8635170603674 406.4173228346457"
   fill="none"
   stroke="none"
   stroke-linecap="square"
   stroke-miterlimit="10"
   id="svg57"
   sodipodi:docname="cni.svg"
   inkscape:version="1.3 (0e150ed, 2023-07-21)"
   xmlns:inkscape="http://www.inkscape.org/namespaces/inkscape"
   xmlns:sodipodi="http://sodipodi.sourceforge.net/DTD/sodipodi-0.dtd"
   xmlns="http://www.w3.org/2000/svg"
   xmlns:svg="http://www.w3.org/2000/svg">
  <defs
     id="defs57" />
  <sodipodi:namedview
     id="namedview57"
     pagecolor="#ffffff"
     bordercolor="#000000"
     borderopacity="0.25"
     inkscape:showpageshadow="2"
     inkscape:pageopacity="0.0"
     inkscape:pagecheckerboard="0"
     inkscape:deskcolor="#d1d1d1"
     inkscape:zoom="1.6424221"
     inkscape:cx="290.1203"
     inkscape:cy="163.17364"
     inkscape:window-width="1920"
     inkscape:window-height="1027"
     inkscape:window-x="0"
     inkscape:window-y="25"
     inkscape:window-maximized="1"
     inkscape:current-layer="g57" />
  <clipPath
     id="p.0">
    <path
       d="m0 0l435.86353 0l0 406.41733l-435.86353 0l0 -406.41733z"
       clip-rule="nonzero"
       id="path1" />
  </clipPath>
  <g
     clip-path="url(#p.0)"
     id="g57">
    <path
       fill="#000000"
       fill-opacity="0.0"
       d="m0 0l435.86353 0l0 406.41733l-435.86353 0z"
       fill-rule="evenodd"
       id="path2" />
    <path
       fill="#000000"
       fill-opacity="0.0"
       d="m4.1522307 70.37401l0 0c0 -35.984753 29.171404 -65.15616 65.15616 -65.15616l297.24673 0c17.280487 0 33.85321 6.864647 46.072388 19.083797c12.219147 12.219149 19.08377 28.791872 19.08377 46.072365l0 260.61682c0 35.98477 -29.171387 65.15616 -65.15616 65.15616l-297.24673 0c-35.984753 0 -65.15616 -29.171387 -65.15616 -65.15616z"
       fill-rule="evenodd"
       id="path3" />
    <path
       stroke="#000000"
       stroke-width="1.0"
       stroke-linejoin="round"
       stroke-linecap="butt"
       stroke-dasharray="4.0,3.0"
       d="m4.1522307 70.37401l0 0c0 -35.984753 29.171404 -65.15616 65.15616 -65.15616l297.24673 0c17.280487 0 33.85321 6.864647 46.072388 19.083797c12.219147 12.219149 19.08377 28.791872 19.08377 46.072365l0 260.61682c0 35.98477 -29.171387 65.15616 -65.15616 65.15616l-297.24673 0c-35.984753 0 -65.15616 -29.171387 -65.15616 -65.15616z"
       fill-rule="evenodd"
       id="path4" />
    <path
       fill="#000000"
       fill-opacity="0.0"
       d="m18.396326 116.52073l0 0c0 -28.861443 23.396822 -52.258263 52.258263 -52.258263l285.0583 0c13.859772 0 27.151855 5.505768 36.95218 15.306091c9.8003235 9.8003235 15.306091 23.092422 15.306091 36.95217l0 209.0268c0 28.86145 -23.39682 52.25827 -52.25827 52.25827l-285.0583 0l0 0c-28.861439 0 -52.258263 -23.39682 -52.258263 -52.25827z"
       fill-rule="evenodd"
       id="path5" />
    <path
       stroke="#000000"
       stroke-width="1.0"
       stroke-linejoin="round"
       stroke-linecap="butt"
       stroke-dasharray="4.0,3.0"
       d="m18.396326 116.52073l0 0c0 -28.861443 23.396822 -52.258263 52.258263 -52.258263l285.0583 0c13.859772 0 27.151855 5.505768 36.95218 15.306091c9.8003235 9.8003235 15.306091 23.092422 15.306091 36.95217l0 209.0268c0 28.86145 -23.39682 52.25827 -52.25827 52.25827l-285.0583 0l0 0c-28.861439 0 -52.258263 -23.39682 -52.258263 -52.25827z"
       fill-rule="evenodd"
       id="path6" />
    <path
       fill="#000000"
       fill-opacity="0.0"
       d="m22.664042 16.908136l94.67717 0l0 42.015747l-94.67717 0z"
       fill-rule="evenodd"
       id="path7" />
    <path
       fill="#000000"
       fill-opacity="0.0"
       d="m32.66142 74.27821l65.44882 0l0 42.015747l-65.44882 0z"
       fill-rule="evenodd"
       id="path9" />
    <path
       fill="#000000"
       fill-opacity="0.0"
       d="m193.90814 274.48328l0 0c0 -9.651398 7.824005 -17.475403 17.475403 -17.475403l162.15155 0c4.6347656 0 9.079712 1.841156 12.356964 5.1184387c3.2772827 3.2772827 5.1184387 7.7221985 5.1184387 12.356964l0 69.89957c0 9.651428 -7.824005 17.475433 -17.475403 17.475433l-162.15155 0c-9.651398 0 -17.475403 -7.824005 -17.475403 -17.475433z"
       fill-rule="evenodd"
       id="path11" />
    <path
       stroke="#000000"
       stroke-width="1.0"
       stroke-linejoin="round"
       stroke-linecap="butt"
       stroke-dasharray="4.0,3.0"
       d="m193.90814 274.48328l0 0c0 -9.651398 7.824005 -17.475403 17.475403 -17.475403l162.15155 0c4.6347656 0 9.079712 1.841156 12.356964 5.1184387c3.2772827 3.2772827 5.1184387 7.7221985 5.1184387 12.356964l0 69.89957c0 9.651428 -7.824005 17.475433 -17.475403 17.475433l-162.15155 0c-9.651398 0 -17.475403 -7.824005 -17.475403 -17.475433z"
       fill-rule="evenodd"
       id="path12" />
    <path
       fill="#000000"
       fill-opacity="0.0"
       d="m190.60104 257.00787l88.566925 0l0 33.921265l-88.566925 0z"
       fill-rule="evenodd"
       id="path13" />
    <path
       fill="#000000"
       d="m200.39792 270.15286l0 -1.21875l1.0625 0l0 1.21875l-1.0625 0zm0 7.375l0 -6.21875l1.0625 0l0 6.21875l-1.0625 0zm2.2441406 -1.859375l1.03125 -0.15625q0.09375 0.625 0.484375 0.953125q0.40625 0.328125 1.140625 0.328125q0.71875 0 1.0625 -0.28125q0.359375 -0.296875 0.359375 -0.703125q0 -0.359375 -0.3125 -0.5625q-0.21875 -0.140625 -1.078125 -0.359375q-1.15625 -0.296875 -1.609375 -0.5q-0.4375 -0.21875 -0.671875 -0.59375q-0.234375 -0.375 -0.234375 -0.84375q0 -0.40625 0.1875 -0.765625q0.1875 -0.359375 0.515625 -0.59375q0.25 -0.171875 0.671875 -0.296875q0.421875 -0.125 0.921875 -0.125q0.71875 0 1.265625 0.21875q0.5625 0.203125 0.828125 0.5625q0.265625 0.359375 0.359375 0.953125l-1.03125 0.140625q-0.0625 -0.46875 -0.40625 -0.734375q-0.328125 -0.28125 -0.953125 -0.28125q-0.71875 0 -1.03125 0.25q-0.3125 0.234375 -0.3125 0.5625q0 0.203125 0.125 0.359375q0.140625 0.171875 0.40625 0.28125q0.15625 0.0625 0.9375 0.265625q1.125 0.3125 1.5625 0.5q0.4375 0.1875 0.6875 0.546875q0.25 0.359375 0.25 0.90625q0 0.53125 -0.3125 1.0q-0.296875 0.453125 -0.875 0.71875q-0.578125 0.25 -1.3125 0.25q-1.21875 0 -1.859375 -0.5q-0.625 -0.515625 -0.796875 -1.5zm8.71875 0.921875l0.15625 0.921875q-0.453125 0.09375 -0.796875 0.09375q-0.578125 0 -0.890625 -0.171875q-0.3125 -0.1875 -0.453125 -0.484375q-0.125 -0.296875 -0.125 -1.25l0 -3.578125l-0.765625 0l0 -0.8125l0.765625 0l0 -1.546875l1.046875 -0.625l0 2.171875l1.0625 0l0 0.8125l-1.0625 0l0 3.640625q0 0.453125 0.046875 0.578125q0.0625 0.125 0.1875 0.203125q0.125 0.078125 0.359375 0.078125q0.1875 0 0.46875 -0.03125zm1.0371094 -6.4375l0 -1.21875l1.0625 0l0 1.21875l-1.0625 0zm0 7.375l0 -6.21875l1.0625 0l0 6.21875l-1.0625 0zm2.2753906 -3.109375q0 -1.734375 0.953125 -2.5625q0.796875 -0.6875 1.953125 -0.6875q1.28125 0 2.09375 0.84375q0.828125 0.828125 0.828125 2.3125q0 1.203125 -0.359375 1.890625q-0.359375 0.6875 -1.0625 1.078125q-0.6875 0.375 -1.5 0.375q-1.296875 0 -2.109375 -0.828125q-0.796875 -0.84375 -0.796875 -2.421875zm1.078125 0q0 1.1875 0.515625 1.78125q0.53125 0.59375 1.3125 0.59375q0.796875 0 1.3125 -0.59375q0.515625 -0.59375 0.515625 -1.8125q0 -1.15625 -0.53125 -1.75q-0.515625 -0.59375 -1.296875 -0.59375q-0.78125 0 -1.3125 0.59375q-0.515625 0.578125 -0.515625 1.78125zm5.564453 0.53125l0 -1.0625l3.25 0l0 1.0625l-3.25 0zm3.9960938 0.71875l1.03125 -0.15625q0.09375 0.625 0.484375 0.953125q0.40625 0.328125 1.140625 0.328125q0.71875 0 1.0625 -0.28125q0.359375 -0.296875 0.359375 -0.703125q0 -0.359375 -0.3125 -0.5625q-0.21875 -0.140625 -1.078125 -0.359375q-1.15625 -0.296875 -1.609375 -0.5q-0.4375 -0.21875 -0.671875 -0.59375q-0.234375 -0.375 -0.234375 -0.84375q0 -0.40625 0.1875 -0.765625q0.1875 -0.359375 0.515625 -0.59375q0.25 -0.171875 0.671875 -0.296875q0.421875 -0.125 0.921875 -0.125q0.71875 0 1.265625 0.21875q0.5625 0.203125 0.828125 0.5625q0.265625 0.359375 0.359375 0.953125l-1.03125 0.140625q-0.0625 -0.46875 -0.40625 -0.734375q-0.328125 -0.28125 -0.953125 -0.28125q-0.71875 0 -1.03125 0.25q-0.3125 0.234375 -0.3125 0.5625q0 0.203125 0.125 0.359375q0.140625 0.171875 0.40625 0.28125q0.15625 0.0625 0.9375 0.265625q1.125 0.3125 1.5625 0.5q0.4375 0.1875 0.6875 0.546875q0.25 0.359375 0.25 0.90625q0 0.53125 -0.3125 1.0q-0.296875 0.453125 -0.875 0.71875q-0.578125 0.25 -1.3125 0.25q-1.21875 0 -1.859375 -0.5q-0.625 -0.515625 -0.796875 -1.5zm6.375 4.25l-0.125 -0.984375q0.34375 0.09375 0.609375 0.09375q0.34375 0 0.546875 -0.125q0.21875 -0.109375 0.359375 -0.3125q0.09375 -0.171875 0.328125 -0.796875q0.015625 -0.078125 0.09375 -0.25l-2.375 -6.234375l1.140625 0l1.296875 3.59375q0.25 0.6875 0.453125 1.453125q0.1875 -0.734375 0.4375 -1.421875l1.328125 -3.625l1.046875 0l-2.359375 6.328125q-0.390625 1.015625 -0.59375 1.40625q-0.28125 0.53125 -0.65625 0.765625q-0.359375 0.25 -0.859375 0.25q-0.296875 0 -0.671875 -0.140625zm5.625 -4.25l1.03125 -0.15625q0.09375 0.625 0.484375 0.953125q0.40625 0.328125 1.140625 0.328125q0.71875 0 1.0625 -0.28125q0.359375 -0.296875 0.359375 -0.703125q0 -0.359375 -0.3125 -0.5625q-0.21875 -0.140625 -1.078125 -0.359375q-1.15625 -0.296875 -1.609375 -0.5q-0.4375 -0.21875 -0.671875 -0.59375q-0.234375 -0.375 -0.234375 -0.84375q0 -0.40625 0.1875 -0.765625q0.1875 -0.359375 0.515625 -0.59375q0.25 -0.171875 0.671875 -0.296875q0.421875 -0.125 0.921875 -0.125q0.71875 0 1.265625 0.21875q0.5625 0.203125 0.828125 0.5625q0.265625 0.359375 0.359375 0.953125l-1.03125 0.140625q-0.0625 -0.46875 -0.40625 -0.734375q-0.328125 -0.28125 -0.953125 -0.28125q-0.71875 0 -1.03125 0.25q-0.3125 0.234375 -0.3125 0.5625q0 0.203125 0.125 0.359375q0.140625 0.171875 0.40625 0.28125q0.15625 0.0625 0.9375 0.265625q1.125 0.3125 1.5625 0.5q0.4375 0.1875 0.6875 0.546875q0.25 0.359375 0.25 0.90625q0 0.53125 -0.3125 1.0q-0.296875 0.453125 -0.875 0.71875q-0.578125 0.25 -1.3125 0.25q-1.21875 0 -1.859375 -0.5q-0.625 -0.515625 -0.796875 -1.5zm8.71875 0.921875l0.15625 0.921875q-0.453125 0.09375 -0.796875 0.09375q-0.578125 0 -0.890625 -0.171875q-0.3125 -0.1875 -0.453125 -0.484375q-0.125 -0.296875 -0.125 -1.25l0 -3.578125l-0.765625 0l0 -0.8125l0.765625 0l0 -1.546875l1.046875 -0.625l0 2.171875l1.0625 0l0 0.8125l-1.0625 0l0 3.640625q0 0.453125 0.046875 0.578125q0.0625 0.125 0.1875 0.203125q0.125 0.078125 0.359375 0.078125q0.1875 0 0.46875 -0.03125zm5.2871094 -1.0625l1.09375 0.125q-0.25 0.953125 -0.953125 1.484375q-0.703125 0.53125 -1.78125 0.53125q-1.359375 0 -2.171875 -0.84375q-0.796875 -0.84375 -0.796875 -2.359375q0 -1.5625 0.8125 -2.421875q0.8125 -0.875 2.09375 -0.875q1.25 0 2.03125 0.84375q0.796875 0.84375 0.796875 2.390625q0 0.09375 0 0.28125l-4.640625 0q0.0625 1.03125 0.578125 1.578125q0.515625 0.53125 1.296875 0.53125q0.578125 0 0.984375 -0.296875q0.421875 -0.3125 0.65625 -0.96875zm-3.453125 -1.703125l3.46875 0q-0.0625 -0.796875 -0.390625 -1.1875q-0.515625 -0.609375 -1.3125 -0.609375q-0.734375 0 -1.234375 0.484375q-0.484375 0.484375 -0.53125 1.3125zm5.876953 3.703125l0 -6.21875l0.9375 0l0 0.875q0.296875 -0.46875 0.78125 -0.734375q0.484375 -0.28125 1.109375 -0.28125q0.6875 0 1.125 0.28125q0.453125 0.28125 0.625 0.796875q0.75 -1.078125 1.921875 -1.078125q0.9375 0 1.421875 0.515625q0.5 0.5 0.5 1.578125l0 4.265625l-1.046875 0l0 -3.921875q0 -0.625 -0.109375 -0.90625q-0.09375 -0.28125 -0.359375 -0.453125q-0.265625 -0.171875 -0.640625 -0.171875q-0.65625 0 -1.09375 0.4375q-0.421875 0.4375 -0.421875 1.40625l0 3.609375l-1.0625 0l0 -4.046875q0 -0.703125 -0.265625 -1.046875q-0.25 -0.359375 -0.828125 -0.359375q-0.453125 0 -0.828125 0.234375q-0.375 0.234375 -0.546875 0.6875q-0.171875 0.453125 -0.171875 1.296875l0 3.234375l-1.046875 0z"
       fill-rule="nonzero"
       id="path14" />
    <path
       fill="#000000"
       fill-opacity="0.0"
       d="m98.11024 117.57269l0 0c0 -14.017586 11.363495 -25.381088 25.38108 -25.381088l164.45042 0c6.731476 0 13.187256 2.6740723 17.947144 7.4339523c4.7598877 4.7598724 7.43396 11.215652 7.43396 17.947136l0 101.5213c0 14.017578 -11.363495 25.381073 -25.381104 25.381073l-164.45042 0c-14.017586 0 -25.38108 -11.363495 -25.38108 -25.381073z"
       fill-rule="evenodd"
       id="path15" />
    <path
       stroke="#000000"
       stroke-width="1.0"
       stroke-linejoin="round"
       stroke-linecap="butt"
       stroke-dasharray="4.0,3.0"
       d="m98.11024 117.57269l0 0c0 -14.017586 11.363495 -25.381088 25.38108 -25.381088l164.45042 0c6.731476 0 13.187256 2.6740723 17.947144 7.4339523c4.7598877 4.7598724 7.43396 11.215652 7.43396 17.947136l0 101.5213c0 14.017578 -11.363495 25.381073 -25.381104 25.381073l-164.45042 0c-14.017586 0 -25.38108 -11.363495 -25.38108 -25.381073z"
       fill-rule="evenodd"
       id="path16" />
    <path
       fill="#000000"
       fill-opacity="0.0"
       d="m94.301834 100.50743l106.519684 0l0 33.921265l-106.519684 0z"
       fill-rule="evenodd"
       id="path17" />
    <path
       fill="#000000"
       fill-opacity="0.0"
       d="m125.149605 148.97931l0 0c0 -8.291687 6.721733 -15.013428 15.01342 -15.013428l131.10703 0c3.9818115 0 7.8005066 1.5817719 10.616089 4.3973236c2.8155518 2.815567 4.397339 6.6342926 4.397339 10.616104l0 60.05188c0 8.291687 -6.7217407 15.013428 -15.013428 15.013428l-131.10703 0c-8.291687 0 -15.01342 -6.7217407 -15.01342 -15.013428z"
       fill-rule="evenodd"
       id="path19" />
    <path
       stroke="#595959"
       stroke-width="1.0"
       stroke-linejoin="round"
       stroke-linecap="butt"
       d="m125.149605 148.97931l0 0c0 -8.291687 6.721733 -15.013428 15.01342 -15.013428l131.10703 0c3.9818115 0 7.8005066 1.5817719 10.616089 4.3973236c2.8155518 2.815567 4.397339 6.6342926 4.397339 10.616104l0 60.05188c0 8.291687 -6.7217407 15.013428 -15.013428 15.013428l-131.10703 0c-8.291687 0 -15.01342 -6.7217407 -15.01342 -15.013428z"
       fill-rule="evenodd"
       id="path20" />
    <path
       fill="#000000"
       fill-opacity="0.0"
       d="m135.06824 183.01588l0 0c0 -3.8675232 3.135254 -7.002762 7.002762 -7.002762l128.16771 0c1.8572388 0 3.6384277 0.73779297 4.9516907 2.051056c1.3132935 1.3132782 2.051056 3.0944672 2.051056 4.951706l0 28.010223c0 3.8675232 -3.1352234 7.002762 -7.0027466 7.002762l-128.16771 0c-3.867508 0 -7.002762 -3.1352386 -7.002762 -7.002762z"
       fill-rule="evenodd"
       id="path22" />
    <path
       stroke="#595959"
       stroke-width="1.0"
       stroke-linejoin="round"
       stroke-linecap="butt"
       d="m135.06824 183.01588l0 0c0 -3.8675232 3.135254 -7.002762 7.002762 -7.002762l128.16771 0c1.8572388 0 3.6384277 0.73779297 4.9516907 2.051056c1.3132935 1.3132782 2.051056 3.0944672 2.051056 4.951706l0 28.010223c0 3.8675232 -3.1352234 7.002762 -7.0027466 7.002762l-128.16771 0c-3.867508 0 -7.002762 -3.1352386 -7.002762 -7.002762z"
       fill-rule="evenodd"
       id="path23" />
    <path
       fill="#000000"
       fill-opacity="0.0"
       d="m169.95013 18.732424l0 0c0 -3.8675203 3.1352386 -7.0027647 7.002762 -7.0027647l58.403915 0c1.857254 0 3.6384277 0.73778915 4.951706 2.0510616c1.3132782 1.3132734 2.051056 3.0944548 2.051056 4.951703l0 28.010218c0 3.8675194 -3.1352386 7.0027657 -7.002762 7.0027657l-58.403915 0c-3.8675232 0 -7.002762 -3.1352463 -7.002762 -7.0027657z"
       fill-rule="evenodd"
       id="path25" />
    <path
       stroke="#000000"
       stroke-width="1.0"
       stroke-linejoin="round"
       stroke-linecap="butt"
       d="m169.95013 18.732424l0 0c0 -3.8675203 3.1352386 -7.0027647 7.002762 -7.0027647l58.403915 0c1.857254 0 3.6384277 0.73778915 4.951706 2.0510616c1.3132782 1.3132734 2.051056 3.0944548 2.051056 4.951703l0 28.010218c0 3.8675194 -3.1352386 7.0027657 -7.002762 7.0027657l-58.403915 0c-3.8675232 0 -7.002762 -3.1352463 -7.002762 -7.0027657z"
       fill-rule="evenodd"
       id="path26" />
    <path
       fill="#000000"
       d="m182.73555 39.65753l0 -13.359375l1.765625 0l0 13.359375l-1.765625 0zm4.027054 -2.890625l1.625 -0.25q0.125 0.96875 0.75 1.5q0.625 0.515625 1.75 0.515625q1.125 0 1.671875 -0.453125q0.546875 -0.46875 0.546875 -1.09375q0 -0.546875 -0.484375 -0.875q-0.328125 -0.21875 -1.671875 -0.546875q-1.8125 -0.46875 -2.515625 -0.796875q-0.6875 -0.328125 -1.046875 -0.90625q-0.359375 -0.59375 -0.359375 -1.3125q0 -0.640625 0.296875 -1.1875q0.296875 -0.5625 0.8125 -0.921875q0.375 -0.28125 1.03125 -0.46875q0.671875 -0.203125 1.421875 -0.203125q1.140625 0 2.0 0.328125q0.859375 0.328125 1.265625 0.890625q0.421875 0.5625 0.578125 1.5l-1.609375 0.21875q-0.109375 -0.75 -0.640625 -1.171875q-0.515625 -0.421875 -1.46875 -0.421875q-1.140625 0 -1.625 0.375q-0.46875 0.375 -0.46875 0.875q0 0.3125 0.1875 0.578125q0.203125 0.265625 0.640625 0.4375q0.234375 0.09375 1.4375 0.421875q1.75 0.453125 2.4375 0.75q0.6875 0.296875 1.078125 0.859375q0.390625 0.5625 0.390625 1.40625q0 0.828125 -0.484375 1.546875q-0.46875 0.71875 -1.375 1.125q-0.90625 0.390625 -2.046875 0.390625q-1.875 0 -2.875 -0.78125q-0.984375 -0.78125 -1.25 -2.328125zm13.5625 1.421875l0.234375 1.453125q-0.6875 0.140625 -1.234375 0.140625q-0.890625 0 -1.390625 -0.28125q-0.484375 -0.28125 -0.6875 -0.734375q-0.203125 -0.46875 -0.203125 -1.9375l0 -5.578125l-1.203125 0l0 -1.265625l1.203125 0l0 -2.390625l1.625 -0.984375l0 3.375l1.65625 0l0 1.265625l-1.65625 0l0 5.671875q0 0.6875 0.078125 0.890625q0.09375 0.203125 0.28125 0.328125q0.203125 0.109375 0.578125 0.109375q0.265625 0 0.71875 -0.0625zm1.6051788 -10.0l0 -1.890625l1.640625 0l0 1.890625l-1.640625 0zm0 11.46875l0 -9.671875l1.640625 0l0 9.671875l-1.640625 0zm3.5354462 -4.84375q0 -2.6875 1.484375 -3.96875q1.25 -1.078125 3.046875 -1.078125q2.0 0 3.265625 1.3125q1.265625 1.296875 1.265625 3.609375q0 1.859375 -0.5625 2.9375q-0.5625 1.0625 -1.640625 1.65625q-1.0625 0.59375 -2.328125 0.59375q-2.03125 0 -3.28125 -1.296875q-1.25 -1.3125 -1.25 -3.765625zm1.6875 0q0 1.859375 0.796875 2.796875q0.8125 0.921875 2.046875 0.921875q1.21875 0 2.03125 -0.921875q0.8125 -0.9375 0.8125 -2.84375q0 -1.796875 -0.8125 -2.71875q-0.8125 -0.921875 -2.03125 -0.921875q-1.234375 0 -2.046875 0.921875q-0.796875 0.90625 -0.796875 2.765625zm15.563217 4.84375l0 -1.21875q-0.90625 1.4375 -2.703125 1.4375q-1.15625 0 -2.125 -0.640625q-0.96875 -0.640625 -1.5 -1.78125q-0.53125 -1.140625 -0.53125 -2.625q0 -1.453125 0.484375 -2.625q0.484375 -1.1875 1.4375 -1.8125q0.96875 -0.625 2.171875 -0.625q0.875 0 1.546875 0.375q0.6875 0.359375 1.109375 0.953125l0 -4.796875l1.640625 0l0 13.359375l-1.53125 0zm-5.171875 -4.828125q0 1.859375 0.78125 2.78125q0.78125 0.921875 1.84375 0.921875q1.078125 0 1.828125 -0.875q0.75 -0.890625 0.75 -2.6875q0 -1.984375 -0.765625 -2.90625q-0.765625 -0.9375 -1.890625 -0.9375q-1.078125 0 -1.8125 0.890625q-0.734375 0.890625 -0.734375 2.8125z"
       fill-rule="nonzero"
       id="path27" />
    <path
       fill="#d9ead3"
       d="m38.52231 281.60132l0 0c0 -7.68573 6.2305374 -13.91629 13.91629 -13.91629l73.9627 0c3.690834 0 7.2304916 1.4661865 9.840294 4.075989c2.6098175 2.6098328 4.075989 6.149475 4.075989 9.8403015l0 55.663483c0 7.6857605 -6.23053 13.91629 -13.916283 13.91629l-73.9627 0l0 0c-7.685753 0 -13.91629 -6.23053 -13.91629 -13.91629z"
       fill-rule="evenodd"
       id="path28" />
    <path
       stroke="#000000"
       stroke-width="1.0"
       stroke-linejoin="round"
       stroke-linecap="butt"
       d="m38.52231 281.60132l0 0c0 -7.68573 6.2305374 -13.91629 13.91629 -13.91629l73.9627 0c3.690834 0 7.2304916 1.4661865 9.840294 4.075989c2.6098175 2.6098328 4.075989 6.149475 4.075989 9.8403015l0 55.663483c0 7.6857605 -6.23053 13.91629 -13.916283 13.91629l-73.9627 0l0 0c-7.685753 0 -13.91629 -6.23053 -13.91629 -13.91629z"
       fill-rule="evenodd"
       id="path29" />
    <path
       fill="#d9ead3"
       d="m219.30971 301.5724l0 0c0 -5.6070557 4.54541 -10.152435 10.152435 -10.152435l125.99434 0c2.6925964 0 5.2749023 1.0696106 7.1788635 2.9735718c1.9039612 1.9039612 2.9735718 4.486267 2.9735718 7.1788635l0 40.60852c0 5.607025 -4.5453796 10.152435 -10.152435 10.152435l-125.99434 0l0 0c-5.607025 0 -10.152435 -4.54541 -10.152435 -10.152435z"
       fill-rule="evenodd"
       id="path33" />
    <path
       stroke="#000000"
       stroke-width="1.0"
       stroke-linejoin="round"
       stroke-linecap="butt"
       d="m219.30971 301.5724l0 0c0 -5.6070557 4.54541 -10.152435 10.152435 -10.152435l125.99434 0c2.6925964 0 5.2749023 1.0696106 7.1788635 2.9735718c1.9039612 1.9039612 2.9735718 4.486267 2.9735718 7.1788635l0 40.60852c0 5.607025 -4.5453796 10.152435 -10.152435 10.152435l-125.99434 0l0 0c-5.607025 0 -10.152435 -4.54541 -10.152435 -10.152435z"
       fill-rule="evenodd"
       id="path34" />
    <path
       fill="#000000"
       fill-opacity="0.0"
       d="m229.26509 289.56168l146.29921 0l0 64.62991l-146.29921 0z"
       fill-rule="evenodd"
       id="path35" />
    <path
       fill="#000000"
       d="m239.99947 316.4817l0 -13.359375l1.765625 0l0 13.359375l-1.765625 0zm4.027054 -2.890625l1.625 -0.25q0.125 0.96875 0.75 1.5q0.625 0.515625 1.75 0.515625q1.125 0 1.671875 -0.453125q0.546875 -0.46875 0.546875 -1.09375q0 -0.546875 -0.484375 -0.875q-0.328125 -0.21875 -1.671875 -0.546875q-1.8125 -0.46875 -2.515625 -0.796875q-0.6875 -0.328125 -1.046875 -0.90625q-0.359375 -0.59375 -0.359375 -1.3125q0 -0.640625 0.296875 -1.1875q0.296875 -0.5625 0.8125 -0.921875q0.375 -0.28125 1.03125 -0.46875q0.671875 -0.203125 1.421875 -0.203125q1.140625 0 2.0 0.328125q0.859375 0.328125 1.265625 0.890625q0.421875 0.5625 0.578125 1.5l-1.609375 0.21875q-0.109375 -0.75 -0.640625 -1.171875q-0.515625 -0.421875 -1.46875 -0.421875q-1.140625 0 -1.625 0.375q-0.46875 0.375 -0.46875 0.875q0 0.3125 0.1875 0.578125q0.203125 0.265625 0.640625 0.4375q0.234375 0.09375 1.4375 0.421875q1.75 0.453125 2.4375 0.75q0.6875 0.296875 1.078125 0.859375q0.390625 0.5625 0.390625 1.40625q0 0.828125 -0.484375 1.546875q-0.46875 0.71875 -1.375 1.125q-0.90625 0.390625 -2.046875 0.390625q-1.875 0 -2.875 -0.78125q-0.984375 -0.78125 -1.25 -2.328125zm13.5625 1.421875l0.234375 1.453125q-0.6875 0.140625 -1.234375 0.140625q-0.890625 0 -1.390625 -0.28125q-0.484375 -0.28125 -0.6875 -0.734375q-0.203125 -0.46875 -0.203125 -1.9375l0 -5.578125l-1.203125 0l0 -1.265625l1.203125 0l0 -2.390625l1.625 -0.984375l0 3.375l1.65625 0l0 1.265625l-1.65625 0l0 5.671875q0 0.6875 0.078125 0.890625q0.09375 0.203125 0.28125 0.328125q0.203125 0.109375 0.578125 0.109375q0.265625 0 0.71875 -0.0625zm1.6051941 -10.0l0 -1.890625l1.640625 0l0 1.890625l-1.640625 0zm0 11.46875l0 -9.671875l1.640625 0l0 9.671875l-1.640625 0zm3.535431 -4.84375q0 -2.6875 1.484375 -3.96875q1.25 -1.078125 3.046875 -1.078125q2.0 0 3.265625 1.3125q1.265625 1.296875 1.265625 3.609375q0 1.859375 -0.5625 2.9375q-0.5625 1.0625 -1.640625 1.65625q-1.0625 0.59375 -2.328125 0.59375q-2.03125 0 -3.28125 -1.296875q-1.25 -1.3125 -1.25 -3.765625zm1.6875 0q0 1.859375 0.796875 2.796875q0.8125 0.921875 2.046875 0.921875q1.21875 0 2.03125 -0.921875q0.8125 -0.9375 0.8125 -2.84375q0 -1.796875 -0.8125 -2.71875q-0.8125 -0.921875 -2.03125 -0.921875q-1.234375 0 -2.046875 0.921875q-0.796875 0.90625 -0.796875 2.765625zm24.215271 0.15625l1.765625 0.453125q-0.5625 2.171875 -2.0 3.328125q-1.4375 1.140625 -3.53125 1.140625q-2.15625 0 -3.515625 -0.875q-1.34375 -0.890625 -2.0625 -2.546875q-0.703125 -1.671875 -0.703125 -3.59375q0 -2.078125 0.796875 -3.625q0.796875 -1.5625 2.265625 -2.359375q1.484375 -0.8125 3.25 -0.8125q2.0 0 3.359375 1.015625q1.375 1.015625 1.90625 2.875l-1.734375 0.40625q-0.46875 -1.453125 -1.359375 -2.109375q-0.875 -0.671875 -2.203125 -0.671875q-1.546875 0 -2.578125 0.734375q-1.03125 0.734375 -1.453125 1.984375q-0.421875 1.234375 -0.421875 2.5625q0 1.703125 0.5 2.96875q0.5 1.265625 1.546875 1.90625q1.046875 0.625 2.265625 0.625q1.484375 0 2.515625 -0.859375q1.03125 -0.859375 1.390625 -2.546875zm3.9260864 4.6875l0 -13.359375l1.8125 0l7.015625 10.484375l0 -10.484375l1.6875 0l0 13.359375l-1.8125 0l-7.015625 -10.5l0 10.5l-1.6875 0zm13.785431 0l0 -13.359375l1.765625 0l0 13.359375l-1.765625 0z"
       fill-rule="nonzero"
       id="path36" />
    <path
       fill="#000000"
       d="m239.70259 338.88168l0 -13.359375l4.609375 0q1.546875 0 2.375 0.203125q1.140625 0.25 1.953125 0.953125q1.0625 0.890625 1.578125 2.28125q0.53125 1.390625 0.53125 3.171875q0 1.515625 -0.359375 2.703125q-0.359375 1.171875 -0.921875 1.9375q-0.546875 0.765625 -1.203125 1.21875q-0.65625 0.4375 -1.59375 0.671875q-0.9375 0.21875 -2.140625 0.21875l-4.828125 0zm1.765625 -1.578125l2.859375 0q1.3125 0 2.0625 -0.234375q0.75 -0.25 1.203125 -0.703125q0.625 -0.625 0.96875 -1.6875q0.359375 -1.0625 0.359375 -2.578125q0 -2.09375 -0.6875 -3.21875q-0.6875 -1.125 -1.671875 -1.5q-0.703125 -0.28125 -2.28125 -0.28125l-2.8125 0l0 10.203125zm17.816696 0.390625q-0.921875 0.765625 -1.765625 1.09375q-0.828125 0.3125 -1.796875 0.3125q-1.59375 0 -2.453125 -0.78125q-0.859375 -0.78125 -0.859375 -1.984375q0 -0.71875 0.328125 -1.296875q0.328125 -0.59375 0.84375 -0.9375q0.53125 -0.359375 1.1875 -0.546875q0.46875 -0.125 1.453125 -0.25q1.984375 -0.234375 2.921875 -0.5625q0.015625 -0.34375 0.015625 -0.421875q0 -1.0 -0.46875 -1.421875q-0.625 -0.546875 -1.875 -0.546875q-1.15625 0 -1.703125 0.40625q-0.546875 0.40625 -0.8125 1.421875l-1.609375 -0.21875q0.21875 -1.015625 0.71875 -1.640625q0.5 -0.640625 1.453125 -0.984375q0.953125 -0.34375 2.1875 -0.34375q1.25 0 2.015625 0.296875q0.78125 0.28125 1.140625 0.734375q0.375 0.4375 0.515625 1.109375q0.078125 0.421875 0.078125 1.515625l0 2.1875q0 2.28125 0.109375 2.890625q0.109375 0.59375 0.40625 1.15625l-1.703125 0q-0.265625 -0.515625 -0.328125 -1.1875zm-0.140625 -3.671875q-0.890625 0.375 -2.671875 0.625q-1.015625 0.140625 -1.4375 0.328125q-0.421875 0.1875 -0.65625 0.53125q-0.21875 0.34375 -0.21875 0.78125q0 0.65625 0.5 1.09375q0.5 0.4375 1.453125 0.4375q0.9375 0 1.671875 -0.40625q0.75 -0.421875 1.09375 -1.140625q0.265625 -0.5625 0.265625 -1.640625l0 -0.609375zm10.828857 1.75l1.6875 0.203125q-0.40625 1.484375 -1.484375 2.3125q-1.078125 0.8125 -2.765625 0.8125q-2.125 0 -3.375 -1.296875q-1.234375 -1.3125 -1.234375 -3.671875q0 -2.453125 1.25 -3.796875q1.265625 -1.34375 3.265625 -1.34375q1.9375 0 3.15625 1.328125q1.234375 1.3125 1.234375 3.703125q0 0.15625 0 0.4375l-7.21875 0q0.09375 1.59375 0.90625 2.453125q0.8125 0.84375 2.015625 0.84375q0.90625 0 1.546875 -0.46875q0.640625 -0.484375 1.015625 -1.515625zm-5.390625 -2.65625l5.40625 0q-0.109375 -1.21875 -0.625 -1.828125q-0.78125 -0.953125 -2.03125 -0.953125q-1.125 0 -1.90625 0.765625q-0.765625 0.75 -0.84375 2.015625zm9.141327 5.765625l0 -9.671875l1.46875 0l0 1.359375q0.453125 -0.71875 1.203125 -1.140625q0.765625 -0.4375 1.71875 -0.4375q1.078125 0 1.765625 0.453125q0.6875 0.4375 0.96875 1.234375q1.15625 -1.6875 2.984375 -1.6875q1.453125 0 2.21875 0.796875q0.78125 0.796875 0.78125 2.453125l0 6.640625l-1.640625 0l0 -6.09375q0 -0.984375 -0.15625 -1.40625q-0.15625 -0.4375 -0.578125 -0.703125q-0.421875 -0.265625 -0.984375 -0.265625q-1.015625 0 -1.6875 0.6875q-0.671875 0.671875 -0.671875 2.15625l0 5.625l-1.640625 0l0 -6.28125q0 -1.09375 -0.40625 -1.640625q-0.40625 -0.546875 -1.3125 -0.546875q-0.6875 0 -1.28125 0.359375q-0.59375 0.359375 -0.859375 1.0625q-0.25 0.703125 -0.25 2.03125l0 5.015625l-1.640625 0zm14.931427 -4.84375q0 -2.6875 1.484375 -3.96875q1.25 -1.078125 3.046875 -1.078125q2.0 0 3.265625 1.3125q1.265625 1.296875 1.265625 3.609375q0 1.859375 -0.5625 2.9375q-0.5625 1.0625 -1.640625 1.65625q-1.0625 0.59375 -2.328125 0.59375q-2.03125 0 -3.28125 -1.296875q-1.25 -1.3125 -1.25 -3.765625zm1.6875 0q0 1.859375 0.796875 2.796875q0.8125 0.921875 2.046875 0.921875q1.21875 0 2.03125 -0.921875q0.8125 -0.9375 0.8125 -2.84375q0 -1.796875 -0.8125 -2.71875q-0.8125 -0.921875 -2.03125 -0.921875q-1.234375 0 -2.046875 0.921875q-0.796875 0.90625 -0.796875 2.765625zm9.297607 4.84375l0 -9.671875l1.46875 0l0 1.375q1.0625 -1.59375 3.078125 -1.59375q0.875 0 1.609375 0.3125q0.734375 0.3125 1.09375 0.828125q0.375 0.5 0.515625 1.203125q0.09375 0.453125 0.09375 1.59375l0 5.953125l-1.640625 0l0 -5.890625q0 -1.0 -0.203125 -1.484375q-0.1875 -0.5 -0.671875 -0.796875q-0.484375 -0.296875 -1.140625 -0.296875q-1.046875 0 -1.8125 0.671875q-0.75 0.65625 -0.75 2.515625l0 5.28125l-1.640625 0zm9.985077 -4.296875l1.65625 -0.140625q0.125 1.0 0.546875 1.640625q0.4375 0.640625 1.34375 1.046875q0.921875 0.390625 2.0625 0.390625q1.0 0 1.78125 -0.296875q0.78125 -0.296875 1.15625 -0.8125q0.375 -0.53125 0.375 -1.15625q0 -0.625 -0.375 -1.09375q-0.359375 -0.46875 -1.1875 -0.796875q-0.546875 -0.203125 -2.390625 -0.640625q-1.828125 -0.453125 -2.5625 -0.84375q-0.96875 -0.5 -1.4375 -1.234375q-0.46875 -0.75 -0.46875 -1.671875q0 -1.0 0.578125 -1.875q0.578125 -0.890625 1.671875 -1.34375q1.109375 -0.453125 2.453125 -0.453125q1.484375 0 2.609375 0.484375q1.140625 0.46875 1.75 1.40625q0.609375 0.921875 0.65625 2.09375l-1.6875 0.125q-0.140625 -1.265625 -0.9375 -1.90625q-0.78125 -0.65625 -2.3125 -0.65625q-1.609375 0 -2.34375 0.59375q-0.734375 0.59375 -0.734375 1.421875q0 0.71875 0.53125 1.171875q0.5 0.46875 2.65625 0.96875q2.15625 0.484375 2.953125 0.84375q1.171875 0.53125 1.71875 1.359375q0.5625 0.828125 0.5625 1.90625q0 1.0625 -0.609375 2.015625q-0.609375 0.9375 -1.75 1.46875q-1.140625 0.515625 -2.578125 0.515625q-1.8125 0 -3.046875 -0.53125q-1.21875 -0.53125 -1.921875 -1.59375q-0.6875 -1.0625 -0.71875 -2.40625zm19.459198 1.1875l1.6875 0.203125q-0.40625 1.484375 -1.484375 2.3125q-1.078125 0.8125 -2.765625 0.8125q-2.125 0 -3.375 -1.296875q-1.234375 -1.3125 -1.234375 -3.671875q0 -2.453125 1.25 -3.796875q1.265625 -1.34375 3.265625 -1.34375q1.9375 0 3.15625 1.328125q1.234375 1.3125 1.234375 3.703125q0 0.15625 0 0.4375l-7.21875 0q0.09375 1.59375 0.90625 2.453125q0.8125 0.84375 2.015625 0.84375q0.90625 0 1.546875 -0.46875q0.640625 -0.484375 1.015625 -1.515625zm-5.390625 -2.65625l5.40625 0q-0.109375 -1.21875 -0.625 -1.828125q-0.78125 -0.953125 -2.03125 -0.953125q-1.125 0 -1.90625 0.765625q-0.765625 0.75 -0.84375 2.015625zm12.719482 4.296875l0.234375 1.453125q-0.6875 0.140625 -1.234375 0.140625q-0.890625 0 -1.390625 -0.28125q-0.484375 -0.28125 -0.6875 -0.734375q-0.203125 -0.46875 -0.203125 -1.9375l0 -5.578125l-1.203125 0l0 -1.265625l1.203125 0l0 -2.390625l1.625 -0.984375l0 3.375l1.65625 0l0 1.265625l-1.65625 0l0 5.671875q0 0.6875 0.078125 0.890625q0.09375 0.203125 0.28125 0.328125q0.203125 0.109375 0.578125 0.109375q0.265625 0 0.71875 -0.0625z"
       fill-rule="nonzero"
       id="path37" />
    <path
       fill="#000000"
       fill-opacity="0.0"
       d="m219.30971 321.87665l-78.99213 -8.566925"
       fill-rule="evenodd"
       id="path38" />
    <path
       stroke="#000000"
       stroke-width="1.0"
       stroke-linejoin="round"
       stroke-linecap="butt"
       stroke-dasharray="1.0,3.0"
       d="m219.30971 321.87665l-73.0271 -7.9200134"
       fill-rule="evenodd"
       id="path39" />
    <path
       fill="#000000"
       stroke="#000000"
       stroke-width="1.0"
       stroke-linecap="butt"
       d="m146.4607 312.31454l-4.689728 1.1528015l4.333557 2.1313782z"
       fill-rule="evenodd"
       id="path40" />
    <path
       fill="#000000"
       fill-opacity="0.0"
       d="m89.419945 267.68503l116.28347 -43.653534"
       fill-rule="evenodd"
       id="path41" />
    <path
       stroke="#000000"
       stroke-width="1.0"
       stroke-linejoin="round"
       stroke-linecap="butt"
       stroke-dasharray="1.0,3.0"
       d="m89.419945 267.68503l110.66624 -41.5448"
       fill-rule="evenodd"
       id="path42" />
    <path
       fill="#000000"
       stroke="#000000"
       stroke-width="1.0"
       stroke-linecap="butt"
       d="m200.6667 227.6866l3.6680756 -3.1413116l-4.8291016 0.048583984z"
       fill-rule="evenodd"
       id="path43" />
    <path
       fill="#000000"
       fill-opacity="0.0"
       d="m57.29134 223.5315l128.22047 0l0 48.472443l-128.22047 0z"
       fill-rule="evenodd"
       id="path44" />
    <path
       fill="#000000"
       fill-opacity="0.0"
       d="m66.291336 233.18822l108.05859 0l0 13.798828l-108.05859 0l0 -13.798828z"
       fill-rule="nonzero"
       id="path46" />
    <path
       fill="#000000"
       fill-opacity="0.0"
       d="m174.34993 233.18822l3.3339844 0l0 13.798828l-3.3339844 0l0 -13.798828z"
       fill-rule="nonzero"
       id="path48" />
    <path
       fill="#000000"
       fill-opacity="0.0"
       d="m66.291336 247.58821l56.027344 0l0 13.798843l-56.027344 0l0 -13.798843z"
       fill-rule="nonzero"
       id="path50" />
    <path
       fill="#000000"
       fill-opacity="0.0"
       d="m122.31868 247.58821l0 0l0 13.798843l0 0l0 -13.798843z"
       fill-rule="nonzero"
       id="path52" />
    <path
       fill="#000000"
       fill-opacity="0.0"
       d="m156.85587 313.30972l72.409454 0l0 33.921234l-72.409454 0z"
       fill-rule="evenodd"
       id="path53" />
    <path
       fill="#000000"
       fill-opacity="0.0"
       d="m206.15486 53.745407l0 122.267715"
       fill-rule="evenodd"
       id="path55" />
    <path
       stroke="#000000"
       stroke-width="1.0"
       stroke-linejoin="round"
       stroke-linecap="butt"
       stroke-dasharray="1.0,3.0"
       d="m206.15486 53.745407l0 116.267715"
       fill-rule="evenodd"
       id="path56" />
    <path
       fill="#000000"
       stroke="#000000"
       stroke-width="1.0"
       stroke-linecap="butt"
       d="m204.50313 170.01312l1.6517334 4.538101l1.6517334 -4.538101z"
       fill-rule="evenodd"
       id="path57" />
    <text
       xml:space="preserve"
       style="font-size:18.6667px;font-family:'Open Sans';-inkscape-font-specification:'Open Sans';text-align:center;text-anchor:middle;fill:#1a1a1a;stroke:#000000;stroke-width:0"
       x="57.232548"
       y="44.446552"
       id="text57"><tspan
         sodipodi:role="line"
         id="tspan57"
         x="57.232548"
         y="44.446552">集群</tspan></text>
    <text
       xml:space="preserve"
       style="font-size:18.6667px;font-family:'Open Sans';-inkscape-font-specification:'Open Sans';text-align:center;text-anchor:middle;fill:#1a1a1a;stroke:#000000;stroke-width:0"
       x="58.695869"
       y="107.34824"
       id="text57-2"><tspan
         sodipodi:role="line"
         id="tspan57-7"
         x="58.695869"
         y="107.34824">节点</tspan></text>
    <text
       xml:space="preserve"
       style="font-size:12px;font-family:'Open Sans';-inkscape-font-specification:'Open Sans';text-align:center;text-anchor:middle;fill:#1a1a1a;stroke:#000000;stroke-width:0"
       x="140.06618"
       y="112.85991"
       id="text57-2-9"><tspan
         sodipodi:role="line"
         id="tspan57-7-5"
         x="140.06618"
         y="112.85991"
         style="font-size:12px">应用程序</tspan><tspan
         sodipodi:role="line"
         x="140.06618"
         y="127.96444"
         style="font-size:12px"
         id="tspan63">命名空间</tspan></text>
    <text
       xml:space="preserve"
       style="font-size:12px;font-family:'Open Sans';-inkscape-font-specification:'Open Sans';text-align:center;text-anchor:middle;fill:#1a1a1a;stroke:#000000;stroke-width:0"
       x="172.91527"
       y="333.22232"
       id="text57-2-9-8"><tspan
         sodipodi:role="line"
         x="172.91527"
         y="333.22232"
         style="font-size:12px"
         id="tspan63-2">安装</tspan></text>
    <text
       xml:space="preserve"
       style="font-size:12px;font-family:'Open Sans';-inkscape-font-specification:'Open Sans';text-align:center;text-anchor:middle;fill:#1a1a1a;stroke:#000000;stroke-width:0"
       x="84.619125"
       y="258.92209"
       id="text57-2-9-8-5"><tspan
         sodipodi:role="line"
         x="84.619125"
         y="258.92209"
         style="font-size:12px"
         id="tspan64">配置 Pod</tspan></text>
    <text
       xml:space="preserve"
       style="font-size:12px;font-family:'Open Sans';-inkscape-font-specification:'Open Sans';text-align:center;text-anchor:middle;fill:#1a1a1a;stroke:#000000;stroke-width:0"
       x="205.63988"
       y="160.4593"
       id="text57-2-9-8-5-6"><tspan
         sodipodi:role="line"
         x="205.63988"
         y="160.4593"
         style="font-size:12px"
         id="tspan64-8">用户 Pod</tspan></text>
    <text
       xml:space="preserve"
       style="font-size:16px;font-family:'Open Sans';-inkscape-font-specification:'Open Sans';text-align:center;text-anchor:middle;fill:#1a1a1a;stroke:#000000;stroke-width:0"
       x="203.53239"
       y="201.27951"
       id="text57-2-9-8-5-6-1"><tspan
         sodipodi:role="line"
         x="203.53239"
         y="201.27951"
         id="tspan64-8-0"
         style="font-size:16px">Sidecar 代理</tspan></text>
    <text
       xml:space="preserve"
       style="font-size:12px;font-family:'Open Sans';-inkscape-font-specification:'Open Sans';text-align:center;text-anchor:middle;fill:#1a1a1a;stroke:#000000;stroke-width:0"
       x="141.61328"
       y="259.84048"
       id="text57-2-9-8-5-0"><tspan
         sodipodi:role="line"
         x="141.61328"
         y="259.84048"
         style="font-size:12px"
         id="tspan64-2">流量重定向</tspan></text>
    <text
       xml:space="preserve"
       style="font-size:18.6667px;font-family:'Open Sans';-inkscape-font-specification:'Open Sans';text-align:center;text-anchor:middle;fill:#1a1a1a;stroke:#000000;stroke-width:0"
       x="84.870514"
       y="294.24756"
       id="text57-2-6"><tspan
         sodipodi:role="line"
         id="tspan57-7-2"
         x="84.870514"
         y="294.24756"
         style="font-style:normal;font-variant:normal;font-weight:normal;font-stretch:normal;font-family:Arial;-inkscape-font-specification:Arial">CNI<tspan
   style="font-style:normal;font-variant:normal;font-weight:normal;font-stretch:normal;font-family:'Open Sans';-inkscape-font-specification:'Open Sans'"
   id="tspan58"></tspan></tspan><tspan
         sodipodi:role="line"
         x="84.870514"
         y="317.75107"
         style="font-style:normal;font-variant:normal;font-weight:normal;font-stretch:normal;font-family:Arial;-inkscape-font-specification:Arial"
         id="tspan59"><tspan
           style="font-style:normal;font-variant:normal;font-weight:normal;font-stretch:normal;font-family:'Open Sans';-inkscape-font-specification:'Open Sans'"
           id="tspan60">网络</tspan></tspan><tspan
         sodipodi:role="line"
         x="84.870514"
         y="341.25458"
         style="font-style:normal;font-variant:normal;font-weight:normal;font-stretch:normal;font-family:Arial;-inkscape-font-specification:Arial"
         id="tspan61"><tspan
           style="font-style:normal;font-variant:normal;font-weight:normal;font-stretch:normal;font-family:'Open Sans';-inkscape-font-specification:'Open Sans'"
           id="tspan62">插件</tspan></tspan></text>
  </g>
</svg>
