<svg xmlns="http://www.w3.org/2000/svg" viewBox="0 0 965 346"><defs><style>.cls-1,.cls-10,.cls-11,.cls-13,.cls-2,.cls-6,.cls-8,.cls-9{fill:none;}.cls-1,.cls-10,.cls-2{stroke:#466bb0;}.cls-1,.cls-10,.cls-11,.cls-13,.cls-2,.cls-6,.cls-8{stroke-linejoin:round;}.cls-1{stroke-dasharray:9.99 9.99;}.cls-11,.cls-2,.cls-9{stroke-linecap:round;}.cls-10,.cls-11,.cls-13,.cls-2{stroke-width:4px;}.cls-3{fill:#466bb0;}.cls-4{fill:#e6e6e6;}.cls-5{fill:#fff;}.cls-6{stroke:#e905ee;stroke-width:3px;}.cls-7{fill:#757575;}.cls-8,.cls-9{stroke:#fff;stroke-width:2px;}.cls-9{stroke-miterlimit:10;}.cls-11,.cls-13{stroke:gray;}.cls-12{fill:gray;}</style></defs><title>net-config-1</title><g id="Basic-Mesh"><rect class="cls-1" x="153.5" y="31.64" width="704" height="313.86" rx="10" ry="10"/><path d="M154.18,2.27h1.34V13.73h-1.34Z"/><path d="M158.47,13.37a3.38,3.38,0,0,1-1.25-1.58l1.22-.54a2.38,2.38,0,0,0,.9,1.13,2.3,2.3,0,0,0,1.32.4,2.57,2.57,0,0,0,1.31-.31,1,1,0,0,0,.55-.89,1,1,0,0,0-.44-.82,3.88,3.88,0,0,0-1.36-.54l-1-.25a3.53,3.53,0,0,1-1.6-.82,2,2,0,0,1-.62-1.49,2,2,0,0,1,.42-1.24,2.8,2.8,0,0,1,1.13-.82,4,4,0,0,1,1.52-.29,3.86,3.86,0,0,1,1.91.47,2.61,2.61,0,0,1,1.19,1.29l-1.18.55a2,2,0,0,0-1.94-1.09,2.15,2.15,0,0,0-1.17.31.91.91,0,0,0-.51.79.89.89,0,0,0,.36.73,2.72,2.72,0,0,0,1,.46l1.19.3a3.8,3.8,0,0,1,1.8.9,2,2,0,0,1,.61,1.47,2.11,2.11,0,0,1-.43,1.32,2.73,2.73,0,0,1-1.17.87,4.26,4.26,0,0,1-1.63.3A3.74,3.74,0,0,1,158.47,13.37Z"/><path d="M167.52,13.82a2,2,0,0,1-.71-.44,1.83,1.83,0,0,1-.48-.72,2.63,2.63,0,0,1-.16-1V6.8h-1.43V5.57h1.43V3.26h1.35V5.57h2V6.8h-2v4.55a1.65,1.65,0,0,0,.26,1,1.09,1.09,0,0,0,.88.36,1.68,1.68,0,0,0,.9-.27v1.33a3.11,3.11,0,0,1-.49.16,3.77,3.77,0,0,1-.63,0A2.51,2.51,0,0,1,167.52,13.82Z"/><path d="M171.35,3.79a1,1,0,0,1,0-1.37,1,1,0,0,1,1.37,0,.9.9,0,0,1,.29.68,1,1,0,0,1-1.66.69Zm0,1.78h1.35v8.16h-1.35Z"/><path d="M176.37,13.41a4,4,0,0,1-1.49-1.57,4.5,4.5,0,0,1-.54-2.19,4.5,4.5,0,0,1,.54-2.19,3.89,3.89,0,0,1,1.49-1.57,4.31,4.31,0,0,1,4.32,0,4,4,0,0,1,1.5,1.57,4.49,4.49,0,0,1,.53,2.19,4.49,4.49,0,0,1-.53,2.19,4.26,4.26,0,0,1-5.82,1.57Zm3.56-1a2.77,2.77,0,0,0,1-1.08,3.35,3.35,0,0,0,.39-1.65A3.35,3.35,0,0,0,181,8a2.77,2.77,0,0,0-2.44-1.46,2.81,2.81,0,0,0-1.41.38,2.77,2.77,0,0,0-1,1.08,3.25,3.25,0,0,0-.4,1.65,3.25,3.25,0,0,0,.4,1.65,2.77,2.77,0,0,0,1,1.08,2.8,2.8,0,0,0,1.41.37A2.74,2.74,0,0,0,179.93,12.38Z"/><path d="M188.29,2.27h2l3.65,9.39H194l3.65-9.39h2V13.73h-1.35V6.45l.07-2.18h-.07l-3.74,9.46h-1.12l-3.74-9.46h-.07l.07,2.18v7.28h-1.35Z"/><path d="M203.41,13.42A3.85,3.85,0,0,1,202,11.88a4.75,4.75,0,0,1-.52-2.22,4.93,4.93,0,0,1,.49-2.17,4,4,0,0,1,1.39-1.59,3.7,3.7,0,0,1,2.08-.59,3.91,3.91,0,0,1,2.08.54,3.65,3.65,0,0,1,1.35,1.48,4.83,4.83,0,0,1,.47,2.16,1.58,1.58,0,0,1-.05.41H202.8a3.37,3.37,0,0,0,.45,1.57,2.6,2.6,0,0,0,1,1,2.68,2.68,0,0,0,1.29.32A2.65,2.65,0,0,0,208,11.28l1.15.56a4.17,4.17,0,0,1-1.43,1.57,4,4,0,0,1-2.18.57A3.93,3.93,0,0,1,203.41,13.42Zm4.45-4.64a2.62,2.62,0,0,0-.29-1,2.14,2.14,0,0,0-.81-.86,2.46,2.46,0,0,0-1.38-.36,2.29,2.29,0,0,0-1.62.62,2.93,2.93,0,0,0-.88,1.62Z"/><path d="M211.62,13.37a3.38,3.38,0,0,1-1.25-1.58l1.22-.54a2.38,2.38,0,0,0,.9,1.13,2.3,2.3,0,0,0,1.32.4,2.57,2.57,0,0,0,1.31-.31,1,1,0,0,0,.55-.89,1,1,0,0,0-.43-.82,4.06,4.06,0,0,0-1.36-.54l-1-.25a3.53,3.53,0,0,1-1.6-.82,2,2,0,0,1-.62-1.49,2,2,0,0,1,.42-1.24,2.8,2.8,0,0,1,1.13-.82,4,4,0,0,1,1.52-.29,3.86,3.86,0,0,1,1.91.47,2.68,2.68,0,0,1,1.2,1.29l-1.19.55a2,2,0,0,0-1.93-1.09,2.19,2.19,0,0,0-1.18.31.9.9,0,0,0-.5.79.88.88,0,0,0,.35.73,2.72,2.72,0,0,0,1.05.46l1.19.3a3.89,3.89,0,0,1,1.81.9,2,2,0,0,1,.6,1.47,2.11,2.11,0,0,1-.43,1.32,2.73,2.73,0,0,1-1.17.87,4.26,4.26,0,0,1-1.63.3A3.74,3.74,0,0,1,211.62,13.37Z"/><path d="M218.53,2.27h1.36V5.65l-.06,1.12h.06a2.68,2.68,0,0,1,1.07-1,3.1,3.1,0,0,1,1.59-.42,2.9,2.9,0,0,1,2.27.87,3.37,3.37,0,0,1,.78,2.32v5.23h-1.36v-5a2.12,2.12,0,0,0-.56-1.63,2,2,0,0,0-1.45-.53,2,2,0,0,0-1.18.39,2.64,2.64,0,0,0-.85,1,2.86,2.86,0,0,0-.31,1.26v4.55h-1.36Z"/><line class="cls-2" x1="690.57" y1="300" x2="825.43" y2="300"/><polygon class="cls-3" points="698.54 306.78 691.75 300 698.54 293.22 692.78 293.22 686 300 692.78 306.78 698.54 306.78"/><polygon class="cls-3" points="817.46 306.78 824.25 300 817.46 293.22 823.22 293.22 830 300 823.22 306.78 817.46 306.78"/><path d="M672.1,326.47a5.66,5.66,0,0,1-2.14-2.15,6.35,6.35,0,0,1,0-6.1,5.66,5.66,0,0,1,2.14-2.15,5.94,5.94,0,0,1,3-.78,5.48,5.48,0,0,1,2.34.49,5.32,5.32,0,0,1,1.85,1.38l-1,.94A4.38,4.38,0,0,0,676.9,317a4.16,4.16,0,0,0-1.78-.37,4.62,4.62,0,0,0-2.29.59,4.36,4.36,0,0,0-1.65,1.65,5.17,5.17,0,0,0,0,4.91,4.36,4.36,0,0,0,1.65,1.65,4.61,4.61,0,0,0,2.29.58,4.49,4.49,0,0,0,3.54-1.71l1,1a5.71,5.71,0,0,1-2,1.49,6.15,6.15,0,0,1-5.58-.23Z"/><path d="M682.61,326.68a4,4,0,0,1-1.5-1.57,4.79,4.79,0,0,1,0-4.38,4,4,0,0,1,1.5-1.57,4.31,4.31,0,0,1,4.32,0,4,4,0,0,1,1.49,1.57,4.71,4.71,0,0,1,0,4.38,4,4,0,0,1-1.49,1.57,4.31,4.31,0,0,1-4.32,0Zm3.56-1a2.77,2.77,0,0,0,1-1.08,3.69,3.69,0,0,0,0-3.3,2.77,2.77,0,0,0-1-1.08,2.74,2.74,0,0,0-1.4-.37,2.8,2.8,0,0,0-1.41.37,2.73,2.73,0,0,0-1.05,1.08,3.69,3.69,0,0,0,0,3.3,2.73,2.73,0,0,0,1.05,1.08,2.8,2.8,0,0,0,1.41.37A2.74,2.74,0,0,0,686.17,325.65Z"/><path d="M690.38,318.84h1.3V320h.06a2.76,2.76,0,0,1,1.08-1,3.11,3.11,0,0,1,1.56-.43,2.87,2.87,0,0,1,2.25.86,3.33,3.33,0,0,1,.78,2.33V327h-1.36v-5a2.15,2.15,0,0,0-.55-1.65,2.06,2.06,0,0,0-1.48-.51,2,2,0,0,0-1.18.36,2.47,2.47,0,0,0-.81,1,2.91,2.91,0,0,0-.29,1.26V327h-1.36Z"/><path d="M700.14,320.07h-1.5v-1.23h1.5V318a2.46,2.46,0,0,1,.36-1.34,2.3,2.3,0,0,1,.94-.89,2.72,2.72,0,0,1,1.31-.31,3.36,3.36,0,0,1,1.2.19v1.33a5,5,0,0,0-.54-.19,2.18,2.18,0,0,0-.61-.07,1.25,1.25,0,0,0-.91.38,1.38,1.38,0,0,0-.39,1v.74h5.06V327h-1.34v-6.93H701.5V327h-1.36Zm5.06-2.94a1,1,0,0,1,.69-1.67,1,1,0,0,1,.69.29,1,1,0,0,1,0,1.38.91.91,0,0,1-.69.29A.94.94,0,0,1,705.2,317.13Z"/><path d="M709.83,330a3.29,3.29,0,0,1-1.25-1.62l1.23-.52a2.4,2.4,0,0,0,.9,1.14,2.58,2.58,0,0,0,1.5.44,2.65,2.65,0,0,0,2-.71,2.75,2.75,0,0,0,.69-2v-.91h-.06a3,3,0,0,1-1.13,1,3.33,3.33,0,0,1-1.65.4,3.59,3.59,0,0,1-1.93-.55,3.92,3.92,0,0,1-1.39-1.54,5.2,5.2,0,0,1,0-4.49,4,4,0,0,1,1.39-1.55,3.59,3.59,0,0,1,1.93-.55,3.33,3.33,0,0,1,1.65.4,2.9,2.9,0,0,1,1.13,1h.06v-1.17h1.3v7.84a3.67,3.67,0,0,1-3.95,4A4,4,0,0,1,709.83,330Zm3.71-4.39a2.7,2.7,0,0,0,1-1.07,4,4,0,0,0,0-3.33,2.64,2.64,0,0,0-1-1.07,2.64,2.64,0,0,0-2.68,0,2.7,2.7,0,0,0-1,1.07,3.6,3.6,0,0,0-.36,1.66,3.67,3.67,0,0,0,.36,1.67,2.48,2.48,0,0,0,2.31,1.43A2.45,2.45,0,0,0,713.54,325.65Z"/><path d="M718.81,326.39A3.46,3.46,0,0,1,718,324v-5.14h1.36v4.93a2.38,2.38,0,0,0,.53,1.71,1.9,1.9,0,0,0,1.42.54,2.17,2.17,0,0,0,1.23-.36,2.56,2.56,0,0,0,.83-1,2.74,2.74,0,0,0,.3-1.25v-4.61h1.36V327h-1.3v-1.18h-.06a2.74,2.74,0,0,1-1.08,1,3.1,3.1,0,0,1-1.56.42A2.85,2.85,0,0,1,718.81,326.39Z"/><path d="M727.07,318.84h1.3v1.31h.06a2.22,2.22,0,0,1,.93-1.12,2.6,2.6,0,0,1,1.44-.45,2.35,2.35,0,0,1,1,.18v1.46a2.53,2.53,0,0,0-1.15-.26,1.85,1.85,0,0,0-1.09.34,2.39,2.39,0,0,0-.79.9,2.6,2.6,0,0,0-.3,1.23V327h-1.36Z"/><path d="M733.76,326.9a2.62,2.62,0,0,1-1.09-1,2.65,2.65,0,0,1-.38-1.4,2.39,2.39,0,0,1,1-2,4.07,4.07,0,0,1,2.47-.73,6,6,0,0,1,1.37.16,3.49,3.49,0,0,1,1,.37v-.49a1.84,1.84,0,0,0-.64-1.47,2.35,2.35,0,0,0-1.61-.55,2.73,2.73,0,0,0-1.27.3,2.32,2.32,0,0,0-.91.82l-1-.77a3.29,3.29,0,0,1,1.32-1.15,4.1,4.1,0,0,1,1.86-.42,3.71,3.71,0,0,1,2.62.88,3.07,3.07,0,0,1,1,2.37V327h-1.3v-1.17H738a2.87,2.87,0,0,1-1.06,1,3,3,0,0,1-1.58.42A3.46,3.46,0,0,1,733.76,326.9Zm3-1.2a2.65,2.65,0,0,0,.94-.94,2.44,2.44,0,0,0,.35-1.3,3.14,3.14,0,0,0-.94-.41,4.15,4.15,0,0,0-1.18-.16,2.62,2.62,0,0,0-1.69.46,1.48,1.48,0,0,0-.57,1.2,1.34,1.34,0,0,0,.51,1.09,2,2,0,0,0,1.3.42A2.43,2.43,0,0,0,736.77,325.7Z"/><path d="M743.72,326.83a2.85,2.85,0,0,1-1.11-1h-.07V327h-1.29V315.54h1.36v3.38l-.07,1.14h.07a2.82,2.82,0,0,1,1.11-1.05,3.35,3.35,0,0,1,1.67-.43,3.71,3.71,0,0,1,2,.56,3.93,3.93,0,0,1,1.4,1.56,5,5,0,0,1,0,4.45,4,4,0,0,1-1.4,1.55,3.71,3.71,0,0,1-2,.56A3.35,3.35,0,0,1,743.72,326.83Zm2.84-1.19a2.74,2.74,0,0,0,1-1.1,3.64,3.64,0,0,0,0-3.24,2.74,2.74,0,0,0-1-1.1,2.52,2.52,0,0,0-2.66,0,2.83,2.83,0,0,0-1,1.09,3.78,3.78,0,0,0,0,3.26,2.83,2.83,0,0,0,1,1.09,2.52,2.52,0,0,0,2.66,0Z"/><path d="M750.8,315.54h1.36V327H750.8Z"/><path d="M755.63,326.7a3.94,3.94,0,0,1-1.45-1.55,4.71,4.71,0,0,1-.52-2.21,5,5,0,0,1,.49-2.18,4,4,0,0,1,1.39-1.58,3.63,3.63,0,0,1,2.08-.6,3.91,3.91,0,0,1,2.08.54,3.65,3.65,0,0,1,1.35,1.48,4.83,4.83,0,0,1,.47,2.16,1.73,1.73,0,0,1,0,.42H755a3.37,3.37,0,0,0,.45,1.56,2.6,2.6,0,0,0,1,1,2.68,2.68,0,0,0,1.29.32,2.65,2.65,0,0,0,2.41-1.47l1.15.56a4.1,4.1,0,0,1-1.43,1.57,4.3,4.3,0,0,1-4.28,0Zm4.45-4.64a2.62,2.62,0,0,0-.29-1,2.14,2.14,0,0,0-.81-.86,2.46,2.46,0,0,0-1.38-.35,2.28,2.28,0,0,0-1.62.61,2.92,2.92,0,0,0-.88,1.63Z"/><path d="M769,327.09a2,2,0,0,1-1.19-1.15,2.69,2.69,0,0,1-.16-1v-4.87h-1.42v-1.23h1.42v-2.3H769v2.3h2v1.23h-2v4.55a1.57,1.57,0,0,0,.26,1,1.08,1.08,0,0,0,.88.36,1.65,1.65,0,0,0,.89-.27v1.33a2.16,2.16,0,0,1-.49.16,3.48,3.48,0,0,1-.63.05A2.51,2.51,0,0,1,769,327.09Z"/><path d="M772.67,318.84H774v1.31H774A2.22,2.22,0,0,1,775,319a2.6,2.6,0,0,1,1.44-.45,2.35,2.35,0,0,1,1,.18v1.46a2.56,2.56,0,0,0-1.15-.26,1.85,1.85,0,0,0-1.09.34,2.39,2.39,0,0,0-.79.9,2.6,2.6,0,0,0-.3,1.23V327h-1.36Z"/><path d="M779.36,326.9a2.62,2.62,0,0,1-1.09-1,2.65,2.65,0,0,1-.38-1.4,2.39,2.39,0,0,1,1-2,4.07,4.07,0,0,1,2.47-.73,5.92,5.92,0,0,1,1.37.16,3.49,3.49,0,0,1,1,.37v-.49a1.84,1.84,0,0,0-.64-1.47,2.35,2.35,0,0,0-1.61-.55,2.73,2.73,0,0,0-1.27.3,2.32,2.32,0,0,0-.91.82l-1-.77a3.29,3.29,0,0,1,1.32-1.15,4.1,4.1,0,0,1,1.86-.42,3.71,3.71,0,0,1,2.62.88,3.07,3.07,0,0,1,1,2.37V327h-1.3v-1.17h-.06a2.87,2.87,0,0,1-1.06,1,3,3,0,0,1-1.58.42A3.46,3.46,0,0,1,779.36,326.9Zm3-1.2a2.65,2.65,0,0,0,.94-.94,2.44,2.44,0,0,0,.35-1.3,3.14,3.14,0,0,0-.94-.41,4.15,4.15,0,0,0-1.18-.16,2.62,2.62,0,0,0-1.69.46,1.48,1.48,0,0,0-.57,1.2,1.34,1.34,0,0,0,.51,1.09,2,2,0,0,0,1.3.42A2.43,2.43,0,0,0,782.37,325.7Z"/><path d="M787.63,320.07h-1.5v-1.23h1.5V318a2.55,2.55,0,0,1,.35-1.34,2.39,2.39,0,0,1,.95-.89,2.72,2.72,0,0,1,1.31-.31,3.36,3.36,0,0,1,1.2.19v1.33a5,5,0,0,0-.54-.19,2.22,2.22,0,0,0-.61-.07,1.25,1.25,0,0,0-.91.38,1.38,1.38,0,0,0-.39,1v.74h3.71V318a2.55,2.55,0,0,1,.35-1.34,2.3,2.3,0,0,1,.94-.89,2.79,2.79,0,0,1,1.32-.31,3.51,3.51,0,0,1,1.2.19v1.33a5,5,0,0,0-.57-.2,2.52,2.52,0,0,0-.6-.06,1.27,1.27,0,0,0-.91.38,1.41,1.41,0,0,0-.38,1v.74h5.05V327h-1.34v-6.93h-3.71V327H792.7v-6.93H789V327h-1.36Zm10.11-2.93a.93.93,0,0,1-.28-.68.94.94,0,0,1,.28-.7,1,1,0,0,1,.69-.28.94.94,0,0,1,.7.28,1,1,0,0,1,.28.7,1,1,0,0,1-.28.68.91.91,0,0,1-.7.29A.94.94,0,0,1,797.74,317.14Z"/><path d="M802.74,326.69a4.08,4.08,0,0,1-1.48-1.55,5,5,0,0,1,0-4.44,4,4,0,0,1,1.48-1.56,4.09,4.09,0,0,1,2.12-.56,3.91,3.91,0,0,1,2.24.62,3.35,3.35,0,0,1,1.28,1.64l-1.23.51a2.36,2.36,0,0,0-.9-1.14,2.6,2.6,0,0,0-1.45-.39,2.46,2.46,0,0,0-1.34.39,2.78,2.78,0,0,0-1,1.09,3.64,3.64,0,0,0,0,3.24,2.78,2.78,0,0,0,1,1.09,2.46,2.46,0,0,0,1.34.39,2.68,2.68,0,0,0,1.49-.4,2.43,2.43,0,0,0,.93-1.13l1.21.51a3.59,3.59,0,0,1-1.33,1.63,3.88,3.88,0,0,1-2.24.63A4,4,0,0,1,802.74,326.69Z"/><path d="M813.62,318.84h1.29v1.31H815a2.25,2.25,0,0,1,.92-1.12,2.6,2.6,0,0,1,1.44-.45,2.28,2.28,0,0,1,1,.18v1.46a2.53,2.53,0,0,0-1.15-.26,1.87,1.87,0,0,0-1.09.34,2.39,2.39,0,0,0-.79.9,2.59,2.59,0,0,0-.29,1.23V327h-1.36Z"/><path d="M820.33,326.39a3.46,3.46,0,0,1-.78-2.41v-5.14h1.36v4.93a2.38,2.38,0,0,0,.53,1.71,1.9,1.9,0,0,0,1.42.54,2.17,2.17,0,0,0,1.23-.36,2.56,2.56,0,0,0,.83-1,2.74,2.74,0,0,0,.3-1.25v-4.61h1.36V327h-1.3v-1.18h-.06a2.81,2.81,0,0,1-1.08,1,3.1,3.1,0,0,1-1.56.42A2.85,2.85,0,0,1,820.33,326.39Z"/><path d="M828.59,315.54H830V327h-1.36Z"/><path d="M833.42,326.7a3.84,3.84,0,0,1-1.44-1.55,4.59,4.59,0,0,1-.52-2.21,4.94,4.94,0,0,1,.48-2.18,4,4,0,0,1,1.39-1.58,3.65,3.65,0,0,1,2.08-.6,3.91,3.91,0,0,1,2.08.54,3.58,3.58,0,0,1,1.35,1.48,4.83,4.83,0,0,1,.47,2.16,1.34,1.34,0,0,1,0,.42h-6.44a3.25,3.25,0,0,0,.44,1.56,2.6,2.6,0,0,0,1,1,2.68,2.68,0,0,0,1.29.32,2.65,2.65,0,0,0,2.41-1.47l1.16.56a4.12,4.12,0,0,1-1.44,1.57,4.3,4.3,0,0,1-4.28,0Zm4.45-4.64a2.62,2.62,0,0,0-.29-1,2.19,2.19,0,0,0-.8-.86,2.5,2.5,0,0,0-1.39-.35,2.28,2.28,0,0,0-1.62.61,2.91,2.91,0,0,0-.87,1.63Z"/><path d="M841.63,326.64a3.38,3.38,0,0,1-1.25-1.58l1.22-.54a2.45,2.45,0,0,0,.9,1.14,2.38,2.38,0,0,0,1.32.4,2.61,2.61,0,0,0,1.32-.32,1,1,0,0,0,.11-1.71,4,4,0,0,0-1.36-.53l-1-.26a3.48,3.48,0,0,1-1.6-.82,1.91,1.91,0,0,1-.63-1.48,1.89,1.89,0,0,1,.43-1.24,2.64,2.64,0,0,1,1.12-.83,4,4,0,0,1,1.52-.29,3.9,3.9,0,0,1,1.92.47,2.65,2.65,0,0,1,1.19,1.29l-1.19.55a2,2,0,0,0-1.93-1.09,2.19,2.19,0,0,0-1.18.31.92.92,0,0,0-.5.79.89.89,0,0,0,.35.73,2.77,2.77,0,0,0,1.06.46l1.18.3a3.9,3.9,0,0,1,1.81.91,2,2,0,0,1,.61,1.46,2.12,2.12,0,0,1-.44,1.32,2.64,2.64,0,0,1-1.16.87,4.35,4.35,0,0,1-1.64.31A3.75,3.75,0,0,1,841.63,326.64Z"/><rect class="cls-4" x="200" y="219" width="126" height="108" rx="3" ry="3"/><rect class="cls-5" x="209" y="291" width="108" height="27" rx="3" ry="3"/><path d="M223.19,308.85a3.61,3.61,0,0,1-1.35-2l1.14-.46a3,3,0,0,0,.88,1.47,2.2,2.2,0,0,0,1.51.57,2.33,2.33,0,0,0,1.47-.47,1.53,1.53,0,0,0,.6-1.28,1.46,1.46,0,0,0-.51-1.15,4.83,4.83,0,0,0-1.67-.85l-.63-.23a5,5,0,0,1-1.74-1,2.19,2.19,0,0,1-.67-1.71,2.4,2.4,0,0,1,.39-1.32,2.74,2.74,0,0,1,1.1-1,3.21,3.21,0,0,1,1.56-.37,3.36,3.36,0,0,1,1.51.32,3.13,3.13,0,0,1,1,.79,2.83,2.83,0,0,1,.54.91l-1.12.47a1.85,1.85,0,0,0-.63-.93,2,2,0,0,0-1.31-.42,2,2,0,0,0-1.32.43,1.35,1.35,0,0,0-.55,1.09,1.18,1.18,0,0,0,.47,1,4.42,4.42,0,0,0,1.4.69l.65.23a5.53,5.53,0,0,1,2,1.15,2.51,2.51,0,0,1,.72,1.89,2.63,2.63,0,0,1-.5,1.62,3,3,0,0,1-1.25,1,4.2,4.2,0,0,1-1.56.3A3.53,3.53,0,0,1,223.19,308.85Z"/><path d="M231.5,309.07a3.29,3.29,0,0,1-1.26-1.35,4,4,0,0,1-.46-1.94,4.18,4.18,0,0,1,.43-1.9,3.47,3.47,0,0,1,1.21-1.39,3.26,3.26,0,0,1,1.82-.51,3.36,3.36,0,0,1,1.82.47,3.07,3.07,0,0,1,1.18,1.29,4.11,4.11,0,0,1,.41,1.89,1.28,1.28,0,0,1,0,.36H231a2.91,2.91,0,0,0,.39,1.38,2.38,2.38,0,0,0,.89.84,2.52,2.52,0,0,0,1.13.28,2.32,2.32,0,0,0,2.11-1.29l1,.49a3.68,3.68,0,0,1-1.25,1.37,3.8,3.8,0,0,1-3.75,0Zm3.9-4.06a2.37,2.37,0,0,0-.26-.89,2,2,0,0,0-.7-.76,2.29,2.29,0,0,0-1.21-.31,2,2,0,0,0-1.43.54A2.66,2.66,0,0,0,231,305Z"/><path d="M238,302.2h1.13v1.15h.06a2,2,0,0,1,.81-1,2.28,2.28,0,0,1,1.26-.39,2.1,2.1,0,0,1,.84.15v1.27a2.21,2.21,0,0,0-1-.22,1.71,1.71,0,0,0-.95.29,2.15,2.15,0,0,0-.69.8,2.32,2.32,0,0,0-.26,1.07v4H238Z"/><path d="M242.74,302.2H244l2.21,5.74h0l2.24-5.74h1.24l-2.91,7.14h-1.2Z"/><path d="M250.82,300.65a.82.82,0,0,1-.25-.61.78.78,0,0,1,.25-.59.86.86,0,0,1,1.21,0,.84.84,0,0,1,0,1.2.83.83,0,0,1-.61.25A.86.86,0,0,1,250.82,300.65Zm0,1.55H252v7.14h-1.17Z"/><path d="M255.19,309.07a3.52,3.52,0,0,1-1.29-1.36,4.34,4.34,0,0,1,0-3.89,3.42,3.42,0,0,1,1.29-1.35,3.54,3.54,0,0,1,1.86-.49,3.47,3.47,0,0,1,2,.53,3,3,0,0,1,1.12,1.44l-1.08.45a2,2,0,0,0-.79-1,2.25,2.25,0,0,0-1.26-.35,2.17,2.17,0,0,0-1.18.35,2.45,2.45,0,0,0-.87,1,3.18,3.18,0,0,0,0,2.82,2.45,2.45,0,0,0,.87,1,2.17,2.17,0,0,0,1.18.35,2.41,2.41,0,0,0,1.3-.35,2.18,2.18,0,0,0,.81-1l1.06.45A3.17,3.17,0,0,1,259,309a3.45,3.45,0,0,1-2,.54A3.54,3.54,0,0,1,255.19,309.07Z"/><path d="M262.74,309.07a3.31,3.31,0,0,1-1.27-1.35,4.12,4.12,0,0,1-.46-1.94,4.31,4.31,0,0,1,.43-1.9,3.55,3.55,0,0,1,1.21-1.39,3.28,3.28,0,0,1,1.82-.51,3.36,3.36,0,0,1,1.82.47,3.09,3.09,0,0,1,1.19,1.29,4.24,4.24,0,0,1,.41,1.89,1.79,1.79,0,0,1,0,.36H262.2a2.8,2.8,0,0,0,.4,1.38,2.31,2.31,0,0,0,.89.84,2.44,2.44,0,0,0,1.12.28,2.33,2.33,0,0,0,2.12-1.29l1,.49a3.52,3.52,0,0,1-1.25,1.37,3.78,3.78,0,0,1-3.74,0Zm3.89-4.06a2.35,2.35,0,0,0-.25-.89,2,2,0,0,0-.71-.76,2.26,2.26,0,0,0-1.21-.31,2,2,0,0,0-1.42.54,2.67,2.67,0,0,0-.77,1.42Z"/><path d="M273.87,309.07a3.25,3.25,0,0,1-1.27-1.35,4.12,4.12,0,0,1-.46-1.94,4.31,4.31,0,0,1,.43-1.9,3.55,3.55,0,0,1,1.21-1.39,3.26,3.26,0,0,1,1.82-.51,3.36,3.36,0,0,1,1.82.47,3,3,0,0,1,1.18,1.29,4.11,4.11,0,0,1,.42,1.89,1.79,1.79,0,0,1,0,.36h-5.65a2.8,2.8,0,0,0,.4,1.38,2.31,2.31,0,0,0,.89.84,2.44,2.44,0,0,0,1.12.28,2.33,2.33,0,0,0,2.12-1.29l1,.49a3.52,3.52,0,0,1-1.25,1.37,3.78,3.78,0,0,1-3.74,0Zm3.89-4.06a2.35,2.35,0,0,0-.25-.89,2,2,0,0,0-.71-.76,2.26,2.26,0,0,0-1.21-.31,2,2,0,0,0-1.42.54,2.67,2.67,0,0,0-.77,1.42Z"/><path d="M280.4,302.2h1.14v1.05h0a2.41,2.41,0,0,1,.94-.9,2.69,2.69,0,0,1,1.37-.37,2.55,2.55,0,0,1,2,.74,2.94,2.94,0,0,1,.68,2v4.58h-1.19v-4.4a1.89,1.89,0,0,0-.48-1.44,1.8,1.8,0,0,0-1.3-.45,1.73,1.73,0,0,0-1,.33,2.06,2.06,0,0,0-.7.84,2.5,2.5,0,0,0-.26,1.1v4H280.4Z"/><path d="M289.85,309.42a1.8,1.8,0,0,1-.63-.38,1.93,1.93,0,0,1-.42-.63,2.48,2.48,0,0,1-.14-.87v-4.26h-1.24V302.2h1.24v-2h1.19v2h1.74v1.08h-1.74v4a1.4,1.4,0,0,0,.23.88.94.94,0,0,0,.77.32,1.43,1.43,0,0,0,.78-.24v1.16a1.73,1.73,0,0,1-.42.14,2.92,2.92,0,0,1-.56,0A2.07,2.07,0,0,1,289.85,309.42Z"/><path d="M293,302.2h1.14v1.15h.05a2,2,0,0,1,.81-1,2.3,2.3,0,0,1,1.26-.39,2.1,2.1,0,0,1,.84.15v1.27a2.19,2.19,0,0,0-1-.22,1.72,1.72,0,0,0-1,.29,2.15,2.15,0,0,0-.69.8,2.32,2.32,0,0,0-.26,1.07v4H293Z"/><path d="M300.77,308.89l-2.95-6.69h1.29l2.24,5.31h0l2.15-5.31h1.29l-4.41,10.16h-1.23Z"/><rect class="cls-5" x="236" y="228" width="54" height="54" rx="3" ry="3"/><polygon class="cls-6" points="276.26 262.65 276.26 247.35 263 239.7 249.74 247.35 249.74 262.65 263 270.3 276.26 262.65"/><rect class="cls-4" x="803" y="56.86" width="108" height="108" rx="3" ry="3"/><rect class="cls-5" x="812" y="128.86" width="90" height="27" rx="3" ry="3"/><path d="M837.32,137.17h5.8v1.14h-4.63v3.32h4.18v1.12h-4.18v3.31h4.63v1.14h-5.8Z"/><path d="M845.71,149.86a2.94,2.94,0,0,1-1.1-1.42l1.08-.46a2.1,2.1,0,0,0,.79,1,2.23,2.23,0,0,0,1.31.39,2.32,2.32,0,0,0,1.72-.62,2.43,2.43,0,0,0,.61-1.76v-.8h-.06a2.6,2.6,0,0,1-1,.89,3,3,0,0,1-1.45.34,3.07,3.07,0,0,1-1.68-.48,3.44,3.44,0,0,1-1.22-1.34,4.61,4.61,0,0,1,0-3.93,3.4,3.4,0,0,1,1.22-1.35,3.15,3.15,0,0,1,3.13-.14,2.55,2.55,0,0,1,1,.9h.06v-1h1.13v6.86a3.45,3.45,0,0,1-1,2.62,3.94,3.94,0,0,1-4.59.32ZM849,146a2.33,2.33,0,0,0,.84-.94,3.13,3.13,0,0,0,.32-1.45,3.19,3.19,0,0,0-.32-1.47,2.2,2.2,0,0,0-2-1.25,2.15,2.15,0,0,0-1.17.33,2.29,2.29,0,0,0-.85.94,3.45,3.45,0,0,0,0,2.9,2.17,2.17,0,0,0,.85.94,2.15,2.15,0,0,0,1.17.32A2.23,2.23,0,0,0,849,146Z"/><path d="M853,140.06h1.14v1.15h.05a1.91,1.91,0,0,1,.81-1,2.26,2.26,0,0,1,1.26-.4,1.94,1.94,0,0,1,.84.16v1.27a2.16,2.16,0,0,0-1-.22,1.72,1.72,0,0,0-1,.29,2.21,2.21,0,0,0-.69.79,2.36,2.36,0,0,0-.26,1.08v4H853Z"/><path d="M859.19,146.93a3.37,3.37,0,0,1-1.27-1.35,4.12,4.12,0,0,1-.46-1.94,4.31,4.31,0,0,1,.43-1.9,3.55,3.55,0,0,1,1.21-1.39,3.26,3.26,0,0,1,1.82-.52,3.45,3.45,0,0,1,1.82.47,3.18,3.18,0,0,1,1.19,1.3,4.24,4.24,0,0,1,.41,1.89,1.79,1.79,0,0,1,0,.36h-5.65a2.76,2.76,0,0,0,.4,1.37,2.17,2.17,0,0,0,.89.84,2.39,2.39,0,0,0,3.24-1l1,.49a3.59,3.59,0,0,1-1.25,1.37,3.53,3.53,0,0,1-1.91.5A3.44,3.44,0,0,1,859.19,146.93Zm3.89-4.06a2.25,2.25,0,0,0-.25-.89,1.91,1.91,0,0,0-.71-.76,2.18,2.18,0,0,0-1.21-.31,2,2,0,0,0-1.42.54,2.63,2.63,0,0,0-.77,1.42Z"/><path d="M866.37,146.88a2.88,2.88,0,0,1-1.09-1.38l1.06-.47a2.12,2.12,0,0,0,.79,1,2.08,2.08,0,0,0,1.16.35,2.26,2.26,0,0,0,1.14-.27.87.87,0,0,0,.1-1.5,3.52,3.52,0,0,0-1.19-.47l-.87-.22a3.11,3.11,0,0,1-1.4-.72,1.69,1.69,0,0,1-.54-1.3,1.67,1.67,0,0,1,.37-1.08,2.22,2.22,0,0,1,1-.72,3.57,3.57,0,0,1,3,.15,2.28,2.28,0,0,1,1,1.13l-1,.48a1.73,1.73,0,0,0-1.7-.95,2,2,0,0,0-1,.27.8.8,0,0,0-.44.69.77.77,0,0,0,.31.64,2.48,2.48,0,0,0,.92.4l1,.27a3.3,3.3,0,0,1,1.58.79,1.7,1.7,0,0,1,.53,1.28,1.84,1.84,0,0,1-.37,1.15,2.52,2.52,0,0,1-1,.77,3.78,3.78,0,0,1-1.42.26A3.25,3.25,0,0,1,866.37,146.88Z"/><path d="M873,146.88a2.94,2.94,0,0,1-1.09-1.38L873,145a2.12,2.12,0,0,0,.79,1,2.08,2.08,0,0,0,1.16.35,2.3,2.3,0,0,0,1.15-.27.86.86,0,0,0,.47-.78.83.83,0,0,0-.38-.72,3.43,3.43,0,0,0-1.19-.47l-.86-.22a3.06,3.06,0,0,1-1.4-.72,1.79,1.79,0,0,1-.18-2.38,2.28,2.28,0,0,1,1-.72,3.57,3.57,0,0,1,3,.15,2.28,2.28,0,0,1,1,1.13l-1,.48a1.72,1.72,0,0,0-1.7-.95,2,2,0,0,0-1,.27.78.78,0,0,0-.13,1.33,2.54,2.54,0,0,0,.93.4l1,.27a3.3,3.3,0,0,1,1.58.79,1.71,1.71,0,0,1,.54,1.28,1.85,1.85,0,0,1-.38,1.15,2.43,2.43,0,0,1-1,.77,3.87,3.87,0,0,1-1.43.26A3.25,3.25,0,0,1,873,146.88Z"/><rect class="cls-5" x="830" y="65.86" width="54" height="54" rx="3" ry="3"/><polygon class="cls-6" points="870.26 100.51 870.26 85.21 857 77.56 843.74 85.21 843.74 100.51 857 108.16 870.26 100.51"/><rect class="cls-4" x="2" y="219" width="134.9" height="72" rx="3" ry="3"/><rect class="cls-5" x="10.9" y="228" width="117" height="54" rx="3" ry="3"/><path d="M70.68,259.35a3.6,3.6,0,0,1-1.34-2l1.13-.46a3,3,0,0,0,.88,1.47,2.2,2.2,0,0,0,1.51.57,2.33,2.33,0,0,0,1.47-.47,1.54,1.54,0,0,0,.61-1.28,1.47,1.47,0,0,0-.52-1.16,4.92,4.92,0,0,0-1.67-.84l-.63-.23a4.89,4.89,0,0,1-1.73-1,2.2,2.2,0,0,1-.68-1.71,2.33,2.33,0,0,1,.4-1.32,2.71,2.71,0,0,1,1.09-1,3.25,3.25,0,0,1,1.57-.37,3.42,3.42,0,0,1,1.51.32,3.11,3.11,0,0,1,1.57,1.7l-1.12.47a1.94,1.94,0,0,0-.64-.93,2,2,0,0,0-1.31-.42,2.07,2.07,0,0,0-1.32.43,1.34,1.34,0,0,0-.54,1.09,1.17,1.17,0,0,0,.46,1,4.54,4.54,0,0,0,1.4.69l.66.23a5.61,5.61,0,0,1,2,1.15,2.53,2.53,0,0,1,.71,1.89,2.63,2.63,0,0,1-.5,1.62,3,3,0,0,1-1.25,1,4.15,4.15,0,0,1-1.55.3A3.54,3.54,0,0,1,70.68,259.35Z"/><path d="M79,259.57a3.25,3.25,0,0,1-1.27-1.35,4.12,4.12,0,0,1-.46-1.94,4.31,4.31,0,0,1,.43-1.9A3.55,3.55,0,0,1,78.91,253a3.26,3.26,0,0,1,1.82-.51,3.44,3.44,0,0,1,1.82.46,3.15,3.15,0,0,1,1.18,1.3,4.11,4.11,0,0,1,.42,1.89,1.79,1.79,0,0,1,0,.36H78.46a2.8,2.8,0,0,0,.4,1.38,2.35,2.35,0,0,0,.88.84,2.52,2.52,0,0,0,1.13.28A2.33,2.33,0,0,0,83,257.7l1,.49a3.52,3.52,0,0,1-1.25,1.37,3.78,3.78,0,0,1-3.74,0Zm3.89-4.06a2.49,2.49,0,0,0-.25-.89,2,2,0,0,0-.71-.76,2.26,2.26,0,0,0-1.21-.31,2,2,0,0,0-1.42.54,2.6,2.6,0,0,0-.77,1.42Z"/><path d="M85.53,252.7h1.14v1.15h0a1.92,1.92,0,0,1,.82-1,2.28,2.28,0,0,1,1.26-.39,2.17,2.17,0,0,1,.84.15v1.27a2.23,2.23,0,0,0-1-.22,1.66,1.66,0,0,0-.95.29,2.1,2.1,0,0,0-.7.8,2.32,2.32,0,0,0-.26,1.07v4H85.53Z"/><path d="M90.24,252.7h1.27l2.21,5.74h0L96,252.7h1.25l-2.91,7.14H93.12Z"/><path d="M98.31,251.15a.86.86,0,0,1-.25-.61.82.82,0,0,1,.25-.59.86.86,0,0,1,1.21,0,.78.78,0,0,1,.25.59.85.85,0,0,1-.24.61.87.87,0,0,1-1.22,0Zm0,1.55H99.5v7.14H98.33Z"/><path d="M102.68,259.57a3.42,3.42,0,0,1-1.28-1.36,4.26,4.26,0,0,1,0-3.89,3.33,3.33,0,0,1,1.28-1.35,3.55,3.55,0,0,1,1.87-.49,3.46,3.46,0,0,1,2,.53,2.9,2.9,0,0,1,1.12,1.44l-1.07.45a2.05,2.05,0,0,0-.79-1,2.28,2.28,0,0,0-1.27-.35,2.2,2.2,0,0,0-1.18.35,2.46,2.46,0,0,0-.87,1,3.18,3.18,0,0,0,0,2.82,2.53,2.53,0,0,0,.87,1,2.2,2.2,0,0,0,1.18.35,2.38,2.38,0,0,0,1.3-.35,2.06,2.06,0,0,0,.81-1l1.07.45a3.26,3.26,0,0,1-1.17,1.43,3.43,3.43,0,0,1-2,.54A3.55,3.55,0,0,1,102.68,259.57Z"/><path d="M110.23,259.57a3.38,3.38,0,0,1-1.27-1.35,4.11,4.11,0,0,1-.45-1.94,4.3,4.3,0,0,1,.42-1.9,3.5,3.5,0,0,1,1.22-1.39,3.23,3.23,0,0,1,1.82-.51,3.47,3.47,0,0,1,1.82.46,3.22,3.22,0,0,1,1.18,1.3,4.24,4.24,0,0,1,.41,1.89,1.28,1.28,0,0,1,0,.36H109.7a2.91,2.91,0,0,0,.39,1.38,2.31,2.31,0,0,0,.89.84,2.49,2.49,0,0,0,1.13.28,2.33,2.33,0,0,0,2.11-1.29l1,.49a3.62,3.62,0,0,1-1.26,1.37,3.78,3.78,0,0,1-3.74,0Zm3.89-4.06a2.3,2.3,0,0,0-.25-.89,2,2,0,0,0-.71-.76,2.24,2.24,0,0,0-1.21-.31,2,2,0,0,0-1.42.54,2.59,2.59,0,0,0-.76,1.42Z"/><circle class="cls-7" cx="37.9" cy="255" r="18"/><rect class="cls-8" x="31.51" y="248.49" width="12.79" height="12.79"/><line class="cls-9" x1="33.87" y1="248.49" x2="33.87" y2="245.41"/><line class="cls-9" x1="37.9" y1="248.49" x2="37.9" y2="245.41"/><line class="cls-9" x1="41.93" y1="248.49" x2="41.93" y2="245.41"/><line class="cls-9" x1="33.87" y1="264.59" x2="33.87" y2="261.51"/><line class="cls-9" x1="37.9" y1="264.59" x2="37.9" y2="261.51"/><line class="cls-9" x1="41.93" y1="264.59" x2="41.93" y2="261.51"/><line class="cls-9" x1="31.39" y1="259.03" x2="28.31" y2="259.03"/><line class="cls-9" x1="31.39" y1="255" x2="28.31" y2="255"/><line class="cls-9" x1="31.39" y1="250.97" x2="28.31" y2="250.97"/><line class="cls-9" x1="47.49" y1="259.03" x2="44.41" y2="259.03"/><line class="cls-9" x1="47.49" y1="255" x2="44.41" y2="255"/><line class="cls-9" x1="47.49" y1="250.97" x2="44.41" y2="250.97"/><rect class="cls-5" x="35.06" y="252.04" width="5.68" height="5.68" rx="2" ry="2"/><rect class="cls-4" x="515.35" y="57" width="197.65" height="135" rx="3" ry="3"/><rect class="cls-5" x="524" y="66" width="54" height="54" rx="3" ry="3"/><polygon class="cls-6" points="564.26 100.65 564.26 85.35 551 77.7 537.74 85.35 537.74 100.65 551 108.3 564.26 100.65"/><polyline class="cls-10" points="578 156 749 156 749 93"/><line class="cls-10" x1="825.43" y1="93.39" x2="578" y2="93.39"/><polygon class="cls-3" points="817.46 86.61 824.25 93.39 817.46 100.17 823.22 100.17 830 93.39 823.22 86.61 817.46 86.61"/><rect class="cls-5" x="587" y="66" width="117" height="54" rx="3" ry="3"/><path d="M638.9,97.35a3.61,3.61,0,0,1-1.35-2l1.14-.46a3,3,0,0,0,.88,1.47,2.2,2.2,0,0,0,1.51.57,2.33,2.33,0,0,0,1.47-.47,1.53,1.53,0,0,0,.6-1.28,1.5,1.5,0,0,0-.51-1.16,5,5,0,0,0-1.67-.84l-.63-.23a5,5,0,0,1-1.74-1,2.23,2.23,0,0,1-.67-1.71,2.4,2.4,0,0,1,.39-1.32,2.74,2.74,0,0,1,1.1-1,3.21,3.21,0,0,1,1.56-.37,3.44,3.44,0,0,1,1.52.32,3.19,3.19,0,0,1,1,.79,2.83,2.83,0,0,1,.54.91l-1.12.47a1.85,1.85,0,0,0-.63-.93,2,2,0,0,0-1.31-.42,2.05,2.05,0,0,0-1.32.43,1.34,1.34,0,0,0-.54,1.09,1.17,1.17,0,0,0,.46,1,4.54,4.54,0,0,0,1.4.69l.66.23a5.56,5.56,0,0,1,2,1.15,2.49,2.49,0,0,1,.72,1.89,2.63,2.63,0,0,1-.5,1.62,3,3,0,0,1-1.25,1,4.2,4.2,0,0,1-1.56.3A3.53,3.53,0,0,1,638.9,97.35Z"/><path d="M647.21,97.57A3.29,3.29,0,0,1,646,96.22a4,4,0,0,1-.46-1.94,4.18,4.18,0,0,1,.43-1.9A3.47,3.47,0,0,1,647.13,91a3.26,3.26,0,0,1,1.82-.51,3.44,3.44,0,0,1,1.82.46,3.15,3.15,0,0,1,1.18,1.3,4.11,4.11,0,0,1,.42,1.89,1.25,1.25,0,0,1,0,.36h-5.64a2.91,2.91,0,0,0,.39,1.38,2.38,2.38,0,0,0,.89.84,2.52,2.52,0,0,0,1.13.28,2.32,2.32,0,0,0,2.11-1.29l1,.49A3.6,3.6,0,0,1,651,97.56a3.8,3.8,0,0,1-3.75,0Zm3.9-4.06a2.32,2.32,0,0,0-.26-.89,2,2,0,0,0-.7-.76,2.29,2.29,0,0,0-1.21-.31,2,2,0,0,0-1.43.54,2.66,2.66,0,0,0-.76,1.42Z"/><path d="M653.75,90.7h1.14v1.15h.05a2,2,0,0,1,.81-1,2.28,2.28,0,0,1,1.26-.39,2.1,2.1,0,0,1,.84.15V91.9a2.19,2.19,0,0,0-1-.22,1.72,1.72,0,0,0-1,.29,2.07,2.07,0,0,0-.69.8,2.32,2.32,0,0,0-.26,1.07v4h-1.19Z"/><path d="M658.46,90.7h1.27l2.21,5.74h0l2.24-5.74h1.25l-2.92,7.14h-1.2Z"/><path d="M666.53,89.15a.82.82,0,0,1-.25-.61.78.78,0,0,1,.25-.59.86.86,0,0,1,1.21,0,.84.84,0,0,1,0,1.2.83.83,0,0,1-.61.25A.86.86,0,0,1,666.53,89.15Zm0,1.55h1.17v7.14h-1.17Z"/><path d="M670.9,97.57a3.52,3.52,0,0,1-1.29-1.36,4.34,4.34,0,0,1,0-3.89A3.42,3.42,0,0,1,670.9,91a3.54,3.54,0,0,1,1.86-.49,3.47,3.47,0,0,1,2,.53,3,3,0,0,1,1.12,1.44l-1.07.45a2.07,2.07,0,0,0-.8-1,2.25,2.25,0,0,0-1.26-.35,2.2,2.2,0,0,0-1.18.35,2.46,2.46,0,0,0-.87,1,3.18,3.18,0,0,0,0,2.82,2.53,2.53,0,0,0,.87,1,2.2,2.2,0,0,0,1.18.35,2.38,2.38,0,0,0,1.3-.35,2.18,2.18,0,0,0,.81-1l1.06.45a3.17,3.17,0,0,1-1.16,1.43,3.45,3.45,0,0,1-2,.54A3.54,3.54,0,0,1,670.9,97.57Z"/><path d="M678.45,97.57a3.31,3.31,0,0,1-1.27-1.35,4.11,4.11,0,0,1-.45-1.94,4.3,4.3,0,0,1,.42-1.9A3.55,3.55,0,0,1,678.36,91a3.28,3.28,0,0,1,1.82-.51,3.44,3.44,0,0,1,1.82.46,3.18,3.18,0,0,1,1.19,1.3,4.24,4.24,0,0,1,.41,1.89,1.79,1.79,0,0,1,0,.36h-5.64a2.7,2.7,0,0,0,.39,1.38,2.31,2.31,0,0,0,.89.84,2.48,2.48,0,0,0,1.12.28,2.33,2.33,0,0,0,2.12-1.29l1,.49a3.62,3.62,0,0,1-1.26,1.37,3.78,3.78,0,0,1-3.74,0Zm3.89-4.06a2.3,2.3,0,0,0-.25-.89,2,2,0,0,0-.71-.76,2.26,2.26,0,0,0-1.21-.31,2,2,0,0,0-1.42.54,2.59,2.59,0,0,0-.76,1.42Z"/><path d="M687.45,90.7h1.27l2.21,5.74h0l2.24-5.74h1.25l-2.91,7.14h-1.21Z"/><path d="M697.47,89.93l-1.68,1.2-.61-.91,2.73-2h.75v9.58h-1.19Z"/><circle class="cls-7" cx="614" cy="93" r="18"/><rect class="cls-8" x="607.61" y="86.49" width="12.79" height="12.79"/><line class="cls-9" x1="609.97" y1="86.49" x2="609.97" y2="83.41"/><line class="cls-9" x1="614" y1="86.49" x2="614" y2="83.41"/><line class="cls-9" x1="618.03" y1="86.49" x2="618.03" y2="83.41"/><line class="cls-9" x1="609.97" y1="102.59" x2="609.97" y2="99.51"/><line class="cls-9" x1="614" y1="102.59" x2="614" y2="99.51"/><line class="cls-9" x1="618.03" y1="102.59" x2="618.03" y2="99.51"/><line class="cls-9" x1="607.49" y1="97.03" x2="604.41" y2="97.03"/><line class="cls-9" x1="607.49" y1="93" x2="604.41" y2="93"/><line class="cls-9" x1="607.49" y1="88.97" x2="604.41" y2="88.97"/><line class="cls-9" x1="623.59" y1="97.03" x2="620.51" y2="97.03"/><line class="cls-9" x1="623.59" y1="93" x2="620.51" y2="93"/><line class="cls-9" x1="623.59" y1="88.97" x2="620.51" y2="88.97"/><rect class="cls-5" x="611.16" y="90.04" width="5.68" height="5.68" rx="2" ry="2"/><rect class="cls-5" x="524" y="129" width="54" height="54" rx="3" ry="3"/><polygon class="cls-6" points="564.26 163.65 564.26 148.35 551 140.7 537.74 148.35 537.74 163.65 551 171.3 564.26 163.65"/><rect class="cls-5" x="587" y="129" width="117" height="54" rx="3" ry="3"/><path d="M637.88,160.35a3.6,3.6,0,0,1-1.34-2l1.13-.46a3,3,0,0,0,.88,1.47,2.23,2.23,0,0,0,1.52.57,2.37,2.37,0,0,0,1.47-.47,1.53,1.53,0,0,0,.6-1.28,1.5,1.5,0,0,0-.51-1.16,5,5,0,0,0-1.68-.84l-.63-.23a5,5,0,0,1-1.73-1,2.19,2.19,0,0,1-.67-1.71,2.4,2.4,0,0,1,.39-1.32,2.71,2.71,0,0,1,1.09-1,3.28,3.28,0,0,1,1.57-.37,3.39,3.39,0,0,1,1.51.32,3.24,3.24,0,0,1,1,.79,2.83,2.83,0,0,1,.54.91l-1.12.47a1.94,1.94,0,0,0-.64-.93,2,2,0,0,0-1.31-.42,2,2,0,0,0-1.31.43,1.32,1.32,0,0,0-.55,1.09,1.17,1.17,0,0,0,.46,1,4.66,4.66,0,0,0,1.4.69l.66.23a5.61,5.61,0,0,1,2,1.15,2.53,2.53,0,0,1,.71,1.89,2.62,2.62,0,0,1-.49,1.62,3,3,0,0,1-1.26,1,4.15,4.15,0,0,1-1.55.3A3.56,3.56,0,0,1,637.88,160.35Z"/><path d="M646.2,160.57a3.31,3.31,0,0,1-1.27-1.35,4.11,4.11,0,0,1-.45-1.94,4.3,4.3,0,0,1,.42-1.9,3.55,3.55,0,0,1,1.21-1.39,3.28,3.28,0,0,1,1.82-.51,3.44,3.44,0,0,1,1.82.46,3.18,3.18,0,0,1,1.19,1.3,4.24,4.24,0,0,1,.41,1.89,1.28,1.28,0,0,1,0,.36h-5.64a2.7,2.7,0,0,0,.39,1.38,2.31,2.31,0,0,0,.89.84,2.48,2.48,0,0,0,1.12.28,2.33,2.33,0,0,0,2.12-1.29l1,.49a3.62,3.62,0,0,1-1.26,1.37,3.78,3.78,0,0,1-3.74,0Zm3.89-4.06a2.3,2.3,0,0,0-.25-.89,2,2,0,0,0-.71-.76,2.24,2.24,0,0,0-1.21-.31,2,2,0,0,0-1.42.54,2.59,2.59,0,0,0-.76,1.42Z"/><path d="M652.74,153.7h1.13v1.15h.06a2,2,0,0,1,.81-1,2.28,2.28,0,0,1,1.26-.39,2.17,2.17,0,0,1,.84.15v1.27a2.23,2.23,0,0,0-1-.22,1.69,1.69,0,0,0-1,.29,2.07,2.07,0,0,0-.69.8,2.2,2.2,0,0,0-.26,1.07v4h-1.19Z"/><path d="M657.44,153.7h1.27l2.22,5.74h0l2.24-5.74h1.25l-2.91,7.14h-1.21Z"/><path d="M665.52,152.15a.82.82,0,0,1-.25-.61.78.78,0,0,1,.25-.59.85.85,0,0,1,1.2,0,.78.78,0,0,1,.25.59.85.85,0,0,1-1.45.61Zm0,1.55h1.18v7.14h-1.18Z"/><path d="M669.89,160.57a3.44,3.44,0,0,1-1.29-1.36,4.34,4.34,0,0,1,0-3.89,3.35,3.35,0,0,1,1.29-1.35,3.54,3.54,0,0,1,1.86-.49,3.46,3.46,0,0,1,2,.53,3,3,0,0,1,1.13,1.44l-1.08.45a2.05,2.05,0,0,0-.79-1,2.26,2.26,0,0,0-1.27-.35,2.14,2.14,0,0,0-1.17.35,2.41,2.41,0,0,0-.88,1,3.18,3.18,0,0,0,0,2.82,2.48,2.48,0,0,0,.88,1,2.14,2.14,0,0,0,1.17.35,2.36,2.36,0,0,0,1.3-.35,2.13,2.13,0,0,0,.82-1l1.06.45a3.13,3.13,0,0,1-1.17,1.43,3.43,3.43,0,0,1-2,.54A3.54,3.54,0,0,1,669.89,160.57Z"/><path d="M677.43,160.57a3.29,3.29,0,0,1-1.26-1.35,4,4,0,0,1-.46-1.94,4.18,4.18,0,0,1,.43-1.9,3.47,3.47,0,0,1,1.21-1.39,3.26,3.26,0,0,1,1.82-.51,3.47,3.47,0,0,1,1.82.46,3.15,3.15,0,0,1,1.18,1.3,4.11,4.11,0,0,1,.41,1.89,1.28,1.28,0,0,1,0,.36H676.9a2.91,2.91,0,0,0,.39,1.38,2.38,2.38,0,0,0,.89.84,2.52,2.52,0,0,0,1.13.28,2.32,2.32,0,0,0,2.11-1.29l1,.49a3.68,3.68,0,0,1-1.25,1.37,3.8,3.8,0,0,1-3.75,0Zm3.89-4.06a2.3,2.3,0,0,0-.25-.89,2,2,0,0,0-.7-.76,2.3,2.3,0,0,0-1.22-.31,2,2,0,0,0-1.42.54,2.66,2.66,0,0,0-.76,1.42Z"/><path d="M686.43,153.7h1.28l2.21,5.74h0l2.24-5.74h1.24l-2.91,7.14h-1.2Z"/><path d="M694.16,159.65c.29-.29.87-.87,1.72-1.74s1.46-1.49,1.8-1.86a7.9,7.9,0,0,0,1-1.2,2,2,0,0,0,.25-1,1.56,1.56,0,0,0-.21-.79,1.76,1.76,0,0,0-.63-.61,2.07,2.07,0,0,0-1-.23,1.68,1.68,0,0,0-1.21.44,2.18,2.18,0,0,0-.6,1l-1.09-.43a2.88,2.88,0,0,1,.51-.93,3,3,0,0,1,1-.83,2.91,2.91,0,0,1,1.45-.34,3.16,3.16,0,0,1,1.56.38,2.72,2.72,0,0,1,1.06,1,2.6,2.6,0,0,1,.38,1.35,4.5,4.5,0,0,1-1.54,3l-2.87,2.89h4.52v1.13h-6.05Z"/><circle class="cls-7" cx="614" cy="156" r="18"/><rect class="cls-8" x="607.61" y="149.49" width="12.79" height="12.79"/><line class="cls-9" x1="609.97" y1="149.49" x2="609.97" y2="146.41"/><line class="cls-9" x1="614" y1="149.49" x2="614" y2="146.41"/><line class="cls-9" x1="618.03" y1="149.49" x2="618.03" y2="146.41"/><line class="cls-9" x1="609.97" y1="165.59" x2="609.97" y2="162.51"/><line class="cls-9" x1="614" y1="165.59" x2="614" y2="162.51"/><line class="cls-9" x1="618.03" y1="165.59" x2="618.03" y2="162.51"/><line class="cls-9" x1="607.49" y1="160.03" x2="604.41" y2="160.03"/><line class="cls-9" x1="607.49" y1="156" x2="604.41" y2="156"/><line class="cls-9" x1="607.49" y1="151.97" x2="604.41" y2="151.97"/><line class="cls-9" x1="623.59" y1="160.03" x2="620.51" y2="160.03"/><line class="cls-9" x1="623.59" y1="156" x2="620.51" y2="156"/><line class="cls-9" x1="623.59" y1="151.97" x2="620.51" y2="151.97"/><rect class="cls-5" x="611.16" y="153.04" width="5.68" height="5.68" rx="2" ry="2"/><rect class="cls-4" x="101" y="57" width="108" height="108" rx="3" ry="3"/><rect class="cls-5" x="110" y="129" width="90" height="27" rx="3" ry="3"/><path d="M133.51,137.32h1.17v10h-1.17Z"/><path d="M136.68,140.2h1.14v1.05h.05a2.41,2.41,0,0,1,.94-.9,2.69,2.69,0,0,1,1.37-.37,2.55,2.55,0,0,1,2,.74,2.94,2.94,0,0,1,.68,2v4.58h-1.19v-4.4a1.89,1.89,0,0,0-.48-1.44,1.8,1.8,0,0,0-1.3-.45,1.73,1.73,0,0,0-1,.33,2.06,2.06,0,0,0-.7.84,2.5,2.5,0,0,0-.26,1.1v4h-1.19Z"/><path d="M145.52,150a2.83,2.83,0,0,1-1.09-1.41l1.07-.47a2.11,2.11,0,0,0,.79,1,2.23,2.23,0,0,0,1.31.39,2.32,2.32,0,0,0,1.72-.62,2.43,2.43,0,0,0,.61-1.76v-.8h-.06a2.53,2.53,0,0,1-1,.89,3,3,0,0,1-1.44.34,3.11,3.11,0,0,1-1.69-.48,3.42,3.42,0,0,1-1.21-1.34,4.52,4.52,0,0,1,0-3.93,3.38,3.38,0,0,1,1.21-1.35,3.11,3.11,0,0,1,1.69-.48,3,3,0,0,1,1.44.34,2.55,2.55,0,0,1,1,.9h.06v-1h1.13v6.86a3.57,3.57,0,0,1-5.54,2.94Zm3.25-3.84a2.33,2.33,0,0,0,.84-.94,3.47,3.47,0,0,0,0-2.91,2.33,2.33,0,0,0-.84-.94,2.23,2.23,0,0,0-1.17-.32,2.15,2.15,0,0,0-1.17.33,2.29,2.29,0,0,0-.85.94,3.13,3.13,0,0,0-.31,1.45,3.17,3.17,0,0,0,.31,1.46,2.29,2.29,0,0,0,.85.94,2.23,2.23,0,0,0,1.17.32A2.15,2.15,0,0,0,148.77,146.16Z"/><path d="M152.83,140.2H154v1.15H154a2,2,0,0,1,.81-1,2.28,2.28,0,0,1,1.26-.39,2.17,2.17,0,0,1,.84.15v1.27a2.23,2.23,0,0,0-1-.22,1.69,1.69,0,0,0-.95.29,2.27,2.27,0,0,0-.7.8,2.31,2.31,0,0,0-.25,1.07v4h-1.19Z"/><path d="M159,147.07a3.38,3.38,0,0,1-1.27-1.35,4.11,4.11,0,0,1-.45-1.94,4.3,4.3,0,0,1,.42-1.9,3.5,3.5,0,0,1,1.22-1.39,3.23,3.23,0,0,1,1.82-.51,3.38,3.38,0,0,1,1.82.47,3.13,3.13,0,0,1,1.18,1.29,4.24,4.24,0,0,1,.41,1.89,1.28,1.28,0,0,1,0,.36h-5.64a2.91,2.91,0,0,0,.39,1.38,2.31,2.31,0,0,0,.89.84,2.49,2.49,0,0,0,1.13.28A2.33,2.33,0,0,0,163,145.2l1,.49a3.62,3.62,0,0,1-1.26,1.37,3.78,3.78,0,0,1-3.74,0Zm3.89-4.06a2.35,2.35,0,0,0-.25-.89,2,2,0,0,0-.71-.76,2.24,2.24,0,0,0-1.21-.31,2,2,0,0,0-1.42.54,2.59,2.59,0,0,0-.76,1.42Z"/><path d="M166.18,147a2.94,2.94,0,0,1-1.09-1.38l1.06-.48a2.12,2.12,0,0,0,.79,1,2,2,0,0,0,1.16.35,2.3,2.3,0,0,0,1.15-.27.88.88,0,0,0,.1-1.5,3.84,3.84,0,0,0-1.19-.47l-.87-.22a3.15,3.15,0,0,1-1.4-.71,1.69,1.69,0,0,1-.55-1.31,1.67,1.67,0,0,1,.37-1.08,2.45,2.45,0,0,1,1-.72,3.68,3.68,0,0,1,3,.15,2.32,2.32,0,0,1,1.05,1.14l-1,.47a1.73,1.73,0,0,0-1.69-1,1.91,1.91,0,0,0-1,.27.82.82,0,0,0-.45.7.78.78,0,0,0,.31.63,2.38,2.38,0,0,0,.93.4l1,.27a3.49,3.49,0,0,1,1.59.79,1.75,1.75,0,0,1,.53,1.28,1.9,1.9,0,0,1-.38,1.16,2.41,2.41,0,0,1-1,.76,3.68,3.68,0,0,1-1.43.26A3.32,3.32,0,0,1,166.18,147Z"/><path d="M172.8,147a3,3,0,0,1-1.09-1.38l1.07-.48a2.06,2.06,0,0,0,.79,1,2,2,0,0,0,1.15.35,2.3,2.3,0,0,0,1.15-.27.85.85,0,0,0,.48-.78.86.86,0,0,0-.38-.72,3.74,3.74,0,0,0-1.19-.47l-.87-.22a3.15,3.15,0,0,1-1.4-.71,1.8,1.8,0,0,1-.18-2.39,2.45,2.45,0,0,1,1-.72,3.46,3.46,0,0,1,1.33-.25,3.38,3.38,0,0,1,1.67.4,2.32,2.32,0,0,1,1.05,1.14l-1,.47a1.73,1.73,0,0,0-1.69-1,1.93,1.93,0,0,0-1,.27.81.81,0,0,0-.44.7.75.75,0,0,0,.31.63,2.26,2.26,0,0,0,.92.4l1,.27a3.45,3.45,0,0,1,1.58.79,1.75,1.75,0,0,1,.53,1.28,1.9,1.9,0,0,1-.38,1.16,2.41,2.41,0,0,1-1,.76,3.68,3.68,0,0,1-1.43.26A3.36,3.36,0,0,1,172.8,147Z"/><rect class="cls-5" x="128" y="66" width="54" height="54" rx="3" ry="3"/><polygon class="cls-6" points="168.26 100.65 168.26 85.35 155 77.7 141.74 85.35 141.74 100.65 155 108.3 168.26 100.65"/><rect class="cls-4" x="272" y="57" width="126" height="108" rx="3" ry="3"/><rect class="cls-5" x="281" y="129" width="108" height="27" rx="3" ry="3"/><path d="M290.69,137.32H292l2.48,7.26.33,1h.06l.35-1,2.59-7.26h1.31l-3.66,10h-1.24Z"/><path d="M300,138.65a.83.83,0,0,1-.26-.61.79.79,0,0,1,.26-.59.84.84,0,0,1,.6-.25.86.86,0,0,1,.6.25.78.78,0,0,1,.25.59.85.85,0,0,1-.24.61.86.86,0,0,1-.61.25A.84.84,0,0,1,300,138.65Zm0,1.55h1.18v7.14H300Z"/><path d="M303.08,140.31h1.14v1.14h0a2,2,0,0,1,.86-1,2.5,2.5,0,0,1,1.31-.35,2.55,2.55,0,0,1,.52,0v1.22a2.72,2.72,0,0,0-.64-.06,1.94,1.94,0,0,0-1.48.6,2.2,2.2,0,0,0-.57,1.57v4h-1.19Zm7.25,7.11a1.8,1.8,0,0,1-.63-.38,1.93,1.93,0,0,1-.42-.63,2.48,2.48,0,0,1-.14-.87v-4.26H307.9V140.2h1.24v-2h1.19v2h1.74v1.08h-1.74v4a1.4,1.4,0,0,0,.23.88,1,1,0,0,0,.77.32,1.43,1.43,0,0,0,.78-.24v1.16a1.73,1.73,0,0,1-.42.14,2.92,2.92,0,0,1-.56,0A2.07,2.07,0,0,1,310.33,147.42Z"/><path d="M314.14,146.81a3,3,0,0,1-.68-2.12V140.2h1.19v4.31a2.09,2.09,0,0,0,.46,1.5,1.64,1.64,0,0,0,1.24.48,1.84,1.84,0,0,0,1.08-.33,2.1,2.1,0,0,0,.72-.84,2.28,2.28,0,0,0,.26-1.09v-4h1.19v7.14h-1.13v-1h-.06a2.28,2.28,0,0,1-.94.9,2.75,2.75,0,0,1-1.37.36A2.5,2.5,0,0,1,314.14,146.81Z"/><path d="M322.18,147.26a2.31,2.31,0,0,1-.95-.85,2.23,2.23,0,0,1-.34-1.23,2.12,2.12,0,0,1,.85-1.77,3.54,3.54,0,0,1,2.16-.63,4.59,4.59,0,0,1,1.2.14,2.89,2.89,0,0,1,.84.32v-.44a1.59,1.59,0,0,0-.56-1.28A2.08,2.08,0,0,0,324,141a2.45,2.45,0,0,0-1.11.26,2,2,0,0,0-.79.72l-.9-.67a2.86,2.86,0,0,1,1.16-1A3.65,3.65,0,0,1,324,140a3.26,3.26,0,0,1,2.29.76,2.7,2.7,0,0,1,.83,2.08v4.52h-1.14v-1h-.05a2.55,2.55,0,0,1-.93.88,2.68,2.68,0,0,1-1.38.36A3.16,3.16,0,0,1,322.18,147.26Zm2.63-1a2.36,2.36,0,0,0,.83-.83,2.2,2.2,0,0,0,.3-1.13,3,3,0,0,0-.82-.37,3.9,3.9,0,0,0-1-.14,2.28,2.28,0,0,0-1.47.41,1.27,1.27,0,0,0-.5,1,1.16,1.16,0,0,0,.45,1,1.72,1.72,0,0,0,1.13.36A2.19,2.19,0,0,0,324.81,146.21Z"/><path d="M328.73,137.32h1.19v10h-1.19Z"/><path d="M335.51,147a3,3,0,0,1-1.1-1.38l1.07-.48a2.12,2.12,0,0,0,.79,1,2,2,0,0,0,1.15.35,2.3,2.3,0,0,0,1.15-.27.85.85,0,0,0,.48-.78.86.86,0,0,0-.38-.72,3.74,3.74,0,0,0-1.19-.47l-.87-.22a3.2,3.2,0,0,1-1.4-.71,1.71,1.71,0,0,1-.54-1.31A1.67,1.67,0,0,1,335,141a2.35,2.35,0,0,1,1-.72,3.5,3.5,0,0,1,1.33-.25,3.42,3.42,0,0,1,1.68.4,2.3,2.3,0,0,1,1,1.14l-1,.47a1.72,1.72,0,0,0-1.69-1,2,2,0,0,0-1,.27.83.83,0,0,0-.44.7.75.75,0,0,0,.31.63,2.26,2.26,0,0,0,.92.4l1,.27a3.4,3.4,0,0,1,1.58.79,1.75,1.75,0,0,1,.53,1.28,1.84,1.84,0,0,1-.38,1.16,2.41,2.41,0,0,1-1,.76,3.64,3.64,0,0,1-1.43.26A3.31,3.31,0,0,1,335.51,147Z"/><path d="M343,147.07a3.31,3.31,0,0,1-1.27-1.35,4.11,4.11,0,0,1-.45-1.94,4.3,4.3,0,0,1,.42-1.9,3.55,3.55,0,0,1,1.21-1.39,3.28,3.28,0,0,1,1.82-.51,3.36,3.36,0,0,1,1.82.47,3.09,3.09,0,0,1,1.19,1.29,4.24,4.24,0,0,1,.41,1.89,1.28,1.28,0,0,1,0,.36h-5.64a2.7,2.7,0,0,0,.39,1.38,2.31,2.31,0,0,0,.89.84,2.48,2.48,0,0,0,1.12.28A2.33,2.33,0,0,0,347,145.2l1,.49a3.62,3.62,0,0,1-1.26,1.37,3.78,3.78,0,0,1-3.74,0Zm3.89-4.06a2.35,2.35,0,0,0-.25-.89,2,2,0,0,0-.71-.76,2.24,2.24,0,0,0-1.21-.31,2,2,0,0,0-1.42.54,2.59,2.59,0,0,0-.76,1.42Z"/><path d="M349.51,140.2h1.13v1.15h.06a2,2,0,0,1,.81-1,2.28,2.28,0,0,1,1.26-.39,2.17,2.17,0,0,1,.84.15v1.27a2.23,2.23,0,0,0-1-.22,1.69,1.69,0,0,0-1,.29,2.15,2.15,0,0,0-.69.8,2.2,2.2,0,0,0-.26,1.07v4h-1.19Z"/><path d="M354.21,140.2h1.27l2.22,5.74h0L360,140.2h1.25l-2.91,7.14h-1.21Z"/><path d="M362.29,138.65A.82.82,0,0,1,362,138a.78.78,0,0,1,.25-.59.84.84,0,0,1,1.2,0,.78.78,0,0,1,.25.59.85.85,0,0,1-1.45.61Zm0,1.55h1.18v7.14H362.3Z"/><path d="M366.66,147.07a3.44,3.44,0,0,1-1.29-1.36,4.34,4.34,0,0,1,0-3.89,3.35,3.35,0,0,1,1.29-1.35,3.54,3.54,0,0,1,1.86-.49,3.46,3.46,0,0,1,2,.53A3,3,0,0,1,371.6,142l-1.08.45a2.1,2.1,0,0,0-.79-1,2.26,2.26,0,0,0-1.27-.35,2.14,2.14,0,0,0-1.17.35,2.48,2.48,0,0,0-.88,1,3.18,3.18,0,0,0,0,2.82,2.48,2.48,0,0,0,.88,1,2.14,2.14,0,0,0,1.17.35,2.36,2.36,0,0,0,1.3-.35,2.13,2.13,0,0,0,.82-1l1.06.45a3.13,3.13,0,0,1-1.17,1.43,3.43,3.43,0,0,1-2,.54A3.54,3.54,0,0,1,366.66,147.07Z"/><path d="M374.2,147.07a3.38,3.38,0,0,1-1.27-1.35,4.11,4.11,0,0,1-.45-1.94,4.18,4.18,0,0,1,.43-1.9,3.4,3.4,0,0,1,1.21-1.39,3.26,3.26,0,0,1,1.82-.51,3.38,3.38,0,0,1,1.82.47,3.07,3.07,0,0,1,1.18,1.29,4.11,4.11,0,0,1,.41,1.89,1.28,1.28,0,0,1,0,.36h-5.64a2.91,2.91,0,0,0,.39,1.38,2.31,2.31,0,0,0,.89.84,2.52,2.52,0,0,0,1.13.28,2.32,2.32,0,0,0,2.11-1.29l1,.49a3.68,3.68,0,0,1-1.25,1.37,3.8,3.8,0,0,1-3.75,0Zm3.89-4.06a2.35,2.35,0,0,0-.25-.89,1.9,1.9,0,0,0-.71-.76,2.24,2.24,0,0,0-1.21-.31,2,2,0,0,0-1.42.54,2.66,2.66,0,0,0-.76,1.42Z"/><rect class="cls-5" x="308" y="66" width="54" height="54" rx="3" ry="3"/><polygon class="cls-6" points="348.26 100.65 348.26 85.35 335 77.7 321.74 85.35 321.74 100.65 335 108.3 348.26 100.65"/><line class="cls-2" x1="141.57" y1="255" x2="231.43" y2="255"/><polygon class="cls-3" points="149.54 261.78 142.75 255 149.54 248.22 143.78 248.22 137 255 143.78 261.78 149.54 261.78"/><polygon class="cls-3" points="223.46 261.78 230.25 255 223.46 248.22 229.22 248.22 236 255 229.22 261.78 223.46 261.78"/><line class="cls-2" x1="186.57" y1="93" x2="303.43" y2="93"/><polygon class="cls-3" points="194.54 99.78 187.75 93 194.54 86.22 188.78 86.22 182 93 188.78 99.78 194.54 99.78"/><polygon class="cls-3" points="295.46 99.78 302.25 93 295.46 86.22 301.22 86.22 308 93 301.22 99.78 295.46 99.78"/><line class="cls-11" x1="2" y1="93" x2="123.43" y2="93"/><polygon class="cls-12" points="115.46 99.78 122.25 93 115.46 86.22 121.22 86.22 128 93 121.22 99.78 115.46 99.78"/><line class="cls-2" x1="366.57" y1="93.39" x2="519.43" y2="93.39"/><polygon class="cls-3" points="374.54 100.17 367.75 93.39 374.54 86.61 368.78 86.61 362 93.39 368.78 100.17 374.54 100.17"/><polygon class="cls-3" points="511.46 100.17 518.25 93.39 511.46 86.61 517.22 86.61 524 93.39 517.22 100.17 511.46 100.17"/><polyline class="cls-2" points="519.43 156 443 156 443 94.59"/><polygon class="cls-3" points="511.46 149.22 518.25 156 511.46 162.78 517.22 162.78 524 156 517.22 149.22 511.46 149.22"/><polyline class="cls-2" points="443 129 443 210 263 210 263 223.43"/><polygon class="cls-3" points="256.22 215.46 263 222.25 269.78 215.46 269.78 221.22 263 228 256.22 221.22 256.22 215.46"/><line class="cls-13" x1="884" y1="93" x2="960.43" y2="93"/><polygon class="cls-12" points="952.46 99.78 959.25 93 952.46 86.22 958.22 86.22 965 93 958.22 99.78 952.46 99.78"/><polyline class="cls-2" points="294.57 255 749 255 749 156"/><polygon class="cls-3" points="302.54 261.78 295.75 255 302.54 248.22 296.78 248.22 290 255 296.78 261.78 302.54 261.78"/></g></svg>