<svg xmlns="http://www.w3.org/2000/svg" xmlns:xlink="http://www.w3.org/1999/xlink" viewBox="0 0 450.7 432.4"><defs><style>.a1febd32-a602-439d-90cb-fe3b9e5e9e6e,.a2de6f6a-543b-49bf-abe1-4190f694075c,.b4def6a1-ecd7-4a13-a337-12e6f33f4584,.f842173c-4137-41bd-a45e-eb43b29bb415{fill:none;}.aa42245d-ad5b-4e67-9608-1290cdf026c9{fill:#e5e5e4;}.ef4e5b1c-b333-40de-91f2-d67d81b0e205{fill:#fff;}.a450d0db-15ca-4a08-835b-f23856a99cc6,.aef7c180-a9aa-4037-aeb7-1c23582a6a0c,.b1c3f615-51b7-4acc-81ac-56998d7fb69d,.ec350dc4-b3fe-4a66-86b2-3ced8af6dc99,.f4ed8a36-2cc1-49ce-b1ae-e206532e6b0c,.fa0a4e9c-bae9-42a8-bea9-34ee9122e43f{isolation:isolate;}.b1c3f615-51b7-4acc-81ac-56998d7fb69d{font-size:35.5px;}.b1c3f615-51b7-4acc-81ac-56998d7fb69d,.f4ed8a36-2cc1-49ce-b1ae-e206532e6b0c{font-family:GoogleSans-Regular, Google Sans;}.f6b590fb-5d2a-4d55-b37b-8665e046487f{letter-spacing:0em;}.b0de8536-14ff-42a0-8e88-8302ec9a6519{letter-spacing:-0.01em;}.a6a6604f-cec9-421e-b62a-47e7c088578a{clip-path:url(#b8ba444c-ee38-4f79-8b77-c1a5ff62ba08);}.e5b942fc-5abb-46fc-b726-75c457c7b7b7{fill:#466bb0;}.af9a84e1-beb6-428a-a037-5a52fb0451b5{fill:#476baf;}.b805c6ed-2f12-4f9f-bfd4-2d445f303f70{fill:#486baf;}.a768cd4c-9aac-4065-93f3-520b3335e459,.ec350dc4-b3fe-4a66-86b2-3ced8af6dc99,.fa0a4e9c-bae9-42a8-bea9-34ee9122e43f{fill:#818181;}.aef7c180-a9aa-4037-aeb7-1c23582a6a0c{font-size:16px;fill:#ededed;}.aef7c180-a9aa-4037-aeb7-1c23582a6a0c,.ec350dc4-b3fe-4a66-86b2-3ced8af6dc99{font-family:ArialMT, Arial;}.f4ed8a36-2cc1-49ce-b1ae-e206532e6b0c{font-size:8px;}.b9af017a-15d4-4441-8c1c-971f52e6838b{letter-spacing:0.02em;}.f8f110c7-ca2a-43f4-8cd3-2f8654df1409{letter-spacing:-0.01em;}.b23fbc3a-c18a-4022-ad7f-9e138f12d3d5{letter-spacing:0.01em;}.ac231792-f514-43ad-afed-d54a9eab17c5{letter-spacing:-0.02em;}.a4eddb54-8ba1-4e45-9f87-08896a8dd1eb{letter-spacing:0.02em;}.b9600945-879b-457a-964e-2ce18be22b1d{letter-spacing:-0.02em;}.e2792af2-a91c-44c1-afaf-0ba5b4043a83{letter-spacing:-0.01em;}.e419dce9-66ed-4aed-ab67-d3bf826292b7{letter-spacing:0em;}.b533e1e4-734c-4a41-bacf-56205a40baac{letter-spacing:0.01em;}.a1febd32-a602-439d-90cb-fe3b9e5e9e6e{stroke:#486baf;}.a1febd32-a602-439d-90cb-fe3b9e5e9e6e,.f842173c-4137-41bd-a45e-eb43b29bb415{stroke-linecap:round;stroke-width:4px;}.a1febd32-a602-439d-90cb-fe3b9e5e9e6e,.a2de6f6a-543b-49bf-abe1-4190f694075c,.f842173c-4137-41bd-a45e-eb43b29bb415{stroke-linejoin:round;}.fa0a4e9c-bae9-42a8-bea9-34ee9122e43f{font-size:26px;font-family:FontAwesome5FreeSolid, "Font Awesome 5 Free";}.f842173c-4137-41bd-a45e-eb43b29bb415{stroke:#818181;}.eac389b2-f847-4bee-8623-5c3be09bcbfd{letter-spacing:-0.06em;}.a2de6f6a-543b-49bf-abe1-4190f694075c{stroke:#b14d9d;stroke-width:3px;}.ec350dc4-b3fe-4a66-86b2-3ced8af6dc99{font-size:12px;}</style><clipPath id="b8ba444c-ee38-4f79-8b77-c1a5ff62ba08"><rect class="b4def6a1-ecd7-4a13-a337-12e6f33f4584" x="22.7" y="72.9" width="39.9" height="39.9"/></clipPath></defs><title>overview</title><g id="ac5e8c10-b20e-404d-8a3c-bd1b92729ab3" data-name="arch"><g id="e3542c96-65ae-4923-886c-3c9f5393e193" data-name="Pilot container"><path class="aa42245d-ad5b-4e67-9608-1290cdf026c9" d="M339,287.2H3a3,3,0,0,1-3-3V43.2a3,3,0,0,1,3-3H339a3,3,0,0,1,3,3v241A3,3,0,0,1,339,287.2Z"/><path class="ef4e5b1c-b333-40de-91f2-d67d81b0e205" d="M316.3,274.2H25.6a3.08,3.08,0,0,1-3-3V58.8a3,3,0,0,1,3-3H316.3a3,3,0,0,1,3,3V271.2A3,3,0,0,1,316.3,274.2Z"/><text class="b1c3f615-51b7-4acc-81ac-56998d7fb69d" transform="translate(61.52 103.55)">Pi<tspan class="f6b590fb-5d2a-4d55-b37b-8665e046487f" x="28.47" y="0">l</tspan><tspan class="b0de8536-14ff-42a0-8e88-8302ec9a6519" x="35.78" y="0">o</tspan><tspan x="56.41" y="0">t</tspan></text><g id="aad9b6b4-89bb-449c-990c-7e6dbae92f40" data-name="Istio-logo-blue"><g class="a6a6604f-cec9-421e-b62a-47e7c088578a"><polygon class="e5b942fc-5abb-46fc-b726-75c457c7b7b7" points="32.7 104 52.6 104 40.1 107.8 32.7 104"/></g><g class="a6a6604f-cec9-421e-b62a-47e7c088578a"><polygon class="e5b942fc-5abb-46fc-b726-75c457c7b7b7" points="32.7 102.8 40.1 101.5 40.1 87.8 32.7 102.8"/></g><g class="a6a6604f-cec9-421e-b62a-47e7c088578a"><polygon class="af9a84e1-beb6-428a-a037-5a52fb0451b5" points="41.4 101.5 52.6 102.8 41.4 77.9 41.4 101.5"/></g></g></g><path class="b805c6ed-2f12-4f9f-bfd4-2d445f303f70" d="M304.7,153H183.3a3.08,3.08,0,0,1-3-3V130.2a3,3,0,0,1,3-3H304.7a3,3,0,0,1,3,3V150A3.08,3.08,0,0,1,304.7,153Z"/><path class="a768cd4c-9aac-4065-93f3-520b3335e459" d="M207.6,3V124.4a3,3,0,0,1-3,3H184.8a3.08,3.08,0,0,1-3-3V3a3.08,3.08,0,0,1,3-3h19.8A3.08,3.08,0,0,1,207.6,3Z"/><path class="a768cd4c-9aac-4065-93f3-520b3335e459" d="M240.9,3V124.4a3,3,0,0,1-3,3H218.1a3,3,0,0,1-3-3V3a3,3,0,0,1,3-3h19.8A3,3,0,0,1,240.9,3Z"/><path class="a768cd4c-9aac-4065-93f3-520b3335e459" d="M274.3,3V124.4a3,3,0,0,1-3,3H251.5a3.08,3.08,0,0,1-3-3V3a3.08,3.08,0,0,1,3-3h19.8A3,3,0,0,1,274.3,3Z"/><path class="a768cd4c-9aac-4065-93f3-520b3335e459" d="M307.7,3V124.4a3.08,3.08,0,0,1-3,3H284.9a3,3,0,0,1-3-3V3a3,3,0,0,1,3-3h19.8A3.08,3.08,0,0,1,307.7,3Z"/><text class="aef7c180-a9aa-4037-aeb7-1c23582a6a0c" transform="translate(184.42 144.77)">Platform adapters</text><path class="b805c6ed-2f12-4f9f-bfd4-2d445f303f70" d="M155.4,226.3H34a3,3,0,0,1-3-3V130.1a3,3,0,0,1,3-3H155.4a3,3,0,0,1,3,3v93.2A3,3,0,0,1,155.4,226.3Z"/><g class="a450d0db-15ca-4a08-835b-f23856a99cc6"><text class="aef7c180-a9aa-4037-aeb7-1c23582a6a0c" transform="translate(66.76 171.86)">Abstract </text><text class="aef7c180-a9aa-4037-aeb7-1c23582a6a0c" transform="translate(73.26 191.06)">model</text></g><text class="aef7c180-a9aa-4037-aeb7-1c23582a6a0c" transform="translate(199.36 101.87) rotate(-90)">Kubernetes</text><text class="aef7c180-a9aa-4037-aeb7-1c23582a6a0c" transform="translate(232.73 84.85) rotate(-90)">Mesos</text><text class="aef7c180-a9aa-4037-aeb7-1c23582a6a0c" transform="translate(266.1 111.55) rotate(-90)">CloudFoundry</text><text class="aef7c180-a9aa-4037-aeb7-1c23582a6a0c" transform="translate(299.48 68.65) rotate(-90)">...</text><text class="f4ed8a36-2cc1-49ce-b1ae-e206532e6b0c" transform="translate(325.83 304.92)">Se<tspan class="b9af017a-15d4-4441-8c1c-971f52e6838b" x="8.99" y="0">r</tspan><tspan x="12.13" y="0">v</tspan><tspan class="f8f110c7-ca2a-43f4-8cd3-2f8654df1409" x="16.24" y="0">ic</tspan><tspan x="22.34" y="0">e di</tspan><tspan class="b23fbc3a-c18a-4022-ad7f-9e138f12d3d5" x="35.32" y="0">s</tspan><tspan class="f8f110c7-ca2a-43f4-8cd3-2f8654df1409" x="39.14" y="0">c</tspan><tspan class="ac231792-f514-43ad-afed-d54a9eab17c5" x="43.47" y="0">ov</tspan><tspan x="52.11" y="0">e</tspan><tspan class="a4eddb54-8ba1-4e45-9f87-08896a8dd1eb" x="56.62" y="0">r</tspan><tspan x="59.79" y="0">y and t</tspan><tspan class="b9600945-879b-457a-964e-2ce18be22b1d" x="84.11" y="0">r</tspan><tspan class="e2792af2-a91c-44c1-afaf-0ba5b4043a83" x="86.95" y="0">a</tspan><tspan class="e419dce9-66ed-4aed-ab67-d3bf826292b7" x="91.12" y="0">ffi</tspan><tspan x="98.36" y="0">c ru</tspan><tspan class="e419dce9-66ed-4aed-ab67-d3bf826292b7" x="112.07" y="0">l</tspan><tspan class="b533e1e4-734c-4a41-bacf-56205a40baac" x="113.72" y="0">e</tspan><tspan x="118.26" y="0">s</tspan></text><line class="a1febd32-a602-439d-90cb-fe3b9e5e9e6e" x1="322.7" y1="294.4" x2="448.7" y2="294.4"/><polyline class="a1febd32-a602-439d-90cb-fe3b9e5e9e6e" points="171 261.2 171 318.4 36.3 318.4 36.3 343.6"/><line class="a1febd32-a602-439d-90cb-fe3b9e5e9e6e" x1="126.2" y1="343.6" x2="126.2" y2="318.4"/><polyline class="a1febd32-a602-439d-90cb-fe3b9e5e9e6e" points="216.1 343.6 216.1 318.4 171 318.4"/><polyline class="a1febd32-a602-439d-90cb-fe3b9e5e9e6e" points="306 343.6 306 318.4 216.1 318.4"/><text class="fa0a4e9c-bae9-42a8-bea9-34ee9122e43f" transform="translate(401.74 204.24)">user</text><polyline class="f842173c-4137-41bd-a45e-eb43b29bb415" points="307.7 175.4 372.8 175.4 372.8 194 372.8 212.7"/><line class="f842173c-4137-41bd-a45e-eb43b29bb415" x1="372.8" y1="212.7" x2="307.7" y2="212.7"/><line class="f842173c-4137-41bd-a45e-eb43b29bb415" x1="400.6" y1="194" x2="372.8" y2="194"/><path class="b805c6ed-2f12-4f9f-bfd4-2d445f303f70" d="M308,261.2H34.1a3,3,0,0,1-3-3V238.4a3,3,0,0,1,3-3H308a3,3,0,0,1,3,3v19.8A3.08,3.08,0,0,1,308,261.2Z"/><text class="aef7c180-a9aa-4037-aeb7-1c23582a6a0c" transform="translate(135.36 252.14)">Envoy<tspan class="eac389b2-f847-4bee-8623-5c3be09bcbfd" x="44.47" y="0"> </tspan><tspan x="48.03" y="0">API</tspan></text><path class="aa42245d-ad5b-4e67-9608-1290cdf026c9" d="M339,432.4H273a3,3,0,0,1-3-3V346.6a3,3,0,0,1,3-3h66a3,3,0,0,1,3,3v82.8A3,3,0,0,1,339,432.4Z"/><path class="ef4e5b1c-b333-40de-91f2-d67d81b0e205" d="M330,423.2H282a3,3,0,0,1-3-3V355.9a3,3,0,0,1,3-3h48a3,3,0,0,1,3,3v64.3A3,3,0,0,1,330,423.2Z"/><polygon class="a2de6f6a-543b-49bf-abe1-4190f694075c" points="319.3 379.5 319.3 364.2 306 356.5 292.8 364.2 292.8 379.5 306 387.1 319.3 379.5"/><g class="a450d0db-15ca-4a08-835b-f23856a99cc6"><text class="ec350dc4-b3fe-4a66-86b2-3ced8af6dc99" transform="translate(290.75 403.24)">Envoy </text><text class="ec350dc4-b3fe-4a66-86b2-3ced8af6dc99" transform="translate(291.75 417.64)">proxy</text></g><path class="aa42245d-ad5b-4e67-9608-1290cdf026c9" d="M249.1,432.4h-66a3.08,3.08,0,0,1-3-3V346.6a3.08,3.08,0,0,1,3-3h66a3,3,0,0,1,3,3v82.8A3,3,0,0,1,249.1,432.4Z"/><path class="ef4e5b1c-b333-40de-91f2-d67d81b0e205" d="M240.1,423.2h-48a3.08,3.08,0,0,1-3-3V355.9a3.08,3.08,0,0,1,3-3h48a3,3,0,0,1,3,3v64.3A3,3,0,0,1,240.1,423.2Z"/><polygon class="a2de6f6a-543b-49bf-abe1-4190f694075c" points="229.4 379.5 229.4 364.2 216.1 356.5 202.9 364.2 202.9 379.5 216.1 387.1 229.4 379.5"/><g class="a450d0db-15ca-4a08-835b-f23856a99cc6"><text class="ec350dc4-b3fe-4a66-86b2-3ced8af6dc99" transform="translate(200.83 403.24)">Envoy </text><text class="ec350dc4-b3fe-4a66-86b2-3ced8af6dc99" transform="translate(201.83 417.64)">proxy</text></g><path class="aa42245d-ad5b-4e67-9608-1290cdf026c9" d="M159.2,432.4h-66a3,3,0,0,1-3-3V346.6a3,3,0,0,1,3-3h66a3,3,0,0,1,3,3v82.8A3.08,3.08,0,0,1,159.2,432.4Z"/><path class="ef4e5b1c-b333-40de-91f2-d67d81b0e205" d="M150.2,423.2h-48a3,3,0,0,1-3-3V355.9a3,3,0,0,1,3-3h48a3,3,0,0,1,3,3v64.3A3.08,3.08,0,0,1,150.2,423.2Z"/><polygon class="a2de6f6a-543b-49bf-abe1-4190f694075c" points="139.4 379.5 139.4 364.2 126.2 356.5 112.9 364.2 112.9 379.5 126.2 387.1 139.4 379.5"/><g class="a450d0db-15ca-4a08-835b-f23856a99cc6"><text class="ec350dc4-b3fe-4a66-86b2-3ced8af6dc99" transform="translate(110.9 403.24)">Envoy </text><text class="ec350dc4-b3fe-4a66-86b2-3ced8af6dc99" transform="translate(111.9 417.64)">proxy</text></g><path class="aa42245d-ad5b-4e67-9608-1290cdf026c9" d="M69.3,432.4H3.3a3,3,0,0,1-3-3V346.6a3,3,0,0,1,3-3h66a3.08,3.08,0,0,1,3,3v82.8A3.08,3.08,0,0,1,69.3,432.4Z"/><path class="ef4e5b1c-b333-40de-91f2-d67d81b0e205" d="M60.3,423.2h-48a3,3,0,0,1-3-3V355.9a3,3,0,0,1,3-3h48a3.08,3.08,0,0,1,3,3v64.3A3.08,3.08,0,0,1,60.3,423.2Z"/><polygon class="a2de6f6a-543b-49bf-abe1-4190f694075c" points="49.5 379.5 49.5 364.2 36.3 356.5 23 364.2 23 379.5 36.3 387.1 49.5 379.5"/><g class="a450d0db-15ca-4a08-835b-f23856a99cc6"><text class="ec350dc4-b3fe-4a66-86b2-3ced8af6dc99" transform="translate(20.98 403.24)">Envoy </text><text class="ec350dc4-b3fe-4a66-86b2-3ced8af6dc99" transform="translate(21.98 417.64)">proxy</text></g><path class="b805c6ed-2f12-4f9f-bfd4-2d445f303f70" d="M304.7,189H183.3a3,3,0,0,1-3-3V166.2a3.08,3.08,0,0,1,3-3H304.7a3.08,3.08,0,0,1,3,3V186A3,3,0,0,1,304.7,189Z"/><text class="aef7c180-a9aa-4037-aeb7-1c23582a6a0c" transform="translate(213.46 181.84)">Rules<tspan class="eac389b2-f847-4bee-8623-5c3be09bcbfd" x="40.91" y="0"> </tspan><tspan x="44.47" y="0">API</tspan></text><path class="b805c6ed-2f12-4f9f-bfd4-2d445f303f70" d="M304.7,225.1H183.3a3.08,3.08,0,0,1-3-3V202.3a3,3,0,0,1,3-3H304.7a3,3,0,0,1,3,3v19.8A3,3,0,0,1,304.7,225.1Z"/><text class="aef7c180-a9aa-4037-aeb7-1c23582a6a0c" transform="translate(202.67 217.91)">Network<tspan class="eac389b2-f847-4bee-8623-5c3be09bcbfd" x="58.68" y="0"> </tspan><tspan x="62.24" y="0">API</tspan></text></g></svg>