<svg id="a36a31b0-d856-4e50-af45-0627d66566db" data-name="Layer 1" xmlns="http://www.w3.org/2000/svg" viewBox="0 0 771.02 540.2"><defs><style>.a65d35ef-3b96-4b9d-ae6c-7fb924272f00,.af94eb3e-b2b5-4747-9a3a-9b67f40642bb,.ba62b710-6abf-4644-89b1-074ab158df0b,.bb885c7b-7b71-45cc-91c4-a2f45bbb817f,.ef1d4518-d971-40df-a9d6-af9087ecc018,.f9d20719-d60f-4b40-afe9-6dfaa803e5ab{fill:none;}.ba62b710-6abf-4644-89b1-074ab158df0b{stroke:#666;stroke-dasharray:6 12 6;}.a65d35ef-3b96-4b9d-ae6c-7fb924272f00,.af94eb3e-b2b5-4747-9a3a-9b67f40642bb,.ba62b710-6abf-4644-89b1-074ab158df0b,.bb885c7b-7b71-45cc-91c4-a2f45bbb817f,.f9d20719-d60f-4b40-afe9-6dfaa803e5ab{stroke-linejoin:round;}.a65d35ef-3b96-4b9d-ae6c-7fb924272f00,.ba62b710-6abf-4644-89b1-074ab158df0b{stroke-width:2px;}.bd86ad22-2a9c-4904-90fd-02f32e8f5b74{font-size:16px;}.a2a92d7f-1533-4627-b073-b24e80f75333,.a87429bc-8897-4da3-a3f2-a8c882552542,.bd86ad22-2a9c-4904-90fd-02f32e8f5b74,.e53df31f-61fc-4652-9374-db4ba82207f6,.eee75fdb-1c56-40e4-9f23-91dc8e9e805a{font-family:OpenSans, Open Sans;}.af94eb3e-b2b5-4747-9a3a-9b67f40642bb{stroke:#466bb0;stroke-dasharray:10.01 10.01;}.af94eb3e-b2b5-4747-9a3a-9b67f40642bb,.bb885c7b-7b71-45cc-91c4-a2f45bbb817f,.ef1d4518-d971-40df-a9d6-af9087ecc018{stroke-width:4px;}.eee75fdb-1c56-40e4-9f23-91dc8e9e805a{font-size:14px;}.a2a92d7f-1533-4627-b073-b24e80f75333{font-size:12px;}.addfc956-b98a-4f1b-9359-9a8bdc0644f3{fill:#e5e5e4;}.e1bc6849-6f0d-497f-a5ac-138ba77b75ad{fill:#fff;}.a87429bc-8897-4da3-a3f2-a8c882552542{font-size:16.29px;}.a53ea805-4268-4ebe-b4db-8cac9ebd7e9e{fill:#486baf;}.a65d35ef-3b96-4b9d-ae6c-7fb924272f00{stroke:#fbb040;}.f496e13f-6610-4646-94a6-66d1baf4d720{fill:#e6e6e6;}.ad997e27-2d60-4e9b-beee-ab08f7c7c98a{fill:#326de6;}.ef1d4518-d971-40df-a9d6-af9087ecc018{stroke:#090;stroke-miterlimit:10;}.a0b82c58-1136-41e7-b048-f82fe5c672e3{fill:#090;}.bb885c7b-7b71-45cc-91c4-a2f45bbb817f{stroke:#4d4d4d;stroke-linecap:round;stroke-dasharray:6 12;}.ad186a5e-9118-432b-b2bc-fe546b0881fb{fill:#4d4d4d;}.f9d20719-d60f-4b40-afe9-6dfaa803e5ab{stroke:#e905ee;stroke-width:3px;}.e53df31f-61fc-4652-9374-db4ba82207f6{font-size:11.4px;}</style></defs><rect class="ba62b710-6abf-4644-89b1-074ab158df0b" x="1" y="19.13" width="769.02" height="520.07" rx="10"/><text class="bd86ad22-2a9c-4904-90fd-02f32e8f5b74" transform="translate(0.86 13.71)">Network_1</text><rect class="af94eb3e-b2b5-4747-9a3a-9b67f40642bb" x="55.37" y="70.65" width="665.65" height="434.47" rx="10"/><text class="eee75fdb-1c56-40e4-9f23-91dc8e9e805a" transform="translate(55.36 65.21) scale(1.21 1)">Istio Mesh</text><text class="a2a92d7f-1533-4627-b073-b24e80f75333" transform="translate(113.39 101.48)">Cluster_1</text><rect class="addfc956-b98a-4f1b-9359-9a8bdc0644f3" x="132.44" y="249.84" width="143.39" height="87.76" rx="3"/><rect class="e1bc6849-6f0d-497f-a5ac-138ba77b75ad" x="142.68" y="300.37" width="122.91" height="30.73" rx="3"/><text class="a87429bc-8897-4da3-a3f2-a8c882552542" transform="translate(183.35 320.55)">istiod</text><rect id="ffa91d78-3a7f-4a12-a2c8-22b6896e3416" data-name="background" class="a53ea805-4268-4ebe-b4db-8cac9ebd7e9e" x="187.59" y="249.84" width="33.08" height="33.08"/><polygon id="e62d5f54-ff9f-4c66-b937-bd21ff573e3e" data-name="hull" class="e1bc6849-6f0d-497f-a5ac-138ba77b75ad" points="194.13 277.64 214.14 277.64 201.63 281.39 194.13 277.64"/><polygon id="afc1d8c3-0e23-405e-b3da-f0bbc117a39c" data-name="mainsail" class="e1bc6849-6f0d-497f-a5ac-138ba77b75ad" points="194.13 276.39 201.63 275.14 201.63 261.38 194.13 276.39"/><polygon id="f43f9581-c05a-46f9-95dc-2592faeaa4fc" data-name="headsail" class="e1bc6849-6f0d-497f-a5ac-138ba77b75ad" points="202.88 275.14 214.14 276.39 202.88 251.38 202.88 275.14"/><rect class="a65d35ef-3b96-4b9d-ae6c-7fb924272f00" x="113.64" y="107.23" width="233" height="373" rx="5"/><rect class="f496e13f-6610-4646-94a6-66d1baf4d720" x="126.19" y="117.35" width="156.38" height="83.76" rx="3"/><rect class="e1bc6849-6f0d-497f-a5ac-138ba77b75ad" x="136.25" y="127.82" width="136.12" height="62.82" rx="3"/><text class="a87429bc-8897-4da3-a3f2-a8c882552542" transform="translate(192.87 164.86)">API server</text><path id="eed419f0-65a0-4873-9e06-12ae8d034184" data-name="path10349" class="ad997e27-2d60-4e9b-beee-ab08f7c7c98a" d="M179.75,149.35a3,3,0,0,0-1.46-1.7l-14-6.68a2.63,2.63,0,0,0-1.15-.23,4.83,4.83,0,0,0-1.14.09l-14,6.73a2.47,2.47,0,0,0-1.37,1.7l-3.43,15.06a2.86,2.86,0,0,0,.5,2.19l9.66,12a3.31,3.31,0,0,0,2.11,1h15.38a2.27,2.27,0,0,0,2.1-1l9.66-12a3.11,3.11,0,0,0,.55-2.19l-3.48-15Z"/><path id="f750c43f-b69b-46a9-a02b-bc7c2a2354d1" data-name="path10351" class="e1bc6849-6f0d-497f-a5ac-138ba77b75ad" d="M177.6,163.37h0s-.09,0-.09-.05-.09,0-.18,0a2.59,2.59,0,0,0-.55,0,.54.54,0,0,1-.28,0h0a8.35,8.35,0,0,1-1.56-.27.53.53,0,0,1-.32-.32h0l-.37-.09a11.89,11.89,0,0,0-.18-4,12.51,12.51,0,0,0-1.6-3.76l.27-.27h0v-.05a.66.66,0,0,1,.14-.41,8.05,8.05,0,0,1,1.28-.91h0l.28-.14c.18-.09.32-.18.5-.28s.09,0,.14-.09,0,0,0-.09h0a.9.9,0,0,0,.18-1.28.89.89,0,0,0-.64-.32,1.06,1.06,0,0,0-.64.23h0l-.05,0c0,.05-.09.1-.14.1a2.71,2.71,0,0,0-.36.41c0,.09-.14.13-.18.18h0a6.17,6.17,0,0,1-1.15,1,.72.72,0,0,1-.27.09.27.27,0,0,1-.19-.05h0l-.37.23c-.36-.36-.78-.73-1.14-1.1a11.83,11.83,0,0,0-6-2.38l0-.36h0v0a.64.64,0,0,1-.23-.36,9.31,9.31,0,0,1,.09-1.56v0c0-.09.05-.18.05-.27s0-.37.09-.55v-.27h0a.91.91,0,0,0-.78-1,1,1,0,0,0-.78.32.94.94,0,0,0-.27.65h0v.22a2.53,2.53,0,0,0,.09.55.58.58,0,0,1,.05.28v0a8.85,8.85,0,0,1,.09,1.56.63.63,0,0,1-.23.37v.09h0l-.05.36c-.5.05-1,.14-1.55.23a11,11,0,0,0-5.63,3.21l-.28-.19h0s-.1.05-.19.05a.72.72,0,0,1-.27-.09,9,9,0,0,1-1.15-1.05h0c0-.1-.13-.14-.18-.19s-.23-.27-.37-.41-.09,0-.13-.09l0-.05h0a1.13,1.13,0,0,0-.64-.23.7.7,0,0,0-.64.33,1,1,0,0,0,.18,1.28h0c.05,0,.05,0,.05,0s.09.09.14.09a3.3,3.3,0,0,0,.5.28l.27.14h0a6.65,6.65,0,0,1,1.29.91.45.45,0,0,1,.13.41v0h0l.28.27-.14.23a10.88,10.88,0,0,0-1.6,7.51l-.37.09h0c0,.05,0,.05,0,.05a.82.82,0,0,1-.32.32,8.77,8.77,0,0,1-1.56.27h0a.52.52,0,0,0-.27,0c-.19,0-.37,0-.55,0s-.1,0-.19,0,0,0-.09,0h0a.9.9,0,0,0-.73,1.06h0a.85.85,0,0,0,.91.64.37.37,0,0,0,.23-.05h0c.05,0,.05,0,.05,0s.14,0,.18,0c.19,0,.37-.14.51-.19a.72.72,0,0,1,.27-.09h0a8.18,8.18,0,0,1,1.51-.41h0a.53.53,0,0,1,.37.14,0,0,0,0,1,0,0h0l.42,0a11,11,0,0,0,3.75,5.35,7.25,7.25,0,0,0,1.24.83l-.23.32h0a0,0,0,0,0,0,0,.58.58,0,0,1,.05.46,7.47,7.47,0,0,1-.73,1.33v0a.8.8,0,0,1-.19.23c-.09.09-.18.28-.32.46s0,.09-.09.14a0,0,0,0,1,0,0h0a1,1,0,0,0,.36,1.24.77.77,0,0,0,.32.09,1,1,0,0,0,.87-.55h0s0,0,.05,0,0-.09.09-.14.14-.32.18-.5l.09-.28h0a8.06,8.06,0,0,1,.6-1.42.67.67,0,0,1,.36-.27c.05,0,.05,0,.05,0h0l.18-.36a10.89,10.89,0,0,0,4,.73,9.16,9.16,0,0,0,2.47-.32,14.74,14.74,0,0,0,1.46-.41l.19.32h0s0,0,0,0a.72.72,0,0,1,.37.28,6.85,6.85,0,0,1,.59,1.42v0l.09.28a1.86,1.86,0,0,0,.19.5c0,.05,0,.09.09.14s0,0,.05,0h0a1,1,0,0,0,.87.55,1,1,0,0,0,.36-.09.74.74,0,0,0,.41-.5,1.17,1.17,0,0,0,0-.69h0a0,0,0,0,0-.05-.05.21.21,0,0,0-.09-.13,1.52,1.52,0,0,0-.32-.46.9.9,0,0,0-.18-.23v-.09a5.62,5.62,0,0,1-.74-1.33.58.58,0,0,1,0-.46s.05,0,.05,0h0l-.14-.37a11.3,11.3,0,0,0,4.94-6.22l.37,0h0a0,0,0,0,0,0,0,.5.5,0,0,1,.37-.14h.05a7.88,7.88,0,0,1,1.46.41h0a.58.58,0,0,0,.27.09,2.11,2.11,0,0,0,.51.23s.09,0,.18,0,0,0,.09,0h0a.39.39,0,0,0,.23.05,1,1,0,0,0,.91-.64,1.06,1.06,0,0,0-.82-1ZM164.37,162l-1.24.59L161.9,162l-.32-1.33.87-1.1h1.37l.87,1.1Zm7.46-3a8.8,8.8,0,0,1,.19,2.89l-4.35-1.24h0a.74.74,0,0,1-.55-.92.78.78,0,0,1,.18-.32l3.43-3.11A9.14,9.14,0,0,1,171.83,159Zm-2.47-4.39-3.75,2.65a.77.77,0,0,1-1-.18.42.42,0,0,1-.14-.32l-.27-4.62a8.52,8.52,0,0,1,5.17,2.47Zm-8.29-2.34.92-.18-.23,4.58h0a.76.76,0,0,1-.78.73,1.19,1.19,0,0,1-.36-.09l-3.8-2.7A9.07,9.07,0,0,1,161.07,152.24Zm-5.58,4,3.39,3h0a.74.74,0,0,1,.09,1.05.48.48,0,0,1-.37.23l-4.44,1.29A9.67,9.67,0,0,1,155.49,156.27Zm-.78,7.74,4.53-.78a.75.75,0,0,1,.78.59.54.54,0,0,1,0,.46h0l-1.74,4.21A9,9,0,0,1,154.71,164Zm10.39,5.67a9.08,9.08,0,0,1-2,.23,10.08,10.08,0,0,1-2.88-.46l2.24-4.07a.71.71,0,0,1,.92-.18,2.11,2.11,0,0,1,.37.32h0l2.19,4C165.7,169.55,165.42,169.59,165.1,169.68Zm5.59-4a8.8,8.8,0,0,1-2.75,2.75l-1.78-4.31a.74.74,0,0,1,.41-.87,1.51,1.51,0,0,1,.41-.09l4.58.78A7.08,7.08,0,0,1,170.69,165.7Z"/><line class="ef1d4518-d971-40df-a9d6-af9087ecc018" x1="204.05" y1="386.17" x2="204.05" y2="344.34"/><polygon class="a0b82c58-1136-41e7-b048-f82fe5c672e3" points="209.03 345.8 204.04 337.17 199.06 345.8 209.03 345.8"/><line class="bb885c7b-7b71-45cc-91c4-a2f45bbb817f" x1="204.05" y1="250.17" x2="204.05" y2="208.34"/><polygon class="ad186a5e-9118-432b-b2bc-fe546b0881fb" points="209.03 209.8 204.04 201.16 199.06 209.8 209.03 209.8"/><text class="a2a92d7f-1533-4627-b073-b24e80f75333" transform="translate(459.39 101.48)">Cluster_2</text><rect class="f496e13f-6610-4646-94a6-66d1baf4d720" x="493.66" y="385.91" width="164.94" height="83.76" rx="3"/><rect class="e1bc6849-6f0d-497f-a5ac-138ba77b75ad" x="503.72" y="396.38" width="144.3" height="62.82" rx="3"/><text class="a87429bc-8897-4da3-a3f2-a8c882552542" transform="translate(581.77 433.42)">Proxy</text><polygon class="f9d20719-d60f-4b40-afe9-6dfaa803e5ab" points="553.15 436.69 553.15 418.89 537.72 409.99 522.3 418.89 522.3 436.69 537.72 445.59 553.15 436.69"/><rect class="f496e13f-6610-4646-94a6-66d1baf4d720" x="121.66" y="385.91" width="164.94" height="83.76" rx="3"/><rect class="e1bc6849-6f0d-497f-a5ac-138ba77b75ad" x="131.72" y="396.38" width="144.3" height="62.82" rx="3"/><text class="a87429bc-8897-4da3-a3f2-a8c882552542" transform="translate(209.77 433.42)">Proxy</text><polygon class="f9d20719-d60f-4b40-afe9-6dfaa803e5ab" points="181.15 436.69 181.15 418.89 165.72 409.99 150.3 418.89 150.3 436.69 165.72 445.59 181.15 436.69"/><rect class="a65d35ef-3b96-4b9d-ae6c-7fb924272f00" x="459.64" y="107.23" width="233" height="373" rx="5"/><rect class="f496e13f-6610-4646-94a6-66d1baf4d720" x="498.19" y="117.35" width="156.38" height="83.76" rx="3"/><rect class="e1bc6849-6f0d-497f-a5ac-138ba77b75ad" x="508.25" y="127.82" width="136.12" height="62.82" rx="3"/><text class="a87429bc-8897-4da3-a3f2-a8c882552542" transform="translate(564.87 164.86)">API server</text><path id="f25d176c-d5e1-4488-8775-f3c0687630f5" data-name="path10349" class="ad997e27-2d60-4e9b-beee-ab08f7c7c98a" d="M551.75,149.35a3,3,0,0,0-1.46-1.7l-14-6.68a2.63,2.63,0,0,0-1.15-.23,4.83,4.83,0,0,0-1.14.09l-14,6.73a2.47,2.47,0,0,0-1.37,1.7l-3.43,15.06a2.86,2.86,0,0,0,.5,2.19l9.66,12a3.31,3.31,0,0,0,2.11,1h15.38a2.27,2.27,0,0,0,2.1-1l9.66-12a3.11,3.11,0,0,0,.55-2.19l-3.48-15Z"/><path id="edb03824-df9d-4cc3-8389-d445661ec815" data-name="path10351" class="e1bc6849-6f0d-497f-a5ac-138ba77b75ad" d="M549.6,163.37h0c-.05,0-.09,0-.09-.05s-.09,0-.18,0a2.59,2.59,0,0,0-.55,0,.54.54,0,0,1-.28,0h0a8.35,8.35,0,0,1-1.56-.27.53.53,0,0,1-.32-.32h0l-.37-.09a11.89,11.89,0,0,0-.18-4,12.51,12.51,0,0,0-1.6-3.76l.27-.27h0v-.05a.66.66,0,0,1,.14-.41,8.05,8.05,0,0,1,1.28-.91h0l.28-.14c.18-.09.32-.18.5-.28s.09,0,.14-.09,0,0,0-.09h0a.9.9,0,0,0,.18-1.28.89.89,0,0,0-.64-.32,1.06,1.06,0,0,0-.64.23h0l-.05,0c0,.05-.09.1-.14.1a2.71,2.71,0,0,0-.36.41c0,.09-.14.13-.18.18h0a6.17,6.17,0,0,1-1.15,1,.72.72,0,0,1-.27.09.27.27,0,0,1-.19-.05h0l-.37.23c-.36-.36-.78-.73-1.14-1.1a11.83,11.83,0,0,0-5.95-2.38l-.05-.36h0v0a.64.64,0,0,1-.23-.36,9.31,9.31,0,0,1,.09-1.56v0c0-.09.05-.18.05-.27s0-.37.09-.55v-.27h0a.91.91,0,0,0-.78-1,1,1,0,0,0-.78.32.94.94,0,0,0-.27.65h0v.22a2.53,2.53,0,0,0,.09.55.58.58,0,0,1,.05.28v0a8.85,8.85,0,0,1,.09,1.56.63.63,0,0,1-.23.37v.09h0l-.05.36c-.5.05-1,.14-1.55.23a11,11,0,0,0-5.63,3.21l-.28-.19h0s-.1.05-.19.05a.72.72,0,0,1-.27-.09,9,9,0,0,1-1.15-1.05h0c0-.1-.13-.14-.18-.19s-.23-.27-.37-.41-.09,0-.13-.09l0-.05h0a1.13,1.13,0,0,0-.64-.23.7.7,0,0,0-.64.33,1,1,0,0,0,.18,1.28h0s0,0,0,0,.09.09.14.09a3.3,3.3,0,0,0,.5.28l.27.14h0a6.65,6.65,0,0,1,1.29.91.45.45,0,0,1,.13.41v0h0l.28.27-.14.23a10.88,10.88,0,0,0-1.6,7.51l-.37.09h0c0,.05,0,.05,0,.05a.82.82,0,0,1-.32.32,8.77,8.77,0,0,1-1.56.27h0a.52.52,0,0,0-.27,0c-.19,0-.37,0-.55,0s-.1,0-.19,0,0,0-.09,0h0a.9.9,0,0,0-.73,1.06h0a.85.85,0,0,0,.91.64.37.37,0,0,0,.23-.05h0c.05,0,.05,0,.05,0s.14,0,.18,0c.19,0,.37-.14.51-.19a.72.72,0,0,1,.27-.09h.05a8.18,8.18,0,0,1,1.51-.41h0a.53.53,0,0,1,.37.14,0,0,0,0,1,0,0h0l.42,0a11,11,0,0,0,3.75,5.35,7.25,7.25,0,0,0,1.24.83l-.23.32h0a0,0,0,0,0,0,0,.58.58,0,0,1,.05.46,7.47,7.47,0,0,1-.73,1.33v0a.8.8,0,0,1-.19.23c-.09.09-.18.28-.32.46s0,.09-.09.14a0,0,0,0,1,0,0h0a1,1,0,0,0,.36,1.24.77.77,0,0,0,.32.09,1,1,0,0,0,.87-.55h0s0,0,.05,0,0-.09.09-.14.14-.32.18-.5l.09-.28h0a8.06,8.06,0,0,1,.6-1.42.67.67,0,0,1,.36-.27s0,0,0,0h0l.18-.36a10.89,10.89,0,0,0,4,.73,9.16,9.16,0,0,0,2.47-.32,14.74,14.74,0,0,0,1.46-.41l.19.32h0s0,0,0,0a.72.72,0,0,1,.37.28,6.85,6.85,0,0,1,.59,1.42v0l.09.28a1.86,1.86,0,0,0,.19.5c0,.05,0,.09.09.14s0,0,0,0h0a1,1,0,0,0,.87.55,1,1,0,0,0,.36-.09.74.74,0,0,0,.41-.5,1.17,1.17,0,0,0,0-.69h0a0,0,0,0,0,0-.05.21.21,0,0,0-.09-.13,1.52,1.52,0,0,0-.32-.46.9.9,0,0,0-.18-.23v-.09a5.62,5.62,0,0,1-.74-1.33.58.58,0,0,1,0-.46s.05,0,.05,0h0l-.14-.37a11.3,11.3,0,0,0,4.94-6.22l.37,0h0a0,0,0,0,0,0,0,.5.5,0,0,1,.37-.14h.05a7.88,7.88,0,0,1,1.46.41h.05a.58.58,0,0,0,.27.09,2.11,2.11,0,0,0,.51.23s.09,0,.18,0,0,0,.09,0h0a.39.39,0,0,0,.23.05,1,1,0,0,0,.91-.64,1.06,1.06,0,0,0-.82-1ZM536.37,162l-1.24.59L533.9,162l-.32-1.33.87-1.1h1.37l.87,1.1Zm7.46-3a8.8,8.8,0,0,1,.19,2.89l-4.35-1.24h0a.74.74,0,0,1-.55-.92.78.78,0,0,1,.18-.32l3.43-3.11A9.14,9.14,0,0,1,543.83,159Zm-2.47-4.39-3.75,2.65a.77.77,0,0,1-1-.18.42.42,0,0,1-.14-.32l-.27-4.62a8.52,8.52,0,0,1,5.17,2.47Zm-8.29-2.34.92-.18-.23,4.58h0a.76.76,0,0,1-.78.73,1.19,1.19,0,0,1-.36-.09l-3.8-2.7A9.07,9.07,0,0,1,533.07,152.24Zm-5.58,4,3.39,3h0a.74.74,0,0,1,.09,1.05.48.48,0,0,1-.37.23l-4.44,1.29A9.67,9.67,0,0,1,527.49,156.27Zm-.78,7.74,4.53-.78a.75.75,0,0,1,.78.59.54.54,0,0,1,0,.46h0l-1.74,4.21A9,9,0,0,1,526.71,164Zm10.39,5.67a9.08,9.08,0,0,1-2,.23,10.08,10.08,0,0,1-2.88-.46l2.24-4.07a.71.71,0,0,1,.92-.18,2.11,2.11,0,0,1,.37.32h0l2.19,4C537.7,169.55,537.42,169.59,537.1,169.68Zm5.59-4a8.8,8.8,0,0,1-2.75,2.75l-1.78-4.31a.74.74,0,0,1,.41-.87,1.51,1.51,0,0,1,.41-.09l4.58.78A7.08,7.08,0,0,1,542.69,165.7Z"/><text class="a2a92d7f-1533-4627-b073-b24e80f75333" transform="translate(515.45 335.45)">xDS traffic</text><polyline class="bb885c7b-7b71-45cc-91c4-a2f45bbb817f" points="276.02 272.2 617.02 272.2 617.04 270.85 617.04 208.34"/><polygon class="ad186a5e-9118-432b-b2bc-fe546b0881fb" points="622.03 209.8 617.04 201.16 612.06 209.8 622.03 209.8"/><text class="a2a92d7f-1533-4627-b073-b24e80f75333" transform="translate(515.45 265.45)">Requests</text><polyline class="ef1d4518-d971-40df-a9d6-af9087ecc018" points="283.2 320.2 617.02 320.2 616.95 386.17"/><polygon class="a0b82c58-1136-41e7-b048-f82fe5c672e3" points="284.66 325.19 276.02 320.2 284.66 315.21 284.66 325.19"/><rect class="addfc956-b98a-4f1b-9359-9a8bdc0644f3" x="303.98" y="249.61" width="86.04" height="86.04" rx="3"/><rect class="e1bc6849-6f0d-497f-a5ac-138ba77b75ad" x="311.15" y="306.97" width="71.7" height="21.51" rx="3"/><text class="e53df31f-61fc-4652-9374-db4ba82207f6" transform="translate(327.97 321.58)">Ingress</text><rect class="e1bc6849-6f0d-497f-a5ac-138ba77b75ad" x="325.49" y="256.78" width="43.02" height="43.02" rx="3"/><polygon class="f9d20719-d60f-4b40-afe9-6dfaa803e5ab" points="357.57 284.38 357.57 272.19 347 266.1 336.44 272.19 336.44 284.38 347 290.48 357.57 284.38"/><rect id="ad0528e5-9fbd-4ecd-81c7-0f7b6ad9141a" data-name="background" class="a53ea805-4268-4ebe-b4db-8cac9ebd7e9e" x="307.69" y="249.61" width="16.29" height="16.29"/><polygon id="ad16da49-9f03-4f68-a257-3c569411093c" data-name="hull" class="e1bc6849-6f0d-497f-a5ac-138ba77b75ad" points="310.94 263.25 320.72 263.25 314.61 265.08 310.94 263.25"/><polygon id="a0016955-9469-42d8-ad1a-f1955ba3b65d" data-name="mainsail" class="e1bc6849-6f0d-497f-a5ac-138ba77b75ad" points="310.94 262.64 314.61 262.03 314.61 255.31 310.94 262.64"/><polygon id="e32784cf-194b-453d-882d-1b032394572b" data-name="headsail" class="e1bc6849-6f0d-497f-a5ac-138ba77b75ad" points="315.22 262.03 320.72 262.64 315.22 250.42 315.22 262.03"/></svg>