<svg id="baeee5f0-fefb-4a5c-a51a-0be54349a668" data-name="Layer 1" xmlns="http://www.w3.org/2000/svg" viewBox="0 0 662.99 540.2"><defs><style>.a62d41fe-edb0-49cc-b8b6-85c244a22a8d,.a6c29d90-b3a8-4fe9-ab66-13cf87e386e9,.aba8c24a-6e58-4d95-b0c2-9fdaa29e193d,.b4efd706-e975-4763-8868-4eeb9c1037f9,.bc5eba76-2969-47f6-8059-8a8e6746b628,.e8f2cbe7-56d9-4972-a825-db54f2e94c67,.e9db07b6-3687-49b4-bdf0-c93650bf3e41,.f32e871a-a6d9-4d90-ab04-df18db7618e0,.f56b946d-57d9-4a84-97d2-b8f2359e4784,.f7c083fa-ad73-42b3-a9d5-3c2b2f8d49cc{fill:none;}.b4efd706-e975-4763-8868-4eeb9c1037f9{stroke:#666;stroke-dasharray:6 12 6;}.a62d41fe-edb0-49cc-b8b6-85c244a22a8d,.aba8c24a-6e58-4d95-b0c2-9fdaa29e193d,.b4efd706-e975-4763-8868-4eeb9c1037f9,.bc5eba76-2969-47f6-8059-8a8e6746b628,.e8f2cbe7-56d9-4972-a825-db54f2e94c67,.e9db07b6-3687-49b4-bdf0-c93650bf3e41,.f32e871a-a6d9-4d90-ab04-df18db7618e0,.f7c083fa-ad73-42b3-a9d5-3c2b2f8d49cc{stroke-linejoin:round;}.b4efd706-e975-4763-8868-4eeb9c1037f9,.bc5eba76-2969-47f6-8059-8a8e6746b628,.f56b946d-57d9-4a84-97d2-b8f2359e4784,.f7c083fa-ad73-42b3-a9d5-3c2b2f8d49cc{stroke-width:2px;}.b7aeeb57-10d2-43ea-ae93-6705d89f2ddc{font-size:16px;}.b7aeeb57-10d2-43ea-ae93-6705d89f2ddc,.b9961895-ba64-4765-8dbe-5db54913ef6f,.bd3d390f-db4a-4757-8aa0-6595f75f40ef,.eb6ed3ff-b174-4b8e-a7b8-ecc09cfa1544{font-family:OpenSans, Open Sans;}.e9db07b6-3687-49b4-bdf0-c93650bf3e41{stroke:#466bb0;stroke-dasharray:9.98 9.98;}.a6c29d90-b3a8-4fe9-ab66-13cf87e386e9,.aba8c24a-6e58-4d95-b0c2-9fdaa29e193d,.e8f2cbe7-56d9-4972-a825-db54f2e94c67,.e9db07b6-3687-49b4-bdf0-c93650bf3e41,.f32e871a-a6d9-4d90-ab04-df18db7618e0{stroke-width:4px;}.bd3d390f-db4a-4757-8aa0-6595f75f40ef{font-size:14px;}.eb6ed3ff-b174-4b8e-a7b8-ecc09cfa1544{font-size:12px;}.bb6e97f6-5950-4121-8294-21252b51a2dd{fill:#e6e6e6;}.f1ee0206-48d5-47b0-a79c-564ad28735fc{fill:#fff;}.b9961895-ba64-4765-8dbe-5db54913ef6f{font-size:16.29px;}.aa6f6b00-8f93-4cb9-b37d-fd7cf9d5c3ce{fill:#757575;}.f56b946d-57d9-4a84-97d2-b8f2359e4784,.f7c083fa-ad73-42b3-a9d5-3c2b2f8d49cc{stroke:#fff;}.aba8c24a-6e58-4d95-b0c2-9fdaa29e193d,.e8f2cbe7-56d9-4972-a825-db54f2e94c67,.f32e871a-a6d9-4d90-ab04-df18db7618e0,.f56b946d-57d9-4a84-97d2-b8f2359e4784{stroke-linecap:round;}.a6c29d90-b3a8-4fe9-ab66-13cf87e386e9,.f56b946d-57d9-4a84-97d2-b8f2359e4784{stroke-miterlimit:10;}.a62d41fe-edb0-49cc-b8b6-85c244a22a8d{stroke:#e905ee;stroke-width:3px;}.eb139099-ee24-42fe-b8d3-4cf0fa4993fc{fill:#e5e5e4;}.bcff7ee5-5aa3-4d0c-9c94-549fa60b8996{fill:#486baf;}.bc5eba76-2969-47f6-8059-8a8e6746b628{stroke:#fbb040;}.a6c29d90-b3a8-4fe9-ab66-13cf87e386e9{stroke:#090;}.f49d4a21-1daf-4e36-b9d2-587a91844a5d{fill:#090;}.aba8c24a-6e58-4d95-b0c2-9fdaa29e193d,.e8f2cbe7-56d9-4972-a825-db54f2e94c67,.f32e871a-a6d9-4d90-ab04-df18db7618e0{stroke:#4d4d4d;}.f32e871a-a6d9-4d90-ab04-df18db7618e0{stroke-dasharray:6 12;}.f31a31af-93e3-4830-a80c-d2a5a475705c{fill:#4d4d4d;}.aba8c24a-6e58-4d95-b0c2-9fdaa29e193d{stroke-dasharray:5.88 11.76;}</style></defs><rect class="b4efd706-e975-4763-8868-4eeb9c1037f9" x="1" y="19.13" width="660.99" height="520.07" rx="10"/><text class="b7aeeb57-10d2-43ea-ae93-6705d89f2ddc" transform="translate(0.86 13.71)">Network_1</text><rect class="e9db07b6-3687-49b4-bdf0-c93650bf3e41" x="55.37" y="70.65" width="552.27" height="434.47" rx="10"/><text class="bd3d390f-db4a-4757-8aa0-6595f75f40ef" transform="translate(55.35 65.21)">Istio Mesh</text><text class="eb6ed3ff-b174-4b8e-a7b8-ecc09cfa1544" transform="translate(113.39 101.48)">Cluster_1</text><rect class="bb6e97f6-5950-4121-8294-21252b51a2dd" x="151.95" y="117.78" width="156.38" height="83.76" rx="3"/><rect class="f1ee0206-48d5-47b0-a79c-564ad28735fc" x="162.01" y="128.25" width="136.12" height="62.82" rx="3"/><text class="b9961895-ba64-4765-8dbe-5db54913ef6f" transform="translate(218.63 165.29)">API server</text><circle class="aa6f6b00-8f93-4cb9-b37d-fd7cf9d5c3ce" cx="193.42" cy="159.66" r="20.94"/><rect class="f7c083fa-ad73-42b3-a9d5-3c2b2f8d49cc" x="185.98" y="152.09" width="14.88" height="14.88"/><line class="f56b946d-57d9-4a84-97d2-b8f2359e4784" x1="188.73" y1="152.09" x2="188.73" y2="148.5"/><line class="f56b946d-57d9-4a84-97d2-b8f2359e4784" x1="193.42" y1="152.09" x2="193.42" y2="148.5"/><line class="f56b946d-57d9-4a84-97d2-b8f2359e4784" x1="198.1" y1="152.09" x2="198.1" y2="148.5"/><line class="f56b946d-57d9-4a84-97d2-b8f2359e4784" x1="188.73" y1="170.82" x2="188.73" y2="167.24"/><line class="f56b946d-57d9-4a84-97d2-b8f2359e4784" x1="193.42" y1="170.82" x2="193.42" y2="167.24"/><line class="f56b946d-57d9-4a84-97d2-b8f2359e4784" x1="198.1" y1="170.82" x2="198.1" y2="167.24"/><line class="f56b946d-57d9-4a84-97d2-b8f2359e4784" x1="185.84" y1="164.35" x2="182.26" y2="164.35"/><line class="f56b946d-57d9-4a84-97d2-b8f2359e4784" x1="185.84" y1="159.66" x2="182.26" y2="159.66"/><line class="f56b946d-57d9-4a84-97d2-b8f2359e4784" x1="185.84" y1="154.98" x2="182.26" y2="154.98"/><line class="f56b946d-57d9-4a84-97d2-b8f2359e4784" x1="204.58" y1="164.35" x2="200.99" y2="164.35"/><line class="f56b946d-57d9-4a84-97d2-b8f2359e4784" x1="204.58" y1="159.66" x2="200.99" y2="159.66"/><line class="f56b946d-57d9-4a84-97d2-b8f2359e4784" x1="204.58" y1="154.98" x2="200.99" y2="154.98"/><rect class="f1ee0206-48d5-47b0-a79c-564ad28735fc" x="190.11" y="156.22" width="6.61" height="6.61" rx="2"/><rect class="bb6e97f6-5950-4121-8294-21252b51a2dd" x="147.66" y="385.91" width="164.94" height="83.76" rx="3"/><rect class="f1ee0206-48d5-47b0-a79c-564ad28735fc" x="157.72" y="396.38" width="71.12" height="62.82" rx="3"/><text class="b9961895-ba64-4765-8dbe-5db54913ef6f" transform="translate(171.77 433.42)">Proxy</text><rect class="f1ee0206-48d5-47b0-a79c-564ad28735fc" x="239.31" y="396.38" width="62.82" height="62.82" rx="3"/><polygon class="a62d41fe-edb0-49cc-b8b6-85c244a22a8d" points="286.15 436.69 286.15 418.89 270.72 409.99 255.3 418.89 255.3 436.69 270.72 445.59 286.15 436.69"/><rect class="eb139099-ee24-42fe-b8d3-4cf0fa4993fc" x="158.44" y="249.84" width="143.39" height="87.76" rx="3"/><rect class="f1ee0206-48d5-47b0-a79c-564ad28735fc" x="168.68" y="300.37" width="122.91" height="30.73" rx="3"/><text class="b9961895-ba64-4765-8dbe-5db54913ef6f" transform="translate(209.35 320.55)">istiod</text><rect id="a4ed2c19-33f8-4a82-b48f-123e20dd748f" data-name="background" class="bcff7ee5-5aa3-4d0c-9c94-549fa60b8996" x="213.59" y="249.84" width="33.08" height="33.08"/><polygon id="afc544f7-927f-47d1-b211-629024aa6868" data-name="hull" class="f1ee0206-48d5-47b0-a79c-564ad28735fc" points="220.13 277.64 240.14 277.64 227.63 281.39 220.13 277.64"/><polygon id="b5b777dd-9972-48cb-91c7-c3b8d5b3d1df" data-name="mainsail" class="f1ee0206-48d5-47b0-a79c-564ad28735fc" points="220.13 276.39 227.63 275.14 227.63 261.38 220.13 276.39"/><polygon id="be69350b-907c-4e16-9193-82b9a870e778" data-name="headsail" class="f1ee0206-48d5-47b0-a79c-564ad28735fc" points="228.88 275.14 240.14 276.39 228.88 251.38 228.88 275.14"/><rect class="bc5eba76-2969-47f6-8059-8a8e6746b628" x="113.64" y="107.23" width="233" height="373" rx="5"/><line class="a6c29d90-b3a8-4fe9-ab66-13cf87e386e9" x1="230.05" y1="386.17" x2="230.05" y2="344.34"/><polygon class="f49d4a21-1daf-4e36-b9d2-587a91844a5d" points="235.03 345.8 230.04 337.17 225.06 345.8 235.03 345.8"/><line class="f32e871a-a6d9-4d90-ab04-df18db7618e0" x1="230.05" y1="250.17" x2="230.05" y2="208.34"/><polygon class="f31a31af-93e3-4830-a80c-d2a5a475705c" points="235.03 209.8 230.04 201.16 225.06 209.8 235.03 209.8"/><text class="eb6ed3ff-b174-4b8e-a7b8-ecc09cfa1544" transform="translate(360.39 101.48)">Cluster_2</text><rect class="bb6e97f6-5950-4121-8294-21252b51a2dd" x="398.95" y="117.78" width="156.38" height="83.76" rx="3"/><rect class="f1ee0206-48d5-47b0-a79c-564ad28735fc" x="409.01" y="128.25" width="136.12" height="62.82" rx="3"/><text class="b9961895-ba64-4765-8dbe-5db54913ef6f" transform="translate(465.63 165.29)">API server</text><circle class="aa6f6b00-8f93-4cb9-b37d-fd7cf9d5c3ce" cx="440.42" cy="159.66" r="20.94"/><rect class="f7c083fa-ad73-42b3-a9d5-3c2b2f8d49cc" x="432.98" y="152.09" width="14.88" height="14.88"/><line class="f56b946d-57d9-4a84-97d2-b8f2359e4784" x1="435.73" y1="152.09" x2="435.73" y2="148.5"/><line class="f56b946d-57d9-4a84-97d2-b8f2359e4784" x1="440.42" y1="152.09" x2="440.42" y2="148.5"/><line class="f56b946d-57d9-4a84-97d2-b8f2359e4784" x1="445.1" y1="152.09" x2="445.1" y2="148.5"/><line class="f56b946d-57d9-4a84-97d2-b8f2359e4784" x1="435.73" y1="170.82" x2="435.73" y2="167.24"/><line class="f56b946d-57d9-4a84-97d2-b8f2359e4784" x1="440.42" y1="170.82" x2="440.42" y2="167.24"/><line class="f56b946d-57d9-4a84-97d2-b8f2359e4784" x1="445.1" y1="170.82" x2="445.1" y2="167.24"/><line class="f56b946d-57d9-4a84-97d2-b8f2359e4784" x1="432.84" y1="164.35" x2="429.26" y2="164.35"/><line class="f56b946d-57d9-4a84-97d2-b8f2359e4784" x1="432.84" y1="159.66" x2="429.26" y2="159.66"/><line class="f56b946d-57d9-4a84-97d2-b8f2359e4784" x1="432.84" y1="154.98" x2="429.26" y2="154.98"/><line class="f56b946d-57d9-4a84-97d2-b8f2359e4784" x1="451.58" y1="164.35" x2="447.99" y2="164.35"/><line class="f56b946d-57d9-4a84-97d2-b8f2359e4784" x1="451.58" y1="159.66" x2="447.99" y2="159.66"/><line class="f56b946d-57d9-4a84-97d2-b8f2359e4784" x1="451.58" y1="154.98" x2="447.99" y2="154.98"/><rect class="f1ee0206-48d5-47b0-a79c-564ad28735fc" x="437.11" y="156.22" width="6.61" height="6.61" rx="2"/><rect class="bb6e97f6-5950-4121-8294-21252b51a2dd" x="394.66" y="385.91" width="164.94" height="83.76" rx="3"/><rect class="f1ee0206-48d5-47b0-a79c-564ad28735fc" x="404.72" y="396.38" width="71.12" height="62.82" rx="3"/><text class="b9961895-ba64-4765-8dbe-5db54913ef6f" transform="translate(418.77 433.42)">Proxy</text><rect class="f1ee0206-48d5-47b0-a79c-564ad28735fc" x="486.31" y="396.38" width="62.82" height="62.82" rx="3"/><polygon class="a62d41fe-edb0-49cc-b8b6-85c244a22a8d" points="533.15 436.69 533.15 418.89 517.72 409.99 502.3 418.89 502.3 436.69 517.72 445.59 533.15 436.69"/><rect class="bc5eba76-2969-47f6-8059-8a8e6746b628" x="360.64" y="107.23" width="233" height="373" rx="5"/><line class="f32e871a-a6d9-4d90-ab04-df18db7618e0" x1="477.05" y1="225.2" x2="477.05" y2="208.34"/><polygon class="f31a31af-93e3-4830-a80c-d2a5a475705c" points="482.03 209.8 477.05 201.16 472.06 209.8 482.03 209.8"/><text class="eb6ed3ff-b174-4b8e-a7b8-ecc09cfa1544" transform="translate(394.45 356.45)">xDS traffic</text><line class="e8f2cbe7-56d9-4972-a825-db54f2e94c67" x1="230.02" y1="225.67" x2="233.02" y2="225.67"/><line class="aba8c24a-6e58-4d95-b0c2-9fdaa29e193d" x1="244.77" y1="225.67" x2="468.14" y2="225.67"/><line class="e8f2cbe7-56d9-4972-a825-db54f2e94c67" x1="474.02" y1="225.67" x2="477.02" y2="225.67"/><text class="eb6ed3ff-b174-4b8e-a7b8-ecc09cfa1544" transform="translate(394.45 238.45)">Requests</text><polyline class="a6c29d90-b3a8-4fe9-ab66-13cf87e386e9" points="230.06 361.67 477.13 361.67 477.05 386.17"/></svg>