<svg xmlns="http://www.w3.org/2000/svg" xmlns:xlink="http://www.w3.org/1999/xlink" x="0" y="0" version="1.1" viewBox="0 0 511 511" xml:space="preserve" style="enable-background:new 0 0 511 511"><g><path d="M327.5,0C226.318,0,144,82.318,144,183.5c0,47.899,18.455,91.563,48.619,124.275l-23.391,23.391 c-0.468,0.468-0.853,0.986-1.172,1.532C163.131,329.642,157.443,328,151.5,328c-8.417,0-16.327,3.278-22.272,9.228L9.229,457.227 C3.278,463.176,0,471.086,0,479.5s3.278,16.324,9.226,22.27C15.173,507.722,23.083,511,31.5,511s16.327-3.278,22.272-9.228 l119.999-119.999c5.951-5.949,9.229-13.859,9.229-22.273c0-5.943-1.642-11.631-4.698-16.556c0.546-0.319,1.065-0.703,1.533-1.172 l23.391-23.391C235.937,348.545,279.601,367,327.5,367C428.682,367,511,284.682,511,183.5S428.682,0,327.5,0z M43.163,491.167 C40.05,494.284,35.908,496,31.5,496s-8.55-1.716-11.667-4.835C16.716,488.049,15,483.906,15,479.5s1.716-8.549,4.834-11.666 l106.697-106.697l23.331,23.331L43.163,491.167z M163.166,371.166l-2.697,2.697l-23.331-23.331l2.699-2.699 c3.113-3.116,7.255-4.833,11.663-4.833s8.55,1.716,11.667,4.835c3.117,3.116,4.833,7.258,4.833,11.665 S166.284,368.049,163.166,371.166z M327.5,352C234.589,352,159,276.411,159,183.5S234.589,15,327.5,15S496,90.589,496,183.5 S420.411,352,327.5,352z"/><path d="M473.064,141.375c-9.877-34.188-31.68-63.969-61.392-83.858c-3.442-2.305-8.1-1.382-10.404,2.061 c-2.304,3.442-1.382,8.1,2.061,10.404c26.779,17.926,46.427,44.759,55.325,75.556c0.949,3.284,3.946,5.42,7.202,5.42 c0.689,0,1.39-0.096,2.085-0.297C471.92,149.512,474.214,145.354,473.064,141.375z"/><path d="M312.324,319.167c-29.982-3.314-57.389-16.145-79.259-37.105c-2.99-2.866-7.738-2.765-10.604,0.225 c-2.866,2.99-2.766,7.738,0.225,10.604c23.926,22.931,55.175,37.558,87.989,41.185c0.28,0.031,0.558,0.046,0.833,0.046 c3.772,0,7.021-2.839,7.445-6.676C319.409,323.328,316.44,319.622,312.324,319.167z"/><path d="M206.171,246.107c-1.902-3.679-6.428-5.12-10.107-3.217c-3.679,1.902-5.12,6.428-3.217,10.107 c2.601,5.029,5.519,9.969,8.675,14.683c1.447,2.161,3.821,3.329,6.239,3.329c1.434,0,2.884-0.411,4.166-1.269 c3.442-2.304,4.364-6.963,2.06-10.405C211.143,255.088,208.513,250.638,206.171,246.107z"/><path d="M357.843,50.383c4.93,1.119,9.851,2.53,14.625,4.195c0.817,0.285,1.65,0.42,2.47,0.42c3.102,0,6.003-1.938,7.082-5.032 c1.364-3.911-0.701-8.188-4.612-9.551c-5.304-1.85-10.77-3.417-16.246-4.66c-4.038-0.918-8.057,1.614-8.974,5.654 C351.272,45.448,353.804,49.466,357.843,50.383z"/><path d="M414.854,174.029c-0.422-2.11-1.729-3.937-3.59-5.016c-1.861-1.08-4.095-1.308-6.136-0.628l-15.764,5.255 c-1.168-6.344-2.942-12.397-5.245-18.064l10.735-5.368c1.452-0.726,2.628-1.902,3.354-3.354l16-32 c1.853-3.705,0.351-8.21-3.354-10.062c-3.705-1.853-8.21-0.351-10.062,3.354L385.91,137.91l-8.633,4.317 c-6.531-10.319-15.05-18.576-24.84-23.831l13.771-27.542c1.853-3.705,0.351-8.21-3.354-10.062 c-3.703-1.853-8.209-0.351-10.062,3.354l-14.512,29.023c-3.507-0.754-7.104-1.169-10.78-1.169s-7.274,0.415-10.78,1.169 l-14.512-29.023c-1.852-3.705-6.356-5.208-10.062-3.354c-3.705,1.852-5.207,6.357-3.354,10.062l13.771,27.542 c-9.79,5.254-18.309,13.512-24.84,23.831l-8.633-4.317l-14.882-29.764c-1.852-3.705-6.357-5.207-10.062-3.354 c-3.705,1.852-5.207,6.357-3.354,10.062l16,32c0.726,1.452,1.902,2.628,3.354,3.354l10.735,5.368 c-2.303,5.667-4.077,11.72-5.245,18.064l-15.764-5.255c-2.042-0.68-4.275-0.451-6.136,0.628c-1.86,1.08-3.168,2.906-3.59,5.016 l-8,40c-0.812,4.062,1.822,8.013,5.884,8.825c0.497,0.099,0.991,0.147,1.479,0.147c3.502,0,6.633-2.465,7.347-6.031l6.333-31.669 l10.864,3.621c-0.022,0.858-0.052,1.713-0.052,2.577c0,8.995,1.217,17.636,3.426,25.705c-0.435,0.282-0.848,0.611-1.229,0.992 l-16,16c-2.434,2.434-2.898,6.211-1.128,9.162l24,40c1.406,2.344,3.89,3.643,6.438,3.642c1.313,0,2.644-0.345,3.852-1.07 c3.552-2.131,4.704-6.738,2.572-10.29l-20.987-34.979l8.17-8.17C284.244,255.55,304.456,271,327.5,271s43.256-15.45,54.386-38.508 l8.17,8.17l-20.987,34.979c-2.131,3.552-0.979,8.159,2.572,10.29c1.208,0.725,2.539,1.07,3.852,1.07 c2.548,0,5.032-1.298,6.438-3.642l24-40c1.771-2.951,1.306-6.729-1.128-9.162l-16-16c-0.381-0.381-0.794-0.71-1.229-0.992 c2.209-8.069,3.426-16.71,3.426-25.705c0-0.864-0.03-1.719-0.052-2.577l10.864-3.621l6.333,31.669 c0.713,3.565,3.845,6.031,7.347,6.031c0.487,0,0.982-0.048,1.479-0.147c4.062-0.813,6.696-4.764,5.884-8.825L414.854,174.029z M320,255.226c-23.194-4.809-41-31.552-41-63.726c0-10.042,1.736-19.555,4.828-28.038c10.484,6.309,22.908,10.177,36.172,11.236 V255.226z M290.47,149.911C299.374,135.912,312.666,127,327.5,127s28.126,8.912,37.03,22.911C354.26,156.366,341.113,160,327.5,160 S300.74,156.366,290.47,149.911z M335,255.226v-80.527c13.264-1.06,25.688-4.928,36.172-11.236 c3.092,8.483,4.828,17.995,4.828,28.038C376,223.674,358.194,250.417,335,255.226z"/></g></svg>