<svg xmlns="http://www.w3.org/2000/svg" xmlns:xlink="http://www.w3.org/1999/xlink" id="Capa_1" x="0" y="0" version="1.1" viewBox="0 0 487.866 487.866" xml:space="preserve" style="enable-background:new 0 0 487.866 487.866"><path d="M482.866,127.128h-15.646v-8.208c0-2.762-2.239-5-5-5h-9.716l9.012-16.366c0-0.001,0.001-0.001,0.001-0.001	c0.001-0.001,0.001-0.002,0.001-0.002l8.462-15.369c0.001-0.001,0.001-0.002,0.002-0.004c0.001-0.002,0.002-0.003,0.003-0.005	c2.843-5.164,3.505-11.125,1.865-16.786s-5.388-10.345-10.551-13.188c-3.255-1.793-6.931-2.74-10.629-2.74	c-8.051,0-15.464,4.378-19.345,11.426c-0.003,0.006-0.006,0.012-0.01,0.018l-8.457,15.359c0,0-0.001,0.001-0.001,0.002	c0,0-0.001,0.001-0.001,0.002l-20.733,37.654H260.201c-0.693,0-1.352,0.141-1.952,0.396c-1.796,0.758-3.056,2.536-3.056,4.608v7.478	c-3.455-1.057-7.119-1.63-10.915-1.63c-4.589,0-8.986,0.836-13.051,2.355H5c-2.761,0-5,2.238-5,5v288.806c0,2.762,2.239,5,5,5	h214.121c3.413,7.815,14.598,12.473,25.095,12.473c12.343,0,22.178-5.104,25.259-12.473h213.392c2.761,0,5-2.238,5-5V132.128	C487.866,129.367,485.627,127.128,482.866,127.128z M265.228,376.441h191.993v20.05l-191.993-0.494V376.441z M370.908,222.463	l-5.157-2.839l0.713-17.964l3.329-0.965l1.965,6.789c0.369,1.274,1.229,2.35,2.391,2.989c1.163,0.64,2.532,0.793,3.805,0.422	l6.789-1.969l0.964,3.329L370.908,222.463z M392.957,201.335c-0.369-1.272-1.229-2.347-2.39-2.986	c-1.161-0.639-2.53-0.792-3.805-0.422l-6.789,1.969l-1.965-6.789c-0.369-1.274-1.229-2.35-2.391-2.989	c-1.161-0.638-2.529-0.791-3.801-0.423l57.39-104.227l21.14,11.64L392.957,201.335z M437.668,70.099l21.141,11.64l-3.64,6.61	l-21.14-11.64L437.668,70.099z M456.476,60.959c2.823,1.555,4.873,4.115,5.77,7.211c0.41,1.416,0.557,2.866,0.448,4.291	l-14.061-7.741l-5.195-2.86c2.053-1.532,4.579-2.4,7.232-2.4C452.686,59.459,454.693,59.978,456.476,60.959z M265.193,123.92	h131.424l-39.385,71.528c-0.139,0.252-0.247,0.518-0.341,0.789c-0.019,0.054-0.038,0.107-0.055,0.162	c-0.08,0.262-0.139,0.53-0.175,0.803c-0.008,0.061-0.012,0.122-0.018,0.184c-0.009,0.092-0.023,0.184-0.027,0.276l-1.323,33.331	H305.6c-2.761,0-5,2.238-5,5s2.239,5,5,5h54.499c0,0,0.001,0,0.001,0c0.301,0,0.599-0.036,0.895-0.09	c0.096-0.018,0.188-0.042,0.283-0.064c0.2-0.048,0.395-0.109,0.589-0.183c0.093-0.035,0.187-0.068,0.278-0.109	c0.217-0.097,0.427-0.213,0.631-0.342c0.045-0.029,0.095-0.051,0.139-0.081c0.008-0.005,0.016-0.009,0.024-0.014l31.414-21.669	c0.077-0.053,0.146-0.114,0.219-0.171c0.049-0.038,0.098-0.074,0.146-0.114c0.21-0.176,0.405-0.369,0.583-0.576	c0.038-0.044,0.073-0.09,0.109-0.136c0.178-0.222,0.343-0.454,0.481-0.705c0-0.001,0.001-0.001,0.001-0.002l0-0.001l51.107-92.816	h10.222v242.521H265.193v-28.844c4.031,4.771,6.467,10.931,6.467,17.655c0,2.762,2.239,4.995,5,4.995s5-2.244,5-5.006	c0-12.87-6.538-24.241-16.467-30.969v-25.293c4.031,4.771,6.467,10.931,6.467,17.655c0,2.762,2.239,4.995,5,4.995s5-2.244,5-5.006	c0-12.87-6.538-24.241-16.467-30.969v-25.292c4.031,4.771,6.467,10.931,6.467,17.655c0,2.762,2.239,4.995,5,4.995s5-2.243,5-5.005	c0-12.871-6.538-24.242-16.467-30.969v-25.292c4.031,4.771,6.467,10.931,6.467,17.655c0,2.762,2.239,4.995,5,4.995s5-2.243,5-5.005	c0-12.871-6.538-24.242-16.467-30.969v-25.292c4.031,4.771,6.467,10.931,6.467,17.655c0,2.762,2.239,4.995,5,4.995s5-2.243,5-5.005	c0-12.871-6.538-24.242-16.467-30.969v-25.292c4.031,4.771,6.467,10.931,6.467,17.655c0,2.762,2.239,4.995,5,4.995s5-2.243,5-5.005	c0-12.871-6.538-24.242-16.467-30.969V123.92z M477.866,415.934H265.488c-2.761,0-5,2.238-5,5c0,3.12-6.191,7.473-16.273,7.473	c-8.914,0-16.148-4.521-16.148-7.473c0-2.762-2.239-5-5-5H10V137.128h206.536c-5.988,6.631-9.641,15.41-9.641,25.027v0.01	c0,2.762,2.239,4.995,5,4.995s5-2.243,5-5.005c0-15.099,12.284-27.383,27.383-27.383c3.878,0,7.569,0.815,10.915,2.276v27.97	c-3.455-1.057-7.119-1.63-10.915-1.63c-20.613,0-37.383,16.77-37.383,37.383v0.01c0,2.762,2.239,4.995,5,4.995s5-2.243,5-5.005	c0-15.099,12.284-27.383,27.383-27.383c3.878,0,7.569,0.815,10.915,2.276v27.97c-3.455-1.057-7.119-1.63-10.915-1.63	c-20.613,0-37.383,16.77-37.383,37.383v0.01c0,2.762,2.239,4.995,5,4.995s5-2.243,5-5.005c0-15.099,12.284-27.383,27.383-27.383	c3.878,0,7.569,0.815,10.915,2.276v27.97c-3.455-1.057-7.119-1.63-10.915-1.63c-20.613,0-37.383,16.77-37.383,37.383v0.01	c0,2.762,2.239,4.995,5,4.995s5-2.243,5-5.005c0-15.099,12.284-27.383,27.383-27.383c3.878,0,7.569,0.815,10.915,2.276v27.97	c-3.455-1.057-7.119-1.63-10.915-1.63c-20.613,0-37.383,16.77-37.383,37.382v0.011c0,2.762,2.239,4.995,5,4.995s5-2.244,5-5.006	c0-15.099,12.284-27.382,27.383-27.382c3.878,0,7.569,0.815,10.915,2.276v27.971c-3.455-1.057-7.119-1.63-10.915-1.63	c-20.613,0-37.383,16.77-37.383,37.382v0.011c0,2.762,2.239,4.995,5,4.995s5-2.244,5-5.006c0-15.099,12.284-27.382,27.383-27.382	c3.878,0,7.569,0.815,10.915,2.276v46.139c0,0.12,0.027,0.231,0.035,0.349v24.361c0,2.757,2.231,4.993,4.987,5l201.993,0.52	c0.004,0,0.008,0,0.013,0c1.324,0,2.594-0.525,3.531-1.46c0.941-0.938,1.469-2.212,1.469-3.54v-30.063V137.128h10.646V415.934z M445.948,386.922c0,2.762-2.239,5-5,5H281.403c-2.761,0-5-2.238-5-5s2.239-5,5-5h159.545	C443.709,381.922,445.948,384.161,445.948,386.922z M197.733,155.318v238.938c0,2.762-2.239,5-5,5s-5-2.238-5-5V155.318	c0-2.762,2.239-5,5-5S197.733,152.556,197.733,155.318z M441.044,99.351l-51.865,94.194c-0.911,1.653-2.621,2.589-4.384,2.589	c-0.816,0-1.643-0.2-2.407-0.621c-2.419-1.332-3.3-4.373-1.968-6.792l51.865-94.194c1.332-2.419,4.374-3.299,6.792-1.968	C441.495,93.891,442.376,96.932,441.044,99.351z"/></svg>