<?xml version="1.0" encoding="iso-8859-1"?>
<svg version="1.1" xmlns="http://www.w3.org/2000/svg" xmlns:xlink="http://www.w3.org/1999/xlink" x="0px" y="0px"
	 width="215.708px" height="215.708px" viewBox="0 0 215.708 215.708" style="enable-background:new 0 0 215.708 215.708;"
	 xml:space="preserve">
<g>
	<path d="M63.302,103.257c6.54,0,11.84-7.59,11.84-14.13c0-6.546-5.307-11.847-11.84-11.847c-6.545,0-11.853,5.307-11.853,11.847
		C51.444,95.667,56.757,103.257,63.302,103.257z"/>
	<path d="M152.427,103.257c6.546,0,11.849-7.59,11.849-14.13c0-6.546-5.31-11.847-11.849-11.847
		c-6.54,0-11.844,5.307-11.844,11.847S145.893,103.257,152.427,103.257z"/>
	<path d="M71.477,154.901c-1.766-2.197-2.563-4.956-2.25-7.757l4.625-41.638c-3.31-0.719-7.051-1.291-10.55-1.291
		c-8.36,0-18.082,3.249-19.997,3.909c-0.082,0.024-0.143,0.049-0.226,0.082c-0.042,0.019-0.106,0.037-0.125,0.043
		c-0.091,0.036-0.155,0.112-0.244,0.149c-0.447,0.194-0.877,0.426-1.239,0.755c-0.167,0.149-0.28,0.338-0.423,0.511
		c-0.238,0.274-0.469,0.542-0.637,0.874c-0.149,0.293-0.213,0.612-0.295,0.923c-0.067,0.231-0.192,0.423-0.223,0.673l-3.748,33.737
		c-0.286,2.563,1.565,4.883,4.141,5.17c0.173,0.018,0.347,0.029,0.523,0.029c2.356,0,4.39-1.766,4.652-4.164l3.41-30.738
		c0.399-0.122,0.84-0.244,1.303-0.378v31.98l-3.736,46.375c-0.243,3.093,2.064,5.81,5.158,6.053
		c0.149,0.013,0.304,0.024,0.448,0.024c2.907,0,5.37-2.229,5.605-5.176l3.367-41.918c0.694,0.316,1.461,0.487,2.271,0.487
		c0.81,0,1.577-0.171,2.269-0.487l3.373,41.918c0.231,2.947,2.695,5.176,5.593,5.176c0.143,0,0.307-0.012,0.457-0.024
		c3.093-0.243,5.398-2.96,5.148-6.053l-2.862-35.622C75.024,158.007,72.972,156.783,71.477,154.901z"/>
	<path d="M175.833,112.135c-0.03-0.237-0.14-0.423-0.207-0.648c-0.091-0.329-0.146-0.654-0.311-0.959
		c-0.14-0.277-0.341-0.487-0.529-0.719c-0.177-0.243-0.342-0.481-0.573-0.679c-0.268-0.226-0.572-0.375-0.883-0.536
		c-0.194-0.106-0.353-0.262-0.56-0.344c-0.457-0.155-11.234-4.028-20.351-4.028c-3.501,0-7.233,0.588-10.546,1.297l4.621,41.632
		c0.317,2.801-0.48,5.565-2.246,7.758c-1.486,1.863-3.52,3.093-5.81,3.635l-2.868,35.622c-0.249,3.093,2.064,5.803,5.151,6.059
		c0.152,0.012,0.311,0.012,0.457,0.012c2.904,0,5.371-2.223,5.602-5.163l3.374-41.918c0.688,0.305,1.455,0.481,2.259,0.481
		c0.816,0,1.577-0.177,2.277-0.481l3.367,41.918c0.237,2.94,2.697,5.163,5.603,5.163c0.14,0,0.298,0,0.444-0.012
		c3.1-0.256,5.401-2.966,5.157-6.059l-3.732-46.375v-31.986c0.469,0.134,0.901,0.268,1.303,0.383l3.41,30.732
		c0.268,2.399,2.296,4.178,4.652,4.178c0.17,0,0.347-0.013,0.523-0.037c2.576-0.286,4.427-2.605,4.141-5.176L175.833,112.135z"/>
	<path d="M93.033,76.644c0,8.187,6.64,17.689,14.833,17.689c8.178,0,14.827-9.496,14.827-17.689s-6.649-14.827-14.827-14.827
		C99.679,61.817,93.033,68.457,93.033,76.644z"/>
	<path d="M136.668,154.141c3.215-0.359,5.528-3.251,5.176-6.479l-4.701-42.216c-0.03-0.295-0.177-0.53-0.256-0.813
		c-0.109-0.411-0.183-0.822-0.384-1.202c-0.17-0.338-0.426-0.612-0.651-0.904c-0.231-0.299-0.433-0.6-0.719-0.85
		c-0.335-0.286-0.718-0.466-1.114-0.673c-0.231-0.131-0.426-0.329-0.694-0.423c-0.529-0.186-12.336-4.42-23.181-4.981l-0.089,0.174
		c-0.73-0.049-1.471-0.174-2.195-0.174s-1.445,0.131-2.183,0.174l-0.067-0.137c-9.897,0.5-20.554,4.022-22.773,4.801
		c-0.097,0.024-0.18,0.064-0.28,0.095c-0.055,0.024-0.131,0.048-0.143,0.055c-0.125,0.042-0.191,0.137-0.311,0.188
		c-0.563,0.25-1.093,0.53-1.553,0.941c-0.219,0.192-0.356,0.423-0.542,0.648c-0.295,0.347-0.587,0.673-0.794,1.083
		c-0.186,0.375-0.262,0.762-0.372,1.167c-0.076,0.286-0.225,0.536-0.262,0.843l-4.698,42.216c-0.353,3.228,1.958,6.12,5.176,6.479
		c0.225,0.023,0.444,0.036,0.661,0.036c2.95,0,5.489-2.216,5.818-5.212l4.277-38.466c0.5-0.149,1.047-0.311,1.629-0.472v40.021
		l-4.664,58.047c-0.313,3.873,2.572,7.265,6.445,7.575c0.188,0.019,0.387,0.024,0.575,0.024c3.629,0,6.708-2.782,7.009-6.473
		l4.22-52.452c0.868,0.39,1.827,0.615,2.838,0.615s1.97-0.226,2.844-0.615l4.213,52.452c0.299,3.69,3.38,6.473,7.009,6.473
		c0.195,0,0.384-0.006,0.572-0.024c3.873-0.311,6.76-3.702,6.449-7.575l-4.665-58.047v-40.034c0.579,0.162,1.127,0.323,1.626,0.472
		l4.281,38.459c0.328,2.996,2.867,5.218,5.814,5.218C136.223,154.177,136.448,154.159,136.668,154.141z"/>
	<path d="M92.777,16.922c0.024,0.316,0.061,0.648,0.113,0.986h9.426c-0.024-0.146-0.036-0.332-0.036-0.551
		c-0.024-0.192-0.037-0.411-0.037-0.655v-0.804c0-0.679,0.067-1.477,0.198-2.393c0.131-0.917,0.399-1.772,0.804-2.576
		c0.408-0.804,0.986-1.485,1.754-2.046c0.768-0.56,1.771-0.84,3.011-0.84c1.173,0,2.095,0.25,2.773,0.749
		c0.683,0.496,1.206,1.083,1.571,1.75c0.365,0.667,0.603,1.352,0.713,2.046c0.104,0.691,0.158,1.221,0.158,1.589
		c0,1.607-0.213,3.011-0.651,4.223c-0.438,1.209-0.993,2.299-1.666,3.285c-0.673,0.983-1.388,1.921-2.155,2.792
		c-0.768,0.874-1.486,1.79-2.158,2.737c-0.674,0.95-1.221,1.991-1.666,3.124c-0.441,1.136-0.654,2.445-0.654,3.931v3.249h9.426
		v-2.122c0-1.459,0.231-2.713,0.694-3.745c0.463-1.035,1.041-2.003,1.735-2.907c0.688-0.904,1.438-1.797,2.241-2.688
		c0.804-0.889,1.553-1.906,2.246-3.048c0.688-1.142,1.273-2.487,1.729-4.034c0.463-1.547,0.694-3.428,0.694-5.645
		c0-1.97-0.335-3.772-1.005-5.404c-0.663-1.635-1.632-3.029-2.886-4.204c-1.255-1.172-2.771-2.083-4.562-2.737
		C112.798,0.329,110.798,0,108.575,0c-2.679,0-5.011,0.398-6.993,1.203c-1.985,0.804-3.642,1.903-4.972,3.285
		c-1.328,1.386-2.32,3.008-2.981,4.859c-0.661,1.852-0.983,3.821-0.983,5.916c0,0.243,0.006,0.511,0.018,0.807
		C92.677,16.361,92.725,16.654,92.777,16.922z"/>
	<rect x="103.881" y="41.988" width="10.336" height="10.263"/>
	<rect x="60.757" y="62.526" width="6.579" height="6.527"/>
	<path d="M53.694,46.588c0.012,0.201,0.037,0.408,0.07,0.63h5.998c-0.019-0.091-0.027-0.21-0.027-0.347
		c-0.012-0.131-0.024-0.271-0.024-0.42v-0.509c0-0.432,0.045-0.943,0.131-1.522c0.088-0.582,0.256-1.129,0.511-1.641
		c0.256-0.512,0.63-0.94,1.118-1.303c0.493-0.356,1.136-0.536,1.921-0.536c0.74,0,1.333,0.161,1.763,0.481
		c0.433,0.317,0.768,0.685,0.999,1.114c0.237,0.423,0.387,0.862,0.454,1.303c0.07,0.438,0.106,0.779,0.106,1.011
		c0,1.023-0.137,1.915-0.417,2.683c-0.28,0.767-0.63,1.464-1.054,2.094s-0.886,1.215-1.373,1.778
		c-0.49,0.555-0.947,1.139-1.376,1.739c-0.433,0.6-0.78,1.267-1.054,1.982c-0.283,0.719-0.42,1.553-0.42,2.494v2.07h6.001v-1.346
		c0-0.929,0.143-1.72,0.435-2.381c0.292-0.661,0.661-1.279,1.103-1.854c0.444-0.572,0.916-1.139,1.428-1.702
		c0.511-0.561,0.986-1.209,1.428-1.945c0.438-0.722,0.813-1.583,1.105-2.57c0.292-0.977,0.441-2.18,0.441-3.583
		c0-1.254-0.216-2.402-0.643-3.443c-0.423-1.035-1.041-1.93-1.839-2.673c-0.798-0.743-1.763-1.321-2.904-1.742
		c-1.142-0.417-2.415-0.627-3.824-0.627c-1.702,0-3.185,0.256-4.445,0.768c-1.267,0.508-2.32,1.202-3.16,2.088
		c-0.85,0.883-1.479,1.918-1.896,3.09c-0.417,1.172-0.637,2.433-0.637,3.766c0,0.158,0.006,0.332,0.012,0.511
		C53.651,46.241,53.669,46.415,53.694,46.588z"/>
	<path d="M142.83,46.588c0.012,0.201,0.036,0.408,0.073,0.63h5.997c-0.018-0.091-0.024-0.21-0.024-0.347
		c-0.012-0.131-0.024-0.271-0.024-0.42v-0.509c0-0.432,0.043-0.943,0.128-1.522c0.086-0.582,0.256-1.129,0.512-1.641
		s0.627-0.94,1.114-1.303c0.493-0.356,1.139-0.536,1.925-0.536c0.742,0,1.333,0.161,1.76,0.481
		c0.432,0.317,0.767,0.685,0.998,1.114c0.237,0.423,0.39,0.862,0.457,1.303c0.066,0.438,0.104,0.779,0.104,1.011
		c0,1.023-0.134,1.915-0.414,2.683c-0.28,0.767-0.634,1.464-1.054,2.094c-0.426,0.63-0.889,1.215-1.37,1.778
		c-0.493,0.555-0.95,1.139-1.382,1.739c-0.427,0.6-0.779,1.267-1.054,1.982c-0.28,0.719-0.414,1.553-0.414,2.494v2.07h5.998v-1.346
		c0-0.929,0.14-1.72,0.433-2.381c0.292-0.661,0.663-1.279,1.107-1.854c0.438-0.572,0.914-1.139,1.425-1.702
		c0.512-0.561,0.987-1.209,1.432-1.945c0.432-0.722,0.81-1.583,1.102-2.57c0.293-0.977,0.444-2.18,0.444-3.583
		c0-1.254-0.219-2.402-0.645-3.443c-0.427-1.035-1.042-1.93-1.84-2.673c-0.797-0.743-1.766-1.321-2.904-1.742
		c-1.145-0.417-2.417-0.627-3.824-0.627c-1.698,0-3.185,0.256-4.444,0.768c-1.267,0.508-2.32,1.202-3.16,2.088
		c-0.847,0.883-1.48,1.918-1.9,3.09c-0.414,1.172-0.633,2.433-0.633,3.766c0,0.158,0.006,0.332,0.012,0.511
		C142.787,46.241,142.806,46.415,142.83,46.588z"/>
	<rect x="149.899" y="62.526" width="6.576" height="6.527"/>
</g>
</svg>
