<svg xmlns="http://www.w3.org/2000/svg" xmlns:xlink="http://www.w3.org/1999/xlink" x="0" y="0" version="1.1" viewBox="0 0 58 58" xml:space="preserve" style="enable-background:new 0 0 58 58"><g><path d="M56.924,36.82c0.001-0.005-0.001-0.011,0.001-0.016C57.62,34.319,58,31.704,58,29s-0.38-5.319-1.075-7.804 c-0.001-0.005,0.001-0.011-0.001-0.016c-0.002-0.008-0.008-0.013-0.01-0.02c-0.261-0.927-0.566-1.834-0.914-2.721v-0.329 c0-0.361-0.201-0.662-0.487-0.838c-0.352-0.792-0.735-1.565-1.154-2.318c0.175,0.149,0.393,0.248,0.641,0.248c0.552,0,1-0.447,1-1 v-0.977c0-0.553-0.448-1-1-1s-1,0.447-1,1v0.977c0,0.06,0.024,0.111,0.034,0.168c-0.071-0.121-0.145-0.239-0.218-0.359 c-0.013-0.022-0.026-0.044-0.04-0.065c-0.069-0.113-0.135-0.228-0.206-0.34c-0.01-0.016-0.027-0.024-0.037-0.039 c-0.651-1.032-1.361-2.023-2.133-2.962c-0.007-0.01-0.009-0.021-0.016-0.031c-0.199-0.241-0.401-0.479-0.607-0.713 c-0.015-0.017-0.036-0.024-0.052-0.04c-0.798-0.903-1.651-1.755-2.555-2.553c-0.015-0.015-0.021-0.035-0.038-0.049 c-0.234-0.205-0.471-0.407-0.711-0.604c-0.007-0.006-0.016-0.007-0.024-0.013c-0.941-0.774-1.934-1.485-2.968-2.137 c-0.015-0.011-0.023-0.027-0.04-0.038c-0.11-0.069-0.223-0.135-0.334-0.202c-0.021-0.013-0.042-0.026-0.064-0.039 c-0.122-0.074-0.244-0.15-0.367-0.222C43.687,3.975,43.745,4,43.812,4h0.977c0.552,0,1-0.447,1-1s-0.448-1-1-1h-0.977 c-0.552,0-1,0.447-1,1c0,0.253,0.102,0.477,0.256,0.653c-0.759-0.423-1.54-0.811-2.339-1.166C40.553,2.201,40.251,2,39.891,2 h-0.329c-0.888-0.349-1.796-0.654-2.724-0.915c-0.006-0.001-0.01-0.006-0.017-0.008c-0.004-0.001-0.009,0-0.013,0 C34.322,0.38,31.705,0,29,0s-5.322,0.38-7.808,1.077c-0.005,0.001-0.009,0-0.013,0c-0.006,0.001-0.01,0.006-0.017,0.008 C20.234,1.346,19.326,1.651,18.438,2h-0.329c-0.361,0-0.662,0.201-0.838,0.487c-0.792,0.352-1.565,0.735-2.318,1.154 C15.102,3.466,15.201,3.248,15.201,3c0-0.553-0.448-1-1-1h-0.977c-0.552,0-1,0.447-1,1s0.448,1,1,1h0.977 c0.06,0,0.112-0.024,0.169-0.034c-0.118,0.069-0.234,0.142-0.351,0.212c-0.028,0.017-0.055,0.033-0.083,0.05 c-0.111,0.068-0.223,0.133-0.333,0.201c-0.016,0.01-0.024,0.026-0.039,0.037C12.532,5.119,11.54,5.829,10.6,6.602 c-0.008,0.006-0.018,0.008-0.026,0.014c-0.241,0.198-0.479,0.4-0.713,0.607C9.844,7.238,9.838,7.257,9.824,7.272 C8.92,8.071,8.066,8.924,7.268,9.828C7.253,9.844,7.233,9.85,7.218,9.866c-0.206,0.234-0.408,0.472-0.607,0.713 c-0.007,0.009-0.008,0.02-0.015,0.029c-0.772,0.938-1.481,1.93-2.132,2.961c-0.011,0.016-0.029,0.025-0.039,0.042 c-0.072,0.115-0.14,0.232-0.21,0.348C4.207,13.97,4.2,13.982,4.193,13.994c-0.077,0.127-0.155,0.253-0.23,0.381 C3.975,14.313,4,14.255,4,14.188v-0.977c0-0.553-0.448-1-1-1s-1,0.447-1,1v0.977c0,0.553,0.448,1,1,1 c0.253,0,0.477-0.102,0.653-0.256c-0.423,0.759-0.811,1.54-1.166,2.339C2.201,17.447,2,17.749,2,18.109v0.329 c-0.348,0.887-0.654,1.795-0.914,2.721c-0.002,0.008-0.008,0.013-0.01,0.02c-0.001,0.005,0.001,0.011-0.001,0.016 C0.38,23.681,0,26.296,0,29s0.38,5.319,1.075,7.804c0.001,0.005-0.001,0.011,0.001,0.016c0.002,0.009,0.008,0.016,0.011,0.025 c0.26,0.925,0.565,1.831,0.913,2.717v0.329c0,0.361,0.201,0.662,0.487,0.838c0.352,0.792,0.735,1.565,1.154,2.318 C3.466,42.898,3.247,42.799,3,42.799c-0.552,0-1,0.447-1,1v0.977c0,0.553,0.448,1,1,1s1-0.447,1-1v-0.977 c0-0.059-0.024-0.11-0.034-0.167c0.074,0.126,0.151,0.25,0.227,0.374c0.007,0.012,0.014,0.024,0.022,0.036 c0.072,0.118,0.141,0.237,0.214,0.353c0.016,0.026,0.039,0.045,0.057,0.069c0.646,1.021,1.349,2.003,2.114,2.933 c0.007,0.01,0.009,0.021,0.016,0.031c0.199,0.241,0.401,0.479,0.607,0.713c0.014,0.016,0.034,0.021,0.049,0.036 c0.799,0.905,1.653,1.758,2.558,2.557c0.015,0.015,0.021,0.035,0.038,0.049c0.234,0.205,0.471,0.407,0.711,0.604 c0.008,0.007,0.019,0.009,0.027,0.015c0.94,0.773,1.932,1.483,2.965,2.135c0.015,0.011,0.023,0.027,0.04,0.038 c0.11,0.069,0.223,0.135,0.334,0.202c0.021,0.013,0.042,0.026,0.064,0.039c0.122,0.074,0.243,0.15,0.367,0.222 C14.313,54.025,14.255,54,14.188,54h-0.977c-0.552,0-1,0.447-1,1s0.448,1,1,1h0.977c0.552,0,1-0.447,1-1 c0-0.252-0.102-0.477-0.256-0.653c0.759,0.423,1.54,0.811,2.339,1.166C17.447,55.799,17.749,56,18.109,56h0.329 c0.888,0.349,1.796,0.654,2.724,0.915c0.006,0.001,0.01,0.006,0.017,0.008c0.007,0.002,0.013,0.001,0.02,0.002 C23.683,57.62,26.297,58,29,58s5.317-0.38,7.801-1.075c0.007-0.001,0.013-0.001,0.02-0.002c0.006-0.001,0.01-0.006,0.017-0.008 c0.928-0.261,1.836-0.566,2.724-0.915h0.329c0.361,0,0.662-0.201,0.838-0.487c0.792-0.352,1.566-0.735,2.318-1.154 c-0.149,0.175-0.248,0.393-0.248,0.641c0,0.553,0.448,1,1,1h0.977c0.552,0,1-0.447,1-1s-0.448-1-1-1h-0.977 c-0.06,0-0.112,0.024-0.169,0.034c0.118-0.069,0.234-0.142,0.351-0.212c0.028-0.017,0.055-0.033,0.083-0.05 c0.111-0.068,0.223-0.133,0.333-0.201c0.016-0.01,0.024-0.026,0.039-0.037c1.031-0.651,2.023-1.36,2.961-2.132 c0.009-0.007,0.021-0.01,0.03-0.017c0.241-0.198,0.479-0.4,0.713-0.607c0.016-0.014,0.022-0.034,0.037-0.049 c0.905-0.8,1.759-1.655,2.559-2.56c0.014-0.014,0.033-0.019,0.046-0.034c0.206-0.234,0.408-0.472,0.607-0.713 c0.007-0.009,0.008-0.02,0.015-0.029c0.765-0.93,1.468-1.912,2.114-2.933c0.018-0.024,0.041-0.043,0.057-0.069 c0.072-0.115,0.14-0.232,0.21-0.348c0.007-0.012,0.015-0.024,0.022-0.036c0.077-0.127,0.155-0.253,0.23-0.381 C54.025,43.688,54,43.745,54,43.812v0.977c0,0.553,0.448,1,1,1s1-0.447,1-1v-0.977c0-0.553-0.448-1-1-1 c-0.253,0-0.477,0.102-0.653,0.256c0.423-0.759,0.811-1.54,1.166-2.339C55.799,40.553,56,40.251,56,39.891v-0.329 c0.348-0.885,0.652-1.791,0.913-2.717C56.915,36.836,56.922,36.83,56.924,36.82z M52.072,43.011 c-2.248,3.688-5.354,6.796-9.039,9.047c-0.031,0.019-0.063,0.038-0.094,0.057c-1.76,1.065-3.653,1.932-5.645,2.576l-2.789-11.156 c4.153-1.579,7.452-4.878,9.031-9.031l11.156,2.789c-0.648,2.001-1.518,3.903-2.591,5.671 C52.091,42.979,52.082,42.995,52.072,43.011z M15.052,52.109c-0.025-0.015-0.05-0.03-0.075-0.045 c-3.687-2.25-6.796-5.36-9.045-9.048c-0.012-0.019-0.024-0.039-0.035-0.058c-1.071-1.766-1.941-3.666-2.588-5.665l11.156-2.789 c1.578,4.153,4.878,7.452,9.031,9.031l-2.789,11.156C18.711,54.045,16.815,53.177,15.052,52.109z M5.928,14.989 c2.248-3.688,5.354-6.796,9.039-9.047c0.031-0.019,0.063-0.038,0.094-0.057c1.76-1.065,3.653-1.932,5.645-2.576l2.789,11.156 c-4.153,1.579-7.452,4.878-9.031,9.031L3.308,20.707c0.648-2.001,1.518-3.903,2.591-5.671C5.909,15.021,5.918,15.005,5.928,14.989z M13.875,25.409C13.601,26.564,13.44,27.762,13.44,29s0.161,2.436,0.435,3.591L2.766,35.368C2.269,33.325,2,31.194,2,29 s0.269-4.325,0.766-6.368L13.875,25.409z M15.44,29c0-7.477,6.083-13.56,13.56-13.56S42.56,21.523,42.56,29S36.477,42.56,29,42.56 S15.44,36.477,15.44,29z M42.948,5.891c0.025,0.015,0.05,0.03,0.075,0.045c3.683,2.248,6.788,5.352,9.036,9.034 c0.018,0.03,0.036,0.059,0.053,0.088c1.066,1.761,1.933,3.655,2.578,5.648l-11.156,2.789c-1.578-4.153-4.878-7.452-9.031-9.031 l2.789-11.156C39.289,3.955,41.185,4.823,42.948,5.891z M56,29c0,2.194-0.269,4.325-0.766,6.368l-11.109-2.777 c0.274-1.155,0.435-2.353,0.435-3.591s-0.161-2.436-0.435-3.591l11.109-2.777C55.731,24.675,56,26.806,56,29z M35.368,2.766 l-2.777,11.11C31.436,13.601,30.238,13.44,29,13.44s-2.436,0.161-3.591,0.435l-2.777-11.11C24.675,2.27,26.806,2,29,2 S33.325,2.27,35.368,2.766z M22.632,55.234l2.777-11.11c1.155,0.274,2.353,0.435,3.591,0.435s2.436-0.161,3.591-0.435l2.777,11.11 C33.325,55.73,31.194,56,29,56S24.675,55.73,22.632,55.234z"/><path d="M3.958,5.639c0.292,0,0.583-0.128,0.78-0.373c0.159-0.198,0.339-0.378,0.534-0.533c0.432-0.345,0.503-0.974,0.159-1.405 C5.086,2.895,4.457,2.824,4.025,3.168C3.715,3.416,3.43,3.699,3.179,4.012C2.833,4.442,2.901,5.072,3.332,5.418 C3.516,5.566,3.737,5.639,3.958,5.639z"/><path d="M3,10.304c0.552,0,1-0.447,1-1V8.326c0-0.553-0.448-1-1-1s-1,0.447-1,1v0.978C2,9.856,2.448,10.304,3,10.304z"/><path d="M8.339,4h0.977c0.552,0,1-0.447,1-1s-0.448-1-1-1H8.339c-0.552,0-1,0.447-1,1S7.787,4,8.339,4z"/><path d="M54,8.339v0.978c0,0.553,0.448,1,1,1s1-0.447,1-1V8.339c0-0.553-0.448-1-1-1S54,7.786,54,8.339z"/><path d="M53.268,5.271c0.198,0.248,0.489,0.377,0.783,0.377c0.219,0,0.438-0.071,0.623-0.218c0.432-0.345,0.503-0.974,0.159-1.405 c-0.249-0.312-0.533-0.597-0.845-0.848c-0.43-0.344-1.06-0.276-1.406,0.154c-0.346,0.431-0.277,1.061,0.154,1.406 C52.932,4.896,53.111,5.075,53.268,5.271z"/><path d="M48.696,4h0.977c0.552,0,1-0.447,1-1s-0.448-1-1-1h-0.977c-0.552,0-1,0.447-1,1S48.144,4,48.696,4z"/><path d="M53.263,52.734c-0.159,0.198-0.339,0.378-0.534,0.533c-0.432,0.345-0.503,0.974-0.159,1.405 c0.198,0.248,0.489,0.377,0.783,0.377c0.219,0,0.438-0.071,0.623-0.218c0.311-0.248,0.596-0.531,0.847-0.844 c0.346-0.431,0.278-1.061-0.153-1.406C54.239,52.237,53.609,52.306,53.263,52.734z"/><path d="M49.661,54h-0.977c-0.552,0-1,0.447-1,1s0.448,1,1,1h0.977c0.552,0,1-0.447,1-1S50.213,54,49.661,54z"/><path d="M55,47.696c-0.552,0-1,0.447-1,1v0.978c0,0.553,0.448,1,1,1s1-0.447,1-1v-0.978C56,48.144,55.552,47.696,55,47.696z"/><path d="M9.304,54H8.327c-0.552,0-1,0.447-1,1s0.448,1,1,1h0.977c0.552,0,1-0.447,1-1S9.856,54,9.304,54z"/><path d="M4,49.661v-0.978c0-0.553-0.448-1-1-1s-1,0.447-1,1v0.978c0,0.553,0.448,1,1,1S4,50.214,4,49.661z"/><path d="M4.732,52.729c-0.345-0.433-0.974-0.502-1.405-0.159c-0.432,0.345-0.503,0.974-0.159,1.405 c0.249,0.312,0.533,0.597,0.845,0.848c0.185,0.147,0.406,0.22,0.625,0.22c0.292,0,0.583-0.128,0.78-0.374 c0.346-0.431,0.277-1.061-0.154-1.406C5.068,53.104,4.889,52.925,4.732,52.729z"/></g></svg>