<svg xmlns="http://www.w3.org/2000/svg" width="23.94" height="24" viewBox="0 0 23.94 24"><defs><style>.cls-1{fill-rule:evenodd}</style></defs><path id="icon-setup.svg" d="M2217.67,1054.67a6.952,6.952,0,0,0-7.06,9.08l-9.4,9.43a3.2,3.2,0,0,0,4.52,4.54l9.4-9.43a6.964,6.964,0,0,0,8.67-8.99,0.856,0.856,0,0,0-1.1-.54,0.752,0.752,0,0,0-.34.21l-3.32,3.33-1.92-.54-0.54-1.93,3.32-3.33a0.881,0.881,0,0,0,.01-1.24,1.078,1.078,0,0,0-.34-0.21A6.823,6.823,0,0,0,2217.67,1054.67Zm-0.15,1.74-2.54,2.55a0.875,0.875,0,0,0-.22.86l0.82,2.88a0.877,0.877,0,0,0,.6.61l2.88,0.82a0.886,0.886,0,0,0,.85-0.22l2.54-2.55a5.214,5.214,0,0,1-7.22,5.12,0.882,0.882,0,0,0-.95.19l-9.78,9.81a1.457,1.457,0,0,1-2.06-2.06l9.79-9.81a0.892,0.892,0,0,0,.18-0.96,5.24,5.24,0,0,1,1.13-5.72A5.186,5.186,0,0,1,2217.52,1056.41Z" class="cls-1" transform="translate(-2200.28 -1054.66)"/></svg>