<svg xmlns="http://www.w3.org/2000/svg" xmlns:xlink="http://www.w3.org/1999/xlink" viewBox="0 0 389.87 86.44"><defs><style>.cls-1{fill:none}.cls-2{fill:#1c1d1f}.cls-3{fill-rule:evenodd;fill:url(#linear-gradient)}.cls-4{fill:#fff}.cls-5{clip-path:url(#clip-path)}.cls-6{clip-path:url(#clip-path-2)}</style><linearGradient id="linear-gradient" x1="43.24" x2="43.24" y2="86.44" gradientUnits="userSpaceOnUse"><stop offset="0" stop-color="#00c244"/><stop offset="1" stop-color="#00d64b"/></linearGradient><clipPath id="clip-path"><rect width="267.44" height="55.4" x="122.46" y="20.44" class="cls-1"/></clipPath><clipPath id="clip-path-2"><rect width="86.4" height="86.4" class="cls-1"/></clipPath><symbol id="RGB_Cash_App" data-name="RGB Cash App" viewBox="0 0 267.41 55.41"><path d="M34,42.4a1.59,1.59,0,0,0-2.12.41A12.34,12.34,0,0,1,21.4,48.08c-8,0-12.92-6.33-12.92-15.37s5-15.49,13-15.49A12.22,12.22,0,0,1,32,22.75a1.6,1.6,0,0,0,2.11.47L37.9,21a1.6,1.6,0,0,0,.58-2.2.57.57,0,0,0-.08-.13,19.78,19.78,0,0,0-17-8.79C8.67,9.9,0,19.18,0,32.71S8.67,55.4,21.27,55.4A20.13,20.13,0,0,0,38.19,47a1.61,1.61,0,0,0-.34-2.26l-.1-.07Z" class="cls-2"/><path d="M62,12.3v1.84C60,11.56,57.2,10,52.71,10c-6.64,0-11.25,3.63-11.25,10,0,7.93,7.07,9.29,11.44,9.9,4.67.68,8.67,1,8.67,4.06,0,2.71-3.14,3.44-5.79,3.44a19.64,19.64,0,0,1-8.72-2.21,1.59,1.59,0,0,0-2.16.63l0,.06-1.4,2.84a1.6,1.6,0,0,0,.66,2.12,26.09,26.09,0,0,0,12.26,3.1c7.62,0,13-3.13,13-10.7V12.3a1.6,1.6,0,0,0-1.6-1.6h-4.2A1.6,1.6,0,0,0,62,12.3Zm-.43,14.45c-1.48-1.11-4.19-1.48-7.08-2s-5.28-1.29-5.28-4.43c0-2.89,2.09-4.24,5.1-4.24,3.75,0,7.26,2.09,7.26,7Z" class="cls-2"/><path d="M76.3,19a1.6,1.6,0,0,0,2.22.21,14.81,14.81,0,0,1,9.29-3c3.45,0,6,1.11,6,3.81,0,2.46-2.34,3-8,3.94-6,1-11.75,3-11.75,9.84,0,7.13,6.15,10.14,13.16,10.14a19.63,19.63,0,0,0,12.19-4,1.6,1.6,0,0,0,.29-2.23l-.07-.08-2-2.35a1.62,1.62,0,0,0-2.2-.25A14,14,0,0,1,87,37.75c-3,0-5.53-.86-5.53-3.19,0-2.59,3.63-3.08,7.26-3.69,7.74-1.36,12.66-3.57,12.66-10,0-6.77-5.41-11-14-11a20.14,20.14,0,0,0-13,4.25,1.62,1.62,0,0,0-.23,2.27l0,0Z" class="cls-2"/><path d="M106.08,12.3V53a1.6,1.6,0,0,0,1.6,1.6h4.61a1.6,1.6,0,0,0,1.6-1.6V39.11a11.94,11.94,0,0,0,9.9,4.79c6.83,0,10.82-4.86,10.82-11.8V12.3a1.6,1.6,0,0,0-1.6-1.6H128.4a1.6,1.6,0,0,0-1.6,1.6v18c0,3.45-1.1,6.58-5.53,6.58-4.18,0-7.38-3-7.38-7.87V12.3a1.6,1.6,0,0,0-1.6-1.6h-4.61A1.6,1.6,0,0,0,106.08,12.3Z" class="cls-2"/><path d="M185.34,11.79,182,21.58H165.24l-3.32-9.79a1.6,1.6,0,0,0-1.52-1.09H155a1.6,1.6,0,0,0-1.6,1.6,1.54,1.54,0,0,0,.1.56l15.1,40.7a1.6,1.6,0,0,0,1.5,1h7.43a1.6,1.6,0,0,0,1.5-1l15.05-40.71a1.6,1.6,0,0,0-1-2,1.49,1.49,0,0,0-.55-.1h-5.72A1.6,1.6,0,0,0,185.34,11.79ZM173.72,47.47,167.27,28.4h12.66Z" class="cls-2"/><path d="M205.64,41.56V39a11.72,11.72,0,0,0,10,4.86c8.86,0,14.58-7.32,14.58-16.91s-5.72-17-14.58-17a11.73,11.73,0,0,0-10,4.92V1.6A1.6,1.6,0,0,0,204,0h-4.61a1.6,1.6,0,0,0-1.6,1.6h0v40a1.6,1.6,0,0,0,1.6,1.6H204a1.61,1.61,0,0,0,1.64-1.56ZM214,16.79c5.41,0,8.06,4.61,8.06,10.2S219.41,37.08,214,37.08s-8.36-4.49-8.36-10.09S208.53,16.79,214,16.79Z" class="cls-2"/><path d="M242.84,41.56V39a11.76,11.76,0,0,0,10,4.86c8.85,0,14.57-7.32,14.57-16.91s-5.72-17-14.57-17a11.76,11.76,0,0,0-10,4.92V1.6a1.6,1.6,0,0,0-1.6-1.6h-4.6A1.6,1.6,0,0,0,235,1.6h0v40a1.59,1.59,0,0,0,1.58,1.6h4.62a1.59,1.59,0,0,0,1.6-1.58Zm8.37-24.77c5.41,0,8,4.61,8,10.2s-2.64,10.09-8,10.09-8.37-4.49-8.37-10.09,2.9-10.2,8.37-10.2Z" class="cls-2"/></symbol><symbol id="RGB_Dollar" data-name="RGB Dollar" viewBox="0 0 86.48 86.44"><path d="M56.28,86.44c8.72,0,13,0,17.72-1.48A18.31,18.31,0,0,0,85,74c1.48-4.67,1.48-9,1.48-17.68V30.16c0-8.67,0-13-1.48-17.68a18.31,18.31,0,0,0-11-11C69.33,0,65,0,56.32,0H30.12c-8.67,0-13,0-17.68,1.48a18.31,18.31,0,0,0-11,11C0,17.15,0,21.44,0,30.16V56.32C0,65,0,69.32,1.48,74a18.31,18.31,0,0,0,11,11c4.63,1.44,9,1.44,17.64,1.44Z" class="cls-3"/><path d="M45.4,58.11A18,18,0,0,0,57,53.85a1.77,1.77,0,0,1,2.43,0l3.34,3.35a1.72,1.72,0,0,1,0,2.42l-.1.09a26.51,26.51,0,0,1-8.93,5l1,4.93a1.74,1.74,0,0,1-1.35,2,1.47,1.47,0,0,1-.36,0H46.61a1.75,1.75,0,0,1-1.71-1.37L44,66c-8.56-.42-15.82-4.66-15.82-13.35,0-7.51,6-10.74,12.34-13,6-2.23,9.18-3.06,9.18-6.2s-3.17-5.12-7.84-5.12A17.27,17.27,0,0,0,29.67,33.1a1.73,1.73,0,0,1-2.44,0l-3.58-3.5a1.73,1.73,0,0,1,0-2.45l0,0A23.79,23.79,0,0,1,34,21.44l-1-4.57a1.78,1.78,0,0,1,1.38-2.1,1.17,1.17,0,0,1,.32,0h6.45a1.75,1.75,0,0,1,1.72,1.38l.93,4.33c10.26.63,16.53,6.15,16.53,14.23,0,7.44-6.25,10.58-13.84,13.14-4.34,1.63-8.09,2.7-8.09,5.92S41.9,58.11,45.4,58.11Z" class="cls-4"/></symbol></defs><g id="Layer_2" data-name="Layer 2"><g id="Layer_1-2" data-name="Layer 1"><g class="cls-5"><use width="267.41" height="55.41" transform="matrix(1, 0, 0, -1, 122.46, 75.66)" xlink:href="#RGB_Cash_App"/></g><g class="cls-6"><use id="RGB_Dollar-3" width="86.48" height="86.44" data-name="RGB Dollar-3" transform="matrix(1, 0, 0, -1, 0, 86.44)" xlink:href="#RGB_Dollar"/></g></g></g></svg>