<svg xmlns="http://www.w3.org/2000/svg" xmlns:svg="http://www.w3.org/2000/svg" id="svg2" width="656" height="149" version="1.0" viewBox="-0.471 -0.305 656 149" xml:space="preserve"><g id="g6"><g id="g8"><g id="g10"><polygon style="fill:#036;fill-rule:evenodd" id="polygon12" points="168.952 .41 189.457 .41 189.457 121.731 168.952 121.731 168.952 .41"/><path style="fill:#036;fill-rule:evenodd" id="path14" d="M 88.927,44.212 C 88.927,41.341 86.954,39.778 84.689,39.778 C 82.435,39.778 80.411,41.296 80.411,44.212 L 80.411,102.642 C 80.411,105.554 82.434,107.076 84.689,107.076 C 86.955,107.076 88.927,105.486 88.927,102.642 L 88.927,83.494 L 109.412,83.494 L 109.412,101.144 C 109.412,115.461 98.153,122.923 84.594,122.923 C 71.626,122.923 59.922,115.701 59.922,101.144 L 59.922,45.698 C 59.922,31.172 71.627,23.929 84.594,23.929 C 97.924,23.929 109.412,31.397 109.412,45.698 L 109.412,61.503 L 88.927,61.503 L 88.927,44.212 L 88.927,44.212 z"/><path style="fill:#036;fill-rule:evenodd" id="path16" d="M 134.907,46.843 C 134.907,43.928 136.924,42.41 139.179,42.41 C 141.442,42.41 143.424,43.982 143.424,46.843 L 143.424,121.741 L 163.928,121.741 L 163.928,41.494 C 163.928,28.417 155.453,23.912 148.985,23.912 C 141.759,23.912 136.682,29.135 135.281,31.787 L 134.949,31.787 L 134.949,0.41 L 114.445,0.41 L 114.445,121.741 L 134.906,121.741 L 134.906,46.843 L 134.907,46.843 z"/><path style="fill:#036;fill-rule:evenodd" id="path18" d="M 223.467,100.896 C 223.467,103.75 221.486,105.332 219.222,105.332 C 216.974,105.332 214.95,103.811 214.95,100.896 L 214.95,25.057 L 194.456,25.057 L 194.456,105.588 C 194.456,116.266 201.82,122.924 209.722,122.924 C 217.729,122.924 222.075,117.12 223.305,114.994 L 223.767,114.994 L 224.134,121.741 L 243.962,121.741 L 243.962,25.057 L 223.468,25.057 L 223.468,100.896 L 223.467,100.896 z"/><path style="fill:#036;fill-rule:evenodd" id="path20" d="M 269.456,121.741 L 248.96,121.741 L 248.96,25.057 L 269.26,25.057 L 269.465,31.801 L 269.875,31.801 C 271.379,28.834 276.256,23.912 283.647,23.912 C 291.301,23.912 296.222,29.808 297.273,33.277 L 297.563,33.277 C 299.093,29.75 304.459,23.912 312.223,23.912 C 320.067,23.912 327.583,29.233 327.583,42.393 L 327.583,121.741 L 307.08,121.741 L 307.08,45.886 C 307.08,42.964 305.074,41.443 302.816,41.443 C 300.551,41.443 298.553,43.012 298.553,45.886 L 298.553,121.741 L 277.955,121.741 L 277.955,45.921 C 277.955,42.998 275.913,41.478 273.659,41.478 C 271.394,41.478 269.455,43.053 269.455,45.921 L 269.455,121.741 L 269.456,121.741 z"/><path style="fill:#036;fill-rule:evenodd" id="path22" d="M 366.619,23.912 C 359.759,23.905 354.823,29.716 353.531,31.835 L 353.093,31.835 L 353.093,0.41 L 332.592,0.41 L 332.592,121.741 L 352.864,121.741 L 353.093,114.994 L 353.531,114.994 C 354.556,117.598 358.955,122.886 366.474,122.896 C 375.153,122.907 382.21,115.428 382.21,104.118 L 382.21,41.494 C 382.21,30.618 374.852,23.912 366.619,23.912 L 366.619,23.912 z M 361.638,100.929 C 361.638,103.794 359.656,105.367 357.382,105.367 C 355.13,105.367 353.103,103.839 353.103,100.929 L 353.103,45.949 C 353.103,43.033 355.13,41.515 357.382,41.515 C 359.655,41.515 361.638,43.094 361.638,45.949 L 361.638,100.929 L 361.638,100.929 z"/><path style="fill:#036;fill-rule:evenodd" id="path24" d="M 407.712,102.689 C 407.712,105.604 409.745,107.126 412.001,107.126 C 414.257,107.126 416.236,105.554 416.236,102.689 L 416.236,83.494 L 436.727,83.494 L 436.727,101.128 C 436.727,115.708 424.729,122.924 411.915,122.924 C 398.937,122.924 387.189,115.708 387.189,101.128 L 387.189,45.732 C 387.189,31.199 398.919,23.929 411.898,23.929 C 425.217,23.929 436.726,31.363 436.726,45.732 L 436.726,76.972 L 407.71,76.972 L 407.71,102.689 L 407.712,102.689 z M 416.237,62.228 L 416.237,44.229 C 416.237,41.369 414.258,39.796 412.002,39.796 C 409.746,39.796 407.713,41.306 407.713,44.229 L 407.731,62.228 L 416.237,62.228 L 416.237,62.228 z"/><path style="fill:#036;fill-rule:evenodd" id="path26" d="M 466.56,41.494 C 464.314,41.494 462.27,43.012 462.27,45.937 L 462.27,121.741 L 441.755,121.741 L 441.755,25.057 L 461.859,25.057 L 462.253,31.787 L 462.707,31.787 C 464.642,29.1 469.591,23.912 476.44,23.912 C 484.379,23.912 491.308,30.351 491.308,40.578 L 491.308,76.87 L 470.793,76.87 L 470.793,45.295 C 470.793,42.982 468.582,41.494 466.514,41.494 L 466.56,41.494 L 466.56,41.494 z"/><path style="fill:#036;fill-rule:evenodd" id="path28" d="M 571.265,102.689 C 571.265,105.604 573.306,107.126 575.555,107.126 C 577.818,107.126 579.793,105.554 579.793,102.689 L 579.793,83.494 L 600.287,83.494 L 600.287,101.128 C 600.287,115.708 588.266,122.924 575.47,122.924 C 562.491,122.924 550.761,115.708 550.761,101.128 L 550.761,45.732 C 550.761,31.199 562.474,23.929 575.452,23.929 C 588.768,23.929 600.287,31.363 600.287,45.732 L 600.287,76.972 L 571.265,76.972 L 571.265,102.689 L 571.265,102.689 z M 579.793,62.228 L 579.793,44.229 C 579.793,41.369 577.817,39.796 575.555,39.796 C 573.306,39.796 571.265,41.306 571.265,44.229 L 571.283,62.228 L 579.793,62.228 L 579.793,62.228 z"/><path style="fill:#036;fill-rule:evenodd" id="path30" d="M 630.054,41.494 C 627.779,41.494 625.755,43.012 625.755,45.937 L 625.755,121.741 L 605.234,121.741 L 605.234,25.057 L 625.328,25.057 L 625.738,31.787 L 626.182,31.787 C 628.12,29.1 633.076,23.912 639.929,23.912 C 647.872,23.912 654.804,30.351 654.804,40.578 L 654.804,76.87 L 634.273,76.87 L 634.273,45.295 C 634.273,42.982 632.061,41.494 630,41.494 L 630.054,41.494 L 630.054,41.494 z"/><path style="fill:#036;fill-rule:evenodd" id="path32" d="M 525.294,94.872 C 525.294,97.726 523.328,99.299 521.056,99.299 C 518.806,99.299 516.777,97.788 516.777,94.872 L 516.777,45.965 C 516.777,43.06 518.806,41.549 521.056,41.549 C 523.328,41.549 525.294,43.108 525.294,45.965 L 525.294,94.872 L 525.294,94.872 z M 525.294,128.823 C 525.294,131.684 523.317,133.249 521.056,133.249 C 518.806,133.249 516.777,131.728 516.777,128.823 L 516.777,120.982 L 496.306,120.982 L 496.306,126.311 C 496.306,141.424 506.728,148.148 520.988,148.148 C 535.134,148.148 545.805,141.424 545.805,126.311 L 545.805,25.057 L 525.601,25.057 L 525.294,31.835 L 524.798,31.835 C 523.728,29.62 518.929,23.912 511.283,23.912 C 503.889,23.912 496.305,29.593 496.305,40.093 L 496.305,97.836 C 496.305,108.894 503.405,115.35 511.403,115.35 C 519.005,115.35 523.43,110.267 524.688,108.254 L 525.293,108.254 L 525.293,128.823 L 525.294,128.823 z"/><path style="fill:#036;fill-rule:evenodd" id="path34" d="M 23.077,101.128 C 23.077,104.05 25.109,105.571 27.366,105.571 C 29.627,105.571 31.595,103.988 31.595,101.128 L 31.595,89.663 C 31.595,80.514 29.636,77.191 22.843,70.807 C 17.053,65.359 14.131,62.556 10.39,59.029 C 5.604,54.503 0.083,48.2 0.083,36.422 L 0.083,21.889 C 0.077,5.937 13.352,0 27.338,0 C 41.28,0 54.446,6.067 54.446,21.776 L 54.446,40.513 L 31.594,40.513 L 31.594,22.333 C 31.594,19.469 29.62,17.896 27.356,17.896 C 25.1,17.896 23.077,19.42 23.077,22.333 L 23.077,31.062 C 23.077,38.623 25.444,41.948 31.712,47.933 C 34.233,50.346 39.939,55.897 44.331,60.18 C 52.184,67.873 54.899,74.812 54.899,84.355 L 54.899,100.597 C 54.899,117.485 41.306,123.415 27.338,123.415 C 13.19,123.416 0,117.485 0,101.401 L 0,78.135 L 23.077,78.135 L 23.077,101.128 L 23.077,101.128 z"/></g></g></g></svg>