<svg xmlns="http://www.w3.org/2000/svg" viewBox="0 0 861.9 229.78"><defs><clipPath id="a58b9023-843b-4431-9666-dcefc6c3be8d"><path fill="none" d="M31 1.78h23.8v23.8H31z"/></clipPath><style>.a882157a-8bf2-4bb6-911c-a19b0e68dadd,.b0de2207-b132-4c81-b55c-2cb90527386e,.b56fd367-3c6e-4f22-a6a4-2f2ec74eccf1,.f8d59571-1281-4937-a1fb-b075ee83ccca,.fa9feeca-d901-41e7-b6ab-ee3512279f8e{fill:none}.b600a5e2-6b63-4525-a08c-1d77abc658a8{fill:#e5e5e4}.a5a6cb5e-e408-44b4-8dbe-597c067af83b{fill:#fff}.b0cc6676-633c-4f7c-acd1-42d9601cdfbf{font-size:13.69px}.b0cc6676-633c-4f7c-acd1-42d9601cdfbf,.f8875836-8920-49d1-a601-7f79f0db3163{font-family:GoogleSans-Regular,Google Sans}.acca4613-a42a-44df-808c-e9d883658fe0{letter-spacing:-.02em}.eb00fede-d7df-4e8e-8b9a-774f44e784a1{letter-spacing:-.01em}.e7452eca-15d1-46f4-8326-556d691f1188{letter-spacing:-.02em}.a882157a-8bf2-4bb6-911c-a19b0e68dadd{stroke:#e905ee;stroke-width:3px;stroke-linejoin:round}.b56fd367-3c6e-4f22-a6a4-2f2ec74eccf1,.f8d59571-1281-4937-a1fb-b075ee83ccca,.fa9feeca-d901-41e7-b6ab-ee3512279f8e{stroke-linejoin:round}.e5621899-2a4b-488e-a3b1-5e7580f3bb6c{fill:#486baf}.e586560b-19d9-4bf3-81a4-26e4836da638{fill:#e6e6e6}.f8875836-8920-49d1-a601-7f79f0db3163{font-size:14px}.b340e8a1-282c-4e31-b29b-549de6e034a8{letter-spacing:.02em}.b02bc810-aa01-45a8-ac13-4ec7078b0d31{letter-spacing:0}.a1362386-c9e6-464d-bfa9-f00e1bbcffbc{fill:#757575}.b0de2207-b132-4c81-b55c-2cb90527386e,.f8d59571-1281-4937-a1fb-b075ee83ccca{stroke:#fff;stroke-width:2px}.b0de2207-b132-4c81-b55c-2cb90527386e,.b56fd367-3c6e-4f22-a6a4-2f2ec74eccf1,.fa9feeca-d901-41e7-b6ab-ee3512279f8e{stroke-linecap:round}.b0de2207-b132-4c81-b55c-2cb90527386e{stroke-miterlimit:10}.b52b7def-8c57-4fd8-971d-6190b55b4a1b{font-size:8px;font-family:GoogleSansDisplay-Regular,Google Sans Display}.e0552c6b-85d7-438f-9f3e-85b05865e37c{letter-spacing:-.01em}.b6932110-26db-4fa4-9393-e4e90de849c0{letter-spacing:0}.b636a67f-c4df-49c0-9782-288aa2a81fe9{letter-spacing:-.02em}.fa9feeca-d901-41e7-b6ab-ee3512279f8e{stroke:#009345}.b56fd367-3c6e-4f22-a6a4-2f2ec74eccf1,.fa9feeca-d901-41e7-b6ab-ee3512279f8e{stroke-width:4px}.a56bb5d8-cea9-4d6c-b847-574f741e019f{fill:#009345}.b56fd367-3c6e-4f22-a6a4-2f2ec74eccf1{stroke:#818181}.ba18535d-f1a7-402a-9514-9ec92cd2a069{fill:#818181}.bfc17972-82c5-49c3-b025-73513c27928b{font-size:7px;font-family:MyriadPro-Regular,Myriad Pro}</style></defs><g id="b3f9d67a-d01c-4b93-9c2b-be9b65fd9ea6" data-name="Layer 10"><rect class="b600a5e2-6b63-4525-a08c-1d77abc658a8" x="561.47" y="103.34" width="105.64" height="105.64" rx="3"/><rect class="a5a6cb5e-e408-44b4-8dbe-597c067af83b" x="570.28" y="173.77" width="88.04" height="26.41" rx="3"/><text class="b0cc6676-633c-4f7c-acd1-42d9601cdfbf" transform="translate(586.94 191.72)"><tspan class="acca4613-a42a-44df-808c-e9d883658fe0">G</tspan><tspan class="eb00fede-d7df-4e8e-8b9a-774f44e784a1" x="10.93" y="0">a</tspan><tspan class="e7452eca-15d1-46f4-8326-556d691f1188" x="18.06" y="0">t</tspan><tspan class="eb00fede-d7df-4e8e-8b9a-774f44e784a1" x="22.77" y="0">ewa</tspan><tspan x="47.99" y="0">y</tspan></text><rect class="a5a6cb5e-e408-44b4-8dbe-597c067af83b" x="587.88" y="112.15" width="52.82" height="52.82" rx="3"/><path class="a882157a-8bf2-4bb6-911c-a19b0e68dadd" d="M627.27 146.04v-14.96l-12.98-7.49-12.97 7.49v14.96l12.97 7.49 12.98-7.49z"/><path id="f73b5221-aba3-4596-8e16-d0fd539d86fe" data-name="background" class="e5621899-2a4b-488e-a3b1-5e7580f3bb6c" d="M566.02 103.34h20v20h-20z"/><path id="a80df669-7909-4953-a731-39da38ed318b" data-name="hull" class="a5a6cb5e-e408-44b4-8dbe-597c067af83b" d="M570.02 120.09h12l-7.5 2.25-4.5-2.25z"/><path id="ad56c77b-aad8-4602-b4c0-7b95fc267338" data-name="mainsail" class="a5a6cb5e-e408-44b4-8dbe-597c067af83b" d="M570.02 119.34l4.5-.75v-8.25l-4.5 9z"/><path id="ae20dcc2-027f-41a4-bbd0-b72e02df85aa" data-name="headsail" class="a5a6cb5e-e408-44b4-8dbe-597c067af83b" d="M575.27 118.59l6.75.75-6.75-15v14.25z"/><rect class="b600a5e2-6b63-4525-a08c-1d77abc658a8" x="55.74" y="103.34" width="105.64" height="105.64" rx="3"/><rect class="a5a6cb5e-e408-44b4-8dbe-597c067af83b" x="64.55" y="173.77" width="88.04" height="26.41" rx="3"/><text class="b0cc6676-633c-4f7c-acd1-42d9601cdfbf" transform="translate(81.21 191.72)"><tspan class="acca4613-a42a-44df-808c-e9d883658fe0">G</tspan><tspan class="eb00fede-d7df-4e8e-8b9a-774f44e784a1" x="10.93" y="0">a</tspan><tspan class="e7452eca-15d1-46f4-8326-556d691f1188" x="18.06" y="0">t</tspan><tspan class="eb00fede-d7df-4e8e-8b9a-774f44e784a1" x="22.77" y="0">ewa</tspan><tspan x="47.99" y="0">y</tspan></text><rect class="a5a6cb5e-e408-44b4-8dbe-597c067af83b" x="82.15" y="112.15" width="52.82" height="52.82" rx="3"/><path class="a882157a-8bf2-4bb6-911c-a19b0e68dadd" d="M121.53 146.04v-14.96l-12.97-7.49-12.97 7.49v14.96l12.97 7.49 12.97-7.49z"/><path id="fc55d0ae-4613-4091-bc78-1a33fa974a9f" data-name="background" class="e5621899-2a4b-488e-a3b1-5e7580f3bb6c" d="M60.29 103.34h20v20h-20z"/><path id="f2cfe013-ff68-42dd-b88c-0732317fca03" data-name="hull" class="a5a6cb5e-e408-44b4-8dbe-597c067af83b" d="M64.29 120.09h12l-7.5 2.25-4.5-2.25z"/><path id="bc7801b3-371d-4870-98ee-cf2e933707b8" data-name="mainsail" class="a5a6cb5e-e408-44b4-8dbe-597c067af83b" d="M64.29 119.34l4.5-.75v-8.25l-4.5 9z"/><path id="bbccd5dc-f595-47da-92f4-5c95e55fb508" data-name="headsail" class="a5a6cb5e-e408-44b4-8dbe-597c067af83b" d="M69.54 118.59l6.75.75-6.75-15v14.25z"/><rect x="31.5" y="1.28" width="655" height="228" rx="10" stroke="#466bb0" stroke-dasharray="10.05 10.05" stroke-linejoin="round" fill="none"/><rect class="e586560b-19d9-4bf3-81a4-26e4836da638" x="208.9" y="9.78" width="136" height="161" rx="3"/><rect class="a5a6cb5e-e408-44b4-8dbe-597c067af83b" x="249.9" y="111.64" width="54" height="54" rx="3"/><path class="a882157a-8bf2-4bb6-911c-a19b0e68dadd" d="M290.16 146.29v-15.3l-13.26-7.65-13.26 7.65v15.3l13.26 7.65 13.26-7.65z"/><rect class="a5a6cb5e-e408-44b4-8dbe-597c067af83b" x="218.4" y="18.64" width="117" height="54" rx="3"/><text class="f8875836-8920-49d1-a601-7f79f0db3163" transform="translate(270.32 50.48)">Se<tspan class="b340e8a1-282c-4e31-b29b-549de6e034a8" x="15.74" y="0">r</tspan><tspan x="21.22" y="0">v</tspan><tspan class="b02bc810-aa01-45a8-ac13-4ec7078b0d31" x="28.42" y="0">ic</tspan><tspan x="39.09" y="0">e</tspan><tspan x="46.97" y="0" letter-spacing="-.03em"> </tspan><tspan x="49.8" y="0">A</tspan></text><circle class="a1362386-c9e6-464d-bfa9-f00e1bbcffbc" cx="245.4" cy="45.64" r="18"/><path class="f8d59571-1281-4937-a1fb-b075ee83ccca" d="M239 39.13h12.79v12.79H239z"/><path class="b0de2207-b132-4c81-b55c-2cb90527386e" d="M241.37 39.13v-3.08m4.03 3.08v-3.08m4.02 3.08v-3.08m-8.05 19.18v-3.08m4.03 3.08v-3.08m4.02 3.08v-3.08m-10.54-2.49h-3.07m3.07-4.02h-3.07m3.07-4.03h-3.07m19.18 8.05h-3.08m3.08-4.02h-3.08m3.08-4.03h-3.08"/><rect class="a5a6cb5e-e408-44b4-8dbe-597c067af83b" x="242.56" y="42.68" width="5.68" height="5.68" rx="2"/><rect class="e586560b-19d9-4bf3-81a4-26e4836da638" x="376.9" y="9.78" width="136" height="161" rx="3"/><rect class="a5a6cb5e-e408-44b4-8dbe-597c067af83b" x="417.9" y="111.64" width="54" height="54" rx="3"/><path class="a882157a-8bf2-4bb6-911c-a19b0e68dadd" d="M458.16 146.29v-15.3l-13.26-7.65-13.26 7.65v15.3l13.26 7.65 13.26-7.65z"/><rect class="a5a6cb5e-e408-44b4-8dbe-597c067af83b" x="386.4" y="18.64" width="117" height="54" rx="3"/><text class="f8875836-8920-49d1-a601-7f79f0db3163" transform="translate(438.55 50.48)">Se<tspan class="b340e8a1-282c-4e31-b29b-549de6e034a8" x="15.74" y="0">r</tspan><tspan x="21.22" y="0">v</tspan><tspan class="b02bc810-aa01-45a8-ac13-4ec7078b0d31" x="28.42" y="0">ic</tspan><tspan x="39.09" y="0">e B</tspan></text><circle class="a1362386-c9e6-464d-bfa9-f00e1bbcffbc" cx="413.4" cy="45.64" r="18"/><path class="f8d59571-1281-4937-a1fb-b075ee83ccca" d="M407 39.13h12.79v12.79H407z"/><path class="b0de2207-b132-4c81-b55c-2cb90527386e" d="M409.37 39.13v-3.08m4.03 3.08v-3.08m4.02 3.08v-3.08m-8.05 19.18v-3.08m4.03 3.08v-3.08m4.02 3.08v-3.08m-10.54-2.49h-3.07m3.07-4.02h-3.07m3.07-4.03h-3.07m19.18 8.05h-3.08m3.08-4.02h-3.08m3.08-4.03h-3.08"/><rect class="a5a6cb5e-e408-44b4-8dbe-597c067af83b" x="410.56" y="42.68" width="5.68" height="5.68" rx="2"/><g clip-path="url(#a58b9023-843b-4431-9666-dcefc6c3be8d)"><path d="M36.95 20.37h11.9l-7.44 2.24-4.46-2.24zm0-.74l4.46-.74v-8.18l-4.46 8.92z" fill="#466bb0"/><path fill="#476baf" d="M42.16 18.89l6.69.74-6.69-14.87v14.13z"/></g><rect class="e586560b-19d9-4bf3-81a4-26e4836da638" x="726.9" y="103.78" width="135" height="72" rx="3"/><rect class="a5a6cb5e-e408-44b4-8dbe-597c067af83b" x="735.9" y="112.78" width="117" height="54" rx="3"/><text class="f8875836-8920-49d1-a601-7f79f0db3163" transform="translate(793.92 144.02)">Se<tspan class="b340e8a1-282c-4e31-b29b-549de6e034a8" x="15.74" y="0">r</tspan><tspan x="21.22" y="0">v</tspan><tspan class="b02bc810-aa01-45a8-ac13-4ec7078b0d31" x="28.42" y="0">ic</tspan><tspan x="39.09" y="0">e</tspan></text><circle class="a1362386-c9e6-464d-bfa9-f00e1bbcffbc" cx="762.9" cy="139.78" r="18"/><path class="f8d59571-1281-4937-a1fb-b075ee83ccca" d="M756.51 133.27h12.79v12.79h-12.79z"/><path class="b0de2207-b132-4c81-b55c-2cb90527386e" d="M758.87 133.27v-3.08m4.03 3.08v-3.08m4.03 3.08v-3.08m-8.06 19.18v-3.08m4.03 3.08v-3.08m4.03 3.08v-3.08m-10.54-2.48h-3.08m3.08-4.03h-3.08m3.08-4.03h-3.08m19.18 8.06h-3.08m3.08-4.03h-3.08m3.08-4.03h-3.08"/><rect class="a5a6cb5e-e408-44b4-8dbe-597c067af83b" x="760.06" y="136.82" width="5.68" height="5.68" rx="2"/><text class="b52b7def-8c57-4fd8-971d-6190b55b4a1b" transform="translate(730.02 18.31)">D<tspan class="e0552c6b-85d7-438f-9f3e-85b05865e37c" x="5.61" y="0">at</tspan><tspan x="12.49" y="0">a </tspan><tspan class="e0552c6b-85d7-438f-9f3e-85b05865e37c" x="18.52" y="0">p</tspan><tspan class="b6932110-26db-4fa4-9393-e4e90de849c0" x="23.13" y="0">l</tspan><tspan x="24.76" y="0">ane t</tspan><tspan x="42.49" y="0" letter-spacing="-.02em">r</tspan><tspan class="e0552c6b-85d7-438f-9f3e-85b05865e37c" x="45.26" y="0">a</tspan><tspan class="b636a67f-c4df-49c0-9782-288aa2a81fe9" x="49.35" y="0">f</tspan><tspan class="e0552c6b-85d7-438f-9f3e-85b05865e37c" x="52.15" y="0">f</tspan><tspan class="b6932110-26db-4fa4-9393-e4e90de849c0" x="55.03" y="0">i</tspan><tspan x="56.78" y="0">c</tspan></text><path class="fa9feeca-d901-41e7-b6ab-ee3512279f8e" d="M726.9 6.78h121.43"/><path class="a56bb5d8-cea9-4d6c-b847-574f741e019f" d="M840.36 13.56l6.79-6.78L840.36 0h5.76l6.78 6.78-6.78 6.78h-5.76z"/><text class="b52b7def-8c57-4fd8-971d-6190b55b4a1b" transform="translate(730.02 44.31)"><tspan class="e0552c6b-85d7-438f-9f3e-85b05865e37c">E</tspan><tspan x="4.32" y="0">x</tspan><tspan x="8.13" y="0" letter-spacing="-.02em">t</tspan><tspan x="10.82" y="0">er</tspan><tspan x="18.14" y="0" letter-spacing="-.01em">n</tspan><tspan x="22.54" y="0">al t</tspan><tspan class="b636a67f-c4df-49c0-9782-288aa2a81fe9" x="33.1" y="0">r</tspan><tspan class="e0552c6b-85d7-438f-9f3e-85b05865e37c" x="35.87" y="0">a</tspan><tspan class="b636a67f-c4df-49c0-9782-288aa2a81fe9" x="39.97" y="0">f</tspan><tspan class="e0552c6b-85d7-438f-9f3e-85b05865e37c" x="42.77" y="0">f</tspan><tspan class="b6932110-26db-4fa4-9393-e4e90de849c0" x="45.65" y="0">i</tspan><tspan x="47.4" y="0">c</tspan></text><path class="b56fd367-3c6e-4f22-a6a4-2f2ec74eccf1" d="M726.9 28.78h6"/><path stroke-dasharray="2.15 12.87" stroke="#818181" stroke-width="4" stroke-linecap="round" stroke-linejoin="round" fill="none" d="M745.77 28.78h8.59"/><path stroke-dasharray="12.87 12.87 2.15 12.87" stroke="#818181" stroke-width="4" stroke-linecap="round" stroke-linejoin="round" fill="none" d="M760.79 28.78h75.1"/><path class="b56fd367-3c6e-4f22-a6a4-2f2ec74eccf1" d="M842.33 28.78h6"/><path class="ba18535d-f1a7-402a-9514-9ec92cd2a069" d="M840.36 35.56l6.79-6.78-6.79-6.78h5.76l6.78 6.78-6.78 6.78h-5.76z"/><path class="fa9feeca-d901-41e7-b6ab-ee3512279f8e" d="M135 139.78h110.43"/><path class="a56bb5d8-cea9-4d6c-b847-574f741e019f" d="M237.46 146.56l6.79-6.78-6.79-6.78h5.76l6.78 6.78-6.78 6.78h-5.76z"/><path class="fa9feeca-d901-41e7-b6ab-ee3512279f8e" d="M304 139.78h109.43"/><path class="a56bb5d8-cea9-4d6c-b847-574f741e019f" d="M405.46 146.56l6.79-6.78-6.79-6.78h5.76l6.78 6.78-6.78 6.78h-5.76z"/><path class="fa9feeca-d901-41e7-b6ab-ee3512279f8e" d="M472 139.78h110.43"/><path class="a56bb5d8-cea9-4d6c-b847-574f741e019f" d="M574.46 146.56l6.79-6.78-6.79-6.78h5.76l6.78 6.78-6.78 6.78h-5.76z"/><path class="fa9feeca-d901-41e7-b6ab-ee3512279f8e" d="M277 107.21V77.35"/><path class="a56bb5d8-cea9-4d6c-b847-574f741e019f" d="M283.78 99.24l-6.78 6.79-6.78-6.79V105l6.78 6.78 6.78-6.78v-5.76zm0-13.92L277 78.53l-6.78 6.79v-5.76l6.78-6.78 6.78 6.78v5.76z"/><path class="fa9feeca-d901-41e7-b6ab-ee3512279f8e" d="M445 107.21V77.35"/><path class="a56bb5d8-cea9-4d6c-b847-574f741e019f" d="M451.78 99.24l-6.78 6.79-6.78-6.79V105l6.78 6.78 6.78-6.78v-5.76zm0-13.92L445 78.53l-6.78 6.79v-5.76l6.78-6.78 6.78 6.78v5.76z"/><path class="b56fd367-3c6e-4f22-a6a4-2f2ec74eccf1" d="M77.43 139.78h-6"/><path stroke-dasharray="1.98 11.89" stroke="#818181" stroke-width="4" stroke-linecap="round" stroke-linejoin="round" fill="none" d="M59.54 139.78h-7.93"/><path stroke-dasharray="11.89 11.89 1.98 11.89" stroke="#818181" stroke-width="4" stroke-linecap="round" stroke-linejoin="round" fill="none" d="M45.66 139.78H13.95"/><path class="b56fd367-3c6e-4f22-a6a4-2f2ec74eccf1" d="M8 139.78H2"/><path class="ba18535d-f1a7-402a-9514-9ec92cd2a069" d="M69.46 133l6.79 6.78-6.79 6.78h5.76l6.78-6.78-6.78-6.78h-5.76z"/><path class="b56fd367-3c6e-4f22-a6a4-2f2ec74eccf1" d="M640 139.78h6"/><path stroke-dasharray="2.48 14.89" stroke="#818181" stroke-width="4" stroke-linecap="round" stroke-linejoin="round" fill="none" d="M660.89 139.78h9.93"/><path stroke-dasharray="14.89 14.89 2.48 14.89" stroke="#818181" stroke-width="4" stroke-linecap="round" stroke-linejoin="round" fill="none" d="M678.27 139.78h39.71"/><path class="b56fd367-3c6e-4f22-a6a4-2f2ec74eccf1" d="M725.43 139.78h6"/><path class="ba18535d-f1a7-402a-9514-9ec92cd2a069" d="M723.46 146.56l6.79-6.78-6.79-6.78h5.76l6.78 6.78-6.78 6.78h-5.76z"/><text class="bfc17972-82c5-49c3-b025-73513c27928b" transform="translate(632.91 109.42)">OPTIONAL</text><text class="bfc17972-82c5-49c3-b025-73513c27928b" transform="translate(822.91 110.42)">E<tspan x="3.44" y="0" letter-spacing=".01em">X</tspan><tspan x="7.5" y="0">TERNAL</tspan></text></g></svg>