<?xml version="1.0" encoding="utf-8"?>
<!-- Generator: Adobe Illustrator 19.1.0, SVG Export Plug-In . SVG Version: 6.00 Build 0)  -->
<svg version="1.1" id="Layer_1" xmlns="http://www.w3.org/2000/svg" xmlns:xlink="http://www.w3.org/1999/xlink" x="0px" y="0px"
	 viewBox="0 0 1000 300" enable-background="new 0 0 1000 300" xml:space="preserve">
<g>
	<g>
		<g>
			<path fill="#452845" d="M229.5,109.9c-0.9,0-1.8-0.3-2.5-1l-11.5-11.5c-1.4-1.4-1.4-3.6,0-4.9c1.4-1.4,3.6-1.4,4.9,0l11.5,11.5
				c1.4,1.4,1.4,3.6,0,4.9C231.2,109.5,230.4,109.9,229.5,109.9z"/>
		</g>
		<g>
			<path fill="#452845" d="M218,109.9c-0.9,0-1.8-0.3-2.5-1c-1.4-1.4-1.4-3.6,0-4.9L227,92.4c1.4-1.4,3.6-1.4,4.9,0
				c1.4,1.4,1.4,3.6,0,4.9l-11.5,11.5C219.7,109.5,218.9,109.9,218,109.9z"/>
		</g>
	</g>
	<g>
		<g>
			<path fill="#452845" d="M782.3,109.9c-0.9,0-1.8-0.3-2.5-1l-11.5-11.5c-1.4-1.4-1.4-3.6,0-4.9c1.4-1.4,3.6-1.4,4.9,0l11.5,11.5
				c1.4,1.4,1.4,3.6,0,4.9C784.1,109.5,783.2,109.9,782.3,109.9z"/>
		</g>
		<g>
			<path fill="#452845" d="M770.8,109.9c-0.9,0-1.8-0.3-2.5-1c-1.4-1.4-1.4-3.6,0-4.9l11.5-11.5c1.4-1.4,3.6-1.4,4.9,0
				c1.4,1.4,1.4,3.6,0,4.9l-11.5,11.5C772.6,109.5,771.7,109.9,770.8,109.9z"/>
		</g>
	</g>
	<g>
		<g>
			<path fill="#452845" d="M505.8,30.4c-0.9,0-1.8-0.3-2.5-1l-11.5-11.5c-1.4-1.4-1.4-3.6,0-4.9c1.4-1.4,3.6-1.4,4.9,0l11.5,11.5
				c1.4,1.4,1.4,3.6,0,4.9C507.6,30,506.7,30.4,505.8,30.4z"/>
		</g>
		<g>
			<path fill="#452845" d="M494.3,30.4c-0.9,0-1.8-0.3-2.5-1c-1.4-1.4-1.4-3.6,0-4.9l11.5-11.5c1.4-1.4,3.6-1.4,4.9,0
				c1.4,1.4,1.4,3.6,0,4.9l-11.5,11.5C496.1,30,495.2,30.4,494.3,30.4z"/>
		</g>
	</g>
	<g>
		<path fill="#452845" d="M865.7,203.9c-2.4,0-4.8-0.9-6.6-2.7c-3.7-3.7-3.7-9.6,0-13.3c1.8-1.8,4.1-2.8,6.6-2.8
			c2.5,0,4.9,1,6.6,2.8c3.7,3.7,3.7,9.6,0,13.3C870.6,203,868.1,203.9,865.7,203.9z M865.7,192.1c-0.6,0-1.2,0.2-1.7,0.7
			c-0.9,0.9-0.9,2.5,0,3.4c0.9,0.9,2.5,0.9,3.4,0c0.9-0.9,0.9-2.5,0-3.4C867,192.4,866.4,192.1,865.7,192.1z"/>
	</g>
	<rect x="419.9" y="229.4" fill="#FFF4EA" width="157.6" height="39.4"/>
	<rect x="686.6" y="229.4" fill="#8E4E80" width="107" height="39.4"/>
	<polygon fill="#466579" points="264.9,268.8 211.1,268.8 211.1,229.4 304.2,229.4 	"/>
	<g>
		<path fill="none" stroke="#452845" stroke-width="7" stroke-linecap="round" stroke-miterlimit="10" d="M577.6,267.3
			c0,0.8-0.7,1.5-1.5,1.5H421.5c-0.8,0-1.5-0.7-1.5-1.5v-36.4c0-0.8,0.7-1.5,1.5-1.5h154.6c0.8,0,1.5,0.7,1.5,1.5V267.3z"/>
	</g>
	<g>
		<path fill="none" stroke="#452845" stroke-width="7" stroke-linecap="round" stroke-miterlimit="10" d="M318.7,267.3
			c0,0.8-0.7,1.5-1.5,1.5H212.6c-0.8,0-1.5-0.7-1.5-1.5v-36.4c0-0.8,0.7-1.5,1.5-1.5h104.6c0.8,0,1.5,0.7,1.5,1.5V267.3z"/>
	</g>
	
		<line fill="none" stroke="#452845" stroke-width="7" stroke-linecap="round" stroke-miterlimit="10" x1="324.3" y1="240.7" x2="324.3" y2="259.2"/>
	
		<line fill="none" stroke="#452845" stroke-width="7" stroke-linecap="round" stroke-miterlimit="10" x1="204.2" y1="240.7" x2="204.2" y2="259.2"/>
	<g>
		<path fill="#FC7B4D" d="M500,115.6c-21.6,0-39.1,18.7-39.1,41.7c0,13.1,9.4,28.9,20.3,40h36.5c10.9-11.1,21.5-26.8,21.5-40
			C539.2,134.3,521.6,115.6,500,115.6z"/>
	</g>
	<g>
		<path fill="#452845" d="M132.1,203.9c-2.4,0-4.8-0.9-6.6-2.7c-3.7-3.7-3.7-9.6,0-13.3c3.7-3.7,9.6-3.7,13.3,0
			c3.7,3.7,3.7,9.6,0,13.3v0C136.9,203,134.5,203.9,132.1,203.9z M132.1,192.1c-0.6,0-1.2,0.2-1.7,0.7c-0.9,0.9-0.9,2.5,0,3.4
			c0.9,0.9,2.5,0.9,3.4,0c0.9-0.9,0.9-2.5,0-3.4C133.3,192.4,132.7,192.1,132.1,192.1z"/>
	</g>
	<g>
		<path fill="#452845" d="M365.3,58.9c-2.4,0-4.8-0.9-6.6-2.7c-3.7-3.7-3.7-9.6,0-13.3c3.7-3.7,9.6-3.7,13.3,0
			c3.7,3.7,3.7,9.6,0,13.3h0C370.1,58,367.7,58.9,365.3,58.9z M365.3,47.2c-0.6,0-1.2,0.2-1.7,0.7c-0.9,0.9-0.9,2.5,0,3.4
			c0.9,0.9,2.5,0.9,3.4,0l0,0c0.9-0.9,0.9-2.5,0-3.4C366.6,47.4,365.9,47.2,365.3,47.2z"/>
	</g>
	<g>
		<path fill="#452845" d="M631.5,58.9c-2.5,0-4.9-1-6.6-2.8c-1.8-1.8-2.8-4.1-2.8-6.6c0-2.5,1-4.9,2.8-6.6c1.8-1.8,4.1-2.8,6.6-2.8
			c2.5,0,4.9,1,6.6,2.8c1.8,1.8,2.8,4.1,2.8,6.6c0,2.5-1,4.9-2.8,6.6S634,58.9,631.5,58.9z M631.5,47.2c-0.6,0-1.2,0.2-1.7,0.7
			c-0.5,0.5-0.7,1.1-0.7,1.7c0,0.6,0.2,1.2,0.7,1.7c0.9,0.9,2.5,0.9,3.4,0c0.5-0.5,0.7-1.1,0.7-1.7c0-0.6-0.2-1.2-0.7-1.7
			C632.7,47.4,632.1,47.2,631.5,47.2z"/>
	</g>
	<g>
		<path fill="#452845" d="M470.9,259.3c-2.4,0-4.8-0.9-6.6-2.7c-3.7-3.7-3.7-9.6,0-13.3c3.7-3.7,9.6-3.7,13.3,0
			c3.7,3.7,3.7,9.6,0,13.3v0C475.7,258.4,473.3,259.3,470.9,259.3z M470.9,247.5c-0.6,0-1.2,0.2-1.7,0.7c-0.9,0.9-0.9,2.5,0,3.4
			c0.9,0.9,2.5,0.9,3.4,0c0.9-0.9,0.9-2.5,0-3.4C472.1,247.8,471.5,247.5,470.9,247.5z"/>
	</g>
	<g>
		<path fill="#452845" d="M523.3,259.3c-2.4,0-4.8-0.9-6.6-2.7c-3.7-3.7-3.7-9.6,0-13.3c1.8-1.8,4.1-2.8,6.6-2.8
			c2.5,0,4.9,1,6.6,2.8c3.7,3.7,3.7,9.6,0,13.3v0C528.1,258.4,525.7,259.3,523.3,259.3z M523.3,247.5c-0.6,0-1.2,0.2-1.7,0.7
			c-0.9,0.9-0.9,2.5,0,3.4c0.9,0.9,2.5,0.9,3.4,0c0.9-0.9,0.9-2.5,0-3.4C524.6,247.8,524,247.5,523.3,247.5z"/>
	</g>
	<g>
		<path fill="none" stroke="#452845" stroke-width="7" stroke-linecap="round" stroke-miterlimit="10" d="M793.6,231.7
			c0-0.8-0.7-1.5-1.5-1.5H687.5c-0.8,0-1.5,0.7-1.5,1.5v36.4c0,0.8,0.7,1.5,1.5,1.5h104.6c0.8,0,1.5-0.7,1.5-1.5V231.7z"/>
	</g>
	<g>
		<g>
			<path fill="#452845" d="M437.2,259.2c-0.9,0-1.8-0.3-2.5-1c-1.4-1.4-1.4-3.6,0-4.9l11.5-11.5c1.4-1.4,3.6-1.4,4.9,0
				c1.4,1.4,1.4,3.6,0,4.9l-11.5,11.5C439,258.8,438.1,259.2,437.2,259.2z"/>
		</g>
		<g>
			<path fill="#452845" d="M448.7,259.2c-0.9,0-1.8-0.3-2.5-1l-11.5-11.5c-1.4-1.4-1.4-3.6,0-4.9c1.4-1.4,3.6-1.4,4.9,0l11.5,11.5
				c1.4,1.4,1.4,3.6,0,4.9C450.5,258.8,449.6,259.2,448.7,259.2z"/>
		</g>
	</g>
	<g>
		<g>
			<path fill="#452845" d="M491.8,259.2c-0.9,0-1.8-0.3-2.5-1c-1.4-1.4-1.4-3.6,0-4.9l11.5-11.5c1.4-1.4,3.6-1.4,4.9,0
				c1.4,1.4,1.4,3.6,0,4.9l-11.5,11.5C493.6,258.8,492.7,259.2,491.8,259.2z"/>
		</g>
		<g>
			<path fill="#452845" d="M503.3,259.2c-0.9,0-1.8-0.3-2.5-1l-11.5-11.5c-1.4-1.4-1.4-3.6,0-4.9c1.4-1.4,3.6-1.4,4.9,0l11.5,11.5
				c1.4,1.4,1.4,3.6,0,4.9C505.1,258.8,504.2,259.2,503.3,259.2z"/>
		</g>
	</g>
	<g>
		<g>
			<path fill="#452845" d="M544.4,259.2c-0.9,0-1.8-0.3-2.5-1c-1.4-1.4-1.4-3.6,0-4.9l11.5-11.5c1.4-1.4,3.6-1.4,4.9,0
				c1.4,1.4,1.4,3.6,0,4.9l-11.5,11.5C546.2,258.8,545.3,259.2,544.4,259.2z"/>
		</g>
		<g>
			<path fill="#452845" d="M555.9,259.2c-0.9,0-1.8-0.3-2.5-1l-11.5-11.5c-1.4-1.4-1.4-3.6,0-4.9c1.4-1.4,3.6-1.4,4.9,0l11.5,11.5
				c1.4,1.4,1.4,3.6,0,4.9C557.7,258.8,556.8,259.2,555.9,259.2z"/>
		</g>
	</g>
	<g>
		<g>
			<path fill="#452845" d="M428.8,231.9c-1.9,0-3.5-1.6-3.5-3.5v-25c0-1.9,1.6-3.5,3.5-3.5s3.5,1.6,3.5,3.5v25
				C432.3,230.3,430.7,231.9,428.8,231.9z"/>
		</g>
		<g>
			<path fill="#452845" d="M428.8,206.5c-1.9,0-3.5-1.6-3.5-3.5c0-7.4-6-13.5-13.5-13.5s-13.5,6-13.5,13.5c0,1.9-1.6,3.5-3.5,3.5
				s-3.5-1.6-3.5-3.5c0-11.3,9.2-20.5,20.5-20.5s20.5,9.2,20.5,20.5C432.3,204.9,430.7,206.5,428.8,206.5z"/>
		</g>
		<g>
			<path fill="#452845" d="M387.8,253.4h-63.5c-1.9,0-3.5-1.6-3.5-3.5s1.6-3.5,3.5-3.5h63.5c1.9,0,3.5,1.6,3.5,3.5
				S389.7,253.4,387.8,253.4z"/>
		</g>
		<g>
			<path fill="#452845" d="M394.9,244.2c-1.9,0-3.5-1.6-3.5-3.5V203c0-1.9,1.6-3.5,3.5-3.5s3.5,1.6,3.5,3.5v37.7
				C398.4,242.6,396.8,244.2,394.9,244.2z"/>
		</g>
		<g>
			<path fill="#452845" d="M387.8,253.4c-1.9,0-3.5-1.6-3.5-3.5s1.6-3.5,3.5-3.5c2,0,3.6-1.6,3.6-3.6c0-1.9,1.6-3.5,3.5-3.5
				s3.5,1.6,3.5,3.5C398.4,248.7,393.6,253.4,387.8,253.4z"/>
		</g>
	</g>
	<g>
		<g>
			<path fill="#452845" d="M569.8,231.9c-1.9,0-3.5-1.6-3.5-3.5v-25c0-1.9,1.6-3.5,3.5-3.5s3.5,1.6,3.5,3.5v25
				C573.3,230.3,571.7,231.9,569.8,231.9z"/>
		</g>
		<g>
			<path fill="#452845" d="M603.7,206.5c-1.9,0-3.5-1.6-3.5-3.5c0-7.4-6-13.5-13.5-13.5s-13.5,6-13.5,13.5c0,1.9-1.6,3.5-3.5,3.5
				s-3.5-1.6-3.5-3.5c0-11.3,9.2-20.5,20.5-20.5s20.5,9.2,20.5,20.5C607.2,204.9,605.6,206.5,603.7,206.5z"/>
		</g>
		<g>
			<path fill="#452845" d="M686,253.4h-75.2c-1.9,0-3.5-1.6-3.5-3.5s1.6-3.5,3.5-3.5H686c1.9,0,3.5,1.6,3.5,3.5
				S687.9,253.4,686,253.4z"/>
		</g>
		<g>
			<path fill="#452845" d="M603.7,244.2c-1.9,0-3.5-1.6-3.5-3.5V203c0-1.9,1.6-3.5,3.5-3.5s3.5,1.6,3.5,3.5v37.7
				C607.2,242.6,605.6,244.2,603.7,244.2z"/>
		</g>
		<g>
			<path fill="#452845" d="M610.8,253.4c-5.8,0-10.6-4.8-10.6-10.6c0-1.9,1.6-3.5,3.5-3.5s3.5,1.6,3.5,3.5c0,2,1.6,3.6,3.6,3.6
				c1.9,0,3.5,1.6,3.5,3.5S612.7,253.4,610.8,253.4z"/>
		</g>
	</g>
	<g>
		<g>
			<path fill="#452845" d="M926.6,252.6H798.4c-1.9,0-3.5-1.6-3.5-3.5s1.6-3.5,3.5-3.5h128.2c7.4,0,13.5-6,13.5-13.5
				s-6-13.5-13.5-13.5h-128c-5.8,0-10.6-4.8-10.6-10.6s4.8-10.6,10.6-10.6h29.2c7.4,0,13.5-6,13.5-13.5s-6-13.5-13.5-13.5H638.6
				c-5.8,0-10.6-4.8-10.6-10.6c0-5.4,4-9.8,9.2-10.5v-0.1h128.2c7.4,0,13.5-6,13.5-13.5s-6-13.5-13.5-13.5h-128
				c-5.8,0-10.6-4.8-10.6-10.6c0-5.8,4.8-10.6,10.6-10.6h29.2c7.4,0,13.5-6,13.5-13.5s-6-13.5-13.5-13.5h-96.5l0-0.1
				c-5.5-0.3-10-5-10-10.6c0-5.8,4.8-10.6,10.6-10.6h3.5v0.1h26.3c2,0,3.6-1.6,3.6-3.6s-1.6-3.6-3.6-3.6H499.3v-0.1h-100
				c-2,0-3.6,1.6-3.6,3.6s1.6,3.6,3.6,3.6h33.3v0.8c4.1,1.4,7.1,5.4,7.1,10c0,5.8-4.8,10.6-10.6,10.6l0-0.1h-95.7
				c-7.4,0-13.5,6-13.5,13.5s6,13.5,13.5,13.5h29.2c5.8,0,10.6,4.8,10.6,10.6c0,5.8-4.8,10.6-10.6,10.6h-128
				c-7.4,0-13.5,6-13.5,13.5s6,13.5,13.5,13.5h126.8c5.8,0,10.6,4.8,10.6,10.6c0,5.8-4.8,10.6-10.6,10.6H172.2
				c-7.4,0-13.5,6-13.5,13.5s6,13.5,13.5,13.5h29.2c5.8,0,10.6,4.8,10.6,10.6s-4.8,10.6-10.6,10.6h-128c-7.4,0-13.5,6-13.5,13.5
				s6,13.5,13.5,13.5h128.2c1.9,0,3.5,1.6,3.5,3.5s-1.6,3.5-3.5,3.5H73.4c-11.3,0-20.5-9.2-20.5-20.5s9.2-20.5,20.5-20.5h128
				c2,0,3.6-1.6,3.6-3.6s-1.6-3.6-3.6-3.6h-29.2c-11.3,0-20.5-9.2-20.5-20.5s9.2-20.5,20.5-20.5h189.2c2,0,3.6-1.6,3.6-3.6
				s-1.6-3.6-3.6-3.6H234.6c-11.3,0-20.5-9.2-20.5-20.5c0-11.3,9.2-20.5,20.5-20.5h128c2,0,3.6-1.6,3.6-3.6s-1.6-3.6-3.6-3.6h-29.2
				c-11.3,0-20.5-9.2-20.5-20.5s9.2-20.5,20.5-20.5h96.5c1.6-0.4,2.8-1.8,2.8-3.5c0-2-1.6-3.6-3.6-3.6h-3.5v-0.2h-26.3
				c-5.8,0-10.6-4.8-10.6-10.6s4.8-10.6,10.6-10.6h107V39h94.2c5.8,0,10.6,4.8,10.6,10.6s-4.8,10.6-10.6,10.6h-30.6
				c-1.6,0.4-2.8,1.8-2.8,3.5c0,2,1.6,3.6,3.6,3.6l0,0.1h95.9c11.3,0,20.5,9.2,20.5,20.5s-9.2,20.5-20.5,20.5h-29.2
				c-2,0-3.6,1.6-3.6,3.6s1.6,3.6,3.6,3.6h128c11.3,0,20.5,9.2,20.5,20.5c0,11.3-9.2,20.5-20.5,20.5H638.6c-2,0-3.6,1.6-3.6,3.6
				s1.6,3.6,3.6,3.6h189.2c11.3,0,20.5,9.2,20.5,20.5s-9.2,20.5-20.5,20.5h-29.2c-2,0-3.6,1.6-3.6,3.6s1.6,3.6,3.6,3.6h128
				c11.3,0,20.5,9.2,20.5,20.5S937.9,252.6,926.6,252.6z"/>
		</g>
	</g>
	<g>
		<path fill="#FFF4EA" d="M472.3,155.7c-0.3,0-0.6,0-0.9-0.1c-2.1-0.5-3.4-2.6-2.9-4.7c2.9-11.8,10.6-21.9,20.2-26.2
			c2-0.9,4.3,0,5.2,2c0.9,2,0,4.3-2,5.2c-7.4,3.3-13.4,11.3-15.8,20.9C475.7,154.5,474.1,155.7,472.3,155.7z"/>
	</g>
	<g>
		<path fill="#FFF4EA" d="M223.7,259.8c-0.9,0-1.8-0.3-2.5-1c-1.4-1.4-1.4-3.6,0-4.9l14.4-14.4c1.4-1.4,3.6-1.4,4.9,0
			c1.4,1.4,1.4,3.6,0,4.9l-14.4,14.4C225.5,259.4,224.6,259.8,223.7,259.8z"/>
	</g>
	<g>
		<path fill="#FFF4EA" d="M242,260.6c-0.9,0-1.8-0.3-2.5-1c-1.4-1.4-1.4-3.6,0-4.9l14.4-14.4c1.4-1.4,3.6-1.4,4.9,0
			c1.4,1.4,1.4,3.6,0,4.9l-14.4,14.4C243.8,260.3,242.9,260.6,242,260.6z"/>
	</g>
	<g>
		<path fill="#FFF4EA" d="M740.9,259.8c-0.9,0-1.8-0.3-2.5-1c-1.4-1.4-1.4-3.6,0-4.9l14.4-14.4c1.4-1.4,3.6-1.4,4.9,0
			c1.4,1.4,1.4,3.6,0,4.9l-14.4,14.4C742.7,259.4,741.8,259.8,740.9,259.8z"/>
	</g>
	<g>
		<path fill="#FFF4EA" d="M759.2,260.6c-0.9,0-1.8-0.3-2.5-1c-1.4-1.4-1.4-3.6,0-4.9l14.4-14.4c1.4-1.4,3.6-1.4,4.9,0
			c1.4,1.4,1.4,3.6,0,4.9l-14.4,14.4C761,260.3,760.1,260.6,759.2,260.6z"/>
	</g>
	<g>
		<path fill="#FFF4EA" d="M704.1,259.8c-0.9,0-1.8-0.3-2.5-1c-1.4-1.4-1.4-3.6,0-4.9l14.4-14.4c1.4-1.4,3.6-1.4,4.9,0
			c1.4,1.4,1.4,3.6,0,4.9l-14.4,14.4C705.9,259.4,705,259.8,704.1,259.8z"/>
	</g>
	<g>
		<path fill="#FFF4EA" d="M722.4,260.6c-0.9,0-1.8-0.3-2.5-1c-1.4-1.4-1.4-3.6,0-4.9l14.4-14.4c1.4-1.4,3.6-1.4,4.9,0
			c1.4,1.4,1.4,3.6,0,4.9l-14.4,14.4C724.2,260.3,723.3,260.6,722.4,260.6z"/>
	</g>
	<g>
		<path fill="#452845" d="M510.2,226.3h-23.8c-2.2,0-3.9-1.8-3.9-3.9s1.8-3.9,3.9-3.9h23.8c2.2,0,3.9,1.8,3.9,3.9
			S512.3,226.3,510.2,226.3z"/>
	</g>
	<g>
		<path fill="#452845" d="M519.5,215.1h-41.7c-2.2,0-3.9-1.8-3.9-3.9s1.8-3.9,3.9-3.9h41.7c2.2,0,3.9,1.8,3.9,3.9
			S521.6,215.1,519.5,215.1z"/>
	</g>
	<g>
		<path fill="#452845" d="M477.8,215.1c-1,0-2-0.4-2.8-1.1c-1.5-1.5-1.5-4,0-5.5l7.1-7.1c1.5-1.5,4-1.5,5.5,0c1.5,1.5,1.5,4,0,5.5
			l-7.1,7.1C479.8,214.7,478.8,215.1,477.8,215.1z"/>
	</g>
	<g>
		<path fill="#452845" d="M519.5,205h-41.7c-2.2,0-3.9-1.8-3.9-3.9s1.8-3.9,3.9-3.9h41.7c2.2,0,3.9,1.8,3.9,3.9S521.6,205,519.5,205
			z"/>
	</g>
	<g>
		<path fill="#452845" d="M492.2,205c-1.9,0-3.5-1.3-3.8-3.2l-5.7-33c-0.4-2.5,0.8-4.2,2.1-4.9c1.3-0.7,3.4-0.9,5.3,0.7l1.6,1.4
			l0.5-0.6c1.1-1.3,2.6-2.1,4.2-2c1.6,0.1,3.1,0.9,4.1,2.3l2.8,4.1c1.2,1.8,0.7,4.2-1,5.4c-1.8,1.2-4.2,0.7-5.4-1l-0.8-1.1
			c-0.9,1-2.2,1.6-3.5,1.7c-0.3,0-0.6,0-0.9,0l4.4,25.7c0.4,2.1-1.1,4.1-3.2,4.5C492.6,205,492.4,205,492.2,205z"/>
	</g>
	<g>
		<path fill="#452845" d="M507.8,205c-0.2,0-0.4,0-0.7-0.1c-2.1-0.4-3.6-2.4-3.2-4.5l4.4-25.7c-0.3,0-0.6,0-0.9,0
			c-1.3-0.1-2.6-0.8-3.5-1.7l-0.8,1.1c-1.2,1.8-3.6,2.2-5.4,1c-1.8-1.2-2.3-3.6-1-5.4l2.8-4.1c1-1.4,2.4-2.2,4.1-2.3
			c1.6-0.1,3.2,0.7,4.2,2l0.5,0.6l1.6-1.4c1.9-1.7,4-1.5,5.3-0.7c1.3,0.7,2.5,2.4,2.1,4.9l-5.7,33C511.4,203.7,509.7,205,507.8,205z
			"/>
	</g>
	<g>
		<path fill="#452845" d="M574.6,163.7h-22.7c-2.2,0-3.9-1.8-3.9-3.9s1.8-3.9,3.9-3.9h22.7c2.2,0,3.9,1.8,3.9,3.9
			S576.8,163.7,574.6,163.7z"/>
	</g>
	<g>
		<path fill="#452845" d="M447.6,163.7h-22.7c-2.2,0-3.9-1.8-3.9-3.9s1.8-3.9,3.9-3.9h22.7c2.2,0,3.9,1.8,3.9,3.9
			S449.8,163.7,447.6,163.7z"/>
	</g>
	<g>
		<path fill="#452845" d="M500,108.6c-2.2,0-3.9-1.8-3.9-3.9V82c0-2.2,1.8-3.9,3.9-3.9s3.9,1.8,3.9,3.9v22.7
			C503.9,106.9,502.2,108.6,500,108.6z"/>
	</g>
	<g>
		<path fill="#452845" d="M539.9,123.3c-1.2,0-2.4-0.6-3.2-1.6c-1.3-1.8-0.9-4.2,0.9-5.5l18.5-13.2c1.8-1.3,4.2-0.9,5.5,0.9
			c1.3,1.8,0.9,4.2-0.9,5.5l-18.5,13.2C541.5,123,540.7,123.3,539.9,123.3z"/>
	</g>
	<g>
		<path fill="#452845" d="M458,125.7c-0.8,0-1.6-0.2-2.3-0.7l-18.5-13.2c-1.8-1.3-2.2-3.7-0.9-5.5c1.3-1.8,3.7-2.2,5.5-0.9
			l18.5,13.2c1.8,1.3,2.2,3.7,0.9,5.5C460.4,125.2,459.2,125.7,458,125.7z"/>
	</g>
</g>
</svg>
