<?xml version="1.0" encoding="utf-8"?>
<!-- Generator: Adobe Illustrator 19.1.0, SVG Export Plug-In . SVG Version: 6.00 Build 0)  -->
<svg version="1.1" id="Layer_1" xmlns="http://www.w3.org/2000/svg" xmlns:xlink="http://www.w3.org/1999/xlink" x="0px" y="0px"
	 viewBox="90 145 792 504" enable-background="new 90 145 792 504" xml:space="preserve">
<g>
	<path fill="#FFFFFF" d="M783.3,624.1H205.7c-12.8,0-23.2-10.4-23.2-23.2V449c0-12.8,10.4-23.2,23.2-23.2h577.6
		c12.8,0,23.2,10.4,23.2,23.2v152C806.5,613.7,796.1,624.1,783.3,624.1z"/>
</g>
<g>
	<path fill="#FFFFFF" d="M785.4,359.6H153.1c-11.3,0-20.4-9.1-20.4-20.4v-109c0-11.3,9.1-20.4,20.4-20.4h632.3
		c11.3,0,20.4,9.1,20.4,20.4v109C805.8,350.5,796.7,359.6,785.4,359.6z"/>
</g>
<g>
	<g>
		<path fill="#EDEDED" d="M632.3,601.5H210.7c-7.2,0-13-6.6-13-14.7V458.7c0-8.1,5.8-14.7,13-14.7h421.6c7.2,0,13,6.6,13,14.7v128.1
			C645.3,594.9,639.4,601.5,632.3,601.5z"/>
	</g>
	<g>
		<path fill="#EDEDED" d="M632.3,601.9H210.7c-7.4,0-13.3-6.8-13.3-15.1V458.7c0-8.3,6-15.1,13.3-15.1h421.6
			c7.4,0,13.3,6.8,13.3,15.1v128.1C645.6,595.1,639.6,601.9,632.3,601.9z M210.7,444.5c-7,0-12.7,6.4-12.7,14.3v128.1
			c0,7.9,5.7,14.3,12.7,14.3h421.6c7,0,12.7-6.4,12.7-14.3V458.7c0-7.9-5.7-14.3-12.7-14.3L210.7,444.5L210.7,444.5z"/>
	</g>
</g>
<g>
	<g>
		<path fill="#FFFFFF" d="M365.9,578.6h-20.2c-5.7,0-10.4-4.7-10.4-10.4V548c0-5.8,4.7-10.4,10.4-10.4h20.2
			c5.7,0,10.4,4.7,10.4,10.4v20.2C376.3,573.9,371.6,578.6,365.9,578.6z"/>
		<path fill="#452845" d="M365.9,579.1h-20.2c-6,0-10.9-4.9-10.9-10.9V548c0-6,4.9-10.9,10.9-10.9h20.2c6,0,10.9,4.9,10.9,10.9v20.2
			C376.8,574.2,371.9,579.1,365.9,579.1z M345.7,538.1c-5.5,0-9.9,4.5-9.9,9.9v20.2c0,5.5,4.5,9.9,9.9,9.9h20.2
			c5.5,0,9.9-4.5,9.9-9.9V548c0-5.5-4.5-9.9-9.9-9.9H345.7z"/>
	</g>
</g>
<g>
	<g>
		<path fill="#FFFFFF" d="M365.9,506h-20.2c-5.7,0-10.4-4.7-10.4-10.4v-20.2c0-5.8,4.7-10.4,10.4-10.4h20.2
			c5.7,0,10.4,4.7,10.4,10.4v20.2C376.3,501.4,371.6,506,365.9,506z"/>
		<path fill="#452845" d="M365.9,506.5h-20.2c-6,0-10.9-4.9-10.9-10.9v-20.2c0-6,4.9-10.9,10.9-10.9h20.2c6,0,10.9,4.9,10.9,10.9
			v20.2C376.8,501.6,371.9,506.5,365.9,506.5z M345.7,465.5c-5.5,0-9.9,4.5-9.9,9.9v20.2c0,5.5,4.5,9.9,9.9,9.9h20.2
			c5.5,0,9.9-4.5,9.9-9.9v-20.2c0-5.5-4.5-9.9-9.9-9.9H345.7z"/>
	</g>
</g>
<g>
	<path fill="#FFFFFF" d="M410.5,185.5c1.5,0,2.8-0.6,3.8-1.8l2,2.1c-1.6,1.8-3.5,2.7-5.6,2.7s-3.9-0.7-5.3-2
		c-1.4-1.4-2.1-3.1-2.1-5.1s0.7-3.8,2.1-5.2c1.4-1.4,3.2-2.1,5.2-2.1c2.3,0,4.2,0.9,5.8,2.6l-1.9,2.2c-1-1.2-2.2-1.8-3.7-1.8
		c-1.2,0-2.2,0.4-3,1.1c-0.8,0.8-1.2,1.8-1.2,3.1s0.4,2.3,1.2,3.1C408.6,185.2,409.4,185.5,410.5,185.5z"/>
	<path fill="#FFFFFF" d="M428.7,182.9c0,1.6-0.5,2.9-1.6,3.9c-1.1,1.1-2.4,1.6-4.1,1.6c-1.6,0-3-0.5-4.1-1.6s-1.6-2.4-1.6-3.9
		s0.5-2.9,1.6-4c1.1-1.1,2.4-1.6,4.1-1.6c1.6,0,3,0.5,4.1,1.6C428.2,180,428.7,181.3,428.7,182.9z M420.4,182.9
		c0,0.9,0.2,1.6,0.8,2.1s1.1,0.8,1.9,0.8s1.4-0.3,1.9-0.8s0.8-1.3,0.8-2.1c0-0.8-0.2-1.6-0.8-2.2c-0.6-0.6-1.1-0.8-1.9-0.8
		s-1.4,0.3-1.9,0.8S420.4,182,420.4,182.9z"/>
	<path fill="#FFFFFF" d="M434,182.3v6h-3v-10.8h3v1.2c0.9-0.9,1.9-1.4,3.1-1.4s2.1,0.4,2.9,1.2s1.1,1.9,1.1,3.2v6.5h-3v-6.1
		c0-1.7-0.6-2.5-1.8-2.5c-0.6,0-1.1,0.2-1.6,0.6C434.2,180.8,434,181.4,434,182.3z"/>
	<path fill="#FFFFFF" d="M447.2,179.7v4.8c0,0.4,0.1,0.7,0.3,1c0.2,0.2,0.5,0.4,0.8,0.4c0.6,0,1-0.3,1.4-0.8l1.1,2.1
		c-0.9,0.9-1.9,1.3-3,1.3s-1.9-0.3-2.6-1s-1.1-1.6-1.1-2.8v-5h-1.3v-2.2h1.3v-3.2h3v3.2h2.6v2.2H447.2z"/>
	<path fill="#FFFFFF" d="M458,180.2c-0.9,0-1.6,0.3-2,1s-0.7,1.5-0.7,2.5v4.7h-3v-10.9h3v1.4c0.4-0.4,0.9-0.8,1.5-1.1
		s1.2-0.5,1.8-0.5v2.8L458,180.2L458,180.2z"/>
	<path fill="#FFFFFF" d="M471.2,182.9c0,1.6-0.5,2.9-1.6,3.9c-1.1,1.1-2.4,1.6-4.1,1.6c-1.6,0-3-0.5-4.1-1.6s-1.6-2.4-1.6-3.9
		s0.5-2.9,1.6-4c1.1-1.1,2.4-1.6,4.1-1.6c1.6,0,3,0.5,4.1,1.6C470.7,180,471.2,181.3,471.2,182.9z M462.8,182.9
		c0,0.9,0.2,1.6,0.8,2.1s1.1,0.8,1.9,0.8s1.4-0.3,1.9-0.8s0.8-1.3,0.8-2.1c0-0.8-0.2-1.6-0.8-2.2c-0.6-0.6-1.1-0.8-1.9-0.8
		s-1.4,0.3-1.9,0.8S462.8,182,462.8,182.9z"/>
	<path fill="#FFFFFF" d="M476.4,188.3h-3v-14.9h3V188.3z"/>
	<path fill="#FFFFFF" d="M494.5,175.5c1,0.8,1.5,2.1,1.5,3.8s-0.5,3-1.5,3.8c-1,0.8-2.5,1.2-4.6,1.2H488v3.9h-3.1v-14h4.9
		C491.9,174.3,493.5,174.7,494.5,175.5z M492.2,181c0.4-0.4,0.6-1,0.6-1.8s-0.2-1.4-0.7-1.7s-1.2-0.5-2.3-0.5H488v4.7h2.1
		C491.1,181.7,491.8,181.5,492.2,181z"/>
	<path fill="#FFFFFF" d="M501.1,188.3h-3v-14.9h3V188.3z"/>
	<path fill="#FFFFFF" d="M513.1,188.3h-2.8V187c-0.8,1-1.7,1.5-2.9,1.5s-2.1-0.3-2.9-1s-1.2-1.5-1.2-2.6c0-1.1,0.4-1.9,1.2-2.5
		c0.8-0.5,1.9-0.8,3.3-0.8h2.2v-0.1c0-1.1-0.6-1.7-1.8-1.7c-0.5,0-1.1,0.1-1.7,0.3c-0.6,0.2-1.1,0.5-1.5,0.8l-1.3-1.9
		c1.4-1,3-1.5,4.8-1.5c1.3,0,2.4,0.3,3.2,1c0.8,0.7,1.2,1.7,1.2,3.1v6.7H513.1z M510,184.2v-0.5h-1.9c-1.2,0-1.8,0.4-1.8,1.1
		c0,0.4,0.1,0.7,0.4,0.9s0.7,0.3,1.2,0.3s1-0.2,1.4-0.5C509.8,185.2,510,184.7,510,184.2z"/>
	<path fill="#FFFFFF" d="M518.8,182.3v6h-3v-10.8h3v1.2c0.9-0.9,1.9-1.4,3.1-1.4c1.1,0,2.1,0.4,2.8,1.2c0.8,0.8,1.2,1.9,1.2,3.2v6.5
		h-3v-6.1c0-1.7-0.6-2.5-1.8-2.5c-0.6,0-1.1,0.2-1.6,0.6C519,180.8,518.8,181.4,518.8,182.3z"/>
	<path fill="#FFFFFF" d="M537.9,186.7c-1.2,1.1-2.6,1.7-4.3,1.7c-1.6,0-3-0.5-4-1.5c-1.1-1-1.6-2.4-1.6-4c0-1.6,0.5-3,1.6-4
		c1.1-1,2.4-1.5,3.8-1.5c1.5,0,2.7,0.4,3.8,1.3c1,0.9,1.6,2.1,1.6,3.7v1.6H531c0.1,0.6,0.4,1.1,0.9,1.4c0.5,0.4,1.1,0.6,1.8,0.6
		c1.1,0,1.9-0.4,2.6-1.1L537.9,186.7z M535,180.3c-0.4-0.3-0.9-0.5-1.5-0.5s-1.1,0.2-1.6,0.5s-0.8,0.8-0.9,1.5h4.7
		C535.7,181.2,535.4,180.7,535,180.3z"/>
</g>
<g>
	<path fill="#FFFFFF" d="M409.7,376v11.3h-3.1V376h-4v-2.7h11v2.7H409.7z"/>
	<path fill="#FFFFFF" d="M424.9,385.7c-1.2,1.1-2.6,1.7-4.3,1.7c-1.6,0-3-0.5-4.1-1.5s-1.6-2.4-1.6-4s0.5-3,1.6-4s2.4-1.5,3.8-1.5
		s2.7,0.4,3.8,1.3c1,0.9,1.6,2.1,1.6,3.7v1.6h-7.8c0.1,0.6,0.4,1.1,0.9,1.4c0.5,0.4,1.1,0.6,1.8,0.6c1.1,0,1.9-0.4,2.6-1.1
		L424.9,385.7z M422,379.3c-0.4-0.3-0.9-0.5-1.5-0.5s-1.1,0.2-1.6,0.5c-0.5,0.4-0.8,0.8-0.9,1.5h4.7
		C422.7,380.2,422.4,379.7,422,379.3z"/>
	<path fill="#FFFFFF" d="M430.9,381.3v6h-3v-10.8h3v1.2c0.9-0.9,1.9-1.4,3.1-1.4s2.1,0.4,2.9,1.2s1.1,1.9,1.1,3.2v6.5h-3v-6.1
		c0-1.7-0.6-2.5-1.8-2.5c-0.6,0-1.1,0.2-1.6,0.6C431.2,379.8,430.9,380.4,430.9,381.3z"/>
	<path fill="#FFFFFF" d="M449.9,387.3H447V386c-0.8,1-1.7,1.5-2.9,1.5c-1.1,0-2.1-0.3-2.9-1s-1.2-1.5-1.2-2.6s0.4-1.9,1.2-2.5
		c0.8-0.5,1.9-0.8,3.3-0.8h2.2v-0.1c0-1.1-0.6-1.7-1.8-1.7c-0.5,0-1.1,0.1-1.7,0.3c-0.6,0.2-1.1,0.5-1.5,0.8l-1.3-1.9
		c1.4-1,3-1.5,4.8-1.5c1.3,0,2.4,0.3,3.2,1s1.2,1.7,1.2,3.1v6.7H449.9z M446.8,383.2v-0.5H445c-1.2,0-1.8,0.4-1.8,1.1
		c0,0.4,0.1,0.7,0.4,0.9c0.3,0.2,0.7,0.3,1.2,0.3s1-0.2,1.4-0.5S446.8,383.7,446.8,383.2z"/>
	<path fill="#FFFFFF" d="M455.6,381.3v6h-3v-10.8h3v1.2c0.9-0.9,1.9-1.4,3.1-1.4s2.1,0.4,2.9,1.2s1.1,1.9,1.1,3.2v6.5h-3v-6.1
		c0-1.7-0.6-2.5-1.8-2.5c-0.6,0-1.1,0.2-1.6,0.6C455.8,379.8,455.6,380.4,455.6,381.3z"/>
	<path fill="#FFFFFF" d="M468.8,378.7v4.8c0,0.4,0.1,0.7,0.3,1c0.2,0.2,0.5,0.4,0.8,0.4c0.6,0,1-0.3,1.4-0.8l1.1,2.1
		c-0.9,0.9-1.9,1.3-3,1.3s-1.9-0.3-2.6-1s-1.1-1.6-1.1-2.8v-5h-1.3v-2.2h1.3v-3.2h3v3.2h2.6v2.2H468.8z"/>
	<path fill="#FFFFFF" d="M482.9,376.1c-0.3,0.2-0.5,0.6-0.5,1s0.2,0.7,0.5,1c0.4,0.2,1.2,0.5,2.5,0.9c1.3,0.3,2.4,0.8,3.1,1.5
		s1.1,1.6,1.1,2.9c0,1.3-0.5,2.3-1.4,3.1s-2.2,1.2-3.7,1.2c-2.2,0-4.2-0.8-6-2.5l1.9-2.3c1.5,1.3,2.9,2,4.2,2c0.6,0,1-0.1,1.4-0.4
		c0.3-0.2,0.5-0.6,0.5-1s-0.2-0.8-0.5-1s-1-0.5-2.1-0.8c-1.6-0.4-2.8-0.9-3.6-1.5c-0.8-0.6-1.1-1.6-1.1-2.9s0.5-2.4,1.4-3.1
		c1-0.7,2.1-1.1,3.6-1.1c0.9,0,1.9,0.2,2.8,0.5c0.9,0.3,1.7,0.8,2.4,1.4l-1.6,2.3c-1.2-0.9-2.5-1.4-3.8-1.4
		C483.6,375.7,483.2,375.8,482.9,376.1z"/>
	<path fill="#FFFFFF" d="M498.3,376.3c1.3,0,2.4,0.5,3.3,1.6c1,1,1.5,2.4,1.5,4c0,1.6-0.5,2.9-1.5,4c-1,1.1-2.1,1.6-3.4,1.6
		s-2.4-0.5-3.2-1.6v5.3h-3v-14.6h3v1.2C496,376.8,497.1,376.3,498.3,376.3z M495,381.9c0,0.9,0.2,1.6,0.7,2.1
		c0.5,0.6,1.1,0.8,1.8,0.8s1.3-0.3,1.8-0.8c0.5-0.6,0.8-1.3,0.8-2.1s-0.3-1.6-0.8-2.2c-0.5-0.6-1.1-0.9-1.8-0.9
		c-0.7,0-1.3,0.3-1.8,0.9C495.3,380.3,495,381,495,381.9z"/>
	<path fill="#FFFFFF" d="M514.5,387.3h-2.8V386c-0.8,1-1.7,1.5-2.9,1.5c-1.1,0-2.1-0.3-2.9-1s-1.2-1.5-1.2-2.6s0.4-1.9,1.2-2.5
		c0.8-0.5,1.9-0.8,3.3-0.8h2.2v-0.1c0-1.1-0.6-1.7-1.8-1.7c-0.5,0-1.1,0.1-1.7,0.3c-0.6,0.2-1.1,0.5-1.5,0.8l-1.3-1.9
		c1.4-1,3-1.5,4.8-1.5c1.3,0,2.4,0.3,3.2,1s1.2,1.7,1.2,3.1v6.7H514.5z M511.5,383.2v-0.5h-1.9c-1.2,0-1.8,0.4-1.8,1.1
		c0,0.4,0.1,0.7,0.4,0.9c0.3,0.2,0.7,0.3,1.2,0.3s1-0.2,1.4-0.5C511.3,384.2,511.5,383.7,511.5,383.2z"/>
	<path fill="#FFFFFF" d="M522.4,384.8c1,0,1.9-0.5,2.7-1.5l1.8,2c-1.4,1.4-2.9,2.2-4.5,2.2c-1.6,0-3-0.5-4.1-1.5s-1.7-2.4-1.7-4
		s0.6-3,1.7-4s2.5-1.5,4-1.5c0.8,0,1.6,0.2,2.3,0.5s1.5,0.8,2.1,1.4l-1.6,2c-0.3-0.4-0.8-0.7-1.3-1c-0.5-0.2-1-0.3-1.5-0.3
		c-0.8,0-1.5,0.3-2,0.8c-0.6,0.5-0.8,1.2-0.8,2.1c0,0.9,0.3,1.6,0.8,2.1C521,384.5,521.7,384.8,522.4,384.8z"/>
	<path fill="#FFFFFF" d="M538.2,385.7c-1.2,1.1-2.6,1.7-4.3,1.7c-1.6,0-3-0.5-4-1.5c-1.1-1-1.6-2.4-1.6-4s0.5-3,1.6-4
		s2.4-1.5,3.8-1.5c1.5,0,2.7,0.4,3.8,1.3c1,0.9,1.6,2.1,1.6,3.7v1.6h-7.8c0.1,0.6,0.4,1.1,0.9,1.4c0.5,0.4,1.1,0.6,1.8,0.6
		c1.1,0,1.9-0.4,2.6-1.1L538.2,385.7z M535.3,379.3c-0.4-0.3-0.9-0.5-1.5-0.5s-1.1,0.2-1.6,0.5c-0.5,0.3-0.8,0.8-0.9,1.5h4.7
		C536,380.2,535.8,379.7,535.3,379.3z"/>
</g>
<g>
	<path fill="#444444" d="M221.2,461.3v8.7h-2.4v-8.7h-3.1v-2.1h8.5v2.1H221.2z"/>
	<path fill="#444444" d="M233,468.8c-0.9,0.9-2,1.3-3.3,1.3s-2.3-0.4-3.1-1.2c-0.8-0.8-1.2-1.8-1.2-3.1s0.4-2.3,1.3-3.1
		c0.8-0.8,1.8-1.2,3-1.2s2.1,0.3,2.9,1c0.8,0.7,1.2,1.6,1.2,2.8v1.2h-6.1c0.1,0.5,0.3,0.8,0.7,1.1c0.4,0.3,0.9,0.4,1.4,0.4
		c0.8,0,1.5-0.3,2-0.8L233,468.8z M230.8,463.9c-0.3-0.3-0.7-0.4-1.2-0.4s-0.9,0.1-1.3,0.4c-0.4,0.3-0.6,0.7-0.7,1.1h3.6
		C231.3,464.6,231.1,464.2,230.8,463.9z"/>
	<path fill="#444444" d="M237.7,465.4v4.6h-2.3v-8.3h2.3v0.9c0.7-0.7,1.5-1.1,2.4-1.1s1.6,0.3,2.2,0.9s0.9,1.4,0.9,2.5v5.1h-2.3
		v-4.7c0-1.3-0.5-1.9-1.4-1.9c-0.5,0-0.9,0.2-1.2,0.5C237.8,464.3,237.7,464.8,237.7,465.4z"/>
	<path fill="#444444" d="M252.3,470h-2.2v-1c-0.6,0.8-1.3,1.1-2.2,1.1s-1.6-0.3-2.2-0.8c-0.6-0.5-0.9-1.2-0.9-2s0.3-1.5,0.9-1.9
		c0.6-0.4,1.5-0.6,2.5-0.6h1.7l0,0c0-0.9-0.5-1.3-1.4-1.3c-0.4,0-0.8,0.1-1.3,0.2c-0.4,0.2-0.8,0.4-1.1,0.6l-1-1.5
		c1.1-0.8,2.3-1.2,3.7-1.2c1,0,1.8,0.3,2.5,0.8c0.6,0.5,1,1.3,1,2.4V470z M249.9,466.9v-0.4h-1.5c-0.9,0-1.4,0.3-1.4,0.9
		c0,0.3,0.1,0.5,0.3,0.7s0.5,0.2,0.9,0.2s0.8-0.1,1.1-0.4C249.8,467.6,249.9,467.3,249.9,466.9z"/>
	<path fill="#444444" d="M256.7,465.4v4.6h-2.3v-8.3h2.3v0.9c0.7-0.7,1.5-1.1,2.4-1.1c0.9,0,1.6,0.3,2.2,0.9s0.9,1.4,0.9,2.5v5.1
		h-2.3v-4.7c0-1.3-0.5-1.9-1.4-1.9c-0.5,0-0.9,0.2-1.2,0.5C256.9,464.3,256.7,464.8,256.7,465.4z"/>
	<path fill="#444444" d="M266.9,463.4v3.7c0,0.3,0.1,0.6,0.2,0.7c0.2,0.2,0.4,0.3,0.6,0.3c0.4,0,0.8-0.2,1.1-0.6l0.9,1.6
		c-0.7,0.7-1.5,1-2.3,1s-1.5-0.3-2-0.8c-0.6-0.5-0.8-1.2-0.8-2.1v-3.8h-1v-1.7h1v-2.5h2.3v2.5h2v1.7L266.9,463.4L266.9,463.4z"/>
	<path fill="#444444" d="M284.3,468.6c-1.1,1.1-2.4,1.6-4,1.6c-1.6,0-2.9-0.5-4-1.6c-1.1-1.1-1.6-2.4-1.6-4s0.5-2.9,1.6-4
		c1.1-1.1,2.4-1.6,4-1.6c1.6,0,2.9,0.5,4,1.6c1.1,1.1,1.6,2.4,1.6,4S285.4,467.5,284.3,468.6z M283.5,464.6c0-1-0.3-1.8-0.9-2.5
		s-1.4-1-2.3-1c-0.9,0-1.7,0.3-2.3,1s-0.9,1.5-0.9,2.5s0.3,1.8,0.9,2.5c0.6,0.7,1.4,1,2.3,1c0.9,0,1.7-0.3,2.3-1
		S283.5,465.5,283.5,464.6z"/>
	<path fill="#444444" d="M290,465.4v4.6h-2.3v-8.3h2.3v0.9c0.7-0.7,1.5-1.1,2.4-1.1s1.6,0.3,2.2,0.9c0.6,0.6,0.9,1.4,0.9,2.5v5.1
		h-2.3v-4.7c0-1.3-0.5-1.9-1.4-1.9c-0.5,0-0.9,0.2-1.2,0.5C290.2,464.3,290,464.8,290,465.4z"/>
	<path fill="#444444" d="M304.8,468.8c-0.9,0.9-2,1.3-3.3,1.3s-2.3-0.4-3.1-1.2c-0.8-0.8-1.2-1.8-1.2-3.1s0.4-2.3,1.3-3.1
		c0.8-0.8,1.8-1.2,3-1.2s2.1,0.3,2.9,1c0.8,0.7,1.2,1.6,1.2,2.8v1.2h-6.1c0.1,0.5,0.3,0.8,0.7,1.1c0.4,0.3,0.9,0.4,1.4,0.4
		c0.8,0,1.5-0.3,2-0.8L304.8,468.8z M302.5,463.9c-0.3-0.3-0.7-0.4-1.2-0.4s-0.9,0.1-1.3,0.4c-0.4,0.3-0.6,0.7-0.7,1.1h3.6
		C303,464.6,302.9,464.2,302.5,463.9z"/>
</g>
<g>
	<path fill="#9D6E80" d="M734.3,329.5H214.2c-7.2,0-13-5.8-13-13v-26c0-7.2,5.8-13,13-13h520.1c7.2,0,13,5.8,13,13v26
		C747.3,323.7,741.5,329.5,734.3,329.5z M214.2,279.5c-6.1,0-11,4.9-11,11v26c0,6.1,4.9,11,11,11h520.1c6.1,0,11-4.9,11-11v-26
		c0-6.1-4.9-11-11-11H214.2z"/>
</g>
<g>
	<path fill="#9D6E80" d="M668.3,279.5H288.2c-7.2,0-13-5.8-13-13v-26c0-7.2,5.8-13,13-13h380.1c7.2,0,13,5.8,13,13v26
		C681.3,273.7,675.5,279.5,668.3,279.5z M288.2,229.5c-6.1,0-11,4.9-11,11v26c0,6.1,4.9,11,11,11h380.1c6.1,0,11-4.9,11-11v-26
		c0-6.1-4.9-11-11-11H288.2z"/>
</g>
<g>
	<path fill="#444444" d="M353.4,488l-1,2.2h-1.8l4.3-9.7h1.8l4.3,9.7h-1.8l-1-2.2H353.4z M357.6,486.5l-1.8-4l-1.8,4H357.6z"/>
	<path fill="#444444" d="M361.2,482.1c-0.3-0.1-0.4-0.4-0.4-0.7s0.1-0.5,0.2-0.7c0.2-0.2,0.4-0.2,0.6-0.2s0.5,0.1,0.6,0.2
		s0.3,0.4,0.3,0.6c0,0.3-0.1,0.5-0.2,0.7l-0.8,1.2h-0.8L361.2,482.1z"/>
</g>
<g>
	<path fill="#444444" d="M353.4,561.8l-1,2.2h-1.8l4.3-9.7h1.8l4.3,9.7h-1.8l-1-2.2H353.4z M357.6,560.2l-1.8-4l-1.8,4H357.6z"/>
</g>
<g>
	<g>
		<rect x="132.6" y="536.8" fill="#9D6E80" width="117.6" height="1.4"/>
	</g>
	<g>
		<g>
			<path fill="#9D6E80" d="M242.9,532.4c-0.2,0.2-0.1,0.6,0.2,0.7l6.9,4.4l-6.9,4.4c-0.2,0.2-0.3,0.5-0.2,0.7
				c0.1,0.2,0.5,0.3,0.7,0.2l7.6-4.8c0.2-0.1,0.2-0.3,0.2-0.5c0-0.2-0.1-0.4-0.2-0.5l-7.6-4.8c-0.1-0.1-0.2-0.1-0.3-0.1
				C243.2,532.2,243,532.3,242.9,532.4z"/>
		</g>
	</g>
</g>
<g>
	<g>
		<rect x="132.6" y="520.3" fill="#9D6E80" width="117.6" height="1.4"/>
	</g>
	<g>
		<g>
			<path fill="#9D6E80" d="M242.9,515.8c-0.2,0.2-0.1,0.6,0.2,0.7l6.9,4.4l-6.9,4.4c-0.2,0.2-0.3,0.5-0.2,0.7
				c0.2,0.2,0.5,0.3,0.7,0.2l7.6-4.8c0.2-0.1,0.2-0.3,0.2-0.5s-0.1-0.4-0.2-0.5l-7.6-4.8c-0.1-0.1-0.2-0.1-0.3-0.1
				C243.2,515.6,243,515.7,242.9,515.8z"/>
		</g>
	</g>
</g>
<g>
	<g>
		<rect x="132.6" y="503.7" fill="#9D6E80" width="117.6" height="1.4"/>
	</g>
	<g>
		<g>
			<path fill="#9D6E80" d="M242.9,499.3c-0.2,0.2-0.1,0.6,0.2,0.7l6.9,4.4l-6.9,4.4c-0.2,0.2-0.3,0.5-0.2,0.7
				c0.2,0.2,0.5,0.3,0.7,0.2l7.6-4.8c0.2-0.1,0.2-0.3,0.2-0.5s-0.1-0.4-0.2-0.5l-7.6-4.8c-0.1-0.1-0.2-0.1-0.3-0.1
				C243.2,499,243,499.1,242.9,499.3z"/>
		</g>
	</g>
</g>
<g>
	<g>
		<polygon fill="#9D6E80" points="429.7,550.5 392.6,484.6 429.8,484.7 429.8,486.2 395.3,486.1 431.1,549.7 		"/>
	</g>
	<g>
		<g>
			<polygon fill="#9D6E80" points="432.6,544.4 431.5,544.1 430.2,549.7 424.7,547.9 424.4,549.1 431,551.2 			"/>
		</g>
	</g>
	<g>
		<g>
			<polygon fill="#9D6E80" points="425.9,490.2 425.1,489.3 429.3,485.4 425.1,481.5 425.9,480.7 431,485.4 			"/>
		</g>
	</g>
</g>
<g>
	<path fill="#FFFFFF" d="M138.4,553c0,0.8-0.4,1.3-1.1,1.6l1.3,1.8h-1.1l-1.2-1.7h-1.1v1.7h-0.8v-5h1.8c0.8,0,1.3,0.1,1.6,0.4
		S138.4,552.5,138.4,553z M137.3,553.7c0.2-0.1,0.3-0.4,0.3-0.7c0-0.3-0.1-0.5-0.3-0.7c-0.2-0.1-0.5-0.2-0.9-0.2h-1.1v1.8h1
		C136.8,554,137.1,553.9,137.3,553.7z"/>
	<path fill="#FFFFFF" d="M143,554.8h-3c0,0.3,0.1,0.5,0.4,0.7c0.2,0.2,0.5,0.3,0.8,0.3c0.5,0,0.8-0.1,1.1-0.4l0.5,0.5
		c-0.4,0.4-0.9,0.6-1.6,0.6c-0.5,0-1-0.2-1.4-0.5c-0.4-0.4-0.6-0.8-0.6-1.4c0-0.6,0.2-1.1,0.6-1.4c0.4-0.4,0.8-0.5,1.3-0.5
		s1,0.2,1.3,0.5c0.3,0.3,0.5,0.7,0.5,1.3v0.3H143z M140.1,554.2h2.2c0-0.3-0.1-0.6-0.3-0.7s-0.4-0.3-0.7-0.3s-0.6,0.1-0.8,0.3
		S140.1,553.9,140.1,554.2z"/>
	<path fill="#FFFFFF" d="M145.4,556.4c-0.5,0-0.9-0.2-1.3-0.5c-0.4-0.4-0.5-0.8-0.5-1.4s0.2-1.1,0.5-1.4c0.4-0.4,0.8-0.5,1.3-0.5
		s0.9,0.2,1.2,0.7v-0.7h0.8v5.2h-0.8v-1.9C146.4,556.2,145.9,556.4,145.4,556.4z M144.5,554.5c0,0.4,0.1,0.7,0.3,0.9
		c0.2,0.2,0.5,0.3,0.8,0.3c0.3,0,0.6-0.1,0.8-0.3c0.2-0.2,0.3-0.5,0.3-0.9s-0.1-0.7-0.3-0.9c-0.2-0.2-0.5-0.4-0.8-0.4
		c-0.3,0-0.6,0.1-0.8,0.4C144.6,553.8,144.5,554.1,144.5,554.5z"/>
	<path fill="#FFFFFF" d="M151.3,554.6v-2h0.8v3.8h-0.8v-0.7c-0.1,0.2-0.3,0.4-0.5,0.5c-0.2,0.1-0.5,0.2-0.7,0.2
		c-0.4,0-0.8-0.1-1-0.4c-0.2-0.3-0.4-0.6-0.4-1.1v-2.3h0.8v2.1c0,0.7,0.3,1,0.9,1c0.3,0,0.5-0.1,0.7-0.3
		C151.2,555.3,151.3,555,151.3,554.6z"/>
	<path fill="#FFFFFF" d="M156.8,554.8h-3c0,0.3,0.1,0.5,0.4,0.7c0.2,0.2,0.5,0.3,0.8,0.3c0.5,0,0.8-0.1,1.1-0.4l0.5,0.5
		c-0.4,0.4-0.9,0.6-1.6,0.6c-0.5,0-1-0.2-1.4-0.5c-0.4-0.4-0.6-0.8-0.6-1.4c0-0.6,0.2-1.1,0.6-1.4c0.4-0.4,0.8-0.5,1.3-0.5
		s1,0.2,1.3,0.5s0.5,0.7,0.5,1.3L156.8,554.8L156.8,554.8z M153.8,554.2h2.2c0-0.3-0.1-0.6-0.3-0.7s-0.4-0.3-0.7-0.3
		s-0.6,0.1-0.8,0.3S153.8,553.9,153.8,554.2z"/>
	<path fill="#FFFFFF" d="M160.4,555.3c0,0.4-0.1,0.6-0.4,0.9c-0.3,0.3-0.6,0.3-1,0.3c-0.3,0-0.6,0-0.9-0.1c-0.3-0.1-0.6-0.2-0.8-0.4
		l0.4-0.6c0.4,0.3,0.9,0.5,1.3,0.5c0.2,0,0.3,0,0.4-0.1c0.1-0.1,0.2-0.2,0.2-0.3c0-0.2-0.3-0.4-0.8-0.5h-0.1
		c-0.8-0.2-1.2-0.6-1.2-1.1c0-0.4,0.1-0.6,0.4-0.8c0.3-0.2,0.6-0.3,1.1-0.3c0.4,0,0.8,0.1,1.2,0.4l-0.3,0.6c-0.3-0.2-0.6-0.3-1-0.3
		c-0.2,0-0.3,0-0.5,0.1c-0.1,0.1-0.2,0.2-0.2,0.3s0.1,0.2,0.2,0.3c0.1,0,0.2,0.1,0.4,0.1c0.2,0,0.3,0.1,0.4,0.1s0.2,0.1,0.3,0.1
		s0.2,0.1,0.4,0.2C160.2,554.6,160.4,554.9,160.4,555.3z"/>
	<path fill="#FFFFFF" d="M162.3,553.2v1.9c0,0.2,0,0.3,0.1,0.4c0.1,0.1,0.2,0.2,0.4,0.2s0.3-0.1,0.5-0.2l0.3,0.6
		c-0.3,0.3-0.6,0.4-0.9,0.4c-0.3,0-0.6-0.1-0.9-0.4c-0.2-0.2-0.4-0.6-0.4-1v-1.9H161v-0.6h0.5v-1.2h0.8v1.2h1v0.6H162.3z"/>
	<path fill="#FFFFFF" d="M166.9,555.3c0,0.4-0.1,0.6-0.4,0.9c-0.3,0.3-0.6,0.3-1,0.3c-0.3,0-0.6,0-0.9-0.1c-0.3-0.1-0.6-0.2-0.8-0.4
		l0.4-0.6c0.4,0.3,0.9,0.5,1.3,0.5c0.2,0,0.3,0,0.4-0.1c0.1-0.1,0.2-0.2,0.2-0.3c0-0.2-0.3-0.4-0.8-0.5h-0.1
		c-0.8-0.2-1.2-0.6-1.2-1.1c0-0.4,0.1-0.6,0.4-0.8c0.3-0.2,0.6-0.3,1.1-0.3c0.4,0,0.8,0.1,1.2,0.4l-0.3,0.6c-0.3-0.2-0.6-0.3-1-0.3
		c-0.2,0-0.3,0-0.5,0.1c-0.1,0.1-0.2,0.2-0.2,0.3s0.1,0.2,0.2,0.3c0.1,0,0.2,0.1,0.4,0.1c0.2,0,0.3,0.1,0.4,0.1s0.2,0.1,0.3,0.1
		s0.2,0.1,0.4,0.2C166.8,554.6,166.9,554.9,166.9,555.3z"/>
</g>
<g>
	<path d="M372.3,584.5c-0.3,0-0.5,0.1-0.7,0.2s-0.3,0.3-0.3,0.5s0.1,0.4,0.3,0.5c0.2,0.1,0.5,0.2,1.1,0.4c0.6,0.2,1,0.3,1.3,0.6
		c0.3,0.2,0.4,0.6,0.4,1.1s-0.2,0.9-0.5,1.1c-0.4,0.3-0.8,0.4-1.4,0.4c-0.8,0-1.6-0.3-2.2-0.9l0.6-0.7c0.5,0.5,1.1,0.7,1.7,0.7
		c0.3,0,0.5-0.1,0.7-0.2s0.3-0.3,0.3-0.5s-0.1-0.4-0.2-0.5s-0.4-0.2-0.8-0.3s-0.7-0.2-0.9-0.3c-0.2-0.1-0.4-0.2-0.5-0.3
		c-0.3-0.2-0.5-0.6-0.5-1.1s0.2-0.9,0.5-1.2c0.4-0.3,0.8-0.4,1.3-0.4c0.3,0,0.7,0.1,1,0.2s0.6,0.3,0.9,0.5l-0.5,0.7
		c-0.2-0.1-0.4-0.3-0.6-0.4C373.1,584.5,372.6,584.5,372.3,584.5z"/>
	<path d="M375.5,584.3c-0.1-0.1-0.2-0.2-0.2-0.4c0-0.2,0.1-0.3,0.2-0.4s0.2-0.2,0.4-0.2s0.3,0.1,0.4,0.2s0.2,0.2,0.2,0.4
		c0,0.2-0.1,0.3-0.2,0.4s-0.2,0.2-0.4,0.2S375.6,584.4,375.5,584.3z M376.3,589.2h-0.9v-4.1h0.9V589.2z"/>
	<path d="M377.9,588.7c-0.4-0.4-0.6-0.9-0.6-1.5s0.2-1.1,0.6-1.5s0.9-0.6,1.4-0.6s1,0.2,1.3,0.7v-2.3h0.9v5.7h-0.9v-0.6
		c-0.3,0.5-0.8,0.7-1.4,0.7C378.7,589.3,378.3,589.1,377.9,588.7z M378.2,587.2c0,0.4,0.1,0.7,0.4,1c0.3,0.2,0.5,0.4,0.9,0.4
		s0.6-0.1,0.9-0.4c0.2-0.2,0.4-0.6,0.4-1s-0.1-0.7-0.4-1s-0.5-0.4-0.9-0.4c-0.3,0-0.6,0.1-0.9,0.4
		C378.3,586.5,378.2,586.8,378.2,587.2z"/>
	<path d="M386.6,587.5h-3.2c0,0.3,0.2,0.5,0.4,0.7c0.3,0.2,0.5,0.3,0.9,0.3c0.5,0,0.9-0.2,1.2-0.5l0.5,0.5c-0.4,0.5-1,0.7-1.7,0.7
		c-0.6,0-1.1-0.2-1.5-0.6c-0.4-0.4-0.6-0.9-0.6-1.5c0-0.6,0.2-1.2,0.6-1.5c0.4-0.3,0.9-0.6,1.5-0.6s1,0.2,1.4,0.5s0.6,0.8,0.6,1.4
		L386.6,587.5L386.6,587.5z M383.3,586.9h2.4c0-0.3-0.1-0.6-0.3-0.8c-0.2-0.2-0.5-0.3-0.8-0.3s-0.6,0.1-0.9,0.3
		C383.5,586.3,383.3,586.5,383.3,586.9z"/>
	<path d="M389.3,589.3c-0.6,0-1.1-0.2-1.5-0.6c-0.4-0.4-0.6-0.9-0.6-1.5c0-0.6,0.2-1.1,0.6-1.5c0.4-0.4,1-0.6,1.6-0.6
		s1.1,0.2,1.6,0.6l-0.5,0.6c-0.4-0.3-0.7-0.5-1.1-0.5s-0.7,0.1-0.9,0.4c-0.2,0.3-0.4,0.5-0.4,0.9s0.1,0.7,0.4,1s0.6,0.4,1,0.4
		s0.7-0.2,1.1-0.5l0.5,0.6C390.6,589,390,589.3,389.3,589.3z"/>
	<path d="M395.3,589.2h-0.8v-0.5c-0.3,0.4-0.8,0.6-1.4,0.6c-0.4,0-0.8-0.1-1.1-0.4c-0.3-0.2-0.4-0.6-0.4-1s0.1-0.7,0.4-0.9
		c0.3-0.2,0.7-0.3,1.2-0.3h1.1v-0.2c0-0.5-0.3-0.8-0.9-0.8c-0.4,0-0.8,0.1-1.2,0.4l-0.4-0.5c0.5-0.4,1.1-0.6,1.7-0.6
		c0.5,0,0.9,0.1,1.2,0.4c0.3,0.2,0.5,0.6,0.5,1.2L395.3,589.2L395.3,589.2z M394.4,587.7v-0.3h-1c-0.6,0-0.9,0.2-0.9,0.6
		c0,0.2,0.1,0.4,0.2,0.5c0.1,0.1,0.4,0.2,0.6,0.2s0.5-0.1,0.7-0.2C394.3,588.2,394.4,587.9,394.4,587.7z"/>
	<path d="M398.6,585.9c-0.4,0-0.7,0.1-1,0.4c-0.2,0.3-0.3,0.7-0.3,1.1v1.8h-0.9v-4.1h0.9v0.8c0.1-0.3,0.3-0.5,0.6-0.6
		c0.2-0.2,0.5-0.2,0.8-0.3L398.6,585.9C398.7,585.9,398.6,585.9,398.6,585.9z"/>
</g>
<g>
	<path fill="#444444" d="M406.2,256.5l-1.3,2.9h-2.3l5.5-12.6h2.3l5.5,12.6h-2.3l-1.3-2.9H406.2z M411.6,254.5l-2.3-5.2l-2.3,5.2
		H411.6z"/>
	<path fill="#444444" d="M419.5,254.2v5.2h-2v-9.6h2v1.7c0.3-0.6,0.7-1,1.3-1.4s1.2-0.5,1.9-0.5c1.5,0,2.5,0.6,3.1,1.9
		c0.9-1.2,2.1-1.9,3.5-1.9c1.1,0,2,0.3,2.6,1c0.7,0.7,1,1.6,1,2.9v5.9h-2v-5.3c0-1.8-0.7-2.6-2.2-2.6c-0.7,0-1.3,0.2-1.8,0.7
		c-0.5,0.4-0.8,1.1-0.8,1.9v5.3h-2v-5.3c0-0.9-0.2-1.6-0.5-2s-0.8-0.6-1.5-0.6s-1.3,0.2-1.8,0.7
		C419.7,252.6,419.5,253.3,419.5,254.2z"/>
	<path fill="#444444" d="M443.4,259.4h-1.8v-1.3c-0.8,0.9-1.9,1.4-3.2,1.4c-1,0-1.8-0.3-2.5-0.8c-0.7-0.6-1-1.3-1-2.3s0.3-1.6,1-2.1
		s1.6-0.7,2.8-0.7h2.6v-0.4c0-1.3-0.7-1.9-2.1-1.9c-0.9,0-1.8,0.3-2.8,1l-0.9-1.3c1.2-0.9,2.5-1.4,4-1.4c1.1,0,2,0.3,2.8,0.9
		c0.7,0.6,1.1,1.5,1.1,2.7V259.4z M441.4,255.8V255h-2.3c-1.5,0-2.2,0.5-2.2,1.4c0,0.5,0.2,0.8,0.5,1.1c0.4,0.2,0.9,0.4,1.5,0.4
		s1.2-0.2,1.7-0.5C441.2,256.9,441.4,256.4,441.4,255.8z"/>
	<path fill="#444444" d="M448.3,259.4h-2V246h2V259.4z"/>
	<path fill="#444444" d="M460,249.8v8.4c0,1.7-0.5,3-1.4,3.8c-0.9,0.8-2.1,1.3-3.5,1.3s-2.7-0.5-3.9-1.4l1-1.5
		c0.9,0.7,1.9,1.1,2.8,1.1s1.7-0.2,2.3-0.7c0.6-0.5,0.8-1.3,0.8-2.4v-1.2c-0.3,0.6-0.7,1-1.3,1.4c-0.6,0.3-1.2,0.5-1.9,0.5
		c-1.3,0-2.3-0.4-3.1-1.3c-0.8-0.9-1.2-2-1.2-3.3c0-1.3,0.4-2.4,1.2-3.3c0.8-0.9,1.9-1.3,3.1-1.3c1.3,0,2.3,0.5,3.1,1.6v-1.4h2
		V249.8z M452.6,254.2c0,0.8,0.2,1.5,0.7,2c0.5,0.6,1.1,0.9,2,0.9s1.5-0.3,2-0.8c0.5-0.6,0.8-1.2,0.8-2.1c0-0.8-0.3-1.5-0.8-2.1
		c-0.5-0.6-1.2-0.9-2-0.9s-1.5,0.3-2,0.9C452.8,252.7,452.6,253.4,452.6,254.2z"/>
	<path fill="#444444" d="M470.7,259.4h-1.8v-1.3c-0.8,0.9-1.9,1.4-3.2,1.4c-1,0-1.8-0.3-2.5-0.8c-0.7-0.6-1-1.3-1-2.3s0.3-1.6,1-2.1
		s1.6-0.7,2.8-0.7h2.6v-0.4c0-1.3-0.7-1.9-2.1-1.9c-0.9,0-1.8,0.3-2.8,1l-0.9-1.3c1.2-0.9,2.5-1.4,4-1.4c1.1,0,2,0.3,2.8,0.9
		c0.7,0.6,1.1,1.5,1.1,2.7V259.4z M468.7,255.8V255h-2.3c-1.5,0-2.2,0.5-2.2,1.4c0,0.5,0.2,0.8,0.5,1.1c0.4,0.2,0.9,0.4,1.5,0.4
		s1.2-0.2,1.7-0.5C468.5,256.9,468.7,256.4,468.7,255.8z"/>
	<path fill="#444444" d="M475.5,254.2v5.2h-2v-9.6h2v1.7c0.3-0.6,0.7-1,1.3-1.4s1.2-0.5,1.9-0.5c1.5,0,2.5,0.6,3.1,1.9
		c0.9-1.2,2.1-1.9,3.5-1.9c1.1,0,2,0.3,2.6,1c0.7,0.7,1,1.6,1,2.9v5.9h-2v-5.3c0-1.8-0.7-2.6-2.2-2.6c-0.7,0-1.3,0.2-1.8,0.7
		c-0.5,0.4-0.8,1.1-0.8,1.9v5.3h-2v-5.3c0-0.9-0.2-1.6-0.5-2s-0.8-0.6-1.5-0.6s-1.3,0.2-1.8,0.7
		C475.8,252.6,475.5,253.3,475.5,254.2z"/>
	<path fill="#444444" d="M493,247.5c0.8-0.6,1.8-1,3-1s2.2,0.3,3,1c0.8,0.6,1.2,1.4,1.2,2.4s-0.5,1.8-1.4,2.6
		c1.2,0.8,1.8,1.8,1.8,3.2c0,1.1-0.4,2-1.3,2.7s-2,1.1-3.4,1.1s-2.5-0.4-3.4-1.1s-1.3-1.6-1.3-2.7c0-1.4,0.6-2.5,1.8-3.2
		c-0.9-0.7-1.3-1.6-1.3-2.6C491.8,248.9,492.2,248.1,493,247.5z M494.3,257.1c0.6,0.4,1.1,0.5,1.8,0.5s1.2-0.2,1.8-0.5
		c0.6-0.4,0.8-0.9,0.8-1.5c0-0.7-0.3-1.2-0.8-1.5c-0.5-0.3-1.1-0.5-1.8-0.5s-1.3,0.2-1.8,0.5c-0.5,0.3-0.8,0.9-0.8,1.5
		C493.5,256.3,493.7,256.8,494.3,257.1z M494.5,251.4c0.5,0.4,1,0.5,1.6,0.5s1.1-0.2,1.6-0.5c0.5-0.4,0.7-0.8,0.7-1.4
		s-0.2-1-0.7-1.3c-0.4-0.4-1-0.5-1.6-0.5s-1.1,0.2-1.6,0.5c-0.5,0.4-0.7,0.8-0.7,1.3S494,251.1,494.5,251.4z"/>
	<path fill="#444444" d="M510.2,256.5l-1.3,2.9h-2.3l5.5-12.6h2.3l5.5,12.6h-2.3l-1.3-2.9H510.2z M515.7,254.5l-2.3-5.2l-2.3,5.2
		H515.7z"/>
	<path fill="#444444" d="M530.3,247.9c0.9,0.7,1.3,1.9,1.3,3.4s-0.4,2.6-1.3,3.3c-0.9,0.7-2.3,1.1-4.1,1.1H524v3.7h-2.1v-12.6h4.3
		C528,246.8,529.4,247.2,530.3,247.9z M528.8,253.1c0.4-0.5,0.6-1.1,0.6-2c0-0.9-0.3-1.5-0.8-1.8c-0.5-0.4-1.4-0.5-2.5-0.5h-2.2v5
		h2.5C527.6,253.8,528.4,253.5,528.8,253.1z"/>
	<path fill="#444444" d="M534.1,246.8h2.1v12.6h-2.1V246.8z"/>
</g>
<g>
	<path fill="#444444" d="M341.2,306.5l-1.3,2.9h-2.3l5.5-12.6h2.3l5.5,12.6h-2.3l-1.3-2.9H341.2z M346.6,304.5l-2.3-5.2l-2.3,5.2
		H346.6z"/>
	<path fill="#444444" d="M354.5,304.2v5.2h-2v-9.6h2v1.7c0.3-0.6,0.7-1,1.3-1.4c0.6-0.4,1.2-0.5,1.9-0.5c1.5,0,2.5,0.6,3.1,1.9
		c0.9-1.2,2.1-1.9,3.5-1.9c1.1,0,2,0.3,2.6,1c0.7,0.7,1,1.6,1,2.9v5.9h-2v-5.3c0-1.8-0.7-2.6-2.2-2.6c-0.7,0-1.3,0.2-1.8,0.7
		c-0.5,0.4-0.8,1.1-0.8,1.9v5.3h-2v-5.3c0-0.9-0.2-1.6-0.5-2c-0.3-0.4-0.8-0.6-1.5-0.6s-1.3,0.2-1.8,0.7
		C354.7,302.6,354.5,303.3,354.5,304.2z"/>
	<path fill="#444444" d="M378.4,309.4h-1.8v-1.3c-0.8,0.9-1.9,1.4-3.2,1.4c-1,0-1.8-0.3-2.5-0.8c-0.7-0.6-1-1.3-1-2.3s0.3-1.6,1-2.1
		s1.6-0.7,2.8-0.7h2.6v-0.4c0-1.3-0.7-1.9-2.1-1.9c-0.9,0-1.8,0.3-2.8,1l-0.9-1.3c1.2-0.9,2.5-1.4,4-1.4c1.1,0,2,0.3,2.8,0.9
		c0.7,0.6,1.1,1.5,1.1,2.7V309.4z M376.4,305.8V305h-2.3c-1.5,0-2.2,0.5-2.2,1.4c0,0.5,0.2,0.8,0.5,1.1c0.4,0.2,0.9,0.4,1.5,0.4
		s1.2-0.2,1.7-0.5C376.2,306.9,376.4,306.4,376.4,305.8z"/>
	<path fill="#444444" d="M383.3,309.4h-2V296h2V309.4z"/>
	<path fill="#444444" d="M395,299.8v8.4c0,1.7-0.5,3-1.4,3.8s-2.1,1.3-3.5,1.3s-2.7-0.5-3.9-1.4l1-1.5c0.9,0.7,1.9,1.1,2.8,1.1
		s1.7-0.2,2.3-0.7c0.6-0.5,0.8-1.3,0.8-2.4v-1.2c-0.3,0.6-0.7,1-1.3,1.4c-0.6,0.3-1.2,0.5-1.9,0.5c-1.3,0-2.3-0.4-3.1-1.3
		c-0.8-0.9-1.2-2-1.2-3.3c0-1.3,0.4-2.4,1.2-3.3c0.8-0.9,1.9-1.3,3.1-1.3c1.3,0,2.3,0.5,3.1,1.6v-1.4h2V299.8z M387.6,304.2
		c0,0.8,0.2,1.5,0.7,2c0.5,0.6,1.1,0.9,2,0.9s1.5-0.3,2-0.8c0.5-0.6,0.8-1.2,0.8-2.1c0-0.8-0.3-1.5-0.8-2.1s-1.2-0.9-2-0.9
		s-1.5,0.3-2,0.9S387.6,303.4,387.6,304.2z"/>
	<path fill="#444444" d="M405.7,309.4h-1.8v-1.3c-0.8,0.9-1.9,1.4-3.2,1.4c-1,0-1.8-0.3-2.5-0.8c-0.7-0.6-1-1.3-1-2.3s0.3-1.6,1-2.1
		s1.6-0.7,2.8-0.7h2.6v-0.4c0-1.3-0.7-1.9-2.1-1.9c-0.9,0-1.8,0.3-2.8,1l-0.9-1.3c1.2-0.9,2.5-1.4,4-1.4c1.1,0,2,0.3,2.8,0.9
		c0.7,0.6,1.1,1.5,1.1,2.7V309.4z M403.7,305.8V305h-2.3c-1.5,0-2.2,0.5-2.2,1.4c0,0.5,0.2,0.8,0.5,1.1c0.4,0.2,0.9,0.4,1.5,0.4
		s1.2-0.2,1.7-0.5C403.5,306.9,403.7,306.4,403.7,305.8z"/>
	<path fill="#444444" d="M410.5,304.2v5.2h-2v-9.6h2v1.7c0.3-0.6,0.7-1,1.3-1.4c0.6-0.4,1.2-0.5,1.9-0.5c1.5,0,2.5,0.6,3.1,1.9
		c0.9-1.2,2.1-1.9,3.5-1.9c1.1,0,2,0.3,2.6,1c0.7,0.7,1,1.6,1,2.9v5.9h-2v-5.3c0-1.8-0.7-2.6-2.2-2.6c-0.7,0-1.3,0.2-1.8,0.7
		c-0.5,0.4-0.8,1.1-0.8,1.9v5.3h-2v-5.3c0-0.9-0.2-1.6-0.5-2c-0.3-0.4-0.8-0.6-1.5-0.6s-1.3,0.2-1.8,0.7
		C410.8,302.6,410.5,303.3,410.5,304.2z"/>
	<path fill="#444444" d="M428,297.5c0.8-0.6,1.8-1,3-1s2.2,0.3,3,1c0.8,0.6,1.2,1.4,1.2,2.4s-0.5,1.8-1.4,2.6
		c1.2,0.8,1.8,1.8,1.8,3.2c0,1.1-0.4,2-1.3,2.7s-2,1.1-3.4,1.1s-2.5-0.4-3.4-1.1c-0.9-0.7-1.3-1.6-1.3-2.7c0-1.4,0.6-2.5,1.8-3.2
		c-0.9-0.7-1.3-1.6-1.3-2.6C426.8,298.9,427.2,298.1,428,297.5z M429.3,307.1c0.6,0.4,1.1,0.5,1.8,0.5s1.2-0.2,1.8-0.5
		c0.6-0.4,0.8-0.9,0.8-1.5c0-0.7-0.3-1.2-0.8-1.5s-1.1-0.5-1.8-0.5s-1.3,0.2-1.8,0.5s-0.8,0.9-0.8,1.5
		C428.5,306.3,428.7,306.8,429.3,307.1z M429.5,301.4c0.5,0.4,1,0.5,1.6,0.5s1.1-0.2,1.6-0.5c0.5-0.4,0.7-0.8,0.7-1.4
		s-0.2-1-0.7-1.3c-0.4-0.4-1-0.5-1.6-0.5s-1.1,0.2-1.6,0.5c-0.5,0.4-0.7,0.8-0.7,1.3S429,301.1,429.5,301.4z"/>
	<path fill="#444444" d="M449.2,307.4c0.7,0,1.4-0.1,1.9-0.4s1.1-0.6,1.7-1.2l1.4,1.4c-1.3,1.5-2.9,2.2-4.9,2.2
		c-1.9,0-3.5-0.6-4.7-1.8c-1.2-1.2-1.9-2.8-1.9-4.6c0-1.8,0.6-3.4,1.9-4.7c1.3-1.2,2.9-1.9,4.8-1.9s3.6,0.7,4.9,2.2l-1.3,1.5
		c-0.6-0.6-1.2-1-1.7-1.2s-1.2-0.3-1.9-0.3c-1.3,0-2.3,0.4-3.2,1.2s-1.3,1.9-1.3,3.1s0.4,2.3,1.3,3.2C447,307,448,307.4,449.2,307.4
		z"/>
	<path fill="#444444" d="M464.1,308.1c-1,1-2.2,1.4-3.6,1.4s-2.6-0.5-3.6-1.4s-1.4-2.1-1.4-3.5s0.5-2.5,1.4-3.5s2.2-1.4,3.6-1.4
		s2.6,0.5,3.6,1.4s1.4,2.1,1.4,3.5C465.6,306,465.1,307.1,464.1,308.1z M458.4,306.8c0.6,0.6,1.3,0.9,2.2,0.9c0.9,0,1.6-0.3,2.2-0.9
		c0.6-0.6,0.9-1.3,0.9-2.3c0-0.9-0.3-1.7-0.9-2.3c-0.6-0.6-1.3-0.9-2.2-0.9c-0.9,0-1.6,0.3-2.2,0.9c-0.6,0.6-0.9,1.3-0.9,2.3
		S457.8,306.3,458.4,306.8z"/>
	<path fill="#444444" d="M469.9,304.2v5.2h-2v-9.6h2v1.7c0.3-0.6,0.8-1,1.3-1.4c0.6-0.3,1.2-0.5,1.8-0.5c1.1,0,2,0.3,2.6,1
		c0.7,0.7,1,1.6,1,2.9v5.9h-2v-5.3c0-1.8-0.7-2.6-2.2-2.6c-0.7,0-1.3,0.2-1.8,0.7S469.9,303.3,469.9,304.2z"/>
	<path fill="#444444" d="M481.9,301.4v4.9c0,0.5,0.1,0.8,0.4,1.1c0.2,0.3,0.6,0.4,1,0.4s0.8-0.2,1.2-0.6l0.8,1.4
		c-0.7,0.6-1.5,1-2.3,1c-0.9,0-1.6-0.3-2.2-0.9s-0.9-1.4-0.9-2.4v-4.8h-1.2v-1.6h1.2v-3h2v3h2.5v1.6h-2.5V301.4z"/>
	<path fill="#444444" d="M491.9,301.7c-1,0-1.7,0.3-2.2,1c-0.5,0.7-0.8,1.5-0.8,2.6v4.1h-2v-9.6h2v1.9c0.3-0.6,0.8-1.1,1.3-1.5
		c0.6-0.4,1.1-0.6,1.8-0.6v2C492,301.7,492,301.7,491.9,301.7z"/>
	<path fill="#444444" d="M501.9,308.1c-1,1-2.2,1.4-3.6,1.4s-2.6-0.5-3.6-1.4c-1-1-1.4-2.1-1.4-3.5s0.5-2.5,1.4-3.5
		c1-1,2.2-1.4,3.6-1.4s2.6,0.5,3.6,1.4s1.4,2.1,1.4,3.5S502.8,307.1,501.9,308.1z M496.1,306.8c0.6,0.6,1.3,0.9,2.2,0.9
		s1.6-0.3,2.2-0.9c0.6-0.6,0.9-1.3,0.9-2.3c0-0.9-0.3-1.7-0.9-2.3c-0.6-0.6-1.3-0.9-2.2-0.9s-1.6,0.3-2.2,0.9
		c-0.6,0.6-0.9,1.3-0.9,2.3S495.5,306.3,496.1,306.8z"/>
	<path fill="#444444" d="M507.6,309.4h-2V296h2V309.4z"/>
	<path fill="#444444" d="M512.5,309.4h-2V296h2V309.4z"/>
	<path fill="#444444" d="M524.4,305.5h-7.5c0,0.7,0.4,1.3,1,1.7c0.6,0.4,1.3,0.6,2,0.6c1.2,0,2.1-0.4,2.7-1.1l1.2,1.3
		c-1,1.1-2.4,1.6-4,1.6c-1.3,0-2.5-0.4-3.4-1.3c-0.9-0.9-1.4-2.1-1.4-3.6s0.5-2.7,1.4-3.6c1-0.9,2.1-1.3,3.4-1.3
		c1.3,0,2.4,0.4,3.3,1.2c0.9,0.8,1.4,1.9,1.4,3.2L524.4,305.5L524.4,305.5z M516.9,303.9h5.5c0-0.8-0.3-1.4-0.8-1.9
		c-0.5-0.4-1.1-0.6-1.9-0.6c-0.7,0-1.4,0.2-2,0.7C517.2,302.5,516.9,303.1,516.9,303.9z"/>
	<path fill="#444444" d="M531.6,301.7c-1,0-1.7,0.3-2.2,1c-0.5,0.7-0.8,1.5-0.8,2.6v4.1h-2v-9.6h2v1.9c0.3-0.6,0.8-1.1,1.3-1.5
		c0.6-0.4,1.1-0.6,1.8-0.6v2C531.7,301.7,531.6,301.7,531.6,301.7z"/>
	<path fill="#444444" d="M533.5,308.2c0-0.4,0.1-0.7,0.4-1c0.3-0.3,0.6-0.4,0.9-0.4c0.4,0,0.7,0.1,0.9,0.4c0.3,0.3,0.4,0.6,0.4,0.9
		s-0.2,0.8-0.5,1.3l-1.1,1.8h-1l0.7-1.9C533.7,309.2,533.5,308.8,533.5,308.2z"/>
	<path fill="#444444" d="M554.1,300.9c0,2.1-0.9,3.4-2.7,3.9l3.3,4.6H552l-3-4.2h-2.8v4.2H544v-12.6h4.7c1.9,0,3.3,0.3,4.1,1
		C553.6,298.4,554.1,299.4,554.1,300.9z M551.2,302.7c0.4-0.4,0.6-1,0.6-1.8s-0.2-1.4-0.7-1.7c-0.4-0.3-1.2-0.5-2.4-0.5H546v4.5h2.6
		C550,303.2,550.8,303,551.2,302.7z"/>
	<path fill="#444444" d="M565.7,305.5h-7.5c0,0.7,0.4,1.3,1,1.7c0.6,0.4,1.3,0.6,2,0.6c1.2,0,2.1-0.4,2.7-1.1l1.2,1.3
		c-1,1.1-2.4,1.6-4,1.6c-1.3,0-2.5-0.4-3.4-1.3c-0.9-0.9-1.4-2.1-1.4-3.6s0.5-2.7,1.4-3.6c1-0.9,2.1-1.3,3.4-1.3s2.4,0.4,3.3,1.2
		c0.9,0.8,1.4,1.9,1.4,3.2v1.3H565.7z M558.2,303.9h5.5c0-0.8-0.3-1.4-0.8-1.9c-0.5-0.4-1.1-0.6-1.9-0.6c-0.7,0-1.4,0.2-2,0.7
		C558.5,302.5,558.2,303.1,558.2,303.9z"/>
	<path fill="#444444" d="M576.8,299.8v8.4c0,1.7-0.5,3-1.4,3.8c-0.9,0.8-2.1,1.3-3.5,1.3c-1.4,0-2.7-0.5-3.9-1.4l1-1.5
		c0.9,0.7,1.9,1.1,2.8,1.1c1,0,1.7-0.2,2.3-0.7s0.8-1.3,0.8-2.4v-1.2c-0.3,0.6-0.7,1-1.3,1.4c-0.6,0.3-1.2,0.5-1.9,0.5
		c-1.3,0-2.3-0.4-3.1-1.3c-0.8-0.9-1.2-2-1.2-3.3c0-1.3,0.4-2.4,1.2-3.3c0.8-0.9,1.9-1.3,3.1-1.3c1.3,0,2.3,0.5,3.1,1.6v-1.4h2
		V299.8z M569.3,304.2c0,0.8,0.2,1.5,0.7,2c0.5,0.6,1.1,0.9,2,0.9c0.8,0,1.5-0.3,2-0.8c0.5-0.6,0.8-1.2,0.8-2.1
		c0-0.8-0.3-1.5-0.8-2.1s-1.2-0.9-2-0.9s-1.5,0.3-2,0.9C569.6,302.7,569.3,303.4,569.3,304.2z"/>
	<path fill="#444444" d="M579.8,297.9c-0.3-0.3-0.4-0.6-0.4-0.9s0.1-0.6,0.4-0.9s0.6-0.4,0.9-0.4c0.3,0,0.6,0.1,0.9,0.4
		c0.3,0.3,0.4,0.6,0.4,0.9s-0.1,0.6-0.4,0.9c-0.3,0.3-0.6,0.4-0.9,0.4C580.4,298.3,580.1,298.1,579.8,297.9z M581.7,309.4h-2v-9.6h2
		V309.4z"/>
	<path fill="#444444" d="M591.5,306.5c0,0.9-0.3,1.6-1,2.2c-0.7,0.6-1.5,0.8-2.5,0.8c-0.7,0-1.4-0.1-2.2-0.4s-1.4-0.6-2-1.1l1-1.6
		c1.1,0.8,2.2,1.3,3.2,1.3c0.5,0,0.8-0.1,1.1-0.3c0.3-0.2,0.4-0.5,0.4-0.8c0-0.5-0.6-0.9-1.9-1.3c-0.1,0-0.2-0.1-0.2-0.1
		c-2-0.5-3-1.4-3-2.7c0-0.9,0.3-1.6,1-2.1c0.7-0.5,1.6-0.8,2.7-0.8c1.1,0,2.1,0.3,3.1,1l-0.8,1.5c-0.8-0.5-1.6-0.8-2.5-0.8
		c-0.5,0-0.9,0.1-1.2,0.3s-0.5,0.4-0.5,0.8c0,0.3,0.2,0.5,0.5,0.7c0.2,0.1,0.5,0.2,0.9,0.3c0.4,0.1,0.7,0.2,1,0.3
		c0.3,0.1,0.6,0.2,0.9,0.3c0.3,0.1,0.6,0.3,0.9,0.5C591.2,304.9,591.5,305.6,591.5,306.5z"/>
	<path fill="#444444" d="M596.2,301.4v4.9c0,0.5,0.1,0.8,0.4,1.1c0.3,0.3,0.6,0.4,1,0.4c0.4,0,0.8-0.2,1.2-0.6l0.8,1.4
		c-0.7,0.6-1.5,1-2.3,1c-0.9,0-1.6-0.3-2.2-0.9c-0.6-0.6-0.9-1.4-0.9-2.4v-4.8H593v-1.6h1.2v-3h2v3h2.5v1.6h-2.5V301.4z"/>
	<path fill="#444444" d="M606.3,301.7c-1,0-1.7,0.3-2.2,1c-0.5,0.7-0.8,1.5-0.8,2.6v4.1h-2v-9.6h2v1.9c0.3-0.6,0.8-1.1,1.3-1.5
		c0.6-0.4,1.1-0.6,1.8-0.6v2C606.4,301.7,606.3,301.7,606.3,301.7z"/>
	<path fill="#444444" d="M609.6,313.2c-0.9,0-1.7-0.3-2.4-1l0.9-1.6c0.4,0.4,0.9,0.6,1.3,0.6s0.8-0.2,1.1-0.5
		c0.3-0.3,0.4-0.7,0.4-1.1c0-0.2-1.3-3.4-3.9-9.8h2.2l2.9,7.1l2.9-7.1h2.2l-4.6,11.4c-0.3,0.6-0.7,1.1-1.2,1.5
		C610.8,313,610.3,313.2,609.6,313.2z"/>
</g>
<g>
	<g>
		<polygon fill="#9D6E80" points="330,555.3 274.6,518.8 330,489.8 330.7,491.2 277.7,519 330.8,554.1 		"/>
	</g>
	<g>
		<g>
			<path fill="#9D6E80" d="M326.8,545.7c-0.3,0.1-0.4,0.5-0.3,0.8l3.6,8.1l-8.9-0.1c-0.3,0-0.6,0.3-0.6,0.6c0,0.3,0.3,0.6,0.6,0.6
				l9.8,0.2c0.2,0,0.4-0.1,0.5-0.3c0.1-0.2,0.1-0.4,0-0.6l-4-8.9c0-0.1-0.1-0.2-0.2-0.2C327.2,545.6,327,545.6,326.8,545.7z"/>
		</g>
	</g>
	<g>
		<g>
			<path fill="#9D6E80" d="M325.9,499.1c-0.3-0.2-0.4-0.5-0.2-0.8l4.4-7.7l-8.8-0.7c-0.3,0-0.6-0.3-0.5-0.6c0-0.3,0.3-0.6,0.6-0.5
				l9.7,0.8c0.2,0,0.4,0.1,0.5,0.3c0.1,0.2,0.1,0.4,0,0.6l-4.9,8.5c-0.1,0.1-0.1,0.2-0.2,0.2C326.3,499.2,326.1,499.2,325.9,499.1z"
				/>
		</g>
	</g>
</g>
<g>
	<rect x="260.7" y="493.9" fill="#452845" width="10.1" height="49.1"/>
</g>
<g>
	<rect x="379" y="538" fill="#452845" width="10.1" height="40.2"/>
</g>
<g>
	<rect x="379" y="465.4" fill="#452845" width="10.1" height="40.2"/>
</g>
<g>
	<g>
		<path fill="#FFFFFF" d="M465.8,578.6h-20.2c-5.7,0-10.4-4.7-10.4-10.4V548c0-5.8,4.7-10.4,10.4-10.4h20.2
			c5.7,0,10.4,4.7,10.4,10.4v20.2C476.3,573.9,471.6,578.6,465.8,578.6z"/>
		<path fill="#452845" d="M465.8,579.1h-20.2c-6,0-10.9-4.9-10.9-10.9V548c0-6,4.9-10.9,10.9-10.9h20.2c6,0,10.9,4.9,10.9,10.9v20.2
			C476.8,574.2,471.9,579.1,465.8,579.1z M445.7,538.1c-5.5,0-9.9,4.5-9.9,9.9v20.2c0,5.5,4.5,9.9,9.9,9.9h20.2
			c5.5,0,9.9-4.5,9.9-9.9V548c0-5.5-4.5-9.9-9.9-9.9H445.7z"/>
	</g>
</g>
<g>
	<g>
		<path fill="#FFFFFF" d="M465.8,506h-20.2c-5.7,0-10.4-4.7-10.4-10.4v-20.2c0-5.8,4.7-10.4,10.4-10.4h20.2
			c5.7,0,10.4,4.7,10.4,10.4v20.2C476.3,501.4,471.6,506,465.8,506z"/>
		<path fill="#452845" d="M465.8,506.5h-20.2c-6,0-10.9-4.9-10.9-10.9v-20.2c0-6,4.9-10.9,10.9-10.9h20.2c6,0,10.9,4.9,10.9,10.9
			v20.2C476.8,501.6,471.9,506.5,465.8,506.5z M445.7,465.5c-5.5,0-9.9,4.5-9.9,9.9v20.2c0,5.5,4.5,9.9,9.9,9.9h20.2
			c5.5,0,9.9-4.5,9.9-9.9v-20.2c0-5.5-4.5-9.9-9.9-9.9H445.7z"/>
	</g>
</g>
<g>
	<path fill="#444444" d="M456.2,490.2H452v-9.7h3.8c0.7,0,1.2,0.1,1.7,0.2c0.5,0.2,0.8,0.4,1.1,0.6c0.4,0.5,0.7,1.1,0.7,1.7
		c0,0.8-0.2,1.3-0.7,1.7c-0.2,0.1-0.3,0.2-0.4,0.2s-0.2,0.1-0.3,0.2c0.6,0.1,1.1,0.4,1.4,0.8c0.4,0.4,0.5,0.9,0.5,1.5
		c0,0.7-0.2,1.3-0.7,1.8C458.5,489.9,457.5,490.2,456.2,490.2z M453.6,484.6h2.1c1.2,0,1.8-0.4,1.8-1.2c0-0.5-0.1-0.8-0.4-1
		s-0.7-0.3-1.3-0.3h-2.1v2.5H453.6z M453.6,488.7h2.6c0.6,0,1.1-0.1,1.4-0.3c0.3-0.2,0.5-0.5,0.5-1.1c0-0.9-0.7-1.3-2.1-1.3h-2.4
		V488.7z"/>
	<path fill="#444444" d="M461.4,482.1c-0.3-0.1-0.4-0.4-0.4-0.7s0.1-0.5,0.2-0.7c0.2-0.2,0.4-0.2,0.6-0.2s0.5,0.1,0.6,0.2
		s0.3,0.4,0.3,0.6c0,0.3-0.1,0.5-0.2,0.7l-0.8,1.2h-0.8L461.4,482.1z"/>
</g>
<g>
	<path fill="#444444" d="M456.2,564H452v-9.7h3.8c0.7,0,1.2,0.1,1.7,0.2c0.5,0.2,0.8,0.4,1.1,0.6c0.4,0.5,0.7,1.1,0.7,1.7
		c0,0.8-0.2,1.3-0.7,1.7c-0.2,0.1-0.3,0.2-0.4,0.2s-0.2,0.1-0.3,0.2c0.6,0.1,1.1,0.4,1.4,0.8c0.4,0.4,0.5,0.9,0.5,1.5
		c0,0.7-0.2,1.3-0.7,1.8C458.5,563.7,457.5,564,456.2,564z M453.6,558.3h2.1c1.2,0,1.8-0.4,1.8-1.2c0-0.5-0.1-0.8-0.4-1
		s-0.7-0.3-1.3-0.3h-2.1v2.5H453.6z M453.6,562.4h2.6c0.6,0,1.1-0.1,1.4-0.3c0.3-0.2,0.5-0.5,0.5-1.1c0-0.9-0.7-1.3-2.1-1.3h-2.4
		V562.4z"/>
</g>
<g>
	<rect x="479" y="538" fill="#452845" width="10.1" height="40.2"/>
</g>
<g>
	<rect x="479" y="465.4" fill="#452845" width="10.1" height="40.2"/>
</g>
<g>
	<g>
		<path fill="#FFFFFF" d="M565.7,506.7h-20.2c-5.7,0-10.4-4.7-10.4-10.4v-20.2c0-5.8,4.7-10.4,10.4-10.4h20.2
			c5.7,0,10.4,4.7,10.4,10.4v20.2C576.1,502,571.4,506.7,565.7,506.7z"/>
		<path fill="#452845" d="M565.7,507.2h-20.2c-6,0-10.9-4.9-10.9-10.9v-20.2c0-6,4.9-10.9,10.9-10.9h20.2c6,0,10.9,4.9,10.9,10.9
			v20.2C576.6,502.3,571.7,507.2,565.7,507.2z M545.5,466.2c-5.5,0-9.9,4.5-9.9,9.9v20.2c0,5.5,4.5,9.9,9.9,9.9h20.2
			c5.5,0,9.9-4.5,9.9-9.9v-20.2c0-5.5-4.5-9.9-9.9-9.9H545.5z"/>
	</g>
</g>
<g>
	<path fill="#444444" d="M556.2,488.8c0.6,0,1.1-0.1,1.5-0.3c0.4-0.2,0.8-0.5,1.3-0.9l1.1,1.1c-1,1.1-2.3,1.7-3.7,1.7
		s-2.7-0.5-3.7-1.4s-1.5-2.1-1.5-3.6c0-1.4,0.5-2.7,1.5-3.6s2.2-1.4,3.7-1.4s2.8,0.6,3.8,1.7l-1,1.1c-0.5-0.4-0.9-0.8-1.3-0.9
		c-0.4-0.2-0.9-0.3-1.5-0.3c-1,0-1.8,0.3-2.5,1c-0.7,0.7-1,1.4-1,2.4s0.3,1.8,1,2.5C554.5,488.4,555.3,488.8,556.2,488.8z"/>
</g>
<g>
	<rect x="578.8" y="466.1" fill="#452845" width="10.1" height="40.2"/>
</g>
<g>
	<g>
		<polygon fill="#9D6E80" points="392.6,562.2 429.7,496.3 431.1,497.1 395.3,560.7 429.8,560.5 429.8,562.1 		"/>
	</g>
	<g>
		<g>
			<polygon fill="#9D6E80" points="424.4,497.7 424.7,498.8 430.2,497.1 431.5,502.6 432.6,502.4 431,495.6 			"/>
		</g>
	</g>
	<g>
		<g>
			<polygon fill="#9D6E80" points="425.9,566.1 425.1,565.2 429.3,561.3 425.1,557.4 425.9,556.6 431,561.3 			"/>
		</g>
	</g>
</g>
<g>
	<g>
		<polygon fill="#9D6E80" points="528.5,550.5 491.4,484.6 528.5,484.7 528.5,486.2 494,486.1 529.8,549.7 		"/>
	</g>
	<g>
		<g>
			<polygon fill="#9D6E80" points="531.4,544.4 530.3,544.1 528.9,549.7 523.5,547.9 523.1,549.1 529.8,551.2 			"/>
		</g>
	</g>
	<g>
		<g>
			<polygon fill="#9D6E80" points="524.7,490.2 523.9,489.3 528.1,485.4 523.9,481.5 524.7,480.7 529.8,485.4 			"/>
		</g>
	</g>
</g>
<g>
	<g>
		<polygon fill="#9D6E80" points="491.4,562.2 528.5,496.3 529.8,497.1 494,560.7 528.5,560.5 528.5,562.1 		"/>
	</g>
	<g>
		<g>
			<polygon fill="#9D6E80" points="523.1,497.7 523.5,498.8 528.9,497.1 530.3,502.6 531.4,502.4 529.8,495.6 			"/>
		</g>
	</g>
	<g>
		<g>
			<polygon fill="#9D6E80" points="524.7,566.1 523.9,565.2 528.1,561.3 523.9,557.4 524.7,556.6 529.8,561.3 			"/>
		</g>
	</g>
</g>
<g>
	<g>
		<path fill="#9D6E80" d="M378.2,459.1c-4.6-9.4-6.7-19.2-6.3-29.3c0.3-8,2.3-15.8,5.8-23.2l1.4,0.7c-3.4,7.2-5.3,14.8-5.6,22.6
			c-0.4,9.8,1.7,19.3,6.2,28.5L378.2,459.1z"/>
	</g>
	<g>
		<g>
			<polygon fill="#9D6E80" points="381.5,453.2 380.4,452.9 378.7,458.3 373.4,456.2 373,457.3 379.4,459.9 			"/>
		</g>
	</g>
</g>
<g>
	<g>
		<path fill="#9D6E80" d="M389.2,460.6l-1.4-0.7c3.5-7.3,5.4-14.9,5.7-22.8c0.4-9.8-1.7-19.3-6.2-28.5l1.4-0.7
			c4.6,9.4,6.7,19.2,6.3,29.3C394.7,445.2,392.7,453.1,389.2,460.6z"/>
	</g>
	<g>
		<g>
			<polygon fill="#9D6E80" points="393.9,409.7 393.5,410.8 388.2,408.7 386.5,414.1 385.4,413.8 387.5,407.1 			"/>
		</g>
	</g>
</g>
<g>
	<g>
		<path fill="#9D6E80" d="M480.3,459.5c-4.6-9.4-6.7-19.2-6.3-29.3c0.3-8,2.3-15.8,5.8-23.2l1.4,0.7c-3.4,7.2-5.3,14.8-5.6,22.6
			c-0.4,9.8,1.7,19.3,6.2,28.5L480.3,459.5z"/>
	</g>
	<g>
		<g>
			<polygon fill="#9D6E80" points="483.7,453.6 482.6,453.3 480.9,458.7 475.6,456.6 475.1,457.7 481.6,460.2 			"/>
		</g>
	</g>
</g>
<g>
	<g>
		<path fill="#9D6E80" d="M491.3,460.9l-1.4-0.7c3.5-7.3,5.4-14.9,5.7-22.8c0.4-9.8-1.7-19.3-6.2-28.5l1.4-0.7
			c4.6,9.4,6.7,19.2,6.3,29.3C496.9,445.6,494.9,453.5,491.3,460.9z"/>
	</g>
	<g>
		<g>
			<polygon fill="#9D6E80" points="496.1,410.1 495.7,411.2 490.4,409.1 488.7,414.5 487.5,414.1 489.7,407.5 			"/>
		</g>
	</g>
</g>
<g>
	<g>
		<path fill="#9D6E80" d="M579.4,459.8c-4.6-9.4-6.7-19.2-6.3-29.3c0.3-8,2.3-15.8,5.8-23.2l1.4,0.7c-3.4,7.2-5.3,14.8-5.6,22.6
			c-0.4,9.8,1.7,19.3,6.2,28.5L579.4,459.8z"/>
	</g>
	<g>
		<g>
			<polygon fill="#9D6E80" points="582.8,454 581.7,453.6 580,459.1 574.7,456.9 574.2,458 580.7,460.6 			"/>
		</g>
	</g>
</g>
<g>
	<g>
		<path fill="#9D6E80" d="M590.4,461.3l-1.4-0.7c3.5-7.3,5.4-14.9,5.7-22.8c0.4-9.8-1.7-19.3-6.2-28.5l1.4-0.7
			c4.6,9.4,6.7,19.2,6.3,29.3C596,446,594,453.9,590.4,461.3z"/>
	</g>
	<g>
		<g>
			<polygon fill="#9D6E80" points="595.2,410.5 594.8,411.5 589.5,409.4 587.7,414.9 586.6,414.5 588.8,407.9 			"/>
		</g>
	</g>
</g>
<g>
	<rect x="207.5" y="337.4" fill="#452845" width="538.8" height="13.1"/>
</g>
<g>
	<g>
		<path fill="#452845" d="M551.3,563c-5.8,0-10.3-1.8-10.3-4.2c0-2.3,4.5-4.2,10.3-4.2s10.3,1.8,10.3,4.2S557.1,563,551.3,563z
			 M551.3,555.5c-5.7,0-9.5,1.8-9.5,3.4c0,1.6,3.8,3.4,9.5,3.4s9.5-1.8,9.5-3.4C560.8,557.2,557,555.5,551.3,555.5z"/>
	</g>
	<g>
		<path fill="#452845" d="M551.3,578.4c-5.8,0-10.3-1.8-10.3-4.2h0.8c0,1.6,3.8,3.4,9.5,3.4s9.5-1.8,9.5-3.4h0.8
			C561.6,576.6,557.1,578.4,551.3,578.4z"/>
	</g>
	<g>
		<path fill="#452845" d="M572.7,578.4c-5.8,0-10.3-1.8-10.3-4.2h0.8c0,1.6,3.8,3.4,9.5,3.4s9.5-1.8,9.5-3.4h0.8
			C583,576.6,578.5,578.4,572.7,578.4z"/>
	</g>
	<g>
		<path fill="#452845" d="M594.1,578.4c-5.8,0-10.3-1.8-10.3-4.2h0.8c0,1.6,3.8,3.4,9.5,3.4c5.7,0,9.5-1.8,9.5-3.4h0.8
			C604.4,576.6,599.9,578.4,594.1,578.4z"/>
	</g>
	<g>
		<path fill="#452845" d="M572.7,563c-5.8,0-10.3-1.8-10.3-4.2c0-2.3,4.5-4.2,10.3-4.2s10.3,1.8,10.3,4.2S578.5,563,572.7,563z
			 M572.7,555.5c-5.7,0-9.5,1.8-9.5,3.4c0,1.6,3.8,3.4,9.5,3.4s9.5-1.8,9.5-3.4C582.2,557.2,578.4,555.5,572.7,555.5z"/>
	</g>
	<g>
		<path fill="#452845" d="M594.1,563c-5.8,0-10.3-1.8-10.3-4.2c0-2.3,4.5-4.2,10.3-4.2c5.8,0,10.3,1.8,10.3,4.2S599.9,563,594.1,563
			z M594.1,555.5c-5.7,0-9.5,1.8-9.5,3.4c0,1.6,3.8,3.4,9.5,3.4c5.7,0,9.5-1.8,9.5-3.4C603.7,557.2,599.8,555.5,594.1,555.5z"/>
	</g>
	<g>
		<rect x="541" y="558.8" fill="#452845" width="0.8" height="15.4"/>
	</g>
	<g>
		<rect x="560.8" y="558.8" fill="#452845" width="0.8" height="15.4"/>
	</g>
	<g>
		<rect x="582.2" y="558.8" fill="#452845" width="0.8" height="15.4"/>
	</g>
	<g>
		<rect x="603.7" y="558.8" fill="#452845" width="0.8" height="15.4"/>
	</g>
	<g>
		<rect x="562.4" y="558.8" fill="#452845" width="0.8" height="15.4"/>
	</g>
	<g>
		<rect x="583.8" y="558.8" fill="#452845" width="0.8" height="15.4"/>
	</g>
	<g>
		<path fill="#452845" d="M601.6,585.6v-0.8h4.7v0.5v0.2L601.6,585.6L601.6,585.6z M596.8,585.6h-4.7v-0.8h4.7V585.6z M587.4,585.6
			h-4.7v-0.8h4.7V585.6z M577.9,585.6h-4.7v-0.8h4.7V585.6z M568.5,585.6h-4.7v-0.8h4.7V585.6z M559,585.6h-4.7v-0.8h4.7V585.6z
			 M549.6,585.6h-4.7v-0.8h4.7V585.6z M540.1,585.6h-0.2c-1.6,0-3.2-0.7-4.3-1.9l0.6-0.5c1,1.1,2.3,1.7,3.7,1.7h0.2L540.1,585.6
			L540.1,585.6z M610.8,583.4l-0.6-0.5c0.7-0.9,1.1-2,1.1-3.2v-1h0.8v1C612.1,581.1,611.6,582.4,610.8,583.4z M534.9,579h-0.8v-4.7
			h0.8V579z M612.1,574h-0.8v-4.7h0.8V574z M534.9,569.6h-0.8v-4.7h0.8V569.6z M612.1,564.6h-0.8v-4.7h0.8V564.6z M534.9,560.1h-0.8
			v-4.7h0.8V560.1z M612.1,555.1h-0.8v-0.7c0-1.2-0.5-2.4-1.3-3.4l0.6-0.5c1,1.1,1.5,2.5,1.5,3.9V555.1z M536,551.2l-0.6-0.5
			c1.1-1.3,2.7-2.1,4.4-2.1v0.8C538.4,549.4,537,550,536,551.2z M606.1,549.4h-4.7v-0.8h4.7V549.4z M596.6,549.4h-4.7v-0.8h4.7
			V549.4z M587.2,549.4h-4.7v-0.8h4.7V549.4z M577.7,549.4H573v-0.8h4.7V549.4z M568.2,549.4h-4.7v-0.8h4.7V549.4z M558.8,549.4
			h-4.7v-0.8h4.7V549.4z M549.3,549.4h-4.7v-0.8h4.7V549.4z"/>
	</g>
</g>
<g>
	<path fill="#EDEDED" d="M783.7,515.5h-112c-6.4,0-11.6-5.2-11.6-11.6V456c0-6.4,5.2-11.6,11.6-11.6h112c6.4,0,11.6,5.2,11.6,11.6
		v47.9C795.3,510.3,790.1,515.5,783.7,515.5z"/>
</g>
<g>
	<path fill="#444444" d="M688.2,475.9v8.7h-2.4v-8.7h-3.1v-2.1h8.5v2.1H688.2z"/>
	<path fill="#444444" d="M699.9,483.4c-0.9,0.9-2,1.3-3.3,1.3s-2.3-0.4-3.1-1.2c-0.8-0.8-1.2-1.8-1.2-3.1s0.4-2.3,1.3-3.1
		s1.8-1.2,3-1.2s2.1,0.3,2.9,1c0.8,0.7,1.2,1.6,1.2,2.8v1.2h-6.1c0.1,0.5,0.3,0.8,0.7,1.1c0.4,0.3,0.9,0.4,1.4,0.4
		c0.8,0,1.5-0.3,2-0.8L699.9,483.4z M697.7,478.5c-0.3-0.3-0.7-0.4-1.2-0.4s-0.9,0.1-1.3,0.4c-0.4,0.3-0.6,0.7-0.7,1.1h3.6
		C698.2,479.1,698,478.7,697.7,478.5z"/>
	<path fill="#444444" d="M704.6,480v4.6h-2.3v-8.3h2.3v0.9c0.7-0.7,1.5-1.1,2.4-1.1s1.6,0.3,2.2,0.9s0.9,1.4,0.9,2.5v5.1h-2.3v-4.7
		c0-1.3-0.5-1.9-1.4-1.9c-0.5,0-0.9,0.2-1.2,0.5C704.8,478.8,704.6,479.3,704.6,480z"/>
	<path fill="#444444" d="M719.2,484.6H717v-1c-0.6,0.8-1.3,1.1-2.2,1.1s-1.6-0.3-2.2-0.8c-0.6-0.5-0.9-1.2-0.9-2s0.3-1.5,0.9-1.9
		c0.6-0.4,1.5-0.6,2.5-0.6h1.7l0,0c0-0.9-0.5-1.3-1.4-1.3c-0.4,0-0.8,0.1-1.3,0.2c-0.4,0.2-0.8,0.4-1.1,0.6l-1-1.5
		c1.1-0.8,2.3-1.2,3.7-1.2c1,0,1.8,0.3,2.5,0.8c0.6,0.5,1,1.3,1,2.4V484.6z M716.9,481.4V481h-1.5c-0.9,0-1.4,0.3-1.4,0.9
		c0,0.3,0.1,0.5,0.3,0.7s0.5,0.2,1,0.2s0.8-0.1,1.1-0.4C716.7,482.2,716.9,481.9,716.9,481.4z"/>
	<path fill="#444444" d="M723.7,480v4.6h-2.3v-8.3h2.3v0.9c0.7-0.7,1.5-1.1,2.4-1.1s1.6,0.3,2.2,0.9s0.9,1.4,0.9,2.5v5.1h-2.3v-4.7
		c0-1.3-0.5-1.9-1.4-1.9c-0.5,0-0.9,0.2-1.2,0.5C723.8,478.8,723.7,479.3,723.7,480z"/>
	<path fill="#444444" d="M733.9,478v3.7c0,0.3,0.1,0.6,0.2,0.7c0.2,0.2,0.4,0.3,0.6,0.3c0.4,0,0.8-0.2,1.1-0.6l0.9,1.6
		c-0.7,0.7-1.5,1-2.3,1s-1.5-0.3-2-0.8s-0.8-1.2-0.8-2.1V478h-1v-1.7h1v-2.5h2.3v2.5h2v1.7H733.9z"/>
	<path fill="#444444" d="M746.8,475.9v8.7h-2.4v-8.7h-3.1v-2.1h8.5v2.1H746.8z"/>
	<path fill="#444444" d="M754.7,484.6h-2.4l-2.8-8.3h2.4l1.6,5l1.6-5h2.2l1.6,5l1.6-5h2.4l-2.8,8.3h-2.4l-1.5-4.5L754.7,484.6z"/>
	<path fill="#444444" d="M772.5,480.5c0,1.2-0.4,2.2-1.3,3c-0.8,0.8-1.9,1.2-3.1,1.2c-1.3,0-2.3-0.4-3.1-1.2s-1.3-1.8-1.3-3
		s0.4-2.2,1.3-3.1s1.9-1.2,3.1-1.2c1.3,0,2.3,0.4,3.1,1.2C772.1,478.2,772.5,479.3,772.5,480.5z M766,480.5c0,0.7,0.2,1.2,0.6,1.7
		c0.4,0.4,0.9,0.6,1.5,0.6s1.1-0.2,1.5-0.6s0.6-1,0.6-1.7s-0.2-1.2-0.6-1.7s-0.9-0.6-1.5-0.6s-1.1,0.2-1.5,0.6
		C766.2,479.2,766,479.8,766,480.5z"/>
</g>
<g>
	<path fill="#EDEDED" d="M783.7,602.1h-112c-6.4,0-11.6-5.2-11.6-11.6v-47.9c0-6.4,5.2-11.6,11.6-11.6h112c6.4,0,11.6,5.2,11.6,11.6
		v47.9C795.3,596.9,790.1,602.1,783.7,602.1z"/>
</g>
<g>
	<path fill="#444444" d="M682,562.4v8.7h-2.4v-8.7h-3.1v-2.1h8.5v2.1H682z"/>
	<path fill="#444444" d="M693.8,570c-0.9,0.9-2,1.3-3.3,1.3s-2.3-0.4-3.1-1.2c-0.8-0.8-1.2-1.8-1.2-3.1c0-1.3,0.4-2.3,1.3-3.1
		s1.8-1.2,3-1.2s2.1,0.3,2.9,1c0.8,0.7,1.2,1.6,1.2,2.8v1.2h-6.1c0.1,0.5,0.3,0.8,0.7,1.1c0.4,0.3,0.9,0.4,1.4,0.4
		c0.8,0,1.5-0.3,2-0.8L693.8,570z M691.5,565c-0.3-0.3-0.7-0.4-1.2-0.4s-0.9,0.1-1.3,0.4c-0.4,0.3-0.6,0.7-0.7,1.1h3.6
		C692,565.7,691.8,565.3,691.5,565z"/>
	<path fill="#444444" d="M698.4,566.5v4.6h-2.3v-8.3h2.3v0.9c0.7-0.7,1.5-1.1,2.4-1.1s1.6,0.3,2.2,0.9s0.9,1.4,0.9,2.5v5.1h-2.3
		v-4.7c0-1.3-0.5-1.9-1.4-1.9c-0.5,0-0.9,0.2-1.2,0.5C698.6,565.4,698.4,565.9,698.4,566.5z"/>
	<path fill="#444444" d="M713,571.2h-2.2v-1c-0.6,0.8-1.3,1.1-2.2,1.1s-1.6-0.3-2.2-0.8c-0.6-0.5-0.9-1.2-0.9-2
		c0-0.8,0.3-1.5,0.9-1.9c0.6-0.4,1.5-0.6,2.5-0.6h1.7l0,0c0-0.9-0.5-1.3-1.4-1.3c-0.4,0-0.8,0.1-1.3,0.2c-0.4,0.2-0.8,0.4-1.1,0.6
		l-1-1.5c1.1-0.8,2.3-1.2,3.7-1.2c1,0,1.8,0.3,2.5,0.8c0.6,0.5,1,1.3,1,2.4V571.2z M710.7,568v-0.4h-1.5c-0.9,0-1.4,0.3-1.4,0.9
		c0,0.3,0.1,0.5,0.3,0.7s0.5,0.2,1,0.2s0.8-0.1,1.1-0.4C710.5,568.7,710.7,568.4,710.7,568z"/>
	<path fill="#444444" d="M717.5,566.5v4.6h-2.3v-8.3h2.3v0.9c0.7-0.7,1.5-1.1,2.4-1.1s1.6,0.3,2.2,0.9s0.9,1.4,0.9,2.5v5.1h-2.3
		v-4.7c0-1.3-0.5-1.9-1.4-1.9c-0.5,0-0.9,0.2-1.2,0.5C717.6,565.4,717.5,565.9,717.5,566.5z"/>
	<path fill="#444444" d="M727.7,564.5v3.7c0,0.3,0.1,0.6,0.2,0.7c0.2,0.2,0.4,0.3,0.6,0.3c0.4,0,0.8-0.2,1.1-0.6l0.9,1.6
		c-0.7,0.7-1.5,1-2.3,1s-1.5-0.3-2-0.8s-0.8-1.2-0.8-2.1v-3.8h-1v-1.7h1v-2.5h2.3v2.5h2v1.7H727.7L727.7,564.5z"/>
	<path fill="#444444" d="M740.6,562.4v8.7h-2.4v-8.7h-3.1v-2.1h8.5v2.1H740.6z"/>
	<path fill="#444444" d="M747.4,566.7v4.5h-2.3v-11.5h2.3v4.1c0.7-0.7,1.5-1.1,2.4-1.1s1.6,0.3,2.2,0.9c0.6,0.6,0.9,1.4,0.9,2.5v5.1
		h-2.3v-4.5c0-1.3-0.5-1.9-1.4-1.9c-0.5,0-0.9,0.2-1.2,0.5C747.6,565.5,747.4,566,747.4,566.7z"/>
	<path fill="#444444" d="M759.3,564.9c-0.7,0-1.2,0.2-1.5,0.7s-0.5,1.1-0.5,1.9v3.6H755v-8.3h2.3v1.1c0.3-0.3,0.7-0.6,1.1-0.9
		c0.4-0.2,0.9-0.4,1.4-0.4v2.2L759.3,564.9L759.3,564.9z"/>
	<path fill="#444444" d="M768.5,570c-0.9,0.9-2,1.3-3.3,1.3s-2.3-0.4-3.1-1.2c-0.8-0.8-1.2-1.8-1.2-3.1c0-1.3,0.4-2.3,1.3-3.1
		c0.8-0.8,1.8-1.2,3-1.2s2.1,0.3,2.9,1c0.8,0.7,1.2,1.6,1.2,2.8v1.2h-6.1c0.1,0.5,0.3,0.8,0.7,1.1c0.4,0.3,0.9,0.4,1.4,0.4
		c0.8,0,1.5-0.3,2-0.8L768.5,570z M766.3,565c-0.3-0.3-0.7-0.4-1.2-0.4s-0.9,0.1-1.3,0.4c-0.4,0.3-0.6,0.7-0.7,1.1h3.6
		C766.8,565.7,766.6,565.3,766.3,565z"/>
	<path fill="#444444" d="M778.1,570c-0.9,0.9-2,1.3-3.3,1.3s-2.3-0.4-3.1-1.2c-0.8-0.8-1.2-1.8-1.2-3.1c0-1.3,0.4-2.3,1.3-3.1
		c0.8-0.8,1.8-1.2,3-1.2c1.1,0,2.1,0.3,2.9,1c0.8,0.7,1.2,1.6,1.2,2.8v1.2h-6.1c0.1,0.5,0.3,0.8,0.7,1.1c0.4,0.3,0.9,0.4,1.4,0.4
		c0.8,0,1.5-0.3,2-0.8L778.1,570z M775.8,565c-0.3-0.3-0.7-0.4-1.2-0.4s-0.9,0.1-1.3,0.4c-0.4,0.3-0.6,0.7-0.7,1.1h3.6
		C776.3,565.7,776.2,565.3,775.8,565z"/>
</g>
</svg>
