<?xml version="1.0" encoding="utf-8"?>
<!-- Generator: Adobe Illustrator 19.1.0, SVG Export Plug-In . SVG Version: 6.00 Build 0)  -->
<svg version="1.1" id="Layer_1" xmlns="http://www.w3.org/2000/svg" xmlns:xlink="http://www.w3.org/1999/xlink" x="0px" y="0px"
	 viewBox="0 0 263.2 231.8" enable-background="new 0 0 263.2 231.8" xml:space="preserve">
<path fill="#D6534D" d="M179.6,104.2c0-13.3-10.7-24-24-24c-11.6,0-21.2,8.2-23.5,19.1c-2.3-10.9-11.9-19.1-23.5-19.1
	c-13.3,0-24,10.7-24,24c0,5.7,2,10.9,5.3,15l0,0l0,0c0.9,1.1,1.8,2,2.8,2.9l39.4,41.1l40.6-42.3l0,0
	C176.9,116.7,179.6,110.8,179.6,104.2z"/>
<line fill="none" stroke="#452845" stroke-width="7" stroke-linecap="round" stroke-miterlimit="10" x1="94.1" y1="176.4" x2="83.9" y2="193.9"/>
<g>
	
		<line fill="none" stroke="#452845" stroke-width="7" stroke-linecap="round" stroke-miterlimit="10" x1="206.1" y1="112" x2="226.4" y2="112"/>
	
		<line fill="none" stroke="#452845" stroke-width="7" stroke-linecap="round" stroke-miterlimit="10" x1="36.8" y1="112" x2="57.1" y2="112"/>
	
		<line fill="none" stroke="#452845" stroke-width="7" stroke-linecap="round" stroke-miterlimit="10" x1="131.6" y1="37.5" x2="131.6" y2="17.2"/>
	
		<line fill="none" stroke="#452845" stroke-width="7" stroke-linecap="round" stroke-miterlimit="10" x1="131.6" y1="206.8" x2="131.6" y2="186.5"/>
	
		<line fill="none" stroke="#452845" stroke-width="7" stroke-linecap="round" stroke-miterlimit="10" x1="68" y1="73.2" x2="50.6" y2="62.7"/>
	
		<line fill="none" stroke="#452845" stroke-width="7" stroke-linecap="round" stroke-miterlimit="10" x1="179.3" y1="30" x2="169.1" y2="47.6"/>
	
		<line fill="none" stroke="#452845" stroke-width="7" stroke-linecap="round" stroke-miterlimit="10" x1="83.3" y1="30.4" x2="93.6" y2="47.9"/>
	
		<line fill="none" stroke="#452845" stroke-width="7" stroke-linecap="round" stroke-miterlimit="10" x1="194.7" y1="72.4" x2="211.9" y2="61.6"/>
	
		<line fill="none" stroke="#452845" stroke-width="7" stroke-linecap="round" stroke-miterlimit="10" x1="51.3" y1="162.4" x2="68.5" y2="151.6"/>
</g>
<path fill="#FFF4EA" stroke="#FC7B4D" stroke-width="7" stroke-linecap="round" stroke-miterlimit="10" d="M194.9,184.9l10.9-11.1
	c0.6-0.6,0.6-1.6,0-2.1L187,152.9c-0.6-0.6-0.4-1.3,0.3-1.6l15.8-5.9c0.8-0.3,0.8-0.7,0-1l-53.8-17.9c-0.8-0.3-1.2,0.2-1,1l18,53.8
	c0.3,0.8,0.7,0.8,1,0l5.9-15.8c0.3-0.8,1-0.9,1.6-0.3L194.9,184.9"/>
</svg>
