<?xml version="1.0" encoding="utf-8"?>
<!-- Generator: Adobe Illustrator 19.1.0, SVG Export Plug-In . SVG Version: 6.00 Build 0)  -->
<svg version="1.1" id="Layer_1" xmlns="http://www.w3.org/2000/svg" xmlns:xlink="http://www.w3.org/1999/xlink" x="0px" y="0px"
	 viewBox="0 0 170.3 150" enable-background="new 0 0 170.3 150" xml:space="preserve">
<g>
	<g>
		<path fill="#452845" d="M74.9,129.4H62.5c-2,0-3.7-1.6-3.7-3.7v-10.4c0-1.2,1-2.1,2.1-2.1s2.1,1,2.1,2.1v9.7h11.2v-6.9
			c0-1.2,1-2.1,2.1-2.1s2.1,1,2.1,2.1v7.5C78.6,127.7,76.9,129.4,74.9,129.4z"/>
	</g>
	<g>
		<path fill="#452845" d="M113.6,129.4h-12.5c-2,0-3.7-1.6-3.7-3.7v-7.5c0-1.2,1-2.1,2.1-2.1s2.1,1,2.1,2.1v6.9H113v-10.3
			c0-1.2,1-2.1,2.1-2.1s2.1,1,2.1,2.1v10.9C117.3,127.7,115.6,129.4,113.6,129.4z"/>
	</g>
	<g>
		<path fill="#452845" d="M46.4,58.9c-1.2,0-2.1-1-2.1-2.1V37c0-1,0.4-1.9,1.1-2.6c0.7-0.7,1.7-1,2.7-0.9c0.4,0,8.8,0.7,12.8,7.3
			c0.6,1,0.3,2.3-0.7,2.9c-1,0.6-2.3,0.3-2.9-0.7c-2.3-3.8-6.8-4.9-8.6-5.1v18.9C48.6,57.9,47.6,58.9,46.4,58.9z"/>
	</g>
	<g>
		<path fill="#452845" d="M76.1,65.6H61.2c-2,0-3.7-1.6-3.7-3.7V37c0-1,0.4-2,1.1-2.6c0.7-0.7,1.7-1,2.7-0.9c0.3,0,7.8,0.8,12.5,7.4
			c4,5.5,4.8,13.3,2.6,23L76.1,65.6z M61.8,61.3h10.9c1.5-7.7,0.8-13.7-2.2-17.8c-2.8-3.9-6.9-5.2-8.7-5.6V61.3z"/>
	</g>
	<g>
		<path fill="#452845" d="M85.1,120.4c-25.7,0-41.6-6.9-48.4-21.1c-0.5-1.1-0.1-2.4,1-2.9c1.1-0.5,2.3-0.1,2.9,1
			c6,12.5,20.6,18.6,44.5,18.6c32.6,0,47.8-11,47.8-34.7c0-10.9-4.6-19.3-13.6-25c-8.3-5.2-20.1-8-34.1-8c-3.2,0-6.4,0.1-9.4,0.4
			c-1.2,0.1-2.2-0.7-2.3-1.9s0.7-2.2,1.9-2.3c3.1-0.3,6.4-0.5,9.8-0.5c32.6,0,52,13.9,52,37.3C137.1,107.6,120.1,120.4,85.1,120.4z"
			/>
	</g>
	<g>
		<path fill="#452845" d="M38.6,100h-5.4c-1.3,0-2.3-0.6-2.7-1.6s-0.1-2.2,0.8-3.1l0,0h-1.7c-2,0-3.7-1.6-3.7-3.7V71.9
			c0-2,1.6-3.7,3.7-3.7h5.8c3.6-9,11.3-15.8,22.3-19.9c1.1-0.4,2.3,0.2,2.8,1.3c0.4,1.1-0.2,2.3-1.3,2.8
			c-10.5,3.8-17.3,10.1-20.2,18.7l-0.5,1.5h-8.2V91h4.7c1.3,0,2.3,0.6,2.7,1.6c0.4,1,0.1,2.2-0.8,3.1l0,0h1.8c1.2,0,2.1,1,2.1,2.1
			S39.8,100,38.6,100z"/>
	</g>
	<g>
		<path fill="#452845" d="M54.6,81.2c-1.2,0-2.1-1-2.1-2.1c0-1.5-1.2-2.8-2.8-2.8s-2.8,1.2-2.8,2.8c0,1.2-1,2.1-2.1,2.1
			s-2.1-1-2.1-2.1c0-3.9,3.2-7.1,7.1-7.1s7.1,3.2,7.1,7.1C56.8,80.2,55.8,81.2,54.6,81.2z"/>
	</g>
	<g>
		<g>
			<path fill="#FC7B4D" d="M81,28.8c-0.5,0-1.1-0.2-1.5-0.6l-9.1-9.1c-0.8-0.8-0.8-2.2,0-3c0.8-0.8,2.2-0.8,3,0l9.1,9.1
				c0.8,0.8,0.8,2.2,0,3C82.1,28.6,81.5,28.8,81,28.8z"/>
		</g>
		<g>
			<path fill="#FC7B4D" d="M71.9,28.8c-0.5,0-1.1-0.2-1.5-0.6c-0.8-0.8-0.8-2.2,0-3l9.1-9.1c0.8-0.8,2.2-0.8,3,0
				c0.8,0.8,0.8,2.2,0,3l-9.1,9.1C73,28.6,72.4,28.8,71.9,28.8z"/>
		</g>
	</g>
	<circle fill="#FFF4EA" cx="104.3" cy="45.5" r="17.1"/>
	<g>
		<path fill="#E95F6A" d="M103.1,53.9v-1.5c-1.8-0.3-3.4-1.1-4.9-2.4l2-2.4c1.1,1,2.1,1.6,3,1.8v-3.1c-1.5-0.4-2.5-0.9-3.2-1.5
			c-0.7-0.6-1-1.6-1-2.8c0-1.2,0.4-2.2,1.2-3c0.8-0.8,1.8-1.2,3.1-1.4v-1h2.2v1.1c1.4,0.2,2.8,0.8,4.2,1.7l-1.7,2.5
			c-0.9-0.6-1.7-1-2.5-1.3v3c1.5,0.4,2.6,0.9,3.3,1.6c0.7,0.7,1.1,1.6,1.1,2.8s-0.4,2.2-1.2,3c-0.8,0.8-1.9,1.3-3.2,1.4v1.5H103.1z
			 M103.1,40.6c-0.6,0.2-0.9,0.6-0.9,1.2c0,0.6,0.3,1,0.9,1.3V40.6z M106.4,48.2c0-0.3-0.1-0.5-0.2-0.7c-0.2-0.2-0.4-0.4-0.8-0.5
			v2.6C106,49.3,106.4,48.9,106.4,48.2z"/>
	</g>
	<g>
		<path fill="#452845" d="M138.5,86.1c-1.9,0-3.7-0.7-5-2.1c-0.8-0.8-0.8-2.2,0-3s2.2-0.8,3,0c1,1,2.9,1,3.9,0
			c0.5-0.5,0.8-1.2,0.8-2c0-0.7-0.3-1.4-0.8-2c-0.8-0.8-0.8-2.2,0-3s2.2-0.8,3,0c1.3,1.3,2.1,3.1,2.1,5c0,1.9-0.7,3.7-2.1,5
			C142.1,85.4,140.3,86.1,138.5,86.1z"/>
	</g>
</g>
</svg>
