<?xml version="1.0" encoding="utf-8"?>
<!-- Generator: Adobe Illustrator 19.1.0, SVG Export Plug-In . SVG Version: 6.00 Build 0)  -->
<svg version="1.1" id="Layer_1" xmlns="http://www.w3.org/2000/svg" xmlns:xlink="http://www.w3.org/1999/xlink" x="0px" y="0px"
	 viewBox="0 0 746.1 510.7" enable-background="new 0 0 746.1 510.7" xml:space="preserve">
<g>
	<g>
		<g>
			<path fill="#9D6E80" d="M472.3,510.7h-42.8c-0.8,0-1.5-0.7-1.5-1.5v-14.6c0-8.1,6.6-14.7,14.7-14.7h16.4
				c8.1,0,14.7,6.6,14.7,14.7v14.6C473.8,510,473.1,510.7,472.3,510.7z"/>
		</g>
		<g>
			<circle fill="#9D6E80" cx="450.9" cy="462.4" r="14"/>
		</g>
	</g>
	<g>
		<g>
			<path fill="#FFFFFF" d="M737.9,115.8h-98.6c-4.6,0-8.3-3.7-8.3-8.3V8.9c0-4.6,3.7-8.3,8.3-8.3h98.6c4.6,0,8.3,3.7,8.3,8.3v98.6
				C746.1,112.1,742.4,115.8,737.9,115.8z"/>
		</g>
		<g>
			<path fill="#452845" d="M693.1,85.9c-0.9,0-1.9-0.1-2.8-0.2c-15.1-1.6-25.2-12.7-25.2-27.6c0-15.2,12.4-27.6,27.6-27.6
				c12.3,0,16.5,6.3,16.9,7l-6,3.6l0.1,0.1c-0.1-0.2-2.7-3.7-11-3.7c-11.4,0-20.6,9.2-20.6,20.6c0,11.3,7.4,19.4,19,20.6
				c2.1,0.2,9.4,0.5,15.1-5.1c1.4-1.4,3.6-1.4,4.9,0c1.4,1.4,1.4,3.6,0,5C706.4,83.3,699.9,85.9,693.1,85.9z"/>
		</g>
	</g>
	<g>
		<g>
			<path fill="#FFFFFF" d="M492.9,115.8h-98.6c-4.6,0-8.3-3.7-8.3-8.3V8.9c0-4.6,3.7-8.3,8.3-8.3h98.6c4.6,0,8.3,3.7,8.3,8.3v98.6
				C501.1,112.1,497.4,115.8,492.9,115.8z"/>
		</g>
		<g>
			<path fill="#452845" d="M443.8,87.3c-2.3,0-4.8-0.3-7.2-0.4c-3.1-0.1-6.2-0.5-9.6-0.5h-3.5V49.6c0-11.3,9.1-20.5,20.3-20.5
				c8.6,0,17.3,5.3,17.3,15.6c0,5.4-1.6,9.6-4.6,12.4c1.7,1,3.1,2.2,4.3,3.6c3,3.8,3.7,9,2.1,15.5C460.5,85.7,452.9,87.3,443.8,87.3
				z M430.5,79.8c2.3,0.1,4.4,0.2,6.4,0.2c16.1,0.7,18-0.9,19.2-5.6c1.1-4.2,0.8-7.4-0.8-9.5c-2.1-2.7-6.7-3.5-10.5-3.6
				c-0.4,0-0.8,0-1.3,0h-13V79.8z M430.5,54.4h12.4c0.6-0.1,1.2,0,1.8,0c8.2-0.4,9.4-4.9,9.4-9.7c0-3.9-2.7-8.6-10.3-8.6
				c-7.3,0-13.3,6-13.3,13.5V54.4z"/>
		</g>
	</g>
	<g>
		<path fill="#FFFFFF" d="M737.9,332.8h-98.6c-4.6,0-8.3-3.7-8.3-8.3v-98.6c0-4.6,3.7-8.3,8.3-8.3h98.6c4.6,0,8.3,3.7,8.3,8.3v98.6
			C746.1,329.1,742.4,332.8,737.9,332.8z"/>
	</g>
	<g>
		<g>
			<path fill="#FFFFFF" d="M492.9,332.8h-98.6c-4.6,0-8.3-3.7-8.3-8.3v-98.6c0-4.6,3.7-8.3,8.3-8.3h98.6c4.6,0,8.3,3.7,8.3,8.3v98.6
				C501.1,329.1,497.4,332.8,492.9,332.8z"/>
		</g>
		<g>
			<path fill="#452845" d="M443.8,304.3c-2.3,0-4.8-0.3-7.2-0.4c-3.1-0.1-6.2-0.5-9.6-0.5h-3.5v-36.8c0-11.3,9.1-20.5,20.3-20.5
				c8.6,0,17.3,5.3,17.3,15.6c0,5.4-1.6,9.6-4.6,12.4c1.7,1,3.1,2.2,4.3,3.6c3,3.8,3.7,9,2.1,15.5
				C460.5,302.7,452.9,304.3,443.8,304.3z M430.5,296.8c2.3,0.1,4.4,0.2,6.4,0.2c16.1,0.7,18-0.9,19.2-5.6c1.1-4.2,0.8-7.4-0.8-9.5
				c-2.1-2.7-6.7-3.5-10.5-3.6c-0.4,0-0.8,0-1.3,0h-13V296.8z M430.5,271.4h12.4c0.6-0.1,1.2,0,1.8,0c8.2-0.4,9.4-4.9,9.4-9.7
				c0-3.9-2.7-8.6-10.3-8.6c-7.3,0-13.3,6-13.3,13.5V271.4z"/>
		</g>
	</g>
	<g>
		<g>
			<path fill="#FFFFFF" d="M247.9,115.8h-98.6c-4.6,0-8.3-3.7-8.3-8.3V8.9c0-4.6,3.7-8.3,8.3-8.3h98.6c4.6,0,8.3,3.7,8.3,8.3v98.6
				C256.2,112.1,252.5,115.8,247.9,115.8z"/>
		</g>
		<g>
			<g>
				<path fill="#452845" d="M215.6,87.8c-1.9,0-3.5-1.6-3.5-3.5V50.9c0-7.4-6-13.5-13.5-13.5s-13.5,6-13.5,13.5v33.4
					c0,1.9-1.6,3.5-3.5,3.5s-3.5-1.6-3.5-3.5V50.9c0-11.3,9.2-20.5,20.5-20.5s20.5,9.2,20.5,20.5v33.4
					C219.1,86.2,217.5,87.8,215.6,87.8z"/>
			</g>
			<g>
				<path fill="#452845" d="M215.5,62.4h-30c-1.9,0-3.5-1.6-3.5-3.5s1.6-3.5,3.5-3.5h30c1.9,0,3.5,1.6,3.5,3.5
					S217.4,62.4,215.5,62.4z"/>
			</g>
		</g>
	</g>
	<g>
		<path fill="#E95F6A" d="M361.8,75.7c-1,0-2-0.4-2.6-1.2c-1.3-1.5-1.1-3.7,0.4-4.9l8.9-7.7l-8.9-7.7c-1.5-1.3-1.6-3.5-0.3-4.9
			c1.3-1.5,3.5-1.6,4.9-0.3l14.9,13l-15,12.9C363.4,75.4,362.6,75.7,361.8,75.7z"/>
	</g>
	<g>
		<path fill="#E95F6A" d="M688.6,146.8c-1,0-2-0.4-2.7-1.2l-7.7-8.9l-7.7,8.9c-1.3,1.5-3.5,1.6-4.9,0.3c-1.5-1.3-1.6-3.5-0.3-4.9
			l13-14.9l12.9,15c1.3,1.5,1.1,3.7-0.4,4.9C690.2,146.5,689.4,146.8,688.6,146.8z"/>
	</g>
	<g>
		<path fill="#E95F6A" d="M603.8,319.7c-1,0-2-0.4-2.7-1.2c-1.3-1.5-1.1-3.7,0.4-4.9l8.9-7.7l-8.9-7.7c-1.5-1.3-1.6-3.5-0.3-4.9
			c1.3-1.5,3.5-1.6,4.9-0.3l14.9,13l-15,12.9C605.4,319.4,604.6,319.7,603.8,319.7z"/>
	</g>
	<g>
		<path fill="#E95F6A" d="M306,100.4h-39.5c-1.9,0-3.5-1.6-3.5-3.5s1.6-3.5,3.5-3.5H306c10.2,0,18.5-8.3,18.5-18.5V58.4h48
			c1.9,0,3.5,1.6,3.5,3.5s-1.6,3.5-3.5,3.5h-41v9.5C331.5,89,320.1,100.4,306,100.4z"/>
	</g>
	<g>
		<path fill="#E95F6A" d="M465.4,207.3c-1.9,0-3.5-1.6-3.5-3.5v-32h194.4c10.2,0,18.5-8.3,18.5-18.5v-13c0-1.9,1.6-3.5,3.5-3.5
			s3.5,1.6,3.5,3.5v13c0,14.1-11.4,25.5-25.5,25.5H468.9v25C468.9,205.7,467.3,207.3,465.4,207.3z"/>
	</g>
	<g>
		<path fill="#E95F6A" d="M604.8,75.7c-1,0-2-0.4-2.6-1.2c-1.3-1.5-1.1-3.7,0.4-4.9l8.9-7.7l-8.9-7.7c-1.5-1.3-1.6-3.5-0.3-4.9
			c1.3-1.5,3.5-1.6,4.9-0.3l14.9,13l-15,12.9C606.4,75.4,605.6,75.7,604.8,75.7z"/>
	</g>
	<g>
		<path fill="#E95F6A" d="M615.5,65.4h-99c-1.9,0-3.5-1.6-3.5-3.5s1.6-3.5,3.5-3.5h99c1.9,0,3.5,1.6,3.5,3.5S617.4,65.4,615.5,65.4z
			"/>
	</g>
	<g>
		<path fill="#452845" d="M683.8,302.8h-16.2v-55.2l18.5,0c15.1,1.6,25.2,12.7,25.2,27.6C711.4,290.4,699.1,302.8,683.8,302.8z
			 M674.7,295.8h9.2c11.4,0,20.6-9.2,20.6-20.6c0-11.2-7.4-19.3-18.8-20.6h-11V295.8z"/>
	</g>
	<g>
		<path fill="#452845" d="M473,257.9c-1.9,0-3.5-1.6-3.5-3.5c0-2.1-1.3-5.6-2.5-6.8c-1.4-1.4-1.4-3.6,0-5c1.4-1.4,3.6-1.4,5,0
			c2.8,2.8,4.5,8.3,4.5,11.7C476.5,256.3,474.9,257.9,473,257.9z"/>
	</g>
	<g>
		<g>
			<path fill="#E95F6A" d="M217,143.9c-1.9,0-3.5-1.6-3.5-3.5v-9c0-1.9,1.6-3.5,3.5-3.5s3.5,1.6,3.5,3.5v9
				C220.5,142.3,218.9,143.9,217,143.9z"/>
		</g>
		<g>
			<path fill="#E95F6A" d="M217,245.9c-1.9,0-3.5-1.6-3.5-3.5v-17c0-1.9,1.6-3.5,3.5-3.5s3.5,1.6,3.5,3.5v17
				C220.5,244.3,218.9,245.9,217,245.9z M217,211.9c-1.9,0-3.5-1.6-3.5-3.5v-17c0-1.9,1.6-3.5,3.5-3.5s3.5,1.6,3.5,3.5v17
				C220.5,210.3,218.9,211.9,217,211.9z M217,177.9c-1.9,0-3.5-1.6-3.5-3.5v-17c0-1.9,1.6-3.5,3.5-3.5s3.5,1.6,3.5,3.5v17
				C220.5,176.3,218.9,177.9,217,177.9z"/>
		</g>
		<g>
			<path fill="#E95F6A" d="M225.5,271.4h-12v-12c0-1.9,1.6-3.5,3.5-3.5s3.5,1.6,3.5,3.5v5h5c1.9,0,3.5,1.6,3.5,3.5
				S227.4,271.4,225.5,271.4z"/>
		</g>
		<g>
			<path fill="#E95F6A" d="M345.5,271.4h-15c-1.9,0-3.5-1.6-3.5-3.5s1.6-3.5,3.5-3.5h15c1.9,0,3.5,1.6,3.5,3.5
				S347.4,271.4,345.5,271.4z M315.5,271.4h-15c-1.9,0-3.5-1.6-3.5-3.5s1.6-3.5,3.5-3.5h15c1.9,0,3.5,1.6,3.5,3.5
				S317.4,271.4,315.5,271.4z M285.5,271.4h-15c-1.9,0-3.5-1.6-3.5-3.5s1.6-3.5,3.5-3.5h15c1.9,0,3.5,1.6,3.5,3.5
				S287.4,271.4,285.5,271.4z M255.5,271.4h-15c-1.9,0-3.5-1.6-3.5-3.5s1.6-3.5,3.5-3.5h15c1.9,0,3.5,1.6,3.5,3.5
				S257.4,271.4,255.5,271.4z"/>
		</g>
		<g>
			<path fill="#E95F6A" d="M370.5,271.4h-9c-1.9,0-3.5-1.6-3.5-3.5s1.6-3.5,3.5-3.5h9c1.9,0,3.5,1.6,3.5,3.5
				S372.4,271.4,370.5,271.4z"/>
		</g>
	</g>
	<g>
		<path fill="#E95F6A" d="M612.5,279.4h-14c-1.9,0-3.5-1.6-3.5-3.5s1.6-3.5,3.5-3.5h14c1.9,0,3.5,1.6,3.5,3.5
			S614.4,279.4,612.5,279.4z M584.5,279.4h-14c-1.9,0-3.5-1.6-3.5-3.5s1.6-3.5,3.5-3.5h14c1.9,0,3.5,1.6,3.5,3.5
			S586.4,279.4,584.5,279.4z M556.5,279.4h-14c-1.9,0-3.5-1.6-3.5-3.5s1.6-3.5,3.5-3.5h14c1.9,0,3.5,1.6,3.5,3.5
			S558.4,279.4,556.5,279.4z M528.5,279.4h-14c-1.9,0-3.5-1.6-3.5-3.5s1.6-3.5,3.5-3.5h14c1.9,0,3.5,1.6,3.5,3.5
			S530.4,279.4,528.5,279.4z"/>
	</g>
	<g>
		<path fill="#E95F6A" d="M613.5,309.4h-99c-1.9,0-3.5-1.6-3.5-3.5s1.6-3.5,3.5-3.5h99c1.9,0,3.5,1.6,3.5,3.5
			S615.4,309.4,613.5,309.4z"/>
	</g>
	<g>
		<g>
			<g>
				<path fill="#E95F6A" d="M92.8,27.7c-1,0-2-0.4-2.6-1.2c-1.3-1.5-1.1-3.7,0.4-4.9l8.9-7.7l-8.9-7.7c-1.5-1.3-1.6-3.5-0.3-4.9
					c1.3-1.5,3.5-1.6,4.9-0.3l14.9,13L95,26.8C94.4,27.4,93.6,27.7,92.8,27.7z"/>
			</g>
			<g>
				<path fill="#E95F6A" d="M102.5,17.4h-99c-1.9,0-3.5-1.6-3.5-3.5s1.6-3.5,3.5-3.5h99c1.9,0,3.5,1.6,3.5,3.5
					S104.4,17.4,102.5,17.4z"/>
			</g>
		</g>
		<g>
			<g>
				<path fill="#E95F6A" d="M92.8,71.7c-1,0-2-0.4-2.6-1.2c-1.3-1.5-1.1-3.7,0.4-4.9l8.9-7.7l-8.9-7.7c-1.5-1.3-1.6-3.5-0.3-4.9
					c1.3-1.5,3.5-1.6,4.9-0.3l14.9,13L95,70.8C94.4,71.4,93.6,71.7,92.8,71.7z"/>
			</g>
			<g>
				<path fill="#E95F6A" d="M102.5,61.4h-99c-1.9,0-3.5-1.6-3.5-3.5s1.6-3.5,3.5-3.5h99c1.9,0,3.5,1.6,3.5,3.5
					S104.4,61.4,102.5,61.4z"/>
			</g>
		</g>
		<g>
			<g>
				<path fill="#E95F6A" d="M92.8,116.7c-1,0-2-0.4-2.6-1.2c-1.3-1.5-1.1-3.7,0.4-4.9l8.9-7.7l-8.9-7.7c-1.5-1.3-1.6-3.5-0.3-4.9
					c1.3-1.5,3.5-1.6,4.9-0.3l14.9,13l-15,12.9C94.4,116.4,93.6,116.7,92.8,116.7z"/>
			</g>
			<g>
				<path fill="#E95F6A" d="M102.5,106.4h-99c-1.9,0-3.5-1.6-3.5-3.5s1.6-3.5,3.5-3.5h99c1.9,0,3.5,1.6,3.5,3.5
					S104.4,106.4,102.5,106.4z"/>
			</g>
		</g>
	</g>
	<g>
		<g>
			<path fill="#FFFFFF" d="M17.3,139.8c0,2-0.8,3.3-2.4,3.9l3.2,4.5h-3.5l-2.8-4H9.9v4H7v-12.6h4.8c2,0,3.4,0.3,4.2,1
				S17.3,138.4,17.3,139.8z M13.9,141.3c0.3-0.3,0.5-0.8,0.5-1.5c0-0.7-0.2-1.1-0.5-1.4c-0.4-0.3-1-0.4-1.9-0.4H9.9v3.7h2.1
				C12.9,141.8,13.5,141.6,13.9,141.3z"/>
		</g>
		<g>
			<path fill="#FFFFFF" d="M28.3,146.8c-1.1,1-2.4,1.5-3.8,1.5c-1.5,0-2.7-0.5-3.6-1.4s-1.4-2.1-1.4-3.6c0-1.5,0.5-2.7,1.5-3.6
				c1-0.9,2.1-1.3,3.5-1.3s2.5,0.4,3.4,1.2c0.9,0.8,1.4,1.9,1.4,3.3v1.4H22c0.1,0.5,0.4,1,0.8,1.3c0.5,0.3,1,0.5,1.6,0.5
				c0.9,0,1.7-0.3,2.3-1L28.3,146.8z M25.7,141.1c-0.4-0.3-0.8-0.5-1.4-0.5s-1,0.2-1.5,0.5c-0.4,0.3-0.7,0.8-0.8,1.3h4.2
				C26.2,141.9,26,141.4,25.7,141.1z"/>
		</g>
		<g>
			<path fill="#FFFFFF" d="M31.8,147c-0.9-0.9-1.4-2.1-1.4-3.6s0.5-2.7,1.3-3.6c0.9-0.9,1.9-1.4,3-1.4c1.1,0,2.1,0.4,2.9,1.2v-1.1
				h2.7v13.2h-2.7v-4.3c-0.8,0.6-1.6,0.9-2.6,0.9C33.8,148.4,32.8,147.9,31.8,147z M33.2,143.4c0,0.8,0.2,1.4,0.7,1.9s1,0.7,1.6,0.7
				s1.2-0.2,1.6-0.7s0.6-1.1,0.6-1.9s-0.2-1.4-0.6-2c-0.4-0.5-1-0.8-1.6-0.8c-0.6,0-1.2,0.3-1.6,0.8C33.4,142,33.2,142.6,33.2,143.4
				z"/>
		</g>
		<g>
			<path fill="#FFFFFF" d="M49.2,143.8v-5.2h2.7v9.7h-2.7V147c-0.7,0.9-1.5,1.4-2.6,1.4c-1.1,0-2-0.3-2.7-1s-1.1-1.7-1.1-3v-5.9h2.7
				v5.3c0,1.5,0.5,2.2,1.6,2.2c0.5,0,1-0.2,1.4-0.6C49,145.1,49.2,144.5,49.2,143.8z"/>
		</g>
		<g>
			<path fill="#FFFFFF" d="M62.9,146.8c-1.1,1-2.4,1.5-3.8,1.5c-1.5,0-2.7-0.5-3.6-1.4s-1.4-2.1-1.4-3.6c0-1.5,0.5-2.7,1.5-3.6
				c1-0.9,2.1-1.3,3.5-1.3s2.5,0.4,3.4,1.2c0.9,0.8,1.4,1.9,1.4,3.3v1.4h-7.1c0.1,0.5,0.4,1,0.8,1.3c0.5,0.3,1,0.5,1.6,0.5
				c0.9,0,1.7-0.3,2.3-1L62.9,146.8z M60.3,141.1c-0.4-0.3-0.8-0.5-1.4-0.5s-1,0.2-1.5,0.5c-0.4,0.3-0.7,0.8-0.8,1.3h4.2
				C60.9,141.9,60.7,141.4,60.3,141.1z"/>
		</g>
		<g>
			<path fill="#FFFFFF" d="M72.9,145.2c0,1-0.4,1.7-1.1,2.3c-0.7,0.6-1.6,0.9-2.7,0.9c-0.7,0-1.5-0.1-2.2-0.4s-1.5-0.6-2.1-1.1
				l1.2-1.7c1,0.8,2.1,1.2,3.2,1.2c0.3,0,0.6-0.1,0.8-0.2c0.2-0.1,0.3-0.3,0.3-0.5c0-0.2-0.1-0.4-0.4-0.6c-0.3-0.2-0.7-0.4-1.2-0.5
				s-0.9-0.3-1.2-0.4c-0.3-0.1-0.6-0.3-1-0.5c-0.7-0.5-1.1-1.1-1.1-2c0-0.9,0.4-1.6,1.1-2.2c0.7-0.6,1.7-0.8,2.8-0.8
				s2.3,0.4,3.4,1.2l-1,1.8c-0.8-0.6-1.7-0.9-2.5-0.9s-1.3,0.2-1.3,0.7c0,0.3,0.1,0.5,0.4,0.6c0.3,0.1,0.7,0.3,1.3,0.5
				c0.6,0.2,1,0.3,1.3,0.4c0.3,0.1,0.6,0.3,0.9,0.5C72.6,143.6,72.9,144.3,72.9,145.2z"/>
		</g>
		<g>
			<path fill="#FFFFFF" d="M78.1,140.5v4.3c0,0.4,0.1,0.7,0.3,0.9c0.2,0.2,0.4,0.3,0.7,0.3c0.5,0,0.9-0.2,1.3-0.7l1,1.9
				c-0.8,0.8-1.7,1.2-2.7,1.2c-0.9,0-1.7-0.3-2.4-0.9c-0.6-0.6-1-1.4-1-2.5v-4.5h-1.1v-1.9h1.1v-2.9h2.7v2.9h2.3v1.9H78.1z"/>
		</g>
		<g>
			<path fill="#FFFFFF" d="M90.1,145.2c0,1-0.4,1.7-1.1,2.3c-0.7,0.6-1.6,0.9-2.7,0.9c-0.7,0-1.5-0.1-2.2-0.4s-1.5-0.6-2.1-1.1
				l1.2-1.7c1,0.8,2.1,1.2,3.2,1.2c0.3,0,0.6-0.1,0.8-0.2c0.2-0.1,0.3-0.3,0.3-0.5c0-0.2-0.1-0.4-0.4-0.6c-0.3-0.2-0.7-0.4-1.2-0.5
				s-0.9-0.3-1.2-0.4c-0.3-0.1-0.6-0.3-1-0.5c-0.7-0.5-1.1-1.1-1.1-2c0-0.9,0.4-1.6,1.1-2.2c0.7-0.6,1.7-0.8,2.8-0.8
				s2.3,0.4,3.4,1.2l-1,1.8c-0.8-0.6-1.7-0.9-2.5-0.9s-1.3,0.2-1.3,0.7c0,0.3,0.1,0.5,0.4,0.6c0.3,0.1,0.7,0.3,1.3,0.5
				c0.6,0.2,1,0.3,1.3,0.4c0.3,0.1,0.6,0.3,0.9,0.5C89.8,143.6,90.1,144.3,90.1,145.2z"/>
		</g>
	</g>
	<g>
		<g>
			<path fill="#FFFFFF" d="M274.5,74.1v-4h9.1v2.1l-5.1,10.5h-3.1l4.9-10.2h-3.2v1.6H274.5z"/>
		</g>
		<g>
			<path fill="#FFFFFF" d="M290.3,82.8c-1.7,0-3-0.6-3.9-1.8c-0.9-1.2-1.3-2.8-1.3-4.7c0-2,0.4-3.6,1.3-4.7c0.9-1.2,2.2-1.8,3.9-1.8
				s3,0.6,3.9,1.8c0.9,1.2,1.3,2.8,1.3,4.7c0,2-0.4,3.6-1.3,4.7S292,82.8,290.3,82.8z M288.4,73.3c-0.4,0.8-0.6,1.8-0.6,3
				c0,1.3,0.2,2.3,0.6,3c0.4,0.8,1,1.2,1.9,1.2s1.5-0.4,1.9-1.2c0.4-0.8,0.6-1.8,0.6-3c0-1.3-0.2-2.3-0.6-3c-0.4-0.8-1-1.2-1.9-1.2
				S288.8,72.5,288.4,73.3z"/>
		</g>
		<g>
			<path fill="#FFFFFF" d="M303,72.9c0,0.7-0.3,1.3-0.8,1.8c-0.5,0.5-1.1,0.7-1.9,0.7c-0.8,0-1.4-0.2-1.9-0.7s-0.8-1.1-0.8-1.8
				s0.3-1.3,0.8-1.8s1.1-0.7,1.9-0.7c0.8,0,1.4,0.2,1.9,0.7S303,72.2,303,72.9z M309.9,70.1l-9,12.6h-3.1l9-12.6H309.9z M299.8,73.6
				c0.1,0.2,0.3,0.2,0.5,0.2s0.4-0.1,0.5-0.2c0.1-0.2,0.2-0.4,0.2-0.6c0-0.3-0.1-0.5-0.2-0.7c-0.1-0.2-0.3-0.3-0.5-0.3
				s-0.4,0.1-0.5,0.3c-0.1,0.2-0.2,0.4-0.2,0.7C299.6,73.2,299.6,73.4,299.8,73.6z M310.1,80.3c0,0.7-0.3,1.3-0.8,1.8
				s-1.1,0.7-1.9,0.7c-0.8,0-1.4-0.2-1.9-0.7s-0.8-1.1-0.8-1.8s0.3-1.3,0.8-1.8s1.1-0.7,1.9-0.7c0.8,0,1.4,0.2,1.9,0.7
				S310.1,79.6,310.1,80.3z M306.9,80.9c0.1,0.2,0.3,0.2,0.5,0.2c0.2,0,0.4-0.1,0.5-0.2c0.1-0.2,0.2-0.4,0.2-0.6s-0.1-0.5-0.2-0.7
				c-0.1-0.2-0.3-0.3-0.5-0.3c-0.2,0-0.4,0.1-0.5,0.3c-0.1,0.2-0.2,0.4-0.2,0.7S306.7,80.8,306.9,80.9z"/>
		</g>
	</g>
	<g>
		<g>
			<path fill="#FFFFFF" d="M275,242.3v-2.4h7.7v1.9l-2.6,2.9c1,0.2,1.8,0.6,2.3,1.3c0.6,0.7,0.8,1.5,0.8,2.3c0,1.3-0.4,2.4-1.3,3.1
				c-0.9,0.8-2,1.1-3.4,1.1c-1.4,0-2.8-0.5-4.2-1.5l1.2-2.2c1.2,0.8,2.2,1.3,3.2,1.3c0.6,0,1-0.1,1.4-0.4s0.5-0.7,0.5-1.2
				c0-0.5-0.2-0.9-0.6-1.2c-0.4-0.3-1-0.5-1.7-0.5c-0.4,0-1,0.1-1.7,0.3v-2.1l2.4-2.8H275z"/>
		</g>
		<g>
			<path fill="#FFFFFF" d="M290.5,252.6c-1.7,0-3-0.6-3.9-1.8c-0.9-1.2-1.3-2.8-1.3-4.7c0-2,0.4-3.6,1.3-4.7
				c0.9-1.2,2.2-1.8,3.9-1.8s3,0.6,3.9,1.8c0.9,1.2,1.3,2.8,1.3,4.7c0,2-0.4,3.6-1.3,4.7S292.3,252.6,290.5,252.6z M288.7,243.1
				c-0.4,0.8-0.6,1.8-0.6,3c0,1.3,0.2,2.3,0.6,3c0.4,0.8,1,1.2,1.9,1.2s1.5-0.4,1.9-1.2c0.4-0.8,0.6-1.8,0.6-3c0-1.3-0.2-2.3-0.6-3
				c-0.4-0.8-1-1.2-1.9-1.2S289.1,242.3,288.7,243.1z"/>
		</g>
		<g>
			<path fill="#FFFFFF" d="M303.2,242.7c0,0.7-0.3,1.3-0.8,1.8c-0.5,0.5-1.1,0.7-1.9,0.7c-0.8,0-1.4-0.2-1.9-0.7s-0.8-1.1-0.8-1.8
				s0.3-1.3,0.8-1.8s1.1-0.7,1.9-0.7c0.8,0,1.4,0.2,1.9,0.7S303.2,242,303.2,242.7z M310.1,239.9l-9,12.6H298l9-12.6H310.1z
				 M300,243.4c0.1,0.2,0.3,0.2,0.5,0.2s0.4-0.1,0.5-0.2c0.1-0.2,0.2-0.4,0.2-0.6c0-0.3-0.1-0.5-0.2-0.7c-0.1-0.2-0.3-0.3-0.5-0.3
				s-0.4,0.1-0.5,0.3c-0.1,0.2-0.2,0.4-0.2,0.7C299.8,243,299.9,243.2,300,243.4z M310.3,250.1c0,0.7-0.3,1.3-0.8,1.8
				s-1.1,0.7-1.9,0.7c-0.8,0-1.4-0.2-1.9-0.7s-0.8-1.1-0.8-1.8s0.3-1.3,0.8-1.8s1.1-0.7,1.9-0.7c0.8,0,1.4,0.2,1.9,0.7
				S310.3,249.4,310.3,250.1z M307.1,250.7c0.1,0.2,0.3,0.2,0.5,0.2c0.2,0,0.4-0.1,0.5-0.2c0.1-0.2,0.2-0.4,0.2-0.6
				s-0.1-0.5-0.2-0.7c-0.1-0.2-0.3-0.3-0.5-0.3c-0.2,0-0.4,0.1-0.5,0.3c-0.1,0.2-0.2,0.4-0.2,0.7S306.9,250.6,307.1,250.7z"/>
		</g>
	</g>
	<g>
		<rect x="141" y="362.4" fill="#FFFFFF" width="605.1" height="64"/>
	</g>
	<g>
		<path fill="#E95F6A" d="M372.5,303.4h-194v-172c0-1.9,1.6-3.5,3.5-3.5s3.5,1.6,3.5,3.5v165h187c1.9,0,3.5,1.6,3.5,3.5
			S374.4,303.4,372.5,303.4z"/>
	</g>
	<g>
		<path fill="#E95F6A" d="M364.8,312.7c-1,0-2-0.4-2.6-1.2c-1.3-1.5-1.1-3.7,0.4-4.9l8.9-7.7l-8.9-7.7c-1.5-1.3-1.6-3.5-0.3-4.9
			c1.3-1.5,3.5-1.6,4.9-0.3l14.9,13l-15,12.9C366.4,312.4,365.6,312.7,364.8,312.7z"/>
	</g>
	<g>
		<g>
			<path fill="#452845" d="M332.5,400.9l-1.6-3.6h-7l-1.6,3.6h-4l7.2-16.8h3.6l7.2,16.8H332.5z M327.5,389.1l-2.1,4.9h4.2
				L327.5,389.1z"/>
		</g>
		<g>
			<path fill="#452845" d="M349.9,393.9v7h-3.6v-7.1c0-1-0.2-1.8-0.5-2.3c-0.3-0.5-0.8-0.7-1.5-0.7s-1.3,0.3-1.8,0.8
				c-0.5,0.5-0.8,1.3-0.8,2.3v7h-3.6V388h3.6v1.5c1-1.1,2.1-1.7,3.4-1.7c0.8,0,1.6,0.2,2.2,0.7c0.7,0.5,1.2,1.1,1.5,1.8
				c0.5-0.8,1.2-1.4,2-1.8c0.8-0.4,1.7-0.6,2.5-0.6c1.5,0,2.7,0.5,3.7,1.4c0.9,0.9,1.4,2.2,1.4,3.9v7.8h-3.6v-7.1c0-2-0.7-3-2.2-3
				c-0.7,0-1.3,0.3-1.9,0.8C350.2,392.1,349.9,392.9,349.9,393.9z"/>
		</g>
		<g>
			<path fill="#452845" d="M372.6,400.9h-3.4v-1.6c-0.9,1.2-2.1,1.8-3.4,1.8s-2.5-0.4-3.4-1.2c-0.9-0.8-1.4-1.8-1.4-3.2
				s0.5-2.3,1.4-3s2.3-1,3.9-1h2.7v-0.1c0-1.4-0.7-2.1-2.2-2.1c-0.6,0-1.3,0.1-2,0.4c-0.7,0.2-1.3,0.6-1.8,0.9l-1.6-2.3
				c1.7-1.2,3.6-1.8,5.8-1.8c1.6,0,2.8,0.4,3.8,1.2c1,0.8,1.5,2,1.5,3.7V400.9z M369,395.9v-0.6h-2.3c-1.4,0-2.2,0.4-2.2,1.3
				c0,0.5,0.2,0.8,0.5,1.1c0.3,0.2,0.8,0.4,1.5,0.4c0.6,0,1.2-0.2,1.7-0.6C368.8,397.1,369,396.6,369,395.9z"/>
		</g>
		<g>
			<path fill="#452845" d="M379.5,400.9h-3.6v-17.8h3.6V400.9z"/>
		</g>
		<g>
			<path fill="#452845" d="M392.5,398.7c-1.1,1.3-2.5,1.9-4.2,1.9c-1.7,0-3.1-0.6-4.3-1.7s-1.7-2.7-1.7-4.6s0.6-3.5,1.8-4.7
				c1.2-1.2,2.6-1.8,4.1-1.8s2.8,0.6,3.8,1.9v-1.7h3.6v11.3c0,1.2-0.2,2.2-0.6,3.1c-0.4,0.9-0.9,1.6-1.6,2.1
				c-1.3,1.1-2.9,1.6-4.7,1.6c-1,0-1.9-0.2-2.9-0.5c-1-0.3-1.9-0.8-2.6-1.3l1.4-2.7c1.2,0.9,2.4,1.3,3.8,1.3c1.3,0,2.4-0.3,3.1-1
				C392.1,401.1,392.5,400.1,392.5,398.7z M392,394.1c0-1-0.3-1.8-0.9-2.4s-1.3-0.9-2.1-0.9c-0.8,0-1.6,0.3-2.2,0.9
				s-0.9,1.4-0.9,2.4c0,1,0.3,1.9,0.9,2.5c0.6,0.6,1.3,0.9,2.2,0.9c0.9,0,1.6-0.3,2.2-0.9S392,395.2,392,394.1z"/>
		</g>
		<g>
			<path fill="#452845" d="M409.9,400.9h-3.4v-1.6c-0.9,1.2-2.1,1.8-3.4,1.8s-2.5-0.4-3.4-1.2c-0.9-0.8-1.4-1.8-1.4-3.2
				s0.5-2.3,1.4-3s2.3-1,3.9-1h2.7v-0.1c0-1.4-0.7-2.1-2.2-2.1c-0.6,0-1.3,0.1-2,0.4c-0.7,0.2-1.3,0.6-1.8,0.9l-1.6-2.3
				c1.7-1.2,3.6-1.8,5.8-1.8c1.6,0,2.8,0.4,3.8,1.2c1,0.8,1.5,2,1.5,3.7V400.9z M406.3,395.9v-0.6H404c-1.4,0-2.2,0.4-2.2,1.3
				c0,0.5,0.2,0.8,0.5,1.1c0.3,0.2,0.8,0.4,1.5,0.4c0.6,0,1.2-0.2,1.7-0.6C406,397.1,406.3,396.6,406.3,395.9z"/>
		</g>
		<g>
			<path fill="#452845" d="M425.1,393.9v7h-3.6v-7.1c0-1-0.2-1.8-0.5-2.3c-0.3-0.5-0.8-0.7-1.5-0.7s-1.3,0.3-1.8,0.8
				c-0.5,0.5-0.8,1.3-0.8,2.3v7h-3.6V388h3.6v1.5c1-1.1,2.1-1.7,3.4-1.7c0.8,0,1.6,0.2,2.2,0.7c0.7,0.5,1.2,1.1,1.5,1.8
				c0.5-0.8,1.2-1.4,2-1.8c0.8-0.4,1.7-0.6,2.5-0.6c1.5,0,2.7,0.5,3.7,1.4c0.9,0.9,1.4,2.2,1.4,3.9v7.8h-3.6v-7.1c0-2-0.7-3-2.2-3
				c-0.7,0-1.3,0.3-1.9,0.8C425.3,392.1,425.1,392.9,425.1,393.9z"/>
		</g>
		<g>
			<path fill="#452845" d="M438.6,385c1.1-0.9,2.5-1.3,4.2-1.3s3,0.4,4.2,1.3c1.1,0.9,1.7,2,1.7,3.3s-0.5,2.4-1.5,3.3
				c1.4,1.1,2.1,2.5,2.1,4.2c0,1.5-0.6,2.7-1.8,3.7c-1.2,1-2.7,1.5-4.6,1.5c-1.9,0-3.4-0.5-4.6-1.5c-1.2-1-1.8-2.2-1.8-3.7
				c0-1.7,0.7-3.2,2.1-4.2c-1-0.9-1.5-2.1-1.5-3.3S437.5,385.9,438.6,385z M441,397.4c0.6,0.4,1.2,0.6,1.8,0.6s1.3-0.2,1.8-0.6
				c0.6-0.4,0.8-0.9,0.8-1.6c0-0.7-0.3-1.3-0.8-1.7s-1.2-0.6-1.8-0.6c-0.7,0-1.3,0.2-1.8,0.6c-0.5,0.4-0.8,0.9-0.8,1.7
				C440.1,396.5,440.4,397,441,397.4z M441.2,390c0.5,0.4,1,0.6,1.6,0.6c0.6,0,1.1-0.2,1.6-0.6s0.7-0.9,0.7-1.4c0-0.6-0.2-1-0.7-1.4
				c-0.4-0.4-1-0.6-1.6-0.6s-1.2,0.2-1.6,0.6c-0.4,0.4-0.7,0.9-0.7,1.4C440.5,389.2,440.7,389.7,441.2,390z"/>
		</g>
		<g>
			<path fill="#452845" d="M466.6,397.6c1.8,0,3.3-0.7,4.5-2.2l2.4,2.5c-1.9,2.1-4.1,3.2-6.7,3.2s-4.7-0.8-6.4-2.4
				c-1.7-1.6-2.5-3.7-2.5-6.2c0-2.5,0.9-4.6,2.6-6.2s3.8-2.5,6.3-2.5c2.8,0,5.1,1,6.9,3.1l-2.3,2.6c-1.2-1.5-2.7-2.2-4.4-2.2
				c-1.4,0-2.6,0.5-3.6,1.4s-1.5,2.2-1.5,3.7c0,1.6,0.5,2.8,1.4,3.8C464.1,397.1,465.3,397.6,466.6,397.6z"/>
		</g>
		<g>
			<path fill="#452845" d="M488.5,394.4c0,1.9-0.6,3.4-1.9,4.7s-2.9,1.9-4.9,1.9s-3.6-0.6-4.9-1.9s-1.9-2.9-1.9-4.7s0.6-3.5,1.9-4.7
				c1.3-1.3,2.9-1.9,4.9-1.9s3.6,0.6,4.9,1.9C487.9,391,488.5,392.5,488.5,394.4z M478.5,394.4c0,1.1,0.3,1.9,0.9,2.6
				c0.6,0.7,1.4,1,2.3,1c0.9,0,1.7-0.3,2.3-1c0.6-0.7,0.9-1.5,0.9-2.6s-0.3-1.9-0.9-2.6c-0.6-0.7-1.4-1-2.3-1c-0.9,0-1.7,0.3-2.3,1
				C478.8,392.5,478.5,393.4,478.5,394.4z"/>
		</g>
		<g>
			<path fill="#452845" d="M494.8,393.7v7.2h-3.6V388h3.6v1.4c1.1-1.1,2.3-1.7,3.7-1.7c1.4,0,2.5,0.5,3.4,1.4c0.9,1,1.4,2.2,1.4,3.8
				v7.8h-3.6v-7.3c0-2-0.7-3-2.2-3c-0.7,0-1.3,0.3-1.9,0.8C495,391.9,494.8,392.7,494.8,393.7z"/>
		</g>
		<g>
			<path fill="#452845" d="M510.6,390.5v5.8c0,0.5,0.1,0.9,0.4,1.2c0.3,0.3,0.6,0.4,0.9,0.4c0.7,0,1.2-0.3,1.7-0.9l1.3,2.5
				c-1.1,1-2.3,1.5-3.5,1.5s-2.3-0.4-3.1-1.2c-0.9-0.8-1.3-1.9-1.3-3.3v-6h-1.5V388h1.5v-3.9h3.6v3.9h3.1v2.6H510.6z"/>
		</g>
		<g>
			<path fill="#452845" d="M523.7,391.1c-1.1,0-1.9,0.4-2.4,1.1c-0.5,0.8-0.8,1.8-0.8,3v5.6h-3.6V388h3.6v1.7c0.5-0.5,1-1,1.7-1.3
				s1.4-0.6,2.1-0.6l0,3.4H523.7z"/>
		</g>
		<g>
			<path fill="#452845" d="M539.5,394.4c0,1.9-0.6,3.4-1.9,4.7s-2.9,1.9-4.9,1.9s-3.6-0.6-4.9-1.9s-1.9-2.9-1.9-4.7s0.6-3.5,1.9-4.7
				c1.3-1.3,2.9-1.9,4.9-1.9s3.6,0.6,4.9,1.9C538.8,391,539.5,392.5,539.5,394.4z M529.4,394.4c0,1.1,0.3,1.9,0.9,2.6
				c0.6,0.7,1.4,1,2.3,1c0.9,0,1.7-0.3,2.3-1c0.6-0.7,0.9-1.5,0.9-2.6s-0.3-1.9-0.9-2.6c-0.6-0.7-1.4-1-2.3-1c-0.9,0-1.7,0.3-2.3,1
				C529.7,392.5,529.4,393.4,529.4,394.4z"/>
		</g>
		<g>
			<path fill="#452845" d="M545.7,400.9h-3.6v-17.8h3.6V400.9z"/>
		</g>
		<g>
			<path fill="#452845" d="M552.7,400.9h-3.6v-17.8h3.6V400.9z"/>
		</g>
		<g>
			<path fill="#452845" d="M567.3,399c-1.5,1.4-3.2,2.1-5.1,2.1s-3.6-0.6-4.9-1.8c-1.3-1.2-1.9-2.8-1.9-4.9c0-2,0.7-3.6,2-4.8
				c1.3-1.2,2.8-1.8,4.6-1.8c1.8,0,3.3,0.5,4.5,1.6c1.2,1.1,1.9,2.5,1.9,4.4v1.9H559c0.1,0.7,0.5,1.3,1.1,1.7
				c0.6,0.4,1.3,0.7,2.1,0.7c1.3,0,2.3-0.4,3.1-1.3L567.3,399z M563.9,391.3c-0.5-0.4-1.1-0.6-1.8-0.6s-1.4,0.2-2,0.6s-0.9,1-1,1.8
				h5.7C564.7,392.3,564.4,391.8,563.9,391.3z"/>
		</g>
		<g>
			<path fill="#452845" d="M577.8,391.1c-1.1,0-1.9,0.4-2.4,1.1c-0.5,0.8-0.8,1.8-0.8,3v5.6H571V388h3.6v1.7c0.5-0.5,1-1,1.7-1.3
				s1.4-0.6,2.1-0.6l0,3.4H577.8z"/>
		</g>
	</g>
</g>
</svg>
