<?xml version="1.0" encoding="UTF-8" standalone="no"?>
<svg
   fill="none"
   stroke="none"
   stroke-linecap="square"
   stroke-miterlimit="10"
   version="1.1"
   viewBox="0 0 960 720"
   id="svg182"
   sodipodi:docname="blue-green.svg"
   inkscape:version="1.3 (0e150ed6c4, 2023-07-21)"
   xmlns:inkscape="http://www.inkscape.org/namespaces/inkscape"
   xmlns:sodipodi="http://sodipodi.sourceforge.net/DTD/sodipodi-0.dtd"
   xmlns="http://www.w3.org/2000/svg"
   xmlns:svg="http://www.w3.org/2000/svg">
  <defs
     id="defs182" />
  <sodipodi:namedview
     id="namedview182"
     pagecolor="#ffffff"
     bordercolor="#000000"
     borderopacity="0.25"
     inkscape:showpageshadow="2"
     inkscape:pageopacity="0.0"
     inkscape:pagecheckerboard="0"
     inkscape:deskcolor="#d1d1d1"
     inkscape:zoom="1.1402778"
     inkscape:cx="480.14616"
     inkscape:cy="360"
     inkscape:window-width="1920"
     inkscape:window-height="1017"
     inkscape:window-x="1912"
     inkscape:window-y="-8"
     inkscape:window-maximized="1"
     inkscape:current-layer="g182" />
  <clipPath
     id="p.0">
    <path
       d="m0 0l960.0 0l0 720.0l-960.0 0l0 -720.0z"
       clip-rule="nonzero"
       id="path1" />
  </clipPath>
  <g
     clip-path="url(#p.0)"
     id="g182">
    <path
       fill="#000"
       fill-opacity="0"
       fill-rule="evenodd"
       d="m0 0l960.0 0l0 720.0l-960.0 0z"
       id="path2" />
    <path
       fill="#000"
       fill-opacity="0"
       fill-rule="evenodd"
       d="m32.0 183.44286l0 0c0 -52.86093 42.852257 -95.713196 95.7132 -95.713196l701.77045 0c25.384705 0 49.729736 10.084038 67.67944 28.033745c17.949707 17.949715 28.033752 42.29473 28.033752 67.67945l0 382.8413c0 52.860962 -42.852234 95.713196 -95.713196 95.713196l-701.77045 0c-52.860947 0 -95.7132 -42.852234 -95.7132 -95.713196z"
       id="path3" />
    <path
       fill-rule="evenodd"
       stroke="#46f"
       stroke-dasharray="8 6"
       stroke-linecap="butt"
       stroke-linejoin="round"
       stroke-width="2"
       d="m32.0 183.44286l0 0c0 -52.86093 42.852257 -95.713196 95.7132 -95.713196l701.77045 0c25.384705 0 49.729736 10.084038 67.67944 28.033745c17.949707 17.949715 28.033752 42.29473 28.033752 67.67945l0 382.8413c0 52.860962 -42.852234 95.713196 -95.713196 95.713196l-701.77045 0c-52.860947 0 -95.7132 -42.852234 -95.7132 -95.713196z"
       id="path4" />
    <path
       fill="#000"
       fill-opacity="0"
       fill-rule="evenodd"
       d="m40.0 55.346737l125.03937 0l0 50.61417l-125.03937 0z"
       id="path5" />
    <path
       fill="#000"
       fill-opacity="0"
       fill-rule="evenodd"
       d="m69.21886 123.31l154.11024 0l0 50.614166l-154.11024 0z"
       id="path7" />
    <path
       fill="#e6e6e6"
       fill-rule="evenodd"
       d="m193.3345 183.26585l127.564575 0l0 88.55434l-127.564575 0z"
       id="path9" />
    <path
       fill="#fff"
       fill-rule="evenodd"
       d="m199.82921 193.10632l112.41716 0l0 67.47186l-112.41716 0z"
       id="path10" />
    <path
       fill="#000"
       fill-opacity="0"
       fill-rule="evenodd"
       d="m69.21785 218.20088l0 0c0 -36.161606 29.314766 -65.47638 65.47638 -65.47638l261.89764 0l0 0c17.365417 0 34.019592 6.8983917 46.298798 19.177597c12.279205 12.27919 19.177582 28.933365 19.177582 46.298782l0 337.04724c0 36.16162 -29.314758 65.47638 -65.47638 65.47638l-261.89764 0c-36.161613 0 -65.47638 -29.314758 -65.47638 -65.47638z"
       id="path12" />
    <path
       fill-rule="evenodd"
       stroke="#ff6400"
       stroke-linecap="butt"
       stroke-linejoin="round"
       stroke-width="2"
       d="m69.21785 218.20088l0 0c0 -36.161606 29.314766 -65.47638 65.47638 -65.47638l261.89764 0l0 0c17.365417 0 34.019592 6.8983917 46.298798 19.177597c12.279205 12.27919 19.177582 28.933365 19.177582 46.298782l0 337.04724c0 36.16162 -29.314758 65.47638 -65.47638 65.47638l-261.89764 0c-36.161613 0 -65.47638 -29.314758 -65.47638 -65.47638z"
       id="path13" />
    <path
       fill="#e6e6e6"
       fill-rule="evenodd"
       d="m196.16856 339.53754l-0.56359863 0.07098389l-1.0251923 0.4776001l-0.73535156 0.95513916l-0.4562378 1.2261963l-0.05366516 0.68411255l0 75.017975l0.05366516 0.68408203l0.4562378 1.2262268l0.73535156 0.95513916l1.0251923 0.47756958l0.56359863 0.071014404l121.901596 0l0.56359863 -0.071014404l1.0198364 -0.47756958l0.74072266 -0.95513916l0.4508667 -1.2262268l0.059051514 -0.68408203l0 -75.017975l-0.059051514 -0.68411255l-0.4508667 -1.2261963l-0.74072266 -0.95513916l-1.0198364 -0.4776001l-0.56359863 -0.07098389z"
       id="path14" />
    <path
       fill="#fff"
       fill-rule="evenodd"
       d="m204.67607 349.7667l-0.6226349 0.07098389l-1.0198212 0.47756958l-0.73535156 0.95513916l-0.4562378 1.2262268l0 0.68408203l0 54.559723l0 0.68408203l0.4562378 1.2261963l0.73535156 0.9551697l1.0198212 0.47756958l0.6226349 0.06454468l104.94026 0l0.5689697 -0.06454468l1.0198059 -0.47756958l0.73535156 -0.9551697l0.4562378 -1.2261963l0.05368042 -0.68408203l0 -54.559723l-0.05368042 -0.68408203l-0.4562378 -1.2262268l-0.73535156 -0.95513916l-1.0198059 -0.47756958l-0.5689697 -0.07098389z"
       id="path15" />
    <path
       fill="#466bb0"
       fill-rule="evenodd"
       d="m214.8314 398.05338l9.758148 5.8664246l16.220627 -5.8664246z"
       id="path16" />
    <path
       fill="#466bb0"
       fill-rule="evenodd"
       d="m224.58955 372.6193l-9.758148 23.459259l9.758148 -1.9812927l0 -21.477966z"
       id="path17" />
    <path
       fill="#476baf"
       fill-rule="evenodd"
       d="m226.17833 357.00128l0 37.095978l14.631851 1.9812927l-14.631851 -39.07727z"
       id="path18" />
    <path
       fill="#000"
       fill-opacity="0"
       fill-rule="evenodd"
       d="m232.84402 363.46146l79.6037 0l0 33.992554l-79.6037 0z"
       id="path19" />
    <path
       fill="#000"
       fill-rule="nonzero"
       d="m253.90308 374.86462l1.359375 0l0 11.453125l-1.359375 0l0 -11.453125zm6.4981384 11.703125q-1.3125 0 -2.203125 -0.609375q-0.875 -0.609375 -1.234375 -1.578125l1.203125 -0.546875q0.3125 0.734375 0.90625 1.140625q0.609375 0.40625 1.328125 0.40625q0.765625 0 1.3125 -0.3125q0.546875 -0.3125 0.546875 -0.890625q0 -0.515625 -0.4375 -0.828125q-0.4375 -0.3125 -1.359375 -0.53125l-1.0 -0.265625q-0.96875 -0.234375 -1.59375 -0.8125q-0.625 -0.578125 -0.625 -1.484375q0 -0.703125 0.421875 -1.234375q0.421875 -0.546875 1.125 -0.828125q0.703125 -0.296875 1.53125 -0.296875q1.0625 0 1.90625 0.46875q0.84375 0.46875 1.1875 1.296875l-1.171875 0.546875q-0.546875 -1.09375 -1.9375 -1.09375q-0.671875 0 -1.1875 0.3125q-0.5 0.3125 -0.5 0.796875q0 0.453125 0.34375 0.734375q0.359375 0.265625 1.0625 0.453125l1.1875 0.296875q1.203125 0.3125 1.8125 0.90625q0.609375 0.59375 0.609375 1.46875q0 0.75 -0.4375 1.3125q-0.4375 0.5625 -1.171875 0.875q-0.734375 0.296875 -1.625 0.296875zm7.7692566 -0.125q-0.5 0 -0.921875 -0.15625q-0.421875 -0.15625 -0.703125 -0.4375q-0.640625 -0.609375 -0.640625 -1.671875l0 -4.78125l-1.421875 0l0 -1.234375l1.421875 0l0 -2.3125l1.359375 0l0 2.3125l2.0 0l0 1.234375l-2.0 0l0 4.4375q0 0.671875 0.25 1.0q0.3125 0.34375 0.890625 0.34375q0.484375 0 0.890625 -0.265625l0 1.328125q-0.234375 0.109375 -0.484375 0.15625q-0.25 0.046875 -0.640625 0.046875zm3.6079102 -9.78125q-0.40625 0 -0.703125 -0.28125q-0.28125 -0.296875 -0.28125 -0.703125q0 -0.421875 0.28125 -0.6875q0.296875 -0.28125 0.703125 -0.28125q0.40625 0 0.6875 0.28125q0.28125 0.265625 0.28125 0.6875q0 0.40625 -0.28125 0.703125q-0.28125 0.28125 -0.6875 0.28125zm-0.671875 1.5l1.359375 0l0 8.15625l-1.359375 0l0 -8.15625zm7.1610107 8.40625q-1.203125 0 -2.171875 -0.5625q-0.953125 -0.578125 -1.484375 -1.5625q-0.53125 -1.0 -0.53125 -2.203125q0 -1.203125 0.53125 -2.1875q0.53125 -1.0 1.484375 -1.578125q0.96875 -0.578125 2.171875 -0.578125q1.203125 0 2.15625 0.578125q0.96875 0.578125 1.5 1.578125q0.53125 0.984375 0.53125 2.1875q0 1.203125 -0.53125 2.203125q-0.53125 0.984375 -1.5 1.5625q-0.953125 0.5625 -2.15625 0.5625zm0 -1.21875q0.75 0 1.390625 -0.375q0.65625 -0.390625 1.046875 -1.09375q0.390625 -0.703125 0.390625 -1.640625q0 -0.953125 -0.390625 -1.65625q-0.390625 -0.703125 -1.046875 -1.078125q-0.640625 -0.375 -1.390625 -0.375q-0.75 0 -1.40625 0.375q-0.65625 0.375 -1.046875 1.078125q-0.390625 0.703125 -0.390625 1.65625q0 0.9375 0.390625 1.640625q0.390625 0.703125 1.046875 1.09375q0.65625 0.375 1.40625 0.375zm9.254761 1.21875q-1.109375 0 -2.0 -0.546875q-0.890625 -0.5625 -1.40625 -1.546875q-0.5 -0.984375 -0.5 -2.234375q0 -1.234375 0.5 -2.21875q0.515625 -1.0 1.40625 -1.5625q0.890625 -0.5625 2.0 -0.5625q0.921875 0 1.65625 0.4375q0.734375 0.421875 1.125 1.046875l0.0625 0l-0.0625 -1.140625l0 -3.375l1.359375 0l0 11.453125l-1.296875 0l0 -1.203125l-0.0625 0q-0.390625 0.609375 -1.125 1.03125q-0.734375 0.421875 -1.65625 0.421875zm0.140625 -1.21875q0.71875 0 1.328125 -0.390625q0.625 -0.390625 1.0 -1.09375q0.375 -0.703125 0.375 -1.625q0 -0.9375 -0.375 -1.640625q-0.375 -0.703125 -1.0 -1.078125q-0.609375 -0.390625 -1.328125 -0.390625q-0.703125 0 -1.328125 0.390625q-0.625 0.375 -1.0 1.09375q-0.375 0.71875 -0.375 1.625q0 0.90625 0.375 1.625q0.375 0.703125 1.0 1.09375q0.625 0.390625 1.328125 0.390625z"
       id="path20" />
    <path
       fill="#000"
       fill-opacity="0"
       fill-rule="evenodd"
       d="m256.64435 340.48163l0.47244263 -68.66144"
       id="path21" />
    <path
       fill-rule="evenodd"
       stroke="#46f"
       stroke-dasharray="8 6"
       stroke-linecap="butt"
       stroke-linejoin="round"
       stroke-width="2"
       d="m256.64435 340.4816l0.42526245 -61.807404"
       id="path22" />
    <path
       fill="#46f"
       fill-rule="evenodd"
       stroke="#46f"
       stroke-linecap="butt"
       stroke-width="2"
       d="m257.0696 278.6742l2.2336426 2.2645874l-2.206604 -6.1948547l-2.291626 6.16391z"
       id="path23" />
    <path
       fill="#e6e6e6"
       fill-rule="evenodd"
       d="m88.259094 502.6105l-0.64069366 0.05404663l-1.1654434 0.36346436l-0.83595276 0.72698975l-0.51865387 0.9332886l-0.061019897 0.5157471l0 57.10211l0.061019897 0.5206909l0.51865387 0.9332886l0.83595276 0.7269287l1.1654434 0.3635254l0.64069366 0.0491333l138.57248 0l0.64678955 -0.0491333l1.1593475 -0.3635254l0.9030762 -0.7269287l0.4515381 -0.9332886l0.067108154 -0.5206909l0 -57.10211l-0.067108154 -0.5157471l-0.4515381 -0.9332886l-0.9030762 -0.72698975l-1.1593475 -0.36346436l-0.64678955 -0.05404663z"
       id="path24" />
    <path
       fill="#fff"
       fill-rule="evenodd"
       d="m94.89005 510.3947l125.045906 0l0 46.74469l-125.045906 0z"
       id="path25" />
    <path
       fill="#000"
       fill-rule="nonzero"
       d="m147.7722 539.8771q-0.875 0 -1.6875 -0.359375q-0.796875 -0.359375 -1.421875 -1.046875q-0.625 -0.703125 -0.890625 -1.6875l1.296875 -0.53125q0.265625 1.015625 1.0 1.671875q0.734375 0.65625 1.734375 0.65625q0.984375 0 1.671875 -0.53125q0.6875 -0.53125 0.6875 -1.46875q0 -0.796875 -0.578125 -1.3125q-0.578125 -0.515625 -1.90625 -0.96875l-0.734375 -0.25q-1.203125 -0.4375 -1.984375 -1.140625q-0.765625 -0.703125 -0.765625 -1.953125q0 -0.8125 0.453125 -1.5q0.453125 -0.703125 1.25 -1.125q0.796875 -0.421875 1.796875 -0.421875q0.984375 0 1.71875 0.375q0.734375 0.375 1.171875 0.90625q0.453125 0.515625 0.625 1.03125l-1.265625 0.546875q-0.171875 -0.59375 -0.75 -1.078125q-0.5625 -0.484375 -1.484375 -0.484375q-0.890625 0 -1.515625 0.5q-0.625 0.5 -0.625 1.25q0 0.671875 0.53125 1.09375q0.53125 0.421875 1.609375 0.796875l0.75 0.25q1.453125 0.53125 2.265625 1.328125q0.8125 0.78125 0.8125 2.140625q0 1.109375 -0.5625 1.859375q-0.5625 0.75 -1.4375 1.109375q-0.859375 0.34375 -1.765625 0.34375zm9.14827 0q-1.171875 0 -2.109375 -0.546875q-0.921875 -0.5625 -1.4375 -1.546875q-0.515625 -0.984375 -0.515625 -2.21875q0 -1.171875 0.484375 -2.171875q0.484375 -1.0 1.390625 -1.59375q0.90625 -0.59375 2.078125 -0.59375q1.203125 0 2.078125 0.546875q0.875 0.53125 1.34375 1.484375q0.484375 0.9375 0.484375 2.15625q0 0.1875 -0.03125 0.40625l-6.46875 0q0.046875 0.9375 0.4375 1.578125q0.40625 0.640625 1.015625 0.96875q0.625 0.3125 1.296875 0.3125q1.59375 0 2.421875 -1.484375l1.140625 0.5625q-0.5 0.984375 -1.421875 1.5625q-0.90625 0.578125 -2.1875 0.578125zm2.34375 -5.1875q-0.03125 -0.515625 -0.28125 -1.03125q-0.25 -0.515625 -0.796875 -0.859375q-0.546875 -0.359375 -1.375 -0.359375q-0.96875 0 -1.640625 0.625q-0.671875 0.609375 -0.875 1.625l4.96875 0zm3.0392609 -3.21875l1.28125 0l0 1.3125l0.078125 0q0.234375 -0.671875 0.921875 -1.109375q0.6875 -0.453125 1.4375 -0.453125q0.5625 0 0.96875 0.171875l0 1.46875q-0.515625 -0.265625 -1.15625 -0.265625q-0.59375 0 -1.09375 0.34375q-0.5 0.328125 -0.796875 0.90625q-0.28125 0.5625 -0.28125 1.21875l0 4.5625l-1.359375 0l0 -8.15625zm5.3657684 0l1.453125 0l2.53125 6.5625l0.03125 0l2.5625 -6.5625l1.421875 0l-3.328125 8.15625l-1.375 0l-3.296875 -8.15625zm9.927139 -1.5q-0.40625 0 -0.703125 -0.28125q-0.28125 -0.296875 -0.28125 -0.703125q0 -0.421875 0.28125 -0.6875q0.296875 -0.28125 0.703125 -0.28125q0.40625 0 0.6875 0.28125q0.28125 0.265625 0.28125 0.6875q0 0.40625 -0.28125 0.703125q-0.28125 0.28125 -0.6875 0.28125zm-0.671875 1.5l1.359375 0l0 8.15625l-1.359375 0l0 -8.15625zm7.0985107 8.40625q-1.1875 0 -2.140625 -0.5625q-0.9375 -0.5625 -1.46875 -1.546875q-0.515625 -0.984375 -0.515625 -2.21875q0 -1.234375 0.515625 -2.21875q0.53125 -1.0 1.46875 -1.5625q0.953125 -0.5625 2.140625 -0.5625q1.328125 0 2.234375 0.625q0.90625 0.609375 1.28125 1.640625l-1.234375 0.515625q-0.296875 -0.765625 -0.90625 -1.15625q-0.59375 -0.390625 -1.4375 -0.390625q-0.71875 0 -1.34375 0.390625q-0.625 0.390625 -1.0 1.109375q-0.375 0.703125 -0.375 1.609375q0 0.90625 0.375 1.609375q0.375 0.703125 1.0 1.109375q0.625 0.390625 1.34375 0.390625q0.859375 0 1.484375 -0.40625q0.625 -0.40625 0.9375 -1.140625l1.203125 0.515625q-0.40625 1.015625 -1.328125 1.640625q-0.921875 0.609375 -2.234375 0.609375zm8.593521 0q-1.171875 0 -2.109375 -0.546875q-0.921875 -0.5625 -1.4375 -1.546875q-0.515625 -0.984375 -0.515625 -2.21875q0 -1.171875 0.484375 -2.171875q0.484375 -1.0 1.390625 -1.59375q0.90625 -0.59375 2.078125 -0.59375q1.203125 0 2.078125 0.546875q0.875 0.53125 1.34375 1.484375q0.484375 0.9375 0.484375 2.15625q0 0.1875 -0.03125 0.40625l-6.46875 0q0.046875 0.9375 0.4375 1.578125q0.40625 0.640625 1.015625 0.96875q0.625 0.3125 1.296875 0.3125q1.59375 0 2.421875 -1.484375l1.140625 0.5625q-0.5 0.984375 -1.421875 1.5625q-0.90625 0.578125 -2.1875 0.578125zm2.34375 -5.1875q-0.03125 -0.515625 -0.28125 -1.03125q-0.25 -0.515625 -0.796875 -0.859375q-0.546875 -0.359375 -1.375 -0.359375q-0.96875 0 -1.640625 0.625q-0.671875 0.609375 -0.875 1.625l4.96875 0zm2.0236359 4.9375l0 0zm7.82576 -11.453125l1.53125 0l4.359375 11.453125l-1.5 0l-1.140625 -3.15625l-4.96875 0l-1.140625 3.15625l-1.5 0l4.359375 -11.453125zm2.78125 7.015625l-1.53125 -4.125l-0.453125 -1.234375l-0.0625 0l-0.453125 1.234375l-1.53125 4.125l4.03125 0z"
       id="path26" />
    <path
       fill="#767576"
       fill-rule="evenodd"
       d="m111.57639 518.1859l-1.6004639 0.0491333l-3.044777 0.62384033l-2.7324905 1.1936035l-2.473877 1.6602783l-2.1128082 2.126892l-1.6492538 2.4953003l-1.1857071 2.7507324l-0.61968994 3.0601807l-0.05367279 1.611084l0.05367279 1.611145l0.61968994 3.0061646l1.1857071 2.8047485l1.6492538 2.4904175l2.1128082 2.131775l2.473877 1.6602783l2.7324905 1.1936035l3.044777 0.62384033l1.6004639 0.0491333l1.595581 -0.0491333l2.9911041 -0.62384033l2.7861633 -1.1936035l2.4738846 -1.6602783l2.1128006 -2.131775l1.6492538 -2.4904175l1.1857071 -2.8047485l0.61968994 -3.0061646l0.05367279 -1.611145l-0.05367279 -1.611084l-0.61968994 -3.0601807l-1.1857071 -2.7507324l-1.6492538 -2.4953003l-2.1128006 -2.126892l-2.4738846 -1.6602783l-2.7861633 -1.1936035l-2.9911041 -0.62384033l-1.595581 -0.0491333z"
       id="path27" />
    <path
       fill="#000"
       fill-opacity="0"
       fill-rule="evenodd"
       d="m117.041374 539.1553l-10.983643 0l0 -11.056946l10.983643 0l0 11.056946z"
       id="path28" />
    <path
       fill-rule="evenodd"
       stroke="#fff"
       stroke-linecap="butt"
       stroke-linejoin="round"
       stroke-width=".916"
       d="m117.041374 539.1553l-10.983643 0l0 -11.056946l10.983643 0l0 11.056946z"
       id="path29" />
    <path
       fill="#000"
       fill-opacity="0"
       fill-rule="evenodd"
       d="m108.11686 528.0983l0 -2.647522"
       id="path30" />
    <path
       fill-rule="evenodd"
       stroke="#fff"
       stroke-linecap="round"
       stroke-miterlimit="105.678"
       stroke-width=".916"
       d="m108.11686 528.0983l0 -2.647522"
       id="path31" />
    <path
       fill="#000"
       fill-opacity="0"
       fill-rule="evenodd"
       d="m111.57639 528.0983l0 -2.647522"
       id="path32" />
    <path
       fill-rule="evenodd"
       stroke="#fff"
       stroke-linecap="round"
       stroke-miterlimit="105.678"
       stroke-width=".916"
       d="m111.57639 528.0983l0 -2.647522"
       id="path33" />
    <path
       fill="#000"
       fill-opacity="0"
       fill-rule="evenodd"
       d="m115.031044 528.0983l0 -2.647522"
       id="path34" />
    <path
       fill-rule="evenodd"
       stroke="#fff"
       stroke-linecap="round"
       stroke-miterlimit="105.678"
       stroke-width=".916"
       d="m115.031044 528.0983l0 -2.647522"
       id="path35" />
    <path
       fill="#000"
       fill-opacity="0"
       fill-rule="evenodd"
       d="m108.11686 542.0632l0 -2.7015991"
       id="path36" />
    <path
       fill-rule="evenodd"
       stroke="#fff"
       stroke-linecap="round"
       stroke-miterlimit="105.678"
       stroke-width=".916"
       d="m108.11686 542.0632l0 -2.7015991"
       id="path37" />
    <path
       fill="#000"
       fill-opacity="0"
       fill-rule="evenodd"
       d="m111.57639 542.0632l0 -2.7015991"
       id="path38" />
    <path
       fill-rule="evenodd"
       stroke="#fff"
       stroke-linecap="round"
       stroke-miterlimit="105.678"
       stroke-width=".916"
       d="m111.57639 542.0632l0 -2.7015991"
       id="path39" />
    <path
       fill="#000"
       fill-opacity="0"
       fill-rule="evenodd"
       d="m115.031044 542.0632l0 -2.7015991"
       id="path40" />
    <path
       fill-rule="evenodd"
       stroke="#fff"
       stroke-linecap="round"
       stroke-miterlimit="105.678"
       stroke-width=".916"
       d="m115.031044 542.0632l0 -2.7015991"
       id="path41" />
    <path
       fill="#000"
       fill-opacity="0"
       fill-rule="evenodd"
       d="m105.95527 537.2347l-2.6300278 0"
       id="path42" />
    <path
       fill-rule="evenodd"
       stroke="#fff"
       stroke-linecap="round"
       stroke-miterlimit="105.678"
       stroke-width=".916"
       d="m105.95527 537.2347l-2.6300278 0"
       id="path43" />
    <path
       fill="#000"
       fill-opacity="0"
       fill-rule="evenodd"
       d="m105.95527 533.75696l-2.6300278 0"
       id="path44" />
    <path
       fill-rule="evenodd"
       stroke="#fff"
       stroke-linecap="round"
       stroke-miterlimit="105.678"
       stroke-width=".916"
       d="m105.95527 533.75696l-2.6300278 0"
       id="path45" />
    <path
       fill="#000"
       fill-opacity="0"
       fill-rule="evenodd"
       d="m105.95527 530.2793l-2.6300278 0"
       id="path46" />
    <path
       fill-rule="evenodd"
       stroke="#fff"
       stroke-linecap="round"
       stroke-miterlimit="105.678"
       stroke-width=".916"
       d="m105.95527 530.2793l-2.6300278 0"
       id="path47" />
    <path
       fill="#000"
       fill-opacity="0"
       fill-rule="evenodd"
       d="m119.82266 537.2347l-2.6788177 0"
       id="path48" />
    <path
       fill-rule="evenodd"
       stroke="#fff"
       stroke-linecap="round"
       stroke-miterlimit="105.678"
       stroke-width=".916"
       d="m119.82266 537.2347l-2.6788177 0"
       id="path49" />
    <path
       fill="#000"
       fill-opacity="0"
       fill-rule="evenodd"
       d="m119.82266 533.75696l-2.6788177 0"
       id="path50" />
    <path
       fill-rule="evenodd"
       stroke="#fff"
       stroke-linecap="round"
       stroke-miterlimit="105.678"
       stroke-width=".916"
       d="m119.82266 533.75696l-2.6788177 0"
       id="path51" />
    <path
       fill="#000"
       fill-opacity="0"
       fill-rule="evenodd"
       d="m119.82266 530.2793l-2.6788177 0"
       id="path52" />
    <path
       fill-rule="evenodd"
       stroke="#fff"
       stroke-linecap="round"
       stroke-miterlimit="105.678"
       stroke-width=".916"
       d="m119.82266 530.2793l-2.6788177 0"
       id="path53" />
    <path
       fill="#fff"
       fill-rule="evenodd"
       d="m110.85423 531.16345l-0.36107635 0.0491333l-0.61968994 0.26031494l-0.46354675 0.46661377l-0.2586136 0.62384033l0 0.3635254l0 1.4539185l0 0.3635254l0.2586136 0.6237793l0.46354675 0.4666748l0.61968994 0.25543213l2.1615982 0l0.61968994 -0.25543213l0.46354675 -0.4666748l0.25860596 -0.6237793l0 -0.3635254l0 -1.4539185l0 -0.3635254l-0.25860596 -0.62384033l-0.46354675 -0.46661377l-0.61968994 -0.26031494l-0.36108398 -0.0491333z"
       id="path54" />
    <path
       fill="#000"
       fill-opacity="0"
       fill-rule="evenodd"
       d="m157.41301 510.3947l103.622055 -87.590546"
       id="path55" />
    <path
       fill-rule="evenodd"
       stroke="#46f"
       stroke-dasharray="8 6"
       stroke-linecap="butt"
       stroke-linejoin="round"
       stroke-width="2"
       d="m157.41301 510.3947l98.387405 -83.1658"
       id="path56" />
    <path
       fill="#46f"
       fill-rule="evenodd"
       stroke="#46f"
       stroke-linecap="butt"
       stroke-width="2"
       d="m255.80043 427.22894l-0.26574707 3.1696777l3.2674103 -5.70697l-6.171341 2.2715454z"
       id="path57" />
    <path
       fill="#000"
       fill-opacity="0"
       fill-rule="evenodd"
       d="m492.71652 218.2009l0 0c0 -36.161606 29.314789 -65.47638 65.47641 -65.47638l261.89764 0l0 0c17.365417 0 34.019592 6.8983765 46.298767 19.177582c12.279175 12.279205 19.177612 28.93338 19.177612 46.298798l0 337.04727c0 36.16156 -29.31482 65.47632 -65.47638 65.47632l-261.89764 0c-36.16162 0 -65.47641 -29.314758 -65.47641 -65.47632z"
       id="path58" />
    <path
       fill-rule="evenodd"
       stroke="#ff6400"
       stroke-linecap="butt"
       stroke-linejoin="round"
       stroke-width="2"
       d="m492.71652 218.2009l0 0c0 -36.161606 29.314789 -65.47638 65.47641 -65.47638l261.89764 0l0 0c17.365417 0 34.019592 6.8983765 46.298767 19.177582c12.279175 12.279205 19.177612 28.93338 19.177612 46.298798l0 337.04727c0 36.16156 -29.31482 65.47632 -65.47638 65.47632l-261.89764 0c-36.16162 0 -65.47641 -29.314758 -65.47641 -65.47632z"
       id="path59" />
    <path
       fill="#e6e6e6"
       fill-rule="evenodd"
       d="m295.50223 502.6105l-0.64071655 0.05404663l-1.1654358 0.36346436l-0.8359375 0.72698975l-0.51867676 0.9332886l-0.06100464 0.5157471l0 57.10211l0.06100464 0.5206909l0.51867676 0.9332886l0.8359375 0.7269287l1.1654358 0.3635254l0.64071655 0.0491333l138.57245 0l0.64682007 -0.0491333l1.1593323 -0.3635254l0.9030762 -0.7269287l0.4515381 -0.9332886l0.067108154 -0.5206909l0 -57.10211l-0.067108154 -0.5157471l-0.4515381 -0.9332886l-0.9030762 -0.72698975l-1.1593323 -0.36346436l-0.64682007 -0.05404663z"
       id="path60" />
    <path
       fill="#fff"
       fill-rule="evenodd"
       d="m302.13318 510.3947l125.0459 0l0 46.74469l-125.0459 0z"
       id="path61" />
    <path
       fill="#000"
       fill-rule="nonzero"
       d="m355.55933 539.8771q-0.875 0 -1.6875 -0.359375q-0.796875 -0.359375 -1.421875 -1.046875q-0.625 -0.703125 -0.890625 -1.6875l1.296875 -0.53125q0.265625 1.015625 1.0 1.671875q0.734375 0.65625 1.734375 0.65625q0.984375 0 1.671875 -0.53125q0.6875 -0.53125 0.6875 -1.46875q0 -0.796875 -0.578125 -1.3125q-0.578125 -0.515625 -1.90625 -0.96875l-0.734375 -0.25q-1.203125 -0.4375 -1.984375 -1.140625q-0.765625 -0.703125 -0.765625 -1.953125q0 -0.8125 0.453125 -1.5q0.453125 -0.703125 1.25 -1.125q0.796875 -0.421875 1.796875 -0.421875q0.984375 0 1.71875 0.375q0.734375 0.375 1.171875 0.90625q0.453125 0.515625 0.625 1.03125l-1.265625 0.546875q-0.171875 -0.59375 -0.75 -1.078125q-0.5625 -0.484375 -1.484375 -0.484375q-0.890625 0 -1.515625 0.5q-0.625 0.5 -0.625 1.25q0 0.671875 0.53125 1.09375q0.53125 0.421875 1.609375 0.796875l0.75 0.25q1.453125 0.53125 2.265625 1.328125q0.8125 0.78125 0.8125 2.140625q0 1.109375 -0.5625 1.859375q-0.5625 0.75 -1.4375 1.109375q-0.859375 0.34375 -1.765625 0.34375zm9.148254 0q-1.171875 0 -2.109375 -0.546875q-0.921875 -0.5625 -1.4375 -1.546875q-0.515625 -0.984375 -0.515625 -2.21875q0 -1.171875 0.484375 -2.171875q0.484375 -1.0 1.390625 -1.59375q0.90625 -0.59375 2.078125 -0.59375q1.203125 0 2.078125 0.546875q0.875 0.53125 1.34375 1.484375q0.484375 0.9375 0.484375 2.15625q0 0.1875 -0.03125 0.40625l-6.46875 0q0.046875 0.9375 0.4375 1.578125q0.40625 0.640625 1.015625 0.96875q0.625 0.3125 1.296875 0.3125q1.59375 0 2.421875 -1.484375l1.140625 0.5625q-0.5 0.984375 -1.421875 1.5625q-0.90625 0.578125 -2.1875 0.578125zm2.34375 -5.1875q-0.03125 -0.515625 -0.28125 -1.03125q-0.25 -0.515625 -0.796875 -0.859375q-0.546875 -0.359375 -1.375 -0.359375q-0.96875 0 -1.640625 0.625q-0.671875 0.609375 -0.875 1.625l4.96875 0zm3.0392761 -3.21875l1.28125 0l0 1.3125l0.078125 0q0.234375 -0.671875 0.921875 -1.109375q0.6875 -0.453125 1.4375 -0.453125q0.5625 0 0.96875 0.171875l0 1.46875q-0.515625 -0.265625 -1.15625 -0.265625q-0.59375 0 -1.09375 0.34375q-0.5 0.328125 -0.796875 0.90625q-0.28125 0.5625 -0.28125 1.21875l0 4.5625l-1.359375 0l0 -8.15625zm5.365753 0l1.453125 0l2.53125 6.5625l0.03125 0l2.5625 -6.5625l1.421875 0l-3.328125 8.15625l-1.375 0l-3.296875 -8.15625zm9.927155 -1.5q-0.40625 0 -0.703125 -0.28125q-0.28125 -0.296875 -0.28125 -0.703125q0 -0.421875 0.28125 -0.6875q0.296875 -0.28125 0.703125 -0.28125q0.40625 0 0.6875 0.28125q0.28125 0.265625 0.28125 0.6875q0 0.40625 -0.28125 0.703125q-0.28125 0.28125 -0.6875 0.28125zm-0.671875 1.5l1.359375 0l0 8.15625l-1.359375 0l0 -8.15625zm7.0985107 8.40625q-1.1875 0 -2.140625 -0.5625q-0.9375 -0.5625 -1.46875 -1.546875q-0.515625 -0.984375 -0.515625 -2.21875q0 -1.234375 0.515625 -2.21875q0.53125 -1.0 1.46875 -1.5625q0.953125 -0.5625 2.140625 -0.5625q1.328125 0 2.234375 0.625q0.90625 0.609375 1.28125 1.640625l-1.234375 0.515625q-0.296875 -0.765625 -0.90625 -1.15625q-0.59375 -0.390625 -1.4375 -0.390625q-0.71875 0 -1.34375 0.390625q-0.625 0.390625 -1.0 1.109375q-0.375 0.703125 -0.375 1.609375q0 0.90625 0.375 1.609375q0.375 0.703125 1.0 1.109375q0.625 0.390625 1.34375 0.390625q0.859375 0 1.484375 -0.40625q0.625 -0.40625 0.9375 -1.140625l1.203125 0.515625q-0.40625 1.015625 -1.328125 1.640625q-0.921875 0.609375 -2.234375 0.609375zm8.593506 0q-1.171875 0 -2.109375 -0.546875q-0.921875 -0.5625 -1.4375 -1.546875q-0.515625 -0.984375 -0.515625 -2.21875q0 -1.171875 0.484375 -2.171875q0.484375 -1.0 1.390625 -1.59375q0.90625 -0.59375 2.078125 -0.59375q1.203125 0 2.078125 0.546875q0.875 0.53125 1.34375 1.484375q0.484375 0.9375 0.484375 2.15625q0 0.1875 -0.03125 0.40625l-6.46875 0q0.046875 0.9375 0.4375 1.578125q0.40625 0.640625 1.015625 0.96875q0.625 0.3125 1.296875 0.3125q1.59375 0 2.421875 -1.484375l1.140625 0.5625q-0.5 0.984375 -1.421875 1.5625q-0.90625 0.578125 -2.1875 0.578125zm2.34375 -5.1875q-0.03125 -0.515625 -0.28125 -1.03125q-0.25 -0.515625 -0.796875 -0.859375q-0.546875 -0.359375 -1.375 -0.359375q-0.96875 0 -1.640625 0.625q-0.671875 0.609375 -0.875 1.625l4.96875 0zm2.0236511 4.9375l0 0zm4.9932556 -11.453125l4.109375 0q0.859375 0 1.625 0.40625q0.765625 0.390625 1.203125 1.09375q0.453125 0.703125 0.453125 1.578125q0 0.84375 -0.421875 1.46875q-0.421875 0.625 -1.140625 0.953125l0 0.0625q0.859375 0.296875 1.40625 1.0q0.546875 0.703125 0.546875 1.640625q0 0.9375 -0.484375 1.6875q-0.46875 0.734375 -1.265625 1.15625q-0.78125 0.40625 -1.703125 0.40625l-4.328125 0l0 -11.453125zm4.109375 4.9375q0.578125 0 1.015625 -0.265625q0.4375 -0.265625 0.671875 -0.6875q0.25 -0.421875 0.25 -0.875q0 -0.421875 -0.234375 -0.84375q-0.234375 -0.421875 -0.65625 -0.6875q-0.421875 -0.28125 -0.984375 -0.28125l-2.8125 0l0 3.640625l2.75 0zm0.3125 5.21875q0.5625 0 1.015625 -0.28125q0.46875 -0.296875 0.71875 -0.75q0.25 -0.453125 0.25 -0.9375q0 -0.484375 -0.265625 -0.9375q-0.25 -0.453125 -0.71875 -0.734375q-0.46875 -0.28125 -1.078125 -0.28125l-2.984375 0l0 3.921875l3.0625 0z"
       id="path62" />
    <path
       fill="#767576"
       fill-rule="evenodd"
       d="m318.81952 518.1859l-1.6004639 0.0491333l-3.0447693 0.62384033l-2.7325134 1.1936035l-2.473877 1.6602783l-2.112793 2.126892l-1.6492615 2.4953003l-1.1856995 2.7507324l-0.61968994 3.0601807l-0.05368042 1.611084l0.05368042 1.611145l0.61968994 3.0061646l1.1856995 2.8047485l1.6492615 2.4904175l2.112793 2.131775l2.473877 1.6602783l2.7325134 1.1936035l3.0447693 0.62384033l1.6004639 0.0491333l1.595581 -0.0491333l2.9910889 -0.62384033l2.7861633 -1.1936035l2.473877 -1.6602783l2.1128235 -2.131775l1.6492615 -2.4904175l1.1856995 -2.8047485l0.61968994 -3.0061646l0.05368042 -1.611145l-0.05368042 -1.611084l-0.61968994 -3.0601807l-1.1856995 -2.7507324l-1.6492615 -2.4953003l-2.1128235 -2.126892l-2.473877 -1.6602783l-2.7861633 -1.1936035l-2.9910889 -0.62384033l-1.595581 -0.0491333z"
       id="path63" />
    <path
       fill="#000"
       fill-opacity="0"
       fill-rule="evenodd"
       d="m324.2845 539.1553l-10.983643 0l0 -11.056946l10.983643 0l0 11.056946z"
       id="path64" />
    <path
       fill-rule="evenodd"
       stroke="#fff"
       stroke-linecap="butt"
       stroke-linejoin="round"
       stroke-width=".916"
       d="m324.2845 539.1553l-10.983643 0l0 -11.056946l10.983643 0l0 11.056946z"
       id="path65" />
    <path
       fill="#000"
       fill-opacity="0"
       fill-rule="evenodd"
       d="m315.36 528.0983l0 -2.647522"
       id="path66" />
    <path
       fill-rule="evenodd"
       stroke="#fff"
       stroke-linecap="round"
       stroke-miterlimit="105.678"
       stroke-width=".916"
       d="m315.36 528.0983l0 -2.647522"
       id="path67" />
    <path
       fill="#000"
       fill-opacity="0"
       fill-rule="evenodd"
       d="m318.81952 528.0983l0 -2.647522"
       id="path68" />
    <path
       fill-rule="evenodd"
       stroke="#fff"
       stroke-linecap="round"
       stroke-miterlimit="105.678"
       stroke-width=".916"
       d="m318.81952 528.0983l0 -2.647522"
       id="path69" />
    <path
       fill="#000"
       fill-opacity="0"
       fill-rule="evenodd"
       d="m322.27417 528.0983l0 -2.647522"
       id="path70" />
    <path
       fill-rule="evenodd"
       stroke="#fff"
       stroke-linecap="round"
       stroke-miterlimit="105.678"
       stroke-width=".916"
       d="m322.27417 528.0983l0 -2.647522"
       id="path71" />
    <path
       fill="#000"
       fill-opacity="0"
       fill-rule="evenodd"
       d="m315.36 542.0632l0 -2.7015991"
       id="path72" />
    <path
       fill-rule="evenodd"
       stroke="#fff"
       stroke-linecap="round"
       stroke-miterlimit="105.678"
       stroke-width=".916"
       d="m315.36 542.0632l0 -2.7015991"
       id="path73" />
    <path
       fill="#000"
       fill-opacity="0"
       fill-rule="evenodd"
       d="m318.81952 542.0632l0 -2.7015991"
       id="path74" />
    <path
       fill-rule="evenodd"
       stroke="#fff"
       stroke-linecap="round"
       stroke-miterlimit="105.678"
       stroke-width=".916"
       d="m318.81952 542.0632l0 -2.7015991"
       id="path75" />
    <path
       fill="#000"
       fill-opacity="0"
       fill-rule="evenodd"
       d="m322.27417 542.0632l0 -2.7015991"
       id="path76" />
    <path
       fill-rule="evenodd"
       stroke="#fff"
       stroke-linecap="round"
       stroke-miterlimit="105.678"
       stroke-width=".916"
       d="m322.27417 542.0632l0 -2.7015991"
       id="path77" />
    <path
       fill="#000"
       fill-opacity="0"
       fill-rule="evenodd"
       d="m313.1984 537.2347l-2.6300354 0"
       id="path78" />
    <path
       fill-rule="evenodd"
       stroke="#fff"
       stroke-linecap="round"
       stroke-miterlimit="105.678"
       stroke-width=".916"
       d="m313.1984 537.2347l-2.6300354 0"
       id="path79" />
    <path
       fill="#000"
       fill-opacity="0"
       fill-rule="evenodd"
       d="m313.1984 533.75696l-2.6300354 0"
       id="path80" />
    <path
       fill-rule="evenodd"
       stroke="#fff"
       stroke-linecap="round"
       stroke-miterlimit="105.678"
       stroke-width=".916"
       d="m313.1984 533.75696l-2.6300354 0"
       id="path81" />
    <path
       fill="#000"
       fill-opacity="0"
       fill-rule="evenodd"
       d="m313.1984 530.2793l-2.6300354 0"
       id="path82" />
    <path
       fill-rule="evenodd"
       stroke="#fff"
       stroke-linecap="round"
       stroke-miterlimit="105.678"
       stroke-width=".916"
       d="m313.1984 530.2793l-2.6300354 0"
       id="path83" />
    <path
       fill="#000"
       fill-opacity="0"
       fill-rule="evenodd"
       d="m327.0658 537.2347l-2.678833 0"
       id="path84" />
    <path
       fill-rule="evenodd"
       stroke="#fff"
       stroke-linecap="round"
       stroke-miterlimit="105.678"
       stroke-width=".916"
       d="m327.0658 537.2347l-2.678833 0"
       id="path85" />
    <path
       fill="#000"
       fill-opacity="0"
       fill-rule="evenodd"
       d="m327.0658 533.75696l-2.678833 0"
       id="path86" />
    <path
       fill-rule="evenodd"
       stroke="#fff"
       stroke-linecap="round"
       stroke-miterlimit="105.678"
       stroke-width=".916"
       d="m327.0658 533.75696l-2.678833 0"
       id="path87" />
    <path
       fill="#000"
       fill-opacity="0"
       fill-rule="evenodd"
       d="m327.0658 530.2793l-2.678833 0"
       id="path88" />
    <path
       fill-rule="evenodd"
       stroke="#fff"
       stroke-linecap="round"
       stroke-miterlimit="105.678"
       stroke-width=".916"
       d="m327.0658 530.2793l-2.678833 0"
       id="path89" />
    <path
       fill="#fff"
       fill-rule="evenodd"
       d="m318.09735 531.16345l-0.36108398 0.0491333l-0.61968994 0.26031494l-0.4635315 0.46661377l-0.25860596 0.62384033l0 0.3635254l0 1.4539185l0 0.3635254l0.25860596 0.6237793l0.4635315 0.4666748l0.61968994 0.25543213l2.1615906 0l0.61968994 -0.25543213l0.463562 -0.4666748l0.25860596 -0.6237793l0 -0.3635254l0 -1.4539185l0 -0.3635254l-0.25860596 -0.62384033l-0.463562 -0.46661377l-0.61968994 -0.26031494l-0.36105347 -0.0491333z"
       id="path90" />
    <path
       fill="#000"
       fill-opacity="0"
       fill-rule="evenodd"
       d="m364.65613 510.3947l-107.24411 -87.590546"
       id="path91" />
    <path
       fill-rule="evenodd"
       stroke="#46f"
       stroke-dasharray="8 6"
       stroke-linecap="butt"
       stroke-linejoin="round"
       stroke-width="2"
       d="m364.65613 510.3947l-101.93552 -83.25479"
       id="path92" />
    <path
       fill="#46f"
       fill-rule="evenodd"
       stroke="#46f"
       stroke-linecap="butt"
       stroke-width="2"
       d="m262.7206 427.13992l3.1647644 -0.31924438l-6.208832 -2.1669922l3.3633118 5.6509705z"
       id="path93" />
    <path
       fill="#000"
       fill-opacity="0"
       fill-rule="evenodd"
       d="m229.63835 535.02625l63.149612 0"
       id="path94" />
    <path
       fill-rule="evenodd"
       stroke="#008200"
       stroke-linecap="butt"
       stroke-linejoin="round"
       stroke-width="2"
       d="m229.63835 535.0262l51.149612 0"
       id="path95" />
    <path
       fill="#008200"
       fill-rule="evenodd"
       stroke="#008200"
       stroke-linecap="butt"
       stroke-width="2"
       d="m280.78796 538.32965l9.076172 -3.3034668l-9.076172 -3.3034668z"
       id="path96" />
    <path
       fill="#000"
       fill-opacity="0"
       fill-rule="evenodd"
       d="m492.71567 123.31l154.11026 0l0 50.614166l-154.11026 0z"
       id="path97" />
    <path
       fill="#e6e6e6"
       fill-rule="evenodd"
       d="m616.8313 183.26585l127.564575 0l0 88.55434l-127.564575 0z"
       id="path99" />
    <path
       fill="#fff"
       fill-rule="evenodd"
       d="m623.326 193.10632l112.417175 0l0 67.47186l-112.417175 0z"
       id="path100" />
    <path
       fill="#e6e6e6"
       fill-rule="evenodd"
       d="m619.66534 339.53754l-0.5635376 0.07098389l-1.0252075 0.4776001l-0.73535156 0.95513916l-0.4562378 1.2261963l-0.053710938 0.68411255l0 75.017975l0.053710938 0.68408203l0.4562378 1.2262268l0.73535156 0.95513916l1.0252075 0.47756958l0.5635376 0.071014404l121.90161 0l0.56359863 -0.071014404l1.0198364 -0.47756958l0.74072266 -0.95513916l0.4508667 -1.2262268l0.059020996 -0.68408203l0 -75.017975l-0.059020996 -0.68411255l-0.4508667 -1.2261963l-0.74072266 -0.95513916l-1.0198364 -0.4776001l-0.56359863 -0.07098389z"
       id="path102" />
    <path
       fill="#fff"
       fill-rule="evenodd"
       d="m628.17285 349.7667l-0.6226196 0.07098389l-1.0198364 0.47756958l-0.73535156 0.95513916l-0.4562378 1.2262268l0 0.68408203l0 54.559723l0 0.68408203l0.4562378 1.2261963l0.73535156 0.9551697l1.0198364 0.47756958l0.6226196 0.06454468l104.94031 0l0.5689697 -0.06454468l1.0197754 -0.47756958l0.73535156 -0.9551697l0.4562378 -1.2261963l0.053710938 -0.68408203l0 -54.559723l-0.053710938 -0.68408203l-0.4562378 -1.2262268l-0.73535156 -0.95513916l-1.0197754 -0.47756958l-0.5689697 -0.07098389z"
       id="path103" />
    <path
       fill="#466bb0"
       fill-rule="evenodd"
       d="m638.3282 398.05338l9.758179 5.8664246l16.220642 -5.8664246z"
       id="path104" />
    <path
       fill="#466bb0"
       fill-rule="evenodd"
       d="m648.08636 372.6193l-9.758179 23.459259l9.758179 -1.9812927l0 -21.477966z"
       id="path105" />
    <path
       fill="#476baf"
       fill-rule="evenodd"
       d="m649.6752 357.00128l0 37.095978l14.631836 1.9812927l-14.631836 -39.07727z"
       id="path106" />
    <path
       fill="#000"
       fill-opacity="0"
       fill-rule="evenodd"
       d="m656.3408 363.46146l79.6037 0l0 33.992554l-79.6037 0z"
       id="path107" />
    <path
       fill="#000"
       fill-rule="nonzero"
       d="m677.3999 374.86462l1.359375 0l0 11.453125l-1.359375 0l0 -11.453125zm6.498108 11.703125q-1.3125 0 -2.203125 -0.609375q-0.875 -0.609375 -1.234375 -1.578125l1.203125 -0.546875q0.3125 0.734375 0.90625 1.140625q0.609375 0.40625 1.328125 0.40625q0.765625 0 1.3125 -0.3125q0.546875 -0.3125 0.546875 -0.890625q0 -0.515625 -0.4375 -0.828125q-0.4375 -0.3125 -1.359375 -0.53125l-1.0 -0.265625q-0.96875 -0.234375 -1.59375 -0.8125q-0.625 -0.578125 -0.625 -1.484375q0 -0.703125 0.421875 -1.234375q0.421875 -0.546875 1.125 -0.828125q0.703125 -0.296875 1.53125 -0.296875q1.0625 0 1.90625 0.46875q0.84375 0.46875 1.1875 1.296875l-1.171875 0.546875q-0.546875 -1.09375 -1.9375 -1.09375q-0.671875 0 -1.1875 0.3125q-0.5 0.3125 -0.5 0.796875q0 0.453125 0.34375 0.734375q0.359375 0.265625 1.0625 0.453125l1.1875 0.296875q1.203125 0.3125 1.8125 0.90625q0.609375 0.59375 0.609375 1.46875q0 0.75 -0.4375 1.3125q-0.4375 0.5625 -1.171875 0.875q-0.734375 0.296875 -1.625 0.296875zm7.769287 -0.125q-0.5 0 -0.921875 -0.15625q-0.421875 -0.15625 -0.703125 -0.4375q-0.640625 -0.609375 -0.640625 -1.671875l0 -4.78125l-1.421875 0l0 -1.234375l1.421875 0l0 -2.3125l1.359375 0l0 2.3125l2.0 0l0 1.234375l-2.0 0l0 4.4375q0 0.671875 0.25 1.0q0.3125 0.34375 0.890625 0.34375q0.484375 0 0.890625 -0.265625l0 1.328125q-0.234375 0.109375 -0.484375 0.15625q-0.25 0.046875 -0.640625 0.046875zm3.6079102 -9.78125q-0.40625 0 -0.703125 -0.28125q-0.28125 -0.296875 -0.28125 -0.703125q0 -0.421875 0.28125 -0.6875q0.296875 -0.28125 0.703125 -0.28125q0.40625 0 0.6875 0.28125q0.28125 0.265625 0.28125 0.6875q0 0.40625 -0.28125 0.703125q-0.28125 0.28125 -0.6875 0.28125zm-0.671875 1.5l1.359375 0l0 8.15625l-1.359375 0l0 -8.15625zm7.1610107 8.40625q-1.203125 0 -2.171875 -0.5625q-0.953125 -0.578125 -1.484375 -1.5625q-0.53125 -1.0 -0.53125 -2.203125q0 -1.203125 0.53125 -2.1875q0.53125 -1.0 1.484375 -1.578125q0.96875 -0.578125 2.171875 -0.578125q1.203125 0 2.15625 0.578125q0.96875 0.578125 1.5 1.578125q0.53125 0.984375 0.53125 2.1875q0 1.203125 -0.53125 2.203125q-0.53125 0.984375 -1.5 1.5625q-0.953125 0.5625 -2.15625 0.5625zm0 -1.21875q0.75 0 1.390625 -0.375q0.65625 -0.390625 1.046875 -1.09375q0.390625 -0.703125 0.390625 -1.640625q0 -0.953125 -0.390625 -1.65625q-0.390625 -0.703125 -1.046875 -1.078125q-0.640625 -0.375 -1.390625 -0.375q-0.75 0 -1.40625 0.375q-0.65625 0.375 -1.046875 1.078125q-0.390625 0.703125 -0.390625 1.65625q0 0.9375 0.390625 1.640625q0.390625 0.703125 1.046875 1.09375q0.65625 0.375 1.40625 0.375zm9.254761 1.21875q-1.109375 0 -2.0 -0.546875q-0.890625 -0.5625 -1.40625 -1.546875q-0.5 -0.984375 -0.5 -2.234375q0 -1.234375 0.5 -2.21875q0.515625 -1.0 1.40625 -1.5625q0.890625 -0.5625 2.0 -0.5625q0.921875 0 1.65625 0.4375q0.734375 0.421875 1.125 1.046875l0.0625 0l-0.0625 -1.140625l0 -3.375l1.359375 0l0 11.453125l-1.296875 0l0 -1.203125l-0.0625 0q-0.390625 0.609375 -1.125 1.03125q-0.734375 0.421875 -1.65625 0.421875zm0.140625 -1.21875q0.71875 0 1.328125 -0.390625q0.625 -0.390625 1.0 -1.09375q0.375 -0.703125 0.375 -1.625q0 -0.9375 -0.375 -1.640625q-0.375 -0.703125 -1.0 -1.078125q-0.609375 -0.390625 -1.328125 -0.390625q-0.703125 0 -1.328125 0.390625q-0.625 0.375 -1.0 1.09375q-0.375 0.71875 -0.375 1.625q0 0.90625 0.375 1.625q0.375 0.703125 1.0 1.09375q0.625 0.390625 1.328125 0.390625z"
       id="path108" />
    <path
       fill="#000"
       fill-opacity="0"
       fill-rule="evenodd"
       d="m680.1412 340.48163l0.4724121 -68.66144"
       id="path109" />
    <path
       fill-rule="evenodd"
       stroke="#46f"
       stroke-dasharray="8 6"
       stroke-linecap="butt"
       stroke-linejoin="round"
       stroke-width="2"
       d="m680.1412 340.4816l0.42529297 -61.807404"
       id="path110" />
    <path
       fill="#46f"
       fill-rule="evenodd"
       stroke="#46f"
       stroke-linecap="butt"
       stroke-width="2"
       d="m680.56647 278.6742l2.2335815 2.2645874l-2.206543 -6.1948547l-2.291687 6.16391z"
       id="path111" />
    <path
       fill="#e6e6e6"
       fill-rule="evenodd"
       d="m511.75592 502.6105l-0.64071655 0.05404663l-1.1654358 0.36346436l-0.835968 0.72698975l-0.51864624 0.9332886l-0.06100464 0.5157471l0 57.10211l0.06100464 0.5206909l0.51864624 0.9332886l0.835968 0.7269287l1.1654358 0.3635254l0.64071655 0.0491333l138.57245 0l0.64678955 -0.0491333l1.1593628 -0.3635254l0.9030762 -0.7269287l0.4515381 -0.9332886l0.06713867 -0.5206909l0 -57.10211l-0.06713867 -0.5157471l-0.4515381 -0.9332886l-0.9030762 -0.72698975l-1.1593628 -0.36346436l-0.64678955 -0.05404663z"
       id="path112" />
    <path
       fill="#fff"
       fill-rule="evenodd"
       d="m518.38684 510.3947l125.0459 0l0 46.74469l-125.0459 0z"
       id="path113" />
    <path
       fill="#000"
       fill-rule="nonzero"
       d="m571.269 539.8771q-0.875 0 -1.6875 -0.359375q-0.796875 -0.359375 -1.421875 -1.046875q-0.625 -0.703125 -0.890625 -1.6875l1.296875 -0.53125q0.265625 1.015625 1.0 1.671875q0.734375 0.65625 1.734375 0.65625q0.984375 0 1.671875 -0.53125q0.6875 -0.53125 0.6875 -1.46875q0 -0.796875 -0.578125 -1.3125q-0.578125 -0.515625 -1.90625 -0.96875l-0.734375 -0.25q-1.203125 -0.4375 -1.984375 -1.140625q-0.765625 -0.703125 -0.765625 -1.953125q0 -0.8125 0.453125 -1.5q0.453125 -0.703125 1.25 -1.125q0.796875 -0.421875 1.796875 -0.421875q0.984375 0 1.71875 0.375q0.734375 0.375 1.171875 0.90625q0.453125 0.515625 0.625 1.03125l-1.265625 0.546875q-0.171875 -0.59375 -0.75 -1.078125q-0.5625 -0.484375 -1.484375 -0.484375q-0.890625 0 -1.515625 0.5q-0.625 0.5 -0.625 1.25q0 0.671875 0.53125 1.09375q0.53125 0.421875 1.609375 0.796875l0.75 0.25q1.453125 0.53125 2.265625 1.328125q0.8125 0.78125 0.8125 2.140625q0 1.109375 -0.5625 1.859375q-0.5625 0.75 -1.4375 1.109375q-0.859375 0.34375 -1.765625 0.34375zm9.148315 0q-1.171875 0 -2.109375 -0.546875q-0.921875 -0.5625 -1.4375 -1.546875q-0.515625 -0.984375 -0.515625 -2.21875q0 -1.171875 0.484375 -2.171875q0.484375 -1.0 1.390625 -1.59375q0.90625 -0.59375 2.078125 -0.59375q1.203125 0 2.078125 0.546875q0.875 0.53125 1.34375 1.484375q0.484375 0.9375 0.484375 2.15625q0 0.1875 -0.03125 0.40625l-6.46875 0q0.046875 0.9375 0.4375 1.578125q0.40625 0.640625 1.015625 0.96875q0.625 0.3125 1.296875 0.3125q1.59375 0 2.421875 -1.484375l1.140625 0.5625q-0.5 0.984375 -1.421875 1.5625q-0.90625 0.578125 -2.1875 0.578125zm2.34375 -5.1875q-0.03125 -0.515625 -0.28125 -1.03125q-0.25 -0.515625 -0.796875 -0.859375q-0.546875 -0.359375 -1.375 -0.359375q-0.96875 0 -1.640625 0.625q-0.671875 0.609375 -0.875 1.625l4.96875 0zm3.0392456 -3.21875l1.28125 0l0 1.3125l0.078125 0q0.234375 -0.671875 0.921875 -1.109375q0.6875 -0.453125 1.4375 -0.453125q0.5625 0 0.96875 0.171875l0 1.46875q-0.515625 -0.265625 -1.15625 -0.265625q-0.59375 0 -1.09375 0.34375q-0.5 0.328125 -0.796875 0.90625q-0.28125 0.5625 -0.28125 1.21875l0 4.5625l-1.359375 0l0 -8.15625zm5.3657837 0l1.453125 0l2.53125 6.5625l0.03125 0l2.5625 -6.5625l1.421875 0l-3.328125 8.15625l-1.375 0l-3.296875 -8.15625zm9.927124 -1.5q-0.40625 0 -0.703125 -0.28125q-0.28125 -0.296875 -0.28125 -0.703125q0 -0.421875 0.28125 -0.6875q0.296875 -0.28125 0.703125 -0.28125q0.40625 0 0.6875 0.28125q0.28125 0.265625 0.28125 0.6875q0 0.40625 -0.28125 0.703125q-0.28125 0.28125 -0.6875 0.28125zm-0.671875 1.5l1.359375 0l0 8.15625l-1.359375 0l0 -8.15625zm7.0985107 8.40625q-1.1875 0 -2.140625 -0.5625q-0.9375 -0.5625 -1.46875 -1.546875q-0.515625 -0.984375 -0.515625 -2.21875q0 -1.234375 0.515625 -2.21875q0.53125 -1.0 1.46875 -1.5625q0.953125 -0.5625 2.140625 -0.5625q1.328125 0 2.234375 0.625q0.90625 0.609375 1.28125 1.640625l-1.234375 0.515625q-0.296875 -0.765625 -0.90625 -1.15625q-0.59375 -0.390625 -1.4375 -0.390625q-0.71875 0 -1.34375 0.390625q-0.625 0.390625 -1.0 1.109375q-0.375 0.703125 -0.375 1.609375q0 0.90625 0.375 1.609375q0.375 0.703125 1.0 1.109375q0.625 0.390625 1.34375 0.390625q0.859375 0 1.484375 -0.40625q0.625 -0.40625 0.9375 -1.140625l1.203125 0.515625q-0.40625 1.015625 -1.328125 1.640625q-0.921875 0.609375 -2.234375 0.609375zm8.593506 0q-1.171875 0 -2.109375 -0.546875q-0.921875 -0.5625 -1.4375 -1.546875q-0.515625 -0.984375 -0.515625 -2.21875q0 -1.171875 0.484375 -2.171875q0.484375 -1.0 1.390625 -1.59375q0.90625 -0.59375 2.078125 -0.59375q1.203125 0 2.078125 0.546875q0.875 0.53125 1.34375 1.484375q0.484375 0.9375 0.484375 2.15625q0 0.1875 -0.03125 0.40625l-6.46875 0q0.046875 0.9375 0.4375 1.578125q0.40625 0.640625 1.015625 0.96875q0.625 0.3125 1.296875 0.3125q1.59375 0 2.421875 -1.484375l1.140625 0.5625q-0.5 0.984375 -1.421875 1.5625q-0.90625 0.578125 -2.1875 0.578125zm2.34375 -5.1875q-0.03125 -0.515625 -0.28125 -1.03125q-0.25 -0.515625 -0.796875 -0.859375q-0.546875 -0.359375 -1.375 -0.359375q-0.96875 0 -1.640625 0.625q-0.671875 0.609375 -0.875 1.625l4.96875 0zm2.0236206 4.9375l0 0zm7.8258057 -11.453125l1.53125 0l4.359375 11.453125l-1.5 0l-1.140625 -3.15625l-4.96875 0l-1.140625 3.15625l-1.5 0l4.359375 -11.453125zm2.78125 7.015625l-1.53125 -4.125l-0.453125 -1.234375l-0.0625 0l-0.453125 1.234375l-1.53125 4.125l4.03125 0z"
       id="path114" />
    <path
       fill="#767576"
       fill-rule="evenodd"
       d="m535.0732 518.1859l-1.6004639 0.0491333l-3.0447388 0.62384033l-2.732483 1.1936035l-2.473877 1.6602783l-2.112854 2.126892l-1.649231 2.4953003l-1.18573 2.7507324l-0.61968994 3.0601807l-0.053649902 1.611084l0.053649902 1.611145l0.61968994 3.0061646l1.18573 2.8047485l1.649231 2.4904175l2.112854 2.131775l2.473877 1.6602783l2.732483 1.1936035l3.0447388 0.62384033l1.6004639 0.0491333l1.595581 -0.0491333l2.99115 -0.62384033l2.7861328 -1.1936035l2.473877 -1.6602783l2.112793 -2.131775l1.649292 -2.4904175l1.185669 -2.8047485l0.61968994 -3.0061646l0.053710938 -1.611145l-0.053710938 -1.611084l-0.61968994 -3.0601807l-1.185669 -2.7507324l-1.649292 -2.4953003l-2.112793 -2.126892l-2.473877 -1.6602783l-2.7861328 -1.1936035l-2.99115 -0.62384033l-1.595581 -0.0491333z"
       id="path115" />
    <path
       fill="#000"
       fill-opacity="0"
       fill-rule="evenodd"
       d="m540.5382 539.1553l-10.983643 0l0 -11.056946l10.983643 0l0 11.056946z"
       id="path116" />
    <path
       fill-rule="evenodd"
       stroke="#fff"
       stroke-linecap="butt"
       stroke-linejoin="round"
       stroke-width=".916"
       d="m540.5382 539.1553l-10.983643 0l0 -11.056946l10.983643 0l0 11.056946z"
       id="path117" />
    <path
       fill="#000"
       fill-opacity="0"
       fill-rule="evenodd"
       d="m531.61365 528.0983l0 -2.647522"
       id="path118" />
    <path
       fill-rule="evenodd"
       stroke="#fff"
       stroke-linecap="round"
       stroke-miterlimit="105.678"
       stroke-width=".916"
       d="m531.61365 528.0983l0 -2.647522"
       id="path119" />
    <path
       fill="#000"
       fill-opacity="0"
       fill-rule="evenodd"
       d="m535.0732 528.0983l0 -2.647522"
       id="path120" />
    <path
       fill-rule="evenodd"
       stroke="#fff"
       stroke-linecap="round"
       stroke-miterlimit="105.678"
       stroke-width=".916"
       d="m535.0732 528.0983l0 -2.647522"
       id="path121" />
    <path
       fill="#000"
       fill-opacity="0"
       fill-rule="evenodd"
       d="m538.52783 528.0983l0 -2.647522"
       id="path122" />
    <path
       fill-rule="evenodd"
       stroke="#fff"
       stroke-linecap="round"
       stroke-miterlimit="105.678"
       stroke-width=".916"
       d="m538.52783 528.0983l0 -2.647522"
       id="path123" />
    <path
       fill="#000"
       fill-opacity="0"
       fill-rule="evenodd"
       d="m531.61365 542.0632l0 -2.7015991"
       id="path124" />
    <path
       fill-rule="evenodd"
       stroke="#fff"
       stroke-linecap="round"
       stroke-miterlimit="105.678"
       stroke-width=".916"
       d="m531.61365 542.0632l0 -2.7015991"
       id="path125" />
    <path
       fill="#000"
       fill-opacity="0"
       fill-rule="evenodd"
       d="m535.0732 542.0632l0 -2.7015991"
       id="path126" />
    <path
       fill-rule="evenodd"
       stroke="#fff"
       stroke-linecap="round"
       stroke-miterlimit="105.678"
       stroke-width=".916"
       d="m535.0732 542.0632l0 -2.7015991"
       id="path127" />
    <path
       fill="#000"
       fill-opacity="0"
       fill-rule="evenodd"
       d="m538.52783 542.0632l0 -2.7015991"
       id="path128" />
    <path
       fill-rule="evenodd"
       stroke="#fff"
       stroke-linecap="round"
       stroke-miterlimit="105.678"
       stroke-width=".916"
       d="m538.52783 542.0632l0 -2.7015991"
       id="path129" />
    <path
       fill="#000"
       fill-opacity="0"
       fill-rule="evenodd"
       d="m529.4521 537.2347l-2.630066 0"
       id="path130" />
    <path
       fill-rule="evenodd"
       stroke="#fff"
       stroke-linecap="round"
       stroke-miterlimit="105.678"
       stroke-width=".916"
       d="m529.4521 537.2347l-2.630066 0"
       id="path131" />
    <path
       fill="#000"
       fill-opacity="0"
       fill-rule="evenodd"
       d="m529.4521 533.75696l-2.630066 0"
       id="path132" />
    <path
       fill-rule="evenodd"
       stroke="#fff"
       stroke-linecap="round"
       stroke-miterlimit="105.678"
       stroke-width=".916"
       d="m529.4521 533.75696l-2.630066 0"
       id="path133" />
    <path
       fill="#000"
       fill-opacity="0"
       fill-rule="evenodd"
       d="m529.4521 530.2793l-2.630066 0"
       id="path134" />
    <path
       fill-rule="evenodd"
       stroke="#fff"
       stroke-linecap="round"
       stroke-miterlimit="105.678"
       stroke-width=".916"
       d="m529.4521 530.2793l-2.630066 0"
       id="path135" />
    <path
       fill="#000"
       fill-opacity="0"
       fill-rule="evenodd"
       d="m543.31946 537.2347l-2.678772 0"
       id="path136" />
    <path
       fill-rule="evenodd"
       stroke="#fff"
       stroke-linecap="round"
       stroke-miterlimit="105.678"
       stroke-width=".916"
       d="m543.31946 537.2347l-2.678772 0"
       id="path137" />
    <path
       fill="#000"
       fill-opacity="0"
       fill-rule="evenodd"
       d="m543.31946 533.75696l-2.678772 0"
       id="path138" />
    <path
       fill-rule="evenodd"
       stroke="#fff"
       stroke-linecap="round"
       stroke-miterlimit="105.678"
       stroke-width=".916"
       d="m543.31946 533.75696l-2.678772 0"
       id="path139" />
    <path
       fill="#000"
       fill-opacity="0"
       fill-rule="evenodd"
       d="m543.31946 530.2793l-2.678772 0"
       id="path140" />
    <path
       fill-rule="evenodd"
       stroke="#fff"
       stroke-linecap="round"
       stroke-miterlimit="105.678"
       stroke-width=".916"
       d="m543.31946 530.2793l-2.678772 0"
       id="path141" />
    <path
       fill="#fff"
       fill-rule="evenodd"
       d="m534.3511 531.16345l-0.36108398 0.0491333l-0.61968994 0.26031494l-0.463562 0.46661377l-0.25860596 0.62384033l0 0.3635254l0 1.4539185l0 0.3635254l0.25860596 0.6237793l0.463562 0.4666748l0.61968994 0.25543213l2.16156 0l0.61968994 -0.25543213l0.463562 -0.4666748l0.25860596 -0.6237793l0 -0.3635254l0 -1.4539185l0 -0.3635254l-0.25860596 -0.62384033l-0.463562 -0.46661377l-0.61968994 -0.26031494l-0.36108398 -0.0491333z"
       id="path142" />
    <path
       fill="#000"
       fill-opacity="0"
       fill-rule="evenodd"
       d="m580.9098 510.3947l100.252014 -87.590546"
       id="path143" />
    <path
       fill-rule="evenodd"
       stroke="#46f"
       stroke-dasharray="8 6"
       stroke-linecap="butt"
       stroke-linejoin="round"
       stroke-width="2"
       d="m580.9098 510.3947l95.09039 -83.08081"
       id="path144" />
    <path
       fill="#46f"
       fill-rule="evenodd"
       stroke="#46f"
       stroke-linecap="butt"
       stroke-width="2"
       d="m676.0002 427.3139l-0.21392822 3.173584l3.173706 -5.7595825l-6.133362 2.3720703z"
       id="path145" />
    <path
       fill="#e6e6e6"
       fill-rule="evenodd"
       d="m718.999 502.6105l-0.64068604 0.05404663l-1.1654663 0.36346436l-0.8359375 0.72698975l-0.51867676 0.9332886l-0.06097412 0.5157471l0 57.10211l0.06097412 0.5206909l0.51867676 0.9332886l0.8359375 0.7269287l1.1654663 0.3635254l0.64068604 0.0491333l138.57245 0l0.6468506 -0.0491333l1.1593018 -0.3635254l0.9030762 -0.7269287l0.4515381 -0.9332886l0.06713867 -0.5206909l0 -57.10211l-0.06713867 -0.5157471l-0.4515381 -0.9332886l-0.9030762 -0.72698975l-1.1593018 -0.36346436l-0.6468506 -0.05404663z"
       id="path146" />
    <path
       fill="#fff"
       fill-rule="evenodd"
       d="m725.63 510.3947l125.0459 0l0 46.74469l-125.0459 0z"
       id="path147" />
    <path
       fill="#000"
       fill-rule="nonzero"
       d="m779.05615 539.8771q-0.875 0 -1.6875 -0.359375q-0.796875 -0.359375 -1.421875 -1.046875q-0.625 -0.703125 -0.890625 -1.6875l1.296875 -0.53125q0.265625 1.015625 1.0 1.671875q0.734375 0.65625 1.734375 0.65625q0.984375 0 1.671875 -0.53125q0.6875 -0.53125 0.6875 -1.46875q0 -0.796875 -0.578125 -1.3125q-0.578125 -0.515625 -1.90625 -0.96875l-0.734375 -0.25q-1.203125 -0.4375 -1.984375 -1.140625q-0.765625 -0.703125 -0.765625 -1.953125q0 -0.8125 0.453125 -1.5q0.453125 -0.703125 1.25 -1.125q0.796875 -0.421875 1.796875 -0.421875q0.984375 0 1.71875 0.375q0.734375 0.375 1.171875 0.90625q0.453125 0.515625 0.625 1.03125l-1.265625 0.546875q-0.171875 -0.59375 -0.75 -1.078125q-0.5625 -0.484375 -1.484375 -0.484375q-0.890625 0 -1.515625 0.5q-0.625 0.5 -0.625 1.25q0 0.671875 0.53125 1.09375q0.53125 0.421875 1.609375 0.796875l0.75 0.25q1.453125 0.53125 2.265625 1.328125q0.8125 0.78125 0.8125 2.140625q0 1.109375 -0.5625 1.859375q-0.5625 0.75 -1.4375 1.109375q-0.859375 0.34375 -1.765625 0.34375zm9.148254 0q-1.171875 0 -2.109375 -0.546875q-0.921875 -0.5625 -1.4375 -1.546875q-0.515625 -0.984375 -0.515625 -2.21875q0 -1.171875 0.484375 -2.171875q0.484375 -1.0 1.390625 -1.59375q0.90625 -0.59375 2.078125 -0.59375q1.203125 0 2.078125 0.546875q0.875 0.53125 1.34375 1.484375q0.484375 0.9375 0.484375 2.15625q0 0.1875 -0.03125 0.40625l-6.46875 0q0.046875 0.9375 0.4375 1.578125q0.40625 0.640625 1.015625 0.96875q0.625 0.3125 1.296875 0.3125q1.59375 0 2.421875 -1.484375l1.140625 0.5625q-0.5 0.984375 -1.421875 1.5625q-0.90625 0.578125 -2.1875 0.578125zm2.34375 -5.1875q-0.03125 -0.515625 -0.28125 -1.03125q-0.25 -0.515625 -0.796875 -0.859375q-0.546875 -0.359375 -1.375 -0.359375q-0.96875 0 -1.640625 0.625q-0.671875 0.609375 -0.875 1.625l4.96875 0zm3.0392456 -3.21875l1.28125 0l0 1.3125l0.078125 0q0.234375 -0.671875 0.921875 -1.109375q0.6875 -0.453125 1.4375 -0.453125q0.5625 0 0.96875 0.171875l0 1.46875q-0.515625 -0.265625 -1.15625 -0.265625q-0.59375 0 -1.09375 0.34375q-0.5 0.328125 -0.796875 0.90625q-0.28125 0.5625 -0.28125 1.21875l0 4.5625l-1.359375 0l0 -8.15625zm5.3657837 0l1.453125 0l2.53125 6.5625l0.03125 0l2.5625 -6.5625l1.421875 0l-3.328125 8.15625l-1.375 0l-3.296875 -8.15625zm9.927124 -1.5q-0.40625 0 -0.703125 -0.28125q-0.28125 -0.296875 -0.28125 -0.703125q0 -0.421875 0.28125 -0.6875q0.296875 -0.28125 0.703125 -0.28125q0.40625 0 0.6875 0.28125q0.28125 0.265625 0.28125 0.6875q0 0.40625 -0.28125 0.703125q-0.28125 0.28125 -0.6875 0.28125zm-0.671875 1.5l1.359375 0l0 8.15625l-1.359375 0l0 -8.15625zm7.0985107 8.40625q-1.1875 0 -2.140625 -0.5625q-0.9375 -0.5625 -1.46875 -1.546875q-0.515625 -0.984375 -0.515625 -2.21875q0 -1.234375 0.515625 -2.21875q0.53125 -1.0 1.46875 -1.5625q0.953125 -0.5625 2.140625 -0.5625q1.328125 0 2.234375 0.625q0.90625 0.609375 1.28125 1.640625l-1.234375 0.515625q-0.296875 -0.765625 -0.90625 -1.15625q-0.59375 -0.390625 -1.4375 -0.390625q-0.71875 0 -1.34375 0.390625q-0.625 0.390625 -1.0 1.109375q-0.375 0.703125 -0.375 1.609375q0 0.90625 0.375 1.609375q0.375 0.703125 1.0 1.109375q0.625 0.390625 1.34375 0.390625q0.859375 0 1.484375 -0.40625q0.625 -0.40625 0.9375 -1.140625l1.203125 0.515625q-0.40625 1.015625 -1.328125 1.640625q-0.921875 0.609375 -2.234375 0.609375zm8.593506 0q-1.171875 0 -2.109375 -0.546875q-0.921875 -0.5625 -1.4375 -1.546875q-0.515625 -0.984375 -0.515625 -2.21875q0 -1.171875 0.484375 -2.171875q0.484375 -1.0 1.390625 -1.59375q0.90625 -0.59375 2.078125 -0.59375q1.203125 0 2.078125 0.546875q0.875 0.53125 1.34375 1.484375q0.484375 0.9375 0.484375 2.15625q0 0.1875 -0.03125 0.40625l-6.46875 0q0.046875 0.9375 0.4375 1.578125q0.40625 0.640625 1.015625 0.96875q0.625 0.3125 1.296875 0.3125q1.59375 0 2.421875 -1.484375l1.140625 0.5625q-0.5 0.984375 -1.421875 1.5625q-0.90625 0.578125 -2.1875 0.578125zm2.34375 -5.1875q-0.03125 -0.515625 -0.28125 -1.03125q-0.25 -0.515625 -0.796875 -0.859375q-0.546875 -0.359375 -1.375 -0.359375q-0.96875 0 -1.640625 0.625q-0.671875 0.609375 -0.875 1.625l4.96875 0zm2.0236816 4.9375l0 0zm4.993225 -11.453125l4.109375 0q0.859375 0 1.625 0.40625q0.765625 0.390625 1.203125 1.09375q0.453125 0.703125 0.453125 1.578125q0 0.84375 -0.421875 1.46875q-0.421875 0.625 -1.140625 0.953125l0 0.0625q0.859375 0.296875 1.40625 1.0q0.546875 0.703125 0.546875 1.640625q0 0.9375 -0.484375 1.6875q-0.46875 0.734375 -1.265625 1.15625q-0.78125 0.40625 -1.703125 0.40625l-4.328125 0l0 -11.453125zm4.109375 4.9375q0.578125 0 1.015625 -0.265625q0.4375 -0.265625 0.671875 -0.6875q0.25 -0.421875 0.25 -0.875q0 -0.421875 -0.234375 -0.84375q-0.234375 -0.421875 -0.65625 -0.6875q-0.421875 -0.28125 -0.984375 -0.28125l-2.8125 0l0 3.640625l2.75 0zm0.3125 5.21875q0.5625 0 1.015625 -0.28125q0.46875 -0.296875 0.71875 -0.75q0.25 -0.453125 0.25 -0.9375q0 -0.484375 -0.265625 -0.9375q-0.25 -0.453125 -0.71875 -0.734375q-0.46875 -0.28125 -1.078125 -0.28125l-2.984375 0l0 3.921875l3.0625 0z"
       id="path148" />
    <path
       fill="#767576"
       fill-rule="evenodd"
       d="m742.31635 518.1859l-1.6004639 0.0491333l-3.0447998 0.62384033l-2.732483 1.1936035l-2.473877 1.6602783l-2.112793 2.126892l-1.649292 2.4953003l-1.185669 2.7507324l-0.61968994 3.0601807l-0.053710938 1.611084l0.053710938 1.611145l0.61968994 3.0061646l1.185669 2.8047485l1.649292 2.4904175l2.112793 2.131775l2.473877 1.6602783l2.732483 1.1936035l3.0447998 0.62384033l1.6004639 0.0491333l1.595581 -0.0491333l2.9910889 -0.62384033l2.7861328 -1.1936035l2.473877 -1.6602783l2.112854 -2.131775l1.649231 -2.4904175l1.18573 -2.8047485l0.61968994 -3.0061646l0.053649902 -1.611145l-0.053649902 -1.611084l-0.61968994 -3.0601807l-1.18573 -2.7507324l-1.649231 -2.4953003l-2.112854 -2.126892l-2.473877 -1.6602783l-2.7861328 -1.1936035l-2.9910889 -0.62384033l-1.595581 -0.0491333z"
       id="path149" />
    <path
       fill="#000"
       fill-opacity="0"
       fill-rule="evenodd"
       d="m747.7813 539.1553l-10.983643 0l0 -11.056946l10.983643 0l0 11.056946z"
       id="path150" />
    <path
       fill-rule="evenodd"
       stroke="#fff"
       stroke-linecap="butt"
       stroke-linejoin="round"
       stroke-width=".916"
       d="m747.7813 539.1553l-10.983643 0l0 -11.056946l10.983643 0l0 11.056946z"
       id="path151" />
    <path
       fill="#000"
       fill-opacity="0"
       fill-rule="evenodd"
       d="m738.8568 528.0983l0 -2.647522"
       id="path152" />
    <path
       fill-rule="evenodd"
       stroke="#fff"
       stroke-linecap="round"
       stroke-miterlimit="105.678"
       stroke-width=".916"
       d="m738.8568 528.0983l0 -2.647522"
       id="path153" />
    <path
       fill="#000"
       fill-opacity="0"
       fill-rule="evenodd"
       d="m742.31635 528.0983l0 -2.647522"
       id="path154" />
    <path
       fill-rule="evenodd"
       stroke="#fff"
       stroke-linecap="round"
       stroke-miterlimit="105.678"
       stroke-width=".916"
       d="m742.31635 528.0983l0 -2.647522"
       id="path155" />
    <path
       fill="#000"
       fill-opacity="0"
       fill-rule="evenodd"
       d="m745.771 528.0983l0 -2.647522"
       id="path156" />
    <path
       fill-rule="evenodd"
       stroke="#fff"
       stroke-linecap="round"
       stroke-miterlimit="105.678"
       stroke-width=".916"
       d="m745.771 528.0983l0 -2.647522"
       id="path157" />
    <path
       fill="#000"
       fill-opacity="0"
       fill-rule="evenodd"
       d="m738.8568 542.0632l0 -2.7015991"
       id="path158" />
    <path
       fill-rule="evenodd"
       stroke="#fff"
       stroke-linecap="round"
       stroke-miterlimit="105.678"
       stroke-width=".916"
       d="m738.8568 542.0632l0 -2.7015991"
       id="path159" />
    <path
       fill="#000"
       fill-opacity="0"
       fill-rule="evenodd"
       d="m742.31635 542.0632l0 -2.7015991"
       id="path160" />
    <path
       fill-rule="evenodd"
       stroke="#fff"
       stroke-linecap="round"
       stroke-miterlimit="105.678"
       stroke-width=".916"
       d="m742.31635 542.0632l0 -2.7015991"
       id="path161" />
    <path
       fill="#000"
       fill-opacity="0"
       fill-rule="evenodd"
       d="m745.771 542.0632l0 -2.7015991"
       id="path162" />
    <path
       fill-rule="evenodd"
       stroke="#fff"
       stroke-linecap="round"
       stroke-miterlimit="105.678"
       stroke-width=".916"
       d="m745.771 542.0632l0 -2.7015991"
       id="path163" />
    <path
       fill="#000"
       fill-opacity="0"
       fill-rule="evenodd"
       d="m736.6952 537.2347l-2.630005 0"
       id="path164" />
    <path
       fill-rule="evenodd"
       stroke="#fff"
       stroke-linecap="round"
       stroke-miterlimit="105.678"
       stroke-width=".916"
       d="m736.6952 537.2347l-2.630005 0"
       id="path165" />
    <path
       fill="#000"
       fill-opacity="0"
       fill-rule="evenodd"
       d="m736.6952 533.75696l-2.630005 0"
       id="path166" />
    <path
       fill-rule="evenodd"
       stroke="#fff"
       stroke-linecap="round"
       stroke-miterlimit="105.678"
       stroke-width=".916"
       d="m736.6952 533.75696l-2.630005 0"
       id="path167" />
    <path
       fill="#000"
       fill-opacity="0"
       fill-rule="evenodd"
       d="m736.6952 530.2793l-2.630005 0"
       id="path168" />
    <path
       fill-rule="evenodd"
       stroke="#fff"
       stroke-linecap="round"
       stroke-miterlimit="105.678"
       stroke-width=".916"
       d="m736.6952 530.2793l-2.630005 0"
       id="path169" />
    <path
       fill="#000"
       fill-opacity="0"
       fill-rule="evenodd"
       d="m750.5626 537.2347l-2.678833 0"
       id="path170" />
    <path
       fill-rule="evenodd"
       stroke="#fff"
       stroke-linecap="round"
       stroke-miterlimit="105.678"
       stroke-width=".916"
       d="m750.5626 537.2347l-2.678833 0"
       id="path171" />
    <path
       fill="#000"
       fill-opacity="0"
       fill-rule="evenodd"
       d="m750.5626 533.75696l-2.678833 0"
       id="path172" />
    <path
       fill-rule="evenodd"
       stroke="#fff"
       stroke-linecap="round"
       stroke-miterlimit="105.678"
       stroke-width=".916"
       d="m750.5626 533.75696l-2.678833 0"
       id="path173" />
    <path
       fill="#000"
       fill-opacity="0"
       fill-rule="evenodd"
       d="m750.5626 530.2793l-2.678833 0"
       id="path174" />
    <path
       fill-rule="evenodd"
       stroke="#fff"
       stroke-linecap="round"
       stroke-miterlimit="105.678"
       stroke-width=".916"
       d="m750.5626 530.2793l-2.678833 0"
       id="path175" />
    <path
       fill="#fff"
       fill-rule="evenodd"
       d="m741.5942 531.16345l-0.36108398 0.0491333l-0.61968994 0.26031494l-0.463562 0.46661377l-0.25860596 0.62384033l0 0.3635254l0 1.4539185l0 0.3635254l0.25860596 0.6237793l0.463562 0.4666748l0.61968994 0.25543213l2.16156 0l0.61968994 -0.25543213l0.463562 -0.4666748l0.25860596 -0.6237793l0 -0.3635254l0 -1.4539185l0 -0.3635254l-0.25860596 -0.62384033l-0.463562 -0.46661377l-0.61968994 -0.26031494l-0.36102295 -0.0491333z"
       id="path176" />
    <path
       fill="#000"
       fill-opacity="0"
       fill-rule="evenodd"
       d="m788.15295 510.3947l-106.99213 -87.590546"
       id="path177" />
    <path
       fill-rule="evenodd"
       stroke="#46f"
       stroke-dasharray="8 6"
       stroke-linecap="butt"
       stroke-linejoin="round"
       stroke-width="2"
       d="m788.15295 510.3947l-101.68854 -83.24869"
       id="path178" />
    <path
       fill="#46f"
       fill-rule="evenodd"
       stroke="#46f"
       stroke-linecap="butt"
       stroke-width="2"
       d="m686.4644 427.14603l3.1651 -0.31558228l-6.20636 -2.1741638l3.3568115 5.654846z"
       id="path179" />
    <path
       fill="#000"
       fill-opacity="0"
       fill-rule="evenodd"
       d="m653.13513 535.02625l63.14966 0"
       id="path180" />
    <path
       fill-rule="evenodd"
       stroke="#008200"
       stroke-linecap="butt"
       stroke-linejoin="round"
       stroke-width="2"
       d="m653.1352 535.0262l51.149597 0"
       id="path181" />
    <path
       fill="#008200"
       fill-rule="evenodd"
       stroke="#008200"
       stroke-linecap="butt"
       stroke-width="2"
       d="m704.2848 538.32965l9.076172 -3.3034668l-9.076172 -3.3034668z"
       id="path182" />
    <text
       xml:space="preserve"
       style="font-size:14.6667px;font-family:Helvetica;-inkscape-font-specification:Helvetica;fill:#000000"
       x="39.560863"
       y="71.314484"
       id="text123"><tspan
         sodipodi:role="line"
         id="tspan123"
         x="39.560863"
         y="71.314484"
         style="font-size:14.6667px">Istio </tspan></text>
    <text
       xml:space="preserve"
       style="font-size:14.6667px;font-family:Helvetica;-inkscape-font-specification:Helvetica;fill:#000000"
       x="78.698425"
       y="141.28194"
       id="text125"><tspan
         sodipodi:role="line"
         id="tspan125"
         x="78.698425"
         y="141.28194">Blue</tspan></text>
    <text
       xml:space="preserve"
       style="font-size:14.6667px;font-family:Helvetica;-inkscape-font-specification:Helvetica;fill:#000000"
       x="223.74106"
       y="231.08704"
       id="text125-96"><tspan
         sodipodi:role="line"
         id="tspan125-2"
         x="223.74106"
         y="231.08704">API </tspan></text>
    <text
       xml:space="preserve"
       style="font-size:14.6667px;font-family:Helvetica;-inkscape-font-specification:Helvetica;fill:#000000"
       x="644.35645"
       y="231.40469"
       id="text125-96-9"><tspan
         sodipodi:role="line"
         id="tspan125-2-7"
         x="644.35645"
         y="231.40469">API </tspan></text>
    <text
       xml:space="preserve"
       style="font-size:14.6667px;font-family:Helvetica;-inkscape-font-specification:Helvetica;fill:#000000"
       x="500.29526"
       y="141.28195"
       id="text125-9"><tspan
         sodipodi:role="line"
         id="tspan125-5"
         x="500.29526"
         y="141.28195">Green</tspan></text>
  </g>
</svg>
