<?xml version="1.0" encoding="UTF-8" standalone="no"?>
<svg
   fill="none"
   stroke="none"
   stroke-linecap="square"
   stroke-miterlimit="10"
   version="1.1"
   viewBox="0 0 960 720"
   id="svg125"
   sodipodi:docname="endpoint-discovery.svg"
   inkscape:version="1.3 (0e150ed6c4, 2023-07-21)"
   xmlns:inkscape="http://www.inkscape.org/namespaces/inkscape"
   xmlns:sodipodi="http://sodipodi.sourceforge.net/DTD/sodipodi-0.dtd"
   xmlns="http://www.w3.org/2000/svg"
   xmlns:svg="http://www.w3.org/2000/svg">
  <defs
     id="defs125" />
  <sodipodi:namedview
     id="namedview125"
     pagecolor="#ffffff"
     bordercolor="#000000"
     borderopacity="0.25"
     inkscape:showpageshadow="2"
     inkscape:pageopacity="0.0"
     inkscape:pagecheckerboard="0"
     inkscape:deskcolor="#d1d1d1"
     inkscape:zoom="1.1402778"
     inkscape:cx="480.14616"
     inkscape:cy="360"
     inkscape:window-width="1920"
     inkscape:window-height="1017"
     inkscape:window-x="1912"
     inkscape:window-y="-8"
     inkscape:window-maximized="1"
     inkscape:current-layer="g125" />
  <clipPath
     id="p.0">
    <path
       d="m0 0l960.0 0l0 720.0l-960.0 0l0 -720.0z"
       clip-rule="nonzero"
       id="path1" />
  </clipPath>
  <g
     clip-path="url(#p.0)"
     id="g125">
    <path
       fill="#000"
       fill-opacity="0"
       fill-rule="evenodd"
       d="m0 0l960.0 0l0 720.0l-960.0 0z"
       id="path2" />
    <path
       fill="#000"
       fill-opacity="0"
       fill-rule="evenodd"
       d="m85.60095 172.41507l0 0c0 -53.73359 43.559692 -97.293274 97.29329 -97.293274l600.3741 0c25.803772 0 50.55072 10.250511 68.79675 28.496544c18.246033 18.246025 28.496521 42.992958 28.496521 68.79673l0 389.16147c0 53.73358 -43.559692 97.293274 -97.293274 97.293274l-600.3741 0c-53.733597 0 -97.29329 -43.559692 -97.29329 -97.293274z"
       id="path3" />
    <path
       fill-rule="evenodd"
       stroke="#46f"
       stroke-dasharray="8 6"
       stroke-linecap="butt"
       stroke-linejoin="round"
       stroke-width="2"
       d="m85.60095 172.41507l0 0c0 -53.73359 43.559692 -97.293274 97.29329 -97.293274l600.3741 0c25.803772 0 50.55072 10.250511 68.79675 28.496544c18.246033 18.246025 28.496521 42.992958 28.496521 68.79673l0 389.16147c0 53.73358 -43.559692 97.293274 -97.293274 97.293274l-600.3741 0c-53.733597 0 -97.29329 -43.559692 -97.29329 -97.293274z"
       id="path4" />
    <path
       fill="#000"
       fill-opacity="0"
       fill-rule="evenodd"
       d="m172.53432 189.98166l0 0c0 -23.448654 19.008896 -42.457535 42.45755 -42.457535l169.82506 0l0 0c11.260468 0 22.059692 4.4731903 30.022034 12.435516c7.9623413 7.9623413 12.435516 18.761581 12.435516 30.022018l0 390.10855c0 23.44867 -19.00888 42.45752 -42.45755 42.45752l-169.82506 0c-23.448654 0 -42.45755 -19.00885 -42.45755 -42.45752z"
       id="path5" />
    <path
       fill-rule="evenodd"
       stroke="#ff6400"
       stroke-linecap="butt"
       stroke-linejoin="round"
       stroke-width="2"
       d="m172.53432 189.98166l0 0c0 -23.448654 19.008896 -42.457535 42.45755 -42.457535l169.82506 0l0 0c11.260468 0 22.059692 4.4731903 30.022034 12.435516c7.9623413 7.9623413 12.435516 18.761581 12.435516 30.022018l0 390.10855c0 23.44867 -19.00888 42.45752 -42.45755 42.45752l-169.82506 0c-23.448654 0 -42.45755 -19.00885 -42.45755 -42.45752z"
       id="path6" />
    <path
       fill="#000"
       fill-opacity="0"
       fill-rule="evenodd"
       d="m91.367455 38.13273l148.8819 0l0 56.377953l-148.8819 0z"
       id="path7" />
    <path
       fill="#000"
       fill-opacity="0"
       fill-rule="evenodd"
       d="m167.69504 112.190155l183.46457 0l0 56.37796l-183.46457 0z"
       id="path9" />
    <path
       fill="#e6e6e6"
       fill-rule="evenodd"
       d="m221.62355 181.56194l151.87013 0l0 98.65666l-151.87013 0z"
       id="path11" />
    <path
       fill="#fff"
       fill-rule="evenodd"
       d="m229.35573 192.52501l133.8366 0l0 75.16908l-133.8366 0z"
       id="path12" />
    <path
       fill="#e6e6e6"
       fill-rule="evenodd"
       d="m224.99759 355.6593l-0.67097473 0.079071045l-1.22052 0.532074l-0.87545776 1.0641174l-0.5431671 1.3660889l-0.06390381 0.762146l0 83.57608l0.06390381 0.7621155l0.5431671 1.3660889l0.87545776 1.0641174l1.22052 0.532074l0.67097473 0.079071045l145.1282 0l0.6709595 -0.079071045l1.2141418 -0.532074l0.88183594 -1.0641174l0.5368042 -1.3660889l0.07028198 -0.7621155l0 -83.57608l-0.07028198 -0.762146l-0.5368042 -1.3660889l-0.88183594 -1.0641174l-1.2141418 -0.532074l-0.6709595 -0.079071045z"
       id="path14" />
    <path
       fill="#fff"
       fill-rule="evenodd"
       d="m235.12608 367.0554l-0.7412567 0.079071045l-1.2141418 0.532074l-0.87545776 1.0641174l-0.5431824 1.3660889l0 0.7621155l0 60.783936l0 0.7621155l0.5431824 1.3661194l0.87545776 1.0640869l1.2141418 0.532074l0.7412567 0.071899414l124.935104 0l0.67736816 -0.071899414l1.2141418 -0.532074l0.87545776 -1.0640869l0.54315186 -1.3661194l0.06390381 -0.7621155l0 -60.783936l-0.06390381 -0.7621155l-0.54315186 -1.3660889l-0.87545776 -1.0641174l-1.2141418 -0.532074l-0.67736816 -0.079071045z"
       id="path15" />
    <path
       fill="#466bb0"
       fill-rule="evenodd"
       d="m247.21637 420.85065l11.617401 6.535675l19.311249 -6.535675z"
       id="path16" />
    <path
       fill="#466bb0"
       fill-rule="evenodd"
       d="m258.83377 392.515l-11.617401 26.135529l11.617401 -2.2073364l0 -23.928192z"
       id="path17" />
    <path
       fill="#476baf"
       fill-rule="evenodd"
       d="m260.72528 375.11533l0 41.32788l17.419739 2.2073364l-17.419739 -43.535217z"
       id="path18" />
    <path
       fill="#000"
       fill-opacity="0"
       fill-rule="evenodd"
       d="m268.66104 382.31247l94.77966 0l0 37.87671l-94.77966 0z"
       id="path19" />
    <path
       fill="#000"
       fill-rule="nonzero"
       d="m297.30807 395.6577l1.359375 0l0 11.453125l-1.359375 0l0 -11.453125zm6.4981384 11.703125q-1.3125 0 -2.203125 -0.609375q-0.875 -0.609375 -1.234375 -1.578125l1.203125 -0.546875q0.3125 0.734375 0.90625 1.140625q0.609375 0.40625 1.328125 0.40625q0.765625 0 1.3125 -0.3125q0.546875 -0.3125 0.546875 -0.890625q0 -0.515625 -0.4375 -0.828125q-0.4375 -0.3125 -1.359375 -0.53125l-1.0 -0.265625q-0.96875 -0.234375 -1.59375 -0.8125q-0.625 -0.578125 -0.625 -1.484375q0 -0.703125 0.421875 -1.234375q0.421875 -0.546875 1.125 -0.828125q0.703125 -0.296875 1.53125 -0.296875q1.0625 0 1.90625 0.46875q0.84375 0.46875 1.1875 1.296875l-1.171875 0.546875q-0.546875 -1.09375 -1.9375 -1.09375q-0.671875 0 -1.1875 0.3125q-0.5 0.3125 -0.5 0.796875q0 0.453125 0.34375 0.734375q0.359375 0.265625 1.0625 0.453125l1.1875 0.296875q1.203125 0.3125 1.8125 0.90625q0.609375 0.59375 0.609375 1.46875q0 0.75 -0.4375 1.3125q-0.4375 0.5625 -1.171875 0.875q-0.734375 0.296875 -1.625 0.296875zm7.7692566 -0.125q-0.5 0 -0.921875 -0.15625q-0.421875 -0.15625 -0.703125 -0.4375q-0.640625 -0.609375 -0.640625 -1.671875l0 -4.78125l-1.421875 0l0 -1.234375l1.421875 0l0 -2.3125l1.359375 0l0 2.3125l2.0 0l0 1.234375l-2.0 0l0 4.4375q0 0.671875 0.25 1.0q0.3125 0.34375 0.890625 0.34375q0.484375 0 0.890625 -0.265625l0 1.328125q-0.234375 0.109375 -0.484375 0.15625q-0.25 0.046875 -0.640625 0.046875zm3.6079102 -9.78125q-0.40625 0 -0.703125 -0.28125q-0.28125 -0.296875 -0.28125 -0.703125q0 -0.421875 0.28125 -0.6875q0.296875 -0.28125 0.703125 -0.28125q0.40625 0 0.6875 0.28125q0.28125 0.265625 0.28125 0.6875q0 0.40625 -0.28125 0.703125q-0.28125 0.28125 -0.6875 0.28125zm-0.671875 1.5l1.359375 0l0 8.15625l-1.359375 0l0 -8.15625zm7.1610107 8.40625q-1.203125 0 -2.171875 -0.5625q-0.953125 -0.578125 -1.484375 -1.5625q-0.53125 -1.0 -0.53125 -2.203125q0 -1.203125 0.53125 -2.1875q0.53125 -1.0 1.484375 -1.578125q0.96875 -0.578125 2.171875 -0.578125q1.203125 0 2.15625 0.578125q0.96875 0.578125 1.5 1.578125q0.53125 0.984375 0.53125 2.1875q0 1.203125 -0.53125 2.203125q-0.53125 0.984375 -1.5 1.5625q-0.953125 0.5625 -2.15625 0.5625zm0 -1.21875q0.75 0 1.390625 -0.375q0.65625 -0.390625 1.046875 -1.09375q0.390625 -0.703125 0.390625 -1.640625q0 -0.953125 -0.390625 -1.65625q-0.390625 -0.703125 -1.046875 -1.078125q-0.640625 -0.375 -1.390625 -0.375q-0.75 0 -1.40625 0.375q-0.65625 0.375 -1.046875 1.078125q-0.390625 0.703125 -0.390625 1.65625q0 0.9375 0.390625 1.640625q0.390625 0.703125 1.046875 1.09375q0.65625 0.375 1.40625 0.375zm9.254761 1.21875q-1.109375 0 -2.0 -0.546875q-0.890625 -0.5625 -1.40625 -1.546875q-0.5 -0.984375 -0.5 -2.234375q0 -1.234375 0.5 -2.21875q0.515625 -1.0 1.40625 -1.5625q0.890625 -0.5625 2.0 -0.5625q0.921875 0 1.65625 0.4375q0.734375 0.421875 1.125 1.046875l0.0625 0l-0.0625 -1.140625l0 -3.375l1.359375 0l0 11.453125l-1.296875 0l0 -1.203125l-0.0625 0q-0.390625 0.609375 -1.125 1.03125q-0.734375 0.421875 -1.65625 0.421875zm0.140625 -1.21875q0.71875 0 1.328125 -0.390625q0.625 -0.390625 1.0 -1.09375q0.375 -0.703125 0.375 -1.625q0 -0.9375 -0.375 -1.640625q-0.375 -0.703125 -1.0 -1.078125q-0.609375 -0.390625 -1.328125 -0.390625q-0.703125 0 -1.328125 0.390625q-0.625 0.375 -1.0 1.09375q-0.375 0.71875 -0.375 1.625q0 0.90625 0.375 1.625q0.375 0.703125 1.0 1.09375q0.625 0.390625 1.328125 0.390625z"
       id="path20" />
    <path
       fill="#000"
       fill-opacity="0"
       fill-rule="evenodd"
       d="m297.0232 356.69104l0.5354309 -76.47244"
       id="path21" />
    <path
       fill-rule="evenodd"
       stroke="#46f"
       stroke-dasharray="8 6"
       stroke-linecap="butt"
       stroke-linejoin="round"
       stroke-width="2"
       d="m297.02316 356.69107l0.48745728 -69.61847"
       id="path22" />
    <path
       fill="#46f"
       fill-rule="evenodd"
       stroke="#46f"
       stroke-linecap="butt"
       stroke-width="2"
       d="m297.51062 287.0726l2.233368 2.264862l-2.205841 -6.1951294l-2.292389 6.1636353z"
       id="path23" />
    <path
       fill="#e6e6e6"
       fill-rule="evenodd"
       d="m226.35641 519.51447l-0.6577301 0.060180664l-1.1964264 0.40496826l-0.85816956 0.8098755l-0.5324402 1.0397949l-0.06265259 0.57458496l0 63.617126l0.06265259 0.5800781l0.5324402 1.0397949l0.85816956 0.8098755l1.1964264 0.40496826l0.6577301 0.054748535l142.25641 0l0.66397095 -0.054748535l1.1901855 -0.40496826l0.927063 -0.8098755l0.4635315 -1.0397949l0.06890869 -0.5800781l0 -63.617126l-0.06890869 -0.57458496l-0.4635315 -1.0397949l-0.927063 -0.8098755l-1.1901855 -0.40496826l-0.66397095 -0.060180664z"
       id="path24" />
    <path
       fill="#fff"
       fill-rule="evenodd"
       d="m234.78023 528.18634l126.047226 0l0 52.06299l-126.047226 0z"
       id="path25" />
    <path
       fill="#000"
       fill-rule="nonzero"
       d="m288.6637 560.3278q-0.875 0 -1.6875 -0.359375q-0.796875 -0.359375 -1.421875 -1.046875q-0.625 -0.703125 -0.890625 -1.6875l1.296875 -0.53125q0.265625 1.015625 1.0 1.671875q0.734375 0.65625 1.734375 0.65625q0.984375 0 1.671875 -0.53125q0.6875 -0.53125 0.6875 -1.46875q0 -0.796875 -0.578125 -1.3125q-0.578125 -0.515625 -1.90625 -0.96875l-0.734375 -0.25q-1.203125 -0.4375 -1.984375 -1.140625q-0.765625 -0.703125 -0.765625 -1.953125q0 -0.8125 0.453125 -1.5q0.453125 -0.703125 1.25 -1.125q0.796875 -0.421875 1.796875 -0.421875q0.984375 0 1.71875 0.375q0.734375 0.375 1.171875 0.90625q0.453125 0.515625 0.625 1.03125l-1.265625 0.546875q-0.171875 -0.59375 -0.75 -1.078125q-0.5625 -0.484375 -1.484375 -0.484375q-0.890625 0 -1.515625 0.5q-0.625 0.5 -0.625 1.25q0 0.671875 0.53125 1.09375q0.53125 0.421875 1.609375 0.796875l0.75 0.25q1.453125 0.53125 2.265625 1.328125q0.8125 0.78125 0.8125 2.140625q0 1.109375 -0.5625 1.859375q-0.5625 0.75 -1.4375 1.109375q-0.859375 0.34375 -1.765625 0.34375zm9.148285 0q-1.171875 0 -2.109375 -0.546875q-0.921875 -0.5625 -1.4375 -1.546875q-0.515625 -0.984375 -0.515625 -2.21875q0 -1.171875 0.484375 -2.171875q0.484375 -1.0 1.390625 -1.59375q0.90625 -0.59375 2.078125 -0.59375q1.203125 0 2.078125 0.546875q0.875 0.53125 1.34375 1.484375q0.484375 0.9375 0.484375 2.15625q0 0.1875 -0.03125 0.40625l-6.46875 0q0.046875 0.9375 0.4375 1.578125q0.40625 0.640625 1.015625 0.96875q0.625 0.3125 1.296875 0.3125q1.59375 0 2.421875 -1.484375l1.140625 0.5625q-0.5 0.984375 -1.421875 1.5625q-0.90625 0.578125 -2.1875 0.578125zm2.34375 -5.1875q-0.03125 -0.515625 -0.28125 -1.03125q-0.25 -0.515625 -0.796875 -0.859375q-0.546875 -0.359375 -1.375 -0.359375q-0.96875 0 -1.640625 0.625q-0.671875 0.609375 -0.875 1.625l4.96875 0zm3.0392456 -3.21875l1.28125 0l0 1.3125l0.078125 0q0.234375 -0.671875 0.921875 -1.109375q0.6875 -0.453125 1.4375 -0.453125q0.5625 0 0.96875 0.171875l0 1.46875q-0.515625 -0.265625 -1.15625 -0.265625q-0.59375 0 -1.09375 0.34375q-0.5 0.328125 -0.796875 0.90625q-0.28125 0.5625 -0.28125 1.21875l0 4.5625l-1.359375 0l0 -8.15625zm5.3657837 0l1.453125 0l2.53125 6.5625l0.03125 0l2.5625 -6.5625l1.421875 0l-3.328125 8.15625l-1.375 0l-3.296875 -8.15625zm9.927124 -1.5q-0.40625 0 -0.703125 -0.28125q-0.28125 -0.296875 -0.28125 -0.703125q0 -0.421875 0.28125 -0.6875q0.296875 -0.28125 0.703125 -0.28125q0.40625 0 0.6875 0.28125q0.28125 0.265625 0.28125 0.6875q0 0.40625 -0.28125 0.703125q-0.28125 0.28125 -0.6875 0.28125zm-0.671875 1.5l1.359375 0l0 8.15625l-1.359375 0l0 -8.15625zm7.0985107 8.40625q-1.1875 0 -2.140625 -0.5625q-0.9375 -0.5625 -1.46875 -1.546875q-0.515625 -0.984375 -0.515625 -2.21875q0 -1.234375 0.515625 -2.21875q0.53125 -1.0 1.46875 -1.5625q0.953125 -0.5625 2.140625 -0.5625q1.328125 0 2.234375 0.625q0.90625 0.609375 1.28125 1.640625l-1.234375 0.515625q-0.296875 -0.765625 -0.90625 -1.15625q-0.59375 -0.390625 -1.4375 -0.390625q-0.71875 0 -1.34375 0.390625q-0.625 0.390625 -1.0 1.109375q-0.375 0.703125 -0.375 1.609375q0 0.90625 0.375 1.609375q0.375 0.703125 1.0 1.109375q0.625 0.390625 1.34375 0.390625q0.859375 0 1.484375 -0.40625q0.625 -0.40625 0.9375 -1.140625l1.203125 0.515625q-0.40625 1.015625 -1.328125 1.640625q-0.921875 0.609375 -2.234375 0.609375zm8.593536 0q-1.171875 0 -2.109375 -0.546875q-0.921875 -0.5625 -1.4375 -1.546875q-0.515625 -0.984375 -0.515625 -2.21875q0 -1.171875 0.484375 -2.171875q0.484375 -1.0 1.390625 -1.59375q0.90625 -0.59375 2.078125 -0.59375q1.203125 0 2.078125 0.546875q0.875 0.53125 1.34375 1.484375q0.484375 0.9375 0.484375 2.15625q0 0.1875 -0.03125 0.40625l-6.46875 0q0.046875 0.9375 0.4375 1.578125q0.40625 0.640625 1.015625 0.96875q0.625 0.3125 1.296875 0.3125q1.59375 0 2.421875 -1.484375l1.140625 0.5625q-0.5 0.984375 -1.421875 1.5625q-0.90625 0.578125 -2.1875 0.578125zm2.34375 -5.1875q-0.03125 -0.515625 -0.28125 -1.03125q-0.25 -0.515625 -0.796875 -0.859375q-0.546875 -0.359375 -1.375 -0.359375q-0.96875 0 -1.640625 0.625q-0.671875 0.609375 -0.875 1.625l4.96875 0zm2.0236206 4.9375l0 0zm7.825775 -11.453125l1.53125 0l4.359375 11.453125l-1.5 0l-1.140625 -3.15625l-4.96875 0l-1.140625 3.15625l-1.5 0l4.359375 -11.453125zm2.78125 7.015625l-1.53125 -4.125l-0.453125 -1.234375l-0.0625 0l-0.453125 1.234375l-1.53125 4.125l4.03125 0z"
       id="path26" />
    <path
       fill="#767576"
       fill-rule="evenodd"
       d="m254.64671 536.86664l-1.9054108 0.054748535l-3.6249084 0.6949463l-3.253128 1.329834l-2.9452362 1.8496094l-2.5153809 2.3695679l-1.9634857 2.7799683l-1.4116211 3.0645142l-0.7377777 3.4093018l-0.06388855 1.7949219l0.06388855 1.7949219l0.7377777 3.349121l1.4116211 3.1246948l1.9634857 2.7745361l2.5153809 2.375l2.9452362 1.8496704l3.253128 1.329773l3.6249084 0.6950073l1.9054108 0.0546875l1.8995819 -0.0546875l3.5610352 -0.6950073l3.3170166 -1.329773l2.9452515 -1.8496704l2.5153503 -2.375l1.963501 -2.7745361l1.4116211 -3.1246948l0.73776245 -3.349121l0.06390381 -1.7949219l-0.06390381 -1.7949219l-0.73776245 -3.4093018l-1.4116211 -3.0645142l-1.963501 -2.7799683l-2.5153503 -2.3695679l-2.9452515 -1.8496094l-3.3170166 -1.329834l-3.5610352 -0.6949463l-1.8995819 -0.054748535z"
       id="path27" />
    <path
       fill="#000"
       fill-opacity="0"
       fill-rule="evenodd"
       d="m261.15298 560.2282l-13.076431 0l0 -12.318298l13.076431 0l0 12.318298z"
       id="path28" />
    <path
       fill-rule="evenodd"
       stroke="#fff"
       stroke-linecap="butt"
       stroke-linejoin="round"
       stroke-width=".916"
       d="m261.15298 560.2282l-13.076431 0l0 -12.318298l13.076431 0l0 12.318298z"
       id="path29" />
    <path
       fill="#000"
       fill-opacity="0"
       fill-rule="evenodd"
       d="m250.52802 547.9099l0 -2.949646"
       id="path30" />
    <path
       fill-rule="evenodd"
       stroke="#fff"
       stroke-linecap="round"
       stroke-miterlimit="105.678"
       stroke-width=".916"
       d="m250.52802 547.9099l0 -2.949646"
       id="path31" />
    <path
       fill="#000"
       fill-opacity="0"
       fill-rule="evenodd"
       d="m254.64671 547.9099l0 -2.949646"
       id="path32" />
    <path
       fill-rule="evenodd"
       stroke="#fff"
       stroke-linecap="round"
       stroke-miterlimit="105.678"
       stroke-width=".916"
       d="m254.64671 547.9099l0 -2.949646"
       id="path33" />
    <path
       fill="#000"
       fill-opacity="0"
       fill-rule="evenodd"
       d="m258.7596 547.9099l0 -2.949646"
       id="path34" />
    <path
       fill-rule="evenodd"
       stroke="#fff"
       stroke-linecap="round"
       stroke-miterlimit="105.678"
       stroke-width=".916"
       d="m258.7596 547.9099l0 -2.949646"
       id="path35" />
    <path
       fill="#000"
       fill-opacity="0"
       fill-rule="evenodd"
       d="m250.52802 563.46783l0 -3.0097656"
       id="path36" />
    <path
       fill-rule="evenodd"
       stroke="#fff"
       stroke-linecap="round"
       stroke-miterlimit="105.678"
       stroke-width=".916"
       d="m250.52802 563.46783l0 -3.0097656"
       id="path37" />
    <path
       fill="#000"
       fill-opacity="0"
       fill-rule="evenodd"
       d="m254.64671 563.46783l0 -3.0097656"
       id="path38" />
    <path
       fill-rule="evenodd"
       stroke="#fff"
       stroke-linecap="round"
       stroke-miterlimit="105.678"
       stroke-width=".916"
       d="m254.64671 563.46783l0 -3.0097656"
       id="path39" />
    <path
       fill="#000"
       fill-opacity="0"
       fill-rule="evenodd"
       d="m258.7596 563.46783l0 -3.0097656"
       id="path40" />
    <path
       fill-rule="evenodd"
       stroke="#fff"
       stroke-linecap="round"
       stroke-miterlimit="105.678"
       stroke-width=".916"
       d="m258.7596 563.46783l0 -3.0097656"
       id="path41" />
    <path
       fill="#000"
       fill-opacity="0"
       fill-rule="evenodd"
       d="m247.95456 558.0885l-3.131134 0"
       id="path42" />
    <path
       fill-rule="evenodd"
       stroke="#fff"
       stroke-linecap="round"
       stroke-miterlimit="105.678"
       stroke-width=".916"
       d="m247.95456 558.0885l-3.131134 0"
       id="path43" />
    <path
       fill="#000"
       fill-opacity="0"
       fill-rule="evenodd"
       d="m247.95456 554.21405l-3.131134 0"
       id="path44" />
    <path
       fill-rule="evenodd"
       stroke="#fff"
       stroke-linecap="round"
       stroke-miterlimit="105.678"
       stroke-width=".916"
       d="m247.95456 554.21405l-3.131134 0"
       id="path45" />
    <path
       fill="#000"
       fill-opacity="0"
       fill-rule="evenodd"
       d="m247.95456 550.3396l-3.131134 0"
       id="path46" />
    <path
       fill-rule="evenodd"
       stroke="#fff"
       stroke-linecap="round"
       stroke-miterlimit="105.678"
       stroke-width=".916"
       d="m247.95456 550.3396l-3.131134 0"
       id="path47" />
    <path
       fill="#000"
       fill-opacity="0"
       fill-rule="evenodd"
       d="m264.4642 558.0885l-3.1892395 0"
       id="path48" />
    <path
       fill-rule="evenodd"
       stroke="#fff"
       stroke-linecap="round"
       stroke-miterlimit="105.678"
       stroke-width=".916"
       d="m264.4642 558.0885l-3.1892395 0"
       id="path49" />
    <path
       fill="#000"
       fill-opacity="0"
       fill-rule="evenodd"
       d="m264.4642 554.21405l-3.1892395 0"
       id="path50" />
    <path
       fill-rule="evenodd"
       stroke="#fff"
       stroke-linecap="round"
       stroke-miterlimit="105.678"
       stroke-width=".916"
       d="m264.4642 554.21405l-3.1892395 0"
       id="path51" />
    <path
       fill="#000"
       fill-opacity="0"
       fill-rule="evenodd"
       d="m264.4642 550.3396l-3.1892395 0"
       id="path52" />
    <path
       fill-rule="evenodd"
       stroke="#fff"
       stroke-linecap="round"
       stroke-miterlimit="105.678"
       stroke-width=".916"
       d="m264.4642 550.3396l-3.1892395 0"
       id="path53" />
    <path
       fill="#fff"
       fill-rule="evenodd"
       d="m253.78696 551.32465l-0.4298706 0.054748535l-0.73776245 0.29003906l-0.5518799 0.5198364l-0.3078766 0.6950073l0 0.40496826l0 1.619812l0 0.40496826l0.3078766 0.6949463l0.5518799 0.51989746l0.73776245 0.2845459l2.5734558 0l0.73776245 -0.2845459l0.5518799 -0.51989746l0.30786133 -0.6949463l0 -0.40496826l0 -1.619812l0 -0.40496826l-0.30786133 -0.6950073l-0.5518799 -0.5198364l-0.73776245 -0.29003906l-0.42988586 -0.054748535z"
       id="path54" />
    <path
       fill="#000"
       fill-opacity="0"
       fill-rule="evenodd"
       d="m547.9921 189.98166l0 0c0 -23.448654 19.008911 -42.457535 42.45758 -42.457535l169.82507 0l0 0c11.260437 0 22.059692 4.4731903 30.022034 12.435516c7.9622803 7.9623413 12.435486 18.761581 12.435486 30.022018l0 390.10855c0 23.44867 -19.00885 42.45752 -42.45752 42.45752l-169.82507 0c-23.44867 0 -42.45758 -19.00885 -42.45758 -42.45752z"
       id="path55" />
    <path
       fill-rule="evenodd"
       stroke="#ff6400"
       stroke-linecap="butt"
       stroke-linejoin="round"
       stroke-width="2"
       d="m547.9921 189.98166l0 0c0 -23.448654 19.008911 -42.457535 42.45758 -42.457535l169.82507 0l0 0c11.260437 0 22.059692 4.4731903 30.022034 12.435516c7.9622803 7.9623413 12.435486 18.761581 12.435486 30.022018l0 390.10855c0 23.44867 -19.00885 42.45752 -42.45752 42.45752l-169.82507 0c-23.44867 0 -42.45758 -19.00885 -42.45758 -42.45752z"
       id="path56" />
    <path
       fill="#000"
       fill-opacity="0"
       fill-rule="evenodd"
       d="m535.1529 112.190155l183.46454 0l0 56.37796l-183.46454 0z"
       id="path57" />
    <path
       fill="#e6e6e6"
       fill-rule="evenodd"
       d="m597.08136 181.56194l151.87012 0l0 98.65666l-151.87012 0z"
       id="path59" />
    <path
       fill="#fff"
       fill-rule="evenodd"
       d="m604.81354 192.52501l133.83661 0l0 75.16908l-133.83661 0z"
       id="path60" />
    <path
       fill="#e6e6e6"
       fill-rule="evenodd"
       d="m600.45544 355.6593l-0.6710205 0.079071045l-1.22052 0.532074l-0.87542725 1.0641174l-0.54315186 1.3660889l-0.06390381 0.762146l0 83.57608l0.06390381 0.7621155l0.54315186 1.3660889l0.87542725 1.0641174l1.22052 0.532074l0.6710205 0.079071045l145.12817 0l0.6709595 -0.079071045l1.2141724 -0.532074l0.88183594 -1.0641174l0.53674316 -1.3660889l0.0703125 -0.7621155l0 -83.57608l-0.0703125 -0.762146l-0.53674316 -1.3660889l-0.88183594 -1.0641174l-1.2141724 -0.532074l-0.6709595 -0.079071045z"
       id="path62" />
    <path
       fill="#fff"
       fill-rule="evenodd"
       d="m610.5839 367.0554l-0.741272 0.079071045l-1.2141113 0.532074l-0.8754883 1.0641174l-0.54315186 1.3660889l0 0.7621155l0 60.783936l0 0.7621155l0.54315186 1.3661194l0.8754883 1.0640869l1.2141113 0.532074l0.741272 0.071899414l124.93512 0l0.67736816 -0.071899414l1.2141113 -0.532074l0.8754883 -1.0640869l0.54315186 -1.3661194l0.06390381 -0.7621155l0 -60.783936l-0.06390381 -0.7621155l-0.54315186 -1.3660889l-0.8754883 -1.0641174l-1.2141113 -0.532074l-0.67736816 -0.079071045z"
       id="path63" />
    <path
       fill="#466bb0"
       fill-rule="evenodd"
       d="m622.6742 420.85065l11.617432 6.535675l19.311218 -6.535675z"
       id="path64" />
    <path
       fill="#466bb0"
       fill-rule="evenodd"
       d="m634.2916 392.515l-11.617432 26.135529l11.617432 -2.2073364l0 -23.928192z"
       id="path65" />
    <path
       fill="#476baf"
       fill-rule="evenodd"
       d="m636.1831 375.11533l0 41.32788l17.419739 2.2073364l-17.419739 -43.535217z"
       id="path66" />
    <path
       fill="#000"
       fill-opacity="0"
       fill-rule="evenodd"
       d="m644.1189 382.31247l94.770996 0l0 37.870453l-94.770996 0z"
       id="path67" />
    <path
       fill="#000"
       fill-rule="nonzero"
       d="m672.7616 395.65457l1.359375 0l0 11.453125l-1.359375 0l0 -11.453125zm6.498108 11.703125q-1.3125 0 -2.203125 -0.609375q-0.875 -0.609375 -1.234375 -1.578125l1.203125 -0.546875q0.3125 0.734375 0.90625 1.140625q0.609375 0.40625 1.328125 0.40625q0.765625 0 1.3125 -0.3125q0.546875 -0.3125 0.546875 -0.890625q0 -0.515625 -0.4375 -0.828125q-0.4375 -0.3125 -1.359375 -0.53125l-1.0 -0.265625q-0.96875 -0.234375 -1.59375 -0.8125q-0.625 -0.578125 -0.625 -1.484375q0 -0.703125 0.421875 -1.234375q0.421875 -0.546875 1.125 -0.828125q0.703125 -0.296875 1.53125 -0.296875q1.0625 0 1.90625 0.46875q0.84375 0.46875 1.1875 1.296875l-1.171875 0.546875q-0.546875 -1.09375 -1.9375 -1.09375q-0.671875 0 -1.1875 0.3125q-0.5 0.3125 -0.5 0.796875q0 0.453125 0.34375 0.734375q0.359375 0.265625 1.0625 0.453125l1.1875 0.296875q1.203125 0.3125 1.8125 0.90625q0.609375 0.59375 0.609375 1.46875q0 0.75 -0.4375 1.3125q-0.4375 0.5625 -1.171875 0.875q-0.734375 0.296875 -1.625 0.296875zm7.769287 -0.125q-0.5 0 -0.921875 -0.15625q-0.421875 -0.15625 -0.703125 -0.4375q-0.640625 -0.609375 -0.640625 -1.671875l0 -4.78125l-1.421875 0l0 -1.234375l1.421875 0l0 -2.3125l1.359375 0l0 2.3125l2.0 0l0 1.234375l-2.0 0l0 4.4375q0 0.671875 0.25 1.0q0.3125 0.34375 0.890625 0.34375q0.484375 0 0.890625 -0.265625l0 1.328125q-0.234375 0.109375 -0.484375 0.15625q-0.25 0.046875 -0.640625 0.046875zm3.6079102 -9.78125q-0.40625 0 -0.703125 -0.28125q-0.28125 -0.296875 -0.28125 -0.703125q0 -0.421875 0.28125 -0.6875q0.296875 -0.28125 0.703125 -0.28125q0.40625 0 0.6875 0.28125q0.28125 0.265625 0.28125 0.6875q0 0.40625 -0.28125 0.703125q-0.28125 0.28125 -0.6875 0.28125zm-0.671875 1.5l1.359375 0l0 8.15625l-1.359375 0l0 -8.15625zm7.1610107 8.40625q-1.203125 0 -2.171875 -0.5625q-0.953125 -0.578125 -1.484375 -1.5625q-0.53125 -1.0 -0.53125 -2.203125q0 -1.203125 0.53125 -2.1875q0.53125 -1.0 1.484375 -1.578125q0.96875 -0.578125 2.171875 -0.578125q1.203125 0 2.15625 0.578125q0.96875 0.578125 1.5 1.578125q0.53125 0.984375 0.53125 2.1875q0 1.203125 -0.53125 2.203125q-0.53125 0.984375 -1.5 1.5625q-0.953125 0.5625 -2.15625 0.5625zm0 -1.21875q0.75 0 1.390625 -0.375q0.65625 -0.390625 1.046875 -1.09375q0.390625 -0.703125 0.390625 -1.640625q0 -0.953125 -0.390625 -1.65625q-0.390625 -0.703125 -1.046875 -1.078125q-0.640625 -0.375 -1.390625 -0.375q-0.75 0 -1.40625 0.375q-0.65625 0.375 -1.046875 1.078125q-0.390625 0.703125 -0.390625 1.65625q0 0.9375 0.390625 1.640625q0.390625 0.703125 1.046875 1.09375q0.65625 0.375 1.40625 0.375zm9.254761 1.21875q-1.109375 0 -2.0 -0.546875q-0.890625 -0.5625 -1.40625 -1.546875q-0.5 -0.984375 -0.5 -2.234375q0 -1.234375 0.5 -2.21875q0.515625 -1.0 1.40625 -1.5625q0.890625 -0.5625 2.0 -0.5625q0.921875 0 1.65625 0.4375q0.734375 0.421875 1.125 1.046875l0.0625 0l-0.0625 -1.140625l0 -3.375l1.359375 0l0 11.453125l-1.296875 0l0 -1.203125l-0.0625 0q-0.390625 0.609375 -1.125 1.03125q-0.734375 0.421875 -1.65625 0.421875zm0.140625 -1.21875q0.71875 0 1.328125 -0.390625q0.625 -0.390625 1.0 -1.09375q0.375 -0.703125 0.375 -1.625q0 -0.9375 -0.375 -1.640625q-0.375 -0.703125 -1.0 -1.078125q-0.609375 -0.390625 -1.328125 -0.390625q-0.703125 0 -1.328125 0.390625q-0.625 0.375 -1.0 1.09375q-0.375 0.71875 -0.375 1.625q0 0.90625 0.375 1.625q0.375 0.703125 1.0 1.09375q0.625 0.390625 1.328125 0.390625z"
       id="path68" />
    <path
       fill="#000"
       fill-opacity="0"
       fill-rule="evenodd"
       d="m672.481 356.69104l0.5354004 -76.47244"
       id="path69" />
    <path
       fill-rule="evenodd"
       stroke="#46f"
       stroke-dasharray="8 6"
       stroke-linecap="butt"
       stroke-linejoin="round"
       stroke-width="2"
       d="m672.481 356.69107l0.48742676 -69.61847"
       id="path70" />
    <path
       fill="#46f"
       fill-rule="evenodd"
       stroke="#46f"
       stroke-linecap="butt"
       stroke-width="2"
       d="m672.96844 287.0726l2.2333984 2.264862l-2.2058716 -6.1951294l-2.2923584 6.1636353z"
       id="path71" />
    <path
       fill="#000"
       fill-opacity="0"
       fill-rule="evenodd"
       d="m297.80383 528.18634l-0.56692505 -80.188965"
       id="path72" />
    <path
       fill-rule="evenodd"
       stroke="#46f"
       stroke-dasharray="8 6"
       stroke-linecap="butt"
       stroke-linejoin="round"
       stroke-width="2"
       d="m297.80383 528.18634l-0.51846313 -73.33496"
       id="path73" />
    <path
       fill="#46f"
       fill-rule="evenodd"
       stroke="#46f"
       stroke-linecap="butt"
       stroke-width="2"
       d="m297.28537 454.85138l2.2650146 2.2332153l-2.2927856 -6.1634827l-2.2054443 6.195282z"
       id="path74" />
    <path
       fill="#000"
       fill-opacity="0"
       fill-rule="evenodd"
       d="m296.5301 355.3064l308.28345 -125.19685"
       id="path75" />
    <path
       fill-rule="evenodd"
       stroke="#46f"
       stroke-dasharray="8 6"
       stroke-linecap="butt"
       stroke-linejoin="round"
       stroke-width="2"
       d="m296.5301 355.3064l301.93298 -122.617874"
       id="path76" />
    <path
       fill="#46f"
       fill-rule="evenodd"
       stroke="#46f"
       stroke-linecap="butt"
       stroke-width="2"
       d="m598.4631 232.68852l-1.2375488 2.9301605l4.8790894 -4.409012l-6.5716553 0.24125671z"
       id="path77" />
    <path
       fill="#000"
       fill-opacity="0"
       fill-rule="evenodd"
       d="m674.15295 355.3064l-310.96063 -125.19685"
       id="path78" />
    <path
       fill-rule="evenodd"
       stroke="#46f"
       stroke-dasharray="8 6"
       stroke-linecap="butt"
       stroke-linejoin="round"
       stroke-width="2"
       d="m674.15295 355.3064l-304.60242 -122.63696"
       id="path79" />
    <path
       fill="#46f"
       fill-rule="evenodd"
       stroke="#46f"
       stroke-linecap="butt"
       stroke-width="2"
       d="m369.55054 232.66943l2.926422 -1.2463989l-6.5723877 -0.22151184l4.8923645 4.394348z"
       id="path80" />
    <path
       fill="#000"
       fill-opacity="0"
       fill-rule="evenodd"
       d="m444.15198 291.37903l148.8819 0l0 56.37796l-148.8819 0z"
       id="path81" />
    <path
       fill="#000"
       fill-opacity="0"
       fill-rule="evenodd"
       d="m672.4761 281.90277l148.8819 0l0 56.37796l-148.8819 0z"
       id="path83" />
    <path
       fill="#000"
       fill-opacity="0"
       fill-rule="evenodd"
       d="m178.53651 281.90277l148.88188 0l0 56.37796l-148.88188 0z"
       id="path86" />
    <path
       fill="#000"
       fill-opacity="0"
       fill-rule="evenodd"
       d="m363.2951 554.2253l234.5827 0"
       id="path89" />
    <path
       fill-rule="evenodd"
       stroke="#008200"
       stroke-linecap="butt"
       stroke-linejoin="round"
       stroke-width="2"
       d="m363.2951 554.2253l222.5827 0"
       id="path90" />
    <path
       fill="#008200"
       fill-rule="evenodd"
       stroke="#008200"
       stroke-linecap="butt"
       stroke-width="2"
       d="m585.8778 557.52875l9.076172 -3.3034668l-9.076172 -3.3034668z"
       id="path91" />
    <path
       fill="#e6e6e6"
       fill-rule="evenodd"
       d="m602.35645 519.51447l-0.6577759 0.060180664l-1.1964111 0.40496826l-0.8581543 0.8098755l-0.5324707 1.0397949l-0.06262207 0.57458496l0 63.617126l0.06262207 0.5800781l0.5324707 1.0397949l0.8581543 0.8098755l1.1964111 0.40496826l0.6577759 0.054748535l142.25635 0l0.66400146 -0.054748535l1.1901855 -0.40496826l0.927063 -0.8098755l0.463562 -1.0397949l0.06890869 -0.5800781l0 -63.617126l-0.06890869 -0.57458496l-0.463562 -1.0397949l-0.927063 -0.8098755l-1.1901855 -0.40496826l-0.66400146 -0.060180664z"
       id="path92" />
    <path
       fill="#fff"
       fill-rule="evenodd"
       d="m610.7802 528.18634l126.04724 0l0 52.06299l-126.04724 0z"
       id="path93" />
    <path
       fill="#000"
       fill-rule="nonzero"
       d="m665.2077 560.3278q-0.875 0 -1.6875 -0.359375q-0.796875 -0.359375 -1.421875 -1.046875q-0.625 -0.703125 -0.890625 -1.6875l1.296875 -0.53125q0.265625 1.015625 1.0 1.671875q0.734375 0.65625 1.734375 0.65625q0.984375 0 1.671875 -0.53125q0.6875 -0.53125 0.6875 -1.46875q0 -0.796875 -0.578125 -1.3125q-0.578125 -0.515625 -1.90625 -0.96875l-0.734375 -0.25q-1.203125 -0.4375 -1.984375 -1.140625q-0.765625 -0.703125 -0.765625 -1.953125q0 -0.8125 0.453125 -1.5q0.453125 -0.703125 1.25 -1.125q0.796875 -0.421875 1.796875 -0.421875q0.984375 0 1.71875 0.375q0.734375 0.375 1.171875 0.90625q0.453125 0.515625 0.625 1.03125l-1.265625 0.546875q-0.171875 -0.59375 -0.75 -1.078125q-0.5625 -0.484375 -1.484375 -0.484375q-0.890625 0 -1.515625 0.5q-0.625 0.5 -0.625 1.25q0 0.671875 0.53125 1.09375q0.53125 0.421875 1.609375 0.796875l0.75 0.25q1.453125 0.53125 2.265625 1.328125q0.8125 0.78125 0.8125 2.140625q0 1.109375 -0.5625 1.859375q-0.5625 0.75 -1.4375 1.109375q-0.859375 0.34375 -1.765625 0.34375zm9.148254 0q-1.171875 0 -2.109375 -0.546875q-0.921875 -0.5625 -1.4375 -1.546875q-0.515625 -0.984375 -0.515625 -2.21875q0 -1.171875 0.484375 -2.171875q0.484375 -1.0 1.390625 -1.59375q0.90625 -0.59375 2.078125 -0.59375q1.203125 0 2.078125 0.546875q0.875 0.53125 1.34375 1.484375q0.484375 0.9375 0.484375 2.15625q0 0.1875 -0.03125 0.40625l-6.46875 0q0.046875 0.9375 0.4375 1.578125q0.40625 0.640625 1.015625 0.96875q0.625 0.3125 1.296875 0.3125q1.59375 0 2.421875 -1.484375l1.140625 0.5625q-0.5 0.984375 -1.421875 1.5625q-0.90625 0.578125 -2.1875 0.578125zm2.34375 -5.1875q-0.03125 -0.515625 -0.28125 -1.03125q-0.25 -0.515625 -0.796875 -0.859375q-0.546875 -0.359375 -1.375 -0.359375q-0.96875 0 -1.640625 0.625q-0.671875 0.609375 -0.875 1.625l4.96875 0zm3.0393066 -3.21875l1.28125 0l0 1.3125l0.078125 0q0.234375 -0.671875 0.921875 -1.109375q0.6875 -0.453125 1.4375 -0.453125q0.5625 0 0.96875 0.171875l0 1.46875q-0.515625 -0.265625 -1.15625 -0.265625q-0.59375 0 -1.09375 0.34375q-0.5 0.328125 -0.796875 0.90625q-0.28125 0.5625 -0.28125 1.21875l0 4.5625l-1.359375 0l0 -8.15625zm5.3657227 0l1.453125 0l2.53125 6.5625l0.03125 0l2.5625 -6.5625l1.421875 0l-3.328125 8.15625l-1.375 0l-3.296875 -8.15625zm9.927185 -1.5q-0.40625 0 -0.703125 -0.28125q-0.28125 -0.296875 -0.28125 -0.703125q0 -0.421875 0.28125 -0.6875q0.296875 -0.28125 0.703125 -0.28125q0.40625 0 0.6875 0.28125q0.28125 0.265625 0.28125 0.6875q0 0.40625 -0.28125 0.703125q-0.28125 0.28125 -0.6875 0.28125zm-0.671875 1.5l1.359375 0l0 8.15625l-1.359375 0l0 -8.15625zm7.0985107 8.40625q-1.1875 0 -2.140625 -0.5625q-0.9375 -0.5625 -1.46875 -1.546875q-0.515625 -0.984375 -0.515625 -2.21875q0 -1.234375 0.515625 -2.21875q0.53125 -1.0 1.46875 -1.5625q0.953125 -0.5625 2.140625 -0.5625q1.328125 0 2.234375 0.625q0.90625 0.609375 1.28125 1.640625l-1.234375 0.515625q-0.296875 -0.765625 -0.90625 -1.15625q-0.59375 -0.390625 -1.4375 -0.390625q-0.71875 0 -1.34375 0.390625q-0.625 0.390625 -1.0 1.109375q-0.375 0.703125 -0.375 1.609375q0 0.90625 0.375 1.609375q0.375 0.703125 1.0 1.109375q0.625 0.390625 1.34375 0.390625q0.859375 0 1.484375 -0.40625q0.625 -0.40625 0.9375 -1.140625l1.203125 0.515625q-0.40625 1.015625 -1.328125 1.640625q-0.921875 0.609375 -2.234375 0.609375zm8.593506 0q-1.171875 0 -2.109375 -0.546875q-0.921875 -0.5625 -1.4375 -1.546875q-0.515625 -0.984375 -0.515625 -2.21875q0 -1.171875 0.484375 -2.171875q0.484375 -1.0 1.390625 -1.59375q0.90625 -0.59375 2.078125 -0.59375q1.203125 0 2.078125 0.546875q0.875 0.53125 1.34375 1.484375q0.484375 0.9375 0.484375 2.15625q0 0.1875 -0.03125 0.40625l-6.46875 0q0.046875 0.9375 0.4375 1.578125q0.40625 0.640625 1.015625 0.96875q0.625 0.3125 1.296875 0.3125q1.59375 0 2.421875 -1.484375l1.140625 0.5625q-0.5 0.984375 -1.421875 1.5625q-0.90625 0.578125 -2.1875 0.578125zm2.34375 -5.1875q-0.03125 -0.515625 -0.28125 -1.03125q-0.25 -0.515625 -0.796875 -0.859375q-0.546875 -0.359375 -1.375 -0.359375q-0.96875 0 -1.640625 0.625q-0.671875 0.609375 -0.875 1.625l4.96875 0zm2.0236206 4.9375l0 0zm4.993286 -11.453125l4.109375 0q0.859375 0 1.625 0.40625q0.765625 0.390625 1.203125 1.09375q0.453125 0.703125 0.453125 1.578125q0 0.84375 -0.421875 1.46875q-0.421875 0.625 -1.140625 0.953125l0 0.0625q0.859375 0.296875 1.40625 1.0q0.546875 0.703125 0.546875 1.640625q0 0.9375 -0.484375 1.6875q-0.46875 0.734375 -1.265625 1.15625q-0.78125 0.40625 -1.703125 0.40625l-4.328125 0l0 -11.453125zm4.109375 4.9375q0.578125 0 1.015625 -0.265625q0.4375 -0.265625 0.671875 -0.6875q0.25 -0.421875 0.25 -0.875q0 -0.421875 -0.234375 -0.84375q-0.234375 -0.421875 -0.65625 -0.6875q-0.421875 -0.28125 -0.984375 -0.28125l-2.8125 0l0 3.640625l2.75 0zm0.3125 5.21875q0.5625 0 1.015625 -0.28125q0.46875 -0.296875 0.71875 -0.75q0.25 -0.453125 0.25 -0.9375q0 -0.484375 -0.265625 -0.9375q-0.25 -0.453125 -0.71875 -0.734375q-0.46875 -0.28125 -1.078125 -0.28125l-2.984375 0l0 3.921875l3.0625 0z"
       id="path94" />
    <path
       fill="#767576"
       fill-rule="evenodd"
       d="m630.6468 536.86664l-1.9053955 0.054748535l-3.624939 0.6949463l-3.2531738 1.329834l-2.9452515 1.8496704l-2.5153809 2.3695679l-1.963501 2.7800293l-1.4116211 3.0645752l-0.73773193 3.4093018l-0.06390381 1.7949829l0.06390381 1.7949219l0.73773193 3.3491821l1.4116211 3.1247559l1.963501 2.774475l2.5153809 2.375061l2.9452515 1.8496704l3.2531738 1.329834l3.624939 0.6950073l1.9053955 0.0546875l1.8995972 -0.0546875l3.5610352 -0.6950073l3.3170776 -1.329834l2.9452515 -1.8496704l2.5153809 -2.375061l1.963501 -2.774475l1.4116211 -3.1247559l0.73779297 -3.3491821l0.06390381 -1.7949219l-0.06390381 -1.7949829l-0.73779297 -3.4093018l-1.4116211 -3.0645752l-1.963501 -2.7800293l-2.5153809 -2.3695679l-2.9452515 -1.8496704l-3.3170776 -1.329834l-3.5610352 -0.6949463l-1.8995972 -0.054748535z"
       id="path95" />
    <path
       fill="#000"
       fill-opacity="0"
       fill-rule="evenodd"
       d="m637.153 560.22833l-13.076477 0l0 -12.31842l13.076477 0l0 12.31842z"
       id="path96" />
    <path
       fill-rule="evenodd"
       stroke="#fff"
       stroke-linecap="butt"
       stroke-linejoin="round"
       stroke-width=".916"
       d="m637.153 560.22833l-13.076477 0l0 -12.31842l13.076477 0l0 12.31842z"
       id="path97" />
    <path
       fill="#000"
       fill-opacity="0"
       fill-rule="evenodd"
       d="m626.528 547.9099l0 -2.949646"
       id="path98" />
    <path
       fill-rule="evenodd"
       stroke="#fff"
       stroke-linecap="round"
       stroke-miterlimit="105.678"
       stroke-width=".916"
       d="m626.528 547.9099l0 -2.949646"
       id="path99" />
    <path
       fill="#000"
       fill-opacity="0"
       fill-rule="evenodd"
       d="m630.6467 547.9099l0 -2.949646"
       id="path100" />
    <path
       fill-rule="evenodd"
       stroke="#fff"
       stroke-linecap="round"
       stroke-miterlimit="105.678"
       stroke-width=".916"
       d="m630.6467 547.9099l0 -2.949646"
       id="path101" />
    <path
       fill="#000"
       fill-opacity="0"
       fill-rule="evenodd"
       d="m634.7596 547.9099l0 -2.949646"
       id="path102" />
    <path
       fill-rule="evenodd"
       stroke="#fff"
       stroke-linecap="round"
       stroke-miterlimit="105.678"
       stroke-width=".916"
       d="m634.7596 547.9099l0 -2.949646"
       id="path103" />
    <path
       fill="#000"
       fill-opacity="0"
       fill-rule="evenodd"
       d="m626.528 563.4679l0 -3.0098267"
       id="path104" />
    <path
       fill-rule="evenodd"
       stroke="#fff"
       stroke-linecap="round"
       stroke-miterlimit="105.678"
       stroke-width=".916"
       d="m626.528 563.4679l0 -3.0098267"
       id="path105" />
    <path
       fill="#000"
       fill-opacity="0"
       fill-rule="evenodd"
       d="m630.6467 563.4679l0 -3.0098267"
       id="path106" />
    <path
       fill-rule="evenodd"
       stroke="#fff"
       stroke-linecap="round"
       stroke-miterlimit="105.678"
       stroke-width=".916"
       d="m630.6467 563.4679l0 -3.0098267"
       id="path107" />
    <path
       fill="#000"
       fill-opacity="0"
       fill-rule="evenodd"
       d="m634.7596 563.4679l0 -3.0098267"
       id="path108" />
    <path
       fill-rule="evenodd"
       stroke="#fff"
       stroke-linecap="round"
       stroke-miterlimit="105.678"
       stroke-width=".916"
       d="m634.7596 563.4679l0 -3.0098267"
       id="path109" />
    <path
       fill="#000"
       fill-opacity="0"
       fill-rule="evenodd"
       d="m623.9546 558.0885l-3.1311646 0"
       id="path110" />
    <path
       fill-rule="evenodd"
       stroke="#fff"
       stroke-linecap="round"
       stroke-miterlimit="105.678"
       stroke-width=".916"
       d="m623.9546 558.0885l-3.1311646 0"
       id="path111" />
    <path
       fill="#000"
       fill-opacity="0"
       fill-rule="evenodd"
       d="m623.9546 554.21405l-3.1311646 0"
       id="path112" />
    <path
       fill-rule="evenodd"
       stroke="#fff"
       stroke-linecap="round"
       stroke-miterlimit="105.678"
       stroke-width=".916"
       d="m623.9546 554.21405l-3.1311646 0"
       id="path113" />
    <path
       fill="#000"
       fill-opacity="0"
       fill-rule="evenodd"
       d="m623.9546 550.3396l-3.1311646 0"
       id="path114" />
    <path
       fill-rule="evenodd"
       stroke="#fff"
       stroke-linecap="round"
       stroke-miterlimit="105.678"
       stroke-width=".916"
       d="m623.9546 550.3396l-3.1311646 0"
       id="path115" />
    <path
       fill="#000"
       fill-opacity="0"
       fill-rule="evenodd"
       d="m640.46423 558.0885l-3.18927 0"
       id="path116" />
    <path
       fill-rule="evenodd"
       stroke="#fff"
       stroke-linecap="round"
       stroke-miterlimit="105.678"
       stroke-width=".916"
       d="m640.46423 558.0885l-3.18927 0"
       id="path117" />
    <path
       fill="#000"
       fill-opacity="0"
       fill-rule="evenodd"
       d="m640.46423 554.21405l-3.18927 0"
       id="path118" />
    <path
       fill-rule="evenodd"
       stroke="#fff"
       stroke-linecap="round"
       stroke-miterlimit="105.678"
       stroke-width=".916"
       d="m640.46423 554.21405l-3.18927 0"
       id="path119" />
    <path
       fill="#000"
       fill-opacity="0"
       fill-rule="evenodd"
       d="m640.46423 550.3396l-3.18927 0"
       id="path120" />
    <path
       fill-rule="evenodd"
       stroke="#fff"
       stroke-linecap="round"
       stroke-miterlimit="105.678"
       stroke-width=".916"
       d="m640.46423 550.3396l-3.18927 0"
       id="path121" />
    <path
       fill="#fff"
       fill-rule="evenodd"
       d="m629.787 551.32465l-0.4298706 0.054748535l-0.73779297 0.29003906l-0.5518799 0.5198364l-0.30786133 0.6950073l0 0.40496826l0 1.619873l0 0.40496826l0.30786133 0.6949463l0.5518799 0.51989746l0.73779297 0.2845459l2.5734253 0l0.73779297 -0.2845459l0.5518799 -0.51989746l0.30786133 -0.6949463l0 -0.40496826l0 -1.619873l0 -0.40496826l-0.30786133 -0.6950073l-0.5518799 -0.5198364l-0.73779297 -0.29003906l-0.4298706 -0.054748535z"
       id="path122" />
    <path
       fill="#000"
       fill-opacity="0"
       fill-rule="evenodd"
       d="m672.3247 528.16516l0.37799072 -80.188995"
       id="path123" />
    <path
       fill-rule="evenodd"
       stroke="#46f"
       stroke-dasharray="8 6"
       stroke-linecap="butt"
       stroke-linejoin="round"
       stroke-width="2"
       d="m672.3247 528.16516l0.3456421 -73.3349"
       id="path124" />
    <path
       fill="#46f"
       fill-rule="evenodd"
       stroke="#46f"
       stroke-linecap="butt"
       stroke-width="2"
       d="m672.67035 454.83026l2.2385864 2.2597656l-2.2200317 -6.190094l-2.2782593 6.1688843z"
       id="path125" />
    <text
       xml:space="preserve"
       style="font-size:14.6667px;font-family:Helvetica;-inkscape-font-specification:Helvetica;fill:#000000"
       x="638.08728"
       y="234.09167"
       id="text125-96-7"><tspan
         sodipodi:role="line"
         id="tspan125-2-2"
         x="638.08728"
         y="234.09167">API 服务器</tspan></text>
  </g>
  <text
     xml:space="preserve"
     style="font-size:16px;fill:#466baf;fill-opacity:1"
     x="196.18936"
     y="306.12073"
     id="text1"><tspan
       sodipodi:role="line"
       id="tspan1"
       x="196.18936"
       y="306.12073"
       style="font-style:normal;font-variant:normal;font-weight:bold;font-stretch:normal;font-size:16px;font-family:sans-serif;-inkscape-font-specification:sans-serif;fill:#466baf;fill-opacity:1">配置 / 端点</tspan></text>
  <text
     xml:space="preserve"
     style="font-size:16px;fill:#466baf;fill-opacity:1"
     x="699.56329"
     y="306.76749"
     id="text1-7"><tspan
       sodipodi:role="line"
       id="tspan1-6"
       x="699.56329"
       y="306.76749"
       style="font-style:normal;font-variant:normal;font-weight:bold;font-stretch:normal;font-size:16px;font-family:sans-serif;-inkscape-font-specification:sans-serif;fill:#466baf;fill-opacity:1">配置 / 端点</tspan></text>
  <text
     xml:space="preserve"
     style="font-size:14.6667px;font-family:Helvetica;-inkscape-font-specification:Helvetica;fill:#000000"
     x="98.057251"
     y="58.402184"
     id="text123"><tspan
       sodipodi:role="line"
       id="tspan123"
       x="98.057251"
       y="58.402184"
       style="font-size:14.6667px">Istio 网格</tspan></text>
  <text
     xml:space="preserve"
     style="font-size:16px;fill:#466baf;fill-opacity:1"
     x="467.67407"
     y="317.77969"
     id="text1-4"><tspan
       sodipodi:role="line"
       id="tspan1-0"
       x="467.67407"
       y="317.77969"
       style="font-style:normal;font-variant:normal;font-weight:bold;font-stretch:normal;font-size:16px;font-family:sans-serif;-inkscape-font-specification:sans-serif;fill:#466baf;fill-opacity:1">端点</tspan></text>
  <text
     xml:space="preserve"
     style="font-size:14.6667px;font-family:Helvetica;-inkscape-font-specification:Helvetica;fill:#000000"
     x="182.0005"
     y="134.55965"
     id="text125"><tspan
       sodipodi:role="line"
       id="tspan125"
       x="182.0005"
       y="134.55965">集群：West</tspan></text>
  <text
     xml:space="preserve"
     style="font-size:14.6667px;font-family:Helvetica;-inkscape-font-specification:Helvetica;fill:#000000"
     x="554.74475"
     y="135.03587"
     id="text125-4"><tspan
       sodipodi:role="line"
       id="tspan125-9"
       x="554.74475"
       y="135.03587">集群：East</tspan></text>
  <text
     xml:space="preserve"
     style="font-size:14.6667px;font-family:Helvetica;-inkscape-font-specification:Helvetica;fill:#000000"
     x="262.22369"
     y="233.54356"
     id="text125-96"><tspan
       sodipodi:role="line"
       id="tspan125-2"
       x="262.22369"
       y="233.54356">API 服务器</tspan></text>
</svg>
