<svg id="ef55554b-b583-4065-9092-0fe3415e71e2" data-name="Layer 1" xmlns="http://www.w3.org/2000/svg" viewBox="0 0 682.76 343.99"><defs><style>.b792e856-f1f2-4f01-bd92-c860fd1c5e96,.bf4208ee-55dc-4cde-acab-db1ab46597cf{fill:#e5e5e4;}.e5d62a3a-9772-4800-a377-ef63216e94a2{fill:#fff;}.a9a59219-ca5b-45d9-9d96-37210eda282d{font-size:12.5px;}.a5c9222a-b419-4fd2-85f1-0a0ed32c5d12,.a914e673-5ec6-4d46-b4f0-4ecb75f399c1,.a9a59219-ca5b-45d9-9d96-37210eda282d,.b5506096-b9d7-4132-b182-3fead3116cb7,.e8b643a6-bd8f-410b-9763-64c8d5d3fd60,.fe389fac-adb7-4a44-a237-a780dc786f18{fill:#010101;}.a5c9222a-b419-4fd2-85f1-0a0ed32c5d12,.a914e673-5ec6-4d46-b4f0-4ecb75f399c1,.a94cde90-c787-4350-930a-97272e79f390,.a9a59219-ca5b-45d9-9d96-37210eda282d,.e8b643a6-bd8f-410b-9763-64c8d5d3fd60,.fe389fac-adb7-4a44-a237-a780dc786f18{font-family:GoogleSansDisplay-Regular, Google Sans Display;}.a3b7c17b-a3c9-41a1-be0b-ff22b97d7ac7{letter-spacing:-0.06em;}.e21983a8-bc1c-45e2-b86f-a2e722e813e9{letter-spacing:-0.01em;}.bbe11e91-1b5c-413a-9437-6238b03ba9f3{letter-spacing:0.01em;}.ea4a1efd-30e4-43bc-b181-fe231378edd6{letter-spacing:-0.01em;}.a6a76223-1353-4053-931f-9f86f14fbb3c{letter-spacing:-0.03em;}.a9b6bb0d-4cf7-4b91-b8a2-232f95309916{fill:#777678;}.a30f319d-5724-47a2-a30e-1201cb24e68e,.a3e5d3af-e309-4133-b630-8acc84bf3947,.ae468838-f032-4dc5-a31b-ac24f0e41256,.b2bc4466-1f48-4d1e-8d65-00ba04d73dbc,.f9c6216f-c095-4ae6-becb-8ecc05f9293b,.fdf48caa-df82-4290-a873-1af1932c0059{fill:none;}.ae468838-f032-4dc5-a31b-ac24f0e41256,.b2bc4466-1f48-4d1e-8d65-00ba04d73dbc{stroke:#fff;}.a30f319d-5724-47a2-a30e-1201cb24e68e,.a3e5d3af-e309-4133-b630-8acc84bf3947,.b2bc4466-1f48-4d1e-8d65-00ba04d73dbc,.fdf48caa-df82-4290-a873-1af1932c0059{stroke-linejoin:round;}.ae468838-f032-4dc5-a31b-ac24f0e41256,.b2bc4466-1f48-4d1e-8d65-00ba04d73dbc,.f9c6216f-c095-4ae6-becb-8ecc05f9293b{stroke-width:2px;}.a3e5d3af-e309-4133-b630-8acc84bf3947,.ae468838-f032-4dc5-a31b-ac24f0e41256{stroke-linecap:round;}.ae468838-f032-4dc5-a31b-ac24f0e41256,.bf4208ee-55dc-4cde-acab-db1ab46597cf,.f9c6216f-c095-4ae6-becb-8ecc05f9293b{stroke-miterlimit:10;}.fdf48caa-df82-4290-a873-1af1932c0059{stroke:#b24d9d;stroke-width:3px;}.fc768a6f-6ce0-42ca-928a-d5cb42fa705e{letter-spacing:-0.03em;}.a3d4d765-a57d-4ebe-9e24-2d9e83c10b12{letter-spacing:-0.02em;}.f9c6216f-c095-4ae6-becb-8ecc05f9293b{stroke:#07a14a;}.a9051e8f-5a3a-4a8d-ba7f-2b6692d2a70b{fill:#07a14a;}.a3e5d3af-e309-4133-b630-8acc84bf3947{stroke:#486baf;stroke-width:4px;stroke-dasharray:6 12;}.b9c01941-5661-4eae-a4aa-3a4b4afaea94{fill:#486baf;}.a30f319d-5724-47a2-a30e-1201cb24e68e{stroke:#466bb0;stroke-dasharray:9.96 9.96;}.a94cde90-c787-4350-930a-97272e79f390,.b5506096-b9d7-4132-b182-3fead3116cb7{font-size:12px;}.b5506096-b9d7-4132-b182-3fead3116cb7{font-family:GoogleSansDisplay-Bold, Google Sans Display;font-weight:700;}.b2dcf08b-99dc-4748-845e-4d25653b2dd7{letter-spacing:-0.01em;}.bfc11e9f-2574-438e-ac37-72e105a8cd68{letter-spacing:0.01em;}.b465f423-3454-4252-ac4e-6b4e44f30434{letter-spacing:0em;}.a3d6489b-d1e7-4f93-98a9-1eba05c3e97d{letter-spacing:-0.01em;}.a2384390-a5d0-4abb-a89a-7a8864b3b98c{letter-spacing:0em;}.bf4208ee-55dc-4cde-acab-db1ab46597cf{stroke:#777678;}.a914e673-5ec6-4d46-b4f0-4ecb75f399c1,.fe389fac-adb7-4a44-a237-a780dc786f18{isolation:isolate;}.a914e673-5ec6-4d46-b4f0-4ecb75f399c1{font-size:14px;}.ba491a27-d842-4eb4-9560-51fff2b9d621{letter-spacing:0em;}.b64c6350-6ae1-4dc7-8e8b-d354380c1eef{letter-spacing:0.01em;}.ba1ccbb9-cfb7-4414-a9d4-08046dad711b{letter-spacing:-0.01em;}.a96f55be-6822-4d0c-a840-072c5e9b5920{fill:#496caf;}.fe389fac-adb7-4a44-a237-a780dc786f18{font-size:8.96px;}.b3536708-eb14-412a-9b75-1202257901f6{letter-spacing:0em;}.f9f87398-cd7d-4278-bd80-de3519f5651b{letter-spacing:0em;}.f3b6ad48-db07-4881-8ffe-47c6f5cfe3e9{letter-spacing:0.02em;}.a219a8e3-51d6-43da-909b-6406792ddb66{letter-spacing:-0.02em;}.f63c4d7e-0cd8-48ae-a0d3-7fd961f22fde{letter-spacing:-0.01em;}.bcf8db7f-22f1-447a-89b7-81c5b951286d{letter-spacing:-0.01em;}.b39b1652-daf4-406c-ab7b-591bdb03a891{letter-spacing:0em;}.b1bf22c4-cdba-4ffa-a5e9-a595302a25e4{letter-spacing:-0.02em;}.af7738b3-45c7-43d4-a39a-cc1a8e98bb16{letter-spacing:-0.01em;}.bd80e36d-ab17-4851-b00a-dd09f231861b{letter-spacing:0.01em;}.e8b747a6-6a85-4ecb-8492-adecd2c6f78b{fill:#119a48;}.e8b643a6-bd8f-410b-9763-64c8d5d3fd60{font-size:10px;}.bedea749-024d-45ee-96f2-13df44e945a6{letter-spacing:-0.04em;}.bdccc1ee-2636-499c-947e-1a49350ce06a{letter-spacing:-0.03em;}.a94cde90-c787-4350-930a-97272e79f390{fill:#231f20;}.feae4a64-7ee7-434b-b781-0079671e94bf{letter-spacing:-0.02em;}.b2300162-2e14-4499-a217-dc20693a0df7{letter-spacing:-0.02em;}.fec8f349-525f-4158-8641-b9f235c32364{letter-spacing:-0.01em;}.f4d87825-5320-4af1-9758-a749fe292282{letter-spacing:-0.02em;}.b1763568-9fa4-4604-ba99-721965a8cff0{letter-spacing:-0.02em;}.bdd0311e-9c73-43de-9970-3501e8ed9fb8{letter-spacing:-0.06em;}.a2a65727-2476-4da5-8680-be44f2ae7859{letter-spacing:-0.01em;}.f991823a-6669-45e6-9cc5-a3b155901200{letter-spacing:0em;}.a89bd838-c646-4d00-8ac9-5984b72e70ac{letter-spacing:-0.01em;}.b301c5ae-ce54-4073-b4e9-5ea54a2906fe{letter-spacing:0em;}.add6bae2-5303-44e7-ae05-6a1da0337384{letter-spacing:0.01em;}.a7d867e3-99e3-43b9-93b0-a8129f4ef849{letter-spacing:-0.02em;}.a5c9222a-b419-4fd2-85f1-0a0ed32c5d12{font-size:7.08px;letter-spacing:-0.03em;}.bbefa2c9-6828-4af8-929e-ac5055195e75{letter-spacing:0em;}</style></defs><title>v1</title><rect class="b792e856-f1f2-4f01-bd92-c860fd1c5e96" x="130.05" y="40.96" width="127.56" height="134.03" rx="3"/><rect class="e5d62a3a-9772-4800-a377-ef63216e94a2" x="141.6" y="56.28" width="104.46" height="36.02" rx="3"/><text class="a9a59219-ca5b-45d9-9d96-37210eda282d" transform="translate(181.25 78.32)"><tspan class="a3b7c17b-a3c9-41a1-be0b-ff22b97d7ac7">W</tspan><tspan class="e21983a8-bc1c-45e2-b86f-a2e722e813e9" x="11.09" y="0">o</tspan><tspan class="bbe11e91-1b5c-413a-9437-6238b03ba9f3" x="18.17" y="0">r</tspan><tspan x="22.81" y="0">k</tspan><tspan class="ea4a1efd-30e4-43bc-b181-fe231378edd6" x="28.99" y="0">l</tspan><tspan x="31.54" y="0">o</tspan><tspan class="ea4a1efd-30e4-43bc-b181-fe231378edd6" x="38.75" y="0">a</tspan><tspan x="45.21" y="0">d</tspan><tspan class="a6a76223-1353-4053-931f-9f86f14fbb3c" x="52.58" y="0"> </tspan><tspan x="55.11" y="0">A</tspan></text><circle class="a9b6bb0d-4cf7-4b91-b8a2-232f95309916" cx="161.64" cy="74.29" r="16.07"/><rect class="b2bc4466-1f48-4d1e-8d65-00ba04d73dbc" x="155.94" y="68.48" width="11.42" height="11.42"/><line class="ae468838-f032-4dc5-a31b-ac24f0e41256" x1="158.05" y1="68.48" x2="158.05" y2="65.73"/><line class="ae468838-f032-4dc5-a31b-ac24f0e41256" x1="161.64" y1="68.48" x2="161.64" y2="65.73"/><line class="ae468838-f032-4dc5-a31b-ac24f0e41256" x1="165.24" y1="68.48" x2="165.24" y2="65.73"/><line class="ae468838-f032-4dc5-a31b-ac24f0e41256" x1="158.05" y1="82.85" x2="158.05" y2="80.11"/><line class="ae468838-f032-4dc5-a31b-ac24f0e41256" x1="161.64" y1="82.85" x2="161.64" y2="80.11"/><line class="ae468838-f032-4dc5-a31b-ac24f0e41256" x1="165.24" y1="82.85" x2="165.24" y2="80.11"/><line class="ae468838-f032-4dc5-a31b-ac24f0e41256" x1="155.83" y1="77.89" x2="153.08" y2="77.89"/><line class="ae468838-f032-4dc5-a31b-ac24f0e41256" x1="155.83" y1="74.29" x2="153.08" y2="74.29"/><line class="ae468838-f032-4dc5-a31b-ac24f0e41256" x1="155.83" y1="70.7" x2="153.08" y2="70.7"/><line class="ae468838-f032-4dc5-a31b-ac24f0e41256" x1="170.21" y1="77.89" x2="167.46" y2="77.89"/><line class="ae468838-f032-4dc5-a31b-ac24f0e41256" x1="170.21" y1="74.29" x2="167.46" y2="74.29"/><line class="ae468838-f032-4dc5-a31b-ac24f0e41256" x1="170.21" y1="70.7" x2="167.46" y2="70.7"/><rect class="e5d62a3a-9772-4800-a377-ef63216e94a2" x="159.11" y="71.65" width="5.07" height="5.07" rx="2"/><rect class="e5d62a3a-9772-4800-a377-ef63216e94a2" x="141.6" y="124.77" width="104.46" height="34.89" rx="3"/><polygon class="fdf48caa-df82-4290-a873-1af1932c0059" points="177.54 149.04 177.54 135.38 165.7 128.55 153.86 135.38 153.86 149.04 165.7 155.87 177.54 149.04"/><text class="a9a59219-ca5b-45d9-9d96-37210eda282d" transform="translate(188.4 146.18)">P<tspan class="fc768a6f-6ce0-42ca-928a-d5cb42fa705e" x="7.17" y="0">r</tspan><tspan class="a3d4d765-a57d-4ebe-9e24-2d9e83c10b12" x="11.37" y="0">o</tspan><tspan x="18.4" y="0">xy</tspan></text><line class="f9c6216f-c095-4ae6-becb-8ecc05f9293b" x1="193.83" y1="99.35" x2="193.83" y2="118.03"/><polygon class="a9051e8f-5a3a-4a8d-ba7f-2b6692d2a70b" points="188.84 100.81 193.82 92.17 198.81 100.81 188.84 100.81"/><polygon class="a9051e8f-5a3a-4a8d-ba7f-2b6692d2a70b" points="188.84 116.57 193.82 125.2 198.81 116.57 188.84 116.57"/><polyline class="a3e5d3af-e309-4133-b630-8acc84bf3947" points="193.82 166.84 193.82 224.95 345.21 224.95 345.21 272.61"/><polygon class="b9c01941-5661-4eae-a4aa-3a4b4afaea94" points="188.84 168.29 193.82 159.66 198.81 168.29 188.84 168.29"/><rect class="a30f319d-5724-47a2-a30e-1201cb24e68e" x="78.33" y="14.69" width="516.69" height="328.8" rx="10"/><text class="b5506096-b9d7-4132-b182-3fead3116cb7" transform="translate(78.33 10.3)">I<tspan class="b2dcf08b-99dc-4748-845e-4d25653b2dd7" x="3.52" y="0">s</tspan><tspan class="bfc11e9f-2574-438e-ac37-72e105a8cd68" x="9.38" y="0">t</tspan><tspan class="b2dcf08b-99dc-4748-845e-4d25653b2dd7" x="14.36" y="0">i</tspan><tspan class="b465f423-3454-4252-ac4e-6b4e44f30434" x="17.56" y="0">o </tspan><tspan class="a3d6489b-d1e7-4f93-98a9-1eba05c3e97d" x="27.46" y="0">M</tspan><tspan class="a2384390-a5d0-4abb-a89a-7a8864b3b98c" x="38.08" y="0">e</tspan><tspan class="b465f423-3454-4252-ac4e-6b4e44f30434" x="45" y="0">sh</tspan></text><rect class="b792e856-f1f2-4f01-bd92-c860fd1c5e96" x="416.56" y="40.96" width="127.56" height="134.03" rx="3"/><rect class="e5d62a3a-9772-4800-a377-ef63216e94a2" x="428.12" y="56.28" width="104.46" height="36.02" rx="3"/><text class="a9a59219-ca5b-45d9-9d96-37210eda282d" transform="translate(467.98 78.32)"><tspan class="a3b7c17b-a3c9-41a1-be0b-ff22b97d7ac7">W</tspan><tspan class="e21983a8-bc1c-45e2-b86f-a2e722e813e9" x="11.09" y="0">o</tspan><tspan class="bbe11e91-1b5c-413a-9437-6238b03ba9f3" x="18.17" y="0">r</tspan><tspan x="22.81" y="0">k</tspan><tspan class="ea4a1efd-30e4-43bc-b181-fe231378edd6" x="28.99" y="0">l</tspan><tspan x="31.54" y="0">o</tspan><tspan class="ea4a1efd-30e4-43bc-b181-fe231378edd6" x="38.75" y="0">a</tspan><tspan x="45.21" y="0">d B</tspan></text><circle class="a9b6bb0d-4cf7-4b91-b8a2-232f95309916" cx="448.16" cy="74.29" r="16.07"/><rect class="b2bc4466-1f48-4d1e-8d65-00ba04d73dbc" x="442.45" y="68.48" width="11.42" height="11.42"/><line class="ae468838-f032-4dc5-a31b-ac24f0e41256" x1="444.57" y1="68.48" x2="444.57" y2="65.73"/><line class="ae468838-f032-4dc5-a31b-ac24f0e41256" x1="448.16" y1="68.48" x2="448.16" y2="65.73"/><line class="ae468838-f032-4dc5-a31b-ac24f0e41256" x1="451.76" y1="68.48" x2="451.76" y2="65.73"/><line class="ae468838-f032-4dc5-a31b-ac24f0e41256" x1="444.57" y1="82.85" x2="444.57" y2="80.11"/><line class="ae468838-f032-4dc5-a31b-ac24f0e41256" x1="448.16" y1="82.85" x2="448.16" y2="80.11"/><line class="ae468838-f032-4dc5-a31b-ac24f0e41256" x1="451.76" y1="82.85" x2="451.76" y2="80.11"/><line class="ae468838-f032-4dc5-a31b-ac24f0e41256" x1="442.35" y1="77.89" x2="439.6" y2="77.89"/><line class="ae468838-f032-4dc5-a31b-ac24f0e41256" x1="442.35" y1="74.29" x2="439.6" y2="74.29"/><line class="ae468838-f032-4dc5-a31b-ac24f0e41256" x1="442.35" y1="70.7" x2="439.6" y2="70.7"/><line class="ae468838-f032-4dc5-a31b-ac24f0e41256" x1="456.73" y1="77.89" x2="453.98" y2="77.89"/><line class="ae468838-f032-4dc5-a31b-ac24f0e41256" x1="456.73" y1="74.29" x2="453.98" y2="74.29"/><line class="ae468838-f032-4dc5-a31b-ac24f0e41256" x1="456.73" y1="70.7" x2="453.98" y2="70.7"/><rect class="e5d62a3a-9772-4800-a377-ef63216e94a2" x="445.62" y="71.65" width="5.07" height="5.07" rx="2"/><rect class="e5d62a3a-9772-4800-a377-ef63216e94a2" x="428.12" y="124.77" width="104.46" height="34.89" rx="3"/><polygon class="fdf48caa-df82-4290-a873-1af1932c0059" points="464.06 149.04 464.06 135.38 452.22 128.55 440.38 135.38 440.38 149.04 452.22 155.87 464.06 149.04"/><text class="a9a59219-ca5b-45d9-9d96-37210eda282d" transform="translate(474.92 146.18)">P<tspan class="fc768a6f-6ce0-42ca-928a-d5cb42fa705e" x="7.17" y="0">r</tspan><tspan class="a3d4d765-a57d-4ebe-9e24-2d9e83c10b12" x="11.37" y="0">o</tspan><tspan x="18.4" y="0">xy</tspan></text><line class="f9c6216f-c095-4ae6-becb-8ecc05f9293b" x1="480.34" y1="99.35" x2="480.34" y2="118.03"/><polygon class="a9051e8f-5a3a-4a8d-ba7f-2b6692d2a70b" points="475.36 100.81 480.34 92.17 485.33 100.81 475.36 100.81"/><polygon class="a9051e8f-5a3a-4a8d-ba7f-2b6692d2a70b" points="475.36 116.57 480.34 125.2 485.33 116.57 475.36 116.57"/><rect class="bf4208ee-55dc-4cde-acab-db1ab46597cf" x="252.24" y="272.61" width="185.92" height="57.29" rx="3"/><text class="a914e673-5ec6-4d46-b4f0-4ecb75f399c1" transform="translate(294.89 305.49)">i<tspan class="ba491a27-d842-4eb4-9560-51fff2b9d621" x="3.14" y="0">s</tspan><tspan class="b64c6350-6ae1-4dc7-8e8b-d354380c1eef" x="9.55" y="0">t</tspan><tspan class="ba1ccbb9-cfb7-4414-a9d4-08046dad711b" x="14.63" y="0">i</tspan><tspan x="17.7" y="0">od</tspan></text><rect id="b79a2909-381e-4bc5-84ce-913057ad5020" data-name="background" class="a96f55be-6822-4d0c-a840-072c5e9b5920" x="262.84" y="287.48" width="27.55" height="27.55"/><polygon id="f9a825d2-1cc9-4d15-b6e0-0c8a27d463a2" data-name="hull" class="e5d62a3a-9772-4800-a377-ef63216e94a2" points="269.66 308.74 283.57 308.74 274.91 311.36 269.66 308.74"/><polygon id="b689f886-ed52-4e35-9b11-cc94725cdf0b" data-name="mainsail" class="e5d62a3a-9772-4800-a377-ef63216e94a2" points="269.66 307.95 274.91 307.16 274.91 297.71 269.66 307.95"/><polygon id="b76d7764-92e2-43d7-a9e0-2d1bf64785f2" data-name="headsail" class="e5d62a3a-9772-4800-a377-ef63216e94a2" points="275.7 307.16 283.57 307.95 275.7 290.89 275.7 307.16"/><path class="e5d62a3a-9772-4800-a377-ef63216e94a2" d="M425.12,315.46h-74.6a3,3,0,0,1-3-3v-22.4a3.08,3.08,0,0,1,3-3h74.6a3.08,3.08,0,0,1,3,3v22.4A3,3,0,0,1,425.12,315.46Z"/><text class="fe389fac-adb7-4a44-a237-a780dc786f18" transform="translate(367.56 298.59)">API <tspan class="b3536708-eb14-412a-9b75-1202257901f6" x="15.39" y="0">s</tspan><tspan class="f9f87398-cd7d-4278-bd80-de3519f5651b" x="19.59" y="0">e</tspan><tspan class="f3b6ad48-db07-4881-8ffe-47c6f5cfe3e9" x="24.51" y="0">r</tspan><tspan class="a219a8e3-51d6-43da-909b-6406792ddb66" x="27.95" y="0">v</tspan><tspan class="f9f87398-cd7d-4278-bd80-de3519f5651b" x="32.31" y="0">er</tspan><tspan class="f63c4d7e-0cd8-48ae-a0d3-7fd961f22fde" x="-6.25" y="10.75">c</tspan><tspan class="bcf8db7f-22f1-447a-89b7-81c5b951286d" x="-1.51" y="10.75">onf</tspan><tspan class="b39b1652-daf4-406c-ab7b-591bdb03a891" x="11.67" y="10.75">ig</tspan><tspan x="18.86" y="10.75">u</tspan><tspan class="b1bf22c4-cdba-4ffa-a5e9-a595302a25e4" x="23.82" y="10.75">r</tspan><tspan class="af7738b3-45c7-43d4-a39a-cc1a8e98bb16" x="26.92" y="10.75">a</tspan><tspan class="bd80e36d-ab17-4851-b00a-dd09f231861b" x="31.51" y="10.75">t</tspan><tspan class="b39b1652-daf4-406c-ab7b-591bdb03a891" x="34.76" y="10.75">i</tspan><tspan class="af7738b3-45c7-43d4-a39a-cc1a8e98bb16" x="36.72" y="10.75">o</tspan><tspan x="41.8" y="10.75">n</tspan></text><path class="e8b747a6-6a85-4ecb-8492-adecd2c6f78b" d="M42.35,129.74a1.34,1.34,0,0,1,1,.41,1.31,1.31,0,0,1,.41,1v5.58a1.4,1.4,0,0,1-1.39,1.39H32.12a1.31,1.31,0,0,1-1-.41,1.34,1.34,0,0,1-.41-1v-5.58a1.4,1.4,0,0,1,1.4-1.4h.7v-2.09a4.28,4.28,0,0,1,.59-2.21A4.52,4.52,0,0,1,35,123.83a4.37,4.37,0,0,1,4.42,0,4.36,4.36,0,0,1,1.61,1.61,4.29,4.29,0,0,1,.6,2.21v2.09Zm-3,0v-2.09a2.09,2.09,0,1,0-4.18,0v2.09Z"/><text class="e8b643a6-bd8f-410b-9763-64c8d5d3fd60" transform="translate(15.41 106.23)">JWT+<tspan class="bedea749-024d-45ee-96f2-13df44e945a6" x="25.68" y="0"> </tspan><tspan x="27.6" y="0">TLS</tspan><tspan class="bdccc1ee-2636-499c-947e-1a49350ce06a" x="9.63" y="12">m</tspan><tspan x="17.97" y="12">TLS</tspan></text><line class="f9c6216f-c095-4ae6-becb-8ecc05f9293b" y1="144.1" x2="134.42" y2="144.1"/><polygon class="a9051e8f-5a3a-4a8d-ba7f-2b6692d2a70b" points="132.96 149.09 141.6 144.1 132.96 139.12 132.96 149.09"/><path class="e8b747a6-6a85-4ecb-8492-adecd2c6f78b" d="M633.61,129.35a1.34,1.34,0,0,1,1,.4,1.38,1.38,0,0,1,.41,1v5.58a1.4,1.4,0,0,1-1.4,1.4H623.38a1.34,1.34,0,0,1-1-.41,1.31,1.31,0,0,1-.41-1v-5.58a1.38,1.38,0,0,1,1.39-1.39h.7v-2.09a4.41,4.41,0,0,1,6.63-3.82,4.44,4.44,0,0,1,1.61,1.61,4.26,4.26,0,0,1,.59,2.21v2.09Zm-3,0v-2.09a2,2,0,0,0-.61-1.49,2.1,2.1,0,0,0-3,0,2,2,0,0,0-.61,1.49v2.09Z"/><text class="e8b643a6-bd8f-410b-9763-64c8d5d3fd60" transform="translate(606.68 105.83)">JWT+<tspan class="bedea749-024d-45ee-96f2-13df44e945a6" x="25.68" y="0"> </tspan><tspan x="27.6" y="0">TLS</tspan><tspan class="bdccc1ee-2636-499c-947e-1a49350ce06a" x="9.63" y="12">m</tspan><tspan x="17.97" y="12">TLS</tspan></text><line class="f9c6216f-c095-4ae6-becb-8ecc05f9293b" x1="532.57" y1="143.71" x2="666.99" y2="143.71"/><polygon class="a9051e8f-5a3a-4a8d-ba7f-2b6692d2a70b" points="665.53 148.69 674.17 143.71 665.53 138.72 665.53 148.69"/><line class="f9c6216f-c095-4ae6-becb-8ecc05f9293b" x1="253.23" y1="142.21" x2="420.94" y2="142.21"/><polygon class="a9051e8f-5a3a-4a8d-ba7f-2b6692d2a70b" points="254.69 147.2 246.05 142.21 254.69 137.23 254.69 147.2"/><polygon class="a9051e8f-5a3a-4a8d-ba7f-2b6692d2a70b" points="419.48 147.2 428.12 142.21 419.48 137.23 419.48 147.2"/><polyline class="a3e5d3af-e309-4133-b630-8acc84bf3947" points="480.34 166.84 480.34 224.95 345.21 224.95"/><polygon class="b9c01941-5661-4eae-a4aa-3a4b4afaea94" points="475.36 168.29 480.34 159.66 485.33 168.29 475.36 168.29"/><path class="a9b6bb0d-4cf7-4b91-b8a2-232f95309916" d="M649.49,295.38a8.3,8.3,0,0,1,4.24,1.14,8.38,8.38,0,0,1,3.1,3.1,8.3,8.3,0,0,1,1.14,4.24v2.66a3,3,0,0,1-3,3H632.66a3,3,0,0,1-3-3v-2.66a8.3,8.3,0,0,1,1.14-4.24,8.38,8.38,0,0,1,3.1-3.1,8.3,8.3,0,0,1,4.24-1.14h1.08a11,11,0,0,0,9.23,0Zm-5.7-2a8.14,8.14,0,0,1-7-12.18,7.93,7.93,0,0,1,2.94-2.95,8.33,8.33,0,0,1,8.17,0,7.93,7.93,0,0,1,2.94,2.95,8.31,8.31,0,0,1,0,8.16,8,8,0,0,1-7,4Z"/><text class="a94cde90-c787-4350-930a-97272e79f390" transform="translate(604.82 325.36)"><tspan class="feae4a64-7ee7-434b-b781-0079671e94bf">A</tspan><tspan x="7.84" y="0">dmini</tspan><tspan class="b2dcf08b-99dc-4748-845e-4d25653b2dd7" x="37.31" y="0">s</tspan><tspan x="42.8" y="0">t</tspan><tspan class="b2300162-2e14-4499-a217-dc20693a0df7" x="47.1" y="0">r</tspan><tspan class="fec8f349-525f-4158-8641-b9f235c32364" x="51.25" y="0">a</tspan><tspan class="f4d87825-5320-4af1-9758-a749fe292282" x="57.4" y="0">t</tspan><tspan class="a3d6489b-d1e7-4f93-98a9-1eba05c3e97d" x="61.43" y="0">o</tspan><tspan class="b1763568-9fa4-4604-ba99-721965a8cff0" x="68.23" y="0">r</tspan><tspan x="72.38" y="0">s</tspan></text><line class="a3e5d3af-e309-4133-b630-8acc84bf3947" x1="435.29" y1="301.26" x2="620.16" y2="301.26"/><polygon class="b9c01941-5661-4eae-a4aa-3a4b4afaea94" points="436.75 306.24 428.12 301.26 436.75 296.27 436.75 306.24"/><text class="a94cde90-c787-4350-930a-97272e79f390" transform="translate(163.36 242.14)"><tspan class="bdd0311e-9c73-43de-9970-3501e8ed9fb8">W</tspan><tspan class="a2a65727-2476-4da5-8680-be44f2ae7859" x="10.64" y="0">o</tspan><tspan class="a2384390-a5d0-4abb-a89a-7a8864b3b98c" x="17.45" y="0">r</tspan><tspan class="f991823a-6669-45e6-9cc5-a3b155901200" x="21.9" y="0">k</tspan><tspan class="a89bd838-c646-4d00-8ac9-5984b72e70ac" x="27.83" y="0">l</tspan><tspan x="30.28" y="0">o</tspan><tspan class="b301c5ae-ce54-4073-b4e9-5ea54a2906fe" x="37.2" y="0">a</tspan><tspan x="43.4" y="0">d</tspan><tspan class="bdccc1ee-2636-499c-947e-1a49350ce06a" x="50.48" y="0"> </tspan><tspan class="f991823a-6669-45e6-9cc5-a3b155901200" x="52.91" y="0">A</tspan><tspan x="-4.53" y="14.4">a</tspan><tspan class="add6bae2-5303-44e7-ae05-6a1da0337384" x="1.73" y="14.4">ut</tspan><tspan x="12.8" y="14.4">h</tspan><tspan class="fec8f349-525f-4158-8641-b9f235c32364" x="19.46" y="14.4">o</tspan><tspan class="f991823a-6669-45e6-9cc5-a3b155901200" x="26.26" y="14.4">ri</tspan><tspan class="fec8f349-525f-4158-8641-b9f235c32364" x="33.34" y="14.4">za</tspan><tspan class="a2384390-a5d0-4abb-a89a-7a8864b3b98c" x="45.02" y="14.4">t</tspan><tspan class="b301c5ae-ce54-4073-b4e9-5ea54a2906fe" x="49.37" y="14.4">i</tspan><tspan class="fec8f349-525f-4158-8641-b9f235c32364" x="52" y="14.4">o</tspan><tspan x="58.81" y="14.4">n</tspan><tspan x="10.32" y="28.8">p</tspan><tspan class="b301c5ae-ce54-4073-b4e9-5ea54a2906fe" x="17.35" y="28.8">o</tspan><tspan x="24.22" y="28.8">l</tspan><tspan class="a89bd838-c646-4d00-8ac9-5984b72e70ac" x="26.72" y="28.8">i</tspan><tspan x="29.35" y="28.8">c</tspan><tspan class="b301c5ae-ce54-4073-b4e9-5ea54a2906fe" x="35.76" y="28.8">i</tspan><tspan class="a2384390-a5d0-4abb-a89a-7a8864b3b98c" x="38.39" y="28.8">e</tspan><tspan class="f991823a-6669-45e6-9cc5-a3b155901200" x="45.05" y="28.8">s</tspan></text><text class="a94cde90-c787-4350-930a-97272e79f390" transform="translate(450.09 242.14)"><tspan class="bdd0311e-9c73-43de-9970-3501e8ed9fb8">W</tspan><tspan class="a2a65727-2476-4da5-8680-be44f2ae7859" x="10.64" y="0">o</tspan><tspan class="a2384390-a5d0-4abb-a89a-7a8864b3b98c" x="17.45" y="0">r</tspan><tspan x="21.9" y="0">k</tspan><tspan class="b301c5ae-ce54-4073-b4e9-5ea54a2906fe" x="27.83" y="0">l</tspan><tspan class="f991823a-6669-45e6-9cc5-a3b155901200" x="30.28" y="0">o</tspan><tspan class="a89bd838-c646-4d00-8ac9-5984b72e70ac" x="37.2" y="0">a</tspan><tspan x="43.4" y="0">d B</tspan><tspan x="-4.73" y="14.4">a</tspan><tspan class="add6bae2-5303-44e7-ae05-6a1da0337384" x="1.53" y="14.4">ut</tspan><tspan x="12.59" y="14.4">h</tspan><tspan class="fec8f349-525f-4158-8641-b9f235c32364" x="19.25" y="14.4">o</tspan><tspan class="f991823a-6669-45e6-9cc5-a3b155901200" x="26.06" y="14.4">ri</tspan><tspan class="fec8f349-525f-4158-8641-b9f235c32364" x="33.14" y="14.4">za</tspan><tspan class="a2384390-a5d0-4abb-a89a-7a8864b3b98c" x="44.81" y="14.4">t</tspan><tspan class="b301c5ae-ce54-4073-b4e9-5ea54a2906fe" x="49.17" y="14.4">i</tspan><tspan class="fec8f349-525f-4158-8641-b9f235c32364" x="51.8" y="14.4">o</tspan><tspan x="58.6" y="14.4">n</tspan><tspan x="10.12" y="28.8">p</tspan><tspan class="b301c5ae-ce54-4073-b4e9-5ea54a2906fe" x="17.15" y="28.8">o</tspan><tspan x="24.01" y="28.8">l</tspan><tspan class="a89bd838-c646-4d00-8ac9-5984b72e70ac" x="26.52" y="28.8">i</tspan><tspan x="29.15" y="28.8">c</tspan><tspan class="b301c5ae-ce54-4073-b4e9-5ea54a2906fe" x="35.56" y="28.8">i</tspan><tspan class="a2384390-a5d0-4abb-a89a-7a8864b3b98c" x="38.18" y="28.8">e</tspan><tspan class="f991823a-6669-45e6-9cc5-a3b155901200" x="44.84" y="28.8">s</tspan></text><text class="a94cde90-c787-4350-930a-97272e79f390" transform="translate(488.42 318.04)"><tspan class="a7d867e3-99e3-43b9-93b0-a8129f4ef849">A</tspan><tspan class="add6bae2-5303-44e7-ae05-6a1da0337384" x="7.72" y="0">ut</tspan><tspan x="18.78" y="0">h</tspan><tspan class="fec8f349-525f-4158-8641-b9f235c32364" x="25.44" y="0">o</tspan><tspan class="f991823a-6669-45e6-9cc5-a3b155901200" x="32.24" y="0">ri</tspan><tspan class="fec8f349-525f-4158-8641-b9f235c32364" x="39.32" y="0">za</tspan><tspan class="add6bae2-5303-44e7-ae05-6a1da0337384" x="51" y="0">t</tspan><tspan class="a89bd838-c646-4d00-8ac9-5984b72e70ac" x="55.36" y="0">i</tspan><tspan class="fec8f349-525f-4158-8641-b9f235c32364" x="57.98" y="0">o</tspan><tspan x="64.79" y="0">n</tspan><tspan x="15.58" y="14.4">p</tspan><tspan class="b301c5ae-ce54-4073-b4e9-5ea54a2906fe" x="22.61" y="14.4">o</tspan><tspan x="29.47" y="14.4">l</tspan><tspan class="a89bd838-c646-4d00-8ac9-5984b72e70ac" x="31.98" y="14.4">i</tspan><tspan x="34.61" y="14.4">c</tspan><tspan class="b301c5ae-ce54-4073-b4e9-5ea54a2906fe" x="41.02" y="14.4">i</tspan><tspan class="a2384390-a5d0-4abb-a89a-7a8864b3b98c" x="43.64" y="14.4">e</tspan><tspan class="f991823a-6669-45e6-9cc5-a3b155901200" x="50.3" y="14.4">s</tspan></text><path class="e8b747a6-6a85-4ecb-8492-adecd2c6f78b" d="M342.2,129.74a1.38,1.38,0,0,1,1.39,1.4v5.58a1.34,1.34,0,0,1-.4,1,1.31,1.31,0,0,1-1,.41H332a1.31,1.31,0,0,1-1-.41,1.34,1.34,0,0,1-.4-1v-5.58a1.38,1.38,0,0,1,1.39-1.4h.7v-2.09a4.38,4.38,0,0,1,.59-2.21,4.47,4.47,0,0,1,1.62-1.61,4.35,4.35,0,0,1,4.41,0,4.47,4.47,0,0,1,1.62,1.61,4.38,4.38,0,0,1,.59,2.21v2.09Zm-3,0v-2.09a2,2,0,0,0-.61-1.48,2.11,2.11,0,0,0-3,0,2,2,0,0,0-.61,1.48v2.09Z"/><text class="a5c9222a-b419-4fd2-85f1-0a0ed32c5d12" transform="translate(328.45 121.82)">m<tspan class="bbefa2c9-6828-4af8-929e-ac5055195e75" x="5.91" y="0">TLS</tspan></text></svg>