<svg version="1.1" viewBox="0 0 1200 600" xmlns="http://www.w3.org/2000/svg" xmlns:bx="https://boxy-svg.com">
  <g id="logo" fill="#fff">
    <rect id="background" width="1200" height="600" fill="#516baa"></rect>
    <path class="cls-1" d="M 590.18 312.012 L 590.18 405.398 C 590.182 405.571 590.058 405.722 589.887 405.751 L 500.41 421.164 C 500.215 421.192 500.032 421.058 500.004 420.861 C 499.994 420.794 500.002 420.727 500.029 420.667 L 589.506 219.858 C 589.591 219.679 589.807 219.605 589.984 219.691 C 590.106 219.75 590.184 219.872 590.186 220.008 L 590.18 312.012 Z M 605.26 258.195 L 605.26 405.787 C 605.263 405.967 605.398 406.118 605.577 406.14 L 739.606 421.18 C 739.803 421.202 739.978 421.058 739.997 420.861 C 740.005 420.799 739.995 420.734 739.969 420.676 L 605.942 119.875 C 605.856 119.695 605.642 119.621 605.462 119.706 C 605.343 119.765 605.265 119.885 605.26 120.018 L 605.26 258.195 Z M 738.579 434.952 L 590.317 479.647 C 590.235 479.678 590.143 479.678 590.06 479.647 L 500.47 434.952 C 500.292 434.872 500.211 434.664 500.289 434.484 C 500.348 434.352 500.48 434.268 500.625 434.272 L 738.476 434.272 C 738.673 434.304 738.805 434.488 738.773 434.685 C 738.754 434.8 738.682 434.899 738.579 434.952 Z" style="fill: rgb(255, 255, 255);" bx:origin="0.5 0.5"></path>
  </g>
</svg>