<svg id="icon-examples.svg" xmlns="http://www.w3.org/2000/svg" width="25" height="27" viewBox="0 0 25 27">
  <defs>
    <style>
      .cls-1 {
        fill: none;
        stroke: #000;
        stroke-width: 2px;
      }

      .cls-2 {
        fill-rule: evenodd;
      }
    </style>
  </defs>
  <rect id="Rounded_Rectangle_1434" data-name="Rounded Rectangle 1434" class="cls-1" x="1" y="1" width="17" height="17" rx="2" ry="2"/>
  <path class="cls-2" d="M2206,1721h2v2h-2v-2Zm4,0h2v2h-2v-2Zm4,0h2v2h-2v-2Zm4,0h2v2h-2v-2Zm4,0h2v2h-2v-2Zm-16,4h2v2h-2v-2Zm16,0h2v2h-2v-2Zm-16,4h2v2h-2v-2Zm16,0h2v2h-2v-2Zm-16,4h2v2h-2v-2Zm16,0h2v2h-2v-2Zm-16,4h2v2h-2v-2Zm4,0h2v2h-2v-2Zm4,0h2v2h-2v-2Zm4,0h2v2h-2v-2Zm4,0h2v2h-2v-2Z" transform="translate(-2199 -1712)"/>
</svg>
