<svg xmlns="http://www.w3.org/2000/svg" xmlns:osb="http://www.openswatchbook.org/uri/2009/osb" xmlns:svg="http://www.w3.org/2000/svg" style="fill:none;stroke:none;stroke-linecap:square;stroke-miterlimit:10" id="svg1497" width="594.677" height="313.955" stroke-miterlimit="10" version="1.1" viewBox="0 0 594.677 313.955"><metadata id="metadata1503"/><defs id="defs1501"><marker style="overflow:visible" id="marker5874" orient="auto" refX="0" refY="0"><path style="fill:#000;fill-opacity:1;fill-rule:evenodd;stroke:#000;stroke-width:1.00000003pt;stroke-opacity:1" id="path5872" d="M 0,0 5,-5 -12.5,0 5,5 Z" transform="matrix(0.8,0,0,0.8,10,0)"/></marker><marker style="overflow:visible" id="marker9191" orient="auto" refX="0" refY="0"><path style="fill:#000;fill-opacity:1;fill-rule:evenodd;stroke:#000;stroke-width:1.00000003pt;stroke-opacity:1" id="path9189" d="M 0,0 5,-5 -12.5,0 5,5 Z" transform="matrix(-0.8,0,0,-0.8,-10,0)"/></marker><marker id="marker8937" orient="auto" refX="0" refY="0" style="overflow:visible"><path id="path8935" d="M 0,0 5,-5 -12.5,0 5,5 Z" transform="matrix(0.8,0,0,0.8,10,0)" style="fill:#000;fill-opacity:1;fill-rule:evenodd;stroke:#000;stroke-width:1.00000003pt;stroke-opacity:1"/></marker><marker style="overflow:visible" id="marker7569" orient="auto" refX="0" refY="0"><path style="fill:#000;fill-opacity:1;fill-rule:evenodd;stroke:#000;stroke-width:1.00000003pt;stroke-opacity:1" id="path7567" d="M 0,0 5,-5 -12.5,0 5,5 Z" transform="matrix(0.8,0,0,0.8,10,0)"/></marker><marker style="overflow:visible" id="marker7565" orient="auto" refX="0" refY="0"><path style="fill:#000;fill-opacity:1;fill-rule:evenodd;stroke:#000;stroke-width:1.00000003000000004pt;stroke-opacity:1" id="path7563" d="M 0,0 5,-5 -12.5,0 5,5 Z" transform="matrix(0.8,0,0,0.8,10,0)"/></marker><marker style="overflow:visible" id="marker7561" orient="auto" refX="0" refY="0"><path style="fill:#000;fill-opacity:1;fill-rule:evenodd;stroke:#000;stroke-width:1.00000003pt;stroke-opacity:1" id="path7559" d="M 0,0 5,-5 -12.5,0 5,5 Z" transform="matrix(-0.8,0,0,-0.8,-10,0)"/></marker><marker style="overflow:visible" id="marker7557" orient="auto" refX="0" refY="0"><path style="fill:#000;fill-opacity:1;fill-rule:evenodd;stroke:#000;stroke-width:1.00000003000000004pt;stroke-opacity:1" id="path7555" d="M 0,0 5,-5 -12.5,0 5,5 Z" transform="matrix(-0.8,0,0,-0.8,-10,0)"/></marker><marker style="overflow:visible" id="marker7553" orient="auto" refX="0" refY="0"><path style="fill-rule:evenodd;stroke:#000;stroke-width:1.00000003pt;stroke-opacity:1" id="path7551" d="M 0,0 5,-5 -12.5,0 5,5 Z" transform="matrix(-0.8,0,0,-0.8,-10,0)"/></marker><linearGradient id="linearGradient7205" osb:paint="solid"><stop id="stop7203" offset="0" style="stop-color:#000;stop-opacity:1"/></linearGradient><marker style="overflow:visible" id="marker5767" orient="auto" refX="0" refY="0"><path style="fill:#000;fill-opacity:1;fill-rule:evenodd;stroke:#000;stroke-width:1.00000003pt;stroke-opacity:1" id="path5765" d="M 0,0 5,-5 -12.5,0 5,5 Z" transform="matrix(-0.8,0,0,-0.8,-10,0)"/></marker><marker style="overflow:visible" id="marker5763" orient="auto" refX="0" refY="0"><path style="fill-rule:evenodd;stroke:#000;stroke-width:.625;stroke-linejoin:round;stroke-opacity:1" id="path5761" d="M 8.7185878,4.0337352 -2.2072895,0.01601326 8.7185884,-4.0017078 c -1.7454984,2.3720609 -1.7354408,5.6174519 -6e-7,8.035443 z" transform="matrix(-1.1,0,0,-1.1,-1.1,0)"/></marker><marker style="overflow:visible" id="marker5759" orient="auto" refX="0" refY="0"><path style="fill-rule:evenodd;stroke:#000;stroke-width:1.00000003pt;stroke-opacity:1" id="path5757" d="M 0,0 5,-5 -12.5,0 5,5 Z" transform="matrix(-0.8,0,0,-0.8,-10,0)"/></marker><marker style="overflow:visible" id="marker5755" orient="auto" refX="0" refY="0"><path style="fill-rule:evenodd;stroke:#000;stroke-width:.625;stroke-linejoin:round;stroke-opacity:1" id="path5753" d="M 8.7185878,4.0337352 -2.2072895,0.01601326 8.7185884,-4.0017078 c -1.7454984,2.3720609 -1.7354408,5.6174519 -6e-7,8.035443 z" transform="matrix(-1.1,0,0,-1.1,-1.1,0)"/></marker><marker style="overflow:visible" id="Arrow2Mend" orient="auto" refX="0" refY="0"><path style="fill-rule:evenodd;stroke:#000;stroke-width:.625;stroke-linejoin:round;stroke-opacity:1" id="path5488" d="M 8.7185878,4.0337352 -2.2072895,0.01601326 8.7185884,-4.0017078 c -1.7454984,2.3720609 -1.7354408,5.6174519 -6e-7,8.035443 z" transform="scale(-0.6)"/></marker><marker style="overflow:visible" id="Arrow2Send" orient="auto" refX="0" refY="0"><path style="fill-rule:evenodd;stroke:#000;stroke-width:.625;stroke-linejoin:round;stroke-opacity:1" id="path5494" d="M 8.7185878,4.0337352 -2.2072895,0.01601326 8.7185884,-4.0017078 c -1.7454984,2.3720609 -1.7354408,5.6174519 -6e-7,8.035443 z" transform="matrix(-0.3,0,0,-0.3,0.69,0)"/></marker><marker style="overflow:visible" id="Arrow2Lend" orient="auto" refX="0" refY="0"><path style="fill-rule:evenodd;stroke:#000;stroke-width:.625;stroke-linejoin:round;stroke-opacity:1" id="path5482" d="M 8.7185878,4.0337352 -2.2072895,0.01601326 8.7185884,-4.0017078 c -1.7454984,2.3720609 -1.7354408,5.6174519 -6e-7,8.035443 z" transform="matrix(-1.1,0,0,-1.1,-1.1,0)"/></marker><marker style="overflow:visible" id="marker5741" orient="auto" refX="0" refY="0"><path style="fill-rule:evenodd;stroke:#000;stroke-width:1.00000003pt;stroke-opacity:1" id="path5739" d="M 0,0 5,-5 -12.5,0 5,5 Z" transform="matrix(-0.8,0,0,-0.8,-10,0)"/></marker><marker style="overflow:visible" id="Arrow1Lstart" orient="auto" refX="0" refY="0"><path style="fill-rule:evenodd;stroke:#000;stroke-width:1.00000003pt;stroke-opacity:1" id="path5461" d="M 0,0 5,-5 -12.5,0 5,5 Z" transform="matrix(0.8,0,0,0.8,10,0)"/></marker><marker style="overflow:visible" id="marker5731" orient="auto" refX="0" refY="0"><path style="fill-rule:evenodd;stroke:#000;stroke-width:1.00000003pt;stroke-opacity:1" id="path5729" d="M 0,0 5,-5 -12.5,0 5,5 Z" transform="matrix(-0.8,0,0,-0.8,-10,0)"/></marker><marker style="overflow:visible" id="marker5727" orient="auto" refX="0" refY="0"><path style="fill-rule:evenodd;stroke:#000;stroke-width:1.00000003pt;stroke-opacity:1" id="path5725" d="M 0,0 5,-5 -12.5,0 5,5 Z" transform="matrix(-0.8,0,0,-0.8,-10,0)"/></marker><marker style="overflow:visible" id="Arrow1Lend" orient="auto" refX="0" refY="0"><path style="fill-rule:evenodd;stroke:#000;stroke-width:1.00000003pt;stroke-opacity:1" id="path5464" d="M 0,0 5,-5 -12.5,0 5,5 Z" transform="matrix(-0.8,0,0,-0.8,-10,0)"/></marker><marker style="overflow:visible" id="marker5767-8" orient="auto" refX="0" refY="0"><path style="fill:#000;fill-opacity:1;fill-rule:evenodd;stroke:#000;stroke-width:1.00000003pt;stroke-opacity:1" id="path5765-5" d="M 0,0 5,-5 -12.5,0 5,5 Z" transform="matrix(-0.8,0,0,-0.8,-10,0)"/></marker></defs><clipPath id="p.0"><path style="clip-rule:nonzero" id="path1282" d="M 0,0 H 604.94226 V 452.45407 H 0 Z"/></clipPath><path id="path1415" d="M 202.55389,78.437689 H 352.8166 V 123.36661 H 202.55389 Z" style="fill:#cfe2f3;fill-rule:evenodd;stroke-width:1"/><path id="path1285" d="M 21.822584,-29.488906 H 626.76484 V 422.96516 H 21.822584 Z" style="fill:#000;fill-opacity:0;fill-rule:evenodd"/><path id="path1331" d="m 394.09694,87.233004 v 0 c 0,-3.77475 4.23014,-6.83479 9.44829,-6.83479 h 167.71434 c 2.50582,0 4.90906,0.7201 6.6809,2.00187 1.77194,1.28176 2.76739,3.02022 2.76739,4.83292 v 27.338306 c 0,3.77473 -4.23017,6.83478 -9.44829,6.83478 H 403.54523 c -5.21815,0 -9.44829,-3.06005 -9.44829,-6.83478 z" style="fill:#d9ead3;fill-rule:evenodd;stroke-width:1"/><path id="path1333" d="m 393.74339,87.233004 v 0 c 0,-3.77475 4.24616,-6.83479 9.48409,-6.83479 h 168.34984 c 2.51532,0 4.92767,0.7201 6.70622,2.00187 1.77865,1.28176 2.77788,3.02022 2.77788,4.83292 v 27.338306 c 0,3.77473 -4.2462,6.83478 -9.4841,6.83478 H 403.22748 c -5.23793,0 -9.48409,-3.06005 -9.48409,-6.83478 z" style="fill-rule:evenodd;stroke:#000;stroke-width:1;stroke-linecap:butt;stroke-linejoin:round"/><path id="path1357" d="m 135.83045,18.518967 112,142.992123" style="fill:#000;fill-opacity:0;fill-rule:evenodd"/><path id="path1375" d="M 376.83045,185.51109 473.83832,90.518964" style="fill:#000;fill-opacity:0;fill-rule:evenodd"/><path id="path1381" d="M 376.83045,185.51109 473.83832,143.0229" style="fill:#000;fill-opacity:0;fill-rule:evenodd"/><path id="path1387" d="m 376.83045,188.4753 97.00787,10.01575" style="fill:#000;fill-opacity:0;fill-rule:evenodd"/><path id="path1393" d="m 376.83045,185.51109 97.00787,65.51181" style="fill:#000;fill-opacity:0;fill-rule:evenodd"/><path id="path1417" d="M 202.55389,78.754554 H 352.8166 V 123.04975 H 202.55389 Z" style="fill-rule:evenodd;stroke:#000;stroke-width:1;stroke-linecap:butt;stroke-linejoin:round"/><path id="path1415-7" d="M 202.55389,172.43292 H 352.8166 v 42.10051 H 202.55389 Z" style="fill:#cfe2f3;fill-rule:evenodd;stroke-width:1"/><path id="path1417-5" d="M 202.55389,172.43292 H 352.8166 v 42.10051 H 202.55389 Z" style="fill-rule:evenodd;stroke:#000;stroke-width:.99999994;stroke-linecap:butt;stroke-linejoin:round"/><text id="text5457" x="240.661" y="32.931" xml:space="preserve" style="font-style:normal;font-weight:400;font-size:26.66666603px;line-height:1.25;font-family:sans-serif;letter-spacing:0;word-spacing:0;fill:#000;fill-opacity:1;stroke:none"><tspan id="tspan5455" x="240.661" y="32.931">Rules</tspan></text><text id="text5457-4" x="429.805" y="32.931" xml:space="preserve" style="font-style:normal;font-weight:400;font-size:26.66666603px;line-height:1.25;font-family:sans-serif;letter-spacing:0;word-spacing:0;fill:#000;fill-opacity:1;stroke:none"><tspan id="tspan5455-9" x="429.805" y="32.931">Handlers</tspan></text><path id="path1331-5" d="m 394.09694,179.81403 v 0 c 0,-3.77475 4.23014,-6.83479 9.44829,-6.83479 h 167.71434 c 2.50582,0 4.90906,0.7201 6.6809,2.00187 1.77194,1.28176 2.76739,3.02022 2.76739,4.83292 v 27.33831 c 0,3.77473 -4.23017,6.83478 -9.44829,6.83478 H 403.54523 c -5.21815,0 -9.44829,-3.06005 -9.44829,-6.83478 z" style="fill:#d9ead3;fill-rule:evenodd;stroke-width:1"/><path id="path1333-6" d="m 393.74339,179.81403 v 0 c 0,-3.77475 4.24616,-6.83479 9.48409,-6.83479 h 168.34983 c 2.51532,0 4.92768,0.7201 6.70623,2.00187 1.77864,1.28176 2.77788,3.02022 2.77788,4.83292 v 27.33831 c 0,3.77473 -4.2462,6.83478 -9.48411,6.83478 H 403.22748 c -5.23793,0 -9.48409,-3.06005 -9.48409,-6.83478 z" style="fill-rule:evenodd;stroke:#000;stroke-width:1;stroke-linecap:butt;stroke-linejoin:round"/><text id="text5457-9" x="33.458" y="32.495" xml:space="preserve" style="font-style:normal;font-weight:400;font-size:26.66666603px;line-height:1.25;font-family:sans-serif;letter-spacing:0;word-spacing:0;fill:#000;fill-opacity:1;stroke:none"><tspan id="tspan5455-2" x="33.458" y="32.495">Instances</tspan></text><path id="path1331-0" d="m 32.073202,87.232999 v 0 c 0,-3.77475 2.691369,-6.83478 6.011346,-6.83478 H 144.79052 c 1.5943,0 3.12332,0.72009 4.25063,2.00186 1.12738,1.28176 1.76072,3.02022 1.76072,4.83292 v 27.338311 c 0,3.77473 -2.69139,6.83478 -6.01135,6.83478 H 38.084548 c -3.319977,0 -6.011346,-3.06005 -6.011346,-6.83478 z" style="fill:#d9ead3;fill-rule:evenodd;stroke-width:1"/><path id="path1333-8" d="m 31.147509,87.232999 v 0 c 0,-3.77475 2.707392,-6.83478 6.047147,-6.83478 H 144.53613 c 1.60379,0 3.14193,0.72009 4.27595,2.00186 1.13409,1.28176 1.7712,3.02022 1.7712,4.83292 v 27.338311 c 0,3.77473 -2.70742,6.83478 -6.04715,6.83478 H 37.194656 c -3.339755,0 -6.047147,-3.06005 -6.047147,-6.83478 z" style="fill-rule:evenodd;stroke:#000;stroke-width:1;stroke-linecap:butt;stroke-linejoin:round"/><text id="text7541" x="39.857" y="103.498" xml:space="preserve" style="font-style:normal;font-weight:400;font-size:14.66666698px;line-height:1.25;font-family:sans-serif;letter-spacing:0;word-spacing:0;fill:#000;fill-opacity:1;stroke:none"><tspan id="tspan7539" x="39.857" y="103.498">egress-access</tspan></text><path id="path7543" d="m 152.51558,101.10586 c 49.48929,-0.70711 49.48929,-0.70711 49.48929,-0.70711" style="fill:#000;fill-opacity:1;stroke:#000;stroke-width:1.00157475;stroke-linecap:butt;stroke-linejoin:miter;stroke-miterlimit:10;stroke-dasharray:none;stroke-opacity:1;marker-start:url(#marker7565)"/><path id="path7545" d="m 353.32572,100.90215 c 38.34121,0 38.34121,0 38.34121,0" style="fill:#000;fill-opacity:1;stroke:#000;stroke-width:1.00157475;stroke-linecap:butt;stroke-linejoin:miter;stroke-miterlimit:10;stroke-dasharray:none;stroke-opacity:1;marker-end:url(#marker7557)"/><path id="path7547" d="m 126.21094,122.5955 c 75.67742,74.9358 75.67742,74.9358 75.67742,74.9358 h -0.6757" style="fill:#000;fill-opacity:1;stroke:#000;stroke-width:1.00157475;stroke-linecap:butt;stroke-linejoin:miter;stroke-miterlimit:10;stroke-dasharray:none;stroke-opacity:1;marker-start:url(#marker7569)"/><path id="path7549" d="m 352.61861,193.48318 c 40.30509,0 41.01219,0 41.01219,0" style="fill:#000;fill-opacity:1;stroke:#000;stroke-width:1.00157475;stroke-linecap:butt;stroke-linejoin:miter;stroke-miterlimit:10;stroke-dasharray:none;stroke-opacity:1;marker-end:url(#marker7561)"/><text id="text8473" x="223.716" y="104.998" xml:space="preserve" style="font-style:normal;font-weight:400;font-size:14.66666698px;line-height:1.25;font-family:sans-serif;letter-spacing:0;word-spacing:0;fill:#000;fill-opacity:1;stroke:none"><tspan id="tspan8471" x="223.716" y="104.998">handle-politics</tspan></text><text id="text8477" x="414.885" y="104.959" xml:space="preserve" style="font-style:normal;font-weight:400;font-size:14.66666698px;line-height:1.25;font-family:sans-serif;letter-spacing:0;word-spacing:0;fill:#000;fill-opacity:1;stroke:none"><tspan id="tspan8475" x="414.885" y="104.959">egress-error-logger</tspan></text><text id="text8481" x="208.821" y="198.686" xml:space="preserve" style="font-style:normal;font-weight:400;font-size:14.66666698px;line-height:1.25;font-family:sans-serif;letter-spacing:0;word-spacing:0;fill:#000;fill-opacity:1;stroke:none"><tspan id="tspan8479" x="208.821" y="198.686">handle-cnn-access</tspan></text><text id="text8485" x="409.042" y="197.283" xml:space="preserve" style="font-style:normal;font-weight:400;font-size:14.66666698px;line-height:1.25;font-family:sans-serif;letter-spacing:0;word-spacing:0;fill:#000;fill-opacity:1;stroke:none"><tspan id="tspan8483" x="409.042" y="197.283">egress-access-logger</tspan></text><path id="path1331-0-7" d="m 32.073206,261.89968 v 0 c 0,-3.77475 2.69136,-6.83478 6.01134,-6.83478 H 144.79052 c 1.5943,0 3.12332,0.72009 4.25063,2.00186 1.12738,1.28176 1.76071,3.02022 1.76071,4.83292 v 27.33831 c 0,3.77473 -2.69139,6.83478 -6.01134,6.83478 H 38.084546 c -3.31998,0 -6.01134,-3.06005 -6.01134,-6.83478 z" style="fill:#d9ead3;fill-rule:evenodd;stroke:none;stroke-width:1;stroke-linecap:square;stroke-miterlimit:10"/><path id="path1333-8-9" d="m 31.719651,261.89968 v 0 c 0,-3.77475 2.70739,-6.83478 6.04715,-6.83478 H 145.10827 c 1.60379,0 3.14193,0.72009 4.27595,2.00186 1.13409,1.28176 1.7712,3.02022 1.7712,4.83292 v 27.33831 c 0,3.77473 -2.70742,6.83478 -6.04715,6.83478 H 37.766801 c -3.33976,0 -6.04715,-3.06005 -6.04715,-6.83478 z" style="fill:none;fill-rule:evenodd;stroke:#000;stroke-width:1;stroke-linecap:butt;stroke-linejoin:round;stroke-miterlimit:10"/><text id="text7541-5" x="43.757" y="279.665" xml:space="preserve" style="font-style:normal;font-weight:400;font-size:14.66666698px;line-height:1.25;font-family:sans-serif;letter-spacing:0;word-spacing:0;fill:#000;fill-opacity:1;stroke:none;stroke-linecap:square;stroke-miterlimit:10"><tspan id="tspan7539-5" x="43.757" y="279.665">request-path</tspan></text><path id="path1331-5-1" d="m 394.09694,261.89969 v 0 c 0,-3.77475 4.23014,-6.83479 9.44829,-6.83479 h 167.71434 c 2.50582,0 4.90906,0.7201 6.6809,2.00187 1.77194,1.28176 2.76739,3.02022 2.76739,4.83292 V 289.238 c 0,3.77473 -4.23017,6.83478 -9.44829,6.83478 H 403.54523 c -5.21815,0 -9.44829,-3.06005 -9.44829,-6.83478 z" style="fill:#d9ead3;fill-rule:evenodd;stroke:none;stroke-width:1;stroke-linecap:square;stroke-miterlimit:10"/><path id="path1333-6-7" d="m 393.74339,261.89969 v 0 c 0,-3.77475 4.24616,-6.83479 9.48409,-6.83479 h 168.34985 c 2.51532,0 4.92766,0.7201 6.70622,2.00187 1.77865,1.28176 2.77787,3.02022 2.77787,4.83292 V 289.238 c 0,3.77473 -4.2462,6.83478 -9.48409,6.83478 H 403.22748 c -5.23793,0 -9.48409,-3.06005 -9.48409,-6.83478 z" style="fill:none;fill-rule:evenodd;stroke:#000;stroke-width:1;stroke-linecap:butt;stroke-linejoin:round;stroke-miterlimit:10"/><text id="text8485-4" x="438.364" y="279.665" xml:space="preserve" style="font-style:normal;font-weight:400;font-size:14.66666698px;line-height:1.25;font-family:sans-serif;letter-spacing:0;word-spacing:0;fill:#000;fill-opacity:1;stroke:none;stroke-linecap:square;stroke-miterlimit:10"><tspan id="tspan8483-5" x="438.364" y="279.665">path-checker</tspan></text><path id="path5838" d="M 115.2584,253.14423 C 201.21266,197.5313 201.21266,197.5313 201.21266,197.5313" style="fill:none;stroke:#000;stroke-width:1px;stroke-linecap:butt;stroke-linejoin:miter;stroke-opacity:1;marker-start:url(#marker8937)"/><path id="path5852" d="m 352.61861,193.48318 c 57.50331,61.07527 57.50331,61.07527 57.50331,61.07527 v 0 l -0.7071,-0.70711" style="fill:none;stroke:#000;stroke-width:1px;stroke-linecap:butt;stroke-linejoin:miter;stroke-opacity:1;marker-end:url(#marker5874)"/></svg>