<svg xmlns="http://www.w3.org/2000/svg" fill="none" stroke-linecap="square" stroke-miterlimit="10" viewBox="0 0 906.601 373.202"><clipPath id="a"><path d="M0 0h906.601v373.202H0V0z"/></clipPath><g clip-path="url(#a)"><path fill="#000" fill-opacity="0" fill-rule="evenodd" d="M0 0h906.601v373.202H0z"/><path fill="#b6d7a8" fill-rule="evenodd" d="M241.471 279.661h102.961v29.26h-102.96z"/><path fill="#000" d="M267.8 297.104q0 1.516-1.094 2.36-1.094.843-2.97.843-2.03 0-3.124-.53v-1.282q.703.297 1.531.469t1.64.172q1.329 0 2-.5.673-.5.673-1.407 0-.593-.235-.968-.234-.375-.797-.688-.562-.328-1.703-.734-1.593-.578-2.281-1.36-.672-.781-.672-2.031 0-1.328.985-2.11 1-.78 2.625-.78 1.703 0 3.14.624l-.422 1.157q-1.406-.594-2.75-.594-1.047 0-1.64.453-.594.453-.594 1.266 0 .593.219.968.218.375.734.704.516.312 1.594.687 1.797.64 2.469 1.375.671.734.671 1.906zm5.765 3.203q-1.906 0-3-1.156t-1.094-3.219q0-2.062 1.016-3.28 1.016-1.22 2.734-1.22 1.61 0 2.547 1.063.938 1.047.938 2.781v.828h-5.891q.031 1.5.75 2.282.734.78 2.047.78 1.375 0 2.734-.577v1.156q-.687.297-1.312.422-.61.14-1.469.14zm-.36-7.796q-1.03 0-1.64.671-.61.672-.719 1.86h4.469q0-1.219-.547-1.875-.547-.656-1.562-.656zm9.618-1.079q.578 0 1.031.094l-.187 1.203q-.532-.125-.938-.125-1.031 0-1.781.844-.735.844-.735 2.11v4.593h-1.296v-8.562h1.078l.14 1.578h.063q.484-.828 1.156-1.281.672-.454 1.469-.454zm4.5 8.72l-3.25-8.563h1.39l1.844 5.078q.625 1.781.735 2.312h.062q.094-.422.547-1.718.453-1.297 2.047-5.672h1.39l-3.25 8.562h-1.515zm7.437 0h-1.297v-8.563h1.297v8.562zm-1.406-10.891q0-.438.219-.641.219-.219.547-.219.312 0 .53.219.235.203.235.64 0 .438-.234.657-.219.219-.531.219-.328 0-.547-.22-.219-.218-.219-.655zm7.578 11.046q-1.86 0-2.875-1.14-1.015-1.156-1.015-3.25 0-2.14 1.03-3.313 1.032-1.172 2.954-1.172.61 0 1.219.141.625.125.984.297l-.406 1.11q-.422-.173-.938-.282-.5-.125-.89-.125-2.61 0-2.61 3.328 0 1.578.625 2.422.64.844 1.89.844 1.08 0 2.204-.453v1.14q-.86.453-2.172.453zm7.82 0q-1.906 0-3-1.156-1.093-1.156-1.093-3.219 0-2.062 1.015-3.28 1.016-1.22 2.735-1.22 1.61 0 2.547 1.063.937 1.047.937 2.781v.828h-5.89q.03 1.5.75 2.282.734.78 2.046.78 1.375 0 2.735-.577v1.156q-.688.297-1.313.422-.61.14-1.468.14zm-.359-7.796q-1.031 0-1.64.671-.61.672-.72 1.86h4.47q0-1.219-.547-1.875-.547-.656-1.563-.656zm17.664 7.64h-1.5l-3.078-5.031-3.125 5.031h-1.406l3.797-5.969-3.532-5.453h1.47l2.827 4.516 2.86-4.516h1.422l-3.547 5.407 3.812 6.015z"/><path fill="#ea9999" fill-rule="evenodd" d="M294.885 276.09v-45.985c0-14.612 11.845-26.457 26.456-26.457h18.898v-7.559l15.118 15.118-15.118 15.118v-7.559H321.34c-6.262 0-11.338 5.077-11.338 11.339v45.984z"/><path fill="#000" fill-opacity="0" fill-rule="evenodd" d="M306.42 245.16h234.425v38.93H306.42z"/><path fill="#000" d="M321.451 266.96v-4.61q0-.874-.406-1.296-.39-.438-1.234-.438-1.125 0-1.657.61-.515.61-.515 2v3.734h-1.078v-10.125h1.078v3.063q0 .546-.047.921h.062q.328-.515.907-.812.593-.297 1.343-.297 1.313 0 1.97.625.655.625.655 1.969v4.656h-1.078zm5.602-.766q.282 0 .547-.03.266-.048.422-.095v.829q-.172.078-.515.125-.344.062-.61.062-2.078 0-2.078-2.172v-4.25h-1.016v-.515l1.016-.454.453-1.515h.625v1.656h2.078v.828h-2.078v4.203q0 .641.313.985.312.343.843.343zm4.706 0q.28 0 .547-.03.265-.048.421-.095v.829q-.171.078-.515.125-.344.062-.61.062-2.078 0-2.078-2.172v-4.25h-1.015v-.515l1.015-.454.453-1.515h.625v1.656h2.079v.828h-2.079v4.203q0 .641.313.985.312.343.844.343zm5.72.891q-.703 0-1.28-.25-.579-.266-.97-.797h-.078q.078.625.078 1.188v2.937h-1.078v-10.328h.891l.14.969h.047q.422-.578.97-.844.562-.266 1.28-.266 1.422 0 2.188.97.766.968.766 2.718 0 1.766-.782 2.734-.78.97-2.172.97zm-.156-6.469q-1.094 0-1.594.61-.484.593-.5 1.922v.234q0 1.516.5 2.156.516.64 1.61.64.937 0 1.453-.734.531-.75.531-2.062 0-1.344-.531-2.047-.516-.719-1.469-.719zm9.605 4.391q0 1-.75 1.547-.734.531-2.078.531-1.422 0-2.219-.437v-1.016q.516.266 1.11.422.593.14 1.14.14.844 0 1.297-.265.453-.266.453-.828 0-.407-.36-.703-.358-.297-1.405-.704-1-.375-1.422-.64-.422-.281-.625-.625-.203-.36-.203-.844 0-.875.703-1.375.719-.516 1.953-.516 1.156 0 2.25.47l-.375.874q-1.078-.437-1.953-.437-.766 0-1.156.25-.391.234-.391.656 0 .281.14.484.157.203.47.391.327.172 1.25.531 1.28.453 1.718.922.453.469.453 1.172zm1.593 1.266q0-.438.203-.657.203-.234.562-.234.391 0 .594.234.219.22.219.657 0 .421-.219.656-.219.219-.594.219-.328 0-.547-.204-.218-.203-.218-.671zm0-5.75q0-.875.765-.875.813 0 .813.875 0 .421-.219.656-.219.219-.594.219-.328 0-.547-.204-.218-.203-.218-.671zm7.312-3.079l-3.547 9.516h-1.078l3.547-9.516h1.078zm4.894 0l-3.547 9.516h-1.078l3.547-9.516h1.078zm10.378 9.516v-4.64q0-.86-.359-1.282-.36-.422-1.14-.422-1 0-1.485.578-.484.579-.484 1.782v3.984h-1.079v-4.64q0-.86-.375-1.282-.359-.422-1.125-.422-1.015 0-1.5.61-.468.61-.468 2v3.734h-1.078v-7.125h.89l.172.969h.047q.312-.516.86-.813.562-.297 1.25-.297 1.671 0 2.187 1.22h.047q.328-.563.922-.891.609-.329 1.39-.329 1.203 0 1.797.625.61.625.61 1.985v4.656h-1.079zm9.46-3.578q0 1.75-.875 2.734-.875.97-2.422.97-.953 0-1.703-.438-.734-.454-1.14-1.297-.407-.844-.407-1.969 0-1.734.875-2.703.875-.985 2.422-.985 1.485 0 2.36 1 .89 1 .89 2.688zm-5.422 0q0 1.375.547 2.094.547.703 1.594.703 1.063 0 1.61-.703.562-.719.562-2.094 0-1.36-.563-2.063-.546-.703-1.609-.703-1.062 0-1.61.703-.53.688-.53 2.063zm12.207 3.578v-4.61q0-.874-.406-1.296-.39-.438-1.235-.438-1.125 0-1.656.61-.516.593-.516 2v3.734h-1.078v-7.125h.891l.172.969h.047q.328-.531.922-.813.609-.297 1.343-.297 1.297 0 1.938.625.656.625.656 1.985v4.656h-1.078zm9.446-3.578q0 1.75-.875 2.734-.875.97-2.422.97-.953 0-1.703-.438-.734-.454-1.14-1.297-.407-.844-.407-1.969 0-1.734.875-2.703.875-.985 2.422-.985 1.484 0 2.36 1 .89 1 .89 2.688zm-5.422 0q0 1.375.547 2.094.547.703 1.594.703 1.062 0 1.61-.703.562-.719.562-2.094 0-1.36-.563-2.063-.547-.703-1.61-.703-1.062 0-1.609.703-.53.688-.53 2.063zm8.394 3.578h-1.078v-10.125h1.078v10.125zm3.371 0h-1.078v-7.125h1.078v7.125zm-1.172-9.062q0-.375.188-.547.187-.172.453-.172t.453.172q.188.172.188.547 0 .359-.188.546-.187.172-.453.172t-.453-.172q-.188-.187-.188-.546zm5.778 8.296q.28 0 .547-.03.265-.048.421-.095v.829q-.171.078-.515.125-.344.062-.61.062-2.078 0-2.078-2.172v-4.25h-1.015v-.515l1.015-.454.453-1.515h.625v1.656h2.079v.828h-2.079v4.203q0 .641.313.985.312.343.844.343zm7.283.766v-4.61q0-.874-.406-1.296-.39-.438-1.235-.438-1.125 0-1.656.61-.516.61-.516 2v3.734h-1.078v-10.125h1.078v3.063q0 .546-.046.921h.062q.328-.515.906-.812.594-.297 1.344-.297 1.313 0 1.969.625.656.625.656 1.969v4.656h-1.078zm3.134-.687q0-.438.203-.657.203-.234.562-.234.39 0 .594.234.219.22.219.657 0 .421-.22.656-.218.219-.593.219-.328 0-.547-.204-.218-.203-.218-.671zm6.921-5.61h-1.812v6.297h-1.078v-6.297h-1.282v-.484l1.282-.39v-.391q0-2.641 2.297-2.641.562 0 1.328.234l-.282.86q-.625-.203-1.078-.203-.61 0-.906.406-.281.406-.281 1.312v.47h1.812v.827zm7.454 2.719q0 1.75-.875 2.734-.875.97-2.422.97-.953 0-1.703-.438-.734-.454-1.14-1.297-.407-.844-.407-1.969 0-1.734.875-2.703.875-.985 2.422-.985 1.485 0 2.36 1 .89 1 .89 2.688zm-5.422 0q0 1.375.547 2.094.547.703 1.594.703 1.063 0 1.61-.703.562-.719.562-2.094 0-1.36-.563-2.063-.546-.703-1.609-.703-1.062 0-1.61.703-.53.688-.53 2.063zm13.473 0q0 1.75-.875 2.734-.875.97-2.422.97-.953 0-1.703-.438-.735-.454-1.141-1.297-.406-.844-.406-1.969 0-1.734.875-2.703.875-.985 2.422-.985 1.484 0 2.359 1 .89 1 .89 2.688zm-5.422 0q0 1.375.547 2.094.546.703 1.593.703 1.063 0 1.61-.703.562-.719.562-2.094 0-1.36-.562-2.063-.547-.703-1.61-.703-1.062 0-1.61.703-.53.688-.53 2.063zm7.16 2.89q0-.437.202-.656.204-.234.563-.234.39 0 .594.234.218.22.218.657 0 .421-.218.656-.22.219-.594.219-.328 0-.547-.204-.219-.203-.219-.671zm6.562.813q-1.547 0-2.407-.953-.843-.953-.843-2.688 0-1.796.86-2.765.858-.985 2.452-.985.516 0 1.031.11.516.11.813.265l-.328.922q-.36-.156-.797-.25-.422-.093-.734-.093-2.172 0-2.172 2.78 0 1.313.515 2.016.532.704 1.578.704.891 0 1.829-.391v.969q-.72.36-1.797.36zm9.642-3.703q0 1.75-.875 2.734-.875.97-2.422.97-.953 0-1.703-.438-.735-.454-1.14-1.297-.407-.844-.407-1.969 0-1.734.875-2.703.875-.985 2.422-.985 1.484 0 2.36 1 .89 1 .89 2.688zm-5.422 0q0 1.375.547 2.094.547.703 1.594.703 1.062 0 1.609-.703.562-.719.562-2.094 0-1.36-.562-2.063-.547-.703-1.61-.703-1.062 0-1.609.703-.531.688-.531 2.063zm16.41 3.578v-4.64q0-.86-.36-1.282-.36-.422-1.14-.422-1 0-1.485.578-.484.579-.484 1.782v3.984h-1.078v-4.64q0-.86-.375-1.282-.36-.422-1.125-.422-1.016 0-1.5.61-.47.61-.47 2v3.734h-1.077v-7.125h.89l.172.969h.047q.313-.516.86-.813.562-.297 1.25-.297 1.671 0 2.187 1.22h.047q.328-.563.922-.891.61-.329 1.39-.329 1.204 0 1.797.625.61.625.61 1.985v4.656h-1.078z"/><path fill="#9fc5e8" fill-rule="evenodd" d="M360.942 170.045h165.575v56.587L515.2 237.95H360.942z"/><path fill="#7f9db9" fill-rule="evenodd" d="M515.2 237.95l2.263-9.054 9.054-2.264z"/><path fill="#000" fill-opacity="0" fill-rule="evenodd" d="M515.2 237.95l2.263-9.054 9.054-2.264L515.2 237.95H360.942v-67.905h165.575v56.587"/><path fill="#000" fill-opacity="0" fill-rule="evenodd" d="M355.357 144.93h131.15v38.928h-131.15z"/><path fill="#000" d="M371.091 157.214h1.203l-3.437 9.515h-1.094l-3.406-9.516h1.172l2.187 6.157q.375 1.062.594 2.062.234-1.047.61-2.093l2.171-6.125zm3.418 9.515h-1.078v-7.125h1.078v7.125zm-1.172-9.062q0-.375.187-.547.188-.172.454-.172.265 0 .453.172.187.172.187.547 0 .359-.187.547-.188.171-.453.171-.266 0-.454-.171-.187-.188-.187-.547zm6.73 1.797q.47 0 .844.078l-.14 1q-.454-.094-.782-.094-.875 0-1.5.703-.61.703-.61 1.75v3.828h-1.077v-7.125h.89l.125 1.313h.063q.39-.703.953-1.078.563-.375 1.234-.375zm4.488 6.5q.281 0 .547-.032.265-.047.422-.093v.828q-.172.078-.516.125-.344.062-.61.062-2.078 0-2.078-2.172v-4.25h-1.015v-.515l1.015-.453.454-1.516h.625v1.656h2.078v.828h-2.078v4.203q0 .641.312.985.313.344.844.344zm3.408-6.36v4.625q0 .86.39 1.297.407.422 1.25.422 1.126 0 1.641-.61.516-.609.516-2v-3.734h1.078v7.125h-.89l-.157-.953h-.062q-.328.531-.922.813-.578.265-1.344.265-1.297 0-1.953-.61-.64-.624-.64-1.984v-4.656h1.093zm11.556 7.125l-.22-1.016h-.046q-.531.672-1.063.907-.53.234-1.328.234-1.062 0-1.672-.547-.593-.547-.593-1.547 0-2.156 3.453-2.265l1.219-.047v-.438q0-.843-.36-1.234-.36-.406-1.156-.406-.89 0-2.016.547l-.343-.828q.53-.282 1.156-.438.64-.172 1.265-.172 1.282 0 1.891.563.61.562.61 1.812v4.875h-.797zm-2.438-.766q1 0 1.578-.546.578-.563.578-1.547v-.64l-1.078.03q-1.281.047-1.86.407-.562.359-.562 1.109 0 .578.344.89.36.298 1 .298zm6.538.766h-1.079v-10.125h1.079v10.125zm7.824-2.531q0 1.25-.907 1.953-.906.703-2.468.703-1.703 0-2.61-.437v-1.063q.594.25 1.282.39.687.141 1.359.141 1.11 0 1.672-.406.562-.422.562-1.172 0-.5-.203-.812-.203-.313-.672-.578-.453-.282-1.406-.61-1.328-.484-1.906-1.125-.563-.656-.563-1.703 0-1.094.828-1.75.829-.656 2.188-.656 1.422 0 2.61.531l-.344.953q-1.188-.484-2.297-.484-.875 0-1.375.375-.485.375-.485 1.047 0 .5.172.812.188.313.61.578.437.266 1.328.579 1.5.53 2.062 1.156.563.61.563 1.578zm4.799 2.656q-1.578 0-2.5-.953-.906-.969-.906-2.672 0-1.734.843-2.75.86-1.016 2.282-1.016 1.343 0 2.125.891.781.875.781 2.328v.672h-4.906q.031 1.266.625 1.922.61.64 1.703.64 1.14 0 2.265-.484v.969q-.562.25-1.078.344-.515.11-1.234.11zm-.297-6.484q-.86 0-1.375.562-.5.563-.594 1.547h3.735q0-1.016-.453-1.562-.454-.547-1.313-.547zm8.025-.906q.468 0 .843.078l-.14 1q-.453-.094-.782-.094-.875 0-1.5.703-.609.703-.609 1.75v3.828h-1.078v-7.125h.89l.126 1.313h.062q.39-.703.953-1.078.563-.375 1.235-.375zm3.737 7.265l-2.703-7.125h1.156l1.531 4.219q.532 1.484.625 1.937h.047q.063-.359.438-1.437.39-1.078 1.719-4.719h1.156l-2.703 7.125h-1.266zm6.193 0h-1.078v-7.125h1.078v7.125zm-1.172-9.062q0-.375.187-.547.188-.172.453-.172.266 0 .454.172.187.172.187.547 0 .359-.187.547-.188.171-.454.171-.265 0-.453-.171-.187-.188-.187-.547zm6.324 9.187q-1.547 0-2.406-.953-.844-.953-.844-2.688 0-1.796.86-2.765.859-.984 2.453-.984.515 0 1.03.109.516.11.813.266l-.328.921q-.36-.156-.797-.25-.422-.093-.734-.093-2.172 0-2.172 2.78 0 1.313.516 2.017.53.703 1.578.703.89 0 1.828-.391v.969q-.719.36-1.797.36zm6.501 0q-1.578 0-2.5-.953-.906-.969-.906-2.672 0-1.734.844-2.75.86-1.016 2.281-1.016 1.344 0 2.125.891.781.875.781 2.328v.672h-4.906q.031 1.266.625 1.922.61.64 1.703.64 1.141 0 2.266-.484v.969q-.563.25-1.078.344-.516.11-1.235.11zm-.296-6.484q-.86 0-1.375.562-.5.563-.594 1.547h3.734q0-1.016-.453-1.562-.453-.547-1.312-.547z"/><path fill="#000" fill-opacity="0" fill-rule="evenodd" d="M365.59 173.761h170.237v60.473H365.59z"/><path fill="#000" d="M382.278 194.281h-1v-4.031h-4.516v4.031h-1v-8.562h1v3.64h4.516v-3.64h1v8.562zm7.744-3.219q0 1.579-.797 2.47-.78.874-2.187.874-.86 0-1.531-.406-.657-.406-1.032-1.156-.36-.766-.36-1.782 0-1.562.782-2.437.797-.89 2.188-.89 1.343 0 2.14.906.797.89.797 2.421zm-4.89 0q0 1.235.484 1.875.5.641 1.453.641.953 0 1.438-.64.5-.641.5-1.876 0-1.218-.5-1.859-.485-.64-1.454-.64-.953 0-1.437.64-.484.625-.484 1.86zm10.732 1.47q0 .89-.672 1.39-.656.484-1.875.484-1.266 0-1.984-.406v-.906q.468.234.984.375.531.125 1.031.125.766 0 1.172-.235.406-.25.406-.75 0-.375-.328-.64-.312-.266-1.265-.625-.89-.344-1.282-.594-.375-.25-.562-.563-.172-.312-.172-.75 0-.78.64-1.234.641-.469 1.75-.469 1.032 0 2.032.422l-.36.797q-.953-.39-1.75-.39-.687 0-1.046.218-.344.203-.344.594 0 .25.125.437.14.172.422.344.297.156 1.14.469 1.141.422 1.532.844.406.422.406 1.062zm3.662 1.062q.25 0 .484-.032.25-.046.391-.078v.735q-.156.078-.469.125-.297.062-.547.062-1.859 0-1.859-1.969v-3.828h-.922v-.468l.922-.407.406-1.36h.563v1.485h1.86v.75h-1.86v3.782q0 .578.265.89.282.313.766.313zm2.018.062q0-.39.172-.594.187-.203.515-.203.344 0 .531.203.188.204.188.594t-.188.594q-.187.203-.53.203-.298 0-.5-.187-.188-.188-.188-.61zm0-5.172q0-.797.687-.797.719 0 .719.797 0 .375-.188.594-.187.203-.53.203-.298 0-.5-.187-.188-.188-.188-.61zm10.388 5.797l-2.906-7.594h-.047q.078.907.078 2.141v5.453h-.922v-8.562h1.5l2.72 7.062h.046l2.734-7.062h1.485v8.562h-.985v-5.515q0-.954.079-2.063h-.047l-2.938 7.578h-.797zm12.444-3.219q0 1.579-.797 2.47-.781.874-2.188.874-.859 0-1.53-.406-.657-.406-1.032-1.156-.36-.766-.36-1.782 0-1.562.782-2.437.797-.89 2.187-.89 1.344 0 2.14.906.798.89.798 2.421zm-4.89 0q0 1.235.483 1.875.5.641 1.454.641.953 0 1.437-.64.5-.641.5-1.876 0-1.218-.5-1.859-.484-.64-1.453-.64-.953 0-1.438.64-.484.625-.484 1.86zm10.982 3.22v-4.157q0-.781-.36-1.172-.344-.39-1.11-.39-1.015 0-1.484.546-.468.547-.468 1.797v3.375h-.97v-6.422h.798l.156.875h.047q.297-.468.828-.734.547-.266 1.203-.266 1.172 0 1.75.563.594.562.594 1.797v4.187h-.984zm8.521-3.22q0 1.579-.797 2.47-.781.874-2.187.874-.86 0-1.532-.406-.656-.406-1.03-1.156-.36-.766-.36-1.782 0-1.562.781-2.437.797-.89 2.187-.89 1.344 0 2.141.906.797.89.797 2.421zm-4.89 0q0 1.235.484 1.875.5.641 1.453.641.953 0 1.437-.64.5-.641.5-1.876 0-1.218-.5-1.859-.484-.64-1.453-.64-.953 0-1.437.64-.485.625-.485 1.86zm7.56 3.22h-.969v-9.126h.969v9.125zm3.035 0h-.969v-6.423h.97v6.422zm-1.047-8.157q0-.344.156-.5.172-.156.422-.156.235 0 .39.172.173.156.173.484 0 .328-.172.484-.156.157-.39.157-.25 0-.423-.157-.156-.156-.156-.484zm5.192 7.469q.25 0 .484-.032.25-.046.39-.078v.735q-.156.078-.468.125-.297.062-.547.062-1.86 0-1.86-1.969v-3.828h-.921v-.468l.922-.407.406-1.36h.562v1.485h1.86v.75h-1.86v3.782q0 .578.266.89.281.313.766.313zm6.548.687v-4.156q0-.781-.359-1.172-.344-.39-1.11-.39-1.015 0-1.484.562-.468.547-.468 1.797v3.36h-.97v-9.126h.97v2.766q0 .5-.047.828h.062q.281-.469.813-.734.53-.266 1.218-.266 1.172 0 1.766.562.594.563.594 1.782v4.187h-.985zm2.834-.625q0-.39.172-.594.188-.203.516-.203.344 0 .531.203.188.204.188.594t-.188.594q-.187.203-.531.203-.297 0-.5-.187-.188-.188-.188-.61zm6.225-5.047h-1.625v5.672h-.984v-5.672h-1.141v-.437l1.14-.344v-.36q0-2.374 2.079-2.374.5 0 1.187.203l-.25.781q-.562-.172-.953-.172-.562 0-.828.375-.25.36-.25 1.156v.422h1.625v.75zm6.723 2.453q0 1.579-.797 2.47-.781.874-2.188.874-.86 0-1.531-.406-.656-.406-1.031-1.156-.36-.766-.36-1.782 0-1.562.782-2.437.797-.89 2.187-.89 1.344 0 2.14.906.798.89.798 2.421zm-4.891 0q0 1.235.484 1.875.5.641 1.454.641.953 0 1.437-.64.5-.641.5-1.876 0-1.218-.5-1.859-.484-.64-1.453-.64-.953 0-1.438.64-.484.625-.484 1.86zm12.139 0q0 1.579-.797 2.47-.781.874-2.188.874-.859 0-1.53-.406-.657-.406-1.032-1.156-.36-.766-.36-1.782 0-1.562.782-2.437.797-.89 2.187-.89 1.344 0 2.14.906.798.89.798 2.421zm-4.89 0q0 1.235.483 1.875.5.641 1.454.641.953 0 1.437-.64.5-.641.5-1.876 0-1.218-.5-1.859-.484-.64-1.453-.64-.953 0-1.438.64-.484.625-.484 1.86zm6.45 2.594q0-.39.172-.594.188-.203.516-.203.344 0 .531.203.188.204.188.594t-.188.594q-.187.203-.531.203-.297 0-.5-.187-.188-.188-.188-.61zm5.897.75q-1.39 0-2.156-.86-.766-.859-.766-2.437 0-1.61.781-2.484.781-.89 2.203-.89.469 0 .922.109.469.093.735.234l-.297.828q-.328-.14-.703-.219-.375-.078-.672-.078-1.953 0-1.953 2.485 0 1.187.468 1.828.485.625 1.422.625.797 0 1.64-.344v.86q-.64.343-1.624.343zm8.697-3.344q0 1.579-.797 2.47-.781.874-2.187.874-.86 0-1.532-.406-.656-.406-1.03-1.156-.36-.766-.36-1.782 0-1.562.781-2.437.797-.89 2.188-.89 1.343 0 2.14.906.797.89.797 2.421zm-4.89 0q0 1.235.484 1.875.5.641 1.453.641.953 0 1.437-.64.5-.641.5-1.876 0-1.218-.5-1.859-.484-.64-1.453-.64-.953 0-1.437.64-.485.625-.485 1.86zm14.779 3.22v-4.173q0-.781-.328-1.156-.329-.39-1.016-.39-.906 0-1.344.53-.437.516-.437 1.594v3.594h-.97v-4.172q0-.781-.327-1.156-.328-.39-1.031-.39-.907 0-1.344.546-.422.547-.422 1.797v3.375h-.969v-6.422h.797l.156.875h.047q.266-.468.766-.734.515-.266 1.125-.266 1.515 0 1.969 1.094h.046q.297-.5.829-.797.546-.297 1.25-.297 1.093 0 1.625.563.546.562.546 1.797v4.187h-.968zm-125.9 7.452q.421 0 .765.078l-.14.907q-.391-.094-.704-.094-.781 0-1.344.64-.546.626-.546 1.563v3.453h-.97v-6.422h.798l.125 1.188h.047q.343-.625.843-.969.516-.344 1.125-.344zm4.679 6.672q-1.422 0-2.25-.875-.828-.875-.828-2.406 0-1.563.765-2.469.766-.922 2.063-.922 1.203 0 1.906.797.703.797.703 2.094v.625h-4.422q.032 1.125.563 1.719.547.578 1.531.578 1.031 0 2.047-.438v.875q-.516.219-.984.313-.453.11-1.094.11zm-.266-5.844q-.78 0-1.25.5-.453.5-.53 1.391h3.358q0-.922-.406-1.406-.406-.485-1.172-.485zm9.53 5.72l-1.188-3.766q-.11-.344-.406-1.579h-.047q-.234 1.032-.422 1.594l-1.203 3.75h-1.125l-1.75-6.422h1.016q.625 2.422.937 3.688.328 1.265.375 1.703h.047q.063-.328.203-.86.156-.53.266-.843l1.172-3.688h1.047l1.156 3.688q.328 1 .437 1.687h.047q.031-.203.125-.64.11-.453 1.235-4.735h1l-1.766 6.422h-1.156zm7.021-6.548q.422 0 .766.078l-.14.907q-.391-.094-.704-.094-.781 0-1.344.64-.547.626-.547 1.563v3.453h-.968v-6.422h.797l.125 1.188h.046q.344-.625.844-.969.516-.344 1.125-.344zm2.93 6.547h-.969v-6.422h.969v6.422zm-1.047-8.156q0-.344.156-.5.172-.156.422-.156.234 0 .39.172.173.156.173.484 0 .328-.172.484-.157.157-.39.157-.25 0-.423-.157-.156-.156-.156-.484zm5.191 7.469q.25 0 .485-.032.25-.046.39-.078v.735q-.156.078-.468.125-.297.062-.547.062-1.86 0-1.86-1.969v-3.828h-.922v-.468l.922-.407.407-1.36h.562v1.485h1.86v.75h-1.86v3.782q0 .578.266.89.281.313.765.313zm4.877.812q-1.422 0-2.25-.875-.828-.875-.828-2.406 0-1.563.766-2.469.765-.922 2.062-.922 1.203 0 1.907.797.703.797.703 2.094v.625h-4.422q.031 1.125.562 1.719.547.578 1.532.578 1.03 0 2.046-.438v.875q-.515.219-.984.313-.453.11-1.094.11zm-.265-5.844q-.782 0-1.25.5-.453.5-.532 1.391h3.36q0-.922-.406-1.406-.407-.485-1.172-.485zm8.654 7.563h-5.438v-.766h5.438v.766zm1.926-8.266v4.172q0 .781.344 1.172.359.375 1.125.375 1.015 0 1.468-.547.469-.547.469-1.797v-3.375h.969v6.422h-.797l-.14-.86h-.048q-.296.47-.828.735-.531.25-1.218.25-1.172 0-1.75-.562-.579-.563-.579-1.782v-4.203h.985zm9.38-.125q.423 0 .766.078l-.14.907q-.391-.094-.703-.094-.782 0-1.344.64-.547.626-.547 1.563v3.453h-.969v-6.422h.797l.125 1.188h.047q.344-.625.844-.969.515-.344 1.125-.344zm2.93 6.547h-.968v-9.125h.968v9.125zm1.926-.625q0-.39.172-.594.187-.203.516-.203.343 0 .53.203.188.204.188.594t-.187.594q-.188.203-.531.203-.297 0-.5-.187-.188-.188-.188-.61zm3.193 0q0-.39.172-.594.188-.203.516-.203.344 0 .531.203.188.204.188.594t-.188.594q-.187.203-.531.203-.297 0-.5-.187-.188-.188-.188-.61zm3.194 0q0-.39.172-.594.187-.203.515-.203.344 0 .532.203.187.204.187.594t-.187.594q-.188.203-.532.203-.297 0-.5-.187-.187-.188-.187-.61zm-61.541 8.204v.609l-1.188.14q.172.203.297.547.125.328.125.735 0 .953-.64 1.515-.641.563-1.766.563-.297 0-.547-.047-.61.328-.61.828 0 .266.204.39.219.126.75.126h1.14q1.047 0 1.594.437.563.438.563 1.281 0 1.063-.86 1.625-.843.563-2.484.563-1.266 0-1.953-.469-.672-.469-.672-1.328 0-.594.375-1.031.375-.422 1.047-.563-.25-.11-.422-.344-.156-.234-.156-.546 0-.36.187-.625.188-.266.594-.5-.5-.204-.813-.688-.312-.5-.312-1.14 0-1.047.625-1.626.64-.578 1.797-.578.5 0 .906.125h2.219zm-5.11 7.5q0 .515.438.78.437.282 1.25.282 1.234 0 1.812-.375.594-.36.594-.985 0-.515-.328-.718-.312-.203-1.203-.203h-1.172q-.656 0-1.031.312-.36.313-.36.906zm.516-5.438q0 .672.375 1.015.39.344 1.078.344 1.422 0 1.422-1.39 0-1.438-1.437-1.438-.688 0-1.063.375-.375.36-.375 1.094zm11.465 1.14q0 1.579-.797 2.47-.781.874-2.187.874-.86 0-1.532-.406-.656-.406-1.031-1.156-.36-.766-.36-1.782 0-1.562.782-2.437.797-.89 2.187-.89 1.344 0 2.141.906.797.89.797 2.421zm-4.89 0q0 1.235.484 1.875.5.641 1.453.641.953 0 1.437-.64.5-.641.5-1.876 0-1.218-.5-1.859-.484-.64-1.453-.64-.953 0-1.437.64-.485.625-.485 1.86zm8.67 2.532q.25 0 .484-.032.25-.046.39-.078v.735q-.156.078-.469.125-.296.062-.546.062-1.86 0-1.86-1.969v-3.828h-.922v-.468l.922-.407.406-1.36h.563v1.485h1.86v.75h-1.86v3.782q0 .578.266.89.28.313.765.313zm7.704-2.532q0 1.579-.797 2.47-.78.874-2.187.874-.86 0-1.531-.406-.657-.406-1.032-1.156-.359-.766-.359-1.782 0-1.562.781-2.437.797-.89 2.188-.89 1.344 0 2.14.906.797.89.797 2.421zm-4.89 0q0 1.235.484 1.875.5.641 1.453.641.953 0 1.438-.64.5-.641.5-1.876 0-1.218-.5-1.859-.485-.64-1.453-.64-.954 0-1.438.64-.484.625-.484 1.86zm6.45 2.594q0-.39.173-.594.187-.203.515-.203.344 0 .532.203.187.204.187.594t-.187.594q-.188.203-.532.203-.297 0-.5-.187-.187-.188-.187-.61zm0-5.172q0-.797.688-.797.72 0 .72.797 0 .375-.188.594-.188.203-.532.203-.297 0-.5-.187-.187-.188-.187-.61zm10.593 4.047q0 .89-.672 1.39-.657.485-1.875.485-1.266 0-1.985-.406v-.906q.47.234.985.375.531.125 1.031.125.766 0 1.172-.235.406-.25.406-.75 0-.375-.328-.64-.313-.266-1.266-.625-.89-.344-1.28-.594-.376-.25-.563-.563-.172-.312-.172-.75 0-.78.64-1.234.641-.469 1.75-.469 1.032 0 2.032.422l-.36.797q-.953-.39-1.75-.39-.687 0-1.047.218-.343.203-.343.594 0 .25.125.437.14.172.421.344.297.156 1.141.469 1.14.422 1.531.844.407.422.407 1.062zm4.302 1.875q-1.422 0-2.25-.875-.828-.875-.828-2.406 0-1.563.766-2.469.765-.922 2.062-.922 1.203 0 1.907.797.703.797.703 2.094v.625h-4.422q.031 1.125.562 1.719.547.578 1.532.578 1.03 0 2.046-.438v.875q-.515.219-.984.313-.453.11-1.094.11zm-.265-5.844q-.782 0-1.25.5-.453.5-.532 1.391h3.36q0-.922-.406-1.406-.407-.485-1.172-.485zm7.217-.828q.421 0 .765.078l-.14.907q-.391-.094-.704-.094-.78 0-1.343.64-.547.626-.547 1.563v3.453h-.969v-6.422h.797l.125 1.188h.047q.344-.625.844-.969.515-.344 1.125-.344zm3.367 6.547l-2.438-6.422h1.047l1.375 3.813q.469 1.328.563 1.734h.046q.063-.312.407-1.281.343-.984 1.531-4.266h1.047l-2.438 6.422h-1.14zm5.574 0h-.969v-6.422h.969v6.422zm-1.047-8.156q0-.344.156-.5.172-.156.422-.156.235 0 .39.172.173.156.173.484 0 .328-.172.484-.156.157-.39.157-.25 0-.423-.157-.156-.156-.156-.484zm5.676 8.281q-1.39 0-2.156-.86-.766-.859-.766-2.437 0-1.61.781-2.484.781-.89 2.203-.89.47 0 .922.109.469.093.735.234l-.297.828q-.328-.14-.703-.219-.375-.078-.672-.078-1.953 0-1.953 2.485 0 1.187.468 1.828.485.625 1.422.625.797 0 1.64-.344v.86q-.64.343-1.624.343zm5.869 0q-1.422 0-2.25-.875-.828-.875-.828-2.406 0-1.563.765-2.469.766-.922 2.063-.922 1.203 0 1.906.797.703.797.703 2.094v.625h-4.422q.032 1.125.563 1.719.547.578 1.531.578 1.031 0 2.047-.438v.875q-.516.219-.984.313-.453.11-1.094.11zm-.266-5.844q-.78 0-1.25.5-.453.5-.53 1.391h3.358q0-.922-.406-1.406-.406-.485-1.172-.485zm6.608 1.438l2.281-4.281h1.078l-2.86 5.234v3.328h-1V219l-2.859-5.281h1.094l2.266 4.28zm5.408 2.89l.094.126q-.157.593-.453 1.359-.282.781-.579 1.453h-.734q.156-.61.344-1.516.187-.89.265-1.421h1.063zm9.184-.359q0 .89-.672 1.39-.657.485-1.875.485-1.266 0-1.985-.406v-.906q.47.234.985.375.53.125 1.03.125.767 0 1.173-.235.406-.25.406-.75 0-.375-.328-.64-.313-.266-1.266-.625-.89-.344-1.28-.594-.376-.25-.563-.563-.172-.312-.172-.75 0-.78.64-1.234.64-.469 1.75-.469 1.032 0 2.032.422l-.36.797q-.953-.39-1.75-.39-.687 0-1.047.218-.343.203-.343.594 0 .25.125.437.14.172.421.344.297.156 1.141.469 1.14.422 1.531.844.407.422.407 1.062zm2.505-4.672v4.172q0 .781.344 1.172.36.375 1.125.375 1.016 0 1.469-.547.469-.547.469-1.797v-3.375h.968v6.422h-.796l-.141-.86h-.047q-.297.47-.828.735-.531.25-1.219.25-1.172 0-1.75-.562-.578-.563-.578-1.782v-4.203h.984zm9.428-.11q1.266 0 1.969.876.703.86.703 2.437 0 1.579-.703 2.47-.703.874-1.969.874-.625 0-1.14-.234-.516-.235-.875-.719h-.063l-.203.828h-.703v-9.125h.969v2.219q0 .75-.047 1.344h.047q.687-.97 2.015-.97zm-.14.813q-.985 0-1.438.579-.437.562-.437 1.921 0 1.36.453 1.938.453.578 1.453.578.89 0 1.328-.64.437-.657.437-1.891 0-1.25-.437-1.86-.438-.625-1.36-.625zm8.65 3.97q0 .89-.672 1.39-.656.484-1.875.484-1.266 0-1.984-.406v-.906q.468.234.984.375.531.125 1.031.125.766 0 1.172-.235.406-.25.406-.75 0-.375-.328-.64-.312-.266-1.265-.625-.89-.344-1.282-.594-.375-.25-.562-.563-.172-.312-.172-.75 0-.78.64-1.234.641-.469 1.75-.469 1.032 0 2.032.422l-.36.797q-.953-.39-1.75-.39-.687 0-1.046.218-.344.203-.344.594 0 .25.125.437.14.172.422.344.297.156 1.14.469 1.141.422 1.532.844.406.422.406 1.062zm4.303 1.874q-1.422 0-2.25-.875-.828-.875-.828-2.406 0-1.563.765-2.469.766-.922 2.063-.922 1.203 0 1.906.797.703.797.703 2.094v.625h-4.422q.031 1.125.563 1.719.547.578 1.53.578 1.032 0 2.048-.438v.875q-.516.219-.985.313-.453.11-1.093.11zm-.266-5.844q-.781 0-1.25.5-.453.5-.531 1.391h3.36q0-.922-.407-1.406-.406-.485-1.172-.485zm6.357 5.032q.25 0 .485-.032.25-.046.39-.078v.735q-.156.078-.468.125-.297.062-.547.062-1.86 0-1.86-1.969v-3.828h-.921v-.468l.921-.407.407-1.36h.562v1.485h1.86v.75h-1.86v3.782q0 .578.266.89.281.313.765.313zm6.682.687l-2.437-6.422h1.046l1.375 3.813q.47 1.328.563 1.734h.047q.062-.312.406-1.281.344-.984 1.531-4.266h1.047l-2.437 6.422h-1.14zm7.762 0h-.953v-6.11q0-.765.047-1.437-.11.125-.266.266-.156.125-1.39 1.14l-.516-.671 2.265-1.75h.813v8.562z"/><path fill="#9fc5e8" fill-rule="evenodd" d="M600.24 170.045h165.575v56.587l-11.318 11.318H600.24z"/><path fill="#7f9db9" fill-rule="evenodd" d="M754.497 237.95l2.264-9.054 9.054-2.264z"/><path fill="#000" fill-opacity="0" fill-rule="evenodd" d="M754.497 237.95l2.264-9.054 9.054-2.264-11.318 11.318H600.24v-67.905h165.575v56.587M599.076 144.93h131.15v24.314h-131.15z"/><path fill="#000" d="M616.982 161.885q0 2.344-1.28 3.594-1.282 1.25-3.688 1.25h-2.625v-9.515h2.906q2.219 0 3.453 1.234t1.234 3.437zm-1.172.032q0-1.86-.937-2.797-.938-.953-2.781-.953h-1.594v7.609h1.344q1.968 0 2.968-.969 1-.984 1-2.89zm6.139 4.937q-1.579 0-2.5-.953-.907-.969-.907-2.672 0-1.734.844-2.75.86-1.015 2.281-1.015 1.344 0 2.125.89.782.875.782 2.328v.672h-4.907q.032 1.266.625 1.922.61.64 1.703.64 1.141 0 2.266-.484v.969q-.562.25-1.078.344-.516.11-1.234.11zm-.297-6.484q-.86 0-1.375.562-.5.563-.594 1.547h3.734q0-1.015-.453-1.562-.453-.547-1.312-.547zm9.368 4.406q0 1-.75 1.547-.734.531-2.078.531-1.422 0-2.219-.437V165.4q.516.266 1.11.422.593.14 1.14.14.844 0 1.297-.265.453-.266.453-.828 0-.406-.36-.703-.359-.297-1.406-.703-1-.375-1.421-.641-.422-.281-.625-.625-.204-.36-.204-.844 0-.875.704-1.375.718-.515 1.953-.515 1.156 0 2.25.468l-.375.875q-1.078-.437-1.953-.437-.766 0-1.157.25-.39.234-.39.656 0 .281.14.484.157.204.47.391.327.172 1.25.531 1.28.453 1.718.922.453.469.453 1.172zm4.061 1.188q.281 0 .547-.032.266-.047.422-.093v.828q-.172.078-.516.125-.343.062-.609.062-2.078 0-2.078-2.172v-4.25h-1.016v-.515l1.016-.453.453-1.516h.625v1.656h2.078v.828h-2.078v4.203q0 .641.312.985.313.344.844.344zm3.471.765h-1.078v-7.125h1.078v7.125zm-1.172-9.062q0-.375.188-.547.187-.172.453-.172.265 0 .453.172.187.172.187.547 0 .359-.187.547-.188.171-.453.171-.266 0-.453-.171-.188-.188-.188-.547zm8.356 9.062v-4.61q0-.874-.407-1.296-.39-.438-1.234-.438-1.125 0-1.656.61-.516.594-.516 2v3.734h-1.078v-7.125h.89l.173.969h.046q.329-.531.922-.813.61-.296 1.344-.296 1.297 0 1.938.625.656.625.656 1.984v4.656h-1.078zm7.68 0l-.219-1.015h-.047q-.53.671-1.062.906-.531.234-1.328.234-1.063 0-1.672-.547-.594-.547-.594-1.547 0-2.156 3.453-2.265l1.22-.047v-.438q0-.843-.36-1.234-.36-.406-1.157-.406-.89 0-2.015.547l-.344-.828q.531-.282 1.156-.438.641-.172 1.266-.172 1.281 0 1.89.563.61.562.61 1.812v4.875h-.797zm-2.437-.765q1 0 1.578-.547.578-.563.578-1.547v-.64l-1.078.03q-1.282.047-1.86.407-.562.359-.562 1.109 0 .578.344.89.359.298 1 .298zm7.771 0q.282 0 .547-.032.266-.047.422-.093v.828q-.172.078-.515.125-.344.062-.61.062-2.078 0-2.078-2.172v-4.25H655.5v-.515l1.016-.453.453-1.516h.625v1.656h2.078v.828h-2.078v4.203q0 .641.313.985.312.344.843.344zm3.471.765h-1.078v-7.125h1.078v7.125zm-1.172-9.062q0-.375.188-.547.187-.172.453-.172t.453.172q.188.172.188.547 0 .359-.188.547-.187.171-.453.171t-.453-.171q-.188-.188-.188-.547zm9.621 5.484q0 1.75-.875 2.734-.875.97-2.421.97-.954 0-1.704-.438-.734-.453-1.14-1.297-.406-.844-.406-1.969 0-1.734.875-2.703.875-.984 2.421-.984 1.485 0 2.36 1 .89 1 .89 2.687zm-5.421 0q0 1.375.546 2.094.547.703 1.594.703 1.063 0 1.61-.703.562-.719.562-2.094 0-1.36-.562-2.062-.547-.704-1.61-.704-1.062 0-1.61.704-.53.687-.53 2.062zm12.206 3.578v-4.61q0-.874-.406-1.296-.39-.438-1.235-.438-1.125 0-1.656.61-.515.594-.515 2v3.734h-1.079v-7.125h.891l.172.969h.047q.328-.531.922-.813.61-.296 1.343-.296 1.297 0 1.938.625.656.625.656 1.984v4.656h-1.078zm4.571-3.953v3.953h-1.11v-9.515h2.61q1.75 0 2.578.671.844.672.844 2.016 0 1.89-1.922 2.547l2.594 4.281h-1.313l-2.297-3.953h-1.984zm0-.953h1.516q1.172 0 1.718-.469.547-.469.547-1.39 0-.954-.562-1.36-.563-.422-1.781-.422h-1.438v3.64zm7.973-2.219v4.625q0 .86.391 1.297.406.422 1.25.422 1.125 0 1.64-.61.516-.609.516-2v-3.734h1.078v7.125h-.89l-.156-.953h-.063q-.328.531-.922.813-.578.265-1.344.265-1.296 0-1.953-.61-.64-.624-.64-1.984v-4.656h1.093zm8.243 7.125h-1.078v-10.125h1.078v10.125zm5.309.125q-1.578 0-2.5-.953-.906-.969-.906-2.672 0-1.734.843-2.75.86-1.015 2.282-1.015 1.343 0 2.125.89.78.875.78 2.328v.672h-4.905q.03 1.266.625 1.922.609.64 1.703.64 1.14 0 2.265-.484v.969q-.562.25-1.078.344-.515.11-1.234.11zm-.297-6.484q-.86 0-1.375.562-.5.563-.594 1.547h3.735q0-1.015-.453-1.562-.454-.547-1.313-.547z"/><path fill="#000" fill-opacity="0" fill-rule="evenodd" d="M604.656 164.877h142.33v60.472h-142.33z"/><path fill="#000" d="M621.344 185.397h-1v-4.032h-4.516v4.032h-1v-8.563h1v3.64h4.516v-3.64h1v8.563zm7.744-3.22q0 1.579-.797 2.47-.781.875-2.188.875-.859 0-1.53-.407-.657-.406-1.032-1.156-.36-.765-.36-1.781 0-1.563.782-2.438.797-.89 2.187-.89 1.344 0 2.141.906.797.89.797 2.422zm-4.89 0q0 1.235.484 1.876.5.64 1.453.64.953 0 1.437-.64.5-.64.5-1.875 0-1.219-.5-1.86-.484-.64-1.453-.64-.953 0-1.437.64-.485.626-.485 1.86zm10.732 1.47q0 .89-.672 1.39-.656.485-1.875.485-1.266 0-1.985-.407v-.906q.47.235.985.375.531.125 1.031.125.766 0 1.172-.234.406-.25.406-.75 0-.375-.328-.64-.312-.266-1.266-.626-.89-.344-1.28-.594-.376-.25-.563-.562-.172-.313-.172-.75 0-.781.64-1.234.641-.47 1.75-.47 1.032 0 2.032.423l-.36.797q-.953-.391-1.75-.391-.687 0-1.047.219-.343.203-.343.593 0 .25.125.438.14.172.422.344.296.156 1.14.468 1.14.422 1.531.844.407.422.407 1.063zm3.662 1.062q.25 0 .484-.031.25-.047.39-.078v.734q-.156.078-.468.125-.297.063-.547.063-1.86 0-1.86-1.97v-3.827h-.921v-.469l.922-.406.406-1.36h.562v1.485h1.86v.75h-1.86v3.781q0 .578.266.89.281.313.766.313zm2.017.063q0-.391.172-.594.188-.203.516-.203.344 0 .531.203.188.203.188.594 0 .39-.188.593-.187.204-.531.204-.297 0-.5-.188-.188-.187-.188-.61zm0-5.172q0-.797.688-.797.719 0 .719.797 0 .375-.188.594-.187.203-.531.203-.297 0-.5-.188-.188-.187-.188-.61zm10.592 4.047q0 .89-.672 1.39-.656.485-1.875.485-1.265 0-1.984-.407v-.906q.469.235.984.375.531.125 1.031.125.766 0 1.172-.234.407-.25.407-.75 0-.375-.329-.64-.312-.266-1.265-.626-.89-.344-1.281-.594-.375-.25-.563-.562-.172-.313-.172-.75 0-.781.64-1.234.641-.47 1.75-.47 1.032 0 2.032.423l-.36.797q-.952-.391-1.75-.391-.687 0-1.046.219-.344.203-.344.593 0 .25.125.438.14.172.422.344.297.156 1.14.468 1.141.422 1.532.844.406.422.406 1.063zm4.303 1.875q-1.422 0-2.25-.875-.828-.875-.828-2.407 0-1.562.765-2.468.766-.922 2.063-.922 1.203 0 1.906.797.703.797.703 2.093v.625h-4.422q.032 1.125.563 1.72.547.577 1.531.577 1.031 0 2.047-.437v.875q-.516.219-.984.312-.454.11-1.094.11zm-.266-5.844q-.781 0-1.25.5-.453.5-.531 1.39h3.36q0-.921-.407-1.406-.406-.484-1.172-.484zm7.217-.828q.422 0 .766.078l-.141.906q-.39-.094-.703-.094-.781 0-1.344.641-.547.625-.547 1.563v3.453h-.968v-6.422h.796l.125 1.187h.047q.344-.625.844-.968.516-.344 1.125-.344zm3.367 6.547l-2.437-6.422h1.047l1.375 3.812q.468 1.328.562 1.735h.047q.062-.313.406-1.282.344-.984 1.531-4.265h1.047l-2.437 6.422h-1.14zm5.574 0h-.968v-6.422h.968v6.422zm-1.046-8.157q0-.343.156-.5.172-.156.422-.156.234 0 .39.172.172.156.172.484 0 .329-.172.485-.156.156-.39.156-.25 0-.422-.156-.156-.156-.156-.485zm5.675 8.282q-1.39 0-2.156-.86-.766-.86-.766-2.437 0-1.61.782-2.485.781-.89 2.203-.89.469 0 .922.11.468.093.734.234l-.297.828q-.328-.141-.703-.22-.375-.077-.672-.077-1.953 0-1.953 2.484 0 1.188.469 1.828.484.625 1.422.625.797 0 1.64-.343v.859q-.64.344-1.625.344zm5.87 0q-1.422 0-2.25-.875-.829-.875-.829-2.407 0-1.562.766-2.468.766-.922 2.062-.922 1.204 0 1.907.797.703.797.703 2.093v.625h-4.422q.031 1.125.562 1.72.547.577 1.532.577 1.031 0 2.047-.437v.875q-.516.219-.985.312-.453.11-1.094.11zm-.266-5.844q-.781 0-1.25.5-.453.5-.531 1.39h3.359q0-.921-.406-1.406-.407-.484-1.172-.484zm6.607 1.437l2.282-4.28h1.078l-2.86 5.234v3.328h-1v-3.282l-2.86-5.28h1.095l2.265 4.28zm-68.564 16q0 1.125-.828 1.766-.813.64-2.22.64-1.53 0-2.343-.406v-.953q.531.219 1.14.36.626.125 1.235.125 1 0 1.5-.375.5-.391.5-1.063 0-.437-.187-.719-.172-.296-.594-.53-.406-.25-1.266-.548-1.187-.422-1.703-1-.515-.593-.515-1.547 0-.984.734-1.562.75-.594 1.984-.594 1.266 0 2.344.469l-.312.86q-1.063-.438-2.063-.438-.797 0-1.25.344-.437.328-.437.937 0 .438.156.734.172.282.562.516.39.234 1.203.531 1.344.469 1.844 1.032.516.546.516 1.421zm2.523-4.14v4.172q0 .78.344 1.172.36.375 1.125.375 1.016 0 1.469-.547.468-.547.468-1.797v-3.375h.97v6.422h-.798l-.14-.86h-.047q-.297.469-.828.735-.532.25-1.219.25-1.172 0-1.75-.563-.578-.562-.578-1.781v-4.203h.984zm9.428-.11q1.266 0 1.969.875.703.86.703 2.438 0 1.578-.703 2.469-.703.875-1.969.875-.625 0-1.14-.235-.516-.234-.876-.718h-.062l-.203.828h-.703v-9.125h.968v2.218q0 .75-.047 1.344h.047q.688-.969 2.016-.969zm-.14.813q-.985 0-1.438.578-.438.563-.438 1.922 0 1.36.453 1.937.454.579 1.454.579.89 0 1.328-.641.437-.656.437-1.89 0-1.25-.437-1.86-.438-.625-1.36-.625zm8.65 3.969q0 .89-.672 1.39-.656.485-1.875.485-1.266 0-1.985-.407v-.906q.47.235.985.375.531.125 1.031.125.766 0 1.172-.234.406-.25.406-.75 0-.375-.328-.64-.312-.266-1.266-.626-.89-.344-1.28-.594-.376-.25-.563-.562-.172-.313-.172-.75 0-.781.64-1.234.641-.47 1.75-.47 1.032 0 2.032.423l-.36.797q-.953-.391-1.75-.391-.687 0-1.047.219-.343.203-.343.593 0 .25.125.438.14.172.422.344.296.156 1.14.468 1.14.422 1.531.844.407.422.407 1.063zm4.302 1.875q-1.421 0-2.25-.875-.828-.875-.828-2.407 0-1.562.766-2.468.766-.922 2.062-.922 1.204 0 1.907.797.703.797.703 2.093v.625h-4.422q.031 1.125.562 1.72.547.577 1.532.577 1.031 0 2.047-.437v.875q-.516.219-.985.312-.453.11-1.094.11zm-.265-5.844q-.781 0-1.25.5-.453.5-.531 1.39h3.359q0-.921-.406-1.406-.407-.484-1.172-.484zm6.357 5.031q.25 0 .485-.031.25-.047.39-.078v.734q-.156.078-.468.125-.297.063-.547.063-1.86 0-1.86-1.97v-3.827h-.922v-.469l.922-.406.407-1.36h.562v1.485h1.86v.75h-1.86v3.781q0 .578.266.89.28.313.765.313zm6.3-1.062q0 .89-.673 1.39-.656.485-1.875.485-1.265 0-1.984-.407v-.906q.469.235.984.375.531.125 1.031.125.766 0 1.172-.234.407-.25.407-.75 0-.375-.329-.64-.312-.266-1.265-.626-.89-.344-1.281-.594-.375-.25-.563-.562-.172-.313-.172-.75 0-.781.64-1.234.641-.47 1.75-.47 1.032 0 2.032.423l-.36.797q-.952-.391-1.75-.391-.687 0-1.046.219-.344.203-.344.593 0 .25.125.438.14.172.422.344.297.156 1.14.468 1.141.422 1.532.844.406.422.406 1.063zm1.442 1.125q0-.391.172-.594.188-.203.516-.203.344 0 .531.203.188.203.188.594 0 .39-.188.593-.187.204-.531.204-.297 0-.5-.188-.188-.187-.188-.61zm0-5.172q0-.797.688-.797.719 0 .719.797 0 .375-.188.594-.187.203-.531.203-.297 0-.5-.188-.188-.187-.188-.61zm7.858 5.797l-2.438-6.422h1.047l1.375 3.812q.469 1.328.563 1.735h.047q.062-.313.406-1.282.344-.984 1.531-4.265h1.047l-2.437 6.422h-1.141zm7.762 0h-.954v-6.11q0-.765.047-1.437-.109.125-.265.265-.157.125-1.39 1.141l-.517-.672 2.266-1.75h.813v8.563zm4.72-1.391l.094.125q-.156.594-.453 1.36-.281.78-.578 1.453h-.735q.157-.61.344-1.516.188-.89.266-1.422h1.062zm6.45 1.39l-2.438-6.421h1.047l1.375 3.812q.469 1.328.562 1.735h.047q.063-.313.407-1.282.343-.984 1.53-4.265h1.048l-2.438 6.422h-1.14zm9.792 0h-5.625v-.843l2.25-2.266q1.032-1.047 1.36-1.484.328-.453.484-.875.172-.422.172-.906 0-.688-.422-1.078-.406-.407-1.156-.407-.531 0-1.016.188-.468.172-1.047.625l-.515-.656q1.172-.985 2.578-.985 1.203 0 1.89.625.688.61.688 1.656 0 .813-.469 1.61-.453.797-1.703 2.015l-1.875 1.829v.046h4.406v.907zm2.69-1.39l.094.125q-.157.594-.453 1.36-.282.78-.579 1.453h-.734q.156-.61.344-1.516.187-.89.265-1.422h1.063zm4.902.766q0-.391.172-.594.188-.203.516-.203.344 0 .531.203.188.203.188.594 0 .39-.188.593-.187.204-.531.204-.297 0-.5-.188-.188-.187-.188-.61zm3 0q0-.391.172-.594.188-.203.516-.203.344 0 .531.203.188.203.188.594 0 .39-.188.593-.187.204-.531.204-.297 0-.5-.188-.188-.187-.188-.61zm3 0q0-.391.172-.594.188-.203.516-.203.344 0 .531.203.188.203.188.594 0 .39-.188.593-.187.204-.531.204-.297 0-.5-.188-.188-.187-.188-.61zm-90.974 14.625h-1v-7.688h-2.703v-.875h6.421v.875h-2.718v7.688zm3.998 0v-8.563h1v7.656h3.781v.907h-4.781zm11.072-2.282q0 1.125-.828 1.766-.813.64-2.219.64-1.531 0-2.344-.406v-.953q.532.219 1.141.36.625.125 1.234.125 1 0 1.5-.375.5-.391.5-1.063 0-.437-.187-.719-.172-.296-.594-.53-.406-.25-1.265-.548-1.188-.422-1.704-1-.515-.593-.515-1.547 0-.984.734-1.562.75-.594 1.985-.594 1.265 0 2.343.469l-.312.86q-1.063-.438-2.063-.438-.797 0-1.25.344-.437.328-.437.937 0 .438.156.734.172.282.563.516.39.234 1.203.531 1.343.469 1.843 1.032.516.546.516 1.421zm8.86.532q0 .89-.672 1.39-.657.485-1.875.485-1.266 0-1.985-.407v-.906q.469.235.985.375.53.125 1.03.125.766 0 1.173-.234.406-.25.406-.75 0-.375-.328-.64-.313-.266-1.266-.626-.89-.344-1.281-.594-.375-.25-.563-.562-.171-.313-.171-.75 0-.781.64-1.234.64-.47 1.75-.47 1.031 0 2.031.423l-.359.797q-.953-.391-1.75-.391-.687 0-1.047.219-.344.203-.344.593 0 .25.125.438.141.172.422.344.297.156 1.14.468 1.142.422 1.532.844.406.422.406 1.063zm4.302 1.875q-1.422 0-2.25-.875-.828-.875-.828-2.407 0-1.562.766-2.468.765-.922 2.062-.922 1.203 0 1.906.797.703.797.703 2.093v.625h-4.421q.03 1.125.562 1.72.547.577 1.531.577 1.032 0 2.047-.437v.875q-.515.219-.984.312-.453.11-1.094.11zm-.266-5.844q-.78 0-1.25.5-.453.5-.53 1.39h3.359q0-.921-.407-1.406-.406-.484-1.172-.484zm6.358 5.031q.25 0 .484-.031.25-.047.39-.078v.734q-.155.078-.468.125-.297.063-.547.063-1.86 0-1.86-1.97v-3.827h-.921v-.469l.922-.406.406-1.36h.563v1.485h1.859v.75h-1.86v3.781q0 .578.266.89.282.313.766.313zm4.236 0q.25 0 .485-.031.25-.047.39-.078v.734q-.156.078-.469.125-.296.063-.546.063-1.86 0-1.86-1.97v-3.827h-.922v-.469l.922-.406.406-1.36h.563v1.485h1.86v.75h-1.86v3.781q0 .578.266.89.28.313.765.313zm3.127.688h-.969v-6.422h.97v6.422zm-1.047-8.157q0-.343.157-.5.171-.156.421-.156.235 0 .391.172.172.156.172.484 0 .329-.172.485-.156.156-.39.156-.25 0-.422-.156-.157-.156-.157-.485zm7.504 8.157v-4.157q0-.78-.36-1.171-.343-.391-1.109-.391-1.015 0-1.484.547-.469.547-.469 1.797v3.375h-.968v-6.422h.796l.157.875h.047q.296-.469.828-.735.547-.265 1.203-.265 1.172 0 1.75.562.594.563.594 1.797v4.188h-.985zm8.225-6.422v.61l-1.188.14q.172.203.297.547.125.328.125.734 0 .953-.64 1.516-.641.562-1.766.562-.297 0-.547-.047-.61.328-.61.828 0 .266.204.391.219.125.75.125h1.14q1.047 0 1.594.438.563.437.563 1.28 0 1.063-.86 1.626-.843.562-2.484.562-1.266 0-1.953-.468-.672-.47-.672-1.329 0-.593.375-1.03.375-.423 1.047-.563-.25-.11-.422-.344-.156-.234-.156-.547 0-.36.187-.625.188-.266.594-.5-.5-.203-.813-.687-.312-.5-.312-1.141 0-1.047.625-1.625.64-.578 1.797-.578.5 0 .906.125h2.219zm-5.11 7.5q0 .515.438.781.437.281 1.25.281 1.234 0 1.812-.375.594-.36.594-.984 0-.516-.328-.719-.312-.203-1.203-.203h-1.172q-.656 0-1.031.313-.36.312-.36.906zm.516-5.438q0 .672.375 1.016.39.344 1.078.344 1.422 0 1.422-1.391 0-1.437-1.437-1.437-.688 0-1.063.375-.375.359-.375 1.093zm10.059 2.61q0 .89-.672 1.39-.656.485-1.875.485-1.266 0-1.985-.407v-.906q.47.235.985.375.531.125 1.031.125.766 0 1.172-.234.406-.25.406-.75 0-.375-.328-.64-.312-.266-1.266-.626-.89-.344-1.28-.594-.376-.25-.563-.562-.172-.313-.172-.75 0-.781.64-1.234.641-.47 1.75-.47 1.032 0 2.032.423l-.36.797q-.953-.391-1.75-.391-.687 0-1.047.219-.343.203-.343.593 0 .25.125.438.14.172.422.344.296.156 1.14.468 1.14.422 1.531.844.407.422.407 1.063zM618.5 219.6q-1.406 0-2.234.937-.813.938-.813 2.578 0 1.672.781 2.594.797.922 2.25.922.907 0 2.047-.328v.875q-.89.344-2.187.344-1.89 0-2.922-1.157-1.031-1.156-1.031-3.265 0-1.328.484-2.313.5-1 1.437-1.531.938-.547 2.204-.547 1.343 0 2.359.485l-.422.859q-.984-.453-1.953-.453zm4.727 7.797h-.97v-6.422h.97v6.422zm-1.047-8.157q0-.343.156-.5.172-.156.422-.156.234 0 .39.172.172.156.172.484 0 .329-.172.485-.156.156-.39.156-.25 0-.422-.156-.156-.156-.156-.485zm6.05 1.61q.422 0 .766.078l-.14.906q-.391-.094-.704-.094-.781 0-1.343.641-.547.625-.547 1.563v3.453h-.97v-6.422h.798l.125 1.187h.047q.343-.625.843-.968.516-.344 1.125-.344zm4.524 6.672q-1.39 0-2.156-.86-.766-.86-.766-2.437 0-1.61.781-2.485.781-.89 2.203-.89.47 0 .922.11.469.093.735.234l-.297.828q-.328-.141-.703-.22-.375-.077-.672-.077-1.953 0-1.953 2.484 0 1.188.468 1.828.485.625 1.422.625.797 0 1.64-.343v.859q-.64.344-1.624.344zm4.072-6.547v4.172q0 .78.344 1.172.36.375 1.125.375 1.015 0 1.469-.547.468-.547.468-1.797v-3.375h.97v6.422h-.798l-.14-.86h-.047q-.297.469-.828.735-.532.25-1.22.25-1.171 0-1.75-.563-.577-.562-.577-1.781v-4.203h.984zm7.412 6.422h-.969v-6.422h.97v6.422zm-1.047-8.157q0-.343.157-.5.171-.156.421-.156.235 0 .391.172.172.156.172.484 0 .329-.172.485-.156.156-.39.156-.25 0-.422-.156-.157-.156-.157-.485zm5.192 7.47q.25 0 .484-.032.25-.047.39-.078v.734q-.155.078-.468.125-.297.063-.547.063-1.86 0-1.86-1.97v-3.827h-.921v-.469l.922-.406.406-1.36h.563v1.485h1.859v.75h-1.86v3.781q0 .578.266.89.281.313.766.313zm8.26-5.845q1.265 0 1.968.875.703.86.703 2.438 0 1.578-.703 2.469-.703.875-1.968.875-.625 0-1.141-.235-.516-.234-.875-.718h-.063l-.203.828h-.703v-9.125h.969v2.218q0 .75-.047 1.344h.047q.687-.969 2.016-.969zm-.141.813q-.984 0-1.438.578-.437.563-.437 1.922 0 1.36.453 1.937.453.579 1.453.579.89 0 1.328-.641.438-.656.438-1.89 0-1.25-.438-1.86-.437-.625-1.36-.625zm7.447-.828q.422 0 .766.078l-.14.906q-.391-.094-.704-.094-.781 0-1.344.641-.547.625-.547 1.563v3.453h-.968v-6.422h.797l.125 1.187h.046q.344-.625.844-.968.516-.344 1.125-.344zm4.68 6.672q-1.422 0-2.25-.875-.828-.875-.828-2.407 0-1.562.765-2.468.766-.922 2.063-.922 1.203 0 1.906.797.703.797.703 2.093v.625h-4.422q.032 1.125.563 1.72.547.577 1.531.577 1.031 0 2.047-.437v.875q-.516.219-.984.312-.454.11-1.094.11zm-.266-5.844q-.781 0-1.25.5-.453.5-.531 1.39h3.36q0-.921-.407-1.406-.406-.484-1.172-.484zm8.233 5.719l-.203-.922h-.047q-.47.61-.953.828-.47.219-1.188.219-.953 0-1.5-.5t-.547-1.407q0-1.937 3.11-2.03l1.093-.032v-.406q0-.75-.328-1.11-.312-.36-1.031-.36-.813 0-1.813.485l-.312-.75q.484-.25 1.047-.39.562-.157 1.14-.157 1.141 0 1.688.516.562.5.562 1.625v4.39h-.718zm-2.203-.688q.906 0 1.421-.5.532-.5.532-1.39v-.579l-.985.032q-1.156.047-1.672.375-.5.312-.5.984 0 .531.313.813.312.265.89.265zm5.892-2.594q.25-.359.766-.937l2.062-2.203h1.156l-2.593 2.734 2.781 3.688h-1.172l-2.281-3.032-.719.625v2.407h-.969v-9.125h.97v4.843q0 .313-.048 1h.047zm8.049 3.407q-1.422 0-2.25-.875-.828-.875-.828-2.407 0-1.562.765-2.468.766-.922 2.063-.922 1.203 0 1.906.797.703.797.703 2.093v.625h-4.422q.032 1.125.563 1.72.547.577 1.531.577 1.031 0 2.047-.437v.875q-.516.219-.984.312-.453.11-1.094.11zm-.266-5.844q-.781 0-1.25.5-.453.5-.531 1.39h3.36q0-.921-.407-1.406-.406-.484-1.172-.484zm7.217-.828q.422 0 .766.078l-.14.906q-.392-.094-.704-.094-.781 0-1.344.641-.547.625-.547 1.563v3.453h-.968v-6.422h.796l.125 1.187h.047q.344-.625.844-.968.516-.344 1.125-.344zm6.102 4.797q0 .89-.672 1.39-.656.485-1.875.485-1.266 0-1.985-.407v-.906q.47.235.985.375.531.125 1.031.125.766 0 1.172-.234.406-.25.406-.75 0-.375-.328-.64-.312-.266-1.266-.626-.89-.344-1.28-.594-.376-.25-.563-.562-.172-.313-.172-.75 0-.781.64-1.234.641-.47 1.75-.47 1.032 0 2.032.423l-.36.797q-.953-.391-1.75-.391-.687 0-1.047.219-.343.203-.343.593 0 .25.125.438.14.172.422.344.296.156 1.14.468 1.14.422 1.531.844.407.422.407 1.063zm1.443 1.125q0-.391.172-.594.187-.203.516-.203.343 0 .53.203.188.203.188.594 0 .39-.187.593-.188.204-.531.204-.297 0-.5-.188-.188-.187-.188-.61zm3.193 0q0-.391.172-.594.188-.203.516-.203.344 0 .531.203.188.203.188.594 0 .39-.188.593-.187.204-.531.204-.297 0-.5-.188-.188-.187-.188-.61z"/><path fill="#ea9999" fill-rule="evenodd" d="M532.56 203.404h45.843v-7.315l14.63 14.63-14.63 14.63v-7.315H532.56z"/><path fill="#b6d7a8" fill-rule="evenodd" d="M775.339 279.661h115.559v29.26h-115.56z"/><path fill="#000" d="M796.583 297.104q0 1.516-1.094 2.36-1.093.844-2.968.844-2.032 0-3.125-.532v-1.28q.703.296 1.53.468.829.172 1.641.172 1.329 0 2-.5.672-.5.672-1.407 0-.593-.234-.968t-.797-.688q-.562-.328-1.703-.734-1.594-.578-2.281-1.36-.672-.78-.672-2.03 0-1.329.984-2.11 1-.781 2.625-.781 1.703 0 3.14.625l-.421 1.156q-1.406-.594-2.75-.594-1.047 0-1.64.453-.594.453-.594 1.266 0 .594.218.969.22.375.735.703.515.312 1.593.687 1.797.64 2.47 1.375.671.735.671 1.906zm5.766 3.204q-1.907 0-3-1.157-1.094-1.156-1.094-3.218 0-2.063 1.016-3.282 1.015-1.218 2.734-1.218 1.61 0 2.547 1.062.937 1.047.937 2.781v.828h-5.89q.03 1.5.75 2.282.734.781 2.047.781 1.375 0 2.734-.578v1.156q-.688.297-1.313.422-.609.14-1.468.14zm-.36-7.797q-1.03 0-1.64.672-.61.671-.72 1.859h4.47q0-1.219-.547-1.875-.547-.656-1.563-.656zm9.618-1.078q.578 0 1.03.093l-.187 1.203q-.531-.125-.937-.125-1.031 0-1.781.844-.735.844-.735 2.11v4.593H807.7v-8.562h1.078l.141 1.578h.063q.484-.828 1.156-1.281.672-.453 1.469-.453zm4.5 8.718l-3.25-8.562h1.39l1.844 5.078q.625 1.781.734 2.312h.063q.094-.421.547-1.718.453-1.297 2.047-5.672h1.39l-3.25 8.562h-1.515zm7.437 0h-1.297v-8.562h1.297v8.562zm-1.406-10.89q0-.438.219-.64.218-.22.546-.22.313 0 .532.22.234.202.234.64 0 .437-.234.656-.22.219-.532.219-.328 0-.546-.219-.22-.219-.22-.656zm7.578 11.047q-1.86 0-2.875-1.141-1.016-1.156-1.016-3.25 0-2.14 1.032-3.313 1.03-1.171 2.953-1.171.609 0 1.218.14.625.125.985.297l-.406 1.11q-.422-.172-.938-.282-.5-.125-.89-.125-2.61 0-2.61 3.328 0 1.578.625 2.422.64.844 1.89.844 1.079 0 2.204-.453v1.14q-.86.454-2.172.454zm7.82 0q-1.906 0-3-1.157-1.094-1.156-1.094-3.218 0-2.063 1.016-3.282 1.016-1.218 2.734-1.218 1.61 0 2.547 1.062.938 1.047.938 2.781v.828h-5.89q.03 1.5.75 2.282.734.781 2.046.781 1.375 0 2.734-.578v1.156q-.687.297-1.312.422-.61.14-1.469.14zm-.36-7.797q-1.03 0-1.64.672-.61.671-.719 1.859h4.47q0-1.219-.548-1.875-.547-.656-1.562-.656zm12.977 1.922l3.047-5.704h1.438l-3.813 6.985v4.437h-1.343v-4.375l-3.813-7.047h1.453l3.031 5.704zm10.196-5.704l-4.266 11.422h-1.297l4.266-11.422h1.297zm3.406 11.422l-3.25-8.562h1.39l1.844 5.078q.625 1.781.735 2.312h.062q.094-.421.547-1.718.453-1.297 2.047-5.672h1.39l-3.25 8.562h-1.515zm10.36 0h-1.266v-8.14q0-1.016.062-1.922-.172.156-.375.344-.203.171-1.86 1.515l-.687-.89 3.032-2.329h1.093v11.422z"/><path fill="#b6d7a8" fill-rule="evenodd" d="M775.339 322.627h115.559v29.26h-115.56z"/><path fill="#000" d="M796.583 340.07q0 1.516-1.094 2.36-1.093.843-2.968.843-2.032 0-3.125-.53v-1.282q.703.297 1.53.469.829.172 1.641.172 1.329 0 2-.5.672-.5.672-1.407 0-.593-.234-.968t-.797-.688q-.562-.328-1.703-.734-1.594-.578-2.281-1.36-.672-.78-.672-2.03 0-1.329.984-2.11 1-.782 2.625-.782 1.703 0 3.14.625l-.421 1.157q-1.406-.594-2.75-.594-1.047 0-1.64.453-.594.453-.594 1.266 0 .593.218.968.22.375.735.704.515.312 1.593.687 1.797.64 2.47 1.375.671.734.671 1.906zm5.766 3.203q-1.907 0-3-1.156-1.094-1.156-1.094-3.219 0-2.062 1.016-3.28 1.015-1.22 2.734-1.22 1.61 0 2.547 1.063.937 1.047.937 2.781v.828h-5.89q.03 1.5.75 2.282.734.78 2.047.78 1.375 0 2.734-.577v1.156q-.688.297-1.313.422-.609.14-1.468.14zm-.36-7.796q-1.03 0-1.64.671-.61.672-.72 1.86h4.47q0-1.219-.547-1.875-.547-.656-1.563-.656zm9.618-1.079q.578 0 1.03.094l-.187 1.203q-.531-.125-.937-.125-1.031 0-1.781.844-.735.844-.735 2.11v4.593H807.7v-8.562h1.078l.141 1.578h.063q.484-.828 1.156-1.281.672-.454 1.469-.454zm4.5 8.72l-3.25-8.563h1.39l1.844 5.078q.625 1.781.734 2.312h.063q.094-.422.547-1.718.453-1.297 2.047-5.672h1.39l-3.25 8.562h-1.515zm7.437 0h-1.297v-8.563h1.297v8.562zm-1.406-10.891q0-.438.219-.641.218-.219.546-.219.313 0 .532.219.234.203.234.64 0 .438-.234.657-.22.219-.532.219-.328 0-.546-.22-.22-.218-.22-.655zm7.578 11.046q-1.86 0-2.875-1.14-1.016-1.156-1.016-3.25 0-2.14 1.032-3.313 1.03-1.172 2.953-1.172.609 0 1.218.141.625.125.985.297l-.406 1.11q-.422-.173-.938-.282-.5-.125-.89-.125-2.61 0-2.61 3.328 0 1.578.625 2.422.64.844 1.89.844 1.079 0 2.204-.453v1.14q-.86.453-2.172.453zm7.82 0q-1.906 0-3-1.156t-1.094-3.219q0-2.062 1.016-3.28 1.016-1.22 2.734-1.22 1.61 0 2.547 1.063.938 1.047.938 2.781v.828h-5.89q.03 1.5.75 2.282.734.78 2.046.78 1.375 0 2.734-.577v1.156q-.687.297-1.312.422-.61.14-1.469.14zm-.36-7.796q-1.03 0-1.64.671-.61.672-.719 1.86h4.47q0-1.219-.548-1.875-.547-.656-1.562-.656zm12.977 1.921l3.047-5.703h1.438l-3.813 6.985v4.437h-1.343v-4.375l-3.813-7.047h1.453l3.031 5.703zm10.196-5.703l-4.266 11.422h-1.297l4.266-11.422h1.297zm3.406 11.422l-3.25-8.562h1.39l1.844 5.078q.625 1.781.735 2.312h.062q.094-.422.547-1.718.453-1.297 2.047-5.672h1.39l-3.25 8.562h-1.515zm13.062 0h-7.515v-1.125l3.015-3.015q1.375-1.391 1.813-1.985.437-.594.656-1.156.219-.563.219-1.219 0-.906-.563-1.437-.546-.547-1.53-.547-.72 0-1.36.234-.625.235-1.406.86l-.688-.891q1.578-1.313 3.438-1.313 1.609 0 2.515.829.922.828.922 2.218 0 1.078-.61 2.141-.609 1.062-2.28 2.687l-2.5 2.454v.062h5.874v1.203z"/><path fill="#ea9999" fill-rule="evenodd" d="M773.021 205.391h29.224c15.108 0 27.355 12.247 27.355 27.354v29.093h8.082l-16.165 15.427-16.165-15.427h8.082v-29.093c0-6.18-5.01-11.189-11.189-11.189h-29.224z"/><path fill="#9fc5e8" fill-rule="evenodd" d="M174.672 107.399a4.877 4.877 0 014.877-4.877H239.4a4.877 4.877 0 014.877 4.877v19.506a4.877 4.877 0 01-4.877 4.877h-59.85a4.877 4.877 0 01-4.877-4.877z"/><path fill="#000" d="M186.272 114.672v-8.562h1v8.562h-1zm7.596 0v-4.156q0-.781-.36-1.172-.343-.39-1.109-.39-1.016 0-1.484.546-.469.547-.469 1.797v3.375h-.969v-6.422h.797l.156.875h.047q.297-.468.828-.734.547-.266 1.203-.266 1.172 0 1.75.563.594.562.594 1.797v4.187h-.984zm8.224-6.422v.61l-1.187.14q.172.203.297.547.125.328.125.735 0 .953-.64 1.515-.641.563-1.766.563-.297 0-.547-.047-.61.328-.61.828 0 .266.203.39.22.126.75.126h1.141q1.047 0 1.594.437.562.438.562 1.281 0 1.063-.859 1.625-.844.563-2.484.563-1.266 0-1.954-.469-.671-.469-.671-1.328 0-.594.375-1.031.375-.422 1.046-.563-.25-.11-.421-.344-.157-.234-.157-.546 0-.36.188-.625.187-.266.594-.5-.5-.204-.813-.688-.312-.5-.312-1.14 0-1.047.625-1.626.64-.578 1.796-.578.5 0 .907.125h2.218zm-5.109 7.5q0 .516.438.782.437.28 1.25.28 1.234 0 1.812-.374.594-.36.594-.985 0-.515-.328-.718-.313-.203-1.203-.203h-1.172q-.657 0-1.032.312-.359.313-.359.906zm.516-5.437q0 .672.375 1.015.39.344 1.078.344 1.422 0 1.422-1.39 0-1.438-1.438-1.438-.687 0-1.062.375-.375.36-.375 1.094zm8.855-2.188q.422 0 .766.078l-.14.907q-.391-.094-.704-.094-.781 0-1.344.64-.547.626-.547 1.563v3.453h-.968v-6.422h.797l.125 1.188h.046q.344-.625.844-.969.516-.344 1.125-.344zm4.68 6.672q-1.422 0-2.25-.875-.828-.875-.828-2.406 0-1.563.765-2.469.766-.922 2.063-.922 1.203 0 1.906.797.703.797.703 2.094v.625h-4.422q.032 1.125.563 1.719.547.578 1.531.578 1.031 0 2.047-.438v.875q-.516.22-.984.313-.454.11-1.094.11zm-.266-5.844q-.781 0-1.25.5-.453.5-.531 1.391h3.36q0-.922-.407-1.406-.406-.485-1.172-.485zm8.42 3.97q0 .89-.672 1.39-.656.484-1.875.484-1.265 0-1.984-.406v-.906q.469.234.984.375.532.125 1.032.125.765 0 1.171-.235.407-.25.407-.75 0-.375-.328-.64-.313-.266-1.266-.625-.89-.344-1.281-.594-.375-.25-.563-.563-.172-.312-.172-.75 0-.78.64-1.234.642-.469 1.75-.469 1.032 0 2.032.422l-.36.797q-.952-.39-1.75-.39-.687 0-1.046.218-.344.203-.344.594 0 .25.125.437.14.172.422.344.297.156 1.14.469 1.141.422 1.532.844.406.422.406 1.062zm5.725 0q0 .89-.672 1.39-.656.484-1.875.484-1.266 0-1.984-.406v-.906q.468.234.984.375.531.125 1.031.125.766 0 1.172-.235.406-.25.406-.75 0-.375-.328-.64-.312-.266-1.265-.625-.891-.344-1.282-.594-.375-.25-.562-.563-.172-.312-.172-.75 0-.78.64-1.234.641-.469 1.75-.469 1.032 0 2.032.422l-.36.797q-.953-.39-1.75-.39-.687 0-1.046.218-.344.203-.344.594 0 .25.125.437.14.172.422.344.297.156 1.14.469 1.14.422 1.532.844.406.422.406 1.062zm-33.531 9.327v.61l-1.188.14q.172.203.297.547.125.328.125.735 0 .953-.64 1.515-.641.563-1.766.563-.297 0-.547-.047-.61.328-.61.828 0 .266.204.39.218.126.75.126h1.14q1.047 0 1.594.437.562.438.562 1.281 0 1.063-.859 1.625-.844.563-2.484.563-1.266 0-1.953-.469-.672-.469-.672-1.328 0-.594.375-1.031.375-.422 1.047-.563-.25-.11-.422-.344-.157-.234-.157-.546 0-.36.188-.625.187-.266.594-.5-.5-.204-.813-.688-.312-.5-.312-1.14 0-1.047.625-1.626.64-.578 1.797-.578.5 0 .906.125h2.219zm-5.11 7.5q0 .516.438.782.437.28 1.25.28 1.234 0 1.812-.374.594-.36.594-.985 0-.515-.328-.718-.313-.203-1.203-.203h-1.172q-.656 0-1.031.312-.36.313-.36.906zm.516-5.437q0 .672.375 1.015.39.344 1.078.344 1.422 0 1.422-1.39 0-1.438-1.438-1.438-.687 0-1.062.375-.375.36-.375 1.094zm9.87 4.36l-.202-.923h-.047q-.469.61-.953.828-.469.22-1.188.22-.953 0-1.5-.5t-.547-1.407q0-1.938 3.11-2.031l1.093-.032v-.406q0-.75-.328-1.11-.312-.359-1.03-.359-.813 0-1.813.485l-.313-.75q.484-.25 1.047-.39.562-.157 1.14-.157 1.141 0 1.688.516.563.5.563 1.625v4.39h-.72zm-2.202-.688q.906 0 1.422-.5.53-.5.53-1.39v-.579l-.984.031q-1.156.047-1.671.375-.5.313-.5.985 0 .53.312.812.313.266.89.266zm7.002 0q.25 0 .484-.032.25-.046.39-.078v.735q-.156.078-.468.125-.297.062-.547.062-1.86 0-1.86-1.969V123h-.921v-.468l.922-.407.406-1.359h.562v1.484h1.86v.75h-1.86v3.782q0 .578.266.89.281.313.766.313zm4.877.812q-1.422 0-2.25-.875-.828-.875-.828-2.406 0-1.563.765-2.469.766-.922 2.063-.922 1.203 0 1.906.797.703.797.703 2.094v.625h-4.422q.031 1.125.563 1.719.547.578 1.53.578 1.032 0 2.048-.438v.875q-.516.22-.985.313-.453.11-1.093.11zm-.266-5.844q-.781 0-1.25.5-.453.5-.531 1.391h3.36q0-.922-.407-1.406-.406-.485-1.172-.485zm9.53 5.72l-1.188-3.766q-.11-.344-.406-1.579h-.047q-.235 1.032-.422 1.594l-1.203 3.75h-1.125l-1.75-6.422h1.015q.625 2.422.938 3.688.328 1.265.375 1.703h.047q.062-.328.203-.86.156-.53.265-.843l1.172-3.688h1.047l1.156 3.688q.329 1 .438 1.687h.047q.031-.203.125-.64.11-.453 1.234-4.735h1l-1.765 6.422h-1.157zm8.036 0l-.203-.923h-.047q-.468.61-.953.828-.468.22-1.187.22-.953 0-1.5-.5t-.547-1.407q0-1.938 3.11-2.031l1.093-.032v-.406q0-.75-.328-1.11-.313-.359-1.031-.359-.813 0-1.813.485l-.312-.75q.484-.25 1.047-.39.562-.157 1.14-.157 1.14 0 1.688.516.562.5.562 1.625v4.39h-.719zm-2.203-.688q.907 0 1.422-.5.531-.5.531-1.39v-.579l-.984.031q-1.156.047-1.672.375-.5.313-.5.985 0 .53.313.812.312.266.89.266zm3.909-5.735h1.046l1.407 3.657q.453 1.265.562 1.812h.047q.078-.297.313-1.016.25-.734 1.609-4.453h1.031l-2.75 7.313q-.422 1.078-.969 1.531-.546.469-1.343.469-.438 0-.875-.11v-.78q.328.077.718.077 1 0 1.438-1.125l.36-.922-2.594-6.453z"/><path fill="#ea9999" fill-rule="evenodd" d="M418.226 54.412h23.77c13.127 0 23.77 10.642 23.77 23.77v55.939h6.79l-13.582 13.582-13.583-13.582h6.791V78.18c0-5.625-4.56-10.186-10.187-10.186h-23.77z"/><path fill="#9fc5e8" fill-rule="evenodd" d="M247.058 25.115h165.575v56.588l-11.318 11.318H247.058z"/><path fill="#7f9db9" fill-rule="evenodd" d="M401.315 93.021l2.263-9.054 9.055-2.264z"/><path fill="#000" fill-opacity="0" fill-rule="evenodd" d="M401.315 93.021l2.263-9.054 9.055-2.264-11.318 11.318H247.058V25.115h165.575v56.588"/><path fill="#000" fill-opacity="0" fill-rule="evenodd" d="M241.472 0h131.15v38.93h-131.15z"/><path fill="#000" d="M255.972 16.816h3.235v4.625q-.766.25-1.547.359-.781.125-1.813.125-2.156 0-3.359-1.281-1.203-1.282-1.203-3.594 0-1.484.594-2.594.593-1.125 1.718-1.719 1.125-.593 2.625-.593 1.516 0 2.829.562l-.422.985q-1.297-.547-2.485-.547-1.734 0-2.718 1.031-.97 1.031-.97 2.875 0 1.922.938 2.922.938.984 2.766.984.984 0 1.937-.219V17.8h-2.125v-.984zm9.735 4.984l-.219-1.016h-.047q-.53.672-1.062.907-.531.234-1.328.234-1.063 0-1.672-.547-.594-.547-.594-1.547 0-2.156 3.453-2.265l1.219-.047v-.438q0-.844-.36-1.234-.359-.406-1.156-.406-.89 0-2.015.546l-.344-.828q.531-.28 1.156-.437.64-.172 1.266-.172 1.281 0 1.89.562.61.563.61 1.813V21.8h-.797zm-2.438-.766q1 0 1.579-.547.578-.562.578-1.546V18.3l-1.078.031q-1.282.047-1.86.406-.562.36-.562 1.11 0 .578.343.89.36.297 1 .297zm7.772 0q.282 0 .547-.03.266-.048.422-.095v.828q-.172.079-.516.125-.343.063-.609.063-2.078 0-2.078-2.172v-4.25h-1.016v-.516l1.016-.453.453-1.515h.625v1.656h2.078v.828h-2.078v4.203q0 .64.313.985.312.343.843.343zm5.409.891q-1.579 0-2.5-.953-.907-.969-.907-2.672 0-1.734.844-2.75.86-1.016 2.281-1.016 1.344 0 2.125.891.782.875.782 2.328v.672h-4.907q.032 1.266.625 1.922.61.64 1.703.64 1.141 0 2.266-.484v.969q-.562.25-1.078.344-.516.109-1.234.109zm-.297-6.484q-.86 0-1.375.562-.5.563-.594 1.547h3.734q0-1.016-.453-1.563-.453-.546-1.312-.546zM286.74 21.8l-1.313-4.188q-.125-.375-.453-1.734h-.062q-.25 1.125-.454 1.75l-1.343 4.172h-1.25l-1.938-7.125h1.125l1.047 4.094q.36 1.39.422 1.89h.047q.078-.375.234-.953.156-.594.281-.953l1.297-4.078h1.172l1.281 4.078q.36 1.125.5 1.89h.047q.032-.234.14-.718.11-.5 1.36-5.25h1.11l-1.97 7.125h-1.28zm8.93 0l-.22-1.016h-.046q-.532.672-1.063.907-.531.234-1.328.234-1.063 0-1.672-.547-.594-.547-.594-1.547 0-2.156 3.453-2.265l1.22-.047v-.438q0-.844-.36-1.234-.36-.406-1.156-.406-.891 0-2.016.546l-.344-.828q.531-.28 1.156-.437.641-.172 1.266-.172 1.281 0 1.89.562.61.563.61 1.813V21.8h-.797zm-2.438-.766q1 0 1.578-.547.578-.562.578-1.546V18.3l-1.078.031q-1.281.047-1.86.406-.562.36-.562 1.11 0 .578.344.89.36.297 1 .297zm4.334-6.359h1.156l1.563 4.062q.515 1.391.64 2.016h.047q.078-.344.344-1.14.281-.813 1.781-4.938h1.157l-3.063 8.11q-.453 1.202-1.062 1.702-.61.516-1.5.516-.5 0-.97-.11v-.874q.36.078.798.078 1.11 0 1.593-1.25l.391-1.016-2.875-7.156z"/><path fill="#000" fill-opacity="0" fill-rule="evenodd" d="M251.706 28.832h170.236v60.472H251.706z"/><path fill="#000" d="M268.394 49.352h-1v-4.031h-4.516v4.031h-1V40.79h1v3.64h4.516v-3.64h1v8.562zm7.744-3.219q0 1.578-.797 2.469-.781.875-2.188.875-.86 0-1.531-.406-.656-.406-1.031-1.156-.36-.766-.36-1.782 0-1.562.782-2.437.797-.89 2.187-.89 1.344 0 2.14.905.798.891.798 2.422zm-4.891 0q0 1.235.484 1.875.5.64 1.454.64.953 0 1.437-.64.5-.64.5-1.875 0-1.218-.5-1.86-.484-.64-1.453-.64-.953 0-1.438.64-.484.626-.484 1.86zm10.732 1.469q0 .89-.671 1.39-.657.485-1.875.485-1.266 0-1.985-.406v-.906q.469.234.985.375.53.125 1.03.125.766 0 1.173-.235.406-.25.406-.75 0-.375-.328-.64-.313-.266-1.266-.625-.89-.344-1.281-.594-.375-.25-.563-.563-.171-.312-.171-.75 0-.781.64-1.234.64-.469 1.75-.469 1.031 0 2.031.422l-.359.797q-.953-.39-1.75-.39-.687 0-1.047.218-.344.203-.344.594 0 .25.125.437.141.172.422.344.297.156 1.141.469 1.14.422 1.531.844.406.421.406 1.062zm3.663 1.063q.25 0 .484-.032.25-.047.39-.078v.735q-.156.078-.468.125-.297.062-.547.062-1.86 0-1.86-1.969V43.68h-.921v-.469l.922-.406.406-1.36h.562v1.485h1.86v.75h-1.86v3.781q0 .579.266.891.281.313.766.313zm2.017.062q0-.39.172-.594.188-.203.516-.203.343 0 .53.203.188.203.188.594 0 .39-.187.594-.188.203-.531.203-.297 0-.5-.188-.188-.187-.188-.609zm0-5.172q0-.797.688-.797.718 0 .718.797 0 .375-.187.594-.188.203-.531.203-.297 0-.5-.187-.188-.188-.188-.61zm10.389 5.797l-2.906-7.594h-.047q.078.907.078 2.14v5.454h-.922V40.79h1.5l2.719 7.062h.047l2.734-7.062h1.484v8.562h-.984v-5.516q0-.953.078-2.062h-.047l-2.937 7.578h-.797zm12.443-3.219q0 1.578-.797 2.469-.78.875-2.187.875-.86 0-1.531-.406-.657-.406-1.032-1.156-.36-.766-.36-1.782 0-1.562.782-2.437.797-.89 2.188-.89 1.343 0 2.14.905.797.891.797 2.422zm-4.89 0q0 1.235.484 1.875.5.64 1.453.64.953 0 1.438-.64.5-.64.5-1.875 0-1.218-.5-1.86-.485-.64-1.454-.64-.953 0-1.437.64-.484.626-.484 1.86zm10.982 3.219v-4.156q0-.781-.36-1.172-.343-.39-1.109-.39-1.015 0-1.484.546-.469.547-.469 1.797v3.375h-.969V42.93h.797l.156.875h.047q.297-.469.828-.734.547-.266 1.204-.266 1.171 0 1.75.563.593.562.593 1.797v4.187h-.984zm8.521-3.219q0 1.578-.796 2.469-.782.875-2.188.875-.86 0-1.531-.406-.656-.406-1.031-1.156-.36-.766-.36-1.782 0-1.562.781-2.437.797-.89 2.188-.89 1.344 0 2.14.905.797.891.797 2.422zm-4.89 0q0 1.235.484 1.875.5.64 1.453.64.953 0 1.438-.64.5-.64.5-1.875 0-1.218-.5-1.86-.485-.64-1.453-.64-.953 0-1.438.64-.484.626-.484 1.86zm7.56 3.219h-.968v-9.125h.968v9.125zm3.036 0h-.97V42.93h.97v6.422zm-1.047-8.156q0-.344.156-.5.172-.156.422-.156.234 0 .39.171.172.157.172.485 0 .328-.172.484-.156.156-.39.156-.25 0-.422-.156-.156-.156-.156-.484zm5.191 7.469q.25 0 .484-.032.25-.047.391-.078v.735q-.156.078-.469.125-.297.062-.547.062-1.859 0-1.859-1.969V43.68h-.922v-.469l.922-.406.406-1.36h.563v1.485h1.86v.75h-1.86v3.781q0 .579.265.891.282.313.766.313zm6.549.687v-4.156q0-.781-.36-1.172-.343-.39-1.109-.39-1.015 0-1.484.562-.469.547-.469 1.797v3.359h-.969v-9.125h.969v2.766q0 .5-.047.828h.063q.28-.469.812-.735.531-.265 1.219-.265 1.172 0 1.766.562.593.563.593 1.782v4.187h-.984zm2.834-.625q0-.39.172-.594.187-.203.515-.203.344 0 .532.203.187.203.187.594 0 .39-.187.594-.188.203-.532.203-.296 0-.5-.188-.187-.187-.187-.609zm6.224-5.047h-1.625v5.672h-.984V43.68h-1.14v-.437l1.14-.344v-.36q0-2.374 2.078-2.374.5 0 1.188.203l-.25.78q-.563-.171-.953-.171-.563 0-.829.375-.25.36-.25 1.156v.422h1.625v.75zm6.723 2.453q0 1.578-.797 2.469-.781.875-2.187.875-.86 0-1.531-.406-.657-.406-1.032-1.156-.36-.766-.36-1.782 0-1.562.782-2.437.797-.89 2.188-.89 1.343 0 2.14.905.797.891.797 2.422zm-4.89 0q0 1.235.484 1.875.5.64 1.453.64.953 0 1.438-.64.5-.64.5-1.875 0-1.218-.5-1.86-.485-.64-1.454-.64-.953 0-1.437.64-.484.626-.484 1.86zm12.138 0q0 1.578-.797 2.469-.78.875-2.187.875-.86 0-1.531-.406-.657-.406-1.032-1.156-.36-.766-.36-1.782 0-1.562.782-2.437.797-.89 2.188-.89 1.343 0 2.14.905.797.891.797 2.422zm-4.89 0q0 1.235.484 1.875.5.64 1.453.64.953 0 1.438-.64.5-.64.5-1.875 0-1.218-.5-1.86-.485-.64-1.454-.64-.953 0-1.437.64-.484.626-.484 1.86zm6.45 2.594q0-.39.173-.594.187-.203.515-.203.344 0 .531.203.188.203.188.594 0 .39-.188.594-.187.203-.53.203-.298 0-.5-.188-.188-.187-.188-.609zm5.897.75q-1.39 0-2.156-.86-.766-.859-.766-2.437 0-1.61.782-2.484.78-.89 2.203-.89.468 0 .922.109.468.093.734.234l-.297.828q-.328-.14-.703-.219-.375-.078-.672-.078-1.953 0-1.953 2.485 0 1.187.469 1.828.484.625 1.422.625.796 0 1.64-.344v.86q-.64.343-1.625.343zm8.697-3.344q0 1.578-.796 2.469-.782.875-2.188.875-.86 0-1.531-.406-.656-.406-1.031-1.156-.36-.766-.36-1.782 0-1.562.781-2.437.797-.89 2.188-.89 1.344 0 2.14.905.797.891.797 2.422zm-4.89 0q0 1.235.484 1.875.5.64 1.453.64.953 0 1.438-.64.5-.64.5-1.875 0-1.218-.5-1.86-.485-.64-1.453-.64-.953 0-1.438.64-.484.626-.484 1.86zm14.78 3.219V45.18q0-.781-.329-1.156-.328-.39-1.016-.39-.906 0-1.343.53-.438.516-.438 1.594v3.594h-.969V45.18q0-.781-.328-1.156-.328-.39-1.031-.39-.906 0-1.344.546-.422.547-.422 1.797v3.375h-.968V42.93h.797l.156.875h.047q.265-.469.765-.734.516-.266 1.125-.266 1.516 0 1.969 1.094h.047q.297-.5.828-.797.547-.297 1.25-.297 1.094 0 1.625.563.547.562.547 1.797v4.187h-.969zm-123.261 7.922q0 1.312-.89 2.016-.89.687-2.531.687h-1.016v3.375h-1V54.79h2.234q3.203 0 3.203 2.484zm-4.437 1.86h.906q1.313 0 1.906-.423.594-.437.594-1.39 0-.844-.562-1.25-.547-.422-1.735-.422h-1.11v3.484zm11.63 1q0 1.577-.796 2.468-.781.875-2.188.875-.859 0-1.53-.406-.657-.406-1.032-1.156-.36-.766-.36-1.782 0-1.562.782-2.437.797-.89 2.187-.89 1.344 0 2.14.905.798.891.798 2.422zm-4.89 0q0 1.234.485 1.874.5.64 1.453.64.953 0 1.437-.64.5-.64.5-1.875 0-1.218-.5-1.86-.484-.64-1.453-.64-.953 0-1.437.64-.485.626-.485 1.86zm9.53-3.329q.421 0 .765.078l-.14.907q-.391-.094-.704-.094-.78 0-1.343.64-.547.625-.547 1.563v3.453h-.97V56.93h.798l.125 1.188h.047q.343-.625.843-.97.516-.343 1.125-.343zm4.038 5.86q.25 0 .485-.032.25-.047.39-.078v.735q-.156.078-.468.125-.297.062-.547.062-1.86 0-1.86-1.969V57.68h-.921v-.469l.921-.406.407-1.36h.562v1.485h1.86v.75h-1.86v3.781q0 .579.266.891.281.313.765.313zm2.018.062q0-.39.172-.594.187-.203.516-.203.343 0 .53.203.188.203.188.594 0 .39-.187.594-.188.203-.531.203-.297 0-.5-.188-.188-.187-.188-.609zm0-5.172q0-.797.688-.797.718 0 .718.797 0 .375-.187.594-.188.203-.531.203-.297 0-.5-.187-.188-.188-.188-.61zm12.045 3.828h-1.281v1.969h-.922v-1.969h-4.172v-.843l4.062-5.797h1.032v5.75h1.281v.89zm-2.203-.89v-2.844q0-.844.062-1.89h-.047q-.28.562-.53.937l-2.688 3.797h3.203zm9.064.89h-1.28v1.969h-.923v-1.969h-4.172v-.843l4.063-5.797h1.031v5.75h1.281v.89zm-2.203-.89v-2.844q0-.844.063-1.89h-.047q-.281.562-.531.937l-2.688 3.797h3.203zm8.33-3.688q0 .813-.468 1.344-.454.516-1.297.687v.047q1.03.125 1.53.657.5.53.5 1.39 0 1.219-.858 1.89-.844.657-2.407.657-.672 0-1.25-.11-.562-.109-1.093-.359v-.922q.562.266 1.187.422.64.14 1.203.14 2.219 0 2.219-1.75 0-1.562-2.453-1.562h-.844v-.828h.86q1 0 1.578-.437.593-.453.593-1.235 0-.625-.437-.984-.422-.36-1.172-.36-.563 0-1.063.157-.484.156-1.125.562l-.5-.656q.532-.422 1.22-.656.687-.234 1.452-.234 1.25 0 1.938.578.687.562.687 1.562zm-45.718 20.547h-1v-7.687h-2.704v-.875h6.422v.875h-2.718v7.687zm3.998 0V68.79h1v7.656h3.78v.906h-4.78zm11.072-2.281q0 1.125-.828 1.765-.813.641-2.219.641-1.531 0-2.344-.406v-.953q.531.218 1.14.359.626.125 1.235.125 1 0 1.5-.375.5-.39.5-1.062 0-.438-.187-.72-.172-.296-.594-.53-.406-.25-1.266-.547-1.187-.422-1.703-1-.515-.594-.515-1.547 0-.985.734-1.563.75-.593 1.984-.593 1.266 0 2.344.468l-.312.86q-1.063-.438-2.063-.438-.797 0-1.25.344-.437.328-.437.937 0 .438.156.735.172.281.562.515.391.235 1.203.532 1.344.468 1.844 1.03.516.548.516 1.423zm7.281 2.406q-1.39 0-2.156-.86-.766-.859-.766-2.437 0-1.61.781-2.484.782-.89 2.204-.89.468 0 .921.109.47.093.735.234l-.297.828q-.328-.14-.703-.219-.375-.078-.672-.078-1.953 0-1.953 2.485 0 1.187.469 1.828.484.625 1.421.625.797 0 1.641-.344v.86q-.64.343-1.625.343zm5.87 0q-1.423 0-2.25-.875-.829-.875-.829-2.406 0-1.563.766-2.469.765-.922 2.062-.922 1.203 0 1.906.797.704.797.704 2.094v.625h-4.422q.031 1.125.562 1.719.547.578 1.531.578 1.032 0 2.047-.438v.875q-.515.219-.984.313-.453.109-1.094.109zm-.266-5.844q-.782 0-1.25.5-.454.5-.532 1.39h3.36q0-.921-.407-1.405-.406-.485-1.171-.485zm7.216-.828q.422 0 .766.078l-.14.907q-.391-.094-.704-.094-.781 0-1.343.64-.547.625-.547 1.563v3.453h-.97V70.93h.798l.125 1.188h.047q.343-.625.843-.97.516-.343 1.125-.343zm4.04 5.86q.25 0 .484-.032.25-.047.39-.078v.735q-.156.078-.468.125-.297.062-.547.062-1.86 0-1.86-1.969V71.68h-.921v-.469l.921-.406.407-1.36h.562v1.485h1.86v.75h-1.86v3.781q0 .579.266.891.281.313.765.313zm6.298-1.063q0 .89-.672 1.39-.656.485-1.875.485-1.265 0-1.984-.406v-.906q.469.234.984.375.532.125 1.032.125.765 0 1.172-.235.406-.25.406-.75 0-.375-.328-.64-.313-.266-1.266-.625-.89-.344-1.281-.594-.375-.25-.563-.563-.172-.312-.172-.75 0-.781.641-1.234.64-.469 1.75-.469 1.031 0 2.031.422l-.36.797q-.952-.39-1.75-.39-.687 0-1.046.218-.344.203-.344.594 0 .25.125.437.14.172.422.344.297.156 1.14.469 1.141.422 1.532.844.406.421.406 1.062z"/><path fill="#000" fill-opacity="0" fill-rule="evenodd" d="M133.95 125.465l40.724-8.315"/><path fill-rule="evenodd" stroke="#4a86e8" stroke-linecap="butt" stroke-linejoin="round" d="M133.95 125.465l34.845-7.114"/><path fill="#4a86e8" fill-rule="evenodd" stroke="#4a86e8" stroke-linecap="butt" d="M169.126 119.969l4.116-2.526-4.777-.71z"/><path fill="#000" fill-opacity="0" fill-rule="evenodd" d="M28.916 118.95c-.932-3.14 2.127-6.248 7.879-8.005 5.752-1.758 13.188-1.857 19.153-.255 2.112-1.826 5.98-3.086 10.431-3.4 4.452-.314 8.965.355 12.175 1.805 1.8-1.655 5.334-2.767 9.348-2.942 4.015-.174 7.941.614 10.386 2.085 3.252-1.755 8.425-2.493 13.282-1.897 4.857.597 8.525 2.422 9.416 4.686 3.984.498 7.303 1.765 9.099 3.473 1.795 1.708 1.892 3.69.265 5.433 3.923 2.34 4.84 5.46 2.41 8.195-2.43 2.734-7.842 4.671-14.218 5.09-.045 2.565-3.114 4.92-8.024 6.155-4.91 1.236-10.894 1.16-15.646-.2-2.024 3.073-7.721 5.335-14.63 5.807-6.909.472-13.79-.929-17.673-3.598-4.758 1.315-10.468 1.694-15.84 1.051-5.373-.643-9.957-2.254-12.717-4.47-4.863.26-9.564-.894-11.771-2.892-2.207-1.998-1.45-4.414 1.896-6.048-4.338-1.17-6.55-3.494-5.486-5.758 1.065-2.264 5.167-3.955 10.167-4.193z"/><path fill="#000" fill-opacity="0" fill-rule="evenodd" d="M24.138 129.023c2.047.552 4.411.803 6.776.718m3.098 8.222a23.62 23.62 0 002.964-.344m25.592 3.762c-.715-.491-1.314-1.017-1.786-1.567m34.09-.641a4.62 4.62 0 00.713-1.72m22.956-4.236c.048-2.732-3.336-5.233-8.698-6.43m20.506-6.854c-.869.93-2.194 1.755-3.873 2.41m-5.49-11.316c.148.376.217.757.205 1.138m-22.903-3.927c-.811.438-1.48.927-1.984 1.452m-17.75-.595c-.432.398-.755.818-.96 1.252m-21.647.343c1.262.339 2.43.747 3.477 1.215m-30.508 7.046a4.8 4.8 0 00.607 1.278"/><path fill-rule="evenodd" stroke="#4a86e8" stroke-linecap="butt" stroke-linejoin="round" d="M28.916 118.95h0c-.932-3.14 2.127-6.248 7.879-8.005 5.752-1.758 13.188-1.857 19.153-.255h0c2.112-1.826 5.98-3.086 10.431-3.4 4.452-.314 8.965.355 12.175 1.805h0c1.8-1.655 5.334-2.767 9.348-2.942 4.015-.174 7.941.614 10.386 2.085h0c3.252-1.755 8.425-2.493 13.282-1.897 4.857.597 8.525 2.422 9.416 4.686h0c3.984.498 7.303 1.765 9.099 3.473 1.795 1.708 1.892 3.69.265 5.433h0c3.923 2.34 4.84 5.46 2.41 8.195-2.43 2.734-7.842 4.671-14.218 5.09-.045 2.565-3.114 4.92-8.024 6.155-4.91 1.236-10.894 1.16-15.646-.2-2.024 3.073-7.721 5.335-14.63 5.807-6.909.472-13.79-.929-17.673-3.598-4.758 1.315-10.468 1.694-15.84 1.051-5.373-.643-9.957-2.254-12.717-4.47h0c-4.863.26-9.564-.894-11.771-2.892-2.207-1.998-1.45-4.414 1.896-6.048h0c-4.338-1.17-6.55-3.494-5.486-5.758 1.065-2.264 5.167-3.955 10.167-4.193z"/><path fill-rule="evenodd" stroke="#4a86e8" stroke-linecap="butt" stroke-linejoin="round" d="M24.138 129.023h0c2.047.552 4.411.803 6.776.718m3.098 8.222a23.62 23.62 0 002.964-.344m25.592 3.762c-.715-.491-1.314-1.017-1.786-1.567m34.09-.641h0a4.62 4.62 0 00.713-1.72m22.956-4.236c.048-2.732-3.336-5.233-8.698-6.43m20.506-6.854c-.869.93-2.194 1.755-3.873 2.41m-5.49-11.316h0c.148.376.217.757.205 1.138m-22.903-3.927h0c-.811.438-1.48.927-1.984 1.452m-17.75-.595h0c-.432.398-.755.818-.96 1.252m-21.647.343h0c1.262.339 2.43.747 3.477 1.215m-30.508 7.046h0a4.8 4.8 0 00.607 1.278"/><path fill="#000" fill-opacity="0" fill-rule="evenodd" d="M209.475 102.522l42.236-43.464"/><path fill-rule="evenodd" stroke="#000" stroke-dasharray="1 3" stroke-linecap="butt" stroke-linejoin="round" d="M209.475 102.522l42.236-43.464"/></g></svg>