<?xml version="1.0" encoding="UTF-8" standalone="no"?>
<svg
   id="a9410d12-0d61-4860-9caf-4aa81d73d3ab"
   data-name="Layer 1"
   viewBox="0 0 1127.8 536.22"
   version="1.1"
   sodipodi:docname="arch-sec.svg"
   inkscape:version="1.3 (0e150ed6c4, 2023-07-21)"
   xmlns:inkscape="http://www.inkscape.org/namespaces/inkscape"
   xmlns:sodipodi="http://sodipodi.sourceforge.net/DTD/sodipodi-0.dtd"
   xmlns="http://www.w3.org/2000/svg"
   xmlns:svg="http://www.w3.org/2000/svg">
  <sodipodi:namedview
     id="namedview284"
     pagecolor="#ffffff"
     bordercolor="#000000"
     borderopacity="0.25"
     inkscape:showpageshadow="2"
     inkscape:pageopacity="0.0"
     inkscape:pagecheckerboard="0"
     inkscape:deskcolor="#d1d1d1"
     inkscape:zoom="1.2440148"
     inkscape:cx="450.55734"
     inkscape:cy="268.08363"
     inkscape:window-width="1920"
     inkscape:window-height="1017"
     inkscape:window-x="1912"
     inkscape:window-y="-8"
     inkscape:window-maximized="1"
     inkscape:current-layer="a9410d12-0d61-4860-9caf-4aa81d73d3ab" />
  <defs
     id="defs1">
    <style
       id="style1">.b75fe515-d9ce-447c-aff3-ab473cb81ba9,.f5b41e30-30ae-4f26-b089-04ac86fe57e2{fill:#466bb0}.b75fe515-d9ce-447c-aff3-ab473cb81ba9,.b9c830ba-5174-4bc5-8188-f1ace757097b{opacity:.1}.a6b88054-fdd2-41fb-8800-4aaaac89010e,.b08a60e8-d5e3-47c6-8765-54e91386a2e2,.b7126ed3-0723-4d7f-8489-44e9140a611e,.bd05d7e9-dff2-42d4-80e0-8544a2be094c,.e490bdda-b499-42e6-a54a-e78f2b8aa3b2,.fbf59e5c-7545-4d21-8f09-14871b9280fe{fill:none}.bd05d7e9-dff2-42d4-80e0-8544a2be094c{stroke:#466bb0;stroke-dasharray:10.03 10.03}.b08a60e8-d5e3-47c6-8765-54e91386a2e2,.b7126ed3-0723-4d7f-8489-44e9140a611e,.bd05d7e9-dff2-42d4-80e0-8544a2be094c,.fbf59e5c-7545-4d21-8f09-14871b9280fe{stroke-linejoin:round}.a8abd049-976e-4fc1-ae51-c49f9aa3fee7,.afd526ee-25e6-459f-8c03-25ae8d4a7803,.ea96df71-f7e5-489f-a491-48f7b5240008{font-size:12px}.a398c1c0-1ae6-42aa-bd8e-928a7dc6a7af,.a8abd049-976e-4fc1-ae51-c49f9aa3fee7,.a8cc6f2d-c1e4-4508-b7b0-186499b7717d,.afd526ee-25e6-459f-8c03-25ae8d4a7803,.bb4f2cbc-d575-4a0d-84f1-538b3757378c,.e1911d25-aca7-4ebb-a506-9b48914bf416,.f710b24f-5a6e-46e9-b971-052267f34d76{fill:#010101}.afd526ee-25e6-459f-8c03-25ae8d4a7803{font-family:GoogleSansDisplay-Bold,Google Sans Display;font-weight:700}.ab2bf7fd-baf8-4581-9478-25c8e49617f0{letter-spacing:-.01em}.a268483b-21e1-4920-849e-de9919c4d825{letter-spacing:.01em}.b61332c7-925b-4261-8548-1c7de017d7fe{letter-spacing:0}.ea92d7dd-0be3-4413-8853-ed38e711a5c4{letter-spacing:-.01em}.e3388f18-8853-483b-adb1-110dc806dcf3{letter-spacing:0}.f1b48762-a0d4-422b-9317-38c92e67aea4{fill:#119a48}.a8cc6f2d-c1e4-4508-b7b0-186499b7717d{font-size:10px}.a398c1c0-1ae6-42aa-bd8e-928a7dc6a7af,.a8abd049-976e-4fc1-ae51-c49f9aa3fee7,.a8cc6f2d-c1e4-4508-b7b0-186499b7717d,.bb4f2cbc-d575-4a0d-84f1-538b3757378c,.e1911d25-aca7-4ebb-a506-9b48914bf416,.ea96df71-f7e5-489f-a491-48f7b5240008,.f710b24f-5a6e-46e9-b971-052267f34d76{font-family:GoogleSansDisplay-Regular,Google Sans Display}.b47a11b2-bdd4-4c94-a536-3ff3890aae6b{letter-spacing:-.04em}.a6ab78ef-dc09-439b-b29c-a69373a26726{letter-spacing:-.03em}.a3f38e67-06e9-418e-964a-eba38bee4535,.f911231f-cd5e-4ff1-9d21-8aa3b7be3411{fill:#e5e5e4}.b555c1bb-b960-46c7-8767-d80146dadbf4{fill:#777678}.e9bb5c86-6a6c-4e63-a35a-a8db12e9f576{fill:#fff}.e1911d25-aca7-4ebb-a506-9b48914bf416,.f710b24f-5a6e-46e9-b971-052267f34d76{font-size:14px}.f215488f-4682-4fb8-bf55-00eb7742a09b{letter-spacing:.02em}.a444e6db-ea27-4308-8d0c-46755eb75974,.aff424b6-2386-4897-a8aa-c88604ade126{letter-spacing:0}.b7126ed3-0723-4d7f-8489-44e9140a611e,.e490bdda-b499-42e6-a54a-e78f2b8aa3b2{stroke:#fff}.a6b88054-fdd2-41fb-8800-4aaaac89010e,.b7126ed3-0723-4d7f-8489-44e9140a611e,.e490bdda-b499-42e6-a54a-e78f2b8aa3b2{stroke-width:2px}.e490bdda-b499-42e6-a54a-e78f2b8aa3b2,.fbf59e5c-7545-4d21-8f09-14871b9280fe{stroke-linecap:round}.a3f38e67-06e9-418e-964a-eba38bee4535,.a6b88054-fdd2-41fb-8800-4aaaac89010e,.e490bdda-b499-42e6-a54a-e78f2b8aa3b2{stroke-miterlimit:10}.b08a60e8-d5e3-47c6-8765-54e91386a2e2{stroke:#b24d9d;stroke-width:3px}.e0c131b3-1fb0-4364-99e1-d9ef61b24568{letter-spacing:-.03em}.a2d57362-92c3-4fb5-ad27-66d8242cc870{letter-spacing:-.01em}.aa256662-fce3-4dfa-8196-2ac4340fe192{fill:#f26722}.a6b88054-fdd2-41fb-8800-4aaaac89010e{stroke:#07a14a}.b3dd7e29-de12-474a-868d-77c247e13299{fill:#07a14a}.bb4f2cbc-d575-4a0d-84f1-538b3757378c{font-size:7.08px;letter-spacing:-.03em}.fe02ae3a-15e1-46f2-8238-f497270e65c3{letter-spacing:0}.a810eeb5-5a15-4495-9be4-710ca0482784{letter-spacing:-.02em}.e664c73c-edca-4ee3-8fe2-53e19520945e{letter-spacing:-.01em}.be90388b-953c-4ed6-ad3e-620ab818c306{letter-spacing:-.02em}.b74a8556-9fc9-4542-86da-8e2f8a352bc5{letter-spacing:0}.f294b4bc-f111-4b0c-b273-d813f8cd51c6{letter-spacing:.01em}.a11a0377-9de2-4d2e-8295-e64eabcec3bc,.b9f4022a-cb44-4b28-9d49-2e44f3559bf8{letter-spacing:-.02em}.e6480a8b-4b7e-4e1a-a2e5-f1e99d17a805{letter-spacing:0}.e3ffed98-503d-45b3-b0c6-b7874c340aa6{letter-spacing:-.08em}.b7667c73-2320-4c1d-85d4-96bd11145e54{letter-spacing:-.04em}.b5415851-a9cf-4cd0-9014-873c46460b72{letter-spacing:-.03em}.af6d43bc-00a4-4711-a1cb-95cd49d9a76c{letter-spacing:0}.a4a8bb30-a42b-42b3-a70f-d7d928142f4a{letter-spacing:-.01em}.f77554e1-c234-40bf-abe0-204ca99438d5{letter-spacing:0}.b2116ce1-e6d1-4eee-9fa6-6cb9d29b3ff3{letter-spacing:-.03em}.bcf7907a-0a3a-46f6-b6ba-66a19443026c{letter-spacing:0}.fb5ff91e-8f6c-4919-a823-bd6b85396607{fill:#486baf}.f1c88488-b5ef-4a20-b5d1-08319cc6fd65{letter-spacing:-.01em}.eda56b98-ff2a-4819-971e-c6ea8d36d0f7{letter-spacing:-.03em}.fbf59e5c-7545-4d21-8f09-14871b9280fe{stroke:#486baf;stroke-width:4px;stroke-dasharray:6 12}.e63f4eeb-de41-4515-91a9-a2e2c10abae1{letter-spacing:.01em}.ec87a236-d3bd-47fa-a97d-d8c2e91f25a5{letter-spacing:-.01em}.ea96df71-f7e5-489f-a491-48f7b5240008{fill:#231f20}.f2687283-5cd6-4938-85c1-f20ed6449743{letter-spacing:-.01em}.b9948846-df5c-4862-824f-c0b118fcfce3{letter-spacing:-.02em}.a3f38e67-06e9-418e-964a-eba38bee4535{stroke:#777678}.a398c1c0-1ae6-42aa-bd8e-928a7dc6a7af,.e1911d25-aca7-4ebb-a506-9b48914bf416{isolation:isolate}.ffc44ae6-5c1a-43f6-9d87-d14a453ac344{letter-spacing:0}.b313f7eb-8a3a-46f4-89d4-f0df95a50ba8{letter-spacing:.01em}.adbca6c4-a2ed-4117-a8ff-dbdf14aa73b3{letter-spacing:-.01em}.b0090cf3-5ba2-4df5-8341-f9dff3d9c6b2{fill:#496caf}.a398c1c0-1ae6-42aa-bd8e-928a7dc6a7af{font-size:8.96px}.a23e4365-7061-4cf7-ae0d-85c3037da071,.fb12fa33-92c3-487b-bcde-bb2b352fb0c9{letter-spacing:-.01em}.bd469858-9647-42e7-81df-2abf2407061f{letter-spacing:.01em}.a96b384f-7f9d-4ed0-a341-8b0f64612261{letter-spacing:0}.ef2e4981-b11c-4582-b036-2228c6f6c08b{letter-spacing:-.01em}.aadcb088-02c1-41ab-aec7-c8be292d41e0{letter-spacing:0}.b7d0207d-1b80-4fdb-988b-02e06c583481{letter-spacing:-.02em}.b3bee058-b072-4b79-97f9-0f2efd1191a9{letter-spacing:-.01em}.b0076fcc-277d-4e12-804e-265328e3e3b1,.bdd7232f-f6fd-4049-ad87-56c85dcf4369{letter-spacing:.01em}.e51c0731-5533-4f31-8c99-2cd7e20066b9{letter-spacing:0}.aeffcfd8-d86a-45a7-a3db-2d94146792a3{letter-spacing:-.02em}.b557930e-ca76-42d9-95d2-6b4b210944e9{letter-spacing:0}.f84c5900-a235-4989-ba10-4975976d5df3{letter-spacing:-.03em}.a21c5b5f-aabe-488a-b849-04b288144b98{letter-spacing:.02em}.a7d76100-fe89-4cf7-87e8-94d0926f4d27,.e26d1663-69b3-454b-b962-dfbcbd173fb2{letter-spacing:-.02em}.afce5dfd-bf76-4592-99c6-7ad79a19bbfe{letter-spacing:-.03em}.b9c830ba-5174-4bc5-8188-f1ace757097b{fill:#009444}</style>
  </defs>
  <title
     id="title1">v1</title>
  <rect
     width="831.42"
     height="154.17"
     x="157.02"
     y="315.33"
     class="b75fe515-d9ce-447c-aff3-ab473cb81ba9"
     rx="9"
     id="rect1" />
  <rect
     width="897.6"
     height="465.24"
     x="118.9"
     y="12.71"
     class="bd05d7e9-dff2-42d4-80e0-8544a2be094c"
     rx="10"
     id="rect2" />
  <text
     class="afd526ee-25e6-459f-8c03-25ae8d4a7803"
     transform="translate(118.9,10.3)"
     id="text8">Istio 网格</text>
  <path
     d="M93.25,156.05a1.36,1.36,0,0,1,1,.4,1.34,1.34,0,0,1,.4,1V163a1.34,1.34,0,0,1-.4,1,1.36,1.36,0,0,1-1,.4H83A1.37,1.37,0,0,1,81.63,163v-5.58A1.37,1.37,0,0,1,83,156.05h.7V154a4.38,4.38,0,0,1,.59-2.21,4.54,4.54,0,0,1,1.62-1.61,4.42,4.42,0,0,1,4.41,0A4.54,4.54,0,0,1,92,151.74a4.38,4.38,0,0,1,.59,2.21v2.1Zm-3,0V154a2,2,0,0,0-.61-1.48,2.11,2.11,0,0,0-3,0A2,2,0,0,0,86,154v2.1Z"
     class="f1b48762-a0d4-422b-9317-38c92e67aea4"
     id="path8" />
  <text
     class="a8cc6f2d-c1e4-4508-b7b0-186499b7717d"
     transform="translate(66.31 132.53)"
     id="text12">JWT+<tspan
   x="25.68"
   y="0"
   class="b47a11b2-bdd4-4c94-a536-3ff3890aae6b"
   id="tspan9" /><tspan
   x="27.6"
   y="0"
   id="tspan10">TLS</tspan><tspan
   x="9.63"
   y="12"
   class="a6ab78ef-dc09-439b-b29c-a69373a26726"
   id="tspan11">m</tspan><tspan
   x="17.97"
   y="12"
   id="tspan12">TLS</tspan></text>
  <path
     d="M1053.54,156.05a1.38,1.38,0,0,1,1.4,1.39V163a1.38,1.38,0,0,1-1.4,1.39h-10.22a1.38,1.38,0,0,1-1.4-1.39v-5.58a1.38,1.38,0,0,1,1.4-1.39h.69V154a4.29,4.29,0,0,1,.6-2.21,4.52,4.52,0,0,1,1.61-1.61,4.43,4.43,0,0,1,4.42,0,4.52,4.52,0,0,1,1.61,1.61,4.29,4.29,0,0,1,.6,2.21v2.1Zm-3,0V154a2.09,2.09,0,1,0-4.18,0v2.1Z"
     class="f1b48762-a0d4-422b-9317-38c92e67aea4"
     id="path12" />
  <text
     class="a8cc6f2d-c1e4-4508-b7b0-186499b7717d"
     transform="translate(1025.45 133.9)"
     id="text16">JWT +<tspan
   x="28"
   y="0"
   class="b47a11b2-bdd4-4c94-a536-3ff3890aae6b"
   id="tspan13" /><tspan
   x="29.92"
   y="0"
   id="tspan14">TLS</tspan><tspan
   x="10.79"
   y="12"
   class="a6ab78ef-dc09-439b-b29c-a69373a26726"
   id="tspan15">m</tspan><tspan
   x="19.13"
   y="12"
   id="tspan16">TLS</tspan></text>
  <rect
     width="205.85"
     height="150.12"
     x="281.86"
     y="67.11"
     class="f911231f-cd5e-4ff1-9d21-8aa3b7be3411"
     rx="3"
     id="rect16" />
  <rect
     width="205.85"
     height="150.12"
     x="277.55"
     y="62.8"
     class="b555c1bb-b960-46c7-8767-d80146dadbf4"
     rx="3"
     id="rect17" />
  <rect
     width="205.85"
     height="150.12"
     x="272.15"
     y="57.4"
     class="f911231f-cd5e-4ff1-9d21-8aa3b7be3411"
     rx="3"
     id="rect18" />
  <rect
     width="117"
     height="40.35"
     x="316.58"
     y="74.57"
     class="e9bb5c86-6a6c-4e63-a35a-a8db12e9f576"
     rx="3"
     id="rect19" />
  <text
     class="f710b24f-5a6e-46e9-b971-052267f34d76"
     transform="translate(368.4 99.26)"
     id="text24">Se<tspan
   x="15.53"
   y="0"
   class="f215488f-4682-4fb8-bf55-00eb7742a09b"
   id="tspan19">r</tspan><tspan
   x="20.89"
   y="0"
   id="tspan20">v</tspan><tspan
   x="27.92"
   y="0"
   class="a444e6db-ea27-4308-8d0c-46755eb75974"
   id="tspan21">ic</tspan><tspan
   x="38.39"
   y="0"
   class="aff424b6-2386-4897-a8aa-c88604ade126"
   id="tspan22">e</tspan><tspan
   x="46.09"
   y="0"
   class="a6ab78ef-dc09-439b-b29c-a69373a26726"
   id="tspan23" /><tspan
   x="48.92"
   y="0"
   id="tspan24">A</tspan></text>
  <circle
     cx="343.03"
     cy="94.74"
     r="18"
     class="b555c1bb-b960-46c7-8767-d80146dadbf4"
     id="circle24" />
  <rect
     width="12.79"
     height="12.79"
     x="336.64"
     y="88.23"
     class="b7126ed3-0723-4d7f-8489-44e9140a611e"
     id="rect24" />
  <line
     x1="339.01"
     x2="339.01"
     y1="88.23"
     y2="85.15"
     class="e490bdda-b499-42e6-a54a-e78f2b8aa3b2"
     id="line24" />
  <line
     x1="343.03"
     x2="343.03"
     y1="88.23"
     y2="85.15"
     class="e490bdda-b499-42e6-a54a-e78f2b8aa3b2"
     id="line25" />
  <line
     x1="347.06"
     x2="347.06"
     y1="88.23"
     y2="85.15"
     class="e490bdda-b499-42e6-a54a-e78f2b8aa3b2"
     id="line26" />
  <line
     x1="339.01"
     x2="339.01"
     y1="104.33"
     y2="101.25"
     class="e490bdda-b499-42e6-a54a-e78f2b8aa3b2"
     id="line27" />
  <line
     x1="343.03"
     x2="343.03"
     y1="104.33"
     y2="101.25"
     class="e490bdda-b499-42e6-a54a-e78f2b8aa3b2"
     id="line28" />
  <line
     x1="347.06"
     x2="347.06"
     y1="104.33"
     y2="101.25"
     class="e490bdda-b499-42e6-a54a-e78f2b8aa3b2"
     id="line29" />
  <line
     x1="336.52"
     x2="333.44"
     y1="98.77"
     y2="98.77"
     class="e490bdda-b499-42e6-a54a-e78f2b8aa3b2"
     id="line30" />
  <line
     x1="336.52"
     x2="333.44"
     y1="94.74"
     y2="94.74"
     class="e490bdda-b499-42e6-a54a-e78f2b8aa3b2"
     id="line31" />
  <line
     x1="336.52"
     x2="333.44"
     y1="90.71"
     y2="90.71"
     class="e490bdda-b499-42e6-a54a-e78f2b8aa3b2"
     id="line32" />
  <line
     x1="352.63"
     x2="349.55"
     y1="98.77"
     y2="98.77"
     class="e490bdda-b499-42e6-a54a-e78f2b8aa3b2"
     id="line33" />
  <line
     x1="352.63"
     x2="349.55"
     y1="94.74"
     y2="94.74"
     class="e490bdda-b499-42e6-a54a-e78f2b8aa3b2"
     id="line34" />
  <line
     x1="352.63"
     x2="349.55"
     y1="90.71"
     y2="90.71"
     class="e490bdda-b499-42e6-a54a-e78f2b8aa3b2"
     id="line35" />
  <rect
     width="5.68"
     height="5.68"
     x="340.19"
     y="91.78"
     class="e9bb5c86-6a6c-4e63-a35a-a8db12e9f576"
     rx="2"
     id="rect35" />
  <rect
     width="117"
     height="39.08"
     x="316.58"
     y="151.28"
     class="e9bb5c86-6a6c-4e63-a35a-a8db12e9f576"
     rx="3"
     id="rect36" />
  <polygon
     points="356.84 178.47 356.84 163.17 343.58 155.52 330.32 163.17 330.32 178.47 343.58 186.12 356.84 178.47"
     class="b08a60e8-d5e3-47c6-8765-54e91386a2e2"
     id="polygon36" />
  <text
     class="f710b24f-5a6e-46e9-b971-052267f34d76"
     transform="translate(369.01 175.26)"
     id="text38">代理</text>
  <path
     d="M425.65,158.79l1,1a.48.48,0,0,1,.13.52.5.5,0,0,1-.38.37L425,161l.4,1.37a.51.51,0,0,1-.13.53.52.52,0,0,1-.54.14l-1.37-.4-.35,1.39a.48.48,0,0,1-.38.39.51.51,0,0,1-.51-.14l-1-1-1,1a.53.53,0,0,1-.52.14.46.46,0,0,1-.36-.39l-.36-1.39-1.37.4a.5.5,0,0,1-.53-.14.51.51,0,0,1-.14-.53l.4-1.37-1.39-.35a.51.51,0,0,1-.38-.37.49.49,0,0,1,.14-.52l1-1-1-1a.49.49,0,0,1-.14-.52.51.51,0,0,1,.38-.37l1.39-.35-.4-1.37a.51.51,0,0,1,.14-.53.5.5,0,0,1,.53-.14l1.37.4.36-1.39a.46.46,0,0,1,.37-.39.49.49,0,0,1,.51.14l1,1,1-1a.5.5,0,0,1,.52-.13.5.5,0,0,1,.37.38l.35,1.39,1.37-.4a.52.52,0,0,1,.54.14.51.51,0,0,1,.13.53l-.4,1.37,1.39.35a.5.5,0,0,1,.38.37.48.48,0,0,1-.13.52Z"
     class="aa256662-fce3-4dfa-8196-2ac4340fe192"
     id="path38" />
  <path
     d="M423.66,182.28a.51.51,0,0,1,.15.37.52.52,0,0,1-.15.38l-3.72,3.72a.53.53,0,0,1-.38.16.51.51,0,0,1-.37-.16.49.49,0,0,1-.16-.38v-2.12h-3a.51.51,0,0,1-.38-.16.51.51,0,0,1-.15-.37v-2.13a.51.51,0,0,1,.53-.53h3v-2.13a.49.49,0,0,1,.16-.37.47.47,0,0,1,.37-.16.49.49,0,0,1,.38.16Zm1,4.45a2.12,2.12,0,0,0,2.13-2.13v-4.25a2.12,2.12,0,0,0-2.13-2.13h-1.86a.27.27,0,0,0-.27.27v.89a.25.25,0,0,0,.08.18.24.24,0,0,0,.19.08h1.86a.72.72,0,0,1,.71.71v4.25a.72.72,0,0,1-.71.71h-1.86a.27.27,0,0,0-.19.08.26.26,0,0,0-.08.19v.88a.26.26,0,0,0,.08.19.27.27,0,0,0,.19.08Z"
     class="f5b41e30-30ae-4f26-b089-04ac86fe57e2"
     id="path39" />
  <rect
     width="203.41"
     height="148.34"
     x="678.32"
     y="68.89"
     class="f911231f-cd5e-4ff1-9d21-8aa3b7be3411"
     rx="3"
     id="rect39" />
  <rect
     width="203.41"
     height="148.34"
     x="674.05"
     y="64.63"
     class="b555c1bb-b960-46c7-8767-d80146dadbf4"
     rx="3"
     id="rect40" />
  <rect
     width="203.41"
     height="148.34"
     x="668.72"
     y="59.3"
     class="f911231f-cd5e-4ff1-9d21-8aa3b7be3411"
     rx="3"
     id="rect41" />
  <rect
     width="117"
     height="40.35"
     x="711.93"
     y="74.57"
     class="e9bb5c86-6a6c-4e63-a35a-a8db12e9f576"
     rx="3"
     id="rect42" />
  <text
     class="f710b24f-5a6e-46e9-b971-052267f34d76"
     transform="translate(763.99 99.26)"
     id="text45">Se<tspan
   x="15.53"
   y="0"
   class="f215488f-4682-4fb8-bf55-00eb7742a09b"
   id="tspan42">r</tspan><tspan
   x="20.89"
   y="0"
   id="tspan43">v</tspan><tspan
   x="27.92"
   y="0"
   class="a444e6db-ea27-4308-8d0c-46755eb75974"
   id="tspan44">ic</tspan><tspan
   x="38.39"
   y="0"
   class="aff424b6-2386-4897-a8aa-c88604ade126"
   id="tspan45">e B</tspan></text>
  <circle
     cx="738.38"
     cy="94.74"
     r="18"
     class="b555c1bb-b960-46c7-8767-d80146dadbf4"
     id="circle45" />
  <rect
     width="12.79"
     height="12.79"
     x="731.99"
     y="88.23"
     class="b7126ed3-0723-4d7f-8489-44e9140a611e"
     id="rect45" />
  <line
     x1="734.36"
     x2="734.36"
     y1="88.23"
     y2="85.15"
     class="e490bdda-b499-42e6-a54a-e78f2b8aa3b2"
     id="line45" />
  <line
     x1="738.38"
     x2="738.38"
     y1="88.23"
     y2="85.15"
     class="e490bdda-b499-42e6-a54a-e78f2b8aa3b2"
     id="line46" />
  <line
     x1="742.41"
     x2="742.41"
     y1="88.23"
     y2="85.15"
     class="e490bdda-b499-42e6-a54a-e78f2b8aa3b2"
     id="line47" />
  <line
     x1="734.36"
     x2="734.36"
     y1="104.33"
     y2="101.25"
     class="e490bdda-b499-42e6-a54a-e78f2b8aa3b2"
     id="line48" />
  <line
     x1="738.38"
     x2="738.38"
     y1="104.33"
     y2="101.25"
     class="e490bdda-b499-42e6-a54a-e78f2b8aa3b2"
     id="line49" />
  <line
     x1="742.41"
     x2="742.41"
     y1="104.33"
     y2="101.25"
     class="e490bdda-b499-42e6-a54a-e78f2b8aa3b2"
     id="line50" />
  <line
     x1="731.87"
     x2="728.79"
     y1="98.77"
     y2="98.77"
     class="e490bdda-b499-42e6-a54a-e78f2b8aa3b2"
     id="line51" />
  <line
     x1="731.87"
     x2="728.79"
     y1="94.74"
     y2="94.74"
     class="e490bdda-b499-42e6-a54a-e78f2b8aa3b2"
     id="line52" />
  <line
     x1="731.87"
     x2="728.79"
     y1="90.71"
     y2="90.71"
     class="e490bdda-b499-42e6-a54a-e78f2b8aa3b2"
     id="line53" />
  <line
     x1="747.98"
     x2="744.9"
     y1="98.77"
     y2="98.77"
     class="e490bdda-b499-42e6-a54a-e78f2b8aa3b2"
     id="line54" />
  <line
     x1="747.98"
     x2="744.9"
     y1="94.74"
     y2="94.74"
     class="e490bdda-b499-42e6-a54a-e78f2b8aa3b2"
     id="line55" />
  <line
     x1="747.98"
     x2="744.9"
     y1="90.71"
     y2="90.71"
     class="e490bdda-b499-42e6-a54a-e78f2b8aa3b2"
     id="line56" />
  <rect
     width="5.68"
     height="5.68"
     x="735.54"
     y="91.78"
     class="e9bb5c86-6a6c-4e63-a35a-a8db12e9f576"
     rx="2"
     id="rect56" />
  <line
     x1="440.91"
     x2="704.56"
     y1="170.82"
     y2="170.82"
     class="a6b88054-fdd2-41fb-8800-4aaaac89010e"
     id="line57" />
  <polygon
     points="442.37 175.81 433.73 170.82 442.37 165.83 442.37 175.81"
     class="b3dd7e29-de12-474a-868d-77c247e13299"
     id="polygon57" />
  <polygon
     points="703.1 175.81 711.73 170.82 703.1 165.83 703.1 175.81"
     class="b3dd7e29-de12-474a-868d-77c247e13299"
     id="polygon58" />
  <line
     x1="374.62"
     x2="374.62"
     y1="121.94"
     y2="144.59"
     class="a6b88054-fdd2-41fb-8800-4aaaac89010e"
     id="line58" />
  <polygon
     points="369.64 123.4 374.62 114.77 379.61 123.4 369.64 123.4"
     class="b3dd7e29-de12-474a-868d-77c247e13299"
     id="polygon59" />
  <polygon
     points="369.64 143.13 374.62 151.77 379.61 143.13 369.64 143.13"
     class="b3dd7e29-de12-474a-868d-77c247e13299"
     id="polygon60" />
  <line
     x1="779.62"
     x2="779.62"
     y1="121.94"
     y2="144.59"
     class="a6b88054-fdd2-41fb-8800-4aaaac89010e"
     id="line60" />
  <polygon
     points="774.64 123.4 779.62 114.77 784.61 123.4 774.64 123.4"
     class="b3dd7e29-de12-474a-868d-77c247e13299"
     id="polygon61" />
  <polygon
     points="774.64 143.13 779.62 151.77 784.61 143.13 774.64 143.13"
     class="b3dd7e29-de12-474a-868d-77c247e13299"
     id="polygon62" />
  <path
     d="M297.64,158.77a1.38,1.38,0,0,1,1.39,1.4v5.58a1.36,1.36,0,0,1-.4,1,1.34,1.34,0,0,1-1,.4H287.41a1.34,1.34,0,0,1-1-.4,1.36,1.36,0,0,1-.4-1v-5.58a1.38,1.38,0,0,1,1.39-1.4h.7v-2.09a4.38,4.38,0,0,1,.59-2.21,4.54,4.54,0,0,1,1.62-1.61,4.42,4.42,0,0,1,4.41,0,4.54,4.54,0,0,1,1.62,1.61,4.38,4.38,0,0,1,.59,2.21v2.09Zm-3,0v-2.09a2,2,0,0,0-.61-1.48,2.11,2.11,0,0,0-3,0,2,2,0,0,0-.61,1.48v2.09Z"
     class="f1b48762-a0d4-422b-9317-38c92e67aea4"
     id="path62" />
  <text
     class="bb4f2cbc-d575-4a0d-84f1-538b3757378c"
     transform="translate(283.89 150.85)"
     id="text62">m<tspan
   x="5.91"
   y="0"
   class="fe02ae3a-15e1-46f2-8238-f497270e65c3"
   id="tspan62">TLS</tspan></text>
  <path
     d="M577.34,158.77a1.4,1.4,0,0,1,1.4,1.4v5.58a1.37,1.37,0,0,1-.41,1,1.34,1.34,0,0,1-1,.4H567.11a1.34,1.34,0,0,1-1-.4,1.37,1.37,0,0,1-.41-1v-5.58a1.4,1.4,0,0,1,1.39-1.4h.7v-2.09a4.29,4.29,0,0,1,.6-2.21,4.44,4.44,0,0,1,1.61-1.61,4.43,4.43,0,0,1,4.42,0,4.6,4.6,0,0,1,1.61,1.61,4.28,4.28,0,0,1,.59,2.21v2.09Zm-3,0v-2.09a2.09,2.09,0,1,0-4.18,0v2.09Z"
     class="f1b48762-a0d4-422b-9317-38c92e67aea4"
     id="path63" />
  <text
     class="bb4f2cbc-d575-4a0d-84f1-538b3757378c"
     transform="translate(563.6 150.85)"
     id="text63">m<tspan
   x="5.91"
   y="0"
   class="fe02ae3a-15e1-46f2-8238-f497270e65c3"
   id="tspan63">TLS</tspan></text>
  <path
     d="M861.64,158.77a1.4,1.4,0,0,1,1.4,1.4v5.58a1.37,1.37,0,0,1-.41,1,1.34,1.34,0,0,1-1,.4H851.41a1.34,1.34,0,0,1-1-.4,1.37,1.37,0,0,1-.41-1v-5.58a1.4,1.4,0,0,1,1.39-1.4h.7v-2.09a4.29,4.29,0,0,1,.6-2.21,4.44,4.44,0,0,1,1.61-1.61,4.43,4.43,0,0,1,4.42,0,4.6,4.6,0,0,1,1.61,1.61,4.29,4.29,0,0,1,.6,2.21v2.09Zm-3,0v-2.09a2.09,2.09,0,1,0-4.18,0v2.09Z"
     class="f1b48762-a0d4-422b-9317-38c92e67aea4"
     id="path64" />
  <text
     class="bb4f2cbc-d575-4a0d-84f1-538b3757378c"
     transform="translate(847.9 150.85)"
     id="text64">m<tspan
   x="5.91"
   y="0"
   class="fe02ae3a-15e1-46f2-8238-f497270e65c3"
   id="tspan64">TLS</tspan></text>
  <text
     class="a8abd049-976e-4fc1-ae51-c49f9aa3fee7"
     id="text80"
     x="541.7193"
     y="259.70999">控制平面接口</text>
  <text
     class="a8abd049-976e-4fc1-ae51-c49f9aa3fee7"
     transform="translate(527.94 185.78)"
     id="text87">HTT<tspan
   x="21.28"
   y="0"
   class="e3ffed98-503d-45b3-b0c6-b7874c340aa6"
   id="tspan81">P</tspan><tspan
   x="27.2"
   y="0"
   id="tspan82">, gR</tspan><tspan
   x="46.93"
   y="0"
   class="e664c73c-edca-4ee3-8fe2-53e19520945e"
   id="tspan83">P</tspan><tspan
   x="53.7"
   y="0"
   id="tspan84">C,</tspan><tspan
   x="65.44"
   y="0"
   class="b7667c73-2320-4c1d-85d4-96bd11145e54"
   id="tspan85" /><tspan
   x="67.74"
   y="0"
   class="b5415851-a9cf-4cd0-9014-873c46460b72"
   id="tspan86">T</tspan><tspan
   x="73.84"
   y="0"
   class="af6d43bc-00a4-4711-a1cb-95cd49d9a76c"
   id="tspan87">CP</tspan></text>
  <text
     class="a8abd049-976e-4fc1-ae51-c49f9aa3fee7"
     transform="translate(157.02,129.51)"
     id="text92">数据平面</text>
  <text
     class="a8abd049-976e-4fc1-ae51-c49f9aa3fee7"
     id="text102"
     x="160.2354"
     y="310.4223">控制平面</text>
  <rect
     width="74.82"
     height="74.82"
     x="172.7"
     y="145.16"
     class="f911231f-cd5e-4ff1-9d21-8aa3b7be3411"
     rx="3"
     id="rect102" />
  <rect
     width="62.35"
     height="18.71"
     x="178.94"
     y="195.04"
     class="e9bb5c86-6a6c-4e63-a35a-a8db12e9f576"
     rx="3"
     id="rect103" />
  <text
     class="a8cc6f2d-c1e4-4508-b7b0-186499b7717d"
     id="text107"
     x="199.86694"
     y="207.74001">入口</text>
  <rect
     width="37.41"
     height="37.41"
     x="191.41"
     y="151.39"
     class="e9bb5c86-6a6c-4e63-a35a-a8db12e9f576"
     rx="3"
     id="rect107" />
  <polygon
     points="219.3 175.4 219.3 164.79 210.11 159.5 200.93 164.79 200.93 175.4 210.11 180.69 219.3 175.4"
     class="b08a60e8-d5e3-47c6-8765-54e91386a2e2"
     id="polygon107" />
  <rect
     id="a0e05cc7-0916-46e0-a018-b6b738d0280b"
     width="14.16"
     height="14.16"
     x="175.92"
     y="145.16"
     class="fb5ff91e-8f6c-4919-a823-bd6b85396607"
     data-name="background" />
  <polygon
     id="ea80aee1-49df-4e6b-8570-2bf297adba5e"
     points="178.76 157.02 187.25 157.02 181.94 158.61 178.76 157.02"
     class="e9bb5c86-6a6c-4e63-a35a-a8db12e9f576"
     data-name="hull" />
  <polygon
     id="b6a2e997-8459-4604-85e0-42b96b5b288b"
     points="178.76 156.49 181.94 155.96 181.94 150.11 178.76 156.49"
     class="e9bb5c86-6a6c-4e63-a35a-a8db12e9f576"
     data-name="mainsail" />
  <polygon
     id="ff992d56-5f87-4ae3-87cb-cca734d98945"
     points="182.47 155.96 187.25 156.49 182.47 145.86 182.47 155.96"
     class="e9bb5c86-6a6c-4e63-a35a-a8db12e9f576"
     data-name="headsail" />
  <path
     d="M242.91,158.79l1,1a.48.48,0,0,1,.13.52.5.5,0,0,1-.37.37l-1.4.35.4,1.37a.51.51,0,0,1-.13.53.5.5,0,0,1-.53.14l-1.38-.4-.35,1.39a.48.48,0,0,1-.38.39.51.51,0,0,1-.51-.14l-1-1-1,1a.53.53,0,0,1-.52.14.46.46,0,0,1-.36-.39l-.36-1.39-1.37.4a.5.5,0,0,1-.53-.14.49.49,0,0,1-.13-.53l.39-1.37-1.39-.35a.51.51,0,0,1-.38-.37.49.49,0,0,1,.14-.52l1-1-1-1a.49.49,0,0,1-.14-.52.51.51,0,0,1,.38-.37l1.39-.35-.39-1.37a.49.49,0,0,1,.13-.53.5.5,0,0,1,.53-.14l1.37.4.36-1.39a.47.47,0,0,1,.37-.39.49.49,0,0,1,.51.14l1,1,1-1a.5.5,0,0,1,.52-.13.5.5,0,0,1,.37.38l.35,1.39,1.38-.4a.5.5,0,0,1,.53.14.51.51,0,0,1,.13.53l-.4,1.37,1.4.35a.5.5,0,0,1,.37.37.48.48,0,0,1-.13.52Z"
     class="aa256662-fce3-4dfa-8196-2ac4340fe192"
     id="path107" />
  <rect
     width="74.82"
     height="74.82"
     x="897.99"
     y="145.16"
     class="f911231f-cd5e-4ff1-9d21-8aa3b7be3411"
     rx="3"
     id="rect108" />
  <rect
     width="62.35"
     height="18.71"
     x="904.22"
     y="195.04"
     class="e9bb5c86-6a6c-4e63-a35a-a8db12e9f576"
     rx="3"
     id="rect109" />
  <text
     class="a8cc6f2d-c1e4-4508-b7b0-186499b7717d"
     id="text113"
     x="925.62311"
     y="208.54385">出口</text>
  <rect
     width="37.41"
     height="37.41"
     x="916.69"
     y="151.39"
     class="e9bb5c86-6a6c-4e63-a35a-a8db12e9f576"
     rx="3"
     id="rect113" />
  <polygon
     points="944.58 175.4 944.58 164.79 935.4 159.5 926.21 164.79 926.21 175.4 935.4 180.69 944.58 175.4"
     class="b08a60e8-d5e3-47c6-8765-54e91386a2e2"
     id="polygon113" />
  <rect
     id="b703de0d-1c47-44ea-81c9-2a5a05deeae6"
     width="14.16"
     height="14.16"
     x="901.21"
     y="145.16"
     class="fb5ff91e-8f6c-4919-a823-bd6b85396607"
     data-name="background" />
  <polygon
     id="eed55057-88e5-4a3a-940d-16cb984b28e5"
     points="904.04 157.02 912.54 157.02 907.23 158.61 904.04 157.02"
     class="e9bb5c86-6a6c-4e63-a35a-a8db12e9f576"
     data-name="hull" />
  <polygon
     id="b1ab0523-1288-4f8f-bab9-328f51aa91d2"
     points="904.04 156.49 907.23 155.96 907.23 150.11 904.04 156.49"
     class="e9bb5c86-6a6c-4e63-a35a-a8db12e9f576"
     data-name="mainsail" />
  <polygon
     id="fbf77926-903e-400e-bd5d-2119a45d0abb"
     points="907.76 155.96 912.54 156.49 907.76 145.86 907.76 155.96"
     class="e9bb5c86-6a6c-4e63-a35a-a8db12e9f576"
     data-name="headsail" />
  <path
     d="M969.33,158.79l1,1a.48.48,0,0,1,.13.52.5.5,0,0,1-.37.37l-1.4.35.4,1.37a.51.51,0,0,1-.13.53.5.5,0,0,1-.53.14l-1.38-.4-.35,1.39a.47.47,0,0,1-.38.39.51.51,0,0,1-.51-.14l-1-1-1,1a.53.53,0,0,1-.52.14.46.46,0,0,1-.36-.39l-.36-1.39-1.37.4a.5.5,0,0,1-.53-.14.49.49,0,0,1-.13-.53L961,161l-1.4-.35a.53.53,0,0,1-.24-.89l1-1-1-1a.53.53,0,0,1,.24-.89l1.4-.35-.4-1.37a.49.49,0,0,1,.13-.53.5.5,0,0,1,.53-.14l1.37.4.36-1.39a.47.47,0,0,1,.37-.39.49.49,0,0,1,.51.14l1,1,1-1a.51.51,0,0,1,.52-.13.48.48,0,0,1,.37.38l.35,1.39,1.38-.4a.5.5,0,0,1,.53.14.51.51,0,0,1,.13.53l-.4,1.37,1.4.35a.5.5,0,0,1,.37.37.48.48,0,0,1-.13.52Z"
     class="aa256662-fce3-4dfa-8196-2ac4340fe192"
     id="path113" />
  <line
     x1="50.9"
     x2="185.32"
     y1="170.4"
     y2="170.4"
     class="a6b88054-fdd2-41fb-8800-4aaaac89010e"
     id="line113" />
  <polygon
     points="183.86 175.39 192.5 170.4 183.86 165.42 183.86 175.39"
     class="b3dd7e29-de12-474a-868d-77c247e13299"
     id="polygon114" />
  <line
     x1="228.82"
     x2="309.4"
     y1="170.82"
     y2="170.82"
     class="a6b88054-fdd2-41fb-8800-4aaaac89010e"
     id="line114" />
  <polygon
     points="307.94 175.81 316.58 170.82 307.94 165.83 307.94 175.81"
     class="b3dd7e29-de12-474a-868d-77c247e13299"
     id="polygon115" />
  <line
     x1="828.62"
     x2="909.52"
     y1="170.4"
     y2="170.4"
     class="a6b88054-fdd2-41fb-8800-4aaaac89010e"
     id="line115" />
  <polygon
     points="908.06 175.39 916.69 170.4 908.06 165.42 908.06 175.39"
     class="b3dd7e29-de12-474a-868d-77c247e13299"
     id="polygon116" />
  <line
     x1="954.1"
     x2="1077.31"
     y1="170.4"
     y2="170.4"
     class="a6b88054-fdd2-41fb-8800-4aaaac89010e"
     id="line116" />
  <polygon
     points="1075.85 175.39 1084.49 170.4 1075.85 165.42 1075.85 175.39"
     class="b3dd7e29-de12-474a-868d-77c247e13299"
     id="polygon117" />
  <rect
     width="117"
     height="39.08"
     x="712.38"
     y="151.28"
     class="e9bb5c86-6a6c-4e63-a35a-a8db12e9f576"
     rx="3"
     id="rect117" />
  <polygon
     points="818.12 178.47 818.12 163.17 804.86 155.52 791.6 163.17 791.6 178.47 804.86 186.12 818.12 178.47"
     class="b08a60e8-d5e3-47c6-8765-54e91386a2e2"
     id="polygon118" />
  <text
     class="f710b24f-5a6e-46e9-b971-052267f34d76"
     transform="translate(744.54 175.26)"
     id="text120">代理</text>
  <path
     d="M730.62,158.79l1,1a.49.49,0,0,1,.14.52.51.51,0,0,1-.38.37L730,161l.39,1.37a.49.49,0,0,1-.13.53.5.5,0,0,1-.53.14l-1.37-.4-.36,1.39a.47.47,0,0,1-.37.39.49.49,0,0,1-.51-.14l-1-1-1,1a.53.53,0,0,1-.52.14.48.48,0,0,1-.37-.39l-.35-1.39-1.38.4a.5.5,0,0,1-.53-.14.51.51,0,0,1-.13-.53l.4-1.37-1.4-.35a.5.5,0,0,1-.37-.37.48.48,0,0,1,.13-.52l1-1-1-1a.48.48,0,0,1-.13-.52.5.5,0,0,1,.37-.37l1.4-.35-.4-1.37a.51.51,0,0,1,.13-.53.5.5,0,0,1,.53-.14l1.38.4.35-1.39a.48.48,0,0,1,.38-.39.51.51,0,0,1,.51.14l1,1,1-1a.5.5,0,0,1,.52-.13.47.47,0,0,1,.36.38l.36,1.39,1.37-.4a.5.5,0,0,1,.53.14.49.49,0,0,1,.13.53l-.39,1.37,1.39.35a.51.51,0,0,1,.38.37.49.49,0,0,1-.14.52Z"
     class="aa256662-fce3-4dfa-8196-2ac4340fe192"
     id="path120" />
  <path
     d="M728.62,182.28a.49.49,0,0,1,.16.37.49.49,0,0,1-.16.38l-3.72,3.72a.51.51,0,0,1-.37.16.53.53,0,0,1-.38-.16.52.52,0,0,1-.15-.38v-2.12h-3a.55.55,0,0,1-.53-.53v-2.13a.51.51,0,0,1,.16-.38.51.51,0,0,1,.37-.15h3v-2.13a.51.51,0,0,1,.15-.37.49.49,0,0,1,.38-.16.47.47,0,0,1,.37.16Zm1,4.45a2,2,0,0,0,1.5-.62,2.07,2.07,0,0,0,.62-1.51v-4.25a2.08,2.08,0,0,0-.62-1.51,2,2,0,0,0-1.5-.62h-1.86a.26.26,0,0,0-.19.08.27.27,0,0,0-.08.19v.89a.25.25,0,0,0,.08.18.22.22,0,0,0,.19.08h1.86a.67.67,0,0,1,.49.21.69.69,0,0,1,.21.5v4.25a.69.69,0,0,1-.21.5.67.67,0,0,1-.49.21h-1.86a.27.27,0,0,0-.27.27v.88a.27.27,0,0,0,.27.27Z"
     class="f5b41e30-30ae-4f26-b089-04ac86fe57e2"
     id="path121" />
  <polyline
     points="577.61 326.96 577.61 266.39 343.58 266.39 343.58 197.05"
     class="fbf59e5c-7545-4d21-8f09-14871b9280fe"
     id="polyline121" />
  <polygon
     points="348.57 198.51 343.58 189.87 338.59 198.51 348.57 198.51"
     class="fb5ff91e-8f6c-4919-a823-bd6b85396607"
     id="polygon121" />
  <polyline
     points="343.58 266.39 228.82 266.39 228.82 226.66"
     class="fbf59e5c-7545-4d21-8f09-14871b9280fe"
     id="polyline122" />
  <polygon
     points="233.8 228.12 228.82 219.49 223.83 228.12 233.8 228.12"
     class="fb5ff91e-8f6c-4919-a823-bd6b85396607"
     id="polygon122" />
  <polyline
     points="577.61 266.39 804.86 266.39 804.86 197.05"
     class="fbf59e5c-7545-4d21-8f09-14871b9280fe"
     id="polyline123" />
  <polygon
     points="809.85 198.51 804.86 189.87 799.87 198.51 809.85 198.51"
     class="fb5ff91e-8f6c-4919-a823-bd6b85396607"
     id="polygon123" />
  <polyline
     points="804.86 266.39 915.37 266.39 915.37 226.66"
     class="fbf59e5c-7545-4d21-8f09-14871b9280fe"
     id="polyline124" />
  <polygon
     points="920.36 228.12 915.37 219.49 910.39 228.12 920.36 228.12"
     class="fb5ff91e-8f6c-4919-a823-bd6b85396607"
     id="polygon124" />
  <path
     d="m 626.0277,522.07306 1.53,1.5 a 0.75,0.75 0 0 1 0.2,0.78 0.74,0.74 0 0 1 -0.57,0.55 l -2.09,0.53 0.6,2.06 a 0.75,0.75 0 0 1 -0.2,0.79 0.76,0.76 0 0 1 -0.8,0.2 l -2.06,-0.6 -0.53,2.1 a 0.7,0.7 0 0 1 -0.56,0.58 0.75,0.75 0 0 1 -0.77,-0.22 l -1.49,-1.53 -1.49,1.56 a 0.8,0.8 0 0 1 -0.78,0.22 0.7,0.7 0 0 1 -0.55,-0.58 l -0.53,-2.1 -2.06,0.6 a 0.76,0.76 0 0 1 -0.8,-0.2 0.75,0.75 0 0 1 -0.2,-0.79 l 0.6,-2.06 -2.09,-0.53 a 0.74,0.74 0 0 1 -0.57,-0.55 0.74,0.74 0 0 1 0.2,-0.78 l 1.53,-1.5 -1.53,-1.49 a 0.74,0.74 0 0 1 -0.2,-0.78 0.74,0.74 0 0 1 0.57,-0.55 l 2.09,-0.53 -0.6,-2.06 a 0.8,0.8 0 0 1 1,-1 l 2.06,0.59 0.53,-2.09 a 0.7,0.7 0 0 1 0.56,-0.58 0.73,0.73 0 0 1 0.77,0.22 l 1.49,1.56 1.49,-1.56 a 0.74,0.74 0 0 1 0.78,-0.2 0.72,0.72 0 0 1 0.55,0.56 l 0.53,2.09 2.06,-0.59 a 0.8,0.8 0 0 1 1,1 l -0.6,2.06 2.09,0.53 a 0.74,0.74 0 0 1 0.57,0.55 0.75,0.75 0 0 1 -0.2,0.78 z"
     class="aa256662-fce3-4dfa-8196-2ac4340fe192"
     id="path124" />
  <text
     class="a8abd049-976e-4fc1-ae51-c49f9aa3fee7"
     id="text133"
     x="607.73853"
     y="507.89688">证书</text>
  <path
     d="m 530.8,521.64306 a 0.75,0.75 0 0 1 0.23,0.57 0.73,0.73 0 0 1 -0.23,0.56 l -5.58,5.6 a 0.73,0.73 0 0 1 -0.56,0.23 0.75,0.75 0 0 1 -0.57,-0.23 0.77,0.77 0 0 1 -0.23,-0.56 v -3.19 h -4.52 a 0.77,0.77 0 0 1 -0.56,-0.23 0.78,0.78 0 0 1 -0.24,-0.57 v -3.19 a 0.82,0.82 0 0 1 0.8,-0.8 h 4.52 v -3.18 a 0.79,0.79 0 0 1 0.8,-0.8 0.77,0.77 0 0 1 0.56,0.23 z m 1.56,6.68 a 3.18,3.18 0 0 0 3.19,-3.19 v -6.38 a 3.18,3.18 0 0 0 -3.19,-3.19 h -2.79 a 0.41,0.41 0 0 0 -0.4,0.4 v 1.33 a 0.36,0.36 0 0 0 0.12,0.28 0.38,0.38 0 0 0 0.28,0.12 h 2.79 a 1,1 0 0 1 0.75,0.31 1,1 0 0 1 0.32,0.75 v 6.38 a 1.08,1.08 0 0 1 -1.07,1.06 h -2.79 a 0.41,0.41 0 0 0 -0.4,0.4 v 1.33 a 0.36,0.36 0 0 0 0.12,0.28 0.38,0.38 0 0 0 0.28,0.12 z"
     class="f5b41e30-30ae-4f26-b089-04ac86fe57e2"
     id="path133" />
  <text
     class="ea96df71-f7e5-489f-a491-48f7b5240008"
     id="text147"
     x="504.21765"
     y="507.96619">本地鉴权</text>
  <line
     x1="384.49"
     x2="464.84"
     y1="521.46"
     y2="521.46"
     class="fbf59e5c-7545-4d21-8f09-14871b9280fe"
     id="line147" />
  <text
     class="a8abd049-976e-4fc1-ae51-c49f9aa3fee7"
     id="text164"
     x="388.29614"
     y="507.96619">控制平面流量</text>
  <line
     x1="276.93"
     x2="357.28"
     y1="521.46"
     y2="521.46"
     class="a6b88054-fdd2-41fb-8800-4aaaac89010e"
     id="line164" />
  <text
     class="a8abd049-976e-4fc1-ae51-c49f9aa3fee7"
     id="text176"
     x="282.3392"
     y="507.16232">数据平面流量</text>
  <text
     class="a8abd049-976e-4fc1-ae51-c49f9aa3fee7"
     id="text179"
     x="220.68921"
     y="506.35849">图例：</text>
  <rect
     width="378.75"
     height="116.71"
     x="391.67"
     y="326.96"
     class="a3f38e67-06e9-418e-964a-eba38bee4535"
     rx="3"
     id="rect179" />
  <text
     class="e1911d25-aca7-4ebb-a506-9b48914bf416"
     transform="translate(438.6 364.45)"
     id="text183">i<tspan
   x="3.14"
   y="0"
   class="ffc44ae6-5c1a-43f6-9d87-d14a453ac344"
   id="tspan180">s</tspan><tspan
   x="9.55"
   y="0"
   class="b313f7eb-8a3a-46f4-89d4-f0df95a50ba8"
   id="tspan181">t</tspan><tspan
   x="14.63"
   y="0"
   class="adbca6c4-a2ed-4117-a8ff-dbdf14aa73b3"
   id="tspan182">i</tspan><tspan
   x="17.7"
   y="0"
   id="tspan183">od</tspan></text>
  <rect
     id="a5ad7299-9961-42be-85d1-8819ccafd567"
     width="27.55"
     height="27.55"
     x="406.55"
     y="346.43"
     class="b0090cf3-5ba2-4df5-8341-f9dff3d9c6b2"
     data-name="background" />
  <polygon
     id="beebd2d1-6be1-4d1a-a79d-8d76f7bccadf"
     points="413.37 367.69 427.28 367.69 418.62 370.31 413.37 367.69"
     class="e9bb5c86-6a6c-4e63-a35a-a8db12e9f576"
     data-name="hull" />
  <polygon
     id="a8b991de-d31c-462d-af5a-7f9bfc94ef8c"
     points="413.37 366.9 418.62 366.12 418.62 356.67 413.37 366.9"
     class="e9bb5c86-6a6c-4e63-a35a-a8db12e9f576"
     data-name="mainsail" />
  <polygon
     id="f2d96f20-dc14-427b-bcc1-0e023ce8b0db"
     points="419.41 366.12 427.28 366.9 419.41 349.85 419.41 366.12"
     class="e9bb5c86-6a6c-4e63-a35a-a8db12e9f576"
     data-name="headsail" />
  <path
     d="M567.81,412.81h-74.6a3,3,0,0,1-3-3v-22.4a3.08,3.08,0,0,1,3-3h74.6a3.08,3.08,0,0,1,3,3v22.4A3,3,0,0,1,567.81,412.81Z"
     class="e9bb5c86-6a6c-4e63-a35a-a8db12e9f576"
     id="path183" />
  <text
     class="a398c1c0-1ae6-42aa-bd8e-928a7dc6a7af"
     id="text199"
     x="514.35382"
     y="400.76309">网络配置</text>
  <path
     d="M567.81,374.41h-74.6a3,3,0,0,1-3-3V349a3.08,3.08,0,0,1,3-3h74.6a3.08,3.08,0,0,1,3,3v22.4A3,3,0,0,1,567.81,374.41Z"
     class="e9bb5c86-6a6c-4e63-a35a-a8db12e9f576"
     id="path199" />
  <text
     class="a398c1c0-1ae6-42aa-bd8e-928a7dc6a7af"
     id="text217"
     x="505.27075"
     y="362.37311">证书颁发机构</text>
  <path
     d="M662,374.41H587.4a3,3,0,0,1-3-3V349a3.08,3.08,0,0,1,3-3H662a3.08,3.08,0,0,1,3,3v22.4A3,3,0,0,1,662,374.41Z"
     class="e9bb5c86-6a6c-4e63-a35a-a8db12e9f576"
     id="path217" />
  <text
     class="a398c1c0-1ae6-42aa-bd8e-928a7dc6a7af"
     id="text236"
     x="606.72388"
     y="363.17694">认证策略</text>
  <path
     d="M662,412.81H587.4a3,3,0,0,1-3-3v-22.4a3.08,3.08,0,0,1,3-3H662a3.08,3.08,0,0,1,3,3v22.4A3,3,0,0,1,662,412.81Z"
     class="e9bb5c86-6a6c-4e63-a35a-a8db12e9f576"
     id="path236" />
  <text
     class="a398c1c0-1ae6-42aa-bd8e-928a7dc6a7af"
     id="text254"
     x="606.06848"
     y="401.56696">鉴权策略</text>
  <path
     d="M614.91,457.87h-74.6a3,3,0,0,1-3-3v-22.4a3.08,3.08,0,0,1,3-3h74.6a3.08,3.08,0,0,1,3,3v22.4A3,3,0,0,1,614.91,457.87Z"
     class="e9bb5c86-6a6c-4e63-a35a-a8db12e9f576"
     id="path254" />
  <text
     class="a398c1c0-1ae6-42aa-bd8e-928a7dc6a7af"
     id="text269"
     x="546.89996"
     y="446.63693">API 服务器配置</text>
  <path
     d="M37.4,155.81A8.26,8.26,0,0,1,41.63,157a8.43,8.43,0,0,1,4.24,7.34v2.65a3,3,0,0,1-3,3H20.56a3,3,0,0,1-3-3v-2.65a8.3,8.3,0,0,1,1.14-4.24,8.38,8.38,0,0,1,3.1-3.1A8.27,8.27,0,0,1,26,155.81h1.07a11.07,11.07,0,0,0,9.24,0Zm-5.7-2a8.1,8.1,0,1,1,4.08-15.12,7.83,7.83,0,0,1,2.94,2.94,8.27,8.27,0,0,1,0,8.17,7.83,7.83,0,0,1-2.94,2.94A8,8,0,0,1,31.7,153.78Z"
     class="b555c1bb-b960-46c7-8767-d80146dadbf4"
     id="path269" />
  <text
     class="ea96df71-f7e5-489f-a491-48f7b5240008"
     transform="translate(20.01,185.78)"
     id="text276"
     x="11.841797"
     y="0"><tspan
       sodipodi:role="line"
       id="tspan284"
       x="11.841797"
       y="0"
       style="text-align:center;text-anchor:middle">API</tspan><tspan
       sodipodi:role="line"
       id="tspan285"
       x="11.841797"
       y="15"
       style="text-align:center;text-anchor:middle">内容</tspan></text>
  <path
     d="M1112.2,155.81a8.27,8.27,0,0,1,4.24,1.14,8.38,8.38,0,0,1,3.1,3.1,8.3,8.3,0,0,1,1.14,4.24v2.65a3,3,0,0,1-3,3h-22.28a3,3,0,0,1-3-3v-2.65a8.43,8.43,0,0,1,4.24-7.34,8.26,8.26,0,0,1,4.23-1.14h1.08a11.07,11.07,0,0,0,9.24,0Zm-5.69-2a8,8,0,0,1-4.08-1.07,7.83,7.83,0,0,1-2.94-2.94,8.27,8.27,0,0,1,0-8.17,7.83,7.83,0,0,1,2.94-2.94,8.12,8.12,0,1,1,4.08,15.12Z"
     class="b555c1bb-b960-46c7-8767-d80146dadbf4"
     id="path276" />
  <text
     class="ea96df71-f7e5-489f-a491-48f7b5240008"
     id="text283"
     x="1106.7256"
     y="185.78"><tspan
       sodipodi:role="line"
       id="tspan286"
       x="1106.7256"
       y="185.78"
       style="text-align:center;text-anchor:middle">外部</tspan><tspan
       sodipodi:role="line"
       id="tspan287"
       x="1106.7256"
       y="201.08223"
       style="text-align:center;text-anchor:middle">API</tspan></text>
  <path
     d="M240.92,182.28a.52.52,0,0,1,.16.37.53.53,0,0,1-.16.38l-3.72,3.72a.53.53,0,0,1-.38.16.52.52,0,0,1-.37-.16.49.49,0,0,1-.16-.38v-2.12h-3a.51.51,0,0,1-.38-.16.51.51,0,0,1-.15-.37v-2.13a.51.51,0,0,1,.53-.53h3v-2.13a.55.55,0,0,1,.53-.53.49.49,0,0,1,.38.16Zm1,4.45a2.12,2.12,0,0,0,2.13-2.13v-4.25a2.12,2.12,0,0,0-2.13-2.13H240.1a.27.27,0,0,0-.19.08.26.26,0,0,0-.07.19v.89a.24.24,0,0,0,.07.18.24.24,0,0,0,.19.08H242a.72.72,0,0,1,.71.71v4.25a.72.72,0,0,1-.71.71H240.1a.27.27,0,0,0-.19.08.25.25,0,0,0-.07.19v.88a.25.25,0,0,0,.07.19.27.27,0,0,0,.19.08Z"
     class="f5b41e30-30ae-4f26-b089-04ac86fe57e2"
     id="path283" />
  <path
     d="M967.34,182.28a.52.52,0,0,1,.16.37.53.53,0,0,1-.16.38l-3.72,3.72a.53.53,0,0,1-.38.16.52.52,0,0,1-.37-.16.49.49,0,0,1-.16-.38v-2.12h-3a.51.51,0,0,1-.38-.16.51.51,0,0,1-.15-.37v-2.13a.51.51,0,0,1,.53-.53h3v-2.13a.55.55,0,0,1,.53-.53.49.49,0,0,1,.38.16Zm1,4.45a2.12,2.12,0,0,0,2.13-2.13v-4.25a2.12,2.12,0,0,0-2.13-2.13h-1.86a.29.29,0,0,0-.19.08.26.26,0,0,0-.07.19v.89a.24.24,0,0,0,.07.18.25.25,0,0,0,.19.08h1.86a.72.72,0,0,1,.71.71v4.25a.72.72,0,0,1-.71.71h-1.86a.29.29,0,0,0-.19.08.25.25,0,0,0-.07.19v.88a.25.25,0,0,0,.07.19.29.29,0,0,0,.19.08Z"
     class="f5b41e30-30ae-4f26-b089-04ac86fe57e2"
     id="path284" />
  <rect
     width="831.41998"
     height="95.669998"
     x="153.80461"
     y="134.87155"
     class="b9c830ba-5174-4bc5-8188-f1ace757097b"
     rx="9"
     id="rect284" />
</svg>
