<?xml version="1.0" encoding="UTF-8" standalone="no"?>
<svg
   xmlns:dc="http://purl.org/dc/elements/1.1/"
   xmlns:cc="http://creativecommons.org/ns#"
   xmlns:rdf="http://www.w3.org/1999/02/22-rdf-syntax-ns#"
   xmlns:svg="http://www.w3.org/2000/svg"
   xmlns="http://www.w3.org/2000/svg"
   xmlns:sodipodi="http://sodipodi.sourceforge.net/DTD/sodipodi-0.dtd"
   xmlns:inkscape="http://www.inkscape.org/namespaces/inkscape"
   version="1.1"
   viewBox="0 0 502.44745 325.67192"
   stroke-miterlimit="10"
   id="svg1216"
   sodipodi:docname="http-to-gateway.svg"
   inkscape:version="0.92.2 (5c3e80d, 2017-08-06)"
   width="502.44745"
   height="325.67191"
   style="fill:none;stroke:none;stroke-linecap:square;stroke-miterlimit:10">
  <metadata
     id="metadata1222">
    <rdf:RDF>
      <cc:Work
         rdf:about="">
        <dc:format>image/svg+xml</dc:format>
        <dc:type
           rdf:resource="http://purl.org/dc/dcmitype/StillImage" />
        <dc:title></dc:title>
      </cc:Work>
    </rdf:RDF>
  </metadata>
  <defs
     id="defs1220">
    <meshgradient
       inkscape:collect="always"
       id="meshgradient6471"
       gradientUnits="userSpaceOnUse"
       x="694.32074"
       y="115.24603">
      <meshrow
         id="meshrow6473">
        <meshpatch
           id="meshpatch6475">
          <stop
             path="c 12.9733,0  25.9466,0  38.9199,0"
             style="stop-color:#ffffff;stop-opacity:1"
             id="stop6477" />
          <stop
             path="c 0,3.8878  0,7.77561  0,11.6634"
             style="stop-color:#000000;stop-opacity:1"
             id="stop6479" />
          <stop
             path="c -12.9733,0  -25.9466,0  -38.9199,0"
             style="stop-color:#ffffff;stop-opacity:1"
             id="stop6481" />
          <stop
             path="c 0,-3.8878  0,-7.77561  0,-11.6634"
             style="stop-color:#000000;stop-opacity:1"
             id="stop6483" />
        </meshpatch>
      </meshrow>
    </meshgradient>
  </defs>
  <sodipodi:namedview
     pagecolor="#ffffff"
     bordercolor="#666666"
     borderopacity="1"
     objecttolerance="10"
     gridtolerance="10"
     guidetolerance="10"
     inkscape:pageopacity="0"
     inkscape:pageshadow="2"
     inkscape:window-width="1421"
     inkscape:window-height="742"
     id="namedview1218"
     showgrid="false"
     inkscape:zoom="1.4125524"
     inkscape:cx="226.38206"
     inkscape:cy="181.31731"
     inkscape:window-x="0"
     inkscape:window-y="23"
     inkscape:window-maximized="0"
     inkscape:current-layer="g1214"
     fit-margin-top="0"
     fit-margin-left="0"
     fit-margin-right="0"
     fit-margin-bottom="0" />
  <clipPath
     id="p.0">
    <path
       d="M 0,0 H 925.0866 V 325.6719 H 0 Z"
       id="path1037"
       inkscape:connector-curvature="0"
       style="clip-rule:nonzero" />
  </clipPath>
  <g
     clip-path="url(#p.0)"
     id="g1214"
     transform="translate(-422.63916)">
    <path
       d="M 0,0 H 925.0866 V 325.6719 H 0 Z"
       id="path1040"
       inkscape:connector-curvature="0"
       style="fill:#000000;fill-opacity:0;fill-rule:evenodd" />
    <path
       d="m 433.76808,108.55719 v 0 c 0,-21.065514 9.25033,-38.142494 20.66119,-38.142494 h 233.11955 c 5.47966,0 10.73493,4.018578 14.60963,11.171684 3.87474,7.153099 6.05153,16.854797 6.05153,26.97081 v 152.5654 c 0,21.06552 -9.25032,38.14252 -20.66116,38.14252 H 454.42927 c -11.41086,0 -20.66119,-17.077 -20.66119,-38.14252 z"
       id="path1042"
       inkscape:connector-curvature="0"
       style="fill:#f3f3f3;fill-rule:evenodd;stroke-width:1" />
    <path
       d="m 433.76808,108.55719 v 0 c 0,-21.065514 9.25032,-38.142494 20.66118,-38.142494 h 233.11956 c 5.47966,0 10.73493,4.018578 14.60963,11.171684 3.87475,7.153099 6.05154,16.854797 6.05154,26.97081 v 152.5654 c 0,21.06552 -9.25033,38.14252 -20.66117,38.14252 H 454.42926 c -11.41086,0 -20.66118,-17.077 -20.66118,-38.14252 z"
       id="path1044"
       inkscape:connector-curvature="0"
       style="fill-rule:evenodd;stroke:#000000;stroke-width:1.99999988;stroke-linecap:butt;stroke-linejoin:round;stroke-dasharray:8.00000004, 6.00000002" />
    <path
       d="m 500.1501,97.70604 h 95.02399 c 5.67725,0 11.12195,2.255264 15.13629,6.26966 4.01441,4.0144 6.26972,9.45909 6.26972,15.13631 v 128.6618 c 0,12.86079 -10.42579,23.28654 -23.28656,23.28654 h -95.02402 c -11.82221,0 -21.40598,-9.58377 -21.40598,-21.40596 v -128.6618 0 c 0,-12.86081 10.42575,-23.286549 23.28656,-23.28655 z"
       id="path1046"
       inkscape:connector-curvature="0"
       style="fill:#ffffff;fill-rule:evenodd" />
    <path
       d="m 502.1501,97.70604 h 95.02399 c 5.67725,0 11.12195,2.255264 15.13629,6.26966 4.01441,4.0144 6.26972,9.45909 6.26972,15.13631 v 128.6618 c 0,12.86079 -10.42579,23.28654 -23.28656,23.28654 h -95.02402 c -11.82221,0 -21.40598,-9.58377 -21.40598,-21.40596 v -128.6618 0 c 0,-12.86081 10.42575,-23.286549 23.28656,-23.28655 z"
       id="path1048"
       inkscape:connector-curvature="0"
       style="fill-rule:evenodd;stroke:#595959;stroke-width:1;stroke-linecap:butt;stroke-linejoin:round" />
    <path
       d="m 508.2933,252.03996 h -1.09375 l -1.92188,-6.375 q -0.125,-0.42188 -0.29687,-1.0625 -0.17188,-0.64063 -0.17188,-0.78125 -0.15625,0.85937 -0.46875,1.89062 l -1.85937,6.32813 h -1.09375 l -2.53125,-9.51563 h 1.17187 l 1.5,5.875 q 0.3125,1.23438 0.46875,2.23438 0.17188,-1.1875 0.51563,-2.32813 l 1.70312,-5.78125 h 1.17188 l 1.79687,5.84375 q 0.3125,1 0.51563,2.26563 0.125,-0.92188 0.46875,-2.25 l 1.5,-5.85938 h 1.17187 z m 10.0264,-3.57813 q 0,1.75 -0.875,2.73438 -0.875,0.96875 -2.42188,0.96875 -0.95312,0 -1.70312,-0.4375 -0.73438,-0.45313 -1.14063,-1.29688 -0.40622,-0.84375 -0.40622,-1.96875 0,-1.73437 0.87497,-2.70312 0.875,-0.98438 2.42188,-0.98438 1.48437,0 2.35937,1 0.89063,1 0.89063,2.6875 z m -5.42188,0 q 0,1.375 0.54688,2.09375 0.54687,0.70313 1.59375,0.70313 1.0625,0 1.60937,-0.70313 0.5625,-0.71875 0.5625,-2.09375 0,-1.35937 -0.5625,-2.0625 -0.54687,-0.70312 -1.60937,-0.70312 -1.0625,0 -1.60938,0.70312 -0.53125,0.6875 -0.53125,2.0625 z m 10.58155,-3.6875 q 0.46875,0 0.84375,0.0781 l -0.14063,1 q -0.45312,-0.0937 -0.78125,-0.0937 -0.875,0 -1.5,0.70312 -0.60937,0.70313 -0.60937,1.75 v 3.82813 h -1.07813 v -7.125 h 0.89063 l 0.125,1.3125 h 0.0625 q 0.39062,-0.70313 0.95312,-1.07813 0.5625,-0.375 1.23438,-0.375 z m 3.25305,3.60938 q 0.28125,-0.39063 0.84375,-1.03125 l 2.3125,-2.4375 h 1.28125 l -2.89063,3.03125 3.09375,4.09375 h -1.3125 l -2.51562,-3.375 -0.8125,0.70312 v 2.67188 h -1.07813 v -10.125 h 1.07813 v 5.375 q 0,0.34375 -0.0625,1.09375 z m 6.99597,3.65625 h -1.07813 v -10.125 h 1.07813 z m 8.44922,-3.57813 q 0,1.75 -0.875,2.73438 -0.875,0.96875 -2.42188,0.96875 -0.95312,0 -1.70312,-0.4375 -0.73438,-0.45313 -1.14063,-1.29688 -0.40625,-0.84375 -0.40625,-1.96875 0,-1.73437 0.875,-2.70312 0.875,-0.98438 2.42188,-0.98438 1.48437,0 2.35937,1 0.89063,1 0.89063,2.6875 z m -5.42188,0 q 0,1.375 0.54688,2.09375 0.54687,0.70313 1.59375,0.70313 1.0625,0 1.60937,-0.70313 0.5625,-0.71875 0.5625,-2.09375 0,-1.35937 -0.5625,-2.0625 -0.54687,-0.70312 -1.60937,-0.70312 -1.0625,0 -1.60938,0.70312 -0.53125,0.6875 -0.53125,2.0625 z m 11.70649,3.57813 -0.21875,-1.01563 h -0.0469 q -0.53125,0.67188 -1.0625,0.90625 -0.53125,0.23438 -1.32812,0.23438 -1.0625,0 -1.67188,-0.54688 -0.59375,-0.54687 -0.59375,-1.54687 0,-2.15625 3.45313,-2.26563 l 1.21875,-0.0469 v -0.4375 q 0,-0.84375 -0.35938,-1.23438 -0.35937,-0.40625 -1.15625,-0.40625 -0.89062,0 -2.01562,0.54688 l -0.34375,-0.82813 q 0.53125,-0.28125 1.15625,-0.4375 0.64062,-0.17187 1.26562,-0.17187 1.28125,0 1.89063,0.5625 0.60937,0.5625 0.60937,1.8125 v 4.875 z m -2.4375,-0.76563 q 1,0 1.57812,-0.54687 0.57813,-0.5625 0.57813,-1.54688 v -0.64062 l -1.07813,0.0312 q -1.28125,0.0469 -1.85937,0.40625 -0.5625,0.35937 -0.5625,1.10937 0,0.57813 0.34375,0.89063 0.35937,0.29687 1,0.29687 z m 10.31872,-0.1875 h -0.0625 q -0.75,1.07813 -2.23437,1.07813 -1.40625,0 -2.1875,-0.95313 -0.76563,-0.95312 -0.76563,-2.71875 0,-1.76562 0.78125,-2.73437 0.78125,-0.98438 2.17188,-0.98438 1.45312,0 2.21875,1.0625 h 0.0937 l -0.0469,-0.51562 -0.0312,-0.5 v -2.90625 h 1.07813 v 10.125 h -0.875 z m -2.15625,0.17188 q 1.10938,0 1.59375,-0.59375 0.5,-0.60938 0.5,-1.9375 v -0.23438 q 0,-1.51562 -0.5,-2.15625 -0.5,-0.65625 -1.60937,-0.65625 -0.95313,0 -1.45313,0.75 -0.5,0.73438 -0.5,2.07813 0,1.35937 0.5,2.0625 0.5,0.6875 1.46875,0.6875 z m 9.09833,-8.73438 h 2.6875 q 1.89062,0 2.73437,0.57813 0.84375,0.5625 0.84375,1.78125 0,0.84375 -0.46875,1.39062 -0.46875,0.54688 -1.375,0.71875 v 0.0625 q 2.17188,0.375 2.17188,2.28125 0,1.26563 -0.875,1.98438 -0.85938,0.71875 -2.40625,0.71875 h -3.3125 z m 1.10937,4.07813 h 1.8125 q 1.17188,0 1.6875,-0.35938 0.51563,-0.375 0.51563,-1.25 0,-0.79687 -0.57813,-1.15625 -0.5625,-0.35937 -1.8125,-0.35937 h -1.625 z m 0,0.9375 v 3.5625 h 1.98438 q 1.14062,0 1.71875,-0.4375 0.59375,-0.45313 0.59375,-1.40625 0,-0.89063 -0.59375,-1.29688 -0.59375,-0.42187 -1.8125,-0.42187 z"
       id="path1050"
       inkscape:connector-curvature="0"
       style="fill:#000000;fill-rule:nonzero" />
    <path
       d="m 164.81102,150.74803 -37.85826,-3.33858"
       id="path1058"
       inkscape:connector-curvature="0"
       style="fill:#000000;fill-opacity:0;fill-rule:evenodd" />
    <path
       d="m 499.65878,124.04456 h 102.96066 v 46.29922 H 499.65878 Z"
       id="path1094"
       inkscape:connector-curvature="0"
       style="fill:#9fc5e8;fill-rule:evenodd" />
    <path
       d="m 539.6301,135.99417 -3.21875,-8.4375 h -0.0625 q 0.0937,1 0.0937,2.39062 v 6.04688 h -1.01563 v -9.51563 h 1.65625 l 3.01563,7.84375 h 0.0625 l 3.03125,-7.84375 h 1.65625 v 9.51563 h -1.10938 v -6.125 q 0,-1.0625 0.0937,-2.29688 h -0.0469 l -3.26563,8.42188 z m 10.67371,0.125 q -1.57813,0 -2.5,-0.95313 -0.90625,-0.96875 -0.90625,-2.67187 0,-1.73438 0.84375,-2.75 0.85937,-1.01563 2.28125,-1.01563 1.34375,0 2.125,0.89063 0.78125,0.875 0.78125,2.32812 v 0.67188 h -4.90625 q 0.0312,1.26562 0.625,1.92187 0.60937,0.64063 1.70312,0.64063 1.14063,0 2.26563,-0.48438 v 0.96875 q -0.5625,0.25 -1.07813,0.34375 -0.51562,0.10938 -1.23437,0.10938 z m -0.29688,-6.48438 q -0.85937,0 -1.375,0.5625 -0.5,0.5625 -0.59375,1.54688 h 3.73438 q 0,-1.01563 -0.45313,-1.5625 -0.45312,-0.54688 -1.3125,-0.54688 z m 9.36816,4.40625 q 0,1 -0.75,1.54688 -0.73437,0.53125 -2.07812,0.53125 -1.42188,0 -2.21875,-0.4375 v -1.01563 q 0.51562,0.26563 1.10937,0.42188 0.59375,0.14062 1.14063,0.14062 0.84375,0 1.29687,-0.26562 0.45313,-0.26563 0.45313,-0.82813 0,-0.40625 -0.35938,-0.70312 -0.35937,-0.29688 -1.40625,-0.70313 -1,-0.375 -1.42187,-0.64062 -0.42188,-0.28125 -0.625,-0.625 -0.20313,-0.35938 -0.20313,-0.84375 0,-0.875 0.70313,-1.375 0.71875,-0.51563 1.95312,-0.51563 1.15625,0 2.25,0.46875 l -0.375,0.875 q -1.07812,-0.4375 -1.95312,-0.4375 -0.76563,0 -1.15625,0.25 -0.39063,0.23438 -0.39063,0.65625 0,0.28125 0.14063,0.48438 0.15625,0.20312 0.46875,0.39062 0.32812,0.17188 1.25,0.53125 1.28125,0.45313 1.71875,0.92188 0.45312,0.46875 0.45312,1.17187 z m 6.63947,1.95313 v -4.60938 q 0,-0.875 -0.40625,-1.29687 -0.39062,-0.4375 -1.23437,-0.4375 -1.125,0 -1.65625,0.60937 -0.51563,0.60938 -0.51563,2 v 3.73438 h -1.07812 v -10.125 h 1.07812 v 3.0625 q 0,0.54687 -0.0469,0.92187 h 0.0625 q 0.32812,-0.51562 0.90625,-0.8125 0.59375,-0.29687 1.34375,-0.29687 1.3125,0 1.96875,0.625 0.65625,0.625 0.65625,1.96875 v 4.65625 z"
       id="path1096"
       inkscape:connector-curvature="0"
       style="fill:#000000;fill-rule:nonzero" />
    <path
       d="m 532.4271,144.86917 v 0.67187 l -1.32813,0.15625 q 0.1875,0.23438 0.32813,0.60938 0.14062,0.35937 0.14062,0.8125 0,1.0625 -0.71875,1.6875 -0.70312,0.60937 -1.95312,0.60937 -0.32813,0 -0.60938,-0.0469 -0.6875,0.35937 -0.6875,0.92187 0,0.29688 0.23438,0.4375 0.25,0.14063 0.84375,0.14063 h 1.25 q 1.17187,0 1.78125,0.48437 0.625,0.48438 0.625,1.42188 0,1.17187 -0.95313,1.79687 -0.95312,0.625 -2.76562,0.625 -1.40625,0 -2.17188,-0.53125 -0.75,-0.51562 -0.75,-1.46875 0,-0.64062 0.42188,-1.125 0.42187,-0.46875 1.17187,-0.64062 -0.28125,-0.125 -0.46875,-0.375 -0.17187,-0.26563 -0.17187,-0.60938 0,-0.39062 0.20312,-0.6875 0.20313,-0.29687 0.65625,-0.5625 -0.54687,-0.23437 -0.90625,-0.78125 -0.34375,-0.54687 -0.34375,-1.25 0,-1.17187 0.70313,-1.79687 0.70312,-0.64063 1.98437,-0.64063 0.5625,0 1.01563,0.14063 z m -5.6875,8.32812 q 0,0.57813 0.48437,0.875 0.48438,0.29688 1.40625,0.29688 1.35938,0 2,-0.40625 0.65625,-0.40625 0.65625,-1.10938 0,-0.57812 -0.35937,-0.79687 -0.34375,-0.21875 -1.34375,-0.21875 h -1.29688 q -0.73437,0 -1.14062,0.34375 -0.40625,0.35937 -0.40625,1.01562 z m 0.57812,-6.04687 q 0,0.75 0.42188,1.14062 0.4375,0.375 1.1875,0.375 1.57812,0 1.57812,-1.54687 0,-1.59375 -1.59375,-1.59375 -0.76562,0 -1.1875,0.40625 -0.40625,0.40625 -0.40625,1.21875 z m 10.95807,4.84375 -0.21875,-1.01563 h -0.0469 q -0.53125,0.67188 -1.0625,0.90625 -0.53125,0.23438 -1.32813,0.23438 -1.0625,0 -1.67187,-0.54688 -0.59375,-0.54687 -0.59375,-1.54687 0,-2.15625 3.45312,-2.26563 l 1.21875,-0.0469 v -0.4375 q 0,-0.84375 -0.35937,-1.23438 -0.35938,-0.40625 -1.15625,-0.40625 -0.89063,0 -2.01563,0.54688 l -0.34375,-0.82813 q 0.53125,-0.28125 1.15625,-0.4375 0.64063,-0.17187 1.26563,-0.17187 1.28125,0 1.89062,0.5625 0.60938,0.5625 0.60938,1.8125 v 4.875 z m -2.4375,-0.76563 q 1,0 1.57813,-0.54687 0.57812,-0.5625 0.57812,-1.54688 v -0.64062 l -1.07812,0.0312 q -1.28125,0.0469 -1.85938,0.40625 -0.5625,0.35937 -0.5625,1.10937 0,0.57813 0.34375,0.89063 0.35938,0.29687 1,0.29687 z m 7.77185,0 q 0.28125,0 0.54688,-0.0312 0.26562,-0.0469 0.42187,-0.0937 v 0.82813 q -0.17187,0.0781 -0.51562,0.125 -0.34375,0.0625 -0.60938,0.0625 -2.07812,0 -2.07812,-2.17188 v -4.25 h -1.01563 v -0.51562 l 1.01563,-0.45313 0.45312,-1.51562 h 0.625 v 1.65625 h 2.07813 v 0.82812 h -2.07813 v 4.20313 q 0,0.64062 0.3125,0.98437 0.3125,0.34375 0.84375,0.34375 z m 5.40833,0.89063 q -1.57813,0 -2.5,-0.95313 -0.90625,-0.96875 -0.90625,-2.67187 0,-1.73438 0.84375,-2.75 0.85937,-1.01563 2.28125,-1.01563 1.34375,0 2.125,0.89063 0.78125,0.875 0.78125,2.32812 v 0.67188 h -4.90625 q 0.0312,1.26562 0.625,1.92187 0.60937,0.64063 1.70312,0.64063 1.14063,0 2.26563,-0.48438 v 0.96875 q -0.5625,0.25 -1.07813,0.34375 -0.51562,0.10938 -1.23437,0.10938 z m -0.29688,-6.48438 q -0.85937,0 -1.375,0.5625 -0.5,0.5625 -0.59375,1.54688 h 3.73438 q 0,-1.01563 -0.45313,-1.5625 -0.45312,-0.54688 -1.3125,-0.54688 z m 10.58698,6.35938 -1.3125,-4.1875 q -0.125,-0.375 -0.45313,-1.73438 h -0.0625 q -0.25,1.125 -0.45312,1.75 l -1.34375,4.17188 h -1.25 l -1.9375,-7.125 h 1.125 q 0.6875,2.6875 1.04687,4.09375 0.35938,1.39062 0.42188,1.89062 h 0.0469 q 0.0781,-0.375 0.23438,-0.95312 0.15625,-0.59375 0.28125,-0.95313 l 1.29687,-4.07812 h 1.17188 l 1.28125,4.07812 q 0.35937,1.125 0.5,1.89063 h 0.0469 q 0.0312,-0.23438 0.14063,-0.71875 0.10937,-0.5 1.35937,-5.25 h 1.10938 l -1.96875,7.125 z m 8.9295,0 -0.21875,-1.01563 h -0.0469 q -0.53125,0.67188 -1.0625,0.90625 -0.53125,0.23438 -1.32813,0.23438 -1.0625,0 -1.67187,-0.54688 -0.59375,-0.54687 -0.59375,-1.54687 0,-2.15625 3.45312,-2.26563 l 1.21875,-0.0469 v -0.4375 q 0,-0.84375 -0.35937,-1.23438 -0.35938,-0.40625 -1.15625,-0.40625 -0.89063,0 -2.01563,0.54688 l -0.34375,-0.82813 q 0.53125,-0.28125 1.15625,-0.4375 0.64063,-0.17187 1.26563,-0.17187 1.28125,0 1.89062,0.5625 0.60938,0.5625 0.60938,1.8125 v 4.875 z m -2.4375,-0.76563 q 1,0 1.57813,-0.54687 0.57812,-0.5625 0.57812,-1.54688 v -0.64062 l -1.07812,0.0312 q -1.28125,0.0469 -1.85938,0.40625 -0.5625,0.35937 -0.5625,1.10937 0,0.57813 0.34375,0.89063 0.35938,0.29687 1,0.29687 z m 4.33435,-6.35937 h 1.15625 l 1.5625,4.0625 q 0.51563,1.39062 0.64063,2.01562 h 0.0469 q 0.0781,-0.34375 0.34375,-1.14062 0.28125,-0.8125 1.78125,-4.9375 h 1.15625 l -3.0625,8.10937 q -0.45312,1.20313 -1.0625,1.70313 -0.60937,0.51562 -1.5,0.51562 -0.5,0 -0.96875,-0.10937 v -0.875 q 0.35938,0.0781 0.79688,0.0781 1.10937,0 1.59375,-1.25 l 0.39062,-1.01562 z"
       id="path1098"
       inkscape:connector-curvature="0"
       style="fill:#000000;fill-rule:nonzero" />
    <path
       d="m 525.44037,164.33792 q 0,-1.71875 0.5,-3.21875 0.51563,-1.5 1.46875,-2.64063 h 1.04688 q -0.9375,1.25 -1.40625,2.76563 -0.46875,1.5 -0.46875,3.09375 0,1.54687 0.46875,3.04687 0.48437,1.48438 1.39062,2.71875 h -1.03125 q -0.96875,-1.10937 -1.46875,-2.57812 -0.5,-1.48438 -0.5,-3.1875 z m 9.16254,1.70312 q 0,1 -0.75,1.54688 -0.73438,0.53125 -2.07813,0.53125 -1.42187,0 -2.21875,-0.4375 v -1.01563 q 0.51563,0.26563 1.10938,0.42188 0.59375,0.14062 1.14062,0.14062 0.84375,0 1.29688,-0.26562 0.45312,-0.26563 0.45312,-0.82813 0,-0.40625 -0.35937,-0.70312 -0.35938,-0.29688 -1.40625,-0.70313 -1,-0.375 -1.42188,-0.64062 -0.42187,-0.28125 -0.625,-0.625 -0.20312,-0.35938 -0.20312,-0.84375 0,-0.875 0.70312,-1.375 0.71875,-0.51563 1.95313,-0.51563 1.15625,0 2.25,0.46875 l -0.375,0.875 q -1.07813,-0.4375 -1.95313,-0.4375 -0.76562,0 -1.15625,0.25 -0.39062,0.23438 -0.39062,0.65625 0,0.28125 0.14062,0.48438 0.15625,0.20312 0.46875,0.39062 0.32813,0.17188 1.25,0.53125 1.28125,0.45313 1.71875,0.92188 0.45313,0.46875 0.45313,1.17187 z m 2.8269,1.95313 h -1.07812 v -7.125 h 1.07812 z m -1.17187,-9.0625 q 0,-0.375 0.1875,-0.54688 0.1875,-0.17187 0.45312,-0.17187 0.26563,0 0.45313,0.17187 0.1875,0.17188 0.1875,0.54688 0,0.35937 -0.1875,0.54687 -0.1875,0.17188 -0.45313,0.17188 -0.26562,0 -0.45312,-0.17188 -0.1875,-0.1875 -0.1875,-0.54687 z m 8.32422,8.10937 h -0.0625 q -0.75,1.07813 -2.23438,1.07813 -1.40625,0 -2.1875,-0.95313 -0.76562,-0.95312 -0.76562,-2.71875 0,-1.76562 0.78125,-2.73437 0.78125,-0.98438 2.17187,-0.98438 1.45313,0 2.21875,1.0625 h 0.0937 l -0.0469,-0.51562 -0.0312,-0.5 v -2.90625 h 1.07812 v 10.125 h -0.875 z m -2.15625,0.17188 q 1.10937,0 1.59375,-0.59375 0.5,-0.60938 0.5,-1.9375 v -0.23438 q 0,-1.51562 -0.5,-2.15625 -0.5,-0.65625 -1.60938,-0.65625 -0.95312,0 -1.45312,0.75 -0.5,0.73438 -0.5,2.07813 0,1.35937 0.5,2.0625 0.5,0.6875 1.46875,0.6875 z m 8.47991,0.90625 q -1.57812,0 -2.5,-0.95313 -0.90625,-0.96875 -0.90625,-2.67187 0,-1.73438 0.84375,-2.75 0.85938,-1.01563 2.28125,-1.01563 1.34375,0 2.125,0.89063 0.78125,0.875 0.78125,2.32812 v 0.67188 h -4.90625 q 0.0312,1.26562 0.625,1.92187 0.60938,0.64063 1.70313,0.64063 1.14062,0 2.26562,-0.48438 v 0.96875 q -0.5625,0.25 -1.07812,0.34375 -0.51563,0.10938 -1.23438,0.10938 z m -0.29687,-6.48438 q -0.85938,0 -1.375,0.5625 -0.5,0.5625 -0.59375,1.54688 h 3.73437 q 0,-1.01563 -0.45312,-1.5625 -0.45313,-0.54688 -1.3125,-0.54688 z m 7.61816,6.48438 q -1.54687,0 -2.40625,-0.95313 -0.84375,-0.95312 -0.84375,-2.6875 0,-1.79687 0.85938,-2.76562 0.85937,-0.98438 2.45312,-0.98438 0.51563,0 1.03125,0.10938 0.51563,0.10937 0.8125,0.26562 l -0.32812,0.92188 q -0.35938,-0.15625 -0.79688,-0.25 -0.42187,-0.0937 -0.73437,-0.0937 -2.17188,0 -2.17188,2.78125 0,1.3125 0.51563,2.01562 0.53125,0.70313 1.57812,0.70313 0.89063,0 1.82813,-0.39063 v 0.96875 q -0.71875,0.35938 -1.79688,0.35938 z m 7.87641,-0.125 -0.21875,-1.01563 h -0.0469 q -0.53125,0.67188 -1.0625,0.90625 -0.53125,0.23438 -1.32812,0.23438 -1.0625,0 -1.67188,-0.54688 -0.59375,-0.54687 -0.59375,-1.54687 0,-2.15625 3.45313,-2.26563 l 1.21875,-0.0469 v -0.4375 q 0,-0.84375 -0.35938,-1.23438 -0.35937,-0.40625 -1.15625,-0.40625 -0.89062,0 -2.01562,0.54688 l -0.34375,-0.82813 q 0.53125,-0.28125 1.15625,-0.4375 0.64062,-0.17187 1.26562,-0.17187 1.28125,0 1.89063,0.5625 0.60937,0.5625 0.60937,1.8125 v 4.875 z m -2.4375,-0.76563 q 1,0 1.57812,-0.54687 0.57813,-0.5625 0.57813,-1.54688 v -0.64062 l -1.07813,0.0312 q -1.28125,0.0469 -1.85937,0.40625 -0.5625,0.35937 -0.5625,1.10937 0,0.57813 0.34375,0.89063 0.35937,0.29687 1,0.29687 z m 8.72497,-6.5 q 0.46875,0 0.84375,0.0781 l -0.14062,1 q -0.45313,-0.0937 -0.78125,-0.0937 -0.875,0 -1.5,0.70312 -0.60938,0.70313 -0.60938,1.75 v 3.82813 h -1.07812 v -7.125 h 0.89062 l 0.125,1.3125 h 0.0625 q 0.39063,-0.70313 0.95313,-1.07813 0.5625,-0.375 1.23437,-0.375 z m 4.44062,3.60938 q 0,1.71875 -0.5,3.20312 -0.5,1.46875 -1.45313,2.5625 h -1.04687 q 0.90625,-1.21875 1.39062,-2.71875 0.48438,-1.5 0.48438,-3.04687 0,-1.59375 -0.48438,-3.09375 -0.46875,-1.51563 -1.40625,-2.76563 h 1.0625 q 0.95313,1.14063 1.45313,2.65625 0.5,1.5 0.5,3.20313 z"
       id="path1100"
       inkscape:connector-curvature="0"
       style="fill:#000000;fill-rule:nonzero" />
    <path
       d="m 499.65955,201.71092 h 102.96063 v 29.25984 H 499.65955 Z"
       id="path1102"
       inkscape:connector-curvature="0"
       style="fill:#b6d7a8;fill-rule:evenodd" />
    <path
       d="m 526.12427,219.15396 q 0,1.51562 -1.09375,2.35937 -1.09375,0.84375 -2.96875,0.84375 -2.03125,0 -3.125,-0.53125 v -1.28125 q 0.70313,0.29688 1.53125,0.46875 0.82813,0.17188 1.64063,0.17188 1.32812,0 2,-0.5 0.67187,-0.5 0.67187,-1.40625 0,-0.59375 -0.23437,-0.96875 -0.23438,-0.375 -0.79688,-0.6875 -0.5625,-0.32813 -1.70312,-0.73438 -1.59375,-0.57812 -2.28125,-1.35937 -0.67188,-0.78125 -0.67188,-2.03125 0,-1.32813 0.98438,-2.10938 1,-0.78125 2.625,-0.78125 1.70312,0 3.14062,0.625 l -0.42187,1.15625 q -1.40625,-0.59375 -2.75,-0.59375 -1.04688,0 -1.64063,0.45313 -0.59375,0.45312 -0.59375,1.26562 0,0.59375 0.21875,0.96875 0.21875,0.375 0.73438,0.70313 0.51562,0.3125 1.59375,0.6875 1.79687,0.64062 2.46875,1.375 0.67187,0.73437 0.67187,1.90625 z m 5.76563,3.20312 q -1.90625,0 -3,-1.15625 -1.09375,-1.15625 -1.09375,-3.21875 0,-2.0625 1.01562,-3.28125 1.01563,-1.21875 2.73438,-1.21875 1.60937,0 2.54687,1.0625 0.9375,1.04688 0.9375,2.78125 v 0.82813 h -5.89062 q 0.0312,1.5 0.75,2.28125 0.73437,0.78125 2.04687,0.78125 1.375,0 2.73438,-0.57813 v 1.15625 q -0.6875,0.29688 -1.3125,0.42188 -0.60938,0.14062 -1.46875,0.14062 z m -0.35938,-7.79687 q -1.03125,0 -1.64062,0.67187 -0.60938,0.67188 -0.71875,1.85938 h 4.46875 q 0,-1.21875 -0.54688,-1.875 -0.54687,-0.65625 -1.5625,-0.65625 z m 9.61719,-1.07813 q 0.57812,0 1.03125,0.0937 l -0.1875,1.20313 q -0.53125,-0.125 -0.9375,-0.125 -1.03125,0 -1.78125,0.84375 -0.73438,0.84375 -0.73438,2.10937 v 4.59375 h -1.29687 v -8.5625 h 1.07812 l 0.14063,1.57813 h 0.0625 q 0.48437,-0.82813 1.15625,-1.28125 0.67187,-0.45313 1.46875,-0.45313 z m 4.5,8.71875 -3.25,-8.5625 h 1.39062 l 1.84375,5.07813 q 0.625,1.78125 0.73438,2.3125 h 0.0625 q 0.0937,-0.42188 0.54687,-1.71875 0.45313,-1.29688 2.04688,-5.67188 h 1.39062 l -3.25,8.5625 z m 7.4375,0 h -1.29688 v -8.5625 h 1.29688 z m -1.40625,-10.89062 q 0,-0.4375 0.21875,-0.64063 0.21875,-0.21875 0.54687,-0.21875 0.3125,0 0.53125,0.21875 0.23438,0.20313 0.23438,0.64063 0,0.4375 -0.23438,0.65625 -0.21875,0.21875 -0.53125,0.21875 -0.32812,0 -0.54687,-0.21875 -0.21875,-0.21875 -0.21875,-0.65625 z m 7.57812,11.04687 q -1.85937,0 -2.875,-1.14062 -1.01562,-1.15625 -1.01562,-3.25 0,-2.14063 1.03125,-3.3125 1.03125,-1.17188 2.95312,-1.17188 0.60938,0 1.21875,0.14063 0.625,0.125 0.98438,0.29687 l -0.40625,1.10938 q -0.42188,-0.17188 -0.9375,-0.28125 -0.5,-0.125 -0.89063,-0.125 -2.60937,0 -2.60937,3.32812 0,1.57813 0.625,2.42188 0.64062,0.84375 1.89062,0.84375 1.07813,0 2.20313,-0.45313 v 1.14063 q -0.85938,0.45312 -2.17188,0.45312 z m 7.82032,0 q -1.90625,0 -3,-1.15625 -1.09375,-1.15625 -1.09375,-3.21875 0,-2.0625 1.01562,-3.28125 1.01563,-1.21875 2.73438,-1.21875 1.60937,0 2.54687,1.0625 0.9375,1.04688 0.9375,2.78125 v 0.82813 h -5.89062 q 0.0312,1.5 0.75,2.28125 0.73437,0.78125 2.04687,0.78125 1.375,0 2.73438,-0.57813 v 1.15625 q -0.6875,0.29688 -1.3125,0.42188 -0.60938,0.14062 -1.46875,0.14062 z m -0.35938,-7.79687 q -1.03125,0 -1.64062,0.67187 -0.60938,0.67188 -0.71875,1.85938 h 4.46875 q 0,-1.21875 -0.54688,-1.875 -0.54687,-0.65625 -1.5625,-0.65625 z m 12.97656,1.92187 3.04688,-5.70312 h 1.4375 l -3.8125,6.98437 v 4.4375 h -1.34375 v -4.375 l -3.8125,-7.04687 h 1.45312 z"
       id="path1104"
       inkscape:connector-curvature="0"
       style="fill:#000000;fill-rule:nonzero" />
    <path
       d="m 326.12335,147.1942 -53.63779,3.55905"
       id="path1106"
       inkscape:connector-curvature="0"
       style="fill:#000000;fill-opacity:0;fill-rule:evenodd" />
    <path
       d="M 499.65878,147.19417 H 429.07611"
       id="path1112"
       inkscape:connector-curvature="0"
       style="fill:#000000;fill-opacity:0;fill-rule:evenodd" />
    <path
       d="M 377.60263,201.7111 V 170.34103"
       id="path1120"
       inkscape:connector-curvature="0"
       style="fill:#000000;fill-opacity:0;fill-rule:evenodd" />
    <path
       d="M 551.1399,201.71092 V 170.34083"
       id="path1128"
       inkscape:connector-curvature="0"
       style="fill:#000000;fill-opacity:0;fill-rule:evenodd" />
    <path
       d="m 551.13983,198.28383 v -24.5159"
       id="path1130"
       style="fill:#ff0000;fill-rule:evenodd;stroke:#f90400;stroke-width:1;stroke-linecap:butt;stroke-linejoin:round;stroke-opacity:1"
       inkscape:connector-curvature="0" />
    <path
       d="m 551.13983,198.28383 -1.12457,-1.12459 1.12457,3.08977 1.12457,-3.08977 z"
       id="path1132"
       style="fill:#ff0000;fill-rule:evenodd;stroke:#eb0000;stroke-width:1;stroke-linecap:butt;stroke-opacity:1"
       inkscape:connector-curvature="0" />
    <path
       d="m 551.13983,173.76793 1.12457,1.12457 -1.12457,-3.08976 -1.12457,3.08976 z"
       id="path1134"
       style="fill:#ff0000;fill-rule:evenodd;stroke:#fe0000;stroke-width:1;stroke-linecap:butt;stroke-opacity:1"
       inkscape:connector-curvature="0" />
    <path
       d="m 676.35956,114.75379 v 0 c 0,-5.92821 3.16815,-10.734 7.07629,-10.734 h 59.57978 c 1.87671,0 3.67657,1.1309 5.00366,3.14393 1.32703,2.01301 2.07257,4.74324 2.07257,7.59007 v 42.93476 c 0,5.92825 -3.16815,10.73403 -7.07623,10.73403 h -59.57978 c -3.90814,0 -7.07629,-4.80578 -7.07629,-10.73403 z"
       id="path1136"
       inkscape:connector-curvature="0"
       style="fill:#9fc5e8;fill-rule:evenodd;stroke-width:1" />
    <path
       d="m 701.0148,144.71422 h -4.78125 v -8.5625 h 4.78125 v 0.875 h -3.78125 v 2.76562 h 3.54688 v 0.875 h -3.54688 v 3.15625 h 3.78125 z m 7.00195,-6.42188 v 0.60938 l -1.1875,0.14062 q 0.17188,0.20313 0.29688,0.54688 0.125,0.32812 0.125,0.73437 0,0.95313 -0.64063,1.51563 -0.64062,0.5625 -1.76562,0.5625 -0.29688,0 -0.54688,-0.0469 -0.60937,0.32813 -0.60937,0.82813 0,0.26562 0.20312,0.39062 0.21875,0.125 0.75,0.125 h 1.14063 q 1.04687,0 1.59375,0.4375 0.5625,0.4375 0.5625,1.28125 0,1.0625 -0.85938,1.625 -0.84375,0.5625 -2.48437,0.5625 -1.26563,0 -1.95313,-0.46875 -0.67187,-0.46875 -0.67187,-1.32812 0,-0.59375 0.375,-1.03125 0.375,-0.42188 1.04687,-0.5625 -0.25,-0.10938 -0.42187,-0.34375 -0.15625,-0.23438 -0.15625,-0.54688 0,-0.35937 0.1875,-0.625 0.1875,-0.26562 0.59375,-0.5 -0.5,-0.20312 -0.8125,-0.6875 -0.3125,-0.5 -0.3125,-1.14062 0,-1.04688 0.625,-1.625 0.64062,-0.57813 1.79687,-0.57813 0.5,0 0.90625,0.125 z m -5.10937,7.5 q 0,0.51563 0.4375,0.78125 0.4375,0.28125 1.25,0.28125 1.23437,0 1.8125,-0.375 0.59375,-0.35937 0.59375,-0.98437 0,-0.51563 -0.32813,-0.71875 -0.3125,-0.20313 -1.20312,-0.20313 H 704.298 q -0.65625,0 -1.03125,0.3125 -0.35937,0.3125 -0.35937,0.90625 z m 0.51562,-5.4375 q 0,0.67188 0.375,1.01563 0.39063,0.34375 1.07813,0.34375 1.42187,0 1.42187,-1.39063 0,-1.4375 -1.4375,-1.4375 -0.6875,0 -1.0625,0.375 -0.375,0.35938 -0.375,1.09375 z m 8.85547,-2.1875 q 0.42188,0 0.76563,0.0781 l -0.14063,0.90625 q -0.39062,-0.0937 -0.70312,-0.0937 -0.78125,0 -1.34375,0.64062 -0.54688,0.625 -0.54688,1.5625 v 3.45313 h -0.96875 v -6.42188 h 0.79688 l 0.125,1.1875 h 0.0469 q 0.34375,-0.625 0.84375,-0.96875 0.51563,-0.34375 1.125,-0.34375 z m 4.67969,6.67188 q -1.42188,0 -2.25,-0.875 -0.82813,-0.875 -0.82813,-2.40625 0,-1.5625 0.76563,-2.46875 0.76562,-0.92188 2.0625,-0.92188 1.20312,0 1.90625,0.79688 0.70312,0.79687 0.70312,2.09375 v 0.625 h -4.42187 q 0.0312,1.125 0.5625,1.71875 0.54687,0.57812 1.53125,0.57812 1.03125,0 2.04687,-0.4375 v 0.875 q -0.51562,0.21875 -0.98437,0.3125 -0.45313,0.10938 -1.09375,0.10938 z m -0.26563,-5.84375 q -0.78125,0 -1.25,0.5 -0.45312,0.5 -0.53125,1.39062 h 3.35938 q 0,-0.92187 -0.40625,-1.40625 -0.40625,-0.48437 -1.17188,-0.48437 z m 8.41993,3.96875 q 0,0.89062 -0.67188,1.39062 -0.65625,0.48438 -1.875,0.48438 -1.26562,0 -1.98437,-0.40625 v -0.90625 q 0.46875,0.23437 0.98437,0.375 0.53125,0.125 1.03125,0.125 0.76563,0 1.17188,-0.23438 0.40625,-0.25 0.40625,-0.75 0,-0.375 -0.32813,-0.64062 -0.3125,-0.26563 -1.26562,-0.625 -0.89063,-0.34375 -1.28125,-0.59375 -0.375,-0.25 -0.5625,-0.5625 -0.17188,-0.3125 -0.17188,-0.75 0,-0.78125 0.64063,-1.23438 0.64062,-0.46875 1.75,-0.46875 1.03125,0 2.03125,0.42188 l -0.35938,0.79687 q -0.95312,-0.39062 -1.75,-0.39062 -0.6875,0 -1.04687,0.21875 -0.34375,0.20312 -0.34375,0.59375 0,0.25 0.125,0.4375 0.14062,0.17187 0.42187,0.34375 0.29688,0.15625 1.14063,0.46875 1.14062,0.42187 1.53125,0.84375 0.40625,0.42187 0.40625,1.0625 z m 5.72461,0 q 0,0.89062 -0.67188,1.39062 -0.65625,0.48438 -1.875,0.48438 -1.26562,0 -1.98437,-0.40625 v -0.90625 q 0.46875,0.23437 0.98437,0.375 0.53125,0.125 1.03125,0.125 0.76563,0 1.17188,-0.23438 0.40625,-0.25 0.40625,-0.75 0,-0.375 -0.32813,-0.64062 -0.3125,-0.26563 -1.26562,-0.625 -0.89063,-0.34375 -1.28125,-0.59375 -0.375,-0.25 -0.5625,-0.5625 -0.17188,-0.3125 -0.17188,-0.75 0,-0.78125 0.64063,-1.23438 0.64062,-0.46875 1.75,-0.46875 1.03125,0 2.03125,0.42188 l -0.35938,0.79687 q -0.95312,-0.39062 -1.75,-0.39062 -0.6875,0 -1.04687,0.21875 -0.34375,0.20312 -0.34375,0.59375 0,0.25 0.125,0.4375 0.14062,0.17187 0.42187,0.34375 0.29688,0.15625 1.14063,0.46875 1.14062,0.42187 1.53125,0.84375 0.40625,0.42187 0.40625,1.0625 z"
       id="path1138"
       inkscape:connector-curvature="0"
       style="fill:#000000;fill-rule:nonzero" />
    <path
       d="m 696.3712,152.29234 v 0.60937 l -1.1875,0.14063 q 0.17188,0.20312 0.29688,0.54687 0.125,0.32813 0.125,0.73438 0,0.95312 -0.64063,1.51562 -0.64062,0.5625 -1.76562,0.5625 -0.29688,0 -0.54688,-0.0469 -0.60937,0.32812 -0.60937,0.82812 0,0.26563 0.20312,0.39063 0.21875,0.125 0.75,0.125 h 1.14063 q 1.04687,0 1.59375,0.4375 0.5625,0.4375 0.5625,1.28125 0,1.0625 -0.85938,1.625 -0.84375,0.5625 -2.48437,0.5625 -1.26563,0 -1.95313,-0.46875 -0.67187,-0.46875 -0.67187,-1.32813 0,-0.59375 0.375,-1.03125 0.375,-0.42187 1.04687,-0.5625 -0.25,-0.10937 -0.42187,-0.34375 -0.15625,-0.23437 -0.15625,-0.54687 0,-0.35938 0.1875,-0.625 0.1875,-0.26563 0.59375,-0.5 -0.5,-0.20313 -0.8125,-0.6875 -0.3125,-0.5 -0.3125,-1.14063 0,-1.04687 0.625,-1.625 0.64062,-0.57812 1.79687,-0.57812 0.5,0 0.90625,0.125 z m -5.10937,7.5 q 0,0.51562 0.4375,0.78125 0.4375,0.28125 1.25,0.28125 1.23437,0 1.8125,-0.375 0.59375,-0.35938 0.59375,-0.98438 0,-0.51562 -0.32813,-0.71875 -0.3125,-0.20312 -1.20312,-0.20312 h -1.17188 q -0.65625,0 -1.03125,0.3125 -0.35937,0.3125 -0.35937,0.90625 z m 0.51562,-5.4375 q 0,0.67187 0.375,1.01562 0.39063,0.34375 1.07813,0.34375 1.42187,0 1.42187,-1.39062 0,-1.4375 -1.4375,-1.4375 -0.6875,0 -1.0625,0.375 -0.375,0.35937 -0.375,1.09375 z m 9.87109,4.35937 -0.20312,-0.92187 h -0.0469 q -0.46875,0.60937 -0.95312,0.82812 -0.46875,0.21875 -1.1875,0.21875 -0.95313,0 -1.5,-0.5 -0.54688,-0.5 -0.54688,-1.40625 0,-1.9375 3.10938,-2.03125 l 1.09375,-0.0312 v -0.40625 q 0,-0.75 -0.32813,-1.10937 -0.3125,-0.35938 -1.03125,-0.35938 -0.8125,0 -1.8125,0.48438 l -0.3125,-0.75 q 0.48438,-0.25 1.04688,-0.39063 0.5625,-0.15625 1.14062,-0.15625 1.14063,0 1.6875,0.51563 0.5625,0.5 0.5625,1.625 v 4.39062 z m -2.20312,-0.6875 q 0.90625,0 1.42187,-0.5 0.53125,-0.5 0.53125,-1.39062 v -0.57813 l -0.98437,0.0312 q -1.15625,0.0469 -1.67188,0.375 -0.5,0.3125 -0.5,0.98438 0,0.53125 0.3125,0.8125 0.3125,0.26562 0.89063,0.26562 z m 7.00195,0 q 0.25,0 0.48438,-0.0312 0.25,-0.0469 0.39062,-0.0781 v 0.73437 q -0.15625,0.0781 -0.46875,0.125 -0.29687,0.0625 -0.54687,0.0625 -1.85938,0 -1.85938,-1.96875 v -3.82812 h -0.92187 v -0.46875 l 0.92187,-0.40625 0.40625,-1.35938 h 0.5625 v 1.48438 h 1.85938 v 0.75 h -1.85938 v 3.78125 q 0,0.57812 0.26563,0.89062 0.28125,0.3125 0.76562,0.3125 z m 4.87695,0.8125 q -1.42187,0 -2.25,-0.875 -0.82812,-0.875 -0.82812,-2.40625 0,-1.5625 0.76562,-2.46875 0.76563,-0.92187 2.0625,-0.92187 1.20313,0 1.90625,0.79687 0.70313,0.79688 0.70313,2.09375 v 0.625 h -4.42188 q 0.0312,1.125 0.5625,1.71875 0.54688,0.57813 1.53125,0.57813 1.03125,0 2.04688,-0.4375 v 0.875 q -0.51563,0.21875 -0.98438,0.3125 -0.45312,0.10937 -1.09375,0.10937 z m -0.26562,-5.84375 q -0.78125,0 -1.25,0.5 -0.45313,0.5 -0.53125,1.39063 h 3.35937 q 0,-0.92188 -0.40625,-1.40625 -0.40625,-0.48438 -1.17187,-0.48438 z m 9.5293,5.71875 -1.1875,-3.76562 q -0.10938,-0.34375 -0.40625,-1.57813 h -0.0469 q -0.23437,1.03125 -0.42187,1.59375 l -1.20313,3.75 h -1.125 l -1.75,-6.42187 h 1.01563 q 0.625,2.42187 0.9375,3.6875 0.32812,1.26562 0.375,1.70312 h 0.0469 q 0.0625,-0.32812 0.20313,-0.85937 0.15625,-0.53125 0.26562,-0.84375 l 1.17188,-3.6875 h 1.04687 l 1.15625,3.6875 q 0.32813,1 0.4375,1.6875 h 0.0469 q 0.0312,-0.20313 0.125,-0.64063 0.10937,-0.45312 1.23437,-4.73437 h 1 l -1.76562,6.42187 z m 8.03711,0 -0.20313,-0.92187 h -0.0469 q -0.46875,0.60937 -0.95313,0.82812 -0.46875,0.21875 -1.1875,0.21875 -0.95312,0 -1.5,-0.5 -0.54687,-0.5 -0.54687,-1.40625 0,-1.9375 3.10937,-2.03125 l 1.09375,-0.0312 v -0.40625 q 0,-0.75 -0.32812,-1.10937 -0.3125,-0.35938 -1.03125,-0.35938 -0.8125,0 -1.8125,0.48438 l -0.3125,-0.75 q 0.48437,-0.25 1.04687,-0.39063 0.5625,-0.15625 1.14063,-0.15625 1.14062,0 1.6875,0.51563 0.5625,0.5 0.5625,1.625 v 4.39062 z m -2.20313,-0.6875 q 0.90625,0 1.42188,-0.5 0.53125,-0.5 0.53125,-1.39062 v -0.57813 l -0.98438,0.0312 q -1.15625,0.0469 -1.67187,0.375 -0.5,0.3125 -0.5,0.98438 0,0.53125 0.3125,0.8125 0.3125,0.26562 0.89062,0.26562 z m 3.9082,-5.73437 h 1.04688 l 1.40625,3.65625 q 0.45312,1.26562 0.5625,1.8125 h 0.0469 q 0.0781,-0.29688 0.3125,-1.01563 0.25,-0.73437 1.60938,-4.45312 h 1.03125 l -2.75,7.3125 q -0.42188,1.07812 -0.96875,1.53125 -0.54688,0.46875 -1.34375,0.46875 -0.4375,0 -0.875,-0.10938 v -0.78125 q 0.32812,0.0781 0.71875,0.0781 1,0 1.4375,-1.125 l 0.35937,-0.92188 z"
       id="path1140"
       inkscape:connector-curvature="0"
       style="fill:#000000;fill-rule:nonzero" />
    <path
       d="M 676.35956,147.19423 H 602.62732"
       id="path1142"
       inkscape:connector-curvature="0"
       style="fill:#000000;fill-opacity:0;fill-rule:evenodd" />
    <path
       d="M 672.9325,147.19423 H 602.62732"
       id="path1144"
       inkscape:connector-curvature="0"
       style="fill-rule:evenodd;stroke:#4f81bd;stroke-width:1;stroke-linecap:butt;stroke-linejoin:round" />
    <path
       d="m 672.9325,147.19423 -1.12457,1.12457 3.08978,-1.12457 -3.08978,-1.12459 z"
       id="path1146"
       inkscape:connector-curvature="0"
       style="fill:#4f81bd;fill-rule:evenodd;stroke:#4f81bd;stroke-width:1;stroke-linecap:butt" />
    <path
       d="m 837.6667,124.48032 h 79.49609 v 46.29921 H 837.6667 Z"
       id="path1148"
       inkscape:connector-curvature="0"
       style="fill:#b6d7a8;fill-rule:evenodd" />
    <path
       d="m 858.5328,144.42992 h -5.29688 v -9.51563 h 5.29688 v 0.98438 h -4.1875 v 3.0625 h 3.9375 v 0.98437 h -3.9375 v 3.5 h 4.1875 z m 3.66248,-3.65625 -2.46875,-3.46875 h 1.21875 l 1.89062,2.71875 1.875,-2.71875 h 1.21875 l -2.48437,3.46875 2.60937,3.65625 h -1.21875 l -2,-2.89063 -2.01562,2.89063 h -1.23438 z m 7.57666,2.89062 q 0.28125,0 0.54687,-0.0312 0.26563,-0.0469 0.42188,-0.0937 v 0.82813 q -0.17188,0.0781 -0.51563,0.125 -0.34375,0.0625 -0.60937,0.0625 -2.07813,0 -2.07813,-2.17188 v -4.25 h -1.01562 v -0.51562 l 1.01562,-0.45313 0.45313,-1.51562 h 0.625 v 1.65625 h 2.07812 v 0.82812 h -2.07812 v 4.20313 q 0,0.64062 0.3125,0.98437 0.3125,0.34375 0.84375,0.34375 z m 5.40832,0.89063 q -1.57812,0 -2.5,-0.95313 -0.90625,-0.96875 -0.90625,-2.67187 0,-1.73438 0.84375,-2.75 0.85938,-1.01563 2.28125,-1.01563 1.34375,0 2.125,0.89063 0.78125,0.875 0.78125,2.32812 v 0.67188 h -4.90625 q 0.0312,1.26562 0.625,1.92187 0.60938,0.64063 1.70313,0.64063 1.14062,0 2.26562,-0.48438 v 0.96875 q -0.5625,0.25 -1.07812,0.34375 -0.51563,0.10938 -1.23438,0.10938 z m -0.29687,-6.48438 q -0.85938,0 -1.375,0.5625 -0.5,0.5625 -0.59375,1.54688 h 3.73437 q 0,-1.01563 -0.45312,-1.5625 -0.45313,-0.54688 -1.3125,-0.54688 z m 8.02447,-0.90625 q 0.46875,0 0.84375,0.0781 l -0.14062,1 q -0.45313,-0.0937 -0.78125,-0.0937 -0.875,0 -1.5,0.70312 -0.60938,0.70313 -0.60938,1.75 v 3.82813 h -1.07812 v -7.125 h 0.89062 l 0.125,1.3125 h 0.0625 q 0.39063,-0.70313 0.95313,-1.07813 0.5625,-0.375 1.23437,-0.375 z m 7.06555,7.26563 v -4.60938 q 0,-0.875 -0.40625,-1.29687 -0.39062,-0.4375 -1.23437,-0.4375 -1.125,0 -1.65625,0.60937 -0.51563,0.59375 -0.51563,2 v 3.73438 h -1.07812 v -7.125 h 0.89062 l 0.17188,0.96875 h 0.0469 q 0.32813,-0.53125 0.92188,-0.8125 0.60937,-0.29688 1.34375,-0.29688 1.29687,0 1.9375,0.625 0.65625,0.625 0.65625,1.98438 v 4.65625 z m 7.68042,0 -0.21875,-1.01563 h -0.0469 q -0.53125,0.67188 -1.0625,0.90625 -0.53125,0.23438 -1.32813,0.23438 -1.0625,0 -1.67187,-0.54688 -0.59375,-0.54687 -0.59375,-1.54687 0,-2.15625 3.45312,-2.26563 l 1.21875,-0.0469 v -0.4375 q 0,-0.84375 -0.35937,-1.23438 -0.35938,-0.40625 -1.15625,-0.40625 -0.89063,0 -2.01563,0.54688 l -0.34375,-0.82813 q 0.53125,-0.28125 1.15625,-0.4375 0.64063,-0.17187 1.26563,-0.17187 1.28125,0 1.89062,0.5625 0.60938,0.5625 0.60938,1.8125 v 4.875 z m -2.4375,-0.76563 q 1,0 1.57813,-0.54687 0.57812,-0.5625 0.57812,-1.54688 v -0.64062 l -1.07812,0.0312 q -1.28125,0.0469 -1.85938,0.40625 -0.5625,0.35937 -0.5625,1.10937 0,0.57813 0.34375,0.89063 0.35938,0.29687 1,0.29687 z m 6.53748,0.76563 h -1.07813 v -10.125 h 1.07813 z"
       id="path1150"
       inkscape:connector-curvature="0"
       style="fill:#000000;fill-rule:nonzero" />
    <path
       d="m 862.03467,157.89867 q 0,1.25 -0.90625,1.95312 -0.90625,0.70313 -2.46875,0.70313 -1.70313,0 -2.60938,-0.4375 v -1.0625 q 0.59375,0.25 1.28125,0.39062 0.6875,0.14063 1.35938,0.14063 1.10937,0 1.67187,-0.40625 0.5625,-0.42188 0.5625,-1.17188 0,-0.5 -0.20312,-0.8125 -0.20313,-0.3125 -0.67188,-0.57812 -0.45312,-0.28125 -1.40625,-0.60938 -1.32812,-0.48437 -1.90625,-1.125 -0.5625,-0.65625 -0.5625,-1.70312 0,-1.09375 0.82813,-1.75 0.82812,-0.65625 2.1875,-0.65625 1.42187,0 2.60937,0.53125 l -0.34375,0.95312 q -1.1875,-0.48437 -2.29687,-0.48437 -0.875,0 -1.375,0.375 -0.48438,0.375 -0.48438,1.04687 0,0.5 0.17188,0.8125 0.1875,0.3125 0.60937,0.57813 0.4375,0.26562 1.32813,0.57812 1.5,0.53125 2.0625,1.15625 0.5625,0.60938 0.5625,1.57813 z m 4.79926,2.65625 q -1.57813,0 -2.5,-0.95313 -0.90625,-0.96875 -0.90625,-2.67187 0,-1.73438 0.84375,-2.75 0.85937,-1.01563 2.28125,-1.01563 1.34375,0 2.125,0.89063 0.78125,0.875 0.78125,2.32812 v 0.67188 h -4.90625 q 0.0312,1.26562 0.625,1.92187 0.60937,0.64063 1.70312,0.64063 1.14063,0 2.26563,-0.48438 v 0.96875 q -0.5625,0.25 -1.07813,0.34375 -0.51562,0.10938 -1.23437,0.10938 z m -0.29688,-6.48438 q -0.85937,0 -1.375,0.5625 -0.5,0.5625 -0.59375,1.54688 h 3.73438 q 0,-1.01563 -0.45313,-1.5625 -0.45312,-0.54688 -1.3125,-0.54688 z m 8.02441,-0.90625 q 0.46875,0 0.84375,0.0781 l -0.14062,1 q -0.45313,-0.0937 -0.78125,-0.0937 -0.875,0 -1.5,0.70312 -0.60938,0.70313 -0.60938,1.75 v 3.82813 h -1.07812 v -7.125 h 0.89062 l 0.125,1.3125 h 0.0625 q 0.39063,-0.70313 0.95313,-1.07813 0.5625,-0.375 1.23437,-0.375 z m 3.73743,7.26563 -2.70312,-7.125 h 1.15625 l 1.53125,4.21875 q 0.53125,1.48437 0.625,1.9375 h 0.0469 q 0.0625,-0.35938 0.4375,-1.4375 0.39063,-1.07813 1.71875,-4.71875 h 1.15625 l -2.70312,7.125 z m 6.19275,0 h -1.07812 v -7.125 h 1.07812 z m -1.17187,-9.0625 q 0,-0.375 0.1875,-0.54688 0.1875,-0.17187 0.45312,-0.17187 0.26563,0 0.45313,0.17187 0.1875,0.17188 0.1875,0.54688 0,0.35937 -0.1875,0.54687 -0.1875,0.17188 -0.45313,0.17188 -0.26562,0 -0.45312,-0.17188 -0.1875,-0.1875 -0.1875,-0.54687 z m 6.32415,9.1875 q -1.54687,0 -2.40625,-0.95313 -0.84375,-0.95312 -0.84375,-2.6875 0,-1.79687 0.85938,-2.76562 0.85937,-0.98438 2.45312,-0.98438 0.51563,0 1.03125,0.10938 0.51563,0.10937 0.8125,0.26562 l -0.32812,0.92188 q -0.35938,-0.15625 -0.79688,-0.25 -0.42187,-0.0937 -0.73437,-0.0937 -2.17188,0 -2.17188,2.78125 0,1.3125 0.51563,2.01562 0.53125,0.70313 1.57812,0.70313 0.89063,0 1.82813,-0.39063 v 0.96875 q -0.71875,0.35938 -1.79688,0.35938 z m 6.50147,0 q -1.57813,0 -2.5,-0.95313 -0.90625,-0.96875 -0.90625,-2.67187 0,-1.73438 0.84375,-2.75 0.85937,-1.01563 2.28125,-1.01563 1.34375,0 2.125,0.89063 0.78125,0.875 0.78125,2.32812 v 0.67188 h -4.90625 q 0.0312,1.26562 0.625,1.92187 0.60937,0.64063 1.70312,0.64063 1.14063,0 2.26563,-0.48438 v 0.96875 q -0.5625,0.25 -1.07813,0.34375 -0.51562,0.10938 -1.23437,0.10938 z m -0.29688,-6.48438 q -0.85937,0 -1.375,0.5625 -0.5,0.5625 -0.59375,1.54688 h 3.73438 q 0,-1.01563 -0.45313,-1.5625 -0.45312,-0.54688 -1.3125,-0.54688 z"
       id="path1152"
       inkscape:connector-curvature="0"
       style="fill:#000000;fill-rule:nonzero" />
    <path
       d="m 837.6667,147.62993 -87.59052,-0.44095"
       id="path1154"
       inkscape:connector-curvature="0"
       style="fill:#000000;fill-opacity:0;fill-rule:evenodd" />
    <path
       d="m 834.23956,147.61267 -84.16345,-0.42369"
       id="path1156"
       inkscape:connector-curvature="0"
       style="fill-rule:evenodd;stroke:#4f81bd;stroke-width:1;stroke-linecap:butt;stroke-linejoin:round" />
    <path
       d="m 834.2396,147.61267 -1.13025,1.11891 3.0954,-1.10902 -3.08405,-1.14012 z"
       id="path1158"
       inkscape:connector-curvature="0"
       style="fill:#4f81bd;fill-rule:evenodd;stroke:#4f81bd;stroke-width:1;stroke-linecap:butt" />
    <path
       d="m 551.1391,124.04456 v -65.9527 h 326.2677 v 66.39365"
       id="path1160"
       inkscape:connector-curvature="0"
       style="fill:#000000;fill-opacity:0;fill-rule:evenodd" />
    <path
       d="M 708.22046,30.517061 H 893.79529 V 72.973757 H 708.22046 Z"
       id="path1166"
       inkscape:connector-curvature="0"
       style="fill:#000000;fill-opacity:0;fill-rule:evenodd" />
    <path
       d="m 708.22046,158.39502 h 158.64569 v 64.62991 H 708.22046 Z"
       id="path1172"
       inkscape:connector-curvature="0"
       style="fill:#000000;fill-opacity:0;fill-rule:evenodd" />
    <path
       d="m 724.5017,180.195 -1.17187,-3.03125 h -3.8125 l -1.17188,3.03125 h -1.125 l 3.76563,-9.54688 h 0.92187 l 3.75,9.54688 z m -1.51562,-4.01563 -1.10938,-2.95312 q -0.21875,-0.5625 -0.45312,-1.375 -0.14063,0.625 -0.40625,1.375 l -1.10938,2.95312 z m 6.66857,4.14063 q -1.54687,0 -2.40625,-0.95313 -0.84375,-0.95312 -0.84375,-2.6875 0,-1.79687 0.85938,-2.76562 0.85937,-0.98438 2.45312,-0.98438 0.51563,0 1.03125,0.10938 0.51563,0.10937 0.8125,0.26562 l -0.32812,0.92188 q -0.35938,-0.15625 -0.79688,-0.25 -0.42187,-0.0937 -0.73437,-0.0937 -2.17188,0 -2.17188,2.78125 0,1.3125 0.51563,2.01562 0.53125,0.70313 1.57812,0.70313 0.89063,0 1.82813,-0.39063 v 0.96875 q -0.71875,0.35938 -1.79688,0.35938 z m 6.34522,0 q -1.54688,0 -2.40625,-0.95313 -0.84375,-0.95312 -0.84375,-2.6875 0,-1.79687 0.85937,-2.76562 0.85938,-0.98438 2.45313,-0.98438 0.51562,0 1.03125,0.10938 0.51562,0.10937 0.8125,0.26562 l -0.32813,0.92188 q -0.35937,-0.15625 -0.79687,-0.25 -0.42188,-0.0937 -0.73438,-0.0937 -2.17187,0 -2.17187,2.78125 0,1.3125 0.51562,2.01562 0.53125,0.70313 1.57813,0.70313 0.89062,0 1.82812,-0.39063 v 0.96875 q -0.71875,0.35938 -1.79687,0.35938 z m 6.5014,0 q -1.57812,0 -2.5,-0.95313 -0.90625,-0.96875 -0.90625,-2.67187 0,-1.73438 0.84375,-2.75 0.85938,-1.01563 2.28125,-1.01563 1.34375,0 2.125,0.89063 0.78125,0.875 0.78125,2.32812 V 176.82 h -4.90625 q 0.0312,1.26562 0.625,1.92187 0.60938,0.64063 1.70313,0.64063 1.14062,0 2.26562,-0.48438 v 0.96875 q -0.5625,0.25 -1.07812,0.34375 -0.51563,0.10938 -1.23438,0.10938 z m -0.29687,-6.48438 q -0.85938,0 -1.375,0.5625 -0.5,0.5625 -0.59375,1.54688 h 3.73437 q 0,-1.01563 -0.45312,-1.5625 -0.45313,-0.54688 -1.3125,-0.54688 z m 9.36816,4.40625 q 0,1 -0.75,1.54688 -0.73437,0.53125 -2.07812,0.53125 -1.42188,0 -2.21875,-0.4375 v -1.01563 q 0.51562,0.26563 1.10937,0.42188 0.59375,0.14062 1.14063,0.14062 0.84375,0 1.29687,-0.26562 0.45313,-0.26563 0.45313,-0.82813 0,-0.40625 -0.35938,-0.70312 -0.35937,-0.29688 -1.40625,-0.70313 -1,-0.375 -1.42187,-0.64062 -0.42188,-0.28125 -0.625,-0.625 -0.20313,-0.35938 -0.20313,-0.84375 0,-0.875 0.70313,-1.375 0.71875,-0.51563 1.95312,-0.51563 1.15625,0 2.25,0.46875 l -0.375,0.875 q -1.07812,-0.4375 -1.95312,-0.4375 -0.76563,0 -1.15625,0.25 -0.39063,0.23438 -0.39063,0.65625 0,0.28125 0.14063,0.48438 0.15625,0.20312 0.46875,0.39062 0.32812,0.17188 1.25,0.53125 1.28125,0.45313 1.71875,0.92188 0.45312,0.46875 0.45312,1.17187 z m 6.35822,0 q 0,1 -0.75,1.54688 -0.73438,0.53125 -2.07813,0.53125 -1.42187,0 -2.21875,-0.4375 v -1.01563 q 0.51563,0.26563 1.10938,0.42188 0.59375,0.14062 1.14062,0.14062 0.84375,0 1.29688,-0.26562 0.45312,-0.26563 0.45312,-0.82813 0,-0.40625 -0.35937,-0.70312 -0.35938,-0.29688 -1.40625,-0.70313 -1,-0.375 -1.42188,-0.64062 -0.42187,-0.28125 -0.625,-0.625 -0.20312,-0.35938 -0.20312,-0.84375 0,-0.875 0.70312,-1.375 0.71875,-0.51563 1.95313,-0.51563 1.15625,0 2.25,0.46875 l -0.375,0.875 q -1.07813,-0.4375 -1.95313,-0.4375 -0.76562,0 -1.15625,0.25 -0.39062,0.23438 -0.39062,0.65625 0,0.28125 0.14062,0.48438 0.15625,0.20312 0.46875,0.39062 0.32813,0.17188 1.25,0.53125 1.28125,0.45313 1.71875,0.92188 0.45313,0.46875 0.45313,1.17187 z m 8.22662,2.07813 q -1.57812,0 -2.5,-0.95313 -0.90625,-0.96875 -0.90625,-2.67187 0,-1.73438 0.84375,-2.75 0.85938,-1.01563 2.28125,-1.01563 1.34375,0 2.125,0.89063 0.78125,0.875 0.78125,2.32812 V 176.82 h -4.90625 q 0.0312,1.26562 0.625,1.92187 0.60938,0.64063 1.70313,0.64063 1.14062,0 2.26562,-0.48438 v 0.96875 q -0.5625,0.25 -1.07812,0.34375 -0.51563,0.10938 -1.23438,0.10938 z m -0.29687,-6.48438 q -0.85938,0 -1.375,0.5625 -0.5,0.5625 -0.59375,1.54688 h 3.73437 q 0,-1.01563 -0.45312,-1.5625 -0.45313,-0.54688 -1.3125,-0.54688 z m 6.4776,2.70313 -2.46875,-3.46875 h 1.21875 l 1.89062,2.71875 1.875,-2.71875 h 1.21875 l -2.48437,3.46875 2.60937,3.65625 h -1.21875 l -2,-2.89063 -2.01562,2.89063 h -1.23438 z m 7.57666,2.89062 q 0.28125,0 0.54687,-0.0312 0.26563,-0.0469 0.42188,-0.0937 v 0.82813 q -0.17188,0.0781 -0.51563,0.125 -0.34375,0.0625 -0.60937,0.0625 -2.07813,0 -2.07813,-2.17188 v -4.25 h -1.01562 v -0.51562 l 1.01562,-0.45313 0.45313,-1.51562 h 0.625 V 173.07 h 2.07812 v 0.82812 h -2.07812 v 4.20313 q 0,0.64062 0.3125,0.98437 0.3125,0.34375 0.84375,0.34375 z m 5.40832,0.89063 q -1.57812,0 -2.5,-0.95313 -0.90625,-0.96875 -0.90625,-2.67187 0,-1.73438 0.84375,-2.75 0.85938,-1.01563 2.28125,-1.01563 1.34375,0 2.125,0.89063 0.78125,0.875 0.78125,2.32812 V 176.82 h -4.90625 q 0.0312,1.26562 0.625,1.92187 0.60938,0.64063 1.70313,0.64063 1.14062,0 2.26562,-0.48438 v 0.96875 q -0.5625,0.25 -1.07812,0.34375 -0.51563,0.10938 -1.23438,0.10938 z m -0.29687,-6.48438 q -0.85938,0 -1.375,0.5625 -0.5,0.5625 -0.59375,1.54688 h 3.73437 q 0,-1.01563 -0.45312,-1.5625 -0.45313,-0.54688 -1.3125,-0.54688 z m 8.02447,-0.90625 q 0.46875,0 0.84375,0.0781 l -0.14062,1 q -0.45313,-0.0937 -0.78125,-0.0937 -0.875,0 -1.5,0.70312 -0.60938,0.70313 -0.60938,1.75 v 3.82813 h -1.07812 v -7.125 h 0.89062 l 0.125,1.3125 h 0.0625 q 0.39063,-0.70313 0.95313,-1.07813 0.5625,-0.375 1.23437,-0.375 z m 7.06555,7.26563 v -4.60938 q 0,-0.875 -0.40625,-1.29687 -0.39062,-0.4375 -1.23437,-0.4375 -1.125,0 -1.65625,0.60937 -0.51563,0.59375 -0.51563,2 v 3.73438 h -1.07812 v -7.125 h 0.89062 l 0.17188,0.96875 h 0.0469 q 0.32813,-0.53125 0.92188,-0.8125 0.60937,-0.29688 1.34375,-0.29688 1.29687,0 1.9375,0.625 0.65625,0.625 0.65625,1.98438 v 4.65625 z m 7.68042,0 -0.21875,-1.01563 h -0.0469 q -0.53125,0.67188 -1.0625,0.90625 -0.53125,0.23438 -1.32813,0.23438 -1.0625,0 -1.67187,-0.54688 -0.59375,-0.54687 -0.59375,-1.54687 0,-2.15625 3.45312,-2.26563 l 1.21875,-0.0469 v -0.4375 q 0,-0.84375 -0.35937,-1.23438 -0.35938,-0.40625 -1.15625,-0.40625 -0.89063,0 -2.01563,0.54688 l -0.34375,-0.82813 q 0.53125,-0.28125 1.15625,-0.4375 0.64063,-0.17187 1.26563,-0.17187 1.28125,0 1.89062,0.5625 0.60938,0.5625 0.60938,1.8125 v 4.875 z m -2.4375,-0.76563 q 1,0 1.57813,-0.54687 0.57812,-0.5625 0.57812,-1.54688 V 176.695 l -1.07812,0.0312 q -1.28125,0.0469 -1.85938,0.40625 -0.5625,0.35937 -0.5625,1.10937 0,0.57813 0.34375,0.89063 0.35938,0.29687 1,0.29687 z m 6.53748,0.76563 h -1.07813 V 170.07 h 1.07813 z"
       id="path1174"
       inkscape:connector-curvature="0"
       style="fill:#000000;fill-rule:nonzero" />
    <path
       d="m 722.97046,194.24188 q 0,1 -0.75,1.54687 -0.73438,0.53125 -2.07813,0.53125 -1.42187,0 -2.21875,-0.4375 v -1.01562 q 0.51563,0.26562 1.10938,0.42187 0.59375,0.14063 1.14062,0.14063 0.84375,0 1.29688,-0.26563 0.45312,-0.26562 0.45312,-0.82812 0,-0.40625 -0.35937,-0.70313 -0.35938,-0.29687 -1.40625,-0.70312 -1,-0.375 -1.42188,-0.64063 -0.42187,-0.28125 -0.625,-0.625 -0.20312,-0.35937 -0.20312,-0.84375 0,-0.875 0.70312,-1.375 0.71875,-0.51562 1.95313,-0.51562 1.15625,0 2.25,0.46875 l -0.375,0.875 q -1.07813,-0.4375 -1.95313,-0.4375 -0.76562,0 -1.15625,0.25 -0.39062,0.23437 -0.39062,0.65625 0,0.28125 0.14062,0.48437 0.15625,0.20313 0.46875,0.39063 0.32813,0.17187 1.25,0.53125 1.28125,0.45312 1.71875,0.92187 0.45313,0.46875 0.45313,1.17188 z m 4.76447,2.07812 q -1.57813,0 -2.5,-0.95312 -0.90625,-0.96875 -0.90625,-2.67188 0,-1.73437 0.84375,-2.75 0.85937,-1.01562 2.28125,-1.01562 1.34375,0 2.125,0.89062 0.78125,0.875 0.78125,2.32813 V 192.82 h -4.90625 q 0.0312,1.26563 0.625,1.92188 0.60937,0.64062 1.70312,0.64062 1.14063,0 2.26563,-0.48437 v 0.96875 q -0.5625,0.25 -1.07813,0.34375 -0.51562,0.10937 -1.23437,0.10937 z m -0.29688,-6.48437 q -0.85937,0 -1.375,0.5625 -0.5,0.5625 -0.59375,1.54687 h 3.73438 q 0,-1.01562 -0.45313,-1.5625 -0.45312,-0.54687 -1.3125,-0.54687 z m 8.02441,-0.90625 q 0.46875,0 0.84375,0.0781 l -0.14062,1 q -0.45313,-0.0937 -0.78125,-0.0937 -0.875,0 -1.5,0.70313 -0.60938,0.70312 -0.60938,1.75 v 3.82812 h -1.07812 v -7.125 h 0.89062 l 0.125,1.3125 h 0.0625 q 0.39063,-0.70312 0.95313,-1.07812 0.5625,-0.375 1.23437,-0.375 z m 3.73749,7.26562 -2.70312,-7.125 h 1.15625 l 1.53125,4.21875 q 0.53125,1.48438 0.625,1.9375 h 0.0469 q 0.0625,-0.35937 0.4375,-1.4375 0.39063,-1.07812 1.71875,-4.71875 h 1.15625 l -2.70312,7.125 z m 6.19269,0 h -1.07812 v -7.125 h 1.07812 z m -1.17187,-9.0625 q 0,-0.375 0.1875,-0.54687 0.1875,-0.17188 0.45312,-0.17188 0.26563,0 0.45313,0.17188 0.1875,0.17187 0.1875,0.54687 0,0.35938 -0.1875,0.54688 -0.1875,0.17187 -0.45313,0.17187 -0.26562,0 -0.45312,-0.17187 -0.1875,-0.1875 -0.1875,-0.54688 z m 6.32421,9.1875 q -1.54687,0 -2.40625,-0.95312 -0.84375,-0.95313 -0.84375,-2.6875 0,-1.79688 0.85938,-2.76563 0.85937,-0.98437 2.45312,-0.98437 0.51563,0 1.03125,0.10937 0.51563,0.10938 0.8125,0.26563 l -0.32812,0.92187 q -0.35938,-0.15625 -0.79688,-0.25 -0.42187,-0.0937 -0.73437,-0.0937 -2.17188,0 -2.17188,2.78125 0,1.3125 0.51563,2.01563 0.53125,0.70312 1.57812,0.70312 0.89063,0 1.82813,-0.39062 v 0.96875 q -0.71875,0.35937 -1.79688,0.35937 z m 6.50141,0 q -1.57813,0 -2.5,-0.95312 -0.90625,-0.96875 -0.90625,-2.67188 0,-1.73437 0.84375,-2.75 0.85937,-1.01562 2.28125,-1.01562 1.34375,0 2.125,0.89062 0.78125,0.875 0.78125,2.32813 V 192.82 h -4.90625 q 0.0312,1.26563 0.625,1.92188 0.60937,0.64062 1.70312,0.64062 1.14063,0 2.26563,-0.48437 v 0.96875 q -0.5625,0.25 -1.07813,0.34375 -0.51562,0.10937 -1.23437,0.10937 z m -0.29688,-6.48437 q -0.85937,0 -1.375,0.5625 -0.5,0.5625 -0.59375,1.54687 h 3.73438 q 0,-1.01562 -0.45313,-1.5625 -0.45312,-0.54687 -1.3125,-0.54687 z m 9.78351,6.35937 -2.70312,-7.125 h 1.15625 l 1.53125,4.21875 q 0.53125,1.48438 0.625,1.9375 h 0.0469 q 0.0625,-0.35937 0.4375,-1.4375 0.39063,-1.07812 1.71875,-4.71875 h 1.15625 l -2.70312,7.125 z m 6.19269,0 h -1.07813 v -7.125 h 1.07813 z m -1.17188,-9.0625 q 0,-0.375 0.1875,-0.54687 0.1875,-0.17188 0.45313,-0.17188 0.26562,0 0.45312,0.17188 0.1875,0.17187 0.1875,0.54687 0,0.35938 -0.1875,0.54688 -0.1875,0.17187 -0.45312,0.17187 -0.26563,0 -0.45313,-0.17187 -0.1875,-0.1875 -0.1875,-0.54688 z m 7.85547,9.0625 -0.21875,-1.01562 h -0.0469 q -0.53125,0.67187 -1.0625,0.90625 -0.53125,0.23437 -1.32813,0.23437 -1.0625,0 -1.67187,-0.54687 -0.59375,-0.54688 -0.59375,-1.54688 0,-2.15625 3.45312,-2.26562 l 1.21875,-0.0469 v -0.4375 q 0,-0.84375 -0.35937,-1.23437 -0.35938,-0.40625 -1.15625,-0.40625 -0.89063,0 -2.01563,0.54687 l -0.34375,-0.82812 q 0.53125,-0.28125 1.15625,-0.4375 0.64063,-0.17188 1.26563,-0.17188 1.28125,0 1.89062,0.5625 0.60938,0.5625 0.60938,1.8125 v 4.875 z m -2.4375,-0.76562 q 1,0 1.57813,-0.54688 0.57812,-0.5625 0.57812,-1.54687 V 192.695 l -1.07812,0.0312 q -1.28125,0.0469 -1.85938,0.40625 -0.5625,0.35938 -0.5625,1.10938 0,0.57812 0.34375,0.89062 0.35938,0.29688 1,0.29688 z m 11.93714,0.89062 q -1.57813,0 -2.5,-0.95312 -0.90625,-0.96875 -0.90625,-2.67188 0,-1.73437 0.84375,-2.75 0.85937,-1.01562 2.28125,-1.01562 1.34375,0 2.125,0.89062 0.78125,0.875 0.78125,2.32813 V 192.82 h -4.90625 q 0.0312,1.26563 0.625,1.92188 0.60937,0.64062 1.70312,0.64062 1.14063,0 2.26563,-0.48437 v 0.96875 q -0.5625,0.25 -1.07813,0.34375 -0.51562,0.10937 -1.23437,0.10937 z m -0.29688,-6.48437 q -0.85937,0 -1.375,0.5625 -0.5,0.5625 -0.59375,1.54687 h 3.73438 q 0,-1.01562 -0.45313,-1.5625 -0.45312,-0.54687 -1.3125,-0.54687 z m 10.6026,-0.76563 v 0.67188 l -1.32812,0.15625 q 0.1875,0.23437 0.32812,0.60937 0.14063,0.35938 0.14063,0.8125 0,1.0625 -0.71875,1.6875 -0.70313,0.60938 -1.95313,0.60938 -0.32812,0 -0.60937,-0.0469 -0.6875,0.35938 -0.6875,0.92188 0,0.29687 0.23437,0.4375 0.25,0.14062 0.84375,0.14062 h 1.25 q 1.17188,0 1.78125,0.48438 0.625,0.48437 0.625,1.42187 0,1.17188 -0.95312,1.79688 -0.95313,0.625 -2.76563,0.625 -1.40625,0 -2.17187,-0.53125 -0.75,-0.51563 -0.75,-1.46875 0,-0.64063 0.42187,-1.125 0.42188,-0.46875 1.17188,-0.64063 -0.28125,-0.125 -0.46875,-0.375 -0.17188,-0.26562 -0.17188,-0.60937 0,-0.39063 0.20313,-0.6875 0.20312,-0.29688 0.65625,-0.5625 -0.54688,-0.23438 -0.90625,-0.78125 -0.34375,-0.54688 -0.34375,-1.25 0,-1.17188 0.70312,-1.79688 0.70313,-0.64062 1.98438,-0.64062 0.5625,0 1.01562,0.14062 z m -5.6875,8.32813 q 0,0.57812 0.48438,0.875 0.48437,0.29687 1.40625,0.29687 1.35937,0 2,-0.40625 0.65625,-0.40625 0.65625,-1.10937 0,-0.57813 -0.35938,-0.79688 -0.34375,-0.21875 -1.34375,-0.21875 h -1.29687 q -0.73438,0 -1.14063,0.34375 -0.40625,0.35938 -0.40625,1.01563 z m 0.57813,-6.04688 q 0,0.75 0.42187,1.14063 0.4375,0.375 1.1875,0.375 1.57813,0 1.57813,-1.54688 0,-1.59375 -1.59375,-1.59375 -0.76563,0 -1.1875,0.40625 -0.40625,0.40625 -0.40625,1.21875 z m 9.83307,-2.42187 q 0.46875,0 0.84375,0.0781 l -0.14063,1 q -0.45312,-0.0937 -0.78125,-0.0937 -0.875,0 -1.5,0.70313 -0.60937,0.70312 -0.60937,1.75 v 3.82812 h -1.07813 v -7.125 h 0.89063 l 0.125,1.3125 h 0.0625 q 0.39062,-0.70312 0.95312,-1.07812 0.5625,-0.375 1.23438,-0.375 z m 5.19055,7.39062 q -1.57813,0 -2.5,-0.95312 -0.90625,-0.96875 -0.90625,-2.67188 0,-1.73437 0.84375,-2.75 0.85937,-1.01562 2.28125,-1.01562 1.34375,0 2.125,0.89062 0.78125,0.875 0.78125,2.32813 V 192.82 h -4.90625 q 0.0312,1.26563 0.625,1.92188 0.60937,0.64062 1.70312,0.64062 1.14063,0 2.26563,-0.48437 v 0.96875 q -0.5625,0.25 -1.07813,0.34375 -0.51562,0.10937 -1.23437,0.10937 z m -0.29688,-6.48437 q -0.85937,0 -1.375,0.5625 -0.5,0.5625 -0.59375,1.54687 h 3.73438 q 0,-1.01562 -0.45313,-1.5625 -0.45312,-0.54687 -1.3125,-0.54687 z m 9.36823,4.40625 q 0,1 -0.75,1.54687 -0.73438,0.53125 -2.07813,0.53125 -1.42187,0 -2.21875,-0.4375 v -1.01562 q 0.51563,0.26562 1.10938,0.42187 0.59375,0.14063 1.14062,0.14063 0.84375,0 1.29688,-0.26563 0.45312,-0.26562 0.45312,-0.82812 0,-0.40625 -0.35937,-0.70313 -0.35938,-0.29687 -1.40625,-0.70312 -1,-0.375 -1.42188,-0.64063 -0.42187,-0.28125 -0.625,-0.625 -0.20312,-0.35937 -0.20312,-0.84375 0,-0.875 0.70312,-1.375 0.71875,-0.51562 1.95313,-0.51562 1.15625,0 2.25,0.46875 l -0.375,0.875 q -1.07813,-0.4375 -1.95313,-0.4375 -0.76562,0 -1.15625,0.25 -0.39062,0.23437 -0.39062,0.65625 0,0.28125 0.14062,0.48437 0.15625,0.20313 0.46875,0.39063 0.32813,0.17187 1.25,0.53125 1.28125,0.45312 1.71875,0.92187 0.45313,0.46875 0.45313,1.17188 z m 6.35815,0 q 0,1 -0.75,1.54687 -0.73437,0.53125 -2.07812,0.53125 -1.42188,0 -2.21875,-0.4375 v -1.01562 q 0.51562,0.26562 1.10937,0.42187 0.59375,0.14063 1.14063,0.14063 0.84375,0 1.29687,-0.26563 0.45313,-0.26562 0.45313,-0.82812 0,-0.40625 -0.35938,-0.70313 -0.35937,-0.29687 -1.40625,-0.70312 -1,-0.375 -1.42187,-0.64063 -0.42188,-0.28125 -0.625,-0.625 -0.20313,-0.35937 -0.20313,-0.84375 0,-0.875 0.70313,-1.375 0.71875,-0.51562 1.95312,-0.51562 1.15625,0 2.25,0.46875 l -0.375,0.875 q -1.07812,-0.4375 -1.95312,-0.4375 -0.76563,0 -1.15625,0.25 -0.39063,0.23437 -0.39063,0.65625 0,0.28125 0.14063,0.48437 0.15625,0.20313 0.46875,0.39063 0.32812,0.17187 1.25,0.53125 1.28125,0.45312 1.71875,0.92187 0.45312,0.46875 0.45312,1.17188 z"
       id="path1176"
       inkscape:connector-curvature="0"
       style="fill:#000000;fill-rule:nonzero" />
    <path
       d="m 724.20483,205.07 v 0.67187 l -1.32812,0.15625 q 0.1875,0.23438 0.32812,0.60938 0.14063,0.35937 0.14063,0.8125 0,1.0625 -0.71875,1.6875 -0.70313,0.60937 -1.95313,0.60937 -0.32812,0 -0.60937,-0.0469 -0.6875,0.35937 -0.6875,0.92187 0,0.29688 0.23437,0.4375 0.25,0.14063 0.84375,0.14063 h 1.25 q 1.17188,0 1.78125,0.48437 0.625,0.48438 0.625,1.42188 0,1.17187 -0.95312,1.79687 -0.95313,0.625 -2.76563,0.625 -1.40625,0 -2.17187,-0.53125 -0.75,-0.51562 -0.75,-1.46875 0,-0.64062 0.42187,-1.125 0.42188,-0.46875 1.17188,-0.64062 -0.28125,-0.125 -0.46875,-0.375 -0.17188,-0.26563 -0.17188,-0.60938 0,-0.39062 0.20313,-0.6875 0.20312,-0.29687 0.65625,-0.5625 -0.54688,-0.23437 -0.90625,-0.78125 -0.34375,-0.54687 -0.34375,-1.25 0,-1.17187 0.70312,-1.79687 0.70313,-0.64063 1.98438,-0.64063 0.5625,0 1.01562,0.14063 z m -5.6875,8.32812 q 0,0.57813 0.48438,0.875 0.48437,0.29688 1.40625,0.29688 1.35937,0 2,-0.40625 0.65625,-0.40625 0.65625,-1.10938 0,-0.57812 -0.35938,-0.79687 -0.34375,-0.21875 -1.34375,-0.21875 h -1.29687 q -0.73438,0 -1.14063,0.34375 -0.40625,0.35937 -0.40625,1.01562 z m 0.57813,-6.04687 q 0,0.75 0.42187,1.14062 0.4375,0.375 1.1875,0.375 1.57813,0 1.57813,-1.54687 0,-1.59375 -1.59375,-1.59375 -0.76563,0 -1.1875,0.40625 -0.40625,0.40625 -0.40625,1.21875 z m 10.95806,4.84375 -0.21875,-1.01563 h -0.0469 q -0.53125,0.67188 -1.0625,0.90625 -0.53125,0.23438 -1.32813,0.23438 -1.0625,0 -1.67187,-0.54688 -0.59375,-0.54687 -0.59375,-1.54687 0,-2.15625 3.45312,-2.26563 l 1.21875,-0.0469 v -0.4375 q 0,-0.84375 -0.35937,-1.23438 -0.35938,-0.40625 -1.15625,-0.40625 -0.89063,0 -2.01563,0.54688 l -0.34375,-0.82813 q 0.53125,-0.28125 1.15625,-0.4375 0.64063,-0.17187 1.26563,-0.17187 1.28125,0 1.89062,0.5625 0.60938,0.5625 0.60938,1.8125 v 4.875 z m -2.4375,-0.76563 q 1,0 1.57813,-0.54687 0.57812,-0.5625 0.57812,-1.54688 V 208.695 l -1.07812,0.0312 q -1.28125,0.0469 -1.85938,0.40625 -0.5625,0.35937 -0.5625,1.10937 0,0.57813 0.34375,0.89063 0.35938,0.29687 1,0.29687 z m 7.77185,0 q 0.28125,0 0.54688,-0.0312 0.26562,-0.0469 0.42187,-0.0937 v 0.82813 q -0.17187,0.0781 -0.51562,0.125 -0.34375,0.0625 -0.60938,0.0625 -2.07812,0 -2.07812,-2.17188 v -4.25 h -1.01563 v -0.51562 l 1.01563,-0.45313 0.45312,-1.51562 h 0.625 V 205.07 h 2.07813 v 0.82812 h -2.07813 v 4.20313 q 0,0.64062 0.3125,0.98437 0.3125,0.34375 0.84375,0.34375 z m 5.40833,0.89063 q -1.57813,0 -2.5,-0.95313 -0.90625,-0.96875 -0.90625,-2.67187 0,-1.73438 0.84375,-2.75 0.85937,-1.01563 2.28125,-1.01563 1.34375,0 2.125,0.89063 0.78125,0.875 0.78125,2.32812 V 208.82 h -4.90625 q 0.0312,1.26562 0.625,1.92187 0.60937,0.64063 1.70312,0.64063 1.14063,0 2.26563,-0.48438 v 0.96875 q -0.5625,0.25 -1.07813,0.34375 -0.51562,0.10938 -1.23437,0.10938 z m -0.29688,-6.48438 q -0.85937,0 -1.375,0.5625 -0.5,0.5625 -0.59375,1.54688 h 3.73438 q 0,-1.01563 -0.45313,-1.5625 -0.45312,-0.54688 -1.3125,-0.54688 z m 10.58698,6.35938 -1.3125,-4.1875 q -0.125,-0.375 -0.45313,-1.73438 h -0.0625 q -0.25,1.125 -0.45312,1.75 l -1.34375,4.17188 h -1.25 l -1.9375,-7.125 h 1.125 q 0.6875,2.6875 1.04687,4.09375 0.35938,1.39062 0.42188,1.89062 h 0.0469 q 0.0781,-0.375 0.23438,-0.95312 0.15625,-0.59375 0.28125,-0.95313 l 1.29687,-4.07812 h 1.17188 l 1.28125,4.07812 q 0.35937,1.125 0.5,1.89063 h 0.0469 q 0.0312,-0.23438 0.14063,-0.71875 0.10937,-0.5 1.35937,-5.25 h 1.10938 l -1.96875,7.125 z m 8.9295,0 -0.21875,-1.01563 h -0.0469 q -0.53125,0.67188 -1.0625,0.90625 -0.53125,0.23438 -1.32813,0.23438 -1.0625,0 -1.67187,-0.54688 -0.59375,-0.54687 -0.59375,-1.54687 0,-2.15625 3.45312,-2.26563 l 1.21875,-0.0469 v -0.4375 q 0,-0.84375 -0.35937,-1.23438 -0.35938,-0.40625 -1.15625,-0.40625 -0.89063,0 -2.01563,0.54688 l -0.34375,-0.82813 q 0.53125,-0.28125 1.15625,-0.4375 0.64063,-0.17187 1.26563,-0.17187 1.28125,0 1.89062,0.5625 0.60938,0.5625 0.60938,1.8125 v 4.875 z m -2.4375,-0.76563 q 1,0 1.57813,-0.54687 0.57812,-0.5625 0.57812,-1.54688 V 208.695 l -1.07812,0.0312 q -1.28125,0.0469 -1.85938,0.40625 -0.5625,0.35937 -0.5625,1.10937 0,0.57813 0.34375,0.89063 0.35938,0.29687 1,0.29687 z m 4.33435,-6.35937 h 1.15625 l 1.5625,4.0625 q 0.51563,1.39062 0.64063,2.01562 h 0.0469 q 0.0781,-0.34375 0.34375,-1.14062 0.28125,-0.8125 1.78125,-4.9375 h 1.15625 l -3.0625,8.10937 q -0.45312,1.20313 -1.0625,1.70313 -0.60937,0.51562 -1.5,0.51562 -0.5,0 -0.96875,-0.10937 v -0.875 q 0.35938,0.0781 0.79688,0.0781 1.10937,0 1.59375,-1.25 l 0.39062,-1.01562 z"
       id="path1178"
       inkscape:connector-curvature="0"
       style="fill:#000000;fill-rule:nonzero" />
    <path
       d="m 557.7008,272.9344 h 150.51965 v 34.33072 H 557.7008 Z"
       id="path1180"
       inkscape:connector-curvature="0"
       style="fill:#000000;fill-opacity:0;fill-rule:evenodd" />
    <path
       d="m 571.91956,294.73438 -2.28125,-7.46875 h -0.0625 q 0.125,2.28125 0.125,3.04687 v 4.42188 h -1.79687 v -9.51563 h 2.73437 l 2.26563,7.28125 h 0.0312 l 2.39062,-7.28125 h 2.75 v 9.51563 h -1.89062 v -4.5 q 0,-0.32813 0.0156,-0.73438 0.0156,-0.42187 0.0937,-2.21875 h -0.0625 l -2.45312,7.45313 z m 11.39484,-6 q -0.625,0 -0.98438,0.40625 -0.35937,0.39062 -0.40625,1.125 h 2.78125 q -0.0156,-0.73438 -0.39062,-1.125 -0.35938,-0.40625 -1,-0.40625 z m 0.28125,6.125 q -1.75,0 -2.75,-0.96875 -0.98438,-0.96875 -0.98438,-2.73438 0,-1.84375 0.90625,-2.82812 0.92188,-1 2.54688,-1 1.53125,0 2.39062,0.875 0.85938,0.875 0.85938,2.42187 v 0.96875 h -4.6875 q 0.0312,0.84375 0.5,1.32813 0.46875,0.46875 1.3125,0.46875 0.65625,0 1.23437,-0.14063 0.59375,-0.14062 1.23438,-0.4375 v 1.53125 q -0.51563,0.26563 -1.10938,0.39063 -0.59375,0.125 -1.45312,0.125 z m 9.67138,-2.28125 q 0,1.10937 -0.78125,1.70312 -0.78125,0.57813 -2.32812,0.57813 -0.79688,0 -1.35938,-0.10938 -0.5625,-0.0937 -1.04687,-0.3125 v -1.64062 q 0.5625,0.26562 1.25,0.4375 0.6875,0.17187 1.21875,0.17187 1.07812,0 1.07812,-0.625 0,-0.23437 -0.14062,-0.375 -0.14063,-0.14062 -0.5,-0.32812 -0.34375,-0.1875 -0.9375,-0.4375 -0.82813,-0.34375 -1.23438,-0.64063 -0.39062,-0.3125 -0.57812,-0.6875 -0.17188,-0.39062 -0.17188,-0.95312 0,-0.98438 0.75,-1.5 0.76563,-0.53125 2.14063,-0.53125 1.3125,0 2.5625,0.5625 l -0.60938,1.4375 q -0.54687,-0.23438 -1.03125,-0.375 -0.46875,-0.15625 -0.95312,-0.15625 -0.875,0 -0.875,0.46875 0,0.26562 0.28125,0.46875 0.28125,0.1875 1.23437,0.57812 0.85938,0.34375 1.25,0.64063 0.39063,0.29687 0.57813,0.6875 0.20312,0.39062 0.20312,0.9375 z m 8.25,2.15625 h -1.98437 v -4.25 q 0,-1.57813 -1.17188,-1.57813 -0.82812,0 -1.20312,0.57813 -0.35938,0.5625 -0.35938,1.82812 v 3.42188 h -1.98437 v -10.125 h 1.98437 v 2.0625 q 0,0.23437 -0.0469,1.125 l -0.0469,0.59375 h 0.10938 q 0.65625,-1.0625 2.09375,-1.0625 1.29687,0 1.95312,0.6875 0.65625,0.6875 0.65625,1.96875 z m 9.56556,-7.40625 q 1.28125,0 2,1 0.73437,1 0.73437,2.75 0,1.8125 -0.75,2.79687 -0.75,0.98438 -2.04687,0.98438 -1.28125,0 -2,-0.92188 h -0.14063 l -0.32812,0.79688 h -1.51563 v -10.125 h 1.98438 v 2.35937 q 0,0.4375 -0.0781,1.4375 h 0.0781 q 0.6875,-1.07812 2.0625,-1.07812 z m -0.64063,1.57812 q -0.73437,0 -1.07812,0.45313 -0.32813,0.45312 -0.34375,1.5 v 0.21875 q 0,1.15625 0.34375,1.67187 0.34375,0.5 1.10937,0.5 0.60938,0 0.96875,-0.5625 0.35938,-0.5625 0.35938,-1.625 0,-1.07812 -0.375,-1.60937 -0.35938,-0.54688 -0.98438,-0.54688 z m 6.60608,2.17188 q 0,1.07812 0.34375,1.64062 0.35937,0.54688 1.15625,0.54688 0.79687,0 1.14062,-0.54688 0.35938,-0.54687 0.35938,-1.64062 0,-1.07813 -0.35938,-1.60938 -0.34375,-0.54687 -1.14062,-0.54687 -0.79688,0 -1.15625,0.54687 -0.34375,0.53125 -0.34375,1.60938 z m 5.03125,0 q 0,1.78125 -0.9375,2.78125 -0.9375,1 -2.60938,1 -1.04687,0 -1.85937,-0.45313 -0.79688,-0.45312 -1.23438,-1.3125 -0.42187,-0.85937 -0.42187,-2.01562 0,-1.78125 0.92187,-2.76563 0.9375,-0.98437 2.625,-0.98437 1.04688,0 1.84375,0.45312 0.8125,0.45313 1.23438,1.3125 0.4375,0.84375 0.4375,1.98438 z m 6.79883,3.65625 -0.28125,-0.9375 h -0.0937 q -0.32813,0.51562 -0.92188,0.79687 -0.57812,0.26563 -1.32812,0.26563 -1.28125,0 -1.9375,-0.6875 -0.64063,-0.6875 -0.64063,-1.96875 v -4.75 h 1.98438 v 4.25 q 0,0.79687 0.28125,1.1875 0.28125,0.39062 0.89062,0.39062 0.82813,0 1.20313,-0.54687 0.375,-0.5625 0.375,-1.85938 v -3.42187 h 1.98437 v 7.28125 z m 10.30652,0 h -1.98438 v -4.25 q 0,-0.78125 -0.28125,-1.17188 -0.26562,-0.40625 -0.89062,-0.40625 -0.82813,0 -1.20313,0.5625 -0.35937,0.54688 -0.35937,1.84375 v 3.42188 h -1.98438 v -7.28125 h 1.51563 l 0.26562,0.9375 h 0.10938 q 0.32812,-0.53125 0.90625,-0.79688 0.59375,-0.26562 1.32812,-0.26562 1.26563,0 1.92188,0.6875 0.65625,0.67187 0.65625,1.96875 z m 4.35333,0.125 q -1.28125,0 -2.01563,-0.98438 -0.73437,-1 -0.73437,-2.76562 0,-1.79688 0.75,-2.78125 0.75,-1 2.04687,-1 1.375,0 2.10938,1.0625 h 0.0625 q -0.15625,-0.8125 -0.15625,-1.45313 v -2.32812 h 2 v 10.125 h -1.53125 l -0.375,-0.9375 h -0.0937 q -0.67188,1.0625 -2.0625,1.0625 z m 0.70312,-1.57813 q 0.75,0 1.10938,-0.4375 0.35937,-0.45312 0.39062,-1.5 V 291.125 q 0,-1.17187 -0.35937,-1.67187 -0.35938,-0.51563 -1.17188,-0.51563 -0.67187,0 -1.04687,0.5625 -0.35938,0.5625 -0.35938,1.64063 0,1.0625 0.35938,1.60937 0.375,0.53125 1.07812,0.53125 z m 10.04358,1.45313 -0.375,-0.98438 h -0.0625 q -0.5,0.625 -1.03125,0.875 -0.53125,0.23438 -1.375,0.23438 -1.04687,0 -1.65625,-0.59375 -0.59375,-0.59375 -0.59375,-1.70313 0,-1.15625 0.8125,-1.70312 0.8125,-0.5625 2.4375,-0.60938 l 1.26563,-0.0469 v -0.3125 q 0,-1.10938 -1.14063,-1.10938 -0.85937,0 -2.04687,0.53125 l -0.65625,-1.34375 q 1.26562,-0.65625 2.78125,-0.65625 1.46875,0 2.25,0.64063 0.78125,0.625 0.78125,1.9375 v 4.84375 z m -0.57812,-3.375 -0.76563,0.0312 q -0.875,0.0312 -1.29687,0.3125 -0.42188,0.28125 -0.42188,0.875 0,0.82812 0.96875,0.82812 0.6875,0 1.09375,-0.39062 0.42188,-0.39063 0.42188,-1.04688 z m 8.08148,-4.03125 q 0.39062,0 0.65625,0.0469 l -0.14063,1.85938 q -0.25,-0.0625 -0.59375,-0.0625 -0.9375,0 -1.46875,0.5 -0.53125,0.48437 -0.53125,1.35937 v 3.70313 h -1.98437 v -7.28125 h 1.5 l 0.29687,1.23437 h 0.0937 q 0.34375,-0.625 0.90625,-0.98437 0.57813,-0.375 1.26563,-0.375 z m 0.94293,0.125 h 2.17188 l 1.375,4.09375 q 0.17187,0.53125 0.23437,1.26562 h 0.0469 q 0.0625,-0.67187 0.28125,-1.26562 l 1.34375,-4.09375 h 2.125 l -3.07813,8.21875 q -0.42187,1.125 -1.20312,1.6875 -0.78125,0.57812 -1.82813,0.57812 -0.51562,0 -1.01562,-0.10937 V 296.25 q 0.35937,0.0781 0.78125,0.0781 0.53125,0 0.92187,-0.32813 0.39063,-0.3125 0.60938,-0.95312 l 0.125,-0.35938 z"
       id="path1182"
       inkscape:connector-curvature="0"
       style="fill:#000000;fill-rule:nonzero" />
    <path
       d="m 115.4676,250.73775 42.99213,-10.04724"
       id="path1202"
       inkscape:connector-curvature="0"
       style="fill:#000000;fill-opacity:0;fill-rule:evenodd" />
    <path
       d="m 326.12335,147.1942 -53.63779,93.51181"
       id="path1208"
       inkscape:connector-curvature="0"
       style="fill:#000000;fill-opacity:0;fill-rule:evenodd" />
    <text
       xml:space="preserve"
       style="font-style:normal;font-weight:normal;font-size:14.66666698px;line-height:1.25;font-family:sans-serif;letter-spacing:0px;word-spacing:0px;fill:#f10000;fill-opacity:1;stroke:none"
       x="558.56335"
       y="191.16362"
       id="text4934"><tspan
         sodipodi:role="line"
         id="tspan4932"
         x="558.56335"
         y="191.16362"
         style="font-style:italic;font-variant:normal;font-weight:normal;font-stretch:normal;font-family:sans-serif;-inkscape-font-specification:'sans-serif Italic';fill:#f10000;fill-opacity:1;stroke:none;stroke-opacity:1">HTTP</tspan></text>
    <text
       xml:space="preserve"
       style="font-style:italic;font-variant:normal;font-weight:normal;font-stretch:normal;font-size:14.66666698px;line-height:1.25;font-family:sans-serif;-inkscape-font-specification:'sans-serif Italic';letter-spacing:0px;word-spacing:0px;fill:#000000;fill-opacity:1;stroke:none"
       x="621.56982"
       y="138.96426"
       id="text4938"><tspan
         sodipodi:role="line"
         id="tspan4936"
         x="621.56982"
         y="138.96426">HTTPS</tspan></text>
    <text
       xml:space="preserve"
       style="font-style:italic;font-variant:normal;font-weight:normal;font-stretch:normal;font-size:14.66666698px;line-height:1.25;font-family:sans-serif;-inkscape-font-specification:'sans-serif Italic';letter-spacing:0px;word-spacing:0px;fill:#000000;fill-opacity:1;stroke:none"
       x="767.88416"
       y="138.96426"
       id="text4938-3"><tspan
         sodipodi:role="line"
         id="tspan4936-0"
         x="767.88416"
         y="138.96426">HTTPS</tspan></text>
    <text
       xml:space="preserve"
       style="font-style:italic;font-variant:normal;font-weight:normal;font-stretch:normal;font-size:14.66666698000000046px;line-height:1.25;font-family:sans-serif;-inkscape-font-specification:'sans-serif Italic';letter-spacing:0px;word-spacing:0px;fill:#f10000;fill-opacity:1;stroke:none;stroke-linecap:square;stroke-miterlimit:10;stroke-opacity:1;"
       x="694.31226"
       y="126.40944"
       id="text4938-3-2"><tspan
         sodipodi:role="line"
         id="tspan4936-0-2"
         x="694.31226"
         y="126.40944"
         style="stroke:none;stroke-opacity:1;fill:#f10000;fill-opacity:1;">HTTP</tspan></text>
  </g>
</svg>
