<svg xmlns="http://www.w3.org/2000/svg" stroke-miterlimit="10" width="590.434" height="274.357" fill="none" stroke-linecap="square"><defs><marker orient="auto" refY="0" refX="0" id="c" overflow="visible"><path d="M10 0l4-4L0 0l14 4z" fill="#000" fill-rule="evenodd" stroke="#000" stroke-width="1.0664"/></marker><marker orient="auto" refY="0" refX="0" id="a" overflow="visible"><path d="M10 0l4-4L0 0l14 4z" fill="#000" fill-rule="evenodd" stroke="#000" stroke-width="1.0664"/></marker><marker orient="auto" refY="0" refX="0" id="d" overflow="visible"><path d="M-10 0l-4 4L0 0l-14-4z" fill="#000" fill-rule="evenodd" stroke="#000" stroke-width="1.0664"/></marker><marker orient="auto" refY="0" refX="0" id="b" overflow="visible"><path d="M-10 0l-4 4L0 0l-14-4z" fill="#000" fill-rule="evenodd" stroke="#000" stroke-width="1.0664"/></marker></defs><path d="M201.14 78.438h150.262v44.929H201.14z" fill="#cfe2f3" fill-rule="evenodd"/><path d="M20.408-29.489h604.943v452.454H20.408z" fill="#000" fill-opacity="0" fill-rule="evenodd"/><path d="M395.01 87.233c0-3.775 4.23-6.835 9.448-6.835h167.715c2.505 0 4.909.72 6.68 2.002 1.772 1.282 2.768 3.02 2.768 4.833v27.338c0 3.775-4.23 6.835-9.448 6.835H404.458c-5.218 0-9.448-3.06-9.448-6.835z" fill="#d9ead3" fill-rule="evenodd"/><path d="M394.656 87.233v0c0-3.775 4.246-6.835 9.484-6.835h168.35c2.516 0 4.928.72 6.706 2.002 1.78 1.282 2.778 3.02 2.778 4.833v27.338c0 3.775-4.246 6.835-9.484 6.835H404.14c-5.238 0-9.484-3.06-9.484-6.835z" fill-rule="evenodd" stroke="#000" stroke-linecap="butt" stroke-linejoin="round"/><path d="M134.416 18.519l112 142.992M375.416 185.511l97.008-94.992M375.416 185.511l97.008-42.488M375.416 188.475l97.008 10.016M375.416 185.511l97.008 65.512" fill="#000" fill-opacity="0" fill-rule="evenodd"/><path d="M201.14 78.755h150.262v44.295H201.14z" fill-rule="evenodd" stroke="#000" stroke-linecap="butt" stroke-linejoin="round"/><text style="line-height:1.25" x="315.317" y="221.967" font-weight="400" font-size="17.333" font-family="sans-serif" letter-spacing="0" word-spacing="0" fill="#000"/><path d="M201.14 172.433h150.262v42.1H201.14z" fill="#cfe2f3" fill-rule="evenodd"/><path d="M201.14 172.433h150.262v42.1H201.14z" fill-rule="evenodd" stroke="#000" stroke-linecap="butt" stroke-linejoin="round"/><text style="line-height:1.25" x="239.246" y="32.906" font-weight="400" font-size="26.667" font-family="sans-serif" letter-spacing="0" word-spacing="0" fill="#000"><tspan x="239.246" y="32.906">Rules</tspan></text><text style="line-height:1.25" x="428.391" y="32.906" font-weight="400" font-size="26.667" font-family="sans-serif" letter-spacing="0" word-spacing="0" fill="#000"><tspan x="428.391" y="32.906">Handlers</tspan></text><path d="M395.01 179.814c0-3.775 4.23-6.835 9.448-6.835h167.715c2.505 0 4.909.72 6.68 2.002 1.772 1.282 2.768 3.02 2.768 4.833v27.338c0 3.775-4.23 6.835-9.448 6.835H404.458c-5.218 0-9.448-3.06-9.448-6.835z" fill="#d9ead3" fill-rule="evenodd"/><path d="M394.656 179.814v0c0-3.775 4.246-6.835 9.484-6.835h168.35c2.516 0 4.928.72 6.706 2.002 1.78 1.282 2.778 3.02 2.778 4.833v27.338c0 3.775-4.246 6.835-9.484 6.835H404.14c-5.238 0-9.484-3.06-9.484-6.835z" fill-rule="evenodd" stroke="#000" stroke-linecap="butt" stroke-linejoin="round"/><text style="line-height:1.25" x="28.509" y="32.47" font-weight="400" font-size="26.667" font-family="sans-serif" letter-spacing="0" word-spacing="0" fill="#000"><tspan x="28.509" y="32.47">Instances</tspan></text><path d="M32.087 87.233c0-3.775 2.691-6.835 6.011-6.835h106.706c1.594 0 3.123.72 4.25 2.002 1.128 1.282 1.762 3.02 1.762 4.833v27.338c0 3.775-2.692 6.835-6.012 6.835H38.098c-3.32 0-6.011-3.06-6.011-6.835z" fill="#d9ead3" fill-rule="evenodd"/><path d="M31.733 87.233v0c0-3.775 2.708-6.835 6.047-6.835h107.342c1.604 0 3.142.72 4.276 2.002 1.134 1.282 1.771 3.02 1.771 4.833v27.338c0 3.775-2.707 6.835-6.047 6.835H37.78c-3.34 0-6.047-3.06-6.047-6.835z" fill-rule="evenodd" stroke="#000" stroke-linecap="butt" stroke-linejoin="round"/><text style="line-height:1.25" x="39.871" y="103.498" font-weight="400" font-size="14.667" font-family="sans-serif" letter-spacing="0" word-spacing="0" fill="#000"><tspan x="39.871" y="103.498">egress-access</tspan></text><path d="M153.817 101.106l46.774-.707" fill="#000" stroke="#000" stroke-width="1.002" stroke-linecap="butt" marker-start="url(#a)"/><path d="M351.912 100.902h41.719" fill="#000" stroke="#000" stroke-width="1.002" stroke-linecap="butt" marker-end="url(#b)"/><path d="M124.797 122.596l75.677 74.935h-.676" fill="#000" stroke="#000" stroke-width="1.002" stroke-linecap="butt" marker-start="url(#c)"/><path d="M351.204 193.483h41.013" fill="#000" stroke="#000" stroke-width="1.002" stroke-linecap="butt" marker-end="url(#d)"/><text style="line-height:1.25" x="222.302" y="104.999" font-weight="400" font-size="14.667" font-family="sans-serif" letter-spacing="0" word-spacing="0" fill="#000"><tspan x="222.302" y="104.999">handle-politics</tspan></text><text style="line-height:1.25" x="415.798" y="104.959" font-weight="400" font-size="14.667" font-family="sans-serif" letter-spacing="0" word-spacing="0" fill="#000"><tspan x="415.798" y="104.959">egress-error-logger</tspan></text><text style="line-height:1.25" x="207.406" y="198.686" font-weight="400" font-size="14.667" font-family="sans-serif" letter-spacing="0" word-spacing="0" fill="#000"><tspan x="207.406" y="198.686">handle-cnn-access</tspan></text><text style="line-height:1.25" x="409.955" y="197.283" font-weight="400" font-size="14.667" font-family="sans-serif" letter-spacing="0" word-spacing="0" fill="#000"><tspan x="409.955" y="197.283">egress-access-logger</tspan></text></svg>