<svg version="1.1" xmlns="http://www.w3.org/2000/svg" viewBox="0 0 1660 1345.6" width="3320" height="2691.2">
  <!-- svg-source:excalidraw -->
  
  <defs>
    <style class="style-fonts">
      @font-face {
        font-family: "Virgil";
        src: url("https://excalidraw.com/Virgil.woff2");
      }
      @font-face {
        font-family: "Cascadia";
        src: url("https://excalidraw.com/Cascadia.woff2");
      }
      @font-face {
        font-family: "Assistant";
        src: url("https://app.excalidraw.com//dist/excalidraw-assets/Assistant-Regular.woff2");
      }
    </style>
    
  </defs>
  <rect x="0" y="0" width="1660" height="1345.6" fill="#ffffff"></rect><g stroke-linecap="round" transform="translate(10 90) rotate(0 820 510)"><path d="M32 0 C628.51 1.47, 1223.84 2.41, 1608 0 M32 0 C435.96 0.87, 840.23 0.09, 1608 0 M1608 0 C1630.18 0.62, 1638.9 10.75, 1640 32 M1608 0 C1630.43 1.15, 1638.89 10.7, 1640 32 M1640 32 C1635.49 355.02, 1636.9 678.5, 1640 988 M1640 32 C1638.57 243.76, 1638.44 455.67, 1640 988 M1640 988 C1640.18 1007.56, 1627.94 1021.39, 1608 1020 M1640 988 C1642.12 1009.11, 1628.21 1019.57, 1608 1020 M1608 1020 C1198.52 1014.57, 788.81 1014.03, 32 1020 M1608 1020 C1009.57 1018.06, 410.25 1017.82, 32 1020 M32 1020 C9.71 1018.47, -0.39 1009.24, 0 988 M32 1020 C12.08 1018.25, -0.45 1008.61, 0 988 M0 988 C1.58 669.8, 1.12 349.85, 0 32 M0 988 C-0.88 716.04, -0.89 444.3, 0 32 M0 32 C-0.03 10.31, 10.15 -1.3, 32 0 M0 32 C1.82 10.71, 10.62 -0.65, 32 0" stroke="#1e1e1e" stroke-width="4" fill="none"></path></g><g transform="translate(630 102) rotate(0 215.1666717529297 20.700000000000003)"><text x="0" y="0" font-family="Helvetica, Segoe UI Emoji" font-size="36px" fill="#1971c2" text-anchor="start" style="white-space: pre;" direction="ltr" dominant-baseline="text-before-edge">Node Network Namespace</text></g><g stroke-linecap="round" transform="translate(130 170) rotate(0 680 50)"><path d="M3.56 9.72 C3.56 9.72, 3.56 9.72, 3.56 9.72 M3.56 9.72 C3.56 9.72, 3.56 9.72, 3.56 9.72 M0.54 37.57 C14.58 23.79, 25.49 7.78, 33.35 -0.16 M0.54 37.57 C8.73 28.22, 18.46 17.85, 33.35 -0.16 M0.81 61.65 C20.78 38.79, 41.46 15.18, 54.61 -0.23 M0.81 61.65 C19.56 39.26, 39.48 16.6, 54.61 -0.23 M1.73 84.98 C22.3 60.2, 41.29 36.98, 75.21 0.45 M1.73 84.98 C29.46 51.68, 58.67 19.9, 75.21 0.45 M11.84 97.74 C39.02 66.49, 68.85 32.56, 96.47 0.39 M11.84 97.74 C39.91 64.2, 69.35 30.11, 96.47 0.39 M30.48 100.69 C50.13 77.91, 70.32 52.77, 117.73 0.32 M30.48 100.69 C65.3 60.83, 99.85 20.9, 117.73 0.32 M51.74 100.62 C80.9 63.71, 115.14 30.55, 138.99 0.25 M51.74 100.62 C69.77 78.49, 87.93 59.17, 138.99 0.25 M73 100.55 C95.33 72.25, 119.72 47.01, 160.25 0.18 M73 100.55 C101.15 69.24, 126.68 36.89, 160.25 0.18 M94.26 100.49 C112.22 76.39, 132.92 56.9, 181.51 0.11 M94.26 100.49 C121.57 66.88, 152.06 33.7, 181.51 0.11 M115.52 100.42 C150.55 61.87, 185.15 21.99, 202.77 0.04 M115.52 100.42 C142.61 69.61, 169.93 36.24, 202.77 0.04 M136.78 100.35 C168.26 64.15, 202.73 23.97, 224.03 -0.03 M136.78 100.35 C167.84 66.55, 197.16 32.97, 224.03 -0.03 M158.04 100.28 C176.44 78.6, 193.99 56.01, 245.29 -0.1 M158.04 100.28 C180.07 73.51, 204.1 46.26, 245.29 -0.1 M179.3 100.21 C207.11 66.98, 235.42 33.08, 266.55 -0.17 M179.3 100.21 C211.24 64.68, 242.34 25.99, 266.55 -0.17 M200.56 100.14 C231.38 64.91, 261.84 25.71, 287.81 -0.24 M200.56 100.14 C219.8 76.69, 239.51 54.22, 287.81 -0.24 M221.82 100.07 C241.75 79.06, 259.74 56.75, 308.42 0.45 M221.82 100.07 C255.59 60.41, 288.99 22.89, 308.42 0.45 M242.42 100.76 C261.14 78.62, 277.52 57.76, 329.68 0.38 M242.42 100.76 C268.62 70.24, 294.18 40.55, 329.68 0.38 M263.68 100.69 C285.4 74.4, 308.87 49.87, 350.94 0.31 M263.68 100.69 C289.14 70.64, 316 39.28, 350.94 0.31 M284.94 100.62 C320.68 61.83, 354.93 22.76, 372.2 0.24 M284.94 100.62 C318.29 60.35, 352.08 20.68, 372.2 0.24 M306.2 100.55 C328.12 76.15, 351.94 50.7, 393.46 0.17 M306.2 100.55 C326.87 77.02, 347.75 54.05, 393.46 0.17 M327.46 100.48 C353.02 70.04, 381.84 39.34, 414.72 0.1 M327.46 100.48 C352.37 72.13, 374.73 44.87, 414.72 0.1 M348.72 100.41 C378.38 65.72, 406.11 34.19, 435.98 0.04 M348.72 100.41 C366.86 78.74, 386.85 57.3, 435.98 0.04 M369.98 100.34 C401.63 62.34, 432.94 29.5, 457.24 -0.03 M369.98 100.34 C397.85 68.46, 423.86 38.8, 457.24 -0.03 M391.24 100.27 C410.91 79.07, 430.57 55.29, 478.5 -0.1 M391.24 100.27 C420.46 64.12, 451.72 29.4, 478.5 -0.1 M412.5 100.21 C444.35 65.94, 471.46 33.74, 499.76 -0.17 M412.5 100.21 C438.56 71.57, 464.89 41.49, 499.76 -0.17 M433.76 100.14 C461.11 69.2, 489.17 36.9, 521.02 -0.24 M433.76 100.14 C454.18 79.29, 473.14 57.56, 521.02 -0.24 M455.02 100.07 C476.81 75.69, 498.92 48.5, 541.62 0.45 M455.02 100.07 C476.07 74.29, 498.72 48.57, 541.62 0.45 M475.63 100.75 C496.58 77.65, 515.02 55.89, 562.88 0.38 M475.63 100.75 C498.49 74.94, 520.47 48.07, 562.88 0.38 M496.89 100.68 C524.89 68.5, 551.7 37.53, 584.14 0.31 M496.89 100.68 C521.16 73.07, 545.27 44.31, 584.14 0.31 M518.15 100.62 C543.59 73.47, 567.81 43.56, 605.4 0.24 M518.15 100.62 C537.6 77.65, 556.54 56.23, 605.4 0.24 M539.41 100.55 C567 69.57, 594.04 38.39, 626.66 0.17 M539.41 100.55 C573.99 60.47, 607.35 22.12, 626.66 0.17 M560.67 100.48 C594.18 64.59, 624.97 27.4, 647.92 0.1 M560.67 100.48 C585.44 71.46, 611.63 41.43, 647.92 0.1 M581.93 100.41 C600.47 80.91, 617.73 58.74, 669.18 0.03 M581.93 100.41 C611.74 65.56, 643.69 29.11, 669.18 0.03 M603.19 100.34 C631.9 68.31, 657.62 39.45, 690.44 -0.04 M603.19 100.34 C635.25 62.4, 669.97 24.07, 690.44 -0.04 M624.45 100.27 C645.07 74.16, 669.5 48.14, 711.7 -0.11 M624.45 100.27 C649.41 73.72, 672.06 46.58, 711.7 -0.11 M645.71 100.2 C671.9 67.99, 698.17 38.79, 732.96 -0.18 M645.71 100.2 C665.64 77.67, 684.52 54.58, 732.96 -0.18 M666.97 100.13 C699.89 62.18, 736.45 19.62, 754.22 -0.24 M666.97 100.13 C695.19 68.67, 722.58 35.98, 754.22 -0.24 M688.23 100.06 C712.56 75.08, 734.85 48.13, 774.83 0.44 M688.23 100.06 C712.92 70.84, 737.67 42.54, 774.83 0.44 M708.83 100.75 C728.94 76.49, 750.92 49.15, 796.09 0.37 M708.83 100.75 C732.16 74.28, 755.83 46.96, 796.09 0.37 M730.09 100.68 C756.4 73.43, 776.99 46.79, 817.35 0.3 M730.09 100.68 C750.52 76.43, 772.66 50.8, 817.35 0.3 M751.35 100.61 C786.24 61.86, 821.03 23.76, 838.61 0.23 M751.35 100.61 C781.46 64.63, 812.51 28.98, 838.61 0.23 M772.61 100.54 C801.76 66.14, 834.85 29.78, 859.87 0.17 M772.61 100.54 C801.13 67.58, 829.34 34.7, 859.87 0.17 M793.87 100.47 C813.6 80.79, 833.19 56.78, 881.13 0.1 M793.87 100.47 C829.83 61.46, 864.49 21.21, 881.13 0.1 M815.13 100.4 C840.9 69.33, 866.73 41.54, 902.39 0.03 M815.13 100.4 C848.19 64.69, 878.96 27.05, 902.39 0.03 M836.39 100.33 C860.98 67.47, 889.19 39, 923.65 -0.04 M836.39 100.33 C861.79 71.6, 886.61 43.71, 923.65 -0.04 M857.65 100.27 C876.35 79.24, 894.05 57.89, 944.91 -0.11 M857.65 100.27 C885.08 67.08, 914.08 34.5, 944.91 -0.11 M878.91 100.2 C901.58 74.47, 926.02 48.04, 966.17 -0.18 M878.91 100.2 C903.27 72, 928.46 42.35, 966.17 -0.18 M900.17 100.13 C932.73 61.79, 960.63 29.4, 987.43 -0.25 M900.17 100.13 C918.07 78.58, 936.93 57.11, 987.43 -0.25 M921.43 100.06 C941.55 75.23, 960.31 52.56, 1008.03 0.44 M921.43 100.06 C952.25 65.37, 981.72 31.02, 1008.03 0.44 M942.04 100.74 C974.56 64.2, 1007.99 27.35, 1029.29 0.37 M942.04 100.74 C971.73 66.62, 1003.08 31.23, 1029.29 0.37 M963.3 100.68 C984.04 76, 1004.1 53.54, 1050.55 0.3 M963.3 100.68 C981.94 80.46, 999.26 60.49, 1050.55 0.3 M984.56 100.61 C1001.84 77.5, 1022.9 55.87, 1071.81 0.23 M984.56 100.61 C1007.6 73.7, 1032.07 45.42, 1071.81 0.23 M1005.82 100.54 C1024.02 76.58, 1046.82 56.71, 1093.08 0.16 M1005.82 100.54 C1025.7 78.45, 1046.2 55.14, 1093.08 0.16 M1027.08 100.47 C1044.43 80.95, 1063.01 62.33, 1114.34 0.09 M1027.08 100.47 C1049.18 74.77, 1071.28 47.27, 1114.34 0.09 M1048.34 100.4 C1083.05 58.91, 1117.78 21.34, 1135.6 0.02 M1048.34 100.4 C1067.93 80.21, 1087.79 58.08, 1135.6 0.02 M1069.6 100.33 C1086.55 79.4, 1104.32 57.01, 1156.86 -0.05 M1069.6 100.33 C1088.53 77.21, 1108.59 55.77, 1156.86 -0.05 M1090.86 100.26 C1119.62 68.54, 1145.22 36.84, 1178.12 -0.11 M1090.86 100.26 C1108.1 77.92, 1126.67 57.72, 1178.12 -0.11 M1112.12 100.19 C1130.81 77.47, 1152.76 53.09, 1199.38 -0.18 M1112.12 100.19 C1144.69 61.23, 1177.83 25.48, 1199.38 -0.18 M1133.38 100.12 C1164.25 62.96, 1198.17 28.73, 1219.98 0.5 M1133.38 100.12 C1153.97 75.19, 1176.14 49.93, 1219.98 0.5 M1154.64 100.05 C1176.24 72.48, 1201.43 45.79, 1241.24 0.43 M1154.64 100.05 C1186.93 62.11, 1219.3 25.34, 1241.24 0.43 M1175.24 100.74 C1202.18 68.72, 1227.55 40.83, 1262.5 0.36 M1175.24 100.74 C1193 80.04, 1213.54 56.17, 1262.5 0.36 M1196.5 100.67 C1228.28 61.94, 1262.09 24.84, 1283.76 0.3 M1196.5 100.67 C1213.85 79.55, 1232.58 60.33, 1283.76 0.3 M1217.76 100.6 C1246.58 67.08, 1276.86 37.35, 1305.02 0.23 M1217.76 100.6 C1237.6 79.33, 1256.07 57.59, 1305.02 0.23 M1239.03 100.53 C1261.01 73.94, 1286.07 49.07, 1326.28 0.16 M1239.03 100.53 C1262.25 73.59, 1285.73 46.15, 1326.28 0.16 M1260.29 100.46 C1292.21 64.05, 1324.43 25.25, 1345.57 2.35 M1260.29 100.46 C1293.21 61.66, 1327.07 21.08, 1345.57 2.35 M1281.55 100.4 C1306.59 72.73, 1328.06 47.39, 1357.65 12.85 M1281.55 100.4 C1306.18 72.65, 1329.32 46.76, 1357.65 12.85 M1302.81 100.33 C1316.75 85.15, 1332.42 68.84, 1359.88 34.67 M1302.81 100.33 C1320.13 80.14, 1336.86 60.91, 1359.88 34.67 M1324.07 100.26 C1331.92 87.99, 1343.52 76.12, 1360.15 58.75 M1324.07 100.26 C1332.87 88.81, 1342.75 77.33, 1360.15 58.75 M1346.64 98.68 C1350.86 94.62, 1354.77 88.66, 1359.1 84.34 M1346.64 98.68 C1349.76 93.92, 1354.9 88.81, 1359.1 84.34" stroke="#a5d8ff" stroke-width="2" fill="none"></path><path d="M25 0 C348.87 -0.12, 672.5 0.72, 1335 0 M25 0 C420.07 1.67, 815.59 1.66, 1335 0 M1335 0 C1350.96 1.96, 1358.41 9.7, 1360 25 M1335 0 C1352.83 0.84, 1360.04 6.34, 1360 25 M1360 25 C1361.58 37.71, 1359.44 46.7, 1360 75 M1360 25 C1358.92 43.33, 1358.97 61.45, 1360 75 M1360 75 C1359.29 92.22, 1350.17 98.56, 1335 100 M1360 75 C1358.92 91.01, 1353.05 99.61, 1335 100 M1335 100 C832.7 95.7, 329.57 96.71, 25 100 M1335 100 C977.92 100.39, 621.41 100.35, 25 100 M25 100 C7.14 100.21, 1.8 89.84, 0 75 M25 100 C10.09 101.05, 1.1 90.27, 0 75 M0 75 C-0.63 59.16, -0.94 44.42, 0 25 M0 75 C-0.46 54.79, 0.14 35.64, 0 25 M0 25 C1.08 9.75, 7.65 -0.22, 25 0 M0 25 C-1.17 9.52, 7.46 -1.21, 25 0" stroke="#1971c2" stroke-width="4" fill="none"></path></g><g stroke-linecap="round" transform="translate(130 670) rotate(0 170 160)"><path d="M7.86 8.16 C7.86 8.16, 7.86 8.16, 7.86 8.16 M7.86 8.16 C7.86 8.16, 7.86 8.16, 7.86 8.16 M8.78 31.49 C16.28 22.24, 26.44 11.77, 34.37 2.05 M8.78 31.49 C16.93 21.69, 23.52 12.91, 34.37 2.05 M8.39 56.32 C20.47 40.86, 37.05 24.57, 55.63 1.98 M8.39 56.32 C26.06 36.54, 44.33 16.23, 55.63 1.98 M8.66 80.4 C26.14 61.69, 42.24 43.29, 76.89 1.91 M8.66 80.4 C27.67 59.13, 44.08 39.12, 76.89 1.91 M8.27 105.24 C33.06 79.28, 53.95 51.52, 98.15 1.85 M8.27 105.24 C27.85 82.72, 47.7 58.85, 98.15 1.85 M8.54 129.32 C44.66 86.09, 80.15 44.77, 119.41 1.78 M8.54 129.32 C52.88 79.57, 96.41 29.35, 119.41 1.78 M8.15 154.16 C52.54 102.6, 96.1 53.71, 140.67 1.71 M8.15 154.16 C51.05 105.69, 90.8 59.38, 140.67 1.71 M8.41 178.24 C66.12 111.18, 121.16 43.88, 161.28 2.39 M8.41 178.24 C58.5 119.09, 110.05 59.01, 161.28 2.39 M8.68 202.32 C55.64 147.37, 102.38 94.29, 182.54 2.32 M8.68 202.32 C63.09 138.43, 119.36 74.42, 182.54 2.32 M8.29 227.16 C79.94 141.28, 153.51 57.18, 203.8 2.26 M8.29 227.16 C68.23 157.79, 128.41 89.01, 203.8 2.26 M8.56 251.24 C76.78 172.26, 146.84 91.37, 225.06 2.19 M8.56 251.24 C91.11 157.06, 172.77 63.05, 225.06 2.19 M8.17 276.08 C66.86 209.55, 124.93 144.55, 246.32 2.12 M8.17 276.08 C92.87 176.76, 179.03 77.72, 246.32 2.12 M4.5 304.69 C84.72 214.7, 163.81 122.1, 267.58 2.05 M4.5 304.69 C68.62 230.67, 133.42 155.82, 267.58 2.05 M14.6 317.45 C102.79 217.96, 190.41 116.17, 288.84 1.98 M14.6 317.45 C99.8 216.74, 186.08 118.52, 288.84 1.98 M32.58 321.15 C116.86 222.48, 203.05 124.74, 310.1 1.91 M32.58 321.15 C133.7 206.93, 234.05 91.98, 310.1 1.91 M53.84 321.08 C128.85 232.5, 207.54 143.92, 327.42 6.37 M53.84 321.08 C110.91 252.24, 170.37 183.58, 327.42 6.37 M75.1 321.01 C131.52 257.97, 185.65 195.09, 338.18 18.38 M75.1 321.01 C169.73 211.07, 266.23 100.14, 338.18 18.38 M96.36 320.95 C151.01 255.27, 207.66 191.43, 344.35 35.67 M96.36 320.95 C165.25 242.79, 233.11 163.96, 344.35 35.67 M117.62 320.88 C200.39 227.43, 281.42 131.52, 344.62 59.75 M117.62 320.88 C165.11 266.8, 211.79 212.52, 344.62 59.75 M138.88 320.81 C216.9 232.07, 292.91 143.74, 344.23 84.58 M138.88 320.81 C209.84 240.56, 280.34 159.38, 344.23 84.58 M160.14 320.74 C211.14 259.88, 264 200.07, 344.5 108.67 M160.14 320.74 C199.73 274.5, 238.99 228.98, 344.5 108.67 M181.4 320.67 C242.77 249.58, 304.76 176.81, 344.11 133.5 M181.4 320.67 C216.95 279.34, 252.12 237.47, 344.11 133.5 M202.67 320.6 C256.57 259.5, 308.35 195.02, 344.37 157.58 M202.67 320.6 C236.12 281.07, 271.05 242.55, 344.37 157.58 M223.93 320.53 C249.37 290.83, 275.08 261.22, 343.98 182.42 M223.93 320.53 C267.59 268.95, 312.67 219.83, 343.98 182.42 M245.19 320.46 C268.58 293.53, 290.86 268.84, 344.25 206.5 M245.19 320.46 C276.9 285.12, 307.6 248.98, 344.25 206.5 M265.79 321.15 C290.97 293.09, 313.48 267.84, 344.52 230.58 M265.79 321.15 C295.71 288.55, 324.01 255.77, 344.52 230.58 M287.05 321.08 C302.22 302.23, 320.57 285.67, 344.13 255.42 M287.05 321.08 C308.87 297.42, 330.41 272.61, 344.13 255.42 M308.97 320.26 C320.69 308.05, 332.14 291.37, 344.39 279.5 M308.97 320.26 C319.15 308.65, 328.99 297.7, 344.39 279.5" stroke="#e9ecef" stroke-width="2" fill="none"></path><path d="M32 0 C127.79 1.11, 225.07 2.17, 308 0 M32 0 C133.58 0.93, 236.7 -0.05, 308 0 M308 0 C331.21 -1.26, 339.5 9.06, 340 32 M308 0 C331.52 -1.15, 339.15 11.68, 340 32 M340 32 C338.03 120.19, 337.24 210.74, 340 288 M340 32 C342.57 104.63, 342.63 178.51, 340 288 M340 288 C340.28 309.9, 328.76 321.29, 308 320 M340 288 C340.45 310.53, 327.66 321.01, 308 320 M308 320 C237.96 320.41, 165.65 318.95, 32 320 M308 320 C234.42 322.48, 160.37 321.69, 32 320 M32 320 C11.61 321.17, 0.84 311.31, 0 288 M32 320 C8.67 319.09, 1.49 309.45, 0 288 M0 288 C-0.83 201.76, -0.08 116.39, 0 32 M0 288 C1.48 197.86, 1.86 107.55, 0 32 M0 32 C0.45 12.66, 9.97 -0.41, 32 0 M0 32 C-0.91 10.84, 9 0.61, 32 0" stroke="#1e1e1e" stroke-width="4" fill="none"></path></g><g transform="translate(227.93333435058594 767.9) rotate(0 72.06666564941406 62.099999999999966)"><text x="72.06666564941406" y="0" font-family="Helvetica, Segoe UI Emoji" font-size="36px" fill="#1e1e1e" text-anchor="middle" style="white-space: pre;" direction="ltr" dominant-baseline="text-before-edge">Ambient</text><text x="72.06666564941406" y="41.4" font-family="Helvetica, Segoe UI Emoji" font-size="36px" fill="#1e1e1e" text-anchor="middle" style="white-space: pre;" direction="ltr" dominant-baseline="text-before-edge">workload</text><text x="72.06666564941406" y="82.8" font-family="Helvetica, Segoe UI Emoji" font-size="36px" fill="#1e1e1e" text-anchor="middle" style="white-space: pre;" direction="ltr" dominant-baseline="text-before-edge">pod</text></g><g stroke-linecap="round" transform="translate(1210 670) rotate(0 170 80)"><path d="M7.86 8.16 C7.86 8.16, 7.86 8.16, 7.86 8.16 M7.86 8.16 C7.86 8.16, 7.86 8.16, 7.86 8.16 M0.91 40.54 C11.18 28.17, 22.39 16.58, 36.34 -0.21 M0.91 40.54 C8.77 31.07, 15.35 23.02, 36.34 -0.21 M1.18 64.62 C21.49 40.92, 43.11 14.27, 57.6 -0.28 M1.18 64.62 C13.72 50.28, 24.96 35.65, 57.6 -0.28 M1.44 88.71 C31.22 56.48, 58.24 19.77, 78.2 0.41 M1.44 88.71 C19.27 66.86, 38.64 46.49, 78.2 0.41 M1.05 113.54 C21.95 89.38, 42.87 65.27, 99.46 0.34 M1.05 113.54 C36.68 71.18, 73.87 31.13, 99.46 0.34 M1.32 137.62 C29.13 105.38, 55.99 75.42, 120.72 0.27 M1.32 137.62 C39.41 95.13, 76.49 51.65, 120.72 0.27 M9.46 152.65 C50.76 106.04, 89.53 62, 141.98 0.2 M9.46 152.65 C59.03 97.8, 107.03 42.4, 141.98 0.2 M24.82 159.37 C62.9 113.91, 103.73 70.95, 163.24 0.13 M24.82 159.37 C77 101.75, 128.54 42.43, 163.24 0.13 M45.42 160.06 C92.6 106.31, 140.35 48.31, 184.5 0.06 M45.42 160.06 C84.46 115.03, 122.62 71.45, 184.5 0.06 M66.68 159.99 C116.74 99.88, 170.06 39.34, 205.76 -0.01 M66.68 159.99 C114.56 104, 162.21 50.66, 205.76 -0.01 M87.94 159.92 C133.96 109.84, 176.23 57.09, 227.02 -0.08 M87.94 159.92 C128.05 113.85, 167.23 68.63, 227.02 -0.08 M109.2 159.85 C139.83 125.67, 168.66 91.16, 248.28 -0.15 M109.2 159.85 C145.07 117.35, 182.36 74.89, 248.28 -0.15 M130.46 159.78 C174 109.86, 215.18 60.94, 269.54 -0.22 M130.46 159.78 C165.21 121.5, 198.63 83.33, 269.54 -0.22 M151.06 160.47 C191.56 112.13, 232.32 67.41, 290.8 -0.28 M151.06 160.47 C203.83 101.68, 254.8 42.99, 290.8 -0.28 M172.32 160.4 C202.44 126.44, 233.46 91.94, 311.41 0.4 M172.32 160.4 C219.55 106.49, 266.7 53.68, 311.41 0.4 M193.58 160.33 C241.39 107.97, 287.55 54.72, 328.08 5.61 M193.58 160.33 C244.94 100.63, 296.28 40.13, 328.08 5.61 M214.84 160.26 C252.69 120.61, 285.69 82.31, 338.18 18.38 M214.84 160.26 C242.27 129.79, 268.35 99.26, 338.18 18.38 M236.1 160.19 C270.28 119.29, 307.86 80.16, 340.42 40.19 M236.1 160.19 C261.31 131.25, 284.48 103.8, 340.42 40.19 M257.36 160.12 C286.14 125.08, 319.35 90.25, 340.68 64.28 M257.36 160.12 C278.95 135.22, 301.3 109.61, 340.68 64.28 M278.63 160.05 C294.73 141.42, 310.47 121.23, 340.29 89.11 M278.63 160.05 C299.86 135.41, 321.69 111.18, 340.29 89.11 M299.89 159.99 C311.49 148.77, 322.09 135.2, 340.56 113.19 M299.89 159.99 C313.07 144.95, 325.08 131.91, 340.56 113.19 M322.46 158.41 C325.89 150.6, 334.8 144.02, 338.2 140.29 M322.46 158.41 C328.2 151.41, 334.06 145.35, 338.2 140.29" stroke="#a5d8ff" stroke-width="2" fill="none"></path><path d="M32 0 C115.12 -1.58, 198.42 -2.21, 308 0 M32 0 C102.74 -1.59, 173.72 -1.1, 308 0 M308 0 C331.09 -0.41, 338.15 11.34, 340 32 M308 0 C330.2 0.14, 340.44 10.94, 340 32 M340 32 C337.67 59.07, 337.84 82.85, 340 128 M340 32 C340.95 58.44, 341.1 85.31, 340 128 M340 128 C338.68 149.44, 331.22 160.03, 308 160 M340 128 C338.07 151.61, 330.94 158.32, 308 160 M308 160 C213.28 157.23, 121.03 158.49, 32 160 M308 160 C224.91 161.7, 140.43 160.65, 32 160 M32 160 C11.57 159.43, 0.73 147.83, 0 128 M32 160 C12.11 162, 0.06 148.75, 0 128 M0 128 C-0.18 91.63, 1.67 56.31, 0 32 M0 128 C-0.85 96.87, -0.2 65.81, 0 32 M0 32 C-1.05 9.01, 8.78 -0.42, 32 0 M0 32 C1.23 12.38, 11.98 1.83, 32 0" stroke="#1971c2" stroke-width="4" fill="none"></path></g><g transform="translate(1319.933334350586 708.6) rotate(0 60.06666564941406 41.400000000000006)"><text x="60.06666564941406" y="0" font-family="Helvetica, Segoe UI Emoji" font-size="36px" fill="#1e1e1e" text-anchor="middle" style="white-space: pre;" direction="ltr" dominant-baseline="text-before-edge">Ztunnel</text><text x="60.06666564941406" y="41.4" font-family="Helvetica, Segoe UI Emoji" font-size="36px" fill="#1e1e1e" text-anchor="middle" style="white-space: pre;" direction="ltr" dominant-baseline="text-before-edge">pod</text></g><g stroke-linecap="round"><g transform="translate(252.25700083003244 270.24368466915564) rotate(0 -41.29716800936899 199.05555555555554)"><path d="M-0.55 0.53 C-14.32 66.91, -68.21 330.9, -81.75 397.21 M1.36 -0.24 C-12.56 66.37, -68.34 331.6, -82.26 398.28" stroke="#1e1e1e" stroke-width="4" fill="none"></path></g><g transform="translate(252.25700083003244 270.24368466915564) rotate(0 -41.29716800936899 199.05555555555554)"><path d="M-85.81 373.53 C-83.84 384.12, -84.9 393.25, -82.26 398.28 M-85.81 373.53 C-83.51 381.49, -83.15 389.49, -82.26 398.28" stroke="#1e1e1e" stroke-width="4" fill="none"></path></g><g transform="translate(252.25700083003244 270.24368466915564) rotate(0 -41.29716800936899 199.05555555555554)"><path d="M-69.07 377.04 C-73.28 386.25, -80.54 394.08, -82.26 398.28 M-69.07 377.04 C-72.2 383.78, -77.25 390.65, -82.26 398.28" stroke="#1e1e1e" stroke-width="4" fill="none"></path></g></g><mask></mask><g transform="translate(246.0333251953125 410) rotate(0 282.26666259765625 41.400000000000006)"><text x="282.26666259765625" y="0" font-family="Helvetica, Segoe UI Emoji" font-size="36px" fill="#1e1e1e" text-anchor="middle" style="white-space: pre;" direction="ltr" dominant-baseline="text-before-edge">1. Jump into workload network </text><text x="282.26666259765625" y="41.4" font-family="Helvetica, Segoe UI Emoji" font-size="36px" fill="#1e1e1e" text-anchor="middle" style="white-space: pre;" direction="ltr" dominant-baseline="text-before-edge">namespace and write iptables rules</text></g><g stroke-linecap="round"><g transform="translate(1170.3229957591743 270.928291099146) rotate(0 89.83850212041284 199.535854450427)"><path d="M-0.32 -0.93 C29.74 65.68, 150.49 333.07, 180.54 399.58 M1.71 1.2 C31.68 67.45, 150.43 331.43, 180.04 397.72" stroke="#1e1e1e" stroke-width="4" fill="none"></path></g><g transform="translate(1170.3229957591743 270.928291099146) rotate(0 89.83850212041284 199.535854450427)"><path d="M162.62 379.78 C166.51 386.88, 174.35 391.53, 180.04 397.72 M162.62 379.78 C165.45 384.6, 170.67 386.86, 180.04 397.72" stroke="#1e1e1e" stroke-width="4" fill="none"></path></g><g transform="translate(1170.3229957591743 270.928291099146) rotate(0 89.83850212041284 199.535854450427)"><path d="M178.23 372.79 C177.23 382.02, 180.19 388.87, 180.04 397.72 M178.23 372.79 C177.57 379.12, 179.37 382.91, 180.04 397.72" stroke="#1e1e1e" stroke-width="4" fill="none"></path></g></g><mask></mask><g transform="translate(958.2750015258789 350) rotate(0 121.0999984741211 82.8)"><text x="121.0999984741211" y="0" font-family="Helvetica, Segoe UI Emoji" font-size="36px" fill="#1e1e1e" text-anchor="middle" style="white-space: pre;" direction="ltr" dominant-baseline="text-before-edge">2. Notify</text><text x="121.0999984741211" y="41.4" font-family="Helvetica, Segoe UI Emoji" font-size="36px" fill="#1e1e1e" text-anchor="middle" style="white-space: pre;" direction="ltr" dominant-baseline="text-before-edge">ztunnel</text><text x="121.0999984741211" y="82.8" font-family="Helvetica, Segoe UI Emoji" font-size="36px" fill="#1e1e1e" text-anchor="middle" style="white-space: pre;" direction="ltr" dominant-baseline="text-before-edge">to create </text><text x="121.0999984741211" y="124.19999999999999" font-family="Helvetica, Segoe UI Emoji" font-size="36px" fill="#1e1e1e" text-anchor="middle" style="white-space: pre;" direction="ltr" dominant-baseline="text-before-edge">workload proxy</text></g><g stroke-linecap="round"><g transform="translate(1270 830) rotate(0 -399.05555555555554 100)"><path d="M-0.46 -0.88 C-73.83 32.35, -307.73 189.34, -440.54 200.28 C-573.34 211.23, -737.71 87.2, -797.28 64.78 M1.5 1.27 C-72.05 34.05, -308.58 187.59, -441.77 198.31 C-574.96 209.02, -738.3 87.47, -797.61 65.55" stroke="#1e1e1e" stroke-width="4" fill="none"></path></g><g transform="translate(1270 830) rotate(0 -399.05555555555554 100)"><path d="M-772.82 68.78 C-781.15 66.9, -786.04 68.28, -797.61 65.55 M-772.82 68.78 C-777.77 67.09, -783.63 67.68, -797.61 65.55" stroke="#1e1e1e" stroke-width="4" fill="none"></path></g><g transform="translate(1270 830) rotate(0 -399.05555555555554 100)"><path d="M-780.7 83.96 C-786.97 77.92, -789.69 75.13, -797.61 65.55 M-780.7 83.96 C-783.98 79.02, -788.15 76.36, -797.61 65.55" stroke="#1e1e1e" stroke-width="4" fill="none"></path></g></g><mask></mask><g transform="translate(577.8500061035156 810) rotate(0 238.21665954589844 62.10000000000002)"><text x="238.21665954589844" y="0" font-family="Helvetica, Segoe UI Emoji" font-size="36px" fill="#1e1e1e" text-anchor="middle" style="white-space: pre;" direction="ltr" dominant-baseline="text-before-edge">3. Ztunnel creates</text><text x="238.21665954589844" y="41.4" font-family="Helvetica, Segoe UI Emoji" font-size="36px" fill="#1e1e1e" text-anchor="middle" style="white-space: pre;" direction="ltr" dominant-baseline="text-before-edge">listening sockets inside </text><text x="238.21665954589844" y="82.8" font-family="Helvetica, Segoe UI Emoji" font-size="36px" fill="#1e1e1e" text-anchor="middle" style="white-space: pre;" direction="ltr" dominant-baseline="text-before-edge">workload network namespace</text></g><g transform="translate(658.2166595458984 205) rotate(0 97.08333587646484 20.7)"><text x="97.08333587646484" y="0" font-family="Helvetica, Segoe UI Emoji" font-size="36px" fill="#1e1e1e" text-anchor="middle" style="white-space: pre;" direction="ltr" dominant-baseline="text-before-edge">Istio-cni pod</text></g><g transform="translate(227.22503662109375 1170) rotate(0 540.5166625976562 82.79999999999995)"><text x="0" y="0" font-family="Helvetica, Segoe UI Emoji" font-size="36px" fill="#1e1e1e" text-anchor="start" style="white-space: pre;" direction="ltr" dominant-baseline="text-before-edge">Responsibilities:</text><text x="0" y="41.4" font-family="Helvetica, Segoe UI Emoji" font-size="36px" fill="#1e1e1e" text-anchor="start" style="white-space: pre;" direction="ltr" dominant-baseline="text-before-edge">- The istio-cni node agent watches for new pods labeled for ambient</text><text x="0" y="82.8" font-family="Helvetica, Segoe UI Emoji" font-size="36px" fill="#1e1e1e" text-anchor="start" style="white-space: pre;" direction="ltr" dominant-baseline="text-before-edge">- The istio-cni sets up in-Pod iptables redirection rules</text><text x="0" y="124.19999999999999" font-family="Helvetica, Segoe UI Emoji" font-size="36px" fill="#1e1e1e" text-anchor="start" style="white-space: pre;" direction="ltr" dominant-baseline="text-before-edge">- Ztunnel owns the sockets and subscribes to istio-cni agent events</text></g><g transform="translate(482.88330078125 10) rotate(0 303.20001220703125 20.69999999999999)"><text x="303.20001220703125" y="0" font-family="Helvetica, Segoe UI Emoji" font-size="36px" fill="#1e1e1e" text-anchor="middle" style="white-space: pre;" direction="ltr" dominant-baseline="text-before-edge">Istio CNI Ambient Pod Configure Flow</text></g></svg>