<svg id="a8c8e003-d999-4b36-b743-3bdf82e2cebe" data-name="Layer 1" xmlns="http://www.w3.org/2000/svg" viewBox="0 0 875.2 610.04"><defs><style>.ab983939-8c26-4509-8613-7855e78d1ee0,.afa2372d-472c-4406-bb90-65b3e30d053b,.b50c7fec-e692-430d-b7d5-5208c3ccb4a1{font-size:24px;}.afa2372d-472c-4406-bb90-65b3e30d053b{fill:#666;}.a3e7c835-caea-4833-8999-c74998730c28,.ab983939-8c26-4509-8613-7855e78d1ee0,.ad3395e9-e81f-4c2e-b0d9-9d5d638a4934,.afa2372d-472c-4406-bb90-65b3e30d053b,.b50c7fec-e692-430d-b7d5-5208c3ccb4a1,.e009e792-1a54-41e7-8788-2a927761b599{font-family:Roboto-Black, Roboto;font-weight:800;}.a87cc174-fa12-425b-9052-f76bce2d8b33,.a8a3be29-29ad-4048-a787-d3dd0783758d,.afcd50dc-54ac-4d56-aae4-5bba5cddcc25,.f22deda6-6eea-4af7-a62c-a46a5307870b{fill:none;stroke-miterlimit:10;stroke-width:4px;}.afcd50dc-54ac-4d56-aae4-5bba5cddcc25{stroke:#666;}.aa808010-109d-416d-b78e-6960f3933a97{letter-spacing:0em;}.ad3395e9-e81f-4c2e-b0d9-9d5d638a4934,.b50c7fec-e692-430d-b7d5-5208c3ccb4a1{fill:#369;}.ba1f0372-2deb-4acf-9146-b9250b3279db{letter-spacing:0em;}.a87cc174-fa12-425b-9052-f76bce2d8b33{stroke:#369;}.a3e7c835-caea-4833-8999-c74998730c28,.ad3395e9-e81f-4c2e-b0d9-9d5d638a4934,.e009e792-1a54-41e7-8788-2a927761b599{font-size:21px;}.a0c696d4-4611-4664-81a0-ba8fc321f1fe{letter-spacing:-0.01em;}.fc82e5b1-53ee-41b2-89ad-8f2b38d92b41{letter-spacing:0em;}.ac9d99cb-ce5b-4e03-b990-628219248cf8{letter-spacing:0em;}.a9b55c9a-b07b-47cf-a3d5-bd33745030f3{letter-spacing:-0.01em;}.a06ec8a9-c015-4523-9f06-18ca163dfc10,.a3e7c835-caea-4833-8999-c74998730c28,.ab983939-8c26-4509-8613-7855e78d1ee0{fill:#090;}.a8a3be29-29ad-4048-a787-d3dd0783758d{stroke:#090;}.f22deda6-6eea-4af7-a62c-a46a5307870b{stroke:#f60;}.e009e792-1a54-41e7-8788-2a927761b599,.feee2525-358e-4132-a80a-624c000e33ef{fill:#f60;}</style></defs><title>review-process</title><text class="afa2372d-472c-4406-bb90-65b3e30d053b" transform="translate(106.58 51.53)">Submit PR</text><rect class="afcd50dc-54ac-4d56-aae4-5bba5cddcc25" x="76.12" y="2" width="175.75" height="85.04" rx="8.5"/><text class="afa2372d-472c-4406-bb90-65b3e30d053b" transform="translate(124.55 572.53)"><tspan class="aa808010-109d-416d-b78e-6960f3933a97">E</tspan><tspan x="13.31" y="0">dit PR</tspan></text><rect class="afcd50dc-54ac-4d56-aae4-5bba5cddcc25" x="76.12" y="523" width="175.75" height="85.04" rx="8.5"/><text class="b50c7fec-e692-430d-b7d5-5208c3ccb4a1" transform="translate(406.47 225.03)">C<tspan class="ba1f0372-2deb-4acf-9146-b9250b3279db" x="15.75" y="0">r</tspan><tspan x="24.87" y="0">eate Issue</tspan></text><rect class="a87cc174-fa12-425b-9052-f76bce2d8b33" x="386.79" y="175.5" width="175.75" height="85.04" rx="8.5"/><polygon class="a87cc174-fa12-425b-9052-f76bce2d8b33" points="251.87 391.52 164 451.69 76.12 391.52 164 331.35 251.87 391.52"/><text class="ad3395e9-e81f-4c2e-b0d9-9d5d638a4934" transform="translate(134.38 372.46)">Meets<tspan class="ba1f0372-2deb-4acf-9146-b9250b3279db" x="-10.41" y="25.2">r</tspan><tspan x="-2.43" y="25.2">equi</tspan><tspan class="ba1f0372-2deb-4acf-9146-b9250b3279db" x="38.42" y="25.2">r</tspan><tspan x="46.4" y="25.2">ed</tspan><tspan x="-9.81" y="50.4">criteria?</tspan></text><polygon class="a87cc174-fa12-425b-9052-f76bce2d8b33" points="562.54 391.52 474.66 451.69 386.79 391.52 474.66 331.35 562.54 391.52"/><text class="ad3395e9-e81f-4c2e-b0d9-9d5d638a4934" transform="translate(445.05 372.46)">Meets<tspan x="-34.85" y="25.2">supplemental</tspan><tspan x="-9.81" y="50.4">criteria?</tspan></text><text class="b50c7fec-e692-430d-b7d5-5208c3ccb4a1" transform="translate(106.36 225.03)">R<tspan class="a0c696d4-4611-4664-81a0-ba8fc321f1fe" x="15.66" y="0">e</tspan><tspan x="28.54" y="0">view PR</tspan></text><rect class="a87cc174-fa12-425b-9052-f76bce2d8b33" x="76.12" y="175.5" width="175.75" height="85.04" rx="8.5"/><text class="b50c7fec-e692-430d-b7d5-5208c3ccb4a1" transform="translate(721.14 398.53)"><tspan class="fc82e5b1-53ee-41b2-89ad-8f2b38d92b41">A</tspan><tspan x="16.42" y="0">pp</tspan><tspan class="ac9d99cb-ce5b-4e03-b990-628219248cf8" x="43.44" y="0">r</tspan><tspan class="a9b55c9a-b07b-47cf-a3d5-bd33745030f3" x="52.59" y="0">o</tspan><tspan class="a0c696d4-4611-4664-81a0-ba8fc321f1fe" x="65.86" y="0">v</tspan><tspan x="78.07" y="0">e PR</tspan></text><rect class="a87cc174-fa12-425b-9052-f76bce2d8b33" x="697.46" y="349" width="175.75" height="85.04" rx="8.5"/><text class="ab983939-8c26-4509-8613-7855e78d1ee0" transform="translate(731.33 572.03)">Me<tspan class="ba1f0372-2deb-4acf-9146-b9250b3279db" x="34.1" y="0">r</tspan><tspan x="43.22" y="0">ge PR</tspan></text><rect class="a8a3be29-29ad-4048-a787-d3dd0783758d" x="697.12" y="522.5" width="175.75" height="85.04" rx="8.5"/><line class="a8a3be29-29ad-4048-a787-d3dd0783758d" x1="164" y1="87.52" x2="164" y2="161.17"/><polygon class="a06ec8a9-c015-4523-9f06-18ca163dfc10" points="154.03 158.25 164 175.52 173.97 158.25 154.03 158.25"/><line class="a8a3be29-29ad-4048-a787-d3dd0783758d" x1="164" y1="260.52" x2="164" y2="317.17"/><polygon class="a06ec8a9-c015-4523-9f06-18ca163dfc10" points="154.03 314.25 164 331.52 173.97 314.25 154.03 314.25"/><line class="a8a3be29-29ad-4048-a787-d3dd0783758d" x1="785" y1="434.52" x2="785" y2="508.17"/><polygon class="a06ec8a9-c015-4523-9f06-18ca163dfc10" points="775.03 505.25 785 522.52 794.97 505.25 775.03 505.25"/><line class="a8a3be29-29ad-4048-a787-d3dd0783758d" x1="252" y1="391.52" x2="372.65" y2="391.52"/><polygon class="a06ec8a9-c015-4523-9f06-18ca163dfc10" points="369.73 401.49 387 391.52 369.73 381.55 369.73 401.49"/><line class="a8a3be29-29ad-4048-a787-d3dd0783758d" x1="563" y1="391.52" x2="682.65" y2="391.52"/><polygon class="a06ec8a9-c015-4523-9f06-18ca163dfc10" points="679.73 401.49 697 391.52 679.73 381.55 679.73 401.49"/><polyline class="f22deda6-6eea-4af7-a62c-a46a5307870b" points="76 565.52 2 565.52 2 51.52 61.65 51.52"/><polygon class="feee2525-358e-4132-a80a-624c000e33ef" points="58.73 61.49 76 51.52 58.73 41.55 58.73 61.49"/><line class="f22deda6-6eea-4af7-a62c-a46a5307870b" x1="475" y1="331.52" x2="475" y2="274.87"/><polygon class="feee2525-358e-4132-a80a-624c000e33ef" points="484.97 277.79 475 260.52 465.03 277.79 484.97 277.79"/><polyline class="f22deda6-6eea-4af7-a62c-a46a5307870b" points="563 218.02 785 218.52 785 334.65"/><polygon class="feee2525-358e-4132-a80a-624c000e33ef" points="775.02 331.73 785 349 794.97 331.73 775.02 331.73"/><text class="a3e7c835-caea-4833-8999-c74998730c28" transform="translate(250.55 413.41)">YES</text><text class="e009e792-1a54-41e7-8788-2a927761b599" transform="translate(180.97 467.41)">NO</text><text class="e009e792-1a54-41e7-8788-2a927761b599" transform="translate(482.97 331.41)">NO</text><text class="a3e7c835-caea-4833-8999-c74998730c28" transform="translate(563.55 413.41)">YES</text><line class="f22deda6-6eea-4af7-a62c-a46a5307870b" x1="164" y1="451.52" x2="164" y2="508.17"/><polygon class="feee2525-358e-4132-a80a-624c000e33ef" points="154.03 505.25 164 522.52 173.97 505.25 154.03 505.25"/></svg>