<svg xmlns="http://www.w3.org/2000/svg" viewBox="0 0 687.1 250.33"><defs><style>.cls-1,.cls-10,.cls-11,.cls-2,.cls-4,.cls-8{fill:none;}.cls-1,.cls-2{stroke:#466bb0;}.cls-1,.cls-10,.cls-2,.cls-4,.cls-8{stroke-linejoin:round;}.cls-1{stroke-dasharray:10.04 10.04;}.cls-11,.cls-2,.cls-4{stroke-linecap:round;}.cls-2,.cls-4{stroke-width:4px;}.cls-3{fill:#466bb0;}.cls-4{stroke:gray;}.cls-5{fill:gray;}.cls-6{fill:#e6e6e6;}.cls-7{fill:#fff;}.cls-8{stroke:#e905ee;stroke-width:3px;}.cls-9{fill:#757575;}.cls-10,.cls-11{stroke:#fff;stroke-width:2px;}.cls-11{stroke-miterlimit:10;}</style></defs><title>net-config-6</title><g id="Simple_gateway" data-name="Simple gateway"><rect class="cls-1" x="236.5" y="31.64" width="450.1" height="150.86" rx="10" ry="10"/><path d="M257,2.27h1.35V13.73H257Z"/><path d="M261.27,13.37A3.38,3.38,0,0,1,260,11.79l1.22-.54a2.38,2.38,0,0,0,.9,1.13,2.3,2.3,0,0,0,1.32.4,2.57,2.57,0,0,0,1.31-.31,1,1,0,0,0,.55-.89,1,1,0,0,0-.43-.82,4.06,4.06,0,0,0-1.36-.54l-1-.25a3.53,3.53,0,0,1-1.6-.82,2,2,0,0,1-.62-1.49,2,2,0,0,1,.42-1.24,2.8,2.8,0,0,1,1.13-.82,4,4,0,0,1,1.52-.29,3.86,3.86,0,0,1,1.91.47,2.68,2.68,0,0,1,1.2,1.29l-1.19.55a2,2,0,0,0-1.93-1.09,2.19,2.19,0,0,0-1.18.31.9.9,0,0,0-.5.79.88.88,0,0,0,.35.73,2.72,2.72,0,0,0,1,.46l1.19.3a3.89,3.89,0,0,1,1.81.9,2,2,0,0,1,.6,1.47,2.11,2.11,0,0,1-.43,1.32,2.73,2.73,0,0,1-1.17.87,4.26,4.26,0,0,1-1.63.3A3.74,3.74,0,0,1,261.27,13.37Z"/><path d="M270.32,13.82a2,2,0,0,1-.71-.44,1.83,1.83,0,0,1-.48-.72,2.63,2.63,0,0,1-.16-1V6.8h-1.43V5.57H269V3.26h1.36V5.57h2V6.8h-2v4.55a1.65,1.65,0,0,0,.25,1,1.09,1.09,0,0,0,.88.36,1.68,1.68,0,0,0,.9-.27v1.33a2.81,2.81,0,0,1-.49.16,3.77,3.77,0,0,1-.63,0A2.51,2.51,0,0,1,270.32,13.82Z"/><path d="M274.15,3.79a1,1,0,0,1,0-1.37,1,1,0,0,1,.69-.28,1,1,0,0,1,.69.28.93.93,0,0,1,.28.68,1,1,0,0,1-1.66.69Zm0,1.78h1.34v8.16h-1.34Z"/><path d="M279.17,13.41a4,4,0,0,1-1.49-1.57,4.5,4.5,0,0,1-.54-2.19,4.5,4.5,0,0,1,.54-2.19,3.89,3.89,0,0,1,1.49-1.57,4.31,4.31,0,0,1,4.32,0A4,4,0,0,1,285,7.46a4.5,4.5,0,0,1,.54,2.19,4.5,4.5,0,0,1-.54,2.19,4.26,4.26,0,0,1-5.82,1.57Zm3.56-1a2.77,2.77,0,0,0,1-1.08,3.36,3.36,0,0,0,.4-1.65,3.36,3.36,0,0,0-.4-1.65,2.71,2.71,0,0,0-1-1.08A2.79,2.79,0,0,0,278.88,8a3.35,3.35,0,0,0-.39,1.65,3.35,3.35,0,0,0,.39,1.65,2.8,2.8,0,0,0,1.05,1.08,2.83,2.83,0,0,0,2.8,0Z"/><path d="M291.09,2.27h2l3.65,9.39h.06l3.65-9.39h2V13.73h-1.34V6.45l.06-2.18h-.06l-3.75,9.46h-1.12l-3.74-9.46h-.07l.07,2.18v7.28h-1.35Z"/><path d="M306.21,13.42a3.85,3.85,0,0,1-1.45-1.54,4.75,4.75,0,0,1-.51-2.22,4.93,4.93,0,0,1,.48-2.17,4,4,0,0,1,1.39-1.59,3.7,3.7,0,0,1,2.08-.59,3.91,3.91,0,0,1,2.08.54,3.65,3.65,0,0,1,1.35,1.48,4.83,4.83,0,0,1,.47,2.16,1.24,1.24,0,0,1-.05.41H305.6a3.41,3.41,0,0,0,.45,1.57,2.6,2.6,0,0,0,1,1,2.68,2.68,0,0,0,1.29.32,2.65,2.65,0,0,0,2.41-1.47l1.16.56a4.28,4.28,0,0,1-1.44,1.57,4,4,0,0,1-2.18.57A3.93,3.93,0,0,1,306.21,13.42Zm4.45-4.64a2.62,2.62,0,0,0-.29-1,2.14,2.14,0,0,0-.81-.86,2.44,2.44,0,0,0-1.38-.36,2.29,2.29,0,0,0-1.62.62,2.93,2.93,0,0,0-.88,1.62Z"/><path d="M314.42,13.37a3.38,3.38,0,0,1-1.25-1.58l1.22-.54a2.38,2.38,0,0,0,.9,1.13,2.3,2.3,0,0,0,1.32.4,2.6,2.6,0,0,0,1.32-.31,1,1,0,0,0,.11-1.71,4,4,0,0,0-1.36-.54l-1-.25a3.45,3.45,0,0,1-1.59-.82,1.92,1.92,0,0,1-.63-1.49,1.93,1.93,0,0,1,.43-1.24A2.7,2.7,0,0,1,315,5.6a4,4,0,0,1,1.52-.29,3.83,3.83,0,0,1,1.91.47,2.63,2.63,0,0,1,1.2,1.29l-1.19.55a2,2,0,0,0-1.93-1.09,2.19,2.19,0,0,0-1.18.31.92.92,0,0,0-.5.79.88.88,0,0,0,.35.73,2.79,2.79,0,0,0,1.05.46l1.19.3a3.89,3.89,0,0,1,1.81.9,2,2,0,0,1,.6,1.47,2.11,2.11,0,0,1-.43,1.32,2.62,2.62,0,0,1-1.17.87,4.26,4.26,0,0,1-1.63.3A3.74,3.74,0,0,1,314.42,13.37Z"/><path d="M321.33,2.27h1.36V5.65l-.06,1.12h.06a2.68,2.68,0,0,1,1.07-1,3.1,3.1,0,0,1,1.59-.42,2.9,2.9,0,0,1,2.27.87,3.37,3.37,0,0,1,.78,2.32v5.23h-1.35v-5a2.12,2.12,0,0,0-.57-1.63A2,2,0,0,0,325,6.54a2,2,0,0,0-1.18.39,2.62,2.62,0,0,0-.84,1,2.74,2.74,0,0,0-.32,1.26v4.55h-1.36Z"/><line class="cls-2" x1="25.67" y1="219" x2="160.53" y2="219"/><polygon class="cls-3" points="33.64 225.78 26.85 219 33.64 212.22 27.88 212.22 21.1 219 27.88 225.78 33.64 225.78"/><polygon class="cls-3" points="152.56 225.78 159.35 219 152.56 212.22 158.32 212.22 165.1 219 158.32 225.78 152.56 225.78"/><path d="M25.36,245.76a5.74,5.74,0,0,1-2.14-2.15,6.43,6.43,0,0,1,0-6.1,5.66,5.66,0,0,1,2.14-2.15,5.87,5.87,0,0,1,3-.79,5.65,5.65,0,0,1,2.35.49,5.57,5.57,0,0,1,1.85,1.39l-1,.94a4.22,4.22,0,0,0-1.43-1.15,4.06,4.06,0,0,0-1.79-.37,4.55,4.55,0,0,0-2.28.58,4.31,4.31,0,0,0-1.66,1.65,5.17,5.17,0,0,0,0,4.91,4.31,4.31,0,0,0,1.66,1.65,4.56,4.56,0,0,0,2.28.59,4.5,4.5,0,0,0,3.54-1.72l1,1a5.77,5.77,0,0,1-2,1.5,5.85,5.85,0,0,1-2.56.55A6,6,0,0,1,25.36,245.76Z"/><path d="M35.87,246a3.92,3.92,0,0,1-1.49-1.56,4.73,4.73,0,0,1,0-4.39,3.92,3.92,0,0,1,1.49-1.56,4.31,4.31,0,0,1,4.32,0,4,4,0,0,1,1.5,1.56,4.81,4.81,0,0,1,0,4.39,4,4,0,0,1-1.5,1.56,4.31,4.31,0,0,1-4.32,0Zm3.56-1a2.77,2.77,0,0,0,1-1.08,3.66,3.66,0,0,0,0-3.29A2.77,2.77,0,0,0,38,239.1a2.81,2.81,0,0,0-1.41.38,2.77,2.77,0,0,0-1,1.08,3.58,3.58,0,0,0,0,3.29,2.77,2.77,0,0,0,1,1.08,2.81,2.81,0,0,0,1.41.38A2.75,2.75,0,0,0,39.43,244.93Z"/><path d="M43.65,238.12h1.29v1.21H45a2.75,2.75,0,0,1,1.07-1,3.11,3.11,0,0,1,1.57-.42,2.89,2.89,0,0,1,2.25.85,3.39,3.39,0,0,1,.77,2.33v5.24H49.31v-5a2.2,2.2,0,0,0-.54-1.65,2.09,2.09,0,0,0-1.49-.51,2,2,0,0,0-1.18.37,2.46,2.46,0,0,0-.8,1,2.76,2.76,0,0,0-.29,1.25v4.6H43.65Z"/><path d="M53.41,239.36H51.9v-1.24h1.51v-.87a2.58,2.58,0,0,1,.35-1.35,2.51,2.51,0,0,1,.94-.89A2.79,2.79,0,0,1,56,234.7a3.64,3.64,0,0,1,1.2.19v1.33c-.2-.07-.38-.14-.55-.18a2.15,2.15,0,0,0-.61-.08,1.27,1.27,0,0,0-.91.38,1.42,1.42,0,0,0-.38,1v.73h5v8.17H58.48v-6.93H54.77v6.93H53.41Zm5.05-3a1,1,0,0,1,0-1.37,1,1,0,0,1,.69-.29,1,1,0,0,1,.7,1.66.91.91,0,0,1-.7.29A.94.94,0,0,1,58.46,236.41Z"/><path d="M63.1,249.33a3.25,3.25,0,0,1-1.26-1.62l1.23-.53a2.43,2.43,0,0,0,.91,1.15,2.57,2.57,0,0,0,1.49.44,2.62,2.62,0,0,0,2-.71,2.73,2.73,0,0,0,.7-2v-.91h-.07a2.92,2.92,0,0,1-1.12,1,3.48,3.48,0,0,1-1.66.39,3.53,3.53,0,0,1-1.93-.55A3.9,3.9,0,0,1,62,244.45a4.77,4.77,0,0,1-.51-2.24A4.9,4.9,0,0,1,62,240a3.9,3.9,0,0,1,1.38-1.54,3.53,3.53,0,0,1,1.93-.55,3.48,3.48,0,0,1,1.66.39,2.94,2.94,0,0,1,1.12,1h.07v-1.17h1.3V246a3.94,3.94,0,0,1-1.09,3,4.5,4.5,0,0,1-5.24.37Zm3.71-4.39a2.67,2.67,0,0,0,1-1.08,3.55,3.55,0,0,0,.36-1.65,3.62,3.62,0,0,0-.36-1.68,2.61,2.61,0,0,0-1-1.06,2.48,2.48,0,0,0-1.34-.37,2.57,2.57,0,0,0-1.34.37,2.62,2.62,0,0,0-1,1.08,3.57,3.57,0,0,0-.36,1.66,3.63,3.63,0,0,0,.36,1.66,2.53,2.53,0,0,0,1,1.07,2.48,2.48,0,0,0,1.34.37A2.57,2.57,0,0,0,66.81,244.94Z"/><path d="M72.07,245.68a3.48,3.48,0,0,1-.77-2.42v-5.14h1.36v4.93a2.42,2.42,0,0,0,.52,1.72,1.92,1.92,0,0,0,1.43.54,2.07,2.07,0,0,0,1.22-.37,2.35,2.35,0,0,0,.83-1,2.71,2.71,0,0,0,.3-1.25v-4.61h1.36v8.17H77V245.1H77a2.58,2.58,0,0,1-1.07,1,3.11,3.11,0,0,1-1.57.42A2.89,2.89,0,0,1,72.07,245.68Z"/><path d="M80.34,238.12h1.29v1.32h.07a2.25,2.25,0,0,1,.92-1.12,2.6,2.6,0,0,1,1.44-.45,2.46,2.46,0,0,1,1,.17v1.46a2.52,2.52,0,0,0-1.15-.25,1.94,1.94,0,0,0-1.09.33,2.5,2.5,0,0,0-.79.91,2.58,2.58,0,0,0-.29,1.22v4.58H80.34Z"/><path d="M87.39,246a3.91,3.91,0,0,1-1.45-1.54,4.78,4.78,0,0,1-.51-2.22,5,5,0,0,1,.48-2.18,4,4,0,0,1,1.39-1.58,3.7,3.7,0,0,1,2.08-.59,3.91,3.91,0,0,1,2.08.54,3.62,3.62,0,0,1,1.35,1.47,4.83,4.83,0,0,1,.47,2.16,1.67,1.67,0,0,1,0,.42H86.78a3.41,3.41,0,0,0,.45,1.57,2.6,2.6,0,0,0,1,1,2.8,2.8,0,0,0,1.29.32A2.65,2.65,0,0,0,92,243.84l1.15.56A4.07,4.07,0,0,1,91.67,246a3.92,3.92,0,0,1-2.18.58A4,4,0,0,1,87.39,246Zm4.45-4.64a2.62,2.62,0,0,0-.29-1,2.23,2.23,0,0,0-.81-.87,2.52,2.52,0,0,0-1.38-.35,2.29,2.29,0,0,0-1.62.62,2.93,2.93,0,0,0-.88,1.62Z"/><path d="M96.42,246a4,4,0,0,1-1.4-1.54A5.13,5.13,0,0,1,95,240a4,4,0,0,1,1.4-1.55,3.68,3.68,0,0,1,2-.56,3.33,3.33,0,0,1,1.68.42,3.25,3.25,0,0,1,1.12,1.05h.06l-.06-1.13v-3.38h1.36v11.46h-1.3v-1.21h-.06a3.23,3.23,0,0,1-1.12,1,3.33,3.33,0,0,1-1.68.42A3.68,3.68,0,0,1,96.42,246Zm3.48-1a2.83,2.83,0,0,0,1-1.09,3.8,3.8,0,0,0,0-3.27,2.73,2.73,0,0,0-1-1.08,2.48,2.48,0,0,0-2.67,0,2.78,2.78,0,0,0-1,1.09,3.75,3.75,0,0,0,0,3.25,2.88,2.88,0,0,0,1,1.1,2.54,2.54,0,0,0,2.67,0Z"/><path d="M110.5,246.38a2.19,2.19,0,0,1-.71-.44,2.16,2.16,0,0,1-.48-.72,2.85,2.85,0,0,1-.16-1v-4.87h-1.42v-1.24h1.42v-2.3h1.36v2.3h2v1.24h-2v4.54a1.66,1.66,0,0,0,.26,1,1.08,1.08,0,0,0,.88.36,1.63,1.63,0,0,0,.89-.27v1.32a1.81,1.81,0,0,1-.48.16,2.91,2.91,0,0,1-.64,0A2.54,2.54,0,0,1,110.5,246.38Z"/><path d="M114.14,238.12h1.3v1.32h.06a2.22,2.22,0,0,1,.93-1.12,2.6,2.6,0,0,1,1.44-.45,2.5,2.5,0,0,1,1,.17v1.46a2.52,2.52,0,0,0-1.15-.25,1.94,1.94,0,0,0-1.09.33,2.5,2.5,0,0,0-.79.91,2.59,2.59,0,0,0-.3,1.22v4.58h-1.36Z"/><path d="M120.83,246.19a2.55,2.55,0,0,1-1.47-2.37,2.35,2.35,0,0,1,1-2,4,4,0,0,1,2.46-.73,5.42,5.42,0,0,1,1.37.16,3.72,3.72,0,0,1,1,.37v-.5a1.85,1.85,0,0,0-.64-1.46,2.4,2.4,0,0,0-1.62-.56,2.66,2.66,0,0,0-1.26.3,2.31,2.31,0,0,0-.92.83l-1-.77a3.22,3.22,0,0,1,1.32-1.15,4.1,4.1,0,0,1,1.86-.42,3.75,3.75,0,0,1,2.62.87,3.09,3.09,0,0,1,1,2.38v5.17h-1.29v-1.17h-.07a2.82,2.82,0,0,1-1,1,3,3,0,0,1-1.59.42A3.58,3.58,0,0,1,120.83,246.19Zm3-1.2a2.67,2.67,0,0,0,.94-1,2.41,2.41,0,0,0,.36-1.29,3.63,3.63,0,0,0-1-.42,4.54,4.54,0,0,0-1.18-.16,2.62,2.62,0,0,0-1.69.47,1.48,1.48,0,0,0-.57,1.2,1.34,1.34,0,0,0,.51,1.09,2,2,0,0,0,1.3.41A2.49,2.49,0,0,0,123.84,245Z"/><path d="M129.1,239.36h-1.5v-1.24h1.5v-.87a2.5,2.5,0,0,1,.36-1.35,2.44,2.44,0,0,1,.94-.89,2.72,2.72,0,0,1,1.31-.31,3.6,3.6,0,0,1,1.2.19v1.33a4.88,4.88,0,0,0-.54-.18,2.2,2.2,0,0,0-.61-.08,1.25,1.25,0,0,0-.91.38,1.39,1.39,0,0,0-.39,1v.73h3.72v-.87a2.58,2.58,0,0,1,.34-1.35,2.37,2.37,0,0,1,.94-.89,2.79,2.79,0,0,1,1.32-.31,3.77,3.77,0,0,1,1.2.19v1.33a5.32,5.32,0,0,0-.56-.19,2.6,2.6,0,0,0-.6-.07,1.28,1.28,0,0,0-.92.38,1.42,1.42,0,0,0-.38,1v.73h5.06v8.17h-1.35v-6.93h-3.71v6.93h-1.34v-6.93h-3.72v6.93H129.1Zm10.12-2.93a1,1,0,0,1,0-1.39,1,1,0,0,1,.68-.27,1,1,0,0,1,.7.27,1,1,0,1,1-1.38,1.39Z"/><path d="M144.21,246a3.92,3.92,0,0,1-1.47-1.55,4.49,4.49,0,0,1-.53-2.21,4.57,4.57,0,0,1,.53-2.23,3.85,3.85,0,0,1,1.47-1.55,4.13,4.13,0,0,1,2.13-.56,3.8,3.8,0,0,1,2.23.62,3.4,3.4,0,0,1,1.29,1.63l-1.24.52a2.38,2.38,0,0,0-.9-1.15,2.6,2.6,0,0,0-1.45-.39,2.46,2.46,0,0,0-1.34.39,2.81,2.81,0,0,0-1,1.1,3.62,3.62,0,0,0,0,3.23,2.81,2.81,0,0,0,1,1.1,2.46,2.46,0,0,0,1.34.39,2.68,2.68,0,0,0,1.49-.4,2.45,2.45,0,0,0,.93-1.14l1.21.52a3.58,3.58,0,0,1-1.33,1.63,4,4,0,0,1-2.23.62A4,4,0,0,1,144.21,246Z"/><path d="M155.09,238.12h1.29v1.32h.07a2.22,2.22,0,0,1,.93-1.12,2.63,2.63,0,0,1,2.4-.28v1.46a2.6,2.6,0,0,0-1.16-.25,1.91,1.91,0,0,0-1.08.33,2.52,2.52,0,0,0-.8.91,2.71,2.71,0,0,0-.29,1.22v4.58h-1.36Z"/><path d="M162.21,246a4,4,0,0,1-1.5-1.56,4.81,4.81,0,0,1,0-4.39,4,4,0,0,1,1.5-1.56,4.31,4.31,0,0,1,4.32,0A3.92,3.92,0,0,1,168,240a4.73,4.73,0,0,1,0,4.39,3.92,3.92,0,0,1-1.49,1.56,4.31,4.31,0,0,1-4.32,0Zm3.56-1a2.77,2.77,0,0,0,1-1.08,3.66,3.66,0,0,0,0-3.29,2.77,2.77,0,0,0-2.44-1.46,2.81,2.81,0,0,0-1.41.38,2.73,2.73,0,0,0-1.05,1.08,3.66,3.66,0,0,0,0,3.29,2.73,2.73,0,0,0,1.05,1.08,2.81,2.81,0,0,0,1.41.38A2.75,2.75,0,0,0,165.77,244.93Z"/><path d="M170.78,245.68a3.49,3.49,0,0,1-.78-2.42v-5.14h1.36v4.93a2.43,2.43,0,0,0,.53,1.72,1.88,1.88,0,0,0,1.42.54,2.1,2.1,0,0,0,1.23-.37,2.5,2.5,0,0,0,.83-1,2.83,2.83,0,0,0,.29-1.25v-4.61H177v8.17h-1.29V245.1h-.07a2.58,2.58,0,0,1-1.07,1,3.11,3.11,0,0,1-1.57.42A2.86,2.86,0,0,1,170.78,245.68Z"/><path d="M181.34,246.38a2.24,2.24,0,0,1-.72-.44,2.16,2.16,0,0,1-.48-.72,2.85,2.85,0,0,1-.16-1v-4.87h-1.42v-1.24H180v-2.3h1.36v2.3h2v1.24h-2v4.54a1.66,1.66,0,0,0,.26,1,1.08,1.08,0,0,0,.88.36,1.68,1.68,0,0,0,.9-.27v1.32a1.87,1.87,0,0,1-.49.16,2.87,2.87,0,0,1-.63,0A2.51,2.51,0,0,1,181.34,246.38Z"/><path d="M186.16,246a3.91,3.91,0,0,1-1.45-1.54,4.66,4.66,0,0,1-.52-2.22,4.84,4.84,0,0,1,.49-2.18,4,4,0,0,1,1.38-1.58,3.73,3.73,0,0,1,2.08-.59,3.88,3.88,0,0,1,2.08.54,3.58,3.58,0,0,1,1.36,1.47,4.83,4.83,0,0,1,.47,2.16,1.67,1.67,0,0,1-.05.42h-6.45A3.19,3.19,0,0,0,186,244a2.58,2.58,0,0,0,1,1,2.86,2.86,0,0,0,1.29.32,2.66,2.66,0,0,0,2.42-1.47l1.15.56a4.07,4.07,0,0,1-1.43,1.56,3.92,3.92,0,0,1-2.18.58A4,4,0,0,1,186.16,246Zm4.45-4.64a2.62,2.62,0,0,0-.29-1,2.23,2.23,0,0,0-.81-.87,2.57,2.57,0,0,0-1.38-.35,2.33,2.33,0,0,0-1.63.62,3,3,0,0,0-.87,1.62Z"/><path d="M194.37,245.93a3.37,3.37,0,0,1-1.25-1.58l1.22-.55a2.4,2.4,0,0,0,.9,1.14,2.3,2.3,0,0,0,1.32.4,2.57,2.57,0,0,0,1.31-.31,1,1,0,0,0,.55-.89,1,1,0,0,0-.44-.82,3.88,3.88,0,0,0-1.36-.54l-1-.25a3.63,3.63,0,0,1-1.6-.82,2.07,2.07,0,0,1-.2-2.73,2.65,2.65,0,0,1,1.13-.82,3.81,3.81,0,0,1,1.52-.29,3.88,3.88,0,0,1,1.91.46,2.59,2.59,0,0,1,1.19,1.3l-1.18.54a2,2,0,0,0-1.94-1.09,2.14,2.14,0,0,0-1.17.32.91.91,0,0,0-.51.79.89.89,0,0,0,.36.73,2.72,2.72,0,0,0,1.05.45l1.19.31a3.8,3.8,0,0,1,1.8.9,2,2,0,0,1,.61,1.46,2.12,2.12,0,0,1-.43,1.33,2.82,2.82,0,0,1-1.17.87,4.26,4.26,0,0,1-1.63.3A3.7,3.7,0,0,1,194.37,245.93Z"/><line class="cls-4" x1="25.67" y1="174" x2="160.53" y2="174"/><polygon class="cls-5" points="33.64 180.78 26.85 174 33.64 167.22 27.88 167.22 21.1 174 27.88 180.78 33.64 180.78"/><polygon class="cls-5" points="152.56 180.78 159.35 174 152.56 167.22 158.32 167.22 165.1 174 158.32 180.78 152.56 180.78"/><path d="M21.65,188.83H23v5h5.92v-5h1.35v11.46H28.91v-5.22H23v5.22H21.65Z"/><path d="M35.17,190.12H32v-1.29h7.78v1.29h-3.2v10.17H35.17Z"/><path d="M43.79,190.12H40.58v-1.29h7.77v1.29h-3.2v10.17H43.79Z"/><path d="M50.06,188.83h3.86a3.75,3.75,0,0,1,1.78.43,3.36,3.36,0,0,1,1.3,1.21,3.37,3.37,0,0,1,0,3.5,3.36,3.36,0,0,1-1.3,1.21,3.75,3.75,0,0,1-1.78.43H51.41v4.68H50.06ZM54,194.32a2,2,0,0,0,1.13-.31,2.1,2.1,0,0,0,.76-.78,2,2,0,0,0,0-2A2.16,2.16,0,0,0,54,190.12H51.41v4.2Z"/><path d="M60,199.72a4.09,4.09,0,0,1-1.54-2.28l1.3-.53a3.35,3.35,0,0,0,1,1.68,2.51,2.51,0,0,0,1.73.66,2.64,2.64,0,0,0,1.68-.54,1.76,1.76,0,0,0,.69-1.46,1.67,1.67,0,0,0-.58-1.32,5.64,5.64,0,0,0-1.92-1l-.72-.26a5.58,5.58,0,0,1-2-1.14,2.49,2.49,0,0,1-.77-1.95,2.72,2.72,0,0,1,.45-1.51A3.29,3.29,0,0,1,60.61,189a3.78,3.78,0,0,1,1.79-.42,3.9,3.9,0,0,1,1.73.37,3.64,3.64,0,0,1,1.17.9,3.28,3.28,0,0,1,.62,1l-1.28.54a2.17,2.17,0,0,0-.73-1.07,2.22,2.22,0,0,0-1.49-.48,2.37,2.37,0,0,0-1.51.5,1.53,1.53,0,0,0-.62,1.24,1.32,1.32,0,0,0,.53,1.1,5.26,5.26,0,0,0,1.6.79l.75.26a6.21,6.21,0,0,1,2.27,1.32,2.87,2.87,0,0,1,.82,2.15,3,3,0,0,1-.57,1.85,3.3,3.3,0,0,1-1.43,1.11,4.78,4.78,0,0,1-1.78.35A4,4,0,0,1,60,199.72Z"/><path d="M73.91,200.38a2.19,2.19,0,0,1-.71-.44,2.16,2.16,0,0,1-.48-.72,2.63,2.63,0,0,1-.16-1v-4.87H71.14v-1.24h1.42v-2.3h1.36v2.3h2v1.24h-2v4.54a1.66,1.66,0,0,0,.26,1,1.08,1.08,0,0,0,.88.36A1.65,1.65,0,0,0,76,199v1.32a1.76,1.76,0,0,1-.49.16,2.76,2.76,0,0,1-.63,0A2.51,2.51,0,0,1,73.91,200.38Z"/><path d="M77.55,192.12h1.3v1.32h.06a2.22,2.22,0,0,1,.93-1.12,2.6,2.6,0,0,1,1.44-.45,2.53,2.53,0,0,1,1,.17v1.46a2.55,2.55,0,0,0-1.15-.25,1.92,1.92,0,0,0-1.09.33,2.5,2.5,0,0,0-.79.91,2.59,2.59,0,0,0-.3,1.22v4.58H77.55Z"/><path d="M84.24,200.19a2.55,2.55,0,0,1-1.47-2.37,2.37,2.37,0,0,1,1-2,4,4,0,0,1,2.47-.73,5.42,5.42,0,0,1,1.37.16,3.49,3.49,0,0,1,1,.37v-.5a1.82,1.82,0,0,0-.64-1.46,2.35,2.35,0,0,0-1.61-.56,2.73,2.73,0,0,0-1.27.3,2.35,2.35,0,0,0-.91.83l-1-.77a3.22,3.22,0,0,1,1.32-1.15,4.1,4.1,0,0,1,1.86-.42,3.75,3.75,0,0,1,2.62.87,3.09,3.09,0,0,1,1,2.38v5.17h-1.3v-1.17h-.06a2.9,2.9,0,0,1-1,1,3,3,0,0,1-1.59.42A3.58,3.58,0,0,1,84.24,200.19Zm3-1.2a2.67,2.67,0,0,0,.94-1,2.41,2.41,0,0,0,.35-1.29,3.41,3.41,0,0,0-.94-.42,4.54,4.54,0,0,0-1.18-.16,2.62,2.62,0,0,0-1.69.47,1.48,1.48,0,0,0-.57,1.2,1.34,1.34,0,0,0,.51,1.09,2,2,0,0,0,1.3.41A2.51,2.51,0,0,0,87.25,199Z"/><path d="M92.51,193.36H91v-1.24h1.5v-.87a2.58,2.58,0,0,1,.35-1.35,2.46,2.46,0,0,1,1-.89,2.72,2.72,0,0,1,1.31-.31,3.6,3.6,0,0,1,1.2.19v1.33a4.88,4.88,0,0,0-.54-.18,2.2,2.2,0,0,0-.61-.08,1.25,1.25,0,0,0-.91.38,1.39,1.39,0,0,0-.39,1v.73h3.71v-.87a2.58,2.58,0,0,1,.35-1.35,2.37,2.37,0,0,1,.94-.89,2.79,2.79,0,0,1,1.32-.31,3.77,3.77,0,0,1,1.2.19v1.33a4.74,4.74,0,0,0-.57-.19,2.47,2.47,0,0,0-.6-.07,1.27,1.27,0,0,0-.91.38,1.42,1.42,0,0,0-.38,1v.73h5v8.17h-1.34v-6.93H98.93v6.93H97.58v-6.93H93.87v6.93H92.51Zm10.11-2.93a1,1,0,0,1,0-1.39,1,1,0,0,1,.69-.27,1,1,0,0,1,.7,1.66,1,1,0,0,1-.7.29A1,1,0,0,1,102.62,190.43Z"/><path d="M107.62,200a4,4,0,0,1-1.48-1.55,4.59,4.59,0,0,1-.52-2.21,4.67,4.67,0,0,1,.52-2.23,3.94,3.94,0,0,1,1.48-1.55,4.09,4.09,0,0,1,2.12-.56,3.84,3.84,0,0,1,2.24.62,3.32,3.32,0,0,1,1.28,1.63l-1.23.52a2.38,2.38,0,0,0-.9-1.15,2.6,2.6,0,0,0-1.45-.39,2.46,2.46,0,0,0-1.34.39,2.81,2.81,0,0,0-1,1.1,3.62,3.62,0,0,0,0,3.23,2.81,2.81,0,0,0,1,1.1,2.46,2.46,0,0,0,1.34.39,2.68,2.68,0,0,0,1.49-.4,2.51,2.51,0,0,0,.93-1.14l1.21.52a3.64,3.64,0,0,1-1.33,1.63,4,4,0,0,1-2.24.62A4,4,0,0,1,107.62,200Z"/><path d="M120.1,200a4,4,0,0,1-1.5-1.56,4.73,4.73,0,0,1,0-4.39,4,4,0,0,1,1.5-1.56,4.31,4.31,0,0,1,4.32,0,4,4,0,0,1,1.49,1.56,4.73,4.73,0,0,1,0,4.39,4,4,0,0,1-1.49,1.56,4.31,4.31,0,0,1-4.32,0Zm3.56-1a2.85,2.85,0,0,0,1-1.08,3.66,3.66,0,0,0,0-3.29,2.85,2.85,0,0,0-1-1.08,2.78,2.78,0,0,0-1.4-.38,2.81,2.81,0,0,0-1.41.38,2.73,2.73,0,0,0-1,1.08,3.66,3.66,0,0,0,0,3.29,2.73,2.73,0,0,0,1,1.08,2.81,2.81,0,0,0,1.41.38A2.78,2.78,0,0,0,123.66,198.93Z"/><path d="M127.87,192.12h1.3v1.21h.06a2.82,2.82,0,0,1,1.07-1,3.16,3.16,0,0,1,1.57-.42,2.89,2.89,0,0,1,2.25.85,3.35,3.35,0,0,1,.78,2.33v5.24h-1.36v-5a2.2,2.2,0,0,0-.55-1.65,2.09,2.09,0,0,0-1.49-.51,2,2,0,0,0-1.17.37,2.4,2.4,0,0,0-.81,1,2.9,2.9,0,0,0-.29,1.25v4.6h-1.36Z"/><path d="M140.5,192.12h1.29v1.22h.07a3,3,0,0,1,1.11-1.05,3.31,3.31,0,0,1,1.67-.42,3.65,3.65,0,0,1,2,.56A3.85,3.85,0,0,1,148,194a5.13,5.13,0,0,1,0,4.46,3.89,3.89,0,0,1-1.41,1.54,3.65,3.65,0,0,1-2,.56,3.31,3.31,0,0,1-1.67-.42,3,3,0,0,1-1.11-1h-.07l.07,1.13v3.53H140.5Zm5.31,6.81a2.88,2.88,0,0,0,1-1.1,3.75,3.75,0,0,0,0-3.25,2.78,2.78,0,0,0-1-1.09,2.46,2.46,0,0,0-2.66,0,2.66,2.66,0,0,0-1,1.08,3.8,3.8,0,0,0,0,3.27,2.76,2.76,0,0,0,1,1.09,2.52,2.52,0,0,0,2.66,0Z"/><path d="M151.73,200a4,4,0,0,1-1.5-1.56,4.81,4.81,0,0,1,0-4.39,4,4,0,0,1,1.5-1.56,4.31,4.31,0,0,1,4.32,0,3.92,3.92,0,0,1,1.49,1.56,4.73,4.73,0,0,1,0,4.39,3.92,3.92,0,0,1-1.49,1.56,4.31,4.31,0,0,1-4.32,0Zm3.56-1a2.77,2.77,0,0,0,1-1.08,3.66,3.66,0,0,0,0-3.29,2.77,2.77,0,0,0-2.44-1.46,2.81,2.81,0,0,0-1.41.38,2.73,2.73,0,0,0-1,1.08,3.66,3.66,0,0,0,0,3.29,2.73,2.73,0,0,0,1,1.08,2.81,2.81,0,0,0,1.41.38A2.75,2.75,0,0,0,155.29,198.93Z"/><path d="M159.5,192.25h1.3v1.3h.06a2.27,2.27,0,0,1,1-1.12,2.91,2.91,0,0,1,1.5-.4,2.58,2.58,0,0,1,.6.05v1.39a3.67,3.67,0,0,0-.74-.06,2.21,2.21,0,0,0-1.69.68,2.52,2.52,0,0,0-.65,1.79v4.53H159.5Zm8.28,8.13a2.19,2.19,0,0,1-.71-.44,2.16,2.16,0,0,1-.48-.72,2.63,2.63,0,0,1-.16-1v-4.87H165v-1.24h1.42v-2.3h1.36v2.3h2v1.24h-2v4.54a1.66,1.66,0,0,0,.26,1,1.08,1.08,0,0,0,.88.36,1.63,1.63,0,0,0,.89-.27v1.32a1.81,1.81,0,0,1-.48.16,2.91,2.91,0,0,1-.64,0A2.54,2.54,0,0,1,167.78,200.38Z"/><path d="M180.09,197.93h-5.24v-1l5.12-7.57h1.47v7.31h1.41v1.28h-1.41v2.36h-1.35Zm0-1.28v-5.32H180l-3.63,5.32Z"/><path d="M189.57,197.93h-5.25v-1l5.12-7.57h1.47v7.31h1.41v1.28h-1.41v2.36h-1.34Zm0-1.28v-5.32h-.07l-3.63,5.32Z"/><path d="M195.84,200.25a3.6,3.6,0,0,1-2.14-2.45l1.23-.51a2.75,2.75,0,0,0,.87,1.44,2.2,2.2,0,0,0,1.45.52,2.44,2.44,0,0,0,1.13-.27,2.14,2.14,0,0,0,.84-.73,1.88,1.88,0,0,0,.32-1.05,1.79,1.79,0,0,0-.32-1,2.1,2.1,0,0,0-.84-.72,2.59,2.59,0,0,0-1.18-.27h-.94v-1.26h.84a2.2,2.2,0,0,0,1.48-.51,1.67,1.67,0,0,0,.59-1.33,1.49,1.49,0,0,0-.58-1.23,2.19,2.19,0,0,0-1.42-.47,1.91,1.91,0,0,0-1.31.43,2.52,2.52,0,0,0-.68,1.06l-1.25-.53a3.64,3.64,0,0,1,1.12-1.56,3.19,3.19,0,0,1,2.12-.7,3.79,3.79,0,0,1,1.73.39,2.9,2.9,0,0,1,1.2,1.07,2.74,2.74,0,0,1,.44,1.54,2.38,2.38,0,0,1-.43,1.44,3.19,3.19,0,0,1-1.07.93v.06a3.17,3.17,0,0,1,1.34,1,2.6,2.6,0,0,1,.53,1.64,3.12,3.12,0,0,1-.49,1.73,3.29,3.29,0,0,1-1.33,1.2,3.9,3.9,0,0,1-1.84.43A3.63,3.63,0,0,1,195.84,200.25Z"/><rect class="cls-6" x="327" y="44.86" width="108" height="108" rx="3" ry="3"/><rect class="cls-7" x="336" y="116.86" width="90" height="27" rx="3" ry="3"/><path d="M348.08,128.06h1.28l2.21,5.74h0l2.25-5.74h1.24l-2.91,7.14H351Z"/><path d="M356.16,126.5a.8.8,0,0,1-.25-.6.78.78,0,0,1,.25-.59.82.82,0,0,1,.6-.25.8.8,0,0,1,.6.25.79.79,0,0,1,.26.59.84.84,0,0,1-.25.6.82.82,0,0,1-.61.26A.83.83,0,0,1,356.16,126.5Zm0,1.56h1.18v7.14h-1.18Z"/><path d="M359.22,128.17h1.14v1.13h.06a1.93,1.93,0,0,1,.85-1,2.61,2.61,0,0,1,1.32-.35,2.44,2.44,0,0,1,.51.05v1.21a3.52,3.52,0,0,0-.64,0,1.94,1.94,0,0,0-1.48.6,2.17,2.17,0,0,0-.56,1.57v4h-1.2Zm7.25,7.11a1.69,1.69,0,0,1-.62-.39,1.71,1.71,0,0,1-.42-.62,2.27,2.27,0,0,1-.14-.87v-4.26H364v-1.08h1.25v-2h1.19v2h1.73v1.08h-1.73v4a1.44,1.44,0,0,0,.22.89,1,1,0,0,0,.77.32,1.48,1.48,0,0,0,.79-.24v1.16a2.39,2.39,0,0,1-.43.14,2.88,2.88,0,0,1-.55,0A2.38,2.38,0,0,1,366.47,135.28Z"/><path d="M370.28,134.67a3.08,3.08,0,0,1-.68-2.12v-4.49h1.19v4.31a2.09,2.09,0,0,0,.46,1.5,1.68,1.68,0,0,0,1.25.47,1.8,1.8,0,0,0,1.07-.32,2.21,2.21,0,0,0,.73-.84,2.43,2.43,0,0,0,.26-1.09v-4h1.19v7.14h-1.14v-1h-.05a2.41,2.41,0,0,1-.94.9,2.78,2.78,0,0,1-1.37.36A2.52,2.52,0,0,1,370.28,134.67Z"/><path d="M378.32,135.11A2.24,2.24,0,0,1,377,133a2.1,2.1,0,0,1,.86-1.77,3.54,3.54,0,0,1,2.15-.64,5.06,5.06,0,0,1,1.2.14,3.07,3.07,0,0,1,.85.33v-.44a1.62,1.62,0,0,0-.56-1.28,2.12,2.12,0,0,0-1.42-.48,2.26,2.26,0,0,0-1.1.26,2,2,0,0,0-.8.72l-.9-.67a2.86,2.86,0,0,1,1.16-1,3.65,3.65,0,0,1,1.63-.37,3.27,3.27,0,0,1,2.29.77,2.7,2.7,0,0,1,.83,2.08v4.52h-1.13v-1H382a2.6,2.6,0,0,1-.92.88,2.72,2.72,0,0,1-1.39.36A3,3,0,0,1,378.32,135.11Zm2.63-1.05a2.33,2.33,0,0,0,.83-.82,2.27,2.27,0,0,0,.31-1.14,2.89,2.89,0,0,0-.83-.36,3.9,3.9,0,0,0-1-.14,2.28,2.28,0,0,0-1.47.41,1.3,1.3,0,0,0-.5,1.05,1.17,1.17,0,0,0,.45.95,1.76,1.76,0,0,0,1.13.36A2.1,2.1,0,0,0,381,134.06Z"/><path d="M384.87,125.17h1.19v10h-1.19Z"/><path d="M387.81,130.37h4.44v1h-4.44Z"/><path d="M394.58,134.88a3,3,0,0,1-1.1-1.38l1.07-.47a2.08,2.08,0,0,0,1.94,1.34,2.3,2.3,0,0,0,1.15-.27.87.87,0,0,0,.1-1.5,3.52,3.52,0,0,0-1.19-.47l-.87-.22a3.06,3.06,0,0,1-1.4-.72,1.69,1.69,0,0,1-.54-1.3,1.67,1.67,0,0,1,.37-1.08,2.19,2.19,0,0,1,1-.72,3.47,3.47,0,0,1,1.33-.26,3.43,3.43,0,0,1,1.68.41,2.32,2.32,0,0,1,1,1.13l-1,.48a1.71,1.71,0,0,0-1.69-.95,1.93,1.93,0,0,0-1,.27.8.8,0,0,0-.44.69.77.77,0,0,0,.31.64,2.41,2.41,0,0,0,.92.4l1,.27a3.35,3.35,0,0,1,1.58.79,1.74,1.74,0,0,1,.53,1.28,1.79,1.79,0,0,1-.38,1.15,2.43,2.43,0,0,1-1,.77,3.83,3.83,0,0,1-1.43.26A3.24,3.24,0,0,1,394.58,134.88Z"/><path d="M399.84,128.06h1.27l2.21,5.74h0l2.24-5.74h1.25l-2.91,7.14h-1.21Z"/><path d="M409,134.92a3.49,3.49,0,0,1-1.29-1.35,4.34,4.34,0,0,1,0-3.89,3.45,3.45,0,0,1,1.29-1.36,3.64,3.64,0,0,1,1.86-.49,3.4,3.4,0,0,1,2,.54,3,3,0,0,1,1.12,1.44l-1.08.45a2.07,2.07,0,0,0-.79-1,2.32,2.32,0,0,0-1.26-.34,2.25,2.25,0,0,0-1.18.34,2.45,2.45,0,0,0-.87,1,3,3,0,0,0-.33,1.42,2.94,2.94,0,0,0,.33,1.41,2.45,2.45,0,0,0,.87,1,2.16,2.16,0,0,0,1.18.34,2.32,2.32,0,0,0,1.3-.35,2.1,2.1,0,0,0,.81-1l1.06.45a3.17,3.17,0,0,1-1.16,1.43,3.77,3.77,0,0,1-3.82,0Z"/><rect class="cls-7" x="354" y="53.86" width="54" height="54" rx="3" ry="3"/><polygon class="cls-8" points="394.26 88.51 394.26 73.21 381 65.56 367.74 73.21 367.74 88.51 381 96.16 394.26 88.51"/><rect class="cls-6" x="183" y="44.86" width="108" height="108" rx="3" ry="3"/><rect class="cls-7" x="192" y="116.86" width="90" height="27" rx="3" ry="3"/><path d="M196.15,134.93a3.51,3.51,0,0,1-1.27-1.35,4.11,4.11,0,0,1-.45-1.94,4.18,4.18,0,0,1,.43-1.9,3.4,3.4,0,0,1,1.21-1.39,3.26,3.26,0,0,1,1.82-.52,3.47,3.47,0,0,1,1.82.47,3.22,3.22,0,0,1,1.18,1.3,4.11,4.11,0,0,1,.41,1.89,1.28,1.28,0,0,1,0,.36h-5.64a2.87,2.87,0,0,0,.39,1.37,2.17,2.17,0,0,0,.89.84,2.39,2.39,0,0,0,1.13.28,2.33,2.33,0,0,0,2.11-1.28l1,.49a3.75,3.75,0,0,1-1.25,1.37,3.56,3.56,0,0,1-1.92.5A3.44,3.44,0,0,1,196.15,134.93Zm3.89-4.06a2.25,2.25,0,0,0-.25-.89,1.84,1.84,0,0,0-.71-.76,2.15,2.15,0,0,0-1.21-.31,2,2,0,0,0-1.42.54,2.56,2.56,0,0,0-.76,1.42Z"/><path d="M204.37,131.57l-2.48-3.51h1.34l1.85,2.64,1.78-2.64h1.39l-2.5,3.51,2.55,3.63h-1.38l-1.87-2.75-1.82,2.75h-1.38Z"/><path d="M211.31,135.28a1.82,1.82,0,0,1-.63-.39,2,2,0,0,1-.42-.62,2.48,2.48,0,0,1-.14-.87v-4.26h-1.24v-1.08h1.24v-2h1.19v2h1.74v1.08h-1.74v4a1.44,1.44,0,0,0,.23.89.94.94,0,0,0,.77.32,1.43,1.43,0,0,0,.78-.24v1.16a2.16,2.16,0,0,1-.43.14,2.75,2.75,0,0,1-.55,0A2.28,2.28,0,0,1,211.31,135.28Z"/><path d="M214.48,130.37h4.44v1h-4.44Z"/><path d="M220.66,125.17h1.19v3l0,1h0a2.3,2.3,0,0,1,.94-.91,2.78,2.78,0,0,1,1.39-.37,2.54,2.54,0,0,1,2,.77,2.94,2.94,0,0,1,.68,2v4.58h-1.19v-4.4a1.88,1.88,0,0,0-.49-1.43,1.8,1.8,0,0,0-1.27-.46,1.7,1.7,0,0,0-1,.34,2.33,2.33,0,0,0-.74.87,2.4,2.4,0,0,0-.28,1.1v4h-1.19Z"/><path d="M230,134.92a3.59,3.59,0,0,1-1.31-1.37,4.16,4.16,0,0,1,0-3.84,3.45,3.45,0,0,1,1.31-1.37,3.76,3.76,0,0,1,3.78,0,3.45,3.45,0,0,1,1.31,1.37,4.16,4.16,0,0,1,0,3.84,3.59,3.59,0,0,1-1.31,1.37,3.82,3.82,0,0,1-3.78,0Zm3.12-.91a2.49,2.49,0,0,0,.91-.94,3.22,3.22,0,0,0,0-2.88,2.52,2.52,0,0,0-.91-.95,2.46,2.46,0,0,0-2.46,0,2.47,2.47,0,0,0-.92.95,3.22,3.22,0,0,0,0,2.88,2.45,2.45,0,0,0,.92.94,2.46,2.46,0,0,0,2.46,0Z"/><path d="M237.41,134.88a2.88,2.88,0,0,1-1.09-1.38l1.06-.47a2.12,2.12,0,0,0,.79,1,2.08,2.08,0,0,0,1.16.35,2.26,2.26,0,0,0,1.14-.27.87.87,0,0,0,.1-1.5,3.52,3.52,0,0,0-1.19-.47l-.87-.22a3.17,3.17,0,0,1-1.4-.72,1.69,1.69,0,0,1-.54-1.3,1.67,1.67,0,0,1,.37-1.08,2.28,2.28,0,0,1,1-.72,3.57,3.57,0,0,1,3,.15,2.28,2.28,0,0,1,1,1.13l-1,.48a1.73,1.73,0,0,0-1.7-.95,2,2,0,0,0-1,.27.78.78,0,0,0-.13,1.33,2.48,2.48,0,0,0,.92.4l1,.27a3.3,3.3,0,0,1,1.58.79,1.7,1.7,0,0,1,.53,1.28,1.84,1.84,0,0,1-.37,1.15,2.52,2.52,0,0,1-1,.77,3.78,3.78,0,0,1-1.42.26A3.25,3.25,0,0,1,237.41,134.88Z"/><path d="M245.33,135.28a1.82,1.82,0,0,1-.63-.39,2,2,0,0,1-.42-.62,2.48,2.48,0,0,1-.14-.87v-4.26H242.9v-1.08h1.24v-2h1.19v2h1.74v1.08h-1.74v4a1.44,1.44,0,0,0,.23.89.94.94,0,0,0,.77.32,1.43,1.43,0,0,0,.78-.24v1.16a2.16,2.16,0,0,1-.43.14,2.81,2.81,0,0,1-.55,0A2.28,2.28,0,0,1,245.33,135.28Z"/><path d="M248.5,130.37h4.43v1H248.5Z"/><path d="M255.74,137.86a2.94,2.94,0,0,1-1.1-1.42l1.08-.46a2.1,2.1,0,0,0,.79,1,2.23,2.23,0,0,0,1.31.39,2.32,2.32,0,0,0,1.72-.62,2.42,2.42,0,0,0,.6-1.76v-.8h-.05a2.6,2.6,0,0,1-1,.89,3,3,0,0,1-1.45.34,3.07,3.07,0,0,1-1.68-.48,3.35,3.35,0,0,1-1.21-1.34,4.52,4.52,0,0,1,0-3.93,3.31,3.31,0,0,1,1.21-1.35,3.15,3.15,0,0,1,3.13-.14,2.55,2.55,0,0,1,1,.9h.05v-1h1.14v6.86a3.45,3.45,0,0,1-.95,2.62,3.94,3.94,0,0,1-4.59.32ZM259,134a2.33,2.33,0,0,0,.84-.94,3.13,3.13,0,0,0,.31-1.45,3.19,3.19,0,0,0-.31-1.47,2.2,2.2,0,0,0-2-1.25,2.21,2.21,0,0,0-1.18.33,2.33,2.33,0,0,0-.84.94,3.45,3.45,0,0,0,0,2.9,2.18,2.18,0,0,0,2,1.26A2.23,2.23,0,0,0,259,134Z"/><path d="M262.26,128.06h1.22l1.7,5.64h0l1.79-5.64h1.23l1.81,5.63h0l1.7-5.63h1.2l-2.31,7.14h-1.2l-1.85-5.7-1.84,5.7h-1.19Z"/><path d="M276.27,134.75l-2.95-6.69h1.29l2.24,5.3h0l2.16-5.3h1.29l-4.41,10.16h-1.23Z"/><rect class="cls-7" x="210" y="53.86" width="54" height="54" rx="3" ry="3"/><polygon class="cls-8" points="250.26 88.51 250.26 73.21 237 65.56 223.74 73.21 223.74 88.51 237 96.16 250.26 88.51"/><rect class="cls-6" x="471.35" y="44.86" width="197.65" height="72" rx="3" ry="3"/><rect class="cls-7" x="480" y="53.86" width="54" height="54" rx="3" ry="3"/><polygon class="cls-8" points="520.26 88.51 520.26 73.21 507 65.56 493.74 73.21 493.74 88.51 507 96.16 520.26 88.51"/><rect class="cls-7" x="543" y="53.86" width="117" height="54" rx="3" ry="3"/><path d="M602,78.56h1.13v1h.06a2.44,2.44,0,0,1,.92-.91,2.56,2.56,0,0,1,2.67,0,2,2,0,0,1,.83,1,3,3,0,0,1,1-1,2.71,2.71,0,0,1,1.44-.38,2.28,2.28,0,0,1,1.86.75,3.12,3.12,0,0,1,.62,2V85.7H611.4V81.3a2.12,2.12,0,0,0-.41-1.44,1.53,1.53,0,0,0-1.2-.45,1.6,1.6,0,0,0-1,.31,2,2,0,0,0-.68.82,2.66,2.66,0,0,0-.24,1.13v4h-1.19V81.32a2.14,2.14,0,0,0-.41-1.46,1.52,1.52,0,0,0-1.19-.45,1.63,1.63,0,0,0-1,.32,2.07,2.07,0,0,0-.67.84,2.52,2.52,0,0,0-.25,1.12v4H602Z"/><path d="M616.27,85.25l-3-6.69h1.29l2.24,5.3h0l2.16-5.3h1.28L615.9,88.72h-1.23Z"/><path d="M621.29,80.87h4.44v1h-4.44Z"/><path d="M628.06,85.38A3,3,0,0,1,627,84l1.07-.47a2.12,2.12,0,0,0,.79,1,2,2,0,0,0,1.15.35,2.3,2.3,0,0,0,1.15-.27.87.87,0,0,0,.1-1.5,3.52,3.52,0,0,0-1.19-.47l-.87-.22a3.11,3.11,0,0,1-1.4-.72,1.69,1.69,0,0,1-.54-1.3,1.67,1.67,0,0,1,.37-1.08,2.28,2.28,0,0,1,1-.73,3.66,3.66,0,0,1,1.33-.25,3.43,3.43,0,0,1,1.68.41,2.32,2.32,0,0,1,1,1.13l-1,.48a1.71,1.71,0,0,0-1.69-.95,2,2,0,0,0-1,.27.8.8,0,0,0-.44.69.77.77,0,0,0,.31.64,2.41,2.41,0,0,0,.92.4l1,.27a3.3,3.3,0,0,1,1.58.79,1.74,1.74,0,0,1,.53,1.28,1.79,1.79,0,0,1-.38,1.15,2.43,2.43,0,0,1-1,.77,3.83,3.83,0,0,1-1.43.26A3.24,3.24,0,0,1,628.06,85.38Z"/><path d="M633.32,78.56h1.27l2.22,5.74h0l2.24-5.74h1.25l-2.91,7.14H636.2Z"/><path d="M642.46,85.42a3.49,3.49,0,0,1-1.29-1.35,4.34,4.34,0,0,1,0-3.89,3.45,3.45,0,0,1,1.29-1.36,3.64,3.64,0,0,1,1.86-.49,3.4,3.4,0,0,1,2,.54,3,3,0,0,1,1.12,1.44l-1.07.44a2.15,2.15,0,0,0-.79-1,2.38,2.38,0,0,0-1.27-.34,2.27,2.27,0,0,0-1.18.34,2.53,2.53,0,0,0-.87,1,3.2,3.2,0,0,0,0,2.83,2.53,2.53,0,0,0,.87,1,2.18,2.18,0,0,0,1.18.34,2.3,2.3,0,0,0,1.3-.35,2.1,2.1,0,0,0,.81-1l1.07.45a3.26,3.26,0,0,1-1.17,1.43,3.45,3.45,0,0,1-2,.54A3.55,3.55,0,0,1,642.46,85.42Z"/><circle class="cls-9" cx="570" cy="80.86" r="18"/><rect class="cls-10" x="563.61" y="74.34" width="12.79" height="12.79"/><line class="cls-11" x1="565.97" y1="74.34" x2="565.97" y2="71.27"/><line class="cls-11" x1="570" y1="74.34" x2="570" y2="71.27"/><line class="cls-11" x1="574.03" y1="74.34" x2="574.03" y2="71.27"/><line class="cls-11" x1="565.97" y1="90.45" x2="565.97" y2="87.37"/><line class="cls-11" x1="570" y1="90.45" x2="570" y2="87.37"/><line class="cls-11" x1="574.03" y1="90.45" x2="574.03" y2="87.37"/><line class="cls-11" x1="563.49" y1="84.88" x2="560.41" y2="84.88"/><line class="cls-11" x1="563.49" y1="80.86" x2="560.41" y2="80.86"/><line class="cls-11" x1="563.49" y1="76.83" x2="560.41" y2="76.83"/><line class="cls-11" x1="579.59" y1="84.88" x2="576.51" y2="84.88"/><line class="cls-11" x1="579.59" y1="80.86" x2="576.51" y2="80.86"/><line class="cls-11" x1="579.59" y1="76.83" x2="576.51" y2="76.83"/><rect class="cls-7" x="567.16" y="77.9" width="5.68" height="5.68" rx="2" ry="2"/><rect class="cls-6" y="44.86" width="135" height="72" rx="3" ry="3"/><rect class="cls-7" x="9" y="53.86" width="117" height="54" rx="3" ry="3"/><path d="M65.87,84.83a3.41,3.41,0,0,1-1.26-1.35,4.06,4.06,0,0,1-.46-1.94,4.22,4.22,0,0,1,.43-1.91,3.38,3.38,0,0,1,1.21-1.38,3.19,3.19,0,0,1,1.82-.52,3.36,3.36,0,0,1,1.82.47,3.07,3.07,0,0,1,1.18,1.29A4.11,4.11,0,0,1,71,81.38a1.38,1.38,0,0,1,0,.37H65.34a2.87,2.87,0,0,0,.39,1.37,2.35,2.35,0,0,0,2,1.12A2.32,2.32,0,0,0,69.86,83l1,.49a3.52,3.52,0,0,1-1.25,1.37,3.47,3.47,0,0,1-1.91.51A3.59,3.59,0,0,1,65.87,84.83Zm3.9-4.06a2.36,2.36,0,0,0-.26-.9,2,2,0,0,0-.7-.76,2.29,2.29,0,0,0-1.21-.3,2,2,0,0,0-1.42.54,2.57,2.57,0,0,0-.77,1.42Z"/><path d="M74.09,81.47,71.61,78H73l1.85,2.65L76.58,78H78l-2.49,3.52L78,85.09H76.64l-1.86-2.74L73,85.09H71.57Z"/><path d="M81,85.17a1.73,1.73,0,0,1-1-1,2.27,2.27,0,0,1-.14-.87V79H78.6V78h1.25v-2H81v2h1.73V79H81v4a1.44,1.44,0,0,0,.22.89,1,1,0,0,0,.77.31,1.43,1.43,0,0,0,.78-.24v1.16a1.39,1.39,0,0,1-.42.14,2.83,2.83,0,0,1-.56,0A2.11,2.11,0,0,1,81,85.17Z"/><path d="M84.2,80.26h4.44v1H84.2Z"/><path d="M90.39,75.07h1.19v3l-.06,1h.06a2.27,2.27,0,0,1,.93-.91,2.77,2.77,0,0,1,1.39-.36,2.53,2.53,0,0,1,2,.76,2.9,2.9,0,0,1,.69,2v4.58H95.39V80.7a1.9,1.9,0,0,0-.49-1.43,1.8,1.8,0,0,0-1.28-.46,1.78,1.78,0,0,0-1,.33,2.49,2.49,0,0,0-.74.87,2.42,2.42,0,0,0-.27,1.11v4H90.39Z"/><path d="M99.68,84.81a3.43,3.43,0,0,1-1.3-1.37,4.16,4.16,0,0,1,0-3.84,3.56,3.56,0,0,1,1.3-1.37,3.82,3.82,0,0,1,3.78,0,3.59,3.59,0,0,1,1.31,1.37,4.16,4.16,0,0,1,0,3.84,3.45,3.45,0,0,1-1.31,1.37,3.76,3.76,0,0,1-3.78,0Zm3.12-.9a2.38,2.38,0,0,0,.91-1,3.22,3.22,0,0,0,0-2.88,2.36,2.36,0,0,0-.91-.94,2.41,2.41,0,0,0-1.23-.33,2.44,2.44,0,0,0-1.23.33,2.29,2.29,0,0,0-.91.94,3.14,3.14,0,0,0,0,2.88,2.32,2.32,0,0,0,.91,1,2.44,2.44,0,0,0,1.23.33A2.41,2.41,0,0,0,102.8,83.91Z"/><path d="M107.13,84.78A2.94,2.94,0,0,1,106,83.4l1.06-.48a2.27,2.27,0,0,0,.79,1,2.08,2.08,0,0,0,1.16.35A2.2,2.2,0,0,0,110.2,84a.86.86,0,0,0,.47-.77.84.84,0,0,0-.37-.72,3.4,3.4,0,0,0-1.19-.47l-.87-.23a3.15,3.15,0,0,1-1.4-.71,1.68,1.68,0,0,1-.55-1.3,1.75,1.75,0,0,1,.37-1.09,2.45,2.45,0,0,1,1-.72,3.68,3.68,0,0,1,3,.15,2.36,2.36,0,0,1,1,1.14l-1,.47a1.73,1.73,0,0,0-1.69-.95,1.83,1.83,0,0,0-1,.28.78.78,0,0,0-.44.69.8.8,0,0,0,.3.64,2.54,2.54,0,0,0,.93.39l1,.27a3.49,3.49,0,0,1,1.59.79,1.75,1.75,0,0,1,.53,1.28,1.88,1.88,0,0,1-.38,1.16,2.41,2.41,0,0,1-1,.76,3.68,3.68,0,0,1-1.43.27A3.25,3.25,0,0,1,107.13,84.78Z"/><path d="M115.05,85.17a1.73,1.73,0,0,1-1-1,2.27,2.27,0,0,1-.14-.87V79h-1.25V78h1.25v-2h1.19v2h1.73V79h-1.73v4a1.44,1.44,0,0,0,.22.89,1,1,0,0,0,.77.31,1.43,1.43,0,0,0,.78-.24v1.16a1.39,1.39,0,0,1-.42.14,2.83,2.83,0,0,1-.56,0A2.11,2.11,0,0,1,115.05,85.17Z"/><circle class="cls-9" cx="36" cy="80.86" r="18"/><rect class="cls-10" x="29.61" y="74.34" width="12.79" height="12.79"/><line class="cls-11" x1="31.97" y1="74.34" x2="31.97" y2="71.27"/><line class="cls-11" x1="36" y1="74.34" x2="36" y2="71.27"/><line class="cls-11" x1="40.03" y1="74.34" x2="40.03" y2="71.27"/><line class="cls-11" x1="31.97" y1="90.45" x2="31.97" y2="87.37"/><line class="cls-11" x1="36" y1="90.45" x2="36" y2="87.37"/><line class="cls-11" x1="40.03" y1="90.45" x2="40.03" y2="87.37"/><line class="cls-11" x1="29.49" y1="84.88" x2="26.41" y2="84.88"/><line class="cls-11" x1="29.49" y1="80.86" x2="26.41" y2="80.86"/><line class="cls-11" x1="29.49" y1="76.83" x2="26.41" y2="76.83"/><line class="cls-11" x1="45.59" y1="84.88" x2="42.51" y2="84.88"/><line class="cls-11" x1="45.59" y1="80.86" x2="42.51" y2="80.86"/><line class="cls-11" x1="45.59" y1="76.83" x2="42.51" y2="76.83"/><rect class="cls-7" x="33.16" y="77.9" width="5.68" height="5.68" rx="2" ry="2"/><line class="cls-4" x1="139.57" y1="80.86" x2="205.53" y2="80.86"/><polygon class="cls-5" points="147.54 87.64 140.75 80.86 147.54 74.08 141.78 74.08 135 80.86 141.78 87.64 147.54 87.64"/><polygon class="cls-5" points="197.56 87.64 204.35 80.86 197.56 74.08 203.32 74.08 210.1 80.86 203.32 87.64 197.56 87.64"/><line class="cls-2" x1="268.67" y1="81" x2="349.53" y2="81"/><polygon class="cls-3" points="276.64 87.78 269.85 81 276.64 74.22 270.88 74.22 264.1 81 270.88 87.78 276.64 87.78"/><polygon class="cls-3" points="341.56 87.78 348.35 81 341.56 74.22 347.32 74.22 354.1 81 347.32 87.78 341.56 87.78"/><line class="cls-2" x1="412.67" y1="81" x2="475.53" y2="81"/><polygon class="cls-3" points="420.64 87.78 413.85 81 420.64 74.22 414.88 74.22 408.1 81 414.88 87.78 420.64 87.78"/><polygon class="cls-3" points="467.56 87.78 474.35 81 467.56 74.22 473.32 74.22 480.1 81 473.32 87.78 467.56 87.78"/></g></svg>