<svg id="a5c5b42d-554a-4594-8635-9a61f33839e9" data-name="Layer 1" xmlns="http://www.w3.org/2000/svg" viewBox="0 0 680.3 529.27"><defs><style>.af7c47be-6933-4b23-a6c1-c67a6c8c2ff8,.b437ad3e-8ed5-4d09-918f-27cc875d6431,.b5999476-bb9e-4acf-9bbe-270827c10299,.bf7b7c25-71fa-4ed0-832c-d5b9f66f9bb8,.f40b9241-6ed7-4f30-8939-159e73476f22,.f88fea4e-4742-4a4b-b7e5-e1515bdd2ea2{fill:none;}.b437ad3e-8ed5-4d09-918f-27cc875d6431{stroke:#466bb0;stroke-dasharray:10.04 10.04;}.b437ad3e-8ed5-4d09-918f-27cc875d6431,.b5999476-bb9e-4acf-9bbe-270827c10299,.bf7b7c25-71fa-4ed0-832c-d5b9f66f9bb8,.f40b9241-6ed7-4f30-8939-159e73476f22{stroke-linejoin:round;}.a579a7ed-aadf-4b54-8a06-c3cb87c15e37,.b6c7b84f-a582-4e2d-8877-ee1b26fcc8f0,.eaaff1b2-791b-4c10-9204-213ccd192712{font-size:12px;}.b6c7b84f-a582-4e2d-8877-ee1b26fcc8f0{font-family:GoogleSansDisplay-Bold, Google Sans Display;font-weight:700;}.b1161681-6970-419a-a39b-0e8b8136d61c{letter-spacing:-0.01em;}.bf5c3ded-1a05-4c82-8ca1-b5d98d48293f{letter-spacing:0.01em;}.f2698ac6-a6b6-435a-b607-b560f986d1af{letter-spacing:0em;}.b5cf4c63-ce28-4906-a297-baf011abf551{letter-spacing:-0.01em;}.ae75ba3c-e324-442b-aad4-b9dc40db6d16{letter-spacing:0em;}.a33761f2-8c0f-4cad-8231-821fa10f6b3e,.a34718db-0940-42f7-9425-dfb5027ef36e,.a579a7ed-aadf-4b54-8a06-c3cb87c15e37,.eaaff1b2-791b-4c10-9204-213ccd192712{font-family:GoogleSansDisplay-Regular, Google Sans Display;}.f44371ab-9ad0-40b9-aab1-adde12075c4b{letter-spacing:-0.03em;}.ba56412b-68fc-4a7a-8121-6d06d1c46d31{letter-spacing:0em;}.a4d2286f-3e33-4bd8-a8db-47e457e234fd{letter-spacing:-0.02em;}.e04c2541-8f21-41e0-b661-703d1d6ca08d{letter-spacing:-0.02em;}.a579a7ed-aadf-4b54-8a06-c3cb87c15e37,.efb8c11f-e7c1-47ed-85e8-31cd64700268{letter-spacing:-0.01em;}.be365032-7b58-41e1-b09d-16d483bfde58{letter-spacing:0em;}.a47e4460-59fc-4121-bfc1-cffd814313f8{letter-spacing:-0.03em;}.b50a3190-9296-4b96-96a5-b41dd1150ec2{fill:#e5e5e4;}.b7ae5f0a-ca33-4750-9ea1-700e96a194d4{fill:#fff;}.a33761f2-8c0f-4cad-8231-821fa10f6b3e,.a34718db-0940-42f7-9425-dfb5027ef36e{font-size:14px;}.e98a7630-e0c5-45fe-bec3-7ba9edd00f2e{letter-spacing:0.02em;}.afbe8e18-561e-403e-a042-af3b80341f3f{letter-spacing:0em;}.b64f5704-3be3-437c-9bc4-956dc14a8184{letter-spacing:0em;}.e3822b1c-3c80-4409-aad4-e9e4151ed893{fill:#767576;}.af7c47be-6933-4b23-a6c1-c67a6c8c2ff8,.b5999476-bb9e-4acf-9bbe-270827c10299{stroke:#fff;}.af7c47be-6933-4b23-a6c1-c67a6c8c2ff8,.b5999476-bb9e-4acf-9bbe-270827c10299,.f40b9241-6ed7-4f30-8939-159e73476f22,.f88fea4e-4742-4a4b-b7e5-e1515bdd2ea2{stroke-width:2px;}.af7c47be-6933-4b23-a6c1-c67a6c8c2ff8,.f40b9241-6ed7-4f30-8939-159e73476f22{stroke-linecap:round;}.af7c47be-6933-4b23-a6c1-c67a6c8c2ff8,.f88fea4e-4742-4a4b-b7e5-e1515bdd2ea2{stroke-miterlimit:10;}.bf7b7c25-71fa-4ed0-832c-d5b9f66f9bb8{stroke:#b14d9d;stroke-width:3px;}.adb2b010-b8e3-48dc-bb8a-22076a24de0c{letter-spacing:-0.03em;}.b6cef89a-d1c6-4bdb-a52b-f612b960974f{letter-spacing:-0.01em;}.f88fea4e-4742-4a4b-b7e5-e1515bdd2ea2{stroke:#00a14b;}.b22d6fca-2688-4d3b-adad-b92a75e9967f{fill:#00a14b;}.e3826122-7a95-453b-bb1c-cf9fadebab46{fill:#e4e4e3;}.a33761f2-8c0f-4cad-8231-821fa10f6b3e{isolation:isolate;}.a4fff136-eded-4daa-bf40-7f328f7f3a22{letter-spacing:0em;}.f12d2a85-9e4c-458e-8c3f-08f829e7cc85{letter-spacing:0.01em;}.e1d120ee-50d2-4396-b9dd-5fc76c14505e{letter-spacing:-0.01em;}.a04affa9-9be7-4e29-bfe2-ec67615c7f85{fill:#476baf;}.eb67a601-0f6d-4541-80c3-56ebb9c40599{fill:#476bae;}.f40b9241-6ed7-4f30-8939-159e73476f22{stroke:#486baf;stroke-dasharray:6 12;}.a6c08760-abdd-4cd1-9741-a635d46a9578{fill:#486baf;}.ac39d479-865b-4fc7-9330-92767da8324a{letter-spacing:-0.01em;}.a7047cf3-88e7-4777-b885-9a3e1b574a2f{letter-spacing:0.02em;}.ae9fa4fb-6e66-4b8b-b49f-5bac1f495831{letter-spacing:0.01em;}.a5eb64ed-3f33-4856-ad00-1636fdfdbdcb{letter-spacing:-0.02em;}.ab8960ee-b972-40a2-a929-2f5c46b9f041{letter-spacing:0.01em;}.b9358075-342d-49d5-8823-b713f3446eab{letter-spacing:-0.02em;}.bd8215a1-d82f-4c1f-921e-aaa2991466b2{fill:#009345;}.bd8215a1-d82f-4c1f-921e-aaa2991466b2,.ea8fc1ff-d5bb-4051-9d7f-9de70f7b69e3{opacity:0.1;}.ea8fc1ff-d5bb-4051-9d7f-9de70f7b69e3{fill:#466bb0;}</style></defs><title>arch-r1.5_arch-no-nodes_arch-no-nodes</title><rect class="b437ad3e-8ed5-4d09-918f-27cc875d6431" x="49.9" y="15.88" width="580.5" height="512.88" rx="10"/><text class="b6c7b84f-a582-4e2d-8877-ee1b26fcc8f0" transform="translate(49.9 10.3)">I<tspan class="b1161681-6970-419a-a39b-0e8b8136d61c" x="3.52" y="0">s</tspan><tspan class="bf5c3ded-1a05-4c82-8ca1-b5d98d48293f" x="9.38" y="0">t</tspan><tspan class="b1161681-6970-419a-a39b-0e8b8136d61c" x="14.36" y="0">i</tspan><tspan class="f2698ac6-a6b6-435a-b607-b560f986d1af" x="17.56" y="0">o </tspan><tspan class="b5cf4c63-ce28-4906-a297-baf011abf551" x="27.46" y="0">M</tspan><tspan class="ae75ba3c-e324-442b-aad4-b9dc40db6d16" x="38.08" y="0">e</tspan><tspan class="f2698ac6-a6b6-435a-b607-b560f986d1af" x="45" y="0">sh</tspan></text><text class="eaaff1b2-791b-4c10-9204-213ccd192712" transform="translate(5.53 204.67)">I<tspan class="b1161681-6970-419a-a39b-0e8b8136d61c" x="2.93" y="0">n</tspan><tspan x="9.52" y="0">g</tspan><tspan class="f44371ab-9ad0-40b9-aab1-adde12075c4b" x="16.57" y="0">r</tspan><tspan class="bf5c3ded-1a05-4c82-8ca1-b5d98d48293f" x="20.6" y="0">e</tspan><tspan class="ba56412b-68fc-4a7a-8121-6d06d1c46d31" x="27.26" y="0">ss</tspan><tspan x="3.11" y="14.4">t</tspan><tspan class="a4d2286f-3e33-4bd8-a8db-47e457e234fd" x="7.41" y="14.4">r</tspan><tspan class="b5cf4c63-ce28-4906-a297-baf011abf551" x="11.56" y="14.4">a</tspan><tspan class="e04c2541-8f21-41e0-b661-703d1d6ca08d" x="17.71" y="14.4">f</tspan><tspan class="efb8c11f-e7c1-47ed-85e8-31cd64700268" x="21.91" y="14.4">f</tspan><tspan class="be365032-7b58-41e1-b09d-16d483bfde58" x="26.23" y="14.4">i</tspan><tspan x="28.85" y="14.4">c</tspan></text><text class="eaaff1b2-791b-4c10-9204-213ccd192712" transform="translate(634.62 204.67)"><tspan class="efb8c11f-e7c1-47ed-85e8-31cd64700268">E</tspan><tspan class="b1161681-6970-419a-a39b-0e8b8136d61c" x="6.48" y="0">n</tspan><tspan x="13.07" y="0">g</tspan><tspan class="a47e4460-59fc-4121-bfc1-cffd814313f8" x="20.12" y="0">r</tspan><tspan class="ae75ba3c-e324-442b-aad4-b9dc40db6d16" x="24.16" y="0">e</tspan><tspan x="30.82" y="0">ss</tspan><tspan x="4.89" y="14.4">t</tspan><tspan class="a4d2286f-3e33-4bd8-a8db-47e457e234fd" x="9.19" y="14.4">r</tspan><tspan class="b5cf4c63-ce28-4906-a297-baf011abf551" x="13.34" y="14.4">a</tspan><tspan class="e04c2541-8f21-41e0-b661-703d1d6ca08d" x="19.48" y="14.4">f</tspan><tspan class="efb8c11f-e7c1-47ed-85e8-31cd64700268" x="23.68" y="14.4">f</tspan><tspan class="be365032-7b58-41e1-b09d-16d483bfde58" x="28" y="14.4">i</tspan><tspan x="30.63" y="14.4">c</tspan></text><rect class="b50a3190-9296-4b96-96a5-b41dd1150ec2" x="120.77" y="84.88" width="136.06" height="136.06" rx="3"/><rect class="b50a3190-9296-4b96-96a5-b41dd1150ec2" x="115.06" y="79.16" width="136.06" height="136.06" rx="3"/><rect class="b7ae5f0a-ca33-4750-9ea1-700e96a194d4" x="124.59" y="86.74" width="117" height="40.35" rx="3"/><text class="a34718db-0940-42f7-9425-dfb5027ef36e" transform="translate(176.41 111.43)">Se<tspan class="e98a7630-e0c5-45fe-bec3-7ba9edd00f2e" x="15.53" y="0">r</tspan><tspan x="20.89" y="0">v</tspan><tspan class="afbe8e18-561e-403e-a042-af3b80341f3f" x="27.92" y="0">ic</tspan><tspan class="b64f5704-3be3-437c-9bc4-956dc14a8184" x="38.39" y="0">e</tspan><tspan class="a47e4460-59fc-4121-bfc1-cffd814313f8" x="46.09" y="0"> </tspan><tspan x="48.92" y="0">A</tspan></text><circle class="e3822b1c-3c80-4409-aad4-e9e4151ed893" cx="151.04" cy="106.92" r="18"/><rect class="b5999476-bb9e-4acf-9bbe-270827c10299" x="144.65" y="100.4" width="12.79" height="12.79"/><line class="af7c47be-6933-4b23-a6c1-c67a6c8c2ff8" x1="147.02" y1="100.4" x2="147.02" y2="97.33"/><line class="af7c47be-6933-4b23-a6c1-c67a6c8c2ff8" x1="151.04" y1="100.4" x2="151.04" y2="97.33"/><line class="af7c47be-6933-4b23-a6c1-c67a6c8c2ff8" x1="155.07" y1="100.4" x2="155.07" y2="97.33"/><line class="af7c47be-6933-4b23-a6c1-c67a6c8c2ff8" x1="147.02" y1="116.51" x2="147.02" y2="113.43"/><line class="af7c47be-6933-4b23-a6c1-c67a6c8c2ff8" x1="151.04" y1="116.51" x2="151.04" y2="113.43"/><line class="af7c47be-6933-4b23-a6c1-c67a6c8c2ff8" x1="155.07" y1="116.51" x2="155.07" y2="113.43"/><line class="af7c47be-6933-4b23-a6c1-c67a6c8c2ff8" x1="144.53" y1="110.94" x2="141.45" y2="110.94"/><line class="af7c47be-6933-4b23-a6c1-c67a6c8c2ff8" x1="144.53" y1="106.92" x2="141.45" y2="106.92"/><line class="af7c47be-6933-4b23-a6c1-c67a6c8c2ff8" x1="144.53" y1="102.89" x2="141.45" y2="102.89"/><line class="af7c47be-6933-4b23-a6c1-c67a6c8c2ff8" x1="160.64" y1="110.94" x2="157.56" y2="110.94"/><line class="af7c47be-6933-4b23-a6c1-c67a6c8c2ff8" x1="160.64" y1="106.92" x2="157.56" y2="106.92"/><line class="af7c47be-6933-4b23-a6c1-c67a6c8c2ff8" x1="160.64" y1="102.89" x2="157.56" y2="102.89"/><rect class="b7ae5f0a-ca33-4750-9ea1-700e96a194d4" x="148.2" y="103.96" width="5.68" height="5.68" rx="2"/><rect class="b7ae5f0a-ca33-4750-9ea1-700e96a194d4" x="124.59" y="164.71" width="117" height="39.08" rx="3"/><polygon class="bf7b7c25-71fa-4ed0-832c-d5b9f66f9bb8" points="164.85 191.9 164.85 176.6 151.59 168.95 138.33 176.6 138.33 191.9 151.59 199.55 164.85 191.9"/><text class="a34718db-0940-42f7-9425-dfb5027ef36e" transform="translate(188.39 188.69)">P<tspan class="adb2b010-b8e3-48dc-bb8a-22076a24de0c" x="8.04" y="0">r</tspan><tspan class="b6cef89a-d1c6-4bdb-a52b-f612b960974f" x="12.74" y="0">o</tspan><tspan x="20.61" y="0">xy</tspan></text><rect class="b50a3190-9296-4b96-96a5-b41dd1150ec2" x="434.89" y="84.88" width="136.06" height="136.06" rx="3"/><rect class="b50a3190-9296-4b96-96a5-b41dd1150ec2" x="429.18" y="79.16" width="136.06" height="136.06" rx="3"/><rect class="b7ae5f0a-ca33-4750-9ea1-700e96a194d4" x="438.71" y="86.74" width="117" height="40.35" rx="3"/><text class="a34718db-0940-42f7-9425-dfb5027ef36e" transform="translate(490.77 111.43)">Se<tspan class="e98a7630-e0c5-45fe-bec3-7ba9edd00f2e" x="15.53" y="0">r</tspan><tspan x="20.89" y="0">v</tspan><tspan class="afbe8e18-561e-403e-a042-af3b80341f3f" x="27.92" y="0">ic</tspan><tspan class="b64f5704-3be3-437c-9bc4-956dc14a8184" x="38.39" y="0">e B</tspan></text><circle class="e3822b1c-3c80-4409-aad4-e9e4151ed893" cx="465.16" cy="106.92" r="18"/><rect class="b5999476-bb9e-4acf-9bbe-270827c10299" x="458.77" y="100.4" width="12.79" height="12.79"/><line class="af7c47be-6933-4b23-a6c1-c67a6c8c2ff8" x1="461.14" y1="100.4" x2="461.14" y2="97.33"/><line class="af7c47be-6933-4b23-a6c1-c67a6c8c2ff8" x1="465.16" y1="100.4" x2="465.16" y2="97.33"/><line class="af7c47be-6933-4b23-a6c1-c67a6c8c2ff8" x1="469.19" y1="100.4" x2="469.19" y2="97.33"/><line class="af7c47be-6933-4b23-a6c1-c67a6c8c2ff8" x1="461.14" y1="116.51" x2="461.14" y2="113.43"/><line class="af7c47be-6933-4b23-a6c1-c67a6c8c2ff8" x1="465.16" y1="116.51" x2="465.16" y2="113.43"/><line class="af7c47be-6933-4b23-a6c1-c67a6c8c2ff8" x1="469.19" y1="116.51" x2="469.19" y2="113.43"/><line class="af7c47be-6933-4b23-a6c1-c67a6c8c2ff8" x1="458.65" y1="110.94" x2="455.57" y2="110.94"/><line class="af7c47be-6933-4b23-a6c1-c67a6c8c2ff8" x1="458.65" y1="106.92" x2="455.57" y2="106.92"/><line class="af7c47be-6933-4b23-a6c1-c67a6c8c2ff8" x1="458.65" y1="102.89" x2="455.57" y2="102.89"/><line class="af7c47be-6933-4b23-a6c1-c67a6c8c2ff8" x1="474.76" y1="110.94" x2="471.68" y2="110.94"/><line class="af7c47be-6933-4b23-a6c1-c67a6c8c2ff8" x1="474.76" y1="106.92" x2="471.68" y2="106.92"/><line class="af7c47be-6933-4b23-a6c1-c67a6c8c2ff8" x1="474.76" y1="102.89" x2="471.68" y2="102.89"/><rect class="b7ae5f0a-ca33-4750-9ea1-700e96a194d4" x="462.32" y="103.96" width="5.68" height="5.68" rx="2"/><rect class="b7ae5f0a-ca33-4750-9ea1-700e96a194d4" x="438.71" y="164.71" width="117" height="39.08" rx="3"/><polygon class="bf7b7c25-71fa-4ed0-832c-d5b9f66f9bb8" points="478.97 191.9 478.97 176.6 465.71 168.95 452.45 176.6 452.45 191.9 465.71 199.55 478.97 191.9"/><text class="a34718db-0940-42f7-9425-dfb5027ef36e" transform="translate(502.51 188.69)">P<tspan class="adb2b010-b8e3-48dc-bb8a-22076a24de0c" x="8.04" y="0">r</tspan><tspan class="b6cef89a-d1c6-4bdb-a52b-f612b960974f" x="12.74" y="0">o</tspan><tspan x="20.61" y="0">xy</tspan></text><line class="f88fea4e-4742-4a4b-b7e5-e1515bdd2ea2" x1="151.4" y1="134.37" x2="151.4" y2="164.71"/><polygon class="b22d6fca-2688-4d3b-adad-b92a75e9967f" points="146.41 135.83 151.4 127.19 156.38 135.83 146.41 135.83"/><line class="f88fea4e-4742-4a4b-b7e5-e1515bdd2ea2" x1="224.68" y1="127.19" x2="224.68" y2="157.53"/><polygon class="b22d6fca-2688-4d3b-adad-b92a75e9967f" points="219.69 156.07 224.68 164.71 229.66 156.07 219.69 156.07"/><line class="f88fea4e-4742-4a4b-b7e5-e1515bdd2ea2" x1="241.59" y1="184.25" x2="431.53" y2="184.25"/><polygon class="b22d6fca-2688-4d3b-adad-b92a75e9967f" points="430.07 189.23 438.71 184.25 430.07 179.26 430.07 189.23"/><line class="f88fea4e-4742-4a4b-b7e5-e1515bdd2ea2" y1="184.25" x2="117.41" y2="184.25"/><polygon class="b22d6fca-2688-4d3b-adad-b92a75e9967f" points="115.95 189.23 124.59 184.25 115.95 179.26 115.95 189.23"/><line class="f88fea4e-4742-4a4b-b7e5-e1515bdd2ea2" x1="555.71" y1="184.25" x2="673.12" y2="184.25"/><polygon class="b22d6fca-2688-4d3b-adad-b92a75e9967f" points="671.66 189.23 680.3 184.25 671.66 179.26 671.66 189.23"/><line class="f88fea4e-4742-4a4b-b7e5-e1515bdd2ea2" x1="465.52" y1="164.71" x2="465.52" y2="134.37"/><polygon class="b22d6fca-2688-4d3b-adad-b92a75e9967f" points="470.5 135.83 465.52 127.19 460.53 135.83 470.5 135.83"/><line class="f88fea4e-4742-4a4b-b7e5-e1515bdd2ea2" x1="528.97" y1="157.53" x2="528.97" y2="127.19"/><polygon class="b22d6fca-2688-4d3b-adad-b92a75e9967f" points="533.95 156.07 528.97 164.71 523.98 156.07 533.95 156.07"/><path class="e3826122-7a95-453b-bb1c-cf9fadebab46" d="M404.6,453.38H275.7a3.08,3.08,0,0,1-3-3v-66a3.08,3.08,0,0,1,3-3H404.6a3.08,3.08,0,0,1,3,3v66A3,3,0,0,1,404.6,453.38Z"/><path class="b7ae5f0a-ca33-4750-9ea1-700e96a194d4" d="M395.7,444.38h-111a3.08,3.08,0,0,1-3-3v-48a3.08,3.08,0,0,1,3-3h111a3.08,3.08,0,0,1,3,3v48A3.08,3.08,0,0,1,395.7,444.38Z"/><text class="a33761f2-8c0f-4cad-8231-821fa10f6b3e" transform="translate(345 422.2)">i<tspan class="a4fff136-eded-4daa-bf40-7f328f7f3a22" x="3.14" y="0">s</tspan><tspan class="f12d2a85-9e4c-458e-8c3f-08f829e7cc85" x="9.55" y="0">t</tspan><tspan class="e1d120ee-50d2-4396-b9dd-5fc76c14505e" x="14.63" y="0">i</tspan><tspan x="17.7" y="0">od</tspan></text><polygon class="a04affa9-9be7-4e29-bfe2-ec67615c7f85" points="295.4 432.88 322.9 432.88 305.7 437.98 295.4 432.88"/><polygon class="a04affa9-9be7-4e29-bfe2-ec67615c7f85" points="295.4 431.08 305.7 429.38 305.7 410.48 295.4 431.08"/><polygon class="eb67a601-0f6d-4541-80c3-56ebb9c40599" points="307.4 429.38 322.9 431.08 307.4 396.78 307.4 429.38"/><polyline class="f40b9241-6ed7-4f30-8939-159e73476f22" points="340.2 378.31 340.2 333 183.09 333 183.09 210.96"/><polygon class="a6c08760-abdd-4cd1-9741-a635d46a9578" points="188.08 212.42 183.09 203.79 178.1 212.42 188.08 212.42"/><polyline class="f40b9241-6ed7-4f30-8939-159e73476f22" points="340.2 333 497.21 333 497.21 210.96"/><polygon class="a6c08760-abdd-4cd1-9741-a635d46a9578" points="502.2 212.42 497.21 203.79 492.22 212.42 502.2 212.42"/><text class="eaaff1b2-791b-4c10-9204-213ccd192712" transform="translate(313.67 297.39)">Di<tspan class="bf5c3ded-1a05-4c82-8ca1-b5d98d48293f" x="11.11" y="0">s</tspan><tspan class="b1161681-6970-419a-a39b-0e8b8136d61c" x="16.73" y="0">c</tspan><tspan class="ac39d479-865b-4fc7-9330-92767da8324a" x="23.08" y="0">ov</tspan><tspan x="35.66" y="0">e</tspan><tspan class="a7047cf3-88e7-4777-b885-9a3e1b574a2f" x="42.26" y="0">r</tspan><tspan class="f2698ac6-a6b6-435a-b607-b560f986d1af" x="46.92" y="0">y</tspan><tspan class="a4d2286f-3e33-4bd8-a8db-47e457e234fd" x="-10.16" y="14.4">C</tspan><tspan class="b5cf4c63-ce28-4906-a297-baf011abf551" x="-1.54" y="14.4">onf</tspan><tspan class="b1161681-6970-419a-a39b-0e8b8136d61c" x="16.12" y="14.4">ig</tspan><tspan x="25.74" y="14.4">u</tspan><tspan class="a4d2286f-3e33-4bd8-a8db-47e457e234fd" x="32.39" y="14.4">r</tspan><tspan class="b5cf4c63-ce28-4906-a297-baf011abf551" x="36.54" y="14.4">a</tspan><tspan class="ae75ba3c-e324-442b-aad4-b9dc40db6d16" x="42.68" y="14.4">t</tspan><tspan class="be365032-7b58-41e1-b09d-16d483bfde58" x="47.04" y="14.4">i</tspan><tspan class="efb8c11f-e7c1-47ed-85e8-31cd64700268" x="49.67" y="14.4">o</tspan><tspan x="56.47" y="14.4">n</tspan><tspan class="a4d2286f-3e33-4bd8-a8db-47e457e234fd" x="-4.76" y="28.8">C</tspan><tspan class="f2698ac6-a6b6-435a-b607-b560f986d1af" x="3.87" y="28.8">e</tspan><tspan class="ae9fa4fb-6e66-4b8b-b49f-5bac1f495831" x="10.47" y="28.8">r</tspan><tspan class="bf5c3ded-1a05-4c82-8ca1-b5d98d48293f" x="14.98" y="28.8">t</tspan><tspan x="19.34" y="28.8">i</tspan><tspan class="efb8c11f-e7c1-47ed-85e8-31cd64700268" x="22.03" y="28.8">f</tspan><tspan class="b1161681-6970-419a-a39b-0e8b8136d61c" x="26.35" y="28.8">ic</tspan><tspan class="b5cf4c63-ce28-4906-a297-baf011abf551" x="35.32" y="28.8">a</tspan><tspan class="a5eb64ed-3f33-4856-ad00-1636fdfdbdcb" x="41.47" y="28.8">t</tspan><tspan class="bf5c3ded-1a05-4c82-8ca1-b5d98d48293f" x="45.5" y="28.8">e</tspan><tspan class="ba56412b-68fc-4a7a-8121-6d06d1c46d31" x="52.16" y="28.8">s</tspan></text><text class="a579a7ed-aadf-4b54-8a06-c3cb87c15e37" transform="translate(308.12 176.95)">M<tspan class="ab8960ee-b972-40a2-a929-2f5c46b9f041" x="10.26" y="0">e</tspan><tspan class="ba56412b-68fc-4a7a-8121-6d06d1c46d31" x="16.92" y="0">sh t</tspan><tspan class="a4d2286f-3e33-4bd8-a8db-47e457e234fd" x="36.22" y="0">r</tspan><tspan class="b5cf4c63-ce28-4906-a297-baf011abf551" x="40.37" y="0">a</tspan><tspan class="e04c2541-8f21-41e0-b661-703d1d6ca08d" x="46.51" y="0">f</tspan><tspan x="50.71" y="0">f</tspan><tspan class="be365032-7b58-41e1-b09d-16d483bfde58" x="55.03" y="0">i</tspan><tspan class="ba56412b-68fc-4a7a-8121-6d06d1c46d31" x="57.66" y="0">c</tspan></text><text class="eaaff1b2-791b-4c10-9204-213ccd192712" transform="translate(68.01 364.05)"><tspan class="a4d2286f-3e33-4bd8-a8db-47e457e234fd">C</tspan><tspan class="b5cf4c63-ce28-4906-a297-baf011abf551" x="8.63" y="0">o</tspan><tspan class="b9358075-342d-49d5-8823-b713f3446eab" x="15.43" y="0">n</tspan><tspan class="ba56412b-68fc-4a7a-8121-6d06d1c46d31" x="21.78" y="0">t</tspan><tspan class="f44371ab-9ad0-40b9-aab1-adde12075c4b" x="26.08" y="0">r</tspan><tspan class="b1161681-6970-419a-a39b-0e8b8136d61c" x="30.11" y="0">o</tspan><tspan class="f2698ac6-a6b6-435a-b607-b560f986d1af" x="36.97" y="0">l </tspan><tspan class="efb8c11f-e7c1-47ed-85e8-31cd64700268" x="42.26" y="0">p</tspan><tspan class="be365032-7b58-41e1-b09d-16d483bfde58" x="49.18" y="0">l</tspan><tspan x="51.62" y="0">ane</tspan></text><text class="eaaff1b2-791b-4c10-9204-213ccd192712" transform="translate(69.95 116.19)">D<tspan class="b5cf4c63-ce28-4906-a297-baf011abf551" x="8.42" y="0">at</tspan><tspan class="f2698ac6-a6b6-435a-b607-b560f986d1af" x="18.74" y="0">a</tspan><tspan class="efb8c11f-e7c1-47ed-85e8-31cd64700268" x="-1.93" y="14.4">p</tspan><tspan class="be365032-7b58-41e1-b09d-16d483bfde58" x="4.98" y="14.4">l</tspan><tspan x="7.43" y="14.4">ane</tspan></text><rect class="bd8215a1-d82f-4c1f-921e-aaa2991466b2" x="68.01" y="136.41" width="549.99" height="95.67" rx="9"/><rect class="ea8fc1ff-d5bb-4051-9d7f-9de70f7b69e3" x="68.01" y="369.26" width="549.99" height="96.23" rx="9"/></svg>