<svg xmlns="http://www.w3.org/2000/svg" xmlns:xlink="http://www.w3.org/1999/xlink" fill="none" stroke="none" stroke-linecap="square" stroke-miterlimit="10" version="1.1" viewBox="0 0 960 720"><clipPath id="p.0"><path d="m0 0l960.0 0l0 720.0l-960.0 0l0 -720.0z" clip-rule="nonzero"/></clipPath><g clip-path="url(#p.0)"><path fill="#000" fill-opacity="0" fill-rule="evenodd" d="m0 0l960.0 0l0 720.0l-960.0 0z"/><path fill="#000" fill-opacity="0" fill-rule="evenodd" d="m85.60095 172.41507l0 0c0 -53.73359 43.559692 -97.293274 97.29329 -97.293274l600.3741 0c25.803772 0 50.55072 10.250511 68.79675 28.496544c18.246033 18.246025 28.496521 42.992958 28.496521 68.79673l0 389.16147c0 53.73358 -43.559692 97.293274 -97.293274 97.293274l-600.3741 0c-53.733597 0 -97.29329 -43.559692 -97.29329 -97.293274z"/><path fill-rule="evenodd" stroke="#46f" stroke-dasharray="8 6" stroke-linecap="butt" stroke-linejoin="round" stroke-width="2" d="m85.60095 172.41507l0 0c0 -53.73359 43.559692 -97.293274 97.29329 -97.293274l600.3741 0c25.803772 0 50.55072 10.250511 68.79675 28.496544c18.246033 18.246025 28.496521 42.992958 28.496521 68.79673l0 389.16147c0 53.73358 -43.559692 97.293274 -97.293274 97.293274l-600.3741 0c-53.733597 0 -97.29329 -43.559692 -97.29329 -97.293274z"/><path fill="#000" fill-opacity="0" fill-rule="evenodd" d="m172.53432 189.98166l0 0c0 -23.448654 19.008896 -42.457535 42.45755 -42.457535l169.82506 0l0 0c11.260468 0 22.059692 4.4731903 30.022034 12.435516c7.9623413 7.9623413 12.435516 18.761581 12.435516 30.022018l0 390.10855c0 23.44867 -19.00888 42.45752 -42.45755 42.45752l-169.82506 0c-23.448654 0 -42.45755 -19.00885 -42.45755 -42.45752z"/><path fill-rule="evenodd" stroke="#ff6400" stroke-linecap="butt" stroke-linejoin="round" stroke-width="2" d="m172.53432 189.98166l0 0c0 -23.448654 19.008896 -42.457535 42.45755 -42.457535l169.82506 0l0 0c11.260468 0 22.059692 4.4731903 30.022034 12.435516c7.9623413 7.9623413 12.435516 18.761581 12.435516 30.022018l0 390.10855c0 23.44867 -19.00888 42.45752 -42.45755 42.45752l-169.82506 0c-23.448654 0 -42.45755 -19.00885 -42.45755 -42.45752z"/><path fill="#000" fill-opacity="0" fill-rule="evenodd" d="m91.367455 38.13273l148.8819 0l0 56.377953l-148.8819 0z"/><path fill="#000" fill-rule="nonzero" d="m101.648705 51.039604l1.359375 0l0 11.453125l-1.359375 0l0 -11.453125zm6.4981384 11.703125q-1.3125 0 -2.203125 -0.609375q-0.875 -0.609375 -1.234375 -1.578125l1.203125 -0.546875q0.3125 0.734375 0.90625 1.140625q0.609375 0.40625 1.328125 0.40625q0.765625 0 1.3125 -0.3125q0.546875 -0.3125 0.546875 -0.890625q0 -0.515625 -0.4375 -0.828125q-0.4375 -0.3125 -1.359375 -0.53125l-1.0 -0.265625q-0.96875 -0.234375 -1.59375 -0.8125q-0.625 -0.578125 -0.625 -1.484375q0 -0.703125 0.421875 -1.234375q0.421875 -0.546875 1.125 -0.828125q0.703125 -0.296875 1.53125 -0.296875q1.0625 0 1.90625 0.46875q0.84375 0.46875 1.1875 1.296875l-1.171875 0.546875q-0.546875 -1.09375 -1.9375 -1.09375q-0.671875 0 -1.1875 0.3125q-0.5 0.3125 -0.5 0.796875q0 0.453125 0.34375 0.734375q0.359375 0.265625 1.0625 0.453125l1.1875 0.296875q1.203125 0.3125 1.8125 0.90625q0.609375 0.59375 0.609375 1.46875q0 0.75 -0.4375 1.3125q-0.4375 0.5625 -1.171875 0.875q-0.734375 0.296875 -1.625 0.296875zm7.7692566 -0.125q-0.5 0 -0.921875 -0.15625q-0.421875 -0.15625 -0.703125 -0.4375q-0.640625 -0.609375 -0.640625 -1.671875l0 -4.78125l-1.421875 0l0 -1.234375l1.421875 0l0 -2.3125l1.359375 0l0 2.3125l2.0 0l0 1.234375l-2.0 0l0 4.4375q0 0.671875 0.25 1.0q0.3125 0.34375 0.890625 0.34375q0.484375 0 0.890625 -0.265625l0 1.328125q-0.234375 0.109375 -0.484375 0.15625q-0.25 0.046875 -0.640625 0.046875zm3.607895 -9.78125q-0.40625 0 -0.703125 -0.28125q-0.28125 -0.296875 -0.28125 -0.703125q0 -0.421875 0.28125 -0.6875q0.296875 -0.28125 0.703125 -0.28125q0.40625 0 0.6875 0.28125q0.28125 0.265625 0.28125 0.6875q0 0.40625 -0.28125 0.703125q-0.28125 0.28125 -0.6875 0.28125zm-0.671875 1.5l1.359375 0l0 8.15625l-1.359375 0l0 -8.15625zm7.1610107 8.40625q-1.203125 0 -2.171875 -0.5625q-0.953125 -0.578125 -1.484375 -1.5625q-0.53125 -1.0 -0.53125 -2.203125q0 -1.203125 0.53125 -2.1875q0.53125 -1.0 1.484375 -1.578125q0.96875 -0.578125 2.171875 -0.578125q1.203125 0 2.1562424 0.578125q0.96875 0.578125 1.5 1.578125q0.53125 0.984375 0.53125 2.1875q0 1.203125 -0.53125 2.203125q-0.53125 0.984375 -1.5 1.5625q-0.9531174 0.5625 -2.1562424 0.5625zm0 -1.21875q0.75 0 1.390625 -0.375q0.6562424 -0.390625 1.0468674 -1.09375q0.390625 -0.703125 0.390625 -1.640625q0 -0.953125 -0.390625 -1.65625q-0.390625 -0.703125 -1.0468674 -1.078125q-0.640625 -0.375 -1.390625 -0.375q-0.75 0 -1.40625 0.375q-0.65625 0.375 -1.046875 1.078125q-0.390625 0.703125 -0.390625 1.65625q0 0.9375 0.390625 1.640625q0.390625 0.703125 1.046875 1.09375q0.65625 0.375 1.40625 0.375zm4.7703934 0.96875l0 0zm4.9932556 -11.453125l1.96875 0l3.640625 9.390625l0.0625 0l3.65625 -9.390625l1.96875 0l0 11.453125l-1.34375 0l0 -7.28125l0.0625 -2.171875l-0.0625 0l-3.75 9.453125l-1.109375 0l-3.75 -9.453125l-0.0625 0l0.0625 2.171875l0 7.28125l-1.34375 0l0 -11.453125zm17.055405 11.703125q-1.171875 0 -2.109375 -0.546875q-0.921875 -0.5625 -1.4375 -1.546875q-0.515625 -0.984375 -0.515625 -2.21875q0 -1.171875 0.484375 -2.171875q0.484375 -1.0 1.390625 -1.59375q0.90625 -0.59375 2.078125 -0.59375q1.203125 0 2.078125 0.546875q0.875 0.53125 1.34375 1.484375q0.484375 0.9375 0.484375 2.15625q0 0.1875 -0.03125 0.40625l-6.46875 0q0.046875 0.9375 0.4375 1.578125q0.40625 0.640625 1.015625 0.96875q0.625 0.3125 1.296875 0.3125q1.59375 0 2.421875 -1.484375l1.140625 0.5625q-0.5 0.984375 -1.421875 1.5625q-0.90625 0.578125 -2.1875 0.578125zm2.34375 -5.1875q-0.03125 -0.515625 -0.28125 -1.03125q-0.25 -0.515625 -0.796875 -0.859375q-0.546875 -0.359375 -1.375 -0.359375q-0.96875 0 -1.640625 0.625q-0.671875 0.609375 -0.875 1.625l4.96875 0zm5.9630127 5.1875q-1.3125 0 -2.203125 -0.609375q-0.875 -0.609375 -1.234375 -1.578125l1.203125 -0.546875q0.3125 0.734375 0.90625 1.140625q0.609375 0.40625 1.328125 0.40625q0.765625 0 1.3125 -0.3125q0.546875 -0.3125 0.546875 -0.890625q0 -0.515625 -0.4375 -0.828125q-0.4375 -0.3125 -1.359375 -0.53125l-1.0 -0.265625q-0.96875 -0.234375 -1.59375 -0.8125q-0.625 -0.578125 -0.625 -1.484375q0 -0.703125 0.421875 -1.234375q0.421875 -0.546875 1.125 -0.828125q0.703125 -0.296875 1.53125 -0.296875q1.0625 0 1.90625 0.46875q0.84375 0.46875 1.1875 1.296875l-1.171875 0.546875q-0.546875 -1.09375 -1.9375 -1.09375q-0.671875 0 -1.1875 0.3125q-0.5 0.3125 -0.5 0.796875q0 0.453125 0.34375 0.734375q0.359375 0.265625 1.0625 0.453125l1.1875 0.296875q1.203125 0.3125 1.8125 0.90625q0.609375 0.59375 0.609375 1.46875q0 0.75 -0.4375 1.3125q-0.4375 0.5625 -1.171875 0.875q-0.734375 0.296875 -1.625 0.296875zm4.7242584 -11.703125l1.359375 0l0 3.375l-0.078125 1.125l0.078125 0q0.328125 -0.625 1.046875 -1.046875q0.734375 -0.421875 1.609375 -0.421875q1.484375 0 2.265625 0.875q0.78125 0.875 0.78125 2.3125l0 5.234375l-1.359375 0l0 -5.03125q0 -1.09375 -0.5625 -1.625q-0.5625 -0.53125 -1.453125 -0.53125q-0.640625 0 -1.1875 0.390625q-0.53125 0.375 -0.84375 0.984375q-0.296875 0.609375 -0.296875 1.265625l0 4.546875l-1.359375 0l0 -11.453125z"/><path fill="#000" fill-opacity="0" fill-rule="evenodd" d="m167.69504 112.190155l183.46457 0l0 56.37796l-183.46457 0z"/><path fill="#000" fill-rule="nonzero" d="m183.35129 136.80016q-1.671875 0 -3.03125 -0.78125q-1.359375 -0.78125 -2.140625 -2.140625q-0.765625 -1.375 -0.765625 -3.0625q0 -1.671875 0.765625 -3.03125q0.78125 -1.375 2.140625 -2.15625q1.359375 -0.796875 3.03125 -0.796875q1.28125 0 2.34375 0.484375q1.0625 0.484375 1.84375 1.390625l-0.96875 0.953125q-0.65625 -0.796875 -1.4375 -1.15625q-0.78125 -0.375 -1.78125 -0.375q-1.25 0 -2.296875 0.59375q-1.03125 0.578125 -1.65625 1.640625q-0.609375 1.0625 -0.609375 2.453125q0 1.390625 0.609375 2.46875q0.625 1.0625 1.65625 1.640625q1.046875 0.578125 2.296875 0.578125q2.078125 0 3.53125 -1.703125l1.0 0.953125q-0.78125 0.953125 -1.96875 1.5q-1.171875 0.546875 -2.5625 0.546875zm6.0553894 -11.703125l1.359375 0l0 11.453125l-1.359375 0l0 -11.453125zm6.329132 11.703125q-1.46875 0 -2.25 -0.859375q-0.78125 -0.859375 -0.78125 -2.421875l0 -5.125l1.359375 0l0 4.921875q0 1.171875 0.53125 1.71875q0.53125 0.546875 1.421875 0.546875q0.6875 0 1.21875 -0.375q0.546875 -0.375 0.84375 -0.953125q0.296875 -0.59375 0.296875 -1.25l0 -4.609375l1.359375 0l0 8.15625l-1.296875 0l0 -1.1875l-0.0625 0q-0.34375 0.609375 -1.078125 1.03125q-0.734375 0.40625 -1.5625 0.40625zm8.786636 0q-1.3125 0 -2.203125 -0.609375q-0.875 -0.609375 -1.234375 -1.578125l1.203125 -0.546875q0.3125 0.734375 0.90625 1.140625q0.609375 0.40625 1.328125 0.40625q0.765625 0 1.3125 -0.3125q0.546875 -0.3125 0.546875 -0.890625q0 -0.515625 -0.4375 -0.828125q-0.4375 -0.3125 -1.359375 -0.53125l-1.0 -0.265625q-0.96875 -0.234375 -1.59375 -0.8125q-0.625 -0.578125 -0.625 -1.484375q0 -0.703125 0.421875 -1.234375q0.421875 -0.546875 1.125 -0.828125q0.703125 -0.296875 1.53125 -0.296875q1.0625 0 1.90625 0.46875q0.84375 0.46875 1.1875 1.296875l-1.171875 0.546875q-0.546875 -1.09375 -1.9375 -1.09375q-0.671875 0 -1.1875 0.3125q-0.5 0.3125 -0.5 0.796875q0 0.453125 0.34375 0.734375q0.359375 0.265625 1.0625 0.453125l1.1875 0.296875q1.203125 0.3125 1.8125 0.90625q0.609375 0.59375 0.609375 1.46875q0 0.75 -0.4375 1.3125q-0.4375 0.5625 -1.171875 0.875q-0.734375 0.296875 -1.625 0.296875zm7.7692566 -0.125q-0.5 0 -0.921875 -0.15625q-0.421875 -0.15625 -0.703125 -0.4375q-0.640625 -0.609375 -0.640625 -1.671875l0 -4.78125l-1.421875 0l0 -1.234375l1.421875 0l0 -2.3125l1.359375 0l0 2.3125l2.0 0l0 1.234375l-2.0 0l0 4.4375q0 0.671875 0.25 1.0q0.3125 0.34375 0.890625 0.34375q0.484375 0 0.890625 -0.265625l0 1.328125q-0.234375 0.109375 -0.484375 0.15625q-0.25 0.046875 -0.640625 0.046875zm6.004013 0.125q-1.171875 0 -2.109375 -0.546875q-0.921875 -0.5625 -1.4375 -1.546875q-0.515625 -0.984375 -0.515625 -2.21875q0 -1.171875 0.484375 -2.171875q0.484375 -1.0 1.390625 -1.59375q0.90625 -0.59375 2.078125 -0.59375q1.203125 0 2.078125 0.546875q0.875 0.53125 1.34375 1.484375q0.484375 0.9375 0.484375 2.15625q0 0.1875 -0.03125 0.40625l-6.46875 0q0.046875 0.9375 0.4375 1.578125q0.40625 0.640625 1.015625 0.96875q0.625 0.3125 1.296875 0.3125q1.59375 0 2.421875 -1.484375l1.140625 0.5625q-0.5 0.984375 -1.421875 1.5625q-0.90625 0.578125 -2.1875 0.578125zm2.34375 -5.1875q-0.03125 -0.515625 -0.28125 -1.03125q-0.25 -0.515625 -0.796875 -0.859375q-0.546875 -0.359375 -1.375 -0.359375q-0.96875 0 -1.640625 0.625q-0.671875 0.609375 -0.875 1.625l4.96875 0zm3.0392609 -3.21875l1.28125 0l0 1.3125l0.078125 0q0.234375 -0.671875 0.921875 -1.109375q0.6875 -0.453125 1.4375 -0.453125q0.5625 0 0.96875 0.171875l0 1.46875q-0.515625 -0.265625 -1.15625 -0.265625q-0.59375 0 -1.09375 0.34375q-0.5 0.328125 -0.796875 0.90625q-0.28125 0.5625 -0.28125 1.21875l0 4.5625l-1.359375 0l0 -8.15625zm6.8906403 1.953125q-0.4375 0 -0.734375 -0.296875q-0.296875 -0.296875 -0.296875 -0.734375q0 -0.421875 0.296875 -0.71875q0.296875 -0.296875 0.734375 -0.296875q0.4375 0 0.71875 0.296875q0.296875 0.296875 0.296875 0.71875q0 0.4375 -0.296875 0.734375q-0.28125 0.296875 -0.71875 0.296875zm0 6.296875q-0.4375 0 -0.734375 -0.296875q-0.296875 -0.296875 -0.296875 -0.71875q0 -0.421875 0.296875 -0.71875q0.296875 -0.296875 0.734375 -0.296875q0.4375 0 0.71875 0.296875q0.296875 0.296875 0.296875 0.71875q0 0.421875 -0.296875 0.71875q-0.28125 0.296875 -0.71875 0.296875zm1.9017639 -0.09375l0 0zm3.3376312 -11.453125l1.515625 0l2.078125 8.40625l0.1875 0.796875l0.0625 0l0.25 -0.796875l2.546875 -8.40625l1.40625 0l2.453125 8.40625l0.25 0.796875l0.0625 0l2.25 -9.203125l1.5 0l-3.078125 11.453125l-1.40625 0l-2.4375 -8.28125l-0.265625 -0.90625l-0.0625 0l-0.265625 0.90625l-2.53125 8.28125l-1.40625 0l-3.109375 -11.453125zm18.567032 11.703125q-1.171875 0 -2.109375 -0.546875q-0.921875 -0.5625 -1.4375 -1.546875q-0.515625 -0.984375 -0.515625 -2.21875q0 -1.171875 0.484375 -2.171875q0.484375 -1.0 1.390625 -1.59375q0.90625 -0.59375 2.078125 -0.59375q1.203125 0 2.078125 0.546875q0.875 0.53125 1.34375 1.484375q0.484375 0.9375 0.484375 2.15625q0 0.1875 -0.03125 0.40625l-6.46875 0q0.046875 0.9375 0.4375 1.578125q0.40625 0.640625 1.015625 0.96875q0.625 0.3125 1.296875 0.3125q1.59375 0 2.421875 -1.484375l1.140625 0.5625q-0.5 0.984375 -1.421875 1.5625q-0.90625 0.578125 -2.1875 0.578125zm2.34375 -5.1875q-0.03125 -0.515625 -0.28125 -1.03125q-0.25 -0.515625 -0.796875 -0.859375q-0.546875 -0.359375 -1.375 -0.359375q-0.96875 0 -1.640625 0.625q-0.671875 0.609375 -0.875 1.625l4.96875 0zm5.9630127 5.1875q-1.3125 0 -2.203125 -0.609375q-0.875 -0.609375 -1.234375 -1.578125l1.203125 -0.546875q0.3125 0.734375 0.90625 1.140625q0.609375 0.40625 1.328125 0.40625q0.765625 0 1.3125 -0.3125q0.546875 -0.3125 0.546875 -0.890625q0 -0.515625 -0.4375 -0.828125q-0.4375 -0.3125 -1.359375 -0.53125l-1.0 -0.265625q-0.96875 -0.234375 -1.59375 -0.8125q-0.625 -0.578125 -0.625 -1.484375q0 -0.703125 0.421875 -1.234375q0.421875 -0.546875 1.125 -0.828125q0.703125 -0.296875 1.53125 -0.296875q1.0625 0 1.90625 0.46875q0.84375 0.46875 1.1875 1.296875l-1.171875 0.546875q-0.546875 -1.09375 -1.9375 -1.09375q-0.671875 0 -1.1875 0.3125q-0.5 0.3125 -0.5 0.796875q0 0.453125 0.34375 0.734375q0.359375 0.265625 1.0625 0.453125l1.1875 0.296875q1.203125 0.3125 1.8125 0.90625q0.609375 0.59375 0.609375 1.46875q0 0.75 -0.4375 1.3125q-0.4375 0.5625 -1.171875 0.875q-0.734375 0.296875 -1.625 0.296875zm7.7692566 -0.125q-0.5 0 -0.921875 -0.15625q-0.421875 -0.15625 -0.703125 -0.4375q-0.640625 -0.609375 -0.640625 -1.671875l0 -4.78125l-1.421875 0l0 -1.234375l1.421875 0l0 -2.3125l1.359375 0l0 2.3125l2.0 0l0 1.234375l-2.0 0l0 4.4375q0 0.671875 0.25 1.0q0.3125 0.34375 0.890625 0.34375q0.484375 0 0.890625 -0.265625l0 1.328125q-0.234375 0.109375 -0.484375 0.15625q-0.25 0.046875 -0.640625 0.046875z"/><path fill="#e6e6e6" fill-rule="evenodd" d="m221.62355 181.56194l151.87013 0l0 98.65666l-151.87013 0z"/><path fill="#fff" fill-rule="evenodd" d="m229.35573 192.52501l133.8366 0l0 75.16908l-133.8366 0z"/><path fill="#000" fill-rule="nonzero" d="m263.6917 224.51642l1.53125 0l4.359375 11.453125l-1.5 0l-1.140625 -3.15625l-4.96875 0l-1.140625 3.15625l-1.5 0l4.359375 -11.453125zm2.78125 7.015625l-1.53125 -4.125l-0.453125 -1.234375l-0.0625 0l-0.453125 1.234375l-1.53125 4.125l4.03125 0zm4.626251 -7.015625l3.859375 0q0.953125 0 1.765625 0.4375q0.828125 0.421875 1.3125 1.203125q0.484375 0.765625 0.484375 1.75q0 0.96875 -0.484375 1.75q-0.484375 0.78125 -1.3125 1.21875q-0.8125 0.421875 -1.765625 0.421875l-2.5 0l0 4.671875l-1.359375 0l0 -11.453125zm3.890625 5.484375q0.640625 0 1.125 -0.296875q0.484375 -0.3125 0.75 -0.78125q0.28125 -0.484375 0.28125 -1.015625q0 -0.53125 -0.28125 -1.0q-0.265625 -0.484375 -0.75 -0.78125q-0.484375 -0.3125 -1.125 -0.3125l-2.53125 0l0 4.1875l2.53125 0zm5.325409 -5.484375l1.359375 0l0 11.453125l-1.359375 0l0 -11.453125zm2.6387634 11.453125l0 0zm7.7163696 0.25q-0.875 0 -1.6875 -0.359375q-0.796875 -0.359375 -1.421875 -1.046875q-0.625 -0.703125 -0.890625 -1.6875l1.296875 -0.53125q0.265625 1.015625 1.0 1.671875q0.734375 0.65625 1.734375 0.65625q0.984375 0 1.671875 -0.53125q0.6875 -0.53125 0.6875 -1.46875q0 -0.796875 -0.578125 -1.3125q-0.578125 -0.515625 -1.90625 -0.96875l-0.734375 -0.25q-1.203125 -0.4375 -1.984375 -1.140625q-0.765625 -0.703125 -0.765625 -1.953125q0 -0.8125 0.453125 -1.5q0.453125 -0.703125 1.25 -1.125q0.796875 -0.421875 1.796875 -0.421875q0.984375 0 1.71875 0.375q0.734375 0.375 1.171875 0.90625q0.453125 0.515625 0.625 1.03125l-1.265625 0.546875q-0.171875 -0.59375 -0.75 -1.078125q-0.5625 -0.484375 -1.484375 -0.484375q-0.890625 0 -1.515625 0.5q-0.625 0.5 -0.625 1.25q0 0.671875 0.53125 1.09375q0.53125 0.421875 1.609375 0.796875l0.75 0.25q1.453125 0.53125 2.265625 1.328125q0.8125 0.78125 0.8125 2.140625q0 1.109375 -0.5625 1.859375q-0.5625 0.75 -1.4375 1.109375q-0.859375 0.34375 -1.765625 0.34375zm9.148285 0q-1.171875 0 -2.109375 -0.546875q-0.921875 -0.5625 -1.4375 -1.546875q-0.515625 -0.984375 -0.515625 -2.21875q0 -1.171875 0.484375 -2.171875q0.484375 -1.0 1.390625 -1.59375q0.90625 -0.59375 2.078125 -0.59375q1.203125 0 2.078125 0.546875q0.875 0.53125 1.34375 1.484375q0.484375 0.9375 0.484375 2.15625q0 0.1875 -0.03125 0.40625l-6.46875 0q0.046875 0.9375 0.4375 1.578125q0.40625 0.640625 1.015625 0.96875q0.625 0.3125 1.296875 0.3125q1.59375 0 2.421875 -1.484375l1.140625 0.5625q-0.5 0.984375 -1.421875 1.5625q-0.90625 0.578125 -2.1875 0.578125zm2.34375 -5.1875q-0.03125 -0.515625 -0.28125 -1.03125q-0.25 -0.515625 -0.796875 -0.859375q-0.546875 -0.359375 -1.375 -0.359375q-0.96875 0 -1.640625 0.625q-0.671875 0.609375 -0.875 1.625l4.96875 0zm3.0392456 -3.21875l1.28125 0l0 1.3125l0.078125 0q0.234375 -0.671875 0.921875 -1.109375q0.6875 -0.453125 1.4375 -0.453125q0.5625 0 0.96875 0.171875l0 1.46875q-0.515625 -0.265625 -1.15625 -0.265625q-0.59375 0 -1.09375 0.34375q-0.5 0.328125 -0.796875 0.90625q-0.28125 0.5625 -0.28125 1.21875l0 4.5625l-1.359375 0l0 -8.15625zm5.3657837 0l1.453125 0l2.53125 6.5625l0.03125 0l2.5625 -6.5625l1.421875 0l-3.328125 8.15625l-1.375 0l-3.296875 -8.15625zm12.515259 8.40625q-1.171875 0 -2.109375 -0.546875q-0.921875 -0.5625 -1.4375 -1.546875q-0.515625 -0.984375 -0.515625 -2.21875q0 -1.171875 0.484375 -2.171875q0.484375 -1.0 1.390625 -1.59375q0.90625 -0.59375 2.078125 -0.59375q1.203125 0 2.078125 0.546875q0.875 0.53125 1.34375 1.484375q0.484375 0.9375 0.484375 2.15625q0 0.1875 -0.03125 0.40625l-6.46875 0q0.046875 0.9375 0.4375 1.578125q0.40625 0.640625 1.015625 0.96875q0.625 0.3125 1.296875 0.3125q1.59375 0 2.421875 -1.484375l1.140625 0.5625q-0.5 0.984375 -1.421875 1.5625q-0.90625 0.578125 -2.1875 0.578125zm2.34375 -5.1875q-0.03125 -0.515625 -0.28125 -1.03125q-0.25 -0.515625 -0.796875 -0.859375q-0.546875 -0.359375 -1.375 -0.359375q-0.96875 0 -1.640625 0.625q-0.671875 0.609375 -0.875 1.625l4.96875 0zm3.0392456 -3.21875l1.28125 0l0 1.3125l0.078125 0q0.234375 -0.671875 0.921875 -1.109375q0.6875 -0.453125 1.4375 -0.453125q0.5625 0 0.96875 0.171875l0 1.46875q-0.515625 -0.265625 -1.15625 -0.265625q-0.59375 0 -1.09375 0.34375q-0.5 0.328125 -0.796875 0.90625q-0.28125 0.5625 -0.28125 1.21875l0 4.5625l-1.359375 0l0 -8.15625z"/><path fill="#e6e6e6" fill-rule="evenodd" d="m224.99759 355.6593l-0.67097473 0.079071045l-1.22052 0.532074l-0.87545776 1.0641174l-0.5431671 1.3660889l-0.06390381 0.762146l0 83.57608l0.06390381 0.7621155l0.5431671 1.3660889l0.87545776 1.0641174l1.22052 0.532074l0.67097473 0.079071045l145.1282 0l0.6709595 -0.079071045l1.2141418 -0.532074l0.88183594 -1.0641174l0.5368042 -1.3660889l0.07028198 -0.7621155l0 -83.57608l-0.07028198 -0.762146l-0.5368042 -1.3660889l-0.88183594 -1.0641174l-1.2141418 -0.532074l-0.6709595 -0.079071045z"/><path fill="#fff" fill-rule="evenodd" d="m235.12608 367.0554l-0.7412567 0.079071045l-1.2141418 0.532074l-0.87545776 1.0641174l-0.5431824 1.3660889l0 0.7621155l0 60.783936l0 0.7621155l0.5431824 1.3661194l0.87545776 1.0640869l1.2141418 0.532074l0.7412567 0.071899414l124.935104 0l0.67736816 -0.071899414l1.2141418 -0.532074l0.87545776 -1.0640869l0.54315186 -1.3661194l0.06390381 -0.7621155l0 -60.783936l-0.06390381 -0.7621155l-0.54315186 -1.3660889l-0.87545776 -1.0641174l-1.2141418 -0.532074l-0.67736816 -0.079071045z"/><path fill="#466bb0" fill-rule="evenodd" d="m247.21637 420.85065l11.617401 6.535675l19.311249 -6.535675z"/><path fill="#466bb0" fill-rule="evenodd" d="m258.83377 392.515l-11.617401 26.135529l11.617401 -2.2073364l0 -23.928192z"/><path fill="#476baf" fill-rule="evenodd" d="m260.72528 375.11533l0 41.32788l17.419739 2.2073364l-17.419739 -43.535217z"/><path fill="#000" fill-opacity="0" fill-rule="evenodd" d="m268.66104 382.31247l94.77966 0l0 37.87671l-94.77966 0z"/><path fill="#000" fill-rule="nonzero" d="m297.30807 395.6577l1.359375 0l0 11.453125l-1.359375 0l0 -11.453125zm6.4981384 11.703125q-1.3125 0 -2.203125 -0.609375q-0.875 -0.609375 -1.234375 -1.578125l1.203125 -0.546875q0.3125 0.734375 0.90625 1.140625q0.609375 0.40625 1.328125 0.40625q0.765625 0 1.3125 -0.3125q0.546875 -0.3125 0.546875 -0.890625q0 -0.515625 -0.4375 -0.828125q-0.4375 -0.3125 -1.359375 -0.53125l-1.0 -0.265625q-0.96875 -0.234375 -1.59375 -0.8125q-0.625 -0.578125 -0.625 -1.484375q0 -0.703125 0.421875 -1.234375q0.421875 -0.546875 1.125 -0.828125q0.703125 -0.296875 1.53125 -0.296875q1.0625 0 1.90625 0.46875q0.84375 0.46875 1.1875 1.296875l-1.171875 0.546875q-0.546875 -1.09375 -1.9375 -1.09375q-0.671875 0 -1.1875 0.3125q-0.5 0.3125 -0.5 0.796875q0 0.453125 0.34375 0.734375q0.359375 0.265625 1.0625 0.453125l1.1875 0.296875q1.203125 0.3125 1.8125 0.90625q0.609375 0.59375 0.609375 1.46875q0 0.75 -0.4375 1.3125q-0.4375 0.5625 -1.171875 0.875q-0.734375 0.296875 -1.625 0.296875zm7.7692566 -0.125q-0.5 0 -0.921875 -0.15625q-0.421875 -0.15625 -0.703125 -0.4375q-0.640625 -0.609375 -0.640625 -1.671875l0 -4.78125l-1.421875 0l0 -1.234375l1.421875 0l0 -2.3125l1.359375 0l0 2.3125l2.0 0l0 1.234375l-2.0 0l0 4.4375q0 0.671875 0.25 1.0q0.3125 0.34375 0.890625 0.34375q0.484375 0 0.890625 -0.265625l0 1.328125q-0.234375 0.109375 -0.484375 0.15625q-0.25 0.046875 -0.640625 0.046875zm3.6079102 -9.78125q-0.40625 0 -0.703125 -0.28125q-0.28125 -0.296875 -0.28125 -0.703125q0 -0.421875 0.28125 -0.6875q0.296875 -0.28125 0.703125 -0.28125q0.40625 0 0.6875 0.28125q0.28125 0.265625 0.28125 0.6875q0 0.40625 -0.28125 0.703125q-0.28125 0.28125 -0.6875 0.28125zm-0.671875 1.5l1.359375 0l0 8.15625l-1.359375 0l0 -8.15625zm7.1610107 8.40625q-1.203125 0 -2.171875 -0.5625q-0.953125 -0.578125 -1.484375 -1.5625q-0.53125 -1.0 -0.53125 -2.203125q0 -1.203125 0.53125 -2.1875q0.53125 -1.0 1.484375 -1.578125q0.96875 -0.578125 2.171875 -0.578125q1.203125 0 2.15625 0.578125q0.96875 0.578125 1.5 1.578125q0.53125 0.984375 0.53125 2.1875q0 1.203125 -0.53125 2.203125q-0.53125 0.984375 -1.5 1.5625q-0.953125 0.5625 -2.15625 0.5625zm0 -1.21875q0.75 0 1.390625 -0.375q0.65625 -0.390625 1.046875 -1.09375q0.390625 -0.703125 0.390625 -1.640625q0 -0.953125 -0.390625 -1.65625q-0.390625 -0.703125 -1.046875 -1.078125q-0.640625 -0.375 -1.390625 -0.375q-0.75 0 -1.40625 0.375q-0.65625 0.375 -1.046875 1.078125q-0.390625 0.703125 -0.390625 1.65625q0 0.9375 0.390625 1.640625q0.390625 0.703125 1.046875 1.09375q0.65625 0.375 1.40625 0.375zm9.254761 1.21875q-1.109375 0 -2.0 -0.546875q-0.890625 -0.5625 -1.40625 -1.546875q-0.5 -0.984375 -0.5 -2.234375q0 -1.234375 0.5 -2.21875q0.515625 -1.0 1.40625 -1.5625q0.890625 -0.5625 2.0 -0.5625q0.921875 0 1.65625 0.4375q0.734375 0.421875 1.125 1.046875l0.0625 0l-0.0625 -1.140625l0 -3.375l1.359375 0l0 11.453125l-1.296875 0l0 -1.203125l-0.0625 0q-0.390625 0.609375 -1.125 1.03125q-0.734375 0.421875 -1.65625 0.421875zm0.140625 -1.21875q0.71875 0 1.328125 -0.390625q0.625 -0.390625 1.0 -1.09375q0.375 -0.703125 0.375 -1.625q0 -0.9375 -0.375 -1.640625q-0.375 -0.703125 -1.0 -1.078125q-0.609375 -0.390625 -1.328125 -0.390625q-0.703125 0 -1.328125 0.390625q-0.625 0.375 -1.0 1.09375q-0.375 0.71875 -0.375 1.625q0 0.90625 0.375 1.625q0.375 0.703125 1.0 1.09375q0.625 0.390625 1.328125 0.390625z"/><path fill="#000" fill-opacity="0" fill-rule="evenodd" d="m297.0232 356.69104l0.5354309 -76.47244"/><path fill-rule="evenodd" stroke="#46f" stroke-dasharray="8 6" stroke-linecap="butt" stroke-linejoin="round" stroke-width="2" d="m297.02316 356.69107l0.48745728 -69.61847"/><path fill="#46f" fill-rule="evenodd" stroke="#46f" stroke-linecap="butt" stroke-width="2" d="m297.51062 287.0726l2.233368 2.264862l-2.205841 -6.1951294l-2.292389 6.1636353z"/><path fill="#e6e6e6" fill-rule="evenodd" d="m226.35641 519.51447l-0.6577301 0.060180664l-1.1964264 0.40496826l-0.85816956 0.8098755l-0.5324402 1.0397949l-0.06265259 0.57458496l0 63.617126l0.06265259 0.5800781l0.5324402 1.0397949l0.85816956 0.8098755l1.1964264 0.40496826l0.6577301 0.054748535l142.25641 0l0.66397095 -0.054748535l1.1901855 -0.40496826l0.927063 -0.8098755l0.4635315 -1.0397949l0.06890869 -0.5800781l0 -63.617126l-0.06890869 -0.57458496l-0.4635315 -1.0397949l-0.927063 -0.8098755l-1.1901855 -0.40496826l-0.66397095 -0.060180664z"/><path fill="#fff" fill-rule="evenodd" d="m234.78023 528.18634l126.047226 0l0 52.06299l-126.047226 0z"/><path fill="#000" fill-rule="nonzero" d="m288.6637 560.3278q-0.875 0 -1.6875 -0.359375q-0.796875 -0.359375 -1.421875 -1.046875q-0.625 -0.703125 -0.890625 -1.6875l1.296875 -0.53125q0.265625 1.015625 1.0 1.671875q0.734375 0.65625 1.734375 0.65625q0.984375 0 1.671875 -0.53125q0.6875 -0.53125 0.6875 -1.46875q0 -0.796875 -0.578125 -1.3125q-0.578125 -0.515625 -1.90625 -0.96875l-0.734375 -0.25q-1.203125 -0.4375 -1.984375 -1.140625q-0.765625 -0.703125 -0.765625 -1.953125q0 -0.8125 0.453125 -1.5q0.453125 -0.703125 1.25 -1.125q0.796875 -0.421875 1.796875 -0.421875q0.984375 0 1.71875 0.375q0.734375 0.375 1.171875 0.90625q0.453125 0.515625 0.625 1.03125l-1.265625 0.546875q-0.171875 -0.59375 -0.75 -1.078125q-0.5625 -0.484375 -1.484375 -0.484375q-0.890625 0 -1.515625 0.5q-0.625 0.5 -0.625 1.25q0 0.671875 0.53125 1.09375q0.53125 0.421875 1.609375 0.796875l0.75 0.25q1.453125 0.53125 2.265625 1.328125q0.8125 0.78125 0.8125 2.140625q0 1.109375 -0.5625 1.859375q-0.5625 0.75 -1.4375 1.109375q-0.859375 0.34375 -1.765625 0.34375zm9.148285 0q-1.171875 0 -2.109375 -0.546875q-0.921875 -0.5625 -1.4375 -1.546875q-0.515625 -0.984375 -0.515625 -2.21875q0 -1.171875 0.484375 -2.171875q0.484375 -1.0 1.390625 -1.59375q0.90625 -0.59375 2.078125 -0.59375q1.203125 0 2.078125 0.546875q0.875 0.53125 1.34375 1.484375q0.484375 0.9375 0.484375 2.15625q0 0.1875 -0.03125 0.40625l-6.46875 0q0.046875 0.9375 0.4375 1.578125q0.40625 0.640625 1.015625 0.96875q0.625 0.3125 1.296875 0.3125q1.59375 0 2.421875 -1.484375l1.140625 0.5625q-0.5 0.984375 -1.421875 1.5625q-0.90625 0.578125 -2.1875 0.578125zm2.34375 -5.1875q-0.03125 -0.515625 -0.28125 -1.03125q-0.25 -0.515625 -0.796875 -0.859375q-0.546875 -0.359375 -1.375 -0.359375q-0.96875 0 -1.640625 0.625q-0.671875 0.609375 -0.875 1.625l4.96875 0zm3.0392456 -3.21875l1.28125 0l0 1.3125l0.078125 0q0.234375 -0.671875 0.921875 -1.109375q0.6875 -0.453125 1.4375 -0.453125q0.5625 0 0.96875 0.171875l0 1.46875q-0.515625 -0.265625 -1.15625 -0.265625q-0.59375 0 -1.09375 0.34375q-0.5 0.328125 -0.796875 0.90625q-0.28125 0.5625 -0.28125 1.21875l0 4.5625l-1.359375 0l0 -8.15625zm5.3657837 0l1.453125 0l2.53125 6.5625l0.03125 0l2.5625 -6.5625l1.421875 0l-3.328125 8.15625l-1.375 0l-3.296875 -8.15625zm9.927124 -1.5q-0.40625 0 -0.703125 -0.28125q-0.28125 -0.296875 -0.28125 -0.703125q0 -0.421875 0.28125 -0.6875q0.296875 -0.28125 0.703125 -0.28125q0.40625 0 0.6875 0.28125q0.28125 0.265625 0.28125 0.6875q0 0.40625 -0.28125 0.703125q-0.28125 0.28125 -0.6875 0.28125zm-0.671875 1.5l1.359375 0l0 8.15625l-1.359375 0l0 -8.15625zm7.0985107 8.40625q-1.1875 0 -2.140625 -0.5625q-0.9375 -0.5625 -1.46875 -1.546875q-0.515625 -0.984375 -0.515625 -2.21875q0 -1.234375 0.515625 -2.21875q0.53125 -1.0 1.46875 -1.5625q0.953125 -0.5625 2.140625 -0.5625q1.328125 0 2.234375 0.625q0.90625 0.609375 1.28125 1.640625l-1.234375 0.515625q-0.296875 -0.765625 -0.90625 -1.15625q-0.59375 -0.390625 -1.4375 -0.390625q-0.71875 0 -1.34375 0.390625q-0.625 0.390625 -1.0 1.109375q-0.375 0.703125 -0.375 1.609375q0 0.90625 0.375 1.609375q0.375 0.703125 1.0 1.109375q0.625 0.390625 1.34375 0.390625q0.859375 0 1.484375 -0.40625q0.625 -0.40625 0.9375 -1.140625l1.203125 0.515625q-0.40625 1.015625 -1.328125 1.640625q-0.921875 0.609375 -2.234375 0.609375zm8.593536 0q-1.171875 0 -2.109375 -0.546875q-0.921875 -0.5625 -1.4375 -1.546875q-0.515625 -0.984375 -0.515625 -2.21875q0 -1.171875 0.484375 -2.171875q0.484375 -1.0 1.390625 -1.59375q0.90625 -0.59375 2.078125 -0.59375q1.203125 0 2.078125 0.546875q0.875 0.53125 1.34375 1.484375q0.484375 0.9375 0.484375 2.15625q0 0.1875 -0.03125 0.40625l-6.46875 0q0.046875 0.9375 0.4375 1.578125q0.40625 0.640625 1.015625 0.96875q0.625 0.3125 1.296875 0.3125q1.59375 0 2.421875 -1.484375l1.140625 0.5625q-0.5 0.984375 -1.421875 1.5625q-0.90625 0.578125 -2.1875 0.578125zm2.34375 -5.1875q-0.03125 -0.515625 -0.28125 -1.03125q-0.25 -0.515625 -0.796875 -0.859375q-0.546875 -0.359375 -1.375 -0.359375q-0.96875 0 -1.640625 0.625q-0.671875 0.609375 -0.875 1.625l4.96875 0zm2.0236206 4.9375l0 0zm7.825775 -11.453125l1.53125 0l4.359375 11.453125l-1.5 0l-1.140625 -3.15625l-4.96875 0l-1.140625 3.15625l-1.5 0l4.359375 -11.453125zm2.78125 7.015625l-1.53125 -4.125l-0.453125 -1.234375l-0.0625 0l-0.453125 1.234375l-1.53125 4.125l4.03125 0z"/><path fill="#767576" fill-rule="evenodd" d="m254.64671 536.86664l-1.9054108 0.054748535l-3.6249084 0.6949463l-3.253128 1.329834l-2.9452362 1.8496094l-2.5153809 2.3695679l-1.9634857 2.7799683l-1.4116211 3.0645142l-0.7377777 3.4093018l-0.06388855 1.7949219l0.06388855 1.7949219l0.7377777 3.349121l1.4116211 3.1246948l1.9634857 2.7745361l2.5153809 2.375l2.9452362 1.8496704l3.253128 1.329773l3.6249084 0.6950073l1.9054108 0.0546875l1.8995819 -0.0546875l3.5610352 -0.6950073l3.3170166 -1.329773l2.9452515 -1.8496704l2.5153503 -2.375l1.963501 -2.7745361l1.4116211 -3.1246948l0.73776245 -3.349121l0.06390381 -1.7949219l-0.06390381 -1.7949219l-0.73776245 -3.4093018l-1.4116211 -3.0645142l-1.963501 -2.7799683l-2.5153503 -2.3695679l-2.9452515 -1.8496094l-3.3170166 -1.329834l-3.5610352 -0.6949463l-1.8995819 -0.054748535z"/><path fill="#000" fill-opacity="0" fill-rule="evenodd" d="m261.15298 560.2282l-13.076431 0l0 -12.318298l13.076431 0l0 12.318298z"/><path fill-rule="evenodd" stroke="#fff" stroke-linecap="butt" stroke-linejoin="round" stroke-width=".916" d="m261.15298 560.2282l-13.076431 0l0 -12.318298l13.076431 0l0 12.318298z"/><path fill="#000" fill-opacity="0" fill-rule="evenodd" d="m250.52802 547.9099l0 -2.949646"/><path fill-rule="evenodd" stroke="#fff" stroke-linecap="round" stroke-miterlimit="105.678" stroke-width=".916" d="m250.52802 547.9099l0 -2.949646"/><path fill="#000" fill-opacity="0" fill-rule="evenodd" d="m254.64671 547.9099l0 -2.949646"/><path fill-rule="evenodd" stroke="#fff" stroke-linecap="round" stroke-miterlimit="105.678" stroke-width=".916" d="m254.64671 547.9099l0 -2.949646"/><path fill="#000" fill-opacity="0" fill-rule="evenodd" d="m258.7596 547.9099l0 -2.949646"/><path fill-rule="evenodd" stroke="#fff" stroke-linecap="round" stroke-miterlimit="105.678" stroke-width=".916" d="m258.7596 547.9099l0 -2.949646"/><path fill="#000" fill-opacity="0" fill-rule="evenodd" d="m250.52802 563.46783l0 -3.0097656"/><path fill-rule="evenodd" stroke="#fff" stroke-linecap="round" stroke-miterlimit="105.678" stroke-width=".916" d="m250.52802 563.46783l0 -3.0097656"/><path fill="#000" fill-opacity="0" fill-rule="evenodd" d="m254.64671 563.46783l0 -3.0097656"/><path fill-rule="evenodd" stroke="#fff" stroke-linecap="round" stroke-miterlimit="105.678" stroke-width=".916" d="m254.64671 563.46783l0 -3.0097656"/><path fill="#000" fill-opacity="0" fill-rule="evenodd" d="m258.7596 563.46783l0 -3.0097656"/><path fill-rule="evenodd" stroke="#fff" stroke-linecap="round" stroke-miterlimit="105.678" stroke-width=".916" d="m258.7596 563.46783l0 -3.0097656"/><path fill="#000" fill-opacity="0" fill-rule="evenodd" d="m247.95456 558.0885l-3.131134 0"/><path fill-rule="evenodd" stroke="#fff" stroke-linecap="round" stroke-miterlimit="105.678" stroke-width=".916" d="m247.95456 558.0885l-3.131134 0"/><path fill="#000" fill-opacity="0" fill-rule="evenodd" d="m247.95456 554.21405l-3.131134 0"/><path fill-rule="evenodd" stroke="#fff" stroke-linecap="round" stroke-miterlimit="105.678" stroke-width=".916" d="m247.95456 554.21405l-3.131134 0"/><path fill="#000" fill-opacity="0" fill-rule="evenodd" d="m247.95456 550.3396l-3.131134 0"/><path fill-rule="evenodd" stroke="#fff" stroke-linecap="round" stroke-miterlimit="105.678" stroke-width=".916" d="m247.95456 550.3396l-3.131134 0"/><path fill="#000" fill-opacity="0" fill-rule="evenodd" d="m264.4642 558.0885l-3.1892395 0"/><path fill-rule="evenodd" stroke="#fff" stroke-linecap="round" stroke-miterlimit="105.678" stroke-width=".916" d="m264.4642 558.0885l-3.1892395 0"/><path fill="#000" fill-opacity="0" fill-rule="evenodd" d="m264.4642 554.21405l-3.1892395 0"/><path fill-rule="evenodd" stroke="#fff" stroke-linecap="round" stroke-miterlimit="105.678" stroke-width=".916" d="m264.4642 554.21405l-3.1892395 0"/><path fill="#000" fill-opacity="0" fill-rule="evenodd" d="m264.4642 550.3396l-3.1892395 0"/><path fill-rule="evenodd" stroke="#fff" stroke-linecap="round" stroke-miterlimit="105.678" stroke-width=".916" d="m264.4642 550.3396l-3.1892395 0"/><path fill="#fff" fill-rule="evenodd" d="m253.78696 551.32465l-0.4298706 0.054748535l-0.73776245 0.29003906l-0.5518799 0.5198364l-0.3078766 0.6950073l0 0.40496826l0 1.619812l0 0.40496826l0.3078766 0.6949463l0.5518799 0.51989746l0.73776245 0.2845459l2.5734558 0l0.73776245 -0.2845459l0.5518799 -0.51989746l0.30786133 -0.6949463l0 -0.40496826l0 -1.619812l0 -0.40496826l-0.30786133 -0.6950073l-0.5518799 -0.5198364l-0.73776245 -0.29003906l-0.42988586 -0.054748535z"/><path fill="#000" fill-opacity="0" fill-rule="evenodd" d="m547.9921 189.98166l0 0c0 -23.448654 19.008911 -42.457535 42.45758 -42.457535l169.82507 0l0 0c11.260437 0 22.059692 4.4731903 30.022034 12.435516c7.9622803 7.9623413 12.435486 18.761581 12.435486 30.022018l0 390.10855c0 23.44867 -19.00885 42.45752 -42.45752 42.45752l-169.82507 0c-23.44867 0 -42.45758 -19.00885 -42.45758 -42.45752z"/><path fill-rule="evenodd" stroke="#ff6400" stroke-linecap="butt" stroke-linejoin="round" stroke-width="2" d="m547.9921 189.98166l0 0c0 -23.448654 19.008911 -42.457535 42.45758 -42.457535l169.82507 0l0 0c11.260437 0 22.059692 4.4731903 30.022034 12.435516c7.9622803 7.9623413 12.435486 18.761581 12.435486 30.022018l0 390.10855c0 23.44867 -19.00885 42.45752 -42.45752 42.45752l-169.82507 0c-23.44867 0 -42.45758 -19.00885 -42.45758 -42.45752z"/><path fill="#000" fill-opacity="0" fill-rule="evenodd" d="m535.1529 112.190155l183.46454 0l0 56.37796l-183.46454 0z"/><path fill="#000" fill-rule="nonzero" d="m550.80914 136.80016q-1.671875 0 -3.03125 -0.78125q-1.359375 -0.78125 -2.140625 -2.140625q-0.765625 -1.375 -0.765625 -3.0625q0 -1.671875 0.765625 -3.03125q0.78125 -1.375 2.140625 -2.15625q1.359375 -0.796875 3.03125 -0.796875q1.28125 0 2.34375 0.484375q1.0625 0.484375 1.84375 1.390625l-0.96875 0.953125q-0.65625 -0.796875 -1.4375 -1.15625q-0.78125 -0.375 -1.78125 -0.375q-1.25 0 -2.296875 0.59375q-1.03125 0.578125 -1.65625 1.640625q-0.609375 1.0625 -0.609375 2.453125q0 1.390625 0.609375 2.46875q0.625 1.0625 1.65625 1.640625q1.046875 0.578125 2.296875 0.578125q2.078125 0 3.53125 -1.703125l1.0 0.953125q-0.78125 0.953125 -1.96875 1.5q-1.171875 0.546875 -2.5625 0.546875zm6.055359 -11.703125l1.359375 0l0 11.453125l-1.359375 0l0 -11.453125zm6.3291626 11.703125q-1.46875 0 -2.25 -0.859375q-0.78125 -0.859375 -0.78125 -2.421875l0 -5.125l1.359375 0l0 4.921875q0 1.171875 0.53125 1.71875q0.53125 0.546875 1.421875 0.546875q0.6875 0 1.21875 -0.375q0.546875 -0.375 0.84375 -0.953125q0.296875 -0.59375 0.296875 -1.25l0 -4.609375l1.359375 0l0 8.15625l-1.296875 0l0 -1.1875l-0.0625 0q-0.34375 0.609375 -1.078125 1.03125q-0.734375 0.40625 -1.5625 0.40625zm8.786621 0q-1.3125 0 -2.203125 -0.609375q-0.875 -0.609375 -1.234375 -1.578125l1.203125 -0.546875q0.3125 0.734375 0.90625 1.140625q0.609375 0.40625 1.328125 0.40625q0.765625 0 1.3125 -0.3125q0.546875 -0.3125 0.546875 -0.890625q0 -0.515625 -0.4375 -0.828125q-0.4375 -0.3125 -1.359375 -0.53125l-1.0 -0.265625q-0.96875 -0.234375 -1.59375 -0.8125q-0.625 -0.578125 -0.625 -1.484375q0 -0.703125 0.421875 -1.234375q0.421875 -0.546875 1.125 -0.828125q0.703125 -0.296875 1.53125 -0.296875q1.0625 0 1.90625 0.46875q0.84375 0.46875 1.1875 1.296875l-1.171875 0.546875q-0.546875 -1.09375 -1.9375 -1.09375q-0.671875 0 -1.1875 0.3125q-0.5 0.3125 -0.5 0.796875q0 0.453125 0.34375 0.734375q0.359375 0.265625 1.0625 0.453125l1.1875 0.296875q1.203125 0.3125 1.8125 0.90625q0.609375 0.59375 0.609375 1.46875q0 0.75 -0.4375 1.3125q-0.4375 0.5625 -1.171875 0.875q-0.734375 0.296875 -1.625 0.296875zm7.769226 -0.125q-0.5 0 -0.921875 -0.15625q-0.421875 -0.15625 -0.703125 -0.4375q-0.640625 -0.609375 -0.640625 -1.671875l0 -4.78125l-1.421875 0l0 -1.234375l1.421875 0l0 -2.3125l1.359375 0l0 2.3125l2.0 0l0 1.234375l-2.0 0l0 4.4375q0 0.671875 0.25 1.0q0.3125 0.34375 0.890625 0.34375q0.484375 0 0.890625 -0.265625l0 1.328125q-0.234375 0.109375 -0.484375 0.15625q-0.25 0.046875 -0.640625 0.046875zm6.0040283 0.125q-1.171875 0 -2.109375 -0.546875q-0.921875 -0.5625 -1.4375 -1.546875q-0.515625 -0.984375 -0.515625 -2.21875q0 -1.171875 0.484375 -2.171875q0.484375 -1.0 1.390625 -1.59375q0.90625 -0.59375 2.078125 -0.59375q1.203125 0 2.078125 0.546875q0.875 0.53125 1.34375 1.484375q0.484375 0.9375 0.484375 2.15625q0 0.1875 -0.03125 0.40625l-6.46875 0q0.046875 0.9375 0.4375 1.578125q0.40625 0.640625 1.015625 0.96875q0.625 0.3125 1.296875 0.3125q1.59375 0 2.421875 -1.484375l1.140625 0.5625q-0.5 0.984375 -1.421875 1.5625q-0.90625 0.578125 -2.1875 0.578125zm2.34375 -5.1875q-0.03125 -0.515625 -0.28125 -1.03125q-0.25 -0.515625 -0.796875 -0.859375q-0.546875 -0.359375 -1.375 -0.359375q-0.96875 0 -1.640625 0.625q-0.671875 0.609375 -0.875 1.625l4.96875 0zm3.0392456 -3.21875l1.28125 0l0 1.3125l0.078125 0q0.234375 -0.671875 0.921875 -1.109375q0.6875 -0.453125 1.4375 -0.453125q0.5625 0 0.96875 0.171875l0 1.46875q-0.515625 -0.265625 -1.15625 -0.265625q-0.59375 0 -1.09375 0.34375q-0.5 0.328125 -0.796875 0.90625q-0.28125 0.5625 -0.28125 1.21875l0 4.5625l-1.359375 0l0 -8.15625zm6.890686 1.953125q-0.4375 0 -0.734375 -0.296875q-0.296875 -0.296875 -0.296875 -0.734375q0 -0.421875 0.296875 -0.71875q0.296875 -0.296875 0.734375 -0.296875q0.4375 0 0.71875 0.296875q0.296875 0.296875 0.296875 0.71875q0 0.4375 -0.296875 0.734375q-0.28125 0.296875 -0.71875 0.296875zm0 6.296875q-0.4375 0 -0.734375 -0.296875q-0.296875 -0.296875 -0.296875 -0.71875q0 -0.421875 0.296875 -0.71875q0.296875 -0.296875 0.734375 -0.296875q0.4375 0 0.71875 0.296875q0.296875 0.296875 0.296875 0.71875q0 0.421875 -0.296875 0.71875q-0.28125 0.296875 -0.71875 0.296875zm1.9017334 -0.09375l0 0zm4.993286 -11.453125l6.625 0l0 1.296875l-5.265625 0l0 3.78125l4.75 0l0 1.28125l-4.75 0l0 3.796875l5.265625 0l0 1.296875l-6.625 0l0 -11.453125zm10.904114 11.703125q-0.890625 0 -1.59375 -0.34375q-0.703125 -0.359375 -1.09375 -0.96875q-0.375 -0.625 -0.375 -1.40625q0 -1.296875 0.96875 -2.015625q0.984375 -0.734375 2.46875 -0.734375q0.734375 0 1.359375 0.171875q0.640625 0.15625 0.96875 0.359375l0 -0.5q0 -0.90625 -0.640625 -1.453125q-0.625 -0.5625 -1.609375 -0.5625q-0.671875 0 -1.265625 0.296875q-0.578125 0.296875 -0.90625 0.828125l-1.03125 -0.765625q0.484375 -0.734375 1.328125 -1.15625q0.859375 -0.421875 1.875 -0.421875q1.671875 0 2.609375 0.875q0.9375 0.875 0.9375 2.375l0 5.171875l-1.296875 0l0 -1.171875l-0.0625 0q-0.34375 0.59375 -1.046875 1.015625q-0.703125 0.40625 -1.59375 0.40625zm0.140625 -1.1875q0.6875 0 1.265625 -0.34375q0.59375 -0.359375 0.9375 -0.953125q0.359375 -0.59375 0.359375 -1.296875q-0.375 -0.265625 -0.9375 -0.421875q-0.5625 -0.15625 -1.1875 -0.15625q-1.109375 0 -1.6875 0.46875q-0.5625 0.453125 -0.5625 1.1875q0 0.671875 0.5 1.09375q0.515625 0.421875 1.3125 0.421875zm8.525391 1.1875q-1.3125 0 -2.203125 -0.609375q-0.875 -0.609375 -1.234375 -1.578125l1.203125 -0.546875q0.3125 0.734375 0.90625 1.140625q0.609375 0.40625 1.328125 0.40625q0.765625 0 1.3125 -0.3125q0.546875 -0.3125 0.546875 -0.890625q0 -0.515625 -0.4375 -0.828125q-0.4375 -0.3125 -1.359375 -0.53125l-1.0 -0.265625q-0.96875 -0.234375 -1.59375 -0.8125q-0.625 -0.578125 -0.625 -1.484375q0 -0.703125 0.421875 -1.234375q0.421875 -0.546875 1.125 -0.828125q0.703125 -0.296875 1.53125 -0.296875q1.0625 0 1.90625 0.46875q0.84375 0.46875 1.1875 1.296875l-1.171875 0.546875q-0.546875 -1.09375 -1.9375 -1.09375q-0.671875 0 -1.1875 0.3125q-0.5 0.3125 -0.5 0.796875q0 0.453125 0.34375 0.734375q0.359375 0.265625 1.0625 0.453125l1.1875 0.296875q1.203125 0.3125 1.8125 0.90625q0.609375 0.59375 0.609375 1.46875q0 0.75 -0.4375 1.3125q-0.4375 0.5625 -1.171875 0.875q-0.734375 0.296875 -1.625 0.296875zm7.769287 -0.125q-0.5 0 -0.921875 -0.15625q-0.421875 -0.15625 -0.703125 -0.4375q-0.640625 -0.609375 -0.640625 -1.671875l0 -4.78125l-1.421875 0l0 -1.234375l1.421875 0l0 -2.3125l1.359375 0l0 2.3125l2.0 0l0 1.234375l-2.0 0l0 4.4375q0 0.671875 0.25 1.0q0.3125 0.34375 0.890625 0.34375q0.484375 0 0.890625 -0.265625l0 1.328125q-0.234375 0.109375 -0.484375 0.15625q-0.25 0.046875 -0.640625 0.046875z"/><path fill="#e6e6e6" fill-rule="evenodd" d="m597.08136 181.56194l151.87012 0l0 98.65666l-151.87012 0z"/><path fill="#fff" fill-rule="evenodd" d="m604.81354 192.52501l133.83661 0l0 75.16908l-133.83661 0z"/><path fill="#000" fill-rule="nonzero" d="m639.14954 224.51642l1.53125 0l4.359375 11.453125l-1.5 0l-1.140625 -3.15625l-4.96875 0l-1.140625 3.15625l-1.5 0l4.359375 -11.453125zm2.78125 7.015625l-1.53125 -4.125l-0.453125 -1.234375l-0.0625 0l-0.453125 1.234375l-1.53125 4.125l4.03125 0zm4.6262817 -7.015625l3.859375 0q0.953125 0 1.765625 0.4375q0.828125 0.421875 1.3125 1.203125q0.484375 0.765625 0.484375 1.75q0 0.96875 -0.484375 1.75q-0.484375 0.78125 -1.3125 1.21875q-0.8125 0.421875 -1.765625 0.421875l-2.5 0l0 4.671875l-1.359375 0l0 -11.453125zm3.890625 5.484375q0.640625 0 1.125 -0.296875q0.484375 -0.3125 0.75 -0.78125q0.28125 -0.484375 0.28125 -1.015625q0 -0.53125 -0.28125 -1.0q-0.265625 -0.484375 -0.75 -0.78125q-0.484375 -0.3125 -1.125 -0.3125l-2.53125 0l0 4.1875l2.53125 0zm5.3253784 -5.484375l1.359375 0l0 11.453125l-1.359375 0l0 -11.453125zm2.638733 11.453125l0 0zm7.7164307 0.25q-0.875 0 -1.6875 -0.359375q-0.796875 -0.359375 -1.421875 -1.046875q-0.625 -0.703125 -0.890625 -1.6875l1.296875 -0.53125q0.265625 1.015625 1.0 1.671875q0.734375 0.65625 1.734375 0.65625q0.984375 0 1.671875 -0.53125q0.6875 -0.53125 0.6875 -1.46875q0 -0.796875 -0.578125 -1.3125q-0.578125 -0.515625 -1.90625 -0.96875l-0.734375 -0.25q-1.203125 -0.4375 -1.984375 -1.140625q-0.765625 -0.703125 -0.765625 -1.953125q0 -0.8125 0.453125 -1.5q0.453125 -0.703125 1.25 -1.125q0.796875 -0.421875 1.796875 -0.421875q0.984375 0 1.71875 0.375q0.734375 0.375 1.171875 0.90625q0.453125 0.515625 0.625 1.03125l-1.265625 0.546875q-0.171875 -0.59375 -0.75 -1.078125q-0.5625 -0.484375 -1.484375 -0.484375q-0.890625 0 -1.515625 0.5q-0.625 0.5 -0.625 1.25q0 0.671875 0.53125 1.09375q0.53125 0.421875 1.609375 0.796875l0.75 0.25q1.453125 0.53125 2.265625 1.328125q0.8125 0.78125 0.8125 2.140625q0 1.109375 -0.5625 1.859375q-0.5625 0.75 -1.4375 1.109375q-0.859375 0.34375 -1.765625 0.34375zm9.148254 0q-1.171875 0 -2.109375 -0.546875q-0.921875 -0.5625 -1.4375 -1.546875q-0.515625 -0.984375 -0.515625 -2.21875q0 -1.171875 0.484375 -2.171875q0.484375 -1.0 1.390625 -1.59375q0.90625 -0.59375 2.078125 -0.59375q1.203125 0 2.078125 0.546875q0.875 0.53125 1.34375 1.484375q0.484375 0.9375 0.484375 2.15625q0 0.1875 -0.03125 0.40625l-6.46875 0q0.046875 0.9375 0.4375 1.578125q0.40625 0.640625 1.015625 0.96875q0.625 0.3125 1.296875 0.3125q1.59375 0 2.421875 -1.484375l1.140625 0.5625q-0.5 0.984375 -1.421875 1.5625q-0.90625 0.578125 -2.1875 0.578125zm2.34375 -5.1875q-0.03125 -0.515625 -0.28125 -1.03125q-0.25 -0.515625 -0.796875 -0.859375q-0.546875 -0.359375 -1.375 -0.359375q-0.96875 0 -1.640625 0.625q-0.671875 0.609375 -0.875 1.625l4.96875 0zm3.0392456 -3.21875l1.28125 0l0 1.3125l0.078125 0q0.234375 -0.671875 0.921875 -1.109375q0.6875 -0.453125 1.4375 -0.453125q0.5625 0 0.96875 0.171875l0 1.46875q-0.515625 -0.265625 -1.15625 -0.265625q-0.59375 0 -1.09375 0.34375q-0.5 0.328125 -0.796875 0.90625q-0.28125 0.5625 -0.28125 1.21875l0 4.5625l-1.359375 0l0 -8.15625zm5.3657837 0l1.453125 0l2.53125 6.5625l0.03125 0l2.5625 -6.5625l1.421875 0l-3.328125 8.15625l-1.375 0l-3.296875 -8.15625zm12.515259 8.40625q-1.171875 0 -2.109375 -0.546875q-0.921875 -0.5625 -1.4375 -1.546875q-0.515625 -0.984375 -0.515625 -2.21875q0 -1.171875 0.484375 -2.171875q0.484375 -1.0 1.390625 -1.59375q0.90625 -0.59375 2.078125 -0.59375q1.203125 0 2.078125 0.546875q0.875 0.53125 1.34375 1.484375q0.484375 0.9375 0.484375 2.15625q0 0.1875 -0.03125 0.40625l-6.46875 0q0.046875 0.9375 0.4375 1.578125q0.40625 0.640625 1.015625 0.96875q0.625 0.3125 1.296875 0.3125q1.59375 0 2.421875 -1.484375l1.140625 0.5625q-0.5 0.984375 -1.421875 1.5625q-0.90625 0.578125 -2.1875 0.578125zm2.34375 -5.1875q-0.03125 -0.515625 -0.28125 -1.03125q-0.25 -0.515625 -0.796875 -0.859375q-0.546875 -0.359375 -1.375 -0.359375q-0.96875 0 -1.640625 0.625q-0.671875 0.609375 -0.875 1.625l4.96875 0zm3.0392456 -3.21875l1.28125 0l0 1.3125l0.078125 0q0.234375 -0.671875 0.921875 -1.109375q0.6875 -0.453125 1.4375 -0.453125q0.5625 0 0.96875 0.171875l0 1.46875q-0.515625 -0.265625 -1.15625 -0.265625q-0.59375 0 -1.09375 0.34375q-0.5 0.328125 -0.796875 0.90625q-0.28125 0.5625 -0.28125 1.21875l0 4.5625l-1.359375 0l0 -8.15625z"/><path fill="#e6e6e6" fill-rule="evenodd" d="m600.45544 355.6593l-0.6710205 0.079071045l-1.22052 0.532074l-0.87542725 1.0641174l-0.54315186 1.3660889l-0.06390381 0.762146l0 83.57608l0.06390381 0.7621155l0.54315186 1.3660889l0.87542725 1.0641174l1.22052 0.532074l0.6710205 0.079071045l145.12817 0l0.6709595 -0.079071045l1.2141724 -0.532074l0.88183594 -1.0641174l0.53674316 -1.3660889l0.0703125 -0.7621155l0 -83.57608l-0.0703125 -0.762146l-0.53674316 -1.3660889l-0.88183594 -1.0641174l-1.2141724 -0.532074l-0.6709595 -0.079071045z"/><path fill="#fff" fill-rule="evenodd" d="m610.5839 367.0554l-0.741272 0.079071045l-1.2141113 0.532074l-0.8754883 1.0641174l-0.54315186 1.3660889l0 0.7621155l0 60.783936l0 0.7621155l0.54315186 1.3661194l0.8754883 1.0640869l1.2141113 0.532074l0.741272 0.071899414l124.93512 0l0.67736816 -0.071899414l1.2141113 -0.532074l0.8754883 -1.0640869l0.54315186 -1.3661194l0.06390381 -0.7621155l0 -60.783936l-0.06390381 -0.7621155l-0.54315186 -1.3660889l-0.8754883 -1.0641174l-1.2141113 -0.532074l-0.67736816 -0.079071045z"/><path fill="#466bb0" fill-rule="evenodd" d="m622.6742 420.85065l11.617432 6.535675l19.311218 -6.535675z"/><path fill="#466bb0" fill-rule="evenodd" d="m634.2916 392.515l-11.617432 26.135529l11.617432 -2.2073364l0 -23.928192z"/><path fill="#476baf" fill-rule="evenodd" d="m636.1831 375.11533l0 41.32788l17.419739 2.2073364l-17.419739 -43.535217z"/><path fill="#000" fill-opacity="0" fill-rule="evenodd" d="m644.1189 382.31247l94.770996 0l0 37.870453l-94.770996 0z"/><path fill="#000" fill-rule="nonzero" d="m672.7616 395.65457l1.359375 0l0 11.453125l-1.359375 0l0 -11.453125zm6.498108 11.703125q-1.3125 0 -2.203125 -0.609375q-0.875 -0.609375 -1.234375 -1.578125l1.203125 -0.546875q0.3125 0.734375 0.90625 1.140625q0.609375 0.40625 1.328125 0.40625q0.765625 0 1.3125 -0.3125q0.546875 -0.3125 0.546875 -0.890625q0 -0.515625 -0.4375 -0.828125q-0.4375 -0.3125 -1.359375 -0.53125l-1.0 -0.265625q-0.96875 -0.234375 -1.59375 -0.8125q-0.625 -0.578125 -0.625 -1.484375q0 -0.703125 0.421875 -1.234375q0.421875 -0.546875 1.125 -0.828125q0.703125 -0.296875 1.53125 -0.296875q1.0625 0 1.90625 0.46875q0.84375 0.46875 1.1875 1.296875l-1.171875 0.546875q-0.546875 -1.09375 -1.9375 -1.09375q-0.671875 0 -1.1875 0.3125q-0.5 0.3125 -0.5 0.796875q0 0.453125 0.34375 0.734375q0.359375 0.265625 1.0625 0.453125l1.1875 0.296875q1.203125 0.3125 1.8125 0.90625q0.609375 0.59375 0.609375 1.46875q0 0.75 -0.4375 1.3125q-0.4375 0.5625 -1.171875 0.875q-0.734375 0.296875 -1.625 0.296875zm7.769287 -0.125q-0.5 0 -0.921875 -0.15625q-0.421875 -0.15625 -0.703125 -0.4375q-0.640625 -0.609375 -0.640625 -1.671875l0 -4.78125l-1.421875 0l0 -1.234375l1.421875 0l0 -2.3125l1.359375 0l0 2.3125l2.0 0l0 1.234375l-2.0 0l0 4.4375q0 0.671875 0.25 1.0q0.3125 0.34375 0.890625 0.34375q0.484375 0 0.890625 -0.265625l0 1.328125q-0.234375 0.109375 -0.484375 0.15625q-0.25 0.046875 -0.640625 0.046875zm3.6079102 -9.78125q-0.40625 0 -0.703125 -0.28125q-0.28125 -0.296875 -0.28125 -0.703125q0 -0.421875 0.28125 -0.6875q0.296875 -0.28125 0.703125 -0.28125q0.40625 0 0.6875 0.28125q0.28125 0.265625 0.28125 0.6875q0 0.40625 -0.28125 0.703125q-0.28125 0.28125 -0.6875 0.28125zm-0.671875 1.5l1.359375 0l0 8.15625l-1.359375 0l0 -8.15625zm7.1610107 8.40625q-1.203125 0 -2.171875 -0.5625q-0.953125 -0.578125 -1.484375 -1.5625q-0.53125 -1.0 -0.53125 -2.203125q0 -1.203125 0.53125 -2.1875q0.53125 -1.0 1.484375 -1.578125q0.96875 -0.578125 2.171875 -0.578125q1.203125 0 2.15625 0.578125q0.96875 0.578125 1.5 1.578125q0.53125 0.984375 0.53125 2.1875q0 1.203125 -0.53125 2.203125q-0.53125 0.984375 -1.5 1.5625q-0.953125 0.5625 -2.15625 0.5625zm0 -1.21875q0.75 0 1.390625 -0.375q0.65625 -0.390625 1.046875 -1.09375q0.390625 -0.703125 0.390625 -1.640625q0 -0.953125 -0.390625 -1.65625q-0.390625 -0.703125 -1.046875 -1.078125q-0.640625 -0.375 -1.390625 -0.375q-0.75 0 -1.40625 0.375q-0.65625 0.375 -1.046875 1.078125q-0.390625 0.703125 -0.390625 1.65625q0 0.9375 0.390625 1.640625q0.390625 0.703125 1.046875 1.09375q0.65625 0.375 1.40625 0.375zm9.254761 1.21875q-1.109375 0 -2.0 -0.546875q-0.890625 -0.5625 -1.40625 -1.546875q-0.5 -0.984375 -0.5 -2.234375q0 -1.234375 0.5 -2.21875q0.515625 -1.0 1.40625 -1.5625q0.890625 -0.5625 2.0 -0.5625q0.921875 0 1.65625 0.4375q0.734375 0.421875 1.125 1.046875l0.0625 0l-0.0625 -1.140625l0 -3.375l1.359375 0l0 11.453125l-1.296875 0l0 -1.203125l-0.0625 0q-0.390625 0.609375 -1.125 1.03125q-0.734375 0.421875 -1.65625 0.421875zm0.140625 -1.21875q0.71875 0 1.328125 -0.390625q0.625 -0.390625 1.0 -1.09375q0.375 -0.703125 0.375 -1.625q0 -0.9375 -0.375 -1.640625q-0.375 -0.703125 -1.0 -1.078125q-0.609375 -0.390625 -1.328125 -0.390625q-0.703125 0 -1.328125 0.390625q-0.625 0.375 -1.0 1.09375q-0.375 0.71875 -0.375 1.625q0 0.90625 0.375 1.625q0.375 0.703125 1.0 1.09375q0.625 0.390625 1.328125 0.390625z"/><path fill="#000" fill-opacity="0" fill-rule="evenodd" d="m672.481 356.69104l0.5354004 -76.47244"/><path fill-rule="evenodd" stroke="#46f" stroke-dasharray="8 6" stroke-linecap="butt" stroke-linejoin="round" stroke-width="2" d="m672.481 356.69107l0.48742676 -69.61847"/><path fill="#46f" fill-rule="evenodd" stroke="#46f" stroke-linecap="butt" stroke-width="2" d="m672.96844 287.0726l2.2333984 2.264862l-2.2058716 -6.1951294l-2.2923584 6.1636353z"/><path fill="#000" fill-opacity="0" fill-rule="evenodd" d="m297.80383 528.18634l-0.56692505 -80.188965"/><path fill-rule="evenodd" stroke="#46f" stroke-dasharray="8 6" stroke-linecap="butt" stroke-linejoin="round" stroke-width="2" d="m297.80383 528.18634l-0.51846313 -73.33496"/><path fill="#46f" fill-rule="evenodd" stroke="#46f" stroke-linecap="butt" stroke-width="2" d="m297.28537 454.85138l2.2650146 2.2332153l-2.2927856 -6.1634827l-2.2054443 6.195282z"/><path fill="#000" fill-opacity="0" fill-rule="evenodd" d="m296.5301 355.3064l308.28345 -125.19685"/><path fill-rule="evenodd" stroke="#46f" stroke-dasharray="8 6" stroke-linecap="butt" stroke-linejoin="round" stroke-width="2" d="m296.5301 355.3064l301.93298 -122.617874"/><path fill="#46f" fill-rule="evenodd" stroke="#46f" stroke-linecap="butt" stroke-width="2" d="m598.4631 232.68852l-1.2375488 2.9301605l4.8790894 -4.409012l-6.5716553 0.24125671z"/><path fill="#000" fill-opacity="0" fill-rule="evenodd" d="m674.15295 355.3064l-310.96063 -125.19685"/><path fill-rule="evenodd" stroke="#46f" stroke-dasharray="8 6" stroke-linecap="butt" stroke-linejoin="round" stroke-width="2" d="m674.15295 355.3064l-304.60242 -122.63696"/><path fill="#46f" fill-rule="evenodd" stroke="#46f" stroke-linecap="butt" stroke-width="2" d="m369.55054 232.66943l2.926422 -1.2463989l-6.5723877 -0.22151184l4.8923645 4.394348z"/><path fill="#000" fill-opacity="0" fill-rule="evenodd" d="m444.15198 291.37903l148.8819 0l0 56.37796l-148.8819 0z"/><path fill="#466bb0" fill-rule="nonzero" d="m454.24573 303.63214l6.046875 0l0 1.703125l-4.25 0l0 2.21875l3.828125 0l0 1.703125l-3.828125 0l0 2.21875l4.25 0l0 1.703125l-6.046875 0l0 -9.546875zm7.5358276 2.75l1.640625 0l0 0.859375l0.09375 0q0.3125 -0.5 0.875 -0.78125q0.5625 -0.296875 1.203125 -0.296875q1.234375 0 1.875 0.75q0.640625 0.75 0.640625 2.046875l0 4.21875l-1.75 0l0 -4.015625q0 -0.65625 -0.34375 -1.015625q-0.328125 -0.359375 -0.921875 -0.359375q-0.703125 0 -1.140625 0.546875q-0.4375 0.546875 -0.4375 1.375l0 3.46875l-1.734375 0l0 -6.796875zm10.8897705 7.015625q-0.90625 0 -1.671875 -0.453125q-0.75 -0.46875 -1.1875 -1.28125q-0.421875 -0.828125 -0.421875 -1.890625q0 -1.03125 0.421875 -1.859375q0.4375 -0.828125 1.1875 -1.28125q0.765625 -0.46875 1.671875 -0.46875q0.703125 0 1.234375 0.3125q0.53125 0.296875 0.8125 0.734375l0.109375 0l-0.109375 -0.96875l0 -2.609375l1.734375 0l0 9.546875l-1.625 0l0 -0.8125l-0.109375 0q-0.265625 0.4375 -0.8125 0.734375q-0.53125 0.296875 -1.234375 0.296875zm0.296875 -1.625q0.5 0 0.921875 -0.25q0.421875 -0.25 0.671875 -0.703125q0.265625 -0.453125 0.265625 -1.046875q0 -0.578125 -0.265625 -1.03125q-0.25 -0.453125 -0.671875 -0.703125q-0.421875 -0.25 -0.921875 -0.25q-0.484375 0 -0.90625 0.25q-0.421875 0.25 -0.6875 0.703125q-0.25 0.453125 -0.25 1.03125q0 0.59375 0.25 1.046875q0.265625 0.453125 0.6875 0.703125q0.421875 0.25 0.90625 0.25zm5.144409 -5.390625l1.640625 0l0 0.828125l0.109375 0q0.28125 -0.4375 0.8125 -0.734375q0.53125 -0.3125 1.21875 -0.3125q0.921875 0 1.671875 0.46875q0.765625 0.453125 1.1875 1.28125q0.421875 0.828125 0.421875 1.859375q0 1.0625 -0.421875 1.890625q-0.421875 0.8125 -1.1875 1.28125q-0.75 0.453125 -1.671875 0.453125q-0.6875 0 -1.234375 -0.296875q-0.53125 -0.296875 -0.796875 -0.734375l-0.109375 0l0.109375 0.953125l0 2.734375l-1.75 0l0 -9.671875zm3.484375 5.390625q0.484375 0 0.90625 -0.25q0.4375 -0.25 0.6875 -0.703125q0.25 -0.453125 0.25 -1.046875q0 -0.578125 -0.25 -1.03125q-0.25 -0.453125 -0.6875 -0.703125q-0.421875 -0.25 -0.90625 -0.25q-0.484375 0 -0.90625 0.25q-0.421875 0.25 -0.6875 0.703125q-0.25 0.453125 -0.25 1.03125q0 0.59375 0.25 1.046875q0.265625 0.453125 0.6875 0.703125q0.421875 0.25 0.90625 0.25zm8.184814 1.625q-1.0625 0 -1.890625 -0.46875q-0.8125 -0.484375 -1.28125 -1.296875q-0.453125 -0.828125 -0.453125 -1.859375q0 -1.0 0.453125 -1.828125q0.46875 -0.828125 1.28125 -1.296875q0.828125 -0.484375 1.890625 -0.484375q1.03125 0 1.859375 0.484375q0.828125 0.46875 1.28125 1.296875q0.46875 0.828125 0.46875 1.828125q0 1.03125 -0.46875 1.859375q-0.453125 0.8125 -1.28125 1.296875q-0.828125 0.46875 -1.859375 0.46875zm0 -1.625q0.5 0 0.921875 -0.234375q0.4375 -0.234375 0.6875 -0.6875q0.25 -0.453125 0.25 -1.078125q0 -0.59375 -0.25 -1.046875q-0.25 -0.453125 -0.6875 -0.6875q-0.421875 -0.25 -0.921875 -0.25q-0.515625 0 -0.9375 0.25q-0.421875 0.234375 -0.6875 0.6875q-0.265625 0.453125 -0.265625 1.046875q0 0.609375 0.265625 1.078125q0.265625 0.453125 0.6875 0.6875q0.421875 0.234375 0.9375 0.234375zm5.797821 -6.140625q-0.46875 0 -0.8125 -0.328125q-0.328125 -0.328125 -0.328125 -0.796875q0 -0.46875 0.328125 -0.796875q0.34375 -0.328125 0.8125 -0.328125q0.46875 0 0.78125 0.328125q0.328125 0.328125 0.328125 0.796875q0 0.46875 -0.328125 0.796875q-0.3125 0.328125 -0.78125 0.328125zm-0.890625 0.75l1.75 0l0 6.796875l-1.75 0l0 -6.796875zm3.5714722 0l1.640625 0l0 0.859375l0.09375 0q0.3125 -0.5 0.875 -0.78125q0.5625 -0.296875 1.203125 -0.296875q1.234375 0 1.875 0.75q0.640625 0.75 0.640625 2.046875l0 4.21875l-1.75 0l0 -4.015625q0 -0.65625 -0.34375 -1.015625q-0.328125 -0.359375 -0.921875 -0.359375q-0.703125 0 -1.140625 0.546875q-0.4375 0.546875 -0.4375 1.375l0 3.46875l-1.734375 0l0 -6.796875zm10.603302 6.90625q-0.5 0 -0.9375 -0.15625q-0.421875 -0.15625 -0.6875 -0.421875q-0.625 -0.59375 -0.625 -1.703125l0 -3.125l-1.1875 0l0 -1.5l1.1875 0l0 -1.921875l1.75 0l0 1.921875l1.65625 0l0 1.5l-1.65625 0l0 2.796875q0 0.53125 0.21875 0.75q0.1875 0.21875 0.640625 0.21875q0.25 0 0.421875 -0.0625q0.171875 -0.078125 0.4375 -0.234375l0 1.703125q-0.578125 0.234375 -1.21875 0.234375zm5.329468 0.109375q-1.234375 0 -2.0 -0.5q-0.765625 -0.515625 -1.078125 -1.328125l1.5625 -0.6875q0.203125 0.484375 0.59375 0.734375q0.40625 0.25 0.921875 0.25q0.484375 0 0.796875 -0.15625q0.328125 -0.15625 0.328125 -0.5q0 -0.34375 -0.296875 -0.5q-0.296875 -0.171875 -0.875 -0.296875l-0.8125 -0.1875q-0.8125 -0.1875 -1.359375 -0.71875q-0.546875 -0.53125 -0.546875 -1.3125q0 -0.59375 0.34375 -1.046875q0.359375 -0.46875 0.953125 -0.71875q0.609375 -0.265625 1.34375 -0.265625q2.109375 0 2.8125 1.484375l-1.484375 0.65625q-0.40625 -0.71875 -1.28125 -0.71875q-0.453125 0 -0.71875 0.171875q-0.265625 0.15625 -0.265625 0.40625q0 0.484375 0.90625 0.71875l1.0 0.25q1.015625 0.25 1.515625 0.765625q0.515625 0.515625 0.515625 1.28125q0 0.65625 -0.375 1.15625q-0.375 0.5 -1.046875 0.78125q-0.65625 0.28125 -1.453125 0.28125z"/><path fill="#000" fill-opacity="0" fill-rule="evenodd" d="m672.4761 281.90277l148.8819 0l0 56.37796l-148.8819 0z"/><path fill="#466bb0" fill-rule="nonzero" d="m687.08545 303.9215q-1.390625 0 -2.53125 -0.65625q-1.140625 -0.671875 -1.8125 -1.8125q-0.65625 -1.140625 -0.65625 -2.515625q0 -1.390625 0.65625 -2.53125q0.671875 -1.140625 1.8125 -1.796875q1.140625 -0.65625 2.53125 -0.65625q2.15625 0 3.578125 1.546875l-1.265625 1.234375q-0.921875 -1.078125 -2.296875 -1.078125q-0.890625 0 -1.625 0.40625q-0.734375 0.40625 -1.15625 1.15625q-0.421875 0.734375 -0.421875 1.71875q0 0.96875 0.421875 1.71875q0.421875 0.734375 1.15625 1.140625q0.734375 0.40625 1.625 0.40625q1.5 0 2.515625 -1.25l1.28125 1.21875q-0.703125 0.84375 -1.671875 1.296875q-0.96875 0.453125 -2.140625 0.453125zm8.22937 0q-1.0625 0 -1.890625 -0.46875q-0.8125 -0.484375 -1.28125 -1.296875q-0.453125 -0.828125 -0.453125 -1.859375q0 -1.0 0.453125 -1.828125q0.46875 -0.828125 1.28125 -1.296875q0.828125 -0.484375 1.890625 -0.484375q1.03125 0 1.859375 0.484375q0.828125 0.46875 1.28125 1.296875q0.46875 0.828125 0.46875 1.828125q0 1.03125 -0.46875 1.859375q-0.453125 0.8125 -1.28125 1.296875q-0.828125 0.46875 -1.859375 0.46875zm0 -1.625q0.5 0 0.921875 -0.234375q0.4375 -0.234375 0.6875 -0.6875q0.25 -0.453125 0.25 -1.078125q0 -0.59375 -0.25 -1.046875q-0.25 -0.453125 -0.6875 -0.6875q-0.421875 -0.25 -0.921875 -0.25q-0.515625 0 -0.9375 0.25q-0.421875 0.234375 -0.6875 0.6875q-0.265625 0.453125 -0.265625 1.046875q0 0.609375 0.265625 1.078125q0.265625 0.453125 0.6875 0.6875q0.421875 0.234375 0.9375 0.234375zm4.8134766 -5.390625l1.640625 0l0 0.859375l0.09375 0q0.3125 -0.5 0.875 -0.78125q0.5625 -0.296875 1.203125 -0.296875q1.234375 0 1.875 0.75q0.640625 0.75 0.640625 2.046875l0 4.21875l-1.75 0l0 -4.015625q0 -0.65625 -0.34375 -1.015625q-0.328125 -0.359375 -0.921875 -0.359375q-0.703125 0 -1.140625 0.546875q-0.4375 0.546875 -0.4375 1.375l0 3.46875l-1.734375 0l0 -6.796875zm13.897034 -0.75q-0.46875 0 -0.8125 -0.328125q-0.328125 -0.328125 -0.328125 -0.796875q0 -0.46875 0.328125 -0.796875q0.34375 -0.328125 0.8125 -0.328125q0.46875 0 0.796875 0.328125q0.328125 0.328125 0.328125 0.796875q0 0.46875 -0.328125 0.796875q-0.328125 0.328125 -0.796875 0.328125zm-5.3125 2.25l-1.21875 0l0 -1.5l1.21875 0l0 -0.375q0 -1.15625 0.6875 -1.8125q0.6875 -0.671875 1.8125 -0.671875q0.453125 0 0.75 0.09375l0 1.671875q-0.0625 -0.015625 -0.234375 -0.0625q-0.171875 -0.0625 -0.40625 -0.0625q-0.390625 0 -0.640625 0.265625q-0.234375 0.25 -0.234375 0.6875l0 0.265625l4.4375 0l0 6.796875l-1.734375 0l0 -5.296875l-2.703125 0l0 5.296875l-1.734375 0l0 -5.296875zm11.053833 8.390625q-1.296875 0 -2.15625 -0.578125q-0.84375 -0.578125 -1.140625 -1.390625l1.640625 -0.671875q0.21875 0.5 0.65625 0.796875q0.4375 0.296875 1.0 0.296875q0.828125 0 1.3125 -0.515625q0.484375 -0.5 0.484375 -1.4375l0 -0.53125l-0.109375 0q-0.3125 0.453125 -0.84375 0.703125q-0.515625 0.234375 -1.171875 0.234375q-0.84375 0 -1.578125 -0.421875q-0.71875 -0.4375 -1.15625 -1.234375q-0.4375 -0.796875 -0.4375 -1.84375q0 -1.0625 0.4375 -1.84375q0.4375 -0.796875 1.15625 -1.234375q0.734375 -0.4375 1.578125 -0.4375q0.65625 0 1.171875 0.25q0.53125 0.234375 0.84375 0.6875l0.109375 0l0 -0.71875l1.6875 0l0 6.328125q0 1.09375 -0.4375 1.890625q-0.421875 0.796875 -1.21875 1.234375q-0.78125 0.4375 -1.828125 0.4375zm0.03125 -4.6875q0.734375 0 1.25 -0.5q0.515625 -0.515625 0.515625 -1.40625q0 -0.921875 -0.515625 -1.421875q-0.5 -0.5 -1.25 -0.5q-0.75 0 -1.28125 0.515625q-0.515625 0.5 -0.515625 1.40625q0 0.90625 0.515625 1.40625q0.53125 0.5 1.28125 0.5zm7.1917725 -7.953125l1.71875 0l-2.890625 9.546875l-1.71875 0l2.890625 -9.546875z"/><path fill="#466bb0" fill-rule="nonzero" d="m682.5698 310.15588l6.046875 0l0 1.703125l-4.25 0l0 2.21875l3.828125 0l0 1.703125l-3.828125 0l0 2.21875l4.25 0l0 1.703125l-6.046875 0l0 -9.546875zm7.5358276 2.75l1.640625 0l0 0.859375l0.09375 0q0.3125 -0.5 0.875 -0.78125q0.5625 -0.296875 1.203125 -0.296875q1.234375 0 1.875 0.75q0.640625 0.75 0.640625 2.046875l0 4.21875l-1.75 0l0 -4.015625q0 -0.65625 -0.34375 -1.015625q-0.328125 -0.359375 -0.921875 -0.359375q-0.703125 0 -1.140625 0.546875q-0.4375 0.546875 -0.4375 1.375l0 3.46875l-1.734375 0l0 -6.796875zm10.8897705 7.015625q-0.90625 0 -1.671875 -0.453125q-0.75 -0.46875 -1.1875 -1.28125q-0.421875 -0.828125 -0.421875 -1.890625q0 -1.03125 0.421875 -1.859375q0.4375 -0.828125 1.1875 -1.28125q0.765625 -0.46875 1.671875 -0.46875q0.703125 0 1.234375 0.3125q0.53125 0.296875 0.8125 0.734375l0.109375 0l-0.109375 -0.96875l0 -2.609375l1.734375 0l0 9.546875l-1.625 0l0 -0.8125l-0.109375 0q-0.265625 0.4375 -0.8125 0.734375q-0.53125 0.296875 -1.234375 0.296875zm0.296875 -1.625q0.5 0 0.921875 -0.25q0.421875 -0.25 0.671875 -0.703125q0.265625 -0.453125 0.265625 -1.046875q0 -0.578125 -0.265625 -1.03125q-0.25 -0.453125 -0.671875 -0.703125q-0.421875 -0.25 -0.921875 -0.25q-0.484375 0 -0.90625 0.25q-0.421875 0.25 -0.6875 0.703125q-0.25 0.453125 -0.25 1.03125q0 0.59375 0.25 1.046875q0.265625 0.453125 0.6875 0.703125q0.421875 0.25 0.90625 0.25zm5.144409 -5.390625l1.640625 0l0 0.828125l0.109375 0q0.28125 -0.4375 0.8125 -0.734375q0.53125 -0.3125 1.21875 -0.3125q0.921875 0 1.671875 0.46875q0.765625 0.453125 1.1875 1.28125q0.421875 0.828125 0.421875 1.859375q0 1.0625 -0.421875 1.890625q-0.421875 0.8125 -1.1875 1.28125q-0.75 0.453125 -1.671875 0.453125q-0.6875 0 -1.234375 -0.296875q-0.53125 -0.296875 -0.796875 -0.734375l-0.109375 0l0.109375 0.953125l0 2.734375l-1.75 0l0 -9.671875zm3.484375 5.390625q0.484375 0 0.90625 -0.25q0.4375 -0.25 0.6875 -0.703125q0.25 -0.453125 0.25 -1.046875q0 -0.578125 -0.25 -1.03125q-0.25 -0.453125 -0.6875 -0.703125q-0.421875 -0.25 -0.90625 -0.25q-0.484375 0 -0.90625 0.25q-0.421875 0.25 -0.6875 0.703125q-0.25 0.453125 -0.25 1.03125q0 0.59375 0.25 1.046875q0.265625 0.453125 0.6875 0.703125q0.421875 0.25 0.90625 0.25zm8.184814 1.625q-1.0625 0 -1.890625 -0.46875q-0.8125 -0.484375 -1.28125 -1.296875q-0.453125 -0.828125 -0.453125 -1.859375q0 -1.0 0.453125 -1.828125q0.46875 -0.828125 1.28125 -1.296875q0.828125 -0.484375 1.890625 -0.484375q1.03125 0 1.859375 0.484375q0.828125 0.46875 1.28125 1.296875q0.46875 0.828125 0.46875 1.828125q0 1.03125 -0.46875 1.859375q-0.453125 0.8125 -1.28125 1.296875q-0.828125 0.46875 -1.859375 0.46875zm0 -1.625q0.5 0 0.921875 -0.234375q0.4375 -0.234375 0.6875 -0.6875q0.25 -0.453125 0.25 -1.078125q0 -0.59375 -0.25 -1.046875q-0.25 -0.453125 -0.6875 -0.6875q-0.421875 -0.25 -0.921875 -0.25q-0.515625 0 -0.9375 0.25q-0.421875 0.234375 -0.6875 0.6875q-0.265625 0.453125 -0.265625 1.046875q0 0.609375 0.265625 1.078125q0.265625 0.453125 0.6875 0.6875q0.421875 0.234375 0.9375 0.234375zm5.7977905 -6.140625q-0.46875 0 -0.8125 -0.328125q-0.328125 -0.328125 -0.328125 -0.796875q0 -0.46875 0.328125 -0.796875q0.34375 -0.328125 0.8125 -0.328125q0.46875 0 0.78125 0.328125q0.328125 0.328125 0.328125 0.796875q0 0.46875 -0.328125 0.796875q-0.3125 0.328125 -0.78125 0.328125zm-0.890625 0.75l1.75 0l0 6.796875l-1.75 0l0 -6.796875zm3.5714722 0l1.640625 0l0 0.859375l0.09375 0q0.3125 -0.5 0.875 -0.78125q0.5625 -0.296875 1.203125 -0.296875q1.234375 0 1.875 0.75q0.640625 0.75 0.640625 2.046875l0 4.21875l-1.75 0l0 -4.015625q0 -0.65625 -0.34375 -1.015625q-0.328125 -0.359375 -0.921875 -0.359375q-0.703125 0 -1.140625 0.546875q-0.4375 0.546875 -0.4375 1.375l0 3.46875l-1.734375 0l0 -6.796875zm10.6033325 6.90625q-0.5 0 -0.9375 -0.15625q-0.421875 -0.15625 -0.6875 -0.421875q-0.625 -0.59375 -0.625 -1.703125l0 -3.125l-1.1875 0l0 -1.5l1.1875 0l0 -1.921875l1.75 0l0 1.921875l1.65625 0l0 1.5l-1.65625 0l0 2.796875q0 0.53125 0.21875 0.75q0.1875 0.21875 0.640625 0.21875q0.25 0 0.421875 -0.0625q0.171875 -0.078125 0.4375 -0.234375l0 1.703125q-0.578125 0.234375 -1.21875 0.234375zm5.329468 0.109375q-1.234375 0 -2.0 -0.5q-0.765625 -0.515625 -1.078125 -1.328125l1.5625 -0.6875q0.203125 0.484375 0.59375 0.734375q0.40625 0.25 0.921875 0.25q0.484375 0 0.796875 -0.15625q0.328125 -0.15625 0.328125 -0.5q0 -0.34375 -0.296875 -0.5q-0.296875 -0.171875 -0.875 -0.296875l-0.8125 -0.1875q-0.8125 -0.1875 -1.359375 -0.71875q-0.546875 -0.53125 -0.546875 -1.3125q0 -0.59375 0.34375 -1.046875q0.359375 -0.46875 0.953125 -0.71875q0.609375 -0.265625 1.34375 -0.265625q2.109375 0 2.8125 1.484375l-1.484375 0.65625q-0.40625 -0.71875 -1.28125 -0.71875q-0.453125 0 -0.71875 0.171875q-0.265625 0.15625 -0.265625 0.40625q0 0.484375 0.90625 0.71875l1.0 0.25q1.015625 0.25 1.515625 0.765625q0.515625 0.515625 0.515625 1.28125q0 0.65625 -0.375 1.15625q-0.375 0.5 -1.046875 0.78125q-0.65625 0.28125 -1.453125 0.28125z"/><path fill="#000" fill-opacity="0" fill-rule="evenodd" d="m178.53651 281.90277l148.88188 0l0 56.37796l-148.88188 0z"/><path fill="#466bb0" fill-rule="nonzero" d="m193.14589 303.9215q-1.390625 0 -2.53125 -0.65625q-1.140625 -0.671875 -1.8125 -1.8125q-0.65625 -1.140625 -0.65625 -2.515625q0 -1.390625 0.65625 -2.53125q0.671875 -1.140625 1.8125 -1.796875q1.140625 -0.65625 2.53125 -0.65625q2.15625 0 3.578125 1.546875l-1.265625 1.234375q-0.921875 -1.078125 -2.296875 -1.078125q-0.890625 0 -1.625 0.40625q-0.734375 0.40625 -1.15625 1.15625q-0.421875 0.734375 -0.421875 1.71875q0 0.96875 0.421875 1.71875q0.421875 0.734375 1.15625 1.140625q0.734375 0.40625 1.625 0.40625q1.5 0 2.515625 -1.25l1.28125 1.21875q-0.703125 0.84375 -1.671875 1.296875q-0.96875 0.453125 -2.140625 0.453125zm8.229401 0q-1.0625 0 -1.890625 -0.46875q-0.8125 -0.484375 -1.28125 -1.296875q-0.453125 -0.828125 -0.453125 -1.859375q0 -1.0 0.453125 -1.828125q0.46875 -0.828125 1.28125 -1.296875q0.828125 -0.484375 1.890625 -0.484375q1.03125 0 1.859375 0.484375q0.828125 0.46875 1.28125 1.296875q0.46875 0.828125 0.46875 1.828125q0 1.03125 -0.46875 1.859375q-0.453125 0.8125 -1.28125 1.296875q-0.828125 0.46875 -1.859375 0.46875zm0 -1.625q0.5 0 0.921875 -0.234375q0.4375 -0.234375 0.6875 -0.6875q0.25 -0.453125 0.25 -1.078125q0 -0.59375 -0.25 -1.046875q-0.25 -0.453125 -0.6875 -0.6875q-0.421875 -0.25 -0.921875 -0.25q-0.515625 0 -0.9375 0.25q-0.421875 0.234375 -0.6875 0.6875q-0.265625 0.453125 -0.265625 1.046875q0 0.609375 0.265625 1.078125q0.265625 0.453125 0.6875 0.6875q0.421875 0.234375 0.9375 0.234375zm4.813431 -5.390625l1.640625 0l0 0.859375l0.09375 0q0.3125 -0.5 0.875 -0.78125q0.5625 -0.296875 1.203125 -0.296875q1.234375 0 1.875 0.75q0.640625 0.75 0.640625 2.046875l0 4.21875l-1.75 0l0 -4.015625q0 -0.65625 -0.34375 -1.015625q-0.328125 -0.359375 -0.921875 -0.359375q-0.703125 0 -1.140625 0.546875q-0.4375 0.546875 -0.4375 1.375l0 3.46875l-1.734375 0l0 -6.796875zm13.897064 -0.75q-0.46875 0 -0.8125 -0.328125q-0.328125 -0.328125 -0.328125 -0.796875q0 -0.46875 0.328125 -0.796875q0.34375 -0.328125 0.8125 -0.328125q0.46875 0 0.796875 0.328125q0.328125 0.328125 0.328125 0.796875q0 0.46875 -0.328125 0.796875q-0.328125 0.328125 -0.796875 0.328125zm-5.3125 2.25l-1.21875 0l0 -1.5l1.21875 0l0 -0.375q0 -1.15625 0.6875 -1.8125q0.6875 -0.671875 1.8125 -0.671875q0.453125 0 0.75 0.09375l0 1.671875q-0.0625 -0.015625 -0.234375 -0.0625q-0.171875 -0.0625 -0.40625 -0.0625q-0.390625 0 -0.640625 0.265625q-0.234375 0.25 -0.234375 0.6875l0 0.265625l4.4375 0l0 6.796875l-1.734375 0l0 -5.296875l-2.703125 0l0 5.296875l-1.734375 0l0 -5.296875zm11.053848 8.390625q-1.296875 0 -2.15625 -0.578125q-0.84375 -0.578125 -1.140625 -1.390625l1.640625 -0.671875q0.21875 0.5 0.65625 0.796875q0.4375 0.296875 1.0 0.296875q0.828125 0 1.3125 -0.515625q0.484375 -0.5 0.484375 -1.4375l0 -0.53125l-0.109375 0q-0.3125 0.453125 -0.84375 0.703125q-0.515625 0.234375 -1.171875 0.234375q-0.84375 0 -1.578125 -0.421875q-0.71875 -0.4375 -1.15625 -1.234375q-0.4375 -0.796875 -0.4375 -1.84375q0 -1.0625 0.4375 -1.84375q0.4375 -0.796875 1.15625 -1.234375q0.734375 -0.4375 1.578125 -0.4375q0.65625 0 1.171875 0.25q0.53125 0.234375 0.84375 0.6875l0.109375 0l0 -0.71875l1.6875 0l0 6.328125q0 1.09375 -0.4375 1.890625q-0.421875 0.796875 -1.21875 1.234375q-0.78125 0.4375 -1.828125 0.4375zm0.03125 -4.6875q0.734375 0 1.25 -0.5q0.515625 -0.515625 0.515625 -1.40625q0 -0.921875 -0.515625 -1.421875q-0.5 -0.5 -1.25 -0.5q-0.75 0 -1.28125 0.515625q-0.515625 0.5 -0.515625 1.40625q0 0.90625 0.515625 1.40625q0.53125 0.5 1.28125 0.5zm7.1917267 -7.953125l1.71875 0l-2.890625 9.546875l-1.71875 0l2.890625 -9.546875z"/><path fill="#466bb0" fill-rule="nonzero" d="m188.63026 310.15588l6.046875 0l0 1.703125l-4.25 0l0 2.21875l3.828125 0l0 1.703125l-3.828125 0l0 2.21875l4.25 0l0 1.703125l-6.046875 0l0 -9.546875zm7.535843 2.75l1.640625 0l0 0.859375l0.09375 0q0.3125 -0.5 0.875 -0.78125q0.5625 -0.296875 1.203125 -0.296875q1.234375 0 1.875 0.75q0.640625 0.75 0.640625 2.046875l0 4.21875l-1.75 0l0 -4.015625q0 -0.65625 -0.34375 -1.015625q-0.328125 -0.359375 -0.921875 -0.359375q-0.703125 0 -1.140625 0.546875q-0.4375 0.546875 -0.4375 1.375l0 3.46875l-1.734375 0l0 -6.796875zm10.8897705 7.015625q-0.90625 0 -1.671875 -0.453125q-0.75 -0.46875 -1.1875 -1.28125q-0.421875 -0.828125 -0.421875 -1.890625q0 -1.03125 0.421875 -1.859375q0.4375 -0.828125 1.1875 -1.28125q0.765625 -0.46875 1.671875 -0.46875q0.703125 0 1.234375 0.3125q0.53125 0.296875 0.8125 0.734375l0.109375 0l-0.109375 -0.96875l0 -2.609375l1.734375 0l0 9.546875l-1.625 0l0 -0.8125l-0.109375 0q-0.265625 0.4375 -0.8125 0.734375q-0.53125 0.296875 -1.234375 0.296875zm0.296875 -1.625q0.5 0 0.921875 -0.25q0.421875 -0.25 0.671875 -0.703125q0.265625 -0.453125 0.265625 -1.046875q0 -0.578125 -0.265625 -1.03125q-0.25 -0.453125 -0.671875 -0.703125q-0.421875 -0.25 -0.921875 -0.25q-0.484375 0 -0.90625 0.25q-0.421875 0.25 -0.6875 0.703125q-0.25 0.453125 -0.25 1.03125q0 0.59375 0.25 1.046875q0.265625 0.453125 0.6875 0.703125q0.421875 0.25 0.90625 0.25zm5.144394 -5.390625l1.640625 0l0 0.828125l0.109375 0q0.28125 -0.4375 0.8125 -0.734375q0.53125 -0.3125 1.21875 -0.3125q0.921875 0 1.671875 0.46875q0.765625 0.453125 1.1875 1.28125q0.421875 0.828125 0.421875 1.859375q0 1.0625 -0.421875 1.890625q-0.421875 0.8125 -1.1875 1.28125q-0.75 0.453125 -1.671875 0.453125q-0.6875 0 -1.234375 -0.296875q-0.53125 -0.296875 -0.796875 -0.734375l-0.109375 0l0.109375 0.953125l0 2.734375l-1.75 0l0 -9.671875zm3.484375 5.390625q0.484375 0 0.90625 -0.25q0.4375 -0.25 0.6875 -0.703125q0.25 -0.453125 0.25 -1.046875q0 -0.578125 -0.25 -1.03125q-0.25 -0.453125 -0.6875 -0.703125q-0.421875 -0.25 -0.90625 -0.25q-0.484375 0 -0.90625 0.25q-0.421875 0.25 -0.6875 0.703125q-0.25 0.453125 -0.25 1.03125q0 0.59375 0.25 1.046875q0.265625 0.453125 0.6875 0.703125q0.421875 0.25 0.90625 0.25zm8.18483 1.625q-1.0625 0 -1.890625 -0.46875q-0.8125 -0.484375 -1.28125 -1.296875q-0.453125 -0.828125 -0.453125 -1.859375q0 -1.0 0.453125 -1.828125q0.46875 -0.828125 1.28125 -1.296875q0.828125 -0.484375 1.890625 -0.484375q1.03125 0 1.859375 0.484375q0.828125 0.46875 1.28125 1.296875q0.46875 0.828125 0.46875 1.828125q0 1.03125 -0.46875 1.859375q-0.453125 0.8125 -1.28125 1.296875q-0.828125 0.46875 -1.859375 0.46875zm0 -1.625q0.5 0 0.921875 -0.234375q0.4375 -0.234375 0.6875 -0.6875q0.25 -0.453125 0.25 -1.078125q0 -0.59375 -0.25 -1.046875q-0.25 -0.453125 -0.6875 -0.6875q-0.421875 -0.25 -0.921875 -0.25q-0.515625 0 -0.9375 0.25q-0.421875 0.234375 -0.6875 0.6875q-0.265625 0.453125 -0.265625 1.046875q0 0.609375 0.265625 1.078125q0.265625 0.453125 0.6875 0.6875q0.421875 0.234375 0.9375 0.234375zm5.797806 -6.140625q-0.46875 0 -0.8125 -0.328125q-0.328125 -0.328125 -0.328125 -0.796875q0 -0.46875 0.328125 -0.796875q0.34375 -0.328125 0.8125 -0.328125q0.46875 0 0.78125 0.328125q0.328125 0.328125 0.328125 0.796875q0 0.46875 -0.328125 0.796875q-0.3125 0.328125 -0.78125 0.328125zm-0.890625 0.75l1.75 0l0 6.796875l-1.75 0l0 -6.796875zm3.5714722 0l1.640625 0l0 0.859375l0.09375 0q0.3125 -0.5 0.875 -0.78125q0.5625 -0.296875 1.203125 -0.296875q1.234375 0 1.875 0.75q0.640625 0.75 0.640625 2.046875l0 4.21875l-1.75 0l0 -4.015625q0 -0.65625 -0.34375 -1.015625q-0.328125 -0.359375 -0.921875 -0.359375q-0.703125 0 -1.140625 0.546875q-0.4375 0.546875 -0.4375 1.375l0 3.46875l-1.734375 0l0 -6.796875zm10.603317 6.90625q-0.5 0 -0.9375 -0.15625q-0.421875 -0.15625 -0.6875 -0.421875q-0.625 -0.59375 -0.625 -1.703125l0 -3.125l-1.1875 0l0 -1.5l1.1875 0l0 -1.921875l1.75 0l0 1.921875l1.65625 0l0 1.5l-1.65625 0l0 2.796875q0 0.53125 0.21875 0.75q0.1875 0.21875 0.640625 0.21875q0.25 0 0.421875 -0.0625q0.171875 -0.078125 0.4375 -0.234375l0 1.703125q-0.578125 0.234375 -1.21875 0.234375zm5.329468 0.109375q-1.234375 0 -2.0 -0.5q-0.765625 -0.515625 -1.078125 -1.328125l1.5625 -0.6875q0.203125 0.484375 0.59375 0.734375q0.40625 0.25 0.921875 0.25q0.484375 0 0.796875 -0.15625q0.328125 -0.15625 0.328125 -0.5q0 -0.34375 -0.296875 -0.5q-0.296875 -0.171875 -0.875 -0.296875l-0.8125 -0.1875q-0.8125 -0.1875 -1.359375 -0.71875q-0.546875 -0.53125 -0.546875 -1.3125q0 -0.59375 0.34375 -1.046875q0.359375 -0.46875 0.953125 -0.71875q0.609375 -0.265625 1.34375 -0.265625q2.109375 0 2.8125 1.484375l-1.484375 0.65625q-0.40625 -0.71875 -1.28125 -0.71875q-0.453125 0 -0.71875 0.171875q-0.265625 0.15625 -0.265625 0.40625q0 0.484375 0.90625 0.71875l1.0 0.25q1.015625 0.25 1.515625 0.765625q0.515625 0.515625 0.515625 1.28125q0 0.65625 -0.375 1.15625q-0.375 0.5 -1.046875 0.78125q-0.65625 0.28125 -1.453125 0.28125z"/><path fill="#000" fill-opacity="0" fill-rule="evenodd" d="m363.2951 554.2253l234.5827 0"/><path fill-rule="evenodd" stroke="#008200" stroke-linecap="butt" stroke-linejoin="round" stroke-width="2" d="m363.2951 554.2253l222.5827 0"/><path fill="#008200" fill-rule="evenodd" stroke="#008200" stroke-linecap="butt" stroke-width="2" d="m585.8778 557.52875l9.076172 -3.3034668l-9.076172 -3.3034668z"/><path fill="#e6e6e6" fill-rule="evenodd" d="m602.35645 519.51447l-0.6577759 0.060180664l-1.1964111 0.40496826l-0.8581543 0.8098755l-0.5324707 1.0397949l-0.06262207 0.57458496l0 63.617126l0.06262207 0.5800781l0.5324707 1.0397949l0.8581543 0.8098755l1.1964111 0.40496826l0.6577759 0.054748535l142.25635 0l0.66400146 -0.054748535l1.1901855 -0.40496826l0.927063 -0.8098755l0.463562 -1.0397949l0.06890869 -0.5800781l0 -63.617126l-0.06890869 -0.57458496l-0.463562 -1.0397949l-0.927063 -0.8098755l-1.1901855 -0.40496826l-0.66400146 -0.060180664z"/><path fill="#fff" fill-rule="evenodd" d="m610.7802 528.18634l126.04724 0l0 52.06299l-126.04724 0z"/><path fill="#000" fill-rule="nonzero" d="m665.2077 560.3278q-0.875 0 -1.6875 -0.359375q-0.796875 -0.359375 -1.421875 -1.046875q-0.625 -0.703125 -0.890625 -1.6875l1.296875 -0.53125q0.265625 1.015625 1.0 1.671875q0.734375 0.65625 1.734375 0.65625q0.984375 0 1.671875 -0.53125q0.6875 -0.53125 0.6875 -1.46875q0 -0.796875 -0.578125 -1.3125q-0.578125 -0.515625 -1.90625 -0.96875l-0.734375 -0.25q-1.203125 -0.4375 -1.984375 -1.140625q-0.765625 -0.703125 -0.765625 -1.953125q0 -0.8125 0.453125 -1.5q0.453125 -0.703125 1.25 -1.125q0.796875 -0.421875 1.796875 -0.421875q0.984375 0 1.71875 0.375q0.734375 0.375 1.171875 0.90625q0.453125 0.515625 0.625 1.03125l-1.265625 0.546875q-0.171875 -0.59375 -0.75 -1.078125q-0.5625 -0.484375 -1.484375 -0.484375q-0.890625 0 -1.515625 0.5q-0.625 0.5 -0.625 1.25q0 0.671875 0.53125 1.09375q0.53125 0.421875 1.609375 0.796875l0.75 0.25q1.453125 0.53125 2.265625 1.328125q0.8125 0.78125 0.8125 2.140625q0 1.109375 -0.5625 1.859375q-0.5625 0.75 -1.4375 1.109375q-0.859375 0.34375 -1.765625 0.34375zm9.148254 0q-1.171875 0 -2.109375 -0.546875q-0.921875 -0.5625 -1.4375 -1.546875q-0.515625 -0.984375 -0.515625 -2.21875q0 -1.171875 0.484375 -2.171875q0.484375 -1.0 1.390625 -1.59375q0.90625 -0.59375 2.078125 -0.59375q1.203125 0 2.078125 0.546875q0.875 0.53125 1.34375 1.484375q0.484375 0.9375 0.484375 2.15625q0 0.1875 -0.03125 0.40625l-6.46875 0q0.046875 0.9375 0.4375 1.578125q0.40625 0.640625 1.015625 0.96875q0.625 0.3125 1.296875 0.3125q1.59375 0 2.421875 -1.484375l1.140625 0.5625q-0.5 0.984375 -1.421875 1.5625q-0.90625 0.578125 -2.1875 0.578125zm2.34375 -5.1875q-0.03125 -0.515625 -0.28125 -1.03125q-0.25 -0.515625 -0.796875 -0.859375q-0.546875 -0.359375 -1.375 -0.359375q-0.96875 0 -1.640625 0.625q-0.671875 0.609375 -0.875 1.625l4.96875 0zm3.0393066 -3.21875l1.28125 0l0 1.3125l0.078125 0q0.234375 -0.671875 0.921875 -1.109375q0.6875 -0.453125 1.4375 -0.453125q0.5625 0 0.96875 0.171875l0 1.46875q-0.515625 -0.265625 -1.15625 -0.265625q-0.59375 0 -1.09375 0.34375q-0.5 0.328125 -0.796875 0.90625q-0.28125 0.5625 -0.28125 1.21875l0 4.5625l-1.359375 0l0 -8.15625zm5.3657227 0l1.453125 0l2.53125 6.5625l0.03125 0l2.5625 -6.5625l1.421875 0l-3.328125 8.15625l-1.375 0l-3.296875 -8.15625zm9.927185 -1.5q-0.40625 0 -0.703125 -0.28125q-0.28125 -0.296875 -0.28125 -0.703125q0 -0.421875 0.28125 -0.6875q0.296875 -0.28125 0.703125 -0.28125q0.40625 0 0.6875 0.28125q0.28125 0.265625 0.28125 0.6875q0 0.40625 -0.28125 0.703125q-0.28125 0.28125 -0.6875 0.28125zm-0.671875 1.5l1.359375 0l0 8.15625l-1.359375 0l0 -8.15625zm7.0985107 8.40625q-1.1875 0 -2.140625 -0.5625q-0.9375 -0.5625 -1.46875 -1.546875q-0.515625 -0.984375 -0.515625 -2.21875q0 -1.234375 0.515625 -2.21875q0.53125 -1.0 1.46875 -1.5625q0.953125 -0.5625 2.140625 -0.5625q1.328125 0 2.234375 0.625q0.90625 0.609375 1.28125 1.640625l-1.234375 0.515625q-0.296875 -0.765625 -0.90625 -1.15625q-0.59375 -0.390625 -1.4375 -0.390625q-0.71875 0 -1.34375 0.390625q-0.625 0.390625 -1.0 1.109375q-0.375 0.703125 -0.375 1.609375q0 0.90625 0.375 1.609375q0.375 0.703125 1.0 1.109375q0.625 0.390625 1.34375 0.390625q0.859375 0 1.484375 -0.40625q0.625 -0.40625 0.9375 -1.140625l1.203125 0.515625q-0.40625 1.015625 -1.328125 1.640625q-0.921875 0.609375 -2.234375 0.609375zm8.593506 0q-1.171875 0 -2.109375 -0.546875q-0.921875 -0.5625 -1.4375 -1.546875q-0.515625 -0.984375 -0.515625 -2.21875q0 -1.171875 0.484375 -2.171875q0.484375 -1.0 1.390625 -1.59375q0.90625 -0.59375 2.078125 -0.59375q1.203125 0 2.078125 0.546875q0.875 0.53125 1.34375 1.484375q0.484375 0.9375 0.484375 2.15625q0 0.1875 -0.03125 0.40625l-6.46875 0q0.046875 0.9375 0.4375 1.578125q0.40625 0.640625 1.015625 0.96875q0.625 0.3125 1.296875 0.3125q1.59375 0 2.421875 -1.484375l1.140625 0.5625q-0.5 0.984375 -1.421875 1.5625q-0.90625 0.578125 -2.1875 0.578125zm2.34375 -5.1875q-0.03125 -0.515625 -0.28125 -1.03125q-0.25 -0.515625 -0.796875 -0.859375q-0.546875 -0.359375 -1.375 -0.359375q-0.96875 0 -1.640625 0.625q-0.671875 0.609375 -0.875 1.625l4.96875 0zm2.0236206 4.9375l0 0zm4.993286 -11.453125l4.109375 0q0.859375 0 1.625 0.40625q0.765625 0.390625 1.203125 1.09375q0.453125 0.703125 0.453125 1.578125q0 0.84375 -0.421875 1.46875q-0.421875 0.625 -1.140625 0.953125l0 0.0625q0.859375 0.296875 1.40625 1.0q0.546875 0.703125 0.546875 1.640625q0 0.9375 -0.484375 1.6875q-0.46875 0.734375 -1.265625 1.15625q-0.78125 0.40625 -1.703125 0.40625l-4.328125 0l0 -11.453125zm4.109375 4.9375q0.578125 0 1.015625 -0.265625q0.4375 -0.265625 0.671875 -0.6875q0.25 -0.421875 0.25 -0.875q0 -0.421875 -0.234375 -0.84375q-0.234375 -0.421875 -0.65625 -0.6875q-0.421875 -0.28125 -0.984375 -0.28125l-2.8125 0l0 3.640625l2.75 0zm0.3125 5.21875q0.5625 0 1.015625 -0.28125q0.46875 -0.296875 0.71875 -0.75q0.25 -0.453125 0.25 -0.9375q0 -0.484375 -0.265625 -0.9375q-0.25 -0.453125 -0.71875 -0.734375q-0.46875 -0.28125 -1.078125 -0.28125l-2.984375 0l0 3.921875l3.0625 0z"/><path fill="#767576" fill-rule="evenodd" d="m630.6468 536.86664l-1.9053955 0.054748535l-3.624939 0.6949463l-3.2531738 1.329834l-2.9452515 1.8496704l-2.5153809 2.3695679l-1.963501 2.7800293l-1.4116211 3.0645752l-0.73773193 3.4093018l-0.06390381 1.7949829l0.06390381 1.7949219l0.73773193 3.3491821l1.4116211 3.1247559l1.963501 2.774475l2.5153809 2.375061l2.9452515 1.8496704l3.2531738 1.329834l3.624939 0.6950073l1.9053955 0.0546875l1.8995972 -0.0546875l3.5610352 -0.6950073l3.3170776 -1.329834l2.9452515 -1.8496704l2.5153809 -2.375061l1.963501 -2.774475l1.4116211 -3.1247559l0.73779297 -3.3491821l0.06390381 -1.7949219l-0.06390381 -1.7949829l-0.73779297 -3.4093018l-1.4116211 -3.0645752l-1.963501 -2.7800293l-2.5153809 -2.3695679l-2.9452515 -1.8496704l-3.3170776 -1.329834l-3.5610352 -0.6949463l-1.8995972 -0.054748535z"/><path fill="#000" fill-opacity="0" fill-rule="evenodd" d="m637.153 560.22833l-13.076477 0l0 -12.31842l13.076477 0l0 12.31842z"/><path fill-rule="evenodd" stroke="#fff" stroke-linecap="butt" stroke-linejoin="round" stroke-width=".916" d="m637.153 560.22833l-13.076477 0l0 -12.31842l13.076477 0l0 12.31842z"/><path fill="#000" fill-opacity="0" fill-rule="evenodd" d="m626.528 547.9099l0 -2.949646"/><path fill-rule="evenodd" stroke="#fff" stroke-linecap="round" stroke-miterlimit="105.678" stroke-width=".916" d="m626.528 547.9099l0 -2.949646"/><path fill="#000" fill-opacity="0" fill-rule="evenodd" d="m630.6467 547.9099l0 -2.949646"/><path fill-rule="evenodd" stroke="#fff" stroke-linecap="round" stroke-miterlimit="105.678" stroke-width=".916" d="m630.6467 547.9099l0 -2.949646"/><path fill="#000" fill-opacity="0" fill-rule="evenodd" d="m634.7596 547.9099l0 -2.949646"/><path fill-rule="evenodd" stroke="#fff" stroke-linecap="round" stroke-miterlimit="105.678" stroke-width=".916" d="m634.7596 547.9099l0 -2.949646"/><path fill="#000" fill-opacity="0" fill-rule="evenodd" d="m626.528 563.4679l0 -3.0098267"/><path fill-rule="evenodd" stroke="#fff" stroke-linecap="round" stroke-miterlimit="105.678" stroke-width=".916" d="m626.528 563.4679l0 -3.0098267"/><path fill="#000" fill-opacity="0" fill-rule="evenodd" d="m630.6467 563.4679l0 -3.0098267"/><path fill-rule="evenodd" stroke="#fff" stroke-linecap="round" stroke-miterlimit="105.678" stroke-width=".916" d="m630.6467 563.4679l0 -3.0098267"/><path fill="#000" fill-opacity="0" fill-rule="evenodd" d="m634.7596 563.4679l0 -3.0098267"/><path fill-rule="evenodd" stroke="#fff" stroke-linecap="round" stroke-miterlimit="105.678" stroke-width=".916" d="m634.7596 563.4679l0 -3.0098267"/><path fill="#000" fill-opacity="0" fill-rule="evenodd" d="m623.9546 558.0885l-3.1311646 0"/><path fill-rule="evenodd" stroke="#fff" stroke-linecap="round" stroke-miterlimit="105.678" stroke-width=".916" d="m623.9546 558.0885l-3.1311646 0"/><path fill="#000" fill-opacity="0" fill-rule="evenodd" d="m623.9546 554.21405l-3.1311646 0"/><path fill-rule="evenodd" stroke="#fff" stroke-linecap="round" stroke-miterlimit="105.678" stroke-width=".916" d="m623.9546 554.21405l-3.1311646 0"/><path fill="#000" fill-opacity="0" fill-rule="evenodd" d="m623.9546 550.3396l-3.1311646 0"/><path fill-rule="evenodd" stroke="#fff" stroke-linecap="round" stroke-miterlimit="105.678" stroke-width=".916" d="m623.9546 550.3396l-3.1311646 0"/><path fill="#000" fill-opacity="0" fill-rule="evenodd" d="m640.46423 558.0885l-3.18927 0"/><path fill-rule="evenodd" stroke="#fff" stroke-linecap="round" stroke-miterlimit="105.678" stroke-width=".916" d="m640.46423 558.0885l-3.18927 0"/><path fill="#000" fill-opacity="0" fill-rule="evenodd" d="m640.46423 554.21405l-3.18927 0"/><path fill-rule="evenodd" stroke="#fff" stroke-linecap="round" stroke-miterlimit="105.678" stroke-width=".916" d="m640.46423 554.21405l-3.18927 0"/><path fill="#000" fill-opacity="0" fill-rule="evenodd" d="m640.46423 550.3396l-3.18927 0"/><path fill-rule="evenodd" stroke="#fff" stroke-linecap="round" stroke-miterlimit="105.678" stroke-width=".916" d="m640.46423 550.3396l-3.18927 0"/><path fill="#fff" fill-rule="evenodd" d="m629.787 551.32465l-0.4298706 0.054748535l-0.73779297 0.29003906l-0.5518799 0.5198364l-0.30786133 0.6950073l0 0.40496826l0 1.619873l0 0.40496826l0.30786133 0.6949463l0.5518799 0.51989746l0.73779297 0.2845459l2.5734253 0l0.73779297 -0.2845459l0.5518799 -0.51989746l0.30786133 -0.6949463l0 -0.40496826l0 -1.619873l0 -0.40496826l-0.30786133 -0.6950073l-0.5518799 -0.5198364l-0.73779297 -0.29003906l-0.4298706 -0.054748535z"/><path fill="#000" fill-opacity="0" fill-rule="evenodd" d="m672.3247 528.16516l0.37799072 -80.188995"/><path fill-rule="evenodd" stroke="#46f" stroke-dasharray="8 6" stroke-linecap="butt" stroke-linejoin="round" stroke-width="2" d="m672.3247 528.16516l0.3456421 -73.3349"/><path fill="#46f" fill-rule="evenodd" stroke="#46f" stroke-linecap="butt" stroke-width="2" d="m672.67035 454.83026l2.2385864 2.2597656l-2.2200317 -6.190094l-2.2782593 6.1688843z"/></g></svg>