<svg xmlns="http://www.w3.org/2000/svg" viewBox="0 0 965 346"><defs><style>.a0f12157-2124-4605-84d7-4abd539adfa8,.a2f7a6a1-6398-44a7-b7a2-e9f75643dda3,.a39173f3-a9d9-4498-b12b-d75e75038d1e,.a3add159-89cb-4659-928f-05f9f39f0c99,.b580bf1e-21b7-43b3-9e3b-c8fa377ee0c3,.bfc963ef-7685-4679-af95-8d9fb44ad933,.ec1e14e5-1e5b-4c5a-80e3-83551919e3b5,.fb052a07-0958-4658-a0d5-8b37f8ca16ef{fill:none}.b8ce8355-c2fe-451a-a6a9-0a3be12b4e5e{fill:#e5e5e4}.e579e254-2e4e-4e67-888c-460c3e5c1a5c{fill:#fff}.bb135dc7-b47d-4ff6-a330-db3b005cdbce{font-size:13.69px}.a2050531-5310-4f8e-b497-1bc732e51088,.bb135dc7-b47d-4ff6-a330-db3b005cdbce{font-family:GoogleSans-Regular,Google Sans}.a5b46f93-89b2-45d5-9ab8-f58422ed9129,.fe1178d8-4167-4dc0-b03d-3c4ac0357130{letter-spacing:0}.f216789b-dac0-4dff-98b3-dde1d05b517b{letter-spacing:.02em}.e3129575-6618-41fa-ba27-5861a4d527f3{fill:#486baf}.a0f12157-2124-4605-84d7-4abd539adfa8,.a2f7a6a1-6398-44a7-b7a2-e9f75643dda3,.a39173f3-a9d9-4498-b12b-d75e75038d1e,.a3add159-89cb-4659-928f-05f9f39f0c99,.b580bf1e-21b7-43b3-9e3b-c8fa377ee0c3,.bfc963ef-7685-4679-af95-8d9fb44ad933,.fb052a07-0958-4658-a0d5-8b37f8ca16ef{stroke-linejoin:round}.a2050531-5310-4f8e-b497-1bc732e51088{font-size:14px;letter-spacing:-.01em}.e27595f9-b508-4d73-afcc-c662002df7d4{letter-spacing:-.01em}.f9b87030-1321-47bc-a84e-1c743e50e4c7{letter-spacing:-.02em}.f1495a80-61db-44e3-a73a-e8e193edc580{letter-spacing:-.01em}.a8f6fc85-14a0-4d5d-adc3-e1e42bdcab9c{letter-spacing:0}.a2f7a6a1-6398-44a7-b7a2-e9f75643dda3{stroke:#e905ee}.a0f12157-2124-4605-84d7-4abd539adfa8,.a2f7a6a1-6398-44a7-b7a2-e9f75643dda3{stroke-width:3px}.a6e71117-1962-490a-8235-f9a5b8e91179{fill:#767576}.a3add159-89cb-4659-928f-05f9f39f0c99,.ec1e14e5-1e5b-4c5a-80e3-83551919e3b5{stroke:#fff}.a39173f3-a9d9-4498-b12b-d75e75038d1e,.b580bf1e-21b7-43b3-9e3b-c8fa377ee0c3,.bfc963ef-7685-4679-af95-8d9fb44ad933,.ec1e14e5-1e5b-4c5a-80e3-83551919e3b5,.fb052a07-0958-4658-a0d5-8b37f8ca16ef{stroke-linecap:round}.ec1e14e5-1e5b-4c5a-80e3-83551919e3b5{stroke-miterlimit:10}.a0f12157-2124-4605-84d7-4abd539adfa8{stroke:#b14d9d}.b580bf1e-21b7-43b3-9e3b-c8fa377ee0c3{stroke:#818181}.a39173f3-a9d9-4498-b12b-d75e75038d1e,.b580bf1e-21b7-43b3-9e3b-c8fa377ee0c3,.bfc963ef-7685-4679-af95-8d9fb44ad933,.fb052a07-0958-4658-a0d5-8b37f8ca16ef{stroke-width:4px}.ae839db7-539e-40d8-afb5-52b643c112b0{fill:#818181}.a39173f3-a9d9-4498-b12b-d75e75038d1e,.bfc963ef-7685-4679-af95-8d9fb44ad933,.fb052a07-0958-4658-a0d5-8b37f8ca16ef{stroke:#486baf}.fb052a07-0958-4658-a0d5-8b37f8ca16ef{stroke-dasharray:6.66 13.32}.bfc963ef-7685-4679-af95-8d9fb44ad933{stroke-dasharray:6.26 12.51}.b1835c03-4fde-4983-ac3c-958771b5771c{fill:#466bb0}.b94b25f3-2ba5-4a28-8150-65d3d239d510{font-size:12px;font-family:GoogleSansDisplay-Regular,Google Sans Display}.a3880874-1f9e-4202-9f6b-a35256216b25{letter-spacing:-.02em}.a69748ae-18ae-4a5a-8057-4af0bdedd06a{letter-spacing:-.01em}.a9fdd367-3fe9-4c33-ad1b-de9c1e62a86c{letter-spacing:-.02em}.ba8120d3-4295-474a-8045-1120391f20d9{letter-spacing:-.01em}.b54c2e02-1701-44ee-a1d7-5fa4688607f2{letter-spacing:0}.a53279cd-3b45-40b1-a795-a4832baf5904{letter-spacing:-.02em}</style><clipPath id="a143c9df-a9a9-4bc8-96a3-02a5dd796012"><path fill="none" d="M157.55 6.04h23.8v23.8h-23.8z"/></clipPath></defs><g id="b83ba928-66ad-4a5d-8cdf-f63bf0ff8af4" data-name="Basic-Mesh"><rect class="b8ce8355-c2fe-451a-a6a9-0a3be12b4e5e" x="275.11" y="49.56" width="123.25" height="75.44" rx="3"/><rect class="e579e254-2e4e-4e67-888c-460c3e5c1a5c" x="283.92" y="92.99" width="105.64" height="26.41" rx="3"/><text class="bb135dc7-b47d-4ff6-a330-db3b005cdbce" transform="translate(293.03 110.34)"><tspan letter-spacing="-.02em">V</tspan><tspan x="8.35" y="0">irt</tspan><tspan class="a5b46f93-89b2-45d5-9ab8-f58422ed9129" x="21.65" y="0">u</tspan><tspan class="fe1178d8-4167-4dc0-b03d-3c4ac0357130" x="29.27" y="0">al </tspan><tspan x="42.6" y="0" letter-spacing="0">s</tspan><tspan x="49.15" y="0">e</tspan><tspan class="f216789b-dac0-4dff-98b3-dde1d05b517b" x="56.86" y="0">r</tspan><tspan x="62.23" y="0">v</tspan><tspan x="69.27" y="0" letter-spacing="-.01em">ic</tspan><tspan x="79.7" y="0">e</tspan></text><path id="a0a33e99-f8a5-43ed-9ade-db89fa205d33" data-name="background" class="e3129575-6618-41fa-ba27-5861a4d527f3" d="M322.52 49.56h28.44V78h-28.44z"/><path id="bff1440e-b619-4096-8c90-00c38d94ab1f" data-name="hull" class="e579e254-2e4e-4e67-888c-460c3e5c1a5c" d="M328.14 73.46h17.2l-10.75 3.22-6.45-3.22z"/><path id="fac4dd01-7c76-452d-a7c6-92be0166f6f4" data-name="mainsail" class="e579e254-2e4e-4e67-888c-460c3e5c1a5c" d="M328.14 72.38l6.45-1.07V59.48l-6.45 12.9z"/><path id="adac8f06-2b0b-45b8-b51d-0c6b3be6e6a0" data-name="headsail" class="e579e254-2e4e-4e67-888c-460c3e5c1a5c" d="M335.66 71.31l9.68 1.07-9.68-21.5v20.43z"/><rect x="159.2" y="6.04" width="688.65" height="325.73" rx="10" stroke-linejoin="round" stroke="#466bb0" stroke-dasharray="9.96 9.96" fill="none"/><rect class="b8ce8355-c2fe-451a-a6a9-0a3be12b4e5e" x="795.02" y="49.42" width="105.64" height="105.64" rx="3"/><rect class="e579e254-2e4e-4e67-888c-460c3e5c1a5c" x="803.83" y="119.85" width="88.04" height="26.41" rx="3"/><text class="a2050531-5310-4f8e-b497-1bc732e51088" transform="translate(819.88 137.79)">G<tspan class="e27595f9-b508-4d73-afcc-c662002df7d4" x="11.17" y="0">a</tspan><tspan class="f9b87030-1321-47bc-a84e-1c743e50e4c7" x="18.47" y="0">t</tspan><tspan class="f1495a80-61db-44e3-a73a-e8e193edc580" x="23.28" y="0">ewa</tspan><tspan class="a8f6fc85-14a0-4d5d-adc3-e1e42bdcab9c" x="49.06" y="0">y</tspan></text><rect class="e579e254-2e4e-4e67-888c-460c3e5c1a5c" x="821.43" y="58.23" width="52.82" height="52.82" rx="3"/><path class="a2f7a6a1-6398-44a7-b7a2-e9f75643dda3" d="M860.82 92.12V77.16l-12.98-7.49-12.97 7.49v14.96l12.97 7.49 12.98-7.49z"/><path id="af8666dc-68bb-4573-89e8-f42105bd0d0c" data-name="background" class="e3129575-6618-41fa-ba27-5861a4d527f3" d="M799.57 49.42h20v20h-20z"/><path id="b190d5da-1530-4b5e-8cfd-dc0638f32139" data-name="hull" class="e579e254-2e4e-4e67-888c-460c3e5c1a5c" d="M803.57 66.17h12l-7.5 2.25-4.5-2.25z"/><path id="b89ed4fd-b5d3-4a5e-b385-76e2286c7d9f" data-name="mainsail" class="e579e254-2e4e-4e67-888c-460c3e5c1a5c" d="M803.57 65.42l4.5-.75v-8.25l-4.5 9z"/><path id="b36501a0-e61b-4f4e-8c1e-635ea4fe1044" data-name="headsail" class="e579e254-2e4e-4e67-888c-460c3e5c1a5c" d="M808.82 64.67l6.75.75-6.75-15v14.25z"/><rect class="b8ce8355-c2fe-451a-a6a9-0a3be12b4e5e" x="107.84" y="49.56" width="105.64" height="105.64" rx="3"/><rect class="e579e254-2e4e-4e67-888c-460c3e5c1a5c" x="116.64" y="119.99" width="88.04" height="26.41" rx="3"/><text class="a2050531-5310-4f8e-b497-1bc732e51088" transform="translate(132.7 137.93)">G<tspan class="e27595f9-b508-4d73-afcc-c662002df7d4" x="11.17" y="0">a</tspan><tspan class="f9b87030-1321-47bc-a84e-1c743e50e4c7" x="18.47" y="0">t</tspan><tspan class="f1495a80-61db-44e3-a73a-e8e193edc580" x="23.28" y="0">ewa</tspan><tspan class="a8f6fc85-14a0-4d5d-adc3-e1e42bdcab9c" x="49.06" y="0">y</tspan></text><rect class="e579e254-2e4e-4e67-888c-460c3e5c1a5c" x="134.25" y="58.37" width="52.82" height="52.82" rx="3"/><path class="a2f7a6a1-6398-44a7-b7a2-e9f75643dda3" d="M173.63 92.26V77.3l-12.97-7.49-12.97 7.49v14.96l12.97 7.49 12.97-7.49z"/><path id="a1690ccd-769c-4738-9df4-150478e71086" data-name="background" class="e3129575-6618-41fa-ba27-5861a4d527f3" d="M112.39 49.56h20v20h-20z"/><path id="af42c667-3a3a-4287-91fa-146ee2f9841a" data-name="hull" class="e579e254-2e4e-4e67-888c-460c3e5c1a5c" d="M116.39 66.31h12l-7.5 2.25-4.5-2.25z"/><path id="a7a775b3-4ec6-42b9-a454-4b2788f0a419" data-name="mainsail" class="e579e254-2e4e-4e67-888c-460c3e5c1a5c" d="M116.39 65.56l4.5-.75v-8.25l-4.5 9z"/><path id="fe35f760-df7a-45b8-bc5f-761ad9131b9e" data-name="headsail" class="e579e254-2e4e-4e67-888c-460c3e5c1a5c" d="M121.64 64.81l6.75.75-6.75-15v14.25z"/><rect class="b8ce8355-c2fe-451a-a6a9-0a3be12b4e5e" x="11" y="208.03" width="131.96" height="70.43" rx="3"/><rect class="e579e254-2e4e-4e67-888c-460c3e5c1a5c" x="19.71" y="216.83" width="114.45" height="52.82" rx="3"/><text class="bb135dc7-b47d-4ff6-a330-db3b005cdbce" transform="translate(76.46 247.98)">Se<tspan class="f216789b-dac0-4dff-98b3-dde1d05b517b" x="15.39" y="0">r</tspan><tspan x="20.76" y="0">v</tspan><tspan class="a5b46f93-89b2-45d5-9ab8-f58422ed9129" x="27.8" y="0">ic</tspan><tspan x="38.24" y="0">e</tspan></text><circle class="a6e71117-1962-490a-8235-f9a5b8e91179" cx="46.12" cy="243.25" r="17.61"/><path class="a3add159-89cb-4659-928f-05f9f39f0c99" d="M39.86 236.87h12.51v12.51H39.86z"/><path class="ec1e14e5-1e5b-4c5a-80e3-83551919e3b5" d="M42.18 236.87v-3.01M46.12 236.87v-3.01M50.06 236.87v-3.01M42.18 252.63v-3.01M46.12 252.63v-3.01M50.06 252.63v-3.01M39.75 247.18h-3.02M39.75 243.25h-3.02M39.75 239.31h-3.02M55.5 247.18h-3.01M55.5 243.25h-3.01M55.5 239.31h-3.01"/><rect class="e579e254-2e4e-4e67-888c-460c3e5c1a5c" x="43.34" y="240.35" width="5.56" height="5.56" rx="2"/><rect class="b8ce8355-c2fe-451a-a6a9-0a3be12b4e5e" x="513.16" y="49.56" width="193.34" height="132.06" rx="3"/><rect class="e579e254-2e4e-4e67-888c-460c3e5c1a5c" x="521.62" y="58.37" width="52.82" height="52.82" rx="3"/><path class="a0f12157-2124-4605-84d7-4abd539adfa8" d="M561 92.26V77.3l-12.97-7.49-12.97 7.49v14.96l12.97 7.49L561 92.26z"/><rect class="e579e254-2e4e-4e67-888c-460c3e5c1a5c" x="583.24" y="58.37" width="114.45" height="52.82" rx="3"/><text class="bb135dc7-b47d-4ff6-a330-db3b005cdbce" transform="translate(632.28 89.51)">Se<tspan class="f216789b-dac0-4dff-98b3-dde1d05b517b" x="15.39" y="0">r</tspan><tspan x="20.76" y="0">v</tspan><tspan class="a5b46f93-89b2-45d5-9ab8-f58422ed9129" x="27.8" y="0">ic</tspan><tspan x="38.24" y="0">e v1</tspan></text><circle class="a6e71117-1962-490a-8235-f9a5b8e91179" cx="609.65" cy="84.78" r="17.61"/><path class="a3add159-89cb-4659-928f-05f9f39f0c99" d="M603.4 78.41h12.51v12.51H603.4z"/><path class="ec1e14e5-1e5b-4c5a-80e3-83551919e3b5" d="M605.72 78.41V75.4M609.65 78.41V75.4M613.59 78.41V75.4M605.72 94.16v-3.01M609.65 94.16v-3.01M613.59 94.16v-3.01M603.28 88.72h-3.01M603.28 84.78h-3.01M603.28 80.84h-3.01M619.04 88.72h-3.01M619.04 84.78h-3.01M619.04 80.84h-3.01"/><rect class="e579e254-2e4e-4e67-888c-460c3e5c1a5c" x="606.87" y="81.88" width="5.56" height="5.56" rx="2"/><rect class="e579e254-2e4e-4e67-888c-460c3e5c1a5c" x="521.62" y="119.99" width="52.82" height="52.82" rx="3"/><path class="a0f12157-2124-4605-84d7-4abd539adfa8" d="M561 153.89v-14.97l-12.97-7.48-12.97 7.48v14.97l12.97 7.48 12.97-7.48z"/><rect class="e579e254-2e4e-4e67-888c-460c3e5c1a5c" x="583.24" y="119.99" width="114.45" height="52.82" rx="3"/><text class="bb135dc7-b47d-4ff6-a330-db3b005cdbce" transform="translate(631.29 151.14)">Se<tspan class="f216789b-dac0-4dff-98b3-dde1d05b517b" x="15.39" y="0">r</tspan><tspan x="20.76" y="0">v</tspan><tspan class="a5b46f93-89b2-45d5-9ab8-f58422ed9129" x="27.8" y="0">ic</tspan><tspan x="38.24" y="0">e v2</tspan></text><circle class="a6e71117-1962-490a-8235-f9a5b8e91179" cx="609.65" cy="146.4" r="17.61"/><path class="a3add159-89cb-4659-928f-05f9f39f0c99" d="M603.4 140.03h12.51v12.51H603.4z"/><path class="ec1e14e5-1e5b-4c5a-80e3-83551919e3b5" d="M605.72 140.03v-3.01M609.65 140.03v-3.01M613.59 140.03v-3.01M605.72 155.79v-3.01M609.65 155.79v-3.01M613.59 155.79v-3.01M603.28 150.34h-3.01M603.28 146.4h-3.01M603.28 142.47h-3.01M619.04 150.34h-3.01M619.04 146.4h-3.01M619.04 142.47h-3.01"/><rect class="e579e254-2e4e-4e67-888c-460c3e5c1a5c" x="606.87" y="143.51" width="5.56" height="5.56" rx="2"/><path class="a0f12157-2124-4605-84d7-4abd539adfa8" d="M173.63 92.26V77.3l-12.97-7.49-12.97 7.49v14.96l12.97 7.49 12.97-7.49z"/><path class="b580bf1e-21b7-43b3-9e3b-c8fa377ee0c3" d="M11 84.78h6"/><path stroke-dasharray="2.09 12.55" stroke-width="4" stroke="#818181" stroke-linecap="round" stroke-linejoin="round" fill="none" d="M29.55 84.78h8.37"/><path stroke-dasharray="12.55 12.55 2.09 12.55" stroke-width="4" stroke="#818181" stroke-linecap="round" stroke-linejoin="round" fill="none" d="M44.19 84.78h73.22"/><path class="b580bf1e-21b7-43b3-9e3b-c8fa377ee0c3" d="M123.68 84.78h6"/><path class="ae839db7-539e-40d8-afb5-52b643c112b0" d="M121.71 91.56l6.79-6.78-6.79-6.78h5.76l6.78 6.78-6.78 6.78h-5.76z"/><path class="a39173f3-a9d9-4498-b12b-d75e75038d1e" d="M187.07 84.78h3"/><path stroke-dasharray="5.87 11.73" stroke="#486baf" stroke-width="4" stroke-linecap="round" stroke-linejoin="round" fill="none" d="M201.81 84.8l310.94.35"/><path class="a39173f3-a9d9-4498-b12b-d75e75038d1e" d="M518.62 85.16h3M521.62 146.4h-3"/><path class="fb052a07-0958-4658-a0d5-8b37f8ca16ef" d="M505.3 146.4h-53.26"/><path class="a39173f3-a9d9-4498-b12b-d75e75038d1e" d="M445.38 146.4h-3v-3"/><path stroke-dasharray="6.76 13.52" stroke="#486baf" stroke-width="4" stroke-linecap="round" stroke-linejoin="round" fill="none" d="M442.38 129.89v-33.8"/><path class="a39173f3-a9d9-4498-b12b-d75e75038d1e" d="M442.38 89.33v-3"/><path class="b580bf1e-21b7-43b3-9e3b-c8fa377ee0c3" d="M873.77 84.78h6"/><path stroke-dasharray="1.96 11.75" stroke-width="4" stroke="#818181" stroke-linecap="round" stroke-linejoin="round" fill="none" d="M891.52 84.78h7.83"/><path stroke-dasharray="11.75 11.75 1.96 11.75" stroke-width="4" stroke="#818181" stroke-linecap="round" stroke-linejoin="round" fill="none" d="M905.22 84.78h31.33"/><path class="b580bf1e-21b7-43b3-9e3b-c8fa377ee0c3" d="M942.43 84.78h6"/><path class="ae839db7-539e-40d8-afb5-52b643c112b0" d="M940.46 91.56l6.79-6.78-6.79-6.78h5.76l6.78 6.78-6.78 6.78h-5.76z"/><path class="b580bf1e-21b7-43b3-9e3b-c8fa377ee0c3" d="M541.77 294.78h6"/><path stroke-dasharray="1.82 10.9" stroke-width="4" stroke="#818181" stroke-linecap="round" stroke-linejoin="round" fill="none" d="M558.67 294.78h7.27"/><path stroke-dasharray="10.9 10.9 1.82 10.9" stroke-width="4" stroke="#818181" stroke-linecap="round" stroke-linejoin="round" fill="none" d="M571.39 294.78h63.59"/><path class="b580bf1e-21b7-43b3-9e3b-c8fa377ee0c3" d="M640.43 294.78h6"/><path class="ae839db7-539e-40d8-afb5-52b643c112b0" d="M638.46 301.56l6.79-6.78-6.79-6.78h5.76l6.78 6.78-6.78 6.78h-5.76z"/><path class="a39173f3-a9d9-4498-b12b-d75e75038d1e" d="M548.03 172.82v3"/><path stroke-dasharray="5.08 10.15" stroke="#486baf" stroke-width="4" stroke-linecap="round" stroke-linejoin="round" fill="none" d="M548.03 185.97v10.15"/><path class="a39173f3-a9d9-4498-b12b-d75e75038d1e" d="M548.03 201.2v3h3"/><path class="bfc963ef-7685-4679-af95-8d9fb44ad933" d="M563.54 204.2h181.4"/><path class="a39173f3-a9d9-4498-b12b-d75e75038d1e" d="M751.2 204.2h3M548.03 58.23v-3M548.03 43.5v-3h3"/><path class="bfc963ef-7685-4679-af95-8d9fb44ad933" d="M563.54 40.5h181.4"/><path class="a39173f3-a9d9-4498-b12b-d75e75038d1e" d="M751.2 40.5h3v3"/><path stroke-dasharray="4.77 9.54" stroke="#486baf" stroke-width="4" stroke-linecap="round" stroke-linejoin="round" fill="none" d="M754.2 53.03v23.84"/><path class="a39173f3-a9d9-4498-b12b-d75e75038d1e" d="M754.2 81.64v3h3"/><path stroke-dasharray="5.52 11.05" stroke="#486baf" stroke-width="4" stroke-linecap="round" stroke-linejoin="round" fill="none" d="M768.24 84.64h44.18"/><path class="a39173f3-a9d9-4498-b12b-d75e75038d1e" d="M817.94 84.64h3"/><rect class="b8ce8355-c2fe-451a-a6a9-0a3be12b4e5e" x="205.11" y="205.53" width="123.25" height="75.44" rx="3"/><rect class="e579e254-2e4e-4e67-888c-460c3e5c1a5c" x="213.92" y="248.96" width="105.64" height="26.41" rx="3"/><text class="bb135dc7-b47d-4ff6-a330-db3b005cdbce" transform="translate(225.89 266.31)">Se<tspan class="f216789b-dac0-4dff-98b3-dde1d05b517b" x="15.39" y="0">r</tspan><tspan x="20.76" y="0">v</tspan><tspan class="a5b46f93-89b2-45d5-9ab8-f58422ed9129" x="27.8" y="0">ic</tspan><tspan x="38.24" y="0">e e</tspan><tspan x="56.83" y="0" letter-spacing="-.02em">n</tspan><tspan x="64.17" y="0">t</tspan><tspan x="69.18" y="0" letter-spacing=".02em">r</tspan><tspan class="fe1178d8-4167-4dc0-b03d-3c4ac0357130" x="74.62" y="0">y</tspan></text><path id="e41a9ee7-5fb5-479f-b639-cf38cac0215b" data-name="background" class="e3129575-6618-41fa-ba27-5861a4d527f3" d="M252.52 205.53h28.44v28.44h-28.44z"/><path id="b05c58a4-56cd-4e37-b933-36408fb376e4" data-name="hull" class="e579e254-2e4e-4e67-888c-460c3e5c1a5c" d="M258.14 229.42h17.2l-10.75 3.23-6.45-3.23z"/><path id="f3ea0179-070b-410e-b61f-49b11159566f" data-name="mainsail" class="e579e254-2e4e-4e67-888c-460c3e5c1a5c" d="M258.14 228.34l6.45-1.07v-11.82l-6.45 12.89z"/><path id="e8662820-c62b-4e08-9e9e-16b091aa14f9" data-name="headsail" class="e579e254-2e4e-4e67-888c-460c3e5c1a5c" d="M265.66 227.27l9.68 1.07-9.68-21.49v20.42z"/><g clip-path="url(#a143c9df-a9a9-4bc8-96a3-02a5dd796012)"><path class="b1835c03-4fde-4983-ac3c-958771b5771c" d="M163.5 24.63h11.9l-7.43 2.23-4.47-2.23zM163.5 23.89l4.47-.74v-8.19l-4.47 8.93z"/><path fill="#476baf" d="M168.71 23.15l6.69.74-6.69-14.87v14.13z"/></g><text class="b94b25f3-2ba5-4a28-8150-65d3d239d510" transform="translate(667.12 313.53)"><tspan class="a3880874-1f9e-4202-9f6b-a35256216b25">C</tspan><tspan class="e27595f9-b508-4d73-afcc-c662002df7d4" x="8.62" y="0">onf</tspan><tspan class="a69748ae-18ae-4a5a-8057-4af0bdedd06a" x="26.27" y="0">ig</tspan><tspan x="35.89" y="0">u</tspan><tspan class="a9fdd367-3fe9-4c33-ad1b-de9c1e62a86c" x="42.54" y="0">r</tspan><tspan x="46.69" y="0" letter-spacing="0">a</tspan><tspan class="a69748ae-18ae-4a5a-8057-4af0bdedd06a" x="52.96" y="0">bl</tspan><tspan x="62.42" y="0">e t</tspan><tspan class="a9fdd367-3fe9-4c33-ad1b-de9c1e62a86c" x="76.1" y="0">r</tspan><tspan class="ba8120d3-4295-474a-8045-1120391f20d9" x="80.26" y="0">a</tspan><tspan class="a3880874-1f9e-4202-9f6b-a35256216b25" x="86.4" y="0">f</tspan><tspan class="e27595f9-b508-4d73-afcc-c662002df7d4" x="90.6" y="0">f</tspan><tspan class="a69748ae-18ae-4a5a-8057-4af0bdedd06a" x="94.92" y="0">i</tspan><tspan x="97.55" y="0">c </tspan><tspan x="106.73" y="0" letter-spacing="-.03em">r</tspan><tspan class="b54c2e02-1701-44ee-a1d7-5fa4688607f2" x="110.76" y="0">o</tspan><tspan x="117.62" y="0" letter-spacing="0">u</tspan><tspan class="a53279cd-3b45-40b1-a795-a4832baf5904" x="124.33" y="0">t</tspan><tspan x="128.36" y="0" letter-spacing=".01em">e</tspan><tspan x="135.02" y="0" letter-spacing="0">s</tspan></text><text class="b94b25f3-2ba5-4a28-8150-65d3d239d510" transform="translate(542.12 313.53)"><tspan class="e27595f9-b508-4d73-afcc-c662002df7d4">E</tspan><tspan x="6.48" y="0">x</tspan><tspan class="a53279cd-3b45-40b1-a795-a4832baf5904" x="12.19" y="0">t</tspan><tspan x="16.22" y="0">er</tspan><tspan class="a69748ae-18ae-4a5a-8057-4af0bdedd06a" x="27.22" y="0">n</tspan><tspan x="33.8" y="0">al t</tspan><tspan class="a9fdd367-3fe9-4c33-ad1b-de9c1e62a86c" x="49.66" y="0">r</tspan><tspan class="ba8120d3-4295-474a-8045-1120391f20d9" x="53.81" y="0">a</tspan><tspan class="a3880874-1f9e-4202-9f6b-a35256216b25" x="59.95" y="0">f</tspan><tspan class="e27595f9-b508-4d73-afcc-c662002df7d4" x="64.15" y="0">f</tspan><tspan class="b54c2e02-1701-44ee-a1d7-5fa4688607f2" x="68.47" y="0">i</tspan><tspan x="71.1" y="0">c</tspan></text><path class="a39173f3-a9d9-4498-b12b-d75e75038d1e" d="M667 295h3"/><path stroke-dasharray="5.65 11.31" stroke="#486baf" stroke-width="4" stroke-linecap="round" stroke-linejoin="round" fill="none" d="M681.31 295h130.04"/><path class="a39173f3-a9d9-4498-b12b-d75e75038d1e" d="M817 295h3M143.06 243.25h3"/><path stroke-dasharray="6.17 12.34" stroke="#486baf" stroke-width="4" stroke-linecap="round" stroke-linejoin="round" fill="none" d="M158.4 243.25h123.43"/><path class="a39173f3-a9d9-4498-b12b-d75e75038d1e" d="M288 243.25h3M442.38 119.99v3"/><path class="fb052a07-0958-4658-a0d5-8b37f8ca16ef" d="M442.38 136.31v53.26"/><path class="a39173f3-a9d9-4498-b12b-d75e75038d1e" d="M442.38 196.23v3h-3"/><path stroke-dasharray="6.32 12.64" stroke="#486baf" stroke-width="4" stroke-linecap="round" stroke-linejoin="round" fill="none" d="M426.74 199.23H300.32"/><path class="a39173f3-a9d9-4498-b12b-d75e75038d1e" d="M294 199.23h-3v3"/><path stroke-dasharray="4.75 9.5" stroke="#486baf" stroke-width="4" stroke-linecap="round" stroke-linejoin="round" fill="none" d="M291 211.73v23.76"/><path class="a39173f3-a9d9-4498-b12b-d75e75038d1e" d="M291 240.25v3h3"/><path stroke-dasharray="5.94 11.88" stroke="#486baf" stroke-width="4" stroke-linecap="round" stroke-linejoin="round" fill="none" d="M305.88 243.25h439.38"/><path class="a39173f3-a9d9-4498-b12b-d75e75038d1e" d="M751.2 243.25h3v-3"/><path stroke-dasharray="5.87 11.74" stroke="#486baf" stroke-width="4" stroke-linecap="round" stroke-linejoin="round" fill="none" d="M754.2 228.51v-135"/><path class="a39173f3-a9d9-4498-b12b-d75e75038d1e" d="M754.2 87.64v-3"/></g></svg>