<svg xmlns="http://www.w3.org/2000/svg" viewBox="0 0 534.01 423.86"><defs><style>.a0e62f79-6c36-4f8f-ac34-59b865f124a4,.b02271a4-84cc-4822-ac2b-11ba428f9868,.b912d0a6-7cfa-48c2-9040-b2653505903f,.bf1a380c-7a96-43c8-9549-809a8d32c1c1,.e11ad8de-e2c0-4a13-8d08-97e0c321ab95,.ebe61ced-2ee0-4be4-a5db-6b2971cab686,.f47696f6-516e-4dfd-9bfe-28753017189e,.f740990e-eb26-4ea3-87b3-52b5d23b17fb{fill:none}.b02271a4-84cc-4822-ac2b-11ba428f9868,.b912d0a6-7cfa-48c2-9040-b2653505903f,.bf1a380c-7a96-43c8-9549-809a8d32c1c1,.e11ad8de-e2c0-4a13-8d08-97e0c321ab95,.ebe61ced-2ee0-4be4-a5db-6b2971cab686,.f47696f6-516e-4dfd-9bfe-28753017189e,.f740990e-eb26-4ea3-87b3-52b5d23b17fb{stroke-linejoin:round}.a4e27159-67b2-4a0f-aba3-2cd8fb129728{font-family:GoogleSans-Regular,Google Sans}.bf1a380c-7a96-43c8-9549-809a8d32c1c1,.f47696f6-516e-4dfd-9bfe-28753017189e{stroke:#29abe2}.a0e62f79-6c36-4f8f-ac34-59b865f124a4,.b02271a4-84cc-4822-ac2b-11ba428f9868,.bf1a380c-7a96-43c8-9549-809a8d32c1c1,.e11ad8de-e2c0-4a13-8d08-97e0c321ab95,.f47696f6-516e-4dfd-9bfe-28753017189e,.f740990e-eb26-4ea3-87b3-52b5d23b17fb{stroke-linecap:round}.b02271a4-84cc-4822-ac2b-11ba428f9868,.bf1a380c-7a96-43c8-9549-809a8d32c1c1,.e11ad8de-e2c0-4a13-8d08-97e0c321ab95,.f47696f6-516e-4dfd-9bfe-28753017189e,.f740990e-eb26-4ea3-87b3-52b5d23b17fb{stroke-width:4px}.f47696f6-516e-4dfd-9bfe-28753017189e,.f740990e-eb26-4ea3-87b3-52b5d23b17fb{stroke-dasharray:6 12}.b02271a4-84cc-4822-ac2b-11ba428f9868{stroke:#486baf}.e11ad8de-e2c0-4a13-8d08-97e0c321ab95,.f740990e-eb26-4ea3-87b3-52b5d23b17fb{stroke:#0ff}.bad3a63f-0880-48aa-87f1-1a256a8aaa50{fill:#e6e6e6}.a0dcd967-e9da-4876-ac34-7d18e31cc02e{fill:#fff}.b912d0a6-7cfa-48c2-9040-b2653505903f{stroke:#e905ee;stroke-width:3px}.a4e27159-67b2-4a0f-aba3-2cd8fb129728{font-size:14px}.be3d2ab8-7bee-47f4-a054-2209ff75ab27{letter-spacing:-.01em}.adfd0160-1fd8-49d0-8868-b2bd0ad02bf4{letter-spacing:0}.b7442e92-e4e5-4b90-9e7c-12d8b3cf200d{fill:#757575}.a0e62f79-6c36-4f8f-ac34-59b865f124a4,.ebe61ced-2ee0-4be4-a5db-6b2971cab686{stroke:#fff;stroke-width:2px}.a0e62f79-6c36-4f8f-ac34-59b865f124a4{stroke-miterlimit:10}.a8dc0a6c-e2a7-42bd-bc22-6477388f0f96{letter-spacing:-.01em}</style></defs><g id="a586f0fe-08b0-4d13-b5f2-41cc8daaeed9" data-name="Namespace"><rect x="30.5" y="21.64" width="503.01" height="401.71" rx="10" stroke-linejoin="round" stroke="#466bb0" stroke-dasharray="9.96 9.96" fill="none"/><text transform="translate(30.9 13.73)" font-family="GoogleSans-Regular,Google Sans" font-size="16">I<tspan x="3.9" y="0" letter-spacing="0">s</tspan><tspan x="11.39" y="0" letter-spacing="0">t</tspan><tspan x="17.33" y="0" letter-spacing="-.01em">i</tspan><tspan x="20.86" y="0">o M</tspan><tspan x="47.97" y="0" letter-spacing=".01em">e</tspan><tspan x="57.06" y="0">sh</tspan></text><path class="bf1a380c-7a96-43c8-9549-809a8d32c1c1" d="M73 341.86h3"/><path class="f47696f6-516e-4dfd-9bfe-28753017189e" d="M88 341.86h120"/><path class="bf1a380c-7a96-43c8-9549-809a8d32c1c1" d="M214 341.86h3"/><path d="M76.63 368.33a5.64 5.64 0 0 1-2.13-2.15 6.35 6.35 0 0 1 0-6.1 5.64 5.64 0 0 1 2.13-2.15 6 6 0 0 1 3-.78 5.63 5.63 0 0 1 2.34.48 5.47 5.47 0 0 1 1.88 1.37l-1 .94a4.35 4.35 0 0 0-1.43-1.15 4 4 0 0 0-1.78-.37 4.57 4.57 0 0 0-2.29.59 4.29 4.29 0 0 0-1.66 1.64 5.27 5.27 0 0 0 0 4.92 4.29 4.29 0 0 0 1.66 1.64 4.57 4.57 0 0 0 2.29.59 4.48 4.48 0 0 0 3.53-1.71l1 1a5.84 5.84 0 0 1-4.52 2 6 6 0 0 1-3.02-.76zM87.14 368.54a4.09 4.09 0 0 1-1.49-1.54 4.71 4.71 0 0 1 0-4.38 4 4 0 0 1 1.49-1.62 4.31 4.31 0 0 1 4.32 0 4 4 0 0 1 1.5 1.57A4.71 4.71 0 0 1 93 367a4.26 4.26 0 0 1-5.82 1.57zm3.56-1a2.77 2.77 0 0 0 1-1.08 3.6 3.6 0 0 0 0-3.3 2.77 2.77 0 0 0-2.44-1.46 2.8 2.8 0 0 0-2.45 1.46 3.69 3.69 0 0 0 0 3.3 2.8 2.8 0 0 0 1.05 1.08 2.83 2.83 0 0 0 2.8 0zM94.92 360.7h1.3v1.2h.06a2.66 2.66 0 0 1 1.07-1 3 3 0 0 1 1.57-.43 2.89 2.89 0 0 1 2.25.86 3.31 3.31 0 0 1 .77 2.33v5.23h-1.36v-5a2.17 2.17 0 0 0-.54-1.64 2 2 0 0 0-1.49-.52 2 2 0 0 0-1.17.37 2.47 2.47 0 0 0-.81 1 2.91 2.91 0 0 0-.29 1.26v4.59h-1.36zM104.68 361.93h-1.5v-1.23h1.5v-.88a2.61 2.61 0 0 1 .35-1.35 2.37 2.37 0 0 1 1-.88 2.73 2.73 0 0 1 1.31-.32 3.35 3.35 0 0 1 1.2.2v1.32l-.55-.18a2.15 2.15 0 0 0-.6-.07 1.27 1.27 0 0 0-.92.37 1.42 1.42 0 0 0-.38 1v.74h5.06v8.16h-1.35v-6.93H106v6.93h-1.36zm5.06-2.94a.94.94 0 0 1-.29-.69.91.91 0 0 1 .29-.69 1 1 0 0 1 1.66.69 1 1 0 0 1-.28.69.94.94 0 0 1-.7.28.93.93 0 0 1-.68-.27zM114.37 371.9a3.31 3.31 0 0 1-1.26-1.62l1.23-.53a2.5 2.5 0 0 0 2.4 1.59 2.62 2.62 0 0 0 2-.71 2.72 2.72 0 0 0 .7-2v-.91h-.06a3.09 3.09 0 0 1-1.13 1 3.48 3.48 0 0 1-1.66.39 3.55 3.55 0 0 1-1.93-.55 3.87 3.87 0 0 1-1.38-1.53 5.2 5.2 0 0 1 0-4.49 3.86 3.86 0 0 1 1.38-1.55 3.64 3.64 0 0 1 1.93-.55 3.48 3.48 0 0 1 1.66.39 3.07 3.07 0 0 1 1.13 1h.06v-1.13h1.3v7.84a4.09 4.09 0 0 1-6.33 3.36zm3.71-4.39a2.67 2.67 0 0 0 1-1.08 3.53 3.53 0 0 0 .36-1.65 3.65 3.65 0 0 0-.36-1.68 2.61 2.61 0 0 0-1-1.06 2.57 2.57 0 0 0-1.34-.37 2.51 2.51 0 0 0-1.34.38 2.59 2.59 0 0 0-1 1.07 4 4 0 0 0 0 3.32 2.62 2.62 0 0 0 1 1.08 2.59 2.59 0 0 0 1.34.36 2.48 2.48 0 0 0 1.34-.37zM123.34 368.25a3.53 3.53 0 0 1-.77-2.42v-5.13h1.36v4.93a2.37 2.37 0 0 0 .53 1.71 1.88 1.88 0 0 0 1.42.54 2 2 0 0 0 1.22-.37 2.44 2.44 0 0 0 .84-1 2.82 2.82 0 0 0 .29-1.24v-4.57h1.36v8.16h-1.29v-1.19h-.07a2.66 2.66 0 0 1-1.07 1 3.2 3.2 0 0 1-1.57.41 2.86 2.86 0 0 1-2.25-.83zM131.61 360.7h1.29v1.3h.1a2.22 2.22 0 0 1 .93-1.12 2.55 2.55 0 0 1 1.44-.45 2.35 2.35 0 0 1 1 .18v1.45a2.6 2.6 0 0 0-1.16-.25 1.91 1.91 0 0 0-1.08.33 2.52 2.52 0 0 0-.8.91 2.72 2.72 0 0 0-.29 1.23v4.57h-1.36zM138.66 368.55a3.82 3.82 0 0 1-1.44-1.54 4.66 4.66 0 0 1-.52-2.22 4.9 4.9 0 0 1 .48-2.17 4 4 0 0 1 1.39-1.59 3.73 3.73 0 0 1 2.08-.59 3.91 3.91 0 0 1 2.08.54 3.58 3.58 0 0 1 1.35 1.48 4.83 4.83 0 0 1 .47 2.16 1.24 1.24 0 0 1-.05.41h-6.44a3.26 3.26 0 0 0 .44 1.57 2.6 2.6 0 0 0 1 1 2.8 2.8 0 0 0 1.29.32 2.65 2.65 0 0 0 2.41-1.47l1.16.56a4.19 4.19 0 0 1-1.44 1.57 4 4 0 0 1-2.18.57 3.93 3.93 0 0 1-2.08-.6zm4.45-4.64a2.62 2.62 0 0 0-.29-1 2.19 2.19 0 0 0-.8-.86 2.5 2.5 0 0 0-1.39-.36 2.29 2.29 0 0 0-1.62.62 2.92 2.92 0 0 0-.87 1.62zM147.7 368.55a3.8 3.8 0 0 1-1.4-1.54 4.67 4.67 0 0 1-.52-2.23 4.73 4.73 0 0 1 .52-2.23 3.89 3.89 0 0 1 1.4-1.55 3.64 3.64 0 0 1 2-.56 3.23 3.23 0 0 1 1.68.43 3.05 3.05 0 0 1 1.12 1h.07l-.07-1.13v-3.34h1.36v11.46h-1.29v-1.2h-.07a3.12 3.12 0 0 1-1.12 1 3.33 3.33 0 0 1-1.68.42 3.56 3.56 0 0 1-2-.53zm3.47-1.05a2.83 2.83 0 0 0 1-1.09 3.69 3.69 0 0 0 0-3.26 2.76 2.76 0 0 0-1-1.09 2.48 2.48 0 0 0-2.67 0 2.78 2.78 0 0 0-1 1.09 3.46 3.46 0 0 0-.37 1.63 3.4 3.4 0 0 0 .37 1.62 2.81 2.81 0 0 0 1 1.1 2.54 2.54 0 0 0 2.67 0zM159.56 360.7h1.3v1.3h.06a2.22 2.22 0 0 1 .93-1.12 2.6 2.6 0 0 1 1.44-.45 2.35 2.35 0 0 1 1 .18v1.45a2.55 2.55 0 0 0-1.15-.25 1.92 1.92 0 0 0-1.09.33 2.41 2.41 0 0 0-.79.91 2.6 2.6 0 0 0-.3 1.23v4.57h-1.36zM166.68 368.54a4.11 4.11 0 0 1-1.5-1.57 4.79 4.79 0 0 1 0-4.38 4 4 0 0 1 1.5-1.57 4.31 4.31 0 0 1 4.32 0 4 4 0 0 1 1.5 1.57 4.79 4.79 0 0 1 0 4.38 4.26 4.26 0 0 1-5.82 1.57zm3.56-1a2.84 2.84 0 0 0 1-1.08 3.69 3.69 0 0 0 0-3.3 2.77 2.77 0 0 0-2.44-1.46 2.81 2.81 0 0 0-1.41.38 2.73 2.73 0 0 0-1.05 1.08 3.69 3.69 0 0 0 0 3.3 2.76 2.76 0 0 0 2.46 1.45 2.74 2.74 0 0 0 1.44-.4zM175.25 368.25a3.49 3.49 0 0 1-.78-2.42v-5.13h1.36v4.93a2.41 2.41 0 0 0 .53 1.71 1.9 1.9 0 0 0 1.42.54 2.1 2.1 0 0 0 1.23-.37 2.5 2.5 0 0 0 .83-1 2.7 2.7 0 0 0 .3-1.24v-4.57h1.36v8.16h-1.3v-1.19h-.06a2.76 2.76 0 0 1-1.08 1 3.19 3.19 0 0 1-1.56.41 2.83 2.83 0 0 1-2.25-.83zM185.81 369a2 2 0 0 1-.71-.44 1.83 1.83 0 0 1-.48-.72 2.63 2.63 0 0 1-.16-1v-4.87H183v-1.27h1.43v-2.31h1.35v2.31h2v1.23h-2v4.55a1.65 1.65 0 0 0 .26 1 1.09 1.09 0 0 0 .88.36 1.68 1.68 0 0 0 .9-.27v1.33a3.11 3.11 0 0 1-.49.16 3.77 3.77 0 0 1-.63 0 2.51 2.51 0 0 1-.89-.06zM190.63 368.55a3.85 3.85 0 0 1-1.45-1.54 4.78 4.78 0 0 1-.52-2.22 4.9 4.9 0 0 1 .49-2.17 4 4 0 0 1 1.39-1.59 3.69 3.69 0 0 1 2.07-.59 3.86 3.86 0 0 1 2.08.54 3.6 3.6 0 0 1 1.36 1.48 4.83 4.83 0 0 1 .47 2.16 1.58 1.58 0 0 1-.05.41H190a3.15 3.15 0 0 0 .45 1.57 2.6 2.6 0 0 0 1 1 2.79 2.79 0 0 0 1.28.32 2.65 2.65 0 0 0 2.42-1.47l1.15.56a4.17 4.17 0 0 1-1.43 1.57 4 4 0 0 1-2.18.57 3.93 3.93 0 0 1-2.06-.6zm4.45-4.64a2.62 2.62 0 0 0-.29-1 2.14 2.14 0 0 0-.79-.91 2.49 2.49 0 0 0-1.38-.36 2.29 2.29 0 0 0-1.62.62 2.93 2.93 0 0 0-.88 1.62zM202.44 361.93h-1.5v-1.23h1.5v-.88a2.61 2.61 0 0 1 .35-1.35 2.37 2.37 0 0 1 1-.88 2.73 2.73 0 0 1 1.31-.32 3.35 3.35 0 0 1 1.2.2v1.32l-.55-.18a2.15 2.15 0 0 0-.6-.07 1.27 1.27 0 0 0-.92.37 1.42 1.42 0 0 0-.38 1v.74h2.1v1.23h-2.1v6.93h-1.36zM208.66 368.54a4 4 0 0 1-1.49-1.57 4.71 4.71 0 0 1 0-4.38 3.89 3.89 0 0 1 1.49-1.57 4.31 4.31 0 0 1 4.32 0 4 4 0 0 1 1.5 1.57 4.71 4.71 0 0 1 0 4.38 4.26 4.26 0 0 1-5.82 1.57zm3.56-1a2.77 2.77 0 0 0 1-1.08 3.6 3.6 0 0 0 0-3.3 2.71 2.71 0 0 0-1-1.08 2.79 2.79 0 0 0-3.85 1.08 3.69 3.69 0 0 0 0 3.3 2.8 2.8 0 0 0 1 1.08 2.83 2.83 0 0 0 2.8 0zM216.44 360.7h1.3v1.3h.06a2.22 2.22 0 0 1 .93-1.12 2.6 2.6 0 0 1 1.44-.45 2.35 2.35 0 0 1 1 .18v1.45a2.55 2.55 0 0 0-1.15-.25 1.92 1.92 0 0 0-1.09.33 2.41 2.41 0 0 0-.79.91 2.6 2.6 0 0 0-.3 1.23v4.57h-1.36zM228.37 369a2 2 0 0 1-.71-.44 1.83 1.83 0 0 1-.48-.72 2.63 2.63 0 0 1-.16-1v-4.87h-1.43v-1.27H227v-2.31h1.36v2.31h2v1.23h-2v4.55a1.65 1.65 0 0 0 .25 1 1.09 1.09 0 0 0 .88.36 1.68 1.68 0 0 0 .9-.27v1.33a3.11 3.11 0 0 1-.49.16 3.77 3.77 0 0 1-.63 0 2.51 2.51 0 0 1-.9-.06zM232 360.7h1.29v1.3h.07a2.25 2.25 0 0 1 .92-1.12 2.6 2.6 0 0 1 1.44-.45 2.28 2.28 0 0 1 1 .18v1.45a2.52 2.52 0 0 0-1.15-.25 1.91 1.91 0 0 0-1.08.33 2.43 2.43 0 0 0-.8.91 2.72 2.72 0 0 0-.29 1.23v4.57H232zM238.7 368.76a2.58 2.58 0 0 1-1.09-1 2.54 2.54 0 0 1-.39-1.4 2.38 2.38 0 0 1 1-2 4 4 0 0 1 2.46-.73 5.42 5.42 0 0 1 1.37.16 3.58 3.58 0 0 1 1 .37v-.5a1.83 1.83 0 0 0-.64-1.46 2.39 2.39 0 0 0-1.62-.55 2.78 2.78 0 0 0-1.26.29 2.35 2.35 0 0 0-.91.83l-1-.77a3.29 3.29 0 0 1 1.32-1.15 4.11 4.11 0 0 1 1.87-.42 3.71 3.71 0 0 1 2.61.87 3.06 3.06 0 0 1 1 2.38v5.17H243v-1.17h-.06a3 3 0 0 1-1.06 1 3.13 3.13 0 0 1-1.58.41 3.43 3.43 0 0 1-1.6-.33zm3-1.2a2.67 2.67 0 0 0 1-.94 2.56 2.56 0 0 0 .35-1.3 3.25 3.25 0 0 0-.94-.41 4.22 4.22 0 0 0-1.19-.16 2.62 2.62 0 0 0-1.69.46 1.47 1.47 0 0 0-.56 1.2 1.34 1.34 0 0 0 .51 1.09 2 2 0 0 0 1.29.41 2.4 2.4 0 0 0 1.23-.35zM247 361.93h-1.51v-1.23H247v-.88a2.52 2.52 0 0 1 .35-1.35 2.34 2.34 0 0 1 .94-.88 2.8 2.8 0 0 1 1.32-.32 3.33 3.33 0 0 1 1.19.2v1.32l-.54-.18a2.18 2.18 0 0 0-.61-.07 1.26 1.26 0 0 0-.91.37 1.42 1.42 0 0 0-.38 1v.74H252v-.88a2.6 2.6 0 0 1 .34-1.35 2.3 2.3 0 0 1 1-.88 2.8 2.8 0 0 1 1.32-.32 3.6 3.6 0 0 1 1.2.2v1.32c-.22-.08-.41-.15-.57-.19a2.64 2.64 0 0 0-.6-.06 1.25 1.25 0 0 0-.91.37 1.39 1.39 0 0 0-.39 1v.74h5.06v8.16h-1.35v-6.93h-3.72v6.93H252v-6.93h-3.71v6.93H247zm10.08-2.93a.94.94 0 0 1-.29-.69 1 1 0 1 1 1 1 .94.94 0 0 1-.71-.31zM262.07 368.55a3.94 3.94 0 0 1-1.47-1.55 4.6 4.6 0 0 1-.53-2.21 4.74 4.74 0 0 1 .53-2.23 3.92 3.92 0 0 1 1.47-1.55 4.13 4.13 0 0 1 2.13-.56 3.88 3.88 0 0 1 2.23.62 3.42 3.42 0 0 1 1.29 1.64l-1.23.51a2.43 2.43 0 0 0-.91-1.14 2.51 2.51 0 0 0-1.44-.4 2.45 2.45 0 0 0-1.35.4 2.85 2.85 0 0 0-1 1.09 3.4 3.4 0 0 0-.37 1.62 3.36 3.36 0 0 0 .37 1.61 2.88 2.88 0 0 0 1 1.1 2.52 2.52 0 0 0 1.35.39 2.64 2.64 0 0 0 1.48-.4 2.32 2.32 0 0 0 .93-1.13l1.22.51a3.67 3.67 0 0 1-1.34 1.63 3.85 3.85 0 0 1-2.23.62 4.13 4.13 0 0 1-2.13-.57zM272.05 360.7h1.4l1.95 6.45 2-6.45h1.41l2.07 6.43 1.94-6.43h1.37l-2.64 8.16h-1.37l-2.12-6.51-2.06 6.51h-1.36zM285.5 358.92a1 1 0 0 1 0-1.37 1 1 0 0 1 1.37 0 1 1 0 0 1 0 1.37 1 1 0 0 1-.7.29.94.94 0 0 1-.67-.29zm0 1.78h1.34v8.16h-1.34zM291.14 369a2 2 0 0 1-1.2-1.16 2.85 2.85 0 0 1-.16-1v-4.87h-1.42v-1.27h1.42v-2.31h1.36v2.31h2v1.23h-2v4.55a1.65 1.65 0 0 0 .26 1 1.09 1.09 0 0 0 .88.36 1.68 1.68 0 0 0 .9-.27v1.33a3.11 3.11 0 0 1-.49.16 3.77 3.77 0 0 1-.63 0 2.47 2.47 0 0 1-.92-.06zM294.85 357.4h1.36v3.38l-.06 1.12h.06a2.68 2.68 0 0 1 1.07-1 3.1 3.1 0 0 1 1.59-.42 2.9 2.9 0 0 1 2.27.87 3.31 3.31 0 0 1 .79 2.32v5.23h-1.36v-5a2.16 2.16 0 0 0-.56-1.63 2.06 2.06 0 0 0-1.46-.53 2 2 0 0 0-1.18.39 2.62 2.62 0 0 0-.84 1 2.74 2.74 0 0 0-.32 1.26v4.55h-1.36zM309.81 369a2.08 2.08 0 0 1-.72-.44 1.91 1.91 0 0 1-.47-.72 2.63 2.63 0 0 1-.16-1v-4.87H307v-1.27h1.43v-2.31h1.35v2.31h2v1.23h-2v4.55a1.65 1.65 0 0 0 .26 1 1.09 1.09 0 0 0 .88.36 1.68 1.68 0 0 0 .9-.27v1.33a3.11 3.11 0 0 1-.49.16 3.77 3.77 0 0 1-.63 0 2.51 2.51 0 0 1-.89-.06zM313.53 357.4h1.36v3.38l-.07 1.12h.07a2.59 2.59 0 0 1 1.06-1 3.15 3.15 0 0 1 1.59-.42 2.88 2.88 0 0 1 2.27.87 3.31 3.31 0 0 1 .79 2.32v5.23h-1.36v-5a2.16 2.16 0 0 0-.56-1.63 2.06 2.06 0 0 0-1.46-.53 1.94 1.94 0 0 0-1.17.39 2.64 2.64 0 0 0-.85 1 2.73 2.73 0 0 0-.31 1.26v4.55h-1.36zM324.09 368.55a3.78 3.78 0 0 1-1.45-1.54 4.66 4.66 0 0 1-.52-2.22 4.77 4.77 0 0 1 .49-2.17A3.94 3.94 0 0 1 324 361a3.73 3.73 0 0 1 2.08-.59 3.91 3.91 0 0 1 2.08.54 3.51 3.51 0 0 1 1.35 1.48 4.7 4.7 0 0 1 .47 2.16 1.62 1.62 0 0 1 0 .41h-6.45a3.15 3.15 0 0 0 .45 1.57 2.51 2.51 0 0 0 1 1 2.8 2.8 0 0 0 1.29.32 2.66 2.66 0 0 0 2.42-1.47l1.15.56a4.17 4.17 0 0 1-1.43 1.57 4 4 0 0 1-2.19.57 3.9 3.9 0 0 1-2.13-.57zm4.44-4.64a2.6 2.6 0 0 0-.28-1 2.14 2.14 0 0 0-.81-.86 2.5 2.5 0 0 0-1.39-.36 2.29 2.29 0 0 0-1.62.62 3 3 0 0 0-.87 1.62zM337 368.55a3.88 3.88 0 0 1-1.49-1.59 5 5 0 0 1-.53-2.34v-7.22h1.37v7.28a3.42 3.42 0 0 0 .73 2.27 3 3 0 0 0 4.23 0 3.38 3.38 0 0 0 .75-2.27v-7.28h1.34v7.22a5.34 5.34 0 0 1-.5 2.35 3.66 3.66 0 0 1-1.46 1.58 4.68 4.68 0 0 1-4.44 0zM345.65 357.4h3.88a3.81 3.81 0 0 1 1.76.43 3.43 3.43 0 0 1 1.3 1.21 3.32 3.32 0 0 1 .13 3.24 3.32 3.32 0 0 1-1 1.15 3.69 3.69 0 0 1-1.4.63v.05l3.24 4.68v.07h-1.6l-3.12-4.67H347v4.67h-1.35zm3.8 5.52a2.39 2.39 0 0 0 1.11-.27 2.16 2.16 0 0 0 .83-.76 2 2 0 0 0 0-2.1 2.1 2.1 0 0 0-1.89-1.09H347v4.22zM355 357.4h1.34v11.46H355zM358.83 362.35a1 1 0 0 1-.3-.72 1 1 0 0 1 1-1 1 1 0 0 1 .71.3 1 1 0 0 1 .3.73 1 1 0 0 1-.3.72 1 1 0 0 1-.71.3 1 1 0 0 1-.7-.33zm0 6.21a1 1 0 0 1-.3-.73 1 1 0 0 1 1-1 1 1 0 0 1 .71.29 1 1 0 0 1 .3.71 1 1 0 0 1-.3.73 1 1 0 0 1-.71.3 1 1 0 0 1-.7-.3zM74.66 387.7a3.36 3.36 0 0 1-1.24-1.58l1.21-.54a2.39 2.39 0 0 0 .91 1.13 2.3 2.3 0 0 0 1.32.4 2.57 2.57 0 0 0 1.31-.31 1 1 0 0 0 .54-.89 1 1 0 0 0-.43-.82 4 4 0 0 0-1.36-.54l-1-.25a3.48 3.48 0 0 1-1.6-.82 1.92 1.92 0 0 1-.62-1.48 2 2 0 0 1 .43-1.24 2.74 2.74 0 0 1 1.13-.82 4 4 0 0 1 1.52-.29 3.89 3.89 0 0 1 1.91.47 2.61 2.61 0 0 1 1.19 1.29l-1.18.59a2 2 0 0 0-1.94-1.09 2.19 2.19 0 0 0-1.18.31.92.92 0 0 0-.5.79.9.9 0 0 0 .35.73 2.85 2.85 0 0 0 1.06.46l1.18.3a3.89 3.89 0 0 1 1.81.9 2 2 0 0 1 .61 1.47 2.17 2.17 0 0 1-.43 1.32 2.73 2.73 0 0 1-1.17.87 4.3 4.3 0 0 1-1.63.3 3.75 3.75 0 0 1-2.2-.66zM80.68 379.9h1.46l2.52 6.56 2.56-6.56h1.42l-3.33 8.16H84zM91.13 387.75a3.94 3.94 0 0 1-1.47-1.56 4.49 4.49 0 0 1-.53-2.21 4.62 4.62 0 0 1 .53-2.23 3.92 3.92 0 0 1 1.47-1.55 4.13 4.13 0 0 1 2.13-.56 3.9 3.9 0 0 1 2.23.62 3.42 3.42 0 0 1 1.29 1.64l-1.24.51a2.36 2.36 0 0 0-.9-1.14 2.52 2.52 0 0 0-1.45-.4 2.39 2.39 0 0 0-1.34.4 2.78 2.78 0 0 0-1 1.09 3.4 3.4 0 0 0-.38 1.62 3.36 3.36 0 0 0 .38 1.61 2.81 2.81 0 0 0 1 1.1 2.46 2.46 0 0 0 1.34.39 2.68 2.68 0 0 0 1.49-.4 2.37 2.37 0 0 0 .93-1.13l1.21.51a3.58 3.58 0 0 1-1.33 1.63 3.87 3.87 0 0 1-2.23.62 4.13 4.13 0 0 1-2.13-.56zM98.28 382.54h5.07v1.12h-5.07zM105.06 386.7l2-2c1-1 1.67-1.71 2-2.12a9 9 0 0 0 1.1-1.38 2.27 2.27 0 0 0 .29-1.2 1.82 1.82 0 0 0-1-1.59 2.21 2.21 0 0 0-1.12-.27 1.9 1.9 0 0 0-1.39.51 2.46 2.46 0 0 0-.68 1.09l-1.25-.49a3.66 3.66 0 0 1 .58-1.07 3.62 3.62 0 0 1 1.12-.94 3.37 3.37 0 0 1 1.66-.39 3.59 3.59 0 0 1 1.79.43 3.19 3.19 0 0 1 1.21 1.15 3 3 0 0 1 .43 1.55 5.16 5.16 0 0 1-1.76 3.48l-3.28 3.29H112v1.3h-6.92zM113.92 387.78a.92.92 0 0 1-.3-.7.91.91 0 0 1 .3-.68 1.05 1.05 0 0 1 .73-.28 1 1 0 0 1 .71.28.91.91 0 0 1 .3.68.92.92 0 0 1-.3.7 1 1 0 0 1-.71.28 1.05 1.05 0 0 1-.73-.28zM117.56 379.9h1.3v1.2h.06a3.06 3.06 0 0 1 2.54-1.46 2.85 2.85 0 0 1 1.56.43 2.47 2.47 0 0 1 1 1.16 3.25 3.25 0 0 1 1.14-1.16 3.2 3.2 0 0 1 1.66-.43 2.62 2.62 0 0 1 2.12.86 3.54 3.54 0 0 1 .71 2.33v5.23h-1.35v-5a2.4 2.4 0 0 0-.46-1.64 1.74 1.74 0 0 0-1.38-.52 1.83 1.83 0 0 0-1.1.36 2.34 2.34 0 0 0-.78.94 3 3 0 0 0-.28 1.28v4.61h-1.4v-5a2.42 2.42 0 0 0-.46-1.66 1.71 1.71 0 0 0-1.36-.52 1.81 1.81 0 0 0-1.1.36 2.39 2.39 0 0 0-.78 1 3 3 0 0 0-.28 1.29v4.58h-1.36zM133.83 387.55l-3.37-7.65h1.47l2.56 6.06 2.51-6.06h1.48l-5 11.61H132zM139.58 382.54h5.07v1.12h-5.07zM146.65 379.9h1.29v1.2h.06a2.66 2.66 0 0 1 1.07-1 3 3 0 0 1 1.57-.43 2.89 2.89 0 0 1 2.25.86 3.36 3.36 0 0 1 .77 2.33v5.23h-1.36v-5a2.17 2.17 0 0 0-.54-1.64 2.07 2.07 0 0 0-1.49-.52 2 2 0 0 0-1.18.37 2.65 2.65 0 0 0-.81 1 2.9 2.9 0 0 0-.28 1.26v4.59h-1.36zM156.55 388a2.55 2.55 0 0 1-1.47-2.37 2.37 2.37 0 0 1 1-2 4 4 0 0 1 2.46-.73 5.42 5.42 0 0 1 1.37.16 3.49 3.49 0 0 1 1 .37v-.5a1.86 1.86 0 0 0-.63-1.46 2.39 2.39 0 0 0-1.62-.55 2.85 2.85 0 0 0-1.27.29 2.43 2.43 0 0 0-.91.83l-1-.77a3.29 3.29 0 0 1 1.32-1.15 4.1 4.1 0 0 1 1.86-.42 3.75 3.75 0 0 1 2.62.87 3.1 3.1 0 0 1 1 2.38v5.17h-1.3v-1.17h-.06a3 3 0 0 1-1 1 3 3 0 0 1-1.59.41 3.45 3.45 0 0 1-1.78-.36zm3-1.2a2.65 2.65 0 0 0 .94-.94 2.46 2.46 0 0 0 .35-1.3 3.14 3.14 0 0 0-.94-.41 4.15 4.15 0 0 0-1.18-.16 2.62 2.62 0 0 0-1.69.46 1.48 1.48 0 0 0-.57 1.2 1.34 1.34 0 0 0 .51 1.09 2 2 0 0 0 1.3.41 2.42 2.42 0 0 0 1.29-.39zM164 379.9h1.3v1.2h.06a3.06 3.06 0 0 1 2.54-1.46 2.85 2.85 0 0 1 1.56.43 2.47 2.47 0 0 1 1 1.16 3.25 3.25 0 0 1 1.14-1.16 3.2 3.2 0 0 1 1.66-.43 2.62 2.62 0 0 1 2.12.86 3.54 3.54 0 0 1 .71 2.33v5.23h-1.35v-5a2.4 2.4 0 0 0-.46-1.64 1.74 1.74 0 0 0-1.38-.52 1.83 1.83 0 0 0-1.1.36 2.34 2.34 0 0 0-.78.94 3 3 0 0 0-.28 1.28v4.61h-1.36v-5a2.42 2.42 0 0 0-.46-1.66 1.71 1.71 0 0 0-1.36-.52 1.81 1.81 0 0 0-1.1.36 2.39 2.39 0 0 0-.78 1 3 3 0 0 0-.28 1.29v4.58H164zM179.58 387.75a3.78 3.78 0 0 1-1.45-1.54 4.66 4.66 0 0 1-.52-2.22 4.77 4.77 0 0 1 .49-2.17 3.94 3.94 0 0 1 1.38-1.59 3.73 3.73 0 0 1 2.08-.59 3.91 3.91 0 0 1 2.08.54 3.51 3.51 0 0 1 1.35 1.48 4.7 4.7 0 0 1 .47 2.16 1.62 1.62 0 0 1 0 .41H179a3.15 3.15 0 0 0 .45 1.57 2.51 2.51 0 0 0 1 1 2.8 2.8 0 0 0 1.29.32 2.67 2.67 0 0 0 2.42-1.47l1.15.56a4.17 4.17 0 0 1-1.43 1.57 4.06 4.06 0 0 1-2.19.57 3.87 3.87 0 0 1-2.11-.6zm4.44-4.64a2.6 2.6 0 0 0-.28-1 2.21 2.21 0 0 0-.81-.86 2.5 2.5 0 0 0-1.39-.36 2.29 2.29 0 0 0-1.62.62 3 3 0 0 0-.87 1.62zM187.78 387.7a3.44 3.44 0 0 1-1.25-1.58l1.22-.54a2.38 2.38 0 0 0 .9 1.13 2.3 2.3 0 0 0 1.32.4 2.6 2.6 0 0 0 1.32-.31 1 1 0 0 0 .54-.89 1 1 0 0 0-.43-.82 4 4 0 0 0-1.36-.54l-1-.25a3.48 3.48 0 0 1-1.6-.82 2 2 0 0 1-.2-2.73 2.77 2.77 0 0 1 1.12-.82 4 4 0 0 1 1.52-.29 3.9 3.9 0 0 1 1.92.47 2.65 2.65 0 0 1 1.2 1.29l-1.19.55a2 2 0 0 0-1.93-1.09 2.19 2.19 0 0 0-1.18.31.92.92 0 0 0-.5.79.9.9 0 0 0 .35.73 2.85 2.85 0 0 0 1.06.46l1.18.3a3.89 3.89 0 0 1 1.81.9 2 2 0 0 1 .61 1.47 2.12 2.12 0 0 1-.44 1.32 2.64 2.64 0 0 1-1.16.87 4.32 4.32 0 0 1-1.64.3 3.74 3.74 0 0 1-2.19-.61zM194.55 379.9h1.3v1.21h.06a3 3 0 0 1 1.11-1 3.27 3.27 0 0 1 1.67-.43 3.71 3.71 0 0 1 2 .56 3.91 3.91 0 0 1 1.41 1.55 4.85 4.85 0 0 1 .51 2.23 4.79 4.79 0 0 1-.51 2.23 3.82 3.82 0 0 1-1.41 1.54 3.63 3.63 0 0 1-2 .56 3.37 3.37 0 0 1-1.67-.42 3.08 3.08 0 0 1-1.11-1h-.06l.06 1.12v3.53h-1.36zm5.31 6.8a2.74 2.74 0 0 0 1-1.1 3.4 3.4 0 0 0 .38-1.62 3.47 3.47 0 0 0-.38-1.63 2.71 2.71 0 0 0-1-1.09 2.45 2.45 0 0 0-1.33-.39 2.42 2.42 0 0 0-1.32.39 2.71 2.71 0 0 0-1 1.09 3.87 3.87 0 0 0 0 3.26 2.78 2.78 0 0 0 1 1.09 2.5 2.5 0 0 0 1.32.38 2.53 2.53 0 0 0 1.33-.38zM205.19 388a2.55 2.55 0 0 1-1.47-2.37 2.38 2.38 0 0 1 1-2 4 4 0 0 1 2.47-.73 5.42 5.42 0 0 1 1.37.16 3.49 3.49 0 0 1 1 .37v-.5a1.83 1.83 0 0 0-.64-1.46 2.35 2.35 0 0 0-1.61-.55 2.85 2.85 0 0 0-1.27.29 2.43 2.43 0 0 0-.91.83l-1-.77a3.29 3.29 0 0 1 1.32-1.15 4.1 4.1 0 0 1 1.86-.42 3.75 3.75 0 0 1 2.62.87 3.1 3.1 0 0 1 .95 2.38v5.17h-1.3v-1.17h-.06a3 3 0 0 1-1.05 1 3 3 0 0 1-1.59.41 3.45 3.45 0 0 1-1.69-.36zm3-1.2a2.65 2.65 0 0 0 .94-.94 2.46 2.46 0 0 0 .35-1.3 3.14 3.14 0 0 0-.94-.41 4.15 4.15 0 0 0-1.18-.16 2.62 2.62 0 0 0-1.69.46 1.48 1.48 0 0 0-.57 1.2 1.34 1.34 0 0 0 .51 1.09 2 2 0 0 0 1.3.41 2.42 2.42 0 0 0 1.29-.39zM214.17 387.75a4 4 0 0 1-1.48-1.56 4.59 4.59 0 0 1-.52-2.21 4.73 4.73 0 0 1 .52-2.23 4 4 0 0 1 1.48-1.55 4.12 4.12 0 0 1 2.12-.56 3.91 3.91 0 0 1 2.24.62 3.35 3.35 0 0 1 1.28 1.64l-1.23.51a2.36 2.36 0 0 0-.9-1.14 2.52 2.52 0 0 0-1.45-.4 2.39 2.39 0 0 0-1.34.4 2.78 2.78 0 0 0-1 1.09 3.4 3.4 0 0 0-.38 1.62 3.36 3.36 0 0 0 .38 1.61 2.81 2.81 0 0 0 1 1.1 2.46 2.46 0 0 0 1.34.39 2.68 2.68 0 0 0 1.49-.4 2.43 2.43 0 0 0 .93-1.13l1.21.51a3.58 3.58 0 0 1-1.33 1.63 3.88 3.88 0 0 1-2.24.62 4.12 4.12 0 0 1-2.12-.56zM222.79 387.75a3.85 3.85 0 0 1-1.45-1.54 5 5 0 0 1 0-4.39 4.1 4.1 0 0 1 1.38-1.59 3.73 3.73 0 0 1 2.08-.59 3.88 3.88 0 0 1 2.08.54 3.6 3.6 0 0 1 1.36 1.48 4.83 4.83 0 0 1 .47 2.16 1.58 1.58 0 0 1-.05.41h-6.45a3.15 3.15 0 0 0 .45 1.57 2.6 2.6 0 0 0 1 1 2.79 2.79 0 0 0 1.28.32 2.65 2.65 0 0 0 2.42-1.47l1.15.56a4.17 4.17 0 0 1-1.43 1.57 4 4 0 0 1-2.18.57 3.93 3.93 0 0 1-2.11-.6zm4.45-4.64a2.62 2.62 0 0 0-.29-1 2.14 2.14 0 0 0-.81-.86 2.49 2.49 0 0 0-1.38-.36 2.33 2.33 0 0 0-1.63.62 3 3 0 0 0-.87 1.62zM230.43 387.78a.92.92 0 0 1-.3-.7.91.91 0 0 1 .3-.68 1.05 1.05 0 0 1 .73-.28 1 1 0 0 1 .71.28.91.91 0 0 1 .3.68.92.92 0 0 1-.3.7 1 1 0 0 1-.71.28 1.05 1.05 0 0 1-.73-.28zM234.73 387.7a3.32 3.32 0 0 1-1.25-1.58l1.21-.54a2.45 2.45 0 0 0 .91 1.13 2.3 2.3 0 0 0 1.32.4 2.57 2.57 0 0 0 1.31-.31 1 1 0 0 0 .54-.89 1 1 0 0 0-.43-.82 4 4 0 0 0-1.36-.54l-1-.25a3.53 3.53 0 0 1-1.6-.82 1.91 1.91 0 0 1-.62-1.49 2 2 0 0 1 .42-1.24 2.74 2.74 0 0 1 1.13-.82 4 4 0 0 1 1.52-.29 3.89 3.89 0 0 1 1.91.47 2.61 2.61 0 0 1 1.19 1.29l-1.18.55a2 2 0 0 0-1.94-1.09 2.13 2.13 0 0 0-1.17.31.91.91 0 0 0-.51.79.9.9 0 0 0 .35.73 2.85 2.85 0 0 0 1.06.46l1.18.3a3.84 3.84 0 0 1 1.81.9 2 2 0 0 1 .61 1.47 2.11 2.11 0 0 1-.43 1.32 2.73 2.73 0 0 1-1.17.87 4.26 4.26 0 0 1-1.63.3 3.7 3.7 0 0 1-2.18-.61zM240.74 379.9h1.46l2.53 6.56 2.56-6.56h1.42l-3.33 8.16H244zM251.19 387.75a3.94 3.94 0 0 1-1.47-1.56 4.6 4.6 0 0 1-.53-2.21 4.74 4.74 0 0 1 .53-2.23 3.92 3.92 0 0 1 1.47-1.55 4.13 4.13 0 0 1 2.13-.56 3.88 3.88 0 0 1 2.23.62 3.42 3.42 0 0 1 1.29 1.64l-1.23.51a2.43 2.43 0 0 0-.91-1.14 2.52 2.52 0 0 0-1.45-.4 2.41 2.41 0 0 0-1.34.4 2.78 2.78 0 0 0-1 1.09 3.4 3.4 0 0 0-.38 1.62 3.36 3.36 0 0 0 .38 1.61 2.81 2.81 0 0 0 1 1.1 2.49 2.49 0 0 0 1.34.39 2.65 2.65 0 0 0 1.49-.4 2.32 2.32 0 0 0 .93-1.13l1.22.51a3.67 3.67 0 0 1-1.34 1.63 3.85 3.85 0 0 1-2.23.62 4.13 4.13 0 0 1-2.13-.56zM258.53 387.78a.92.92 0 0 1-.3-.7.91.91 0 0 1 .3-.68 1 1 0 0 1 .72-.28 1 1 0 0 1 .72.28.94.94 0 0 1 .29.68 1 1 0 0 1-.29.7 1 1 0 0 1-.72.28 1 1 0 0 1-.72-.28zM263.73 387.75a3.94 3.94 0 0 1-1.47-1.56 4.6 4.6 0 0 1-.53-2.21 4.74 4.74 0 0 1 .53-2.23 3.92 3.92 0 0 1 1.47-1.55 4.13 4.13 0 0 1 2.13-.56 3.86 3.86 0 0 1 2.23.62 3.31 3.31 0 0 1 1.29 1.64l-1.23.51a2.36 2.36 0 0 0-.9-1.14 2.54 2.54 0 0 0-1.45-.4 2.45 2.45 0 0 0-1.35.4 2.85 2.85 0 0 0-1 1.09 3.4 3.4 0 0 0-.37 1.62 3.36 3.36 0 0 0 .37 1.61 2.88 2.88 0 0 0 1 1.1 2.52 2.52 0 0 0 1.35.39 2.7 2.7 0 0 0 1.49-.4 2.35 2.35 0 0 0 .92-1.13l1.22.51a3.6 3.6 0 0 1-1.34 1.63 3.83 3.83 0 0 1-2.23.62 4.13 4.13 0 0 1-2.13-.56zM270.9 376.6h1.36v11.46h-1.36zM275 387.45a3.49 3.49 0 0 1-.78-2.42v-5.13h1.36v4.93a2.4 2.4 0 0 0 .53 1.71 1.91 1.91 0 0 0 1.43.54 2.09 2.09 0 0 0 1.22-.37 2.42 2.42 0 0 0 .83-1 2.7 2.7 0 0 0 .3-1.24v-4.57h1.36v8.16h-1.3v-1.19h-.06a2.73 2.73 0 0 1-1.07 1 3.15 3.15 0 0 1-1.57.41 2.86 2.86 0 0 1-2.25-.83zM283.83 387.7a3.38 3.38 0 0 1-1.25-1.58l1.22-.54a2.38 2.38 0 0 0 .9 1.13 2.3 2.3 0 0 0 1.32.4 2.57 2.57 0 0 0 1.31-.31 1 1 0 0 0 .55-.89 1 1 0 0 0-.43-.82 4.06 4.06 0 0 0-1.36-.54l-1-.25a3.53 3.53 0 0 1-1.6-.82 2.07 2.07 0 0 1-.2-2.73 2.8 2.8 0 0 1 1.13-.82 4 4 0 0 1 1.52-.29 3.86 3.86 0 0 1 1.91.47 2.68 2.68 0 0 1 1.2 1.29l-1.19.55a2 2 0 0 0-1.93-1.09 2.19 2.19 0 0 0-1.18.31.9.9 0 0 0-.5.79.88.88 0 0 0 .35.73 2.72 2.72 0 0 0 1 .46l1.19.3a3.89 3.89 0 0 1 1.81.9 2 2 0 0 1 .6 1.47 2.11 2.11 0 0 1-.43 1.32 2.73 2.73 0 0 1-1.17.87 4.26 4.26 0 0 1-1.63.3 3.74 3.74 0 0 1-2.14-.61zM292.88 388.15a2 2 0 0 1-.71-.44 1.83 1.83 0 0 1-.48-.72 2.63 2.63 0 0 1-.16-1v-4.87h-1.43v-1.22h1.43v-2.31h1.36v2.31h2v1.23h-2v4.55a1.65 1.65 0 0 0 .25 1 1.09 1.09 0 0 0 .88.36 1.68 1.68 0 0 0 .9-.27v1.33a3.11 3.11 0 0 1-.49.16 3.77 3.77 0 0 1-.63 0 2.51 2.51 0 0 1-.92-.11zM297.7 387.75a3.85 3.85 0 0 1-1.45-1.54 4.78 4.78 0 0 1-.52-2.22 4.9 4.9 0 0 1 .49-2.17 4 4 0 0 1 1.39-1.59 3.7 3.7 0 0 1 2.08-.59 3.91 3.91 0 0 1 2.08.54 3.65 3.65 0 0 1 1.35 1.48 4.83 4.83 0 0 1 .47 2.16 1.58 1.58 0 0 1 0 .41h-6.45a3.26 3.26 0 0 0 .45 1.57 2.6 2.6 0 0 0 1 1 2.8 2.8 0 0 0 1.29.32 2.65 2.65 0 0 0 2.41-1.47l1.15.56a4.17 4.17 0 0 1-1.43 1.57 4 4 0 0 1-2.18.57 3.93 3.93 0 0 1-2.13-.6zm4.45-4.64a2.62 2.62 0 0 0-.29-1 2.14 2.14 0 0 0-.81-.86 2.46 2.46 0 0 0-1.38-.36 2.29 2.29 0 0 0-1.62.62 2.93 2.93 0 0 0-.88 1.62zM305.17 379.9h1.3v1.31h.06a2.22 2.22 0 0 1 .93-1.12 2.6 2.6 0 0 1 1.44-.45 2.32 2.32 0 0 1 1 .18v1.45a2.52 2.52 0 0 0-1.15-.25 1.92 1.92 0 0 0-1.09.33 2.5 2.5 0 0 0-.79.91 2.6 2.6 0 0 0-.3 1.23v4.57h-1.36zM309.9 387.78a.91.91 0 0 1-.29-.7.9.9 0 0 1 .29-.68 1.05 1.05 0 0 1 .73-.28 1 1 0 0 1 .71.28.91.91 0 0 1 .3.68.92.92 0 0 1-.3.7 1 1 0 0 1-.71.28 1.05 1.05 0 0 1-.73-.28zM313.54 376.6h1.36v11.46h-1.36zM318.44 387.74a4.11 4.11 0 0 1-1.5-1.57 4.79 4.79 0 0 1 0-4.38 4 4 0 0 1 1.5-1.57 4.31 4.31 0 0 1 4.32 0 3.89 3.89 0 0 1 1.49 1.57 4.71 4.71 0 0 1 0 4.38 4 4 0 0 1-1.49 1.57 4.38 4.38 0 0 1-4.32 0zm3.56-1a2.77 2.77 0 0 0 1-1.08 3.69 3.69 0 0 0 0-3.3 2.77 2.77 0 0 0-2.44-1.46 2.81 2.81 0 0 0-1.41.38 2.73 2.73 0 0 0-1.05 1.08 3.69 3.69 0 0 0 0 3.3 2.73 2.73 0 0 0 1.05 1.08 2.8 2.8 0 0 0 1.41.37 2.74 2.74 0 0 0 1.44-.4zM327.94 387.75a3.94 3.94 0 0 1-1.47-1.56 4.6 4.6 0 0 1-.53-2.21 4.74 4.74 0 0 1 .53-2.23 3.92 3.92 0 0 1 1.47-1.55 4.13 4.13 0 0 1 2.13-.56 3.86 3.86 0 0 1 2.23.62 3.42 3.42 0 0 1 1.29 1.64l-1.23.51a2.43 2.43 0 0 0-.91-1.14 2.51 2.51 0 0 0-1.44-.4 2.45 2.45 0 0 0-1.35.4 2.85 2.85 0 0 0-1 1.09 3.4 3.4 0 0 0-.37 1.62 3.36 3.36 0 0 0 .37 1.61 2.88 2.88 0 0 0 1 1.1 2.52 2.52 0 0 0 1.35.39 2.64 2.64 0 0 0 1.48-.4 2.32 2.32 0 0 0 .93-1.13l1.22.51a3.67 3.67 0 0 1-1.34 1.63 3.85 3.85 0 0 1-2.23.62 4.13 4.13 0 0 1-2.13-.56zM336 388a2.64 2.64 0 0 1-1.09-1 2.54 2.54 0 0 1-.38-1.4 2.38 2.38 0 0 1 1-2 4 4 0 0 1 2.47-.73 5.34 5.34 0 0 1 1.36.16 3.58 3.58 0 0 1 1 .37v-.5a1.83 1.83 0 0 0-.64-1.46 2.35 2.35 0 0 0-1.61-.55 2.85 2.85 0 0 0-1.27.29 2.35 2.35 0 0 0-.91.83l-1-.77a3.39 3.39 0 0 1 1.33-1.15 4.1 4.1 0 0 1 1.86-.42 3.75 3.75 0 0 1 2.62.87 3.1 3.1 0 0 1 .95 2.38v5.17h-1.3v-1.17h-.06a3.08 3.08 0 0 1-2.64 1.42A3.45 3.45 0 0 1 336 388zm3-1.2a2.67 2.67 0 0 0 .95-.94 2.56 2.56 0 0 0 .35-1.3 3.14 3.14 0 0 0-.94-.41 4.22 4.22 0 0 0-1.19-.16 2.59 2.59 0 0 0-1.68.46 1.48 1.48 0 0 0-.57 1.2 1.34 1.34 0 0 0 .51 1.09 2 2 0 0 0 1.3.41 2.39 2.39 0 0 0 1.27-.39zM343.53 376.6h1.36v11.46h-1.36z"/><path class="b02271a4-84cc-4822-ac2b-11ba428f9868" d="M73 278.86h3"/><path stroke="#486baf" stroke-dasharray="6 12" stroke-width="4" stroke-linecap="round" stroke-linejoin="round" fill="none" d="M88 278.86h120"/><path class="b02271a4-84cc-4822-ac2b-11ba428f9868" d="M214 278.86h3"/><path d="M76.63 305.33a5.64 5.64 0 0 1-2.13-2.15 6.35 6.35 0 0 1 0-6.1 5.64 5.64 0 0 1 2.13-2.15 6 6 0 0 1 3-.78 5.63 5.63 0 0 1 2.34.48 5.47 5.47 0 0 1 1.88 1.37l-1 .94a4.35 4.35 0 0 0-1.43-1.15 4 4 0 0 0-1.78-.37 4.57 4.57 0 0 0-2.29.59 4.29 4.29 0 0 0-1.66 1.64 5.27 5.27 0 0 0 0 4.92 4.29 4.29 0 0 0 1.66 1.64 4.57 4.57 0 0 0 2.29.59 4.48 4.48 0 0 0 3.53-1.71l1 1a5.84 5.84 0 0 1-4.52 2 6 6 0 0 1-3.02-.76zM87.14 305.54a4.09 4.09 0 0 1-1.49-1.54 4.71 4.71 0 0 1 0-4.38 4 4 0 0 1 1.49-1.62 4.31 4.31 0 0 1 4.32 0 4 4 0 0 1 1.5 1.57A4.71 4.71 0 0 1 93 304a4.26 4.26 0 0 1-5.82 1.57zm3.56-1a2.77 2.77 0 0 0 1-1.08 3.6 3.6 0 0 0 0-3.3 2.77 2.77 0 0 0-2.44-1.46 2.8 2.8 0 0 0-2.45 1.46 3.69 3.69 0 0 0 0 3.3 2.8 2.8 0 0 0 1.05 1.08 2.83 2.83 0 0 0 2.8 0zM94.92 297.7h1.3v1.2h.06a2.66 2.66 0 0 1 1.07-1 3 3 0 0 1 1.57-.43 2.89 2.89 0 0 1 2.25.86 3.31 3.31 0 0 1 .77 2.33v5.23h-1.36v-5a2.17 2.17 0 0 0-.54-1.64 2 2 0 0 0-1.49-.52 2 2 0 0 0-1.17.37 2.47 2.47 0 0 0-.81 1 2.91 2.91 0 0 0-.29 1.26v4.59h-1.36zM104.68 298.93h-1.5v-1.23h1.5v-.88a2.61 2.61 0 0 1 .35-1.35 2.37 2.37 0 0 1 1-.88 2.73 2.73 0 0 1 1.31-.32 3.35 3.35 0 0 1 1.2.2v1.32l-.55-.18a2.15 2.15 0 0 0-.6-.07 1.27 1.27 0 0 0-.92.37 1.42 1.42 0 0 0-.38 1v.74h5.06v8.16h-1.35v-6.93H106v6.93h-1.36zm5.06-2.94a.94.94 0 0 1-.29-.69.91.91 0 0 1 .29-.69 1 1 0 0 1 1.66.69 1 1 0 0 1-.28.69.94.94 0 0 1-.7.28.93.93 0 0 1-.68-.27zM114.37 308.9a3.31 3.31 0 0 1-1.26-1.62l1.23-.53a2.5 2.5 0 0 0 2.4 1.59 2.62 2.62 0 0 0 2-.71 2.72 2.72 0 0 0 .7-2v-.91h-.06a3.09 3.09 0 0 1-1.13 1 3.48 3.48 0 0 1-1.66.39 3.55 3.55 0 0 1-1.93-.55 3.87 3.87 0 0 1-1.38-1.53 5.2 5.2 0 0 1 0-4.49 3.86 3.86 0 0 1 1.38-1.55 3.64 3.64 0 0 1 1.93-.55 3.48 3.48 0 0 1 1.66.39 3.07 3.07 0 0 1 1.13 1h.06v-1.13h1.3v7.84a4.09 4.09 0 0 1-6.33 3.36zm3.71-4.39a2.67 2.67 0 0 0 1-1.08 3.53 3.53 0 0 0 .36-1.65 3.65 3.65 0 0 0-.36-1.68 2.61 2.61 0 0 0-1-1.06 2.57 2.57 0 0 0-1.34-.37 2.51 2.51 0 0 0-1.34.38 2.59 2.59 0 0 0-1 1.07 4 4 0 0 0 0 3.32 2.62 2.62 0 0 0 1 1.08 2.59 2.59 0 0 0 1.34.36 2.48 2.48 0 0 0 1.34-.37zM123.34 305.25a3.53 3.53 0 0 1-.77-2.42v-5.13h1.36v4.93a2.37 2.37 0 0 0 .53 1.71 1.88 1.88 0 0 0 1.42.54 2 2 0 0 0 1.22-.37 2.44 2.44 0 0 0 .84-1 2.82 2.82 0 0 0 .29-1.24v-4.57h1.36v8.16h-1.29v-1.19h-.07a2.66 2.66 0 0 1-1.07 1 3.2 3.2 0 0 1-1.57.41 2.86 2.86 0 0 1-2.25-.83zM131.61 297.7h1.29v1.3h.1a2.22 2.22 0 0 1 .93-1.12 2.55 2.55 0 0 1 1.44-.45 2.35 2.35 0 0 1 1 .18v1.45a2.6 2.6 0 0 0-1.16-.25 1.91 1.91 0 0 0-1.08.33 2.52 2.52 0 0 0-.8.91 2.72 2.72 0 0 0-.29 1.23v4.57h-1.36zM138.66 305.55a3.82 3.82 0 0 1-1.44-1.54 4.66 4.66 0 0 1-.52-2.22 4.9 4.9 0 0 1 .48-2.17 4 4 0 0 1 1.39-1.59 3.73 3.73 0 0 1 2.08-.59 3.91 3.91 0 0 1 2.08.54 3.58 3.58 0 0 1 1.35 1.48 4.83 4.83 0 0 1 .47 2.16 1.24 1.24 0 0 1-.05.41h-6.44a3.26 3.26 0 0 0 .44 1.57 2.6 2.6 0 0 0 1 1 2.8 2.8 0 0 0 1.29.32 2.65 2.65 0 0 0 2.41-1.47l1.16.56a4.19 4.19 0 0 1-1.44 1.57 4 4 0 0 1-2.18.57 3.93 3.93 0 0 1-2.08-.6zm4.45-4.64a2.62 2.62 0 0 0-.29-1 2.19 2.19 0 0 0-.8-.86 2.5 2.5 0 0 0-1.39-.36 2.29 2.29 0 0 0-1.62.62 2.92 2.92 0 0 0-.87 1.62zM147.7 305.55a3.8 3.8 0 0 1-1.4-1.54 4.67 4.67 0 0 1-.52-2.23 4.73 4.73 0 0 1 .52-2.23 3.89 3.89 0 0 1 1.4-1.55 3.64 3.64 0 0 1 2-.56 3.23 3.23 0 0 1 1.68.43 3.05 3.05 0 0 1 1.12 1h.07l-.07-1.13v-3.34h1.36v11.46h-1.29v-1.2h-.07a3.12 3.12 0 0 1-1.12 1 3.33 3.33 0 0 1-1.68.42 3.56 3.56 0 0 1-2-.53zm3.47-1.05a2.83 2.83 0 0 0 1-1.09 3.69 3.69 0 0 0 0-3.26 2.76 2.76 0 0 0-1-1.09 2.48 2.48 0 0 0-2.67 0 2.78 2.78 0 0 0-1 1.09 3.46 3.46 0 0 0-.37 1.63 3.4 3.4 0 0 0 .37 1.62 2.81 2.81 0 0 0 1 1.1 2.54 2.54 0 0 0 2.67 0zM159.56 297.7h1.3v1.3h.06a2.22 2.22 0 0 1 .93-1.12 2.6 2.6 0 0 1 1.44-.45 2.35 2.35 0 0 1 1 .18v1.45a2.55 2.55 0 0 0-1.15-.25 1.92 1.92 0 0 0-1.09.33 2.41 2.41 0 0 0-.79.91 2.6 2.6 0 0 0-.3 1.23v4.57h-1.36zM166.68 305.54a4.11 4.11 0 0 1-1.5-1.57 4.79 4.79 0 0 1 0-4.38 4 4 0 0 1 1.5-1.57 4.31 4.31 0 0 1 4.32 0 4 4 0 0 1 1.5 1.57 4.79 4.79 0 0 1 0 4.38 4.26 4.26 0 0 1-5.82 1.57zm3.56-1a2.84 2.84 0 0 0 1-1.08 3.69 3.69 0 0 0 0-3.3 2.77 2.77 0 0 0-2.44-1.46 2.81 2.81 0 0 0-1.41.38 2.73 2.73 0 0 0-1.05 1.08 3.69 3.69 0 0 0 0 3.3 2.76 2.76 0 0 0 2.46 1.45 2.74 2.74 0 0 0 1.44-.4zM175.25 305.25a3.49 3.49 0 0 1-.78-2.42v-5.13h1.36v4.93a2.41 2.41 0 0 0 .53 1.71 1.9 1.9 0 0 0 1.42.54 2.1 2.1 0 0 0 1.23-.37 2.5 2.5 0 0 0 .83-1 2.7 2.7 0 0 0 .3-1.24v-4.57h1.36v8.16h-1.3v-1.19h-.06a2.76 2.76 0 0 1-1.08 1 3.19 3.19 0 0 1-1.56.41 2.83 2.83 0 0 1-2.25-.83zM185.81 306a2 2 0 0 1-.71-.44 1.83 1.83 0 0 1-.48-.72 2.63 2.63 0 0 1-.16-1v-4.87H183v-1.27h1.43v-2.31h1.35v2.31h2v1.23h-2v4.55a1.65 1.65 0 0 0 .26 1 1.09 1.09 0 0 0 .88.36 1.68 1.68 0 0 0 .9-.27v1.33a3.11 3.11 0 0 1-.49.16 3.77 3.77 0 0 1-.63 0 2.51 2.51 0 0 1-.89-.06zM190.63 305.55a3.85 3.85 0 0 1-1.45-1.54 4.78 4.78 0 0 1-.52-2.22 4.9 4.9 0 0 1 .49-2.17 4 4 0 0 1 1.39-1.59 3.69 3.69 0 0 1 2.07-.59 3.86 3.86 0 0 1 2.08.54 3.6 3.6 0 0 1 1.36 1.48 4.83 4.83 0 0 1 .47 2.16 1.58 1.58 0 0 1-.05.41H190a3.15 3.15 0 0 0 .45 1.57 2.6 2.6 0 0 0 1 1 2.79 2.79 0 0 0 1.28.32 2.65 2.65 0 0 0 2.42-1.47l1.15.56a4.17 4.17 0 0 1-1.43 1.57 4 4 0 0 1-2.18.57 3.93 3.93 0 0 1-2.06-.6zm4.45-4.64a2.62 2.62 0 0 0-.29-1 2.14 2.14 0 0 0-.79-.91 2.49 2.49 0 0 0-1.38-.36 2.29 2.29 0 0 0-1.62.62 2.93 2.93 0 0 0-.88 1.62zM202.44 298.93h-1.5v-1.23h1.5v-.88a2.61 2.61 0 0 1 .35-1.35 2.37 2.37 0 0 1 1-.88 2.73 2.73 0 0 1 1.31-.32 3.35 3.35 0 0 1 1.2.2v1.32l-.55-.18a2.15 2.15 0 0 0-.6-.07 1.27 1.27 0 0 0-.92.37 1.42 1.42 0 0 0-.38 1v.74h2.1v1.23h-2.1v6.93h-1.36zM208.66 305.54a4 4 0 0 1-1.49-1.57 4.71 4.71 0 0 1 0-4.38 3.89 3.89 0 0 1 1.49-1.57 4.31 4.31 0 0 1 4.32 0 4 4 0 0 1 1.5 1.57 4.71 4.71 0 0 1 0 4.38 4.26 4.26 0 0 1-5.82 1.57zm3.56-1a2.77 2.77 0 0 0 1-1.08 3.6 3.6 0 0 0 0-3.3 2.71 2.71 0 0 0-1-1.08 2.79 2.79 0 0 0-3.85 1.08 3.69 3.69 0 0 0 0 3.3 2.8 2.8 0 0 0 1 1.08 2.83 2.83 0 0 0 2.8 0zM216.44 297.7h1.3v1.3h.06a2.22 2.22 0 0 1 .93-1.12 2.6 2.6 0 0 1 1.44-.45 2.35 2.35 0 0 1 1 .18v1.45a2.55 2.55 0 0 0-1.15-.25 1.92 1.92 0 0 0-1.09.33 2.41 2.41 0 0 0-.79.91 2.6 2.6 0 0 0-.3 1.23v4.57h-1.36zM228.37 306a2 2 0 0 1-.71-.44 1.83 1.83 0 0 1-.48-.72 2.63 2.63 0 0 1-.16-1v-4.87h-1.43v-1.27H227v-2.31h1.36v2.31h2v1.23h-2v4.55a1.65 1.65 0 0 0 .25 1 1.09 1.09 0 0 0 .88.36 1.68 1.68 0 0 0 .9-.27v1.33a3.11 3.11 0 0 1-.49.16 3.77 3.77 0 0 1-.63 0 2.51 2.51 0 0 1-.9-.06zM232 297.7h1.29v1.3h.07a2.25 2.25 0 0 1 .92-1.12 2.6 2.6 0 0 1 1.44-.45 2.28 2.28 0 0 1 1 .18v1.45a2.52 2.52 0 0 0-1.15-.25 1.91 1.91 0 0 0-1.08.33 2.43 2.43 0 0 0-.8.91 2.72 2.72 0 0 0-.29 1.23v4.57H232zM238.7 305.76a2.58 2.58 0 0 1-1.09-1 2.54 2.54 0 0 1-.39-1.4 2.38 2.38 0 0 1 1-2 4 4 0 0 1 2.46-.73 5.42 5.42 0 0 1 1.37.16 3.58 3.58 0 0 1 1 .37v-.5a1.83 1.83 0 0 0-.64-1.46 2.39 2.39 0 0 0-1.62-.55 2.78 2.78 0 0 0-1.26.29 2.35 2.35 0 0 0-.91.83l-1-.77a3.29 3.29 0 0 1 1.32-1.15 4.11 4.11 0 0 1 1.87-.42 3.71 3.71 0 0 1 2.61.87 3.06 3.06 0 0 1 1 2.38v5.17H243v-1.17h-.06a3 3 0 0 1-1.06 1 3.13 3.13 0 0 1-1.58.41 3.43 3.43 0 0 1-1.6-.33zm3-1.2a2.67 2.67 0 0 0 1-.94 2.56 2.56 0 0 0 .35-1.3 3.25 3.25 0 0 0-.94-.41 4.22 4.22 0 0 0-1.19-.16 2.62 2.62 0 0 0-1.69.46 1.47 1.47 0 0 0-.56 1.2 1.34 1.34 0 0 0 .51 1.09 2 2 0 0 0 1.29.41 2.4 2.4 0 0 0 1.23-.35zM247 298.93h-1.51v-1.23H247v-.88a2.52 2.52 0 0 1 .35-1.35 2.34 2.34 0 0 1 .94-.88 2.8 2.8 0 0 1 1.32-.32 3.33 3.33 0 0 1 1.19.2v1.32l-.54-.18a2.18 2.18 0 0 0-.61-.07 1.26 1.26 0 0 0-.91.37 1.42 1.42 0 0 0-.38 1v.74H252v-.88a2.6 2.6 0 0 1 .34-1.35 2.3 2.3 0 0 1 1-.88 2.8 2.8 0 0 1 1.32-.32 3.6 3.6 0 0 1 1.2.2v1.32c-.22-.08-.41-.15-.57-.19a2.64 2.64 0 0 0-.6-.06 1.25 1.25 0 0 0-.91.37 1.39 1.39 0 0 0-.39 1v.74h5.06v8.16h-1.35v-6.93h-3.72v6.93H252v-6.93h-3.71v6.93H247zm10.08-2.93a.94.94 0 0 1-.29-.69 1 1 0 1 1 1 1 .94.94 0 0 1-.71-.31zM262.07 305.55a3.94 3.94 0 0 1-1.47-1.55 4.6 4.6 0 0 1-.53-2.21 4.74 4.74 0 0 1 .53-2.23 3.92 3.92 0 0 1 1.47-1.55 4.13 4.13 0 0 1 2.13-.56 3.88 3.88 0 0 1 2.23.62 3.42 3.42 0 0 1 1.29 1.64l-1.23.51a2.43 2.43 0 0 0-.91-1.14 2.51 2.51 0 0 0-1.44-.4 2.45 2.45 0 0 0-1.35.4 2.85 2.85 0 0 0-1 1.09 3.4 3.4 0 0 0-.37 1.62 3.36 3.36 0 0 0 .37 1.61 2.88 2.88 0 0 0 1 1.1 2.52 2.52 0 0 0 1.35.39 2.64 2.64 0 0 0 1.48-.4 2.32 2.32 0 0 0 .93-1.13l1.22.51a3.67 3.67 0 0 1-1.34 1.63 3.85 3.85 0 0 1-2.23.62 4.13 4.13 0 0 1-2.13-.57zM272.05 297.7h1.4l1.95 6.45 2-6.45h1.41l2.07 6.43 1.94-6.43h1.37l-2.64 8.16h-1.37l-2.12-6.51-2.06 6.51h-1.36zM285.5 295.92a1 1 0 0 1 0-1.37 1 1 0 0 1 1.37 0 1 1 0 0 1 0 1.37 1 1 0 0 1-.7.29.94.94 0 0 1-.67-.29zm0 1.78h1.34v8.16h-1.34zM291.14 306a2 2 0 0 1-1.2-1.16 2.85 2.85 0 0 1-.16-1v-4.87h-1.42v-1.27h1.42v-2.31h1.36v2.31h2v1.23h-2v4.55a1.65 1.65 0 0 0 .26 1 1.09 1.09 0 0 0 .88.36 1.68 1.68 0 0 0 .9-.27v1.33a3.11 3.11 0 0 1-.49.16 3.77 3.77 0 0 1-.63 0 2.47 2.47 0 0 1-.92-.06zM294.85 294.4h1.36v3.38l-.06 1.12h.06a2.68 2.68 0 0 1 1.07-1 3.1 3.1 0 0 1 1.59-.42 2.9 2.9 0 0 1 2.27.87 3.31 3.31 0 0 1 .79 2.32v5.23h-1.36v-5a2.16 2.16 0 0 0-.56-1.63 2.06 2.06 0 0 0-1.46-.53 2 2 0 0 0-1.18.39 2.62 2.62 0 0 0-.84 1 2.74 2.74 0 0 0-.32 1.26v4.55h-1.36zM309.81 306a2.08 2.08 0 0 1-.72-.44 1.91 1.91 0 0 1-.47-.72 2.63 2.63 0 0 1-.16-1v-4.87H307v-1.27h1.43v-2.31h1.35v2.31h2v1.23h-2v4.55a1.65 1.65 0 0 0 .26 1 1.09 1.09 0 0 0 .88.36 1.68 1.68 0 0 0 .9-.27v1.33a3.11 3.11 0 0 1-.49.16 3.77 3.77 0 0 1-.63 0 2.51 2.51 0 0 1-.89-.06zM313.53 294.4h1.36v3.38l-.07 1.12h.07a2.59 2.59 0 0 1 1.06-1 3.15 3.15 0 0 1 1.59-.42 2.88 2.88 0 0 1 2.27.87 3.31 3.31 0 0 1 .79 2.32v5.23h-1.36v-5a2.16 2.16 0 0 0-.56-1.63 2.06 2.06 0 0 0-1.46-.53 1.94 1.94 0 0 0-1.17.39 2.64 2.64 0 0 0-.85 1 2.73 2.73 0 0 0-.31 1.26v4.55h-1.36zM324.09 305.55a3.78 3.78 0 0 1-1.45-1.54 4.66 4.66 0 0 1-.52-2.22 4.77 4.77 0 0 1 .49-2.17A3.94 3.94 0 0 1 324 298a3.73 3.73 0 0 1 2.08-.59 3.91 3.91 0 0 1 2.08.54 3.51 3.51 0 0 1 1.35 1.48 4.7 4.7 0 0 1 .47 2.16 1.62 1.62 0 0 1 0 .41h-6.45a3.15 3.15 0 0 0 .45 1.57 2.51 2.51 0 0 0 1 1 2.8 2.8 0 0 0 1.29.32 2.66 2.66 0 0 0 2.42-1.47l1.15.56a4.17 4.17 0 0 1-1.43 1.57 4 4 0 0 1-2.19.57 3.9 3.9 0 0 1-2.13-.57zm4.44-4.64a2.6 2.6 0 0 0-.28-1 2.14 2.14 0 0 0-.81-.86 2.5 2.5 0 0 0-1.39-.36 2.29 2.29 0 0 0-1.62.62 3 3 0 0 0-.87 1.62zM337 305.55a3.88 3.88 0 0 1-1.49-1.59 5 5 0 0 1-.53-2.34v-7.22h1.37v7.28a3.42 3.42 0 0 0 .73 2.27 3 3 0 0 0 4.23 0 3.38 3.38 0 0 0 .75-2.27v-7.28h1.34v7.22a5.34 5.34 0 0 1-.5 2.35 3.66 3.66 0 0 1-1.46 1.58 4.68 4.68 0 0 1-4.44 0zM345.65 294.4h3.88a3.81 3.81 0 0 1 1.76.43 3.43 3.43 0 0 1 1.3 1.21 3.32 3.32 0 0 1 .13 3.24 3.32 3.32 0 0 1-1 1.15 3.69 3.69 0 0 1-1.4.63v.05l3.24 4.68v.07h-1.6l-3.12-4.67H347v4.67h-1.35zm3.8 5.52a2.39 2.39 0 0 0 1.11-.27 2.16 2.16 0 0 0 .83-.76 2 2 0 0 0 0-2.1 2.1 2.1 0 0 0-1.89-1.09H347v4.22zM355 294.4h1.34v11.46H355zM358.83 299.35a1 1 0 0 1-.3-.72 1 1 0 0 1 1-1 1 1 0 0 1 .71.3 1 1 0 0 1 .3.73 1 1 0 0 1-.3.72 1 1 0 0 1-.71.3 1 1 0 0 1-.7-.33zm0 6.21a1 1 0 0 1-.3-.73 1 1 0 0 1 1-1 1 1 0 0 1 .71.29 1 1 0 0 1 .3.71 1 1 0 0 1-.3.73 1 1 0 0 1-.71.3 1 1 0 0 1-.7-.3zM74.66 324.7a3.36 3.36 0 0 1-1.24-1.58l1.21-.54a2.39 2.39 0 0 0 .91 1.13 2.3 2.3 0 0 0 1.32.4 2.57 2.57 0 0 0 1.31-.31 1 1 0 0 0 .54-.89 1 1 0 0 0-.43-.82 4 4 0 0 0-1.36-.54l-1-.25a3.48 3.48 0 0 1-1.6-.82 1.92 1.92 0 0 1-.62-1.48 2 2 0 0 1 .43-1.24 2.74 2.74 0 0 1 1.13-.82 4 4 0 0 1 1.52-.29 3.89 3.89 0 0 1 1.91.47 2.61 2.61 0 0 1 1.19 1.29l-1.18.59a2 2 0 0 0-1.94-1.09 2.19 2.19 0 0 0-1.18.31.92.92 0 0 0-.5.79.9.9 0 0 0 .35.73 2.85 2.85 0 0 0 1.06.46l1.18.3a3.89 3.89 0 0 1 1.81.9 2 2 0 0 1 .61 1.47 2.17 2.17 0 0 1-.43 1.32 2.73 2.73 0 0 1-1.17.87 4.3 4.3 0 0 1-1.63.3 3.75 3.75 0 0 1-2.2-.66zM80.68 316.9h1.46l2.52 6.56 2.56-6.56h1.42l-3.33 8.16H84zM91.13 324.75a3.94 3.94 0 0 1-1.47-1.56 4.49 4.49 0 0 1-.53-2.21 4.62 4.62 0 0 1 .53-2.23 3.92 3.92 0 0 1 1.47-1.55 4.13 4.13 0 0 1 2.13-.56 3.9 3.9 0 0 1 2.23.62 3.42 3.42 0 0 1 1.29 1.64l-1.24.51a2.36 2.36 0 0 0-.9-1.14 2.52 2.52 0 0 0-1.45-.4 2.39 2.39 0 0 0-1.34.4 2.78 2.78 0 0 0-1 1.09 3.4 3.4 0 0 0-.38 1.62 3.36 3.36 0 0 0 .38 1.61 2.81 2.81 0 0 0 1 1.1 2.46 2.46 0 0 0 1.34.39 2.68 2.68 0 0 0 1.49-.4 2.37 2.37 0 0 0 .93-1.13l1.21.51a3.58 3.58 0 0 1-1.33 1.63 3.87 3.87 0 0 1-2.23.62 4.13 4.13 0 0 1-2.13-.56zM98.28 319.54h5.07v1.12h-5.07zM107.21 316l-1.92 1.37-.71-1 3.12-2.24h.87v10.95h-1.36zM111.12 324.78a.92.92 0 0 1-.3-.7.91.91 0 0 1 .3-.68 1.05 1.05 0 0 1 .73-.28 1 1 0 0 1 .71.28.91.91 0 0 1 .3.68.92.92 0 0 1-.3.7 1 1 0 0 1-.71.28 1.05 1.05 0 0 1-.73-.28zM114.76 316.9h1.3v1.2h.06a2.83 2.83 0 0 1 1-1 2.95 2.95 0 0 1 3 0 2.39 2.39 0 0 1 1 1.16 3.36 3.36 0 0 1 1.15-1.16 3.2 3.2 0 0 1 1.66-.43 2.62 2.62 0 0 1 2.12.86 3.54 3.54 0 0 1 .71 2.33v5.23h-1.35v-5a2.4 2.4 0 0 0-.46-1.64 1.74 1.74 0 0 0-1.38-.52 1.83 1.83 0 0 0-1.1.36 2.34 2.34 0 0 0-.78.94 3 3 0 0 0-.28 1.28v4.61h-1.31v-5a2.42 2.42 0 0 0-.46-1.66 1.71 1.71 0 0 0-1.36-.52 1.86 1.86 0 0 0-1.11.36 2.45 2.45 0 0 0-.77 1 3 3 0 0 0-.28 1.29v4.58h-1.36zM131 324.55l-3.37-7.65h1.47l2.56 6.06 2.46-6.06h1.48l-5 11.61h-1.41zM136.78 319.54h5.07v1.12h-5.07zM143.85 316.9h1.29v1.2h.07a2.66 2.66 0 0 1 1.07-1 3 3 0 0 1 1.57-.43 2.86 2.86 0 0 1 2.24.86 3.31 3.31 0 0 1 .78 2.33v5.23h-1.36v-5a2.17 2.17 0 0 0-.54-1.64 2.07 2.07 0 0 0-1.49-.52 2 2 0 0 0-1.18.37 2.65 2.65 0 0 0-.81 1 2.9 2.9 0 0 0-.28 1.26v4.59h-1.36zM153.75 325a2.55 2.55 0 0 1-1.47-2.37 2.37 2.37 0 0 1 1-2 4 4 0 0 1 2.46-.73 5.42 5.42 0 0 1 1.37.16 3.72 3.72 0 0 1 1 .37v-.5a1.86 1.86 0 0 0-.64-1.46 2.39 2.39 0 0 0-1.62-.55 2.78 2.78 0 0 0-1.26.29 2.38 2.38 0 0 0-.92.83l-1-.77a3.29 3.29 0 0 1 1.32-1.15 4.1 4.1 0 0 1 1.86-.42 3.75 3.75 0 0 1 2.62.87 3.1 3.1 0 0 1 .95 2.38v5.17h-1.29v-1.17H158a3 3 0 0 1-1.05 1 3 3 0 0 1-1.59.41 3.45 3.45 0 0 1-1.61-.36zm3-1.2a2.65 2.65 0 0 0 .94-.94 2.47 2.47 0 0 0 .36-1.3 3.32 3.32 0 0 0-.95-.41 4.15 4.15 0 0 0-1.18-.16 2.62 2.62 0 0 0-1.69.46 1.48 1.48 0 0 0-.57 1.2 1.34 1.34 0 0 0 .51 1.09 2 2 0 0 0 1.3.41 2.42 2.42 0 0 0 1.29-.39zM161.24 316.9h1.3v1.2h.06a2.83 2.83 0 0 1 1.05-1 2.95 2.95 0 0 1 3 0 2.39 2.39 0 0 1 1 1.16 3.36 3.36 0 0 1 1.15-1.16 3.2 3.2 0 0 1 1.66-.43 2.62 2.62 0 0 1 2.12.86 3.54 3.54 0 0 1 .71 2.33v5.23h-1.35v-5a2.4 2.4 0 0 0-.46-1.64 1.74 1.74 0 0 0-1.38-.52 1.83 1.83 0 0 0-1.1.36 2.34 2.34 0 0 0-.78.94 3 3 0 0 0-.28 1.28v4.61h-1.36v-5a2.42 2.42 0 0 0-.46-1.66 1.71 1.71 0 0 0-1.36-.52 1.86 1.86 0 0 0-1.11.36 2.45 2.45 0 0 0-.77 1 3 3 0 0 0-.28 1.29v4.58h-1.36zM176.77 324.75a3.82 3.82 0 0 1-1.44-1.54 4.66 4.66 0 0 1-.52-2.22 4.9 4.9 0 0 1 .48-2.17 4 4 0 0 1 1.39-1.59 3.73 3.73 0 0 1 2.08-.59 3.91 3.91 0 0 1 2.08.54 3.51 3.51 0 0 1 1.35 1.48 4.7 4.7 0 0 1 .47 2.16 1.24 1.24 0 0 1 0 .41h-6.44a3.26 3.26 0 0 0 .44 1.57 2.6 2.6 0 0 0 1 1 2.8 2.8 0 0 0 1.29.32 2.65 2.65 0 0 0 2.41-1.47l1.16.56a4.25 4.25 0 0 1-1.43 1.57 4.06 4.06 0 0 1-2.19.57 3.93 3.93 0 0 1-2.13-.6zm4.45-4.64a2.6 2.6 0 0 0-.28-1 2.21 2.21 0 0 0-.81-.86 2.5 2.5 0 0 0-1.39-.36 2.29 2.29 0 0 0-1.62.62 3 3 0 0 0-.87 1.62zM185 324.7a3.44 3.44 0 0 1-1.25-1.58l1.22-.54a2.38 2.38 0 0 0 .9 1.13 2.3 2.3 0 0 0 1.32.4 2.6 2.6 0 0 0 1.32-.31 1 1 0 0 0 .54-.89 1 1 0 0 0-.43-.82 4 4 0 0 0-1.36-.54l-1-.25a3.48 3.48 0 0 1-1.6-.82 2 2 0 0 1-.2-2.73 2.7 2.7 0 0 1 1.12-.82 4 4 0 0 1 1.52-.29 3.9 3.9 0 0 1 1.92.47 2.65 2.65 0 0 1 1.19 1.29l-1.21.6a2 2 0 0 0-1.93-1.09 2.19 2.19 0 0 0-1.18.31.92.92 0 0 0-.5.79.9.9 0 0 0 .35.73 2.77 2.77 0 0 0 1.06.46l1.18.3a3.89 3.89 0 0 1 1.81.9 2 2 0 0 1 .61 1.47 2.12 2.12 0 0 1-.44 1.32 2.64 2.64 0 0 1-1.16.87 4.32 4.32 0 0 1-1.64.3 3.74 3.74 0 0 1-2.16-.66zM191.75 316.9h1.3v1.21h.06a3 3 0 0 1 1.11-1 3.27 3.27 0 0 1 1.67-.43 3.71 3.71 0 0 1 2 .56 3.91 3.91 0 0 1 1.41 1.55 4.85 4.85 0 0 1 .51 2.23 4.79 4.79 0 0 1-.51 2.23 3.82 3.82 0 0 1-1.41 1.54 3.63 3.63 0 0 1-2 .56 3.37 3.37 0 0 1-1.67-.42 3.08 3.08 0 0 1-1.11-1h-.06l.06 1.12v3.53h-1.36zm5.31 6.8a2.74 2.74 0 0 0 1-1.1 3.4 3.4 0 0 0 .38-1.62 3.47 3.47 0 0 0-.38-1.63 2.71 2.71 0 0 0-1-1.09 2.45 2.45 0 0 0-2.65 0 2.71 2.71 0 0 0-1 1.09 3.87 3.87 0 0 0 0 3.26 2.78 2.78 0 0 0 1 1.09 2.5 2.5 0 0 0 2.65 0zM202.39 325a2.55 2.55 0 0 1-1.47-2.37 2.38 2.38 0 0 1 1-2 4 4 0 0 1 2.47-.73 5.42 5.42 0 0 1 1.37.16 3.49 3.49 0 0 1 1 .37v-.5a1.83 1.83 0 0 0-.64-1.46 2.35 2.35 0 0 0-1.61-.55 2.85 2.85 0 0 0-1.27.29 2.43 2.43 0 0 0-.91.83l-1-.77a3.29 3.29 0 0 1 1.32-1.15 4.1 4.1 0 0 1 1.86-.42 3.75 3.75 0 0 1 2.62.87 3.1 3.1 0 0 1 1 2.38v5.17h-1.3v-1.17h-.06a3 3 0 0 1-1.06 1 3 3 0 0 1-1.58.41 3.45 3.45 0 0 1-1.74-.36zm3-1.2a2.65 2.65 0 0 0 .94-.94 2.46 2.46 0 0 0 .35-1.3 3.14 3.14 0 0 0-.94-.41 4.15 4.15 0 0 0-1.18-.16 2.62 2.62 0 0 0-1.69.46 1.48 1.48 0 0 0-.57 1.2 1.34 1.34 0 0 0 .51 1.09 2 2 0 0 0 1.3.41 2.42 2.42 0 0 0 1.29-.39zM211.37 324.75a4 4 0 0 1-1.48-1.56 4.59 4.59 0 0 1-.52-2.21 4.73 4.73 0 0 1 .52-2.23 4 4 0 0 1 1.48-1.55 4.12 4.12 0 0 1 2.12-.56 3.91 3.91 0 0 1 2.24.62 3.35 3.35 0 0 1 1.27 1.64l-1.23.51a2.36 2.36 0 0 0-.9-1.14 2.52 2.52 0 0 0-1.45-.4 2.39 2.39 0 0 0-1.34.4 2.78 2.78 0 0 0-1 1.09 3.4 3.4 0 0 0-.38 1.62 3.36 3.36 0 0 0 .38 1.61 2.81 2.81 0 0 0 1 1.1 2.46 2.46 0 0 0 1.34.39 2.68 2.68 0 0 0 1.49-.4 2.43 2.43 0 0 0 .93-1.13l1.21.51a3.58 3.58 0 0 1-1.33 1.63 3.88 3.88 0 0 1-2.24.62 4.12 4.12 0 0 1-2.11-.56zM220 324.75a3.85 3.85 0 0 1-1.45-1.54 5 5 0 0 1 0-4.39 4.1 4.1 0 0 1 1.38-1.59 3.73 3.73 0 0 1 2.08-.59 3.88 3.88 0 0 1 2.08.54 3.6 3.6 0 0 1 1.36 1.48 4.83 4.83 0 0 1 .47 2.16 1.58 1.58 0 0 1 0 .41h-6.45a3.15 3.15 0 0 0 .45 1.57 2.6 2.6 0 0 0 1 1 2.79 2.79 0 0 0 1.28.32 2.66 2.66 0 0 0 2.42-1.47l1.15.56a4.17 4.17 0 0 1-1.43 1.57 4 4 0 0 1-2.18.57 3.93 3.93 0 0 1-2.16-.6zm4.45-4.64a2.62 2.62 0 0 0-.29-1 2.14 2.14 0 0 0-.81-.86 2.49 2.49 0 0 0-1.38-.36 2.33 2.33 0 0 0-1.63.62 3 3 0 0 0-.87 1.62zM227.63 324.78a.92.92 0 0 1-.3-.7.91.91 0 0 1 .3-.68 1.05 1.05 0 0 1 .73-.28 1 1 0 0 1 .71.28.91.91 0 0 1 .3.68.92.92 0 0 1-.3.7 1 1 0 0 1-.71.28 1.05 1.05 0 0 1-.73-.28zM231.93 324.7a3.32 3.32 0 0 1-1.25-1.58l1.21-.54a2.45 2.45 0 0 0 .91 1.13 2.3 2.3 0 0 0 1.32.4 2.57 2.57 0 0 0 1.31-.31 1 1 0 0 0 .54-.89 1 1 0 0 0-.43-.82 4 4 0 0 0-1.36-.54l-1-.25a3.53 3.53 0 0 1-1.6-.82A1.91 1.91 0 0 1 231 319a2 2 0 0 1 .42-1.24 2.74 2.74 0 0 1 1.13-.82 4 4 0 0 1 1.52-.29 3.89 3.89 0 0 1 1.91.47 2.61 2.61 0 0 1 1.19 1.29L236 319a2 2 0 0 0-1.94-1.09 2.13 2.13 0 0 0-1.17.31.91.91 0 0 0-.51.79.9.9 0 0 0 .35.73 2.85 2.85 0 0 0 1.06.46l1.18.3a3.84 3.84 0 0 1 1.81.9 2 2 0 0 1 .61 1.47 2.11 2.11 0 0 1-.43 1.32 2.73 2.73 0 0 1-1.17.87 4.26 4.26 0 0 1-1.63.3 3.7 3.7 0 0 1-2.23-.66zM237.94 316.9h1.46l2.53 6.56 2.56-6.56h1.42l-3.33 8.16h-1.37zM248.39 324.75a3.94 3.94 0 0 1-1.47-1.56 4.6 4.6 0 0 1-.53-2.21 4.74 4.74 0 0 1 .53-2.23 3.92 3.92 0 0 1 1.47-1.55 4.13 4.13 0 0 1 2.13-.56 3.88 3.88 0 0 1 2.23.62 3.42 3.42 0 0 1 1.25 1.64l-1.23.51a2.43 2.43 0 0 0-.91-1.14 2.52 2.52 0 0 0-1.45-.4 2.41 2.41 0 0 0-1.34.4 2.78 2.78 0 0 0-1 1.09 3.4 3.4 0 0 0-.38 1.62 3.36 3.36 0 0 0 .38 1.61 2.81 2.81 0 0 0 1 1.1 2.49 2.49 0 0 0 1.34.39 2.65 2.65 0 0 0 1.49-.4 2.32 2.32 0 0 0 .93-1.13l1.22.51a3.67 3.67 0 0 1-1.34 1.63 3.85 3.85 0 0 1-2.23.62 4.13 4.13 0 0 1-2.09-.56zM255.73 324.78a.92.92 0 0 1-.3-.7.91.91 0 0 1 .3-.68 1 1 0 0 1 .72-.28 1 1 0 0 1 .72.28.94.94 0 0 1 .29.68 1 1 0 0 1-.29.7 1 1 0 0 1-.72.28 1 1 0 0 1-.72-.28zM260.93 324.75a3.94 3.94 0 0 1-1.47-1.56 4.6 4.6 0 0 1-.53-2.21 4.74 4.74 0 0 1 .53-2.23 3.92 3.92 0 0 1 1.47-1.55 4.13 4.13 0 0 1 2.13-.56 3.86 3.86 0 0 1 2.23.62 3.31 3.31 0 0 1 1.29 1.64l-1.23.51a2.36 2.36 0 0 0-.9-1.14 2.54 2.54 0 0 0-1.45-.4 2.45 2.45 0 0 0-1.35.4 2.85 2.85 0 0 0-1 1.09 3.4 3.4 0 0 0-.37 1.62 3.36 3.36 0 0 0 .37 1.61 2.88 2.88 0 0 0 1 1.1 2.52 2.52 0 0 0 1.35.39 2.7 2.7 0 0 0 1.49-.4 2.35 2.35 0 0 0 .92-1.13l1.22.51a3.6 3.6 0 0 1-1.34 1.63 3.83 3.83 0 0 1-2.23.62 4.13 4.13 0 0 1-2.13-.56zM268.1 313.6h1.36v11.46h-1.36zM272.19 324.45a3.49 3.49 0 0 1-.78-2.42v-5.13h1.36v4.93a2.4 2.4 0 0 0 .53 1.71 1.91 1.91 0 0 0 1.43.54 2.09 2.09 0 0 0 1.22-.37 2.42 2.42 0 0 0 .83-1 2.7 2.7 0 0 0 .3-1.24v-4.57h1.36v8.16h-1.3v-1.19h-.06a2.73 2.73 0 0 1-1.07 1 3.12 3.12 0 0 1-1.57.41 2.86 2.86 0 0 1-2.25-.83zM281 324.7a3.38 3.38 0 0 1-1.25-1.58l1.22-.54a2.38 2.38 0 0 0 .9 1.13 2.3 2.3 0 0 0 1.32.4 2.57 2.57 0 0 0 1.31-.31 1 1 0 0 0 .55-.89 1 1 0 0 0-.43-.82 4.06 4.06 0 0 0-1.36-.54l-1-.25a3.53 3.53 0 0 1-1.6-.82 2.07 2.07 0 0 1-.2-2.73 2.8 2.8 0 0 1 1.13-.82 4 4 0 0 1 1.52-.29 3.86 3.86 0 0 1 1.91.47 2.68 2.68 0 0 1 1.2 1.29l-1.19.55a2 2 0 0 0-1.94-1.09 2.18 2.18 0 0 0-1.17.31.9.9 0 0 0-.5.79.88.88 0 0 0 .35.73 2.72 2.72 0 0 0 1.05.46l1.19.3a3.89 3.89 0 0 1 1.81.9 2 2 0 0 1 .6 1.47 2.11 2.11 0 0 1-.43 1.32 2.73 2.73 0 0 1-1.17.87 4.26 4.26 0 0 1-1.63.3 3.74 3.74 0 0 1-2.19-.61zM290.08 325.15a2 2 0 0 1-.71-.44 1.83 1.83 0 0 1-.48-.72 2.63 2.63 0 0 1-.16-1v-4.87h-1.43v-1.22h1.43v-2.31h1.36v2.31h2v1.23h-2v4.55a1.65 1.65 0 0 0 .25 1 1.09 1.09 0 0 0 .88.36 1.68 1.68 0 0 0 .9-.27v1.33a3.11 3.11 0 0 1-.49.16 3.77 3.77 0 0 1-.63 0 2.51 2.51 0 0 1-.92-.11zM294.9 324.75a3.85 3.85 0 0 1-1.45-1.54 4.78 4.78 0 0 1-.52-2.22 4.9 4.9 0 0 1 .49-2.17 4 4 0 0 1 1.39-1.59 3.7 3.7 0 0 1 2.08-.59 3.91 3.91 0 0 1 2.08.54 3.65 3.65 0 0 1 1.35 1.48 4.83 4.83 0 0 1 .47 2.16 1.58 1.58 0 0 1-.05.41h-6.45a3.26 3.26 0 0 0 .45 1.57 2.6 2.6 0 0 0 1 1 2.8 2.8 0 0 0 1.29.32 2.65 2.65 0 0 0 2.41-1.47l1.15.56a4.17 4.17 0 0 1-1.43 1.57 4 4 0 0 1-2.18.57 3.93 3.93 0 0 1-2.08-.6zm4.45-4.64a2.62 2.62 0 0 0-.29-1 2.14 2.14 0 0 0-.81-.86 2.46 2.46 0 0 0-1.38-.36 2.29 2.29 0 0 0-1.62.62 2.93 2.93 0 0 0-.88 1.62zM302.37 316.9h1.3v1.31h.06a2.22 2.22 0 0 1 .93-1.12 2.6 2.6 0 0 1 1.44-.45 2.35 2.35 0 0 1 1 .18v1.45a2.52 2.52 0 0 0-1.15-.25 1.92 1.92 0 0 0-1.09.33 2.5 2.5 0 0 0-.79.91 2.6 2.6 0 0 0-.3 1.23v4.57h-1.36zM307.1 324.78a.91.91 0 0 1-.29-.7.9.9 0 0 1 .29-.68 1.05 1.05 0 0 1 .73-.28 1 1 0 0 1 .71.28.91.91 0 0 1 .3.68.92.92 0 0 1-.3.7 1 1 0 0 1-.71.28 1.05 1.05 0 0 1-.73-.28zM310.74 313.6h1.36v11.46h-1.36zM315.64 324.74a4.11 4.11 0 0 1-1.5-1.57 4.79 4.79 0 0 1 0-4.38 4 4 0 0 1 1.5-1.57 4.31 4.31 0 0 1 4.32 0 3.89 3.89 0 0 1 1.49 1.57 4.71 4.71 0 0 1 0 4.38 4 4 0 0 1-1.49 1.57 4.38 4.38 0 0 1-4.32 0zm3.56-1a2.77 2.77 0 0 0 1-1.08 3.69 3.69 0 0 0 0-3.3 2.77 2.77 0 0 0-2.44-1.46 2.81 2.81 0 0 0-1.41.38 2.73 2.73 0 0 0-1.05 1.08 3.69 3.69 0 0 0 0 3.3 2.73 2.73 0 0 0 1.05 1.08 2.8 2.8 0 0 0 1.41.37 2.74 2.74 0 0 0 1.44-.4zM325.14 324.75a3.94 3.94 0 0 1-1.47-1.56 4.6 4.6 0 0 1-.53-2.21 4.74 4.74 0 0 1 .53-2.23 3.92 3.92 0 0 1 1.47-1.55 4.13 4.13 0 0 1 2.13-.56 3.88 3.88 0 0 1 2.23.62 3.42 3.42 0 0 1 1.29 1.64l-1.23.51a2.43 2.43 0 0 0-.91-1.14 2.51 2.51 0 0 0-1.44-.4 2.45 2.45 0 0 0-1.35.4 2.85 2.85 0 0 0-1 1.09 3.4 3.4 0 0 0-.37 1.62 3.36 3.36 0 0 0 .37 1.61 2.88 2.88 0 0 0 1 1.1 2.52 2.52 0 0 0 1.35.39 2.64 2.64 0 0 0 1.48-.4 2.32 2.32 0 0 0 .93-1.13l1.22.51a3.6 3.6 0 0 1-1.34 1.63 3.85 3.85 0 0 1-2.23.62 4.13 4.13 0 0 1-2.13-.56zM333.24 325a2.64 2.64 0 0 1-1.09-1 2.54 2.54 0 0 1-.38-1.4 2.38 2.38 0 0 1 1-2 4 4 0 0 1 2.47-.73 5.34 5.34 0 0 1 1.36.16 3.45 3.45 0 0 1 1 .37v-.5a1.83 1.83 0 0 0-.64-1.46 2.37 2.37 0 0 0-1.61-.55 2.85 2.85 0 0 0-1.27.29 2.35 2.35 0 0 0-.91.83l-1-.77a3.29 3.29 0 0 1 1.32-1.15 4.1 4.1 0 0 1 1.86-.42 3.75 3.75 0 0 1 2.62.87 3.1 3.1 0 0 1 .95 2.38v5.17h-1.3v-1.17h-.06a3.08 3.08 0 0 1-2.64 1.42 3.45 3.45 0 0 1-1.68-.34zm3-1.2a2.65 2.65 0 0 0 .94-.94 2.56 2.56 0 0 0 .35-1.3 3.14 3.14 0 0 0-.94-.41 4.22 4.22 0 0 0-1.19-.16 2.59 2.59 0 0 0-1.68.46 1.48 1.48 0 0 0-.57 1.2 1.34 1.34 0 0 0 .51 1.09 2 2 0 0 0 1.3.41 2.44 2.44 0 0 0 1.29-.39zM340.72 313.6h1.37v11.46h-1.37z"/><path class="e11ad8de-e2c0-4a13-8d08-97e0c321ab95" d="M73 214.86h3"/><path class="f740990e-eb26-4ea3-87b3-52b5d23b17fb" d="M88 214.86h120"/><path class="e11ad8de-e2c0-4a13-8d08-97e0c321ab95" d="M214 214.86h3"/><path d="M74.28 231.35h3.87a3.67 3.67 0 0 1 1.76.43 3.39 3.39 0 0 1 1.31 1.22 3.26 3.26 0 0 1 .48 1.75 3.15 3.15 0 0 1-.36 1.49 3.32 3.32 0 0 1-1 1.15A3.62 3.62 0 0 1 79 238l3.23 4.69v.07h-1.6l-3.12-4.68h-1.89v4.68h-1.34zm3.79 5.52a2.34 2.34 0 0 0 1.11-.27 2.2 2.2 0 0 0 .84-.76 2.07 2.07 0 0 0 .31-1.1 2 2 0 0 0-.27-1 2.27 2.27 0 0 0-.76-.78 2.15 2.15 0 0 0-1.13-.3h-2.55v4.22zM84.82 242.49a4.09 4.09 0 0 1-1.49-1.57 4.5 4.5 0 0 1-.54-2.19 4.56 4.56 0 0 1 .54-2.2 4 4 0 0 1 1.49-1.53 4.31 4.31 0 0 1 4.32 0 4 4 0 0 1 1.5 1.56 4.56 4.56 0 0 1 .54 2.2 4.5 4.5 0 0 1-.54 2.19 4.26 4.26 0 0 1-5.82 1.57zm3.56-1a2.71 2.71 0 0 0 1-1.08 3.22 3.22 0 0 0 .4-1.64 3.25 3.25 0 0 0-.4-1.65 2.71 2.71 0 0 0-1-1.08 2.79 2.79 0 0 0-3.85 1.08 3.35 3.35 0 0 0-.39 1.65 3.32 3.32 0 0 0 .39 1.64 2.73 2.73 0 0 0 1 1.08 2.77 2.77 0 0 0 2.8 0zM93.39 242.2a3.48 3.48 0 0 1-.77-2.42v-5.13H94v4.92a2.42 2.42 0 0 0 .52 1.72 1.92 1.92 0 0 0 1.43.54 2.07 2.07 0 0 0 1.22-.37 2.35 2.35 0 0 0 .83-1 2.71 2.71 0 0 0 .3-1.25v-4.6h1.36v8.16h-1.3v-1.19h-.06a2.66 2.66 0 0 1-1.07 1 3.23 3.23 0 0 1-1.57.41 2.89 2.89 0 0 1-2.27-.79zM104 242.9a2.19 2.19 0 0 1-.71-.44 2.16 2.16 0 0 1-.48-.72 2.63 2.63 0 0 1-.16-1v-4.87h-1.42v-1.23h1.42v-2.31H104v2.31h2v1.23h-2v4.54a1.6 1.6 0 0 0 .26 1 1.08 1.08 0 0 0 .88.36 1.68 1.68 0 0 0 .89-.27v1.32a1.76 1.76 0 0 1-.49.16 2.76 2.76 0 0 1-.63.05 2.51 2.51 0 0 1-.91-.13zM108.78 242.5a3.84 3.84 0 0 1-1.45-1.54 4.66 4.66 0 0 1-.52-2.22 4.77 4.77 0 0 1 .49-2.17 3.88 3.88 0 0 1 1.38-1.59 3.73 3.73 0 0 1 2.08-.59 3.91 3.91 0 0 1 2.08.54 3.46 3.46 0 0 1 1.35 1.48 4.7 4.7 0 0 1 .47 2.16 1.68 1.68 0 0 1 0 .41h-6.45a3.19 3.19 0 0 0 .45 1.57 2.51 2.51 0 0 0 1 1 2.8 2.8 0 0 0 1.29.32 2.66 2.66 0 0 0 2.42-1.47l1.15.56a4.17 4.17 0 0 1-1.43 1.57 4 4 0 0 1-2.19.57 3.87 3.87 0 0 1-2.12-.6zm4.44-4.64a2.6 2.6 0 0 0-.28-1 2.23 2.23 0 0 0-.81-.87 2.58 2.58 0 0 0-1.39-.35 2.29 2.29 0 0 0-1.62.62 3 3 0 0 0-.87 1.62zM121.56 242.49a4.11 4.11 0 0 1-1.5-1.57 4.6 4.6 0 0 1-.53-2.19 4.67 4.67 0 0 1 .53-2.2 4 4 0 0 1 1.5-1.56 4.31 4.31 0 0 1 4.32 0 4 4 0 0 1 1.5 1.56 4.67 4.67 0 0 1 .53 2.2 4.6 4.6 0 0 1-.53 2.19 4.26 4.26 0 0 1-5.82 1.57zm3.56-1a2.77 2.77 0 0 0 1-1.08 3.32 3.32 0 0 0 .39-1.64 3.35 3.35 0 0 0-.39-1.65 2.77 2.77 0 0 0-2.44-1.46 2.81 2.81 0 0 0-1.41.38 2.73 2.73 0 0 0-1 1.08 3.35 3.35 0 0 0-.39 1.65 3.32 3.32 0 0 0 .39 1.64 2.8 2.8 0 0 0 2.46 1.46 2.66 2.66 0 0 0 1.39-.42zM130.2 235.88h-1.5v-1.23h1.5v-.88a2.58 2.58 0 0 1 .35-1.35 2.46 2.46 0 0 1 .95-.89 2.84 2.84 0 0 1 1.31-.31 3.6 3.6 0 0 1 1.2.19v1.33l-.55-.18a2.15 2.15 0 0 0-.6-.07 1.27 1.27 0 0 0-.92.37 1.42 1.42 0 0 0-.38 1v.74h2.1v1.23h-2.1v6.93h-1.36zM141.25 242.9a2.09 2.09 0 0 1-.71-.44 1.9 1.9 0 0 1-.48-.72 2.63 2.63 0 0 1-.16-1v-4.87h-1.43v-1.23h1.43v-2.31h1.36v2.31h2v1.23h-2v4.54a1.67 1.67 0 0 0 .25 1 1.09 1.09 0 0 0 .88.36 1.68 1.68 0 0 0 .9-.27v1.32a1.87 1.87 0 0 1-.49.16 2.87 2.87 0 0 1-.63.05 2.51 2.51 0 0 1-.92-.13zM145 231.35h1.36v3.38l-.07 1.12h.07a2.59 2.59 0 0 1 1.06-1 3.15 3.15 0 0 1 1.59-.42 2.88 2.88 0 0 1 2.27.87 3.29 3.29 0 0 1 .79 2.31v5.24h-1.36v-5a2.16 2.16 0 0 0-.56-1.63 2 2 0 0 0-1.46-.53 1.94 1.94 0 0 0-1.17.39 2.8 2.8 0 0 0-1.16 2.25v4.55H145zM155.53 242.5a3.91 3.91 0 0 1-1.45-1.54 4.66 4.66 0 0 1-.52-2.22 4.77 4.77 0 0 1 .49-2.17 3.88 3.88 0 0 1 1.38-1.59 3.73 3.73 0 0 1 2.08-.59 3.91 3.91 0 0 1 2.08.54 3.46 3.46 0 0 1 1.35 1.48 4.7 4.7 0 0 1 .48 2.16 1.64 1.64 0 0 1 0 .41h-6.45a3.19 3.19 0 0 0 .45 1.57 2.51 2.51 0 0 0 1 1 2.8 2.8 0 0 0 1.29.32 2.66 2.66 0 0 0 2.42-1.47l1.15.56a4.17 4.17 0 0 1-1.43 1.57 4 4 0 0 1-2.19.57 3.9 3.9 0 0 1-2.13-.6zm4.45-4.64a2.81 2.81 0 0 0-.29-1 2.23 2.23 0 0 0-.81-.87 2.57 2.57 0 0 0-1.38-.35 2.32 2.32 0 0 0-1.63.62 3 3 0 0 0-.87 1.62zM168.93 242.9a2.09 2.09 0 0 1-.71-.44 1.9 1.9 0 0 1-.48-.72 2.63 2.63 0 0 1-.16-1v-4.87h-1.43v-1.23h1.43v-2.31h1.36v2.31h2v1.23h-2v4.54a1.67 1.67 0 0 0 .25 1 1.09 1.09 0 0 0 .88.36 1.68 1.68 0 0 0 .9-.27v1.32a1.87 1.87 0 0 1-.49.16 2.87 2.87 0 0 1-.63.05 2.51 2.51 0 0 1-.92-.13zM172.57 234.65h1.29V236h.07a2.25 2.25 0 0 1 .92-1.12 2.6 2.6 0 0 1 1.44-.45 2.28 2.28 0 0 1 1 .18V236a2.52 2.52 0 0 0-1.15-.25 2 2 0 0 0-1.09.33 2.5 2.5 0 0 0-.79.91 2.59 2.59 0 0 0-.29 1.23v4.57h-1.36zM179.26 242.71a2.58 2.58 0 0 1-1.48-2.37 2.38 2.38 0 0 1 1-2 4 4 0 0 1 2.46-.73 5.42 5.42 0 0 1 1.37.16 3.58 3.58 0 0 1 1 .37v-.5a1.82 1.82 0 0 0-.64-1.46 2.39 2.39 0 0 0-1.62-.55 2.78 2.78 0 0 0-1.26.29 2.28 2.28 0 0 0-.91.83l-1-.77a3.22 3.22 0 0 1 1.32-1.15 4.11 4.11 0 0 1 1.87-.42 3.71 3.71 0 0 1 2.61.87 3.06 3.06 0 0 1 1 2.38v5.17h-1.3v-1.17h-.06a3 3 0 0 1-1.06 1 3.13 3.13 0 0 1-1.58.41 3.55 3.55 0 0 1-1.72-.36zm3-1.2a2.67 2.67 0 0 0 1-.94 2.56 2.56 0 0 0 .35-1.3 3.55 3.55 0 0 0-.94-.42 4.62 4.62 0 0 0-1.19-.16 2.62 2.62 0 0 0-1.69.47 1.47 1.47 0 0 0-.56 1.2 1.34 1.34 0 0 0 .51 1.09 2 2 0 0 0 1.29.41 2.4 2.4 0 0 0 1.23-.35zM187.53 235.88H186v-1.23h1.51v-.88a2.49 2.49 0 0 1 .35-1.35 2.44 2.44 0 0 1 .94-.89 2.92 2.92 0 0 1 1.32-.31 3.58 3.58 0 0 1 1.19.19v1.33l-.54-.18a2.18 2.18 0 0 0-.61-.07 1.26 1.26 0 0 0-.91.37 1.42 1.42 0 0 0-.38 1v.74h3.71v-.88a2.58 2.58 0 0 1 .34-1.35 2.4 2.4 0 0 1 .95-.89 2.92 2.92 0 0 1 1.32-.31 3.87 3.87 0 0 1 1.2.19v1.33c-.22-.08-.41-.15-.57-.19a2.64 2.64 0 0 0-.6-.06 1.25 1.25 0 0 0-.91.37 1.39 1.39 0 0 0-.39 1v.74H199v8.16h-1.34v-6.93h-3.72v6.93h-1.34v-6.93h-3.71v6.93h-1.36zm10.11-2.88a.94.94 0 0 1-.29-.69.91.91 0 0 1 .29-.69.94.94 0 0 1 .69-.28.92.92 0 0 1 .69.28.9.9 0 0 1 .28.69 1 1 0 0 1-1.66.69zM202.63 242.49a3.85 3.85 0 0 1-1.47-1.55 4.6 4.6 0 0 1-.53-2.21 4.68 4.68 0 0 1 .53-2.23 3.85 3.85 0 0 1 1.47-1.55 4.13 4.13 0 0 1 2.13-.56 3.88 3.88 0 0 1 2.24.61 3.38 3.38 0 0 1 1.29 1.64l-1.23.51a2.51 2.51 0 0 0-.91-1.15 2.6 2.6 0 0 0-1.45-.39 2.49 2.49 0 0 0-1.34.39 2.88 2.88 0 0 0-1 1.1 3.62 3.62 0 0 0 0 3.23 2.81 2.81 0 0 0 1 1.1 2.49 2.49 0 0 0 1.34.39 2.65 2.65 0 0 0 1.49-.4 2.39 2.39 0 0 0 .93-1.14l1.22.52a3.67 3.67 0 0 1-1.34 1.63 3.92 3.92 0 0 1-2.23.62 4 4 0 0 1-2.14-.56zM213.62 232.87a1 1 0 0 1 0-1.37 1 1 0 0 1 1.38 0 .94.94 0 0 1 .29.68 1 1 0 0 1-.28.69 1 1 0 0 1-1.39 0zm0 1.78H215v8.16h-1.34zM217.13 234.65h1.29v1.2h.07a2.75 2.75 0 0 1 1.07-1 3.11 3.11 0 0 1 1.57-.42 2.86 2.86 0 0 1 2.24.86 3.31 3.31 0 0 1 .78 2.32v5.24h-1.36v-5a2.2 2.2 0 0 0-.54-1.65 2.11 2.11 0 0 0-1.49-.51 2 2 0 0 0-1.18.37 2.65 2.65 0 0 0-.81 1 2.89 2.89 0 0 0-.28 1.25v4.6h-1.36zM227.92 242.9a2.19 2.19 0 0 1-.71-.44 1.9 1.9 0 0 1-.48-.72 2.63 2.63 0 0 1-.16-1v-4.87h-1.43v-1.23h1.43v-2.31h1.36v2.31h2v1.23h-2v4.54a1.67 1.67 0 0 0 .25 1 1.09 1.09 0 0 0 .88.36 1.68 1.68 0 0 0 .9-.27v1.32a1.76 1.76 0 0 1-.49.16 2.87 2.87 0 0 1-.63.05 2.51 2.51 0 0 1-.92-.13zM232.74 242.5a3.91 3.91 0 0 1-1.45-1.54 4.78 4.78 0 0 1-.52-2.22 4.9 4.9 0 0 1 .49-2.17 4 4 0 0 1 1.39-1.59 3.7 3.7 0 0 1 2.08-.59 3.91 3.91 0 0 1 2.08.54 3.58 3.58 0 0 1 1.35 1.48 4.83 4.83 0 0 1 .47 2.16 1.64 1.64 0 0 1 0 .41h-6.45a3.41 3.41 0 0 0 .45 1.57 2.6 2.6 0 0 0 1 1 2.8 2.8 0 0 0 1.29.32 2.65 2.65 0 0 0 2.41-1.47l1.15.56a4.17 4.17 0 0 1-1.43 1.57 4 4 0 0 1-2.18.57 3.93 3.93 0 0 1-2.13-.6zm4.45-4.64a2.62 2.62 0 0 0-.29-1 2.23 2.23 0 0 0-.81-.87 2.52 2.52 0 0 0-1.38-.35 2.29 2.29 0 0 0-1.62.62 2.93 2.93 0 0 0-.88 1.62zM240.21 234.65h1.3v1.2h.06a2.85 2.85 0 0 1 1.08-1 3.1 3.1 0 0 1 1.56-.42 2.88 2.88 0 0 1 2.25.86 3.31 3.31 0 0 1 .78 2.32v5.24h-1.36v-5a2.16 2.16 0 0 0-.55-1.65 2.06 2.06 0 0 0-1.48-.51 2 2 0 0 0-1.18.37 2.47 2.47 0 0 0-.81 1 2.9 2.9 0 0 0-.29 1.25v4.6h-1.36zM250.67 242.5a3.94 3.94 0 0 1-1.4-1.54 5.13 5.13 0 0 1 0-4.46 3.9 3.9 0 0 1 1.4-1.55 3.65 3.65 0 0 1 2-.56 3.33 3.33 0 0 1 1.68.42 3.25 3.25 0 0 1 1.12 1.05h.06l-.06-1.13v-3.38h1.36v11.46h-1.3v-1.2h-.06a3.2 3.2 0 0 1-1.12 1 3.33 3.33 0 0 1-1.68.42 3.57 3.57 0 0 1-2-.53zm3.47-1.05a2.83 2.83 0 0 0 1-1.09 3.3 3.3 0 0 0 .38-1.63 3.34 3.34 0 0 0-.38-1.64 2.8 2.8 0 0 0-1-1.08 2.43 2.43 0 0 0-1.33-.39 2.45 2.45 0 0 0-1.33.39 2.71 2.71 0 0 0-1 1.09 3.47 3.47 0 0 0-.38 1.63 3.43 3.43 0 0 0 .38 1.62 2.81 2.81 0 0 0 1 1.1 2.53 2.53 0 0 0 1.33.38 2.51 2.51 0 0 0 1.33-.38zM260.28 242.5a3.91 3.91 0 0 1-1.45-1.54 4.66 4.66 0 0 1-.52-2.22 4.77 4.77 0 0 1 .49-2.17 3.88 3.88 0 0 1 1.38-1.59 3.73 3.73 0 0 1 2.08-.59 3.88 3.88 0 0 1 2.08.54 3.46 3.46 0 0 1 1.35 1.48 4.7 4.7 0 0 1 .48 2.16 1.64 1.64 0 0 1-.05.41h-6.45a3.19 3.19 0 0 0 .45 1.57 2.51 2.51 0 0 0 1 1 2.8 2.8 0 0 0 1.29.32 2.66 2.66 0 0 0 2.42-1.47l1.15.56a4.17 4.17 0 0 1-1.43 1.57 4 4 0 0 1-2.19.57 3.92 3.92 0 0 1-2.08-.6zm4.45-4.64a2.62 2.62 0 0 0-.29-1 2.23 2.23 0 0 0-.81-.87 2.57 2.57 0 0 0-1.38-.35 2.32 2.32 0 0 0-1.63.62 3 3 0 0 0-.87 1.62zM269.31 242.5a3.94 3.94 0 0 1-1.4-1.54 5.13 5.13 0 0 1 0-4.46 3.9 3.9 0 0 1 1.4-1.55 3.65 3.65 0 0 1 2-.56 3.33 3.33 0 0 1 1.68.42 3.25 3.25 0 0 1 1.12 1.05h.06l-.06-1.13v-3.38h1.36v11.46h-1.3v-1.2h-.06a3.2 3.2 0 0 1-1.12 1 3.33 3.33 0 0 1-1.68.42 3.57 3.57 0 0 1-2-.53zm3.47-1.05a2.83 2.83 0 0 0 1-1.09 3.41 3.41 0 0 0 .38-1.63 3.45 3.45 0 0 0-.38-1.64 2.8 2.8 0 0 0-1-1.08 2.43 2.43 0 0 0-1.33-.39 2.45 2.45 0 0 0-1.33.39 2.71 2.71 0 0 0-1 1.09 3.47 3.47 0 0 0-.38 1.63 3.43 3.43 0 0 0 .38 1.62 2.81 2.81 0 0 0 1 1.1 2.53 2.53 0 0 0 1.33.38 2.51 2.51 0 0 0 1.33-.38zM281.8 235.88h-1.51v-1.23h1.51v-.88a2.58 2.58 0 0 1 .35-1.35 2.44 2.44 0 0 1 .94-.89 2.92 2.92 0 0 1 1.32-.31 3.68 3.68 0 0 1 1.2.19v1.33l-.55-.18a2.18 2.18 0 0 0-.61-.07 1.26 1.26 0 0 0-.91.37 1.42 1.42 0 0 0-.38 1v.74h2.09v1.23h-2.09v6.93h-1.36zM288 242.49a4 4 0 0 1-1.49-1.57 4.5 4.5 0 0 1-.54-2.19 4.56 4.56 0 0 1 .54-2.2A3.92 3.92 0 0 1 288 235a4.31 4.31 0 0 1 4.32 0 4 4 0 0 1 1.5 1.56 4.56 4.56 0 0 1 .53 2.2 4.49 4.49 0 0 1-.53 2.19 4.26 4.26 0 0 1-5.82 1.57zm3.56-1a2.77 2.77 0 0 0 1-1.08 3.32 3.32 0 0 0 .39-1.64 3.35 3.35 0 0 0-.39-1.65 2.77 2.77 0 0 0-2.44-1.46 2.81 2.81 0 0 0-1.41.38 2.77 2.77 0 0 0-1 1.08 3.25 3.25 0 0 0-.4 1.65 3.22 3.22 0 0 0 .4 1.64 2.77 2.77 0 0 0 1 1.08 2.72 2.72 0 0 0 1.41.38 2.66 2.66 0 0 0 1.46-.42zM295.8 234.65h1.29V236h.07a2.22 2.22 0 0 1 .93-1.12 2.55 2.55 0 0 1 1.44-.45 2.35 2.35 0 0 1 1 .18V236a2.6 2.6 0 0 0-1.16-.25 1.91 1.91 0 0 0-1.08.33 2.52 2.52 0 0 0-.8.91 2.72 2.72 0 0 0-.29 1.23v4.57h-1.4zM307.73 242.9a2.24 2.24 0 0 1-.72-.44 2.16 2.16 0 0 1-.48-.72 2.85 2.85 0 0 1-.16-1v-4.87H305v-1.23h1.42v-2.31h1.36v2.31h2v1.23h-2v4.54a1.66 1.66 0 0 0 .26 1 1.09 1.09 0 0 0 .88.36 1.68 1.68 0 0 0 .9-.27v1.32a1.87 1.87 0 0 1-.49.16 2.87 2.87 0 0 1-.63.05 2.51 2.51 0 0 1-.97-.13zM311.45 231.35h1.36v3.38l-.07 1.12h.07a2.53 2.53 0 0 1 1.06-1 3.15 3.15 0 0 1 1.59-.42 2.9 2.9 0 0 1 2.27.87 3.29 3.29 0 0 1 .79 2.31v5.24h-1.36v-5a2.16 2.16 0 0 0-.56-1.63 2.06 2.06 0 0 0-1.46-.53 2 2 0 0 0-1.14.31 2.71 2.71 0 0 0-.84 1 2.67 2.67 0 0 0-.31 1.26v4.55h-1.36zM322 242.5a3.84 3.84 0 0 1-1.45-1.54 4.66 4.66 0 0 1-.52-2.22 4.77 4.77 0 0 1 .49-2.17 3.88 3.88 0 0 1 1.38-1.59 3.73 3.73 0 0 1 2.08-.59 3.91 3.91 0 0 1 2.08.54 3.46 3.46 0 0 1 1.35 1.48 4.7 4.7 0 0 1 .47 2.16 1.68 1.68 0 0 1 0 .41h-6.48a3.19 3.19 0 0 0 .45 1.57 2.51 2.51 0 0 0 1 1 2.8 2.8 0 0 0 1.29.32 2.66 2.66 0 0 0 2.42-1.47l1.15.56a4.17 4.17 0 0 1-1.43 1.57 4 4 0 0 1-2.19.57 3.87 3.87 0 0 1-2.09-.6zm4.44-4.64a2.6 2.6 0 0 0-.28-1 2.23 2.23 0 0 0-.81-.87 2.58 2.58 0 0 0-1.39-.35 2.29 2.29 0 0 0-1.62.62 3 3 0 0 0-.87 1.62zM333.19 234.65h1.3v1.2h.06a2.75 2.75 0 0 1 1.07-1 3.11 3.11 0 0 1 1.57-.42 2.89 2.89 0 0 1 2.25.86 3.3 3.3 0 0 1 .77 2.32v5.24h-1.36v-5a2.2 2.2 0 0 0-.54-1.65 2.09 2.09 0 0 0-1.49-.51 2 2 0 0 0-1.17.37 2.47 2.47 0 0 0-.81 1 2.9 2.9 0 0 0-.29 1.25v4.6h-1.36zM343.09 242.71a2.59 2.59 0 0 1-1.47-2.37 2.38 2.38 0 0 1 1-2 4 4 0 0 1 2.46-.73 5.42 5.42 0 0 1 1.37.16 3.72 3.72 0 0 1 1 .37v-.5a1.85 1.85 0 0 0-.64-1.46 2.39 2.39 0 0 0-1.62-.55 2.78 2.78 0 0 0-1.26.29 2.31 2.31 0 0 0-.92.83l-1-.77a3.22 3.22 0 0 1 1.32-1.15 4.1 4.1 0 0 1 1.86-.42 3.73 3.73 0 0 1 2.62.87 3.05 3.05 0 0 1 .95 2.38v5.17h-1.36v-1.17h-.07a2.92 2.92 0 0 1-1.05 1 3.14 3.14 0 0 1-1.59.41 3.62 3.62 0 0 1-1.6-.36zm3-1.2a2.57 2.57 0 0 0 .94-.94 2.47 2.47 0 0 0 .36-1.3 3.48 3.48 0 0 0-.95-.42 4.48 4.48 0 0 0-1.18-.16 2.62 2.62 0 0 0-1.69.47 1.48 1.48 0 0 0-.57 1.2 1.32 1.32 0 0 0 .52 1.09 2 2 0 0 0 1.29.41 2.4 2.4 0 0 0 1.29-.35zM350.58 234.65h1.3v1.2h.06a2.79 2.79 0 0 1 1.06-1 2.85 2.85 0 0 1 1.49-.42 2.76 2.76 0 0 1 1.55.43 2.44 2.44 0 0 1 1 1.15 3.39 3.39 0 0 1 1.14-1.15 3.14 3.14 0 0 1 1.66-.43 2.61 2.61 0 0 1 2.12.86 3.53 3.53 0 0 1 .71 2.32v5.24h-1.34v-5a2.43 2.43 0 0 0-.47-1.65 1.77 1.77 0 0 0-1.37-.51 1.9 1.9 0 0 0-1.11.35 2.33 2.33 0 0 0-.77.95 2.89 2.89 0 0 0-.28 1.28v4.61h-1.36v-5a2.47 2.47 0 0 0-.47-1.67 1.74 1.74 0 0 0-1.36-.51 1.83 1.83 0 0 0-1.1.36 2.47 2.47 0 0 0-.78 1 3.11 3.11 0 0 0-.28 1.29v4.58h-1.36zM366.12 242.5a3.91 3.91 0 0 1-1.45-1.54 4.66 4.66 0 0 1-.52-2.22 4.77 4.77 0 0 1 .49-2.17A3.88 3.88 0 0 1 366 235a3.73 3.73 0 0 1 2.08-.59 3.91 3.91 0 0 1 2.08.54 3.46 3.46 0 0 1 1.35 1.48 4.7 4.7 0 0 1 .48 2.16 1.64 1.64 0 0 1-.05.41h-6.45a3.19 3.19 0 0 0 .45 1.57 2.51 2.51 0 0 0 1 1 2.8 2.8 0 0 0 1.29.32 2.66 2.66 0 0 0 2.42-1.47l1.15.56a4.17 4.17 0 0 1-1.43 1.57 4 4 0 0 1-2.19.57 3.9 3.9 0 0 1-2.06-.62zm4.45-4.64a2.81 2.81 0 0 0-.29-1 2.23 2.23 0 0 0-.81-.87 2.57 2.57 0 0 0-1.38-.35 2.32 2.32 0 0 0-1.63.62 3 3 0 0 0-.87 1.62zM374.33 242.45a3.32 3.32 0 0 1-1.25-1.58l1.21-.54a2.45 2.45 0 0 0 .91 1.13 2.3 2.3 0 0 0 1.32.4 2.57 2.57 0 0 0 1.31-.31 1 1 0 0 0 .54-.89 1 1 0 0 0-.43-.82 4 4 0 0 0-1.36-.54l-1-.25a3.63 3.63 0 0 1-1.6-.82 1.91 1.91 0 0 1-.62-1.49 2 2 0 0 1 .42-1.24 2.65 2.65 0 0 1 1.13-.82 4.17 4.17 0 0 1 3.43.17 2.63 2.63 0 0 1 1.19 1.3l-1.18.54a2 2 0 0 0-1.94-1.08 2.13 2.13 0 0 0-1.17.31.91.91 0 0 0-.51.79.9.9 0 0 0 .35.73 2.7 2.7 0 0 0 1.06.45l1.18.31a3.84 3.84 0 0 1 1.81.9 2 2 0 0 1 .61 1.47 2.11 2.11 0 0 1-.43 1.32 2.73 2.73 0 0 1-1.17.87 4.3 4.3 0 0 1-1.63.3 3.7 3.7 0 0 1-2.18-.61zM381.09 234.65h1.3v1.21h.06a3.13 3.13 0 0 1 1.11-1.05 3.38 3.38 0 0 1 1.68-.42 3.7 3.7 0 0 1 2 .56 3.85 3.85 0 0 1 1.41 1.55 5.13 5.13 0 0 1 0 4.46 3.89 3.89 0 0 1-1.41 1.54 3.62 3.62 0 0 1-2 .56 3.38 3.38 0 0 1-1.68-.42 3.08 3.08 0 0 1-1.11-1h-.06l.06 1.12v3.53h-1.36zm5.31 6.8a2.81 2.81 0 0 0 1-1.1 3.31 3.31 0 0 0 .38-1.62 3.35 3.35 0 0 0-.38-1.63 2.71 2.71 0 0 0-1-1.09 2.42 2.42 0 0 0-1.32-.39 2.48 2.48 0 0 0-1.33.39 2.66 2.66 0 0 0-1 1.08 3.45 3.45 0 0 0-.37 1.64 3.41 3.41 0 0 0 .37 1.63 2.68 2.68 0 0 0 1 1.09 2.56 2.56 0 0 0 1.33.38 2.5 2.5 0 0 0 1.32-.38zM391.73 242.71a2.55 2.55 0 0 1-1.47-2.37 2.38 2.38 0 0 1 1-2 4 4 0 0 1 2.46-.73 5.42 5.42 0 0 1 1.37.16 3.72 3.72 0 0 1 1 .37v-.5a1.85 1.85 0 0 0-.64-1.46 2.39 2.39 0 0 0-1.62-.55 2.78 2.78 0 0 0-1.26.29 2.22 2.22 0 0 0-.91.83l-1-.77a3.22 3.22 0 0 1 1.32-1.15 4.1 4.1 0 0 1 1.86-.42 3.73 3.73 0 0 1 2.62.87 3.05 3.05 0 0 1 .95 2.38v5.17H396v-1.17a2.92 2.92 0 0 1-1.05 1 3.14 3.14 0 0 1-1.59.41 3.62 3.62 0 0 1-1.63-.36zm3-1.2a2.65 2.65 0 0 0 .94-.94 2.47 2.47 0 0 0 .36-1.3 3.48 3.48 0 0 0-1-.42 4.54 4.54 0 0 0-1.18-.16 2.62 2.62 0 0 0-1.69.47 1.48 1.48 0 0 0-.57 1.2 1.32 1.32 0 0 0 .52 1.09 2 2 0 0 0 1.29.41 2.4 2.4 0 0 0 1.34-.35zM400.71 242.49a3.85 3.85 0 0 1-1.47-1.55 4.49 4.49 0 0 1-.53-2.21 4.57 4.57 0 0 1 .53-2.23 3.85 3.85 0 0 1 1.47-1.55 4.13 4.13 0 0 1 2.13-.56 3.88 3.88 0 0 1 2.23.62 3.38 3.38 0 0 1 1.29 1.64l-1.24.51a2.43 2.43 0 0 0-.9-1.15 2.6 2.6 0 0 0-1.45-.39 2.46 2.46 0 0 0-1.34.39 2.88 2.88 0 0 0-1 1.1 3.62 3.62 0 0 0 0 3.23 2.81 2.81 0 0 0 1 1.1 2.46 2.46 0 0 0 1.34.39 2.68 2.68 0 0 0 1.49-.4 2.39 2.39 0 0 0 .93-1.14l1.21.52a3.58 3.58 0 0 1-1.33 1.63 3.92 3.92 0 0 1-2.23.62 4 4 0 0 1-2.13-.57zM409.33 242.5a3.91 3.91 0 0 1-1.45-1.54 4.78 4.78 0 0 1-.51-2.22 4.9 4.9 0 0 1 .48-2.17 4 4 0 0 1 1.39-1.59 3.7 3.7 0 0 1 2.08-.59 3.91 3.91 0 0 1 2.08.54 3.58 3.58 0 0 1 1.35 1.48 4.83 4.83 0 0 1 .47 2.16 1.28 1.28 0 0 1-.05.41h-6.45a3.41 3.41 0 0 0 .45 1.57 2.6 2.6 0 0 0 1 1 2.8 2.8 0 0 0 1.29.32 2.65 2.65 0 0 0 2.41-1.47l1.15.56a4.17 4.17 0 0 1-1.43 1.57 4 4 0 0 1-2.18.57 3.93 3.93 0 0 1-2.08-.6zm4.45-4.64a2.62 2.62 0 0 0-.29-1 2.28 2.28 0 0 0-.8-.87 2.58 2.58 0 0 0-1.39-.35 2.29 2.29 0 0 0-1.62.62 2.93 2.93 0 0 0-.88 1.62zM417 236.3a1 1 0 0 1-.29-.73 1 1 0 0 1 1-1 1 1 0 0 1 1 1 1 1 0 0 1-.3.73 1 1 0 0 1-.71.3 1 1 0 0 1-.7-.3zm0 6.21a1 1 0 0 1-.29-.73 1 1 0 0 1 .29-.71 1 1 0 0 1 .73-.3 1 1 0 0 1 .71.3 1 1 0 0 1 .3.71 1 1 0 0 1-.3.73 1 1 0 0 1-.71.3 1 1 0 0 1-.73-.3zM74.23 255.32l1.22-1.65v-.13l-1.8-.61.37-1.07 1.76.63h.1v-1.9H77v1.9h.08l1.78-.63.37 1.07-1.79.61v.13l1.23 1.65-.93.67-1.2-1.65h-.11L75.16 256zM81 261.72a.89.89 0 0 1-.3-.69.91.91 0 0 1 .3-.68 1 1 0 0 1 .73-.28 1 1 0 0 1 .71.28.9.9 0 0 1 .29.68.88.88 0 0 1-.29.69 1 1 0 0 1-.71.29 1 1 0 0 1-.73-.29zM84.65 253.85h1.29v1.2H86a2.69 2.69 0 0 1 1-1 2.87 2.87 0 0 1 1.49-.42 2.77 2.77 0 0 1 1.56.43 2.42 2.42 0 0 1 1 1.15 3.33 3.33 0 0 1 1.16-1.21 3.08 3.08 0 0 1 1.65-.43 2.6 2.6 0 0 1 2.12.86 3.48 3.48 0 0 1 .72 2.32V262h-1.35v-5a2.43 2.43 0 0 0-.46-1.65 1.77 1.77 0 0 0-1.38-.51 1.89 1.89 0 0 0-1.1.35 2.44 2.44 0 0 0-.78 1 2.89 2.89 0 0 0-.28 1.28V262H90v-5a2.47 2.47 0 0 0-.46-1.67 1.74 1.74 0 0 0-1.36-.51 1.84 1.84 0 0 0-1.11.36 2.37 2.37 0 0 0-.77 1 3 3 0 0 0-.28 1.29V262h-1.37zM100.92 261.49l-3.38-7.64H99l2.56 6.06 2.46-6.06h1.47l-5 11.61H99.1zM106.66 256.49h5.08v1.12h-5.08zM113.74 253.85H115v1.2h.07a2.75 2.75 0 0 1 1.07-1 3.11 3.11 0 0 1 1.57-.42 2.86 2.86 0 0 1 2.24.86 3.31 3.31 0 0 1 .78 2.32V262h-1.33v-5a2.2 2.2 0 0 0-.54-1.65 2.11 2.11 0 0 0-1.49-.51 2 2 0 0 0-1.18.37 2.56 2.56 0 0 0-.81 1 2.89 2.89 0 0 0-.28 1.25V262h-1.36zM123.64 261.91a2.55 2.55 0 0 1-1.47-2.37 2.37 2.37 0 0 1 1-2 4 4 0 0 1 2.47-.73 5.48 5.48 0 0 1 1.36.19 3.49 3.49 0 0 1 1 .37v-.5a1.82 1.82 0 0 0-.64-1.46 2.35 2.35 0 0 0-1.61-.55 2.85 2.85 0 0 0-1.27.29 2.35 2.35 0 0 0-.91.83l-1-.77a3.22 3.22 0 0 1 1.32-1.15 4.1 4.1 0 0 1 1.86-.42 3.75 3.75 0 0 1 2.62.87 3.09 3.09 0 0 1 1 2.38V262h-1.3v-1.17h-.06a3 3 0 0 1-1.06 1 3.1 3.1 0 0 1-1.58.41 3.58 3.58 0 0 1-1.73-.33zm3-1.2a2.65 2.65 0 0 0 .94-.94 2.46 2.46 0 0 0 .35-1.3 3.41 3.41 0 0 0-.94-.42 4.54 4.54 0 0 0-1.18-.16 2.62 2.62 0 0 0-1.69.47 1.48 1.48 0 0 0-.57 1.2 1.34 1.34 0 0 0 .51 1.09 2 2 0 0 0 1.3.41 2.42 2.42 0 0 0 1.29-.35zM131.13 253.85h1.29v1.2h.07a2.69 2.69 0 0 1 1-1 2.87 2.87 0 0 1 1.49-.42 2.77 2.77 0 0 1 1.56.43 2.42 2.42 0 0 1 .95 1.15 3.33 3.33 0 0 1 1.15-1.15 3.08 3.08 0 0 1 1.65-.43 2.6 2.6 0 0 1 2.12.86 3.48 3.48 0 0 1 .72 2.32V262h-1.35v-5a2.43 2.43 0 0 0-.46-1.65 1.77 1.77 0 0 0-1.38-.51 1.89 1.89 0 0 0-1.1.35 2.44 2.44 0 0 0-.78 1 2.89 2.89 0 0 0-.28 1.28V262h-1.36v-5a2.47 2.47 0 0 0-.46-1.67 1.76 1.76 0 0 0-1.36-.51 1.84 1.84 0 0 0-1.11.36 2.37 2.37 0 0 0-.77 1 3 3 0 0 0-.28 1.29V262h-1.36zM146.66 261.7a3.82 3.82 0 0 1-1.44-1.54 4.66 4.66 0 0 1-.52-2.22 4.9 4.9 0 0 1 .48-2.17 4 4 0 0 1 1.39-1.59 3.7 3.7 0 0 1 2.08-.59 3.91 3.91 0 0 1 2.08.54 3.58 3.58 0 0 1 1.35 1.48 4.83 4.83 0 0 1 .47 2.16 1.28 1.28 0 0 1-.05.41h-6.44a3.29 3.29 0 0 0 .44 1.57 2.6 2.6 0 0 0 1 1 2.8 2.8 0 0 0 1.29.32 2.65 2.65 0 0 0 2.41-1.47l1.16.56a4.19 4.19 0 0 1-1.44 1.57 4 4 0 0 1-2.18.57 3.93 3.93 0 0 1-2.08-.6zm4.45-4.64a2.62 2.62 0 0 0-.29-1 2.28 2.28 0 0 0-.8-.87 2.58 2.58 0 0 0-1.39-.35 2.29 2.29 0 0 0-1.62.62 2.86 2.86 0 0 0-.87 1.62zM154.87 261.65a3.38 3.38 0 0 1-1.25-1.58l1.22-.54a2.38 2.38 0 0 0 .9 1.13 2.3 2.3 0 0 0 1.32.4 2.6 2.6 0 0 0 1.32-.31 1 1 0 0 0 .11-1.71 4 4 0 0 0-1.36-.54l-1-.25a3.53 3.53 0 0 1-1.6-.82 1.92 1.92 0 0 1-.63-1.49 2 2 0 0 1 .42-1.24 2.8 2.8 0 0 1 1.13-.82 4.19 4.19 0 0 1 3.44.17 2.67 2.67 0 0 1 1.19 1.3l-1.19.54a2 2 0 0 0-1.93-1.08 2.19 2.19 0 0 0-1.18.31.92.92 0 0 0-.5.79.88.88 0 0 0 .35.73 2.64 2.64 0 0 0 1.05.45l1.19.31a3.89 3.89 0 0 1 1.81.9 2 2 0 0 1 .6 1.47 2.11 2.11 0 0 1-.43 1.32 2.62 2.62 0 0 1-1.17.87 4.26 4.26 0 0 1-1.63.3 3.74 3.74 0 0 1-2.18-.61zM161.64 253.85h1.3v1.21h.06a3 3 0 0 1 1.11-1.05 3.34 3.34 0 0 1 1.67-.42 3.71 3.71 0 0 1 2 .56 4 4 0 0 1 1.41 1.55 5.13 5.13 0 0 1 0 4.46 4 4 0 0 1-1.41 1.54 3.63 3.63 0 0 1-2 .56 3.34 3.34 0 0 1-1.67-.42 3 3 0 0 1-1.11-1h-.06l.06 1.12v3.53h-1.36zm5.31 6.8a2.81 2.81 0 0 0 1-1.1 3.43 3.43 0 0 0 .38-1.62 3.47 3.47 0 0 0-.38-1.63 2.71 2.71 0 0 0-1-1.09 2.45 2.45 0 0 0-1.33-.39 2.42 2.42 0 0 0-1.32.39 2.75 2.75 0 0 0-1 1.08 3.57 3.57 0 0 0-.36 1.64 3.53 3.53 0 0 0 .36 1.63 2.78 2.78 0 0 0 1 1.09 2.5 2.5 0 0 0 1.32.38 2.53 2.53 0 0 0 1.38-.38zM172.28 261.91a2.64 2.64 0 0 1-1.09-1 2.56 2.56 0 0 1-.38-1.4 2.37 2.37 0 0 1 1-2 4 4 0 0 1 2.47-.73 5.34 5.34 0 0 1 1.36.16 3.45 3.45 0 0 1 1 .37v-.5a1.82 1.82 0 0 0-.64-1.46 2.35 2.35 0 0 0-1.61-.55 2.85 2.85 0 0 0-1.27.29 2.28 2.28 0 0 0-.91.83l-1-.77a3.22 3.22 0 0 1 1.32-1.15 4.1 4.1 0 0 1 1.86-.42 3.75 3.75 0 0 1 2.62.87 3.09 3.09 0 0 1 .95 2.38V262h-1.3v-1.17h-.06a3 3 0 0 1-1.06 1 3.1 3.1 0 0 1-1.58.41 3.58 3.58 0 0 1-1.68-.33zm3-1.2a2.65 2.65 0 0 0 .94-.94 2.46 2.46 0 0 0 .35-1.3 3.41 3.41 0 0 0-.94-.42 4.56 4.56 0 0 0-1.19-.16 2.61 2.61 0 0 0-1.68.47 1.48 1.48 0 0 0-.57 1.2 1.34 1.34 0 0 0 .51 1.09 2 2 0 0 0 1.3.41 2.42 2.42 0 0 0 1.29-.35zM181.25 261.69a3.85 3.85 0 0 1-1.47-1.55 4.6 4.6 0 0 1-.53-2.21 4.68 4.68 0 0 1 .53-2.23 3.85 3.85 0 0 1 1.47-1.55 4.13 4.13 0 0 1 2.13-.56 3.86 3.86 0 0 1 2.23.62 3.27 3.27 0 0 1 1.29 1.64l-1.23.51a2.43 2.43 0 0 0-.9-1.15 2.62 2.62 0 0 0-1.45-.39 2.52 2.52 0 0 0-1.35.39 3 3 0 0 0-1 1.1 3.71 3.71 0 0 0 0 3.23 3 3 0 0 0 1 1.1 2.52 2.52 0 0 0 1.35.39 2.7 2.7 0 0 0 1.49-.4 2.43 2.43 0 0 0 .92-1.14l1.27.51a3.6 3.6 0 0 1-1.34 1.63 3.9 3.9 0 0 1-2.23.62 4 4 0 0 1-2.18-.56zM189.88 261.7a3.91 3.91 0 0 1-1.45-1.54 4.66 4.66 0 0 1-.52-2.22 4.77 4.77 0 0 1 .49-2.17 4 4 0 0 1 1.38-1.59 3.73 3.73 0 0 1 2.08-.59 3.88 3.88 0 0 1 2.08.54 3.46 3.46 0 0 1 1.35 1.48 4.7 4.7 0 0 1 .48 2.16 1.64 1.64 0 0 1-.05.41h-6.45a3.19 3.19 0 0 0 .45 1.57 2.58 2.58 0 0 0 1 1 2.86 2.86 0 0 0 1.28.25 2.66 2.66 0 0 0 2.42-1.47l1.15.56a4.17 4.17 0 0 1-1.43 1.57 4 4 0 0 1-2.18.57 3.93 3.93 0 0 1-2.08-.53zm4.45-4.64a2.62 2.62 0 0 0-.29-1 2.23 2.23 0 0 0-.81-.87 2.57 2.57 0 0 0-1.38-.35 2.33 2.33 0 0 0-1.63.62 3 3 0 0 0-.87 1.62zM197.52 261.72a.89.89 0 0 1-.3-.69.91.91 0 0 1 .3-.68 1 1 0 0 1 .73-.28 1 1 0 0 1 .71.28.9.9 0 0 1 .29.68.88.88 0 0 1-.29.69 1 1 0 0 1-.71.29 1 1 0 0 1-.73-.29zM201.81 261.65a3.36 3.36 0 0 1-1.24-1.58l1.21-.54a2.39 2.39 0 0 0 .91 1.13 2.3 2.3 0 0 0 1.32.4 2.57 2.57 0 0 0 1.31-.31 1 1 0 0 0 .54-.89 1 1 0 0 0-.43-.82 4 4 0 0 0-1.36-.54l-1-.25a3.58 3.58 0 0 1-1.6-.82 1.92 1.92 0 0 1-.63-1.49 2 2 0 0 1 .43-1.24 2.74 2.74 0 0 1 1.13-.82 4.17 4.17 0 0 1 3.43.17 2.63 2.63 0 0 1 1.19 1.3l-1.18.54a2 2 0 0 0-1.94-1.08 2.19 2.19 0 0 0-1.18.31.92.92 0 0 0-.5.79.9.9 0 0 0 .35.73 2.7 2.7 0 0 0 1.06.45l1.18.31a3.84 3.84 0 0 1 1.81.9 2 2 0 0 1 .61 1.47 2.17 2.17 0 0 1-.43 1.32 2.73 2.73 0 0 1-1.17.87 4.3 4.3 0 0 1-1.63.3 3.75 3.75 0 0 1-2.19-.61zM207.83 253.85h1.46l2.52 6.56 2.56-6.56h1.42L212.5 262h-1.37zM218.28 261.69a3.85 3.85 0 0 1-1.47-1.55 4.49 4.49 0 0 1-.53-2.21 4.57 4.57 0 0 1 .53-2.23 3.85 3.85 0 0 1 1.47-1.55 4.13 4.13 0 0 1 2.13-.56 3.88 3.88 0 0 1 2.23.62 3.38 3.38 0 0 1 1.29 1.64l-1.24.51a2.43 2.43 0 0 0-.9-1.15 2.6 2.6 0 0 0-1.45-.39 2.46 2.46 0 0 0-1.34.39 2.88 2.88 0 0 0-1 1.1 3.62 3.62 0 0 0 0 3.23 2.81 2.81 0 0 0 1 1.1 2.46 2.46 0 0 0 1.34.39 2.68 2.68 0 0 0 1.49-.4 2.39 2.39 0 0 0 .93-1.14l1.24.51a3.58 3.58 0 0 1-1.33 1.63 4 4 0 0 1-2.23.62 4 4 0 0 1-2.16-.56zM225.61 261.72a.91.91 0 0 1-.29-.69.94.94 0 0 1 .29-.68 1 1 0 0 1 .73-.28 1 1 0 0 1 .71.28.91.91 0 0 1 .3.68.89.89 0 0 1-.3.69 1 1 0 0 1-.71.29 1 1 0 0 1-.73-.29zM230.82 261.69a3.85 3.85 0 0 1-1.47-1.55 4.6 4.6 0 0 1-.53-2.21 4.68 4.68 0 0 1 .53-2.23 3.85 3.85 0 0 1 1.47-1.55 4.13 4.13 0 0 1 2.13-.56 3.86 3.86 0 0 1 2.23.62 3.38 3.38 0 0 1 1.29 1.64l-1.23.51a2.45 2.45 0 0 0-.91-1.15 2.58 2.58 0 0 0-1.44-.39 2.52 2.52 0 0 0-1.35.39 3 3 0 0 0-1 1.1 3.71 3.71 0 0 0 0 3.23 2.88 2.88 0 0 0 1 1.1 2.52 2.52 0 0 0 1.35.39 2.64 2.64 0 0 0 1.48-.4 2.39 2.39 0 0 0 .93-1.14l1.22.52a3.6 3.6 0 0 1-1.34 1.63 3.92 3.92 0 0 1-2.23.62 4 4 0 0 1-2.13-.57zM238 250.55h1.36V262H238zM242.08 261.4a3.49 3.49 0 0 1-.78-2.42v-5.13h1.36v4.92a2.43 2.43 0 0 0 .53 1.72 1.9 1.9 0 0 0 1.42.54 2.1 2.1 0 0 0 1.23-.37 2.42 2.42 0 0 0 .83-1 2.71 2.71 0 0 0 .3-1.25v-4.6h1.36V262H247v-1.19a2.76 2.76 0 0 1-1.08 1 3.19 3.19 0 0 1-1.56.41 2.88 2.88 0 0 1-2.28-.82zM250.92 261.65a3.38 3.38 0 0 1-1.25-1.58l1.22-.54a2.38 2.38 0 0 0 .9 1.13 2.3 2.3 0 0 0 1.32.4 2.57 2.57 0 0 0 1.31-.31 1 1 0 0 0 .55-.89 1 1 0 0 0-.44-.82 3.88 3.88 0 0 0-1.36-.54l-1-.25a3.63 3.63 0 0 1-1.6-.82 2.07 2.07 0 0 1-.2-2.73 2.74 2.74 0 0 1 1.13-.82 4.17 4.17 0 0 1 3.43.17 2.63 2.63 0 0 1 1.19 1.3l-1.18.54a2 2 0 0 0-1.94-1.08 2.15 2.15 0 0 0-1.17.31.91.91 0 0 0-.51.79.89.89 0 0 0 .36.73 2.58 2.58 0 0 0 1.05.45l1.19.31a3.8 3.8 0 0 1 1.8.9 2 2 0 0 1 .61 1.47 2.11 2.11 0 0 1-.43 1.32 2.73 2.73 0 0 1-1.17.87 4.26 4.26 0 0 1-1.63.3 3.72 3.72 0 0 1-2.18-.61zM260 262.1a2.24 2.24 0 0 1-.72-.44 2.16 2.16 0 0 1-.48-.72 2.85 2.85 0 0 1-.16-1v-4.87h-1.42v-1.23h1.42v-2.31H260v2.31h2v1.23h-2v4.54a1.66 1.66 0 0 0 .26 1 1.09 1.09 0 0 0 .88.36 1.68 1.68 0 0 0 .9-.27v1.32a1.87 1.87 0 0 1-.49.16 2.87 2.87 0 0 1-.63.05 2.51 2.51 0 0 1-.92-.13zM264.79 261.7a3.91 3.91 0 0 1-1.45-1.54 5 5 0 0 1 0-4.39 4 4 0 0 1 1.38-1.59 3.73 3.73 0 0 1 2.08-.59 3.88 3.88 0 0 1 2.08.54 3.54 3.54 0 0 1 1.36 1.48 4.83 4.83 0 0 1 .47 2.16 1.64 1.64 0 0 1-.05.41h-6.45a3.19 3.19 0 0 0 .45 1.57 2.6 2.6 0 0 0 1 1 2.79 2.79 0 0 0 1.28.32 2.66 2.66 0 0 0 2.42-1.47l1.15.56a4.17 4.17 0 0 1-1.43 1.57 4 4 0 0 1-2.18.57 3.93 3.93 0 0 1-2.11-.6zm4.45-4.64a2.62 2.62 0 0 0-.29-1 2.23 2.23 0 0 0-.81-.87 2.57 2.57 0 0 0-1.38-.35 2.33 2.33 0 0 0-1.63.62 3 3 0 0 0-.87 1.62zM272.26 253.85h1.3v1.31h.06a2.22 2.22 0 0 1 .93-1.12 2.6 2.6 0 0 1 1.44-.45 2.35 2.35 0 0 1 1 .18v1.45a2.55 2.55 0 0 0-1.15-.25 1.92 1.92 0 0 0-1.09.33 2.5 2.5 0 0 0-.79.91 2.6 2.6 0 0 0-.3 1.23V262h-1.36zM277 261.72a.89.89 0 0 1-.3-.69.91.91 0 0 1 .3-.68 1 1 0 0 1 .73-.28 1 1 0 0 1 .71.28.91.91 0 0 1 .3.68.89.89 0 0 1-.3.69 1 1 0 0 1-.71.29 1 1 0 0 1-.73-.29zM280.63 250.55H282V262h-1.36zM285.53 261.69a4.11 4.11 0 0 1-1.5-1.57 4.5 4.5 0 0 1-.54-2.19 4.56 4.56 0 0 1 .54-2.2 4 4 0 0 1 1.5-1.56 4.31 4.31 0 0 1 4.32 0 4 4 0 0 1 1.49 1.56 4.56 4.56 0 0 1 .54 2.2 4.5 4.5 0 0 1-.54 2.19 4.09 4.09 0 0 1-1.49 1.57 4.38 4.38 0 0 1-4.32 0zm3.56-1a2.85 2.85 0 0 0 1-1.08 3.32 3.32 0 0 0 .39-1.64 3.35 3.35 0 0 0-.39-1.65 2.85 2.85 0 0 0-1-1.08 2.79 2.79 0 0 0-2.81 0 2.73 2.73 0 0 0-1 1.08 3.35 3.35 0 0 0-.39 1.65 3.32 3.32 0 0 0 .39 1.64 2.73 2.73 0 0 0 1 1.08 2.79 2.79 0 0 0 2.81 0zM295 261.69a3.85 3.85 0 0 1-1.47-1.55 4.6 4.6 0 0 1-.53-2.21 4.68 4.68 0 0 1 .53-2.23 3.85 3.85 0 0 1 1.47-1.55 4.13 4.13 0 0 1 2.13-.56 3.88 3.88 0 0 1 2.23.62 3.38 3.38 0 0 1 1.29 1.64l-1.23.51a2.51 2.51 0 0 0-.91-1.15 2.6 2.6 0 0 0-1.45-.39 2.49 2.49 0 0 0-1.34.39 2.88 2.88 0 0 0-1 1.1 3.62 3.62 0 0 0 0 3.23 2.81 2.81 0 0 0 1 1.1 2.49 2.49 0 0 0 1.34.39 2.65 2.65 0 0 0 1.49-.4 2.39 2.39 0 0 0 .93-1.14l1.22.52a3.67 3.67 0 0 1-1.34 1.63 3.92 3.92 0 0 1-2.23.62 4 4 0 0 1-2.13-.57zM303.13 261.91a2.58 2.58 0 0 1-1.48-2.37 2.38 2.38 0 0 1 1-2 4 4 0 0 1 2.46-.73 5.42 5.42 0 0 1 1.37.16 3.58 3.58 0 0 1 1 .37v-.5a1.82 1.82 0 0 0-.64-1.46 2.39 2.39 0 0 0-1.62-.55 2.78 2.78 0 0 0-1.26.29 2.28 2.28 0 0 0-.91.83l-1-.77a3.22 3.22 0 0 1 1.32-1.15 4.11 4.11 0 0 1 1.87-.42 3.71 3.71 0 0 1 2.61.87 3.06 3.06 0 0 1 1 2.38V262h-1.3v-1.17h-.06a3 3 0 0 1-1.06 1 3.13 3.13 0 0 1-1.58.41 3.58 3.58 0 0 1-1.72-.33zm3-1.2a2.67 2.67 0 0 0 .95-.94 2.56 2.56 0 0 0 .35-1.3 3.55 3.55 0 0 0-.94-.42 4.62 4.62 0 0 0-1.19-.16 2.62 2.62 0 0 0-1.69.47 1.5 1.5 0 0 0-.56 1.2 1.34 1.34 0 0 0 .51 1.09 2 2 0 0 0 1.29.41 2.4 2.4 0 0 0 1.28-.35zM310.61 250.55H312V262h-1.36z"/><rect class="bad3a63f-0880-48aa-87f1-1a256a8aaa50" x="306.25" y="35.86" width="197.65" height="72" rx="3"/><rect class="a0dcd967-e9da-4876-ac34-7d18e31cc02e" x="314.9" y="44.86" width="54" height="54" rx="3"/><path class="b912d0a6-7cfa-48c2-9040-b2653505903f" d="M355.16 79.51v-15.3l-13.26-7.65-13.26 7.65v15.3l13.26 7.65 13.26-7.65z"/><rect class="a0dcd967-e9da-4876-ac34-7d18e31cc02e" x="377.9" y="44.86" width="117" height="54" rx="3"/><text class="a4e27159-67b2-4a0f-aba3-2cd8fb129728" transform="translate(443.24 76.7)">s<tspan class="be3d2ab8-7bee-47f4-a054-2209ff75ab27" x="6.62" y="0">v</tspan><tspan class="adfd0160-1fd8-49d0-8868-b2bd0ad02bf4" x="13.61" y="0">c</tspan><tspan x="21.25" y="0" letter-spacing="-.03em">-</tspan><tspan x="27.01" y="0">1</tspan></text><circle class="b7442e92-e4e5-4b90-9e7c-12d8b3cf200d" cx="404.9" cy="71.86" r="18"/><path class="ebe61ced-2ee0-4be4-a5db-6b2971cab686" d="M398.51 65.34h12.79v12.79h-12.79z"/><path class="a0e62f79-6c36-4f8f-ac34-59b865f124a4" d="M400.87 65.34v-3.07M404.9 65.34v-3.07M408.93 65.34v-3.07M400.87 81.45v-3.08M404.9 81.45v-3.08M408.93 81.45v-3.08M398.39 75.88h-3.08M398.39 71.86h-3.08M398.39 67.83h-3.08M414.49 75.88h-3.08M414.49 71.86h-3.08M414.49 67.83h-3.08"/><rect class="a0dcd967-e9da-4876-ac34-7d18e31cc02e" x="402.06" y="68.9" width="5.68" height="5.68" rx="2"/><rect class="bad3a63f-0880-48aa-87f1-1a256a8aaa50" x="306.25" y="116.86" width="197.65" height="72" rx="3"/><rect class="a0dcd967-e9da-4876-ac34-7d18e31cc02e" x="314.9" y="125.86" width="54" height="54" rx="3"/><path class="b912d0a6-7cfa-48c2-9040-b2653505903f" d="M355.16 160.51v-15.3l-13.26-7.65-13.26 7.65v15.3l13.26 7.65 13.26-7.65z"/><rect class="a0dcd967-e9da-4876-ac34-7d18e31cc02e" x="377.9" y="125.86" width="117" height="54" rx="3"/><text class="a4e27159-67b2-4a0f-aba3-2cd8fb129728" transform="translate(442.01 157.7)">s<tspan class="be3d2ab8-7bee-47f4-a054-2209ff75ab27" x="6.62" y="0">v</tspan><tspan class="adfd0160-1fd8-49d0-8868-b2bd0ad02bf4" x="13.61" y="0">c-2</tspan></text><circle class="b7442e92-e4e5-4b90-9e7c-12d8b3cf200d" cx="404.9" cy="152.86" r="18"/><path class="ebe61ced-2ee0-4be4-a5db-6b2971cab686" d="M398.51 146.34h12.79v12.79h-12.79z"/><path class="a0e62f79-6c36-4f8f-ac34-59b865f124a4" d="M400.87 146.34v-3.07M404.9 146.34v-3.07M408.93 146.34v-3.07M400.87 162.45v-3.08M404.9 162.45v-3.08M408.93 162.45v-3.08M398.39 156.88h-3.08M398.39 152.86h-3.08M398.39 148.83h-3.08M414.49 156.88h-3.08M414.49 152.86h-3.08M414.49 148.83h-3.08"/><rect class="a0dcd967-e9da-4876-ac34-7d18e31cc02e" x="402.06" y="149.9" width="5.68" height="5.68" rx="2"/><rect x="80.11" y="65.09" width="123.25" height="75.44" rx="3" fill="#e5e5e4"/><rect class="a0dcd967-e9da-4876-ac34-7d18e31cc02e" x="88.92" y="108.52" width="105.64" height="26.41" rx="3"/><text class="a4e27159-67b2-4a0f-aba3-2cd8fb129728" transform="translate(92.43 125.87)"><tspan letter-spacing="-.01em">m</tspan><tspan class="adfd0160-1fd8-49d0-8868-b2bd0ad02bf4" x="12.05" y="0">y-</tspan><tspan x="25.45" y="0" letter-spacing="0">n</tspan><tspan x="33.24" y="0">am</tspan><tspan x="52.92" y="0" letter-spacing="0">e</tspan><tspan class="a8dc0a6c-e2a7-42bd-bc22-6477388f0f96" x="60.87" y="0">s</tspan><tspan x="67.42" y="0">p</tspan><tspan class="a8dc0a6c-e2a7-42bd-bc22-6477388f0f96" x="75.8" y="0">ac</tspan><tspan x="90.73" y="0">e</tspan></text><path id="a15fe294-8def-4f81-9ef0-b1a3777ad58a" data-name="background" fill="#486baf" d="M127.52 65.09h28.44v28.44h-28.44z"/><path id="a16ce750-4ebc-4dd7-a869-d4a69f431f4d" data-name="hull" class="a0dcd967-e9da-4876-ac34-7d18e31cc02e" d="M133.14 88.98h17.2l-10.75 3.23-6.45-3.23z"/><path id="e4e333e0-3ac7-4ea4-898b-b81de01bfa98" data-name="mainsail" class="a0dcd967-e9da-4876-ac34-7d18e31cc02e" d="M133.14 87.91l6.45-1.08V75.01l-6.45 12.9z"/><path id="bdff5e24-9f9e-4699-8c3b-fce59925d92c" data-name="headsail" class="a0dcd967-e9da-4876-ac34-7d18e31cc02e" d="M140.66 86.83l9.68 1.08-9.68-21.5v20.42z"/><path class="b02271a4-84cc-4822-ac2b-11ba428f9868" d="M193 102.81v-3"/><path stroke-dasharray="4.91 9.82" stroke="#486baf" stroke-width="4" stroke-linecap="round" stroke-linejoin="round" fill="none" d="M193 89.99v-9.81"/><path class="b02271a4-84cc-4822-ac2b-11ba428f9868" d="M193 75.27v-3l3-.01"/><path stroke-dasharray="5.8 11.6" stroke="#486baf" stroke-width="4" stroke-linecap="round" stroke-linejoin="round" fill="none" d="M207.6 72.22l98.6-.33"/><path class="b02271a4-84cc-4822-ac2b-11ba428f9868" d="M312 71.87l3-.01"/><path class="e11ad8de-e2c0-4a13-8d08-97e0c321ab95" d="M49 102.81h3"/><path class="f740990e-eb26-4ea3-87b3-52b5d23b17fb" d="M64 102.81h120"/><path class="e11ad8de-e2c0-4a13-8d08-97e0c321ab95" d="M190 102.81h3"/><path class="bf1a380c-7a96-43c8-9549-809a8d32c1c1" d="M193 103.27h3"/><path stroke-dasharray="5.71 11.43" stroke-width="4" stroke-linecap="round" stroke="#29abe2" stroke-linejoin="round" fill="none" d="M207.43 103.27h62.86"/><path class="bf1a380c-7a96-43c8-9549-809a8d32c1c1" d="M276 103.27h3v3"/><path stroke-dasharray="5.45 10.9" stroke-width="4" stroke-linecap="round" stroke="#29abe2" stroke-linejoin="round" fill="none" d="M279 117.17v27.24"/><path class="bf1a380c-7a96-43c8-9549-809a8d32c1c1" d="M279 149.86v3h3"/><path class="f47696f6-516e-4dfd-9bfe-28753017189e" d="M294 152.86h12"/><path class="bf1a380c-7a96-43c8-9549-809a8d32c1c1" d="M312 152.86h3"/></g></svg>