<?xml version="1.0" encoding="utf-8"?>
<!-- Generator: Adobe Illustrator 28.0.0, SVG Export Plug-In . SVG Version: 6.00 Build 0)  -->
<svg version="1.0" id="katman_1" xmlns="http://www.w3.org/2000/svg" xmlns:xlink="http://www.w3.org/1999/xlink" x="0px" y="0px"
	 viewBox="0 0 841.89 595.28" style="enable-background:new 0 0 841.89 595.28;" xml:space="preserve">
<style type="text/css">
	.st0{fill:#2A4B9B;}
</style>
<g>
	<path class="st0" d="M441.29,362.02c23.3,0,39.34-15.54,39.34-37.74c0-22.2-16.04-37.75-39.34-37.75
		c-23.3,0-39.34,15.54-39.34,37.75C401.96,346.48,418,362.02,441.29,362.02z M441.29,223.25c82.43,0,113.94,53.66,113.94,101.02
		c0,51.81-36.27,101.02-113.2,101.02c-82.43,0-114.67-53.29-114.67-101.02C327.36,273.95,361.43,223.25,441.29,223.25z"/>
	<path class="st0" d="M570.36,169.52h74.52V421.9h-74.52V169.52z"/>
	<path class="st0" d="M747.33,379.83c0-25.11-20.35-45.46-45.46-45.46s-45.47,20.36-45.47,45.46c0,25.11,20.36,45.46,45.47,45.46
		S747.33,404.94,747.33,379.83z"/>
	<path class="st0" d="M169.16,359.28c10.01,1.87,21.14,2.67,28.56,2.67c27.07,0,44.87-14.9,44.87-37.75
		c0-22.47-17.43-37.74-42.64-37.74c-9.27,0-20.4,1.28-30.79,4.65V359.28z M94.64,169.52h74.52v61.8
		c14.65-5.55,29.78-8.14,45.54-8.14c58.62,0,101.11,42.93,101.11,101.76c0,44.41-30.41,96.95-99.65,96.95H94.64V169.52z"/>
</g>
</svg>
