<svg xmlns="http://www.w3.org/2000/svg" xml:space="preserve" width="432" height="432"><style>.st1{fill:#31006f}</style><g class="layer"><g id="svg_2"><g id="svg_3"><path id="svg_4" d="M270.16 250.56c-10.9 0-19.69 8.87-19.69 19.77v39.46c0 10.9 8.87 19.77 19.69 19.77 4.14 0 7.94-1.27 11.07-3.38l-18.42-18.42 13.94-13.94 13.1 13.1v-36.5a19.644 19.644 0 0 0-19.69-19.86z" class="st1"/><path id="svg_5" d="M161.76 102.53h-19.77v78.91h19.77c10.9 0 19.77-8.87 19.77-19.77v-39.46c-.08-10.81-8.87-19.69-19.77-19.69z" class="st1"/><path id="svg_6" d="M33.5 33.5v365h365v-365h-365zm167.71 217.06h-29.57v78.91h29.57v19.77H122.3v-19.77h29.57v-78.91H122.3v-19.77h78.91v19.77zm0-88.8c0 21.8-17.66 39.46-39.46 39.46h-39.46V82.85h39.46c21.8 0 39.46 17.66 39.46 39.46v39.46zm29.57 4.9c0-19.09 15.46-34.56 34.56-34.56h9.89c8.2 0 14.79-6.59 14.79-14.79s-6.59-14.79-14.79-14.79h-44.36V82.83h44.36c19.09 0 34.56 15.46 34.56 34.56 0 19.09-15.46 34.56-34.56 34.56h-9.89c-8.2 0-14.79 6.59-14.79 14.79v14.79h59.06v19.77H230.7l.08-34.64zm79.42 188.33-14.87-14.87c-6.84 5.66-15.63 9.04-25.18 9.04-21.8 0-39.46-17.66-39.46-39.46v-39.46c0-21.8 17.66-39.46 39.46-39.46s39.46 17.66 39.46 39.46v39.46c0 4.98-.93 9.8-2.62 14.19l17.15 17.15-13.94 13.94z" class="st1"/></g></g></g></svg>