<svg xmlns="http://www.w3.org/2000/svg" xmlns:xlink="http://www.w3.org/1999/xlink" width="432" height="98" version="1.1" viewBox="0 0 432 98"><title>HelloFresh_RGB_2C_Horizontal</title><desc>Created with Sketch.</desc><defs><polygon id="path-1" points="129.196 98 0 98 0 .31 129.196 .31 258.393 .31 258.393 98"/></defs><g id="Page-1" fill="none" fill-rule="evenodd" stroke="none" stroke-width="1"><g id="HelloFresh_RGB_2C_Horizontal"><path id="Fill-1" fill="#91C11E" d="M288.637,15.793 L265.373,15.793 C264.139,15.793 263.17,16.748 263.17,17.962 L263.17,76.284 C263.17,77.499 264.139,78.454 265.373,78.454 L271.541,78.454 C272.774,78.454 273.745,77.499 273.745,76.284 L273.745,51.723 C273.745,51.289 274.185,50.855 274.626,50.855 L284.319,50.855 C285.553,50.855 286.523,49.9 286.523,48.686 L286.523,44.085 C286.523,42.871 285.553,41.916 284.319,41.916 L274.626,41.916 C274.185,41.916 273.745,41.482 273.745,41.048 L273.745,25.686 C273.745,25.253 274.185,24.819 274.626,24.819 L288.637,24.819 C289.871,24.819 290.841,23.864 290.841,22.648 L290.841,17.962 C290.841,16.748 289.871,15.793 288.637,15.793"/><path id="Fill-2" fill="#91C11E" d="M310.558,44.085 L307.299,44.085 C306.857,44.085 306.417,43.652 306.417,43.217 L306.417,25.339 C306.417,24.905 306.857,24.471 307.299,24.471 L310.558,24.471 C315.318,24.471 316.728,26.641 316.728,34.279 C316.728,41.916 315.318,44.085 310.558,44.085 Z M319.724,51.81 C319.547,51.289 319.812,50.768 320.252,50.594 C325.099,48.077 327.126,44.346 327.126,34.538 C327.126,23.864 324.659,15.793 312.322,15.793 L298.045,15.793 C296.812,15.793 295.843,16.748 295.843,17.962 L295.843,76.284 C295.843,77.499 296.812,78.454 298.045,78.454 L304.215,78.454 C305.449,78.454 306.417,77.499 306.417,76.284 L306.417,53.285 C306.417,52.851 306.857,52.418 307.299,52.418 L309.325,52.418 C309.855,52.418 310.295,52.764 310.472,53.285 L316.816,76.371 C317.168,77.586 318.314,78.454 319.636,78.454 L325.54,78.454 C326.686,78.454 327.391,77.412 327.126,76.371 L319.724,51.81 L319.724,51.81 Z"/><path id="Fill-3" fill="#91C11E" d="M358.027,69.168 L343.663,69.168 C343.223,69.168 342.781,68.733 342.781,68.3 L342.781,51.289 C342.781,50.855 343.223,50.421 343.663,50.421 L352.915,50.421 C354.149,50.421 355.119,49.467 355.119,48.251 L355.119,43.826 C355.119,42.61 354.149,41.655 352.915,41.655 L343.663,41.655 C343.223,41.655 342.781,41.222 342.781,40.787 L342.781,25.773 C342.781,25.339 343.223,24.905 343.663,24.905 L357.321,24.905 C358.555,24.905 359.525,23.951 359.525,22.735 L359.525,17.962 C359.525,16.748 358.555,15.793 357.321,15.793 L334.497,15.793 C333.264,15.793 332.295,16.748 332.295,17.962 L332.295,76.284 C332.295,77.499 333.264,78.454 334.497,78.454 L358.027,78.454 C359.26,78.454 360.229,77.499 360.229,76.284 L360.229,71.337 C360.229,70.121 359.26,69.168 358.027,69.168"/><path id="Fill-4" fill="#91C11E" d="M383.695,43.304 C378.142,37.923 374.441,34.366 374.441,29.505 C374.441,26.294 376.028,23.69 379.552,23.69 C382.901,23.69 384.663,25.947 384.663,32.282 L384.663,34.105 C384.663,34.973 385.457,35.754 386.337,35.754 L392.506,35.754 C393.563,35.754 394.444,34.886 394.444,33.844 L394.444,31.762 C394.444,20.046 388.804,14.751 379.552,14.751 C368.801,14.751 364.308,21.954 364.308,29.939 C364.308,38.878 370.035,44.607 375.323,49.64 C380.698,54.674 385.104,58.579 385.104,64.394 C385.104,69.081 382.284,70.382 379.464,70.382 C375.323,70.382 373.649,67.606 373.649,62.745 L373.649,59.186 C373.649,57.972 372.679,57.017 371.445,57.017 L366.07,57.017 C364.837,57.017 363.867,57.972 363.867,59.186 L363.867,63.526 C363.867,72.812 369.86,79.496 379.552,79.496 C388.804,79.496 395.237,73.333 395.237,63.613 C395.237,55.022 390.214,49.64 383.695,43.304"/><path id="Fill-5" fill="#91C11E" d="M429.796,15.793 L423.716,15.793 C422.483,15.793 421.512,16.748 421.512,17.962 L421.512,41.309 C421.512,41.742 421.072,42.177 420.632,42.177 L411.203,42.177 C410.763,42.177 410.321,41.742 410.321,41.309 L410.321,17.962 C410.321,16.748 409.352,15.793 408.119,15.793 L402.038,15.793 C400.804,15.793 399.835,16.748 399.835,17.962 L399.835,76.284 C399.835,77.499 400.804,78.454 402.038,78.454 L408.119,78.454 C409.352,78.454 410.321,77.499 410.321,76.284 L410.321,52.244 C410.321,51.81 410.763,51.376 411.203,51.376 L420.632,51.376 C421.072,51.376 421.512,51.81 421.512,52.244 L421.512,76.284 C421.512,77.499 422.483,78.454 423.716,78.454 L429.796,78.454 C431.03,78.454 432,77.499 432,76.284 L432,17.962 C432,16.748 431.03,15.793 429.796,15.793"/><g id="Group-10"><mask id="mask-2" fill="#fff"><use xlink:href="#path-1"/></mask><path id="Fill-6" fill="#91C11E" d="M245.546,69.158 C244.866,70.368 244.174,71.196 243.429,71.692 C243.103,71.91 242.46,72.144 241.823,72.144 C241.227,72.144 240.768,71.96 240.418,71.582 C235.116,65.847 235.066,43.9 240.332,34.889 C242.108,31.852 244.407,31.524 245.313,31.524 C245.453,31.524 245.589,31.531 245.721,31.545 C247.097,31.685 248.213,33.693 248.522,34.305 C252.553,42.311 250.225,61.029 245.546,69.158 Z M210.009,42.583 C210.032,23.398 213.072,13.031 215.384,10.618 C215.652,10.337 215.904,10.182 216.093,10.182 C216.659,10.182 217.523,11.78 217.588,16.188 C217.588,16.188 217.6,16.61 217.6,16.718 C217.6,22.695 216.859,28.844 215.5,35.017 C213.866,42.432 210.878,48.666 210.264,49.904 C210.101,47.53 210.015,45.064 210.009,42.583 Z M187.92,12.027 C188.25,11.686 188.555,11.507 188.803,11.507 C188.864,11.507 189.054,11.507 189.3,11.781 C190.191,12.772 191.116,16.204 190.191,22.751 C187.638,40.822 182.521,48.624 182.521,48.624 C181.928,27.918 184.896,15.144 187.92,12.027 Z M148.312,50.369 L148.331,50.239 C150.405,36.172 153.612,31.16 155.922,31.16 C156.735,31.16 157.346,31.81 157.715,32.354 C160.311,36.181 160.243,42.238 157.558,46.441 C155.423,49.782 152.208,50.483 149.888,50.483 C149.401,50.483 148.915,50.451 148.444,50.387 L148.312,50.369 Z M249.916,26.695 C247.88,25.62 245.967,25.098 244.068,25.098 C242.126,25.098 240.189,25.658 238.146,26.812 C232.6,29.944 229.223,37.271 227.519,48.336 C225.297,59.065 219.625,69.534 216.792,69.5 C214.396,69.471 212.573,65.338 211.423,59.315 C217.154,48.594 221.458,34.373 222.699,21.94 C222.92,19.732 223.034,17.637 223.04,15.709 L223.039,15.512 C222.789,5.523 218.483,1.762 214.54,1.573 C214.464,1.569 214.388,1.568 214.312,1.568 C212.429,1.568 210.485,2.704 208.687,4.854 C205.15,9.086 202.486,16.626 201.187,26.085 C200.533,30.84 200.273,35.975 200.356,41.346 L200.334,41.343 C200.17,48.675 200.84,55.278 202.107,60.816 C202.255,61.749 202.391,62.677 202.558,63.616 L202.57,63.679 L202.474,63.787 C200.112,66.683 197.663,68.911 195.392,70.228 L194.958,70.493 L194.969,70.515 L194.686,70.699 L194.65,70.653 L194.267,70.835 C193.23,71.327 192.259,71.578 191.388,71.578 L191.298,71.576 C187.605,71.509 184.926,66.776 183.335,57.509 L183.328,57.468 L183.47,57.19 C189.324,46.997 192.298,36.646 192.425,36.202 L192.604,35.527 C196.559,22.455 196.612,11.383 192.743,5.908 C191.376,3.97 189.594,2.904 187.593,2.828 C187.499,2.824 187.405,2.823 187.311,2.823 C184.899,2.823 182.664,3.997 180.669,6.313 C173.315,14.852 170.972,36.618 174.699,61.763 L174.708,61.822 L174.669,61.868 C172.07,64.907 169.31,67.326 166.471,69.054 C162.885,71.184 160.015,71.673 158.628,71.775 C158.436,71.786 158.246,71.798 158.059,71.798 C155.896,71.798 154.047,71.031 152.562,69.518 C150.01,66.919 148.566,61.74 148.497,54.934 L148.495,54.771 L148.654,54.803 C150.057,55.093 151.357,55.233 152.629,55.233 C157.313,55.233 161.238,53.526 163.981,50.295 C166.333,47.526 167.682,43.684 167.682,39.756 C167.682,30.71 161.744,26.59 156.227,26.59 C153.686,26.59 149.911,27.392 146.351,31.216 C143.121,34.685 140.786,39.881 139.412,46.658 L139.378,46.831 L139.223,46.747 C137.7,45.937 135.315,44.715 132.197,43.465 L132.113,43.431 L132.12,43.054 C132.251,36.319 132.468,29.177 132.68,22.203 C132.827,17.347 132.976,12.444 133.099,7.595 C133.201,5.47 132.657,3.768 131.483,2.535 C129.729,0.696 126.955,0.31 124.936,0.31 C124.099,0.31 123.399,0.376 122.958,0.432 C122.46,0.496 122.115,0.928 122.172,1.414 C122.794,6.812 123.022,22.834 122.727,40.375 L122.724,40.534 L122.569,40.501 C121.275,40.227 120.057,40.019 118.835,39.866 L118.481,39.828 C115.635,39.413 112.951,39.16 110.503,39.075 C109.847,39.052 109.199,39.042 108.558,39.042 C108.407,39.042 107.964,39.046 107.597,39.049 L107.602,38.912 C107.981,28.786 108.547,19.253 108.552,19.156 C108.658,16.944 108.092,15.171 106.87,13.888 C105.045,11.974 102.154,11.572 100.051,11.572 C99.211,11.572 98.513,11.635 98.074,11.687 C97.524,11.754 97.133,12.222 97.184,12.752 C97.557,16.589 97.761,28.279 97.656,39.945 L97.655,40.051 L97.552,40.073 C93.491,40.933 90.15,42.066 88.52,42.665 C87.65,42.983 86.417,43.512 84.855,44.238 C82.221,45.462 82.102,48.429 82.801,50.598 C83.264,52.032 84.142,52.914 84.253,53.02 C84.514,53.26 84.85,53.391 85.197,53.391 C85.363,53.391 85.526,53.363 85.681,53.308 C86.031,53.182 88.331,52.186 89.092,51.848 C89.333,51.739 89.592,51.641 89.915,51.517 C90.106,51.445 90.3,51.371 90.492,51.292 L90.933,51.115 C91.299,50.966 91.682,50.812 92.106,50.666 C92.761,50.416 93.378,50.157 94.064,49.869 C95.059,49.45 96.089,49.017 97.341,48.599 L97.518,48.54 L97.513,48.727 C97.477,50.234 97.435,51.706 97.387,53.126 C97.119,60.899 96.598,85.3 96.576,86.333 C96.363,91.015 97.099,94.17 98.826,95.978 C100.757,97.999 103.632,97.999 105.73,97.999 L107.028,98 C107.298,98 107.552,97.888 107.724,97.693 C107.889,97.507 107.966,97.258 107.934,97.008 C106.75,87.886 107.068,63.802 107.26,53.861 C107.26,51.725 107.294,49.266 107.362,46.552 L107.365,46.44 L107.475,46.425 C108.682,46.266 109.786,46.142 110.849,46.046 C112.51,45.906 114.266,45.835 116.068,45.835 C117.18,45.835 118.338,45.863 119.511,45.918 L119.713,45.926 C119.913,45.936 120.112,45.946 120.321,45.96 L120.828,45.997 C121.352,46.043 121.901,46.106 122.496,46.188 L122.611,46.204 L122.572,47.957 C122.43,54.398 122.236,63.22 121.974,68.751 C121.77,73.24 122.477,76.265 124.135,78 C125.848,79.792 128.241,79.94 130.748,79.94 L131.918,79.941 C132.207,79.941 132.479,79.822 132.661,79.614 C132.836,79.418 132.918,79.155 132.886,78.893 C132.201,73.379 131.881,62.11 132.031,48.75 L132.034,48.565 L132.207,48.628 C135.358,49.759 137.719,50.921 138.588,51.369 L138.663,51.408 L138.658,51.492 C138.134,61.011 140.254,68.83 144.626,73.511 C147.557,76.646 151.377,78.303 155.674,78.303 C161.496,78.303 167.087,75.996 172.286,71.449 C174.122,69.881 175.48,68.412 176.296,67.455 L176.444,67.282 L176.58,67.663 C179.104,74.455 183.534,78.35 188.733,78.35 C188.774,78.35 188.815,78.348 188.917,78.339 C189.376,78.333 189.855,78.305 190.392,78.252 C190.443,78.25 190.495,78.247 190.544,78.241 C192.147,78.049 193.788,77.586 195.427,76.862 L195.51,76.825 C195.917,76.642 196.31,76.444 196.699,76.236 C196.986,76.08 197.272,75.918 197.609,75.716 C197.714,75.654 197.938,75.522 198.017,75.473 C200.967,73.627 203.16,71.345 204.48,69.756 L204.611,69.598 L204.7,69.784 C205.874,72.258 207.312,74.226 208.944,75.646 C214.669,81.528 222.215,78.358 228.295,62.136 L228.295,62.144 C229.607,69.406 232.32,76.44 239.264,77.922 C240.294,78.199 241.374,78.34 242.474,78.34 C243.631,78.34 244.785,78.182 245.901,77.872 C250.828,76.507 256.502,68.605 258.077,54.028 C259.164,43.98 257.678,30.793 249.916,26.695 L249.916,26.695 Z" mask="url(#mask-2)"/><path id="Fill-8" fill="#91C11E" d="M66.773,22.061 C66.776,22.181 67.617,22.939 68.022,23.628 C68.427,24.317 68.813,24.93 68.922,25.625 C68.995,26.091 68.879,26.241 68.667,26.241 C67.465,26.241 61.658,17.375 50.135,14.219 C43.669,12.448 34.668,11.763 27.25,14.272 C20.867,16.43 15.229,20.468 10.881,25.589 C5.984,31.356 2.832,38.272 2.21,45.849 C1.955,48.964 2.198,52.165 1.642,55.249 C1.501,56.029 1.235,56.762 0.965,57.494 C0.829,57.858 -0.286,61.099 1.912,65.521 C3.994,69.709 10.399,70.351 10.994,68.466 C11.54,66.737 12.401,66.351 13.091,66.351 C14.047,66.351 14.588,67.275 15.077,67.5 C47.813,82.584 72.446,45.609 72.446,45.609 C72.877,43.111 73.087,40.571 73.125,38.037 C73.16,35.714 73.02,33.464 73.335,31.153 C73.629,28.996 73.719,26.939 72.66,24.957 C71.905,23.553 70.651,22.815 69.193,22.337 C68.825,22.217 66.758,21.468 66.773,22.061 Z" mask="url(#mask-2)"/><path id="Fill-9" fill="#659A41" d="M13.091,66.351 C12.401,66.351 11.54,66.737 10.994,68.466 C10.399,70.351 3.994,69.709 1.912,65.521 C-0.286,61.099 0.829,57.858 0.997,57.423 C0.922,57.61 0.88,57.727 0.837,57.844 C0.89,57.704 0.938,57.563 0.996,57.425 C0.938,57.564 0.889,57.706 0.836,57.847 C0.689,58.249 0.553,58.656 0.437,59.071 C0.377,59.295 0.325,59.52 0.277,59.746 C0.262,59.817 0.248,59.889 0.234,59.96 C0.187,60.205 0.144,60.449 0.112,60.694 C0.144,60.45 0.187,60.206 0.234,59.962 C-0.039,61.344 -0.091,62.776 0.173,64.16 C0.902,67.976 3.706,69.94 7.244,70.97 C9.555,71.643 11.784,72.23 13.899,73.418 C15.789,74.48 17.63,75.634 19.63,76.487 C28.258,80.166 38.353,79.894 47.062,76.651 C55.978,73.332 63.595,66.981 68.094,58.562 C70.254,54.518 71.67,50.121 72.446,45.609 C72.446,45.609 47.813,82.584 15.077,67.5 C14.588,67.275 14.047,66.351 13.091,66.351 Z" mask="url(#mask-2)"/></g><path id="Fill-11" fill="#FFFFFE" d="M28.179,26.483 C27.792,26.628 24.807,22.318 26.314,21.475 C36.281,15.896 51.612,19.346 59.057,24.072 C59.642,24.443 59.899,24.651 59.9,24.749 C60.786,26.263 43.053,20.923 28.179,26.483"/></g></g></svg>