<svg width="268" height="66" viewBox="0 0 268 66" fill="none" xmlns="http://www.w3.org/2000/svg">
<path d="M111.685 65.788V53.9639H119.896V56.4418H114.657V59.1492H119.276V61.5392H114.657V65.788L111.685 65.788Z" fill="#199BD7"/>
<path d="M128.883 65.7879C128.57 65.4231 128.373 64.9735 128.317 64.4963L127.999 62.9202C127.983 62.7243 127.926 62.5338 127.833 62.3607C127.74 62.1875 127.612 62.0355 127.458 61.9142C127.303 61.7929 127.125 61.7049 126.935 61.6558C126.745 61.6066 126.546 61.5974 126.352 61.6286H124.601V65.7879H121.681V53.9638H127.061C129.785 53.9638 131.449 55.0778 131.449 57.4678C131.478 58.1919 131.231 58.8999 130.758 59.4489C130.285 59.9978 129.621 60.3467 128.901 60.425V60.4596C129.39 60.5163 129.848 60.7323 130.203 61.0744C130.558 61.4165 130.79 61.8657 130.865 62.353L131.343 64.3894C131.457 64.9115 131.707 65.394 132.068 65.7879H128.883ZM126.742 56.371H124.601V59.3094H126.76C127.821 59.3094 128.37 58.8317 128.37 57.8041C128.37 56.8833 127.856 56.371 126.742 56.371Z" fill="#199BD7"/>
<path d="M144.153 59.8751C144.153 63.6635 141.941 66 138.508 66C135.075 66 132.88 63.6635 132.88 59.8751C132.88 56.0867 135.075 53.7501 138.508 53.7501C141.941 53.7501 144.153 56.0866 144.153 59.8751ZM135.96 59.8751C135.96 62.1063 136.862 63.5221 138.508 63.5221C140.154 63.5221 141.074 62.1063 141.074 59.8751C141.074 57.6454 140.154 56.2296 138.508 56.2296C136.862 56.2296 135.96 57.6454 135.96 59.8751Z" fill="#199BD7"/>
<path d="M152.716 63.1324H150.982L148.734 58.4232H148.699L148.717 60.8493V65.7879H145.868V53.9638H149.07L151.866 59.7163H151.902L154.68 53.9638H157.83V65.7879H154.981V60.8493L154.998 58.4232H154.963L152.716 63.1324Z" fill="#199BD7"/>
<path d="M168.781 61.9994H168.728L166.286 65.7879H163.118L167.082 59.7509L163.331 53.9638H166.622L168.816 57.5039H168.869L171.063 53.9638H174.231L170.497 59.6991L174.479 65.7879H171.206L168.781 61.9994Z" fill="#199BD7"/>
<path d="M184.192 65.7879H175.804V53.9638H184.157V56.4417H178.671V58.7076H183.537V60.9372H178.671V63.31H184.192V65.7879Z" fill="#199BD7"/>
<path d="M193.409 65.7879C193.097 65.423 192.899 64.9735 192.843 64.4963L192.525 62.9202C192.509 62.7243 192.453 62.5338 192.36 62.3607C192.267 62.1875 192.139 62.0355 191.984 61.9142C191.83 61.7929 191.651 61.7049 191.461 61.6558C191.271 61.6066 191.073 61.5974 190.879 61.6286H189.127V65.7879H186.207V53.9638H191.587C194.312 53.9638 195.975 55.0778 195.975 57.4678C196.004 58.1919 195.757 58.8999 195.284 59.4489C194.811 59.9978 194.147 60.3467 193.427 60.425V60.4596C193.917 60.5163 194.374 60.7323 194.729 61.0744C195.084 61.4165 195.317 61.8657 195.391 62.353L195.869 64.3894C195.983 64.9115 196.234 65.394 196.595 65.7879H193.409ZM191.268 56.371H189.127V59.3094H191.286C192.347 59.3094 192.896 58.8317 192.896 57.8041C192.896 56.8833 192.383 56.371 191.268 56.371Z" fill="#199BD7"/>
<path d="M208.679 59.8751C208.679 63.6635 206.466 66 203.033 66C199.6 66 197.406 63.6635 197.406 59.8751C197.406 56.0867 199.6 53.7501 203.033 53.7501C206.466 53.7501 208.679 56.0866 208.679 59.8751ZM200.485 59.8751C200.485 62.1063 201.388 63.5221 203.033 63.5221C204.679 63.5221 205.599 62.1063 205.599 59.8751C205.599 57.6454 204.679 56.2296 203.033 56.2296C201.388 56.2296 200.485 57.6454 200.485 59.8751Z" fill="#199BD7"/>
<path d="M215.635 44.5361C215.569 44.5401 215.503 44.53 215.442 44.5067C215.38 44.4833 215.324 44.4472 215.278 44.4006C215.231 44.3541 215.195 44.2982 215.172 44.2367C215.148 44.1752 215.138 44.1094 215.142 44.0437V41.7782H215.093C213.961 43.6494 211.942 45.0777 208.397 45.0777C204.311 45.0777 201.455 43.157 200.274 39.4137C199.61 37.246 199.327 34.9799 199.437 32.7156C199.33 30.4676 199.613 28.2181 200.274 26.0666C201.455 22.3233 204.311 20.4026 208.397 20.4026C211.942 20.4026 213.961 21.7818 215.093 23.653H215.142V11.5373C215.138 11.4716 215.148 11.4058 215.172 11.3442C215.195 11.2826 215.231 11.2267 215.278 11.1801C215.324 11.1336 215.38 11.0974 215.442 11.074C215.503 11.0506 215.569 11.0405 215.635 11.0444H218.786C218.851 11.0404 218.917 11.0505 218.979 11.0739C219.04 11.0973 219.096 11.1335 219.143 11.1801C219.189 11.2266 219.225 11.2826 219.249 11.3442C219.272 11.4057 219.282 11.4716 219.278 11.5373V44.0437C219.282 44.1094 219.272 44.1752 219.249 44.2367C219.225 44.2983 219.189 44.3542 219.143 44.4007C219.096 44.4473 219.04 44.4834 218.979 44.5068C218.917 44.5301 218.851 44.5401 218.786 44.5361H215.635ZM214.601 37.6407C215.05 36.0398 215.233 34.3759 215.142 32.7156C215.23 31.0554 215.047 29.3921 214.601 27.7905C213.813 25.4264 211.991 24.2441 209.382 24.2441C208.246 24.1582 207.114 24.4628 206.174 25.1076C205.234 25.7525 204.542 26.6989 204.212 27.7905C203.789 29.3963 203.606 31.0561 203.671 32.7156C203.6 34.3753 203.783 36.0361 204.212 37.6407C204.61 38.6972 205.32 39.6073 206.248 40.2497C207.176 40.8921 208.278 41.2363 209.407 41.2363C210.535 41.2363 211.637 40.8921 212.565 40.2497C213.493 39.6073 214.203 38.6972 214.601 37.6407H214.601Z" fill="#199BD7"/>
<path d="M240.155 44.5362C240.089 44.5401 240.023 44.5301 239.962 44.5068C239.9 44.4834 239.844 44.4473 239.798 44.4008C239.751 44.3542 239.715 44.2983 239.692 44.2368C239.669 44.1752 239.659 44.1094 239.663 44.0437V41.9752H239.613C238.53 43.7481 236.216 45.0777 232.622 45.0777C228.142 45.0777 224.695 42.7632 224.695 37.9854C224.695 33.0112 228.142 30.6962 233.902 30.6962H239.269C239.309 30.7019 239.35 30.6983 239.388 30.6854C239.427 30.6726 239.462 30.651 239.491 30.6223C239.519 30.5936 239.541 30.5587 239.554 30.5202C239.566 30.4817 239.57 30.4408 239.564 30.4006V28.6768C239.564 25.4264 238.284 24.0472 233.902 24.0472C231.865 23.9545 229.855 24.5438 228.191 25.722C227.945 25.9189 227.649 25.9189 227.502 25.6724L226.172 23.407C226.101 23.3001 226.071 23.1707 226.089 23.0434C226.107 22.9162 226.172 22.8002 226.271 22.7176C228.621 21.0894 231.44 20.2762 234.296 20.4026C240.992 20.4026 243.552 22.6189 243.552 28.4308V44.0437C243.556 44.1094 243.546 44.1752 243.523 44.2368C243.5 44.2983 243.463 44.3542 243.417 44.4008C243.37 44.4473 243.315 44.4834 243.253 44.5068C243.191 44.5301 243.126 44.5401 243.06 44.5362H240.155ZM239.564 36.9023V34.2917C239.57 34.2515 239.566 34.2106 239.554 34.1722C239.541 34.1337 239.519 34.0987 239.49 34.0701C239.462 34.0414 239.427 34.0198 239.388 34.007C239.35 33.9941 239.309 33.9904 239.269 33.9961H234.542C230.456 33.9961 228.683 35.1784 228.683 37.8376C228.683 40.2513 230.456 41.5318 233.607 41.5318C237.299 41.5318 239.564 39.8079 239.564 36.9023V36.9023Z" fill="#199BD7"/>
<path d="M249.954 53.4014C249.889 53.4054 249.823 53.3954 249.761 53.3721C249.7 53.3487 249.644 53.3126 249.598 53.266C249.551 53.2195 249.515 53.1636 249.492 53.102C249.468 53.0405 249.458 52.9747 249.462 52.909V50.0524C249.458 49.9867 249.468 49.9209 249.492 49.8593C249.515 49.7978 249.551 49.7419 249.598 49.6953C249.644 49.6488 249.7 49.6126 249.761 49.5893C249.823 49.566 249.889 49.556 249.954 49.5599H250.841C252.761 49.5599 253.795 48.7228 254.829 46.0136L255.617 43.8468L246.951 21.4367C246.853 21.1416 247 20.9442 247.345 20.9442H250.791C250.933 20.9391 251.072 20.9865 251.181 21.0774C251.29 21.1683 251.362 21.2962 251.382 21.4367L257.586 38.4783H257.684L263.642 21.4367C263.662 21.2962 263.734 21.1683 263.843 21.0774C263.952 20.9865 264.091 20.9391 264.232 20.9442H267.581C267.876 20.9442 268.073 21.1415 267.974 21.4367L258.669 46.3587C256.601 51.924 254.779 53.4014 251.235 53.4014H249.954Z" fill="#199BD7"/>
<path d="M112.19 43.9855C112.125 43.9894 112.059 43.9794 111.997 43.956C111.936 43.9327 111.88 43.8965 111.834 43.85C111.787 43.8034 111.751 43.7475 111.728 43.686C111.704 43.6245 111.694 43.5587 111.698 43.493V10.9866C111.694 10.9209 111.704 10.8551 111.728 10.7935C111.751 10.732 111.787 10.676 111.834 10.6295C111.88 10.5829 111.936 10.5467 111.997 10.5233C112.059 10.4999 112.125 10.4898 112.19 10.4937H124.106C130.555 10.4937 134.74 14.4343 134.74 20.4922C134.74 26.55 130.555 30.4902 124.106 30.4902H116.376C116.336 30.4845 116.295 30.4882 116.256 30.501C116.218 30.5139 116.183 30.5355 116.154 30.5642C116.125 30.5928 116.104 30.6278 116.091 30.6662C116.078 30.7047 116.074 30.7456 116.08 30.7858V43.493C116.084 43.5587 116.074 43.6245 116.051 43.6861C116.027 43.7476 115.991 43.8035 115.945 43.8501C115.898 43.8966 115.842 43.9327 115.781 43.9561C115.719 43.9794 115.654 43.9894 115.588 43.9855H112.19ZM130.408 20.4922C130.408 16.8476 127.995 14.5817 123.859 14.5817H116.376C116.336 14.576 116.295 14.5797 116.256 14.5925C116.218 14.6053 116.183 14.6269 116.154 14.6556C116.125 14.6843 116.104 14.7192 116.091 14.7577C116.078 14.7962 116.074 14.8371 116.08 14.8772V26.1071C116.074 26.1472 116.078 26.1881 116.091 26.2265C116.104 26.265 116.125 26.2999 116.154 26.3285C116.183 26.3572 116.218 26.3787 116.256 26.3915C116.295 26.4043 116.336 26.408 116.376 26.4022H123.859C127.995 26.4022 130.408 24.1368 130.408 20.4922Z" fill="#199BD7"/>
<path d="M144.934 44.2319C140.798 44.2319 139.173 42.2616 139.173 38.0259V10.9866C139.169 10.9209 139.179 10.8551 139.202 10.7935C139.226 10.7319 139.262 10.676 139.308 10.6294C139.355 10.5828 139.411 10.5466 139.472 10.5232C139.534 10.4998 139.6 10.4898 139.665 10.4937H142.816C142.882 10.4898 142.948 10.4998 143.01 10.5232C143.071 10.5466 143.127 10.5828 143.173 10.6294C143.22 10.676 143.256 10.7319 143.279 10.7935C143.303 10.8551 143.313 10.9209 143.309 10.9866V37.7799C143.309 39.7497 144.047 40.39 145.672 40.39H146.608C146.673 40.386 146.739 40.396 146.801 40.4193C146.862 40.4427 146.918 40.4788 146.964 40.5254C147.011 40.5719 147.047 40.6278 147.07 40.6894C147.094 40.7509 147.104 40.8167 147.1 40.8824V43.739C147.104 43.8047 147.094 43.8706 147.07 43.9322C147.047 43.9937 147.011 44.0497 146.965 44.0963C146.918 44.1428 146.862 44.179 146.801 44.2024C146.739 44.2258 146.673 44.2359 146.608 44.2319H144.934Z" fill="#199BD7"/>
<path d="M165.712 43.9855C165.646 43.9895 165.58 43.9795 165.519 43.9561C165.457 43.9328 165.401 43.8966 165.355 43.8501C165.308 43.8035 165.272 43.7476 165.249 43.6861C165.225 43.6245 165.215 43.5587 165.219 43.493V41.4245H165.17C164.087 43.1975 161.773 44.5271 158.178 44.5271C153.698 44.5271 150.252 42.2125 150.252 37.4347C150.252 32.4605 153.698 30.1455 159.459 30.1455H164.826C164.866 30.1513 164.907 30.1476 164.945 30.1348C164.984 30.1219 165.019 30.1003 165.047 30.0717C165.076 30.043 165.098 30.008 165.11 29.9695C165.123 29.931 165.127 29.8901 165.121 29.85V28.1261C165.121 24.8757 163.841 23.4966 159.459 23.4966C157.422 23.4039 155.412 23.9932 153.747 25.1713C153.501 25.3682 153.206 25.3682 153.058 25.1217L151.729 22.8563C151.657 22.7495 151.628 22.62 151.646 22.4927C151.664 22.3655 151.729 22.2495 151.827 22.167C154.178 20.5387 156.996 19.7256 159.853 19.852C166.549 19.852 169.109 22.0683 169.109 27.8801V43.493C169.113 43.5587 169.103 43.6245 169.08 43.6861C169.056 43.7476 169.02 43.8035 168.974 43.8501C168.927 43.8966 168.871 43.9328 168.81 43.9561C168.748 43.9795 168.682 43.9895 168.617 43.9855H165.712ZM165.121 36.3516V33.741C165.127 33.7009 165.123 33.66 165.11 33.6215C165.097 33.583 165.076 33.5481 165.047 33.5194C165.018 33.4907 164.984 33.4691 164.945 33.4563C164.907 33.4434 164.866 33.4397 164.826 33.4454H160.099C156.012 33.4454 154.24 34.6277 154.24 37.2869C154.24 39.7006 156.012 40.9811 159.164 40.9811C162.856 40.9811 165.121 39.2573 165.121 36.3516Z" fill="#199BD7"/>
<path d="M190.823 43.9854C190.757 43.9894 190.691 43.9794 190.63 43.9561C190.568 43.9327 190.512 43.8966 190.466 43.85C190.419 43.8035 190.383 43.7476 190.36 43.686C190.336 43.6245 190.326 43.5587 190.33 43.493V29.7021C190.33 25.9097 188.607 23.6934 185.062 23.6934C181.862 23.6934 179.646 25.9593 179.646 29.4561V43.493C179.65 43.5587 179.64 43.6245 179.617 43.686C179.594 43.7476 179.557 43.8035 179.511 43.85C179.464 43.8966 179.409 43.9327 179.347 43.9561C179.285 43.9794 179.22 43.9894 179.154 43.9854H176.003C175.937 43.9894 175.871 43.9794 175.81 43.9561C175.748 43.9327 175.693 43.8966 175.646 43.85C175.599 43.8035 175.563 43.7476 175.54 43.686C175.517 43.6245 175.507 43.5587 175.511 43.493V20.8859C175.507 20.8202 175.517 20.7544 175.54 20.6929C175.563 20.6314 175.6 20.5755 175.646 20.5289C175.693 20.4824 175.748 20.4463 175.81 20.4229C175.871 20.3996 175.937 20.3895 176.003 20.3935H179.154C179.22 20.3895 179.285 20.3996 179.347 20.4229C179.408 20.4463 179.464 20.4824 179.511 20.5289C179.557 20.5755 179.594 20.6314 179.617 20.6929C179.64 20.7544 179.65 20.8202 179.646 20.8859V23.0531H179.695C180.828 21.2311 183.093 19.8519 186.293 19.8519C191.414 19.8519 194.466 23.3487 194.466 28.7172V43.493C194.47 43.5587 194.46 43.6245 194.437 43.686C194.413 43.7476 194.377 43.8035 194.331 43.85C194.284 43.8966 194.228 43.9327 194.167 43.9561C194.105 43.9794 194.039 43.9894 193.974 43.9854H190.823Z" fill="#199BD7"/>
<path d="M70.6101 22.7773C69.6708 18.5927 67.5826 14.7533 64.5806 11.6913C61.5786 8.62932 57.7819 6.46619 53.6177 5.44536C49.4536 4.42453 45.0873 4.58651 41.0101 5.91308C36.933 7.23965 33.3069 9.67815 30.5398 12.9542L30.5396 12.9545L30.5393 12.9548L30.539 12.9551L1.32761 47.78C-0.567684 50.0395 -0.420007 52.5532 1.6829 54.3183C3.78573 56.0834 6.28602 55.7924 8.18127 53.533L25.6722 32.6808L37.3127 18.8035L37.315 18.8054C37.3414 18.7732 37.3662 18.7397 37.393 18.7077C37.552 18.5181 37.7143 18.3341 37.8799 18.1558C37.9066 18.1268 37.9345 18.099 37.9614 18.0702C40.4056 15.4372 43.7702 13.8477 47.3557 13.6322C50.9413 13.4168 54.4719 14.5918 57.2137 16.9132C57.2137 16.9132 57.2469 16.9336 57.3086 16.968C58.716 18.1597 59.8739 19.618 60.7156 21.2591C61.5573 22.9002 62.0663 24.6916 62.2132 26.5302C62.3601 28.3689 62.1421 30.2184 61.5716 31.9724C61.0012 33.7264 60.0896 35.3502 58.8894 36.7504C58.7303 36.94 58.3479 37.3592 58.321 37.388C55.8616 40.0338 52.4748 41.6259 48.869 41.8313C45.2632 42.0368 41.7176 40.8396 38.9738 38.4902C37.8355 37.529 36.8537 36.3962 36.064 35.1327C35.8561 34.7973 35.5717 34.516 35.2341 34.312C34.8965 34.108 34.5152 33.987 34.1218 33.9591C33.7283 33.9311 33.3338 33.997 32.9708 34.1512C32.6077 34.3055 32.2864 34.5437 32.0333 34.8463L28.2868 39.324C29.6327 41.5986 31.3568 43.6267 33.3849 45.321C35.6847 47.2829 38.3515 48.7678 41.2302 49.6892C44.1089 50.6106 47.142 50.9501 50.1531 50.6879C53.1642 50.4258 56.0932 49.5673 58.7695 48.1623C61.4458 46.7573 63.8161 44.8339 65.7425 42.504C65.7425 42.504 72.1702 35.0475 70.6101 22.7773Z" fill="#199BD7"/>
<path d="M70.625 22.781L88.1159 1.92888C90.0112 -0.330596 92.5115 -0.621622 94.6143 1.14349C96.7172 2.90864 96.8649 5.42233 94.9696 7.68179L65.7425 42.504C63.8162 44.8339 61.4459 46.7573 58.7696 48.1623C56.0932 49.5673 53.1643 50.4258 50.1532 50.688C47.1421 50.9501 44.109 50.6106 41.2302 49.6892C38.3515 48.7678 35.6847 47.283 33.385 45.321C31.3569 43.6267 29.6327 41.5986 28.2869 39.324L32.0333 34.8464C32.2864 34.5437 32.6077 34.3055 32.9708 34.1513C33.3338 33.997 33.7283 33.9312 34.1218 33.9592C34.5152 33.9871 34.8965 34.1081 35.2341 34.3121C35.5717 34.5161 35.8561 34.7974 36.064 35.1327C36.8591 36.3978 37.8457 37.5316 38.9886 38.4938C41.7299 40.8385 45.2707 42.0329 48.8716 41.8277C52.4724 41.6225 55.8547 40.0334 58.312 37.3924C58.3192 37.3848 58.7636 36.8941 58.8804 36.7549L70.625 22.781Z" fill="#199BD7"/>
</svg>
