<svg width="3000" height="830" viewBox="0 0 300 83" fill="none" xmlns="http://www.w3.org/2000/svg">
<path fill-rule="evenodd" clip-rule="evenodd" d="M34.5645 25.9007C38.2441 25.9007 81.7292 43.9233 84.7399 45.3263C87.7489 46.7292 89.1981 48.0242 89.1981 50.7223C89.1981 53.4203 87.3037 54.9311 84.7399 56.1182C82.1743 57.3053 35.6796 82.0194 32.4462 82.0194C29.2127 82.0194 28.9897 79.5369 28.9897 78.7814V67.7736C28.9897 66.3707 30.5507 64.7518 32.3347 64.7518H54.6348C64.7814 64.7518 69.1292 56.1182 69.1292 50.7223C69.1292 45.3263 64.7814 36.6927 54.6348 36.6927H34.5645C30.8851 36.6927 28.9897 33.671 28.9897 31.2968C28.9897 28.9226 30.8851 25.9007 34.5645 25.9007ZM56.7535 0C59.8967 0 60.194 2.34653 60.2093 3.17107V14.2458C60.2093 15.6487 58.6479 17.2676 56.8639 17.2676H34.5645C24.4183 17.2676 20.0698 25.9012 20.0698 31.2971C20.0698 36.6931 24.4183 45.3267 34.5645 45.3267H54.6348C58.3132 45.3267 60.2093 48.3484 60.2093 50.7226C60.2093 53.0968 58.3132 56.1186 54.6348 56.1186C52.905 56.1186 42.3828 52.1374 31.4023 47.7717L29.9987 47.2126C18.058 42.4468 5.99536 37.4085 4.45995 36.6931C1.44944 35.2902 0 33.995 0 31.2971C0 28.5991 1.89544 27.0883 4.45995 25.9012C7.02446 24.7141 53.5194 0 56.7535 0Z" fill="#004165"/>
<path d="M120.853 22.7498C123.546 22.7498 125.877 23.2645 127.843 24.2934C129.81 25.2921 131.475 26.775 132.836 28.7421L129.569 31.8745C128.419 30.1192 127.117 28.8633 125.664 28.1067C124.242 27.3197 122.547 26.9264 120.579 26.9264C119.127 26.9264 117.932 27.123 116.994 27.5165C116.055 27.9099 115.36 28.4395 114.906 29.1054C114.481 29.7408 114.269 30.4672 114.269 31.2844C114.269 32.2226 114.587 33.0397 115.224 33.7358C115.888 34.4318 117.115 34.9766 118.901 35.37L124.983 36.7318C127.888 37.3674 129.946 38.3359 131.157 39.6372C132.367 40.9386 132.974 42.5879 132.974 44.5854C132.974 46.4314 132.474 48.0355 131.475 49.3972C130.476 50.7592 129.085 51.8032 127.299 52.5295C125.544 53.2559 123.469 53.6191 121.079 53.6191C118.96 53.6191 117.054 53.3468 115.36 52.8021C113.664 52.2572 112.181 51.5157 110.91 50.5775C109.639 49.6393 108.596 48.565 107.779 47.3545L111.138 43.9952C111.773 45.0545 112.575 46.0077 113.544 46.8551C114.512 47.6722 115.632 48.3078 116.903 48.7618C118.204 49.2158 119.641 49.4428 121.215 49.4428C122.608 49.4428 123.802 49.2762 124.801 48.9434C125.831 48.6104 126.602 48.1262 127.117 47.4907C127.661 46.8249 127.934 46.0381 127.934 45.1301C127.934 44.2524 127.632 43.4807 127.025 42.8148C126.451 42.1492 125.362 41.6345 123.758 41.2715L117.174 39.7734C115.36 39.3799 113.861 38.8201 112.68 38.0938C111.501 37.3674 110.623 36.4897 110.049 35.4608C109.473 34.4016 109.186 33.2213 109.186 31.9198C109.186 30.225 109.639 28.6968 110.548 27.3348C111.486 25.9428 112.832 24.8381 114.587 24.021C116.344 23.1736 118.432 22.7498 120.853 22.7498ZM141.357 26.654C140.298 26.654 139.481 26.3966 138.907 25.8822C138.361 25.3375 138.089 24.5809 138.089 23.6124C138.089 22.644 138.361 21.9025 138.907 21.3881C139.481 20.8736 140.298 20.6164 141.357 20.6164C142.386 20.6164 143.173 20.8736 143.718 21.3881C144.293 21.9025 144.58 22.644 144.58 23.6124C144.58 24.5809 144.293 25.3375 143.718 25.8822C143.173 26.3966 142.386 26.654 141.357 26.654ZM143.763 30.4672V53.1652H138.907V30.4672H143.763ZM171.338 25.7007L172.109 29.5138C172.019 29.5138 171.927 29.5138 171.837 29.5138C171.746 29.4836 171.655 29.4685 171.564 29.4685C170.111 29.4685 169.007 29.7862 168.251 30.4218C167.495 31.0272 167.116 31.9198 167.116 33.1001L164.756 32.0107C164.756 30.8002 165.012 29.7257 165.527 28.7875C166.042 27.8191 166.767 27.0625 167.705 26.5178C168.674 25.9731 169.764 25.7007 170.974 25.7007C171.035 25.7007 171.095 25.7007 171.156 25.7007C171.217 25.7007 171.277 25.7007 171.338 25.7007ZM164.164 49.6242C166.465 49.6242 168.251 50.1388 169.521 51.1678C170.792 52.1665 171.428 53.5586 171.428 55.3442C171.428 56.918 170.928 58.2646 169.931 59.3845C168.932 60.5344 167.569 61.4121 165.845 62.0174C164.149 62.6226 162.197 62.9252 159.988 62.9252C156.266 62.9252 153.512 62.3503 151.726 61.2002C149.94 60.0501 149.048 58.6128 149.048 56.8876C149.048 55.677 149.471 54.6178 150.319 53.7099C151.197 52.8021 152.665 52.2874 154.723 52.1665L154.449 52.8928C153.179 52.6204 152.151 52.1362 151.364 51.4401C150.606 50.7138 150.229 49.7 150.229 48.3985C150.229 47.0972 150.729 45.9925 151.726 45.0847C152.725 44.1768 154.132 43.6472 155.948 43.4958L158.49 44.7215H157.946C156.553 44.8426 155.571 45.1604 154.995 45.6748C154.421 46.1893 154.132 46.7644 154.132 47.3998C154.132 48.1564 154.405 48.7164 154.949 49.0795C155.525 49.4428 156.327 49.6242 157.355 49.6242H164.164ZM159.988 59.2936C161.653 59.2936 163.014 59.1272 164.074 58.7942C165.163 58.4916 165.965 58.083 166.48 57.5685C167.026 57.0843 167.297 56.5396 167.297 55.9342C167.297 55.2383 167.01 54.6783 166.434 54.2547C165.891 53.831 164.892 53.6191 163.439 53.6191H156.13C155.282 53.6191 154.572 53.831 153.996 54.2547C153.421 54.7086 153.134 55.3139 153.134 56.0705C153.134 57.0692 153.739 57.856 154.949 58.4311C156.16 59.0061 157.839 59.2936 159.988 59.2936ZM159.806 30.0132C161.804 30.0132 163.529 30.3311 164.982 30.9665C166.465 31.6021 167.6 32.495 168.387 33.6449C169.204 34.7949 169.613 36.1417 169.613 37.6851C169.613 39.2285 169.204 40.5754 168.387 41.7254C167.6 42.8755 166.465 43.7682 164.982 44.4038C163.529 45.0392 161.804 45.3571 159.806 45.3571C156.66 45.3571 154.239 44.661 152.543 43.2688C150.88 41.8464 150.047 39.9853 150.047 37.6851C150.047 36.1417 150.455 34.7949 151.272 33.6449C152.089 32.495 153.224 31.6021 154.677 30.9665C156.16 30.3311 157.87 30.0132 159.806 30.0132ZM159.806 33.4179C158.415 33.4179 157.249 33.8114 156.312 34.5982C155.404 35.3548 154.949 36.3839 154.949 37.6851C154.949 38.9864 155.404 40.0306 156.312 40.8175C157.249 41.6043 158.415 41.9978 159.806 41.9978C161.229 41.9978 162.394 41.6043 163.303 40.8175C164.241 40.0306 164.71 38.9864 164.71 37.6851C164.71 36.3839 164.241 35.3548 163.303 34.5982C162.394 33.8114 161.229 33.4179 159.806 33.4179ZM175.879 53.1652V30.4672H180.191L180.509 36.3687L179.874 35.7331C180.297 34.4318 180.903 33.3574 181.69 32.5101C182.507 31.6324 183.46 30.9967 184.549 30.6034C185.669 30.2099 186.85 30.0132 188.09 30.0132C189.694 30.0132 191.131 30.3311 192.402 30.9665C193.704 31.5719 194.733 32.495 195.489 33.7358C196.247 34.9766 196.624 36.5502 196.624 38.4568V53.1652H191.767V39.9549C191.767 37.7154 191.298 36.172 190.36 35.3245C189.453 34.447 188.303 34.0081 186.909 34.0081C185.912 34.0081 184.944 34.2502 184.004 34.7344C183.066 35.1884 182.279 35.9299 181.644 36.9588C181.039 37.9877 180.737 39.3648 180.737 41.0898V53.1652H175.879ZM217.104 38.5931C217.104 37.0799 216.681 35.9148 215.834 35.0975C215.016 34.2502 213.881 33.8265 212.429 33.8265C211.068 33.8265 209.902 34.1442 208.934 34.7798C207.965 35.4154 207.254 36.4443 206.8 37.8668L202.714 36.1417C203.29 34.2956 204.409 32.8127 206.073 31.6928C207.768 30.5732 209.946 30.0132 212.611 30.0132C214.427 30.0132 216.031 30.3159 217.422 30.9211C218.815 31.4963 219.904 32.3738 220.691 33.5541C221.508 34.7344 221.916 36.2476 221.916 38.0938V48.2171C221.916 49.3367 222.477 49.8967 223.596 49.8967C224.142 49.8967 224.67 49.821 225.185 49.6697L224.913 53.0289C224.217 53.3619 223.34 53.5284 222.28 53.5284C221.311 53.5284 220.435 53.3619 219.646 53.0289C218.89 52.6658 218.285 52.1362 217.832 51.4401C217.407 50.7138 217.196 49.821 217.196 48.7618V48.4441L218.194 48.3985C217.922 49.5788 217.363 50.5624 216.515 51.3494C215.667 52.106 214.683 52.6809 213.564 53.0744C212.444 53.4375 211.309 53.6191 210.159 53.6191C208.737 53.6191 207.451 53.3921 206.3 52.9382C205.181 52.4842 204.289 51.8032 203.623 50.8954C202.987 49.9572 202.67 48.8071 202.67 47.4452C202.67 45.7504 203.213 44.3584 204.302 43.2688C205.424 42.1794 206.997 41.438 209.024 41.0445L217.832 39.3194L217.786 42.7241L211.386 44.0405C210.113 44.2826 209.16 44.6308 208.524 45.0847C207.889 45.5387 207.571 46.2044 207.571 47.0821C207.571 47.9294 207.889 48.6104 208.524 49.1249C209.19 49.6091 210.069 49.8512 211.158 49.8512C211.914 49.8512 212.641 49.7605 213.336 49.5788C214.063 49.3972 214.714 49.1097 215.288 48.7164C215.864 48.2927 216.303 47.7631 216.605 47.1275C216.938 46.4616 217.104 45.6748 217.104 44.7669V38.5931ZM238.546 53.6191C236.67 53.6191 234.961 53.15 233.417 52.2118C231.905 51.2736 230.709 49.927 229.83 48.1715C228.953 46.4163 228.515 44.3129 228.515 41.8615C228.515 39.3194 228.984 37.1707 229.922 35.4154C230.86 33.66 232.115 32.3284 233.689 31.4205C235.264 30.4823 236.988 30.0132 238.864 30.0132C240.801 30.0132 242.435 30.5429 243.767 31.6021C245.099 32.6613 245.991 34.0383 246.445 35.7331L245.901 36.2325V20.2531H250.759V53.1652H246.445L246.083 46.9914L246.719 47.0368C246.506 48.3985 246.007 49.5788 245.22 50.5775C244.433 51.546 243.45 52.3026 242.269 52.8474C241.119 53.3619 239.878 53.6191 238.546 53.6191ZM239.591 49.7151C240.893 49.7151 242.012 49.3821 242.95 48.7164C243.888 48.0506 244.615 47.1124 245.13 45.9018C245.643 44.6913 245.901 43.2386 245.901 41.5438C245.901 39.9702 245.643 38.6233 245.13 37.5035C244.615 36.3536 243.888 35.4759 242.95 34.8705C242.043 34.2653 240.983 33.9627 239.773 33.9627C237.744 33.9627 236.171 34.6588 235.051 36.0508C233.932 37.443 233.371 39.3648 233.371 41.8162C233.371 44.2675 233.916 46.2044 235.005 47.6268C236.096 49.019 237.624 49.7151 239.591 49.7151ZM268.143 30.0132C270.352 30.0132 272.304 30.4823 273.998 31.4205C275.694 32.3587 277.01 33.7206 277.948 35.5061C278.917 37.2614 279.401 39.3648 279.401 41.8162C279.401 44.2675 278.917 46.386 277.948 48.1715C277.01 49.927 275.694 51.2736 273.998 52.2118C272.304 53.15 270.352 53.6191 268.143 53.6191C265.933 53.6191 263.982 53.15 262.287 52.2118C260.593 51.2736 259.261 49.927 258.292 48.1715C257.324 46.386 256.84 44.2675 256.84 41.8162C256.84 39.3648 257.324 37.2614 258.292 35.5061C259.261 33.7206 260.593 32.3587 262.287 31.4205C263.982 30.4823 265.933 30.0132 268.143 30.0132ZM268.143 33.8265C266.781 33.8265 265.615 34.1442 264.647 34.7798C263.709 35.3852 262.983 36.2778 262.469 37.4582C261.954 38.6385 261.697 40.0911 261.697 41.8162C261.697 43.5109 261.954 44.9636 262.469 46.1742C262.983 47.3545 263.709 48.2624 264.647 48.8979C265.615 49.5032 266.781 49.8058 268.143 49.8058C269.504 49.8058 270.654 49.5032 271.592 48.8979C272.532 48.2624 273.257 47.3545 273.772 46.1742C274.287 44.9636 274.544 43.5109 274.544 41.8162C274.544 40.0911 274.287 38.6385 273.772 37.4582C273.257 36.2778 272.532 35.3852 271.592 34.7798C270.654 34.1442 269.504 33.8265 268.143 33.8265ZM291.829 23.7941V46.3558C291.829 47.4756 292.117 48.2927 292.693 48.8071C293.297 49.3216 294.099 49.5788 295.098 49.5788C295.916 49.5788 296.626 49.4579 297.231 49.2158C297.837 48.9434 298.396 48.5802 298.911 48.1262L300 51.6671C299.305 52.2723 298.442 52.7565 297.412 53.1198C296.413 53.4526 295.294 53.6191 294.053 53.6191C292.752 53.6191 291.558 53.4073 290.467 52.9835C289.378 52.56 288.53 51.879 287.925 50.9408C287.32 49.9723 287.002 48.7164 286.972 47.1729V25.1558L291.829 23.7941ZM299.636 30.4672V34.2805H282.614V30.4672H299.636Z" fill="#004165"/>
</svg>
