<svg
  width="147"
  height="35"
  viewBox="0 0 147 35"
  fill="none"
  xmlns="http://www.w3.org/2000/svg"
>
  <path
    d="M137.901 29.9908C132.524 29.9908 128.801 26.2334 128.801 20.8904C128.801 15.5474 132.524 11.79 137.901 11.79C143.278 11.79 147 15.5474 147 20.8904C147 26.2334 143.278 29.9908 137.901 29.9908ZM133.144 20.8904C133.144 24.3031 134.971 26.4058 137.901 26.4058C140.83 26.4058 142.657 24.3031 142.657 20.8904C142.657 17.4778 140.83 15.375 137.901 15.375C134.971 15.375 133.144 17.4778 133.144 20.8904Z"
    fill="#1D1D1B"
  />
  <path
    d="M109.307 34.8628V12.2726H113.478V13.8238C114.822 12.5139 116.649 11.79 118.786 11.79C123.404 11.79 126.575 15.5474 126.575 20.8904C126.575 26.2334 123.266 29.9908 118.441 29.9908C116.545 29.9908 114.891 29.3703 113.65 28.2328V34.8628H109.307ZM113.478 20.8904C113.478 24.3031 115.167 26.4058 117.855 26.4058C120.544 26.4058 122.232 24.3031 122.232 20.8904C122.232 17.4778 120.544 15.375 117.855 15.375C115.167 15.375 113.478 17.4778 113.478 20.8904Z"
    fill="#1D1D1B"
  />
  <path
    d="M101.694 19.2013C101.694 17.9259 101.487 17.1331 101.073 16.5471C100.591 15.8576 99.7979 15.444 98.8328 15.444C97.7643 15.444 96.8682 15.8232 96.2133 16.5471C95.5239 17.3054 95.1448 18.443 95.1448 20.2355V29.5082H90.8019V19.2013C90.8019 17.788 90.5261 16.8918 89.9747 16.3058C89.4921 15.7542 88.8028 15.444 87.9411 15.444C86.976 15.444 86.1488 15.7542 85.5284 16.3402C84.7011 17.0986 84.2531 18.3051 84.2531 20.2355V29.5082H79.9102V12.2726H84.0463V13.7549C85.2182 12.5139 87.0449 11.79 89.2509 11.79C91.4223 11.79 93.1457 12.7208 94.1797 14.272C95.455 12.7208 97.5575 11.79 100.143 11.79C101.9 11.79 103.417 12.4105 104.451 13.4791C105.451 14.5133 106.037 15.961 106.037 18.374V29.5082H101.694V19.2013Z"
    fill="#1D1D1B"
  />
  <path
    d="M68.6292 29.9908C63.4935 29.9908 59.9434 26.2334 59.9434 20.8904C59.9434 15.5474 63.4246 11.79 68.4224 11.79C73.4546 11.79 76.9014 15.5474 76.9014 20.8904C76.9014 21.442 76.8669 21.9935 76.798 22.5106H64.2863C64.5965 24.958 66.2164 26.4058 68.6292 26.4058C70.3181 26.4058 71.5589 25.6474 72.1449 24.3031H76.6601C75.7984 27.7157 72.7653 29.9908 68.6292 29.9908ZM64.2863 19.1324H72.4895C72.1449 16.7884 70.6972 15.375 68.4224 15.375C66.182 15.375 64.6309 16.7539 64.2863 19.1324Z"
    fill="#1D1D1B"
  />
  <path
    d="M50.1874 29.5082V9.30813H42.7769V5.37842H62.0787V9.30813H54.6681V29.5082H50.1874Z"
    fill="#1D1D1B"
  />
  <path
    d="M18.6622 0L7.47113 11.1922L3.73506 7.45575L0 11.1912L3.73405 14.9257C5.79808 16.9899 9.14418 16.9899 11.2082 14.9257L22.3982 3.73444L18.6622 0Z"
    fill="#F54D42"
  />
  <path
    d="M1.06006 24.4322L16.3473 28.5288L14.9798 33.6329L20.082 35.0002L21.4488 29.8989C22.2042 27.079 20.5312 24.1809 17.7117 23.4254L2.42581 19.3291L1.06006 24.4322Z"
    fill="#9664FE"
  />
  <path
    d="M31.0314 27.5009L26.9352 12.2121L32.0388 10.8444L30.6717 5.7417L25.5708 7.1086C22.7513 7.86417 21.0783 10.7623 21.8338 13.5821L25.9296 28.8696L31.0314 27.5009Z"
    fill="#FFCC24"
  />
</svg>
