<svg xmlns="http://www.w3.org/2000/svg" xmlns:xlink="http://www.w3.org/1999/xlink" id="layer" x="0" y="0" version="1.1" viewBox="0 0 652 180" xml:space="preserve" style="enable-background:new 0 0 652 180"><style type="text/css">.st0{fill:#7f187f}.st1{fill:#82d170}.st2{fill:#f8cf1c}.st3{fill:#c6d636}.st4{fill:#d57dea}</style><path d="M237.6,56.1h-26.4c-2.4,0-4.3,2-4.4,4.4v5.9c0,1.6,1.3,2.8,2.9,2.8h4.4c0.1,0,0.3,0.1,0.3,0.2	c0.1,0.1,0.1,0.3,0.1,0.5l-10.3,31c-0.1,0.2-0.3,0.3-0.5,0.3s-0.4-0.1-0.4-0.3l-15.4-42l0,0c-0.4-1-1.4-1.7-2.5-1.8h-9.3	c-1.1,0.1-2.1,0.8-2.5,1.8l0,0l-15.5,42c0,0.2-0.2,0.3-0.4,0.3s-0.4-0.1-0.5-0.3l-10.3-31c0-0.2,0-0.3,0.1-0.5	c0.1-0.1,0.2-0.2,0.3-0.2h4.4c1.6,0,2.9-1.3,2.9-2.8v-5.9c0-2.4-2-4.4-4.4-4.4h-26.4c-0.9,0-1.8,0.5-2.4,1.2	c-0.5,0.7-0.7,1.6-0.4,2.4c0.4,1.1,0.8,2.4,1.3,3.7c0.5,1.3,0.9,2.6,1.3,3.7c0.4,1.2,1.5,2,2.7,2h4.4c0.2,0,0.4,0.1,0.5,0.4	l20.5,60.4c0.4,1.2,1.5,2,2.7,2h6.4c1.2,0,2.2-0.7,2.7-1.8c5.7-16.3,16.4-47.5,16.9-48.5c0.1-0.2,0.3-0.4,0.5-0.4s0.4,0.1,0.5,0.4	c0.4,1.1,11.2,32.2,16.9,48.6c0.4,1.1,1.5,1.9,2.7,1.9h6.4c1.2,0,2.3-0.8,2.7-2l20.5-60.4c0.2-0.4,0.4-0.4,0.5-0.4h4.4	c1.2,0,2.3-0.8,2.7-1.9c0.4-1.2,0.9-2.5,1.3-3.7c0.4-1.3,0.9-2.6,1.3-3.7c0.3-0.8,0.1-1.7-0.4-2.4C239.4,56.6,238.5,56.1,237.6,56.1	L237.6,56.1z M546.8,119.7H542c-0.7,0-1.3-0.6-1.4-1.4V58.8c0-1.1-0.9-1.9-1.9-1.9h-0.1h-14c-0.6,0-1.2,0.3-1.5,0.7l-5.8,7.3	c-0.3,0.3-0.4,0.8-0.4,1.2c0,1,0.8,1.9,1.9,2h1.8c0.7,0,1.3,0.6,1.4,1.4v48.7c0,0.4-0.1,0.8-0.4,1.1c-1.5,2-4.9,6.2-6.5,8.3	c-0.3,0.4-0.5,0.8-0.5,1.3c0,1.1,0.9,1.9,1.9,2H541c0.5,0,1-0.2,1.4-0.5l5.7-7.2C549.3,121.6,548.4,119.7,546.8,119.7L546.8,119.7z" class="st0"/><circle cx="531.2" cy="38.4" r="10.5" class="st0"/><g><path d="M623.8,63.1c0-1-0.5-2-1.9-2h-2.4v6.4h0.9v-2.4h0.8l1.6,2.4h1.1l-1.7-2.4C623.4,65,623.8,64,623.8,63.1z M620.4,64.3v-2.4h1.6c0.6,0,1,0.5,1,1.1v0.1c0.1,0.6-0.4,1.1-1,1.2h-0.1l0,0L620.4,64.3L620.4,64.3z" class="st0"/><path d="M621.5,58.8c-3,0-5.5,2.5-5.5,5.5s2.5,5.5,5.5,5.5s5.5-2.5,5.5-5.5S624.5,58.8,621.5,58.8z M621.5,69L621.5,69 c-2.6,0-4.7-2.1-4.7-4.7l0,0v-0.1c0-2.5,2.1-4.6,4.6-4.6h0.1c2.6,0,4.7,2.1,4.7,4.7C626.2,66.9,624,69,621.5,69z M306.5,120 c-4.1,0.2-6.1-1.7-6.1-6.4V80.2c0-14.6-12.3-23.9-26-23.9c-21.4,0-29.1,10.2-30,21.5c-0.1,1.1,0.8,2,1.9,2.1h0.1h10.5 c1,0,1.8-0.8,1.9-1.8c0.5-5.9,4.5-10.3,11.2-10.3c7.4,0,11.8,3.7,11.8,12.2v7.3H278c-13.2,0-22.2,1.7-28.3,5.5s-9.2,10.9-9.2,19.1 c0,6.1,2.1,11.1,6.3,15.1s9.1,5.7,15.5,5.7c3.8,0,7.6-0.9,11.1-2.5c3.4-1.5,6.6-3.5,9.3-6c0.6-0.5,1.4-0.5,2,0.1 c0.1,0.1,0.2,0.2,0.2,0.3c3,5.3,6.3,7,12.5,7c5.6,0,8.3-5.3,10.8-8.4C309.1,121.9,308.1,119.9,306.5,120z M281.9,114.7L281.9,114.7 c-0.1,0.5-0.8,1.1-1.1,1.4c-1.7,1.4-3.6,2.7-5.6,3.6c-1.8,0.8-3.8,1.2-5.8,1.1c-2.9,0-5.8-1.1-7.7-3.2c-1.9-2.1-3-4.9-2.9-7.8 c0-4.4,1.6-7.3,4.9-9.4c3.3-2.2,8.6-3.2,15.1-3.2h3.2L281.9,114.7z M507.3,120c-4.1,0.2-6.1-1.7-6.1-6.4V80.2 c0-14.6-12.3-23.9-26-23.9c-21.4,0-29.1,10.2-30,21.5c-0.1,1.1,0.8,2,1.9,2.1h0.1h10.5c1,0,1.8-0.8,1.9-1.8 c0.5-5.9,4.5-10.3,11.2-10.3c7.4,0,11.8,3.7,11.8,12.2v7.3h-3.8c-13.2,0-22.2,1.7-28.3,5.5c-6.1,3.8-9.2,10.9-9.2,19.1 c0,6.1,2.1,11.1,6.3,15.1c4.2,4,9.1,5.7,15.5,5.7c3.8,0,7.6-0.9,11.1-2.5c3.4-1.5,6.6-3.5,9.3-6c0.6-0.5,1.4-0.5,2,0.1 c0.1,0.1,0.2,0.2,0.2,0.3c3,5.3,6.3,7,12.5,7c5.6,0,8.3-5.3,10.8-8.4C509.8,121.9,508.8,119.9,507.3,120L507.3,120z M482.6,114.7 L482.6,114.7c-0.1,0.5-0.8,1.1-1.1,1.4c-1.7,1.4-3.6,2.7-5.6,3.6c-1.8,0.8-3.8,1.2-5.8,1.1c-2.9,0-5.8-1.1-7.7-3.2 c-1.9-2.1-3-4.9-2.9-7.8c0-4.4,1.6-7.3,4.9-9.4c3.3-2.2,8.6-3.2,15.1-3.2h3.2v17.5H482.6z M606.8,56.7c-1-0.5-3.4-0.8-5.5-0.8 c-3.4,0-6.1,0.5-8.5,1.5l-0.2,0.1c-0.9,0.4-1.7,0.9-2.5,1.5c-3,1.9-5.7,4.2-7.9,6.8c-2.3,2.7-1,0.8-1.2-0.5v-6.6c0-1.1-0.9-1.9-2-2 h-14.1c-0.6,0-1.1,0.3-1.4,0.7c-0.4,0.4-4.4,5.5-5.9,7.4c-0.9,1.1-0.3,3.2,1.5,3.2h1.8c0.8,0,1.4,0.6,1.4,1.4v48.9 c0,0.4-0.1,0.8-0.3,1.1c-1.4,1.7-4.9,6.1-6.6,8.3c-0.3,0.3-0.4,0.8-0.4,1.2c0,1.1,0.9,1.9,1.9,2h30.3c1.1,0,2-0.9,2-2v-7.3 c0-1.1-0.9-2-2-2h-4.8c-0.8,0-1.4-0.6-1.4-1.4V89.7c0.5-13.6,8.6-17.7,12.5-18.9l0.6-0.2h0.2c1.1-0.3,2.1-0.4,3.2-0.4 c4.6,0,6.3,0.7,8.8,1.3c1,0.3,2-0.9,2-2V58.4C608.2,57.7,607.5,57,606.8,56.7L606.8,56.7z M441.8,56.9h-22c-0.8,0-1.4-0.6-1.4-1.4 V44.6c0-5.3,2.7-10.5,8.3-10.5c6.4,0,7.4,5.4,7.6,9.4c0.1,1,0.9,1.8,1.9,1.9h9.1c1,0,1.8-0.9,1.8-1.9c-0.2-13.6-8.8-19.4-22.7-19.4 c-8.4,0-14,2.6-18.1,7.7c-4.2,5.1-6.3,10.7-6.3,20.9v2.7c0,0.7-0.6,1.3-1.4,1.4l-37.5,0.1H361c-1.1,0-1.9,0.9-1.9,1.9v7.4 c0,1.1,0.9,2,2,2h4c0.8,0,1.4,0.6,1.4,1.4c0,0.2,0,0.4-0.1,0.5c-0.1,0.2-10.3,24-14.5,33.7c-0.2,0.5-0.7,0.8-1.3,0.8 c-0.6,0-1-0.3-1.3-0.8c-4.3-9.7-14.7-33.7-14.7-33.7c-0.1-0.2-0.1-0.3-0.1-0.5c0-0.8,0.6-1.4,1.4-1.4h2.8c1.1,0,2-0.9,2-2v-7.4 c0-1.1-0.9-1.9-1.9-1.9h-0.1h-33.9c-1.1,0-1.9,0.9-2,2c0,0.3,0.1,0.6,0.2,0.9c1,1.8,3.3,6.1,3.9,7.4c0.3,0.6,1,1,1.6,1h6.5 c0.5,0,1,0.3,1.3,0.8c0.2,0.5,24.1,54.2,25,56.1c0.9,2.4,0.9,5.1,0,7.5c-1.1,4.4-8.5,12.4-12.6,10.9c-2.8-1-3.2-6.1-6.6-6.7 c-0.6-0.1-1.3,0-1.8,0.2c-0.6,0.2-6.1,7.3-7.3,8.5c-0.6,0.8-0.6,1.9,0,2.6c3,3.1,8.1,7.3,15.3,7.5c8.9,0.4,17.8-0.8,25.9-16.4 c0,0,26-63.5,29.1-70.4c0.3-0.5,0.7-0.7,1.3-0.7h13.7c0.8,0,1.4,0.6,1.4,1.4v48.8c0,0.4-0.1,0.8-0.4,1.1c-1.6,2.1-4.9,6.2-6.5,8.3 c-0.3,0.3-0.4,0.8-0.4,1.2c0,1.1,0.9,1.9,1.9,1.9l0,0H425c1.1,0,2-0.9,2-2v-7.3c0-1.1-0.9-2-2-2h-5c-0.7,0-1.3-0.6-1.4-1.4V69.3 c0-0.7,0.6-1.3,1.4-1.4h16.2c0.6,0,1.2-0.3,1.5-0.7c1.4-1.8,4.2-5.4,5.6-7.4c0.3-0.3,0.4-0.8,0.4-1.2 C443.7,57.8,442.9,57,441.8,56.9L441.8,56.9z" class="st0"/><path d="M110.8,80.4l-5.3-20c-0.2-0.7-0.7-1.2-1.4-1.4l-20-5.3c-0.7-0.2-1.4,0-1.8,0.5L69,67.7l28,28l13.4-13.4 C110.8,81.8,111,81.1,110.8,80.4L110.8,80.4z" class="st1"/><path d="M27.1,110.9l5.3,20c0.2,0.7,0.7,1.2,1.4,1.4l20,5.3c0.7,0.2,1.4,0,1.8-0.5L69,123.7l-28-28l-13.4,13.4 C27.1,109.6,26.9,110.3,27.1,110.9z" class="st2"/><path d="M53.7,53.8l-20,5.3c-0.7,0.2-1.2,0.7-1.4,1.4l-5.3,20c-0.2,0.7,0,1.4,0.5,1.8L41,95.7l28-28L55.6,54.3 C55.1,53.8,54.4,53.6,53.7,53.8z" class="st3"/><path d="M110.2,108.9L97,95.7l-28,28l13.2,13.2c0.6,0.6,1.5,0.8,2.3,0.6l19.4-5.2c0.8-0.2,1.5-0.9,1.7-1.7l5.2-19.4 C111,110.4,110.8,109.5,110.2,108.9L110.2,108.9z" class="st4"/><path d="M69,67.7l-28,28l28,28l28-28L69,67.7z" class="st0"/><path d="M110.8,80.4l-5.3-20c-0.2-0.7-0.7-1.2-1.4-1.4l-20-5.3c-0.7-0.2-1.4,0-1.8,0.5L69,67.7l28,28l13.4-13.4 C110.8,81.8,111,81.1,110.8,80.4L110.8,80.4z" class="st1"/><path d="M27.1,110.9l5.3,20c0.2,0.7,0.7,1.2,1.4,1.4l20,5.3c0.7,0.2,1.4,0,1.8-0.5L69,123.7l-28-28l-13.4,13.4 C27.1,109.6,26.9,110.3,27.1,110.9z" class="st2"/><path d="M53.7,53.8l-20,5.3c-0.7,0.2-1.2,0.7-1.4,1.4l-5.3,20c-0.2,0.7,0,1.4,0.5,1.8L41,95.7l28-28L55.6,54.3 C55.1,53.8,54.4,53.6,53.7,53.8z" class="st3"/><path d="M110.2,108.9L97,95.7l-28,28l13.2,13.2c0.6,0.6,1.5,0.8,2.3,0.6l19.4-5.2c0.8-0.2,1.5-0.9,1.7-1.7l5.2-19.4 C111,110.4,110.8,109.5,110.2,108.9L110.2,108.9z" class="st4"/><path d="M69,67.7l-28,28l28,28l28-28L69,67.7z" class="st0"/></g></svg>