<svg xmlns="http://www.w3.org/2000/svg" id="ead5dc57-4f73-4d8c-b9ad-207db9748d66" data-name="Layer 1" viewBox="0 0 820.41 570.5"><defs><style>.a36bb63e-487f-48c7-8627-3f7166c94fa7,.a41da682-3001-4db8-abed-bd69c400c3ed,.ae39068b-c5dc-4923-9f34-c492b7bd3d54,.b6e35510-390e-4bbc-994f-337e952c8178,.b7e2fcf4-f43a-4c5f-8096-a0f553dcc13b,.bb5e4ed6-4aff-4e84-b9c0-949181c334bf,.bca2f3aa-2186-493d-9826-83f0460996ed{fill:none}.a36bb63e-487f-48c7-8627-3f7166c94fa7{stroke:#466bb0;stroke-dasharray:10.02 10.02;stroke-linejoin:round}.a41da682-3001-4db8-abed-bd69c400c3ed,.ae39068b-c5dc-4923-9f34-c492b7bd3d54,.b6e35510-390e-4bbc-994f-337e952c8178,.bca2f3aa-2186-493d-9826-83f0460996ed{stroke-linejoin:round}.ac20a3f0-5d7e-4800-9128-1f85457521fe,.b4b61f03-a424-4320-aab8-1648b9031d89,.fa7f363a-5ad4-4790-9b51-eb87a9eb3504{font-size:12px}.a56d7675-6998-491f-ae00-cfa65889bf0f,.ac20a3f0-5d7e-4800-9128-1f85457521fe,.adf07721-8b3d-42f5-a732-aaf77e4bda22,.b4b61f03-a424-4320-aab8-1648b9031d89,.b672b7a5-a7d5-4f71-af2b-e18d53b6747d{fill:#010101}.ac20a3f0-5d7e-4800-9128-1f85457521fe{font-family:GoogleSansDisplay-Bold,Google Sans Display;font-weight:700}.b1caccd1-e39c-4979-b571-91a5452e0c82{letter-spacing:-.01em}.af2cf853-386a-4dd7-8aa8-63233c8e00e1{letter-spacing:.01em}.ec6c9a72-76aa-458b-b6e0-8a53b70f5ec1{letter-spacing:0}.b1bfa509-d043-4d5a-99b2-b66bb4b075d9{letter-spacing:-.01em}.afe16eea-ea6a-4605-8833-00c47af10d4f{letter-spacing:0}.Graphic-Style-8,.e8363bd5-c0b9-4ee9-8b7c-15353e7d221a{fill:#e5e5e4}.Graphic-Style-8,.b6e35510-390e-4bbc-994f-337e952c8178{stroke:#777678}.Graphic-Style-8,.b7e2fcf4-f43a-4c5f-8096-a0f553dcc13b,.bb5e4ed6-4aff-4e84-b9c0-949181c334bf{stroke-miterlimit:10}.a56d7675-6998-491f-ae00-cfa65889bf0f,.adf07721-8b3d-42f5-a732-aaf77e4bda22,.b4b61f03-a424-4320-aab8-1648b9031d89{isolation:isolate}.adf07721-8b3d-42f5-a732-aaf77e4bda22{font-size:14px}.adf07721-8b3d-42f5-a732-aaf77e4bda22,.b4b61f03-a424-4320-aab8-1648b9031d89,.b672b7a5-a7d5-4f71-af2b-e18d53b6747d,.fa7f363a-5ad4-4790-9b51-eb87a9eb3504{font-family:GoogleSansDisplay-Regular,Google Sans Display}.beaa001b-c2b4-4dc6-b992-c73e17791cdc{letter-spacing:0}.baa68678-a6a8-4b48-ad97-b67c362d63e1{letter-spacing:.01em}.ae93626f-41ac-42ff-9eca-5b7e8ead644a{letter-spacing:-.01em}.b1e4eb28-15cf-4a39-93d5-5c2a0f7fc195{fill:#496caf}.afa08acf-b841-409e-b061-eb54bfc25f00{fill:#fff}.b88207bd-644f-49c0-b3fa-8f0e49ffee2a{letter-spacing:-.02em}.b6233a2a-dd9b-4220-ae24-46a13d6815b9{letter-spacing:0}.bcec4562-fb74-45a7-932f-5614526c638f{letter-spacing:-.03em}.adef466a-18a6-4ccd-af7e-c6449ba8b801{letter-spacing:-.07em}.e780319d-42d1-4dd4-a8aa-940a3b735329{letter-spacing:-.02em}.e04b360b-0c45-4253-9ee0-9b2a8ba99dc1{letter-spacing:.01em}.a56d7675-6998-491f-ae00-cfa65889bf0f{font-size:11px;font-family:GoogleSansDisplay-Medium,Google Sans Display;font-weight:500}.a7af05b3-413c-4a75-a50a-4b90ad30e921{letter-spacing:-.02em}.a0270bcd-0b5f-4bba-a7f9-f7c00f818241{letter-spacing:.01em}.b2bfaab7-28e4-4a7a-b167-31cc86584396{letter-spacing:0}.fd02d5e2-82a7-4e47-a731-2a93ea938280{letter-spacing:-.01em}.a05b3575-56f2-4a83-9863-8250ee0b3b67{letter-spacing:0}.f4b760c4-92e1-4eb2-b1c0-f9ba7535d237{letter-spacing:-.04em}.ab31f351-1094-467f-8eab-dfba05d40765{letter-spacing:-.06em}.b583b9d0-aeea-459c-b347-46f387ba7627{letter-spacing:-.01em}.bea2b124-5f41-4280-9dff-bdabc4a0c274{letter-spacing:0}.e21d9cb7-8bfa-4c35-be2c-e730cad98ccb{letter-spacing:-.02em}.b672b7a5-a7d5-4f71-af2b-e18d53b6747d{font-size:12.5px}.bf98723f-de8c-4fdc-81fc-b5f2b581409c{letter-spacing:-.06em}.b9af66e7-fa6c-4aa0-aced-e78a678a43df{letter-spacing:-.01em}.ba47e8b1-4f13-4117-85cd-590437cf77d6{letter-spacing:.01em}.b871ae82-6e01-418d-af25-0d75f9a9332d{letter-spacing:-.01em}.add42a11-5270-42dc-af45-1948f5328a24{fill:#777678}.b7e2fcf4-f43a-4c5f-8096-a0f553dcc13b,.bca2f3aa-2186-493d-9826-83f0460996ed{stroke:#fff}.b6e35510-390e-4bbc-994f-337e952c8178,.b7e2fcf4-f43a-4c5f-8096-a0f553dcc13b,.bb5e4ed6-4aff-4e84-b9c0-949181c334bf,.bca2f3aa-2186-493d-9826-83f0460996ed{stroke-width:2px}.a41da682-3001-4db8-abed-bd69c400c3ed,.b6e35510-390e-4bbc-994f-337e952c8178,.b7e2fcf4-f43a-4c5f-8096-a0f553dcc13b{stroke-linecap:round}.ae39068b-c5dc-4923-9f34-c492b7bd3d54{stroke:#b24d9d;stroke-width:3px}.f0687b06-498c-400c-b0b8-439ab6d75bdb{letter-spacing:-.03em}.b723159f-31b3-4d5e-aee8-68774e3f16e9{letter-spacing:-.02em}.bb5e4ed6-4aff-4e84-b9c0-949181c334bf{stroke:#07a14a}.a309992b-2c43-4399-a6af-ced814da231a{fill:#07a14a}.ebfd466f-22fb-40db-9305-c2ade5a0b5f4{letter-spacing:-.03em}.a41da682-3001-4db8-abed-bd69c400c3ed,.b6e35510-390e-4bbc-994f-337e952c8178{stroke-dasharray:6 12}.fa7f363a-5ad4-4790-9b51-eb87a9eb3504{fill:#231f20}.a289c47c-4078-4af8-b983-af7f0a395dac{letter-spacing:-.03em}.b1e40f40-72d0-43cc-bc22-103cc020f0d1{letter-spacing:-.04em}.e8151d44-01d0-45fb-bd89-06cfa221f1ef{letter-spacing:0}.aabc3d22-6f00-44d2-8315-24db1be7943e,.b22e4d02-e92e-41b5-90d3-484c9562e856,.e761c7f2-2a80-446b-8847-516d020c80dd{letter-spacing:-.02em}.a41da682-3001-4db8-abed-bd69c400c3ed{stroke:#486baf;stroke-width:4px}.bead1b4b-ab26-4b54-9640-50f47e418db5{fill:#486baf}</style></defs><title>v1</title><rect width="819.41" height="432.11" x=".5" y="13.03" class="a36bb63e-487f-48c7-8627-3f7166c94fa7" rx="10"/><text class="ac20a3f0-5d7e-4800-9128-1f85457521fe" transform="translate(0.5 10.3)">I<tspan x="3.52" y="0" class="b1caccd1-e39c-4979-b571-91a5452e0c82">s</tspan><tspan x="9.38" y="0" class="af2cf853-386a-4dd7-8aa8-63233c8e00e1">t</tspan><tspan x="14.36" y="0" class="b1caccd1-e39c-4979-b571-91a5452e0c82">i</tspan><tspan x="17.56" y="0" class="ec6c9a72-76aa-458b-b6e0-8a53b70f5ec1">o </tspan><tspan x="27.46" y="0" class="b1bfa509-d043-4d5a-99b2-b66bb4b075d9">M</tspan><tspan x="38.08" y="0" class="afe16eea-ea6a-4605-8833-00c47af10d4f">e</tspan><tspan x="45" y="0" class="ec6c9a72-76aa-458b-b6e0-8a53b70f5ec1">sh</tspan></text><rect width="379.02" height="87.31" x="220.7" y="314.16" class="Graphic-Style-8" rx="9"/><text class="adf07721-8b3d-42f5-a732-aaf77e4bda22" transform="translate(268.92 362.05)">i<tspan x="3.14" y="0" class="beaa001b-c2b4-4dc6-b992-c73e17791cdc">s</tspan><tspan x="9.55" y="0" class="baa68678-a6a8-4b48-ad97-b67c362d63e1">t</tspan><tspan x="14.63" y="0" class="ae93626f-41ac-42ff-9eca-5b7e8ead644a">i</tspan><tspan x="17.7" y="0">od</tspan></text><rect id="acf3d0b5-b769-466c-95e4-a8aa0133b089" width="27.55" height="27.55" x="236.87" y="344.03" class="b1e4eb28-15cf-4a39-93d5-5c2a0f7fc195" data-name="background"/><polygon id="ab2b05bf-ea56-4a1e-bd05-23179a438045" points="243.69 365.29 257.6 365.29 248.94 367.91 243.69 365.29" class="afa08acf-b841-409e-b061-eb54bfc25f00" data-name="hull"/><polygon id="bfaa6594-9698-49d9-a9c0-5d6a7ad5a607" points="243.69 364.5 248.94 363.71 248.94 354.27 243.69 364.5" class="afa08acf-b841-409e-b061-eb54bfc25f00" data-name="mainsail"/><polygon id="f18a2695-d50d-4aab-8ce8-ea912eb910e2" points="249.73 363.71 257.6 364.5 249.73 347.44 249.73 363.71" class="afa08acf-b841-409e-b061-eb54bfc25f00" data-name="headsail"/><path d="M440.24,384.81H331.6a3,3,0,0,1-3-3v-48a3.08,3.08,0,0,1,3-3H440.24a3.08,3.08,0,0,1,3,3v48A3,3,0,0,1,440.24,384.81Z" class="afa08acf-b841-409e-b061-eb54bfc25f00"/><text class="b4b61f03-a424-4320-aab8-1648b9031d89" transform="translate(332.28 362.04)"><tspan class="b88207bd-644f-49c0-b3fa-8f0e49ffee2a">N</tspan><tspan x="8.3" y="0" class="ec6c9a72-76aa-458b-b6e0-8a53b70f5ec1">am</tspan><tspan x="24.94" y="0" class="afe16eea-ea6a-4605-8833-00c47af10d4f">e</tspan><tspan x="31.6" y="0" class="b1caccd1-e39c-4979-b571-91a5452e0c82">s</tspan><tspan x="37.09" y="0" class="ec6c9a72-76aa-458b-b6e0-8a53b70f5ec1">p</tspan><tspan x="44.12" y="0" class="b6233a2a-dd9b-4220-ae24-46a13d6815b9">ac</tspan><tspan x="56.68" y="0">e: </tspan><tspan x="68.89" y="0" class="bcec4562-fb74-45a7-932f-5614526c638f">F</tspan><tspan x="74.89" y="0" class="ec6c9a72-76aa-458b-b6e0-8a53b70f5ec1">oo</tspan><tspan x="0" y="14.4" class="adef466a-18a6-4ccd-af7e-c6449ba8b801">T</tspan><tspan x="5.56" y="14.4">a</tspan><tspan x="11.82" y="14.4" class="e780319d-42d1-4dd4-a8aa-940a3b735329">r</tspan><tspan x="15.91" y="14.4" class="b1caccd1-e39c-4979-b571-91a5452e0c82">g</tspan><tspan x="22.91" y="14.4" class="b88207bd-644f-49c0-b3fa-8f0e49ffee2a">e</tspan><tspan x="29.33" y="14.4" class="e04b360b-0c45-4253-9ee0-9b2a8ba99dc1">t</tspan><tspan x="33.74" y="14.4">s: all</tspan></text><text class="a56d7675-6998-491f-ae00-cfa65889bf0f" transform="translate(332.28 342.31)"><tspan class="a7af05b3-413c-4a75-a50a-4b90ad30e921">A</tspan><tspan x="7.36" y="0" class="a0270bcd-0b5f-4bba-a7f9-f7c00f818241">ut</tspan><tspan x="17.97" y="0">he</tspan><tspan x="30.44" y="0" class="a7af05b3-413c-4a75-a50a-4b90ad30e921">n</tspan><tspan x="36.44" y="0" class="a0270bcd-0b5f-4bba-a7f9-f7c00f818241">t</tspan><tspan x="40.72" y="0" class="b2bfaab7-28e4-4a7a-b167-31cc86584396">ic</tspan><tspan x="49.33" y="0" class="fd02d5e2-82a7-4e47-a731-2a93ea938280">a</tspan><tspan x="55.11" y="0" class="a0270bcd-0b5f-4bba-a7f9-f7c00f818241">t</tspan><tspan x="59.39" y="0" class="b2bfaab7-28e4-4a7a-b167-31cc86584396">i</tspan><tspan x="62.05" y="0" class="fd02d5e2-82a7-4e47-a731-2a93ea938280">o</tspan><tspan x="68.39" y="0" class="a05b3575-56f2-4a83-9863-8250ee0b3b67">n p</tspan><tspan x="83.8" y="0" class="b2bfaab7-28e4-4a7a-b167-31cc86584396">o</tspan><tspan x="90.19" y="0">l</tspan><tspan x="92.74" y="0" class="b2bfaab7-28e4-4a7a-b167-31cc86584396">i</tspan><tspan x="95.4" y="0">cy</tspan></text><path d="M580.54,384.81H471.9a3,3,0,0,1-3-3v-48a3.08,3.08,0,0,1,3-3H580.54a3.08,3.08,0,0,1,3,3v48A3,3,0,0,1,580.54,384.81Z" class="afa08acf-b841-409e-b061-eb54bfc25f00"/><text class="b4b61f03-a424-4320-aab8-1648b9031d89" transform="translate(472.58 362.04)"><tspan class="b88207bd-644f-49c0-b3fa-8f0e49ffee2a">N</tspan><tspan x="8.3" y="0" class="ec6c9a72-76aa-458b-b6e0-8a53b70f5ec1">am</tspan><tspan x="24.94" y="0" class="afe16eea-ea6a-4605-8833-00c47af10d4f">e</tspan><tspan x="31.6" y="0" class="b1caccd1-e39c-4979-b571-91a5452e0c82">s</tspan><tspan x="37.09" y="0" class="ec6c9a72-76aa-458b-b6e0-8a53b70f5ec1">p</tspan><tspan x="44.12" y="0" class="b6233a2a-dd9b-4220-ae24-46a13d6815b9">ac</tspan><tspan x="56.68" y="0">e: Bar</tspan><tspan x="0" y="14.4" class="adef466a-18a6-4ccd-af7e-c6449ba8b801">T</tspan><tspan x="5.56" y="14.4">a</tspan><tspan x="11.82" y="14.4" class="e780319d-42d1-4dd4-a8aa-940a3b735329">r</tspan><tspan x="15.91" y="14.4" class="b1caccd1-e39c-4979-b571-91a5452e0c82">g</tspan><tspan x="22.91" y="14.4" class="b88207bd-644f-49c0-b3fa-8f0e49ffee2a">e</tspan><tspan x="29.33" y="14.4" class="e04b360b-0c45-4253-9ee0-9b2a8ba99dc1">t</tspan><tspan x="33.74" y="14.4">s:</tspan><tspan x="42.13" y="14.4" class="f4b760c4-92e1-4eb2-b1c0-f9ba7535d237"> </tspan><tspan x="44.44" y="14.4" class="ab31f351-1094-467f-8eab-dfba05d40765">W</tspan><tspan x="55.08" y="14.4" class="b583b9d0-aeea-459c-b347-46f387ba7627">o</tspan><tspan x="61.88" y="14.4" class="af2cf853-386a-4dd7-8aa8-63233c8e00e1">r</tspan><tspan x="66.34" y="14.4">k</tspan><tspan x="72.26" y="14.4" class="b6233a2a-dd9b-4220-ae24-46a13d6815b9">l</tspan><tspan x="74.71" y="14.4">o</tspan><tspan x="81.64" y="14.4" class="b6233a2a-dd9b-4220-ae24-46a13d6815b9">a</tspan><tspan x="87.84" y="14.4" class="bea2b124-5f41-4280-9dff-bdabc4a0c274">d</tspan><tspan x="94.92" y="14.4" class="e21d9cb7-8bfa-4c35-be2c-e730cad98ccb"> </tspan><tspan x="97.46" y="14.4" class="bea2b124-5f41-4280-9dff-bdabc4a0c274">X</tspan></text><text class="a56d7675-6998-491f-ae00-cfa65889bf0f" transform="translate(472.58 342.31)"><tspan class="a7af05b3-413c-4a75-a50a-4b90ad30e921">A</tspan><tspan x="7.36" y="0" class="a0270bcd-0b5f-4bba-a7f9-f7c00f818241">ut</tspan><tspan x="17.97" y="0">he</tspan><tspan x="30.44" y="0" class="a7af05b3-413c-4a75-a50a-4b90ad30e921">n</tspan><tspan x="36.44" y="0" class="a0270bcd-0b5f-4bba-a7f9-f7c00f818241">t</tspan><tspan x="40.72" y="0" class="b2bfaab7-28e4-4a7a-b167-31cc86584396">ic</tspan><tspan x="49.33" y="0" class="fd02d5e2-82a7-4e47-a731-2a93ea938280">a</tspan><tspan x="55.11" y="0" class="a0270bcd-0b5f-4bba-a7f9-f7c00f818241">t</tspan><tspan x="59.39" y="0" class="b2bfaab7-28e4-4a7a-b167-31cc86584396">i</tspan><tspan x="62.05" y="0" class="fd02d5e2-82a7-4e47-a731-2a93ea938280">o</tspan><tspan x="68.39" y="0" class="a05b3575-56f2-4a83-9863-8250ee0b3b67">n p</tspan><tspan x="83.8" y="0" class="b2bfaab7-28e4-4a7a-b167-31cc86584396">o</tspan><tspan x="90.19" y="0">l</tspan><tspan x="92.74" y="0" class="b2bfaab7-28e4-4a7a-b167-31cc86584396">i</tspan><tspan x="95.4" y="0">cy</tspan></text><rect width="127.56" height="134.03" x="229.23" y="89.88" class="e8363bd5-c0b9-4ee9-8b7c-15353e7d221a" rx="3"/><rect width="104.46" height="36.02" x="240.78" y="105.2" class="afa08acf-b841-409e-b061-eb54bfc25f00" rx="3"/><text class="b672b7a5-a7d5-4f71-af2b-e18d53b6747d" transform="translate(280.65 127.25)"><tspan class="bf98723f-de8c-4fdc-81fc-b5f2b581409c">W</tspan><tspan x="11.09" y="0" class="b9af66e7-fa6c-4aa0-aced-e78a678a43df">o</tspan><tspan x="18.17" y="0" class="ba47e8b1-4f13-4117-85cd-590437cf77d6">r</tspan><tspan x="22.81" y="0">k</tspan><tspan x="28.99" y="0" class="b871ae82-6e01-418d-af25-0d75f9a9332d">l</tspan><tspan x="31.54" y="0">o</tspan><tspan x="38.75" y="0" class="b871ae82-6e01-418d-af25-0d75f9a9332d">a</tspan><tspan x="45.21" y="0">d B</tspan></text><circle cx="260.83" cy="123.22" r="16.07" class="add42a11-5270-42dc-af45-1948f5328a24"/><rect width="11.42" height="11.42" x="255.12" y="117.4" class="bca2f3aa-2186-493d-9826-83f0460996ed"/><line x1="257.24" x2="257.24" y1="117.4" y2="114.65" class="b7e2fcf4-f43a-4c5f-8096-a0f553dcc13b"/><line x1="260.83" x2="260.83" y1="117.4" y2="114.65" class="b7e2fcf4-f43a-4c5f-8096-a0f553dcc13b"/><line x1="264.42" x2="264.42" y1="117.4" y2="114.65" class="b7e2fcf4-f43a-4c5f-8096-a0f553dcc13b"/><line x1="257.24" x2="257.24" y1="131.78" y2="129.03" class="b7e2fcf4-f43a-4c5f-8096-a0f553dcc13b"/><line x1="260.83" x2="260.83" y1="131.78" y2="129.03" class="b7e2fcf4-f43a-4c5f-8096-a0f553dcc13b"/><line x1="264.42" x2="264.42" y1="131.78" y2="129.03" class="b7e2fcf4-f43a-4c5f-8096-a0f553dcc13b"/><line x1="255.01" x2="252.27" y1="126.81" y2="126.81" class="b7e2fcf4-f43a-4c5f-8096-a0f553dcc13b"/><line x1="255.01" x2="252.27" y1="123.22" y2="123.22" class="b7e2fcf4-f43a-4c5f-8096-a0f553dcc13b"/><line x1="255.01" x2="252.27" y1="119.62" y2="119.62" class="b7e2fcf4-f43a-4c5f-8096-a0f553dcc13b"/><line x1="269.39" x2="266.64" y1="126.81" y2="126.81" class="b7e2fcf4-f43a-4c5f-8096-a0f553dcc13b"/><line x1="269.39" x2="266.64" y1="123.22" y2="123.22" class="b7e2fcf4-f43a-4c5f-8096-a0f553dcc13b"/><line x1="269.39" x2="266.64" y1="119.62" y2="119.62" class="b7e2fcf4-f43a-4c5f-8096-a0f553dcc13b"/><rect width="5.07" height="5.07" x="258.29" y="120.57" class="afa08acf-b841-409e-b061-eb54bfc25f00" rx="2"/><rect width="104.46" height="34.89" x="240.78" y="173.69" class="afa08acf-b841-409e-b061-eb54bfc25f00" rx="3"/><polygon points="276.73 197.97 276.73 184.31 264.89 177.48 253.05 184.31 253.05 197.97 264.89 204.8 276.73 197.97" class="ae39068b-c5dc-4923-9f34-c492b7bd3d54"/><text class="b672b7a5-a7d5-4f71-af2b-e18d53b6747d" transform="translate(287.59 195.11)">P<tspan x="7.17" y="0" class="f0687b06-498c-400c-b0b8-439ab6d75bdb">r</tspan><tspan x="11.37" y="0" class="b723159f-31b3-4d5e-aee8-68774e3f16e9">o</tspan><tspan x="18.4" y="0">xy</tspan></text><line x1="293.01" x2="293.01" y1="148.27" y2="166.95" class="bb5e4ed6-4aff-4e84-b9c0-949181c334bf"/><polygon points="288.02 149.73 293.01 141.09 298 149.73 288.02 149.73" class="a309992b-2c43-4399-a6af-ced814da231a"/><polygon points="288.02 165.49 293.01 174.13 298 165.49 288.02 165.49" class="a309992b-2c43-4399-a6af-ced814da231a"/><rect width="127.56" height="134.03" x="32.57" y="89.88" class="e8363bd5-c0b9-4ee9-8b7c-15353e7d221a" rx="3"/><rect width="104.46" height="36.02" x="44.12" y="105.2" class="afa08acf-b841-409e-b061-eb54bfc25f00" rx="3"/><text class="b672b7a5-a7d5-4f71-af2b-e18d53b6747d" transform="translate(83.77 127.25)"><tspan class="bf98723f-de8c-4fdc-81fc-b5f2b581409c">W</tspan><tspan x="11.09" y="0" class="b9af66e7-fa6c-4aa0-aced-e78a678a43df">o</tspan><tspan x="18.17" y="0" class="ba47e8b1-4f13-4117-85cd-590437cf77d6">r</tspan><tspan x="22.81" y="0">k</tspan><tspan x="28.99" y="0" class="b871ae82-6e01-418d-af25-0d75f9a9332d">l</tspan><tspan x="31.54" y="0">o</tspan><tspan x="38.75" y="0" class="b871ae82-6e01-418d-af25-0d75f9a9332d">a</tspan><tspan x="45.21" y="0">d</tspan><tspan x="52.58" y="0" class="ebfd466f-22fb-40db-9305-c2ade5a0b5f4"> </tspan><tspan x="55.11" y="0">A</tspan></text><circle cx="64.17" cy="123.22" r="16.07" class="add42a11-5270-42dc-af45-1948f5328a24"/><rect width="11.42" height="11.42" x="58.46" y="117.4" class="bca2f3aa-2186-493d-9826-83f0460996ed"/><line x1="60.57" x2="60.57" y1="117.4" y2="114.65" class="b7e2fcf4-f43a-4c5f-8096-a0f553dcc13b"/><line x1="64.17" x2="64.17" y1="117.4" y2="114.65" class="b7e2fcf4-f43a-4c5f-8096-a0f553dcc13b"/><line x1="67.76" x2="67.76" y1="117.4" y2="114.65" class="b7e2fcf4-f43a-4c5f-8096-a0f553dcc13b"/><line x1="60.57" x2="60.57" y1="131.78" y2="129.03" class="b7e2fcf4-f43a-4c5f-8096-a0f553dcc13b"/><line x1="64.17" x2="64.17" y1="131.78" y2="129.03" class="b7e2fcf4-f43a-4c5f-8096-a0f553dcc13b"/><line x1="67.76" x2="67.76" y1="131.78" y2="129.03" class="b7e2fcf4-f43a-4c5f-8096-a0f553dcc13b"/><line x1="58.35" x2="55.6" y1="126.81" y2="126.81" class="b7e2fcf4-f43a-4c5f-8096-a0f553dcc13b"/><line x1="58.35" x2="55.6" y1="123.22" y2="123.22" class="b7e2fcf4-f43a-4c5f-8096-a0f553dcc13b"/><line x1="58.35" x2="55.6" y1="119.62" y2="119.62" class="b7e2fcf4-f43a-4c5f-8096-a0f553dcc13b"/><line x1="72.73" x2="69.98" y1="126.81" y2="126.81" class="b7e2fcf4-f43a-4c5f-8096-a0f553dcc13b"/><line x1="72.73" x2="69.98" y1="123.22" y2="123.22" class="b7e2fcf4-f43a-4c5f-8096-a0f553dcc13b"/><line x1="72.73" x2="69.98" y1="119.62" y2="119.62" class="b7e2fcf4-f43a-4c5f-8096-a0f553dcc13b"/><rect width="5.07" height="5.07" x="61.63" y="120.57" class="afa08acf-b841-409e-b061-eb54bfc25f00" rx="2"/><rect width="104.46" height="34.89" x="44.12" y="173.69" class="afa08acf-b841-409e-b061-eb54bfc25f00" rx="3"/><polygon points="80.06 197.97 80.06 184.31 68.22 177.48 56.39 184.31 56.39 197.97 68.22 204.8 80.06 197.97" class="ae39068b-c5dc-4923-9f34-c492b7bd3d54"/><text class="b672b7a5-a7d5-4f71-af2b-e18d53b6747d" transform="translate(90.93 195.11)">P<tspan x="7.17" y="0" class="f0687b06-498c-400c-b0b8-439ab6d75bdb">r</tspan><tspan x="11.37" y="0" class="b723159f-31b3-4d5e-aee8-68774e3f16e9">o</tspan><tspan x="18.4" y="0">xy</tspan></text><line x1="96.35" x2="96.35" y1="148.27" y2="166.95" class="bb5e4ed6-4aff-4e84-b9c0-949181c334bf"/><polygon points="91.36 149.73 96.35 141.09 101.33 149.73 91.36 149.73" class="a309992b-2c43-4399-a6af-ced814da231a"/><polygon points="91.36 165.49 96.35 174.13 101.33 165.49 91.36 165.49" class="a309992b-2c43-4399-a6af-ced814da231a"/><rect width="360.82" height="174.01" x="14.27" y="69.89" class="b6e35510-390e-4bbc-994f-337e952c8178" rx="5"/><text class="fa7f363a-5ad4-4790-9b51-eb87a9eb3504" transform="translate(14.27 67.02)"><tspan class="a289c47c-4078-4af8-b983-af7f0a395dac">F</tspan><tspan x="6" y="0">oo</tspan></text><rect width="127.56" height="134.03" x="660.28" y="89.88" class="e8363bd5-c0b9-4ee9-8b7c-15353e7d221a" rx="3"/><rect width="104.46" height="36.02" x="671.83" y="105.2" class="afa08acf-b841-409e-b061-eb54bfc25f00" rx="3"/><text class="b672b7a5-a7d5-4f71-af2b-e18d53b6747d" transform="translate(712.01 127.25)"><tspan class="bf98723f-de8c-4fdc-81fc-b5f2b581409c">W</tspan><tspan x="11.09" y="0" class="b9af66e7-fa6c-4aa0-aced-e78a678a43df">o</tspan><tspan x="18.17" y="0" class="ba47e8b1-4f13-4117-85cd-590437cf77d6">r</tspan><tspan x="22.81" y="0">k</tspan><tspan x="28.99" y="0" class="b871ae82-6e01-418d-af25-0d75f9a9332d">l</tspan><tspan x="31.54" y="0">o</tspan><tspan x="38.75" y="0" class="b871ae82-6e01-418d-af25-0d75f9a9332d">a</tspan><tspan x="45.21" y="0">d</tspan><tspan x="52.58" y="0" class="b1e40f40-72d0-43cc-bc22-103cc020f0d1"> </tspan><tspan x="54.98" y="0" class="e8151d44-01d0-45fb-bd89-06cfa221f1ef">Y</tspan></text><circle cx="691.88" cy="123.22" r="16.07" class="add42a11-5270-42dc-af45-1948f5328a24"/><rect width="11.42" height="11.42" x="686.17" y="117.4" class="bca2f3aa-2186-493d-9826-83f0460996ed"/><line x1="688.29" x2="688.29" y1="117.4" y2="114.65" class="b7e2fcf4-f43a-4c5f-8096-a0f553dcc13b"/><line x1="691.88" x2="691.88" y1="117.4" y2="114.65" class="b7e2fcf4-f43a-4c5f-8096-a0f553dcc13b"/><line x1="695.47" x2="695.47" y1="117.4" y2="114.65" class="b7e2fcf4-f43a-4c5f-8096-a0f553dcc13b"/><line x1="688.29" x2="688.29" y1="131.78" y2="129.03" class="b7e2fcf4-f43a-4c5f-8096-a0f553dcc13b"/><line x1="691.88" x2="691.88" y1="131.78" y2="129.03" class="b7e2fcf4-f43a-4c5f-8096-a0f553dcc13b"/><line x1="695.47" x2="695.47" y1="131.78" y2="129.03" class="b7e2fcf4-f43a-4c5f-8096-a0f553dcc13b"/><line x1="686.07" x2="683.32" y1="126.81" y2="126.81" class="b7e2fcf4-f43a-4c5f-8096-a0f553dcc13b"/><line x1="686.07" x2="683.32" y1="123.22" y2="123.22" class="b7e2fcf4-f43a-4c5f-8096-a0f553dcc13b"/><line x1="686.07" x2="683.32" y1="119.62" y2="119.62" class="b7e2fcf4-f43a-4c5f-8096-a0f553dcc13b"/><line x1="700.44" x2="697.69" y1="126.81" y2="126.81" class="b7e2fcf4-f43a-4c5f-8096-a0f553dcc13b"/><line x1="700.44" x2="697.69" y1="123.22" y2="123.22" class="b7e2fcf4-f43a-4c5f-8096-a0f553dcc13b"/><line x1="700.44" x2="697.69" y1="119.62" y2="119.62" class="b7e2fcf4-f43a-4c5f-8096-a0f553dcc13b"/><rect width="5.07" height="5.07" x="689.34" y="120.57" class="afa08acf-b841-409e-b061-eb54bfc25f00" rx="2"/><rect width="104.46" height="34.89" x="671.83" y="173.69" class="afa08acf-b841-409e-b061-eb54bfc25f00" rx="3"/><polygon points="707.78 197.97 707.78 184.31 695.94 177.48 684.1 184.31 684.1 197.97 695.94 204.8 707.78 197.97" class="ae39068b-c5dc-4923-9f34-c492b7bd3d54"/><text class="b672b7a5-a7d5-4f71-af2b-e18d53b6747d" transform="translate(718.64 195.11)">P<tspan x="7.17" y="0" class="f0687b06-498c-400c-b0b8-439ab6d75bdb">r</tspan><tspan x="11.37" y="0" class="b723159f-31b3-4d5e-aee8-68774e3f16e9">o</tspan><tspan x="18.4" y="0">xy</tspan></text><line x1="724.06" x2="724.06" y1="148.27" y2="166.95" class="bb5e4ed6-4aff-4e84-b9c0-949181c334bf"/><polygon points="719.08 149.73 724.06 141.09 729.05 149.73 719.08 149.73" class="a309992b-2c43-4399-a6af-ced814da231a"/><polygon points="719.08 165.49 724.06 174.13 729.05 165.49 719.08 165.49" class="a309992b-2c43-4399-a6af-ced814da231a"/><rect width="127.56" height="134.03" x="463.62" y="89.88" class="e8363bd5-c0b9-4ee9-8b7c-15353e7d221a" rx="3"/><rect width="104.46" height="36.02" x="475.17" y="105.2" class="afa08acf-b841-409e-b061-eb54bfc25f00" rx="3"/><text class="b672b7a5-a7d5-4f71-af2b-e18d53b6747d" transform="translate(515 127.25)"><tspan class="bf98723f-de8c-4fdc-81fc-b5f2b581409c">W</tspan><tspan x="11.09" y="0" class="b9af66e7-fa6c-4aa0-aced-e78a678a43df">o</tspan><tspan x="18.17" y="0" class="ba47e8b1-4f13-4117-85cd-590437cf77d6">r</tspan><tspan x="22.81" y="0">k</tspan><tspan x="28.99" y="0" class="b871ae82-6e01-418d-af25-0d75f9a9332d">l</tspan><tspan x="31.54" y="0">o</tspan><tspan x="38.75" y="0" class="b871ae82-6e01-418d-af25-0d75f9a9332d">a</tspan><tspan x="45.21" y="0">d</tspan><tspan x="52.58" y="0" class="b22e4d02-e92e-41b5-90d3-484c9562e856"> </tspan><tspan x="55.23" y="0">X</tspan></text><circle cx="495.22" cy="123.22" r="16.07" class="add42a11-5270-42dc-af45-1948f5328a24"/><rect width="11.42" height="11.42" x="489.51" y="117.4" class="bca2f3aa-2186-493d-9826-83f0460996ed"/><line x1="491.62" x2="491.62" y1="117.4" y2="114.65" class="b7e2fcf4-f43a-4c5f-8096-a0f553dcc13b"/><line x1="495.22" x2="495.22" y1="117.4" y2="114.65" class="b7e2fcf4-f43a-4c5f-8096-a0f553dcc13b"/><line x1="498.81" x2="498.81" y1="117.4" y2="114.65" class="b7e2fcf4-f43a-4c5f-8096-a0f553dcc13b"/><line x1="491.62" x2="491.62" y1="131.78" y2="129.03" class="b7e2fcf4-f43a-4c5f-8096-a0f553dcc13b"/><line x1="495.22" x2="495.22" y1="131.78" y2="129.03" class="b7e2fcf4-f43a-4c5f-8096-a0f553dcc13b"/><line x1="498.81" x2="498.81" y1="131.78" y2="129.03" class="b7e2fcf4-f43a-4c5f-8096-a0f553dcc13b"/><line x1="489.4" x2="486.65" y1="126.81" y2="126.81" class="b7e2fcf4-f43a-4c5f-8096-a0f553dcc13b"/><line x1="489.4" x2="486.65" y1="123.22" y2="123.22" class="b7e2fcf4-f43a-4c5f-8096-a0f553dcc13b"/><line x1="489.4" x2="486.65" y1="119.62" y2="119.62" class="b7e2fcf4-f43a-4c5f-8096-a0f553dcc13b"/><line x1="503.78" x2="501.03" y1="126.81" y2="126.81" class="b7e2fcf4-f43a-4c5f-8096-a0f553dcc13b"/><line x1="503.78" x2="501.03" y1="123.22" y2="123.22" class="b7e2fcf4-f43a-4c5f-8096-a0f553dcc13b"/><line x1="503.78" x2="501.03" y1="119.62" y2="119.62" class="b7e2fcf4-f43a-4c5f-8096-a0f553dcc13b"/><rect width="5.07" height="5.07" x="492.68" y="120.57" class="afa08acf-b841-409e-b061-eb54bfc25f00" rx="2"/><rect width="104.46" height="34.89" x="475.17" y="173.69" class="afa08acf-b841-409e-b061-eb54bfc25f00" rx="3"/><polygon points="511.11 197.97 511.11 184.31 499.27 177.48 487.44 184.31 487.44 197.97 499.27 204.8 511.11 197.97" class="ae39068b-c5dc-4923-9f34-c492b7bd3d54"/><text class="b672b7a5-a7d5-4f71-af2b-e18d53b6747d" transform="translate(521.98 195.11)">P<tspan x="7.17" y="0" class="f0687b06-498c-400c-b0b8-439ab6d75bdb">r</tspan><tspan x="11.37" y="0" class="b723159f-31b3-4d5e-aee8-68774e3f16e9">o</tspan><tspan x="18.4" y="0">xy</tspan></text><line x1="527.4" x2="527.4" y1="148.27" y2="166.95" class="bb5e4ed6-4aff-4e84-b9c0-949181c334bf"/><polygon points="522.41 149.73 527.4 141.09 532.38 149.73 522.41 149.73" class="a309992b-2c43-4399-a6af-ced814da231a"/><polygon points="522.41 165.49 527.4 174.13 532.38 165.49 522.41 165.49" class="a309992b-2c43-4399-a6af-ced814da231a"/><rect width="360.82" height="174.01" x="445.32" y="69.89" class="b6e35510-390e-4bbc-994f-337e952c8178" rx="5"/><text class="fa7f363a-5ad4-4790-9b51-eb87a9eb3504" transform="translate(445.32 67.02)">Bar</text><path d="M461.77,537.49a8.32,8.32,0,0,1,4.24,1.14,8.46,8.46,0,0,1,3.1,3.1,8.29,8.29,0,0,1,1.13,4.24v2.66a3,3,0,0,1-3,3H444.94a3,3,0,0,1-3-3V546a8.3,8.3,0,0,1,1.14-4.24,8.38,8.38,0,0,1,3.1-3.1,8.3,8.3,0,0,1,4.24-1.14h1.07a11.07,11.07,0,0,0,9.24,0Zm-5.7-2a8.13,8.13,0,0,1-7-12.18,7.93,7.93,0,0,1,2.94-2.95,8.31,8.31,0,0,1,8.16,0,7.78,7.78,0,0,1,2.94,2.95,8.25,8.25,0,0,1,0,8.16,7.83,7.83,0,0,1-2.94,2.94A8,8,0,0,1,456.07,535.47Z" class="add42a11-5270-42dc-af45-1948f5328a24"/><text class="fa7f363a-5ad4-4790-9b51-eb87a9eb3504" transform="translate(417.1 567.47)"><tspan class="b88207bd-644f-49c0-b3fa-8f0e49ffee2a">A</tspan><tspan x="7.84" y="0">dmini</tspan><tspan x="37.31" y="0" class="b1caccd1-e39c-4979-b571-91a5452e0c82">s</tspan><tspan x="42.8" y="0">t</tspan><tspan x="47.1" y="0" class="e21d9cb7-8bfa-4c35-be2c-e730cad98ccb">r</tspan><tspan x="51.25" y="0" class="b583b9d0-aeea-459c-b347-46f387ba7627">a</tspan><tspan x="57.4" y="0" class="aabc3d22-6f00-44d2-8315-24db1be7943e">t</tspan><tspan x="61.43" y="0" class="b1bfa509-d043-4d5a-99b2-b66bb4b075d9">o</tspan><tspan x="68.23" y="0" class="e761c7f2-2a80-446b-8847-516d020c80dd">r</tspan><tspan x="72.38" y="0">s</tspan></text><polyline points="456.07 516.27 456.07 483.03 385.92 483.03 385.92 391.99" class="a41da682-3001-4db8-abed-bd69c400c3ed"/><polygon points="390.91 393.44 385.92 384.81 380.94 393.44 390.91 393.44" class="bead1b4b-ab26-4b54-9640-50f47e418db5"/><polyline points="456.07 483.03 526.22 483.03 526.22 391.99" class="a41da682-3001-4db8-abed-bd69c400c3ed"/><polygon points="531.21 393.44 526.22 384.81 521.23 393.44 531.21 393.44" class="bead1b4b-ab26-4b54-9640-50f47e418db5"/><polyline points="293.05 215.76 293.05 261.37 293.05 314.16" class="a41da682-3001-4db8-abed-bd69c400c3ed"/><polygon points="288.06 217.22 293.05 208.58 298.03 217.22 288.06 217.22" class="bead1b4b-ab26-4b54-9640-50f47e418db5"/><polyline points="96.38 215.76 96.38 261.37 293.05 261.37" class="a41da682-3001-4db8-abed-bd69c400c3ed"/><polygon points="91.4 217.22 96.38 208.58 101.37 217.22 91.4 217.22" class="bead1b4b-ab26-4b54-9640-50f47e418db5"/><line x1="527.43" x2="527.43" y1="215.76" y2="314.16" class="a41da682-3001-4db8-abed-bd69c400c3ed"/><polygon points="522.45 217.22 527.43 208.58 532.42 217.22 522.45 217.22" class="bead1b4b-ab26-4b54-9640-50f47e418db5"/></svg>