<svg xmlns="http://www.w3.org/2000/svg" viewBox="0 0 1003.27 530.67"><defs><style>.a30cd5eb-b905-49b2-ba77-2bb09b1db2d3,.aba8be76-3214-4280-8b97-caecb6c90cb8,.aec00d7a-1275-4a4a-8299-79fd42153805,.b22edeaa-928b-42c6-8e35-e9b00fd46b29,.b9c7b889-1b0e-438c-901c-636ce7b868fd,.bf3bedf1-3202-49f0-97bc-7646244139c1,.e7a934e7-16e9-4ee5-a484-bcb8acaffad3{fill:none}.a30cd5eb-b905-49b2-ba77-2bb09b1db2d3,.aba8be76-3214-4280-8b97-caecb6c90cb8,.aec00d7a-1275-4a4a-8299-79fd42153805,.b22edeaa-928b-42c6-8e35-e9b00fd46b29,.bf3bedf1-3202-49f0-97bc-7646244139c1{stroke-linejoin:round}.bca0067d-55d8-4d36-b767-5da3f7aed93a,.fbcee516-e710-47dd-8b02-f8e6fd7368fc{font-family:Roboto-Regular,Roboto}.fbcee516-e710-47dd-8b02-f8e6fd7368fc{font-size:13.95px}.a30cd5eb-b905-49b2-ba77-2bb09b1db2d3{stroke:#fbb040;stroke-width:2px}.b22edeaa-928b-42c6-8e35-e9b00fd46b29,.e7a934e7-16e9-4ee5-a484-bcb8acaffad3{stroke-width:2px}.f435301c-94a0-4c4b-bebf-a6c07eb95f88{opacity:.25}.f5cbfec5-1b0c-4a31-84b0-a54080ccd205{fill:#e5e5e4}.a5c7e88e-c664-4908-ad6a-f0418d8dfe88{fill:#fff}.bca0067d-55d8-4d36-b767-5da3f7aed93a{font-size:16.27px}.f51b2273-e850-40e1-8708-c51fc0f85066{letter-spacing:-.02em}.f8448913-4558-41ea-8ff1-7da4b35c3608{letter-spacing:0}.b35221eb-6b0c-4996-8053-adfe62205100{fill:#486baf}.fdda72d4-85e3-419b-a18c-818a56b24233{fill:#e6e6e6}.e4a5e09b-9377-4401-b634-e345adf58c5c{letter-spacing:.01em}.bf4c55a0-d124-498a-a1fc-e71a3e8d1e95{letter-spacing:0}.b2bcf876-ea31-426f-ae19-f54b799cf47e{fill:#757575}.b22edeaa-928b-42c6-8e35-e9b00fd46b29,.e7a934e7-16e9-4ee5-a484-bcb8acaffad3{stroke:#fff}.aec00d7a-1275-4a4a-8299-79fd42153805,.bf3bedf1-3202-49f0-97bc-7646244139c1,.e7a934e7-16e9-4ee5-a484-bcb8acaffad3{stroke-linecap:round}.b9c7b889-1b0e-438c-901c-636ce7b868fd,.e7a934e7-16e9-4ee5-a484-bcb8acaffad3{stroke-miterlimit:10}.aba8be76-3214-4280-8b97-caecb6c90cb8{stroke:#e905ee;stroke-width:3px}.aec00d7a-1275-4a4a-8299-79fd42153805,.bf3bedf1-3202-49f0-97bc-7646244139c1{stroke:#486baf}.aec00d7a-1275-4a4a-8299-79fd42153805,.b9c7b889-1b0e-438c-901c-636ce7b868fd,.bf3bedf1-3202-49f0-97bc-7646244139c1{stroke-width:4px}.aec00d7a-1275-4a4a-8299-79fd42153805{stroke-dasharray:6 12}.b9c7b889-1b0e-438c-901c-636ce7b868fd{stroke:#090}.b015635e-95e7-45d4-8354-f6875f2326c1{fill:#090}</style></defs><g id="b0875e90-6d28-4b0e-9cc6-9997d7942412" data-name="failover"><rect x=".5" y="13.7" width="1002.27" height="516.47" rx="10" stroke-linejoin="round" stroke="#466bb0" stroke-dasharray="10 10" fill="none"/><text transform="translate(.48 10.27)" font-family="Roboto-Regular,Roboto" font-size="12">Istio Mesh after cont<tspan x="110.37" y="0" letter-spacing="-.02em">r</tspan><tspan x="114.23" y="0">ol plane failu</tspan><tspan x="182.21" y="0" letter-spacing="-.01em">r</tspan><tspan x="186.16" y="0">e</tspan></text><text class="fbcee516-e710-47dd-8b02-f8e6fd7368fc" transform="translate(11.34 81.26)">Cluster: <tspan x="50.83" y="0" letter-spacing="-.02em">W</tspan><tspan x="63" y="0">est</tspan></text><path class="a30cd5eb-b905-49b2-ba77-2bb09b1db2d3" d="M467.46 468.91L23 467.23a11.66 11.66 0 01-11.62-11.62V96.38A11.66 11.66 0 0123 84.76l444.42 1.68a11.66 11.66 0 0111.62 11.62v359.23a11.66 11.66 0 01-11.58 11.62z"/><text class="fbcee516-e710-47dd-8b02-f8e6fd7368fc" transform="translate(522.15 82.95)">Cluster: East</text><g class="f435301c-94a0-4c4b-bebf-a6c07eb95f88"><rect class="f5cbfec5-1b0c-4a31-84b0-a54080ccd205" x="36.11" y="225.54" width="172.32" height="105.47" rx="3"/><rect class="a5c7e88e-c664-4908-ad6a-f0418d8dfe88" x="48.42" y="286.26" width="147.7" height="36.93" rx="3"/><text class="bca0067d-55d8-4d36-b767-5da3f7aed93a" transform="translate(73.61 309.48)">Cont<tspan class="f51b2273-e850-40e1-8708-c51fc0f85066" x="34.16" y="0">r</tspan><tspan class="f8448913-4558-41ea-8ff1-7da4b35c3608" x="39.4" y="0">ol Plane</tspan></text><path id="f9140bce-713c-4079-aa75-1dc40eaed900" data-name="background" class="b35221eb-6b0c-4996-8053-adfe62205100" d="M102.39 225.54h39.76v39.76h-39.76z"/><path id="a02f1f36-d2c1-440f-90db-5a4f628a452f" data-name="hull" class="a5c7e88e-c664-4908-ad6a-f0418d8dfe88" d="M110.25 258.95h24.04l-15.02 4.51-9.02-4.51z"/><path id="a06fed29-4a56-480f-907b-6ac58a1115f2" data-name="mainsail" class="a5c7e88e-c664-4908-ad6a-f0418d8dfe88" d="M110.25 257.44l9.02-1.5v-16.53l-9.02 18.03z"/><path id="b37d5c50-3bd5-41f0-b5d7-5bf005b4dfa7" data-name="headsail" class="a5c7e88e-c664-4908-ad6a-f0418d8dfe88" d="M120.77 255.94l13.52 1.5-13.52-30.05v28.55z"/></g><rect class="f5cbfec5-1b0c-4a31-84b0-a54080ccd205" x="792.38" y="225.54" width="172.32" height="105.47" rx="3"/><rect class="a5c7e88e-c664-4908-ad6a-f0418d8dfe88" x="804.69" y="286.26" width="147.7" height="36.93" rx="3"/><text class="bca0067d-55d8-4d36-b767-5da3f7aed93a" transform="translate(829.89 309.48)">Cont<tspan class="f51b2273-e850-40e1-8708-c51fc0f85066" x="34.16" y="0">r</tspan><tspan class="f8448913-4558-41ea-8ff1-7da4b35c3608" x="39.4" y="0">ol Plane</tspan></text><path id="e5042e8d-650a-4462-88b9-3f6b28fd8e9b" data-name="background" class="b35221eb-6b0c-4996-8053-adfe62205100" d="M858.67 225.54h39.76v39.76h-39.76z"/><path id="b590849e-cffd-4506-bcef-7154e0724f74" data-name="hull" class="a5c7e88e-c664-4908-ad6a-f0418d8dfe88" d="M866.52 258.95h24.05l-15.03 4.51-9.02-4.51z"/><path id="bfdf0ddb-1a7f-4603-9f1e-97c819078b73" data-name="mainsail" class="a5c7e88e-c664-4908-ad6a-f0418d8dfe88" d="M866.52 257.44l9.02-1.5v-16.53l-9.02 18.03z"/><path id="fb4d4b33-08d6-4221-b452-a2dbe35ebc01" data-name="headsail" class="a5c7e88e-c664-4908-ad6a-f0418d8dfe88" d="M877.04 255.94l13.53 1.5-13.53-30.05v28.55z"/><rect class="fdda72d4-85e3-419b-a18c-818a56b24233" x="130.4" y="100.97" width="229.71" height="83.68" rx="3"/><rect class="a5c7e88e-c664-4908-ad6a-f0418d8dfe88" x="140.44" y="111.43" width="135.98" height="62.76" rx="3"/><text class="bca0067d-55d8-4d36-b767-5da3f7aed93a" transform="translate(201.4 148.44)">Se<tspan class="e4a5e09b-9377-4401-b634-e345adf58c5c" x="18.27" y="0">r</tspan><tspan class="bf4c55a0-d124-498a-a1fc-e71a3e8d1e95" x="23.92" y="0">vice A</tspan></text><circle class="b2bcf876-ea31-426f-ae19-f54b799cf47e" cx="171.82" cy="142.81" r="20.92"/><path class="b22edeaa-928b-42c6-8e35-e9b00fd46b29" d="M164.39 135.24h14.86v14.86h-14.86z"/><path class="e7a934e7-16e9-4ee5-a484-bcb8acaffad3" d="M167.14 135.24v-3.57M171.82 135.24v-3.57M176.5 135.24v-3.57M167.14 153.96v-3.58M171.82 153.96v-3.58M176.5 153.96v-3.58M164.25 147.49h-3.57M164.25 142.81h-3.57M164.25 138.13h-3.57M182.97 147.49h-3.58M182.97 142.81h-3.58M182.97 138.13h-3.58"/><rect class="a5c7e88e-c664-4908-ad6a-f0418d8dfe88" x="168.52" y="139.37" width="6.61" height="6.61" rx="2"/><rect class="a5c7e88e-c664-4908-ad6a-f0418d8dfe88" x="286.88" y="111.43" width="62.76" height="62.76" rx="3"/><path class="aba8be76-3214-4280-8b97-caecb6c90cb8" d="M333.67 151.7v-17.78l-15.41-8.89-15.41 8.89v17.78l15.41 8.89 15.41-8.89z"/><rect class="fdda72d4-85e3-419b-a18c-818a56b24233" x="130.4" y="371.9" width="229.71" height="83.68" rx="3"/><rect class="a5c7e88e-c664-4908-ad6a-f0418d8dfe88" x="140.44" y="382.36" width="135.98" height="62.76" rx="3"/><text class="bca0067d-55d8-4d36-b767-5da3f7aed93a" transform="translate(201.64 419.37)">Se<tspan class="e4a5e09b-9377-4401-b634-e345adf58c5c" x="18.27" y="0">r</tspan><tspan class="bf4c55a0-d124-498a-a1fc-e71a3e8d1e95" x="23.92" y="0">vice B</tspan></text><circle class="b2bcf876-ea31-426f-ae19-f54b799cf47e" cx="171.82" cy="413.74" r="20.92"/><path class="b22edeaa-928b-42c6-8e35-e9b00fd46b29" d="M164.39 406.17h14.86v14.86h-14.86z"/><path class="e7a934e7-16e9-4ee5-a484-bcb8acaffad3" d="M167.14 406.17v-3.58M171.82 406.17v-3.58M176.5 406.17v-3.58M167.14 424.89v-3.58M171.82 424.89v-3.58M176.5 424.89v-3.58M164.25 418.42h-3.57M164.25 413.74h-3.57M164.25 409.06h-3.57M182.97 418.42h-3.58M182.97 413.74h-3.58M182.97 409.06h-3.58"/><rect class="a5c7e88e-c664-4908-ad6a-f0418d8dfe88" x="168.52" y="410.3" width="6.61" height="6.61" rx="2"/><rect class="a5c7e88e-c664-4908-ad6a-f0418d8dfe88" x="286.88" y="382.36" width="62.76" height="62.76" rx="3"/><path class="aba8be76-3214-4280-8b97-caecb6c90cb8" d="M333.67 422.63v-17.78l-15.41-8.89-15.41 8.89v17.78l15.41 8.89 15.41-8.89z"/><g class="f435301c-94a0-4c4b-bebf-a6c07eb95f88"><path class="aec00d7a-1275-4a4a-8299-79fd42153805" d="M318.26 181.37v193.82"/><path class="b35221eb-6b0c-4996-8053-adfe62205100" d="M313.27 182.83l4.99-8.64 4.99 8.64h-9.98zM313.27 373.73l4.99 8.63 4.99-8.63h-9.98z"/></g><path class="a30cd5eb-b905-49b2-ba77-2bb09b1db2d3" d="M978.19 468.91l-444.42-1.68a11.66 11.66 0 01-11.62-11.62V96.38a11.66 11.66 0 0111.62-11.62l444.42 1.68a11.66 11.66 0 0111.62 11.62v359.23a11.66 11.66 0 01-11.62 11.62z"/><rect class="fdda72d4-85e3-419b-a18c-818a56b24233" x="641.13" y="102.66" width="229.71" height="83.68" rx="3"/><rect class="a5c7e88e-c664-4908-ad6a-f0418d8dfe88" x="651.18" y="113.12" width="62.76" height="62.76" rx="3"/><path class="aba8be76-3214-4280-8b97-caecb6c90cb8" d="M697.97 153.39V135.6l-15.42-8.89-15.41 8.89v17.79l15.41 8.89 15.42-8.89z"/><rect class="a5c7e88e-c664-4908-ad6a-f0418d8dfe88" x="724.39" y="113.12" width="135.98" height="62.76" rx="3"/><text class="bca0067d-55d8-4d36-b767-5da3f7aed93a" transform="translate(785.59 150.12)">Se<tspan class="e4a5e09b-9377-4401-b634-e345adf58c5c" x="18.27" y="0">r</tspan><tspan class="bf4c55a0-d124-498a-a1fc-e71a3e8d1e95" x="23.92" y="0">vice B</tspan></text><circle class="b2bcf876-ea31-426f-ae19-f54b799cf47e" cx="755.77" cy="144.5" r="20.92"/><path class="b22edeaa-928b-42c6-8e35-e9b00fd46b29" d="M748.34 136.93h14.86v14.86h-14.86z"/><path class="e7a934e7-16e9-4ee5-a484-bcb8acaffad3" d="M751.09 136.93v-3.58M755.77 136.93v-3.58M760.45 136.93v-3.58M751.09 155.64v-3.57M755.77 155.64v-3.57M760.45 155.64v-3.57M748.2 149.18h-3.57M748.2 144.5h-3.57M748.2 139.82h-3.57M766.92 149.18h-3.58M766.92 144.5h-3.58M766.92 139.82h-3.58"/><rect class="a5c7e88e-c664-4908-ad6a-f0418d8dfe88" x="752.47" y="141.06" width="6.61" height="6.61" rx="2"/><rect class="fdda72d4-85e3-419b-a18c-818a56b24233" x="641.13" y="373.59" width="229.71" height="83.68" rx="3"/><rect class="a5c7e88e-c664-4908-ad6a-f0418d8dfe88" x="651.18" y="384.04" width="62.76" height="62.76" rx="3"/><path class="aba8be76-3214-4280-8b97-caecb6c90cb8" d="M697.97 424.31v-17.78l-15.42-8.89-15.41 8.89v17.78l15.41 8.9 15.42-8.9z"/><rect class="a5c7e88e-c664-4908-ad6a-f0418d8dfe88" x="724.39" y="384.04" width="135.98" height="62.76" rx="3"/><text class="bca0067d-55d8-4d36-b767-5da3f7aed93a" transform="translate(785.35 421.05)">Se<tspan class="e4a5e09b-9377-4401-b634-e345adf58c5c" x="18.27" y="0">r</tspan><tspan class="bf4c55a0-d124-498a-a1fc-e71a3e8d1e95" x="23.92" y="0">vice A</tspan></text><circle class="b2bcf876-ea31-426f-ae19-f54b799cf47e" cx="755.77" cy="415.42" r="20.92"/><path class="b22edeaa-928b-42c6-8e35-e9b00fd46b29" d="M748.34 407.85h14.86v14.86h-14.86z"/><path class="e7a934e7-16e9-4ee5-a484-bcb8acaffad3" d="M751.09 407.85v-3.57M755.77 407.85v-3.57M760.45 407.85v-3.57M751.09 426.57v-3.58M755.77 426.57v-3.58M760.45 426.57v-3.58M748.2 420.1h-3.57M748.2 415.42h-3.57M748.2 410.75h-3.57M766.92 420.1h-3.58M766.92 415.42h-3.58M766.92 410.75h-3.58"/><rect class="a5c7e88e-c664-4908-ad6a-f0418d8dfe88" x="752.47" y="411.98" width="6.61" height="6.61" rx="2"/><path class="aec00d7a-1275-4a4a-8299-79fd42153805" d="M682.56 183.05v193.82"/><path class="b35221eb-6b0c-4996-8053-adfe62205100" d="M677.57 184.51l4.98-8.63 4.99 8.63h-9.97zM677.57 375.41l4.98 8.64 4.99-8.64h-9.97z"/><path class="b9c7b889-1b0e-438c-901c-636ce7b868fd" d="M356.82 142.81H644"/><path class="b015635e-95e7-45d4-8354-f6875f2326c1" d="M358.28 147.8l-8.64-4.99 8.64-4.98v9.97zM642.54 147.8l8.64-4.99-8.64-4.98v9.97z"/><path class="b9c7b889-1b0e-438c-901c-636ce7b868fd" d="M356.82 413.74H644"/><path class="b015635e-95e7-45d4-8354-f6875f2326c1" d="M358.28 418.73l-8.64-4.99 8.64-4.99v9.98zM642.54 418.73l8.64-4.99-8.64-4.99v9.98z"/><path class="b9c7b889-1b0e-438c-901c-636ce7b868fd" d="M499.25 142.81V413.6"/><g class="f435301c-94a0-4c4b-bebf-a6c07eb95f88"><path class="bf3bedf1-3202-49f0-97bc-7646244139c1" d="M208.43 278.28h3"/><path stroke-dasharray="6.11 12.22" stroke-width="4" stroke="#486baf" stroke-linecap="round" stroke-linejoin="round" fill="none" d="M223.65 278.28h85.5"/><path class="bf3bedf1-3202-49f0-97bc-7646244139c1" d="M315.26 278.28h3"/></g><path class="aec00d7a-1275-4a4a-8299-79fd42153805" d="M792.38 278.28H682.56M921.2 225.54V54.74H318.26v49.52"/><path class="b35221eb-6b0c-4996-8053-adfe62205100" d="M313.27 102.8l4.99 8.63 4.99-8.63h-9.98z"/><path class="aec00d7a-1275-4a4a-8299-79fd42153805" d="M921.2 331.01v170.8H318.26V452.3"/><path class="b35221eb-6b0c-4996-8053-adfe62205100" d="M323.25 453.76l-4.99-8.64-4.99 8.64h9.98z"/><path d="M122.27 206.76a69.24 69.24 0 0135.73 9.66 72.32 72.32 0 0126.1 26.1 71 71 0 010 71.52 72.4 72.4 0 01-26.1 26.1 71 71 0 01-71.52 0A72.4 72.4 0 0160.41 314a71 71 0 010-71.52 72.32 72.32 0 0126.1-26.1 69.27 69.27 0 0135.76-9.62zm-37.49 109a51.32 51.32 0 0021.2 13 54.45 54.45 0 0046.86-6.92l-74.11-74.13a54.5 54.5 0 00-6.93 46.86 51.34 51.34 0 0012.98 21.2zm75-75a51.27 51.27 0 00-21.19-13 54.57 54.57 0 00-46.87 6.92l74.12 74.12a54.57 54.57 0 006.9-46.8 51.31 51.31 0 00-12.98-21.21z" fill="#ff1d25"/></g></svg>