<svg id="SvgjsSvg2384" width="1133.796875" height="823" xmlns="http://www.w3.org/2000/svg" version="1.1" xmlns:xlink="http://www.w3.org/1999/xlink" xmlns:svgjs="http://svgjs.com/svgjs"><defs id="SvgjsDefs2385"><pattern patternUnits="userSpaceOnUse" id="pattern_mark_0" width="300" height="300"><text x="150" y="100" fill="rgba(229,229,229,0.8)" font-size="18" transform="rotate(-45, 150, 150)" style="dominant-baseline: middle; text-anchor: middle;"></text></pattern><pattern patternUnits="userSpaceOnUse" id="pattern_mark_1" width="300" height="300"><text x="150" y="200" fill="rgba(229,229,229,0.8)" font-size="18" transform="rotate(-45, 150, 150)" style="dominant-baseline: middle; text-anchor: middle;"></text></pattern><pattern id="SvgjsPattern2441" x="0" y="0" width="140.75" height="62.375" patternUnits="userSpaceOnUse"><image id="SvgjsImage2442" xlink:href="https://cdn.processon.com/5de0d641e4b0d1f8f2c4108e-64e45ddd642795319b9fc096?e=1692691437&amp;token=trhI0BY8QfVrIGn9nENop6JAc6l5nZuxhjQ62UfM:3-RwUE9oRd4t7HZG4pPqG6weCqw=" width="140.75" height="62.375" preserveAspectRatio="none" crossOrigin="anonymous" x="0" y="0"></image></pattern><marker id="SvgjsMarker2481" markerWidth="13" markerHeight="9" refX="3.5" refY="4.5" viewBox="0 0 13 9" orient="auto" markerUnits="userSpaceOnUse" stroke-dasharray="0,0"><path id="SvgjsPath2482" d="M13,0 L0,4.5 L13,9 L13,0" fill="#323232" stroke="#323232" stroke-width="1"></path></marker><marker id="SvgjsMarker2485" markerWidth="13" markerHeight="9" refX="3.5" refY="4.5" viewBox="0 0 13 9" orient="auto" markerUnits="userSpaceOnUse" stroke-dasharray="0,0"><path id="SvgjsPath2486" d="M13,0 L0,4.5 L13,9 L13,0" fill="#323232" stroke="#323232" stroke-width="1"></path></marker><pattern id="SvgjsPattern2519" x="0" y="0" width="140.75" height="122" patternUnits="userSpaceOnUse"><image id="SvgjsImage2520" xlink:href="https://cdn.processon.com/5de0d641e4b0d1f8f2c4108e-64e45a132bc7c2507bdc217f?e=1692690467&amp;token=trhI0BY8QfVrIGn9nENop6JAc6l5nZuxhjQ62UfM:AonewA_tHZKgrlLaXMdtN9Ks8os=" width="140.75" height="122" preserveAspectRatio="none" crossOrigin="anonymous" x="0" y="0"></image></pattern><pattern id="SvgjsPattern2523" x="0" y="0" width="140.75" height="62.375" patternUnits="userSpaceOnUse"><image id="SvgjsImage2524" xlink:href="https://cdn.processon.com/5de0d641e4b0d1f8f2c4108e-64e45fd500f8111e6e585c75?e=1692691941&amp;token=trhI0BY8QfVrIGn9nENop6JAc6l5nZuxhjQ62UfM:hv4avU9LqAGML0Z91O6RDKBT2HU=" width="140.75" height="62.375" preserveAspectRatio="none" crossOrigin="anonymous" x="0" y="0"></image></pattern><marker id="SvgjsMarker2541" markerWidth="13" markerHeight="9" refX="9.5" refY="4.5" viewBox="0 0 13 9" orient="auto" markerUnits="userSpaceOnUse" stroke-dasharray="0,0"><path id="SvgjsPath2542" d="M0,0 L13,4.5 L0,9 L0,0" fill="#323232" stroke="#323232" stroke-width="1"></path></marker><marker id="SvgjsMarker2551" markerWidth="13" markerHeight="9" refX="9.5" refY="4.5" viewBox="0 0 13 9" orient="auto" markerUnits="userSpaceOnUse" stroke-dasharray="0,0"><path id="SvgjsPath2552" d="M0,0 L13,4.5 L0,9 L0,0" fill="#323232" stroke="#323232" stroke-width="1"></path></marker><marker id="SvgjsMarker2569" markerWidth="13" markerHeight="9" refX="9.5" refY="4.5" viewBox="0 0 13 9" orient="auto" markerUnits="userSpaceOnUse" stroke-dasharray="0,0"><path id="SvgjsPath2570" d="M0,0 L13,4.5 L0,9 L0,0" fill="#323232" stroke="#323232" stroke-width="1"></path></marker><marker id="SvgjsMarker2579" markerWidth="13" markerHeight="9" refX="9.5" refY="4.5" viewBox="0 0 13 9" orient="auto" markerUnits="userSpaceOnUse" stroke-dasharray="0,0"><path id="SvgjsPath2580" d="M0,0 L13,4.5 L0,9 L0,0" fill="#323232" stroke="#323232" stroke-width="1"></path></marker><marker id="SvgjsMarker2609" markerWidth="13" markerHeight="9" refX="9.5" refY="4.5" viewBox="0 0 13 9" orient="auto" markerUnits="userSpaceOnUse" stroke-dasharray="0,0"><path id="SvgjsPath2610" d="M0,0 L13,4.5 L0,9 L0,0" fill="#323232" stroke="#323232" stroke-width="1"></path></marker><marker id="SvgjsMarker2635" markerWidth="13" markerHeight="9" refX="9.5" refY="4.5" viewBox="0 0 13 9" orient="auto" markerUnits="userSpaceOnUse" stroke-dasharray="0,0"><path id="SvgjsPath2636" d="M0,0 L13,4.5 L0,9 L0,0" fill="#323232" stroke="#323232" stroke-width="1"></path></marker><marker id="SvgjsMarker2641" markerWidth="13" markerHeight="9" refX="9.5" refY="4.5" viewBox="0 0 13 9" orient="auto" markerUnits="userSpaceOnUse" stroke-dasharray="0,0"><path id="SvgjsPath2642" d="M0,0 L13,4.5 L0,9 L0,0" fill="#323232" stroke="#323232" stroke-width="1"></path></marker><marker id="SvgjsMarker2664" markerWidth="13" markerHeight="9" refX="9.5" refY="4.5" viewBox="0 0 13 9" orient="auto" markerUnits="userSpaceOnUse" stroke-dasharray="0,0"><path id="SvgjsPath2665" d="M0,0 L13,4.5 L0,9 L0,0" fill="#323232" stroke="#323232" stroke-width="1"></path></marker><marker id="SvgjsMarker2668" markerWidth="13" markerHeight="9" refX="9.5" refY="4.5" viewBox="0 0 13 9" orient="auto" markerUnits="userSpaceOnUse" stroke-dasharray="0,0"><path id="SvgjsPath2669" d="M0,0 L13,4.5 L0,9 L0,0" fill="#323232" stroke="#323232" stroke-width="1"></path></marker><pattern id="SvgjsPattern2672" x="0" y="0" width="196.94391025641016" height="113.37002122173158" patternUnits="userSpaceOnUse"><image id="SvgjsImage2673" xlink:href="https://cdn.processon.com/5de0d641e4b0d1f8f2c4108e-64f8337967bdd60af3fd2c09?e=1693991306&amp;token=trhI0BY8QfVrIGn9nENop6JAc6l5nZuxhjQ62UfM:xfo1genCTp7reSJWF6g6AZ-fe_k=" width="196.94391025641016" height="113.37002122173158" preserveAspectRatio="none" crossOrigin="anonymous" x="0" y="0"></image></pattern><marker id="SvgjsMarker2702" markerWidth="13" markerHeight="9" refX="9.5" refY="4.5" viewBox="0 0 13 9" orient="auto" markerUnits="userSpaceOnUse" stroke-dasharray="0,0"><path id="SvgjsPath2703" d="M0,0 L13,4.5 L0,9 L0,0" fill="#323232" stroke="#323232" stroke-width="1"></path></marker></defs><rect id="svgbackgroundid" width="1133.796875" height="823" fill="transparent"></rect><rect id="SvgjsRect2387" width="1133.796875" height="823" fill="url(#pattern_mark_0)"></rect><rect id="SvgjsRect2388" width="1133.796875" height="823" fill="url(#pattern_mark_1)"></rect><g id="SvgjsG2389" transform="translate(54.24446873701686,25)"><path id="SvgjsPath2390" d="M 0 0L 597.976423484057 0L 597.976423484057 773.1548675723943L 0 773.1548675723943Z" stroke="rgba(70,105,234,1)" stroke-width="1.5" fill-opacity="1" fill="#ffffff"></path><g id="SvgjsG2391"><text id="SvgjsText2392" font-family="微软雅黑" text-anchor="end" font-size="13px" width="578px" fill="#323232" font-weight="700" align="top" lineHeight="125%" anchor="end" family="微软雅黑" size="13px" weight="700" font-style="" opacity="1" y="-2.625" transform="rotate(0)"><tspan id="SvgjsTspan2393" dy="16" x="588"><tspan id="SvgjsTspan2394" style="text-decoration:;">Work Node A</tspan></tspan></text></g></g><g id="SvgjsG2395" transform="translate(79.33247074671362,48.66537606108682)"><path id="SvgjsPath2396" d="M 0 0L 227.05608974358984 0L 227.05608974358984 150.875L 0 150.875Z" stroke="rgba(33,41,48,1)" stroke-width="1.5" fill-opacity="1" fill="#ffffff"></path><g id="SvgjsG2397"><text id="SvgjsText2398" font-family="微软雅黑" text-anchor="middle" font-size="16px" width="208px" fill="#323232" font-weight="400" align="top" lineHeight="125%" anchor="middle" family="微软雅黑" size="16px" weight="400" font-style="" opacity="1" y="-4" transform="rotate(0)"><tspan id="SvgjsTspan2399" dy="20" x="114"><tspan id="SvgjsTspan2400" style="text-decoration:;font-weight: bold;">NS: foo</tspan></tspan></text></g></g><g id="SvgjsG2401" transform="translate(111.4288862179485,74.87693590837057)"><path id="SvgjsPath2402" d="M 0 0L 159.38141025641016 0L 159.38141025641016 99.5L 0 99.5Z" stroke-dasharray="10,6" stroke="rgba(70,105,234,1)" stroke-width="1.5" fill-opacity="1" fill="#ffffff"></path><g id="SvgjsG2403"><text id="SvgjsText2404" font-family="微软雅黑" text-anchor="start" font-size="16px" width="140px" fill="#323232" font-weight="700" align="top" lineHeight="125%" anchor="start" family="微软雅黑" size="16px" weight="700" font-style="" opacity="1" y="-4" transform="rotate(0)"><tspan id="SvgjsTspan2405" dy="20" x="10"><tspan id="SvgjsTspan2406" style="text-decoration:;">Sleep POD</tspan></tspan></text></g></g><g id="SvgjsG2407" transform="translate(265.3703477304459,399.2500000000002)"><path id="SvgjsPath2408" d="M 0 0L 360.8505444906277 0L 360.8505444906277 378.25885059500865L 0 378.25885059500865Z" stroke="rgba(33,41,48,1)" stroke-width="1.5" fill-opacity="1" fill="#ffffff"></path><g id="SvgjsG2409"><text id="SvgjsText2410" font-family="微软雅黑" text-anchor="start" font-size="16px" width="341px" fill="#323232" font-weight="400" align="top" lineHeight="125%" anchor="start" family="微软雅黑" size="16px" weight="400" font-style="" opacity="1" y="-4" transform="rotate(0)"><tspan id="SvgjsTspan2411" dy="20" x="10"><tspan id="SvgjsTspan2412" style="text-decoration:;font-weight: bold;">NS: istio-system</tspan></tspan></text></g></g><g id="SvgjsG2413" transform="translate(292.22089222107365,429.1603972828186)"><path id="SvgjsPath2414" d="M 0 0L 307.1494555093723 0L 307.1494555093723 328.01189346490696L 0 328.01189346490696Z" stroke-dasharray="10,6" stroke="rgba(70,105,234,1)" stroke-width="1.5" fill-opacity="1" fill="#ffffff"></path><g id="SvgjsG2415"><text id="SvgjsText2416" font-family="微软雅黑" text-anchor="start" font-size="16px" width="288px" fill="#323232" font-weight="700" align="top" lineHeight="125%" anchor="start" family="微软雅黑" size="16px" weight="700" font-style="" opacity="1" y="-4" transform="rotate(0)"><tspan id="SvgjsTspan2417" dy="20" x="10"><tspan id="SvgjsTspan2418" style="text-decoration:;">POD</tspan></tspan></text></g></g><g id="SvgjsG2419" transform="translate(395.8506468122166,445.01548726696114)"><path id="SvgjsPath2420" d="M 0 4Q 0 0 4 0L 121.84347196811086 0Q 125.84347196811086 0 125.84347196811086 4L 125.84347196811086 49.573008488692494Q 125.84347196811086 53.573008488692494 121.84347196811086 53.573008488692494L 4 53.573008488692494Q 0 53.573008488692494 0 49.573008488692494Z" stroke="rgba(33,41,48,1)" stroke-width="1.5" fill-opacity="1" fill="#ffffff"></path><g id="SvgjsG2421"><text id="SvgjsText2422" font-family="微软雅黑" text-anchor="middle" font-size="13px" width="106px" fill="#e74f4c" font-weight="700" align="middle" lineHeight="125%" anchor="middle" family="微软雅黑" size="13px" weight="700" font-style="" opacity="1" y="-0.3384957556537529" transform="rotate(0)"><tspan id="SvgjsTspan2423" dy="16" x="63"><tspan id="SvgjsTspan2424" style="text-decoration:;">iptables</tspan></tspan><tspan id="SvgjsTspan2425" dy="16" x="63"><tspan id="SvgjsTspan2426" style="text-decoration:;">routes</tspan></tspan><tspan id="SvgjsTspan2427" dy="16" x="63"><tspan id="SvgjsTspan2428" style="text-decoration:;">rules</tspan></tspan></text></g></g><g id="SvgjsG2429" transform="translate(328.9231058559533,308.4375000000002)"><path id="SvgjsPath2430" d="M 0 4Q 0 0 4 0L 92 0Q 96 0 96 4L 96 50Q 96 54 92 54L 4 54Q 0 54 0 50Z" stroke="rgba(33,41,48,1)" stroke-width="1.5" fill-opacity="1" fill="#ffffff"></path><g id="SvgjsG2431"><text id="SvgjsText2432" font-family="微软雅黑" text-anchor="middle" font-size="13px" width="76px" fill="#e74f4c" font-weight="700" align="middle" lineHeight="125%" anchor="middle" family="微软雅黑" size="13px" weight="700" font-style="" opacity="1" y="-0.125" transform="rotate(0)"><tspan id="SvgjsTspan2433" dy="16" x="48"><tspan id="SvgjsTspan2434" style="text-decoration:;">iptables</tspan></tspan><tspan id="SvgjsTspan2435" dy="16" x="48"><tspan id="SvgjsTspan2436" style="text-decoration:;">routes</tspan></tspan><tspan id="SvgjsTspan2437" dy="16" x="48"><tspan id="SvgjsTspan2438" style="text-decoration:;">rules</tspan></tspan></text></g></g><g id="SvgjsG2439" transform="translate(119.00366707379817,101.87693590837057)"><path id="SvgjsPath2440" d="M 0 0L 140.75 0L 140.75 62.375L 0 62.375Z" stroke="none" fill="url(#SvgjsPattern2441)"></path></g><g id="SvgjsG2443" transform="translate(241.2391826923083,524.364491511308)"><path id="SvgjsPath2444" d="M 0 4Q 0 0 4 0L 92 0Q 96 0 96 4L 96 23Q 96 27 92 27L 4 27Q 0 27 0 23Z" stroke="rgba(33,41,48,1)" stroke-width="1.5" fill-opacity="1" fill="#f1ac6a"></path><g id="SvgjsG2445"><text id="SvgjsText2446" font-family="微软雅黑" text-anchor="middle" font-size="16px" width="76px" fill="#323232" font-weight="400" align="middle" lineHeight="125%" anchor="middle" family="微软雅黑" size="16px" weight="400" font-style="" opacity="1" y="-0.5" transform="rotate(0)"><tspan id="SvgjsTspan2447" dy="20" x="48"><tspan id="SvgjsTspan2448" style="text-decoration:;font-weight: bold;">pistioout</tspan></tspan></text></g></g><g id="SvgjsG2449" transform="translate(241.2391826923083,595.1576324276068)"><path id="SvgjsPath2450" d="M 0 4Q 0 0 4 0L 92 0Q 96 0 96 4L 96 23Q 96 27 92 27L 4 27Q 0 27 0 23Z" stroke="rgba(33,41,48,1)" stroke-width="1.5" fill-opacity="1" fill="#7bd144"></path><g id="SvgjsG2451"><text id="SvgjsText2452" font-family="微软雅黑" text-anchor="middle" font-size="16px" width="76px" fill="#323232" font-weight="400" align="middle" lineHeight="125%" anchor="middle" family="微软雅黑" size="16px" weight="400" font-style="" opacity="1" y="-0.5" transform="rotate(0)"><tspan id="SvgjsTspan2453" dy="20" x="48"><tspan id="SvgjsTspan2454" style="text-decoration:;font-weight: bold;">pistioin</tspan></tspan></text></g></g><g id="SvgjsG2455" transform="translate(121.23918269230808,565.4134401527165)"><path id="SvgjsPath2456" d="M 8.333333333333334 0L 111.66666666666667 0C 122.77777777777777 0 122.77777777777777 25 111.66666666666667 25L 8.333333333333334 25C -2.777777777777778 25 -2.777777777777778 0 8.333333333333334 0Z" stroke-dasharray="3,4" stroke="rgba(33,41,48,1)" stroke-width="1.5" fill-opacity="1" fill="#ffffff"></path><g id="SvgjsG2457"><text id="SvgjsText2458" font-family="微软雅黑" text-anchor="middle" font-size="13px" width="100px" fill="#323232" font-weight="400" align="middle" lineHeight="125%" anchor="middle" family="微软雅黑" size="13px" weight="400" font-style="" opacity="1" y="1.875" transform="rotate(0)"><tspan id="SvgjsTspan2459" dy="16" x="60"><tspan id="SvgjsTspan2460" style="text-decoration:;font-weight: bold;">Geneve Tunnel</tspan></tspan></text></g></g><g id="SvgjsG2461" transform="translate(121.23918269230808,621.101493633482)"><path id="SvgjsPath2462" d="M 8.333333333333334 0L 111.66666666666667 0C 122.77777777777777 0 122.77777777777777 25 111.66666666666667 25L 8.333333333333334 25C -2.777777777777778 25 -2.777777777777778 0 8.333333333333334 0Z" stroke-dasharray="3,4" stroke="rgba(33,41,48,1)" stroke-width="1.5" fill-opacity="1" fill="#ffffff"></path><g id="SvgjsG2463"><text id="SvgjsText2464" font-family="微软雅黑" text-anchor="middle" font-size="13px" width="100px" fill="#323232" font-weight="400" align="middle" lineHeight="125%" anchor="middle" family="微软雅黑" size="13px" weight="400" font-style="" opacity="1" y="1.875" transform="rotate(0)"><tspan id="SvgjsTspan2465" dy="16" x="60"><tspan id="SvgjsTspan2466" style="text-decoration:;font-weight: bold;">Geneve Tunnel</tspan></tspan></text></g></g><g id="SvgjsG2467" transform="translate(25,524.364491511308)"><path id="SvgjsPath2468" d="M 0 4Q 0 0 4 0L 92 0Q 96 0 96 4L 96 23Q 96 27 92 27L 4 27Q 0 27 0 23Z" stroke="rgba(33,41,48,1)" stroke-width="1.5" fill-opacity="1" fill="#f1ac6a"></path><g id="SvgjsG2469"><text id="SvgjsText2470" font-family="微软雅黑" text-anchor="middle" font-size="16px" width="76px" fill="#323232" font-weight="400" align="middle" lineHeight="125%" anchor="middle" family="微软雅黑" size="16px" weight="400" font-style="" opacity="1" y="-0.5" transform="rotate(0)"><tspan id="SvgjsTspan2471" dy="20" x="48"><tspan id="SvgjsTspan2472" style="text-decoration:;font-weight: bold;">istioout</tspan></tspan></text></g></g><g id="SvgjsG2473" transform="translate(25,595.1576324276068)"><path id="SvgjsPath2474" d="M 0 4Q 0 0 4 0L 92 0Q 96 0 96 4L 96 23Q 96 27 92 27L 4 27Q 0 27 0 23Z" stroke="rgba(33,41,48,1)" stroke-width="1.5" fill-opacity="1" fill="#7bd144"></path><g id="SvgjsG2475"><text id="SvgjsText2476" font-family="微软雅黑" text-anchor="middle" font-size="16px" width="76px" fill="#323232" font-weight="400" align="middle" lineHeight="125%" anchor="middle" family="微软雅黑" size="16px" weight="400" font-style="" opacity="1" y="-0.5" transform="rotate(0)"><tspan id="SvgjsTspan2477" dy="20" x="48"><tspan id="SvgjsTspan2478" style="text-decoration:;font-weight: bold;">istioin</tspan></tspan></text></g></g><g id="SvgjsG2479"><path id="SvgjsPath2480" d="M238.53918269230832 608.6576324276068L121.75 608.6576324276068" stroke="#323232" stroke-width="1.5" fill="none" marker-start="url(#SvgjsMarker2481)"></path></g><g id="SvgjsG2483"><path id="SvgjsPath2484" d="M238.53918269230832 537.864491511308L199.4891826923083 537.864491511308" stroke="#323232" stroke-width="1.5" fill="none" marker-start="url(#SvgjsMarker2485)"></path></g><g id="SvgjsG2487"><path id="SvgjsPath2488" d="M191.11959134615245 232.8384957556534L191.11959134615245 248.27599575565364L191.11959134615336 248.27599575565364L191.11959134615336 263.71349575565387" stroke="#323232" stroke-width="1.5" fill="none"></path></g><g id="SvgjsG2489"><path id="SvgjsPath2490" d="M376.9231058559533 363.1875000000002L376.9231058559533 380.8437500000002L209.36959134615313 380.8437500000002" stroke="#323232" stroke-width="1.5" fill="none"></path></g><g id="SvgjsG2491"><path id="SvgjsPath2492" d="M337.9891826923083 537.864491511308L366.544914752262 537.864491511308L366.544914752262 525.114491511308" stroke="#323232" stroke-width="1.5" fill="none"></path></g><g id="SvgjsG2493" transform="translate(766.7973494716623,25)"><path id="SvgjsPath2494" d="M 0 0L 342.05174787761644 0L 342.05174787761644 657.0269637098386L 0 657.0269637098386Z" stroke="rgba(70,105,234,1)" stroke-width="1.5" fill-opacity="1" fill="#ffffff"></path><g id="SvgjsG2495"><text id="SvgjsText2496" font-family="微软雅黑" text-anchor="start" font-size="13px" width="323px" fill="#323232" font-weight="700" align="top" lineHeight="125%" anchor="start" family="微软雅黑" size="13px" weight="700" font-style="" opacity="1" y="-2.625" transform="rotate(0)"><tspan id="SvgjsTspan2497" dy="16" x="10"><tspan id="SvgjsTspan2498" style="text-decoration:;">Work Node B</tspan></tspan></text></g></g><g id="SvgjsG2499" transform="translate(789.4255545998674,57.120026318947794)"><path id="SvgjsPath2500" d="M 0 0L 296.7953376212063 0L 296.7953376212063 605.879973681052L 0 605.879973681052Z" stroke="rgba(33,41,48,1)" stroke-width="1.5" fill-opacity="1" fill="#ffffff"></path><g id="SvgjsG2501"><text id="SvgjsText2502" font-family="微软雅黑" text-anchor="middle" font-size="16px" width="277px" fill="#323232" font-weight="400" align="top" lineHeight="125%" anchor="middle" family="微软雅黑" size="16px" weight="400" font-style="" opacity="1" y="-4" transform="rotate(0)"><tspan id="SvgjsTspan2503" dy="20" x="148.5"><tspan id="SvgjsTspan2504" style="text-decoration:;font-weight: bold;">NS: bar</tspan></tspan></text></g></g><g id="SvgjsG2505" transform="translate(812.4255545998674,95.3075212217318)"><path id="SvgjsPath2506" d="M 0 0L 250.79533762120627 0L 250.79533762120627 541.692478778268L 0 541.692478778268Z" stroke-dasharray="10,6" stroke="rgba(70,105,234,1)" stroke-width="1.5" fill-opacity="1" fill="#ffffff"></path><g id="SvgjsG2507"><text id="SvgjsText2508" font-family="微软雅黑" text-anchor="start" font-size="16px" width="231px" fill="#323232" font-weight="700" align="top" lineHeight="125%" anchor="start" family="微软雅黑" size="16px" weight="700" font-style="" opacity="1" y="-4" transform="rotate(0)"><tspan id="SvgjsTspan2509" dy="20" x="10"><tspan id="SvgjsTspan2510" style="text-decoration:;">httpbin POD</tspan></tspan></text></g></g><g id="SvgjsG2511" transform="translate(854.322957904649,512.8542597629969)"><path id="SvgjsPath2512" d="M 0 4Q 0 0 4 0L 124.59862287761644 0Q 128.59862287761644 0 128.59862287761644 4L 128.59862287761644 39.41648174831107Q 128.59862287761644 43.41648174831107 124.59862287761644 43.41648174831107L 4 43.41648174831107Q 0 43.41648174831107 0 39.41648174831107Z" stroke="rgba(33,41,48,1)" stroke-width="1.5" fill-opacity="1" fill="#ffffff"></path><g id="SvgjsG2513"><text id="SvgjsText2514" font-family="微软雅黑" text-anchor="middle" font-size="13px" width="109px" fill="#e74f4c" font-weight="700" align="middle" lineHeight="125%" anchor="middle" family="微软雅黑" size="13px" weight="700" font-style="" opacity="1" y="11.083240874155535" transform="rotate(0)"><tspan id="SvgjsTspan2515" dy="16" x="64.5"><tspan id="SvgjsTspan2516" style="text-decoration:;">iptables</tspan></tspan></text></g></g><g id="SvgjsG2517" transform="translate(855.8265289198937,285.6908183359765)"><path id="SvgjsPath2518" d="M 0 0L 140.75 0L 140.75 122L 0 122Z" stroke="none" fill="url(#SvgjsPattern2519)"></path></g><g id="SvgjsG2521" transform="translate(870.6222693434572,132.37693590837034)"><path id="SvgjsPath2522" d="M 0 0L 140.75 0L 140.75 62.375L 0 62.375Z" stroke="none" fill="url(#SvgjsPattern2523)"></path></g><g id="SvgjsG2525" transform="translate(874.2860743200788,618.60868123759)"><path id="SvgjsPath2526" d="M 0 4Q 0 0 4 0L 84.67239004675776 0Q 88.67239004675776 0 88.67239004675776 4L 88.67239004675776 27.673119694566708Q 88.67239004675776 31.673119694566708 84.67239004675776 31.673119694566708L 4 31.673119694566708Q 0 31.673119694566708 0 27.673119694566708Z" stroke="rgba(33,41,48,1)" stroke-width="1.5" fill-opacity="1" fill="#4669ea"></path><g id="SvgjsG2527"><text id="SvgjsText2528" font-family="微软雅黑" text-anchor="middle" font-size="16px" width="69px" fill="#ffffff" font-weight="400" align="middle" lineHeight="125%" anchor="middle" family="微软雅黑" size="16px" weight="400" font-style="" opacity="1" y="1.836559847283354" transform="rotate(0)"><tspan id="SvgjsTspan2529" dy="20" x="44.5"><tspan id="SvgjsTspan2530" style="text-decoration:;font-weight: bold;">eth0</tspan></tspan></text></g></g><g id="SvgjsG2531"><path id="SvgjsPath2532" d="M918.6222693434572 617.85868123759L918.6222693434572 612.0001364587354L918.6222693434577 612.0001364587354L918.6222693434577 605.3915916798808" stroke="#323232" stroke-width="1.5" fill="none"></path></g><g id="SvgjsG2533" transform="translate(173.61959134615336,264.46349575565387)"><path id="SvgjsPath2534" d="M 0 18.40625C 0 -6.135416666666667 35 -6.135416666666667 35 18.40625C 35 42.947916666666664 0 42.947916666666664 0 18.40625Z" stroke="rgba(231,79,76,1)" stroke-width="1.5" fill-opacity="1" fill="#ffffff"></path><g id="SvgjsG2535"><text id="SvgjsText2536" font-family="微软雅黑" text-anchor="middle" font-size="16px" width="15px" fill="#e74f4c" font-weight="700" align="middle" lineHeight="125%" anchor="middle" family="微软雅黑" size="16px" weight="700" font-style="" opacity="1" y="4.40625" transform="rotate(0)"><tspan id="SvgjsTspan2537" dy="20" x="17.5"><tspan id="SvgjsTspan2538" style="text-decoration:;">1</tspan></tspan></text></g></g><g id="SvgjsG2539"><path id="SvgjsPath2540" d="M191.11959134615336 302.02599575565387L191.11959134615336 335.4375000000002L326.22310585595324 335.4375000000002" stroke="#323232" stroke-width="1.5" fill="none" marker-end="url(#SvgjsMarker2541)"></path></g><g id="SvgjsG2543" transform="translate(173.61959134615336,362.4375000000002)"><path id="SvgjsPath2544" d="M 0 18.40625C 0 -6.135416666666667 35 -6.135416666666667 35 18.40625C 35 42.947916666666664 0 42.947916666666664 0 18.40625Z" stroke="rgba(231,79,76,1)" stroke-width="1.5" fill-opacity="1" fill="#ffffff"></path><g id="SvgjsG2545"><text id="SvgjsText2546" font-family="微软雅黑" text-anchor="middle" font-size="16px" width="15px" fill="#e74f4c" font-weight="700" align="middle" lineHeight="125%" anchor="middle" family="微软雅黑" size="16px" weight="700" font-style="" opacity="1" y="4.40625" transform="rotate(0)"><tspan id="SvgjsTspan2547" dy="20" x="17.5"><tspan id="SvgjsTspan2548" style="text-decoration:;">2</tspan></tspan></text></g></g><g id="SvgjsG2549"><path id="SvgjsPath2550" d="M172.86959134615336 380.8437500000002L73 380.8437500000002L73 521.6644915113079" stroke="#323232" stroke-width="1.5" fill="none" marker-end="url(#SvgjsMarker2551)"></path></g><g id="SvgjsG2553" transform="translate(163.73918269230808,519.458241511308)"><path id="SvgjsPath2554" d="M 0 18.40625C 0 -6.135416666666667 35 -6.135416666666667 35 18.40625C 35 42.947916666666664 0 42.947916666666664 0 18.40625Z" stroke="rgba(231,79,76,1)" stroke-width="1.5" fill-opacity="1" fill="#ffffff"></path><g id="SvgjsG2555"><text id="SvgjsText2556" font-family="微软雅黑" text-anchor="middle" font-size="16px" width="15px" fill="#e74f4c" font-weight="700" align="middle" lineHeight="125%" anchor="middle" family="微软雅黑" size="16px" weight="700" font-style="" opacity="1" y="4.40625" transform="rotate(0)"><tspan id="SvgjsTspan2557" dy="20" x="17.5"><tspan id="SvgjsTspan2558" style="text-decoration:;">3</tspan></tspan></text></g></g><g id="SvgjsG2559"><path id="SvgjsPath2560" d="M162.98918269230808 537.864491511308L121.75 537.864491511308" stroke="#323232" stroke-width="1.5" fill="none"></path></g><g id="SvgjsG2561" transform="translate(349.044914752262,487.55199151130796)"><path id="SvgjsPath2562" d="M 0 18.40625C 0 -6.135416666666667 35 -6.135416666666667 35 18.40625C 35 42.947916666666664 0 42.947916666666664 0 18.40625Z" stroke="rgba(231,79,76,1)" stroke-width="1.5" fill-opacity="1" fill="#ffffff"></path><g id="SvgjsG2563"><text id="SvgjsText2564" font-family="微软雅黑" text-anchor="middle" font-size="16px" width="15px" fill="#e74f4c" font-weight="700" align="middle" lineHeight="125%" anchor="middle" family="微软雅黑" size="16px" weight="700" font-style="" opacity="1" y="4.40625" transform="rotate(0)"><tspan id="SvgjsTspan2565" dy="20" x="17.5"><tspan id="SvgjsTspan2566" style="text-decoration:;">4</tspan></tspan></text></g></g><g id="SvgjsG2567"><path id="SvgjsPath2568" d="M366.544914752262 486.80199151130796L366.544914752262 471.8019915113075L393.15064681221656 471.8019915113075" stroke="#323232" stroke-width="1.5" fill="none" marker-end="url(#SvgjsMarker2569)"></path></g><g id="SvgjsG2571" transform="translate(711.044914752262,717.6127296806912)"><path id="SvgjsPath2572" d="M 0 18.40625C 0 -6.135416666666667 35 -6.135416666666667 35 18.40625C 35 42.947916666666664 0 42.947916666666664 0 18.40625Z" stroke="rgba(231,79,76,1)" stroke-width="1.5" fill-opacity="1" fill="#ffffff"></path><g id="SvgjsG2573"><text id="SvgjsText2574" font-family="微软雅黑" text-anchor="middle" font-size="16px" width="15px" fill="#e74f4c" font-weight="700" align="middle" lineHeight="125%" anchor="middle" family="微软雅黑" size="16px" weight="700" font-style="" opacity="1" y="4.40625" transform="rotate(0)"><tspan id="SvgjsTspan2575" dy="20" x="17.5"><tspan id="SvgjsTspan2576" style="text-decoration:;">6</tspan></tspan></text></g></g><g id="SvgjsG2577"><path id="SvgjsPath2578" d="M746.794914752262 736.0189796806912L918.6222693434572 736.0189796806912L918.6222693434572 652.9818009321566" stroke="#323232" stroke-width="1.5" fill="none" marker-end="url(#SvgjsMarker2579)"></path></g><g id="SvgjsG2581" transform="translate(920.109080782265,214.55963088928047)"><path id="SvgjsPath2582" d="M 0 18.40625C 0 -6.135416666666667 41.77637712238402 -6.135416666666667 41.77637712238402 18.40625C 41.77637712238402 42.947916666666664 0 42.947916666666664 0 18.40625Z" stroke="rgba(231,79,76,1)" stroke-width="1.5" fill-opacity="1" fill="#ffffff"></path><g id="SvgjsG2583"><text id="SvgjsText2584" font-family="微软雅黑" text-anchor="middle" font-size="16px" width="22px" fill="#e74f4c" font-weight="700" align="middle" lineHeight="125%" anchor="middle" family="微软雅黑" size="16px" weight="700" font-style="" opacity="1" y="4.40625" transform="rotate(0)"><tspan id="SvgjsTspan2585" dy="20" x="21"><tspan id="SvgjsTspan2586" style="text-decoration:;">8</tspan></tspan></text></g></g><g id="SvgjsG2587" transform="translate(964.1680097670207,292.4615598472835)"><path id="SvgjsPath2588" d="M 7.701327674204852 0L 54.298672325795145 0C 64.56710922473495 0 64.56710922473495 23.103983022614557 54.298672325795145 23.103983022614557L 7.701327674204852 23.103983022614557C -2.5671092247349505 23.103983022614557 -2.5671092247349505 0 7.701327674204852 0Z" stroke="rgba(33,41,48,1)" stroke-width="1.5" fill-opacity="1" fill="#e74f4c"></path><g id="SvgjsG2589"><text id="SvgjsText2590" font-family="微软雅黑" text-anchor="middle" font-size="13px" width="42px" fill="#323232" font-weight="400" align="middle" lineHeight="125%" anchor="middle" family="微软雅黑" size="13px" weight="400" font-style="" opacity="1" y="0.9269915113072784" transform="rotate(0)"><tspan id="SvgjsTspan2591" dy="16" x="31"><tspan id="SvgjsTspan2592" style="text-decoration:;font-weight: bold;fill: rgb(255, 255, 255);">15001</tspan></tspan></text></g></g><g id="SvgjsG2593" transform="translate(964.1680097670207,327.1805853133617)"><path id="SvgjsPath2594" d="M 7.701327674204852 0L 54.298672325795145 0C 64.56710922473495 0 64.56710922473495 23.103983022614557 54.298672325795145 23.103983022614557L 7.701327674204852 23.103983022614557C -2.5671092247349505 23.103983022614557 -2.5671092247349505 0 7.701327674204852 0Z" stroke="rgba(33,41,48,1)" stroke-width="1.5" fill-opacity="1" fill="#e74f4c"></path><g id="SvgjsG2595"><text id="SvgjsText2596" font-family="微软雅黑" text-anchor="middle" font-size="13px" width="42px" fill="#323232" font-weight="400" align="middle" lineHeight="125%" anchor="middle" family="微软雅黑" size="13px" weight="400" font-style="" opacity="1" y="0.9269915113072784" transform="rotate(0)"><tspan id="SvgjsTspan2597" dy="16" x="31"><tspan id="SvgjsTspan2598" style="text-decoration:;font-weight: bold;fill: rgb(255, 255, 255);">15006</tspan></tspan></text></g></g><g id="SvgjsG2599"><path id="SvgjsPath2600" d="M918.6222693434572 512.1042597629969L918.6222693434572 495.0286235149788L918.6222693434572 495.0286235149788L918.6222693434572 477.9529872669607" stroke="#323232" stroke-width="1.5" fill="none"></path></g><g id="SvgjsG2601" transform="translate(901.1222693434572,440.3904872669607)"><path id="SvgjsPath2602" d="M 0 18.40625C 0 -6.135416666666667 35 -6.135416666666667 35 18.40625C 35 42.947916666666664 0 42.947916666666664 0 18.40625Z" stroke="rgba(231,79,76,1)" stroke-width="1.5" fill-opacity="1" fill="#ffffff"></path><g id="SvgjsG2603"><text id="SvgjsText2604" font-family="微软雅黑" text-anchor="middle" font-size="16px" width="15px" fill="#e74f4c" font-weight="700" align="middle" lineHeight="125%" anchor="middle" family="微软雅黑" size="16px" weight="700" font-style="" opacity="1" y="4.40625" transform="rotate(0)"><tspan id="SvgjsTspan2605" dy="20" x="17.5"><tspan id="SvgjsTspan2606" style="text-decoration:;">7</tspan></tspan></text></g></g><g id="SvgjsG2607"><path id="SvgjsPath2608" d="M918.6222693434572 439.6404872669607L918.6222693434572 430.3904872669607L1048.5887501905843 430.3904872669607L1048.5887501905843 338.73257682466897L1028.8680097670208 338.73257682466897" stroke="#323232" stroke-width="1.5" fill="none" marker-end="url(#SvgjsMarker2609)"></path></g><g id="SvgjsG2611" transform="translate(148.52432059512967,211.75193590837057)"><path id="SvgjsPath2612" d="M 0 4Q 0 0 4 0L 84.67239004675776 0Q 88.67239004675776 0 88.67239004675776 4L 88.67239004675776 16.336559847283183Q 88.67239004675776 20.336559847283183 84.67239004675776 20.336559847283183L 4 20.336559847283183Q 0 20.336559847283183 0 16.336559847283183Z" stroke="rgba(33,41,48,1)" stroke-width="1.5" fill-opacity="1" fill="#4669ea"></path><g id="SvgjsG2613"><text id="SvgjsText2614" font-family="微软雅黑" text-anchor="middle" font-size="16px" width="69px" fill="#ffffff" font-weight="400" align="middle" lineHeight="125%" anchor="middle" family="微软雅黑" size="16px" weight="400" font-style="" opacity="1" y="-3.8317200763584083" transform="rotate(0)"><tspan id="SvgjsTspan2615" dy="20" x="44.5"><tspan id="SvgjsTspan2616" style="text-decoration:;font-weight: bold;">veth</tspan></tspan></text></g></g><g id="SvgjsG2617"><path id="SvgjsPath2618" d="M449.1665682258224 710.1122425178382L449.1665682258224 736.0189796806912L710.294914752262 736.0189796806912" stroke="#323232" stroke-width="1.5" fill="none"></path></g><g id="SvgjsG2619" transform="translate(441.27238279627204,519.458241511308)"><path id="SvgjsPath2620" d="M 0 18.40625C 0 -6.135416666666667 35 -6.135416666666667 35 18.40625C 35 42.947916666666664 0 42.947916666666664 0 18.40625Z" stroke="rgba(231,79,76,1)" stroke-width="1.5" fill-opacity="1" fill="#ffffff"></path><g id="SvgjsG2621"><text id="SvgjsText2622" font-family="微软雅黑" text-anchor="middle" font-size="16px" width="15px" fill="#e74f4c" font-weight="700" align="middle" lineHeight="125%" anchor="middle" family="微软雅黑" size="16px" weight="700" font-style="" opacity="1" y="4.40625" transform="rotate(0)"><tspan id="SvgjsTspan2623" dy="20" x="17.5"><tspan id="SvgjsTspan2624" style="text-decoration:;">5</tspan></tspan></text></g></g><g id="SvgjsG2625"><path id="SvgjsPath2626" d="M918.6222693434572 618.85868123759L918.6222693434572 587.939711374449L918.6222693434572 587.939711374449L918.6222693434572 557.020741511308" stroke="#323232" stroke-width="1.5" fill="none"></path></g><g id="SvgjsG2627" transform="translate(148.52432059512967,159.04037606108727)"><path id="SvgjsPath2628" d="M 0 4Q 0 0 4 0L 84.67239004675776 0Q 88.67239004675776 0 88.67239004675776 4L 88.67239004675776 16.336559847283183Q 88.67239004675776 20.336559847283183 84.67239004675776 20.336559847283183L 4 20.336559847283183Q 0 20.336559847283183 0 16.336559847283183Z" stroke="rgba(33,41,48,1)" stroke-width="1.5" fill-opacity="1" fill="#4669ea"></path><g id="SvgjsG2629"><text id="SvgjsText2630" font-family="微软雅黑" text-anchor="middle" font-size="16px" width="69px" fill="#ffffff" font-weight="400" align="middle" lineHeight="125%" anchor="middle" family="微软雅黑" size="16px" weight="400" font-style="" opacity="1" y="-3.8317200763584083" transform="rotate(0)"><tspan id="SvgjsTspan2631" dy="20" x="44.5"><tspan id="SvgjsTspan2632" style="text-decoration:;font-weight: bold;">eth0</tspan></tspan></text></g></g><g id="SvgjsG2633"><path id="SvgjsPath2634" d="M192.86051561850832 180.12693590837011L192.86051561850832 195.56443590837034L192.86051561850832 195.56443590837034L192.86051561850832 209.05193590837052" stroke="#323232" stroke-width="1.5" fill="none" marker-end="url(#SvgjsMarker2635)"></path></g><g id="SvgjsG2637"><path id="SvgjsPath2638" d="M854.8265289198937 346.6908183359765L828.1874514424628 346.6908183359765L828.1874514424628 266.1894359083701L940.9972693434568 266.1894359083701L940.9972693434568 252.12213088928047" stroke="#323232" stroke-width="1.5" fill="none"></path></g><g id="SvgjsG2639"><path id="SvgjsPath2640" d="M940.9972693434572 213.80963088928047L940.9972693434572 204.6557833988254L940.9972693434572 204.6557833988254L940.9972693434572 197.7019359083704" stroke="#323232" stroke-width="1.5" fill="none" marker-end="url(#SvgjsMarker2641)"></path></g><g id="SvgjsG2643" transform="translate(359.530551039534,48.66537606108682)"><path id="SvgjsPath2644" d="M 0 0L 226.4552180006508 0L 226.4552180006508 100.00000000000023L 0 100.00000000000023Z" stroke="rgba(33,41,48,1)" stroke-width="1.5" fill-opacity="1" fill="#ffffff"></path><g id="SvgjsG2645"><text id="SvgjsText2646" font-family="微软雅黑" text-anchor="middle" font-size="16px" width="207px" fill="#323232" font-weight="400" align="top" lineHeight="125%" anchor="middle" family="微软雅黑" size="16px" weight="400" font-style="" opacity="1" y="-4" transform="rotate(0)"><tspan id="SvgjsTspan2647" dy="20" x="113.5"><tspan id="SvgjsTspan2648" style="text-decoration:;font-weight: bold;">NS: istio-system</tspan></tspan></text></g></g><g id="SvgjsG2649" transform="translate(370.1845767844254,75.66537606108682)"><path id="SvgjsPath2650" d="M 0 4Q 0 0 4 0L 202.4552180006508 0Q 206.4552180006508 0 206.4552180006508 4L 206.4552180006508 59.406525466078165Q 206.4552180006508 63.406525466078165 202.4552180006508 63.406525466078165L 4 63.406525466078165Q 0 63.406525466078165 0 59.406525466078165Z" stroke="rgba(33,41,48,1)" stroke-width="1.5" fill-opacity="1" fill="#4ccbcd"></path><g id="SvgjsG2651"><text id="SvgjsText2652" font-family="微软雅黑" text-anchor="middle" font-size="13px" width="187px" fill="#323232" font-weight="400" align="top" lineHeight="125%" anchor="middle" family="微软雅黑" size="13px" weight="400" font-style="" opacity="1" y="-2.625" transform="rotate(0)"><tspan id="SvgjsTspan2653" dy="16" x="103.5"><tspan id="SvgjsTspan2654" style="text-decoration:;font-weight: bold;">Istio CNI </tspan><tspan id="SvgjsTspan2655" style="text-decoration:;font-size: inherit; font-weight: bold;">DaemonSet</tspan></tspan></text></g></g><g id="SvgjsG2656" transform="translate(375.641720499789,102.05475636652022)"><path id="SvgjsPath2657" d="M 0 4Q 0 0 4 0L 193.03530929045587 0Q 197.03530929045587 0 197.03530929045587 4L 197.03530929045587 23.75331833597511Q 197.03530929045587 27.75331833597511 193.03530929045587 27.75331833597511L 4 27.75331833597511Q 0 27.75331833597511 0 23.75331833597511Z" stroke="rgba(33,41,48,1)" stroke-width="1.5" fill-opacity="1" fill="#e0c431"></path><g id="SvgjsG2658"><text id="SvgjsText2659" font-family="微软雅黑" text-anchor="middle" font-size="12px" width="178px" fill="#323232" font-weight="400" align="middle" lineHeight="125%" anchor="middle" family="微软雅黑" size="12px" weight="400" font-style="" opacity="1" y="3.8766591679875546" transform="rotate(0)"><tspan id="SvgjsTspan2660" dy="15" x="99"><tspan id="SvgjsTspan2661" style="text-decoration:;font-weight: bold;">CNI Network Plugin</tspan></tspan></text></g></g><g id="SvgjsG2662"><path id="SvgjsPath2663" d="M473.04092671676926 139.72356609152405L378.25963850068774 306.09150756830763" stroke="#323232" stroke-width="1.5" fill="none" marker-end="url(#SvgjsMarker2664)"></path></g><g id="SvgjsG2666"><path id="SvgjsPath2667" d="M473.3763383156438 139.8210443432946L458.9014336850578 442.3185731288945" stroke="#323232" stroke-width="1.5" fill="none" marker-end="url(#SvgjsMarker2668)"></path></g><g id="SvgjsG2670" transform="translate(357.86878186070203,590.4134401527165)"><path id="SvgjsPath2671" d="M 0 0L 196.94391025641016 0L 196.94391025641016 113.37002122173158L 0 113.37002122173158Z" stroke="none" fill="url(#SvgjsPattern2672)"></path></g><g id="SvgjsG2674"><path id="SvgjsPath2675" d="M458.77238279627204 499.33849575565364L458.77238279627204 509.0233686334808L458.77238279627204 509.0233686334808L458.77238279627204 518.708241511308" stroke="#323232" stroke-width="1.5" fill="none"></path></g><g id="SvgjsG2676" transform="translate(514.6397947850762,603.0327338159304)"><path id="SvgjsPath2677" d="M 7.701327674204852 0L 54.298672325795145 0C 64.56710922473495 0 64.56710922473495 23.103983022614557 54.298672325795145 23.103983022614557L 7.701327674204852 23.103983022614557C -2.5671092247349505 23.103983022614557 -2.5671092247349505 0 7.701327674204852 0Z" stroke="rgba(33,41,48,1)" stroke-width="1.5" fill-opacity="1" fill="#e74f4c"></path><g id="SvgjsG2678"><text id="SvgjsText2679" font-family="微软雅黑" text-anchor="middle" font-size="13px" width="42px" fill="#323232" font-weight="400" align="middle" lineHeight="125%" anchor="middle" family="微软雅黑" size="13px" weight="400" font-style="" opacity="1" y="0.9269915113072784" transform="rotate(0)"><tspan id="SvgjsTspan2680" dy="16" x="31"><tspan id="SvgjsTspan2681" style="text-decoration:;font-weight: bold;fill: rgb(255, 255, 255);">15001</tspan></tspan></text></g></g><g id="SvgjsG2682" transform="translate(514.6397947850762,637.7517592820086)"><path id="SvgjsPath2683" d="M 7.701327674204852 0L 54.298672325795145 0C 64.56710922473495 0 64.56710922473495 23.103983022614557 54.298672325795145 23.103983022614557L 7.701327674204852 23.103983022614557C -2.5671092247349505 23.103983022614557 -2.5671092247349505 0 7.701327674204852 0Z" stroke="rgba(33,41,48,1)" stroke-width="1.5" fill-opacity="1" fill="#e74f4c"></path><g id="SvgjsG2684"><text id="SvgjsText2685" font-family="微软雅黑" text-anchor="middle" font-size="13px" width="42px" fill="#323232" font-weight="400" align="middle" lineHeight="125%" anchor="middle" family="微软雅黑" size="13px" weight="400" font-style="" opacity="1" y="0.9269915113072784" transform="rotate(0)"><tspan id="SvgjsTspan2686" dy="16" x="31"><tspan id="SvgjsTspan2687" style="text-decoration:;font-weight: bold;fill: rgb(255, 255, 255);">15006</tspan></tspan></text></g></g><g id="SvgjsG2688" transform="translate(514.6397947850762,670.4494923046232)"><path id="SvgjsPath2689" d="M 7.701327674204852 0L 54.298672325795145 0C 64.56710922473495 0 64.56710922473495 23.103983022614557 54.298672325795145 23.103983022614557L 7.701327674204852 23.103983022614557C -2.5671092247349505 23.103983022614557 -2.5671092247349505 0 7.701327674204852 0Z" stroke="rgba(33,41,48,1)" stroke-width="1.5" fill-opacity="1" fill="#e74f4c"></path><g id="SvgjsG2690"><text id="SvgjsText2691" font-family="微软雅黑" text-anchor="middle" font-size="13px" width="42px" fill="#323232" font-weight="400" align="middle" lineHeight="125%" anchor="middle" family="微软雅黑" size="13px" weight="400" font-style="" opacity="1" y="0.9269915113072784" transform="rotate(0)"><tspan id="SvgjsTspan2692" dy="16" x="31"><tspan id="SvgjsTspan2693" style="text-decoration:;font-weight: bold;fill: rgb(255, 255, 255);">15008</tspan></tspan></text></g></g><g id="SvgjsG2694" transform="translate(419.86878186070203,689.9020650981622)"><path id="SvgjsPath2695" d="M 0 4Q 0 0 4 0L 71.77101292437374 0Q 75.77101292437374 0 75.77101292437374 4L 75.77101292437374 16Q 75.77101292437374 20 71.77101292437374 20L 4 20Q 0 20 0 16Z" stroke="rgba(33,41,48,1)" stroke-width="1.5" fill-opacity="1" fill="#4669ea"></path><g id="SvgjsG2696"><text id="SvgjsText2697" font-family="微软雅黑" text-anchor="middle" font-size="16px" width="56px" fill="#ffffff" font-weight="400" align="middle" lineHeight="125%" anchor="middle" family="微软雅黑" size="16px" weight="400" font-style="" opacity="1" y="-4" transform="rotate(0)"><tspan id="SvgjsTspan2698" dy="20" x="38"><tspan id="SvgjsTspan2699" style="text-decoration:;font-weight: bold;">eth0</tspan></tspan></text></g></g><g id="SvgjsG2700"><path id="SvgjsPath2701" d="M458.77238279627204 557.020741511308L458.77238279627204 579.6517376636193L545.6397947850762 579.6517376636193L545.6397947850762 600.3327338159304" stroke="#323232" stroke-width="1.5" fill="none" marker-end="url(#SvgjsMarker2702)"></path></g></svg>