<svg id="a99d9008-dfef-4549-93f6-d1efdd130610" data-name="Layer 1" xmlns="http://www.w3.org/2000/svg" viewBox="0 0 462.99 540.2"><defs><style>.bc0dab6f-e20f-49d2-b487-f1cf616a4df9,.be9b3014-9b0f-4308-b901-a0a857a521ca,.e9ab7430-79b1-46ae-94c5-c55a0dc496f5,.f6e75039-ebbf-4ef0-971c-e0882c91fc72,.f7de27c4-c75e-4099-b3a0-df6ffcdfe7ae,.fe376856-246b-4339-8891-8bcd3c8c7bf7{fill:none;}.e9ab7430-79b1-46ae-94c5-c55a0dc496f5{stroke:#666;stroke-dasharray:6 12 6;}.be9b3014-9b0f-4308-b901-a0a857a521ca,.e9ab7430-79b1-46ae-94c5-c55a0dc496f5,.f6e75039-ebbf-4ef0-971c-e0882c91fc72,.f7de27c4-c75e-4099-b3a0-df6ffcdfe7ae,.fe376856-246b-4339-8891-8bcd3c8c7bf7{stroke-linejoin:round;}.e9ab7430-79b1-46ae-94c5-c55a0dc496f5,.fe376856-246b-4339-8891-8bcd3c8c7bf7{stroke-width:2px;}.b9924832-4103-4000-a886-52e496839cbf{font-size:16px;}.a250aa2c-d944-47fc-a407-37f448ae85d7,.b9924832-4103-4000-a886-52e496839cbf,.f3672520-798a-494d-998c-42cda76d5ff0,.faad7408-3025-4d1b-a8f6-af51bf983268{font-family:OpenSans, Open Sans;}.be9b3014-9b0f-4308-b901-a0a857a521ca{stroke:#466bb0;stroke-dasharray:9.98 9.98;}.bc0dab6f-e20f-49d2-b487-f1cf616a4df9,.be9b3014-9b0f-4308-b901-a0a857a521ca,.f7de27c4-c75e-4099-b3a0-df6ffcdfe7ae{stroke-width:4px;}.faad7408-3025-4d1b-a8f6-af51bf983268{font-size:14px;}.f3672520-798a-494d-998c-42cda76d5ff0{font-size:12px;}.aeed503f-c0b1-4829-af1b-60886127dfbe{fill:#e6e6e6;}.bd5ac253-c909-4200-8495-4217bfc893c2{fill:#fff;}.a250aa2c-d944-47fc-a407-37f448ae85d7{font-size:16.29px;}.bb97b4d8-8228-4014-99cf-8dfb6c9da7b9{fill:#326de6;}.f1c6ce6e-1171-497e-bc49-90e1e6feedb5{fill:#e5e5e4;}.aa441b90-e84c-4f36-8dd5-ccf592e26cf1{fill:#486baf;}.fe376856-246b-4339-8891-8bcd3c8c7bf7{stroke:#fbb040;}.bc0dab6f-e20f-49d2-b487-f1cf616a4df9{stroke:#090;stroke-miterlimit:10;}.fce7b5a8-addd-4983-b9c9-223aba8b0004{fill:#090;}.f7de27c4-c75e-4099-b3a0-df6ffcdfe7ae{stroke:#4d4d4d;stroke-linecap:round;stroke-dasharray:6 12;}.b8e2a46d-7ef2-408e-a0e9-08f2e0c7258d{fill:#4d4d4d;}.f6e75039-ebbf-4ef0-971c-e0882c91fc72{stroke:#e905ee;stroke-width:3px;}</style></defs><rect class="e9ab7430-79b1-46ae-94c5-c55a0dc496f5" x="1" y="19.13" width="460.99" height="520.07" rx="10"/><text class="b9924832-4103-4000-a886-52e496839cbf" transform="translate(0.86 13.71)">Network_1</text><rect class="be9b3014-9b0f-4308-b901-a0a857a521ca" x="55.37" y="70.65" width="352.27" height="434.47" rx="10"/><text class="faad7408-3025-4d1b-a8f6-af51bf983268" transform="translate(55.35 65.21)">Istio Mesh</text><text class="f3672520-798a-494d-998c-42cda76d5ff0" transform="translate(113.39 101.48)">Cluster_1</text><rect class="aeed503f-c0b1-4829-af1b-60886127dfbe" x="151.95" y="117.78" width="156.38" height="83.76" rx="3"/><rect class="bd5ac253-c909-4200-8495-4217bfc893c2" x="162.01" y="128.25" width="136.12" height="62.82" rx="3"/><text class="a250aa2c-d944-47fc-a407-37f448ae85d7" transform="translate(218.63 165.29)">API server</text><path id="aefd517d-21c6-4137-85d7-7e3caa89ad9b" data-name="path10349" class="bb97b4d8-8228-4014-99cf-8dfb6c9da7b9" d="M205.51,149.78a3,3,0,0,0-1.47-1.69l-14-6.69a2.57,2.57,0,0,0-1.14-.22,5,5,0,0,0-1.15.09l-14,6.73a2.43,2.43,0,0,0-1.37,1.69L169,164.75a2.92,2.92,0,0,0,.51,2.2l9.66,12a3.38,3.38,0,0,0,2.1,1h15.38a2.3,2.3,0,0,0,2.11-1l9.66-12a3.13,3.13,0,0,0,.55-2.2l-3.48-15Z"/><path id="afb10c1b-9c0f-4af2-a4a7-483028ff5927" data-name="path10351" class="bd5ac253-c909-4200-8495-4217bfc893c2" d="M203.36,163.8h0c-.05,0-.09,0-.09-.05s-.1,0-.19,0a2,2,0,0,0-.55-.05.63.63,0,0,1-.27,0h0a9.35,9.35,0,0,1-1.55-.28.51.51,0,0,1-.32-.32h0l-.37-.09a11.3,11.3,0,0,0-1.79-7.78l.28-.28h0v0a.59.59,0,0,1,.14-.41,8.12,8.12,0,0,1,1.28-.92h0l.27-.14c.19-.09.32-.18.51-.27,0-.05.09-.05.13-.09s0-.05,0-.09h0a.88.88,0,0,0-.45-1.61,1.06,1.06,0,0,0-.64.23h0l0,.05c-.05,0-.09.09-.14.09a2.64,2.64,0,0,0-.36.41.63.63,0,0,1-.19.18h0a5.77,5.77,0,0,1-1.14,1,.58.58,0,0,1-.28.09.31.31,0,0,1-.18,0h-.05l-.36.23c-.37-.37-.78-.74-1.15-1.1a11.71,11.71,0,0,0-6-2.38l0-.37h0v.05a.59.59,0,0,1-.23-.37,9.37,9.37,0,0,1,.09-1.56v0c0-.09.05-.18.05-.28s0-.36.09-.55v-.27h0a.92.92,0,0,0-1.83,0h0v.23a2.18,2.18,0,0,0,.09.55.63.63,0,0,1,0,.27v.05a7.87,7.87,0,0,1,.1,1.55.69.69,0,0,1-.23.37v.09h0l0,.37c-.5,0-1,.14-1.56.23a10.94,10.94,0,0,0-5.63,3.2l-.27-.18h-.05a1,1,0,0,1-.18,0,.58.58,0,0,1-.27-.09,7.76,7.76,0,0,1-1.15-1.05h0c0-.09-.14-.14-.18-.18s-.23-.28-.37-.41-.09-.05-.14-.1l0,0h0a1.06,1.06,0,0,0-.64-.23.68.68,0,0,0-.64.32A1,1,0,0,0,177,153h0a0,0,0,0,1,0,.05s.09.09.13.09a4.73,4.73,0,0,0,.51.27l.27.14h0a6.32,6.32,0,0,1,1.28.92.45.45,0,0,1,.14.41v-.05h0l.28.28a1.76,1.76,0,0,0-.14.23,10.8,10.8,0,0,0-1.6,7.5l-.37.09h0a0,0,0,0,1,0,.05c0,.14-.18.23-.32.32a8.5,8.5,0,0,1-1.55.28h0a.68.68,0,0,0-.28,0c-.18,0-.36.05-.55.05a1,1,0,0,1-.18,0c-.05,0-.05,0-.09.05h0a.88.88,0,0,0-.73,1h0a.84.84,0,0,0,.91.64.47.47,0,0,0,.23,0h0s0,0,0-.05.13,0,.18,0,.37-.14.5-.18a.61.61,0,0,1,.28-.09h0a8.42,8.42,0,0,1,1.51-.42h0a.55.55,0,0,1,.37.14s0,.05,0,.05h0l.41-.05a11.07,11.07,0,0,0,3.76,5.36,7.52,7.52,0,0,0,1.23.82l-.23.32h0a0,0,0,0,0,0,.05.57.57,0,0,1,.05.46,7.8,7.8,0,0,1-.74,1.32v0a.73.73,0,0,1-.18.23c-.09.09-.18.27-.32.46,0,0,0,.09-.09.13a0,0,0,0,1,0,0h0a.93.93,0,0,0,.37,1.23.79.79,0,0,0,.32.1,1,1,0,0,0,.87-.55h0s0,0,0,0,.05-.09.1-.14.13-.32.18-.5l.09-.27h0a7.47,7.47,0,0,1,.6-1.42.7.7,0,0,1,.36-.28s0,0,0,0h0l.18-.37a10.84,10.84,0,0,0,4,.73,9.18,9.18,0,0,0,2.48-.32,13,13,0,0,0,1.46-.41l.18.32h0c.05,0,.05,0,.05.05a.69.69,0,0,1,.37.27,8.85,8.85,0,0,1,.59,1.42v.05l.09.27a1.49,1.49,0,0,0,.19.5c0,.05,0,.09.09.14s0,0,0,0h0a1,1,0,0,0,.87.55,1,1,0,0,0,.37-.1.77.77,0,0,0,.41-.5,1.09,1.09,0,0,0,0-.69h0a0,0,0,0,0,0,0s-.05-.09-.09-.14a1.89,1.89,0,0,0-.32-.46.92.92,0,0,0-.19-.23v-.09a5.37,5.37,0,0,1-.73-1.32.57.57,0,0,1,.05-.46c0-.05,0-.05,0-.05h0l-.13-.36a11.32,11.32,0,0,0,4.94-6.23l.37.05h0s0-.05,0-.05a.53.53,0,0,1,.37-.14h0a7.77,7.77,0,0,1,1.47.41h0a.68.68,0,0,0,.28.1,2.18,2.18,0,0,0,.5.22c.05,0,.09.05.19.05s0,0,.09.05h0a.45.45,0,0,0,.23,0,1,1,0,0,0,.91-.64,1.07,1.07,0,0,0-.82-1Zm-13.23-1.42-1.24.6-1.23-.6-.32-1.33.87-1.1h1.37l.87,1.1Zm7.46-3a8.75,8.75,0,0,1,.18,2.88l-4.35-1.24h0a.75.75,0,0,1-.55-.91.78.78,0,0,1,.19-.32l3.43-3.12A9.47,9.47,0,0,1,197.59,159.41Zm-2.47-4.4-3.76,2.66a.78.78,0,0,1-1-.19.42.42,0,0,1-.14-.32l-.28-4.62a8.66,8.66,0,0,1,5.18,2.47Zm-8.29-2.33.92-.19-.23,4.58h0a.77.77,0,0,1-.78.73,1,1,0,0,1-.37-.09l-3.8-2.7A9.08,9.08,0,0,1,186.83,152.68Zm-5.58,4,3.38,3h0a.73.73,0,0,1,.1,1.05.55.55,0,0,1-.37.23l-4.44,1.28A9.63,9.63,0,0,1,181.25,156.7Zm-.78,7.74,4.53-.78a.75.75,0,0,1,.78.6.58.58,0,0,1-.05.46h0L184,168.93A9,9,0,0,1,180.47,164.44Zm10.39,5.68a9.74,9.74,0,0,1-2,.23,10.38,10.38,0,0,1-2.88-.46l2.24-4.08a.72.72,0,0,1,.92-.18,2.07,2.07,0,0,1,.36.32h0l2.2,4C191.46,170,191.18,170,190.86,170.12Zm5.59-4a8.8,8.8,0,0,1-2.75,2.75l-1.79-4.3a.74.74,0,0,1,.42-.87,1.16,1.16,0,0,1,.41-.09l4.57.78A6.66,6.66,0,0,1,196.45,166.13Z"/><rect class="f1c6ce6e-1171-497e-bc49-90e1e6feedb5" x="158.44" y="249.84" width="143.39" height="87.76" rx="3"/><rect class="bd5ac253-c909-4200-8495-4217bfc893c2" x="168.68" y="300.37" width="122.91" height="30.73" rx="3"/><text class="a250aa2c-d944-47fc-a407-37f448ae85d7" transform="translate(209.35 320.55)">istiod</text><rect id="e738671a-4fb7-4eae-8d9b-bea1e15bc086" data-name="background" class="aa441b90-e84c-4f36-8dd5-ccf592e26cf1" x="213.59" y="249.84" width="33.08" height="33.08"/><polygon id="ee0c36c5-414d-47eb-ba66-58cbc15488ba" data-name="hull" class="bd5ac253-c909-4200-8495-4217bfc893c2" points="220.13 277.64 240.14 277.64 227.63 281.39 220.13 277.64"/><polygon id="abb80872-02bf-4ec9-9eed-50ffe4febca5" data-name="mainsail" class="bd5ac253-c909-4200-8495-4217bfc893c2" points="220.13 276.39 227.63 275.14 227.63 261.38 220.13 276.39"/><polygon id="b3a6281c-573e-4907-a79d-64067048a8aa" data-name="headsail" class="bd5ac253-c909-4200-8495-4217bfc893c2" points="228.88 275.14 240.14 276.39 228.88 251.38 228.88 275.14"/><rect class="fe376856-246b-4339-8891-8bcd3c8c7bf7" x="113.64" y="107.23" width="233" height="373" rx="5"/><line class="bc0dab6f-e20f-49d2-b487-f1cf616a4df9" x1="230.05" y1="386.17" x2="230.05" y2="344.34"/><polygon class="fce7b5a8-addd-4983-b9c9-223aba8b0004" points="235.03 345.8 230.04 337.17 225.06 345.8 235.03 345.8"/><line class="f7de27c4-c75e-4099-b3a0-df6ffcdfe7ae" x1="230.05" y1="250.17" x2="230.05" y2="208.34"/><polygon class="b8e2a46d-7ef2-408e-a0e9-08f2e0c7258d" points="235.03 209.8 230.04 201.16 225.06 209.8 235.03 209.8"/><text class="f3672520-798a-494d-998c-42cda76d5ff0" transform="translate(239.45 364.45)">xDS traffic</text><text class="f3672520-798a-494d-998c-42cda76d5ff0" transform="translate(239.45 225.45)">Requests</text><rect class="aeed503f-c0b1-4829-af1b-60886127dfbe" x="147.65" y="385.91" width="164.94" height="83.76" rx="3"/><rect class="bd5ac253-c909-4200-8495-4217bfc893c2" x="157.71" y="396.38" width="144.3" height="62.82" rx="3"/><text class="a250aa2c-d944-47fc-a407-37f448ae85d7" transform="translate(235.75 433.42)">Proxy</text><polygon class="f6e75039-ebbf-4ef0-971c-e0882c91fc72" points="207.14 436.69 207.14 418.89 191.71 409.99 176.28 418.89 176.28 436.69 191.71 445.59 207.14 436.69"/></svg>