<svg id="b73f0c52-274c-4640-bae5-c10b2267f143" data-name="Layer 1" xmlns="http://www.w3.org/2000/svg" viewBox="0 0 462.99 540.2"><defs><style>.b64ac4af-f961-43fb-a88f-a3563f086e91,.bca3f898-4d5b-4c4f-a0a1-a14ec53ee716,.bf2e390e-cbe6-4dd0-9d16-7a646f957b72,.e9513070-afad-4e5c-be58-35a5166067a2,.ebe1562d-86e7-49b8-ace0-d21b452357d0,.f1abf08c-90ff-48b0-a898-f929ab7e8700,.fc567721-ce16-4d5a-85d9-c72b4943b1a7,.ff6778e7-96bf-4f32-9299-feea6d5fa148{fill:none;}.ebe1562d-86e7-49b8-ace0-d21b452357d0{stroke:#666;stroke-dasharray:6 12 6;}.bf2e390e-cbe6-4dd0-9d16-7a646f957b72,.e9513070-afad-4e5c-be58-35a5166067a2,.ebe1562d-86e7-49b8-ace0-d21b452357d0,.f1abf08c-90ff-48b0-a898-f929ab7e8700,.fc567721-ce16-4d5a-85d9-c72b4943b1a7,.ff6778e7-96bf-4f32-9299-feea6d5fa148{stroke-linejoin:round;}.bca3f898-4d5b-4c4f-a0a1-a14ec53ee716,.e9513070-afad-4e5c-be58-35a5166067a2,.ebe1562d-86e7-49b8-ace0-d21b452357d0,.ff6778e7-96bf-4f32-9299-feea6d5fa148{stroke-width:2px;}.ef229b9c-6c01-4c15-95d2-480b2fc294b3{font-size:16px;}.a7de6a57-ef30-4066-9f3a-5889c43b1ec2,.a98c4774-c945-4828-833d-5d57d3b1bcb8,.e717a654-c94f-45e8-a648-ab2c495f8bd2,.ef229b9c-6c01-4c15-95d2-480b2fc294b3{font-family:OpenSans, Open Sans;}.fc567721-ce16-4d5a-85d9-c72b4943b1a7{stroke:#466bb0;stroke-dasharray:9.98 9.98;}.b64ac4af-f961-43fb-a88f-a3563f086e91,.f1abf08c-90ff-48b0-a898-f929ab7e8700,.fc567721-ce16-4d5a-85d9-c72b4943b1a7{stroke-width:4px;}.a7de6a57-ef30-4066-9f3a-5889c43b1ec2{font-size:14px;}.a98c4774-c945-4828-833d-5d57d3b1bcb8{font-size:12px;}.b2549f83-742c-4843-b22b-4a5a83e1d841{fill:#e6e6e6;}.b8bcd6d0-b2ce-470c-9c03-1fc1219cbc7e{fill:#fff;}.e717a654-c94f-45e8-a648-ab2c495f8bd2{font-size:16.29px;}.e67eb9ec-27be-41f4-88b6-5a37a005beaf{fill:#757575;}.bca3f898-4d5b-4c4f-a0a1-a14ec53ee716,.ff6778e7-96bf-4f32-9299-feea6d5fa148{stroke:#fff;}.bca3f898-4d5b-4c4f-a0a1-a14ec53ee716,.f1abf08c-90ff-48b0-a898-f929ab7e8700{stroke-linecap:round;}.b64ac4af-f961-43fb-a88f-a3563f086e91,.bca3f898-4d5b-4c4f-a0a1-a14ec53ee716{stroke-miterlimit:10;}.bf2e390e-cbe6-4dd0-9d16-7a646f957b72{stroke:#e905ee;stroke-width:3px;}.a1704e86-6954-4b55-8c70-62bc51052c63{fill:#e5e5e4;}.beec5610-8ba6-4532-abf9-9869ae804cba{fill:#486baf;}.e9513070-afad-4e5c-be58-35a5166067a2{stroke:#fbb040;}.b64ac4af-f961-43fb-a88f-a3563f086e91{stroke:#090;}.b3479880-9b66-454e-9b56-26bfacf7ad5d{fill:#090;}.f1abf08c-90ff-48b0-a898-f929ab7e8700{stroke:#4d4d4d;stroke-dasharray:6 12;}.ff02630b-85c0-4e43-a84f-c76e188688fc{fill:#4d4d4d;}</style></defs><rect class="ebe1562d-86e7-49b8-ace0-d21b452357d0" x="1" y="19.13" width="460.99" height="520.07" rx="10"/><text class="ef229b9c-6c01-4c15-95d2-480b2fc294b3" transform="translate(0.86 13.71)">Network_1</text><rect class="fc567721-ce16-4d5a-85d9-c72b4943b1a7" x="55.37" y="70.65" width="352.27" height="434.47" rx="10"/><text class="a7de6a57-ef30-4066-9f3a-5889c43b1ec2" transform="translate(55.35 65.21)">Istio Mesh</text><text class="a98c4774-c945-4828-833d-5d57d3b1bcb8" transform="translate(113.39 101.48)">Cluster_1</text><rect class="b2549f83-742c-4843-b22b-4a5a83e1d841" x="151.95" y="117.78" width="156.38" height="83.76" rx="3"/><rect class="b8bcd6d0-b2ce-470c-9c03-1fc1219cbc7e" x="162.01" y="128.25" width="136.12" height="62.82" rx="3"/><text class="e717a654-c94f-45e8-a648-ab2c495f8bd2" transform="translate(218.63 165.29)">API server</text><circle class="e67eb9ec-27be-41f4-88b6-5a37a005beaf" cx="193.42" cy="159.66" r="20.94"/><rect class="ff6778e7-96bf-4f32-9299-feea6d5fa148" x="185.98" y="152.09" width="14.88" height="14.88"/><line class="bca3f898-4d5b-4c4f-a0a1-a14ec53ee716" x1="188.73" y1="152.09" x2="188.73" y2="148.5"/><line class="bca3f898-4d5b-4c4f-a0a1-a14ec53ee716" x1="193.42" y1="152.09" x2="193.42" y2="148.5"/><line class="bca3f898-4d5b-4c4f-a0a1-a14ec53ee716" x1="198.1" y1="152.09" x2="198.1" y2="148.5"/><line class="bca3f898-4d5b-4c4f-a0a1-a14ec53ee716" x1="188.73" y1="170.82" x2="188.73" y2="167.24"/><line class="bca3f898-4d5b-4c4f-a0a1-a14ec53ee716" x1="193.42" y1="170.82" x2="193.42" y2="167.24"/><line class="bca3f898-4d5b-4c4f-a0a1-a14ec53ee716" x1="198.1" y1="170.82" x2="198.1" y2="167.24"/><line class="bca3f898-4d5b-4c4f-a0a1-a14ec53ee716" x1="185.84" y1="164.35" x2="182.26" y2="164.35"/><line class="bca3f898-4d5b-4c4f-a0a1-a14ec53ee716" x1="185.84" y1="159.66" x2="182.26" y2="159.66"/><line class="bca3f898-4d5b-4c4f-a0a1-a14ec53ee716" x1="185.84" y1="154.98" x2="182.26" y2="154.98"/><line class="bca3f898-4d5b-4c4f-a0a1-a14ec53ee716" x1="204.58" y1="164.35" x2="200.99" y2="164.35"/><line class="bca3f898-4d5b-4c4f-a0a1-a14ec53ee716" x1="204.58" y1="159.66" x2="200.99" y2="159.66"/><line class="bca3f898-4d5b-4c4f-a0a1-a14ec53ee716" x1="204.58" y1="154.98" x2="200.99" y2="154.98"/><rect class="b8bcd6d0-b2ce-470c-9c03-1fc1219cbc7e" x="190.11" y="156.22" width="6.61" height="6.61" rx="2"/><rect class="b2549f83-742c-4843-b22b-4a5a83e1d841" x="147.66" y="385.91" width="164.94" height="83.76" rx="3"/><rect class="b8bcd6d0-b2ce-470c-9c03-1fc1219cbc7e" x="157.72" y="396.38" width="71.12" height="62.82" rx="3"/><text class="e717a654-c94f-45e8-a648-ab2c495f8bd2" transform="translate(171.77 433.42)">Proxy</text><rect class="b8bcd6d0-b2ce-470c-9c03-1fc1219cbc7e" x="239.31" y="396.38" width="62.82" height="62.82" rx="3"/><polygon class="bf2e390e-cbe6-4dd0-9d16-7a646f957b72" points="286.15 436.69 286.15 418.89 270.72 409.99 255.3 418.89 255.3 436.69 270.72 445.59 286.15 436.69"/><rect class="a1704e86-6954-4b55-8c70-62bc51052c63" x="158.44" y="249.84" width="143.39" height="87.76" rx="3"/><rect class="b8bcd6d0-b2ce-470c-9c03-1fc1219cbc7e" x="168.68" y="300.37" width="122.91" height="30.73" rx="3"/><text class="e717a654-c94f-45e8-a648-ab2c495f8bd2" transform="translate(209.35 320.55)">istiod</text><rect id="b189b793-af62-4118-9a48-6c32dfa7fdfe" data-name="background" class="beec5610-8ba6-4532-abf9-9869ae804cba" x="213.59" y="249.84" width="33.08" height="33.08"/><polygon id="bc9a21dd-5cf3-440b-bd4c-d24daddde76f" data-name="hull" class="b8bcd6d0-b2ce-470c-9c03-1fc1219cbc7e" points="220.13 277.64 240.14 277.64 227.63 281.39 220.13 277.64"/><polygon id="a709e2c0-e240-4f41-adac-2963d5b12d53" data-name="mainsail" class="b8bcd6d0-b2ce-470c-9c03-1fc1219cbc7e" points="220.13 276.39 227.63 275.14 227.63 261.38 220.13 276.39"/><polygon id="e914b695-fee7-4d47-ad44-24cffb6c6015" data-name="headsail" class="b8bcd6d0-b2ce-470c-9c03-1fc1219cbc7e" points="228.88 275.14 240.14 276.39 228.88 251.38 228.88 275.14"/><rect class="e9513070-afad-4e5c-be58-35a5166067a2" x="113.64" y="107.23" width="233" height="373" rx="5"/><line class="b64ac4af-f961-43fb-a88f-a3563f086e91" x1="230.05" y1="386.17" x2="230.05" y2="344.34"/><polygon class="b3479880-9b66-454e-9b56-26bfacf7ad5d" points="235.03 345.8 230.04 337.17 225.06 345.8 235.03 345.8"/><line class="f1abf08c-90ff-48b0-a898-f929ab7e8700" x1="230.05" y1="250.17" x2="230.05" y2="208.34"/><polygon class="ff02630b-85c0-4e43-a84f-c76e188688fc" points="235.03 209.8 230.04 201.16 225.06 209.8 235.03 209.8"/><text class="a98c4774-c945-4828-833d-5d57d3b1bcb8" transform="translate(239.45 364.45)">xDS traffic</text><text class="a98c4774-c945-4828-833d-5d57d3b1bcb8" transform="translate(239.45 225.45)">Requests</text></svg>