<svg xmlns="http://www.w3.org/2000/svg" width="188.09" height="32.215" version="1.1" viewBox="0 0 188.086 32.215" xml:space="preserve"><g><path d="m19.379 1.0547l1.121 3.5254-0.008 0.0097c-0.101 0.0788-0.192 0.1687-0.269 0.2715l-0.01 0.0078-2.783-0.8808v4.1074l2.789-1.4629 0.006 0.0059c0.082 0.1083 0.178 0.2036 0.287 0.2851l-1.6 4.8302c-0.001 0.006-0.004 0.012-0.006 0.017l-0.002 0.006c-0.074 0.242-0.115 0.497-0.115 0.762 0 1.307 0.964 2.385 2.219 2.57 0.019 0.003 0.037 0.008 0.056 0.01 0.107 0.014 0.215 0.024 0.327 0.024 0.11 0 0.221-0.009 0.328-0.024 0.018-0.002 0.036-0.006 0.054-0.01 1.255-0.185 2.221-1.263 2.221-2.57 0-0.265-0.042-0.52-0.115-0.762l-0.002-0.006c-0.001-0.006-0.003-0.012-0.006-0.017l-1.6-4.8302c0.109-0.0815 0.205-0.1767 0.288-0.2851l0.007-0.0059 2.788 1.4629v-4.1074l-2.786 0.8808-0.007-0.0078c-0.078-0.1028-0.167-0.1927-0.27-0.2715l-0.008-0.0097 1.121-3.5254h-2.011-2.014zm49.01 4.0605c-1.834 0-3.488 0.3366-4.965 1.0078-1.477 0.6716-2.739 1.5882-3.783 2.75-1.046 1.162-1.85 2.527-2.416 4.098-0.567 1.57-0.85 3.255-0.85 5.052 0 1.81 0.254 3.497 0.762 5.061 0.508 1.565 1.249 2.93 2.224 4.098 0.975 1.167 2.174 2.084 3.598 2.75 1.424 0.665 3.054 0.998 4.887 0.998 0.782 0 1.52-0.081 2.215-0.244 0.694-0.164 1.334-0.39 1.918-0.676 0.583-0.286 1.108-0.631 1.576-1.033 0.466-0.403 0.858-0.85 1.174-1.34v2.943h4.447v-13.766h-11.365v3.87h6.427v0.246c0 0.537-0.09 1.121-0.271 1.752-0.181 0.63-0.498 1.216-0.947 1.759-0.45 0.543-1.05 0.996-1.803 1.358s-1.696 0.543-2.828 0.543c-1.18 0-2.195-0.23-3.047-0.692-0.853-0.461-1.553-1.071-2.102-1.83-0.549-0.758-0.958-1.634-1.226-2.627-0.269-0.992-0.403-2.027-0.403-3.101v-0.174c0-1.062 0.134-2.094 0.403-3.092 0.268-0.998 0.677-1.875 1.226-2.635 0.549-0.758 1.249-1.368 2.102-1.83 0.852-0.4609 1.867-0.693 3.047-0.693 0.747 0 1.424 0.0962 2.031 0.289 0.607 0.193 1.148 0.456 1.621 0.789s0.888 0.73 1.25 1.192c0.362 0.46 0.678 0.958 0.947 1.496l4.448-2.504c-0.421-0.876-0.968-1.6728-1.645-2.3909-0.677-0.7179-1.458-1.3301-2.34-1.8379-0.881-0.5078-1.855-0.8995-2.924-1.1739-1.068-0.2743-2.197-0.4121-3.388-0.4121zm25.97 0c-1.879 0-3.556 0.3366-5.033 1.0078-1.477 0.6716-2.732 1.5882-3.765 2.75-1.034 1.162-1.823 2.527-2.366 4.098-0.543 1.57-0.814 3.255-0.814 5.052 0 1.81 0.271 3.497 0.814 5.061 0.543 1.565 1.332 2.93 2.366 4.098 1.033 1.167 2.288 2.084 3.765 2.75 1.477 0.665 3.154 0.998 5.033 0.998 1.869 0 3.545-0.333 5.028-0.998 1.483-0.666 2.743-1.583 3.773-2.75 1.03-1.168 1.82-2.533 2.37-4.098 0.54-1.564 0.81-3.251 0.81-5.061 0-1.797-0.27-3.482-0.81-5.052-0.55-1.571-1.34-2.936-2.37-4.098-1.03-1.1618-2.29-2.0784-3.773-2.75-1.483-0.6712-3.159-1.0078-5.028-1.0078zm46.171 0.3164v16.322c0 1.401 0.25 2.667 0.76 3.799 0.5 1.133 1.21 2.097 2.12 2.89 0.91 0.794 1.99 1.407 3.24 1.838 1.25 0.432 2.61 0.649 4.09 0.649 1.49 0 2.85-0.217 4.1-0.649 1.25-0.431 2.32-1.044 3.23-1.838 0.9-0.793 1.61-1.757 2.12-2.89 0.5-1.132 0.76-2.398 0.76-3.799v-16.322l-4.99-0.0004v15.568c0 0.911-0.14 1.702-0.41 2.373-0.27 0.672-0.63 1.226-1.09 1.664s-1.01 0.765-1.65 0.981-1.32 0.324-2.06 0.324c-0.73 0-1.42-0.108-2.05-0.324-0.64-0.216-1.19-0.543-1.65-0.981s-0.83-0.992-1.09-1.664c-0.27-0.671-0.41-1.462-0.41-2.373v-15.568l-5.02-0.0004zm-32.25 0.0332l7.1 25.115h6.9l7.09-25.115-5.62-0.0002-4.75 18.881h-0.17l-4.86-18.881-5.69-0.0002zm57.66 0v25.115h5.08v-7.637l3.24-3.625 6.63 11.262h5.9l-9.28-15.133 8.72-9.9822h-6.25l-8.96 10.877v-10.877l-5.08-0.0002zm-156.59 0.8731c-0.8543 0.0132-1.6687 0.5311-2.0156 1.373-0.4628 1.1172 0.0727 2.4051 1.1855 2.8611 1.1341 0.468 2.4214-0.068 2.8824-1.1892 0.465-1.1187-0.066-2.4181-1.201-2.8828-0.2776-0.1143-0.5665-0.1665-0.8513-0.1621zm24.101 0c-0.285-0.0044-0.575 0.0478-0.853 0.1621-1.134 0.4647-1.665 1.7641-1.201 2.8828 0.462 1.1212 1.749 1.6572 2.884 1.1892 1.113-0.456 1.648-1.7439 1.186-2.8611-0.347-0.8419-1.161-1.3598-2.016-1.373zm-18.529 1.7598c-0.854 0.0132-1.669 0.5307-2.016 1.373-0.462 1.1173 0.073 2.4033 1.186 2.8593 1.134 0.468 2.421-0.066 2.883-1.187 0.464-1.118-0.067-2.4196-1.201-2.8852-0.279-0.1142-0.567-0.1646-0.852-0.1601zm12.957 0c-0.285-0.0045-0.574 0.0459-0.852 0.1601-1.133 0.4656-1.667 1.7672-1.203 2.8852 0.463 1.121 1.75 1.655 2.885 1.187 1.112-0.456 1.648-1.742 1.186-2.8593-0.347-0.8423-1.161-1.3598-2.016-1.373zm-23.523 1.166c-0.8542 0.0135-1.6683 0.531-2.0157 1.3733-0.4621 1.116 0.0727 2.405 1.1856 2.861 1.1347 0.468 2.4229-0.068 2.8847-1.189 0.4648-1.119-0.0684-2.4176-1.2031-2.8832-0.2779-0.1141-0.5668-0.1666-0.8515-0.1621zm34.087 0c-0.284-0.0045-0.573 0.048-0.851 0.1621-1.133 0.4656-1.666 1.7642-1.201 2.8832 0.462 1.121 1.748 1.657 2.883 1.189 1.112-0.456 1.649-1.745 1.187-2.861-0.347-0.8423-1.163-1.3598-2.018-1.3733zm55.92 0.4394c1.098 0 2.064 0.209 2.899 0.6229 0.834 0.415 1.539 0.989 2.111 1.725 0.572 0.735 1.001 1.607 1.291 2.617 0.3 1.01 0.44 2.106 0.44 3.285v0.139c0 1.191-0.14 2.289-0.44 3.293-0.29 1.004-0.719 1.874-1.291 2.609s-1.277 1.312-2.111 1.727c-0.835 0.414-1.801 0.621-2.899 0.621-1.097 0-2.065-0.207-2.906-0.621-0.841-0.415-1.543-0.992-2.109-1.727-0.567-0.735-0.997-1.605-1.289-2.609s-0.438-2.102-0.438-3.293v-0.139c0-1.179 0.146-2.275 0.438-3.285s0.722-1.882 1.289-2.617c0.566-0.736 1.268-1.31 2.109-1.725 0.841-0.4139 1.809-0.6229 2.906-0.6229zm-91.468 5.1109c-0.8545 0.014-1.6683 0.531-2.0156 1.374-0.4625 1.117 0.07305 2.405 1.1855 2.861 1.135 0.468 2.4223-0.066 2.8848-1.188 0.4644-1.118-0.0668-2.419-1.2012-2.884-0.278-0.115-0.5686-0.167-0.8535-0.163zm37.011 0c-0.284-0.004-0.573 0.048-0.851 0.163-1.135 0.465-1.668 1.766-1.203 2.884 0.461 1.122 1.75 1.656 2.884 1.188 1.113-0.456 1.647-1.744 1.184-2.861-0.346-0.843-1.159-1.36-2.014-1.374zm-29.045 0.586c-1.8171 2.416-1.5591 4.411 0.692 6.657-1.466-0.811-3.7434 0.042-2.4006 2.781 0.7019-1.704 2.2056-1.32 2.5196 0.144 0.212 1.034-0.417 2.252-1.7832 2.502-1.1188 0.207-2.8454-0.56-4.2286-3.539 0.7797 0.019 1.4594 0.413 2.3438 1.022l-1.4531-4.838c-0.3663 1.359-0.8331 2.247-1.3281 2.73-0.3338-0.979-0.2855-1.686 0.0117-3.209l-2.9981 1.067c1.5919 2.173 3.1338 5.225 4.4004 10.551 4.4622-0.638 9.4692-0.997 14.76-0.997 5.291 0 10.3 0.359 14.763 0.999 1.267-5.328 2.81-8.38 4.403-10.553l-2.998-1.067c0.298 1.523 0.345 2.23 0.011 3.209-0.494-0.483-0.964-1.371-1.33-2.73l-1.451 4.838c0.883-0.609 1.566-1.003 2.346-1.022-1.383 2.979-3.111 3.746-4.231 3.539-1.366-0.25-1.995-1.468-1.783-2.502 0.315-1.464 1.818-1.848 2.52-0.144 1.342-2.739-0.935-3.592-2.401-2.781 2.252-2.246 2.509-4.241 0.692-6.657-2.533 1.936-2.562 3.852-1.422 6.549-1.479-1.692-3.781-0.785-2.95 1.949 1.066-1.65 2.48-0.611 2.258 0.957-0.187 1.367-1.991 2.469-4.238 2.274-3.219-0.292-3.412-2.512-3.492-4.352 0.791-0.146 2.216 0.587 3.431 2.293l0.448-5.131c-1.322 1.379-2.523 1.64-3.858 1.682 0.444-1.386 2.487-3.656 2.487-3.656h-2.967-0.002-3.436s2.042 2.27 2.487 3.656c-1.335-0.042-2.536-0.303-3.858-1.682l0.448 5.131c1.216-1.706 2.64-2.439 3.431-2.293-0.079 1.84-0.272 4.06-3.492 4.352-2.247 0.195-4.049-0.907-4.236-2.274-0.222-1.568 1.189-2.607 2.256-0.957 0.831-2.734-1.472-3.641-2.95-1.949 1.14-2.697 1.111-4.613-1.422-6.549zm122.43 9.19c-0.43 0-0.84 0.085-1.23 0.254s-0.73 0.398-1.03 0.683c-0.29 0.287-0.52 0.619-0.69 0.998-0.17 0.38-0.25 0.786-0.25 1.217 0 0.444 0.08 0.859 0.25 1.244 0.17 0.386 0.4 0.724 0.69 1.016 0.3 0.292 0.64 0.52 1.03 0.684 0.39 0.163 0.8 0.244 1.23 0.244s0.84-0.081 1.23-0.244c0.38-0.164 0.72-0.392 1.01-0.684s0.53-0.63 0.7-1.016c0.17-0.385 0.25-0.8 0.25-1.244 0-0.431-0.08-0.837-0.25-1.217-0.17-0.379-0.41-0.711-0.7-0.998-0.29-0.285-0.63-0.514-1.01-0.683-0.39-0.169-0.8-0.254-1.23-0.254z" transform="matrix(1.25 0 0 -1.25 -392.28 383.87) matrix(.8 0 0 -.8 313.82 307.09)"/></g></svg>