<svg xmlns="http://www.w3.org/2000/svg" xmlns:svg="http://www.w3.org/2000/svg" id="svg3072" width="82.565" height="24.6" version="1.1" viewBox="0 0 21.845 6.509"><metadata id="metadata3069"/><g id="layer1" transform="translate(-1.6828593,-145.44673)"><path style="fill:#0077c5;fill-rule:evenodd;stroke-width:.26458332" id="path3040" d="m 23.080211,151.69814 a 0.2667,0.2667 0 0 1 -0.26564,-0.26564 0.26590625,0.26590625 0 0 1 0.53128,0 c 0,0.14552 -0.11879,0.26564 -0.26564,0.26564 z m 0,-0.5797 c -0.17409,0 -0.31538,0.1397 -0.31538,0.31406 0,0.17463 0.14129,0.31115 0.31538,0.31115 0.17463,0 0.31565,-0.13679 0.31565,-0.31115 0,-0.17436 -0.14129,-0.31406 -0.31565,-0.31406 z m -0.0595,0.29051 v -0.1008 h 0.0582 c 0.0333,0 0.0706,0.01 0.0706,0.0484 0,0.0429 -0.0415,0.0524 -0.0775,0.0524 z m 0.19235,-0.0513 c 0,-0.0757 -0.0648,-0.10371 -0.13123,-0.10371 h -0.12436 v 0.35401 h 0.0632 v -0.1479 h 0.0458 l 0.0831,0.14816 h 0.0775 l -0.0958,-0.15504 c 0.0503,-0.0108 0.0817,-0.0442 0.0817,-0.0952 z m -1.98622,-4.48865 a 0.64505417,0.64505417 0 1 0 2.6e-4,-1.28985 0.64505417,0.64505417 0 0 0 0,1.28985 z m -1.73038,0.55694 v 0.94615 h 1.19645 v 3.32635 h 1.06759 v -3.32635 h 1.19671 v -0.94615 z m -9.31413,-0.55694 a 0.64492502,0.64492502 0 1 0 0,-1.28985 0.64505417,0.64505417 0 0 0 0,1.28985 z m -1.7306399,1.50283 h 1.1967102 v 3.32661 h 1.0673297 v -3.32635 h 1.19698 v -0.94615 H 8.4519613 v 0.94615 z m 9.2289299,3.32661 h 1.06786 v -4.26985 h -1.06759 v 4.26985 z m -2.16005,-1.92141 c 0,0.56939 -0.32068,1.15623 -0.99642,1.15623 -0.68501,0 -0.80063,-0.63129 -0.80063,-1.1385 v -2.36617 h -1.0676 v 2.66859 c 0,0.87206 0.46249,1.72588 1.5748,1.72588 0.6313,0 1.1385,-0.38259 1.3253,-0.80963 h 0.0177 v 0.68501 h 1.01415 v -4.26985 h -1.06733 z m -9.1871298,-2.47306 c -0.6315601,0 -1.1385,0.38259 -1.3253,0.80963 h -0.018 v -0.68501 H 3.9762611 v 4.26985 h 1.06733 v -2.34845 c 0,-0.56938 0.3204102,-1.15649 0.9964201,-1.15649 0.68474,0 0.8006299,0.63156 0.8006299,1.13877 v 2.36617 h 1.0673202 v -2.66912 c 0,-0.87154 -0.4622202,-1.72561 -1.5745301,-1.72561 z m -4.5182901,4.39447 h 1.06733 v -4.26985 h -1.06733 z"/></g></svg>