<svg xmlns="http://www.w3.org/2000/svg" xmlns:xlink="http://www.w3.org/1999/xlink" fill="none" stroke="none" stroke-linecap="square" stroke-miterlimit="10" version="1.1" viewBox="0 0 748.241 188.913"><clipPath id="p.0"><path d="m0 0l748.24146 0l0 188.91339l-748.24146 0l0 -188.91339z" clip-rule="nonzero"/></clipPath><g clip-path="url(#p.0)"><path fill="#000" fill-opacity="0" fill-rule="evenodd" d="m0 0l748.24146 0l0 188.91339l-748.24146 0z"/><path fill="#bfbfbf" fill-rule="evenodd" d="m305.65564 3.703412l0 0c14.278534 0 25.853546 11.575022 25.853546 25.853535l0 108.19844l0 0c0 6.856781 -2.7238464 13.432739 -7.5723267 18.28122c-4.84848 4.848465 -11.424438 7.5723114 -18.28122 7.5723114l-103.411026 0c-14.278519 0 -25.85353 -11.575012 -25.85353 -25.85353l0 -108.19844c0 -14.278514 11.575012 -25.853535 25.85353 -25.853535z"/><path fill="#fff" fill-rule="evenodd" d="m301.20792 7.0361147l0 0c11.277863 0 20.42038 9.142505 20.42038 20.420357l0 104.765594c0 5.4158173 -2.1514282 10.609802 -5.9809875 14.439362c-3.8295593 3.8295746 -9.02356 5.9809875 -14.439392 5.9809875l-81.67897 0c-11.277847 0 -20.42035 -9.142502 -20.42035 -20.42035l0 -104.765594c0 -11.277851 9.142502 -20.420357 20.42035 -20.420357z"/><path fill-rule="evenodd" stroke="#7f7f7f" stroke-linecap="butt" stroke-linejoin="round" stroke-width="1" d="m301.20792 7.0361147l0 0c11.277863 0 20.42038 9.142505 20.42038 20.420357l0 104.765594c0 5.4158173 -2.1514282 10.609802 -5.9809875 14.439362c-3.8295593 3.8295746 -9.02356 5.9809875 -14.439392 5.9809875l-81.67897 0c-11.277847 0 -20.42035 -9.142502 -20.42035 -20.42035l0 -104.765594c0 -11.277851 9.142502 -20.420357 20.42035 -20.420357z"/><path fill="#fff" fill-rule="evenodd" d="m285.1014 18.255745l0 0c11.277832 0 20.42035 9.142506 20.42035 20.420357l0 97.58449c0 5.4158173 -2.1514282 10.609802 -5.9809875 14.439362c-3.8295593 3.8295746 -9.02356 5.9809875 -14.439362 5.9809875l-81.67897 0c-11.277863 0 -20.420364 -9.142502 -20.420364 -20.42035l0 -97.58449c0 -11.277851 9.142502 -20.420357 20.420364 -20.420357z"/><path fill-rule="evenodd" stroke="#7f7f7f" stroke-linecap="butt" stroke-linejoin="round" stroke-width="1" d="m285.1014 18.255745l0 0c11.277832 0 20.42035 9.142506 20.42035 20.420357l0 97.58449c0 5.4158173 -2.1514282 10.609802 -5.9809875 14.439362c-3.8295593 3.8295746 -9.02356 5.9809875 -14.439362 5.9809875l-81.67897 0c-11.277863 0 -20.420364 -9.142502 -20.420364 -20.42035l0 -97.58449c0 -11.277851 9.142502 -20.420357 20.420364 -20.420357z"/><path fill="#d9ead3" fill-rule="evenodd" d="m194.99217 115.821l88.157486 0l0 27.527557l-88.157486 0z"/><path fill="#000" fill-rule="nonzero" d="m229.05254 132.5254q0 -0.421875 -0.34375 -0.625q-0.328125 -0.21875 -1.125 -0.390625q-0.78125 -0.171875 -1.3125 -0.421875q-1.15625 -0.5625 -1.15625 -1.609375q0 -0.890625 0.75 -1.4843826q0.75 -0.609375 1.90625 -0.609375q1.234375 0 1.984375 0.609375q0.765625 0.6093826 0.765625 1.5781326l-1.546875 0q0 -0.4375 -0.328125 -0.734375q-0.328125 -0.296875 -0.875 -0.296875q-0.515625 0 -0.84375 0.234375q-0.3125 0.234375 -0.3125 0.625q0 0.359375 0.296875 0.5625q0.3125 0.1875 1.21875 0.390625q0.90625 0.203125 1.421875 0.484375q0.515625 0.265625 0.765625 0.65625q0.25 0.390625 0.25 0.9375q0 0.9375 -0.765625 1.515625q-0.765625 0.5625 -2.015625 0.5625q-0.84375 0 -1.5 -0.296875q-0.65625 -0.3125 -1.03125 -0.84375q-0.375 -0.53125 -0.375 -1.15625l1.5 0q0.03125 0.546875 0.40625 0.84375q0.390625 0.296875 1.015625 0.296875q0.609375 0 0.921875 -0.21875q0.328125 -0.234375 0.328125 -0.609375zm5.456955 -0.09375l1.453125 -4.9218826l1.59375 0l-2.390625 6.8750076l-1.328125 0l-2.40625 -6.8750076l1.59375 0l1.484375 4.9218826zm6.9831085 0.84375q0.578125 0 0.953125 -0.328125q0.390625 -0.34375 0.421875 -0.828125l1.453125 0q-0.03125 0.640625 -0.40625 1.203125q-0.375 0.546875 -1.015625 0.875q-0.640625 0.3125 -1.390625 0.3125q-1.4375 0 -2.28125 -0.921875q-0.84375 -0.9375 -0.84375 -2.59375l0 -0.15625q0 -1.5625 0.828125 -2.5q0.84375 -0.9531326 2.296875 -0.9531326q1.21875 0 1.984375 0.7187576q0.78125 0.71875 0.828125 1.875l-1.453125 0q-0.03125 -0.59375 -0.40625 -0.96875q-0.375 -0.375 -0.96875 -0.375q-0.75 0 -1.15625 0.546875q-0.40625 0.53125 -0.40625 1.640625l0 0.25q0 1.109375 0.390625 1.65625q0.40625 0.546875 1.171875 0.546875zm9.47644 -1.046875l-3.578125 0l-0.75 2.15625l-1.671875 0l3.5 -9.250008l1.4375 0l3.5 9.250008l-1.671875 0l-0.765625 -2.15625zm-3.125 -1.296875l2.671875 0l-1.328125 -3.8281326l-1.34375 3.8281326z"/><path fill="#cfe2f3" fill-rule="evenodd" d="m195.78084 48.70341l86.58269 0l0 28.40945l-86.58269 0z"/><path fill="#000" fill-rule="nonzero" d="m227.60712 63.583134l-3.796875 0l0 2.8437538l4.4375 0l0 1.28125l-6.046875 0l0 -9.250004l6.0 0l0 1.296875l-4.390625 0l0 2.5625l3.796875 0l0 1.265625zm3.4111176 -2.75l0.046875 0.796875q0.765625 -0.921875 2.0 -0.921875q2.140625 0 2.1875 2.46875l0 4.531254l-1.546875 0l0 -4.453129q0 -0.65625 -0.28125 -0.96875q-0.28125 -0.3125 -0.921875 -0.3125q-0.9375 0 -1.390625 0.84375l0 4.890629l-1.546875 0l0 -6.875004l1.453125 0zm8.412476 4.921879l1.453125 -4.921879l1.59375 0l-2.390625 6.875004l-1.328125 0l-2.40625 -6.875004l1.59375 0l1.484375 4.921879zm3.8737335 -1.546875q0 -1.0000038 0.390625 -1.8125038q0.40625 -0.8125 1.125 -1.25q0.734375 -0.4375 1.671875 -0.4375q1.390625 0 2.25 0.90625q0.875 0.890625 0.9375 2.375l0.015625 0.3593788q0 1.015625 -0.390625 1.8125q-0.390625 0.796875 -1.125 1.234375q-0.71875 0.4375 -1.671875 0.4375q-1.453125 0 -2.328125 -0.96875q-0.875 -0.96875 -0.875 -2.578125l0 -0.078125zm1.546875 0.140625q0 1.0625 0.4375 1.65625q0.4375 0.59375 1.21875 0.59375q0.78125 0 1.203125 -0.609375q0.4375 -0.609375 0.4375 -1.78125q0 -1.0312538 -0.453125 -1.6406288q-0.4375 -0.609375 -1.203125 -0.609375q-0.75 0 -1.203125 0.59375q-0.4375 0.59375 -0.4375 1.7968788zm8.728806 1.15625l1.40625 -4.671879l1.6406403 0l-2.7343903 7.921879q-0.625 1.734375 -2.125 1.734375q-0.34375 0 -0.75 -0.125l0 -1.1875l0.296875 0.015625q0.578125 0 0.875 -0.21875q0.296875 -0.203125 0.46875 -0.703125l0.21875 -0.59375l-2.40625 -6.843754l1.65625 0l1.453125 4.671879z"/><path fill="#000" fill-opacity="0" fill-rule="evenodd" d="m239.07217 77.11286l0 38.708664"/><path fill-rule="evenodd" stroke="#4f81bd" stroke-linecap="butt" stroke-linejoin="round" stroke-width="1" d="m239.07217 80.53995l0 31.854492"/><path fill="#4f81bd" fill-rule="evenodd" stroke="#4f81bd" stroke-linecap="butt" stroke-width="1" d="m239.07217 80.53995l1.124588 1.1245804l-1.124588 -3.0897675l-1.1245728 3.0897675z"/><path fill="#4f81bd" fill-rule="evenodd" stroke="#4f81bd" stroke-linecap="butt" stroke-width="1" d="m239.07217 112.39443l-1.1245728 -1.1245804l1.1245728 3.0897675l1.124588 -3.0897675z"/><path fill="#000" fill-opacity="0" fill-rule="evenodd" d="m184.09756 17.233599l48.0 0l0 23.52756l-48.0 0z"/><path fill="#000" fill-rule="nonzero" d="m193.64444 29.596098l0 3.437498l-1.609375 0l0 -9.249998l3.53125 0q1.5625 0 2.46875 0.8125q0.90625 0.8125 0.90625 2.140625q0 1.359375 -0.890625 2.109375q-0.890625 0.75 -2.5 0.75l-1.90625 0zm0 -1.28125l1.921875 0q0.859375 0 1.3125 -0.40625q0.453125 -0.40625 0.453125 -1.171875q0 -0.75 -0.46875 -1.1875q-0.453125 -0.453125 -1.25 -0.46875l-1.96875 0l0 3.234375zm6.471939 1.21875q0 -1.0 0.390625 -1.8125q0.40625 -0.8125 1.125 -1.25q0.734375 -0.4375 1.671875 -0.4375q1.390625 0 2.25 0.90625q0.875 0.890625 0.9375 2.375l0.015625 0.359375q0 1.015625 -0.390625 1.8125q-0.390625 0.7968731 -1.125 1.2343731q-0.71875 0.4375 -1.671875 0.4375q-1.453125 0 -2.328125 -0.96875q-0.875 -0.9687481 -0.875 -2.578123l0 -0.078125zm1.546875 0.140625q0 1.0625 0.4375 1.65625q0.4375 0.59375 1.21875 0.59375q0.78125 0 1.203125 -0.609375q0.4375 -0.609375 0.4375 -1.78125q0 -1.03125 -0.453125 -1.640625q-0.4375 -0.609375 -1.203125 -0.609375q-0.75 0 -1.203125 0.59375q-0.4375 0.59375 -0.4375 1.796875zm6.0413055 -0.125q0 -1.59375 0.734375 -2.546875q0.734375 -0.96875 1.984375 -0.96875q1.078125 0 1.765625 0.765625l0 -3.515625l1.53125 0l0 9.749998l-1.390625 0l-0.078125 -0.71875q-0.6875 0.84375 -1.84375 0.84375q-1.203125 0 -1.953125 -0.96875q-0.75 -0.9687481 -0.75 -2.640623zm1.546875 0.125q0 1.0625 0.390625 1.65625q0.40625 0.578125 1.15625 0.578125q0.9375 0 1.390625 -0.84375l0 -2.9375q-0.4375 -0.828125 -1.375 -0.828125q-0.75 0 -1.15625 0.59375q-0.40625 0.59375 -0.40625 1.78125z"/><path fill="#fff" fill-rule="evenodd" d="m107.02087 42.6168l0 0c4.15744 0 7.52771 3.3702698 7.52771 7.52771l0 30.109932l0 0c0 1.9964752 -0.7930908 3.9111786 -2.204811 5.322899c-1.4117203 1.4117203 -3.3264236 2.204811 -5.322899 2.204811l-65.44852 0c-4.15744 0 -7.52771 -3.3702698 -7.52771 -7.52771l0 -30.109932c0 -4.15744 3.3702698 -7.52771 7.52771 -7.52771z"/><path fill-rule="evenodd" stroke="#7f7f7f" stroke-linecap="butt" stroke-linejoin="round" stroke-width="1" d="m107.02087 42.6168l0 0c4.15744 0 7.52771 3.3702698 7.52771 7.52771l0 30.109932l0 0c0 1.9964752 -0.7930908 3.9111786 -2.204811 5.322899c-1.4117203 1.4117203 -3.3264236 2.204811 -5.322899 2.204811l-65.44852 0c-4.15744 0 -7.52771 -3.3702698 -7.52771 -7.52771l0 -30.109932c0 -4.15744 3.3702698 -7.52771 7.52771 -7.52771z"/><path fill="#cfe2f3" fill-rule="evenodd" d="m43.02366 53.14698l59.181107 0l0 23.055122l-59.181107 0z"/><path fill="#000" fill-rule="nonzero" d="m61.149155 65.34954l-3.796875 0l0 2.84375l4.4375 0l0 1.28125l-6.046875 0l0 -9.25l6.0 0l0 1.296875l-4.390625 0l0 2.5625l3.796875 0l0 1.265625zm3.4111176 -2.75l0.046875 0.796875q0.765625 -0.921875 2.0 -0.921875q2.140625 0 2.1875 2.46875l0 4.53125l-1.546875 0l0 -4.453125q0 -0.65625 -0.28125 -0.96875q-0.28125 -0.3125 -0.921875 -0.3125q-0.9375 0 -1.390625 0.84375l0 4.890625l-1.546875 0l0 -6.875l1.453125 0zm8.412476 4.921875l1.453125 -4.921875l1.59375 0l-2.390625 6.875l-1.328125 0l-2.40625 -6.875l1.59375 0l1.484375 4.921875zm3.8737335 -1.546875q0 -1.0 0.390625 -1.8125q0.40625 -0.8125 1.125 -1.25q0.734375 -0.4375 1.671875 -0.4375q1.390625 0 2.25 0.90625q0.875 0.890625 0.9375 2.375l0.015625 0.359375q0 1.015625 -0.390625 1.8125q-0.390625 0.796875 -1.125 1.234375q-0.71875 0.4375 -1.671875 0.4375q-1.453125 0 -2.328125 -0.96875q-0.875 -0.96875 -0.875 -2.578125l0 -0.078125zm1.546875 0.140625q0 1.0625 0.4375 1.65625q0.4375 0.59375 1.21875 0.59375q0.78125 0 1.203125 -0.609375q0.4375 -0.609375 0.4375 -1.78125q0 -1.03125 -0.453125 -1.640625q-0.4375 -0.609375 -1.203125 -0.609375q-0.75 0 -1.203125 0.59375q-0.4375 0.59375 -0.4375 1.796875zm8.728806 1.15625l1.40625 -4.671875l1.640625 0l-2.734375 7.921875q-0.625 1.734375 -2.125 1.734375q-0.34375 0 -0.75 -0.125l0 -1.1875l0.296875 0.015625q0.578125 0 0.875 -0.21875q0.296875 -0.203125 0.46875 -0.703125l0.21875 -0.59375l-2.40625 -6.84375l1.65625 0l1.453125 4.671875z"/><path fill="#000" fill-opacity="0" fill-rule="evenodd" d="m23.944881 89.50131l129.07086 0l0 53.07086l-129.07086 0z"/><path fill="#000" fill-rule="nonzero" d="m33.585506 105.301315l-1.609375 0l0 -9.25l1.609375 0l0 9.25zm3.339676 -6.875l0.046875 0.796875q0.765625 -0.921875 2.0 -0.921875q2.140625 0 2.1875 2.46875l0 4.53125l-1.546875 0l0 -4.453125q0 -0.65625 -0.28125 -0.96875q-0.28125 -0.3125 -0.921875 -0.3125q-0.9375 0 -1.390625 0.84375l0 4.890625l-1.546875 0l0 -6.875l1.453125 0zm5.7093506 3.390625q0 -1.59375 0.75 -2.546875q0.765625 -0.96875 2.0 -0.96875q1.171875 0 1.84375 0.828125l0.078125 -0.703125l1.390625 0l0 6.671875q0 1.34375 -0.84375 2.125q-0.84375 0.78125 -2.265625 0.78125q-0.765625 0 -1.484375 -0.3125q-0.71875 -0.3125 -1.09375 -0.828125l0.734375 -0.921875q0.71875 0.84375 1.75 0.84375q0.765625 0 1.203125 -0.421875q0.453125 -0.40625 0.453125 -1.21875l0 -0.453125q-0.65625 0.734375 -1.78125 0.734375q-1.203125 0 -1.96875 -0.953125q-0.765625 -0.96875 -0.765625 -2.65625zm1.546875 0.125q0 1.046875 0.421875 1.640625q0.421875 0.59375 1.171875 0.59375q0.921875 0 1.375 -0.8125l0 -3.015625q-0.4375 -0.78125 -1.375 -0.78125q-0.75 0 -1.171875 0.609375q-0.421875 0.59375 -0.421875 1.765625zm9.883774 -2.09375q-0.3125 -0.0625 -0.625 -0.0625q-1.0625 0 -1.4375 0.8125l0 4.703125l-1.546875 0l0 -6.875l1.484375 0l0.03125 0.78125q0.5625 -0.90625 1.546875 -0.90625q0.328125 0 0.546875 0.09375l0 1.453125zm4.107544 5.578125q-1.46875 0 -2.375 -0.921875q-0.90625 -0.921875 -0.90625 -2.453125l0 -0.203125q0 -1.015625 0.390625 -1.828125q0.40625 -0.8125 1.109375 -1.265625q0.71875 -0.453125 1.609375 -0.453125q1.40625 0 2.15625 0.90625q0.765625 0.890625 0.765625 2.53125l0 0.609375l-4.484375 0q0.078125 0.859375 0.578125 1.359375q0.5 0.484375 1.25 0.484375q1.0625 0 1.71875 -0.859375l0.84375 0.796875q-0.421875 0.625 -1.109375 0.96875q-0.6875 0.328125 -1.546875 0.328125zm-0.1875 -5.875q-0.625 0 -1.015625 0.4375q-0.390625 0.4375 -0.5 1.234375l2.9375 0l0 -0.109375q-0.046875 -0.78125 -0.421875 -1.171875q-0.359375 -0.390625 -1.0 -0.390625zm8.167789 3.890625q0 -0.421875 -0.34375 -0.625q-0.328125 -0.21875 -1.125 -0.390625q-0.7812538 -0.171875 -1.3125038 -0.421875q-1.15625 -0.5625 -1.15625 -1.609375q0 -0.890625 0.75 -1.484375q0.75 -0.609375 1.9062538 -0.609375q1.234375 0 1.984375 0.609375q0.765625 0.609375 0.765625 1.578125l-1.546875 0q0 -0.4375 -0.328125 -0.734375q-0.328125 -0.296875 -0.875 -0.296875q-0.515625 0 -0.84375 0.234375q-0.3125038 0.234375 -0.3125038 0.625q0 0.359375 0.2968788 0.5625q0.3125 0.1875 1.21875 0.390625q0.90625 0.203125 1.421875 0.484375q0.515625 0.265625 0.765625 0.65625q0.25 0.390625 0.25 0.9375q0 0.9375 -0.765625 1.515625q-0.765625 0.5625 -2.015625 0.5625q-0.84375 0 -1.5000038 -0.296875q-0.65625 -0.3125 -1.03125 -0.84375q-0.375 -0.53125 -0.375 -1.15625l1.5 0q0.03125 0.546875 0.40625 0.84375q0.3906288 0.296875 1.0156288 0.296875q0.609375 0 0.921875 -0.21875q0.328125 -0.234375 0.328125 -0.609375zm6.87883 0q0 -0.421875 -0.34375 -0.625q-0.328125 -0.21875 -1.125 -0.390625q-0.78125 -0.171875 -1.3125 -0.421875q-1.15625 -0.5625 -1.15625 -1.609375q0 -0.890625 0.75 -1.484375q0.75 -0.609375 1.90625 -0.609375q1.234375 0 1.984375 0.609375q0.765625 0.609375 0.765625 1.578125l-1.546875 0q0 -0.4375 -0.328125 -0.734375q-0.328125 -0.296875 -0.875 -0.296875q-0.515625 0 -0.84375 0.234375q-0.3125 0.234375 -0.3125 0.625q0 0.359375 0.296875 0.5625q0.3125 0.1875 1.21875 0.390625q0.90625 0.203125 1.421875 0.484375q0.515625 0.265625 0.765625 0.65625q0.25 0.390625 0.25 0.9375q0 0.9375 -0.765625 1.515625q-0.765625 0.5625 -2.015625 0.5625q-0.84375 0 -1.5 -0.296875q-0.65625 -0.3125 -1.03125 -0.84375q-0.375 -0.53125 -0.375 -1.15625l1.5 0q0.03125 0.546875 0.40625 0.84375q0.390625 0.296875 1.015625 0.296875q0.609375 0 0.921875 -0.21875q0.328125 -0.234375 0.328125 -0.609375zm11.90097 -2.265625l-3.796875 0l0 2.84375l4.4375 0l0 1.28125l-6.046875 0l0 -9.25l6.0 0l0 1.296875l-4.390625 0l0 2.5625l3.796875 0l0 1.265625zm3.4111176 -2.75l0.046875 0.796875q0.765625 -0.921875 2.0 -0.921875q2.140625 0 2.1875 2.46875l0 4.53125l-1.546875 0l0 -4.453125q0 -0.65625 -0.28125 -0.96875q-0.28125 -0.3125 -0.921875 -0.3125q-0.9375 0 -1.390625 0.84375l0 4.890625l-1.546875 0l0 -6.875l1.453125 0zm8.412476 4.921875l1.453125 -4.921875l1.59375 0l-2.390625 6.875l-1.328125 0l-2.40625 -6.875l1.59375 0l1.484375 4.921875zm3.8737335 -1.546875q0 -1.0 0.390625 -1.8125q0.40625 -0.8125 1.125 -1.25q0.734375 -0.4375 1.671875 -0.4375q1.390625 0 2.25 0.90625q0.875 0.890625 0.9375 2.375l0.015625 0.359375q0 1.015625 -0.390625 1.8125q-0.390625 0.796875 -1.125 1.234375q-0.71875 0.4375 -1.671875 0.4375q-1.453125 0 -2.328125 -0.96875q-0.875 -0.96875 -0.875 -2.578125l0 -0.078125zm1.546875 0.140625q0 1.0625 0.4375 1.65625q0.4375 0.59375 1.21875 0.59375q0.78125 0 1.203125 -0.609375q0.4375 -0.609375 0.4375 -1.78125q0 -1.03125 -0.453125 -1.640625q-0.4375 -0.609375 -1.203125 -0.609375q-0.75 0 -1.203125 0.59375q-0.4375 0.59375 -0.4375 1.796875zm8.728806 1.15625l1.40625 -4.671875l1.640625 0l-2.734375 7.921875q-0.625 1.734375 -2.125 1.734375q-0.34375 0 -0.75 -0.125l0 -1.1875l0.296875 0.015625q0.578125 0 0.875 -0.21875q0.296875 -0.203125 0.46875 -0.703125l0.21875 -0.59375l-2.40625 -6.84375l1.65625 0l1.453125 4.671875z"/><path fill="#000" fill-rule="nonzero" d="m31.757381 117.53569q0 -1.453125 0.390625 -2.765625q0.390625 -1.328125 1.15625 -2.359375q0.765625 -1.046875 1.609375 -1.46875l0.3125 0.90625q-0.890625 0.6875 -1.453125 2.078125q-0.5625 1.390625 -0.609375 3.1875l0 0.546875q0 1.921875 0.53125 3.4375q0.546875 1.5 1.53125 2.28125l-0.3125 0.859375q-0.84375 -0.421875 -1.609375 -1.46875q-0.765625 -1.03125 -1.15625 -2.34375q-0.390625 -1.3125 -0.390625 -2.890625zm6.2716217 3.765625l-1.546875 0l0 -6.875l1.546875 0l0 6.875zm-1.640625 -8.65625q0 -0.34375 0.21875 -0.578125q0.234375 -0.25 0.640625 -0.25q0.421875 0 0.65625 0.25q0.234375 0.234375 0.234375 0.578125q0 0.359375 -0.234375 0.59375q-0.234375 0.21875 -0.65625 0.21875q-0.40625 0 -0.640625 -0.21875q-0.21875 -0.234375 -0.21875 -0.59375zm4.8255005 1.78125l0.046875 0.796875q0.765625 -0.921875 2.0 -0.921875q2.140625 0 2.1875 2.46875l0 4.53125l-1.546875 0l0 -4.453125q0 -0.65625 -0.28125 -0.96875q-0.28125 -0.3125 -0.921875 -0.3125q-0.9375 0 -1.390625 0.84375l0 4.890625l-1.546875 0l0 -6.875l1.453125 0zm5.7093506 3.390625q0 -1.59375 0.75 -2.546875q0.765625 -0.96875 2.0 -0.96875q1.171875 0 1.84375 0.828125l0.078125 -0.703125l1.390625 0l0 6.671875q0 1.34375 -0.84375 2.125q-0.84375 0.78125 -2.265625 0.78125q-0.765625 0 -1.484375 -0.3125q-0.71875 -0.3125 -1.09375 -0.828125l0.734375 -0.921875q0.71875 0.84375 1.75 0.84375q0.765625 0 1.203125 -0.421875q0.453125 -0.40625 0.453125 -1.21875l0 -0.453125q-0.65625 0.734375 -1.78125 0.734375q-1.203125 0 -1.96875 -0.953125q-0.765625 -0.96875 -0.765625 -2.65625zm1.546875 0.125q0 1.046875 0.421875 1.640625q0.421875 0.59375 1.171875 0.59375q0.921875 0 1.375 -0.8125l0 -3.015625q-0.4375 -0.78125 -1.375 -0.78125q-0.75 0 -1.171875 0.609375q-0.421875 0.59375 -0.421875 1.765625zm9.883774 -2.09375q-0.3125 -0.0625 -0.625 -0.0625q-1.0625 0 -1.4375 0.8125l0 4.703125l-1.546875 0l0 -6.875l1.484375 0l0.03125 0.78125q0.5625 -0.90625 1.546875 -0.90625q0.328125 0 0.546875 0.09375l0 1.453125zm4.107544 5.578125q-1.46875 0 -2.375 -0.921875q-0.90625 -0.921875 -0.90625 -2.453125l0 -0.203125q0 -1.015625 0.390625 -1.828125q0.40625 -0.8125 1.109375 -1.265625q0.71875 -0.453125 1.609375 -0.453125q1.40625 0 2.1562538 0.90625q0.765625 0.890625 0.765625 2.53125l0 0.609375l-4.484379 0q0.078125 0.859375 0.578125 1.359375q0.5 0.484375 1.25 0.484375q1.0625 0 1.7187538 -0.859375l0.84375 0.796875q-0.421875 0.625 -1.109375 0.96875q-0.6875038 0.328125 -1.5468788 0.328125zm-0.1875 -5.875q-0.625 0 -1.015625 0.4375q-0.390625 0.4375 -0.5 1.234375l2.9375 0l0 -0.109375q-0.046875 -0.78125 -0.421875 -1.171875q-0.359375 -0.390625 -1.0 -0.390625zm8.167789 3.890625q0 -0.421875 -0.34375 -0.625q-0.328125 -0.21875 -1.125 -0.390625q-0.78125 -0.171875 -1.3125 -0.421875q-1.15625 -0.5625 -1.15625 -1.609375q0 -0.890625 0.75 -1.484375q0.75 -0.609375 1.90625 -0.609375q1.234375 0 1.984375 0.609375q0.765625 0.609375 0.765625 1.578125l-1.546875 0q0 -0.4375 -0.328125 -0.734375q-0.328125 -0.296875 -0.875 -0.296875q-0.515625 0 -0.84375 0.234375q-0.3125 0.234375 -0.3125 0.625q0 0.359375 0.296875 0.5625q0.3125 0.1875 1.21875 0.390625q0.90625 0.203125 1.421875 0.484375q0.515625 0.265625 0.765625 0.65625q0.25 0.390625 0.25 0.9375q0 0.9375 -0.765625 1.515625q-0.765625 0.5625 -2.015625 0.5625q-0.84375 0 -1.5 -0.296875q-0.65625 -0.3125 -1.03125 -0.84375q-0.375 -0.53125 -0.375 -1.15625l1.5 0q0.03125 0.546875 0.40625 0.84375q0.390625 0.296875 1.015625 0.296875q0.609375 0 0.921875 -0.21875q0.328125 -0.234375 0.328125 -0.609375zm6.87883 0q0 -0.421875 -0.34375 -0.625q-0.328125 -0.21875 -1.125 -0.390625q-0.78125 -0.171875 -1.3125 -0.421875q-1.15625 -0.5625 -1.15625 -1.609375q0 -0.890625 0.75 -1.484375q0.75 -0.609375 1.90625 -0.609375q1.234375 0 1.984375 0.609375q0.765625 0.609375 0.765625 1.578125l-1.546875 0q0 -0.4375 -0.328125 -0.734375q-0.328125 -0.296875 -0.875 -0.296875q-0.515625 0 -0.84375 0.234375q-0.3125 0.234375 -0.3125 0.625q0 0.359375 0.296875 0.5625q0.3125 0.1875 1.21875 0.390625q0.90625 0.203125 1.421875 0.484375q0.515625 0.265625 0.765625 0.65625q0.25 0.390625 0.25 0.9375q0 0.9375 -0.765625 1.515625q-0.765625 0.5625 -2.015625 0.5625q-0.84375 0 -1.5 -0.296875q-0.65625 -0.3125 -1.03125 -0.84375q-0.375 -0.53125 -0.375 -1.15625l1.5 0q0.03125 0.546875 0.40625 0.84375q0.390625 0.296875 1.015625 0.296875q0.609375 0 0.921875 -0.21875q0.328125 -0.234375 0.328125 -0.609375zm9.166595 0.75q0.578125 0 0.953125 -0.328125q0.390625 -0.34375 0.421875 -0.828125l1.453125 0q-0.03125 0.640625 -0.40625 1.203125q-0.375 0.546875 -1.015625 0.875q-0.640625 0.3125 -1.390625 0.3125q-1.4375 0 -2.28125 -0.921875q-0.84375 -0.9375 -0.84375 -2.59375l0 -0.15625q0 -1.5625 0.828125 -2.5q0.84375 -0.953125 2.296875 -0.953125q1.21875 0 1.984375 0.71875q0.78125 0.71875 0.828125 1.875l-1.453125 0q-0.03125 -0.59375 -0.40625 -0.96875q-0.375 -0.375 -0.96875 -0.375q-0.75 0 -1.15625 0.546875q-0.40625 0.53125 -0.40625 1.640625l0 0.25q0 1.109375 0.390625 1.65625q0.40625 0.546875 1.171875 0.546875zm3.8670654 -2.390625q0 -1.0 0.390625 -1.8125q0.40625 -0.8125 1.125 -1.25q0.734375 -0.4375 1.671875 -0.4375q1.390625 0 2.25 0.90625q0.875 0.890625 0.9375 2.375l0.015625 0.359375q0 1.015625 -0.390625 1.8125q-0.390625 0.796875 -1.125 1.234375q-0.71875 0.4375 -1.671875 0.4375q-1.453125 0 -2.328125 -0.96875q-0.875 -0.96875 -0.875 -2.578125l0 -0.078125zm1.546875 0.140625q0 1.0625 0.4375 1.65625q0.4375 0.59375 1.21875 0.59375q0.78125 0 1.203125 -0.609375q0.4375 -0.609375 0.4375 -1.78125q0 -1.03125 -0.453125 -1.640625q-0.4375 -0.609375 -1.203125 -0.609375q-0.75 0 -1.203125 0.59375q-0.4375 0.59375 -0.4375 1.796875zm7.7600555 -3.515625l0.046875 0.796875q0.765625 -0.921875 2.0 -0.921875q2.140625 0 2.1875 2.46875l0 4.53125l-1.546875 0l0 -4.453125q0 -0.65625 -0.28125 -0.96875q-0.28125 -0.3125 -0.921875 -0.3125q-0.9375 0 -1.390625 0.84375l0 4.890625l-1.546875 0l0 -6.875l1.453125 0zm7.9124756 -1.65625l0 1.65625l1.21875 0l0 1.15625l-1.21875 0l0 3.828125q0 0.390625 0.15625 0.5625q0.15625 0.171875 0.5625 0.171875q0.265625 0 0.53125 -0.0625l0 1.203125q-0.515625 0.140625 -1.015625 0.140625q-1.765625 0 -1.765625 -1.953125l0 -3.890625l-1.140625 0l0 -1.15625l1.140625 0l0 -1.65625l1.53125 0zm6.1037445 3.078125q-0.3125 -0.0625 -0.625 -0.0625q-1.0625 0 -1.4375 0.8125l0 4.703125l-1.546875 0l0 -6.875l1.484375 0l0.03125 0.78125q0.5625 -0.90625 1.546875 -0.90625q0.328125 0 0.546875 0.09375l0 1.453125zm0.79504395 1.953125q0 -1.0 0.390625 -1.8125q0.40625 -0.8125 1.125 -1.25q0.734375 -0.4375 1.671875 -0.4375q1.390625 0 2.25 0.90625q0.875 0.890625 0.9375 2.375l0.015625 0.359375q0 1.015625 -0.390625 1.8125q-0.390625 0.796875 -1.125 1.234375q-0.71875 0.4375 -1.671875 0.4375q-1.453125 0 -2.328125 -0.96875q-0.875 -0.96875 -0.875 -2.578125l0 -0.078125zm1.546875 0.140625q0 1.0625 0.4375 1.65625q0.4375 0.59375 1.21875 0.59375q0.78125 0 1.203125 -0.609375q0.4375 -0.609375 0.4375 -1.78125q0 -1.03125 -0.453125 -1.640625q-0.4375 -0.609375 -1.203125 -0.609375q-0.75 0 -1.203125 0.59375q-0.4375 0.59375 -0.4375 1.796875zm7.9788055 3.359375l-1.546875 0l0 -9.75l1.546875 0l0 9.75zm3.4036255 0l-1.546875 0l0 -9.75l1.546875 0l0 9.75zm4.7786255 0.125q-1.46875 0 -2.375 -0.921875q-0.90625 -0.921875 -0.90625 -2.453125l0 -0.203125q0 -1.015625 0.390625 -1.828125q0.40625 -0.8125 1.109375 -1.265625q0.71875 -0.453125 1.609375 -0.453125q1.40625 0 2.15625 0.90625q0.765625 0.890625 0.765625 2.53125l0 0.609375l-4.484375 0q0.078125 0.859375 0.578125 1.359375q0.5 0.484375 1.25 0.484375q1.0625 0 1.71875 -0.859375l0.84375 0.796875q-0.421875 0.625 -1.109375 0.96875q-0.6875 0.328125 -1.546875 0.328125zm-0.1875 -5.875q-0.625 0 -1.015625 0.4375q-0.390625 0.4375 -0.5 1.234375l2.9375 0l0 -0.109375q-0.046875 -0.78125 -0.421875 -1.171875q-0.359375 -0.390625 -1.0 -0.390625zm7.9177856 0.296875q-0.3125 -0.0625 -0.625 -0.0625q-1.0625 0 -1.4375 0.8125l0 4.703125l-1.546875 0l0 -6.875l1.484375 0l0.03125 0.78125q0.5625 -0.90625 1.546875 -0.90625q0.328125 0 0.546875 0.09375l0 1.453125z"/><path fill="#000" fill-rule="nonzero" d="m33.38238 137.30132l-1.546875 0l0 -6.875l1.546875 0l0 6.875zm-1.640625 -8.65625q0 -0.34375 0.21875 -0.578125q0.234375 -0.25 0.640625 -0.25q0.421875 0 0.65625 0.25q0.234375 0.234375 0.234375 0.578125q0 0.359375 -0.234375 0.59375q-0.234375 0.21875 -0.65625 0.21875q-0.40625 0 -0.640625 -0.21875q-0.21875 -0.234375 -0.21875 -0.59375zm4.8255005 1.78125l0.046875 0.796875q0.765625 -0.921875 2.0 -0.921875q2.140625 0 2.1875 2.46875l0 4.53125l-1.546875 0l0 -4.453125q0 -0.65625 -0.28125 -0.96875q-0.28125 -0.3125 -0.921875 -0.3125q-0.9375 0 -1.390625 0.84375l0 4.890625l-1.546875 0l0 -6.875l1.453125 0zm12.106491 2.875l-1.046875 1.125l0 2.875l-1.609375 0l0 -9.25l1.609375 0l0 4.34375l0.890625 -1.09375l2.703125 -3.25l1.9375 0l-3.4375 4.109375l3.640625 5.140625l-1.90625 0l-2.78125 -4.0zm11.323547 -2.8125q0 0.6875 -0.359375 1.21875q-0.34375 0.53125 -0.9375 0.828125q0.71875 0.34375 1.109375 0.9375q0.390625 0.578125 0.390625 1.3125q0 1.21875 -0.828125 1.9375q-0.828125 0.703125 -2.203125 0.703125q-1.375 0 -2.203125 -0.71875q-0.828125 -0.71875 -0.828125 -1.921875q0 -0.75 0.390625 -1.328125q0.40625 -0.59375 1.109375 -0.921875q-0.59375 -0.296875 -0.9375 -0.828125q-0.34375 -0.53125 -0.34375 -1.21875q0 -1.171875 0.75 -1.859375q0.765625 -0.703125 2.0625 -0.703125q1.296875 0 2.0625 0.703125q0.765625 0.6875 0.765625 1.859375zm-1.34375 4.21875q0 -0.6875 -0.40625 -1.109375q-0.40625 -0.421875 -1.078125 -0.421875q-0.671875 0 -1.078125 0.421875q-0.40625 0.421875 -0.40625 1.109375q0 0.671875 0.390625 1.078125q0.40625 0.40625 1.09375 0.40625q0.703125 0 1.09375 -0.390625q0.390625 -0.390625 0.390625 -1.09375zm-0.1875 -4.15625q0 -0.59375 -0.359375 -0.984375q-0.34375 -0.390625 -0.9375 -0.390625q-0.59375 0 -0.9375 0.375q-0.34375 0.359375 -0.34375 1.0q0 0.640625 0.34375 1.015625q0.359375 0.375 0.9375 0.375q0.59375 0 0.9375 -0.375q0.359375 -0.375 0.359375 -1.015625zm8.356419 4.375q0 -0.609375 -0.4375 -0.9375q-0.421875 -0.34375 -1.546875 -0.671875q-1.1093788 -0.34375 -1.7656288 -0.75q-1.265625 -0.796875 -1.265625 -2.078125q0 -1.109375 0.90625 -1.828125q0.921875 -0.734375 2.3750038 -0.734375q0.96875 0 1.71875 0.359375q0.75 0.359375 1.1875 1.015625q0.4375 0.65625 0.4375 1.453125l-1.609375 0q0 -0.71875 -0.453125 -1.125q-0.453125 -0.421875 -1.296875 -0.421875q-0.78125 0 -1.2187538 0.34375q-0.4375 0.328125 -0.4375 0.9375q0 0.515625 0.46875 0.859375q0.4687538 0.328125 1.5468788 0.65625q1.078125 0.3125 1.734375 0.71875q0.65625 0.40625 0.953125 0.9375q0.3125 0.53125 0.3125 1.25q0 1.15625 -0.890625 1.84375q-0.875 0.671875 -2.390625 0.671875q-1.015625 0 -1.8593788 -0.359375q-0.828125 -0.375 -1.296875 -1.03125q-0.46875 -0.65625 -0.46875 -1.53125l1.609375 0q0 0.796875 0.515625 1.234375q0.5156288 0.421875 1.5000038 0.421875q0.828125 0 1.25 -0.34375q0.421875 -0.34375 0.421875 -0.890625zm6.0437317 -1.28125q0 1.40625 -0.390625 2.71875q-0.390625 1.3125 -1.171875 2.390625q-0.78125 1.078125 -1.640625 1.484375l-0.3125 -0.859375q0.953125 -0.734375 1.5 -2.25q0.5625 -1.515625 0.5625 -3.453125l0 -0.140625q0 -1.765625 -0.484375 -3.21875q-0.46875 -1.453125 -1.375 -2.328125l-0.203125 -0.171875l0.3125 -0.875q0.8125 0.40625 1.5625 1.40625q0.765625 1.0 1.171875 2.25q0.40625 1.234375 0.46875 2.546875l0 0.5z"/><path fill="#000" fill-opacity="0" fill-rule="evenodd" d="m102.204765 64.67454l93.57481 -1.7637749"/><path fill-rule="evenodd" stroke="#4f81bd" stroke-linecap="butt" stroke-linejoin="round" stroke-width="1" d="m102.204765 64.67454l90.14834 -1.6991882"/><path fill="#4f81bd" fill-rule="evenodd" stroke="#4f81bd" stroke-linecap="butt" stroke-width="1" d="m192.35309 62.975346l-1.1031952 1.1455803l3.068039 -1.1826134l-3.1104126 -1.0661583z"/><path fill="#000" fill-opacity="0" fill-rule="evenodd" d="m202.8029 163.62204l72.535446 0l0 23.527573l-72.535446 0z"/><path fill="#000" fill-rule="nonzero" d="m215.56853 177.04704q0 -0.609375 -0.4375 -0.9375q-0.421875 -0.34375 -1.546875 -0.671875q-1.109375 -0.34375 -1.765625 -0.75q-1.265625 -0.796875 -1.265625 -2.078125q0 -1.109375 0.90625 -1.828125q0.921875 -0.734375 2.375 -0.734375q0.96875 0 1.71875 0.359375q0.75 0.359375 1.1875 1.015625q0.4375 0.65625 0.4375 1.453125l-1.609375 0q0 -0.71875 -0.453125 -1.125q-0.453125 -0.421875 -1.296875 -0.421875q-0.78125 0 -1.21875 0.34375q-0.4375 0.328125 -0.4375 0.9375q0 0.515625 0.46875 0.859375q0.46875 0.328125 1.546875 0.65625q1.078125 0.3125 1.734375 0.71875q0.65625 0.40625 0.953125 0.9375q0.3125 0.53125 0.3125 1.25q0 1.15625 -0.890625 1.84375q-0.875 0.671875 -2.390625 0.671875q-1.015625 0 -1.859375 -0.359375q-0.828125 -0.375 -1.296875 -1.03125q-0.46875 -0.65625 -0.46875 -1.53125l1.609375 0q0 0.796875 0.515625 1.234375q0.515625 0.421875 1.5 0.421875q0.828125 0 1.25 -0.34375q0.421875 -0.34375 0.421875 -0.890625zm6.0906067 2.5q-1.46875 0 -2.375 -0.921875q-0.90625 -0.921875 -0.90625 -2.453125l0 -0.203125q0 -1.015625 0.390625 -1.828125q0.40625 -0.8125 1.109375 -1.265625q0.71875 -0.453125 1.609375 -0.453125q1.40625 0 2.15625 0.90625q0.765625 0.890625 0.765625 2.53125l0 0.609375l-4.484375 0q0.078125 0.859375 0.578125 1.359375q0.5 0.484375 1.25 0.484375q1.0625 0 1.71875 -0.859375l0.84375 0.796875q-0.421875 0.625 -1.109375 0.96875q-0.6875 0.328125 -1.546875 0.328125zm-0.1875 -5.875q-0.625 0 -1.015625 0.4375q-0.390625 0.4375 -0.5 1.234375l2.9375 0l0 -0.109375q-0.046875 -0.78125 -0.421875 -1.171875q-0.359375 -0.390625 -1.0 -0.390625zm7.9177856 0.296875q-0.3125 -0.0625 -0.625 -0.0625q-1.0625 0 -1.4375 0.8125l0 4.703125l-1.546875 0l0 -6.875l1.484375 0l0.03125 0.78125q0.5625 -0.90625 1.546875 -0.90625q0.328125 0 0.546875 0.09375l0 1.453125zm3.513794 3.5l1.453125 -4.921875l1.59375 0l-2.390625 6.875l-1.328125 0l-2.40625 -6.875l1.59375 0l1.484375 4.921875zm5.8112335 1.953125l-1.546875 0l0 -6.875l1.546875 0l0 6.875zm-1.640625 -8.65625q0 -0.34375 0.21875 -0.578125q0.234375 -0.25 0.640625 -0.25q0.421875 0 0.65625 0.25q0.234375 0.234375 0.234375 0.578125q0 0.359375 -0.234375 0.59375q-0.234375 0.21875 -0.65625 0.21875q-0.40625 0 -0.640625 -0.21875q-0.21875 -0.234375 -0.21875 -0.59375zm6.2161255 7.546875q0.578125 0 0.953125 -0.328125q0.390625 -0.34375 0.421875 -0.828125l1.453125 0q-0.03125 0.640625 -0.40625 1.203125q-0.375 0.546875 -1.015625 0.875q-0.640625 0.3125 -1.390625 0.3125q-1.4375 0 -2.28125 -0.921875q-0.84375 -0.9375 -0.84375 -2.59375l0 -0.15625q0 -1.5625 0.828125 -2.5q0.84375 -0.953125 2.296875 -0.953125q1.21875 0 1.984375 0.71875q0.78125 0.71875 0.828125 1.875l-1.453125 0q-0.03125 -0.59375 -0.40625 -0.96875q-0.375 -0.375 -0.96875 -0.375q-0.75 0 -1.15625 0.546875q-0.40625 0.53125 -0.40625 1.640625l0 0.25q0 1.109375 0.390625 1.65625q0.40625 0.546875 1.171875 0.546875zm7.1795654 1.234375q-1.46875 0 -2.375 -0.921875q-0.90625 -0.921875 -0.90625 -2.453125l0 -0.203125q0 -1.015625 0.390625 -1.828125q0.40625 -0.8125 1.109375 -1.265625q0.71875 -0.453125 1.609375 -0.453125q1.40625 0 2.15625 0.90625q0.765625 0.890625 0.765625 2.53125l0 0.609375l-4.484375 0q0.078125 0.859375 0.578125 1.359375q0.5 0.484375 1.25 0.484375q1.0625 0 1.71875 -0.859375l0.84375 0.796875q-0.421875 0.625 -1.109375 0.96875q-0.6875 0.328125 -1.546875 0.328125zm-0.1875 -5.875q-0.625 0 -1.015625 0.4375q-0.390625 0.4375 -0.5 1.234375l2.9375 0l0 -0.109375q-0.046875 -0.78125 -0.421875 -1.171875q-0.359375 -0.390625 -1.0 -0.390625zm12.955566 3.59375l-3.578125 0l-0.75 2.15625l-1.671875 0l3.5 -9.25l1.4375 0l3.5 9.25l-1.671875 0l-0.765625 -2.15625zm-3.125 -1.296875l2.671875 0l-1.328125 -3.828125l-1.34375 3.828125z"/><path fill="#bfbfbf" fill-rule="evenodd" d="m527.1281 7.1606245l0 0c13.168152 0 23.843018 10.674872 23.843018 23.842999l0 110.23527c0 6.3235474 -2.512024 12.388107 -6.9834595 16.859543c-4.4714355 4.4714203 -10.536011 6.983444 -16.859558 6.983444l-95.36911 0c-13.168121 0 -23.842987 -10.674866 -23.842987 -23.842987l0 -110.23527c0 -13.168125 10.674866 -23.842999 23.842987 -23.842999z"/><path fill="#fff" fill-rule="evenodd" d="m509.13345 11.338626l0 0c10.55307 0 19.108002 8.55494 19.108002 19.107994l0 102.41393c0 5.0677643 -2.0131836 9.927948 -5.5966187 13.511398c-3.583435 3.583435 -8.443665 5.5966034 -13.511383 5.5966034l-76.42969 0c-10.55307 0 -19.108002 -8.554947 -19.108002 -19.108002l0 -102.41393l0 0c0 -10.553053 8.554932 -19.107994 19.108002 -19.107994z"/><path fill-rule="evenodd" stroke="#7f7f7f" stroke-linecap="butt" stroke-linejoin="round" stroke-width="1" d="m509.13345 11.338626l0 0c10.55307 0 19.108002 8.55494 19.108002 19.107994l0 102.41393c0 5.0677643 -2.0131836 9.927948 -5.5966187 13.511398c-3.583435 3.583435 -8.443665 5.5966034 -13.511383 5.5966034l-76.42969 0c-10.55307 0 -19.108002 -8.554947 -19.108002 -19.108002l0 -102.41393l0 0c0 -10.553053 8.554932 -19.107994 19.108002 -19.107994z"/><path fill="#fff" fill-rule="evenodd" d="m522.83093 17.415241l0 0c11.277832 0 20.42035 9.142504 20.42035 20.420357l0 95.06479c0 5.4158173 -2.1514282 10.6098175 -5.981018 14.439377c-3.8295288 3.8295593 -9.02356 5.9809875 -14.439331 5.9809875l-81.678986 0c-11.277863 0 -20.42035 -9.142502 -20.42035 -20.420364l0 -95.06479c0 -11.277853 9.142487 -20.420357 20.42035 -20.420357z"/><path fill-rule="evenodd" stroke="#7f7f7f" stroke-linecap="butt" stroke-linejoin="round" stroke-width="1" d="m522.83093 17.415241l0 0c11.277832 0 20.42035 9.142504 20.42035 20.420357l0 95.06479c0 5.4158173 -2.1514282 10.6098175 -5.981018 14.439377c-3.8295288 3.8295593 -9.02356 5.9809875 -14.439331 5.9809875l-81.678986 0c-11.277863 0 -20.42035 -9.142502 -20.42035 -20.420364l0 -95.06479c0 -11.277853 9.142487 -20.420357 20.42035 -20.420357z"/><path fill="#d9ead3" fill-rule="evenodd" d="m440.29114 115.14958l88.15747 0l0 27.527557l-88.15747 0z"/><path fill="#000" fill-rule="nonzero" d="m474.58255 131.85399q0 -0.421875 -0.34375 -0.625q-0.328125 -0.21875 -1.125 -0.390625q-0.78125 -0.171875 -1.3125 -0.421875q-1.15625 -0.5625 -1.15625 -1.609375q0 -0.890625 0.75 -1.484375q0.75 -0.609375 1.90625 -0.609375q1.234375 0 1.984375 0.609375q0.765625 0.609375 0.765625 1.578125l-1.546875 0q0 -0.4375 -0.328125 -0.734375q-0.328125 -0.296875 -0.875 -0.296875q-0.515625 0 -0.84375 0.234375q-0.3125 0.234375 -0.3125 0.625q0 0.359375 0.296875 0.5625q0.3125 0.1875 1.21875 0.390625q0.90625 0.203125 1.421875 0.484375q0.515625 0.265625 0.765625 0.65625q0.25 0.390625 0.25 0.9375q0 0.9375 -0.765625 1.515625q-0.765625 0.5625 -2.015625 0.5625q-0.84375 0 -1.5 -0.296875q-0.65625 -0.3125 -1.03125 -0.84375q-0.375 -0.53125 -0.375 -1.15625l1.5 0q0.03125 0.546875 0.40625 0.84375q0.390625 0.296875 1.015625 0.296875q0.609375 0 0.921875 -0.21875q0.328125 -0.234375 0.328125 -0.609375zm5.4569397 -0.09375l1.453125 -4.921875l1.59375 0l-2.390625 6.875l-1.328125 0l-2.40625 -6.875l1.59375 0l1.484375 4.921875zm6.983124 0.84375q0.578125 0 0.953125 -0.328125q0.390625 -0.34375 0.421875 -0.828125l1.453125 0q-0.03125 0.640625 -0.40625 1.203125q-0.375 0.546875 -1.015625 0.875q-0.640625 0.3125 -1.390625 0.3125q-1.4375 0 -2.28125 -0.921875q-0.84375 -0.9375 -0.84375 -2.59375l0 -0.15625q0 -1.5625 0.828125 -2.5q0.84375 -0.953125 2.296875 -0.953125q1.21875 0 1.984375 0.71875q0.78125 0.71875 0.828125 1.875l-1.453125 0q-0.03125 -0.59375 -0.40625 -0.96875q-0.375 -0.375 -0.96875 -0.375q-0.75 0 -1.15625 0.546875q-0.40625 0.53125 -0.40625 1.640625l0 0.25q0 1.109375 0.390625 1.65625q0.40625 0.546875 1.171875 0.546875zm4.3045654 1.109375l0 -9.25l3.171875 0q1.5625 0 2.375 0.640625q0.828125 0.625 0.828125 1.875q0 0.625 -0.34375 1.140625q-0.34375 0.5 -1.0 0.78125q0.75 0.203125 1.15625 0.765625q0.40625 0.5625 0.40625 1.34375q0 1.3125 -0.84375 2.015625q-0.828125 0.6875 -2.375 0.6875l-3.375 0zm1.609375 -4.171875l0 2.890625l1.78125 0q0.75 0 1.171875 -0.375q0.4375 -0.375 0.4375 -1.046875q0 -1.4375 -1.46875 -1.46875l-1.921875 0zm0 -1.171875l1.578125 0q0.75 0 1.171875 -0.34375q0.421875 -0.34375 0.421875 -0.96875q0 -0.6875 -0.390625 -0.984375q-0.390625 -0.3125 -1.21875 -0.3125l-1.5625 0l0 2.609375z"/><path fill="#cfe2f3" fill-rule="evenodd" d="m440.10944 48.030296l86.58264 0l0 28.409447l-86.58264 0z"/><path fill="#000" fill-rule="nonzero" d="m471.9357 62.91002l-3.796875 0l0 2.84375l4.4375 0l0 1.28125l-6.046875 0l0 -9.25l6.0 0l0 1.296875l-4.390625 0l0 2.5625l3.796875 0l0 1.265625zm3.4111328 -2.75l0.046875 0.796875q0.765625 -0.921875 2.0 -0.921875q2.140625 0 2.1875 2.46875l0 4.53125l-1.546875 0l0 -4.453125q0 -0.65625 -0.28125 -0.96875q-0.28125 -0.3125 -0.921875 -0.3125q-0.9375 0 -1.390625 0.84375l0 4.890625l-1.546875 0l0 -6.875l1.453125 0zm8.412476 4.921875l1.453125 -4.921875l1.59375 0l-2.390625 6.875l-1.328125 0l-2.40625 -6.875l1.59375 0l1.484375 4.921875zm3.8737183 -1.546875q0 -1.0 0.390625 -1.8125q0.40625 -0.8125 1.125 -1.25q0.734375 -0.4375 1.671875 -0.4375q1.390625 0 2.25 0.90625q0.875 0.890625 0.9375 2.375l0.015625 0.359375q0 1.015625 -0.390625 1.8125q-0.390625 0.796875 -1.125 1.234375q-0.71875 0.4375 -1.671875 0.4375q-1.453125 0 -2.328125 -0.96875q-0.875 -0.96875 -0.875 -2.578125l0 -0.078125zm1.546875 0.140625q0 1.0625 0.4375 1.65625q0.4375 0.59375 1.21875 0.59375q0.78125 0 1.203125 -0.609375q0.4375 -0.609375 0.4375 -1.78125q0 -1.03125 -0.453125 -1.640625q-0.4375 -0.609375 -1.203125 -0.609375q-0.75 0 -1.203125 0.59375q-0.4375 0.59375 -0.4375 1.796875zm8.728821 1.15625l1.40625 -4.671875l1.640625 0l-2.734375 7.921875q-0.625 1.734375 -2.125 1.734375q-0.34375 0 -0.75 -0.125l0 -1.1875l0.296875 0.015625q0.578125 0 0.875 -0.21875q0.296875 -0.203125 0.46875 -0.703125l0.21875 -0.59375l-2.40625 -6.84375l1.65625 0l1.453125 4.671875z"/><path fill="#000" fill-opacity="0" fill-rule="evenodd" d="m483.40076 76.43974l0.5984192 36.220474"/><path fill-rule="evenodd" stroke="#4f81bd" stroke-linecap="butt" stroke-linejoin="round" stroke-width="1" d="m483.45734 79.86636l0.48526 29.367233"/><path fill="#4f81bd" fill-rule="evenodd" stroke="#4f81bd" stroke-linecap="butt" stroke-width="1" d="m483.45737 79.86636l1.1430054 1.1058502l-1.1754761 -3.0707626l-1.0733948 3.1079178z"/><path fill="#4f81bd" fill-rule="evenodd" stroke="#4f81bd" stroke-linecap="butt" stroke-width="1" d="m483.94257 109.2336l-1.1430054 -1.1058502l1.1754761 3.0707703l1.0733948 -3.1079254z"/><path fill="#000" fill-opacity="0" fill-rule="evenodd" d="m282.36353 62.90814l157.73227 -0.6614189"/><path fill-rule="evenodd" stroke="#4f81bd" stroke-linecap="butt" stroke-linejoin="round" stroke-width="1" d="m282.36353 62.90814l154.30524 -0.64704895"/><path fill="#4f81bd" fill-rule="evenodd" stroke="#4f81bd" stroke-linecap="butt" stroke-width="1" d="m436.66873 62.26109l-1.1198425 1.1292915l3.085022 -1.1375313l-3.094452 -1.111618z"/><path fill="#000" fill-opacity="0" fill-rule="evenodd" d="m445.72427 162.4007l72.53543 0l0 23.527557l-72.53543 0z"/><path fill="#000" fill-rule="nonzero" d="m458.4899 175.8257q0 -0.609375 -0.4375 -0.9375q-0.421875 -0.34375 -1.546875 -0.671875q-1.109375 -0.34375 -1.765625 -0.75q-1.265625 -0.796875 -1.265625 -2.078125q0 -1.109375 0.90625 -1.828125q0.921875 -0.734375 2.375 -0.734375q0.96875 0 1.71875 0.359375q0.75 0.359375 1.1875 1.015625q0.4375 0.65625 0.4375 1.453125l-1.609375 0q0 -0.71875 -0.453125 -1.125q-0.453125 -0.421875 -1.296875 -0.421875q-0.78125 0 -1.21875 0.34375q-0.4375 0.328125 -0.4375 0.9375q0 0.515625 0.46875 0.859375q0.46875 0.328125 1.546875 0.65625q1.078125 0.3125 1.734375 0.71875q0.65625 0.40625 0.953125 0.9375q0.3125 0.53125 0.3125 1.25q0 1.15625 -0.890625 1.84375q-0.875 0.671875 -2.390625 0.671875q-1.015625 0 -1.859375 -0.359375q-0.828125 -0.375 -1.296875 -1.03125q-0.46875 -0.65625 -0.46875 -1.53125l1.609375 0q0 0.796875 0.515625 1.234375q0.515625 0.421875 1.5 0.421875q0.828125 0 1.25 -0.34375q0.421875 -0.34375 0.421875 -0.890625zm6.0906067 2.5q-1.46875 0 -2.375 -0.921875q-0.90625 -0.921875 -0.90625 -2.453125l0 -0.203125q0 -1.015625 0.390625 -1.828125q0.40625 -0.8125 1.109375 -1.265625q0.71875 -0.453125 1.609375 -0.453125q1.40625 0 2.15625 0.90625q0.765625 0.890625 0.765625 2.53125l0 0.609375l-4.484375 0q0.078125 0.859375 0.578125 1.359375q0.5 0.484375 1.25 0.484375q1.0625 0 1.71875 -0.859375l0.84375 0.796875q-0.421875 0.625 -1.109375 0.96875q-0.6875 0.328125 -1.546875 0.328125zm-0.1875 -5.875q-0.625 0 -1.015625 0.4375q-0.390625 0.4375 -0.5 1.234375l2.9375 0l0 -0.109375q-0.046875 -0.78125 -0.421875 -1.171875q-0.359375 -0.390625 -1.0 -0.390625zm7.9177856 0.296875q-0.3125 -0.0625 -0.625 -0.0625q-1.0625 0 -1.4375 0.8125l0 4.703125l-1.546875 0l0 -6.875l1.484375 0l0.03125 0.78125q0.5625 -0.90625 1.546875 -0.90625q0.328125 0 0.546875 0.09375l0 1.453125zm3.513794 3.5l1.453125 -4.921875l1.59375 0l-2.390625 6.875l-1.328125 0l-2.40625 -6.875l1.59375 0l1.484375 4.921875zm5.8112183 1.953125l-1.546875 0l0 -6.875l1.546875 0l0 6.875zm-1.640625 -8.65625q0 -0.34375 0.21875 -0.578125q0.234375 -0.25 0.640625 -0.25q0.421875 0 0.65625 0.25q0.234375 0.234375 0.234375 0.578125q0 0.359375 -0.234375 0.59375q-0.234375 0.21875 -0.65625 0.21875q-0.40625 0 -0.640625 -0.21875q-0.21875 -0.234375 -0.21875 -0.59375zm6.2161255 7.546875q0.578125 0 0.953125 -0.328125q0.390625 -0.34375 0.421875 -0.828125l1.453125 0q-0.03125 0.640625 -0.40625 1.203125q-0.375 0.546875 -1.015625 0.875q-0.640625 0.3125 -1.390625 0.3125q-1.4375 0 -2.28125 -0.921875q-0.84375 -0.9375 -0.84375 -2.59375l0 -0.15625q0 -1.5625 0.828125 -2.5q0.84375 -0.953125 2.296875 -0.953125q1.21875 0 1.984375 0.71875q0.78125 0.71875 0.828125 1.875l-1.453125 0q-0.03125 -0.59375 -0.40625 -0.96875q-0.375 -0.375 -0.96875 -0.375q-0.75 0 -1.15625 0.546875q-0.40625 0.53125 -0.40625 1.640625l0 0.25q0 1.109375 0.390625 1.65625q0.40625 0.546875 1.171875 0.546875zm7.1795654 1.234375q-1.46875 0 -2.375 -0.921875q-0.90625 -0.921875 -0.90625 -2.453125l0 -0.203125q0 -1.015625 0.390625 -1.828125q0.40625 -0.8125 1.109375 -1.265625q0.71875 -0.453125 1.609375 -0.453125q1.40625 0 2.15625 0.90625q0.765625 0.890625 0.765625 2.53125l0 0.609375l-4.484375 0q0.078125 0.859375 0.578125 1.359375q0.5 0.484375 1.25 0.484375q1.0625 0 1.71875 -0.859375l0.84375 0.796875q-0.421875 0.625 -1.109375 0.96875q-0.6875 0.328125 -1.546875 0.328125zm-0.1875 -5.875q-0.625 0 -1.015625 0.4375q-0.390625 0.4375 -0.5 1.234375l2.9375 0l0 -0.109375q-0.046875 -0.78125 -0.421875 -1.171875q-0.359375 -0.390625 -1.0 -0.390625zm7.7836914 5.75l0 -9.25l3.171875 0q1.5625 0 2.375 0.640625q0.828125 0.625 0.828125 1.875q0 0.625 -0.34375 1.140625q-0.34375 0.5 -1.0 0.78125q0.75 0.203125 1.15625 0.765625q0.40625 0.5625 0.40625 1.34375q0 1.3125 -0.84375 2.015625q-0.828125 0.6875 -2.375 0.6875l-3.375 0zm1.609375 -4.171875l0 2.890625l1.78125 0q0.75 0 1.171875 -0.375q0.4375 -0.375 0.4375 -1.046875q0 -1.4375 -1.46875 -1.46875l-1.921875 0zm0 -1.171875l1.578125 0q0.75 0 1.171875 -0.34375q0.421875 -0.34375 0.421875 -0.96875q0 -0.6875 -0.390625 -0.984375q-0.390625 -0.3125 -1.21875 -0.3125l-1.5625 0l0 2.609375z"/><path fill="#000" fill-opacity="0" fill-rule="evenodd" d="m43.02366 64.67454l-43.02362 1.1023636"/><path fill-rule="evenodd" stroke="#4f81bd" stroke-linecap="butt" stroke-linejoin="round" stroke-width="1" d="m39.597694 64.76232l-39.597656 1.0145798"/><path fill="#4f81bd" fill-rule="evenodd" stroke="#4f81bd" stroke-linecap="butt" stroke-width="1" d="m39.597694 64.76232l-1.0954094 1.1530228l3.0599518 -1.2033615l-3.1175613 -1.0450706z"/><path fill="#fff" fill-rule="evenodd" d="m652.2111 41.72441l0 0c4.2037964 0 7.6116943 3.4078712 7.6116943 7.611698l0 30.445889l0 0c0 2.018753 -0.8019409 3.9548187 -2.2294312 5.382286c-1.4274902 1.427475 -3.3635254 2.229416 -5.382263 2.229416l-57.312073 0c-4.2037964 0 -7.6116943 -3.407875 -7.6116943 -7.611702l0 -30.445889c0 -4.203827 3.407898 -7.611698 7.6116943 -7.611698z"/><path fill-rule="evenodd" stroke="#7f7f7f" stroke-linecap="butt" stroke-linejoin="round" stroke-width="1" d="m652.2111 41.72441l0 0c4.2037964 0 7.6116943 3.4078712 7.6116943 7.611698l0 30.445889l0 0c0 2.018753 -0.8019409 3.9548187 -2.2294312 5.382286c-1.4274902 1.427475 -3.3635254 2.229416 -5.382263 2.229416l-57.312073 0c-4.2037964 0 -7.6116943 -3.407875 -7.6116943 -7.611702l0 -30.445889c0 -4.203827 3.407898 -7.611698 7.6116943 -7.611698z"/><path fill="#cfe2f3" fill-rule="evenodd" d="m596.2743 52.771652l55.84253 0l0 23.055122l-55.84253 0z"/><path fill="#000" fill-rule="nonzero" d="m612.73047 64.97421l-3.796875 0l0 2.84375l4.4375 0l0 1.28125l-6.046875 0l0 -9.25l6.0 0l0 1.296875l-4.390625 0l0 2.5625l3.796875 0l0 1.265625zm3.4111328 -2.75l0.046875 0.796875q0.765625 -0.921875 2.0 -0.921875q2.140625 0 2.1875 2.46875l0 4.53125l-1.546875 0l0 -4.453125q0 -0.65625 -0.28125 -0.96875q-0.28125 -0.3125 -0.921875 -0.3125q-0.9375 0 -1.390625 0.84375l0 4.890625l-1.546875 0l0 -6.875l1.453125 0zm8.412476 4.921875l1.453125 -4.921875l1.59375 0l-2.390625 6.875l-1.328125 0l-2.40625 -6.875l1.59375 0l1.484375 4.921875zm3.8737183 -1.546875q0 -1.0 0.390625 -1.8125q0.40625 -0.8125 1.125 -1.25q0.734375 -0.4375 1.671875 -0.4375q1.390625 0 2.25 0.90625q0.875 0.890625 0.9375 2.375l0.015625 0.359375q0 1.015625 -0.390625 1.8125q-0.390625 0.796875 -1.125 1.234375q-0.71875 0.4375 -1.671875 0.4375q-1.453125 0 -2.328125 -0.96875q-0.875 -0.96875 -0.875 -2.578125l0 -0.078125zm1.546875 0.140625q0 1.0625 0.4375 1.65625q0.4375 0.59375 1.21875 0.59375q0.78125 0 1.203125 -0.609375q0.4375 -0.609375 0.4375 -1.78125q0 -1.03125 -0.453125 -1.640625q-0.4375 -0.609375 -1.203125 -0.609375q-0.75 0 -1.203125 0.59375q-0.4375 0.59375 -0.4375 1.796875zm8.728821 1.15625l1.40625 -4.671875l1.640625 0l-2.734375 7.921875q-0.625 1.734375 -2.125 1.734375q-0.34375 0 -0.75 -0.125l0 -1.1875l0.296875 0.015625q0.578125 0 0.875 -0.21875q0.296875 -0.203125 0.46875 -0.703125l0.21875 -0.59375l-2.40625 -6.84375l1.65625 0l1.453125 4.671875z"/><path fill="#000" fill-opacity="0" fill-rule="evenodd" d="m580.83386 60.912186l-54.141785 1.322834"/><path fill-rule="evenodd" stroke="#4f81bd" stroke-linecap="butt" stroke-linejoin="round" stroke-width="1" d="m577.4078 60.995895l-50.7157 1.2391243"/><path fill="#4f81bd" fill-rule="evenodd" stroke="#4f81bd" stroke-linecap="butt" stroke-width="1" d="m577.4078 60.995895l-1.0968018 1.1517143l3.0614014 -1.1997147l-3.116333 -1.0487785z"/><path fill="#000" fill-opacity="0" fill-rule="evenodd" d="m580.84515 90.301834l104.12598 0l0 27.527565l-104.12598 0z"/><path fill="#000" fill-rule="nonzero" d="m594.1889 101.97684l-3.796875 0l0 2.84375l4.4375 0l0 1.28125l-6.046875 0l0 -9.25l6.0 0l0 1.296875l-4.390625 0l0 2.5625l3.796875 0l0 1.265625zm1.7080078 0.640625q0 -1.59375 0.75 -2.546875q0.765625 -0.96875 2.0 -0.96875q1.171875 0 1.84375 0.828125l0.078125 -0.703125l1.390625 0l0 6.671875q0 1.34375 -0.84375 2.125q-0.84375 0.78125 -2.265625 0.78125q-0.765625 0 -1.484375 -0.3125q-0.71875 -0.3125 -1.09375 -0.828125l0.734375 -0.921875q0.71875 0.84375 1.75 0.84375q0.765625 0 1.203125 -0.421875q0.453125 -0.40625 0.453125 -1.21875l0 -0.453125q-0.65625 0.734375 -1.78125 0.734375q-1.203125 0 -1.96875 -0.953125q-0.765625 -0.96875 -0.765625 -2.65625zm1.546875 0.125q0 1.046875 0.421875 1.640625q0.421875 0.59375 1.171875 0.59375q0.921875 0 1.375 -0.8125l0 -3.015625q-0.4375 -0.78125 -1.375 -0.78125q-0.75 0 -1.171875 0.609375q-0.421875 0.59375 -0.421875 1.765625zm9.883728 -2.09375q-0.3125 -0.0625 -0.625 -0.0625q-1.0625 0 -1.4375 0.8125l0 4.703125l-1.546875 0l0 -6.875l1.484375 0l0.03125 0.78125q0.5625 -0.90625 1.546875 -0.90625q0.328125 0 0.546875 0.09375l0 1.453125zm4.107544 5.578125q-1.46875 0 -2.375 -0.921875q-0.90625 -0.921875 -0.90625 -2.453125l0 -0.203125q0 -1.015625 0.390625 -1.828125q0.40625 -0.8125 1.109375 -1.265625q0.71875 -0.453125 1.609375 -0.453125q1.40625 0 2.15625 0.90625q0.765625 0.890625 0.765625 2.53125l0 0.609375l-4.484375 0q0.078125 0.859375 0.578125 1.359375q0.5 0.484375 1.25 0.484375q1.0625 0 1.71875 -0.859375l0.84375 0.796875q-0.421875 0.625 -1.109375 0.96875q-0.6875 0.328125 -1.546875 0.328125zm-0.1875 -5.875q-0.625 0 -1.015625 0.4375q-0.390625 0.4375 -0.5 1.234375l2.9375 0l0 -0.109375q-0.046875 -0.78125 -0.421875 -1.171875q-0.359375 -0.390625 -1.0 -0.390625zm8.167786 3.890625q0 -0.421875 -0.34375 -0.625q-0.328125 -0.21875 -1.125 -0.390625q-0.78125 -0.171875 -1.3125 -0.421875q-1.15625 -0.5625 -1.15625 -1.609375q0 -0.890625 0.75 -1.484375q0.75 -0.609375 1.90625 -0.609375q1.234375 0 1.984375 0.609375q0.765625 0.609375 0.765625 1.578125l-1.546875 0q0 -0.4375 -0.328125 -0.734375q-0.328125 -0.296875 -0.875 -0.296875q-0.515625 0 -0.84375 0.234375q-0.3125 0.234375 -0.3125 0.625q0 0.359375 0.296875 0.5625q0.3125 0.1875 1.21875 0.390625q0.90625 0.203125 1.421875 0.484375q0.515625 0.265625 0.765625 0.65625q0.25 0.390625 0.25 0.9375q0 0.9375 -0.765625 1.515625q-0.765625 0.5625 -2.015625 0.5625q-0.84375 0 -1.5 -0.296875q-0.65625 -0.3125 -1.03125 -0.84375q-0.375 -0.53125 -0.375 -1.15625l1.5 0q0.03125 0.546875 0.40625 0.84375q0.390625 0.296875 1.015625 0.296875q0.609375 0 0.921875 -0.21875q0.328125 -0.234375 0.328125 -0.609375zm6.878845 0q0 -0.421875 -0.34375 -0.625q-0.328125 -0.21875 -1.125 -0.390625q-0.78125 -0.171875 -1.3125 -0.421875q-1.15625 -0.5625 -1.15625 -1.609375q0 -0.890625 0.75 -1.484375q0.75 -0.609375 1.90625 -0.609375q1.234375 0 1.984375 0.609375q0.765625 0.609375 0.765625 1.578125l-1.546875 0q0 -0.4375 -0.328125 -0.734375q-0.328125 -0.296875 -0.875 -0.296875q-0.515625 0 -0.84375 0.234375q-0.3125 0.234375 -0.3125 0.625q0 0.359375 0.296875 0.5625q0.3125 0.1875 1.21875 0.390625q0.90625 0.203125 1.421875 0.484375q0.515625 0.265625 0.765625 0.65625q0.25 0.390625 0.25 0.9375q0 0.9375 -0.765625 1.515625q-0.765625 0.5625 -2.015625 0.5625q-0.84375 0 -1.5 -0.296875q-0.65625 -0.3125 -1.03125 -0.84375q-0.375 -0.53125 -0.375 -1.15625l1.5 0q0.03125 0.546875 0.40625 0.84375q0.390625 0.296875 1.015625 0.296875q0.609375 0 0.921875 -0.21875q0.328125 -0.234375 0.328125 -0.609375zm11.901001 -2.265625l-3.796875 0l0 2.84375l4.4375 0l0 1.28125l-6.046875 0l0 -9.25l6.0 0l0 1.296875l-4.390625 0l0 2.5625l3.796875 0l0 1.265625zm3.4110718 -2.75l0.046875 0.796875q0.765625 -0.921875 2.0 -0.921875q2.140625 0 2.1875 2.46875l0 4.53125l-1.546875 0l0 -4.453125q0 -0.65625 -0.28125 -0.96875q-0.28125 -0.3125 -0.921875 -0.3125q-0.9375 0 -1.390625 0.84375l0 4.890625l-1.546875 0l0 -6.875l1.453125 0zm8.412476 4.921875l1.453125 -4.921875l1.59375 0l-2.390625 6.875l-1.328125 0l-2.40625 -6.875l1.59375 0l1.484375 4.921875zm3.8737793 -1.546875q0 -1.0 0.390625 -1.8125q0.40625 -0.8125 1.125 -1.25q0.734375 -0.4375 1.671875 -0.4375q1.390625 0 2.25 0.90625q0.875 0.890625 0.9375 2.375l0.015625 0.359375q0 1.015625 -0.390625 1.8125q-0.390625 0.796875 -1.125 1.234375q-0.71875 0.4375 -1.671875 0.4375q-1.453125 0 -2.328125 -0.96875q-0.875 -0.96875 -0.875 -2.578125l0 -0.078125zm1.546875 0.140625q0 1.0625 0.4375 1.65625q0.4375 0.59375 1.21875 0.59375q0.78125 0 1.203125 -0.609375q0.4375 -0.609375 0.4375 -1.78125q0 -1.03125 -0.453125 -1.640625q-0.4375 -0.609375 -1.203125 -0.609375q-0.75 0 -1.203125 0.59375q-0.4375 0.59375 -0.4375 1.796875zm8.72876 1.15625l1.40625 -4.671875l1.640625 0l-2.734375 7.921875q-0.625 1.734375 -2.125 1.734375q-0.34375 0 -0.75 -0.125l0 -1.1875l0.296875 0.015625q0.578125 0 0.875 -0.21875q0.296875 -0.203125 0.46875 -0.703125l0.21875 -0.59375l-2.40625 -6.84375l1.65625 0l1.453125 4.671875z"/><path fill="#000" fill-opacity="0" fill-rule="evenodd" d="m686.877 45.209972l72.53546 0l0 40.031498l-72.53546 0z"/><path fill="#000" fill-rule="nonzero" d="m700.22076 56.88497l-3.796875 0l0 2.84375l4.4375 0l0 1.28125l-6.046875 0l0 -9.25l6.0 0l0 1.296875l-4.390625 0l0 2.5625l3.796875 0l0 1.265625zm4.442383 -0.484375l1.3125 -2.265625l1.71875 0l-2.109375 3.390625l2.171875 3.484375l-1.703125 0l-1.359375 -2.34375l-1.375 2.34375l-1.703125 0l2.171875 -3.484375l-2.109375 -3.390625l1.703125 0l1.28125 2.265625zm6.171875 -3.921875l0 1.65625l1.21875 0l0 1.15625l-1.21875 0l0 3.828125q0 0.390625 0.15625 0.5625q0.15625 0.171875 0.5625 0.171875q0.265625 0 0.53125 -0.0625l0 1.203125q-0.515625 0.140625 -1.015625 0.140625q-1.765625 0 -1.765625 -1.953125l0 -3.890625l-1.140625 0l0 -1.15625l1.140625 0l0 -1.65625l1.53125 0zm5.5255737 8.65625q-1.46875 0 -2.375 -0.921875q-0.90625 -0.921875 -0.90625 -2.453125l0 -0.203125q0 -1.015625 0.390625 -1.828125q0.40625 -0.8125 1.109375 -1.265625q0.71875 -0.453125 1.609375 -0.453125q1.40625 0 2.15625 0.90625q0.765625 0.890625 0.765625 2.53125l0 0.609375l-4.484375 0q0.078125 0.859375 0.578125 1.359375q0.5 0.484375 1.25 0.484375q1.0625 0 1.71875 -0.859375l0.84375 0.796875q-0.421875 0.625 -1.109375 0.96875q-0.6875 0.328125 -1.546875 0.328125zm-0.1875 -5.875q-0.625 0 -1.015625 0.4375q-0.390625 0.4375 -0.5 1.234375l2.9375 0l0 -0.109375q-0.046875 -0.78125 -0.421875 -1.171875q-0.359375 -0.390625 -1.0 -0.390625zm7.9177856 0.296875q-0.3125 -0.0625 -0.625 -0.0625q-1.0625 0 -1.4375 0.8125l0 4.703125l-1.546875 0l0 -6.875l1.484375 0l0.03125 0.78125q0.5625 -0.90625 1.546875 -0.90625q0.328125 0 0.546875 0.09375l0 1.453125zm2.513794 -1.421875l0.046875 0.796875q0.765625 -0.921875 2.0 -0.921875q2.140625 0 2.1875 2.46875l0 4.53125l-1.546875 0l0 -4.453125q0 -0.65625 -0.28125 -0.96875q-0.28125 -0.3125 -0.921875 -0.3125q-0.9375 0 -1.390625 0.84375l0 4.890625l-1.546875 0l0 -6.875l1.453125 0zm10.084351 6.875q-0.09375 -0.203125 -0.171875 -0.640625q-0.734375 0.765625 -1.8125 0.765625q-1.03125 0 -1.6875 -0.578125q-0.640625 -0.59375 -0.640625 -1.46875q0 -1.09375 0.8125 -1.6875q0.8125 -0.59375 2.328125 -0.59375l0.953125 0l0 -0.4375q0 -0.546875 -0.3125 -0.859375q-0.296875 -0.328125 -0.90625 -0.328125q-0.515625 0 -0.859375 0.265625q-0.328125 0.265625 -0.328125 0.671875l-1.546875 0q0 -0.5625 0.375 -1.046875q0.375 -0.5 1.015625 -0.78125q0.640625 -0.28125 1.4375 -0.28125q1.203125 0 1.921875 0.609375q0.71875 0.609375 0.734375 1.703125l0 3.09375q0 0.9375 0.265625 1.484375l0 0.109375l-1.578125 0zm-1.6875 -1.109375q0.453125 0 0.859375 -0.21875q0.40625 -0.234375 0.609375 -0.609375l0 -1.28125l-0.84375 0q-0.84375 0 -1.28125 0.296875q-0.4375 0.296875 -0.4375 0.84375q0 0.4375 0.296875 0.703125q0.296875 0.265625 0.796875 0.265625zm6.4451294 1.109375l-1.546875 0l0 -9.75l1.546875 0l0 9.75z"/><path fill="#000" fill-rule="nonzero" d="m699.64264 74.63497q0 -0.609375 -0.4375 -0.9375q-0.421875 -0.34375 -1.546875 -0.671875q-1.109375 -0.34375 -1.765625 -0.75q-1.265625 -0.796875 -1.265625 -2.078125q0 -1.109375 0.90625 -1.828125q0.921875 -0.734375 2.375 -0.734375q0.96875 0 1.71875 0.359375q0.75 0.359375 1.1875 1.015625q0.4375 0.65625 0.4375 1.453125l-1.609375 0q0 -0.71875 -0.453125 -1.125q-0.453125 -0.421875 -1.296875 -0.421875q-0.78125 0 -1.21875 0.34375q-0.4375 0.328125 -0.4375 0.9375q0 0.515625 0.46875 0.859375q0.46875 0.328125 1.546875 0.65625q1.078125 0.3125 1.734375 0.71875q0.65625 0.40625 0.953125 0.9375q0.3125 0.53125 0.3125 1.25q0 1.15625 -0.890625 1.84375q-0.875 0.671875 -2.390625 0.671875q-1.015625 0 -1.859375 -0.359375q-0.828125 -0.375 -1.296875 -1.03125q-0.46875 -0.65625 -0.46875 -1.53125l1.609375 0q0 0.796875 0.515625 1.234375q0.515625 0.421875 1.5 0.421875q0.828125 0 1.25 -0.34375q0.421875 -0.34375 0.421875 -0.890625zm6.090637 2.5q-1.46875 0 -2.375 -0.921875q-0.90625 -0.921875 -0.90625 -2.453125l0 -0.203125q0 -1.015625 0.390625 -1.828125q0.40625 -0.8125 1.109375 -1.265625q0.71875 -0.453125 1.609375 -0.453125q1.40625 0 2.15625 0.90625q0.765625 0.890625 0.765625 2.53125l0 0.609375l-4.484375 0q0.078125 0.859375 0.578125 1.359375q0.5 0.484375 1.25 0.484375q1.0625 0 1.71875 -0.859375l0.84375 0.796875q-0.421875 0.625 -1.109375 0.96875q-0.6875 0.328125 -1.546875 0.328125zm-0.1875 -5.875q-0.625 0 -1.015625 0.4375q-0.390625 0.4375 -0.5 1.234375l2.9375 0l0 -0.109375q-0.046875 -0.78125 -0.421875 -1.171875q-0.359375 -0.390625 -1.0 -0.390625zm7.9177856 0.296875q-0.3125 -0.0625 -0.625 -0.0625q-1.0625 0 -1.4375 0.8125l0 4.703125l-1.546875 0l0 -6.875l1.484375 0l0.03125 0.78125q0.5625 -0.90625 1.546875 -0.90625q0.328125 0 0.546875 0.09375l0 1.453125zm3.513794 3.5l1.453125 -4.921875l1.59375 0l-2.390625 6.875l-1.328125 0l-2.40625 -6.875l1.59375 0l1.484375 4.921875zm5.8112183 1.953125l-1.546875 0l0 -6.875l1.546875 0l0 6.875zm-1.640625 -8.65625q0 -0.34375 0.21875 -0.578125q0.234375 -0.25 0.640625 -0.25q0.421875 0 0.65625 0.25q0.234375 0.234375 0.234375 0.578125q0 0.359375 -0.234375 0.59375q-0.234375 0.21875 -0.65625 0.21875q-0.40625 0 -0.640625 -0.21875q-0.21875 -0.234375 -0.21875 -0.59375zm6.2161255 7.546875q0.578125 0 0.953125 -0.328125q0.390625 -0.34375 0.421875 -0.828125l1.453125 0q-0.03125 0.640625 -0.40625 1.203125q-0.375 0.546875 -1.015625 0.875q-0.640625 0.3125 -1.390625 0.3125q-1.4375 0 -2.28125 -0.921875q-0.84375 -0.9375 -0.84375 -2.59375l0 -0.15625q0 -1.5625 0.828125 -2.5q0.84375 -0.953125 2.296875 -0.953125q1.21875 0 1.984375 0.71875q0.78125 0.71875 0.828125 1.875l-1.453125 0q-0.03125 -0.59375 -0.40625 -0.96875q-0.375 -0.375 -0.96875 -0.375q-0.75 0 -1.15625 0.546875q-0.40625 0.53125 -0.40625 1.640625l0 0.25q0 1.109375 0.390625 1.65625q0.40625 0.546875 1.171875 0.546875zm7.1795654 1.234375q-1.46875 0 -2.375 -0.921875q-0.90625 -0.921875 -0.90625 -2.453125l0 -0.203125q0 -1.015625 0.390625 -1.828125q0.40625 -0.8125 1.109375 -1.265625q0.71875 -0.453125 1.609375 -0.453125q1.40625 0 2.15625 0.90625q0.765625 0.890625 0.765625 2.53125l0 0.609375l-4.484375 0q0.078125 0.859375 0.578125 1.359375q0.5 0.484375 1.25 0.484375q1.0625 0 1.71875 -0.859375l0.84375 0.796875q-0.421875 0.625 -1.109375 0.96875q-0.6875 0.328125 -1.546875 0.328125zm-0.1875 -5.875q-0.625 0 -1.015625 0.4375q-0.390625 0.4375 -0.5 1.234375l2.9375 0l0 -0.109375q-0.046875 -0.78125 -0.421875 -1.171875q-0.359375 -0.390625 -1.0 -0.390625zm8.167786 3.890625q0 -0.421875 -0.34375 -0.625q-0.328125 -0.21875 -1.125 -0.390625q-0.78125 -0.171875 -1.3125 -0.421875q-1.15625 -0.5625 -1.15625 -1.609375q0 -0.890625 0.75 -1.484375q0.75 -0.609375 1.90625 -0.609375q1.234375 0 1.984375 0.609375q0.765625 0.609375 0.765625 1.578125l-1.546875 0q0 -0.4375 -0.328125 -0.734375q-0.328125 -0.296875 -0.875 -0.296875q-0.515625 0 -0.84375 0.234375q-0.3125 0.234375 -0.3125 0.625q0 0.359375 0.296875 0.5625q0.3125 0.1875 1.21875 0.390625q0.90625 0.203125 1.421875 0.484375q0.515625 0.265625 0.765625 0.65625q0.25 0.390625 0.25 0.9375q0 0.9375 -0.765625 1.515625q-0.765625 0.5625 -2.015625 0.5625q-0.84375 0 -1.5 -0.296875q-0.65625 -0.3125 -1.03125 -0.84375q-0.375 -0.53125 -0.375 -1.15625l1.5 0q0.03125 0.546875 0.40625 0.84375q0.390625 0.296875 1.015625 0.296875q0.609375 0 0.921875 -0.21875q0.328125 -0.234375 0.328125 -0.609375z"/><path fill="#000" fill-opacity="0" fill-rule="evenodd" d="m692.65356 63.716534l-32.81891 -0.22047043"/><path fill-rule="evenodd" stroke="#4f81bd" stroke-linecap="butt" stroke-linejoin="round" stroke-width="1" d="m689.22656 63.693512l-29.391907 -0.19744873"/><path fill="#4f81bd" fill-rule="evenodd" stroke="#4f81bd" stroke-linecap="butt" stroke-width="1" d="m689.22656 63.693512l-1.1321411 1.1170044l3.097229 -1.1038017l-3.0820923 -1.1453133z"/></g></svg>