<svg xmlns="http://www.w3.org/2000/svg" viewBox="0 0 706.74 373.13"><defs><style>.a09a4496-1590-4bfa-838a-c39a3a2da124,.b78b32d5-9fed-40da-859c-78268adbe406,.e3d80bc0-a232-4d65-9acf-72698566be18,.f15d73bc-df55-44fe-9939-89cb9d18bed0,.fbfe74ef-fb87-4f05-8fb0-757a5ed9cd72{fill:none}.fbfe74ef-fb87-4f05-8fb0-757a5ed9cd72{stroke:#466bb0;stroke-dasharray:10.06 10.06}.a09a4496-1590-4bfa-838a-c39a3a2da124,.e3d80bc0-a232-4d65-9acf-72698566be18,.f15d73bc-df55-44fe-9939-89cb9d18bed0,.fbfe74ef-fb87-4f05-8fb0-757a5ed9cd72{stroke-linejoin:round}.a14e9f89-d515-4fcd-8d26-b033c38cdf17{font-size:12px;font-family:Roboto-Regular,Roboto}.b43cc7da-0f57-4d1d-932e-d16be8d80615,.e2e40ccb-ab67-4786-a914-87a9e980ef2b{font-family:Roboto-Regular,Roboto}.b46e8629-77f1-466f-aaa7-310730f3300d{fill:#466bb0}.e2e40ccb-ab67-4786-a914-87a9e980ef2b{font-size:16.04px}.b69be339-999d-4bec-95e3-a2f37eb75991{letter-spacing:-.03em}.b3a989e2-8c04-4650-82b5-369f2255f898{letter-spacing:-.08em}.e875b52d-3643-43f8-b5cc-b27f98814743{fill:#e5e5e4}.bb8411e6-5f57-404f-bfdd-fe0f531ab2ca{fill:#fff}.b43cc7da-0f57-4d1d-932e-d16be8d80615{font-size:11.46px}.b2c6ae1c-0e8d-421f-bb70-a4795f4c10cc{letter-spacing:.02em}.aed474d5-fbf5-44e0-b247-5e8ba3b1b8a6{fill:#e6e6e6}.e3d80bc0-a232-4d65-9acf-72698566be18{stroke:#e905ee;stroke-width:3px}.be01af08-580e-4309-8644-049ddf8066e2{fill:#757575}.a09a4496-1590-4bfa-838a-c39a3a2da124,.b78b32d5-9fed-40da-859c-78268adbe406{stroke:#fff;stroke-width:2px}.b78b32d5-9fed-40da-859c-78268adbe406,.f15d73bc-df55-44fe-9939-89cb9d18bed0{stroke-linecap:round}.b78b32d5-9fed-40da-859c-78268adbe406{stroke-miterlimit:10}.f15d73bc-df55-44fe-9939-89cb9d18bed0{stroke-width:4px}.a816720e-d5ee-45bf-a6bd-55e51341423e{fill:#090}.f15d73bc-df55-44fe-9939-89cb9d18bed0{stroke:#486baf;stroke-dasharray:6 12}.b4c24b18-c17d-458a-b069-40504eb78b92{fill:#486baf}</style></defs><g id="ba6e30d5-48a8-4030-8c48-bdf5b3582be6" data-name="multi-trust"><rect class="fbfe74ef-fb87-4f05-8fb0-757a5ed9cd72" x=".5" y="13.7" width="333.45" height="358.93" rx="10"/><rect class="fbfe74ef-fb87-4f05-8fb0-757a5ed9cd72" x="372.79" y="13.7" width="333.45" height="358.93" rx="10"/><text class="a14e9f89-d515-4fcd-8d26-b033c38cdf17" transform="translate(.48 10.27)">Istio Mesh: foo.com</text><text class="a14e9f89-d515-4fcd-8d26-b033c38cdf17" transform="translate(372.79 10.27)">Istio Mesh: ba<tspan x="74.87" y="0" letter-spacing="-.08em">r</tspan><tspan x="77.94" y="0">.com</tspan></text><path class="b46e8629-77f1-466f-aaa7-310730f3300d" d="M656.92 105.72l1.81 1.77a.9.9 0 01.24.93.89.89 0 01-.67.65l-2.48.63.71 2.43a.9.9 0 01-.24 1 .88.88 0 01-.94.23l-2.44-.7-.63 2.47a.84.84 0 01-.67.69.85.85 0 01-.9-.25l-1.77-1.81-1.77 1.81a.92.92 0 01-.93.25.82.82 0 01-.64-.69l-.63-2.47-2.44.7a.94.94 0 01-1.18-1.18l.71-2.43-2.48-.63a.87.87 0 01-.67-.65.86.86 0 01.24-.93l1.8-1.77-1.8-1.77a.85.85 0 01-.24-.92.87.87 0 01.67-.65l2.48-.63-.71-2.44a.89.89 0 01.23-.94.93.93 0 01.95-.24l2.44.71.63-2.48a.83.83 0 01.66-.68.85.85 0 01.91.25l1.77 1.85 1.77-1.85a.86.86 0 01.92-.23.85.85 0 01.65.66l.63 2.48 2.44-.71a.9.9 0 01.94.24.89.89 0 01.24.94l-.71 2.44 2.48.63a.94.94 0 01.43 1.57zM640.15 89l1.85 1.76a.95.95 0 01-.44 1.58l-2.47.63.7 2.44a.89.89 0 01-.23.94.92.92 0 01-.95.24l-2.43-.71-.63 2.47a.94.94 0 01-1.58.44L632.16 97l-1.77 1.81a.89.89 0 01-.92.25.83.83 0 01-.65-.69l-.63-2.47-2.44.71a1 1 0 01-1.18-1.18l.71-2.44-2.48-.63a.89.89 0 01-.67-.65.9.9 0 01.24-.93l1.81-1.78-1.81-1.77a.94.94 0 01.43-1.57l2.48-.63-.71-2.44a1 1 0 011.18-1.18l2.44.71.63-2.48a.84.84 0 01.67-.68.83.83 0 01.9.25l1.77 1.85 1.77-1.85a.87.87 0 01.93-.23.86.86 0 01.65.66l.63 2.48 2.43-.71a.92.92 0 01.95.24.89.89 0 01.23.94l-.7 2.44 2.47.63a.87.87 0 01.67.65.86.86 0 01-.23.92zM661 83.94l1.81 1.77a.94.94 0 01-.43 1.57l-2.48.63.71 2.44a1 1 0 01-1.18 1.18l-2.43-.71-.63 2.48a.84.84 0 01-.67.68.83.83 0 01-.9-.25l-1.77-1.81-1.77 1.81a.9.9 0 01-.93.25.84.84 0 01-.65-.68l-.62-2.48-2.44.71a.92.92 0 01-.95-.24.89.89 0 01-.23-.94l.7-2.44-2.47-.63a.87.87 0 01-.67-.65.86.86 0 01.23-.92l1.81-1.77-1.81-1.77a.95.95 0 01.44-1.58l2.47-.63-.7-2.44a.89.89 0 01.23-.94.92.92 0 01.95-.24l2.44.71.62-2.47a.85.85 0 01.67-.69.87.87 0 01.91.25l1.79 1.86 1.77-1.85a.86.86 0 01.92-.23.84.84 0 01.65.67l.63 2.47 2.44-.71a1 1 0 011.18 1.18l-.71 2.47 2.48.63a.89.89 0 01.67.65.9.9 0 01-.24.93zM635.67 110.31l1.81 1.77a.88.88 0 01.24.92.87.87 0 01-.67.65l-2.48.63.71 2.44a1 1 0 01-1.18 1.18l-2.44-.71-.63 2.48a.84.84 0 01-.67.69.86.86 0 01-.9-.26l-1.77-1.81-1.77 1.81a.92.92 0 01-.93.26.82.82 0 01-.64-.69l-.63-2.48-2.44.71a.91.91 0 01-.95-.24.88.88 0 01-.23-.94l.71-2.44-2.48-.63a.86.86 0 01-.67-.65.85.85 0 01.24-.92l1.8-1.77-1.8-1.77a.86.86 0 01-.24-.93.85.85 0 01.67-.64l2.48-.63-.71-2.44a.94.94 0 011.18-1.18l2.44.71.63-2.48a.83.83 0 01.66-.69.85.85 0 01.91.26l1.77 1.84 1.77-1.84a.85.85 0 01.92-.24.86.86 0 01.65.67l.63 2.48 2.44-.71a.88.88 0 01.94.23.91.91 0 01.24 1l-.71 2.44 2.48.63a.86.86 0 01.67.64.89.89 0 01-.24.93z"/><text class="e2e40ccb-ab67-4786-a914-87a9e980ef2b" transform="translate(593.97 136.97)"><tspan class="b69be339-999d-4bec-95e3-a2f37eb75991">T</tspan><tspan x="9.05" y="0">rust bundle:</tspan><tspan x="16.56" y="19.25">foo.com</tspan></text><path class="b46e8629-77f1-466f-aaa7-310730f3300d" d="M71.78 103.18l1.81 1.82a.86.86 0 01.24.92.87.87 0 01-.67.65l-2.48.63.71 2.44a.87.87 0 01-.24.94.89.89 0 01-.94.24l-2.44-.71-.63 2.48a.84.84 0 01-.67.69.86.86 0 01-.9-.26l-1.77-1.81L62 113a.91.91 0 01-.92.26.83.83 0 01-.65-.69l-.63-2.48-2.44.71a.89.89 0 01-.94-.24.87.87 0 01-.24-.94l.71-2.44-2.48-.63a.87.87 0 01-.67-.65.86.86 0 01.26-.9l1.81-1.77-1.81-1.82a.87.87 0 01-.24-.93.86.86 0 01.67-.64l2.48-.63-.71-2.44a.94.94 0 011.18-1.18l2.44.71.63-2.48a.92.92 0 011.55-.43l1.77 1.84 1.77-1.84a.85.85 0 01.92-.24.86.86 0 01.65.67l.63 2.48 2.44-.71a.94.94 0 011.18 1.18l-.71 2.44 2.48.63a.86.86 0 01.67.64.87.87 0 01-.24.93zM55 86.45l1.81 1.77a.86.86 0 01.23.92.84.84 0 01-.67.65l-2.47.63.7 2.44a.88.88 0 01-.23.94.9.9 0 01-1 .24L51 93.33l-.63 2.48a.84.84 0 01-.67.69.87.87 0 01-.91-.26L47 94.43l-1.77 1.81a.91.91 0 01-.92.26.84.84 0 01-.65-.69l-.63-2.48-2.42.67a.89.89 0 01-.94-.24.9.9 0 01-.24-.94l.71-2.44-2.48-.63a.87.87 0 01-.67-.65.88.88 0 01.24-.92L39 86.45l-1.81-1.77a.88.88 0 01-.24-.92.86.86 0 01.67-.65l2.48-.63-.67-2.48a.93.93 0 01.24-1 .89.89 0 01.94-.23l2.44.71.63-2.48a.84.84 0 01.67-.69.83.83 0 01.9.26L47 78.5l1.77-1.84a.94.94 0 011.58.43l.65 2.48 2.43-.71A.94.94 0 0154.61 80l-.7 2.44 2.47.63a.83.83 0 01.67.65.86.86 0 01-.23.92zM75.89 81.39l1.81 1.77a.88.88 0 01.24.92.87.87 0 01-.67.65l-2.48.63.71 2.44a.89.89 0 01-.24.94.87.87 0 01-.94.24l-2.44-.71-.63 2.48a.92.92 0 01-1.57.43l-1.77-1.81-1.77 1.81a.9.9 0 01-.93.26.82.82 0 01-.64-.69l-.63-2.48-2.44.73a.94.94 0 01-1.18-1.18l.68-2.46-2.48-.63a.86.86 0 01-.67-.65.85.85 0 01.24-.92l1.8-1.77-1.8-1.77a.85.85 0 01-.24-.92.86.86 0 01.67-.65l2.48-.63-.68-2.42a.94.94 0 011.18-1.2l2.44.71.63-2.51a.83.83 0 01.66-.69.85.85 0 01.91.26l1.77 1.85 1.77-1.85a.86.86 0 01.92-.24.87.87 0 01.65.67l.63 2.48 2.44-.71a.87.87 0 01.94.24.89.89 0 01.24.94l-.71 2.44 2.48.63a.87.87 0 01.67.65.88.88 0 01-.24.92zM50.53 107.76l1.81 1.77a.9.9 0 01.24.93.89.89 0 01-.67.65l-2.48.63.71 2.43a.94.94 0 01-1.14 1.18l-2.44-.7-.63 2.47a.84.84 0 01-.67.69.86.86 0 01-.9-.25l-1.77-1.81-1.77 1.81a.91.91 0 01-.92.25.83.83 0 01-.65-.69l-.63-2.47-2.44.7a.94.94 0 01-1.18-1.18l.71-2.43-2.48-.63a.94.94 0 01-.43-1.58l1.81-1.77-1.85-1.76a.86.86 0 01-.24-.92.89.89 0 01.67-.65l2.48-.63-.67-2.45a.89.89 0 01.23-.94.93.93 0 011-.24l2.44.71.63-2.48a.92.92 0 011.48-.4l1.77 1.85L44.32 98a.88.88 0 01.92-.24.87.87 0 01.65.67l.63 2.48 2.44-.71a.9.9 0 01.94.24.87.87 0 01.24.94l-.71 2.44 2.48.63a.94.94 0 01.43 1.57z"/><text class="e2e40ccb-ab67-4786-a914-87a9e980ef2b" transform="translate(8.83 134.43)"><tspan class="b69be339-999d-4bec-95e3-a2f37eb75991">T</tspan><tspan x="9.05" y="0">rust bundle:</tspan><tspan x="17.58" y="19.25">ba</tspan><tspan class="b3a989e2-8c04-4650-82b5-369f2255f898" x="35.3" y="19.25">r</tspan><tspan x="39.41" y="19.25">.com</tspan></text><rect class="e875b52d-3643-43f8-b5cc-b27f98814743" x="424.45" y="71.31" width="141.19" height="105.04" rx="3"/><rect class="bb8411e6-5f57-404f-bfdd-fe0f531ab2ca" x="434.54" y="121.06" width="121.02" height="48.88" rx="3"/><text class="e2e40ccb-ab67-4786-a914-87a9e980ef2b" transform="translate(447.06 140.56)"><tspan class="b69be339-999d-4bec-95e3-a2f37eb75991">T</tspan><tspan x="9.05" y="0">rust Domain</tspan><tspan x="19.17" y="19.25">ba</tspan><tspan class="b3a989e2-8c04-4650-82b5-369f2255f898" x="36.89" y="19.25">r</tspan><tspan x="41" y="19.25">.com</tspan></text><path class="b46e8629-77f1-466f-aaa7-310730f3300d" d="M504.68 92.18a5.75 5.75 0 015.77 5.82v1.93a1.95 1.95 0 01-1.92 1.92h-27a1.88 1.88 0 01-1.36-.57 1.85 1.85 0 01-.57-1.35V98a5.77 5.77 0 015.78-5.78h4a1.71 1.71 0 001.24-.51 1.68 1.68 0 00.51-1.23v-.06a13.08 13.08 0 00-1.32-5.42 5.55 5.55 0 01-.54-2.41 5.65 5.65 0 01.93-3.16 5.92 5.92 0 012.53-2.13 5.46 5.46 0 013.34-.39 5.74 5.74 0 013 1.62 6 6 0 011.66 3 5.57 5.57 0 01-.61 3.61 10.63 10.63 0 00-1.26 4.7v.6a1.74 1.74 0 001.74 1.74zm-23.11 15.41v-3.85h27v3.85z"/><text class="b43cc7da-0f57-4d1d-932e-d16be8d80615" transform="translate(424.45 67.87)">Ce<tspan class="b2c6ae1c-0e8d-421f-bb70-a4795f4c10cc" x="13.52" y="0">r</tspan><tspan x="17.68" y="0">tificate authority</tspan></text><rect class="aed474d5-fbf5-44e0-b247-5e8ba3b1b8a6" x="454.21" y="245.78" width="226.41" height="82.48" rx="3"/><rect class="bb8411e6-5f57-404f-bfdd-fe0f531ab2ca" x="464.12" y="256.09" width="61.86" height="61.86" rx="3"/><path class="e3d80bc0-a232-4d65-9acf-72698566be18" d="M510.24 295.78v-17.53l-15.19-8.76-15.19 8.76v17.53l15.19 8.77 15.19-8.77z"/><rect class="bb8411e6-5f57-404f-bfdd-fe0f531ab2ca" x="536.29" y="256.09" width="134.03" height="61.86" rx="3"/><text class="e2e40ccb-ab67-4786-a914-87a9e980ef2b" transform="translate(603.58 282.08)">Se<tspan x="18.01" y="0" letter-spacing=".01em">r</tspan><tspan x="23.58" y="0">vice</tspan><tspan x="-9.86" y="19.25">B.ba</tspan><tspan class="b3a989e2-8c04-4650-82b5-369f2255f898" x="22.06" y="19.25">r</tspan><tspan x="26.17" y="19.25">.com</tspan></text><circle class="be01af08-580e-4309-8644-049ddf8066e2" cx="567.22" cy="287.02" r="20.62"/><path class="a09a4496-1590-4bfa-838a-c39a3a2da124" d="M559.89 279.56h14.65v14.65h-14.65z"/><path class="b78b32d5-9fed-40da-859c-78268adbe406" d="M562.6 279.56v-3.53M567.22 279.56v-3.53M571.83 279.56v-3.53M562.6 298.01v-3.53M567.22 298.01v-3.53M571.83 298.01v-3.53M559.76 291.63h-3.53M559.76 287.02h-3.53M559.76 282.41h-3.53M578.2 291.63h-3.52M578.2 287.02h-3.52M578.2 282.41h-3.52"/><rect class="bb8411e6-5f57-404f-bfdd-fe0f531ab2ca" x="563.96" y="283.63" width="6.51" height="6.51" rx="2"/><rect class="aed474d5-fbf5-44e0-b247-5e8ba3b1b8a6" x="27.74" y="245.78" width="226.41" height="82.48" rx="3"/><rect class="bb8411e6-5f57-404f-bfdd-fe0f531ab2ca" x="37.64" y="256.09" width="134.03" height="61.86" rx="3"/><path d="M109.62 277a7.06 7.06 0 01-2.81-1.36 2.62 2.62 0 01-.88-2 2.76 2.76 0 011.07-2.22 4.27 4.27 0 012.8-.89 4.73 4.73 0 012.1.46 3.4 3.4 0 011.42 1.25 3.19 3.19 0 01.51 1.75h-1.51a2.07 2.07 0 00-.66-1.63 2.67 2.67 0 00-1.86-.6 2.76 2.76 0 00-1.73.49 1.64 1.64 0 00-.62 1.37 1.46 1.46 0 00.59 1.18 5.82 5.82 0 002 .88 9.36 9.36 0 012.22.88 3.32 3.32 0 011.19 1.12 2.89 2.89 0 01.39 1.52 2.67 2.67 0 01-1.08 2.22 4.64 4.64 0 01-2.89.83 5.36 5.36 0 01-2.19-.45 3.7 3.7 0 01-1.57-1.23 3 3 0 01-.55-1.78h1.51a2 2 0 00.76 1.63 3.22 3.22 0 002 .6 2.93 2.93 0 001.83-.49 1.57 1.57 0 00.63-1.32 1.53 1.53 0 00-.59-1.29 6.67 6.67 0 00-2.08-.92zM119.07 282.24a3.73 3.73 0 01-2.81-1.13 4.21 4.21 0 01-1.08-3v-.26a5.11 5.11 0 01.48-2.26A3.85 3.85 0 01117 274a3.42 3.42 0 011.88-.56 3.21 3.21 0 012.57 1.09 4.74 4.74 0 01.91 3.12v.6h-5.74a3.06 3.06 0 00.73 2 2.32 2.32 0 001.79.77 2.53 2.53 0 001.3-.32 3.16 3.16 0 00.93-.83l.88.69a3.55 3.55 0 01-3.18 1.68zm-.18-7.6a2 2 0 00-1.48.64 3.13 3.13 0 00-.73 1.79h4.24V277a2.8 2.8 0 00-.59-1.71 1.85 1.85 0 00-1.44-.65zM128.14 274.91a4 4 0 00-.71-.05 1.9 1.9 0 00-1.93 1.21v6h-1.45v-8.47h1.41v1a2.26 2.26 0 012-1.14 1.5 1.5 0 01.64.11zM132.41 280.12l2.1-6.51H136l-3 8.47h-1.1l-3.07-8.47h1.48zM137.39 271.36a.83.83 0 01.22-.59.8.8 0 01.63-.25.84.84 0 01.65.25.88.88 0 01.22.59.86.86 0 01-.22.59.83.83 0 01-.65.23.79.79 0 01-.63-.23.82.82 0 01-.22-.59zm1.61 10.72h-1.45v-8.47H139zM144.67 281.06a2.12 2.12 0 001.36-.47 1.69 1.69 0 00.64-1.18H148a2.65 2.65 0 01-.5 1.39 3.32 3.32 0 01-1.23 1.05 3.6 3.6 0 01-1.64.39 3.52 3.52 0 01-2.75-1.15 4.64 4.64 0 01-1-3.16v-.25a5.15 5.15 0 01.45-2.2 3.46 3.46 0 011.31-1.49 3.64 3.64 0 012-.54 3.36 3.36 0 012.36.86 3 3 0 011 2.21h-1.37a2 2 0 00-.62-1.35 2 2 0 00-1.38-.53 2.05 2.05 0 00-1.72.8 3.75 3.75 0 00-.6 2.3v.26a3.69 3.69 0 00.6 2.26 2.06 2.06 0 001.76.8zM153.19 282.24a3.73 3.73 0 01-2.81-1.13 4.21 4.21 0 01-1.08-3v-.26a5.11 5.11 0 01.48-2.26 3.78 3.78 0 011.35-1.55 3.42 3.42 0 011.88-.56 3.17 3.17 0 012.56 1.09 4.68 4.68 0 01.92 3.12v.6h-5.74a3.06 3.06 0 00.73 2 2.32 2.32 0 001.78.77 2.48 2.48 0 001.3-.32 3.08 3.08 0 00.94-.83l.88.69a3.55 3.55 0 01-3.19 1.64zm-.18-7.6a2 2 0 00-1.48.64 3.13 3.13 0 00-.73 1.79h4.2V277a2.8 2.8 0 00-.59-1.71 1.85 1.85 0 00-1.41-.65zM101.44 298.35h-4.77l-1.08 3H94l4.36-11.4h1.31l4.37 11.4h-1.55zm-4.32-1.23H101l-1.94-5.34zM105.41 300.57a.92.92 0 01.23-.63.87.87 0 01.67-.25.84.84 0 01.91.88.81.81 0 01-.24.6.89.89 0 01-.67.24.87.87 0 01-.67-.24.85.85 0 01-.23-.6zM110.32 301.33V294H109v-1.11h1.34V292a2.92 2.92 0 01.72-2.11 2.75 2.75 0 012.06-.74 3.76 3.76 0 011 .13l-.08 1.17a4 4 0 00-.78-.07 1.39 1.39 0 00-1.09.41 1.64 1.64 0 00-.38 1.18v.9h1.8V294h-1.8v7.36zM114.79 297a5 5 0 01.49-2.24 3.62 3.62 0 011.36-1.53 3.71 3.71 0 012-.54 3.56 3.56 0 012.8 1.2 4.57 4.57 0 011.07 3.18v.11a5.16 5.16 0 01-.47 2.22 3.67 3.67 0 01-1.36 1.53 3.77 3.77 0 01-2 .54 3.54 3.54 0 01-2.79-1.19 4.56 4.56 0 01-1.07-3.17zm1.45.18a3.59 3.59 0 00.66 2.26 2.22 2.22 0 003.5 0 3.94 3.94 0 00.65-2.43 3.63 3.63 0 00-.66-2.26 2.12 2.12 0 00-1.76-.86 2.08 2.08 0 00-1.73.85 4 4 0 00-.66 2.45zM123.93 297a5.11 5.11 0 01.49-2.24 3.64 3.64 0 011.37-1.53 3.69 3.69 0 012-.54 3.57 3.57 0 012.8 1.2 4.62 4.62 0 011.07 3.18v.11a5 5 0 01-.48 2.22 3.59 3.59 0 01-1.35 1.53 3.8 3.8 0 01-2 .54 3.57 3.57 0 01-2.79-1.19 4.61 4.61 0 01-1.07-3.17zm1.46.18a3.65 3.65 0 00.65 2.26 2.23 2.23 0 003.51 0 4 4 0 00.65-2.43 3.63 3.63 0 00-.66-2.26 2.12 2.12 0 00-1.76-.86 2.07 2.07 0 00-1.73.85 4 4 0 00-.66 2.45zM133.5 300.57a.91.91 0 01.22-.63.87.87 0 01.67-.25.83.83 0 01.91.88.85.85 0 01-.23.6.91.91 0 01-.68.24.87.87 0 01-.67-.24.84.84 0 01-.22-.6zM141.08 300.3a2.07 2.07 0 001.36-.47 1.65 1.65 0 00.64-1.17h1.37A2.61 2.61 0 01144 300a3.32 3.32 0 01-1.23 1 3.6 3.6 0 01-1.64.39 3.48 3.48 0 01-2.75-1.15 4.6 4.6 0 01-1-3.16v-.24a5.12 5.12 0 01.45-2.2 3.55 3.55 0 011.31-1.5 3.72 3.72 0 012-.53 3.37 3.37 0 012.36.85 3.05 3.05 0 011 2.22h-1.37a2 2 0 00-.62-1.35 2 2 0 00-1.38-.53 2 2 0 00-1.72.79 3.78 3.78 0 00-.6 2.3v.28a3.67 3.67 0 00.6 2.25 2 2 0 001.67.88zM145.7 297a5 5 0 01.49-2.24 3.62 3.62 0 011.36-1.53 3.69 3.69 0 012-.54 3.57 3.57 0 012.8 1.2 4.62 4.62 0 011.07 3.18v.11a5.16 5.16 0 01-.47 2.22 3.67 3.67 0 01-1.36 1.53 3.79 3.79 0 01-2 .54 3.58 3.58 0 01-2.8-1.19 4.6 4.6 0 01-1.06-3.17zm1.45.18a3.59 3.59 0 00.66 2.26 2.22 2.22 0 003.5 0A4 4 0 00152 297a3.63 3.63 0 00-.66-2.26 2.12 2.12 0 00-1.76-.86 2.08 2.08 0 00-1.73.85 4 4 0 00-.7 2.46zM156.59 292.86v.94a3.1 3.1 0 012.51-1.1 2.42 2.42 0 012.42 1.36 3.12 3.12 0 012.7-1.36c1.86 0 2.81 1 2.84 2.95v5.68h-1.45v-5.59a1.93 1.93 0 00-.42-1.36 1.81 1.81 0 00-1.39-.45 1.93 1.93 0 00-1.34.48 2 2 0 00-.62 1.3v5.62h-1.45v-5.55a1.62 1.62 0 00-1.81-1.85 1.93 1.93 0 00-2 1.21v6.19h-1.45v-8.47z"/><circle class="be01af08-580e-4309-8644-049ddf8066e2" cx="68.57" cy="287.02" r="20.62"/><path class="a09a4496-1590-4bfa-838a-c39a3a2da124" d="M61.25 279.56H75.9v14.65H61.25z"/><path class="b78b32d5-9fed-40da-859c-78268adbe406" d="M63.96 279.56v-3.53M68.57 279.56v-3.53M73.19 279.56v-3.53M63.96 298.01v-3.53M68.57 298.01v-3.53M73.19 298.01v-3.53M61.11 291.63h-3.52M61.11 287.02h-3.52M61.11 282.41h-3.52M79.56 291.63h-3.52M79.56 287.02h-3.52M79.56 282.41h-3.52"/><rect class="bb8411e6-5f57-404f-bfdd-fe0f531ab2ca" x="65.32" y="283.63" width="6.51" height="6.51" rx="2"/><rect class="bb8411e6-5f57-404f-bfdd-fe0f531ab2ca" x="181.98" y="256.09" width="61.86" height="61.86" rx="3"/><path class="e3d80bc0-a232-4d65-9acf-72698566be18" d="M228.1 295.78v-17.53l-15.19-8.76-15.19 8.76v17.53l15.19 8.77 15.19-8.77z"/><path stroke-width="4" stroke="#090" stroke-miterlimit="10" fill="none" d="M251.02 287.18h205.92"/><path class="a816720e-d5ee-45bf-a6bd-55e51341423e" d="M252.48 292.17l-8.64-4.99 8.64-4.99v9.98zM455.48 292.17l8.64-4.99-8.64-4.99v9.98zM362.76 257a2.7 2.7 0 012.7 2.7v10.83a2.7 2.7 0 01-2.7 2.71H342.9a2.7 2.7 0 01-2.7-2.71v-10.8a2.7 2.7 0 012.7-2.7h1.36V253a8.34 8.34 0 011.15-4.29 8.62 8.62 0 013.13-3.13 8.51 8.51 0 018.58 0 8.62 8.62 0 013.13 3.13 8.34 8.34 0 011.15 4.29v4zm-5.87 0v-4a4.06 4.06 0 10-8.12 0v4z"/><rect class="e875b52d-3643-43f8-b5cc-b27f98814743" x="142.32" y="71.31" width="141.19" height="105.04" rx="3"/><rect class="bb8411e6-5f57-404f-bfdd-fe0f531ab2ca" x="152.4" y="121.06" width="121.02" height="48.88" rx="3"/><text class="e2e40ccb-ab67-4786-a914-87a9e980ef2b" transform="translate(164.92 140.56)"><tspan class="b69be339-999d-4bec-95e3-a2f37eb75991">T</tspan><tspan x="9.05" y="0">rust Domain</tspan><tspan x="18.15" y="19.25">foo.com</tspan></text><path class="b46e8629-77f1-466f-aaa7-310730f3300d" d="M222.54 92.18a5.77 5.77 0 015.78 5.82v1.93a1.85 1.85 0 01-.57 1.35 1.88 1.88 0 01-1.36.57h-27a1.95 1.95 0 01-1.92-1.92V98a5.75 5.75 0 015.77-5.78h4a1.74 1.74 0 001.75-1.74v-.06a13.21 13.21 0 00-1.31-5.42 5.42 5.42 0 01-.55-2.41 5.66 5.66 0 01.94-3.16 5.83 5.83 0 012.52-2.13 5.47 5.47 0 013.34-.39 5.7 5.7 0 013 1.62 5.87 5.87 0 011.66 3 5.63 5.63 0 01-.6 3.61 10.52 10.52 0 00-1.27 4.7v.6a1.68 1.68 0 00.51 1.23 1.71 1.71 0 001.24.51zm-23.11 15.41v-3.85h27v3.85z"/><text class="b43cc7da-0f57-4d1d-932e-d16be8d80615" transform="translate(142.32 67.87)">Ce<tspan class="b2c6ae1c-0e8d-421f-bb70-a4795f4c10cc" x="13.52" y="0">r</tspan><tspan x="17.68" y="0">tificate authority</tspan></text><path class="f15d73bc-df55-44fe-9939-89cb9d18bed0" d="M212.91 176.34v72.57"/><path class="b4c24b18-c17d-458a-b069-40504eb78b92" d="M207.93 247.45l4.98 8.64 4.99-8.64h-9.97z"/><path class="f15d73bc-df55-44fe-9939-89cb9d18bed0" d="M495.05 176.34v72.57"/><path class="b4c24b18-c17d-458a-b069-40504eb78b92" d="M490.06 247.45l4.99 8.64 4.98-8.64h-9.97z"/></g></svg>