<svg xmlns="http://www.w3.org/2000/svg" xmlns:xlink="http://www.w3.org/1999/xlink" width="809.548" height="1183.053"><text font-size="36" style="-inkscape-font-specification:'Google Sans Display, Normal';font-variant-ligatures:normal;font-variant-caps:normal;font-variant-numeric:normal;font-feature-settings:normal;text-align:start" x="136.842" y="27.352" font-weight="400" font-family="Google Sans Display"><tspan x="136.842" y="27.352">Istio Diagram Creation Guidelines</tspan></text><path d="M485.028 196.853h-66c-1.65 0-3-1.35-3-3v-66c0-1.65 1.35-3 3-3h66c1.65 0 3 1.35 3 3v66c0 1.65-1.35 3-3 3zM709.388 196.853h-202.86c-1.65 0-3-1.35-3-3v-66c0-1.65 1.35-3 3-3h202.86c1.65 0 3 1.35 3 3v66c0 1.65-1.35 3-3 3zM144.038 592.853h-128.9c-1.65 0-3-1.35-3-3v-66c0-1.65 1.35-3 3-3h128.9c1.65 0 3 1.35 3 3v66c0 1.65-1.35 3-3 3z" fill="#e5e5e4"/><path d="M135.088 583.853h-111c-1.65 0-3-1.35-3-3v-48c0-1.65 1.35-3 3-3h111c1.65 0 3 1.35 3 3v48c0 1.65-1.35 3-3 3z" fill="#fff"/><text transform="translate(56.599 561.692)" font-size="14" font-family="GoogleSansDisplay-Regular">Service</text><path d="M305.658 592.853h-128.9c-1.65 0-3-1.35-3-3v-66c0-1.65 1.35-3 3-3h128.9c1.65 0 3 1.35 3 3v66c0 1.65-1.35 3-3 3z" fill="#e5e5e4"/><path d="M296.708 583.853h-111c-1.65 0-3-1.35-3-3v-48c0-1.65 1.35-3 3-3h111c1.65 0 3 1.35 3 3v48c0 1.65-1.35 3-3 3z" fill="#fff"/><text transform="translate(240.04 561.088)" font-size="14" font-family="GoogleSansDisplay-Regular">Service</text><g transform="translate(-6.972 -14.567)"><circle cx="216.68" cy="571.42" r="18" fill="#767576"/><path stroke-miterlimit="10" fill="none" stroke="#fff" stroke-width="2" stroke-linejoin="round" d="M210.29 564.91h12.79v12.79h-12.79z"/><g stroke-miterlimit="10" fill="none" stroke="#fff" stroke-width="2" stroke-linecap="round"><path d="M212.65 564.91v-3.08M216.68 564.91v-3.08M220.71 564.91v-3.08"/></g><g stroke-miterlimit="10" fill="none" stroke="#fff" stroke-width="2" stroke-linecap="round"><path d="M212.65 581.01v-3.08M216.68 581.01v-3.08M220.71 581.01v-3.08"/></g><g stroke-miterlimit="10" fill="none" stroke="#fff" stroke-width="2" stroke-linecap="round"><path d="M210.17 575.45h-3.08M210.17 571.42h-3.08M210.17 567.39h-3.08"/></g><g stroke-miterlimit="10" fill="none" stroke="#fff" stroke-width="2" stroke-linecap="round"><path d="M226.27 575.45h-3.08M226.27 571.42h-3.08M226.27 567.39h-3.08"/></g><path d="M217.52 574.14h-1.68c-1.1 0-2-.9-2-2v-1.68c0-1.1.9-2 2-2h1.68c1.1 0 2 .9 2 2v1.68c0 1.1-.9 2-2 2z" fill="#fff"/></g><path d="M695.648 187.853h-111c-1.65 0-3-1.35-3-3v-48c0-1.65 1.35-3 3-3h111c1.65 0 3 1.35 3 3v48c0 1.65-1.35 3-3 3z" fill="#fff"/><text transform="translate(639.62 165.692)" font-size="14" font-family="GoogleSansDisplay-Regular">Service</text><g transform="translate(-6.972 -14.567)"><circle cx="615.08" cy="175.42" r="18" fill="#767576"/><path stroke-miterlimit="10" fill="none" stroke="#fff" stroke-width="2" stroke-linejoin="round" d="M608.68 168.91h12.79v12.79h-12.79z"/><g stroke-miterlimit="10" fill="none" stroke="#fff" stroke-width="2" stroke-linecap="round"><path d="M611.05 168.91v-3.08M615.08 168.91v-3.08M619.1 168.91v-3.08"/></g><g stroke-miterlimit="10" fill="none" stroke="#fff" stroke-width="2" stroke-linecap="round"><path d="M611.05 185.01v-3.08M615.08 185.01v-3.08M619.1 185.01v-3.08"/></g><g stroke-miterlimit="10" fill="none" stroke="#fff" stroke-width="2" stroke-linecap="round"><path d="M608.57 179.45h-3.08M608.57 175.42h-3.08M608.57 171.39h-3.08"/></g><g stroke-miterlimit="10" fill="none" stroke="#fff" stroke-width="2" stroke-linecap="round"><path d="M624.67 179.45h-3.08M624.67 175.42h-3.08M624.67 171.39h-3.08"/></g><path d="M615.92 178.14h-1.68c-1.1 0-2-.9-2-2v-1.68c0-1.1.9-2 2-2h1.68c1.1 0 2 .9 2 2v1.68c0 1.1-.9 2-2 2z" fill="#fff"/></g><path fill="none" d="M11.028 331.853h333v35.2h-333z"/><text x="11.028" y="341.876" style="-inkscape-font-specification:'Google Sans Display, Normal';font-variant-ligatures:normal;font-variant-caps:normal;font-variant-numeric:normal;font-feature-settings:normal;text-align:start" font-weight="400" font-size="13.333" font-family="Google Sans Display"><tspan x="11.028" y="341.876">Use a gray rectangle with rounded corners to represent </tspan><tspan x="11.028" y="358.543">a VM or pod place a label on the top left corner.</tspan></text><path fill="none" d="M12.138 465.603h313.89v64.25H12.138z"/><text x="12.137" y="475.63" style="-inkscape-font-specification:'Google Sans Display, Normal';font-variant-ligatures:normal;font-variant-caps:normal;font-variant-numeric:normal;font-feature-settings:normal;text-align:start" font-weight="400" font-size="13.333" font-family="Google Sans Display"><tspan x="12.137" y="475.63">Use a white rectangle with round corners to represent a service. </tspan><tspan x="12.137" y="492.297">Include the compute icon to represent specific workloads.</tspan></text><path fill="none" d="M416.028 50.463h313.89v64.25h-313.89z"/><text x="416.029" y="60.487" style="-inkscape-font-specification:'Google Sans Display, Normal';font-variant-ligatures:normal;font-variant-caps:normal;font-variant-numeric:normal;font-feature-settings:normal;text-align:start" font-weight="400" font-size="13.333" font-family="Google Sans Display"><tspan x="416.029" y="60.487">Add the Envoy logo on a white rectangle with round corners to </tspan><tspan x="416.029" y="77.154">represent an Envoy proxy. Combine the visual cues as needed to </tspan><tspan x="416.029" y="93.821">represent the appropriate level of detail.</tspan></text><path fill="none" d="M416.028 372.433h333v64.25h-333z"/><text x="416.028" y="382.457" style="-inkscape-font-specification:'Google Sans Display, Normal';text-align:start;font-variant-ligatures:normal;font-variant-caps:normal;font-variant-numeric:normal;font-feature-settings:normal" font-family="Google Sans Display" font-weight="400" font-size="13.333" writing-mode="lr"><tspan x="416.028" y="382.457" style="-inkscape-font-specification:'Google Sans Display, Normal';text-align:start;font-variant-ligatures:normal;font-variant-caps:normal;font-variant-numeric:normal;font-feature-settings:normal" fill="#231f20">Represent configuration objects as services with </tspan><tspan x="416.028" y="399.257" style="-inkscape-font-specification:'Google Sans Display, Normal';text-align:start;font-variant-ligatures:normal;font-variant-caps:normal;font-variant-numeric:normal;font-feature-settings:normal" fill="#231f20">their own backends and Envoy proxies. Add the Istio </tspan><tspan x="416.028" y="416.057" style="-inkscape-font-specification:'Google Sans Display, Normal';text-align:start;font-variant-ligatures:normal;font-variant-caps:normal;font-variant-numeric:normal;font-feature-settings:normal" fill="#231f20">logo to distinguish them.</tspan></text><path fill="none" d="M416.028 515.183h198v19.25h-198z"/><text font-size="13.333" style="-inkscape-font-specification:'Google Sans Display, Normal';text-align:start;font-variant-ligatures:normal;font-variant-caps:normal;font-variant-numeric:normal;font-feature-settings:normal" x="416.028" y="525.211" font-family="Google Sans Display" fill="#231f20" font-weight="400" writing-mode="lr">Use the following RGB values:</text><path fill="none" d="M11.028 617.463h333v18h-333z"/><text font-size="13.333" style="-inkscape-font-specification:'Google Sans Display, Normal';text-align:start;font-variant-ligatures:normal;font-variant-caps:normal;font-variant-numeric:normal;font-feature-settings:normal" x="11.029" y="627.487" font-family="Google Sans Display" fill="#231f20" font-weight="400" writing-mode="lr">Use the FontAwesome icons whenever possible.</text><path fill="none" d="M11.028 779.463h333v36h-333z"/><text x="11.029" y="789.487" style="-inkscape-font-specification:'Google Sans Display, Normal';text-align:start;font-variant-ligatures:normal;font-variant-caps:normal;font-variant-numeric:normal;font-feature-settings:normal" font-family="Google Sans Display" font-weight="400" font-size="13.333" writing-mode="lr"><tspan x="11.029" y="789.487" style="-inkscape-font-specification:'Google Sans Display, Normal';text-align:start;font-variant-ligatures:normal;font-variant-caps:normal;font-variant-numeric:normal;font-feature-settings:normal" fill="#231f20">Use official logos only with permission and with the </tspan><tspan x="11.029" y="806.287" style="-inkscape-font-specification:'Google Sans Display, Normal';text-align:start;font-variant-ligatures:normal;font-variant-caps:normal;font-variant-numeric:normal;font-feature-settings:normal" fill="#231f20">appropriate legal disclaimer.</tspan></text><path fill="none" d="M11.028 896.463h369v27h-369z"/><text font-size="13.333" style="-inkscape-font-specification:'Google Sans Display, Normal';text-align:start;font-variant-ligatures:normal;font-variant-caps:normal;font-variant-numeric:normal;font-feature-settings:normal" x="11.029" y="908.635" font-family="Google Sans Display" fill="#231f20" font-weight="400" writing-mode="lr">Example: Configurable traffic routing rules</text><path fill="none" d="M83.028 824.463h261v63h-261z"/><text x="83.028" y="831.623"><tspan x="83.028" y="831.623" font-size="10" font-family="GoogleSansDisplay-Regular" fill="#231f20">* All product names, logos, and brands are property of </tspan><tspan x="83.028" y="843.623" font-size="10" font-family="GoogleSansDisplay-Regular" fill="#231f20">their respective owners. All company, product and service </tspan><tspan x="83.028" y="855.623" font-size="10" font-family="GoogleSansDisplay-Regular" fill="#231f20">names used in this website are for identification purposes </tspan><tspan x="83.028" y="867.623" font-size="10" font-family="GoogleSansDisplay-Regular" fill="#231f20">only. Use of these names, logos, and brands does not </tspan><tspan x="83.028" y="879.623" font-size="10" font-family="GoogleSansDisplay-Regular" fill="#231f20">imply endorsement.</tspan></text><path fill="none" d="M389.028 615.433h333v81h-333z"/><text x="389.029" y="625.457" style="-inkscape-font-specification:'Google Sans Display, Normal';text-align:start;font-variant-ligatures:normal;font-variant-caps:normal;font-variant-numeric:normal;font-feature-settings:normal" font-family="Google Sans Display" font-weight="400" font-size="13.333" writing-mode="lr"><tspan x="389.029" y="625.457" style="-inkscape-font-specification:'Google Sans Display, Normal';text-align:start;font-variant-ligatures:normal;font-variant-caps:normal;font-variant-numeric:normal;font-feature-settings:normal" fill="#231f20">Use lines to connect the components.</tspan><tspan x="389.029" y="642.257" style="-inkscape-font-specification:'Google Sans Display, Normal';text-align:start;font-variant-ligatures:normal;font-variant-caps:normal;font-variant-numeric:normal;font-feature-settings:normal" fill="#231f20">Avoid crossing lines. </tspan><tspan x="389.029" y="659.057" style="-inkscape-font-specification:'Google Sans Display, Normal';text-align:start;font-variant-ligatures:normal;font-variant-caps:normal;font-variant-numeric:normal;font-feature-settings:normal" fill="#231f20">Add arrows to determine direction. </tspan><tspan x="389.029" y="675.857" style="-inkscape-font-specification:'Google Sans Display, Normal';text-align:start;font-variant-ligatures:normal;font-variant-caps:normal;font-variant-numeric:normal;font-feature-settings:normal" fill="#231f20">Place labels below the line to avoid typography </tspan><tspan x="389.029" y="692.657" style="-inkscape-font-specification:'Google Sans Display, Normal';text-align:start;font-variant-ligatures:normal;font-variant-caps:normal;font-variant-numeric:normal;font-feature-settings:normal" fill="#231f20">issues.</tspan></text><path fill="none" d="M11.028 214.853h333v53.58h-333z"/><text x="11.028" y="224.876" style="-inkscape-font-specification:'Google Sans Display, Normal';text-align:start;font-variant-ligatures:normal;font-variant-caps:normal;font-variant-numeric:normal;font-feature-settings:normal" font-family="Google Sans Display" font-weight="400" font-size="13.333" writing-mode="lr"><tspan x="11.028" y="224.876" style="-inkscape-font-specification:'Google Sans Display, Normal';text-align:start;font-variant-ligatures:normal;font-variant-caps:normal;font-variant-numeric:normal;font-feature-settings:normal" fill="#231f20">Use a blue-dashed rectangle without filling and with </tspan><tspan x="11.028" y="241.676" style="-inkscape-font-specification:'Google Sans Display, Normal';text-align:start;font-variant-ligatures:normal;font-variant-caps:normal;font-variant-numeric:normal;font-feature-settings:normal" fill="#231f20">round corners to represent an Istio mesh. </tspan><tspan x="11.028" y="258.476" style="-inkscape-font-specification:'Google Sans Display, Normal';text-align:start;font-variant-ligatures:normal;font-variant-caps:normal;font-variant-numeric:normal;font-feature-settings:normal" fill="#231f20">Use the Istio logo or “Istio Mesh” as a label</tspan></text><path d="M143.028 452.483h-128.9c-1.65 0-3-1.35-3-3v-66c0-1.65 1.35-3 3-3h128.9c1.65 0 3 1.35 3 3v66c0 1.65-1.35 3-3 3z" fill="#e5e5e4"/><text transform="translate(11.128 376.853)" font-size="8" font-family="GoogleSansDisplay-Regular" fill="#231f20">My Backend: VM or pod</text><path d="M92.648 313.853h-71.62c-5.5 0-10-4.5-10-10v-25c0-5.5 4.5-10 10-10h71.62c5.5 0 10 4.5 10 10v25c0 5.5-4.5 10-10 10z" fill="none" stroke="#466bb0" stroke-linejoin="round" stroke-dasharray="9.8471,9.8471"/><text font-size="8" x="20.028" y="277.852" font-family="GoogleSansDisplay-Regular">Istio Mesh</text><path d="M281.648 313.853h-71.62c-5.5 0-10-4.5-10-10v-25c0-5.5 4.5-10 10-10h71.62c5.5 0 10 4.5 10 10v25c0 5.5-4.5 10-10 10z" fill="none" stroke="#466bb0" stroke-linejoin="round" stroke-dasharray="9.8471,9.8471"/><path d="M475.978 187.853h-48c-1.65 0-3-1.35-3-3v-48c0-1.65 1.35-3 3-3h48c1.65 0 3 1.35 3 3v48c0 1.65-1.35 3-3 3z" fill="#fff"/><path stroke-miterlimit="10" fill="none" stroke="#f0f" stroke-width="3" stroke-linejoin="round" d="M465.238 168.503v-15.3l-13.26-7.65-13.26 7.65v15.3l13.26 7.65z"/><path d="M567.318 187.853h-48c-1.65 0-3-1.35-3-3v-48c0-1.65 1.35-3 3-3h48c1.65 0 3 1.35 3 3v48c0 1.65-1.35 3-3 3z" fill="#fff"/><path stroke-miterlimit="10" fill="none" stroke="#f0f" stroke-width="3" stroke-linejoin="round" d="M556.578 168.503v-15.3l-13.26-7.65-13.26 7.65v15.3l13.26 7.65z"/><text transform="translate(392.146 843.84)" font-size="8" font-family="GoogleSansDisplay-Regular">Bidirectional monitoring traffic</text><path fill="none" stroke="#fbb040" stroke-width="4" stroke-linecap="round" stroke-linejoin="round" d="M393.598 828.313h.5"/><path fill="none" stroke="#fbb040" stroke-width="4" stroke-linecap="round" stroke-linejoin="round" stroke-dasharray=".9818,5.891" d="M399.988 828.313h107.02"/><path fill="none" stroke="#fbb040" stroke-width="4" stroke-linecap="round" stroke-linejoin="round" d="M509.958 828.313h.5"/><path fill="#fbb040" d="M401.568 835.093l-6.79-6.78 6.79-6.78h-5.76l-6.78 6.78 6.78 6.78zM502.488 835.093l6.79-6.78-6.79-6.78h5.76l6.78 6.78-6.78 6.78z"/><text transform="translate(392.146 786.433)" font-size="8" font-family="GoogleSansDisplay-Regular">Data plane traffic</text><path fill="none" stroke="#009345" stroke-width="4" stroke-linecap="round" stroke-linejoin="round" d="M389.028 774.903h121.43"/><path fill="#009345" d="M502.488 781.693l6.79-6.79-6.79-6.78h5.76l6.78 6.78-6.78 6.79z"/><text transform="translate(392.146 741.433)" font-size="8" font-family="GoogleSansDisplay-Regular">Control plane traffic or configuration</text><g fill="none" stroke="#486baf" stroke-width="4" stroke-linecap="round" stroke-linejoin="round"><path d="M389.028 730.903h3"/><path stroke-dasharray="6,12" d="M404.028 730.903h102"/><path d="M512.028 730.903h3"/></g><g><path fill="none" d="M11.028 52.853h333v97.37h-333z"/><text transform="translate(11.028 62.876)"><tspan x="0" y="0" font-size="14" font-family="GoogleSansDisplay-Regular" fill="#231f20">Represent Istio components as services in their own </tspan><tspan x="0" y="16.8" font-size="14" font-family="GoogleSansDisplay-Regular" fill="#231f20">backend. Label them accordingly: Pilot, Galley, Mixer, </tspan><tspan x="0" y="33.6" font-size="14" font-family="GoogleSansDisplay-Regular" fill="#231f20">or Citadel. Add the Istio logo and labels to distinguish </tspan><tspan x="0" y="50.4" font-size="14" font-family="GoogleSansDisplay-Regular" fill="#231f20">them from other services.</tspan></text><g><path d="M142.928 196.853h-128.9c-1.65 0-3-1.35-3-3v-66c0-1.65 1.35-3 3-3h128.9c1.65 0 3 1.35 3 3v66c0 1.65-1.35 3-3 3z" fill="#e5e5e4"/><g><path d="M133.978 187.853h-111c-1.65 0-3-1.35-3-3v-48c0-1.65 1.35-3 3-3h111c1.65 0 3 1.35 3 3v48c0 1.65-1.35 3-3 3z" fill="#fff"/><text transform="translate(87.34 165.692)" font-size="14" font-family="GoogleSansDisplay-Regular">Pilot</text></g><g transform="translate(-6.972 -14.567)"><defs><path id="a" d="M26.95 147.92h55v55h-55z"/></defs><clipPath id="b"><use xlink:href="#a" overflow="visible" width="100%" height="100%"/></clipPath><path clip-path="url(#b)" fill="#466bb0" d="M40.7 190.89h27.5l-17.19 5.15zM40.7 189.17l10.31-1.72v-18.91z"/><path clip-path="url(#b)" fill="#476baf" d="M52.73 187.45l15.47 1.72-15.47-34.38z"/></g></g><g><path d="M295.928 196.853h-128.9c-1.65 0-3-1.35-3-3v-66c0-1.65 1.35-3 3-3h128.9c1.65 0 3 1.35 3 3v66c0 1.65-1.35 3-3 3z" fill="#e5e5e4"/><g><path d="M286.978 187.853h-111c-1.65 0-3-1.35-3-3v-48c0-1.65 1.35-3 3-3h111c1.65 0 3 1.35 3 3v48c0 1.65-1.35 3-3 3z" fill="#fff"/><text transform="translate(236.566 165.692)" font-size="14" font-family="GoogleSansDisplay-Regular">Mixer</text></g><g transform="translate(-6.972 -14.567)"><defs><path id="c" d="M179.95 147.92h55v55h-55z"/></defs><clipPath id="d"><use xlink:href="#c" overflow="visible" width="100%" height="100%"/></clipPath><path clip-path="url(#d)" fill="#466bb0" d="M193.7 190.89h27.5l-17.19 5.15zM193.7 189.17l10.31-1.72v-18.91z"/><path clip-path="url(#d)" fill="#476baf" d="M205.73 187.45l15.47 1.72-15.47-34.38z"/></g></g></g><text font-size="13.333" style="-inkscape-font-specification:'Google Sans Display, Normal';text-align:start;font-variant-ligatures:normal;font-variant-caps:normal;font-variant-numeric:normal;font-feature-settings:normal" x="389.029" y="716.027" font-family="Google Sans Display" fill="#231f20" font-weight="400" writing-mode="lr">Blue-dashed lines denote control traffic or configurations</text><text font-size="13.333" style="-inkscape-font-specification:'Google Sans Display, Normal';text-align:start;font-variant-ligatures:normal;font-variant-caps:normal;font-variant-numeric:normal;font-feature-settings:normal" x="389.029" y="760.027" font-family="Google Sans Display" fill="#231f20" font-weight="400" writing-mode="lr">Green-solid lines denote data plane traffic.</text><text font-size="13.333" style="-inkscape-font-specification:'Google Sans Display, Normal';text-align:start;font-variant-ligatures:normal;font-variant-caps:normal;font-variant-numeric:normal;font-feature-settings:normal" x="389.029" y="813.433" font-family="Google Sans Display" fill="#231f20" font-weight="400" writing-mode="lr">Orange-dotted lines denote monitoring or telemetry traffic.</text><text transform="translate(392.146 895.45)" font-size="8" font-family="GoogleSansDisplay-Regular">External traffic</text><path fill="none" stroke="#818181" stroke-width="4" stroke-linecap="round" stroke-linejoin="round" d="M389.028 879.923h6"/><path fill="none" stroke="#818181" stroke-width="4" stroke-linecap="round" stroke-linejoin="round" stroke-dasharray="2.1457,12.8739" d="M407.898 879.923h8.59"/><path fill="none" stroke="#818181" stroke-width="4" stroke-linecap="round" stroke-linejoin="round" stroke-dasharray="12.8739,12.8739,2.1457,12.8739" d="M422.918 879.923h75.1"/><path fill="none" stroke="#818181" stroke-width="4" stroke-linecap="round" stroke-linejoin="round" d="M504.458 879.923h6"/><path fill="#818181" d="M502.488 886.703l6.79-6.78-6.79-6.78h5.76l6.78 6.78-6.78 6.78z"/><text font-size="13.333" style="-inkscape-font-specification:'Google Sans Display, Normal';text-align:start;font-variant-ligatures:normal;font-variant-caps:normal;font-variant-numeric:normal;font-feature-settings:normal" x="389.029" y="865.044" font-family="Google Sans Display" fill="#231f20" font-weight="400" writing-mode="lr">Gray lines denote traffic outside the mesh.</text><g transform="translate(-6.972 -14.567)"><defs><path id="e" d="M207 283.42h19v19h-19z"/></defs><clipPath id="f"><use xlink:href="#e" overflow="visible" width="100%" height="100%"/></clipPath><path clip-path="url(#f)" fill="#466bb0" d="M211.75 298.26h9.5l-5.94 1.78zM211.75 297.67l3.56-.59v-6.54z"/><path clip-path="url(#f)" fill="#476baf" d="M215.91 297.08l5.34.59-5.34-11.88z"/></g><path fill="none" d="M416.028 207.053h333v34.8h-333z"/><text x="416.028" y="217.075" style="-inkscape-font-specification:'Google Sans Display, Normal';text-align:start;font-variant-ligatures:normal;font-variant-caps:normal;font-variant-numeric:normal;font-feature-settings:normal" font-family="Google Sans Display" font-weight="400" font-size="13.333" writing-mode="lr"><tspan x="416.028" y="217.075" style="-inkscape-font-specification:'Google Sans Display, Normal';text-align:start;font-variant-ligatures:normal;font-variant-caps:normal;font-variant-numeric:normal;font-feature-settings:normal" fill="#231f20">To represent multiple workloads within a backend, </tspan><tspan x="416.028" y="233.875" style="-inkscape-font-specification:'Google Sans Display, Normal';text-align:start;font-variant-ligatures:normal;font-variant-caps:normal;font-variant-numeric:normal;font-feature-settings:normal" fill="#231f20">just stack and label the representations.</tspan></text><g transform="translate(-6.972 -14.567)"><path d="M564.94 373.42H426c-1.65 0-3-1.35-3-3v-93c0-1.65 1.35-3 3-3h138.94c1.65 0 3 1.35 3 3v93c0 1.65-1.35 3-3 3z" fill="#e5e5e4"/><path d="M465.94 320.62h-33.6c-1.65 0-3-1.35-3-3v-33.6c0-1.65 1.35-3 3-3h33.6c1.65 0 3 1.35 3 3v33.6c0 1.65-1.35 3-3 3z" fill="#fff"/><path stroke-miterlimit="10" fill="none" stroke="#f0f" stroke-width="3" stroke-linejoin="round" d="M458.86 306.43v-11.22l-9.72-5.61-9.72 5.61v11.22l9.72 5.61z"/><path d="M558.34 320.62h-79.8c-1.65 0-3-1.35-3-3v-33.6c0-1.65 1.35-3 3-3h79.8c1.65 0 3 1.35 3 3v33.6c0 1.65-1.35 3-3 3z" fill="#fff"/><text transform="translate(515.303 304.369)" font-size="10.267" font-family="GoogleSansDisplay-Regular">Service 1</text><circle cx="495.34" cy="300.82" r="13.2" fill="#767576"/><path stroke-miterlimit="10" fill="none" stroke="#fff" stroke-width=".75" stroke-linejoin="round" d="M490.65 296.04h9.38v9.38h-9.38z"/><g stroke-miterlimit="10" fill="none" stroke="#fff" stroke-width=".75" stroke-linecap="round"><path d="M492.39 296.04v-2.25M495.34 296.04v-2.25M498.29 296.04v-2.25"/></g><g stroke-miterlimit="10" fill="none" stroke="#fff" stroke-width=".75" stroke-linecap="round"><path d="M492.39 307.85v-2.25M495.34 307.85v-2.25M498.29 307.85v-2.25"/></g><g stroke-miterlimit="10" fill="none" stroke="#fff" stroke-width=".75" stroke-linecap="round"><path d="M490.56 303.77h-2.25M490.56 300.82h-2.25M490.56 297.87h-2.25"/></g><g stroke-miterlimit="10" fill="none" stroke="#fff" stroke-width=".75" stroke-linecap="round"><path d="M502.37 303.77h-2.25M502.37 300.82h-2.25M502.37 297.87h-2.25"/></g><path d="M495.42 302.82h-.17c-1.1 0-2-.9-2-2v-.17c0-1.1.9-2 2-2h.17c1.1 0 2 .9 2 2v.17c0 1.1-.9 2-2 2zM465.94 366.82h-33.6c-1.65 0-3-1.35-3-3v-33.6c0-1.65 1.35-3 3-3h33.6c1.65 0 3 1.35 3 3v33.6c0 1.65-1.35 3-3 3z" fill="#fff"/><path stroke-miterlimit="10" fill="none" stroke="#f0f" stroke-width="3" stroke-linejoin="round" d="M458.86 352.63v-11.22l-9.72-5.61-9.72 5.61v11.22l9.72 5.61z"/><path d="M558.34 366.82h-79.8c-1.65 0-3-1.35-3-3v-33.6c0-1.65 1.35-3 3-3h79.8c1.65 0 3 1.35 3 3v33.6c0 1.65-1.35 3-3 3z" fill="#fff"/><text transform="translate(514.564 350.569)" font-size="10.267" font-family="GoogleSansDisplay-Regular">Service 2</text><circle cx="495.34" cy="347.02" r="13.2" fill="#767576"/><g><path stroke-miterlimit="10" fill="none" stroke="#fff" stroke-width=".75" stroke-linejoin="round" d="M490.65 342.24h9.38v9.38h-9.38z"/><g stroke-miterlimit="10" fill="none" stroke="#fff" stroke-width=".75" stroke-linecap="round"><path d="M492.39 342.24v-2.25M495.34 342.24v-2.25M498.29 342.24v-2.25"/></g><g stroke-miterlimit="10" fill="none" stroke="#fff" stroke-width=".75" stroke-linecap="round"><path d="M492.39 354.05v-2.25M495.34 354.05v-2.25M498.29 354.05v-2.25"/></g><g stroke-miterlimit="10" fill="none" stroke="#fff" stroke-width=".75" stroke-linecap="round"><path d="M490.56 349.97h-2.25M490.56 347.02h-2.25M490.56 344.07h-2.25"/></g><g stroke-miterlimit="10" fill="none" stroke="#fff" stroke-width=".75" stroke-linecap="round"><path d="M502.37 349.97h-2.25M502.37 347.02h-2.25M502.37 344.07h-2.25"/></g><path d="M495.42 349.02h-.17c-1.1 0-2-.9-2-2v-.17c0-1.1.9-2 2-2h.17c1.1 0 2 .9 2 2v.17c0 1.1-.9 2-2 2z" fill="#fff"/></g></g><path d="M520.848 505.803h-74.64c-1.65 0-3-1.35-3-3v-63.12c0-1.65 1.35-3 3-3h74.64c1.65 0 3 1.35 3 3v63.12c0 1.65-1.35 3-3 3z" fill="#e5e5e4"/><path d="M515.088 500.043h-63.12c-1.65 0-3-1.35-3-3v-11.28c0-1.65 1.35-3 3-3h63.12c1.65 0 3 1.35 3 3v11.28c0 1.65-1.35 3-3 3z" fill="#fff"/><text transform="translate(455.494 494.497)" font-size="8.96" font-family="GoogleSansDisplay-Regular">Virtual service</text><path d="M497.808 477.003h-28.56c-1.65 0-3-1.35-3-3v-28.56c0-1.65 1.35-3 3-3h28.56c1.65 0 3 1.35 3 3v28.56c0 1.65-1.35 3-3 3z" fill="#fff"/><path stroke-miterlimit="10" fill="none" stroke="#f0f" stroke-width="3" stroke-linejoin="round" d="M492.018 464.613v-9.79l-8.49-4.9-8.49 4.9v9.79l8.49 4.9z"/><path fill="#486baf" d="M443.208 436.683h10.46v10.46h-10.46z"/><g fill="#fff"><path d="M445.818 444.853h5.23l-3.27.98zM445.818 444.523l1.96-.33v-3.59zM448.108 444.193l2.94.33-2.94-6.54z"/></g><path d="M620.208 505.803h-74.64c-1.65 0-3-1.35-3-3v-63.12c0-1.65 1.35-3 3-3h74.64c1.65 0 3 1.35 3 3v63.12c0 1.65-1.35 3-3 3z" fill="#e5e5e4"/><path d="M614.448 500.043h-63.12c-1.65 0-3-1.35-3-3v-11.28c0-1.65 1.35-3 3-3h63.12c1.65 0 3 1.35 3 3v11.28c0 1.65-1.35 3-3 3z" fill="#fff"/><text transform="translate(564.97 494.497)" font-size="8.96" font-family="GoogleSansDisplay-Regular">Gateway</text><path d="M597.168 477.003h-28.56c-1.65 0-3-1.35-3-3v-28.56c0-1.65 1.35-3 3-3h28.56c1.65 0 3 1.35 3 3v28.56c0 1.65-1.35 3-3 3z" fill="#fff"/><path stroke-miterlimit="10" fill="none" stroke="#f0f" stroke-width="3" stroke-linejoin="round" d="M591.378 464.613v-9.79l-8.49-4.9-8.49 4.9v9.79l8.49 4.9z"/><path fill="#486baf" d="M542.568 436.683h10.46v10.46h-10.46z"/><g fill="#fff"><path d="M545.178 444.853h5.23l-3.27.98zM545.178 444.523l1.96-.33v-3.59zM547.468 444.193l2.94.33-2.94-6.54z"/></g><path d="M718.848 505.803h-74.64c-1.65 0-3-1.35-3-3v-63.12c0-1.65 1.35-3 3-3h74.64c1.65 0 3 1.35 3 3v63.12c0 1.65-1.35 3-3 3z" fill="#e5e5e4"/><path d="M713.088 500.043h-63.12c-1.65 0-3-1.35-3-3v-11.28c0-1.65 1.35-3 3-3h63.12c1.65 0 3 1.35 3 3v11.28c0 1.65-1.35 3-3 3z" fill="#fff"/><text transform="translate(655.448 494.497)" font-size="8.96" font-family="GoogleSansDisplay-Regular">Service entry</text><path d="M695.808 477.003h-28.56c-1.65 0-3-1.35-3-3v-28.56c0-1.65 1.35-3 3-3h28.56c1.65 0 3 1.35 3 3v28.56c0 1.65-1.35 3-3 3z" fill="#fff"/><path stroke-miterlimit="10" fill="none" stroke="#f0f" stroke-width="3" stroke-linejoin="round" d="M690.018 464.613v-9.79l-8.49-4.9-8.49 4.9v9.79l8.49 4.9z"/><path fill="#486baf" d="M641.208 436.683h10.46v10.46h-10.46z"/><g fill="#fff"><path d="M643.818 444.853h5.23l-3.27.98zM643.818 444.523l1.96-.33v-3.59zM646.108 444.193l2.94.33-2.94-6.54z"/></g><text font-size="14" x="57.693" y="697.758" font-family="GoogleSansDisplay-Regular" fill="#231f20" transform="translate(-6.972 -14.567)">Certificate</text><path d="M96.676 653.432l2.15 2.11a1.11 1.11 0 0 1-.51 1.87l-3 .75.84 2.91a1.13 1.13 0 0 1-1.41 1.41l-2.9-.85-.75 3a1.11 1.11 0 0 1-1.88.51l-2.11-2.15-2.11 2.15a1.08 1.08 0 0 1-1.08.29 1 1 0 0 1-.77-.82l-.75-3-2.91.85a1.07 1.07 0 0 1-1.12-.28 1.06 1.06 0 0 1-.28-1.13l.84-2.91-3-.75a1 1 0 0 1-.8-.77 1 1 0 0 1 .28-1.1l2.24-2.09-2.16-2.11a1 1 0 0 1-.28-1.1 1 1 0 0 1 .8-.77l3-.75-.84-2.91a1.06 1.06 0 0 1 .28-1.13 1.07 1.07 0 0 1 1.07-.23l2.91.85.75-3a1.1 1.1 0 0 1 1.87-.51l2.11 2.2 2.11-2.2a1.13 1.13 0 0 1 1.88.51l.75 3 2.9-.85a1.13 1.13 0 0 1 1.41 1.41l-.84 2.91 3 .75a1.11 1.11 0 0 1 .51 1.87z" class="aed481d6-b398-47b8-9ce5-42d243fcc803" fill="#486baf"/><path d="M187.568 653.463c1.25 0 2.31.44 3.19 1.31.88.87 1.31 1.94 1.31 3.19v1.5c0 .41-.15.76-.45 1.05-.3.29-.65.45-1.05.45h-21c-.41 0-.76-.15-1.05-.45-.29-.3-.45-.65-.45-1.05v-1.5c0-1.25.44-2.31 1.31-3.19.87-.88 1.94-1.31 3.19-1.31h3.14c.38 0 .7-.13.96-.4s.4-.59.4-.96v-.05c0-1.25-.36-2.66-1.08-4.22-.28-.59-.42-1.22-.42-1.88 0-.91.24-1.73.73-2.46s1.14-1.29 1.97-1.66c.83-.37 1.7-.48 2.6-.3.9.18 1.7.59 2.37 1.27.67.68 1.1 1.46 1.29 2.37.16 1 0 1.94-.47 2.81-.66 1.31-.98 2.53-.98 3.66v.47c0 .38.13.7.4.96s.59.4.96.4h3.13zm-18 12v-3h21v3z" fill="#486baf"/><text transform="translate(146.52 683.191)"><tspan x="0" y="0" font-size="14" font-family="GoogleSansDisplay-Regular" fill="#231f20">Certificate</tspan><tspan x="4.42" y="16.8" font-size="14" font-family="GoogleSansDisplay-Regular" fill="#231f20">Authority</tspan></text><path d="M261.328 651.963h24v11.25c0 .62-.22 1.16-.66 1.59-.44.43-.97.66-1.59.66h-19.5c-.62 0-1.16-.22-1.59-.66-.43-.44-.66-.97-.66-1.59zm11.25-10.5v9h-11.2l.09-.33 2.34-7.12c.16-.47.43-.84.82-1.12.39-.28.84-.42 1.34-.42h6.61zm12.65 8.67l.05.33h-11.2v-9h6.61c.5 0 .95.14 1.34.42.39.28.66.66.82 1.12z" fill="#486baf"/><text transform="translate(242.226 683.191)" font-size="14" font-family="GoogleSansDisplay-Regular" fill="#231f20">Container</text><path d="M284.228 734.233c.22.22.33.48.33.8 0 .32-.11.58-.33.8l-1.31 1.31c-.22.22-.48.33-.8.33-.32 0-.58-.11-.8-.33l-4.69-4.69c-.22-.22-.33-.48-.33-.8v-.75c-1.75 1.38-3.75 2.06-6 2.06-1.78 0-3.41-.44-4.9-1.31a9.769 9.769 0 0 1-3.54-3.54c-.88-1.49-1.31-3.12-1.31-4.9 0-1.78.44-3.41 1.31-4.9a9.769 9.769 0 0 1 3.54-3.54c1.49-.88 3.12-1.31 4.9-1.31 1.78 0 3.41.44 4.9 1.31 1.49.87 2.66 2.05 3.54 3.54.88 1.49 1.31 3.12 1.31 4.9 0 2.25-.69 4.25-2.06 6h.75c.31 0 .58.11.8.33zm-13.92-5.02c1.09 0 2.1-.27 3.02-.8.92-.53 1.65-1.26 2.18-2.18.53-.92.8-1.93.8-3.02s-.27-2.1-.8-3.02a5.848 5.848 0 0 0-2.18-2.18c-.92-.53-1.93-.8-3.02-.8s-2.1.27-3.02.8c-.92.53-1.65 1.26-2.18 2.18-.53.92-.8 1.93-.8 3.02s.27 2.1.8 3.02c.53.92 1.26 1.65 2.18 2.18.92.53 1.93.8 3.02.8z" fill="#486baf"/><text font-size="14" transform="translate(241.628 755.19)" font-family="GoogleSansDisplay-Regular" fill="#231f20">Discovery</text><path d="M91.758 723.963c.62 0 1.16.22 1.59.66.43.44.66.97.66 1.59v9c0 .62-.22 1.16-.66 1.59-.44.43-.97.66-1.59.66h-16.5c-.62 0-1.16-.22-1.59-.66-.43-.44-.66-.97-.66-1.59v-9c0-.62.22-1.16.66-1.59.44-.43.97-.66 1.59-.66h1.12v-3.38c0-1.28.32-2.47.96-3.56a7.2 7.2 0 0 1 2.6-2.6c1.09-.64 2.28-.96 3.56-.96 1.28 0 2.47.32 3.56.96a7.2 7.2 0 0 1 2.6 2.6c.64 1.09.96 2.28.96 3.56v3.38zm-4.88 0v-3.38c0-.94-.33-1.73-.98-2.39-.65-.66-1.45-.98-2.39-.98-.94 0-1.73.33-2.39.98-.66.65-.98 1.45-.98 2.39v3.38z" fill="#486baf"/><text font-size="14" x="51.376" y="755.191" font-family="GoogleSansDisplay-Regular" fill="#231f20">Encrypted</text><path d="M189.518 724.103c1.38.28 2.52.97 3.42 2.06.9 1.09 1.36 2.36 1.36 3.8 0 1.09-.27 2.1-.8 3.02-.53.92-1.26 1.65-2.18 2.18-.92.53-1.93.8-3.02.8h-17.25c-1.22 0-2.34-.3-3.38-.91a6.825 6.825 0 0 1-2.46-2.46 6.517 6.517 0 0 1-.91-3.38c0-1.47.42-2.78 1.27-3.94.85-1.16 1.92-1.97 3.23-2.44v-.38c0-1.34.34-2.59 1.01-3.75a7.426 7.426 0 0 1 2.74-2.74 7.37 7.37 0 0 1 3.77-1.01c1.36 0 2.62.34 3.77 1.03s2.06 1.59 2.72 2.72c.75-.5 1.58-.75 2.48-.75 1.25 0 2.31.44 3.19 1.31.88.87 1.31 1.94 1.31 3.19.01.57-.08 1.12-.27 1.65z" fill="#486baf"/><text font-size="14" transform="translate(160.627 755.19)" font-family="GoogleSansDisplay-Regular" fill="#231f20">Cloud</text><path fill="none" d="M11.028 866.173h60v12h-60z"/><text transform="translate(13.244 872.856)" font-size="9.333" font-family="GoogleSansDisplay-Regular" fill="#231f20">Kurbernetes*</text><path d="M40.902 824.18c-.33.02-.65.1-.95.24l-12.9 6.16c-.68.32-1.17.93-1.33 1.66l-3.18 13.84c-.15.64-.03 1.32.33 1.88.04.07.09.13.14.19l8.93 11.1c.47.58 1.18.92 1.93.92h14.32c.75 0 1.46-.34 1.93-.92l8.92-11.1c.47-.58.64-1.34.48-2.07l-3.19-13.84c-.17-.73-.66-1.34-1.33-1.66l-12.9-6.16a2.51 2.51 0 0 0-1.2-.24z" fill="#476bb2"/><path d="M41.032 828.89c-.43 0-.77.38-.77.86v.22c.01.27.07.48.11.73.06.54.12.99.09 1.4-.03.16-.15.3-.25.4l-.02.33c-.46.04-.93.11-1.4.21-2 .46-3.73 1.49-5.04 2.88-.09-.06-.23-.17-.28-.2-.14.02-.28.06-.46-.04-.35-.23-.66-.55-1.04-.94-.17-.18-.3-.36-.51-.54l-.17-.14a.86.86 0 0 0-.54-.2.736.736 0 0 0-.62.27c-.27.33-.18.84.19 1.14l.01.01.16.13c.22.16.42.25.64.37.46.29.84.52 1.15.81.12.13.14.35.16.45l.25.22a10.023 10.023 0 0 0-1.58 6.96l-.32.09c-.09.11-.21.28-.33.33-.4.13-.84.17-1.38.23-.25.02-.47.01-.74.06-.06.01-.14.03-.21.05h-.01-.01c-.46.11-.75.53-.65.94.09.41.54.66 1 .56h.02c.06-.01.14-.03.2-.04.26-.07.46-.17.69-.27.51-.18.93-.34 1.35-.4.17-.01.35.11.44.16l.34-.06c.77 2.4 2.4 4.34 4.45 5.56l-.14.34c.05.13.11.31.07.44-.15.39-.41.8-.7 1.26-.14.21-.29.38-.41.62-.03.06-.07.15-.1.21-.2.42-.05.91.33 1.1.38.18.86-.01 1.07-.44 0 0 0 0 0 0s0 0 0 0l.1-.2c.11-.25.15-.47.22-.71.2-.51.32-1.05.6-1.39.08-.09.2-.13.33-.16l.17-.32c1.79.69 3.8.87 5.8.42.46-.1.9-.24 1.32-.4.05.09.14.25.16.3.13.04.28.07.39.24.21.36.35.78.53 1.3.08.24.11.46.22.71.02.06.07.14.1.2.21.43.68.62 1.07.44.38-.18.53-.67.33-1.1-.03-.06-.07-.15-.1-.21-.13-.24-.27-.4-.41-.62-.29-.46-.53-.84-.68-1.23-.06-.2.01-.33.06-.46-.03-.03-.09-.22-.13-.31a10.01 10.01 0 0 0 4.45-5.6c.1.02.27.05.33.06.12-.08.22-.18.43-.16.41.06.84.21 1.35.4.24.09.43.2.69.27.06.01.14.03.2.04.01 0 .01 0 .01.01h.01c.46.1.9-.15 1-.56.09-.41-.2-.83-.65-.94a2.25 2.25 0 0 0-.22-.05c-.27-.05-.49-.04-.74-.06-.54-.06-.99-.1-1.38-.23-.16-.06-.28-.26-.33-.33l-.31-.09c.16-1.17.12-2.39-.16-3.6a9.832 9.832 0 0 0-1.45-3.34c.08-.07.23-.21.27-.25.01-.14 0-.28.15-.44.3-.29.69-.52 1.15-.81.22-.13.42-.21.64-.37.05-.04.12-.09.17-.14.37-.3.46-.8.19-1.14-.27-.33-.78-.36-1.15-.07l-.17.14c-.21.18-.34.35-.51.54-.38.39-.7.71-1.04.94-.15.09-.37.06-.47.05l-.29.21a10.09 10.09 0 0 0-6.41-3.1c-.01-.1-.02-.29-.02-.34-.1-.1-.22-.18-.25-.39-.03-.42.02-.86.09-1.4.04-.25.1-.46.11-.73v-.22c-.04-.49-.39-.87-.81-.87zm-.97 5.99l-.23 4.05-.02.01a.682.682 0 0 1-1.08.52h-.01l-3.32-2.35a7.99 7.99 0 0 1 3.83-2.09c.28-.07.55-.11.83-.14zm1.93 0c1.76.22 3.38 1.01 4.63 2.23l-3.3 2.34-.01-.01c-.29.21-.71.16-.93-.13a.758.758 0 0 1-.15-.39h0zm-7.79 3.74l3.03 2.71v.02c.27.24.31.65.09.94a.62.62 0 0 1-.35.23v.01l-3.89 1.12a7.85 7.85 0 0 1 1.12-5.03zm13.63 0a8.145 8.145 0 0 1 1.16 5.02l-3.91-1.12v-.02a.682.682 0 0 1-.48-.81c.03-.15.11-.27.22-.36v-.01zm-7.43 2.92h1.24l.77.96-.28 1.2-1.12.54-1.12-.54-.28-1.2zm3.99 3.3c.05 0 .11 0 .16.01l.01-.01 4.02.68a7.955 7.955 0 0 1-3.22 4.04l-1.56-3.77v-.01c-.14-.33 0-.72.33-.88.08-.03.17-.05.26-.06zm-6.76.02c.31 0 .58.22.65.53.03.15.02.29-.04.42l.01.01-1.54 3.73a8.034 8.034 0 0 1-3.21-4.02l3.99-.68.01.01h.13zm3.37 1.63a.711.711 0 0 1 .63.36h.01l1.96 3.55c-.25.09-.52.16-.79.22-1.5.34-3 .24-4.36-.22l1.96-3.54h0a.72.72 0 0 1 .59-.37z" fill="#fff" stroke="#fff" stroke-width=".25"/><text font-size="8" x="416.028" y="250.853" font-family="GoogleSansDisplay-Regular" fill="#231f20">Multiple services on a single backend.</text><g transform="translate(-6.972 -14.567)"><path d="M726 373.42H587.06c-1.65 0-3-1.35-3-3v-93c0-1.65 1.35-3 3-3H726c1.65 0 3 1.35 3 3v93c0 1.65-1.35 3-3 3z" fill="#e5e5e4"/><path d="M627 320.62h-33.6c-1.65 0-3-1.35-3-3v-33.6c0-1.65 1.35-3 3-3H627c1.65 0 3 1.35 3 3v33.6c0 1.65-1.35 3-3 3z" fill="#fff"/><path stroke-miterlimit="10" fill="none" stroke="#f0f" stroke-width="3" stroke-linejoin="round" d="M619.92 306.43v-11.22l-9.72-5.61-9.72 5.61v11.22l9.72 5.61z"/><path d="M719.4 320.62h-79.8c-1.65 0-3-1.35-3-3v-33.6c0-1.65 1.35-3 3-3h79.8c1.65 0 3 1.35 3 3v33.6c0 1.65-1.35 3-3 3z" fill="#fff"/><text transform="translate(673.786 304.369)" font-size="10.267" font-family="GoogleSansDisplay-Regular">Service v1</text><circle cx="656.4" cy="300.82" r="13.2" fill="#767576"/><path stroke-miterlimit="10" fill="none" stroke="#fff" stroke-width=".75" stroke-linejoin="round" d="M651.71 296.04h9.38v9.38h-9.38z"/><g stroke-miterlimit="10" fill="none" stroke="#fff" stroke-width=".75" stroke-linecap="round"><path d="M653.45 296.04v-2.25M656.4 296.04v-2.25M659.35 296.04v-2.25"/></g><g stroke-miterlimit="10" fill="none" stroke="#fff" stroke-width=".75" stroke-linecap="round"><path d="M653.45 307.85v-2.25M656.4 307.85v-2.25M659.35 307.85v-2.25"/></g><g stroke-miterlimit="10" fill="none" stroke="#fff" stroke-width=".75" stroke-linecap="round"><path d="M651.62 303.77h-2.25M651.62 300.82h-2.25M651.62 297.87h-2.25"/></g><g stroke-miterlimit="10" fill="none" stroke="#fff" stroke-width=".75" stroke-linecap="round"><path d="M663.43 303.77h-2.25M663.43 300.82h-2.25M663.43 297.87h-2.25"/></g><path d="M656.48 302.82h-.17c-1.1 0-2-.9-2-2v-.17c0-1.1.9-2 2-2h.17c1.1 0 2 .9 2 2v.17c0 1.1-.9 2-2 2zM627 366.82h-33.6c-1.65 0-3-1.35-3-3v-33.6c0-1.65 1.35-3 3-3H627c1.65 0 3 1.35 3 3v33.6c0 1.65-1.35 3-3 3z" fill="#fff"/><path stroke-miterlimit="10" fill="none" stroke="#f0f" stroke-width="3" stroke-linejoin="round" d="M619.92 352.63v-11.22l-9.72-5.61-9.72 5.61v11.22l9.72 5.61z"/><path d="M719.4 366.82h-79.8c-1.65 0-3-1.35-3-3v-33.6c0-1.65 1.35-3 3-3h79.8c1.65 0 3 1.35 3 3v33.6c0 1.65-1.35 3-3 3z" fill="#fff"/><text transform="translate(673.046 350.569)" font-size="10.267" font-family="GoogleSansDisplay-Regular">Service v2</text><circle cx="656.4" cy="347.02" r="13.2" fill="#767576"/><g><path stroke-miterlimit="10" fill="none" stroke="#fff" stroke-width=".75" stroke-linejoin="round" d="M651.71 342.24h9.38v9.38h-9.38z"/><g stroke-miterlimit="10" fill="none" stroke="#fff" stroke-width=".75" stroke-linecap="round"><path d="M653.45 342.24v-2.25M656.4 342.24v-2.25M659.35 342.24v-2.25"/></g><g stroke-miterlimit="10" fill="none" stroke="#fff" stroke-width=".75" stroke-linecap="round"><path d="M653.45 354.05v-2.25M656.4 354.05v-2.25M659.35 354.05v-2.25"/></g><g stroke-miterlimit="10" fill="none" stroke="#fff" stroke-width=".75" stroke-linecap="round"><path d="M651.62 349.97h-2.25M651.62 347.02h-2.25M651.62 344.07h-2.25"/></g><g stroke-miterlimit="10" fill="none" stroke="#fff" stroke-width=".75" stroke-linecap="round"><path d="M663.43 349.97h-2.25M663.43 347.02h-2.25M663.43 344.07h-2.25"/></g><path d="M656.48 349.02h-.17c-1.1 0-2-.9-2-2v-.17c0-1.1.9-2 2-2h.17c1.1 0 2 .9 2 2v.17c0 1.1-.9 2-2 2z" fill="#fff"/></g></g><text font-size="8" x="577.088" y="250.853" font-family="GoogleSansDisplay-Regular" fill="#231f20">Multiple versions of a service.</text><path d="M660.118 1182.553h-529.78c-5.5 0-10-4.5-10-10v-240.04c0-5.5 4.5-10 10-10h529.78c5.5 0 10 4.5 10 10v240.04c0 5.5-4.5 10-10 10z" fill="none" stroke="#466bb0" stroke-linejoin="round" stroke-dasharray="10.0151,10.0151"/><path stroke-miterlimit="10" fill="none" stroke="#476bb0" stroke-width="4" stroke-linecap="round" stroke-linejoin="round" stroke-dasharray="6,12" d="M500.188 1147.023h112.45"/><text font-size="12.495" x="464.926" y="1168.108" font-family="GoogleSansDisplay-Regular">Configurable traffic routing rules</text><path d="M252.048 1168.103h-92.4c-1.65 0-3-1.35-3-3v-78.34c0-1.65 1.35-3 3-3h92.4c1.65 0 3 1.35 3 3v78.34c0 1.65-1.35 3-3 3z" fill="#e5e5e4"/><path d="M245.018 1161.083h-78.34c-1.65 0-3-1.35-3-3v-15.09c0-1.65 1.35-3 3-3h78.34c1.65 0 3 1.35 3 3v15.09c0 1.65-1.35 3-3 3z" fill="#fff"/><text font-size="10.933" x="174.028" y="1154.317" font-family="GoogleSansDisplay-Regular">Service entry</text><path d="M223.938 1132.963h-36.17c-1.65 0-3-1.35-3-3v-36.17c0-1.65 1.35-3 3-3h36.17c1.65 0 3 1.35 3 3v36.17c0 1.65-1.35 3-3 3z" fill="#fff"/><path stroke-miterlimit="10" fill="none" stroke="#f0f" stroke-width="3" stroke-linejoin="round" d="M216.208 1117.853v-11.95l-10.36-5.97-10.35 5.97v11.95l10.35 5.98z"/><path d="M708.898 1041.483h-78.34c-1.65 0-3-1.35-3-3v-78.34c0-1.65 1.35-3 3-3h78.34c1.65 0 3 1.35 3 3v78.34c0 1.65-1.35 3-3 3z" fill="#e5e5e4"/><path d="M701.868 1034.453h-64.28c-1.65 0-3-1.35-3-3v-15.09c0-1.65 1.35-3 3-3h64.28c1.65 0 3 1.35 3 3v15.09c0 1.65-1.35 3-3 3z" fill="#fff"/><text font-size="10.933" x="653.573" y="1027.694" font-family="GoogleSansDisplay-Regular">Egress</text><path d="M687.808 1006.343h-36.17c-1.65 0-3-1.35-3-3v-36.17c0-1.65 1.35-3 3-3h36.17c1.65 0 3 1.35 3 3v36.17c0 1.65-1.35 3-3 3z" fill="#fff"/><path stroke-miterlimit="10" fill="none" stroke="#f0f" stroke-width="3" stroke-linejoin="round" d="M680.078 991.233v-11.95l-10.35-5.97-10.36 5.97v11.95l10.36 5.97z"/><path d="M104.378 1139.993H5.028c-1.65 0-3-1.35-3-3v-50.23c0-1.65 1.35-3 3-3h99.35c1.65 0 3 1.35 3 3v50.23c0 1.65-1.35 3-3 3z" fill="#e5e5e4"/><path d="M97.348 1132.963h-85.37c-1.65 0-3-1.35-3-3v-36.17c0-1.65 1.35-3 3-3h85.37c1.65 0 3 1.35 3 3v36.17c0 1.65-1.35 3-3 3z" fill="#fff"/><text font-size="10.933" x="54.673" y="1115.66" font-family="GoogleSansDisplay-Regular">Service</text><circle cx="30.068" cy="1111.883" r="14.06" fill="#767576"/><path stroke-miterlimit="10" fill="none" stroke="#fff" stroke-linejoin="round" d="M25.068 1106.793h9.99v9.99h-9.99z"/><path stroke-miterlimit="10" fill="none" stroke="#fff" stroke-linecap="round" d="M26.918 1106.793v-2.4M30.068 1106.793v-2.4M33.208 1106.793v-2.4M26.918 1119.373v-2.41M30.068 1119.373v-2.41M33.208 1119.373v-2.41M24.978 1115.023h-2.41M24.978 1111.883h-2.41M24.978 1108.733h-2.41M37.558 1115.023h-2.41M37.558 1111.883h-2.41M37.558 1108.733h-2.41"/><path d="M30.288 1114.003h-.44c-1.1 0-2-.9-2-2v-.44c0-1.1.9-2 2-2h.44c1.1 0 2 .9 2 2v.44c0 1.1-.9 2-2 2z" fill="#fff"/><path d="M554.268 1062.683h-148.35c-1.65 0-3-1.35-3-3v-99.43c0-1.65 1.35-3 3-3h148.35c1.65 0 3 1.35 3 3v99.43c0 1.65-1.35 3-3 3z" fill="#e5e5e4"/><path d="M448.848 1006.453h-36.17c-1.65 0-3-1.35-3-3v-36.17c0-1.65 1.35-3 3-3h36.17c1.65 0 3 1.35 3 3v36.17c0 1.65-1.35 3-3 3z" fill="#fff"/><path stroke-miterlimit="10" fill="none" stroke="#f0f" stroke-width="3" stroke-linejoin="round" d="M441.118 991.343v-11.95l-10.36-5.97-10.35 5.97v11.95l10.35 5.97z"/><path d="M547.238 1006.453h-85.37c-1.65 0-3-1.35-3-3v-36.17c0-1.65 1.35-3 3-3h85.37c1.65 0 3 1.35 3 3v36.17c0 1.65-1.35 3-3 3z" fill="#fff"/><text font-size="10.933" x="498.472" y="989.149" font-family="GoogleSansDisplay-Regular">Service v1</text><circle cx="479.958" cy="985.373" r="14.06" fill="#767576"/><path stroke-miterlimit="10" fill="none" stroke="#fff" stroke-linejoin="round" d="M474.968 980.283h9.99v9.99h-9.99z"/><path stroke-miterlimit="10" fill="none" stroke="#fff" stroke-linecap="round" d="M476.818 980.283v-2.4M479.958 980.283v-2.4M483.098 980.283v-2.4M476.818 992.863v-2.41M479.958 992.863v-2.41M483.098 992.863v-2.41M474.868 988.513h-2.4M474.868 985.373h-2.4M474.868 982.223h-2.4M487.448 988.513h-2.4M487.448 985.373h-2.4M487.448 982.223h-2.4"/><path d="M480.178 987.493h-.44c-1.1 0-2-.9-2-2v-.44c0-1.1.9-2 2-2h.44c1.1 0 2 .9 2 2v.44c0 1.1-.9 2-2 2zM448.848 1055.653h-36.17c-1.65 0-3-1.35-3-3v-36.17c0-1.65 1.35-3 3-3h36.17c1.65 0 3 1.35 3 3v36.17c0 1.65-1.35 3-3 3z" fill="#fff"/><path stroke-miterlimit="10" fill="none" stroke="#f0f" stroke-width="3" stroke-linejoin="round" d="M441.118 1040.543v-11.95l-10.36-5.97-10.35 5.97v11.95l10.35 5.97z"/><path d="M547.238 1055.653h-85.37c-1.65 0-3-1.35-3-3v-36.17c0-1.65 1.35-3 3-3h85.37c1.65 0 3 1.35 3 3v36.17c0 1.65-1.35 3-3 3z" fill="#fff"/><text font-size="10.933" x="497.685" y="1038.348" font-family="GoogleSansDisplay-Regular">Service v2</text><circle cx="479.958" cy="1034.573" r="14.06" fill="#767576"/><g><path stroke-miterlimit="10" fill="none" stroke="#fff" stroke-linejoin="round" d="M474.968 1029.483h9.99v9.99h-9.99z"/><path stroke-miterlimit="10" fill="none" stroke="#fff" stroke-linecap="round" d="M476.818 1029.483v-2.41M479.958 1029.483v-2.41M483.098 1029.483v-2.41M476.818 1042.063v-2.41M479.958 1042.063v-2.41M483.098 1042.063v-2.41M474.868 1037.713h-2.4M474.868 1034.573h-2.4M474.868 1031.423h-2.4M487.448 1037.713h-2.4M487.448 1034.573h-2.4M487.448 1031.423h-2.4"/><path d="M480.178 1036.693h-.44c-1.1 0-2-.9-2-2v-.44c0-1.1.9-2 2-2h.44c1.1 0 2 .9 2 2v.44c0 1.1-.9 2-2 2z" fill="#fff"/></g><path d="M160.678 1041.593h-78.34c-1.65 0-3-1.35-3-3v-78.34c0-1.65 1.35-3 3-3h78.34c1.65 0 3 1.35 3 3v78.34c0 1.65-1.35 3-3 3z" fill="#e5e5e4"/><path d="M153.648 1034.573h-64.28c-1.65 0-3-1.35-3-3v-15.09c0-1.65 1.35-3 3-3h64.28c1.65 0 3 1.35 3 3v15.09c0 1.65-1.35 3-3 3z" fill="#fff"/><text font-size="10.933" x="104.009" y="1027.805" font-family="GoogleSansDisplay-Regular">Ingress</text><path d="M139.598 1006.453h-36.17c-1.65 0-3-1.35-3-3v-36.17c0-1.65 1.35-3 3-3h36.17c1.65 0 3 1.35 3 3v36.17c0 1.65-1.35 3-3 3z" fill="#fff"/><path stroke-miterlimit="10" fill="none" stroke="#f0f" stroke-width="3" stroke-linejoin="round" d="M131.868 991.343v-11.95l-10.36-5.97-10.35 5.97v11.95l10.35 5.97z"/><path d="M308.278 1041.593h-92.4c-1.65 0-3-1.35-3-3v-78.34c0-1.65 1.35-3 3-3h92.4c1.65 0 3 1.35 3 3v78.34c0 1.65-1.35 3-3 3z" fill="#e5e5e4"/><path d="M301.248 1034.573h-78.34c-1.65 0-3-1.35-3-3v-15.09c0-1.65 1.35-3 3-3h78.34c1.65 0 3 1.35 3 3v15.09c0 1.65-1.35 3-3 3z" fill="#fff"/><text font-size="10.933" x="227.871" y="1027.805" font-family="GoogleSansDisplay-Regular">Virtual service</text><path d="M280.168 1006.453h-36.17c-1.65 0-3-1.35-3-3v-36.17c0-1.65 1.35-3 3-3h36.17c1.65 0 3 1.35 3 3v36.17c0 1.65-1.35 3-3 3z" fill="#fff"/><path stroke-miterlimit="10" fill="none" stroke="#f0f" stroke-width="3" stroke-linejoin="round" d="M272.438 991.343v-11.95l-10.36-5.97-10.36 5.97v11.95l10.36 5.97z"/><path stroke-miterlimit="10" fill="none" stroke="#476bb0" stroke-width="4" stroke-linecap="round" stroke-linejoin="round" stroke-dasharray="6,12" d="M107.458 1111.883h77.31M142.599 985.373h98.389"/><g><path fill="none" stroke="#818181" stroke-width="4" stroke-linecap="round" stroke-linejoin="round" d="M2.028 985.373h6"/><path fill="none" stroke="#818181" stroke-width="4" stroke-linecap="round" stroke-linejoin="round" stroke-dasharray="1.6044,9.6265" d="M17.658 985.373h6.41"/><path fill="none" stroke="#818181" stroke-width="4" stroke-linecap="round" stroke-linejoin="round" stroke-dasharray="9.6265,9.6265,1.6044,9.6265" d="M28.888 985.373h56.15"/><path fill="none" stroke="#818181" stroke-width="4" stroke-linecap="round" stroke-linejoin="round" d="M89.858 985.373h6"/><path fill="#818181" d="M87.888 992.153l6.78-6.78-6.78-6.78h5.76l6.78 6.78-6.78 6.78z"/></g><path stroke-miterlimit="10" fill="none" stroke="#476bb0" stroke-width="4" stroke-linecap="round" stroke-linejoin="round" stroke-dasharray="6,12" d="M283.168 985.673h126.51M409.678 1034.573h-63.26v-47.96M346.418 1034.573v42.17h-140.57v14.05"/><g><path fill="none" stroke="#818181" stroke-width="4" stroke-linecap="round" stroke-linejoin="round" d="M690.808 985.373h6"/><path fill="none" stroke="#818181" stroke-width="4" stroke-linecap="round" stroke-linejoin="round" stroke-dasharray="1.4589,8.7532" d="M705.558 985.373h5.84"/><path fill="none" stroke="#818181" stroke-width="4" stroke-linecap="round" stroke-linejoin="round" stroke-dasharray="8.7532,8.7532,1.4589,8.7532" d="M715.778 985.373h23.34"/><path fill="none" stroke="#818181" stroke-width="4" stroke-linecap="round" stroke-linejoin="round" d="M743.488 985.373h6"/><path fill="#818181" d="M741.528 992.153l6.78-6.78-6.78-6.78h5.76l6.78 6.78-6.78 6.78z"/></g><path stroke-miterlimit="10" fill="none" stroke="#476bb0" stroke-width="4" stroke-linecap="round" stroke-linejoin="round" stroke-dasharray="6,12" d="M226.938 1111.883h368.41v-126.62"/><path stroke-miterlimit="10" fill="none" stroke="#476bb0" stroke-width="4" stroke-linecap="round" stroke-linejoin="round" stroke-dasharray="6,12" d="M430.758 1055.653v25.05h164.59M430.758 964.173v-14.15h164.59v35.24h53.29"/><path fill="#486baf" d="M79.338 957.253h10.46v10.46h-10.46z"/><path fill="#fff" d="M81.958 965.423h5.22l-3.26.98zM81.958 965.093l1.96-.32v-3.6zM84.238 964.773l2.94.32-2.94-6.53z"/><path fill="#486baf" d="M212.878 957.253h10.46v10.46h-10.46z"/><path fill="#fff" d="M215.498 965.423h5.22l-3.26.98zM215.498 965.093l1.96-.32v-3.6zM217.778 964.773l2.94.32-2.94-6.53z"/><path fill="#486baf" d="M156.648 1083.763h10.46v10.46h-10.46z"/><path fill="#fff" d="M159.268 1091.933h5.23l-3.27.98zM159.268 1091.613l1.96-.33v-3.6zM161.558 1091.283l2.94.33-2.94-6.54z"/><path fill="#486baf" d="M627.559 957.143h10.46v10.46h-10.46z"/><path fill="#fff" d="M630.168 965.313h5.23l-3.27.98zM630.168 964.983l1.96-.32v-3.6zM632.458 964.663l2.94.32-2.94-6.53z"/><g><g transform="translate(-6.972 -14.567)"><defs><path id="g" d="M126 937.08h19v19h-19z"/></defs><clipPath id="h"><use xlink:href="#g" overflow="visible" width="100%" height="100%"/></clipPath><path clip-path="url(#h)" fill="#466bb0" d="M130.75 951.92h9.5l-5.94 1.78zM130.75 951.33l3.56-.6v-6.53z"/><path clip-path="url(#h)" fill="#476baf" d="M134.91 950.73l5.34.6-5.34-11.88z"/></g></g><path fill="none" d="M416.838 534.433h44.19v63h-44.19z"/><text x="416.839" y="544.457"><tspan x="416.839" y="544.457" font-size="14" font-family="GoogleSansDisplay-Regular" fill="#476bb0">Blue</tspan><tspan x="416.839" y="561.257" font-size="14" font-family="GoogleSansDisplay-Regular" fill="#476bb0">R=51 </tspan><tspan x="416.839" y="578.057" font-size="14" font-family="GoogleSansDisplay-Regular" fill="#476bb0">G=102 </tspan><tspan x="416.839" y="594.857" font-size="14" font-family="GoogleSansDisplay-Regular" fill="#476bb0">B=153</tspan></text><path fill="none" d="M489.088 534.433h47.98v63h-47.98z"/><text x="489.092" y="544.457"><tspan x="489.092" y="544.457" font-size="14" font-family="GoogleSansDisplay-Regular" fill="#0d8341">Green</tspan><tspan x="489.092" y="561.257" font-size="14" font-family="GoogleSansDisplay-Regular" fill="#0d8341">R=0 </tspan><tspan x="489.092" y="578.057" font-size="14" font-family="GoogleSansDisplay-Regular" fill="#0d8341">G=153</tspan><tspan x="489.092" y="594.857" font-size="14" font-family="GoogleSansDisplay-Regular" fill="#0d8341">B=0</tspan></text><path fill="none" d="M713.029 534.433h45v63h-45z"/><text x="713.029" y="544.457"><tspan x="713.029" y="544.457" font-size="14" font-family="GoogleSansDisplay-Regular" fill="#f0f">Pink</tspan><tspan x="713.029" y="561.257" font-size="14" font-family="GoogleSansDisplay-Regular" fill="#f0f">R=255</tspan><tspan x="713.029" y="578.057" font-size="14" font-family="GoogleSansDisplay-Regular" fill="#f0f">G=0</tspan><tspan x="713.029" y="594.857" font-size="14" font-family="GoogleSansDisplay-Regular" fill="#f0f">B=255</tspan></text><path fill="none" d="M642.768 534.433h52.26v63h-52.26z"/><text x="642.771" y="544.457"><tspan x="642.771" y="544.457" font-size="14" font-family="GoogleSansDisplay-Regular" fill="#4d4d4e">Gray</tspan><tspan x="642.771" y="561.257" font-size="14" font-family="GoogleSansDisplay-Regular" fill="#4d4d4e">R=102</tspan><tspan x="642.771" y="578.057" font-size="14" font-family="GoogleSansDisplay-Regular" fill="#4d4d4e">G=102</tspan><tspan x="642.771" y="594.857" font-size="14" font-family="GoogleSansDisplay-Regular" fill="#4d4d4e">B=102</tspan></text><path fill="none" d="M560.948 534.433h52.56v63h-52.56z"/><text x="560.951" y="544.457"><tspan x="560.951" y="544.457" font-size="14" font-family="GoogleSansDisplay-Regular" fill="#f26522">Orange</tspan><tspan x="560.951" y="561.257" font-size="14" font-family="GoogleSansDisplay-Regular" fill="#f26522">R=255</tspan><tspan x="560.951" y="578.057" font-size="14" font-family="GoogleSansDisplay-Regular" fill="#f26522">G=102</tspan><tspan x="560.951" y="594.857" font-size="14" font-family="GoogleSansDisplay-Regular" fill="#f26522">B=0</tspan></text></svg>