<svg xmlns="http://www.w3.org/2000/svg" viewBox="0 0 690.27 523.1"><defs><style>.a62913a8-14be-4ba8-9477-bdbb0fc5cdb0,.a971ce99-87ed-447d-bc34-a4e2144931be,.af894025-c92c-4856-973f-1ce92c7ef0ae,.b37f3bc0-8bc1-42ef-b17b-a0b53c3e3fe3,.b50d01cd-a752-4ab1-ab00-9430d8da761f,.f0342664-c164-48dd-98b3-848d2ee3568d,.f2d6d958-3436-4141-a381-78886ff4d8d2{fill:none;}.b37f3bc0-8bc1-42ef-b17b-a0b53c3e3fe3{stroke:#466bb0;stroke-dasharray:10 10;}.a62913a8-14be-4ba8-9477-bdbb0fc5cdb0,.a971ce99-87ed-447d-bc34-a4e2144931be,.af894025-c92c-4856-973f-1ce92c7ef0ae,.b37f3bc0-8bc1-42ef-b17b-a0b53c3e3fe3,.b50d01cd-a752-4ab1-ab00-9430d8da761f{stroke-linejoin:round;}.a7a99ab4-9b85-4fbe-979c-8ea0cbaa8a9c{font-size:12px;}.a7a99ab4-9b85-4fbe-979c-8ea0cbaa8a9c,.a7c1f649-2005-40f1-a248-55533362eedd,.b6aa5b68-e940-4cb3-a2e6-49592c538baf{font-family:Roboto-Regular, Roboto;}.a62913a8-14be-4ba8-9477-bdbb0fc5cdb0{stroke:#fbb040;}.a62913a8-14be-4ba8-9477-bdbb0fc5cdb0,.a971ce99-87ed-447d-bc34-a4e2144931be,.af894025-c92c-4856-973f-1ce92c7ef0ae,.f2d6d958-3436-4141-a381-78886ff4d8d2{stroke-width:2px;}.b6aa5b68-e940-4cb3-a2e6-49592c538baf{font-size:12.69px;}.bd42e51c-b758-4dec-8eac-becc83df618b{letter-spacing:-0.02em;}.af248251-b020-4fea-937e-cebade042508{letter-spacing:0em;}.a2817ce0-454f-437e-b94e-3c22fec28bd3{letter-spacing:-0.03em;}.f9d5c39e-906c-4076-b2bd-ea27ef028371{letter-spacing:-0.04em;}.a971ce99-87ed-447d-bc34-a4e2144931be,.b50d01cd-a752-4ab1-ab00-9430d8da761f{stroke:#e905ee;}.aba1b77e-f454-4a07-9887-7168bb1d7d82{fill:#e6e6e6;}.ab3e2d58-a4f0-4070-a151-5237736d46f9{fill:#fff;}.b50d01cd-a752-4ab1-ab00-9430d8da761f{stroke-width:3px;}.a7c1f649-2005-40f1-a248-55533362eedd{font-size:14.81px;}.b6352e55-1798-4577-8019-d4f8356bd36f{letter-spacing:0.01em;}.b6b142f7-2b75-4615-88dc-56e554054e08{fill:#757575;}.af894025-c92c-4856-973f-1ce92c7ef0ae,.f2d6d958-3436-4141-a381-78886ff4d8d2{stroke:#fff;}.f2d6d958-3436-4141-a381-78886ff4d8d2{stroke-linecap:round;}.f0342664-c164-48dd-98b3-848d2ee3568d,.f2d6d958-3436-4141-a381-78886ff4d8d2{stroke-miterlimit:10;}.f0342664-c164-48dd-98b3-848d2ee3568d{stroke:#090;stroke-width:4px;}.fc69a095-6b1b-496a-8d29-8033f30a76e4{fill:#090;}</style></defs><title>cluster-ns</title><g id="a8a0f69e-b619-4b03-9164-36640aa6931e" data-name="cluster-ns"><rect class="b37f3bc0-8bc1-42ef-b17b-a0b53c3e3fe3" x="0.5" y="13.7" width="689.27" height="508.9" rx="10"/><text class="a7a99ab4-9b85-4fbe-979c-8ea0cbaa8a9c" transform="translate(0.48 10.27)">Istio Mesh</text><rect class="a62913a8-14be-4ba8-9477-bdbb0fc5cdb0" x="19.79" y="52.17" width="307.65" height="432.43" rx="10"/><text class="b6aa5b68-e940-4cb3-a2e6-49592c538baf" transform="translate(19.99 48.86)">Cluster: <tspan class="bd42e51c-b758-4dec-8eac-becc83df618b" x="46.27" y="0">W</tspan><tspan class="af248251-b020-4fea-937e-cebade042508" x="57.34" y="0">est</tspan></text><rect class="a62913a8-14be-4ba8-9477-bdbb0fc5cdb0" x="362.81" y="52.17" width="307.65" height="432.43" rx="10"/><text class="b6aa5b68-e940-4cb3-a2e6-49592c538baf" transform="translate(363.01 48.86)">Cluster: East</text><text class="b6aa5b68-e940-4cb3-a2e6-49592c538baf" transform="translate(47.3 91.09)">Namespace:<tspan class="a2817ce0-454f-437e-b94e-3c22fec28bd3" x="70.82" y="0"> </tspan><tspan class="f9d5c39e-906c-4076-b2bd-ea27ef028371" x="73.6" y="0">T</tspan><tspan x="80.61" y="0">eam-1</tspan></text><rect class="a971ce99-87ed-447d-bc34-a4e2144931be" x="47.38" y="94.27" width="262.05" height="348.1" rx="10"/><text class="b6aa5b68-e940-4cb3-a2e6-49592c538baf" transform="translate(384.76 91.09)">Namespace:<tspan class="a2817ce0-454f-437e-b94e-3c22fec28bd3" x="70.82" y="0"> </tspan><tspan class="f9d5c39e-906c-4076-b2bd-ea27ef028371" x="73.6" y="0">T</tspan><tspan x="80.61" y="0">eam-1</tspan></text><rect class="a971ce99-87ed-447d-bc34-a4e2144931be" x="384.84" y="94.27" width="262.05" height="348.1" rx="10"/><rect class="aba1b77e-f454-4a07-9887-7168bb1d7d82" x="411.3" y="136.82" width="209.06" height="76.16" rx="3"/><rect class="ab3e2d58-a4f0-4070-a151-5237736d46f9" x="420.44" y="146.34" width="57.12" height="57.12" rx="3"/><polygon class="b50d01cd-a752-4ab1-ab00-9430d8da761f" points="463.03 183 463.03 166.81 449 158.72 434.97 166.81 434.97 183 449 191.09 463.03 183"/><rect class="ab3e2d58-a4f0-4070-a151-5237736d46f9" x="487.08" y="146.34" width="123.76" height="57.12" rx="3"/><text class="a7c1f649-2005-40f1-a248-55533362eedd" transform="translate(542.78 180.02)">Se<tspan class="b6352e55-1798-4577-8019-d4f8356bd36f" x="16.63" y="0">r</tspan><tspan x="21.77" y="0">vice B</tspan></text><circle class="b6b142f7-2b75-4615-88dc-56e554054e08" cx="515.64" cy="174.9" r="19.04"/><rect class="af894025-c92c-4856-973f-1ce92c7ef0ae" x="508.87" y="168.01" width="13.53" height="13.53"/><line class="f2d6d958-3436-4141-a381-78886ff4d8d2" x1="511.38" y1="168.01" x2="511.38" y2="164.76"/><line class="f2d6d958-3436-4141-a381-78886ff4d8d2" x1="515.64" y1="168.01" x2="515.64" y2="164.76"/><line class="f2d6d958-3436-4141-a381-78886ff4d8d2" x1="519.9" y1="168.01" x2="519.9" y2="164.76"/><line class="f2d6d958-3436-4141-a381-78886ff4d8d2" x1="511.38" y1="185.05" x2="511.38" y2="181.79"/><line class="f2d6d958-3436-4141-a381-78886ff4d8d2" x1="515.64" y1="185.05" x2="515.64" y2="181.79"/><line class="f2d6d958-3436-4141-a381-78886ff4d8d2" x1="519.9" y1="185.05" x2="519.9" y2="181.79"/><line class="f2d6d958-3436-4141-a381-78886ff4d8d2" x1="508.75" y1="179.16" x2="505.49" y2="179.16"/><line class="f2d6d958-3436-4141-a381-78886ff4d8d2" x1="508.75" y1="174.9" x2="505.49" y2="174.9"/><line class="f2d6d958-3436-4141-a381-78886ff4d8d2" x1="508.75" y1="170.64" x2="505.49" y2="170.64"/><line class="f2d6d958-3436-4141-a381-78886ff4d8d2" x1="525.78" y1="179.16" x2="522.53" y2="179.16"/><line class="f2d6d958-3436-4141-a381-78886ff4d8d2" x1="525.78" y1="174.9" x2="522.53" y2="174.9"/><line class="f2d6d958-3436-4141-a381-78886ff4d8d2" x1="525.78" y1="170.64" x2="522.53" y2="170.64"/><rect class="ab3e2d58-a4f0-4070-a151-5237736d46f9" x="512.63" y="171.77" width="6.01" height="6.01" rx="2"/><rect class="aba1b77e-f454-4a07-9887-7168bb1d7d82" x="73.83" y="136.82" width="209.06" height="76.16" rx="3"/><rect class="ab3e2d58-a4f0-4070-a151-5237736d46f9" x="82.98" y="146.34" width="123.76" height="57.12" rx="3"/><text class="a7c1f649-2005-40f1-a248-55533362eedd" transform="translate(138.45 180.02)">Se<tspan class="b6352e55-1798-4577-8019-d4f8356bd36f" x="16.63" y="0">r</tspan><tspan x="21.77" y="0">vice A</tspan></text><circle class="b6b142f7-2b75-4615-88dc-56e554054e08" cx="111.54" cy="174.9" r="19.04"/><rect class="af894025-c92c-4856-973f-1ce92c7ef0ae" x="104.77" y="168.01" width="13.53" height="13.53"/><line class="f2d6d958-3436-4141-a381-78886ff4d8d2" x1="107.28" y1="168.01" x2="107.28" y2="164.76"/><line class="f2d6d958-3436-4141-a381-78886ff4d8d2" x1="111.54" y1="168.01" x2="111.54" y2="164.76"/><line class="f2d6d958-3436-4141-a381-78886ff4d8d2" x1="115.8" y1="168.01" x2="115.8" y2="164.76"/><line class="f2d6d958-3436-4141-a381-78886ff4d8d2" x1="107.28" y1="185.05" x2="107.28" y2="181.79"/><line class="f2d6d958-3436-4141-a381-78886ff4d8d2" x1="111.54" y1="185.05" x2="111.54" y2="181.79"/><line class="f2d6d958-3436-4141-a381-78886ff4d8d2" x1="115.8" y1="185.05" x2="115.8" y2="181.79"/><line class="f2d6d958-3436-4141-a381-78886ff4d8d2" x1="104.65" y1="179.16" x2="101.39" y2="179.16"/><line class="f2d6d958-3436-4141-a381-78886ff4d8d2" x1="104.65" y1="174.9" x2="101.39" y2="174.9"/><line class="f2d6d958-3436-4141-a381-78886ff4d8d2" x1="104.65" y1="170.64" x2="101.39" y2="170.64"/><line class="f2d6d958-3436-4141-a381-78886ff4d8d2" x1="121.68" y1="179.16" x2="118.43" y2="179.16"/><line class="f2d6d958-3436-4141-a381-78886ff4d8d2" x1="121.68" y1="174.9" x2="118.43" y2="174.9"/><line class="f2d6d958-3436-4141-a381-78886ff4d8d2" x1="121.68" y1="170.64" x2="118.43" y2="170.64"/><rect class="ab3e2d58-a4f0-4070-a151-5237736d46f9" x="108.53" y="171.77" width="6.01" height="6.01" rx="2"/><rect class="ab3e2d58-a4f0-4070-a151-5237736d46f9" x="216.25" y="146.34" width="57.12" height="57.12" rx="3"/><polygon class="b50d01cd-a752-4ab1-ab00-9430d8da761f" points="258.84 183 258.84 166.81 244.81 158.72 230.79 166.81 230.79 183 244.81 191.09 258.84 183"/><rect class="aba1b77e-f454-4a07-9887-7168bb1d7d82" x="411.3" y="312.41" width="209.06" height="76.16" rx="3"/><rect class="ab3e2d58-a4f0-4070-a151-5237736d46f9" x="420.44" y="321.93" width="57.12" height="57.12" rx="3"/><polygon class="b50d01cd-a752-4ab1-ab00-9430d8da761f" points="463.03 358.58 463.03 342.4 449 334.31 434.97 342.4 434.97 358.58 449 366.67 463.03 358.58"/><rect class="ab3e2d58-a4f0-4070-a151-5237736d46f9" x="487.08" y="321.93" width="123.76" height="57.12" rx="3"/><text class="a7c1f649-2005-40f1-a248-55533362eedd" transform="translate(542.55 355.61)">Se<tspan class="b6352e55-1798-4577-8019-d4f8356bd36f" x="16.63" y="0">r</tspan><tspan x="21.77" y="0">vice A</tspan></text><circle class="b6b142f7-2b75-4615-88dc-56e554054e08" cx="515.64" cy="350.49" r="19.04"/><rect class="af894025-c92c-4856-973f-1ce92c7ef0ae" x="508.87" y="343.6" width="13.53" height="13.53"/><line class="f2d6d958-3436-4141-a381-78886ff4d8d2" x1="511.38" y1="343.6" x2="511.38" y2="340.34"/><line class="f2d6d958-3436-4141-a381-78886ff4d8d2" x1="515.64" y1="343.6" x2="515.64" y2="340.34"/><line class="f2d6d958-3436-4141-a381-78886ff4d8d2" x1="519.9" y1="343.6" x2="519.9" y2="340.34"/><line class="f2d6d958-3436-4141-a381-78886ff4d8d2" x1="511.38" y1="360.64" x2="511.38" y2="357.38"/><line class="f2d6d958-3436-4141-a381-78886ff4d8d2" x1="515.64" y1="360.64" x2="515.64" y2="357.38"/><line class="f2d6d958-3436-4141-a381-78886ff4d8d2" x1="519.9" y1="360.64" x2="519.9" y2="357.38"/><line class="f2d6d958-3436-4141-a381-78886ff4d8d2" x1="508.75" y1="354.75" x2="505.49" y2="354.75"/><line class="f2d6d958-3436-4141-a381-78886ff4d8d2" x1="508.75" y1="350.49" x2="505.49" y2="350.49"/><line class="f2d6d958-3436-4141-a381-78886ff4d8d2" x1="508.75" y1="346.23" x2="505.49" y2="346.23"/><line class="f2d6d958-3436-4141-a381-78886ff4d8d2" x1="525.78" y1="354.75" x2="522.53" y2="354.75"/><line class="f2d6d958-3436-4141-a381-78886ff4d8d2" x1="525.78" y1="350.49" x2="522.53" y2="350.49"/><line class="f2d6d958-3436-4141-a381-78886ff4d8d2" x1="525.78" y1="346.23" x2="522.53" y2="346.23"/><rect class="ab3e2d58-a4f0-4070-a151-5237736d46f9" x="512.63" y="347.36" width="6.01" height="6.01" rx="2"/><rect class="aba1b77e-f454-4a07-9887-7168bb1d7d82" x="73.83" y="312.41" width="209.06" height="76.16" rx="3"/><rect class="ab3e2d58-a4f0-4070-a151-5237736d46f9" x="82.98" y="321.93" width="123.76" height="57.12" rx="3"/><text class="a7c1f649-2005-40f1-a248-55533362eedd" transform="translate(138.67 355.61)">Se<tspan class="b6352e55-1798-4577-8019-d4f8356bd36f" x="16.63" y="0">r</tspan><tspan x="21.77" y="0">vice B</tspan></text><circle class="b6b142f7-2b75-4615-88dc-56e554054e08" cx="111.54" cy="350.49" r="19.04"/><rect class="af894025-c92c-4856-973f-1ce92c7ef0ae" x="104.77" y="343.6" width="13.53" height="13.53"/><line class="f2d6d958-3436-4141-a381-78886ff4d8d2" x1="107.28" y1="343.6" x2="107.28" y2="340.34"/><line class="f2d6d958-3436-4141-a381-78886ff4d8d2" x1="111.54" y1="343.6" x2="111.54" y2="340.34"/><line class="f2d6d958-3436-4141-a381-78886ff4d8d2" x1="115.8" y1="343.6" x2="115.8" y2="340.34"/><line class="f2d6d958-3436-4141-a381-78886ff4d8d2" x1="107.28" y1="360.64" x2="107.28" y2="357.38"/><line class="f2d6d958-3436-4141-a381-78886ff4d8d2" x1="111.54" y1="360.64" x2="111.54" y2="357.38"/><line class="f2d6d958-3436-4141-a381-78886ff4d8d2" x1="115.8" y1="360.64" x2="115.8" y2="357.38"/><line class="f2d6d958-3436-4141-a381-78886ff4d8d2" x1="104.65" y1="354.75" x2="101.39" y2="354.75"/><line class="f2d6d958-3436-4141-a381-78886ff4d8d2" x1="104.65" y1="350.49" x2="101.39" y2="350.49"/><line class="f2d6d958-3436-4141-a381-78886ff4d8d2" x1="104.65" y1="346.23" x2="101.39" y2="346.23"/><line class="f2d6d958-3436-4141-a381-78886ff4d8d2" x1="121.68" y1="354.75" x2="118.43" y2="354.75"/><line class="f2d6d958-3436-4141-a381-78886ff4d8d2" x1="121.68" y1="350.49" x2="118.43" y2="350.49"/><line class="f2d6d958-3436-4141-a381-78886ff4d8d2" x1="121.68" y1="346.23" x2="118.43" y2="346.23"/><rect class="ab3e2d58-a4f0-4070-a151-5237736d46f9" x="108.53" y="347.36" width="6.01" height="6.01" rx="2"/><rect class="ab3e2d58-a4f0-4070-a151-5237736d46f9" x="216.25" y="321.93" width="57.12" height="57.12" rx="3"/><polygon class="b50d01cd-a752-4ab1-ab00-9430d8da761f" points="258.84 358.58 258.84 342.4 244.81 334.31 230.79 342.4 230.79 358.58 244.81 366.67 258.84 358.58"/><line class="f0342664-c164-48dd-98b3-848d2ee3568d" x1="413.26" y1="174.9" x2="280.55" y2="174.9"/><polygon class="fc69a095-6b1b-496a-8d29-8033f30a76e4" points="411.81 169.92 420.44 174.9 411.81 179.89 411.81 169.92"/><polygon class="fc69a095-6b1b-496a-8d29-8033f30a76e4" points="282.01 169.92 273.37 174.9 282.01 179.89 282.01 169.92"/><line class="f0342664-c164-48dd-98b3-848d2ee3568d" x1="283.45" y1="350.36" x2="413.26" y2="350.36"/><polygon class="fc69a095-6b1b-496a-8d29-8033f30a76e4" points="284.9 355.35 276.27 350.37 284.9 345.38 284.9 355.35"/><polygon class="fc69a095-6b1b-496a-8d29-8033f30a76e4" points="411.81 355.35 420.44 350.37 411.81 345.38 411.81 355.35"/><line class="f0342664-c164-48dd-98b3-848d2ee3568d" x1="244.81" y1="314.75" x2="244.81" y2="210.64"/><polygon class="fc69a095-6b1b-496a-8d29-8033f30a76e4" points="249.8 313.3 244.81 321.93 239.83 313.3 249.8 313.3"/><polygon class="fc69a095-6b1b-496a-8d29-8033f30a76e4" points="249.8 212.1 244.81 203.46 239.83 212.1 249.8 212.1"/><line class="f0342664-c164-48dd-98b3-848d2ee3568d" x1="448.49" y1="314.75" x2="448.49" y2="210.64"/><polygon class="fc69a095-6b1b-496a-8d29-8033f30a76e4" points="453.48 313.3 448.49 321.93 443.5 313.3 453.48 313.3"/><polygon class="fc69a095-6b1b-496a-8d29-8033f30a76e4" points="453.48 212.1 448.49 203.46 443.5 212.1 453.48 212.1"/></g></svg>