<svg xmlns="http://www.w3.org/2000/svg" viewBox="0 0 794.48 605.18"><defs><style>.a8348b66-f0c0-41c9-9650-6b1a41e5e7a7,.b37fe2f4-527d-4f4c-a6b3-b1abf6eae3e9,.bcd6425b-193e-4aa3-9154-8e524afac852,.bdda751c-4c4c-4ea5-8d81-bfa9c71893b8,.e27ca774-a77a-4d85-8880-f3cfa040b16f,.e626ae33-471c-4c3b-b9c0-e146f11f8cc6,.f4dca14b-f78f-4eba-b862-6b74ec83ee0b{fill:none;}.a8348b66-f0c0-41c9-9650-6b1a41e5e7a7{stroke:#466bb0;stroke-dasharray:9.97 9.97;}.a8348b66-f0c0-41c9-9650-6b1a41e5e7a7,.bcd6425b-193e-4aa3-9154-8e524afac852,.bdda751c-4c4c-4ea5-8d81-bfa9c71893b8,.e626ae33-471c-4c3b-b9c0-e146f11f8cc6,.f4dca14b-f78f-4eba-b862-6b74ec83ee0b{stroke-linejoin:round;}.e2b57b88-f59e-4048-9b19-ff89d5d16218{font-size:13.88px;}.b0e13637-ac3e-4d87-a965-d5513e704b6f,.e2b57b88-f59e-4048-9b19-ff89d5d16218{font-family:Roboto-Regular, Roboto;}.e626ae33-471c-4c3b-b9c0-e146f11f8cc6{stroke:#fbb040;}.b37fe2f4-527d-4f4c-a6b3-b1abf6eae3e9,.bcd6425b-193e-4aa3-9154-8e524afac852,.e626ae33-471c-4c3b-b9c0-e146f11f8cc6,.f4dca14b-f78f-4eba-b862-6b74ec83ee0b{stroke-width:2px;}.f2a721d1-8fda-42de-a620-679c924a77fc{letter-spacing:-0.03em;}.fc9248af-966e-4063-8b0c-3fd97b8c1ff2{letter-spacing:-0.04em;}.bdda751c-4c4c-4ea5-8d81-bfa9c71893b8,.f4dca14b-f78f-4eba-b862-6b74ec83ee0b{stroke:#e905ee;}.a78688e8-c942-4c2c-9d48-6f7607a4cbe1{fill:#e6e6e6;}.fe047937-2506-4c02-ae6c-98cfe40f1844{fill:#fff;}.bdda751c-4c4c-4ea5-8d81-bfa9c71893b8{stroke-width:3px;}.b0e13637-ac3e-4d87-a965-d5513e704b6f{font-size:16.2px;}.fee82ec3-8b32-4116-abc3-e6bf9516dde3{letter-spacing:0.01em;}.f11d3f52-0173-4e65-b829-f40a21af663c{fill:#757575;}.b37fe2f4-527d-4f4c-a6b3-b1abf6eae3e9,.bcd6425b-193e-4aa3-9154-8e524afac852{stroke:#fff;}.b37fe2f4-527d-4f4c-a6b3-b1abf6eae3e9{stroke-linecap:round;}.b37fe2f4-527d-4f4c-a6b3-b1abf6eae3e9,.e27ca774-a77a-4d85-8880-f3cfa040b16f{stroke-miterlimit:10;}.e27ca774-a77a-4d85-8880-f3cfa040b16f{stroke:#090;stroke-width:4px;}.b96ee54b-5fb9-4be8-9992-0eae3679c3a6{fill:#090;}</style></defs><title>cluster-iso</title><g id="f71f044f-18f6-4239-90ae-52de65a6da5d" data-name="cluster-iso"><rect class="a8348b66-f0c0-41c9-9650-6b1a41e5e7a7" x="0.5" y="15.85" width="376.89" height="588.83" rx="10"/><text class="e2b57b88-f59e-4048-9b19-ff89d5d16218" transform="translate(0.48 11.88)">Istio Mesh: Business Unit 1</text><rect class="a8348b66-f0c0-41c9-9650-6b1a41e5e7a7" x="417.09" y="15.85" width="376.89" height="588.83" rx="10"/><text class="e2b57b88-f59e-4048-9b19-ff89d5d16218" transform="translate(417.07 11.88)">Istio Mesh: Business Unit 2 </text><rect class="e626ae33-471c-4c3b-b9c0-e146f11f8cc6" x="25.57" y="73.57" width="336.54" height="473.03" rx="10"/><text class="e2b57b88-f59e-4048-9b19-ff89d5d16218" transform="translate(25.79 69.95)">Cluster:<tspan class="f2a721d1-8fda-42de-a620-679c924a77fc" x="47.17" y="0"> </tspan><tspan class="fc9248af-966e-4063-8b0c-3fd97b8c1ff2" x="50.22" y="0">T</tspan><tspan x="57.89" y="0">eam-1</tspan></text><rect class="e626ae33-471c-4c3b-b9c0-e146f11f8cc6" x="437.26" y="73.57" width="336.54" height="473.03" rx="10"/><text class="e2b57b88-f59e-4048-9b19-ff89d5d16218" transform="translate(437.48 69.95)">Cluster:<tspan class="f2a721d1-8fda-42de-a620-679c924a77fc" x="47.17" y="0"> </tspan><tspan class="fc9248af-966e-4063-8b0c-3fd97b8c1ff2" x="50.22" y="0">T</tspan><tspan x="57.89" y="0">eam-2</tspan></text><text class="e2b57b88-f59e-4048-9b19-ff89d5d16218" transform="translate(55.67 116.15)">Namespace: bar</text><rect class="f4dca14b-f78f-4eba-b862-6b74ec83ee0b" x="55.75" y="119.63" width="286.65" height="380.78" rx="10"/><text class="e2b57b88-f59e-4048-9b19-ff89d5d16218" transform="translate(461.27 116.15)">Namespace: foo</text><rect class="f4dca14b-f78f-4eba-b862-6b74ec83ee0b" x="461.35" y="119.63" width="286.65" height="380.78" rx="10"/><rect class="a78688e8-c942-4c2c-9d48-6f7607a4cbe1" x="490.29" y="166.18" width="228.69" height="83.31" rx="3"/><rect class="fe047937-2506-4c02-ae6c-98cfe40f1844" x="500.3" y="176.59" width="62.48" height="62.48" rx="3"/><polygon class="bdda751c-4c4c-4ea5-8d81-bfa9c71893b8" points="546.88 216.69 546.88 198.98 531.54 190.13 516.19 198.98 516.19 216.69 531.54 225.54 546.88 216.69"/><rect class="fe047937-2506-4c02-ae6c-98cfe40f1844" x="573.19" y="176.59" width="135.38" height="62.48" rx="3"/><text class="b0e13637-ac3e-4d87-a965-d5513e704b6f" transform="translate(633.89 213.43)">Se<tspan class="fee82ec3-8b32-4116-abc3-e6bf9516dde3" x="18.19" y="0">r</tspan><tspan x="23.82" y="0">vice C</tspan></text><circle class="f11d3f52-0173-4e65-b829-f40a21af663c" cx="604.43" cy="207.83" r="20.83"/><rect class="bcd6425b-193e-4aa3-9154-8e524afac852" x="597.03" y="200.3" width="14.8" height="14.8"/><line class="b37fe2f4-527d-4f4c-a6b3-b1abf6eae3e9" x1="599.77" y1="200.3" x2="599.77" y2="196.73"/><line class="b37fe2f4-527d-4f4c-a6b3-b1abf6eae3e9" x1="604.43" y1="200.3" x2="604.43" y2="196.73"/><line class="b37fe2f4-527d-4f4c-a6b3-b1abf6eae3e9" x1="609.09" y1="200.3" x2="609.09" y2="196.73"/><line class="b37fe2f4-527d-4f4c-a6b3-b1abf6eae3e9" x1="599.77" y1="218.93" x2="599.77" y2="215.37"/><line class="b37fe2f4-527d-4f4c-a6b3-b1abf6eae3e9" x1="604.43" y1="218.93" x2="604.43" y2="215.37"/><line class="b37fe2f4-527d-4f4c-a6b3-b1abf6eae3e9" x1="609.09" y1="218.93" x2="609.09" y2="215.37"/><line class="b37fe2f4-527d-4f4c-a6b3-b1abf6eae3e9" x1="596.89" y1="212.49" x2="593.33" y2="212.49"/><line class="b37fe2f4-527d-4f4c-a6b3-b1abf6eae3e9" x1="596.89" y1="207.83" x2="593.33" y2="207.83"/><line class="b37fe2f4-527d-4f4c-a6b3-b1abf6eae3e9" x1="596.89" y1="203.17" x2="593.33" y2="203.17"/><line class="b37fe2f4-527d-4f4c-a6b3-b1abf6eae3e9" x1="615.53" y1="212.49" x2="611.97" y2="212.49"/><line class="b37fe2f4-527d-4f4c-a6b3-b1abf6eae3e9" x1="615.53" y1="207.83" x2="611.97" y2="207.83"/><line class="b37fe2f4-527d-4f4c-a6b3-b1abf6eae3e9" x1="615.53" y1="203.17" x2="611.97" y2="203.17"/><rect class="fe047937-2506-4c02-ae6c-98cfe40f1844" x="601.14" y="204.41" width="6.58" height="6.58" rx="2"/><rect class="a78688e8-c942-4c2c-9d48-6f7607a4cbe1" x="84.69" y="166.18" width="228.69" height="83.31" rx="3"/><rect class="fe047937-2506-4c02-ae6c-98cfe40f1844" x="94.7" y="176.59" width="135.38" height="62.48" rx="3"/><text class="b0e13637-ac3e-4d87-a965-d5513e704b6f" transform="translate(155.38 213.43)">Se<tspan class="fee82ec3-8b32-4116-abc3-e6bf9516dde3" x="18.19" y="0">r</tspan><tspan x="23.82" y="0">vice A</tspan></text><circle class="f11d3f52-0173-4e65-b829-f40a21af663c" cx="125.94" cy="207.83" r="20.83"/><rect class="bcd6425b-193e-4aa3-9154-8e524afac852" x="118.54" y="200.3" width="14.8" height="14.8"/><line class="b37fe2f4-527d-4f4c-a6b3-b1abf6eae3e9" x1="121.28" y1="200.3" x2="121.28" y2="196.73"/><line class="b37fe2f4-527d-4f4c-a6b3-b1abf6eae3e9" x1="125.94" y1="200.3" x2="125.94" y2="196.73"/><line class="b37fe2f4-527d-4f4c-a6b3-b1abf6eae3e9" x1="130.6" y1="200.3" x2="130.6" y2="196.73"/><line class="b37fe2f4-527d-4f4c-a6b3-b1abf6eae3e9" x1="121.28" y1="218.93" x2="121.28" y2="215.37"/><line class="b37fe2f4-527d-4f4c-a6b3-b1abf6eae3e9" x1="125.94" y1="218.93" x2="125.94" y2="215.37"/><line class="b37fe2f4-527d-4f4c-a6b3-b1abf6eae3e9" x1="130.6" y1="218.93" x2="130.6" y2="215.37"/><line class="b37fe2f4-527d-4f4c-a6b3-b1abf6eae3e9" x1="118.4" y1="212.49" x2="114.84" y2="212.49"/><line class="b37fe2f4-527d-4f4c-a6b3-b1abf6eae3e9" x1="118.4" y1="207.83" x2="114.84" y2="207.83"/><line class="b37fe2f4-527d-4f4c-a6b3-b1abf6eae3e9" x1="118.4" y1="203.17" x2="114.84" y2="203.17"/><line class="b37fe2f4-527d-4f4c-a6b3-b1abf6eae3e9" x1="137.04" y1="212.49" x2="133.47" y2="212.49"/><line class="b37fe2f4-527d-4f4c-a6b3-b1abf6eae3e9" x1="137.04" y1="207.83" x2="133.47" y2="207.83"/><line class="b37fe2f4-527d-4f4c-a6b3-b1abf6eae3e9" x1="137.04" y1="203.17" x2="133.47" y2="203.17"/><rect class="fe047937-2506-4c02-ae6c-98cfe40f1844" x="122.65" y="204.41" width="6.58" height="6.58" rx="2"/><rect class="fe047937-2506-4c02-ae6c-98cfe40f1844" x="240.49" y="176.59" width="62.48" height="62.48" rx="3"/><polygon class="bdda751c-4c4c-4ea5-8d81-bfa9c71893b8" points="287.07 216.69 287.07 198.98 271.73 190.13 256.39 198.98 256.39 216.69 271.73 225.54 287.07 216.69"/><rect class="a78688e8-c942-4c2c-9d48-6f7607a4cbe1" x="490.29" y="358.25" width="228.69" height="83.31" rx="3"/><rect class="fe047937-2506-4c02-ae6c-98cfe40f1844" x="500.3" y="368.67" width="62.48" height="62.48" rx="3"/><polygon class="bdda751c-4c4c-4ea5-8d81-bfa9c71893b8" points="546.88 408.76 546.88 391.06 531.54 382.2 516.19 391.06 516.19 408.76 531.54 417.61 546.88 408.76"/><rect class="fe047937-2506-4c02-ae6c-98cfe40f1844" x="573.19" y="368.67" width="135.38" height="62.48" rx="3"/><text class="b0e13637-ac3e-4d87-a965-d5513e704b6f" transform="translate(633.85 405.51)">Se<tspan class="fee82ec3-8b32-4116-abc3-e6bf9516dde3" x="18.19" y="0">r</tspan><tspan x="23.82" y="0">vice D</tspan></text><circle class="f11d3f52-0173-4e65-b829-f40a21af663c" cx="604.43" cy="399.91" r="20.83"/><rect class="bcd6425b-193e-4aa3-9154-8e524afac852" x="597.03" y="392.37" width="14.8" height="14.8"/><line class="b37fe2f4-527d-4f4c-a6b3-b1abf6eae3e9" x1="599.77" y1="392.37" x2="599.77" y2="388.81"/><line class="b37fe2f4-527d-4f4c-a6b3-b1abf6eae3e9" x1="604.43" y1="392.37" x2="604.43" y2="388.81"/><line class="b37fe2f4-527d-4f4c-a6b3-b1abf6eae3e9" x1="609.09" y1="392.37" x2="609.09" y2="388.81"/><line class="b37fe2f4-527d-4f4c-a6b3-b1abf6eae3e9" x1="599.77" y1="411.01" x2="599.77" y2="407.44"/><line class="b37fe2f4-527d-4f4c-a6b3-b1abf6eae3e9" x1="604.43" y1="411.01" x2="604.43" y2="407.44"/><line class="b37fe2f4-527d-4f4c-a6b3-b1abf6eae3e9" x1="609.09" y1="411.01" x2="609.09" y2="407.44"/><line class="b37fe2f4-527d-4f4c-a6b3-b1abf6eae3e9" x1="596.89" y1="404.57" x2="593.33" y2="404.57"/><line class="b37fe2f4-527d-4f4c-a6b3-b1abf6eae3e9" x1="596.89" y1="399.91" x2="593.33" y2="399.91"/><line class="b37fe2f4-527d-4f4c-a6b3-b1abf6eae3e9" x1="596.89" y1="395.25" x2="593.33" y2="395.25"/><line class="b37fe2f4-527d-4f4c-a6b3-b1abf6eae3e9" x1="615.53" y1="404.57" x2="611.97" y2="404.57"/><line class="b37fe2f4-527d-4f4c-a6b3-b1abf6eae3e9" x1="615.53" y1="399.91" x2="611.97" y2="399.91"/><line class="b37fe2f4-527d-4f4c-a6b3-b1abf6eae3e9" x1="615.53" y1="395.25" x2="611.97" y2="395.25"/><rect class="fe047937-2506-4c02-ae6c-98cfe40f1844" x="601.14" y="396.48" width="6.58" height="6.58" rx="2"/><rect class="a78688e8-c942-4c2c-9d48-6f7607a4cbe1" x="84.69" y="358.25" width="228.69" height="83.31" rx="3"/><rect class="fe047937-2506-4c02-ae6c-98cfe40f1844" x="94.7" y="368.67" width="135.38" height="62.48" rx="3"/><text class="b0e13637-ac3e-4d87-a965-d5513e704b6f" transform="translate(155.62 405.51)">Se<tspan class="fee82ec3-8b32-4116-abc3-e6bf9516dde3" x="18.19" y="0">r</tspan><tspan x="23.82" y="0">vice B</tspan></text><circle class="f11d3f52-0173-4e65-b829-f40a21af663c" cx="125.94" cy="399.91" r="20.83"/><rect class="bcd6425b-193e-4aa3-9154-8e524afac852" x="118.54" y="392.37" width="14.8" height="14.8"/><line class="b37fe2f4-527d-4f4c-a6b3-b1abf6eae3e9" x1="121.28" y1="392.37" x2="121.28" y2="388.81"/><line class="b37fe2f4-527d-4f4c-a6b3-b1abf6eae3e9" x1="125.94" y1="392.37" x2="125.94" y2="388.81"/><line class="b37fe2f4-527d-4f4c-a6b3-b1abf6eae3e9" x1="130.6" y1="392.37" x2="130.6" y2="388.81"/><line class="b37fe2f4-527d-4f4c-a6b3-b1abf6eae3e9" x1="121.28" y1="411.01" x2="121.28" y2="407.44"/><line class="b37fe2f4-527d-4f4c-a6b3-b1abf6eae3e9" x1="125.94" y1="411.01" x2="125.94" y2="407.44"/><line class="b37fe2f4-527d-4f4c-a6b3-b1abf6eae3e9" x1="130.6" y1="411.01" x2="130.6" y2="407.44"/><line class="b37fe2f4-527d-4f4c-a6b3-b1abf6eae3e9" x1="118.4" y1="404.57" x2="114.84" y2="404.57"/><line class="b37fe2f4-527d-4f4c-a6b3-b1abf6eae3e9" x1="118.4" y1="399.91" x2="114.84" y2="399.91"/><line class="b37fe2f4-527d-4f4c-a6b3-b1abf6eae3e9" x1="118.4" y1="395.25" x2="114.84" y2="395.25"/><line class="b37fe2f4-527d-4f4c-a6b3-b1abf6eae3e9" x1="137.04" y1="404.57" x2="133.47" y2="404.57"/><line class="b37fe2f4-527d-4f4c-a6b3-b1abf6eae3e9" x1="137.04" y1="399.91" x2="133.47" y2="399.91"/><line class="b37fe2f4-527d-4f4c-a6b3-b1abf6eae3e9" x1="137.04" y1="395.25" x2="133.47" y2="395.25"/><rect class="fe047937-2506-4c02-ae6c-98cfe40f1844" x="122.65" y="396.48" width="6.58" height="6.58" rx="2"/><rect class="fe047937-2506-4c02-ae6c-98cfe40f1844" x="240.49" y="368.67" width="62.48" height="62.48" rx="3"/><polygon class="bdda751c-4c4c-4ea5-8d81-bfa9c71893b8" points="287.07 408.76 287.07 391.06 271.73 382.2 256.39 391.06 256.39 408.76 271.73 417.61 287.07 408.76"/><line class="e27ca774-a77a-4d85-8880-f3cfa040b16f" x1="271.73" y1="246.25" x2="271.73" y2="361.49"/><polygon class="b96ee54b-5fb9-4be8-9992-0eae3679c3a6" points="266.74 247.71 271.73 239.07 276.71 247.71 266.74 247.71"/><polygon class="b96ee54b-5fb9-4be8-9992-0eae3679c3a6" points="266.74 360.03 271.73 368.67 276.71 360.03 266.74 360.03"/><line class="e27ca774-a77a-4d85-8880-f3cfa040b16f" x1="531.54" y1="246.25" x2="531.54" y2="361.49"/><polygon class="b96ee54b-5fb9-4be8-9992-0eae3679c3a6" points="526.55 247.71 531.54 239.07 536.52 247.71 526.55 247.71"/><polygon class="b96ee54b-5fb9-4be8-9992-0eae3679c3a6" points="526.55 360.03 531.54 368.67 536.52 360.03 526.55 360.03"/></g></svg>