<svg xmlns="http://www.w3.org/2000/svg" viewBox="0 0 794.48 605.18"><defs><style>.a60c984d-4186-4bf1-8def-99b5e7f6596a,.a79467dc-3678-4362-b6d0-160029511391,.b4971398-89e5-4f37-8797-d9a88e248a78,.b5667360-ca4a-473f-875a-8ab2d14a0c62,.b973924d-d1cd-4493-a606-cd5da2af4f7a,.e3b9ca9a-06ae-48b0-b237-aaedb6f3ba49,.fdb51a02-7e58-4194-8036-673ccf7dfa99{fill:none;}.e3b9ca9a-06ae-48b0-b237-aaedb6f3ba49{stroke:#466bb0;stroke-dasharray:9.97 9.97;}.a60c984d-4186-4bf1-8def-99b5e7f6596a,.a79467dc-3678-4362-b6d0-160029511391,.b5667360-ca4a-473f-875a-8ab2d14a0c62,.e3b9ca9a-06ae-48b0-b237-aaedb6f3ba49,.fdb51a02-7e58-4194-8036-673ccf7dfa99{stroke-linejoin:round;}.eba8737b-3158-4261-bd4b-15bf9c547623{font-size:13.88px;}.eba8737b-3158-4261-bd4b-15bf9c547623,.f1ea531e-8cbe-4471-8e6f-13c66b6f4749{font-family:Roboto-Regular, Roboto;}.a60c984d-4186-4bf1-8def-99b5e7f6596a{stroke:#fbb040;}.a60c984d-4186-4bf1-8def-99b5e7f6596a,.a79467dc-3678-4362-b6d0-160029511391,.b4971398-89e5-4f37-8797-d9a88e248a78,.b5667360-ca4a-473f-875a-8ab2d14a0c62{stroke-width:2px;}.b5a2688c-5707-4604-9a35-84a6a1da216b{letter-spacing:-0.03em;}.bb07927b-b2ed-46ea-8067-d8344a380c6b{letter-spacing:-0.04em;}.b5667360-ca4a-473f-875a-8ab2d14a0c62,.fdb51a02-7e58-4194-8036-673ccf7dfa99{stroke:#e905ee;}.accb3f93-b32a-4b59-bf84-d4a7d0244886{fill:#e6e6e6;}.bc5045b5-855e-44fd-84c8-f593aad604f4{fill:#fff;}.fdb51a02-7e58-4194-8036-673ccf7dfa99{stroke-width:3px;}.f1ea531e-8cbe-4471-8e6f-13c66b6f4749{font-size:16.2px;}.be7d41ee-de81-4da8-bbb4-6991bc5e9baf{letter-spacing:0.01em;}.add76ed5-0af2-4f53-83db-c1f605d2c1ce{fill:#757575;}.a79467dc-3678-4362-b6d0-160029511391,.b4971398-89e5-4f37-8797-d9a88e248a78{stroke:#fff;}.b4971398-89e5-4f37-8797-d9a88e248a78{stroke-linecap:round;}.b4971398-89e5-4f37-8797-d9a88e248a78,.b973924d-d1cd-4493-a606-cd5da2af4f7a{stroke-miterlimit:10;}.b973924d-d1cd-4493-a606-cd5da2af4f7a{stroke:#090;stroke-width:4px;}.a3220650-707d-4a30-bbbb-3126de5dced9{fill:#090;}</style></defs><title>cluster-iso</title><g id="ada3b081-4c71-40e3-8481-fca51969ea40" data-name="cluster-iso"><rect class="e3b9ca9a-06ae-48b0-b237-aaedb6f3ba49" x="0.5" y="15.85" width="376.89" height="588.83" rx="10"/><text class="eba8737b-3158-4261-bd4b-15bf9c547623" transform="translate(0.48 11.88)">Istio Mesh: Business Unit 1</text><rect class="e3b9ca9a-06ae-48b0-b237-aaedb6f3ba49" x="417.09" y="15.85" width="376.89" height="588.83" rx="10"/><text class="eba8737b-3158-4261-bd4b-15bf9c547623" transform="translate(417.07 11.88)">Istio Mesh: Business Unit 2 </text><rect class="a60c984d-4186-4bf1-8def-99b5e7f6596a" x="25.57" y="73.57" width="336.54" height="473.03" rx="10"/><text class="eba8737b-3158-4261-bd4b-15bf9c547623" transform="translate(25.79 69.95)">Cluster:<tspan class="b5a2688c-5707-4604-9a35-84a6a1da216b" x="47.17" y="0"> </tspan><tspan class="bb07927b-b2ed-46ea-8067-d8344a380c6b" x="50.22" y="0">T</tspan><tspan x="57.89" y="0">eam-1</tspan></text><rect class="a60c984d-4186-4bf1-8def-99b5e7f6596a" x="437.26" y="73.57" width="336.54" height="473.03" rx="10"/><text class="eba8737b-3158-4261-bd4b-15bf9c547623" transform="translate(437.48 69.95)">Cluster:<tspan class="b5a2688c-5707-4604-9a35-84a6a1da216b" x="47.17" y="0"> </tspan><tspan class="bb07927b-b2ed-46ea-8067-d8344a380c6b" x="50.22" y="0">T</tspan><tspan x="57.89" y="0">eam-2</tspan></text><text class="eba8737b-3158-4261-bd4b-15bf9c547623" transform="translate(55.67 116.15)">Namespace: bar</text><rect class="b5667360-ca4a-473f-875a-8ab2d14a0c62" x="55.75" y="119.63" width="286.65" height="380.78" rx="10"/><text class="eba8737b-3158-4261-bd4b-15bf9c547623" transform="translate(461.27 116.15)">Namespace: foo</text><rect class="b5667360-ca4a-473f-875a-8ab2d14a0c62" x="461.35" y="119.63" width="286.65" height="380.78" rx="10"/><rect class="accb3f93-b32a-4b59-bf84-d4a7d0244886" x="490.29" y="166.18" width="228.69" height="83.31" rx="3"/><rect class="bc5045b5-855e-44fd-84c8-f593aad604f4" x="500.3" y="176.59" width="62.48" height="62.48" rx="3"/><polygon class="fdb51a02-7e58-4194-8036-673ccf7dfa99" points="546.88 216.69 546.88 198.98 531.54 190.13 516.19 198.98 516.19 216.69 531.54 225.54 546.88 216.69"/><rect class="bc5045b5-855e-44fd-84c8-f593aad604f4" x="573.19" y="176.59" width="135.38" height="62.48" rx="3"/><text class="f1ea531e-8cbe-4471-8e6f-13c66b6f4749" transform="translate(633.89 213.43)">Se<tspan class="be7d41ee-de81-4da8-bbb4-6991bc5e9baf" x="18.19" y="0">r</tspan><tspan x="23.82" y="0">vice C</tspan></text><circle class="add76ed5-0af2-4f53-83db-c1f605d2c1ce" cx="604.43" cy="207.83" r="20.83"/><rect class="a79467dc-3678-4362-b6d0-160029511391" x="597.03" y="200.3" width="14.8" height="14.8"/><line class="b4971398-89e5-4f37-8797-d9a88e248a78" x1="599.77" y1="200.3" x2="599.77" y2="196.73"/><line class="b4971398-89e5-4f37-8797-d9a88e248a78" x1="604.43" y1="200.3" x2="604.43" y2="196.73"/><line class="b4971398-89e5-4f37-8797-d9a88e248a78" x1="609.09" y1="200.3" x2="609.09" y2="196.73"/><line class="b4971398-89e5-4f37-8797-d9a88e248a78" x1="599.77" y1="218.93" x2="599.77" y2="215.37"/><line class="b4971398-89e5-4f37-8797-d9a88e248a78" x1="604.43" y1="218.93" x2="604.43" y2="215.37"/><line class="b4971398-89e5-4f37-8797-d9a88e248a78" x1="609.09" y1="218.93" x2="609.09" y2="215.37"/><line class="b4971398-89e5-4f37-8797-d9a88e248a78" x1="596.89" y1="212.49" x2="593.33" y2="212.49"/><line class="b4971398-89e5-4f37-8797-d9a88e248a78" x1="596.89" y1="207.83" x2="593.33" y2="207.83"/><line class="b4971398-89e5-4f37-8797-d9a88e248a78" x1="596.89" y1="203.17" x2="593.33" y2="203.17"/><line class="b4971398-89e5-4f37-8797-d9a88e248a78" x1="615.53" y1="212.49" x2="611.97" y2="212.49"/><line class="b4971398-89e5-4f37-8797-d9a88e248a78" x1="615.53" y1="207.83" x2="611.97" y2="207.83"/><line class="b4971398-89e5-4f37-8797-d9a88e248a78" x1="615.53" y1="203.17" x2="611.97" y2="203.17"/><rect class="bc5045b5-855e-44fd-84c8-f593aad604f4" x="601.14" y="204.41" width="6.58" height="6.58" rx="2"/><rect class="accb3f93-b32a-4b59-bf84-d4a7d0244886" x="84.69" y="166.18" width="228.69" height="83.31" rx="3"/><rect class="bc5045b5-855e-44fd-84c8-f593aad604f4" x="94.7" y="176.59" width="135.38" height="62.48" rx="3"/><text class="f1ea531e-8cbe-4471-8e6f-13c66b6f4749" transform="translate(155.38 213.43)">Se<tspan class="be7d41ee-de81-4da8-bbb4-6991bc5e9baf" x="18.19" y="0">r</tspan><tspan x="23.82" y="0">vice A</tspan></text><circle class="add76ed5-0af2-4f53-83db-c1f605d2c1ce" cx="125.94" cy="207.83" r="20.83"/><rect class="a79467dc-3678-4362-b6d0-160029511391" x="118.54" y="200.3" width="14.8" height="14.8"/><line class="b4971398-89e5-4f37-8797-d9a88e248a78" x1="121.28" y1="200.3" x2="121.28" y2="196.73"/><line class="b4971398-89e5-4f37-8797-d9a88e248a78" x1="125.94" y1="200.3" x2="125.94" y2="196.73"/><line class="b4971398-89e5-4f37-8797-d9a88e248a78" x1="130.6" y1="200.3" x2="130.6" y2="196.73"/><line class="b4971398-89e5-4f37-8797-d9a88e248a78" x1="121.28" y1="218.93" x2="121.28" y2="215.37"/><line class="b4971398-89e5-4f37-8797-d9a88e248a78" x1="125.94" y1="218.93" x2="125.94" y2="215.37"/><line class="b4971398-89e5-4f37-8797-d9a88e248a78" x1="130.6" y1="218.93" x2="130.6" y2="215.37"/><line class="b4971398-89e5-4f37-8797-d9a88e248a78" x1="118.4" y1="212.49" x2="114.84" y2="212.49"/><line class="b4971398-89e5-4f37-8797-d9a88e248a78" x1="118.4" y1="207.83" x2="114.84" y2="207.83"/><line class="b4971398-89e5-4f37-8797-d9a88e248a78" x1="118.4" y1="203.17" x2="114.84" y2="203.17"/><line class="b4971398-89e5-4f37-8797-d9a88e248a78" x1="137.04" y1="212.49" x2="133.47" y2="212.49"/><line class="b4971398-89e5-4f37-8797-d9a88e248a78" x1="137.04" y1="207.83" x2="133.47" y2="207.83"/><line class="b4971398-89e5-4f37-8797-d9a88e248a78" x1="137.04" y1="203.17" x2="133.47" y2="203.17"/><rect class="bc5045b5-855e-44fd-84c8-f593aad604f4" x="122.65" y="204.41" width="6.58" height="6.58" rx="2"/><rect class="bc5045b5-855e-44fd-84c8-f593aad604f4" x="240.49" y="176.59" width="62.48" height="62.48" rx="3"/><polygon class="fdb51a02-7e58-4194-8036-673ccf7dfa99" points="287.07 216.69 287.07 198.98 271.73 190.13 256.39 198.98 256.39 216.69 271.73 225.54 287.07 216.69"/><rect class="accb3f93-b32a-4b59-bf84-d4a7d0244886" x="490.29" y="358.25" width="228.69" height="83.31" rx="3"/><rect class="bc5045b5-855e-44fd-84c8-f593aad604f4" x="500.3" y="368.67" width="62.48" height="62.48" rx="3"/><polygon class="fdb51a02-7e58-4194-8036-673ccf7dfa99" points="546.88 408.76 546.88 391.06 531.54 382.2 516.19 391.06 516.19 408.76 531.54 417.61 546.88 408.76"/><rect class="bc5045b5-855e-44fd-84c8-f593aad604f4" x="573.19" y="368.67" width="135.38" height="62.48" rx="3"/><text class="f1ea531e-8cbe-4471-8e6f-13c66b6f4749" transform="translate(633.85 405.51)">Se<tspan class="be7d41ee-de81-4da8-bbb4-6991bc5e9baf" x="18.19" y="0">r</tspan><tspan x="23.82" y="0">vice D</tspan></text><circle class="add76ed5-0af2-4f53-83db-c1f605d2c1ce" cx="604.43" cy="399.91" r="20.83"/><rect class="a79467dc-3678-4362-b6d0-160029511391" x="597.03" y="392.37" width="14.8" height="14.8"/><line class="b4971398-89e5-4f37-8797-d9a88e248a78" x1="599.77" y1="392.37" x2="599.77" y2="388.81"/><line class="b4971398-89e5-4f37-8797-d9a88e248a78" x1="604.43" y1="392.37" x2="604.43" y2="388.81"/><line class="b4971398-89e5-4f37-8797-d9a88e248a78" x1="609.09" y1="392.37" x2="609.09" y2="388.81"/><line class="b4971398-89e5-4f37-8797-d9a88e248a78" x1="599.77" y1="411.01" x2="599.77" y2="407.44"/><line class="b4971398-89e5-4f37-8797-d9a88e248a78" x1="604.43" y1="411.01" x2="604.43" y2="407.44"/><line class="b4971398-89e5-4f37-8797-d9a88e248a78" x1="609.09" y1="411.01" x2="609.09" y2="407.44"/><line class="b4971398-89e5-4f37-8797-d9a88e248a78" x1="596.89" y1="404.57" x2="593.33" y2="404.57"/><line class="b4971398-89e5-4f37-8797-d9a88e248a78" x1="596.89" y1="399.91" x2="593.33" y2="399.91"/><line class="b4971398-89e5-4f37-8797-d9a88e248a78" x1="596.89" y1="395.25" x2="593.33" y2="395.25"/><line class="b4971398-89e5-4f37-8797-d9a88e248a78" x1="615.53" y1="404.57" x2="611.97" y2="404.57"/><line class="b4971398-89e5-4f37-8797-d9a88e248a78" x1="615.53" y1="399.91" x2="611.97" y2="399.91"/><line class="b4971398-89e5-4f37-8797-d9a88e248a78" x1="615.53" y1="395.25" x2="611.97" y2="395.25"/><rect class="bc5045b5-855e-44fd-84c8-f593aad604f4" x="601.14" y="396.48" width="6.58" height="6.58" rx="2"/><rect class="accb3f93-b32a-4b59-bf84-d4a7d0244886" x="84.69" y="358.25" width="228.69" height="83.31" rx="3"/><rect class="bc5045b5-855e-44fd-84c8-f593aad604f4" x="94.7" y="368.67" width="135.38" height="62.48" rx="3"/><text class="f1ea531e-8cbe-4471-8e6f-13c66b6f4749" transform="translate(155.62 405.51)">Se<tspan class="be7d41ee-de81-4da8-bbb4-6991bc5e9baf" x="18.19" y="0">r</tspan><tspan x="23.82" y="0">vice B</tspan></text><circle class="add76ed5-0af2-4f53-83db-c1f605d2c1ce" cx="125.94" cy="399.91" r="20.83"/><rect class="a79467dc-3678-4362-b6d0-160029511391" x="118.54" y="392.37" width="14.8" height="14.8"/><line class="b4971398-89e5-4f37-8797-d9a88e248a78" x1="121.28" y1="392.37" x2="121.28" y2="388.81"/><line class="b4971398-89e5-4f37-8797-d9a88e248a78" x1="125.94" y1="392.37" x2="125.94" y2="388.81"/><line class="b4971398-89e5-4f37-8797-d9a88e248a78" x1="130.6" y1="392.37" x2="130.6" y2="388.81"/><line class="b4971398-89e5-4f37-8797-d9a88e248a78" x1="121.28" y1="411.01" x2="121.28" y2="407.44"/><line class="b4971398-89e5-4f37-8797-d9a88e248a78" x1="125.94" y1="411.01" x2="125.94" y2="407.44"/><line class="b4971398-89e5-4f37-8797-d9a88e248a78" x1="130.6" y1="411.01" x2="130.6" y2="407.44"/><line class="b4971398-89e5-4f37-8797-d9a88e248a78" x1="118.4" y1="404.57" x2="114.84" y2="404.57"/><line class="b4971398-89e5-4f37-8797-d9a88e248a78" x1="118.4" y1="399.91" x2="114.84" y2="399.91"/><line class="b4971398-89e5-4f37-8797-d9a88e248a78" x1="118.4" y1="395.25" x2="114.84" y2="395.25"/><line class="b4971398-89e5-4f37-8797-d9a88e248a78" x1="137.04" y1="404.57" x2="133.47" y2="404.57"/><line class="b4971398-89e5-4f37-8797-d9a88e248a78" x1="137.04" y1="399.91" x2="133.47" y2="399.91"/><line class="b4971398-89e5-4f37-8797-d9a88e248a78" x1="137.04" y1="395.25" x2="133.47" y2="395.25"/><rect class="bc5045b5-855e-44fd-84c8-f593aad604f4" x="122.65" y="396.48" width="6.58" height="6.58" rx="2"/><rect class="bc5045b5-855e-44fd-84c8-f593aad604f4" x="240.49" y="368.67" width="62.48" height="62.48" rx="3"/><polygon class="fdb51a02-7e58-4194-8036-673ccf7dfa99" points="287.07 408.76 287.07 391.06 271.73 382.2 256.39 391.06 256.39 408.76 271.73 417.61 287.07 408.76"/><line class="b973924d-d1cd-4493-a606-cd5da2af4f7a" x1="271.73" y1="246.25" x2="271.73" y2="361.49"/><polygon class="a3220650-707d-4a30-bbbb-3126de5dced9" points="266.74 247.71 271.73 239.07 276.71 247.71 266.74 247.71"/><polygon class="a3220650-707d-4a30-bbbb-3126de5dced9" points="266.74 360.03 271.73 368.67 276.71 360.03 266.74 360.03"/><line class="b973924d-d1cd-4493-a606-cd5da2af4f7a" x1="531.54" y1="246.25" x2="531.54" y2="361.49"/><polygon class="a3220650-707d-4a30-bbbb-3126de5dced9" points="526.55 247.71 531.54 239.07 536.52 247.71 526.55 247.71"/><polygon class="a3220650-707d-4a30-bbbb-3126de5dced9" points="526.55 360.03 531.54 368.67 536.52 360.03 526.55 360.03"/></g></svg>