<svg xmlns="http://www.w3.org/2000/svg" viewBox="0 0 686.77 523.1"><defs><style>.a1b7f4e1-6cfb-4ba1-a209-fe86e4e9950e,.a3c982ea-7d5b-4f0e-b74c-739ca33cf5c7,.afa556ae-2a7f-4264-acf6-c1d20df09397,.b088ae7f-8d91-46f0-b767-81d798f29ab4,.b147c5b3-5c61-4a0c-a1d4-a4013970f185,.b6cd9dea-af88-4f08-8aeb-0d26d2142abe,.b872bad5-ae4b-4a6c-9431-62fadb3b1f0d{fill:none;}.b872bad5-ae4b-4a6c-9431-62fadb3b1f0d{stroke:#466bb0;stroke-dasharray:9.95 9.95;}.a3c982ea-7d5b-4f0e-b74c-739ca33cf5c7,.afa556ae-2a7f-4264-acf6-c1d20df09397,.b088ae7f-8d91-46f0-b767-81d798f29ab4,.b147c5b3-5c61-4a0c-a1d4-a4013970f185,.b872bad5-ae4b-4a6c-9431-62fadb3b1f0d{stroke-linejoin:round;}.b867669a-e6a6-4c19-9784-411c04f3ec93{font-size:12px;}.b6f601eb-9349-4c96-92bf-a72c5f48d98b,.b867669a-e6a6-4c19-9784-411c04f3ec93{font-family:Roboto-Regular, Roboto;}.afa556ae-2a7f-4264-acf6-c1d20df09397{stroke:#fbb040;}.afa556ae-2a7f-4264-acf6-c1d20df09397,.b088ae7f-8d91-46f0-b767-81d798f29ab4,.b147c5b3-5c61-4a0c-a1d4-a4013970f185,.b6cd9dea-af88-4f08-8aeb-0d26d2142abe{stroke-width:2px;}.bf2a7dde-a15c-43a7-8a9f-8ccaff890a82{letter-spacing:-0.03em;}.b04772d5-379b-4e5b-922b-367000707904{letter-spacing:-0.04em;}.a3c982ea-7d5b-4f0e-b74c-739ca33cf5c7,.b088ae7f-8d91-46f0-b767-81d798f29ab4{stroke:#e905ee;}.aa0c763e-5f7e-48f7-bee5-5457c31a49ba{fill:#e6e6e6;}.b183bf07-269c-44da-a916-9d14c52fa1e7{fill:#fff;}.a3c982ea-7d5b-4f0e-b74c-739ca33cf5c7{stroke-width:3px;}.b6f601eb-9349-4c96-92bf-a72c5f48d98b{font-size:14px;}.a81d75ed-f943-4c1e-98f9-eed5a0fe1664{letter-spacing:0.01em;}.a67b28e3-958e-4cd0-918f-9a5d30cf48fe{fill:#757575;}.b147c5b3-5c61-4a0c-a1d4-a4013970f185,.b6cd9dea-af88-4f08-8aeb-0d26d2142abe{stroke:#fff;}.b6cd9dea-af88-4f08-8aeb-0d26d2142abe{stroke-linecap:round;}.a1b7f4e1-6cfb-4ba1-a209-fe86e4e9950e,.b6cd9dea-af88-4f08-8aeb-0d26d2142abe{stroke-miterlimit:10;}.a1b7f4e1-6cfb-4ba1-a209-fe86e4e9950e{stroke:#090;stroke-width:4px;}.af6d2534-b1a0-4c94-ba8c-0601383c1d78{fill:#090;}</style></defs><title>cluster-iso</title><g id="ad475352-12b6-45e2-b33b-131181d191e3" data-name="cluster-iso"><rect class="b872bad5-ae4b-4a6c-9431-62fadb3b1f0d" x="0.5" y="13.7" width="325.73" height="508.9" rx="10"/><text class="b867669a-e6a6-4c19-9784-411c04f3ec93" transform="translate(0.48 10.27)">Istio Mesh: Business Unit 1</text><rect class="b872bad5-ae4b-4a6c-9431-62fadb3b1f0d" x="360.54" y="13.7" width="325.73" height="508.9" rx="10"/><text class="b867669a-e6a6-4c19-9784-411c04f3ec93" transform="translate(360.52 10.27)">Istio Mesh: Business Unit </text><rect class="afa556ae-2a7f-4264-acf6-c1d20df09397" x="22.17" y="63.59" width="290.85" height="408.82" rx="10"/><text class="b867669a-e6a6-4c19-9784-411c04f3ec93" transform="translate(22.36 60.46)">Cluster:<tspan class="bf2a7dde-a15c-43a7-8a9f-8ccaff890a82" x="40.77" y="0"> </tspan><tspan class="b04772d5-379b-4e5b-922b-367000707904" x="43.4" y="0">T</tspan><tspan x="50.03" y="0">eam-1</tspan></text><rect class="afa556ae-2a7f-4264-acf6-c1d20df09397" x="377.97" y="63.59" width="290.85" height="408.82" rx="10"/><text class="b867669a-e6a6-4c19-9784-411c04f3ec93" transform="translate(378.16 60.46)">Cluster:<tspan class="bf2a7dde-a15c-43a7-8a9f-8ccaff890a82" x="40.77" y="0"> </tspan><tspan class="b04772d5-379b-4e5b-922b-367000707904" x="43.4" y="0">T</tspan><tspan x="50.03" y="0">eam-2</tspan></text><text class="b867669a-e6a6-4c19-9784-411c04f3ec93" transform="translate(48.18 100.38)">Namespace: bar</text><rect class="b088ae7f-8d91-46f0-b767-81d798f29ab4" x="48.25" y="103.39" width="247.74" height="329.09" rx="10"/><text class="b867669a-e6a6-4c19-9784-411c04f3ec93" transform="translate(398.72 100.38)">Namespace: foo</text><rect class="b088ae7f-8d91-46f0-b767-81d798f29ab4" x="398.79" y="103.39" width="247.74" height="329.09" rx="10"/><rect class="aa0c763e-5f7e-48f7-bee5-5457c31a49ba" x="423.8" y="143.62" width="197.65" height="72" rx="3"/><rect class="b183bf07-269c-44da-a916-9d14c52fa1e7" x="432.45" y="152.62" width="54" height="54" rx="3"/><polygon class="a3c982ea-7d5b-4f0e-b74c-739ca33cf5c7" points="472.71 187.27 472.71 171.97 459.45 164.32 446.19 171.97 446.19 187.27 459.45 194.92 472.71 187.27"/><rect class="b183bf07-269c-44da-a916-9d14c52fa1e7" x="495.45" y="152.62" width="117" height="54" rx="3"/><text class="b6f601eb-9349-4c96-92bf-a72c5f48d98b" transform="translate(547.91 184.46)">Se<tspan class="a81d75ed-f943-4c1e-98f9-eed5a0fe1664" x="15.72" y="0">r</tspan><tspan x="20.58" y="0">vice C</tspan></text><circle class="a67b28e3-958e-4cd0-918f-9a5d30cf48fe" cx="522.45" cy="179.62" r="18"/><rect class="b147c5b3-5c61-4a0c-a1d4-a4013970f185" x="516.06" y="173.11" width="12.79" height="12.79"/><line class="b6cd9dea-af88-4f08-8aeb-0d26d2142abe" x1="518.42" y1="173.11" x2="518.42" y2="170.03"/><line class="b6cd9dea-af88-4f08-8aeb-0d26d2142abe" x1="522.45" y1="173.11" x2="522.45" y2="170.03"/><line class="b6cd9dea-af88-4f08-8aeb-0d26d2142abe" x1="526.48" y1="173.11" x2="526.48" y2="170.03"/><line class="b6cd9dea-af88-4f08-8aeb-0d26d2142abe" x1="518.42" y1="189.21" x2="518.42" y2="186.13"/><line class="b6cd9dea-af88-4f08-8aeb-0d26d2142abe" x1="522.45" y1="189.21" x2="522.45" y2="186.13"/><line class="b6cd9dea-af88-4f08-8aeb-0d26d2142abe" x1="526.48" y1="189.21" x2="526.48" y2="186.13"/><line class="b6cd9dea-af88-4f08-8aeb-0d26d2142abe" x1="515.94" y1="183.65" x2="512.86" y2="183.65"/><line class="b6cd9dea-af88-4f08-8aeb-0d26d2142abe" x1="515.94" y1="179.62" x2="512.86" y2="179.62"/><line class="b6cd9dea-af88-4f08-8aeb-0d26d2142abe" x1="515.94" y1="175.59" x2="512.86" y2="175.59"/><line class="b6cd9dea-af88-4f08-8aeb-0d26d2142abe" x1="532.04" y1="183.65" x2="528.96" y2="183.65"/><line class="b6cd9dea-af88-4f08-8aeb-0d26d2142abe" x1="532.04" y1="179.62" x2="528.96" y2="179.62"/><line class="b6cd9dea-af88-4f08-8aeb-0d26d2142abe" x1="532.04" y1="175.59" x2="528.96" y2="175.59"/><rect class="b183bf07-269c-44da-a916-9d14c52fa1e7" x="519.61" y="176.66" width="5.68" height="5.68" rx="2"/><rect class="aa0c763e-5f7e-48f7-bee5-5457c31a49ba" x="73.26" y="143.62" width="197.65" height="72" rx="3"/><rect class="b183bf07-269c-44da-a916-9d14c52fa1e7" x="81.91" y="152.62" width="117" height="54" rx="3"/><text class="b6f601eb-9349-4c96-92bf-a72c5f48d98b" transform="translate(134.36 184.46)">Se<tspan class="a81d75ed-f943-4c1e-98f9-eed5a0fe1664" x="15.72" y="0">r</tspan><tspan x="20.58" y="0">vice A</tspan></text><circle class="a67b28e3-958e-4cd0-918f-9a5d30cf48fe" cx="108.91" cy="179.62" r="18"/><rect class="b147c5b3-5c61-4a0c-a1d4-a4013970f185" x="102.52" y="173.11" width="12.79" height="12.79"/><line class="b6cd9dea-af88-4f08-8aeb-0d26d2142abe" x1="104.88" y1="173.11" x2="104.88" y2="170.03"/><line class="b6cd9dea-af88-4f08-8aeb-0d26d2142abe" x1="108.91" y1="173.11" x2="108.91" y2="170.03"/><line class="b6cd9dea-af88-4f08-8aeb-0d26d2142abe" x1="112.94" y1="173.11" x2="112.94" y2="170.03"/><line class="b6cd9dea-af88-4f08-8aeb-0d26d2142abe" x1="104.88" y1="189.21" x2="104.88" y2="186.13"/><line class="b6cd9dea-af88-4f08-8aeb-0d26d2142abe" x1="108.91" y1="189.21" x2="108.91" y2="186.13"/><line class="b6cd9dea-af88-4f08-8aeb-0d26d2142abe" x1="112.94" y1="189.21" x2="112.94" y2="186.13"/><line class="b6cd9dea-af88-4f08-8aeb-0d26d2142abe" x1="102.4" y1="183.65" x2="99.32" y2="183.65"/><line class="b6cd9dea-af88-4f08-8aeb-0d26d2142abe" x1="102.4" y1="179.62" x2="99.32" y2="179.62"/><line class="b6cd9dea-af88-4f08-8aeb-0d26d2142abe" x1="102.4" y1="175.59" x2="99.32" y2="175.59"/><line class="b6cd9dea-af88-4f08-8aeb-0d26d2142abe" x1="118.5" y1="183.65" x2="115.42" y2="183.65"/><line class="b6cd9dea-af88-4f08-8aeb-0d26d2142abe" x1="118.5" y1="179.62" x2="115.42" y2="179.62"/><line class="b6cd9dea-af88-4f08-8aeb-0d26d2142abe" x1="118.5" y1="175.59" x2="115.42" y2="175.59"/><rect class="b183bf07-269c-44da-a916-9d14c52fa1e7" x="106.07" y="176.66" width="5.68" height="5.68" rx="2"/><rect class="b183bf07-269c-44da-a916-9d14c52fa1e7" x="207.91" y="152.62" width="54" height="54" rx="3"/><polygon class="a3c982ea-7d5b-4f0e-b74c-739ca33cf5c7" points="248.17 187.27 248.17 171.97 234.91 164.32 221.65 171.97 221.65 187.27 234.91 194.92 248.17 187.27"/><rect class="aa0c763e-5f7e-48f7-bee5-5457c31a49ba" x="423.8" y="309.62" width="197.65" height="72" rx="3"/><rect class="b183bf07-269c-44da-a916-9d14c52fa1e7" x="432.45" y="318.62" width="54" height="54" rx="3"/><polygon class="a3c982ea-7d5b-4f0e-b74c-739ca33cf5c7" points="472.71 353.27 472.71 337.97 459.45 330.32 446.19 337.97 446.19 353.27 459.45 360.92 472.71 353.27"/><rect class="b183bf07-269c-44da-a916-9d14c52fa1e7" x="495.45" y="318.62" width="117" height="54" rx="3"/><text class="b6f601eb-9349-4c96-92bf-a72c5f48d98b" transform="translate(547.87 350.46)">Se<tspan class="a81d75ed-f943-4c1e-98f9-eed5a0fe1664" x="15.72" y="0">r</tspan><tspan x="20.58" y="0">vice D</tspan></text><circle class="a67b28e3-958e-4cd0-918f-9a5d30cf48fe" cx="522.45" cy="345.62" r="18"/><rect class="b147c5b3-5c61-4a0c-a1d4-a4013970f185" x="516.06" y="339.11" width="12.79" height="12.79"/><line class="b6cd9dea-af88-4f08-8aeb-0d26d2142abe" x1="518.42" y1="339.11" x2="518.42" y2="336.03"/><line class="b6cd9dea-af88-4f08-8aeb-0d26d2142abe" x1="522.45" y1="339.11" x2="522.45" y2="336.03"/><line class="b6cd9dea-af88-4f08-8aeb-0d26d2142abe" x1="526.48" y1="339.11" x2="526.48" y2="336.03"/><line class="b6cd9dea-af88-4f08-8aeb-0d26d2142abe" x1="518.42" y1="355.21" x2="518.42" y2="352.13"/><line class="b6cd9dea-af88-4f08-8aeb-0d26d2142abe" x1="522.45" y1="355.21" x2="522.45" y2="352.13"/><line class="b6cd9dea-af88-4f08-8aeb-0d26d2142abe" x1="526.48" y1="355.21" x2="526.48" y2="352.13"/><line class="b6cd9dea-af88-4f08-8aeb-0d26d2142abe" x1="515.94" y1="349.65" x2="512.86" y2="349.65"/><line class="b6cd9dea-af88-4f08-8aeb-0d26d2142abe" x1="515.94" y1="345.62" x2="512.86" y2="345.62"/><line class="b6cd9dea-af88-4f08-8aeb-0d26d2142abe" x1="515.94" y1="341.59" x2="512.86" y2="341.59"/><line class="b6cd9dea-af88-4f08-8aeb-0d26d2142abe" x1="532.04" y1="349.65" x2="528.96" y2="349.65"/><line class="b6cd9dea-af88-4f08-8aeb-0d26d2142abe" x1="532.04" y1="345.62" x2="528.96" y2="345.62"/><line class="b6cd9dea-af88-4f08-8aeb-0d26d2142abe" x1="532.04" y1="341.59" x2="528.96" y2="341.59"/><rect class="b183bf07-269c-44da-a916-9d14c52fa1e7" x="519.61" y="342.66" width="5.68" height="5.68" rx="2"/><rect class="aa0c763e-5f7e-48f7-bee5-5457c31a49ba" x="73.26" y="309.62" width="197.65" height="72" rx="3"/><rect class="b183bf07-269c-44da-a916-9d14c52fa1e7" x="81.91" y="318.62" width="117" height="54" rx="3"/><text class="b6f601eb-9349-4c96-92bf-a72c5f48d98b" transform="translate(134.57 350.46)">Se<tspan class="a81d75ed-f943-4c1e-98f9-eed5a0fe1664" x="15.72" y="0">r</tspan><tspan x="20.58" y="0">vice B</tspan></text><circle class="a67b28e3-958e-4cd0-918f-9a5d30cf48fe" cx="108.91" cy="345.62" r="18"/><rect class="b147c5b3-5c61-4a0c-a1d4-a4013970f185" x="102.52" y="339.11" width="12.79" height="12.79"/><line class="b6cd9dea-af88-4f08-8aeb-0d26d2142abe" x1="104.88" y1="339.11" x2="104.88" y2="336.03"/><line class="b6cd9dea-af88-4f08-8aeb-0d26d2142abe" x1="108.91" y1="339.11" x2="108.91" y2="336.03"/><line class="b6cd9dea-af88-4f08-8aeb-0d26d2142abe" x1="112.94" y1="339.11" x2="112.94" y2="336.03"/><line class="b6cd9dea-af88-4f08-8aeb-0d26d2142abe" x1="104.88" y1="355.21" x2="104.88" y2="352.13"/><line class="b6cd9dea-af88-4f08-8aeb-0d26d2142abe" x1="108.91" y1="355.21" x2="108.91" y2="352.13"/><line class="b6cd9dea-af88-4f08-8aeb-0d26d2142abe" x1="112.94" y1="355.21" x2="112.94" y2="352.13"/><line class="b6cd9dea-af88-4f08-8aeb-0d26d2142abe" x1="102.4" y1="349.65" x2="99.32" y2="349.65"/><line class="b6cd9dea-af88-4f08-8aeb-0d26d2142abe" x1="102.4" y1="345.62" x2="99.32" y2="345.62"/><line class="b6cd9dea-af88-4f08-8aeb-0d26d2142abe" x1="102.4" y1="341.59" x2="99.32" y2="341.59"/><line class="b6cd9dea-af88-4f08-8aeb-0d26d2142abe" x1="118.5" y1="349.65" x2="115.42" y2="349.65"/><line class="b6cd9dea-af88-4f08-8aeb-0d26d2142abe" x1="118.5" y1="345.62" x2="115.42" y2="345.62"/><line class="b6cd9dea-af88-4f08-8aeb-0d26d2142abe" x1="118.5" y1="341.59" x2="115.42" y2="341.59"/><rect class="b183bf07-269c-44da-a916-9d14c52fa1e7" x="106.07" y="342.66" width="5.68" height="5.68" rx="2"/><rect class="b183bf07-269c-44da-a916-9d14c52fa1e7" x="207.91" y="318.62" width="54" height="54" rx="3"/><polygon class="a3c982ea-7d5b-4f0e-b74c-739ca33cf5c7" points="248.17 353.27 248.17 337.97 234.91 330.32 221.65 337.97 221.65 353.27 234.91 360.92 248.17 353.27"/><line class="a1b7f4e1-6cfb-4ba1-a209-fe86e4e9950e" x1="234.91" y1="213.8" x2="234.91" y2="311.44"/><polygon class="af6d2534-b1a0-4c94-ba8c-0601383c1d78" points="229.92 215.26 234.91 206.62 239.9 215.26 229.92 215.26"/><polygon class="af6d2534-b1a0-4c94-ba8c-0601383c1d78" points="229.92 309.99 234.91 318.62 239.9 309.99 229.92 309.99"/><line class="a1b7f4e1-6cfb-4ba1-a209-fe86e4e9950e" x1="459.45" y1="213.8" x2="459.45" y2="311.44"/><polygon class="af6d2534-b1a0-4c94-ba8c-0601383c1d78" points="454.46 215.26 459.45 206.62 464.44 215.26 454.46 215.26"/><polygon class="af6d2534-b1a0-4c94-ba8c-0601383c1d78" points="454.46 309.99 459.45 318.62 464.44 309.99 454.46 309.99"/></g></svg>