<svg xmlns="http://www.w3.org/2000/svg" viewBox="0 0 690.27 523.1"><defs><style>.a987dff4-7d61-490d-abea-c6dd2e6e7525,.b67614d8-3282-44a9-b46e-cb0d0f3addd8,.bf183eb5-9c50-40ac-8d04-a01070d36388,.bf41405b-ae69-4082-9b39-0a37e54b2f06,.e8dcfb98-6a88-49ea-8e3c-9223bb2c061a,.eecbb527-bce6-4a05-838a-b8fae6216d9a,.f4990701-78ef-419a-ba76-868c98ca335c{fill:none;}.a987dff4-7d61-490d-abea-c6dd2e6e7525{stroke:#466bb0;stroke-dasharray:10 10;}.a987dff4-7d61-490d-abea-c6dd2e6e7525,.b67614d8-3282-44a9-b46e-cb0d0f3addd8,.bf41405b-ae69-4082-9b39-0a37e54b2f06,.e8dcfb98-6a88-49ea-8e3c-9223bb2c061a,.f4990701-78ef-419a-ba76-868c98ca335c{stroke-linejoin:round;}.a5ec6b3e-2e31-4dc5-9c2f-c3aa9a438d95{font-size:12px;}.a5ec6b3e-2e31-4dc5-9c2f-c3aa9a438d95,.bf9223d0-9863-4d30-9a94-3c90f5b9312e{font-family:Roboto-Regular, Roboto;}.f4990701-78ef-419a-ba76-868c98ca335c{stroke:#fbb040;}.b67614d8-3282-44a9-b46e-cb0d0f3addd8,.bf41405b-ae69-4082-9b39-0a37e54b2f06,.eecbb527-bce6-4a05-838a-b8fae6216d9a,.f4990701-78ef-419a-ba76-868c98ca335c{stroke-width:2px;}.e17c84be-2842-404f-9e3b-50838b43b702{letter-spacing:-0.02em;}.bb633446-00c9-4272-b075-b91f9beb69b8{letter-spacing:-0.03em;}.b7720ee7-6946-4005-bd63-8ca5c74f665d{letter-spacing:-0.04em;}.bf41405b-ae69-4082-9b39-0a37e54b2f06,.e8dcfb98-6a88-49ea-8e3c-9223bb2c061a{stroke:#e905ee;}.aea4631f-0671-4b10-9548-e8a3f631d3cd{fill:#e6e6e6;}.edcae128-721a-42c6-a8cb-c96da426b108{fill:#fff;}.e8dcfb98-6a88-49ea-8e3c-9223bb2c061a{stroke-width:3px;}.bf9223d0-9863-4d30-9a94-3c90f5b9312e{font-size:14px;}.bc5e38be-3052-403a-bd00-576c05b4b118{letter-spacing:0.01em;}.b09ee96c-6645-4882-b1b6-cc82279366c0{fill:#757575;}.b67614d8-3282-44a9-b46e-cb0d0f3addd8,.eecbb527-bce6-4a05-838a-b8fae6216d9a{stroke:#fff;}.eecbb527-bce6-4a05-838a-b8fae6216d9a{stroke-linecap:round;}.bf183eb5-9c50-40ac-8d04-a01070d36388,.eecbb527-bce6-4a05-838a-b8fae6216d9a{stroke-miterlimit:10;}.bf183eb5-9c50-40ac-8d04-a01070d36388{stroke:#090;stroke-width:4px;}.a54e6fc3-0be6-40e0-816b-aa21d77231b2{fill:#090;}</style></defs><title>cluster-ns</title><g id="a5da84fc-9eed-4fb7-adb2-13b6441515a9" data-name="cluster-ns"><rect class="a987dff4-7d61-490d-abea-c6dd2e6e7525" x="0.5" y="13.7" width="689.27" height="508.9" rx="10"/><text class="a5ec6b3e-2e31-4dc5-9c2f-c3aa9a438d95" transform="translate(0.48 10.27)">Istio Mesh</text><rect class="f4990701-78ef-419a-ba76-868c98ca335c" x="22.17" y="63.59" width="290.85" height="408.82" rx="10"/><text class="a5ec6b3e-2e31-4dc5-9c2f-c3aa9a438d95" transform="translate(22.36 60.46)">Cluster: <tspan class="e17c84be-2842-404f-9e3b-50838b43b702" x="43.74" y="0">W</tspan><tspan x="54.21" y="0">est</tspan></text><rect class="f4990701-78ef-419a-ba76-868c98ca335c" x="346.47" y="63.59" width="290.85" height="408.82" rx="10"/><text class="a5ec6b3e-2e31-4dc5-9c2f-c3aa9a438d95" transform="translate(346.66 60.46)">Cluster: East</text><text class="a5ec6b3e-2e31-4dc5-9c2f-c3aa9a438d95" transform="translate(48.18 100.38)">Namespace:<tspan class="bb633446-00c9-4272-b075-b91f9beb69b8" x="66.95" y="0"> </tspan><tspan class="b7720ee7-6946-4005-bd63-8ca5c74f665d" x="69.58" y="0">T</tspan><tspan x="76.21" y="0">eam-1</tspan></text><rect class="bf41405b-ae69-4082-9b39-0a37e54b2f06" x="48.25" y="103.39" width="247.74" height="329.09" rx="10"/><text class="a5ec6b3e-2e31-4dc5-9c2f-c3aa9a438d95" transform="translate(367.22 100.38)">Namespace:<tspan class="bb633446-00c9-4272-b075-b91f9beb69b8" x="66.95" y="0"> </tspan><tspan class="b7720ee7-6946-4005-bd63-8ca5c74f665d" x="69.58" y="0">T</tspan><tspan x="76.21" y="0">eam-1</tspan></text><rect class="bf41405b-ae69-4082-9b39-0a37e54b2f06" x="367.29" y="103.39" width="247.74" height="329.09" rx="10"/><rect class="aea4631f-0671-4b10-9548-e8a3f631d3cd" x="392.3" y="143.62" width="197.65" height="72" rx="3"/><rect class="edcae128-721a-42c6-a8cb-c96da426b108" x="400.95" y="152.62" width="54" height="54" rx="3"/><polygon class="e8dcfb98-6a88-49ea-8e3c-9223bb2c061a" points="441.21 187.27 441.21 171.97 427.95 164.32 414.69 171.97 414.69 187.27 427.95 194.92 441.21 187.27"/><rect class="edcae128-721a-42c6-a8cb-c96da426b108" x="463.95" y="152.62" width="117" height="54" rx="3"/><text class="bf9223d0-9863-4d30-9a94-3c90f5b9312e" transform="translate(516.6 184.46)">Se<tspan class="bc5e38be-3052-403a-bd00-576c05b4b118" x="15.72" y="0">r</tspan><tspan x="20.58" y="0">vice B</tspan></text><circle class="b09ee96c-6645-4882-b1b6-cc82279366c0" cx="490.95" cy="179.62" r="18"/><rect class="b67614d8-3282-44a9-b46e-cb0d0f3addd8" x="484.55" y="173.11" width="12.79" height="12.79"/><line class="eecbb527-bce6-4a05-838a-b8fae6216d9a" x1="486.92" y1="173.11" x2="486.92" y2="170.03"/><line class="eecbb527-bce6-4a05-838a-b8fae6216d9a" x1="490.95" y1="173.11" x2="490.95" y2="170.03"/><line class="eecbb527-bce6-4a05-838a-b8fae6216d9a" x1="494.97" y1="173.11" x2="494.97" y2="170.03"/><line class="eecbb527-bce6-4a05-838a-b8fae6216d9a" x1="486.92" y1="189.21" x2="486.92" y2="186.13"/><line class="eecbb527-bce6-4a05-838a-b8fae6216d9a" x1="490.95" y1="189.21" x2="490.95" y2="186.13"/><line class="eecbb527-bce6-4a05-838a-b8fae6216d9a" x1="494.97" y1="189.21" x2="494.97" y2="186.13"/><line class="eecbb527-bce6-4a05-838a-b8fae6216d9a" x1="484.44" y1="183.65" x2="481.36" y2="183.65"/><line class="eecbb527-bce6-4a05-838a-b8fae6216d9a" x1="484.44" y1="179.62" x2="481.36" y2="179.62"/><line class="eecbb527-bce6-4a05-838a-b8fae6216d9a" x1="484.44" y1="175.59" x2="481.36" y2="175.59"/><line class="eecbb527-bce6-4a05-838a-b8fae6216d9a" x1="500.54" y1="183.65" x2="497.46" y2="183.65"/><line class="eecbb527-bce6-4a05-838a-b8fae6216d9a" x1="500.54" y1="179.62" x2="497.46" y2="179.62"/><line class="eecbb527-bce6-4a05-838a-b8fae6216d9a" x1="500.54" y1="175.59" x2="497.46" y2="175.59"/><rect class="edcae128-721a-42c6-a8cb-c96da426b108" x="488.11" y="176.66" width="5.68" height="5.68" rx="2"/><rect class="aea4631f-0671-4b10-9548-e8a3f631d3cd" x="73.26" y="143.62" width="197.65" height="72" rx="3"/><rect class="edcae128-721a-42c6-a8cb-c96da426b108" x="81.91" y="152.62" width="117" height="54" rx="3"/><text class="bf9223d0-9863-4d30-9a94-3c90f5b9312e" transform="translate(134.36 184.46)">Se<tspan class="bc5e38be-3052-403a-bd00-576c05b4b118" x="15.72" y="0">r</tspan><tspan x="20.58" y="0">vice A</tspan></text><circle class="b09ee96c-6645-4882-b1b6-cc82279366c0" cx="108.91" cy="179.62" r="18"/><rect class="b67614d8-3282-44a9-b46e-cb0d0f3addd8" x="102.52" y="173.11" width="12.79" height="12.79"/><line class="eecbb527-bce6-4a05-838a-b8fae6216d9a" x1="104.88" y1="173.11" x2="104.88" y2="170.03"/><line class="eecbb527-bce6-4a05-838a-b8fae6216d9a" x1="108.91" y1="173.11" x2="108.91" y2="170.03"/><line class="eecbb527-bce6-4a05-838a-b8fae6216d9a" x1="112.94" y1="173.11" x2="112.94" y2="170.03"/><line class="eecbb527-bce6-4a05-838a-b8fae6216d9a" x1="104.88" y1="189.21" x2="104.88" y2="186.13"/><line class="eecbb527-bce6-4a05-838a-b8fae6216d9a" x1="108.91" y1="189.21" x2="108.91" y2="186.13"/><line class="eecbb527-bce6-4a05-838a-b8fae6216d9a" x1="112.94" y1="189.21" x2="112.94" y2="186.13"/><line class="eecbb527-bce6-4a05-838a-b8fae6216d9a" x1="102.4" y1="183.65" x2="99.32" y2="183.65"/><line class="eecbb527-bce6-4a05-838a-b8fae6216d9a" x1="102.4" y1="179.62" x2="99.32" y2="179.62"/><line class="eecbb527-bce6-4a05-838a-b8fae6216d9a" x1="102.4" y1="175.59" x2="99.32" y2="175.59"/><line class="eecbb527-bce6-4a05-838a-b8fae6216d9a" x1="118.5" y1="183.65" x2="115.42" y2="183.65"/><line class="eecbb527-bce6-4a05-838a-b8fae6216d9a" x1="118.5" y1="179.62" x2="115.42" y2="179.62"/><line class="eecbb527-bce6-4a05-838a-b8fae6216d9a" x1="118.5" y1="175.59" x2="115.42" y2="175.59"/><rect class="edcae128-721a-42c6-a8cb-c96da426b108" x="106.07" y="176.66" width="5.68" height="5.68" rx="2"/><rect class="edcae128-721a-42c6-a8cb-c96da426b108" x="207.91" y="152.62" width="54" height="54" rx="3"/><polygon class="e8dcfb98-6a88-49ea-8e3c-9223bb2c061a" points="248.17 187.27 248.17 171.97 234.91 164.32 221.65 171.97 221.65 187.27 234.91 194.92 248.17 187.27"/><rect class="aea4631f-0671-4b10-9548-e8a3f631d3cd" x="392.3" y="309.62" width="197.65" height="72" rx="3"/><rect class="edcae128-721a-42c6-a8cb-c96da426b108" x="400.95" y="318.62" width="54" height="54" rx="3"/><polygon class="e8dcfb98-6a88-49ea-8e3c-9223bb2c061a" points="441.21 353.27 441.21 337.97 427.95 330.32 414.69 337.97 414.69 353.27 427.95 360.92 441.21 353.27"/><rect class="edcae128-721a-42c6-a8cb-c96da426b108" x="463.95" y="318.62" width="117" height="54" rx="3"/><text class="bf9223d0-9863-4d30-9a94-3c90f5b9312e" transform="translate(516.4 350.46)">Se<tspan class="bc5e38be-3052-403a-bd00-576c05b4b118" x="15.72" y="0">r</tspan><tspan x="20.58" y="0">vice A</tspan></text><circle class="b09ee96c-6645-4882-b1b6-cc82279366c0" cx="490.95" cy="345.62" r="18"/><rect class="b67614d8-3282-44a9-b46e-cb0d0f3addd8" x="484.55" y="339.11" width="12.79" height="12.79"/><line class="eecbb527-bce6-4a05-838a-b8fae6216d9a" x1="486.92" y1="339.11" x2="486.92" y2="336.03"/><line class="eecbb527-bce6-4a05-838a-b8fae6216d9a" x1="490.95" y1="339.11" x2="490.95" y2="336.03"/><line class="eecbb527-bce6-4a05-838a-b8fae6216d9a" x1="494.97" y1="339.11" x2="494.97" y2="336.03"/><line class="eecbb527-bce6-4a05-838a-b8fae6216d9a" x1="486.92" y1="355.21" x2="486.92" y2="352.13"/><line class="eecbb527-bce6-4a05-838a-b8fae6216d9a" x1="490.95" y1="355.21" x2="490.95" y2="352.13"/><line class="eecbb527-bce6-4a05-838a-b8fae6216d9a" x1="494.97" y1="355.21" x2="494.97" y2="352.13"/><line class="eecbb527-bce6-4a05-838a-b8fae6216d9a" x1="484.44" y1="349.65" x2="481.36" y2="349.65"/><line class="eecbb527-bce6-4a05-838a-b8fae6216d9a" x1="484.44" y1="345.62" x2="481.36" y2="345.62"/><line class="eecbb527-bce6-4a05-838a-b8fae6216d9a" x1="484.44" y1="341.59" x2="481.36" y2="341.59"/><line class="eecbb527-bce6-4a05-838a-b8fae6216d9a" x1="500.54" y1="349.65" x2="497.46" y2="349.65"/><line class="eecbb527-bce6-4a05-838a-b8fae6216d9a" x1="500.54" y1="345.62" x2="497.46" y2="345.62"/><line class="eecbb527-bce6-4a05-838a-b8fae6216d9a" x1="500.54" y1="341.59" x2="497.46" y2="341.59"/><rect class="edcae128-721a-42c6-a8cb-c96da426b108" x="488.11" y="342.66" width="5.68" height="5.68" rx="2"/><rect class="aea4631f-0671-4b10-9548-e8a3f631d3cd" x="73.26" y="309.62" width="197.65" height="72" rx="3"/><rect class="edcae128-721a-42c6-a8cb-c96da426b108" x="81.91" y="318.62" width="117" height="54" rx="3"/><text class="bf9223d0-9863-4d30-9a94-3c90f5b9312e" transform="translate(134.57 350.46)">Se<tspan class="bc5e38be-3052-403a-bd00-576c05b4b118" x="15.72" y="0">r</tspan><tspan x="20.58" y="0">vice B</tspan></text><circle class="b09ee96c-6645-4882-b1b6-cc82279366c0" cx="108.91" cy="345.62" r="18"/><rect class="b67614d8-3282-44a9-b46e-cb0d0f3addd8" x="102.52" y="339.11" width="12.79" height="12.79"/><line class="eecbb527-bce6-4a05-838a-b8fae6216d9a" x1="104.88" y1="339.11" x2="104.88" y2="336.03"/><line class="eecbb527-bce6-4a05-838a-b8fae6216d9a" x1="108.91" y1="339.11" x2="108.91" y2="336.03"/><line class="eecbb527-bce6-4a05-838a-b8fae6216d9a" x1="112.94" y1="339.11" x2="112.94" y2="336.03"/><line class="eecbb527-bce6-4a05-838a-b8fae6216d9a" x1="104.88" y1="355.21" x2="104.88" y2="352.13"/><line class="eecbb527-bce6-4a05-838a-b8fae6216d9a" x1="108.91" y1="355.21" x2="108.91" y2="352.13"/><line class="eecbb527-bce6-4a05-838a-b8fae6216d9a" x1="112.94" y1="355.21" x2="112.94" y2="352.13"/><line class="eecbb527-bce6-4a05-838a-b8fae6216d9a" x1="102.4" y1="349.65" x2="99.32" y2="349.65"/><line class="eecbb527-bce6-4a05-838a-b8fae6216d9a" x1="102.4" y1="345.62" x2="99.32" y2="345.62"/><line class="eecbb527-bce6-4a05-838a-b8fae6216d9a" x1="102.4" y1="341.59" x2="99.32" y2="341.59"/><line class="eecbb527-bce6-4a05-838a-b8fae6216d9a" x1="118.5" y1="349.65" x2="115.42" y2="349.65"/><line class="eecbb527-bce6-4a05-838a-b8fae6216d9a" x1="118.5" y1="345.62" x2="115.42" y2="345.62"/><line class="eecbb527-bce6-4a05-838a-b8fae6216d9a" x1="118.5" y1="341.59" x2="115.42" y2="341.59"/><rect class="edcae128-721a-42c6-a8cb-c96da426b108" x="106.07" y="342.66" width="5.68" height="5.68" rx="2"/><rect class="edcae128-721a-42c6-a8cb-c96da426b108" x="207.91" y="318.62" width="54" height="54" rx="3"/><polygon class="e8dcfb98-6a88-49ea-8e3c-9223bb2c061a" points="248.17 353.27 248.17 337.97 234.91 330.32 221.65 337.97 221.65 353.27 234.91 360.92 248.17 353.27"/><line class="bf183eb5-9c50-40ac-8d04-a01070d36388" x1="393.77" y1="179.62" x2="269.09" y2="179.62"/><polygon class="a54e6fc3-0be6-40e0-816b-aa21d77231b2" points="392.31 174.63 400.95 179.62 392.31 184.61 392.31 174.63"/><polygon class="a54e6fc3-0be6-40e0-816b-aa21d77231b2" points="270.55 174.63 261.91 179.62 270.55 184.61 270.55 174.63"/><line class="bf183eb5-9c50-40ac-8d04-a01070d36388" x1="271.83" y1="345.5" x2="393.77" y2="345.5"/><polygon class="a54e6fc3-0be6-40e0-816b-aa21d77231b2" points="273.28 350.49 264.65 345.5 273.28 340.52 273.28 350.49"/><polygon class="a54e6fc3-0be6-40e0-816b-aa21d77231b2" points="392.31 350.49 400.95 345.5 392.31 340.52 392.31 350.49"/></g><g id="fbdd5927-ad68-44c4-9c8b-7af49a18dc67" data-name="multi-trust"><line class="bf183eb5-9c50-40ac-8d04-a01070d36388" x1="234.91" y1="311.44" x2="234.91" y2="213.8"/><polygon class="a54e6fc3-0be6-40e0-816b-aa21d77231b2" points="239.9 309.99 234.91 318.62 229.92 309.99 239.9 309.99"/><polygon class="a54e6fc3-0be6-40e0-816b-aa21d77231b2" points="239.9 215.26 234.91 206.62 229.92 215.26 239.9 215.26"/><line class="bf183eb5-9c50-40ac-8d04-a01070d36388" x1="427.47" y1="311.44" x2="427.47" y2="213.8"/><polygon class="a54e6fc3-0be6-40e0-816b-aa21d77231b2" points="432.45 309.99 427.46 318.62 422.48 309.99 432.45 309.99"/><polygon class="a54e6fc3-0be6-40e0-816b-aa21d77231b2" points="432.45 215.26 427.46 206.62 422.48 215.26 432.45 215.26"/></g></svg>