<svg xmlns="http://www.w3.org/2000/svg" viewBox="0 0 690.27 523.1"><defs><style>.a1517520-4503-4815-93f0-d26a8b48b0f8,.affe370a-9a2f-4175-9251-cef60cd58878,.b5672cdf-a86d-447e-80b1-ad02b78ec81e,.b85abda6-147d-4754-bef2-d2b184ee03b4,.bbc29a2d-7778-4d66-814d-476fcc5ab57c,.e965bf57-deaf-4781-85d9-d05f0fbbd56b{fill:none;}.b5672cdf-a86d-447e-80b1-ad02b78ec81e{stroke:#466bb0;stroke-dasharray:10 10;}.a1517520-4503-4815-93f0-d26a8b48b0f8,.b5672cdf-a86d-447e-80b1-ad02b78ec81e,.b85abda6-147d-4754-bef2-d2b184ee03b4,.e965bf57-deaf-4781-85d9-d05f0fbbd56b{stroke-linejoin:round;}.ae46fbee-f520-4cb5-9bdf-d53cc5d85900{font-size:12px;}.ae46fbee-f520-4cb5-9bdf-d53cc5d85900,.f04950d7-ec3f-411c-9cee-bb761e4ecbc8{font-family:Roboto-Regular, Roboto;}.a7dc6b53-26b3-4157-b83e-67bc5f03bbaa{letter-spacing:-0.03em;}.bafe9ba4-20c9-41a1-aa00-b110c7df1ce9{letter-spacing:-0.04em;}.a1517520-4503-4815-93f0-d26a8b48b0f8,.b85abda6-147d-4754-bef2-d2b184ee03b4{stroke:#e905ee;}.affe370a-9a2f-4175-9251-cef60cd58878,.b85abda6-147d-4754-bef2-d2b184ee03b4,.e965bf57-deaf-4781-85d9-d05f0fbbd56b{stroke-width:2px;}.a02425b5-aee9-4038-be7a-d4d51e8bc83a{fill:#e6e6e6;}.fd8a9aee-8825-4bb5-8aee-2f7f1cb682e2{fill:#fff;}.a1517520-4503-4815-93f0-d26a8b48b0f8{stroke-width:3px;}.f04950d7-ec3f-411c-9cee-bb761e4ecbc8{font-size:14px;}.bdb33e51-6869-4c47-bc91-3f8c2cc02a95{letter-spacing:0.01em;}.abab1c4c-8f4e-497e-b642-e32f4a399335{fill:#757575;}.affe370a-9a2f-4175-9251-cef60cd58878,.e965bf57-deaf-4781-85d9-d05f0fbbd56b{stroke:#fff;}.affe370a-9a2f-4175-9251-cef60cd58878{stroke-linecap:round;}.affe370a-9a2f-4175-9251-cef60cd58878,.bbc29a2d-7778-4d66-814d-476fcc5ab57c{stroke-miterlimit:10;}.bbc29a2d-7778-4d66-814d-476fcc5ab57c{stroke:#090;stroke-width:4px;}.b890e700-2f0a-40e7-842d-b713ad50e78b{fill:#090;}.a3165f9c-d93a-44cb-b4f8-8dcfdcd32105{opacity:0.2;}.ad6559d2-fc39-411d-8b5c-ee0dbb8253c9{fill:#ff1d25;}</style></defs><title>exp-ns</title><g id="ebac4a51-61a0-4b34-a559-157b360785ef" data-name="exp-ns"><rect class="b5672cdf-a86d-447e-80b1-ad02b78ec81e" x="0.5" y="13.7" width="689.27" height="508.9" rx="10"/><text class="ae46fbee-f520-4cb5-9bdf-d53cc5d85900" transform="translate(0.48 10.27)">Istio Mesh</text><text class="ae46fbee-f520-4cb5-9bdf-d53cc5d85900" transform="translate(75.22 100.38)">Namespace:<tspan class="a7dc6b53-26b3-4157-b83e-67bc5f03bbaa" x="66.95" y="0"> </tspan><tspan class="bafe9ba4-20c9-41a1-aa00-b110c7df1ce9" x="69.58" y="0">T</tspan><tspan x="76.21" y="0">eam-1</tspan></text><rect class="b85abda6-147d-4754-bef2-d2b184ee03b4" x="75.29" y="103.39" width="247.74" height="329.09" rx="10"/><text class="ae46fbee-f520-4cb5-9bdf-d53cc5d85900" transform="translate(367.22 100.38)">Namespace:<tspan class="a7dc6b53-26b3-4157-b83e-67bc5f03bbaa" x="66.95" y="0"> </tspan><tspan class="bafe9ba4-20c9-41a1-aa00-b110c7df1ce9" x="69.58" y="0">T</tspan><tspan x="76.21" y="0">eam-2</tspan></text><rect class="b85abda6-147d-4754-bef2-d2b184ee03b4" x="367.29" y="103.39" width="247.74" height="329.09" rx="10"/><rect class="a02425b5-aee9-4038-be7a-d4d51e8bc83a" x="392.3" y="143.62" width="197.65" height="72" rx="3"/><rect class="fd8a9aee-8825-4bb5-8aee-2f7f1cb682e2" x="400.95" y="152.62" width="54" height="54" rx="3"/><polygon class="a1517520-4503-4815-93f0-d26a8b48b0f8" points="441.21 187.27 441.21 171.97 427.95 164.32 414.69 171.97 414.69 187.27 427.95 194.92 441.21 187.27"/><rect class="fd8a9aee-8825-4bb5-8aee-2f7f1cb682e2" x="463.95" y="152.62" width="117" height="54" rx="3"/><text class="f04950d7-ec3f-411c-9cee-bb761e4ecbc8" transform="translate(516.41 184.46)">Se<tspan class="bdb33e51-6869-4c47-bc91-3f8c2cc02a95" x="15.72" y="0">r</tspan><tspan x="20.58" y="0">vice C</tspan></text><circle class="abab1c4c-8f4e-497e-b642-e32f4a399335" cx="490.95" cy="179.62" r="18"/><rect class="e965bf57-deaf-4781-85d9-d05f0fbbd56b" x="484.55" y="173.11" width="12.79" height="12.79"/><line class="affe370a-9a2f-4175-9251-cef60cd58878" x1="486.92" y1="173.11" x2="486.92" y2="170.03"/><line class="affe370a-9a2f-4175-9251-cef60cd58878" x1="490.95" y1="173.11" x2="490.95" y2="170.03"/><line class="affe370a-9a2f-4175-9251-cef60cd58878" x1="494.97" y1="173.11" x2="494.97" y2="170.03"/><line class="affe370a-9a2f-4175-9251-cef60cd58878" x1="486.92" y1="189.21" x2="486.92" y2="186.13"/><line class="affe370a-9a2f-4175-9251-cef60cd58878" x1="490.95" y1="189.21" x2="490.95" y2="186.13"/><line class="affe370a-9a2f-4175-9251-cef60cd58878" x1="494.97" y1="189.21" x2="494.97" y2="186.13"/><line class="affe370a-9a2f-4175-9251-cef60cd58878" x1="484.44" y1="183.65" x2="481.36" y2="183.65"/><line class="affe370a-9a2f-4175-9251-cef60cd58878" x1="484.44" y1="179.62" x2="481.36" y2="179.62"/><line class="affe370a-9a2f-4175-9251-cef60cd58878" x1="484.44" y1="175.59" x2="481.36" y2="175.59"/><line class="affe370a-9a2f-4175-9251-cef60cd58878" x1="500.54" y1="183.65" x2="497.46" y2="183.65"/><line class="affe370a-9a2f-4175-9251-cef60cd58878" x1="500.54" y1="179.62" x2="497.46" y2="179.62"/><line class="affe370a-9a2f-4175-9251-cef60cd58878" x1="500.54" y1="175.59" x2="497.46" y2="175.59"/><rect class="fd8a9aee-8825-4bb5-8aee-2f7f1cb682e2" x="488.11" y="176.66" width="5.68" height="5.68" rx="2"/><rect class="a02425b5-aee9-4038-be7a-d4d51e8bc83a" x="100.3" y="143.62" width="197.65" height="72" rx="3"/><rect class="fd8a9aee-8825-4bb5-8aee-2f7f1cb682e2" x="108.95" y="152.62" width="117" height="54" rx="3"/><text class="f04950d7-ec3f-411c-9cee-bb761e4ecbc8" transform="translate(161.4 184.46)">Se<tspan class="bdb33e51-6869-4c47-bc91-3f8c2cc02a95" x="15.72" y="0">r</tspan><tspan x="20.58" y="0">vice A</tspan></text><circle class="abab1c4c-8f4e-497e-b642-e32f4a399335" cx="135.95" cy="179.62" r="18"/><rect class="e965bf57-deaf-4781-85d9-d05f0fbbd56b" x="129.55" y="173.11" width="12.79" height="12.79"/><line class="affe370a-9a2f-4175-9251-cef60cd58878" x1="131.92" y1="173.11" x2="131.92" y2="170.03"/><line class="affe370a-9a2f-4175-9251-cef60cd58878" x1="135.95" y1="173.11" x2="135.95" y2="170.03"/><line class="affe370a-9a2f-4175-9251-cef60cd58878" x1="139.97" y1="173.11" x2="139.97" y2="170.03"/><line class="affe370a-9a2f-4175-9251-cef60cd58878" x1="131.92" y1="189.21" x2="131.92" y2="186.13"/><line class="affe370a-9a2f-4175-9251-cef60cd58878" x1="135.95" y1="189.21" x2="135.95" y2="186.13"/><line class="affe370a-9a2f-4175-9251-cef60cd58878" x1="139.97" y1="189.21" x2="139.97" y2="186.13"/><line class="affe370a-9a2f-4175-9251-cef60cd58878" x1="129.44" y1="183.65" x2="126.36" y2="183.65"/><line class="affe370a-9a2f-4175-9251-cef60cd58878" x1="129.44" y1="179.62" x2="126.36" y2="179.62"/><line class="affe370a-9a2f-4175-9251-cef60cd58878" x1="129.44" y1="175.59" x2="126.36" y2="175.59"/><line class="affe370a-9a2f-4175-9251-cef60cd58878" x1="145.54" y1="183.65" x2="142.46" y2="183.65"/><line class="affe370a-9a2f-4175-9251-cef60cd58878" x1="145.54" y1="179.62" x2="142.46" y2="179.62"/><line class="affe370a-9a2f-4175-9251-cef60cd58878" x1="145.54" y1="175.59" x2="142.46" y2="175.59"/><rect class="fd8a9aee-8825-4bb5-8aee-2f7f1cb682e2" x="133.11" y="176.66" width="5.68" height="5.68" rx="2"/><rect class="fd8a9aee-8825-4bb5-8aee-2f7f1cb682e2" x="234.95" y="152.62" width="54" height="54" rx="3"/><polygon class="a1517520-4503-4815-93f0-d26a8b48b0f8" points="275.21 187.27 275.21 171.97 261.95 164.32 248.69 171.97 248.69 187.27 261.95 194.92 275.21 187.27"/><rect class="a02425b5-aee9-4038-be7a-d4d51e8bc83a" x="392.3" y="309.62" width="197.65" height="72" rx="3"/><rect class="fd8a9aee-8825-4bb5-8aee-2f7f1cb682e2" x="400.95" y="318.62" width="54" height="54" rx="3"/><polygon class="a1517520-4503-4815-93f0-d26a8b48b0f8" points="441.21 353.27 441.21 337.97 427.95 330.32 414.69 337.97 414.69 353.27 427.95 360.92 441.21 353.27"/><rect class="fd8a9aee-8825-4bb5-8aee-2f7f1cb682e2" x="463.95" y="318.62" width="117" height="54" rx="3"/><text class="f04950d7-ec3f-411c-9cee-bb761e4ecbc8" transform="translate(516.37 350.46)">Se<tspan class="bdb33e51-6869-4c47-bc91-3f8c2cc02a95" x="15.72" y="0">r</tspan><tspan x="20.58" y="0">vice D</tspan></text><circle class="abab1c4c-8f4e-497e-b642-e32f4a399335" cx="490.95" cy="345.62" r="18"/><rect class="e965bf57-deaf-4781-85d9-d05f0fbbd56b" x="484.55" y="339.11" width="12.79" height="12.79"/><line class="affe370a-9a2f-4175-9251-cef60cd58878" x1="486.92" y1="339.11" x2="486.92" y2="336.03"/><line class="affe370a-9a2f-4175-9251-cef60cd58878" x1="490.95" y1="339.11" x2="490.95" y2="336.03"/><line class="affe370a-9a2f-4175-9251-cef60cd58878" x1="494.97" y1="339.11" x2="494.97" y2="336.03"/><line class="affe370a-9a2f-4175-9251-cef60cd58878" x1="486.92" y1="355.21" x2="486.92" y2="352.13"/><line class="affe370a-9a2f-4175-9251-cef60cd58878" x1="490.95" y1="355.21" x2="490.95" y2="352.13"/><line class="affe370a-9a2f-4175-9251-cef60cd58878" x1="494.97" y1="355.21" x2="494.97" y2="352.13"/><line class="affe370a-9a2f-4175-9251-cef60cd58878" x1="484.44" y1="349.65" x2="481.36" y2="349.65"/><line class="affe370a-9a2f-4175-9251-cef60cd58878" x1="484.44" y1="345.62" x2="481.36" y2="345.62"/><line class="affe370a-9a2f-4175-9251-cef60cd58878" x1="484.44" y1="341.59" x2="481.36" y2="341.59"/><line class="affe370a-9a2f-4175-9251-cef60cd58878" x1="500.54" y1="349.65" x2="497.46" y2="349.65"/><line class="affe370a-9a2f-4175-9251-cef60cd58878" x1="500.54" y1="345.62" x2="497.46" y2="345.62"/><line class="affe370a-9a2f-4175-9251-cef60cd58878" x1="500.54" y1="341.59" x2="497.46" y2="341.59"/><rect class="fd8a9aee-8825-4bb5-8aee-2f7f1cb682e2" x="488.11" y="342.66" width="5.68" height="5.68" rx="2"/><rect class="a02425b5-aee9-4038-be7a-d4d51e8bc83a" x="100.3" y="309.62" width="197.65" height="72" rx="3"/><rect class="fd8a9aee-8825-4bb5-8aee-2f7f1cb682e2" x="108.95" y="318.62" width="117" height="54" rx="3"/><text class="f04950d7-ec3f-411c-9cee-bb761e4ecbc8" transform="translate(161.6 350.46)">Se<tspan class="bdb33e51-6869-4c47-bc91-3f8c2cc02a95" x="15.72" y="0">r</tspan><tspan x="20.58" y="0">vice B</tspan></text><circle class="abab1c4c-8f4e-497e-b642-e32f4a399335" cx="135.95" cy="345.62" r="18"/><rect class="e965bf57-deaf-4781-85d9-d05f0fbbd56b" x="129.55" y="339.11" width="12.79" height="12.79"/><line class="affe370a-9a2f-4175-9251-cef60cd58878" x1="131.92" y1="339.11" x2="131.92" y2="336.03"/><line class="affe370a-9a2f-4175-9251-cef60cd58878" x1="135.95" y1="339.11" x2="135.95" y2="336.03"/><line class="affe370a-9a2f-4175-9251-cef60cd58878" x1="139.97" y1="339.11" x2="139.97" y2="336.03"/><line class="affe370a-9a2f-4175-9251-cef60cd58878" x1="131.92" y1="355.21" x2="131.92" y2="352.13"/><line class="affe370a-9a2f-4175-9251-cef60cd58878" x1="135.95" y1="355.21" x2="135.95" y2="352.13"/><line class="affe370a-9a2f-4175-9251-cef60cd58878" x1="139.97" y1="355.21" x2="139.97" y2="352.13"/><line class="affe370a-9a2f-4175-9251-cef60cd58878" x1="129.44" y1="349.65" x2="126.36" y2="349.65"/><line class="affe370a-9a2f-4175-9251-cef60cd58878" x1="129.44" y1="345.62" x2="126.36" y2="345.62"/><line class="affe370a-9a2f-4175-9251-cef60cd58878" x1="129.44" y1="341.59" x2="126.36" y2="341.59"/><line class="affe370a-9a2f-4175-9251-cef60cd58878" x1="145.54" y1="349.65" x2="142.46" y2="349.65"/><line class="affe370a-9a2f-4175-9251-cef60cd58878" x1="145.54" y1="345.62" x2="142.46" y2="345.62"/><line class="affe370a-9a2f-4175-9251-cef60cd58878" x1="145.54" y1="341.59" x2="142.46" y2="341.59"/><rect class="fd8a9aee-8825-4bb5-8aee-2f7f1cb682e2" x="133.11" y="342.66" width="5.68" height="5.68" rx="2"/><rect class="fd8a9aee-8825-4bb5-8aee-2f7f1cb682e2" x="234.95" y="318.62" width="54" height="54" rx="3"/><polygon class="a1517520-4503-4815-93f0-d26a8b48b0f8" points="275.21 353.27 275.21 337.97 261.95 330.32 248.69 337.97 248.69 353.27 261.95 360.92 275.21 353.27"/><line class="bbc29a2d-7778-4d66-814d-476fcc5ab57c" x1="261.95" y1="213.8" x2="261.95" y2="311.44"/><polygon class="b890e700-2f0a-40e7-842d-b713ad50e78b" points="256.96 215.26 261.95 206.62 266.94 215.26 256.96 215.26"/><polygon class="b890e700-2f0a-40e7-842d-b713ad50e78b" points="256.96 309.99 261.95 318.62 266.94 309.99 256.96 309.99"/><line class="bbc29a2d-7778-4d66-814d-476fcc5ab57c" x1="427.95" y1="213.8" x2="427.95" y2="311.44"/><polygon class="b890e700-2f0a-40e7-842d-b713ad50e78b" points="422.96 215.26 427.95 206.62 432.94 215.26 422.96 215.26"/><polygon class="b890e700-2f0a-40e7-842d-b713ad50e78b" points="422.96 309.99 427.95 318.62 432.94 309.99 422.96 309.99"/><line class="bbc29a2d-7778-4d66-814d-476fcc5ab57c" x1="296.12" y1="179.5" x2="393.77" y2="179.5"/><polygon class="b890e700-2f0a-40e7-842d-b713ad50e78b" points="297.58 184.49 288.95 179.5 297.58 174.52 297.58 184.49"/><polygon class="b890e700-2f0a-40e7-842d-b713ad50e78b" points="392.31 184.49 400.95 179.5 392.31 174.52 392.31 184.49"/><g class="a3165f9c-d93a-44cb-b4f8-8dcfdcd32105"><line class="bbc29a2d-7778-4d66-814d-476fcc5ab57c" x1="296.12" y1="348.34" x2="393.77" y2="348.34"/><polygon class="b890e700-2f0a-40e7-842d-b713ad50e78b" points="297.58 353.33 288.95 348.35 297.58 343.36 297.58 353.33"/><polygon class="b890e700-2f0a-40e7-842d-b713ad50e78b" points="392.31 353.33 400.95 348.35 392.31 343.36 392.31 353.33"/></g><path class="ad6559d2-fc39-411d-8b5c-ee0dbb8253c9" d="M345.13,334.61a13.26,13.26,0,0,1,6.87,1.85,13.89,13.89,0,0,1,5,5,13.66,13.66,0,0,1,0,13.73,13.89,13.89,0,0,1-5,5,13.68,13.68,0,0,1-13.74,0,13.94,13.94,0,0,1-5-5,13.66,13.66,0,0,1,0-13.73,13.94,13.94,0,0,1,5-5A13.31,13.31,0,0,1,345.13,334.61Zm-7.2,20.94A9.88,9.88,0,0,0,342,358a10.49,10.49,0,0,0,9-1.33l-14.24-14.24a10.47,10.47,0,0,0-1.33,9A9.91,9.91,0,0,0,337.93,355.55Zm14.4-14.41a9.81,9.81,0,0,0-4.07-2.49,10.47,10.47,0,0,0-9,1.33l14.24,14.24a10.41,10.41,0,0,0,1.69-4.32,10.3,10.3,0,0,0-.36-4.68A9.83,9.83,0,0,0,352.33,341.14Z"/></g></svg>