<svg xmlns="http://www.w3.org/2000/svg" viewBox="0 0 690.27 523.1"><defs><style>.a3d954aa-e3bd-4cbe-85d9-ea79222d698f,.af039f18-7ac2-4e03-a974-5783897b9737,.af3c518a-6614-41b5-a2eb-f910ba70bc80,.b4dc7821-5462-43e1-8bdd-8c4d339a0206,.b812a516-8f02-49cd-b982-8c44fafb2a43,.ba9969f9-7213-468c-8014-6f91c41bccba{fill:none;}.af3c518a-6614-41b5-a2eb-f910ba70bc80{stroke:#466bb0;stroke-dasharray:10 10;}.af039f18-7ac2-4e03-a974-5783897b9737,.af3c518a-6614-41b5-a2eb-f910ba70bc80,.b4dc7821-5462-43e1-8bdd-8c4d339a0206,.b812a516-8f02-49cd-b982-8c44fafb2a43{stroke-linejoin:round;}.fd0c533f-117c-409c-a127-6d0f7a9473ca{font-size:12px;}.a382a5f8-8e62-4571-b6dd-5fe43e965b52,.fb88444c-adca-473c-b98a-e16af7d23c56,.fd0c533f-117c-409c-a127-6d0f7a9473ca{font-family:Roboto-Regular, Roboto;}.a382a5f8-8e62-4571-b6dd-5fe43e965b52{font-size:14.76px;}.e09beaf3-bcd1-4fe9-912b-8d94958e1a06{letter-spacing:-0.03em;}.ae999371-b277-48fa-a228-9dbc83c4ce6b{letter-spacing:-0.04em;}.b4dc7821-5462-43e1-8bdd-8c4d339a0206,.b812a516-8f02-49cd-b982-8c44fafb2a43{stroke:#e905ee;}.af039f18-7ac2-4e03-a974-5783897b9737,.b812a516-8f02-49cd-b982-8c44fafb2a43,.ba9969f9-7213-468c-8014-6f91c41bccba{stroke-width:2px;}.ad1a029c-49f2-47b4-ba05-d50b77ab04d8{letter-spacing:-0.03em;}.f7d21394-e7b4-4e7b-8b97-9cb8d1ddad83{letter-spacing:-0.04em;}.b827a184-b0de-4265-9253-8afd9ddfcddd{letter-spacing:0em;}.abe72f34-368f-4771-9932-e438090ea030{fill:#e6e6e6;}.bb8bd977-dc77-4675-8170-4ee23cd87368{fill:#fff;}.b4dc7821-5462-43e1-8bdd-8c4d339a0206{stroke-width:3px;}.fb88444c-adca-473c-b98a-e16af7d23c56{font-size:17.22px;}.b431e1ef-62da-4289-b56f-98cba6a9e7ac{letter-spacing:0.01em;}.a76fe000-134a-4cdd-9929-91d9bfcd8a0e{fill:#757575;}.af039f18-7ac2-4e03-a974-5783897b9737,.ba9969f9-7213-468c-8014-6f91c41bccba{stroke:#fff;}.ba9969f9-7213-468c-8014-6f91c41bccba{stroke-linecap:round;}.a3d954aa-e3bd-4cbe-85d9-ea79222d698f,.ba9969f9-7213-468c-8014-6f91c41bccba{stroke-miterlimit:10;}.a3d954aa-e3bd-4cbe-85d9-ea79222d698f{stroke:#090;stroke-width:4px;}.a7927b81-80cc-4fff-a71d-ef6d36479c8f{fill:#090;}.a318f344-40d8-4b86-a37c-073b783377a2{opacity:0.2;}.b3b85beb-4c00-4ea7-b0c9-cc0f420755a2{fill:#ff1d25;}</style></defs><title>exp-ns</title><g id="a2a4f74d-0500-4787-88a4-d406ae4e63de" data-name="exp-ns"><rect class="af3c518a-6614-41b5-a2eb-f910ba70bc80" x="0.5" y="13.7" width="689.27" height="508.9" rx="10"/><text class="fd0c533f-117c-409c-a127-6d0f7a9473ca" transform="translate(0.48 10.27)">Istio Mesh</text><text class="a382a5f8-8e62-4571-b6dd-5fe43e965b52" transform="translate(13.07 63.33)">Namespace:<tspan class="e09beaf3-bcd1-4fe9-912b-8d94958e1a06" x="82.37" y="0"> </tspan><tspan class="ae999371-b277-48fa-a228-9dbc83c4ce6b" x="85.6" y="0">T</tspan><tspan x="93.76" y="0">eam-1</tspan></text><rect class="b812a516-8f02-49cd-b982-8c44fafb2a43" x="13.16" y="67.03" width="304.79" height="404.87" rx="10"/><text class="a382a5f8-8e62-4571-b6dd-5fe43e965b52" transform="translate(372.31 63.33)">Namespace:<tspan class="ad1a029c-49f2-47b4-ba05-d50b77ab04d8" x="82.37" y="0"> </tspan><tspan class="f7d21394-e7b4-4e7b-8b97-9cb8d1ddad83" x="85.6" y="0">T</tspan><tspan class="b827a184-b0de-4265-9253-8afd9ddfcddd" x="93.76" y="0">eam-2</tspan></text><rect class="b812a516-8f02-49cd-b982-8c44fafb2a43" x="372.39" y="67.03" width="304.79" height="404.87" rx="10"/><rect class="abe72f34-368f-4771-9932-e438090ea030" x="403.17" y="116.52" width="243.16" height="88.58" rx="3"/><rect class="bb8bd977-dc77-4675-8170-4ee23cd87368" x="413.8" y="127.6" width="66.43" height="66.43" rx="3"/><polygon class="b4dc7821-5462-43e1-8bdd-8c4d339a0206" points="463.33 170.22 463.33 151.4 447.02 141.99 430.71 151.4 430.71 170.22 447.02 179.64 463.33 170.22"/><rect class="bb8bd977-dc77-4675-8170-4ee23cd87368" x="491.31" y="127.6" width="143.94" height="66.43" rx="3"/><text class="fb88444c-adca-473c-b98a-e16af7d23c56" transform="translate(555.85 166.77)">Se<tspan class="b431e1ef-62da-4289-b56f-98cba6a9e7ac" x="19.34" y="0">r</tspan><tspan x="25.32" y="0">vice C</tspan></text><circle class="a76fe000-134a-4cdd-9929-91d9bfcd8a0e" cx="524.53" cy="160.81" r="22.14"/><rect class="af039f18-7ac2-4e03-a974-5783897b9737" x="516.66" y="152.8" width="15.73" height="15.73"/><line class="ba9969f9-7213-468c-8014-6f91c41bccba" x1="519.57" y1="152.8" x2="519.57" y2="149.01"/><line class="ba9969f9-7213-468c-8014-6f91c41bccba" x1="524.53" y1="152.8" x2="524.53" y2="149.01"/><line class="ba9969f9-7213-468c-8014-6f91c41bccba" x1="529.48" y1="152.8" x2="529.48" y2="149.01"/><line class="ba9969f9-7213-468c-8014-6f91c41bccba" x1="519.57" y1="172.61" x2="519.57" y2="168.83"/><line class="ba9969f9-7213-468c-8014-6f91c41bccba" x1="524.53" y1="172.61" x2="524.53" y2="168.83"/><line class="ba9969f9-7213-468c-8014-6f91c41bccba" x1="529.48" y1="172.61" x2="529.48" y2="168.83"/><line class="ba9969f9-7213-468c-8014-6f91c41bccba" x1="516.51" y1="165.77" x2="512.73" y2="165.77"/><line class="ba9969f9-7213-468c-8014-6f91c41bccba" x1="516.51" y1="160.81" x2="512.73" y2="160.81"/><line class="ba9969f9-7213-468c-8014-6f91c41bccba" x1="516.51" y1="155.86" x2="512.73" y2="155.86"/><line class="ba9969f9-7213-468c-8014-6f91c41bccba" x1="536.33" y1="165.77" x2="532.54" y2="165.77"/><line class="ba9969f9-7213-468c-8014-6f91c41bccba" x1="536.33" y1="160.81" x2="532.54" y2="160.81"/><line class="ba9969f9-7213-468c-8014-6f91c41bccba" x1="536.33" y1="155.86" x2="532.54" y2="155.86"/><rect class="bb8bd977-dc77-4675-8170-4ee23cd87368" x="521.03" y="157.17" width="6.99" height="6.99" rx="2"/><rect class="abe72f34-368f-4771-9932-e438090ea030" x="43.93" y="116.52" width="243.16" height="88.58" rx="3"/><rect class="bb8bd977-dc77-4675-8170-4ee23cd87368" x="54.56" y="127.6" width="143.94" height="66.43" rx="3"/><text class="fb88444c-adca-473c-b98a-e16af7d23c56" transform="translate(119.09 166.77)">Se<tspan class="b431e1ef-62da-4289-b56f-98cba6a9e7ac" x="19.34" y="0">r</tspan><tspan x="25.32" y="0">vice A</tspan></text><circle class="a76fe000-134a-4cdd-9929-91d9bfcd8a0e" cx="87.78" cy="160.81" r="22.14"/><rect class="af039f18-7ac2-4e03-a974-5783897b9737" x="79.91" y="152.8" width="15.73" height="15.73"/><line class="ba9969f9-7213-468c-8014-6f91c41bccba" x1="82.83" y1="152.8" x2="82.83" y2="149.01"/><line class="ba9969f9-7213-468c-8014-6f91c41bccba" x1="87.78" y1="152.8" x2="87.78" y2="149.01"/><line class="ba9969f9-7213-468c-8014-6f91c41bccba" x1="92.73" y1="152.8" x2="92.73" y2="149.01"/><line class="ba9969f9-7213-468c-8014-6f91c41bccba" x1="82.83" y1="172.61" x2="82.83" y2="168.83"/><line class="ba9969f9-7213-468c-8014-6f91c41bccba" x1="87.78" y1="172.61" x2="87.78" y2="168.83"/><line class="ba9969f9-7213-468c-8014-6f91c41bccba" x1="92.73" y1="172.61" x2="92.73" y2="168.83"/><line class="ba9969f9-7213-468c-8014-6f91c41bccba" x1="79.77" y1="165.77" x2="75.98" y2="165.77"/><line class="ba9969f9-7213-468c-8014-6f91c41bccba" x1="79.77" y1="160.81" x2="75.98" y2="160.81"/><line class="ba9969f9-7213-468c-8014-6f91c41bccba" x1="79.77" y1="155.86" x2="75.98" y2="155.86"/><line class="ba9969f9-7213-468c-8014-6f91c41bccba" x1="99.58" y1="165.77" x2="95.79" y2="165.77"/><line class="ba9969f9-7213-468c-8014-6f91c41bccba" x1="99.58" y1="160.81" x2="95.79" y2="160.81"/><line class="ba9969f9-7213-468c-8014-6f91c41bccba" x1="99.58" y1="155.86" x2="95.79" y2="155.86"/><rect class="bb8bd977-dc77-4675-8170-4ee23cd87368" x="84.28" y="157.17" width="6.99" height="6.99" rx="2"/><rect class="bb8bd977-dc77-4675-8170-4ee23cd87368" x="209.58" y="127.6" width="66.43" height="66.43" rx="3"/><polygon class="b4dc7821-5462-43e1-8bdd-8c4d339a0206" points="259.11 170.22 259.11 151.4 242.79 141.99 226.48 151.4 226.48 170.22 242.79 179.64 259.11 170.22"/><rect class="abe72f34-368f-4771-9932-e438090ea030" x="403.17" y="320.75" width="243.16" height="88.58" rx="3"/><rect class="bb8bd977-dc77-4675-8170-4ee23cd87368" x="413.8" y="331.82" width="66.43" height="66.43" rx="3"/><polygon class="b4dc7821-5462-43e1-8bdd-8c4d339a0206" points="463.33 374.45 463.33 355.63 447.02 346.21 430.71 355.63 430.71 374.45 447.02 383.86 463.33 374.45"/><rect class="bb8bd977-dc77-4675-8170-4ee23cd87368" x="491.31" y="331.82" width="143.94" height="66.43" rx="3"/><text class="fb88444c-adca-473c-b98a-e16af7d23c56" transform="translate(555.8 370.99)">Se<tspan class="b431e1ef-62da-4289-b56f-98cba6a9e7ac" x="19.34" y="0">r</tspan><tspan x="25.32" y="0">vice D</tspan></text><circle class="a76fe000-134a-4cdd-9929-91d9bfcd8a0e" cx="524.53" cy="365.04" r="22.14"/><rect class="af039f18-7ac2-4e03-a974-5783897b9737" x="516.66" y="357.02" width="15.73" height="15.73"/><line class="ba9969f9-7213-468c-8014-6f91c41bccba" x1="519.57" y1="357.02" x2="519.57" y2="353.24"/><line class="ba9969f9-7213-468c-8014-6f91c41bccba" x1="524.53" y1="357.02" x2="524.53" y2="353.24"/><line class="ba9969f9-7213-468c-8014-6f91c41bccba" x1="529.48" y1="357.02" x2="529.48" y2="353.24"/><line class="ba9969f9-7213-468c-8014-6f91c41bccba" x1="519.57" y1="376.84" x2="519.57" y2="373.05"/><line class="ba9969f9-7213-468c-8014-6f91c41bccba" x1="524.53" y1="376.84" x2="524.53" y2="373.05"/><line class="ba9969f9-7213-468c-8014-6f91c41bccba" x1="529.48" y1="376.84" x2="529.48" y2="373.05"/><line class="ba9969f9-7213-468c-8014-6f91c41bccba" x1="516.51" y1="369.99" x2="512.73" y2="369.99"/><line class="ba9969f9-7213-468c-8014-6f91c41bccba" x1="516.51" y1="365.04" x2="512.73" y2="365.04"/><line class="ba9969f9-7213-468c-8014-6f91c41bccba" x1="516.51" y1="360.08" x2="512.73" y2="360.08"/><line class="ba9969f9-7213-468c-8014-6f91c41bccba" x1="536.33" y1="369.99" x2="532.54" y2="369.99"/><line class="ba9969f9-7213-468c-8014-6f91c41bccba" x1="536.33" y1="365.04" x2="532.54" y2="365.04"/><line class="ba9969f9-7213-468c-8014-6f91c41bccba" x1="536.33" y1="360.08" x2="532.54" y2="360.08"/><rect class="bb8bd977-dc77-4675-8170-4ee23cd87368" x="521.03" y="361.4" width="6.99" height="6.99" rx="2"/><rect class="abe72f34-368f-4771-9932-e438090ea030" x="43.93" y="320.75" width="243.16" height="88.58" rx="3"/><rect class="bb8bd977-dc77-4675-8170-4ee23cd87368" x="54.56" y="331.82" width="143.94" height="66.43" rx="3"/><text class="fb88444c-adca-473c-b98a-e16af7d23c56" transform="translate(119.34 370.99)">Se<tspan class="b431e1ef-62da-4289-b56f-98cba6a9e7ac" x="19.34" y="0">r</tspan><tspan x="25.32" y="0">vice B</tspan></text><circle class="a76fe000-134a-4cdd-9929-91d9bfcd8a0e" cx="87.78" cy="365.04" r="22.14"/><rect class="af039f18-7ac2-4e03-a974-5783897b9737" x="79.91" y="357.02" width="15.73" height="15.73"/><line class="ba9969f9-7213-468c-8014-6f91c41bccba" x1="82.83" y1="357.02" x2="82.83" y2="353.24"/><line class="ba9969f9-7213-468c-8014-6f91c41bccba" x1="87.78" y1="357.02" x2="87.78" y2="353.24"/><line class="ba9969f9-7213-468c-8014-6f91c41bccba" x1="92.73" y1="357.02" x2="92.73" y2="353.24"/><line class="ba9969f9-7213-468c-8014-6f91c41bccba" x1="82.83" y1="376.84" x2="82.83" y2="373.05"/><line class="ba9969f9-7213-468c-8014-6f91c41bccba" x1="87.78" y1="376.84" x2="87.78" y2="373.05"/><line class="ba9969f9-7213-468c-8014-6f91c41bccba" x1="92.73" y1="376.84" x2="92.73" y2="373.05"/><line class="ba9969f9-7213-468c-8014-6f91c41bccba" x1="79.77" y1="369.99" x2="75.98" y2="369.99"/><line class="ba9969f9-7213-468c-8014-6f91c41bccba" x1="79.77" y1="365.04" x2="75.98" y2="365.04"/><line class="ba9969f9-7213-468c-8014-6f91c41bccba" x1="79.77" y1="360.08" x2="75.98" y2="360.08"/><line class="ba9969f9-7213-468c-8014-6f91c41bccba" x1="99.58" y1="369.99" x2="95.79" y2="369.99"/><line class="ba9969f9-7213-468c-8014-6f91c41bccba" x1="99.58" y1="365.04" x2="95.79" y2="365.04"/><line class="ba9969f9-7213-468c-8014-6f91c41bccba" x1="99.58" y1="360.08" x2="95.79" y2="360.08"/><rect class="bb8bd977-dc77-4675-8170-4ee23cd87368" x="84.28" y="361.4" width="6.99" height="6.99" rx="2"/><rect class="bb8bd977-dc77-4675-8170-4ee23cd87368" x="209.58" y="331.82" width="66.43" height="66.43" rx="3"/><polygon class="b4dc7821-5462-43e1-8bdd-8c4d339a0206" points="259.11 374.45 259.11 355.63 242.79 346.21 226.48 355.63 226.48 374.45 242.79 383.86 259.11 374.45"/><line class="a3d954aa-e3bd-4cbe-85d9-ea79222d698f" x1="242.8" y1="201.21" x2="242.8" y2="324.64"/><polygon class="a7927b81-80cc-4fff-a71d-ef6d36479c8f" points="237.81 202.66 242.79 194.03 247.78 202.66 237.81 202.66"/><polygon class="a7927b81-80cc-4fff-a71d-ef6d36479c8f" points="237.81 323.19 242.79 331.82 247.78 323.19 237.81 323.19"/><line class="a3d954aa-e3bd-4cbe-85d9-ea79222d698f" x1="447.02" y1="201.21" x2="447.02" y2="324.64"/><polygon class="a7927b81-80cc-4fff-a71d-ef6d36479c8f" points="442.03 202.66 447.02 194.03 452.01 202.66 442.03 202.66"/><polygon class="a7927b81-80cc-4fff-a71d-ef6d36479c8f" points="442.03 323.19 447.02 331.82 452.01 323.19 442.03 323.19"/><line class="a3d954aa-e3bd-4cbe-85d9-ea79222d698f" x1="283.19" y1="160.67" x2="406.63" y2="160.67"/><polygon class="a7927b81-80cc-4fff-a71d-ef6d36479c8f" points="284.65 165.65 276.01 160.67 284.65 155.68 284.65 165.65"/><polygon class="a7927b81-80cc-4fff-a71d-ef6d36479c8f" points="405.17 165.65 413.8 160.67 405.17 155.68 405.17 165.65"/><g class="a318f344-40d8-4b86-a37c-073b783377a2"><line class="a3d954aa-e3bd-4cbe-85d9-ea79222d698f" x1="283.19" y1="368.39" x2="406.63" y2="368.39"/><polygon class="a7927b81-80cc-4fff-a71d-ef6d36479c8f" points="284.65 373.38 276.01 368.39 284.65 363.4 284.65 373.38"/><polygon class="a7927b81-80cc-4fff-a71d-ef6d36479c8f" points="405.17 373.38 413.8 368.39 405.17 363.4 405.17 373.38"/></g><path class="b3b85beb-4c00-4ea7-b0c9-cc0f420755a2" d="M345.14,351.49a16.41,16.41,0,0,1,8.45,2.28,17,17,0,0,1,6.16,6.17,16.74,16.74,0,0,1,0,16.9,17.11,17.11,0,0,1-6.16,6.17,16.82,16.82,0,0,1-16.91,0,17.18,17.18,0,0,1-6.16-6.17,16.74,16.74,0,0,1,0-16.9,17.11,17.11,0,0,1,6.16-6.17A16.42,16.42,0,0,1,345.14,351.49Zm-8.86,25.76a12,12,0,0,0,5,3.06,12.86,12.86,0,0,0,11.08-1.63l-17.52-17.52a12.95,12.95,0,0,0-1.63,11.08A12.15,12.15,0,0,0,336.28,377.25ZM354,359.53a12.15,12.15,0,0,0-5-3.07,12.9,12.9,0,0,0-11.08,1.64l17.52,17.51a12.92,12.92,0,0,0,1.63-11.07A12.11,12.11,0,0,0,354,359.53Z"/></g></svg>