<svg xmlns="http://www.w3.org/2000/svg" viewBox="0 0 1003.27 530.67"><defs><style>.a30cd5eb-b905-49b2-ba77-2bb09b1db2d3,.aba8be76-3214-4280-8b97-caecb6c90cb8,.ac058616-d45e-4618-806b-4fde5b0ad3bc,.aec00d7a-1275-4a4a-8299-79fd42153805,.b22edeaa-928b-42c6-8e35-e9b00fd46b29,.b9c7b889-1b0e-438c-901c-636ce7b868fd,.bb45641c-efd1-44f1-ad5f-cec9ebe242f3,.bf3bedf1-3202-49f0-97bc-7646244139c1,.e7a934e7-16e9-4ee5-a484-bcb8acaffad3{fill:none;}.ac058616-d45e-4618-806b-4fde5b0ad3bc{stroke:#466bb0;stroke-dasharray:10 10;}.a30cd5eb-b905-49b2-ba77-2bb09b1db2d3,.aba8be76-3214-4280-8b97-caecb6c90cb8,.ac058616-d45e-4618-806b-4fde5b0ad3bc,.aec00d7a-1275-4a4a-8299-79fd42153805,.b22edeaa-928b-42c6-8e35-e9b00fd46b29,.bb45641c-efd1-44f1-ad5f-cec9ebe242f3,.bf3bedf1-3202-49f0-97bc-7646244139c1{stroke-linejoin:round;}.a671bd13-b1ff-40e9-a98e-de21c405d8f5{font-size:12px;}.a671bd13-b1ff-40e9-a98e-de21c405d8f5,.bca0067d-55d8-4d36-b767-5da3f7aed93a,.fbcee516-e710-47dd-8b02-f8e6fd7368fc{font-family:Roboto-Regular, Roboto;}.e1bafa69-9825-4918-bb0b-56faf93cba60{letter-spacing:-0.02em;}.acdeefe1-a0a3-470e-8a8a-4401628ae528{letter-spacing:-0.01em;}.fbcee516-e710-47dd-8b02-f8e6fd7368fc{font-size:13.95px;}.f897b7ad-66f7-4441-a194-73ddc63e2d9f{letter-spacing:-0.02em;}.a30cd5eb-b905-49b2-ba77-2bb09b1db2d3{stroke:#fbb040;}.a30cd5eb-b905-49b2-ba77-2bb09b1db2d3,.b22edeaa-928b-42c6-8e35-e9b00fd46b29,.e7a934e7-16e9-4ee5-a484-bcb8acaffad3{stroke-width:2px;}.f435301c-94a0-4c4b-bebf-a6c07eb95f88{opacity:0.25;}.f5cbfec5-1b0c-4a31-84b0-a54080ccd205{fill:#e5e5e4;}.a5c7e88e-c664-4908-ad6a-f0418d8dfe88{fill:#fff;}.bca0067d-55d8-4d36-b767-5da3f7aed93a{font-size:16.27px;}.f51b2273-e850-40e1-8708-c51fc0f85066{letter-spacing:-0.02em;}.f8448913-4558-41ea-8ff1-7da4b35c3608{letter-spacing:0em;}.b35221eb-6b0c-4996-8053-adfe62205100{fill:#486baf;}.fdda72d4-85e3-419b-a18c-818a56b24233{fill:#e6e6e6;}.e4a5e09b-9377-4401-b634-e345adf58c5c{letter-spacing:0.01em;}.bf4c55a0-d124-498a-a1fc-e71a3e8d1e95{letter-spacing:0em;}.b2bcf876-ea31-426f-ae19-f54b799cf47e{fill:#757575;}.b22edeaa-928b-42c6-8e35-e9b00fd46b29,.e7a934e7-16e9-4ee5-a484-bcb8acaffad3{stroke:#fff;}.aec00d7a-1275-4a4a-8299-79fd42153805,.bb45641c-efd1-44f1-ad5f-cec9ebe242f3,.bf3bedf1-3202-49f0-97bc-7646244139c1,.e7a934e7-16e9-4ee5-a484-bcb8acaffad3{stroke-linecap:round;}.b9c7b889-1b0e-438c-901c-636ce7b868fd,.e7a934e7-16e9-4ee5-a484-bcb8acaffad3{stroke-miterlimit:10;}.aba8be76-3214-4280-8b97-caecb6c90cb8{stroke:#e905ee;stroke-width:3px;}.aec00d7a-1275-4a4a-8299-79fd42153805,.bb45641c-efd1-44f1-ad5f-cec9ebe242f3,.bf3bedf1-3202-49f0-97bc-7646244139c1{stroke:#486baf;}.aec00d7a-1275-4a4a-8299-79fd42153805,.b9c7b889-1b0e-438c-901c-636ce7b868fd,.bb45641c-efd1-44f1-ad5f-cec9ebe242f3,.bf3bedf1-3202-49f0-97bc-7646244139c1{stroke-width:4px;}.aec00d7a-1275-4a4a-8299-79fd42153805{stroke-dasharray:6 12;}.b9c7b889-1b0e-438c-901c-636ce7b868fd{stroke:#090;}.b015635e-95e7-45d4-8354-f6875f2326c1{fill:#090;}.bb45641c-efd1-44f1-ad5f-cec9ebe242f3{stroke-dasharray:6.11 12.22;}.bb14bef3-a262-49f4-b7d7-4167c36df05e{fill:#ff1d25;}</style></defs><title>failover</title><g id="b0875e90-6d28-4b0e-9cc6-9997d7942412" data-name="failover"><rect class="ac058616-d45e-4618-806b-4fde5b0ad3bc" x="0.5" y="13.7" width="1002.27" height="516.47" rx="10"/><text class="a671bd13-b1ff-40e9-a98e-de21c405d8f5" transform="translate(0.48 10.27)">Istio Mesh after cont<tspan class="e1bafa69-9825-4918-bb0b-56faf93cba60" x="110.37" y="0">r</tspan><tspan x="114.23" y="0">ol plane failu</tspan><tspan class="acdeefe1-a0a3-470e-8a8a-4401628ae528" x="182.21" y="0">r</tspan><tspan x="186.16" y="0">e</tspan></text><text class="fbcee516-e710-47dd-8b02-f8e6fd7368fc" transform="translate(11.34 81.26)">Cluster: <tspan class="f897b7ad-66f7-4441-a194-73ddc63e2d9f" x="50.83" y="0">W</tspan><tspan x="63" y="0">est</tspan></text><path class="a30cd5eb-b905-49b2-ba77-2bb09b1db2d3" d="M467.46,468.91,23,467.23a11.66,11.66,0,0,1-11.62-11.62V96.38A11.66,11.66,0,0,1,23,84.76l444.42,1.68a11.66,11.66,0,0,1,11.62,11.62V457.29A11.66,11.66,0,0,1,467.46,468.91Z"/><text class="fbcee516-e710-47dd-8b02-f8e6fd7368fc" transform="translate(522.15 82.95)">Cluster: East</text><g class="f435301c-94a0-4c4b-bebf-a6c07eb95f88"><rect class="f5cbfec5-1b0c-4a31-84b0-a54080ccd205" x="36.11" y="225.54" width="172.32" height="105.47" rx="3"/><rect class="a5c7e88e-c664-4908-ad6a-f0418d8dfe88" x="48.42" y="286.26" width="147.7" height="36.93" rx="3"/><text class="bca0067d-55d8-4d36-b767-5da3f7aed93a" transform="translate(73.61 309.48)">Cont<tspan class="f51b2273-e850-40e1-8708-c51fc0f85066" x="34.16" y="0">r</tspan><tspan class="f8448913-4558-41ea-8ff1-7da4b35c3608" x="39.4" y="0">ol Plane</tspan></text><rect id="f9140bce-713c-4079-aa75-1dc40eaed900" data-name="background" class="b35221eb-6b0c-4996-8053-adfe62205100" x="102.39" y="225.54" width="39.76" height="39.76"/><polygon id="a02f1f36-d2c1-440f-90db-5a4f628a452f" data-name="hull" class="a5c7e88e-c664-4908-ad6a-f0418d8dfe88" points="110.25 258.95 134.29 258.95 119.27 263.46 110.25 258.95"/><polygon id="a06fed29-4a56-480f-907b-6ac58a1115f2" data-name="mainsail" class="a5c7e88e-c664-4908-ad6a-f0418d8dfe88" points="110.25 257.44 119.27 255.94 119.27 239.41 110.25 257.44"/><polygon id="b37d5c50-3bd5-41f0-b5d7-5bf005b4dfa7" data-name="headsail" class="a5c7e88e-c664-4908-ad6a-f0418d8dfe88" points="120.77 255.94 134.29 257.44 120.77 227.39 120.77 255.94"/></g><rect class="f5cbfec5-1b0c-4a31-84b0-a54080ccd205" x="792.38" y="225.54" width="172.32" height="105.47" rx="3"/><rect class="a5c7e88e-c664-4908-ad6a-f0418d8dfe88" x="804.69" y="286.26" width="147.7" height="36.93" rx="3"/><text class="bca0067d-55d8-4d36-b767-5da3f7aed93a" transform="translate(829.89 309.48)">Cont<tspan class="f51b2273-e850-40e1-8708-c51fc0f85066" x="34.16" y="0">r</tspan><tspan class="f8448913-4558-41ea-8ff1-7da4b35c3608" x="39.4" y="0">ol Plane</tspan></text><rect id="e5042e8d-650a-4462-88b9-3f6b28fd8e9b" data-name="background" class="b35221eb-6b0c-4996-8053-adfe62205100" x="858.67" y="225.54" width="39.76" height="39.76"/><polygon id="b590849e-cffd-4506-bcef-7154e0724f74" data-name="hull" class="a5c7e88e-c664-4908-ad6a-f0418d8dfe88" points="866.52 258.95 890.57 258.95 875.54 263.46 866.52 258.95"/><polygon id="bfdf0ddb-1a7f-4603-9f1e-97c819078b73" data-name="mainsail" class="a5c7e88e-c664-4908-ad6a-f0418d8dfe88" points="866.52 257.44 875.54 255.94 875.54 239.41 866.52 257.44"/><polygon id="fb4d4b33-08d6-4221-b452-a2dbe35ebc01" data-name="headsail" class="a5c7e88e-c664-4908-ad6a-f0418d8dfe88" points="877.04 255.94 890.57 257.44 877.04 227.39 877.04 255.94"/><rect class="fdda72d4-85e3-419b-a18c-818a56b24233" x="130.4" y="100.97" width="229.71" height="83.68" rx="3"/><rect class="a5c7e88e-c664-4908-ad6a-f0418d8dfe88" x="140.44" y="111.43" width="135.98" height="62.76" rx="3"/><text class="bca0067d-55d8-4d36-b767-5da3f7aed93a" transform="translate(201.4 148.44)">Se<tspan class="e4a5e09b-9377-4401-b634-e345adf58c5c" x="18.27" y="0">r</tspan><tspan class="bf4c55a0-d124-498a-a1fc-e71a3e8d1e95" x="23.92" y="0">vice A</tspan></text><circle class="b2bcf876-ea31-426f-ae19-f54b799cf47e" cx="171.82" cy="142.81" r="20.92"/><rect class="b22edeaa-928b-42c6-8e35-e9b00fd46b29" x="164.39" y="135.24" width="14.86" height="14.86"/><line class="e7a934e7-16e9-4ee5-a484-bcb8acaffad3" x1="167.14" y1="135.24" x2="167.14" y2="131.67"/><line class="e7a934e7-16e9-4ee5-a484-bcb8acaffad3" x1="171.82" y1="135.24" x2="171.82" y2="131.67"/><line class="e7a934e7-16e9-4ee5-a484-bcb8acaffad3" x1="176.5" y1="135.24" x2="176.5" y2="131.67"/><line class="e7a934e7-16e9-4ee5-a484-bcb8acaffad3" x1="167.14" y1="153.96" x2="167.14" y2="150.38"/><line class="e7a934e7-16e9-4ee5-a484-bcb8acaffad3" x1="171.82" y1="153.96" x2="171.82" y2="150.38"/><line class="e7a934e7-16e9-4ee5-a484-bcb8acaffad3" x1="176.5" y1="153.96" x2="176.5" y2="150.38"/><line class="e7a934e7-16e9-4ee5-a484-bcb8acaffad3" x1="164.25" y1="147.49" x2="160.68" y2="147.49"/><line class="e7a934e7-16e9-4ee5-a484-bcb8acaffad3" x1="164.25" y1="142.81" x2="160.68" y2="142.81"/><line class="e7a934e7-16e9-4ee5-a484-bcb8acaffad3" x1="164.25" y1="138.13" x2="160.68" y2="138.13"/><line class="e7a934e7-16e9-4ee5-a484-bcb8acaffad3" x1="182.97" y1="147.49" x2="179.39" y2="147.49"/><line class="e7a934e7-16e9-4ee5-a484-bcb8acaffad3" x1="182.97" y1="142.81" x2="179.39" y2="142.81"/><line class="e7a934e7-16e9-4ee5-a484-bcb8acaffad3" x1="182.97" y1="138.13" x2="179.39" y2="138.13"/><rect class="a5c7e88e-c664-4908-ad6a-f0418d8dfe88" x="168.52" y="139.37" width="6.61" height="6.61" rx="2"/><rect class="a5c7e88e-c664-4908-ad6a-f0418d8dfe88" x="286.88" y="111.43" width="62.76" height="62.76" rx="3"/><polygon class="aba8be76-3214-4280-8b97-caecb6c90cb8" points="333.67 151.7 333.67 133.92 318.26 125.03 302.85 133.92 302.85 151.7 318.26 160.59 333.67 151.7"/><rect class="fdda72d4-85e3-419b-a18c-818a56b24233" x="130.4" y="371.9" width="229.71" height="83.68" rx="3"/><rect class="a5c7e88e-c664-4908-ad6a-f0418d8dfe88" x="140.44" y="382.36" width="135.98" height="62.76" rx="3"/><text class="bca0067d-55d8-4d36-b767-5da3f7aed93a" transform="translate(201.64 419.37)">Se<tspan class="e4a5e09b-9377-4401-b634-e345adf58c5c" x="18.27" y="0">r</tspan><tspan class="bf4c55a0-d124-498a-a1fc-e71a3e8d1e95" x="23.92" y="0">vice B</tspan></text><circle class="b2bcf876-ea31-426f-ae19-f54b799cf47e" cx="171.82" cy="413.74" r="20.92"/><rect class="b22edeaa-928b-42c6-8e35-e9b00fd46b29" x="164.39" y="406.17" width="14.86" height="14.86"/><line class="e7a934e7-16e9-4ee5-a484-bcb8acaffad3" x1="167.14" y1="406.17" x2="167.14" y2="402.59"/><line class="e7a934e7-16e9-4ee5-a484-bcb8acaffad3" x1="171.82" y1="406.17" x2="171.82" y2="402.59"/><line class="e7a934e7-16e9-4ee5-a484-bcb8acaffad3" x1="176.5" y1="406.17" x2="176.5" y2="402.59"/><line class="e7a934e7-16e9-4ee5-a484-bcb8acaffad3" x1="167.14" y1="424.89" x2="167.14" y2="421.31"/><line class="e7a934e7-16e9-4ee5-a484-bcb8acaffad3" x1="171.82" y1="424.89" x2="171.82" y2="421.31"/><line class="e7a934e7-16e9-4ee5-a484-bcb8acaffad3" x1="176.5" y1="424.89" x2="176.5" y2="421.31"/><line class="e7a934e7-16e9-4ee5-a484-bcb8acaffad3" x1="164.25" y1="418.42" x2="160.68" y2="418.42"/><line class="e7a934e7-16e9-4ee5-a484-bcb8acaffad3" x1="164.25" y1="413.74" x2="160.68" y2="413.74"/><line class="e7a934e7-16e9-4ee5-a484-bcb8acaffad3" x1="164.25" y1="409.06" x2="160.68" y2="409.06"/><line class="e7a934e7-16e9-4ee5-a484-bcb8acaffad3" x1="182.97" y1="418.42" x2="179.39" y2="418.42"/><line class="e7a934e7-16e9-4ee5-a484-bcb8acaffad3" x1="182.97" y1="413.74" x2="179.39" y2="413.74"/><line class="e7a934e7-16e9-4ee5-a484-bcb8acaffad3" x1="182.97" y1="409.06" x2="179.39" y2="409.06"/><rect class="a5c7e88e-c664-4908-ad6a-f0418d8dfe88" x="168.52" y="410.3" width="6.61" height="6.61" rx="2"/><rect class="a5c7e88e-c664-4908-ad6a-f0418d8dfe88" x="286.88" y="382.36" width="62.76" height="62.76" rx="3"/><polygon class="aba8be76-3214-4280-8b97-caecb6c90cb8" points="333.67 422.63 333.67 404.85 318.26 395.96 302.85 404.85 302.85 422.63 318.26 431.52 333.67 422.63"/><g class="f435301c-94a0-4c4b-bebf-a6c07eb95f88"><line class="aec00d7a-1275-4a4a-8299-79fd42153805" x1="318.26" y1="181.37" x2="318.26" y2="375.19"/><polygon class="b35221eb-6b0c-4996-8053-adfe62205100" points="313.27 182.83 318.26 174.19 323.25 182.83 313.27 182.83"/><polygon class="b35221eb-6b0c-4996-8053-adfe62205100" points="313.27 373.73 318.26 382.36 323.25 373.73 313.27 373.73"/></g><path class="a30cd5eb-b905-49b2-ba77-2bb09b1db2d3" d="M978.19,468.91l-444.42-1.68a11.66,11.66,0,0,1-11.62-11.62V96.38a11.66,11.66,0,0,1,11.62-11.62l444.42,1.68a11.66,11.66,0,0,1,11.62,11.62V457.29A11.66,11.66,0,0,1,978.19,468.91Z"/><rect class="fdda72d4-85e3-419b-a18c-818a56b24233" x="641.13" y="102.66" width="229.71" height="83.68" rx="3"/><rect class="a5c7e88e-c664-4908-ad6a-f0418d8dfe88" x="651.18" y="113.12" width="62.76" height="62.76" rx="3"/><polygon class="aba8be76-3214-4280-8b97-caecb6c90cb8" points="697.97 153.39 697.97 135.6 682.55 126.71 667.14 135.6 667.14 153.39 682.55 162.28 697.97 153.39"/><rect class="a5c7e88e-c664-4908-ad6a-f0418d8dfe88" x="724.39" y="113.12" width="135.98" height="62.76" rx="3"/><text class="bca0067d-55d8-4d36-b767-5da3f7aed93a" transform="translate(785.59 150.12)">Se<tspan class="e4a5e09b-9377-4401-b634-e345adf58c5c" x="18.27" y="0">r</tspan><tspan class="bf4c55a0-d124-498a-a1fc-e71a3e8d1e95" x="23.92" y="0">vice B</tspan></text><circle class="b2bcf876-ea31-426f-ae19-f54b799cf47e" cx="755.77" cy="144.5" r="20.92"/><rect class="b22edeaa-928b-42c6-8e35-e9b00fd46b29" x="748.34" y="136.93" width="14.86" height="14.86"/><line class="e7a934e7-16e9-4ee5-a484-bcb8acaffad3" x1="751.09" y1="136.93" x2="751.09" y2="133.35"/><line class="e7a934e7-16e9-4ee5-a484-bcb8acaffad3" x1="755.77" y1="136.93" x2="755.77" y2="133.35"/><line class="e7a934e7-16e9-4ee5-a484-bcb8acaffad3" x1="760.45" y1="136.93" x2="760.45" y2="133.35"/><line class="e7a934e7-16e9-4ee5-a484-bcb8acaffad3" x1="751.09" y1="155.64" x2="751.09" y2="152.07"/><line class="e7a934e7-16e9-4ee5-a484-bcb8acaffad3" x1="755.77" y1="155.64" x2="755.77" y2="152.07"/><line class="e7a934e7-16e9-4ee5-a484-bcb8acaffad3" x1="760.45" y1="155.64" x2="760.45" y2="152.07"/><line class="e7a934e7-16e9-4ee5-a484-bcb8acaffad3" x1="748.2" y1="149.18" x2="744.63" y2="149.18"/><line class="e7a934e7-16e9-4ee5-a484-bcb8acaffad3" x1="748.2" y1="144.5" x2="744.63" y2="144.5"/><line class="e7a934e7-16e9-4ee5-a484-bcb8acaffad3" x1="748.2" y1="139.82" x2="744.63" y2="139.82"/><line class="e7a934e7-16e9-4ee5-a484-bcb8acaffad3" x1="766.92" y1="149.18" x2="763.34" y2="149.18"/><line class="e7a934e7-16e9-4ee5-a484-bcb8acaffad3" x1="766.92" y1="144.5" x2="763.34" y2="144.5"/><line class="e7a934e7-16e9-4ee5-a484-bcb8acaffad3" x1="766.92" y1="139.82" x2="763.34" y2="139.82"/><rect class="a5c7e88e-c664-4908-ad6a-f0418d8dfe88" x="752.47" y="141.06" width="6.61" height="6.61" rx="2"/><rect class="fdda72d4-85e3-419b-a18c-818a56b24233" x="641.13" y="373.59" width="229.71" height="83.68" rx="3"/><rect class="a5c7e88e-c664-4908-ad6a-f0418d8dfe88" x="651.18" y="384.04" width="62.76" height="62.76" rx="3"/><polygon class="aba8be76-3214-4280-8b97-caecb6c90cb8" points="697.97 424.31 697.97 406.53 682.55 397.64 667.14 406.53 667.14 424.31 682.55 433.21 697.97 424.31"/><rect class="a5c7e88e-c664-4908-ad6a-f0418d8dfe88" x="724.39" y="384.04" width="135.98" height="62.76" rx="3"/><text class="bca0067d-55d8-4d36-b767-5da3f7aed93a" transform="translate(785.35 421.05)">Se<tspan class="e4a5e09b-9377-4401-b634-e345adf58c5c" x="18.27" y="0">r</tspan><tspan class="bf4c55a0-d124-498a-a1fc-e71a3e8d1e95" x="23.92" y="0">vice A</tspan></text><circle class="b2bcf876-ea31-426f-ae19-f54b799cf47e" cx="755.77" cy="415.42" r="20.92"/><rect class="b22edeaa-928b-42c6-8e35-e9b00fd46b29" x="748.34" y="407.85" width="14.86" height="14.86"/><line class="e7a934e7-16e9-4ee5-a484-bcb8acaffad3" x1="751.09" y1="407.85" x2="751.09" y2="404.28"/><line class="e7a934e7-16e9-4ee5-a484-bcb8acaffad3" x1="755.77" y1="407.85" x2="755.77" y2="404.28"/><line class="e7a934e7-16e9-4ee5-a484-bcb8acaffad3" x1="760.45" y1="407.85" x2="760.45" y2="404.28"/><line class="e7a934e7-16e9-4ee5-a484-bcb8acaffad3" x1="751.09" y1="426.57" x2="751.09" y2="422.99"/><line class="e7a934e7-16e9-4ee5-a484-bcb8acaffad3" x1="755.77" y1="426.57" x2="755.77" y2="422.99"/><line class="e7a934e7-16e9-4ee5-a484-bcb8acaffad3" x1="760.45" y1="426.57" x2="760.45" y2="422.99"/><line class="e7a934e7-16e9-4ee5-a484-bcb8acaffad3" x1="748.2" y1="420.1" x2="744.63" y2="420.1"/><line class="e7a934e7-16e9-4ee5-a484-bcb8acaffad3" x1="748.2" y1="415.42" x2="744.63" y2="415.42"/><line class="e7a934e7-16e9-4ee5-a484-bcb8acaffad3" x1="748.2" y1="410.75" x2="744.63" y2="410.75"/><line class="e7a934e7-16e9-4ee5-a484-bcb8acaffad3" x1="766.92" y1="420.1" x2="763.34" y2="420.1"/><line class="e7a934e7-16e9-4ee5-a484-bcb8acaffad3" x1="766.92" y1="415.42" x2="763.34" y2="415.42"/><line class="e7a934e7-16e9-4ee5-a484-bcb8acaffad3" x1="766.92" y1="410.75" x2="763.34" y2="410.75"/><rect class="a5c7e88e-c664-4908-ad6a-f0418d8dfe88" x="752.47" y="411.98" width="6.61" height="6.61" rx="2"/><line class="aec00d7a-1275-4a4a-8299-79fd42153805" x1="682.56" y1="183.05" x2="682.56" y2="376.87"/><polygon class="b35221eb-6b0c-4996-8053-adfe62205100" points="677.57 184.51 682.55 175.88 687.54 184.51 677.57 184.51"/><polygon class="b35221eb-6b0c-4996-8053-adfe62205100" points="677.57 375.41 682.55 384.05 687.54 375.41 677.57 375.41"/><line class="b9c7b889-1b0e-438c-901c-636ce7b868fd" x1="356.82" y1="142.81" x2="644" y2="142.81"/><polygon class="b015635e-95e7-45d4-8354-f6875f2326c1" points="358.28 147.8 349.64 142.81 358.28 137.83 358.28 147.8"/><polygon class="b015635e-95e7-45d4-8354-f6875f2326c1" points="642.54 147.8 651.18 142.81 642.54 137.83 642.54 147.8"/><line class="b9c7b889-1b0e-438c-901c-636ce7b868fd" x1="356.82" y1="413.74" x2="644" y2="413.74"/><polygon class="b015635e-95e7-45d4-8354-f6875f2326c1" points="358.28 418.73 349.64 413.74 358.28 408.75 358.28 418.73"/><polygon class="b015635e-95e7-45d4-8354-f6875f2326c1" points="642.54 418.73 651.18 413.74 642.54 408.75 642.54 418.73"/><line class="b9c7b889-1b0e-438c-901c-636ce7b868fd" x1="499.25" y1="142.81" x2="499.25" y2="413.6"/><g class="f435301c-94a0-4c4b-bebf-a6c07eb95f88"><line class="bf3bedf1-3202-49f0-97bc-7646244139c1" x1="208.43" y1="278.28" x2="211.43" y2="278.28"/><line class="bb45641c-efd1-44f1-ad5f-cec9ebe242f3" x1="223.65" y1="278.28" x2="309.15" y2="278.28"/><line class="bf3bedf1-3202-49f0-97bc-7646244139c1" x1="315.26" y1="278.28" x2="318.26" y2="278.28"/></g><line class="aec00d7a-1275-4a4a-8299-79fd42153805" x1="792.38" y1="278.28" x2="682.56" y2="278.28"/><polyline class="aec00d7a-1275-4a4a-8299-79fd42153805" points="921.2 225.54 921.2 54.74 318.26 54.74 318.26 104.26"/><polygon class="b35221eb-6b0c-4996-8053-adfe62205100" points="313.27 102.8 318.26 111.43 323.25 102.8 313.27 102.8"/><polyline class="aec00d7a-1275-4a4a-8299-79fd42153805" points="921.2 331.01 921.2 501.81 318.26 501.81 318.26 452.3"/><polygon class="b35221eb-6b0c-4996-8053-adfe62205100" points="323.25 453.76 318.26 445.12 313.27 453.76 323.25 453.76"/><path class="bb14bef3-a262-49f4-b7d7-4167c36df05e" d="M122.27,206.76A69.24,69.24,0,0,1,158,216.42a72.32,72.32,0,0,1,26.1,26.1,71,71,0,0,1,0,71.52,72.4,72.4,0,0,1-26.1,26.1,71,71,0,0,1-71.52,0A72.4,72.4,0,0,1,60.41,314a71,71,0,0,1,0-71.52,72.32,72.32,0,0,1,26.1-26.1A69.27,69.27,0,0,1,122.27,206.76Zm-37.49,109a51.32,51.32,0,0,0,21.2,13,54.45,54.45,0,0,0,46.86-6.92L78.73,247.71a54.5,54.5,0,0,0-6.93,46.86A51.34,51.34,0,0,0,84.78,315.77Zm75-75a51.27,51.27,0,0,0-21.19-13,54.57,54.57,0,0,0-46.87,6.92l74.12,74.12A54.57,54.57,0,0,0,172.74,262,51.31,51.31,0,0,0,159.76,240.79Z"/></g></svg>