<svg xmlns="http://www.w3.org/2000/svg" viewBox="0 0 690.27 523.1"><defs><style>.afd8a6b3-85b9-45bf-8099-5b5e99a801c4,.b4b970f4-7e1f-4a09-85b6-8a3d675b11e4,.e5aa0623-8d0e-4d72-8ba2-95d8d3cde74a,.f5039190-b387-432f-a20c-1a4ae4212035,.f695ebd2-7d89-48a1-99c3-59f765395828,.fb99ed29-9269-43c6-a5ac-6e7b8e5b7a17{fill:none;}.b4b970f4-7e1f-4a09-85b6-8a3d675b11e4{stroke:#466bb0;stroke-dasharray:10 10;}.afd8a6b3-85b9-45bf-8099-5b5e99a801c4,.b4b970f4-7e1f-4a09-85b6-8a3d675b11e4,.f5039190-b387-432f-a20c-1a4ae4212035,.f695ebd2-7d89-48a1-99c3-59f765395828{stroke-linejoin:round;}.f14256bd-9428-46b1-8922-620438ee8ce5{font-size:12px;}.a5fd5a60-64a8-4ae1-b422-b20e84511628,.f14256bd-9428-46b1-8922-620438ee8ce5,.f5e1b3c6-e8b5-48d2-9f19-9e1bb9dbbd6a{font-family:Roboto-Regular, Roboto;}.f5e1b3c6-e8b5-48d2-9f19-9e1bb9dbbd6a{font-size:14.59px;}.e0c8d695-0878-4249-a480-41c9274cee7b{letter-spacing:-0.03em;}.b130beb6-88f9-4f2c-ace1-c70063731c00{letter-spacing:-0.04em;}.afd8a6b3-85b9-45bf-8099-5b5e99a801c4,.f695ebd2-7d89-48a1-99c3-59f765395828{stroke:#e905ee;}.afd8a6b3-85b9-45bf-8099-5b5e99a801c4,.f5039190-b387-432f-a20c-1a4ae4212035,.fb99ed29-9269-43c6-a5ac-6e7b8e5b7a17{stroke-width:2px;}.f475f57f-6461-412f-99b0-e410dba30326{fill:#e6e6e6;}.a0360abd-bd50-4b43-a0a7-ec8d15d6815f{fill:#fff;}.f695ebd2-7d89-48a1-99c3-59f765395828{stroke-width:3px;}.a5fd5a60-64a8-4ae1-b422-b20e84511628{font-size:17.02px;}.b579c93e-9b47-4dc2-8c20-32c2f0b8a961{letter-spacing:0.01em;}.b67965de-3d20-4135-adf2-0d2e8bf82d70{fill:#757575;}.f5039190-b387-432f-a20c-1a4ae4212035,.fb99ed29-9269-43c6-a5ac-6e7b8e5b7a17{stroke:#fff;}.fb99ed29-9269-43c6-a5ac-6e7b8e5b7a17{stroke-linecap:round;}.e5aa0623-8d0e-4d72-8ba2-95d8d3cde74a,.fb99ed29-9269-43c6-a5ac-6e7b8e5b7a17{stroke-miterlimit:10;}.e5aa0623-8d0e-4d72-8ba2-95d8d3cde74a{stroke:#090;stroke-width:4px;}.a1207f60-b91c-4b73-b0c7-02eb29f0c19e{fill:#090;}</style></defs><title>iso-ns</title><g id="eecedede-7b1f-43fc-a8e3-49a8924904b9" data-name="iso-ns"><rect class="b4b970f4-7e1f-4a09-85b6-8a3d675b11e4" x="0.5" y="13.7" width="689.27" height="508.9" rx="10"/><text class="f14256bd-9428-46b1-8922-620438ee8ce5" transform="translate(0.48 10.27)">Istio Mesh</text><text class="f5e1b3c6-e8b5-48d2-9f19-9e1bb9dbbd6a" transform="translate(17.07 65.71)">Namespace:<tspan class="e0c8d695-0878-4249-a480-41c9274cee7b" x="81.37" y="0"> </tspan><tspan class="b130beb6-88f9-4f2c-ace1-c70063731c00" x="84.57" y="0">T</tspan><tspan x="92.63" y="0">eam-1</tspan></text><rect class="afd8a6b3-85b9-45bf-8099-5b5e99a801c4" x="17.15" y="69.37" width="301.12" height="399.99" rx="10"/><text class="f5e1b3c6-e8b5-48d2-9f19-9e1bb9dbbd6a" transform="translate(371.98 65.71)">Namespace:<tspan class="e0c8d695-0878-4249-a480-41c9274cee7b" x="81.37" y="0"> </tspan><tspan class="b130beb6-88f9-4f2c-ace1-c70063731c00" x="84.57" y="0">T</tspan><tspan x="92.63" y="0">eam-2</tspan></text><rect class="afd8a6b3-85b9-45bf-8099-5b5e99a801c4" x="372.07" y="69.37" width="301.12" height="399.99" rx="10"/><rect class="f475f57f-6461-412f-99b0-e410dba30326" x="402.47" y="118.27" width="240.23" height="87.51" rx="3"/><rect class="a0360abd-bd50-4b43-a0a7-ec8d15d6815f" x="412.98" y="129.21" width="65.63" height="65.63" rx="3"/><polygon class="f695ebd2-7d89-48a1-99c3-59f765395828" points="461.91 171.32 461.91 152.72 445.79 143.43 429.68 152.72 429.68 171.32 445.79 180.62 461.91 171.32"/><rect class="a0360abd-bd50-4b43-a0a7-ec8d15d6815f" x="489.55" y="129.21" width="142.21" height="65.63" rx="3"/><text class="a5fd5a60-64a8-4ae1-b422-b20e84511628" transform="translate(553.31 167.91)">Se<tspan class="b579c93e-9b47-4dc2-8c20-32c2f0b8a961" x="19.11" y="0">r</tspan><tspan x="25.02" y="0">vice C</tspan></text><circle class="b67965de-3d20-4135-adf2-0d2e8bf82d70" cx="522.37" cy="162.02" r="21.88"/><rect class="f5039190-b387-432f-a20c-1a4ae4212035" x="514.59" y="154.11" width="15.55" height="15.55"/><line class="fb99ed29-9269-43c6-a5ac-6e7b8e5b7a17" x1="517.47" y1="154.11" x2="517.47" y2="150.36"/><line class="fb99ed29-9269-43c6-a5ac-6e7b8e5b7a17" x1="522.37" y1="154.11" x2="522.37" y2="150.36"/><line class="fb99ed29-9269-43c6-a5ac-6e7b8e5b7a17" x1="527.26" y1="154.11" x2="527.26" y2="150.36"/><line class="fb99ed29-9269-43c6-a5ac-6e7b8e5b7a17" x1="517.47" y1="173.68" x2="517.47" y2="169.94"/><line class="fb99ed29-9269-43c6-a5ac-6e7b8e5b7a17" x1="522.37" y1="173.68" x2="522.37" y2="169.94"/><line class="fb99ed29-9269-43c6-a5ac-6e7b8e5b7a17" x1="527.26" y1="173.68" x2="527.26" y2="169.94"/><line class="fb99ed29-9269-43c6-a5ac-6e7b8e5b7a17" x1="514.45" y1="166.92" x2="510.71" y2="166.92"/><line class="fb99ed29-9269-43c6-a5ac-6e7b8e5b7a17" x1="514.45" y1="162.02" x2="510.71" y2="162.02"/><line class="fb99ed29-9269-43c6-a5ac-6e7b8e5b7a17" x1="514.45" y1="157.13" x2="510.71" y2="157.13"/><line class="fb99ed29-9269-43c6-a5ac-6e7b8e5b7a17" x1="534.03" y1="166.92" x2="530.28" y2="166.92"/><line class="fb99ed29-9269-43c6-a5ac-6e7b8e5b7a17" x1="534.03" y1="162.02" x2="530.28" y2="162.02"/><line class="fb99ed29-9269-43c6-a5ac-6e7b8e5b7a17" x1="534.03" y1="157.13" x2="530.28" y2="157.13"/><rect class="a0360abd-bd50-4b43-a0a7-ec8d15d6815f" x="518.91" y="158.42" width="6.91" height="6.91" rx="2"/><rect class="f475f57f-6461-412f-99b0-e410dba30326" x="47.55" y="118.27" width="240.23" height="87.51" rx="3"/><rect class="a0360abd-bd50-4b43-a0a7-ec8d15d6815f" x="58.06" y="129.21" width="142.21" height="65.63" rx="3"/><text class="a5fd5a60-64a8-4ae1-b422-b20e84511628" transform="translate(121.81 167.91)">Se<tspan class="b579c93e-9b47-4dc2-8c20-32c2f0b8a961" x="19.11" y="0">r</tspan><tspan x="25.02" y="0">vice A</tspan></text><circle class="b67965de-3d20-4135-adf2-0d2e8bf82d70" cx="90.88" cy="162.02" r="21.88"/><rect class="f5039190-b387-432f-a20c-1a4ae4212035" x="83.11" y="154.11" width="15.55" height="15.55"/><line class="fb99ed29-9269-43c6-a5ac-6e7b8e5b7a17" x1="85.99" y1="154.11" x2="85.99" y2="150.36"/><line class="fb99ed29-9269-43c6-a5ac-6e7b8e5b7a17" x1="90.88" y1="154.11" x2="90.88" y2="150.36"/><line class="fb99ed29-9269-43c6-a5ac-6e7b8e5b7a17" x1="95.77" y1="154.11" x2="95.77" y2="150.36"/><line class="fb99ed29-9269-43c6-a5ac-6e7b8e5b7a17" x1="85.99" y1="173.68" x2="85.99" y2="169.94"/><line class="fb99ed29-9269-43c6-a5ac-6e7b8e5b7a17" x1="90.88" y1="173.68" x2="90.88" y2="169.94"/><line class="fb99ed29-9269-43c6-a5ac-6e7b8e5b7a17" x1="95.77" y1="173.68" x2="95.77" y2="169.94"/><line class="fb99ed29-9269-43c6-a5ac-6e7b8e5b7a17" x1="82.96" y1="166.92" x2="79.22" y2="166.92"/><line class="fb99ed29-9269-43c6-a5ac-6e7b8e5b7a17" x1="82.96" y1="162.02" x2="79.22" y2="162.02"/><line class="fb99ed29-9269-43c6-a5ac-6e7b8e5b7a17" x1="82.96" y1="157.13" x2="79.22" y2="157.13"/><line class="fb99ed29-9269-43c6-a5ac-6e7b8e5b7a17" x1="102.54" y1="166.92" x2="98.8" y2="166.92"/><line class="fb99ed29-9269-43c6-a5ac-6e7b8e5b7a17" x1="102.54" y1="162.02" x2="98.8" y2="162.02"/><line class="fb99ed29-9269-43c6-a5ac-6e7b8e5b7a17" x1="102.54" y1="157.13" x2="98.8" y2="157.13"/><rect class="a0360abd-bd50-4b43-a0a7-ec8d15d6815f" x="87.43" y="158.42" width="6.91" height="6.91" rx="2"/><rect class="a0360abd-bd50-4b43-a0a7-ec8d15d6815f" x="211.21" y="129.21" width="65.63" height="65.63" rx="3"/><polygon class="f695ebd2-7d89-48a1-99c3-59f765395828" points="260.14 171.32 260.14 152.72 244.03 143.43 227.91 152.72 227.91 171.32 244.03 180.62 260.14 171.32"/><rect class="f475f57f-6461-412f-99b0-e410dba30326" x="402.47" y="320.03" width="240.23" height="87.51" rx="3"/><rect class="a0360abd-bd50-4b43-a0a7-ec8d15d6815f" x="412.98" y="330.97" width="65.63" height="65.63" rx="3"/><polygon class="f695ebd2-7d89-48a1-99c3-59f765395828" points="461.91 373.09 461.91 354.49 445.79 345.19 429.68 354.49 429.68 373.09 445.79 382.38 461.91 373.09"/><rect class="a0360abd-bd50-4b43-a0a7-ec8d15d6815f" x="489.55" y="330.97" width="142.21" height="65.63" rx="3"/><text class="a5fd5a60-64a8-4ae1-b422-b20e84511628" transform="translate(553.27 369.67)">Se<tspan class="b579c93e-9b47-4dc2-8c20-32c2f0b8a961" x="19.11" y="0">r</tspan><tspan x="25.02" y="0">vice D</tspan></text><circle class="b67965de-3d20-4135-adf2-0d2e8bf82d70" cx="522.37" cy="363.79" r="21.88"/><rect class="f5039190-b387-432f-a20c-1a4ae4212035" x="514.59" y="355.87" width="15.55" height="15.55"/><line class="fb99ed29-9269-43c6-a5ac-6e7b8e5b7a17" x1="517.47" y1="355.87" x2="517.47" y2="352.13"/><line class="fb99ed29-9269-43c6-a5ac-6e7b8e5b7a17" x1="522.37" y1="355.87" x2="522.37" y2="352.13"/><line class="fb99ed29-9269-43c6-a5ac-6e7b8e5b7a17" x1="527.26" y1="355.87" x2="527.26" y2="352.13"/><line class="fb99ed29-9269-43c6-a5ac-6e7b8e5b7a17" x1="517.47" y1="375.45" x2="517.47" y2="371.7"/><line class="fb99ed29-9269-43c6-a5ac-6e7b8e5b7a17" x1="522.37" y1="375.45" x2="522.37" y2="371.7"/><line class="fb99ed29-9269-43c6-a5ac-6e7b8e5b7a17" x1="527.26" y1="375.45" x2="527.26" y2="371.7"/><line class="fb99ed29-9269-43c6-a5ac-6e7b8e5b7a17" x1="514.45" y1="368.68" x2="510.71" y2="368.68"/><line class="fb99ed29-9269-43c6-a5ac-6e7b8e5b7a17" x1="514.45" y1="363.79" x2="510.71" y2="363.79"/><line class="fb99ed29-9269-43c6-a5ac-6e7b8e5b7a17" x1="514.45" y1="358.89" x2="510.71" y2="358.89"/><line class="fb99ed29-9269-43c6-a5ac-6e7b8e5b7a17" x1="534.03" y1="368.68" x2="530.28" y2="368.68"/><line class="fb99ed29-9269-43c6-a5ac-6e7b8e5b7a17" x1="534.03" y1="363.79" x2="530.28" y2="363.79"/><line class="fb99ed29-9269-43c6-a5ac-6e7b8e5b7a17" x1="534.03" y1="358.89" x2="530.28" y2="358.89"/><rect class="a0360abd-bd50-4b43-a0a7-ec8d15d6815f" x="518.91" y="360.19" width="6.91" height="6.91" rx="2"/><rect class="f475f57f-6461-412f-99b0-e410dba30326" x="47.55" y="320.03" width="240.23" height="87.51" rx="3"/><rect class="a0360abd-bd50-4b43-a0a7-ec8d15d6815f" x="58.06" y="330.97" width="142.21" height="65.63" rx="3"/><text class="a5fd5a60-64a8-4ae1-b422-b20e84511628" transform="translate(122.06 369.67)">Se<tspan class="b579c93e-9b47-4dc2-8c20-32c2f0b8a961" x="19.11" y="0">r</tspan><tspan x="25.02" y="0">vice B</tspan></text><circle class="b67965de-3d20-4135-adf2-0d2e8bf82d70" cx="90.88" cy="363.79" r="21.88"/><rect class="f5039190-b387-432f-a20c-1a4ae4212035" x="83.11" y="355.87" width="15.55" height="15.55"/><line class="fb99ed29-9269-43c6-a5ac-6e7b8e5b7a17" x1="85.99" y1="355.87" x2="85.99" y2="352.13"/><line class="fb99ed29-9269-43c6-a5ac-6e7b8e5b7a17" x1="90.88" y1="355.87" x2="90.88" y2="352.13"/><line class="fb99ed29-9269-43c6-a5ac-6e7b8e5b7a17" x1="95.77" y1="355.87" x2="95.77" y2="352.13"/><line class="fb99ed29-9269-43c6-a5ac-6e7b8e5b7a17" x1="85.99" y1="375.45" x2="85.99" y2="371.7"/><line class="fb99ed29-9269-43c6-a5ac-6e7b8e5b7a17" x1="90.88" y1="375.45" x2="90.88" y2="371.7"/><line class="fb99ed29-9269-43c6-a5ac-6e7b8e5b7a17" x1="95.77" y1="375.45" x2="95.77" y2="371.7"/><line class="fb99ed29-9269-43c6-a5ac-6e7b8e5b7a17" x1="82.96" y1="368.68" x2="79.22" y2="368.68"/><line class="fb99ed29-9269-43c6-a5ac-6e7b8e5b7a17" x1="82.96" y1="363.79" x2="79.22" y2="363.79"/><line class="fb99ed29-9269-43c6-a5ac-6e7b8e5b7a17" x1="82.96" y1="358.89" x2="79.22" y2="358.89"/><line class="fb99ed29-9269-43c6-a5ac-6e7b8e5b7a17" x1="102.54" y1="368.68" x2="98.8" y2="368.68"/><line class="fb99ed29-9269-43c6-a5ac-6e7b8e5b7a17" x1="102.54" y1="363.79" x2="98.8" y2="363.79"/><line class="fb99ed29-9269-43c6-a5ac-6e7b8e5b7a17" x1="102.54" y1="358.89" x2="98.8" y2="358.89"/><rect class="a0360abd-bd50-4b43-a0a7-ec8d15d6815f" x="87.43" y="360.19" width="6.91" height="6.91" rx="2"/><rect class="a0360abd-bd50-4b43-a0a7-ec8d15d6815f" x="211.21" y="330.97" width="65.63" height="65.63" rx="3"/><polygon class="f695ebd2-7d89-48a1-99c3-59f765395828" points="260.14 373.09 260.14 354.49 244.03 345.19 227.91 354.49 227.91 373.09 244.03 382.38 260.14 373.09"/><line class="e5aa0623-8d0e-4d72-8ba2-95d8d3cde74a" x1="244.03" y1="202.02" x2="244.03" y2="323.79"/><polygon class="a1207f60-b91c-4b73-b0c7-02eb29f0c19e" points="239.04 203.48 244.03 194.84 249.01 203.48 239.04 203.48"/><polygon class="a1207f60-b91c-4b73-b0c7-02eb29f0c19e" points="239.04 322.34 244.03 330.97 249.01 322.34 239.04 322.34"/><line class="e5aa0623-8d0e-4d72-8ba2-95d8d3cde74a" x1="445.79" y1="202.02" x2="445.79" y2="323.79"/><polygon class="a1207f60-b91c-4b73-b0c7-02eb29f0c19e" points="440.81 203.48 445.79 194.84 450.78 203.48 440.81 203.48"/><polygon class="a1207f60-b91c-4b73-b0c7-02eb29f0c19e" points="440.81 322.34 445.79 330.97 450.78 322.34 440.81 322.34"/></g></svg>