<svg xmlns="http://www.w3.org/2000/svg" viewBox="0 0 690.27 523.1"><defs><style>.a5c05065-179d-4cfe-981e-88b9882adbf2,.af22141f-5291-48a4-937a-b2e1293ca7aa,.becb2224-6fc8-4886-8085-d8ee1e5a2d84,.e80799c2-e6da-49b8-8c5a-e74dd4c744f6,.f0c340af-565a-4233-8ea3-ec730fc5e90a,.f32300a1-5ee5-4e77-b1a7-9d29eaafb906{fill:none;}.becb2224-6fc8-4886-8085-d8ee1e5a2d84{stroke:#466bb0;stroke-dasharray:10 10;}.a5c05065-179d-4cfe-981e-88b9882adbf2,.becb2224-6fc8-4886-8085-d8ee1e5a2d84,.e80799c2-e6da-49b8-8c5a-e74dd4c744f6,.f32300a1-5ee5-4e77-b1a7-9d29eaafb906{stroke-linejoin:round;}.abc5d867-3ea8-4ac9-845e-7858702535ed{font-size:12px;}.abc5d867-3ea8-4ac9-845e-7858702535ed,.b448a197-d280-47d8-844f-7b2cc7fb1256,.e4800bec-7b8d-4d31-9bb5-9fa7eec2daa3{font-family:Roboto-Regular, Roboto;}.b448a197-d280-47d8-844f-7b2cc7fb1256{font-size:14.59px;}.bf037230-fb31-4c1d-92f3-7bc62b3a3185{letter-spacing:-0.03em;}.b3d303e0-8bf7-48a3-bb37-414885f73df7{letter-spacing:-0.04em;}.e80799c2-e6da-49b8-8c5a-e74dd4c744f6,.f32300a1-5ee5-4e77-b1a7-9d29eaafb906{stroke:#e905ee;}.a5c05065-179d-4cfe-981e-88b9882adbf2,.af22141f-5291-48a4-937a-b2e1293ca7aa,.e80799c2-e6da-49b8-8c5a-e74dd4c744f6{stroke-width:2px;}.b5a9e48a-d372-437b-933e-39e70112fbf2{fill:#e6e6e6;}.b79f9c07-0de3-4638-b4f8-c37e31fa1d36{fill:#fff;}.f32300a1-5ee5-4e77-b1a7-9d29eaafb906{stroke-width:3px;}.e4800bec-7b8d-4d31-9bb5-9fa7eec2daa3{font-size:17.02px;}.b1339a2f-eba1-4185-804f-eb980ddc3cfb{letter-spacing:0.01em;}.b5fd6468-888b-4963-8124-747327b8de86{fill:#757575;}.a5c05065-179d-4cfe-981e-88b9882adbf2,.af22141f-5291-48a4-937a-b2e1293ca7aa{stroke:#fff;}.af22141f-5291-48a4-937a-b2e1293ca7aa{stroke-linecap:round;}.af22141f-5291-48a4-937a-b2e1293ca7aa,.f0c340af-565a-4233-8ea3-ec730fc5e90a{stroke-miterlimit:10;}.f0c340af-565a-4233-8ea3-ec730fc5e90a{stroke:#090;stroke-width:4px;}.bc36a7d6-cdc4-422c-8457-acdfaad42354{fill:#090;}</style></defs><title>iso-ns</title><g id="f114e82d-a97d-495b-a2c7-285c364c1157" data-name="iso-ns"><rect class="becb2224-6fc8-4886-8085-d8ee1e5a2d84" x="0.5" y="13.7" width="689.27" height="508.9" rx="10"/><text class="abc5d867-3ea8-4ac9-845e-7858702535ed" transform="translate(0.48 10.27)">Istio Mesh</text><text class="b448a197-d280-47d8-844f-7b2cc7fb1256" transform="translate(17.07 65.71)">Namespace:<tspan class="bf037230-fb31-4c1d-92f3-7bc62b3a3185" x="81.37" y="0"> </tspan><tspan class="b3d303e0-8bf7-48a3-bb37-414885f73df7" x="84.57" y="0">T</tspan><tspan x="92.63" y="0">eam-1</tspan></text><rect class="e80799c2-e6da-49b8-8c5a-e74dd4c744f6" x="17.15" y="69.37" width="301.12" height="399.99" rx="10"/><text class="b448a197-d280-47d8-844f-7b2cc7fb1256" transform="translate(371.98 65.71)">Namespace:<tspan class="bf037230-fb31-4c1d-92f3-7bc62b3a3185" x="81.37" y="0"> </tspan><tspan class="b3d303e0-8bf7-48a3-bb37-414885f73df7" x="84.57" y="0">T</tspan><tspan x="92.63" y="0">eam-2</tspan></text><rect class="e80799c2-e6da-49b8-8c5a-e74dd4c744f6" x="372.07" y="69.37" width="301.12" height="399.99" rx="10"/><rect class="b5a9e48a-d372-437b-933e-39e70112fbf2" x="402.47" y="118.27" width="240.23" height="87.51" rx="3"/><rect class="b79f9c07-0de3-4638-b4f8-c37e31fa1d36" x="412.98" y="129.21" width="65.63" height="65.63" rx="3"/><polygon class="f32300a1-5ee5-4e77-b1a7-9d29eaafb906" points="461.91 171.32 461.91 152.72 445.79 143.43 429.68 152.72 429.68 171.32 445.79 180.62 461.91 171.32"/><rect class="b79f9c07-0de3-4638-b4f8-c37e31fa1d36" x="489.55" y="129.21" width="142.21" height="65.63" rx="3"/><text class="e4800bec-7b8d-4d31-9bb5-9fa7eec2daa3" transform="translate(553.31 167.91)">Se<tspan class="b1339a2f-eba1-4185-804f-eb980ddc3cfb" x="19.11" y="0">r</tspan><tspan x="25.02" y="0">vice C</tspan></text><circle class="b5fd6468-888b-4963-8124-747327b8de86" cx="522.37" cy="162.02" r="21.88"/><rect class="a5c05065-179d-4cfe-981e-88b9882adbf2" x="514.59" y="154.11" width="15.55" height="15.55"/><line class="af22141f-5291-48a4-937a-b2e1293ca7aa" x1="517.47" y1="154.11" x2="517.47" y2="150.36"/><line class="af22141f-5291-48a4-937a-b2e1293ca7aa" x1="522.37" y1="154.11" x2="522.37" y2="150.36"/><line class="af22141f-5291-48a4-937a-b2e1293ca7aa" x1="527.26" y1="154.11" x2="527.26" y2="150.36"/><line class="af22141f-5291-48a4-937a-b2e1293ca7aa" x1="517.47" y1="173.68" x2="517.47" y2="169.94"/><line class="af22141f-5291-48a4-937a-b2e1293ca7aa" x1="522.37" y1="173.68" x2="522.37" y2="169.94"/><line class="af22141f-5291-48a4-937a-b2e1293ca7aa" x1="527.26" y1="173.68" x2="527.26" y2="169.94"/><line class="af22141f-5291-48a4-937a-b2e1293ca7aa" x1="514.45" y1="166.92" x2="510.71" y2="166.92"/><line class="af22141f-5291-48a4-937a-b2e1293ca7aa" x1="514.45" y1="162.02" x2="510.71" y2="162.02"/><line class="af22141f-5291-48a4-937a-b2e1293ca7aa" x1="514.45" y1="157.13" x2="510.71" y2="157.13"/><line class="af22141f-5291-48a4-937a-b2e1293ca7aa" x1="534.03" y1="166.92" x2="530.28" y2="166.92"/><line class="af22141f-5291-48a4-937a-b2e1293ca7aa" x1="534.03" y1="162.02" x2="530.28" y2="162.02"/><line class="af22141f-5291-48a4-937a-b2e1293ca7aa" x1="534.03" y1="157.13" x2="530.28" y2="157.13"/><rect class="b79f9c07-0de3-4638-b4f8-c37e31fa1d36" x="518.91" y="158.42" width="6.91" height="6.91" rx="2"/><rect class="b5a9e48a-d372-437b-933e-39e70112fbf2" x="47.55" y="118.27" width="240.23" height="87.51" rx="3"/><rect class="b79f9c07-0de3-4638-b4f8-c37e31fa1d36" x="58.06" y="129.21" width="142.21" height="65.63" rx="3"/><text class="e4800bec-7b8d-4d31-9bb5-9fa7eec2daa3" transform="translate(121.81 167.91)">Se<tspan class="b1339a2f-eba1-4185-804f-eb980ddc3cfb" x="19.11" y="0">r</tspan><tspan x="25.02" y="0">vice A</tspan></text><circle class="b5fd6468-888b-4963-8124-747327b8de86" cx="90.88" cy="162.02" r="21.88"/><rect class="a5c05065-179d-4cfe-981e-88b9882adbf2" x="83.11" y="154.11" width="15.55" height="15.55"/><line class="af22141f-5291-48a4-937a-b2e1293ca7aa" x1="85.99" y1="154.11" x2="85.99" y2="150.36"/><line class="af22141f-5291-48a4-937a-b2e1293ca7aa" x1="90.88" y1="154.11" x2="90.88" y2="150.36"/><line class="af22141f-5291-48a4-937a-b2e1293ca7aa" x1="95.77" y1="154.11" x2="95.77" y2="150.36"/><line class="af22141f-5291-48a4-937a-b2e1293ca7aa" x1="85.99" y1="173.68" x2="85.99" y2="169.94"/><line class="af22141f-5291-48a4-937a-b2e1293ca7aa" x1="90.88" y1="173.68" x2="90.88" y2="169.94"/><line class="af22141f-5291-48a4-937a-b2e1293ca7aa" x1="95.77" y1="173.68" x2="95.77" y2="169.94"/><line class="af22141f-5291-48a4-937a-b2e1293ca7aa" x1="82.96" y1="166.92" x2="79.22" y2="166.92"/><line class="af22141f-5291-48a4-937a-b2e1293ca7aa" x1="82.96" y1="162.02" x2="79.22" y2="162.02"/><line class="af22141f-5291-48a4-937a-b2e1293ca7aa" x1="82.96" y1="157.13" x2="79.22" y2="157.13"/><line class="af22141f-5291-48a4-937a-b2e1293ca7aa" x1="102.54" y1="166.92" x2="98.8" y2="166.92"/><line class="af22141f-5291-48a4-937a-b2e1293ca7aa" x1="102.54" y1="162.02" x2="98.8" y2="162.02"/><line class="af22141f-5291-48a4-937a-b2e1293ca7aa" x1="102.54" y1="157.13" x2="98.8" y2="157.13"/><rect class="b79f9c07-0de3-4638-b4f8-c37e31fa1d36" x="87.43" y="158.42" width="6.91" height="6.91" rx="2"/><rect class="b79f9c07-0de3-4638-b4f8-c37e31fa1d36" x="211.21" y="129.21" width="65.63" height="65.63" rx="3"/><polygon class="f32300a1-5ee5-4e77-b1a7-9d29eaafb906" points="260.14 171.32 260.14 152.72 244.03 143.43 227.91 152.72 227.91 171.32 244.03 180.62 260.14 171.32"/><rect class="b5a9e48a-d372-437b-933e-39e70112fbf2" x="402.47" y="320.03" width="240.23" height="87.51" rx="3"/><rect class="b79f9c07-0de3-4638-b4f8-c37e31fa1d36" x="412.98" y="330.97" width="65.63" height="65.63" rx="3"/><polygon class="f32300a1-5ee5-4e77-b1a7-9d29eaafb906" points="461.91 373.09 461.91 354.49 445.79 345.19 429.68 354.49 429.68 373.09 445.79 382.38 461.91 373.09"/><rect class="b79f9c07-0de3-4638-b4f8-c37e31fa1d36" x="489.55" y="330.97" width="142.21" height="65.63" rx="3"/><text class="e4800bec-7b8d-4d31-9bb5-9fa7eec2daa3" transform="translate(553.27 369.67)">Se<tspan class="b1339a2f-eba1-4185-804f-eb980ddc3cfb" x="19.11" y="0">r</tspan><tspan x="25.02" y="0">vice D</tspan></text><circle class="b5fd6468-888b-4963-8124-747327b8de86" cx="522.37" cy="363.79" r="21.88"/><rect class="a5c05065-179d-4cfe-981e-88b9882adbf2" x="514.59" y="355.87" width="15.55" height="15.55"/><line class="af22141f-5291-48a4-937a-b2e1293ca7aa" x1="517.47" y1="355.87" x2="517.47" y2="352.13"/><line class="af22141f-5291-48a4-937a-b2e1293ca7aa" x1="522.37" y1="355.87" x2="522.37" y2="352.13"/><line class="af22141f-5291-48a4-937a-b2e1293ca7aa" x1="527.26" y1="355.87" x2="527.26" y2="352.13"/><line class="af22141f-5291-48a4-937a-b2e1293ca7aa" x1="517.47" y1="375.45" x2="517.47" y2="371.7"/><line class="af22141f-5291-48a4-937a-b2e1293ca7aa" x1="522.37" y1="375.45" x2="522.37" y2="371.7"/><line class="af22141f-5291-48a4-937a-b2e1293ca7aa" x1="527.26" y1="375.45" x2="527.26" y2="371.7"/><line class="af22141f-5291-48a4-937a-b2e1293ca7aa" x1="514.45" y1="368.68" x2="510.71" y2="368.68"/><line class="af22141f-5291-48a4-937a-b2e1293ca7aa" x1="514.45" y1="363.79" x2="510.71" y2="363.79"/><line class="af22141f-5291-48a4-937a-b2e1293ca7aa" x1="514.45" y1="358.89" x2="510.71" y2="358.89"/><line class="af22141f-5291-48a4-937a-b2e1293ca7aa" x1="534.03" y1="368.68" x2="530.28" y2="368.68"/><line class="af22141f-5291-48a4-937a-b2e1293ca7aa" x1="534.03" y1="363.79" x2="530.28" y2="363.79"/><line class="af22141f-5291-48a4-937a-b2e1293ca7aa" x1="534.03" y1="358.89" x2="530.28" y2="358.89"/><rect class="b79f9c07-0de3-4638-b4f8-c37e31fa1d36" x="518.91" y="360.19" width="6.91" height="6.91" rx="2"/><rect class="b5a9e48a-d372-437b-933e-39e70112fbf2" x="47.55" y="320.03" width="240.23" height="87.51" rx="3"/><rect class="b79f9c07-0de3-4638-b4f8-c37e31fa1d36" x="58.06" y="330.97" width="142.21" height="65.63" rx="3"/><text class="e4800bec-7b8d-4d31-9bb5-9fa7eec2daa3" transform="translate(122.06 369.67)">Se<tspan class="b1339a2f-eba1-4185-804f-eb980ddc3cfb" x="19.11" y="0">r</tspan><tspan x="25.02" y="0">vice B</tspan></text><circle class="b5fd6468-888b-4963-8124-747327b8de86" cx="90.88" cy="363.79" r="21.88"/><rect class="a5c05065-179d-4cfe-981e-88b9882adbf2" x="83.11" y="355.87" width="15.55" height="15.55"/><line class="af22141f-5291-48a4-937a-b2e1293ca7aa" x1="85.99" y1="355.87" x2="85.99" y2="352.13"/><line class="af22141f-5291-48a4-937a-b2e1293ca7aa" x1="90.88" y1="355.87" x2="90.88" y2="352.13"/><line class="af22141f-5291-48a4-937a-b2e1293ca7aa" x1="95.77" y1="355.87" x2="95.77" y2="352.13"/><line class="af22141f-5291-48a4-937a-b2e1293ca7aa" x1="85.99" y1="375.45" x2="85.99" y2="371.7"/><line class="af22141f-5291-48a4-937a-b2e1293ca7aa" x1="90.88" y1="375.45" x2="90.88" y2="371.7"/><line class="af22141f-5291-48a4-937a-b2e1293ca7aa" x1="95.77" y1="375.45" x2="95.77" y2="371.7"/><line class="af22141f-5291-48a4-937a-b2e1293ca7aa" x1="82.96" y1="368.68" x2="79.22" y2="368.68"/><line class="af22141f-5291-48a4-937a-b2e1293ca7aa" x1="82.96" y1="363.79" x2="79.22" y2="363.79"/><line class="af22141f-5291-48a4-937a-b2e1293ca7aa" x1="82.96" y1="358.89" x2="79.22" y2="358.89"/><line class="af22141f-5291-48a4-937a-b2e1293ca7aa" x1="102.54" y1="368.68" x2="98.8" y2="368.68"/><line class="af22141f-5291-48a4-937a-b2e1293ca7aa" x1="102.54" y1="363.79" x2="98.8" y2="363.79"/><line class="af22141f-5291-48a4-937a-b2e1293ca7aa" x1="102.54" y1="358.89" x2="98.8" y2="358.89"/><rect class="b79f9c07-0de3-4638-b4f8-c37e31fa1d36" x="87.43" y="360.19" width="6.91" height="6.91" rx="2"/><rect class="b79f9c07-0de3-4638-b4f8-c37e31fa1d36" x="211.21" y="330.97" width="65.63" height="65.63" rx="3"/><polygon class="f32300a1-5ee5-4e77-b1a7-9d29eaafb906" points="260.14 373.09 260.14 354.49 244.03 345.19 227.91 354.49 227.91 373.09 244.03 382.38 260.14 373.09"/><line class="f0c340af-565a-4233-8ea3-ec730fc5e90a" x1="244.03" y1="202.02" x2="244.03" y2="323.79"/><polygon class="bc36a7d6-cdc4-422c-8457-acdfaad42354" points="239.04 203.48 244.03 194.84 249.01 203.48 239.04 203.48"/><polygon class="bc36a7d6-cdc4-422c-8457-acdfaad42354" points="239.04 322.34 244.03 330.97 249.01 322.34 239.04 322.34"/><line class="f0c340af-565a-4233-8ea3-ec730fc5e90a" x1="445.79" y1="202.02" x2="445.79" y2="323.79"/><polygon class="bc36a7d6-cdc4-422c-8457-acdfaad42354" points="440.81 203.48 445.79 194.84 450.78 203.48 440.81 203.48"/><polygon class="bc36a7d6-cdc4-422c-8457-acdfaad42354" points="440.81 322.34 445.79 330.97 450.78 322.34 440.81 322.34"/></g></svg>