<svg xmlns="http://www.w3.org/2000/svg" viewBox="0 0 1003.27 530.67"><defs><style>.a34006f1-8ccc-4a9a-ab80-ea77fa4bd6ba,.a6aa8849-8699-4ae6-bf0e-7efe37eb6c85,.ae4350b7-cedf-436a-8189-ede0a3895f98,.b2026382-7bac-40b8-8d88-0f3f153459fe,.be7914f8-6c45-425e-90b5-704576ff1893,.bfd81ada-a559-4358-86e6-6fc19cead15f,.f915cad9-fb28-452c-b035-06786f2eba25{fill:none;}.ae4350b7-cedf-436a-8189-ede0a3895f98{stroke:#466bb0;stroke-dasharray:10 10;}.a34006f1-8ccc-4a9a-ab80-ea77fa4bd6ba,.a6aa8849-8699-4ae6-bf0e-7efe37eb6c85,.ae4350b7-cedf-436a-8189-ede0a3895f98,.b2026382-7bac-40b8-8d88-0f3f153459fe,.f915cad9-fb28-452c-b035-06786f2eba25{stroke-linejoin:round;}.aba26591-a248-481e-bbfd-8d99ae1a29a3{font-size:12px;}.aba26591-a248-481e-bbfd-8d99ae1a29a3,.bcaaa631-aff7-440e-95cc-fa3822041620{font-family:Roboto-Regular, Roboto;}.f917b14c-75dc-4551-a2b3-8a5387e17c78{fill:#e5e5e4;}.fd182ebc-9ed3-4503-8e38-4d446168f2ac{fill:#fff;}.bcaaa631-aff7-440e-95cc-fa3822041620{font-size:14px;}.bf383442-442f-4a50-98cd-6d6d1e519130{letter-spacing:-0.02em;}.b6d4b8a6-6571-4b5c-9bf8-c17c982d9394{fill:#486baf;}.b8f86b65-8973-4708-b047-5d8e00def72c{letter-spacing:-0.02em;}.f915cad9-fb28-452c-b035-06786f2eba25{stroke:#fbb040;}.b2026382-7bac-40b8-8d88-0f3f153459fe,.be7914f8-6c45-425e-90b5-704576ff1893,.f915cad9-fb28-452c-b035-06786f2eba25{stroke-width:2px;}.b42fbec4-6425-459c-b8e3-e68eb96d9c5a{fill:#e6e6e6;}.a34006f1-8ccc-4a9a-ab80-ea77fa4bd6ba{stroke:#e905ee;stroke-width:3px;}.f2a5622c-cab9-45cb-b84b-3ba769c40e7b{letter-spacing:0.01em;}.ecd5d646-9eb3-48fb-ad0e-701ce341524b{fill:#757575;}.b2026382-7bac-40b8-8d88-0f3f153459fe,.be7914f8-6c45-425e-90b5-704576ff1893{stroke:#fff;}.a6aa8849-8699-4ae6-bf0e-7efe37eb6c85,.be7914f8-6c45-425e-90b5-704576ff1893{stroke-linecap:round;}.be7914f8-6c45-425e-90b5-704576ff1893,.bfd81ada-a559-4358-86e6-6fc19cead15f{stroke-miterlimit:10;}.a6aa8849-8699-4ae6-bf0e-7efe37eb6c85{stroke:#486baf;stroke-dasharray:6 12;}.a6aa8849-8699-4ae6-bf0e-7efe37eb6c85,.bfd81ada-a559-4358-86e6-6fc19cead15f{stroke-width:4px;}.bfd81ada-a559-4358-86e6-6fc19cead15f{stroke:#090;}.a27a4923-7a54-4b7f-b7d1-a479c8fe4b6f{fill:#090;}</style></defs><title>managed-control</title><g id="bbe9f3d9-9bdd-427a-b66b-c736cbcb8684" data-name="managed-control"><rect class="ae4350b7-cedf-436a-8189-ede0a3895f98" x="0.5" y="13.7" width="1002.27" height="516.47" rx="10"/><text class="aba26591-a248-481e-bbfd-8d99ae1a29a3" transform="translate(0.48 10.27)">Istio Mesh</text><rect class="f917b14c-75dc-4551-a2b3-8a5387e17c78" x="440.01" y="223.92" width="123.25" height="103.68" rx="3"/><rect class="fd182ebc-9ed3-4503-8e38-4d446168f2ac" x="448.81" y="267.35" width="105.64" height="54.65" rx="3"/><text class="bcaaa631-aff7-440e-95cc-fa3822041620" transform="translate(472.46 290.37)">Managed<tspan x="-12.69" y="16.8">Cont</tspan><tspan class="bf383442-442f-4a50-98cd-6d6d1e519130" x="16.7" y="16.8">r</tspan><tspan x="21.21" y="16.8">ol Plane</tspan></text><rect id="a5639e91-f76f-4e39-9c4a-80f788be27a5" data-name="background" class="b6d4b8a6-6571-4b5c-9bf8-c17c982d9394" x="487.42" y="223.92" width="28.44" height="28.44"/><polygon id="fa1d276f-fbc5-4d42-ab08-83bf17f1b38c" data-name="hull" class="fd182ebc-9ed3-4503-8e38-4d446168f2ac" points="493.03 247.81 510.23 247.81 499.48 251.04 493.03 247.81"/><polygon id="bd82d755-dc9c-4673-96d2-3acea5e9016e" data-name="mainsail" class="fd182ebc-9ed3-4503-8e38-4d446168f2ac" points="493.03 246.74 499.48 245.66 499.48 233.84 493.03 246.74"/><polygon id="b88ed567-5e7d-440e-a9bd-429b012e52f0" data-name="headsail" class="fd182ebc-9ed3-4503-8e38-4d446168f2ac" points="500.56 245.66 510.23 246.74 500.56 225.24 500.56 245.66"/><text class="aba26591-a248-481e-bbfd-8d99ae1a29a3" transform="translate(25.03 107.48)">Cluster: <tspan class="b8f86b65-8973-4708-b047-5d8e00def72c" x="43.74" y="0">W</tspan><tspan x="54.21" y="0">est</tspan></text><path class="f915cad9-fb28-452c-b035-06786f2eba25" d="M417.49,441,35.1,439.58a10,10,0,0,1-10-10V120.49a10,10,0,0,1,10-10l382.39,1.45a10,10,0,0,1,10,10V431A10,10,0,0,1,417.49,441Z"/><path class="f915cad9-fb28-452c-b035-06786f2eba25" d="M964.74,441l-382.39-1.45a10,10,0,0,1-10-10V120.49a10,10,0,0,1,10-10l382.39,1.45a10,10,0,0,1,10,10V431A10,10,0,0,1,964.74,441Z"/><text class="aba26591-a248-481e-bbfd-8d99ae1a29a3" transform="translate(572.35 108.93)">Cluster: East</text><rect class="b42fbec4-6425-459c-b8e3-e68eb96d9c5a" x="750.08" y="152.17" width="197.65" height="72" rx="3"/><rect class="fd182ebc-9ed3-4503-8e38-4d446168f2ac" x="758.73" y="161.17" width="54" height="54" rx="3"/><polygon class="a34006f1-8ccc-4a9a-ab80-ea77fa4bd6ba" points="798.99 195.82 798.99 180.52 785.73 172.87 772.47 180.52 772.47 195.82 785.73 203.47 798.99 195.82"/><rect class="fd182ebc-9ed3-4503-8e38-4d446168f2ac" x="821.73" y="161.17" width="117" height="54" rx="3"/><text class="bcaaa631-aff7-440e-95cc-fa3822041620" transform="translate(874.38 193.01)">Se<tspan class="f2a5622c-cab9-45cb-b84b-3ba769c40e7b" x="15.72" y="0">r</tspan><tspan x="20.58" y="0">vice B</tspan></text><circle class="ecd5d646-9eb3-48fb-ad0e-701ce341524b" cx="848.73" cy="188.17" r="18"/><rect class="b2026382-7bac-40b8-8d88-0f3f153459fe" x="842.33" y="181.65" width="12.79" height="12.79"/><line class="be7914f8-6c45-425e-90b5-704576ff1893" x1="844.7" y1="181.65" x2="844.7" y2="178.57"/><line class="be7914f8-6c45-425e-90b5-704576ff1893" x1="848.73" y1="181.65" x2="848.73" y2="178.57"/><line class="be7914f8-6c45-425e-90b5-704576ff1893" x1="852.76" y1="181.65" x2="852.76" y2="178.57"/><line class="be7914f8-6c45-425e-90b5-704576ff1893" x1="844.7" y1="197.76" x2="844.7" y2="194.68"/><line class="be7914f8-6c45-425e-90b5-704576ff1893" x1="848.73" y1="197.76" x2="848.73" y2="194.68"/><line class="be7914f8-6c45-425e-90b5-704576ff1893" x1="852.76" y1="197.76" x2="852.76" y2="194.68"/><line class="be7914f8-6c45-425e-90b5-704576ff1893" x1="842.22" y1="192.19" x2="839.14" y2="192.19"/><line class="be7914f8-6c45-425e-90b5-704576ff1893" x1="842.22" y1="188.17" x2="839.14" y2="188.17"/><line class="be7914f8-6c45-425e-90b5-704576ff1893" x1="842.22" y1="184.14" x2="839.14" y2="184.14"/><line class="be7914f8-6c45-425e-90b5-704576ff1893" x1="858.32" y1="192.19" x2="855.24" y2="192.19"/><line class="be7914f8-6c45-425e-90b5-704576ff1893" x1="858.32" y1="188.17" x2="855.24" y2="188.17"/><line class="be7914f8-6c45-425e-90b5-704576ff1893" x1="858.32" y1="184.14" x2="855.24" y2="184.14"/><rect class="fd182ebc-9ed3-4503-8e38-4d446168f2ac" x="845.89" y="185.21" width="5.68" height="5.68" rx="2"/><rect class="b42fbec4-6425-459c-b8e3-e68eb96d9c5a" x="50.11" y="150.72" width="197.65" height="72" rx="3"/><rect class="fd182ebc-9ed3-4503-8e38-4d446168f2ac" x="58.76" y="159.72" width="117" height="54" rx="3"/><text class="bcaaa631-aff7-440e-95cc-fa3822041620" transform="translate(111.21 191.56)">Se<tspan class="f2a5622c-cab9-45cb-b84b-3ba769c40e7b" x="15.72" y="0">r</tspan><tspan x="20.58" y="0">vice A</tspan></text><circle class="ecd5d646-9eb3-48fb-ad0e-701ce341524b" cx="85.76" cy="186.72" r="18"/><rect class="b2026382-7bac-40b8-8d88-0f3f153459fe" x="79.36" y="180.21" width="12.79" height="12.79"/><line class="be7914f8-6c45-425e-90b5-704576ff1893" x1="81.73" y1="180.21" x2="81.73" y2="177.13"/><line class="be7914f8-6c45-425e-90b5-704576ff1893" x1="85.76" y1="180.21" x2="85.76" y2="177.13"/><line class="be7914f8-6c45-425e-90b5-704576ff1893" x1="89.79" y1="180.21" x2="89.79" y2="177.13"/><line class="be7914f8-6c45-425e-90b5-704576ff1893" x1="81.73" y1="196.31" x2="81.73" y2="193.23"/><line class="be7914f8-6c45-425e-90b5-704576ff1893" x1="85.76" y1="196.31" x2="85.76" y2="193.23"/><line class="be7914f8-6c45-425e-90b5-704576ff1893" x1="89.79" y1="196.31" x2="89.79" y2="193.23"/><line class="be7914f8-6c45-425e-90b5-704576ff1893" x1="79.25" y1="190.74" x2="76.17" y2="190.74"/><line class="be7914f8-6c45-425e-90b5-704576ff1893" x1="79.25" y1="186.72" x2="76.17" y2="186.72"/><line class="be7914f8-6c45-425e-90b5-704576ff1893" x1="79.25" y1="182.69" x2="76.17" y2="182.69"/><line class="be7914f8-6c45-425e-90b5-704576ff1893" x1="95.35" y1="190.74" x2="92.27" y2="190.74"/><line class="be7914f8-6c45-425e-90b5-704576ff1893" x1="95.35" y1="186.72" x2="92.27" y2="186.72"/><line class="be7914f8-6c45-425e-90b5-704576ff1893" x1="95.35" y1="182.69" x2="92.27" y2="182.69"/><rect class="fd182ebc-9ed3-4503-8e38-4d446168f2ac" x="82.92" y="183.76" width="5.68" height="5.68" rx="2"/><rect class="fd182ebc-9ed3-4503-8e38-4d446168f2ac" x="184.76" y="159.72" width="54" height="54" rx="3"/><polygon class="a34006f1-8ccc-4a9a-ab80-ea77fa4bd6ba" points="225.02 194.37 225.02 179.07 211.76 171.42 198.5 179.07 198.5 194.37 211.76 202.02 225.02 194.37"/><rect class="b42fbec4-6425-459c-b8e3-e68eb96d9c5a" x="750.08" y="318.17" width="197.65" height="72" rx="3"/><rect class="fd182ebc-9ed3-4503-8e38-4d446168f2ac" x="758.73" y="327.17" width="54" height="54" rx="3"/><polygon class="a34006f1-8ccc-4a9a-ab80-ea77fa4bd6ba" points="798.99 361.82 798.99 346.52 785.73 338.87 772.47 346.52 772.47 361.82 785.73 369.47 798.99 361.82"/><rect class="fd182ebc-9ed3-4503-8e38-4d446168f2ac" x="821.73" y="327.17" width="117" height="54" rx="3"/><text class="bcaaa631-aff7-440e-95cc-fa3822041620" transform="translate(874.18 359.01)">Se<tspan class="f2a5622c-cab9-45cb-b84b-3ba769c40e7b" x="15.72" y="0">r</tspan><tspan x="20.58" y="0">vice A</tspan></text><circle class="ecd5d646-9eb3-48fb-ad0e-701ce341524b" cx="848.73" cy="354.17" r="18"/><rect class="b2026382-7bac-40b8-8d88-0f3f153459fe" x="842.33" y="347.65" width="12.79" height="12.79"/><line class="be7914f8-6c45-425e-90b5-704576ff1893" x1="844.7" y1="347.65" x2="844.7" y2="344.57"/><line class="be7914f8-6c45-425e-90b5-704576ff1893" x1="848.73" y1="347.65" x2="848.73" y2="344.57"/><line class="be7914f8-6c45-425e-90b5-704576ff1893" x1="852.76" y1="347.65" x2="852.76" y2="344.57"/><line class="be7914f8-6c45-425e-90b5-704576ff1893" x1="844.7" y1="363.76" x2="844.7" y2="360.68"/><line class="be7914f8-6c45-425e-90b5-704576ff1893" x1="848.73" y1="363.76" x2="848.73" y2="360.68"/><line class="be7914f8-6c45-425e-90b5-704576ff1893" x1="852.76" y1="363.76" x2="852.76" y2="360.68"/><line class="be7914f8-6c45-425e-90b5-704576ff1893" x1="842.22" y1="358.19" x2="839.14" y2="358.19"/><line class="be7914f8-6c45-425e-90b5-704576ff1893" x1="842.22" y1="354.17" x2="839.14" y2="354.17"/><line class="be7914f8-6c45-425e-90b5-704576ff1893" x1="842.22" y1="350.14" x2="839.14" y2="350.14"/><line class="be7914f8-6c45-425e-90b5-704576ff1893" x1="858.32" y1="358.19" x2="855.24" y2="358.19"/><line class="be7914f8-6c45-425e-90b5-704576ff1893" x1="858.32" y1="354.17" x2="855.24" y2="354.17"/><line class="be7914f8-6c45-425e-90b5-704576ff1893" x1="858.32" y1="350.14" x2="855.24" y2="350.14"/><rect class="fd182ebc-9ed3-4503-8e38-4d446168f2ac" x="845.89" y="351.21" width="5.68" height="5.68" rx="2"/><rect class="b42fbec4-6425-459c-b8e3-e68eb96d9c5a" x="50.11" y="316.72" width="197.65" height="72" rx="3"/><rect class="fd182ebc-9ed3-4503-8e38-4d446168f2ac" x="58.76" y="325.72" width="117" height="54" rx="3"/><text class="bcaaa631-aff7-440e-95cc-fa3822041620" transform="translate(111.41 357.56)">Se<tspan class="f2a5622c-cab9-45cb-b84b-3ba769c40e7b" x="15.72" y="0">r</tspan><tspan x="20.58" y="0">vice B</tspan></text><circle class="ecd5d646-9eb3-48fb-ad0e-701ce341524b" cx="85.76" cy="352.72" r="18"/><rect class="b2026382-7bac-40b8-8d88-0f3f153459fe" x="79.36" y="346.21" width="12.79" height="12.79"/><line class="be7914f8-6c45-425e-90b5-704576ff1893" x1="81.73" y1="346.21" x2="81.73" y2="343.13"/><line class="be7914f8-6c45-425e-90b5-704576ff1893" x1="85.76" y1="346.21" x2="85.76" y2="343.13"/><line class="be7914f8-6c45-425e-90b5-704576ff1893" x1="89.79" y1="346.21" x2="89.79" y2="343.13"/><line class="be7914f8-6c45-425e-90b5-704576ff1893" x1="81.73" y1="362.31" x2="81.73" y2="359.23"/><line class="be7914f8-6c45-425e-90b5-704576ff1893" x1="85.76" y1="362.31" x2="85.76" y2="359.23"/><line class="be7914f8-6c45-425e-90b5-704576ff1893" x1="89.79" y1="362.31" x2="89.79" y2="359.23"/><line class="be7914f8-6c45-425e-90b5-704576ff1893" x1="79.25" y1="356.74" x2="76.17" y2="356.74"/><line class="be7914f8-6c45-425e-90b5-704576ff1893" x1="79.25" y1="352.72" x2="76.17" y2="352.72"/><line class="be7914f8-6c45-425e-90b5-704576ff1893" x1="79.25" y1="348.69" x2="76.17" y2="348.69"/><line class="be7914f8-6c45-425e-90b5-704576ff1893" x1="95.35" y1="356.74" x2="92.27" y2="356.74"/><line class="be7914f8-6c45-425e-90b5-704576ff1893" x1="95.35" y1="352.72" x2="92.27" y2="352.72"/><line class="be7914f8-6c45-425e-90b5-704576ff1893" x1="95.35" y1="348.69" x2="92.27" y2="348.69"/><rect class="fd182ebc-9ed3-4503-8e38-4d446168f2ac" x="82.92" y="349.76" width="5.68" height="5.68" rx="2"/><rect class="fd182ebc-9ed3-4503-8e38-4d446168f2ac" x="184.76" y="325.72" width="54" height="54" rx="3"/><polygon class="a34006f1-8ccc-4a9a-ab80-ea77fa4bd6ba" points="225.02 360.37 225.02 345.07 211.76 337.42 198.5 345.07 198.5 360.37 211.76 368.02 225.02 360.37"/><line class="a6aa8849-8699-4ae6-bf0e-7efe37eb6c85" x1="211.76" y1="220.89" x2="211.76" y2="318.54"/><polygon class="b6d4b8a6-6571-4b5c-9bf8-c17c982d9394" points="206.77 222.35 211.76 213.72 216.75 222.35 206.77 222.35"/><polygon class="b6d4b8a6-6571-4b5c-9bf8-c17c982d9394" points="206.77 317.08 211.76 325.72 216.75 317.08 206.77 317.08"/><line class="a6aa8849-8699-4ae6-bf0e-7efe37eb6c85" x1="785.73" y1="222.34" x2="785.73" y2="318.54"/><polygon class="b6d4b8a6-6571-4b5c-9bf8-c17c982d9394" points="780.74 223.8 785.73 215.17 790.72 223.8 780.74 223.8"/><polygon class="b6d4b8a6-6571-4b5c-9bf8-c17c982d9394" points="780.74 317.08 785.73 325.72 790.72 317.08 780.74 317.08"/><line class="a6aa8849-8699-4ae6-bf0e-7efe37eb6c85" x1="563.26" y1="270.44" x2="785.73" y2="270.44"/><line class="a6aa8849-8699-4ae6-bf0e-7efe37eb6c85" x1="440.01" y1="269.72" x2="211.76" y2="269.72"/><line class="bfd81ada-a559-4358-86e6-6fc19cead15f" x1="245.94" y1="186.72" x2="751.55" y2="186.72"/><polygon class="a27a4923-7a54-4b7f-b7d1-a479c8fe4b6f" points="247.39 191.71 238.76 186.72 247.39 181.73 247.39 191.71"/><polygon class="a27a4923-7a54-4b7f-b7d1-a479c8fe4b6f" points="750.09 191.71 758.73 186.72 750.09 181.73 750.09 191.71"/><line class="bfd81ada-a559-4358-86e6-6fc19cead15f" x1="245.94" y1="352.72" x2="751.55" y2="352.72"/><polygon class="a27a4923-7a54-4b7f-b7d1-a479c8fe4b6f" points="247.39 357.7 238.76 352.72 247.39 347.73 247.39 357.7"/><polygon class="a27a4923-7a54-4b7f-b7d1-a479c8fe4b6f" points="750.09 357.7 758.73 352.72 750.09 347.73 750.09 357.7"/><line class="bfd81ada-a559-4358-86e6-6fc19cead15f" x1="798.99" y1="222.34" x2="798.99" y2="319.99"/><polygon class="a27a4923-7a54-4b7f-b7d1-a479c8fe4b6f" points="794 223.8 798.99 215.17 803.98 223.8 794 223.8"/><polygon class="a27a4923-7a54-4b7f-b7d1-a479c8fe4b6f" points="794 318.53 798.99 327.17 803.98 318.53 794 318.53"/><line class="bfd81ada-a559-4358-86e6-6fc19cead15f" x1="198.5" y1="220.89" x2="198.5" y2="318.54"/><polygon class="a27a4923-7a54-4b7f-b7d1-a479c8fe4b6f" points="193.51 222.35 198.5 213.72 203.49 222.35 193.51 222.35"/><polygon class="a27a4923-7a54-4b7f-b7d1-a479c8fe4b6f" points="193.51 317.08 198.5 325.72 203.49 317.08 193.51 317.08"/></g></svg>