<svg xmlns="http://www.w3.org/2000/svg" viewBox="0 0 1003.27 530.67"><defs><style>.a461f865-9168-4888-bcc3-5a3f79ebda37,.a8e5978a-a1fc-4e22-80b1-e5719bbc58de,.a9c8427e-4c72-4e6d-9ed6-72db28778b67,.b3f8730f-3520-49c5-b94d-d9fadba53914,.ba37e3a0-3b9e-476c-a728-3f06fc93b994,.bb16c7cb-0046-44be-b6c0-e9d87dd2f7c1,.fa73dc6a-5137-436b-a1cb-8d7edceee838{fill:none;}.fa73dc6a-5137-436b-a1cb-8d7edceee838{stroke:#466bb0;stroke-dasharray:10 10;}.a9c8427e-4c72-4e6d-9ed6-72db28778b67,.b3f8730f-3520-49c5-b94d-d9fadba53914,.ba37e3a0-3b9e-476c-a728-3f06fc93b994,.bb16c7cb-0046-44be-b6c0-e9d87dd2f7c1,.fa73dc6a-5137-436b-a1cb-8d7edceee838{stroke-linejoin:round;}.e3bf5b94-b9d8-4c4d-94d4-2f4c1c0a9c23{font-size:12px;}.bf875748-c23b-4883-b724-5b42f5838649,.e3bf5b94-b9d8-4c4d-94d4-2f4c1c0a9c23{font-family:Roboto-Regular, Roboto;}.a55625c7-f5e5-45a5-bf06-02f6d70c4116{fill:#e5e5e4;}.ab896f5e-a3b6-4124-b1a0-1cb67c191339{fill:#fff;}.bf875748-c23b-4883-b724-5b42f5838649{font-size:14px;}.f5e7befd-c070-41d3-88c7-e39c5fed083a{letter-spacing:-0.02em;}.b92b1c0a-ec36-40bc-8363-304727d414ed{fill:#486baf;}.f732333c-7470-4bca-b975-799f9bd5e7ce{letter-spacing:-0.02em;}.a9c8427e-4c72-4e6d-9ed6-72db28778b67{stroke:#fbb040;}.a8e5978a-a1fc-4e22-80b1-e5719bbc58de,.a9c8427e-4c72-4e6d-9ed6-72db28778b67,.ba37e3a0-3b9e-476c-a728-3f06fc93b994{stroke-width:2px;}.b538e3f1-30c5-4d27-9548-3074fd86b4b7{fill:#e6e6e6;}.b3f8730f-3520-49c5-b94d-d9fadba53914{stroke:#e905ee;stroke-width:3px;}.f08d296b-45f0-4994-95c6-66b708da776d{letter-spacing:0.01em;}.fdaab584-9ccb-430c-8bd7-5ce6880eff4b{fill:#757575;}.a8e5978a-a1fc-4e22-80b1-e5719bbc58de,.ba37e3a0-3b9e-476c-a728-3f06fc93b994{stroke:#fff;}.a8e5978a-a1fc-4e22-80b1-e5719bbc58de,.bb16c7cb-0046-44be-b6c0-e9d87dd2f7c1{stroke-linecap:round;}.a461f865-9168-4888-bcc3-5a3f79ebda37,.a8e5978a-a1fc-4e22-80b1-e5719bbc58de{stroke-miterlimit:10;}.a461f865-9168-4888-bcc3-5a3f79ebda37{stroke:#090;}.a461f865-9168-4888-bcc3-5a3f79ebda37,.bb16c7cb-0046-44be-b6c0-e9d87dd2f7c1{stroke-width:4px;}.bb16c7cb-0046-44be-b6c0-e9d87dd2f7c1{stroke:#486baf;stroke-dasharray:6 12;}.faa8ead3-38cd-4c3d-9bd7-80a7bf3cb595{fill:#090;}</style></defs><title>multi-control</title><g id="f5e55d5c-42a5-4034-8467-5d72f54fe5ad" data-name="multi-control"><rect class="fa73dc6a-5137-436b-a1cb-8d7edceee838" x="0.5" y="13.7" width="1002.27" height="516.47" rx="10"/><text class="e3bf5b94-b9d8-4c4d-94d4-2f4c1c0a9c23" transform="translate(0.48 10.27)">Istio Mesh</text><rect class="a55625c7-f5e5-45a5-bf06-02f6d70c4116" x="329.74" y="231.55" width="123.25" height="75.44" rx="3"/><rect class="ab896f5e-a3b6-4124-b1a0-1cb67c191339" x="338.54" y="274.98" width="105.64" height="26.41" rx="3"/><text class="bf875748-c23b-4883-b724-5b42f5838649" transform="translate(349.5 292.33)">Cont<tspan class="f5e7befd-c070-41d3-88c7-e39c5fed083a" x="29.39" y="0">r</tspan><tspan x="33.9" y="0">ol Plane</tspan></text><rect id="a9230bcc-2ad1-4c90-85ba-f56cf3fb6f50" data-name="background" class="b92b1c0a-ec36-40bc-8363-304727d414ed" x="377.15" y="231.55" width="28.44" height="28.44"/><polygon id="a39891b9-50b2-47ce-b35e-8769d43a3217" data-name="hull" class="ab896f5e-a3b6-4124-b1a0-1cb67c191339" points="382.77 255.44 399.97 255.44 389.22 258.67 382.77 255.44"/><polygon id="b4b1fc1e-be78-4727-887a-1e8ce506cfc8" data-name="mainsail" class="ab896f5e-a3b6-4124-b1a0-1cb67c191339" points="382.77 254.37 389.22 253.29 389.22 241.47 382.77 254.37"/><polygon id="e917d6d1-544b-4ea8-84cd-b5365f8df21e" data-name="headsail" class="ab896f5e-a3b6-4124-b1a0-1cb67c191339" points="390.29 253.29 399.97 254.37 390.29 232.87 390.29 253.29"/><rect class="a55625c7-f5e5-45a5-bf06-02f6d70c4116" x="545.82" y="231.55" width="123.25" height="75.44" rx="3"/><rect class="ab896f5e-a3b6-4124-b1a0-1cb67c191339" x="554.63" y="274.98" width="105.64" height="26.41" rx="3"/><text class="bf875748-c23b-4883-b724-5b42f5838649" transform="translate(565.58 292.33)">Cont<tspan class="f5e7befd-c070-41d3-88c7-e39c5fed083a" x="29.39" y="0">r</tspan><tspan x="33.9" y="0">ol Plane</tspan></text><rect id="a4112217-50d2-4dad-8dc5-0d3ca55e63ad" data-name="background" class="b92b1c0a-ec36-40bc-8363-304727d414ed" x="593.23" y="231.55" width="28.44" height="28.44"/><polygon id="fb3c363d-9869-4dd4-b522-521a6f15c59f" data-name="hull" class="ab896f5e-a3b6-4124-b1a0-1cb67c191339" points="598.85 255.44 616.05 255.44 605.3 258.67 598.85 255.44"/><polygon id="e65c33fa-43d9-4fb1-82d5-18593c3246d0" data-name="mainsail" class="ab896f5e-a3b6-4124-b1a0-1cb67c191339" points="598.85 254.37 605.3 253.29 605.3 241.47 598.85 254.37"/><polygon id="aa3bf148-97d0-4550-b914-83a0caa4ddb3" data-name="headsail" class="ab896f5e-a3b6-4124-b1a0-1cb67c191339" points="606.37 253.29 616.05 254.37 606.37 232.87 606.37 253.29"/><text class="e3bf5b94-b9d8-4c4d-94d4-2f4c1c0a9c23" transform="translate(79.62 107.48)">Cluster: <tspan class="f732333c-7470-4bca-b975-799f9bd5e7ce" x="43.74" y="0">W</tspan><tspan x="54.21" y="0">est</tspan></text><path class="a9c8427e-4c72-4e6d-9ed6-72db28778b67" d="M472.08,441,89.69,439.58a10,10,0,0,1-10-10V120.49a10,10,0,0,1,10-10l382.39,1.45a10,10,0,0,1,10,10V431A10,10,0,0,1,472.08,441Z"/><path class="a9c8427e-4c72-4e6d-9ed6-72db28778b67" d="M911.53,441l-382.39-1.45a10,10,0,0,1-10-10V120.49a10,10,0,0,1,10-10l382.39,1.45a10,10,0,0,1,10,10V431A10,10,0,0,1,911.53,441Z"/><text class="e3bf5b94-b9d8-4c4d-94d4-2f4c1c0a9c23" transform="translate(519.14 108.93)">Cluster: East</text><rect class="b538e3f1-30c5-4d27-9548-3074fd86b4b7" x="696.87" y="152.17" width="197.65" height="72" rx="3"/><rect class="ab896f5e-a3b6-4124-b1a0-1cb67c191339" x="705.52" y="161.17" width="54" height="54" rx="3"/><polygon class="b3f8730f-3520-49c5-b94d-d9fadba53914" points="745.78 195.82 745.78 180.52 732.52 172.87 719.26 180.52 719.26 195.82 732.52 203.47 745.78 195.82"/><rect class="ab896f5e-a3b6-4124-b1a0-1cb67c191339" x="768.52" y="161.17" width="117" height="54" rx="3"/><text class="bf875748-c23b-4883-b724-5b42f5838649" transform="translate(820.97 193.01)">Se<tspan class="f08d296b-45f0-4994-95c6-66b708da776d" x="15.72" y="0">r</tspan><tspan x="20.58" y="0">vice A</tspan></text><circle class="fdaab584-9ccb-430c-8bd7-5ce6880eff4b" cx="795.52" cy="188.17" r="18"/><rect class="ba37e3a0-3b9e-476c-a728-3f06fc93b994" x="789.12" y="181.65" width="12.79" height="12.79"/><line class="a8e5978a-a1fc-4e22-80b1-e5719bbc58de" x1="791.49" y1="181.65" x2="791.49" y2="178.57"/><line class="a8e5978a-a1fc-4e22-80b1-e5719bbc58de" x1="795.52" y1="181.65" x2="795.52" y2="178.57"/><line class="a8e5978a-a1fc-4e22-80b1-e5719bbc58de" x1="799.54" y1="181.65" x2="799.54" y2="178.57"/><line class="a8e5978a-a1fc-4e22-80b1-e5719bbc58de" x1="791.49" y1="197.76" x2="791.49" y2="194.68"/><line class="a8e5978a-a1fc-4e22-80b1-e5719bbc58de" x1="795.52" y1="197.76" x2="795.52" y2="194.68"/><line class="a8e5978a-a1fc-4e22-80b1-e5719bbc58de" x1="799.54" y1="197.76" x2="799.54" y2="194.68"/><line class="a8e5978a-a1fc-4e22-80b1-e5719bbc58de" x1="789" y1="192.19" x2="785.93" y2="192.19"/><line class="a8e5978a-a1fc-4e22-80b1-e5719bbc58de" x1="789" y1="188.17" x2="785.93" y2="188.17"/><line class="a8e5978a-a1fc-4e22-80b1-e5719bbc58de" x1="789" y1="184.14" x2="785.93" y2="184.14"/><line class="a8e5978a-a1fc-4e22-80b1-e5719bbc58de" x1="805.11" y1="192.19" x2="802.03" y2="192.19"/><line class="a8e5978a-a1fc-4e22-80b1-e5719bbc58de" x1="805.11" y1="188.17" x2="802.03" y2="188.17"/><line class="a8e5978a-a1fc-4e22-80b1-e5719bbc58de" x1="805.11" y1="184.14" x2="802.03" y2="184.14"/><rect class="ab896f5e-a3b6-4124-b1a0-1cb67c191339" x="792.68" y="185.21" width="5.68" height="5.68" rx="2"/><rect class="b538e3f1-30c5-4d27-9548-3074fd86b4b7" x="104.7" y="150.72" width="197.65" height="72" rx="3"/><rect class="ab896f5e-a3b6-4124-b1a0-1cb67c191339" x="113.35" y="159.72" width="117" height="54" rx="3"/><text class="bf875748-c23b-4883-b724-5b42f5838649" transform="translate(165.79 191.56)">Se<tspan class="f08d296b-45f0-4994-95c6-66b708da776d" x="15.72" y="0">r</tspan><tspan x="20.58" y="0">vice A</tspan></text><circle class="fdaab584-9ccb-430c-8bd7-5ce6880eff4b" cx="140.35" cy="186.72" r="18"/><rect class="ba37e3a0-3b9e-476c-a728-3f06fc93b994" x="133.95" y="180.21" width="12.79" height="12.79"/><line class="a8e5978a-a1fc-4e22-80b1-e5719bbc58de" x1="136.32" y1="180.21" x2="136.32" y2="177.13"/><line class="a8e5978a-a1fc-4e22-80b1-e5719bbc58de" x1="140.35" y1="180.21" x2="140.35" y2="177.13"/><line class="a8e5978a-a1fc-4e22-80b1-e5719bbc58de" x1="144.37" y1="180.21" x2="144.37" y2="177.13"/><line class="a8e5978a-a1fc-4e22-80b1-e5719bbc58de" x1="136.32" y1="196.31" x2="136.32" y2="193.23"/><line class="a8e5978a-a1fc-4e22-80b1-e5719bbc58de" x1="140.35" y1="196.31" x2="140.35" y2="193.23"/><line class="a8e5978a-a1fc-4e22-80b1-e5719bbc58de" x1="144.37" y1="196.31" x2="144.37" y2="193.23"/><line class="a8e5978a-a1fc-4e22-80b1-e5719bbc58de" x1="133.83" y1="190.74" x2="130.75" y2="190.74"/><line class="a8e5978a-a1fc-4e22-80b1-e5719bbc58de" x1="133.83" y1="186.72" x2="130.75" y2="186.72"/><line class="a8e5978a-a1fc-4e22-80b1-e5719bbc58de" x1="133.83" y1="182.69" x2="130.75" y2="182.69"/><line class="a8e5978a-a1fc-4e22-80b1-e5719bbc58de" x1="149.94" y1="190.74" x2="146.86" y2="190.74"/><line class="a8e5978a-a1fc-4e22-80b1-e5719bbc58de" x1="149.94" y1="186.72" x2="146.86" y2="186.72"/><line class="a8e5978a-a1fc-4e22-80b1-e5719bbc58de" x1="149.94" y1="182.69" x2="146.86" y2="182.69"/><rect class="ab896f5e-a3b6-4124-b1a0-1cb67c191339" x="137.5" y="183.76" width="5.68" height="5.68" rx="2"/><rect class="ab896f5e-a3b6-4124-b1a0-1cb67c191339" x="239.35" y="159.72" width="54" height="54" rx="3"/><polygon class="b3f8730f-3520-49c5-b94d-d9fadba53914" points="279.61 194.37 279.61 179.07 266.35 171.42 253.09 179.07 253.09 194.37 266.35 202.02 279.61 194.37"/><rect class="b538e3f1-30c5-4d27-9548-3074fd86b4b7" x="696.87" y="318.17" width="197.65" height="72" rx="3"/><rect class="ab896f5e-a3b6-4124-b1a0-1cb67c191339" x="705.52" y="327.17" width="54" height="54" rx="3"/><polygon class="b3f8730f-3520-49c5-b94d-d9fadba53914" points="745.78 361.82 745.78 346.52 732.52 338.87 719.26 346.52 719.26 361.82 732.52 369.47 745.78 361.82"/><rect class="ab896f5e-a3b6-4124-b1a0-1cb67c191339" x="768.52" y="327.17" width="117" height="54" rx="3"/><text class="bf875748-c23b-4883-b724-5b42f5838649" transform="translate(821.17 359.01)">Se<tspan class="f08d296b-45f0-4994-95c6-66b708da776d" x="15.72" y="0">r</tspan><tspan x="20.58" y="0">vice B</tspan></text><circle class="fdaab584-9ccb-430c-8bd7-5ce6880eff4b" cx="795.52" cy="354.17" r="18"/><rect class="ba37e3a0-3b9e-476c-a728-3f06fc93b994" x="789.12" y="347.65" width="12.79" height="12.79"/><line class="a8e5978a-a1fc-4e22-80b1-e5719bbc58de" x1="791.49" y1="347.65" x2="791.49" y2="344.57"/><line class="a8e5978a-a1fc-4e22-80b1-e5719bbc58de" x1="795.52" y1="347.65" x2="795.52" y2="344.57"/><line class="a8e5978a-a1fc-4e22-80b1-e5719bbc58de" x1="799.54" y1="347.65" x2="799.54" y2="344.57"/><line class="a8e5978a-a1fc-4e22-80b1-e5719bbc58de" x1="791.49" y1="363.76" x2="791.49" y2="360.68"/><line class="a8e5978a-a1fc-4e22-80b1-e5719bbc58de" x1="795.52" y1="363.76" x2="795.52" y2="360.68"/><line class="a8e5978a-a1fc-4e22-80b1-e5719bbc58de" x1="799.54" y1="363.76" x2="799.54" y2="360.68"/><line class="a8e5978a-a1fc-4e22-80b1-e5719bbc58de" x1="789" y1="358.19" x2="785.93" y2="358.19"/><line class="a8e5978a-a1fc-4e22-80b1-e5719bbc58de" x1="789" y1="354.17" x2="785.93" y2="354.17"/><line class="a8e5978a-a1fc-4e22-80b1-e5719bbc58de" x1="789" y1="350.14" x2="785.93" y2="350.14"/><line class="a8e5978a-a1fc-4e22-80b1-e5719bbc58de" x1="805.11" y1="358.19" x2="802.03" y2="358.19"/><line class="a8e5978a-a1fc-4e22-80b1-e5719bbc58de" x1="805.11" y1="354.17" x2="802.03" y2="354.17"/><line class="a8e5978a-a1fc-4e22-80b1-e5719bbc58de" x1="805.11" y1="350.14" x2="802.03" y2="350.14"/><rect class="ab896f5e-a3b6-4124-b1a0-1cb67c191339" x="792.68" y="351.21" width="5.68" height="5.68" rx="2"/><rect class="b538e3f1-30c5-4d27-9548-3074fd86b4b7" x="104.7" y="316.72" width="197.65" height="72" rx="3"/><rect class="ab896f5e-a3b6-4124-b1a0-1cb67c191339" x="113.35" y="325.72" width="117" height="54" rx="3"/><text class="bf875748-c23b-4883-b724-5b42f5838649" transform="translate(166 357.56)">Se<tspan class="f08d296b-45f0-4994-95c6-66b708da776d" x="15.72" y="0">r</tspan><tspan x="20.58" y="0">vice B</tspan></text><circle class="fdaab584-9ccb-430c-8bd7-5ce6880eff4b" cx="140.35" cy="352.72" r="18"/><rect class="ba37e3a0-3b9e-476c-a728-3f06fc93b994" x="133.95" y="346.21" width="12.79" height="12.79"/><line class="a8e5978a-a1fc-4e22-80b1-e5719bbc58de" x1="136.32" y1="346.21" x2="136.32" y2="343.13"/><line class="a8e5978a-a1fc-4e22-80b1-e5719bbc58de" x1="140.35" y1="346.21" x2="140.35" y2="343.13"/><line class="a8e5978a-a1fc-4e22-80b1-e5719bbc58de" x1="144.37" y1="346.21" x2="144.37" y2="343.13"/><line class="a8e5978a-a1fc-4e22-80b1-e5719bbc58de" x1="136.32" y1="362.31" x2="136.32" y2="359.23"/><line class="a8e5978a-a1fc-4e22-80b1-e5719bbc58de" x1="140.35" y1="362.31" x2="140.35" y2="359.23"/><line class="a8e5978a-a1fc-4e22-80b1-e5719bbc58de" x1="144.37" y1="362.31" x2="144.37" y2="359.23"/><line class="a8e5978a-a1fc-4e22-80b1-e5719bbc58de" x1="133.83" y1="356.74" x2="130.75" y2="356.74"/><line class="a8e5978a-a1fc-4e22-80b1-e5719bbc58de" x1="133.83" y1="352.72" x2="130.75" y2="352.72"/><line class="a8e5978a-a1fc-4e22-80b1-e5719bbc58de" x1="133.83" y1="348.69" x2="130.75" y2="348.69"/><line class="a8e5978a-a1fc-4e22-80b1-e5719bbc58de" x1="149.94" y1="356.74" x2="146.86" y2="356.74"/><line class="a8e5978a-a1fc-4e22-80b1-e5719bbc58de" x1="149.94" y1="352.72" x2="146.86" y2="352.72"/><line class="a8e5978a-a1fc-4e22-80b1-e5719bbc58de" x1="149.94" y1="348.69" x2="146.86" y2="348.69"/><rect class="ab896f5e-a3b6-4124-b1a0-1cb67c191339" x="137.5" y="349.76" width="5.68" height="5.68" rx="2"/><rect class="ab896f5e-a3b6-4124-b1a0-1cb67c191339" x="239.35" y="325.72" width="54" height="54" rx="3"/><polygon class="b3f8730f-3520-49c5-b94d-d9fadba53914" points="279.61 360.37 279.61 345.07 266.35 337.42 253.09 345.07 253.09 360.37 266.35 368.02 279.61 360.37"/><line class="a461f865-9168-4888-bcc3-5a3f79ebda37" x1="500.61" y1="372.17" x2="500.61" y2="165.73"/><polyline class="bb16c7cb-0046-44be-b6c0-e9d87dd2f7c1" points="391.37 306.99 391.37 354.17 300.52 354.17"/><polygon class="b92b1c0a-ec36-40bc-8363-304727d414ed" points="301.98 349.18 293.35 354.17 301.98 359.15 301.98 349.18"/><polyline class="bb16c7cb-0046-44be-b6c0-e9d87dd2f7c1" points="607.5 306.99 607.5 354.17 698.34 354.17"/><polygon class="b92b1c0a-ec36-40bc-8363-304727d414ed" points="696.88 359.15 705.52 354.17 696.88 349.18 696.88 359.15"/><polyline class="bb16c7cb-0046-44be-b6c0-e9d87dd2f7c1" points="391.37 231.55 391.37 184.37 300.52 184.37"/><polygon class="b92b1c0a-ec36-40bc-8363-304727d414ed" points="301.98 179.38 293.35 184.37 301.98 189.35 301.98 179.38"/><polyline class="bb16c7cb-0046-44be-b6c0-e9d87dd2f7c1" points="607.5 231.55 607.5 184.37 698.34 184.37"/><polygon class="b92b1c0a-ec36-40bc-8363-304727d414ed" points="696.88 189.35 705.52 184.37 696.88 179.38 696.88 189.35"/><line class="a461f865-9168-4888-bcc3-5a3f79ebda37" x1="300.52" y1="165.73" x2="698.34" y2="165.73"/><polygon class="faa8ead3-38cd-4c3d-9bd7-80a7bf3cb595" points="301.98 170.72 293.35 165.73 301.98 160.75 301.98 170.72"/><polygon class="faa8ead3-38cd-4c3d-9bd7-80a7bf3cb595" points="696.88 170.72 705.52 165.73 696.88 160.75 696.88 170.72"/><line class="a461f865-9168-4888-bcc3-5a3f79ebda37" x1="300.52" y1="372.17" x2="698.34" y2="372.17"/><polygon class="faa8ead3-38cd-4c3d-9bd7-80a7bf3cb595" points="301.98 377.15 293.35 372.17 301.98 367.18 301.98 377.15"/><polygon class="faa8ead3-38cd-4c3d-9bd7-80a7bf3cb595" points="696.88 377.15 705.52 372.17 696.88 367.18 696.88 377.15"/></g></svg>