<svg xmlns="http://www.w3.org/2000/svg" viewBox="0 0 1003.27 653.1"><defs><style>.a294ad2d-350a-4358-baea-670a9da44630,.aba951b1-3d75-486a-9c19-4642200e8d85,.af74b3bb-9c1d-4cf9-bba9-4d1b7c986a32,.b703326f-a720-4cc0-a6ad-b9740461829a,.b8ef9f59-618e-4b06-9607-11c4c586fb1d,.bddd6deb-b3a1-4585-89af-edd73f87f8f1,.fd47a38d-e572-4eed-b81a-50f290460e40,.fd939841-7126-4283-a43a-acb809e16253{fill:none;}.b703326f-a720-4cc0-a6ad-b9740461829a{stroke:#466bb0;stroke-dasharray:10.02 10.02;}.a294ad2d-350a-4358-baea-670a9da44630,.af74b3bb-9c1d-4cf9-bba9-4d1b7c986a32,.b703326f-a720-4cc0-a6ad-b9740461829a,.b8ef9f59-618e-4b06-9607-11c4c586fb1d,.bddd6deb-b3a1-4585-89af-edd73f87f8f1,.fd47a38d-e572-4eed-b81a-50f290460e40{stroke-linejoin:round;}.bf558d16-a719-448a-86a2-bfd1cc25bb40{font-size:12px;}.b997933f-5f28-4921-9358-1172f9d8d769,.bf558d16-a719-448a-86a2-bfd1cc25bb40,.fc8b7bc4-e581-48bf-a22f-5862fece433b{font-family:Roboto-Regular, Roboto;}.f0f88322-72a0-4bd1-b971-b0ba413a04e8{fill:#e5e5e4;}.b1c939d9-727d-48b3-b883-e3e16f1489a8{fill:#fff;}.fc8b7bc4-e581-48bf-a22f-5862fece433b{font-size:15.27px;}.f75f2bfe-fbf8-464c-80bb-03f68a7e31fb{letter-spacing:-0.02em;}.e4993d16-23cc-413c-a692-87e1d88525c1{fill:#486baf;}.b997933f-5f28-4921-9358-1172f9d8d769{font-size:13.09px;}.e8f75222-0e1f-415c-b241-f3a982beb290{letter-spacing:-0.02em;}.aed09bfb-5cae-4443-8a21-7e1d8646d036{letter-spacing:0.02em;}.fd47a38d-e572-4eed-b81a-50f290460e40{stroke:#fbb040;}.aba951b1-3d75-486a-9c19-4642200e8d85,.af74b3bb-9c1d-4cf9-bba9-4d1b7c986a32,.bddd6deb-b3a1-4585-89af-edd73f87f8f1,.fd47a38d-e572-4eed-b81a-50f290460e40{stroke-width:2px;}.b4a255f1-f12d-404b-a131-eea35f5a4afd{letter-spacing:0em;}.af74b3bb-9c1d-4cf9-bba9-4d1b7c986a32{stroke:#666;}.acfd1b76-811f-4692-bae4-3e75c39ef57b{letter-spacing:-0.02em;}.e8818764-4f78-43b0-b541-9036b1c06485{fill:#e6e6e6;}.a294ad2d-350a-4358-baea-670a9da44630{stroke:#e905ee;stroke-width:3px;}.b4eabd7d-d7e7-4fd2-acf2-0b7e641fea2d{letter-spacing:0.01em;}.a188d2d6-667c-428e-b374-e25533987ffe{fill:#757575;}.aba951b1-3d75-486a-9c19-4642200e8d85,.bddd6deb-b3a1-4585-89af-edd73f87f8f1{stroke:#fff;}.aba951b1-3d75-486a-9c19-4642200e8d85,.b8ef9f59-618e-4b06-9607-11c4c586fb1d{stroke-linecap:round;}.aba951b1-3d75-486a-9c19-4642200e8d85,.fd939841-7126-4283-a43a-acb809e16253{stroke-miterlimit:10;}.ba494d91-9bb5-4b67-8829-234f57fe0f67{letter-spacing:0.01em;}.a687415b-6094-4673-8b89-0942e66e6276{letter-spacing:0em;}.b8ef9f59-618e-4b06-9607-11c4c586fb1d{stroke:#486baf;stroke-dasharray:6 12;}.b8ef9f59-618e-4b06-9607-11c4c586fb1d,.fd939841-7126-4283-a43a-acb809e16253{stroke-width:4px;}.fd939841-7126-4283-a43a-acb809e16253{stroke:#090;}.ef5407d5-57a1-4975-a323-b7a452d03a66{fill:#090;}</style></defs><title>multi-cluster</title><g id="aabfbde5-2b5d-4e60-b4f4-e75e8dc6395d" data-name="multi-cluster"><rect class="b703326f-a720-4cc0-a6ad-b9740461829a" x="0.5" y="13.7" width="1002.27" height="638.9" rx="10"/><text class="bf558d16-a719-448a-86a2-bfd1cc25bb40" transform="translate(0.48 10.27)">Istio Mesh</text><rect class="f0f88322-72a0-4bd1-b971-b0ba413a04e8" x="434.4" y="536.45" width="134.45" height="82.29" rx="3"/><rect class="b1c939d9-727d-48b3-b883-e3e16f1489a8" x="444" y="583.82" width="115.24" height="28.81" rx="3"/><text class="fc8b7bc4-e581-48bf-a22f-5862fece433b" transform="translate(455.96 602.75)">Cont<tspan class="f75f2bfe-fbf8-464c-80bb-03f68a7e31fb" x="32.06" y="0">r</tspan><tspan x="36.98" y="0">ol Plane</tspan></text><rect id="ff7e6322-584c-46e2-b347-3814a35a11af" data-name="background" class="e4993d16-23cc-413c-a692-87e1d88525c1" x="486.12" y="536.45" width="31.02" height="31.02"/><polygon id="f561b974-f5d4-4213-8fb6-fc94acd731c9" data-name="hull" class="b1c939d9-727d-48b3-b883-e3e16f1489a8" points="492.24 562.51 511.01 562.51 499.28 566.03 492.24 562.51"/><polygon id="baab2bd6-caff-4624-8a5a-5a83b6cd0e5c" data-name="mainsail" class="b1c939d9-727d-48b3-b883-e3e16f1489a8" points="492.24 561.34 499.28 560.17 499.28 547.27 492.24 561.34"/><polygon id="ef49670f-9075-4199-b72f-e73a797e7d13" data-name="headsail" class="b1c939d9-727d-48b3-b883-e3e16f1489a8" points="500.45 560.17 511.01 561.34 500.45 537.89 500.45 560.17"/><text class="b997933f-5f28-4921-9358-1172f9d8d769" transform="translate(41.28 87.6)">Cluster: <tspan class="e8f75222-0e1f-415c-b241-f3a982beb290" x="47.71" y="0">W</tspan><tspan x="59.13" y="0">est-No</tspan><tspan class="aed09bfb-5cae-4443-8a21-7e1d8646d036" x="97.5" y="0">r</tspan><tspan x="102.25" y="0">th</tspan></text><rect class="fd47a38d-e572-4eed-b81a-50f290460e40" x="41.36" y="90.89" width="270.24" height="358.98" rx="10"/><text class="b997933f-5f28-4921-9358-1172f9d8d769" transform="translate(344.54 87.6)">Cluster: <tspan class="e8f75222-0e1f-415c-b241-f3a982beb290" x="47.71" y="0">W</tspan><tspan x="59.13" y="0">est-So</tspan><tspan class="aed09bfb-5cae-4443-8a21-7e1d8646d036" x="95.93" y="0">r</tspan><tspan x="100.68" y="0">th</tspan></text><rect class="fd47a38d-e572-4eed-b81a-50f290460e40" x="344.61" y="90.89" width="270.24" height="358.98" rx="10"/><text class="b997933f-5f28-4921-9358-1172f9d8d769" transform="translate(690.33 87.6)">Cluster: East-No<tspan class="aed09bfb-5cae-4443-8a21-7e1d8646d036" x="93.71" y="0">r</tspan><tspan class="b4a255f1-f12d-404b-a131-eea35f5a4afd" x="98.46" y="0">th</tspan></text><rect class="fd47a38d-e572-4eed-b81a-50f290460e40" x="690.41" y="90.89" width="270.24" height="358.98" rx="10"/><rect class="af74b3bb-9c1d-4cf9-bba9-4d1b7c986a32" x="670.36" y="48.47" width="310.36" height="445.96" rx="10"/><text class="b997933f-5f28-4921-9358-1172f9d8d769" transform="translate(670.7 45.06)">Network: East</text><rect class="af74b3bb-9c1d-4cf9-bba9-4d1b7c986a32" x="22.53" y="48.47" width="612.39" height="445.96" rx="10"/><text class="b997933f-5f28-4921-9358-1172f9d8d769" transform="translate(22.74 45.06)">Network: <tspan class="acfd1b76-811f-4692-bae4-3e75c39ef57b" x="55.32" y="0">W</tspan><tspan x="66.73" y="0">est</tspan></text><rect class="e8818764-4f78-43b0-b541-9036b1c06485" x="371.9" y="134.77" width="215.6" height="78.54" rx="3"/><rect class="b1c939d9-727d-48b3-b883-e3e16f1489a8" x="381.33" y="144.59" width="58.91" height="58.91" rx="3"/><polygon class="a294ad2d-350a-4358-baea-670a9da44630" points="425.25 182.38 425.25 165.69 410.78 157.35 396.32 165.69 396.32 182.38 410.78 190.73 425.25 182.38"/><rect class="b1c939d9-727d-48b3-b883-e3e16f1489a8" x="450.05" y="144.59" width="127.63" height="58.91" rx="3"/><text class="fc8b7bc4-e581-48bf-a22f-5862fece433b" transform="translate(507.26 179.32)">Se<tspan class="b4eabd7d-d7e7-4fd2-acf2-0b7e641fea2d" x="17.15" y="0">r</tspan><tspan x="22.45" y="0">vice A</tspan></text><circle class="a188d2d6-667c-428e-b374-e25533987ffe" cx="479.5" cy="174.04" r="19.64"/><rect class="bddd6deb-b3a1-4585-89af-edd73f87f8f1" x="472.53" y="166.93" width="13.95" height="13.95"/><line class="aba951b1-3d75-486a-9c19-4642200e8d85" x1="475.11" y1="166.93" x2="475.11" y2="163.57"/><line class="aba951b1-3d75-486a-9c19-4642200e8d85" x1="479.5" y1="166.93" x2="479.5" y2="163.57"/><line class="aba951b1-3d75-486a-9c19-4642200e8d85" x1="483.9" y1="166.93" x2="483.9" y2="163.57"/><line class="aba951b1-3d75-486a-9c19-4642200e8d85" x1="475.11" y1="184.5" x2="475.11" y2="181.14"/><line class="aba951b1-3d75-486a-9c19-4642200e8d85" x1="479.5" y1="184.5" x2="479.5" y2="181.14"/><line class="aba951b1-3d75-486a-9c19-4642200e8d85" x1="483.9" y1="184.5" x2="483.9" y2="181.14"/><line class="aba951b1-3d75-486a-9c19-4642200e8d85" x1="472.4" y1="178.43" x2="469.04" y2="178.43"/><line class="aba951b1-3d75-486a-9c19-4642200e8d85" x1="472.4" y1="174.04" x2="469.04" y2="174.04"/><line class="aba951b1-3d75-486a-9c19-4642200e8d85" x1="472.4" y1="169.65" x2="469.04" y2="169.65"/><line class="aba951b1-3d75-486a-9c19-4642200e8d85" x1="489.97" y1="178.43" x2="486.61" y2="178.43"/><line class="aba951b1-3d75-486a-9c19-4642200e8d85" x1="489.97" y1="174.04" x2="486.61" y2="174.04"/><line class="aba951b1-3d75-486a-9c19-4642200e8d85" x1="489.97" y1="169.65" x2="486.61" y2="169.65"/><rect class="b1c939d9-727d-48b3-b883-e3e16f1489a8" x="476.4" y="170.81" width="6.2" height="6.2" rx="2"/><rect class="e8818764-4f78-43b0-b541-9036b1c06485" x="68.64" y="134.77" width="215.6" height="78.54" rx="3"/><rect class="b1c939d9-727d-48b3-b883-e3e16f1489a8" x="78.07" y="144.59" width="127.63" height="58.91" rx="3"/><text class="fc8b7bc4-e581-48bf-a22f-5862fece433b" transform="translate(135.29 179.32)">Se<tspan class="b4eabd7d-d7e7-4fd2-acf2-0b7e641fea2d" x="17.15" y="0">r</tspan><tspan x="22.45" y="0">vice A</tspan></text><circle class="a188d2d6-667c-428e-b374-e25533987ffe" cx="107.53" cy="174.04" r="19.64"/><rect class="bddd6deb-b3a1-4585-89af-edd73f87f8f1" x="100.55" y="166.93" width="13.95" height="13.95"/><line class="aba951b1-3d75-486a-9c19-4642200e8d85" x1="103.14" y1="166.93" x2="103.14" y2="163.57"/><line class="aba951b1-3d75-486a-9c19-4642200e8d85" x1="107.53" y1="166.93" x2="107.53" y2="163.57"/><line class="aba951b1-3d75-486a-9c19-4642200e8d85" x1="111.92" y1="166.93" x2="111.92" y2="163.57"/><line class="aba951b1-3d75-486a-9c19-4642200e8d85" x1="103.14" y1="184.5" x2="103.14" y2="181.14"/><line class="aba951b1-3d75-486a-9c19-4642200e8d85" x1="107.53" y1="184.5" x2="107.53" y2="181.14"/><line class="aba951b1-3d75-486a-9c19-4642200e8d85" x1="111.92" y1="184.5" x2="111.92" y2="181.14"/><line class="aba951b1-3d75-486a-9c19-4642200e8d85" x1="100.42" y1="178.43" x2="97.06" y2="178.43"/><line class="aba951b1-3d75-486a-9c19-4642200e8d85" x1="100.42" y1="174.04" x2="97.06" y2="174.04"/><line class="aba951b1-3d75-486a-9c19-4642200e8d85" x1="100.42" y1="169.65" x2="97.06" y2="169.65"/><line class="aba951b1-3d75-486a-9c19-4642200e8d85" x1="117.99" y1="178.43" x2="114.63" y2="178.43"/><line class="aba951b1-3d75-486a-9c19-4642200e8d85" x1="117.99" y1="174.04" x2="114.63" y2="174.04"/><line class="aba951b1-3d75-486a-9c19-4642200e8d85" x1="117.99" y1="169.65" x2="114.63" y2="169.65"/><rect class="b1c939d9-727d-48b3-b883-e3e16f1489a8" x="104.43" y="170.81" width="6.2" height="6.2" rx="2"/><rect class="b1c939d9-727d-48b3-b883-e3e16f1489a8" x="215.52" y="144.59" width="58.91" height="58.91" rx="3"/><polygon class="a294ad2d-350a-4358-baea-670a9da44630" points="259.44 182.38 259.44 165.69 244.97 157.35 230.51 165.69 230.51 182.38 244.97 190.73 259.44 182.38"/><rect class="e8818764-4f78-43b0-b541-9036b1c06485" x="371.9" y="315.85" width="215.6" height="78.54" rx="3"/><rect class="b1c939d9-727d-48b3-b883-e3e16f1489a8" x="381.33" y="325.66" width="58.91" height="58.91" rx="3"/><polygon class="a294ad2d-350a-4358-baea-670a9da44630" points="425.25 363.46 425.25 346.77 410.78 338.43 396.32 346.77 396.32 363.46 410.78 371.81 425.25 363.46"/><rect class="b1c939d9-727d-48b3-b883-e3e16f1489a8" x="450.05" y="325.66" width="127.63" height="58.91" rx="3"/><text class="fc8b7bc4-e581-48bf-a22f-5862fece433b" transform="translate(507.49 360.4)">Se<tspan class="b4eabd7d-d7e7-4fd2-acf2-0b7e641fea2d" x="17.15" y="0">r</tspan><tspan x="22.45" y="0">vice B</tspan></text><circle class="a188d2d6-667c-428e-b374-e25533987ffe" cx="479.5" cy="355.12" r="19.64"/><rect class="bddd6deb-b3a1-4585-89af-edd73f87f8f1" x="472.53" y="348.01" width="13.95" height="13.95"/><line class="aba951b1-3d75-486a-9c19-4642200e8d85" x1="475.11" y1="348.01" x2="475.11" y2="344.65"/><line class="aba951b1-3d75-486a-9c19-4642200e8d85" x1="479.5" y1="348.01" x2="479.5" y2="344.65"/><line class="aba951b1-3d75-486a-9c19-4642200e8d85" x1="483.9" y1="348.01" x2="483.9" y2="344.65"/><line class="aba951b1-3d75-486a-9c19-4642200e8d85" x1="475.11" y1="365.58" x2="475.11" y2="362.22"/><line class="aba951b1-3d75-486a-9c19-4642200e8d85" x1="479.5" y1="365.58" x2="479.5" y2="362.22"/><line class="aba951b1-3d75-486a-9c19-4642200e8d85" x1="483.9" y1="365.58" x2="483.9" y2="362.22"/><line class="aba951b1-3d75-486a-9c19-4642200e8d85" x1="472.4" y1="359.51" x2="469.04" y2="359.51"/><line class="aba951b1-3d75-486a-9c19-4642200e8d85" x1="472.4" y1="355.12" x2="469.04" y2="355.12"/><line class="aba951b1-3d75-486a-9c19-4642200e8d85" x1="472.4" y1="350.73" x2="469.04" y2="350.73"/><line class="aba951b1-3d75-486a-9c19-4642200e8d85" x1="489.97" y1="359.51" x2="486.61" y2="359.51"/><line class="aba951b1-3d75-486a-9c19-4642200e8d85" x1="489.97" y1="355.12" x2="486.61" y2="355.12"/><line class="aba951b1-3d75-486a-9c19-4642200e8d85" x1="489.97" y1="350.73" x2="486.61" y2="350.73"/><rect class="b1c939d9-727d-48b3-b883-e3e16f1489a8" x="476.4" y="351.89" width="6.2" height="6.2" rx="2"/><rect class="e8818764-4f78-43b0-b541-9036b1c06485" x="717.69" y="134.77" width="215.6" height="78.54" rx="3"/><rect class="b1c939d9-727d-48b3-b883-e3e16f1489a8" x="727.12" y="144.59" width="58.91" height="58.91" rx="3"/><polygon class="a294ad2d-350a-4358-baea-670a9da44630" points="771.04 182.38 771.04 165.69 756.58 157.35 742.11 165.69 742.11 182.38 756.58 190.73 771.04 182.38"/><rect class="b1c939d9-727d-48b3-b883-e3e16f1489a8" x="795.85" y="144.59" width="127.63" height="58.91" rx="3"/><text class="fc8b7bc4-e581-48bf-a22f-5862fece433b" transform="translate(853.06 179.32)">Se<tspan class="ba494d91-9bb5-4b67-8829-234f57fe0f67" x="17.15" y="0">r</tspan><tspan class="a687415b-6094-4673-8b89-0942e66e6276" x="22.45" y="0">vice A</tspan></text><circle class="a188d2d6-667c-428e-b374-e25533987ffe" cx="825.3" cy="174.04" r="19.64"/><rect class="bddd6deb-b3a1-4585-89af-edd73f87f8f1" x="818.32" y="166.93" width="13.95" height="13.95"/><line class="aba951b1-3d75-486a-9c19-4642200e8d85" x1="820.91" y1="166.93" x2="820.91" y2="163.57"/><line class="aba951b1-3d75-486a-9c19-4642200e8d85" x1="825.3" y1="166.93" x2="825.3" y2="163.57"/><line class="aba951b1-3d75-486a-9c19-4642200e8d85" x1="829.69" y1="166.93" x2="829.69" y2="163.57"/><line class="aba951b1-3d75-486a-9c19-4642200e8d85" x1="820.91" y1="184.5" x2="820.91" y2="181.14"/><line class="aba951b1-3d75-486a-9c19-4642200e8d85" x1="825.3" y1="184.5" x2="825.3" y2="181.14"/><line class="aba951b1-3d75-486a-9c19-4642200e8d85" x1="829.69" y1="184.5" x2="829.69" y2="181.14"/><line class="aba951b1-3d75-486a-9c19-4642200e8d85" x1="818.2" y1="178.43" x2="814.84" y2="178.43"/><line class="aba951b1-3d75-486a-9c19-4642200e8d85" x1="818.2" y1="174.04" x2="814.84" y2="174.04"/><line class="aba951b1-3d75-486a-9c19-4642200e8d85" x1="818.2" y1="169.65" x2="814.84" y2="169.65"/><line class="aba951b1-3d75-486a-9c19-4642200e8d85" x1="835.76" y1="178.43" x2="832.4" y2="178.43"/><line class="aba951b1-3d75-486a-9c19-4642200e8d85" x1="835.76" y1="174.04" x2="832.4" y2="174.04"/><line class="aba951b1-3d75-486a-9c19-4642200e8d85" x1="835.76" y1="169.65" x2="832.4" y2="169.65"/><rect class="b1c939d9-727d-48b3-b883-e3e16f1489a8" x="822.2" y="170.81" width="6.2" height="6.2" rx="2"/><rect class="e8818764-4f78-43b0-b541-9036b1c06485" x="717.69" y="315.85" width="215.6" height="78.54" rx="3"/><rect class="b1c939d9-727d-48b3-b883-e3e16f1489a8" x="727.12" y="325.66" width="58.91" height="58.91" rx="3"/><polygon class="a294ad2d-350a-4358-baea-670a9da44630" points="771.04 363.46 771.04 346.77 756.58 338.43 742.11 346.77 742.11 363.46 756.58 371.81 771.04 363.46"/><rect class="b1c939d9-727d-48b3-b883-e3e16f1489a8" x="795.85" y="325.66" width="127.63" height="58.91" rx="3"/><text class="fc8b7bc4-e581-48bf-a22f-5862fece433b" transform="translate(853.29 360.4)">Se<tspan class="ba494d91-9bb5-4b67-8829-234f57fe0f67" x="17.15" y="0">r</tspan><tspan class="a687415b-6094-4673-8b89-0942e66e6276" x="22.45" y="0">vice B</tspan></text><circle class="a188d2d6-667c-428e-b374-e25533987ffe" cx="825.3" cy="355.12" r="19.64"/><rect class="bddd6deb-b3a1-4585-89af-edd73f87f8f1" x="818.32" y="348.01" width="13.95" height="13.95"/><line class="aba951b1-3d75-486a-9c19-4642200e8d85" x1="820.91" y1="348.01" x2="820.91" y2="344.65"/><line class="aba951b1-3d75-486a-9c19-4642200e8d85" x1="825.3" y1="348.01" x2="825.3" y2="344.65"/><line class="aba951b1-3d75-486a-9c19-4642200e8d85" x1="829.69" y1="348.01" x2="829.69" y2="344.65"/><line class="aba951b1-3d75-486a-9c19-4642200e8d85" x1="820.91" y1="365.58" x2="820.91" y2="362.22"/><line class="aba951b1-3d75-486a-9c19-4642200e8d85" x1="825.3" y1="365.58" x2="825.3" y2="362.22"/><line class="aba951b1-3d75-486a-9c19-4642200e8d85" x1="829.69" y1="365.58" x2="829.69" y2="362.22"/><line class="aba951b1-3d75-486a-9c19-4642200e8d85" x1="818.2" y1="359.51" x2="814.84" y2="359.51"/><line class="aba951b1-3d75-486a-9c19-4642200e8d85" x1="818.2" y1="355.12" x2="814.84" y2="355.12"/><line class="aba951b1-3d75-486a-9c19-4642200e8d85" x1="818.2" y1="350.73" x2="814.84" y2="350.73"/><line class="aba951b1-3d75-486a-9c19-4642200e8d85" x1="835.76" y1="359.51" x2="832.4" y2="359.51"/><line class="aba951b1-3d75-486a-9c19-4642200e8d85" x1="835.76" y1="355.12" x2="832.4" y2="355.12"/><line class="aba951b1-3d75-486a-9c19-4642200e8d85" x1="835.76" y1="350.73" x2="832.4" y2="350.73"/><rect class="b1c939d9-727d-48b3-b883-e3e16f1489a8" x="822.2" y="351.89" width="6.2" height="6.2" rx="2"/><rect class="e8818764-4f78-43b0-b541-9036b1c06485" x="68.64" y="315.85" width="215.6" height="78.54" rx="3"/><rect class="b1c939d9-727d-48b3-b883-e3e16f1489a8" x="78.07" y="325.66" width="127.63" height="58.91" rx="3"/><text class="fc8b7bc4-e581-48bf-a22f-5862fece433b" transform="translate(135.51 360.4)">Se<tspan class="b4eabd7d-d7e7-4fd2-acf2-0b7e641fea2d" x="17.15" y="0">r</tspan><tspan x="22.45" y="0">vice B</tspan></text><circle class="a188d2d6-667c-428e-b374-e25533987ffe" cx="107.53" cy="355.12" r="19.64"/><rect class="bddd6deb-b3a1-4585-89af-edd73f87f8f1" x="100.55" y="348.01" width="13.95" height="13.95"/><line class="aba951b1-3d75-486a-9c19-4642200e8d85" x1="103.14" y1="348.01" x2="103.14" y2="344.65"/><line class="aba951b1-3d75-486a-9c19-4642200e8d85" x1="107.53" y1="348.01" x2="107.53" y2="344.65"/><line class="aba951b1-3d75-486a-9c19-4642200e8d85" x1="111.92" y1="348.01" x2="111.92" y2="344.65"/><line class="aba951b1-3d75-486a-9c19-4642200e8d85" x1="103.14" y1="365.58" x2="103.14" y2="362.22"/><line class="aba951b1-3d75-486a-9c19-4642200e8d85" x1="107.53" y1="365.58" x2="107.53" y2="362.22"/><line class="aba951b1-3d75-486a-9c19-4642200e8d85" x1="111.92" y1="365.58" x2="111.92" y2="362.22"/><line class="aba951b1-3d75-486a-9c19-4642200e8d85" x1="100.42" y1="359.51" x2="97.06" y2="359.51"/><line class="aba951b1-3d75-486a-9c19-4642200e8d85" x1="100.42" y1="355.12" x2="97.06" y2="355.12"/><line class="aba951b1-3d75-486a-9c19-4642200e8d85" x1="100.42" y1="350.73" x2="97.06" y2="350.73"/><line class="aba951b1-3d75-486a-9c19-4642200e8d85" x1="117.99" y1="359.51" x2="114.63" y2="359.51"/><line class="aba951b1-3d75-486a-9c19-4642200e8d85" x1="117.99" y1="355.12" x2="114.63" y2="355.12"/><line class="aba951b1-3d75-486a-9c19-4642200e8d85" x1="117.99" y1="350.73" x2="114.63" y2="350.73"/><rect class="b1c939d9-727d-48b3-b883-e3e16f1489a8" x="104.43" y="351.89" width="6.2" height="6.2" rx="2"/><rect class="b1c939d9-727d-48b3-b883-e3e16f1489a8" x="215.52" y="325.66" width="58.91" height="58.91" rx="3"/><polygon class="a294ad2d-350a-4358-baea-670a9da44630" points="259.44 363.46 259.44 346.77 244.97 338.43 230.51 346.77 230.51 363.46 244.97 371.81 259.44 363.46"/><polyline class="b8ef9f59-618e-4b06-9607-11c4c586fb1d" points="500.32 537.99 500.32 471.45 329.06 471.45 329.06 173.65 281.6 173.65"/><polygon class="e4993d16-23cc-413c-a692-87e1d88525c1" points="283.06 168.66 274.43 173.65 283.06 178.64 283.06 168.66"/><line class="b8ef9f59-618e-4b06-9607-11c4c586fb1d" x1="374.24" y1="173.65" x2="329.06" y2="173.65"/><polygon class="e4993d16-23cc-413c-a692-87e1d88525c1" points="372.78 168.66 381.42 173.65 372.78 178.64 372.78 168.66"/><line class="b8ef9f59-618e-4b06-9607-11c4c586fb1d" x1="374.24" y1="354.73" x2="329.06" y2="354.73"/><polygon class="e4993d16-23cc-413c-a692-87e1d88525c1" points="372.78 349.75 381.42 354.73 372.78 359.72 372.78 349.75"/><line class="b8ef9f59-618e-4b06-9607-11c4c586fb1d" x1="281.69" y1="354.73" x2="329.06" y2="354.73"/><polygon class="e4993d16-23cc-413c-a692-87e1d88525c1" points="283.15 359.72 274.52 354.73 283.15 349.75 283.15 359.72"/><polyline class="b8ef9f59-618e-4b06-9607-11c4c586fb1d" points="500.32 471.45 650.86 471.45 650.86 173.65 719.95 173.65"/><polygon class="e4993d16-23cc-413c-a692-87e1d88525c1" points="718.49 178.64 727.12 173.65 718.49 168.66 718.49 178.64"/><line class="b8ef9f59-618e-4b06-9607-11c4c586fb1d" x1="720.04" y1="354.73" x2="650.86" y2="354.73"/><polygon class="e4993d16-23cc-413c-a692-87e1d88525c1" points="718.58 349.75 727.21 354.73 718.58 359.72 718.58 349.75"/><line class="fd939841-7126-4283-a43a-acb809e16253" x1="244.89" y1="318" x2="244.89" y2="210.17"/><polygon class="ef5407d5-57a1-4975-a323-b7a452d03a66" points="249.87 316.54 244.89 325.17 239.9 316.54 249.87 316.54"/><polygon class="ef5407d5-57a1-4975-a323-b7a452d03a66" points="249.87 211.63 244.89 203 239.9 211.63 249.87 211.63"/><line class="fd939841-7126-4283-a43a-acb809e16253" x1="410.69" y1="318" x2="410.69" y2="210.17"/><polygon class="ef5407d5-57a1-4975-a323-b7a452d03a66" points="415.68 316.54 410.69 325.17 405.71 316.54 415.68 316.54"/><polygon class="ef5407d5-57a1-4975-a323-b7a452d03a66" points="415.68 211.63 410.69 203 405.71 211.63 415.68 211.63"/><line class="fd939841-7126-4283-a43a-acb809e16253" x1="756.49" y1="318" x2="756.49" y2="210.17"/><polygon class="ef5407d5-57a1-4975-a323-b7a452d03a66" points="761.48 316.54 756.49 325.17 751.5 316.54 761.48 316.54"/><polygon class="ef5407d5-57a1-4975-a323-b7a452d03a66" points="761.48 211.63 756.49 203 751.5 211.63 761.48 211.63"/></g></svg>