<svg xmlns="http://www.w3.org/2000/svg" viewBox="0 0 706.74 373.13"><defs><style>.a3568579-de4e-42f6-ad84-10c4b5f6de1a,.ad2cac74-ee79-47b8-ad2c-03403556a542,.ae9ac683-3b5f-4419-a747-b95f5d32a06b,.b7ddb461-53ac-4e9a-80c5-512a472b1b79,.bed4e792-7ad6-4721-8311-66e8dc5829e5,.fcd7b0b1-ab70-4de8-bbf9-03f1a8a6a921{fill:none;}.fcd7b0b1-ab70-4de8-bbf9-03f1a8a6a921{stroke:#466bb0;stroke-dasharray:10.06 10.06;}.a3568579-de4e-42f6-ad84-10c4b5f6de1a,.ae9ac683-3b5f-4419-a747-b95f5d32a06b,.bed4e792-7ad6-4721-8311-66e8dc5829e5,.fcd7b0b1-ab70-4de8-bbf9-03f1a8a6a921{stroke-linejoin:round;}.e2c04f20-aca8-41e9-b748-72c1c2b43957{font-size:12px;}.e2c04f20-aca8-41e9-b748-72c1c2b43957,.ebd6aec5-42dd-4fb3-aecb-a02890e68813,.fbadc43b-d6dd-4c7c-846b-eca633ff0704{font-family:Roboto-Regular, Roboto;}.aed89b3b-198d-481e-991f-5a1cb9d4c626{letter-spacing:-0.08em;}.a71a9a94-5823-436f-9315-5eecf6be5eae{fill:#466bb0;}.ebd6aec5-42dd-4fb3-aecb-a02890e68813{font-size:16.04px;}.a5e2ab94-3e2d-4861-9f55-8372356ce346{letter-spacing:-0.03em;}.b623342b-0d8b-4437-8787-c67f06fe3f10{letter-spacing:-0.08em;}.fbeec879-6939-4099-8622-cb7876b37fc9{fill:#e5e5e4;}.ede2a455-535e-4e71-8132-52a0c69cace0{fill:#fff;}.fbadc43b-d6dd-4c7c-846b-eca633ff0704{font-size:11.46px;}.a820011f-c846-4bec-9938-e1ecd530578b{letter-spacing:0.02em;}.eae2d469-d521-4887-88b9-4d274bcd976c{fill:#e6e6e6;}.a3568579-de4e-42f6-ad84-10c4b5f6de1a{stroke:#e905ee;stroke-width:3px;}.b2664cc3-7cee-4b13-8188-99430206860a{letter-spacing:0.01em;}.e53741d3-9d20-4c69-80d8-43c3d9857e15{fill:#757575;}.ae9ac683-3b5f-4419-a747-b95f5d32a06b,.b7ddb461-53ac-4e9a-80c5-512a472b1b79{stroke:#fff;stroke-width:2px;}.b7ddb461-53ac-4e9a-80c5-512a472b1b79,.bed4e792-7ad6-4721-8311-66e8dc5829e5{stroke-linecap:round;}.ad2cac74-ee79-47b8-ad2c-03403556a542,.b7ddb461-53ac-4e9a-80c5-512a472b1b79{stroke-miterlimit:10;}.ad2cac74-ee79-47b8-ad2c-03403556a542{stroke:#090;}.ad2cac74-ee79-47b8-ad2c-03403556a542,.bed4e792-7ad6-4721-8311-66e8dc5829e5{stroke-width:4px;}.a8d1c3a0-1724-4f8c-accd-b0fff30229ce{fill:#090;}.bed4e792-7ad6-4721-8311-66e8dc5829e5{stroke:#486baf;stroke-dasharray:6 12;}.e301f1bb-b831-4931-99ba-190910a6a9cf{fill:#486baf;}</style></defs><title>multi-trust</title><g id="a7153cdc-5516-48b9-9ab8-9bcd501541b9" data-name="multi-trust"><rect class="fcd7b0b1-ab70-4de8-bbf9-03f1a8a6a921" x="0.5" y="13.7" width="333.45" height="358.93" rx="10"/><rect class="fcd7b0b1-ab70-4de8-bbf9-03f1a8a6a921" x="372.79" y="13.7" width="333.45" height="358.93" rx="10"/><text class="e2c04f20-aca8-41e9-b748-72c1c2b43957" transform="translate(0.48 10.27)">Istio Mesh: foo.com</text><text class="e2c04f20-aca8-41e9-b748-72c1c2b43957" transform="translate(372.79 10.27)">Istio Mesh: ba<tspan class="aed89b3b-198d-481e-991f-5a1cb9d4c626" x="74.87" y="0">r</tspan><tspan x="77.94" y="0">.com</tspan></text><path class="a71a9a94-5823-436f-9315-5eecf6be5eae" d="M656.92,105.72l1.81,1.77a.9.9,0,0,1,.24.93.89.89,0,0,1-.67.65l-2.48.63.71,2.43a.9.9,0,0,1-.24,1,.88.88,0,0,1-.94.23l-2.44-.7-.63,2.47a.84.84,0,0,1-.67.69.85.85,0,0,1-.9-.25l-1.77-1.81-1.77,1.81a.92.92,0,0,1-.93.25.82.82,0,0,1-.64-.69l-.63-2.47-2.44.7a.94.94,0,0,1-1.18-1.18l.71-2.43-2.48-.63a.87.87,0,0,1-.67-.65.86.86,0,0,1,.24-.93l1.8-1.77-1.8-1.77a.85.85,0,0,1-.24-.92.87.87,0,0,1,.67-.65l2.48-.63-.71-2.44a.89.89,0,0,1,.23-.94.93.93,0,0,1,.95-.24l2.44.71.63-2.48a.83.83,0,0,1,.66-.68.85.85,0,0,1,.91.25l1.77,1.85,1.77-1.85a.86.86,0,0,1,.92-.23.85.85,0,0,1,.65.66l.63,2.48,2.44-.71a.9.9,0,0,1,.94.24.89.89,0,0,1,.24.94l-.71,2.44,2.48.63a.94.94,0,0,1,.43,1.57Z"/><path class="a71a9a94-5823-436f-9315-5eecf6be5eae" d="M640.15,89,642,90.76a.95.95,0,0,1-.44,1.58l-2.47.63.7,2.44a.89.89,0,0,1-.23.94.92.92,0,0,1-.95.24l-2.43-.71-.63,2.47a.94.94,0,0,1-1.58.44L632.16,97l-1.77,1.81a.89.89,0,0,1-.92.25.83.83,0,0,1-.65-.69l-.63-2.47-2.44.71a1,1,0,0,1-1.18-1.18l.71-2.44-2.48-.63a.89.89,0,0,1-.67-.65.9.9,0,0,1,.24-.93L624.18,89l-1.81-1.77a.94.94,0,0,1,.43-1.57l2.48-.63-.71-2.44a1,1,0,0,1,1.18-1.18l2.44.71.63-2.48a.84.84,0,0,1,.67-.68.83.83,0,0,1,.9.25l1.77,1.85,1.77-1.85a.87.87,0,0,1,.93-.23.86.86,0,0,1,.65.66l.63,2.48,2.43-.71a.92.92,0,0,1,.95.24.89.89,0,0,1,.23.94l-.7,2.44,2.47.63a.87.87,0,0,1,.67.65.86.86,0,0,1-.23.92Z"/><path class="a71a9a94-5823-436f-9315-5eecf6be5eae" d="M661,83.94l1.81,1.77a.94.94,0,0,1-.43,1.57l-2.48.63.71,2.44a1,1,0,0,1-1.18,1.18L657,90.82l-.63,2.48a.84.84,0,0,1-.67.68.83.83,0,0,1-.9-.25l-1.77-1.81-1.77,1.81a.9.9,0,0,1-.93.25.84.84,0,0,1-.65-.68l-.62-2.48-2.44.71a.92.92,0,0,1-.95-.24.89.89,0,0,1-.23-.94l.7-2.44-2.47-.63a.87.87,0,0,1-.67-.65.86.86,0,0,1,.23-.92l1.81-1.77-1.81-1.77a.95.95,0,0,1,.44-1.58l2.47-.63-.7-2.44a.89.89,0,0,1,.23-.94.92.92,0,0,1,.95-.24l2.44.71.62-2.47a.85.85,0,0,1,.67-.69.87.87,0,0,1,.91.25L653.05,76l1.77-1.85a.86.86,0,0,1,.92-.23.84.84,0,0,1,.65.67l.63,2.47,2.44-.71a1,1,0,0,1,1.18,1.18L659.93,80l2.48.63a.89.89,0,0,1,.67.65.9.9,0,0,1-.24.93Z"/><path class="a71a9a94-5823-436f-9315-5eecf6be5eae" d="M635.67,110.31l1.81,1.77a.88.88,0,0,1,.24.92.87.87,0,0,1-.67.65l-2.48.63.71,2.44a1,1,0,0,1-1.18,1.18l-2.44-.71-.63,2.48a.84.84,0,0,1-.67.69.86.86,0,0,1-.9-.26l-1.77-1.81-1.77,1.81a.92.92,0,0,1-.93.26.82.82,0,0,1-.64-.69l-.63-2.48-2.44.71a.91.91,0,0,1-.95-.24.88.88,0,0,1-.23-.94l.71-2.44-2.48-.63a.86.86,0,0,1-.67-.65.85.85,0,0,1,.24-.92l1.8-1.77-1.8-1.77a.86.86,0,0,1-.24-.93.85.85,0,0,1,.67-.64l2.48-.63-.71-2.44a.94.94,0,0,1,1.18-1.18l2.44.71.63-2.48a.83.83,0,0,1,.66-.69.85.85,0,0,1,.91.26l1.77,1.84,1.77-1.84a.85.85,0,0,1,.92-.24.86.86,0,0,1,.65.67l.63,2.48,2.44-.71a.88.88,0,0,1,.94.23.91.91,0,0,1,.24,1l-.71,2.44,2.48.63a.86.86,0,0,1,.67.64.89.89,0,0,1-.24.93Z"/><text class="ebd6aec5-42dd-4fb3-aecb-a02890e68813" transform="translate(593.97 136.97)"><tspan class="a5e2ab94-3e2d-4861-9f55-8372356ce346">T</tspan><tspan x="9.05" y="0">rust bundle:</tspan><tspan x="16.56" y="19.25">foo.com</tspan></text><path class="a71a9a94-5823-436f-9315-5eecf6be5eae" d="M71.78,103.18,73.59,105a.86.86,0,0,1,.24.92.87.87,0,0,1-.67.65l-2.48.63.71,2.44a.87.87,0,0,1-.24.94.89.89,0,0,1-.94.24l-2.44-.71-.63,2.48a.84.84,0,0,1-.67.69.86.86,0,0,1-.9-.26l-1.77-1.81L62,113a.91.91,0,0,1-.92.26.83.83,0,0,1-.65-.69l-.63-2.48-2.44.71a.89.89,0,0,1-.94-.24.87.87,0,0,1-.24-.94l.71-2.44-2.48-.63a.87.87,0,0,1-.67-.65A.86.86,0,0,1,54,105l1.81-1.77L54,101.41a.87.87,0,0,1-.24-.93.86.86,0,0,1,.67-.64l2.48-.63-.71-2.44a.94.94,0,0,1,1.18-1.18l2.44.71.63-2.48A.92.92,0,0,1,62,93.39l1.77,1.84,1.77-1.84a.85.85,0,0,1,.92-.24.86.86,0,0,1,.65.67l.63,2.48,2.44-.71a.94.94,0,0,1,1.18,1.18l-.71,2.44,2.48.63a.86.86,0,0,1,.67.64.87.87,0,0,1-.24.93Z"/><path class="a71a9a94-5823-436f-9315-5eecf6be5eae" d="M55,86.45l1.81,1.77a.86.86,0,0,1,.23.92.84.84,0,0,1-.67.65l-2.47.63.7,2.44a.88.88,0,0,1-.23.94.9.9,0,0,1-1,.24L51,93.33l-.63,2.48a.84.84,0,0,1-.67.69.87.87,0,0,1-.91-.26L47,94.43l-1.77,1.81a.91.91,0,0,1-.92.26.84.84,0,0,1-.65-.69l-.63-2.48L40.61,94a.89.89,0,0,1-.94-.24.9.9,0,0,1-.24-.94l.71-2.44-2.48-.63a.87.87,0,0,1-.67-.65.88.88,0,0,1,.24-.92L39,86.45l-1.81-1.77a.88.88,0,0,1-.24-.92.86.86,0,0,1,.67-.65l2.48-.63L39.43,80a.93.93,0,0,1,.24-1,.89.89,0,0,1,.94-.23l2.44.71.63-2.48a.84.84,0,0,1,.67-.69.83.83,0,0,1,.9.26L47,78.5l1.77-1.84a.94.94,0,0,1,1.58.43L51,79.57l2.43-.71A.94.94,0,0,1,54.61,80l-.7,2.44,2.47.63a.83.83,0,0,1,.67.65.86.86,0,0,1-.23.92Z"/><path class="a71a9a94-5823-436f-9315-5eecf6be5eae" d="M75.89,81.39l1.81,1.77a.88.88,0,0,1,.24.92.87.87,0,0,1-.67.65l-2.48.63.71,2.44a.89.89,0,0,1-.24.94.87.87,0,0,1-.94.24l-2.44-.71-.63,2.48a.92.92,0,0,1-1.57.43l-1.77-1.81-1.77,1.81a.9.9,0,0,1-.93.26.82.82,0,0,1-.64-.69l-.63-2.48L61.5,89a.94.94,0,0,1-1.18-1.18L61,85.36l-2.48-.63a.86.86,0,0,1-.67-.65.85.85,0,0,1,.24-.92l1.8-1.77-1.8-1.77a.85.85,0,0,1-.24-.92.86.86,0,0,1,.67-.65L61,77.42,60.32,75A.94.94,0,0,1,61.5,73.8l2.44.71L64.57,72a.83.83,0,0,1,.66-.69.85.85,0,0,1,.91.26l1.77,1.85,1.77-1.85a.86.86,0,0,1,.92-.24.87.87,0,0,1,.65.67l.63,2.48,2.44-.71a.87.87,0,0,1,.94.24.89.89,0,0,1,.24.94l-.71,2.44,2.48.63a.87.87,0,0,1,.67.65.88.88,0,0,1-.24.92Z"/><path class="a71a9a94-5823-436f-9315-5eecf6be5eae" d="M50.53,107.76l1.81,1.77a.9.9,0,0,1,.24.93.89.89,0,0,1-.67.65l-2.48.63.71,2.43A.94.94,0,0,1,49,115.35l-2.44-.7-.63,2.47a.84.84,0,0,1-.67.69.86.86,0,0,1-.9-.25l-1.77-1.81-1.77,1.81a.91.91,0,0,1-.92.25.83.83,0,0,1-.65-.69l-.63-2.47-2.44.7A.94.94,0,0,1,35,114.17l.71-2.43-2.48-.63a.94.94,0,0,1-.43-1.58l1.81-1.77L32.76,106a.86.86,0,0,1-.24-.92.89.89,0,0,1,.67-.65l2.48-.63L35,101.35a.89.89,0,0,1,.23-.94.93.93,0,0,1,1-.24l2.44.71.63-2.48A.92.92,0,0,1,40.78,98l1.77,1.85L44.32,98a.88.88,0,0,1,.92-.24.87.87,0,0,1,.65.67l.63,2.48,2.44-.71a.9.9,0,0,1,.94.24.87.87,0,0,1,.24.94l-.71,2.44,2.48.63a.94.94,0,0,1,.43,1.57Z"/><text class="ebd6aec5-42dd-4fb3-aecb-a02890e68813" transform="translate(8.83 134.43)"><tspan class="a5e2ab94-3e2d-4861-9f55-8372356ce346">T</tspan><tspan x="9.05" y="0">rust bundle:</tspan><tspan x="17.58" y="19.25">ba</tspan><tspan class="b623342b-0d8b-4437-8787-c67f06fe3f10" x="35.3" y="19.25">r</tspan><tspan x="39.41" y="19.25">.com</tspan></text><rect class="fbeec879-6939-4099-8622-cb7876b37fc9" x="424.45" y="71.31" width="141.19" height="105.04" rx="3"/><rect class="ede2a455-535e-4e71-8132-52a0c69cace0" x="434.54" y="121.06" width="121.02" height="48.88" rx="3"/><text class="ebd6aec5-42dd-4fb3-aecb-a02890e68813" transform="translate(447.06 140.56)"><tspan class="a5e2ab94-3e2d-4861-9f55-8372356ce346">T</tspan><tspan x="9.05" y="0">rust Domain</tspan><tspan x="19.17" y="19.25">ba</tspan><tspan class="b623342b-0d8b-4437-8787-c67f06fe3f10" x="36.89" y="19.25">r</tspan><tspan x="41" y="19.25">.com</tspan></text><path class="a71a9a94-5823-436f-9315-5eecf6be5eae" d="M504.68,92.18A5.75,5.75,0,0,1,510.45,98v1.93a1.95,1.95,0,0,1-1.92,1.92h-27a1.88,1.88,0,0,1-1.36-.57,1.85,1.85,0,0,1-.57-1.35V98a5.77,5.77,0,0,1,5.78-5.78h4a1.71,1.71,0,0,0,1.24-.51,1.68,1.68,0,0,0,.51-1.23v-.06A13.08,13.08,0,0,0,489.81,85a5.55,5.55,0,0,1-.54-2.41,5.65,5.65,0,0,1,.93-3.16,5.92,5.92,0,0,1,2.53-2.13,5.46,5.46,0,0,1,3.34-.39,5.74,5.74,0,0,1,3,1.62,6,6,0,0,1,1.66,3,5.57,5.57,0,0,1-.61,3.61,10.63,10.63,0,0,0-1.26,4.7v.6a1.74,1.74,0,0,0,1.74,1.74Zm-23.11,15.41v-3.85h27v3.85Z"/><text class="fbadc43b-d6dd-4c7c-846b-eca633ff0704" transform="translate(424.45 67.87)">Ce<tspan class="a820011f-c846-4bec-9938-e1ecd530578b" x="13.52" y="0">r</tspan><tspan x="17.68" y="0">tificate authority</tspan></text><rect class="eae2d469-d521-4887-88b9-4d274bcd976c" x="454.21" y="245.78" width="226.41" height="82.48" rx="3"/><rect class="ede2a455-535e-4e71-8132-52a0c69cace0" x="464.12" y="256.09" width="61.86" height="61.86" rx="3"/><polygon class="a3568579-de4e-42f6-ad84-10c4b5f6de1a" points="510.24 295.78 510.24 278.25 495.05 269.49 479.86 278.25 479.86 295.78 495.05 304.55 510.24 295.78"/><rect class="ede2a455-535e-4e71-8132-52a0c69cace0" x="536.29" y="256.09" width="134.03" height="61.86" rx="3"/><text class="ebd6aec5-42dd-4fb3-aecb-a02890e68813" transform="translate(603.58 282.08)">Se<tspan class="b2664cc3-7cee-4b13-8188-99430206860a" x="18.01" y="0">r</tspan><tspan x="23.58" y="0">vice</tspan><tspan x="-9.86" y="19.25">B.ba</tspan><tspan class="b623342b-0d8b-4437-8787-c67f06fe3f10" x="22.06" y="19.25">r</tspan><tspan x="26.17" y="19.25">.com</tspan></text><circle class="e53741d3-9d20-4c69-80d8-43c3d9857e15" cx="567.22" cy="287.02" r="20.62"/><rect class="ae9ac683-3b5f-4419-a747-b95f5d32a06b" x="559.89" y="279.56" width="14.65" height="14.65"/><line class="b7ddb461-53ac-4e9a-80c5-512a472b1b79" x1="562.6" y1="279.56" x2="562.6" y2="276.03"/><line class="b7ddb461-53ac-4e9a-80c5-512a472b1b79" x1="567.22" y1="279.56" x2="567.22" y2="276.03"/><line class="b7ddb461-53ac-4e9a-80c5-512a472b1b79" x1="571.83" y1="279.56" x2="571.83" y2="276.03"/><line class="b7ddb461-53ac-4e9a-80c5-512a472b1b79" x1="562.6" y1="298.01" x2="562.6" y2="294.48"/><line class="b7ddb461-53ac-4e9a-80c5-512a472b1b79" x1="567.22" y1="298.01" x2="567.22" y2="294.48"/><line class="b7ddb461-53ac-4e9a-80c5-512a472b1b79" x1="571.83" y1="298.01" x2="571.83" y2="294.48"/><line class="b7ddb461-53ac-4e9a-80c5-512a472b1b79" x1="559.76" y1="291.63" x2="556.23" y2="291.63"/><line class="b7ddb461-53ac-4e9a-80c5-512a472b1b79" x1="559.76" y1="287.02" x2="556.23" y2="287.02"/><line class="b7ddb461-53ac-4e9a-80c5-512a472b1b79" x1="559.76" y1="282.41" x2="556.23" y2="282.41"/><line class="b7ddb461-53ac-4e9a-80c5-512a472b1b79" x1="578.2" y1="291.63" x2="574.68" y2="291.63"/><line class="b7ddb461-53ac-4e9a-80c5-512a472b1b79" x1="578.2" y1="287.02" x2="574.68" y2="287.02"/><line class="b7ddb461-53ac-4e9a-80c5-512a472b1b79" x1="578.2" y1="282.41" x2="574.68" y2="282.41"/><rect class="ede2a455-535e-4e71-8132-52a0c69cace0" x="563.96" y="283.63" width="6.51" height="6.51" rx="2"/><rect class="eae2d469-d521-4887-88b9-4d274bcd976c" x="27.74" y="245.78" width="226.41" height="82.48" rx="3"/><rect class="ede2a455-535e-4e71-8132-52a0c69cace0" x="37.64" y="256.09" width="134.03" height="61.86" rx="3"/><path d="M109.62,277a7.06,7.06,0,0,1-2.81-1.36,2.62,2.62,0,0,1-.88-2,2.76,2.76,0,0,1,1.07-2.22,4.27,4.27,0,0,1,2.8-.89,4.73,4.73,0,0,1,2.1.46,3.4,3.4,0,0,1,1.42,1.25,3.19,3.19,0,0,1,.51,1.75h-1.51a2.07,2.07,0,0,0-.66-1.63,2.67,2.67,0,0,0-1.86-.6,2.76,2.76,0,0,0-1.73.49,1.64,1.64,0,0,0-.62,1.37,1.46,1.46,0,0,0,.59,1.18,5.82,5.82,0,0,0,2,.88,9.36,9.36,0,0,1,2.22.88,3.32,3.32,0,0,1,1.19,1.12,2.89,2.89,0,0,1,.39,1.52,2.67,2.67,0,0,1-1.08,2.22,4.64,4.64,0,0,1-2.89.83,5.36,5.36,0,0,1-2.19-.45,3.7,3.7,0,0,1-1.57-1.23,3,3,0,0,1-.55-1.78h1.51a2,2,0,0,0,.76,1.63,3.22,3.22,0,0,0,2,.6,2.93,2.93,0,0,0,1.83-.49,1.57,1.57,0,0,0,.63-1.32,1.53,1.53,0,0,0-.59-1.29A6.67,6.67,0,0,0,109.62,277Z"/><path d="M119.07,282.24a3.73,3.73,0,0,1-2.81-1.13,4.21,4.21,0,0,1-1.08-3v-.26a5.11,5.11,0,0,1,.48-2.26A3.85,3.85,0,0,1,117,274a3.42,3.42,0,0,1,1.88-.56,3.21,3.21,0,0,1,2.57,1.09,4.74,4.74,0,0,1,.91,3.12v.6h-5.74a3.06,3.06,0,0,0,.73,2,2.32,2.32,0,0,0,1.79.77,2.53,2.53,0,0,0,1.3-.32,3.16,3.16,0,0,0,.93-.83l.88.69A3.55,3.55,0,0,1,119.07,282.24Zm-.18-7.6a2,2,0,0,0-1.48.64,3.13,3.13,0,0,0-.73,1.79h4.24V277a2.8,2.8,0,0,0-.59-1.71A1.85,1.85,0,0,0,118.89,274.64Z"/><path d="M128.14,274.91a4,4,0,0,0-.71-.05,1.9,1.9,0,0,0-1.93,1.21v6h-1.45v-8.47h1.41l0,1a2.26,2.26,0,0,1,2-1.14,1.5,1.5,0,0,1,.64.11Z"/><path d="M132.41,280.12l2.1-6.51H136l-3,8.47h-1.1l-3.07-8.47h1.48Z"/><path d="M137.39,271.36a.83.83,0,0,1,.22-.59.8.8,0,0,1,.63-.25.84.84,0,0,1,.65.25.88.88,0,0,1,.22.59.86.86,0,0,1-.22.59.83.83,0,0,1-.65.23.79.79,0,0,1-.63-.23A.82.82,0,0,1,137.39,271.36ZM139,282.08h-1.45v-8.47H139Z"/><path d="M144.67,281.06a2.12,2.12,0,0,0,1.36-.47,1.69,1.69,0,0,0,.64-1.18H148a2.65,2.65,0,0,1-.5,1.39,3.32,3.32,0,0,1-1.23,1.05,3.6,3.6,0,0,1-1.64.39,3.52,3.52,0,0,1-2.75-1.15,4.64,4.64,0,0,1-1-3.16v-.25a5.15,5.15,0,0,1,.45-2.2,3.46,3.46,0,0,1,1.31-1.49,3.64,3.64,0,0,1,2-.54,3.36,3.36,0,0,1,2.36.86,3,3,0,0,1,1,2.21h-1.37a2,2,0,0,0-.62-1.35,2,2,0,0,0-1.38-.53,2.05,2.05,0,0,0-1.72.8,3.75,3.75,0,0,0-.6,2.3V278a3.69,3.69,0,0,0,.6,2.26A2.06,2.06,0,0,0,144.67,281.06Z"/><path d="M153.19,282.24a3.73,3.73,0,0,1-2.81-1.13,4.21,4.21,0,0,1-1.08-3v-.26a5.11,5.11,0,0,1,.48-2.26,3.78,3.78,0,0,1,1.35-1.55,3.42,3.42,0,0,1,1.88-.56,3.17,3.17,0,0,1,2.56,1.09,4.68,4.68,0,0,1,.92,3.12v.6h-5.74a3.06,3.06,0,0,0,.73,2,2.32,2.32,0,0,0,1.78.77,2.48,2.48,0,0,0,1.3-.32,3.08,3.08,0,0,0,.94-.83l.88.69A3.55,3.55,0,0,1,153.19,282.24Zm-.18-7.6a2,2,0,0,0-1.48.64,3.13,3.13,0,0,0-.73,1.79H155V277a2.8,2.8,0,0,0-.59-1.71A1.85,1.85,0,0,0,153,274.64Z"/><path d="M101.44,298.35H96.67l-1.08,3H94l4.36-11.4h1.31l4.37,11.4h-1.55Zm-4.32-1.23H101l-1.94-5.34Z"/><path d="M105.41,300.57a.92.92,0,0,1,.23-.63.87.87,0,0,1,.67-.25.84.84,0,0,1,.91.88.81.81,0,0,1-.24.6.89.89,0,0,1-.67.24.87.87,0,0,1-.67-.24A.85.85,0,0,1,105.41,300.57Z"/><path d="M110.32,301.33V294H109v-1.11h1.34V292a2.92,2.92,0,0,1,.72-2.11,2.75,2.75,0,0,1,2.06-.74,3.76,3.76,0,0,1,1,.13l-.08,1.17a4,4,0,0,0-.78-.07,1.39,1.39,0,0,0-1.09.41,1.64,1.64,0,0,0-.38,1.18v.9h1.8V294h-1.8v7.36Z"/><path d="M114.79,297a5,5,0,0,1,.49-2.24,3.62,3.62,0,0,1,1.36-1.53,3.71,3.71,0,0,1,2-.54,3.56,3.56,0,0,1,2.8,1.2,4.57,4.57,0,0,1,1.07,3.18v.11a5.16,5.16,0,0,1-.47,2.22,3.67,3.67,0,0,1-1.36,1.53,3.77,3.77,0,0,1-2,.54,3.54,3.54,0,0,1-2.79-1.19,4.56,4.56,0,0,1-1.07-3.17Zm1.45.18a3.59,3.59,0,0,0,.66,2.26,2.22,2.22,0,0,0,3.5,0,3.94,3.94,0,0,0,.65-2.43,3.63,3.63,0,0,0-.66-2.26,2.12,2.12,0,0,0-1.76-.86,2.08,2.08,0,0,0-1.73.85A4,4,0,0,0,116.24,297.19Z"/><path d="M123.93,297a5.11,5.11,0,0,1,.49-2.24,3.64,3.64,0,0,1,1.37-1.53,3.69,3.69,0,0,1,2-.54,3.57,3.57,0,0,1,2.8,1.2,4.62,4.62,0,0,1,1.07,3.18v.11a5,5,0,0,1-.48,2.22,3.59,3.59,0,0,1-1.35,1.53,3.8,3.8,0,0,1-2,.54,3.57,3.57,0,0,1-2.79-1.19,4.61,4.61,0,0,1-1.07-3.17Zm1.46.18a3.65,3.65,0,0,0,.65,2.26,2.23,2.23,0,0,0,3.51,0,4,4,0,0,0,.65-2.43,3.63,3.63,0,0,0-.66-2.26,2.12,2.12,0,0,0-1.76-.86,2.07,2.07,0,0,0-1.73.85A4,4,0,0,0,125.39,297.19Z"/><path d="M133.5,300.57a.91.91,0,0,1,.22-.63.87.87,0,0,1,.67-.25.83.83,0,0,1,.91.88.85.85,0,0,1-.23.6.91.91,0,0,1-.68.24.87.87,0,0,1-.67-.24A.84.84,0,0,1,133.5,300.57Z"/><path d="M141.08,300.3a2.07,2.07,0,0,0,1.36-.47,1.65,1.65,0,0,0,.64-1.17h1.37A2.61,2.61,0,0,1,144,300a3.32,3.32,0,0,1-1.23,1,3.6,3.6,0,0,1-1.64.39,3.48,3.48,0,0,1-2.75-1.15,4.6,4.6,0,0,1-1-3.16v-.24a5.12,5.12,0,0,1,.45-2.2,3.55,3.55,0,0,1,1.31-1.5,3.72,3.72,0,0,1,2-.53,3.37,3.37,0,0,1,2.36.85,3.05,3.05,0,0,1,1,2.22h-1.37a2,2,0,0,0-.62-1.35,2,2,0,0,0-1.38-.53,2,2,0,0,0-1.72.79,3.78,3.78,0,0,0-.6,2.3v.28a3.67,3.67,0,0,0,.6,2.25A2,2,0,0,0,141.08,300.3Z"/><path d="M145.7,297a5,5,0,0,1,.49-2.24,3.62,3.62,0,0,1,1.36-1.53,3.69,3.69,0,0,1,2-.54,3.57,3.57,0,0,1,2.8,1.2,4.62,4.62,0,0,1,1.07,3.18v.11a5.16,5.16,0,0,1-.47,2.22,3.67,3.67,0,0,1-1.36,1.53,3.79,3.79,0,0,1-2,.54,3.58,3.58,0,0,1-2.8-1.19,4.6,4.6,0,0,1-1.06-3.17Zm1.45.18a3.59,3.59,0,0,0,.66,2.26,2.22,2.22,0,0,0,3.5,0A4,4,0,0,0,152,297a3.63,3.63,0,0,0-.66-2.26,2.12,2.12,0,0,0-1.76-.86,2.08,2.08,0,0,0-1.73.85A4,4,0,0,0,147.15,297.19Z"/><path d="M156.59,292.86l0,.94a3.1,3.1,0,0,1,2.51-1.1,2.42,2.42,0,0,1,2.42,1.36,3.12,3.12,0,0,1,2.7-1.36c1.86,0,2.81,1,2.84,2.95v5.68h-1.45v-5.59a1.93,1.93,0,0,0-.42-1.36,1.81,1.81,0,0,0-1.39-.45,1.93,1.93,0,0,0-1.34.48,2,2,0,0,0-.62,1.3v5.62h-1.45v-5.55a1.62,1.62,0,0,0-1.81-1.85,1.93,1.93,0,0,0-2,1.21v6.19h-1.45v-8.47Z"/><circle class="e53741d3-9d20-4c69-80d8-43c3d9857e15" cx="68.57" cy="287.02" r="20.62"/><rect class="ae9ac683-3b5f-4419-a747-b95f5d32a06b" x="61.25" y="279.56" width="14.65" height="14.65"/><line class="b7ddb461-53ac-4e9a-80c5-512a472b1b79" x1="63.96" y1="279.56" x2="63.96" y2="276.03"/><line class="b7ddb461-53ac-4e9a-80c5-512a472b1b79" x1="68.57" y1="279.56" x2="68.57" y2="276.03"/><line class="b7ddb461-53ac-4e9a-80c5-512a472b1b79" x1="73.19" y1="279.56" x2="73.19" y2="276.03"/><line class="b7ddb461-53ac-4e9a-80c5-512a472b1b79" x1="63.96" y1="298.01" x2="63.96" y2="294.48"/><line class="b7ddb461-53ac-4e9a-80c5-512a472b1b79" x1="68.57" y1="298.01" x2="68.57" y2="294.48"/><line class="b7ddb461-53ac-4e9a-80c5-512a472b1b79" x1="73.19" y1="298.01" x2="73.19" y2="294.48"/><line class="b7ddb461-53ac-4e9a-80c5-512a472b1b79" x1="61.11" y1="291.63" x2="57.59" y2="291.63"/><line class="b7ddb461-53ac-4e9a-80c5-512a472b1b79" x1="61.11" y1="287.02" x2="57.59" y2="287.02"/><line class="b7ddb461-53ac-4e9a-80c5-512a472b1b79" x1="61.11" y1="282.41" x2="57.59" y2="282.41"/><line class="b7ddb461-53ac-4e9a-80c5-512a472b1b79" x1="79.56" y1="291.63" x2="76.04" y2="291.63"/><line class="b7ddb461-53ac-4e9a-80c5-512a472b1b79" x1="79.56" y1="287.02" x2="76.04" y2="287.02"/><line class="b7ddb461-53ac-4e9a-80c5-512a472b1b79" x1="79.56" y1="282.41" x2="76.04" y2="282.41"/><rect class="ede2a455-535e-4e71-8132-52a0c69cace0" x="65.32" y="283.63" width="6.51" height="6.51" rx="2"/><rect class="ede2a455-535e-4e71-8132-52a0c69cace0" x="181.98" y="256.09" width="61.86" height="61.86" rx="3"/><polygon class="a3568579-de4e-42f6-ad84-10c4b5f6de1a" points="228.1 295.78 228.1 278.25 212.91 269.49 197.72 278.25 197.72 295.78 212.91 304.55 228.1 295.78"/><line class="ad2cac74-ee79-47b8-ad2c-03403556a542" x1="251.02" y1="287.18" x2="456.94" y2="287.18"/><polygon class="a8d1c3a0-1724-4f8c-accd-b0fff30229ce" points="252.48 292.17 243.84 287.18 252.48 282.19 252.48 292.17"/><polygon class="a8d1c3a0-1724-4f8c-accd-b0fff30229ce" points="455.48 292.17 464.12 287.18 455.48 282.19 455.48 292.17"/><path class="a8d1c3a0-1724-4f8c-accd-b0fff30229ce" d="M362.76,257a2.7,2.7,0,0,1,2.7,2.7v10.83a2.7,2.7,0,0,1-2.7,2.71H342.9a2.7,2.7,0,0,1-2.7-2.71V259.73a2.7,2.7,0,0,1,2.7-2.7h1.36V253a8.34,8.34,0,0,1,1.15-4.29,8.62,8.62,0,0,1,3.13-3.13,8.51,8.51,0,0,1,8.58,0,8.62,8.62,0,0,1,3.13,3.13A8.34,8.34,0,0,1,361.4,253V257Zm-5.87,0V253a4.06,4.06,0,1,0-8.12,0V257Z"/><rect class="fbeec879-6939-4099-8622-cb7876b37fc9" x="142.32" y="71.31" width="141.19" height="105.04" rx="3"/><rect class="ede2a455-535e-4e71-8132-52a0c69cace0" x="152.4" y="121.06" width="121.02" height="48.88" rx="3"/><text class="ebd6aec5-42dd-4fb3-aecb-a02890e68813" transform="translate(164.92 140.56)"><tspan class="a5e2ab94-3e2d-4861-9f55-8372356ce346">T</tspan><tspan x="9.05" y="0">rust Domain</tspan><tspan x="18.15" y="19.25">foo.com</tspan></text><path class="a71a9a94-5823-436f-9315-5eecf6be5eae" d="M222.54,92.18A5.77,5.77,0,0,1,228.32,98v1.93a1.85,1.85,0,0,1-.57,1.35,1.88,1.88,0,0,1-1.36.57h-27a1.95,1.95,0,0,1-1.92-1.92V98a5.75,5.75,0,0,1,5.77-5.78h4a1.74,1.74,0,0,0,1.75-1.74v-.06A13.21,13.21,0,0,0,207.68,85a5.42,5.42,0,0,1-.55-2.41,5.66,5.66,0,0,1,.94-3.16,5.83,5.83,0,0,1,2.52-2.13,5.47,5.47,0,0,1,3.34-.39,5.7,5.7,0,0,1,3,1.62,5.87,5.87,0,0,1,1.66,3,5.63,5.63,0,0,1-.6,3.61,10.52,10.52,0,0,0-1.27,4.7v.6a1.68,1.68,0,0,0,.51,1.23,1.71,1.71,0,0,0,1.24.51Zm-23.11,15.41v-3.85h27v3.85Z"/><text class="fbadc43b-d6dd-4c7c-846b-eca633ff0704" transform="translate(142.32 67.87)">Ce<tspan class="a820011f-c846-4bec-9938-e1ecd530578b" x="13.52" y="0">r</tspan><tspan x="17.68" y="0">tificate authority</tspan></text><line class="bed4e792-7ad6-4721-8311-66e8dc5829e5" x1="212.91" y1="176.34" x2="212.91" y2="248.91"/><polygon class="e301f1bb-b831-4931-99ba-190910a6a9cf" points="207.93 247.45 212.91 256.09 217.9 247.45 207.93 247.45"/><line class="bed4e792-7ad6-4721-8311-66e8dc5829e5" x1="495.05" y1="176.34" x2="495.05" y2="248.91"/><polygon class="e301f1bb-b831-4931-99ba-190910a6a9cf" points="490.06 247.45 495.05 256.09 500.03 247.45 490.06 247.45"/></g></svg>