<svg xmlns="http://www.w3.org/2000/svg" viewBox="0 0 779.7 530.67"><defs><style>.b460b27b-78e1-4132-9133-9003f7097d6d{font-size:13.97px;}.b460b27b-78e1-4132-9133-9003f7097d6d,.b5b59d7c-8539-46cf-8edd-fb3827f4e808{font-family:Roboto-Regular, Roboto;}.a1552773-8cb6-4527-9b79-d2e7322d2b7d,.aeb13b65-ea62-4042-b668-b9cbc811205b,.b765444e-e9e1-435c-b8bb-1cf0f09d6618,.e25ab5fc-fa38-4a88-b492-ca4afd0c7c1a,.f6e2189b-a1eb-437c-8060-2c1b4d669b88,.f91c88db-91c8-4974-9ca5-30bd61eb898f{fill:none;}.b765444e-e9e1-435c-b8bb-1cf0f09d6618,.f6e2189b-a1eb-437c-8060-2c1b4d669b88{stroke:#486baf;}.b765444e-e9e1-435c-b8bb-1cf0f09d6618,.e25ab5fc-fa38-4a88-b492-ca4afd0c7c1a,.f6e2189b-a1eb-437c-8060-2c1b4d669b88{stroke-linecap:round;}.aeb13b65-ea62-4042-b668-b9cbc811205b,.b765444e-e9e1-435c-b8bb-1cf0f09d6618,.f6e2189b-a1eb-437c-8060-2c1b4d669b88,.f91c88db-91c8-4974-9ca5-30bd61eb898f{stroke-linejoin:round;}.b765444e-e9e1-435c-b8bb-1cf0f09d6618{stroke-dasharray:5.99 11.98;}.e037baf1-9d31-4fb3-9df1-e61ba6beef4f{letter-spacing:-0.08em;}.f6e2189b-a1eb-437c-8060-2c1b4d669b88{stroke-dasharray:5.98 11.95;}.bdee51dc-6f37-41eb-97e9-45e276d12ea1{fill:#e6e6e6;}.fd5f1399-4702-46b0-a35f-3ec8855aa718{fill:#fff;}.aeb13b65-ea62-4042-b668-b9cbc811205b{stroke:#e905ee;stroke-width:3px;}.b5b59d7c-8539-46cf-8edd-fb3827f4e808{font-size:16.3px;}.f24af92f-5b28-43c5-838f-0f49d4efc12e{letter-spacing:0.01em;}.f655d98b-7a0c-4364-b53c-e92448e9af25{fill:#757575;}.e25ab5fc-fa38-4a88-b492-ca4afd0c7c1a,.f91c88db-91c8-4974-9ca5-30bd61eb898f{stroke:#fff;stroke-width:2px;}.a1552773-8cb6-4527-9b79-d2e7322d2b7d,.e25ab5fc-fa38-4a88-b492-ca4afd0c7c1a{stroke-miterlimit:10;}.ea494f34-cf5f-408f-9f08-74e24a46a680{fill:#466bb0;}.b3f6c959-4088-4b67-bffc-a93fe9081875{letter-spacing:-0.03em;}.a51c1b3d-29fa-4c90-9414-71fa2c69a1f7{letter-spacing:-0.08em;}.a1552773-8cb6-4527-9b79-d2e7322d2b7d{stroke:#090;stroke-width:4px;}.eba70802-9030-4989-b847-4b76dc106ce9{fill:#090;}.f5d6a928-4992-490c-b9c1-8213c641854b{opacity:0.2;}.bbe82c81-6d11-4c31-be8c-6d6cac6702e4{fill:#ff1d25;}</style></defs><title>multi-mesh</title><g id="fa862d5f-58cd-4d5f-bc76-7fed1157c45b" data-name="multi-mesh"><text class="b460b27b-78e1-4132-9133-9003f7097d6d" transform="translate(0.42 11.95) scale(0.94 1)">Istio Mesh: foo.com</text><rect class="b765444e-e9e1-435c-b8bb-1cf0f09d6618" x="0.5" y="15.45" width="338.19" height="514.71" rx="10"/><text class="b460b27b-78e1-4132-9133-9003f7097d6d" transform="translate(441.16 11.95)">Istio Mesh: ba<tspan class="e037baf1-9d31-4fb3-9df1-e61ba6beef4f" x="87.14" y="0">r</tspan><tspan x="90.72" y="0">.com</tspan></text><path class="f6e2189b-a1eb-437c-8060-2c1b4d669b88" d="M767.56,530.12l-314.76,0a11.68,11.68,0,0,1-11.64-11.64V27.08A11.68,11.68,0,0,1,452.8,15.44l314.76,0A11.67,11.67,0,0,1,779.2,27V518.48A11.67,11.67,0,0,1,767.56,530.12Z"/><rect class="bdee51dc-6f37-41eb-97e9-45e276d12ea1" x="507.68" y="55.71" width="230.06" height="83.81" rx="3"/><rect class="fd5f1399-4702-46b0-a35f-3ec8855aa718" x="517.74" y="66.18" width="62.86" height="62.86" rx="3"/><polygon class="aeb13b65-ea62-4042-b668-b9cbc811205b" points="564.61 106.52 564.61 88.71 549.17 79.8 533.74 88.71 533.74 106.52 549.17 115.42 564.61 106.52"/><rect class="fd5f1399-4702-46b0-a35f-3ec8855aa718" x="591.08" y="66.18" width="136.19" height="62.86" rx="3"/><text class="b5b59d7c-8539-46cf-8edd-fb3827f4e808" transform="translate(652.14 103.25)">Se<tspan class="f24af92f-5b28-43c5-838f-0f49d4efc12e" x="18.3" y="0">r</tspan><tspan x="23.96" y="0">vice C</tspan></text><circle class="f655d98b-7a0c-4364-b53c-e92448e9af25" cx="622.5" cy="97.61" r="20.95"/><rect class="f91c88db-91c8-4974-9ca5-30bd61eb898f" x="615.06" y="90.03" width="14.89" height="14.89"/><line class="e25ab5fc-fa38-4a88-b492-ca4afd0c7c1a" x1="617.82" y1="90.03" x2="617.82" y2="86.45"/><line class="e25ab5fc-fa38-4a88-b492-ca4afd0c7c1a" x1="622.5" y1="90.03" x2="622.5" y2="86.45"/><line class="e25ab5fc-fa38-4a88-b492-ca4afd0c7c1a" x1="627.19" y1="90.03" x2="627.19" y2="86.45"/><line class="e25ab5fc-fa38-4a88-b492-ca4afd0c7c1a" x1="617.82" y1="108.78" x2="617.82" y2="105.19"/><line class="e25ab5fc-fa38-4a88-b492-ca4afd0c7c1a" x1="622.5" y1="108.78" x2="622.5" y2="105.19"/><line class="e25ab5fc-fa38-4a88-b492-ca4afd0c7c1a" x1="627.19" y1="108.78" x2="627.19" y2="105.19"/><line class="e25ab5fc-fa38-4a88-b492-ca4afd0c7c1a" x1="614.92" y1="102.3" x2="611.34" y2="102.3"/><line class="e25ab5fc-fa38-4a88-b492-ca4afd0c7c1a" x1="614.92" y1="97.61" x2="611.34" y2="97.61"/><line class="e25ab5fc-fa38-4a88-b492-ca4afd0c7c1a" x1="614.92" y1="92.93" x2="611.34" y2="92.93"/><line class="e25ab5fc-fa38-4a88-b492-ca4afd0c7c1a" x1="633.67" y1="102.3" x2="630.08" y2="102.3"/><line class="e25ab5fc-fa38-4a88-b492-ca4afd0c7c1a" x1="633.67" y1="97.61" x2="630.08" y2="97.61"/><line class="e25ab5fc-fa38-4a88-b492-ca4afd0c7c1a" x1="633.67" y1="92.93" x2="630.08" y2="92.93"/><rect class="fd5f1399-4702-46b0-a35f-3ec8855aa718" x="619.2" y="94.17" width="6.62" height="6.62" rx="2"/><rect class="bdee51dc-6f37-41eb-97e9-45e276d12ea1" x="45.54" y="55.71" width="230.06" height="83.81" rx="3"/><rect class="fd5f1399-4702-46b0-a35f-3ec8855aa718" x="55.6" y="66.18" width="136.19" height="62.86" rx="3"/><text class="b5b59d7c-8539-46cf-8edd-fb3827f4e808" transform="translate(116.65 103.25)">Se<tspan class="f24af92f-5b28-43c5-838f-0f49d4efc12e" x="18.3" y="0">r</tspan><tspan x="23.96" y="0">vice A</tspan></text><circle class="f655d98b-7a0c-4364-b53c-e92448e9af25" cx="87.03" cy="97.61" r="20.95"/><rect class="f91c88db-91c8-4974-9ca5-30bd61eb898f" x="79.59" y="90.03" width="14.89" height="14.89"/><line class="e25ab5fc-fa38-4a88-b492-ca4afd0c7c1a" x1="82.35" y1="90.03" x2="82.35" y2="86.45"/><line class="e25ab5fc-fa38-4a88-b492-ca4afd0c7c1a" x1="87.03" y1="90.03" x2="87.03" y2="86.45"/><line class="e25ab5fc-fa38-4a88-b492-ca4afd0c7c1a" x1="91.72" y1="90.03" x2="91.72" y2="86.45"/><line class="e25ab5fc-fa38-4a88-b492-ca4afd0c7c1a" x1="82.35" y1="108.78" x2="82.35" y2="105.19"/><line class="e25ab5fc-fa38-4a88-b492-ca4afd0c7c1a" x1="87.03" y1="108.78" x2="87.03" y2="105.19"/><line class="e25ab5fc-fa38-4a88-b492-ca4afd0c7c1a" x1="91.72" y1="108.78" x2="91.72" y2="105.19"/><line class="e25ab5fc-fa38-4a88-b492-ca4afd0c7c1a" x1="79.45" y1="102.3" x2="75.87" y2="102.3"/><line class="e25ab5fc-fa38-4a88-b492-ca4afd0c7c1a" x1="79.45" y1="97.61" x2="75.87" y2="97.61"/><line class="e25ab5fc-fa38-4a88-b492-ca4afd0c7c1a" x1="79.45" y1="92.93" x2="75.87" y2="92.93"/><line class="e25ab5fc-fa38-4a88-b492-ca4afd0c7c1a" x1="98.2" y1="102.3" x2="94.61" y2="102.3"/><line class="e25ab5fc-fa38-4a88-b492-ca4afd0c7c1a" x1="98.2" y1="97.61" x2="94.61" y2="97.61"/><line class="e25ab5fc-fa38-4a88-b492-ca4afd0c7c1a" x1="98.2" y1="92.93" x2="94.61" y2="92.93"/><rect class="fd5f1399-4702-46b0-a35f-3ec8855aa718" x="83.72" y="94.17" width="6.62" height="6.62" rx="2"/><rect class="fd5f1399-4702-46b0-a35f-3ec8855aa718" x="202.27" y="66.18" width="62.86" height="62.86" rx="3"/><polygon class="aeb13b65-ea62-4042-b668-b9cbc811205b" points="249.13 106.52 249.13 88.71 233.69 79.8 218.26 88.71 218.26 106.52 233.69 115.42 249.13 106.52"/><rect class="bdee51dc-6f37-41eb-97e9-45e276d12ea1" x="507.68" y="434.77" width="230.06" height="83.81" rx="3"/><rect class="fd5f1399-4702-46b0-a35f-3ec8855aa718" x="517.74" y="445.24" width="62.86" height="62.86" rx="3"/><polygon class="aeb13b65-ea62-4042-b668-b9cbc811205b" points="564.61 485.58 564.61 467.77 549.17 458.86 533.74 467.77 533.74 485.58 549.17 494.48 564.61 485.58"/><rect class="fd5f1399-4702-46b0-a35f-3ec8855aa718" x="591.08" y="445.24" width="136.19" height="62.86" rx="3"/><text class="b5b59d7c-8539-46cf-8edd-fb3827f4e808" transform="translate(652.1 482.3)">Se<tspan class="f24af92f-5b28-43c5-838f-0f49d4efc12e" x="18.3" y="0">r</tspan><tspan x="23.96" y="0">vice D</tspan></text><circle class="f655d98b-7a0c-4364-b53c-e92448e9af25" cx="622.5" cy="476.67" r="20.95"/><rect class="f91c88db-91c8-4974-9ca5-30bd61eb898f" x="615.06" y="469.09" width="14.89" height="14.89"/><line class="e25ab5fc-fa38-4a88-b492-ca4afd0c7c1a" x1="617.82" y1="469.09" x2="617.82" y2="465.51"/><line class="e25ab5fc-fa38-4a88-b492-ca4afd0c7c1a" x1="622.5" y1="469.09" x2="622.5" y2="465.51"/><line class="e25ab5fc-fa38-4a88-b492-ca4afd0c7c1a" x1="627.19" y1="469.09" x2="627.19" y2="465.51"/><line class="e25ab5fc-fa38-4a88-b492-ca4afd0c7c1a" x1="617.82" y1="487.84" x2="617.82" y2="484.25"/><line class="e25ab5fc-fa38-4a88-b492-ca4afd0c7c1a" x1="622.5" y1="487.84" x2="622.5" y2="484.25"/><line class="e25ab5fc-fa38-4a88-b492-ca4afd0c7c1a" x1="627.19" y1="487.84" x2="627.19" y2="484.25"/><line class="e25ab5fc-fa38-4a88-b492-ca4afd0c7c1a" x1="614.92" y1="481.36" x2="611.34" y2="481.36"/><line class="e25ab5fc-fa38-4a88-b492-ca4afd0c7c1a" x1="614.92" y1="476.67" x2="611.34" y2="476.67"/><line class="e25ab5fc-fa38-4a88-b492-ca4afd0c7c1a" x1="614.92" y1="471.98" x2="611.34" y2="471.98"/><line class="e25ab5fc-fa38-4a88-b492-ca4afd0c7c1a" x1="633.67" y1="481.36" x2="630.08" y2="481.36"/><line class="e25ab5fc-fa38-4a88-b492-ca4afd0c7c1a" x1="633.67" y1="476.67" x2="630.08" y2="476.67"/><line class="e25ab5fc-fa38-4a88-b492-ca4afd0c7c1a" x1="633.67" y1="471.98" x2="630.08" y2="471.98"/><rect class="fd5f1399-4702-46b0-a35f-3ec8855aa718" x="619.2" y="473.23" width="6.62" height="6.62" rx="2"/><rect class="bdee51dc-6f37-41eb-97e9-45e276d12ea1" x="45.54" y="434.77" width="230.06" height="83.81" rx="3"/><rect class="fd5f1399-4702-46b0-a35f-3ec8855aa718" x="55.6" y="445.24" width="136.19" height="62.86" rx="3"/><text class="b5b59d7c-8539-46cf-8edd-fb3827f4e808" transform="translate(116.9 482.3)">Se<tspan class="f24af92f-5b28-43c5-838f-0f49d4efc12e" x="18.3" y="0">r</tspan><tspan x="23.96" y="0">vice B</tspan></text><circle class="f655d98b-7a0c-4364-b53c-e92448e9af25" cx="87.03" cy="476.67" r="20.95"/><rect class="f91c88db-91c8-4974-9ca5-30bd61eb898f" x="79.59" y="469.09" width="14.89" height="14.89"/><line class="e25ab5fc-fa38-4a88-b492-ca4afd0c7c1a" x1="82.35" y1="469.09" x2="82.35" y2="465.51"/><line class="e25ab5fc-fa38-4a88-b492-ca4afd0c7c1a" x1="87.03" y1="469.09" x2="87.03" y2="465.51"/><line class="e25ab5fc-fa38-4a88-b492-ca4afd0c7c1a" x1="91.72" y1="469.09" x2="91.72" y2="465.51"/><line class="e25ab5fc-fa38-4a88-b492-ca4afd0c7c1a" x1="82.35" y1="487.84" x2="82.35" y2="484.25"/><line class="e25ab5fc-fa38-4a88-b492-ca4afd0c7c1a" x1="87.03" y1="487.84" x2="87.03" y2="484.25"/><line class="e25ab5fc-fa38-4a88-b492-ca4afd0c7c1a" x1="91.72" y1="487.84" x2="91.72" y2="484.25"/><line class="e25ab5fc-fa38-4a88-b492-ca4afd0c7c1a" x1="79.45" y1="481.36" x2="75.87" y2="481.36"/><line class="e25ab5fc-fa38-4a88-b492-ca4afd0c7c1a" x1="79.45" y1="476.67" x2="75.87" y2="476.67"/><line class="e25ab5fc-fa38-4a88-b492-ca4afd0c7c1a" x1="79.45" y1="471.98" x2="75.87" y2="471.98"/><line class="e25ab5fc-fa38-4a88-b492-ca4afd0c7c1a" x1="98.2" y1="481.36" x2="94.61" y2="481.36"/><line class="e25ab5fc-fa38-4a88-b492-ca4afd0c7c1a" x1="98.2" y1="476.67" x2="94.61" y2="476.67"/><line class="e25ab5fc-fa38-4a88-b492-ca4afd0c7c1a" x1="98.2" y1="471.98" x2="94.61" y2="471.98"/><rect class="fd5f1399-4702-46b0-a35f-3ec8855aa718" x="83.72" y="473.23" width="6.62" height="6.62" rx="2"/><rect class="fd5f1399-4702-46b0-a35f-3ec8855aa718" x="202.27" y="445.24" width="62.86" height="62.86" rx="3"/><polygon class="aeb13b65-ea62-4042-b668-b9cbc811205b" points="249.13 485.58 249.13 467.77 233.69 458.86 218.26 467.77 218.26 485.58 233.69 494.48 249.13 485.58"/><path class="ea494f34-cf5f-408f-9f08-74e24a46a680" d="M177.39,285.25l1.84,1.8a1,1,0,0,1-.44,1.6l-2.52.64.72,2.48a.88.88,0,0,1-.24,1,.89.89,0,0,1-1,.24l-2.48-.71-.63,2.51a.94.94,0,0,1-1.6.44l-1.8-1.84-1.8,1.84a.9.9,0,0,1-.94.26.84.84,0,0,1-.66-.7l-.64-2.51-2.48.71a1,1,0,0,1-1.19-1.19l.72-2.48-2.52-.64a1,1,0,0,1-.44-1.6l1.84-1.8-1.84-1.8a1,1,0,0,1,.44-1.6l2.52-.63-.72-2.48a.89.89,0,0,1,.24-1,.88.88,0,0,1,.95-.24l2.48.72.64-2.52a.94.94,0,0,1,1.6-.44l1.8,1.88,1.8-1.88a.87.87,0,0,1,.94-.24.88.88,0,0,1,.66.68l.63,2.52,2.48-.72a1,1,0,0,1,1.2,1.2l-.72,2.48,2.52.63a.88.88,0,0,1,.68.66.87.87,0,0,1-.24.94Z"/><path class="ea494f34-cf5f-408f-9f08-74e24a46a680" d="M160.34,268.25l1.84,1.8a1,1,0,0,1-.44,1.6l-2.51.64.72,2.48a1,1,0,0,1-1.2,1.2l-2.48-.72-.64,2.51a.94.94,0,0,1-1.6.44l-1.8-1.84-1.8,1.84a.9.9,0,0,1-.94.26.84.84,0,0,1-.65-.7l-.64-2.51-2.48.72a.94.94,0,0,1-1-.24.9.9,0,0,1-.24-1l.72-2.48-2.52-.64A.88.88,0,0,1,142,271a.92.92,0,0,1,.24-.94l1.84-1.8-1.84-1.8a.91.91,0,0,1-.24-.94.88.88,0,0,1,.68-.65l2.52-.64-.72-2.48a1,1,0,0,1,1.2-1.2l2.48.72.64-2.52a.85.85,0,0,1,.67-.7.88.88,0,0,1,.92.26l1.8,1.88,1.8-1.88a.92.92,0,0,1,.94-.24.88.88,0,0,1,.66.68l.64,2.52,2.48-.72a.9.9,0,0,1,1,.24.94.94,0,0,1,.24,1l-.72,2.48,2.51.64a.95.95,0,0,1,.44,1.59Z"/><path class="ea494f34-cf5f-408f-9f08-74e24a46a680" d="M181.57,263.11l1.83,1.8a1,1,0,0,1-.44,1.6l-2.51.64.72,2.48a.94.94,0,0,1-.24,1,.92.92,0,0,1-1,.23l-2.48-.71-.64,2.51a.94.94,0,0,1-1.6.44l-1.8-1.84-1.79,1.84a.9.9,0,0,1-.94.26.84.84,0,0,1-.66-.7l-.64-2.51-2.48.71a.92.92,0,0,1-1-.23.9.9,0,0,1-.24-1l.72-2.48-2.52-.64a.9.9,0,0,1-.68-.66.92.92,0,0,1,.24-.94l1.84-1.8-1.84-1.8a.91.91,0,0,1-.24-.94.87.87,0,0,1,.68-.65l2.52-.64-.72-2.48a1,1,0,0,1,1.2-1.2l2.48.72.64-2.52a.85.85,0,0,1,.68-.7.87.87,0,0,1,.92.26l1.79,1.88,1.8-1.88a1,1,0,0,1,1.6.44l.64,2.52,2.48-.72a.9.9,0,0,1,1,.24.94.94,0,0,1,.24,1l-.72,2.48,2.51.64a.84.84,0,0,1,.68.65.87.87,0,0,1-.24.94Z"/><path class="ea494f34-cf5f-408f-9f08-74e24a46a680" d="M155.8,289.91l1.84,1.8a.91.91,0,0,1,.24.94.9.9,0,0,1-.68.66l-2.52.64.72,2.47a.89.89,0,0,1-.24,1,.9.9,0,0,1-1,.24l-2.48-.72-.64,2.52a.85.85,0,0,1-.68.7.87.87,0,0,1-.92-.26L147.69,298l-1.8,1.84a.92.92,0,0,1-.94.26.85.85,0,0,1-.66-.7l-.64-2.52-2.48.72a.9.9,0,0,1-1-.24.93.93,0,0,1-.24-1l.72-2.47-2.52-.64a1,1,0,0,1-.43-1.6l1.83-1.8-1.83-1.8a1,1,0,0,1,.43-1.6l2.52-.64L140,283.4a.93.93,0,0,1,.24-1,.9.9,0,0,1,1-.24l2.48.72.64-2.52a.94.94,0,0,1,1.6-.44l1.8,1.88,1.79-1.88a1,1,0,0,1,1.6.44l.64,2.52,2.48-.72a.9.9,0,0,1,1,.24.89.89,0,0,1,.24,1l-.72,2.47,2.52.64a.9.9,0,0,1,.68.66.91.91,0,0,1-.24.94Z"/><text class="b5b59d7c-8539-46cf-8edd-fb3827f4e808" transform="translate(113.42 317)"><tspan class="b3f6c959-4088-4b67-bffc-a93fe9081875">T</tspan><tspan x="9.2" y="0">rust bundle:</tspan><tspan x="17.86" y="19.56">ba</tspan><tspan class="a51c1b3d-29fa-4c90-9414-71fa2c69a1f7" x="35.87" y="19.56">r</tspan><tspan x="40.04" y="19.56">.com</tspan></text><path class="ea494f34-cf5f-408f-9f08-74e24a46a680" d="M639.53,285.25l1.84,1.8a1,1,0,0,1-.44,1.6l-2.52.64.72,2.48a.88.88,0,0,1-.24,1,.89.89,0,0,1-1,.24l-2.48-.71-.63,2.51a.94.94,0,0,1-1.6.44l-1.8-1.84-1.8,1.84a.9.9,0,0,1-.94.26.84.84,0,0,1-.66-.7l-.64-2.51-2.48.71a1,1,0,0,1-1.19-1.19l.71-2.48-2.51-.64a1,1,0,0,1-.44-1.6l1.84-1.8-1.84-1.8a1,1,0,0,1,.44-1.6l2.51-.63-.71-2.48a.89.89,0,0,1,.24-1,.88.88,0,0,1,.95-.24l2.48.72.64-2.52a.94.94,0,0,1,1.6-.44l1.8,1.88,1.8-1.88a.87.87,0,0,1,.94-.24.88.88,0,0,1,.66.68l.63,2.52,2.48-.72a1,1,0,0,1,1.2,1.2l-.72,2.48,2.52.63a.88.88,0,0,1,.68.66.87.87,0,0,1-.24.94Z"/><path class="ea494f34-cf5f-408f-9f08-74e24a46a680" d="M622.48,268.25l1.84,1.8a1,1,0,0,1-.44,1.6l-2.51.64.71,2.48a.92.92,0,0,1-.23,1,.94.94,0,0,1-1,.24l-2.48-.72-.64,2.51a.94.94,0,0,1-1.6.44l-1.8-1.83-1.8,1.83a.9.9,0,0,1-.94.26.83.83,0,0,1-.65-.7l-.64-2.51-2.48.72a.94.94,0,0,1-1-.24.9.9,0,0,1-.24-1l.72-2.48-2.52-.64a1,1,0,0,1-.44-1.6l1.84-1.8-1.84-1.8a.87.87,0,0,1-.24-.94.88.88,0,0,1,.68-.65l2.52-.64-.72-2.48a1,1,0,0,1,1.2-1.2l2.48.72.64-2.52a.86.86,0,0,1,.67-.7.88.88,0,0,1,.92.26l1.8,1.88,1.8-1.88a.92.92,0,0,1,.94-.24.88.88,0,0,1,.66.68l.64,2.52,2.48-.72a.9.9,0,0,1,1,.24.92.92,0,0,1,.23,1l-.71,2.48,2.51.64a.95.95,0,0,1,.44,1.59Z"/><path class="ea494f34-cf5f-408f-9f08-74e24a46a680" d="M643.71,263.11l1.83,1.8a1,1,0,0,1-.44,1.6l-2.51.64.72,2.48a.94.94,0,0,1-.24,1,.92.92,0,0,1-1,.23l-2.48-.71-.64,2.51a.94.94,0,0,1-1.6.44l-1.8-1.84-1.8,1.84a.88.88,0,0,1-.93.26.84.84,0,0,1-.66-.7l-.64-2.51-2.48.71a.92.92,0,0,1-1-.23.9.9,0,0,1-.24-1l.72-2.48-2.52-.64a.9.9,0,0,1-.68-.66.92.92,0,0,1,.24-.94l1.84-1.8-1.84-1.8a.91.91,0,0,1-.24-.94.88.88,0,0,1,.68-.65l2.52-.64-.72-2.48a1,1,0,0,1,1.2-1.2l2.48.72.64-2.52a.94.94,0,0,1,1.59-.44l1.8,1.88,1.8-1.88a1,1,0,0,1,1.6.44l.64,2.52,2.48-.72a.9.9,0,0,1,1,.24.94.94,0,0,1,.24,1l-.72,2.48,2.51.64a.86.86,0,0,1,.68.65.87.87,0,0,1-.24.94Z"/><path class="ea494f34-cf5f-408f-9f08-74e24a46a680" d="M617.94,289.91l1.84,1.8a.92.92,0,0,1,.24.94.9.9,0,0,1-.68.66l-2.52.64.72,2.47a.89.89,0,0,1-.24,1,.9.9,0,0,1-1,.24l-2.48-.72-.64,2.52a.85.85,0,0,1-.68.7.87.87,0,0,1-.92-.26L609.83,298l-1.8,1.84a.92.92,0,0,1-.94.26.85.85,0,0,1-.66-.7l-.64-2.52-2.48.72a.9.9,0,0,1-1-.24.93.93,0,0,1-.24-1l.72-2.47-2.52-.64a.87.87,0,0,1-.67-.66.89.89,0,0,1,.23-.94l1.84-1.8-1.84-1.8a.89.89,0,0,1-.23-.94.87.87,0,0,1,.67-.66l2.52-.64-.72-2.47a.93.93,0,0,1,.24-1,.9.9,0,0,1,1-.24l2.48.72.64-2.52A.94.94,0,0,1,608,280l1.8,1.88,1.79-1.88a1,1,0,0,1,1.6.44l.64,2.52,2.48-.72a.9.9,0,0,1,1,.24.89.89,0,0,1,.24,1l-.72,2.47,2.52.64a.9.9,0,0,1,.68.66.91.91,0,0,1-.24.94Z"/><text class="b5b59d7c-8539-46cf-8edd-fb3827f4e808" transform="translate(575.56 317)"><tspan class="b3f6c959-4088-4b67-bffc-a93fe9081875">T</tspan><tspan x="9.2" y="0">rust bundle:</tspan><tspan x="16.83" y="19.56">foo.com</tspan></text><line class="a1552773-8cb6-4527-9b79-d2e7322d2b7d" x1="272.3" y1="97.61" x2="400.21" y2="97.61"/><polygon class="eba70802-9030-4989-b847-4b76dc106ce9" points="273.76 102.6 265.12 97.61 273.76 92.63 273.76 102.6"/><line class="a1552773-8cb6-4527-9b79-d2e7322d2b7d" x1="510.57" y1="97.61" x2="400.21" y2="97.61"/><polygon class="eba70802-9030-4989-b847-4b76dc106ce9" points="509.11 92.63 517.74 97.61 509.11 102.6 509.11 92.63"/><line class="a1552773-8cb6-4527-9b79-d2e7322d2b7d" x1="233.69" y1="136.22" x2="233.69" y2="438.07"/><polygon class="eba70802-9030-4989-b847-4b76dc106ce9" points="228.71 137.68 233.69 129.04 238.68 137.68 228.71 137.68"/><polygon class="eba70802-9030-4989-b847-4b76dc106ce9" points="228.71 436.61 233.69 445.24 238.68 436.61 228.71 436.61"/><line class="a1552773-8cb6-4527-9b79-d2e7322d2b7d" x1="549.17" y1="136.22" x2="549.17" y2="438.07"/><polygon class="eba70802-9030-4989-b847-4b76dc106ce9" points="544.19 137.68 549.17 129.04 554.16 137.68 544.19 137.68"/><polygon class="eba70802-9030-4989-b847-4b76dc106ce9" points="544.19 436.61 549.17 445.24 554.16 436.61 544.19 436.61"/><g class="f5d6a928-4992-490c-b9c1-8213c641854b"><line class="a1552773-8cb6-4527-9b79-d2e7322d2b7d" x1="272.3" y1="478.12" x2="510.57" y2="478.12"/><polygon class="eba70802-9030-4989-b847-4b76dc106ce9" points="273.76 483.1 265.12 478.12 273.76 473.13 273.76 483.1"/><polygon class="eba70802-9030-4989-b847-4b76dc106ce9" points="509.11 483.1 517.74 478.12 509.11 473.13 509.11 483.1"/></g><path class="bbe82c81-6d11-4c31-be8c-6d6cac6702e4" d="M391.43,462.13a15.52,15.52,0,0,1,8,2.16,16.13,16.13,0,0,1,5.83,5.83,15.88,15.88,0,0,1,0,16,16.16,16.16,0,0,1-5.83,5.84,15.88,15.88,0,0,1-16,0,16.19,16.19,0,0,1-5.84-5.84,15.88,15.88,0,0,1,0-16,16.16,16.16,0,0,1,5.84-5.83A15.48,15.48,0,0,1,391.43,462.13Zm-8.38,24.37a11.5,11.5,0,0,0,4.74,2.9,12,12,0,0,0,5.45.42,11.85,11.85,0,0,0,5-2L381.7,471.28a12.17,12.17,0,0,0-1.55,10.48A11.5,11.5,0,0,0,383.05,486.5Zm16.77-16.76a11.52,11.52,0,0,0-4.74-2.91,12.17,12.17,0,0,0-10.48,1.55L401.17,485a11.93,11.93,0,0,0,2-5,12.14,12.14,0,0,0-.42-5.45A11.51,11.51,0,0,0,399.82,469.74Z"/></g></svg>