<svg xmlns="http://www.w3.org/2000/svg" viewBox="0 0 706.74 373.13"><defs><style>.a3105832-e5c8-41c6-8e3b-f314a75be669,.a61be448-db5f-43e2-b535-9dfe28c13cb5,.ac72fa01-6aa8-4428-bce1-e0a9aae222dd,.b36d3863-9869-46bf-ac6f-c27c8c9b919b,.b6fb2ee4-db56-4f28-b59d-8ff0159f4363,.bc10c082-45d0-46e1-8235-d4df890d1b34{fill:none;}.b36d3863-9869-46bf-ac6f-c27c8c9b919b{stroke:#466bb0;stroke-dasharray:10.06 10.06;}.a3105832-e5c8-41c6-8e3b-f314a75be669,.b36d3863-9869-46bf-ac6f-c27c8c9b919b,.b6fb2ee4-db56-4f28-b59d-8ff0159f4363,.bc10c082-45d0-46e1-8235-d4df890d1b34{stroke-linejoin:round;}.f44f5e7a-bcef-4a87-a45c-cee662b3b042{font-size:12px;}.a108d96d-7c27-460a-9caf-30e83e640176,.f44f5e7a-bcef-4a87-a45c-cee662b3b042,.f9a28034-1e84-4a60-978b-9ab59f11cc8c{font-family:Roboto-Regular, Roboto;}.b98adfa5-b60d-4005-9bc4-2b68079f64a4{letter-spacing:-0.08em;}.bb543620-b0df-4e15-a391-4137dcb25e6b{fill:#466bb0;}.a108d96d-7c27-460a-9caf-30e83e640176{font-size:14px;}.e3882293-29f3-4242-8c42-29802064a51f{letter-spacing:-0.03em;}.a6c993ab-5bf1-43f3-93f5-7a8b48870eeb{fill:#e5e5e4;}.f1c85c99-72db-467b-a7d2-046a5b218ad9{fill:#fff;}.f9a28034-1e84-4a60-978b-9ab59f11cc8c{font-size:10px;}.a1ecad3a-b33b-408d-82df-d31c3918f9f4{letter-spacing:0.02em;}.f52886a8-94c5-46af-8cd9-9c658db77751{fill:#e6e6e6;}.bc10c082-45d0-46e1-8235-d4df890d1b34{stroke:#e905ee;stroke-width:3px;}.b7d19bc6-063d-4c2f-848a-1b0d168a70f5{letter-spacing:0.01em;}.f48076c6-0c1e-4c20-add2-ed8cfd109ec9{fill:#757575;}.a61be448-db5f-43e2-b535-9dfe28c13cb5,.b6fb2ee4-db56-4f28-b59d-8ff0159f4363{stroke:#fff;stroke-width:2px;}.a3105832-e5c8-41c6-8e3b-f314a75be669,.a61be448-db5f-43e2-b535-9dfe28c13cb5{stroke-linecap:round;}.a61be448-db5f-43e2-b535-9dfe28c13cb5,.ac72fa01-6aa8-4428-bce1-e0a9aae222dd{stroke-miterlimit:10;}.ac72fa01-6aa8-4428-bce1-e0a9aae222dd{stroke:#090;}.a3105832-e5c8-41c6-8e3b-f314a75be669,.ac72fa01-6aa8-4428-bce1-e0a9aae222dd{stroke-width:4px;}.acff8c4e-a2cd-4d24-8c18-35f193c310ac{fill:#090;}.a3105832-e5c8-41c6-8e3b-f314a75be669{stroke:#486baf;stroke-dasharray:6 12;}.e5711150-c834-4fd0-a382-d08e06e3277b{fill:#486baf;}</style></defs><title>multi-trust</title><g id="fcb9cdfe-d84e-4832-b291-1c3b104ff77a" data-name="multi-trust"><rect class="b36d3863-9869-46bf-ac6f-c27c8c9b919b" x="0.5" y="13.7" width="333.45" height="358.93" rx="10"/><rect class="b36d3863-9869-46bf-ac6f-c27c8c9b919b" x="372.79" y="13.7" width="333.45" height="358.93" rx="10"/><text class="f44f5e7a-bcef-4a87-a45c-cee662b3b042" transform="translate(0.48 10.27)">Istio Mesh: foo.com</text><text class="f44f5e7a-bcef-4a87-a45c-cee662b3b042" transform="translate(372.79 10.27)">Istio Mesh: ba<tspan class="b98adfa5-b60d-4005-9bc4-2b68079f64a4" x="74.87" y="0">r</tspan><tspan x="77.94" y="0">.com</tspan></text><path class="bb543620-b0df-4e15-a391-4137dcb25e6b" d="M617.65,116.83l1.58,1.55a.76.76,0,0,1,.21.8.78.78,0,0,1-.59.57l-2.16.55.62,2.13a.83.83,0,0,1-1,1l-2.13-.62L613.6,125a.81.81,0,0,1-1.37.38l-1.55-1.58-1.54,1.58a.79.79,0,0,1-.81.22.74.74,0,0,1-.57-.6l-.55-2.16-2.13.62a.83.83,0,0,1-1-1l.62-2.13-2.16-.55a.75.75,0,0,1-.58-.57.74.74,0,0,1,.2-.8l1.58-1.55-1.58-1.54a.83.83,0,0,1,.38-1.38l2.16-.54-.62-2.13a.8.8,0,0,1,.21-.83.76.76,0,0,1,.82-.2l2.13.61.55-2.16a.82.82,0,0,1,1.38-.38l1.54,1.62,1.55-1.62a.82.82,0,0,1,1.37.38l.55,2.16,2.13-.61a.76.76,0,0,1,.82.2.8.8,0,0,1,.21.83l-.62,2.13,2.16.54a.78.78,0,0,1,.59.57.77.77,0,0,1-.21.81Z"/><path class="bb543620-b0df-4e15-a391-4137dcb25e6b" d="M603,102.23l1.58,1.54a.78.78,0,0,1,.2.81.75.75,0,0,1-.58.57l-2.17.55.62,2.12a.79.79,0,0,1-.2.83.77.77,0,0,1-.83.2l-2.13-.61L599,110.4a.72.72,0,0,1-.58.6.74.74,0,0,1-.79-.22L596,109.2l-1.55,1.58a.79.79,0,0,1-.81.22.74.74,0,0,1-.56-.6l-.55-2.16-2.13.61a.75.75,0,0,1-.82-.2.79.79,0,0,1-.21-.83l.62-2.12-2.17-.55a.82.82,0,0,1-.37-1.38l1.58-1.54-1.58-1.55a.75.75,0,0,1-.21-.8.77.77,0,0,1,.58-.57l2.17-.55-.62-2.13a.83.83,0,0,1,1-1l2.13.62.55-2.16a.81.81,0,0,1,1.37-.38L596,95.29l1.54-1.61a.77.77,0,0,1,.81-.21.75.75,0,0,1,.56.59l.55,2.16,2.13-.62a.8.8,0,0,1,.83.21.78.78,0,0,1,.2.82L602,98.76l2.17.55a.75.75,0,0,1,.58.57.77.77,0,0,1-.2.8Z"/><path class="bb543620-b0df-4e15-a391-4137dcb25e6b" d="M621.24,97.81l1.58,1.55a.82.82,0,0,1-.38,1.37l-2.16.55.61,2.13a.76.76,0,0,1-.2.82.8.8,0,0,1-.83.21l-2.12-.62-.55,2.16a.82.82,0,0,1-1.38.38l-1.54-1.58-1.55,1.58a.78.78,0,0,1-.8.22.74.74,0,0,1-.57-.6l-.55-2.16-2.13.62a.83.83,0,0,1-1-1l.62-2.13-2.16-.55a.82.82,0,0,1-.38-1.37l1.58-1.55-1.58-1.54a.82.82,0,0,1,.38-1.38l2.16-.55-.62-2.12a.8.8,0,0,1,.21-.83.76.76,0,0,1,.82-.2l2.13.61.55-2.16a.81.81,0,0,1,1.37-.38l1.55,1.62,1.54-1.62a.77.77,0,0,1,.81-.2.75.75,0,0,1,.57.58l.55,2.16,2.12-.61a.82.82,0,0,1,1,1l-.61,2.12,2.16.55a.75.75,0,0,1,.58.57.77.77,0,0,1-.2.81Z"/><path class="bb543620-b0df-4e15-a391-4137dcb25e6b" d="M599.1,120.84l1.58,1.54a.81.81,0,0,1-.38,1.37l-2.16.55.62,2.13a.82.82,0,0,1-1,1l-2.13-.62-.55,2.17a.8.8,0,0,1-1.37.37l-1.55-1.58-1.54,1.58a.8.8,0,0,1-.81.23.74.74,0,0,1-.57-.6l-.55-2.17-2.13.62a.82.82,0,0,1-1-1l.62-2.13-2.16-.55a.82.82,0,0,1-.38-1.37l1.58-1.54-1.58-1.55a.82.82,0,0,1,.38-1.37l2.16-.55-.62-2.13a.82.82,0,0,1,1-1l2.13.62.55-2.17a.81.81,0,0,1,1.38-.37l1.54,1.61,1.55-1.61a.75.75,0,0,1,.8-.21.77.77,0,0,1,.57.58l.55,2.17,2.13-.62a.82.82,0,0,1,1,1l-.62,2.13,2.16.55a.81.81,0,0,1,.38,1.37Z"/><text class="a108d96d-7c27-460a-9caf-30e83e640176" transform="translate(562.69 144.11)"><tspan class="e3882293-29f3-4242-8c42-29802064a51f">T</tspan><tspan x="7.9" y="0">rust bundle:</tspan><tspan x="14.46" y="16.8">foo.com</tspan></text><path class="bb543620-b0df-4e15-a391-4137dcb25e6b" d="M106.85,114.61l1.58,1.55a.73.73,0,0,1,.2.8.75.75,0,0,1-.58.57l-2.16.55.62,2.13a.83.83,0,0,1-1,1l-2.13-.62-.55,2.16a.73.73,0,0,1-.59.6.74.74,0,0,1-.79-.22l-1.54-1.58-1.55,1.58a.77.77,0,0,1-.8.22.74.74,0,0,1-.57-.6l-.55-2.16-2.13.62a.83.83,0,0,1-1-1l.62-2.13-2.16-.55a.78.78,0,0,1-.59-.57.75.75,0,0,1,.21-.8l1.58-1.55-1.58-1.54a.77.77,0,0,1-.21-.81.78.78,0,0,1,.59-.57l2.16-.55L93.25,109a.83.83,0,0,1,1-1l2.13.62.55-2.16a.73.73,0,0,1,.59-.6.72.72,0,0,1,.78.22l1.55,1.62,1.54-1.62a.83.83,0,0,1,1.38.38l.55,2.16,2.13-.62a.83.83,0,0,1,1,1l-.62,2.13,2.16.55a.83.83,0,0,1,.38,1.38Z"/><path class="bb543620-b0df-4e15-a391-4137dcb25e6b" d="M92.2,100l1.58,1.54a.77.77,0,0,1,.21.81.74.74,0,0,1-.58.56l-2.17.55.62,2.13a.81.81,0,0,1-.2.83.79.79,0,0,1-.83.2L88.7,106l-.55,2.17a.73.73,0,0,1-.58.6.76.76,0,0,1-.79-.22L85.24,107l-1.55,1.58a.81.81,0,0,1-.81.22.73.73,0,0,1-.56-.6L81.77,106l-2.13.62a.79.79,0,0,1-.83-.2.81.81,0,0,1-.2-.83l.62-2.13-2.17-.55a.74.74,0,0,1-.58-.56.77.77,0,0,1,.21-.81L78.27,100l-1.58-1.55a.81.81,0,0,1,.37-1.37l2.17-.55-.62-2.13a.82.82,0,0,1,1-1l2.13.62.55-2.16a.73.73,0,0,1,.58-.61.75.75,0,0,1,.79.23l1.55,1.61,1.54-1.61a.77.77,0,0,1,.81-.21.75.75,0,0,1,.56.59L88.7,94l2.13-.62a.82.82,0,0,1,1,1l-.62,2.13,2.17.55a.81.81,0,0,1,.37,1.37Z"/><path class="bb543620-b0df-4e15-a391-4137dcb25e6b" d="M110.44,95.59,112,97.14a.76.76,0,0,1,.2.8.75.75,0,0,1-.58.57l-2.17.55.62,2.13a.78.78,0,0,1-.2.82.8.8,0,0,1-.83.21l-2.13-.62-.55,2.16a.72.72,0,0,1-.58.6.74.74,0,0,1-.79-.22l-1.54-1.58-1.55,1.58a.79.79,0,0,1-.81.22.74.74,0,0,1-.56-.6L100,101.6l-2.13.62a.83.83,0,0,1-1-1l.62-2.13-2.16-.55a.76.76,0,0,1-.59-.57.75.75,0,0,1,.21-.8l1.58-1.55-1.58-1.54a.82.82,0,0,1,.38-1.38l2.16-.55L96.84,90a.83.83,0,0,1,1-1l2.13.62.55-2.16a.81.81,0,0,1,1.37-.38l1.55,1.61L105,87a.75.75,0,0,1,.81-.2.73.73,0,0,1,.56.58l.55,2.16,2.13-.62a.8.8,0,0,1,.83.21.78.78,0,0,1,.2.82l-.62,2.13,2.17.55a.75.75,0,0,1,.58.57.78.78,0,0,1-.2.81Z"/><path class="bb543620-b0df-4e15-a391-4137dcb25e6b" d="M88.3,118.61l1.58,1.55a.74.74,0,0,1,.2.8.75.75,0,0,1-.58.57l-2.16.55.62,2.13a.83.83,0,0,1-1,1l-2.13-.62-.55,2.16a.76.76,0,0,1-.59.61.75.75,0,0,1-.79-.23l-1.54-1.58-1.55,1.58a.78.78,0,0,1-.8.23.75.75,0,0,1-.57-.61l-.55-2.16-2.13.62a.83.83,0,0,1-1-1l.62-2.13-2.16-.55a.78.78,0,0,1-.59-.57.76.76,0,0,1,.21-.8l1.58-1.55-1.58-1.54a.77.77,0,0,1-.21-.81.78.78,0,0,1,.59-.57l2.16-.54L74.7,113a.8.8,0,0,1,.21-.83.78.78,0,0,1,.82-.2l2.13.61.55-2.16a.73.73,0,0,1,.58-.6.75.75,0,0,1,.79.22l1.55,1.62,1.54-1.62a.78.78,0,0,1,.81-.2.75.75,0,0,1,.57.58l.55,2.16,2.13-.61a.78.78,0,0,1,.82.2A.8.8,0,0,1,88,113l-.62,2.13,2.16.54a.83.83,0,0,1,.38,1.38Z"/><text class="a108d96d-7c27-460a-9caf-30e83e640176" transform="translate(51.89 141.89)"><tspan class="e3882293-29f3-4242-8c42-29802064a51f">T</tspan><tspan x="7.9" y="0">rust bundle:</tspan><tspan x="15.34" y="16.8">ba</tspan><tspan class="b98adfa5-b60d-4005-9bc4-2b68079f64a4" x="30.81" y="16.8">r</tspan><tspan x="34.4" y="16.8">.com</tspan></text><rect class="a6c993ab-5bf1-43f3-93f5-7a8b48870eeb" x="414.71" y="86.79" width="123.25" height="91.69" rx="3"/><rect class="f1c85c99-72db-467b-a7d2-046a5b218ad9" x="423.52" y="130.22" width="105.64" height="42.67" rx="3"/><text class="a108d96d-7c27-460a-9caf-30e83e640176" transform="translate(434.45 147.24)"><tspan class="e3882293-29f3-4242-8c42-29802064a51f">T</tspan><tspan x="7.9" y="0">rust Domain</tspan><tspan x="16.73" y="16.8">ba</tspan><tspan class="b98adfa5-b60d-4005-9bc4-2b68079f64a4" x="32.2" y="16.8">r</tspan><tspan x="35.79" y="16.8">.com</tspan></text><path class="bb543620-b0df-4e15-a391-4137dcb25e6b" d="M484.75,105a5,5,0,0,1,5,5v1.69a1.71,1.71,0,0,1-1.68,1.68H464.57a1.71,1.71,0,0,1-1.68-1.68v-1.69a5,5,0,0,1,5.05-5h3.52a1.45,1.45,0,0,0,1.07-.45,1.44,1.44,0,0,0,.45-1.07v0a11.4,11.4,0,0,0-1.21-4.73,5,5,0,0,1,.34-4.86A5.05,5.05,0,0,1,474.32,92a4.77,4.77,0,0,1,2.91-.34,5,5,0,0,1,2.66,1.42,5.18,5.18,0,0,1,1.44,2.65,4.9,4.9,0,0,1-.52,3.15,9.23,9.23,0,0,0-1.11,4.1v.53a1.44,1.44,0,0,0,.45,1.07,1.47,1.47,0,0,0,1.08.45Zm-20.18,13.45V115.1h23.54v3.36Z"/><text class="f9a28034-1e84-4a60-978b-9ab59f11cc8c" transform="translate(414.72 83.79)">Ce<tspan class="a1ecad3a-b33b-408d-82df-d31c3918f9f4" x="11.81" y="0">r</tspan><tspan x="15.43" y="0">tificate authority</tspan></text><rect class="f52886a8-94c5-46af-8cd9-9c658db77751" x="440.7" y="239.09" width="197.65" height="72" rx="3"/><rect class="f1c85c99-72db-467b-a7d2-046a5b218ad9" x="449.34" y="248.09" width="54" height="54" rx="3"/><polygon class="bc10c082-45d0-46e1-8235-d4df890d1b34" points="489.6 282.74 489.6 267.44 476.34 259.79 463.08 267.44 463.08 282.74 476.34 290.39 489.6 282.74"/><rect class="f1c85c99-72db-467b-a7d2-046a5b218ad9" x="512.34" y="248.09" width="117" height="54" rx="3"/><text class="a108d96d-7c27-460a-9caf-30e83e640176" transform="translate(571.09 270.79)">Se<tspan class="b7d19bc6-063d-4c2f-848a-1b0d168a70f5" x="15.72" y="0">r</tspan><tspan x="20.58" y="0">vice</tspan><tspan x="-8.61" y="16.8">B.ba</tspan><tspan class="b98adfa5-b60d-4005-9bc4-2b68079f64a4" x="19.26" y="16.8">r</tspan><tspan x="22.85" y="16.8">.com</tspan></text><circle class="f48076c6-0c1e-4c20-add2-ed8cfd109ec9" cx="539.34" cy="275.09" r="18"/><rect class="b6fb2ee4-db56-4f28-b59d-8ff0159f4363" x="532.95" y="268.58" width="12.79" height="12.79"/><line class="a61be448-db5f-43e2-b535-9dfe28c13cb5" x1="535.31" y1="268.58" x2="535.31" y2="265.5"/><line class="a61be448-db5f-43e2-b535-9dfe28c13cb5" x1="539.34" y1="268.58" x2="539.34" y2="265.5"/><line class="a61be448-db5f-43e2-b535-9dfe28c13cb5" x1="543.37" y1="268.58" x2="543.37" y2="265.5"/><line class="a61be448-db5f-43e2-b535-9dfe28c13cb5" x1="535.31" y1="284.69" x2="535.31" y2="281.61"/><line class="a61be448-db5f-43e2-b535-9dfe28c13cb5" x1="539.34" y1="284.69" x2="539.34" y2="281.61"/><line class="a61be448-db5f-43e2-b535-9dfe28c13cb5" x1="543.37" y1="284.69" x2="543.37" y2="281.61"/><line class="a61be448-db5f-43e2-b535-9dfe28c13cb5" x1="532.83" y1="279.12" x2="529.75" y2="279.12"/><line class="a61be448-db5f-43e2-b535-9dfe28c13cb5" x1="532.83" y1="275.09" x2="529.75" y2="275.09"/><line class="a61be448-db5f-43e2-b535-9dfe28c13cb5" x1="532.83" y1="271.07" x2="529.75" y2="271.07"/><line class="a61be448-db5f-43e2-b535-9dfe28c13cb5" x1="548.93" y1="279.12" x2="545.85" y2="279.12"/><line class="a61be448-db5f-43e2-b535-9dfe28c13cb5" x1="548.93" y1="275.09" x2="545.85" y2="275.09"/><line class="a61be448-db5f-43e2-b535-9dfe28c13cb5" x1="548.93" y1="271.07" x2="545.85" y2="271.07"/><rect class="f1c85c99-72db-467b-a7d2-046a5b218ad9" x="536.5" y="272.13" width="5.68" height="5.68" rx="2"/><rect class="f52886a8-94c5-46af-8cd9-9c658db77751" x="68.4" y="239.09" width="197.65" height="72" rx="3"/><rect class="f1c85c99-72db-467b-a7d2-046a5b218ad9" x="77.05" y="248.09" width="117" height="54" rx="3"/><path d="M139.88,266.35a6.25,6.25,0,0,1-2.46-1.19,2.3,2.3,0,0,1-.76-1.75,2.39,2.39,0,0,1,.94-1.94,3.68,3.68,0,0,1,2.44-.77,4.17,4.17,0,0,1,1.83.39,3,3,0,0,1,1.24,1.1,2.72,2.72,0,0,1,.44,1.52h-1.32a1.82,1.82,0,0,0-.57-1.42,2.3,2.3,0,0,0-1.62-.52,2.34,2.34,0,0,0-1.51.43,1.4,1.4,0,0,0-.55,1.19,1.28,1.28,0,0,0,.52,1,5.2,5.2,0,0,0,1.75.77,8.13,8.13,0,0,1,1.95.77,3,3,0,0,1,1,1,2.54,2.54,0,0,1,.33,1.32,2.31,2.31,0,0,1-.94,1.93,4,4,0,0,1-2.52.73,4.74,4.74,0,0,1-1.92-.39,3.19,3.19,0,0,1-1.37-1.08,2.61,2.61,0,0,1-.48-1.55h1.32a1.71,1.71,0,0,0,.67,1.43,2.79,2.79,0,0,0,1.78.52,2.6,2.6,0,0,0,1.59-.42,1.39,1.39,0,0,0,.55-1.16,1.35,1.35,0,0,0-.51-1.13A5.8,5.8,0,0,0,139.88,266.35Z"/><path d="M148.13,270.92a3.22,3.22,0,0,1-2.45-1,3.63,3.63,0,0,1-.94-2.64v-.23a4.41,4.41,0,0,1,.42-2,3.31,3.31,0,0,1,1.17-1.36,3,3,0,0,1,1.64-.49,2.77,2.77,0,0,1,2.24.95,4.14,4.14,0,0,1,.8,2.72v.53h-5a2.64,2.64,0,0,0,.64,1.77,2,2,0,0,0,1.55.67,2.24,2.24,0,0,0,1.14-.27,3,3,0,0,0,.81-.73l.78.6A3.09,3.09,0,0,1,148.13,270.92Zm-.16-6.63a1.71,1.71,0,0,0-1.29.56,2.72,2.72,0,0,0-.64,1.56h3.71v-.09a2.45,2.45,0,0,0-.52-1.5A1.6,1.6,0,0,0,148,264.29Z"/><path d="M156.05,264.52a4,4,0,0,0-.62,0,1.67,1.67,0,0,0-1.69,1.06v5.25h-1.27v-7.4h1.23l0,.85a2,2,0,0,1,1.76-1,1.22,1.22,0,0,1,.56.1Z"/><path d="M159.77,269.07l1.84-5.68h1.29l-2.65,7.4h-1l-2.68-7.4h1.3Z"/><path d="M164.12,261.43a.77.77,0,0,1,.19-.52.72.72,0,0,1,.56-.21.69.69,0,0,1,.75.73.72.72,0,0,1-.19.51.73.73,0,0,1-.56.21.72.72,0,0,1-.56-.21A.76.76,0,0,1,164.12,261.43Zm1.37,9.36h-1.26v-7.4h1.26Z"/><path d="M170.48,269.89a1.82,1.82,0,0,0,1.18-.41,1.41,1.41,0,0,0,.56-1h1.2a2.3,2.3,0,0,1-.44,1.22,3,3,0,0,1-1.07.91,3.1,3.1,0,0,1-1.43.34,3,3,0,0,1-2.4-1,4,4,0,0,1-.89-2.75v-.22a4.51,4.51,0,0,1,.39-1.92,3.08,3.08,0,0,1,1.14-1.3,3.22,3.22,0,0,1,1.75-.47,3,3,0,0,1,2.07.75,2.66,2.66,0,0,1,.88,1.93h-1.2a1.7,1.7,0,0,0-.54-1.18,1.88,1.88,0,0,0-2.7.24,3.26,3.26,0,0,0-.53,2v.24a3.14,3.14,0,0,0,.53,2A1.77,1.77,0,0,0,170.48,269.89Z"/><path d="M177.91,270.92a3.24,3.24,0,0,1-2.45-1,3.63,3.63,0,0,1-.94-2.64v-.23a4.41,4.41,0,0,1,.42-2,3.26,3.26,0,0,1,1.18-1.36,3,3,0,0,1,1.63-.49,2.81,2.81,0,0,1,2.25.95,4.14,4.14,0,0,1,.8,2.72v.53h-5a2.69,2.69,0,0,0,.64,1.77,2,2,0,0,0,1.56.67,2.2,2.2,0,0,0,1.13-.27,3.15,3.15,0,0,0,.82-.73l.77.6A3.09,3.09,0,0,1,177.91,270.92Zm-.16-6.63a1.67,1.67,0,0,0-1.28.56,2.66,2.66,0,0,0-.64,1.56h3.7v-.09a2.45,2.45,0,0,0-.52-1.5A1.6,1.6,0,0,0,177.75,264.29Z"/><path d="M132.74,285h-4.17l-.93,2.61h-1.36l3.8-10h1.15l3.81,10h-1.35ZM129,283.91h3.38l-1.69-4.66Z"/><path d="M136.21,286.92a.76.76,0,0,1,.19-.54.74.74,0,0,1,.59-.22.76.76,0,0,1,.59.22.82.82,0,0,1,0,1.07.79.79,0,0,1-.59.21.77.77,0,0,1-.59-.21A.75.75,0,0,1,136.21,286.92Z"/><path d="M140.49,287.59v-6.42h-1.17v-1h1.17v-.76a2.54,2.54,0,0,1,.63-1.84,2.44,2.44,0,0,1,1.8-.65,3.26,3.26,0,0,1,.87.12l-.07,1A3.64,3.64,0,0,0,143,278a1.23,1.23,0,0,0-.95.37,1.42,1.42,0,0,0-.34,1v.78h1.58v1h-1.58v6.42Z"/><path d="M144.39,283.82a4.34,4.34,0,0,1,.43-2,3.23,3.23,0,0,1,1.19-1.34,3.29,3.29,0,0,1,1.74-.47,3.11,3.11,0,0,1,2.44,1.05,4,4,0,0,1,.93,2.78V284a4.35,4.35,0,0,1-.41,1.94,3.12,3.12,0,0,1-1.18,1.33,3.26,3.26,0,0,1-1.77.48,3.15,3.15,0,0,1-2.44-1,4,4,0,0,1-.93-2.77Zm1.27.15a3.14,3.14,0,0,0,.57,2,1.93,1.93,0,0,0,3.06,0,3.42,3.42,0,0,0,.57-2.11,3.12,3.12,0,0,0-.58-2,1.91,1.91,0,0,0-3,0A3.36,3.36,0,0,0,145.66,284Z"/><path d="M152.38,283.82a4.47,4.47,0,0,1,.42-2,3.14,3.14,0,0,1,2.93-1.81,3.13,3.13,0,0,1,2.45,1.05,4,4,0,0,1,.93,2.78V284a4.35,4.35,0,0,1-.42,1.94,3.06,3.06,0,0,1-1.18,1.33,3.25,3.25,0,0,1-1.76.48,3.12,3.12,0,0,1-2.44-1,4,4,0,0,1-.93-2.77Zm1.27.15a3.14,3.14,0,0,0,.57,2,1.93,1.93,0,0,0,3.06,0,3.48,3.48,0,0,0,.56-2.11,3.18,3.18,0,0,0-.57-2,1.84,1.84,0,0,0-1.54-.76,1.81,1.81,0,0,0-1.51.75A3.42,3.42,0,0,0,153.65,284Z"/><path d="M160.72,286.92a.77.77,0,0,1,.2-.54.72.72,0,0,1,.58-.22.74.74,0,0,1,.59.22.72.72,0,0,1,.2.54.72.72,0,0,1-.2.53.77.77,0,0,1-.59.21.75.75,0,0,1-.58-.21A.76.76,0,0,1,160.72,286.92Z"/><path d="M167.35,286.69a1.84,1.84,0,0,0,1.18-.41,1.43,1.43,0,0,0,.56-1h1.2a2.32,2.32,0,0,1-.44,1.2,2.86,2.86,0,0,1-1.08.92,3.29,3.29,0,0,1-3.83-.67,4,4,0,0,1-.89-2.75v-.22a4.37,4.37,0,0,1,.4-1.92,3,3,0,0,1,1.14-1.3,3.2,3.2,0,0,1,1.75-.47,3,3,0,0,1,2.07.75,2.66,2.66,0,0,1,.88,1.93h-1.2a1.79,1.79,0,0,0-.54-1.18,1.88,1.88,0,0,0-2.7.24,3.2,3.2,0,0,0-.53,2V284a3.21,3.21,0,0,0,.52,2A1.78,1.78,0,0,0,167.35,286.69Z"/><path d="M171.37,283.82a4.34,4.34,0,0,1,.43-2,3.23,3.23,0,0,1,1.19-1.34,3.29,3.29,0,0,1,1.74-.47,3.1,3.1,0,0,1,2.44,1.05,4,4,0,0,1,.94,2.78V284a4.35,4.35,0,0,1-.42,1.94,3.06,3.06,0,0,1-1.18,1.33,3.26,3.26,0,0,1-1.77.48,3.12,3.12,0,0,1-2.43-1,4,4,0,0,1-.94-2.77Zm1.27.15a3.14,3.14,0,0,0,.57,2,1.82,1.82,0,0,0,1.53.75,1.79,1.79,0,0,0,1.53-.76,3.42,3.42,0,0,0,.57-2.11,3.12,3.12,0,0,0-.58-2,1.91,1.91,0,0,0-3,0A3.36,3.36,0,0,0,172.64,284Z"/><path d="M180.88,280.19l0,.82a2.72,2.72,0,0,1,2.19-1,2.12,2.12,0,0,1,2.11,1.19,3,3,0,0,1,1-.86,2.84,2.84,0,0,1,1.4-.33c1.62,0,2.45.86,2.47,2.58v5h-1.26V282.7a1.7,1.7,0,0,0-.36-1.18,1.61,1.61,0,0,0-1.22-.39,1.64,1.64,0,0,0-1.71,1.55v4.91h-1.27v-4.85a1.41,1.41,0,0,0-1.58-1.61,1.69,1.69,0,0,0-1.7,1.05v5.41h-1.27v-7.4Z"/><circle class="f48076c6-0c1e-4c20-add2-ed8cfd109ec9" cx="104.05" cy="275.09" r="18"/><rect class="b6fb2ee4-db56-4f28-b59d-8ff0159f4363" x="97.65" y="268.58" width="12.79" height="12.79"/><line class="a61be448-db5f-43e2-b535-9dfe28c13cb5" x1="100.02" y1="268.58" x2="100.02" y2="265.5"/><line class="a61be448-db5f-43e2-b535-9dfe28c13cb5" x1="104.05" y1="268.58" x2="104.05" y2="265.5"/><line class="a61be448-db5f-43e2-b535-9dfe28c13cb5" x1="108.07" y1="268.58" x2="108.07" y2="265.5"/><line class="a61be448-db5f-43e2-b535-9dfe28c13cb5" x1="100.02" y1="284.69" x2="100.02" y2="281.61"/><line class="a61be448-db5f-43e2-b535-9dfe28c13cb5" x1="104.05" y1="284.69" x2="104.05" y2="281.61"/><line class="a61be448-db5f-43e2-b535-9dfe28c13cb5" x1="108.07" y1="284.69" x2="108.07" y2="281.61"/><line class="a61be448-db5f-43e2-b535-9dfe28c13cb5" x1="97.53" y1="279.12" x2="94.46" y2="279.12"/><line class="a61be448-db5f-43e2-b535-9dfe28c13cb5" x1="97.53" y1="275.09" x2="94.46" y2="275.09"/><line class="a61be448-db5f-43e2-b535-9dfe28c13cb5" x1="97.53" y1="271.07" x2="94.46" y2="271.07"/><line class="a61be448-db5f-43e2-b535-9dfe28c13cb5" x1="113.64" y1="279.12" x2="110.56" y2="279.12"/><line class="a61be448-db5f-43e2-b535-9dfe28c13cb5" x1="113.64" y1="275.09" x2="110.56" y2="275.09"/><line class="a61be448-db5f-43e2-b535-9dfe28c13cb5" x1="113.64" y1="271.07" x2="110.56" y2="271.07"/><rect class="f1c85c99-72db-467b-a7d2-046a5b218ad9" x="101.21" y="272.13" width="5.68" height="5.68" rx="2"/><rect class="f1c85c99-72db-467b-a7d2-046a5b218ad9" x="203.05" y="248.09" width="54" height="54" rx="3"/><polygon class="bc10c082-45d0-46e1-8235-d4df890d1b34" points="243.31 282.74 243.31 267.44 230.05 259.79 216.79 267.44 216.79 282.74 230.05 290.39 243.31 282.74"/><line class="ac72fa01-6aa8-4428-bce1-e0a9aae222dd" x1="264.22" y1="275.24" x2="442.16" y2="275.24"/><polygon class="acff8c4e-a2cd-4d24-8c18-35f193c310ac" points="265.68 280.22 257.05 275.24 265.68 270.25 265.68 280.22"/><polygon class="acff8c4e-a2cd-4d24-8c18-35f193c310ac" points="440.71 280.22 449.34 275.24 440.71 270.25 440.71 280.22"/><path class="acff8c4e-a2cd-4d24-8c18-35f193c310ac" d="M360.86,248.91a2.36,2.36,0,0,1,2.36,2.37v9.45a2.29,2.29,0,0,1-.69,1.68,2.31,2.31,0,0,1-1.67.68H343.53a2.32,2.32,0,0,1-1.68-.68,2.29,2.29,0,0,1-.69-1.68v-9.45a2.36,2.36,0,0,1,2.37-2.37h1.18v-3.54a7.19,7.19,0,0,1,1-3.74,7.55,7.55,0,0,1,2.73-2.74,7.43,7.43,0,0,1,7.48,0,7.65,7.65,0,0,1,2.74,2.74,7.29,7.29,0,0,1,1,3.74v3.54Zm-5.12,0v-3.54a3.55,3.55,0,1,0-7.09,0v3.54Z"/><rect class="a6c993ab-5bf1-43f3-93f5-7a8b48870eeb" x="168.42" y="86.79" width="123.25" height="91.69" rx="3"/><rect class="f1c85c99-72db-467b-a7d2-046a5b218ad9" x="177.23" y="130.22" width="105.64" height="42.67" rx="3"/><text class="a108d96d-7c27-460a-9caf-30e83e640176" transform="translate(188.15 147.24)"><tspan class="e3882293-29f3-4242-8c42-29802064a51f">T</tspan><tspan x="7.9" y="0">rust Domain</tspan><tspan x="15.85" y="16.8">foo.com</tspan></text><path class="bb543620-b0df-4e15-a391-4137dcb25e6b" d="M238.45,105a5,5,0,0,1,5.05,5v1.69a1.63,1.63,0,0,1-.5,1.18,1.64,1.64,0,0,1-1.18.5H218.28a1.61,1.61,0,0,1-1.18-.5,1.63,1.63,0,0,1-.5-1.18v-1.69a5,5,0,0,1,5-5h3.52a1.47,1.47,0,0,0,1.08-.45,1.44,1.44,0,0,0,.45-1.07v0a11.56,11.56,0,0,0-1.21-4.73,4.82,4.82,0,0,1-.48-2.1,4.92,4.92,0,0,1,.82-2.76A5.12,5.12,0,0,1,228,92a4.76,4.76,0,0,1,2.91-.34,5,5,0,0,1,2.65,1.42A5.12,5.12,0,0,1,235,95.71a4.94,4.94,0,0,1-.53,3.16,9.27,9.27,0,0,0-1.1,4.09v.53a1.54,1.54,0,0,0,1.52,1.52Zm-20.17,13.45V115.1h23.54v3.36Z"/><text class="f9a28034-1e84-4a60-978b-9ab59f11cc8c" transform="translate(168.42 83.79)">Ce<tspan class="a1ecad3a-b33b-408d-82df-d31c3918f9f4" x="11.81" y="0">r</tspan><tspan x="15.43" y="0">tificate authority</tspan></text><line class="a3105832-e5c8-41c6-8e3b-f314a75be669" x1="230.05" y1="178.48" x2="230.05" y2="240.92"/><polygon class="e5711150-c834-4fd0-a382-d08e06e3277b" points="225.06 239.46 230.05 248.09 235.03 239.46 225.06 239.46"/><line class="a3105832-e5c8-41c6-8e3b-f314a75be669" x1="476.34" y1="178.48" x2="476.34" y2="240.92"/><polygon class="e5711150-c834-4fd0-a382-d08e06e3277b" points="471.36 239.46 476.34 248.09 481.33 239.46 471.36 239.46"/></g></svg>