<svg xmlns="http://www.w3.org/2000/svg" viewBox="0 0 1003.27 925.86"><defs><style>.a3425cd0-1f40-43e9-a0eb-5a5b736b3ded,.aafd10ed-3f98-43c6-9a91-1af84e33a6b8,.ad03bc7d-f09f-4793-ad12-9d51ed121ac6,.ad772ee4-b88b-4e2c-a4bb-29414ef851f5,.adcd355c-f5a4-40e4-8e65-8c420609f40f,.b73e80d3-4c99-487c-a4bd-8109219862ea,.b770a8bd-38e8-4668-96f7-db1b952911b8,.b9c1631d-77a6-4bae-b716-adc6550439d9,.e51a8f16-eda9-44b7-b237-eeddf86499eb,.e6c47625-36ad-458f-bafe-830fcd609c62,.e8899fee-db2c-499d-b7ee-e44d378413c0{fill:none;}.e8899fee-db2c-499d-b7ee-e44d378413c0{stroke:#fbb040;}.a3425cd0-1f40-43e9-a0eb-5a5b736b3ded,.aafd10ed-3f98-43c6-9a91-1af84e33a6b8,.ad03bc7d-f09f-4793-ad12-9d51ed121ac6,.ad772ee4-b88b-4e2c-a4bb-29414ef851f5,.b73e80d3-4c99-487c-a4bd-8109219862ea,.b770a8bd-38e8-4668-96f7-db1b952911b8,.e51a8f16-eda9-44b7-b237-eeddf86499eb,.e6c47625-36ad-458f-bafe-830fcd609c62,.e8899fee-db2c-499d-b7ee-e44d378413c0{stroke-linejoin:round;}.b9c1631d-77a6-4bae-b716-adc6550439d9,.e6c47625-36ad-458f-bafe-830fcd609c62,.e8899fee-db2c-499d-b7ee-e44d378413c0{stroke-width:2px;}.e868c483-0407-4441-8f24-f6820d5a12b8{fill:#e6e6e6;}.b120db43-3f97-4ffd-9857-d02a25849cc2{fill:#fff;}.e51a8f16-eda9-44b7-b237-eeddf86499eb{stroke:#e905ee;stroke-width:3px;}.e7b33e9d-b664-45e1-945a-4c6e8d6515a4{font-size:16.27px;}.e1f48b59-8aab-4bba-988d-fb41ae004c0d,.e7b33e9d-b664-45e1-945a-4c6e8d6515a4,.f836ace8-4344-4c73-a6e0-fecad7b8b3ed{font-family:Roboto-Regular, Roboto;}.ad8f822a-18e9-47a6-a3d2-bb59fb006f54{letter-spacing:0.01em;}.f89523b6-9f77-4e3d-b2b8-08b72ba4dd5e{letter-spacing:0em;}.a928f8ec-6a8f-41d8-a6a9-90a8e9321324{fill:#757575;}.b9c1631d-77a6-4bae-b716-adc6550439d9,.e6c47625-36ad-458f-bafe-830fcd609c62{stroke:#fff;}.a3425cd0-1f40-43e9-a0eb-5a5b736b3ded,.ad03bc7d-f09f-4793-ad12-9d51ed121ac6,.ad772ee4-b88b-4e2c-a4bb-29414ef851f5,.b73e80d3-4c99-487c-a4bd-8109219862ea,.b770a8bd-38e8-4668-96f7-db1b952911b8,.b9c1631d-77a6-4bae-b716-adc6550439d9{stroke-linecap:round;}.adcd355c-f5a4-40e4-8e65-8c420609f40f,.b9c1631d-77a6-4bae-b716-adc6550439d9{stroke-miterlimit:10;}.a3425cd0-1f40-43e9-a0eb-5a5b736b3ded,.ad03bc7d-f09f-4793-ad12-9d51ed121ac6,.ad772ee4-b88b-4e2c-a4bb-29414ef851f5,.b73e80d3-4c99-487c-a4bd-8109219862ea,.b770a8bd-38e8-4668-96f7-db1b952911b8{stroke:#486baf;}.a3425cd0-1f40-43e9-a0eb-5a5b736b3ded,.ad03bc7d-f09f-4793-ad12-9d51ed121ac6,.ad772ee4-b88b-4e2c-a4bb-29414ef851f5,.adcd355c-f5a4-40e4-8e65-8c420609f40f,.b73e80d3-4c99-487c-a4bd-8109219862ea,.b770a8bd-38e8-4668-96f7-db1b952911b8{stroke-width:4px;}.b73e80d3-4c99-487c-a4bd-8109219862ea{stroke-dasharray:6 12;}.b762b1ee-c214-4db9-935e-f1610d2b4b98{fill:#486baf;}.aafd10ed-3f98-43c6-9a91-1af84e33a6b8{stroke:#466bb0;stroke-dasharray:9.98 9.98;}.e1f48b59-8aab-4bba-988d-fb41ae004c0d{font-size:12px;}.f836ace8-4344-4c73-a6e0-fecad7b8b3ed{font-size:13.95px;}.a09a449a-198a-4097-b2e4-42f8ba194917{letter-spacing:-0.02em;}.f630c504-9bbe-4929-b673-c083afa31633{fill:#e5e5e4;}.b731d80b-db24-4438-a648-a998b3a2ef7a{letter-spacing:-0.02em;}.a3d73673-26dd-4676-8feb-9c8d0d8ee721{letter-spacing:0em;}.adcd355c-f5a4-40e4-8e65-8c420609f40f{stroke:#090;}.b8287170-ba17-4b8f-8738-57b6fea06062{fill:#090;}.ad03bc7d-f09f-4793-ad12-9d51ed121ac6{stroke-dasharray:6.11 12.22;}.ad772ee4-b88b-4e2c-a4bb-29414ef851f5{stroke-dasharray:5.94 11.87;}.a3425cd0-1f40-43e9-a0eb-5a5b736b3ded{stroke-dasharray:5.96 11.93;}</style></defs><title>multi-control</title><g id="be2d5b8d-07ce-4f10-8ebf-d32b124a8b7b" data-name="multi-control"><path class="e8899fee-db2c-499d-b7ee-e44d378413c0" d="M978.19,879.5l-444.42-1.68a11.66,11.66,0,0,1-11.62-11.63V507a11.66,11.66,0,0,1,11.62-11.62L978.19,497a11.66,11.66,0,0,1,11.62,11.62V867.88A11.66,11.66,0,0,1,978.19,879.5Z"/><rect class="e868c483-0407-4441-8f24-f6820d5a12b8" x="641.13" y="513.24" width="229.71" height="83.68" rx="3"/><rect class="b120db43-3f97-4ffd-9857-d02a25849cc2" x="651.18" y="523.7" width="62.76" height="62.76" rx="3"/><polygon class="e51a8f16-eda9-44b7-b237-eeddf86499eb" points="697.97 563.97 697.97 546.19 682.55 537.3 667.14 546.19 667.14 563.97 682.55 572.87 697.97 563.97"/><rect class="b120db43-3f97-4ffd-9857-d02a25849cc2" x="724.39" y="523.7" width="135.98" height="62.76" rx="3"/><text class="e7b33e9d-b664-45e1-945a-4c6e8d6515a4" transform="translate(785.59 560.71)">Se<tspan class="ad8f822a-18e9-47a6-a3d2-bb59fb006f54" x="18.27" y="0">r</tspan><tspan class="f89523b6-9f77-4e3d-b2b8-08b72ba4dd5e" x="23.92" y="0">vice B</tspan></text><circle class="a928f8ec-6a8f-41d8-a6a9-90a8e9321324" cx="755.77" cy="555.08" r="20.92"/><rect class="e6c47625-36ad-458f-bafe-830fcd609c62" x="748.34" y="547.51" width="14.86" height="14.86"/><line class="b9c1631d-77a6-4bae-b716-adc6550439d9" x1="751.09" y1="547.51" x2="751.09" y2="543.93"/><line class="b9c1631d-77a6-4bae-b716-adc6550439d9" x1="755.77" y1="547.51" x2="755.77" y2="543.93"/><line class="b9c1631d-77a6-4bae-b716-adc6550439d9" x1="760.45" y1="547.51" x2="760.45" y2="543.93"/><line class="b9c1631d-77a6-4bae-b716-adc6550439d9" x1="751.09" y1="566.23" x2="751.09" y2="562.65"/><line class="b9c1631d-77a6-4bae-b716-adc6550439d9" x1="755.77" y1="566.23" x2="755.77" y2="562.65"/><line class="b9c1631d-77a6-4bae-b716-adc6550439d9" x1="760.45" y1="566.23" x2="760.45" y2="562.65"/><line class="b9c1631d-77a6-4bae-b716-adc6550439d9" x1="748.2" y1="559.76" x2="744.63" y2="559.76"/><line class="b9c1631d-77a6-4bae-b716-adc6550439d9" x1="748.2" y1="555.08" x2="744.63" y2="555.08"/><line class="b9c1631d-77a6-4bae-b716-adc6550439d9" x1="748.2" y1="550.4" x2="744.63" y2="550.4"/><line class="b9c1631d-77a6-4bae-b716-adc6550439d9" x1="766.92" y1="559.76" x2="763.34" y2="559.76"/><line class="b9c1631d-77a6-4bae-b716-adc6550439d9" x1="766.92" y1="555.08" x2="763.34" y2="555.08"/><line class="b9c1631d-77a6-4bae-b716-adc6550439d9" x1="766.92" y1="550.4" x2="763.34" y2="550.4"/><rect class="b120db43-3f97-4ffd-9857-d02a25849cc2" x="752.47" y="551.64" width="6.61" height="6.61" rx="2"/><rect class="e868c483-0407-4441-8f24-f6820d5a12b8" x="641.13" y="784.17" width="229.71" height="83.68" rx="3"/><rect class="b120db43-3f97-4ffd-9857-d02a25849cc2" x="651.18" y="794.63" width="62.76" height="62.76" rx="3"/><polygon class="e51a8f16-eda9-44b7-b237-eeddf86499eb" points="697.97 834.9 697.97 817.12 682.55 808.23 667.14 817.12 667.14 834.9 682.55 843.79 697.97 834.9"/><rect class="b120db43-3f97-4ffd-9857-d02a25849cc2" x="724.39" y="794.63" width="135.98" height="62.76" rx="3"/><text class="e7b33e9d-b664-45e1-945a-4c6e8d6515a4" transform="translate(785.35 831.64)">Se<tspan class="ad8f822a-18e9-47a6-a3d2-bb59fb006f54" x="18.27" y="0">r</tspan><tspan class="f89523b6-9f77-4e3d-b2b8-08b72ba4dd5e" x="23.92" y="0">vice A</tspan></text><circle class="a928f8ec-6a8f-41d8-a6a9-90a8e9321324" cx="755.77" cy="826.01" r="20.92"/><rect class="e6c47625-36ad-458f-bafe-830fcd609c62" x="748.34" y="818.44" width="14.86" height="14.86"/><line class="b9c1631d-77a6-4bae-b716-adc6550439d9" x1="751.09" y1="818.44" x2="751.09" y2="814.86"/><line class="b9c1631d-77a6-4bae-b716-adc6550439d9" x1="755.77" y1="818.44" x2="755.77" y2="814.86"/><line class="b9c1631d-77a6-4bae-b716-adc6550439d9" x1="760.45" y1="818.44" x2="760.45" y2="814.86"/><line class="b9c1631d-77a6-4bae-b716-adc6550439d9" x1="751.09" y1="837.16" x2="751.09" y2="833.58"/><line class="b9c1631d-77a6-4bae-b716-adc6550439d9" x1="755.77" y1="837.16" x2="755.77" y2="833.58"/><line class="b9c1631d-77a6-4bae-b716-adc6550439d9" x1="760.45" y1="837.16" x2="760.45" y2="833.58"/><line class="b9c1631d-77a6-4bae-b716-adc6550439d9" x1="748.2" y1="830.69" x2="744.63" y2="830.69"/><line class="b9c1631d-77a6-4bae-b716-adc6550439d9" x1="748.2" y1="826.01" x2="744.63" y2="826.01"/><line class="b9c1631d-77a6-4bae-b716-adc6550439d9" x1="748.2" y1="821.33" x2="744.63" y2="821.33"/><line class="b9c1631d-77a6-4bae-b716-adc6550439d9" x1="766.92" y1="830.69" x2="763.34" y2="830.69"/><line class="b9c1631d-77a6-4bae-b716-adc6550439d9" x1="766.92" y1="826.01" x2="763.34" y2="826.01"/><line class="b9c1631d-77a6-4bae-b716-adc6550439d9" x1="766.92" y1="821.33" x2="763.34" y2="821.33"/><rect class="b120db43-3f97-4ffd-9857-d02a25849cc2" x="752.47" y="822.57" width="6.61" height="6.61" rx="2"/><line class="b73e80d3-4c99-487c-a4bd-8109219862ea" x1="682.56" y1="593.64" x2="682.56" y2="787.46"/><polygon class="b762b1ee-c214-4db9-935e-f1610d2b4b98" points="677.57 595.1 682.55 586.46 687.54 595.1 677.57 595.1"/><polygon class="b762b1ee-c214-4db9-935e-f1610d2b4b98" points="677.57 786 682.55 794.63 687.54 786 677.57 786"/><line class="b73e80d3-4c99-487c-a4bd-8109219862ea" x1="923.99" y1="688.86" x2="682.56" y2="688.86"/><rect class="aafd10ed-3f98-43c6-9a91-1af84e33a6b8" x="0.5" y="13.7" width="1002.27" height="911.66" rx="10"/><text class="e1f48b59-8aab-4bba-988d-fb41ae004c0d" transform="translate(0.48 10.27)">Istio Mesh</text><text class="f836ace8-4344-4c73-a6e0-fecad7b8b3ed" transform="translate(11.34 81.26)">Cluster: <tspan class="a09a449a-198a-4097-b2e4-42f8ba194917" x="50.83" y="0">W</tspan><tspan x="63" y="0">est-1</tspan></text><path class="e8899fee-db2c-499d-b7ee-e44d378413c0" d="M467.46,468.91,23,467.23a11.66,11.66,0,0,1-11.62-11.62V96.38A11.66,11.66,0,0,1,23,84.76l444.42,1.68a11.66,11.66,0,0,1,11.62,11.62V457.29A11.66,11.66,0,0,1,467.46,468.91Z"/><text class="f836ace8-4344-4c73-a6e0-fecad7b8b3ed" transform="translate(522.15 82.95)">Cluster: East-1</text><text class="f836ace8-4344-4c73-a6e0-fecad7b8b3ed" transform="translate(522.15 491.85)">Cluster: East-2</text><rect class="f630c504-9bbe-4929-b673-c083afa31633" x="36.11" y="225.54" width="172.32" height="105.47" rx="3"/><rect class="b120db43-3f97-4ffd-9857-d02a25849cc2" x="48.42" y="286.26" width="147.7" height="36.93" rx="3"/><text class="e7b33e9d-b664-45e1-945a-4c6e8d6515a4" transform="translate(73.61 309.48)">Cont<tspan class="b731d80b-db24-4438-a648-a998b3a2ef7a" x="34.16" y="0">r</tspan><tspan class="a3d73673-26dd-4676-8feb-9c8d0d8ee721" x="39.4" y="0">ol Plane</tspan></text><rect id="ae6f3b85-ad3e-4e44-adf1-04e717731bdd" data-name="background" class="b762b1ee-c214-4db9-935e-f1610d2b4b98" x="102.39" y="225.54" width="39.76" height="39.76"/><polygon id="bbf4846d-3540-433f-a25c-f60cf6e9941e" data-name="hull" class="b120db43-3f97-4ffd-9857-d02a25849cc2" points="110.25 258.95 134.3 258.95 119.27 263.46 110.25 258.95"/><polygon id="aaf3a073-9eeb-40cc-8adb-7d39efa6fdc7" data-name="mainsail" class="b120db43-3f97-4ffd-9857-d02a25849cc2" points="110.25 257.45 119.27 255.94 119.27 239.41 110.25 257.45"/><polygon id="bf86e498-8991-4b0f-a302-229d2883d8b5" data-name="headsail" class="b120db43-3f97-4ffd-9857-d02a25849cc2" points="120.77 255.94 134.3 257.45 120.77 227.39 120.77 255.94"/><rect class="f630c504-9bbe-4929-b673-c083afa31633" x="792.38" y="225.54" width="172.32" height="105.47" rx="3"/><rect class="b120db43-3f97-4ffd-9857-d02a25849cc2" x="804.69" y="286.26" width="147.7" height="36.93" rx="3"/><text class="e7b33e9d-b664-45e1-945a-4c6e8d6515a4" transform="translate(829.89 309.48)">Cont<tspan class="b731d80b-db24-4438-a648-a998b3a2ef7a" x="34.16" y="0">r</tspan><tspan class="a3d73673-26dd-4676-8feb-9c8d0d8ee721" x="39.4" y="0">ol Plane</tspan></text><rect id="b97ac45b-d2ed-4437-8da8-a17e26907fe4" data-name="background" class="b762b1ee-c214-4db9-935e-f1610d2b4b98" x="858.67" y="225.54" width="39.76" height="39.76"/><polygon id="e683925f-9635-4931-b037-56405209c997" data-name="hull" class="b120db43-3f97-4ffd-9857-d02a25849cc2" points="866.52 258.95 890.57 258.95 875.54 263.46 866.52 258.95"/><polygon id="b2e053be-b6e6-4f93-a326-968457eead27" data-name="mainsail" class="b120db43-3f97-4ffd-9857-d02a25849cc2" points="866.52 257.45 875.54 255.94 875.54 239.41 866.52 257.45"/><polygon id="b2709133-8ee0-46bf-b3ea-143f59532ae5" data-name="headsail" class="b120db43-3f97-4ffd-9857-d02a25849cc2" points="877.04 255.94 890.57 257.45 877.04 227.39 877.04 255.94"/><rect class="e868c483-0407-4441-8f24-f6820d5a12b8" x="130.4" y="100.97" width="229.71" height="83.68" rx="3"/><rect class="b120db43-3f97-4ffd-9857-d02a25849cc2" x="140.44" y="111.43" width="135.98" height="62.76" rx="3"/><text class="e7b33e9d-b664-45e1-945a-4c6e8d6515a4" transform="translate(201.4 148.44)">Se<tspan class="ad8f822a-18e9-47a6-a3d2-bb59fb006f54" x="18.27" y="0">r</tspan><tspan class="f89523b6-9f77-4e3d-b2b8-08b72ba4dd5e" x="23.92" y="0">vice A</tspan></text><circle class="a928f8ec-6a8f-41d8-a6a9-90a8e9321324" cx="171.82" cy="142.81" r="20.92"/><rect class="e6c47625-36ad-458f-bafe-830fcd609c62" x="164.39" y="135.24" width="14.86" height="14.86"/><line class="b9c1631d-77a6-4bae-b716-adc6550439d9" x1="167.14" y1="135.24" x2="167.14" y2="131.67"/><line class="b9c1631d-77a6-4bae-b716-adc6550439d9" x1="171.82" y1="135.24" x2="171.82" y2="131.67"/><line class="b9c1631d-77a6-4bae-b716-adc6550439d9" x1="176.5" y1="135.24" x2="176.5" y2="131.67"/><line class="b9c1631d-77a6-4bae-b716-adc6550439d9" x1="167.14" y1="153.96" x2="167.14" y2="150.38"/><line class="b9c1631d-77a6-4bae-b716-adc6550439d9" x1="171.82" y1="153.96" x2="171.82" y2="150.38"/><line class="b9c1631d-77a6-4bae-b716-adc6550439d9" x1="176.5" y1="153.96" x2="176.5" y2="150.38"/><line class="b9c1631d-77a6-4bae-b716-adc6550439d9" x1="164.25" y1="147.49" x2="160.68" y2="147.49"/><line class="b9c1631d-77a6-4bae-b716-adc6550439d9" x1="164.25" y1="142.81" x2="160.68" y2="142.81"/><line class="b9c1631d-77a6-4bae-b716-adc6550439d9" x1="164.25" y1="138.13" x2="160.68" y2="138.13"/><line class="b9c1631d-77a6-4bae-b716-adc6550439d9" x1="182.97" y1="147.49" x2="179.39" y2="147.49"/><line class="b9c1631d-77a6-4bae-b716-adc6550439d9" x1="182.97" y1="142.81" x2="179.39" y2="142.81"/><line class="b9c1631d-77a6-4bae-b716-adc6550439d9" x1="182.97" y1="138.13" x2="179.39" y2="138.13"/><rect class="b120db43-3f97-4ffd-9857-d02a25849cc2" x="168.52" y="139.37" width="6.61" height="6.61" rx="2"/><rect class="b120db43-3f97-4ffd-9857-d02a25849cc2" x="286.88" y="111.43" width="62.76" height="62.76" rx="3"/><polygon class="e51a8f16-eda9-44b7-b237-eeddf86499eb" points="333.67 151.71 333.67 133.92 318.26 125.03 302.85 133.92 302.85 151.71 318.26 160.6 333.67 151.71"/><rect class="e868c483-0407-4441-8f24-f6820d5a12b8" x="130.4" y="371.9" width="229.71" height="83.68" rx="3"/><rect class="b120db43-3f97-4ffd-9857-d02a25849cc2" x="140.44" y="382.36" width="135.98" height="62.76" rx="3"/><text class="e7b33e9d-b664-45e1-945a-4c6e8d6515a4" transform="translate(201.64 419.37)">Se<tspan class="ad8f822a-18e9-47a6-a3d2-bb59fb006f54" x="18.27" y="0">r</tspan><tspan class="f89523b6-9f77-4e3d-b2b8-08b72ba4dd5e" x="23.92" y="0">vice B</tspan></text><circle class="a928f8ec-6a8f-41d8-a6a9-90a8e9321324" cx="171.82" cy="413.74" r="20.92"/><rect class="e6c47625-36ad-458f-bafe-830fcd609c62" x="164.39" y="406.17" width="14.86" height="14.86"/><line class="b9c1631d-77a6-4bae-b716-adc6550439d9" x1="167.14" y1="406.17" x2="167.14" y2="402.59"/><line class="b9c1631d-77a6-4bae-b716-adc6550439d9" x1="171.82" y1="406.17" x2="171.82" y2="402.59"/><line class="b9c1631d-77a6-4bae-b716-adc6550439d9" x1="176.5" y1="406.17" x2="176.5" y2="402.59"/><line class="b9c1631d-77a6-4bae-b716-adc6550439d9" x1="167.14" y1="424.89" x2="167.14" y2="421.31"/><line class="b9c1631d-77a6-4bae-b716-adc6550439d9" x1="171.82" y1="424.89" x2="171.82" y2="421.31"/><line class="b9c1631d-77a6-4bae-b716-adc6550439d9" x1="176.5" y1="424.89" x2="176.5" y2="421.31"/><line class="b9c1631d-77a6-4bae-b716-adc6550439d9" x1="164.25" y1="418.42" x2="160.68" y2="418.42"/><line class="b9c1631d-77a6-4bae-b716-adc6550439d9" x1="164.25" y1="413.74" x2="160.68" y2="413.74"/><line class="b9c1631d-77a6-4bae-b716-adc6550439d9" x1="164.25" y1="409.06" x2="160.68" y2="409.06"/><line class="b9c1631d-77a6-4bae-b716-adc6550439d9" x1="182.97" y1="418.42" x2="179.39" y2="418.42"/><line class="b9c1631d-77a6-4bae-b716-adc6550439d9" x1="182.97" y1="413.74" x2="179.39" y2="413.74"/><line class="b9c1631d-77a6-4bae-b716-adc6550439d9" x1="182.97" y1="409.06" x2="179.39" y2="409.06"/><rect class="b120db43-3f97-4ffd-9857-d02a25849cc2" x="168.52" y="410.3" width="6.61" height="6.61" rx="2"/><rect class="b120db43-3f97-4ffd-9857-d02a25849cc2" x="286.88" y="382.36" width="62.76" height="62.76" rx="3"/><polygon class="e51a8f16-eda9-44b7-b237-eeddf86499eb" points="333.67 422.63 333.67 404.85 318.26 395.96 302.85 404.85 302.85 422.63 318.26 431.52 333.67 422.63"/><line class="b73e80d3-4c99-487c-a4bd-8109219862ea" x1="318.26" y1="181.37" x2="318.26" y2="375.19"/><polygon class="b762b1ee-c214-4db9-935e-f1610d2b4b98" points="313.27 182.83 318.26 174.19 323.25 182.83 313.27 182.83"/><polygon class="b762b1ee-c214-4db9-935e-f1610d2b4b98" points="313.27 373.73 318.26 382.36 323.25 373.73 313.27 373.73"/><path class="e8899fee-db2c-499d-b7ee-e44d378413c0" d="M978.19,468.91l-444.42-1.68a11.66,11.66,0,0,1-11.62-11.62V96.38a11.66,11.66,0,0,1,11.62-11.62l444.42,1.68a11.66,11.66,0,0,1,11.62,11.62V457.29A11.66,11.66,0,0,1,978.19,468.91Z"/><rect class="e868c483-0407-4441-8f24-f6820d5a12b8" x="641.13" y="102.66" width="229.71" height="83.68" rx="3"/><rect class="b120db43-3f97-4ffd-9857-d02a25849cc2" x="651.18" y="113.12" width="62.76" height="62.76" rx="3"/><polygon class="e51a8f16-eda9-44b7-b237-eeddf86499eb" points="697.97 153.39 697.97 135.61 682.55 126.72 667.14 135.61 667.14 153.39 682.55 162.28 697.97 153.39"/><rect class="b120db43-3f97-4ffd-9857-d02a25849cc2" x="724.39" y="113.12" width="135.98" height="62.76" rx="3"/><text class="e7b33e9d-b664-45e1-945a-4c6e8d6515a4" transform="translate(785.59 150.12)">Se<tspan class="ad8f822a-18e9-47a6-a3d2-bb59fb006f54" x="18.27" y="0">r</tspan><tspan class="f89523b6-9f77-4e3d-b2b8-08b72ba4dd5e" x="23.92" y="0">vice B</tspan></text><circle class="a928f8ec-6a8f-41d8-a6a9-90a8e9321324" cx="755.77" cy="144.5" r="20.92"/><rect class="e6c47625-36ad-458f-bafe-830fcd609c62" x="748.34" y="136.93" width="14.86" height="14.86"/><line class="b9c1631d-77a6-4bae-b716-adc6550439d9" x1="751.09" y1="136.93" x2="751.09" y2="133.35"/><line class="b9c1631d-77a6-4bae-b716-adc6550439d9" x1="755.77" y1="136.93" x2="755.77" y2="133.35"/><line class="b9c1631d-77a6-4bae-b716-adc6550439d9" x1="760.45" y1="136.93" x2="760.45" y2="133.35"/><line class="b9c1631d-77a6-4bae-b716-adc6550439d9" x1="751.09" y1="155.64" x2="751.09" y2="152.07"/><line class="b9c1631d-77a6-4bae-b716-adc6550439d9" x1="755.77" y1="155.64" x2="755.77" y2="152.07"/><line class="b9c1631d-77a6-4bae-b716-adc6550439d9" x1="760.45" y1="155.64" x2="760.45" y2="152.07"/><line class="b9c1631d-77a6-4bae-b716-adc6550439d9" x1="748.2" y1="149.18" x2="744.63" y2="149.18"/><line class="b9c1631d-77a6-4bae-b716-adc6550439d9" x1="748.2" y1="144.5" x2="744.63" y2="144.5"/><line class="b9c1631d-77a6-4bae-b716-adc6550439d9" x1="748.2" y1="139.82" x2="744.63" y2="139.82"/><line class="b9c1631d-77a6-4bae-b716-adc6550439d9" x1="766.92" y1="149.18" x2="763.34" y2="149.18"/><line class="b9c1631d-77a6-4bae-b716-adc6550439d9" x1="766.92" y1="144.5" x2="763.34" y2="144.5"/><line class="b9c1631d-77a6-4bae-b716-adc6550439d9" x1="766.92" y1="139.82" x2="763.34" y2="139.82"/><rect class="b120db43-3f97-4ffd-9857-d02a25849cc2" x="752.47" y="141.06" width="6.61" height="6.61" rx="2"/><rect class="e868c483-0407-4441-8f24-f6820d5a12b8" x="641.13" y="373.59" width="229.71" height="83.68" rx="3"/><rect class="b120db43-3f97-4ffd-9857-d02a25849cc2" x="651.18" y="384.05" width="62.76" height="62.76" rx="3"/><polygon class="e51a8f16-eda9-44b7-b237-eeddf86499eb" points="697.97 424.32 697.97 406.53 682.55 397.64 667.14 406.53 667.14 424.32 682.55 433.21 697.97 424.32"/><rect class="b120db43-3f97-4ffd-9857-d02a25849cc2" x="724.39" y="384.05" width="135.98" height="62.76" rx="3"/><text class="e7b33e9d-b664-45e1-945a-4c6e8d6515a4" transform="translate(785.35 421.05)">Se<tspan class="ad8f822a-18e9-47a6-a3d2-bb59fb006f54" x="18.27" y="0">r</tspan><tspan class="f89523b6-9f77-4e3d-b2b8-08b72ba4dd5e" x="23.92" y="0">vice A</tspan></text><circle class="a928f8ec-6a8f-41d8-a6a9-90a8e9321324" cx="755.77" cy="415.42" r="20.92"/><rect class="e6c47625-36ad-458f-bafe-830fcd609c62" x="748.34" y="407.86" width="14.86" height="14.86"/><line class="b9c1631d-77a6-4bae-b716-adc6550439d9" x1="751.09" y1="407.86" x2="751.09" y2="404.28"/><line class="b9c1631d-77a6-4bae-b716-adc6550439d9" x1="755.77" y1="407.86" x2="755.77" y2="404.28"/><line class="b9c1631d-77a6-4bae-b716-adc6550439d9" x1="760.45" y1="407.86" x2="760.45" y2="404.28"/><line class="b9c1631d-77a6-4bae-b716-adc6550439d9" x1="751.09" y1="426.57" x2="751.09" y2="422.99"/><line class="b9c1631d-77a6-4bae-b716-adc6550439d9" x1="755.77" y1="426.57" x2="755.77" y2="422.99"/><line class="b9c1631d-77a6-4bae-b716-adc6550439d9" x1="760.45" y1="426.57" x2="760.45" y2="422.99"/><line class="b9c1631d-77a6-4bae-b716-adc6550439d9" x1="748.2" y1="420.1" x2="744.63" y2="420.1"/><line class="b9c1631d-77a6-4bae-b716-adc6550439d9" x1="748.2" y1="415.42" x2="744.63" y2="415.42"/><line class="b9c1631d-77a6-4bae-b716-adc6550439d9" x1="748.2" y1="410.75" x2="744.63" y2="410.75"/><line class="b9c1631d-77a6-4bae-b716-adc6550439d9" x1="766.92" y1="420.1" x2="763.34" y2="420.1"/><line class="b9c1631d-77a6-4bae-b716-adc6550439d9" x1="766.92" y1="415.42" x2="763.34" y2="415.42"/><line class="b9c1631d-77a6-4bae-b716-adc6550439d9" x1="766.92" y1="410.75" x2="763.34" y2="410.75"/><rect class="b120db43-3f97-4ffd-9857-d02a25849cc2" x="752.47" y="411.98" width="6.61" height="6.61" rx="2"/><line class="b73e80d3-4c99-487c-a4bd-8109219862ea" x1="682.56" y1="183.05" x2="682.56" y2="376.87"/><polygon class="b762b1ee-c214-4db9-935e-f1610d2b4b98" points="677.57 184.51 682.55 175.88 687.54 184.51 677.57 184.51"/><polygon class="b762b1ee-c214-4db9-935e-f1610d2b4b98" points="677.57 375.41 682.55 384.05 687.54 375.41 677.57 375.41"/><line class="adcd355c-f5a4-40e4-8e65-8c420609f40f" x1="356.82" y1="142.81" x2="644" y2="142.81"/><polygon class="b8287170-ba17-4b8f-8738-57b6fea06062" points="358.28 147.8 349.64 142.81 358.28 137.83 358.28 147.8"/><polygon class="b8287170-ba17-4b8f-8738-57b6fea06062" points="642.54 147.8 651.18 142.81 642.54 137.83 642.54 147.8"/><line class="adcd355c-f5a4-40e4-8e65-8c420609f40f" x1="356.82" y1="413.74" x2="644" y2="413.74"/><polygon class="b8287170-ba17-4b8f-8738-57b6fea06062" points="358.28 418.73 349.64 413.74 358.28 408.76 358.28 418.73"/><polygon class="b8287170-ba17-4b8f-8738-57b6fea06062" points="642.54 418.73 651.18 413.74 642.54 408.76 642.54 418.73"/><line class="adcd355c-f5a4-40e4-8e65-8c420609f40f" x1="499.25" y1="142.81" x2="499.25" y2="824.19"/><line class="b770a8bd-38e8-4668-96f7-db1b952911b8" x1="208.43" y1="278.28" x2="211.43" y2="278.28"/><line class="ad03bc7d-f09f-4793-ad12-9d51ed121ac6" x1="223.65" y1="278.28" x2="309.15" y2="278.28"/><line class="b770a8bd-38e8-4668-96f7-db1b952911b8" x1="315.26" y1="278.28" x2="318.26" y2="278.28"/><text class="f836ace8-4344-4c73-a6e0-fecad7b8b3ed" transform="translate(11.34 491.85)">Cluster: <tspan class="a09a449a-198a-4097-b2e4-42f8ba194917" x="50.83" y="0">W</tspan><tspan x="63" y="0">est-2</tspan></text><path class="e8899fee-db2c-499d-b7ee-e44d378413c0" d="M467.46,879.5,23,877.82a11.66,11.66,0,0,1-11.62-11.63V507A11.66,11.66,0,0,1,23,495.35L467.46,497a11.66,11.66,0,0,1,11.62,11.62V867.88A11.66,11.66,0,0,1,467.46,879.5Z"/><rect class="e868c483-0407-4441-8f24-f6820d5a12b8" x="130.4" y="511.56" width="229.71" height="83.68" rx="3"/><rect class="b120db43-3f97-4ffd-9857-d02a25849cc2" x="140.44" y="522.02" width="135.98" height="62.76" rx="3"/><text class="e7b33e9d-b664-45e1-945a-4c6e8d6515a4" transform="translate(201.4 559.03)">Se<tspan class="ad8f822a-18e9-47a6-a3d2-bb59fb006f54" x="18.27" y="0">r</tspan><tspan class="f89523b6-9f77-4e3d-b2b8-08b72ba4dd5e" x="23.92" y="0">vice A</tspan></text><circle class="a928f8ec-6a8f-41d8-a6a9-90a8e9321324" cx="171.82" cy="553.4" r="20.92"/><rect class="e6c47625-36ad-458f-bafe-830fcd609c62" x="164.39" y="545.83" width="14.86" height="14.86"/><line class="b9c1631d-77a6-4bae-b716-adc6550439d9" x1="167.14" y1="545.83" x2="167.14" y2="542.25"/><line class="b9c1631d-77a6-4bae-b716-adc6550439d9" x1="171.82" y1="545.83" x2="171.82" y2="542.25"/><line class="b9c1631d-77a6-4bae-b716-adc6550439d9" x1="176.5" y1="545.83" x2="176.5" y2="542.25"/><line class="b9c1631d-77a6-4bae-b716-adc6550439d9" x1="167.14" y1="564.55" x2="167.14" y2="560.97"/><line class="b9c1631d-77a6-4bae-b716-adc6550439d9" x1="171.82" y1="564.55" x2="171.82" y2="560.97"/><line class="b9c1631d-77a6-4bae-b716-adc6550439d9" x1="176.5" y1="564.55" x2="176.5" y2="560.97"/><line class="b9c1631d-77a6-4bae-b716-adc6550439d9" x1="164.25" y1="558.08" x2="160.68" y2="558.08"/><line class="b9c1631d-77a6-4bae-b716-adc6550439d9" x1="164.25" y1="553.4" x2="160.68" y2="553.4"/><line class="b9c1631d-77a6-4bae-b716-adc6550439d9" x1="164.25" y1="548.72" x2="160.68" y2="548.72"/><line class="b9c1631d-77a6-4bae-b716-adc6550439d9" x1="182.97" y1="558.08" x2="179.39" y2="558.08"/><line class="b9c1631d-77a6-4bae-b716-adc6550439d9" x1="182.97" y1="553.4" x2="179.39" y2="553.4"/><line class="b9c1631d-77a6-4bae-b716-adc6550439d9" x1="182.97" y1="548.72" x2="179.39" y2="548.72"/><rect class="b120db43-3f97-4ffd-9857-d02a25849cc2" x="168.52" y="549.96" width="6.61" height="6.61" rx="2"/><rect class="b120db43-3f97-4ffd-9857-d02a25849cc2" x="286.88" y="522.02" width="62.76" height="62.76" rx="3"/><polygon class="e51a8f16-eda9-44b7-b237-eeddf86499eb" points="333.67 562.29 333.67 544.51 318.26 535.62 302.85 544.51 302.85 562.29 318.26 571.18 333.67 562.29"/><rect class="e868c483-0407-4441-8f24-f6820d5a12b8" x="130.4" y="782.49" width="229.71" height="83.68" rx="3"/><rect class="b120db43-3f97-4ffd-9857-d02a25849cc2" x="140.44" y="792.95" width="135.98" height="62.76" rx="3"/><text class="e7b33e9d-b664-45e1-945a-4c6e8d6515a4" transform="translate(201.64 829.95)">Se<tspan class="ad8f822a-18e9-47a6-a3d2-bb59fb006f54" x="18.27" y="0">r</tspan><tspan class="f89523b6-9f77-4e3d-b2b8-08b72ba4dd5e" x="23.92" y="0">vice B</tspan></text><circle class="a928f8ec-6a8f-41d8-a6a9-90a8e9321324" cx="171.82" cy="824.33" r="20.92"/><rect class="e6c47625-36ad-458f-bafe-830fcd609c62" x="164.39" y="816.76" width="14.86" height="14.86"/><line class="b9c1631d-77a6-4bae-b716-adc6550439d9" x1="167.14" y1="816.76" x2="167.14" y2="813.18"/><line class="b9c1631d-77a6-4bae-b716-adc6550439d9" x1="171.82" y1="816.76" x2="171.82" y2="813.18"/><line class="b9c1631d-77a6-4bae-b716-adc6550439d9" x1="176.5" y1="816.76" x2="176.5" y2="813.18"/><line class="b9c1631d-77a6-4bae-b716-adc6550439d9" x1="167.14" y1="835.48" x2="167.14" y2="831.9"/><line class="b9c1631d-77a6-4bae-b716-adc6550439d9" x1="171.82" y1="835.48" x2="171.82" y2="831.9"/><line class="b9c1631d-77a6-4bae-b716-adc6550439d9" x1="176.5" y1="835.48" x2="176.5" y2="831.9"/><line class="b9c1631d-77a6-4bae-b716-adc6550439d9" x1="164.25" y1="829.01" x2="160.68" y2="829.01"/><line class="b9c1631d-77a6-4bae-b716-adc6550439d9" x1="164.25" y1="824.33" x2="160.68" y2="824.33"/><line class="b9c1631d-77a6-4bae-b716-adc6550439d9" x1="164.25" y1="819.65" x2="160.68" y2="819.65"/><line class="b9c1631d-77a6-4bae-b716-adc6550439d9" x1="182.97" y1="829.01" x2="179.39" y2="829.01"/><line class="b9c1631d-77a6-4bae-b716-adc6550439d9" x1="182.97" y1="824.33" x2="179.39" y2="824.33"/><line class="b9c1631d-77a6-4bae-b716-adc6550439d9" x1="182.97" y1="819.65" x2="179.39" y2="819.65"/><rect class="b120db43-3f97-4ffd-9857-d02a25849cc2" x="168.52" y="820.89" width="6.61" height="6.61" rx="2"/><rect class="b120db43-3f97-4ffd-9857-d02a25849cc2" x="286.88" y="792.95" width="62.76" height="62.76" rx="3"/><polygon class="e51a8f16-eda9-44b7-b237-eeddf86499eb" points="333.67 833.22 333.67 815.44 318.26 806.55 302.85 815.44 302.85 833.22 318.26 842.11 333.67 833.22"/><line class="b73e80d3-4c99-487c-a4bd-8109219862ea" x1="318.26" y1="591.96" x2="318.26" y2="785.77"/><polygon class="b762b1ee-c214-4db9-935e-f1610d2b4b98" points="313.27 593.41 318.26 584.78 323.25 593.41 313.27 593.41"/><polygon class="b762b1ee-c214-4db9-935e-f1610d2b4b98" points="313.27 784.31 318.26 792.95 323.25 784.31 313.27 784.31"/><line class="adcd355c-f5a4-40e4-8e65-8c420609f40f" x1="356.82" y1="553.4" x2="644" y2="553.4"/><polygon class="b8287170-ba17-4b8f-8738-57b6fea06062" points="358.28 558.39 349.64 553.4 358.28 548.41 358.28 558.39"/><polygon class="b8287170-ba17-4b8f-8738-57b6fea06062" points="642.54 558.39 651.18 553.4 642.54 548.41 642.54 558.39"/><line class="adcd355c-f5a4-40e4-8e65-8c420609f40f" x1="356.82" y1="824.33" x2="644" y2="824.33"/><polygon class="b8287170-ba17-4b8f-8738-57b6fea06062" points="358.28 829.32 349.64 824.33 358.28 819.34 358.28 829.32"/><polygon class="b8287170-ba17-4b8f-8738-57b6fea06062" points="642.54 829.32 651.18 824.33 642.54 819.34 642.54 829.32"/><line class="b770a8bd-38e8-4668-96f7-db1b952911b8" x1="122.27" y1="688.86" x2="125.27" y2="688.86"/><line class="ad772ee4-b88b-4e2c-a4bb-29414ef851f5" x1="137.15" y1="688.86" x2="309.32" y2="688.86"/><line class="b770a8bd-38e8-4668-96f7-db1b952911b8" x1="315.26" y1="688.86" x2="318.26" y2="688.86"/><line class="b73e80d3-4c99-487c-a4bd-8109219862ea" x1="792.38" y1="278.28" x2="682.56" y2="278.28"/><line class="b770a8bd-38e8-4668-96f7-db1b952911b8" x1="122.27" y1="331.01" x2="122.27" y2="334.01"/><line class="a3425cd0-1f40-43e9-a0eb-5a5b736b3ded" x1="122.27" y1="345.94" x2="122.27" y2="679.9"/><line class="b770a8bd-38e8-4668-96f7-db1b952911b8" x1="122.27" y1="685.86" x2="122.27" y2="688.86"/><line class="b770a8bd-38e8-4668-96f7-db1b952911b8" x1="923.99" y1="331.01" x2="923.99" y2="334.01"/><line class="a3425cd0-1f40-43e9-a0eb-5a5b736b3ded" x1="923.99" y1="345.94" x2="923.99" y2="679.9"/><line class="b770a8bd-38e8-4668-96f7-db1b952911b8" x1="923.99" y1="685.86" x2="923.99" y2="688.86"/></g></svg>