<svg xmlns="http://www.w3.org/2000/svg" viewBox="0 0 690.27 523.1"><defs><style>.a0469703-49cf-4286-9a42-7d4198e59cef,.b23aa088-02de-4fe6-be2e-1e270b83f2ce,.b7588705-c0b1-4705-84f3-4a279320cd3b,.b8489b46-773b-4537-8c05-6c43b82b6397,.bb9f7b0f-b313-4e51-9891-805b79f65ea8,.bbd99e2a-2c9d-4b1e-8eea-5a7dff499846{fill:none;}.b7588705-c0b1-4705-84f3-4a279320cd3b{stroke:#466bb0;stroke-dasharray:10 10;}.b23aa088-02de-4fe6-be2e-1e270b83f2ce,.b7588705-c0b1-4705-84f3-4a279320cd3b,.b8489b46-773b-4537-8c05-6c43b82b6397,.bb9f7b0f-b313-4e51-9891-805b79f65ea8{stroke-linejoin:round;}.a065e61b-9a21-47de-8557-36f0cf0befbb{font-size:12px;}.a065e61b-9a21-47de-8557-36f0cf0befbb,.e14510dc-6ae3-4243-8a4f-fd38643dc408,.e772c1c0-0097-41e0-af0a-cca861a22b0a{font-family:Roboto-Regular, Roboto;}.b23aa088-02de-4fe6-be2e-1e270b83f2ce{stroke:#666;}.b23aa088-02de-4fe6-be2e-1e270b83f2ce,.bb9f7b0f-b313-4e51-9891-805b79f65ea8,.bbd99e2a-2c9d-4b1e-8eea-5a7dff499846{stroke-width:2px;}.e14510dc-6ae3-4243-8a4f-fd38643dc408{font-size:13.67px;}.a245f8a2-30d5-414f-b754-ffd853a0cb66{fill:#e6e6e6;}.a5a2651a-8e52-440b-a5e6-fd533a52cfb5{fill:#fff;}.b8489b46-773b-4537-8c05-6c43b82b6397{stroke:#e905ee;stroke-width:3px;}.e772c1c0-0097-41e0-af0a-cca861a22b0a{font-size:15.95px;}.ab328fc0-8179-4179-a14c-e7aa1685f576{letter-spacing:0.01em;}.b462e3f1-723a-4481-86b1-538aee76aa22{fill:#757575;}.bb9f7b0f-b313-4e51-9891-805b79f65ea8,.bbd99e2a-2c9d-4b1e-8eea-5a7dff499846{stroke:#fff;}.bbd99e2a-2c9d-4b1e-8eea-5a7dff499846{stroke-linecap:round;}.a0469703-49cf-4286-9a42-7d4198e59cef,.bbd99e2a-2c9d-4b1e-8eea-5a7dff499846{stroke-miterlimit:10;}.a0469703-49cf-4286-9a42-7d4198e59cef{stroke:#090;stroke-width:4px;}.a2024a38-8553-40ca-afa0-176e3a487e1c{fill:#090;}</style></defs><title>single-net</title><g id="a2b9a91a-731a-4a0c-8a3e-6657842fc6f5" data-name="single-net"><rect class="b7588705-c0b1-4705-84f3-4a279320cd3b" x="0.5" y="13.7" width="689.27" height="508.9" rx="10"/><text class="a065e61b-9a21-47de-8557-36f0cf0befbb" transform="translate(0.48 10.27)">Istio Mesh</text><rect class="b23aa088-02de-4fe6-be2e-1e270b83f2ce" x="16.16" y="36" width="657.92" height="465.84" rx="10"/><text class="e14510dc-6ae3-4243-8a4f-fd38643dc408" transform="translate(37.58 77.93)">Subnet 1</text><rect class="b23aa088-02de-4fe6-be2e-1e270b83f2ce" x="37.66" y="81.36" width="282.29" height="374.99" rx="10"/><text class="e14510dc-6ae3-4243-8a4f-fd38643dc408" transform="translate(370.3 77.93)">Subnet 2</text><rect class="b23aa088-02de-4fe6-be2e-1e270b83f2ce" x="370.38" y="81.36" width="282.29" height="374.99" rx="10"/><rect class="a245f8a2-30d5-414f-b754-ffd853a0cb66" x="398.88" y="127.2" width="225.21" height="82.04" rx="3"/><rect class="a5a2651a-8e52-440b-a5e6-fd533a52cfb5" x="408.73" y="137.45" width="61.53" height="61.53" rx="3"/><polygon class="b8489b46-773b-4537-8c05-6c43b82b6397" points="454.61 176.94 454.61 159.5 439.5 150.79 424.39 159.5 424.39 176.94 439.5 185.65 454.61 176.94"/><rect class="a5a2651a-8e52-440b-a5e6-fd533a52cfb5" x="480.52" y="137.45" width="133.32" height="61.53" rx="3"/><text class="e772c1c0-0097-41e0-af0a-cca861a22b0a" transform="translate(540.52 173.73)">Se<tspan class="ab328fc0-8179-4179-a14c-e7aa1685f576" x="17.92" y="0">r</tspan><tspan x="23.45" y="0">vice B</tspan></text><circle class="b462e3f1-723a-4481-86b1-538aee76aa22" cx="511.29" cy="168.22" r="20.51"/><rect class="bb9f7b0f-b313-4e51-9891-805b79f65ea8" x="504" y="160.8" width="14.57" height="14.57"/><line class="bbd99e2a-2c9d-4b1e-8eea-5a7dff499846" x1="506.7" y1="160.8" x2="506.7" y2="157.29"/><line class="bbd99e2a-2c9d-4b1e-8eea-5a7dff499846" x1="511.29" y1="160.8" x2="511.29" y2="157.29"/><line class="bbd99e2a-2c9d-4b1e-8eea-5a7dff499846" x1="515.87" y1="160.8" x2="515.87" y2="157.29"/><line class="bbd99e2a-2c9d-4b1e-8eea-5a7dff499846" x1="506.7" y1="179.15" x2="506.7" y2="175.64"/><line class="bbd99e2a-2c9d-4b1e-8eea-5a7dff499846" x1="511.29" y1="179.15" x2="511.29" y2="175.64"/><line class="bbd99e2a-2c9d-4b1e-8eea-5a7dff499846" x1="515.87" y1="179.15" x2="515.87" y2="175.64"/><line class="bbd99e2a-2c9d-4b1e-8eea-5a7dff499846" x1="503.86" y1="172.81" x2="500.36" y2="172.81"/><line class="bbd99e2a-2c9d-4b1e-8eea-5a7dff499846" x1="503.86" y1="168.22" x2="500.36" y2="168.22"/><line class="bbd99e2a-2c9d-4b1e-8eea-5a7dff499846" x1="503.86" y1="163.63" x2="500.36" y2="163.63"/><line class="bbd99e2a-2c9d-4b1e-8eea-5a7dff499846" x1="522.22" y1="172.81" x2="518.71" y2="172.81"/><line class="bbd99e2a-2c9d-4b1e-8eea-5a7dff499846" x1="522.22" y1="168.22" x2="518.71" y2="168.22"/><line class="bbd99e2a-2c9d-4b1e-8eea-5a7dff499846" x1="522.22" y1="163.63" x2="518.71" y2="163.63"/><rect class="a5a2651a-8e52-440b-a5e6-fd533a52cfb5" x="508.05" y="164.85" width="6.48" height="6.48" rx="2"/><rect class="a245f8a2-30d5-414f-b754-ffd853a0cb66" x="66.16" y="127.2" width="225.21" height="82.04" rx="3"/><rect class="a5a2651a-8e52-440b-a5e6-fd533a52cfb5" x="76.01" y="137.45" width="133.32" height="61.53" rx="3"/><text class="e772c1c0-0097-41e0-af0a-cca861a22b0a" transform="translate(135.77 173.73)">Se<tspan class="ab328fc0-8179-4179-a14c-e7aa1685f576" x="17.92" y="0">r</tspan><tspan x="23.45" y="0">vice A</tspan></text><circle class="b462e3f1-723a-4481-86b1-538aee76aa22" cx="106.77" cy="168.22" r="20.51"/><rect class="bb9f7b0f-b313-4e51-9891-805b79f65ea8" x="99.49" y="160.8" width="14.57" height="14.57"/><line class="bbd99e2a-2c9d-4b1e-8eea-5a7dff499846" x1="102.19" y1="160.8" x2="102.19" y2="157.29"/><line class="bbd99e2a-2c9d-4b1e-8eea-5a7dff499846" x1="106.77" y1="160.8" x2="106.77" y2="157.29"/><line class="bbd99e2a-2c9d-4b1e-8eea-5a7dff499846" x1="111.36" y1="160.8" x2="111.36" y2="157.29"/><line class="bbd99e2a-2c9d-4b1e-8eea-5a7dff499846" x1="102.19" y1="179.15" x2="102.19" y2="175.64"/><line class="bbd99e2a-2c9d-4b1e-8eea-5a7dff499846" x1="106.77" y1="179.15" x2="106.77" y2="175.64"/><line class="bbd99e2a-2c9d-4b1e-8eea-5a7dff499846" x1="111.36" y1="179.15" x2="111.36" y2="175.64"/><line class="bbd99e2a-2c9d-4b1e-8eea-5a7dff499846" x1="99.35" y1="172.81" x2="95.84" y2="172.81"/><line class="bbd99e2a-2c9d-4b1e-8eea-5a7dff499846" x1="99.35" y1="168.22" x2="95.84" y2="168.22"/><line class="bbd99e2a-2c9d-4b1e-8eea-5a7dff499846" x1="99.35" y1="163.63" x2="95.84" y2="163.63"/><line class="bbd99e2a-2c9d-4b1e-8eea-5a7dff499846" x1="117.7" y1="172.81" x2="114.2" y2="172.81"/><line class="bbd99e2a-2c9d-4b1e-8eea-5a7dff499846" x1="117.7" y1="168.22" x2="114.2" y2="168.22"/><line class="bbd99e2a-2c9d-4b1e-8eea-5a7dff499846" x1="117.7" y1="163.63" x2="114.2" y2="163.63"/><rect class="a5a2651a-8e52-440b-a5e6-fd533a52cfb5" x="103.54" y="164.85" width="6.48" height="6.48" rx="2"/><rect class="a5a2651a-8e52-440b-a5e6-fd533a52cfb5" x="219.58" y="137.45" width="61.53" height="61.53" rx="3"/><polygon class="b8489b46-773b-4537-8c05-6c43b82b6397" points="265.46 176.94 265.46 159.5 250.35 150.79 235.24 159.5 235.24 176.94 250.35 185.65 265.46 176.94"/><rect class="a245f8a2-30d5-414f-b754-ffd853a0cb66" x="398.88" y="316.35" width="225.21" height="82.04" rx="3"/><rect class="a5a2651a-8e52-440b-a5e6-fd533a52cfb5" x="408.73" y="326.61" width="61.53" height="61.53" rx="3"/><polygon class="b8489b46-773b-4537-8c05-6c43b82b6397" points="454.61 366.09 454.61 348.65 439.5 339.94 424.39 348.65 424.39 366.09 439.5 374.81 454.61 366.09"/><rect class="a5a2651a-8e52-440b-a5e6-fd533a52cfb5" x="480.52" y="326.61" width="133.32" height="61.53" rx="3"/><text class="e772c1c0-0097-41e0-af0a-cca861a22b0a" transform="translate(540.28 362.89)">Se<tspan class="ab328fc0-8179-4179-a14c-e7aa1685f576" x="17.92" y="0">r</tspan><tspan x="23.45" y="0">vice A</tspan></text><circle class="b462e3f1-723a-4481-86b1-538aee76aa22" cx="511.29" cy="357.37" r="20.51"/><rect class="bb9f7b0f-b313-4e51-9891-805b79f65ea8" x="504" y="349.95" width="14.57" height="14.57"/><line class="bbd99e2a-2c9d-4b1e-8eea-5a7dff499846" x1="506.7" y1="349.95" x2="506.7" y2="346.44"/><line class="bbd99e2a-2c9d-4b1e-8eea-5a7dff499846" x1="511.29" y1="349.95" x2="511.29" y2="346.44"/><line class="bbd99e2a-2c9d-4b1e-8eea-5a7dff499846" x1="515.87" y1="349.95" x2="515.87" y2="346.44"/><line class="bbd99e2a-2c9d-4b1e-8eea-5a7dff499846" x1="506.7" y1="368.3" x2="506.7" y2="364.79"/><line class="bbd99e2a-2c9d-4b1e-8eea-5a7dff499846" x1="511.29" y1="368.3" x2="511.29" y2="364.79"/><line class="bbd99e2a-2c9d-4b1e-8eea-5a7dff499846" x1="515.87" y1="368.3" x2="515.87" y2="364.79"/><line class="bbd99e2a-2c9d-4b1e-8eea-5a7dff499846" x1="503.86" y1="361.96" x2="500.36" y2="361.96"/><line class="bbd99e2a-2c9d-4b1e-8eea-5a7dff499846" x1="503.86" y1="357.37" x2="500.36" y2="357.37"/><line class="bbd99e2a-2c9d-4b1e-8eea-5a7dff499846" x1="503.86" y1="352.78" x2="500.36" y2="352.78"/><line class="bbd99e2a-2c9d-4b1e-8eea-5a7dff499846" x1="522.22" y1="361.96" x2="518.71" y2="361.96"/><line class="bbd99e2a-2c9d-4b1e-8eea-5a7dff499846" x1="522.22" y1="357.37" x2="518.71" y2="357.37"/><line class="bbd99e2a-2c9d-4b1e-8eea-5a7dff499846" x1="522.22" y1="352.78" x2="518.71" y2="352.78"/><rect class="a5a2651a-8e52-440b-a5e6-fd533a52cfb5" x="508.05" y="354" width="6.48" height="6.48" rx="2"/><rect class="a245f8a2-30d5-414f-b754-ffd853a0cb66" x="66.16" y="316.35" width="225.21" height="82.04" rx="3"/><rect class="a5a2651a-8e52-440b-a5e6-fd533a52cfb5" x="76.01" y="326.61" width="133.32" height="61.53" rx="3"/><text class="e772c1c0-0097-41e0-af0a-cca861a22b0a" transform="translate(136.01 362.89)">Se<tspan class="ab328fc0-8179-4179-a14c-e7aa1685f576" x="17.92" y="0">r</tspan><tspan x="23.45" y="0">vice B</tspan></text><circle class="b462e3f1-723a-4481-86b1-538aee76aa22" cx="106.77" cy="357.37" r="20.51"/><rect class="bb9f7b0f-b313-4e51-9891-805b79f65ea8" x="99.49" y="349.95" width="14.57" height="14.57"/><line class="bbd99e2a-2c9d-4b1e-8eea-5a7dff499846" x1="102.19" y1="349.95" x2="102.19" y2="346.44"/><line class="bbd99e2a-2c9d-4b1e-8eea-5a7dff499846" x1="106.77" y1="349.95" x2="106.77" y2="346.44"/><line class="bbd99e2a-2c9d-4b1e-8eea-5a7dff499846" x1="111.36" y1="349.95" x2="111.36" y2="346.44"/><line class="bbd99e2a-2c9d-4b1e-8eea-5a7dff499846" x1="102.19" y1="368.3" x2="102.19" y2="364.79"/><line class="bbd99e2a-2c9d-4b1e-8eea-5a7dff499846" x1="106.77" y1="368.3" x2="106.77" y2="364.79"/><line class="bbd99e2a-2c9d-4b1e-8eea-5a7dff499846" x1="111.36" y1="368.3" x2="111.36" y2="364.79"/><line class="bbd99e2a-2c9d-4b1e-8eea-5a7dff499846" x1="99.35" y1="361.96" x2="95.84" y2="361.96"/><line class="bbd99e2a-2c9d-4b1e-8eea-5a7dff499846" x1="99.35" y1="357.37" x2="95.84" y2="357.37"/><line class="bbd99e2a-2c9d-4b1e-8eea-5a7dff499846" x1="99.35" y1="352.78" x2="95.84" y2="352.78"/><line class="bbd99e2a-2c9d-4b1e-8eea-5a7dff499846" x1="117.7" y1="361.96" x2="114.2" y2="361.96"/><line class="bbd99e2a-2c9d-4b1e-8eea-5a7dff499846" x1="117.7" y1="357.37" x2="114.2" y2="357.37"/><line class="bbd99e2a-2c9d-4b1e-8eea-5a7dff499846" x1="117.7" y1="352.78" x2="114.2" y2="352.78"/><rect class="a5a2651a-8e52-440b-a5e6-fd533a52cfb5" x="103.54" y="354" width="6.48" height="6.48" rx="2"/><rect class="a5a2651a-8e52-440b-a5e6-fd533a52cfb5" x="219.58" y="326.61" width="61.53" height="61.53" rx="3"/><polygon class="b8489b46-773b-4537-8c05-6c43b82b6397" points="265.46 366.09 265.46 348.65 250.35 339.94 235.24 348.65 235.24 366.09 250.35 374.81 265.46 366.09"/><line class="a0469703-49cf-4286-9a42-7d4198e59cef" x1="401.56" y1="168.22" x2="288.29" y2="168.22"/><polygon class="a2024a38-8553-40ca-afa0-176e3a487e1c" points="400.1 163.23 408.73 168.22 400.1 173.21 400.1 163.23"/><polygon class="a2024a38-8553-40ca-afa0-176e3a487e1c" points="289.75 163.23 281.11 168.22 289.75 173.21 289.75 163.23"/><line class="a0469703-49cf-4286-9a42-7d4198e59cef" x1="288.29" y1="357.24" x2="401.56" y2="357.24"/><polygon class="a2024a38-8553-40ca-afa0-176e3a487e1c" points="289.75 362.22 281.11 357.24 289.75 352.25 289.75 362.22"/><polygon class="a2024a38-8553-40ca-afa0-176e3a487e1c" points="400.1 362.22 408.73 357.24 400.1 352.25 400.1 362.22"/><line class="a0469703-49cf-4286-9a42-7d4198e59cef" x1="250.35" y1="206.16" x2="250.35" y2="319.43"/><polygon class="a2024a38-8553-40ca-afa0-176e3a487e1c" points="245.36 207.62 250.35 198.99 255.33 207.62 245.36 207.62"/><polygon class="a2024a38-8553-40ca-afa0-176e3a487e1c" points="245.36 317.97 250.35 326.61 255.33 317.97 245.36 317.97"/><line class="a0469703-49cf-4286-9a42-7d4198e59cef" x1="439.5" y1="203.99" x2="439.5" y2="317.26"/><polygon class="a2024a38-8553-40ca-afa0-176e3a487e1c" points="434.51 205.45 439.5 196.82 444.49 205.45 434.51 205.45"/><polygon class="a2024a38-8553-40ca-afa0-176e3a487e1c" points="434.51 315.8 439.5 324.44 444.49 315.8 434.51 315.8"/></g><g id="a5e9fc21-1153-4a11-8ff5-d57575eec025" data-name="cluster-iso"><text class="e14510dc-6ae3-4243-8a4f-fd38643dc408" transform="translate(16.16 32.58)">Network</text></g></svg>