<svg xmlns="http://www.w3.org/2000/svg" viewBox="0 0 745.99 684.44"><defs><style>.a7a0954a-f20b-44e4-82c3-7eccf48d5149{fill:#e6e6e6;}.a5359e51-6256-4c38-a1a3-a89964d55b57{fill:#fff;}.a4c415d9-1158-4f46-80b0-56a7a0d34d96,.a564f5bf-68cf-4912-b905-52ef0a713967,.aa7d2846-5c70-47c9-9e78-ae66c5527fec,.ac58a226-553d-4da9-ab1d-f68ae736b802,.b5f922f4-008d-4534-8e47-171f3f2579a6,.eefa9110-aaf9-4935-b25b-21cc69267978,.efdab551-fd04-446f-957a-4c24463db19d{fill:none;}.a4c415d9-1158-4f46-80b0-56a7a0d34d96{stroke:#e905ee;stroke-width:3px;}.a4c415d9-1158-4f46-80b0-56a7a0d34d96,.aa7d2846-5c70-47c9-9e78-ae66c5527fec,.b5f922f4-008d-4534-8e47-171f3f2579a6,.eefa9110-aaf9-4935-b25b-21cc69267978,.efdab551-fd04-446f-957a-4c24463db19d{stroke-linejoin:round;}.a833ddbe-5d92-4df4-8a54-8dd1c600ba50{font-size:14px;}.a29465e5-f98d-46a0-8a2a-cd024bda8b30,.a833ddbe-5d92-4df4-8a54-8dd1c600ba50{font-family:Roboto-Regular, Roboto;}.b44bac86-9849-407a-ba44-281598461ac1{letter-spacing:0.01em;}.a57d4fad-e9b4-4f02-b481-0ac9ee644a10{fill:#757575;}.a564f5bf-68cf-4912-b905-52ef0a713967,.b5f922f4-008d-4534-8e47-171f3f2579a6{stroke:#fff;}.a564f5bf-68cf-4912-b905-52ef0a713967,.aa7d2846-5c70-47c9-9e78-ae66c5527fec,.b5f922f4-008d-4534-8e47-171f3f2579a6{stroke-width:2px;}.a564f5bf-68cf-4912-b905-52ef0a713967,.eefa9110-aaf9-4935-b25b-21cc69267978{stroke-linecap:round;}.a564f5bf-68cf-4912-b905-52ef0a713967,.ac58a226-553d-4da9-ab1d-f68ae736b802{stroke-miterlimit:10;}.eefa9110-aaf9-4935-b25b-21cc69267978{stroke:#486baf;stroke-dasharray:6 12;}.ac58a226-553d-4da9-ab1d-f68ae736b802,.eefa9110-aaf9-4935-b25b-21cc69267978{stroke-width:4px;}.a351fd41-61f0-46eb-8ca9-dc1fa4ed0f83{fill:#486baf;}.ac58a226-553d-4da9-ab1d-f68ae736b802{stroke:#090;}.ee911fa6-d958-47a8-bbae-9719abe657ba{fill:#090;}.efdab551-fd04-446f-957a-4c24463db19d{stroke:#466bb0;stroke-dasharray:9.98 9.98;}.a29465e5-f98d-46a0-8a2a-cd024bda8b30{font-size:12px;}.aa7d2846-5c70-47c9-9e78-ae66c5527fec{stroke:#fbb040;}.a430a657-6e4c-4545-abd5-1437ac85d006{fill:#e5e5e4;}.a4871322-3e23-4d17-a732-77b030d91ce4{letter-spacing:0.02em;}.abec9fda-acbe-4697-8cf2-9049aa18b8dc{letter-spacing:-0.01em;}.a4a7f937-25e9-49f0-a225-35745e329103{fill:#466bb0;}</style></defs><title>single-trust</title><g id="b79ac63c-4a38-4a1b-bd86-f838756fe09b" data-name="single-trust"><rect class="a7a0954a-f20b-44e4-82c3-7eccf48d5149" x="418.2" y="398.61" width="197.65" height="72" rx="3"/><rect class="a5359e51-6256-4c38-a1a3-a89964d55b57" x="426.84" y="407.61" width="54" height="54" rx="3"/><polygon class="a4c415d9-1158-4f46-80b0-56a7a0d34d96" points="467.1 442.26 467.1 426.96 453.84 419.31 440.58 426.96 440.58 442.26 453.84 449.91 467.1 442.26"/><rect class="a5359e51-6256-4c38-a1a3-a89964d55b57" x="489.84" y="407.61" width="117" height="54" rx="3"/><text class="a833ddbe-5d92-4df4-8a54-8dd1c600ba50" transform="translate(542.5 439.45)">Se<tspan class="b44bac86-9849-407a-ba44-281598461ac1" x="15.72" y="0">r</tspan><tspan x="20.58" y="0">vice B</tspan></text><circle class="a57d4fad-e9b4-4f02-b481-0ac9ee644a10" cx="516.84" cy="434.61" r="18"/><rect class="b5f922f4-008d-4534-8e47-171f3f2579a6" x="510.45" y="428.1" width="12.79" height="12.79"/><line class="a564f5bf-68cf-4912-b905-52ef0a713967" x1="512.82" y1="428.1" x2="512.82" y2="425.02"/><line class="a564f5bf-68cf-4912-b905-52ef0a713967" x1="516.84" y1="428.1" x2="516.84" y2="425.02"/><line class="a564f5bf-68cf-4912-b905-52ef0a713967" x1="520.87" y1="428.1" x2="520.87" y2="425.02"/><line class="a564f5bf-68cf-4912-b905-52ef0a713967" x1="512.82" y1="444.2" x2="512.82" y2="441.12"/><line class="a564f5bf-68cf-4912-b905-52ef0a713967" x1="516.84" y1="444.2" x2="516.84" y2="441.12"/><line class="a564f5bf-68cf-4912-b905-52ef0a713967" x1="520.87" y1="444.2" x2="520.87" y2="441.12"/><line class="a564f5bf-68cf-4912-b905-52ef0a713967" x1="510.33" y1="438.64" x2="507.25" y2="438.64"/><line class="a564f5bf-68cf-4912-b905-52ef0a713967" x1="510.33" y1="434.61" x2="507.25" y2="434.61"/><line class="a564f5bf-68cf-4912-b905-52ef0a713967" x1="510.33" y1="430.58" x2="507.25" y2="430.58"/><line class="a564f5bf-68cf-4912-b905-52ef0a713967" x1="526.44" y1="438.64" x2="523.36" y2="438.64"/><line class="a564f5bf-68cf-4912-b905-52ef0a713967" x1="526.44" y1="434.61" x2="523.36" y2="434.61"/><line class="a564f5bf-68cf-4912-b905-52ef0a713967" x1="526.44" y1="430.58" x2="523.36" y2="430.58"/><rect class="a5359e51-6256-4c38-a1a3-a89964d55b57" x="514" y="431.65" width="5.68" height="5.68" rx="2"/><rect class="a7a0954a-f20b-44e4-82c3-7eccf48d5149" x="130.2" y="398.61" width="197.65" height="72" rx="3"/><rect class="a5359e51-6256-4c38-a1a3-a89964d55b57" x="138.84" y="407.61" width="117" height="54" rx="3"/><text class="a833ddbe-5d92-4df4-8a54-8dd1c600ba50" transform="translate(191.29 439.45)">Se<tspan class="b44bac86-9849-407a-ba44-281598461ac1" x="15.72" y="0">r</tspan><tspan x="20.58" y="0">vice A</tspan></text><circle class="a57d4fad-e9b4-4f02-b481-0ac9ee644a10" cx="165.84" cy="434.61" r="18"/><rect class="b5f922f4-008d-4534-8e47-171f3f2579a6" x="159.45" y="428.1" width="12.79" height="12.79"/><line class="a564f5bf-68cf-4912-b905-52ef0a713967" x1="161.82" y1="428.1" x2="161.82" y2="425.02"/><line class="a564f5bf-68cf-4912-b905-52ef0a713967" x1="165.84" y1="428.1" x2="165.84" y2="425.02"/><line class="a564f5bf-68cf-4912-b905-52ef0a713967" x1="169.87" y1="428.1" x2="169.87" y2="425.02"/><line class="a564f5bf-68cf-4912-b905-52ef0a713967" x1="161.82" y1="444.2" x2="161.82" y2="441.12"/><line class="a564f5bf-68cf-4912-b905-52ef0a713967" x1="165.84" y1="444.2" x2="165.84" y2="441.12"/><line class="a564f5bf-68cf-4912-b905-52ef0a713967" x1="169.87" y1="444.2" x2="169.87" y2="441.12"/><line class="a564f5bf-68cf-4912-b905-52ef0a713967" x1="159.33" y1="438.64" x2="156.25" y2="438.64"/><line class="a564f5bf-68cf-4912-b905-52ef0a713967" x1="159.33" y1="434.61" x2="156.25" y2="434.61"/><line class="a564f5bf-68cf-4912-b905-52ef0a713967" x1="159.33" y1="430.58" x2="156.25" y2="430.58"/><line class="a564f5bf-68cf-4912-b905-52ef0a713967" x1="175.44" y1="438.64" x2="172.36" y2="438.64"/><line class="a564f5bf-68cf-4912-b905-52ef0a713967" x1="175.44" y1="434.61" x2="172.36" y2="434.61"/><line class="a564f5bf-68cf-4912-b905-52ef0a713967" x1="175.44" y1="430.58" x2="172.36" y2="430.58"/><rect class="a5359e51-6256-4c38-a1a3-a89964d55b57" x="163" y="431.65" width="5.68" height="5.68" rx="2"/><rect class="a5359e51-6256-4c38-a1a3-a89964d55b57" x="264.84" y="407.61" width="54" height="54" rx="3"/><polygon class="a4c415d9-1158-4f46-80b0-56a7a0d34d96" points="305.1 442.26 305.1 426.96 291.84 419.31 278.58 426.96 278.58 442.26 291.84 449.91 305.1 442.26"/><polyline class="eefa9110-aaf9-4935-b25b-21cc69267978" points="372.51 321.28 372.51 362.75 291.84 362.75 291.84 400.44"/><polygon class="a351fd41-61f0-46eb-8ca9-dc1fa4ed0f83" points="286.86 398.98 291.84 407.61 296.83 398.98 286.86 398.98"/><polyline class="eefa9110-aaf9-4935-b25b-21cc69267978" points="372.84 321.28 372.84 362.75 453.51 362.75 453.51 400.44"/><polygon class="a351fd41-61f0-46eb-8ca9-dc1fa4ed0f83" points="448.52 398.98 453.51 407.61 458.49 398.98 448.52 398.98"/><line class="ac58a226-553d-4da9-ab1d-f68ae736b802" x1="326.02" y1="434.75" x2="419.67" y2="434.75"/><polygon class="ee911fa6-d958-47a8-bbae-9719abe657ba" points="327.48 439.74 318.84 434.75 327.48 429.77 327.48 439.74"/><polygon class="ee911fa6-d958-47a8-bbae-9719abe657ba" points="418.21 439.74 426.84 434.75 418.21 429.77 418.21 439.74"/><rect class="efdab551-fd04-446f-957a-4c24463db19d" x="0.5" y="13.7" width="744.99" height="670.24" rx="10"/><text class="a29465e5-f98d-46a0-8a2a-cd024bda8b30" transform="translate(0.48 10.27)">Istio Mesh</text><text class="a29465e5-f98d-46a0-8a2a-cd024bda8b30" transform="translate(74.46 77.05)">Cluster</text><rect class="aa7d2846-5c70-47c9-9e78-ae66c5527fec" x="74.53" y="80.06" width="596.99" height="537.09" rx="10"/><rect class="a430a657-6e4c-4545-abd5-1437ac85d006" x="311.92" y="229.59" width="123.25" height="91.69" rx="3"/><rect class="a5359e51-6256-4c38-a1a3-a89964d55b57" x="320.72" y="273.02" width="105.64" height="42.67" rx="3"/><text class="a833ddbe-5d92-4df4-8a54-8dd1c600ba50" transform="translate(341.16 290.04)">Ce<tspan class="a4871322-3e23-4d17-a732-77b030d91ce4" x="16.53" y="0">r</tspan><tspan x="21.61" y="0">tificate</tspan><tspan class="abec9fda-acbe-4697-8cf2-9049aa18b8dc" x="4.2" y="16.8">A</tspan><tspan x="13.25" y="16.8">uthority</tspan></text><path class="a4a7f937-25e9-49f0-a225-35745e329103" d="M382,247.81a5,5,0,0,1,5.05,5v1.68a1.71,1.71,0,0,1-1.69,1.69H361.78a1.71,1.71,0,0,1-1.68-1.69v-1.68a5,5,0,0,1,5-5h3.52a1.47,1.47,0,0,0,1.08-.45,1.43,1.43,0,0,0,.44-1.07v-.06a11.53,11.53,0,0,0-1.2-4.72,4.83,4.83,0,0,1-.48-2.11,4.91,4.91,0,0,1,.82-2.75,5.08,5.08,0,0,1,2.2-1.87,4.79,4.79,0,0,1,2.92-.34,5,5,0,0,1,2.65,1.42,5.12,5.12,0,0,1,1.45,2.65,4.9,4.9,0,0,1-.53,3.15,9.31,9.31,0,0,0-1.1,4.1v.53a1.54,1.54,0,0,0,1.52,1.52Zm-20.17,13.45V257.9h23.53v3.36Z"/><path class="ee911fa6-d958-47a8-bbae-9719abe657ba" d="M381.17,408.43a2.36,2.36,0,0,1,2.37,2.36v9.46a2.36,2.36,0,0,1-2.37,2.36H363.84a2.36,2.36,0,0,1-2.36-2.36v-9.46a2.36,2.36,0,0,1,2.36-2.36H365v-3.54a7.32,7.32,0,0,1,1-3.75,7.55,7.55,0,0,1,2.74-2.73,7.43,7.43,0,0,1,7.48,0,7.45,7.45,0,0,1,2.73,2.73,7.23,7.23,0,0,1,1,3.75v3.54Zm-5.12,0v-3.54a3.55,3.55,0,1,0-7.09,0v3.54Z"/><text class="a29465e5-f98d-46a0-8a2a-cd024bda8b30" transform="translate(356.88 392.86)">mTLS</text></g></svg>