<svg id="bd63af8b-2490-49eb-9c3c-c7679cb39ac8" data-name="single-cluster" xmlns="http://www.w3.org/2000/svg" viewBox="0 0 745.99 684.44"><defs><style>.f8aec56e-d142-48f0-9f8a-4bd66abc2e89{fill:#e5e5e4;}.b8b9371d-efda-4d49-85a5-93c5c51c4eac{fill:#fff;}.eb5dd925-d721-415c-aa88-060f024ce125{font-size:18.79px;}.b566a8b1-7d32-4a8b-a4f6-983224e64b52,.e355496f-8807-4f9e-b38d-27ec63f8bfe5,.eb5dd925-d721-415c-aa88-060f024ce125{font-family:Roboto-Regular, Roboto;}.bf76a561-8980-4323-bfbd-158e816d1d3f{letter-spacing:-0.02em;}.b393e842-fb99-44dd-b4b9-0a637ed4decb{letter-spacing:0em;}.ae4e8fc5-ad30-49e7-8e08-6d2d493a6a25{fill:#486baf;}.be65fc86-6ccd-46a3-8db2-886e1010a599{fill:#e6e6e6;}.a350f499-bb6c-4f4f-8b8f-17b595900545,.a56f653e-56f1-4e5e-8c19-579f8225685a,.a9a05cd5-ffec-41bc-8a6b-475100a5b71f,.ab235ef7-9cdf-4a0b-948e-e088f605665b,.b44f84d8-d7a0-4f2d-a048-f1895d8b37e3,.f0e6886b-e895-4009-808b-5369ee658bb0,.f7cac5c0-0e45-4e9b-a1b0-3b837773cd20{fill:none;}.f7cac5c0-0e45-4e9b-a1b0-3b837773cd20{stroke:#e905ee;stroke-width:3px;}.a56f653e-56f1-4e5e-8c19-579f8225685a,.a9a05cd5-ffec-41bc-8a6b-475100a5b71f,.ab235ef7-9cdf-4a0b-948e-e088f605665b,.b44f84d8-d7a0-4f2d-a048-f1895d8b37e3,.f7cac5c0-0e45-4e9b-a1b0-3b837773cd20{stroke-linejoin:round;}.ae4216f7-dcec-40bd-94e0-bc5bcad237a8{letter-spacing:0.01em;}.a7c2dc07-0d2b-434e-b98f-496d68f1e797{fill:#757575;}.a350f499-bb6c-4f4f-8b8f-17b595900545,.a9a05cd5-ffec-41bc-8a6b-475100a5b71f{stroke:#fff;}.a350f499-bb6c-4f4f-8b8f-17b595900545,.a9a05cd5-ffec-41bc-8a6b-475100a5b71f,.b44f84d8-d7a0-4f2d-a048-f1895d8b37e3{stroke-width:2px;}.a350f499-bb6c-4f4f-8b8f-17b595900545,.a56f653e-56f1-4e5e-8c19-579f8225685a{stroke-linecap:round;}.a350f499-bb6c-4f4f-8b8f-17b595900545,.f0e6886b-e895-4009-808b-5369ee658bb0{stroke-miterlimit:10;}.a56f653e-56f1-4e5e-8c19-579f8225685a{stroke:#486baf;stroke-dasharray:6 12;}.a56f653e-56f1-4e5e-8c19-579f8225685a,.f0e6886b-e895-4009-808b-5369ee658bb0{stroke-width:4px;}.f0e6886b-e895-4009-808b-5369ee658bb0{stroke:#090;}.b58b082f-d3ab-4f2e-bb0b-9a450c520e49{fill:#090;}.ab235ef7-9cdf-4a0b-948e-e088f605665b{stroke:#466bb0;stroke-dasharray:9.98 9.98;}.e355496f-8807-4f9e-b38d-27ec63f8bfe5{font-size:12px;}.b566a8b1-7d32-4a8b-a4f6-983224e64b52{font-size:13.86px;}.b44f84d8-d7a0-4f2d-a048-f1895d8b37e3{stroke:#fbb040;}</style></defs><title>single-cluster</title><rect class="f8aec56e-d142-48f0-9f8a-4bd66abc2e89" x="291.04" y="191.16" width="165.4" height="101.23" rx="3"/><rect class="b8b9371d-efda-4d49-85a5-93c5c51c4eac" x="302.85" y="249.44" width="141.77" height="35.44" rx="3"/><text class="eb5dd925-d721-415c-aa88-060f024ce125" transform="translate(317.56 272.72)">Cont<tspan class="bf76a561-8980-4323-bfbd-158e816d1d3f" x="39.45" y="0">r</tspan><tspan class="b393e842-fb99-44dd-b4b9-0a637ed4decb" x="45.49" y="0">ol Plane</tspan></text><rect id="bb9dd4a0-c04f-46c7-8996-a1f05d143c02" data-name="background" class="ae4e8fc5-ad30-49e7-8e08-6d2d493a6a25" x="354.66" y="191.16" width="38.16" height="38.16"/><polygon id="a140269e-adaa-4af2-b7ed-8e63c79c3c71" data-name="hull" class="b8b9371d-efda-4d49-85a5-93c5c51c4eac" points="362.2 223.22 385.28 223.22 370.85 227.55 362.2 223.22"/><polygon id="a71323dd-452c-49a5-83c1-880315988c38" data-name="mainsail" class="b8b9371d-efda-4d49-85a5-93c5c51c4eac" points="362.2 221.78 370.85 220.34 370.85 204.47 362.2 221.78"/><polygon id="aff050bf-0165-4d9f-810d-dd742c9727b4" data-name="headsail" class="b8b9371d-efda-4d49-85a5-93c5c51c4eac" points="372.3 220.34 385.28 221.78 372.3 192.93 372.3 220.34"/><rect class="be65fc86-6ccd-46a3-8db2-886e1010a599" x="433.61" y="396.16" width="265.23" height="96.62" rx="3"/><rect class="b8b9371d-efda-4d49-85a5-93c5c51c4eac" x="445.21" y="408.24" width="72.46" height="72.46" rx="3"/><polygon class="f7cac5c0-0e45-4e9b-a1b0-3b837773cd20" points="499.24 454.74 499.24 434.21 481.44 423.94 463.65 434.21 463.65 454.74 481.44 465 499.24 454.74"/><rect class="b8b9371d-efda-4d49-85a5-93c5c51c4eac" x="529.75" y="408.24" width="157.01" height="72.46" rx="3"/><text class="eb5dd925-d721-415c-aa88-060f024ce125" transform="translate(600.42 450.97)">Se<tspan class="ae4216f7-dcec-40bd-94e0-bc5bcad237a8" x="21.1" y="0">r</tspan><tspan x="27.62" y="0">vice B</tspan></text><circle class="a7c2dc07-0d2b-434e-b98f-496d68f1e797" cx="565.99" cy="444.47" r="24.15"/><rect class="a9a05cd5-ffec-41bc-8a6b-475100a5b71f" x="557.41" y="435.73" width="17.16" height="17.16"/><line class="a350f499-bb6c-4f4f-8b8f-17b595900545" x1="560.58" y1="435.73" x2="560.58" y2="431.6"/><line class="a350f499-bb6c-4f4f-8b8f-17b595900545" x1="565.99" y1="435.73" x2="565.99" y2="431.6"/><line class="a350f499-bb6c-4f4f-8b8f-17b595900545" x1="571.39" y1="435.73" x2="571.39" y2="431.6"/><line class="a350f499-bb6c-4f4f-8b8f-17b595900545" x1="560.58" y1="457.34" x2="560.58" y2="453.21"/><line class="a350f499-bb6c-4f4f-8b8f-17b595900545" x1="565.99" y1="457.34" x2="565.99" y2="453.21"/><line class="a350f499-bb6c-4f4f-8b8f-17b595900545" x1="571.39" y1="457.34" x2="571.39" y2="453.21"/><line class="a350f499-bb6c-4f4f-8b8f-17b595900545" x1="557.25" y1="449.88" x2="553.12" y2="449.88"/><line class="a350f499-bb6c-4f4f-8b8f-17b595900545" x1="557.25" y1="444.47" x2="553.12" y2="444.47"/><line class="a350f499-bb6c-4f4f-8b8f-17b595900545" x1="557.25" y1="439.07" x2="553.12" y2="439.07"/><line class="a350f499-bb6c-4f4f-8b8f-17b595900545" x1="578.86" y1="449.88" x2="574.73" y2="449.88"/><line class="a350f499-bb6c-4f4f-8b8f-17b595900545" x1="578.86" y1="444.47" x2="574.73" y2="444.47"/><line class="a350f499-bb6c-4f4f-8b8f-17b595900545" x1="578.86" y1="439.07" x2="574.73" y2="439.07"/><rect class="b8b9371d-efda-4d49-85a5-93c5c51c4eac" x="562.17" y="440.5" width="7.63" height="7.63" rx="2"/><rect class="be65fc86-6ccd-46a3-8db2-886e1010a599" x="47.13" y="396.16" width="265.23" height="96.62" rx="3"/><rect class="b8b9371d-efda-4d49-85a5-93c5c51c4eac" x="58.74" y="408.24" width="157.01" height="72.46" rx="3"/><text class="eb5dd925-d721-415c-aa88-060f024ce125" transform="translate(129.12 450.97)">Se<tspan class="ae4216f7-dcec-40bd-94e0-bc5bcad237a8" x="21.1" y="0">r</tspan><tspan x="27.62" y="0">vice A</tspan></text><circle class="a7c2dc07-0d2b-434e-b98f-496d68f1e797" cx="94.97" cy="444.47" r="24.15"/><rect class="a9a05cd5-ffec-41bc-8a6b-475100a5b71f" x="86.39" y="435.73" width="17.16" height="17.16"/><line class="a350f499-bb6c-4f4f-8b8f-17b595900545" x1="89.56" y1="435.73" x2="89.56" y2="431.6"/><line class="a350f499-bb6c-4f4f-8b8f-17b595900545" x1="94.97" y1="435.73" x2="94.97" y2="431.6"/><line class="a350f499-bb6c-4f4f-8b8f-17b595900545" x1="100.37" y1="435.73" x2="100.37" y2="431.6"/><line class="a350f499-bb6c-4f4f-8b8f-17b595900545" x1="89.56" y1="457.34" x2="89.56" y2="453.21"/><line class="a350f499-bb6c-4f4f-8b8f-17b595900545" x1="94.97" y1="457.34" x2="94.97" y2="453.21"/><line class="a350f499-bb6c-4f4f-8b8f-17b595900545" x1="100.37" y1="457.34" x2="100.37" y2="453.21"/><line class="a350f499-bb6c-4f4f-8b8f-17b595900545" x1="86.23" y1="449.88" x2="82.1" y2="449.88"/><line class="a350f499-bb6c-4f4f-8b8f-17b595900545" x1="86.23" y1="444.47" x2="82.1" y2="444.47"/><line class="a350f499-bb6c-4f4f-8b8f-17b595900545" x1="86.23" y1="439.07" x2="82.1" y2="439.07"/><line class="a350f499-bb6c-4f4f-8b8f-17b595900545" x1="107.84" y1="449.88" x2="103.71" y2="449.88"/><line class="a350f499-bb6c-4f4f-8b8f-17b595900545" x1="107.84" y1="444.47" x2="103.71" y2="444.47"/><line class="a350f499-bb6c-4f4f-8b8f-17b595900545" x1="107.84" y1="439.07" x2="103.71" y2="439.07"/><rect class="b8b9371d-efda-4d49-85a5-93c5c51c4eac" x="91.15" y="440.5" width="7.63" height="7.63" rx="2"/><rect class="b8b9371d-efda-4d49-85a5-93c5c51c4eac" x="227.82" y="408.24" width="72.46" height="72.46" rx="3"/><polygon class="f7cac5c0-0e45-4e9b-a1b0-3b837773cd20" points="281.85 454.74 281.85 434.21 264.05 423.94 246.26 434.21 246.26 454.74 264.05 465 281.85 454.74"/><polyline class="a56f653e-56f1-4e5e-8c19-579f8225685a" points="372.3 292.39 372.3 348.05 264.05 348.05 264.05 401.06"/><polygon class="ae4e8fc5-ad30-49e7-8e08-6d2d493a6a25" points="259.06 399.61 264.05 408.24 269.04 399.61 259.06 399.61"/><polyline class="a56f653e-56f1-4e5e-8c19-579f8225685a" points="372.75 292.39 372.75 348.05 480.99 348.05 480.99 401.06"/><polygon class="ae4e8fc5-ad30-49e7-8e08-6d2d493a6a25" points="476.01 399.61 480.99 408.24 485.98 399.61 476.01 399.61"/><line class="f0e6886b-e895-4009-808b-5369ee658bb0" x1="307.46" y1="444.66" x2="438.04" y2="444.66"/><polygon class="b58b082f-d3ab-4f2e-bb0b-9a450c520e49" points="308.92 449.65 300.28 444.66 308.92 439.68 308.92 449.65"/><polygon class="b58b082f-d3ab-4f2e-bb0b-9a450c520e49" points="436.58 449.65 445.21 444.66 436.58 439.68 436.58 449.65"/><rect class="ab235ef7-9cdf-4a0b-948e-e088f605665b" x="0.5" y="13.7" width="744.99" height="670.24" rx="10"/><text class="e355496f-8807-4f9e-b38d-27ec63f8bfe5" transform="translate(0.48 10.27)">Istio Mesh</text><text class="b566a8b1-7d32-4a8b-a4f6-983224e64b52" transform="translate(29.28 41.17)">Cluster</text><rect class="b44f84d8-d7a0-4f2d-a048-f1895d8b37e3" x="29.36" y="44.64" width="689.63" height="620.44" rx="10"/></svg>