<svg xmlns="http://www.w3.org/2000/svg" viewBox="0 0 745.99 684.44"><defs><style>.a0260fb8-bec0-499e-9628-c1972d991a56,.a2f47c64-16db-4b6b-bdee-377bdc962ed7,.a89c587b-5b9f-4a1e-a284-3e919ecb4173,.aa4d81b4-b20d-4778-852f-605ee6452339,.ae3c68c5-898e-4be1-af4a-a61b5fed005b,.aef6570f-e23c-427c-8451-ddf17f85103f,.aff3d040-f017-4f6c-8df3-721ffc1fff3e,.b0d40f48-2bc1-4bc9-a245-957cb0bcfd59,.b3fd4b19-846b-4599-a8b9-9b489832478e{fill:none;}.a0260fb8-bec0-499e-9628-c1972d991a56{stroke:#466bb0;stroke-dasharray:9.98 9.98;}.a0260fb8-bec0-499e-9628-c1972d991a56,.a2f47c64-16db-4b6b-bdee-377bdc962ed7,.aa4d81b4-b20d-4778-852f-605ee6452339,.ae3c68c5-898e-4be1-af4a-a61b5fed005b,.aef6570f-e23c-427c-8451-ddf17f85103f,.b0d40f48-2bc1-4bc9-a245-957cb0bcfd59,.b3fd4b19-846b-4599-a8b9-9b489832478e{stroke-linejoin:round;}.fd21b7d3-62f5-429c-83ad-9ea9cb42980a{font-size:12px;}.bc4fcfd6-2d22-486a-8c25-40ffdfaeb6b0,.ee6ce7ce-8208-4c00-a054-c9a6c8fbeae7,.f5488a19-d352-4acc-b4a9-7f70c00dfe8c,.fd21b7d3-62f5-429c-83ad-9ea9cb42980a,.fe05dccd-09b7-4b60-8857-e55f452ca8ef{font-family:Roboto-Regular, Roboto;}.ee6ce7ce-8208-4c00-a054-c9a6c8fbeae7{font-size:13.79px;}.ae3c68c5-898e-4be1-af4a-a61b5fed005b{stroke:#fbb040;}.a2f47c64-16db-4b6b-bdee-377bdc962ed7,.ae3c68c5-898e-4be1-af4a-a61b5fed005b,.aff3d040-f017-4f6c-8df3-721ffc1fff3e{stroke-width:2px;}.afe5a57b-ad06-46c1-b935-0a6b429ab05b{fill:#e6e6e6;}.a0c1cb5b-aa32-41c5-98c7-0e1a31f1f21d{fill:#fff;}.aef6570f-e23c-427c-8451-ddf17f85103f{stroke:#e905ee;stroke-width:3px;}.fe05dccd-09b7-4b60-8857-e55f452ca8ef{font-size:18.69px;}.eb50e813-8b20-4d30-a909-e025616e0fdc{letter-spacing:0.01em;}.a29fa498-68fb-4cac-9915-055869fd92ec{letter-spacing:0em;}.e4273cab-89ba-4771-9412-787f2e64fd11{fill:#757575;}.a2f47c64-16db-4b6b-bdee-377bdc962ed7,.aff3d040-f017-4f6c-8df3-721ffc1fff3e{stroke:#fff;}.aa4d81b4-b20d-4778-852f-605ee6452339,.aff3d040-f017-4f6c-8df3-721ffc1fff3e,.b0d40f48-2bc1-4bc9-a245-957cb0bcfd59,.b3fd4b19-846b-4599-a8b9-9b489832478e{stroke-linecap:round;}.a89c587b-5b9f-4a1e-a284-3e919ecb4173,.aff3d040-f017-4f6c-8df3-721ffc1fff3e{stroke-miterlimit:10;}.aa4d81b4-b20d-4778-852f-605ee6452339,.b0d40f48-2bc1-4bc9-a245-957cb0bcfd59,.b3fd4b19-846b-4599-a8b9-9b489832478e{stroke:#486baf;}.a89c587b-5b9f-4a1e-a284-3e919ecb4173,.aa4d81b4-b20d-4778-852f-605ee6452339,.b0d40f48-2bc1-4bc9-a245-957cb0bcfd59,.b3fd4b19-846b-4599-a8b9-9b489832478e{stroke-width:4px;}.b0d40f48-2bc1-4bc9-a245-957cb0bcfd59{stroke-dasharray:6 12;}.b52d1e2a-221d-4d23-a8a7-6776adf075f1{fill:#486baf;}.a89c587b-5b9f-4a1e-a284-3e919ecb4173{stroke:#090;}.f6d62a9b-16ce-463f-af89-bf0cdb03de16{fill:#090;}.b467b650-a80f-4b16-bf28-cdcf0d8712fd{fill:#e5e5e4;}.af1bd92d-16d2-4970-bd00-4ec072af7e2c{letter-spacing:0.02em;}.a350e727-3d9e-4b6d-8f19-6f94114bae9d{letter-spacing:-0.01em;}.fd64d0bc-b359-454a-995d-a2c541a84cab{fill:#466bb0;}.f5488a19-d352-4acc-b4a9-7f70c00dfe8c{font-size:16.02px;}.bc4fcfd6-2d22-486a-8c25-40ffdfaeb6b0{font-size:17.42px;}.ee15c19a-3aa9-4860-8fad-d1d5cffc31f5{letter-spacing:-0.02em;}.bf728a35-6ce1-4fb1-8f93-6af53f64134b{letter-spacing:0em;}.aa4d81b4-b20d-4778-852f-605ee6452339{stroke-dasharray:6.21 12.43;}</style></defs><title>single-trust</title><g id="bce1b5b6-b543-41a5-9bd1-12af24bf6568" data-name="single-trust"><rect class="a0260fb8-bec0-499e-9628-c1972d991a56" x="0.5" y="13.7" width="744.99" height="670.24" rx="10"/><text class="fd21b7d3-62f5-429c-83ad-9ea9cb42980a" transform="translate(0.48 10.27)">Istio Mesh</text><text class="ee6ce7ce-8208-4c00-a054-c9a6c8fbeae7" transform="translate(29.83 37.45)">Cluster</text><rect class="ae3c68c5-898e-4be1-af4a-a61b5fed005b" x="29.91" y="40.91" width="686.23" height="617.38" rx="10"/><rect class="afe5a57b-ad06-46c1-b935-0a6b429ab05b" x="433.34" y="414.87" width="263.89" height="96.13" rx="3"/><rect class="a0c1cb5b-aa32-41c5-98c7-0e1a31f1f21d" x="444.88" y="426.89" width="72.1" height="72.1" rx="3"/><polygon class="aef6570f-e23c-427c-8451-ddf17f85103f" points="498.64 473.15 498.64 452.72 480.93 442.51 463.23 452.72 463.23 473.15 480.93 483.37 498.64 473.15"/><rect class="a0c1cb5b-aa32-41c5-98c7-0e1a31f1f21d" x="529" y="426.89" width="156.21" height="72.1" rx="3"/><text class="fe05dccd-09b7-4b60-8857-e55f452ca8ef" transform="translate(599.31 469.4)">Se<tspan class="eb50e813-8b20-4d30-a909-e025616e0fdc" x="20.99" y="0">r</tspan><tspan class="a29fa498-68fb-4cac-9915-055869fd92ec" x="27.48" y="0">vice B</tspan></text><circle class="e4273cab-89ba-4771-9412-787f2e64fd11" cx="565.05" cy="462.94" r="24.03"/><rect class="a2f47c64-16db-4b6b-bdee-377bdc962ed7" x="556.51" y="454.24" width="17.08" height="17.08"/><line class="aff3d040-f017-4f6c-8df3-721ffc1fff3e" x1="559.67" y1="454.24" x2="559.67" y2="450.13"/><line class="aff3d040-f017-4f6c-8df3-721ffc1fff3e" x1="565.05" y1="454.24" x2="565.05" y2="450.13"/><line class="aff3d040-f017-4f6c-8df3-721ffc1fff3e" x1="570.43" y1="454.24" x2="570.43" y2="450.13"/><line class="aff3d040-f017-4f6c-8df3-721ffc1fff3e" x1="559.67" y1="475.74" x2="559.67" y2="471.63"/><line class="aff3d040-f017-4f6c-8df3-721ffc1fff3e" x1="565.05" y1="475.74" x2="565.05" y2="471.63"/><line class="aff3d040-f017-4f6c-8df3-721ffc1fff3e" x1="570.43" y1="475.74" x2="570.43" y2="471.63"/><line class="aff3d040-f017-4f6c-8df3-721ffc1fff3e" x1="556.35" y1="468.31" x2="552.24" y2="468.31"/><line class="aff3d040-f017-4f6c-8df3-721ffc1fff3e" x1="556.35" y1="462.94" x2="552.24" y2="462.94"/><line class="aff3d040-f017-4f6c-8df3-721ffc1fff3e" x1="556.35" y1="457.56" x2="552.24" y2="457.56"/><line class="aff3d040-f017-4f6c-8df3-721ffc1fff3e" x1="577.86" y1="468.31" x2="573.75" y2="468.31"/><line class="aff3d040-f017-4f6c-8df3-721ffc1fff3e" x1="577.86" y1="462.94" x2="573.75" y2="462.94"/><line class="aff3d040-f017-4f6c-8df3-721ffc1fff3e" x1="577.86" y1="457.56" x2="573.75" y2="457.56"/><rect class="a0c1cb5b-aa32-41c5-98c7-0e1a31f1f21d" x="561.25" y="458.98" width="7.59" height="7.59" rx="2"/><rect class="afe5a57b-ad06-46c1-b935-0a6b429ab05b" x="48.81" y="414.87" width="263.89" height="96.13" rx="3"/><rect class="a0c1cb5b-aa32-41c5-98c7-0e1a31f1f21d" x="60.36" y="426.89" width="156.21" height="72.1" rx="3"/><text class="fe05dccd-09b7-4b60-8857-e55f452ca8ef" transform="translate(130.38 469.4)">Se<tspan class="eb50e813-8b20-4d30-a909-e025616e0fdc" x="20.99" y="0">r</tspan><tspan class="a29fa498-68fb-4cac-9915-055869fd92ec" x="27.48" y="0">vice A</tspan></text><circle class="e4273cab-89ba-4771-9412-787f2e64fd11" cx="96.4" cy="462.94" r="24.03"/><rect class="a2f47c64-16db-4b6b-bdee-377bdc962ed7" x="87.87" y="454.24" width="17.08" height="17.08"/><line class="aff3d040-f017-4f6c-8df3-721ffc1fff3e" x1="91.03" y1="454.24" x2="91.03" y2="450.13"/><line class="aff3d040-f017-4f6c-8df3-721ffc1fff3e" x1="96.4" y1="454.24" x2="96.4" y2="450.13"/><line class="aff3d040-f017-4f6c-8df3-721ffc1fff3e" x1="101.78" y1="454.24" x2="101.78" y2="450.13"/><line class="aff3d040-f017-4f6c-8df3-721ffc1fff3e" x1="91.03" y1="475.74" x2="91.03" y2="471.63"/><line class="aff3d040-f017-4f6c-8df3-721ffc1fff3e" x1="96.4" y1="475.74" x2="96.4" y2="471.63"/><line class="aff3d040-f017-4f6c-8df3-721ffc1fff3e" x1="101.78" y1="475.74" x2="101.78" y2="471.63"/><line class="aff3d040-f017-4f6c-8df3-721ffc1fff3e" x1="87.71" y1="468.31" x2="83.6" y2="468.31"/><line class="aff3d040-f017-4f6c-8df3-721ffc1fff3e" x1="87.71" y1="462.94" x2="83.6" y2="462.94"/><line class="aff3d040-f017-4f6c-8df3-721ffc1fff3e" x1="87.71" y1="457.56" x2="83.6" y2="457.56"/><line class="aff3d040-f017-4f6c-8df3-721ffc1fff3e" x1="109.21" y1="468.31" x2="105.1" y2="468.31"/><line class="aff3d040-f017-4f6c-8df3-721ffc1fff3e" x1="109.21" y1="462.94" x2="105.1" y2="462.94"/><line class="aff3d040-f017-4f6c-8df3-721ffc1fff3e" x1="109.21" y1="457.56" x2="105.1" y2="457.56"/><rect class="a0c1cb5b-aa32-41c5-98c7-0e1a31f1f21d" x="92.61" y="458.98" width="7.59" height="7.59" rx="2"/><rect class="a0c1cb5b-aa32-41c5-98c7-0e1a31f1f21d" x="228.59" y="426.89" width="72.1" height="72.1" rx="3"/><polygon class="aef6570f-e23c-427c-8451-ddf17f85103f" points="282.34 473.15 282.34 452.72 264.64 442.51 246.93 452.72 246.93 473.15 264.64 483.37 282.34 473.15"/><polyline class="b0d40f48-2bc1-4bc9-a245-957cb0bcfd59" points="372.33 367 264.64 367 264.64 419.71"/><polygon class="b52d1e2a-221d-4d23-a8a7-6776adf075f1" points="259.65 418.25 264.64 426.89 269.62 418.25 259.65 418.25"/><polyline class="b0d40f48-2bc1-4bc9-a245-957cb0bcfd59" points="372.79 250.84 372.79 367 480.48 367 480.48 419.71"/><polygon class="b52d1e2a-221d-4d23-a8a7-6776adf075f1" points="475.5 418.25 480.48 426.89 485.47 418.25 475.5 418.25"/><line class="a89c587b-5b9f-4a1e-a284-3e919ecb4173" x1="307.86" y1="463.13" x2="437.71" y2="463.13"/><polygon class="f6d62a9b-16ce-463f-af89-bf0cdb03de16" points="309.32 468.11 300.69 463.13 309.32 458.14 309.32 468.11"/><polygon class="f6d62a9b-16ce-463f-af89-bf0cdb03de16" points="436.25 468.11 444.88 463.13 436.25 458.14 436.25 468.11"/><rect class="b467b650-a80f-4b16-bf28-cdcf0d8712fd" x="483" y="189.19" width="164.56" height="122.43" rx="3"/><rect class="a0c1cb5b-aa32-41c5-98c7-0e1a31f1f21d" x="494.76" y="247.18" width="141.05" height="56.97" rx="3"/><text class="fe05dccd-09b7-4b60-8857-e55f452ca8ef" transform="translate(522.05 269.91)">Ce<tspan class="af1bd92d-16d2-4970-bd00-4ec072af7e2c" x="22.07" y="0">r</tspan><tspan x="28.85" y="0">tificate</tspan><tspan class="a350e727-3d9e-4b6d-8f19-6f94114bae9d" x="5.6" y="22.43">A</tspan><tspan x="17.7" y="22.43">uthority</tspan></text><path class="fd64d0bc-b359-454a-995d-a2c541a84cab" d="M576.51,213.53a6.69,6.69,0,0,1,6.73,6.73v2.24a2.27,2.27,0,0,1-2.24,2.25H549.57a2.29,2.29,0,0,1-2.24-2.25v-2.24a6.69,6.69,0,0,1,6.73-6.73h4.7a2,2,0,0,0,2-2v-.07a15.3,15.3,0,0,0-1.62-6.31,6.68,6.68,0,0,1,.46-6.49,6.78,6.78,0,0,1,3-2.49,6.32,6.32,0,0,1,3.89-.45,6.62,6.62,0,0,1,3.54,1.89,6.85,6.85,0,0,1,1.93,3.54,6.58,6.58,0,0,1-.7,4.21,12.37,12.37,0,0,0-1.48,5.47v.7a2,2,0,0,0,2,2Zm-26.94,17.95V227H581v4.49Z"/><path class="f6d62a9b-16ce-463f-af89-bf0cdb03de16" d="M383.91,428a3.14,3.14,0,0,1,3.15,3.16v12.62a3.16,3.16,0,0,1-3.15,3.16H360.77a3.16,3.16,0,0,1-3.16-3.16V431.14a3.14,3.14,0,0,1,3.16-3.16h1.57v-4.73a9.72,9.72,0,0,1,1.35-5,10.14,10.14,0,0,1,3.65-3.65,10,10,0,0,1,10,0,10.06,10.06,0,0,1,3.65,3.65,9.72,9.72,0,0,1,1.35,5V428Zm-6.84,0v-4.73a4.74,4.74,0,1,0-9.47,0V428Z"/><text class="f5488a19-d352-4acc-b4a9-7f70c00dfe8c" transform="translate(351.47 407.19)">mTLS</text><rect class="b467b650-a80f-4b16-bf28-cdcf0d8712fd" x="104.09" y="203.49" width="153.32" height="93.84" rx="3"/><rect class="a0c1cb5b-aa32-41c5-98c7-0e1a31f1f21d" x="115.05" y="257.51" width="131.42" height="32.86" rx="3"/><text class="bc4fcfd6-2d22-486a-8c25-40ffdfaeb6b0" transform="translate(128.67 279.09)">Cont<tspan class="ee15c19a-3aa9-4860-8fad-d1d5cffc31f5" x="36.57" y="0">r</tspan><tspan class="bf728a35-6ce1-4fb1-8f93-6af53f64134b" x="42.17" y="0">ol Plane</tspan></text><rect id="a053c1a2-db21-46a6-a228-1649c9cb2037" data-name="background" class="b52d1e2a-221d-4d23-a8a7-6776adf075f1" x="163.07" y="203.49" width="35.38" height="35.38"/><polygon id="e8d6e127-e11f-4f5a-81d8-a94c0b46c233" data-name="hull" class="a0c1cb5b-aa32-41c5-98c7-0e1a31f1f21d" points="170.06 233.21 191.46 233.21 178.08 237.22 170.06 233.21"/><polygon id="e9b6a605-9d3f-42db-a687-13e72dadc651" data-name="mainsail" class="a0c1cb5b-aa32-41c5-98c7-0e1a31f1f21d" points="170.06 231.87 178.08 230.53 178.08 215.82 170.06 231.87"/><polygon id="a7cd7b4d-edd2-4176-bb7b-b2fc10c3ec80" data-name="headsail" class="a0c1cb5b-aa32-41c5-98c7-0e1a31f1f21d" points="179.42 230.53 191.46 231.87 179.42 205.13 179.42 230.53"/><line class="b3fd4b19-846b-4599-a8b9-9b489832478e" x1="257.42" y1="250.41" x2="260.42" y2="250.41"/><line class="aa4d81b4-b20d-4778-852f-605ee6452339" x1="272.85" y1="250.41" x2="471.72" y2="250.41"/><line class="b3fd4b19-846b-4599-a8b9-9b489832478e" x1="477.93" y1="250.41" x2="480.93" y2="250.41"/></g></svg>