<svg xmlns="http://www.w3.org/2000/svg" viewBox="0 0 690.27 523.1"><defs><style>.a39cc158-70d0-4148-bc69-3e259ef360e8,.a8393110-aa91-47b4-ab7d-a87f3adc1e3e,.b2ccde91-b73f-4341-8c8e-5ae78d3d5f27,.e8c04d3a-b34a-427e-a235-10507a81f4fc,.f8de5de7-4c9b-4264-b8dd-f3fc4689b068,.fa100cf1-8490-4b8b-b36e-6de5a4db08b5{fill:none;}.e8c04d3a-b34a-427e-a235-10507a81f4fc{stroke:#466bb0;stroke-dasharray:10 10;}.a39cc158-70d0-4148-bc69-3e259ef360e8,.b2ccde91-b73f-4341-8c8e-5ae78d3d5f27,.e8c04d3a-b34a-427e-a235-10507a81f4fc,.f8de5de7-4c9b-4264-b8dd-f3fc4689b068{stroke-linejoin:round;}.ffdd43e7-f078-4e44-bcc5-09ab55d70277{font-size:12px;}.ac50a9fc-f141-4238-bf76-a82cb9b9aa59,.afbdbbc2-f836-4c8f-a9dd-21b32f9c973d,.ffdd43e7-f078-4e44-bcc5-09ab55d70277{font-family:Roboto-Regular, Roboto;}.f8de5de7-4c9b-4264-b8dd-f3fc4689b068{stroke:#666;}.a39cc158-70d0-4148-bc69-3e259ef360e8,.f8de5de7-4c9b-4264-b8dd-f3fc4689b068,.fa100cf1-8490-4b8b-b36e-6de5a4db08b5{stroke-width:2px;}.afbdbbc2-f836-4c8f-a9dd-21b32f9c973d{font-size:13.67px;}.a8cd7bf9-cc77-42f9-b792-05b7e8e972aa{fill:#e6e6e6;}.fa513ed9-03b7-4d02-b673-7138d60e1b33{fill:#fff;}.b2ccde91-b73f-4341-8c8e-5ae78d3d5f27{stroke:#e905ee;stroke-width:3px;}.ac50a9fc-f141-4238-bf76-a82cb9b9aa59{font-size:15.95px;}.a11016ee-36ad-409f-a1ff-cdc2593066ec{letter-spacing:0.01em;}.af484885-3928-44a2-8164-a0e61ac99adb{fill:#757575;}.a39cc158-70d0-4148-bc69-3e259ef360e8,.fa100cf1-8490-4b8b-b36e-6de5a4db08b5{stroke:#fff;}.fa100cf1-8490-4b8b-b36e-6de5a4db08b5{stroke-linecap:round;}.a8393110-aa91-47b4-ab7d-a87f3adc1e3e,.fa100cf1-8490-4b8b-b36e-6de5a4db08b5{stroke-miterlimit:10;}.a8393110-aa91-47b4-ab7d-a87f3adc1e3e{stroke:#090;stroke-width:4px;}.b5dcf134-3a22-4f4e-bde4-89dbfa83fe1a{fill:#090;}</style></defs><title>single-net</title><g id="a3e9a15e-d9e9-46a3-a29e-a0b0677c43a5" data-name="single-net"><rect class="e8c04d3a-b34a-427e-a235-10507a81f4fc" x="0.5" y="13.7" width="689.27" height="508.9" rx="10"/><text class="ffdd43e7-f078-4e44-bcc5-09ab55d70277" transform="translate(0.48 10.27)">Istio Mesh</text><rect class="f8de5de7-4c9b-4264-b8dd-f3fc4689b068" x="16.16" y="36" width="657.92" height="465.84" rx="10"/><text class="afbdbbc2-f836-4c8f-a9dd-21b32f9c973d" transform="translate(37.58 77.93)">Subnet 1</text><rect class="f8de5de7-4c9b-4264-b8dd-f3fc4689b068" x="37.66" y="81.36" width="282.29" height="374.99" rx="10"/><text class="afbdbbc2-f836-4c8f-a9dd-21b32f9c973d" transform="translate(370.3 77.93)">Subnet 2</text><rect class="f8de5de7-4c9b-4264-b8dd-f3fc4689b068" x="370.38" y="81.36" width="282.29" height="374.99" rx="10"/><rect class="a8cd7bf9-cc77-42f9-b792-05b7e8e972aa" x="398.88" y="127.2" width="225.21" height="82.04" rx="3"/><rect class="fa513ed9-03b7-4d02-b673-7138d60e1b33" x="408.73" y="137.45" width="61.53" height="61.53" rx="3"/><polygon class="b2ccde91-b73f-4341-8c8e-5ae78d3d5f27" points="454.61 176.94 454.61 159.5 439.5 150.79 424.39 159.5 424.39 176.94 439.5 185.65 454.61 176.94"/><rect class="fa513ed9-03b7-4d02-b673-7138d60e1b33" x="480.52" y="137.45" width="133.32" height="61.53" rx="3"/><text class="ac50a9fc-f141-4238-bf76-a82cb9b9aa59" transform="translate(540.52 173.73)">Se<tspan class="a11016ee-36ad-409f-a1ff-cdc2593066ec" x="17.92" y="0">r</tspan><tspan x="23.45" y="0">vice B</tspan></text><circle class="af484885-3928-44a2-8164-a0e61ac99adb" cx="511.29" cy="168.22" r="20.51"/><rect class="a39cc158-70d0-4148-bc69-3e259ef360e8" x="504" y="160.8" width="14.57" height="14.57"/><line class="fa100cf1-8490-4b8b-b36e-6de5a4db08b5" x1="506.7" y1="160.8" x2="506.7" y2="157.29"/><line class="fa100cf1-8490-4b8b-b36e-6de5a4db08b5" x1="511.29" y1="160.8" x2="511.29" y2="157.29"/><line class="fa100cf1-8490-4b8b-b36e-6de5a4db08b5" x1="515.87" y1="160.8" x2="515.87" y2="157.29"/><line class="fa100cf1-8490-4b8b-b36e-6de5a4db08b5" x1="506.7" y1="179.15" x2="506.7" y2="175.64"/><line class="fa100cf1-8490-4b8b-b36e-6de5a4db08b5" x1="511.29" y1="179.15" x2="511.29" y2="175.64"/><line class="fa100cf1-8490-4b8b-b36e-6de5a4db08b5" x1="515.87" y1="179.15" x2="515.87" y2="175.64"/><line class="fa100cf1-8490-4b8b-b36e-6de5a4db08b5" x1="503.86" y1="172.81" x2="500.36" y2="172.81"/><line class="fa100cf1-8490-4b8b-b36e-6de5a4db08b5" x1="503.86" y1="168.22" x2="500.36" y2="168.22"/><line class="fa100cf1-8490-4b8b-b36e-6de5a4db08b5" x1="503.86" y1="163.63" x2="500.36" y2="163.63"/><line class="fa100cf1-8490-4b8b-b36e-6de5a4db08b5" x1="522.22" y1="172.81" x2="518.71" y2="172.81"/><line class="fa100cf1-8490-4b8b-b36e-6de5a4db08b5" x1="522.22" y1="168.22" x2="518.71" y2="168.22"/><line class="fa100cf1-8490-4b8b-b36e-6de5a4db08b5" x1="522.22" y1="163.63" x2="518.71" y2="163.63"/><rect class="fa513ed9-03b7-4d02-b673-7138d60e1b33" x="508.05" y="164.85" width="6.48" height="6.48" rx="2"/><rect class="a8cd7bf9-cc77-42f9-b792-05b7e8e972aa" x="66.16" y="127.2" width="225.21" height="82.04" rx="3"/><rect class="fa513ed9-03b7-4d02-b673-7138d60e1b33" x="76.01" y="137.45" width="133.32" height="61.53" rx="3"/><text class="ac50a9fc-f141-4238-bf76-a82cb9b9aa59" transform="translate(135.77 173.73)">Se<tspan class="a11016ee-36ad-409f-a1ff-cdc2593066ec" x="17.92" y="0">r</tspan><tspan x="23.45" y="0">vice A</tspan></text><circle class="af484885-3928-44a2-8164-a0e61ac99adb" cx="106.77" cy="168.22" r="20.51"/><rect class="a39cc158-70d0-4148-bc69-3e259ef360e8" x="99.49" y="160.8" width="14.57" height="14.57"/><line class="fa100cf1-8490-4b8b-b36e-6de5a4db08b5" x1="102.19" y1="160.8" x2="102.19" y2="157.29"/><line class="fa100cf1-8490-4b8b-b36e-6de5a4db08b5" x1="106.77" y1="160.8" x2="106.77" y2="157.29"/><line class="fa100cf1-8490-4b8b-b36e-6de5a4db08b5" x1="111.36" y1="160.8" x2="111.36" y2="157.29"/><line class="fa100cf1-8490-4b8b-b36e-6de5a4db08b5" x1="102.19" y1="179.15" x2="102.19" y2="175.64"/><line class="fa100cf1-8490-4b8b-b36e-6de5a4db08b5" x1="106.77" y1="179.15" x2="106.77" y2="175.64"/><line class="fa100cf1-8490-4b8b-b36e-6de5a4db08b5" x1="111.36" y1="179.15" x2="111.36" y2="175.64"/><line class="fa100cf1-8490-4b8b-b36e-6de5a4db08b5" x1="99.35" y1="172.81" x2="95.84" y2="172.81"/><line class="fa100cf1-8490-4b8b-b36e-6de5a4db08b5" x1="99.35" y1="168.22" x2="95.84" y2="168.22"/><line class="fa100cf1-8490-4b8b-b36e-6de5a4db08b5" x1="99.35" y1="163.63" x2="95.84" y2="163.63"/><line class="fa100cf1-8490-4b8b-b36e-6de5a4db08b5" x1="117.7" y1="172.81" x2="114.2" y2="172.81"/><line class="fa100cf1-8490-4b8b-b36e-6de5a4db08b5" x1="117.7" y1="168.22" x2="114.2" y2="168.22"/><line class="fa100cf1-8490-4b8b-b36e-6de5a4db08b5" x1="117.7" y1="163.63" x2="114.2" y2="163.63"/><rect class="fa513ed9-03b7-4d02-b673-7138d60e1b33" x="103.54" y="164.85" width="6.48" height="6.48" rx="2"/><rect class="fa513ed9-03b7-4d02-b673-7138d60e1b33" x="219.58" y="137.45" width="61.53" height="61.53" rx="3"/><polygon class="b2ccde91-b73f-4341-8c8e-5ae78d3d5f27" points="265.46 176.94 265.46 159.5 250.35 150.79 235.24 159.5 235.24 176.94 250.35 185.65 265.46 176.94"/><rect class="a8cd7bf9-cc77-42f9-b792-05b7e8e972aa" x="398.88" y="316.35" width="225.21" height="82.04" rx="3"/><rect class="fa513ed9-03b7-4d02-b673-7138d60e1b33" x="408.73" y="326.61" width="61.53" height="61.53" rx="3"/><polygon class="b2ccde91-b73f-4341-8c8e-5ae78d3d5f27" points="454.61 366.09 454.61 348.65 439.5 339.94 424.39 348.65 424.39 366.09 439.5 374.81 454.61 366.09"/><rect class="fa513ed9-03b7-4d02-b673-7138d60e1b33" x="480.52" y="326.61" width="133.32" height="61.53" rx="3"/><text class="ac50a9fc-f141-4238-bf76-a82cb9b9aa59" transform="translate(540.28 362.89)">Se<tspan class="a11016ee-36ad-409f-a1ff-cdc2593066ec" x="17.92" y="0">r</tspan><tspan x="23.45" y="0">vice A</tspan></text><circle class="af484885-3928-44a2-8164-a0e61ac99adb" cx="511.29" cy="357.37" r="20.51"/><rect class="a39cc158-70d0-4148-bc69-3e259ef360e8" x="504" y="349.95" width="14.57" height="14.57"/><line class="fa100cf1-8490-4b8b-b36e-6de5a4db08b5" x1="506.7" y1="349.95" x2="506.7" y2="346.44"/><line class="fa100cf1-8490-4b8b-b36e-6de5a4db08b5" x1="511.29" y1="349.95" x2="511.29" y2="346.44"/><line class="fa100cf1-8490-4b8b-b36e-6de5a4db08b5" x1="515.87" y1="349.95" x2="515.87" y2="346.44"/><line class="fa100cf1-8490-4b8b-b36e-6de5a4db08b5" x1="506.7" y1="368.3" x2="506.7" y2="364.79"/><line class="fa100cf1-8490-4b8b-b36e-6de5a4db08b5" x1="511.29" y1="368.3" x2="511.29" y2="364.79"/><line class="fa100cf1-8490-4b8b-b36e-6de5a4db08b5" x1="515.87" y1="368.3" x2="515.87" y2="364.79"/><line class="fa100cf1-8490-4b8b-b36e-6de5a4db08b5" x1="503.86" y1="361.96" x2="500.36" y2="361.96"/><line class="fa100cf1-8490-4b8b-b36e-6de5a4db08b5" x1="503.86" y1="357.37" x2="500.36" y2="357.37"/><line class="fa100cf1-8490-4b8b-b36e-6de5a4db08b5" x1="503.86" y1="352.78" x2="500.36" y2="352.78"/><line class="fa100cf1-8490-4b8b-b36e-6de5a4db08b5" x1="522.22" y1="361.96" x2="518.71" y2="361.96"/><line class="fa100cf1-8490-4b8b-b36e-6de5a4db08b5" x1="522.22" y1="357.37" x2="518.71" y2="357.37"/><line class="fa100cf1-8490-4b8b-b36e-6de5a4db08b5" x1="522.22" y1="352.78" x2="518.71" y2="352.78"/><rect class="fa513ed9-03b7-4d02-b673-7138d60e1b33" x="508.05" y="354" width="6.48" height="6.48" rx="2"/><rect class="a8cd7bf9-cc77-42f9-b792-05b7e8e972aa" x="66.16" y="316.35" width="225.21" height="82.04" rx="3"/><rect class="fa513ed9-03b7-4d02-b673-7138d60e1b33" x="76.01" y="326.61" width="133.32" height="61.53" rx="3"/><text class="ac50a9fc-f141-4238-bf76-a82cb9b9aa59" transform="translate(136.01 362.89)">Se<tspan class="a11016ee-36ad-409f-a1ff-cdc2593066ec" x="17.92" y="0">r</tspan><tspan x="23.45" y="0">vice B</tspan></text><circle class="af484885-3928-44a2-8164-a0e61ac99adb" cx="106.77" cy="357.37" r="20.51"/><rect class="a39cc158-70d0-4148-bc69-3e259ef360e8" x="99.49" y="349.95" width="14.57" height="14.57"/><line class="fa100cf1-8490-4b8b-b36e-6de5a4db08b5" x1="102.19" y1="349.95" x2="102.19" y2="346.44"/><line class="fa100cf1-8490-4b8b-b36e-6de5a4db08b5" x1="106.77" y1="349.95" x2="106.77" y2="346.44"/><line class="fa100cf1-8490-4b8b-b36e-6de5a4db08b5" x1="111.36" y1="349.95" x2="111.36" y2="346.44"/><line class="fa100cf1-8490-4b8b-b36e-6de5a4db08b5" x1="102.19" y1="368.3" x2="102.19" y2="364.79"/><line class="fa100cf1-8490-4b8b-b36e-6de5a4db08b5" x1="106.77" y1="368.3" x2="106.77" y2="364.79"/><line class="fa100cf1-8490-4b8b-b36e-6de5a4db08b5" x1="111.36" y1="368.3" x2="111.36" y2="364.79"/><line class="fa100cf1-8490-4b8b-b36e-6de5a4db08b5" x1="99.35" y1="361.96" x2="95.84" y2="361.96"/><line class="fa100cf1-8490-4b8b-b36e-6de5a4db08b5" x1="99.35" y1="357.37" x2="95.84" y2="357.37"/><line class="fa100cf1-8490-4b8b-b36e-6de5a4db08b5" x1="99.35" y1="352.78" x2="95.84" y2="352.78"/><line class="fa100cf1-8490-4b8b-b36e-6de5a4db08b5" x1="117.7" y1="361.96" x2="114.2" y2="361.96"/><line class="fa100cf1-8490-4b8b-b36e-6de5a4db08b5" x1="117.7" y1="357.37" x2="114.2" y2="357.37"/><line class="fa100cf1-8490-4b8b-b36e-6de5a4db08b5" x1="117.7" y1="352.78" x2="114.2" y2="352.78"/><rect class="fa513ed9-03b7-4d02-b673-7138d60e1b33" x="103.54" y="354" width="6.48" height="6.48" rx="2"/><rect class="fa513ed9-03b7-4d02-b673-7138d60e1b33" x="219.58" y="326.61" width="61.53" height="61.53" rx="3"/><polygon class="b2ccde91-b73f-4341-8c8e-5ae78d3d5f27" points="265.46 366.09 265.46 348.65 250.35 339.94 235.24 348.65 235.24 366.09 250.35 374.81 265.46 366.09"/><line class="a8393110-aa91-47b4-ab7d-a87f3adc1e3e" x1="401.56" y1="168.22" x2="288.29" y2="168.22"/><polygon class="b5dcf134-3a22-4f4e-bde4-89dbfa83fe1a" points="400.1 163.23 408.73 168.22 400.1 173.21 400.1 163.23"/><polygon class="b5dcf134-3a22-4f4e-bde4-89dbfa83fe1a" points="289.75 163.23 281.11 168.22 289.75 173.21 289.75 163.23"/><line class="a8393110-aa91-47b4-ab7d-a87f3adc1e3e" x1="288.29" y1="357.24" x2="401.56" y2="357.24"/><polygon class="b5dcf134-3a22-4f4e-bde4-89dbfa83fe1a" points="289.75 362.22 281.11 357.24 289.75 352.25 289.75 362.22"/><polygon class="b5dcf134-3a22-4f4e-bde4-89dbfa83fe1a" points="400.1 362.22 408.73 357.24 400.1 352.25 400.1 362.22"/><line class="a8393110-aa91-47b4-ab7d-a87f3adc1e3e" x1="250.35" y1="206.16" x2="250.35" y2="319.43"/><polygon class="b5dcf134-3a22-4f4e-bde4-89dbfa83fe1a" points="245.36 207.62 250.35 198.99 255.33 207.62 245.36 207.62"/><polygon class="b5dcf134-3a22-4f4e-bde4-89dbfa83fe1a" points="245.36 317.97 250.35 326.61 255.33 317.97 245.36 317.97"/><line class="a8393110-aa91-47b4-ab7d-a87f3adc1e3e" x1="439.5" y1="203.99" x2="439.5" y2="317.26"/><polygon class="b5dcf134-3a22-4f4e-bde4-89dbfa83fe1a" points="434.51 205.45 439.5 196.82 444.49 205.45 434.51 205.45"/><polygon class="b5dcf134-3a22-4f4e-bde4-89dbfa83fe1a" points="434.51 315.8 439.5 324.44 444.49 315.8 434.51 315.8"/></g><g id="fe3e3471-501f-4434-b198-05116dbbb2d4" data-name="cluster-iso"><text class="afbdbbc2-f836-4c8f-a9dd-21b32f9c973d" transform="translate(16.16 32.58)">Network</text></g></svg>