<svg xmlns="http://www.w3.org/2000/svg" viewBox="0 0 250.5 134.1"><defs><style>.cls-1{fill:#e50695}.cls-2{fill:#c42164}</style></defs><g id="Layer_2" data-name="Layer 2"><g id="Layer_1-2" data-name="Layer 1"><path class="cls-1" d="M104.7 31.7L118.2 21V0L88.5 23.6v41l16.2-12.3V31.7z"/><path class="cls-2" d="M118.2 42L88.5 64.6l17.2 12.8 12.5-9.7V42.1"/><path class="cls-1" d="M147.7 31.7L134.2 21V0l29.7 23.6v41l-16.2-12.3V31.7z"/><path class="cls-2" d="M134.2 42l29.7 22.6-17.2 12.8-12.5-9.7V42.1"/><path d="M14.1 103.6L0 133.5h4.4l4.5-9.5h11.7l4.5 9.5h4.3l-14-29.9zm4.8 16.6h-8.1l4.1-8.6zm24.4-4c-2.6-1.9-3.4-2.6-3.7-2.8a5.1 5.1 0 0 1-1.3-1.8 4.53 4.53 0 0 1-.3-1.6 2.94 2.94 0 0 1 .9-2.2 3.33 3.33 0 0 1 2.5-.9 4.28 4.28 0 0 1 2.2.6 9.56 9.56 0 0 1 2.6 2.7l.3.4 3.2-2.4-.3-.4a14.22 14.22 0 0 0-3.9-3.9 8.22 8.22 0 0 0-7.9-.1 7 7 0 0 0-2.8 2.6 7.87 7.87 0 0 0-1 3.7 8.07 8.07 0 0 0 1.6 4.7 23 23 0 0 0 4.6 4.1 23.93 23.93 0 0 1 4.8 4.5 4.26 4.26 0 0 1 .9 2.5 3.94 3.94 0 0 1-.6 2.1 4.36 4.36 0 0 1-1.7 1.6 5.42 5.42 0 0 1-2.5.6c-2 0-3.9-1.5-5.5-4.5l-.3-.5-3.4 2 .3.5a12.87 12.87 0 0 0 4.1 4.9 9 9 0 0 0 5.1 1.5 8.45 8.45 0 0 0 6.2-2.5 7.73 7.73 0 0 0 2.5-5.8 8.12 8.12 0 0 0-1.5-4.6 20 20 0 0 0-5.1-5zM68.6 104a34.09 34.09 0 0 0-6.8-.4h-6.3v29.9h4v-13.4H61a39.59 39.59 0 0 0 7.5-.5 8.56 8.56 0 0 0 4.5-2.7 7.84 7.84 0 0 0 1.7-5.1 8 8 0 0 0-1.7-5.1 9.59 9.59 0 0 0-4.4-2.7zm1.9 7.8a4 4 0 0 1-2.6 3.9 12.8 12.8 0 0 1-4.1.5l-4.3-.1v-8.7H64a12.09 12.09 0 0 1 4 .5 3.76 3.76 0 0 1 1.8 1.5 4.42 4.42 0 0 1 .7 2.4zm8.2 21.7h17.5v-3.9H82.7v-10.2h13.5v-4H82.7v-7.9h13.6v-3.9H78.7v29.9zm43.9-8.7l-18.4-21.2h-1.5v29.9h4.1v-20.9l18.3 20.9h1.4v-29.9h-3.9v21.2zm52.2-21.2l-11.3 22.9-11.3-22.9h-1.3l-4.3 29.9h3.9l2.6-19.4 9.7 19.4h1.4l9.6-19.3 2.7 19.3h3.9l-4.3-29.9h-1.3zm11.1 29.9h17.5v-3.9h-13.6v-10.2h13.6v-4h-13.6v-7.9h13.7v-3.9h-17.6v29.9zm32.3-17.3c-2.6-1.9-3.4-2.6-3.7-2.8a5.1 5.1 0 0 1-1.3-1.8 4.53 4.53 0 0 1-.3-1.6 2.94 2.94 0 0 1 .9-2.2 3.33 3.33 0 0 1 2.5-.9 4.28 4.28 0 0 1 2.2.6 9.56 9.56 0 0 1 2.6 2.7l.3.4 3.2-2.4-.3-.4a14.22 14.22 0 0 0-3.9-3.9 8.22 8.22 0 0 0-7.9-.1 7 7 0 0 0-2.8 2.6 7.87 7.87 0 0 0-1 3.7 8.07 8.07 0 0 0 1.6 4.7 23 23 0 0 0 4.6 4.1 23.93 23.93 0 0 1 4.8 4.5 4.26 4.26 0 0 1 .9 2.5 3.94 3.94 0 0 1-.6 2.1 4.36 4.36 0 0 1-1.7 1.6 5.42 5.42 0 0 1-2.5.6c-2 0-3.9-1.5-5.5-4.5l-.3-.5-3.4 2 .3.5a12.87 12.87 0 0 0 4.1 4.9 9 9 0 0 0 5.1 1.5 8.45 8.45 0 0 0 6.2-2.5 7.73 7.73 0 0 0 2.5-5.8 8.12 8.12 0 0 0-1.5-4.6 18.45 18.45 0 0 0-5.1-5zm28.3-12.6v12.1h-13.6v-12.1h-4v29.9h4v-13.9h13.6v13.9h4v-29.9h-4z" fill="#221f1f"/></g></g></svg>