<svg width="522" height="169" xmlns="http://www.w3.org/2000/svg" xmlns:xlink="http://www.w3.org/1999/xlink"><defs><path id="a" d="M0 .449V87.94h91.22V.449z"/><path id="c" d="M.695.484h191.162v162.554H.695z"/></defs><g fill="none" fill-rule="evenodd"><path d="M294.535 85.529c-.072-2.163-.415-4.146-1.028-5.95-.612-1.802-1.532-3.369-2.757-4.704-1.228-1.334-2.759-2.381-4.598-3.137-1.839-.757-3.985-1.137-6.436-1.137-2.379 0-4.561.451-6.544 1.352-1.985.904-3.661 2.075-5.031 3.516a16.276 16.276 0 0 0-3.191 4.814c-.757 1.768-1.135 3.516-1.135 5.246h30.72zm-30.72 7.788c0 2.237.487 4.274 1.46 6.113a15.215 15.215 0 0 0 3.84 4.705c1.585 1.298 3.424 2.308 5.517 3.028a19.718 19.718 0 0 0 6.49 1.082c3.029 0 5.66-.702 7.898-2.109 2.233-1.406 4.289-3.262 6.165-5.571l7.355 5.626c-5.409 6.995-12.981 10.492-22.716 10.492-4.039 0-7.699-.687-10.979-2.055-3.282-1.369-6.058-3.263-8.33-5.68-2.27-2.415-4.021-5.263-5.246-8.544-1.227-3.282-1.839-6.833-1.839-10.657 0-3.821.667-7.372 2.002-10.654 1.333-3.28 3.172-6.129 5.516-8.545 2.343-2.416 5.138-4.309 8.384-5.68 3.244-1.369 6.777-2.055 10.601-2.055 4.543 0 8.383.794 11.52 2.381 3.137 1.586 5.714 3.659 7.734 6.219 2.018 2.561 3.479 5.446 4.381 8.653a36.064 36.064 0 0 1 1.352 9.79v3.461h-41.105zm49.543-29.206h9.735v7.896h.216c1.225-2.74 3.354-4.957 6.382-6.652 3.029-1.694 6.526-2.542 10.492-2.542 2.452 0 4.815.379 7.085 1.136 2.272.758 4.255 1.93 5.95 3.515 1.694 1.588 3.046 3.624 4.057 6.113 1.009 2.487 1.515 5.427 1.515 8.815v32.993h-9.737V85.097c0-2.381-.324-4.417-.972-6.112-.65-1.693-1.515-3.064-2.598-4.11a9.732 9.732 0 0 0-3.731-2.272 13.755 13.755 0 0 0-4.38-.704c-2.021 0-3.895.325-5.626.974-1.731.649-3.244 1.677-4.544 3.083-1.298 1.406-2.308 3.191-3.028 5.354-.721 2.165-1.081 4.725-1.081 7.681v26.394h-9.735V64.111m48.567 0h11.251l15.361 39.267 14.711-39.267h10.384l-20.119 51.274h-10.709l-20.879-51.274m62.743 25.636c0 2.598.395 4.995 1.189 7.194.793 2.202 1.911 4.075 3.354 5.626 1.441 1.55 3.207 2.777 5.3 3.677 2.091.903 4.435 1.352 7.031 1.352s4.939-.449 7.031-1.352c2.091-.9 3.857-2.127 5.3-3.677 1.442-1.551 2.559-3.424 3.354-5.626.793-2.199 1.19-4.596 1.19-7.194 0-2.596-.397-4.992-1.19-7.192-.795-2.199-1.912-4.074-3.354-5.626-1.443-1.549-3.209-2.774-5.3-3.678-2.092-.9-4.435-1.352-7.031-1.352s-4.94.452-7.031 1.352c-2.093.904-3.859 2.129-5.3 3.678-1.443 1.552-2.561 3.427-3.354 5.626-.794 2.2-1.189 4.596-1.189 7.192zm-10.385 0c0-3.748.704-7.246 2.109-10.492 1.406-3.245 3.335-6.092 5.787-8.546 2.451-2.45 5.336-4.38 8.654-5.787 3.316-1.406 6.885-2.109 10.709-2.109 3.821 0 7.391.703 10.709 2.109 3.316 1.407 6.202 3.337 8.655 5.787a27.409 27.409 0 0 1 5.787 8.546c1.405 3.246 2.109 6.744 2.109 10.492 0 3.751-.704 7.267-2.109 10.548-1.407 3.283-3.337 6.13-5.787 8.546-2.453 2.416-5.339 4.326-8.655 5.733-3.318 1.406-6.888 2.109-10.709 2.109-3.824 0-7.393-.703-10.709-2.109-3.318-1.407-6.203-3.317-8.654-5.733-2.452-2.416-4.381-5.263-5.787-8.546-1.405-3.281-2.109-6.797-2.109-10.548zm55.274-25.636h11.25l15.183 40.024h.218l14.563-40.024h10.384l-24.338 62.307a66.43 66.43 0 0 1-2.694 6.113c-.933 1.837-2.047 3.407-3.338 4.705-1.294 1.298-2.855 2.307-4.688 3.028-1.831.72-4.075 1.082-6.732 1.082-1.437 0-2.892-.091-4.363-.271a15.78 15.78 0 0 1-4.255-1.135l1.184-8.87c1.933.793 3.868 1.189 5.803 1.189 1.504 0 2.776-.199 3.816-.594a7.543 7.543 0 0 0 2.687-1.732 10.143 10.143 0 0 0 1.881-2.65c.5-1.01 1.002-2.163 1.505-3.461l3.151-8.113-21.217-51.598" fill="#000"/><path fill="#953984" d="M56.279 81.853l.322 13.595 14.316 8.876-.321-13.604-14.317-8.867"/><g transform="translate(0 81)"><mask id="b" fill="#fff"><use xlink:href="#a"/></mask><path d="M91.22 57.357l-.313-13.315-12.546-7.774c-.186-.116-.351-.252-.532-.374l.317 13.36 13.074 8.103m-44.7 17.927L13.788 55.002l-.796-34.038 16.047-6.92L28.717.449 3.107 11.49c-1.97.857-3.154 2.664-3.106 4.772l.961 40.835c.048 2.107 1.328 4.17 3.351 5.433l39.254 24.326c1.829 1.131 4.035 1.441 5.895.853.197-.062.376-.133.555-.203l24.088-10.384-13.065-8.1-14.52 6.262" fill="#953984" mask="url(#b)"/></g><path d="M152.283 81.075c-.06-2.448-1.547-4.873-3.909-6.331l-47.658-29.537-1.471.635.337 14.292 37.738 23.38.902 38.24 14.433 8.944.787-.34-1.159-49.283" fill="#AC6199"/><g transform="translate(34)"><mask id="d" fill="#fff"><use xlink:href="#c"/></mask><path d="M61.206 148.199l-44.276-27.44-1.088-46.06 20.172-8.689-.374-15.864L4.319 63.648C2.022 64.649.637 66.769.697 69.216l1.275 53.995c.048 2.452 1.542 4.86 3.904 6.319l51.896 32.171c2.138 1.323 4.71 1.682 6.878.997.222-.07.438-.152.647-.246l30.656-13.215-15.244-9.446-19.503 8.408" fill="#AC6199" mask="url(#d)"/><path d="M118.133 137.748l-57.831-35.837-1.422-60.15 56.411-24.313 57.825 35.824 1.422 60.15-56.405 24.326zm67.627-94.493L119.219 2.011C116.764.49 113.838.089 111.335.88a8.05 8.05 0 0 0-.724.268L45.707 29.137c-2.629 1.134-4.21 3.549-4.144 6.353l1.632 69.222c.065 2.804 1.773 5.558 4.469 7.229l66.536 41.231c2.446 1.515 5.373 1.927 7.861 1.141.246-.078.499-.171.746-.277l64.91-27.977c2.629-1.134 4.204-3.561 4.138-6.366l-1.625-69.209c-.066-2.804-1.774-5.559-4.47-7.229z" fill="#C04589" mask="url(#d)"/></g></g></svg>