<?xml version="1.0" encoding="utf-8"?>
<!-- Generator: Adobe Illustrator 22.1.0, SVG Export Plug-In . SVG Version: 6.00 Build 0)  -->
<svg version="1.1" id="Layer_1" xmlns="http://www.w3.org/2000/svg" xmlns:xlink="http://www.w3.org/1999/xlink" x="0px" y="0px"
	 viewBox="0 0 813.1 166.1" style="enable-background:new 0 0 813.1 166.1;" xml:space="preserve">
<style type="text/css">
	.st0{fill:#FF9E16;}
	.st1{fill:#0D0D0D;}
</style>
<title>Asset 1</title>
<g id="Layer_2_1_">
	<g id="Layer_1-2">
		<path class="st0" d="M226,96.8c-4.2,5.3-9.6,9.7-15.6,12.8c3.2-4.1,4.5-9.1,4.4-14.7c-20.4,0-36.5,13.3-28.9,39
			c4.3-0.3,6.8-3.3,9.1-6.5c0.2,3.7-0.7,7.7-3.5,12.4l1.8,4.2c-5.3,3.8-13,11-19.2,8.9c-16.5-19.3-42.2-24.6-75.9-4
			c2.4-5.9,4-10.3,9.3-15c-6.2-0.2-17.8,1.4-26.8,6.4C80.9,115.6,84.7,91,92,67.4C76,95,68.2,127.2,60.2,166
			c-8.5-36.7-14.9-62.4-9.1-104.4c-17,3-36,14.3-51.1,23.8c18.2-24.2,57.4-50.2,74.5-55.2c-8.3,13.5-13.6,32.1-14.8,47.3l7.7-0.7
			c-3.1,6.8-6.3,22.5-6.3,35.7c2.3-14,9.3-32.6,16.4-44.3L68.1,69c5.3-18.9,18-37.5,29-43.8c4.8-1.5,9.7-2.2,14.7-1.9
			c-1.3,7.9-7.7,48.1-4.5,66.7c0.1-19.9,9.6-75.6,17.3-89.9c12.3,10.9,14.4,15.9,19,25.6c24.3,1.3,43.2,12.8,60.9,26.4
			c-0.4,1.4-1.4,2.5-2.8,3.1c4.7,1.7,16.3,8.3,20.8,12.1c5.9,5,13.4,11.6,17.1,16l-7,11l-3.2-9.5l6.4-1.1l-8.5-0.1l3.5,11.6
			L226,96.8z M191.7,67.6l-6.5-8.2l-17.6-5.1l10.3,8.5l6.1-0.3L191.7,67.6z"/>
		<path class="st1" d="M372.9,48.5v17.8h-30.3v51.2h-21.1V66.3h-30.3V48.5H372.9z M405.8,48.5v69h-21.1v-69L405.8,48.5z M488.6,72.4
			c-0.2-4.3-2.4-6.6-6.6-6.8c-2.3-0.1-7.1-0.2-14.2-0.2l-13.1,0.1c-4.4,0.1-7.6,0.8-9.4,2c-2.1,1.5-3.3,4.3-3.5,8.6
			c-0.2,2.5-0.2,5-0.2,7.4c-0.1,2.8,0.1,5.7,0.5,8.5c0.5,5,2.9,7.7,6.9,8.1c2.6,0.3,5.3,0.4,7.9,0.3h8.4l14.3-0.1
			c6.4,0,9.6-2.1,9.7-6.2v-2.2h-26.3V78h47.3v2.5c0,11.8-0.2,19.2-0.6,22.2c-0.6,3.5-2.2,6.7-4.6,9.3c-2.4,2.6-5.6,4.3-9.1,4.8
			c-2.6,0.5-5.1,0.9-7.8,1c-6.1,0.5-14.3,0.7-24.6,0.6l-14.7-0.1c-6.3-0.1-10.9-0.6-13.8-1.4c-4.6-1.1-8.5-4.1-10.8-8.2
			c-2.1-3.7-3.4-8.9-3.6-15.9c-0.2-5.5-0.3-11.1-0.3-16.6c0-2.3,0-4,0.1-5.1c0.1-2.8,0.6-5.5,1.5-8.2c2.5-7.9,8.5-12.5,17.8-14
			c2.5-0.5,5-0.8,7.5-0.9c3.6-0.2,9.4-0.3,17.4-0.3c10.1,0,17.7,0.1,22.9,0.2c14.5,0.3,21.9,6.9,22.2,19.8v4.7L488.6,72.4z
			 M523.2,48.5h76.1v16.1h-55v9.4h51.9V89h-51.9v12.4h55.6v16.1h-76.7V48.5L523.2,48.5z M675.6,48.5c2.9,0,5.7,0.2,8.6,0.5
			c6.4,0.7,10.8,3,13.2,7c0.9,1.5,1.6,3.1,1.9,4.8c0.7,3.4,1.1,6.8,1.1,10.3c0,5.7-0.8,10-2.3,12.8c-1.5,2.9-5.2,5.1-10.9,6.8l0,0
			c5.8,1.6,9.4,3.6,10.8,5.9c1.4,2.3,2.1,6.5,2.1,12.5v8.5H679l-0.2-6.4c0-4.4-0.5-7.2-1.5-8.5c-1.1-1.6-3.8-2.3-8.1-2.3h-33.4v17.2
			h-21.1v-69L675.6,48.5z M635.8,66.3v16.3h29.4c2.1,0,4.3,0,6.7-0.1c1.5,0,3-0.3,4.4-0.8c2-1,3.1-3.4,3.1-7.5
			c0-2.8-0.7-4.8-2.2-6.1c-1.1-1-3.2-1.5-6.4-1.6l-6.1-0.2L635.8,66.3z M748.2,48.5H775l38.2,69h-23.9l-6.4-11.8v-0.1h-42.6v0.1
			l-6.2,11.8h-23.9L748.2,48.5L748.2,48.5z M748.6,89.6L748.6,89.6l25.7-0.1v0.1L761.7,66l0,0L748.6,89.6z"/>
	</g>
</g>
</svg>
