<?xml version="1.0" encoding="utf-8"?>
<!-- Generator: Adobe Illustrator 23.0.0, SVG Export Plug-In . SVG Version: 6.00 Build 0)  -->
<svg version="1.1" id="Layer_1" xmlns="http://www.w3.org/2000/svg" xmlns:xlink="http://www.w3.org/1999/xlink" x="0px" y="0px"
	 viewBox="0 0 400 200" style="enable-background:new 0 0 400 200;" xml:space="preserve">
<style type="text/css">
	.st0{fill:#FF5000;}
	.st1{fill:#FFFFFF;}
</style>
<g>
	<path d="M336.8,39.6c-12.4-12.2-27.7-18.5-46-18.7c-0.3,0-0.6,0-0.8,0c-11.5,0-22.2,2.9-32.1,8.6c-9.9,5.7-17.7,13.6-23.5,23.7
		c-5.7,10.1-8.6,21.1-8.6,32.9c0,17.7,6.3,32.9,18.9,45.4c12.5,12.5,27.9,18.7,46,18.7l0,0c0.1,0,0.1,0,0.2,0
		c18,0,33.3-6.2,45.8-18.8c12.5-12.5,18.8-27.8,18.8-45.9C355.7,67.4,349.3,52.1,336.8,39.6z M317.1,131.4
		c-8.1,4.6-16.8,6.9-26.3,6.9c-0.1,0-0.1,0-0.3,0c-14.3,0-26.5-5-36.7-15.1c-10.1-10-15.2-22.4-15.2-37c0-9.9,2.3-18.8,6.8-26.9
		c4.6-8,11-14.4,19.1-19.2c8.1-4.7,16.7-7.1,25.9-7.1c0.1,0,0.2,0,0.3,0c9.2,0,17.9,2.4,26.1,7.1c8.2,4.7,14.7,11,19.2,19
		c4.6,7.9,6.8,16.8,6.8,26.5c0,9.8-2.3,18.7-6.8,26.8C331.5,120.4,325.2,126.8,317.1,131.4z"/>
</g>
<g>
	<polygon class="st0" points="162.2,28.5 157.5,28.5 148.4,28.5 114.7,114.2 80.9,22.5 45.1,114.1 14.6,28.5 0.7,28.5 44.6,148.7 
		80.6,57.1 114.3,148.8 157.5,40.2 	"/>
	<path class="st0" d="M216,91.8c-5.6-4.6-11.6-8.3-18-11.1l-3.2-1.5l-3.1-1.4c-5.9-3-10.7-5.8-14.4-8.4c-3.8-2.7-5.7-6.5-5.7-11.5
		c0-5,1.9-9.1,5.7-12.3c3.8-3.1,8.5-4.7,14-4.7c3.6,0,6.6,0.7,9.1,2.1c2.5,1.4,5,3.6,7.2,6.7l1.2,1.8c0.3,0.2,0.8,0.8,1.4,1.7
		l10.1-6.5c-3.3-5.8-7.4-10.3-12.5-13.3c-5-3-10.3-4.5-16-4.5c-9.7,0-17.7,2.8-23.8,8.2c-6.2,5.5-9.3,12.5-9.3,21.1
		c0,8.1,2.8,14.3,8.4,18.8c5.6,4.4,11.6,8,18,10.9l2.1,1l2,0.8c6.1,3.1,11.4,6.1,15.8,9.1c4.4,3,6.5,7.4,6.5,13.2
		c0,6.6-2.2,12.1-6.6,16.5c-4.4,4.4-10,6.6-16.7,6.6c-5.9,0-10.9-1.8-14.8-5.5c-3.9-3.6-6.6-8.9-8.2-15.8l-7.7,2.3l-4.7,1.4
		c1.1,4.6,2.6,8.7,4.7,12.3c2.1,3.7,4.7,6.8,7.8,9.4c6.1,5.1,13.8,7.6,23.2,7.6c10,0,18.4-3.4,25.4-10.2c7-6.8,10.5-15.1,10.5-25
		C224.4,103.1,221.6,96.4,216,91.8z"/>
</g>
<path class="st0" d="M317.1,131.4c-8.1,4.6-16.8,6.9-26.3,6.9c-0.1,0-0.1,0-0.3,0c-14.3,0-26.5-5-36.7-15.1
	c-10.1-10-15.2-22.4-15.2-37c0-9.9,2.3-18.8,6.8-26.9c4.6-8,11-14.4,19.1-19.2c8.1-4.7,16.7-7.1,25.9-7.1c0.1,0,0.2,0,0.3,0
	c9.2,0,17.9,2.4,26.1,7.1c8.2,4.7,14.7,11,19.2,19c4.6,7.9,6.8,16.8,6.8,26.5c0,9.8-2.3,18.7-6.8,26.8
	C331.5,120.4,325.2,126.8,317.1,131.4z"/>
<path class="st1" d="M290.6,60.5l22.8,55.5l14.9-26.9l14.5-0.1c0.1-1.2,0.1-2.3,0.1-3.5c0-1.4,0-2.8-0.1-4.1l-18.9,0.1l-9.4,16.9
	l-23.5-57.3l-21.1,47l-31-0.1c0.1,2.6,0.3,5.1,0.8,7.6l35.2,0.1L290.6,60.5z"/>
<g>
	<path d="M399.3,168.4H356l23.6-25.4c7.4-8,12.4-14.4,15-19.1c2.6-4.7,3.9-9.7,3.9-15.1c0-7.7-2.7-14.3-8.1-19.9
		c-5.4-5.6-12.4-8.5-21.1-8.5c-3.3,0-6.3,0.5-9.2,1.3c0,0.9,0.1,1.7,0.1,2.6c0,2.4-0.1,4.7-0.3,7c2.7-1.2,5.7-1.8,8.9-1.8
		c5.8,0,10.6,1.9,14.6,5.8c4,3.9,5.9,8.4,5.9,13.8c0,4.2-1.1,8.2-3.3,12c-2.2,3.8-7,9.6-14.3,17.5l-36.2,39.1h63.9
		c-0.3-1.4-0.5-2.9-0.5-4.5C398.8,171.5,399,169.9,399.3,168.4z"/>
</g>
</svg>
