<svg viewBox="0 0 925.087 325.672" fill="none" stroke-linecap="square" stroke-miterlimit="10" xmlns="http://www.w3.org/2000/svg"><clipPath id="a"><path d="M0 0h925.087v325.672H0V0z"/></clipPath><g clip-path="url(#a)"><path fill="#000" fill-opacity="0" d="M0 0h925.087v325.672H0z" fill-rule="evenodd"/><path fill="#f3f3f3" d="M201.564 108.557c0-21.065 17.077-38.142 38.143-38.142h430.36a38.142 38.142 0 0 1 38.143 38.142v152.566c0 21.065-17.077 38.142-38.142 38.142H239.707c-21.066 0-38.143-17.077-38.143-38.142z" fill-rule="evenodd"/><path stroke="#000" stroke-width="2" stroke-linejoin="round" stroke-linecap="butt" stroke-dasharray="8.0,6.0" d="M201.564 108.557h0c0-21.065 17.077-38.142 38.143-38.142h430.36a38.142 38.142 0 0 1 38.143 38.142v152.566c0 21.065-17.077 38.142-38.142 38.142H239.707c-21.066 0-38.143-17.077-38.143-38.142z" fill-rule="evenodd"/><path fill="#fff" d="M506.15 97.706h95.024a21.406 21.406 0 0 1 21.406 21.406v128.662c0 12.86-10.426 23.286-23.286 23.286H504.27c-11.823 0-21.406-9.583-21.406-21.406V120.993c0-12.861 10.425-23.287 23.286-23.287z" fill-rule="evenodd"/><path stroke="#595959" stroke-linejoin="round" stroke-linecap="butt" d="M506.15 97.706h95.024a21.406 21.406 0 0 1 21.406 21.406v128.662c0 12.86-10.426 23.286-23.286 23.286H504.27c-11.823 0-21.406-9.583-21.406-21.406V120.993h0c0-12.861 10.425-23.287 23.286-23.287z" fill-rule="evenodd"/><path fill="#000" d="M508.293 252.04H507.2l-1.922-6.375q-.125-.422-.297-1.063-.172-.64-.172-.78-.156.859-.469 1.89l-1.86 6.328h-1.093l-2.531-9.516h1.172l1.5 5.875q.312 1.235.468 2.235.172-1.188.516-2.328l1.703-5.782h1.172l1.797 5.844q.312 1 .516 2.266.125-.922.468-2.25l1.5-5.86h1.172l-2.547 9.516zm10.027-3.578q0 1.75-.875 2.734-.875.969-2.422.969-.953 0-1.703-.438-.735-.453-1.14-1.296-.407-.844-.407-1.97 0-1.734.875-2.702.875-.985 2.422-.985 1.484 0 2.36 1 .89 1 .89 2.688zm-5.422 0q0 1.375.547 2.094.547.703 1.593.703 1.063 0 1.61-.703.562-.72.562-2.094 0-1.36-.562-2.063-.547-.703-1.61-.703-1.062 0-1.609.703-.531.688-.531 2.063zm10.581-3.688q.47 0 .844.078l-.14 1q-.454-.093-.782-.093-.875 0-1.5.703-.61.703-.61 1.75v3.828h-1.077v-7.125h.89l.125 1.312h.063q.39-.703.953-1.078.562-.375 1.234-.375zm3.253 3.61q.282-.39.844-1.032l2.313-2.437h1.28l-2.89 3.031 3.094 4.094h-1.312l-2.516-3.375-.813.703v2.672h-1.078v-10.125h1.078v5.375q0 .344-.062 1.094h.062zm6.996 3.656h-1.078v-10.125h1.078v10.125zm8.45-3.578q0 1.75-.875 2.734-.875.969-2.422.969-.953 0-1.703-.438-.735-.453-1.141-1.296-.406-.844-.406-1.97 0-1.734.875-2.702.875-.985 2.422-.985 1.484 0 2.359 1 .89 1 .89 2.688zm-5.422 0q0 1.375.547 2.094.546.703 1.593.703 1.063 0 1.61-.703.562-.72.562-2.094 0-1.36-.562-2.063-.547-.703-1.61-.703-1.062 0-1.609.703-.531.688-.531 2.063zm11.706 3.578l-.219-1.016h-.046q-.532.672-1.063.907-.531.234-1.328.234-1.063 0-1.672-.547-.594-.547-.594-1.547 0-2.156 3.453-2.265l1.22-.047v-.438q0-.844-.36-1.234-.36-.406-1.156-.406-.891 0-2.016.546l-.344-.828q.531-.28 1.156-.437.641-.172 1.266-.172 1.281 0 1.89.562.61.563.61 1.813v4.875h-.797zm-2.437-.766q1 0 1.578-.547.578-.562.578-1.546v-.641l-1.078.031q-1.281.047-1.86.406-.562.36-.562 1.11 0 .578.344.89.36.297 1 .297zm10.318-.187h-.062q-.75 1.078-2.234 1.078-1.407 0-2.188-.953-.766-.953-.766-2.719t.782-2.734q.78-.985 2.172-.985 1.453 0 2.218 1.063h.094l-.047-.516-.031-.5v-2.906h1.078v10.125h-.875l-.14-.953zm-2.156.172q1.11 0 1.594-.594.5-.61.5-1.938v-.234q0-1.516-.5-2.156-.5-.656-1.61-.656-.953 0-1.453.75-.5.734-.5 2.078 0 1.36.5 2.062.5.688 1.47.688zm9.099-8.735h2.687q1.89 0 2.734.578.844.563.844 1.782 0 .843-.469 1.39-.468.547-1.375.72v.062q2.172.375 2.172 2.28 0 1.266-.875 1.985-.86.719-2.406.719h-3.312v-9.516zm1.109 4.078h1.812q1.172 0 1.688-.359.516-.375.516-1.25 0-.797-.579-1.156-.562-.36-1.812-.36h-1.625v3.125zm0 .938v3.562h1.984q1.14 0 1.719-.437.594-.453.594-1.406 0-.89-.594-1.297-.594-.422-1.812-.422h-1.891z"/><path fill="#fff" d="M331.108 97.706h96.667a19.763 19.763 0 0 1 19.763 19.763v130.305c0 12.86-10.426 23.286-23.287 23.286h-96.667c-10.914 0-19.762-8.848-19.762-19.763V120.993c0-12.861 10.425-23.287 23.286-23.287z" fill-rule="evenodd"/><path stroke="#595959" stroke-linejoin="round" stroke-linecap="butt" d="M331.108 97.706h96.667a19.763 19.763 0 0 1 19.763 19.763v130.305c0 12.86-10.426 23.286-23.287 23.286h-96.667c-10.914 0-19.762-8.848-19.762-19.763V120.993h0c0-12.861 10.425-23.287 23.286-23.287z" fill-rule="evenodd"/><path fill="#000" d="M333.251 252.04h-1.093l-1.922-6.375q-.125-.422-.297-1.063-.172-.64-.172-.78-.156.859-.469 1.89l-1.86 6.328h-1.093l-2.531-9.516h1.172l1.5 5.875q.312 1.235.468 2.235.172-1.188.516-2.328l1.703-5.782h1.172l1.797 5.844q.312 1 .516 2.266.125-.922.468-2.25l1.5-5.86h1.172l-2.547 9.516zm10.027-3.578q0 1.75-.875 2.734-.875.969-2.422.969-.953 0-1.703-.438-.735-.453-1.14-1.296-.407-.844-.407-1.97 0-1.734.875-2.702.875-.985 2.422-.985 1.484 0 2.36 1 .89 1 .89 2.688zm-5.422 0q0 1.375.547 2.094.547.703 1.593.703 1.063 0 1.61-.703.562-.72.562-2.094 0-1.36-.562-2.063-.547-.703-1.61-.703-1.062 0-1.609.703-.531.688-.531 2.063zm10.581-3.688q.47 0 .844.078l-.14 1q-.454-.093-.782-.093-.875 0-1.5.703-.61.703-.61 1.75v3.828h-1.077v-7.125h.89l.125 1.312h.063q.39-.703.953-1.078.562-.375 1.234-.375zm3.253 3.61q.282-.39.844-1.032l2.313-2.437h1.28l-2.89 3.031 3.094 4.094h-1.312l-2.516-3.375-.813.703v2.672h-1.078v-10.125h1.078v5.375q0 .344-.062 1.094h.062zm6.996 3.656h-1.078v-10.125h1.078v10.125zm8.45-3.578q0 1.75-.875 2.734-.875.969-2.422.969-.953 0-1.703-.438-.735-.453-1.141-1.296-.406-.844-.406-1.97 0-1.734.875-2.702.875-.985 2.422-.985 1.484 0 2.359 1 .89 1 .89 2.688zm-5.422 0q0 1.375.547 2.094.546.703 1.593.703 1.063 0 1.61-.703.562-.72.562-2.094 0-1.36-.562-2.063-.547-.703-1.61-.703-1.062 0-1.609.703-.531.688-.531 2.063zm11.706 3.578l-.219-1.016h-.046q-.532.672-1.063.907-.531.234-1.328.234-1.063 0-1.672-.547-.594-.547-.594-1.547 0-2.156 3.453-2.265l1.22-.047v-.438q0-.844-.36-1.234-.36-.406-1.156-.406-.891 0-2.016.546l-.344-.828q.531-.28 1.156-.437.641-.172 1.266-.172 1.281 0 1.89.562.61.563.61 1.813v4.875h-.797zm-2.437-.766q1 0 1.578-.547.578-.562.578-1.546v-.641l-1.078.031q-1.281.047-1.86.406-.562.36-.562 1.11 0 .578.344.89.36.297 1 .297zm10.318-.187h-.062q-.75 1.078-2.234 1.078-1.407 0-2.188-.953-.766-.953-.766-2.719t.782-2.734q.78-.985 2.172-.985 1.453 0 2.218 1.063h.094l-.047-.516-.031-.5v-2.906h1.078v10.125h-.875l-.14-.953zm-2.156.172q1.11 0 1.594-.594.5-.61.5-1.938v-.234q0-1.516-.5-2.156-.5-.656-1.61-.656-.953 0-1.453.75-.5.734-.5 2.078 0 1.36.5 2.062.5.688 1.47.688zm15.067.781l-1.172-3.031h-3.812l-1.172 3.031h-1.125l3.766-9.547h.922l3.75 9.547h-1.157zm-1.515-4.016l-1.11-2.953q-.218-.562-.453-1.375-.14.625-.406 1.375l-1.11 2.953h3.079z"/><path fill="#000" fill-opacity="0" d="M164.811 150.748l-37.858-3.339" fill-rule="evenodd"/><path stroke="#4f81bd" stroke-linejoin="round" stroke-linecap="butt" d="M161.397 150.447l-34.444-3.038" fill-rule="evenodd"/><path fill="#4f81bd" stroke="#4f81bd" stroke-linecap="butt" d="M161.397 150.447l-1.219 1.021 3.177-.848-2.98-1.392z" fill-rule="evenodd"/><path fill="#fff" d="M29.094 138.12c-.868-4.47 1.982-8.896 7.342-11.398 5.36-2.503 12.289-2.644 17.847-.363 1.968-2.6 5.572-4.394 9.72-4.841 4.148-.448 8.354.505 11.345 2.57 1.677-2.357 4.97-3.94 8.71-4.188 3.741-.249 7.4.874 9.678 2.968 3.03-2.498 7.85-3.55 12.376-2.7 4.526.85 7.944 3.448 8.774 6.67 3.713.71 6.805 2.514 8.478 4.946 1.673 2.431 1.764 5.253.247 7.735 3.656 3.334 4.511 7.776 2.247 11.668-2.265 3.893-7.309 6.652-13.25 7.247-.041 3.653-2.9 7.006-7.476 8.765-4.575 1.759-10.151 1.65-14.58-.285-1.885 4.376-7.194 7.596-13.632 8.268-6.437.673-12.85-1.323-16.467-5.123-4.434 1.873-9.754 2.413-14.76 1.497-5.007-.916-9.278-3.21-11.85-6.365-4.531.371-8.912-1.273-10.969-4.118-2.056-2.845-1.35-6.284 1.767-8.611-4.042-1.667-6.104-4.974-5.111-8.198.992-3.223 4.814-5.632 9.473-5.97z" fill-rule="evenodd"/><path fill="#000" fill-opacity="0" d="M24.642 152.462c1.907.786 4.11 1.143 6.314 1.022m2.887 11.707a14.809 14.809 0 0 0 2.762-.49m23.847 5.357a11.212 11.212 0 0 1-1.665-2.232m31.766-.912a8.777 8.777 0 0 0 .665-2.45m21.39-6.03c.044-3.89-3.109-7.451-8.105-9.155m19.107-9.76c-.809 1.325-2.044 2.5-3.608 3.433m-5.116-16.113a5.99 5.99 0 0 1 .19 1.62m-21.34-5.591a8.71 8.71 0 0 0-1.849 2.068m-16.54-.848a6.301 6.301 0 0 0-.895 1.783m-20.17.488a17.587 17.587 0 0 1 3.24 1.73M29.094 138.12c.12.616.309 1.225.565 1.82" fill-rule="evenodd"/><path stroke="#4a86e8" stroke-linejoin="round" stroke-linecap="butt" d="M29.094 138.12h0c-.868-4.47 1.982-8.896 7.342-11.398 5.36-2.503 12.289-2.644 17.847-.363h0c1.968-2.6 5.572-4.394 9.72-4.841 4.148-.448 8.354.505 11.345 2.57h0c1.677-2.357 4.97-3.94 8.71-4.188 3.741-.249 7.4.874 9.678 2.968h0c3.03-2.498 7.85-3.55 12.376-2.7 4.526.85 7.944 3.448 8.774 6.67h0c3.713.71 6.805 2.514 8.478 4.946 1.673 2.431 1.764 5.253.247 7.735h0c3.656 3.334 4.511 7.776 2.247 11.668-2.265 3.893-7.309 6.652-13.25 7.247-.041 3.653-2.9 7.006-7.476 8.765-4.575 1.759-10.151 1.65-14.58-.285-1.885 4.376-7.194 7.596-13.632 8.268-6.437.673-12.85-1.323-16.467-5.123-4.434 1.873-9.754 2.413-14.76 1.497-5.007-.916-9.278-3.21-11.85-6.365h0c-4.531.371-8.912-1.273-10.969-4.118-2.056-2.845-1.35-6.284 1.767-8.611h0c-4.042-1.667-6.104-4.974-5.111-8.198.992-3.223 4.814-5.632 9.473-5.97z" fill-rule="evenodd"/><path stroke="#4a86e8" stroke-linejoin="round" stroke-linecap="butt" d="M24.642 152.462h0c1.907.786 4.11 1.143 6.314 1.022m2.887 11.707a14.809 14.809 0 0 0 2.762-.49m23.847 5.357a11.212 11.212 0 0 1-1.665-2.232m31.766-.912h0a8.777 8.777 0 0 0 .665-2.45m21.39-6.03c.044-3.89-3.109-7.451-8.105-9.155m19.107-9.76c-.809 1.325-2.044 2.5-3.608 3.433m-5.116-16.113h0a5.99 5.99 0 0 1 .19 1.62m-21.34-5.591h0a8.71 8.71 0 0 0-1.849 2.068m-16.54-.848h0a6.301 6.301 0 0 0-.895 1.783m-20.17.488h0a17.587 17.587 0 0 1 3.24 1.73M29.094 138.12h0c.12.616.309 1.225.565 1.82" fill-rule="evenodd"/><path fill="#000" d="M49.823 137.554q0 1.313-.89 2.016-.89.687-2.532.687h-1.015v3.375h-1v-8.562h2.234q3.203 0 3.203 2.484zm-4.437 1.86h.906q1.313 0 1.906-.422.594-.438.594-1.39 0-.845-.562-1.25-.547-.423-1.735-.423h-1.11v3.485zm7.006-2.204v4.172q0 .782.343 1.172.36.375 1.125.375 1.016 0 1.47-.547.468-.547.468-1.797v-3.375h.969v6.422h-.797l-.14-.86h-.048q-.297.47-.828.735-.531.25-1.219.25-1.171 0-1.75-.562-.578-.563-.578-1.781v-4.204h.985zm9.427-.109q1.266 0 1.97.875.702.86.702 2.438 0 1.578-.703 2.468-.703.875-1.969.875-.625 0-1.14-.234-.516-.234-.875-.719h-.063l-.203.828h-.703v-9.125h.969v2.22q0 .75-.047 1.343h.047q.687-.969 2.015-.969zm-.14.813q-.985 0-1.438.578-.437.562-.437 1.922 0 1.359.453 1.937.453.578 1.453.578.89 0 1.328-.64.438-.657.438-1.891 0-1.25-.438-1.86-.437-.624-1.36-.624zm5.478 5.718h-.968v-9.125h.968v9.125zm3.035 0h-.968v-6.422h.968v6.422zm-1.046-8.156q0-.344.156-.5.172-.156.422-.156.234 0 .39.172.172.156.172.484 0 .328-.172.484-.156.157-.39.157-.25 0-.422-.157-.156-.156-.156-.484zm5.675 8.281q-1.39 0-2.156-.86-.766-.858-.766-2.437 0-1.609.782-2.484.781-.89 2.203-.89.469 0 .922.109.468.094.734.234l-.297.828q-.328-.14-.703-.218-.375-.079-.672-.079-1.953 0-1.953 2.485 0 1.187.469 1.828.484.625 1.422.625.797 0 1.64-.344v.86q-.64.343-1.625.343zM48.636 157.632v-4.156q0-.781-.36-1.172-.343-.39-1.109-.39-1.016 0-1.484.546-.47.547-.47 1.797v3.375h-.968v-6.422h.797l.156.875h.047q.297-.468.828-.734.547-.266 1.203-.266 1.172 0 1.75.563.594.562.594 1.797v4.187h-.984zm5.693.125q-1.422 0-2.25-.875-.828-.875-.828-2.406 0-1.562.766-2.469.765-.922 2.062-.922 1.203 0 1.906.797.704.797.704 2.094v.625h-4.422q.03 1.125.562 1.719.547.578 1.531.578 1.032 0 2.047-.438v.875q-.515.22-.984.313-.453.11-1.094.11zm-.265-5.843q-.782 0-1.25.5-.454.5-.532 1.39h3.36q0-.922-.407-1.406-.406-.484-1.171-.484zm6.357 5.03q.25 0 .484-.03.25-.047.391-.079v.735q-.156.078-.469.125-.297.062-.547.062-1.859 0-1.859-1.968v-3.829h-.922v-.468l.922-.407.406-1.359h.563v1.484h1.86v.75h-1.86v3.782q0 .578.265.89.282.313.766.313zm7.408.688l-1.187-3.765q-.11-.344-.407-1.578h-.046q-.235 1.03-.422 1.593l-1.203 3.75h-1.125l-1.75-6.422h1.015q.625 2.422.938 3.688.328 1.266.375 1.703h.047q.062-.328.203-.86.156-.53.265-.843l1.172-3.688h1.047l1.156 3.688q.328 1 .438 1.687h.047q.03-.203.125-.64.11-.453 1.234-4.735h1l-1.766 6.422H67.83zm9.631-3.218q0 1.578-.797 2.468-.781.875-2.187.875-.86 0-1.532-.406-.656-.406-1.03-1.156-.36-.766-.36-1.781 0-1.563.781-2.438.797-.89 2.188-.89 1.343 0 2.14.906.797.89.797 2.422zm-4.89 0q0 1.234.484 1.875.5.64 1.453.64.953 0 1.437-.64.5-.641.5-1.875 0-1.22-.5-1.86-.484-.64-1.453-.64-.953 0-1.437.64-.485.625-.485 1.86zm9.529-3.329q.422 0 .765.079l-.14.906q-.39-.094-.703-.094-.782 0-1.344.64-.547.626-.547 1.563v3.453h-.969v-6.422h.797l.125 1.188h.047q.344-.625.844-.969.515-.344 1.125-.344zm2.93 3.266q.25-.36.765-.937l2.063-2.204h1.156l-2.594 2.735 2.781 3.687h-1.172l-2.28-3.03-.72.624v2.406h-.968v-9.125h.968v4.844q0 .313-.046 1h.046z"/><path fill="#9fc5e8" d="M164.811 134.517a8.116 8.116 0 0 1 8.116-8.115h91.453a8.116 8.116 0 0 1 8.116 8.115v32.462a8.116 8.116 0 0 1-8.116 8.115h-91.453a8.116 8.116 0 0 1-8.116-8.115z" fill-rule="evenodd"/><path fill="#000" d="M182.797 142.19q0 1.312-.89 2.016-.89.687-2.531.687h-1.016v3.375h-1v-8.562h2.234q3.203 0 3.203 2.484zm-4.437 1.86h.906q1.313 0 1.906-.423.594-.437.594-1.39 0-.844-.562-1.25-.547-.422-1.735-.422h-1.11v3.484zm7.006-2.204v4.172q0 .781.344 1.172.359.375 1.125.375 1.015 0 1.468-.547.469-.547.469-1.797v-3.375h.969v6.422h-.797l-.14-.86h-.048q-.296.47-.828.735-.531.25-1.218.25-1.172 0-1.75-.562-.579-.563-.579-1.782v-4.203h.985zm9.427-.11q1.266 0 1.97.876.702.86.702 2.437 0 1.578-.703 2.469-.703.875-1.969.875-.625 0-1.14-.234-.516-.235-.875-.72h-.063l-.203.829h-.703v-9.125h.969v2.219q0 .75-.047 1.344h.047q.687-.97 2.015-.97zm-.14.813q-.985 0-1.438.578-.437.563-.437 1.922 0 1.36.453 1.938.453.578 1.453.578.89 0 1.328-.64.438-.657.438-1.891 0-1.25-.438-1.86-.437-.625-1.36-.625zm5.478 5.719h-.968v-9.125h.968v9.125zm3.036 0h-.97v-6.422h.97v6.422zm-1.047-8.156q0-.344.156-.5.172-.156.422-.156.234 0 .39.171.172.157.172.485 0 .328-.172.484-.156.156-.39.156-.25 0-.422-.156-.156-.156-.156-.484zm5.675 8.281q-1.39 0-2.156-.86-.765-.859-.765-2.437 0-1.61.78-2.484.782-.89 2.204-.89.469 0 .922.109.469.093.734.234l-.297.828q-.328-.14-.703-.219-.375-.078-.672-.078-1.953 0-1.953 2.485 0 1.187.469 1.828.484.625 1.422.625.797 0 1.64-.344v.86q-.64.343-1.625.343zm6.409-.125v-8.562h1v8.562h-1zm7.595 0v-4.156q0-.781-.359-1.172-.344-.39-1.11-.39-1.015 0-1.484.546-.469.547-.469 1.797v3.375h-.968v-6.422h.797l.156.875h.047q.297-.469.828-.734.547-.266 1.203-.266 1.172 0 1.75.563.594.562.594 1.797v4.187h-.985zm8.225-6.422v.61l-1.188.14q.172.203.297.547.125.328.125.734 0 .954-.64 1.516-.64.563-1.766.563-.297 0-.547-.047-.61.328-.61.828 0 .265.204.39.219.125.75.125h1.14q1.047 0 1.594.438.563.437.563 1.281 0 1.063-.86 1.625-.843.563-2.484.563-1.266 0-1.953-.47-.672-.468-.672-1.327 0-.594.375-1.031.375-.422 1.047-.563-.25-.11-.422-.344-.156-.234-.156-.547 0-.359.187-.625.188-.265.594-.5-.5-.203-.812-.687-.313-.5-.313-1.14 0-1.048.625-1.626.64-.578 1.797-.578.5 0 .906.125h2.219zm-5.11 7.5q0 .516.438.781.438.282 1.25.282 1.234 0 1.813-.375.593-.36.593-.985 0-.515-.328-.718-.312-.204-1.203-.204h-1.172q-.656 0-1.031.313-.36.312-.36.906zm.516-5.437q0 .672.375 1.015.39.344 1.078.344 1.422 0 1.422-1.39 0-1.438-1.437-1.438-.688 0-1.063.375-.375.36-.375 1.094zm8.856-2.188q.422 0 .765.078l-.14.907q-.39-.094-.703-.094-.782 0-1.344.64-.547.625-.547 1.563v3.453h-.969v-6.422h.797l.125 1.188h.047q.344-.625.844-.97.515-.343 1.125-.343zm4.68 6.672q-1.423 0-2.25-.875-.829-.875-.829-2.406 0-1.563.766-2.469.765-.922 2.062-.922 1.203 0 1.907.797.703.797.703 2.094v.625h-4.422q.031 1.125.562 1.719.547.578 1.532.578 1.03 0 2.046-.438v.875q-.515.219-.984.313-.453.109-1.094.109zm-.266-5.844q-.782 0-1.25.5-.453.5-.532 1.39h3.36q0-.921-.406-1.405-.407-.485-1.172-.485zm8.42 3.969q0 .89-.672 1.39-.656.485-1.875.485-1.266 0-1.985-.406v-.906q.47.234.985.375.531.125 1.031.125.766 0 1.172-.235.406-.25.406-.75 0-.375-.328-.64-.312-.266-1.266-.625-.89-.344-1.28-.594-.376-.25-.563-.563-.172-.312-.172-.75 0-.781.64-1.234.641-.469 1.75-.469 1.032 0 2.032.422l-.36.797q-.953-.39-1.75-.39-.687 0-1.047.218-.343.203-.343.594 0 .25.125.437.14.172.422.344.296.156 1.14.469 1.14.422 1.531.844.407.421.407 1.062zm5.724 0q0 .89-.672 1.39-.656.485-1.875.485-1.265 0-1.984-.406v-.906q.469.234.984.375.532.125 1.032.125.765 0 1.172-.235.406-.25.406-.75 0-.375-.328-.64-.313-.266-1.266-.625-.89-.344-1.281-.594-.375-.25-.563-.563-.172-.312-.172-.75 0-.781.641-1.234.64-.469 1.75-.469 1.031 0 2.031.422l-.36.797q-.952-.39-1.75-.39-.687 0-1.046.218-.344.203-.344.594 0 .25.125.437.14.172.422.344.297.156 1.14.469 1.141.422 1.532.844.406.421.406 1.062zM182.47 155.846v.61l-1.188.14q.172.203.297.547.125.328.125.734 0 .954-.641 1.516-.64.563-1.766.563-.296 0-.546-.047-.61.328-.61.828 0 .265.203.39.219.125.75.125h1.14q1.048 0 1.595.438.562.437.562 1.281 0 1.063-.86 1.625-.843.563-2.484.563-1.265 0-1.953-.47-.672-.468-.672-1.327 0-.594.375-1.031.375-.422 1.047-.563-.25-.11-.422-.344-.156-.234-.156-.547 0-.359.188-.625.187-.265.593-.5-.5-.203-.812-.687-.313-.5-.313-1.14 0-1.048.625-1.626.641-.578 1.797-.578.5 0 .907.125h2.218zm-5.11 7.5q0 .516.437.781.438.282 1.25.282 1.235 0 1.813-.375.594-.36.594-.985 0-.515-.328-.718-.313-.204-1.204-.204h-1.171q-.657 0-1.032.313-.36.312-.36.906zm.516-5.437q0 .672.375 1.015.39.344 1.078.344 1.422 0 1.422-1.39 0-1.438-1.438-1.438-.687 0-1.062.375-.375.36-.375 1.094zm9.87 4.359l-.203-.922h-.046q-.47.61-.954.828-.468.219-1.187.219-.953 0-1.5-.5t-.547-1.406q0-1.938 3.11-2.031l1.093-.032v-.406q0-.75-.328-1.11-.312-.359-1.031-.359-.813 0-1.813.485l-.312-.75q.484-.25 1.047-.391.562-.156 1.14-.156 1.141 0 1.688.515.562.5.562 1.625v4.391h-.718zm-2.203-.687q.907 0 1.422-.5.532-.5.532-1.391v-.578l-.985.031q-1.156.047-1.672.375-.5.313-.5.984 0 .532.313.813.312.266.89.266zm7.002 0q.25 0 .485-.032.25-.047.39-.078v.735q-.156.078-.468.125-.297.062-.547.062-1.86 0-1.86-1.969v-3.828h-.921v-.469l.921-.406.407-1.36h.562v1.485h1.86v.75h-1.86v3.781q0 .579.266.891.281.313.765.313zm4.877.812q-1.421 0-2.25-.875-.828-.875-.828-2.406 0-1.563.766-2.469.766-.922 2.062-.922 1.204 0 1.907.797.703.797.703 2.094v.625h-4.422q.031 1.125.562 1.719.547.578 1.532.578 1.03 0 2.047-.438v.875q-.516.219-.985.313-.453.109-1.094.109zm-.265-5.844q-.781 0-1.25.5-.453.5-.531 1.39h3.359q0-.921-.406-1.405-.407-.485-1.172-.485zm9.53 5.719l-1.188-3.766q-.11-.343-.407-1.578h-.047q-.234 1.032-.421 1.594l-1.204 3.75h-1.125l-1.75-6.422h1.016q.625 2.422.938 3.688.328 1.265.375 1.703h.046q.063-.328.204-.86.156-.53.265-.843l1.172-3.688h1.047l1.156 3.688q.328 1 .438 1.687h.047q.03-.203.125-.64.109-.454 1.234-4.735h1l-1.766 6.422h-1.156zm8.036 0l-.203-.922h-.047q-.469.61-.953.828-.469.219-1.187.219-.954 0-1.5-.5-.547-.5-.547-1.406 0-1.938 3.11-2.031l1.093-.032v-.406q0-.75-.328-1.11-.313-.359-1.032-.359-.812 0-1.812.485l-.313-.75q.485-.25 1.047-.391.563-.156 1.14-.156 1.142 0 1.688.515.563.5.563 1.625v4.391h-.719zm-2.203-.687q.906 0 1.422-.5.531-.5.531-1.391v-.578l-.984.031q-1.156.047-1.672.375-.5.313-.5.984 0 .532.312.813.313.266.891.266zm3.908-5.735h1.047l1.406 3.656q.454 1.266.563 1.813h.047q.078-.297.312-1.016.25-.734 1.61-4.453h1.03l-2.75 7.313q-.421 1.078-.968 1.53-.547.47-1.344.47-.437 0-.875-.11v-.781q.329.078.72.078 1 0 1.437-1.125l.359-.922-2.594-6.453z"/><path fill="#9fc5e8" d="M326.123 124.045h102.961v46.299h-102.96z" fill-rule="evenodd"/><path fill="#000" d="M366.095 135.994l-3.22-8.437h-.062q.094 1 .094 2.39v6.047h-1.015v-9.515h1.656l3.015 7.843h.063l3.031-7.843h1.656v9.515h-1.109v-6.125q0-1.062.094-2.297h-.047l-3.266 8.422h-.89zm10.673.125q-1.578 0-2.5-.953-.906-.969-.906-2.672 0-1.734.844-2.75.86-1.015 2.281-1.015 1.344 0 2.125.89.781.875.781 2.328v.672h-4.906q.031 1.266.625 1.922.61.64 1.703.64 1.14 0 2.266-.484v.97q-.563.25-1.078.343-.516.11-1.235.11zm-.296-6.484q-.86 0-1.375.562-.5.563-.594 1.547h3.734q0-1.015-.453-1.562-.453-.547-1.312-.547zm9.368 4.406q0 1-.75 1.547-.735.531-2.078.531-1.422 0-2.22-.437v-1.016q.516.266 1.11.422.594.14 1.14.14.845 0 1.298-.265.453-.266.453-.828 0-.406-.36-.703-.359-.297-1.406-.703-1-.375-1.422-.641-.422-.281-.625-.625-.203-.36-.203-.844 0-.875.703-1.375.72-.515 1.953-.515 1.157 0 2.25.468l-.375.875q-1.078-.437-1.953-.437-.765 0-1.156.25-.39.234-.39.656 0 .281.14.484.156.204.469.391.328.172 1.25.531 1.281.453 1.719.922.453.469.453 1.172zm6.64 1.953v-4.61q0-.874-.407-1.296-.39-.438-1.234-.438-1.125 0-1.657.61-.515.61-.515 2v3.734h-1.078V125.87h1.078v3.063q0 .547-.047.922h.062q.328-.516.907-.813.593-.297 1.343-.297 1.313 0 1.969.625.656.625.656 1.969v4.656h-1.078zM358.892 144.87v.671l-1.328.156q.187.235.328.61.14.36.14.812 0 1.063-.718 1.688-.704.61-1.954.61-.328 0-.609-.048-.687.36-.687.922 0 .297.234.438.25.14.844.14h1.25q1.172 0 1.781.485.625.484.625 1.421 0 1.172-.953 1.797t-2.766.625q-1.406 0-2.172-.53-.75-.517-.75-1.47 0-.64.422-1.125.422-.468 1.172-.64-.281-.125-.469-.375-.172-.266-.172-.61 0-.39.204-.687.203-.297.656-.563-.547-.234-.906-.78-.344-.548-.344-1.25 0-1.173.703-1.798.703-.64 1.984-.64.563 0 1.016.14h2.469zm-5.688 8.327q0 .578.485.875.484.297 1.406.297 1.36 0 2-.406.656-.406.656-1.11 0-.578-.36-.796-.343-.22-1.343-.22h-1.297q-.734 0-1.14.345-.407.36-.407 1.015zm.578-6.047q0 .75.422 1.141.438.375 1.188.375 1.578 0 1.578-1.547 0-1.594-1.594-1.594-.766 0-1.187.407-.407.406-.407 1.218zm10.958 4.844l-.218-1.015h-.047q-.531.671-1.063.906-.531.234-1.328.234-1.062 0-1.672-.547-.593-.547-.593-1.547 0-2.156 3.453-2.265l1.218-.047v-.438q0-.843-.359-1.234-.36-.406-1.156-.406-.89 0-2.016.547l-.344-.828q.532-.282 1.157-.438.64-.172 1.265-.172 1.282 0 1.89.563.61.562.61 1.812v4.875h-.797zm-2.437-.765q1 0 1.578-.547.578-.563.578-1.547v-.64l-1.078.03q-1.281.047-1.86.407-.562.36-.562 1.11 0 .577.344.89.36.297 1 .297zm7.772 0q.281 0 .547-.032.265-.047.421-.093v.828q-.171.078-.515.125-.344.062-.61.062-2.078 0-2.078-2.172v-4.25h-1.015v-.515l1.015-.453.453-1.516h.625v1.656h2.079v.828h-2.079v4.203q0 .641.313.985.312.344.844.344zm5.408.89q-1.578 0-2.5-.953-.906-.969-.906-2.672 0-1.734.844-2.75.859-1.015 2.28-1.015 1.345 0 2.126.89.781.875.781 2.328v.672h-4.906q.031 1.266.625 1.922.61.64 1.703.64 1.14 0 2.266-.484v.97q-.563.25-1.079.343-.515.11-1.234.11zm-.297-6.484q-.86 0-1.375.562-.5.563-.594 1.547h3.735q0-1.015-.453-1.562-.453-.547-1.313-.547zm10.587 6.36l-1.312-4.188q-.125-.375-.453-1.735h-.063q-.25 1.125-.453 1.75l-1.344 4.172h-1.25l-1.937-7.125h1.125l1.047 4.094q.359 1.39.421 1.89h.047q.078-.374.235-.953.156-.593.28-.953l1.298-4.078h1.172l1.28 4.078q.36 1.125.5 1.89h.048q.031-.233.14-.718.11-.5 1.36-5.25h1.11l-1.97 7.125h-1.28zm8.93 0l-.22-1.016h-.046q-.531.671-1.062.906-.532.234-1.329.234-1.062 0-1.671-.547-.594-.547-.594-1.547 0-2.156 3.453-2.265l1.219-.047v-.438q0-.843-.36-1.234-.36-.406-1.156-.406-.89 0-2.016.547l-.343-.828q.53-.282 1.156-.438.64-.172 1.266-.172 1.28 0 1.89.563.61.562.61 1.812v4.875h-.797zm-2.438-.766q1 0 1.578-.547.578-.563.578-1.547v-.64l-1.078.03q-1.281.047-1.86.407-.562.36-.562 1.11 0 .577.344.89.36.297 1 .297zm4.335-6.36h1.156l1.562 4.063q.516 1.39.64 2.015h.048q.078-.343.344-1.14.28-.813 1.78-4.938h1.157l-3.062 8.11q-.454 1.203-1.063 1.703-.61.515-1.5.515-.5 0-.969-.11v-.874q.36.078.797.078 1.11 0 1.594-1.25l.39-1.016-2.874-7.156zM351.905 164.338q0-1.719.5-3.219.516-1.5 1.469-2.64h1.047q-.938 1.25-1.407 2.765-.468 1.5-.468 3.094 0 1.547.468 3.047.485 1.484 1.39 2.719h-1.03q-.97-1.11-1.47-2.579-.5-1.484-.5-3.187zm9.162 1.703q0 1-.75 1.547-.734.531-2.078.531-1.422 0-2.218-.437v-1.016q.515.266 1.109.422.594.14 1.14.14.844 0 1.297-.265.454-.266.454-.828 0-.406-.36-.703-.36-.297-1.406-.703-1-.375-1.422-.641-.422-.281-.625-.625-.203-.36-.203-.844 0-.875.703-1.375.719-.515 1.953-.515 1.156 0 2.25.468l-.375.875q-1.078-.437-1.953-.437-.766 0-1.156.25-.39.234-.39.656 0 .281.14.484.156.204.469.391.328.172 1.25.531 1.28.453 1.718.922.453.469.453 1.172zm2.827 1.953h-1.078v-7.125h1.078v7.125zm-1.172-9.062q0-.375.188-.547.187-.172.453-.172t.453.172q.188.172.188.547 0 .36-.188.547-.187.171-.453.171t-.453-.171q-.188-.188-.188-.547zm8.325 8.11h-.063q-.75 1.077-2.234 1.077-1.406 0-2.188-.953-.765-.953-.765-2.719 0-1.765.781-2.734.781-.984 2.172-.984 1.453 0 2.219 1.062h.093l-.047-.516-.03-.5v-2.906h1.077v10.125h-.875l-.14-.953zm-2.157.17q1.11 0 1.594-.593.5-.61.5-1.937v-.235q0-1.515-.5-2.156-.5-.656-1.61-.656-.952 0-1.452.75-.5.734-.5 2.078 0 1.36.5 2.062.5.688 1.468.688zm8.48.907q-1.578 0-2.5-.953-.906-.969-.906-2.672 0-1.734.844-2.75.86-1.015 2.281-1.015 1.344 0 2.125.89.781.875.781 2.328v.672h-4.906q.031 1.266.625 1.922.61.64 1.703.64 1.14 0 2.266-.484v.97q-.563.25-1.078.343-.516.11-1.235.11zm-.297-6.484q-.859 0-1.375.562-.5.563-.593 1.547h3.734q0-1.015-.453-1.562-.453-.547-1.313-.547zm7.619 6.484q-1.547 0-2.407-.953-.843-.953-.843-2.687 0-1.797.859-2.766.86-.984 2.453-.984.516 0 1.031.109.516.11.813.266l-.328.921q-.36-.156-.797-.25-.422-.093-.734-.093-2.172 0-2.172 2.78 0 1.313.515 2.017.532.703 1.578.703.891 0 1.829-.39v.968q-.72.36-1.797.36zm7.876-.125l-.219-1.015h-.047q-.53.671-1.062.906-.531.234-1.328.234-1.063 0-1.672-.547-.594-.547-.594-1.547 0-2.156 3.453-2.265l1.22-.047v-.438q0-.843-.36-1.234-.36-.406-1.157-.406-.89 0-2.015.547l-.344-.828q.531-.282 1.156-.438.641-.172 1.266-.172 1.281 0 1.89.563.61.562.61 1.812v4.875h-.797zm-2.437-.765q1 0 1.578-.547.578-.563.578-1.547v-.64l-1.078.03q-1.282.047-1.86.407-.562.36-.562 1.11 0 .577.344.89.359.297 1 .297zm8.725-6.5q.468 0 .843.078l-.14 1q-.453-.094-.782-.094-.875 0-1.5.703-.609.703-.609 1.75v3.828h-1.078v-7.125h.89l.126 1.313h.062q.39-.703.953-1.078.563-.375 1.235-.375zm4.44 3.609q0 1.719-.5 3.203-.5 1.469-1.453 2.563h-1.047q.906-1.22 1.39-2.72.485-1.5.485-3.046 0-1.594-.484-3.094-.469-1.515-1.406-2.765h1.062q.953 1.14 1.453 2.656.5 1.5.5 3.203z"/><path fill="#b6d7a8" d="M326.122 201.711h102.96v29.26h-102.96z" fill-rule="evenodd"/><path fill="#000" d="M352.45 219.154q0 1.516-1.093 2.36-1.094.843-2.97.843-2.03 0-3.124-.531v-1.281q.703.297 1.531.469.828.171 1.64.171 1.329 0 2-.5.673-.5.673-1.406 0-.594-.235-.969-.234-.375-.797-.687-.562-.328-1.703-.734-1.594-.579-2.281-1.36-.672-.781-.672-2.031 0-1.328.984-2.11 1-.78 2.625-.78 1.704 0 3.141.624l-.422 1.157q-1.406-.594-2.75-.594-1.047 0-1.64.453-.594.453-.594 1.266 0 .593.219.968.218.375.734.703.516.313 1.594.688 1.797.64 2.468 1.375.672.734.672 1.906zm5.766 3.203q-1.906 0-3-1.156t-1.094-3.219q0-2.062 1.016-3.281 1.015-1.219 2.734-1.219 1.61 0 2.547 1.063.938 1.047.938 2.781v.828h-5.891q.031 1.5.75 2.281.734.782 2.047.782 1.375 0 2.734-.578v1.156q-.687.297-1.312.422-.61.14-1.47.14zm-.36-7.797q-1.03 0-1.64.672-.61.672-.719 1.86h4.469q0-1.22-.547-1.875-.547-.657-1.562-.657zm9.618-1.078q.578 0 1.031.094l-.188 1.203q-.53-.125-.937-.125-1.031 0-1.781.844-.735.844-.735 2.11v4.593h-1.297v-8.562h1.079l.14 1.578h.063q.484-.828 1.156-1.282.672-.453 1.469-.453zm4.5 8.719l-3.25-8.562h1.39l1.844 5.078q.625 1.78.734 2.312h.063q.094-.422.547-1.719.453-1.296 2.047-5.671h1.39l-3.25 8.562h-1.515zm7.437 0h-1.297v-8.562h1.297v8.562zm-1.406-10.89q0-.438.219-.641.218-.219.547-.219.312 0 .53.219.235.203.235.64 0 .438-.234.657-.219.218-.531.218-.329 0-.547-.218-.219-.22-.219-.657zm7.578 11.046q-1.86 0-2.875-1.14-1.016-1.157-1.016-3.25 0-2.141 1.032-3.313 1.031-1.172 2.953-1.172.61 0 1.219.14.625.126.984.298l-.406 1.11q-.422-.173-.938-.282-.5-.125-.89-.125-2.61 0-2.61 3.328 0 1.578.625 2.422.64.844 1.89.844 1.079 0 2.204-.453v1.14q-.86.453-2.172.453zm7.82 0q-1.906 0-3-1.156-1.093-1.156-1.093-3.219 0-2.062 1.015-3.281 1.016-1.219 2.735-1.219 1.61 0 2.547 1.063.937 1.047.937 2.781v.828h-5.89q.03 1.5.75 2.281.734.782 2.046.782 1.375 0 2.735-.578v1.156q-.688.297-1.313.422-.61.14-1.469.14zm-.359-7.797q-1.031 0-1.64.672-.61.672-.72 1.86h4.47q0-1.22-.547-1.875-.547-.657-1.563-.657zm17.664 7.641h-1.5l-3.078-5.031-3.125 5.031h-1.406l3.797-5.969-3.532-5.453h1.47l2.827 4.516 2.86-4.516h1.421l-3.546 5.406 3.812 6.016z"/><path fill="#9fc5e8" d="M499.659 124.045h102.96v46.299H499.66z" fill-rule="evenodd"/><path fill="#000" d="M539.63 135.994l-3.219-8.437h-.062q.094 1 .094 2.39v6.047h-1.016v-9.515h1.656l3.016 7.843h.062l3.032-7.843h1.656v9.515h-1.11v-6.125q0-1.062.094-2.297h-.047l-3.265 8.422h-.89zm10.674.125q-1.578 0-2.5-.953-.906-.969-.906-2.672 0-1.734.843-2.75.86-1.015 2.282-1.015 1.343 0 2.125.89.78.875.78 2.328v.672h-4.905q.03 1.266.625 1.922.609.64 1.703.64 1.14 0 2.265-.484v.969q-.562.25-1.078.344-.515.11-1.234.11zm-.297-6.484q-.86 0-1.375.562-.5.563-.594 1.547h3.735q0-1.015-.454-1.562-.453-.547-1.312-.547zm9.368 4.406q0 1-.75 1.547-.734.531-2.078.531-1.422 0-2.219-.437v-1.016q.516.266 1.11.422.593.14 1.14.14.844 0 1.297-.265.453-.266.453-.828 0-.406-.36-.703-.359-.297-1.405-.703-1-.375-1.422-.641-.422-.281-.625-.625-.203-.36-.203-.844 0-.875.703-1.375.718-.515 1.953-.515 1.156 0 2.25.468l-.375.875q-1.078-.437-1.953-.437-.766 0-1.157.25-.39.234-.39.656 0 .281.14.484.157.204.47.391.327.172 1.25.531 1.28.453 1.718.922.453.469.453 1.172zm6.64 1.953v-4.61q0-.874-.407-1.296-.39-.438-1.234-.438-1.125 0-1.656.61-.516.61-.516 2v3.734h-1.078V125.87h1.078v3.063q0 .547-.047.922h.063q.328-.516.906-.813.594-.297 1.344-.297 1.312 0 1.968.625.657.625.657 1.969v4.656h-1.078zM532.427 144.87v.671l-1.328.156q.187.235.328.61.14.359.14.812 0 1.063-.718 1.688-.703.609-1.953.609-.328 0-.61-.047-.687.36-.687.922 0 .297.234.438.25.14.844.14h1.25q1.172 0 1.781.485.625.484.625 1.421 0 1.172-.953 1.797t-2.765.625q-1.407 0-2.172-.531-.75-.516-.75-1.469 0-.64.422-1.125.421-.468 1.171-.64-.28-.125-.468-.375-.172-.266-.172-.61 0-.39.203-.687.203-.297.656-.563-.547-.234-.906-.781-.344-.547-.344-1.25 0-1.172.703-1.797.703-.64 1.985-.64.562 0 1.015.14h2.47zm-5.687 8.327q0 .578.484.875.484.297 1.406.297 1.36 0 2-.406.656-.406.656-1.11 0-.578-.359-.796-.344-.22-1.344-.22h-1.297q-.734 0-1.14.345-.406.359-.406 1.015zm.578-6.047q0 .75.422 1.141.437.375 1.187.375 1.578 0 1.578-1.547 0-1.594-1.594-1.594-.765 0-1.187.407-.406.406-.406 1.218zm10.958 4.844l-.219-1.015h-.047q-.531.671-1.062.906-.532.234-1.328.234-1.063 0-1.672-.547-.594-.547-.594-1.547 0-2.156 3.453-2.265l1.219-.047v-.438q0-.843-.36-1.234-.359-.406-1.156-.406-.89 0-2.015.547l-.344-.828q.531-.282 1.156-.438.64-.172 1.266-.172 1.28 0 1.89.563.61.562.61 1.812v4.875h-.797zm-2.438-.765q1 0 1.578-.547.579-.563.579-1.547v-.64l-1.079.03q-1.28.047-1.859.407-.562.359-.562 1.109 0 .578.343.89.36.298 1 .298zm7.772 0q.281 0 .547-.032.266-.047.422-.093v.828q-.172.078-.516.125-.343.062-.61.062-2.077 0-2.077-2.172v-4.25h-1.016v-.515l1.016-.453.453-1.516h.625v1.656h2.078v.828h-2.078v4.203q0 .641.312.985.313.344.844.344zm5.408.89q-1.578 0-2.5-.953-.906-.969-.906-2.672 0-1.734.844-2.75.86-1.015 2.281-1.015 1.344 0 2.125.89.781.875.781 2.328v.672h-4.906q.031 1.266.625 1.922.61.64 1.703.64 1.141 0 2.266-.484v.969q-.563.25-1.078.344-.516.11-1.235.11zm-.296-6.484q-.86 0-1.375.562-.5.563-.594 1.547h3.734q0-1.015-.453-1.562-.453-.547-1.312-.547zm10.587 6.36l-1.313-4.188q-.125-.375-.453-1.735h-.063q-.25 1.125-.453 1.75l-1.343 4.172h-1.25l-1.938-7.125h1.125l1.047 4.094q.36 1.39.422 1.89h.047q.078-.374.234-.953.156-.593.281-.953l1.297-4.078h1.172l1.281 4.078q.36 1.125.5 1.89h.047q.031-.233.14-.718.11-.5 1.36-5.25h1.11l-1.97 7.125h-1.28zm8.93 0l-.22-1.016h-.047q-.53.671-1.062.906-.531.234-1.328.234-1.063 0-1.672-.547-.594-.547-.594-1.547 0-2.156 3.453-2.265l1.22-.047v-.438q0-.843-.36-1.234-.36-.406-1.157-.406-.89 0-2.015.547l-.344-.828q.531-.282 1.156-.438.64-.172 1.266-.172 1.281 0 1.89.563.61.562.61 1.812v4.875h-.797zm-2.438-.766q1 0 1.578-.547.578-.563.578-1.547v-.64l-1.078.03q-1.282.047-1.86.407-.562.359-.562 1.109 0 .578.344.89.359.298 1 .298zm4.334-6.36h1.156l1.563 4.063q.515 1.39.64 2.015h.047q.078-.343.344-1.14.281-.813 1.781-4.938h1.156l-3.062 8.11q-.453 1.203-1.063 1.703-.609.515-1.5.515-.5 0-.968-.11v-.874q.359.078.797.078 1.109 0 1.593-1.25l.39-1.016-2.874-7.156zM525.44 164.338q0-1.719.5-3.219.516-1.5 1.47-2.64h1.046q-.938 1.25-1.406 2.765-.469 1.5-.469 3.094 0 1.547.469 3.047.484 1.484 1.39 2.719h-1.03q-.97-1.11-1.47-2.579-.5-1.484-.5-3.187zm9.163 1.703q0 1-.75 1.547-.734.531-2.078.531-1.422 0-2.219-.437v-1.016q.516.266 1.11.422.593.14 1.14.14.844 0 1.297-.265.453-.266.453-.828 0-.406-.36-.703-.359-.297-1.406-.703-1-.375-1.421-.641-.422-.281-.625-.625-.204-.36-.204-.844 0-.875.704-1.375.718-.515 1.953-.515 1.156 0 2.25.468l-.375.875q-1.078-.437-1.953-.437-.766 0-1.157.25-.39.234-.39.656 0 .281.14.484.157.204.469.391.328.172 1.25.531 1.281.453 1.719.922.453.469.453 1.172zm2.827 1.953h-1.078v-7.125h1.078v7.125zm-1.172-9.062q0-.375.187-.547.188-.172.454-.172.265 0 .453.172.187.172.187.547 0 .359-.187.547-.188.171-.453.171-.266 0-.454-.171-.187-.188-.187-.547zm8.324 8.109h-.062q-.75 1.078-2.235 1.078-1.406 0-2.187-.953-.766-.953-.766-2.719 0-1.765.781-2.734.782-.984 2.172-.984 1.453 0 2.219 1.062h.094l-.047-.516-.031-.5v-2.906h1.078v10.125h-.875l-.14-.953zm-2.156.172q1.11 0 1.594-.594.5-.61.5-1.937v-.235q0-1.515-.5-2.156-.5-.656-1.61-.656-.953 0-1.453.75-.5.734-.5 2.078 0 1.36.5 2.062.5.688 1.469.688zm8.48.906q-1.578 0-2.5-.953-.906-.969-.906-2.672 0-1.734.843-2.75.86-1.015 2.282-1.015 1.343 0 2.125.89.78.875.78 2.328v.672h-4.905q.03 1.266.625 1.922.609.64 1.703.64 1.14 0 2.265-.484v.969q-.562.25-1.078.344-.515.11-1.234.11zm-.297-6.484q-.86 0-1.375.562-.5.563-.594 1.547h3.735q0-1.015-.454-1.562-.453-.547-1.312-.547zm7.618 6.484q-1.547 0-2.406-.953-.844-.953-.844-2.687 0-1.797.86-2.766.859-.984 2.453-.984.515 0 1.03.109.516.11.813.266l-.328.921q-.36-.156-.797-.25-.422-.093-.734-.093-2.172 0-2.172 2.78 0 1.313.516 2.017.531.703 1.578.703.89 0 1.828-.391v.969q-.719.36-1.797.36zm7.877-.125l-.22-1.015h-.046q-.531.671-1.063.906-.53.234-1.328.234-1.062 0-1.672-.547-.593-.547-.593-1.547 0-2.156 3.453-2.265l1.219-.047v-.438q0-.843-.36-1.234-.36-.406-1.156-.406-.89 0-2.016.547l-.343-.828q.53-.282 1.156-.438.64-.172 1.265-.172 1.282 0 1.891.563.61.562.61 1.812v4.875h-.797zm-2.438-.765q1 0 1.578-.547.578-.563.578-1.547v-.64l-1.078.03q-1.281.047-1.86.407-.562.359-.562 1.109 0 .578.344.89.36.298 1 .298zm8.725-6.5q.469 0 .844.078l-.14 1q-.454-.094-.782-.094-.875 0-1.5.703-.61.703-.61 1.75v3.828h-1.078v-7.125h.891l.125 1.313h.062q.391-.703.954-1.078.562-.375 1.234-.375zm4.44 3.609q0 1.719-.5 3.203-.5 1.469-1.453 2.563h-1.046q.906-1.22 1.39-2.72.485-1.5.485-3.046 0-1.594-.485-3.094-.469-1.515-1.406-2.765h1.062q.954 1.14 1.454 2.656.5 1.5.5 3.203z"/><path fill="#b6d7a8" d="M499.66 201.71h102.96v29.26H499.66z" fill-rule="evenodd"/><path fill="#000" d="M526.124 219.154q0 1.516-1.093 2.36-1.094.843-2.97.843-2.03 0-3.124-.531v-1.281q.703.296 1.531.468.828.172 1.64.172 1.329 0 2-.5.673-.5.673-1.406 0-.594-.235-.969-.234-.375-.797-.687-.562-.328-1.703-.735-1.594-.578-2.281-1.359-.672-.781-.672-2.031 0-1.328.984-2.11 1-.78 2.625-.78 1.704 0 3.141.624l-.422 1.156q-1.406-.593-2.75-.593-1.047 0-1.64.453-.594.453-.594 1.265 0 .594.219.97.218.374.734.702.516.313 1.594.688 1.797.64 2.468 1.375.672.734.672 1.906zm5.766 3.203q-1.906 0-3-1.156t-1.094-3.219q0-2.062 1.016-3.281 1.015-1.219 2.734-1.219 1.61 0 2.547 1.063.938 1.046.938 2.78v.829h-5.891q.031 1.5.75 2.281.734.781 2.047.781 1.375 0 2.734-.578v1.157q-.687.296-1.312.421-.61.141-1.47.141zm-.36-7.797q-1.03 0-1.64.672-.61.672-.719 1.86h4.469q0-1.22-.547-1.876-.547-.656-1.562-.656zm9.618-1.078q.578 0 1.031.094l-.188 1.203q-.53-.125-.937-.125-1.031 0-1.781.844-.735.843-.735 2.11v4.593h-1.297v-8.563h1.079l.14 1.578h.063q.484-.828 1.156-1.28.672-.454 1.469-.454zm4.5 8.719l-3.25-8.563h1.39l1.844 5.078q.625 1.782.734 2.313h.063q.094-.422.547-1.719.453-1.297 2.047-5.672h1.39l-3.25 8.563h-1.515zm7.437 0h-1.297v-8.563h1.297v8.563zm-1.406-10.89q0-.438.219-.641.218-.22.547-.22.312 0 .53.22.235.203.235.64 0 .438-.234.656-.219.22-.531.22-.329 0-.547-.22-.219-.218-.219-.656zm7.578 11.046q-1.86 0-2.875-1.14-1.016-1.157-1.016-3.25 0-2.141 1.032-3.313 1.031-1.172 2.953-1.172.61 0 1.219.14.625.126.984.298l-.406 1.109q-.422-.172-.938-.281-.5-.125-.89-.125-2.61 0-2.61 3.328 0 1.578.625 2.422.64.843 1.89.843 1.079 0 2.204-.453v1.141q-.86.453-2.172.453zm7.82 0q-1.906 0-3-1.156-1.093-1.156-1.093-3.219 0-2.062 1.015-3.281 1.016-1.219 2.735-1.219 1.609 0 2.547 1.063.937 1.046.937 2.78v.829h-5.89q.03 1.5.75 2.281.734.781 2.046.781 1.375 0 2.735-.578v1.157q-.688.296-1.313.421-.61.141-1.469.141zm-.359-7.797q-1.031 0-1.64.672-.61.672-.72 1.86h4.47q0-1.22-.547-1.876-.547-.656-1.563-.656zm12.977 1.922l3.046-5.703h1.438l-3.813 6.984v4.438h-1.343v-4.375l-3.813-7.047h1.453l3.032 5.703z"/><path fill="#000" fill-opacity="0" d="M326.123 147.194l-53.637 3.56" fill-rule="evenodd"/><path stroke="#4f81bd" stroke-linejoin="round" stroke-linecap="butt" d="M322.704 147.421l-50.218 3.332" fill-rule="evenodd"/><path fill="#4f81bd" stroke="#4f81bd" stroke-linecap="butt" d="M322.704 147.421l-1.048 1.197 3.009-1.327-3.158-.918z" fill-rule="evenodd"/><path fill="#000" fill-opacity="0" d="M499.659 147.194h-70.583" fill-rule="evenodd"/><path stroke="#4f81bd" stroke-linejoin="round" stroke-linecap="butt" d="M496.232 147.194h-63.729" fill-rule="evenodd"/><path fill="#4f81bd" stroke="#4f81bd" stroke-linecap="butt" d="M496.232 147.194l-1.125 1.125 3.09-1.125-3.09-1.124zM432.503 147.194l1.125-1.124-3.09 1.124 3.09 1.125z" fill-rule="evenodd"/><path fill="#000" fill-opacity="0" d="M377.603 201.711v-31.37" fill-rule="evenodd"/><path stroke="#4f81bd" stroke-linejoin="round" stroke-linecap="butt" d="M377.603 198.284v-24.516" fill-rule="evenodd"/><path fill="#4f81bd" stroke="#4f81bd" stroke-linecap="butt" d="M377.603 198.284l-1.125-1.125 1.125 3.09 1.124-3.09zM377.603 173.768l1.124 1.125-1.124-3.09-1.125 3.09z" fill-rule="evenodd"/><path fill="#000" fill-opacity="0" d="M551.14 201.71v-31.37" fill-rule="evenodd"/><path stroke="#4f81bd" stroke-linejoin="round" stroke-linecap="butt" d="M551.14 198.284v-24.516" fill-rule="evenodd"/><path fill="#4f81bd" stroke="#4f81bd" stroke-linecap="butt" d="M551.14 198.284l-1.125-1.125 1.125 3.09 1.124-3.09zM551.14 173.768l1.124 1.125-1.124-3.09-1.125 3.09z" fill-rule="evenodd"/><path fill="#9fc5e8" d="M676.36 133.042a7.076 7.076 0 0 1 7.076-7.076h59.58a7.076 7.076 0 0 1 7.076 7.076v28.304a7.076 7.076 0 0 1-7.076 7.077h-59.58a7.076 7.076 0 0 1-7.076-7.077z" fill-rule="evenodd"/><path fill="#000" d="M701.015 144.714h-4.781v-8.562h4.78v.875h-3.78v2.765h3.546v.875h-3.546v3.157h3.78v.89zm7.002-6.422v.61l-1.188.14q.172.203.297.547.125.328.125.735 0 .953-.64 1.515-.641.563-1.766.563-.297 0-.547-.047-.61.328-.61.828 0 .266.204.39.219.126.75.126h1.14q1.047 0 1.594.437.563.438.563 1.281 0 1.063-.86 1.625-.843.563-2.484.563-1.266 0-1.953-.469-.672-.469-.672-1.328 0-.594.375-1.031.375-.422 1.047-.563-.25-.11-.422-.344-.156-.234-.156-.546 0-.36.187-.625.188-.266.594-.5-.5-.204-.813-.688-.312-.5-.312-1.14 0-1.047.625-1.626.64-.578 1.797-.578.5 0 .906.125h2.219zm-5.11 7.5q0 .516.438.782.437.28 1.25.28 1.234 0 1.812-.374.594-.36.594-.985 0-.515-.328-.718-.312-.203-1.203-.203h-1.172q-.656 0-1.031.312-.36.313-.36.906zm.516-5.437q0 .672.375 1.015.39.344 1.078.344 1.422 0 1.422-1.39 0-1.438-1.437-1.438-.688 0-1.063.375-.375.36-.375 1.094zm8.855-2.188q.422 0 .766.078l-.14.907q-.391-.094-.704-.094-.78 0-1.343.64-.547.626-.547 1.563v3.453h-.969v-6.422h.797l.125 1.188h.047q.343-.625.843-.969.516-.344 1.125-.344zm4.68 6.672q-1.422 0-2.25-.875-.828-.875-.828-2.406 0-1.563.766-2.469.765-.922 2.062-.922 1.203 0 1.906.797.704.797.704 2.094v.625h-4.422q.03 1.125.562 1.719.547.578 1.531.578 1.032 0 2.047-.438v.875q-.515.22-.984.313-.453.11-1.094.11zm-.265-5.844q-.782 0-1.25.5-.454.5-.532 1.391h3.36q0-.922-.407-1.406-.406-.485-1.171-.485zm8.42 3.97q0 .89-.672 1.39-.657.484-1.875.484-1.266 0-1.985-.406v-.906q.469.234.985.375.53.125 1.03.125.766 0 1.173-.235.406-.25.406-.75 0-.375-.328-.64-.313-.266-1.266-.625-.89-.344-1.281-.594-.375-.25-.563-.563-.171-.312-.171-.75 0-.78.64-1.234.64-.469 1.75-.469 1.031 0 2.031.422l-.359.797q-.953-.39-1.75-.39-.687 0-1.047.218-.344.203-.344.594 0 .25.125.437.141.172.422.344.297.156 1.141.469 1.14.422 1.531.844.406.422.406 1.062zm5.724 0q0 .89-.672 1.39-.656.484-1.875.484-1.265 0-1.984-.406v-.906q.469.234.984.375.531.125 1.031.125.766 0 1.172-.235.407-.25.407-.75 0-.375-.329-.64-.312-.266-1.265-.625-.89-.344-1.281-.594-.375-.25-.563-.563-.172-.312-.172-.75 0-.78.64-1.234.641-.469 1.75-.469 1.032 0 2.032.422l-.36.797q-.952-.39-1.75-.39-.687 0-1.046.218-.344.203-.344.594 0 .25.125.437.14.172.422.344.297.156 1.14.469 1.141.422 1.532.844.406.422.406 1.062zM696.371 152.292v.61l-1.187.14q.172.203.297.547.125.328.125.735 0 .953-.641 1.515-.64.563-1.766.563-.297 0-.547-.047-.609.328-.609.828 0 .266.203.39.219.126.75.126h1.14q1.048 0 1.595.437.562.438.562 1.281 0 1.063-.86 1.625-.843.563-2.484.563-1.265 0-1.953-.469-.672-.469-.672-1.328 0-.594.375-1.031.375-.422 1.047-.563-.25-.11-.422-.344-.156-.234-.156-.546 0-.36.188-.625.187-.266.593-.5-.5-.204-.812-.688-.313-.5-.313-1.14 0-1.047.625-1.626.641-.578 1.797-.578.5 0 .906.125h2.22zm-5.11 7.5q0 .516.438.782.438.28 1.25.28 1.235 0 1.813-.374.594-.36.594-.985 0-.515-.329-.718-.312-.203-1.203-.203h-1.172q-.656 0-1.03.312-.36.313-.36.906zm.516-5.437q0 .672.375 1.015.391.344 1.079.344 1.421 0 1.421-1.39 0-1.438-1.437-1.438-.688 0-1.063.375-.375.36-.375 1.094zm9.872 4.36l-.204-.923h-.046q-.47.61-.954.828-.468.22-1.187.22-.953 0-1.5-.5t-.547-1.407q0-1.938 3.11-2.031l1.093-.032v-.406q0-.75-.328-1.11-.312-.359-1.031-.359-.813 0-1.813.485l-.312-.75q.484-.25 1.047-.39.562-.157 1.14-.157 1.14 0 1.688.516.562.5.562 1.625v4.39h-.718zm-2.204-.688q.907 0 1.422-.5.532-.5.532-1.39v-.579l-.985.031q-1.156.047-1.672.375-.5.313-.5.985 0 .53.313.812.312.266.89.266zm7.002 0q.25 0 .485-.032.25-.046.39-.078v.735q-.156.078-.468.125-.297.062-.547.062-1.86 0-1.86-1.969v-3.828h-.922v-.468l.922-.407.407-1.359h.562v1.484h1.86v.75h-1.86v3.782q0 .578.266.89.281.313.765.313zm4.877.812q-1.422 0-2.25-.875-.828-.875-.828-2.406 0-1.563.766-2.469.765-.922 2.062-.922 1.203 0 1.907.797.703.797.703 2.094v.625h-4.422q.031 1.125.562 1.719.547.578 1.532.578 1.03 0 2.046-.438v.875q-.515.22-.984.313-.453.11-1.094.11zm-.265-5.844q-.782 0-1.25.5-.453.5-.532 1.391h3.36q0-.922-.406-1.406-.407-.485-1.172-.485zm9.529 5.72l-1.188-3.766q-.109-.344-.406-1.579h-.047q-.234 1.032-.422 1.594l-1.203 3.75h-1.125l-1.75-6.422h1.016q.625 2.422.937 3.688.329 1.265.375 1.703h.047q.063-.328.203-.86.157-.53.266-.843l1.172-3.688h1.047l1.156 3.688q.328 1 .438 1.687h.046q.032-.203.125-.64.11-.453 1.235-4.735h1l-1.766 6.422h-1.156zm8.037 0l-.203-.923h-.047q-.469.61-.953.828-.469.22-1.188.22-.953 0-1.5-.5-.546-.5-.546-1.407 0-1.938 3.109-2.031l1.094-.032v-.406q0-.75-.328-1.11-.313-.359-1.032-.359-.812 0-1.812.485l-.313-.75q.485-.25 1.047-.39.563-.157 1.14-.157 1.141 0 1.688.516.563.5.563 1.625v4.39h-.719zm-2.203-.688q.906 0 1.422-.5.531-.5.531-1.39v-.579l-.984.031q-1.157.047-1.672.375-.5.313-.5.985 0 .53.312.812.313.266.891.266zm3.908-5.735h1.047l1.406 3.657q.453 1.265.563 1.812h.047q.078-.297.312-1.016.25-.734 1.61-4.453h1.03l-2.75 7.313q-.421 1.078-.968 1.531-.547.469-1.344.469-.437 0-.875-.11v-.78q.328.077.72.077 1 0 1.437-1.125l.359-.922-2.594-6.453z"/><path fill="#000" fill-opacity="0" d="M676.36 147.194h-73.733" fill-rule="evenodd"/><path stroke="#4f81bd" stroke-linejoin="round" stroke-linecap="butt" d="M672.933 147.194h-70.306" fill-rule="evenodd"/><path fill="#4f81bd" stroke="#4f81bd" stroke-linecap="butt" d="M672.933 147.194l-1.125 1.125 3.09-1.125-3.09-1.124z" fill-rule="evenodd"/><path fill="#b6d7a8" d="M837.667 124.48h79.496v46.3h-79.496z" fill-rule="evenodd"/><path fill="#000" d="M858.533 144.43h-5.297v-9.516h5.297v.985h-4.188v3.062h3.938v.985h-3.938v3.5h4.188v.984zm3.662-3.656l-2.468-3.47h1.218l1.89 2.72 1.876-2.72h1.219l-2.485 3.47 2.61 3.656h-1.22l-2-2.89-2.015 2.89h-1.234l2.61-3.656zm7.577 2.89q.281 0 .547-.031.265-.047.422-.094v.828q-.172.079-.516.125-.344.063-.61.063-2.077 0-2.077-2.172v-4.25h-1.016v-.516l1.016-.453.453-1.515h.625v1.656h2.078v.828h-2.078v4.203q0 .64.312.985.313.343.844.343zm5.408.89q-1.578 0-2.5-.952-.906-.969-.906-2.672 0-1.734.844-2.75.86-1.016 2.281-1.016 1.344 0 2.125.89.781.876.781 2.329v.672H872.9q.031 1.266.625 1.922.61.64 1.703.64 1.14 0 2.266-.484v.969q-.563.25-1.078.344-.516.109-1.235.109zm-.297-6.483q-.859 0-1.375.562-.5.563-.593 1.547h3.734q0-1.016-.453-1.563-.453-.546-1.313-.546zm8.025-.907q.469 0 .844.078l-.141 1q-.453-.093-.781-.093-.875 0-1.5.703-.61.703-.61 1.75v3.828h-1.078v-7.125h.89l.126 1.312h.062q.391-.703.953-1.078.563-.375 1.235-.375zm7.065 7.266v-4.61q0-.874-.406-1.296-.39-.438-1.234-.438-1.125 0-1.656.61-.516.593-.516 2v3.734h-1.078v-7.125h.89l.172.969h.047q.328-.532.922-.813.61-.297 1.344-.297 1.297 0 1.937.625.657.625.657 1.985v4.656h-1.079zm7.68 0l-.218-1.016h-.047q-.531.672-1.062.907-.532.234-1.328.234-1.063 0-1.672-.547-.594-.547-.594-1.547 0-2.156 3.453-2.265l1.219-.047v-.438q0-.844-.36-1.234-.359-.406-1.156-.406-.89 0-2.015.546l-.344-.828q.531-.281 1.156-.437.64-.172 1.266-.172 1.281 0 1.89.562.61.563.61 1.813v4.875h-.797zm-2.437-.766q1 0 1.578-.547.579-.562.579-1.546v-.641l-1.079.031q-1.28.047-1.859.406-.562.36-.562 1.11 0 .578.343.89.36.297 1 .297zm6.538.766h-1.078v-10.125h1.078v10.125zM862.035 157.899q0 1.25-.907 1.953-.906.703-2.468.703-1.703 0-2.61-.438v-1.062q.594.25 1.282.39.687.141 1.359.141 1.11 0 1.672-.406.562-.422.562-1.172 0-.5-.203-.812-.203-.313-.672-.579-.453-.28-1.406-.609-1.328-.484-1.906-1.125-.563-.656-.563-1.703 0-1.094.828-1.75.829-.656 2.188-.656 1.422 0 2.61.53l-.344.954q-1.188-.484-2.297-.484-.875 0-1.375.375-.485.375-.485 1.047 0 .5.172.812.188.313.61.578.437.266 1.328.578 1.5.532 2.062 1.157.563.609.563 1.578zm4.799 2.656q-1.578 0-2.5-.953-.906-.969-.906-2.672 0-1.734.843-2.75.86-1.016 2.282-1.016 1.343 0 2.125.89.78.876.78 2.329v.672h-4.905q.03 1.266.625 1.922.61.64 1.703.64 1.14 0 2.265-.484v.969q-.562.25-1.078.344-.515.109-1.234.109zm-.297-6.484q-.86 0-1.375.562-.5.563-.594 1.547h3.735q0-1.016-.453-1.563-.454-.546-1.313-.546zm8.024-.907q.47 0 .844.078l-.14 1q-.454-.093-.782-.093-.875 0-1.5.703-.609.703-.609 1.75v3.828h-1.078v-7.125h.89l.125 1.312h.063q.39-.703.953-1.078.563-.375 1.234-.375zm3.738 7.266l-2.703-7.125h1.156l1.531 4.219q.532 1.484.625 1.937h.047q.063-.36.438-1.437.39-1.078 1.718-4.72h1.157l-2.703 7.126h-1.266zm6.193 0h-1.078v-7.125h1.078v7.125zm-1.172-9.063q0-.375.187-.546.188-.172.453-.172.266 0 .454.172.187.171.187.546 0 .36-.187.547-.188.172-.454.172-.265 0-.453-.172-.187-.187-.187-.547zm6.324 9.188q-1.547 0-2.406-.953-.844-.953-.844-2.688 0-1.797.86-2.765.859-.985 2.452-.985.516 0 1.032.11.515.109.812.265l-.328.922q-.36-.156-.797-.25-.422-.094-.734-.094-2.172 0-2.172 2.782 0 1.312.516 2.015.53.703 1.578.703.89 0 1.828-.39v.969q-.719.359-1.797.359zm6.501 0q-1.578 0-2.5-.953-.906-.969-.906-2.672 0-1.734.844-2.75.86-1.016 2.281-1.016 1.344 0 2.125.89.781.876.781 2.329v.672h-4.906q.031 1.266.625 1.922.61.64 1.703.64 1.14 0 2.266-.484v.969q-.563.25-1.078.344-.516.109-1.235.109zm-.296-6.484q-.86 0-1.375.562-.5.563-.594 1.547h3.734q0-1.016-.453-1.563-.453-.546-1.312-.546z"/><path fill="#000" fill-opacity="0" d="M837.667 147.63l-87.59-.441" fill-rule="evenodd"/><path stroke="#4f81bd" stroke-linejoin="round" stroke-linecap="butt" d="M834.24 147.613l-84.164-.424" fill-rule="evenodd"/><path fill="#4f81bd" stroke="#4f81bd" stroke-linecap="butt" d="M834.24 147.613l-1.13 1.119 3.095-1.11-3.084-1.14z" fill-rule="evenodd"/><path fill="#000" fill-opacity="0" d="M551.14 124.045V58.092h326.267v66.394" fill-rule="evenodd"/><path stroke="#4a86e8" stroke-linejoin="round" stroke-linecap="butt" d="M551.14 124.045V58.092h326.267v62.966" fill-rule="evenodd"/><path fill="#4a86e8" stroke="#4a86e8" stroke-linecap="butt" d="M877.407 121.058l-1.125-1.124 1.125 3.09 1.124-3.09z" fill-rule="evenodd"/><path fill="#000" fill-opacity="0" d="M708.22 30.517h185.575v42.457H708.22z" fill-rule="evenodd"/><path fill="#000" d="M724.502 52.317l-1.172-3.031h-3.813l-1.172 3.031h-1.125l3.766-9.547h.922l3.75 9.547h-1.156zm-1.516-4.016l-1.11-2.953q-.218-.562-.452-1.375-.141.625-.407 1.375l-1.11 2.953h3.08zm6.669 4.141q-1.547 0-2.407-.953-.843-.953-.843-2.688 0-1.796.859-2.765.86-.985 2.453-.985.516 0 1.031.11.516.11.813.265l-.328.922q-.36-.156-.797-.25-.422-.093-.734-.093-2.172 0-2.172 2.78 0 1.313.515 2.016.532.704 1.578.704.891 0 1.829-.391v.969q-.72.36-1.797.36zm6.345 0q-1.547 0-2.406-.953-.844-.953-.844-2.688 0-1.796.86-2.765.859-.985 2.452-.985.516 0 1.032.11.515.11.812.265l-.328.922q-.36-.156-.797-.25-.422-.093-.734-.093-2.172 0-2.172 2.78 0 1.313.515 2.016.532.704 1.579.704.89 0 1.828-.391v.969q-.719.36-1.797.36zm6.501 0q-1.578 0-2.5-.953-.906-.969-.906-2.672 0-1.734.844-2.75.86-1.016 2.281-1.016 1.344 0 2.125.891.781.875.781 2.328v.672h-4.906q.031 1.266.625 1.922.61.64 1.703.64 1.14 0 2.266-.484v.969q-.563.25-1.078.344-.516.11-1.235.11zm-.297-6.484q-.859 0-1.375.562-.5.563-.593 1.547h3.734q0-1.016-.453-1.562-.453-.547-1.313-.547zm9.369 4.406q0 1-.75 1.547-.735.531-2.079.531-1.421 0-2.218-.437v-1.016q.515.266 1.11.422.593.14 1.14.14.843 0 1.297-.265.453-.266.453-.828 0-.407-.36-.703-.36-.297-1.406-.704-1-.375-1.422-.64-.422-.281-.625-.625-.203-.36-.203-.844 0-.875.703-1.375.719-.516 1.953-.516 1.157 0 2.25.47l-.375.874q-1.078-.437-1.953-.437-.765 0-1.156.25-.39.234-.39.656 0 .281.14.484.156.203.469.39.328.173 1.25.532 1.28.453 1.718.922.454.469.454 1.172zm6.358 0q0 1-.75 1.547-.735.531-2.078.531-1.422 0-2.22-.437v-1.016q.517.266 1.11.422.594.14 1.14.14.845 0 1.298-.265.453-.266.453-.828 0-.407-.36-.703-.359-.297-1.406-.704-1-.375-1.422-.64-.421-.281-.625-.625-.203-.36-.203-.844 0-.875.703-1.375.72-.516 1.954-.516 1.156 0 2.25.47l-.375.874q-1.079-.437-1.954-.437-.765 0-1.156.25-.39.234-.39.656 0 .281.14.484.156.203.469.39.328.173 1.25.532 1.281.453 1.719.922.453.469.453 1.172zm8.226 2.078q-1.578 0-2.5-.953-.906-.969-.906-2.672 0-1.734.844-2.75.86-1.016 2.281-1.016 1.344 0 2.125.891.781.875.781 2.328v.672h-4.906q.031 1.266.625 1.922.61.64 1.703.64 1.14 0 2.266-.484v.969q-.563.25-1.078.344-.516.11-1.235.11zm-.296-6.484q-.86 0-1.375.562-.5.563-.594 1.547h3.734q0-1.016-.453-1.562-.453-.547-1.312-.547zm6.477 2.703l-2.469-3.469h1.22l1.89 2.719 1.875-2.719h1.219l-2.485 3.469 2.61 3.656h-1.22l-2-2.89-2.015 2.89h-1.234l2.61-3.656zm7.577 2.89q.281 0 .547-.03.265-.048.422-.095v.829q-.172.078-.516.125-.344.062-.61.062-2.078 0-2.078-2.172v-4.25h-1.015v-.515l1.015-.454.454-1.515h.625v1.656h2.078v.828h-2.078v4.203q0 .64.312.985.313.343.844.343zm5.408.891q-1.578 0-2.5-.953-.906-.969-.906-2.672 0-1.734.844-2.75.859-1.016 2.28-1.016 1.345 0 2.126.891.781.875.781 2.328v.672h-4.906q.031 1.266.625 1.922.61.64 1.703.64 1.14 0 2.266-.484v.969q-.563.25-1.079.344-.515.11-1.234.11zm-.297-6.484q-.86 0-1.375.562-.5.563-.594 1.547h3.735q0-1.016-.453-1.562-.453-.547-1.313-.547zm8.025-.907q.468 0 .843.079l-.14 1q-.453-.094-.781-.094-.875 0-1.5.703-.61.703-.61 1.75v3.828h-1.078v-7.125h.89l.126 1.313h.062q.39-.704.953-1.079t1.235-.375zm7.065 7.266v-4.61q0-.874-.406-1.296-.39-.438-1.234-.438-1.125 0-1.657.61-.515.593-.515 2v3.734h-1.078v-7.125h.89l.172.969h.047q.328-.531.922-.813.61-.297 1.344-.297 1.297 0 1.937.625.656.625.656 1.985v4.656h-1.078zm7.68 0l-.218-1.016h-.047q-.531.672-1.062.907-.532.234-1.329.234-1.062 0-1.671-.547-.594-.547-.594-1.547 0-2.156 3.453-2.265l1.219-.047v-.438q0-.843-.36-1.234-.36-.406-1.156-.406-.89 0-2.016.547l-.343-.829q.53-.28 1.156-.437.64-.172 1.266-.172 1.28 0 1.89.563.61.562.61 1.812v4.875h-.797zm-2.437-.766q1 0 1.578-.546.578-.563.578-1.547v-.64l-1.078.03q-1.28.047-1.86.407-.562.359-.562 1.109 0 .578.344.89.36.297 1 .297zm6.538.766h-1.078V42.192h1.078v10.125zm10.364-1.953q0 1-.75 1.547-.734.531-2.078.531-1.422 0-2.219-.437v-1.016q.516.266 1.11.422.593.14 1.14.14.844 0 1.297-.265.453-.266.453-.828 0-.407-.36-.703-.358-.297-1.405-.704-1-.375-1.422-.64-.422-.281-.625-.625-.203-.36-.203-.844 0-.875.703-1.375.719-.516 1.953-.516 1.156 0 2.25.47l-.375.874q-1.078-.437-1.953-.437-.766 0-1.156.25-.391.234-.391.656 0 .281.14.484.157.203.47.39.327.173 1.25.532 1.28.453 1.718.922.453.469.453 1.172zm4.765 2.078q-1.578 0-2.5-.953-.907-.969-.907-2.672 0-1.734.844-2.75.86-1.016 2.281-1.016 1.344 0 2.125.891.782.875.782 2.328v.672h-4.907q.032 1.266.625 1.922.61.64 1.704.64 1.14 0 2.265-.484v.969q-.562.25-1.078.344-.516.11-1.234.11zm-.297-6.484q-.86 0-1.375.562-.5.563-.594 1.547h3.734q0-1.016-.453-1.562-.453-.547-1.312-.547zm8.024-.907q.469 0 .844.079l-.14 1q-.454-.094-.782-.094-.875 0-1.5.703-.61.703-.61 1.75v3.828h-1.077v-7.125h.89l.125 1.313h.063q.39-.704.953-1.079.562-.375 1.234-.375zm3.738 7.266l-2.703-7.125h1.156l1.531 4.219q.531 1.484.625 1.937h.047q.062-.36.437-1.437.391-1.078 1.72-4.719h1.155l-2.703 7.125h-1.265zm6.192 0h-1.078v-7.125h1.078v7.125zm-1.172-9.062q0-.375.188-.547.187-.172.453-.172t.453.172q.188.172.188.547 0 .359-.188.546-.187.172-.453.172t-.453-.172q-.188-.187-.188-.546zm6.325 9.187q-1.547 0-2.407-.953-.843-.953-.843-2.688 0-1.796.86-2.765.858-.985 2.452-.985.516 0 1.031.11.516.11.813.265l-.328.922q-.36-.156-.797-.25-.422-.093-.734-.093-2.172 0-2.172 2.78 0 1.313.515 2.016.532.704 1.578.704.891 0 1.829-.391v.969q-.72.36-1.797.36zm6.501 0q-1.578 0-2.5-.953-.906-.969-.906-2.672 0-1.734.844-2.75.859-1.016 2.28-1.016 1.345 0 2.126.891.781.875.781 2.328v.672h-4.906q.031 1.266.625 1.922.61.64 1.703.64 1.14 0 2.266-.484v.969q-.563.25-1.079.344-.515.11-1.234.11zm-.297-6.484q-.86 0-1.375.562-.5.563-.594 1.547h3.735q0-1.016-.453-1.562-.453-.547-1.313-.547zM723.22 67.364h-.062q-.75 1.078-2.234 1.078-1.407 0-2.188-.953-.766-.953-.766-2.719 0-1.765.782-2.734.781-.985 2.172-.985 1.453 0 2.218 1.063h.094l-.047-.516-.031-.5v-2.906h1.078v10.125h-.875l-.14-.953zm-2.156.172q1.11 0 1.594-.594.5-.61.5-1.937v-.235q0-1.515-.5-2.156-.5-.656-1.61-.656-.953 0-1.453.75-.5.734-.5 2.078 0 1.36.5 2.062.5.688 1.47.688zm6.543.781h-1.078v-7.125h1.078v7.125zm-1.172-9.062q0-.375.187-.547.188-.172.453-.172.266 0 .454.172.187.172.187.547 0 .359-.187.546-.188.172-.454.172-.265 0-.453-.172-.187-.187-.187-.546zm6.73 1.796q.469 0 .844.079l-.14 1q-.454-.094-.782-.094-.875 0-1.5.703-.61.703-.61 1.75v3.828H729.9v-7.125h.89l.125 1.313h.063q.39-.704.953-1.079.562-.375 1.234-.375zm5.19 7.391q-1.577 0-2.5-.953-.905-.969-.905-2.672 0-1.734.843-2.75.86-1.016 2.282-1.016 1.343 0 2.125.891.78.875.78 2.328v.672h-4.905q.03 1.266.625 1.922.609.64 1.703.64 1.14 0 2.265-.484v.969q-.562.25-1.078.344-.515.11-1.234.11zm-.296-6.484q-.86 0-1.375.562-.5.563-.594 1.547h3.735q0-1.016-.454-1.562-.453-.547-1.312-.547zm7.618 6.484q-1.547 0-2.406-.953-.844-.953-.844-2.688 0-1.796.86-2.765.859-.985 2.453-.985.515 0 1.03.11.516.11.813.265l-.328.922q-.36-.156-.797-.25-.422-.093-.734-.093-2.172 0-2.172 2.78 0 1.313.516 2.016.53.704 1.578.704.89 0 1.828-.391v.969q-.719.36-1.797.36zm5.798-.89q.282 0 .547-.032.266-.047.422-.094v.829q-.172.078-.515.125-.344.062-.61.062-2.078 0-2.078-2.172v-4.25h-1.016v-.515l1.016-.454.453-1.515h.625v1.656h2.078v.828h-2.078v4.203q0 .64.313.985.312.343.843.343zm3.471.765h-1.078V58.192h1.078v10.125zm1.168-7.125h1.156l1.563 4.063q.516 1.39.64 2.015h.047q.079-.344.344-1.14.281-.813 1.781-4.938h1.157l-3.063 8.11q-.453 1.203-1.062 1.703-.61.515-1.5.515-.5 0-.97-.11v-.874q.36.078.798.078 1.11 0 1.594-1.25l.39-1.016-2.875-7.156zm14.522.828h-1.812v6.297h-1.078V62.02h-1.282v-.484l1.282-.39v-.391q0-2.641 2.296-2.641.563 0 1.329.234l-.282.86q-.625-.203-1.078-.203-.61 0-.906.406-.281.406-.281 1.312v.47h1.812v.827zm4.564-.969q.468 0 .843.079l-.14 1q-.453-.094-.782-.094-.875 0-1.5.703-.609.703-.609 1.75v3.828h-1.078v-7.125h.89l.126 1.313h.062q.39-.704.953-1.079t1.235-.375zm8.33 3.688q0 1.75-.874 2.734-.875.97-2.422.97-.953 0-1.703-.438-.735-.454-1.14-1.297-.407-.844-.407-1.97 0-1.733.875-2.702.875-.985 2.422-.985 1.484 0 2.36 1 .89 1 .89 2.688zm-5.421 0q0 1.375.547 2.094.547.703 1.594.703 1.062 0 1.609-.703.562-.72.562-2.094 0-1.36-.562-2.063-.547-.703-1.61-.703-1.062 0-1.609.703-.531.688-.531 2.063zm16.41 3.578v-4.64q0-.86-.36-1.282-.36-.422-1.14-.422-1 0-1.485.578-.484.579-.484 1.782v3.984h-1.078v-4.64q0-.86-.375-1.282-.36-.422-1.125-.422-1.016 0-1.5.61-.47.61-.47 2v3.734h-1.077v-7.125h.89l.172.969h.047q.313-.516.86-.813.562-.297 1.25-.297 1.671 0 2.187 1.22h.047q.328-.563.922-.891.61-.329 1.39-.329 1.203 0 1.797.625.61.625.61 1.985v4.656h-1.079zm11.375-1.953q0 1-.75 1.547-.735.531-2.078.531-1.422 0-2.219-.437v-1.016q.516.266 1.11.422.593.14 1.14.14.844 0 1.297-.265.453-.266.453-.828 0-.407-.36-.703-.359-.297-1.406-.704-1-.375-1.422-.64-.421-.281-.625-.625-.203-.36-.203-.844 0-.875.703-1.375.72-.516 1.954-.516 1.156 0 2.25.47l-.375.874q-1.079-.437-1.954-.437-.765 0-1.156.25-.39.234-.39.656 0 .281.14.484.156.203.469.39.328.173 1.25.532 1.281.453 1.719.922.453.469.453 1.172zm2.827 1.953h-1.078v-7.125h1.078v7.125zm-1.172-9.062q0-.375.187-.547.188-.172.454-.172.265 0 .453.172.187.172.187.547 0 .359-.187.546-.188.172-.453.172-.266 0-.454-.172-.187-.187-.187-.546zm8.324 8.109h-.062q-.75 1.078-2.235 1.078-1.406 0-2.187-.953-.766-.953-.766-2.719 0-1.765.781-2.734.782-.985 2.172-.985 1.453 0 2.219 1.063h.094l-.047-.516-.031-.5v-2.906h1.078v10.125h-.875l-.14-.953zm-2.156.172q1.11 0 1.594-.594.5-.61.5-1.937v-.235q0-1.515-.5-2.156-.5-.656-1.61-.656-.953 0-1.453.75-.5.734-.5 2.078 0 1.36.5 2.062.5.688 1.469.688zm8.48.906q-1.578 0-2.5-.953-.906-.969-.906-2.672 0-1.734.843-2.75.86-1.016 2.282-1.016 1.343 0 2.125.891.78.875.78 2.328v.672h-4.905q.03 1.266.625 1.922.609.64 1.703.64 1.14 0 2.265-.484v.969q-.562.25-1.078.344-.515.11-1.234.11zm-.297-6.484q-.86 0-1.375.562-.5.563-.594 1.547h3.735q0-1.016-.454-1.562-.453-.547-1.312-.547zm7.618 6.484q-1.547 0-2.406-.953-.844-.953-.844-2.688 0-1.796.86-2.765.859-.985 2.453-.985.515 0 1.03.11.516.11.813.265l-.328.922q-.36-.156-.797-.25-.422-.093-.734-.093-2.172 0-2.172 2.78 0 1.313.516 2.016.53.704 1.578.704.89 0 1.828-.391v.969q-.719.36-1.797.36zm7.876-.125l-.218-1.016h-.047q-.531.672-1.063.907-.53.234-1.328.234-1.062 0-1.672-.547-.593-.547-.593-1.547 0-2.156 3.453-2.265l1.218-.047v-.438q0-.843-.359-1.234-.36-.406-1.156-.406-.89 0-2.016.547l-.344-.829q.532-.28 1.157-.437.64-.172 1.265-.172 1.282 0 1.891.563.61.562.61 1.812v4.875h-.798zm-2.437-.766q1 0 1.578-.546.578-.563.578-1.547v-.64l-1.078.03q-1.281.047-1.86.407-.562.359-.562 1.109 0 .578.344.89.36.297 1 .297zm8.725-6.5q.469 0 .844.079l-.14 1q-.454-.094-.782-.094-.875 0-1.5.703-.61.703-.61 1.75v3.828h-1.078v-7.125h.89l.126 1.313h.062q.391-.704.954-1.079.562-.375 1.234-.375z"/><path fill="#000" fill-opacity="0" d="M708.22 158.395h158.646v64.63H708.22z" fill-rule="evenodd"/><path fill="#000" d="M724.502 180.195l-1.172-3.031h-3.813l-1.172 3.031h-1.125l3.766-9.547h.922l3.75 9.547h-1.156zm-1.516-4.016l-1.11-2.953q-.218-.562-.452-1.375-.141.625-.407 1.375l-1.11 2.953h3.08zm6.669 4.141q-1.547 0-2.407-.953-.843-.953-.843-2.688 0-1.797.859-2.765.86-.985 2.453-.985.516 0 1.031.11.516.11.813.265l-.328.922q-.36-.156-.797-.25-.422-.094-.734-.094-2.172 0-2.172 2.782 0 1.312.515 2.015.532.703 1.578.703.891 0 1.829-.39v.969q-.72.359-1.797.359zm6.345 0q-1.547 0-2.406-.953-.844-.953-.844-2.688 0-1.797.86-2.765.859-.985 2.452-.985.516 0 1.032.11.515.11.812.265l-.328.922q-.36-.156-.797-.25-.422-.094-.734-.094-2.172 0-2.172 2.782 0 1.312.515 2.015.532.703 1.579.703.89 0 1.828-.39v.969q-.719.359-1.797.359zm6.501 0q-1.578 0-2.5-.953-.906-.969-.906-2.672 0-1.734.844-2.75.86-1.016 2.281-1.016 1.344 0 2.125.891.781.875.781 2.328v.672h-4.906q.031 1.266.625 1.922.61.64 1.703.64 1.14 0 2.266-.484v.969q-.563.25-1.078.344-.516.109-1.235.109zm-.297-6.484q-.859 0-1.375.562-.5.563-.593 1.547h3.734q0-1.016-.453-1.563-.453-.546-1.313-.546zm9.369 4.406q0 1-.75 1.547-.735.531-2.079.531-1.421 0-2.218-.438v-1.015q.515.266 1.11.422.593.14 1.14.14.843 0 1.297-.265.453-.266.453-.828 0-.407-.36-.704-.36-.296-1.406-.703-1-.375-1.422-.64-.422-.281-.625-.625-.203-.36-.203-.844 0-.875.703-1.375.719-.516 1.953-.516 1.157 0 2.25.47l-.375.874q-1.078-.437-1.953-.437-.765 0-1.156.25-.39.234-.39.656 0 .281.14.484.156.203.469.39.328.173 1.25.532 1.28.453 1.718.922.454.469.454 1.172zm6.358 0q0 1-.75 1.547-.735.531-2.078.531-1.422 0-2.22-.438v-1.015q.517.266 1.11.422.594.14 1.14.14.845 0 1.298-.265.453-.266.453-.828 0-.407-.36-.704-.359-.296-1.406-.703-1-.375-1.422-.64-.421-.281-.625-.625-.203-.36-.203-.844 0-.875.703-1.375.72-.516 1.954-.516 1.156 0 2.25.47l-.375.874q-1.079-.437-1.954-.437-.765 0-1.156.25-.39.234-.39.656 0 .281.14.484.156.203.469.39.328.173 1.25.532 1.281.453 1.719.922.453.469.453 1.172zm8.226 2.078q-1.578 0-2.5-.953-.906-.969-.906-2.672 0-1.734.844-2.75.86-1.016 2.281-1.016 1.344 0 2.125.891.781.875.781 2.328v.672h-4.906q.031 1.266.625 1.922.61.64 1.703.64 1.14 0 2.266-.484v.969q-.563.25-1.078.344-.516.109-1.235.109zm-.296-6.484q-.86 0-1.375.562-.5.563-.594 1.547h3.734q0-1.016-.453-1.563-.453-.546-1.312-.546zm6.477 2.703l-2.469-3.469h1.22l1.89 2.719 1.875-2.719h1.219l-2.485 3.469 2.61 3.656h-1.22l-2-2.89-2.015 2.89h-1.234l2.61-3.656zm7.577 2.89q.281 0 .547-.03.265-.048.422-.095v.828q-.172.079-.516.125-.344.063-.61.063-2.078 0-2.078-2.172v-4.25h-1.015v-.516l1.015-.453.454-1.515h.625v1.656h2.078v.828h-2.078v4.203q0 .64.312.985.313.343.844.343zm5.408.891q-1.578 0-2.5-.953-.906-.969-.906-2.672 0-1.734.844-2.75.859-1.016 2.28-1.016 1.345 0 2.126.891.781.875.781 2.328v.672h-4.906q.031 1.266.625 1.922.61.64 1.703.64 1.14 0 2.266-.484v.969q-.563.25-1.079.344-.515.109-1.234.109zm-.297-6.484q-.86 0-1.375.562-.5.563-.594 1.547h3.735q0-1.016-.453-1.563-.453-.546-1.313-.546zm8.025-.907q.468 0 .843.078l-.14 1q-.453-.093-.781-.093-.875 0-1.5.703-.61.703-.61 1.75v3.828h-1.078v-7.125h.89l.126 1.313h.062q.39-.704.953-1.079t1.235-.375zm7.065 7.266v-4.61q0-.874-.406-1.296-.39-.438-1.234-.438-1.125 0-1.657.61-.515.593-.515 2v3.734h-1.078v-7.125h.89l.172.969h.047q.328-.531.922-.813.61-.297 1.344-.297 1.297 0 1.937.625.656.625.656 1.985v4.656h-1.078zm7.68 0l-.218-1.016h-.047q-.531.672-1.062.907-.532.234-1.329.234-1.062 0-1.671-.547-.594-.547-.594-1.547 0-2.156 3.453-2.265l1.219-.047v-.438q0-.844-.36-1.234-.36-.406-1.156-.406-.89 0-2.016.546l-.343-.828q.53-.28 1.156-.437.64-.172 1.266-.172 1.28 0 1.89.563.61.562.61 1.812v4.875h-.797zm-2.437-.766q1 0 1.578-.547.578-.562.578-1.546v-.641l-1.078.031q-1.28.047-1.86.406-.562.36-.562 1.11 0 .578.344.89.36.297 1 .297zm6.538.766h-1.078V170.07h1.078v10.125zM722.97 194.242q0 1-.75 1.547-.734.531-2.078.531-1.422 0-2.218-.437v-1.016q.515.266 1.109.422.594.14 1.14.14.844 0 1.297-.265.454-.266.454-.828 0-.407-.36-.703-.36-.297-1.406-.704-1-.375-1.422-.64-.422-.281-.625-.625-.203-.36-.203-.844 0-.875.703-1.375.719-.516 1.953-.516 1.156 0 2.25.47l-.375.874q-1.078-.437-1.953-.437-.766 0-1.156.25-.39.234-.39.656 0 .281.14.484.156.203.469.39.328.173 1.25.532 1.28.453 1.718.922.453.469.453 1.172zm4.765 2.078q-1.578 0-2.5-.953-.906-.969-.906-2.672 0-1.734.843-2.75.86-1.016 2.282-1.016 1.343 0 2.125.891.78.875.78 2.328v.672h-4.905q.03 1.266.625 1.922.61.64 1.703.64 1.14 0 2.265-.484v.969q-.562.25-1.078.344-.515.109-1.234.109zm-.297-6.484q-.86 0-1.375.562-.5.563-.594 1.547h3.735q0-1.016-.453-1.562-.454-.547-1.313-.547zm8.024-.907q.47 0 .844.079l-.14 1q-.454-.094-.782-.094-.875 0-1.5.703-.609.703-.609 1.75v3.828h-1.078v-7.125h.89l.125 1.313h.063q.39-.704.953-1.079t1.234-.375zm3.738 7.266l-2.703-7.125h1.156l1.531 4.219q.532 1.484.625 1.937h.047q.063-.36.438-1.437.39-1.078 1.718-4.719h1.157l-2.703 7.125H739.2zm6.193 0h-1.078v-7.125h1.078v7.125zm-1.172-9.062q0-.375.187-.547.188-.172.453-.172.266 0 .454.172.187.172.187.547 0 .359-.187.546-.188.172-.454.172-.265 0-.453-.172-.187-.187-.187-.546zm6.324 9.187q-1.547 0-2.406-.953-.844-.953-.844-2.688 0-1.796.86-2.765.859-.985 2.452-.985.516 0 1.032.11.515.11.812.265l-.328.922q-.36-.156-.797-.25-.422-.093-.734-.093-2.172 0-2.172 2.78 0 1.313.516 2.016.53.704 1.578.704.89 0 1.828-.391v.969q-.719.359-1.797.359zm6.501 0q-1.578 0-2.5-.953-.906-.969-.906-2.672 0-1.734.844-2.75.86-1.016 2.281-1.016 1.344 0 2.125.891.781.875.781 2.328v.672h-4.906q.031 1.266.625 1.922.61.64 1.703.64 1.14 0 2.266-.484v.969q-.563.25-1.078.344-.516.109-1.235.109zm-.296-6.484q-.86 0-1.375.562-.5.563-.594 1.547h3.734q0-1.016-.453-1.562-.453-.547-1.312-.547zm9.783 6.359l-2.703-7.125h1.156l1.531 4.219q.532 1.484.625 1.937h.047q.063-.36.438-1.437.39-1.078 1.719-4.719h1.156l-2.703 7.125h-1.266zm6.193 0h-1.078v-7.125h1.078v7.125zm-1.172-9.062q0-.375.187-.547.188-.172.453-.172.266 0 .454.172.187.172.187.547 0 .359-.187.546-.188.172-.454.172-.265 0-.453-.172-.187-.187-.187-.546zm7.855 9.062l-.218-1.016h-.047q-.532.672-1.063.907-.531.234-1.328.234-1.062 0-1.672-.547-.594-.547-.594-1.547 0-2.156 3.454-2.265l1.218-.047v-.438q0-.843-.36-1.234-.358-.406-1.155-.406-.89 0-2.016.547l-.344-.829q.532-.28 1.157-.437.64-.172 1.265-.172 1.281 0 1.89.563.61.562.61 1.812v4.875h-.797zm-2.437-.766q1 0 1.578-.546.578-.563.578-1.547v-.641l-1.078.031q-1.281.047-1.86.407-.562.359-.562 1.109 0 .578.344.89.36.297 1 .297zm11.937.891q-1.578 0-2.5-.953-.906-.969-.906-2.672 0-1.734.843-2.75.86-1.016 2.282-1.016 1.343 0 2.125.891.78.875.78 2.328v.672h-4.905q.03 1.266.625 1.922.61.64 1.703.64 1.14 0 2.265-.484v.969q-.562.25-1.078.344-.515.109-1.234.109zm-.297-6.484q-.86 0-1.375.562-.5.563-.594 1.547h3.735q0-1.016-.453-1.562-.454-.547-1.313-.547zm10.603-.766v.672l-1.328.156q.187.235.328.61.14.359.14.812 0 1.063-.718 1.688-.704.609-1.954.609-.328 0-.609-.047-.687.36-.687.922 0 .297.234.437.25.141.844.141h1.25q1.172 0 1.78.484.626.485.626 1.422 0 1.172-.953 1.797t-2.766.625q-1.406 0-2.172-.531-.75-.516-.75-1.469 0-.64.422-1.125.422-.469 1.172-.64-.281-.125-.469-.375-.172-.266-.172-.61 0-.39.204-.687.203-.297.656-.563-.547-.234-.906-.781-.344-.547-.344-1.25 0-1.172.703-1.797.703-.64 1.984-.64.563 0 1.016.14h2.469zm-5.688 8.328q0 .578.485.875.484.297 1.406.297 1.36 0 2-.406.656-.406.656-1.11 0-.578-.36-.796-.343-.22-1.343-.22h-1.297q-.734 0-1.14.345-.407.359-.407 1.015zm.578-6.047q0 .75.422 1.14.438.376 1.188.376 1.578 0 1.578-1.547 0-1.594-1.594-1.594-.766 0-1.187.407-.407.406-.407 1.218zm9.833-2.422q.47 0 .844.079l-.14 1q-.454-.094-.782-.094-.875 0-1.5.703-.61.703-.61 1.75v3.828h-1.077v-7.125h.89l.125 1.313h.063q.39-.704.953-1.079.562-.375 1.234-.375zm5.19 7.391q-1.577 0-2.5-.953-.905-.969-.905-2.672 0-1.734.843-2.75.86-1.016 2.282-1.016 1.343 0 2.125.891.78.875.78 2.328v.672h-4.905q.03 1.266.625 1.922.609.64 1.703.64 1.14 0 2.265-.484v.969q-.562.25-1.078.344-.515.109-1.234.109zm-.296-6.484q-.86 0-1.375.562-.5.563-.594 1.547h3.735q0-1.016-.453-1.562-.454-.547-1.313-.547zm9.368 4.406q0 1-.75 1.547-.734.531-2.078.531-1.422 0-2.219-.437v-1.016q.516.266 1.11.422.594.14 1.14.14.844 0 1.297-.265.453-.266.453-.828 0-.407-.359-.703-.36-.297-1.406-.704-1-.375-1.422-.64-.422-.281-.625-.625-.203-.36-.203-.844 0-.875.703-1.375.719-.516 1.953-.516 1.156 0 2.25.47l-.375.874q-1.078-.437-1.953-.437-.766 0-1.156.25-.391.234-.391.656 0 .281.14.484.157.203.47.39.328.173 1.25.532 1.28.453 1.718.922.453.469.453 1.172zm6.358 0q0 1-.75 1.547-.734.531-2.078.531-1.422 0-2.218-.437v-1.016q.515.266 1.109.422.594.14 1.14.14.844 0 1.297-.265.454-.266.454-.828 0-.407-.36-.703-.36-.297-1.406-.704-1-.375-1.422-.64-.422-.281-.625-.625-.203-.36-.203-.844 0-.875.703-1.375.719-.516 1.953-.516 1.156 0 2.25.47l-.375.874q-1.078-.437-1.953-.437-.766 0-1.156.25-.39.234-.39.656 0 .281.14.484.156.203.469.39.328.173 1.25.532 1.28.453 1.718.922.453.469.453 1.172zM724.205 205.07v.672l-1.328.156q.187.234.328.61.14.359.14.812 0 1.063-.718 1.688-.703.609-1.953.609-.329 0-.61-.047-.687.36-.687.922 0 .297.234.437.25.141.844.141h1.25q1.172 0 1.781.484.625.485.625 1.422 0 1.172-.953 1.797t-2.766.625q-1.406 0-2.172-.531-.75-.516-.75-1.469 0-.64.422-1.125.422-.469 1.172-.64-.281-.126-.469-.376-.171-.265-.171-.609 0-.39.203-.687.203-.297.656-.563-.547-.234-.906-.781-.344-.547-.344-1.25 0-1.172.703-1.797.703-.64 1.984-.64.563 0 1.016.14h2.469zm-5.688 8.328q0 .578.485.875.484.297 1.406.297 1.36 0 2-.406.656-.406.656-1.11 0-.578-.36-.797-.343-.218-1.343-.218h-1.297q-.734 0-1.14.344-.407.359-.407 1.015zm.578-6.047q0 .75.422 1.14.438.376 1.188.376 1.578 0 1.578-1.547 0-1.594-1.594-1.594-.765 0-1.187.406-.407.407-.407 1.22zm10.959 4.844l-.22-1.016h-.046q-.531.672-1.063.907-.53.234-1.328.234-1.062 0-1.672-.547-.593-.547-.593-1.547 0-2.156 3.453-2.265l1.219-.047v-.438q0-.844-.36-1.234-.36-.406-1.156-.406-.89 0-2.016.546l-.343-.828q.53-.28 1.156-.437.64-.172 1.265-.172 1.282 0 1.891.563.61.562.61 1.812v4.875h-.797zm-2.438-.766q1 0 1.578-.547.578-.562.578-1.546v-.641l-1.078.031q-1.281.047-1.86.406-.562.36-.562 1.11 0 .578.344.89.36.297 1 .297zm7.772 0q.281 0 .547-.03.265-.048.422-.095v.828q-.172.079-.516.125-.344.063-.61.063-2.078 0-2.078-2.172v-4.25h-1.015v-.516l1.015-.453.454-1.515h.625v1.656h2.078v.828h-2.078v4.203q0 .64.312.985.313.343.844.343zm5.408.891q-1.578 0-2.5-.953-.906-.969-.906-2.672 0-1.734.844-2.75.86-1.016 2.28-1.016 1.345 0 2.126.891.781.875.781 2.328v.672h-4.906q.031 1.266.625 1.922.61.64 1.703.64 1.14 0 2.266-.484v.969q-.563.25-1.078.344-.516.109-1.235.109zm-.297-6.484q-.86 0-1.375.562-.5.563-.593 1.547h3.734q0-1.016-.453-1.563-.453-.546-1.313-.546zm10.587 6.359l-1.312-4.188q-.125-.375-.453-1.734h-.063q-.25 1.125-.453 1.75l-1.344 4.172h-1.25l-1.937-7.125h1.125l1.047 4.094q.359 1.39.422 1.89h.046q.079-.375.235-.953.156-.594.281-.953l1.297-4.078h1.172l1.281 4.078q.36 1.125.5 1.89h.047q.031-.234.14-.718.11-.5 1.36-5.25h1.11l-1.97 7.125h-1.28zm8.93 0l-.219-1.016h-.047q-.531.672-1.062.907-.532.234-1.328.234-1.063 0-1.672-.547-.594-.547-.594-1.547 0-2.156 3.453-2.265l1.219-.047v-.438q0-.844-.36-1.234-.359-.406-1.156-.406-.89 0-2.015.546l-.344-.828q.531-.28 1.156-.437.64-.172 1.266-.172 1.28 0 1.89.563.61.562.61 1.812v4.875h-.797zm-2.438-.766q1 0 1.578-.547.579-.562.579-1.546v-.641l-1.079.031q-1.28.047-1.859.406-.562.36-.562 1.11 0 .578.343.89.36.297 1 .297zm4.335-6.359h1.156l1.562 4.063q.516 1.39.641 2.015h.047q.078-.344.344-1.14.28-.813 1.78-4.938h1.157l-3.062 8.11q-.453 1.202-1.063 1.702-.61.516-1.5.516-.5 0-.969-.11v-.874q.36.078.797.078 1.11 0 1.594-1.25l.39-1.016-2.874-7.156z"/><path fill="#000" fill-opacity="0" d="M557.7 272.934h150.52v34.331H557.7z" fill-rule="evenodd"/><path fill="#000" d="M571.92 294.734l-2.282-7.468h-.062q.125 2.28.125 3.047v4.421h-1.797v-9.515h2.734l2.266 7.281h.031l2.39-7.281h2.75v9.515h-1.89v-4.5q0-.328.016-.734.015-.422.094-2.219h-.063l-2.453 7.453h-1.86zm11.394-6q-.625 0-.984.407-.36.39-.406 1.125h2.781q-.016-.735-.39-1.125-.36-.407-1-.407zm.282 6.125q-1.75 0-2.75-.968-.985-.97-.985-2.735 0-1.843.907-2.828.921-1 2.546-1 1.532 0 2.391.875.86.875.86 2.422v.969h-4.688q.031.844.5 1.328.469.469 1.312.469.657 0 1.235-.141.594-.14 1.234-.437v1.53q-.515.266-1.11.391-.593.125-1.452.125zm9.671-2.28q0 1.109-.781 1.702-.781.578-2.328.578-.797 0-1.36-.109-.562-.094-1.047-.312v-1.641q.563.266 1.25.437.688.172 1.22.172 1.077 0 1.077-.625 0-.234-.14-.375-.141-.14-.5-.328-.344-.187-.938-.437-.828-.344-1.234-.641-.39-.312-.578-.687-.172-.391-.172-.954 0-.984.75-1.5.765-.53 2.14-.53 1.313 0 2.563.562l-.61 1.437q-.546-.234-1.03-.375-.47-.156-.954-.156-.875 0-.875.469 0 .265.281.468.282.188 1.235.579.86.343 1.25.64t.578.688q.203.39.203.937zm8.25 2.155h-1.984v-4.25q0-1.578-1.172-1.578-.828 0-1.203.578-.36.563-.36 1.829v3.421h-1.984V284.61h1.984v2.063q0 .234-.047 1.125l-.046.594h.109q.656-1.063 2.094-1.063 1.297 0 1.953.688.656.687.656 1.968v4.75zm9.566-7.406q1.28 0 2 1 .734 1 .734 2.75 0 1.813-.75 2.797-.75.984-2.047.984-1.281 0-2-.921h-.14l-.329.796h-1.515V284.61h1.984v2.36q0 .437-.078 1.437h.078q.688-1.078 2.063-1.078zm-.641 1.578q-.734 0-1.078.453-.328.454-.344 1.5v.22q0 1.155.344 1.671.344.5 1.11.5.609 0 .968-.562.36-.563.36-1.625 0-1.079-.376-1.61-.359-.547-.984-.547zm6.606 2.172q0 1.078.344 1.64.36.548 1.156.548.797 0 1.14-.547.36-.547.36-1.64 0-1.079-.36-1.61-.343-.547-1.14-.547-.797 0-1.156.547-.344.531-.344 1.61zm5.031 0q0 1.781-.937 2.781-.938 1-2.61 1-1.046 0-1.859-.453-.797-.453-1.234-1.312-.422-.86-.422-2.016 0-1.781.922-2.765.937-.985 2.625-.985 1.047 0 1.843.453.813.453 1.235 1.313.437.844.437 1.984zm6.8 3.656l-.282-.937h-.094q-.328.516-.922.797-.578.265-1.328.265-1.281 0-1.937-.687-.641-.688-.641-1.969v-4.75h1.984v4.25q0 .797.282 1.188.28.39.89.39.828 0 1.203-.547.375-.562.375-1.859v-3.422h1.985v7.281h-1.516zm10.306 0H637.2v-4.25q0-.78-.281-1.171-.266-.407-.89-.407-.829 0-1.204.563-.36.547-.36 1.844v3.421h-1.983v-7.28h1.515l.266.937h.11q.327-.532.905-.797.594-.266 1.329-.266 1.265 0 1.921.688.657.672.657 1.968v4.75zm4.353.125q-1.281 0-2.016-.984-.734-1-.734-2.766 0-1.796.75-2.78.75-1 2.047-1 1.375 0 2.11 1.062h.062q-.157-.813-.157-1.453v-2.329h2v10.125h-1.53l-.376-.937h-.094q-.671 1.062-2.062 1.062zm.703-1.578q.75 0 1.11-.437.359-.453.39-1.5v-.219q0-1.172-.36-1.672-.359-.515-1.171-.515-.672 0-1.047.562-.36.563-.36 1.64 0 1.063.36 1.61.375.531 1.078.531zm10.044 1.453l-.375-.984h-.063q-.5.625-1.031.875-.531.234-1.375.234-1.047 0-1.656-.593-.594-.594-.594-1.703 0-1.157.812-1.704.813-.562 2.438-.609l1.266-.047v-.312q0-1.11-1.141-1.11-.86 0-2.047.532l-.656-1.344q1.265-.656 2.781-.656 1.469 0 2.25.64.781.625.781 1.938v4.843h-1.39zm-.578-3.375l-.766.032q-.875.03-1.297.312-.422.281-.422.875 0 .828.969.828.687 0 1.094-.39.422-.391.422-1.047v-.61zm8.081-4.03q.39 0 .656.046l-.14 1.86q-.25-.063-.594-.063-.938 0-1.469.5-.531.484-.531 1.36v3.702h-1.984v-7.28h1.5l.296 1.234h.094q.344-.625.906-.985.579-.375 1.266-.375zm.943.124h2.172l1.375 4.094q.172.531.234 1.266h.047q.063-.672.281-1.266l1.344-4.094h2.125l-3.078 8.219q-.422 1.125-1.203 1.687-.781.579-1.828.579-.516 0-1.016-.11v-1.578q.36.078.781.078.532 0 .922-.328.39-.312.61-.953l.125-.36-2.891-7.234z"/><path fill="#9fc5e8" d="M158.449 224.46a8.116 8.116 0 0 1 8.115-8.116h97.816a8.116 8.116 0 0 1 8.116 8.115v32.462a8.116 8.116 0 0 1-8.116 8.116h-97.816a8.116 8.116 0 0 1-8.115-8.116z" fill-rule="evenodd"/><path fill="#000" d="M176.435 232.132q0 1.313-.89 2.016-.891.687-2.532.687h-1.015v3.375h-1v-8.562h2.234q3.203 0 3.203 2.484zm-4.437 1.86h.906q1.312 0 1.906-.422.594-.438.594-1.391 0-.844-.563-1.25-.546-.422-1.734-.422h-1.11v3.485zm9.021-2.329q.422 0 .766.079l-.14.906q-.391-.094-.704-.094-.781 0-1.344.64-.547.626-.547 1.563v3.453h-.968v-6.422h.797l.125 1.188h.046q.344-.625.844-.969.516-.344 1.125-.344zm2.93 6.547h-.969v-6.422h.969v6.422zm-1.047-8.156q0-.344.156-.5.172-.156.422-.156.234 0 .39.172.173.156.173.484 0 .328-.172.484-.157.157-.39.157-.25 0-.423-.157-.156-.156-.156-.484zm4.52 8.156l-2.438-6.422h1.047l1.375 3.813q.469 1.328.562 1.734h.047q.063-.312.407-1.281.343-.984 1.53-4.266H191l-2.438 6.422h-1.14zm8.558 0l-.203-.922h-.047q-.469.61-.953.829-.469.218-1.188.218-.953 0-1.5-.5-.546-.5-.546-1.406 0-1.937 3.109-2.031l1.094-.031v-.407q0-.75-.328-1.11-.313-.358-1.032-.358-.812 0-1.812.484l-.313-.75q.485-.25 1.047-.39.563-.157 1.14-.157 1.141 0 1.688.516.563.5.563 1.625v4.39h-.719zm-2.203-.687q.906 0 1.422-.5.531-.5.531-1.39v-.579l-.984.031q-1.157.047-1.672.375-.5.313-.5.985 0 .53.312.812.313.266.891.266zm7.002 0q.25 0 .484-.031.25-.047.39-.079v.735q-.155.078-.468.125-.297.062-.547.062-1.86 0-1.86-1.968v-3.829h-.92v-.468l.92-.407.407-1.359h.563v1.484h1.86v.75h-1.86v3.782q0 .578.265.89.282.313.766.313zm4.877.812q-1.422 0-2.25-.875-.828-.875-.828-2.406 0-1.562.765-2.469.766-.922 2.063-.922 1.203 0 1.906.797.703.797.703 2.094v.625h-4.422q.032 1.125.563 1.719.547.578 1.531.578 1.031 0 2.047-.438v.875q-.516.22-.984.313-.453.11-1.094.11zm-.266-5.843q-.781 0-1.25.5-.453.5-.531 1.39h3.36q0-.922-.407-1.406-.406-.484-1.172-.484zm7.537 5.718v-8.562h1v8.562h-1zm7.596 0v-4.156q0-.781-.36-1.172-.343-.39-1.109-.39-1.015 0-1.484.546-.469.547-.469 1.797v3.375h-.969v-6.422h.797l.157.875h.046q.297-.468.829-.734.546-.266 1.203-.266 1.172 0 1.75.563.593.562.593 1.797v4.187h-.984zm8.225-6.422v.61l-1.188.14q.172.204.297.547.125.328.125.735 0 .953-.64 1.515-.641.563-1.766.563-.297 0-.547-.047-.61.328-.61.828 0 .266.204.39.218.126.75.126h1.14q1.047 0 1.594.437.563.438.563 1.281 0 1.063-.86 1.625-.844.563-2.484.563-1.266 0-1.953-.469-.672-.469-.672-1.328 0-.594.375-1.031.375-.422 1.047-.563-.25-.11-.422-.343-.156-.235-.156-.547 0-.36.187-.625.188-.266.594-.5-.5-.203-.813-.688-.312-.5-.312-1.14 0-1.047.625-1.625.64-.579 1.797-.579.5 0 .906.125h2.219zm-5.11 7.5q0 .516.438.782.437.28 1.25.28 1.234 0 1.812-.374.594-.36.594-.984 0-.516-.328-.72-.313-.202-1.203-.202h-1.172q-.656 0-1.031.312-.36.313-.36.906zm.516-5.437q0 .672.375 1.016.39.343 1.078.343 1.422 0 1.422-1.39 0-1.438-1.438-1.438-.687 0-1.062.375-.375.36-.375 1.094zm8.855-2.188q.422 0 .766.079l-.14.906q-.391-.094-.704-.094-.781 0-1.343.64-.547.626-.547 1.563v3.453h-.97v-6.422h.798l.125 1.188h.047q.343-.625.843-.969.516-.344 1.125-.344zm4.68 6.672q-1.422 0-2.25-.875-.828-.875-.828-2.406 0-1.562.766-2.469.765-.922 2.062-.922 1.203 0 1.906.797.703.797.703 2.094v.625h-4.421q.03 1.125.562 1.719.547.578 1.531.578 1.032 0 2.047-.438v.875q-.515.22-.984.313-.453.11-1.094.11zm-.266-5.843q-.78 0-1.25.5-.453.5-.53 1.39h3.359q0-.922-.407-1.406-.406-.484-1.172-.484zm8.42 3.968q0 .89-.671 1.39-.657.485-1.875.485-1.266 0-1.985-.406v-.906q.469.234.985.375.53.125 1.03.125.766 0 1.173-.235.406-.25.406-.75 0-.375-.328-.64-.313-.266-1.266-.625-.89-.344-1.281-.594-.375-.25-.563-.562-.171-.313-.171-.75 0-.782.64-1.235.64-.469 1.75-.469 1.031 0 2.031.422l-.359.797q-.953-.39-1.75-.39-.687 0-1.047.218-.344.203-.344.594 0 .25.125.438.141.171.422.343.297.157 1.14.469 1.142.422 1.532.844.406.422.406 1.062zm5.725 0q0 .89-.672 1.39-.656.485-1.875.485-1.266 0-1.984-.406v-.906q.468.234.984.375.531.125 1.031.125.766 0 1.172-.235.406-.25.406-.75 0-.375-.328-.64-.312-.266-1.265-.625-.89-.344-1.282-.594-.375-.25-.562-.562-.172-.313-.172-.75 0-.782.64-1.235.641-.469 1.75-.469 1.032 0 2.032.422l-.36.797q-.953-.39-1.75-.39-.687 0-1.046.218-.344.203-.344.594 0 .25.125.438.14.171.422.343.297.157 1.14.469 1.141.422 1.532.844.406.422.406 1.062zM176.107 245.788v.61l-1.187.14q.171.204.296.547.125.328.125.735 0 .953-.64 1.515-.64.563-1.766.563-.297 0-.547-.047-.61.328-.61.828 0 .266.204.39.219.126.75.126h1.14q1.048 0 1.594.437.563.438.563 1.281 0 1.063-.86 1.625-.843.563-2.484.563-1.265 0-1.953-.469-.672-.469-.672-1.328 0-.594.375-1.031.375-.422 1.047-.563-.25-.11-.422-.343-.156-.235-.156-.547 0-.36.187-.625.188-.266.594-.5-.5-.203-.812-.688-.313-.5-.313-1.14 0-1.047.625-1.625.64-.579 1.797-.579.5 0 .906.125h2.22zm-5.11 7.5q0 .516.438.782.438.28 1.25.28 1.235 0 1.813-.374.593-.36.593-.984 0-.516-.328-.72-.312-.202-1.203-.202h-1.172q-.656 0-1.03.312-.36.313-.36.906zm.516-5.437q0 .672.375 1.016.39.343 1.078.343 1.422 0 1.422-1.39 0-1.438-1.437-1.438-.688 0-1.063.375-.375.36-.375 1.094zm9.871 4.36l-.203-.923h-.047q-.468.61-.953.829-.468.218-1.187.218-.953 0-1.5-.5t-.547-1.406q0-1.937 3.11-2.031l1.093-.031v-.407q0-.75-.328-1.11-.313-.358-1.031-.358-.813 0-1.813.484l-.312-.75q.484-.25 1.047-.39.562-.157 1.14-.157 1.14 0 1.688.516.562.5.562 1.625v4.39h-.719zm-2.203-.688q.907 0 1.422-.5.531-.5.531-1.39v-.579l-.984.031q-1.156.047-1.672.375-.5.313-.5.985 0 .53.313.812.312.266.89.266zm7.002 0q.25 0 .485-.031.25-.047.39-.079v.735q-.156.078-.469.125-.296.062-.546.062-1.86 0-1.86-1.968v-3.829h-.922v-.468l.922-.407.406-1.359h.563v1.484h1.86v.75h-1.86v3.782q0 .578.266.89.28.313.765.313zm4.877.812q-1.422 0-2.25-.875-.828-.875-.828-2.406 0-1.562.766-2.469.765-.922 2.062-.922 1.203 0 1.906.797.704.797.704 2.094v.625h-4.422q.03 1.125.562 1.719.547.578 1.531.578 1.032 0 2.047-.438v.875q-.515.22-.984.313-.453.11-1.094.11zm-.265-5.843q-.782 0-1.25.5-.454.5-.532 1.39h3.36q0-.922-.407-1.406-.406-.484-1.171-.484zm9.529 5.718l-1.188-3.765q-.109-.344-.406-1.578h-.047q-.234 1.03-.422 1.593l-1.203 3.75h-1.125l-1.75-6.422h1.016q.625 2.422.937 3.688.328 1.266.375 1.703h.047q.063-.328.203-.86.157-.53.266-.843l1.172-3.688h1.047l1.156 3.688q.328 1 .437 1.687h.047q.032-.203.125-.64.11-.453 1.235-4.735h1l-1.766 6.422h-1.156zm8.037 0l-.203-.922h-.047q-.469.61-.953.829-.469.218-1.188.218-.953 0-1.5-.5t-.547-1.406q0-1.937 3.11-2.031l1.094-.031v-.407q0-.75-.329-1.11-.312-.358-1.03-.358-.813 0-1.813.484l-.313-.75q.485-.25 1.047-.39.563-.157 1.14-.157 1.141 0 1.688.516.563.5.563 1.625v4.39h-.719zm-2.203-.687q.906 0 1.422-.5.531-.5.531-1.39v-.579l-.984.031q-1.157.047-1.672.375-.5.313-.5.985 0 .53.312.812.313.266.89.266zm3.908-5.735h1.047l1.406 3.657q.453 1.265.563 1.812h.047q.078-.297.312-1.015.25-.735 1.61-4.454h1.03l-2.75 7.313q-.421 1.078-.968 1.531-.547.469-1.344.469-.437 0-.875-.11v-.78q.328.077.719.077 1 0 1.437-1.125l.36-.921-2.594-6.454z"/><path fill="#fff" d="M21.883 241.462c-.83-4.47 1.896-8.896 7.02-11.4 5.126-2.502 11.751-2.643 17.065-.362 1.883-2.6 5.329-4.394 9.295-4.841 3.966-.447 7.988.506 10.848 2.57 1.604-2.356 4.752-3.94 8.329-4.188 3.577-.248 7.075.874 9.253 2.968 2.898-2.498 7.507-3.55 11.835-2.7 4.327.85 7.595 3.448 8.39 6.67 3.55.71 6.506 2.514 8.106 4.946 1.6 2.432 1.686 5.253.236 7.735 3.496 3.334 4.313 7.776 2.148 11.669-2.165 3.892-6.988 6.65-12.668 7.246-.04 3.653-2.775 7.006-7.15 8.765-4.374 1.76-9.706 1.65-13.94-.285-1.803 4.376-6.88 7.596-13.035 8.268-6.156.673-12.288-1.322-15.747-5.123-4.24 1.873-9.327 2.413-14.114 1.497-4.787-.916-8.87-3.21-11.33-6.365-4.333.372-8.522-1.273-10.488-4.118-1.966-2.845-1.292-6.284 1.69-8.61-3.865-1.668-5.837-4.975-4.888-8.199.949-3.223 4.604-5.632 9.059-5.97z" fill-rule="evenodd"/><path fill="#000" fill-opacity="0" d="M17.626 255.803c1.824.786 3.93 1.143 6.038 1.022m2.76 11.707a13.6 13.6 0 0 0 2.641-.49m22.802 5.358c-.637-.7-1.17-1.45-1.591-2.233m30.374-.912a9.095 9.095 0 0 0 .635-2.45m20.454-6.03c.042-3.89-2.972-7.451-7.75-9.155m18.27-9.76c-.773 1.325-1.954 2.5-3.45 3.433m-4.892-16.113a6.25 6.25 0 0 1 .183 1.621m-20.406-5.592a8.595 8.595 0 0 0-1.768 2.068m-15.815-.848a6.418 6.418 0 0 0-.856 1.783m-19.287.488a16.589 16.589 0 0 1 3.098 1.73m-27.183 10.032c.115.616.295 1.225.54 1.82" fill-rule="evenodd"/><path stroke="#4a86e8" stroke-linejoin="round" stroke-linecap="butt" d="M21.883 241.462h0c-.83-4.47 1.896-8.896 7.02-11.4 5.126-2.502 11.751-2.643 17.065-.362h0c1.883-2.6 5.329-4.394 9.295-4.841 3.966-.447 7.988.506 10.848 2.57h0c1.604-2.356 4.752-3.94 8.329-4.188 3.577-.248 7.075.874 9.253 2.968h0c2.898-2.498 7.507-3.55 11.835-2.7 4.327.85 7.595 3.448 8.39 6.67h0c3.55.71 6.506 2.514 8.106 4.946 1.6 2.432 1.686 5.253.236 7.735h0c3.496 3.334 4.313 7.776 2.148 11.669-2.165 3.892-6.988 6.65-12.668 7.246-.04 3.653-2.775 7.006-7.15 8.765-4.374 1.76-9.706 1.65-13.94-.285-1.803 4.376-6.88 7.596-13.035 8.268-6.156.673-12.288-1.322-15.747-5.123-4.24 1.873-9.327 2.413-14.114 1.497-4.787-.916-8.87-3.21-11.33-6.365h0c-4.333.372-8.522-1.273-10.488-4.118-1.966-2.845-1.292-6.284 1.69-8.61h0c-3.865-1.668-5.837-4.975-4.888-8.199.949-3.223 4.604-5.632 9.059-5.97z" fill-rule="evenodd"/><path stroke="#4a86e8" stroke-linejoin="round" stroke-linecap="butt" d="M17.626 255.803h0c1.824.786 3.93 1.143 6.038 1.022m2.76 11.707a13.6 13.6 0 0 0 2.641-.49m22.802 5.358c-.637-.7-1.17-1.45-1.591-2.233m30.374-.912h0a9.095 9.095 0 0 0 .635-2.45m20.454-6.03c.042-3.89-2.972-7.451-7.75-9.155m18.27-9.76c-.773 1.325-1.954 2.5-3.45 3.433m-4.892-16.113h0a6.25 6.25 0 0 1 .183 1.621m-20.406-5.592h0a8.595 8.595 0 0 0-1.768 2.068m-15.815-.848h0a6.418 6.418 0 0 0-.856 1.783m-19.287.488h0a16.589 16.589 0 0 1 3.098 1.73m-27.183 10.032h0c.115.616.295 1.225.54 1.82" fill-rule="evenodd"/><path fill="#000" d="M42.388 240.895q0 1.313-.89 2.016-.891.688-2.532.688h-1.015v3.375h-1v-8.563h2.234q3.203 0 3.203 2.484zm-4.437 1.86h.906q1.313 0 1.906-.422.594-.438.594-1.39 0-.844-.562-1.25-.547-.423-1.735-.423h-1.11v3.485zm9.021-2.328q.422 0 .766.078l-.14.906q-.391-.094-.704-.094-.781 0-1.344.64-.547.626-.547 1.563v3.454h-.968v-6.422h.797l.125 1.187h.046q.344-.625.844-.969.516-.343 1.125-.343zm2.93 6.547h-.969v-6.422h.969v6.422zm-1.047-8.157q0-.343.156-.5.172-.156.422-.156.235 0 .39.172.173.156.173.484 0 .328-.172.485-.156.156-.39.156-.25 0-.423-.156-.156-.157-.156-.485zm4.52 8.157l-2.438-6.422h1.047l1.375 3.812q.469 1.328.562 1.735h.047q.063-.313.407-1.282.343-.984 1.53-4.265h1.048l-2.438 6.422h-1.14zm8.558 0l-.203-.922h-.047q-.469.609-.953.828-.469.219-1.187.219-.954 0-1.5-.5-.547-.5-.547-1.407 0-1.937 3.11-2.031l1.093-.031v-.406q0-.75-.328-1.11-.313-.36-1.032-.36-.812 0-1.812.485l-.313-.75q.485-.25 1.047-.39.563-.157 1.14-.157 1.142 0 1.688.516.563.5.563 1.625v4.39h-.719zm-2.203-.688q.906 0 1.422-.5.531-.5.531-1.39v-.579l-.984.032q-1.156.046-1.672.375-.5.312-.5.984 0 .531.312.812.313.266.891.266zm7.002 0q.25 0 .484-.031.25-.047.391-.078v.734q-.156.078-.469.125-.297.063-.547.063-1.859 0-1.859-1.97v-3.827h-.922v-.47l.922-.405.406-1.36h.563v1.485h1.86v.75H65.7v3.78q0 .579.265.892.282.312.766.312zm4.877.813q-1.422 0-2.25-.875-.828-.875-.828-2.407 0-1.562.765-2.468.766-.922 2.063-.922 1.203 0 1.906.797.703.796.703 2.093v.625h-4.422q.032 1.125.563 1.719.547.578 1.531.578 1.031 0 2.047-.437v.875q-.516.218-.984.312-.453.11-1.094.11zm-.266-5.844q-.78 0-1.25.5-.453.5-.53 1.39h3.358q0-.921-.406-1.406-.406-.484-1.172-.484zM41.2 260.974v-4.157q0-.781-.359-1.172-.343-.39-1.109-.39-1.016 0-1.484.547-.47.547-.47 1.797v3.375h-.968v-6.422h.797l.156.875h.047q.297-.47.828-.735.547-.265 1.203-.265 1.172 0 1.75.562.594.563.594 1.797v4.188h-.984zm5.694.125q-1.422 0-2.25-.875-.828-.875-.828-2.407 0-1.562.766-2.468.765-.922 2.062-.922 1.203 0 1.906.797.703.796.703 2.093v.625h-4.421q.03 1.125.562 1.719.547.578 1.531.578 1.032 0 2.047-.437v.875q-.515.218-.984.312-.453.11-1.094.11zm-.266-5.844q-.78 0-1.25.5-.453.5-.53 1.39h3.359q0-.921-.407-1.406-.406-.484-1.172-.484zm6.358 5.031q.25 0 .484-.031.25-.047.39-.078v.734q-.155.078-.468.125-.297.063-.547.063-1.86 0-1.86-1.97v-3.827h-.921v-.47l.922-.405.406-1.36h.563v1.485h1.859v.75h-1.86v3.78q0 .579.266.892.282.312.766.312zm7.408.688l-1.187-3.766q-.11-.344-.407-1.578h-.047q-.234 1.031-.421 1.594l-1.204 3.75h-1.125l-1.75-6.422h1.016q.625 2.422.938 3.687.328 1.266.375 1.703h.046q.063-.328.204-.86.156-.53.265-.843l1.172-3.687h1.047l1.156 3.687q.328 1 .438 1.688h.047q.03-.204.125-.641.109-.453 1.234-4.734h1l-1.766 6.422h-1.156zm9.631-3.22q0 1.579-.797 2.47-.781.875-2.187.875-.86 0-1.532-.407-.656-.406-1.03-1.156-.36-.766-.36-1.781 0-1.563.781-2.438.797-.89 2.187-.89 1.344 0 2.141.906.797.89.797 2.422zm-4.89 0q0 1.235.484 1.876.5.64 1.453.64.953 0 1.437-.64.5-.64.5-1.875 0-1.219-.5-1.86-.484-.64-1.453-.64-.953 0-1.437.64-.485.625-.485 1.86zm9.529-3.327q.422 0 .765.078l-.14.906q-.391-.094-.703-.094-.782 0-1.344.64-.547.626-.547 1.563v3.454h-.969v-6.422h.797l.125 1.187h.047q.344-.625.844-.969.515-.343 1.125-.343zm2.93 3.265q.25-.36.765-.937l2.062-2.203h1.157l-2.594 2.734 2.781 3.688h-1.172l-2.28-3.032-.72.625v2.406h-.968v-9.124h.968v4.843q0 .313-.047 1h.047z"/><path fill="#000" fill-opacity="0" d="M115.468 250.738l42.992-10.047" fill-rule="evenodd"/><path stroke="#4a86e8" stroke-linejoin="round" stroke-linecap="butt" d="M115.468 250.738l39.655-9.268" fill-rule="evenodd"/><path fill="#4a86e8" stroke="#4a86e8" stroke-linecap="butt" d="M155.123 241.47l-.84 1.351 2.753-1.798-3.264-.392z" fill-rule="evenodd"/><path fill="#000" fill-opacity="0" d="M326.123 147.194l-53.637 93.512" fill-rule="evenodd"/><path stroke="#4f81bd" stroke-linejoin="round" stroke-linecap="butt" d="M324.418 150.167l-51.932 90.539" fill-rule="evenodd"/><path fill="#4f81bd" stroke="#4f81bd" stroke-linecap="butt" d="M324.418 150.167l.416 1.535.562-3.24-2.513 2.12z" fill-rule="evenodd"/></g></svg>