<?xml version="1.0" encoding="UTF-8" standalone="no"?>
<svg
   fill="none"
   stroke="none"
   stroke-linecap="square"
   stroke-miterlimit="10"
   version="1.1"
   viewBox="0 0 1072 656"
   id="svg88"
   sodipodi:docname="external-controlplane.svg"
   inkscape:version="1.3 (0e150ed, 2023-07-21)"
   xmlns:inkscape="http://www.inkscape.org/namespaces/inkscape"
   xmlns:sodipodi="http://sodipodi.sourceforge.net/DTD/sodipodi-0.dtd"
   xmlns="http://www.w3.org/2000/svg"
   xmlns:svg="http://www.w3.org/2000/svg">
  <defs
     id="defs88" />
  <sodipodi:namedview
     id="namedview88"
     pagecolor="#ffffff"
     bordercolor="#000000"
     borderopacity="0.25"
     inkscape:showpageshadow="2"
     inkscape:pageopacity="0.0"
     inkscape:pagecheckerboard="0"
     inkscape:deskcolor="#d1d1d1"
     inkscape:zoom="0.97906776"
     inkscape:cx="518.35023"
     inkscape:cy="384.03879"
     inkscape:window-width="1440"
     inkscape:window-height="789"
     inkscape:window-x="0"
     inkscape:window-y="25"
     inkscape:window-maximized="1"
     inkscape:current-layer="g88"
     showgrid="false" />
  <clipPath
     id="p.0">
    <path
       d="m0 0l1072.0 0l0 656.0l-1072.0 0l0 -656.0z"
       clip-rule="nonzero"
       id="path1" />
  </clipPath>
  <g
     clip-path="url(#p.0)"
     id="g88">
    <path
       fill="#000"
       fill-opacity="0"
       fill-rule="evenodd"
       d="m0 0l1072.0 0l0 656.0l-1072.0 0z"
       id="path2" />
    <path
       fill="#000"
       fill-opacity="0"
       fill-rule="evenodd"
       d="m146.17323 363.64932l0 0c0 -28.148254 22.81865 -50.96692 50.96689 -50.96692l672.3339 0c13.517273 0 26.480896 5.3697205 36.039 14.927856c9.5581665 9.5581665 14.927856 22.52179 14.927856 36.039062l0 203.86148c0 28.148254 -22.818604 50.966858 -50.966858 50.966858l-672.3339 0l0 0c-28.14824 0 -50.96689 -22.818604 -50.96689 -50.966858z"
       id="path3" />
    <path
       fill-rule="evenodd"
       stroke="#46f"
       stroke-dasharray="8 6"
       stroke-linecap="butt"
       stroke-linejoin="round"
       stroke-width="2"
       d="m146.17323 363.64932l0 0c0 -28.148254 22.81865 -50.96692 50.96689 -50.96692l672.3339 0c13.517273 0 26.480896 5.3697205 36.039 14.927856c9.5581665 9.5581665 14.927856 22.52179 14.927856 36.039062l0 203.86148c0 28.148254 -22.818604 50.966858 -50.966858 50.966858l-672.3339 0l0 0c-28.14824 0 -50.96689 -22.818604 -50.96689 -50.966858z"
       id="path4" />
    <path
       fill="#000"
       fill-opacity="0"
       fill-rule="evenodd"
       d="m417.9475 88.08192l0 0c0 -15.177261 12.303589 -27.480865 27.480865 -27.480865l175.49496 0c7.288391 0 14.278259 2.8952942 19.431885 8.048958c5.1536865 5.1536636 8.04895 12.143524 8.04895 19.431908l0 109.92016c0 15.177261 -12.303589 27.480865 -27.480835 27.480865l-175.49496 0c-15.177277 0 -27.480865 -12.303604 -27.480865 -27.480865z"
       id="path5" />
    <path
       fill-rule="evenodd"
       stroke="#ff6400"
       stroke-linecap="butt"
       stroke-linejoin="round"
       stroke-width="2"
       d="m417.9475 88.08192l0 0c0 -15.177261 12.303589 -27.480865 27.480865 -27.480865l175.49496 0c7.288391 0 14.278259 2.8952942 19.431885 8.048958c5.1536865 5.1536636 8.04895 12.143524 8.04895 19.431908l0 109.92016c0 15.177261 -12.303589 27.480865 -27.480835 27.480865l-175.49496 0c-15.177277 0 -27.480865 -12.303604 -27.480865 -27.480865z"
       id="path6" />
    <path
       fill="#000"
       fill-opacity="0"
       fill-rule="evenodd"
       d="m146.17323 277.22195l148.88188 0l0 56.37796l-148.88188 0z"
       id="path7" />
    <path
       fill="#000"
       fill-opacity="0"
       fill-rule="evenodd"
       d="m408.90292 24.309711l203.55905 0l0 56.377956l-203.55905 0z"
       id="path9" />
    <path
       fill="#000"
       fill-opacity="0"
       fill-rule="evenodd"
       d="m245.9029 400.56238l0 0c0 -19.584015 15.875977 -35.460022 35.460022 -35.460022l514.56024 0c9.404602 0 18.424011 3.735962 25.074036 10.386017c6.6500244 6.6500244 10.385986 15.669434 10.385986 25.074005l0 141.83588c0 19.584045 -15.875977 35.460022 -35.460022 35.460022l-514.56024 0c-19.584045 0 -35.460022 -15.875977 -35.460022 -35.460022z"
       id="path11" />
    <path
       fill-rule="evenodd"
       stroke="#ff6400"
       stroke-linecap="butt"
       stroke-linejoin="round"
       stroke-width="2"
       d="m245.9029 400.56238l0 0c0 -19.584015 15.875977 -35.460022 35.460022 -35.460022l514.56024 0c9.404602 0 18.424011 3.735962 25.074036 10.386017c6.6500244 6.6500244 10.385986 15.669434 10.385986 25.074005l0 141.83588c0 19.584045 -15.875977 35.460022 -35.460022 35.460022l-514.56024 0c-19.584045 0 -35.460022 -15.875977 -35.460022 -35.460022z"
       id="path12" />
    <path
       fill="#000"
       fill-opacity="0"
       fill-rule="evenodd"
       d="m252.91588 327.37534l218.80315 0l0 56.37796l-218.80315 0z"
       id="path13" />
    <path
       fill="#e6e6e6"
       fill-rule="evenodd"
       d="m664.762 429.79895l131.78918 0l0 70.066376l-131.78918 0z"
       id="path15" />
    <path
       fill="#fff"
       fill-rule="evenodd"
       d="m671.47186 437.585l116.140076 0l0 53.385376l-116.140076 0z"
       id="path16" />
    <path
       fill="#000"
       fill-opacity="0"
       fill-rule="evenodd"
       d="m659.5591 71.48294l90.99213 0l0 56.377953l-90.99213 0z"
       id="path18" />
    <path
       fill="#e6e6e6"
       fill-rule="evenodd"
       d="m459.8446 430.09842l-0.65771484 0.06021118l-1.1964417 0.40493774l-0.8581848 0.8099365l-0.5324402 1.0397644l-0.06262207 0.5746155l0 63.617126l0.06262207 0.5800781l0.5324402 1.0397644l0.8581848 0.809906l1.1964417 0.40496826l0.65771484 0.054718018l142.25641 0l0.66400146 -0.054718018l1.1901245 -0.40496826l0.927124 -0.809906l0.46350098 -1.0397644l0.06890869 -0.5800781l0 -63.617126l-0.06890869 -0.5746155l-0.46350098 -1.0397644l-0.927124 -0.8099365l-1.1901245 -0.40493774l-0.66400146 -0.06021118z"
       id="path21" />
    <path
       fill="#fff"
       fill-rule="evenodd"
       d="m468.2684 438.77036l126.04727 0l0 52.06299l-126.04727 0z"
       id="path22" />
    <path
       fill="#000"
       fill-rule="nonzero"
       d="m522.1519 470.91183q-0.875 0 -1.6875 -0.359375q-0.796875 -0.359375 -1.421875 -1.046875q-0.625 -0.703125 -0.890625 -1.6875l1.296875 -0.53125q0.265625 1.015625 1.0 1.671875q0.734375 0.65625 1.734375 0.65625q0.984375 0 1.671875 -0.53125q0.6875 -0.53125 0.6875 -1.46875q0 -0.796875 -0.578125 -1.3125q-0.578125 -0.515625 -1.90625 -0.96875l-0.734375 -0.25q-1.203125 -0.4375 -1.984375 -1.140625q-0.765625 -0.703125 -0.765625 -1.953125q0 -0.8125 0.453125 -1.5q0.453125 -0.703125 1.25 -1.125q0.796875 -0.421875 1.796875 -0.421875q0.984375 0 1.71875 0.375q0.734375 0.375 1.171875 0.90625q0.453125 0.515625 0.625 1.03125l-1.265625 0.546875q-0.171875 -0.59375 -0.75 -1.078125q-0.5625 -0.484375 -1.484375 -0.484375q-0.890625 0 -1.515625 0.5q-0.625 0.5 -0.625 1.25q0 0.671875 0.53125 1.09375q0.53125 0.421875 1.609375 0.796875l0.75 0.25q1.453125 0.53125 2.265625 1.328125q0.8125 0.78125 0.8125 2.140625q0 1.109375 -0.5625 1.859375q-0.5625 0.75 -1.4375 1.109375q-0.859375 0.34375 -1.765625 0.34375zm9.148254 0q-1.171875 0 -2.109375 -0.546875q-0.921875 -0.5625 -1.4375 -1.546875q-0.515625 -0.984375 -0.515625 -2.21875q0 -1.171875 0.484375 -2.171875q0.484375 -1.0 1.390625 -1.59375q0.90625 -0.59375 2.078125 -0.59375q1.203125 0 2.078125 0.546875q0.875 0.53125 1.34375 1.484375q0.484375 0.9375 0.484375 2.15625q0 0.1875 -0.03125 0.40625l-6.46875 0q0.046875 0.9375 0.4375 1.578125q0.40625 0.640625 1.015625 0.96875q0.625 0.3125 1.296875 0.3125q1.59375 0 2.421875 -1.484375l1.140625 0.5625q-0.5 0.984375 -1.421875 1.5625q-0.90625 0.578125 -2.1875 0.578125zm2.34375 -5.1875q-0.03125 -0.515625 -0.28125 -1.03125q-0.25 -0.515625 -0.796875 -0.859375q-0.546875 -0.359375 -1.375 -0.359375q-0.96875 0 -1.640625 0.625q-0.671875 0.609375 -0.875 1.625l4.96875 0zm3.0392456 -3.21875l1.28125 0l0 1.3125l0.078125 0q0.234375 -0.671875 0.921875 -1.109375q0.6875 -0.453125 1.4375 -0.453125q0.5625 0 0.96875 0.171875l0 1.46875q-0.515625 -0.265625 -1.15625 -0.265625q-0.59375 0 -1.09375 0.34375q-0.5 0.328125 -0.796875 0.90625q-0.28125 0.5625 -0.28125 1.21875l0 4.5625l-1.359375 0l0 -8.15625zm5.3657837 0l1.453125 0l2.53125 6.5625l0.03125 0l2.5625 -6.5625l1.421875 0l-3.328125 8.15625l-1.375 0l-3.296875 -8.15625zm9.927124 -1.5q-0.40625 0 -0.703125 -0.28125q-0.28125 -0.296875 -0.28125 -0.703125q0 -0.421875 0.28125 -0.6875q0.296875 -0.28125 0.703125 -0.28125q0.40625 0 0.6875 0.28125q0.28125 0.265625 0.28125 0.6875q0 0.40625 -0.28125 0.703125q-0.28125 0.28125 -0.6875 0.28125zm-0.671875 1.5l1.359375 0l0 8.15625l-1.359375 0l0 -8.15625zm7.0985107 8.40625q-1.1875 0 -2.140625 -0.5625q-0.9375 -0.5625 -1.46875 -1.546875q-0.515625 -0.984375 -0.515625 -2.21875q0 -1.234375 0.515625 -2.21875q0.53125 -1.0 1.46875 -1.5625q0.953125 -0.5625 2.140625 -0.5625q1.328125 0 2.234375 0.625q0.90625 0.609375 1.28125 1.640625l-1.234375 0.515625q-0.296875 -0.765625 -0.90625 -1.15625q-0.59375 -0.390625 -1.4375 -0.390625q-0.71875 0 -1.34375 0.390625q-0.625 0.390625 -1.0 1.109375q-0.375 0.703125 -0.375 1.609375q0 0.90625 0.375 1.609375q0.375 0.703125 1.0 1.109375q0.625 0.390625 1.34375 0.390625q0.859375 0 1.484375 -0.40625q0.625 -0.40625 0.9375 -1.140625l1.203125 0.515625q-0.40625 1.015625 -1.328125 1.640625q-0.921875 0.609375 -2.234375 0.609375zm8.593506 0q-1.171875 0 -2.109375 -0.546875q-0.921875 -0.5625 -1.4375 -1.546875q-0.515625 -0.984375 -0.515625 -2.21875q0 -1.171875 0.484375 -2.171875q0.484375 -1.0 1.390625 -1.59375q0.90625 -0.59375 2.078125 -0.59375q1.203125 0 2.078125 0.546875q0.875 0.53125 1.34375 1.484375q0.484375 0.9375 0.484375 2.15625q0 0.1875 -0.03125 0.40625l-6.46875 0q0.046875 0.9375 0.4375 1.578125q0.40625 0.640625 1.015625 0.96875q0.625 0.3125 1.296875 0.3125q1.59375 0 2.421875 -1.484375l1.140625 0.5625q-0.5 0.984375 -1.421875 1.5625q-0.90625 0.578125 -2.1875 0.578125zm2.34375 -5.1875q-0.03125 -0.515625 -0.28125 -1.03125q-0.25 -0.515625 -0.796875 -0.859375q-0.546875 -0.359375 -1.375 -0.359375q-0.96875 0 -1.640625 0.625q-0.671875 0.609375 -0.875 1.625l4.96875 0zm2.0236816 4.9375l0 0zm7.8257446 -11.453125l1.53125 0l4.359375 11.453125l-1.5 0l-1.140625 -3.15625l-4.96875 0l-1.140625 3.15625l-1.5 0l4.359375 -11.453125zm2.78125 7.015625l-1.53125 -4.125l-0.453125 -1.234375l-0.0625 0l-0.453125 1.234375l-1.53125 4.125l4.03125 0z"
       id="path23" />
    <path
       fill="#767576"
       fill-rule="evenodd"
       d="m488.13498 447.45062l-1.9053955 0.054718018l-3.624939 0.6950073l-3.2531433 1.3298035l-2.9452515 1.8497009l-2.5153809 2.3695374l-1.963501 2.7800293l-1.4116516 3.0645447l-0.73776245 3.4093323l-0.06390381 1.7949524l0.06390381 1.7949829l0.73776245 3.349121l1.4116516 3.1247559l1.963501 2.7745361l2.5153809 2.3750305l2.9452515 1.8497009l3.2531433 1.3298035l3.624939 0.6950073l1.9053955 0.054718018l1.8996277 -0.054718018l3.5610046 -0.6950073l3.317047 -1.3298035l2.945282 -1.8497009l2.5153503 -2.3750305l1.9635315 -2.7745361l1.4116211 -3.1247559l0.73776245 -3.349121l0.06390381 -1.7949829l-0.06390381 -1.7949524l-0.73776245 -3.4093323l-1.4116211 -3.0645447l-1.9635315 -2.7800293l-2.5153503 -2.3695374l-2.945282 -1.8497009l-3.317047 -1.3298035l-3.5610046 -0.6950073l-1.8996277 -0.054718018z"
       id="path24" />
    <path
       fill="#000"
       fill-opacity="0"
       fill-rule="evenodd"
       d="m494.64124 470.81235l-13.076477 0l0 -12.318481l13.076477 0l0 12.318481z"
       id="path25" />
    <path
       fill-rule="evenodd"
       stroke="#fff"
       stroke-linecap="butt"
       stroke-linejoin="round"
       stroke-width=".916"
       d="m494.64124 470.81235l-13.076477 0l0 -12.318481l13.076477 0l0 12.318481z"
       id="path26" />
    <path
       fill="#000"
       fill-opacity="0"
       fill-rule="evenodd"
       d="m484.0162 458.49393l0 -2.949646"
       id="path27" />
    <path
       fill-rule="evenodd"
       stroke="#fff"
       stroke-linecap="round"
       stroke-miterlimit="105.678"
       stroke-width=".916"
       d="m484.0162 458.49393l0 -2.949646"
       id="path28" />
    <path
       fill="#000"
       fill-opacity="0"
       fill-rule="evenodd"
       d="m488.1349 458.49393l0 -2.949646"
       id="path29" />
    <path
       fill-rule="evenodd"
       stroke="#fff"
       stroke-linecap="round"
       stroke-miterlimit="105.678"
       stroke-width=".916"
       d="m488.1349 458.49393l0 -2.949646"
       id="path30" />
    <path
       fill="#000"
       fill-opacity="0"
       fill-rule="evenodd"
       d="m492.24777 458.49393l0 -2.949646"
       id="path31" />
    <path
       fill-rule="evenodd"
       stroke="#fff"
       stroke-linecap="round"
       stroke-miterlimit="105.678"
       stroke-width=".916"
       d="m492.24777 458.49393l0 -2.949646"
       id="path32" />
    <path
       fill="#000"
       fill-opacity="0"
       fill-rule="evenodd"
       d="m484.0162 474.05188l0 -3.0098572"
       id="path33" />
    <path
       fill-rule="evenodd"
       stroke="#fff"
       stroke-linecap="round"
       stroke-miterlimit="105.678"
       stroke-width=".916"
       d="m484.0162 474.05188l0 -3.0098572"
       id="path34" />
    <path
       fill="#000"
       fill-opacity="0"
       fill-rule="evenodd"
       d="m488.1349 474.05188l0 -3.0098572"
       id="path35" />
    <path
       fill-rule="evenodd"
       stroke="#fff"
       stroke-linecap="round"
       stroke-miterlimit="105.678"
       stroke-width=".916"
       d="m488.1349 474.05188l0 -3.0098572"
       id="path36" />
    <path
       fill="#000"
       fill-opacity="0"
       fill-rule="evenodd"
       d="m492.24777 474.05188l0 -3.0098572"
       id="path37" />
    <path
       fill-rule="evenodd"
       stroke="#fff"
       stroke-linecap="round"
       stroke-miterlimit="105.678"
       stroke-width=".916"
       d="m492.24777 474.05188l0 -3.0098572"
       id="path38" />
    <path
       fill="#000"
       fill-opacity="0"
       fill-rule="evenodd"
       d="m481.44278 468.6725l-3.1311646 0"
       id="path39" />
    <path
       fill-rule="evenodd"
       stroke="#fff"
       stroke-linecap="round"
       stroke-miterlimit="105.678"
       stroke-width=".916"
       d="m481.44278 468.6725l-3.1311646 0"
       id="path40" />
    <path
       fill="#000"
       fill-opacity="0"
       fill-rule="evenodd"
       d="m481.44278 464.79807l-3.1311646 0"
       id="path41" />
    <path
       fill-rule="evenodd"
       stroke="#fff"
       stroke-linecap="round"
       stroke-miterlimit="105.678"
       stroke-width=".916"
       d="m481.44278 464.79807l-3.1311646 0"
       id="path42" />
    <path
       fill="#000"
       fill-opacity="0"
       fill-rule="evenodd"
       d="m481.44278 460.9236l-3.1311646 0"
       id="path43" />
    <path
       fill-rule="evenodd"
       stroke="#fff"
       stroke-linecap="round"
       stroke-miterlimit="105.678"
       stroke-width=".916"
       d="m481.44278 460.9236l-3.1311646 0"
       id="path44" />
    <path
       fill="#000"
       fill-opacity="0"
       fill-rule="evenodd"
       d="m497.9524 468.6725l-3.1892395 0"
       id="path45" />
    <path
       fill-rule="evenodd"
       stroke="#fff"
       stroke-linecap="round"
       stroke-miterlimit="105.678"
       stroke-width=".916"
       d="m497.9524 468.6725l-3.1892395 0"
       id="path46" />
    <path
       fill="#000"
       fill-opacity="0"
       fill-rule="evenodd"
       d="m497.9524 464.79807l-3.1892395 0"
       id="path47" />
    <path
       fill-rule="evenodd"
       stroke="#fff"
       stroke-linecap="round"
       stroke-miterlimit="105.678"
       stroke-width=".916"
       d="m497.9524 464.79807l-3.1892395 0"
       id="path48" />
    <path
       fill="#000"
       fill-opacity="0"
       fill-rule="evenodd"
       d="m497.9524 460.9236l-3.1892395 0"
       id="path49" />
    <path
       fill-rule="evenodd"
       stroke="#fff"
       stroke-linecap="round"
       stroke-miterlimit="105.678"
       stroke-width=".916"
       d="m497.9524 460.9236l-3.1892395 0"
       id="path50" />
    <path
       fill="#fff"
       fill-rule="evenodd"
       d="m487.27515 461.90863l-0.4298706 0.054718018l-0.73776245 0.29003906l-0.5518799 0.51989746l-0.30789185 0.6950073l0 0.40493774l0 1.6198425l0 0.40496826l0.30789185 0.6950073l0.5518799 0.51986694l0.73776245 0.28457642l2.5734558 0l0.73779297 -0.28457642l0.55184937 -0.51986694l0.30789185 -0.6950073l0 -0.40496826l0 -1.6198425l0 -0.40493774l-0.30789185 -0.6950073l-0.55184937 -0.51989746l-0.73779297 -0.29003906l-0.4298706 -0.054718018z"
       id="path51" />
    <path
       fill="#e6e6e6"
       fill-rule="evenodd"
       d="m196.27757 429.72662l-0.57733154 0.06085205l-1.0501709 0.40930176l-0.7532654 0.818573l-0.46736145 1.0509338l-0.054977417 0.5862732l0 64.29346l0.054977417 0.5863037l0.46736145 1.0509033l0.7532654 0.8186035l1.0501709 0.40930176l0.57733154 0.060821533l124.872055 0l0.57733154 -0.060821533l1.0446777 -0.40930176l0.75875854 -0.8186035l0.46185303 -1.0509033l0.06048584 -0.5863037l0 -64.29346l-0.06048584 -0.5862732l-0.46185303 -1.0509338l-0.75875854 -0.818573l-1.0446777 -0.40930176l-0.57733154 -0.06085205z"
       id="path52" />
    <path
       fill="#fff"
       fill-rule="evenodd"
       d="m203.98605 438.49585l-0.64707947 0.060821533l-1.0598602 0.40930176l-0.7642212 0.8185425l-0.47413635 1.0508728l0 0.5862427l0 46.757507l0 0.5862427l0.47413635 1.0508728l0.7642212 0.8185425l1.0598602 0.40930176l0.64707947 0.05529785l109.059784 0l0.5913086 -0.05529785l1.059845 -0.40930176l0.7642212 -0.8185425l0.4741516 -1.0508728l0.055786133 -0.5862427l0 -46.757507l-0.055786133 -0.5862427l-0.4741516 -1.0508728l-0.7642212 -0.8185425l-1.059845 -0.40930176l-0.5913086 -0.060821533z"
       id="path53" />
    <path
       fill="#466bb0"
       fill-rule="evenodd"
       d="m212.74503 479.87823l8.792984 5.027771l14.616287 -5.027771z"
       id="path54" />
    <path
       fill="#466bb0"
       fill-rule="evenodd"
       d="m221.53801 458.0802l-8.792984 20.10553l8.792984 -1.6980591l0 -18.40747z"
       id="path55" />
    <path
       fill="#476baf"
       fill-rule="evenodd"
       d="m222.96965 444.69495l0 31.792725l13.184647 1.6980591l-13.184647 -33.490784z"
       id="path56" />
    <path
       fill="#000"
       fill-opacity="0"
       fill-rule="evenodd"
       d="m228.97575 450.2342l85.21962 0l0 29.132996l-85.21962 0z"
       id="path57" />
    <path
       fill="#000"
       fill-rule="nonzero"
       d="m246.08177 470.91068q-1.609375 0 -2.984375 -0.78125q-1.359375 -0.78125 -2.15625 -2.15625q-0.796875 -1.375 -0.796875 -3.046875q0 -1.65625 0.796875 -3.03125q0.796875 -1.375 2.15625 -2.15625q1.375 -0.796875 2.984375 -0.796875q1.265625 0 2.375 0.453125q1.109375 0.453125 1.828125 1.265625l-0.953125 0.96875q-0.5625 -0.671875 -1.421875 -1.03125q-0.84375 -0.359375 -1.8125 -0.359375q-1.203125 0 -2.265625 0.59375q-1.046875 0.578125 -1.6875 1.640625q-0.625 1.0625 -0.625 2.453125q0 1.390625 0.625 2.46875q0.640625 1.0625 1.6875 1.640625q1.0625 0.578125 2.265625 0.578125q1.15625 0 1.921875 -0.359375q0.78125 -0.359375 1.34375 -0.953125q0.421875 -0.4375 0.671875 -1.0625q0.25 -0.640625 0.3125 -1.40625l-4.234375 0l0 -1.265625l5.5 0q0.078125 0.453125 0.078125 0.828125q0 1.0625 -0.34375 2.0625q-0.328125 1.0 -1.0625 1.75q-1.578125 1.703125 -4.203125 1.703125zm9.721146 0q-0.890625 0 -1.59375 -0.34375q-0.703125 -0.359375 -1.09375 -0.96875q-0.375 -0.625 -0.375 -1.40625q0 -1.296875 0.96875 -2.015625q0.984375 -0.734375 2.46875 -0.734375q0.734375 0 1.359375 0.171875q0.640625 0.15625 0.96875 0.359375l0 -0.5q0 -0.90625 -0.640625 -1.453125q-0.625 -0.5625 -1.609375 -0.5625q-0.671875 0 -1.265625 0.296875q-0.578125 0.296875 -0.90625 0.828125l-1.03125 -0.765625q0.484375 -0.734375 1.328125 -1.15625q0.859375 -0.421875 1.875 -0.421875q1.671875 0 2.609375 0.875q0.9375 0.875 0.9375 2.375l0 5.171875l-1.296875 0l0 -1.171875l-0.0625 0q-0.34375 0.59375 -1.046875 1.015625q-0.703125 0.40625 -1.59375 0.40625zm0.140625 -1.1875q0.6875 0 1.265625 -0.34375q0.59375 -0.359375 0.9375 -0.953125q0.359375 -0.59375 0.359375 -1.296875q-0.375 -0.265625 -0.9375 -0.421875q-0.5625 -0.15625 -1.1875 -0.15625q-1.109375 0 -1.6875 0.46875q-0.5625 0.453125 -0.5625 1.1875q0 0.671875 0.5 1.09375q0.515625 0.421875 1.3125 0.421875zm8.726624 1.0625q-0.5 0 -0.921875 -0.15625q-0.421875 -0.15625 -0.703125 -0.4375q-0.640625 -0.609375 -0.640625 -1.671875l0 -4.78125l-1.421875 0l0 -1.234375l1.421875 0l0 -2.3125l1.359375 0l0 2.3125l2.0 0l0 1.234375l-2.0 0l0 4.4375q0 0.671875 0.25 1.0q0.3125 0.34375 0.890625 0.34375q0.484375 0 0.890625 -0.265625l0 1.328125q-0.234375 0.109375 -0.484375 0.15625q-0.25 0.046875 -0.640625 0.046875zm6.0040283 0.125q-1.171875 0 -2.109375 -0.546875q-0.921875 -0.5625 -1.4375 -1.546875q-0.515625 -0.984375 -0.515625 -2.21875q0 -1.171875 0.484375 -2.171875q0.484375 -1.0 1.390625 -1.59375q0.90625 -0.59375 2.078125 -0.59375q1.203125 0 2.078125 0.546875q0.875 0.53125 1.34375 1.484375q0.484375 0.9375 0.484375 2.15625q0 0.1875 -0.03125 0.40625l-6.46875 0q0.046875 0.9375 0.4375 1.578125q0.40625 0.640625 1.015625 0.96875q0.625 0.3125 1.296875 0.3125q1.59375 0 2.421875 -1.484375l1.140625 0.5625q-0.5 0.984375 -1.421875 1.5625q-0.90625 0.578125 -2.1875 0.578125zm2.34375 -5.1875q-0.03125 -0.515625 -0.28125 -1.03125q-0.25 -0.515625 -0.796875 -0.859375q-0.546875 -0.359375 -1.375 -0.359375q-0.96875 0 -1.640625 0.625q-0.671875 0.609375 -0.875 1.625l4.96875 0zm1.972992 -3.21875l1.40625 0l1.9375 6.4375l0.015625 0l2.0625 -6.4375l1.390625 0l2.0625 6.421875l0.03125 0l1.921875 -6.421875l1.375 0l-2.625 8.15625l-1.390625 0l-2.109375 -6.515625l-2.09375 6.515625l-1.359375 0l-2.625 -8.15625zm15.772034 8.40625q-0.890625 0 -1.59375 -0.34375q-0.703125 -0.359375 -1.09375 -0.96875q-0.375 -0.625 -0.375 -1.40625q0 -1.296875 0.96875 -2.015625q0.984375 -0.734375 2.46875 -0.734375q0.734375 0 1.359375 0.171875q0.640625 0.15625 0.96875 0.359375l0 -0.5q0 -0.90625 -0.640625 -1.453125q-0.625 -0.5625 -1.609375 -0.5625q-0.671875 0 -1.265625 0.296875q-0.578125 0.296875 -0.90625 0.828125l-1.03125 -0.765625q0.484375 -0.734375 1.328125 -1.15625q0.859375 -0.421875 1.875 -0.421875q1.671875 0 2.609375 0.875q0.9375 0.875 0.9375 2.375l0 5.171875l-1.296875 0l0 -1.171875l-0.0625 0q-0.34375 0.59375 -1.046875 1.015625q-0.703125 0.40625 -1.59375 0.40625zm0.140625 -1.1875q0.6875 0 1.265625 -0.34375q0.59375 -0.359375 0.9375 -0.953125q0.359375 -0.59375 0.359375 -1.296875q-0.375 -0.265625 -0.9375 -0.421875q-0.5625 -0.15625 -1.1875 -0.15625q-1.109375 0 -1.6875 0.46875q-0.5625 0.453125 -0.5625 1.1875q0 0.671875 0.5 1.09375q0.515625 0.421875 1.3125 0.421875zm8.085999 0.421875l-3.375 -7.640625l1.46875 0l2.5625 6.0625l0.03125 0l2.46875 -6.0625l1.46875 0l-5.03125 11.609375l-1.40625 0l1.8125 -3.96875z"
       id="path58" />
    <path
       fill="#e6e6e6"
       fill-rule="evenodd"
       d="m472.93384 82.39491l-0.5769043 0.05962372l-1.049408 0.40106964l-0.75271606 0.8021469l-0.4670105 1.0297775l-0.05496216 0.57450867l0 63.000748l0.05496216 0.57450867l0.4670105 1.0297699l0.75271606 0.8021393l1.049408 0.40107727l0.5769043 0.05961609l124.78058 0l0.5769043 -0.05961609l1.0438843 -0.40107727l0.75823975 -0.8021393l0.46148682 -1.0297699l0.06048584 -0.57450867l0 -63.000748l-0.06048584 -0.57450867l-0.46148682 -1.0297775l-0.75823975 -0.8021469l-1.0438843 -0.40106964l-0.5769043 -0.05962372z"
       id="path59" />
    <path
       fill="#fff"
       fill-rule="evenodd"
       d="m481.64227 90.985435l-0.6373596 0.05961609l-1.0439148 0.40106964l-0.75271606 0.8021469l-0.4670105 1.0297775l0 0.57450867l0 45.819717l0 0.5744934l0.4670105 1.0297852l0.75271606 0.8021393l1.0439148 0.40107727l0.6373596 0.05419922l107.41864 0l0.58239746 -0.05419922l1.0439453 -0.40107727l0.75268555 -0.8021393l0.46704102 -1.0297852l0.05493164 -0.5744934l0 -45.819717l-0.05493164 -0.57450867l-0.46704102 -1.0297775l-0.75268555 -0.8021469l-1.0439453 -0.40106964l-0.58239746 -0.05961609z"
       id="path60" />
    <path
       fill="#466bb0"
       fill-rule="evenodd"
       d="m492.03745 131.53702l9.988586 4.9266815l16.60373 -4.9266815z"
       id="path61" />
    <path
       fill="#466bb0"
       fill-rule="evenodd"
       d="m502.02603 110.177246l-9.988586 19.701279l9.988586 -1.6638947l0 -18.037384z"
       id="path62" />
    <path
       fill="#476baf"
       fill-rule="evenodd"
       d="m503.65234 97.06113l0 31.153503l14.977417 1.6638947l-14.977417 -32.817398z"
       id="path63" />
    <path
       fill="#000"
       fill-opacity="0"
       fill-rule="evenodd"
       d="m510.47546 102.486435l81.4837 0l0 28.547226l-81.4837 0z"
       id="path64" />
    <path
       fill="#000"
       fill-rule="nonzero"
       d="m532.47455 120.66692l1.359375 0l0 11.453133l-1.359375 0l0 -11.453133zm6.498108 11.703133q-1.3125 0 -2.203125 -0.609375q-0.875 -0.609375 -1.234375 -1.578125l1.203125 -0.546875q0.3125 0.734375 0.90625 1.140625q0.609375 0.40625 1.328125 0.40625q0.765625 0 1.3125 -0.3125q0.546875 -0.3125 0.546875 -0.890625q0 -0.515625 -0.4375 -0.828125q-0.4375 -0.3125 -1.359375 -0.53125l-1.0 -0.265625q-0.96875 -0.234375 -1.59375 -0.8125076q-0.625 -0.578125 -0.625 -1.484375q0 -0.703125 0.421875 -1.234375q0.421875 -0.546875 1.125 -0.828125q0.703125 -0.296875 1.53125 -0.296875q1.0625 0 1.90625 0.46875q0.84375 0.46875 1.1875 1.296875l-1.171875 0.546875q-0.546875 -1.09375 -1.9375 -1.09375q-0.671875 0 -1.1875 0.3125q-0.5 0.3125 -0.5 0.796875q0 0.453125 0.34375 0.734375q0.359375 0.265625 1.0625 0.453125l1.1875 0.296875q1.203125 0.3125 1.8125 0.9062576q0.609375 0.59375 0.609375 1.46875q0 0.75 -0.4375 1.3125q-0.4375 0.5625 -1.171875 0.875q-0.734375 0.296875 -1.625 0.296875zm7.769287 -0.125q-0.5 0 -0.921875 -0.15625q-0.421875 -0.15625 -0.703125 -0.4375q-0.640625 -0.609375 -0.640625 -1.671875l0 -4.7812576l-1.421875 0l0 -1.234375l1.421875 0l0 -2.3125l1.359375 0l0 2.3125l2.0 0l0 1.234375l-2.0 0l0 4.4375076q0 0.671875 0.25 1.0q0.3125 0.34375 0.890625 0.34375q0.484375 0 0.890625 -0.265625l0 1.328125q-0.234375 0.109375 -0.484375 0.15625q-0.25 0.046875 -0.640625 0.046875zm3.6078491 -9.781258q-0.40625 0 -0.703125 -0.28125q-0.28125 -0.296875 -0.28125 -0.703125q0 -0.421875 0.28125 -0.6875q0.296875 -0.28125 0.703125 -0.28125q0.40625 0 0.6875 0.28125q0.28125 0.265625 0.28125 0.6875q0 0.40625 -0.28125 0.703125q-0.28125 0.28125 -0.6875 0.28125zm-0.671875 1.5l1.359375 0l0 8.156258l-1.359375 0l0 -8.156258zm7.1610107 8.406258q-1.203125 0 -2.171875 -0.5625q-0.953125 -0.578125 -1.484375 -1.5625q-0.53125 -1.0 -0.53125 -2.203125q0 -1.2031326 0.53125 -2.1875076q0.53125 -1.0 1.484375 -1.578125q0.96875 -0.578125 2.171875 -0.578125q1.203125 0 2.15625 0.578125q0.96875 0.578125 1.5 1.578125q0.53125 0.984375 0.53125 2.1875076q0 1.203125 -0.53125 2.203125q-0.53125 0.984375 -1.5 1.5625q-0.953125 0.5625 -2.15625 0.5625zm0 -1.21875q0.75 0 1.390625 -0.375q0.65625 -0.390625 1.046875 -1.09375q0.390625 -0.703125 0.390625 -1.640625q0 -0.9531326 -0.390625 -1.6562576q-0.390625 -0.703125 -1.046875 -1.078125q-0.640625 -0.375 -1.390625 -0.375q-0.75 0 -1.40625 0.375q-0.65625 0.375 -1.046875 1.078125q-0.390625 0.703125 -0.390625 1.6562576q0 0.9375 0.390625 1.640625q0.390625 0.703125 1.046875 1.09375q0.65625 0.375 1.40625 0.375zm9.254822 1.21875q-1.109375 0 -2.0 -0.546875q-0.890625 -0.5625 -1.40625 -1.546875q-0.5 -0.984375 -0.5 -2.234375q0 -1.2343826 0.5 -2.2187576q0.515625 -1.0 1.40625 -1.5625q0.890625 -0.5625 2.0 -0.5625q0.921875 0 1.65625 0.4375q0.734375 0.421875 1.125 1.046875l0.0625 0l-0.0625 -1.140625l0 -3.375l1.359375 0l0 11.453133l-1.296875 0l0 -1.203125l-0.0625 0q-0.390625 0.609375 -1.125 1.03125q-0.734375 0.421875 -1.65625 0.421875zm0.140625 -1.21875q0.71875 0 1.328125 -0.390625q0.625 -0.390625 1.0 -1.09375q0.375 -0.703125 0.375 -1.625q0 -0.9375076 -0.375 -1.6406326q-0.375 -0.703125 -1.0 -1.078125q-0.609375 -0.390625 -1.328125 -0.390625q-0.703125 0 -1.328125 0.390625q-0.625 0.375 -1.0 1.09375q-0.375 0.71875 -0.375 1.6250076q0 0.90625 0.375 1.625q0.375 0.703125 1.0 1.09375q0.625 0.390625 1.328125 0.390625z"
       id="path66" />
    <path
       fill="#e6e6e6"
       fill-rule="evenodd"
       d="m470.78586 186.95891l-0.57733154 0.060836792l-1.0501709 0.40930176l-0.7532654 0.8186035l-0.4673767 1.0509033l-0.05496216 0.5863037l0 64.29343l0.05496216 0.5863037l0.4673767 1.0509033l0.7532654 0.8186035l1.0501709 0.40930176l0.57733154 0.06085205l124.87204 0l0.57733154 -0.06085205l1.0446777 -0.40930176l0.75878906 -0.8186035l0.46185303 -1.0509033l0.06048584 -0.5863037l0 -64.29343l-0.06048584 -0.5863037l-0.46185303 -1.0509033l-0.75878906 -0.8186035l-1.0446777 -0.40930176l-0.57733154 -0.060836792z"
       id="path67" />
    <path
       fill="#fff"
       fill-rule="evenodd"
       d="m478.49432 195.72812l-0.6470642 0.060836792l-1.0598755 0.4092865l-0.7641907 0.81855774l-0.4741516 1.0508575l0 0.5862732l0 46.757477l0 0.5862732l0.4741516 1.0508423l0.7641907 0.818573l1.0598755 0.40927124l0.6470642 0.05531311l109.059814 0l0.5913086 -0.05531311l1.0598145 -0.40927124l0.7642212 -0.818573l0.47418213 -1.0508423l0.055786133 -0.5862732l0 -46.757477l-0.055786133 -0.5862732l-0.47418213 -1.0508575l-0.7642212 -0.81855774l-1.0598145 -0.4092865l-0.5913086 -0.060836792z"
       id="path68" />
    <path
       fill="#466bb0"
       fill-rule="evenodd"
       d="m487.2533 237.11052l8.792999 5.027771l14.616272 -5.027771z"
       id="path69" />
    <path
       fill="#466bb0"
       fill-rule="evenodd"
       d="m496.0463 215.31248l-8.792999 20.105515l8.792999 -1.6980438l0 -18.40747z"
       id="path70" />
    <path
       fill="#476baf"
       fill-rule="evenodd"
       d="m497.47794 201.92723l0 31.792725l13.184631 1.6980438l-13.184631 -33.49077z"
       id="path71" />
    <path
       fill="#000"
       fill-opacity="0"
       fill-rule="evenodd"
       d="m503.48404 207.46648l85.219635 0l0 29.13298l-85.219635 0z"
       id="path72" />
    <path
       fill="#000"
       fill-rule="nonzero"
       d="m520.59 228.14296q-1.609375 0 -2.984375 -0.78125q-1.359375 -0.78125 -2.15625 -2.15625q-0.796875 -1.375 -0.796875 -3.046875q0 -1.65625 0.796875 -3.03125q0.796875 -1.375 2.15625 -2.15625q1.375 -0.796875 2.984375 -0.796875q1.265625 0 2.375 0.453125q1.109375 0.453125 1.828125 1.265625l-0.953125 0.96875q-0.5625 -0.671875 -1.421875 -1.03125q-0.84375 -0.359375 -1.8125 -0.359375q-1.203125 0 -2.265625 0.59375q-1.046875 0.578125 -1.6875 1.640625q-0.625 1.0625 -0.625 2.453125q0 1.390625 0.625 2.46875q0.640625 1.0625 1.6875 1.640625q1.0625 0.578125 2.265625 0.578125q1.15625 0 1.921875 -0.359375q0.78125 -0.359375 1.34375 -0.953125q0.421875 -0.4375 0.671875 -1.0625q0.25 -0.640625 0.3125 -1.40625l-4.234375 0l0 -1.265625l5.5 0q0.078125 0.453125 0.078125 0.828125q0 1.0625 -0.34375 2.0625q-0.328125 1.0 -1.0625 1.75q-1.578125 1.703125 -4.203125 1.703125zm9.721191 0q-0.890625 0 -1.59375 -0.34375q-0.703125 -0.359375 -1.09375 -0.96875q-0.375 -0.625 -0.375 -1.40625q0 -1.296875 0.96875 -2.015625q0.984375 -0.734375 2.46875 -0.734375q0.734375 0 1.359375 0.171875q0.640625 0.15625 0.96875 0.359375l0 -0.5q0 -0.90625 -0.640625 -1.453125q-0.625 -0.5625 -1.609375 -0.5625q-0.671875 0 -1.265625 0.296875q-0.578125 0.296875 -0.90625 0.828125l-1.03125 -0.765625q0.484375 -0.734375 1.328125 -1.15625q0.859375 -0.421875 1.875 -0.421875q1.671875 0 2.609375 0.875q0.9375 0.875 0.9375 2.375l0 5.171875l-1.296875 0l0 -1.171875l-0.0625 0q-0.34375 0.59375 -1.046875 1.015625q-0.703125 0.40625 -1.59375 0.40625zm0.140625 -1.1875q0.6875 0 1.265625 -0.34375q0.59375 -0.359375 0.9375 -0.953125q0.359375 -0.59375 0.359375 -1.296875q-0.375 -0.265625 -0.9375 -0.421875q-0.5625 -0.15625 -1.1875 -0.15625q-1.109375 0 -1.6875 0.46875q-0.5625 0.453125 -0.5625 1.1875q0 0.671875 0.5 1.09375q0.515625 0.421875 1.3125 0.421875zm8.726624 1.0625q-0.5 0 -0.921875 -0.15625q-0.421875 -0.15625 -0.703125 -0.4375q-0.640625 -0.609375 -0.640625 -1.671875l0 -4.78125l-1.421875 0l0 -1.234375l1.421875 0l0 -2.3125l1.359375 0l0 2.3125l2.0 0l0 1.234375l-2.0 0l0 4.4375q0 0.671875 0.25 1.0q0.3125 0.34375 0.890625 0.34375q0.484375 0 0.890625 -0.265625l0 1.328125q-0.234375 0.109375 -0.484375 0.15625q-0.25 0.046875 -0.640625 0.046875zm6.0040283 0.125q-1.171875 0 -2.109375 -0.546875q-0.921875 -0.5625 -1.4375 -1.546875q-0.515625 -0.984375 -0.515625 -2.21875q0 -1.171875 0.484375 -2.171875q0.484375 -1.0 1.390625 -1.59375q0.90625 -0.59375 2.078125 -0.59375q1.203125 0 2.078125 0.546875q0.875 0.53125 1.34375 1.484375q0.484375 0.9375 0.484375 2.15625q0 0.1875 -0.03125 0.40625l-6.46875 0q0.046875 0.9375 0.4375 1.578125q0.40625 0.640625 1.015625 0.96875q0.625 0.3125 1.296875 0.3125q1.59375 0 2.421875 -1.484375l1.140625 0.5625q-0.5 0.984375 -1.421875 1.5625q-0.90625 0.578125 -2.1875 0.578125zm2.34375 -5.1875q-0.03125 -0.515625 -0.28125 -1.03125q-0.25 -0.515625 -0.796875 -0.859375q-0.546875 -0.359375 -1.375 -0.359375q-0.96875 0 -1.640625 0.625q-0.671875 0.609375 -0.875 1.625l4.96875 0zm1.9729614 -3.21875l1.40625 0l1.9375 6.4375l0.015625 0l2.0625 -6.4375l1.390625 0l2.0625 6.421875l0.03125 0l1.921875 -6.421875l1.375 0l-2.625 8.15625l-1.390625 0l-2.109375 -6.515625l-2.09375 6.515625l-1.359375 0l-2.625 -8.15625zm15.772034 8.40625q-0.890625 0 -1.59375 -0.34375q-0.703125 -0.359375 -1.09375 -0.96875q-0.375 -0.625 -0.375 -1.40625q0 -1.296875 0.96875 -2.015625q0.984375 -0.734375 2.46875 -0.734375q0.734375 0 1.359375 0.171875q0.640625 0.15625 0.96875 0.359375l0 -0.5q0 -0.90625 -0.640625 -1.453125q-0.625 -0.5625 -1.609375 -0.5625q-0.671875 0 -1.265625 0.296875q-0.578125 0.296875 -0.90625 0.828125l-1.03125 -0.765625q0.484375 -0.734375 1.328125 -1.15625q0.859375 -0.421875 1.875 -0.421875q1.671875 0 2.609375 0.875q0.9375 0.875 0.9375 2.375l0 5.171875l-1.296875 0l0 -1.171875l-0.0625 0q-0.34375 0.59375 -1.046875 1.015625q-0.703125 0.40625 -1.59375 0.40625zm0.140625 -1.1875q0.6875 0 1.265625 -0.34375q0.59375 -0.359375 0.9375 -0.953125q0.359375 -0.59375 0.359375 -1.296875q-0.375 -0.265625 -0.9375 -0.421875q-0.5625 -0.15625 -1.1875 -0.15625q-1.109375 0 -1.6875 0.46875q-0.5625 0.453125 -0.5625 1.1875q0 0.671875 0.5 1.09375q0.515625 0.421875 1.3125 0.421875zm8.085999 0.421875l-3.375 -7.640625l1.46875 0l2.5625 6.0625l0.03125 0l2.46875 -6.0625l1.46875 0l-5.03125 11.609375l-1.40625 0l1.8125 -3.96875z"
       id="path73" />
    <path
       fill="#000"
       fill-opacity="0"
       fill-rule="evenodd"
       d="m314.19537 464.8007l77.036316 0l0 0.06298828l77.04245 0"
       id="path74" />
    <path
       fill-rule="evenodd"
       stroke="#008200"
       stroke-linecap="butt"
       stroke-linejoin="round"
       stroke-width="2"
       d="m314.1954 464.8007l77.036255 0l0 0.06298828l70.18829 0"
       id="path75" />
    <path
       fill="#008200"
       fill-rule="evenodd"
       stroke="#008200"
       stroke-linecap="butt"
       stroke-width="2"
       d="m461.41995 464.86368l-2.249176 2.249176l6.179535 -2.249176l-6.179535 -2.249176z"
       id="path76" />
    <path
       fill="#000"
       fill-opacity="0"
       fill-rule="evenodd"
       d="m729.5419 437.585l0 -320.8189l-137.57477 0"
       id="path77" />
    <path
       fill-rule="evenodd"
       stroke="#46f"
       stroke-dasharray="8 6"
       stroke-linecap="butt"
       stroke-linejoin="round"
       stroke-width="2"
       d="m729.54193 430.7308l0 -313.96472l-137.57483 0"
       id="path78" />
    <path
       fill="#46f"
       fill-rule="evenodd"
       stroke="#46f"
       stroke-linecap="butt"
       stroke-width="2"
       d="m729.54193 430.7308l-2.2492065 -2.249176l2.2492065 6.179535l2.2491455 -6.179535z"
       id="path79" />
    <path
       fill="#000"
       fill-opacity="0"
       fill-rule="evenodd"
       d="m532.3944 259.1168l0 89.82678l-1.102356 0l0 89.82678"
       id="path80" />
    <path
       fill-rule="evenodd"
       stroke="#46f"
       stroke-dasharray="8 6"
       stroke-linecap="butt"
       stroke-linejoin="round"
       stroke-width="2"
       d="m532.3944 265.97098l0 82.972595l-1.102356 0l0 89.82678"
       id="path81" />
    <path
       fill="#46f"
       fill-rule="evenodd"
       stroke="#46f"
       stroke-linecap="butt"
       stroke-width="2"
       d="m532.3944 265.97098l2.2491455 2.2491455l-2.2491455 -6.179535l-2.2492065 6.179535z"
       id="path82" />
    <path
       fill="#000"
       fill-opacity="0"
       fill-rule="evenodd"
       d="m537.53284 186.96063l0 -33.669296"
       id="path83" />
    <path
       fill-rule="evenodd"
       stroke="#46f"
       stroke-dasharray="8 6"
       stroke-linecap="butt"
       stroke-linejoin="round"
       stroke-width="2"
       d="m537.53284 186.96063l0 -26.81511"
       id="path84" />
    <path
       fill="#46f"
       fill-rule="evenodd"
       stroke="#46f"
       stroke-linecap="butt"
       stroke-width="2"
       d="m537.53284 160.14551l2.2491455 2.249176l-2.2491455 -6.179535l-2.2492065 6.179535z"
       id="path85" />
    <path
       fill="#000"
       fill-opacity="0"
       fill-rule="evenodd"
       d="m85.19539 464.76788l54.18898 0l0 -0.12600708l54.188965 0"
       id="path86" />
    <path
       fill-rule="evenodd"
       stroke="#008200"
       stroke-linecap="butt"
       stroke-linejoin="round"
       stroke-width="2"
       d="m85.19539 464.76788l54.188965 0l0 -0.12597656l47.334824 0"
       id="path87" />
    <path
       fill="#008200"
       fill-rule="evenodd"
       stroke="#008200"
       stroke-linecap="butt"
       stroke-width="2"
       d="m186.71918 464.6419l-2.249176 2.2491455l6.179535 -2.2491455l-6.179535 -2.249176z"
       id="path88" />
    <text
       xml:space="preserve"
       style="font-size:14.6667px;font-family:'Open Sans';-inkscape-font-specification:'Open Sans';text-align:center;text-anchor:middle;fill:#0000ff;stroke:#000000;stroke-opacity:0"
       x="512.06769"
       y="52.67947"
       id="text88"><tspan
         sodipodi:role="line"
         id="tspan88"
         x="512.06769"
         y="52.67947"
         style="fill:#000000">集群: external_cluster</tspan></text>
    <text
       xml:space="preserve"
       style="font-size:14.6667px;font-family:'Open Sans';-inkscape-font-specification:'Open Sans';text-align:center;text-anchor:middle;fill:#1c53b8;fill-opacity:0.741176;stroke:#000000;stroke-opacity:0"
       x="699.84943"
       y="110.33079"
       id="text88-7"><tspan
         sodipodi:role="line"
         id="tspan88-9"
         x="699.84943"
         y="110.33079"
         style="fill:#1c53b8;fill-opacity:0.741176">配置/端点</tspan></text>
    <text
       xml:space="preserve"
       style="font-size:14.6667px;font-family:'Open Sans';-inkscape-font-specification:'Open Sans';text-align:center;text-anchor:middle;fill:#0000ff;stroke:#000000;stroke-opacity:0"
       x="550.53448"
       y="112.55164"
       id="text88-5"><tspan
         sodipodi:role="line"
         id="tspan88-3"
         x="550.53448"
         y="112.55164"
         style="fill:#000000">外部</tspan></text>
    <text
       xml:space="preserve"
       style="font-size:14.6667px;font-family:'Open Sans';-inkscape-font-specification:'Open Sans';text-align:center;text-anchor:middle;fill:#0000ff;stroke:#000000;stroke-opacity:0"
       x="340.41068"
       y="353.41098"
       id="text88-4"><tspan
         sodipodi:role="line"
         id="tspan88-6"
         x="340.41068"
         y="353.41098"
         style="fill:#000000">集群: remote_cluster</tspan></text>
    <text
       xml:space="preserve"
       style="font-size:14.6667px;font-family:'Open Sans';-inkscape-font-specification:'Open Sans';text-align:center;text-anchor:middle;fill:#0000ff;stroke:#000000;stroke-opacity:0"
       x="727.12604"
       y="468.88937"
       id="text88-4-6"><tspan
         sodipodi:role="line"
         id="tspan88-6-2"
         x="727.12604"
         y="468.88937"
         style="fill:#000000">API Server</tspan></text>
    <text
       xml:space="preserve"
       style="font-size:14.6667px;font-family:'Open Sans';-inkscape-font-specification:'Open Sans';text-align:center;text-anchor:middle;fill:#0000ff;stroke:#000000;stroke-opacity:0"
       x="206.14233"
       y="302.12393"
       id="text88-8"><tspan
         sodipodi:role="line"
         id="tspan88-7"
         x="206.14233"
         y="302.12393"
         style="fill:#000000">网格: mesh1</tspan></text>
  </g>
</svg>
