<svg xmlns="http://www.w3.org/2000/svg" viewBox="0 0 521.6 446.5"><path d="M163.8 209.3c0-5.7 4.4-9.9 9.9-9.9s9.9 4.3 9.9 9.9c0 5.7-4.4 9.9-9.9 9.9s-9.9-4.3-9.9-9.9zm17.6-17.8c0 5.7 4.4 9.9 9.9 9.9s9.9-4.3 9.9-9.9c0-5.7-4.4-9.9-9.9-9.9s-9.9 4.2-9.9 9.9zm24.1-12.1v17.8c13.9 0 24.8 11.3 24.8 26.1s-11 26.1-24.8 26.1c-13.9 0-24.8-11.3-24.8-26.1h-19.4c0 24.6 19.6 43.9 44.2 43.9s44.2-19.3 44.2-43.9c0-24.6-19.6-43.9-44.2-43.9zM405 346.3v-16.9h31.3v-16.9H405v-16.6h34.5v-17H386v84.3h54v-17h-35zm-30.3-25.2c0 24.2-18.5 42.1-44.6 42.1h-27.8v-84.4h27.8c26.1 0 44.6 18.1 44.6 42.3zm-19.4 0c0-14.4-9.6-25.3-23.7-25.3h-10.4v50.5h10.4c14.1 0 23.7-10.8 23.7-25.2zm-126.9 9.7c0 9.7-6.9 16.9-16.4 16.9-9.5 0-16.4-7.2-16.4-16.9V279h-18.8v51.5c0 19.9 14.9 34.5 35.2 34.5 20.3 0 35.2-14.7 35.2-34.5V279h-18.8v51.8zM119 332.5h18.7c-1.7 8.7-9.4 15.4-18.6 15.4-10.3 0-18.6-8.3-18.6-20.4V315c0-11.9 8.9-20.7 21.4-20.7 9.7 0 18.4 5.3 21.2 13l17.5-6.1c-4.8-14.8-20.6-24-38.7-24C99 277.2 82 292.6 82 315v12.5c.1 21.5 16 37.5 35.6 37.5 12.2 0 23-6.2 29.3-15.8v14.1h16.6v-46.9H119v16.1zm212.7-99.9v-51.5h-18.8v51.8c0 9.7-6.9 16.9-16.4 16.9-9.5 0-16.4-7.2-16.4-16.9v-51.8h-18.8v51.5c0 19.9 14.9 34.5 35.2 34.5 20.3 0 35.2-14.6 35.2-34.5zm-218.4 32.8h18.9v-32l31.7-52.3h-21.4l-20 34.5-19.7-34.5H81.5l31.7 52.5v31.8zM303.2 83.2h-64v17h64v-17zm-72.1 67.3H196v-16.9h31.3v-16.9H196v-16.6h34.5v-17H177v84.3h54v-16.9zm-113.5 18.8c12.2 0 23-6.2 29.3-15.8v14.1h16.6v-46.9H119v16.2h18.7c-1.7 8.7-9.4 15.4-18.6 15.4-10.3 0-18.6-8.3-18.6-20.4v-12.5c0-11.9 8.9-20.7 21.4-20.7 9.7 0 18.4 5.3 21.2 13l17.5-6.1c-4.8-14.8-20.6-24-38.7-24C99 81.6 82 97 82 119.4v12.5c.1 21.4 16 37.4 35.6 37.4zm257.2 74.8l-9.8-10.3 9.7-10.5-9.8-10.3 9.7-10.5-9.8-10.3 10.8-11.1H356l-10.6 11.2 9.8 10.3-9.7 10.5 9.8 10.3-9.7 10.5 9.8 10.3-9.7 10.5 10.4 10.8h19.7l-10.6-10.9 9.6-10.5zm-91.9 74.5c2.8-2.5 7.5-6.7 7.5-14.5 0-7.7-4.7-12-7.5-14.5l-.3-.3c-1.4-1.5-1.6-3.6-1.7-4.6v-5.9h-19v8.2c0 7.7 4.7 12 7.5 14.5 2 1.8 2 1.9 2 2.6 0 .7 0 .8-2 2.6-2.7 2.4-7.1 6.4-7.4 13.6v1.2c.3 7.2 4.8 11.2 7.4 13.6 2 1.8 2 1.9 2 2.6 0 .7 0 .8-2 2.6-2.8 2.5-7.5 6.7-7.5 14.5v8.2h19v-5.9c0-1 .3-3.1 1.7-4.6l.3-.3c2.8-2.5 7.5-6.7 7.5-14.5 0-7.7-4.7-12-7.5-14.5-1.8-1.6-2-1.9-2-2.4.1-.3.3-.6 2-2.2zm-21.2-151.1h18.9v-15.7h-18.9v15.7zm19-38.1h-18.9v15.7h18.9v-15.7zm0-22.5h-18.9v15.7h18.9v-15.7zM424 265.4l-23-32.2c11.2-3.5 19-13.3 19-25.3 0-15.2-12.6-26.8-28.5-26.8h-11.1v17.1h10.4c5.5 0 9.8 4.4 9.8 10.2 0 5.8-4.3 10.2-9.8 10.2h-10.4v16.2l20.6 30.7h23z" fill="#f53"/></svg>