<svg data-name="图层 1" xmlns="http://www.w3.org/2000/svg" viewBox="0 0 447.89 69.35"><path d="M50.59 47.82a20.58 20.58 0 01-16.25 7.52 20.66 20.66 0 1116.25-33.8 1.07 1.07 0 001.45.2l9.57-7.14a1.06 1.06 0 00.2-1.5 34.68 34.68 0 100 43.16 1 1 0 00-.2-1.49l-9.57-7.14a1.05 1.05 0 00-1.45.19zm222.55 19.89V50.5a.64.64 0 01.63-.65h3l-20.82-15.83a.72.72 0 00-.88 0l-20.73 15.76 3 .06a.65.65 0 01.63.65v17.22a.63.63 0 01-.64.63h-12.76a.63.63 0 01-.64-.63V1.62a.63.63 0 01.64-.64h12.73a.63.63 0 01.64.64v28.5l16.94-12.86a1.05 1.05 0 011.3 0l17 12.86V1.62a.63.63 0 01.64-.64h12.73a.63.63 0 01.64.64v66.09a.63.63 0 01-.64.63h-12.77a.63.63 0 01-.64-.63zM179.95 0a34.68 34.68 0 1034.67 34.68A34.72 34.72 0 00179.95 0zm0 55.35a20.67 20.67 0 1120.7-20.67 20.69 20.69 0 01-20.7 20.67zM331.09 0a34.68 34.68 0 1034.68 34.68A34.71 34.71 0 00331.09 0zm0 55.35a20.67 20.67 0 1120.67-20.67 20.69 20.69 0 01-20.67 20.67zM101.37 0a34.68 34.68 0 1034.67 34.68A34.72 34.72 0 00101.37 0zm0 55.35a20.67 20.67 0 1120.66-20.67 20.69 20.69 0 01-20.66 20.67zm346.52 11.61l-11.72-64.7a.76.76 0 00-.75-.61h-12.76a.86.86 0 00-.82.6L409.47 44 397.1 2.26a.85.85 0 00-.81-.6h-12.77a.74.74 0 00-.74.61l-11.72 64.69a.65.65 0 00.64.75h12.65a.74.74 0 00.72-.59l6.53-36.08 10.67 33.59a.87.87 0 00.83.61h12.74a.86.86 0 00.83-.61l10.68-33.59 6.53 36.08a.72.72 0 00.72.59h12.64a.65.65 0 00.65-.75z" fill="#1a7aeb"/></svg>