<svg xmlns="http://www.w3.org/2000/svg" xmlns:svg="http://www.w3.org/2000/svg" id="svg6" width="400" height="87" version="1.1" viewBox="0 0 400 87"><metadata id="metadata12"/><path id="path2" d="m 213.85027,60.996911 c -4.34709,4.416687 -9.54769,6.636918 -15.5745,6.636918 -4.87416,0 -9.01588,-0.994824 -13.24308,-3.453954 V 54.05453 c 3.40099,2.309374 7.67329,4.50821 11.88624,4.50821 8.79152,0 14.02418,-6.058091 14.02418,-14.643059 0,-8.592101 -5.4119,-14.829663 -14.20699,-14.829663 -3.92805,0 -7.1118,1.414385 -9.59873,4.247913 -2.66619,3.070049 -4.04439,7.458214 -4.04439,13.259574 v 39.981972 h -0.66239 c -4.84567,0 -8.77134,-3.931757 -8.77134,-8.78227 V 45.097545 c 0,-13.87644 8.47219,-25.079807 23.03412,-25.079807 7.19015,0 13.0294,2.461508 17.45721,7.407106 4.16309,4.621122 6.22624,10.475967 6.22624,17.521753 0,6.269653 -2.1771,11.631246 -6.52657,16.050314 z m 102.1412,-0.33874 c -4.33046,4.6544 -9.90262,6.975658 -16.6583,6.975658 -7.132,0 -12.94274,-2.461507 -17.36582,-7.407106 -4.16072,-4.678173 -6.22505,-10.537773 -6.22505,-17.520562 0,-12.359836 9.52752,-22.688423 22.06545,-22.688423 4.83619,0 9.03489,1.022162 13.27751,3.351739 v 10.228748 c -3.40099,-2.309371 -7.6721,-4.508207 -11.88504,-4.508207 -8.79154,0 -14.02656,6.0569 -14.02656,14.645434 0,8.470867 5.53891,14.827288 14.20579,14.827288 3.92451,0 7.15691,-1.472627 9.74237,-4.439271 2.56884,-2.947629 3.90431,-7.278743 3.90431,-13.096745 V 9.2030305 c 0,-4.851702 3.92806,-8.78227 8.77135,-8.78227 h 0.6624 V 42.519555 c 0,7.414237 -2.14269,13.483025 -6.46841,18.138616 z m 26.63928,-45.134379 c -0.99001,1.110116 -2.40859,1.621196 -4.14053,1.621196 -3.23836,0 -5.55554,-2.391382 -5.55554,-5.608815 0,-3.2934991 2.27445,-5.5161064 5.55554,-5.5161064 3.15764,0 5.55553,2.3438407 5.55553,5.5161064 0,1.5689 -0.4594,2.91435 -1.415,3.987619 z m 47.93315,25.502932 c 0,-3.723758 -1.40669,-6.671387 -4.23314,-8.90469 -2.54628,-2.009855 -5.72648,-3.032016 -9.59634,-3.032016 -8.53869,0 -14.02063,6.68327 -14.02063,14.923557 0,7.931261 5.81077,14.549165 13.9304,14.549165 5.64812,0 8.66807,-3.303009 11.88861,-7.417803 v 11.864207 c -1.64056,1.231348 -3.52801,2.573231 -5.45464,3.361246 -2.03346,0.84982 -4.46106,1.263439 -7.26493,1.263439 -13.57902,0 -22.53316,-11.260418 -22.53316,-24.272772 0,-6.682084 2.07264,-12.206511 6.2464,-16.513853 4.42783,-4.565259 10.23622,-6.829466 17.34683,-6.829466 13.48167,0 23.1267,7.7506 23.1267,21.755402 v 24.927671 h -0.66002 c -4.84802,0 -8.77608,-3.931757 -8.77608,-8.783459 z M 261.42373,38.351277 c -1.19183,-3.691667 -2.68637,-5.507789 -6.12415,-7.429691 -8.17543,-4.573577 -16.22147,-0.679854 -19.96433,7.394033 z m -7.19846,29.143492 c -6.02563,1.282455 -11.93847,0.293572 -17.7065,-2.934555 -5.62795,-3.14612 -9.39575,-7.825479 -11.28439,-14.00837 -3.81884,-12.50484 4.00402,-26.439517 16.58589,-29.813839 6.23693,-1.672304 12.21625,-0.915191 17.89762,2.263019 9.43611,5.28196 12.87508,13.450933 12.27442,23.97682 l -38.00677,-0.07606 c 0.5603,4.293078 3.21817,7.651949 6.95511,9.741439 3.78797,2.119202 7.27087,2.62553 10.50091,1.622384 3.58855,-1.127943 6.49927,-4.060121 8.86631,-6.789055 l 7.74571,5.650415 c -3.15883,5.659923 -7.45962,9.010473 -13.82831,10.367807 z m 79.54868,-46.542823 h 9.43253 v 45.748865 h -0.66357 c -4.84093,0 -8.76896,-3.931757 -8.76896,-8.783459 z M 13.805752,66.700572 C 4.5785714,66.700572 0,60.416657 0,51.641516 V 18.348762 C 0,13.498249 3.928051,9.5664921 8.7725286,9.5664921 H 9.4349199 V 20.951708 H 25.373857 v 9.072279 H 9.4349199 v 22.668218 c 0,3.8545 1.7177061,4.937278 5.3964701,4.937278 h 10.542467 v 9.071089 z m 54.787349,-5.782345 c -4.660479,4.47374 -10.262314,6.715364 -16.769892,6.715364 -6.447039,0 -12.016821,-2.244001 -16.677301,-6.715364 -4.675914,-4.490378 -7.00734,-10.204974 -7.00734,-17.091493 0,-13.435482 10.246884,-23.808045 23.684641,-23.808045 6.44941,0 12.034627,2.260641 16.723598,6.765284 4.705588,4.517717 7.056008,10.215673 7.056008,17.042761 0,6.886519 -2.333802,12.601115 -7.009714,17.091493 z M 112.6991,31.960152 c -1.38414,2.323633 -2.45726,3.989996 -3.21224,4.996706 -0.83215,1.094663 -1.65361,1.969445 -2.46795,2.57442 6.55625,2.120393 8.99808,6.667821 8.99808,13.442614 v 13.72668 h -0.66239 c -4.84448,0 -8.77253,-3.931757 -8.77253,-8.783459 v -4.011389 c 0,-4.386976 -1.96462,-7.36313 -6.607294,-7.36313 H 91.407611 V 66.700572 H 90.74522 c -4.844476,0 -8.768967,-3.931757 -8.768967,-8.783459 V 9.2027927 c 0,-4.8517019 3.924491,-8.78226991 8.768967,-8.78226991 h 0.662391 V 37.377607 h 2.788454 c 3.063858,0 5.077146,-1.049497 6.233365,-3.034394 l 7.92376,-13.389127 10.74902,-0.0107 z m 48.69762,28.958075 c -4.66167,4.47374 -10.2635,6.715364 -16.77108,6.715364 -6.44585,0 -12.01563,-2.244001 -16.6773,-6.715364 -4.67591,-4.490378 -7.00734,-10.204974 -7.00734,-17.091493 0,-13.435482 10.24688,-23.808045 23.68464,-23.808045 6.4506,0 12.03463,2.260641 16.72478,6.765284 4.7056,4.517717 7.05483,10.215673 7.05483,17.042761 0,6.886519 -2.33262,12.601115 -7.00853,17.091493 z m -6.8091,-27.738612 c -2.60089,-2.722993 -5.90216,-4.089835 -9.96198,-4.089835 -8.68112,0 -13.87816,6.3374 -13.87816,14.736954 0,8.283075 5.32049,14.735768 13.87816,14.735768 8.56123,0 13.87935,-6.452693 13.87935,-14.735768 0,-4.397672 -1.32003,-7.926506 -3.91737,-10.647119 z m -92.803616,0 c -2.599705,-2.722993 -5.902167,-4.089835 -9.960795,-4.089835 -8.681124,0 -13.878165,6.3374 -13.878165,14.736954 0,8.283075 5.320496,14.735768 13.878165,14.735768 8.56004,0 13.878165,-6.452693 13.878165,-14.735768 0,-4.397672 -1.318848,-7.926506 -3.91737,-10.647119 z" style="fill:#42b549;fill-rule:evenodd;stroke-width:2.83720779"/></svg>