<svg xmlns="http://www.w3.org/2000/svg" xmlns:xlink="http://www.w3.org/1999/xlink" id="Layer_1" x="0" y="0" version="1.1" viewBox="0 0 640 480" xml:space="preserve" style="enable-background:new 0 0 640 480"><style type="text/css">.st0,.st1{fill:#d8d8d8;stroke:#000;stroke-miterlimit:10}.st1{fill:none}.st2{font-family:&apos;ArialMT&apos;}.st3{font-size:18px}.st4{fill:#efefef;stroke:#020000;stroke-miterlimit:10}.st5{font-size:24px}.st6{font-size:14px}.st7{fill:none;stroke:#020000;stroke-width:.75;stroke-miterlimit:10}.st8{fill:#020000}.st9{fill:none;stroke:#020000;stroke-miterlimit:10}</style><path d="M381.2,166.5H265.5c-6.6,0-12-5.4-12-12V38.8c0-6.6,5.4-12,12-12h115.7c6.6,0,12,5.4,12,12v115.7	C393.2,161.1,387.8,166.5,381.2,166.5z" class="st0"/><g><g><line x1="47" x2="247.5" y1="95.9" y2="95.9" class="st1"/><g><path d="M253.5,95.9c-2.8,1.1-6.4,2.9-8.5,4.8l1.7-4.8l-1.7-4.8C247.2,93,250.7,94.8,253.5,95.9z"/></g></g></g><text class="st2 st3" transform="matrix(1 0 0 1 16.7588 86.617)">Mesh traffic</text><text class="st2 st3" transform="matrix(1 0 0 1 269.2493 101.2239)">Service Entry</text><path d="M190,363H86.8c-6.6,0-12-5.4-12-12v-49.5c0-6.6,5.4-12,12-12H190c6.6,0,12,5.4,12,12V351	C202,357.6,196.6,363,190,363z" class="st4"/><path d="M201.9,375.2H98.7c-6.6,0-12-5.4-12-12v-49.5c0-6.6,5.4-12,12-12h103.2c6.6,0,12,5.4,12,12v49.5	C213.9,369.8,208.5,375.2,201.9,375.2z" class="st4"/><path d="M213.8,384.9H110.6c-6.6,0-12-5.4-12-12v-49.5c0-6.6,5.4-12,12-12h103.2c6.6,0,12,5.4,12,12v49.5	C225.8,379.5,220.4,384.9,213.8,384.9z" class="st4"/><text class="st2 st5" transform="matrix(1 0 0 1 136.0748 352.3823)">Pods</text><path d="M528.2,364.2H425c-6.6,0-12-5.4-12-12v-49.5c0-6.6,5.4-12,12-12h103.2c6.6,0,12,5.4,12,12v49.5	C540.2,358.8,534.8,364.2,528.2,364.2z" class="st4"/><path d="M540.1,376.4H436.9c-6.6,0-12-5.4-12-12v-49.5c0-6.6,5.4-12,12-12h103.2c6.6,0,12,5.4,12,12v49.5	C552.1,371,546.7,376.4,540.1,376.4z" class="st4"/><path d="M552,386.1H448.8c-6.6,0-12-5.4-12-12v-49.5c0-6.6,5.4-12,12-12H552c6.6,0,12,5.4,12,12v49.5	C564,380.7,558.6,386.1,552,386.1z" class="st4"/><text class="st2 st5" transform="matrix(1 0 0 1 476.5728 352.382)">VMs</text><text transform="matrix(1 0 0 1 74.7761 413.4272)"><tspan x="0" y="0" class="st2 st6">Kubernetes Pods</tspan><tspan x="0" y="16.8" class="st2 st6">labels:</tspan><tspan x="0" y="33.6" class="st2 st6"> app: foo</tspan><tspan x="0" y="50.4" class="st2 st6"> class: pod</tspan></text><text transform="matrix(1 0 0 1 412.9753 413.4275)"><tspan x="0" y="0" class="st2 st6">Istio WorkloadEntries</tspan><tspan x="0" y="16.8" class="st2 st6">labels:</tspan><tspan x="0" y="33.6" class="st2 st6"> app: foo</tspan><tspan x="0" y="50.4" class="st2 st6"> class: vm</tspan></text><text transform="matrix(1 0 0 1 418.3678 86.6168)"><tspan x="0" y="0" class="st2 st6">ServiceEntry</tspan><tspan x="0" y="16.8" class="st2 st6">selector:</tspan><tspan x="0" y="33.6" class="st2 st6"> app: foo</tspan></text><g><g><line x1="274.2" x2="156.2" y1="166.5" y2="298.3" class="st7"/><g><path d="M153.2,301.7c0.8-2.1,1.6-5,1.6-7.2l1.8,3.3l3.5,1.4C157.9,299.6,155.2,300.6,153.2,301.7z" class="st8"/></g></g></g><g><g><line x1="368.1" x2="484.5" y1="166.5" y2="298.4" class="st9"/><g><path d="M488.5,302.9c-2.7-1.4-6.3-2.9-9.2-3.3l4.7-1.9l2.4-4.4C486.4,296.2,487.4,300.1,488.5,302.9z" class="st8"/></g></g></g></svg>