<svg width="256" height="256" xmlns="http://www.w3.org/2000/svg" preserveAspectRatio="xMidYMid"><path d="M67.852 9.367c1.935-.314 4.03-.346 5.843.51 2.684 1.082 4.583 3.652 5.233 6.422.221 1.97.157 4.058-.775 5.857-1.692 3.719-6.193 5.864-10.144 4.833-4.054-.907-7.07-4.808-7.032-8.952-.078-4.033 3.01-7.717 6.875-8.67m115.956-.014c1.96-.307 4.073-.311 5.893.589 3.013 1.328 5.054 4.472 5.272 7.73-.003 2.51-.842 5.13-2.702 6.886-1.58 1.667-3.859 2.588-6.132 2.69-3.519.05-7.067-2.051-8.445-5.334-.892-1.753-.782-3.773-.667-5.672.667-3.348 3.472-6.115 6.781-6.89m-11.636 137.08c4.586-.021 9.173-.025 13.756 0-.057 18.229-.01 36.46-.02 54.689-4.57 0-9.139.004-13.71-.003-.012-18.23.038-36.457-.026-54.686" fill="#FFF"/><path d="M183.808 9.353c-3.309.774-6.114 3.54-6.78 6.889-.116 1.899-.226 3.919.666 5.672 1.378 3.283 4.926 5.385 8.445 5.335 2.273-.103 4.551-1.024 6.132-2.691 1.86-1.756 2.7-4.376 2.702-6.885-.218-3.26-2.259-6.403-5.272-7.731-1.82-.9-3.933-.896-5.893-.59m-115.956.015c-3.866.953-6.953 4.637-6.875 8.67-.039 4.144 2.977 8.045 7.032 8.952 3.951 1.03 8.452-1.114 10.144-4.833.932-1.8.996-3.887.775-5.857-.65-2.77-2.549-5.34-5.233-6.422-1.813-.856-3.908-.824-5.843-.51m-44.367-7.97C26.377.13 29.575-.063 32.691.016c64.251.007 128.502 0 192.753-.004 7.01-.117 13.84 4.216 16.673 10.636 1.195 2.53 1.702 5.34 1.652 8.13-.028 6.248.064 12.494-.036 18.737-2.073-.79-4.308-1-6.51-1.014-72.7.015-145.399.007-218.099.01-2.302.062-4.658.16-6.832 1.008-.093-6.49-.043-12.978-.064-19.464-.043-7.153 4.615-14.02 11.257-16.658M182.73 91.715c1.029-.425 2.149-.403 3.238-.318-.064 18.29.008 36.582-.035 54.87l-.004.165c-4.584-.025-9.17-.021-13.756 0v-.16c-.007-12.646-.012-25.288.002-37.935-9.144 3.04-18.27 6.132-27.419 9.155-.028-4.13.022-8.26-.024-12.388 12.65-4.51 25.341-8.906 37.999-13.39M70.832 98.286c5.73-4.365 12.9-6.621 20.06-6.89 7.104-.25 14.456.9 20.67 4.509 4.916 2.816 8.806 7.324 10.925 12.57 2.114 5.24 2.785 11.034 2.142 16.634-1.375 8.97-8.302 16.216-16.398 19.799a20.69 20.69 0 0 1 3.364 1.335 9.897 9.897 0 0 1-2.15.193c-9.55-.068-19.102.064-28.647-.065-.035-2.073-.085-4.15.046-6.221 6.886-.164 14.15.678 20.592-2.341 5.292-2.234 9.23-7.296 9.976-13.01.642-5.444.092-11.397-3.134-16.005-2.538-3.648-6.839-5.668-11.14-6.307-5.803-.81-12.168-.232-17.04 3.29-4.796 3.374-7.335 9.327-7.213 15.106-4.42.118-8.842.028-13.264.043.087-2.427.271-4.87.904-7.221 1.52-6.128 5.271-11.636 10.307-15.42" fill="#C7C7C7"/><path d="M12.292 37.518c2.174-.846 4.53-.946 6.832-1.007 72.7-.003 145.399.004 218.099-.01 2.202.014 4.437.225 6.51 1.013 6.283 2.267 11.372 8.085 12.029 14.824-1.278-4.619-4.04-8.917-8.17-11.462-2.991-1.866-6.482-2.944-10.015-2.912-72.932.05-145.868.05-218.803.05-5.493-.1-11.029 2.27-14.53 6.546-1.7 1.817-2.588 4.162-3.777 6.3 1.178-6.146 5.986-11.268 11.825-13.342m159.624 108.775l.257-.021v.16c.064 18.229.013 36.457.024 54.686 4.572.007 9.142.004 13.71.004.01-18.23-.036-36.461.022-54.69l.004-.164.22.018c2.017.243 4.052.096 6.079.118 17.18-.011 34.362-.032 51.54 0 1.986 28.729 3.852 57.466 5.816 86.195.192 3.284.61 6.657-.3 9.877l-.083.103c-.843.946-1.328 2.124-1.93 3.223-3.224 5.26-9.214 8.802-15.424 8.742-68.535-.04-137.065.03-205.595.006-2.15 0-4.34.11-6.436-.453-4.736-1.292-9.03-4.394-11.415-8.73-.5-.95-.963-1.924-1.631-2.767l-.085-.118c-1.146-4.304-.215-8.766-.072-13.127 1.885-27.634 3.68-55.278 5.59-82.912 22.84-.057 45.684-.032 68.522-.014.022 1.313.034 2.627.016 3.94 7.237.139 14.813-.728 21.668 2.138 4.63 1.807 8.431 5.676 9.895 10.455 1.613 5.289 1.427 11.143-.468 16.337-1.767 4.868-6 8.63-10.944 10.083-6.002 1.777-12.689 1.624-18.47-.857-4.502-1.923-8.175-5.8-9.563-10.525-.66-2.082-.916-4.27-.957-6.443-4.376.028-8.752.018-13.128.004.083 5.535 1.425 11.157 4.516 15.804 3.294 5.083 8.406 8.795 14.007 10.972 7.099 2.77 14.944 3.388 22.45 2.238 7.3-1.156 14.448-4.426 19.406-10.02 4.555-5.053 6.91-11.813 7.22-18.555.419-6.436-1.063-13.196-5.15-18.308-2.297-3.026-5.458-5.211-8.684-7.131 1.57-.196 3.155-.154 4.736-.146 16.185-.015 32.368.003 48.55-.008 2.028-.042 4.065.125 6.087-.114" fill="#4483EF"/><path d="M4.244 44.56c3.5-4.276 9.037-6.646 14.53-6.546 72.936 0 145.87 0 218.803-.05 3.533-.032 7.024 1.046 10.015 2.912 4.13 2.545 6.893 6.843 8.17 11.462.354 1.631.257 3.323.072 4.972-3.962 29.68-8.07 59.34-11.98 89.025-16.485-.028-32.972.015-49.455-.003-2.75-.022-5.501.103-8.245-.046l-.222-.018c.043-18.29-.028-36.582.036-54.872-1.09-.085-2.21-.107-3.237.318-12.657 4.483-25.35 8.881-38 13.39.047 4.128-.003 8.258.026 12.388 9.148-3.023 18.275-6.115 27.419-9.156-.014 12.647-.011 25.29-.003 37.935l-.257.021c-19.157.143-38.32.004-57.477.076-.946-.022-1.945.271-2.844-.125a20.727 20.727 0 0 0-3.363-1.335c8.095-3.584 15.023-10.829 16.398-19.799.642-5.6-.03-11.393-2.142-16.633-2.12-5.247-6.011-9.755-10.926-12.57-6.214-3.61-13.567-4.759-20.67-4.51-7.16.268-14.331 2.524-20.06 6.89-5.035 3.783-8.787 9.29-10.307 15.42-.632 2.351-.818 4.792-.904 7.22 4.423-.015 8.845.074 13.264-.043-.121-5.779 2.417-11.733 7.214-15.106 4.872-3.523 11.236-4.1 17.04-3.29 4.3.638 8.602 2.658 11.14 6.306 3.226 4.608 3.776 10.562 3.133 16.005-.746 5.715-4.683 10.776-9.976 13.011-6.442 3.02-13.706 2.177-20.591 2.341l-.171.003c.07 2.074-.011 4.152.046 6.23-22.851-.037-45.705-.044-68.56.002C8.264 117.306 4.306 88.235.387 59.16c-.451-2.742-.604-5.586.082-8.299 1.188-2.138 2.077-4.483 3.776-6.3M6.774 242.6c.667.843 1.132 1.817 1.63 2.767 2.386 4.336 6.68 7.438 11.416 8.73 2.095.564 4.287.453 6.435.453 68.53.025 137.062-.046 205.596-.007 6.21.06 12.2-3.48 15.423-8.741.604-1.1 1.089-2.277 1.93-3.223-1.512 5.857-6.223 10.718-11.984 12.524-3.213 1.122-6.657.839-9.994.875l-200.25-.003c-2.662.02-5.386.046-7.95-.786-5.874-1.742-10.703-6.65-12.252-12.59" fill="#3664D0"/></svg>