<svg xmlns="http://www.w3.org/2000/svg" id="svg192" width="140mm" height="432.4" version="1.1" viewBox="0 0 529.134 432.4"><defs id="defs7"><clipPath id="b8ba444c-ee38-4f79-8b77-c1a5ff62ba08"><path id="rect4" fill="none" d="M22.7 72.9h39.9v39.9H22.7z"/></clipPath><style id="style2">.a1febd32-a602-439d-90cb-fe3b9e5e9e6e,.a2de6f6a-543b-49bf-abe1-4190f694075c,.f842173c-4137-41bd-a45e-eb43b29bb415{fill:none}.aa42245d-ad5b-4e67-9608-1290cdf026c9{fill:#e5e5e4}.ef4e5b1c-b333-40de-91f2-d67d81b0e205{fill:#fff}.a450d0db-15ca-4a08-835b-f23856a99cc6,.aef7c180-a9aa-4037-aeb7-1c23582a6a0c,.ec350dc4-b3fe-4a66-86b2-3ced8af6dc99{isolation:isolate}.a6a6604f-cec9-421e-b62a-47e7c088578a{clip-path:url(#b8ba444c-ee38-4f79-8b77-c1a5ff62ba08)}.e5b942fc-5abb-46fc-b726-75c457c7b7b7{fill:#466bb0}.b805c6ed-2f12-4f9f-bfd4-2d445f303f70{fill:#486baf}.a768cd4c-9aac-4065-93f3-520b3335e459,.ec350dc4-b3fe-4a66-86b2-3ced8af6dc99{fill:#818181}.aef7c180-a9aa-4037-aeb7-1c23582a6a0c{font-size:16px;fill:#ededed;font-family:ArialMT,Arial}.ec350dc4-b3fe-4a66-86b2-3ced8af6dc99{font-family:ArialMT,Arial}.a1febd32-a602-439d-90cb-fe3b9e5e9e6e{stroke:#486baf;stroke-linecap:round;stroke-width:4px}.f842173c-4137-41bd-a45e-eb43b29bb415{stroke-linecap:round;stroke-width:4px}.a1febd32-a602-439d-90cb-fe3b9e5e9e6e,.a2de6f6a-543b-49bf-abe1-4190f694075c,.f842173c-4137-41bd-a45e-eb43b29bb415{stroke-linejoin:round}.f842173c-4137-41bd-a45e-eb43b29bb415{stroke:#818181}.a2de6f6a-543b-49bf-abe1-4190f694075c{stroke:#b14d9d;stroke-width:3px}.ec350dc4-b3fe-4a66-86b2-3ced8af6dc99{font-size:12px}</style></defs><g id="e3542c96-65ae-4923-886c-3c9f5393e193" data-name="Pilot container"><path id="path11" fill="#e5e5e4" d="M339 287.2H3a3 3 0 01-3-3v-241a3 3 0 013-3h336a3 3 0 013 3v241a3 3 0 01-3 3z" class="aa42245d-ad5b-4e67-9608-1290cdf026c9"/><path id="path13" fill="#fff" d="M316.3 274.2H25.6a3.08 3.08 0 01-3-3V58.8a3 3 0 013-3h290.7a3 3 0 013 3v212.4a3 3 0 01-3 3z" class="ef4e5b1c-b333-40de-91f2-d67d81b0e205"/><text style="isolation:isolate" id="text21" font-family="GoogleSans-Regular,'Google Sans'" font-size="35.5" transform="translate(61.52 103.55)">Pi<tspan id="tspan15" x="28.47" y="0" letter-spacing="0">l</tspan> <tspan id="tspan17" x="35.78" y="0" letter-spacing="-.01em">o</tspan> <tspan id="tspan19" x="56.41" y="0">t</tspan></text><g id="aad9b6b4-89bb-449c-990c-7e6dbae92f40" data-name="Istio-logo-blue"><g id="g25" class="a6a6604f-cec9-421e-b62a-47e7c088578a" clip-path="url(#b8ba444c-ee38-4f79-8b77-c1a5ff62ba08)"><path id="polygon23" fill="#466bb0" d="M40.1 107.8l-7.4-3.8h19.9z" class="e5b942fc-5abb-46fc-b726-75c457c7b7b7"/></g><g id="g29" class="a6a6604f-cec9-421e-b62a-47e7c088578a" clip-path="url(#b8ba444c-ee38-4f79-8b77-c1a5ff62ba08)"><path id="polygon27" fill="#466bb0" d="M40.1 87.8l-7.4 15 7.4-1.3z" class="e5b942fc-5abb-46fc-b726-75c457c7b7b7"/></g><g id="g33" class="a6a6604f-cec9-421e-b62a-47e7c088578a" clip-path="url(#b8ba444c-ee38-4f79-8b77-c1a5ff62ba08)"><path id="polygon31" fill="#476baf" d="M41.4 77.9v23.6l11.2 1.3z"/></g></g></g><path id="path37" fill="#486baf" d="M304.7 153H183.3a3.08 3.08 0 01-3-3v-19.8a3 3 0 013-3h121.4a3 3 0 013 3V150a3.08 3.08 0 01-3 3z" class="b805c6ed-2f12-4f9f-bfd4-2d445f303f70"/><path id="path39" fill="#818181" d="M207.6 3v121.4a3 3 0 01-3 3h-19.8a3.08 3.08 0 01-3-3V3a3.08 3.08 0 013-3h19.8a3.08 3.08 0 013 3z" class="a768cd4c-9aac-4065-93f3-520b3335e459"/><path id="path41" fill="#818181" d="M240.9 3v121.4a3 3 0 01-3 3h-19.8a3 3 0 01-3-3V3a3 3 0 013-3h19.8a3 3 0 013 3z" class="a768cd4c-9aac-4065-93f3-520b3335e459"/><path id="path43" fill="#818181" d="M274.3 3v121.4a3 3 0 01-3 3h-19.8a3.08 3.08 0 01-3-3V3a3.08 3.08 0 013-3h19.8a3 3 0 013 3z" class="a768cd4c-9aac-4065-93f3-520b3335e459"/><path id="path45" fill="#818181" d="M307.7 3v121.4a3.08 3.08 0 01-3 3h-19.8a3 3 0 01-3-3V3a3 3 0 013-3h19.8a3.08 3.08 0 013 3z" class="a768cd4c-9aac-4065-93f3-520b3335e459"/><text style="isolation:isolate" id="text47" x="184.42" y="144.77" fill="#ededed" class="aef7c180-a9aa-4037-aeb7-1c23582a6a0c" font-family="ArialMT,Arial" font-size="16">Platform adapters</text><path id="path49" fill="#486baf" d="M155.4 226.3H34a3 3 0 01-3-3v-93.2a3 3 0 013-3h121.4a3 3 0 013 3v93.2a3 3 0 01-3 3z" class="b805c6ed-2f12-4f9f-bfd4-2d445f303f70"/><g style="isolation:isolate" id="g55" class="a450d0db-15ca-4a08-835b-f23856a99cc6"><text style="isolation:isolate" id="text51" fill="#ededed" class="aef7c180-a9aa-4037-aeb7-1c23582a6a0c" font-family="ArialMT,Arial" font-size="16" transform="translate(66.76 171.86)">Abstract</text><text style="isolation:isolate" id="text53" fill="#ededed" class="aef7c180-a9aa-4037-aeb7-1c23582a6a0c" font-family="ArialMT,Arial" font-size="16" transform="translate(73.26 191.06)">model</text></g><text style="isolation:isolate" id="text57" x="-101.87" y="199.36" fill="#ededed" class="aef7c180-a9aa-4037-aeb7-1c23582a6a0c" font-family="ArialMT,Arial" font-size="16" transform="rotate(-90)">Kubernetes</text><text style="isolation:isolate" id="text59" x="-84.85" y="232.73" fill="#ededed" class="aef7c180-a9aa-4037-aeb7-1c23582a6a0c" font-family="ArialMT,Arial" font-size="16" transform="rotate(-90)">Mesos</text><text style="isolation:isolate" id="text61" x="-111.55" y="266.1" fill="#ededed" class="aef7c180-a9aa-4037-aeb7-1c23582a6a0c" font-family="ArialMT,Arial" font-size="16" transform="rotate(-90)">CloudFoundry</text><text style="isolation:isolate" id="text63" x="-68.65" y="299.48" fill="#ededed" class="aef7c180-a9aa-4037-aeb7-1c23582a6a0c" font-family="ArialMT,Arial" font-size="16" transform="rotate(-90)">...</text><path id="line101" fill="none" stroke="#486baf" stroke-linecap="round" stroke-linejoin="round" stroke-width="2.738" d="M386.469 65.833h59.025" class="a1febd32-a602-439d-90cb-fe3b9e5e9e6e"/><path id="polyline103" fill="none" stroke="#486baf" stroke-linecap="round" stroke-linejoin="round" stroke-width="4" d="M171 261.2v57.2H36.3v25.2" class="a1febd32-a602-439d-90cb-fe3b9e5e9e6e"/><path id="line105" fill="none" stroke="#486baf" stroke-linecap="round" stroke-linejoin="round" stroke-width="4" d="M126.2 343.6v-25.2" class="a1febd32-a602-439d-90cb-fe3b9e5e9e6e"/><path id="polyline107" fill="none" stroke="#486baf" stroke-linecap="round" stroke-linejoin="round" stroke-width="4" d="M216.1 343.6v-25.2H171" class="a1febd32-a602-439d-90cb-fe3b9e5e9e6e"/><path id="polyline109" fill="none" stroke="#486baf" stroke-linecap="round" stroke-linejoin="round" stroke-width="4" d="M306 343.6v-25.2h-89.9" class="a1febd32-a602-439d-90cb-fe3b9e5e9e6e"/><text style="isolation:isolate" id="text111" x="401.74" y="204.24" fill="#818181" font-family="FontAwesome5FreeSolid,'Font Awesome 5 Free'" font-size="26">user</text><path id="polyline113" fill="none" stroke="#818181" stroke-linecap="round" stroke-linejoin="round" stroke-width="4" d="M307.7 175.4h65.1v37.3" class="f842173c-4137-41bd-a45e-eb43b29bb415"/><path id="line115" fill="none" stroke="#818181" stroke-linecap="round" stroke-linejoin="round" stroke-width="4" d="M372.8 212.7h-65.1" class="f842173c-4137-41bd-a45e-eb43b29bb415"/><path id="line117" fill="none" stroke="#818181" stroke-linecap="round" stroke-linejoin="round" stroke-width="4" d="M400.6 194h-27.8" class="f842173c-4137-41bd-a45e-eb43b29bb415"/><path id="path119" fill="#486baf" d="M308 261.2H34.1a3 3 0 01-3-3v-19.8a3 3 0 013-3H308a3 3 0 013 3v19.8a3.08 3.08 0 01-3 3z" class="b805c6ed-2f12-4f9f-bfd4-2d445f303f70"/><text style="isolation:isolate" id="text125" x="135.36" y="252.14" fill="#ededed" class="aef7c180-a9aa-4037-aeb7-1c23582a6a0c" font-family="ArialMT,Arial" font-size="16">Envoy <tspan id="tspan123" x="183.39" y="252.14">API</tspan></text><path id="path127" fill="#e5e5e4" d="M339 432.4h-66a3 3 0 01-3-3v-82.8a3 3 0 013-3h66a3 3 0 013 3v82.8a3 3 0 01-3 3z" class="aa42245d-ad5b-4e67-9608-1290cdf026c9"/><path id="path129" fill="#fff" d="M330 423.2h-48a3 3 0 01-3-3v-64.3a3 3 0 013-3h48a3 3 0 013 3v64.3a3 3 0 01-3 3z" class="ef4e5b1c-b333-40de-91f2-d67d81b0e205"/><path id="polygon131" fill="none" stroke="#b14d9d" stroke-linejoin="round" stroke-width="3" d="M306 387.1l13.3-7.6v-15.3l-13.3-7.7-13.2 7.7v15.3z" class="a2de6f6a-543b-49bf-abe1-4190f694075c"/><g style="isolation:isolate" id="g137" class="a450d0db-15ca-4a08-835b-f23856a99cc6"><text style="isolation:isolate" id="text133" fill="#818181" class="ec350dc4-b3fe-4a66-86b2-3ced8af6dc99" font-family="ArialMT,Arial" font-size="12" transform="translate(290.75 403.24)">Envoy</text><text style="isolation:isolate" id="text135" fill="#818181" class="ec350dc4-b3fe-4a66-86b2-3ced8af6dc99" font-family="ArialMT,Arial" font-size="12" transform="translate(291.75 417.64)">proxy</text></g><path id="path139" fill="#e5e5e4" d="M249.1 432.4h-66a3.08 3.08 0 01-3-3v-82.8a3.08 3.08 0 013-3h66a3 3 0 013 3v82.8a3 3 0 01-3 3z" class="aa42245d-ad5b-4e67-9608-1290cdf026c9"/><path id="path141" fill="#fff" d="M240.1 423.2h-48a3.08 3.08 0 01-3-3v-64.3a3.08 3.08 0 013-3h48a3 3 0 013 3v64.3a3 3 0 01-3 3z" class="ef4e5b1c-b333-40de-91f2-d67d81b0e205"/><path id="polygon143" fill="none" stroke="#b14d9d" stroke-linejoin="round" stroke-width="3" d="M216.1 387.1l13.3-7.6v-15.3l-13.3-7.7-13.2 7.7v15.3z" class="a2de6f6a-543b-49bf-abe1-4190f694075c"/><g style="isolation:isolate" id="g149" class="a450d0db-15ca-4a08-835b-f23856a99cc6"><text style="isolation:isolate" id="text145" fill="#818181" class="ec350dc4-b3fe-4a66-86b2-3ced8af6dc99" font-family="ArialMT,Arial" font-size="12" transform="translate(200.83 403.24)">Envoy</text><text style="isolation:isolate" id="text147" fill="#818181" class="ec350dc4-b3fe-4a66-86b2-3ced8af6dc99" font-family="ArialMT,Arial" font-size="12" transform="translate(201.83 417.64)">proxy</text></g><path id="path151" fill="#e5e5e4" d="M159.2 432.4h-66a3 3 0 01-3-3v-82.8a3 3 0 013-3h66a3 3 0 013 3v82.8a3.08 3.08 0 01-3 3z" class="aa42245d-ad5b-4e67-9608-1290cdf026c9"/><path id="path153" fill="#fff" d="M150.2 423.2h-48a3 3 0 01-3-3v-64.3a3 3 0 013-3h48a3 3 0 013 3v64.3a3.08 3.08 0 01-3 3z" class="ef4e5b1c-b333-40de-91f2-d67d81b0e205"/><path id="polygon155" fill="none" stroke="#b14d9d" stroke-linejoin="round" stroke-width="3" d="M126.2 387.1l13.2-7.6v-15.3l-13.2-7.7-13.3 7.7v15.3z" class="a2de6f6a-543b-49bf-abe1-4190f694075c"/><g style="isolation:isolate" id="g161" class="a450d0db-15ca-4a08-835b-f23856a99cc6"><text style="isolation:isolate" id="text157" fill="#818181" class="ec350dc4-b3fe-4a66-86b2-3ced8af6dc99" font-family="ArialMT,Arial" font-size="12" transform="translate(110.9 403.24)">Envoy</text><text style="isolation:isolate" id="text159" fill="#818181" class="ec350dc4-b3fe-4a66-86b2-3ced8af6dc99" font-family="ArialMT,Arial" font-size="12" transform="translate(111.9 417.64)">proxy</text></g><path id="path163" fill="#e5e5e4" d="M69.3 432.4h-66a3 3 0 01-3-3v-82.8a3 3 0 013-3h66a3.08 3.08 0 013 3v82.8a3.08 3.08 0 01-3 3z" class="aa42245d-ad5b-4e67-9608-1290cdf026c9"/><path id="path165" fill="#fff" d="M60.3 423.2h-48a3 3 0 01-3-3v-64.3a3 3 0 013-3h48a3.08 3.08 0 013 3v64.3a3.08 3.08 0 01-3 3z" class="ef4e5b1c-b333-40de-91f2-d67d81b0e205"/><path id="polygon167" fill="none" stroke="#b14d9d" stroke-linejoin="round" stroke-width="3" d="M36.3 387.1l13.2-7.6v-15.3l-13.2-7.7-13.3 7.7v15.3z" class="a2de6f6a-543b-49bf-abe1-4190f694075c"/><g style="isolation:isolate" id="g173" class="a450d0db-15ca-4a08-835b-f23856a99cc6"><text style="isolation:isolate" id="text169" fill="#818181" class="ec350dc4-b3fe-4a66-86b2-3ced8af6dc99" font-family="ArialMT,Arial" font-size="12" transform="translate(20.98 403.24)">Envoy</text><text style="isolation:isolate" id="text171" fill="#818181" class="ec350dc4-b3fe-4a66-86b2-3ced8af6dc99" font-family="ArialMT,Arial" font-size="12" transform="translate(21.98 417.64)">proxy</text></g><path id="path175" fill="#486baf" d="M304.7 189H183.3a3 3 0 01-3-3v-19.8a3.08 3.08 0 013-3h121.4a3.08 3.08 0 013 3V186a3 3 0 01-3 3z" class="b805c6ed-2f12-4f9f-bfd4-2d445f303f70"/><text style="isolation:isolate" id="text181" x="213.46" y="181.84" fill="#ededed" class="aef7c180-a9aa-4037-aeb7-1c23582a6a0c" font-family="ArialMT,Arial" font-size="16">Rules <tspan id="tspan179" x="257.93" y="181.84">API</tspan></text><path id="path183" fill="#486baf" d="M304.7 225.1H183.3a3.08 3.08 0 01-3-3v-19.8a3 3 0 013-3h121.4a3 3 0 013 3v19.8a3 3 0 01-3 3z" class="b805c6ed-2f12-4f9f-bfd4-2d445f303f70"/><text style="isolation:isolate" id="text189" x="202.67" y="217.91" fill="#ededed" class="aef7c180-a9aa-4037-aeb7-1c23582a6a0c" font-family="ArialMT,Arial" font-size="16">Network <tspan id="tspan187" x="264.91" y="217.91">API</tspan></text><text font-size="13.333" style="line-height:1.25" id="text1107" x="447.516" y="59.547" fill="#000" fill-opacity="1" stroke="none" font-family="sans-serif" font-style="normal" font-weight="400" letter-spacing="0" word-spacing="0" xml:space="preserve"><tspan id="tspan1105" x="447.516" y="59.547" font-size="8">Service discovery</tspan><tspan id="tspan1109" x="447.516" y="76.213" font-size="8">and traffic rules</tspan></text></svg>