<svg xmlns="http://www.w3.org/2000/svg" viewBox="0 0 465.9 246"><defs><style>.a59b411d-3f85-4694-9935-a69f82b3cf6a{fill:#fff}.b49411a2-eda8-41b4-84f0-cd7f53365895{font-size:14px;font-family:GoogleSans-Regular,Google Sans}.e9f50c11-8103-49d5-8216-38cde264ec43{letter-spacing:-.01em}.ad40b9b6-e143-4273-b522-ee52f9f9cde6{letter-spacing:0}.b27a19f5-b988-42e0-827f-aa3cf54c0e72{letter-spacing:-.01em}.aa49f5bf-f6f4-48dc-926b-db63be810bc3,.b6dc83b0-c6a9-4f6f-852a-b9011402722f,.b8f35f67-4111-4704-8a93-5fe9e1c7fc28,.badbcf28-c019-436c-8da7-00930fe8703c{fill:none}.aa49f5bf-f6f4-48dc-926b-db63be810bc3,.b6dc83b0-c6a9-4f6f-852a-b9011402722f,.badbcf28-c019-436c-8da7-00930fe8703c{stroke-linejoin:round}.aa49f5bf-f6f4-48dc-926b-db63be810bc3{stroke:#486baf;stroke-width:4px;stroke-linecap:round}.b8f35f67-4111-4704-8a93-5fe9e1c7fc28{stroke-linecap:round}.b6dc83b0-c6a9-4f6f-852a-b9011402722f{stroke:#e905ee;stroke-width:3px}.bc41b1fa-dcd1-46b3-bd0b-d774d672ac5b{fill:#757575}.b8f35f67-4111-4704-8a93-5fe9e1c7fc28,.badbcf28-c019-436c-8da7-00930fe8703c{stroke:#fff;stroke-width:2px}.b8f35f67-4111-4704-8a93-5fe9e1c7fc28{stroke-miterlimit:10}</style></defs><g id="a4e1f9c9-1dc0-459d-a446-094d1aa83c44" data-name="Virtual service"><rect x="35.11" y="37.28" width="123.25" height="75.44" rx="3" fill="#e5e5e4"/><rect class="a59b411d-3f85-4694-9935-a69f82b3cf6a" x="43.92" y="80.71" width="105.64" height="26.41" rx="3"/><text class="b49411a2-eda8-41b4-84f0-cd7f53365895" transform="translate(62.59 98.06)"><tspan class="e9f50c11-8103-49d5-8216-38cde264ec43">m</tspan><tspan class="ad40b9b6-e143-4273-b522-ee52f9f9cde6" x="12.05" y="0">y-</tspan><tspan x="25.45" y="0" letter-spacing=".01em">v</tspan><tspan x="32.73" y="0" letter-spacing="0">t</tspan><tspan class="ad40b9b6-e143-4273-b522-ee52f9f9cde6" x="37.93" y="0">l-s</tspan><tspan class="b27a19f5-b988-42e0-827f-aa3cf54c0e72" x="53.68" y="0">v</tspan><tspan x="60.66" y="0">c</tspan></text><path id="ea6b26c2-c6af-4490-a613-3fe569784a13" data-name="background" fill="#486baf" d="M82.52 37.28h28.44v28.44H82.52z"/><path id="eae00b39-5fa0-4a4b-9b17-a69c6abba47b" data-name="hull" class="a59b411d-3f85-4694-9935-a69f82b3cf6a" d="M88.14 61.17h17.2L94.59 64.4l-6.45-3.23z"/><path id="b5750b79-0664-4738-ac28-100cf5f91b5b" data-name="mainsail" class="a59b411d-3f85-4694-9935-a69f82b3cf6a" d="M88.14 60.1l6.45-1.08V47.2l-6.45 12.9z"/><path id="a72ab482-8574-488b-b450-ca05e91b1757" data-name="headsail" class="a59b411d-3f85-4694-9935-a69f82b3cf6a" d="M95.66 59.02l9.68 1.08-9.68-21.5v20.42z"/><rect x=".5" y="21.64" width="464.9" height="223.86" rx="10" stroke-linejoin="round" stroke="#466bb0" stroke-dasharray="10 10" fill="none"/><text transform="translate(.9 13.73)" font-size="16" font-family="GoogleSans-Regular,Google Sans">I<tspan x="3.9" y="0" letter-spacing="0">s</tspan><tspan x="11.39" y="0" letter-spacing="0">t</tspan><tspan x="17.33" y="0" letter-spacing="-.01em">i</tspan><tspan x="20.86" y="0">o M</tspan><tspan x="47.97" y="0" letter-spacing=".01em">e</tspan><tspan x="57.06" y="0">sh</tspan></text><path class="aa49f5bf-f6f4-48dc-926b-db63be810bc3" d="M15.9 174h3"/><path stroke-dasharray="6 12" stroke-linecap="round" stroke="#486baf" stroke-width="4" stroke-linejoin="round" fill="none" d="M30.9 174h120"/><path class="aa49f5bf-f6f4-48dc-926b-db63be810bc3" d="M156.9 174h3"/><path d="M6.08 200.47A5.71 5.71 0 014 198.32a6.35 6.35 0 010-6.1 5.71 5.71 0 012.13-2.15 6 6 0 013-.78 5.48 5.48 0 012.34.49 5.32 5.32 0 011.85 1.38l-1 .94a4.38 4.38 0 00-1.43-1.1 4.16 4.16 0 00-1.78-.37 4.59 4.59 0 00-2.29.59 4.36 4.36 0 00-1.65 1.65 5.17 5.17 0 000 4.91 4.36 4.36 0 001.65 1.65 4.59 4.59 0 002.29.58 4.5 4.5 0 003.54-1.71l1 1a5.71 5.71 0 01-2 1.49 5.89 5.89 0 01-2.56.56 6 6 0 01-3.01-.88zm10.52.21a4 4 0 01-1.5-1.57 4.79 4.79 0 010-4.38 4 4 0 011.5-1.57 4.31 4.31 0 014.32 0 4 4 0 011.49 1.57 4.71 4.71 0 010 4.38 4 4 0 01-1.49 1.57 4.31 4.31 0 01-4.32 0zm3.56-1a2.77 2.77 0 001-1.08 3.69 3.69 0 000-3.3 2.77 2.77 0 00-1-1.08 2.74 2.74 0 00-1.4-.37 2.8 2.8 0 00-1.41.37 2.73 2.73 0 00-1.05 1.08 3.69 3.69 0 000 3.3 2.73 2.73 0 001.05 1.08 2.8 2.8 0 001.41.37 2.74 2.74 0 001.4-.4zm4.21-6.84h1.3V194h.06a2.69 2.69 0 011.08-1 3.11 3.11 0 011.56-.43 2.89 2.89 0 012.25.86 3.33 3.33 0 01.78 2.33V201H30v-5a2.15 2.15 0 00-.55-1.65 2.08 2.08 0 00-1.48-.51 2 2 0 00-1.18.36 2.47 2.47 0 00-.81 1 2.91 2.91 0 00-.29 1.26V201h-1.32zm9.76 1.23h-1.5v-1.23h1.5V192a2.46 2.46 0 01.36-1.34 2.3 2.3 0 01.94-.89 2.72 2.72 0 011.31-.31 3.36 3.36 0 011.2.19v1.33a5 5 0 00-.54-.19 2.22 2.22 0 00-.61-.07 1.25 1.25 0 00-.91.38 1.38 1.38 0 00-.39 1v.74h5.06V201h-1.34v-6.93h-3.72V201h-1.36zm5.06-2.94a1 1 0 111.37-1.38.91.91 0 01.29.69 1 1 0 01-1.66.69zM43.82 204a3.29 3.29 0 01-1.25-1.62l1.23-.52a2.4 2.4 0 00.9 1.14 2.58 2.58 0 001.5.44 2.65 2.65 0 002-.71 2.75 2.75 0 00.69-2v-.91h-.06a3 3 0 01-1.13 1 3.33 3.33 0 01-1.65.4 3.59 3.59 0 01-1.93-.55 3.92 3.92 0 01-1.39-1.54 5.2 5.2 0 010-4.49 4 4 0 011.39-1.55 3.59 3.59 0 011.93-.55 3.33 3.33 0 011.65.4 2.9 2.9 0 011.13 1h.06v-1.17h1.3v7.84a3.67 3.67 0 01-3.95 4 4 4 0 01-2.42-.61zm3.71-4.39a2.7 2.7 0 001-1.07 4 4 0 000-3.33 2.64 2.64 0 00-1-1.07 2.64 2.64 0 00-2.68 0 2.7 2.7 0 00-1 1.07 3.6 3.6 0 00-.36 1.66 3.67 3.67 0 00.36 1.67A2.48 2.48 0 0046.2 200a2.45 2.45 0 001.33-.35zm5.27.78A3.46 3.46 0 0152 198v-5.14h1.36v4.93a2.38 2.38 0 00.53 1.71 1.9 1.9 0 001.42.54 2.17 2.17 0 001.23-.36 2.66 2.66 0 00.83-1 2.74 2.74 0 00.3-1.25v-4.61H59V201h-1.25v-1.18h-.06a2.81 2.81 0 01-1.08 1 3.11 3.11 0 01-1.57.42 2.83 2.83 0 01-2.24-.85zm8.26-7.55h1.3v1.31h.06a2.22 2.22 0 01.93-1.12 2.6 2.6 0 011.44-.45 2.35 2.35 0 011 .18v1.46a2.56 2.56 0 00-1.19-.22 1.85 1.85 0 00-1.09.34 2.31 2.31 0 00-.79.9 2.6 2.6 0 00-.3 1.23V201h-1.36zm7.06 7.86a3.94 3.94 0 01-1.45-1.55 4.59 4.59 0 01-.52-2.21 4.81 4.81 0 01.49-2.18 3.85 3.85 0 011.36-1.58 3.65 3.65 0 012.08-.6 3.91 3.91 0 012.08.54 3.51 3.51 0 011.35 1.48 4.7 4.7 0 01.48 2.16 1.73 1.73 0 01-.05.42h-6.43a3.15 3.15 0 00.45 1.56 2.51 2.51 0 001 1 2.74 2.74 0 003.71-1.15l1.15.56a4.1 4.1 0 01-1.43 1.57 4 4 0 01-2.19.58 4 4 0 01-2.08-.6zm4.45-4.64a2.8 2.8 0 00-.29-1 2.14 2.14 0 00-.81-.86 2.48 2.48 0 00-1.38-.35 2.31 2.31 0 00-1.63.61 3 3 0 00-.87 1.63zm4.58 4.64a4 4 0 01-1.4-1.55 5.11 5.11 0 010-4.45 3.93 3.93 0 011.4-1.56 3.64 3.64 0 012-.56 3.33 3.33 0 011.68.43 3 3 0 011.12 1.05H82l-.07-1.14v-3.38h1.36V201H82v-1.2h-.07a3 3 0 01-1.12 1 3.33 3.33 0 01-1.68.43 3.64 3.64 0 01-1.98-.53zm3.47-1.06a2.83 2.83 0 001-1.09 3.69 3.69 0 000-3.26 2.83 2.83 0 00-1-1.09 2.45 2.45 0 00-1.34-.38 2.41 2.41 0 00-1.32.38 2.74 2.74 0 00-1 1.1 3.64 3.64 0 000 3.24 2.74 2.74 0 001 1.1 2.41 2.41 0 001.32.38 2.45 2.45 0 001.34-.38zm10.61 1.45a2 2 0 01-.71-.44 1.79 1.79 0 01-.48-.71 2.72 2.72 0 01-.16-1v-4.87h-1.43v-1.23h1.43v-2.3h1.36v2.3h2v1.23h-2v4.55a1.63 1.63 0 00.25 1 1.09 1.09 0 00.88.36 1.68 1.68 0 00.9-.27v1.33a2.16 2.16 0 01-.49.16 3.65 3.65 0 01-.63 0 2.51 2.51 0 01-.92-.11zm3.64-8.25h1.29v1.31h.07a2.22 2.22 0 01.93-1.12 2.55 2.55 0 011.44-.45 2.35 2.35 0 011 .18v1.46a2.6 2.6 0 00-1.2-.22 1.84 1.84 0 00-1.08.34 2.41 2.41 0 00-.8.9 2.72 2.72 0 00-.29 1.23V201h-1.36zm6.69 8.06a2.55 2.55 0 01-1.48-2.36 2.4 2.4 0 011-2 4 4 0 012.46-.73 5.85 5.85 0 011.37.16 3.58 3.58 0 011 .37v-.49a1.84 1.84 0 00-.64-1.47 2.39 2.39 0 00-1.62-.55 2.69 2.69 0 00-1.26.3 2.26 2.26 0 00-.91.82l-1-.77a3.29 3.29 0 011.32-1.15 4.14 4.14 0 011.87-.42 3.67 3.67 0 012.61.88 3 3 0 011 2.37V201h-1.3v-1.17h-.06a3 3 0 01-1.06 1 3 3 0 01-1.58.42 3.46 3.46 0 01-1.72-.35zm3-1.2a2.67 2.67 0 001-.94 2.53 2.53 0 00.35-1.3 3.25 3.25 0 00-.94-.41 4.22 4.22 0 00-1.19-.16 2.64 2.64 0 00-1.69.46 1.5 1.5 0 00-.56 1.2 1.34 1.34 0 00.51 1.09 2 2 0 001.29.42 2.4 2.4 0 001.23-.36zm5.27-5.63h-1.51v-1.23h1.51V192a2.55 2.55 0 01.35-1.34 2.43 2.43 0 01.94-.89 2.79 2.79 0 011.32-.31 3.4 3.4 0 011.2.19v1.33c-.2-.08-.38-.14-.55-.19a2.18 2.18 0 00-.61-.07 1.27 1.27 0 00-.91.38 1.41 1.41 0 00-.38 1v.74h3.71V192a2.64 2.64 0 01.34-1.34 2.33 2.33 0 011-.89 2.79 2.79 0 011.32-.31 3.51 3.51 0 011.2.19v1.33a5 5 0 00-.57-.2 2.58 2.58 0 00-.6-.06 1.25 1.25 0 00-.91.38 1.38 1.38 0 00-.39 1v.74h5.06V201H120v-6.93h-3.72V201h-1.38v-6.93h-3.71V201h-1.36zm10.11-2.93a.94.94 0 01-.29-.68 1 1 0 01.29-.7.94.94 0 01.69-.28.9.9 0 01.69.28.94.94 0 01.28.7.93.93 0 01-.28.68.88.88 0 01-.69.29.91.91 0 01-.69-.29zm4.99 9.55a4 4 0 01-1.47-1.55 4.91 4.91 0 010-4.44 3.88 3.88 0 011.47-1.56 4.13 4.13 0 012.13-.56 3.86 3.86 0 012.23.62 3.37 3.37 0 011.29 1.64l-1.23.51a2.37 2.37 0 00-.91-1.14 2.58 2.58 0 00-1.44-.39 2.52 2.52 0 00-1.35.39 2.85 2.85 0 00-1 1.09 3.73 3.73 0 000 3.24 2.85 2.85 0 001 1.09 2.52 2.52 0 001.35.37 2.64 2.64 0 001.48-.4 2.32 2.32 0 00.93-1.13l1.22.51a3.55 3.55 0 01-1.34 1.63 3.83 3.83 0 01-2.23.63 4 4 0 01-2.13-.55zm10.88-7.85h1.3v1.31h.06a2.22 2.22 0 01.93-1.12 2.6 2.6 0 011.44-.45 2.35 2.35 0 011 .18v1.46a2.56 2.56 0 00-1.15-.26 1.85 1.85 0 00-1.09.34 2.39 2.39 0 00-.79.9 2.6 2.6 0 00-.3 1.23V201h-1.36zm7.12 7.84a4 4 0 01-1.49-1.57 4.71 4.71 0 010-4.38 4 4 0 011.49-1.57 4.31 4.31 0 014.32 0 4 4 0 011.5 1.57 4.79 4.79 0 010 4.38 4 4 0 01-1.5 1.57 4.31 4.31 0 01-4.32 0zm3.56-1a2.77 2.77 0 001-1.08 3.69 3.69 0 000-3.3 2.77 2.77 0 00-1-1.08 2.74 2.74 0 00-1.4-.37 2.8 2.8 0 00-1.41.37 2.77 2.77 0 00-1 1.08 3.6 3.6 0 000 3.3 2.77 2.77 0 001 1.08 2.8 2.8 0 001.41.37 2.74 2.74 0 001.4-.4zm5.01.71a3.46 3.46 0 01-.78-2.41v-5.14h1.36v4.93a2.38 2.38 0 00.53 1.71 1.91 1.91 0 001.39.52 2.16 2.16 0 001.22-.36 2.56 2.56 0 00.83-1 2.74 2.74 0 00.3-1.25v-4.61h1.36V201h-1.3v-1.18h-.06a2.78 2.78 0 01-1.07 1 3.13 3.13 0 01-1.57.42 2.87 2.87 0 01-2.21-.85zm10.56.7a2 2 0 01-.71-.44 1.79 1.79 0 01-.48-.71 2.72 2.72 0 01-.16-1v-4.87h-1.43v-1.23h1.43v-2.3h1.36v2.3h2v1.23h-2v4.55a1.63 1.63 0 00.25 1 1.1 1.1 0 00.88.36 1.68 1.68 0 00.9-.27v1.33a2.16 2.16 0 01-.49.16 3.48 3.48 0 01-.63 0 2.51 2.51 0 01-.92-.11zm4.82-.39a3.91 3.91 0 01-1.44-1.55 4.59 4.59 0 01-.52-2.21 4.94 4.94 0 01.48-2.18 4 4 0 011.39-1.58 3.65 3.65 0 012.08-.6 3.91 3.91 0 012.08.54 3.65 3.65 0 011.35 1.48 4.83 4.83 0 01.47 2.16 1.34 1.34 0 01-.05.42h-6.44a3.25 3.25 0 00.44 1.56 2.6 2.6 0 001 1 2.68 2.68 0 001.28.26 2.65 2.65 0 002.41-1.47l1.16.56a4.12 4.12 0 01-1.44 1.57 4.3 4.3 0 01-4.28 0zm4.45-4.64a2.62 2.62 0 00-.29-1 2.19 2.19 0 00-.8-.86 2.5 2.5 0 00-1.39-.35 2.28 2.28 0 00-1.62.61 2.91 2.91 0 00-.87 1.63z"/><rect x="250.25" y="38.86" width="197.65" height="198.14" rx="3" fill="#e6e6e6"/><rect class="a59b411d-3f85-4694-9935-a69f82b3cf6a" x="258.9" y="47.86" width="54" height="54" rx="3"/><path class="b6dc83b0-c6a9-4f6f-852a-b9011402722f" d="M299.16 82.51v-15.3l-13.26-7.65-13.26 7.65v15.3l13.26 7.65 13.26-7.65z"/><rect class="a59b411d-3f85-4694-9935-a69f82b3cf6a" x="321.9" y="47.86" width="117" height="54" rx="3"/><text class="b49411a2-eda8-41b4-84f0-cd7f53365895" transform="translate(372.17 79.7)"><tspan class="e9f50c11-8103-49d5-8216-38cde264ec43">m</tspan><tspan class="ad40b9b6-e143-4273-b522-ee52f9f9cde6" x="12.05" y="0">y-s</tspan><tspan class="b27a19f5-b988-42e0-827f-aa3cf54c0e72" x="32.07" y="0">v</tspan><tspan x="39.06" y="0">c v1</tspan></text><circle class="bc41b1fa-dcd1-46b3-bd0b-d774d672ac5b" cx="348.9" cy="74.86" r="18"/><path class="badbcf28-c019-436c-8da7-00930fe8703c" d="M342.51 68.34h12.79v12.79h-12.79z"/><path class="b8f35f67-4111-4704-8a93-5fe9e1c7fc28" d="M344.87 68.34v-3.07m4.03 3.07v-3.07m4.03 3.07v-3.07m-8.06 19.18v-3.08m4.03 3.08v-3.08m4.03 3.08v-3.08m-10.54-2.49h-3.08m3.08-4.02h-3.08m3.08-4.03h-3.08m19.18 8.05h-3.08m3.08-4.02h-3.08m3.08-4.03h-3.08"/><rect class="a59b411d-3f85-4694-9935-a69f82b3cf6a" x="346.06" y="71.9" width="5.68" height="5.68" rx="2"/><rect class="a59b411d-3f85-4694-9935-a69f82b3cf6a" x="258.9" y="110.86" width="54" height="54" rx="3"/><path class="b6dc83b0-c6a9-4f6f-852a-b9011402722f" d="M299.16 145.51v-15.3l-13.26-7.65-13.26 7.65v15.3l13.26 7.65 13.26-7.65z"/><rect class="a59b411d-3f85-4694-9935-a69f82b3cf6a" x="321.9" y="110.86" width="117" height="54" rx="3"/><text class="b49411a2-eda8-41b4-84f0-cd7f53365895" transform="translate(371.15 142.7)"><tspan class="e9f50c11-8103-49d5-8216-38cde264ec43">m</tspan><tspan x="12.05" y="0">y-s</tspan><tspan class="b27a19f5-b988-42e0-827f-aa3cf54c0e72" x="32.07" y="0">v</tspan><tspan x="39.06" y="0">c v2</tspan></text><circle class="bc41b1fa-dcd1-46b3-bd0b-d774d672ac5b" cx="348.9" cy="137.86" r="18"/><path class="badbcf28-c019-436c-8da7-00930fe8703c" d="M342.51 131.34h12.79v12.79h-12.79z"/><path class="b8f35f67-4111-4704-8a93-5fe9e1c7fc28" d="M344.87 131.34v-3.07m4.03 3.07v-3.07m4.03 3.07v-3.07m-8.06 19.18v-3.08m4.03 3.08v-3.08m4.03 3.08v-3.08m-10.54-2.49h-3.08m3.08-4.02h-3.08m3.08-4.03h-3.08m19.18 8.05h-3.08m3.08-4.02h-3.08m3.08-4.03h-3.08"/><rect class="a59b411d-3f85-4694-9935-a69f82b3cf6a" x="346.06" y="134.9" width="5.68" height="5.68" rx="2"/><rect class="a59b411d-3f85-4694-9935-a69f82b3cf6a" x="258.9" y="173.86" width="54" height="54" rx="3"/><path class="b6dc83b0-c6a9-4f6f-852a-b9011402722f" d="M299.16 208.51v-15.3l-13.26-7.65-13.26 7.65v15.3l13.26 7.65 13.26-7.65z"/><rect class="a59b411d-3f85-4694-9935-a69f82b3cf6a" x="321.9" y="173.86" width="117" height="54" rx="3"/><text class="b49411a2-eda8-41b4-84f0-cd7f53365895" transform="translate(371.08 205.7)"><tspan class="e9f50c11-8103-49d5-8216-38cde264ec43">m</tspan><tspan x="12.05" y="0">y-s</tspan><tspan class="b27a19f5-b988-42e0-827f-aa3cf54c0e72" x="32.07" y="0">v</tspan><tspan x="39.06" y="0">c v3</tspan></text><circle class="bc41b1fa-dcd1-46b3-bd0b-d774d672ac5b" cx="348.9" cy="200.86" r="18"/><path class="badbcf28-c019-436c-8da7-00930fe8703c" d="M342.51 194.34h12.79v12.79h-12.79z"/><path class="b8f35f67-4111-4704-8a93-5fe9e1c7fc28" d="M344.87 194.34v-3.07m4.03 3.07v-3.07m4.03 3.07v-3.07m-8.06 19.18v-3.08m4.03 3.08v-3.08m4.03 3.08v-3.08m-10.54-2.49h-3.08m3.08-4.02h-3.08m3.08-4.03h-3.08m19.18 8.05h-3.08m3.08-4.02h-3.08m3.08-4.03h-3.08"/><rect class="a59b411d-3f85-4694-9935-a69f82b3cf6a" x="346.06" y="197.9" width="5.68" height="5.68" rx="2"/><path class="aa49f5bf-f6f4-48dc-926b-db63be810bc3" d="M25 75h3"/><path stroke-dasharray="6 11.99" stroke-linecap="round" stroke="#486baf" stroke-width="4" stroke-linejoin="round" fill="none" d="M39.99 75H249.9"/><path class="aa49f5bf-f6f4-48dc-926b-db63be810bc3" d="M255.9 75h3"/></g></svg>