<svg xmlns="http://www.w3.org/2000/svg" xmlns:xlink="http://www.w3.org/1999/xlink" viewBox="0 0 439.7 396.64"><defs><style>.cls-1,.cls-2,.cls-29,.cls-3,.cls-4{isolation:isolate}.cls-2,.cls-29,.cls-3,.cls-4{opacity:.5}.cls-2,.cls-3,.cls-4{mix-blend-mode:multiply}.cls-2{fill:url(#linear-gradient)}.cls-3{fill:url(#linear-gradient-2)}.cls-4{fill:url(#linear-gradient-3)}.cls-13,.cls-14,.cls-15,.cls-22,.cls-5,.cls-6{fill:none;stroke-linejoin:round}.cls-5,.cls-6{stroke:#fff}.cls-5{stroke-width:1.5px}.cls-13,.cls-14,.cls-15,.cls-22,.cls-6{stroke-linecap:round}.cls-6{stroke-width:4.74px}.cls-7{fill:#fce06b}.cls-8{fill:#ffe885}.cls-9{fill:#efd462}.cls-10{fill:#aaa}.cls-11{fill:#fff}.cls-12{fill:#c1c1c1}.cls-13{stroke:#f94355}.cls-13,.cls-14,.cls-15{stroke-width:1.19px}.cls-14,.cls-22{stroke:#fce06b}.cls-15{stroke:#a5dedc}.cls-16{fill:#c2c6c4}.cls-17{fill:#b6b7b6}.cls-18{fill:#0ec6dc}.cls-19{fill:#a5dedc}.cls-20{fill:#e5e8ea}.cls-21{fill:#f94355}.cls-22{stroke-width:.82px}.cls-23{fill:#1b1b1b}.cls-24{fill:#7a493c}.cls-25{fill:url(#radial-gradient)}.cls-26{fill:url(#radial-gradient-2)}.cls-27{fill:#eca39e}.cls-28{fill:#0b589a}.cls-29{fill:url(#radial-gradient-3)}.cls-30{fill:#a6674f}</style><linearGradient id="linear-gradient" x1="223.68" y1="41.79" x2="325.04" y2="41.79" gradientUnits="userSpaceOnUse"><stop offset="0" stop-color="#b6b7b6"/><stop offset="1" stop-color="#b6b7b6" stop-opacity="0"/></linearGradient><linearGradient id="linear-gradient-2" x1="41.61" y1="97.25" x2="100.46" y2="97.25" xlink:href="#linear-gradient"/><linearGradient id="linear-gradient-3" x1="114.76" y1="132.56" x2="173.61" y2="132.56" xlink:href="#linear-gradient"/><radialGradient id="radial-gradient" cx="296.36" cy="387.87" r="28.08" gradientTransform="matrix(-.98 .21 -.14 -.68 615.06 471.05)" gradientUnits="userSpaceOnUse"><stop offset="0"/><stop offset="1" stop-opacity="0"/></radialGradient><radialGradient id="radial-gradient-2" cx="279.67" cy="625.72" r="51.33" gradientTransform="matrix(-.97 .23 -.12 -.53 628.56 507.17)" xlink:href="#radial-gradient"/><radialGradient id="radial-gradient-3" cx="367.41" cy="170.31" r="33.83" gradientTransform="rotate(180 344.265 217.5)" xlink:href="#radial-gradient"/></defs><title>Telemetry</title><g class="cls-1"><g id="Layer_1" data-name="Layer 1"><path class="cls-2" d="M223.68 13.77v66.25l101.36-11.43V3.56L223.68 13.77z"/><path class="cls-3" d="M99.06 110.19l-57.45 7.38L43 83.12l57.46-6.19-1.4 33.26z"/><path class="cls-4" d="M172.22 145.5l-57.46 7.38 1.4-34.45 57.45-6.19-1.39 33.26z"/><path class="cls-5" d="M102.68 86.92l58-7.28a5.08 5.08 0 0 1 5.72 5v62.46a5.08 5.08 0 0 0 5.83 5l32.17-4.81a5.08 5.08 0 0 0 4.33-5V51.56a5.08 5.08 0 0 1 4.54-5.05l125.5-13.57a5.08 5.08 0 0 1 5.57 5.06v59.28a5.08 5.08 0 0 1-4.61 5.06l-31.39 2.91" transform="translate(-.11 1.03)"/><path class="cls-6" d="M87.82 249.78v118.3a3.62 3.62 0 0 1-6.16 2.57l-65.53-41a9.66 9.66 0 0 1-2.87-6.87V216M416.3 206.29v106.44a3.62 3.62 0 0 1-6.16 2.57l-65.53-41a9.66 9.66 0 0 1-2.87-6.87v-99.67" transform="translate(-.11 1.03)"/><path class="cls-7" d="M106.12 263.57L439.7 216.8l-103.82-58.64L.02 204.93l106.1 58.64z"/><path class="cls-8" d="M106.05 270.99l-.02-7.43 333.41-47.05-.03 7.32-333.36 47.16z"/><path class="cls-9" d="M106.05 270.99L0 212.04v-7.13l106.1 58.66-.05 7.42z"/><rect class="cls-10" x="217.93" y="208.88" width="11.84" height="18.7" rx="4.99" ry="4.99" transform="rotate(-42.49 225.107 218.879)"/><path class="cls-10" d="M254.77 216.45l54.21-7.6a1.08 1.08 0 0 0 .38-2l-14.63-6.33a4.74 4.74 0 0 0-3-.57l-54.53 7.59a1.08 1.08 0 0 0-.37 2l15 6.35a4.74 4.74 0 0 0 2.94.56z" transform="translate(-.11 1.03)"/><path class="cls-10" d="M254.68 216.39l54.21-7.6a1.08 1.08 0 0 0 .38-2l-14.54-6.33a4.74 4.74 0 0 0-3-.57l-54.53 7.59a1.08 1.08 0 0 0-.37 2l14.89 6.35a4.74 4.74 0 0 0 2.96.56z" transform="translate(-.11 1.03)"/><path class="cls-10" d="M254.58 216.33l54.21-7.6a1.08 1.08 0 0 0 .38-2l-14.45-6.32a4.74 4.74 0 0 0-3-.57l-54.53 7.59a1.08 1.08 0 0 0-.37 2l14.8 6.35a4.74 4.74 0 0 0 2.96.55z" transform="translate(-.11 1.03)"/><path class="cls-10" d="M254.49 216.27l54.21-7.6a1.08 1.08 0 0 0 .38-2l-14.35-6.32a4.74 4.74 0 0 0-3-.57l-54.53 7.59a1.08 1.08 0 0 0-.37 2l14.71 6.34a4.74 4.74 0 0 0 2.95.56z" transform="translate(-.11 1.03)"/><path class="cls-10" d="M254.4 216.21l54.21-7.6a1.08 1.08 0 0 0 .38-2l-14.26-6.32a4.74 4.74 0 0 0-3-.57l-54.53 7.59a1.08 1.08 0 0 0-.37 2l14.61 6.34a4.74 4.74 0 0 0 2.96.56z" transform="translate(-.11 1.03)"/><path class="cls-10" d="M254.31 216.15l54.21-7.6a1.08 1.08 0 0 0 .38-2l-14.17-6.31a4.74 4.74 0 0 0-3-.57l-54.53 7.59a1.08 1.08 0 0 0-.37 2l14.52 6.34a4.74 4.74 0 0 0 2.96.55z" transform="translate(-.11 1.03)"/><path class="cls-10" d="M254.21 216.09l54.21-7.6a1.08 1.08 0 0 0 .38-2l-14.08-6.31a4.74 4.74 0 0 0-3-.57l-54.52 7.59a1.08 1.08 0 0 0-.37 2l14.43 6.33a4.74 4.74 0 0 0 2.95.56z" transform="translate(-.11 1.03)"/><path class="cls-10" d="M254.12 216l54.21-7.6a1.08 1.08 0 0 0 .38-2l-14-6.31a4.74 4.74 0 0 0-3-.57l-54.53 7.59a1.08 1.08 0 0 0-.37 2l14.34 6.33a4.74 4.74 0 0 0 2.97.56z" transform="translate(-.11 1.03)"/><path class="cls-10" d="M254 216l54.21-7.6a1.08 1.08 0 0 0 .38-2l-13.89-6.3a4.74 4.74 0 0 0-3-.57l-54.53 7.59a1.08 1.08 0 0 0-.37 2l14.24 6.33a4.74 4.74 0 0 0 2.96.55z" transform="translate(-.11 1.03)"/><path class="cls-10" d="M253.93 215.9l54.21-7.6a1.08 1.08 0 0 0 .38-2l-13.8-6.3a4.74 4.74 0 0 0-3-.57L237.2 207a1.08 1.08 0 0 0-.37 2l14.17 6.36a4.74 4.74 0 0 0 2.93.54z" transform="translate(-.11 1.03)"/><path class="cls-10" d="M253.84 215.84l54.21-7.6a1.08 1.08 0 0 0 .38-2l-13.71-6.3a4.74 4.74 0 0 0-3-.57L237.2 207a1.08 1.08 0 0 0-.37 2l14.06 6.32a4.74 4.74 0 0 0 2.95.52z" transform="translate(-.11 1.03)"/><path class="cls-10" d="M253.75 215.78l54.21-7.6a1.08 1.08 0 0 0 .38-2l-13.61-6.3a4.74 4.74 0 0 0-3-.57l-54.53 7.59a1.08 1.08 0 0 0-.37 2l14 6.32a4.74 4.74 0 0 0 2.92.56z" transform="translate(-.11 1.03)"/><path class="cls-10" d="M253.66 215.72l54.21-7.6a1.08 1.08 0 0 0 .38-2l-13.52-6.29a4.74 4.74 0 0 0-3-.57l-54.53 7.59a1.08 1.08 0 0 0-.37 2l13.87 6.32a4.74 4.74 0 0 0 2.96.55z" transform="translate(-.11 1.03)"/><path class="cls-10" d="M253.56 215.66l54.21-7.6a1.08 1.08 0 0 0 .38-2l-13.43-6.29a4.74 4.74 0 0 0-3-.57l-54.53 7.59a1.08 1.08 0 0 0-.37 2l13.78 6.31a4.74 4.74 0 0 0 2.96.56z" transform="translate(-.11 1.03)"/><path class="cls-10" d="M253.47 215.6l54.21-7.6a1.08 1.08 0 0 0 .38-2l-13.34-6.29a4.74 4.74 0 0 0-3-.57l-54.53 7.59a1.08 1.08 0 0 0-.37 2l13.69 6.31a4.74 4.74 0 0 0 2.96.56z" transform="translate(-.11 1.03)"/><path class="cls-10" d="M253.38 215.54l54.21-7.6a1.08 1.08 0 0 0 .38-2l-13.24-6.28a4.74 4.74 0 0 0-3-.57l-54.53 7.59a1.08 1.08 0 0 0-.37 2l13.6 6.31a4.74 4.74 0 0 0 2.95.55z" transform="translate(-.11 1.03)"/><path class="cls-10" d="M253.29 215.48l54.21-7.6a1.08 1.08 0 0 0 .38-2l-13.15-6.28a4.74 4.74 0 0 0-3-.57l-54.53 7.59a1.08 1.08 0 0 0-.37 2l13.5 6.3a4.74 4.74 0 0 0 2.96.56z" transform="translate(-.11 1.03)"/><path class="cls-10" d="M253.19 215.42l54.21-7.6a1.08 1.08 0 0 0 .38-2l-13.06-6.28a4.74 4.74 0 0 0-3-.57l-54.53 7.59a1.08 1.08 0 0 0-.37 2l13.41 6.3a4.74 4.74 0 0 0 2.96.56z" transform="translate(-.11 1.03)"/><path class="cls-10" d="M253.1 215.36l54.21-7.6a1.08 1.08 0 0 0 .38-2l-13-6.27a4.74 4.74 0 0 0-3-.57l-54.49 7.58a1.08 1.08 0 0 0-.37 2l13.32 6.3a4.74 4.74 0 0 0 2.95.56z" transform="translate(-.11 1.03)"/><path class="cls-10" d="M253 215.29l54.21-7.6a1.08 1.08 0 0 0 .38-2l-12.87-6.27a4.74 4.74 0 0 0-3-.57l-54.53 7.59a1.08 1.08 0 0 0-.37 2l13.23 6.29a4.74 4.74 0 0 0 2.95.56z" transform="translate(-.11 1.03)"/><path class="cls-10" d="M252.92 215.23l54.21-7.6a1.08 1.08 0 0 0 .38-2l-12.78-6.27a4.74 4.74 0 0 0-3-.57l-54.53 7.59a1.08 1.08 0 0 0-.37 2l13.17 6.31a4.74 4.74 0 0 0 2.92.54z" transform="translate(-.11 1.03)"/><path class="cls-10" d="M252.82 215.17l54.21-7.6a1.08 1.08 0 0 0 .38-2l-12.69-6.26a4.74 4.74 0 0 0-3-.57l-54.53 7.59a1.08 1.08 0 0 0-.37 2l13 6.29a4.74 4.74 0 0 0 3 .55z" transform="translate(-.11 1.03)"/><path class="cls-10" d="M252.73 215.11l54.21-7.6a1.08 1.08 0 0 0 .38-2l-12.6-6.26a4.74 4.74 0 0 0-3-.57l-54.53 7.59a1.08 1.08 0 0 0-.37 2l12.95 6.28a4.74 4.74 0 0 0 2.96.56z" transform="translate(-.11 1.03)"/><path class="cls-10" d="M252.64 215.05l54.21-7.6a1.08 1.08 0 0 0 .38-2l-12.5-6.26a4.74 4.74 0 0 0-3-.57l-54.53 7.59a1.08 1.08 0 0 0-.37 2l12.86 6.28a4.74 4.74 0 0 0 2.95.56z" transform="translate(-.11 1.03)"/><path class="cls-10" d="M252.55 215l54.21-7.6a1.08 1.08 0 0 0 .38-2l-12.41-6.25a4.74 4.74 0 0 0-3-.57l-54.53 7.59a1.08 1.08 0 0 0-.37 2l12.76 6.28a4.74 4.74 0 0 0 2.96.55z" transform="translate(-.11 1.03)"/><path class="cls-10" d="M252.45 214.93l54.21-7.6a1.08 1.08 0 0 0 .38-2l-12.32-6.25a4.74 4.74 0 0 0-3-.57l-54.52 7.59a1.08 1.08 0 0 0-.37 2l12.67 6.27a4.74 4.74 0 0 0 2.95.56z" transform="translate(-.11 1.03)"/><path class="cls-10" d="M252.36 214.87l54.21-7.6a1.08 1.08 0 0 0 .38-2L294.72 199a4.74 4.74 0 0 0-3-.57L237.2 206a1.08 1.08 0 0 0-.37 2l12.58 6.27a4.74 4.74 0 0 0 2.95.6z" transform="translate(-.11 1.03)"/><path class="cls-10" d="M252.27 214.81l54.21-7.6a1.08 1.08 0 0 0 .38-2L294.72 199a4.74 4.74 0 0 0-3-.57L237.2 206a1.08 1.08 0 0 0-.37 2l12.49 6.27a4.74 4.74 0 0 0 2.95.54z" transform="translate(-.11 1.03)"/><path class="cls-10" d="M252.18 214.75l54.21-7.6a1.08 1.08 0 0 0 .38-2l-12-6.24a4.74 4.74 0 0 0-3-.57l-54.53 7.59a1.08 1.08 0 0 0-.37 2l12.39 6.27a4.74 4.74 0 0 0 2.92.55z" transform="translate(-.11 1.03)"/><path class="cls-10" d="M252.08 214.68l54.21-7.6a1.08 1.08 0 0 0 .38-2l-11.95-6.24a4.74 4.74 0 0 0-3-.57l-54.53 7.59a1.08 1.08 0 0 0-.37 2l12.3 6.26a4.74 4.74 0 0 0 2.96.56z" transform="translate(-.11 1.03)"/><path class="cls-10" d="M252 214.62l54.2-7.62a1.08 1.08 0 0 0 .38-2l-11.85-6.24a4.74 4.74 0 0 0-3-.57l-54.53 7.59a1.08 1.08 0 0 0-.37 2l12.17 6.3a4.74 4.74 0 0 0 3 .54z" transform="translate(-.11 1.03)"/><path class="cls-10" d="M251.9 214.56l54.21-7.6a1.08 1.08 0 0 0 .38-2l-11.76-6.23a4.74 4.74 0 0 0-3-.57l-54.53 7.59a1.08 1.08 0 0 0-.37 2l12.12 6.25a4.74 4.74 0 0 0 2.95.56z" transform="translate(-.11 1.03)"/><path class="cls-10" d="M251.81 214.5l54.19-7.6a1.08 1.08 0 0 0 .38-2l-11.67-6.23a4.74 4.74 0 0 0-3-.57l-54.53 7.59a1.08 1.08 0 0 0-.37 2l12 6.25a4.74 4.74 0 0 0 3 .56z" transform="translate(-.11 1.03)"/><path class="cls-10" d="M251.71 214.44l54.21-7.6a1.08 1.08 0 0 0 .38-2l-11.58-6.23a4.74 4.74 0 0 0-3-.57l-54.53 7.59a1.08 1.08 0 0 0-.37 2l11.93 6.25a4.74 4.74 0 0 0 2.96.56z" transform="translate(-.11 1.03)"/><path class="cls-10" d="M251.62 214.38l54.21-7.6a1.08 1.08 0 0 0 .38-2l-11.48-6.22a4.74 4.74 0 0 0-3-.57l-54.53 7.59a1.08 1.08 0 0 0-.37 2l11.84 6.25a4.74 4.74 0 0 0 2.95.55z" transform="translate(-.11 1.03)"/><path class="cls-10" d="M251.53 214.32l54.21-7.6a1.08 1.08 0 0 0 .38-2l-11.39-6.22a4.74 4.74 0 0 0-3-.57l-54.53 7.59a1.08 1.08 0 0 0-.37 2l11.74 6.24a4.74 4.74 0 0 0 2.96.56z" transform="translate(-.11 1.03)"/><path class="cls-10" d="M251.44 214.26l54.21-7.6a1.08 1.08 0 0 0 .38-2l-11.3-6.22a4.74 4.74 0 0 0-3-.57l-54.53 7.59a1.08 1.08 0 0 0-.37 2l11.65 6.24a4.74 4.74 0 0 0 2.96.56z" transform="translate(-.11 1.03)"/><path class="cls-10" d="M251.34 214.2l54.21-7.6a1.08 1.08 0 0 0 .38-2l-11.21-6.21a4.74 4.74 0 0 0-3-.57l-54.53 7.59a1.08 1.08 0 0 0-.37 2l11.56 6.24a4.74 4.74 0 0 0 2.96.55z" transform="translate(-.11 1.03)"/><path class="cls-10" d="M251.25 214.14l54.21-7.6a1.08 1.08 0 0 0 .38-2l-11.11-6.21a4.74 4.74 0 0 0-3-.57l-54.53 7.59a1.08 1.08 0 0 0-.37 2l11.47 6.23a4.74 4.74 0 0 0 2.95.56z" transform="translate(-.11 1.03)"/><path class="cls-10" d="M251.16 214.07l54.21-7.6a1.08 1.08 0 0 0 .38-2l-11-6.21a4.74 4.74 0 0 0-3-.57l-54.53 7.59a1.08 1.08 0 0 0-.37 2l11.37 6.23a4.74 4.74 0 0 0 2.94.56z" transform="translate(-.11 1.03)"/><path class="cls-10" d="M251.06 214l54.21-7.6a1.08 1.08 0 0 0 .38-2l-10.93-6.2a4.74 4.74 0 0 0-3-.57l-54.53 7.59a1.08 1.08 0 0 0-.37 2l11.28 6.23a4.74 4.74 0 0 0 2.96.55z" transform="translate(-.11 1.03)"/><path class="cls-10" d="M251 214l54.21-7.6a1.08 1.08 0 0 0 .38-2l-10.84-6.2a4.74 4.74 0 0 0-3-.57l-54.53 7.59a1.08 1.08 0 0 0-.37 2l11.15 6.19a4.74 4.74 0 0 0 3 .59z" transform="translate(-.11 1.03)"/><path class="cls-11" d="M255.08 216.39l54.21-7.6a1.08 1.08 0 0 0 .38-2l-14.94-8.64a4.74 4.74 0 0 0-3-.57l-54.53 7.59a1.08 1.08 0 0 0-.37 2l15.3 8.66a4.74 4.74 0 0 0 2.95.56z" transform="translate(-.11 1.03)"/><ellipse class="cls-10" cx="257.76" cy="186.82" rx="26.1" ry="3.66" transform="rotate(-8.37 264.67 188.088)"/><path class="cls-10" d="M237.8 168.58v23.84l38.55-5.66v-23.37l-38.55 5.19z"/><path class="cls-12" d="M241.36 170.96v17.9l35.12-5.09v-17.44l-35.12 4.63z"/><path class="cls-10" d="M191 102.32v63.92a7 7 0 0 0 8 6.93l99.92-13.92a7 7 0 0 0 6-6.93V89.47a7 7 0 0 0-7.92-6.94l-99.9 12.85a7 7 0 0 0-6.1 6.94z" transform="translate(-.11 1.03)"/><path class="cls-10" d="M191.12 102.4v63.92a7 7 0 0 0 8 6.93L299 159.34a7 7 0 0 0 6-6.93V89.56a7 7 0 0 0-7.89-6.94l-99.89 12.84a7 7 0 0 0-6.1 6.94z" transform="translate(-.11 1.03)"/><path class="cls-10" d="M191.23 102.49v63.92a7 7 0 0 0 8 6.93l99.92-13.92a7 7 0 0 0 6-6.93V89.64a7 7 0 0 0-7.89-6.94l-99.92 12.85a7 7 0 0 0-6.11 6.94z" transform="translate(-.11 1.03)"/><path class="cls-10" d="M191.35 102.58v63.92a7 7 0 0 0 8 6.93l99.92-13.92a7 7 0 0 0 6-6.93V89.73a7 7 0 0 0-7.89-6.94l-99.93 12.85a7 7 0 0 0-6.1 6.94z" transform="translate(-.11 1.03)"/><path class="cls-10" d="M191.46 102.66v63.92a7 7 0 0 0 8 6.93l99.92-13.92a7 7 0 0 0 6-6.93V89.82a7 7 0 0 0-7.89-6.94l-99.92 12.84a7 7 0 0 0-6.11 6.94z" transform="translate(-.11 1.03)"/><path class="cls-10" d="M191.58 102.75v63.92a7 7 0 0 0 8 6.93l99.92-13.92a7 7 0 0 0 6-6.93V89.9a7 7 0 0 0-7.89-6.9l-99.93 12.81a7 7 0 0 0-6.1 6.94z" transform="translate(-.11 1.03)"/><path class="cls-10" d="M191.69 102.84v63.92a7 7 0 0 0 8 6.93l99.92-13.92a7 7 0 0 0 6-6.93V90a7 7 0 0 0-7.89-7L197.8 95.9a7 7 0 0 0-6.11 6.94z" transform="translate(-.11 1.03)"/><path class="cls-10" d="M191.81 102.92v63.92a7 7 0 0 0 8 6.93l99.92-13.92a7 7 0 0 0 6-6.93V90.08a7 7 0 0 0-7.89-6.94L197.91 96a7 7 0 0 0-6.1 6.92z" transform="translate(-.11 1.03)"/><path class="cls-10" d="M191.93 103v63.92a7 7 0 0 0 8 6.93l99.92-13.92a7 7 0 0 0 6-6.93V90.16a7 7 0 0 0-7.85-6.94L198 96.07a7 7 0 0 0-6.07 6.93z" transform="translate(-.11 1.03)"/><path class="cls-10" d="M192 103.1V167a7 7 0 0 0 8 6.93L299.93 160a7 7 0 0 0 6-6.93V90.25a7 7 0 0 0-7.89-6.94l-99.89 12.85a7 7 0 0 0-6.15 6.94z" transform="translate(-.11 1.03)"/><path class="cls-10" d="M192.16 103.18v63.92a7 7 0 0 0 8 6.93L300 160.12a7 7 0 0 0 6-6.93V90.34a7 7 0 0 0-7.89-6.94l-99.85 12.84a7 7 0 0 0-6.1 6.94z" transform="translate(-.11 1.03)"/><path class="cls-10" d="M192.27 103.27v63.92a7 7 0 0 0 8 6.93l99.92-13.92a7 7 0 0 0 6-6.93V90.42a7 7 0 0 0-7.89-6.94l-99.92 12.85a7 7 0 0 0-6.11 6.94z" transform="translate(-.11 1.03)"/><path class="cls-10" d="M192.39 103.36v63.92a7 7 0 0 0 8 6.93l99.92-13.92a7 7 0 0 0 6-6.93V90.51a7 7 0 0 0-7.89-6.94l-99.93 12.85a7 7 0 0 0-6.1 6.94z" transform="translate(-.11 1.03)"/><path class="cls-10" d="M192.5 103.44v63.92a7 7 0 0 0 8 6.93l99.92-13.92a7 7 0 0 0 6-6.93V90.6a7 7 0 0 0-7.89-6.94L198.61 96.5a7 7 0 0 0-6.11 6.94z" transform="translate(-.11 1.03)"/><path class="cls-10" d="M192.62 103.53v63.92a7 7 0 0 0 8 6.93l99.92-13.92a7 7 0 0 0 6-6.93V90.68a7 7 0 0 0-7.89-6.94l-99.93 12.85a7 7 0 0 0-6.1 6.94z" transform="translate(-.11 1.03)"/><path class="cls-10" d="M192.74 103.62v63.92a7 7 0 0 0 8 6.93l99.92-13.92a7 7 0 0 0 6-6.93V90.77a7 7 0 0 0-7.89-6.94l-99.93 12.85a7 7 0 0 0-6.1 6.94z" transform="translate(-.11 1.03)"/><path class="cls-10" d="M192.85 103.71v63.92a7 7 0 0 0 8 6.93l99.92-13.92a7 7 0 0 0 6-6.93V90.86a7 7 0 0 0-7.89-6.94L199 96.76a7 7 0 0 0-6.15 6.95z" transform="translate(-.11 1.03)"/><path class="cls-10" d="M193 103.79v63.92a7 7 0 0 0 8 6.93l99.92-13.92a7 7 0 0 0 6-6.93V90.94A7 7 0 0 0 299 84l-99.93 12.85a7 7 0 0 0-6.07 6.94z" transform="translate(-.11 1.03)"/><path class="cls-10" d="M193.08 103.88v63.92a7 7 0 0 0 8 6.93L301 160.81a7 7 0 0 0 6-6.93V91a7 7 0 0 0-7.89-6.94l-99.92 12.88a7 7 0 0 0-6.11 6.94z" transform="translate(-.11 1.03)"/><path class="cls-10" d="M193.2 104v63.92a7 7 0 0 0 8 6.93l99.92-13.92a7 7 0 0 0 6-6.93V91.12a7 7 0 0 0-7.89-6.94L199.3 97a7 7 0 0 0-6.1 7z" transform="translate(-.11 1.03)"/><path class="cls-10" d="M193.31 104.05V168a7 7 0 0 0 8 6.93L301.2 161a7 7 0 0 0 6-6.93V91.2a7 7 0 0 0-7.89-6.94l-99.89 12.85a7 7 0 0 0-6.11 6.94z" transform="translate(-.11 1.03)"/><path class="cls-10" d="M193.43 104.14v63.92a7 7 0 0 0 8 6.93l99.92-13.92a7 7 0 0 0 6-6.93V91.29a7 7 0 0 0-7.89-6.94L199.54 97.2a7 7 0 0 0-6.11 6.94z" transform="translate(-.11 1.03)"/><path class="cls-10" d="M193.55 104.23v63.92a7 7 0 0 0 8 6.93l99.92-13.92a7 7 0 0 0 6-6.93V91.38a7 7 0 0 0-7.89-6.94l-99.93 12.85a7 7 0 0 0-6.1 6.94z" transform="translate(-.11 1.03)"/><path class="cls-10" d="M193.66 104.31v63.92a7 7 0 0 0 8 6.93l99.92-13.92a7 7 0 0 0 6-6.93V91.47a7 7 0 0 0-7.89-6.94l-99.92 12.84a7 7 0 0 0-6.11 6.94z" transform="translate(-.11 1.03)"/><path class="cls-10" d="M193.78 104.4v63.92a7 7 0 0 0 8 6.93l99.92-13.92a7 7 0 0 0 6-6.93V91.55a7 7 0 0 0-7.89-6.94l-99.93 12.85a7 7 0 0 0-6.1 6.94z" transform="translate(-.11 1.03)"/><path class="cls-10" d="M193.89 104.49v63.92a7 7 0 0 0 8 6.93l99.92-13.92a7 7 0 0 0 6-6.93V91.64a7 7 0 0 0-7.89-6.94L200 97.55a7 7 0 0 0-6.11 6.94z" transform="translate(-.11 1.03)"/><path class="cls-10" d="M194 104.57v63.92a7 7 0 0 0 8 6.93l99.92-13.92a7 7 0 0 0 6-6.93V91.73a7 7 0 0 0-7.92-6.94l-99.89 12.84a7 7 0 0 0-6.11 6.94z" transform="translate(-.11 1.03)"/><path class="cls-10" d="M194.12 104.66v63.92a7 7 0 0 0 8 6.93L302 161.59a7 7 0 0 0 6-6.93V91.81a7 7 0 0 0-7.89-6.94l-99.88 12.85a7 7 0 0 0-6.11 6.94z" transform="translate(-.11 1.03)"/><path class="cls-10" d="M194.24 104.75v63.92a7 7 0 0 0 8 6.93l99.92-13.92a7 7 0 0 0 6-6.93V91.9a7 7 0 0 0-7.89-6.9l-99.92 12.81a7 7 0 0 0-6.11 6.94z" transform="translate(-.11 1.03)"/><path class="cls-10" d="M194.36 104.83v63.92a7 7 0 0 0 8 6.93l99.92-13.92a7 7 0 0 0 6-6.93V92a7 7 0 0 0-7.89-7l-99.93 12.89a7 7 0 0 0-6.1 6.94z" transform="translate(-.11 1.03)"/><path class="cls-10" d="M194.47 104.92v63.92a7 7 0 0 0 8 6.93l99.92-13.92a7 7 0 0 0 6-6.93V92.07a7 7 0 0 0-7.89-6.94L200.58 98a7 7 0 0 0-6.11 6.92z" transform="translate(-.11 1.03)"/><path class="cls-10" d="M194.59 105v63.92a7 7 0 0 0 8 6.93l99.92-13.92a7 7 0 0 0 6-6.93V92.16a7 7 0 0 0-7.89-6.94l-99.93 12.85a7 7 0 0 0-6.1 6.93z" transform="translate(-.11 1.03)"/><path class="cls-10" d="M194.7 105.09V169a7 7 0 0 0 8 6.93L302.59 162a7 7 0 0 0 6-6.93V92.25a7 7 0 0 0-7.89-6.94l-99.89 12.84a7 7 0 0 0-6.11 6.94z" transform="translate(-.11 1.03)"/><path class="cls-10" d="M194.82 105.18v63.92a7 7 0 0 0 8 6.93l99.92-13.92a7 7 0 0 0 6-6.93V92.33a7 7 0 0 0-7.89-6.94l-99.93 12.85a7 7 0 0 0-6.1 6.94z" transform="translate(-.11 1.03)"/><path class="cls-10" d="M194.93 105.27v63.92a7 7 0 0 0 8 6.93l99.92-13.92a7 7 0 0 0 6-6.93V92.42a7 7 0 0 0-7.85-6.94L201 98.33a7 7 0 0 0-6.07 6.94z" transform="translate(-.11 1.03)"/><path class="cls-10" d="M195.05 105.35v63.92a7 7 0 0 0 8 6.93l99.92-13.92a7 7 0 0 0 6-6.93V92.51a7 7 0 0 0-7.89-6.94l-99.92 12.84a7 7 0 0 0-6.11 6.94z" transform="translate(-.11 1.03)"/><path class="cls-10" d="M195.17 105.44v63.92a7 7 0 0 0 8 6.93l99.92-13.92a7 7 0 0 0 6-6.93V92.59a7 7 0 0 0-7.89-6.94L201.27 98.5a7 7 0 0 0-6.1 6.94z" transform="translate(-.11 1.03)"/><path class="cls-10" d="M195.28 105.53v63.92a7 7 0 0 0 8 6.93l99.92-13.92a7 7 0 0 0 6-6.93V92.68a7 7 0 0 0-7.89-6.94l-99.92 12.85a7 7 0 0 0-6.11 6.94z" transform="translate(-.11 1.03)"/><path class="cls-10" d="M195.4 105.61v63.92a7 7 0 0 0 8 6.93l99.92-13.92a7 7 0 0 0 6-6.93V92.77a7 7 0 0 0-7.89-6.94L201.5 98.67a7 7 0 0 0-6.1 6.94z" transform="translate(-.11 1.03)"/><path class="cls-10" d="M195.51 105.7v63.92a7 7 0 0 0 8 6.93l99.92-13.92a7 7 0 0 0 6-6.93V92.85a7 7 0 0 0-7.89-6.94l-99.92 12.85a7 7 0 0 0-6.11 6.94z" transform="translate(-.11 1.03)"/><path class="cls-10" d="M195.63 105.79v63.92a7 7 0 0 0 8 6.93l99.92-13.92a7 7 0 0 0 6-6.93V92.94a7 7 0 0 0-7.89-6.94l-99.93 12.85a7 7 0 0 0-6.1 6.94z" transform="translate(-.11 1.03)"/><path class="cls-10" d="M195.75 105.88v63.92a7 7 0 0 0 8 6.93l99.92-13.92a7 7 0 0 0 6-6.93V93a7 7 0 0 0-7.89-6.94l-99.93 12.88a7 7 0 0 0-6.1 6.94z" transform="translate(-.11 1.03)"/><path class="cls-12" d="M195.75 105.88v63.92a7 7 0 0 0 8 6.93l100.14-12.84a7 7 0 0 0 6-6.93L309.66 93a7 7 0 0 0-7.89-6.94l-99.92 12.88a7 7 0 0 0-6.1 6.94z" transform="translate(-.11 1.03)"/><path class="cls-11" d="M201.56 105.84v66.25l101.39-12.78-.03-66.06-101.36 12.59zM227.24 10.21v66.25L328.6 65.03V0L227.24 10.21zM102.62 106.63l-57.46 7.38 1.4-34.45 57.46-6.19-1.4 33.26zM175.77 141.94l-57.45 7.38 1.4-34.45 57.45-6.19-1.4 33.26z"/><path class="cls-11" d="M227.24 10.21v66.25L328.6 65.03V0L227.24 10.21z"/><rect class="cls-11" x="218.42" y="207.86" width="11.84" height="18.7" rx="4.99" ry="4.99" transform="rotate(-42.49 225.595 217.854)"/><path class="cls-11" d="M102.62 106.63l-57.46 7.38 1.4-34.45 57.46-6.19-1.4 33.26z"/><path class="cls-13" d="M69.47 92.29l-18.36 2.36.45-11.01 18.36-1.98-.45 10.63z"/><path class="cls-14" d="M99.2 88.84l-23.04 2.89.44-11.01 23.04-2.51-.44 10.63z"/><path class="cls-15" d="M99.2 103.66l-13.56 1.85.45-11.01 13.55-1.47-.44 10.63z"/><path class="cls-7" d="M79.74 105.24l-28 3.61a.81.81 0 0 1-.92-.84l.38-9.35a.81.81 0 0 1 .72-.77l28-3.25a.81.81 0 0 1 .91.84l-.38 9a.81.81 0 0 1-.71.76z" transform="translate(-.11 1.03)"/><path class="cls-10" d="M162.19 200.55L163 163a6.58 6.58 0 0 0-7.45-5.73l-54.66 7.06a6.58 6.58 0 0 0-5.73 7.45l-.84 37.47zM162.29 202.75l16.6 13.25a1.83 1.83 0 0 1-.86 3.29l-62.15 8.88a6 6 0 0 1-4.07-.89L94.71 212z" transform="translate(-.11 1.03)"/><path class="cls-10" d="M162.28 202.65l16.66 13.22a1.83 1.83 0 0 1-.86 3.29L115.94 228a6 6 0 0 1-4.07-.89L94.7 211.85z" transform="translate(-.11 1.03)"/><path class="cls-10" d="M162.27 202.59l16.66 13.22a1.83 1.83 0 0 1-.86 3.29l-62.14 8.9a6 6 0 0 1-4.07-.89L94.7 211.79z" transform="translate(-.11 1.03)"/><path class="cls-10" d="M162.27 202.54L179 215.75a1.83 1.83 0 0 1-.86 3.29l-62.21 8.83a6 6 0 0 1-4.07-.89l-17.23-15.29z" transform="translate(-.11 1.03)"/><path class="cls-10" d="M162.26 202.43L179 215.64a1.83 1.83 0 0 1-.86 3.29L116 227.81a6 6 0 0 1-4.07-.89l-17.25-15.35z" transform="translate(-.11 1.03)"/><path class="cls-10" d="M162.25 202.37L179 215.58a1.83 1.83 0 0 1-.86 3.29L116 227.75a6 6 0 0 1-4.07-.89l-17.26-15.34z" transform="translate(-.11 1.03)"/><path class="cls-10" d="M162.25 202.32L179 215.53a1.83 1.83 0 0 1-.86 3.29L116 227.7a6 6 0 0 1-4.07-.89l-17.26-15.34z" transform="translate(-.11 1.03)"/><path class="cls-10" d="M162.24 202.21l16.83 13.21a1.83 1.83 0 0 1-.86 3.29l-62.15 8.88a6 6 0 0 1-4.07-.89l-17.33-15.34z" transform="translate(-.11 1.03)"/><path class="cls-10" d="M162.23 202.15l16.83 13.21a1.83 1.83 0 0 1-.86 3.29l-62.15 8.88a6 6 0 0 1-4.07-.89l-17.4-15.38z" transform="translate(-.11 1.03)"/><path class="cls-10" d="M162.22 202l16.88 13.2a1.83 1.83 0 0 1-.86 3.29l-62.15 8.88a6 6 0 0 1-4.07-.89l-17.4-15.38z" transform="translate(-.11 1.03)"/><path class="cls-10" d="M162.22 202l16.88 13.2a1.83 1.83 0 0 1-.86 3.29l-62.15 8.88a6 6 0 0 1-4.07-.89l-17.44-15.39z" transform="translate(-.11 1.03)"/><path class="cls-10" d="M162.21 201.93l16.94 13.2a1.83 1.83 0 0 1-.86 3.29l-62.21 8.83a6 6 0 0 1-4.07-.89L94.57 211z" transform="translate(-.11 1.03)"/><path class="cls-10" d="M162.2 201.82L179.14 215a1.83 1.83 0 0 1-.86 3.29l-62.15 8.88a6 6 0 0 1-4.07-.89l-17.5-15.41z" transform="translate(-.11 1.03)"/><path class="cls-10" d="M162.2 201.77l17 13.19a1.83 1.83 0 0 1-.86 3.29l-62.15 8.88a6 6 0 0 1-4.07-.89l-17.51-15.43z" transform="translate(-.11 1.03)"/><path class="cls-10" d="M162.14 201.72l17 13.19a1.83 1.83 0 0 1-.86 3.29l-62.15 8.88a6 6 0 0 1-4.07-.89L94.54 210.7z" transform="translate(-.11 1.03)"/><path class="cls-10" d="M162.13 201.61l17 13.19a1.83 1.83 0 0 1-.86 3.29l-62.1 8.91a6 6 0 0 1-4.07-.89l-17.56-15.46z" transform="translate(-.11 1.03)"/><path class="cls-10" d="M162.12 201.55l17.1 13.18a1.83 1.83 0 0 1-.86 3.29l-62.15 8.88a6 6 0 0 1-4.07-.89l-17.61-15.47z" transform="translate(-.11 1.03)"/><path class="cls-10" d="M162.12 201.5l17.1 13.18a1.83 1.83 0 0 1-.86 3.29l-62.15 8.88a6 6 0 0 1-4.07-.89l-17.62-15.48z" transform="translate(-.11 1.03)"/><path class="cls-10" d="M162.11 201.39l17.15 13.18a1.83 1.83 0 0 1-.86 3.29l-62.15 8.88a6 6 0 0 1-4.07-.89l-17.67-15.48z" transform="translate(-.11 1.03)"/><path class="cls-10" d="M162.1 201.33l17.15 13.18a1.83 1.83 0 0 1-.86 3.29l-62.15 8.88a6 6 0 0 1-4.07-.89l-17.72-15.47z" transform="translate(-.11 1.03)"/><path class="cls-10" d="M162.1 201.28l17.21 13.17a1.83 1.83 0 0 1-.86 3.29l-62.15 8.88a6 6 0 0 1-4.07-.89l-17.8-15.56z" transform="translate(-.11 1.03)"/><path class="cls-10" d="M162.09 201.17l17.21 13.17a1.83 1.83 0 0 1-.86 3.29l-62.15 8.88a6 6 0 0 1-4.07-.89L94.43 210.1z" transform="translate(-.11 1.03)"/><path class="cls-10" d="M162.08 201.11l17.26 13.17a1.83 1.83 0 0 1-.86 3.29l-62.15 8.82a6 6 0 0 1-4.07-.89L94.47 210z" transform="translate(-.11 1.03)"/><path class="cls-10" d="M162.07 201l17.26 13.17a1.83 1.83 0 0 1-.86 3.29l-62.15 8.88a6 6 0 0 1-4.07-.89l-17.85-15.5z" transform="translate(-.11 1.03)"/><path class="cls-10" d="M162.07 201l17.32 13.16a1.83 1.83 0 0 1-.86 3.29l-62.15 8.88a6 6 0 0 1-4.07-.89l-17.85-15.62z" transform="translate(-.11 1.03)"/><path class="cls-10" d="M162.06 200.9l17.37 13.16a1.83 1.83 0 0 1-.86 3.29l-62.15 8.88a6 6 0 0 1-4.07-.89l-17.9-15.57z" transform="translate(-.11 1.03)"/><path class="cls-10" d="M162 200.79l17.37 13.1a1.83 1.83 0 0 1-.86 3.29l-62.14 8.93a6 6 0 0 1-4.07-.89l-17.86-15.56z" transform="translate(-.11 1.03)"/><path class="cls-10" d="M162 200.73l17.42 13.1a1.83 1.83 0 0 1-.86 3.29L116.47 226a6 6 0 0 1-4.07-.89l-18-15.55z" transform="translate(-.11 1.03)"/><path class="cls-10" d="M162 200.68l17.42 13.1a1.83 1.83 0 0 1-.86 3.29l-62.15 8.88a6 6 0 0 1-4.07-.89l-18-15.6z" transform="translate(-.11 1.03)"/><path class="cls-10" d="M162 200.57l17.48 13.09a1.83 1.83 0 0 1-.86 3.29l-62.15 8.88a6 6 0 0 1-4.07-.89l-18-15.6z" transform="translate(-.11 1.03)"/><path class="cls-10" d="M162 200.51l17.5 13.09a1.83 1.83 0 0 1-.86 3.29l-62.15 8.88a6 6 0 0 1-4.07-.89l-18.07-15.6z" transform="translate(-.11 1.03)"/><path class="cls-10" d="M162 200.46l17.53 13.09a1.83 1.83 0 0 1-.86 3.29l-62.15 8.88a6 6 0 0 1-4.07-.89L94.4 209.22z" transform="translate(-.11 1.03)"/><path class="cls-16" d="M162 200.46l17.53 13.09a1.83 1.83 0 0 1-.86 3.29l-62.15 8.88a6 6 0 0 1-4.07-.89L94.4 209.22z" transform="translate(-.11 1.03)"/><path class="cls-11" d="M156.16 196.82l-57.45 7.37 1.4-33.25 57.45-7.38-1.4 33.26z"/><path class="cls-16" d="M139.24 222.6l9.68-1.23a.74.74 0 0 0 .64-.83L138.4 222a.78.78 0 0 0 .84.6z" transform="translate(-.11 1.03)"/><path class="cls-10" d="M160.09 203.92l-59.15 7.65 9.05 7.51 59.64-7.69-9.54-7.47z"/><path class="cls-17" d="M146.62 215.11l-12.68 1.62a.4.4 0 0 0-.21.68l2.46 2a.42.42 0 0 0 .28.08l12.85-1.64a.4.4 0 0 0 .21-.68l-2.62-2a.42.42 0 0 0-.29-.06z" transform="translate(-.11 1.03)"/><path class="cls-18" d="M101.92 203.74l.88-27.71 3.91-.34-.84 27.51-3.95.54z"/><path class="cls-19" d="M107.89 203.1l.59-20.1 3.91-.35-.55 19.91-3.95.54zM119.89 201.52l.6-20.1 3.9-.35-.54 19.91-3.96.54z"/><path class="cls-18" d="M137.48 199.2l.49-17.09 3.91-.35-.45 16.9-3.95.54z"/><path class="cls-19" d="M143.65 198.46l.55-19.66 3.9-.35-.5 19.46-3.95.55z"/><path class="cls-18" d="M149.78 197.67l.69-23.32 3.9-.34-.64 23.11-3.95.55zM125.82 200.78l.4-14.32 3.9-.35-.35 14.13-3.95.54z"/><path class="cls-19" d="M131.7 200.04l.3-9.98 3.9-.34-.25 9.78-3.95.54z"/><path class="cls-18" d="M113.92 202.36l.64-23.96 3.9-.34-.59 23.76-3.95.54z"/><path class="cls-20" d="M206.88 110.17v26.52l49.99-6.13v-26.82l-49.99 6.43zM206.88 141.88v26.52l92.51-11.75v-26.83l-92.51 12.06z"/><path class="cls-21" d="M261.16 103.45v26.52l36.75-4.3V98.85l-36.75 4.6z"/><path class="cls-7" d="M235.63 16.22l-.14 14.21a1 1 0 0 0 1.15 1l30.46-3.53a1 1 0 0 0 .92-1l.1-13.73a1 1 0 0 0-1.14-1l-30.42 3a1 1 0 0 0-.93 1.05z" transform="translate(-.11 1.03)"/><path class="cls-21" d="M235.48 38.72l.05 15.38 32.53-3.77-.04-15.57-32.54 3.96z"/><path class="cls-15" d="M235.48 60.95l-.11 9.01 59.76-6.8.12-9.21-59.77 7z"/><path class="cls-13" d="M301.73 9.67l-.11 16.42 20.45-2.07.11-16.62-20.45 2.27z"/><path class="cls-22" d="M301.73 33.08l-.11 28.87 20.45-2.07.11-29.06-20.45 2.26z"/><path class="cls-19" d="M274 12.45v35.57a1.07 1.07 0 0 0 1.18 1.06l19.28-2.13a1.07 1.07 0 0 0 1-1.06V10.15a1.07 1.07 0 0 0-1.19-1.06L275 11.39a1.07 1.07 0 0 0-1 1.06z" transform="translate(-.11 1.03)"/><path class="cls-18" d="M232.27 125.38v3.5l21.11-2.37v-3.5l-21.11 2.37zM232.27 118.86v3.5l21.11-2.37v-3.5l-21.11 2.37zM232.27 112.34v3.5l21.11-2.37v-3.5l-21.11 2.37z"/><ellipse class="cls-18" cx="219.4" cy="122.56" rx="8.97" ry="9.76"/><path class="cls-7" d="M219.51 121.53l9-.43c-.2-5.19-4.12-9.35-8.94-9.35-.34.01-.06 9.78-.06 9.78z" transform="translate(-.11 1.03)"/><path class="cls-18" d="M207 166.34l9.36-19.34a.59.59 0 0 1 1.06 0l5.48 10.43 3.92-7.25a.59.59 0 0 1 .48-.31.58.58 0 0 1 .52.24l7 9.43 6.62-14.29a.59.59 0 0 1 .47-.34.6.6 0 0 1 .53.23l6.63 8.59 3.47-8.74a.59.59 0 0 1 1.05-.1l3.22 5.11 4.54-9.16a.59.59 0 0 1 .5-.33.57.57 0 0 1 .53.27l6.26 9.88 6.42-12.84a.59.59 0 0 1 .49-.33.56.56 0 0 1 .53.26l6 9 7.13-12.13a.59.59 0 1 1 1 .6l-7.61 12.94a.59.59 0 0 1-.49.29.66.66 0 0 1-.51-.26l-6-9-6.43 12.87a.59.59 0 0 1-.5.33.57.57 0 0 1-.53-.27L262 142.3l-4.55 9.16a.59.59 0 0 1-.5.33.57.57 0 0 1-.53-.28l-3.16-5-3.42 8.62a.59.59 0 0 1-.47.37.61.61 0 0 1-.55-.22l-6.66-8.64-6.63 14.3a.59.59 0 0 1-1 .11l-7.08-9.48-4 7.41a.59.59 0 0 1-.52.31.59.59 0 0 1-.52-.32l-5.46-10.37-9 18.67-.89.12z" transform="translate(-.11 1.03)"/><path class="cls-23" d="M265.16 342.56l-.77-5.53 15.16-2.44 3.86 24.67a1.77 1.77 0 0 1-1.49 2.08l-37.22 5.53a1.77 1.77 0 0 1-2.08-1.49c-1.25-7.67-2.32-13 11.18-16.76l8.26-1.84a3.83 3.83 0 0 0 3.1-4.22z" transform="translate(-.11 1.03)"/><path class="cls-24" d="M259.91 317.49c-4.58-25-6.48-35.31-1-43 3.8-5.41 9.69-7 15-7.85l1.25-.18c10.76-1.78 25.56-4.16 57.25-6.9l1.49 17.42c-31 2.68-45.42 5-55.94 6.72l-1.31.24a16.19 16.19 0 0 0-3.51.83c-.83 3.45 1.49 16.17 3.92 29.61 1.49 8.2 1.34 8.57 3.36 20.88L263.15 338c-2.02-12.18-1.82-12.42-3.24-20.51z" transform="translate(-.11 1.03)"/><path class="cls-25" d="M277 314.28c-2.5-13.44-4.82-26.16-3.92-29.61a18.14 18.14 0 0 1 3.51-.83l1.31-.24c10.52-1.66 24.91-4 55.94-6.72l-1.49-17.42c-31.69 2.73-46.43 5.11-57.25 6.9l-1.25.18c-5.29.89-11.18 2.5-15 7.85-5.41 7.79-3.57 18.07 1 43z" transform="translate(-.11 1.03)"/><path class="cls-23" d="M242.06 360.13l-.77-5.53 15.16-2.44 3.86 24.67a1.77 1.77 0 0 1-1.49 2.08l-37.22 5.53a1.77 1.77 0 0 1-2.08-1.49c-1.25-7.67-2.32-13 11.18-16.76l8.26-1.84a3.79 3.79 0 0 0 3.1-4.22z" transform="translate(-.11 1.03)"/><path class="cls-24" d="M238.15 345.08c-3.33-21.28-5.47-35.37-6.18-45.24-.65-9.45-.24-17.18 3.92-24.26 7.91-13.5 29-15.93 75.26-21.22l3.75-.42 2 17.36-3.75.42c-20.09 2.32-36 4.16-46.85 6.48-12.07 2.62-14.74 5.23-15.34 6.24-3.63 6.12-1.43 20.27 4.46 58 1.07 6.9.38 2.45 1.69 11.19l-17.24 2.62c-1.34-8.72-.59-4.25-1.72-11.17z" transform="translate(-.11 1.03)"/><path class="cls-26" d="M255.39 342.4c-5.83-37.75-8-51.84-4.46-58 .59-1 3.27-3.63 15.34-6.24 10.88-2.38 26.75-4.16 46.85-6.48l3.75-.42-2-17.36-3.75.42c-46.25 5.29-67.36 7.73-75.26 21.22-4.16 7.07-4.58 14.8-3.92 24.26.65 9.93 2.85 24 6.18 45.24z" transform="translate(-.11 1.03)"/><path class="cls-27" d="M310.14 192.82l-9.33-22.71c-5.47 1-13.08.06-16.23-18.25-3.63-20.93-7.85-27.35 16-30.08 20.93-2.38 21.7 10.23 19.74 24a32.68 32.68 0 0 0 .59 12l.65 2.62 7.78 26.6z" transform="translate(-.11 1.03)"/><path class="cls-27" d="M286.12 157.15c-4.28 2.44-4.76-1.25-4-2.68a9.85 9.85 0 0 0 2.14-4.7z" transform="translate(-.11 1.03)"/><path class="cls-23" d="M321.39 138.43c3.16-20.55-11.24-23.31-27.74-22.23s-18.47 9.23-17.83 13.44c.79 5.19 7.26 6.77 17.3 7.89 6.92.77 7.43 11.77 7.43 11.77l2.12-.13c-.12-2.73 1.22-6 5.07-5.22 4.7 1 4.54 11.06 4.54 11.06l8.25.49a56.41 56.41 0 0 1 .86-17.07z" transform="translate(-.11 1.03)"/><path class="cls-28" d="M286.48 200.14s11.89 21.94 14.39 36.74c1.61 9.69-1.49 24.32-3.86 33.23a6.25 6.25 0 0 0 6.06 7.85l19-.3a33.33 33.33 0 0 0 32.6-36.66l-4.76-46.61a23.66 23.66 0 0 0-26.22-21l-33.47 3.86z" transform="translate(-.11 1.03)"/><path class="cls-17" d="M317.28 369.81v-87.75a3.86 3.86 0 0 1 3.86-3.86 3.86 3.86 0 0 1 3.86 3.86v87.69a3.86 3.86 0 0 1-3.86 3.86 3.84 3.84 0 0 1-3.86-3.8z" transform="translate(-.11 1.03)"/><path class="cls-29" d="M317.28 369.81v-87.75a3.86 3.86 0 0 1 3.86-3.86 3.86 3.86 0 0 1 3.86 3.86v87.69a3.86 3.86 0 0 1-3.86 3.86 3.84 3.84 0 0 1-3.86-3.8z" transform="translate(-.11 1.03)"/><path class="cls-16" d="M272.39 280.57a8.63 8.63 0 0 1 7.43-8.74l20.57-.06c6.84-.59 13-6.06 13.08-17.06.71-52.55-7.91-49.82 22-50.18 30.91-.36 34.12-5.41 33.17 17.89-2.08 51.37 4.34 63.37-14.8 66.17-7.85 1.13-53.51.71-72.29.65-4.93 0-9.1-3.45-9.21-8.32z" transform="translate(-.11 1.03)"/><circle class="cls-23" cx="353.67" cy="365.91" r="4.16" transform="rotate(-13.42 357.82 366.76)"/><circle class="cls-23" cx="288.89" cy="381.35" r="4.16" transform="rotate(-13.42 293.054 382.192)"/><circle class="cls-23" cx="302.96" cy="355.91" r="4.16"/><path class="cls-17" d="M284.7 379.85a3.15 3.15 0 0 0 3.8 2.32l66.35-15.81a3.15 3.15 0 0 0 2.32-3.8 3.15 3.15 0 0 0-3.8-2.32L287 376a3.08 3.08 0 0 0-2.3 3.85z" transform="translate(-.11 1.03)"/><circle class="cls-23" cx="339.76" cy="392.47" r="4.16"/><path class="cls-17" d="M300.57 350.37a3.12 3.12 0 0 0 0 4.46L337.79 392a3.12 3.12 0 0 0 4.46 0 3.12 3.12 0 0 0 0-4.46L305 350.37a3.12 3.12 0 0 0-4.43 0z" transform="translate(-.11 1.03)"/><path class="cls-30" d="M224.41 222.85a6.25 6.25 0 1 1 8-9.63c6.9 5.71 18.49 15.34 21.94 14.8 2.14-.3 6.36-6.6 10.76-13.26a332 332 0 0 1 24.43-33 6.24 6.24 0 0 1 9.51 8.09 326.79 326.79 0 0 0-23.54 31.87c-7.25 11-11.65 17.6-19.32 18.73a13 13 0 0 1-2.14.18c-7.4-.01-15.13-5.78-29.64-17.78z" transform="translate(-.11 1.03)"/><path class="cls-27" d="M224.41 222.85a6.25 6.25 0 1 1 8-9.63c6.9 5.71 18.49 15.34 21.94 14.8 2.14-.3 6.36-6.6 10.76-13.26a332 332 0 0 1 24.43-33 6.24 6.24 0 0 1 9.51 8.09 326.79 326.79 0 0 0-23.54 31.87c-7.25 11-11.65 17.6-19.32 18.73a13 13 0 0 1-2.14.18c-7.4-.01-15.13-5.78-29.64-17.78z" transform="translate(-.11 1.03)"/><path class="cls-28" d="M274.59 223.56a2.25 2.25 0 0 0 3.15-.3 146.92 146.92 0 0 0 11-16.88c3.57-6.06 7-11.77 10.46-15.64a8.72 8.72 0 0 0-.65-12.43 8.87 8.87 0 0 0-12.37.83c-4.7 5.17-8.68 11.95-12.48 18.43a134.27 134.27 0 0 1-9.28 14.43 2.22 2.22 0 0 0 .3 3z" transform="translate(-.11 1.03)"/><path class="cls-11" d="M175.77 141.94l-57.45 7.38 1.4-34.45 57.45-6.19-1.4 33.26z"/><path class="cls-14" d="M171.29 125.38l-25.02 2.76.1-11.7 25.41-2.58-.49 11.52z"/><path class="cls-15" d="M124.71 118.66l-.63 26.24 17.45-2.09.38-26.08-17.2 1.93z"/><path class="cls-21" d="M170.31 129l-22.85 2.54a.8.8 0 0 0-.71.76l-.29 7.87a.8.8 0 0 0 .89.82l22.82-2.73a.8.8 0 0 0 .7-.76l.31-7.68a.8.8 0 0 0-.87-.82z" transform="translate(-.11 1.03)"/><path class="cls-5" d="M94.93 176.5l-22.54 2.79a5.08 5.08 0 0 1-5.71-5v-65.12" transform="translate(-.11 1.03)"/><circle class="cls-11" cx="136.59" cy="83.17" r="6.33" transform="rotate(-84.95 137.088 83.746)"/><path class="cls-21" d="M137.34 85.07v1.46h-1.48v-1.46zm-.14-5.3v1.82l-.32 2.92h-.67l-.41-2.91v-1.82z" transform="translate(-.11 1.03)"/></g></g></svg>