<?xml version="1.0" encoding="utf-8"?>
<!-- Generator: Adobe Illustrator 16.0.0, SVG Export Plug-In . SVG Version: 6.00 Build 0)  -->
<!DOCTYPE svg PUBLIC "-//W3C//DTD SVG 1.1//EN" "http://www.w3.org/Graphics/SVG/1.1/DTD/svg11.dtd">
<svg version="1.1" xmlns="http://www.w3.org/2000/svg" xmlns:xlink="http://www.w3.org/1999/xlink" x="0px" y="0px" width="300px"
	 height="180px" viewBox="0 0 300 180" enable-background="new 0 0 300 180" xml:space="preserve">
<g id="Layer_1" display="none">
	<g id="_x33_QFFtf_1_" display="inline">
		<g>
			<path fill-rule="evenodd" clip-rule="evenodd" fill="#555555" d="M120.52,107.851c-0.033,0.602-0.08,1.461-0.13,2.404
				c-2.762,0-5.438,0-8.271,0c0-13.413,0-26.8,0-40.303c2.872,0,5.663,0,8.689,0c0,3.955,0,7.905,0,11.934
				c0.396-0.043,0.591-0.006,0.705-0.086c8.913-6.243,20.6-1.616,22.798,9.071c0.965,4.695,0.462,9.231-2.03,13.411
				c-3.107,5.213-9.311,8.129-15.218,6.756C124.784,110.509,122.741,108.968,120.52,107.851z M128.157,87.415
				c-4.282,0.01-7.611,3.427-7.584,7.788c0.025,4.305,3.353,7.725,7.501,7.711c4.221-0.015,7.625-3.519,7.607-7.828
				C135.662,90.823,132.31,87.405,128.157,87.415z"/>
			<path fill-rule="evenodd" clip-rule="evenodd" fill="#555555" d="M84.385,110.257c-2.728,0-5.4,0-8.21,0
				c-0.079-0.803-0.156-1.585-0.249-2.521c-1.032,0.807-1.884,1.678-2.906,2.237c-8.324,4.563-19.604-0.992-21.471-10.585
				c-0.999-5.133-0.484-10.056,2.643-14.439c3.78-5.298,11.546-7.652,17.603-5.242c1.464,0.583,2.709,1.715,4.123,2.638
				c0.068-0.565,0.16-1.328,0.265-2.191c2.73,0,5.405,0,8.203,0C84.385,90.192,84.385,100.179,84.385,110.257z M67.775,87.409
				c-4.302-0.008-7.566,3.343-7.566,7.766c-0.001,4.311,3.434,7.785,7.658,7.747c4.271-0.038,7.553-3.442,7.551-7.831
				C75.416,90.698,72.15,87.416,67.775,87.409z"/>
			<path fill-rule="evenodd" clip-rule="evenodd" fill="#555555" d="M162.418,78.989c9.536,0.033,16.305,6.823,16.248,16.299
				c-0.057,9.397-6.943,16.079-16.536,16.043c-9.271-0.034-16.234-6.921-16.228-16.05C145.91,85.785,152.832,78.957,162.418,78.989z
				 M162.304,87.417c-4.114,0.03-7.387,3.534-7.319,7.84c0.065,4.21,3.341,7.608,7.377,7.654s7.356-3.543,7.283-7.873
				C169.573,90.751,166.333,87.387,162.304,87.417z"/>
			<path fill-rule="evenodd" clip-rule="evenodd" fill="#555555" d="M208.466,110.262c-3.015,0-5.866,0-8.97,0
				c0-0.66,0.003-1.284,0-1.909c-0.023-5.34,0.022-10.681-0.099-16.019c-0.081-3.568-2.123-5.237-5.609-4.869
				c-1.959,0.207-3.422,1.357-3.897,3.278c-0.265,1.068-0.368,2.2-0.377,3.304c-0.036,5.338-0.017,10.676-0.017,16.157
				c-2.984,0-5.888,0-8.94,0c0-9.913,0-19.903,0-30.027c2.775,0,5.555,0,8.448,0c0.065,0.801,0.127,1.574,0.216,2.657
				c3.438-4.315,7.743-4.508,12.277-3.219c4.086,1.163,6.829,4.549,6.925,8.794C208.582,95.622,208.466,102.84,208.466,110.262z"/>
			<path fill-rule="evenodd" clip-rule="evenodd" fill="#555555" d="M49.351,91.679c-2.702,0-5.396,0.041-8.086-0.04
				c-0.448-0.014-1.014-0.464-1.299-0.871c-2.541-3.629-7.397-4.495-10.622-1.846c-3.475,2.854-3.837,8.623-0.741,11.8
				c2.976,3.056,7.853,2.908,10.708-0.488c0.935-1.112,1.838-1.544,3.25-1.474c2.271,0.114,4.551,0.03,6.845,0.03
				c-0.955,7.281-8.881,13.099-16.876,12.534c-8.744-0.617-15.258-7.773-15.104-16.592c0.15-8.583,6.714-15.417,15.117-15.737
				C41.083,78.669,48.697,84.36,49.351,91.679z"/>
			<path fill-rule="evenodd" clip-rule="evenodd" fill="#555555" d="M108.932,88.172c-0.399,0-0.47,0.022-0.51-0.003
				c-4.639-3.028-10.31-1.642-10.512,6.389c-0.115,4.573-0.067,9.149-0.091,13.726c-0.004,0.63,0,1.261,0,1.975
				c-3.005,0-5.802,0-8.753,0c0-10.05,0-20.101,0-30.298c2.792,0,5.628,0,8.604,0c0.079,0.609,0.166,1.281,0.219,1.689
				c1.91-0.878,3.845-1.787,5.801-2.648c0.358-0.156,0.804-0.146,1.21-0.156c3.473-0.093,4.033,0.443,4.032,3.832
				C108.932,84.489,108.932,86.303,108.932,88.172z"/>
			<path fill-rule="evenodd" clip-rule="evenodd" fill="#555555" d="M212.272,97.586c3.779,0,7.575,0,11.486,0
				c0.282,0.611,0.541,1.316,0.918,1.952c1.313,2.215,5.041,2.292,6.456,0.157c1.377-2.08,0.118-4.575-2.567-4.816
				c-1.907-0.17-3.84-0.033-5.89-0.033c0-3.215,0-6.161,0-9.218c1.211-0.065,2.318-0.06,3.408-0.196
				c2.487-0.309,3.929-2.545,2.99-4.873c-0.278-0.688-1.288-1.508-1.95-1.498c-0.692,0.01-1.875,0.877-1.96,1.493
				c-0.241,1.745-1.212,1.793-2.562,1.765c-3.091-0.065-6.184-0.021-9.232-0.021c-0.763-4.247,1.505-9.219,5.393-11.594
				c5.117-3.126,10.531-3.446,15.95-0.89c7.043,3.322,9.217,13.09,2.189,18.776c0.266,0.09,0.495,0.144,0.702,0.241
				c7.354,3.446,7.633,13.171,1.983,18.55c-6.006,5.719-16.973,6.074-23.28,0.66C213.466,105.602,211.743,101.195,212.272,97.586z
				 M213.746,99.079c0.36,3.604,1.685,6.422,4.479,8.448c5.844,4.234,14.971,3.701,20.194-1.277
				c5.469-5.211,4.892-14.005-3.3-16.756c-0.569-0.191-1.116-0.447-1.834-0.739c0.687-0.4,1.191-0.69,1.694-0.985
				c5.236-3.083,6.236-9.636,2.158-14.126c-5.189-5.712-16.153-4.997-20.478,1.377c-1.142,1.685-1.932,3.54-1.778,5.812
				c2.399,0,4.624-0.054,6.843,0.023c1.085,0.038,1.652-0.244,2.058-1.343c0.625-1.689,2.08-2.304,3.83-2.149
				c1.761,0.156,2.701,1.234,3.09,2.887c0.877,3.72-1.202,6.577-4.989,6.849c-0.51,0.037-1.019,0.073-1.7,0.123
				c0,1.611,0.042,3.126-0.017,4.637c-0.036,1.008,0.376,1.289,1.342,1.322c1.63,0.057,3.303,0.08,4.865,0.482
				c1.988,0.512,2.914,2.017,2.963,4.075c0.052,2.135-0.895,3.733-2.682,4.533c-2.844,1.275-5.827,0.325-7.478-2.3
				c-0.255-0.408-0.844-0.841-1.29-0.854C219.146,99.037,216.568,99.079,213.746,99.079z"/>
			<path fill-rule="evenodd" clip-rule="evenodd" fill="#555555" d="M245.927,110.932c0-13.979,0-27.816,0-41.608
				c0.143-0.12,0.231-0.26,0.317-0.259c6.621,0.072,13.282-0.262,19.854,0.354c6.951,0.651,11.896,4.81,14.558,11.254
				c2.807,6.792,2.51,13.683-0.696,20.273c-2.854,5.862-7.799,9.392-14.224,9.878C259.221,111.316,252.641,110.932,245.927,110.932z
				 M247.676,70.339c-0.111,0.645-0.165,0.815-0.165,0.987c-0.009,12.316-0.002,24.631-0.036,36.947
				c-0.003,1.129,0.468,1.388,1.474,1.368c5.331-0.101,10.676,0.031,15.994-0.29c5.321-0.32,9.616-2.819,12.598-7.319
				c2.992-4.513,3.617-9.574,3.194-14.828c-0.651-8.081-6.427-15.118-14.072-16.074C260.424,70.349,254.059,70.566,247.676,70.339z"
				/>
			<path fill-rule="evenodd" clip-rule="evenodd" fill="#555555" d="M256.175,101.901c0-7.999,0-15.733,0-23.454
				c4.972-1.464,11.035,0.043,13.585,3.354c2.833,3.678,3.234,11.345,0.718,15.59C267.104,103.083,261.521,101.821,256.175,101.901z
				 M257.851,100.424c4.344,0.07,8.57,0.435,11.17-3.786c2.369-3.846,1.962-10.711-0.694-14.028
				c-2.067-2.581-6.687-3.729-10.476-2.6C257.851,86.738,257.851,93.468,257.851,100.424z"/>
		</g>
	</g>
</g>
<g id="Layer_2">
	<g>
		<path fill="#555555" d="M124.307,139.347l-0.038,8.99l0.657,0.113c2.063,0.385,4.146,0.653,6.239,0.803
			c1.834,0.17,3.678,0.205,5.516,0.107c1.758-0.127,3.495-0.454,5.177-0.977c1.975-0.559,3.805-1.535,5.369-2.863
			c1.408-1.201,2.484-2.745,3.127-4.481c1.12-2.909,1.098-6.133-0.062-9.026c-0.611-1.5-1.572-2.833-2.806-3.884
			c-1.191-1.074-2.59-1.889-4.112-2.396l-6.78-2.517c-0.81-0.344-1.47-0.971-1.853-1.764c-0.298-0.659-0.271-1.421,0.075-2.057
			c0.122-0.224,0.274-0.429,0.452-0.609c0.209-0.21,0.441-0.395,0.694-0.549c0.1-0.062,0.203-0.12,0.308-0.174
			c0.758-0.375,1.576-0.613,2.417-0.704c1.435-0.206,2.895-0.191,4.325,0.046c1.689,0.184,3.365,0.482,5.013,0.897l0.352,0.078
			v-8.295l-0.647-0.14c-1.681-0.402-3.384-0.706-5.101-0.908c-2.225-0.297-4.478-0.307-6.705-0.028
			c-2.821,0.259-5.505,1.337-7.721,3.104c-1.501,1.179-2.643,2.753-3.298,4.546c-0.984,2.73-0.987,5.72-0.008,8.452
			c0.508,1.357,1.318,2.582,2.371,3.577c0.914,0.882,1.947,1.629,3.068,2.224c1.478,0.794,3.044,1.409,4.667,1.832
			c0.535,0.16,1.066,0.33,1.598,0.508l0.803,0.295c0.076,0.03,0.153,0.062,0.229,0.094c0.791,0.282,1.516,0.729,2.124,1.311
			c0.423,0.395,0.748,0.883,0.951,1.424c0.126,0.495,0.127,1.014,0.006,1.511c-0.255,0.8-0.812,1.468-1.553,1.86
			c-0.808,0.42-1.684,0.694-2.586,0.81c-1.325,0.21-2.669,0.277-4.009,0.201c-1.756-0.132-3.502-0.364-5.23-0.698
			c-0.904-0.186-1.804-0.396-2.695-0.631L124.307,139.347"/>
		<path fill="#555555" d="M87.442,148.011v-10.439l-0.205,0.089c-2.354,1.14-4.913,1.79-7.524,1.91
			c-2.714,0.213-5.41-0.582-7.575-2.232c-1.546-1.192-2.695-2.825-3.298-4.684c-0.665-2.024-0.742-4.195-0.222-6.261
			c0.482-2.114,1.667-4.001,3.358-5.356c1.5-1.256,3.333-2.046,5.274-2.275c3.435-0.38,6.903,0.271,9.966,1.87l0.226,0.116v-10.499
			l-0.478-0.128c-3.065-0.983-6.284-1.405-9.5-1.243c-2.929,0.075-5.813,0.734-8.484,1.939c-2.695,1.235-5.072,3.072-6.946,5.37
			c-5.86,7.413-6.016,17.836-0.381,25.421c2.772,3.549,6.667,6.052,11.045,7.103c4.615,1.122,9.451,0.953,13.977-0.489
			L87.442,148.011"/>
		<polyline fill="#555555" points="110.922,148.7 110.922,109.544 101.049,109.544 101.049,148.7 110.922,148.7 		"/>
		<polyline fill="#555555" points="257.047,144.152 257.047,143.562 252.868,143.562 252.868,144.152 254.605,144.152 
			254.605,148.7 255.31,148.7 255.31,144.152 257.047,144.152 		"/>
		<polyline fill="#555555" points="257.453,148.7 258.117,148.7 258.117,144.597 258.208,144.597 259.708,148.7 260.378,148.7 
			262.001,144.398 262.001,148.7 262.703,148.7 262.703,143.562 261.618,143.562 260.097,147.795 258.554,143.562 257.453,143.562 
			257.453,148.7 		"/>
		<path fill="#555555" d="M37.297,78.076c0.092,1.233,0.646,2.384,1.552,3.225s2.095,1.308,3.331,1.308
			c1.235,0,2.425-0.467,3.33-1.308c0.906-0.841,1.461-1.992,1.552-3.225V67.224c-0.049-1.261-0.585-2.455-1.496-3.33
			c-0.909-0.875-2.123-1.363-3.386-1.363s-2.477,0.489-3.387,1.363c-0.91,0.875-1.446,2.068-1.496,3.33V78.076"/>
		<path fill="#555555" d="M64.326,78.076c0.092,1.233,0.646,2.384,1.551,3.225c0.906,0.841,2.096,1.308,3.331,1.308
			s2.426-0.467,3.331-1.308s1.46-1.992,1.552-3.225V53.748c-0.05-1.261-0.586-2.455-1.496-3.33s-2.124-1.364-3.387-1.364
			s-2.477,0.489-3.386,1.364c-0.91,0.875-1.447,2.068-1.496,3.33V78.076"/>
		<path fill="#555555" d="M91.21,87.875c0.093,1.232,0.646,2.383,1.552,3.223c0.906,0.842,2.095,1.309,3.331,1.309
			c1.235,0,2.426-0.467,3.33-1.309c0.906-0.84,1.461-1.991,1.552-3.223V35.25c-0.049-1.262-0.585-2.456-1.495-3.331
			c-0.911-0.875-2.125-1.364-3.387-1.364c-1.263,0-2.477,0.489-3.386,1.364c-0.91,0.875-1.447,2.069-1.497,3.331V87.875"/>
		<path fill="#555555" d="M118.235,78.076c0.092,1.233,0.646,2.384,1.552,3.225c0.905,0.841,2.095,1.308,3.33,1.308
			c1.236,0,2.426-0.467,3.331-1.308s1.461-1.992,1.552-3.225V53.748c-0.05-1.261-0.587-2.455-1.496-3.33
			c-0.91-0.875-2.124-1.364-3.387-1.364s-2.477,0.489-3.385,1.364c-0.911,0.875-1.447,2.068-1.497,3.33V78.076"/>
		<path fill="#555555" d="M145.14,78.076c0.093,1.233,0.646,2.384,1.553,3.225c0.905,0.841,2.095,1.308,3.33,1.308
			c1.236,0,2.426-0.467,3.331-1.308c0.906-0.841,1.46-1.992,1.552-3.225V67.224c-0.05-1.261-0.585-2.455-1.496-3.33
			c-0.91-0.875-2.124-1.363-3.387-1.363s-2.476,0.489-3.386,1.363c-0.91,0.875-1.447,2.068-1.497,3.33V78.076"/>
		<path fill="#555555" d="M172.145,78.076c0.092,1.233,0.646,2.384,1.553,3.225c0.903,0.841,2.095,1.308,3.331,1.308
			c1.234,0,2.425-0.467,3.329-1.308c0.906-0.841,1.46-1.992,1.553-3.225V53.748c-0.05-1.261-0.586-2.455-1.496-3.33
			c-0.912-0.875-2.124-1.364-3.386-1.364c-1.264,0-2.477,0.489-3.389,1.364c-0.91,0.875-1.444,2.068-1.495,3.33V78.076"/>
		<path fill="#555555" d="M199.04,87.875c0.09,1.232,0.645,2.383,1.551,3.223c0.905,0.842,2.095,1.309,3.331,1.309
			c1.234,0,2.425-0.467,3.329-1.309c0.906-0.84,1.46-1.991,1.553-3.223V35.25c-0.05-1.262-0.586-2.456-1.496-3.331
			c-0.91-0.875-2.124-1.364-3.386-1.364c-1.264,0-2.477,0.489-3.389,1.364c-0.91,0.875-1.444,2.069-1.493,3.331V87.875"/>
		<path fill="#555555" d="M226.021,78.076c0.091,1.233,0.645,2.384,1.551,3.225s2.095,1.308,3.331,1.308
			c1.234,0,2.426-0.467,3.332-1.308c0.903-0.841,1.458-1.992,1.55-3.225V53.748c-0.049-1.261-0.585-2.455-1.495-3.33
			s-2.125-1.364-3.387-1.364c-1.264,0-2.476,0.489-3.386,1.364s-1.446,2.068-1.496,3.33V78.076"/>
		<path fill="#555555" d="M252.938,78.076c0.093,1.233,0.646,2.384,1.551,3.225c0.906,0.841,2.096,1.308,3.332,1.308
			c1.235,0,2.425-0.467,3.331-1.308c0.905-0.841,1.46-1.992,1.551-3.225V67.224c-0.05-1.261-0.586-2.455-1.496-3.33
			c-0.91-0.875-2.124-1.363-3.386-1.363s-2.477,0.489-3.387,1.363c-0.91,0.875-1.446,2.068-1.496,3.33V78.076"/>
		<path fill="#555555" d="M190.601,148.011v-10.439l-0.204,0.089c-2.353,1.14-4.914,1.79-7.523,1.91
			c-2.714,0.213-5.411-0.582-7.574-2.231c-1.547-1.193-2.696-2.826-3.298-4.685c-0.667-2.024-0.743-4.195-0.223-6.261
			c0.481-2.114,1.665-4.001,3.357-5.356c1.501-1.256,3.333-2.046,5.276-2.275c3.434-0.38,6.902,0.271,9.967,1.87l0.222,0.116
			v-10.499l-0.476-0.128c-3.066-0.983-6.283-1.405-9.5-1.243c-2.929,0.075-5.813,0.734-8.484,1.939
			c-2.695,1.235-5.071,3.072-6.946,5.37c-5.86,7.413-6.017,17.836-0.381,25.421c2.773,3.549,6.666,6.052,11.045,7.103
			c4.615,1.122,9.451,0.953,13.976-0.489L190.601,148.011"/>
		<path fill="#555555" d="M201.005,129.14c0.095,6.189,2.97,12.007,7.826,15.846c4.856,3.837,11.183,5.288,17.227,3.95
			c8.207-1.545,14.602-8.005,16.066-16.227c1.462-8.222-2.31-16.491-9.479-20.774c-6.33-3.917-14.275-4.14-20.814-0.584
			C205.289,114.907,201.156,121.696,201.005,129.14 M215.338,121.107c2.133-1.704,4.856-2.49,7.57-2.187
			c2.715,0.304,5.195,1.674,6.898,3.808c1.704,2.134,2.492,4.856,2.188,7.57s-1.674,5.195-3.809,6.899
			c-2.133,1.704-4.856,2.49-7.57,2.187c-2.712-0.304-5.194-1.673-6.898-3.807c-1.704-2.135-2.49-4.857-2.188-7.571
			C211.834,125.294,213.204,122.812,215.338,121.107"/>
	</g>
</g>
</svg>
