<?xml version="1.0" encoding="utf-8"?>
<svg version="1.1" class="istio-label" xmlns="http://www.w3.org/2000/svg" viewBox="0 0 700 100">
  <g fill="#ffffff">
    <g id="name">
      <g id="I">
        <polygon points="20 0 60 0 60 80 100 80 80 100 0 100 20 80 40 80 40 20 0 20 20 0"/>
        <polygon points="100 0 70 0 70 30 100 0"/>
      </g>
      <g id="S">
        <path d="M220,40H186L168.35,57.65A30,30,0,0,0,180,60h40a10,10,0,0,1,0,20H170l-20,20h70a30,30,0,0,0,0-60Z"/>
        <polygon points="230 20 250 0 226 0 206 20 230 20"/>
        <path d="M159.75,52.11l14.18-14.18L191.86,20l20-20H180a30,30,0,0,0-20.25,52.11Z"/>
      </g>
      <g id="T">
        <polygon points="300 20 340 20 340 100 360 80 360 0 320 0 300 20"/>
        <polygon points="370 0 370 30 400 0 370 0"/>
      </g>
      <g id="I2">
        <polygon points="510 0 470 0 450 20 490 20 490 80 470 80 450 100 530 100 550 80 510 80 510 0"/>
        <polygon points="520 0 520 30 550 0 520 0"/>
      </g>
      <g id="O">
        <path d="M641.86,20l20-20H630a30,30,0,0,0-30,30V61.86l20-20Z"/>
        <path d="M675.49.51,656,20h14a10,10,0,0,1,10,10V70a10,10,0,0,1-10,10H630a10,10,0,0,1-10-10V56L600.51,75.49A30,30,0,0,0,630,100h40a30,30,0,0,0,30-30V30A30,30,0,0,0,675.49.51Z"/>
      </g>
    </g>
  </g>
</svg>
