<?xml version="1.0" encoding="UTF-8" standalone="no"?>
<!-- Generator: Adobe Illustrator 19.1.0, SVG Export Plug-In . SVG Version: 6.00 Build 0)  -->

<svg
   xmlns:dc="http://purl.org/dc/elements/1.1/"
   xmlns:cc="http://creativecommons.org/ns#"
   xmlns:rdf="http://www.w3.org/1999/02/22-rdf-syntax-ns#"
   xmlns:svg="http://www.w3.org/2000/svg"
   xmlns="http://www.w3.org/2000/svg"
   xmlns:sodipodi="http://sodipodi.sourceforge.net/DTD/sodipodi-0.dtd"
   xmlns:inkscape="http://www.inkscape.org/namespaces/inkscape"
   version="1.1"
   id="Layer_1"
   x="0px"
   y="0px"
   viewBox="0 0 195.7 177.4"
   enable-background="new 0 0 195.7 177.4"
   xml:space="preserve"
   inkscape:version="0.91 r13725"
   sodipodi:docname="policy.svg"><metadata
     id="metadata131"><rdf:RDF><cc:Work
         rdf:about=""><dc:format>image/svg+xml</dc:format><dc:type
           rdf:resource="http://purl.org/dc/dcmitype/StillImage" /></cc:Work></rdf:RDF></metadata><defs
     id="defs129" /><sodipodi:namedview
     pagecolor="#ffffff"
     bordercolor="#666666"
     borderopacity="1"
     objecttolerance="10"
     gridtolerance="10"
     guidetolerance="10"
     inkscape:pageopacity="0"
     inkscape:pageshadow="2"
     inkscape:window-width="1440"
     inkscape:window-height="852"
     id="namedview127"
     showgrid="false"
     inkscape:zoom="1.330327"
     inkscape:cx="97.849998"
     inkscape:cy="88.699997"
     inkscape:window-x="0"
     inkscape:window-y="0"
     inkscape:window-maximized="1"
     inkscape:current-layer="Layer_1" /><g
     id="g3"
     style="fill:#535f61;fill-opacity:1"><path
       fill="#452845"
       d="M190.8,177.4H4.9c-2.7,0-4.9-2.2-4.9-4.9V4.9C0,2.2,2.2,0,4.9,0h185.9c2.7,0,4.9,2.2,4.9,4.9v167.6   C195.7,175.2,193.5,177.4,190.8,177.4z M7,170.4h181.7V7H7V170.4z"
       id="path5"
       style="fill:#535f61;fill-opacity:1" /></g><g
     id="g7"
     style="fill:#535f61;fill-opacity:1"><path
       fill="#452845"
       d="M192.2,29.5H3.5C1.6,29.5,0,27.9,0,26s1.6-3.5,3.5-3.5h188.7c1.9,0,3.5,1.6,3.5,3.5S194.1,29.5,192.2,29.5z   "
       id="path9"
       style="fill:#535f61;fill-opacity:1" /></g><g
     id="g11"
     style="fill:#466bb0;fill-opacity:1"><path
       fill="#FC7B4D"
       d="M55.3,46.4h-17c-1.9,0-3.5-1.6-3.5-3.5s1.6-3.5,3.5-3.5h17c1.9,0,3.5,1.6,3.5,3.5S57.3,46.4,55.3,46.4z"
       id="path13"
       style="fill:#466bb0;fill-opacity:1" /></g><g
     id="g15"
     style="fill:#466bb0;fill-opacity:1"><path
       fill="#FC7B4D"
       d="M111.8,79.9H88.3c-1.9,0-3.5-1.6-3.5-3.5s1.6-3.5,3.5-3.5h23.5c1.9,0,3.5,1.6,3.5,3.5   S113.8,79.9,111.8,79.9z"
       id="path17"
       style="fill:#466bb0;fill-opacity:1" /></g><g
     id="g19"
     style="fill:#466bb0;fill-opacity:1"><path
       fill="#FC7B4D"
       d="M133.2,128.9H39c-1.9,0-3.5-1.6-3.5-3.5s1.6-3.5,3.5-3.5h94.2c1.9,0,3.5,1.6,3.5,3.5   S135.1,128.9,133.2,128.9z"
       id="path21"
       style="fill:#466bb0;fill-opacity:1" /></g><g
     id="g23"
     style="fill:#535f61;fill-opacity:1"><path
       fill="#452845"
       d="M113.2,46.4H82.6c-1.9,0-3.5-1.6-3.5-3.5s1.6-3.5,3.5-3.5h30.5c1.9,0,3.5,1.6,3.5,3.5   S115.1,46.4,113.2,46.4z"
       id="path25"
       style="fill:#535f61;fill-opacity:1" /></g><g
     id="g27"
     style="fill:#535f61;fill-opacity:1"><path
       fill="#452845"
       d="M60.8,79.9H47.2c-1.9,0-3.5-1.6-3.5-3.5s1.6-3.5,3.5-3.5h13.6c1.9,0,3.5,1.6,3.5,3.5S62.8,79.9,60.8,79.9z"
       id="path29"
       style="fill:#535f61;fill-opacity:1" /></g><g
     id="g31"
     style="fill:#535f61;fill-opacity:1"><path
       fill="#452845"
       d="M106.2,96.2H72.2c-1.9,0-3.5-1.6-3.5-3.5s1.6-3.5,3.5-3.5h33.9c1.9,0,3.5,1.6,3.5,3.5   S108.1,96.2,106.2,96.2z"
       id="path33"
       style="fill:#535f61;fill-opacity:1" /></g><g
     id="g35"
     style="fill:#535f61;fill-opacity:1"><path
       fill="#452845"
       d="M82.6,162.4H38.4c-1.9,0-3.5-1.6-3.5-3.5s1.6-3.5,3.5-3.5h44.3c1.9,0,3.5,1.6,3.5,3.5   S84.6,162.4,82.6,162.4z"
       id="path37"
       style="fill:#535f61;fill-opacity:1" /></g><g
     id="g39"
     style="fill:#535f61;fill-opacity:1"><path
       fill="#452845"
       d="M106.2,112.5H72.2c-1.9,0-3.5-1.6-3.5-3.5s1.6-3.5,3.5-3.5h33.9c1.9,0,3.5,1.6,3.5,3.5   S108.1,112.5,106.2,112.5z"
       id="path41"
       style="fill:#535f61;fill-opacity:1" /></g><g
     id="g43"
     style="fill:#535f61;fill-opacity:1"><path
       fill="#452845"
       d="M166.7,112.5h-51.3c-1.9,0-3.5-1.6-3.5-3.5s1.6-3.5,3.5-3.5h51.3c1.9,0,3.5,1.6,3.5,3.5   S168.6,112.5,166.7,112.5z"
       id="path45"
       style="fill:#535f61;fill-opacity:1" /></g><g
     id="g47"
     style="fill:#535f61;fill-opacity:1"><path
       fill="#452845"
       d="M147.2,145.2H38.4c-1.9,0-3.5-1.6-3.5-3.5s1.6-3.5,3.5-3.5h108.8c1.9,0,3.5,1.6,3.5,3.5   S149.1,145.2,147.2,145.2z"
       id="path49"
       style="fill:#535f61;fill-opacity:1" /></g><g
     id="g51"
     style="fill:#535f61;fill-opacity:1"><path
       fill="#452845"
       d="M172.2,79.9h-30.5c-1.9,0-3.5-1.6-3.5-3.5s1.6-3.5,3.5-3.5h30.5c1.9,0,3.5,1.6,3.5,3.5   S174.1,79.9,172.2,79.9z"
       id="path53"
       style="fill:#535f61;fill-opacity:1" /></g><g
     id="g55"
     style="fill:#535f61;fill-opacity:1"><path
       fill="#452845"
       d="M79,79.9h-6.8c-1.9,0-3.5-1.6-3.5-3.5s1.6-3.5,3.5-3.5H79c1.9,0,3.5,1.6,3.5,3.5S81,79.9,79,79.9z"
       id="path57"
       style="fill:#535f61;fill-opacity:1" /></g><g
     id="g59"
     style="fill:#535f61;fill-opacity:1"><path
       fill="#452845"
       d="M131.5,79.9h-11.8c-1.9,0-3.5-1.6-3.5-3.5s1.6-3.5,3.5-3.5h11.8c1.9,0,3.5,1.6,3.5,3.5   S133.4,79.9,131.5,79.9z"
       id="path61"
       style="fill:#535f61;fill-opacity:1" /></g><g
     id="g63"
     style="fill:#535f61;fill-opacity:1"><path
       fill="#452845"
       d="M106.2,63.5H38.3c-1.9,0-3.5-1.6-3.5-3.5s1.6-3.5,3.5-3.5h67.9c1.9,0,3.5,1.6,3.5,3.5   S108.1,63.5,106.2,63.5z"
       id="path65"
       style="fill:#535f61;fill-opacity:1" /></g><g
     id="g67"
     style="fill:#535f61;fill-opacity:1"><path
       fill="#452845"
       d="M172.2,46.4h-30.5c-1.9,0-3.5-1.6-3.5-3.5s1.6-3.5,3.5-3.5h30.5c1.9,0,3.5,1.6,3.5,3.5   S174.1,46.4,172.2,46.4z"
       id="path69"
       style="fill:#535f61;fill-opacity:1" /></g><g
     id="g71"
     style="fill:#535f61;fill-opacity:1"><circle
       fill="#452845"
       cx="16.3"
       cy="14.5"
       r="3.5"
       id="circle73"
       style="fill:#535f61;fill-opacity:1" /></g><g
     id="g75"
     style="fill:#535f61;fill-opacity:1"><circle
       fill="#452845"
       cx="21.9"
       cy="43.7"
       r="3.5"
       id="circle77"
       style="fill:#535f61;fill-opacity:1" /></g><g
     id="g79"
     style="fill:#535f61;fill-opacity:1"><circle
       fill="#452845"
       cx="21.9"
       cy="60"
       r="3.5"
       id="circle81"
       style="fill:#535f61;fill-opacity:1" /></g><g
     id="g83"
     style="fill:#535f61;fill-opacity:1"><circle
       fill="#452845"
       cx="21.9"
       cy="76.4"
       r="3.5"
       id="circle85"
       style="fill:#535f61;fill-opacity:1" /></g><g
     id="g87"
     style="fill:#535f61;fill-opacity:1"><circle
       fill="#452845"
       cx="21.9"
       cy="92.7"
       r="3.5"
       id="circle89"
       style="fill:#535f61;fill-opacity:1" /></g><g
     id="g91"
     style="fill:#535f61;fill-opacity:1"><circle
       fill="#452845"
       cx="21.9"
       cy="109"
       r="3.5"
       id="circle93"
       style="fill:#535f61;fill-opacity:1" /></g><g
     id="g95"
     style="fill:#535f61;fill-opacity:1"><circle
       fill="#452845"
       cx="21.9"
       cy="125.4"
       r="3.5"
       id="circle97"
       style="fill:#535f61;fill-opacity:1" /></g><g
     id="g99"
     style="fill:#535f61;fill-opacity:1"><circle
       fill="#452845"
       cx="21.9"
       cy="141.7"
       r="3.5"
       id="circle101"
       style="fill:#535f61;fill-opacity:1" /></g><g
     id="g103"
     style="fill:#535f61;fill-opacity:1"><circle
       fill="#452845"
       cx="21.9"
       cy="158"
       r="3.5"
       id="circle105"
       style="fill:#535f61;fill-opacity:1" /></g><g
     id="g107"
     style="fill:#535f61;fill-opacity:1"><circle
       fill="#452845"
       cx="28.9"
       cy="14.5"
       r="3.5"
       id="circle109"
       style="fill:#535f61;fill-opacity:1" /></g><g
     id="g111"
     style="fill:#535f61;fill-opacity:1"><circle
       fill="#452845"
       cx="41.5"
       cy="14.5"
       r="3.5"
       id="circle113"
       style="fill:#535f61;fill-opacity:1" /></g><g
     id="g115"
     style="fill:#535f61;fill-opacity:1"><circle
       fill="#452845"
       cx="65.2"
       cy="42.9"
       r="3.8"
       id="circle117"
       style="fill:#535f61;fill-opacity:1" /></g><g
     id="g119"
     style="fill:#535f61;fill-opacity:1"><circle
       fill="#452845"
       cx="58.8"
       cy="92.7"
       r="3.8"
       id="circle121"
       style="fill:#535f61;fill-opacity:1" /></g><g
     id="g123"
     style="fill:#535f61;fill-opacity:1"><circle
       fill="#452845"
       cx="124.8"
       cy="42.9"
       r="3.8"
       id="circle125"
       style="fill:#535f61;fill-opacity:1" /></g></svg>