<svg xmlns="http://www.w3.org/2000/svg" xmlns:xlink="http://www.w3.org/1999/xlink" viewBox="0 0 380.3 328.21"><defs><style>.cls-1{isolation:isolate;}.cls-2{fill:#a6674f;}.cls-3{fill:#935845;}.cls-4{fill:#7a493c;}.cls-14,.cls-5,.cls-51,.cls-53,.cls-71{fill:none;}.cls-5{stroke:#0b589a;stroke-width:10.33px;}.cls-5,.cls-51,.cls-71{stroke-miterlimit:10;}.cls-6{fill:#eca39e;}.cls-7{fill:#dd9997;}.cls-8{fill:#e5e8ea;}.cls-13,.cls-9{fill:#1b1b1b;}.cls-10{fill:#0b589a;}.cls-11,.cls-27{fill:#efd462;}.cls-12,.cls-22{fill:#b6b7b6;}.cls-13{opacity:0.75;}.cls-14{stroke:#eca39e;}.cls-14,.cls-53{stroke-linecap:round;stroke-linejoin:round;stroke-width:9.41px;}.cls-15,.cls-46{opacity:0.4;}.cls-15,.cls-18,.cls-19,.cls-23,.cls-24,.cls-25,.cls-26,.cls-28,.cls-29,.cls-30,.cls-31,.cls-32,.cls-33,.cls-34,.cls-35,.cls-36,.cls-38,.cls-41,.cls-44,.cls-46,.cls-49,.cls-50,.cls-52,.cls-54,.cls-56,.cls-57,.cls-58,.cls-59,.cls-60,.cls-61,.cls-62,.cls-63,.cls-64,.cls-65,.cls-66,.cls-67,.cls-68,.cls-69,.cls-70,.cls-72,.cls-74{mix-blend-mode:multiply;}.cls-15{fill:url(#radial-gradient);}.cls-16{fill:#d8d8d8;}.cls-17{fill:#17b0bc;}.cls-18{opacity:0.35;fill:url(#linear-gradient);}.cls-19,.cls-44,.cls-50,.cls-56,.cls-74{opacity:0.5;}.cls-19{fill:url(#linear-gradient-2);}.cls-20{fill:#0ec6dc;}.cls-21{fill:#a4eeff;}.cls-22{opacity:0.1;}.cls-23{opacity:0.3;}.cls-24,.cls-25,.cls-26,.cls-28,.cls-29,.cls-30,.cls-31,.cls-32,.cls-33,.cls-34,.cls-35,.cls-36,.cls-54,.cls-57,.cls-58,.cls-59,.cls-60,.cls-61,.cls-62,.cls-63,.cls-64,.cls-65,.cls-66,.cls-68,.cls-69,.cls-70{opacity:0.65;}.cls-24{fill:url(#linear-gradient-3);}.cls-25{fill:url(#linear-gradient-4);}.cls-26{fill:url(#linear-gradient-5);}.cls-27{opacity:0.99;}.cls-28{fill:url(#linear-gradient-6);}.cls-29{fill:url(#linear-gradient-7);}.cls-30{fill:url(#linear-gradient-8);}.cls-31{fill:url(#linear-gradient-9);}.cls-32{fill:url(#linear-gradient-10);}.cls-33{fill:url(#linear-gradient-11);}.cls-34{fill:url(#linear-gradient-12);}.cls-35{fill:url(#linear-gradient-13);}.cls-36{fill:url(#linear-gradient-14);}.cls-37{fill:#505150;}.cls-39{fill:url(#radial-gradient-2);}.cls-40{fill:url(#radial-gradient-3);}.cls-41{fill:url(#radial-gradient-4);}.cls-42{fill:#9e9e9e;}.cls-43{fill:#f94355;}.cls-44{fill:url(#radial-gradient-5);}.cls-45{fill:#fce06b;}.cls-47{fill:url(#radial-gradient-6);}.cls-48{fill:url(#radial-gradient-7);}.cls-49{fill:url(#radial-gradient-8);}.cls-50{fill:url(#linear-gradient-15);}.cls-51{stroke:#fff;stroke-width:0.91px;}.cls-52,.cls-72{opacity:0.25;}.cls-52{fill:url(#radial-gradient-9);}.cls-53{stroke:#a6674f;}.cls-54{fill:url(#radial-gradient-10);}.cls-55{fill:#ccc;}.cls-57{fill:url(#linear-gradient-16);}.cls-58{fill:url(#linear-gradient-17);}.cls-59{fill:url(#linear-gradient-18);}.cls-60{fill:url(#linear-gradient-19);}.cls-61{fill:url(#linear-gradient-20);}.cls-62{fill:url(#linear-gradient-21);}.cls-63{fill:url(#linear-gradient-22);}.cls-64{fill:url(#linear-gradient-23);}.cls-65{fill:url(#linear-gradient-24);}.cls-66{fill:url(#linear-gradient-25);}.cls-67{opacity:0.2;}.cls-68{fill:url(#linear-gradient-26);}.cls-69{fill:url(#linear-gradient-27);}.cls-70{fill:url(#linear-gradient-28);}.cls-71{stroke:#1b1b1b;stroke-width:1.86px;}.cls-73{fill:url(#linear-gradient-29);}.cls-74{fill:url(#radial-gradient-11);}</style><radialGradient id="radial-gradient" cx="11698.18" cy="136.6" fy="128.5108960593964" r="8.7" gradientTransform="matrix(-1, 0, 0, 1, 11752.58, 0)" gradientUnits="userSpaceOnUse"><stop offset="0"/><stop offset="1" stop-opacity="0"/></radialGradient><linearGradient id="linear-gradient" x1="11590.15" y1="203.21" x2="11588.1" y2="279.49" gradientTransform="matrix(-1, 0, 0, 1, 11752.89, -0.5)" xlink:href="#radial-gradient"/><linearGradient id="linear-gradient-2" x1="11410.8" y1="171.79" x2="11410.8" y2="241.02" gradientTransform="matrix(-1, 0, 0, 1, 11752.89, -0.5)" xlink:href="#radial-gradient"/><linearGradient id="linear-gradient-3" x1="11555.05" y1="169.03" x2="11566.95" y2="170.03" gradientTransform="matrix(-1, 0, 0, 1, 11752.58, 0)" gradientUnits="userSpaceOnUse"><stop offset="0" stop-opacity="0"/><stop offset="1"/></linearGradient><linearGradient id="linear-gradient-4" x1="11546.98" y1="169.58" x2="11554.49" y2="168.95" gradientTransform="matrix(-1, 0, 0, 1, 11752.58, 0)" xlink:href="#radial-gradient"/><linearGradient id="linear-gradient-5" x1="11554.37" y1="160.35" x2="11554.37" y2="163.31" gradientTransform="matrix(-1, 0, 0, 1, 11752.58, 0)" xlink:href="#radial-gradient"/><linearGradient id="linear-gradient-6" x1="11703.92" y1="188.58" x2="11715.83" y2="189.58" xlink:href="#linear-gradient-3"/><linearGradient id="linear-gradient-7" x1="11695.85" y1="189.13" x2="11703.37" y2="188.5" gradientTransform="matrix(-1, 0, 0, 1, 11752.58, 0)" xlink:href="#radial-gradient"/><linearGradient id="linear-gradient-8" x1="11703.24" y1="179.9" x2="11703.24" y2="182.86" gradientTransform="matrix(-1, 0, 0, 1, 11752.58, 0)" xlink:href="#radial-gradient"/><linearGradient id="linear-gradient-9" x1="11683.03" y1="190.22" x2="11694.94" y2="191.23" xlink:href="#linear-gradient-3"/><linearGradient id="linear-gradient-10" x1="11674.96" y1="190.78" x2="11682.47" y2="190.15" gradientTransform="matrix(-1, 0, 0, 1, 11752.58, 0)" xlink:href="#radial-gradient"/><linearGradient id="linear-gradient-11" x1="11682.35" y1="181.55" x2="11682.35" y2="184.51" gradientTransform="matrix(-1, 0, 0, 1, 11752.58, 0)" xlink:href="#radial-gradient"/><linearGradient id="linear-gradient-12" x1="11448.09" y1="172.08" x2="11460" y2="173.08" xlink:href="#linear-gradient-3"/><linearGradient id="linear-gradient-13" x1="11440.02" y1="172.63" x2="11447.53" y2="172" gradientTransform="matrix(-1, 0, 0, 1, 11752.58, 0)" xlink:href="#radial-gradient"/><linearGradient id="linear-gradient-14" x1="11447.41" y1="163.4" x2="11447.41" y2="166.36" gradientTransform="matrix(-1, 0, 0, 1, 11752.58, 0)" xlink:href="#radial-gradient"/><radialGradient id="radial-gradient-2" cx="11541.97" cy="232.52" fy="232.5247248386204" r="19.86" gradientTransform="matrix(-0.98, 0.21, 0.14, 0.68, 11469.25, -2314.29)" xlink:href="#radial-gradient"/><radialGradient id="radial-gradient-3" cx="11533.04" cy="211.86" fy="211.86462115927134" r="19.86" gradientTransform="matrix(-0.98, 0.21, 0.14, 0.68, 11472.41, -2319.08)" xlink:href="#radial-gradient"/><radialGradient id="radial-gradient-4" cx="11533.94" cy="209.38" fy="209.37783792934897" r="36.41" gradientTransform="matrix(-0.97, 0.23, 0.12, 0.53, 11428.02, -2509.92)" xlink:href="#radial-gradient"/><radialGradient id="radial-gradient-5" cx="11536.39" cy="190.08" fy="190.08206417626207" r="41.17" gradientTransform="matrix(-0.18, -0.98, -0.58, 0.11, 2421.18, 11514.35)" xlink:href="#radial-gradient"/><radialGradient id="radial-gradient-6" cx="11617.82" cy="243.87" fy="243.86843452266658" r="19.86" gradientTransform="matrix(-0.98, 0.21, 0.14, 0.68, 11465.98, -2326.35)" xlink:href="#radial-gradient"/><radialGradient id="radial-gradient-7" cx="11608.77" cy="220.32" fy="220.31816214746868" r="19.86" gradientTransform="matrix(-0.98, 0.21, 0.14, 0.68, 11469.56, -2332.04)" xlink:href="#radial-gradient"/><radialGradient id="radial-gradient-8" cx="11609.67" cy="217.04" fy="217.03867377181268" r="38.79" gradientTransform="matrix(-0.97, 0.23, 0.12, 0.53, 11425.12, -2523.44)" xlink:href="#radial-gradient"/><linearGradient id="linear-gradient-15" x1="11563.26" y1="200.09" x2="11608.44" y2="204.79" xlink:href="#linear-gradient-3"/><radialGradient id="radial-gradient-9" cx="11597.26" cy="265.47" fy="265.47390418627765" r="12.56" gradientTransform="matrix(1, 0, 0, -0.66, -11441.74, 446.03)" xlink:href="#radial-gradient"/><radialGradient id="radial-gradient-10" cx="11609.39" cy="230.33" fy="230.3286658134566" r="8.98" gradientTransform="matrix(-0.93, 0.36, 0.33, 0.86, 10913.21, -4110.3)" xlink:href="#radial-gradient"/><linearGradient id="linear-gradient-16" x1="11561.7" y1="179.74" x2="11575.32" y2="179.74" gradientTransform="matrix(-1, -0.02, -0.02, 1, 11799.8, 113.96)" xlink:href="#radial-gradient"/><linearGradient id="linear-gradient-17" x1="11600.37" y1="183.15" x2="11613.1" y2="183.15" gradientTransform="matrix(-1, -0.02, -0.02, 1, 11799.8, 113.96)" xlink:href="#radial-gradient"/><linearGradient id="linear-gradient-18" x1="11614.69" y1="183.68" x2="11628.3" y2="183.68" gradientTransform="matrix(-1, -0.02, -0.02, 1, 11799.8, 113.96)" xlink:href="#radial-gradient"/><linearGradient id="linear-gradient-19" x1="11625.86" y1="181.84" x2="11637.75" y2="181.84" gradientTransform="matrix(-1, -0.02, -0.02, 1, 11799.8, 113.96)" xlink:href="#radial-gradient"/><linearGradient id="linear-gradient-20" x1="11576.9" y1="181.4" x2="11588.79" y2="181.4" gradientTransform="matrix(-1, -0.02, -0.02, 1, 11799.8, 113.96)" xlink:href="#radial-gradient"/><linearGradient id="linear-gradient-21" x1="11650.95" y1="182.2" x2="11661.33" y2="182.2" gradientTransform="matrix(-1, -0.02, -0.02, 1, 11799.8, 113.96)" xlink:href="#radial-gradient"/><linearGradient id="linear-gradient-22" x1="11642.72" y1="187.82" x2="11655.46" y2="187.82" gradientTransform="matrix(-1, -0.02, -0.02, 1, 11799.8, 113.96)" xlink:href="#radial-gradient"/><linearGradient id="linear-gradient-23" x1="11553.31" y1="184.16" x2="11566.05" y2="184.16" gradientTransform="matrix(-1, -0.02, -0.02, 1, 11799.8, 113.96)" xlink:href="#radial-gradient"/><linearGradient id="linear-gradient-24" x1="11672.13" y1="183.24" x2="11684.87" y2="183.24" gradientTransform="matrix(-1, -0.02, -0.02, 1, 11799.8, 113.96)" xlink:href="#radial-gradient"/><linearGradient id="linear-gradient-25" x1="11686.63" y1="187.11" x2="11700.24" y2="187.11" gradientTransform="matrix(-1, -0.02, -0.02, 1, 11799.8, 113.96)" xlink:href="#radial-gradient"/><linearGradient id="linear-gradient-26" x1="11679.09" y1="189.32" x2="11691.83" y2="189.32" gradientTransform="matrix(-1, -0.02, -0.02, 1, 11799.8, 113.96)" xlink:href="#radial-gradient"/><linearGradient id="linear-gradient-27" x1="11769.42" y1="185.96" x2="11779.8" y2="185.96" gradientTransform="matrix(-1, -0.02, -0.02, 1, 11799.8, 113.96)" xlink:href="#radial-gradient"/><linearGradient id="linear-gradient-28" x1="11758.22" y1="192.84" x2="11770.96" y2="192.84" gradientTransform="matrix(-1, -0.02, -0.02, 1, 11799.8, 113.96)" xlink:href="#radial-gradient"/><linearGradient id="linear-gradient-29" x1="11395.86" y1="120.73" x2="11395.86" y2="123.03" gradientTransform="matrix(-1, 0, 0, 1, 11752.58, 0)" gradientUnits="userSpaceOnUse"><stop offset="0"/><stop offset="1" stop-color="#fff" stop-opacity="0"/></linearGradient><radialGradient id="radial-gradient-11" cx="11396.42" cy="91.13" fy="91.13219950534312" r="19.33" gradientTransform="matrix(1, 0, 0, -0.9, -11039.14, 202.16)" xlink:href="#radial-gradient"/></defs><title>policy_enforcement_2</title><g class="cls-1"><g id="Layer_1" data-name="Layer 1"><polygon class="cls-2" points="263.91 97.74 20.97 103.34 0 88.76 243.36 83.44 263.91 97.74"/><polygon class="cls-3" points="263.88 97.68 263.78 103.14 22 108.9 22.1 103.06 263.88 97.68"/><path class="cls-4" d="M21.69,109.4-.15,95.34,0,89.18,21.8,103.76Z" transform="translate(0.3 -0.5)"/><path class="cls-5" d="M73.27,199.06c2.75,18.08,2.75,79,2.75,79" transform="translate(0.3 -0.5)"/><path class="cls-5" d="M57.93,199.06c-2.75,18.08-2.75,79-2.75,79" transform="translate(0.3 -0.5)"/><rect class="cls-6" x="54.95" y="98.26" width="17.11" height="27.44" transform="translate(118.94 227.81) rotate(-175.8)"/><path class="cls-6" d="M74.42,80c-7,.22-13,.6-13.75,13.52-1.3-1.87-4.34-.68-3.87,3.52s.64,7.81,3.47,5.65c1.22,5.16,4.52,13.54,13,13.16s8.54-16.11,9.56-27.12C82.48,83.19,81.31,79.76,74.42,80Z" transform="translate(0.3 -0.5)"/><path class="cls-7" d="M77.5,99a6.5,6.5,0,0,0,1.69,2.89c.6.85.53,3.25-2.38,2Z" transform="translate(0.3 -0.5)"/><path class="cls-6" d="M60.27,102.65c-2.82,2.16-3.89-1.51-4.16-5.73-.23-3.55,2.25-4.75,3.68-4.16a1.73,1.73,0,0,1,1,1.45A62,62,0,0,1,60.27,102.65Z" transform="translate(0.3 -0.5)"/><path class="cls-8" d="M65.16,206.48h0a17.83,17.83,0,0,0,17.77-16.29s.26-25.47.45-46.19a25.72,25.72,0,0,0-25.72-26H47.37a4.93,4.93,0,0,0-4.91,5.34L47.38,190A17.83,17.83,0,0,0,65.16,206.48Z" transform="translate(0.3 -0.5)"/><path class="cls-9" d="M53.24,102.22c-.48-1.55-5-17.32,2.28-24.06s14.77-3.38,19.65-2.27c3.29.75,11.12,1.08,11.3,6.22s2,9.2-5.5,5.85c-2-.89-9.76-4.92-12.31-4.56-4.12.58-7,5.19-6.68,11.08a.22.22,0,0,1-.39.14c-1.61-2.28-3-2.29-4.49-.85s-.63,6.46.79,9.21C55.9,106.24,53.66,103.6,53.24,102.22Z" transform="translate(0.3 -0.5)"/><path class="cls-10" d="M82.93,184.23c0,.17,0,6.21,0,6.21a17.82,17.82,0,0,1-17.77,16.28h0a17.83,17.83,0,0,1-17.79-16.52L47,184.31Z" transform="translate(0.3 -0.5)"/><path class="cls-2" d="M82.94,189l-35.63,0-.45-6.16,36.15,0Z" transform="translate(0.3 -0.5)"/><path class="cls-11" d="M63.58,181.83v8.22h6.28v-8.22Zm1.34,1.38h3.6v5.46h-3.6Z" transform="translate(0.3 -0.5)"/><rect class="cls-11" x="67.28" y="185.54" width="4.06" height="0.81" transform="translate(138.93 371.39) rotate(-180)"/><circle class="cls-9" cx="78.48" cy="185.44" r="0.41"/><circle class="cls-9" cx="74.4" cy="185.44" r="0.41"/><path class="cls-6" d="M71.12,154.22c1-9.31-14-30.62-21.91-33.46l-3.44,2,21.5,34.06Z" transform="translate(0.3 -0.5)"/><rect class="cls-12" x="91.79" y="124.23" width="17.42" height="11.82" rx="1.37" ry="1.37" transform="translate(201.3 259.78) rotate(-180)"/><rect class="cls-13" x="92.94" y="132.59" width="7.59" height="1.52" transform="translate(193.78 266.2) rotate(-180)"/><rect class="cls-13" x="93.05" y="129.5" width="15" height="0.4" transform="translate(201.39 258.9) rotate(-180)"/><rect class="cls-13" x="91.77" y="126.47" width="17.43" height="1.48" transform="translate(201.28 253.92) rotate(-180)"/><path class="cls-9" d="M83.67,275.19l5.39.38c8.89,1.11,8.72,4.59,8.66,9.55h0a1.15,1.15,0,0,1-1.16,1.14l-24.78,0a1.15,1.15,0,0,1-1.14-1.16l.12-16,10.53.11,0,3.57A2.37,2.37,0,0,0,83.67,275.19Z" transform="translate(0.3 -0.5)"/><path class="cls-9" d="M62.9,275.19l5.39.38c8.89,1.11,8.72,4.59,8.66,9.55h0a1.15,1.15,0,0,1-1.16,1.14l-24.78,0a1.15,1.15,0,0,1-1.14-1.16l.12-16,10.53.11,0,3.57A2.37,2.37,0,0,0,62.9,275.19Z" transform="translate(0.3 -0.5)"/><path class="cls-14" d="M101.15,136.42l-31.85,25s-11.77-13.25-14.23-18.17-7.59-20.53-7.59-20.53" transform="translate(0.3 -0.5)"/><path class="cls-15" d="M61.73,136.54c1.39,3,3,7.2,3,8.37l-5.29,7.2c-2.09-3.6-11.21-12-11.21-12l11.39-6.27Z" transform="translate(0.3 -0.5)"/><path class="cls-16" d="M45.66,118.12h0c2.71-1.14,6.3-1,8.46,2.51l10.22,14-15.73,8.81L42.1,126.3C41,123.58,42.94,119.26,45.66,118.12Z" transform="translate(0.3 -0.5)"/><polygon class="cls-17" points="0.83 290.23 326.81 276.89 326.81 200.24 0.98 202.14 0.83 290.23"/><polygon class="cls-18" points="0.83 286 326.81 272.67 326.81 200.24 0.98 202.14 0.83 286"/><polygon class="cls-17" points="326.81 276.89 358.04 299.01 358.04 186.11 326.13 167.37 326.81 276.89"/><polygon class="cls-19" points="326.81 274.59 358.04 296.71 358.04 186.11 326.13 167.37 326.81 274.59"/><rect class="cls-20" x="356.7" y="186.47" width="7.52" height="113.04" transform="translate(721.23 485.47) rotate(-180)"/><rect class="cls-20" x="31.49" y="198.98" width="9.23" height="113.7" transform="translate(72.51 511.16) rotate(-180)"/><polygon class="cls-17" points="0.83 290.23 31.97 312.21 31.97 198.97 0.83 176.99 0.83 290.23"/><polygon class="cls-21" points="45.09 207.56 378.1 194.74 334.79 166.57 0.83 176.85 45.09 207.56"/><polygon class="cls-20" points="377.94 201.7 377.94 194.74 45.53 207.56 45.53 214.05 377.94 201.7"/><polygon class="cls-17" points="45.53 207.56 0.83 176.85 0.83 183.12 45.53 214.05 45.53 207.56"/><path class="cls-10" d="M198.91,174.37l-10.1.62a.65.65,0,0,0-.34,1.18l5.54,3.89a3.51,3.51,0,0,0,2.22.63l10.1-.62a.65.65,0,0,0,.34-1.18L201.13,175A3.51,3.51,0,0,0,198.91,174.37Z" transform="translate(0.3 -0.5)"/><path class="cls-11" d="M198.7,167.42a16.87,16.87,0,0,1,4.54-.08c-.8,4.75-1.71,9.45-1.71,9.45,0,.48-1.56.87-3.48.87s-3.48-.39-3.48-.87l-1.27-8.42A48.8,48.8,0,0,0,198.7,167.42Z" transform="translate(0.3 -0.5)"/><path class="cls-22" d="M198.57,160.37c3.51,0,5.58.39,5.58.87.3,0-2.61,15.56-2.61,15.56,0,.48-1.56.87-3.48.87s-3.48-.39-3.48-.87l-2.36-15.56C192.21,160.76,195.06,160.37,198.57,160.37Z" transform="translate(0.3 -0.5)"/><g class="cls-23"><path class="cls-24" d="M198.57,160.37c3.51,0,5.58.39,5.58.87.3,0-2.61,15.56-2.61,15.56,0,.48-1.56.87-3.48.87s-3.48-.39-3.48-.87l-2.36-15.56C192.21,160.76,195.06,160.37,198.57,160.37Z" transform="translate(0.3 -0.5)"/></g><g class="cls-23"><path class="cls-25" d="M198.57,160.37c3.51,0,5.58.39,5.58.87.3,0-2.61,15.56-2.61,15.56,0,.48-1.56.87-3.48.87s-3.48-.39-3.48-.87l-2.36-15.56C192.21,160.76,195.06,160.37,198.57,160.37Z" transform="translate(0.3 -0.5)"/></g><path class="cls-22" d="M192,161.09c0,.43,2.94.78,6.56.78s5.79-.35,5.79-.78-2.17-.78-5.79-.78S192,160.66,192,161.09Z" transform="translate(0.3 -0.5)"/><g class="cls-23"><path class="cls-26" d="M192,161.09c0,.43,2.94.78,6.56.78s5.79-.35,5.79-.78-2.17-.78-5.79-.78S192,160.66,192,161.09Z" transform="translate(0.3 -0.5)"/></g><path class="cls-10" d="M50,193.92l-10.1.62a.65.65,0,0,0-.34,1.18l5.54,3.89a3.51,3.51,0,0,0,2.22.63l10.1-.62a.65.65,0,0,0,.34-1.18l-5.54-3.89A3.51,3.51,0,0,0,50,193.92Z" transform="translate(0.3 -0.5)"/><path class="cls-27" d="M50.51,192.72a7.9,7.9,0,0,1,2.85-.15c-.41,2.22-.71,3.77-.71,3.77,0,.48-1.56.87-3.48.87s-3.48-.39-3.48-.87l-.53-3.52A25.37,25.37,0,0,0,50.51,192.72Z" transform="translate(0.3 -0.5)"/><path class="cls-22" d="M49.69,179.92c3.51,0,5.58.39,5.58.87.3,0-2.61,15.56-2.61,15.56,0,.48-1.56.87-3.48.87s-3.48-.39-3.48-.87l-2.36-15.56C43.34,180.3,46.18,179.92,49.69,179.92Z" transform="translate(0.3 -0.5)"/><g class="cls-23"><path class="cls-28" d="M49.69,179.92c3.51,0,5.58.39,5.58.87.3,0-2.61,15.56-2.61,15.56,0,.48-1.56.87-3.48.87s-3.48-.39-3.48-.87l-2.36-15.56C43.34,180.3,46.18,179.92,49.69,179.92Z" transform="translate(0.3 -0.5)"/></g><g class="cls-23"><path class="cls-29" d="M49.69,179.92c3.51,0,5.58.39,5.58.87.3,0-2.61,15.56-2.61,15.56,0,.48-1.56.87-3.48.87s-3.48-.39-3.48-.87l-2.36-15.56C43.34,180.3,46.18,179.92,49.69,179.92Z" transform="translate(0.3 -0.5)"/></g><path class="cls-22" d="M43.16,180.64c0,.43,2.94.78,6.56.78s5.79-.35,5.79-.78-2.17-.78-5.79-.78S43.16,180.21,43.16,180.64Z" transform="translate(0.3 -0.5)"/><g class="cls-23"><path class="cls-30" d="M43.16,180.64c0,.43,2.94.78,6.56.78s5.79-.35,5.79-.78-2.17-.78-5.79-.78S43.16,180.21,43.16,180.64Z" transform="translate(0.3 -0.5)"/></g><path class="cls-10" d="M70.93,195.57l-10.1.62a.65.65,0,0,0-.34,1.18L66,201.26a3.51,3.51,0,0,0,2.22.63l10.1-.62a.65.65,0,0,0,.34-1.18l-5.54-3.89A3.51,3.51,0,0,0,70.93,195.57Z" transform="translate(0.3 -0.5)"/><path class="cls-22" d="M70.59,181.56c3.51,0,5.58.39,5.58.87.3,0-2.61,15.56-2.61,15.56,0,.48-1.56.87-3.48.87s-3.48-.39-3.48-.87l-2.36-15.56C64.23,182,67.08,181.56,70.59,181.56Z" transform="translate(0.3 -0.5)"/><g class="cls-23"><path class="cls-31" d="M70.59,181.56c3.51,0,5.58.39,5.58.87.3,0-2.61,15.56-2.61,15.56,0,.48-1.56.87-3.48.87s-3.48-.39-3.48-.87l-2.36-15.56C64.23,182,67.08,181.56,70.59,181.56Z" transform="translate(0.3 -0.5)"/></g><g class="cls-23"><path class="cls-32" d="M70.59,181.56c3.51,0,5.58.39,5.58.87.3,0-2.61,15.56-2.61,15.56,0,.48-1.56.87-3.48.87s-3.48-.39-3.48-.87l-2.36-15.56C64.23,182,67.08,181.56,70.59,181.56Z" transform="translate(0.3 -0.5)"/></g><path class="cls-22" d="M64.06,182.29c0,.43,2.94.78,6.56.78s5.79-.35,5.79-.78-2.17-.78-5.79-.78S64.06,181.86,64.06,182.29Z" transform="translate(0.3 -0.5)"/><g class="cls-23"><path class="cls-33" d="M64.06,182.29c0,.43,2.94.78,6.56.78s5.79-.35,5.79-.78-2.17-.78-5.79-.78S64.06,181.86,64.06,182.29Z" transform="translate(0.3 -0.5)"/></g><path class="cls-10" d="M305.86,177.42l-10.1.62a.65.65,0,0,0-.34,1.18l5.54,3.89a3.51,3.51,0,0,0,2.22.63l10.1-.62a.65.65,0,0,0,.34-1.18l-5.54-3.89A3.51,3.51,0,0,0,305.86,177.42Z" transform="translate(0.3 -0.5)"/><path class="cls-22" d="M305.52,163.42c3.51,0,5.58.39,5.58.87.3,0-2.61,15.56-2.61,15.56,0,.48-1.56.87-3.48.87s-3.48-.39-3.48-.87l-2.36-15.56C299.17,163.8,302,163.42,305.52,163.42Z" transform="translate(0.3 -0.5)"/><g class="cls-23"><path class="cls-34" d="M305.52,163.42c3.51,0,5.58.39,5.58.87.3,0-2.61,15.56-2.61,15.56,0,.48-1.56.87-3.48.87s-3.48-.39-3.48-.87l-2.36-15.56C299.17,163.8,302,163.42,305.52,163.42Z" transform="translate(0.3 -0.5)"/></g><g class="cls-23"><path class="cls-35" d="M305.52,163.42c3.51,0,5.58.39,5.58.87.3,0-2.61,15.56-2.61,15.56,0,.48-1.56.87-3.48.87s-3.48-.39-3.48-.87l-2.36-15.56C299.17,163.8,302,163.42,305.52,163.42Z" transform="translate(0.3 -0.5)"/></g><path class="cls-22" d="M299,164.14c0,.43,2.94.78,6.56.78s5.79-.35,5.79-.78-2.17-.78-5.79-.78S299,163.71,299,164.14Z" transform="translate(0.3 -0.5)"/><g class="cls-23"><path class="cls-36" d="M299,164.14c0,.43,2.94.78,6.56.78s5.79-.35,5.79-.78-2.17-.78-5.79-.78S299,163.71,299,164.14Z" transform="translate(0.3 -0.5)"/></g><ellipse class="cls-4" cx="246.31" cy="316.87" rx="3.33" ry="15.62" transform="translate(-79.2 550.73) rotate(-87.87)"/><path class="cls-3" d="M246.42,234.69h0a3.17,3.17,0,0,1,3.17,3.17v80a0,0,0,0,1,0,0h-6.34a0,0,0,0,1,0,0v-80A3.17,3.17,0,0,1,246.42,234.69Z" transform="translate(493.13 552.02) rotate(180)"/><ellipse class="cls-4" cx="246.62" cy="230.77" rx="5.27" ry="24.72" transform="translate(7.14 468.13) rotate(-87.87)"/><ellipse class="cls-4" cx="246.62" cy="230.83" rx="5.27" ry="24.72" transform="translate(7.08 468.19) rotate(-87.87)"/><ellipse class="cls-4" cx="246.62" cy="230.89" rx="5.27" ry="24.72" transform="translate(7.02 468.24) rotate(-87.87)"/><ellipse class="cls-4" cx="246.62" cy="230.94" rx="5.27" ry="24.72" transform="translate(6.96 468.3) rotate(-87.87)"/><ellipse class="cls-4" cx="246.62" cy="231" rx="5.27" ry="24.72" transform="translate(6.9 468.36) rotate(-87.87)"/><ellipse class="cls-4" cx="246.62" cy="231.06" rx="5.27" ry="24.72" transform="matrix(0.04, -1, 1, 0.04, 6.84, 468.41)"/><ellipse class="cls-4" cx="246.62" cy="231.12" rx="5.27" ry="24.72" transform="translate(6.78 468.47) rotate(-87.87)"/><ellipse class="cls-4" cx="246.62" cy="231.18" rx="5.27" ry="24.72" transform="translate(6.72 468.53) rotate(-87.87)"/><ellipse class="cls-4" cx="246.62" cy="231.24" rx="5.27" ry="24.72" transform="translate(6.67 468.58) rotate(-87.87)"/><ellipse class="cls-4" cx="246.62" cy="231.3" rx="5.27" ry="24.72" transform="translate(6.61 468.64) rotate(-87.87)"/><ellipse class="cls-4" cx="246.62" cy="231.36" rx="5.27" ry="24.72" transform="translate(6.55 468.7) rotate(-87.87)"/><ellipse class="cls-4" cx="246.62" cy="231.42" rx="5.27" ry="24.72" transform="translate(6.49 468.75) rotate(-87.87)"/><ellipse class="cls-4" cx="246.62" cy="231.48" rx="5.27" ry="24.72" transform="translate(6.43 468.81) rotate(-87.87)"/><ellipse class="cls-4" cx="246.62" cy="231.54" rx="5.27" ry="24.72" transform="translate(6.37 468.87) rotate(-87.87)"/><ellipse class="cls-4" cx="246.62" cy="231.59" rx="5.27" ry="24.72" transform="translate(6.31 468.92) rotate(-87.87)"/><ellipse class="cls-4" cx="246.62" cy="231.65" rx="5.27" ry="24.72" transform="translate(6.25 468.98) rotate(-87.87)"/><ellipse class="cls-4" cx="246.62" cy="231.71" rx="5.27" ry="24.72" transform="translate(6.19 469.04) rotate(-87.87)"/><ellipse class="cls-4" cx="246.62" cy="231.77" rx="5.27" ry="24.72" transform="translate(6.13 469.1) rotate(-87.87)"/><ellipse class="cls-4" cx="246.62" cy="231.83" rx="5.27" ry="24.72" transform="translate(6.07 469.15) rotate(-87.87)"/><ellipse class="cls-4" cx="246.62" cy="231.89" rx="5.27" ry="24.72" transform="translate(6.02 469.21) rotate(-87.87)"/><ellipse class="cls-4" cx="246.62" cy="231.95" rx="5.27" ry="24.72" transform="translate(5.96 469.27) rotate(-87.87)"/><ellipse class="cls-4" cx="246.62" cy="232.01" rx="5.27" ry="24.72" transform="matrix(0.04, -1, 1, 0.04, 5.9, 469.32)"/><ellipse class="cls-4" cx="246.62" cy="232.07" rx="5.27" ry="24.72" transform="translate(5.84 469.38) rotate(-87.87)"/><ellipse class="cls-4" cx="246.62" cy="232.13" rx="5.27" ry="24.72" transform="translate(5.78 469.44) rotate(-87.87)"/><ellipse class="cls-4" cx="246.62" cy="232.18" rx="5.27" ry="24.72" transform="translate(5.72 469.49) rotate(-87.87)"/><ellipse class="cls-4" cx="246.62" cy="232.24" rx="5.27" ry="24.72" transform="translate(5.66 469.55) rotate(-87.87)"/><ellipse class="cls-4" cx="246.62" cy="232.3" rx="5.27" ry="24.72" transform="translate(5.6 469.61) rotate(-87.87)"/><ellipse class="cls-4" cx="246.62" cy="232.36" rx="5.27" ry="24.72" transform="matrix(0.04, -1, 1, 0.04, 5.54, 469.66)"/><ellipse class="cls-4" cx="246.62" cy="232.42" rx="5.27" ry="24.72" transform="translate(5.48 469.72) rotate(-87.87)"/><ellipse class="cls-4" cx="246.62" cy="232.48" rx="5.27" ry="24.72" transform="translate(5.43 469.78) rotate(-87.87)"/><ellipse class="cls-4" cx="246.62" cy="232.54" rx="5.27" ry="24.72" transform="translate(5.37 469.83) rotate(-87.87)"/><ellipse class="cls-4" cx="246.62" cy="232.6" rx="5.27" ry="24.72" transform="translate(5.31 469.89) rotate(-87.87)"/><ellipse class="cls-4" cx="246.62" cy="232.66" rx="5.27" ry="24.72" transform="translate(5.25 469.95) rotate(-87.87)"/><ellipse class="cls-4" cx="246.62" cy="232.72" rx="5.27" ry="24.72" transform="translate(5.19 470.01) rotate(-87.87)"/><ellipse class="cls-4" cx="246.62" cy="232.78" rx="5.27" ry="24.72" transform="matrix(0.04, -1, 1, 0.04, 5.13, 470.06)"/><ellipse class="cls-4" cx="246.62" cy="232.83" rx="5.27" ry="24.72" transform="translate(5.07 470.12) rotate(-87.87)"/><ellipse class="cls-4" cx="246.62" cy="232.89" rx="5.27" ry="24.72" transform="translate(5.01 470.18) rotate(-87.87)"/><ellipse class="cls-4" cx="246.62" cy="232.95" rx="5.27" ry="24.72" transform="translate(4.95 470.23) rotate(-87.87)"/><ellipse class="cls-4" cx="246.62" cy="233.01" rx="5.27" ry="24.72" transform="translate(4.89 470.29) rotate(-87.87)"/><ellipse class="cls-4" cx="246.62" cy="233.07" rx="5.27" ry="24.72" transform="translate(4.84 470.35) rotate(-87.87)"/><ellipse class="cls-4" cx="246.62" cy="233.13" rx="5.27" ry="24.72" transform="translate(4.78 470.4) rotate(-87.87)"/><ellipse class="cls-4" cx="246.62" cy="233.19" rx="5.27" ry="24.72" transform="translate(4.72 470.46) rotate(-87.87)"/><ellipse class="cls-4" cx="246.62" cy="233.25" rx="5.27" ry="24.72" transform="translate(4.66 470.52) rotate(-87.87)"/><ellipse class="cls-4" cx="246.62" cy="233.31" rx="5.27" ry="24.72" transform="translate(4.6 470.57) rotate(-87.87)"/><ellipse class="cls-4" cx="246.62" cy="233.37" rx="5.27" ry="24.72" transform="matrix(0.04, -1, 1, 0.04, 4.54, 470.63)"/><ellipse class="cls-4" cx="246.62" cy="233.43" rx="5.27" ry="24.72" transform="translate(4.48 470.69) rotate(-87.87)"/><ellipse class="cls-4" cx="246.62" cy="233.48" rx="5.27" ry="24.72" transform="translate(4.42 470.74) rotate(-87.87)"/><ellipse class="cls-4" cx="246.62" cy="233.54" rx="5.27" ry="24.72" transform="translate(4.36 470.8) rotate(-87.87)"/><ellipse class="cls-4" cx="246.62" cy="233.6" rx="5.27" ry="24.72" transform="translate(4.3 470.86) rotate(-87.87)"/><ellipse class="cls-4" cx="246.62" cy="233.66" rx="5.27" ry="24.72" transform="translate(4.25 470.92) rotate(-87.87)"/><ellipse class="cls-4" cx="246.62" cy="233.72" rx="5.27" ry="24.72" transform="translate(4.19 470.97) rotate(-87.87)"/><ellipse class="cls-4" cx="246.62" cy="233.78" rx="5.27" ry="24.72" transform="translate(4.13 471.03) rotate(-87.87)"/><ellipse class="cls-4" cx="246.62" cy="233.84" rx="5.27" ry="24.72" transform="translate(4.07 471.09) rotate(-87.87)"/><ellipse class="cls-4" cx="246.62" cy="233.9" rx="5.27" ry="24.72" transform="translate(4.01 471.14) rotate(-87.87)"/><ellipse class="cls-4" cx="246.62" cy="233.96" rx="5.27" ry="24.72" transform="translate(3.95 471.2) rotate(-87.87)"/><ellipse class="cls-4" cx="246.62" cy="234.02" rx="5.27" ry="24.72" transform="translate(3.89 471.26) rotate(-87.87)"/><ellipse class="cls-4" cx="246.62" cy="234.07" rx="5.27" ry="24.72" transform="translate(3.83 471.31) rotate(-87.87)"/><ellipse class="cls-4" cx="246.62" cy="234.13" rx="5.27" ry="24.72" transform="translate(3.77 471.37) rotate(-87.87)"/><ellipse class="cls-4" cx="246.62" cy="234.19" rx="5.27" ry="24.72" transform="translate(3.71 471.43) rotate(-87.87)"/><ellipse class="cls-4" cx="246.62" cy="234.25" rx="5.27" ry="24.72" transform="matrix(0.04, -1, 1, 0.04, 3.65, 471.48)"/><ellipse class="cls-4" cx="246.62" cy="234.31" rx="5.27" ry="24.72" transform="matrix(0.04, -1, 1, 0.04, 3.6, 471.54)"/><ellipse class="cls-4" cx="246.62" cy="234.37" rx="5.27" ry="24.72" transform="translate(3.54 471.6) rotate(-87.87)"/><ellipse class="cls-4" cx="246.62" cy="234.43" rx="5.27" ry="24.72" transform="translate(3.48 471.65) rotate(-87.87)"/><ellipse class="cls-4" cx="246.62" cy="234.49" rx="5.27" ry="24.72" transform="translate(3.42 471.71) rotate(-87.87)"/><ellipse class="cls-4" cx="246.62" cy="234.55" rx="5.27" ry="24.72" transform="matrix(0.04, -1, 1, 0.04, 3.36, 471.77)"/><ellipse class="cls-4" cx="246.62" cy="234.61" rx="5.27" ry="24.72" transform="translate(3.3 471.83) rotate(-87.87)"/><ellipse class="cls-4" cx="246.62" cy="234.67" rx="5.27" ry="24.72" transform="translate(3.24 471.88) rotate(-87.87)"/><ellipse class="cls-4" cx="246.62" cy="234.72" rx="5.27" ry="24.72" transform="translate(3.18 471.94) rotate(-87.87)"/><ellipse class="cls-4" cx="246.62" cy="234.78" rx="5.27" ry="24.72" transform="translate(3.12 472) rotate(-87.87)"/><ellipse class="cls-4" cx="246.62" cy="234.84" rx="5.27" ry="24.72" transform="translate(3.06 472.05) rotate(-87.87)"/><ellipse class="cls-4" cx="246.62" cy="234.9" rx="5.27" ry="24.72" transform="matrix(0.04, -1, 1, 0.04, 3.01, 472.11)"/><ellipse class="cls-4" cx="246.62" cy="234.96" rx="5.27" ry="24.72" transform="translate(2.95 472.17) rotate(-87.87)"/><ellipse class="cls-4" cx="246.62" cy="235.02" rx="5.27" ry="24.72" transform="translate(2.89 472.22) rotate(-87.87)"/><ellipse class="cls-4" cx="246.62" cy="235.08" rx="5.27" ry="24.72" transform="matrix(0.04, -1, 1, 0.04, 2.83, 472.28)"/><ellipse class="cls-4" cx="246.62" cy="235.14" rx="5.27" ry="24.72" transform="matrix(0.04, -1, 1, 0.04, 2.77, 472.34)"/><ellipse class="cls-4" cx="246.62" cy="235.2" rx="5.27" ry="24.72" transform="matrix(0.04, -1, 1, 0.04, 2.71, 472.39)"/><ellipse class="cls-4" cx="246.62" cy="235.26" rx="5.27" ry="24.72" transform="matrix(0.04, -1, 1, 0.04, 2.65, 472.45)"/><ellipse class="cls-4" cx="246.62" cy="235.32" rx="5.27" ry="24.72" transform="translate(2.59 472.51) rotate(-87.87)"/><ellipse class="cls-4" cx="246.62" cy="235.37" rx="5.27" ry="24.72" transform="translate(2.53 472.56) rotate(-87.87)"/><ellipse class="cls-4" cx="246.62" cy="235.43" rx="5.27" ry="24.72" transform="translate(2.47 472.62) rotate(-87.87)"/><ellipse class="cls-4" cx="246.62" cy="235.49" rx="5.27" ry="24.72" transform="matrix(0.04, -1, 1, 0.04, 2.42, 472.68)"/><ellipse class="cls-4" cx="246.62" cy="235.55" rx="5.27" ry="24.72" transform="matrix(0.04, -1, 1, 0.04, 2.36, 472.74)"/><ellipse class="cls-4" cx="246.62" cy="235.61" rx="5.27" ry="24.72" transform="matrix(0.04, -1, 1, 0.04, 2.3, 472.79)"/><ellipse class="cls-4" cx="246.62" cy="235.67" rx="5.27" ry="24.72" transform="translate(2.24 472.85) rotate(-87.87)"/><ellipse class="cls-4" cx="246.62" cy="235.73" rx="5.27" ry="24.72" transform="translate(2.18 472.91) rotate(-87.87)"/><ellipse class="cls-4" cx="246.62" cy="235.79" rx="5.27" ry="24.72" transform="matrix(0.04, -1, 1, 0.04, 2.12, 472.96)"/><ellipse class="cls-4" cx="246.62" cy="235.85" rx="5.27" ry="24.72" transform="matrix(0.04, -1, 1, 0.04, 2.06, 473.02)"/><ellipse class="cls-4" cx="246.62" cy="235.91" rx="5.27" ry="24.72" transform="matrix(0.04, -1, 1, 0.04, 2, 473.08)"/><ellipse class="cls-4" cx="246.62" cy="235.97" rx="5.27" ry="24.72" transform="matrix(0.04, -1, 1, 0.04, 1.94, 473.13)"/><ellipse class="cls-4" cx="246.62" cy="236.02" rx="5.27" ry="24.72" transform="matrix(0.04, -1, 1, 0.04, 1.88, 473.19)"/><ellipse class="cls-4" cx="246.62" cy="236.08" rx="5.27" ry="24.72" transform="matrix(0.04, -1, 1, 0.04, 1.83, 473.25)"/><ellipse class="cls-4" cx="246.62" cy="236.14" rx="5.27" ry="24.72" transform="matrix(0.04, -1, 1, 0.04, 1.77, 473.3)"/><ellipse class="cls-4" cx="246.62" cy="236.2" rx="5.27" ry="24.72" transform="translate(1.71 473.36) rotate(-87.87)"/><ellipse class="cls-4" cx="246.62" cy="236.26" rx="5.27" ry="24.72" transform="matrix(0.04, -1, 1, 0.04, 1.65, 473.42)"/><ellipse class="cls-4" cx="246.62" cy="236.32" rx="5.27" ry="24.72" transform="translate(1.59 473.47) rotate(-87.87)"/><ellipse class="cls-4" cx="246.62" cy="236.38" rx="5.27" ry="24.72" transform="matrix(0.04, -1, 1, 0.04, 1.53, 473.53)"/><ellipse class="cls-4" cx="246.62" cy="236.44" rx="5.27" ry="24.72" transform="translate(1.47 473.59) rotate(-87.87)"/><ellipse class="cls-4" cx="246.62" cy="236.5" rx="5.27" ry="24.72" transform="translate(1.41 473.65) rotate(-87.87)"/><ellipse class="cls-4" cx="246.62" cy="236.56" rx="5.27" ry="24.72" transform="matrix(0.04, -1, 1, 0.04, 1.35, 473.7)"/><ellipse class="cls-4" cx="246.62" cy="236.61" rx="5.27" ry="24.72" transform="matrix(0.04, -1, 1, 0.04, 1.29, 473.76)"/><ellipse class="cls-4" cx="246.62" cy="236.67" rx="5.27" ry="24.72" transform="translate(1.23 473.82) rotate(-87.87)"/><ellipse class="cls-4" cx="246.62" cy="236.73" rx="5.27" ry="24.72" transform="matrix(0.04, -1, 1, 0.04, 1.18, 473.87)"/><ellipse class="cls-2" cx="246.62" cy="230.77" rx="5.27" ry="24.72" transform="translate(7.14 468.13) rotate(-87.87)"/><polygon class="cls-8" points="221.34 272.62 219.21 260.67 208.12 260.67 210.46 274.37 221.34 272.62"/><path class="cls-9" d="M208.5,281.49l-5.93,1.32c-9.7,2.72-8.93,6.54-8,12h0a1.29,1.29,0,0,0,1.48,1.07l26.73-4a1.29,1.29,0,0,0,1.07-1.48L221,272.74l-10.88,1.75.55,4A2.66,2.66,0,0,1,208.5,281.49Z" transform="translate(0.3 -0.5)"/><polygon class="cls-10" points="220.34 267.02 220.56 268.28 209.73 270.11 209.51 268.85 220.34 267.02"/><polygon class="cls-10" points="220.94 270.4 210.09 272.23 209.88 270.98 220.72 269.14 220.94 270.4"/><path class="cls-37" d="M208.21,266l12.38-2c-1.45-8.83-1-5.28-2-11.2-1.76-9.65-3.43-18.78-2.81-21.28a12.13,12.13,0,0,1,2.53-.61l.92-.15c6.81-1.11,13.15-2.19,31.17-3.88a6.37,6.37,0,0,0,5.76-6.89l-.53-6.17c-22.76,2-30.65,3.3-38.4,4.56l-.92.15c-3.8.62-8,1.76-10.76,5.62-3.93,5.56-2.57,13,.71,30.9C207.27,260.86,206.78,257.25,208.21,266Z" transform="translate(0.3 -0.5)"/><g class="cls-38"><path class="cls-39" d="M206.2,255c-3.28-17.92-4.63-25.34-.71-30.9,2.72-3.85,7-5,10.76-5.62l.92-.15c7.75-1.26,15.64-2.59,38.4-4.56l.47,5.47a7.08,7.08,0,0,1-6.39,7.66c-17.56,1.66-23.76,2.72-30.48,3.81l-.92.15a12.13,12.13,0,0,0-2.53.61c-.63,2.49,1,11.63,2.81,21.28Z" transform="translate(0.3 -0.5)"/><path class="cls-40" d="M206.2,255c-3.28-17.92-4.63-25.34-.71-30.9,2.72-3.85,7-5,10.76-5.62l.92-.15c7.75-1.26,15.64-2.59,38.4-4.56l.47,5.47a7.08,7.08,0,0,1-6.39,7.66c-17.56,1.66-23.76,2.72-30.48,3.81l-.92.15a12.13,12.13,0,0,0-2.53.61c-.63,2.49,1,11.63,2.81,21.28Z" transform="translate(0.3 -0.5)"/></g><polygon class="cls-8" points="205.03 297.53 202.9 285.58 191.81 285.58 194.15 299.29 205.03 297.53"/><path class="cls-9" d="M192.19,306.4l-5.93,1.32c-9.7,2.72-8.93,6.54-8,12h0a1.29,1.29,0,0,0,1.48,1.07l26.73-4a1.29,1.29,0,0,0,1.07-1.48l-2.79-17.73-10.88,1.75.55,4A2.66,2.66,0,0,1,192.19,306.4Z" transform="translate(0.3 -0.5)"/><polygon class="cls-10" points="204.03 291.94 204.25 293.19 193.42 295.02 193.21 293.77 204.03 291.94"/><polygon class="cls-10" points="204.63 295.31 193.78 297.14 193.57 295.89 204.41 294.06 204.63 295.31"/><path class="cls-37" d="M191.66,291.47l12.4-1.89c-1-6.26-.25-1.83-1-6.8-4.22-27.09-5.8-37.23-3.22-41.63.43-.73,2.36-2.62,11-4.49,7.83-1.68,16.49-2.59,30.92-4.25l2.7-.31L243,219.66l-2.7.31c-33.21,3.8-45.64,5.14-51.33,14.84-3,5.09-3.28,10.64-2.81,17.42.5,7.1,2.07,17.2,4.45,32.49C191.41,289.67,190.71,285.23,191.66,291.47Z" transform="translate(0.3 -0.5)"/><path class="cls-41" d="M190.64,284.72c-2.38-15.29-4-25.39-4.45-32.49-.47-6.78-.18-12.33,2.81-17.42,5.69-9.7,18.12-11,51.33-14.84l2.7-.31,1.43,12.46-2.7.31c-14.43,1.65-23.1,2.56-30.92,4.25-8.66,1.86-10.59,3.76-11,4.49-2.58,4.4-1,14.54,3.22,41.63Z" transform="translate(0.3 -0.5)"/><path class="cls-6" d="M253.39,166.13,247.8,147l-.45-1.87a23.08,23.08,0,0,1-.42-8.64c1.4-9.86.86-18.92-14.18-17.2-17.14,2-14.08,6.56-11.48,21.62,2.27,13.17,7.74,13.81,11.66,13.1l6.72,16.32Z" transform="translate(0.3 -0.5)"/><path class="cls-6" d="M221,139.4a7.23,7.23,0,0,1-1.54,3.39c-.57,1-.22,3.66,2.85,1.92Z" transform="translate(0.3 -0.5)"/><path class="cls-11" d="M227.93,132.62c-5.23-.89-11.69.2-12.89-6.55a8,8,0,0,1,3.29-7.92.77.77,0,0,1,1.23.7c-.23,2,.49,5.22,6.43,7.53,9.18,3.56,21.27,8.09,21.27,8.09s-.85,5.78-.25,8l-5.78,0s.51-4.89-2.8-5.24-4.3,1.81-4.25,3.75l-.93.07S233,133.5,227.93,132.62Z" transform="translate(0.3 -0.5)"/><path class="cls-42" d="M225.3,159.1l24.05-2.77a17,17,0,0,1,18.81,15.13l3.4,33.46c1.42,13.95-5.67,22.32-22.22,27-3.46,1-14.79,1.23-14.79,1.23-3,0-5.14-4.46-4.38-7.31,1.69-6.43,3.95-16.93,2.79-23.88-1.77-10.62-10.33-26.37-10.33-26.37Z" transform="translate(0.3 -0.5)"/><path class="cls-43" d="M242.37,118a14.37,14.37,0,0,1,4.45,17.55L219.44,124.5a14.49,14.49,0,0,1,2.14-3.78A15,15,0,0,1,242.37,118Z" transform="translate(0.3 -0.5)"/><path class="cls-43" d="M221.06,125l38.88,16.45a.79.79,0,0,0,1-.4l.27-.62a.77.77,0,0,0-.41-1L222,122.92a.79.79,0,0,0-1,.4l-.27.62A.77.77,0,0,0,221.06,125Z" transform="translate(0.3 -0.5)"/><path class="cls-11" d="M217,127a9,9,0,0,1-3.05-3.52c-.09-.21-.33-.14-.41.07-.87,2.42,0,7.19,7.6,8.29C225,132.39,217,127,217,127Z" transform="translate(0.3 -0.5)"/><path class="cls-44" d="M233,201.92c-1.77-10.62-10.33-26.37-10.33-26.37l2.67-16.45,24.05-2.77a17,17,0,0,1,3.12-.07l8,71.13a48.1,48.1,0,0,1-11.14,4.5c-3.46,1-14.79,1.23-14.79,1.23-3,0-5.14-4.46-4.38-7.31C231.87,219.38,234.12,208.87,233,201.92Z" transform="translate(0.3 -0.5)"/><path class="cls-6" d="M194.58,202.82a10.42,10.42,0,0,0,1.52-.11,27,27,0,0,0,18.62-11.62,226.62,226.62,0,0,1,16.93-22.87,4.48,4.48,0,0,0-6.83-5.79,234.53,234.53,0,0,0-17.56,23.7c-3.18,4.78-10.91,7.49-12.47,7.72-2.47.37-10.79-6.52-15.75-10.63a4.48,4.48,0,0,0-5.72,6.9C183.7,198.7,189.26,202.82,194.58,202.82Z" transform="translate(0.3 -0.5)"/><path class="cls-42" d="M207,186.29a1.59,1.59,0,0,1-.2-2.18,96.37,96.37,0,0,0,6.67-10.37c2.74-4.67,5.58-9.51,9-13.23a6.37,6.37,0,0,1,8.9-.58,6.27,6.27,0,0,1,.45,8.93c-2.54,2.76-4.95,6.87-7.5,11.23a101.52,101.52,0,0,1-7.92,12.14,1.58,1.58,0,0,1-2.27.2Z" transform="translate(0.3 -0.5)"/><ellipse class="cls-4" cx="81.12" cy="324.98" rx="3.33" ry="15.62" transform="translate(-246.35 393.45) rotate(-87.87)"/><path class="cls-3" d="M81.22,242.8h0A3.17,3.17,0,0,1,84.39,246v80a0,0,0,0,1,0,0H78a0,0,0,0,1,0,0V246A3.17,3.17,0,0,1,81.22,242.8Z" transform="translate(162.74 568.22) rotate(180)"/><ellipse class="cls-4" cx="81.42" cy="238.87" rx="5.27" ry="24.72" transform="translate(-160.01 310.85) rotate(-87.87)"/><ellipse class="cls-4" cx="81.42" cy="238.93" rx="5.27" ry="24.72" transform="translate(-160.07 310.9) rotate(-87.87)"/><ellipse class="cls-4" cx="81.42" cy="238.99" rx="5.27" ry="24.72" transform="translate(-160.13 310.96) rotate(-87.87)"/><ellipse class="cls-4" cx="81.42" cy="239.05" rx="5.27" ry="24.72" transform="translate(-160.19 311.02) rotate(-87.87)"/><ellipse class="cls-4" cx="81.42" cy="239.1" rx="5.27" ry="24.72" transform="translate(-160.25 311.07) rotate(-87.87)"/><ellipse class="cls-4" cx="81.42" cy="239.16" rx="5.27" ry="24.72" transform="translate(-160.3 311.13) rotate(-87.87)"/><ellipse class="cls-4" cx="81.42" cy="239.22" rx="5.27" ry="24.72" transform="translate(-160.36 311.19) rotate(-87.87)"/><ellipse class="cls-4" cx="81.42" cy="239.28" rx="5.27" ry="24.72" transform="translate(-160.42 311.24) rotate(-87.87)"/><ellipse class="cls-4" cx="81.42" cy="239.34" rx="5.27" ry="24.72" transform="translate(-160.48 311.3) rotate(-87.87)"/><ellipse class="cls-4" cx="81.42" cy="239.4" rx="5.27" ry="24.72" transform="translate(-160.54 311.36) rotate(-87.87)"/><ellipse class="cls-4" cx="81.42" cy="239.46" rx="5.27" ry="24.72" transform="translate(-160.6 311.42) rotate(-87.87)"/><ellipse class="cls-4" cx="81.42" cy="239.52" rx="5.27" ry="24.72" transform="translate(-160.66 311.47) rotate(-87.87)"/><ellipse class="cls-4" cx="81.42" cy="239.58" rx="5.27" ry="24.72" transform="translate(-160.72 311.53) rotate(-87.87)"/><ellipse class="cls-4" cx="81.42" cy="239.64" rx="5.27" ry="24.72" transform="translate(-160.78 311.59) rotate(-87.87)"/><ellipse class="cls-4" cx="81.42" cy="239.7" rx="5.27" ry="24.72" transform="translate(-160.84 311.64) rotate(-87.87)"/><ellipse class="cls-4" cx="81.42" cy="239.75" rx="5.27" ry="24.72" transform="translate(-160.89 311.7) rotate(-87.87)"/><ellipse class="cls-4" cx="81.42" cy="239.81" rx="5.27" ry="24.72" transform="translate(-160.95 311.76) rotate(-87.87)"/><ellipse class="cls-4" cx="81.42" cy="239.87" rx="5.27" ry="24.72" transform="translate(-161.01 311.81) rotate(-87.87)"/><ellipse class="cls-4" cx="81.42" cy="239.93" rx="5.27" ry="24.72" transform="translate(-161.07 311.87) rotate(-87.87)"/><ellipse class="cls-4" cx="81.42" cy="239.99" rx="5.27" ry="24.72" transform="translate(-161.13 311.93) rotate(-87.87)"/><ellipse class="cls-4" cx="81.42" cy="240.05" rx="5.27" ry="24.72" transform="translate(-161.19 311.98) rotate(-87.87)"/><ellipse class="cls-4" cx="81.42" cy="240.11" rx="5.27" ry="24.72" transform="translate(-161.25 312.04) rotate(-87.87)"/><ellipse class="cls-4" cx="81.42" cy="240.17" rx="5.27" ry="24.72" transform="translate(-161.31 312.1) rotate(-87.87)"/><ellipse class="cls-4" cx="81.42" cy="240.23" rx="5.27" ry="24.72" transform="translate(-161.37 312.15) rotate(-87.87)"/><ellipse class="cls-4" cx="81.42" cy="240.29" rx="5.27" ry="24.72" transform="translate(-161.43 312.21) rotate(-87.87)"/><ellipse class="cls-4" cx="81.42" cy="240.35" rx="5.27" ry="24.72" transform="translate(-161.49 312.27) rotate(-87.87)"/><ellipse class="cls-4" cx="81.42" cy="240.4" rx="5.27" ry="24.72" transform="translate(-161.54 312.33) rotate(-87.87)"/><ellipse class="cls-4" cx="81.42" cy="240.46" rx="5.27" ry="24.72" transform="translate(-161.6 312.38) rotate(-87.87)"/><ellipse class="cls-4" cx="81.42" cy="240.52" rx="5.27" ry="24.72" transform="translate(-161.66 312.44) rotate(-87.87)"/><ellipse class="cls-4" cx="81.42" cy="240.58" rx="5.27" ry="24.72" transform="translate(-161.72 312.5) rotate(-87.87)"/><ellipse class="cls-4" cx="81.42" cy="240.64" rx="5.27" ry="24.72" transform="translate(-161.78 312.55) rotate(-87.87)"/><ellipse class="cls-4" cx="81.42" cy="240.7" rx="5.27" ry="24.72" transform="translate(-161.84 312.61) rotate(-87.87)"/><ellipse class="cls-4" cx="81.42" cy="240.76" rx="5.27" ry="24.72" transform="translate(-161.9 312.67) rotate(-87.87)"/><ellipse class="cls-4" cx="81.42" cy="240.82" rx="5.27" ry="24.72" transform="translate(-161.96 312.72) rotate(-87.87)"/><ellipse class="cls-4" cx="81.42" cy="240.88" rx="5.27" ry="24.72" transform="translate(-162.02 312.78) rotate(-87.87)"/><ellipse class="cls-4" cx="81.42" cy="240.94" rx="5.27" ry="24.72" transform="translate(-162.08 312.84) rotate(-87.87)"/><ellipse class="cls-4" cx="81.42" cy="240.99" rx="5.27" ry="24.72" transform="translate(-162.13 312.89) rotate(-87.87)"/><ellipse class="cls-4" cx="81.42" cy="241.05" rx="5.27" ry="24.72" transform="translate(-162.19 312.95) rotate(-87.87)"/><ellipse class="cls-4" cx="81.42" cy="241.11" rx="5.27" ry="24.72" transform="translate(-162.25 313.01) rotate(-87.87)"/><ellipse class="cls-4" cx="81.42" cy="241.17" rx="5.27" ry="24.72" transform="translate(-162.31 313.06) rotate(-87.87)"/><ellipse class="cls-4" cx="81.42" cy="241.23" rx="5.27" ry="24.72" transform="translate(-162.37 313.12) rotate(-87.87)"/><ellipse class="cls-4" cx="81.42" cy="241.29" rx="5.27" ry="24.72" transform="translate(-162.43 313.18) rotate(-87.87)"/><ellipse class="cls-4" cx="81.42" cy="241.35" rx="5.27" ry="24.72" transform="translate(-162.49 313.24) rotate(-87.87)"/><ellipse class="cls-4" cx="81.42" cy="241.41" rx="5.27" ry="24.72" transform="translate(-162.55 313.29) rotate(-87.87)"/><ellipse class="cls-4" cx="81.42" cy="241.47" rx="5.27" ry="24.72" transform="translate(-162.61 313.35) rotate(-87.87)"/><ellipse class="cls-4" cx="81.42" cy="241.53" rx="5.27" ry="24.72" transform="translate(-162.67 313.41) rotate(-87.87)"/><ellipse class="cls-4" cx="81.42" cy="241.59" rx="5.27" ry="24.72" transform="translate(-162.72 313.46) rotate(-87.87)"/><ellipse class="cls-4" cx="81.42" cy="241.64" rx="5.27" ry="24.72" transform="translate(-162.78 313.52) rotate(-87.87)"/><ellipse class="cls-4" cx="81.42" cy="241.7" rx="5.27" ry="24.72" transform="translate(-162.84 313.58) rotate(-87.87)"/><ellipse class="cls-4" cx="81.42" cy="241.76" rx="5.27" ry="24.72" transform="translate(-162.9 313.63) rotate(-87.87)"/><ellipse class="cls-4" cx="81.42" cy="241.82" rx="5.27" ry="24.72" transform="translate(-162.96 313.69) rotate(-87.87)"/><ellipse class="cls-4" cx="81.42" cy="241.88" rx="5.27" ry="24.72" transform="translate(-163.02 313.75) rotate(-87.87)"/><ellipse class="cls-4" cx="81.42" cy="241.94" rx="5.27" ry="24.72" transform="translate(-163.08 313.8) rotate(-87.87)"/><ellipse class="cls-4" cx="81.42" cy="242" rx="5.27" ry="24.72" transform="translate(-163.14 313.86) rotate(-87.87)"/><ellipse class="cls-4" cx="81.42" cy="242.06" rx="5.27" ry="24.72" transform="translate(-163.2 313.92) rotate(-87.87)"/><ellipse class="cls-4" cx="81.42" cy="242.12" rx="5.27" ry="24.72" transform="translate(-163.26 313.97) rotate(-87.87)"/><ellipse class="cls-4" cx="81.42" cy="242.18" rx="5.27" ry="24.72" transform="translate(-163.32 314.03) rotate(-87.87)"/><ellipse class="cls-4" cx="81.42" cy="242.24" rx="5.27" ry="24.72" transform="translate(-163.37 314.09) rotate(-87.87)"/><ellipse class="cls-4" cx="81.42" cy="242.29" rx="5.27" ry="24.72" transform="translate(-163.43 314.15) rotate(-87.87)"/><ellipse class="cls-4" cx="81.42" cy="242.35" rx="5.27" ry="24.72" transform="translate(-163.49 314.2) rotate(-87.87)"/><ellipse class="cls-4" cx="81.42" cy="242.41" rx="5.27" ry="24.72" transform="translate(-163.55 314.26) rotate(-87.87)"/><ellipse class="cls-4" cx="81.42" cy="242.47" rx="5.27" ry="24.72" transform="translate(-163.61 314.32) rotate(-87.87)"/><ellipse class="cls-4" cx="81.42" cy="242.53" rx="5.27" ry="24.72" transform="translate(-163.67 314.37) rotate(-87.87)"/><ellipse class="cls-4" cx="81.42" cy="242.59" rx="5.27" ry="24.72" transform="translate(-163.73 314.43) rotate(-87.87)"/><ellipse class="cls-4" cx="81.42" cy="242.65" rx="5.27" ry="24.72" transform="translate(-163.79 314.49) rotate(-87.87)"/><ellipse class="cls-4" cx="81.42" cy="242.71" rx="5.27" ry="24.72" transform="translate(-163.85 314.54) rotate(-87.87)"/><ellipse class="cls-4" cx="81.42" cy="242.77" rx="5.27" ry="24.72" transform="translate(-163.91 314.6) rotate(-87.87)"/><ellipse class="cls-4" cx="81.42" cy="242.83" rx="5.27" ry="24.72" transform="translate(-163.96 314.66) rotate(-87.87)"/><ellipse class="cls-4" cx="81.42" cy="242.89" rx="5.27" ry="24.72" transform="translate(-164.02 314.71) rotate(-87.87)"/><ellipse class="cls-4" cx="81.42" cy="242.94" rx="5.27" ry="24.72" transform="translate(-164.08 314.77) rotate(-87.87)"/><ellipse class="cls-4" cx="81.42" cy="243" rx="5.27" ry="24.72" transform="translate(-164.14 314.83) rotate(-87.87)"/><ellipse class="cls-4" cx="81.42" cy="243.06" rx="5.27" ry="24.72" transform="translate(-164.2 314.88) rotate(-87.87)"/><ellipse class="cls-4" cx="81.42" cy="243.12" rx="5.27" ry="24.72" transform="translate(-164.26 314.94) rotate(-87.87)"/><ellipse class="cls-4" cx="81.42" cy="243.18" rx="5.27" ry="24.72" transform="translate(-164.32 315) rotate(-87.87)"/><ellipse class="cls-4" cx="81.42" cy="243.24" rx="5.27" ry="24.72" transform="translate(-164.38 315.06) rotate(-87.87)"/><ellipse class="cls-4" cx="81.42" cy="243.3" rx="5.27" ry="24.72" transform="translate(-164.44 315.11) rotate(-87.87)"/><ellipse class="cls-4" cx="81.42" cy="243.36" rx="5.27" ry="24.72" transform="translate(-164.5 315.17) rotate(-87.87)"/><ellipse class="cls-4" cx="81.42" cy="243.42" rx="5.27" ry="24.72" transform="translate(-164.55 315.23) rotate(-87.87)"/><ellipse class="cls-4" cx="81.42" cy="243.48" rx="5.27" ry="24.72" transform="translate(-164.61 315.28) rotate(-87.87)"/><ellipse class="cls-4" cx="81.42" cy="243.53" rx="5.27" ry="24.72" transform="translate(-164.67 315.34) rotate(-87.87)"/><ellipse class="cls-4" cx="81.42" cy="243.59" rx="5.27" ry="24.72" transform="translate(-164.73 315.4) rotate(-87.87)"/><ellipse class="cls-4" cx="81.42" cy="243.65" rx="5.27" ry="24.72" transform="translate(-164.79 315.45) rotate(-87.87)"/><ellipse class="cls-4" cx="81.42" cy="243.71" rx="5.27" ry="24.72" transform="translate(-164.85 315.51) rotate(-87.87)"/><ellipse class="cls-4" cx="81.42" cy="243.77" rx="5.27" ry="24.72" transform="matrix(0.04, -1, 1, 0.04, -164.91, 315.57)"/><ellipse class="cls-4" cx="81.42" cy="243.83" rx="5.27" ry="24.72" transform="translate(-164.97 315.62) rotate(-87.87)"/><ellipse class="cls-4" cx="81.42" cy="243.89" rx="5.27" ry="24.72" transform="translate(-165.03 315.68) rotate(-87.87)"/><ellipse class="cls-4" cx="81.42" cy="243.95" rx="5.27" ry="24.72" transform="translate(-165.09 315.74) rotate(-87.87)"/><ellipse class="cls-4" cx="81.42" cy="244.01" rx="5.27" ry="24.72" transform="translate(-165.14 315.79) rotate(-87.87)"/><ellipse class="cls-4" cx="81.42" cy="244.07" rx="5.27" ry="24.72" transform="translate(-165.2 315.85) rotate(-87.87)"/><ellipse class="cls-4" cx="81.42" cy="244.13" rx="5.27" ry="24.72" transform="translate(-165.26 315.91) rotate(-87.87)"/><ellipse class="cls-4" cx="81.42" cy="244.18" rx="5.27" ry="24.72" transform="translate(-165.32 315.96) rotate(-87.87)"/><ellipse class="cls-4" cx="81.42" cy="244.24" rx="5.27" ry="24.72" transform="matrix(0.04, -1, 1, 0.04, -165.38, 316.02)"/><ellipse class="cls-4" cx="81.42" cy="244.3" rx="5.27" ry="24.72" transform="translate(-165.44 316.08) rotate(-87.87)"/><ellipse class="cls-4" cx="81.42" cy="244.36" rx="5.27" ry="24.72" transform="translate(-165.5 316.14) rotate(-87.87)"/><ellipse class="cls-4" cx="81.42" cy="244.42" rx="5.27" ry="24.72" transform="translate(-165.56 316.19) rotate(-87.87)"/><ellipse class="cls-4" cx="81.42" cy="244.48" rx="5.27" ry="24.72" transform="translate(-165.62 316.25) rotate(-87.87)"/><ellipse class="cls-4" cx="81.42" cy="244.54" rx="5.27" ry="24.72" transform="translate(-165.68 316.31) rotate(-87.87)"/><ellipse class="cls-4" cx="81.42" cy="244.6" rx="5.27" ry="24.72" transform="translate(-165.74 316.36) rotate(-87.87)"/><ellipse class="cls-4" cx="81.42" cy="244.66" rx="5.27" ry="24.72" transform="translate(-165.79 316.42) rotate(-87.87)"/><ellipse class="cls-4" cx="81.42" cy="244.72" rx="5.27" ry="24.72" transform="translate(-165.85 316.48) rotate(-87.87)"/><ellipse class="cls-4" cx="81.42" cy="244.78" rx="5.27" ry="24.72" transform="translate(-165.91 316.53) rotate(-87.87)"/><ellipse class="cls-4" cx="81.42" cy="244.83" rx="5.27" ry="24.72" transform="translate(-165.97 316.59) rotate(-87.87)"/><ellipse class="cls-2" cx="81.42" cy="238.87" rx="5.27" ry="24.72" transform="translate(-160.01 310.85) rotate(-87.87)"/><ellipse class="cls-4" cx="170.59" cy="325.33" rx="3.33" ry="15.62" transform="translate(-160.56 483.19) rotate(-87.87)"/><path class="cls-3" d="M170.69,243.15h0a3.17,3.17,0,0,1,3.17,3.17v80a0,0,0,0,1,0,0h-6.34a0,0,0,0,1,0,0v-80a3.17,3.17,0,0,1,3.17-3.17Z" transform="translate(341.67 568.92) rotate(180)"/><ellipse class="cls-4" cx="170.89" cy="239.22" rx="5.27" ry="24.72" transform="translate(-74.22 400.59) rotate(-87.87)"/><ellipse class="cls-4" cx="170.89" cy="239.28" rx="5.27" ry="24.72" transform="translate(-74.28 400.65) rotate(-87.87)"/><ellipse class="cls-4" cx="170.89" cy="239.34" rx="5.27" ry="24.72" transform="translate(-74.34 400.7) rotate(-87.87)"/><ellipse class="cls-4" cx="170.89" cy="239.4" rx="5.27" ry="24.72" transform="translate(-74.4 400.76) rotate(-87.87)"/><ellipse class="cls-4" cx="170.89" cy="239.46" rx="5.27" ry="24.72" transform="translate(-74.46 400.82) rotate(-87.87)"/><ellipse class="cls-4" cx="170.89" cy="239.52" rx="5.27" ry="24.72" transform="translate(-74.52 400.87) rotate(-87.87)"/><ellipse class="cls-4" cx="170.89" cy="239.58" rx="5.27" ry="24.72" transform="translate(-74.58 400.93) rotate(-87.87)"/><ellipse class="cls-4" cx="170.89" cy="239.63" rx="5.27" ry="24.72" transform="translate(-74.64 400.99) rotate(-87.87)"/><ellipse class="cls-4" cx="170.89" cy="239.69" rx="5.27" ry="24.72" transform="translate(-74.7 401.05) rotate(-87.87)"/><ellipse class="cls-4" cx="170.89" cy="239.75" rx="5.27" ry="24.72" transform="translate(-74.75 401.1) rotate(-87.87)"/><ellipse class="cls-4" cx="170.89" cy="239.81" rx="5.27" ry="24.72" transform="translate(-74.81 401.16) rotate(-87.87)"/><ellipse class="cls-4" cx="170.89" cy="239.87" rx="5.27" ry="24.72" transform="translate(-74.87 401.22) rotate(-87.87)"/><ellipse class="cls-4" cx="170.89" cy="239.93" rx="5.27" ry="24.72" transform="translate(-74.93 401.27) rotate(-87.87)"/><ellipse class="cls-4" cx="170.89" cy="239.99" rx="5.27" ry="24.72" transform="translate(-74.99 401.33) rotate(-87.87)"/><ellipse class="cls-4" cx="170.89" cy="240.05" rx="5.27" ry="24.72" transform="translate(-75.05 401.39) rotate(-87.87)"/><ellipse class="cls-4" cx="170.89" cy="240.11" rx="5.27" ry="24.72" transform="translate(-75.11 401.44) rotate(-87.87)"/><ellipse class="cls-4" cx="170.89" cy="240.17" rx="5.27" ry="24.72" transform="translate(-75.17 401.5) rotate(-87.87)"/><ellipse class="cls-4" cx="170.89" cy="240.22" rx="5.27" ry="24.72" transform="translate(-75.23 401.56) rotate(-87.87)"/><ellipse class="cls-4" cx="170.89" cy="240.28" rx="5.27" ry="24.72" transform="translate(-75.29 401.61) rotate(-87.87)"/><ellipse class="cls-4" cx="170.89" cy="240.34" rx="5.27" ry="24.72" transform="translate(-75.34 401.67) rotate(-87.87)"/><ellipse class="cls-4" cx="170.89" cy="240.4" rx="5.27" ry="24.72" transform="translate(-75.4 401.73) rotate(-87.87)"/><ellipse class="cls-4" cx="170.89" cy="240.46" rx="5.27" ry="24.72" transform="translate(-75.46 401.78) rotate(-87.87)"/><ellipse class="cls-4" cx="170.89" cy="240.52" rx="5.27" ry="24.72" transform="translate(-75.52 401.84) rotate(-87.87)"/><ellipse class="cls-4" cx="170.89" cy="240.58" rx="5.27" ry="24.72" transform="translate(-75.58 401.9) rotate(-87.87)"/><ellipse class="cls-4" cx="170.89" cy="240.64" rx="5.27" ry="24.72" transform="translate(-75.64 401.96) rotate(-87.87)"/><ellipse class="cls-4" cx="170.89" cy="240.7" rx="5.27" ry="24.72" transform="translate(-75.7 402.01) rotate(-87.87)"/><ellipse class="cls-4" cx="170.89" cy="240.76" rx="5.27" ry="24.72" transform="translate(-75.76 402.07) rotate(-87.87)"/><ellipse class="cls-4" cx="170.89" cy="240.82" rx="5.27" ry="24.72" transform="translate(-75.82 402.13) rotate(-87.87)"/><ellipse class="cls-4" cx="170.89" cy="240.87" rx="5.27" ry="24.72" transform="translate(-75.88 402.18) rotate(-87.87)"/><ellipse class="cls-4" cx="170.89" cy="240.93" rx="5.27" ry="24.72" transform="translate(-75.93 402.24) rotate(-87.87)"/><ellipse class="cls-4" cx="170.89" cy="240.99" rx="5.27" ry="24.72" transform="translate(-75.99 402.3) rotate(-87.87)"/><ellipse class="cls-4" cx="170.89" cy="241.05" rx="5.27" ry="24.72" transform="translate(-76.05 402.35) rotate(-87.87)"/><ellipse class="cls-4" cx="170.89" cy="241.11" rx="5.27" ry="24.72" transform="translate(-76.11 402.41) rotate(-87.87)"/><ellipse class="cls-4" cx="170.89" cy="241.17" rx="5.27" ry="24.72" transform="translate(-76.17 402.47) rotate(-87.87)"/><ellipse class="cls-4" cx="170.89" cy="241.23" rx="5.27" ry="24.72" transform="translate(-76.23 402.52) rotate(-87.87)"/><ellipse class="cls-4" cx="170.89" cy="241.29" rx="5.27" ry="24.72" transform="translate(-76.29 402.58) rotate(-87.87)"/><ellipse class="cls-4" cx="170.89" cy="241.35" rx="5.27" ry="24.72" transform="translate(-76.35 402.64) rotate(-87.87)"/><ellipse class="cls-4" cx="170.89" cy="241.41" rx="5.27" ry="24.72" transform="translate(-76.41 402.69) rotate(-87.87)"/><ellipse class="cls-4" cx="170.89" cy="241.47" rx="5.27" ry="24.72" transform="translate(-76.47 402.75) rotate(-87.87)"/><ellipse class="cls-4" cx="170.89" cy="241.52" rx="5.27" ry="24.72" transform="translate(-76.52 402.81) rotate(-87.87)"/><ellipse class="cls-4" cx="170.89" cy="241.58" rx="5.27" ry="24.72" transform="translate(-76.58 402.87) rotate(-87.87)"/><ellipse class="cls-4" cx="170.89" cy="241.64" rx="5.27" ry="24.72" transform="translate(-76.64 402.92) rotate(-87.87)"/><ellipse class="cls-4" cx="170.89" cy="241.7" rx="5.27" ry="24.72" transform="translate(-76.7 402.98) rotate(-87.87)"/><ellipse class="cls-4" cx="170.89" cy="241.76" rx="5.27" ry="24.72" transform="translate(-76.76 403.04) rotate(-87.87)"/><ellipse class="cls-4" cx="170.89" cy="241.82" rx="5.27" ry="24.72" transform="translate(-76.82 403.09) rotate(-87.87)"/><ellipse class="cls-4" cx="170.89" cy="241.88" rx="5.27" ry="24.72" transform="translate(-76.88 403.15) rotate(-87.87)"/><ellipse class="cls-4" cx="170.89" cy="241.94" rx="5.27" ry="24.72" transform="translate(-76.94 403.21) rotate(-87.87)"/><ellipse class="cls-4" cx="170.89" cy="242" rx="5.27" ry="24.72" transform="translate(-77 403.26) rotate(-87.87)"/><ellipse class="cls-4" cx="170.89" cy="242.06" rx="5.27" ry="24.72" transform="translate(-77.06 403.32) rotate(-87.87)"/><ellipse class="cls-4" cx="170.89" cy="242.12" rx="5.27" ry="24.72" transform="translate(-77.12 403.38) rotate(-87.87)"/><ellipse class="cls-4" cx="170.89" cy="242.17" rx="5.27" ry="24.72" transform="translate(-77.17 403.43) rotate(-87.87)"/><ellipse class="cls-4" cx="170.89" cy="242.23" rx="5.27" ry="24.72" transform="translate(-77.23 403.49) rotate(-87.87)"/><ellipse class="cls-4" cx="170.89" cy="242.29" rx="5.27" ry="24.72" transform="translate(-77.29 403.55) rotate(-87.87)"/><ellipse class="cls-4" cx="170.89" cy="242.35" rx="5.27" ry="24.72" transform="translate(-77.35 403.6) rotate(-87.87)"/><ellipse class="cls-4" cx="170.89" cy="242.41" rx="5.27" ry="24.72" transform="translate(-77.41 403.66) rotate(-87.87)"/><ellipse class="cls-4" cx="170.89" cy="242.47" rx="5.27" ry="24.72" transform="translate(-77.47 403.72) rotate(-87.87)"/><ellipse class="cls-4" cx="170.89" cy="242.53" rx="5.27" ry="24.72" transform="translate(-77.53 403.78) rotate(-87.87)"/><ellipse class="cls-4" cx="170.89" cy="242.59" rx="5.27" ry="24.72" transform="translate(-77.59 403.83) rotate(-87.87)"/><ellipse class="cls-4" cx="170.89" cy="242.65" rx="5.27" ry="24.72" transform="translate(-77.65 403.89) rotate(-87.87)"/><ellipse class="cls-4" cx="170.89" cy="242.71" rx="5.27" ry="24.72" transform="matrix(0.04, -1, 1, 0.04, -77.71, 403.95)"/><ellipse class="cls-4" cx="170.89" cy="242.76" rx="5.27" ry="24.72" transform="translate(-77.76 404) rotate(-87.87)"/><ellipse class="cls-4" cx="170.89" cy="242.82" rx="5.27" ry="24.72" transform="translate(-77.82 404.06) rotate(-87.87)"/><ellipse class="cls-4" cx="170.89" cy="242.88" rx="5.27" ry="24.72" transform="translate(-77.88 404.12) rotate(-87.87)"/><ellipse class="cls-4" cx="170.89" cy="242.94" rx="5.27" ry="24.72" transform="translate(-77.94 404.17) rotate(-87.87)"/><ellipse class="cls-4" cx="170.89" cy="243" rx="5.27" ry="24.72" transform="translate(-78 404.23) rotate(-87.87)"/><ellipse class="cls-4" cx="170.89" cy="243.06" rx="5.27" ry="24.72" transform="translate(-78.06 404.29) rotate(-87.87)"/><ellipse class="cls-4" cx="170.89" cy="243.12" rx="5.27" ry="24.72" transform="translate(-78.12 404.34) rotate(-87.87)"/><ellipse class="cls-4" cx="170.89" cy="243.18" rx="5.27" ry="24.72" transform="translate(-78.18 404.4) rotate(-87.87)"/><ellipse class="cls-4" cx="170.89" cy="243.24" rx="5.27" ry="24.72" transform="translate(-78.24 404.46) rotate(-87.87)"/><ellipse class="cls-4" cx="170.89" cy="243.3" rx="5.27" ry="24.72" transform="translate(-78.3 404.51) rotate(-87.87)"/><ellipse class="cls-4" cx="170.89" cy="243.36" rx="5.27" ry="24.72" transform="translate(-78.35 404.57) rotate(-87.87)"/><ellipse class="cls-4" cx="170.89" cy="243.41" rx="5.27" ry="24.72" transform="translate(-78.41 404.63) rotate(-87.87)"/><ellipse class="cls-4" cx="170.89" cy="243.47" rx="5.27" ry="24.72" transform="translate(-78.47 404.69) rotate(-87.87)"/><ellipse class="cls-4" cx="170.89" cy="243.53" rx="5.27" ry="24.72" transform="translate(-78.53 404.74) rotate(-87.87)"/><ellipse class="cls-4" cx="170.89" cy="243.59" rx="5.27" ry="24.72" transform="translate(-78.59 404.8) rotate(-87.87)"/><ellipse class="cls-4" cx="170.89" cy="243.65" rx="5.27" ry="24.72" transform="translate(-78.65 404.86) rotate(-87.87)"/><ellipse class="cls-4" cx="170.89" cy="243.71" rx="5.27" ry="24.72" transform="translate(-78.71 404.91) rotate(-87.87)"/><ellipse class="cls-4" cx="170.89" cy="243.77" rx="5.27" ry="24.72" transform="translate(-78.77 404.97) rotate(-87.87)"/><ellipse class="cls-4" cx="170.89" cy="243.83" rx="5.27" ry="24.72" transform="translate(-78.83 405.03) rotate(-87.87)"/><ellipse class="cls-4" cx="170.89" cy="243.89" rx="5.27" ry="24.72" transform="translate(-78.89 405.08) rotate(-87.87)"/><ellipse class="cls-4" cx="170.89" cy="243.95" rx="5.27" ry="24.72" transform="translate(-78.95 405.14) rotate(-87.87)"/><ellipse class="cls-4" cx="170.89" cy="244.01" rx="5.27" ry="24.72" transform="translate(-79 405.2) rotate(-87.87)"/><ellipse class="cls-4" cx="170.89" cy="244.06" rx="5.27" ry="24.72" transform="translate(-79.06 405.25) rotate(-87.87)"/><ellipse class="cls-4" cx="170.89" cy="244.12" rx="5.27" ry="24.72" transform="translate(-79.12 405.31) rotate(-87.87)"/><ellipse class="cls-4" cx="170.89" cy="244.18" rx="5.27" ry="24.72" transform="translate(-79.18 405.37) rotate(-87.87)"/><ellipse class="cls-4" cx="170.89" cy="244.24" rx="5.27" ry="24.72" transform="translate(-79.24 405.42) rotate(-87.87)"/><ellipse class="cls-4" cx="170.89" cy="244.3" rx="5.27" ry="24.72" transform="translate(-79.3 405.48) rotate(-87.87)"/><ellipse class="cls-4" cx="170.89" cy="244.36" rx="5.27" ry="24.72" transform="translate(-79.36 405.54) rotate(-87.87)"/><ellipse class="cls-4" cx="170.89" cy="244.42" rx="5.27" ry="24.72" transform="translate(-79.42 405.6) rotate(-87.87)"/><ellipse class="cls-4" cx="170.89" cy="244.48" rx="5.27" ry="24.72" transform="translate(-79.48 405.65) rotate(-87.87)"/><ellipse class="cls-4" cx="170.89" cy="244.54" rx="5.27" ry="24.72" transform="translate(-79.54 405.71) rotate(-87.87)"/><ellipse class="cls-4" cx="170.89" cy="244.6" rx="5.27" ry="24.72" transform="translate(-79.59 405.77) rotate(-87.87)"/><ellipse class="cls-4" cx="170.89" cy="244.65" rx="5.27" ry="24.72" transform="translate(-79.65 405.82) rotate(-87.87)"/><ellipse class="cls-4" cx="170.89" cy="244.71" rx="5.27" ry="24.72" transform="translate(-79.71 405.88) rotate(-87.87)"/><ellipse class="cls-4" cx="170.89" cy="244.77" rx="5.27" ry="24.72" transform="translate(-79.77 405.94) rotate(-87.87)"/><ellipse class="cls-4" cx="170.89" cy="244.83" rx="5.27" ry="24.72" transform="translate(-79.83 405.99) rotate(-87.87)"/><ellipse class="cls-4" cx="170.89" cy="244.89" rx="5.27" ry="24.72" transform="translate(-79.89 406.05) rotate(-87.87)"/><ellipse class="cls-4" cx="170.89" cy="244.95" rx="5.27" ry="24.72" transform="translate(-79.95 406.11) rotate(-87.87)"/><ellipse class="cls-4" cx="170.89" cy="245.01" rx="5.27" ry="24.72" transform="translate(-80.01 406.16) rotate(-87.87)"/><ellipse class="cls-4" cx="170.89" cy="245.07" rx="5.27" ry="24.72" transform="translate(-80.07 406.22) rotate(-87.87)"/><ellipse class="cls-4" cx="170.89" cy="245.13" rx="5.27" ry="24.72" transform="translate(-80.13 406.28) rotate(-87.87)"/><ellipse class="cls-4" cx="170.89" cy="245.19" rx="5.27" ry="24.72" transform="translate(-80.18 406.33) rotate(-87.87)"/><ellipse class="cls-2" cx="170.89" cy="239.22" rx="5.27" ry="24.72" transform="translate(-74.22 400.59) rotate(-87.87)"/><path class="cls-2" d="M179.86,176,176,156.49l-.28-1.9a23.08,23.08,0,0,1,.37-8.64c2.29-9.69,2.58-18.76-12.55-18.42-17.24.38-14.62,5.25-13.41,20.49,1.06,13.32,6.45,14.46,10.42,14.11L165.8,179Z" transform="translate(0.3 -0.5)"/><path class="cls-2" d="M150.09,146.48a7.23,7.23,0,0,1-1.84,3.23c-.66,1-.55,3.62,2.67,2.17Z" transform="translate(0.3 -0.5)"/><polygon class="cls-2" points="148.08 297.1 143.48 269.12 132.39 269.12 137.2 298.86 148.08 297.1"/><path class="cls-45" d="M134.38,286.94l12.38-2c-1.45-8.83-2.87-17.8-4-23.71-1.76-9.65-3.43-18.78-2.81-21.28a12.13,12.13,0,0,1,2.53-.61l.92-.15c6.81-1.11,13.15-2.19,31.17-3.88a6.37,6.37,0,0,0,5.76-6.89l-.53-6.17c-22.76,2-30.65,3.3-38.4,4.56l-.92.15c-3.8.62-8,1.76-10.76,5.62-3.93,5.56-2.57,13,.71,30.9C131.54,269.32,133,278.22,134.38,286.94Z" transform="translate(0.3 -0.5)"/><g class="cls-46"><path class="cls-47" d="M130.47,263.45c-3.28-17.92-4.63-25.34-.71-30.9,2.72-3.85,7-5,10.76-5.62l.92-.15c7.75-1.26,15.64-2.59,38.4-4.56l.47,5.47a7.08,7.08,0,0,1-6.39,7.66c-17.56,1.66-23.76,2.72-30.48,3.81l-.92.15a12.13,12.13,0,0,0-2.53.61c-.63,2.49,1,11.63,2.81,21.28Z" transform="translate(0.3 -0.5)"/><path class="cls-48" d="M130.47,263.45c-3.28-17.92-4.63-25.34-.71-30.9,2.72-3.85,7-5,10.76-5.62l.92-.15c7.75-1.26,15.64-2.59,38.4-4.56l.47,5.47a7.08,7.08,0,0,1-6.39,7.66c-17.56,1.66-23.76,2.72-30.48,3.81l-.92.15a12.13,12.13,0,0,0-2.53.61c-.63,2.49,1,11.63,2.81,21.28Z" transform="translate(0.3 -0.5)"/></g><path class="cls-9" d="M136.75,294.5l-2.56.46-5.68,1.35c-6.65,1.73-8.94,3.26-8.22,7.48.4,2.32,1.55,5.29,7.4,4.29L148,304.84a1.24,1.24,0,0,0,1-1.44l-1.58-9.24a7.81,7.81,0,0,1-4.17,2.51C139.83,297.35,137.64,296.1,136.75,294.5Z" transform="translate(0.3 -0.5)"/><polygon class="cls-2" points="130.03 311 127.9 299.05 116.81 299.05 119.15 312.76 130.03 311"/><path class="cls-45" d="M116.66,304.94l12.4-1.89c-1-6.26-.25-1.83-1-6.8-4.22-27.09-6.53-42.24-3.95-46.64.43-.73,2.36-2.62,11-4.49,7.83-1.68,16.49-2.59,30.92-4.25l2.7-.31-1.43-12.46-2.7.31c-33.21,3.8-45.64,5.14-51.33,14.84-3,5.09-3.28,10.64-2.81,17.42.5,7.1,2.8,22.21,5.18,37.5C116.41,303.14,115.71,298.7,116.66,304.94Z" transform="translate(0.3 -0.5)"/><path class="cls-49" d="M115.64,298.18c-2.38-15.29-4.68-30.4-5.18-37.5-.47-6.78-.18-12.33,2.81-17.42,5.69-9.7,18.12-11,51.33-14.84l2.7-.31,1.43,12.46-2.7.31c-14.43,1.65-23.1,2.56-30.92,4.25-8.66,1.86-10.59,3.76-11,4.49-2.58,4.4-.27,19.55,3.95,46.64Z" transform="translate(0.3 -0.5)"/><path class="cls-9" d="M118.36,309.07l-2.53.57-5.61,1.6c-6.57,2-8.79,3.66-7.88,7.84.5,2.3,1.79,5.21,7.59,4l20.14-4.15a1.24,1.24,0,0,0,.94-1.48l-2-9.16a7.81,7.81,0,0,1-4.06,2.69C121.57,311.78,119.32,310.63,118.36,309.07Z" transform="translate(0.3 -0.5)"/><path class="cls-10" d="M157.39,165l18.83-2.37c9.39-1.08,13.63,5.73,14.58,15.13l.81,35.6c1.42,13.95-1.44,22.32-18,27-3.46,1-14.79,1.23-14.79,1.23-3,0-5.14-4.46-4.38-7.31,1.69-6.43,3.95-16.93,2.79-23.88-1.77-10.62-6-28.51-6-28.51l2.11-13A4.61,4.61,0,0,1,157.39,165Z" transform="translate(0.3 -0.5)"/><path class="cls-50" d="M167.77,163.81l8.45-1.18c8.66-1,12.29,4.71,14.22,13a13.34,13.34,0,0,1,.33,3.39l.86,33.57a15.17,15.17,0,0,0,.05,1.6c1.07,13.47-1.83,21.61-18.06,26.16-3.46,1-14.79,1.23-14.79,1.23-3,0-5.14-4.46-4.38-7.31,1.69-6.43,3.95-16.93,2.79-23.88-1.36-8.13-4.14-20.52-5.37-25.89a13.83,13.83,0,0,1-.17-5.31h0A18.43,18.43,0,0,1,167.77,163.81Z" transform="translate(0.3 -0.5)"/><path class="cls-9" d="M167.63,184.33c-11.38-9.2-6.93-20.08-7.87-23l6.93-4.58.94-18.9-10.1,2.7s3.78,2.09,2,8.6c.12-2.29-3.74-5.31-7.48-7.48s-9.05-6.75-8.69-11.22c.75-9.39,13.32-12.25,19.2-10.3,10.92,3.61,22,8.72,20.25,27.91s16.91,14.09,14.09,38.39c-.8,6.93-6.87,15.41-15.67,14.62C182.6,189.43,174.09,189.55,167.63,184.33Z" transform="translate(0.3 -0.5)"/><path class="cls-9" d="M159.71,132.55c.53,0,10.21,4.05,10.21,4.05s-1.59,19.55-1.59,20.25-7.75,5.46-7.75,5.46.7,29.41-2.47,29.94-12.68-.35-10.92-15,9.69-16.55,15.32-23.6,4.56-14,.63-13.63c-2.72.28-2.5,3.24-2.45,3.94a11,11,0,0,1-1.09,4.76s-1.56-7-5.61-8.57" transform="translate(0.3 -0.5)"/><path class="cls-51" d="M149,264.2h12.68l2.2-88.12c.12-4.8-2.75-8.78-6.33-8.78h0c-3.42,0-6.22,3.62-6.33,8.19Z" transform="translate(0.3 -0.5)"/><rect class="cls-43" x="145.27" y="259.93" width="20.3" height="14.61" rx="1.49" ry="1.49" transform="translate(311.14 533.97) rotate(-180)"/><rect class="cls-52" x="145.27" y="259.93" width="20.3" height="14.61" rx="1.21" ry="1.21" transform="translate(311.14 533.97) rotate(-180)"/><path class="cls-43" d="M145.27,261.53a1.46,1.46,0,0,1,1.25-1.6h17.8a1.46,1.46,0,0,1,1.25,1.6l-9,7.72a.94.94,0,0,1-1.23,0Z" transform="translate(0.3 -0.5)"/><polyline class="cls-53" points="157.37 180.13 159.84 222.04 132.18 234.72"/><polygon class="cls-54" points="136.98 237.76 153.79 230.2 147.71 222.72 133.33 229 136.98 237.76"/><path class="cls-10" d="M153.11,220.11a1.49,1.49,0,0,0,.94-1.45c-.32-7.22-3.7-40.61-3.21-45.31a6.37,6.37,0,0,1,6.82-5.75c3.5.32,5.34,3.44,5.66,6.93.37,4.05,1.81,38.91,2.13,49.21a3.78,3.78,0,0,1-2.06,3.49c-11.34,5.79-22.88,10.47-22.88,10.47l-4.58-10.74Z" transform="translate(0.3 -0.5)"/><path class="cls-55" d="M223.2,75.11l0-1.9a1.16,1.16,0,0,1,.66-1,3.68,3.68,0,0,1,3.52-2.43l.06-3.2a.62.62,0,0,1,.63-.61l4.14.08a.62.62,0,0,1,.61.63l-.06,3.2a3.68,3.68,0,0,1,3.43,2.56,1.16,1.16,0,0,1,.62,1l0,1.9a1.16,1.16,0,0,1-.45.9l-.17,9a1.16,1.16,0,0,1,.42.91l0,1.9a1.16,1.16,0,0,1-.45.9v.42a1.06,1.06,0,0,1-1.08,1l-10.62-.2a1.06,1.06,0,0,1-1-1.08v-.42a1.16,1.16,0,0,1-.42-.91l0-1.9a1.16,1.16,0,0,1,.45-.9l.17-9A1.16,1.16,0,0,1,223.2,75.11Z" transform="translate(0.3 -0.5)"/><g class="cls-56"><path class="cls-57" d="M223.2,75.11l0-1.9a1.16,1.16,0,0,1,.66-1,3.68,3.68,0,0,1,3.52-2.43l.06-3.2a.62.62,0,0,1,.63-.61l4.14.08a.62.62,0,0,1,.61.63l-.06,3.2a3.68,3.68,0,0,1,3.43,2.56,1.16,1.16,0,0,1,.62,1l0,1.9a1.16,1.16,0,0,1-.45.9l-.17,9a1.16,1.16,0,0,1,.42.91l0,1.9a1.16,1.16,0,0,1-.45.9v.42a1.06,1.06,0,0,1-1.08,1l-10.62-.2a1.06,1.06,0,0,1-1-1.08v-.42a1.16,1.16,0,0,1-.42-.91l0-1.9a1.16,1.16,0,0,1,.45-.9l.17-9A1.16,1.16,0,0,1,223.2,75.11Z" transform="translate(0.3 -0.5)"/></g><path class="cls-42" d="M228.43,64.07H232a0,0,0,0,1,0,0v1.42a.53.53,0,0,1-.53.53H229a.53.53,0,0,1-.53-.53V64.07A0,0,0,0,1,228.43,64.07Z" transform="translate(459.44 133.87) rotate(-178.93)"/><path class="cls-55" d="M189.11,73.55l.06-3.2a.62.62,0,0,1,.63-.61h0a.62.62,0,0,0,.63-.61l0-1.55,2.9.05,0,1.55a.62.62,0,0,0,.61.63h0a.62.62,0,0,1,.61.63l-.06,3.2h0a3.68,3.68,0,0,1,3.61,3.75l-.29,15.78a1.06,1.06,0,0,1-1.08,1L186.11,94a1.06,1.06,0,0,1-1-1.08l.29-15.78a3.68,3.68,0,0,1,3.75-3.61Z" transform="translate(0.3 -0.5)"/><g class="cls-56"><path class="cls-58" d="M189.11,73.55l.06-3.2a.62.62,0,0,1,.63-.61h0a.62.62,0,0,0,.63-.61l0-1.55,2.9.05,0,1.55a.62.62,0,0,0,.61.63h0a.62.62,0,0,1,.61.63l-.06,3.2h0a3.68,3.68,0,0,1,3.61,3.75l-.29,15.78a1.06,1.06,0,0,1-1.08,1L186.11,94a1.06,1.06,0,0,1-1-1.08l.29-15.78a3.68,3.68,0,0,1,3.75-3.61Z" transform="translate(0.3 -0.5)"/></g><rect class="cls-42" x="190.15" y="66.8" width="3.53" height="1.95" rx="0.98" ry="0.98" transform="translate(382.83 138.61) rotate(-178.93)"/><path class="cls-55" d="M170.15,78.07l0-1.9a1.16,1.16,0,0,1,.66-1,3.68,3.68,0,0,1,3.52-2.43l.06-3.2a.62.62,0,0,1,.63-.61l4.14.08a.62.62,0,0,1,.61.63l-.06,3.2a3.68,3.68,0,0,1,3.43,2.56,1.16,1.16,0,0,1,.62,1l0,1.9a1.16,1.16,0,0,1-.45.9l-.17,9a1.16,1.16,0,0,1,.42.91l0,1.9a1.16,1.16,0,0,1-.45.9v.42a1.06,1.06,0,0,1-1.08,1l-10.62-.2a1.06,1.06,0,0,1-1-1.08v-.42a1.16,1.16,0,0,1-.42-.91l0-1.9a1.16,1.16,0,0,1,.45-.9l.17-9A1.16,1.16,0,0,1,170.15,78.07Z" transform="translate(0.3 -0.5)"/><g class="cls-56"><path class="cls-59" d="M170.15,78.07l0-1.9a1.16,1.16,0,0,1,.66-1,3.68,3.68,0,0,1,3.52-2.43l.06-3.2a.62.62,0,0,1,.63-.61l4.14.08a.62.62,0,0,1,.61.63l-.06,3.2a3.68,3.68,0,0,1,3.43,2.56,1.16,1.16,0,0,1,.62,1l0,1.9a1.16,1.16,0,0,1-.45.9l-.17,9a1.16,1.16,0,0,1,.42.91l0,1.9a1.16,1.16,0,0,1-.45.9v.42a1.06,1.06,0,0,1-1.08,1l-10.62-.2a1.06,1.06,0,0,1-1-1.08v-.42a1.16,1.16,0,0,1-.42-.91l0-1.9a1.16,1.16,0,0,1,.45-.9l.17-9A1.16,1.16,0,0,1,170.15,78.07Z" transform="translate(0.3 -0.5)"/></g><path class="cls-42" d="M175.38,67h3.53a0,0,0,0,1,0,0v1.42a.53.53,0,0,1-.53.53h-2.47a.53.53,0,0,1-.53-.53V67A0,0,0,0,1,175.38,67Z" transform="matrix(-1, -0.02, 0.02, -1, 353.3, 138.79)"/><path class="cls-16" d="M172.31,93.31l.29-15.77a2.16,2.16,0,0,0-.76-1.78l-1.54-1.13a4.51,4.51,0,0,1-1.62-3.42l-.39-8-2.76-.05-.67,8a4.51,4.51,0,0,1-1.75,3.37l-1.57,1.07a2.16,2.16,0,0,0-.83,1.75L160.42,93c0,1,.57,1.83,1.31,1.84l9.19.22C171.67,95.12,172.29,94.31,172.31,93.31Z" transform="translate(0.3 -0.5)"/><g class="cls-56"><path class="cls-60" d="M172.31,93.31l.29-15.77a2.16,2.16,0,0,0-.76-1.78l-1.54-1.13a4.51,4.51,0,0,1-1.62-3.42l-.39-8-2.76-.05-.67,8a4.51,4.51,0,0,1-1.75,3.37l-1.57,1.07a2.16,2.16,0,0,0-.83,1.75L160.42,93c0,1,.57,1.83,1.31,1.84l9.19.22C171.67,95.12,172.29,94.31,172.31,93.31Z" transform="translate(0.3 -0.5)"/></g><path class="cls-42" d="M165.22,60.35h3.46a0,0,0,0,1,0,0V62.1a1.73,1.73,0,0,1-1.73,1.73h0a1.73,1.73,0,0,1-1.73-1.73V60.35A0,0,0,0,1,165.22,60.35Z" transform="translate(333.01 126.78) rotate(-178.93)"/><path class="cls-16" d="M221.27,93.78,221.57,78a2.16,2.16,0,0,0-.76-1.78l-1.54-1.13a4.51,4.51,0,0,1-1.62-3.42l-.39-8-2.76-.05-.67,8A4.51,4.51,0,0,1,212.07,75L210.5,76a2.16,2.16,0,0,0-.83,1.75l-.29,15.73c0,1,.57,1.83,1.31,1.84l9.19.22C220.63,95.59,221.25,94.78,221.27,93.78Z" transform="translate(0.3 -0.5)"/><g class="cls-56"><path class="cls-61" d="M221.27,93.78,221.57,78a2.16,2.16,0,0,0-.76-1.78l-1.54-1.13a4.51,4.51,0,0,1-1.62-3.42l-.39-8-2.76-.05-.67,8A4.51,4.51,0,0,1,212.07,75L210.5,76a2.16,2.16,0,0,0-.83,1.75l-.29,15.73c0,1,.57,1.83,1.31,1.84l9.19.22C220.63,95.59,221.25,94.78,221.27,93.78Z" transform="translate(0.3 -0.5)"/></g><path class="cls-42" d="M214.18,60.82h3.46a0,0,0,0,1,0,0v1.75a1.73,1.73,0,0,1-1.73,1.73h0a1.73,1.73,0,0,1-1.73-1.73V60.82A0,0,0,0,1,214.18,60.82Z" transform="translate(430.91 128.63) rotate(-178.93)"/><path class="cls-55" d="M147.25,91.4l.26-13.76a1.89,1.89,0,0,0-.66-1.55l-1.34-1a3.93,3.93,0,0,1-1.41-3l-.34-7-2.41,0-.59,7A3.94,3.94,0,0,1,139.22,75l-1.37.93a1.89,1.89,0,0,0-.72,1.53l-.26,13.72c0,.87.5,1.59,1.15,1.61l8,.19C146.69,93,147.23,92.28,147.25,91.4Z" transform="translate(0.3 -0.5)"/><g class="cls-56"><path class="cls-62" d="M147.25,91.4l.26-13.76a1.89,1.89,0,0,0-.66-1.55l-1.34-1a3.93,3.93,0,0,1-1.41-3l-.34-7-2.41,0-.59,7A3.94,3.94,0,0,1,139.22,75l-1.37.93a1.89,1.89,0,0,0-.72,1.53l-.26,13.72c0,.87.5,1.59,1.15,1.61l8,.19C146.69,93,147.23,92.28,147.25,91.4Z" transform="translate(0.3 -0.5)"/></g><path class="cls-42" d="M141.06,62.65h3a0,0,0,0,1,0,0v1.52a1.51,1.51,0,0,1-1.51,1.51h0a1.51,1.51,0,0,1-1.51-1.51V62.65a0,0,0,0,1,0,0Z" transform="translate(284.21 130.48) rotate(-178.93)"/><path class="cls-16" d="M146.68,77.43l.06-3.2a.62.62,0,0,1,.63-.61h0A.62.62,0,0,0,148,73l0-1.55,2.9.05,0,1.55a.62.62,0,0,0,.61.63h0a.62.62,0,0,1,.61.63l-.06,3.2h0a3.68,3.68,0,0,1,3.61,3.75l-.29,15.78a1.06,1.06,0,0,1-1.08,1l-10.62-.2a1.06,1.06,0,0,1-1-1.08L142.93,81a3.68,3.68,0,0,1,3.75-3.61Z" transform="translate(0.3 -0.5)"/><g class="cls-56"><path class="cls-63" d="M146.68,77.43l.06-3.2a.62.62,0,0,1,.63-.61h0A.62.62,0,0,0,148,73l0-1.55,2.9.05,0,1.55a.62.62,0,0,0,.61.63h0a.62.62,0,0,1,.61.63l-.06,3.2h0a3.68,3.68,0,0,1,3.61,3.75l-.29,15.78a1.06,1.06,0,0,1-1.08,1l-10.62-.2a1.06,1.06,0,0,1-1-1.08L142.93,81a3.68,3.68,0,0,1,3.75-3.61Z" transform="translate(0.3 -0.5)"/></g><rect class="cls-42" x="147.71" y="70.68" width="3.53" height="1.95" rx="0.98" ry="0.98" transform="matrix(-1, -0.02, 0.02, -1, 297.89, 145.58)"/><path class="cls-16" d="M236.14,75.43l.06-3.2a.62.62,0,0,1,.63-.61h0a.62.62,0,0,0,.63-.61l0-1.55,2.9.05,0,1.55a.62.62,0,0,0,.61.63h0a.62.62,0,0,1,.61.63l-.06,3.2h0a3.68,3.68,0,0,1,3.61,3.75l-.29,15.78a1.06,1.06,0,0,1-1.08,1l-10.62-.2a1.06,1.06,0,0,1-1-1.08L232.4,79a3.68,3.68,0,0,1,3.75-3.61Z" transform="translate(0.3 -0.5)"/><g class="cls-56"><path class="cls-64" d="M236.14,75.43l.06-3.2a.62.62,0,0,1,.63-.61h0a.62.62,0,0,0,.63-.61l0-1.55,2.9.05,0,1.55a.62.62,0,0,0,.61.63h0a.62.62,0,0,1,.61.63l-.06,3.2h0a3.68,3.68,0,0,1,3.61,3.75l-.29,15.78a1.06,1.06,0,0,1-1.08,1l-10.62-.2a1.06,1.06,0,0,1-1-1.08L232.4,79a3.68,3.68,0,0,1,3.75-3.61Z" transform="translate(0.3 -0.5)"/></g><rect class="cls-42" x="237.18" y="68.68" width="3.53" height="1.95" rx="0.98" ry="0.98" transform="translate(476.85 143.25) rotate(-178.93)"/><path class="cls-55" d="M117.36,72.3l.06-3.2a.62.62,0,0,1,.63-.61h0a.62.62,0,0,0,.63-.61l0-1.55,2.9.05,0,1.55a.62.62,0,0,0,.61.63h0a.62.62,0,0,1,.61.63l-.06,3.2h0a3.68,3.68,0,0,1,3.61,3.75l-.29,15.78A1.06,1.06,0,0,1,125,93l-10.62-.2a1.06,1.06,0,0,1-1-1.08l.29-15.78a3.68,3.68,0,0,1,3.75-3.61Z" transform="translate(0.3 -0.5)"/><g class="cls-56"><path class="cls-65" d="M117.36,72.3l.06-3.2a.62.62,0,0,1,.63-.61h0a.62.62,0,0,0,.63-.61l0-1.55,2.9.05,0,1.55a.62.62,0,0,0,.61.63h0a.62.62,0,0,1,.61.63l-.06,3.2h0a3.68,3.68,0,0,1,3.61,3.75l-.29,15.78A1.06,1.06,0,0,1,125,93l-10.62-.2a1.06,1.06,0,0,1-1-1.08l.29-15.78a3.68,3.68,0,0,1,3.75-3.61Z" transform="translate(0.3 -0.5)"/></g><rect class="cls-42" x="118.39" y="65.55" width="3.53" height="1.95" rx="0.98" ry="0.98" transform="translate(239.35 134.78) rotate(-178.93)"/><path class="cls-55" d="M98.16,80.16l0-1.9a1.16,1.16,0,0,1,.66-1,3.68,3.68,0,0,1,3.52-2.43l.06-3.2a.62.62,0,0,1,.63-.61l4.14.08a.62.62,0,0,1,.61.63l-.06,3.2a3.68,3.68,0,0,1,3.43,2.56,1.16,1.16,0,0,1,.62,1l0,1.9a1.16,1.16,0,0,1-.45.9l-.17,9a1.16,1.16,0,0,1,.42.91l0,1.9a1.16,1.16,0,0,1-.45.9v.42a1.06,1.06,0,0,1-1.08,1l-10.62-.2a1.06,1.06,0,0,1-1-1.08v-.42a1.16,1.16,0,0,1-.42-.91L98,91a1.16,1.16,0,0,1,.45-.9l.17-9A1.16,1.16,0,0,1,98.16,80.16Z" transform="translate(0.3 -0.5)"/><g class="cls-56"><path class="cls-66" d="M98.16,80.16l0-1.9a1.16,1.16,0,0,1,.66-1,3.68,3.68,0,0,1,3.52-2.43l.06-3.2a.62.62,0,0,1,.63-.61l4.14.08a.62.62,0,0,1,.61.63l-.06,3.2a3.68,3.68,0,0,1,3.43,2.56,1.16,1.16,0,0,1,.62,1l0,1.9a1.16,1.16,0,0,1-.45.9l-.17,9a1.16,1.16,0,0,1,.42.91l0,1.9a1.16,1.16,0,0,1-.45.9v.42a1.06,1.06,0,0,1-1.08,1l-10.62-.2a1.06,1.06,0,0,1-1-1.08v-.42a1.16,1.16,0,0,1-.42-.91L98,91a1.16,1.16,0,0,1,.45-.9l.17-9A1.16,1.16,0,0,1,98.16,80.16Z" transform="translate(0.3 -0.5)"/></g><path class="cls-42" d="M103.39,69.12h3.53a0,0,0,0,1,0,0v1.42a.53.53,0,0,1-.53.53h-2.47a.53.53,0,0,1-.53-.53V69.12A0,0,0,0,1,103.39,69.12Z" transform="translate(209.28 141.64) rotate(-178.93)"/><path class="cls-16" d="M110.29,78.25l.06-3.2a.62.62,0,0,1,.63-.61h0a.62.62,0,0,0,.63-.61l0-1.55,2.9.05,0,1.55a.62.62,0,0,0,.61.63h0a.62.62,0,0,1,.61.63l-.06,3.2h0a3.68,3.68,0,0,1,3.61,3.75L119,97.88a1.06,1.06,0,0,1-1.08,1l-10.62-.2a1.06,1.06,0,0,1-1-1.08l.29-15.78a3.68,3.68,0,0,1,3.75-3.61Z" transform="translate(0.3 -0.5)"/><g class="cls-67"><path class="cls-68" d="M110.29,78.25l.06-3.2a.62.62,0,0,1,.63-.61h0a.62.62,0,0,0,.63-.61l0-1.55,2.9.05,0,1.55a.62.62,0,0,0,.61.63h0a.62.62,0,0,1,.61.63l-.06,3.2h0a3.68,3.68,0,0,1,3.61,3.75L119,97.88a1.06,1.06,0,0,1-1.08,1l-10.62-.2a1.06,1.06,0,0,1-1-1.08l.29-15.78a3.68,3.68,0,0,1,3.75-3.61Z" transform="translate(0.3 -0.5)"/></g><rect class="cls-42" x="111.32" y="71.49" width="3.53" height="1.95" rx="0.98" ry="0.98" transform="translate(225.11 146.54) rotate(-178.93)"/><path class="cls-55" d="M28.73,92.95,29,79.19a1.89,1.89,0,0,0-.66-1.55l-1.34-1a3.93,3.93,0,0,1-1.41-3l-.34-7-2.41,0-.59,7a3.94,3.94,0,0,1-1.52,2.94l-1.37.93A1.89,1.89,0,0,0,18.61,79l-.26,13.72c0,.87.5,1.59,1.15,1.61l8,.19C28.17,94.53,28.71,93.83,28.73,92.95Z" transform="translate(0.3 -0.5)"/><g class="cls-56"><path class="cls-69" d="M28.73,92.95,29,79.19a1.89,1.89,0,0,0-.66-1.55l-1.34-1a3.93,3.93,0,0,1-1.41-3l-.34-7-2.41,0-.59,7a3.94,3.94,0,0,1-1.52,2.94l-1.37.93A1.89,1.89,0,0,0,18.61,79l-.26,13.72c0,.87.5,1.59,1.15,1.61l8,.19C28.17,94.53,28.71,93.83,28.73,92.95Z" transform="translate(0.3 -0.5)"/></g><path class="cls-42" d="M22.54,64.2h3a0,0,0,0,1,0,0v1.52A1.51,1.51,0,0,1,24,67.23h0a1.51,1.51,0,0,1-1.51-1.51V64.2A0,0,0,0,1,22.54,64.2Z" transform="translate(47.17 131.37) rotate(-178.93)"/><path class="cls-16" d="M31.1,80.29l.06-3.2a.62.62,0,0,1,.63-.61h0a.62.62,0,0,0,.63-.61l0-1.55,2.9.05,0,1.55a.62.62,0,0,0,.61.63h0a.62.62,0,0,1,.61.63l-.06,3.2h0a3.68,3.68,0,0,1,3.61,3.75L39.8,99.92a1.06,1.06,0,0,1-1.08,1l-10.62-.2a1.06,1.06,0,0,1-1-1.08l.29-15.78a3.68,3.68,0,0,1,3.75-3.61Z" transform="translate(0.3 -0.5)"/><g class="cls-56"><path class="cls-70" d="M31.1,80.29l.06-3.2a.62.62,0,0,1,.63-.61h0a.62.62,0,0,0,.63-.61l0-1.55,2.9.05,0,1.55a.62.62,0,0,0,.61.63h0a.62.62,0,0,1,.61.63l-.06,3.2h0a3.68,3.68,0,0,1,3.61,3.75L39.8,99.92a1.06,1.06,0,0,1-1.08,1l-10.62-.2a1.06,1.06,0,0,1-1-1.08l.29-15.78a3.68,3.68,0,0,1,3.75-3.61Z" transform="translate(0.3 -0.5)"/></g><rect class="cls-42" x="32.14" y="73.54" width="3.53" height="1.95" rx="0.98" ry="0.98" transform="translate(66.71 149.16) rotate(-178.93)"/><line class="cls-71" x1="357.02" y1="90.99" x2="357.02"/><path class="cls-45" d="M360.28,121.27h0a2.28,2.28,0,0,1,0,.43c0,1.57-1.61,2.85-3.6,2.85s-3.6-1.27-3.6-2.85a2.28,2.28,0,0,1,0-.43h0l0-.08,0-.16,2.26-8.32H358l2.27,8.33,0,.14Z" transform="translate(0.3 -0.5)"/><g class="cls-72"><path class="cls-73" d="M360.28,121.27h0a2.28,2.28,0,0,1,0,.43c0,1.57-1.61,2.85-3.6,2.85s-3.6-1.27-3.6-2.85a2.28,2.28,0,0,1,0-.43h0l0-.08,0-.16,2.26-8.32H358l2.27,8.33,0,.14Z" transform="translate(0.3 -0.5)"/></g><path class="cls-10" d="M335.6,91.49h42.24A2.16,2.16,0,0,1,380,93.65v3.24a23.28,23.28,0,0,1-23.28,23.28h0a23.28,23.28,0,0,1-23.28-23.28V93.65a2.16,2.16,0,0,1,2.16-2.16Z" transform="translate(713.75 211.16) rotate(-180)"/><path class="cls-74" d="M335.6,91.49h42.24A2.16,2.16,0,0,1,380,93.65v3.24a23.28,23.28,0,0,1-23.28,23.28h0a23.28,23.28,0,0,1-23.28-23.28V93.65a2.16,2.16,0,0,1,2.16-2.16Z" transform="translate(713.75 211.16) rotate(-180)"/><ellipse class="cls-4" cx="309.36" cy="309.48" rx="3.33" ry="15.62" transform="matrix(0.04, -1, 1, 0.04, -11.11, 606.62)"/><path class="cls-3" d="M309.46,227.3h0a3.17,3.17,0,0,1,3.17,3.17v80a0,0,0,0,1,0,0h-6.34a0,0,0,0,1,0,0v-80a3.17,3.17,0,0,1,3.17-3.17Z" transform="translate(619.23 537.22) rotate(180)"/><ellipse class="cls-4" cx="309.67" cy="223.37" rx="5.27" ry="24.72" transform="translate(75.23 524.01) rotate(-87.87)"/><ellipse class="cls-4" cx="309.67" cy="223.43" rx="5.27" ry="24.72" transform="translate(75.17 524.07) rotate(-87.87)"/><ellipse class="cls-4" cx="309.67" cy="223.49" rx="5.27" ry="24.72" transform="translate(75.11 524.13) rotate(-87.87)"/><ellipse class="cls-4" cx="309.67" cy="223.55" rx="5.27" ry="24.72" transform="translate(75.06 524.18) rotate(-87.87)"/><ellipse class="cls-4" cx="309.67" cy="223.61" rx="5.27" ry="24.72" transform="translate(75 524.24) rotate(-87.87)"/><ellipse class="cls-4" cx="309.67" cy="223.67" rx="5.27" ry="24.72" transform="translate(74.94 524.3) rotate(-87.87)"/><ellipse class="cls-4" cx="309.67" cy="223.72" rx="5.27" ry="24.72" transform="translate(74.88 524.35) rotate(-87.87)"/><ellipse class="cls-4" cx="309.67" cy="223.78" rx="5.27" ry="24.72" transform="translate(74.82 524.41) rotate(-87.87)"/><ellipse class="cls-4" cx="309.67" cy="223.84" rx="5.27" ry="24.72" transform="translate(74.76 524.47) rotate(-87.87)"/><ellipse class="cls-4" cx="309.67" cy="223.9" rx="5.27" ry="24.72" transform="translate(74.7 524.52) rotate(-87.87)"/><ellipse class="cls-4" cx="309.67" cy="223.96" rx="5.27" ry="24.72" transform="translate(74.64 524.58) rotate(-87.87)"/><ellipse class="cls-4" cx="309.67" cy="224.02" rx="5.27" ry="24.72" transform="translate(74.58 524.64) rotate(-87.87)"/><ellipse class="cls-4" cx="309.67" cy="224.08" rx="5.27" ry="24.72" transform="translate(74.52 524.7) rotate(-87.87)"/><ellipse class="cls-4" cx="309.67" cy="224.14" rx="5.27" ry="24.72" transform="translate(74.47 524.75) rotate(-87.87)"/><ellipse class="cls-4" cx="309.67" cy="224.2" rx="5.27" ry="24.72" transform="translate(74.41 524.81) rotate(-87.87)"/><ellipse class="cls-4" cx="309.67" cy="224.26" rx="5.27" ry="24.72" transform="translate(74.35 524.87) rotate(-87.87)"/><ellipse class="cls-4" cx="309.67" cy="224.32" rx="5.27" ry="24.72" transform="translate(74.29 524.92) rotate(-87.87)"/><ellipse class="cls-4" cx="309.67" cy="224.37" rx="5.27" ry="24.72" transform="translate(74.23 524.98) rotate(-87.87)"/><ellipse class="cls-4" cx="309.67" cy="224.43" rx="5.27" ry="24.72" transform="translate(74.17 525.04) rotate(-87.87)"/><ellipse class="cls-4" cx="309.67" cy="224.49" rx="5.27" ry="24.72" transform="translate(74.11 525.09) rotate(-87.87)"/><ellipse class="cls-4" cx="309.67" cy="224.55" rx="5.27" ry="24.72" transform="translate(74.05 525.15) rotate(-87.87)"/><ellipse class="cls-4" cx="309.67" cy="224.61" rx="5.27" ry="24.72" transform="translate(73.99 525.21) rotate(-87.87)"/><ellipse class="cls-4" cx="309.67" cy="224.67" rx="5.27" ry="24.72" transform="translate(73.93 525.26) rotate(-87.87)"/><ellipse class="cls-4" cx="309.67" cy="224.73" rx="5.27" ry="24.72" transform="translate(73.88 525.32) rotate(-87.87)"/><ellipse class="cls-4" cx="309.67" cy="224.79" rx="5.27" ry="24.72" transform="translate(73.82 525.38) rotate(-87.87)"/><ellipse class="cls-4" cx="309.67" cy="224.85" rx="5.27" ry="24.72" transform="translate(73.76 525.43) rotate(-87.87)"/><ellipse class="cls-4" cx="309.67" cy="224.91" rx="5.27" ry="24.72" transform="translate(73.7 525.49) rotate(-87.87)"/><ellipse class="cls-4" cx="309.67" cy="224.97" rx="5.27" ry="24.72" transform="translate(73.64 525.55) rotate(-87.87)"/><ellipse class="cls-4" cx="309.67" cy="225.02" rx="5.27" ry="24.72" transform="translate(73.58 525.61) rotate(-87.87)"/><ellipse class="cls-4" cx="309.67" cy="225.08" rx="5.27" ry="24.72" transform="translate(73.52 525.66) rotate(-87.87)"/><ellipse class="cls-4" cx="309.67" cy="225.14" rx="5.27" ry="24.72" transform="translate(73.46 525.72) rotate(-87.87)"/><ellipse class="cls-4" cx="309.67" cy="225.2" rx="5.27" ry="24.72" transform="matrix(0.04, -1, 1, 0.04, 73.4, 525.78)"/><ellipse class="cls-4" cx="309.67" cy="225.26" rx="5.27" ry="24.72" transform="translate(73.34 525.83) rotate(-87.87)"/><ellipse class="cls-4" cx="309.67" cy="225.32" rx="5.27" ry="24.72" transform="translate(73.29 525.89) rotate(-87.87)"/><ellipse class="cls-4" cx="309.67" cy="225.38" rx="5.27" ry="24.72" transform="translate(73.23 525.95) rotate(-87.87)"/><ellipse class="cls-4" cx="309.67" cy="225.44" rx="5.27" ry="24.72" transform="translate(73.17 526) rotate(-87.87)"/><ellipse class="cls-4" cx="309.67" cy="225.5" rx="5.27" ry="24.72" transform="translate(73.11 526.06) rotate(-87.87)"/><ellipse class="cls-4" cx="309.67" cy="225.56" rx="5.27" ry="24.72" transform="translate(73.05 526.12) rotate(-87.87)"/><ellipse class="cls-4" cx="309.67" cy="225.61" rx="5.27" ry="24.72" transform="translate(72.99 526.17) rotate(-87.87)"/><ellipse class="cls-4" cx="309.67" cy="225.67" rx="5.27" ry="24.72" transform="translate(72.93 526.23) rotate(-87.87)"/><ellipse class="cls-4" cx="309.67" cy="225.73" rx="5.27" ry="24.72" transform="translate(72.87 526.29) rotate(-87.87)"/><ellipse class="cls-4" cx="309.67" cy="225.79" rx="5.27" ry="24.72" transform="translate(72.81 526.34) rotate(-87.87)"/><ellipse class="cls-4" cx="309.67" cy="225.85" rx="5.27" ry="24.72" transform="translate(72.75 526.4) rotate(-87.87)"/><ellipse class="cls-4" cx="309.67" cy="225.91" rx="5.27" ry="24.72" transform="translate(72.69 526.46) rotate(-87.87)"/><ellipse class="cls-4" cx="309.67" cy="225.97" rx="5.27" ry="24.72" transform="translate(72.64 526.51) rotate(-87.87)"/><ellipse class="cls-4" cx="309.67" cy="226.03" rx="5.27" ry="24.72" transform="matrix(0.04, -1, 1, 0.04, 72.58, 526.57)"/><ellipse class="cls-4" cx="309.67" cy="226.09" rx="5.27" ry="24.72" transform="translate(72.52 526.63) rotate(-87.87)"/><ellipse class="cls-4" cx="309.67" cy="226.15" rx="5.27" ry="24.72" transform="translate(72.46 526.69) rotate(-87.87)"/><ellipse class="cls-4" cx="309.67" cy="226.21" rx="5.27" ry="24.72" transform="translate(72.4 526.74) rotate(-87.87)"/><ellipse class="cls-4" cx="309.67" cy="226.26" rx="5.27" ry="24.72" transform="matrix(0.04, -1, 1, 0.04, 72.34, 526.8)"/><ellipse class="cls-4" cx="309.67" cy="226.32" rx="5.27" ry="24.72" transform="translate(72.28 526.86) rotate(-87.87)"/><ellipse class="cls-4" cx="309.67" cy="226.38" rx="5.27" ry="24.72" transform="matrix(0.04, -1, 1, 0.04, 72.22, 526.91)"/><ellipse class="cls-4" cx="309.67" cy="226.44" rx="5.27" ry="24.72" transform="translate(72.16 526.97) rotate(-87.87)"/><ellipse class="cls-4" cx="309.67" cy="226.5" rx="5.27" ry="24.72" transform="translate(72.1 527.03) rotate(-87.87)"/><ellipse class="cls-4" cx="309.67" cy="226.56" rx="5.27" ry="24.72" transform="translate(72.05 527.08) rotate(-87.87)"/><ellipse class="cls-4" cx="309.67" cy="226.62" rx="5.27" ry="24.72" transform="translate(71.99 527.14) rotate(-87.87)"/><ellipse class="cls-4" cx="309.67" cy="226.68" rx="5.27" ry="24.72" transform="matrix(0.04, -1, 1, 0.04, 71.93, 527.2)"/><ellipse class="cls-4" cx="309.67" cy="226.74" rx="5.27" ry="24.72" transform="translate(71.87 527.25) rotate(-87.87)"/><ellipse class="cls-4" cx="309.67" cy="226.8" rx="5.27" ry="24.72" transform="translate(71.81 527.31) rotate(-87.87)"/><ellipse class="cls-4" cx="309.67" cy="226.86" rx="5.27" ry="24.72" transform="translate(71.75 527.37) rotate(-87.87)"/><ellipse class="cls-4" cx="309.67" cy="226.91" rx="5.27" ry="24.72" transform="translate(71.69 527.42) rotate(-87.87)"/><ellipse class="cls-4" cx="309.67" cy="226.97" rx="5.27" ry="24.72" transform="translate(71.63 527.48) rotate(-87.87)"/><ellipse class="cls-4" cx="309.67" cy="227.03" rx="5.27" ry="24.72" transform="translate(71.57 527.54) rotate(-87.87)"/><ellipse class="cls-4" cx="309.67" cy="227.09" rx="5.27" ry="24.72" transform="translate(71.51 527.6) rotate(-87.87)"/><ellipse class="cls-4" cx="309.67" cy="227.15" rx="5.27" ry="24.72" transform="translate(71.46 527.65) rotate(-87.87)"/><ellipse class="cls-4" cx="309.67" cy="227.21" rx="5.27" ry="24.72" transform="translate(71.4 527.71) rotate(-87.87)"/><ellipse class="cls-4" cx="309.67" cy="227.27" rx="5.27" ry="24.72" transform="translate(71.34 527.77) rotate(-87.87)"/><ellipse class="cls-4" cx="309.67" cy="227.33" rx="5.27" ry="24.72" transform="translate(71.28 527.82) rotate(-87.87)"/><ellipse class="cls-4" cx="309.67" cy="227.39" rx="5.27" ry="24.72" transform="translate(71.22 527.88) rotate(-87.87)"/><ellipse class="cls-4" cx="309.67" cy="227.45" rx="5.27" ry="24.72" transform="matrix(0.04, -1, 1, 0.04, 71.16, 527.94)"/><ellipse class="cls-4" cx="309.67" cy="227.51" rx="5.27" ry="24.72" transform="translate(71.1 527.99) rotate(-87.87)"/><ellipse class="cls-4" cx="309.67" cy="227.56" rx="5.27" ry="24.72" transform="translate(71.04 528.05) rotate(-87.87)"/><ellipse class="cls-4" cx="309.67" cy="227.62" rx="5.27" ry="24.72" transform="translate(70.98 528.11) rotate(-87.87)"/><ellipse class="cls-4" cx="309.67" cy="227.68" rx="5.27" ry="24.72" transform="translate(70.92 528.16) rotate(-87.87)"/><ellipse class="cls-4" cx="309.67" cy="227.74" rx="5.27" ry="24.72" transform="translate(70.87 528.22) rotate(-87.87)"/><ellipse class="cls-4" cx="309.67" cy="227.8" rx="5.27" ry="24.72" transform="translate(70.81 528.28) rotate(-87.87)"/><ellipse class="cls-4" cx="309.67" cy="227.86" rx="5.27" ry="24.72" transform="translate(70.75 528.33) rotate(-87.87)"/><ellipse class="cls-4" cx="309.67" cy="227.92" rx="5.27" ry="24.72" transform="translate(70.69 528.39) rotate(-87.87)"/><ellipse class="cls-4" cx="309.67" cy="227.98" rx="5.27" ry="24.72" transform="translate(70.63 528.45) rotate(-87.87)"/><ellipse class="cls-4" cx="309.67" cy="228.04" rx="5.27" ry="24.72" transform="translate(70.57 528.51) rotate(-87.87)"/><ellipse class="cls-4" cx="309.67" cy="228.1" rx="5.27" ry="24.72" transform="matrix(0.04, -1, 1, 0.04, 70.51, 528.56)"/><ellipse class="cls-4" cx="309.67" cy="228.15" rx="5.27" ry="24.72" transform="translate(70.45 528.62) rotate(-87.87)"/><ellipse class="cls-4" cx="309.67" cy="228.21" rx="5.27" ry="24.72" transform="translate(70.39 528.68) rotate(-87.87)"/><ellipse class="cls-4" cx="309.67" cy="228.27" rx="5.27" ry="24.72" transform="translate(70.33 528.73) rotate(-87.87)"/><ellipse class="cls-4" cx="309.67" cy="228.33" rx="5.27" ry="24.72" transform="translate(70.27 528.79) rotate(-87.87)"/><ellipse class="cls-4" cx="309.67" cy="228.39" rx="5.27" ry="24.72" transform="translate(70.22 528.85) rotate(-87.87)"/><ellipse class="cls-4" cx="309.67" cy="228.45" rx="5.27" ry="24.72" transform="translate(70.16 528.9) rotate(-87.87)"/><ellipse class="cls-4" cx="309.67" cy="228.51" rx="5.27" ry="24.72" transform="matrix(0.04, -1, 1, 0.04, 70.1, 528.96)"/><ellipse class="cls-4" cx="309.67" cy="228.57" rx="5.27" ry="24.72" transform="translate(70.04 529.02) rotate(-87.87)"/><ellipse class="cls-4" cx="309.67" cy="228.63" rx="5.27" ry="24.72" transform="translate(69.98 529.07) rotate(-87.87)"/><ellipse class="cls-4" cx="309.67" cy="228.69" rx="5.27" ry="24.72" transform="translate(69.92 529.13) rotate(-87.87)"/><ellipse class="cls-4" cx="309.67" cy="228.75" rx="5.27" ry="24.72" transform="translate(69.86 529.19) rotate(-87.87)"/><ellipse class="cls-4" cx="309.67" cy="228.8" rx="5.27" ry="24.72" transform="translate(69.8 529.24) rotate(-87.87)"/><ellipse class="cls-4" cx="309.67" cy="228.86" rx="5.27" ry="24.72" transform="translate(69.74 529.3) rotate(-87.87)"/><ellipse class="cls-4" cx="309.67" cy="228.92" rx="5.27" ry="24.72" transform="translate(69.68 529.36) rotate(-87.87)"/><ellipse class="cls-4" cx="309.67" cy="228.98" rx="5.27" ry="24.72" transform="translate(69.63 529.42) rotate(-87.87)"/><ellipse class="cls-4" cx="309.67" cy="229.04" rx="5.27" ry="24.72" transform="translate(69.57 529.47) rotate(-87.87)"/><ellipse class="cls-4" cx="309.67" cy="229.1" rx="5.27" ry="24.72" transform="translate(69.51 529.53) rotate(-87.87)"/><ellipse class="cls-4" cx="309.67" cy="229.16" rx="5.27" ry="24.72" transform="translate(69.45 529.59) rotate(-87.87)"/><ellipse class="cls-4" cx="309.67" cy="229.22" rx="5.27" ry="24.72" transform="translate(69.39 529.64) rotate(-87.87)"/><ellipse class="cls-4" cx="309.67" cy="229.28" rx="5.27" ry="24.72" transform="translate(69.33 529.7) rotate(-87.87)"/><ellipse class="cls-4" cx="309.67" cy="229.34" rx="5.27" ry="24.72" transform="translate(69.27 529.76) rotate(-87.87)"/><ellipse class="cls-2" cx="309.67" cy="223.37" rx="5.27" ry="24.72" transform="translate(75.23 524.01) rotate(-87.87)"/></g></g></svg>