<svg xmlns="http://www.w3.org/2000/svg" xmlns:xlink="http://www.w3.org/1999/xlink" version="1" width="150" height="150"><defs><linearGradient id="c"><stop offset="0" stop-color="#b2b2bf"/><stop offset="1" stop-color="#151519"/></linearGradient><linearGradient id="e"><stop offset="0" stop-color="#2f2f39"/><stop offset="1" stop-color="#9393a6"/></linearGradient><linearGradient id="f"><stop offset="0" stop-color="#f4f4f6"/><stop offset="1" stop-color="#fff" stop-opacity="0"/></linearGradient><linearGradient id="d"><stop offset="0" stop-color="#ff372c"/><stop offset="1" stop-color="#a11f18"/></linearGradient><linearGradient id="b"><stop offset="0" stop-color="#fff"/><stop offset="1" stop-color="#fff" stop-opacity="0"/></linearGradient><linearGradient id="a"><stop offset="0" stop-color="#f4f4f6"/><stop offset="1" stop-color="#a1a2c0"/></linearGradient><linearGradient xlink:href="#c" id="m" gradientUnits="userSpaceOnUse" gradientTransform="translate(-155.497 -.393)" x1="260.559" y1="38.835" x2="271.946" y2="50.615"/><linearGradient xlink:href="#a" id="n" gradientUnits="userSpaceOnUse" x1="95.437" y1="54.316" x2="99.91" y2="58.712"/><linearGradient xlink:href="#a" id="o" gradientUnits="userSpaceOnUse" x1="117.937" y1="39.269" x2="131.347" y2="19.276"/><linearGradient xlink:href="#a" id="k" gradientUnits="userSpaceOnUse" x1="253.144" y1="111.463" x2="270.637" y2="107.22"/><linearGradient xlink:href="#a" id="l" gradientUnits="userSpaceOnUse" gradientTransform="translate(-144.603 .354)" x1="255.251" y1="111.475" x2="273.819" y2="111.475"/><linearGradient xlink:href="#b" id="j" gradientUnits="userSpaceOnUse" x1="105.724" y1="85.294" x2="96.721" y2="92.094"/><linearGradient xlink:href="#f" id="i" gradientUnits="userSpaceOnUse" x1="39.36" y1="21.47" x2="45.142" y2="59.042"/><linearGradient xlink:href="#d" id="h" gradientUnits="userSpaceOnUse" x1="132.594" y1="130.903" x2="-30.519" y2="-30.766"/><linearGradient xlink:href="#e" id="g" gradientUnits="userSpaceOnUse" x1="20.621" y1="16.679" x2="190.027" y2="189.498"/><linearGradient xlink:href="#b" id="q" gradientUnits="userSpaceOnUse" x1="61.156" y1="76.923" x2="74.122" y2="90.246"/><linearGradient xlink:href="#d" id="p" gradientUnits="userSpaceOnUse" x1="28.838" y1="139.092" x2="70.107" y2="50.837"/></defs><path d="M58.082 80.41c0-1.141-2.018-1.56-7.533-1.56-20.401 0-35.556-14.536-35.585-34.132-.006-4.348.75-9.725 1.678-11.948 2.724-6.52 4.937-5.51 16.254 5.865 10.27 10.324 12.184 13.499 17.429 7.777 5.331-5.816 3.598-7.117-6.565-17.226-11.481-11.422-13.823-13.52-7.055-16.349 14.313-5.98 33.451 1.285 41.589 15.787 2.94 5.242 3.625 7.937 4.045 15.946.45 8.576.848 9.965 3.612 12.613 33.5 33.97-9.093-9.075 30.644 30.993 13.041 13.026 21.707 21.567 20.752 22.742-1.06 2.69-20.806 22.753-22.671 22.718-.67.707-10.4-8.828-21.129-19.481-34.643-34 4.389 3.63-35.465-33.745z" fill="url(#g)"/><path d="M46.063 12.781c-3.514.53-8.957.774-11.063 3.75 5.28 8.75 15.945 13.895 20.125 23.407.522 5.13-4.24 10.29-9.094 11.28-7.361-.913-11.044-8.996-16.562-13.156-3.008-2.265-5.64-6.87-9.5-7.124-4.742 8.443-3.66 20.047.531 28.75 6.26 12.634 21.275 17.539 35.883 16.574 6.28.307 5.13 4.499 11.069 10.062 15.56 14.136 28.38 27.497 47.423 45.145 7.254-7.237 12.784-12.778 20.219-20.719-19.185-21.03-37.988-38.141-54.934-56.996-.124-3.78 2.005-17.423-4.347-25.41-6.33-9.927-18.023-16.082-29.75-15.563zM34.968 16.22l-.032.031.032-.031z" fill="#8b1f1f"/><path d="M46.125 14.781c-2.668.51-6.535.45-8.438 2.188 5.753 8.503 17.238 13.505 19.47 24.062-.22 7.9-10.135 15.782-17.157 10-6.78-5.32-11.87-12.718-18.938-17.781-6.612 15.175 1.903 35.122 18.157 39.719 6.068 2.793 15.162.12 21.402 1.752 18.73 19.006 35.404 36.622 54.473 54.06 6.885-6.63 11.464-11.254 17.5-17.906-18.087-19.03-37.843-37.856-54.31-56.756.085-8.208 2.034-19.325-5.909-27.15-6.084-7.79-16.151-12.638-26.25-12.188z" fill="url(#h)"/><path d="M46.188 16.781c-3.906.083-7.403.819-2.626 4C49.752 26.883 59.373 33.1 58.97 42.906c-1.224 9.107-13.57 16.324-20.875 9.157-5.737-4.475-10.682-11.576-16.188-15.313-4.893 15.416 5.896 32.977 22.407 35.438 15.379-.819 27.44-2.548 31.53-15.464 1.942-13.845-.29-20.953-6.75-30.536-5.876-6.166-14.407-9.801-22.906-9.407z" fill="url(#i)"/><path d="M77.5 58.156c-4.426 6.713-9.178 11.938-15.92 15.865 16.91 18.392 35.125 35.338 53.483 52.229 5.534-5.947 10.16-10.062 15.03-15.25-18.176-19.34-35.831-34.61-52.468-53.063l-.125.22z" fill="url(#j)"/><path transform="translate(-144.603 .354)" d="M266.226 111.463a6.54 6.364 0 1 1-13.082 0 6.54 6.364 0 1 1 13.082 0z" style="marker:none" color="#000" fill="url(#k)" overflow="visible"/><path d="M114.615 107.479c-5.163.126-5.371 8.377-.125 8.656 6.153.773 7.405-8.71.125-8.656z" style="marker:none" color="#000" fill="url(#l)" overflow="visible"/><path style="marker:none" d="M70.817 75.807c37.503-36.342 40.565-40.58 40.708-42.366.443-5.519.894-6.916 6.725-10.033 6.833-3.652 12.137-5.82 12.436-5.185.31.764 4.81 4.17 4.691 5.826-.12 1.657-5.274 11.665-7.719 15.333-2.474 3.71-1.945 1.004-7.877 2.182-1.97.391-3.13 2.25-41.796 40.767" color="#000" fill="url(#m)" overflow="visible"/><path d="M129.596 20.326c-5.152 2.68-12.174 4.053-15.437 9.094.219 5.46-3.336 9.469-7.012 13.064-10.805 11.361-22.142 22.32-33.426 33.28 1.854 3.68.481 2.368 4.92 2.423 10.617-9.941 27.151-29.181 38.354-38.298 3-1.586 8.904 1.204 9.976-3.157 1.927-4.285 5.724-9.964 6.229-13.728-1.016-1.002-2.413-2.116-3.604-2.678z" style="marker:none" color="#000" fill="url(#n)" overflow="visible"/><path d="M130.76 21.204l2.002 1.964s-5.527 9.807-7.5 11.78c-1.767 1.767-7.068 0-7.068 0s-.786-5.596.392-6.676c1.405-1.288 12.173-7.068 12.173-7.068z" fill="url(#o)" fill-rule="evenodd"/><path d="M86.46 86.554c-1.002 2.108-1.941 4.787-3.568 7.929-5.726.649-6.462-1.838-11.372 5.4-.673 0-2.076 2.57-5.999 7.631-9.655 12.456-22.9 25.874-29.9 30.291-8.131 5.13-12.913 4.94-18.35-.734-2.305-2.404-4.5-5.42-4.88-6.702-2.04-6.887 12.356-24.563 33.658-41.33 12.353-8.042 13.248-9.051 11.107-18.245 2.954-1.926 4.528-1.655 9.929-3.767" fill="#8b1f1f"/><path d="M18.71 134.637c-1.99-2.266-4.324-4.632-4.324-5.69 0-7.213 13.84-22.928 33.132-37.62 10.754-8.19 13.494-11.077 13.494-17.695 0-1.309 1.278-2.672 3.182-3.397 2.994-1.138 2.27-.342 10.255 7.825 7.447 7.618 9.069 8.665 8.176 11.085-.56 1.516-1.286 3.086-2.511 3.114-9.224.215-6.797-.09-13.586 8.732-9.664 12.558-25.807 29.925-32.263 34.078-7.22 4.647-12.389 3.017-15.554-.432z" fill="url(#p)"/><path d="M42.3 125.333c7.6-7.716 23.12-29.028 30.505-37.282 2.841-3.175 5.26-2.575 4.968-3.253-.982-2.285-10.244-10.388-13.074-12.83-.664-.572-1.147 1.908-1.356 3.177-1.06 6.449-2.01 6.442-11.366 13.951-19.666 15.784-35.508 32.772-35.508 38.697 0 2.764 4.704 6.958 7.547 7.037.697.02 5.038 3.953 18.285-9.497z" fill="url(#q)"/></svg>