<svg xmlns="http://www.w3.org/2000/svg" id="aaeb9f3d-34b8-42b0-9bc7-787c881904fe" data-name="Layer 1" viewBox="0 0 481.76 441.23"><defs><style>.a284ce1a-10ad-49b4-9787-16adb532e902,.ad4cff0e-b1fe-40d7-be1a-9c619ffb4c70,.b3133fde-75c8-4ddb-a542-4b6c84f877d4,.b6309cbe-c5b2-45d3-a475-e60834b83bbf,.eaab7c81-34a6-4e8f-9378-aa9476fd4609{fill:none}.ad4cff0e-b1fe-40d7-be1a-9c619ffb4c70{stroke:#466bb0;stroke-dasharray:9.97 9.97}.a284ce1a-10ad-49b4-9787-16adb532e902,.ad4cff0e-b1fe-40d7-be1a-9c619ffb4c70,.b3133fde-75c8-4ddb-a542-4b6c84f877d4,.b6309cbe-c5b2-45d3-a475-e60834b83bbf{stroke-linejoin:round}.aff978df-f438-425b-80e2-b3ecdb438bbf,.f02c0556-b13f-47f1-ad04-05def5dd4408{font-size:12px}.a4934527-175c-45a9-a4b3-1a1c6a4acc0b,.a67ebf25-f187-469d-a984-e4de9a9dbf90,.bb799e8f-0f0e-4697-b08e-3a5a8082e863,.f02c0556-b13f-47f1-ad04-05def5dd4408{fill:#010101}.f02c0556-b13f-47f1-ad04-05def5dd4408{font-family:GoogleSansDisplay-Bold,Google Sans Display;font-weight:700}.ab2302b2-00b2-4529-94bb-c7da23e93abc{letter-spacing:-.01em}.ba99bf17-3293-41fe-ad3c-8f878229b4e9{letter-spacing:.01em}.e03b30ab-9057-486a-9e4d-306f811b0063{letter-spacing:0}.e768fff1-c6d3-4d1b-8aeb-e8a7e4607398{letter-spacing:-.01em}.e0f74164-11da-4a40-a415-c586bdcd48f7{letter-spacing:0}.a1301992-e91e-4a25-a319-277215d5e2ae{fill:#e4e4e3}.bf908b7d-2eb9-4c10-8f18-3855296f0ae7{fill:#fff}.a4934527-175c-45a9-a4b3-1a1c6a4acc0b,.a67ebf25-f187-469d-a984-e4de9a9dbf90{isolation:isolate}.a67ebf25-f187-469d-a984-e4de9a9dbf90,.bb799e8f-0f0e-4697-b08e-3a5a8082e863{font-size:14px}.a4934527-175c-45a9-a4b3-1a1c6a4acc0b,.a67ebf25-f187-469d-a984-e4de9a9dbf90,.aff978df-f438-425b-80e2-b3ecdb438bbf,.bb799e8f-0f0e-4697-b08e-3a5a8082e863{font-family:GoogleSansDisplay-Regular,Google Sans Display}.afa20b39-f5f9-475f-80ea-e2081c9a7a35{letter-spacing:0}.f08b3b99-6c62-4609-a9c5-96ab668f911b{letter-spacing:.01em}.af4722f1-377b-4eec-affc-3cf57b70cb0c{letter-spacing:-.01em}.ee6f9c03-3b77-4397-9977-a24a3289c40e{fill:#486caf}.bfcf4242-87c3-4293-8573-d85c2b24bf84{fill:#486cae}.be6cb665-bfb1-4a80-a85d-d58b806e9c6a{fill:#6d6e71}.e4677ee6-ceea-4183-a03c-46a423a447cb{fill:#e5e5e4}.b98fe17c-5456-44b2-a710-d9607792f711{letter-spacing:.02em}.a59e0bc4-6a27-4b0f-9de7-38db14f43a6e,.bffff2cd-d46d-4ff8-a232-3681122efd99{letter-spacing:0}.ad65f959-6568-4539-9566-cf7f44361e0c{letter-spacing:-.03em}.eb5b5e45-adf7-472f-ab36-f48a1efd9580{fill:#777677}.b6309cbe-c5b2-45d3-a475-e60834b83bbf,.eaab7c81-34a6-4e8f-9378-aa9476fd4609{stroke:#fff}.a284ce1a-10ad-49b4-9787-16adb532e902,.b6309cbe-c5b2-45d3-a475-e60834b83bbf,.eaab7c81-34a6-4e8f-9378-aa9476fd4609{stroke-width:2px}.a284ce1a-10ad-49b4-9787-16adb532e902,.eaab7c81-34a6-4e8f-9378-aa9476fd4609{stroke-linecap:round}.eaab7c81-34a6-4e8f-9378-aa9476fd4609{stroke-miterlimit:10}.b3133fde-75c8-4ddb-a542-4b6c84f877d4{stroke:#b24d9d;stroke-width:3px}.f8d3547a-e618-4a40-b861-e321731fe151{letter-spacing:-.03em}.a540b33d-3378-40e1-bbea-4cf670706ec1{letter-spacing:-.01em}.a4934527-175c-45a9-a4b3-1a1c6a4acc0b{font-size:8.96px}.a5c96841-0783-4213-a17a-aa1e091f2ad4,.bc157e8d-b8cd-47b3-80f4-a42df165fc6a,.fc36a6a5-e90b-475e-bc32-1615ede5b6b7{letter-spacing:0}.ee79cb27-ee91-4632-8b5b-e771140af7e3{letter-spacing:-.03em}.b37ff6b0-5cbb-47fd-a349-f03f7299bf15{fill:#496caf}.b6d08310-c069-4548-a241-6f66969d2800{letter-spacing:-.02em}.a5e2dfd5-91fb-47d9-8b58-67124731af63{letter-spacing:.01em}.a244e0df-c62a-454f-9318-a65d8e64301b,.e3ee3b72-a2d2-4124-87f5-b97ed9a04121{letter-spacing:-.01em}.b4ccbfaa-d05e-403a-9390-5b4610640872{letter-spacing:-.02em}.a284ce1a-10ad-49b4-9787-16adb532e902{stroke:#496caf;stroke-dasharray:6 12}.aff978df-f438-425b-80e2-b3ecdb438bbf{fill:#231f20}.ee897b32-4902-4e1a-95f2-66004bdaff3d,.ff671003-90a0-4315-93cf-b057da03afbd{letter-spacing:0}.a4d1c011-b66b-4f51-9a5e-414c4eb36ebd{letter-spacing:.01em}.bc8f992c-9067-4e38-a5fd-e3e657858ac0,.eac7174b-48a4-4965-a8ef-e83a22c5dc35{letter-spacing:-.02em}.b2eeecc5-4ff2-4b4a-9c4f-c3c864bcf46a{letter-spacing:.01em}.a326f681-6bc4-4fdb-ae75-c5888a7e6623{letter-spacing:-.01em}.a9c8522d-3e0e-4a67-8188-dd299cafcdc2{letter-spacing:-.02em}.e66f9ba5-d5eb-4f3d-9c1e-862267a61fe2{letter-spacing:-.01em}.f21ad267-d376-41c8-ab40-1ef748cac109{fill:#f26722}</style></defs><title>identity-prov</title><rect width="480.76" height="424.76" x=".5" y="15.97" class="ad4cff0e-b1fe-40d7-be1a-9c619ffb4c70" rx="10"/><text class="f02c0556-b13f-47f1-ad04-05def5dd4408" transform="translate(0.5 10.3)">I<tspan x="3.52" y="0" class="ab2302b2-00b2-4529-94bb-c7da23e93abc">s</tspan><tspan x="9.38" y="0" class="ba99bf17-3293-41fe-ad3c-8f878229b4e9">t</tspan><tspan x="14.36" y="0" class="ab2302b2-00b2-4529-94bb-c7da23e93abc">i</tspan><tspan x="17.56" y="0" class="e03b30ab-9057-486a-9e4d-306f811b0063">o </tspan><tspan x="27.46" y="0" class="e768fff1-c6d3-4d1b-8aeb-e8a7e4607398">M</tspan><tspan x="38.08" y="0" class="e0f74164-11da-4a40-a415-c586bdcd48f7">e</tspan><tspan x="45" y="0" class="e03b30ab-9057-486a-9e4d-306f811b0063">sh</tspan></text><path d="M358.11,415.45H113.68a4.68,4.68,0,0,1-4.57-4.57V310.28a4.68,4.68,0,0,1,4.57-4.57H358.11a4.68,4.68,0,0,1,4.57,4.57v100.6A4.58,4.58,0,0,1,358.11,415.45Z" class="a1301992-e91e-4a25-a319-277215d5e2ae"/><path d="M232.58,385.85h-111a3.08,3.08,0,0,1-3-3v-48a3.08,3.08,0,0,1,3-3h111a3.08,3.08,0,0,1,3,3v48A3.08,3.08,0,0,1,232.58,385.85Z" class="bf908b7d-2eb9-4c10-8f18-3855296f0ae7"/><text class="a67ebf25-f187-469d-a984-e4de9a9dbf90" transform="translate(181.88 363.68)">i<tspan x="3.14" y="0" class="afa20b39-f5f9-475f-80ea-e2081c9a7a35">s</tspan><tspan x="9.55" y="0" class="f08b3b99-6c62-4609-a9c5-96ab668f911b">t</tspan><tspan x="14.63" y="0" class="af4722f1-377b-4eec-affc-3cf57b70cb0c">i</tspan><tspan x="17.7" y="0">od</tspan></text><polygon points="132.28 374.35 159.78 374.35 142.58 379.45 132.28 374.35" class="ee6f9c03-3b77-4397-9977-a24a3289c40e"/><polygon points="132.28 372.55 142.58 370.85 142.58 351.95 132.28 372.55" class="ee6f9c03-3b77-4397-9977-a24a3289c40e"/><polygon points="144.28 370.85 159.78 372.55 144.28 338.25 144.28 370.85" class="bfcf4242-87c3-4293-8573-d85c2b24bf84"/><rect width="252.22" height="136.06" x="114.82" y="46.96" class="be6cb665-bfb1-4a80-a85d-d58b806e9c6a" rx="3"/><rect width="252.22" height="136.06" x="109.11" y="41.24" class="e4677ee6-ceea-4183-a03c-46a423a447cb" rx="3"/><rect width="117" height="40.35" x="176.71" y="48.82" class="bf908b7d-2eb9-4c10-8f18-3855296f0ae7" rx="3"/><text class="bb799e8f-0f0e-4697-b08e-3a5a8082e863" transform="translate(228.54 73.51)">Se<tspan x="15.53" y="0" class="b98fe17c-5456-44b2-a710-d9607792f711">r</tspan><tspan x="20.89" y="0">v</tspan><tspan x="27.92" y="0" class="a59e0bc4-6a27-4b0f-9de7-38db14f43a6e">ic</tspan><tspan x="38.39" y="0" class="bffff2cd-d46d-4ff8-a232-3681122efd99">e</tspan><tspan x="46.09" y="0" class="ad65f959-6568-4539-9566-cf7f44361e0c"> </tspan><tspan x="48.92" y="0">A</tspan></text><circle cx="203.17" cy="68.99" r="18" class="eb5b5e45-adf7-472f-ab36-f48a1efd9580"/><rect width="12.79" height="12.79" x="196.77" y="62.48" class="b6309cbe-c5b2-45d3-a475-e60834b83bbf"/><line x1="199.14" x2="199.14" y1="62.48" y2="59.4" class="eaab7c81-34a6-4e8f-9378-aa9476fd4609"/><line x1="203.17" x2="203.17" y1="62.48" y2="59.4" class="eaab7c81-34a6-4e8f-9378-aa9476fd4609"/><line x1="207.2" x2="207.2" y1="62.48" y2="59.4" class="eaab7c81-34a6-4e8f-9378-aa9476fd4609"/><line x1="199.14" x2="199.14" y1="78.59" y2="75.51" class="eaab7c81-34a6-4e8f-9378-aa9476fd4609"/><line x1="203.17" x2="203.17" y1="78.59" y2="75.51" class="eaab7c81-34a6-4e8f-9378-aa9476fd4609"/><line x1="207.2" x2="207.2" y1="78.59" y2="75.51" class="eaab7c81-34a6-4e8f-9378-aa9476fd4609"/><line x1="196.66" x2="193.58" y1="73.02" y2="73.02" class="eaab7c81-34a6-4e8f-9378-aa9476fd4609"/><line x1="196.66" x2="193.58" y1="68.99" y2="68.99" class="eaab7c81-34a6-4e8f-9378-aa9476fd4609"/><line x1="196.66" x2="193.58" y1="64.97" y2="64.97" class="eaab7c81-34a6-4e8f-9378-aa9476fd4609"/><line x1="212.76" x2="209.68" y1="73.02" y2="73.02" class="eaab7c81-34a6-4e8f-9378-aa9476fd4609"/><line x1="212.76" x2="209.68" y1="68.99" y2="68.99" class="eaab7c81-34a6-4e8f-9378-aa9476fd4609"/><line x1="212.76" x2="209.68" y1="64.97" y2="64.97" class="eaab7c81-34a6-4e8f-9378-aa9476fd4609"/><rect width="5.68" height="5.68" x="200.33" y="66.03" class="bf908b7d-2eb9-4c10-8f18-3855296f0ae7" rx="2"/><rect width="117" height="39.08" x="236.13" y="126.79" class="bf908b7d-2eb9-4c10-8f18-3855296f0ae7" rx="3"/><polygon points="276.39 153.97 276.39 138.68 263.13 131.03 249.87 138.68 249.87 153.97 263.13 161.63 276.39 153.97" class="b3133fde-75c8-4ddb-a542-4b6c84f877d4"/><text class="bb799e8f-0f0e-4697-b08e-3a5a8082e863" transform="translate(299.92 150.77)">P<tspan x="8.04" y="0" class="f8d3547a-e618-4a40-b861-e321731fe151">r</tspan><tspan x="12.74" y="0" class="a540b33d-3378-40e1-bbea-4cf670706ec1">o</tspan><tspan x="20.61" y="0">xy</tspan></text><path d="M196.28,160.52h-74.6a3,3,0,0,1-3-3v-22.4a3.08,3.08,0,0,1,3-3h74.6a3.08,3.08,0,0,1,3,3v22.4A3,3,0,0,1,196.28,160.52Z" class="bf908b7d-2eb9-4c10-8f18-3855296f0ae7"/><text class="a4934527-175c-45a9-a4b3-1a1c6a4acc0b" transform="translate(137.39 149.04)">i<tspan x="2.01" y="0" class="bc157e8d-b8cd-47b3-80f4-a42df165fc6a">s</tspan><tspan x="6.11" y="0" class="a5c96841-0783-4213-a17a-aa1e091f2ad4">t</tspan><tspan x="9.36" y="0" class="bc157e8d-b8cd-47b3-80f4-a42df165fc6a">i</tspan><tspan x="11.33" y="0">o-</tspan><tspan x="20.44" y="0" class="bc157e8d-b8cd-47b3-80f4-a42df165fc6a">ag</tspan><tspan x="30.29" y="0" class="fc36a6a5-e90b-475e-bc32-1615ede5b6b7">e</tspan><tspan x="35.22" y="0" class="ee79cb27-ee91-4632-8b5b-e771140af7e3">n</tspan><tspan x="39.96" y="0">t</tspan></text><rect id="bca7ded5-7855-4619-bafa-bc673bd5edb1" width="10.5" height="10.5" x="118.58" y="132.12" class="b37ff6b0-5cbb-47fd-a349-f03f7299bf15" data-name="background"/><polygon id="ab567ddb-228b-49eb-be09-5c75be993dd2" points="121.18 140.22 126.48 140.22 123.18 141.22 121.18 140.22" class="bf908b7d-2eb9-4c10-8f18-3855296f0ae7" data-name="hull"/><polygon id="baf7e8d5-df19-4579-876b-a3135b0ca58d" points="121.18 139.93 123.18 139.63 123.18 136.03 121.18 139.93" class="bf908b7d-2eb9-4c10-8f18-3855296f0ae7" data-name="mainsail"/><polygon id="e6a0a091-e8ac-413f-93eb-75375c5bece5" points="123.48 139.63 126.48 139.93 123.48 133.43 123.48 139.63" class="bf908b7d-2eb9-4c10-8f18-3855296f0ae7" data-name="headsail"/><path d="M350.13,374.78h-74.6a3,3,0,0,1-3-3v-22.4a3.08,3.08,0,0,1,3-3h74.6a3.08,3.08,0,0,1,3,3v22.4A3,3,0,0,1,350.13,374.78Z" class="bf908b7d-2eb9-4c10-8f18-3855296f0ae7"/><text class="a4934527-175c-45a9-a4b3-1a1c6a4acc0b" transform="translate(291.6 357.91)"><tspan class="b6d08310-c069-4548-a241-6f66969d2800">C</tspan><tspan x="6.44" y="0">e</tspan><tspan x="11.37" y="0" class="a5e2dfd5-91fb-47d9-8b58-67124731af63">r</tspan><tspan x="14.74" y="0" class="a5c96841-0783-4213-a17a-aa1e091f2ad4">t</tspan><tspan x="17.99" y="0" class="fc36a6a5-e90b-475e-bc32-1615ede5b6b7">i</tspan><tspan x="20" y="0" class="a244e0df-c62a-454f-9318-a65d8e64301b">f</tspan><tspan x="23.22" y="0" class="bc157e8d-b8cd-47b3-80f4-a42df165fc6a">ic</tspan><tspan x="29.93" y="0" class="e3ee3b72-a2d2-4124-87f5-b97ed9a04121">a</tspan><tspan x="34.51" y="0" class="b4ccbfaa-d05e-403a-9390-5b4610640872">t</tspan><tspan x="37.52" y="0">e</tspan><tspan x="2.69" y="10.75" class="ee79cb27-ee91-4632-8b5b-e771140af7e3">A</tspan><tspan x="8.45" y="10.75" class="a5c96841-0783-4213-a17a-aa1e091f2ad4">ut</tspan><tspan x="16.71" y="10.75">h</tspan><tspan x="21.68" y="10.75" class="a244e0df-c62a-454f-9318-a65d8e64301b">o</tspan><tspan x="26.76" y="10.75">r</tspan><tspan x="30.04" y="10.75" class="bc157e8d-b8cd-47b3-80f4-a42df165fc6a">i</tspan><tspan x="32" y="10.75" class="a5c96841-0783-4213-a17a-aa1e091f2ad4">t</tspan><tspan x="35.26" y="10.75">y</tspan></text><rect id="b058f863-4b38-4c3d-889c-605d2ba5b0d2" width="10.5" height="10.5" x="272.43" y="346.38" class="b37ff6b0-5cbb-47fd-a349-f03f7299bf15" data-name="background"/><polygon id="bef7e655-8a33-4eb7-8734-584da1755c9b" points="275.03 354.48 280.33 354.48 277.03 355.48 275.03 354.48" class="bf908b7d-2eb9-4c10-8f18-3855296f0ae7" data-name="hull"/><polygon id="a819acb2-73b3-4842-9190-a7eadeb1352c" points="275.03 354.18 277.03 353.88 277.03 350.28 275.03 354.18" class="bf908b7d-2eb9-4c10-8f18-3855296f0ae7" data-name="mainsail"/><polygon id="b6445b85-2ece-43e0-a73c-cc7209222afe" points="277.33 353.88 280.33 354.18 277.33 347.68 277.33 353.88" class="bf908b7d-2eb9-4c10-8f18-3855296f0ae7" data-name="headsail"/><line x1="144.05" x2="144.05" y1="160.52" y2="324.68" class="a284ce1a-10ad-49b4-9787-16adb532e902"/><polygon points="139.07 323.22 144.05 331.85 149.04 323.22 139.07 323.22" class="b37ff6b0-5cbb-47fd-a349-f03f7299bf15"/><text class="aff978df-f438-425b-80e2-b3ecdb438bbf" transform="translate(111.6 249.82)">CSR</text><text class="aff978df-f438-425b-80e2-b3ecdb438bbf" transform="translate(326.97 271.42)">S<tspan x="6.71" y="0" class="ab2302b2-00b2-4529-94bb-c7da23e93abc">i</tspan><tspan x="9.34" y="0">gn</tspan><tspan x="23.04" y="0" class="e0f74164-11da-4a40-a415-c586bdcd48f7">e</tspan><tspan x="29.7" y="0" class="ee897b32-4902-4e1a-95f2-66004bdaff3d">d</tspan><tspan x="-8.9" y="14.4" class="ff671003-90a0-4315-93cf-b057da03afbd">c</tspan><tspan x="-2.55" y="14.4">e</tspan><tspan x="4.05" y="14.4" class="a4d1c011-b66b-4f51-9a5e-414c4eb36ebd">r</tspan><tspan x="8.56" y="14.4" class="e0f74164-11da-4a40-a415-c586bdcd48f7">t</tspan><tspan x="12.92" y="14.4">i</tspan><tspan x="15.61" y="14.4" class="e768fff1-c6d3-4d1b-8aeb-e8a7e4607398">f</tspan><tspan x="19.93" y="14.4" class="ab2302b2-00b2-4529-94bb-c7da23e93abc">ic</tspan><tspan x="28.9" y="14.4" class="e768fff1-c6d3-4d1b-8aeb-e8a7e4607398">a</tspan><tspan x="35.05" y="14.4" class="eac7174b-48a4-4965-a8ef-e83a22c5dc35">t</tspan><tspan x="39.08" y="14.4" class="e03b30ab-9057-486a-9e4d-306f811b0063">e</tspan></text><text class="aff978df-f438-425b-80e2-b3ecdb438bbf" transform="translate(187.57 110.45)"><tspan class="bc8f992c-9067-4e38-a5fd-e3e657858ac0">C</tspan><tspan x="8.63" y="0">e</tspan><tspan x="15.23" y="0" class="b2eeecc5-4ff2-4b4a-9c4f-c3c864bcf46a">r</tspan><tspan x="19.74" y="0" class="ba99bf17-3293-41fe-ad3c-8f878229b4e9">t</tspan><tspan x="24.1" y="0">i</tspan><tspan x="26.78" y="0" class="a326f681-6bc4-4fdb-ae75-c5888a7e6623">f</tspan><tspan x="31.1" y="0" class="ff671003-90a0-4315-93cf-b057da03afbd">ic</tspan><tspan x="40.08" y="0" class="e768fff1-c6d3-4d1b-8aeb-e8a7e4607398">a</tspan><tspan x="46.22" y="0" class="a9c8522d-3e0e-4a67-8188-dd299cafcdc2">t</tspan><tspan x="50.26" y="0">e and </tspan><tspan x="82.42" y="0" class="ab2302b2-00b2-4529-94bb-c7da23e93abc">p</tspan><tspan x="89.39" y="0">ri</tspan><tspan x="96.47" y="0" class="a326f681-6bc4-4fdb-ae75-c5888a7e6623">va</tspan><tspan x="108.52" y="0" class="eac7174b-48a4-4965-a8ef-e83a22c5dc35">t</tspan><tspan x="112.55" y="0">e </tspan><tspan x="121.93" y="0" class="e66f9ba5-d5eb-4f3d-9c1e-862267a61fe2">k</tspan><tspan x="127.68" y="0" class="e768fff1-c6d3-4d1b-8aeb-e8a7e4607398">e</tspan><tspan x="134.16" y="0" class="ee897b32-4902-4e1a-95f2-66004bdaff3d">y</tspan></text><line x1="235.58" x2="265.25" y1="360.58" y2="360.58" class="a284ce1a-10ad-49b4-9787-16adb532e902"/><polygon points="263.79 365.57 272.43 360.58 263.79 355.59 263.79 365.57" class="b37ff6b0-5cbb-47fd-a349-f03f7299bf15"/><polyline points="312.83 346.38 312.83 246.19 181.88 246.19 181.88 167.7" class="a284ce1a-10ad-49b4-9787-16adb532e902"/><polygon points="186.87 169.16 181.88 160.53 176.89 169.16 186.87 169.16" class="b37ff6b0-5cbb-47fd-a349-f03f7299bf15"/><path d="M348.86,134.42l1,1a.49.49,0,0,1,.14.52.51.51,0,0,1-.38.37l-1.39.35.39,1.37a.49.49,0,0,1-.13.53.5.5,0,0,1-.53.14l-1.37-.4-.36,1.39a.47.47,0,0,1-.37.39.49.49,0,0,1-.51-.14l-1-1-1,1a.53.53,0,0,1-.52.14.48.48,0,0,1-.37-.39l-.35-1.39-1.37.4a.52.52,0,0,1-.54-.14.51.51,0,0,1-.13-.53l.4-1.37-1.39-.35a.5.5,0,0,1-.38-.37.48.48,0,0,1,.13-.52l1-1-1-1a.48.48,0,0,1-.13-.52.5.5,0,0,1,.38-.37l1.39-.35-.4-1.37a.51.51,0,0,1,.13-.53.52.52,0,0,1,.54-.14l1.37.4.35-1.39a.48.48,0,0,1,.38-.39.51.51,0,0,1,.51.14l1,1,1-1a.5.5,0,0,1,.52-.13.48.48,0,0,1,.36.38l.36,1.39,1.37-.4a.5.5,0,0,1,.53.14.49.49,0,0,1,.13.53l-.39,1.37,1.39.35a.51.51,0,0,1,.38.37.49.49,0,0,1-.14.52Z" class="f21ad267-d376-41c8-ab40-1ef748cac109"/><polyline points="181.88 132.13 181.88 114.99 344.36 114.99 344.36 119.61" class="a284ce1a-10ad-49b4-9787-16adb532e902"/><polygon points="339.38 118.15 344.36 126.78 349.35 118.15 339.38 118.15" class="b37ff6b0-5cbb-47fd-a349-f03f7299bf15"/></svg>